<?xml version="1.0" encoding="utf-8" standalone="no"?>
<!DOCTYPE svg PUBLIC "-//W3C//DTD SVG 1.1//EN"
  "http://www.w3.org/Graphics/SVG/1.1/DTD/svg11.dtd">
<svg xmlns:xlink="http://www.w3.org/1999/xlink" width="402.1125pt" height="290.99625pt" viewBox="0 0 402.1125 290.99625" xmlns="http://www.w3.org/2000/svg" version="1.1">
 <metadata>
  <rdf:RDF xmlns:dc="http://purl.org/dc/elements/1.1/" xmlns:cc="http://creativecommons.org/ns#" xmlns:rdf="http://www.w3.org/1999/02/22-rdf-syntax-ns#">
   <cc:Work>
    <dc:type rdf:resource="http://purl.org/dc/dcmitype/StillImage"/>
    <dc:date>2022-10-20T19:08:45.093099</dc:date>
    <dc:format>image/svg+xml</dc:format>
    <dc:creator>
     <cc:Agent>
      <dc:title>Matplotlib v3.6.0, https://matplotlib.org/</dc:title>
     </cc:Agent>
    </dc:creator>
   </cc:Work>
  </rdf:RDF>
 </metadata>
 <defs>
  <style type="text/css">*{stroke-linejoin: round; stroke-linecap: butt}</style>
 </defs>
 <g id="figure_1">
  <g id="patch_1">
   <path d="M 0 290.99625 
L 402.1125 290.99625 
L 402.1125 0 
L 0 0 
L 0 290.99625 
z
" style="fill: none"/>
  </g>
  <g id="axes_1">
   <g id="patch_2">
    <path d="M 52.160938 253.44 
L 386.960938 253.44 
L 386.960938 36 
L 52.160938 36 
z
" style="fill: #ffffff"/>
   </g>
   <g id="matplotlib.axis_1">
    <g id="xtick_1">
     <g id="line2d_1">
      <defs>
       <path id="mebc415e760" d="M 0 0 
L 0 3.5 
" style="stroke: #000000; stroke-width: 0.8"/>
      </defs>
      <g>
       <use xlink:href="#mebc415e760" x="52.160938" y="253.44" style="stroke: #000000; stroke-width: 0.8"/>
      </g>
     </g>
     <g id="text_1">
      <!-- 0.0 -->
      <g transform="translate(44.209375 268.038437) scale(0.1 -0.1)">
       <defs>
        <path id="DejaVuSans-30" d="M 2034 4250 
Q 1547 4250 1301 3770 
Q 1056 3291 1056 2328 
Q 1056 1369 1301 889 
Q 1547 409 2034 409 
Q 2525 409 2770 889 
Q 3016 1369 3016 2328 
Q 3016 3291 2770 3770 
Q 2525 4250 2034 4250 
z
M 2034 4750 
Q 2819 4750 3233 4129 
Q 3647 3509 3647 2328 
Q 3647 1150 3233 529 
Q 2819 -91 2034 -91 
Q 1250 -91 836 529 
Q 422 1150 422 2328 
Q 422 3509 836 4129 
Q 1250 4750 2034 4750 
z
" transform="scale(0.015625)"/>
        <path id="DejaVuSans-2e" d="M 684 794 
L 1344 794 
L 1344 0 
L 684 0 
L 684 794 
z
" transform="scale(0.015625)"/>
       </defs>
       <use xlink:href="#DejaVuSans-30"/>
       <use xlink:href="#DejaVuSans-2e" x="63.623047"/>
       <use xlink:href="#DejaVuSans-30" x="95.410156"/>
      </g>
     </g>
    </g>
    <g id="xtick_2">
     <g id="line2d_2">
      <g>
       <use xlink:href="#mebc415e760" x="119.120938" y="253.44" style="stroke: #000000; stroke-width: 0.8"/>
      </g>
     </g>
     <g id="text_2">
      <!-- 0.2 -->
      <g transform="translate(111.169375 268.038437) scale(0.1 -0.1)">
       <defs>
        <path id="DejaVuSans-32" d="M 1228 531 
L 3431 531 
L 3431 0 
L 469 0 
L 469 531 
Q 828 903 1448 1529 
Q 2069 2156 2228 2338 
Q 2531 2678 2651 2914 
Q 2772 3150 2772 3378 
Q 2772 3750 2511 3984 
Q 2250 4219 1831 4219 
Q 1534 4219 1204 4116 
Q 875 4013 500 3803 
L 500 4441 
Q 881 4594 1212 4672 
Q 1544 4750 1819 4750 
Q 2544 4750 2975 4387 
Q 3406 4025 3406 3419 
Q 3406 3131 3298 2873 
Q 3191 2616 2906 2266 
Q 2828 2175 2409 1742 
Q 1991 1309 1228 531 
z
" transform="scale(0.015625)"/>
       </defs>
       <use xlink:href="#DejaVuSans-30"/>
       <use xlink:href="#DejaVuSans-2e" x="63.623047"/>
       <use xlink:href="#DejaVuSans-32" x="95.410156"/>
      </g>
     </g>
    </g>
    <g id="xtick_3">
     <g id="line2d_3">
      <g>
       <use xlink:href="#mebc415e760" x="186.080938" y="253.44" style="stroke: #000000; stroke-width: 0.8"/>
      </g>
     </g>
     <g id="text_3">
      <!-- 0.4 -->
      <g transform="translate(178.129375 268.038437) scale(0.1 -0.1)">
       <defs>
        <path id="DejaVuSans-34" d="M 2419 4116 
L 825 1625 
L 2419 1625 
L 2419 4116 
z
M 2253 4666 
L 3047 4666 
L 3047 1625 
L 3713 1625 
L 3713 1100 
L 3047 1100 
L 3047 0 
L 2419 0 
L 2419 1100 
L 313 1100 
L 313 1709 
L 2253 4666 
z
" transform="scale(0.015625)"/>
       </defs>
       <use xlink:href="#DejaVuSans-30"/>
       <use xlink:href="#DejaVuSans-2e" x="63.623047"/>
       <use xlink:href="#DejaVuSans-34" x="95.410156"/>
      </g>
     </g>
    </g>
    <g id="xtick_4">
     <g id="line2d_4">
      <g>
       <use xlink:href="#mebc415e760" x="253.040938" y="253.44" style="stroke: #000000; stroke-width: 0.8"/>
      </g>
     </g>
     <g id="text_4">
      <!-- 0.6 -->
      <g transform="translate(245.089375 268.038437) scale(0.1 -0.1)">
       <defs>
        <path id="DejaVuSans-36" d="M 2113 2584 
Q 1688 2584 1439 2293 
Q 1191 2003 1191 1497 
Q 1191 994 1439 701 
Q 1688 409 2113 409 
Q 2538 409 2786 701 
Q 3034 994 3034 1497 
Q 3034 2003 2786 2293 
Q 2538 2584 2113 2584 
z
M 3366 4563 
L 3366 3988 
Q 3128 4100 2886 4159 
Q 2644 4219 2406 4219 
Q 1781 4219 1451 3797 
Q 1122 3375 1075 2522 
Q 1259 2794 1537 2939 
Q 1816 3084 2150 3084 
Q 2853 3084 3261 2657 
Q 3669 2231 3669 1497 
Q 3669 778 3244 343 
Q 2819 -91 2113 -91 
Q 1303 -91 875 529 
Q 447 1150 447 2328 
Q 447 3434 972 4092 
Q 1497 4750 2381 4750 
Q 2619 4750 2861 4703 
Q 3103 4656 3366 4563 
z
" transform="scale(0.015625)"/>
       </defs>
       <use xlink:href="#DejaVuSans-30"/>
       <use xlink:href="#DejaVuSans-2e" x="63.623047"/>
       <use xlink:href="#DejaVuSans-36" x="95.410156"/>
      </g>
     </g>
    </g>
    <g id="xtick_5">
     <g id="line2d_5">
      <g>
       <use xlink:href="#mebc415e760" x="320.000938" y="253.44" style="stroke: #000000; stroke-width: 0.8"/>
      </g>
     </g>
     <g id="text_5">
      <!-- 0.8 -->
      <g transform="translate(312.049375 268.038437) scale(0.1 -0.1)">
       <defs>
        <path id="DejaVuSans-38" d="M 2034 2216 
Q 1584 2216 1326 1975 
Q 1069 1734 1069 1313 
Q 1069 891 1326 650 
Q 1584 409 2034 409 
Q 2484 409 2743 651 
Q 3003 894 3003 1313 
Q 3003 1734 2745 1975 
Q 2488 2216 2034 2216 
z
M 1403 2484 
Q 997 2584 770 2862 
Q 544 3141 544 3541 
Q 544 4100 942 4425 
Q 1341 4750 2034 4750 
Q 2731 4750 3128 4425 
Q 3525 4100 3525 3541 
Q 3525 3141 3298 2862 
Q 3072 2584 2669 2484 
Q 3125 2378 3379 2068 
Q 3634 1759 3634 1313 
Q 3634 634 3220 271 
Q 2806 -91 2034 -91 
Q 1263 -91 848 271 
Q 434 634 434 1313 
Q 434 1759 690 2068 
Q 947 2378 1403 2484 
z
M 1172 3481 
Q 1172 3119 1398 2916 
Q 1625 2713 2034 2713 
Q 2441 2713 2670 2916 
Q 2900 3119 2900 3481 
Q 2900 3844 2670 4047 
Q 2441 4250 2034 4250 
Q 1625 4250 1398 4047 
Q 1172 3844 1172 3481 
z
" transform="scale(0.015625)"/>
       </defs>
       <use xlink:href="#DejaVuSans-30"/>
       <use xlink:href="#DejaVuSans-2e" x="63.623047"/>
       <use xlink:href="#DejaVuSans-38" x="95.410156"/>
      </g>
     </g>
    </g>
    <g id="xtick_6">
     <g id="line2d_6">
      <g>
       <use xlink:href="#mebc415e760" x="386.960938" y="253.44" style="stroke: #000000; stroke-width: 0.8"/>
      </g>
     </g>
     <g id="text_6">
      <!-- 1.0 -->
      <g transform="translate(379.009375 268.038437) scale(0.1 -0.1)">
       <defs>
        <path id="DejaVuSans-31" d="M 794 531 
L 1825 531 
L 1825 4091 
L 703 3866 
L 703 4441 
L 1819 4666 
L 2450 4666 
L 2450 531 
L 3481 531 
L 3481 0 
L 794 0 
L 794 531 
z
" transform="scale(0.015625)"/>
       </defs>
       <use xlink:href="#DejaVuSans-31"/>
       <use xlink:href="#DejaVuSans-2e" x="63.623047"/>
       <use xlink:href="#DejaVuSans-30" x="95.410156"/>
      </g>
     </g>
    </g>
    <g id="text_7">
     <!-- $t$ sec. -->
     <g transform="translate(205.960938 281.716562) scale(0.1 -0.1)">
      <defs>
       <path id="DejaVuSans-Oblique-74" d="M 2706 3500 
L 2619 3053 
L 1472 3053 
L 1100 1153 
Q 1081 1047 1072 975 
Q 1063 903 1063 863 
Q 1063 663 1183 572 
Q 1303 481 1569 481 
L 2150 481 
L 2053 0 
L 1503 0 
Q 991 0 739 200 
Q 488 400 488 806 
Q 488 878 497 964 
Q 506 1050 525 1153 
L 897 3053 
L 409 3053 
L 500 3500 
L 978 3500 
L 1172 4494 
L 1747 4494 
L 1556 3500 
L 2706 3500 
z
" transform="scale(0.015625)"/>
       <path id="DejaVuSans-20" transform="scale(0.015625)"/>
       <path id="DejaVuSans-73" d="M 2834 3397 
L 2834 2853 
Q 2591 2978 2328 3040 
Q 2066 3103 1784 3103 
Q 1356 3103 1142 2972 
Q 928 2841 928 2578 
Q 928 2378 1081 2264 
Q 1234 2150 1697 2047 
L 1894 2003 
Q 2506 1872 2764 1633 
Q 3022 1394 3022 966 
Q 3022 478 2636 193 
Q 2250 -91 1575 -91 
Q 1294 -91 989 -36 
Q 684 19 347 128 
L 347 722 
Q 666 556 975 473 
Q 1284 391 1588 391 
Q 1994 391 2212 530 
Q 2431 669 2431 922 
Q 2431 1156 2273 1281 
Q 2116 1406 1581 1522 
L 1381 1569 
Q 847 1681 609 1914 
Q 372 2147 372 2553 
Q 372 3047 722 3315 
Q 1072 3584 1716 3584 
Q 2034 3584 2315 3537 
Q 2597 3491 2834 3397 
z
" transform="scale(0.015625)"/>
       <path id="DejaVuSans-65" d="M 3597 1894 
L 3597 1613 
L 953 1613 
Q 991 1019 1311 708 
Q 1631 397 2203 397 
Q 2534 397 2845 478 
Q 3156 559 3463 722 
L 3463 178 
Q 3153 47 2828 -22 
Q 2503 -91 2169 -91 
Q 1331 -91 842 396 
Q 353 884 353 1716 
Q 353 2575 817 3079 
Q 1281 3584 2069 3584 
Q 2775 3584 3186 3129 
Q 3597 2675 3597 1894 
z
M 3022 2063 
Q 3016 2534 2758 2815 
Q 2500 3097 2075 3097 
Q 1594 3097 1305 2825 
Q 1016 2553 972 2059 
L 3022 2063 
z
" transform="scale(0.015625)"/>
       <path id="DejaVuSans-63" d="M 3122 3366 
L 3122 2828 
Q 2878 2963 2633 3030 
Q 2388 3097 2138 3097 
Q 1578 3097 1268 2742 
Q 959 2388 959 1747 
Q 959 1106 1268 751 
Q 1578 397 2138 397 
Q 2388 397 2633 464 
Q 2878 531 3122 666 
L 3122 134 
Q 2881 22 2623 -34 
Q 2366 -91 2075 -91 
Q 1284 -91 818 406 
Q 353 903 353 1747 
Q 353 2603 823 3093 
Q 1294 3584 2113 3584 
Q 2378 3584 2631 3529 
Q 2884 3475 3122 3366 
z
" transform="scale(0.015625)"/>
      </defs>
      <use xlink:href="#DejaVuSans-Oblique-74" transform="translate(0 0.78125)"/>
      <use xlink:href="#DejaVuSans-20" transform="translate(39.208984 0.78125)"/>
      <use xlink:href="#DejaVuSans-73" transform="translate(70.996094 0.78125)"/>
      <use xlink:href="#DejaVuSans-65" transform="translate(123.095703 0.78125)"/>
      <use xlink:href="#DejaVuSans-63" transform="translate(184.619141 0.78125)"/>
      <use xlink:href="#DejaVuSans-2e" transform="translate(239.599609 0.78125)"/>
     </g>
    </g>
   </g>
   <g id="matplotlib.axis_2">
    <g id="ytick_1">
     <g id="line2d_7">
      <defs>
       <path id="m58c71670be" d="M 0 0 
L -3.5 0 
" style="stroke: #000000; stroke-width: 0.8"/>
      </defs>
      <g>
       <use xlink:href="#m58c71670be" x="52.160938" y="222.195754" style="stroke: #000000; stroke-width: 0.8"/>
      </g>
     </g>
     <g id="text_8">
      <!-- −1.0 -->
      <g transform="translate(20.878125 225.994973) scale(0.1 -0.1)">
       <defs>
        <path id="DejaVuSans-2212" d="M 678 2272 
L 4684 2272 
L 4684 1741 
L 678 1741 
L 678 2272 
z
" transform="scale(0.015625)"/>
       </defs>
       <use xlink:href="#DejaVuSans-2212"/>
       <use xlink:href="#DejaVuSans-31" x="83.789062"/>
       <use xlink:href="#DejaVuSans-2e" x="147.412109"/>
       <use xlink:href="#DejaVuSans-30" x="179.199219"/>
      </g>
     </g>
    </g>
    <g id="ytick_2">
     <g id="line2d_8">
      <g>
       <use xlink:href="#m58c71670be" x="52.160938" y="184.179539" style="stroke: #000000; stroke-width: 0.8"/>
      </g>
     </g>
     <g id="text_9">
      <!-- −0.5 -->
      <g transform="translate(20.878125 187.978758) scale(0.1 -0.1)">
       <defs>
        <path id="DejaVuSans-35" d="M 691 4666 
L 3169 4666 
L 3169 4134 
L 1269 4134 
L 1269 2991 
Q 1406 3038 1543 3061 
Q 1681 3084 1819 3084 
Q 2600 3084 3056 2656 
Q 3513 2228 3513 1497 
Q 3513 744 3044 326 
Q 2575 -91 1722 -91 
Q 1428 -91 1123 -41 
Q 819 9 494 109 
L 494 744 
Q 775 591 1075 516 
Q 1375 441 1709 441 
Q 2250 441 2565 725 
Q 2881 1009 2881 1497 
Q 2881 1984 2565 2268 
Q 2250 2553 1709 2553 
Q 1456 2553 1204 2497 
Q 953 2441 691 2322 
L 691 4666 
z
" transform="scale(0.015625)"/>
       </defs>
       <use xlink:href="#DejaVuSans-2212"/>
       <use xlink:href="#DejaVuSans-30" x="83.789062"/>
       <use xlink:href="#DejaVuSans-2e" x="147.412109"/>
       <use xlink:href="#DejaVuSans-35" x="179.199219"/>
      </g>
     </g>
    </g>
    <g id="ytick_3">
     <g id="line2d_9">
      <g>
       <use xlink:href="#m58c71670be" x="52.160938" y="146.163324" style="stroke: #000000; stroke-width: 0.8"/>
      </g>
     </g>
     <g id="text_10">
      <!-- 0.0 -->
      <g transform="translate(29.257812 149.962543) scale(0.1 -0.1)">
       <use xlink:href="#DejaVuSans-30"/>
       <use xlink:href="#DejaVuSans-2e" x="63.623047"/>
       <use xlink:href="#DejaVuSans-30" x="95.410156"/>
      </g>
     </g>
    </g>
    <g id="ytick_4">
     <g id="line2d_10">
      <g>
       <use xlink:href="#m58c71670be" x="52.160938" y="108.147109" style="stroke: #000000; stroke-width: 0.8"/>
      </g>
     </g>
     <g id="text_11">
      <!-- 0.5 -->
      <g transform="translate(29.257812 111.946328) scale(0.1 -0.1)">
       <use xlink:href="#DejaVuSans-30"/>
       <use xlink:href="#DejaVuSans-2e" x="63.623047"/>
       <use xlink:href="#DejaVuSans-35" x="95.410156"/>
      </g>
     </g>
    </g>
    <g id="ytick_5">
     <g id="line2d_11">
      <g>
       <use xlink:href="#m58c71670be" x="52.160938" y="70.130894" style="stroke: #000000; stroke-width: 0.8"/>
      </g>
     </g>
     <g id="text_12">
      <!-- 1.0 -->
      <g transform="translate(29.257812 73.930113) scale(0.1 -0.1)">
       <use xlink:href="#DejaVuSans-31"/>
       <use xlink:href="#DejaVuSans-2e" x="63.623047"/>
       <use xlink:href="#DejaVuSans-30" x="95.410156"/>
      </g>
     </g>
    </g>
    <g id="text_13">
     <!-- Magnitude -->
     <g transform="translate(14.798437 171.209844) rotate(-90) scale(0.1 -0.1)">
      <defs>
       <path id="DejaVuSans-4d" d="M 628 4666 
L 1569 4666 
L 2759 1491 
L 3956 4666 
L 4897 4666 
L 4897 0 
L 4281 0 
L 4281 4097 
L 3078 897 
L 2444 897 
L 1241 4097 
L 1241 0 
L 628 0 
L 628 4666 
z
" transform="scale(0.015625)"/>
       <path id="DejaVuSans-61" d="M 2194 1759 
Q 1497 1759 1228 1600 
Q 959 1441 959 1056 
Q 959 750 1161 570 
Q 1363 391 1709 391 
Q 2188 391 2477 730 
Q 2766 1069 2766 1631 
L 2766 1759 
L 2194 1759 
z
M 3341 1997 
L 3341 0 
L 2766 0 
L 2766 531 
Q 2569 213 2275 61 
Q 1981 -91 1556 -91 
Q 1019 -91 701 211 
Q 384 513 384 1019 
Q 384 1609 779 1909 
Q 1175 2209 1959 2209 
L 2766 2209 
L 2766 2266 
Q 2766 2663 2505 2880 
Q 2244 3097 1772 3097 
Q 1472 3097 1187 3025 
Q 903 2953 641 2809 
L 641 3341 
Q 956 3463 1253 3523 
Q 1550 3584 1831 3584 
Q 2591 3584 2966 3190 
Q 3341 2797 3341 1997 
z
" transform="scale(0.015625)"/>
       <path id="DejaVuSans-67" d="M 2906 1791 
Q 2906 2416 2648 2759 
Q 2391 3103 1925 3103 
Q 1463 3103 1205 2759 
Q 947 2416 947 1791 
Q 947 1169 1205 825 
Q 1463 481 1925 481 
Q 2391 481 2648 825 
Q 2906 1169 2906 1791 
z
M 3481 434 
Q 3481 -459 3084 -895 
Q 2688 -1331 1869 -1331 
Q 1566 -1331 1297 -1286 
Q 1028 -1241 775 -1147 
L 775 -588 
Q 1028 -725 1275 -790 
Q 1522 -856 1778 -856 
Q 2344 -856 2625 -561 
Q 2906 -266 2906 331 
L 2906 616 
Q 2728 306 2450 153 
Q 2172 0 1784 0 
Q 1141 0 747 490 
Q 353 981 353 1791 
Q 353 2603 747 3093 
Q 1141 3584 1784 3584 
Q 2172 3584 2450 3431 
Q 2728 3278 2906 2969 
L 2906 3500 
L 3481 3500 
L 3481 434 
z
" transform="scale(0.015625)"/>
       <path id="DejaVuSans-6e" d="M 3513 2113 
L 3513 0 
L 2938 0 
L 2938 2094 
Q 2938 2591 2744 2837 
Q 2550 3084 2163 3084 
Q 1697 3084 1428 2787 
Q 1159 2491 1159 1978 
L 1159 0 
L 581 0 
L 581 3500 
L 1159 3500 
L 1159 2956 
Q 1366 3272 1645 3428 
Q 1925 3584 2291 3584 
Q 2894 3584 3203 3211 
Q 3513 2838 3513 2113 
z
" transform="scale(0.015625)"/>
       <path id="DejaVuSans-69" d="M 603 3500 
L 1178 3500 
L 1178 0 
L 603 0 
L 603 3500 
z
M 603 4863 
L 1178 4863 
L 1178 4134 
L 603 4134 
L 603 4863 
z
" transform="scale(0.015625)"/>
       <path id="DejaVuSans-74" d="M 1172 4494 
L 1172 3500 
L 2356 3500 
L 2356 3053 
L 1172 3053 
L 1172 1153 
Q 1172 725 1289 603 
Q 1406 481 1766 481 
L 2356 481 
L 2356 0 
L 1766 0 
Q 1100 0 847 248 
Q 594 497 594 1153 
L 594 3053 
L 172 3053 
L 172 3500 
L 594 3500 
L 594 4494 
L 1172 4494 
z
" transform="scale(0.015625)"/>
       <path id="DejaVuSans-75" d="M 544 1381 
L 544 3500 
L 1119 3500 
L 1119 1403 
Q 1119 906 1312 657 
Q 1506 409 1894 409 
Q 2359 409 2629 706 
Q 2900 1003 2900 1516 
L 2900 3500 
L 3475 3500 
L 3475 0 
L 2900 0 
L 2900 538 
Q 2691 219 2414 64 
Q 2138 -91 1772 -91 
Q 1169 -91 856 284 
Q 544 659 544 1381 
z
M 1991 3584 
L 1991 3584 
z
" transform="scale(0.015625)"/>
       <path id="DejaVuSans-64" d="M 2906 2969 
L 2906 4863 
L 3481 4863 
L 3481 0 
L 2906 0 
L 2906 525 
Q 2725 213 2448 61 
Q 2172 -91 1784 -91 
Q 1150 -91 751 415 
Q 353 922 353 1747 
Q 353 2572 751 3078 
Q 1150 3584 1784 3584 
Q 2172 3584 2448 3432 
Q 2725 3281 2906 2969 
z
M 947 1747 
Q 947 1113 1208 752 
Q 1469 391 1925 391 
Q 2381 391 2643 752 
Q 2906 1113 2906 1747 
Q 2906 2381 2643 2742 
Q 2381 3103 1925 3103 
Q 1469 3103 1208 2742 
Q 947 2381 947 1747 
z
" transform="scale(0.015625)"/>
      </defs>
      <use xlink:href="#DejaVuSans-4d"/>
      <use xlink:href="#DejaVuSans-61" x="86.279297"/>
      <use xlink:href="#DejaVuSans-67" x="147.558594"/>
      <use xlink:href="#DejaVuSans-6e" x="211.035156"/>
      <use xlink:href="#DejaVuSans-69" x="274.414062"/>
      <use xlink:href="#DejaVuSans-74" x="302.197266"/>
      <use xlink:href="#DejaVuSans-75" x="341.40625"/>
      <use xlink:href="#DejaVuSans-64" x="404.785156"/>
      <use xlink:href="#DejaVuSans-65" x="468.261719"/>
     </g>
    </g>
   </g>
   <g id="line2d_12">
    <path d="M 52.160938 135.875705 
L 53.165337 109.360762 
L 54.169738 88.995889 
L 55.174138 73.412952 
L 55.508938 51.122787 
L 55.843738 146.163324 
L 58.856938 74.203823 
L 59.191738 51.122787 
L 59.526538 146.163324 
L 61.870138 51.122787 
L 62.204937 146.163324 
L 63.209338 106.5555 
L 64.213738 77.189788 
L 64.548538 51.122787 
L 64.883338 146.163324 
L 65.552937 129.055795 
L 66.222538 116.820778 
L 66.892138 108.656698 
L 67.561738 103.586167 
L 68.231337 100.540445 
L 69.905338 95.094583 
L 70.574938 91.674885 
L 71.244538 86.857788 
L 71.914138 80.595968 
L 72.583737 73.135716 
L 72.918537 51.122787 
L 73.253338 146.163324 
L 74.592538 115.418239 
L 75.596938 97.682753 
L 76.266537 89.411048 
L 76.936138 84.312195 
L 77.270938 82.962721 
L 77.605738 82.384927 
L 77.940538 82.536959 
L 78.275338 83.361559 
L 78.610138 84.787526 
L 79.279738 89.100701 
L 80.618938 100.767608 
L 81.623338 108.930017 
L 82.292938 112.764018 
L 82.627737 114.014791 
L 82.962537 114.773447 
L 83.297337 115.023728 
L 83.632137 114.765281 
L 83.966938 114.01323 
L 84.301738 112.797299 
L 84.971338 109.157624 
L 85.975738 101.63129 
L 87.649738 88.645191 
L 88.319338 84.95449 
L 88.988938 82.705617 
L 89.323738 82.172745 
L 89.658538 82.036094 
L 89.993337 82.281537 
L 90.328137 82.883356 
L 90.997737 85.002163 
L 92.002138 89.68821 
L 93.341338 96.195692 
L 94.010938 98.528961 
L 94.345738 99.314665 
L 94.680538 99.812495 
L 95.015338 100.009999 
L 95.350138 99.905499 
L 95.684938 99.508011 
L 96.354538 97.920742 
L 97.024138 95.510339 
L 99.032938 87.350684 
L 99.702538 85.738911 
L 100.037338 85.334924 
L 100.372138 85.231525 
L 100.706938 85.440611 
L 101.041738 85.963194 
L 101.711337 87.896787 
L 102.380938 90.817812 
L 104.724537 102.287595 
L 105.059337 103.108498 
L 105.394137 103.495665 
L 105.728938 103.380705 
L 106.063738 102.702359 
L 106.398538 101.408058 
L 106.733338 99.455305 
L 107.402938 93.461679 
L 108.072538 84.621939 
L 108.742138 73.047995 
L 109.076938 51.122787 
L 109.411738 146.163324 
L 111.420537 72.688319 
L 111.755337 51.122787 
L 112.090137 146.163324 
L 113.094538 101.524102 
L 113.764138 76.619303 
L 114.098938 51.122787 
L 114.433738 146.163324 
L 115.103338 121.836622 
L 115.772938 103.347341 
L 116.442538 90.521251 
L 117.112138 82.960263 
L 117.446938 80.971176 
L 117.781738 80.054444 
L 118.116538 80.105442 
L 118.451338 81.010728 
L 118.786138 82.649712 
L 119.455738 87.621766 
L 122.134138 111.649145 
L 122.803737 114.418706 
L 123.138537 114.919383 
L 123.473337 114.789671 
L 123.808138 114.017924 
L 124.142938 112.607541 
L 124.812538 107.956042 
L 125.482138 101.134574 
L 126.486538 87.906612 
L 127.490938 72.936232 
L 127.825738 51.122787 
L 128.160538 146.163324 
L 129.499738 113.761673 
L 130.504138 95.138416 
L 131.508538 81.448593 
L 132.512938 71.87764 
L 132.847737 51.122787 
L 133.182538 146.163324 
L 134.521738 123.791881 
L 137.869738 74.407168 
L 138.204538 51.122787 
L 138.539337 146.163324 
L 139.878537 113.170257 
L 140.882938 92.45345 
L 141.887338 75.498098 
L 142.222138 70.668331 
L 142.556938 51.122787 
L 142.891738 146.163324 
L 143.896138 123.907444 
L 144.900538 105.688801 
L 145.904938 90.596795 
L 146.909338 78.108263 
L 147.578938 71.21857 
L 147.913738 51.122787 
L 148.248537 146.163324 
L 149.252938 129.249665 
L 149.922538 121.256666 
L 150.592138 116.076679 
L 150.926938 114.565939 
L 151.261737 113.771247 
L 151.596538 113.677233 
L 151.931337 114.257019 
L 152.266138 115.471537 
L 152.935738 119.586024 
L 153.605338 125.46227 
L 155.614137 145.774103 
L 155.948937 146.163324 
L 157.288138 146.163324 
L 157.622938 145.683571 
L 157.957738 144.333771 
L 158.292538 142.097533 
L 158.962138 134.99644 
L 159.631738 124.63332 
L 160.636138 104.224749 
L 161.975338 72.462133 
L 162.310137 51.122787 
L 162.644938 146.163324 
L 163.649338 113.150002 
L 164.653738 87.771156 
L 165.323338 75.609331 
L 165.658138 70.952101 
L 165.992938 51.122787 
L 166.327738 146.163324 
L 166.997338 134.663535 
L 167.666938 126.395883 
L 168.336538 120.483527 
L 169.340938 114.057178 
L 170.680138 105.915092 
L 171.684538 97.823434 
L 172.688938 87.419015 
L 174.028138 71.196918 
L 174.362937 51.122787 
L 174.697738 146.163324 
L 175.702137 123.666422 
L 176.706538 106.224022 
L 177.376138 97.940404 
L 178.045738 92.527033 
L 178.380538 90.904531 
L 178.715338 89.991169 
L 179.050138 89.766076 
L 179.384938 90.200474 
L 179.719738 91.258306 
L 180.389338 95.067914 
L 181.058938 100.788565 
L 182.063337 111.899744 
L 184.741737 143.472471 
L 185.076538 146.163324 
L 186.750538 146.163324 
L 187.085338 145.908633 
L 187.420138 144.906494 
L 187.754938 143.135023 
L 188.424538 137.243684 
L 189.094138 128.259603 
L 189.763737 116.391131 
L 190.768138 94.113702 
L 191.437738 77.206367 
L 191.772537 51.122787 
L 192.107338 146.163324 
L 193.446537 96.530752 
L 194.116137 75.547496 
L 194.450938 51.122787 
L 194.785737 146.163324 
L 195.790138 115.094399 
L 196.459738 100.760712 
L 197.129338 91.255141 
L 197.798938 86.023048 
L 198.133737 84.768788 
L 198.468538 84.269673 
L 198.803337 84.400627 
L 199.138138 85.031842 
L 199.807738 87.272205 
L 201.146938 92.305844 
L 201.481738 93.108854 
L 201.816538 93.597621 
L 202.151338 93.740052 
L 202.486137 93.525109 
L 202.820938 92.962907 
L 203.490538 90.938865 
L 205.499338 83.13256 
L 205.834137 82.629547 
L 206.168938 82.632814 
L 206.503737 83.231151 
L 206.838538 84.498924 
L 207.173338 86.492889 
L 207.842938 92.78294 
L 208.512538 102.11716 
L 209.516938 120.917512 
L 210.521338 142.917348 
L 210.856138 146.163324 
L 214.204138 146.163324 
L 214.538938 145.946066 
L 214.873738 144.477756 
L 215.208537 141.833452 
L 215.878137 133.441747 
L 216.882538 115.209999 
L 218.891338 74.885503 
L 219.226137 51.122787 
L 219.560938 146.163324 
L 220.230538 130.865835 
L 220.900138 119.274865 
L 221.569738 110.961784 
L 222.239338 105.118045 
L 224.248138 91.143221 
L 224.917737 83.940789 
L 225.587337 74.153909 
L 225.922138 51.122787 
L 226.256937 146.163324 
L 228.265738 74.081113 
L 228.600538 51.122787 
L 228.935338 146.163324 
L 229.939738 103.00499 
L 230.609338 80.442787 
L 230.944138 71.313188 
L 231.278938 51.122787 
L 231.613738 146.163324 
L 232.283338 129.746455 
L 232.952938 119.59543 
L 233.287738 116.545004 
L 233.622538 114.620902 
L 233.957337 113.630639 
L 234.292138 113.367873 
L 234.626937 113.617932 
L 235.631338 115.296866 
L 235.966138 115.491006 
L 236.300938 115.205085 
L 236.635738 114.295471 
L 236.970538 112.647562 
L 237.305338 110.178862 
L 237.974938 102.621278 
L 238.644538 91.658987 
L 239.648938 70.219158 
L 239.983738 51.122787 
L 240.318538 146.163324 
L 241.657738 99.515218 
L 242.327338 81.462764 
L 242.662138 74.229696 
L 242.996938 51.122787 
L 243.331738 146.163324 
L 244.001338 133.147199 
L 244.336138 128.938767 
L 244.670938 126.153182 
L 245.005738 124.670727 
L 245.340537 124.345748 
L 245.675338 125.010716 
L 246.010137 126.481001 
L 246.679737 131.045757 
L 248.018937 141.116094 
L 248.353738 142.789057 
L 248.688537 143.844474 
L 249.023338 144.189321 
L 249.358137 143.761841 
L 249.692937 142.532932 
L 250.027738 140.506502 
L 250.697338 134.2367 
L 251.701737 120.691153 
L 253.375738 96.729996 
L 254.045338 90.416275 
L 254.380137 88.507975 
L 254.714938 87.553365 
L 255.049737 87.608857 
L 255.384538 88.700663 
L 255.719337 90.82377 
L 256.388937 97.988493 
L 257.058537 108.461034 
L 258.397738 134.854611 
L 259.067338 146.163324 
L 261.745738 146.163324 
L 262.080537 145.184998 
L 262.415338 143.002693 
L 263.084938 135.302408 
L 263.754538 123.826668 
L 264.758938 101.812283 
L 265.763338 77.497896 
L 266.098138 51.122787 
L 266.432938 146.163324 
L 267.437338 113.29911 
L 268.441738 86.597084 
L 269.111337 72.141671 
L 269.446138 51.122787 
L 269.780937 146.163324 
L 270.785338 118.851523 
L 272.124538 88.673433 
L 272.794138 75.394914 
L 273.128938 51.122787 
L 273.463738 146.163324 
L 274.468138 118.252345 
L 275.472538 95.719447 
L 276.142138 84.191012 
L 276.811738 75.737738 
L 277.481338 70.435382 
L 277.816138 51.122787 
L 278.150937 146.163324 
L 278.820538 138.931873 
L 279.490138 134.523713 
L 280.159738 132.124469 
L 280.829338 130.838696 
L 281.498938 129.784851 
L 282.168538 128.194867 
L 282.838138 125.503958 
L 283.507738 121.417383 
L 284.177338 115.943886 
L 285.516538 102.314265 
L 286.520938 92.342504 
L 287.190538 87.273977 
L 287.860138 84.279537 
L 288.194937 83.716843 
L 288.529738 83.826514 
L 288.864537 84.620711 
L 289.199338 86.09036 
L 289.868938 90.912239 
L 290.538538 97.799886 
L 292.882137 125.368276 
L 293.551738 129.99771 
L 293.886537 131.211037 
L 294.221338 131.595884 
L 294.556137 131.109034 
L 294.890938 129.731221 
L 295.225737 127.467955 
L 295.895337 120.43075 
L 296.564937 110.521668 
L 297.904137 85.722146 
L 298.573737 73.106663 
L 298.908538 51.122787 
L 299.243337 146.163324 
L 300.247738 122.153311 
L 300.917338 111.265023 
L 301.586938 104.664431 
L 301.921738 102.902932 
L 302.256538 102.083613 
L 302.591338 102.117169 
L 302.926138 102.895923 
L 303.260938 104.296817 
L 303.930538 108.416515 
L 305.269738 117.84077 
L 305.939338 120.92573 
L 306.274137 121.655847 
L 306.608938 121.73193 
L 306.943737 121.093589 
L 307.278538 119.700685 
L 307.613338 117.533502 
L 308.282938 110.896286 
L 308.952538 101.401579 
L 309.956937 82.85945 
L 310.291738 75.850029 
L 310.626537 51.122787 
L 310.961338 146.163324 
L 312.970138 79.011343 
L 313.304937 51.122787 
L 313.639738 146.163324 
L 314.978938 94.28574 
L 315.648538 70.939711 
L 315.983338 51.122787 
L 316.318138 146.163324 
L 318.326937 51.122787 
L 318.661738 146.163324 
L 320.335737 51.122787 
L 320.670538 146.163324 
L 321.674937 94.7663 
L 322.009738 80.109314 
L 322.344538 51.122787 
L 322.679338 146.163324 
L 323.683738 104.74591 
L 324.353338 84.475733 
L 324.688138 76.369743 
L 325.022938 51.122787 
L 325.357738 146.163324 
L 326.027338 129.745424 
L 326.696938 117.385341 
L 327.366537 108.056625 
L 328.370938 97.634899 
L 330.379738 80.926522 
L 331.384138 72.582236 
L 331.718937 51.122787 
L 332.053738 146.163324 
L 333.058137 128.295513 
L 333.727737 118.889534 
L 334.397337 111.907871 
L 335.066937 107.584984 
L 335.401737 106.447637 
L 335.736537 105.982597 
L 336.071337 106.165553 
L 336.406137 106.959034 
L 336.740937 108.312938 
L 337.410537 112.444453 
L 338.414938 120.999094 
L 339.754138 132.963534 
L 340.423738 137.584559 
L 341.093338 140.54589 
L 341.428137 141.290034 
L 341.762938 141.509185 
L 342.097737 141.195609 
L 342.432538 140.35578 
L 342.767337 139.00994 
L 343.436937 134.944743 
L 344.441337 126.231196 
L 346.784938 103.669821 
L 347.454538 99.058179 
L 348.124138 95.860826 
L 348.793738 94.102038 
L 349.128537 93.71334 
L 349.463338 93.601334 
L 349.798137 93.714514 
L 350.467737 94.365133 
L 351.137338 95.095827 
L 351.472138 95.294163 
L 351.806938 95.273892 
L 352.141738 94.956915 
L 352.476538 94.269514 
L 352.811337 93.144327 
L 353.480937 89.353745 
L 354.150537 83.237997 
L 354.820137 74.646027 
L 355.154938 51.122787 
L 355.489737 146.163324 
L 357.498537 80.728284 
L 357.833338 51.122787 
L 358.168138 146.163324 
L 359.507338 90.788515 
L 359.842138 78.897511 
L 360.176938 51.122787 
L 360.511738 146.163324 
L 361.516138 109.831874 
L 362.185738 91.945941 
L 362.855338 78.886545 
L 363.524938 70.196618 
L 363.859737 51.122787 
L 364.194538 146.163324 
L 364.864138 136.203019 
L 365.533738 129.014233 
L 366.538138 121.238453 
L 367.877338 111.809886 
L 368.881738 102.646739 
L 369.886138 90.696354 
L 371.225338 71.381735 
L 371.560137 51.122787 
L 371.894938 146.163324 
L 373.234138 112.692215 
L 374.238538 94.030145 
L 374.908138 85.340309 
L 375.577738 79.764343 
L 375.912537 78.100623 
L 376.247338 77.133139 
L 376.582137 76.80405 
L 376.916938 77.042506 
L 377.251737 77.766186 
L 377.921337 80.294117 
L 379.595337 88.073862 
L 379.930138 89.062533 
L 380.264937 89.654375 
L 380.599738 89.78138 
L 380.934537 89.389421 
L 381.269338 88.439537 
L 381.604137 86.908798 
L 382.273737 82.095211 
L 382.943337 75.090002 
L 383.278138 70.875259 
L 383.612937 51.122787 
L 383.947738 146.163324 
L 385.956538 92.376535 
L 386.626138 77.165044 
L 386.626138 77.165044 
" clip-path="url(#p78bfe9ea95)" style="fill: none; stroke: #1f77b4; stroke-width: 1.5; stroke-linecap: square"/>
   </g>
   <g id="line2d_13">
    <path d="M 52.160938 109.187808 
L 52.830538 112.699046 
L 54.504538 122.900365 
L 55.174138 125.245469 
L 55.508938 125.682323 
L 55.843738 125.551307 
L 56.178538 124.818755 
L 56.513338 123.472227 
L 57.182938 118.996897 
L 57.852538 112.458326 
L 59.191738 96.006015 
L 60.196138 84.486187 
L 60.865738 79.08231 
L 61.200538 77.386171 
L 61.535338 76.46866 
L 61.870138 76.386061 
L 62.204937 77.172344 
L 62.539738 78.837859 
L 63.209338 84.727017 
L 63.878938 93.659432 
L 64.883338 111.08156 
L 66.557338 141.891729 
L 67.226938 151.56872 
L 67.896538 158.391356 
L 68.231337 160.567767 
L 68.566137 161.880214 
L 68.900937 162.329363 
L 69.235737 161.940867 
L 69.570538 160.764524 
L 70.240138 156.358226 
L 70.909738 149.916463 
L 72.918537 129.045115 
L 73.588138 125.100672 
L 73.922938 124.157712 
L 74.257738 123.977309 
L 74.592538 124.587947 
L 74.927338 125.994098 
L 75.262138 128.176247 
L 75.931738 134.675734 
L 76.936138 148.515323 
L 78.944938 179.080866 
L 79.614538 186.444097 
L 80.284138 191.119173 
L 80.618938 192.328782 
L 80.953738 192.765284 
L 81.288538 192.440123 
L 81.623338 191.385934 
L 81.958138 189.655259 
L 82.627737 184.462467 
L 83.632137 173.812231 
L 84.971338 159.032418 
L 85.640938 153.335012 
L 86.310538 149.620047 
L 86.645338 148.617954 
L 86.980138 148.209347 
L 87.314937 148.388389 
L 87.649738 149.131256 
L 87.984538 150.397272 
L 88.654138 154.262089 
L 89.658538 162.212188 
L 90.997737 173.006381 
L 91.667338 176.947071 
L 92.336938 179.262347 
L 92.671738 179.732346 
L 93.006538 179.733042 
L 93.341338 179.275734 
L 93.676138 178.386644 
L 94.345738 175.485869 
L 95.350138 169.260409 
L 96.689338 160.689607 
L 97.358938 157.665039 
L 97.693737 156.683004 
L 98.028537 156.1082 
L 98.363338 155.964375 
L 98.698138 156.261009 
L 99.032938 156.992943 
L 99.702538 159.669532 
L 100.372138 163.671855 
L 102.715738 179.658275 
L 103.050538 181.028603 
L 103.385338 181.91817 
L 103.720138 182.259144 
L 104.054937 181.994497 
L 104.389737 181.079495 
L 104.724537 179.482905 
L 105.394137 174.192495 
L 106.063738 166.168767 
L 107.068138 149.689833 
L 108.407338 122.536102 
L 110.081338 89.460322 
L 110.750938 79.290524 
L 111.420537 71.996058 
L 111.755337 69.601198 
L 112.090137 68.108358 
L 112.424937 67.549961 
L 112.759737 67.943256 
L 113.094538 69.289916 
L 113.429338 71.575902 
L 114.098938 78.83223 
L 114.768538 89.297632 
L 115.772938 109.586486 
L 118.786138 175.313243 
L 119.455738 185.081327 
L 120.125338 191.609718 
L 120.460138 193.559328 
L 120.794938 194.612177 
L 121.129738 194.774083 
L 121.464538 194.067587 
L 121.799338 192.531416 
L 122.468937 187.200203 
L 123.138537 179.371951 
L 124.477738 159.368996 
L 125.816938 139.352841 
L 126.486538 131.302321 
L 127.156138 125.297507 
L 127.825738 121.614978 
L 128.160538 120.663121 
L 128.495338 120.283334 
L 128.830138 120.441948 
L 129.164938 121.092321 
L 129.834538 123.626775 
L 130.838938 129.403434 
L 132.178137 137.407948 
L 132.847737 140.235117 
L 133.182538 141.170091 
L 133.517337 141.745401 
L 133.852137 141.946434 
L 134.186937 141.771422 
L 134.521738 141.23114 
L 135.191338 139.155938 
L 135.860938 136.02213 
L 138.539337 121.845017 
L 139.208937 119.970075 
L 139.543738 119.455922 
L 139.878537 119.228318 
L 140.213338 119.277979 
L 140.548137 119.58636 
L 141.217737 120.86541 
L 142.222138 123.868257 
L 143.561338 128.146777 
L 144.230938 129.810194 
L 144.900538 131.019073 
L 145.904938 132.220863 
L 146.574538 133.017348 
L 147.244138 134.272593 
L 147.913738 136.429103 
L 148.583338 139.889476 
L 149.252938 144.940875 
L 149.922538 151.689269 
L 150.926938 164.661542 
L 153.605338 202.346339 
L 154.274938 207.980931 
L 154.609737 209.660493 
L 154.944538 210.481034 
L 155.279337 210.388359 
L 155.614137 209.347839 
L 155.948937 207.345985 
L 156.618538 200.515529 
L 157.288138 190.235052 
L 158.292538 169.904577 
L 160.636138 118.584662 
L 161.305738 108.125837 
L 161.975338 101.176946 
L 162.310137 99.158877 
L 162.644938 98.139275 
L 162.979737 98.108429 
L 163.314538 99.032803 
L 163.649338 100.85619 
L 164.318938 106.873026 
L 164.988538 115.336645 
L 167.666938 152.708614 
L 168.336538 158.164256 
L 168.671338 159.88045 
L 169.006138 160.89245 
L 169.340938 161.203578 
L 169.675738 160.836988 
L 170.010537 159.83445 
L 170.680138 156.171111 
L 171.349738 150.845663 
L 173.358538 132.945375 
L 174.028138 128.959087 
L 174.362937 127.689314 
L 174.697738 126.966961 
L 175.032537 126.823419 
L 175.367338 127.27585 
L 175.702137 128.327452 
L 176.036938 129.968083 
L 176.706538 134.915071 
L 177.376138 141.81065 
L 178.380538 154.827411 
L 181.393737 196.521652 
L 182.063337 203.25033 
L 182.732937 208.251755 
L 183.402537 211.260606 
L 183.737338 211.948646 
L 184.072137 212.061856 
L 184.406938 211.581599 
L 184.741737 210.493125 
L 185.076538 208.786113 
L 185.746138 203.501397 
L 186.415738 195.760711 
L 187.085338 185.717256 
L 188.089738 167.027867 
L 191.437738 99.071754 
L 192.107338 90.630705 
L 192.776937 85.689774 
L 193.111738 84.669182 
L 193.446537 84.651663 
L 193.781338 85.638902 
L 194.116137 87.610976 
L 194.785737 94.321097 
L 195.455337 104.196997 
L 196.459738 122.956359 
L 198.133737 155.155735 
L 198.803337 165.053184 
L 199.472938 171.974772 
L 199.807738 174.185766 
L 200.142538 175.544272 
L 200.477338 176.069948 
L 200.812138 175.809506 
L 201.146938 174.835528 
L 201.816538 171.153708 
L 203.825337 156.344393 
L 204.160138 154.944546 
L 204.494937 154.223127 
L 204.829738 154.282905 
L 205.164537 155.201608 
L 205.499338 157.028822 
L 206.168938 163.45368 
L 206.838538 173.328555 
L 207.842938 192.905858 
L 209.516938 227.239549 
L 210.186538 237.084942 
L 210.521338 240.47187 
L 210.856138 242.660331 
L 211.190938 243.556364 
L 211.525738 243.099792 
L 211.860538 241.266561 
L 212.195337 238.069974 
L 212.864937 227.826166 
L 213.534537 213.196768 
L 214.873738 176.377119 
L 216.212938 140.995658 
L 216.882538 127.9066 
L 217.552138 119.360401 
L 217.886937 116.945626 
L 218.221738 115.774314 
L 218.556537 115.8006 
L 218.891338 116.940793 
L 219.226137 119.076153 
L 219.895737 125.70662 
L 221.904538 150.070628 
L 222.239338 152.61501 
L 222.574138 154.25992 
L 222.908938 154.890071 
L 223.243738 154.426288 
L 223.578538 152.828404 
L 223.913338 150.096896 
L 224.582938 141.438649 
L 225.252538 129.246686 
L 227.596137 80.685987 
L 228.265738 72.374334 
L 228.600538 70.07797 
L 228.935338 69.165822 
L 229.270138 69.69589 
L 229.604938 71.682762 
L 229.939738 75.096641 
L 230.609338 85.868382 
L 231.278938 100.936786 
L 233.957337 168.076427 
L 234.626937 177.059497 
L 234.961738 179.410145 
L 235.296537 180.243759 
L 235.631338 179.550776 
L 235.966138 177.36866 
L 236.300938 173.780878 
L 236.970538 162.935903 
L 237.974938 140.474802 
L 239.314138 109.48046 
L 239.983738 98.13367 
L 240.318538 94.241219 
L 240.653338 91.732303 
L 240.988138 90.701729 
L 241.322938 91.198694 
L 241.657738 93.225363 
L 241.992538 96.736918 
L 242.662138 107.811163 
L 243.331738 123.21651 
L 246.010137 190.807653 
L 246.679737 199.905812 
L 247.014538 202.407228 
L 247.349337 203.483144 
L 247.684138 203.145088 
L 248.018937 201.449582 
L 248.353738 198.496092 
L 249.023338 189.406039 
L 250.027738 170.818139 
L 251.032137 151.977548 
L 251.701737 142.421454 
L 252.036538 139.136652 
L 252.371337 137.03988 
L 252.706138 136.227902 
L 253.040937 136.755588 
L 253.375738 138.634299 
L 253.710537 141.831663 
L 254.380137 151.842369 
L 255.384538 173.655928 
L 257.058537 213.806893 
L 257.728138 225.751003 
L 258.397738 233.028233 
L 258.732538 234.615285 
L 259.067338 234.749011 
L 259.402137 233.415088 
L 259.736938 230.639111 
L 260.406538 221.053129 
L 261.076138 206.911123 
L 262.080537 180.197491 
L 263.754538 134.571945 
L 264.424138 120.183704 
L 265.093738 109.422953 
L 265.763338 102.589488 
L 266.098138 100.60589 
L 266.432938 99.501357 
L 266.767738 99.189545 
L 267.102538 99.565745 
L 267.437338 100.511559 
L 268.106938 103.600164 
L 269.780937 112.576703 
L 270.450537 114.712828 
L 270.785338 115.283272 
L 271.120137 115.526139 
L 271.454938 115.471561 
L 271.789738 115.169098 
L 272.459338 114.099116 
L 273.128938 112.98415 
L 273.463738 112.645531 
L 273.798538 112.577115 
L 274.133338 112.863711 
L 274.468138 113.578631 
L 274.802938 114.780224 
L 275.472538 118.785482 
L 276.142138 124.955982 
L 277.146538 137.595704 
L 279.155338 165.763662 
L 279.824938 172.575233 
L 280.494538 176.771944 
L 280.829338 177.755098 
L 281.164138 177.970008 
L 281.498938 177.429802 
L 281.833738 176.17317 
L 282.503338 171.786964 
L 283.507738 162.102818 
L 284.846938 149.125811 
L 285.516538 145.137061 
L 285.851338 144.169661 
L 286.186138 143.987089 
L 286.520938 144.632181 
L 286.855738 146.119497 
L 287.190538 148.434365 
L 287.860138 155.342893 
L 288.864537 169.943271 
L 290.538538 195.730715 
L 291.208138 202.68663 
L 291.542937 204.867233 
L 291.877738 206.049843 
L 292.212537 206.169319 
L 292.547338 205.191332 
L 292.882137 203.113816 
L 293.551738 195.81491 
L 294.221338 184.892861 
L 295.560538 156.743532 
L 296.564937 135.899039 
L 297.234537 124.919615 
L 297.904137 117.662989 
L 298.238938 115.678971 
L 298.573737 114.862336 
L 298.908538 115.225165 
L 299.243337 116.745987 
L 299.578138 119.370539 
L 300.247738 127.561154 
L 301.252138 145.147226 
L 302.926138 176.801375 
L 303.595737 186.09366 
L 304.265337 191.781581 
L 304.600138 193.071195 
L 304.934937 193.273699 
L 305.269738 192.387704 
L 305.604537 190.440464 
L 306.274137 183.603803 
L 306.943737 173.472917 
L 307.948138 154.305832 
L 309.956937 115.312423 
L 310.961338 101.146808 
L 311.630938 94.439808 
L 312.300538 89.694605 
L 312.970138 86.428084 
L 314.309338 81.764809 
L 314.978938 79.114519 
L 315.648538 75.650159 
L 316.652938 68.659627 
L 318.996537 49.835556 
L 319.666137 46.717184 
L 320.000938 45.979605 
L 320.335737 45.883636 
L 320.670538 46.482064 
L 321.005337 47.810855 
L 321.340138 49.887516 
L 322.009738 56.256652 
L 322.679338 65.337464 
L 323.683738 82.782496 
L 326.027338 126.049995 
L 326.696938 135.110889 
L 327.366537 141.613517 
L 328.036137 145.424858 
L 328.370938 146.368766 
L 328.705737 146.735519 
L 329.040538 146.594631 
L 329.375338 146.030103 
L 330.044938 144.021533 
L 331.384138 139.513764 
L 331.718937 138.902139 
L 332.053738 138.67955 
L 332.388537 138.91542 
L 332.723338 139.662795 
L 333.058137 140.956727 
L 333.727737 145.228732 
L 334.397337 151.626784 
L 335.401737 164.271059 
L 337.410537 191.314412 
L 338.080137 197.786895 
L 338.749737 201.849507 
L 339.084538 202.855086 
L 339.419337 203.14688 
L 339.754138 202.725596 
L 340.088937 201.61046 
L 340.423738 199.83857 
L 341.093338 194.554826 
L 342.097737 183.493039 
L 344.106538 160.04836 
L 344.776138 154.656686 
L 345.445738 151.348663 
L 345.780537 150.537431 
L 346.115338 150.28649 
L 346.450137 150.573289 
L 346.784938 151.358955 
L 347.454538 154.197203 
L 348.458937 160.445844 
L 349.463338 166.801659 
L 350.132938 169.773077 
L 350.467737 170.608505 
L 350.802538 170.911163 
L 351.137338 170.621989 
L 351.472138 169.696162 
L 351.806938 168.104314 
L 352.476538 162.886931 
L 353.146138 155.06558 
L 354.150537 139.291649 
L 357.163738 86.208117 
L 357.833338 78.725742 
L 358.502938 74.326997 
L 358.837738 73.397649 
L 359.172538 73.342943 
L 359.507338 74.162353 
L 359.842138 75.837989 
L 360.511738 81.601713 
L 361.181338 90.16409 
L 362.185738 106.694511 
L 364.194538 141.784934 
L 364.864138 150.739785 
L 365.533738 157.124708 
L 365.868538 159.221326 
L 366.203338 160.551232 
L 366.538138 161.110085 
L 366.872938 160.912006 
L 367.207738 159.989272 
L 367.542538 158.391571 
L 368.212138 153.449666 
L 369.216538 143.056365 
L 370.555738 128.321674 
L 371.225338 122.630042 
L 371.894938 119.073564 
L 372.229737 118.261028 
L 372.564538 118.145982 
L 372.899338 118.744969 
L 373.234138 120.054758 
L 373.903737 124.695166 
L 374.573337 131.65708 
L 375.577738 144.918192 
L 376.916938 163.025864 
L 377.586537 170.094098 
L 378.256137 174.746515 
L 378.590937 175.987857 
L 378.925737 176.446989 
L 379.260537 176.104953 
L 379.595337 174.963805 
L 379.930138 173.046588 
L 380.599738 167.076739 
L 381.269338 158.761367 
L 382.943337 133.320663 
L 383.947738 119.656991 
L 384.617338 112.942512 
L 385.286938 108.720721 
L 385.621737 107.601885 
L 385.956538 107.13305 
L 386.291337 107.279855 
L 386.626138 107.988557 
L 386.626138 107.988557 
" clip-path="url(#p78bfe9ea95)" style="fill: none; stroke: #ff7f0e; stroke-width: 1.5; stroke-linecap: square"/>
   </g>
   <g id="patch_3">
    <path d="M 52.160938 253.44 
L 52.160938 36 
" style="fill: none; stroke: #000000; stroke-width: 0.8; stroke-linejoin: miter; stroke-linecap: square"/>
   </g>
   <g id="patch_4">
    <path d="M 386.960938 253.44 
L 386.960938 36 
" style="fill: none; stroke: #000000; stroke-width: 0.8; stroke-linejoin: miter; stroke-linecap: square"/>
   </g>
   <g id="patch_5">
    <path d="M 52.160938 253.44 
L 386.960938 253.44 
" style="fill: none; stroke: #000000; stroke-width: 0.8; stroke-linejoin: miter; stroke-linecap: square"/>
   </g>
   <g id="patch_6">
    <path d="M 52.160938 36 
L 386.960938 36 
" style="fill: none; stroke: #000000; stroke-width: 0.8; stroke-linejoin: miter; stroke-linecap: square"/>
   </g>
   <g id="legend_1">
    <g id="patch_7">
     <path d="M 59.160938 248.44 
L 132.260938 248.44 
Q 134.260938 248.44 134.260938 246.44 
L 134.260938 216.04 
Q 134.260938 214.04 132.260938 214.04 
L 59.160938 214.04 
Q 57.160938 214.04 57.160938 216.04 
L 57.160938 246.44 
Q 57.160938 248.44 59.160938 248.44 
z
" style="fill: #ffffff; opacity: 0.8; stroke: #cccccc; stroke-linejoin: miter"/>
    </g>
    <g id="line2d_14">
     <path d="M 61.160938 222.14 
L 71.160938 222.14 
L 81.160938 222.14 
" style="fill: none; stroke: #1f77b4; stroke-width: 1.5; stroke-linecap: square"/>
    </g>
    <g id="text_14">
     <!-- $v(t)_{output}$ -->
     <g transform="translate(89.160938 225.64) scale(0.1 -0.1)">
      <defs>
       <path id="DejaVuSans-Oblique-76" d="M 459 3500 
L 1069 3500 
L 1581 525 
L 3256 3500 
L 3866 3500 
L 1875 0 
L 1100 0 
L 459 3500 
z
" transform="scale(0.015625)"/>
       <path id="DejaVuSans-28" d="M 1984 4856 
Q 1566 4138 1362 3434 
Q 1159 2731 1159 2009 
Q 1159 1288 1364 580 
Q 1569 -128 1984 -844 
L 1484 -844 
Q 1016 -109 783 600 
Q 550 1309 550 2009 
Q 550 2706 781 3412 
Q 1013 4119 1484 4856 
L 1984 4856 
z
" transform="scale(0.015625)"/>
       <path id="DejaVuSans-29" d="M 513 4856 
L 1013 4856 
Q 1481 4119 1714 3412 
Q 1947 2706 1947 2009 
Q 1947 1309 1714 600 
Q 1481 -109 1013 -844 
L 513 -844 
Q 928 -128 1133 580 
Q 1338 1288 1338 2009 
Q 1338 2731 1133 3434 
Q 928 4138 513 4856 
z
" transform="scale(0.015625)"/>
       <path id="DejaVuSans-Oblique-6f" d="M 1625 -91 
Q 1009 -91 651 289 
Q 294 669 294 1325 
Q 294 1706 417 2101 
Q 541 2497 738 2766 
Q 1047 3184 1428 3384 
Q 1809 3584 2291 3584 
Q 2888 3584 3255 3212 
Q 3622 2841 3622 2241 
Q 3622 1825 3500 1412 
Q 3378 1000 3181 728 
Q 2875 309 2494 109 
Q 2113 -91 1625 -91 
z
M 891 1344 
Q 891 869 1089 633 
Q 1288 397 1691 397 
Q 2269 397 2648 901 
Q 3028 1406 3028 2181 
Q 3028 2634 2825 2865 
Q 2622 3097 2228 3097 
Q 1903 3097 1650 2945 
Q 1397 2794 1197 2484 
Q 1050 2253 970 1956 
Q 891 1659 891 1344 
z
" transform="scale(0.015625)"/>
       <path id="DejaVuSans-Oblique-75" d="M 428 1388 
L 838 3500 
L 1416 3500 
L 1006 1409 
Q 975 1256 961 1147 
Q 947 1038 947 966 
Q 947 700 1109 554 
Q 1272 409 1569 409 
Q 2031 409 2368 721 
Q 2706 1034 2809 1563 
L 3194 3500 
L 3769 3500 
L 3091 0 
L 2516 0 
L 2631 550 
Q 2388 244 2052 76 
Q 1716 -91 1338 -91 
Q 878 -91 622 161 
Q 366 413 366 863 
Q 366 956 381 1097 
Q 397 1238 428 1388 
z
" transform="scale(0.015625)"/>
       <path id="DejaVuSans-Oblique-70" d="M 3175 2156 
Q 3175 2616 2975 2859 
Q 2775 3103 2400 3103 
Q 2144 3103 1911 2972 
Q 1678 2841 1497 2591 
Q 1319 2344 1212 1994 
Q 1106 1644 1106 1300 
Q 1106 863 1306 627 
Q 1506 391 1875 391 
Q 2147 391 2380 519 
Q 2613 647 2778 891 
Q 2956 1147 3065 1494 
Q 3175 1841 3175 2156 
z
M 1394 2969 
Q 1625 3272 1939 3428 
Q 2253 3584 2638 3584 
Q 3175 3584 3472 3232 
Q 3769 2881 3769 2247 
Q 3769 1728 3584 1258 
Q 3400 788 3053 416 
Q 2822 169 2531 39 
Q 2241 -91 1919 -91 
Q 1547 -91 1294 64 
Q 1041 219 916 525 
L 556 -1331 
L -19 -1331 
L 922 3500 
L 1497 3500 
L 1394 2969 
z
" transform="scale(0.015625)"/>
      </defs>
      <use xlink:href="#DejaVuSans-Oblique-76" transform="translate(0 0.125)"/>
      <use xlink:href="#DejaVuSans-28" transform="translate(59.179688 0.125)"/>
      <use xlink:href="#DejaVuSans-Oblique-74" transform="translate(98.193359 0.125)"/>
      <use xlink:href="#DejaVuSans-29" transform="translate(137.402344 0.125)"/>
      <use xlink:href="#DejaVuSans-Oblique-6f" transform="translate(177.373047 -16.28125) scale(0.7)"/>
      <use xlink:href="#DejaVuSans-Oblique-75" transform="translate(220.200195 -16.28125) scale(0.7)"/>
      <use xlink:href="#DejaVuSans-Oblique-74" transform="translate(264.56543 -16.28125) scale(0.7)"/>
      <use xlink:href="#DejaVuSans-Oblique-70" transform="translate(292.011719 -16.28125) scale(0.7)"/>
      <use xlink:href="#DejaVuSans-Oblique-75" transform="translate(336.445312 -16.28125) scale(0.7)"/>
      <use xlink:href="#DejaVuSans-Oblique-74" transform="translate(380.810547 -16.28125) scale(0.7)"/>
     </g>
    </g>
    <g id="line2d_15">
     <path d="M 61.160938 237.84 
L 71.160938 237.84 
L 81.160938 237.84 
" style="fill: none; stroke: #ff7f0e; stroke-width: 1.5; stroke-linecap: square"/>
    </g>
    <g id="text_15">
     <!-- $x(t)_{input}$ -->
     <g transform="translate(89.160938 241.34) scale(0.1 -0.1)">
      <defs>
       <path id="DejaVuSans-Oblique-78" d="M 3841 3500 
L 2234 1784 
L 3219 0 
L 2559 0 
L 1819 1388 
L 531 0 
L -166 0 
L 1556 1844 
L 641 3500 
L 1300 3500 
L 1972 2234 
L 3144 3500 
L 3841 3500 
z
" transform="scale(0.015625)"/>
       <path id="DejaVuSans-Oblique-69" d="M 1172 4863 
L 1747 4863 
L 1606 4134 
L 1031 4134 
L 1172 4863 
z
M 909 3500 
L 1484 3500 
L 800 0 
L 225 0 
L 909 3500 
z
" transform="scale(0.015625)"/>
       <path id="DejaVuSans-Oblique-6e" d="M 3566 2113 
L 3156 0 
L 2578 0 
L 2988 2091 
Q 3016 2238 3031 2350 
Q 3047 2463 3047 2528 
Q 3047 2791 2881 2937 
Q 2716 3084 2419 3084 
Q 1956 3084 1622 2776 
Q 1288 2469 1184 1941 
L 800 0 
L 225 0 
L 903 3500 
L 1478 3500 
L 1363 2950 
Q 1603 3253 1940 3418 
Q 2278 3584 2650 3584 
Q 3113 3584 3367 3334 
Q 3622 3084 3622 2631 
Q 3622 2519 3608 2391 
Q 3594 2263 3566 2113 
z
" transform="scale(0.015625)"/>
      </defs>
      <use xlink:href="#DejaVuSans-Oblique-78" transform="translate(0 0.125)"/>
      <use xlink:href="#DejaVuSans-28" transform="translate(59.179688 0.125)"/>
      <use xlink:href="#DejaVuSans-Oblique-74" transform="translate(98.193359 0.125)"/>
      <use xlink:href="#DejaVuSans-29" transform="translate(137.402344 0.125)"/>
      <use xlink:href="#DejaVuSans-Oblique-69" transform="translate(177.373047 -16.28125) scale(0.7)"/>
      <use xlink:href="#DejaVuSans-Oblique-6e" transform="translate(196.821289 -16.28125) scale(0.7)"/>
      <use xlink:href="#DejaVuSans-Oblique-70" transform="translate(241.186523 -16.28125) scale(0.7)"/>
      <use xlink:href="#DejaVuSans-Oblique-75" transform="translate(285.620117 -16.28125) scale(0.7)"/>
      <use xlink:href="#DejaVuSans-Oblique-74" transform="translate(329.985352 -16.28125) scale(0.7)"/>
     </g>
    </g>
   </g>
  </g>
  <g id="text_16">
   <!-- Voltage $v(t)$ for a LIF Neuron with $x=x(t)$ -->
   <g transform="translate(90.560938 16.32) scale(0.12 -0.12)">
    <defs>
     <path id="DejaVuSans-56" d="M 1831 0 
L 50 4666 
L 709 4666 
L 2188 738 
L 3669 4666 
L 4325 4666 
L 2547 0 
L 1831 0 
z
" transform="scale(0.015625)"/>
     <path id="DejaVuSans-6f" d="M 1959 3097 
Q 1497 3097 1228 2736 
Q 959 2375 959 1747 
Q 959 1119 1226 758 
Q 1494 397 1959 397 
Q 2419 397 2687 759 
Q 2956 1122 2956 1747 
Q 2956 2369 2687 2733 
Q 2419 3097 1959 3097 
z
M 1959 3584 
Q 2709 3584 3137 3096 
Q 3566 2609 3566 1747 
Q 3566 888 3137 398 
Q 2709 -91 1959 -91 
Q 1206 -91 779 398 
Q 353 888 353 1747 
Q 353 2609 779 3096 
Q 1206 3584 1959 3584 
z
" transform="scale(0.015625)"/>
     <path id="DejaVuSans-6c" d="M 603 4863 
L 1178 4863 
L 1178 0 
L 603 0 
L 603 4863 
z
" transform="scale(0.015625)"/>
     <path id="DejaVuSans-66" d="M 2375 4863 
L 2375 4384 
L 1825 4384 
Q 1516 4384 1395 4259 
Q 1275 4134 1275 3809 
L 1275 3500 
L 2222 3500 
L 2222 3053 
L 1275 3053 
L 1275 0 
L 697 0 
L 697 3053 
L 147 3053 
L 147 3500 
L 697 3500 
L 697 3744 
Q 697 4328 969 4595 
Q 1241 4863 1831 4863 
L 2375 4863 
z
" transform="scale(0.015625)"/>
     <path id="DejaVuSans-72" d="M 2631 2963 
Q 2534 3019 2420 3045 
Q 2306 3072 2169 3072 
Q 1681 3072 1420 2755 
Q 1159 2438 1159 1844 
L 1159 0 
L 581 0 
L 581 3500 
L 1159 3500 
L 1159 2956 
Q 1341 3275 1631 3429 
Q 1922 3584 2338 3584 
Q 2397 3584 2469 3576 
Q 2541 3569 2628 3553 
L 2631 2963 
z
" transform="scale(0.015625)"/>
     <path id="DejaVuSans-4c" d="M 628 4666 
L 1259 4666 
L 1259 531 
L 3531 531 
L 3531 0 
L 628 0 
L 628 4666 
z
" transform="scale(0.015625)"/>
     <path id="DejaVuSans-49" d="M 628 4666 
L 1259 4666 
L 1259 0 
L 628 0 
L 628 4666 
z
" transform="scale(0.015625)"/>
     <path id="DejaVuSans-46" d="M 628 4666 
L 3309 4666 
L 3309 4134 
L 1259 4134 
L 1259 2759 
L 3109 2759 
L 3109 2228 
L 1259 2228 
L 1259 0 
L 628 0 
L 628 4666 
z
" transform="scale(0.015625)"/>
     <path id="DejaVuSans-4e" d="M 628 4666 
L 1478 4666 
L 3547 763 
L 3547 4666 
L 4159 4666 
L 4159 0 
L 3309 0 
L 1241 3903 
L 1241 0 
L 628 0 
L 628 4666 
z
" transform="scale(0.015625)"/>
     <path id="DejaVuSans-77" d="M 269 3500 
L 844 3500 
L 1563 769 
L 2278 3500 
L 2956 3500 
L 3675 769 
L 4391 3500 
L 4966 3500 
L 4050 0 
L 3372 0 
L 2619 2869 
L 1863 0 
L 1184 0 
L 269 3500 
z
" transform="scale(0.015625)"/>
     <path id="DejaVuSans-68" d="M 3513 2113 
L 3513 0 
L 2938 0 
L 2938 2094 
Q 2938 2591 2744 2837 
Q 2550 3084 2163 3084 
Q 1697 3084 1428 2787 
Q 1159 2491 1159 1978 
L 1159 0 
L 581 0 
L 581 4863 
L 1159 4863 
L 1159 2956 
Q 1366 3272 1645 3428 
Q 1925 3584 2291 3584 
Q 2894 3584 3203 3211 
Q 3513 2838 3513 2113 
z
" transform="scale(0.015625)"/>
     <path id="DejaVuSans-3d" d="M 678 2906 
L 4684 2906 
L 4684 2381 
L 678 2381 
L 678 2906 
z
M 678 1631 
L 4684 1631 
L 4684 1100 
L 678 1100 
L 678 1631 
z
" transform="scale(0.015625)"/>
    </defs>
    <use xlink:href="#DejaVuSans-56" transform="translate(0 0.015625)"/>
    <use xlink:href="#DejaVuSans-6f" transform="translate(68.408203 0.015625)"/>
    <use xlink:href="#DejaVuSans-6c" transform="translate(129.589844 0.015625)"/>
    <use xlink:href="#DejaVuSans-74" transform="translate(157.373047 0.015625)"/>
    <use xlink:href="#DejaVuSans-61" transform="translate(196.582031 0.015625)"/>
    <use xlink:href="#DejaVuSans-67" transform="translate(257.861328 0.015625)"/>
    <use xlink:href="#DejaVuSans-65" transform="translate(321.337891 0.015625)"/>
    <use xlink:href="#DejaVuSans-20" transform="translate(382.861328 0.015625)"/>
    <use xlink:href="#DejaVuSans-Oblique-76" transform="translate(414.648438 0.015625)"/>
    <use xlink:href="#DejaVuSans-28" transform="translate(473.828125 0.015625)"/>
    <use xlink:href="#DejaVuSans-Oblique-74" transform="translate(512.841797 0.015625)"/>
    <use xlink:href="#DejaVuSans-29" transform="translate(552.050781 0.015625)"/>
    <use xlink:href="#DejaVuSans-20" transform="translate(591.064453 0.015625)"/>
    <use xlink:href="#DejaVuSans-66" transform="translate(622.851562 0.015625)"/>
    <use xlink:href="#DejaVuSans-6f" transform="translate(658.056641 0.015625)"/>
    <use xlink:href="#DejaVuSans-72" transform="translate(719.238281 0.015625)"/>
    <use xlink:href="#DejaVuSans-20" transform="translate(760.351562 0.015625)"/>
    <use xlink:href="#DejaVuSans-61" transform="translate(792.138672 0.015625)"/>
    <use xlink:href="#DejaVuSans-20" transform="translate(853.417969 0.015625)"/>
    <use xlink:href="#DejaVuSans-4c" transform="translate(885.205078 0.015625)"/>
    <use xlink:href="#DejaVuSans-49" transform="translate(940.917969 0.015625)"/>
    <use xlink:href="#DejaVuSans-46" transform="translate(970.410156 0.015625)"/>
    <use xlink:href="#DejaVuSans-20" transform="translate(1027.929688 0.015625)"/>
    <use xlink:href="#DejaVuSans-4e" transform="translate(1059.716797 0.015625)"/>
    <use xlink:href="#DejaVuSans-65" transform="translate(1134.521484 0.015625)"/>
    <use xlink:href="#DejaVuSans-75" transform="translate(1196.044922 0.015625)"/>
    <use xlink:href="#DejaVuSans-72" transform="translate(1259.423828 0.015625)"/>
    <use xlink:href="#DejaVuSans-6f" transform="translate(1300.537109 0.015625)"/>
    <use xlink:href="#DejaVuSans-6e" transform="translate(1361.71875 0.015625)"/>
    <use xlink:href="#DejaVuSans-20" transform="translate(1425.097656 0.015625)"/>
    <use xlink:href="#DejaVuSans-77" transform="translate(1456.884766 0.015625)"/>
    <use xlink:href="#DejaVuSans-69" transform="translate(1538.671875 0.015625)"/>
    <use xlink:href="#DejaVuSans-74" transform="translate(1566.455078 0.015625)"/>
    <use xlink:href="#DejaVuSans-68" transform="translate(1605.664062 0.015625)"/>
    <use xlink:href="#DejaVuSans-20" transform="translate(1669.042969 0.015625)"/>
    <use xlink:href="#DejaVuSans-Oblique-78" transform="translate(1700.830078 0.015625)"/>
    <use xlink:href="#DejaVuSans-3d" transform="translate(1779.492188 0.015625)"/>
    <use xlink:href="#DejaVuSans-Oblique-78" transform="translate(1882.763672 0.015625)"/>
    <use xlink:href="#DejaVuSans-28" transform="translate(1941.943359 0.015625)"/>
    <use xlink:href="#DejaVuSans-Oblique-74" transform="translate(1980.957031 0.015625)"/>
    <use xlink:href="#DejaVuSans-29" transform="translate(2020.166016 0.015625)"/>
   </g>
  </g>
 </g>
 <defs>
  <clipPath id="p78bfe9ea95">
   <rect x="52.160938" y="36" width="334.8" height="217.44"/>
  </clipPath>
 </defs>
</svg>
