<?xml version="1.0" encoding="utf-8" standalone="no"?>
<!DOCTYPE svg PUBLIC "-//W3C//DTD SVG 1.1//EN"
  "http://www.w3.org/Graphics/SVG/1.1/DTD/svg11.dtd">
<svg xmlns:xlink="http://www.w3.org/1999/xlink" width="426.682812pt" height="283.99625pt" viewBox="0 0 426.682812 283.99625" xmlns="http://www.w3.org/2000/svg" version="1.1">
 <metadata>
  <rdf:RDF xmlns:dc="http://purl.org/dc/elements/1.1/" xmlns:cc="http://creativecommons.org/ns#" xmlns:rdf="http://www.w3.org/1999/02/22-rdf-syntax-ns#">
   <cc:Work>
    <dc:type rdf:resource="http://purl.org/dc/dcmitype/StillImage"/>
    <dc:date>2022-10-16T21:52:41.715519</dc:date>
    <dc:format>image/svg+xml</dc:format>
    <dc:creator>
     <cc:Agent>
      <dc:title>Matplotlib v3.6.0, https://matplotlib.org/</dc:title>
     </cc:Agent>
    </dc:creator>
   </cc:Work>
  </rdf:RDF>
 </metadata>
 <defs>
  <style type="text/css">*{stroke-linejoin: round; stroke-linecap: butt}</style>
 </defs>
 <g id="figure_1">
  <g id="patch_1">
   <path d="M 0 283.99625 
L 426.682812 283.99625 
L 426.682812 0 
L 0 0 
L 0 283.99625 
z
" style="fill: none"/>
  </g>
  <g id="axes_1">
   <g id="patch_2">
    <path d="M 33.2875 87.708752 
L 408.35 87.708752 
L 408.35 38.44 
L 33.2875 38.44 
z
" style="fill: #ffffff"/>
   </g>
   <g id="matplotlib.axis_1">
    <g id="xtick_1">
     <g id="line2d_1">
      <defs>
       <path id="m43347b50ce" d="M 0 0 
L 0 3.5 
" style="stroke: #000000; stroke-width: 0.8"/>
      </defs>
      <g>
       <use xlink:href="#m43347b50ce" x="33.2875" y="87.708752" style="stroke: #000000; stroke-width: 0.8"/>
      </g>
     </g>
     <g id="text_1">
      <!-- 0.00 -->
      <g transform="translate(22.154688 102.30719) scale(0.1 -0.1)">
       <defs>
        <path id="DejaVuSans-30" d="M 2034 4250 
Q 1547 4250 1301 3770 
Q 1056 3291 1056 2328 
Q 1056 1369 1301 889 
Q 1547 409 2034 409 
Q 2525 409 2770 889 
Q 3016 1369 3016 2328 
Q 3016 3291 2770 3770 
Q 2525 4250 2034 4250 
z
M 2034 4750 
Q 2819 4750 3233 4129 
Q 3647 3509 3647 2328 
Q 3647 1150 3233 529 
Q 2819 -91 2034 -91 
Q 1250 -91 836 529 
Q 422 1150 422 2328 
Q 422 3509 836 4129 
Q 1250 4750 2034 4750 
z
" transform="scale(0.015625)"/>
        <path id="DejaVuSans-2e" d="M 684 794 
L 1344 794 
L 1344 0 
L 684 0 
L 684 794 
z
" transform="scale(0.015625)"/>
       </defs>
       <use xlink:href="#DejaVuSans-30"/>
       <use xlink:href="#DejaVuSans-2e" x="63.623047"/>
       <use xlink:href="#DejaVuSans-30" x="95.410156"/>
       <use xlink:href="#DejaVuSans-30" x="159.033203"/>
      </g>
     </g>
    </g>
    <g id="xtick_2">
     <g id="line2d_2">
      <g>
       <use xlink:href="#m43347b50ce" x="108.3" y="87.708752" style="stroke: #000000; stroke-width: 0.8"/>
      </g>
     </g>
     <g id="text_2">
      <!-- 0.02 -->
      <g transform="translate(97.167188 102.30719) scale(0.1 -0.1)">
       <defs>
        <path id="DejaVuSans-32" d="M 1228 531 
L 3431 531 
L 3431 0 
L 469 0 
L 469 531 
Q 828 903 1448 1529 
Q 2069 2156 2228 2338 
Q 2531 2678 2651 2914 
Q 2772 3150 2772 3378 
Q 2772 3750 2511 3984 
Q 2250 4219 1831 4219 
Q 1534 4219 1204 4116 
Q 875 4013 500 3803 
L 500 4441 
Q 881 4594 1212 4672 
Q 1544 4750 1819 4750 
Q 2544 4750 2975 4387 
Q 3406 4025 3406 3419 
Q 3406 3131 3298 2873 
Q 3191 2616 2906 2266 
Q 2828 2175 2409 1742 
Q 1991 1309 1228 531 
z
" transform="scale(0.015625)"/>
       </defs>
       <use xlink:href="#DejaVuSans-30"/>
       <use xlink:href="#DejaVuSans-2e" x="63.623047"/>
       <use xlink:href="#DejaVuSans-30" x="95.410156"/>
       <use xlink:href="#DejaVuSans-32" x="159.033203"/>
      </g>
     </g>
    </g>
    <g id="xtick_3">
     <g id="line2d_3">
      <g>
       <use xlink:href="#m43347b50ce" x="183.3125" y="87.708752" style="stroke: #000000; stroke-width: 0.8"/>
      </g>
     </g>
     <g id="text_3">
      <!-- 0.04 -->
      <g transform="translate(172.179688 102.30719) scale(0.1 -0.1)">
       <defs>
        <path id="DejaVuSans-34" d="M 2419 4116 
L 825 1625 
L 2419 1625 
L 2419 4116 
z
M 2253 4666 
L 3047 4666 
L 3047 1625 
L 3713 1625 
L 3713 1100 
L 3047 1100 
L 3047 0 
L 2419 0 
L 2419 1100 
L 313 1100 
L 313 1709 
L 2253 4666 
z
" transform="scale(0.015625)"/>
       </defs>
       <use xlink:href="#DejaVuSans-30"/>
       <use xlink:href="#DejaVuSans-2e" x="63.623047"/>
       <use xlink:href="#DejaVuSans-30" x="95.410156"/>
       <use xlink:href="#DejaVuSans-34" x="159.033203"/>
      </g>
     </g>
    </g>
    <g id="xtick_4">
     <g id="line2d_4">
      <g>
       <use xlink:href="#m43347b50ce" x="258.325" y="87.708752" style="stroke: #000000; stroke-width: 0.8"/>
      </g>
     </g>
     <g id="text_4">
      <!-- 0.06 -->
      <g transform="translate(247.192187 102.30719) scale(0.1 -0.1)">
       <defs>
        <path id="DejaVuSans-36" d="M 2113 2584 
Q 1688 2584 1439 2293 
Q 1191 2003 1191 1497 
Q 1191 994 1439 701 
Q 1688 409 2113 409 
Q 2538 409 2786 701 
Q 3034 994 3034 1497 
Q 3034 2003 2786 2293 
Q 2538 2584 2113 2584 
z
M 3366 4563 
L 3366 3988 
Q 3128 4100 2886 4159 
Q 2644 4219 2406 4219 
Q 1781 4219 1451 3797 
Q 1122 3375 1075 2522 
Q 1259 2794 1537 2939 
Q 1816 3084 2150 3084 
Q 2853 3084 3261 2657 
Q 3669 2231 3669 1497 
Q 3669 778 3244 343 
Q 2819 -91 2113 -91 
Q 1303 -91 875 529 
Q 447 1150 447 2328 
Q 447 3434 972 4092 
Q 1497 4750 2381 4750 
Q 2619 4750 2861 4703 
Q 3103 4656 3366 4563 
z
" transform="scale(0.015625)"/>
       </defs>
       <use xlink:href="#DejaVuSans-30"/>
       <use xlink:href="#DejaVuSans-2e" x="63.623047"/>
       <use xlink:href="#DejaVuSans-30" x="95.410156"/>
       <use xlink:href="#DejaVuSans-36" x="159.033203"/>
      </g>
     </g>
    </g>
    <g id="xtick_5">
     <g id="line2d_5">
      <g>
       <use xlink:href="#m43347b50ce" x="333.3375" y="87.708752" style="stroke: #000000; stroke-width: 0.8"/>
      </g>
     </g>
     <g id="text_5">
      <!-- 0.08 -->
      <g transform="translate(322.204688 102.30719) scale(0.1 -0.1)">
       <defs>
        <path id="DejaVuSans-38" d="M 2034 2216 
Q 1584 2216 1326 1975 
Q 1069 1734 1069 1313 
Q 1069 891 1326 650 
Q 1584 409 2034 409 
Q 2484 409 2743 651 
Q 3003 894 3003 1313 
Q 3003 1734 2745 1975 
Q 2488 2216 2034 2216 
z
M 1403 2484 
Q 997 2584 770 2862 
Q 544 3141 544 3541 
Q 544 4100 942 4425 
Q 1341 4750 2034 4750 
Q 2731 4750 3128 4425 
Q 3525 4100 3525 3541 
Q 3525 3141 3298 2862 
Q 3072 2584 2669 2484 
Q 3125 2378 3379 2068 
Q 3634 1759 3634 1313 
Q 3634 634 3220 271 
Q 2806 -91 2034 -91 
Q 1263 -91 848 271 
Q 434 634 434 1313 
Q 434 1759 690 2068 
Q 947 2378 1403 2484 
z
M 1172 3481 
Q 1172 3119 1398 2916 
Q 1625 2713 2034 2713 
Q 2441 2713 2670 2916 
Q 2900 3119 2900 3481 
Q 2900 3844 2670 4047 
Q 2441 4250 2034 4250 
Q 1625 4250 1398 4047 
Q 1172 3844 1172 3481 
z
" transform="scale(0.015625)"/>
       </defs>
       <use xlink:href="#DejaVuSans-30"/>
       <use xlink:href="#DejaVuSans-2e" x="63.623047"/>
       <use xlink:href="#DejaVuSans-30" x="95.410156"/>
       <use xlink:href="#DejaVuSans-38" x="159.033203"/>
      </g>
     </g>
    </g>
    <g id="xtick_6">
     <g id="line2d_6">
      <g>
       <use xlink:href="#m43347b50ce" x="408.35" y="87.708752" style="stroke: #000000; stroke-width: 0.8"/>
      </g>
     </g>
     <g id="text_6">
      <!-- 0.10 -->
      <g transform="translate(397.217188 102.30719) scale(0.1 -0.1)">
       <defs>
        <path id="DejaVuSans-31" d="M 794 531 
L 1825 531 
L 1825 4091 
L 703 3866 
L 703 4441 
L 1819 4666 
L 2450 4666 
L 2450 531 
L 3481 531 
L 3481 0 
L 794 0 
L 794 531 
z
" transform="scale(0.015625)"/>
       </defs>
       <use xlink:href="#DejaVuSans-30"/>
       <use xlink:href="#DejaVuSans-2e" x="63.623047"/>
       <use xlink:href="#DejaVuSans-31" x="95.410156"/>
       <use xlink:href="#DejaVuSans-30" x="159.033203"/>
      </g>
     </g>
    </g>
   </g>
   <g id="matplotlib.axis_2">
    <g id="ytick_1">
     <g id="line2d_7">
      <defs>
       <path id="m2358b58b1c" d="M 0 0 
L -3.5 0 
" style="stroke: #000000; stroke-width: 0.8"/>
      </defs>
      <g>
       <use xlink:href="#m2358b58b1c" x="33.2875" y="85.469263" style="stroke: #000000; stroke-width: 0.8"/>
      </g>
     </g>
     <g id="text_7">
      <!-- 0 -->
      <g transform="translate(19.925 89.268482) scale(0.1 -0.1)">
       <use xlink:href="#DejaVuSans-30"/>
      </g>
     </g>
    </g>
    <g id="ytick_2">
     <g id="line2d_8">
      <g>
       <use xlink:href="#m2358b58b1c" x="33.2875" y="51.823629" style="stroke: #000000; stroke-width: 0.8"/>
      </g>
     </g>
     <g id="text_8">
      <!-- 100 -->
      <g transform="translate(7.2 55.622848) scale(0.1 -0.1)">
       <use xlink:href="#DejaVuSans-31"/>
       <use xlink:href="#DejaVuSans-30" x="63.623047"/>
       <use xlink:href="#DejaVuSans-30" x="127.246094"/>
      </g>
     </g>
    </g>
   </g>
   <g id="line2d_9">
    <path d="M 33.2875 40.679489 
L 37.038125 46.641998 
L 40.78875 51.810765 
L 44.539375 56.291455 
L 48.29 60.175666 
L 52.040625 63.542803 
L 55.79125 66.461699 
L 59.541875 68.992026 
L 63.2925 71.185511 
L 67.043125 73.086994 
L 70.79375 74.735347 
L 74.544375 76.164269 
L 78.295 77.402969 
L 82.045625 78.476771 
L 85.79625 79.407627 
L 89.546875 80.214564 
L 93.2975 80.914081 
L 97.048125 81.520476 
L 100.79875 82.046147 
L 104.549375 82.50184 
L 108.3 82.896869 
L 112.050625 83.239312 
L 115.80125 83.536168 
L 119.551875 83.793505 
L 123.3025 84.016586 
L 127.053125 84.209969 
L 130.80375 84.377609 
L 134.554375 84.522933 
L 138.305 84.64891 
L 142.055625 84.758117 
L 145.80625 84.852787 
L 149.556875 84.934853 
L 153.3075 85.005995 
L 157.058125 85.067666 
L 160.80875 85.121128 
L 164.559375 85.167472 
L 168.31 85.207647 
L 172.060625 85.242474 
L 175.81125 85.272665 
L 179.561875 85.298836 
L 183.3125 85.321524 
L 187.063125 85.341191 
L 190.81375 85.358241 
L 194.564375 85.37302 
L 198.315 85.385832 
L 202.065625 85.396939 
L 205.81625 85.406567 
L 209.566875 85.414913 
L 213.3175 85.422148 
L 217.068125 85.42842 
L 220.81875 85.433858 
L 224.569375 85.438571 
L 228.32 85.442657 
L 232.070625 85.446199 
L 235.82125 85.449269 
L 239.571875 85.451931 
L 243.3225 85.454238 
L 247.073125 85.456238 
L 250.82375 85.457972 
L 254.574375 85.459475 
L 258.325 85.460778 
L 262.075625 85.461908 
L 265.82625 85.462887 
L 269.576875 85.463736 
L 273.3275 85.464472 
L 277.078125 85.46511 
L 280.82875 85.465663 
L 284.579375 85.466142 
L 288.33 85.466557 
L 292.080625 85.466918 
L 295.83125 85.46723 
L 299.581875 85.467501 
L 303.3325 85.467735 
L 307.083125 85.467939 
L 310.83375 85.468115 
L 314.584375 85.468268 
L 318.335 85.4684 
L 322.085625 85.468515 
L 325.83625 85.468615 
L 329.586875 85.468701 
L 333.3375 85.468776 
L 337.088125 85.468841 
L 340.83875 85.468897 
L 344.589375 85.468946 
L 348.34 85.468988 
L 352.090625 85.469025 
L 355.84125 85.469057 
L 359.591875 85.469084 
L 363.3425 85.469108 
L 367.093125 85.469129 
L 370.84375 85.469147 
L 374.594375 85.469162 
L 378.345 85.469176 
L 382.095625 85.469187 
L 385.84625 85.469197 
L 389.596875 85.469206 
L 393.3475 85.469214 
L 397.098125 85.46922 
L 400.84875 85.469226 
L 404.599375 85.469231 
L 408.35 85.469235 
L 412.100625 85.469239 
" clip-path="url(#pad4742f4a4)" style="fill: none; stroke: #1f77b4; stroke-width: 1.5; stroke-linecap: square"/>
   </g>
   <g id="patch_3">
    <path d="M 33.2875 87.708752 
L 33.2875 38.44 
" style="fill: none; stroke: #000000; stroke-width: 0.8; stroke-linejoin: miter; stroke-linecap: square"/>
   </g>
   <g id="patch_4">
    <path d="M 408.35 87.708752 
L 408.35 38.44 
" style="fill: none; stroke: #000000; stroke-width: 0.8; stroke-linejoin: miter; stroke-linecap: square"/>
   </g>
   <g id="patch_5">
    <path d="M 33.2875 87.708752 
L 408.35 87.708752 
" style="fill: none; stroke: #000000; stroke-width: 0.8; stroke-linejoin: miter; stroke-linecap: square"/>
   </g>
   <g id="patch_6">
    <path d="M 33.2875 38.44 
L 408.35 38.44 
" style="fill: none; stroke: #000000; stroke-width: 0.8; stroke-linejoin: miter; stroke-linecap: square"/>
   </g>
   <g id="legend_1">
    <g id="patch_7">
     <path d="M 238.75 61.118125 
L 401.35 61.118125 
Q 403.35 61.118125 403.35 59.118125 
L 403.35 45.44 
Q 403.35 43.44 401.35 43.44 
L 238.75 43.44 
Q 236.75 43.44 236.75 45.44 
L 236.75 59.118125 
Q 236.75 61.118125 238.75 61.118125 
z
" style="fill: #ffffff; opacity: 0.8; stroke: #cccccc; stroke-linejoin: miter"/>
    </g>
    <g id="line2d_10">
     <path d="M 240.75 51.538437 
L 250.75 51.538437 
L 260.75 51.538437 
" style="fill: none; stroke: #1f77b4; stroke-width: 1.5; stroke-linecap: square"/>
    </g>
    <g id="text_9">
     <!-- $h(t)$ with $\tau=7ms$ and n=0 -->
     <g transform="translate(268.75 55.038437) scale(0.1 -0.1)">
      <defs>
       <path id="DejaVuSans-Oblique-68" d="M 3566 2113 
L 3156 0 
L 2578 0 
L 2988 2091 
Q 3016 2238 3031 2350 
Q 3047 2463 3047 2528 
Q 3047 2791 2881 2937 
Q 2716 3084 2419 3084 
Q 1956 3084 1617 2771 
Q 1278 2459 1178 1941 
L 800 0 
L 225 0 
L 1172 4863 
L 1747 4863 
L 1375 2950 
Q 1594 3244 1934 3414 
Q 2275 3584 2650 3584 
Q 3113 3584 3367 3334 
Q 3622 3084 3622 2631 
Q 3622 2519 3608 2391 
Q 3594 2263 3566 2113 
z
" transform="scale(0.015625)"/>
       <path id="DejaVuSans-28" d="M 1984 4856 
Q 1566 4138 1362 3434 
Q 1159 2731 1159 2009 
Q 1159 1288 1364 580 
Q 1569 -128 1984 -844 
L 1484 -844 
Q 1016 -109 783 600 
Q 550 1309 550 2009 
Q 550 2706 781 3412 
Q 1013 4119 1484 4856 
L 1984 4856 
z
" transform="scale(0.015625)"/>
       <path id="DejaVuSans-Oblique-74" d="M 2706 3500 
L 2619 3053 
L 1472 3053 
L 1100 1153 
Q 1081 1047 1072 975 
Q 1063 903 1063 863 
Q 1063 663 1183 572 
Q 1303 481 1569 481 
L 2150 481 
L 2053 0 
L 1503 0 
Q 991 0 739 200 
Q 488 400 488 806 
Q 488 878 497 964 
Q 506 1050 525 1153 
L 897 3053 
L 409 3053 
L 500 3500 
L 978 3500 
L 1172 4494 
L 1747 4494 
L 1556 3500 
L 2706 3500 
z
" transform="scale(0.015625)"/>
       <path id="DejaVuSans-29" d="M 513 4856 
L 1013 4856 
Q 1481 4119 1714 3412 
Q 1947 2706 1947 2009 
Q 1947 1309 1714 600 
Q 1481 -109 1013 -844 
L 513 -844 
Q 928 -128 1133 580 
Q 1338 1288 1338 2009 
Q 1338 2731 1133 3434 
Q 928 4138 513 4856 
z
" transform="scale(0.015625)"/>
       <path id="DejaVuSans-20" transform="scale(0.015625)"/>
       <path id="DejaVuSans-77" d="M 269 3500 
L 844 3500 
L 1563 769 
L 2278 3500 
L 2956 3500 
L 3675 769 
L 4391 3500 
L 4966 3500 
L 4050 0 
L 3372 0 
L 2619 2869 
L 1863 0 
L 1184 0 
L 269 3500 
z
" transform="scale(0.015625)"/>
       <path id="DejaVuSans-69" d="M 603 3500 
L 1178 3500 
L 1178 0 
L 603 0 
L 603 3500 
z
M 603 4863 
L 1178 4863 
L 1178 4134 
L 603 4134 
L 603 4863 
z
" transform="scale(0.015625)"/>
       <path id="DejaVuSans-74" d="M 1172 4494 
L 1172 3500 
L 2356 3500 
L 2356 3053 
L 1172 3053 
L 1172 1153 
Q 1172 725 1289 603 
Q 1406 481 1766 481 
L 2356 481 
L 2356 0 
L 1766 0 
Q 1100 0 847 248 
Q 594 497 594 1153 
L 594 3053 
L 172 3053 
L 172 3500 
L 594 3500 
L 594 4494 
L 1172 4494 
z
" transform="scale(0.015625)"/>
       <path id="DejaVuSans-68" d="M 3513 2113 
L 3513 0 
L 2938 0 
L 2938 2094 
Q 2938 2591 2744 2837 
Q 2550 3084 2163 3084 
Q 1697 3084 1428 2787 
Q 1159 2491 1159 1978 
L 1159 0 
L 581 0 
L 581 4863 
L 1159 4863 
L 1159 2956 
Q 1366 3272 1645 3428 
Q 1925 3584 2291 3584 
Q 2894 3584 3203 3211 
Q 3513 2838 3513 2113 
z
" transform="scale(0.015625)"/>
       <path id="DejaVuSans-Oblique-3c4" d="M 2103 638 
Q 2188 488 2525 488 
L 2800 488 
L 2706 0 
L 2363 0 
Q 1800 0 1600 300 
Q 1403 606 1534 1269 
L 1856 2925 
L 541 2925 
L 653 3500 
L 3881 3500 
L 3769 2925 
L 2444 2925 
L 2113 1234 
Q 2025 781 2103 638 
z
" transform="scale(0.015625)"/>
       <path id="DejaVuSans-3d" d="M 678 2906 
L 4684 2906 
L 4684 2381 
L 678 2381 
L 678 2906 
z
M 678 1631 
L 4684 1631 
L 4684 1100 
L 678 1100 
L 678 1631 
z
" transform="scale(0.015625)"/>
       <path id="DejaVuSans-37" d="M 525 4666 
L 3525 4666 
L 3525 4397 
L 1831 0 
L 1172 0 
L 2766 4134 
L 525 4134 
L 525 4666 
z
" transform="scale(0.015625)"/>
       <path id="DejaVuSans-Oblique-6d" d="M 5747 2113 
L 5338 0 
L 4763 0 
L 5166 2094 
Q 5191 2228 5203 2325 
Q 5216 2422 5216 2491 
Q 5216 2772 5059 2928 
Q 4903 3084 4622 3084 
Q 4203 3084 3875 2770 
Q 3547 2456 3450 1953 
L 3066 0 
L 2491 0 
L 2900 2094 
Q 2925 2209 2937 2307 
Q 2950 2406 2950 2484 
Q 2950 2769 2794 2926 
Q 2638 3084 2363 3084 
Q 1938 3084 1609 2770 
Q 1281 2456 1184 1953 
L 800 0 
L 225 0 
L 909 3500 
L 1484 3500 
L 1375 2956 
Q 1609 3263 1923 3423 
Q 2238 3584 2597 3584 
Q 2978 3584 3223 3384 
Q 3469 3184 3519 2828 
Q 3781 3197 4126 3390 
Q 4472 3584 4856 3584 
Q 5306 3584 5551 3325 
Q 5797 3066 5797 2591 
Q 5797 2488 5784 2364 
Q 5772 2241 5747 2113 
z
" transform="scale(0.015625)"/>
       <path id="DejaVuSans-Oblique-73" d="M 3200 3397 
L 3091 2853 
Q 2863 2978 2609 3040 
Q 2356 3103 2088 3103 
Q 1634 3103 1373 2948 
Q 1113 2794 1113 2528 
Q 1113 2219 1719 2053 
Q 1766 2041 1788 2034 
L 1972 1978 
Q 2547 1819 2739 1644 
Q 2931 1469 2931 1166 
Q 2931 609 2489 259 
Q 2047 -91 1331 -91 
Q 1053 -91 747 -37 
Q 441 16 72 128 
L 184 722 
Q 500 559 806 475 
Q 1113 391 1394 391 
Q 1816 391 2080 572 
Q 2344 753 2344 1031 
Q 2344 1331 1650 1516 
L 1591 1531 
L 1394 1581 
Q 956 1697 753 1886 
Q 550 2075 550 2369 
Q 550 2928 970 3256 
Q 1391 3584 2113 3584 
Q 2397 3584 2667 3537 
Q 2938 3491 3200 3397 
z
" transform="scale(0.015625)"/>
       <path id="DejaVuSans-61" d="M 2194 1759 
Q 1497 1759 1228 1600 
Q 959 1441 959 1056 
Q 959 750 1161 570 
Q 1363 391 1709 391 
Q 2188 391 2477 730 
Q 2766 1069 2766 1631 
L 2766 1759 
L 2194 1759 
z
M 3341 1997 
L 3341 0 
L 2766 0 
L 2766 531 
Q 2569 213 2275 61 
Q 1981 -91 1556 -91 
Q 1019 -91 701 211 
Q 384 513 384 1019 
Q 384 1609 779 1909 
Q 1175 2209 1959 2209 
L 2766 2209 
L 2766 2266 
Q 2766 2663 2505 2880 
Q 2244 3097 1772 3097 
Q 1472 3097 1187 3025 
Q 903 2953 641 2809 
L 641 3341 
Q 956 3463 1253 3523 
Q 1550 3584 1831 3584 
Q 2591 3584 2966 3190 
Q 3341 2797 3341 1997 
z
" transform="scale(0.015625)"/>
       <path id="DejaVuSans-6e" d="M 3513 2113 
L 3513 0 
L 2938 0 
L 2938 2094 
Q 2938 2591 2744 2837 
Q 2550 3084 2163 3084 
Q 1697 3084 1428 2787 
Q 1159 2491 1159 1978 
L 1159 0 
L 581 0 
L 581 3500 
L 1159 3500 
L 1159 2956 
Q 1366 3272 1645 3428 
Q 1925 3584 2291 3584 
Q 2894 3584 3203 3211 
Q 3513 2838 3513 2113 
z
" transform="scale(0.015625)"/>
       <path id="DejaVuSans-64" d="M 2906 2969 
L 2906 4863 
L 3481 4863 
L 3481 0 
L 2906 0 
L 2906 525 
Q 2725 213 2448 61 
Q 2172 -91 1784 -91 
Q 1150 -91 751 415 
Q 353 922 353 1747 
Q 353 2572 751 3078 
Q 1150 3584 1784 3584 
Q 2172 3584 2448 3432 
Q 2725 3281 2906 2969 
z
M 947 1747 
Q 947 1113 1208 752 
Q 1469 391 1925 391 
Q 2381 391 2643 752 
Q 2906 1113 2906 1747 
Q 2906 2381 2643 2742 
Q 2381 3103 1925 3103 
Q 1469 3103 1208 2742 
Q 947 2381 947 1747 
z
" transform="scale(0.015625)"/>
      </defs>
      <use xlink:href="#DejaVuSans-Oblique-68" transform="translate(0 0.015625)"/>
      <use xlink:href="#DejaVuSans-28" transform="translate(63.378906 0.015625)"/>
      <use xlink:href="#DejaVuSans-Oblique-74" transform="translate(102.392578 0.015625)"/>
      <use xlink:href="#DejaVuSans-29" transform="translate(141.601562 0.015625)"/>
      <use xlink:href="#DejaVuSans-20" transform="translate(180.615234 0.015625)"/>
      <use xlink:href="#DejaVuSans-77" transform="translate(212.402344 0.015625)"/>
      <use xlink:href="#DejaVuSans-69" transform="translate(294.189453 0.015625)"/>
      <use xlink:href="#DejaVuSans-74" transform="translate(321.972656 0.015625)"/>
      <use xlink:href="#DejaVuSans-68" transform="translate(361.181641 0.015625)"/>
      <use xlink:href="#DejaVuSans-20" transform="translate(424.560547 0.015625)"/>
      <use xlink:href="#DejaVuSans-Oblique-3c4" transform="translate(456.347656 0.015625)"/>
      <use xlink:href="#DejaVuSans-3d" transform="translate(536.035156 0.015625)"/>
      <use xlink:href="#DejaVuSans-37" transform="translate(639.306641 0.015625)"/>
      <use xlink:href="#DejaVuSans-Oblique-6d" transform="translate(693.804688 0.015625)"/>
      <use xlink:href="#DejaVuSans-Oblique-73" transform="translate(791.216797 0.015625)"/>
      <use xlink:href="#DejaVuSans-20" transform="translate(843.316406 0.015625)"/>
      <use xlink:href="#DejaVuSans-61" transform="translate(875.103516 0.015625)"/>
      <use xlink:href="#DejaVuSans-6e" transform="translate(936.382812 0.015625)"/>
      <use xlink:href="#DejaVuSans-64" transform="translate(999.761719 0.015625)"/>
      <use xlink:href="#DejaVuSans-20" transform="translate(1063.238281 0.015625)"/>
      <use xlink:href="#DejaVuSans-6e" transform="translate(1095.025391 0.015625)"/>
      <use xlink:href="#DejaVuSans-3d" transform="translate(1158.404297 0.015625)"/>
      <use xlink:href="#DejaVuSans-30" transform="translate(1242.193359 0.015625)"/>
     </g>
    </g>
   </g>
  </g>
  <g id="axes_2">
   <g id="patch_8">
    <path d="M 33.2875 167.074376 
L 408.35 167.074376 
L 408.35 117.805624 
L 33.2875 117.805624 
z
" style="fill: #ffffff"/>
   </g>
   <g id="matplotlib.axis_3">
    <g id="xtick_7">
     <g id="line2d_11">
      <g>
       <use xlink:href="#m43347b50ce" x="33.2875" y="167.074376" style="stroke: #000000; stroke-width: 0.8"/>
      </g>
     </g>
     <g id="text_10">
      <!-- 0.00 -->
      <g transform="translate(22.154688 181.672814) scale(0.1 -0.1)">
       <use xlink:href="#DejaVuSans-30"/>
       <use xlink:href="#DejaVuSans-2e" x="63.623047"/>
       <use xlink:href="#DejaVuSans-30" x="95.410156"/>
       <use xlink:href="#DejaVuSans-30" x="159.033203"/>
      </g>
     </g>
    </g>
    <g id="xtick_8">
     <g id="line2d_12">
      <g>
       <use xlink:href="#m43347b50ce" x="108.3" y="167.074376" style="stroke: #000000; stroke-width: 0.8"/>
      </g>
     </g>
     <g id="text_11">
      <!-- 0.02 -->
      <g transform="translate(97.167188 181.672814) scale(0.1 -0.1)">
       <use xlink:href="#DejaVuSans-30"/>
       <use xlink:href="#DejaVuSans-2e" x="63.623047"/>
       <use xlink:href="#DejaVuSans-30" x="95.410156"/>
       <use xlink:href="#DejaVuSans-32" x="159.033203"/>
      </g>
     </g>
    </g>
    <g id="xtick_9">
     <g id="line2d_13">
      <g>
       <use xlink:href="#m43347b50ce" x="183.3125" y="167.074376" style="stroke: #000000; stroke-width: 0.8"/>
      </g>
     </g>
     <g id="text_12">
      <!-- 0.04 -->
      <g transform="translate(172.179688 181.672814) scale(0.1 -0.1)">
       <use xlink:href="#DejaVuSans-30"/>
       <use xlink:href="#DejaVuSans-2e" x="63.623047"/>
       <use xlink:href="#DejaVuSans-30" x="95.410156"/>
       <use xlink:href="#DejaVuSans-34" x="159.033203"/>
      </g>
     </g>
    </g>
    <g id="xtick_10">
     <g id="line2d_14">
      <g>
       <use xlink:href="#m43347b50ce" x="258.325" y="167.074376" style="stroke: #000000; stroke-width: 0.8"/>
      </g>
     </g>
     <g id="text_13">
      <!-- 0.06 -->
      <g transform="translate(247.192187 181.672814) scale(0.1 -0.1)">
       <use xlink:href="#DejaVuSans-30"/>
       <use xlink:href="#DejaVuSans-2e" x="63.623047"/>
       <use xlink:href="#DejaVuSans-30" x="95.410156"/>
       <use xlink:href="#DejaVuSans-36" x="159.033203"/>
      </g>
     </g>
    </g>
    <g id="xtick_11">
     <g id="line2d_15">
      <g>
       <use xlink:href="#m43347b50ce" x="333.3375" y="167.074376" style="stroke: #000000; stroke-width: 0.8"/>
      </g>
     </g>
     <g id="text_14">
      <!-- 0.08 -->
      <g transform="translate(322.204688 181.672814) scale(0.1 -0.1)">
       <use xlink:href="#DejaVuSans-30"/>
       <use xlink:href="#DejaVuSans-2e" x="63.623047"/>
       <use xlink:href="#DejaVuSans-30" x="95.410156"/>
       <use xlink:href="#DejaVuSans-38" x="159.033203"/>
      </g>
     </g>
    </g>
    <g id="xtick_12">
     <g id="line2d_16">
      <g>
       <use xlink:href="#m43347b50ce" x="408.35" y="167.074376" style="stroke: #000000; stroke-width: 0.8"/>
      </g>
     </g>
     <g id="text_15">
      <!-- 0.10 -->
      <g transform="translate(397.217188 181.672814) scale(0.1 -0.1)">
       <use xlink:href="#DejaVuSans-30"/>
       <use xlink:href="#DejaVuSans-2e" x="63.623047"/>
       <use xlink:href="#DejaVuSans-31" x="95.410156"/>
       <use xlink:href="#DejaVuSans-30" x="159.033203"/>
      </g>
     </g>
    </g>
   </g>
   <g id="matplotlib.axis_4">
    <g id="ytick_3">
     <g id="line2d_17">
      <g>
       <use xlink:href="#m2358b58b1c" x="33.2875" y="164.834887" style="stroke: #000000; stroke-width: 0.8"/>
      </g>
     </g>
     <g id="text_16">
      <!-- 0 -->
      <g transform="translate(19.925 168.634106) scale(0.1 -0.1)">
       <use xlink:href="#DejaVuSans-30"/>
      </g>
     </g>
    </g>
    <g id="ytick_4">
     <g id="line2d_18">
      <g>
       <use xlink:href="#m2358b58b1c" x="33.2875" y="122.294354" style="stroke: #000000; stroke-width: 0.8"/>
      </g>
     </g>
     <g id="text_17">
      <!-- 50 -->
      <g transform="translate(13.5625 126.093572) scale(0.1 -0.1)">
       <defs>
        <path id="DejaVuSans-35" d="M 691 4666 
L 3169 4666 
L 3169 4134 
L 1269 4134 
L 1269 2991 
Q 1406 3038 1543 3061 
Q 1681 3084 1819 3084 
Q 2600 3084 3056 2656 
Q 3513 2228 3513 1497 
Q 3513 744 3044 326 
Q 2575 -91 1722 -91 
Q 1428 -91 1123 -41 
Q 819 9 494 109 
L 494 744 
Q 775 591 1075 516 
Q 1375 441 1709 441 
Q 2250 441 2565 725 
Q 2881 1009 2881 1497 
Q 2881 1984 2565 2268 
Q 2250 2553 1709 2553 
Q 1456 2553 1204 2497 
Q 953 2441 691 2322 
L 691 4666 
z
" transform="scale(0.015625)"/>
       </defs>
       <use xlink:href="#DejaVuSans-35"/>
       <use xlink:href="#DejaVuSans-30" x="63.623047"/>
      </g>
     </g>
    </g>
   </g>
   <g id="line2d_19">
    <path d="M 33.2875 164.834887 
L 37.038125 149.757251 
L 40.78875 138.693949 
L 44.539375 130.843384 
L 48.29 125.546244 
L 52.040625 122.261816 
L 55.79125 120.548102 
L 59.541875 120.045113 
L 63.2925 120.460869 
L 67.043125 121.559675 
L 70.79375 123.152304 
L 74.544375 125.087806 
L 78.295 127.246669 
L 82.045625 129.535125 
L 85.79625 131.880413 
L 89.546875 134.226846 
L 93.2975 136.532557 
L 97.048125 138.766806 
L 100.79875 140.907759 
L 104.549375 142.940661 
L 108.3 144.856339 
L 112.050625 146.649977 
L 115.80125 148.320119 
L 119.551875 149.867859 
L 123.3025 151.296189 
L 127.053125 152.609472 
L 130.80375 153.813028 
L 134.554375 154.912796 
L 138.305 155.915081 
L 142.055625 156.826348 
L 145.80625 157.653067 
L 149.556875 158.401601 
L 153.3075 159.078114 
L 157.058125 159.688518 
L 160.80875 160.238423 
L 164.559375 160.733121 
L 168.31 161.177564 
L 172.060625 161.576367 
L 175.81125 161.933803 
L 179.561875 162.253821 
L 183.3125 162.540047 
L 187.063125 162.795807 
L 190.81375 163.024141 
L 194.564375 163.227817 
L 198.315 163.409355 
L 202.065625 163.57104 
L 205.81625 163.714939 
L 209.566875 163.842923 
L 213.3175 163.95668 
L 217.068125 164.057728 
L 220.81875 164.147436 
L 224.569375 164.227032 
L 228.32 164.297619 
L 232.070625 164.360185 
L 235.82125 164.415614 
L 239.571875 164.464698 
L 243.3225 164.508143 
L 247.073125 164.546582 
L 250.82375 164.580577 
L 254.574375 164.610631 
L 258.325 164.637189 
L 262.075625 164.660651 
L 265.82625 164.68137 
L 269.576875 164.69966 
L 273.3275 164.715801 
L 277.078125 164.730041 
L 280.82875 164.7426 
L 284.579375 164.753673 
L 288.33 164.763434 
L 292.080625 164.772035 
L 295.83125 164.779612 
L 299.581875 164.786286 
L 303.3325 164.792163 
L 307.083125 164.797336 
L 310.83375 164.801889 
L 314.584375 164.805895 
L 318.335 164.80942 
L 322.085625 164.812519 
L 325.83625 164.815245 
L 329.586875 164.817642 
L 333.3375 164.819748 
L 337.088125 164.8216 
L 340.83875 164.823226 
L 344.589375 164.824655 
L 348.34 164.825911 
L 352.090625 164.827013 
L 355.84125 164.827981 
L 359.591875 164.828831 
L 363.3425 164.829577 
L 367.093125 164.830231 
L 370.84375 164.830806 
L 374.594375 164.83131 
L 378.345 164.831752 
L 382.095625 164.83214 
L 385.84625 164.83248 
L 389.596875 164.832778 
L 393.3475 164.83304 
L 397.098125 164.833269 
L 400.84875 164.83347 
L 404.599375 164.833646 
L 408.35 164.8338 
L 412.100625 164.833936 
" clip-path="url(#pfb519bd931)" style="fill: none; stroke: #1f77b4; stroke-width: 1.5; stroke-linecap: square"/>
   </g>
   <g id="patch_9">
    <path d="M 33.2875 167.074376 
L 33.2875 117.805624 
" style="fill: none; stroke: #000000; stroke-width: 0.8; stroke-linejoin: miter; stroke-linecap: square"/>
   </g>
   <g id="patch_10">
    <path d="M 408.35 167.074376 
L 408.35 117.805624 
" style="fill: none; stroke: #000000; stroke-width: 0.8; stroke-linejoin: miter; stroke-linecap: square"/>
   </g>
   <g id="patch_11">
    <path d="M 33.2875 167.074376 
L 408.35 167.074376 
" style="fill: none; stroke: #000000; stroke-width: 0.8; stroke-linejoin: miter; stroke-linecap: square"/>
   </g>
   <g id="patch_12">
    <path d="M 33.2875 117.805624 
L 408.35 117.805624 
" style="fill: none; stroke: #000000; stroke-width: 0.8; stroke-linejoin: miter; stroke-linecap: square"/>
   </g>
   <g id="legend_2">
    <g id="patch_13">
     <path d="M 238.75 140.483749 
L 401.35 140.483749 
Q 403.35 140.483749 403.35 138.483749 
L 403.35 124.805624 
Q 403.35 122.805624 401.35 122.805624 
L 238.75 122.805624 
Q 236.75 122.805624 236.75 124.805624 
L 236.75 138.483749 
Q 236.75 140.483749 238.75 140.483749 
z
" style="fill: #ffffff; opacity: 0.8; stroke: #cccccc; stroke-linejoin: miter"/>
    </g>
    <g id="line2d_20">
     <path d="M 240.75 130.904061 
L 250.75 130.904061 
L 260.75 130.904061 
" style="fill: none; stroke: #1f77b4; stroke-width: 1.5; stroke-linecap: square"/>
    </g>
    <g id="text_18">
     <!-- $h(t)$ with $\tau=7ms$ and n=1 -->
     <g transform="translate(268.75 134.404061) scale(0.1 -0.1)">
      <use xlink:href="#DejaVuSans-Oblique-68" transform="translate(0 0.015625)"/>
      <use xlink:href="#DejaVuSans-28" transform="translate(63.378906 0.015625)"/>
      <use xlink:href="#DejaVuSans-Oblique-74" transform="translate(102.392578 0.015625)"/>
      <use xlink:href="#DejaVuSans-29" transform="translate(141.601562 0.015625)"/>
      <use xlink:href="#DejaVuSans-20" transform="translate(180.615234 0.015625)"/>
      <use xlink:href="#DejaVuSans-77" transform="translate(212.402344 0.015625)"/>
      <use xlink:href="#DejaVuSans-69" transform="translate(294.189453 0.015625)"/>
      <use xlink:href="#DejaVuSans-74" transform="translate(321.972656 0.015625)"/>
      <use xlink:href="#DejaVuSans-68" transform="translate(361.181641 0.015625)"/>
      <use xlink:href="#DejaVuSans-20" transform="translate(424.560547 0.015625)"/>
      <use xlink:href="#DejaVuSans-Oblique-3c4" transform="translate(456.347656 0.015625)"/>
      <use xlink:href="#DejaVuSans-3d" transform="translate(536.035156 0.015625)"/>
      <use xlink:href="#DejaVuSans-37" transform="translate(639.306641 0.015625)"/>
      <use xlink:href="#DejaVuSans-Oblique-6d" transform="translate(693.804688 0.015625)"/>
      <use xlink:href="#DejaVuSans-Oblique-73" transform="translate(791.216797 0.015625)"/>
      <use xlink:href="#DejaVuSans-20" transform="translate(843.316406 0.015625)"/>
      <use xlink:href="#DejaVuSans-61" transform="translate(875.103516 0.015625)"/>
      <use xlink:href="#DejaVuSans-6e" transform="translate(936.382812 0.015625)"/>
      <use xlink:href="#DejaVuSans-64" transform="translate(999.761719 0.015625)"/>
      <use xlink:href="#DejaVuSans-20" transform="translate(1063.238281 0.015625)"/>
      <use xlink:href="#DejaVuSans-6e" transform="translate(1095.025391 0.015625)"/>
      <use xlink:href="#DejaVuSans-3d" transform="translate(1158.404297 0.015625)"/>
      <use xlink:href="#DejaVuSans-31" transform="translate(1242.193359 0.015625)"/>
     </g>
    </g>
   </g>
  </g>
  <g id="axes_3">
   <g id="patch_14">
    <path d="M 33.2875 246.44 
L 408.35 246.44 
L 408.35 197.171248 
L 33.2875 197.171248 
z
" style="fill: #ffffff"/>
   </g>
   <g id="matplotlib.axis_5">
    <g id="xtick_13">
     <g id="line2d_21">
      <g>
       <use xlink:href="#m43347b50ce" x="33.2875" y="246.44" style="stroke: #000000; stroke-width: 0.8"/>
      </g>
     </g>
     <g id="text_19">
      <!-- 0.00 -->
      <g transform="translate(22.154688 261.038438) scale(0.1 -0.1)">
       <use xlink:href="#DejaVuSans-30"/>
       <use xlink:href="#DejaVuSans-2e" x="63.623047"/>
       <use xlink:href="#DejaVuSans-30" x="95.410156"/>
       <use xlink:href="#DejaVuSans-30" x="159.033203"/>
      </g>
     </g>
    </g>
    <g id="xtick_14">
     <g id="line2d_22">
      <g>
       <use xlink:href="#m43347b50ce" x="108.3" y="246.44" style="stroke: #000000; stroke-width: 0.8"/>
      </g>
     </g>
     <g id="text_20">
      <!-- 0.02 -->
      <g transform="translate(97.167188 261.038438) scale(0.1 -0.1)">
       <use xlink:href="#DejaVuSans-30"/>
       <use xlink:href="#DejaVuSans-2e" x="63.623047"/>
       <use xlink:href="#DejaVuSans-30" x="95.410156"/>
       <use xlink:href="#DejaVuSans-32" x="159.033203"/>
      </g>
     </g>
    </g>
    <g id="xtick_15">
     <g id="line2d_23">
      <g>
       <use xlink:href="#m43347b50ce" x="183.3125" y="246.44" style="stroke: #000000; stroke-width: 0.8"/>
      </g>
     </g>
     <g id="text_21">
      <!-- 0.04 -->
      <g transform="translate(172.179688 261.038438) scale(0.1 -0.1)">
       <use xlink:href="#DejaVuSans-30"/>
       <use xlink:href="#DejaVuSans-2e" x="63.623047"/>
       <use xlink:href="#DejaVuSans-30" x="95.410156"/>
       <use xlink:href="#DejaVuSans-34" x="159.033203"/>
      </g>
     </g>
    </g>
    <g id="xtick_16">
     <g id="line2d_24">
      <g>
       <use xlink:href="#m43347b50ce" x="258.325" y="246.44" style="stroke: #000000; stroke-width: 0.8"/>
      </g>
     </g>
     <g id="text_22">
      <!-- 0.06 -->
      <g transform="translate(247.192187 261.038438) scale(0.1 -0.1)">
       <use xlink:href="#DejaVuSans-30"/>
       <use xlink:href="#DejaVuSans-2e" x="63.623047"/>
       <use xlink:href="#DejaVuSans-30" x="95.410156"/>
       <use xlink:href="#DejaVuSans-36" x="159.033203"/>
      </g>
     </g>
    </g>
    <g id="xtick_17">
     <g id="line2d_25">
      <g>
       <use xlink:href="#m43347b50ce" x="333.3375" y="246.44" style="stroke: #000000; stroke-width: 0.8"/>
      </g>
     </g>
     <g id="text_23">
      <!-- 0.08 -->
      <g transform="translate(322.204688 261.038438) scale(0.1 -0.1)">
       <use xlink:href="#DejaVuSans-30"/>
       <use xlink:href="#DejaVuSans-2e" x="63.623047"/>
       <use xlink:href="#DejaVuSans-30" x="95.410156"/>
       <use xlink:href="#DejaVuSans-38" x="159.033203"/>
      </g>
     </g>
    </g>
    <g id="xtick_18">
     <g id="line2d_26">
      <g>
       <use xlink:href="#m43347b50ce" x="408.35" y="246.44" style="stroke: #000000; stroke-width: 0.8"/>
      </g>
     </g>
     <g id="text_24">
      <!-- 0.10 -->
      <g transform="translate(397.217188 261.038438) scale(0.1 -0.1)">
       <use xlink:href="#DejaVuSans-30"/>
       <use xlink:href="#DejaVuSans-2e" x="63.623047"/>
       <use xlink:href="#DejaVuSans-31" x="95.410156"/>
       <use xlink:href="#DejaVuSans-30" x="159.033203"/>
      </g>
     </g>
    </g>
    <g id="text_25">
     <!-- $t$ -->
     <g transform="translate(218.81875 274.716563) scale(0.1 -0.1)">
      <use xlink:href="#DejaVuSans-Oblique-74" transform="translate(0 0.78125)"/>
     </g>
    </g>
   </g>
   <g id="matplotlib.axis_6">
    <g id="ytick_5">
     <g id="line2d_27">
      <g>
       <use xlink:href="#m2358b58b1c" x="33.2875" y="244.200511" style="stroke: #000000; stroke-width: 0.8"/>
      </g>
     </g>
     <g id="text_26">
      <!-- 0 -->
      <g transform="translate(19.925 247.99973) scale(0.1 -0.1)">
       <use xlink:href="#DejaVuSans-30"/>
      </g>
     </g>
    </g>
    <g id="ytick_6">
     <g id="line2d_28">
      <g>
       <use xlink:href="#m2358b58b1c" x="33.2875" y="215.242073" style="stroke: #000000; stroke-width: 0.8"/>
      </g>
     </g>
     <g id="text_27">
      <!-- 25 -->
      <g transform="translate(13.5625 219.041291) scale(0.1 -0.1)">
       <use xlink:href="#DejaVuSans-32"/>
       <use xlink:href="#DejaVuSans-35" x="63.623047"/>
      </g>
     </g>
    </g>
   </g>
   <g id="line2d_29">
    <path d="M 33.2875 244.200511 
L 37.038125 242.736752 
L 40.78875 239.124909 
L 44.539375 234.300674 
L 48.29 228.94371 
L 52.040625 223.535225 
L 55.79125 218.403948 
L 59.541875 213.762704 
L 63.2925 209.737344 
L 67.043125 206.389511 
L 70.79375 203.734436 
L 74.544375 201.754745 
L 78.295 200.411067 
L 82.045625 199.650114 
L 85.79625 199.410737 
L 89.546875 199.628395 
L 93.2975 200.238391 
L 97.048125 201.17813 
L 100.79875 202.388646 
L 104.549375 203.815551 
L 108.3 205.409564 
L 112.050625 207.126727 
L 115.80125 208.928387 
L 119.551875 210.781018 
L 123.3025 212.655942 
L 127.053125 214.528973 
L 130.80375 216.380028 
L 134.554375 218.192722 
L 138.305 219.953964 
L 142.055625 221.653563 
L 145.80625 223.283857 
L 149.556875 224.839367 
L 153.3075 226.316476 
L 157.058125 227.713141 
L 160.80875 229.028636 
L 164.559375 230.263314 
L 168.31 231.418409 
L 172.060625 232.495855 
L 175.81125 233.498132 
L 179.561875 234.428132 
L 183.3125 235.289048 
L 187.063125 236.084275 
L 190.81375 236.817331 
L 194.564375 237.49179 
L 198.315 238.111229 
L 202.065625 238.679181 
L 205.81625 239.199103 
L 209.566875 239.674348 
L 213.3175 240.108141 
L 217.068125 240.50357 
L 220.81875 240.863572 
L 224.569375 241.190926 
L 228.32 241.488254 
L 232.070625 241.758015 
L 235.82125 242.002512 
L 239.571875 242.22389 
L 243.3225 242.424147 
L 247.073125 242.605133 
L 250.82375 242.768562 
L 254.574375 242.916012 
L 258.325 243.048942 
L 262.075625 243.168688 
L 265.82625 243.27648 
L 269.576875 243.373441 
L 273.3275 243.460601 
L 277.078125 243.538898 
L 280.82875 243.609191 
L 284.579375 243.672257 
L 288.33 243.728808 
L 292.080625 243.779487 
L 295.83125 243.824879 
L 299.581875 243.865514 
L 303.3325 243.901871 
L 307.083125 243.934386 
L 310.83375 243.963449 
L 314.584375 243.989416 
L 318.335 244.012605 
L 322.085625 244.033304 
L 325.83625 244.051774 
L 329.586875 244.068247 
L 333.3375 244.082933 
L 337.088125 244.096021 
L 340.83875 244.107681 
L 344.589375 244.118064 
L 348.34 244.127307 
L 352.090625 244.135532 
L 355.84125 244.142849 
L 359.591875 244.149356 
L 363.3425 244.155141 
L 367.093125 244.160281 
L 370.84375 244.164849 
L 374.594375 244.168906 
L 378.345 244.172507 
L 382.095625 244.175705 
L 385.84625 244.178542 
L 389.596875 244.181059 
L 393.3475 244.183292 
L 397.098125 244.185272 
L 400.84875 244.187027 
L 404.599375 244.188582 
L 408.35 244.18996 
L 412.100625 244.191181 
" clip-path="url(#p83369dbb51)" style="fill: none; stroke: #1f77b4; stroke-width: 1.5; stroke-linecap: square"/>
   </g>
   <g id="patch_15">
    <path d="M 33.2875 246.44 
L 33.2875 197.171248 
" style="fill: none; stroke: #000000; stroke-width: 0.8; stroke-linejoin: miter; stroke-linecap: square"/>
   </g>
   <g id="patch_16">
    <path d="M 408.35 246.44 
L 408.35 197.171248 
" style="fill: none; stroke: #000000; stroke-width: 0.8; stroke-linejoin: miter; stroke-linecap: square"/>
   </g>
   <g id="patch_17">
    <path d="M 33.2875 246.44 
L 408.35 246.44 
" style="fill: none; stroke: #000000; stroke-width: 0.8; stroke-linejoin: miter; stroke-linecap: square"/>
   </g>
   <g id="patch_18">
    <path d="M 33.2875 197.171248 
L 408.35 197.171248 
" style="fill: none; stroke: #000000; stroke-width: 0.8; stroke-linejoin: miter; stroke-linecap: square"/>
   </g>
   <g id="legend_3">
    <g id="patch_19">
     <path d="M 238.75 219.849373 
L 401.35 219.849373 
Q 403.35 219.849373 403.35 217.849373 
L 403.35 204.171248 
Q 403.35 202.171248 401.35 202.171248 
L 238.75 202.171248 
Q 236.75 202.171248 236.75 204.171248 
L 236.75 217.849373 
Q 236.75 219.849373 238.75 219.849373 
z
" style="fill: #ffffff; opacity: 0.8; stroke: #cccccc; stroke-linejoin: miter"/>
    </g>
    <g id="line2d_30">
     <path d="M 240.75 210.269685 
L 250.75 210.269685 
L 260.75 210.269685 
" style="fill: none; stroke: #1f77b4; stroke-width: 1.5; stroke-linecap: square"/>
    </g>
    <g id="text_28">
     <!-- $h(t)$ with $\tau=7ms$ and n=2 -->
     <g transform="translate(268.75 213.769685) scale(0.1 -0.1)">
      <use xlink:href="#DejaVuSans-Oblique-68" transform="translate(0 0.015625)"/>
      <use xlink:href="#DejaVuSans-28" transform="translate(63.378906 0.015625)"/>
      <use xlink:href="#DejaVuSans-Oblique-74" transform="translate(102.392578 0.015625)"/>
      <use xlink:href="#DejaVuSans-29" transform="translate(141.601562 0.015625)"/>
      <use xlink:href="#DejaVuSans-20" transform="translate(180.615234 0.015625)"/>
      <use xlink:href="#DejaVuSans-77" transform="translate(212.402344 0.015625)"/>
      <use xlink:href="#DejaVuSans-69" transform="translate(294.189453 0.015625)"/>
      <use xlink:href="#DejaVuSans-74" transform="translate(321.972656 0.015625)"/>
      <use xlink:href="#DejaVuSans-68" transform="translate(361.181641 0.015625)"/>
      <use xlink:href="#DejaVuSans-20" transform="translate(424.560547 0.015625)"/>
      <use xlink:href="#DejaVuSans-Oblique-3c4" transform="translate(456.347656 0.015625)"/>
      <use xlink:href="#DejaVuSans-3d" transform="translate(536.035156 0.015625)"/>
      <use xlink:href="#DejaVuSans-37" transform="translate(639.306641 0.015625)"/>
      <use xlink:href="#DejaVuSans-Oblique-6d" transform="translate(693.804688 0.015625)"/>
      <use xlink:href="#DejaVuSans-Oblique-73" transform="translate(791.216797 0.015625)"/>
      <use xlink:href="#DejaVuSans-20" transform="translate(843.316406 0.015625)"/>
      <use xlink:href="#DejaVuSans-61" transform="translate(875.103516 0.015625)"/>
      <use xlink:href="#DejaVuSans-6e" transform="translate(936.382812 0.015625)"/>
      <use xlink:href="#DejaVuSans-64" transform="translate(999.761719 0.015625)"/>
      <use xlink:href="#DejaVuSans-20" transform="translate(1063.238281 0.015625)"/>
      <use xlink:href="#DejaVuSans-6e" transform="translate(1095.025391 0.015625)"/>
      <use xlink:href="#DejaVuSans-3d" transform="translate(1158.404297 0.015625)"/>
      <use xlink:href="#DejaVuSans-32" transform="translate(1242.193359 0.015625)"/>
     </g>
    </g>
   </g>
  </g>
  <g id="text_29">
   <!-- Normalized post-synaptic filter $h(t)$ with $n=0,1,2$ -->
   <g transform="translate(62.9925 16.32) scale(0.12 -0.12)">
    <defs>
     <path id="DejaVuSans-4e" d="M 628 4666 
L 1478 4666 
L 3547 763 
L 3547 4666 
L 4159 4666 
L 4159 0 
L 3309 0 
L 1241 3903 
L 1241 0 
L 628 0 
L 628 4666 
z
" transform="scale(0.015625)"/>
     <path id="DejaVuSans-6f" d="M 1959 3097 
Q 1497 3097 1228 2736 
Q 959 2375 959 1747 
Q 959 1119 1226 758 
Q 1494 397 1959 397 
Q 2419 397 2687 759 
Q 2956 1122 2956 1747 
Q 2956 2369 2687 2733 
Q 2419 3097 1959 3097 
z
M 1959 3584 
Q 2709 3584 3137 3096 
Q 3566 2609 3566 1747 
Q 3566 888 3137 398 
Q 2709 -91 1959 -91 
Q 1206 -91 779 398 
Q 353 888 353 1747 
Q 353 2609 779 3096 
Q 1206 3584 1959 3584 
z
" transform="scale(0.015625)"/>
     <path id="DejaVuSans-72" d="M 2631 2963 
Q 2534 3019 2420 3045 
Q 2306 3072 2169 3072 
Q 1681 3072 1420 2755 
Q 1159 2438 1159 1844 
L 1159 0 
L 581 0 
L 581 3500 
L 1159 3500 
L 1159 2956 
Q 1341 3275 1631 3429 
Q 1922 3584 2338 3584 
Q 2397 3584 2469 3576 
Q 2541 3569 2628 3553 
L 2631 2963 
z
" transform="scale(0.015625)"/>
     <path id="DejaVuSans-6d" d="M 3328 2828 
Q 3544 3216 3844 3400 
Q 4144 3584 4550 3584 
Q 5097 3584 5394 3201 
Q 5691 2819 5691 2113 
L 5691 0 
L 5113 0 
L 5113 2094 
Q 5113 2597 4934 2840 
Q 4756 3084 4391 3084 
Q 3944 3084 3684 2787 
Q 3425 2491 3425 1978 
L 3425 0 
L 2847 0 
L 2847 2094 
Q 2847 2600 2669 2842 
Q 2491 3084 2119 3084 
Q 1678 3084 1418 2786 
Q 1159 2488 1159 1978 
L 1159 0 
L 581 0 
L 581 3500 
L 1159 3500 
L 1159 2956 
Q 1356 3278 1631 3431 
Q 1906 3584 2284 3584 
Q 2666 3584 2933 3390 
Q 3200 3197 3328 2828 
z
" transform="scale(0.015625)"/>
     <path id="DejaVuSans-6c" d="M 603 4863 
L 1178 4863 
L 1178 0 
L 603 0 
L 603 4863 
z
" transform="scale(0.015625)"/>
     <path id="DejaVuSans-7a" d="M 353 3500 
L 3084 3500 
L 3084 2975 
L 922 459 
L 3084 459 
L 3084 0 
L 275 0 
L 275 525 
L 2438 3041 
L 353 3041 
L 353 3500 
z
" transform="scale(0.015625)"/>
     <path id="DejaVuSans-65" d="M 3597 1894 
L 3597 1613 
L 953 1613 
Q 991 1019 1311 708 
Q 1631 397 2203 397 
Q 2534 397 2845 478 
Q 3156 559 3463 722 
L 3463 178 
Q 3153 47 2828 -22 
Q 2503 -91 2169 -91 
Q 1331 -91 842 396 
Q 353 884 353 1716 
Q 353 2575 817 3079 
Q 1281 3584 2069 3584 
Q 2775 3584 3186 3129 
Q 3597 2675 3597 1894 
z
M 3022 2063 
Q 3016 2534 2758 2815 
Q 2500 3097 2075 3097 
Q 1594 3097 1305 2825 
Q 1016 2553 972 2059 
L 3022 2063 
z
" transform="scale(0.015625)"/>
     <path id="DejaVuSans-70" d="M 1159 525 
L 1159 -1331 
L 581 -1331 
L 581 3500 
L 1159 3500 
L 1159 2969 
Q 1341 3281 1617 3432 
Q 1894 3584 2278 3584 
Q 2916 3584 3314 3078 
Q 3713 2572 3713 1747 
Q 3713 922 3314 415 
Q 2916 -91 2278 -91 
Q 1894 -91 1617 61 
Q 1341 213 1159 525 
z
M 3116 1747 
Q 3116 2381 2855 2742 
Q 2594 3103 2138 3103 
Q 1681 3103 1420 2742 
Q 1159 2381 1159 1747 
Q 1159 1113 1420 752 
Q 1681 391 2138 391 
Q 2594 391 2855 752 
Q 3116 1113 3116 1747 
z
" transform="scale(0.015625)"/>
     <path id="DejaVuSans-73" d="M 2834 3397 
L 2834 2853 
Q 2591 2978 2328 3040 
Q 2066 3103 1784 3103 
Q 1356 3103 1142 2972 
Q 928 2841 928 2578 
Q 928 2378 1081 2264 
Q 1234 2150 1697 2047 
L 1894 2003 
Q 2506 1872 2764 1633 
Q 3022 1394 3022 966 
Q 3022 478 2636 193 
Q 2250 -91 1575 -91 
Q 1294 -91 989 -36 
Q 684 19 347 128 
L 347 722 
Q 666 556 975 473 
Q 1284 391 1588 391 
Q 1994 391 2212 530 
Q 2431 669 2431 922 
Q 2431 1156 2273 1281 
Q 2116 1406 1581 1522 
L 1381 1569 
Q 847 1681 609 1914 
Q 372 2147 372 2553 
Q 372 3047 722 3315 
Q 1072 3584 1716 3584 
Q 2034 3584 2315 3537 
Q 2597 3491 2834 3397 
z
" transform="scale(0.015625)"/>
     <path id="DejaVuSans-2d" d="M 313 2009 
L 1997 2009 
L 1997 1497 
L 313 1497 
L 313 2009 
z
" transform="scale(0.015625)"/>
     <path id="DejaVuSans-79" d="M 2059 -325 
Q 1816 -950 1584 -1140 
Q 1353 -1331 966 -1331 
L 506 -1331 
L 506 -850 
L 844 -850 
Q 1081 -850 1212 -737 
Q 1344 -625 1503 -206 
L 1606 56 
L 191 3500 
L 800 3500 
L 1894 763 
L 2988 3500 
L 3597 3500 
L 2059 -325 
z
" transform="scale(0.015625)"/>
     <path id="DejaVuSans-63" d="M 3122 3366 
L 3122 2828 
Q 2878 2963 2633 3030 
Q 2388 3097 2138 3097 
Q 1578 3097 1268 2742 
Q 959 2388 959 1747 
Q 959 1106 1268 751 
Q 1578 397 2138 397 
Q 2388 397 2633 464 
Q 2878 531 3122 666 
L 3122 134 
Q 2881 22 2623 -34 
Q 2366 -91 2075 -91 
Q 1284 -91 818 406 
Q 353 903 353 1747 
Q 353 2603 823 3093 
Q 1294 3584 2113 3584 
Q 2378 3584 2631 3529 
Q 2884 3475 3122 3366 
z
" transform="scale(0.015625)"/>
     <path id="DejaVuSans-66" d="M 2375 4863 
L 2375 4384 
L 1825 4384 
Q 1516 4384 1395 4259 
Q 1275 4134 1275 3809 
L 1275 3500 
L 2222 3500 
L 2222 3053 
L 1275 3053 
L 1275 0 
L 697 0 
L 697 3053 
L 147 3053 
L 147 3500 
L 697 3500 
L 697 3744 
Q 697 4328 969 4595 
Q 1241 4863 1831 4863 
L 2375 4863 
z
" transform="scale(0.015625)"/>
     <path id="DejaVuSans-Oblique-6e" d="M 3566 2113 
L 3156 0 
L 2578 0 
L 2988 2091 
Q 3016 2238 3031 2350 
Q 3047 2463 3047 2528 
Q 3047 2791 2881 2937 
Q 2716 3084 2419 3084 
Q 1956 3084 1622 2776 
Q 1288 2469 1184 1941 
L 800 0 
L 225 0 
L 903 3500 
L 1478 3500 
L 1363 2950 
Q 1603 3253 1940 3418 
Q 2278 3584 2650 3584 
Q 3113 3584 3367 3334 
Q 3622 3084 3622 2631 
Q 3622 2519 3608 2391 
Q 3594 2263 3566 2113 
z
" transform="scale(0.015625)"/>
     <path id="DejaVuSans-2c" d="M 750 794 
L 1409 794 
L 1409 256 
L 897 -744 
L 494 -744 
L 750 256 
L 750 794 
z
" transform="scale(0.015625)"/>
    </defs>
    <use xlink:href="#DejaVuSans-4e" transform="translate(0 0.015625)"/>
    <use xlink:href="#DejaVuSans-6f" transform="translate(74.804688 0.015625)"/>
    <use xlink:href="#DejaVuSans-72" transform="translate(135.986328 0.015625)"/>
    <use xlink:href="#DejaVuSans-6d" transform="translate(177.099609 0.015625)"/>
    <use xlink:href="#DejaVuSans-61" transform="translate(274.511719 0.015625)"/>
    <use xlink:href="#DejaVuSans-6c" transform="translate(335.791016 0.015625)"/>
    <use xlink:href="#DejaVuSans-69" transform="translate(363.574219 0.015625)"/>
    <use xlink:href="#DejaVuSans-7a" transform="translate(391.357422 0.015625)"/>
    <use xlink:href="#DejaVuSans-65" transform="translate(443.847656 0.015625)"/>
    <use xlink:href="#DejaVuSans-64" transform="translate(505.371094 0.015625)"/>
    <use xlink:href="#DejaVuSans-20" transform="translate(568.847656 0.015625)"/>
    <use xlink:href="#DejaVuSans-70" transform="translate(600.634766 0.015625)"/>
    <use xlink:href="#DejaVuSans-6f" transform="translate(664.111328 0.015625)"/>
    <use xlink:href="#DejaVuSans-73" transform="translate(725.292969 0.015625)"/>
    <use xlink:href="#DejaVuSans-74" transform="translate(777.392578 0.015625)"/>
    <use xlink:href="#DejaVuSans-2d" transform="translate(816.601562 0.015625)"/>
    <use xlink:href="#DejaVuSans-73" transform="translate(852.685547 0.015625)"/>
    <use xlink:href="#DejaVuSans-79" transform="translate(904.785156 0.015625)"/>
    <use xlink:href="#DejaVuSans-6e" transform="translate(963.964844 0.015625)"/>
    <use xlink:href="#DejaVuSans-61" transform="translate(1027.34375 0.015625)"/>
    <use xlink:href="#DejaVuSans-70" transform="translate(1088.623047 0.015625)"/>
    <use xlink:href="#DejaVuSans-74" transform="translate(1152.099609 0.015625)"/>
    <use xlink:href="#DejaVuSans-69" transform="translate(1191.308594 0.015625)"/>
    <use xlink:href="#DejaVuSans-63" transform="translate(1219.091797 0.015625)"/>
    <use xlink:href="#DejaVuSans-20" transform="translate(1274.072266 0.015625)"/>
    <use xlink:href="#DejaVuSans-66" transform="translate(1305.859375 0.015625)"/>
    <use xlink:href="#DejaVuSans-69" transform="translate(1341.064453 0.015625)"/>
    <use xlink:href="#DejaVuSans-6c" transform="translate(1368.847656 0.015625)"/>
    <use xlink:href="#DejaVuSans-74" transform="translate(1396.630859 0.015625)"/>
    <use xlink:href="#DejaVuSans-65" transform="translate(1435.839844 0.015625)"/>
    <use xlink:href="#DejaVuSans-72" transform="translate(1497.363281 0.015625)"/>
    <use xlink:href="#DejaVuSans-20" transform="translate(1538.476562 0.015625)"/>
    <use xlink:href="#DejaVuSans-Oblique-68" transform="translate(1570.263672 0.015625)"/>
    <use xlink:href="#DejaVuSans-28" transform="translate(1633.642578 0.015625)"/>
    <use xlink:href="#DejaVuSans-Oblique-74" transform="translate(1672.65625 0.015625)"/>
    <use xlink:href="#DejaVuSans-29" transform="translate(1711.865234 0.015625)"/>
    <use xlink:href="#DejaVuSans-20" transform="translate(1750.878906 0.015625)"/>
    <use xlink:href="#DejaVuSans-77" transform="translate(1782.666016 0.015625)"/>
    <use xlink:href="#DejaVuSans-69" transform="translate(1864.453125 0.015625)"/>
    <use xlink:href="#DejaVuSans-74" transform="translate(1892.236328 0.015625)"/>
    <use xlink:href="#DejaVuSans-68" transform="translate(1931.445312 0.015625)"/>
    <use xlink:href="#DejaVuSans-20" transform="translate(1994.824219 0.015625)"/>
    <use xlink:href="#DejaVuSans-Oblique-6e" transform="translate(2026.611328 0.015625)"/>
    <use xlink:href="#DejaVuSans-3d" transform="translate(2109.472656 0.015625)"/>
    <use xlink:href="#DejaVuSans-30" transform="translate(2212.744141 0.015625)"/>
    <use xlink:href="#DejaVuSans-2c" transform="translate(2276.367188 0.015625)"/>
    <use xlink:href="#DejaVuSans-31" transform="translate(2327.636719 0.015625)"/>
    <use xlink:href="#DejaVuSans-2c" transform="translate(2391.259766 0.015625)"/>
    <use xlink:href="#DejaVuSans-32" transform="translate(2442.529297 0.015625)"/>
   </g>
  </g>
 </g>
 <defs>
  <clipPath id="pad4742f4a4">
   <rect x="33.2875" y="38.44" width="375.0625" height="49.268752"/>
  </clipPath>
  <clipPath id="pfb519bd931">
   <rect x="33.2875" y="117.805624" width="375.0625" height="49.268752"/>
  </clipPath>
  <clipPath id="p83369dbb51">
   <rect x="33.2875" y="197.171248" width="375.0625" height="49.268752"/>
  </clipPath>
 </defs>
</svg>
