<?xml version="1.0" encoding="utf-8" standalone="no"?>
<!DOCTYPE svg PUBLIC "-//W3C//DTD SVG 1.1//EN"
  "http://www.w3.org/Graphics/SVG/1.1/DTD/svg11.dtd">
<svg xmlns:xlink="http://www.w3.org/1999/xlink" width="402.1125pt" height="290.99625pt" viewBox="0 0 402.1125 290.99625" xmlns="http://www.w3.org/2000/svg" version="1.1">
 <metadata>
  <rdf:RDF xmlns:dc="http://purl.org/dc/elements/1.1/" xmlns:cc="http://creativecommons.org/ns#" xmlns:rdf="http://www.w3.org/1999/02/22-rdf-syntax-ns#">
   <cc:Work>
    <dc:type rdf:resource="http://purl.org/dc/dcmitype/StillImage"/>
    <dc:date>2022-10-17T15:51:14.568855</dc:date>
    <dc:format>image/svg+xml</dc:format>
    <dc:creator>
     <cc:Agent>
      <dc:title>Matplotlib v3.6.0, https://matplotlib.org/</dc:title>
     </cc:Agent>
    </dc:creator>
   </cc:Work>
  </rdf:RDF>
 </metadata>
 <defs>
  <style type="text/css">*{stroke-linejoin: round; stroke-linecap: butt}</style>
 </defs>
 <g id="figure_1">
  <g id="patch_1">
   <path d="M 0 290.99625 
L 402.1125 290.99625 
L 402.1125 0 
L 0 0 
L 0 290.99625 
z
" style="fill: none"/>
  </g>
  <g id="axes_1">
   <g id="patch_2">
    <path d="M 52.160938 253.44 
L 386.960938 253.44 
L 386.960938 36 
L 52.160938 36 
z
" style="fill: #ffffff"/>
   </g>
   <g id="matplotlib.axis_1">
    <g id="xtick_1">
     <g id="line2d_1">
      <defs>
       <path id="m456803f56a" d="M 0 0 
L 0 3.5 
" style="stroke: #000000; stroke-width: 0.8"/>
      </defs>
      <g>
       <use xlink:href="#m456803f56a" x="52.160938" y="253.44" style="stroke: #000000; stroke-width: 0.8"/>
      </g>
     </g>
     <g id="text_1">
      <!-- 0.0 -->
      <g transform="translate(44.209375 268.038437) scale(0.1 -0.1)">
       <defs>
        <path id="DejaVuSans-30" d="M 2034 4250 
Q 1547 4250 1301 3770 
Q 1056 3291 1056 2328 
Q 1056 1369 1301 889 
Q 1547 409 2034 409 
Q 2525 409 2770 889 
Q 3016 1369 3016 2328 
Q 3016 3291 2770 3770 
Q 2525 4250 2034 4250 
z
M 2034 4750 
Q 2819 4750 3233 4129 
Q 3647 3509 3647 2328 
Q 3647 1150 3233 529 
Q 2819 -91 2034 -91 
Q 1250 -91 836 529 
Q 422 1150 422 2328 
Q 422 3509 836 4129 
Q 1250 4750 2034 4750 
z
" transform="scale(0.015625)"/>
        <path id="DejaVuSans-2e" d="M 684 794 
L 1344 794 
L 1344 0 
L 684 0 
L 684 794 
z
" transform="scale(0.015625)"/>
       </defs>
       <use xlink:href="#DejaVuSans-30"/>
       <use xlink:href="#DejaVuSans-2e" x="63.623047"/>
       <use xlink:href="#DejaVuSans-30" x="95.410156"/>
      </g>
     </g>
    </g>
    <g id="xtick_2">
     <g id="line2d_2">
      <g>
       <use xlink:href="#m456803f56a" x="119.120938" y="253.44" style="stroke: #000000; stroke-width: 0.8"/>
      </g>
     </g>
     <g id="text_2">
      <!-- 0.2 -->
      <g transform="translate(111.169375 268.038437) scale(0.1 -0.1)">
       <defs>
        <path id="DejaVuSans-32" d="M 1228 531 
L 3431 531 
L 3431 0 
L 469 0 
L 469 531 
Q 828 903 1448 1529 
Q 2069 2156 2228 2338 
Q 2531 2678 2651 2914 
Q 2772 3150 2772 3378 
Q 2772 3750 2511 3984 
Q 2250 4219 1831 4219 
Q 1534 4219 1204 4116 
Q 875 4013 500 3803 
L 500 4441 
Q 881 4594 1212 4672 
Q 1544 4750 1819 4750 
Q 2544 4750 2975 4387 
Q 3406 4025 3406 3419 
Q 3406 3131 3298 2873 
Q 3191 2616 2906 2266 
Q 2828 2175 2409 1742 
Q 1991 1309 1228 531 
z
" transform="scale(0.015625)"/>
       </defs>
       <use xlink:href="#DejaVuSans-30"/>
       <use xlink:href="#DejaVuSans-2e" x="63.623047"/>
       <use xlink:href="#DejaVuSans-32" x="95.410156"/>
      </g>
     </g>
    </g>
    <g id="xtick_3">
     <g id="line2d_3">
      <g>
       <use xlink:href="#m456803f56a" x="186.080938" y="253.44" style="stroke: #000000; stroke-width: 0.8"/>
      </g>
     </g>
     <g id="text_3">
      <!-- 0.4 -->
      <g transform="translate(178.129375 268.038437) scale(0.1 -0.1)">
       <defs>
        <path id="DejaVuSans-34" d="M 2419 4116 
L 825 1625 
L 2419 1625 
L 2419 4116 
z
M 2253 4666 
L 3047 4666 
L 3047 1625 
L 3713 1625 
L 3713 1100 
L 3047 1100 
L 3047 0 
L 2419 0 
L 2419 1100 
L 313 1100 
L 313 1709 
L 2253 4666 
z
" transform="scale(0.015625)"/>
       </defs>
       <use xlink:href="#DejaVuSans-30"/>
       <use xlink:href="#DejaVuSans-2e" x="63.623047"/>
       <use xlink:href="#DejaVuSans-34" x="95.410156"/>
      </g>
     </g>
    </g>
    <g id="xtick_4">
     <g id="line2d_4">
      <g>
       <use xlink:href="#m456803f56a" x="253.040938" y="253.44" style="stroke: #000000; stroke-width: 0.8"/>
      </g>
     </g>
     <g id="text_4">
      <!-- 0.6 -->
      <g transform="translate(245.089375 268.038437) scale(0.1 -0.1)">
       <defs>
        <path id="DejaVuSans-36" d="M 2113 2584 
Q 1688 2584 1439 2293 
Q 1191 2003 1191 1497 
Q 1191 994 1439 701 
Q 1688 409 2113 409 
Q 2538 409 2786 701 
Q 3034 994 3034 1497 
Q 3034 2003 2786 2293 
Q 2538 2584 2113 2584 
z
M 3366 4563 
L 3366 3988 
Q 3128 4100 2886 4159 
Q 2644 4219 2406 4219 
Q 1781 4219 1451 3797 
Q 1122 3375 1075 2522 
Q 1259 2794 1537 2939 
Q 1816 3084 2150 3084 
Q 2853 3084 3261 2657 
Q 3669 2231 3669 1497 
Q 3669 778 3244 343 
Q 2819 -91 2113 -91 
Q 1303 -91 875 529 
Q 447 1150 447 2328 
Q 447 3434 972 4092 
Q 1497 4750 2381 4750 
Q 2619 4750 2861 4703 
Q 3103 4656 3366 4563 
z
" transform="scale(0.015625)"/>
       </defs>
       <use xlink:href="#DejaVuSans-30"/>
       <use xlink:href="#DejaVuSans-2e" x="63.623047"/>
       <use xlink:href="#DejaVuSans-36" x="95.410156"/>
      </g>
     </g>
    </g>
    <g id="xtick_5">
     <g id="line2d_5">
      <g>
       <use xlink:href="#m456803f56a" x="320.000938" y="253.44" style="stroke: #000000; stroke-width: 0.8"/>
      </g>
     </g>
     <g id="text_5">
      <!-- 0.8 -->
      <g transform="translate(312.049375 268.038437) scale(0.1 -0.1)">
       <defs>
        <path id="DejaVuSans-38" d="M 2034 2216 
Q 1584 2216 1326 1975 
Q 1069 1734 1069 1313 
Q 1069 891 1326 650 
Q 1584 409 2034 409 
Q 2484 409 2743 651 
Q 3003 894 3003 1313 
Q 3003 1734 2745 1975 
Q 2488 2216 2034 2216 
z
M 1403 2484 
Q 997 2584 770 2862 
Q 544 3141 544 3541 
Q 544 4100 942 4425 
Q 1341 4750 2034 4750 
Q 2731 4750 3128 4425 
Q 3525 4100 3525 3541 
Q 3525 3141 3298 2862 
Q 3072 2584 2669 2484 
Q 3125 2378 3379 2068 
Q 3634 1759 3634 1313 
Q 3634 634 3220 271 
Q 2806 -91 2034 -91 
Q 1263 -91 848 271 
Q 434 634 434 1313 
Q 434 1759 690 2068 
Q 947 2378 1403 2484 
z
M 1172 3481 
Q 1172 3119 1398 2916 
Q 1625 2713 2034 2713 
Q 2441 2713 2670 2916 
Q 2900 3119 2900 3481 
Q 2900 3844 2670 4047 
Q 2441 4250 2034 4250 
Q 1625 4250 1398 4047 
Q 1172 3844 1172 3481 
z
" transform="scale(0.015625)"/>
       </defs>
       <use xlink:href="#DejaVuSans-30"/>
       <use xlink:href="#DejaVuSans-2e" x="63.623047"/>
       <use xlink:href="#DejaVuSans-38" x="95.410156"/>
      </g>
     </g>
    </g>
    <g id="xtick_6">
     <g id="line2d_6">
      <g>
       <use xlink:href="#m456803f56a" x="386.960938" y="253.44" style="stroke: #000000; stroke-width: 0.8"/>
      </g>
     </g>
     <g id="text_6">
      <!-- 1.0 -->
      <g transform="translate(379.009375 268.038437) scale(0.1 -0.1)">
       <defs>
        <path id="DejaVuSans-31" d="M 794 531 
L 1825 531 
L 1825 4091 
L 703 3866 
L 703 4441 
L 1819 4666 
L 2450 4666 
L 2450 531 
L 3481 531 
L 3481 0 
L 794 0 
L 794 531 
z
" transform="scale(0.015625)"/>
       </defs>
       <use xlink:href="#DejaVuSans-31"/>
       <use xlink:href="#DejaVuSans-2e" x="63.623047"/>
       <use xlink:href="#DejaVuSans-30" x="95.410156"/>
      </g>
     </g>
    </g>
    <g id="text_7">
     <!-- $t$ sec. -->
     <g transform="translate(205.960938 281.716562) scale(0.1 -0.1)">
      <defs>
       <path id="DejaVuSans-Oblique-74" d="M 2706 3500 
L 2619 3053 
L 1472 3053 
L 1100 1153 
Q 1081 1047 1072 975 
Q 1063 903 1063 863 
Q 1063 663 1183 572 
Q 1303 481 1569 481 
L 2150 481 
L 2053 0 
L 1503 0 
Q 991 0 739 200 
Q 488 400 488 806 
Q 488 878 497 964 
Q 506 1050 525 1153 
L 897 3053 
L 409 3053 
L 500 3500 
L 978 3500 
L 1172 4494 
L 1747 4494 
L 1556 3500 
L 2706 3500 
z
" transform="scale(0.015625)"/>
       <path id="DejaVuSans-20" transform="scale(0.015625)"/>
       <path id="DejaVuSans-73" d="M 2834 3397 
L 2834 2853 
Q 2591 2978 2328 3040 
Q 2066 3103 1784 3103 
Q 1356 3103 1142 2972 
Q 928 2841 928 2578 
Q 928 2378 1081 2264 
Q 1234 2150 1697 2047 
L 1894 2003 
Q 2506 1872 2764 1633 
Q 3022 1394 3022 966 
Q 3022 478 2636 193 
Q 2250 -91 1575 -91 
Q 1294 -91 989 -36 
Q 684 19 347 128 
L 347 722 
Q 666 556 975 473 
Q 1284 391 1588 391 
Q 1994 391 2212 530 
Q 2431 669 2431 922 
Q 2431 1156 2273 1281 
Q 2116 1406 1581 1522 
L 1381 1569 
Q 847 1681 609 1914 
Q 372 2147 372 2553 
Q 372 3047 722 3315 
Q 1072 3584 1716 3584 
Q 2034 3584 2315 3537 
Q 2597 3491 2834 3397 
z
" transform="scale(0.015625)"/>
       <path id="DejaVuSans-65" d="M 3597 1894 
L 3597 1613 
L 953 1613 
Q 991 1019 1311 708 
Q 1631 397 2203 397 
Q 2534 397 2845 478 
Q 3156 559 3463 722 
L 3463 178 
Q 3153 47 2828 -22 
Q 2503 -91 2169 -91 
Q 1331 -91 842 396 
Q 353 884 353 1716 
Q 353 2575 817 3079 
Q 1281 3584 2069 3584 
Q 2775 3584 3186 3129 
Q 3597 2675 3597 1894 
z
M 3022 2063 
Q 3016 2534 2758 2815 
Q 2500 3097 2075 3097 
Q 1594 3097 1305 2825 
Q 1016 2553 972 2059 
L 3022 2063 
z
" transform="scale(0.015625)"/>
       <path id="DejaVuSans-63" d="M 3122 3366 
L 3122 2828 
Q 2878 2963 2633 3030 
Q 2388 3097 2138 3097 
Q 1578 3097 1268 2742 
Q 959 2388 959 1747 
Q 959 1106 1268 751 
Q 1578 397 2138 397 
Q 2388 397 2633 464 
Q 2878 531 3122 666 
L 3122 134 
Q 2881 22 2623 -34 
Q 2366 -91 2075 -91 
Q 1284 -91 818 406 
Q 353 903 353 1747 
Q 353 2603 823 3093 
Q 1294 3584 2113 3584 
Q 2378 3584 2631 3529 
Q 2884 3475 3122 3366 
z
" transform="scale(0.015625)"/>
      </defs>
      <use xlink:href="#DejaVuSans-Oblique-74" transform="translate(0 0.78125)"/>
      <use xlink:href="#DejaVuSans-20" transform="translate(39.208984 0.78125)"/>
      <use xlink:href="#DejaVuSans-73" transform="translate(70.996094 0.78125)"/>
      <use xlink:href="#DejaVuSans-65" transform="translate(123.095703 0.78125)"/>
      <use xlink:href="#DejaVuSans-63" transform="translate(184.619141 0.78125)"/>
      <use xlink:href="#DejaVuSans-2e" transform="translate(239.599609 0.78125)"/>
     </g>
    </g>
   </g>
   <g id="matplotlib.axis_2">
    <g id="ytick_1">
     <g id="line2d_7">
      <defs>
       <path id="m3020ebef76" d="M 0 0 
L -3.5 0 
" style="stroke: #000000; stroke-width: 0.8"/>
      </defs>
      <g>
       <use xlink:href="#m3020ebef76" x="52.160938" y="222.195754" style="stroke: #000000; stroke-width: 0.8"/>
      </g>
     </g>
     <g id="text_8">
      <!-- −1.0 -->
      <g transform="translate(20.878125 225.994973) scale(0.1 -0.1)">
       <defs>
        <path id="DejaVuSans-2212" d="M 678 2272 
L 4684 2272 
L 4684 1741 
L 678 1741 
L 678 2272 
z
" transform="scale(0.015625)"/>
       </defs>
       <use xlink:href="#DejaVuSans-2212"/>
       <use xlink:href="#DejaVuSans-31" x="83.789062"/>
       <use xlink:href="#DejaVuSans-2e" x="147.412109"/>
       <use xlink:href="#DejaVuSans-30" x="179.199219"/>
      </g>
     </g>
    </g>
    <g id="ytick_2">
     <g id="line2d_8">
      <g>
       <use xlink:href="#m3020ebef76" x="52.160938" y="184.179539" style="stroke: #000000; stroke-width: 0.8"/>
      </g>
     </g>
     <g id="text_9">
      <!-- −0.5 -->
      <g transform="translate(20.878125 187.978758) scale(0.1 -0.1)">
       <defs>
        <path id="DejaVuSans-35" d="M 691 4666 
L 3169 4666 
L 3169 4134 
L 1269 4134 
L 1269 2991 
Q 1406 3038 1543 3061 
Q 1681 3084 1819 3084 
Q 2600 3084 3056 2656 
Q 3513 2228 3513 1497 
Q 3513 744 3044 326 
Q 2575 -91 1722 -91 
Q 1428 -91 1123 -41 
Q 819 9 494 109 
L 494 744 
Q 775 591 1075 516 
Q 1375 441 1709 441 
Q 2250 441 2565 725 
Q 2881 1009 2881 1497 
Q 2881 1984 2565 2268 
Q 2250 2553 1709 2553 
Q 1456 2553 1204 2497 
Q 953 2441 691 2322 
L 691 4666 
z
" transform="scale(0.015625)"/>
       </defs>
       <use xlink:href="#DejaVuSans-2212"/>
       <use xlink:href="#DejaVuSans-30" x="83.789062"/>
       <use xlink:href="#DejaVuSans-2e" x="147.412109"/>
       <use xlink:href="#DejaVuSans-35" x="179.199219"/>
      </g>
     </g>
    </g>
    <g id="ytick_3">
     <g id="line2d_9">
      <g>
       <use xlink:href="#m3020ebef76" x="52.160938" y="146.163324" style="stroke: #000000; stroke-width: 0.8"/>
      </g>
     </g>
     <g id="text_10">
      <!-- 0.0 -->
      <g transform="translate(29.257812 149.962543) scale(0.1 -0.1)">
       <use xlink:href="#DejaVuSans-30"/>
       <use xlink:href="#DejaVuSans-2e" x="63.623047"/>
       <use xlink:href="#DejaVuSans-30" x="95.410156"/>
      </g>
     </g>
    </g>
    <g id="ytick_4">
     <g id="line2d_10">
      <g>
       <use xlink:href="#m3020ebef76" x="52.160938" y="108.147109" style="stroke: #000000; stroke-width: 0.8"/>
      </g>
     </g>
     <g id="text_11">
      <!-- 0.5 -->
      <g transform="translate(29.257812 111.946328) scale(0.1 -0.1)">
       <use xlink:href="#DejaVuSans-30"/>
       <use xlink:href="#DejaVuSans-2e" x="63.623047"/>
       <use xlink:href="#DejaVuSans-35" x="95.410156"/>
      </g>
     </g>
    </g>
    <g id="ytick_5">
     <g id="line2d_11">
      <g>
       <use xlink:href="#m3020ebef76" x="52.160938" y="70.130894" style="stroke: #000000; stroke-width: 0.8"/>
      </g>
     </g>
     <g id="text_12">
      <!-- 1.0 -->
      <g transform="translate(29.257812 73.930113) scale(0.1 -0.1)">
       <use xlink:href="#DejaVuSans-31"/>
       <use xlink:href="#DejaVuSans-2e" x="63.623047"/>
       <use xlink:href="#DejaVuSans-30" x="95.410156"/>
      </g>
     </g>
    </g>
    <g id="text_13">
     <!-- $x4 -->
     <g transform="translate(14.798438 154.041875) rotate(-90) scale(0.1 -0.1)">
      <defs>
       <path id="DejaVuSans-24" d="M 2163 -941 
L 1850 -941 
L 1847 0 
Q 1519 6 1191 76 
Q 863 147 531 288 
L 531 850 
Q 850 650 1176 548 
Q 1503 447 1850 444 
L 1850 1869 
Q 1159 1981 845 2250 
Q 531 2519 531 2988 
Q 531 3497 872 3790 
Q 1213 4084 1850 4128 
L 1850 4863 
L 2163 4863 
L 2163 4138 
Q 2453 4125 2725 4076 
Q 2997 4028 3256 3944 
L 3256 3397 
Q 2997 3528 2723 3600 
Q 2450 3672 2163 3684 
L 2163 2350 
Q 2872 2241 3206 1959 
Q 3541 1678 3541 1191 
Q 3541 663 3186 358 
Q 2831 53 2163 6 
L 2163 -941 
z
M 1850 2406 
L 1850 3688 
Q 1488 3647 1297 3481 
Q 1106 3316 1106 3041 
Q 1106 2772 1282 2622 
Q 1459 2472 1850 2406 
z
M 2163 1806 
L 2163 453 
Q 2559 506 2761 678 
Q 2963 850 2963 1131 
Q 2963 1406 2770 1568 
Q 2578 1731 2163 1806 
z
" transform="scale(0.015625)"/>
       <path id="DejaVuSans-78" d="M 3513 3500 
L 2247 1797 
L 3578 0 
L 2900 0 
L 1881 1375 
L 863 0 
L 184 0 
L 1544 1831 
L 300 3500 
L 978 3500 
L 1906 2253 
L 2834 3500 
L 3513 3500 
z
" transform="scale(0.015625)"/>
      </defs>
      <use xlink:href="#DejaVuSans-24"/>
      <use xlink:href="#DejaVuSans-78" x="63.623047"/>
      <use xlink:href="#DejaVuSans-34" x="122.802734"/>
     </g>
    </g>
   </g>
   <g id="line2d_12">
    <path d="M 52.160938 109.187808 
L 52.830538 112.699046 
L 54.504538 122.900365 
L 55.174138 125.245469 
L 55.508938 125.682323 
L 55.843738 125.551307 
L 56.178538 124.818755 
L 56.513338 123.472227 
L 57.182938 118.996897 
L 57.852538 112.458326 
L 59.191738 96.006015 
L 60.196138 84.486187 
L 60.865738 79.08231 
L 61.200538 77.386171 
L 61.535338 76.46866 
L 61.870138 76.386061 
L 62.204937 77.172344 
L 62.539738 78.837859 
L 63.209338 84.727017 
L 63.878938 93.659432 
L 64.883338 111.08156 
L 66.557338 141.891729 
L 67.226938 151.56872 
L 67.896538 158.391356 
L 68.231337 160.567767 
L 68.566137 161.880214 
L 68.900937 162.329363 
L 69.235737 161.940867 
L 69.570538 160.764524 
L 70.240138 156.358226 
L 70.909738 149.916463 
L 72.918537 129.045115 
L 73.588138 125.100672 
L 73.922938 124.157712 
L 74.257738 123.977309 
L 74.592538 124.587947 
L 74.927338 125.994098 
L 75.262138 128.176247 
L 75.931738 134.675734 
L 76.936138 148.515323 
L 78.944938 179.080866 
L 79.614538 186.444097 
L 80.284138 191.119173 
L 80.618938 192.328782 
L 80.953738 192.765284 
L 81.288538 192.440123 
L 81.623338 191.385934 
L 81.958138 189.655259 
L 82.627737 184.462467 
L 83.632137 173.812231 
L 84.971338 159.032418 
L 85.640938 153.335012 
L 86.310538 149.620047 
L 86.645338 148.617954 
L 86.980138 148.209347 
L 87.314937 148.388389 
L 87.649738 149.131256 
L 87.984538 150.397272 
L 88.654138 154.262089 
L 89.658538 162.212188 
L 90.997737 173.006381 
L 91.667338 176.947071 
L 92.336938 179.262347 
L 92.671738 179.732346 
L 93.006538 179.733042 
L 93.341338 179.275734 
L 93.676138 178.386644 
L 94.345738 175.485869 
L 95.350138 169.260409 
L 96.689338 160.689607 
L 97.358938 157.665039 
L 97.693737 156.683004 
L 98.028537 156.1082 
L 98.363338 155.964375 
L 98.698138 156.261009 
L 99.032938 156.992943 
L 99.702538 159.669532 
L 100.372138 163.671855 
L 102.715738 179.658275 
L 103.050538 181.028603 
L 103.385338 181.91817 
L 103.720138 182.259144 
L 104.054937 181.994497 
L 104.389737 181.079495 
L 104.724537 179.482905 
L 105.394137 174.192495 
L 106.063738 166.168767 
L 107.068138 149.689833 
L 108.407338 122.536102 
L 110.081338 89.460322 
L 110.750938 79.290524 
L 111.420537 71.996058 
L 111.755337 69.601198 
L 112.090137 68.108358 
L 112.424937 67.549961 
L 112.759737 67.943256 
L 113.094538 69.289916 
L 113.429338 71.575902 
L 114.098938 78.83223 
L 114.768538 89.297632 
L 115.772938 109.586486 
L 118.786138 175.313243 
L 119.455738 185.081327 
L 120.125338 191.609718 
L 120.460138 193.559328 
L 120.794938 194.612177 
L 121.129738 194.774083 
L 121.464538 194.067587 
L 121.799338 192.531416 
L 122.468937 187.200203 
L 123.138537 179.371951 
L 124.477738 159.368996 
L 125.816938 139.352841 
L 126.486538 131.302321 
L 127.156138 125.297507 
L 127.825738 121.614978 
L 128.160538 120.663121 
L 128.495338 120.283334 
L 128.830138 120.441948 
L 129.164938 121.092321 
L 129.834538 123.626775 
L 130.838938 129.403434 
L 132.178137 137.407948 
L 132.847737 140.235117 
L 133.182538 141.170091 
L 133.517337 141.745401 
L 133.852137 141.946434 
L 134.186937 141.771422 
L 134.521738 141.23114 
L 135.191338 139.155938 
L 135.860938 136.02213 
L 138.539337 121.845017 
L 139.208937 119.970075 
L 139.543738 119.455922 
L 139.878537 119.228318 
L 140.213338 119.277979 
L 140.548137 119.58636 
L 141.217737 120.86541 
L 142.222138 123.868257 
L 143.561338 128.146777 
L 144.230938 129.810194 
L 144.900538 131.019073 
L 145.904938 132.220863 
L 146.574538 133.017348 
L 147.244138 134.272593 
L 147.913738 136.429103 
L 148.583338 139.889476 
L 149.252938 144.940875 
L 149.922538 151.689269 
L 150.926938 164.661542 
L 153.605338 202.346339 
L 154.274938 207.980931 
L 154.609737 209.660493 
L 154.944538 210.481034 
L 155.279337 210.388359 
L 155.614137 209.347839 
L 155.948937 207.345985 
L 156.618538 200.515529 
L 157.288138 190.235052 
L 158.292538 169.904577 
L 160.636138 118.584662 
L 161.305738 108.125837 
L 161.975338 101.176946 
L 162.310137 99.158877 
L 162.644938 98.139275 
L 162.979737 98.108429 
L 163.314538 99.032803 
L 163.649338 100.85619 
L 164.318938 106.873026 
L 164.988538 115.336645 
L 167.666938 152.708614 
L 168.336538 158.164256 
L 168.671338 159.88045 
L 169.006138 160.89245 
L 169.340938 161.203578 
L 169.675738 160.836988 
L 170.010537 159.83445 
L 170.680138 156.171111 
L 171.349738 150.845663 
L 173.358538 132.945375 
L 174.028138 128.959087 
L 174.362937 127.689314 
L 174.697738 126.966961 
L 175.032537 126.823419 
L 175.367338 127.27585 
L 175.702137 128.327452 
L 176.036938 129.968083 
L 176.706538 134.915071 
L 177.376138 141.81065 
L 178.380538 154.827411 
L 181.393737 196.521652 
L 182.063337 203.25033 
L 182.732937 208.251755 
L 183.402537 211.260606 
L 183.737338 211.948646 
L 184.072137 212.061856 
L 184.406938 211.581599 
L 184.741737 210.493125 
L 185.076538 208.786113 
L 185.746138 203.501397 
L 186.415738 195.760711 
L 187.085338 185.717256 
L 188.089738 167.027867 
L 191.437738 99.071754 
L 192.107338 90.630705 
L 192.776937 85.689774 
L 193.111738 84.669182 
L 193.446537 84.651663 
L 193.781338 85.638902 
L 194.116137 87.610976 
L 194.785737 94.321097 
L 195.455337 104.196997 
L 196.459738 122.956359 
L 198.133737 155.155735 
L 198.803337 165.053184 
L 199.472938 171.974772 
L 199.807738 174.185766 
L 200.142538 175.544272 
L 200.477338 176.069948 
L 200.812138 175.809506 
L 201.146938 174.835528 
L 201.816538 171.153708 
L 203.825337 156.344393 
L 204.160138 154.944546 
L 204.494937 154.223127 
L 204.829738 154.282905 
L 205.164537 155.201608 
L 205.499338 157.028822 
L 206.168938 163.45368 
L 206.838538 173.328555 
L 207.842938 192.905858 
L 209.516938 227.239549 
L 210.186538 237.084942 
L 210.521338 240.47187 
L 210.856138 242.660331 
L 211.190938 243.556364 
L 211.525738 243.099792 
L 211.860538 241.266561 
L 212.195337 238.069974 
L 212.864937 227.826166 
L 213.534537 213.196768 
L 214.873738 176.377119 
L 216.212938 140.995658 
L 216.882538 127.9066 
L 217.552138 119.360401 
L 217.886937 116.945626 
L 218.221738 115.774314 
L 218.556537 115.8006 
L 218.891338 116.940793 
L 219.226137 119.076153 
L 219.895737 125.70662 
L 221.904538 150.070628 
L 222.239338 152.61501 
L 222.574138 154.25992 
L 222.908938 154.890071 
L 223.243738 154.426288 
L 223.578538 152.828404 
L 223.913338 150.096896 
L 224.582938 141.438649 
L 225.252538 129.246686 
L 227.596137 80.685987 
L 228.265738 72.374334 
L 228.600538 70.07797 
L 228.935338 69.165822 
L 229.270138 69.69589 
L 229.604938 71.682762 
L 229.939738 75.096641 
L 230.609338 85.868382 
L 231.278938 100.936786 
L 233.957337 168.076427 
L 234.626937 177.059497 
L 234.961738 179.410145 
L 235.296537 180.243759 
L 235.631338 179.550776 
L 235.966138 177.36866 
L 236.300938 173.780878 
L 236.970538 162.935903 
L 237.974938 140.474802 
L 239.314138 109.48046 
L 239.983738 98.13367 
L 240.318538 94.241219 
L 240.653338 91.732303 
L 240.988138 90.701729 
L 241.322938 91.198694 
L 241.657738 93.225363 
L 241.992538 96.736918 
L 242.662138 107.811163 
L 243.331738 123.21651 
L 246.010137 190.807653 
L 246.679737 199.905812 
L 247.014538 202.407228 
L 247.349337 203.483144 
L 247.684138 203.145088 
L 248.018937 201.449582 
L 248.353738 198.496092 
L 249.023338 189.406039 
L 250.027738 170.818139 
L 251.032137 151.977548 
L 251.701737 142.421454 
L 252.036538 139.136652 
L 252.371337 137.03988 
L 252.706138 136.227902 
L 253.040937 136.755588 
L 253.375738 138.634299 
L 253.710537 141.831663 
L 254.380137 151.842369 
L 255.384538 173.655928 
L 257.058537 213.806893 
L 257.728138 225.751003 
L 258.397738 233.028233 
L 258.732538 234.615285 
L 259.067338 234.749011 
L 259.402137 233.415088 
L 259.736938 230.639111 
L 260.406538 221.053129 
L 261.076138 206.911123 
L 262.080537 180.197491 
L 263.754538 134.571945 
L 264.424138 120.183704 
L 265.093738 109.422953 
L 265.763338 102.589488 
L 266.098138 100.60589 
L 266.432938 99.501357 
L 266.767738 99.189545 
L 267.102538 99.565745 
L 267.437338 100.511559 
L 268.106938 103.600164 
L 269.780937 112.576703 
L 270.450537 114.712828 
L 270.785338 115.283272 
L 271.120137 115.526139 
L 271.454938 115.471561 
L 271.789738 115.169098 
L 272.459338 114.099116 
L 273.128938 112.98415 
L 273.463738 112.645531 
L 273.798538 112.577115 
L 274.133338 112.863711 
L 274.468138 113.578631 
L 274.802938 114.780224 
L 275.472538 118.785482 
L 276.142138 124.955982 
L 277.146538 137.595704 
L 279.155338 165.763662 
L 279.824938 172.575233 
L 280.494538 176.771944 
L 280.829338 177.755098 
L 281.164138 177.970008 
L 281.498938 177.429802 
L 281.833738 176.17317 
L 282.503338 171.786964 
L 283.507738 162.102818 
L 284.846938 149.125811 
L 285.516538 145.137061 
L 285.851338 144.169661 
L 286.186138 143.987089 
L 286.520938 144.632181 
L 286.855738 146.119497 
L 287.190538 148.434365 
L 287.860138 155.342893 
L 288.864537 169.943271 
L 290.538538 195.730715 
L 291.208138 202.68663 
L 291.542937 204.867233 
L 291.877738 206.049843 
L 292.212537 206.169319 
L 292.547338 205.191332 
L 292.882137 203.113816 
L 293.551738 195.81491 
L 294.221338 184.892861 
L 295.560538 156.743532 
L 296.564937 135.899039 
L 297.234537 124.919615 
L 297.904137 117.662989 
L 298.238938 115.678971 
L 298.573737 114.862336 
L 298.908538 115.225165 
L 299.243337 116.745987 
L 299.578138 119.370539 
L 300.247738 127.561154 
L 301.252138 145.147226 
L 302.926138 176.801375 
L 303.595737 186.09366 
L 304.265337 191.781581 
L 304.600138 193.071195 
L 304.934937 193.273699 
L 305.269738 192.387704 
L 305.604537 190.440464 
L 306.274137 183.603803 
L 306.943737 173.472917 
L 307.948138 154.305832 
L 309.956937 115.312423 
L 310.961338 101.146808 
L 311.630938 94.439808 
L 312.300538 89.694605 
L 312.970138 86.428084 
L 314.309338 81.764809 
L 314.978938 79.114519 
L 315.648538 75.650159 
L 316.652938 68.659627 
L 318.996537 49.835556 
L 319.666137 46.717184 
L 320.000938 45.979605 
L 320.335737 45.883636 
L 320.670538 46.482064 
L 321.005337 47.810855 
L 321.340138 49.887516 
L 322.009738 56.256652 
L 322.679338 65.337464 
L 323.683738 82.782496 
L 326.027338 126.049995 
L 326.696938 135.110889 
L 327.366537 141.613517 
L 328.036137 145.424858 
L 328.370938 146.368766 
L 328.705737 146.735519 
L 329.040538 146.594631 
L 329.375338 146.030103 
L 330.044938 144.021533 
L 331.384138 139.513764 
L 331.718937 138.902139 
L 332.053738 138.67955 
L 332.388537 138.91542 
L 332.723338 139.662795 
L 333.058137 140.956727 
L 333.727737 145.228732 
L 334.397337 151.626784 
L 335.401737 164.271059 
L 337.410537 191.314412 
L 338.080137 197.786895 
L 338.749737 201.849507 
L 339.084538 202.855086 
L 339.419337 203.14688 
L 339.754138 202.725596 
L 340.088937 201.61046 
L 340.423738 199.83857 
L 341.093338 194.554826 
L 342.097737 183.493039 
L 344.106538 160.04836 
L 344.776138 154.656686 
L 345.445738 151.348663 
L 345.780537 150.537431 
L 346.115338 150.28649 
L 346.450137 150.573289 
L 346.784938 151.358955 
L 347.454538 154.197203 
L 348.458937 160.445844 
L 349.463338 166.801659 
L 350.132938 169.773077 
L 350.467737 170.608505 
L 350.802538 170.911163 
L 351.137338 170.621989 
L 351.472138 169.696162 
L 351.806938 168.104314 
L 352.476538 162.886931 
L 353.146138 155.06558 
L 354.150537 139.291649 
L 357.163738 86.208117 
L 357.833338 78.725742 
L 358.502938 74.326997 
L 358.837738 73.397649 
L 359.172538 73.342943 
L 359.507338 74.162353 
L 359.842138 75.837989 
L 360.511738 81.601713 
L 361.181338 90.16409 
L 362.185738 106.694511 
L 364.194538 141.784934 
L 364.864138 150.739785 
L 365.533738 157.124708 
L 365.868538 159.221326 
L 366.203338 160.551232 
L 366.538138 161.110085 
L 366.872938 160.912006 
L 367.207738 159.989272 
L 367.542538 158.391571 
L 368.212138 153.449666 
L 369.216538 143.056365 
L 370.555738 128.321674 
L 371.225338 122.630042 
L 371.894938 119.073564 
L 372.229737 118.261028 
L 372.564538 118.145982 
L 372.899338 118.744969 
L 373.234138 120.054758 
L 373.903737 124.695166 
L 374.573337 131.65708 
L 375.577738 144.918192 
L 376.916938 163.025864 
L 377.586537 170.094098 
L 378.256137 174.746515 
L 378.590937 175.987857 
L 378.925737 176.446989 
L 379.260537 176.104953 
L 379.595337 174.963805 
L 379.930138 173.046588 
L 380.599738 167.076739 
L 381.269338 158.761367 
L 382.943337 133.320663 
L 383.947738 119.656991 
L 384.617338 112.942512 
L 385.286938 108.720721 
L 385.621737 107.601885 
L 385.956538 107.13305 
L 386.291337 107.279855 
L 386.626138 107.988557 
L 386.626138 107.988557 
" clip-path="url(#p69b2912a1e)" style="fill: none; stroke: #1f77b4; stroke-width: 1.5; stroke-linecap: square"/>
   </g>
   <g id="patch_3">
    <path d="M 52.160938 253.44 
L 52.160938 36 
" style="fill: none; stroke: #000000; stroke-width: 0.8; stroke-linejoin: miter; stroke-linecap: square"/>
   </g>
   <g id="patch_4">
    <path d="M 386.960938 253.44 
L 386.960938 36 
" style="fill: none; stroke: #000000; stroke-width: 0.8; stroke-linejoin: miter; stroke-linecap: square"/>
   </g>
   <g id="patch_5">
    <path d="M 52.160938 253.44 
L 386.960938 253.44 
" style="fill: none; stroke: #000000; stroke-width: 0.8; stroke-linejoin: miter; stroke-linecap: square"/>
   </g>
   <g id="patch_6">
    <path d="M 52.160938 36 
L 386.960938 36 
" style="fill: none; stroke: #000000; stroke-width: 0.8; stroke-linejoin: miter; stroke-linecap: square"/>
   </g>
   <g id="legend_1">
    <g id="patch_7">
     <path d="M 330.260938 58.678125 
L 379.960938 58.678125 
Q 381.960938 58.678125 381.960938 56.678125 
L 381.960938 43 
Q 381.960938 41 379.960938 41 
L 330.260938 41 
Q 328.260938 41 328.260938 43 
L 328.260938 56.678125 
Q 328.260938 58.678125 330.260938 58.678125 
z
" style="fill: #ffffff; opacity: 0.8; stroke: #cccccc; stroke-linejoin: miter"/>
    </g>
    <g id="line2d_13">
     <path d="M 332.260938 49.098437 
L 342.260938 49.098437 
L 352.260938 49.098437 
" style="fill: none; stroke: #1f77b4; stroke-width: 1.5; stroke-linecap: square"/>
    </g>
    <g id="text_14">
     <!-- $x(t)$ -->
     <g transform="translate(360.260938 52.598437) scale(0.1 -0.1)">
      <defs>
       <path id="DejaVuSans-Oblique-78" d="M 3841 3500 
L 2234 1784 
L 3219 0 
L 2559 0 
L 1819 1388 
L 531 0 
L -166 0 
L 1556 1844 
L 641 3500 
L 1300 3500 
L 1972 2234 
L 3144 3500 
L 3841 3500 
z
" transform="scale(0.015625)"/>
       <path id="DejaVuSans-28" d="M 1984 4856 
Q 1566 4138 1362 3434 
Q 1159 2731 1159 2009 
Q 1159 1288 1364 580 
Q 1569 -128 1984 -844 
L 1484 -844 
Q 1016 -109 783 600 
Q 550 1309 550 2009 
Q 550 2706 781 3412 
Q 1013 4119 1484 4856 
L 1984 4856 
z
" transform="scale(0.015625)"/>
       <path id="DejaVuSans-29" d="M 513 4856 
L 1013 4856 
Q 1481 4119 1714 3412 
Q 1947 2706 1947 2009 
Q 1947 1309 1714 600 
Q 1481 -109 1013 -844 
L 513 -844 
Q 928 -128 1133 580 
Q 1338 1288 1338 2009 
Q 1338 2731 1133 3434 
Q 928 4138 513 4856 
z
" transform="scale(0.015625)"/>
      </defs>
      <use xlink:href="#DejaVuSans-Oblique-78" transform="translate(0 0.125)"/>
      <use xlink:href="#DejaVuSans-28" transform="translate(59.179688 0.125)"/>
      <use xlink:href="#DejaVuSans-Oblique-74" transform="translate(98.193359 0.125)"/>
      <use xlink:href="#DejaVuSans-29" transform="translate(137.402344 0.125)"/>
     </g>
    </g>
   </g>
  </g>
  <g id="text_15">
   <!-- Generated signal $x(t)$ -->
   <g transform="translate(150.140938 16.32) scale(0.12 -0.12)">
    <defs>
     <path id="DejaVuSans-47" d="M 3809 666 
L 3809 1919 
L 2778 1919 
L 2778 2438 
L 4434 2438 
L 4434 434 
Q 4069 175 3628 42 
Q 3188 -91 2688 -91 
Q 1594 -91 976 548 
Q 359 1188 359 2328 
Q 359 3472 976 4111 
Q 1594 4750 2688 4750 
Q 3144 4750 3555 4637 
Q 3966 4525 4313 4306 
L 4313 3634 
Q 3963 3931 3569 4081 
Q 3175 4231 2741 4231 
Q 1884 4231 1454 3753 
Q 1025 3275 1025 2328 
Q 1025 1384 1454 906 
Q 1884 428 2741 428 
Q 3075 428 3337 486 
Q 3600 544 3809 666 
z
" transform="scale(0.015625)"/>
     <path id="DejaVuSans-6e" d="M 3513 2113 
L 3513 0 
L 2938 0 
L 2938 2094 
Q 2938 2591 2744 2837 
Q 2550 3084 2163 3084 
Q 1697 3084 1428 2787 
Q 1159 2491 1159 1978 
L 1159 0 
L 581 0 
L 581 3500 
L 1159 3500 
L 1159 2956 
Q 1366 3272 1645 3428 
Q 1925 3584 2291 3584 
Q 2894 3584 3203 3211 
Q 3513 2838 3513 2113 
z
" transform="scale(0.015625)"/>
     <path id="DejaVuSans-72" d="M 2631 2963 
Q 2534 3019 2420 3045 
Q 2306 3072 2169 3072 
Q 1681 3072 1420 2755 
Q 1159 2438 1159 1844 
L 1159 0 
L 581 0 
L 581 3500 
L 1159 3500 
L 1159 2956 
Q 1341 3275 1631 3429 
Q 1922 3584 2338 3584 
Q 2397 3584 2469 3576 
Q 2541 3569 2628 3553 
L 2631 2963 
z
" transform="scale(0.015625)"/>
     <path id="DejaVuSans-61" d="M 2194 1759 
Q 1497 1759 1228 1600 
Q 959 1441 959 1056 
Q 959 750 1161 570 
Q 1363 391 1709 391 
Q 2188 391 2477 730 
Q 2766 1069 2766 1631 
L 2766 1759 
L 2194 1759 
z
M 3341 1997 
L 3341 0 
L 2766 0 
L 2766 531 
Q 2569 213 2275 61 
Q 1981 -91 1556 -91 
Q 1019 -91 701 211 
Q 384 513 384 1019 
Q 384 1609 779 1909 
Q 1175 2209 1959 2209 
L 2766 2209 
L 2766 2266 
Q 2766 2663 2505 2880 
Q 2244 3097 1772 3097 
Q 1472 3097 1187 3025 
Q 903 2953 641 2809 
L 641 3341 
Q 956 3463 1253 3523 
Q 1550 3584 1831 3584 
Q 2591 3584 2966 3190 
Q 3341 2797 3341 1997 
z
" transform="scale(0.015625)"/>
     <path id="DejaVuSans-74" d="M 1172 4494 
L 1172 3500 
L 2356 3500 
L 2356 3053 
L 1172 3053 
L 1172 1153 
Q 1172 725 1289 603 
Q 1406 481 1766 481 
L 2356 481 
L 2356 0 
L 1766 0 
Q 1100 0 847 248 
Q 594 497 594 1153 
L 594 3053 
L 172 3053 
L 172 3500 
L 594 3500 
L 594 4494 
L 1172 4494 
z
" transform="scale(0.015625)"/>
     <path id="DejaVuSans-64" d="M 2906 2969 
L 2906 4863 
L 3481 4863 
L 3481 0 
L 2906 0 
L 2906 525 
Q 2725 213 2448 61 
Q 2172 -91 1784 -91 
Q 1150 -91 751 415 
Q 353 922 353 1747 
Q 353 2572 751 3078 
Q 1150 3584 1784 3584 
Q 2172 3584 2448 3432 
Q 2725 3281 2906 2969 
z
M 947 1747 
Q 947 1113 1208 752 
Q 1469 391 1925 391 
Q 2381 391 2643 752 
Q 2906 1113 2906 1747 
Q 2906 2381 2643 2742 
Q 2381 3103 1925 3103 
Q 1469 3103 1208 2742 
Q 947 2381 947 1747 
z
" transform="scale(0.015625)"/>
     <path id="DejaVuSans-69" d="M 603 3500 
L 1178 3500 
L 1178 0 
L 603 0 
L 603 3500 
z
M 603 4863 
L 1178 4863 
L 1178 4134 
L 603 4134 
L 603 4863 
z
" transform="scale(0.015625)"/>
     <path id="DejaVuSans-67" d="M 2906 1791 
Q 2906 2416 2648 2759 
Q 2391 3103 1925 3103 
Q 1463 3103 1205 2759 
Q 947 2416 947 1791 
Q 947 1169 1205 825 
Q 1463 481 1925 481 
Q 2391 481 2648 825 
Q 2906 1169 2906 1791 
z
M 3481 434 
Q 3481 -459 3084 -895 
Q 2688 -1331 1869 -1331 
Q 1566 -1331 1297 -1286 
Q 1028 -1241 775 -1147 
L 775 -588 
Q 1028 -725 1275 -790 
Q 1522 -856 1778 -856 
Q 2344 -856 2625 -561 
Q 2906 -266 2906 331 
L 2906 616 
Q 2728 306 2450 153 
Q 2172 0 1784 0 
Q 1141 0 747 490 
Q 353 981 353 1791 
Q 353 2603 747 3093 
Q 1141 3584 1784 3584 
Q 2172 3584 2450 3431 
Q 2728 3278 2906 2969 
L 2906 3500 
L 3481 3500 
L 3481 434 
z
" transform="scale(0.015625)"/>
     <path id="DejaVuSans-6c" d="M 603 4863 
L 1178 4863 
L 1178 0 
L 603 0 
L 603 4863 
z
" transform="scale(0.015625)"/>
    </defs>
    <use xlink:href="#DejaVuSans-47" transform="translate(0 0.015625)"/>
    <use xlink:href="#DejaVuSans-65" transform="translate(77.490234 0.015625)"/>
    <use xlink:href="#DejaVuSans-6e" transform="translate(139.013672 0.015625)"/>
    <use xlink:href="#DejaVuSans-65" transform="translate(202.392578 0.015625)"/>
    <use xlink:href="#DejaVuSans-72" transform="translate(263.916016 0.015625)"/>
    <use xlink:href="#DejaVuSans-61" transform="translate(305.029297 0.015625)"/>
    <use xlink:href="#DejaVuSans-74" transform="translate(366.308594 0.015625)"/>
    <use xlink:href="#DejaVuSans-65" transform="translate(405.517578 0.015625)"/>
    <use xlink:href="#DejaVuSans-64" transform="translate(467.041016 0.015625)"/>
    <use xlink:href="#DejaVuSans-20" transform="translate(530.517578 0.015625)"/>
    <use xlink:href="#DejaVuSans-73" transform="translate(562.304688 0.015625)"/>
    <use xlink:href="#DejaVuSans-69" transform="translate(614.404297 0.015625)"/>
    <use xlink:href="#DejaVuSans-67" transform="translate(642.1875 0.015625)"/>
    <use xlink:href="#DejaVuSans-6e" transform="translate(705.664062 0.015625)"/>
    <use xlink:href="#DejaVuSans-61" transform="translate(769.042969 0.015625)"/>
    <use xlink:href="#DejaVuSans-6c" transform="translate(830.322266 0.015625)"/>
    <use xlink:href="#DejaVuSans-20" transform="translate(858.105469 0.015625)"/>
    <use xlink:href="#DejaVuSans-Oblique-78" transform="translate(889.892578 0.015625)"/>
    <use xlink:href="#DejaVuSans-28" transform="translate(949.072266 0.015625)"/>
    <use xlink:href="#DejaVuSans-Oblique-74" transform="translate(988.085938 0.015625)"/>
    <use xlink:href="#DejaVuSans-29" transform="translate(1027.294922 0.015625)"/>
   </g>
  </g>
 </g>
 <defs>
  <clipPath id="p69b2912a1e">
   <rect x="52.160938" y="36" width="334.8" height="217.44"/>
  </clipPath>
 </defs>
</svg>
