<?xml version="1.0" encoding="utf-8" standalone="no"?>
<!DOCTYPE svg PUBLIC "-//W3C//DTD SVG 1.1//EN"
  "http://www.w3.org/Graphics/SVG/1.1/DTD/svg11.dtd">
<svg xmlns:xlink="http://www.w3.org/1999/xlink" width="380.482812pt" height="250.593544pt" viewBox="0 0 380.482812 250.593544" xmlns="http://www.w3.org/2000/svg" version="1.1">
 <metadata>
  <rdf:RDF xmlns:dc="http://purl.org/dc/elements/1.1/" xmlns:cc="http://creativecommons.org/ns#" xmlns:rdf="http://www.w3.org/1999/02/22-rdf-syntax-ns#">
   <cc:Work>
    <dc:type rdf:resource="http://purl.org/dc/dcmitype/StillImage"/>
    <dc:date>2022-10-17T15:51:19.825073</dc:date>
    <dc:format>image/svg+xml</dc:format>
    <dc:creator>
     <cc:Agent>
      <dc:title>Matplotlib v3.6.0, https://matplotlib.org/</dc:title>
     </cc:Agent>
    </dc:creator>
   </cc:Work>
  </rdf:RDF>
 </metadata>
 <defs>
  <style type="text/css">*{stroke-linejoin: round; stroke-linecap: butt}</style>
 </defs>
 <g id="figure_1">
  <g id="patch_1">
   <path d="M -0 250.593544 
L 380.482812 250.593544 
L 380.482812 0 
L -0 0 
L -0 250.593544 
z
" style="fill: none"/>
  </g>
  <g id="axes_1">
   <g id="patch_2">
    <path d="M 38.482813 226.715419 
L 373.282813 226.715419 
L 373.282813 9.275419 
L 38.482813 9.275419 
z
" style="fill: #ffffff"/>
   </g>
   <g id="matplotlib.axis_1">
    <g id="xtick_1">
     <g id="line2d_1">
      <defs>
       <path id="m257b6356fa" d="M 0 0 
L 0 3.5 
" style="stroke: #000000; stroke-width: 0.8"/>
      </defs>
      <g>
       <use xlink:href="#m257b6356fa" x="53.700994" y="226.715419" style="stroke: #000000; stroke-width: 0.8"/>
      </g>
     </g>
     <g id="text_1">
      <!-- 0.00 -->
      <g transform="translate(42.568182 241.313857) scale(0.1 -0.1)">
       <defs>
        <path id="DejaVuSans-30" d="M 2034 4250 
Q 1547 4250 1301 3770 
Q 1056 3291 1056 2328 
Q 1056 1369 1301 889 
Q 1547 409 2034 409 
Q 2525 409 2770 889 
Q 3016 1369 3016 2328 
Q 3016 3291 2770 3770 
Q 2525 4250 2034 4250 
z
M 2034 4750 
Q 2819 4750 3233 4129 
Q 3647 3509 3647 2328 
Q 3647 1150 3233 529 
Q 2819 -91 2034 -91 
Q 1250 -91 836 529 
Q 422 1150 422 2328 
Q 422 3509 836 4129 
Q 1250 4750 2034 4750 
z
" transform="scale(0.015625)"/>
        <path id="DejaVuSans-2e" d="M 684 794 
L 1344 794 
L 1344 0 
L 684 0 
L 684 794 
z
" transform="scale(0.015625)"/>
       </defs>
       <use xlink:href="#DejaVuSans-30"/>
       <use xlink:href="#DejaVuSans-2e" x="63.623047"/>
       <use xlink:href="#DejaVuSans-30" x="95.410156"/>
       <use xlink:href="#DejaVuSans-30" x="159.033203"/>
      </g>
     </g>
    </g>
    <g id="xtick_2">
     <g id="line2d_2">
      <g>
       <use xlink:href="#m257b6356fa" x="91.765481" y="226.715419" style="stroke: #000000; stroke-width: 0.8"/>
      </g>
     </g>
     <g id="text_2">
      <!-- 0.25 -->
      <g transform="translate(80.632669 241.313857) scale(0.1 -0.1)">
       <defs>
        <path id="DejaVuSans-32" d="M 1228 531 
L 3431 531 
L 3431 0 
L 469 0 
L 469 531 
Q 828 903 1448 1529 
Q 2069 2156 2228 2338 
Q 2531 2678 2651 2914 
Q 2772 3150 2772 3378 
Q 2772 3750 2511 3984 
Q 2250 4219 1831 4219 
Q 1534 4219 1204 4116 
Q 875 4013 500 3803 
L 500 4441 
Q 881 4594 1212 4672 
Q 1544 4750 1819 4750 
Q 2544 4750 2975 4387 
Q 3406 4025 3406 3419 
Q 3406 3131 3298 2873 
Q 3191 2616 2906 2266 
Q 2828 2175 2409 1742 
Q 1991 1309 1228 531 
z
" transform="scale(0.015625)"/>
        <path id="DejaVuSans-35" d="M 691 4666 
L 3169 4666 
L 3169 4134 
L 1269 4134 
L 1269 2991 
Q 1406 3038 1543 3061 
Q 1681 3084 1819 3084 
Q 2600 3084 3056 2656 
Q 3513 2228 3513 1497 
Q 3513 744 3044 326 
Q 2575 -91 1722 -91 
Q 1428 -91 1123 -41 
Q 819 9 494 109 
L 494 744 
Q 775 591 1075 516 
Q 1375 441 1709 441 
Q 2250 441 2565 725 
Q 2881 1009 2881 1497 
Q 2881 1984 2565 2268 
Q 2250 2553 1709 2553 
Q 1456 2553 1204 2497 
Q 953 2441 691 2322 
L 691 4666 
z
" transform="scale(0.015625)"/>
       </defs>
       <use xlink:href="#DejaVuSans-30"/>
       <use xlink:href="#DejaVuSans-2e" x="63.623047"/>
       <use xlink:href="#DejaVuSans-32" x="95.410156"/>
       <use xlink:href="#DejaVuSans-35" x="159.033203"/>
      </g>
     </g>
    </g>
    <g id="xtick_3">
     <g id="line2d_3">
      <g>
       <use xlink:href="#m257b6356fa" x="129.829968" y="226.715419" style="stroke: #000000; stroke-width: 0.8"/>
      </g>
     </g>
     <g id="text_3">
      <!-- 0.50 -->
      <g transform="translate(118.697155 241.313857) scale(0.1 -0.1)">
       <use xlink:href="#DejaVuSans-30"/>
       <use xlink:href="#DejaVuSans-2e" x="63.623047"/>
       <use xlink:href="#DejaVuSans-35" x="95.410156"/>
       <use xlink:href="#DejaVuSans-30" x="159.033203"/>
      </g>
     </g>
    </g>
    <g id="xtick_4">
     <g id="line2d_4">
      <g>
       <use xlink:href="#m257b6356fa" x="167.894455" y="226.715419" style="stroke: #000000; stroke-width: 0.8"/>
      </g>
     </g>
     <g id="text_4">
      <!-- 0.75 -->
      <g transform="translate(156.761642 241.313857) scale(0.1 -0.1)">
       <defs>
        <path id="DejaVuSans-37" d="M 525 4666 
L 3525 4666 
L 3525 4397 
L 1831 0 
L 1172 0 
L 2766 4134 
L 525 4134 
L 525 4666 
z
" transform="scale(0.015625)"/>
       </defs>
       <use xlink:href="#DejaVuSans-30"/>
       <use xlink:href="#DejaVuSans-2e" x="63.623047"/>
       <use xlink:href="#DejaVuSans-37" x="95.410156"/>
       <use xlink:href="#DejaVuSans-35" x="159.033203"/>
      </g>
     </g>
    </g>
    <g id="xtick_5">
     <g id="line2d_5">
      <g>
       <use xlink:href="#m257b6356fa" x="205.958941" y="226.715419" style="stroke: #000000; stroke-width: 0.8"/>
      </g>
     </g>
     <g id="text_5">
      <!-- 1.00 -->
      <g transform="translate(194.826129 241.313857) scale(0.1 -0.1)">
       <defs>
        <path id="DejaVuSans-31" d="M 794 531 
L 1825 531 
L 1825 4091 
L 703 3866 
L 703 4441 
L 1819 4666 
L 2450 4666 
L 2450 531 
L 3481 531 
L 3481 0 
L 794 0 
L 794 531 
z
" transform="scale(0.015625)"/>
       </defs>
       <use xlink:href="#DejaVuSans-31"/>
       <use xlink:href="#DejaVuSans-2e" x="63.623047"/>
       <use xlink:href="#DejaVuSans-30" x="95.410156"/>
       <use xlink:href="#DejaVuSans-30" x="159.033203"/>
      </g>
     </g>
    </g>
    <g id="xtick_6">
     <g id="line2d_6">
      <g>
       <use xlink:href="#m257b6356fa" x="244.023428" y="226.715419" style="stroke: #000000; stroke-width: 0.8"/>
      </g>
     </g>
     <g id="text_6">
      <!-- 1.25 -->
      <g transform="translate(232.890616 241.313857) scale(0.1 -0.1)">
       <use xlink:href="#DejaVuSans-31"/>
       <use xlink:href="#DejaVuSans-2e" x="63.623047"/>
       <use xlink:href="#DejaVuSans-32" x="95.410156"/>
       <use xlink:href="#DejaVuSans-35" x="159.033203"/>
      </g>
     </g>
    </g>
    <g id="xtick_7">
     <g id="line2d_7">
      <g>
       <use xlink:href="#m257b6356fa" x="282.087915" y="226.715419" style="stroke: #000000; stroke-width: 0.8"/>
      </g>
     </g>
     <g id="text_7">
      <!-- 1.50 -->
      <g transform="translate(270.955103 241.313857) scale(0.1 -0.1)">
       <use xlink:href="#DejaVuSans-31"/>
       <use xlink:href="#DejaVuSans-2e" x="63.623047"/>
       <use xlink:href="#DejaVuSans-35" x="95.410156"/>
       <use xlink:href="#DejaVuSans-30" x="159.033203"/>
      </g>
     </g>
    </g>
    <g id="xtick_8">
     <g id="line2d_8">
      <g>
       <use xlink:href="#m257b6356fa" x="320.152402" y="226.715419" style="stroke: #000000; stroke-width: 0.8"/>
      </g>
     </g>
     <g id="text_8">
      <!-- 1.75 -->
      <g transform="translate(309.019589 241.313857) scale(0.1 -0.1)">
       <use xlink:href="#DejaVuSans-31"/>
       <use xlink:href="#DejaVuSans-2e" x="63.623047"/>
       <use xlink:href="#DejaVuSans-37" x="95.410156"/>
       <use xlink:href="#DejaVuSans-35" x="159.033203"/>
      </g>
     </g>
    </g>
    <g id="xtick_9">
     <g id="line2d_9">
      <g>
       <use xlink:href="#m257b6356fa" x="358.216889" y="226.715419" style="stroke: #000000; stroke-width: 0.8"/>
      </g>
     </g>
     <g id="text_9">
      <!-- 2.00 -->
      <g transform="translate(347.084076 241.313857) scale(0.1 -0.1)">
       <use xlink:href="#DejaVuSans-32"/>
       <use xlink:href="#DejaVuSans-2e" x="63.623047"/>
       <use xlink:href="#DejaVuSans-30" x="95.410156"/>
       <use xlink:href="#DejaVuSans-30" x="159.033203"/>
      </g>
     </g>
    </g>
   </g>
   <g id="matplotlib.axis_2">
    <g id="ytick_1">
     <g id="line2d_10">
      <defs>
       <path id="m4982fbc653" d="M 0 0 
L -3.5 0 
" style="stroke: #000000; stroke-width: 0.8"/>
      </defs>
      <g>
       <use xlink:href="#m4982fbc653" x="38.482813" y="198.119732" style="stroke: #000000; stroke-width: 0.8"/>
      </g>
     </g>
     <g id="text_10">
      <!-- −1.0 -->
      <g transform="translate(7.2 201.91895) scale(0.1 -0.1)">
       <defs>
        <path id="DejaVuSans-2212" d="M 678 2272 
L 4684 2272 
L 4684 1741 
L 678 1741 
L 678 2272 
z
" transform="scale(0.015625)"/>
       </defs>
       <use xlink:href="#DejaVuSans-2212"/>
       <use xlink:href="#DejaVuSans-31" x="83.789062"/>
       <use xlink:href="#DejaVuSans-2e" x="147.412109"/>
       <use xlink:href="#DejaVuSans-30" x="179.199219"/>
      </g>
     </g>
    </g>
    <g id="ytick_2">
     <g id="line2d_11">
      <g>
       <use xlink:href="#m4982fbc653" x="38.482813" y="160.695629" style="stroke: #000000; stroke-width: 0.8"/>
      </g>
     </g>
     <g id="text_11">
      <!-- −0.5 -->
      <g transform="translate(7.2 164.494848) scale(0.1 -0.1)">
       <use xlink:href="#DejaVuSans-2212"/>
       <use xlink:href="#DejaVuSans-30" x="83.789062"/>
       <use xlink:href="#DejaVuSans-2e" x="147.412109"/>
       <use xlink:href="#DejaVuSans-35" x="179.199219"/>
      </g>
     </g>
    </g>
    <g id="ytick_3">
     <g id="line2d_12">
      <g>
       <use xlink:href="#m4982fbc653" x="38.482813" y="123.271527" style="stroke: #000000; stroke-width: 0.8"/>
      </g>
     </g>
     <g id="text_12">
      <!-- 0.0 -->
      <g transform="translate(15.579688 127.070745) scale(0.1 -0.1)">
       <use xlink:href="#DejaVuSans-30"/>
       <use xlink:href="#DejaVuSans-2e" x="63.623047"/>
       <use xlink:href="#DejaVuSans-30" x="95.410156"/>
      </g>
     </g>
    </g>
    <g id="ytick_4">
     <g id="line2d_13">
      <g>
       <use xlink:href="#m4982fbc653" x="38.482813" y="85.847424" style="stroke: #000000; stroke-width: 0.8"/>
      </g>
     </g>
     <g id="text_13">
      <!-- 0.5 -->
      <g transform="translate(15.579688 89.646643) scale(0.1 -0.1)">
       <use xlink:href="#DejaVuSans-30"/>
       <use xlink:href="#DejaVuSans-2e" x="63.623047"/>
       <use xlink:href="#DejaVuSans-35" x="95.410156"/>
      </g>
     </g>
    </g>
    <g id="ytick_5">
     <g id="line2d_14">
      <g>
       <use xlink:href="#m4982fbc653" x="38.482813" y="48.423321" style="stroke: #000000; stroke-width: 0.8"/>
      </g>
     </g>
     <g id="text_14">
      <!-- 1.0 -->
      <g transform="translate(15.579688 52.22254) scale(0.1 -0.1)">
       <use xlink:href="#DejaVuSans-31"/>
       <use xlink:href="#DejaVuSans-2e" x="63.623047"/>
       <use xlink:href="#DejaVuSans-30" x="95.410156"/>
      </g>
     </g>
    </g>
    <g id="ytick_6">
     <g id="line2d_15">
      <g>
       <use xlink:href="#m4982fbc653" x="38.482813" y="10.999219" style="stroke: #000000; stroke-width: 0.8"/>
      </g>
     </g>
     <g id="text_15">
      <!-- 1.5 -->
      <g transform="translate(15.579688 14.798437) scale(0.1 -0.1)">
       <use xlink:href="#DejaVuSans-31"/>
       <use xlink:href="#DejaVuSans-2e" x="63.623047"/>
       <use xlink:href="#DejaVuSans-35" x="95.410156"/>
      </g>
     </g>
    </g>
   </g>
   <g id="line2d_16">
    <path d="M 53.700994 115.844819 
L 54.919058 58.765157 
L 55.071316 36.997265 
L 55.223574 130.350445 
L 56.289379 58.271204 
L 56.441637 30.915256 
L 56.593895 123.318481 
L 57.507443 58.263029 
L 57.659701 48.840742 
L 57.811959 29.71127 
L 57.964217 123.271527 
L 59.030022 29.71127 
L 59.18228 123.271527 
L 60.248086 29.71127 
L 60.400344 123.271527 
L 61.313892 29.71127 
L 61.46615 123.271527 
L 62.379697 29.71127 
L 62.531955 123.271527 
L 63.445503 29.71127 
L 63.597761 123.271527 
L 64.359051 59.330258 
L 64.511309 48.574348 
L 64.663567 29.71127 
L 64.815824 123.271527 
L 65.577114 62.028867 
L 65.729372 51.833501 
L 65.88163 29.71127 
L 66.033888 123.271527 
L 66.795178 65.921901 
L 66.947436 56.481134 
L 67.099694 29.71127 
L 67.251952 123.271527 
L 68.013241 70.863283 
L 68.317757 54.406232 
L 68.470015 29.71127 
L 68.622273 123.325535 
L 69.231305 87.190711 
L 69.840337 62.952167 
L 69.992595 58.508825 
L 70.144853 38.397532 
L 70.297111 133.517079 
L 70.906142 110.22706 
L 71.362916 99.385692 
L 71.81969 93.35855 
L 72.124206 91.6769 
L 72.276464 91.467787 
L 72.428722 91.651192 
L 72.58098 74.038395 
L 72.733238 170.415114 
L 73.190012 164.044165 
L 73.494527 162.120419 
L 73.646785 161.780903 
L 73.799043 161.825473 
L 73.951301 162.232201 
L 74.103559 162.980048 
L 74.255817 180.12835 
L 74.408075 84.75243 
L 76.082913 149.680765 
L 76.23517 173.408796 
L 76.387428 80.483101 
L 77.605492 155.125838 
L 77.75775 163.557019 
L 77.910008 185.307434 
L 78.062266 93.209241 
L 79.128071 170.703092 
L 79.280329 180.365744 
L 79.432587 200.97231 
L 79.584845 109.024072 
L 80.498393 180.800328 
L 80.650651 191.137711 
L 80.802909 214.945176 
L 80.955167 122.820323 
L 81.716457 178.276903 
L 82.020972 196.781424 
L 82.17323 216.831783 
L 82.325488 123.271527 
L 83.239036 188.289522 
L 83.391294 197.280406 
L 83.543552 216.831783 
L 83.69581 123.271527 
L 84.4571 178.086834 
L 84.761616 196.126218 
L 84.913873 216.831783 
L 85.066131 123.271527 
L 85.827421 176.266019 
L 86.131937 193.540477 
L 86.284195 216.831783 
L 86.436453 123.271527 
L 87.197743 173.556391 
L 87.654517 197.206589 
L 87.806774 216.762781 
L 87.959032 123.051608 
L 88.720322 167.690947 
L 89.329354 192.991433 
L 89.481612 211.196263 
L 89.63387 116.759757 
L 90.39516 153.533462 
L 91.004191 173.690895 
L 91.156449 177.650348 
L 91.308707 197.769525 
L 91.460965 102.857147 
L 92.069997 127.489711 
L 92.679029 144.822533 
L 93.288061 156.303692 
L 93.440319 177.033589 
L 93.592576 81.900508 
L 94.201608 101.324209 
L 94.81064 114.836954 
L 95.419672 123.695288 
L 95.876446 127.914223 
L 96.180962 129.781149 
L 96.33322 147.649722 
L 96.485477 52.641592 
L 96.789993 60.949398 
L 96.942251 45.947771 
L 97.094509 144.285203 
L 97.703541 141.20217 
L 98.617089 135.323529 
L 100.444184 123.271527 
L 100.596442 123.271527 
L 101.814506 114.942117 
L 102.880311 109.015893 
L 103.337085 106.874254 
L 103.489343 87.87211 
L 103.641601 183.134252 
L 104.555149 159.245607 
L 105.468696 141.514039 
L 105.620954 157.223944 
L 105.773212 60.503107 
L 106.382244 66.255957 
L 106.534502 50.340393 
L 106.68676 147.417242 
L 107.600308 132.255569 
L 108.513855 120.631168 
L 109.275145 112.804742 
L 109.427403 93.129482 
L 109.579661 187.89034 
L 110.493209 159.704484 
L 111.406756 137.736645 
L 111.711272 131.450668 
L 111.86353 146.97522 
L 112.015788 50.240111 
L 112.168046 33.728409 
L 112.320304 131.078307 
L 113.38611 110.817234 
L 114.451915 94.080683 
L 114.604173 73.318992 
L 114.756431 168.199971 
L 115.669979 135.354975 
L 116.735784 105.210504 
L 116.888042 84.640786 
L 117.0403 178.456536 
L 117.953848 137.692519 
L 118.867396 105.884629 
L 119.019654 85.012703 
L 119.171912 178.409415 
L 120.085459 133.766923 
L 120.846749 104.841987 
L 120.999007 82.110415 
L 121.151265 175.419021 
L 122.064813 129.623312 
L 122.826102 100.703268 
L 122.97836 79.279112 
L 123.130618 172.688009 
L 123.891908 134.320285 
L 124.653198 105.202719 
L 124.805456 100.323738 
L 124.957714 78.523072 
L 125.109972 172.149092 
L 125.871261 136.005928 
L 126.632551 109.36625 
L 126.937067 100.933776 
L 127.089325 81.316633 
L 127.241583 175.235347 
L 128.002873 142.752114 
L 128.764162 119.606779 
L 129.220936 109.377562 
L 129.373194 88.86916 
L 129.525452 183.089541 
L 130.286742 155.27933 
L 131.048031 136.146801 
L 131.657063 125.78519 
L 131.961579 121.968346 
L 132.113837 103.086175 
L 132.266095 197.550513 
L 132.418353 210.746954 
L 132.570611 111.459072 
L 133.027385 109.893209 
L 133.331901 109.474712 
L 133.636417 109.491438 
L 133.940932 109.892354 
L 134.397706 111.111801 
L 135.006738 113.670384 
L 135.61577 117.021504 
L 135.768028 99.694503 
L 135.920286 195.457979 
L 136.072544 192.616464 
L 136.224802 207.173193 
L 136.37706 109.19505 
L 137.899639 124.997888 
L 139.117703 135.570313 
L 139.269961 154.216637 
L 139.422219 59.33178 
L 140.335766 86.076742 
L 141.097056 102.963755 
L 141.249314 87.500533 
L 141.401572 184.450324 
L 142.010604 179.814566 
L 142.162862 196.671942 
L 142.31512 99.634632 
L 143.076409 112.478549 
L 143.837699 121.668648 
L 144.446731 126.846377 
L 145.055763 130.410723 
L 145.208021 149.585625 
L 145.360279 54.521817 
L 145.96931 70.447625 
L 146.121568 55.816806 
L 146.273826 153.77097 
L 148.709953 139.380082 
L 148.862211 155.745597 
L 149.014469 59.828963 
L 149.775759 73.221545 
L 149.928017 57.481539 
L 150.080275 154.848173 
L 150.993823 144.397286 
L 151.90737 136.371133 
L 152.66866 131.374409 
L 152.820918 130.551163 
L 152.973176 147.440043 
L 153.125434 51.802353 
L 153.277692 55.013713 
L 153.42995 39.81306 
L 153.582208 138.067284 
L 154.191239 134.454543 
L 154.800271 132.073759 
L 155.257045 131.040356 
L 155.561561 130.689754 
L 155.866077 130.598209 
L 156.170593 130.756102 
L 156.475109 131.153993 
L 156.627367 149.552229 
L 156.779625 54.375983 
L 157.388656 70.645962 
L 157.540914 56.163428 
L 157.693172 154.360623 
L 157.997688 153.925591 
L 158.302204 153.857731 
L 158.60672 154.128902 
L 158.911236 154.712449 
L 159.36801 156.118336 
L 159.520268 156.716408 
L 159.672526 173.778217 
L 159.824783 78.225287 
L 160.890589 108.693816 
L 162.108653 136.881433 
L 162.260911 155.321 
L 162.413169 61.425262 
L 163.326716 99.86061 
L 164.240264 130.236912 
L 164.392522 134.645388 
L 164.54478 154.683704 
L 164.697038 61.304323 
L 165.610585 104.273246 
L 166.524133 136.809 
L 166.676391 157.856365 
L 166.828649 64.519004 
L 167.742197 107.968297 
L 168.503486 134.956862 
L 168.655744 139.503657 
L 168.808002 159.886772 
L 168.96026 66.351509 
L 169.72155 101.575685 
L 170.48284 127.665185 
L 170.787356 135.952379 
L 170.939614 158.303781 
L 171.091872 64.462164 
L 171.853161 96.117505 
L 172.614451 118.703852 
L 173.223483 131.515629 
L 173.375741 151.134451 
L 173.527999 56.950643 
L 174.289288 83.655352 
L 175.050578 102.051301 
L 175.202836 104.907749 
L 175.355094 88.986723 
L 175.507352 185.737696 
L 176.116384 179.161185 
L 176.268642 195.542202 
L 176.4209 98.205573 
L 177.029932 105.832356 
L 177.638963 110.81984 
L 178.247995 113.795299 
L 178.704769 115.0329 
L 179.161543 115.641434 
L 179.313801 97.36364 
L 179.466059 192.733581 
L 179.922833 181.70546 
L 180.07509 196.208854 
L 180.227348 98.09203 
L 180.988638 101.548436 
L 182.663476 107.834773 
L 182.815734 89.904633 
L 182.967991 185.779016 
L 183.729281 172.380687 
L 183.881539 189.014533 
L 184.033797 91.741549 
L 186.317666 125.803934 
L 186.622182 130.848886 
L 186.77444 151.088063 
L 186.926698 57.029154 
L 188.29702 112.049046 
L 188.906051 133.994754 
L 189.058309 153.826552 
L 189.210567 61.093642 
L 190.428631 129.648219 
L 190.733147 144.794677 
L 190.885405 167.387781 
L 191.037663 75.251279 
L 192.103468 146.983958 
L 192.255726 156.057557 
L 192.407984 182.897347 
L 192.560242 91.003667 
L 193.778306 198.174732 
L 193.930564 106.320244 
L 194.844111 178.675521 
L 194.996369 189.178214 
L 195.148627 213.162806 
L 195.300885 121.189096 
L 195.909917 168.724709 
L 196.366691 197.642317 
L 196.518949 216.831783 
L 196.671207 123.271527 
L 197.737012 216.831783 
L 197.88927 123.271527 
L 198.955076 216.831783 
L 199.107334 123.271527 
L 199.868624 179.463416 
L 200.173139 197.889897 
L 200.325397 216.831783 
L 200.477655 123.271527 
L 201.238945 177.058647 
L 201.543461 194.450838 
L 201.695719 216.831783 
L 201.847977 123.271527 
L 202.609267 173.257336 
L 203.06604 195.998807 
L 203.218298 216.138943 
L 203.370556 122.117118 
L 203.979588 155.777858 
L 204.58862 178.870471 
L 204.740878 183.192506 
L 204.893136 205.362535 
L 205.045394 110.252355 
L 205.654426 133.511405 
L 206.111199 144.712823 
L 206.567973 151.316017 
L 206.872489 153.458188 
L 207.024747 153.911726 
L 207.177005 153.978619 
L 207.329263 171.532369 
L 207.481521 75.315093 
L 207.938295 82.492104 
L 208.242811 84.915392 
L 208.547327 85.663738 
L 208.699585 85.462699 
L 208.851842 84.904767 
L 209.0041 67.415395 
L 209.156358 162.856583 
L 210.831196 98.478974 
L 210.983454 74.18215 
L 211.135712 167.032489 
L 212.658291 60.834125 
L 212.810549 152.737896 
L 214.028613 44.749528 
L 214.180871 136.435668 
L 215.094418 60.956494 
L 215.246676 49.980483 
L 215.398934 29.71127 
L 215.551192 123.271527 
L 216.616998 29.71127 
L 216.769256 123.271527 
L 217.835061 29.71127 
L 217.987319 123.271527 
L 218.748609 65.66281 
L 218.900867 55.926995 
L 219.053125 29.71127 
L 219.205383 123.271527 
L 219.966673 67.613932 
L 220.271189 49.577677 
L 220.423446 29.71127 
L 220.575704 123.271527 
L 221.336994 71.368426 
L 221.64151 54.835997 
L 221.793768 29.71127 
L 221.946026 123.271527 
L 222.555058 85.8642 
L 223.16409 59.807213 
L 223.316347 54.853873 
L 223.468605 36.291358 
L 223.620863 131.143284 
L 224.229895 105.213208 
L 224.838927 89.338315 
L 225.295701 83.021642 
L 225.447959 81.857485 
L 225.600217 62.785712 
L 225.752475 158.837646 
L 226.209248 149.077167 
L 226.666022 143.996766 
L 226.970538 142.882212 
L 227.122796 142.939396 
L 227.275054 143.378347 
L 227.57957 145.322669 
L 227.731828 146.790436 
L 227.884086 165.931528 
L 228.036344 71.224991 
L 229.711181 142.928897 
L 229.863439 166.695617 
L 230.015697 74.273539 
L 231.233761 154.567659 
L 231.386019 182.018794 
L 231.538277 90.346889 
L 232.75634 200.017737 
L 232.908598 108.524375 
L 234.126662 216.831783 
L 234.27892 123.271527 
L 235.344725 216.831783 
L 235.496983 123.271527 
L 236.562789 216.831783 
L 236.715047 123.271527 
L 237.780852 216.831783 
L 237.93311 123.271527 
L 238.6944 181.099688 
L 238.846658 190.813467 
L 238.998916 216.831783 
L 239.151174 123.271527 
L 239.912464 178.484585 
L 240.21698 196.280781 
L 240.369238 216.831783 
L 240.521495 123.271527 
L 241.282785 174.287685 
L 241.739559 197.758716 
L 241.891817 216.618264 
L 242.044075 122.760113 
L 242.653107 157.653262 
L 243.262139 181.763103 
L 243.414396 186.323773 
L 243.566654 207.239042 
L 243.718912 112.237717 
L 244.327944 136.785711 
L 244.936976 152.051097 
L 245.39375 158.420721 
L 245.698266 160.591845 
L 245.850524 178.189446 
L 246.002782 82.240372 
L 246.459555 92.136162 
L 246.916329 97.908865 
L 247.220845 99.785017 
L 247.373103 100.196494 
L 247.525361 100.283795 
L 247.677619 100.066078 
L 247.829877 99.561738 
L 247.982135 80.126552 
L 248.134393 175.396765 
L 250.113746 107.995236 
L 250.266004 87.11496 
L 250.418262 180.127262 
L 251.484068 121.359753 
L 251.940842 99.572203 
L 252.093099 76.796691 
L 252.245357 169.277568 
L 253.158905 111.610831 
L 253.615679 87.659739 
L 253.767937 64.993649 
L 253.920195 157.565719 
L 254.833743 99.368934 
L 255.290516 76.291584 
L 255.442774 56.02039 
L 255.595032 149.017485 
L 256.356322 102.295518 
L 256.965354 73.970235 
L 257.117612 52.764519 
L 257.26987 146.371969 
L 258.031159 105.445987 
L 258.792449 77.41792 
L 258.944707 57.409656 
L 259.096965 151.763364 
L 259.705997 124.902277 
L 260.315029 106.383292 
L 260.92406 94.9515 
L 261.076318 93.073033 
L 261.228576 75.67518 
L 261.380834 170.914432 
L 261.989866 154.492918 
L 262.44664 147.038223 
L 262.903414 143.164185 
L 263.20793 142.340468 
L 263.360188 142.408936 
L 263.512445 160.093382 
L 263.664703 64.830013 
L 265.491799 126.67207 
L 265.644057 132.095225 
L 265.796315 154.843848 
L 265.948573 62.121037 
L 267.318894 141.792807 
L 267.471152 149.864141 
L 267.62341 170.516566 
L 267.775668 78.675402 
L 268.841474 155.738149 
L 268.993732 165.526947 
L 269.14599 189.058933 
L 269.298247 97.448309 
L 270.516311 206.468045 
L 270.668569 114.779656 
L 271.429859 178.7858 
L 271.734375 197.67397 
L 271.886633 216.831783 
L 272.038891 123.271527 
L 273.104696 216.831783 
L 273.256954 123.271527 
L 274.32276 216.831783 
L 274.475018 123.271527 
L 275.236307 180.063177 
L 275.388565 189.640667 
L 275.540823 216.831783 
L 275.693081 123.271527 
L 276.454371 177.91828 
L 276.758887 195.592706 
L 276.911145 216.831783 
L 277.063403 123.271527 
L 277.824693 174.02987 
L 278.281466 197.338598 
L 278.433724 216.51278 
L 278.585982 122.600053 
L 279.195014 156.942018 
L 279.804046 180.251513 
L 279.956304 184.555238 
L 280.108562 206.164729 
L 280.26082 111.008906 
L 280.869851 133.752661 
L 281.326625 144.236873 
L 281.783399 149.830757 
L 282.087915 151.132943 
L 282.240173 151.115125 
L 282.392431 150.675826 
L 282.544689 149.832483 
L 282.696947 166.831066 
L 282.849205 70.247761 
L 283.153721 73.475364 
L 283.458237 74.667295 
L 283.610495 74.556745 
L 283.762752 74.003656 
L 283.91501 55.414611 
L 284.067268 151.099995 
L 285.133074 107.693387 
L 285.589848 87.071751 
L 285.742106 62.163872 
L 285.894364 154.777495 
L 287.264685 45.713706 
L 287.416943 136.92783 
L 288.482749 29.71127 
L 288.635007 123.271527 
L 289.548554 29.71127 
L 289.700812 123.271527 
L 290.61436 29.71127 
L 290.766618 123.271527 
L 291.527908 29.71127 
L 291.680166 123.271527 
L 292.441455 29.71127 
L 292.593713 123.271527 
L 293.355003 29.71127 
L 293.507261 123.271527 
L 294.268551 29.71127 
L 294.420809 123.271527 
L 295.182099 29.71127 
L 295.334356 123.271527 
L 296.095646 29.71127 
L 296.247904 123.271527 
L 297.009194 29.71127 
L 297.161452 123.271527 
L 297.922742 29.71127 
L 298.075 123.271527 
L 298.836289 29.71127 
L 298.988547 123.271527 
L 299.749837 29.71127 
L 299.902095 123.271527 
L 300.815643 29.71127 
L 300.9679 123.271527 
L 301.881448 29.71127 
L 302.033706 123.271527 
L 302.794996 60.465961 
L 302.947254 50.336567 
L 303.099512 29.71127 
L 303.25177 123.271527 
L 304.013059 68.374711 
L 304.317575 51.599912 
L 304.469833 29.71127 
L 304.622091 123.271527 
L 305.231123 87.716373 
L 305.840155 65.93342 
L 305.992413 62.336452 
L 306.144671 40.757654 
L 306.296929 136.37645 
L 306.753702 121.672407 
L 307.210476 113.20805 
L 307.514992 110.56593 
L 307.66725 110.050106 
L 307.819508 110.031938 
L 307.971766 110.483558 
L 308.276282 112.690322 
L 308.733056 118.889694 
L 309.18983 128.015797 
L 309.342088 149.941368 
L 309.494346 56.499611 
L 311.016925 136.45749 
L 311.169183 162.176528 
L 311.321441 70.421641 
L 312.691762 182.798652 
L 312.84402 91.488679 
L 314.062084 202.970023 
L 314.214342 111.56945 
L 315.280148 216.831783 
L 315.432405 123.271527 
L 316.498211 216.831783 
L 316.650469 123.271527 
L 317.716275 216.831783 
L 317.868533 123.271527 
L 318.629822 179.090672 
L 318.934338 197.227133 
L 319.086596 216.831783 
L 319.238854 123.271527 
L 320.000144 175.579319 
L 320.30466 192.274991 
L 320.456918 216.831783 
L 320.609176 123.271527 
L 321.370465 169.268932 
L 321.979497 193.562871 
L 322.131755 211.27329 
L 322.284013 116.511116 
L 322.893045 143.31856 
L 323.502077 159.968153 
L 323.958851 166.812527 
L 324.111108 168.144438 
L 324.263366 185.854187 
L 324.415624 89.868625 
L 324.872398 100.329696 
L 325.329172 106.064111 
L 325.633688 107.596229 
L 325.785946 107.74389 
L 325.938204 107.507843 
L 326.24272 105.965485 
L 326.547236 103.123485 
L 326.699494 83.929486 
L 326.851752 178.516392 
L 328.526589 107.140085 
L 328.678847 82.538496 
L 328.831105 174.989338 
L 330.049168 96.775202 
L 330.201426 87.928904 
L 330.353684 66.176212 
L 330.505942 157.940361 
L 331.724006 49.484213 
L 331.876264 141.184015 
L 332.789811 67.67673 
L 332.942069 57.075026 
L 333.094327 33.520983 
L 333.246585 125.462739 
L 333.855617 77.904129 
L 334.312391 49.26394 
L 334.464649 29.71127 
L 334.616907 123.271527 
L 335.530455 58.072206 
L 335.682712 49.091063 
L 335.83497 29.71127 
L 335.987228 123.271527 
L 336.748518 68.797869 
L 337.053034 50.9919 
L 337.205292 29.71127 
L 337.35755 123.271527 
L 338.11884 71.453022 
L 338.423355 54.738185 
L 338.575613 29.71127 
L 338.727871 123.271527 
L 339.489161 75.840075 
L 339.945935 55.088021 
L 340.098193 32.375641 
L 340.250451 126.679842 
L 340.859483 95.125081 
L 341.468514 73.123931 
L 341.77303 65.16995 
L 341.925288 46.165631 
L 342.077546 141.285504 
L 342.686578 118.336742 
L 343.29561 103.443665 
L 343.752384 96.602702 
L 344.209157 92.825711 
L 344.361415 75.813337 
L 344.513673 171.444837 
L 345.122705 157.38232 
L 345.579479 150.688565 
L 346.036253 146.641702 
L 346.340769 145.157444 
L 346.493027 163.069412 
L 346.645285 67.255855 
L 348.167864 102.902545 
L 349.23367 123.612071 
L 349.385928 142.605715 
L 349.538186 48.71534 
L 349.690444 36.389803 
L 349.842702 136.299698 
L 350.603991 145.240504 
L 351.213023 150.304411 
L 351.669797 152.793701 
L 351.974313 153.805031 
L 352.126571 171.748031 
L 352.278829 75.944284 
L 352.88786 89.816301 
L 353.496892 98.803779 
L 353.953666 102.640386 
L 354.258182 103.920779 
L 354.41044 86.58885 
L 354.562698 182.205103 
L 356.542051 126.140064 
L 356.846567 116.804388 
L 356.998825 97.041218 
L 357.151083 189.911301 
L 358.064631 138.186706 
L 358.064631 138.186706 
" clip-path="url(#p8cb7b2ab0c)" style="fill: none; stroke: #1f77b4; stroke-width: 1.5; stroke-linecap: square"/>
   </g>
   <g id="line2d_17">
    <path d="M 53.700994 94.946705 
L 56.593895 74.054731 
L 57.964217 65.751115 
L 59.030022 60.534096 
L 59.94357 57.118119 
L 60.70486 55.104541 
L 61.313892 54.076357 
L 61.770666 53.658087 
L 62.227439 53.548761 
L 62.684213 53.752006 
L 63.140987 54.269383 
L 63.750019 55.446699 
L 64.359051 57.174463 
L 65.12034 60.087474 
L 66.033888 64.634082 
L 67.099694 71.264967 
L 68.317757 80.349393 
L 69.840337 93.435443 
L 72.58098 119.360341 
L 75.017107 141.548064 
L 76.539686 153.505783 
L 77.75775 161.501805 
L 78.823556 167.156723 
L 79.737103 170.926813 
L 80.498393 173.283049 
L 81.259683 174.920204 
L 81.868715 175.717659 
L 82.325488 176.023173 
L 82.782262 176.084472 
L 83.239036 175.909012 
L 83.69581 175.505583 
L 84.304842 174.630568 
L 85.066131 173.033417 
L 85.979679 170.457696 
L 87.045485 166.688849 
L 88.415806 160.936661 
L 90.699675 150.177095 
L 93.288061 138.234544 
L 94.81064 132.159067 
L 96.180962 127.582811 
L 97.399025 124.304529 
L 98.464831 122.051634 
L 99.530636 120.343244 
L 100.444184 119.270537 
L 101.357732 118.509377 
L 102.423537 117.939357 
L 103.641601 117.58491 
L 105.92547 117.256553 
L 107.44805 116.901544 
L 108.666113 116.364755 
L 109.731919 115.648748 
L 110.797725 114.678751 
L 112.015788 113.261954 
L 113.38611 111.323965 
L 115.517721 107.849535 
L 118.106106 103.684433 
L 119.476427 101.911538 
L 120.542233 100.894172 
L 121.455781 100.334186 
L 122.217071 100.115053 
L 122.97836 100.137104 
L 123.73965 100.409716 
L 124.50094 100.936408 
L 125.262229 101.714669 
L 126.175777 102.968184 
L 127.241583 104.837271 
L 128.459646 107.433739 
L 130.134484 111.589305 
L 134.85448 123.734208 
L 136.224802 126.473715 
L 137.290607 128.151025 
L 138.204155 129.232805 
L 139.117703 129.96923 
L 139.878992 130.31702 
L 140.640282 130.428759 
L 141.401572 130.316288 
L 142.162862 129.997338 
L 143.076409 129.374981 
L 144.142215 128.381369 
L 145.817052 126.453324 
L 148.405437 123.432455 
L 149.623501 122.353634 
L 150.537049 121.802888 
L 151.450596 121.522721 
L 152.211886 121.519569 
L 152.973176 121.738966 
L 153.734466 122.186486 
L 154.648013 123.022591 
L 155.561561 124.170539 
L 156.627367 125.865537 
L 157.997688 128.501913 
L 160.129299 133.188753 
L 162.413169 138.103201 
L 163.78349 140.533685 
L 164.849296 141.977152 
L 165.762843 142.832293 
L 166.524133 143.244786 
L 167.133165 143.366926 
L 167.742197 143.299408 
L 168.351229 143.041105 
L 169.112518 142.453548 
L 169.873808 141.58306 
L 170.787356 140.193154 
L 171.853161 138.158509 
L 173.223483 135.05076 
L 177.486705 124.938515 
L 178.552511 123.122726 
L 179.313801 122.176403 
L 180.07509 121.57504 
L 180.684122 121.369042 
L 181.293154 121.425814 
L 181.902186 121.75847 
L 182.511218 122.376315 
L 183.272507 123.557256 
L 184.033797 125.192574 
L 184.947345 127.740134 
L 186.01315 131.469257 
L 187.231214 136.60631 
L 188.753793 144.029191 
L 193.778306 169.393593 
L 194.844111 173.396481 
L 195.757659 176.057791 
L 196.518949 177.643472 
L 197.127981 178.456512 
L 197.584754 178.784162 
L 198.041528 178.860283 
L 198.498302 178.67783 
L 198.955076 178.231396 
L 199.564108 177.219355 
L 200.173139 175.727679 
L 200.934429 173.191771 
L 201.847977 169.187036 
L 202.913783 163.260372 
L 204.131846 155.001424 
L 205.654426 142.865267 
L 207.786037 123.771107 
L 210.983454 95.207219 
L 212.506033 83.689271 
L 213.724097 76.19784 
L 214.637644 71.806243 
L 215.398934 69.041907 
L 216.007966 67.453082 
L 216.616998 66.438403 
L 217.073772 66.061981 
L 217.530545 66.018706 
L 217.987319 66.309546 
L 218.444093 66.933436 
L 219.053125 68.277741 
L 219.662157 70.195559 
L 220.423446 73.369728 
L 221.336994 78.249916 
L 222.4028 85.275029 
L 223.773121 96.064919 
L 225.600217 112.595196 
L 230.167955 154.935955 
L 231.538277 165.248519 
L 232.604082 171.848919 
L 233.51763 176.356538 
L 234.27892 179.232115 
L 235.040209 181.267345 
L 235.649241 182.275125 
L 236.106015 182.665541 
L 236.562789 182.742853 
L 237.019563 182.509196 
L 237.476337 181.968552 
L 238.085368 180.780423 
L 238.6944 179.075612 
L 239.45569 176.254872 
L 240.369238 171.935828 
L 241.435043 165.763028 
L 242.805365 156.382324 
L 244.784718 141.009861 
L 248.286651 113.59804 
L 249.80923 103.581895 
L 251.027294 97.060463 
L 251.940842 93.212441 
L 252.702131 90.757357 
L 253.463421 89.023634 
L 254.072453 88.172122 
L 254.529227 87.850462 
L 254.986 87.801629 
L 255.442774 88.024962 
L 255.899548 88.51826 
L 256.50858 89.58931 
L 257.117612 91.120653 
L 257.878901 93.655216 
L 258.792449 97.548027 
L 259.858255 103.143552 
L 261.228576 111.725512 
L 263.055672 124.864242 
L 267.62341 158.586616 
L 268.993732 166.796402 
L 270.059537 172.009431 
L 270.973085 175.506553 
L 271.734375 177.660441 
L 272.343406 178.851453 
L 272.952438 179.547878 
L 273.409212 179.736025 
L 273.865986 179.631951 
L 274.32276 179.231894 
L 274.779534 178.533453 
L 275.388565 177.136467 
L 276.149855 174.644474 
L 276.911145 171.335908 
L 277.824693 166.320904 
L 278.890498 159.107212 
L 280.108562 149.228874 
L 281.631141 134.807204 
L 283.610495 113.581278 
L 288.939523 54.958409 
L 290.462102 41.36065 
L 291.680166 32.457099 
L 292.593713 27.13964 
L 293.507261 23.110593 
L 294.268551 20.80028 
L 294.877583 19.665065 
L 295.334356 19.238711 
L 295.638872 19.159056 
L 295.943388 19.243873 
L 296.400162 19.680059 
L 296.856936 20.486474 
L 297.465968 22.133515 
L 298.075 24.424397 
L 298.836289 28.168759 
L 299.749837 33.895108 
L 300.815643 42.147554 
L 302.033706 53.400132 
L 303.556286 69.646952 
L 305.840155 96.760626 
L 309.037572 134.587096 
L 310.560151 150.213069 
L 311.778215 160.781081 
L 312.84402 168.306704 
L 313.757568 173.325567 
L 314.518858 176.430284 
L 315.12789 178.183607 
L 315.736921 179.276753 
L 316.193695 179.661359 
L 316.498211 179.711002 
L 316.802727 179.596226 
L 317.259501 179.118787 
L 317.716275 178.2807 
L 318.325306 176.616877 
L 319.086596 173.695604 
L 320.000144 169.040572 
L 321.06595 162.197734 
L 322.284013 152.833897 
L 323.958851 138.067229 
L 328.678847 95.293797 
L 330.049168 85.447259 
L 331.114974 79.273442 
L 332.028522 75.166734 
L 332.789811 72.640454 
L 333.398843 71.225968 
L 334.007875 70.357302 
L 334.464649 70.063549 
L 334.921423 70.073264 
L 335.378197 70.381268 
L 335.83497 70.980276 
L 336.444002 72.215215 
L 337.205292 74.420241 
L 338.11884 77.946632 
L 339.184645 83.096033 
L 340.554967 90.949967 
L 345.883995 123.071021 
L 346.949801 127.611993 
L 347.863348 130.548188 
L 348.624638 132.239071 
L 349.23367 133.063906 
L 349.690444 133.363878 
L 350.147217 133.385959 
L 350.603991 133.128173 
L 351.060765 132.590693 
L 351.669797 131.443283 
L 352.278829 129.814363 
L 353.040118 127.129016 
L 353.953666 123.020907 
L 355.019472 117.151044 
L 356.389793 108.24964 
L 358.064631 96.085877 
L 358.064631 96.085877 
" clip-path="url(#p8cb7b2ab0c)" style="fill: none; stroke: #ff7f0e; stroke-width: 1.5; stroke-linecap: square"/>
   </g>
   <g id="line2d_18">
    <path d="M 53.700994 112.597073 
L 54.310026 117.243469 
L 54.919058 119.867373 
L 55.52809 121.34914 
L 56.137121 122.18592 
L 56.746153 122.658465 
L 57.507443 122.971407 
L 58.573249 123.161119 
L 60.70486 123.256584 
L 70.297111 123.271525 
L 358.064631 123.271527 
L 358.064631 123.271527 
" clip-path="url(#p8cb7b2ab0c)" style="fill: none; stroke: #2ca02c; stroke-width: 1.5; stroke-linecap: square"/>
   </g>
   <g id="line2d_19">
    <path d="M 53.700994 148.169525 
L 53.853252 147.457731 
L 54.00551 147.295857 
L 54.157768 147.537924 
L 54.462284 148.760211 
L 55.071316 151.792619 
L 55.223574 154.878536 
L 55.680348 127.065204 
L 56.137121 111.037828 
L 56.898411 93.98451 
L 57.355185 116.705231 
L 57.659701 123.579776 
L 57.964217 125.644977 
L 58.116475 125.240062 
L 58.420991 122.131835 
L 58.725507 116.567582 
L 58.877765 110.45916 
L 59.18228 123.840856 
L 59.486796 128.575838 
L 59.639054 128.459636 
L 59.791312 127.012153 
L 60.095828 120.906214 
L 60.400344 111.571458 
L 60.552602 104.224505 
L 60.857118 115.000527 
L 61.009376 116.752784 
L 61.161634 116.576335 
L 61.313892 114.77918 
L 61.618408 107.348017 
L 61.922923 93.754478 
L 62.227439 102.626718 
L 62.379697 103.388607 
L 62.531955 102.223936 
L 62.836471 95.367701 
L 63.140987 84.146079 
L 63.293245 76.011474 
L 63.597761 85.96282 
L 63.750019 87.424326 
L 63.902277 87.059148 
L 64.206793 82.079226 
L 64.359051 77.971992 
L 64.511309 70.659295 
L 64.815824 81.902895 
L 64.968082 83.836437 
L 65.12034 83.856906 
L 65.272598 82.301487 
L 65.577114 75.576745 
L 65.729372 68.582908 
L 66.033888 80.348709 
L 66.186146 82.506726 
L 66.338404 82.738165 
L 66.490662 81.386724 
L 66.795178 75.069591 
L 66.947436 68.143268 
L 67.251952 80.068537 
L 67.40421 82.367165 
L 67.556468 82.776321 
L 67.708725 81.63731 
L 68.013241 75.840339 
L 68.317757 65.174265 
L 68.622273 77.944064 
L 68.926789 81.685821 
L 69.079047 81.120084 
L 69.383563 76.558566 
L 69.535821 73.017182 
L 69.688079 66.364079 
L 69.992595 79.005953 
L 70.297111 83.340415 
L 70.449369 83.321294 
L 70.601626 82.234489 
L 70.906142 77.777623 
L 71.210658 71.480467 
L 71.362916 65.970352 
L 71.81969 85.907486 
L 72.124206 91.06146 
L 72.428722 92.364384 
L 72.58098 92.08462 
L 72.885496 90.430212 
L 73.34227 86.855098 
L 73.494527 83.076764 
L 73.951301 108.888968 
L 74.408075 122.717801 
L 74.864849 130.395885 
L 75.778397 142.584635 
L 76.23517 119.004708 
L 76.539686 112.212704 
L 76.691944 110.835023 
L 76.844202 110.574146 
L 76.99646 111.285916 
L 77.300976 115.14054 
L 77.605492 121.57265 
L 77.75775 127.991721 
L 78.062266 115.306643 
L 78.366782 111.382273 
L 78.51904 111.930722 
L 78.823556 116.848967 
L 79.128071 125.621445 
L 79.280329 133.686842 
L 79.584845 124.175175 
L 79.737103 122.990088 
L 79.889361 123.697674 
L 80.193877 129.61916 
L 80.498393 139.982021 
L 80.650651 148.702621 
L 80.955167 140.467199 
L 81.107425 140.024143 
L 81.259683 141.50762 
L 81.564199 149.000897 
L 82.020972 169.197966 
L 82.325488 159.603126 
L 82.477746 158.321738 
L 82.630004 158.867961 
L 82.93452 164.212184 
L 83.239036 175.824342 
L 83.543552 164.630707 
L 83.69581 162.768489 
L 83.848068 162.844443 
L 84.000326 164.517825 
L 84.304842 171.531445 
L 84.4571 178.45005 
L 84.761616 166.610341 
L 84.913873 164.492033 
L 85.066131 164.341738 
L 85.218389 165.8098 
L 85.522905 172.446982 
L 85.675163 179.243708 
L 85.979679 167.172337 
L 86.131937 164.907114 
L 86.284195 164.588726 
L 86.436453 165.867476 
L 86.740969 172.063155 
L 86.893227 178.910977 
L 87.197743 166.849335 
L 87.350001 164.480263 
L 87.502259 163.997152 
L 87.654517 165.057703 
L 87.959032 170.681875 
L 88.263548 181.268492 
L 88.568064 168.497753 
L 88.87258 164.659418 
L 89.024838 165.149457 
L 89.329354 169.519026 
L 89.63387 176.958904 
L 89.786128 183.124543 
L 90.090644 169.517641 
L 90.39516 164.114798 
L 90.547418 163.580996 
L 90.699675 164.111209 
L 91.004191 167.465852 
L 91.308707 172.70602 
L 91.460965 178.100197 
L 91.917739 157.68025 
L 92.222255 152.084689 
L 92.526771 150.331002 
L 92.679029 150.399342 
L 92.983545 151.68598 
L 93.592576 156.019544 
L 93.744834 159.492161 
L 94.201608 133.026139 
L 94.658382 118.898379 
L 95.115156 111.357966 
L 95.876446 101.873972 
L 96.33322 126.690412 
L 96.637735 134.849724 
L 96.942251 138.205202 
L 97.094509 138.465907 
L 97.246767 137.948275 
L 97.551283 134.98477 
L 98.008057 126.930464 
L 98.160315 121.286921 
L 98.464831 135.616975 
L 98.769347 141.666952 
L 98.921605 142.335391 
L 99.073863 141.752439 
L 99.378378 137.60214 
L 99.835152 126.162444 
L 99.98741 119.149605 
L 100.291926 130.912519 
L 100.596442 134.336154 
L 100.7487 133.725048 
L 101.053216 129.094584 
L 101.50999 116.387633 
L 101.662248 108.99275 
L 101.966764 120.114956 
L 102.119022 122.384682 
L 102.271279 122.938148 
L 102.423537 122.071656 
L 102.728053 117.061158 
L 103.184827 104.187948 
L 103.337085 97.137394 
L 103.641601 108.996643 
L 103.946117 112.657112 
L 104.098375 112.25923 
L 104.402891 108.301381 
L 104.859665 97.319034 
L 105.011923 90.71855 
L 105.316438 103.627002 
L 105.620954 108.681435 
L 105.773212 109.090376 
L 105.92547 108.436017 
L 106.229986 104.765552 
L 106.68676 95.724813 
L 106.839018 89.99902 
L 107.143534 104.773531 
L 107.44805 112.164052 
L 107.752566 114.59441 
L 107.904824 114.524753 
L 108.209339 112.686754 
L 108.818371 105.630736 
L 108.970629 103.672367 
L 109.122887 99.49351 
L 109.579661 123.657728 
L 110.036435 135.127201 
L 110.340951 138.76354 
L 110.645467 140.614453 
L 111.10224 141.80881 
L 111.254498 142.070363 
L 111.406756 144.81916 
L 111.86353 117.481005 
L 112.168046 108.009686 
L 112.472562 103.605782 
L 112.62482 102.914857 
L 112.777078 103.063395 
L 113.081594 105.469836 
L 113.538368 113.140052 
L 113.690625 118.991452 
L 113.995141 105.134481 
L 114.299657 99.698977 
L 114.451915 99.402303 
L 114.604173 100.405095 
L 114.908689 105.551782 
L 115.365463 118.9149 
L 115.517721 126.232699 
L 115.822237 115.334843 
L 115.974495 113.404334 
L 116.126753 113.344104 
L 116.279011 114.858698 
L 116.583526 121.629723 
L 116.888042 132.077825 
L 117.0403 140.287762 
L 117.344816 131.083985 
L 117.497074 130.094923 
L 117.649332 131.00616 
L 117.953848 137.312506 
L 118.258364 147.975419 
L 118.410622 156.55183 
L 118.715138 148.014511 
L 118.867396 147.418177 
L 119.019654 148.737839 
L 119.32417 155.783972 
L 119.780943 173.977771 
L 120.085459 163.174326 
L 120.237717 161.373601 
L 120.389975 161.444087 
L 120.542233 163.058662 
L 120.846749 169.839481 
L 120.999007 176.983323 
L 121.303523 165.454182 
L 121.455781 163.386648 
L 121.608039 163.235727 
L 121.760297 164.662947 
L 122.064813 171.134313 
L 122.217071 178.105785 
L 122.521586 166.280177 
L 122.673844 164.063603 
L 122.826102 163.758043 
L 122.97836 165.022081 
L 123.282876 171.132459 
L 123.435134 178.104177 
L 123.73965 166.22177 
L 123.891908 163.896472 
L 124.044166 163.435371 
L 124.196424 164.501408 
L 124.50094 170.103515 
L 124.805456 180.748801 
L 125.109972 168.09787 
L 125.414487 164.319103 
L 125.566745 164.82344 
L 125.871261 169.200028 
L 126.175777 176.61828 
L 126.328035 182.81422 
L 126.632551 169.224271 
L 126.937067 163.763784 
L 127.089325 163.175276 
L 127.241583 163.633728 
L 127.546099 166.792175 
L 127.850615 171.760671 
L 128.002873 177.127482 
L 128.459646 156.418796 
L 128.764162 150.391259 
L 129.068678 148.024687 
L 129.220936 147.719461 
L 129.373194 147.793972 
L 129.67771 148.60286 
L 130.286742 150.462361 
L 130.439 150.630642 
L 130.591258 153.200769 
L 131.048031 123.661429 
L 131.504805 105.322322 
L 131.809321 94.014751 
L 132.266095 112.235555 
L 132.570611 116.788783 
L 132.722869 117.302865 
L 132.875127 116.82155 
L 133.179643 113.313249 
L 133.484159 107.014099 
L 133.636417 100.463473 
L 133.940932 112.89605 
L 134.09319 115.539175 
L 134.245448 116.239314 
L 134.397706 115.27072 
L 134.702222 109.244343 
L 135.006738 98.999221 
L 135.158996 91.169517 
L 135.463512 100.656379 
L 135.61577 101.4059 
L 135.768028 100.018 
L 136.072544 92.09208 
L 136.37706 77.963917 
L 136.681576 87.210687 
L 136.833833 88.057653 
L 136.986091 86.921156 
L 137.290607 79.973174 
L 137.442865 72.394075 
L 137.747381 82.839203 
L 137.899639 83.908669 
L 138.051897 82.803272 
L 138.356413 75.485013 
L 138.508671 68.503387 
L 138.813187 79.752622 
L 138.965445 80.919141 
L 139.117703 79.758145 
L 139.269961 76.66812 
L 139.422219 69.528997 
L 139.726734 80.405387 
L 139.878992 81.258574 
L 140.03125 79.726555 
L 140.183508 76.224173 
L 140.335766 69.144149 
L 140.640282 80.020648 
L 140.79254 80.742701 
L 140.944798 79.018518 
L 141.097056 75.279036 
L 141.249314 68.324831 
L 141.55383 79.333803 
L 141.706088 80.012781 
L 141.858346 78.195332 
L 142.010604 74.326176 
L 142.162862 67.498817 
L 142.467378 78.667856 
L 142.619635 79.351753 
L 142.771893 77.506445 
L 143.076409 66.85814 
L 143.380925 78.168192 
L 143.533183 78.887668 
L 143.685441 77.065696 
L 143.989957 66.491406 
L 144.294473 77.901979 
L 144.446731 78.679805 
L 144.598989 76.925886 
L 144.751247 73.104458 
L 144.903505 66.439737 
L 145.208021 77.900187 
L 145.360279 78.755047 
L 145.512536 77.110245 
L 145.664794 73.428172 
L 145.817052 66.720358 
L 146.121568 78.175291 
L 146.273826 79.123216 
L 146.426084 77.625697 
L 146.578342 74.138964 
L 146.7306 67.336528 
L 147.035116 78.728745 
L 147.187374 79.783535 
L 147.339632 78.468463 
L 147.49189 75.229344 
L 147.644148 68.281754 
L 147.948664 79.554147 
L 148.100922 80.727404 
L 148.25318 79.626495 
L 148.557695 72.264178 
L 148.709953 65.711317 
L 149.014469 77.785243 
L 149.166727 79.515378 
L 149.318985 79.051963 
L 149.623501 73.150332 
L 149.775759 66.479504 
L 150.080275 78.552026 
L 150.232533 80.553078 
L 150.384791 80.502177 
L 150.537049 78.791605 
L 150.841565 71.679657 
L 150.993823 65.204609 
L 151.298338 77.837172 
L 151.450596 80.410661 
L 151.602854 81.081266 
L 151.755112 80.212931 
L 152.059628 75.054061 
L 152.364144 64.833403 
L 152.66866 77.882741 
L 152.973176 82.728072 
L 153.125434 83.054615 
L 153.277692 82.391964 
L 153.582208 79.052974 
L 153.886724 74.26337 
L 154.038981 69.019749 
L 154.495755 90.619991 
L 154.952529 100.080322 
L 155.409303 103.831448 
L 156.475109 109.059065 
L 156.931882 113.542391 
L 157.08414 115.514157 
L 157.236398 120.350345 
L 157.540914 104.442033 
L 157.84543 96.762365 
L 157.997688 95.349158 
L 158.149946 95.269002 
L 158.302204 96.342502 
L 158.60672 101.344738 
L 158.911236 109.328298 
L 159.063494 116.732874 
L 159.36801 105.974498 
L 159.520268 104.077298 
L 159.672526 104.045252 
L 159.824783 105.593528 
L 160.129299 112.478956 
L 160.433815 123.136223 
L 160.586073 131.643677 
L 160.890589 123.046484 
L 161.042847 122.370848 
L 161.195105 123.604717 
L 161.499621 130.586057 
L 161.804137 141.960734 
L 161.956395 150.838964 
L 162.260911 142.923232 
L 162.413169 142.657954 
L 162.565427 144.316919 
L 162.869942 152.120519 
L 163.174458 166.430416 
L 163.478974 157.511378 
L 163.631232 156.48075 
L 163.78349 157.224993 
L 164.088006 162.820283 
L 164.392522 174.668629 
L 164.697038 163.712128 
L 164.849296 161.869222 
L 165.001554 161.906267 
L 165.153812 163.487537 
L 165.458328 170.174344 
L 165.610585 177.273609 
L 165.915101 165.630998 
L 166.067359 163.451236 
L 166.219617 163.149829 
L 166.371875 164.387765 
L 166.676391 170.363347 
L 166.980907 181.146122 
L 167.285423 168.442989 
L 167.589939 164.794168 
L 167.742197 165.414343 
L 168.046713 170.097413 
L 168.198971 173.70476 
L 168.351229 180.334048 
L 168.655744 167.683479 
L 168.96026 163.460587 
L 169.112518 163.570162 
L 169.417034 166.804298 
L 169.873808 176.075752 
L 170.026066 181.596686 
L 170.330582 166.407945 
L 170.635098 158.729579 
L 170.939614 155.974217 
L 171.091872 155.832145 
L 171.24413 156.25947 
L 171.548645 158.227743 
L 172.005419 162.300177 
L 172.157677 166.029807 
L 172.614451 140.228927 
L 173.071225 126.66228 
L 173.527999 119.394476 
L 174.289288 112.11639 
L 174.441546 110.727979 
L 174.593804 106.78705 
L 175.050578 130.55579 
L 175.355094 137.419646 
L 175.507352 138.828001 
L 175.65961 139.119784 
L 175.811868 138.441472 
L 176.116384 134.66914 
L 176.4209 128.350129 
L 176.573158 121.864926 
L 176.877674 134.481124 
L 177.182189 138.474813 
L 177.334447 138.006295 
L 177.638963 133.328292 
L 178.095737 119.63649 
L 178.247995 111.977763 
L 178.552511 122.214876 
L 178.704769 123.757861 
L 178.857027 123.409779 
L 179.161543 118.223405 
L 179.466059 108.631725 
L 179.618317 100.057452 
L 179.922833 108.669248 
L 180.07509 109.389617 
L 180.227348 108.234948 
L 180.531864 101.534349 
L 180.83638 90.62278 
L 180.988638 82.169305 
L 181.293154 91.005759 
L 181.445412 91.909189 
L 181.59767 91.115706 
L 181.902186 85.598772 
L 182.206702 76.379275 
L 182.35896 69.278603 
L 182.663476 80.937993 
L 182.815734 83.144005 
L 182.967991 83.470738 
L 183.120249 82.249566 
L 183.424765 76.257696 
L 183.729281 65.427739 
L 184.033797 78.072204 
L 184.338313 81.465043 
L 184.490571 80.645888 
L 184.795087 75.429277 
L 185.099603 65.040201 
L 185.404119 77.854976 
L 185.708635 81.65585 
L 185.860892 81.112772 
L 186.165408 76.564691 
L 186.317666 73.008542 
L 186.469924 66.35659 
L 186.77444 78.956948 
L 187.078956 83.022909 
L 187.231214 82.77715 
L 187.53573 79.141556 
L 187.840246 72.738412 
L 187.992504 66.502398 
L 188.29702 80.250781 
L 188.601535 86.224122 
L 188.753793 87.141854 
L 188.906051 87.03532 
L 189.210567 84.585979 
L 189.667341 77.689435 
L 189.819599 72.760986 
L 190.276373 94.483523 
L 190.580889 100.931714 
L 190.885405 103.433631 
L 191.037663 103.682961 
L 191.189921 103.462887 
L 191.494436 102.075692 
L 192.103468 97.809066 
L 192.255726 94.430448 
L 192.7125 120.841684 
L 193.169274 134.373816 
L 193.626048 140.716122 
L 194.082822 143.357565 
L 194.23508 143.804923 
L 194.387337 146.747237 
L 194.844111 119.19038 
L 195.300885 105.383826 
L 195.605401 101.289396 
L 195.909917 100.037472 
L 196.062175 100.225523 
L 196.366691 101.832975 
L 196.823465 106.410156 
L 197.127981 110.359343 
L 197.280238 114.835579 
L 197.584754 95.324149 
L 198.193786 115.075135 
L 198.955076 132.212895 
L 199.564108 141.605501 
L 199.868624 145.124074 
L 200.020882 149.128478 
L 200.477655 124.013164 
L 200.934429 111.324404 
L 201.391203 105.70772 
L 201.695719 104.151297 
L 202.000235 103.519075 
L 202.152493 103.388862 
L 202.304751 100.804196 
L 202.761525 128.96867 
L 203.218298 142.670222 
L 203.522814 146.276036 
L 203.675072 146.823577 
L 203.82733 146.672208 
L 204.131846 144.605587 
L 204.58862 138.070448 
L 204.740878 135.178075 
L 204.893136 129.852223 
L 205.197652 144.678356 
L 205.502168 151.122146 
L 205.654426 151.923242 
L 205.806684 151.418207 
L 205.958941 149.798385 
L 206.567973 138.251724 
L 207.177005 131.731116 
L 207.786037 128.04881 
L 208.395069 125.969345 
L 209.0041 124.795033 
L 209.613132 124.131879 
L 210.374422 123.692705 
L 211.28797 123.450263 
L 212.810549 123.314361 
L 216.769256 123.272571 
L 339.489161 123.271527 
L 358.064631 123.271527 
L 358.064631 123.271527 
" clip-path="url(#p8cb7b2ab0c)" style="fill: none; stroke: #d62728; stroke-width: 1.5; stroke-linecap: square"/>
   </g>
   <g id="patch_3">
    <path d="M 38.482813 226.715419 
L 38.482813 9.275419 
" style="fill: none; stroke: #000000; stroke-width: 0.8; stroke-linejoin: miter; stroke-linecap: square"/>
   </g>
   <g id="patch_4">
    <path d="M 373.282813 226.715419 
L 373.282813 9.275419 
" style="fill: none; stroke: #000000; stroke-width: 0.8; stroke-linejoin: miter; stroke-linecap: square"/>
   </g>
   <g id="patch_5">
    <path d="M 38.482813 226.715419 
L 373.282812 226.715419 
" style="fill: none; stroke: #000000; stroke-width: 0.8; stroke-linejoin: miter; stroke-linecap: square"/>
   </g>
   <g id="patch_6">
    <path d="M 38.482813 9.275419 
L 373.282812 9.275419 
" style="fill: none; stroke: #000000; stroke-width: 0.8; stroke-linejoin: miter; stroke-linecap: square"/>
   </g>
  </g>
 </g>
 <defs>
  <clipPath id="p8cb7b2ab0c">
   <rect x="38.482813" y="9.275419" width="334.8" height="217.44"/>
  </clipPath>
 </defs>
</svg>
