<?xml version="1.0" encoding="utf-8" standalone="no"?>
<!DOCTYPE svg PUBLIC "-//W3C//DTD SVG 1.1//EN"
  "http://www.w3.org/Graphics/SVG/1.1/DTD/svg11.dtd">
<svg xmlns:xlink="http://www.w3.org/1999/xlink" width="408.475pt" height="290.99625pt" viewBox="0 0 408.475 290.99625" xmlns="http://www.w3.org/2000/svg" version="1.1">
 <metadata>
  <rdf:RDF xmlns:dc="http://purl.org/dc/elements/1.1/" xmlns:cc="http://creativecommons.org/ns#" xmlns:rdf="http://www.w3.org/1999/02/22-rdf-syntax-ns#">
   <cc:Work>
    <dc:type rdf:resource="http://purl.org/dc/dcmitype/StillImage"/>
    <dc:date>2022-10-16T17:43:58.873796</dc:date>
    <dc:format>image/svg+xml</dc:format>
    <dc:creator>
     <cc:Agent>
      <dc:title>Matplotlib v3.6.0, https://matplotlib.org/</dc:title>
     </cc:Agent>
    </dc:creator>
   </cc:Work>
  </rdf:RDF>
 </metadata>
 <defs>
  <style type="text/css">*{stroke-linejoin: round; stroke-linecap: butt}</style>
 </defs>
 <g id="figure_1">
  <g id="patch_1">
   <path d="M 0 290.99625 
L 408.475 290.99625 
L 408.475 0 
L 0 0 
L 0 290.99625 
z
" style="fill: none"/>
  </g>
  <g id="axes_1">
   <g id="patch_2">
    <path d="M 52.160938 253.44 
L 386.960938 253.44 
L 386.960938 36 
L 52.160938 36 
z
" style="fill: #ffffff"/>
   </g>
   <g id="matplotlib.axis_1">
    <g id="xtick_1">
     <g id="line2d_1">
      <defs>
       <path id="m52cf63163d" d="M 0 0 
L 0 3.5 
" style="stroke: #000000; stroke-width: 0.8"/>
      </defs>
      <g>
       <use xlink:href="#m52cf63163d" x="52.160938" y="253.44" style="stroke: #000000; stroke-width: 0.8"/>
      </g>
     </g>
     <g id="text_1">
      <!-- 0.000 -->
      <g transform="translate(37.846875 268.038437) scale(0.1 -0.1)">
       <defs>
        <path id="DejaVuSans-30" d="M 2034 4250 
Q 1547 4250 1301 3770 
Q 1056 3291 1056 2328 
Q 1056 1369 1301 889 
Q 1547 409 2034 409 
Q 2525 409 2770 889 
Q 3016 1369 3016 2328 
Q 3016 3291 2770 3770 
Q 2525 4250 2034 4250 
z
M 2034 4750 
Q 2819 4750 3233 4129 
Q 3647 3509 3647 2328 
Q 3647 1150 3233 529 
Q 2819 -91 2034 -91 
Q 1250 -91 836 529 
Q 422 1150 422 2328 
Q 422 3509 836 4129 
Q 1250 4750 2034 4750 
z
" transform="scale(0.015625)"/>
        <path id="DejaVuSans-2e" d="M 684 794 
L 1344 794 
L 1344 0 
L 684 0 
L 684 794 
z
" transform="scale(0.015625)"/>
       </defs>
       <use xlink:href="#DejaVuSans-30"/>
       <use xlink:href="#DejaVuSans-2e" x="63.623047"/>
       <use xlink:href="#DejaVuSans-30" x="95.410156"/>
       <use xlink:href="#DejaVuSans-30" x="159.033203"/>
       <use xlink:href="#DejaVuSans-30" x="222.65625"/>
      </g>
     </g>
    </g>
    <g id="xtick_2">
     <g id="line2d_2">
      <g>
       <use xlink:href="#m52cf63163d" x="94.010938" y="253.44" style="stroke: #000000; stroke-width: 0.8"/>
      </g>
     </g>
     <g id="text_2">
      <!-- 0.025 -->
      <g transform="translate(79.696875 268.038437) scale(0.1 -0.1)">
       <defs>
        <path id="DejaVuSans-32" d="M 1228 531 
L 3431 531 
L 3431 0 
L 469 0 
L 469 531 
Q 828 903 1448 1529 
Q 2069 2156 2228 2338 
Q 2531 2678 2651 2914 
Q 2772 3150 2772 3378 
Q 2772 3750 2511 3984 
Q 2250 4219 1831 4219 
Q 1534 4219 1204 4116 
Q 875 4013 500 3803 
L 500 4441 
Q 881 4594 1212 4672 
Q 1544 4750 1819 4750 
Q 2544 4750 2975 4387 
Q 3406 4025 3406 3419 
Q 3406 3131 3298 2873 
Q 3191 2616 2906 2266 
Q 2828 2175 2409 1742 
Q 1991 1309 1228 531 
z
" transform="scale(0.015625)"/>
        <path id="DejaVuSans-35" d="M 691 4666 
L 3169 4666 
L 3169 4134 
L 1269 4134 
L 1269 2991 
Q 1406 3038 1543 3061 
Q 1681 3084 1819 3084 
Q 2600 3084 3056 2656 
Q 3513 2228 3513 1497 
Q 3513 744 3044 326 
Q 2575 -91 1722 -91 
Q 1428 -91 1123 -41 
Q 819 9 494 109 
L 494 744 
Q 775 591 1075 516 
Q 1375 441 1709 441 
Q 2250 441 2565 725 
Q 2881 1009 2881 1497 
Q 2881 1984 2565 2268 
Q 2250 2553 1709 2553 
Q 1456 2553 1204 2497 
Q 953 2441 691 2322 
L 691 4666 
z
" transform="scale(0.015625)"/>
       </defs>
       <use xlink:href="#DejaVuSans-30"/>
       <use xlink:href="#DejaVuSans-2e" x="63.623047"/>
       <use xlink:href="#DejaVuSans-30" x="95.410156"/>
       <use xlink:href="#DejaVuSans-32" x="159.033203"/>
       <use xlink:href="#DejaVuSans-35" x="222.65625"/>
      </g>
     </g>
    </g>
    <g id="xtick_3">
     <g id="line2d_3">
      <g>
       <use xlink:href="#m52cf63163d" x="135.860938" y="253.44" style="stroke: #000000; stroke-width: 0.8"/>
      </g>
     </g>
     <g id="text_3">
      <!-- 0.050 -->
      <g transform="translate(121.546875 268.038437) scale(0.1 -0.1)">
       <use xlink:href="#DejaVuSans-30"/>
       <use xlink:href="#DejaVuSans-2e" x="63.623047"/>
       <use xlink:href="#DejaVuSans-30" x="95.410156"/>
       <use xlink:href="#DejaVuSans-35" x="159.033203"/>
       <use xlink:href="#DejaVuSans-30" x="222.65625"/>
      </g>
     </g>
    </g>
    <g id="xtick_4">
     <g id="line2d_4">
      <g>
       <use xlink:href="#m52cf63163d" x="177.710938" y="253.44" style="stroke: #000000; stroke-width: 0.8"/>
      </g>
     </g>
     <g id="text_4">
      <!-- 0.075 -->
      <g transform="translate(163.396875 268.038437) scale(0.1 -0.1)">
       <defs>
        <path id="DejaVuSans-37" d="M 525 4666 
L 3525 4666 
L 3525 4397 
L 1831 0 
L 1172 0 
L 2766 4134 
L 525 4134 
L 525 4666 
z
" transform="scale(0.015625)"/>
       </defs>
       <use xlink:href="#DejaVuSans-30"/>
       <use xlink:href="#DejaVuSans-2e" x="63.623047"/>
       <use xlink:href="#DejaVuSans-30" x="95.410156"/>
       <use xlink:href="#DejaVuSans-37" x="159.033203"/>
       <use xlink:href="#DejaVuSans-35" x="222.65625"/>
      </g>
     </g>
    </g>
    <g id="xtick_5">
     <g id="line2d_5">
      <g>
       <use xlink:href="#m52cf63163d" x="219.560938" y="253.44" style="stroke: #000000; stroke-width: 0.8"/>
      </g>
     </g>
     <g id="text_5">
      <!-- 0.100 -->
      <g transform="translate(205.246875 268.038437) scale(0.1 -0.1)">
       <defs>
        <path id="DejaVuSans-31" d="M 794 531 
L 1825 531 
L 1825 4091 
L 703 3866 
L 703 4441 
L 1819 4666 
L 2450 4666 
L 2450 531 
L 3481 531 
L 3481 0 
L 794 0 
L 794 531 
z
" transform="scale(0.015625)"/>
       </defs>
       <use xlink:href="#DejaVuSans-30"/>
       <use xlink:href="#DejaVuSans-2e" x="63.623047"/>
       <use xlink:href="#DejaVuSans-31" x="95.410156"/>
       <use xlink:href="#DejaVuSans-30" x="159.033203"/>
       <use xlink:href="#DejaVuSans-30" x="222.65625"/>
      </g>
     </g>
    </g>
    <g id="xtick_6">
     <g id="line2d_6">
      <g>
       <use xlink:href="#m52cf63163d" x="261.410937" y="253.44" style="stroke: #000000; stroke-width: 0.8"/>
      </g>
     </g>
     <g id="text_6">
      <!-- 0.125 -->
      <g transform="translate(247.096875 268.038437) scale(0.1 -0.1)">
       <use xlink:href="#DejaVuSans-30"/>
       <use xlink:href="#DejaVuSans-2e" x="63.623047"/>
       <use xlink:href="#DejaVuSans-31" x="95.410156"/>
       <use xlink:href="#DejaVuSans-32" x="159.033203"/>
       <use xlink:href="#DejaVuSans-35" x="222.65625"/>
      </g>
     </g>
    </g>
    <g id="xtick_7">
     <g id="line2d_7">
      <g>
       <use xlink:href="#m52cf63163d" x="303.260938" y="253.44" style="stroke: #000000; stroke-width: 0.8"/>
      </g>
     </g>
     <g id="text_7">
      <!-- 0.150 -->
      <g transform="translate(288.946875 268.038437) scale(0.1 -0.1)">
       <use xlink:href="#DejaVuSans-30"/>
       <use xlink:href="#DejaVuSans-2e" x="63.623047"/>
       <use xlink:href="#DejaVuSans-31" x="95.410156"/>
       <use xlink:href="#DejaVuSans-35" x="159.033203"/>
       <use xlink:href="#DejaVuSans-30" x="222.65625"/>
      </g>
     </g>
    </g>
    <g id="xtick_8">
     <g id="line2d_8">
      <g>
       <use xlink:href="#m52cf63163d" x="345.110938" y="253.44" style="stroke: #000000; stroke-width: 0.8"/>
      </g>
     </g>
     <g id="text_8">
      <!-- 0.175 -->
      <g transform="translate(330.796875 268.038437) scale(0.1 -0.1)">
       <use xlink:href="#DejaVuSans-30"/>
       <use xlink:href="#DejaVuSans-2e" x="63.623047"/>
       <use xlink:href="#DejaVuSans-31" x="95.410156"/>
       <use xlink:href="#DejaVuSans-37" x="159.033203"/>
       <use xlink:href="#DejaVuSans-35" x="222.65625"/>
      </g>
     </g>
    </g>
    <g id="xtick_9">
     <g id="line2d_9">
      <g>
       <use xlink:href="#m52cf63163d" x="386.960938" y="253.44" style="stroke: #000000; stroke-width: 0.8"/>
      </g>
     </g>
     <g id="text_9">
      <!-- 0.200 -->
      <g transform="translate(372.646875 268.038437) scale(0.1 -0.1)">
       <use xlink:href="#DejaVuSans-30"/>
       <use xlink:href="#DejaVuSans-2e" x="63.623047"/>
       <use xlink:href="#DejaVuSans-32" x="95.410156"/>
       <use xlink:href="#DejaVuSans-30" x="159.033203"/>
       <use xlink:href="#DejaVuSans-30" x="222.65625"/>
      </g>
     </g>
    </g>
    <g id="text_10">
     <!-- $t$ sec. -->
     <g transform="translate(205.960938 281.716562) scale(0.1 -0.1)">
      <defs>
       <path id="DejaVuSans-Oblique-74" d="M 2706 3500 
L 2619 3053 
L 1472 3053 
L 1100 1153 
Q 1081 1047 1072 975 
Q 1063 903 1063 863 
Q 1063 663 1183 572 
Q 1303 481 1569 481 
L 2150 481 
L 2053 0 
L 1503 0 
Q 991 0 739 200 
Q 488 400 488 806 
Q 488 878 497 964 
Q 506 1050 525 1153 
L 897 3053 
L 409 3053 
L 500 3500 
L 978 3500 
L 1172 4494 
L 1747 4494 
L 1556 3500 
L 2706 3500 
z
" transform="scale(0.015625)"/>
       <path id="DejaVuSans-20" transform="scale(0.015625)"/>
       <path id="DejaVuSans-73" d="M 2834 3397 
L 2834 2853 
Q 2591 2978 2328 3040 
Q 2066 3103 1784 3103 
Q 1356 3103 1142 2972 
Q 928 2841 928 2578 
Q 928 2378 1081 2264 
Q 1234 2150 1697 2047 
L 1894 2003 
Q 2506 1872 2764 1633 
Q 3022 1394 3022 966 
Q 3022 478 2636 193 
Q 2250 -91 1575 -91 
Q 1294 -91 989 -36 
Q 684 19 347 128 
L 347 722 
Q 666 556 975 473 
Q 1284 391 1588 391 
Q 1994 391 2212 530 
Q 2431 669 2431 922 
Q 2431 1156 2273 1281 
Q 2116 1406 1581 1522 
L 1381 1569 
Q 847 1681 609 1914 
Q 372 2147 372 2553 
Q 372 3047 722 3315 
Q 1072 3584 1716 3584 
Q 2034 3584 2315 3537 
Q 2597 3491 2834 3397 
z
" transform="scale(0.015625)"/>
       <path id="DejaVuSans-65" d="M 3597 1894 
L 3597 1613 
L 953 1613 
Q 991 1019 1311 708 
Q 1631 397 2203 397 
Q 2534 397 2845 478 
Q 3156 559 3463 722 
L 3463 178 
Q 3153 47 2828 -22 
Q 2503 -91 2169 -91 
Q 1331 -91 842 396 
Q 353 884 353 1716 
Q 353 2575 817 3079 
Q 1281 3584 2069 3584 
Q 2775 3584 3186 3129 
Q 3597 2675 3597 1894 
z
M 3022 2063 
Q 3016 2534 2758 2815 
Q 2500 3097 2075 3097 
Q 1594 3097 1305 2825 
Q 1016 2553 972 2059 
L 3022 2063 
z
" transform="scale(0.015625)"/>
       <path id="DejaVuSans-63" d="M 3122 3366 
L 3122 2828 
Q 2878 2963 2633 3030 
Q 2388 3097 2138 3097 
Q 1578 3097 1268 2742 
Q 959 2388 959 1747 
Q 959 1106 1268 751 
Q 1578 397 2138 397 
Q 2388 397 2633 464 
Q 2878 531 3122 666 
L 3122 134 
Q 2881 22 2623 -34 
Q 2366 -91 2075 -91 
Q 1284 -91 818 406 
Q 353 903 353 1747 
Q 353 2603 823 3093 
Q 1294 3584 2113 3584 
Q 2378 3584 2631 3529 
Q 2884 3475 3122 3366 
z
" transform="scale(0.015625)"/>
      </defs>
      <use xlink:href="#DejaVuSans-Oblique-74" transform="translate(0 0.78125)"/>
      <use xlink:href="#DejaVuSans-20" transform="translate(39.208984 0.78125)"/>
      <use xlink:href="#DejaVuSans-73" transform="translate(70.996094 0.78125)"/>
      <use xlink:href="#DejaVuSans-65" transform="translate(123.095703 0.78125)"/>
      <use xlink:href="#DejaVuSans-63" transform="translate(184.619141 0.78125)"/>
      <use xlink:href="#DejaVuSans-2e" transform="translate(239.599609 0.78125)"/>
     </g>
    </g>
   </g>
   <g id="matplotlib.axis_2">
    <g id="ytick_1">
     <g id="line2d_10">
      <defs>
       <path id="m3570b66c1b" d="M 0 0 
L -3.5 0 
" style="stroke: #000000; stroke-width: 0.8"/>
      </defs>
      <g>
       <use xlink:href="#m3570b66c1b" x="52.160938" y="222.195754" style="stroke: #000000; stroke-width: 0.8"/>
      </g>
     </g>
     <g id="text_11">
      <!-- −1.0 -->
      <g transform="translate(20.878125 225.994973) scale(0.1 -0.1)">
       <defs>
        <path id="DejaVuSans-2212" d="M 678 2272 
L 4684 2272 
L 4684 1741 
L 678 1741 
L 678 2272 
z
" transform="scale(0.015625)"/>
       </defs>
       <use xlink:href="#DejaVuSans-2212"/>
       <use xlink:href="#DejaVuSans-31" x="83.789062"/>
       <use xlink:href="#DejaVuSans-2e" x="147.412109"/>
       <use xlink:href="#DejaVuSans-30" x="179.199219"/>
      </g>
     </g>
    </g>
    <g id="ytick_2">
     <g id="line2d_11">
      <g>
       <use xlink:href="#m3570b66c1b" x="52.160938" y="184.179539" style="stroke: #000000; stroke-width: 0.8"/>
      </g>
     </g>
     <g id="text_12">
      <!-- −0.5 -->
      <g transform="translate(20.878125 187.978758) scale(0.1 -0.1)">
       <use xlink:href="#DejaVuSans-2212"/>
       <use xlink:href="#DejaVuSans-30" x="83.789062"/>
       <use xlink:href="#DejaVuSans-2e" x="147.412109"/>
       <use xlink:href="#DejaVuSans-35" x="179.199219"/>
      </g>
     </g>
    </g>
    <g id="ytick_3">
     <g id="line2d_12">
      <g>
       <use xlink:href="#m3570b66c1b" x="52.160938" y="146.163324" style="stroke: #000000; stroke-width: 0.8"/>
      </g>
     </g>
     <g id="text_13">
      <!-- 0.0 -->
      <g transform="translate(29.257812 149.962543) scale(0.1 -0.1)">
       <use xlink:href="#DejaVuSans-30"/>
       <use xlink:href="#DejaVuSans-2e" x="63.623047"/>
       <use xlink:href="#DejaVuSans-30" x="95.410156"/>
      </g>
     </g>
    </g>
    <g id="ytick_4">
     <g id="line2d_13">
      <g>
       <use xlink:href="#m3570b66c1b" x="52.160938" y="108.147109" style="stroke: #000000; stroke-width: 0.8"/>
      </g>
     </g>
     <g id="text_14">
      <!-- 0.5 -->
      <g transform="translate(29.257812 111.946328) scale(0.1 -0.1)">
       <use xlink:href="#DejaVuSans-30"/>
       <use xlink:href="#DejaVuSans-2e" x="63.623047"/>
       <use xlink:href="#DejaVuSans-35" x="95.410156"/>
      </g>
     </g>
    </g>
    <g id="ytick_5">
     <g id="line2d_14">
      <g>
       <use xlink:href="#m3570b66c1b" x="52.160938" y="70.130894" style="stroke: #000000; stroke-width: 0.8"/>
      </g>
     </g>
     <g id="text_15">
      <!-- 1.0 -->
      <g transform="translate(29.257812 73.930113) scale(0.1 -0.1)">
       <use xlink:href="#DejaVuSans-31"/>
       <use xlink:href="#DejaVuSans-2e" x="63.623047"/>
       <use xlink:href="#DejaVuSans-30" x="95.410156"/>
      </g>
     </g>
    </g>
    <g id="text_16">
     <!-- Magnitude -->
     <g transform="translate(14.798437 171.209844) rotate(-90) scale(0.1 -0.1)">
      <defs>
       <path id="DejaVuSans-4d" d="M 628 4666 
L 1569 4666 
L 2759 1491 
L 3956 4666 
L 4897 4666 
L 4897 0 
L 4281 0 
L 4281 4097 
L 3078 897 
L 2444 897 
L 1241 4097 
L 1241 0 
L 628 0 
L 628 4666 
z
" transform="scale(0.015625)"/>
       <path id="DejaVuSans-61" d="M 2194 1759 
Q 1497 1759 1228 1600 
Q 959 1441 959 1056 
Q 959 750 1161 570 
Q 1363 391 1709 391 
Q 2188 391 2477 730 
Q 2766 1069 2766 1631 
L 2766 1759 
L 2194 1759 
z
M 3341 1997 
L 3341 0 
L 2766 0 
L 2766 531 
Q 2569 213 2275 61 
Q 1981 -91 1556 -91 
Q 1019 -91 701 211 
Q 384 513 384 1019 
Q 384 1609 779 1909 
Q 1175 2209 1959 2209 
L 2766 2209 
L 2766 2266 
Q 2766 2663 2505 2880 
Q 2244 3097 1772 3097 
Q 1472 3097 1187 3025 
Q 903 2953 641 2809 
L 641 3341 
Q 956 3463 1253 3523 
Q 1550 3584 1831 3584 
Q 2591 3584 2966 3190 
Q 3341 2797 3341 1997 
z
" transform="scale(0.015625)"/>
       <path id="DejaVuSans-67" d="M 2906 1791 
Q 2906 2416 2648 2759 
Q 2391 3103 1925 3103 
Q 1463 3103 1205 2759 
Q 947 2416 947 1791 
Q 947 1169 1205 825 
Q 1463 481 1925 481 
Q 2391 481 2648 825 
Q 2906 1169 2906 1791 
z
M 3481 434 
Q 3481 -459 3084 -895 
Q 2688 -1331 1869 -1331 
Q 1566 -1331 1297 -1286 
Q 1028 -1241 775 -1147 
L 775 -588 
Q 1028 -725 1275 -790 
Q 1522 -856 1778 -856 
Q 2344 -856 2625 -561 
Q 2906 -266 2906 331 
L 2906 616 
Q 2728 306 2450 153 
Q 2172 0 1784 0 
Q 1141 0 747 490 
Q 353 981 353 1791 
Q 353 2603 747 3093 
Q 1141 3584 1784 3584 
Q 2172 3584 2450 3431 
Q 2728 3278 2906 2969 
L 2906 3500 
L 3481 3500 
L 3481 434 
z
" transform="scale(0.015625)"/>
       <path id="DejaVuSans-6e" d="M 3513 2113 
L 3513 0 
L 2938 0 
L 2938 2094 
Q 2938 2591 2744 2837 
Q 2550 3084 2163 3084 
Q 1697 3084 1428 2787 
Q 1159 2491 1159 1978 
L 1159 0 
L 581 0 
L 581 3500 
L 1159 3500 
L 1159 2956 
Q 1366 3272 1645 3428 
Q 1925 3584 2291 3584 
Q 2894 3584 3203 3211 
Q 3513 2838 3513 2113 
z
" transform="scale(0.015625)"/>
       <path id="DejaVuSans-69" d="M 603 3500 
L 1178 3500 
L 1178 0 
L 603 0 
L 603 3500 
z
M 603 4863 
L 1178 4863 
L 1178 4134 
L 603 4134 
L 603 4863 
z
" transform="scale(0.015625)"/>
       <path id="DejaVuSans-74" d="M 1172 4494 
L 1172 3500 
L 2356 3500 
L 2356 3053 
L 1172 3053 
L 1172 1153 
Q 1172 725 1289 603 
Q 1406 481 1766 481 
L 2356 481 
L 2356 0 
L 1766 0 
Q 1100 0 847 248 
Q 594 497 594 1153 
L 594 3053 
L 172 3053 
L 172 3500 
L 594 3500 
L 594 4494 
L 1172 4494 
z
" transform="scale(0.015625)"/>
       <path id="DejaVuSans-75" d="M 544 1381 
L 544 3500 
L 1119 3500 
L 1119 1403 
Q 1119 906 1312 657 
Q 1506 409 1894 409 
Q 2359 409 2629 706 
Q 2900 1003 2900 1516 
L 2900 3500 
L 3475 3500 
L 3475 0 
L 2900 0 
L 2900 538 
Q 2691 219 2414 64 
Q 2138 -91 1772 -91 
Q 1169 -91 856 284 
Q 544 659 544 1381 
z
M 1991 3584 
L 1991 3584 
z
" transform="scale(0.015625)"/>
       <path id="DejaVuSans-64" d="M 2906 2969 
L 2906 4863 
L 3481 4863 
L 3481 0 
L 2906 0 
L 2906 525 
Q 2725 213 2448 61 
Q 2172 -91 1784 -91 
Q 1150 -91 751 415 
Q 353 922 353 1747 
Q 353 2572 751 3078 
Q 1150 3584 1784 3584 
Q 2172 3584 2448 3432 
Q 2725 3281 2906 2969 
z
M 947 1747 
Q 947 1113 1208 752 
Q 1469 391 1925 391 
Q 2381 391 2643 752 
Q 2906 1113 2906 1747 
Q 2906 2381 2643 2742 
Q 2381 3103 1925 3103 
Q 1469 3103 1208 2742 
Q 947 2381 947 1747 
z
" transform="scale(0.015625)"/>
      </defs>
      <use xlink:href="#DejaVuSans-4d"/>
      <use xlink:href="#DejaVuSans-61" x="86.279297"/>
      <use xlink:href="#DejaVuSans-67" x="147.558594"/>
      <use xlink:href="#DejaVuSans-6e" x="211.035156"/>
      <use xlink:href="#DejaVuSans-69" x="274.414062"/>
      <use xlink:href="#DejaVuSans-74" x="302.197266"/>
      <use xlink:href="#DejaVuSans-75" x="341.40625"/>
      <use xlink:href="#DejaVuSans-64" x="404.785156"/>
      <use xlink:href="#DejaVuSans-65" x="468.261719"/>
     </g>
    </g>
   </g>
   <g id="line2d_15">
    <path d="M 52.160938 135.875705 
L 53.834938 126.312642 
L 55.508938 117.477876 
L 57.182938 109.360762 
L 58.856938 101.93624 
L 60.530938 95.165295 
L 62.204937 88.995889 
L 63.878938 83.364343 
L 65.552937 78.197119 
L 67.226938 73.412952 
L 68.900937 51.122787 
L 70.574938 146.163324 
L 73.922938 129.921879 
L 83.966938 82.477762 
L 85.640938 74.203823 
L 87.314938 51.122787 
L 88.988937 146.163324 
L 94.010938 107.601041 
L 97.358937 83.381387 
L 99.032938 71.943419 
L 100.706938 51.122787 
L 102.380938 146.163324 
L 104.054937 131.896859 
L 105.728938 118.675512 
L 107.402938 106.5555 
L 109.076938 95.582206 
L 110.750938 85.787889 
L 112.424938 77.189788 
L 114.098938 51.122787 
L 115.772938 146.163324 
L 117.446938 136.959132 
L 119.120938 129.055795 
L 120.794938 122.374349 
L 122.468938 116.820778 
L 124.142938 112.287735 
L 125.816937 108.656698 
L 127.490938 105.800502 
L 129.164938 103.586167 
L 130.838937 101.877938 
L 132.512938 100.540445 
L 135.860938 98.457141 
L 139.208937 96.379364 
L 140.882937 95.094583 
L 142.556938 93.544392 
L 144.230938 91.674885 
L 145.904938 89.451171 
L 147.578937 86.857788 
L 149.252938 83.898571 
L 150.926938 80.595968 
L 154.274938 73.135716 
L 155.948937 51.122787 
L 157.622938 146.163324 
L 160.970937 130.046856 
L 164.318938 115.418239 
L 165.992938 108.87116 
L 167.666938 102.937513 
L 169.340937 97.682753 
L 171.014938 93.160602 
L 172.688938 89.411048 
L 174.362937 86.458792 
L 176.036937 84.312195 
L 177.710938 82.962721 
L 179.384938 82.384927 
L 181.058938 82.536959 
L 182.732937 83.361559 
L 184.406938 84.787526 
L 186.080938 86.731602 
L 187.754937 89.100701 
L 189.428938 91.79443 
L 192.776938 97.734072 
L 196.124937 103.706692 
L 197.798938 106.456194 
L 199.472938 108.930017 
L 201.146937 111.053259 
L 202.820938 112.764018 
L 204.494937 114.014791 
L 206.168938 114.773447 
L 207.842938 115.023728 
L 209.516937 114.765281 
L 211.190938 114.01323 
L 212.864937 112.797299 
L 214.538938 111.160528 
L 216.212938 109.157624 
L 217.886937 106.852993 
L 221.234938 101.63129 
L 226.256937 93.447518 
L 227.930937 90.934844 
L 229.604938 88.645191 
L 231.278937 86.635995 
L 232.952938 84.95449 
L 234.626937 83.636502 
L 236.300938 82.705617 
L 237.974938 82.172745 
L 239.648937 82.036094 
L 241.322938 82.281537 
L 242.996938 82.883356 
L 244.670938 83.805337 
L 246.344938 85.002163 
L 248.018937 86.421078 
L 251.366938 89.68821 
L 256.388937 94.722835 
L 258.062937 96.195692 
L 259.736938 97.478347 
L 261.410937 98.528961 
L 263.084938 99.314665 
L 264.758938 99.812495 
L 266.432937 100.009999 
L 268.106938 99.905499 
L 269.780937 99.508011 
L 271.454938 98.83682 
L 273.128938 97.920742 
L 274.802938 96.797082 
L 278.150937 94.110682 
L 283.172938 89.784744 
L 284.846938 88.4873 
L 286.520938 87.350684 
L 288.194938 86.421331 
L 289.868938 85.738911 
L 291.542938 85.334924 
L 293.216938 85.231525 
L 294.890938 85.440611 
L 296.564937 85.963194 
L 298.238937 86.789066 
L 299.912937 87.896787 
L 301.586937 89.253958 
L 303.260938 90.817812 
L 306.608938 94.348066 
L 309.956937 97.976898 
L 311.630937 99.643479 
L 313.304937 101.106775 
L 314.978937 102.287595 
L 316.652938 103.108498 
L 318.326937 103.495665 
L 320.000938 103.380705 
L 321.674937 102.702359 
L 323.348937 101.408058 
L 325.022938 99.455305 
L 326.696937 96.812859 
L 328.370938 93.461679 
L 330.044938 89.395634 
L 331.718937 84.621939 
L 333.392938 79.161336 
L 335.066937 73.047995 
L 336.740938 51.122787 
L 338.414938 146.163324 
L 345.110938 97.06515 
L 348.458937 72.688319 
L 350.132937 51.122787 
L 351.806938 146.163324 
L 355.154937 115.509606 
L 356.828937 101.524102 
L 358.502937 88.537563 
L 360.176938 76.619303 
L 361.850937 51.122787 
L 363.524937 146.163324 
L 365.198937 133.268124 
L 366.872937 121.836622 
L 368.546938 111.867925 
L 370.220937 103.347341 
L 371.894937 96.246088 
L 373.568938 90.521251 
L 375.242937 86.116033 
L 376.916938 82.960263 
L 378.590937 80.971176 
L 380.264937 80.054444 
L 381.938938 80.105442 
L 383.612937 81.010728 
L 385.286938 82.649712 
L 386.960938 84.896485 
L 388.634938 87.621766 
L 391.982937 93.986171 
L 397.004938 103.92443 
L 398.678938 106.876403 
L 400.352937 109.479388 
L 402.026937 111.649145 
L 403.700937 113.314576 
L 405.374937 114.418706 
L 407.048937 114.919383 
L 408.722938 114.789671 
L 409.475 114.442956 
L 409.475 114.442956 
" clip-path="url(#p88f6ace720)" style="fill: none; stroke: #1f77b4; stroke-width: 1.5; stroke-linecap: square"/>
   </g>
   <g id="line2d_16">
    <path d="M 52.160938 109.187808 
L 53.834938 110.790993 
L 55.508938 112.699046 
L 62.204937 121.150621 
L 63.878938 122.900365 
L 65.552937 124.294309 
L 67.226938 125.245469 
L 68.900937 125.682323 
L 70.574938 125.551307 
L 72.248938 124.818755 
L 73.922938 123.472227 
L 75.596937 121.521169 
L 77.270938 118.996897 
L 78.944938 115.951874 
L 80.618938 112.458326 
L 83.966938 104.500631 
L 88.988937 91.872926 
L 90.662937 87.990436 
L 92.336938 84.486187 
L 94.010938 81.480448 
L 95.684938 79.08231 
L 97.358937 77.386171 
L 99.032938 76.46866 
L 100.706938 76.386061 
L 102.380938 77.172344 
L 104.054937 78.837859 
L 105.728938 81.368735 
L 107.402938 84.727017 
L 109.076938 88.851525 
L 110.750938 93.659432 
L 112.424938 99.048493 
L 115.772938 111.08156 
L 122.468938 136.225401 
L 124.142938 141.891729 
L 125.816937 147.043214 
L 127.490938 151.56872 
L 129.164938 155.375394 
L 130.838937 158.391356 
L 132.512938 160.567767 
L 134.186937 161.880214 
L 135.860938 162.329363 
L 137.534938 161.940867 
L 139.208937 160.764524 
L 140.882937 158.872726 
L 142.556938 156.358226 
L 144.230938 153.331313 
L 145.904938 149.916463 
L 152.600937 135.146178 
L 154.274938 131.879294 
L 155.948937 129.045115 
L 157.622938 126.754382 
L 159.296938 125.100672 
L 160.970937 124.157712 
L 162.644938 123.977309 
L 164.318938 124.587947 
L 165.992938 125.994098 
L 167.666938 128.176247 
L 169.340937 131.091642 
L 171.014938 134.675734 
L 172.688938 138.844256 
L 174.362937 143.495872 
L 177.710938 153.776952 
L 182.732937 169.683352 
L 184.406938 174.584975 
L 186.080938 179.080866 
L 187.754937 183.064327 
L 189.428938 186.444097 
L 191.102937 189.14686 
L 192.776938 191.119173 
L 194.450938 192.328782 
L 196.124937 192.765284 
L 197.798938 192.440123 
L 199.472938 191.385934 
L 201.146937 189.655259 
L 202.820938 187.318684 
L 204.494937 184.462467 
L 206.168938 181.185721 
L 209.516937 173.812231 
L 214.538938 162.449478 
L 216.212938 159.032418 
L 217.886937 155.967013 
L 219.560938 153.335012 
L 221.234938 151.202863 
L 222.908938 149.620047 
L 224.582938 148.617954 
L 226.256937 148.209347 
L 227.930937 148.388389 
L 229.604938 149.131256 
L 231.278937 150.397272 
L 232.952938 152.130554 
L 234.626937 154.262089 
L 236.300938 156.712169 
L 239.648937 162.212188 
L 242.996938 167.886606 
L 244.670938 170.558267 
L 246.344938 173.006381 
L 248.018937 175.156892 
L 249.692938 176.947071 
L 251.366938 178.327288 
L 253.040937 179.262347 
L 254.714938 179.732346 
L 256.388937 179.733042 
L 258.062937 179.275734 
L 259.736938 178.386644 
L 261.410937 177.105864 
L 263.084938 175.485869 
L 264.758938 173.58968 
L 268.106938 169.260409 
L 273.128938 162.622386 
L 274.802938 160.689607 
L 276.476938 159.017077 
L 278.150937 157.665039 
L 279.824938 156.683004 
L 281.498938 156.1082 
L 283.172938 155.964375 
L 284.846938 156.261009 
L 286.520938 156.992943 
L 288.194938 158.140417 
L 289.868938 159.669532 
L 291.542938 161.533099 
L 293.216938 163.671855 
L 296.564937 168.487042 
L 299.912937 173.464663 
L 301.586937 175.789907 
L 303.260938 177.884061 
L 304.934937 179.658275 
L 306.608938 181.028603 
L 308.282938 181.91817 
L 309.956937 182.259144 
L 311.630937 181.994497 
L 313.304937 181.079495 
L 314.978937 179.482905 
L 316.652938 177.187874 
L 318.326937 174.192495 
L 320.000938 170.510023 
L 321.674937 166.168767 
L 323.348937 161.211649 
L 325.022938 155.695461 
L 328.370938 143.275933 
L 331.718937 129.596367 
L 338.414938 101.798411 
L 340.088937 95.408018 
L 341.762938 89.460322 
L 343.436937 84.056641 
L 345.110938 79.290524 
L 346.784937 75.246008 
L 348.458937 71.996058 
L 350.132937 69.601198 
L 351.806938 68.108358 
L 353.480937 67.549961 
L 355.154937 67.943256 
L 356.828937 69.289916 
L 358.502937 71.575902 
L 360.176938 74.7716 
L 361.850937 78.83223 
L 363.524937 83.698518 
L 365.198937 89.297632 
L 366.872937 95.544355 
L 370.220937 109.586486 
L 373.568938 124.953924 
L 378.590937 148.38248 
L 381.938938 162.835642 
L 383.612937 169.371451 
L 385.286938 175.313243 
L 386.960938 180.574441 
L 388.634938 185.081327 
L 390.308938 188.77444 
L 391.982937 191.609718 
L 393.656938 193.559328 
L 395.330938 194.612177 
L 397.004938 194.774083 
L 398.678938 194.067587 
L 400.352937 192.531416 
L 402.026937 190.219591 
L 403.700937 187.200203 
L 405.374937 183.553878 
L 407.048937 179.371951 
L 409.475 172.531996 
L 409.475 172.531996 
" clip-path="url(#p88f6ace720)" style="fill: none; stroke: #ff7f0e; stroke-width: 1.5; stroke-linecap: square"/>
   </g>
   <g id="patch_3">
    <path d="M 52.160938 253.44 
L 52.160938 36 
" style="fill: none; stroke: #000000; stroke-width: 0.8; stroke-linejoin: miter; stroke-linecap: square"/>
   </g>
   <g id="patch_4">
    <path d="M 386.960938 253.44 
L 386.960938 36 
" style="fill: none; stroke: #000000; stroke-width: 0.8; stroke-linejoin: miter; stroke-linecap: square"/>
   </g>
   <g id="patch_5">
    <path d="M 52.160938 253.44 
L 386.960938 253.44 
" style="fill: none; stroke: #000000; stroke-width: 0.8; stroke-linejoin: miter; stroke-linecap: square"/>
   </g>
   <g id="patch_6">
    <path d="M 52.160938 36 
L 386.960938 36 
" style="fill: none; stroke: #000000; stroke-width: 0.8; stroke-linejoin: miter; stroke-linecap: square"/>
   </g>
   <g id="legend_1">
    <g id="patch_7">
     <path d="M 59.160938 248.44 
L 132.260938 248.44 
Q 134.260938 248.44 134.260938 246.44 
L 134.260938 216.04 
Q 134.260938 214.04 132.260938 214.04 
L 59.160938 214.04 
Q 57.160938 214.04 57.160938 216.04 
L 57.160938 246.44 
Q 57.160938 248.44 59.160938 248.44 
z
" style="fill: #ffffff; opacity: 0.8; stroke: #cccccc; stroke-linejoin: miter"/>
    </g>
    <g id="line2d_17">
     <path d="M 61.160938 222.14 
L 71.160938 222.14 
L 81.160938 222.14 
" style="fill: none; stroke: #1f77b4; stroke-width: 1.5; stroke-linecap: square"/>
    </g>
    <g id="text_17">
     <!-- $v(t)_{output}$ -->
     <g transform="translate(89.160938 225.64) scale(0.1 -0.1)">
      <defs>
       <path id="DejaVuSans-Oblique-76" d="M 459 3500 
L 1069 3500 
L 1581 525 
L 3256 3500 
L 3866 3500 
L 1875 0 
L 1100 0 
L 459 3500 
z
" transform="scale(0.015625)"/>
       <path id="DejaVuSans-28" d="M 1984 4856 
Q 1566 4138 1362 3434 
Q 1159 2731 1159 2009 
Q 1159 1288 1364 580 
Q 1569 -128 1984 -844 
L 1484 -844 
Q 1016 -109 783 600 
Q 550 1309 550 2009 
Q 550 2706 781 3412 
Q 1013 4119 1484 4856 
L 1984 4856 
z
" transform="scale(0.015625)"/>
       <path id="DejaVuSans-29" d="M 513 4856 
L 1013 4856 
Q 1481 4119 1714 3412 
Q 1947 2706 1947 2009 
Q 1947 1309 1714 600 
Q 1481 -109 1013 -844 
L 513 -844 
Q 928 -128 1133 580 
Q 1338 1288 1338 2009 
Q 1338 2731 1133 3434 
Q 928 4138 513 4856 
z
" transform="scale(0.015625)"/>
       <path id="DejaVuSans-Oblique-6f" d="M 1625 -91 
Q 1009 -91 651 289 
Q 294 669 294 1325 
Q 294 1706 417 2101 
Q 541 2497 738 2766 
Q 1047 3184 1428 3384 
Q 1809 3584 2291 3584 
Q 2888 3584 3255 3212 
Q 3622 2841 3622 2241 
Q 3622 1825 3500 1412 
Q 3378 1000 3181 728 
Q 2875 309 2494 109 
Q 2113 -91 1625 -91 
z
M 891 1344 
Q 891 869 1089 633 
Q 1288 397 1691 397 
Q 2269 397 2648 901 
Q 3028 1406 3028 2181 
Q 3028 2634 2825 2865 
Q 2622 3097 2228 3097 
Q 1903 3097 1650 2945 
Q 1397 2794 1197 2484 
Q 1050 2253 970 1956 
Q 891 1659 891 1344 
z
" transform="scale(0.015625)"/>
       <path id="DejaVuSans-Oblique-75" d="M 428 1388 
L 838 3500 
L 1416 3500 
L 1006 1409 
Q 975 1256 961 1147 
Q 947 1038 947 966 
Q 947 700 1109 554 
Q 1272 409 1569 409 
Q 2031 409 2368 721 
Q 2706 1034 2809 1563 
L 3194 3500 
L 3769 3500 
L 3091 0 
L 2516 0 
L 2631 550 
Q 2388 244 2052 76 
Q 1716 -91 1338 -91 
Q 878 -91 622 161 
Q 366 413 366 863 
Q 366 956 381 1097 
Q 397 1238 428 1388 
z
" transform="scale(0.015625)"/>
       <path id="DejaVuSans-Oblique-70" d="M 3175 2156 
Q 3175 2616 2975 2859 
Q 2775 3103 2400 3103 
Q 2144 3103 1911 2972 
Q 1678 2841 1497 2591 
Q 1319 2344 1212 1994 
Q 1106 1644 1106 1300 
Q 1106 863 1306 627 
Q 1506 391 1875 391 
Q 2147 391 2380 519 
Q 2613 647 2778 891 
Q 2956 1147 3065 1494 
Q 3175 1841 3175 2156 
z
M 1394 2969 
Q 1625 3272 1939 3428 
Q 2253 3584 2638 3584 
Q 3175 3584 3472 3232 
Q 3769 2881 3769 2247 
Q 3769 1728 3584 1258 
Q 3400 788 3053 416 
Q 2822 169 2531 39 
Q 2241 -91 1919 -91 
Q 1547 -91 1294 64 
Q 1041 219 916 525 
L 556 -1331 
L -19 -1331 
L 922 3500 
L 1497 3500 
L 1394 2969 
z
" transform="scale(0.015625)"/>
      </defs>
      <use xlink:href="#DejaVuSans-Oblique-76" transform="translate(0 0.125)"/>
      <use xlink:href="#DejaVuSans-28" transform="translate(59.179688 0.125)"/>
      <use xlink:href="#DejaVuSans-Oblique-74" transform="translate(98.193359 0.125)"/>
      <use xlink:href="#DejaVuSans-29" transform="translate(137.402344 0.125)"/>
      <use xlink:href="#DejaVuSans-Oblique-6f" transform="translate(177.373047 -16.28125) scale(0.7)"/>
      <use xlink:href="#DejaVuSans-Oblique-75" transform="translate(220.200195 -16.28125) scale(0.7)"/>
      <use xlink:href="#DejaVuSans-Oblique-74" transform="translate(264.56543 -16.28125) scale(0.7)"/>
      <use xlink:href="#DejaVuSans-Oblique-70" transform="translate(292.011719 -16.28125) scale(0.7)"/>
      <use xlink:href="#DejaVuSans-Oblique-75" transform="translate(336.445312 -16.28125) scale(0.7)"/>
      <use xlink:href="#DejaVuSans-Oblique-74" transform="translate(380.810547 -16.28125) scale(0.7)"/>
     </g>
    </g>
    <g id="line2d_18">
     <path d="M 61.160938 237.84 
L 71.160938 237.84 
L 81.160938 237.84 
" style="fill: none; stroke: #ff7f0e; stroke-width: 1.5; stroke-linecap: square"/>
    </g>
    <g id="text_18">
     <!-- $x(t)_{input}$ -->
     <g transform="translate(89.160938 241.34) scale(0.1 -0.1)">
      <defs>
       <path id="DejaVuSans-Oblique-78" d="M 3841 3500 
L 2234 1784 
L 3219 0 
L 2559 0 
L 1819 1388 
L 531 0 
L -166 0 
L 1556 1844 
L 641 3500 
L 1300 3500 
L 1972 2234 
L 3144 3500 
L 3841 3500 
z
" transform="scale(0.015625)"/>
       <path id="DejaVuSans-Oblique-69" d="M 1172 4863 
L 1747 4863 
L 1606 4134 
L 1031 4134 
L 1172 4863 
z
M 909 3500 
L 1484 3500 
L 800 0 
L 225 0 
L 909 3500 
z
" transform="scale(0.015625)"/>
       <path id="DejaVuSans-Oblique-6e" d="M 3566 2113 
L 3156 0 
L 2578 0 
L 2988 2091 
Q 3016 2238 3031 2350 
Q 3047 2463 3047 2528 
Q 3047 2791 2881 2937 
Q 2716 3084 2419 3084 
Q 1956 3084 1622 2776 
Q 1288 2469 1184 1941 
L 800 0 
L 225 0 
L 903 3500 
L 1478 3500 
L 1363 2950 
Q 1603 3253 1940 3418 
Q 2278 3584 2650 3584 
Q 3113 3584 3367 3334 
Q 3622 3084 3622 2631 
Q 3622 2519 3608 2391 
Q 3594 2263 3566 2113 
z
" transform="scale(0.015625)"/>
      </defs>
      <use xlink:href="#DejaVuSans-Oblique-78" transform="translate(0 0.125)"/>
      <use xlink:href="#DejaVuSans-28" transform="translate(59.179688 0.125)"/>
      <use xlink:href="#DejaVuSans-Oblique-74" transform="translate(98.193359 0.125)"/>
      <use xlink:href="#DejaVuSans-29" transform="translate(137.402344 0.125)"/>
      <use xlink:href="#DejaVuSans-Oblique-69" transform="translate(177.373047 -16.28125) scale(0.7)"/>
      <use xlink:href="#DejaVuSans-Oblique-6e" transform="translate(196.821289 -16.28125) scale(0.7)"/>
      <use xlink:href="#DejaVuSans-Oblique-70" transform="translate(241.186523 -16.28125) scale(0.7)"/>
      <use xlink:href="#DejaVuSans-Oblique-75" transform="translate(285.620117 -16.28125) scale(0.7)"/>
      <use xlink:href="#DejaVuSans-Oblique-74" transform="translate(329.985352 -16.28125) scale(0.7)"/>
     </g>
    </g>
   </g>
  </g>
  <g id="text_19">
   <!-- Voltage $v(t)$ of a LIF Neuron with $x=x(t)$ on $[0,0.2]$ seconds -->
   <g transform="translate(34.520938 16.32) scale(0.12 -0.12)">
    <defs>
     <path id="DejaVuSans-56" d="M 1831 0 
L 50 4666 
L 709 4666 
L 2188 738 
L 3669 4666 
L 4325 4666 
L 2547 0 
L 1831 0 
z
" transform="scale(0.015625)"/>
     <path id="DejaVuSans-6f" d="M 1959 3097 
Q 1497 3097 1228 2736 
Q 959 2375 959 1747 
Q 959 1119 1226 758 
Q 1494 397 1959 397 
Q 2419 397 2687 759 
Q 2956 1122 2956 1747 
Q 2956 2369 2687 2733 
Q 2419 3097 1959 3097 
z
M 1959 3584 
Q 2709 3584 3137 3096 
Q 3566 2609 3566 1747 
Q 3566 888 3137 398 
Q 2709 -91 1959 -91 
Q 1206 -91 779 398 
Q 353 888 353 1747 
Q 353 2609 779 3096 
Q 1206 3584 1959 3584 
z
" transform="scale(0.015625)"/>
     <path id="DejaVuSans-6c" d="M 603 4863 
L 1178 4863 
L 1178 0 
L 603 0 
L 603 4863 
z
" transform="scale(0.015625)"/>
     <path id="DejaVuSans-66" d="M 2375 4863 
L 2375 4384 
L 1825 4384 
Q 1516 4384 1395 4259 
Q 1275 4134 1275 3809 
L 1275 3500 
L 2222 3500 
L 2222 3053 
L 1275 3053 
L 1275 0 
L 697 0 
L 697 3053 
L 147 3053 
L 147 3500 
L 697 3500 
L 697 3744 
Q 697 4328 969 4595 
Q 1241 4863 1831 4863 
L 2375 4863 
z
" transform="scale(0.015625)"/>
     <path id="DejaVuSans-4c" d="M 628 4666 
L 1259 4666 
L 1259 531 
L 3531 531 
L 3531 0 
L 628 0 
L 628 4666 
z
" transform="scale(0.015625)"/>
     <path id="DejaVuSans-49" d="M 628 4666 
L 1259 4666 
L 1259 0 
L 628 0 
L 628 4666 
z
" transform="scale(0.015625)"/>
     <path id="DejaVuSans-46" d="M 628 4666 
L 3309 4666 
L 3309 4134 
L 1259 4134 
L 1259 2759 
L 3109 2759 
L 3109 2228 
L 1259 2228 
L 1259 0 
L 628 0 
L 628 4666 
z
" transform="scale(0.015625)"/>
     <path id="DejaVuSans-4e" d="M 628 4666 
L 1478 4666 
L 3547 763 
L 3547 4666 
L 4159 4666 
L 4159 0 
L 3309 0 
L 1241 3903 
L 1241 0 
L 628 0 
L 628 4666 
z
" transform="scale(0.015625)"/>
     <path id="DejaVuSans-72" d="M 2631 2963 
Q 2534 3019 2420 3045 
Q 2306 3072 2169 3072 
Q 1681 3072 1420 2755 
Q 1159 2438 1159 1844 
L 1159 0 
L 581 0 
L 581 3500 
L 1159 3500 
L 1159 2956 
Q 1341 3275 1631 3429 
Q 1922 3584 2338 3584 
Q 2397 3584 2469 3576 
Q 2541 3569 2628 3553 
L 2631 2963 
z
" transform="scale(0.015625)"/>
     <path id="DejaVuSans-77" d="M 269 3500 
L 844 3500 
L 1563 769 
L 2278 3500 
L 2956 3500 
L 3675 769 
L 4391 3500 
L 4966 3500 
L 4050 0 
L 3372 0 
L 2619 2869 
L 1863 0 
L 1184 0 
L 269 3500 
z
" transform="scale(0.015625)"/>
     <path id="DejaVuSans-68" d="M 3513 2113 
L 3513 0 
L 2938 0 
L 2938 2094 
Q 2938 2591 2744 2837 
Q 2550 3084 2163 3084 
Q 1697 3084 1428 2787 
Q 1159 2491 1159 1978 
L 1159 0 
L 581 0 
L 581 4863 
L 1159 4863 
L 1159 2956 
Q 1366 3272 1645 3428 
Q 1925 3584 2291 3584 
Q 2894 3584 3203 3211 
Q 3513 2838 3513 2113 
z
" transform="scale(0.015625)"/>
     <path id="DejaVuSans-3d" d="M 678 2906 
L 4684 2906 
L 4684 2381 
L 678 2381 
L 678 2906 
z
M 678 1631 
L 4684 1631 
L 4684 1100 
L 678 1100 
L 678 1631 
z
" transform="scale(0.015625)"/>
     <path id="DejaVuSans-5b" d="M 550 4863 
L 1875 4863 
L 1875 4416 
L 1125 4416 
L 1125 -397 
L 1875 -397 
L 1875 -844 
L 550 -844 
L 550 4863 
z
" transform="scale(0.015625)"/>
     <path id="DejaVuSans-2c" d="M 750 794 
L 1409 794 
L 1409 256 
L 897 -744 
L 494 -744 
L 750 256 
L 750 794 
z
" transform="scale(0.015625)"/>
     <path id="DejaVuSans-5d" d="M 1947 4863 
L 1947 -844 
L 622 -844 
L 622 -397 
L 1369 -397 
L 1369 4416 
L 622 4416 
L 622 4863 
L 1947 4863 
z
" transform="scale(0.015625)"/>
    </defs>
    <use xlink:href="#DejaVuSans-56" transform="translate(0 0.015625)"/>
    <use xlink:href="#DejaVuSans-6f" transform="translate(68.408203 0.015625)"/>
    <use xlink:href="#DejaVuSans-6c" transform="translate(129.589844 0.015625)"/>
    <use xlink:href="#DejaVuSans-74" transform="translate(157.373047 0.015625)"/>
    <use xlink:href="#DejaVuSans-61" transform="translate(196.582031 0.015625)"/>
    <use xlink:href="#DejaVuSans-67" transform="translate(257.861328 0.015625)"/>
    <use xlink:href="#DejaVuSans-65" transform="translate(321.337891 0.015625)"/>
    <use xlink:href="#DejaVuSans-20" transform="translate(382.861328 0.015625)"/>
    <use xlink:href="#DejaVuSans-Oblique-76" transform="translate(414.648438 0.015625)"/>
    <use xlink:href="#DejaVuSans-28" transform="translate(473.828125 0.015625)"/>
    <use xlink:href="#DejaVuSans-Oblique-74" transform="translate(512.841797 0.015625)"/>
    <use xlink:href="#DejaVuSans-29" transform="translate(552.050781 0.015625)"/>
    <use xlink:href="#DejaVuSans-20" transform="translate(591.064453 0.015625)"/>
    <use xlink:href="#DejaVuSans-6f" transform="translate(622.851562 0.015625)"/>
    <use xlink:href="#DejaVuSans-66" transform="translate(684.033203 0.015625)"/>
    <use xlink:href="#DejaVuSans-20" transform="translate(719.238281 0.015625)"/>
    <use xlink:href="#DejaVuSans-61" transform="translate(751.025391 0.015625)"/>
    <use xlink:href="#DejaVuSans-20" transform="translate(812.304688 0.015625)"/>
    <use xlink:href="#DejaVuSans-4c" transform="translate(844.091797 0.015625)"/>
    <use xlink:href="#DejaVuSans-49" transform="translate(899.804688 0.015625)"/>
    <use xlink:href="#DejaVuSans-46" transform="translate(929.296875 0.015625)"/>
    <use xlink:href="#DejaVuSans-20" transform="translate(986.816406 0.015625)"/>
    <use xlink:href="#DejaVuSans-4e" transform="translate(1018.603516 0.015625)"/>
    <use xlink:href="#DejaVuSans-65" transform="translate(1093.408203 0.015625)"/>
    <use xlink:href="#DejaVuSans-75" transform="translate(1154.931641 0.015625)"/>
    <use xlink:href="#DejaVuSans-72" transform="translate(1218.310547 0.015625)"/>
    <use xlink:href="#DejaVuSans-6f" transform="translate(1259.423828 0.015625)"/>
    <use xlink:href="#DejaVuSans-6e" transform="translate(1320.605469 0.015625)"/>
    <use xlink:href="#DejaVuSans-20" transform="translate(1383.984375 0.015625)"/>
    <use xlink:href="#DejaVuSans-77" transform="translate(1415.771484 0.015625)"/>
    <use xlink:href="#DejaVuSans-69" transform="translate(1497.558594 0.015625)"/>
    <use xlink:href="#DejaVuSans-74" transform="translate(1525.341797 0.015625)"/>
    <use xlink:href="#DejaVuSans-68" transform="translate(1564.550781 0.015625)"/>
    <use xlink:href="#DejaVuSans-20" transform="translate(1627.929688 0.015625)"/>
    <use xlink:href="#DejaVuSans-Oblique-78" transform="translate(1659.716797 0.015625)"/>
    <use xlink:href="#DejaVuSans-3d" transform="translate(1738.378906 0.015625)"/>
    <use xlink:href="#DejaVuSans-Oblique-78" transform="translate(1841.650391 0.015625)"/>
    <use xlink:href="#DejaVuSans-28" transform="translate(1900.830078 0.015625)"/>
    <use xlink:href="#DejaVuSans-Oblique-74" transform="translate(1939.84375 0.015625)"/>
    <use xlink:href="#DejaVuSans-29" transform="translate(1979.052734 0.015625)"/>
    <use xlink:href="#DejaVuSans-20" transform="translate(2018.066406 0.015625)"/>
    <use xlink:href="#DejaVuSans-6f" transform="translate(2049.853516 0.015625)"/>
    <use xlink:href="#DejaVuSans-6e" transform="translate(2111.035156 0.015625)"/>
    <use xlink:href="#DejaVuSans-20" transform="translate(2174.414062 0.015625)"/>
    <use xlink:href="#DejaVuSans-5b" transform="translate(2206.201172 0.015625)"/>
    <use xlink:href="#DejaVuSans-30" transform="translate(2245.214844 0.015625)"/>
    <use xlink:href="#DejaVuSans-2c" transform="translate(2308.837891 0.015625)"/>
    <use xlink:href="#DejaVuSans-30" transform="translate(2360.107422 0.015625)"/>
    <use xlink:href="#DejaVuSans-2e" transform="translate(2423.730469 0.015625)"/>
    <use xlink:href="#DejaVuSans-32" transform="translate(2450.017578 0.015625)"/>
    <use xlink:href="#DejaVuSans-5d" transform="translate(2513.640625 0.015625)"/>
    <use xlink:href="#DejaVuSans-20" transform="translate(2552.654297 0.015625)"/>
    <use xlink:href="#DejaVuSans-73" transform="translate(2584.441406 0.015625)"/>
    <use xlink:href="#DejaVuSans-65" transform="translate(2636.541016 0.015625)"/>
    <use xlink:href="#DejaVuSans-63" transform="translate(2698.064453 0.015625)"/>
    <use xlink:href="#DejaVuSans-6f" transform="translate(2753.044922 0.015625)"/>
    <use xlink:href="#DejaVuSans-6e" transform="translate(2814.226562 0.015625)"/>
    <use xlink:href="#DejaVuSans-64" transform="translate(2877.605469 0.015625)"/>
    <use xlink:href="#DejaVuSans-73" transform="translate(2941.082031 0.015625)"/>
   </g>
  </g>
 </g>
 <defs>
  <clipPath id="p88f6ace720">
   <rect x="52.160938" y="36" width="334.8" height="217.44"/>
  </clipPath>
 </defs>
</svg>
