<?xml version="1.0" encoding="utf-8" standalone="no"?>
<!DOCTYPE svg PUBLIC "-//W3C//DTD SVG 1.1//EN"
  "http://www.w3.org/Graphics/SVG/1.1/DTD/svg11.dtd">
<svg xmlns:xlink="http://www.w3.org/1999/xlink" width="380.054687pt" height="248.518125pt" viewBox="0 0 380.054687 248.518125" xmlns="http://www.w3.org/2000/svg" version="1.1">
 <metadata>
  <rdf:RDF xmlns:dc="http://purl.org/dc/elements/1.1/" xmlns:cc="http://creativecommons.org/ns#" xmlns:rdf="http://www.w3.org/1999/02/22-rdf-syntax-ns#">
   <cc:Work>
    <dc:type rdf:resource="http://purl.org/dc/dcmitype/StillImage"/>
    <dc:date>2022-10-15T15:46:53.240157</dc:date>
    <dc:format>image/svg+xml</dc:format>
    <dc:creator>
     <cc:Agent>
      <dc:title>Matplotlib v3.6.0, https://matplotlib.org/</dc:title>
     </cc:Agent>
    </dc:creator>
   </cc:Work>
  </rdf:RDF>
 </metadata>
 <defs>
  <style type="text/css">*{stroke-linejoin: round; stroke-linecap: butt}</style>
 </defs>
 <g id="figure_1">
  <g id="patch_1">
   <path d="M 0 248.518125 
L 380.054687 248.518125 
L 380.054687 0 
L 0 0 
L 0 248.518125 
z
" style="fill: none"/>
  </g>
  <g id="axes_1">
   <g id="patch_2">
    <path d="M 30.103125 224.64 
L 364.903125 224.64 
L 364.903125 7.2 
L 30.103125 7.2 
z
" style="fill: #ffffff"/>
   </g>
   <g id="matplotlib.axis_1">
    <g id="xtick_1">
     <g id="line2d_1">
      <defs>
       <path id="md9d312806e" d="M 0 0 
L 0 3.5 
" style="stroke: #000000; stroke-width: 0.8"/>
      </defs>
      <g>
       <use xlink:href="#md9d312806e" x="30.103125" y="224.64" style="stroke: #000000; stroke-width: 0.8"/>
      </g>
     </g>
     <g id="text_1">
      <!-- 0.0 -->
      <g transform="translate(22.151563 239.238437) scale(0.1 -0.1)">
       <defs>
        <path id="DejaVuSans-30" d="M 2034 4250 
Q 1547 4250 1301 3770 
Q 1056 3291 1056 2328 
Q 1056 1369 1301 889 
Q 1547 409 2034 409 
Q 2525 409 2770 889 
Q 3016 1369 3016 2328 
Q 3016 3291 2770 3770 
Q 2525 4250 2034 4250 
z
M 2034 4750 
Q 2819 4750 3233 4129 
Q 3647 3509 3647 2328 
Q 3647 1150 3233 529 
Q 2819 -91 2034 -91 
Q 1250 -91 836 529 
Q 422 1150 422 2328 
Q 422 3509 836 4129 
Q 1250 4750 2034 4750 
z
" transform="scale(0.015625)"/>
        <path id="DejaVuSans-2e" d="M 684 794 
L 1344 794 
L 1344 0 
L 684 0 
L 684 794 
z
" transform="scale(0.015625)"/>
       </defs>
       <use xlink:href="#DejaVuSans-30"/>
       <use xlink:href="#DejaVuSans-2e" x="63.623047"/>
       <use xlink:href="#DejaVuSans-30" x="95.410156"/>
      </g>
     </g>
    </g>
    <g id="xtick_2">
     <g id="line2d_2">
      <g>
       <use xlink:href="#md9d312806e" x="97.063125" y="224.64" style="stroke: #000000; stroke-width: 0.8"/>
      </g>
     </g>
     <g id="text_2">
      <!-- 0.2 -->
      <g transform="translate(89.111563 239.238437) scale(0.1 -0.1)">
       <defs>
        <path id="DejaVuSans-32" d="M 1228 531 
L 3431 531 
L 3431 0 
L 469 0 
L 469 531 
Q 828 903 1448 1529 
Q 2069 2156 2228 2338 
Q 2531 2678 2651 2914 
Q 2772 3150 2772 3378 
Q 2772 3750 2511 3984 
Q 2250 4219 1831 4219 
Q 1534 4219 1204 4116 
Q 875 4013 500 3803 
L 500 4441 
Q 881 4594 1212 4672 
Q 1544 4750 1819 4750 
Q 2544 4750 2975 4387 
Q 3406 4025 3406 3419 
Q 3406 3131 3298 2873 
Q 3191 2616 2906 2266 
Q 2828 2175 2409 1742 
Q 1991 1309 1228 531 
z
" transform="scale(0.015625)"/>
       </defs>
       <use xlink:href="#DejaVuSans-30"/>
       <use xlink:href="#DejaVuSans-2e" x="63.623047"/>
       <use xlink:href="#DejaVuSans-32" x="95.410156"/>
      </g>
     </g>
    </g>
    <g id="xtick_3">
     <g id="line2d_3">
      <g>
       <use xlink:href="#md9d312806e" x="164.023125" y="224.64" style="stroke: #000000; stroke-width: 0.8"/>
      </g>
     </g>
     <g id="text_3">
      <!-- 0.4 -->
      <g transform="translate(156.071563 239.238437) scale(0.1 -0.1)">
       <defs>
        <path id="DejaVuSans-34" d="M 2419 4116 
L 825 1625 
L 2419 1625 
L 2419 4116 
z
M 2253 4666 
L 3047 4666 
L 3047 1625 
L 3713 1625 
L 3713 1100 
L 3047 1100 
L 3047 0 
L 2419 0 
L 2419 1100 
L 313 1100 
L 313 1709 
L 2253 4666 
z
" transform="scale(0.015625)"/>
       </defs>
       <use xlink:href="#DejaVuSans-30"/>
       <use xlink:href="#DejaVuSans-2e" x="63.623047"/>
       <use xlink:href="#DejaVuSans-34" x="95.410156"/>
      </g>
     </g>
    </g>
    <g id="xtick_4">
     <g id="line2d_4">
      <g>
       <use xlink:href="#md9d312806e" x="230.983125" y="224.64" style="stroke: #000000; stroke-width: 0.8"/>
      </g>
     </g>
     <g id="text_4">
      <!-- 0.6 -->
      <g transform="translate(223.031563 239.238437) scale(0.1 -0.1)">
       <defs>
        <path id="DejaVuSans-36" d="M 2113 2584 
Q 1688 2584 1439 2293 
Q 1191 2003 1191 1497 
Q 1191 994 1439 701 
Q 1688 409 2113 409 
Q 2538 409 2786 701 
Q 3034 994 3034 1497 
Q 3034 2003 2786 2293 
Q 2538 2584 2113 2584 
z
M 3366 4563 
L 3366 3988 
Q 3128 4100 2886 4159 
Q 2644 4219 2406 4219 
Q 1781 4219 1451 3797 
Q 1122 3375 1075 2522 
Q 1259 2794 1537 2939 
Q 1816 3084 2150 3084 
Q 2853 3084 3261 2657 
Q 3669 2231 3669 1497 
Q 3669 778 3244 343 
Q 2819 -91 2113 -91 
Q 1303 -91 875 529 
Q 447 1150 447 2328 
Q 447 3434 972 4092 
Q 1497 4750 2381 4750 
Q 2619 4750 2861 4703 
Q 3103 4656 3366 4563 
z
" transform="scale(0.015625)"/>
       </defs>
       <use xlink:href="#DejaVuSans-30"/>
       <use xlink:href="#DejaVuSans-2e" x="63.623047"/>
       <use xlink:href="#DejaVuSans-36" x="95.410156"/>
      </g>
     </g>
    </g>
    <g id="xtick_5">
     <g id="line2d_5">
      <g>
       <use xlink:href="#md9d312806e" x="297.943125" y="224.64" style="stroke: #000000; stroke-width: 0.8"/>
      </g>
     </g>
     <g id="text_5">
      <!-- 0.8 -->
      <g transform="translate(289.991563 239.238437) scale(0.1 -0.1)">
       <defs>
        <path id="DejaVuSans-38" d="M 2034 2216 
Q 1584 2216 1326 1975 
Q 1069 1734 1069 1313 
Q 1069 891 1326 650 
Q 1584 409 2034 409 
Q 2484 409 2743 651 
Q 3003 894 3003 1313 
Q 3003 1734 2745 1975 
Q 2488 2216 2034 2216 
z
M 1403 2484 
Q 997 2584 770 2862 
Q 544 3141 544 3541 
Q 544 4100 942 4425 
Q 1341 4750 2034 4750 
Q 2731 4750 3128 4425 
Q 3525 4100 3525 3541 
Q 3525 3141 3298 2862 
Q 3072 2584 2669 2484 
Q 3125 2378 3379 2068 
Q 3634 1759 3634 1313 
Q 3634 634 3220 271 
Q 2806 -91 2034 -91 
Q 1263 -91 848 271 
Q 434 634 434 1313 
Q 434 1759 690 2068 
Q 947 2378 1403 2484 
z
M 1172 3481 
Q 1172 3119 1398 2916 
Q 1625 2713 2034 2713 
Q 2441 2713 2670 2916 
Q 2900 3119 2900 3481 
Q 2900 3844 2670 4047 
Q 2441 4250 2034 4250 
Q 1625 4250 1398 4047 
Q 1172 3844 1172 3481 
z
" transform="scale(0.015625)"/>
       </defs>
       <use xlink:href="#DejaVuSans-30"/>
       <use xlink:href="#DejaVuSans-2e" x="63.623047"/>
       <use xlink:href="#DejaVuSans-38" x="95.410156"/>
      </g>
     </g>
    </g>
    <g id="xtick_6">
     <g id="line2d_6">
      <g>
       <use xlink:href="#md9d312806e" x="364.903125" y="224.64" style="stroke: #000000; stroke-width: 0.8"/>
      </g>
     </g>
     <g id="text_6">
      <!-- 1.0 -->
      <g transform="translate(356.951563 239.238437) scale(0.1 -0.1)">
       <defs>
        <path id="DejaVuSans-31" d="M 794 531 
L 1825 531 
L 1825 4091 
L 703 3866 
L 703 4441 
L 1819 4666 
L 2450 4666 
L 2450 531 
L 3481 531 
L 3481 0 
L 794 0 
L 794 531 
z
" transform="scale(0.015625)"/>
       </defs>
       <use xlink:href="#DejaVuSans-31"/>
       <use xlink:href="#DejaVuSans-2e" x="63.623047"/>
       <use xlink:href="#DejaVuSans-30" x="95.410156"/>
      </g>
     </g>
    </g>
   </g>
   <g id="matplotlib.axis_2">
    <g id="ytick_1">
     <g id="line2d_7">
      <defs>
       <path id="m476ff0ff20" d="M 0 0 
L -3.5 0 
" style="stroke: #000000; stroke-width: 0.8"/>
      </defs>
      <g>
       <use xlink:href="#m476ff0ff20" x="30.103125" y="214.756364" style="stroke: #000000; stroke-width: 0.8"/>
      </g>
     </g>
     <g id="text_7">
      <!-- 0.0 -->
      <g transform="translate(7.2 218.555582) scale(0.1 -0.1)">
       <use xlink:href="#DejaVuSans-30"/>
       <use xlink:href="#DejaVuSans-2e" x="63.623047"/>
       <use xlink:href="#DejaVuSans-30" x="95.410156"/>
      </g>
     </g>
    </g>
    <g id="ytick_2">
     <g id="line2d_8">
      <g>
       <use xlink:href="#m476ff0ff20" x="30.103125" y="178.386522" style="stroke: #000000; stroke-width: 0.8"/>
      </g>
     </g>
     <g id="text_8">
      <!-- 0.2 -->
      <g transform="translate(7.2 182.185741) scale(0.1 -0.1)">
       <use xlink:href="#DejaVuSans-30"/>
       <use xlink:href="#DejaVuSans-2e" x="63.623047"/>
       <use xlink:href="#DejaVuSans-32" x="95.410156"/>
      </g>
     </g>
    </g>
    <g id="ytick_3">
     <g id="line2d_9">
      <g>
       <use xlink:href="#m476ff0ff20" x="30.103125" y="142.016681" style="stroke: #000000; stroke-width: 0.8"/>
      </g>
     </g>
     <g id="text_9">
      <!-- 0.4 -->
      <g transform="translate(7.2 145.8159) scale(0.1 -0.1)">
       <use xlink:href="#DejaVuSans-30"/>
       <use xlink:href="#DejaVuSans-2e" x="63.623047"/>
       <use xlink:href="#DejaVuSans-34" x="95.410156"/>
      </g>
     </g>
    </g>
    <g id="ytick_4">
     <g id="line2d_10">
      <g>
       <use xlink:href="#m476ff0ff20" x="30.103125" y="105.64684" style="stroke: #000000; stroke-width: 0.8"/>
      </g>
     </g>
     <g id="text_10">
      <!-- 0.6 -->
      <g transform="translate(7.2 109.446059) scale(0.1 -0.1)">
       <use xlink:href="#DejaVuSans-30"/>
       <use xlink:href="#DejaVuSans-2e" x="63.623047"/>
       <use xlink:href="#DejaVuSans-36" x="95.410156"/>
      </g>
     </g>
    </g>
    <g id="ytick_5">
     <g id="line2d_11">
      <g>
       <use xlink:href="#m476ff0ff20" x="30.103125" y="69.276998" style="stroke: #000000; stroke-width: 0.8"/>
      </g>
     </g>
     <g id="text_11">
      <!-- 0.8 -->
      <g transform="translate(7.2 73.076217) scale(0.1 -0.1)">
       <use xlink:href="#DejaVuSans-30"/>
       <use xlink:href="#DejaVuSans-2e" x="63.623047"/>
       <use xlink:href="#DejaVuSans-38" x="95.410156"/>
      </g>
     </g>
    </g>
    <g id="ytick_6">
     <g id="line2d_12">
      <g>
       <use xlink:href="#m476ff0ff20" x="30.103125" y="32.907157" style="stroke: #000000; stroke-width: 0.8"/>
      </g>
     </g>
     <g id="text_12">
      <!-- 1.0 -->
      <g transform="translate(7.2 36.706376) scale(0.1 -0.1)">
       <use xlink:href="#DejaVuSans-31"/>
       <use xlink:href="#DejaVuSans-2e" x="63.623047"/>
       <use xlink:href="#DejaVuSans-30" x="95.410156"/>
      </g>
     </g>
    </g>
   </g>
   <g id="line2d_13">
    <path d="M 30.103125 171.065809 
L 31.442325 17.083636 
L 31.777125 214.756364 
L 33.116325 52.669866 
L 33.451125 17.083636 
L 33.785925 214.756364 
L 35.125125 52.669866 
L 35.459925 17.083636 
L 35.794725 214.756364 
L 37.133925 52.669866 
L 37.468725 17.083636 
L 37.803525 214.756364 
L 39.142725 52.669866 
L 39.477525 17.083636 
L 39.812325 214.756364 
L 41.151525 52.669866 
L 41.486325 17.083636 
L 41.821125 214.756364 
L 43.160325 52.669866 
L 43.495125 17.083636 
L 43.829925 214.756364 
L 45.169125 52.669866 
L 45.503925 17.083636 
L 45.838725 214.756364 
L 47.177925 52.669866 
L 47.512725 17.083636 
L 47.847525 214.756364 
L 49.186725 52.669866 
L 49.521525 17.083636 
L 49.856325 214.756364 
L 51.195525 52.669866 
L 51.530325 17.083636 
L 51.865125 214.756364 
L 53.204325 52.669866 
L 53.539125 17.083636 
L 53.873925 214.756364 
L 55.213125 52.669866 
L 55.547925 17.083636 
L 55.882725 214.756364 
L 57.221925 52.669866 
L 57.556725 17.083636 
L 57.891525 214.756364 
L 59.230725 52.669866 
L 59.565525 17.083636 
L 59.900325 214.756364 
L 61.239525 52.669866 
L 61.574325 17.083636 
L 61.909125 214.756364 
L 63.248325 52.669866 
L 63.583125 17.083636 
L 63.917925 214.756364 
L 65.257125 52.669866 
L 65.591925 17.083636 
L 65.926725 214.756364 
L 67.265925 52.669866 
L 67.600725 17.083636 
L 67.935525 214.756364 
L 69.274725 52.669866 
L 69.609525 17.083636 
L 69.944325 214.756364 
L 71.283525 52.669866 
L 71.618325 17.083636 
L 71.953125 214.756364 
L 73.292325 52.669866 
L 73.627125 17.083636 
L 73.961925 214.756364 
L 75.301125 52.669866 
L 75.635925 17.083636 
L 75.970725 214.756364 
L 77.309925 52.669866 
L 77.644725 17.083636 
L 77.979525 214.756364 
L 79.318725 52.669866 
L 79.653525 17.083636 
L 79.988325 214.756364 
L 81.327525 52.669866 
L 81.662325 17.083636 
L 81.997125 214.756364 
L 83.336325 52.669866 
L 83.671125 17.083636 
L 84.005925 214.756364 
L 85.345125 52.669866 
L 85.679925 17.083636 
L 86.014725 214.756364 
L 87.353925 52.669866 
L 87.688725 17.083636 
L 88.023525 214.756364 
L 89.362725 52.669866 
L 89.697525 17.083636 
L 90.032325 214.756364 
L 91.371525 52.669866 
L 91.706325 17.083636 
L 92.041125 214.756364 
L 93.380325 52.669866 
L 93.715125 17.083636 
L 94.049925 214.756364 
L 95.389125 52.669866 
L 95.723925 17.083636 
L 96.058725 214.756364 
L 97.397925 52.669866 
L 97.732725 17.083636 
L 98.067525 214.756364 
L 99.406725 52.669866 
L 99.741525 17.083636 
L 100.076325 214.756364 
L 101.415525 52.669866 
L 101.750325 17.083636 
L 102.085125 214.756364 
L 103.424325 52.669866 
L 103.759125 17.083636 
L 104.093925 214.756364 
L 105.433125 52.669866 
L 105.767925 17.083636 
L 106.102725 214.756364 
L 107.441925 52.669866 
L 107.776725 17.083636 
L 108.111525 214.756364 
L 109.450725 52.669866 
L 109.785525 17.083636 
L 110.120325 214.756364 
L 111.459525 52.669866 
L 111.794325 17.083636 
L 112.129125 214.756364 
L 113.468325 52.669866 
L 113.803125 17.083636 
L 114.137925 214.756364 
L 115.477125 52.669866 
L 115.811925 17.083636 
L 116.146725 214.756364 
L 117.485925 52.669866 
L 117.820725 17.083636 
L 118.155525 214.756364 
L 119.494725 52.669866 
L 119.829525 17.083636 
L 120.164325 214.756364 
L 121.503525 52.669866 
L 121.838325 17.083636 
L 122.173125 214.756364 
L 123.512325 52.669866 
L 123.847125 17.083636 
L 124.181925 214.756364 
L 125.521125 52.669866 
L 125.855925 17.083636 
L 126.190725 214.756364 
L 127.529925 52.669866 
L 127.864725 17.083636 
L 128.199525 214.756364 
L 129.538725 52.669866 
L 129.873525 17.083636 
L 130.208325 214.756364 
L 131.547525 52.669866 
L 131.882325 17.083636 
L 132.217125 214.756364 
L 133.556325 52.669866 
L 133.891125 17.083636 
L 134.225925 214.756364 
L 135.565125 52.669866 
L 135.899925 17.083636 
L 136.234725 214.756364 
L 137.573925 52.669866 
L 137.908725 17.083636 
L 138.243525 214.756364 
L 139.582725 52.669866 
L 139.917525 17.083636 
L 140.252325 214.756364 
L 141.591525 52.669866 
L 141.926325 17.083636 
L 142.261125 214.756364 
L 143.600325 52.669866 
L 143.935125 17.083636 
L 144.269925 214.756364 
L 145.609125 52.669866 
L 145.943925 17.083636 
L 146.278725 214.756364 
L 147.617925 52.669866 
L 147.952725 17.083636 
L 148.287525 214.756364 
L 149.626725 52.669866 
L 149.961525 17.083636 
L 150.296325 214.756364 
L 151.635525 52.669866 
L 151.970325 17.083636 
L 152.305125 214.756364 
L 153.644325 52.669866 
L 153.979125 17.083636 
L 154.313925 214.756364 
L 155.653125 52.669866 
L 155.987925 17.083636 
L 156.322725 214.756364 
L 157.661925 52.669866 
L 157.996725 17.083636 
L 158.331525 214.756364 
L 159.670725 52.669866 
L 160.005525 17.083636 
L 160.340325 214.756364 
L 161.679525 52.669866 
L 162.014325 17.083636 
L 162.349125 214.756364 
L 163.688325 52.669866 
L 164.023125 17.083636 
L 164.357925 214.756364 
L 165.697125 52.669866 
L 166.031925 17.083636 
L 166.366725 214.756364 
L 167.705925 52.669866 
L 168.040725 17.083636 
L 168.375525 214.756364 
L 169.714725 52.669866 
L 170.049525 17.083636 
L 170.384325 214.756364 
L 171.723525 52.669866 
L 172.058325 17.083636 
L 172.393125 214.756364 
L 173.732325 52.669866 
L 174.067125 17.083636 
L 174.401925 214.756364 
L 175.741125 52.669866 
L 176.075925 17.083636 
L 176.410725 214.756364 
L 177.749925 52.669866 
L 178.084725 17.083636 
L 178.419525 214.756364 
L 179.758725 52.669866 
L 180.093525 17.083636 
L 180.428325 214.756364 
L 181.767525 52.669866 
L 182.102325 17.083636 
L 182.437125 214.756364 
L 183.776325 52.669866 
L 184.111125 17.083636 
L 184.445925 214.756364 
L 185.785125 52.669866 
L 186.119925 17.083636 
L 186.454725 214.756364 
L 187.793925 52.669866 
L 188.128725 17.083636 
L 188.463525 214.756364 
L 189.802725 52.669866 
L 190.137525 17.083636 
L 190.472325 214.756364 
L 191.811525 52.669866 
L 192.146325 17.083636 
L 192.481125 214.756364 
L 193.820325 52.669866 
L 194.155125 17.083636 
L 194.489925 214.756364 
L 195.829125 52.669866 
L 196.163925 17.083636 
L 196.498725 214.756364 
L 197.837925 52.669866 
L 198.172725 17.083636 
L 198.507525 214.756364 
L 199.846725 52.669866 
L 200.181525 17.083636 
L 200.516325 214.756364 
L 201.855525 52.669866 
L 202.190325 17.083636 
L 202.525125 214.756364 
L 203.864325 52.669866 
L 204.199125 17.083636 
L 204.533925 214.756364 
L 205.873125 52.669866 
L 206.207925 17.083636 
L 206.542725 214.756364 
L 207.881925 52.669866 
L 208.216725 17.083636 
L 208.551525 214.756364 
L 209.890725 52.669866 
L 210.225525 17.083636 
L 210.560325 214.756364 
L 211.899525 52.669866 
L 212.234325 17.083636 
L 212.569125 214.756364 
L 213.908325 52.669866 
L 214.243125 17.083636 
L 214.577925 214.756364 
L 215.917125 52.669866 
L 216.251925 17.083636 
L 216.586725 214.756364 
L 217.925925 52.669866 
L 218.260725 17.083636 
L 218.595525 214.756364 
L 219.934725 52.669866 
L 220.269525 17.083636 
L 220.604325 214.756364 
L 221.943525 52.669866 
L 222.278325 17.083636 
L 222.613125 214.756364 
L 223.952325 52.669866 
L 224.287125 17.083636 
L 224.621925 214.756364 
L 225.961125 52.669866 
L 226.295925 17.083636 
L 226.630725 214.756364 
L 227.969925 52.669866 
L 228.304725 17.083636 
L 228.639525 214.756364 
L 229.978725 52.669866 
L 230.313525 17.083636 
L 230.648325 214.756364 
L 231.987525 52.669866 
L 232.322325 17.083636 
L 232.657125 214.756364 
L 233.996325 52.669866 
L 234.331125 17.083636 
L 234.665925 214.756364 
L 236.005125 52.669866 
L 236.339925 17.083636 
L 236.674725 214.756364 
L 238.013925 52.669866 
L 238.348725 17.083636 
L 238.683525 214.756364 
L 240.022725 52.669866 
L 240.357525 17.083636 
L 240.692325 214.756364 
L 242.031525 52.669866 
L 242.366325 17.083636 
L 242.701125 214.756364 
L 244.040325 52.669866 
L 244.375125 17.083636 
L 244.709925 214.756364 
L 246.049125 52.669866 
L 246.383925 17.083636 
L 246.718725 214.756364 
L 248.057925 52.669866 
L 248.392725 17.083636 
L 248.727525 214.756364 
L 250.066725 52.669866 
L 250.401525 17.083636 
L 250.736325 214.756364 
L 252.075525 52.669866 
L 252.410325 17.083636 
L 252.745125 214.756364 
L 254.084325 52.669866 
L 254.419125 17.083636 
L 254.753925 214.756364 
L 256.093125 52.669866 
L 256.427925 17.083636 
L 256.762725 214.756364 
L 258.101925 52.669866 
L 258.436725 17.083636 
L 258.771525 214.756364 
L 260.110725 52.669866 
L 260.445525 17.083636 
L 260.780325 214.756364 
L 262.119525 52.669866 
L 262.454325 17.083636 
L 262.789125 214.756364 
L 264.128325 52.669866 
L 264.463125 17.083636 
L 264.797925 214.756364 
L 266.137125 52.669866 
L 266.471925 17.083636 
L 266.806725 214.756364 
L 268.145925 52.669866 
L 268.480725 17.083636 
L 268.815525 214.756364 
L 270.154725 52.669866 
L 270.489525 17.083636 
L 270.824325 214.756364 
L 272.163525 52.669866 
L 272.498325 17.083636 
L 272.833125 214.756364 
L 274.172325 52.669866 
L 274.507125 17.083636 
L 274.841925 214.756364 
L 276.181125 52.669866 
L 276.515925 17.083636 
L 276.850725 214.756364 
L 278.189925 52.669866 
L 278.524725 17.083636 
L 278.859525 214.756364 
L 280.198725 52.669866 
L 280.533525 17.083636 
L 280.868325 214.756364 
L 282.207525 52.669866 
L 282.542325 17.083636 
L 282.877125 214.756364 
L 284.216325 52.669866 
L 284.551125 17.083636 
L 284.885925 214.756364 
L 286.225125 52.669866 
L 286.559925 17.083636 
L 286.894725 214.756364 
L 288.233925 52.669866 
L 288.568725 17.083636 
L 288.903525 214.756364 
L 290.242725 52.669866 
L 290.577525 17.083636 
L 290.912325 214.756364 
L 292.251525 52.669866 
L 292.586325 17.083636 
L 292.921125 214.756364 
L 294.260325 52.669866 
L 294.595125 17.083636 
L 294.929925 214.756364 
L 296.269125 52.669866 
L 296.603925 17.083636 
L 296.938725 214.756364 
L 298.277925 52.669866 
L 298.612725 17.083636 
L 298.947525 214.756364 
L 300.286725 52.669866 
L 300.621525 17.083636 
L 300.956325 214.756364 
L 302.295525 52.669866 
L 302.630325 17.083636 
L 302.965125 214.756364 
L 304.304325 52.669866 
L 304.639125 17.083636 
L 304.973925 214.756364 
L 306.313125 52.669866 
L 306.647925 17.083636 
L 306.982725 214.756364 
L 308.321925 52.669866 
L 308.656725 17.083636 
L 308.991525 214.756364 
L 310.330725 52.669866 
L 310.665525 17.083636 
L 311.000325 214.756364 
L 312.339525 52.669866 
L 312.674325 17.083636 
L 313.009125 214.756364 
L 314.348325 52.669866 
L 314.683125 17.083636 
L 315.017925 214.756364 
L 316.357125 52.669866 
L 316.691925 17.083636 
L 317.026725 214.756364 
L 318.365925 52.669866 
L 318.700725 17.083636 
L 319.035525 214.756364 
L 320.374725 52.669866 
L 320.709525 17.083636 
L 321.044325 214.756364 
L 322.383525 52.669866 
L 322.718325 17.083636 
L 323.053125 214.756364 
L 324.392325 52.669866 
L 324.727125 17.083636 
L 325.061925 214.756364 
L 326.401125 52.669866 
L 326.735925 17.083636 
L 327.070725 214.756364 
L 328.409925 52.669866 
L 328.744725 17.083636 
L 329.079525 214.756364 
L 330.418725 52.669866 
L 330.753525 17.083636 
L 331.088325 214.756364 
L 332.427525 52.669866 
L 332.762325 17.083636 
L 333.097125 214.756364 
L 334.436325 52.669866 
L 334.771125 17.083636 
L 335.105925 214.756364 
L 336.445125 52.669866 
L 336.779925 17.083636 
L 337.114725 214.756364 
L 338.453925 52.669866 
L 338.788725 17.083636 
L 339.123525 214.756364 
L 340.462725 52.669866 
L 340.797525 17.083636 
L 341.132325 214.756364 
L 342.471525 52.669866 
L 342.806325 17.083636 
L 343.141125 214.756364 
L 344.480325 52.669866 
L 344.815125 17.083636 
L 345.149925 214.756364 
L 346.489125 52.669866 
L 346.823925 17.083636 
L 347.158725 214.756364 
L 348.497925 52.669866 
L 348.832725 17.083636 
L 349.167525 214.756364 
L 350.506725 52.669866 
L 350.841525 17.083636 
L 351.176325 214.756364 
L 352.515525 52.669866 
L 352.850325 17.083636 
L 353.185125 214.756364 
L 354.524325 52.669866 
L 354.859125 17.083636 
L 355.193925 214.756364 
L 356.533125 52.669866 
L 356.867925 17.083636 
L 357.202725 214.756364 
L 358.541925 52.669866 
L 358.876725 17.083636 
L 359.211525 214.756364 
L 360.550725 52.669866 
L 360.885525 17.083636 
L 361.220325 214.756364 
L 362.559525 52.669866 
L 362.894325 17.083636 
L 363.229125 214.756364 
L 364.568325 52.669866 
L 364.568325 52.669866 
" clip-path="url(#pbd8c138ae6)" style="fill: none; stroke: #1f77b4; stroke-width: 1.5; stroke-linecap: square"/>
   </g>
   <g id="patch_3">
    <path d="M 30.103125 224.64 
L 30.103125 7.2 
" style="fill: none; stroke: #000000; stroke-width: 0.8; stroke-linejoin: miter; stroke-linecap: square"/>
   </g>
   <g id="patch_4">
    <path d="M 364.903125 224.64 
L 364.903125 7.2 
" style="fill: none; stroke: #000000; stroke-width: 0.8; stroke-linejoin: miter; stroke-linecap: square"/>
   </g>
   <g id="patch_5">
    <path d="M 30.103125 224.64 
L 364.903125 224.64 
" style="fill: none; stroke: #000000; stroke-width: 0.8; stroke-linejoin: miter; stroke-linecap: square"/>
   </g>
   <g id="patch_6">
    <path d="M 30.103125 7.2 
L 364.903125 7.2 
" style="fill: none; stroke: #000000; stroke-width: 0.8; stroke-linejoin: miter; stroke-linecap: square"/>
   </g>
  </g>
 </g>
 <defs>
  <clipPath id="pbd8c138ae6">
   <rect x="30.103125" y="7.2" width="334.8" height="217.44"/>
  </clipPath>
 </defs>
</svg>
