<?xml version="1.0" encoding="utf-8" standalone="no"?>
<!DOCTYPE svg PUBLIC "-//W3C//DTD SVG 1.1//EN"
  "http://www.w3.org/Graphics/SVG/1.1/DTD/svg11.dtd">
<svg xmlns:xlink="http://www.w3.org/1999/xlink" width="378.465625pt" height="290.99625pt" viewBox="0 0 378.465625 290.99625" xmlns="http://www.w3.org/2000/svg" version="1.1">
 <metadata>
  <rdf:RDF xmlns:dc="http://purl.org/dc/elements/1.1/" xmlns:cc="http://creativecommons.org/ns#" xmlns:rdf="http://www.w3.org/1999/02/22-rdf-syntax-ns#">
   <cc:Work>
    <dc:type rdf:resource="http://purl.org/dc/dcmitype/StillImage"/>
    <dc:date>2022-10-17T12:49:12.760917</dc:date>
    <dc:format>image/svg+xml</dc:format>
    <dc:creator>
     <cc:Agent>
      <dc:title>Matplotlib v3.6.0, https://matplotlib.org/</dc:title>
     </cc:Agent>
    </dc:creator>
   </cc:Work>
  </rdf:RDF>
 </metadata>
 <defs>
  <style type="text/css">*{stroke-linejoin: round; stroke-linecap: butt}</style>
 </defs>
 <g id="figure_1">
  <g id="patch_1">
   <path d="M 0 290.99625 
L 378.465625 290.99625 
L 378.465625 0 
L 0 0 
L 0 290.99625 
z
" style="fill: none"/>
  </g>
  <g id="axes_1">
   <g id="patch_2">
    <path d="M 36.465625 134.836364 
L 371.265625 134.836364 
L 371.265625 36 
L 36.465625 36 
z
" style="fill: #ffffff"/>
   </g>
   <g id="matplotlib.axis_1">
    <g id="xtick_1">
     <g id="line2d_1">
      <defs>
       <path id="mcb1513b05b" d="M 0 0 
L 0 3.5 
" style="stroke: #000000; stroke-width: 0.8"/>
      </defs>
      <g>
       <use xlink:href="#mcb1513b05b" x="69.945625" y="134.836364" style="stroke: #000000; stroke-width: 0.8"/>
      </g>
     </g>
     <g id="text_1">
      <!-- −40 -->
      <g transform="translate(59.393281 149.434801) scale(0.1 -0.1)">
       <defs>
        <path id="DejaVuSans-2212" d="M 678 2272 
L 4684 2272 
L 4684 1741 
L 678 1741 
L 678 2272 
z
" transform="scale(0.015625)"/>
        <path id="DejaVuSans-34" d="M 2419 4116 
L 825 1625 
L 2419 1625 
L 2419 4116 
z
M 2253 4666 
L 3047 4666 
L 3047 1625 
L 3713 1625 
L 3713 1100 
L 3047 1100 
L 3047 0 
L 2419 0 
L 2419 1100 
L 313 1100 
L 313 1709 
L 2253 4666 
z
" transform="scale(0.015625)"/>
        <path id="DejaVuSans-30" d="M 2034 4250 
Q 1547 4250 1301 3770 
Q 1056 3291 1056 2328 
Q 1056 1369 1301 889 
Q 1547 409 2034 409 
Q 2525 409 2770 889 
Q 3016 1369 3016 2328 
Q 3016 3291 2770 3770 
Q 2525 4250 2034 4250 
z
M 2034 4750 
Q 2819 4750 3233 4129 
Q 3647 3509 3647 2328 
Q 3647 1150 3233 529 
Q 2819 -91 2034 -91 
Q 1250 -91 836 529 
Q 422 1150 422 2328 
Q 422 3509 836 4129 
Q 1250 4750 2034 4750 
z
" transform="scale(0.015625)"/>
       </defs>
       <use xlink:href="#DejaVuSans-2212"/>
       <use xlink:href="#DejaVuSans-34" x="83.789062"/>
       <use xlink:href="#DejaVuSans-30" x="147.412109"/>
      </g>
     </g>
    </g>
    <g id="xtick_2">
     <g id="line2d_2">
      <g>
       <use xlink:href="#mcb1513b05b" x="136.905625" y="134.836364" style="stroke: #000000; stroke-width: 0.8"/>
      </g>
     </g>
     <g id="text_2">
      <!-- −20 -->
      <g transform="translate(126.353281 149.434801) scale(0.1 -0.1)">
       <defs>
        <path id="DejaVuSans-32" d="M 1228 531 
L 3431 531 
L 3431 0 
L 469 0 
L 469 531 
Q 828 903 1448 1529 
Q 2069 2156 2228 2338 
Q 2531 2678 2651 2914 
Q 2772 3150 2772 3378 
Q 2772 3750 2511 3984 
Q 2250 4219 1831 4219 
Q 1534 4219 1204 4116 
Q 875 4013 500 3803 
L 500 4441 
Q 881 4594 1212 4672 
Q 1544 4750 1819 4750 
Q 2544 4750 2975 4387 
Q 3406 4025 3406 3419 
Q 3406 3131 3298 2873 
Q 3191 2616 2906 2266 
Q 2828 2175 2409 1742 
Q 1991 1309 1228 531 
z
" transform="scale(0.015625)"/>
       </defs>
       <use xlink:href="#DejaVuSans-2212"/>
       <use xlink:href="#DejaVuSans-32" x="83.789062"/>
       <use xlink:href="#DejaVuSans-30" x="147.412109"/>
      </g>
     </g>
    </g>
    <g id="xtick_3">
     <g id="line2d_3">
      <g>
       <use xlink:href="#mcb1513b05b" x="203.865625" y="134.836364" style="stroke: #000000; stroke-width: 0.8"/>
      </g>
     </g>
     <g id="text_3">
      <!-- 0 -->
      <g transform="translate(200.684375 149.434801) scale(0.1 -0.1)">
       <use xlink:href="#DejaVuSans-30"/>
      </g>
     </g>
    </g>
    <g id="xtick_4">
     <g id="line2d_4">
      <g>
       <use xlink:href="#mcb1513b05b" x="270.825625" y="134.836364" style="stroke: #000000; stroke-width: 0.8"/>
      </g>
     </g>
     <g id="text_4">
      <!-- 20 -->
      <g transform="translate(264.463125 149.434801) scale(0.1 -0.1)">
       <use xlink:href="#DejaVuSans-32"/>
       <use xlink:href="#DejaVuSans-30" x="63.623047"/>
      </g>
     </g>
    </g>
    <g id="xtick_5">
     <g id="line2d_5">
      <g>
       <use xlink:href="#mcb1513b05b" x="337.785625" y="134.836364" style="stroke: #000000; stroke-width: 0.8"/>
      </g>
     </g>
     <g id="text_5">
      <!-- 40 -->
      <g transform="translate(331.423125 149.434801) scale(0.1 -0.1)">
       <use xlink:href="#DejaVuSans-34"/>
       <use xlink:href="#DejaVuSans-30" x="63.623047"/>
      </g>
     </g>
    </g>
    <g id="text_6">
     <!-- $\omega$ radians -->
     <g transform="translate(179.565625 163.112926) scale(0.1 -0.1)">
      <defs>
       <path id="DejaVuSans-Oblique-3c9" d="M 1369 -91 
Q 72 -91 434 1766 
Q 575 2500 1256 3500 
L 1875 3500 
Q 1231 2500 1088 1750 
Q 819 397 1519 397 
Q 2166 397 2478 2078 
L 3009 2078 
Q 2669 388 3316 397 
Q 4013 403 4275 1750 
Q 4419 2500 4169 3500 
L 4788 3500 
Q 5075 2500 4934 1766 
Q 4578 -94 3278 -91 
Q 2428 -88 2503 844 
Q 2194 -91 1369 -91 
z
" transform="scale(0.015625)"/>
       <path id="DejaVuSans-20" transform="scale(0.015625)"/>
       <path id="DejaVuSans-72" d="M 2631 2963 
Q 2534 3019 2420 3045 
Q 2306 3072 2169 3072 
Q 1681 3072 1420 2755 
Q 1159 2438 1159 1844 
L 1159 0 
L 581 0 
L 581 3500 
L 1159 3500 
L 1159 2956 
Q 1341 3275 1631 3429 
Q 1922 3584 2338 3584 
Q 2397 3584 2469 3576 
Q 2541 3569 2628 3553 
L 2631 2963 
z
" transform="scale(0.015625)"/>
       <path id="DejaVuSans-61" d="M 2194 1759 
Q 1497 1759 1228 1600 
Q 959 1441 959 1056 
Q 959 750 1161 570 
Q 1363 391 1709 391 
Q 2188 391 2477 730 
Q 2766 1069 2766 1631 
L 2766 1759 
L 2194 1759 
z
M 3341 1997 
L 3341 0 
L 2766 0 
L 2766 531 
Q 2569 213 2275 61 
Q 1981 -91 1556 -91 
Q 1019 -91 701 211 
Q 384 513 384 1019 
Q 384 1609 779 1909 
Q 1175 2209 1959 2209 
L 2766 2209 
L 2766 2266 
Q 2766 2663 2505 2880 
Q 2244 3097 1772 3097 
Q 1472 3097 1187 3025 
Q 903 2953 641 2809 
L 641 3341 
Q 956 3463 1253 3523 
Q 1550 3584 1831 3584 
Q 2591 3584 2966 3190 
Q 3341 2797 3341 1997 
z
" transform="scale(0.015625)"/>
       <path id="DejaVuSans-64" d="M 2906 2969 
L 2906 4863 
L 3481 4863 
L 3481 0 
L 2906 0 
L 2906 525 
Q 2725 213 2448 61 
Q 2172 -91 1784 -91 
Q 1150 -91 751 415 
Q 353 922 353 1747 
Q 353 2572 751 3078 
Q 1150 3584 1784 3584 
Q 2172 3584 2448 3432 
Q 2725 3281 2906 2969 
z
M 947 1747 
Q 947 1113 1208 752 
Q 1469 391 1925 391 
Q 2381 391 2643 752 
Q 2906 1113 2906 1747 
Q 2906 2381 2643 2742 
Q 2381 3103 1925 3103 
Q 1469 3103 1208 2742 
Q 947 2381 947 1747 
z
" transform="scale(0.015625)"/>
       <path id="DejaVuSans-69" d="M 603 3500 
L 1178 3500 
L 1178 0 
L 603 0 
L 603 3500 
z
M 603 4863 
L 1178 4863 
L 1178 4134 
L 603 4134 
L 603 4863 
z
" transform="scale(0.015625)"/>
       <path id="DejaVuSans-6e" d="M 3513 2113 
L 3513 0 
L 2938 0 
L 2938 2094 
Q 2938 2591 2744 2837 
Q 2550 3084 2163 3084 
Q 1697 3084 1428 2787 
Q 1159 2491 1159 1978 
L 1159 0 
L 581 0 
L 581 3500 
L 1159 3500 
L 1159 2956 
Q 1366 3272 1645 3428 
Q 1925 3584 2291 3584 
Q 2894 3584 3203 3211 
Q 3513 2838 3513 2113 
z
" transform="scale(0.015625)"/>
       <path id="DejaVuSans-73" d="M 2834 3397 
L 2834 2853 
Q 2591 2978 2328 3040 
Q 2066 3103 1784 3103 
Q 1356 3103 1142 2972 
Q 928 2841 928 2578 
Q 928 2378 1081 2264 
Q 1234 2150 1697 2047 
L 1894 2003 
Q 2506 1872 2764 1633 
Q 3022 1394 3022 966 
Q 3022 478 2636 193 
Q 2250 -91 1575 -91 
Q 1294 -91 989 -36 
Q 684 19 347 128 
L 347 722 
Q 666 556 975 473 
Q 1284 391 1588 391 
Q 1994 391 2212 530 
Q 2431 669 2431 922 
Q 2431 1156 2273 1281 
Q 2116 1406 1581 1522 
L 1381 1569 
Q 847 1681 609 1914 
Q 372 2147 372 2553 
Q 372 3047 722 3315 
Q 1072 3584 1716 3584 
Q 2034 3584 2315 3537 
Q 2597 3491 2834 3397 
z
" transform="scale(0.015625)"/>
      </defs>
      <use xlink:href="#DejaVuSans-Oblique-3c9" transform="translate(0 0.015625)"/>
      <use xlink:href="#DejaVuSans-20" transform="translate(83.740234 0.015625)"/>
      <use xlink:href="#DejaVuSans-72" transform="translate(115.527344 0.015625)"/>
      <use xlink:href="#DejaVuSans-61" transform="translate(156.640625 0.015625)"/>
      <use xlink:href="#DejaVuSans-64" transform="translate(217.919922 0.015625)"/>
      <use xlink:href="#DejaVuSans-69" transform="translate(281.396484 0.015625)"/>
      <use xlink:href="#DejaVuSans-61" transform="translate(309.179688 0.015625)"/>
      <use xlink:href="#DejaVuSans-6e" transform="translate(370.458984 0.015625)"/>
      <use xlink:href="#DejaVuSans-73" transform="translate(433.837891 0.015625)"/>
     </g>
    </g>
   </g>
   <g id="matplotlib.axis_2">
    <g id="ytick_1">
     <g id="line2d_6">
      <defs>
       <path id="m5f5eb86374" d="M 0 0 
L -3.5 0 
" style="stroke: #000000; stroke-width: 0.8"/>
      </defs>
      <g>
       <use xlink:href="#m5f5eb86374" x="36.465625" y="130.343802" style="stroke: #000000; stroke-width: 0.8"/>
      </g>
     </g>
     <g id="text_7">
      <!-- 0.0 -->
      <g transform="translate(13.5625 134.14302) scale(0.1 -0.1)">
       <defs>
        <path id="DejaVuSans-2e" d="M 684 794 
L 1344 794 
L 1344 0 
L 684 0 
L 684 794 
z
" transform="scale(0.015625)"/>
       </defs>
       <use xlink:href="#DejaVuSans-30"/>
       <use xlink:href="#DejaVuSans-2e" x="63.623047"/>
       <use xlink:href="#DejaVuSans-30" x="95.410156"/>
      </g>
     </g>
    </g>
    <g id="ytick_2">
     <g id="line2d_7">
      <g>
       <use xlink:href="#m5f5eb86374" x="36.465625" y="96.647171" style="stroke: #000000; stroke-width: 0.8"/>
      </g>
     </g>
     <g id="text_8">
      <!-- 0.5 -->
      <g transform="translate(13.5625 100.446389) scale(0.1 -0.1)">
       <defs>
        <path id="DejaVuSans-35" d="M 691 4666 
L 3169 4666 
L 3169 4134 
L 1269 4134 
L 1269 2991 
Q 1406 3038 1543 3061 
Q 1681 3084 1819 3084 
Q 2600 3084 3056 2656 
Q 3513 2228 3513 1497 
Q 3513 744 3044 326 
Q 2575 -91 1722 -91 
Q 1428 -91 1123 -41 
Q 819 9 494 109 
L 494 744 
Q 775 591 1075 516 
Q 1375 441 1709 441 
Q 2250 441 2565 725 
Q 2881 1009 2881 1497 
Q 2881 1984 2565 2268 
Q 2250 2553 1709 2553 
Q 1456 2553 1204 2497 
Q 953 2441 691 2322 
L 691 4666 
z
" transform="scale(0.015625)"/>
       </defs>
       <use xlink:href="#DejaVuSans-30"/>
       <use xlink:href="#DejaVuSans-2e" x="63.623047"/>
       <use xlink:href="#DejaVuSans-35" x="95.410156"/>
      </g>
     </g>
    </g>
    <g id="ytick_3">
     <g id="line2d_8">
      <g>
       <use xlink:href="#m5f5eb86374" x="36.465625" y="62.95054" style="stroke: #000000; stroke-width: 0.8"/>
      </g>
     </g>
     <g id="text_9">
      <!-- 1.0 -->
      <g transform="translate(13.5625 66.749758) scale(0.1 -0.1)">
       <defs>
        <path id="DejaVuSans-31" d="M 794 531 
L 1825 531 
L 1825 4091 
L 703 3866 
L 703 4441 
L 1819 4666 
L 2450 4666 
L 2450 531 
L 3481 531 
L 3481 0 
L 794 0 
L 794 531 
z
" transform="scale(0.015625)"/>
       </defs>
       <use xlink:href="#DejaVuSans-31"/>
       <use xlink:href="#DejaVuSans-2e" x="63.623047"/>
       <use xlink:href="#DejaVuSans-30" x="95.410156"/>
      </g>
     </g>
    </g>
   </g>
   <g id="line2d_9">
    <path d="M 34.791625 130.343802 
L 128.535625 130.239742 
L 131.883625 130.085991 
L 135.231625 129.735052 
L 136.905625 129.426187 
L 138.579625 128.979343 
L 140.253625 128.343922 
L 141.927625 127.457166 
L 143.601625 126.244995 
L 145.275625 124.62551 
L 146.949625 122.516109 
L 148.623625 119.84467 
L 150.297625 116.563958 
L 151.971625 112.666628 
L 153.645625 108.196533 
L 156.993625 97.975932 
L 162.015625 81.875723 
L 163.689625 76.926075 
L 165.363625 72.355698 
L 167.037625 68.208616 
L 168.711625 64.496523 
L 170.385625 61.207436 
L 172.059625 58.314149 
L 173.733625 55.78124 
L 175.407625 53.570246 
L 177.081625 51.643094 
L 178.755625 49.964159 
L 180.429625 48.501314 
L 182.103625 47.226315 
L 183.777625 46.11478 
L 187.125625 44.302275 
L 190.473625 42.934403 
L 193.821625 41.921829 
L 197.169625 41.204804 
L 200.517625 40.745126 
L 203.865625 40.520419 
L 207.213625 40.520419 
L 210.561625 40.745126 
L 213.909625 41.204804 
L 217.257625 41.921829 
L 220.605625 42.934403 
L 223.953625 44.302275 
L 225.627625 45.145937 
L 227.301625 46.11478 
L 228.975625 47.226315 
L 230.649625 48.501314 
L 232.323625 49.964159 
L 233.997625 51.643094 
L 235.671625 53.570246 
L 237.345625 55.78124 
L 239.019625 58.314149 
L 240.693625 61.207436 
L 242.367625 64.496523 
L 244.041625 68.208616 
L 245.715625 72.355698 
L 247.389625 76.926075 
L 250.737625 87.121723 
L 255.759625 103.251663 
L 257.433625 108.196533 
L 259.107625 112.666628 
L 260.781625 116.563958 
L 262.455625 119.84467 
L 264.129625 122.516109 
L 265.803625 124.62551 
L 267.477625 126.244995 
L 269.151625 127.457166 
L 270.825625 128.343922 
L 272.499625 128.979343 
L 274.173625 129.426187 
L 277.521625 129.945168 
L 280.869625 130.179056 
L 287.565625 130.319267 
L 309.327625 130.343786 
L 372.939625 130.343802 
L 372.939625 130.343802 
" clip-path="url(#p70f671d975)" style="fill: none; stroke: #1f77b4; stroke-width: 1.5; stroke-linecap: square"/>
   </g>
   <g id="patch_3">
    <path d="M 36.465625 134.836364 
L 36.465625 36 
" style="fill: none; stroke: #000000; stroke-width: 0.8; stroke-linejoin: miter; stroke-linecap: square"/>
   </g>
   <g id="patch_4">
    <path d="M 371.265625 134.836364 
L 371.265625 36 
" style="fill: none; stroke: #000000; stroke-width: 0.8; stroke-linejoin: miter; stroke-linecap: square"/>
   </g>
   <g id="patch_5">
    <path d="M 36.465625 134.836364 
L 371.265625 134.836364 
" style="fill: none; stroke: #000000; stroke-width: 0.8; stroke-linejoin: miter; stroke-linecap: square"/>
   </g>
   <g id="patch_6">
    <path d="M 36.465625 36 
L 371.265625 36 
" style="fill: none; stroke: #000000; stroke-width: 0.8; stroke-linejoin: miter; stroke-linecap: square"/>
   </g>
   <g id="legend_1">
    <g id="patch_7">
     <path d="M 154.09375 94.257244 
L 364.265625 94.257244 
Q 366.265625 94.257244 366.265625 92.257244 
L 366.265625 78.579119 
Q 366.265625 76.579119 364.265625 76.579119 
L 154.09375 76.579119 
Q 152.09375 76.579119 152.09375 78.579119 
L 152.09375 92.257244 
Q 152.09375 94.257244 154.09375 94.257244 
z
" style="fill: #ffffff; opacity: 0.8; stroke: #cccccc; stroke-linejoin: miter"/>
    </g>
    <g id="line2d_10">
     <path d="M 156.09375 84.677557 
L 166.09375 84.677557 
L 176.09375 84.677557 
" style="fill: none; stroke: #1f77b4; stroke-width: 1.5; stroke-linecap: square"/>
    </g>
    <g id="text_10">
     <!-- Optimal filter (freq-domain radians) -->
     <g transform="translate(184.09375 88.177557) scale(0.1 -0.1)">
      <defs>
       <path id="DejaVuSans-4f" d="M 2522 4238 
Q 1834 4238 1429 3725 
Q 1025 3213 1025 2328 
Q 1025 1447 1429 934 
Q 1834 422 2522 422 
Q 3209 422 3611 934 
Q 4013 1447 4013 2328 
Q 4013 3213 3611 3725 
Q 3209 4238 2522 4238 
z
M 2522 4750 
Q 3503 4750 4090 4092 
Q 4678 3434 4678 2328 
Q 4678 1225 4090 567 
Q 3503 -91 2522 -91 
Q 1538 -91 948 565 
Q 359 1222 359 2328 
Q 359 3434 948 4092 
Q 1538 4750 2522 4750 
z
" transform="scale(0.015625)"/>
       <path id="DejaVuSans-70" d="M 1159 525 
L 1159 -1331 
L 581 -1331 
L 581 3500 
L 1159 3500 
L 1159 2969 
Q 1341 3281 1617 3432 
Q 1894 3584 2278 3584 
Q 2916 3584 3314 3078 
Q 3713 2572 3713 1747 
Q 3713 922 3314 415 
Q 2916 -91 2278 -91 
Q 1894 -91 1617 61 
Q 1341 213 1159 525 
z
M 3116 1747 
Q 3116 2381 2855 2742 
Q 2594 3103 2138 3103 
Q 1681 3103 1420 2742 
Q 1159 2381 1159 1747 
Q 1159 1113 1420 752 
Q 1681 391 2138 391 
Q 2594 391 2855 752 
Q 3116 1113 3116 1747 
z
" transform="scale(0.015625)"/>
       <path id="DejaVuSans-74" d="M 1172 4494 
L 1172 3500 
L 2356 3500 
L 2356 3053 
L 1172 3053 
L 1172 1153 
Q 1172 725 1289 603 
Q 1406 481 1766 481 
L 2356 481 
L 2356 0 
L 1766 0 
Q 1100 0 847 248 
Q 594 497 594 1153 
L 594 3053 
L 172 3053 
L 172 3500 
L 594 3500 
L 594 4494 
L 1172 4494 
z
" transform="scale(0.015625)"/>
       <path id="DejaVuSans-6d" d="M 3328 2828 
Q 3544 3216 3844 3400 
Q 4144 3584 4550 3584 
Q 5097 3584 5394 3201 
Q 5691 2819 5691 2113 
L 5691 0 
L 5113 0 
L 5113 2094 
Q 5113 2597 4934 2840 
Q 4756 3084 4391 3084 
Q 3944 3084 3684 2787 
Q 3425 2491 3425 1978 
L 3425 0 
L 2847 0 
L 2847 2094 
Q 2847 2600 2669 2842 
Q 2491 3084 2119 3084 
Q 1678 3084 1418 2786 
Q 1159 2488 1159 1978 
L 1159 0 
L 581 0 
L 581 3500 
L 1159 3500 
L 1159 2956 
Q 1356 3278 1631 3431 
Q 1906 3584 2284 3584 
Q 2666 3584 2933 3390 
Q 3200 3197 3328 2828 
z
" transform="scale(0.015625)"/>
       <path id="DejaVuSans-6c" d="M 603 4863 
L 1178 4863 
L 1178 0 
L 603 0 
L 603 4863 
z
" transform="scale(0.015625)"/>
       <path id="DejaVuSans-66" d="M 2375 4863 
L 2375 4384 
L 1825 4384 
Q 1516 4384 1395 4259 
Q 1275 4134 1275 3809 
L 1275 3500 
L 2222 3500 
L 2222 3053 
L 1275 3053 
L 1275 0 
L 697 0 
L 697 3053 
L 147 3053 
L 147 3500 
L 697 3500 
L 697 3744 
Q 697 4328 969 4595 
Q 1241 4863 1831 4863 
L 2375 4863 
z
" transform="scale(0.015625)"/>
       <path id="DejaVuSans-65" d="M 3597 1894 
L 3597 1613 
L 953 1613 
Q 991 1019 1311 708 
Q 1631 397 2203 397 
Q 2534 397 2845 478 
Q 3156 559 3463 722 
L 3463 178 
Q 3153 47 2828 -22 
Q 2503 -91 2169 -91 
Q 1331 -91 842 396 
Q 353 884 353 1716 
Q 353 2575 817 3079 
Q 1281 3584 2069 3584 
Q 2775 3584 3186 3129 
Q 3597 2675 3597 1894 
z
M 3022 2063 
Q 3016 2534 2758 2815 
Q 2500 3097 2075 3097 
Q 1594 3097 1305 2825 
Q 1016 2553 972 2059 
L 3022 2063 
z
" transform="scale(0.015625)"/>
       <path id="DejaVuSans-28" d="M 1984 4856 
Q 1566 4138 1362 3434 
Q 1159 2731 1159 2009 
Q 1159 1288 1364 580 
Q 1569 -128 1984 -844 
L 1484 -844 
Q 1016 -109 783 600 
Q 550 1309 550 2009 
Q 550 2706 781 3412 
Q 1013 4119 1484 4856 
L 1984 4856 
z
" transform="scale(0.015625)"/>
       <path id="DejaVuSans-71" d="M 947 1747 
Q 947 1113 1208 752 
Q 1469 391 1925 391 
Q 2381 391 2643 752 
Q 2906 1113 2906 1747 
Q 2906 2381 2643 2742 
Q 2381 3103 1925 3103 
Q 1469 3103 1208 2742 
Q 947 2381 947 1747 
z
M 2906 525 
Q 2725 213 2448 61 
Q 2172 -91 1784 -91 
Q 1150 -91 751 415 
Q 353 922 353 1747 
Q 353 2572 751 3078 
Q 1150 3584 1784 3584 
Q 2172 3584 2448 3432 
Q 2725 3281 2906 2969 
L 2906 3500 
L 3481 3500 
L 3481 -1331 
L 2906 -1331 
L 2906 525 
z
" transform="scale(0.015625)"/>
       <path id="DejaVuSans-2d" d="M 313 2009 
L 1997 2009 
L 1997 1497 
L 313 1497 
L 313 2009 
z
" transform="scale(0.015625)"/>
       <path id="DejaVuSans-6f" d="M 1959 3097 
Q 1497 3097 1228 2736 
Q 959 2375 959 1747 
Q 959 1119 1226 758 
Q 1494 397 1959 397 
Q 2419 397 2687 759 
Q 2956 1122 2956 1747 
Q 2956 2369 2687 2733 
Q 2419 3097 1959 3097 
z
M 1959 3584 
Q 2709 3584 3137 3096 
Q 3566 2609 3566 1747 
Q 3566 888 3137 398 
Q 2709 -91 1959 -91 
Q 1206 -91 779 398 
Q 353 888 353 1747 
Q 353 2609 779 3096 
Q 1206 3584 1959 3584 
z
" transform="scale(0.015625)"/>
       <path id="DejaVuSans-29" d="M 513 4856 
L 1013 4856 
Q 1481 4119 1714 3412 
Q 1947 2706 1947 2009 
Q 1947 1309 1714 600 
Q 1481 -109 1013 -844 
L 513 -844 
Q 928 -128 1133 580 
Q 1338 1288 1338 2009 
Q 1338 2731 1133 3434 
Q 928 4138 513 4856 
z
" transform="scale(0.015625)"/>
      </defs>
      <use xlink:href="#DejaVuSans-4f"/>
      <use xlink:href="#DejaVuSans-70" x="78.710938"/>
      <use xlink:href="#DejaVuSans-74" x="142.1875"/>
      <use xlink:href="#DejaVuSans-69" x="181.396484"/>
      <use xlink:href="#DejaVuSans-6d" x="209.179688"/>
      <use xlink:href="#DejaVuSans-61" x="306.591797"/>
      <use xlink:href="#DejaVuSans-6c" x="367.871094"/>
      <use xlink:href="#DejaVuSans-20" x="395.654297"/>
      <use xlink:href="#DejaVuSans-66" x="427.441406"/>
      <use xlink:href="#DejaVuSans-69" x="462.646484"/>
      <use xlink:href="#DejaVuSans-6c" x="490.429688"/>
      <use xlink:href="#DejaVuSans-74" x="518.212891"/>
      <use xlink:href="#DejaVuSans-65" x="557.421875"/>
      <use xlink:href="#DejaVuSans-72" x="618.945312"/>
      <use xlink:href="#DejaVuSans-20" x="660.058594"/>
      <use xlink:href="#DejaVuSans-28" x="691.845703"/>
      <use xlink:href="#DejaVuSans-66" x="730.859375"/>
      <use xlink:href="#DejaVuSans-72" x="766.064453"/>
      <use xlink:href="#DejaVuSans-65" x="804.927734"/>
      <use xlink:href="#DejaVuSans-71" x="866.451172"/>
      <use xlink:href="#DejaVuSans-2d" x="929.927734"/>
      <use xlink:href="#DejaVuSans-64" x="966.011719"/>
      <use xlink:href="#DejaVuSans-6f" x="1029.488281"/>
      <use xlink:href="#DejaVuSans-6d" x="1090.669922"/>
      <use xlink:href="#DejaVuSans-61" x="1188.082031"/>
      <use xlink:href="#DejaVuSans-69" x="1249.361328"/>
      <use xlink:href="#DejaVuSans-6e" x="1277.144531"/>
      <use xlink:href="#DejaVuSans-20" x="1340.523438"/>
      <use xlink:href="#DejaVuSans-72" x="1372.310547"/>
      <use xlink:href="#DejaVuSans-61" x="1413.423828"/>
      <use xlink:href="#DejaVuSans-64" x="1474.703125"/>
      <use xlink:href="#DejaVuSans-69" x="1538.179688"/>
      <use xlink:href="#DejaVuSans-61" x="1565.962891"/>
      <use xlink:href="#DejaVuSans-6e" x="1627.242188"/>
      <use xlink:href="#DejaVuSans-73" x="1690.621094"/>
      <use xlink:href="#DejaVuSans-29" x="1742.720703"/>
     </g>
    </g>
   </g>
  </g>
  <g id="axes_2">
   <g id="patch_8">
    <path d="M 36.465625 253.44 
L 371.265625 253.44 
L 371.265625 154.603636 
L 36.465625 154.603636 
z
" style="fill: #ffffff"/>
   </g>
   <g id="matplotlib.axis_3">
    <g id="xtick_6">
     <g id="line2d_11">
      <g>
       <use xlink:href="#mcb1513b05b" x="69.945625" y="253.44" style="stroke: #000000; stroke-width: 0.8"/>
      </g>
     </g>
     <g id="text_11">
      <!-- −0.4 -->
      <g transform="translate(57.804219 268.038437) scale(0.1 -0.1)">
       <use xlink:href="#DejaVuSans-2212"/>
       <use xlink:href="#DejaVuSans-30" x="83.789062"/>
       <use xlink:href="#DejaVuSans-2e" x="147.412109"/>
       <use xlink:href="#DejaVuSans-34" x="179.199219"/>
      </g>
     </g>
    </g>
    <g id="xtick_7">
     <g id="line2d_12">
      <g>
       <use xlink:href="#mcb1513b05b" x="136.905625" y="253.44" style="stroke: #000000; stroke-width: 0.8"/>
      </g>
     </g>
     <g id="text_12">
      <!-- −0.2 -->
      <g transform="translate(124.764219 268.038437) scale(0.1 -0.1)">
       <use xlink:href="#DejaVuSans-2212"/>
       <use xlink:href="#DejaVuSans-30" x="83.789062"/>
       <use xlink:href="#DejaVuSans-2e" x="147.412109"/>
       <use xlink:href="#DejaVuSans-32" x="179.199219"/>
      </g>
     </g>
    </g>
    <g id="xtick_8">
     <g id="line2d_13">
      <g>
       <use xlink:href="#mcb1513b05b" x="203.865625" y="253.44" style="stroke: #000000; stroke-width: 0.8"/>
      </g>
     </g>
     <g id="text_13">
      <!-- 0.0 -->
      <g transform="translate(195.914063 268.038437) scale(0.1 -0.1)">
       <use xlink:href="#DejaVuSans-30"/>
       <use xlink:href="#DejaVuSans-2e" x="63.623047"/>
       <use xlink:href="#DejaVuSans-30" x="95.410156"/>
      </g>
     </g>
    </g>
    <g id="xtick_9">
     <g id="line2d_14">
      <g>
       <use xlink:href="#mcb1513b05b" x="270.825625" y="253.44" style="stroke: #000000; stroke-width: 0.8"/>
      </g>
     </g>
     <g id="text_14">
      <!-- 0.2 -->
      <g transform="translate(262.874062 268.038437) scale(0.1 -0.1)">
       <use xlink:href="#DejaVuSans-30"/>
       <use xlink:href="#DejaVuSans-2e" x="63.623047"/>
       <use xlink:href="#DejaVuSans-32" x="95.410156"/>
      </g>
     </g>
    </g>
    <g id="xtick_10">
     <g id="line2d_15">
      <g>
       <use xlink:href="#mcb1513b05b" x="337.785625" y="253.44" style="stroke: #000000; stroke-width: 0.8"/>
      </g>
     </g>
     <g id="text_15">
      <!-- 0.4 -->
      <g transform="translate(329.834062 268.038437) scale(0.1 -0.1)">
       <use xlink:href="#DejaVuSans-30"/>
       <use xlink:href="#DejaVuSans-2e" x="63.623047"/>
       <use xlink:href="#DejaVuSans-34" x="95.410156"/>
      </g>
     </g>
    </g>
    <g id="text_16">
     <!-- $t$ sec -->
     <g transform="translate(191.865625 281.716562) scale(0.1 -0.1)">
      <defs>
       <path id="DejaVuSans-Oblique-74" d="M 2706 3500 
L 2619 3053 
L 1472 3053 
L 1100 1153 
Q 1081 1047 1072 975 
Q 1063 903 1063 863 
Q 1063 663 1183 572 
Q 1303 481 1569 481 
L 2150 481 
L 2053 0 
L 1503 0 
Q 991 0 739 200 
Q 488 400 488 806 
Q 488 878 497 964 
Q 506 1050 525 1153 
L 897 3053 
L 409 3053 
L 500 3500 
L 978 3500 
L 1172 4494 
L 1747 4494 
L 1556 3500 
L 2706 3500 
z
" transform="scale(0.015625)"/>
       <path id="DejaVuSans-63" d="M 3122 3366 
L 3122 2828 
Q 2878 2963 2633 3030 
Q 2388 3097 2138 3097 
Q 1578 3097 1268 2742 
Q 959 2388 959 1747 
Q 959 1106 1268 751 
Q 1578 397 2138 397 
Q 2388 397 2633 464 
Q 2878 531 3122 666 
L 3122 134 
Q 2881 22 2623 -34 
Q 2366 -91 2075 -91 
Q 1284 -91 818 406 
Q 353 903 353 1747 
Q 353 2603 823 3093 
Q 1294 3584 2113 3584 
Q 2378 3584 2631 3529 
Q 2884 3475 3122 3366 
z
" transform="scale(0.015625)"/>
      </defs>
      <use xlink:href="#DejaVuSans-Oblique-74" transform="translate(0 0.78125)"/>
      <use xlink:href="#DejaVuSans-20" transform="translate(39.208984 0.78125)"/>
      <use xlink:href="#DejaVuSans-73" transform="translate(70.996094 0.78125)"/>
      <use xlink:href="#DejaVuSans-65" transform="translate(123.095703 0.78125)"/>
      <use xlink:href="#DejaVuSans-63" transform="translate(184.619141 0.78125)"/>
     </g>
    </g>
   </g>
   <g id="matplotlib.axis_4">
    <g id="ytick_4">
     <g id="line2d_16">
      <g>
       <use xlink:href="#m5f5eb86374" x="36.465625" y="237.131096" style="stroke: #000000; stroke-width: 0.8"/>
      </g>
     </g>
     <g id="text_17">
      <!-- 0.00 -->
      <g transform="translate(7.2 240.930315) scale(0.1 -0.1)">
       <use xlink:href="#DejaVuSans-30"/>
       <use xlink:href="#DejaVuSans-2e" x="63.623047"/>
       <use xlink:href="#DejaVuSans-30" x="95.410156"/>
       <use xlink:href="#DejaVuSans-30" x="159.033203"/>
      </g>
     </g>
    </g>
    <g id="ytick_5">
     <g id="line2d_17">
      <g>
       <use xlink:href="#m5f5eb86374" x="36.465625" y="192.830576" style="stroke: #000000; stroke-width: 0.8"/>
      </g>
     </g>
     <g id="text_18">
      <!-- 0.02 -->
      <g transform="translate(7.2 196.629795) scale(0.1 -0.1)">
       <use xlink:href="#DejaVuSans-30"/>
       <use xlink:href="#DejaVuSans-2e" x="63.623047"/>
       <use xlink:href="#DejaVuSans-30" x="95.410156"/>
       <use xlink:href="#DejaVuSans-32" x="159.033203"/>
      </g>
     </g>
    </g>
   </g>
   <g id="line2d_18">
    <path d="M 36.130825 237.131096 
L 148.623625 237.030343 
L 153.645625 236.969524 
L 156.993625 237.177311 
L 163.689625 237.734353 
L 165.363625 237.592548 
L 167.037625 237.234223 
L 169.046425 236.535792 
L 173.064025 234.979706 
L 174.403225 234.776676 
L 175.407625 234.848132 
L 176.412025 235.155905 
L 177.416425 235.724645 
L 178.420825 236.558342 
L 179.760025 238.039736 
L 181.768825 240.738572 
L 183.442825 242.848793 
L 184.447225 243.734584 
L 185.116825 244.056488 
L 185.786425 244.099855 
L 186.456025 243.811605 
L 187.125625 243.142076 
L 187.795225 242.047015 
L 188.464825 240.489564 
L 189.134425 238.442157 
L 190.138825 234.419589 
L 191.143225 229.258588 
L 192.147625 223.028568 
L 193.486825 213.318571 
L 195.830425 194.121702 
L 197.839225 178.170865 
L 199.178425 169.35596 
L 200.182825 164.283193 
L 200.852425 161.791485 
L 201.522025 160.086526 
L 201.856825 159.543687 
L 202.191625 159.212724 
L 202.526425 159.096198 
L 202.861225 159.195416 
L 203.196025 159.510419 
L 203.530825 160.03998 
L 204.200425 161.731576 
L 204.870025 164.235528 
L 205.539625 167.498326 
L 206.544025 173.65642 
L 207.883225 183.743564 
L 209.892025 201.120947 
L 212.235625 221.11602 
L 213.574825 230.844753 
L 214.579225 236.891644 
L 215.583625 241.717072 
L 216.588025 245.272202 
L 217.257625 246.946816 
L 217.927225 248.091927 
L 218.596825 248.743611 
L 219.266425 248.947438 
L 219.936025 248.756374 
L 220.605625 248.2286 
L 221.275225 247.425329 
L 222.279625 245.839581 
L 224.288425 242.023616 
L 225.962425 238.979666 
L 227.301625 237.024571 
L 228.306025 235.934997 
L 229.310425 235.188962 
L 230.314825 234.773079 
L 231.319225 234.651185 
L 232.323625 234.771352 
L 233.662825 235.202793 
L 236.006425 236.296522 
L 238.015225 237.167012 
L 239.689225 237.657994 
L 241.363225 237.890797 
L 243.037225 237.894824 
L 245.380825 237.651417 
L 250.737625 237.002211 
L 253.750825 236.921989 
L 258.772825 237.082689 
L 264.464425 237.19073 
L 371.600425 237.131096 
L 371.600425 237.131096 
" clip-path="url(#pedf6391171)" style="fill: none; stroke: #008000; stroke-width: 1.5; stroke-linecap: square"/>
   </g>
   <g id="patch_9">
    <path d="M 36.465625 253.44 
L 36.465625 154.603636 
" style="fill: none; stroke: #000000; stroke-width: 0.8; stroke-linejoin: miter; stroke-linecap: square"/>
   </g>
   <g id="patch_10">
    <path d="M 371.265625 253.44 
L 371.265625 154.603636 
" style="fill: none; stroke: #000000; stroke-width: 0.8; stroke-linejoin: miter; stroke-linecap: square"/>
   </g>
   <g id="patch_11">
    <path d="M 36.465625 253.44 
L 371.265625 253.44 
" style="fill: none; stroke: #000000; stroke-width: 0.8; stroke-linejoin: miter; stroke-linecap: square"/>
   </g>
   <g id="patch_12">
    <path d="M 36.465625 154.603636 
L 371.265625 154.603636 
" style="fill: none; stroke: #000000; stroke-width: 0.8; stroke-linejoin: miter; stroke-linecap: square"/>
   </g>
   <g id="legend_2">
    <g id="patch_13">
     <path d="M 147.575 212.860881 
L 364.265625 212.860881 
Q 366.265625 212.860881 366.265625 210.860881 
L 366.265625 197.182756 
Q 366.265625 195.182756 364.265625 195.182756 
L 147.575 195.182756 
Q 145.575 195.182756 145.575 197.182756 
L 145.575 210.860881 
Q 145.575 212.860881 147.575 212.860881 
z
" style="fill: #ffffff; opacity: 0.8; stroke: #cccccc; stroke-linejoin: miter"/>
    </g>
    <g id="line2d_19">
     <path d="M 149.575 203.281193 
L 159.575 203.281193 
L 169.575 203.281193 
" style="fill: none; stroke: #008000; stroke-width: 1.5; stroke-linecap: square"/>
    </g>
    <g id="text_19">
     <!-- Optimal filter (time-domain seconds) -->
     <g transform="translate(177.575 206.781193) scale(0.1 -0.1)">
      <use xlink:href="#DejaVuSans-4f"/>
      <use xlink:href="#DejaVuSans-70" x="78.710938"/>
      <use xlink:href="#DejaVuSans-74" x="142.1875"/>
      <use xlink:href="#DejaVuSans-69" x="181.396484"/>
      <use xlink:href="#DejaVuSans-6d" x="209.179688"/>
      <use xlink:href="#DejaVuSans-61" x="306.591797"/>
      <use xlink:href="#DejaVuSans-6c" x="367.871094"/>
      <use xlink:href="#DejaVuSans-20" x="395.654297"/>
      <use xlink:href="#DejaVuSans-66" x="427.441406"/>
      <use xlink:href="#DejaVuSans-69" x="462.646484"/>
      <use xlink:href="#DejaVuSans-6c" x="490.429688"/>
      <use xlink:href="#DejaVuSans-74" x="518.212891"/>
      <use xlink:href="#DejaVuSans-65" x="557.421875"/>
      <use xlink:href="#DejaVuSans-72" x="618.945312"/>
      <use xlink:href="#DejaVuSans-20" x="660.058594"/>
      <use xlink:href="#DejaVuSans-28" x="691.845703"/>
      <use xlink:href="#DejaVuSans-74" x="730.859375"/>
      <use xlink:href="#DejaVuSans-69" x="770.068359"/>
      <use xlink:href="#DejaVuSans-6d" x="797.851562"/>
      <use xlink:href="#DejaVuSans-65" x="895.263672"/>
      <use xlink:href="#DejaVuSans-2d" x="956.787109"/>
      <use xlink:href="#DejaVuSans-64" x="992.871094"/>
      <use xlink:href="#DejaVuSans-6f" x="1056.347656"/>
      <use xlink:href="#DejaVuSans-6d" x="1117.529297"/>
      <use xlink:href="#DejaVuSans-61" x="1214.941406"/>
      <use xlink:href="#DejaVuSans-69" x="1276.220703"/>
      <use xlink:href="#DejaVuSans-6e" x="1304.003906"/>
      <use xlink:href="#DejaVuSans-20" x="1367.382812"/>
      <use xlink:href="#DejaVuSans-73" x="1399.169922"/>
      <use xlink:href="#DejaVuSans-65" x="1451.269531"/>
      <use xlink:href="#DejaVuSans-63" x="1512.792969"/>
      <use xlink:href="#DejaVuSans-6f" x="1567.773438"/>
      <use xlink:href="#DejaVuSans-6e" x="1628.955078"/>
      <use xlink:href="#DejaVuSans-64" x="1692.333984"/>
      <use xlink:href="#DejaVuSans-73" x="1755.810547"/>
      <use xlink:href="#DejaVuSans-29" x="1807.910156"/>
     </g>
    </g>
   </g>
  </g>
  <g id="text_20">
   <!-- Optimal filter responses -->
   <g transform="translate(126.580937 16.318125) scale(0.12 -0.12)">
    <use xlink:href="#DejaVuSans-4f"/>
    <use xlink:href="#DejaVuSans-70" x="78.710938"/>
    <use xlink:href="#DejaVuSans-74" x="142.1875"/>
    <use xlink:href="#DejaVuSans-69" x="181.396484"/>
    <use xlink:href="#DejaVuSans-6d" x="209.179688"/>
    <use xlink:href="#DejaVuSans-61" x="306.591797"/>
    <use xlink:href="#DejaVuSans-6c" x="367.871094"/>
    <use xlink:href="#DejaVuSans-20" x="395.654297"/>
    <use xlink:href="#DejaVuSans-66" x="427.441406"/>
    <use xlink:href="#DejaVuSans-69" x="462.646484"/>
    <use xlink:href="#DejaVuSans-6c" x="490.429688"/>
    <use xlink:href="#DejaVuSans-74" x="518.212891"/>
    <use xlink:href="#DejaVuSans-65" x="557.421875"/>
    <use xlink:href="#DejaVuSans-72" x="618.945312"/>
    <use xlink:href="#DejaVuSans-20" x="660.058594"/>
    <use xlink:href="#DejaVuSans-72" x="691.845703"/>
    <use xlink:href="#DejaVuSans-65" x="730.708984"/>
    <use xlink:href="#DejaVuSans-73" x="792.232422"/>
    <use xlink:href="#DejaVuSans-70" x="844.332031"/>
    <use xlink:href="#DejaVuSans-6f" x="907.808594"/>
    <use xlink:href="#DejaVuSans-6e" x="968.990234"/>
    <use xlink:href="#DejaVuSans-73" x="1032.369141"/>
    <use xlink:href="#DejaVuSans-65" x="1084.46875"/>
    <use xlink:href="#DejaVuSans-73" x="1145.992188"/>
   </g>
  </g>
 </g>
 <defs>
  <clipPath id="p70f671d975">
   <rect x="36.465625" y="36" width="334.8" height="98.836364"/>
  </clipPath>
  <clipPath id="pedf6391171">
   <rect x="36.465625" y="154.603636" width="334.8" height="98.836364"/>
  </clipPath>
 </defs>
</svg>
