<?xml version="1.0" encoding="utf-8" standalone="no"?>
<!DOCTYPE svg PUBLIC "-//W3C//DTD SVG 1.1//EN"
  "http://www.w3.org/Graphics/SVG/1.1/DTD/svg11.dtd">
<svg xmlns:xlink="http://www.w3.org/1999/xlink" width="384.83125pt" height="290.99625pt" viewBox="0 0 384.83125 290.99625" xmlns="http://www.w3.org/2000/svg" version="1.1">
 <metadata>
  <rdf:RDF xmlns:dc="http://purl.org/dc/elements/1.1/" xmlns:cc="http://creativecommons.org/ns#" xmlns:rdf="http://www.w3.org/1999/02/22-rdf-syntax-ns#">
   <cc:Work>
    <dc:type rdf:resource="http://purl.org/dc/dcmitype/StillImage"/>
    <dc:date>2022-10-16T21:43:22.951760</dc:date>
    <dc:format>image/svg+xml</dc:format>
    <dc:creator>
     <cc:Agent>
      <dc:title>Matplotlib v3.6.0, https://matplotlib.org/</dc:title>
     </cc:Agent>
    </dc:creator>
   </cc:Work>
  </rdf:RDF>
 </metadata>
 <defs>
  <style type="text/css">*{stroke-linejoin: round; stroke-linecap: butt}</style>
 </defs>
 <g id="figure_1">
  <g id="patch_1">
   <path d="M 0 290.99625 
L 384.83125 290.99625 
L 384.83125 0 
L 0 0 
L 0 290.99625 
z
" style="fill: none"/>
  </g>
  <g id="axes_1">
   <g id="patch_2">
    <path d="M 33.2875 253.44 
L 368.0875 253.44 
L 368.0875 36 
L 33.2875 36 
z
" style="fill: #ffffff"/>
   </g>
   <g id="matplotlib.axis_1">
    <g id="xtick_1">
     <g id="line2d_1">
      <defs>
       <path id="mc4f623639e" d="M 0 0 
L 0 3.5 
" style="stroke: #000000; stroke-width: 0.8"/>
      </defs>
      <g>
       <use xlink:href="#mc4f623639e" x="33.2875" y="253.44" style="stroke: #000000; stroke-width: 0.8"/>
      </g>
     </g>
     <g id="text_1">
      <!-- −100 -->
      <g transform="translate(19.553906 268.038437) scale(0.1 -0.1)">
       <defs>
        <path id="DejaVuSans-2212" d="M 678 2272 
L 4684 2272 
L 4684 1741 
L 678 1741 
L 678 2272 
z
" transform="scale(0.015625)"/>
        <path id="DejaVuSans-31" d="M 794 531 
L 1825 531 
L 1825 4091 
L 703 3866 
L 703 4441 
L 1819 4666 
L 2450 4666 
L 2450 531 
L 3481 531 
L 3481 0 
L 794 0 
L 794 531 
z
" transform="scale(0.015625)"/>
        <path id="DejaVuSans-30" d="M 2034 4250 
Q 1547 4250 1301 3770 
Q 1056 3291 1056 2328 
Q 1056 1369 1301 889 
Q 1547 409 2034 409 
Q 2525 409 2770 889 
Q 3016 1369 3016 2328 
Q 3016 3291 2770 3770 
Q 2525 4250 2034 4250 
z
M 2034 4750 
Q 2819 4750 3233 4129 
Q 3647 3509 3647 2328 
Q 3647 1150 3233 529 
Q 2819 -91 2034 -91 
Q 1250 -91 836 529 
Q 422 1150 422 2328 
Q 422 3509 836 4129 
Q 1250 4750 2034 4750 
z
" transform="scale(0.015625)"/>
       </defs>
       <use xlink:href="#DejaVuSans-2212"/>
       <use xlink:href="#DejaVuSans-31" x="83.789062"/>
       <use xlink:href="#DejaVuSans-30" x="147.412109"/>
       <use xlink:href="#DejaVuSans-30" x="211.035156"/>
      </g>
     </g>
    </g>
    <g id="xtick_2">
     <g id="line2d_2">
      <g>
       <use xlink:href="#mc4f623639e" x="75.1375" y="253.44" style="stroke: #000000; stroke-width: 0.8"/>
      </g>
     </g>
     <g id="text_2">
      <!-- −75 -->
      <g transform="translate(64.585156 268.038437) scale(0.1 -0.1)">
       <defs>
        <path id="DejaVuSans-37" d="M 525 4666 
L 3525 4666 
L 3525 4397 
L 1831 0 
L 1172 0 
L 2766 4134 
L 525 4134 
L 525 4666 
z
" transform="scale(0.015625)"/>
        <path id="DejaVuSans-35" d="M 691 4666 
L 3169 4666 
L 3169 4134 
L 1269 4134 
L 1269 2991 
Q 1406 3038 1543 3061 
Q 1681 3084 1819 3084 
Q 2600 3084 3056 2656 
Q 3513 2228 3513 1497 
Q 3513 744 3044 326 
Q 2575 -91 1722 -91 
Q 1428 -91 1123 -41 
Q 819 9 494 109 
L 494 744 
Q 775 591 1075 516 
Q 1375 441 1709 441 
Q 2250 441 2565 725 
Q 2881 1009 2881 1497 
Q 2881 1984 2565 2268 
Q 2250 2553 1709 2553 
Q 1456 2553 1204 2497 
Q 953 2441 691 2322 
L 691 4666 
z
" transform="scale(0.015625)"/>
       </defs>
       <use xlink:href="#DejaVuSans-2212"/>
       <use xlink:href="#DejaVuSans-37" x="83.789062"/>
       <use xlink:href="#DejaVuSans-35" x="147.412109"/>
      </g>
     </g>
    </g>
    <g id="xtick_3">
     <g id="line2d_3">
      <g>
       <use xlink:href="#mc4f623639e" x="116.9875" y="253.44" style="stroke: #000000; stroke-width: 0.8"/>
      </g>
     </g>
     <g id="text_3">
      <!-- −50 -->
      <g transform="translate(106.435156 268.038437) scale(0.1 -0.1)">
       <use xlink:href="#DejaVuSans-2212"/>
       <use xlink:href="#DejaVuSans-35" x="83.789062"/>
       <use xlink:href="#DejaVuSans-30" x="147.412109"/>
      </g>
     </g>
    </g>
    <g id="xtick_4">
     <g id="line2d_4">
      <g>
       <use xlink:href="#mc4f623639e" x="158.8375" y="253.44" style="stroke: #000000; stroke-width: 0.8"/>
      </g>
     </g>
     <g id="text_4">
      <!-- −25 -->
      <g transform="translate(148.285156 268.038437) scale(0.1 -0.1)">
       <defs>
        <path id="DejaVuSans-32" d="M 1228 531 
L 3431 531 
L 3431 0 
L 469 0 
L 469 531 
Q 828 903 1448 1529 
Q 2069 2156 2228 2338 
Q 2531 2678 2651 2914 
Q 2772 3150 2772 3378 
Q 2772 3750 2511 3984 
Q 2250 4219 1831 4219 
Q 1534 4219 1204 4116 
Q 875 4013 500 3803 
L 500 4441 
Q 881 4594 1212 4672 
Q 1544 4750 1819 4750 
Q 2544 4750 2975 4387 
Q 3406 4025 3406 3419 
Q 3406 3131 3298 2873 
Q 3191 2616 2906 2266 
Q 2828 2175 2409 1742 
Q 1991 1309 1228 531 
z
" transform="scale(0.015625)"/>
       </defs>
       <use xlink:href="#DejaVuSans-2212"/>
       <use xlink:href="#DejaVuSans-32" x="83.789062"/>
       <use xlink:href="#DejaVuSans-35" x="147.412109"/>
      </g>
     </g>
    </g>
    <g id="xtick_5">
     <g id="line2d_5">
      <g>
       <use xlink:href="#mc4f623639e" x="200.6875" y="253.44" style="stroke: #000000; stroke-width: 0.8"/>
      </g>
     </g>
     <g id="text_5">
      <!-- 0 -->
      <g transform="translate(197.50625 268.038437) scale(0.1 -0.1)">
       <use xlink:href="#DejaVuSans-30"/>
      </g>
     </g>
    </g>
    <g id="xtick_6">
     <g id="line2d_6">
      <g>
       <use xlink:href="#mc4f623639e" x="242.5375" y="253.44" style="stroke: #000000; stroke-width: 0.8"/>
      </g>
     </g>
     <g id="text_6">
      <!-- 25 -->
      <g transform="translate(236.175 268.038437) scale(0.1 -0.1)">
       <use xlink:href="#DejaVuSans-32"/>
       <use xlink:href="#DejaVuSans-35" x="63.623047"/>
      </g>
     </g>
    </g>
    <g id="xtick_7">
     <g id="line2d_7">
      <g>
       <use xlink:href="#mc4f623639e" x="284.3875" y="253.44" style="stroke: #000000; stroke-width: 0.8"/>
      </g>
     </g>
     <g id="text_7">
      <!-- 50 -->
      <g transform="translate(278.025 268.038437) scale(0.1 -0.1)">
       <use xlink:href="#DejaVuSans-35"/>
       <use xlink:href="#DejaVuSans-30" x="63.623047"/>
      </g>
     </g>
    </g>
    <g id="xtick_8">
     <g id="line2d_8">
      <g>
       <use xlink:href="#mc4f623639e" x="326.2375" y="253.44" style="stroke: #000000; stroke-width: 0.8"/>
      </g>
     </g>
     <g id="text_8">
      <!-- 75 -->
      <g transform="translate(319.875 268.038437) scale(0.1 -0.1)">
       <use xlink:href="#DejaVuSans-37"/>
       <use xlink:href="#DejaVuSans-35" x="63.623047"/>
      </g>
     </g>
    </g>
    <g id="xtick_9">
     <g id="line2d_9">
      <g>
       <use xlink:href="#mc4f623639e" x="368.0875" y="253.44" style="stroke: #000000; stroke-width: 0.8"/>
      </g>
     </g>
     <g id="text_9">
      <!-- 100 -->
      <g transform="translate(358.54375 268.038437) scale(0.1 -0.1)">
       <use xlink:href="#DejaVuSans-31"/>
       <use xlink:href="#DejaVuSans-30" x="63.623047"/>
       <use xlink:href="#DejaVuSans-30" x="127.246094"/>
      </g>
     </g>
    </g>
    <g id="text_10">
     <!-- Radians $\omega$ -->
     <g transform="translate(174.9375 281.716562) scale(0.1 -0.1)">
      <defs>
       <path id="DejaVuSans-52" d="M 2841 2188 
Q 3044 2119 3236 1894 
Q 3428 1669 3622 1275 
L 4263 0 
L 3584 0 
L 2988 1197 
Q 2756 1666 2539 1819 
Q 2322 1972 1947 1972 
L 1259 1972 
L 1259 0 
L 628 0 
L 628 4666 
L 2053 4666 
Q 2853 4666 3247 4331 
Q 3641 3997 3641 3322 
Q 3641 2881 3436 2590 
Q 3231 2300 2841 2188 
z
M 1259 4147 
L 1259 2491 
L 2053 2491 
Q 2509 2491 2742 2702 
Q 2975 2913 2975 3322 
Q 2975 3731 2742 3939 
Q 2509 4147 2053 4147 
L 1259 4147 
z
" transform="scale(0.015625)"/>
       <path id="DejaVuSans-61" d="M 2194 1759 
Q 1497 1759 1228 1600 
Q 959 1441 959 1056 
Q 959 750 1161 570 
Q 1363 391 1709 391 
Q 2188 391 2477 730 
Q 2766 1069 2766 1631 
L 2766 1759 
L 2194 1759 
z
M 3341 1997 
L 3341 0 
L 2766 0 
L 2766 531 
Q 2569 213 2275 61 
Q 1981 -91 1556 -91 
Q 1019 -91 701 211 
Q 384 513 384 1019 
Q 384 1609 779 1909 
Q 1175 2209 1959 2209 
L 2766 2209 
L 2766 2266 
Q 2766 2663 2505 2880 
Q 2244 3097 1772 3097 
Q 1472 3097 1187 3025 
Q 903 2953 641 2809 
L 641 3341 
Q 956 3463 1253 3523 
Q 1550 3584 1831 3584 
Q 2591 3584 2966 3190 
Q 3341 2797 3341 1997 
z
" transform="scale(0.015625)"/>
       <path id="DejaVuSans-64" d="M 2906 2969 
L 2906 4863 
L 3481 4863 
L 3481 0 
L 2906 0 
L 2906 525 
Q 2725 213 2448 61 
Q 2172 -91 1784 -91 
Q 1150 -91 751 415 
Q 353 922 353 1747 
Q 353 2572 751 3078 
Q 1150 3584 1784 3584 
Q 2172 3584 2448 3432 
Q 2725 3281 2906 2969 
z
M 947 1747 
Q 947 1113 1208 752 
Q 1469 391 1925 391 
Q 2381 391 2643 752 
Q 2906 1113 2906 1747 
Q 2906 2381 2643 2742 
Q 2381 3103 1925 3103 
Q 1469 3103 1208 2742 
Q 947 2381 947 1747 
z
" transform="scale(0.015625)"/>
       <path id="DejaVuSans-69" d="M 603 3500 
L 1178 3500 
L 1178 0 
L 603 0 
L 603 3500 
z
M 603 4863 
L 1178 4863 
L 1178 4134 
L 603 4134 
L 603 4863 
z
" transform="scale(0.015625)"/>
       <path id="DejaVuSans-6e" d="M 3513 2113 
L 3513 0 
L 2938 0 
L 2938 2094 
Q 2938 2591 2744 2837 
Q 2550 3084 2163 3084 
Q 1697 3084 1428 2787 
Q 1159 2491 1159 1978 
L 1159 0 
L 581 0 
L 581 3500 
L 1159 3500 
L 1159 2956 
Q 1366 3272 1645 3428 
Q 1925 3584 2291 3584 
Q 2894 3584 3203 3211 
Q 3513 2838 3513 2113 
z
" transform="scale(0.015625)"/>
       <path id="DejaVuSans-73" d="M 2834 3397 
L 2834 2853 
Q 2591 2978 2328 3040 
Q 2066 3103 1784 3103 
Q 1356 3103 1142 2972 
Q 928 2841 928 2578 
Q 928 2378 1081 2264 
Q 1234 2150 1697 2047 
L 1894 2003 
Q 2506 1872 2764 1633 
Q 3022 1394 3022 966 
Q 3022 478 2636 193 
Q 2250 -91 1575 -91 
Q 1294 -91 989 -36 
Q 684 19 347 128 
L 347 722 
Q 666 556 975 473 
Q 1284 391 1588 391 
Q 1994 391 2212 530 
Q 2431 669 2431 922 
Q 2431 1156 2273 1281 
Q 2116 1406 1581 1522 
L 1381 1569 
Q 847 1681 609 1914 
Q 372 2147 372 2553 
Q 372 3047 722 3315 
Q 1072 3584 1716 3584 
Q 2034 3584 2315 3537 
Q 2597 3491 2834 3397 
z
" transform="scale(0.015625)"/>
       <path id="DejaVuSans-20" transform="scale(0.015625)"/>
       <path id="DejaVuSans-Oblique-3c9" d="M 1369 -91 
Q 72 -91 434 1766 
Q 575 2500 1256 3500 
L 1875 3500 
Q 1231 2500 1088 1750 
Q 819 397 1519 397 
Q 2166 397 2478 2078 
L 3009 2078 
Q 2669 388 3316 397 
Q 4013 403 4275 1750 
Q 4419 2500 4169 3500 
L 4788 3500 
Q 5075 2500 4934 1766 
Q 4578 -94 3278 -91 
Q 2428 -88 2503 844 
Q 2194 -91 1369 -91 
z
" transform="scale(0.015625)"/>
      </defs>
      <use xlink:href="#DejaVuSans-52" transform="translate(0 0.015625)"/>
      <use xlink:href="#DejaVuSans-61" transform="translate(69.482422 0.015625)"/>
      <use xlink:href="#DejaVuSans-64" transform="translate(130.761719 0.015625)"/>
      <use xlink:href="#DejaVuSans-69" transform="translate(194.238281 0.015625)"/>
      <use xlink:href="#DejaVuSans-61" transform="translate(222.021484 0.015625)"/>
      <use xlink:href="#DejaVuSans-6e" transform="translate(283.300781 0.015625)"/>
      <use xlink:href="#DejaVuSans-73" transform="translate(346.679688 0.015625)"/>
      <use xlink:href="#DejaVuSans-20" transform="translate(398.779297 0.015625)"/>
      <use xlink:href="#DejaVuSans-Oblique-3c9" transform="translate(430.566406 0.015625)"/>
     </g>
    </g>
   </g>
   <g id="matplotlib.axis_2">
    <g id="ytick_1">
     <g id="line2d_10">
      <defs>
       <path id="ma606ec52b1" d="M 0 0 
L -3.5 0 
" style="stroke: #000000; stroke-width: 0.8"/>
      </defs>
      <g>
       <use xlink:href="#ma606ec52b1" x="33.2875" y="243.556364" style="stroke: #000000; stroke-width: 0.8"/>
      </g>
     </g>
     <g id="text_11">
      <!-- 0 -->
      <g transform="translate(19.925 247.355582) scale(0.1 -0.1)">
       <use xlink:href="#DejaVuSans-30"/>
      </g>
     </g>
    </g>
    <g id="ytick_2">
     <g id="line2d_11">
      <g>
       <use xlink:href="#ma606ec52b1" x="33.2875" y="201.781558" style="stroke: #000000; stroke-width: 0.8"/>
      </g>
     </g>
     <g id="text_12">
      <!-- 100 -->
      <g transform="translate(7.2 205.580776) scale(0.1 -0.1)">
       <use xlink:href="#DejaVuSans-31"/>
       <use xlink:href="#DejaVuSans-30" x="63.623047"/>
       <use xlink:href="#DejaVuSans-30" x="127.246094"/>
      </g>
     </g>
    </g>
    <g id="ytick_3">
     <g id="line2d_12">
      <g>
       <use xlink:href="#ma606ec52b1" x="33.2875" y="160.006752" style="stroke: #000000; stroke-width: 0.8"/>
      </g>
     </g>
     <g id="text_13">
      <!-- 200 -->
      <g transform="translate(7.2 163.80597) scale(0.1 -0.1)">
       <use xlink:href="#DejaVuSans-32"/>
       <use xlink:href="#DejaVuSans-30" x="63.623047"/>
       <use xlink:href="#DejaVuSans-30" x="127.246094"/>
      </g>
     </g>
    </g>
    <g id="ytick_4">
     <g id="line2d_13">
      <g>
       <use xlink:href="#ma606ec52b1" x="33.2875" y="118.231946" style="stroke: #000000; stroke-width: 0.8"/>
      </g>
     </g>
     <g id="text_14">
      <!-- 300 -->
      <g transform="translate(7.2 122.031164) scale(0.1 -0.1)">
       <defs>
        <path id="DejaVuSans-33" d="M 2597 2516 
Q 3050 2419 3304 2112 
Q 3559 1806 3559 1356 
Q 3559 666 3084 287 
Q 2609 -91 1734 -91 
Q 1441 -91 1130 -33 
Q 819 25 488 141 
L 488 750 
Q 750 597 1062 519 
Q 1375 441 1716 441 
Q 2309 441 2620 675 
Q 2931 909 2931 1356 
Q 2931 1769 2642 2001 
Q 2353 2234 1838 2234 
L 1294 2234 
L 1294 2753 
L 1863 2753 
Q 2328 2753 2575 2939 
Q 2822 3125 2822 3475 
Q 2822 3834 2567 4026 
Q 2313 4219 1838 4219 
Q 1578 4219 1281 4162 
Q 984 4106 628 3988 
L 628 4550 
Q 988 4650 1302 4700 
Q 1616 4750 1894 4750 
Q 2613 4750 3031 4423 
Q 3450 4097 3450 3541 
Q 3450 3153 3228 2886 
Q 3006 2619 2597 2516 
z
" transform="scale(0.015625)"/>
       </defs>
       <use xlink:href="#DejaVuSans-33"/>
       <use xlink:href="#DejaVuSans-30" x="63.623047"/>
       <use xlink:href="#DejaVuSans-30" x="127.246094"/>
      </g>
     </g>
    </g>
    <g id="ytick_5">
     <g id="line2d_14">
      <g>
       <use xlink:href="#ma606ec52b1" x="33.2875" y="76.45714" style="stroke: #000000; stroke-width: 0.8"/>
      </g>
     </g>
     <g id="text_15">
      <!-- 400 -->
      <g transform="translate(7.2 80.256358) scale(0.1 -0.1)">
       <defs>
        <path id="DejaVuSans-34" d="M 2419 4116 
L 825 1625 
L 2419 1625 
L 2419 4116 
z
M 2253 4666 
L 3047 4666 
L 3047 1625 
L 3713 1625 
L 3713 1100 
L 3047 1100 
L 3047 0 
L 2419 0 
L 2419 1100 
L 313 1100 
L 313 1709 
L 2253 4666 
z
" transform="scale(0.015625)"/>
       </defs>
       <use xlink:href="#DejaVuSans-34"/>
       <use xlink:href="#DejaVuSans-30" x="63.623047"/>
       <use xlink:href="#DejaVuSans-30" x="127.246094"/>
      </g>
     </g>
    </g>
   </g>
   <g id="line2d_15">
    <path d="M 32.4505 243.556364 
L 164.6965 243.509331 
L 165.5335 243.405499 
L 168.0445 243.397299 
L 168.8815 243.232919 
L 169.7185 243.200386 
L 170.5555 242.353693 
L 171.3925 242.789172 
L 172.2295 242.500939 
L 173.0665 242.695947 
L 173.9035 238.108722 
L 174.7405 241.440347 
L 175.5775 240.334852 
L 176.4145 242.305708 
L 177.2515 239.86958 
L 178.0885 238.905066 
L 178.9255 227.568825 
L 179.7625 236.911181 
L 180.5995 235.10324 
L 181.4365 224.610762 
L 182.2735 240.107861 
L 183.9475 231.560924 
L 184.7845 228.298685 
L 185.6215 240.233255 
L 186.4585 238.336057 
L 187.2955 212.004273 
L 188.1325 223.392156 
L 188.9695 229.586095 
L 189.8065 206.535194 
L 190.6435 213.044032 
L 191.4805 224.066514 
L 192.3175 185.468153 
L 193.1545 186.688636 
L 193.9915 64.276748 
L 194.8285 170.939994 
L 195.6655 203.242252 
L 196.5025 156.800876 
L 197.3395 171.216521 
L 198.1765 218.712961 
L 199.0135 178.185707 
L 199.8505 198.247159 
L 200.6875 226.733095 
L 201.5245 198.234543 
L 202.3615 178.145151 
L 203.1985 218.686006 
L 204.0355 171.091837 
L 204.8725 156.577203 
L 205.7095 203.09382 
L 206.5465 170.572492 
L 207.3835 63.068697 
L 208.2205 186.191679 
L 209.0575 184.823785 
L 209.8945 223.796728 
L 210.7315 212.523951 
L 211.5685 205.765914 
L 212.4055 229.234726 
L 213.2425 222.781216 
L 214.0795 210.855834 
L 214.9165 238.108051 
L 215.7535 240.059065 
L 216.5905 227.337889 
L 217.4275 230.652067 
L 219.1015 239.727728 
L 219.9385 222.087437 
L 220.7755 233.742869 
L 221.6125 235.620596 
L 222.4495 223.832188 
L 223.2865 237.602834 
L 224.1235 238.641197 
L 224.9605 241.81398 
L 225.7975 238.85529 
L 226.6345 240.318118 
L 227.4715 234.813403 
L 228.3085 242.109747 
L 229.1455 241.700987 
L 229.9825 242.149693 
L 230.8195 241.262699 
L 231.6565 242.852144 
L 232.4935 242.894349 
L 233.3305 243.220302 
L 234.1675 243.37332 
L 235.8415 243.209557 
L 236.6785 243.445458 
L 245.0485 243.555645 
L 368.9245 243.556364 
L 368.9245 243.556364 
" clip-path="url(#pccdb1a6ac0)" style="fill: none; stroke: #1f77b4; stroke-width: 1.5; stroke-linecap: square"/>
   </g>
   <g id="line2d_16">
    <path d="M 32.4505 243.556364 
L 191.4805 243.556364 
L 192.3175 182.939264 
L 193.1545 165.843032 
L 193.9915 45.883636 
L 194.8285 140.398211 
L 195.6655 204.12186 
L 196.5025 150.673743 
L 197.3395 144.532056 
L 198.1765 218.61773 
L 199.0135 212.948848 
L 199.8505 166.715849 
L 200.6875 216.151282 
L 201.5245 166.715849 
L 202.3615 212.948848 
L 203.1985 218.61773 
L 204.0355 144.532056 
L 204.8725 150.673743 
L 205.7095 204.12186 
L 206.5465 140.398211 
L 207.3835 45.883636 
L 208.2205 165.843032 
L 209.0575 182.939264 
L 209.8945 243.556364 
L 368.9245 243.556364 
L 368.9245 243.556364 
" clip-path="url(#pccdb1a6ac0)" style="fill: none; stroke: #ff7f0e; stroke-opacity: 0.75; stroke-width: 1.5; stroke-linecap: square"/>
   </g>
   <g id="line2d_17">
    <path d="M 32.4505 237.779781 
L 33.2875 238.903692 
L 34.1245 234.675726 
L 34.9615 238.530245 
L 35.7985 235.696336 
L 36.6355 236.091588 
L 37.4725 235.385317 
L 38.3095 225.949945 
L 39.1465 232.299405 
L 39.9835 228.28417 
L 40.8205 235.888669 
L 41.6575 225.852271 
L 42.4945 235.814973 
L 43.3315 240.549624 
L 44.1685 228.160825 
L 45.0055 237.496768 
L 45.8425 236.432455 
L 46.6795 227.246576 
L 47.5165 236.434857 
L 48.3535 235.403896 
L 49.1905 240.318642 
L 50.0275 237.602773 
L 50.8645 228.85318 
L 51.7015 228.140016 
L 52.5385 237.163829 
L 53.3755 238.275069 
L 54.2125 235.165374 
L 55.0495 234.977468 
L 55.8865 232.963764 
L 56.7235 224.953709 
L 57.5605 226.910687 
L 58.3975 230.21762 
L 59.2345 231.778846 
L 60.0715 227.524852 
L 60.9085 222.671787 
L 61.7455 239.390818 
L 62.5825 233.983136 
L 63.4195 236.178837 
L 64.2565 230.543208 
L 65.0935 221.639679 
L 65.9305 231.495101 
L 66.7675 236.732923 
L 67.6045 239.320245 
L 69.2785 230.237309 
L 70.1155 238.650978 
L 70.9525 233.67343 
L 71.7895 233.654294 
L 72.6265 241.517981 
L 73.4635 234.171609 
L 74.3005 228.460573 
L 75.1375 219.664894 
L 75.9745 238.325492 
L 76.8115 233.905831 
L 77.6485 240.967983 
L 78.4855 222.244436 
L 79.3225 240.671075 
L 80.1595 241.26061 
L 80.9965 235.693836 
L 81.8335 224.450683 
L 82.6705 233.627924 
L 83.5075 236.954716 
L 84.3445 235.508075 
L 85.1815 230.637668 
L 86.0185 223.924281 
L 86.8555 236.7614 
L 88.5295 227.415458 
L 89.3665 240.30881 
L 90.2035 236.950832 
L 91.0405 243.282445 
L 91.8775 239.991466 
L 92.7145 235.074606 
L 93.5515 238.551169 
L 94.3885 234.6246 
L 95.2255 222.340216 
L 96.0625 223.470286 
L 96.8995 225.628707 
L 97.7365 241.217884 
L 98.5735 237.939391 
L 99.4105 228.323933 
L 100.2475 236.582957 
L 101.0845 232.015622 
L 101.9215 240.407523 
L 102.7585 228.749516 
L 103.5955 234.924825 
L 104.4325 236.712245 
L 105.2695 242.320068 
L 106.1065 240.50967 
L 106.9435 228.319592 
L 107.7805 231.409816 
L 108.6175 238.09478 
L 110.2915 224.465145 
L 111.1285 225.158379 
L 111.9655 220.390297 
L 112.8025 237.439894 
L 113.6395 236.026496 
L 114.4765 225.914631 
L 115.3135 240.153507 
L 116.1505 226.941423 
L 116.9875 230.256599 
L 117.8245 233.096053 
L 118.6615 235.045504 
L 119.4985 223.887934 
L 120.3355 229.473619 
L 121.1725 236.854129 
L 122.0095 236.6275 
L 122.8465 232.605742 
L 123.6835 232.804801 
L 124.5205 236.607458 
L 125.3575 225.696218 
L 126.1945 221.16163 
L 127.0315 225.762394 
L 127.8685 234.857073 
L 128.7055 236.321655 
L 129.5425 228.466138 
L 130.3795 228.534583 
L 131.2165 234.442942 
L 132.0535 236.127099 
L 132.8905 237.12114 
L 133.7275 236.957015 
L 134.5645 239.328355 
L 135.4015 228.468891 
L 136.2385 230.126737 
L 137.0755 231.24175 
L 137.9125 232.598623 
L 138.7495 230.695778 
L 139.5865 237.89343 
L 140.4235 227.92972 
L 141.2605 234.605706 
L 142.0975 237.527231 
L 142.9345 234.101939 
L 143.7715 239.950493 
L 144.6085 237.001558 
L 145.4455 225.792749 
L 146.2825 237.945264 
L 147.1195 234.164019 
L 147.9565 234.367812 
L 148.7935 241.063921 
L 149.6305 237.587288 
L 150.4675 239.004578 
L 151.3045 242.955967 
L 152.1415 231.308413 
L 152.9785 215.653264 
L 153.8155 234.383296 
L 154.6525 241.007173 
L 155.4895 223.782571 
L 156.3265 234.892095 
L 158.0005 227.735017 
L 158.8375 234.422653 
L 159.6745 236.27108 
L 160.5115 226.056388 
L 161.3485 232.78717 
L 162.1855 232.239553 
L 163.0225 239.968584 
L 163.8595 229.111712 
L 164.6965 231.914761 
L 165.5335 219.389607 
L 166.3705 230.996294 
L 167.2075 237.695946 
L 168.0445 236.097091 
L 168.8815 233.200801 
L 169.7185 235.655021 
L 170.5555 224.743584 
L 171.3925 234.948479 
L 172.2295 234.89971 
L 173.0665 238.291189 
L 173.9035 218.139237 
L 174.7405 235.854811 
L 175.5775 234.190935 
L 176.4145 240.581915 
L 177.2515 236.211593 
L 178.0885 235.616067 
L 178.9255 219.666061 
L 179.7625 234.693601 
L 180.5995 233.317777 
L 181.4365 222.397682 
L 182.2735 239.958482 
L 183.9475 232.283895 
L 184.7845 229.77745 
L 185.6215 240.653482 
L 186.4585 239.121289 
L 187.2955 217.367011 
L 188.1325 227.142149 
L 188.9695 232.36779 
L 189.8065 214.306347 
L 190.6435 219.719043 
L 191.4805 228.471112 
L 192.3175 198.93633 
L 193.1545 200.141394 
L 193.9915 107.35491 
L 194.8285 188.598553 
L 195.6655 213.134115 
L 196.5025 178.228347 
L 197.3395 189.166786 
L 198.1765 224.897064 
L 199.0135 194.49122 
L 199.8505 209.562561 
L 200.6875 230.93718 
L 201.5245 209.562561 
L 202.3615 194.49122 
L 203.1985 224.897064 
L 204.0355 189.166786 
L 204.8725 178.228347 
L 205.7095 213.134115 
L 206.5465 188.598553 
L 207.3835 107.35491 
L 208.2205 200.141394 
L 209.0575 198.93633 
L 209.8945 228.471112 
L 210.7315 219.719043 
L 211.5685 214.306347 
L 212.4055 232.36779 
L 213.2425 227.142149 
L 214.0795 217.367011 
L 214.9165 239.121289 
L 215.7535 240.653482 
L 216.5905 229.77745 
L 217.4275 232.283895 
L 219.1015 239.958482 
L 219.9385 222.397682 
L 220.7755 233.317777 
L 221.6125 234.693601 
L 222.4495 219.666061 
L 223.2865 235.616067 
L 224.1235 236.211593 
L 224.9605 240.581915 
L 225.7975 234.190935 
L 226.6345 235.854811 
L 227.4715 218.139237 
L 228.3085 238.291189 
L 229.1455 234.89971 
L 229.9825 234.948479 
L 230.8195 224.743584 
L 231.6565 235.655021 
L 232.4935 233.200801 
L 233.3305 236.097091 
L 234.1675 237.695946 
L 235.0045 230.996294 
L 235.8415 219.389607 
L 236.6785 231.914761 
L 237.5155 229.111712 
L 238.3525 239.968584 
L 239.1895 232.239553 
L 240.0265 232.78717 
L 240.8635 226.056388 
L 241.7005 236.27108 
L 242.5375 234.422653 
L 243.3745 227.735017 
L 245.0485 234.892095 
L 245.8855 223.782571 
L 246.7225 241.007173 
L 247.5595 234.383296 
L 248.3965 215.653264 
L 249.2335 231.308413 
L 250.0705 242.955967 
L 250.9075 239.004578 
L 251.7445 237.587288 
L 252.5815 241.063921 
L 253.4185 234.367812 
L 254.2555 234.164019 
L 255.0925 237.945264 
L 255.9295 225.792749 
L 256.7665 237.001558 
L 257.6035 239.950493 
L 258.4405 234.101939 
L 259.2775 237.527231 
L 260.1145 234.605706 
L 260.9515 227.92972 
L 261.7885 237.89343 
L 262.6255 230.695778 
L 263.4625 232.598623 
L 264.2995 231.24175 
L 265.1365 230.126737 
L 265.9735 228.468891 
L 266.8105 239.328355 
L 267.6475 236.957015 
L 268.4845 237.12114 
L 269.3215 236.127099 
L 270.1585 234.442942 
L 270.9955 228.534583 
L 271.8325 228.466138 
L 272.6695 236.321655 
L 273.5065 234.857073 
L 274.3435 225.762394 
L 275.1805 221.16163 
L 276.0175 225.696218 
L 276.8545 236.607458 
L 277.6915 232.804801 
L 278.5285 232.605742 
L 279.3655 236.6275 
L 280.2025 236.854129 
L 281.0395 229.473619 
L 281.8765 223.887934 
L 282.7135 235.045504 
L 283.5505 233.096053 
L 284.3875 230.256599 
L 285.2245 226.941423 
L 286.0615 240.153507 
L 286.8985 225.914631 
L 287.7355 236.026496 
L 288.5725 237.439894 
L 289.4095 220.390297 
L 290.2465 225.158379 
L 291.0835 224.465145 
L 292.7575 238.09478 
L 293.5945 231.409816 
L 294.4315 228.319592 
L 295.2685 240.50967 
L 296.1055 242.320068 
L 296.9425 236.712245 
L 297.7795 234.924825 
L 298.6165 228.749516 
L 299.4535 240.407523 
L 300.2905 232.015622 
L 301.1275 236.582957 
L 301.9645 228.323933 
L 302.8015 237.939391 
L 303.6385 241.217884 
L 304.4755 225.628707 
L 305.3125 223.470286 
L 306.1495 222.340216 
L 306.9865 234.6246 
L 307.8235 238.551169 
L 308.6605 235.074606 
L 309.4975 239.991466 
L 310.3345 243.282445 
L 311.1715 236.950832 
L 312.0085 240.30881 
L 312.8455 227.415458 
L 314.5195 236.7614 
L 315.3565 223.924281 
L 316.1935 230.637668 
L 317.0305 235.508075 
L 317.8675 236.954716 
L 318.7045 233.627924 
L 319.5415 224.450683 
L 320.3785 235.693836 
L 321.2155 241.26061 
L 322.0525 240.671075 
L 322.8895 222.244436 
L 323.7265 240.967983 
L 324.5635 233.905831 
L 325.4005 238.325492 
L 326.2375 219.664894 
L 327.0745 228.460573 
L 327.9115 234.171609 
L 328.7485 241.517981 
L 329.5855 233.654294 
L 330.4225 233.67343 
L 331.2595 238.650978 
L 332.0965 230.237309 
L 333.7705 239.320245 
L 334.6075 236.732923 
L 335.4445 231.495101 
L 336.2815 221.639679 
L 337.1185 230.543208 
L 337.9555 236.178837 
L 338.7925 233.983136 
L 339.6295 239.390818 
L 340.4665 222.671787 
L 342.1405 231.778846 
L 342.9775 230.21762 
L 343.8145 226.910687 
L 344.6515 224.953709 
L 345.4885 232.963764 
L 346.3255 234.977468 
L 347.1625 235.165374 
L 347.9995 238.275069 
L 348.8365 237.163829 
L 349.6735 228.140016 
L 350.5105 228.85318 
L 351.3475 237.602773 
L 352.1845 240.318642 
L 353.0215 235.403896 
L 353.8585 236.434857 
L 354.6955 227.246576 
L 355.5325 236.432455 
L 356.3695 237.496768 
L 357.2065 228.160825 
L 358.0435 240.549624 
L 358.8805 235.814973 
L 359.7175 225.852271 
L 360.5545 235.888669 
L 361.3915 228.28417 
L 362.2285 232.299405 
L 363.0655 225.949945 
L 363.9025 235.385317 
L 364.7395 236.091588 
L 365.5765 235.696336 
L 366.4135 238.530245 
L 367.2505 234.675726 
L 368.0875 238.903692 
L 368.9245 237.779781 
L 368.9245 237.779781 
" clip-path="url(#pccdb1a6ac0)" style="fill: none; stroke: #2ca02c; stroke-opacity: 0.6; stroke-width: 1.5; stroke-linecap: square"/>
   </g>
   <g id="patch_3">
    <path d="M 33.2875 253.44 
L 33.2875 36 
" style="fill: none; stroke: #000000; stroke-width: 0.8; stroke-linejoin: miter; stroke-linecap: square"/>
   </g>
   <g id="patch_4">
    <path d="M 368.0875 253.44 
L 368.0875 36 
" style="fill: none; stroke: #000000; stroke-width: 0.8; stroke-linejoin: miter; stroke-linecap: square"/>
   </g>
   <g id="patch_5">
    <path d="M 33.2875 253.44 
L 368.0875 253.44 
" style="fill: none; stroke: #000000; stroke-width: 0.8; stroke-linejoin: miter; stroke-linecap: square"/>
   </g>
   <g id="patch_6">
    <path d="M 33.2875 36 
L 368.0875 36 
" style="fill: none; stroke: #000000; stroke-width: 0.8; stroke-linejoin: miter; stroke-linecap: square"/>
   </g>
   <g id="legend_1">
    <g id="patch_7">
     <path d="M 299.1875 92.6 
L 361.0875 92.6 
Q 363.0875 92.6 363.0875 90.6 
L 363.0875 43 
Q 363.0875 41 361.0875 41 
L 299.1875 41 
Q 297.1875 41 297.1875 43 
L 297.1875 90.6 
Q 297.1875 92.6 299.1875 92.6 
z
" style="fill: #ffffff; opacity: 0.8; stroke: #cccccc; stroke-linejoin: miter"/>
    </g>
    <g id="line2d_18">
     <path d="M 301.1875 52.5 
L 311.1875 52.5 
L 321.1875 52.5 
" style="fill: none; stroke: #1f77b4; stroke-width: 1.5; stroke-linecap: square"/>
    </g>
    <g id="text_16">
     <!-- $|\hat{X}(\omega)$| -->
     <g transform="translate(329.1875 56) scale(0.1 -0.1)">
      <defs>
       <path id="DejaVuSans-7c" d="M 1344 4891 
L 1344 -1509 
L 813 -1509 
L 813 4891 
L 1344 4891 
z
" transform="scale(0.015625)"/>
       <path id="DejaVuSans-302" d="M -1831 5119 
L -1369 5119 
L -603 3944 
L -1038 3944 
L -1600 4709 
L -2163 3944 
L -2597 3944 
L -1831 5119 
z
M -1600 3584 
L -1600 3584 
z
" transform="scale(0.015625)"/>
       <path id="DejaVuSans-Oblique-58" d="M 878 4666 
L 1516 4666 
L 2316 2981 
L 3763 4666 
L 4500 4666 
L 2578 2438 
L 3738 0 
L 3103 0 
L 2163 1966 
L 459 0 
L -275 0 
L 1906 2509 
L 878 4666 
z
" transform="scale(0.015625)"/>
       <path id="DejaVuSans-28" d="M 1984 4856 
Q 1566 4138 1362 3434 
Q 1159 2731 1159 2009 
Q 1159 1288 1364 580 
Q 1569 -128 1984 -844 
L 1484 -844 
Q 1016 -109 783 600 
Q 550 1309 550 2009 
Q 550 2706 781 3412 
Q 1013 4119 1484 4856 
L 1984 4856 
z
" transform="scale(0.015625)"/>
       <path id="DejaVuSans-29" d="M 513 4856 
L 1013 4856 
Q 1481 4119 1714 3412 
Q 1947 2706 1947 2009 
Q 1947 1309 1714 600 
Q 1481 -109 1013 -844 
L 513 -844 
Q 928 -128 1133 580 
Q 1338 1288 1338 2009 
Q 1338 2731 1133 3434 
Q 928 4138 513 4856 
z
" transform="scale(0.015625)"/>
      </defs>
      <use xlink:href="#DejaVuSans-7c" transform="translate(0 0.609375)"/>
      <use xlink:href="#DejaVuSans-302" transform="translate(101.395996 30.015625)"/>
      <use xlink:href="#DejaVuSans-Oblique-58" transform="translate(33.691406 0.609375)"/>
      <use xlink:href="#DejaVuSans-28" transform="translate(102.197266 0.609375)"/>
      <use xlink:href="#DejaVuSans-Oblique-3c9" transform="translate(141.210938 0.609375)"/>
      <use xlink:href="#DejaVuSans-29" transform="translate(224.951172 0.609375)"/>
      <use xlink:href="#DejaVuSans-7c" transform="translate(263.964844 0.609375)"/>
     </g>
    </g>
    <g id="line2d_19">
     <path d="M 301.1875 67.6 
L 311.1875 67.6 
L 321.1875 67.6 
" style="fill: none; stroke: #ff7f0e; stroke-opacity: 0.75; stroke-width: 1.5; stroke-linecap: square"/>
    </g>
    <g id="text_17">
     <!-- $|X(\omega)$| -->
     <g transform="translate(329.1875 71.1) scale(0.1 -0.1)">
      <use xlink:href="#DejaVuSans-7c" transform="translate(0 0.578125)"/>
      <use xlink:href="#DejaVuSans-Oblique-58" transform="translate(33.691406 0.578125)"/>
      <use xlink:href="#DejaVuSans-28" transform="translate(102.197266 0.578125)"/>
      <use xlink:href="#DejaVuSans-Oblique-3c9" transform="translate(141.210938 0.578125)"/>
      <use xlink:href="#DejaVuSans-29" transform="translate(224.951172 0.578125)"/>
      <use xlink:href="#DejaVuSans-7c" transform="translate(263.964844 0.578125)"/>
     </g>
    </g>
    <g id="line2d_20">
     <path d="M 301.1875 82.7 
L 311.1875 82.7 
L 321.1875 82.7 
" style="fill: none; stroke: #2ca02c; stroke-opacity: 0.6; stroke-width: 1.5; stroke-linecap: square"/>
    </g>
    <g id="text_18">
     <!-- $|R(\omega)|$ -->
     <g transform="translate(329.1875 86.2) scale(0.1 -0.1)">
      <defs>
       <path id="DejaVuSans-Oblique-52" d="M 1613 4147 
L 1294 2491 
L 2106 2491 
Q 2584 2491 2879 2755 
Q 3175 3019 3175 3444 
Q 3175 3784 2976 3965 
Q 2778 4147 2406 4147 
L 1613 4147 
z
M 2772 2241 
Q 2972 2194 3105 2009 
Q 3238 1825 3413 1275 
L 3809 0 
L 3144 0 
L 2778 1197 
Q 2638 1659 2453 1815 
Q 2269 1972 1888 1972 
L 1191 1972 
L 806 0 
L 172 0 
L 1081 4666 
L 2503 4666 
Q 3150 4666 3495 4373 
Q 3841 4081 3841 3531 
Q 3841 3044 3547 2687 
Q 3253 2331 2772 2241 
z
" transform="scale(0.015625)"/>
      </defs>
      <use xlink:href="#DejaVuSans-7c" transform="translate(0 0.578125)"/>
      <use xlink:href="#DejaVuSans-Oblique-52" transform="translate(33.691406 0.578125)"/>
      <use xlink:href="#DejaVuSans-28" transform="translate(103.173828 0.578125)"/>
      <use xlink:href="#DejaVuSans-Oblique-3c9" transform="translate(142.1875 0.578125)"/>
      <use xlink:href="#DejaVuSans-29" transform="translate(225.927734 0.578125)"/>
      <use xlink:href="#DejaVuSans-7c" transform="translate(264.941406 0.578125)"/>
     </g>
    </g>
   </g>
  </g>
  <g id="text_19">
   <!--  $|X(\omega)|$, spike response $|R(\omega)|$, and filtered signal $|\hat X(\omega)|$ -->
   <g transform="translate(28.5475 20.4) scale(0.12 -0.12)">
    <defs>
     <path id="DejaVuSans-2c" d="M 750 794 
L 1409 794 
L 1409 256 
L 897 -744 
L 494 -744 
L 750 256 
L 750 794 
z
" transform="scale(0.015625)"/>
     <path id="DejaVuSans-70" d="M 1159 525 
L 1159 -1331 
L 581 -1331 
L 581 3500 
L 1159 3500 
L 1159 2969 
Q 1341 3281 1617 3432 
Q 1894 3584 2278 3584 
Q 2916 3584 3314 3078 
Q 3713 2572 3713 1747 
Q 3713 922 3314 415 
Q 2916 -91 2278 -91 
Q 1894 -91 1617 61 
Q 1341 213 1159 525 
z
M 3116 1747 
Q 3116 2381 2855 2742 
Q 2594 3103 2138 3103 
Q 1681 3103 1420 2742 
Q 1159 2381 1159 1747 
Q 1159 1113 1420 752 
Q 1681 391 2138 391 
Q 2594 391 2855 752 
Q 3116 1113 3116 1747 
z
" transform="scale(0.015625)"/>
     <path id="DejaVuSans-6b" d="M 581 4863 
L 1159 4863 
L 1159 1991 
L 2875 3500 
L 3609 3500 
L 1753 1863 
L 3688 0 
L 2938 0 
L 1159 1709 
L 1159 0 
L 581 0 
L 581 4863 
z
" transform="scale(0.015625)"/>
     <path id="DejaVuSans-65" d="M 3597 1894 
L 3597 1613 
L 953 1613 
Q 991 1019 1311 708 
Q 1631 397 2203 397 
Q 2534 397 2845 478 
Q 3156 559 3463 722 
L 3463 178 
Q 3153 47 2828 -22 
Q 2503 -91 2169 -91 
Q 1331 -91 842 396 
Q 353 884 353 1716 
Q 353 2575 817 3079 
Q 1281 3584 2069 3584 
Q 2775 3584 3186 3129 
Q 3597 2675 3597 1894 
z
M 3022 2063 
Q 3016 2534 2758 2815 
Q 2500 3097 2075 3097 
Q 1594 3097 1305 2825 
Q 1016 2553 972 2059 
L 3022 2063 
z
" transform="scale(0.015625)"/>
     <path id="DejaVuSans-72" d="M 2631 2963 
Q 2534 3019 2420 3045 
Q 2306 3072 2169 3072 
Q 1681 3072 1420 2755 
Q 1159 2438 1159 1844 
L 1159 0 
L 581 0 
L 581 3500 
L 1159 3500 
L 1159 2956 
Q 1341 3275 1631 3429 
Q 1922 3584 2338 3584 
Q 2397 3584 2469 3576 
Q 2541 3569 2628 3553 
L 2631 2963 
z
" transform="scale(0.015625)"/>
     <path id="DejaVuSans-6f" d="M 1959 3097 
Q 1497 3097 1228 2736 
Q 959 2375 959 1747 
Q 959 1119 1226 758 
Q 1494 397 1959 397 
Q 2419 397 2687 759 
Q 2956 1122 2956 1747 
Q 2956 2369 2687 2733 
Q 2419 3097 1959 3097 
z
M 1959 3584 
Q 2709 3584 3137 3096 
Q 3566 2609 3566 1747 
Q 3566 888 3137 398 
Q 2709 -91 1959 -91 
Q 1206 -91 779 398 
Q 353 888 353 1747 
Q 353 2609 779 3096 
Q 1206 3584 1959 3584 
z
" transform="scale(0.015625)"/>
     <path id="DejaVuSans-66" d="M 2375 4863 
L 2375 4384 
L 1825 4384 
Q 1516 4384 1395 4259 
Q 1275 4134 1275 3809 
L 1275 3500 
L 2222 3500 
L 2222 3053 
L 1275 3053 
L 1275 0 
L 697 0 
L 697 3053 
L 147 3053 
L 147 3500 
L 697 3500 
L 697 3744 
Q 697 4328 969 4595 
Q 1241 4863 1831 4863 
L 2375 4863 
z
" transform="scale(0.015625)"/>
     <path id="DejaVuSans-6c" d="M 603 4863 
L 1178 4863 
L 1178 0 
L 603 0 
L 603 4863 
z
" transform="scale(0.015625)"/>
     <path id="DejaVuSans-74" d="M 1172 4494 
L 1172 3500 
L 2356 3500 
L 2356 3053 
L 1172 3053 
L 1172 1153 
Q 1172 725 1289 603 
Q 1406 481 1766 481 
L 2356 481 
L 2356 0 
L 1766 0 
Q 1100 0 847 248 
Q 594 497 594 1153 
L 594 3053 
L 172 3053 
L 172 3500 
L 594 3500 
L 594 4494 
L 1172 4494 
z
" transform="scale(0.015625)"/>
     <path id="DejaVuSans-67" d="M 2906 1791 
Q 2906 2416 2648 2759 
Q 2391 3103 1925 3103 
Q 1463 3103 1205 2759 
Q 947 2416 947 1791 
Q 947 1169 1205 825 
Q 1463 481 1925 481 
Q 2391 481 2648 825 
Q 2906 1169 2906 1791 
z
M 3481 434 
Q 3481 -459 3084 -895 
Q 2688 -1331 1869 -1331 
Q 1566 -1331 1297 -1286 
Q 1028 -1241 775 -1147 
L 775 -588 
Q 1028 -725 1275 -790 
Q 1522 -856 1778 -856 
Q 2344 -856 2625 -561 
Q 2906 -266 2906 331 
L 2906 616 
Q 2728 306 2450 153 
Q 2172 0 1784 0 
Q 1141 0 747 490 
Q 353 981 353 1791 
Q 353 2603 747 3093 
Q 1141 3584 1784 3584 
Q 2172 3584 2450 3431 
Q 2728 3278 2906 2969 
L 2906 3500 
L 3481 3500 
L 3481 434 
z
" transform="scale(0.015625)"/>
    </defs>
    <use xlink:href="#DejaVuSans-20" transform="translate(0 0.609375)"/>
    <use xlink:href="#DejaVuSans-7c" transform="translate(31.787109 0.609375)"/>
    <use xlink:href="#DejaVuSans-Oblique-58" transform="translate(65.478516 0.609375)"/>
    <use xlink:href="#DejaVuSans-28" transform="translate(133.984375 0.609375)"/>
    <use xlink:href="#DejaVuSans-Oblique-3c9" transform="translate(172.998047 0.609375)"/>
    <use xlink:href="#DejaVuSans-29" transform="translate(256.738281 0.609375)"/>
    <use xlink:href="#DejaVuSans-7c" transform="translate(295.751953 0.609375)"/>
    <use xlink:href="#DejaVuSans-2c" transform="translate(329.443359 0.609375)"/>
    <use xlink:href="#DejaVuSans-20" transform="translate(361.230469 0.609375)"/>
    <use xlink:href="#DejaVuSans-73" transform="translate(393.017578 0.609375)"/>
    <use xlink:href="#DejaVuSans-70" transform="translate(445.117188 0.609375)"/>
    <use xlink:href="#DejaVuSans-69" transform="translate(508.59375 0.609375)"/>
    <use xlink:href="#DejaVuSans-6b" transform="translate(536.376953 0.609375)"/>
    <use xlink:href="#DejaVuSans-65" transform="translate(594.287109 0.609375)"/>
    <use xlink:href="#DejaVuSans-20" transform="translate(655.810547 0.609375)"/>
    <use xlink:href="#DejaVuSans-72" transform="translate(687.597656 0.609375)"/>
    <use xlink:href="#DejaVuSans-65" transform="translate(728.710938 0.609375)"/>
    <use xlink:href="#DejaVuSans-73" transform="translate(790.234375 0.609375)"/>
    <use xlink:href="#DejaVuSans-70" transform="translate(842.333984 0.609375)"/>
    <use xlink:href="#DejaVuSans-6f" transform="translate(905.810547 0.609375)"/>
    <use xlink:href="#DejaVuSans-6e" transform="translate(966.992188 0.609375)"/>
    <use xlink:href="#DejaVuSans-73" transform="translate(1030.371094 0.609375)"/>
    <use xlink:href="#DejaVuSans-65" transform="translate(1082.470703 0.609375)"/>
    <use xlink:href="#DejaVuSans-20" transform="translate(1143.994141 0.609375)"/>
    <use xlink:href="#DejaVuSans-7c" transform="translate(1175.78125 0.609375)"/>
    <use xlink:href="#DejaVuSans-Oblique-52" transform="translate(1209.472656 0.609375)"/>
    <use xlink:href="#DejaVuSans-28" transform="translate(1278.955078 0.609375)"/>
    <use xlink:href="#DejaVuSans-Oblique-3c9" transform="translate(1317.96875 0.609375)"/>
    <use xlink:href="#DejaVuSans-29" transform="translate(1401.708984 0.609375)"/>
    <use xlink:href="#DejaVuSans-7c" transform="translate(1440.722656 0.609375)"/>
    <use xlink:href="#DejaVuSans-2c" transform="translate(1474.414062 0.609375)"/>
    <use xlink:href="#DejaVuSans-20" transform="translate(1506.201172 0.609375)"/>
    <use xlink:href="#DejaVuSans-61" transform="translate(1537.988281 0.609375)"/>
    <use xlink:href="#DejaVuSans-6e" transform="translate(1599.267578 0.609375)"/>
    <use xlink:href="#DejaVuSans-64" transform="translate(1662.646484 0.609375)"/>
    <use xlink:href="#DejaVuSans-20" transform="translate(1726.123047 0.609375)"/>
    <use xlink:href="#DejaVuSans-66" transform="translate(1757.910156 0.609375)"/>
    <use xlink:href="#DejaVuSans-69" transform="translate(1793.115234 0.609375)"/>
    <use xlink:href="#DejaVuSans-6c" transform="translate(1820.898438 0.609375)"/>
    <use xlink:href="#DejaVuSans-74" transform="translate(1848.681641 0.609375)"/>
    <use xlink:href="#DejaVuSans-65" transform="translate(1887.890625 0.609375)"/>
    <use xlink:href="#DejaVuSans-72" transform="translate(1949.414062 0.609375)"/>
    <use xlink:href="#DejaVuSans-65" transform="translate(1990.527344 0.609375)"/>
    <use xlink:href="#DejaVuSans-64" transform="translate(2052.050781 0.609375)"/>
    <use xlink:href="#DejaVuSans-20" transform="translate(2115.527344 0.609375)"/>
    <use xlink:href="#DejaVuSans-73" transform="translate(2147.314453 0.609375)"/>
    <use xlink:href="#DejaVuSans-69" transform="translate(2199.414062 0.609375)"/>
    <use xlink:href="#DejaVuSans-67" transform="translate(2227.197266 0.609375)"/>
    <use xlink:href="#DejaVuSans-6e" transform="translate(2290.673828 0.609375)"/>
    <use xlink:href="#DejaVuSans-61" transform="translate(2354.052734 0.609375)"/>
    <use xlink:href="#DejaVuSans-6c" transform="translate(2415.332031 0.609375)"/>
    <use xlink:href="#DejaVuSans-20" transform="translate(2443.115234 0.609375)"/>
    <use xlink:href="#DejaVuSans-7c" transform="translate(2474.902344 0.609375)"/>
    <use xlink:href="#DejaVuSans-302" transform="translate(2579.824219 30.015625)"/>
    <use xlink:href="#DejaVuSans-Oblique-58" transform="translate(2508.59375 0.609375)"/>
    <use xlink:href="#DejaVuSans-28" transform="translate(2583.203125 0.609375)"/>
    <use xlink:href="#DejaVuSans-Oblique-3c9" transform="translate(2622.216797 0.609375)"/>
    <use xlink:href="#DejaVuSans-29" transform="translate(2705.957031 0.609375)"/>
    <use xlink:href="#DejaVuSans-7c" transform="translate(2744.970703 0.609375)"/>
   </g>
  </g>
 </g>
 <defs>
  <clipPath id="pccdb1a6ac0">
   <rect x="33.2875" y="36" width="334.8" height="217.44"/>
  </clipPath>
 </defs>
</svg>
