<?xml version="1.0" encoding="utf-8" standalone="no"?>
<!DOCTYPE svg PUBLIC "-//W3C//DTD SVG 1.1//EN"
  "http://www.w3.org/Graphics/SVG/1.1/DTD/svg11.dtd">
<svg xmlns:xlink="http://www.w3.org/1999/xlink" width="402.1125pt" height="290.99625pt" viewBox="0 0 402.1125 290.99625" xmlns="http://www.w3.org/2000/svg" version="1.1">
 <metadata>
  <rdf:RDF xmlns:dc="http://purl.org/dc/elements/1.1/" xmlns:cc="http://creativecommons.org/ns#" xmlns:rdf="http://www.w3.org/1999/02/22-rdf-syntax-ns#">
   <cc:Work>
    <dc:type rdf:resource="http://purl.org/dc/dcmitype/StillImage"/>
    <dc:date>2022-10-15T15:46:50.927340</dc:date>
    <dc:format>image/svg+xml</dc:format>
    <dc:creator>
     <cc:Agent>
      <dc:title>Matplotlib v3.6.0, https://matplotlib.org/</dc:title>
     </cc:Agent>
    </dc:creator>
   </cc:Work>
  </rdf:RDF>
 </metadata>
 <defs>
  <style type="text/css">*{stroke-linejoin: round; stroke-linecap: butt}</style>
 </defs>
 <g id="figure_1">
  <g id="patch_1">
   <path d="M 0 290.99625 
L 402.1125 290.99625 
L 402.1125 0 
L 0 0 
L 0 290.99625 
z
" style="fill: none"/>
  </g>
  <g id="axes_1">
   <g id="patch_2">
    <path d="M 52.160938 253.44 
L 386.960938 253.44 
L 386.960938 36 
L 52.160938 36 
z
" style="fill: #ffffff"/>
   </g>
   <g id="matplotlib.axis_1">
    <g id="xtick_1">
     <g id="line2d_1">
      <defs>
       <path id="m8fde7ff9bf" d="M 0 0 
L 0 3.5 
" style="stroke: #000000; stroke-width: 0.8"/>
      </defs>
      <g>
       <use xlink:href="#m8fde7ff9bf" x="52.160938" y="253.44" style="stroke: #000000; stroke-width: 0.8"/>
      </g>
     </g>
     <g id="text_1">
      <!-- 0.0 -->
      <g transform="translate(44.209375 268.038437) scale(0.1 -0.1)">
       <defs>
        <path id="DejaVuSans-30" d="M 2034 4250 
Q 1547 4250 1301 3770 
Q 1056 3291 1056 2328 
Q 1056 1369 1301 889 
Q 1547 409 2034 409 
Q 2525 409 2770 889 
Q 3016 1369 3016 2328 
Q 3016 3291 2770 3770 
Q 2525 4250 2034 4250 
z
M 2034 4750 
Q 2819 4750 3233 4129 
Q 3647 3509 3647 2328 
Q 3647 1150 3233 529 
Q 2819 -91 2034 -91 
Q 1250 -91 836 529 
Q 422 1150 422 2328 
Q 422 3509 836 4129 
Q 1250 4750 2034 4750 
z
" transform="scale(0.015625)"/>
        <path id="DejaVuSans-2e" d="M 684 794 
L 1344 794 
L 1344 0 
L 684 0 
L 684 794 
z
" transform="scale(0.015625)"/>
       </defs>
       <use xlink:href="#DejaVuSans-30"/>
       <use xlink:href="#DejaVuSans-2e" x="63.623047"/>
       <use xlink:href="#DejaVuSans-30" x="95.410156"/>
      </g>
     </g>
    </g>
    <g id="xtick_2">
     <g id="line2d_2">
      <g>
       <use xlink:href="#m8fde7ff9bf" x="119.120938" y="253.44" style="stroke: #000000; stroke-width: 0.8"/>
      </g>
     </g>
     <g id="text_2">
      <!-- 0.2 -->
      <g transform="translate(111.169375 268.038437) scale(0.1 -0.1)">
       <defs>
        <path id="DejaVuSans-32" d="M 1228 531 
L 3431 531 
L 3431 0 
L 469 0 
L 469 531 
Q 828 903 1448 1529 
Q 2069 2156 2228 2338 
Q 2531 2678 2651 2914 
Q 2772 3150 2772 3378 
Q 2772 3750 2511 3984 
Q 2250 4219 1831 4219 
Q 1534 4219 1204 4116 
Q 875 4013 500 3803 
L 500 4441 
Q 881 4594 1212 4672 
Q 1544 4750 1819 4750 
Q 2544 4750 2975 4387 
Q 3406 4025 3406 3419 
Q 3406 3131 3298 2873 
Q 3191 2616 2906 2266 
Q 2828 2175 2409 1742 
Q 1991 1309 1228 531 
z
" transform="scale(0.015625)"/>
       </defs>
       <use xlink:href="#DejaVuSans-30"/>
       <use xlink:href="#DejaVuSans-2e" x="63.623047"/>
       <use xlink:href="#DejaVuSans-32" x="95.410156"/>
      </g>
     </g>
    </g>
    <g id="xtick_3">
     <g id="line2d_3">
      <g>
       <use xlink:href="#m8fde7ff9bf" x="186.080938" y="253.44" style="stroke: #000000; stroke-width: 0.8"/>
      </g>
     </g>
     <g id="text_3">
      <!-- 0.4 -->
      <g transform="translate(178.129375 268.038437) scale(0.1 -0.1)">
       <defs>
        <path id="DejaVuSans-34" d="M 2419 4116 
L 825 1625 
L 2419 1625 
L 2419 4116 
z
M 2253 4666 
L 3047 4666 
L 3047 1625 
L 3713 1625 
L 3713 1100 
L 3047 1100 
L 3047 0 
L 2419 0 
L 2419 1100 
L 313 1100 
L 313 1709 
L 2253 4666 
z
" transform="scale(0.015625)"/>
       </defs>
       <use xlink:href="#DejaVuSans-30"/>
       <use xlink:href="#DejaVuSans-2e" x="63.623047"/>
       <use xlink:href="#DejaVuSans-34" x="95.410156"/>
      </g>
     </g>
    </g>
    <g id="xtick_4">
     <g id="line2d_4">
      <g>
       <use xlink:href="#m8fde7ff9bf" x="253.040938" y="253.44" style="stroke: #000000; stroke-width: 0.8"/>
      </g>
     </g>
     <g id="text_4">
      <!-- 0.6 -->
      <g transform="translate(245.089375 268.038437) scale(0.1 -0.1)">
       <defs>
        <path id="DejaVuSans-36" d="M 2113 2584 
Q 1688 2584 1439 2293 
Q 1191 2003 1191 1497 
Q 1191 994 1439 701 
Q 1688 409 2113 409 
Q 2538 409 2786 701 
Q 3034 994 3034 1497 
Q 3034 2003 2786 2293 
Q 2538 2584 2113 2584 
z
M 3366 4563 
L 3366 3988 
Q 3128 4100 2886 4159 
Q 2644 4219 2406 4219 
Q 1781 4219 1451 3797 
Q 1122 3375 1075 2522 
Q 1259 2794 1537 2939 
Q 1816 3084 2150 3084 
Q 2853 3084 3261 2657 
Q 3669 2231 3669 1497 
Q 3669 778 3244 343 
Q 2819 -91 2113 -91 
Q 1303 -91 875 529 
Q 447 1150 447 2328 
Q 447 3434 972 4092 
Q 1497 4750 2381 4750 
Q 2619 4750 2861 4703 
Q 3103 4656 3366 4563 
z
" transform="scale(0.015625)"/>
       </defs>
       <use xlink:href="#DejaVuSans-30"/>
       <use xlink:href="#DejaVuSans-2e" x="63.623047"/>
       <use xlink:href="#DejaVuSans-36" x="95.410156"/>
      </g>
     </g>
    </g>
    <g id="xtick_5">
     <g id="line2d_5">
      <g>
       <use xlink:href="#m8fde7ff9bf" x="320.000938" y="253.44" style="stroke: #000000; stroke-width: 0.8"/>
      </g>
     </g>
     <g id="text_5">
      <!-- 0.8 -->
      <g transform="translate(312.049375 268.038437) scale(0.1 -0.1)">
       <defs>
        <path id="DejaVuSans-38" d="M 2034 2216 
Q 1584 2216 1326 1975 
Q 1069 1734 1069 1313 
Q 1069 891 1326 650 
Q 1584 409 2034 409 
Q 2484 409 2743 651 
Q 3003 894 3003 1313 
Q 3003 1734 2745 1975 
Q 2488 2216 2034 2216 
z
M 1403 2484 
Q 997 2584 770 2862 
Q 544 3141 544 3541 
Q 544 4100 942 4425 
Q 1341 4750 2034 4750 
Q 2731 4750 3128 4425 
Q 3525 4100 3525 3541 
Q 3525 3141 3298 2862 
Q 3072 2584 2669 2484 
Q 3125 2378 3379 2068 
Q 3634 1759 3634 1313 
Q 3634 634 3220 271 
Q 2806 -91 2034 -91 
Q 1263 -91 848 271 
Q 434 634 434 1313 
Q 434 1759 690 2068 
Q 947 2378 1403 2484 
z
M 1172 3481 
Q 1172 3119 1398 2916 
Q 1625 2713 2034 2713 
Q 2441 2713 2670 2916 
Q 2900 3119 2900 3481 
Q 2900 3844 2670 4047 
Q 2441 4250 2034 4250 
Q 1625 4250 1398 4047 
Q 1172 3844 1172 3481 
z
" transform="scale(0.015625)"/>
       </defs>
       <use xlink:href="#DejaVuSans-30"/>
       <use xlink:href="#DejaVuSans-2e" x="63.623047"/>
       <use xlink:href="#DejaVuSans-38" x="95.410156"/>
      </g>
     </g>
    </g>
    <g id="xtick_6">
     <g id="line2d_6">
      <g>
       <use xlink:href="#m8fde7ff9bf" x="386.960938" y="253.44" style="stroke: #000000; stroke-width: 0.8"/>
      </g>
     </g>
     <g id="text_6">
      <!-- 1.0 -->
      <g transform="translate(379.009375 268.038437) scale(0.1 -0.1)">
       <defs>
        <path id="DejaVuSans-31" d="M 794 531 
L 1825 531 
L 1825 4091 
L 703 3866 
L 703 4441 
L 1819 4666 
L 2450 4666 
L 2450 531 
L 3481 531 
L 3481 0 
L 794 0 
L 794 531 
z
" transform="scale(0.015625)"/>
       </defs>
       <use xlink:href="#DejaVuSans-31"/>
       <use xlink:href="#DejaVuSans-2e" x="63.623047"/>
       <use xlink:href="#DejaVuSans-30" x="95.410156"/>
      </g>
     </g>
    </g>
    <g id="text_7">
     <!-- $t$ sec. -->
     <g transform="translate(205.960938 281.716562) scale(0.1 -0.1)">
      <defs>
       <path id="DejaVuSans-Oblique-74" d="M 2706 3500 
L 2619 3053 
L 1472 3053 
L 1100 1153 
Q 1081 1047 1072 975 
Q 1063 903 1063 863 
Q 1063 663 1183 572 
Q 1303 481 1569 481 
L 2150 481 
L 2053 0 
L 1503 0 
Q 991 0 739 200 
Q 488 400 488 806 
Q 488 878 497 964 
Q 506 1050 525 1153 
L 897 3053 
L 409 3053 
L 500 3500 
L 978 3500 
L 1172 4494 
L 1747 4494 
L 1556 3500 
L 2706 3500 
z
" transform="scale(0.015625)"/>
       <path id="DejaVuSans-20" transform="scale(0.015625)"/>
       <path id="DejaVuSans-73" d="M 2834 3397 
L 2834 2853 
Q 2591 2978 2328 3040 
Q 2066 3103 1784 3103 
Q 1356 3103 1142 2972 
Q 928 2841 928 2578 
Q 928 2378 1081 2264 
Q 1234 2150 1697 2047 
L 1894 2003 
Q 2506 1872 2764 1633 
Q 3022 1394 3022 966 
Q 3022 478 2636 193 
Q 2250 -91 1575 -91 
Q 1294 -91 989 -36 
Q 684 19 347 128 
L 347 722 
Q 666 556 975 473 
Q 1284 391 1588 391 
Q 1994 391 2212 530 
Q 2431 669 2431 922 
Q 2431 1156 2273 1281 
Q 2116 1406 1581 1522 
L 1381 1569 
Q 847 1681 609 1914 
Q 372 2147 372 2553 
Q 372 3047 722 3315 
Q 1072 3584 1716 3584 
Q 2034 3584 2315 3537 
Q 2597 3491 2834 3397 
z
" transform="scale(0.015625)"/>
       <path id="DejaVuSans-65" d="M 3597 1894 
L 3597 1613 
L 953 1613 
Q 991 1019 1311 708 
Q 1631 397 2203 397 
Q 2534 397 2845 478 
Q 3156 559 3463 722 
L 3463 178 
Q 3153 47 2828 -22 
Q 2503 -91 2169 -91 
Q 1331 -91 842 396 
Q 353 884 353 1716 
Q 353 2575 817 3079 
Q 1281 3584 2069 3584 
Q 2775 3584 3186 3129 
Q 3597 2675 3597 1894 
z
M 3022 2063 
Q 3016 2534 2758 2815 
Q 2500 3097 2075 3097 
Q 1594 3097 1305 2825 
Q 1016 2553 972 2059 
L 3022 2063 
z
" transform="scale(0.015625)"/>
       <path id="DejaVuSans-63" d="M 3122 3366 
L 3122 2828 
Q 2878 2963 2633 3030 
Q 2388 3097 2138 3097 
Q 1578 3097 1268 2742 
Q 959 2388 959 1747 
Q 959 1106 1268 751 
Q 1578 397 2138 397 
Q 2388 397 2633 464 
Q 2878 531 3122 666 
L 3122 134 
Q 2881 22 2623 -34 
Q 2366 -91 2075 -91 
Q 1284 -91 818 406 
Q 353 903 353 1747 
Q 353 2603 823 3093 
Q 1294 3584 2113 3584 
Q 2378 3584 2631 3529 
Q 2884 3475 3122 3366 
z
" transform="scale(0.015625)"/>
      </defs>
      <use xlink:href="#DejaVuSans-Oblique-74" transform="translate(0 0.78125)"/>
      <use xlink:href="#DejaVuSans-20" transform="translate(39.208984 0.78125)"/>
      <use xlink:href="#DejaVuSans-73" transform="translate(70.996094 0.78125)"/>
      <use xlink:href="#DejaVuSans-65" transform="translate(123.095703 0.78125)"/>
      <use xlink:href="#DejaVuSans-63" transform="translate(184.619141 0.78125)"/>
      <use xlink:href="#DejaVuSans-2e" transform="translate(239.599609 0.78125)"/>
     </g>
    </g>
   </g>
   <g id="matplotlib.axis_2">
    <g id="ytick_1">
     <g id="line2d_7">
      <defs>
       <path id="m5cabda025a" d="M 0 0 
L -3.5 0 
" style="stroke: #000000; stroke-width: 0.8"/>
      </defs>
      <g>
       <use xlink:href="#m5cabda025a" x="52.160938" y="244.39342" style="stroke: #000000; stroke-width: 0.8"/>
      </g>
     </g>
     <g id="text_8">
      <!-- −1.0 -->
      <g transform="translate(20.878125 248.192638) scale(0.1 -0.1)">
       <defs>
        <path id="DejaVuSans-2212" d="M 678 2272 
L 4684 2272 
L 4684 1741 
L 678 1741 
L 678 2272 
z
" transform="scale(0.015625)"/>
       </defs>
       <use xlink:href="#DejaVuSans-2212"/>
       <use xlink:href="#DejaVuSans-31" x="83.789062"/>
       <use xlink:href="#DejaVuSans-2e" x="147.412109"/>
       <use xlink:href="#DejaVuSans-30" x="179.199219"/>
      </g>
     </g>
    </g>
    <g id="ytick_2">
     <g id="line2d_8">
      <g>
       <use xlink:href="#m5cabda025a" x="52.160938" y="205.501017" style="stroke: #000000; stroke-width: 0.8"/>
      </g>
     </g>
     <g id="text_9">
      <!-- −0.5 -->
      <g transform="translate(20.878125 209.300235) scale(0.1 -0.1)">
       <defs>
        <path id="DejaVuSans-35" d="M 691 4666 
L 3169 4666 
L 3169 4134 
L 1269 4134 
L 1269 2991 
Q 1406 3038 1543 3061 
Q 1681 3084 1819 3084 
Q 2600 3084 3056 2656 
Q 3513 2228 3513 1497 
Q 3513 744 3044 326 
Q 2575 -91 1722 -91 
Q 1428 -91 1123 -41 
Q 819 9 494 109 
L 494 744 
Q 775 591 1075 516 
Q 1375 441 1709 441 
Q 2250 441 2565 725 
Q 2881 1009 2881 1497 
Q 2881 1984 2565 2268 
Q 2250 2553 1709 2553 
Q 1456 2553 1204 2497 
Q 953 2441 691 2322 
L 691 4666 
z
" transform="scale(0.015625)"/>
       </defs>
       <use xlink:href="#DejaVuSans-2212"/>
       <use xlink:href="#DejaVuSans-30" x="83.789062"/>
       <use xlink:href="#DejaVuSans-2e" x="147.412109"/>
       <use xlink:href="#DejaVuSans-35" x="179.199219"/>
      </g>
     </g>
    </g>
    <g id="ytick_3">
     <g id="line2d_9">
      <g>
       <use xlink:href="#m5cabda025a" x="52.160938" y="166.608614" style="stroke: #000000; stroke-width: 0.8"/>
      </g>
     </g>
     <g id="text_10">
      <!-- 0.0 -->
      <g transform="translate(29.257812 170.407833) scale(0.1 -0.1)">
       <use xlink:href="#DejaVuSans-30"/>
       <use xlink:href="#DejaVuSans-2e" x="63.623047"/>
       <use xlink:href="#DejaVuSans-30" x="95.410156"/>
      </g>
     </g>
    </g>
    <g id="ytick_4">
     <g id="line2d_10">
      <g>
       <use xlink:href="#m5cabda025a" x="52.160938" y="127.716211" style="stroke: #000000; stroke-width: 0.8"/>
      </g>
     </g>
     <g id="text_11">
      <!-- 0.5 -->
      <g transform="translate(29.257812 131.51543) scale(0.1 -0.1)">
       <use xlink:href="#DejaVuSans-30"/>
       <use xlink:href="#DejaVuSans-2e" x="63.623047"/>
       <use xlink:href="#DejaVuSans-35" x="95.410156"/>
      </g>
     </g>
    </g>
    <g id="ytick_5">
     <g id="line2d_11">
      <g>
       <use xlink:href="#m5cabda025a" x="52.160938" y="88.823808" style="stroke: #000000; stroke-width: 0.8"/>
      </g>
     </g>
     <g id="text_12">
      <!-- 1.0 -->
      <g transform="translate(29.257812 92.623027) scale(0.1 -0.1)">
       <use xlink:href="#DejaVuSans-31"/>
       <use xlink:href="#DejaVuSans-2e" x="63.623047"/>
       <use xlink:href="#DejaVuSans-30" x="95.410156"/>
      </g>
     </g>
    </g>
    <g id="ytick_6">
     <g id="line2d_12">
      <g>
       <use xlink:href="#m5cabda025a" x="52.160938" y="49.931405" style="stroke: #000000; stroke-width: 0.8"/>
      </g>
     </g>
     <g id="text_13">
      <!-- 1.5 -->
      <g transform="translate(29.257812 53.730624) scale(0.1 -0.1)">
       <use xlink:href="#DejaVuSans-31"/>
       <use xlink:href="#DejaVuSans-2e" x="63.623047"/>
       <use xlink:href="#DejaVuSans-35" x="95.410156"/>
      </g>
     </g>
    </g>
    <g id="text_14">
     <!-- $x(t)$ -->
     <g transform="translate(14.798438 153.57) rotate(-90) scale(0.1 -0.1)">
      <defs>
       <path id="DejaVuSans-Oblique-78" d="M 3841 3500 
L 2234 1784 
L 3219 0 
L 2559 0 
L 1819 1388 
L 531 0 
L -166 0 
L 1556 1844 
L 641 3500 
L 1300 3500 
L 1972 2234 
L 3144 3500 
L 3841 3500 
z
" transform="scale(0.015625)"/>
       <path id="DejaVuSans-28" d="M 1984 4856 
Q 1566 4138 1362 3434 
Q 1159 2731 1159 2009 
Q 1159 1288 1364 580 
Q 1569 -128 1984 -844 
L 1484 -844 
Q 1016 -109 783 600 
Q 550 1309 550 2009 
Q 550 2706 781 3412 
Q 1013 4119 1484 4856 
L 1984 4856 
z
" transform="scale(0.015625)"/>
       <path id="DejaVuSans-29" d="M 513 4856 
L 1013 4856 
Q 1481 4119 1714 3412 
Q 1947 2706 1947 2009 
Q 1947 1309 1714 600 
Q 1481 -109 1013 -844 
L 513 -844 
Q 928 -128 1133 580 
Q 1338 1288 1338 2009 
Q 1338 2731 1133 3434 
Q 928 4138 513 4856 
z
" transform="scale(0.015625)"/>
      </defs>
      <use xlink:href="#DejaVuSans-Oblique-78" transform="translate(0 0.125)"/>
      <use xlink:href="#DejaVuSans-28" transform="translate(59.179688 0.125)"/>
      <use xlink:href="#DejaVuSans-Oblique-74" transform="translate(98.193359 0.125)"/>
      <use xlink:href="#DejaVuSans-29" transform="translate(137.402344 0.125)"/>
     </g>
    </g>
   </g>
   <g id="line2d_13">
    <path d="M 52.160938 123.502555 
L 53.834938 114.639674 
L 55.174138 108.670527 
L 56.178538 104.945021 
L 57.182938 101.96129 
L 57.852538 100.449813 
L 58.522137 99.378664 
L 59.191738 98.80268 
L 59.526538 98.717232 
L 59.861338 98.775015 
L 60.196138 98.981302 
L 60.865738 99.855484 
L 61.535338 101.359324 
L 62.204937 103.488826 
L 63.209338 107.782107 
L 64.213738 113.195208 
L 65.887738 123.808542 
L 68.900937 143.286934 
L 70.574938 152.630069 
L 72.918537 164.308681 
L 78.944938 193.182463 
L 79.949338 196.816757 
L 80.953738 199.675981 
L 81.958138 201.715101 
L 82.627737 202.640957 
L 83.297337 203.261273 
L 83.966938 203.626742 
L 84.971338 203.826462 
L 86.310538 203.753505 
L 88.319338 203.637277 
L 89.993337 203.818082 
L 93.006538 204.257447 
L 94.345738 204.217302 
L 95.350138 204.007309 
L 96.354538 203.568675 
L 97.024138 203.094736 
L 97.693737 202.422571 
L 98.363338 201.496302 
L 99.032938 200.253624 
L 99.702538 198.629851 
L 100.372138 196.562894 
L 101.376538 192.516791 
L 102.380938 187.234522 
L 103.385338 180.698342 
L 104.724537 170.24233 
L 107.068138 149.244427 
L 108.742138 135.067946 
L 109.746538 128.20155 
L 110.416138 124.658046 
L 111.085737 122.104373 
L 111.755337 120.644039 
L 112.090137 120.345342 
L 112.424937 120.340115 
L 112.759737 120.628933 
L 113.094538 121.209212 
L 113.764138 123.217756 
L 114.433738 126.281097 
L 115.438138 132.54986 
L 116.777338 143.015904 
L 119.120938 161.873022 
L 120.125338 168.210578 
L 120.794938 171.440534 
L 121.464538 173.774004 
L 122.134138 175.182508 
L 122.468937 175.544523 
L 122.803737 175.686529 
L 123.138537 175.617789 
L 123.473337 175.349751 
L 124.142938 174.270594 
L 124.812538 172.572001 
L 125.816938 169.162436 
L 127.490938 162.304676 
L 129.499738 154.175163 
L 130.838938 149.564187 
L 132.178137 145.752078 
L 133.517337 142.683596 
L 134.856538 140.274092 
L 135.860938 138.878048 
L 136.865338 137.854668 
L 137.534938 137.403635 
L 138.204538 137.162663 
L 138.874138 137.158649 
L 139.543738 137.422317 
L 140.213338 137.987093 
L 140.882938 138.887685 
L 141.552538 140.158287 
L 142.222138 141.830349 
L 143.226538 145.146014 
L 144.230938 149.47114 
L 145.235338 154.789428 
L 146.574538 163.233051 
L 148.918138 180.036513 
L 150.592138 191.271193 
L 151.596538 196.652362 
L 152.266138 199.392297 
L 152.935738 201.324889 
L 153.605338 202.368384 
L 153.940137 202.539904 
L 154.274938 202.473445 
L 154.609737 202.168624 
L 154.944538 201.627525 
L 155.614137 199.857274 
L 156.283738 197.228669 
L 157.288138 191.91057 
L 158.627338 183.027224 
L 161.305738 164.394303 
L 162.310137 158.793042 
L 163.314538 154.534145 
L 163.984138 152.517705 
L 164.653738 151.164235 
L 165.323338 150.444362 
L 165.658138 150.30623 
L 165.992938 150.305206 
L 166.662538 150.677466 
L 167.332138 151.483192 
L 168.001738 152.643616 
L 169.006138 154.894315 
L 170.345337 158.577634 
L 171.684538 162.882826 
L 173.023737 167.895189 
L 174.362937 173.844691 
L 175.702137 180.887915 
L 177.710938 193.081345 
L 179.719738 205.033569 
L 180.724137 209.710247 
L 181.393737 211.983455 
L 182.063337 213.417245 
L 182.398138 213.783371 
L 182.732937 213.900606 
L 183.067738 213.760663 
L 183.402537 213.357879 
L 183.737338 212.689355 
L 184.406938 210.557886 
L 185.076538 207.40116 
L 186.080938 200.933264 
L 187.085338 192.802628 
L 191.437738 155.039505 
L 192.107338 151.210447 
L 192.776937 148.364691 
L 193.446537 146.580958 
L 193.781338 146.100606 
L 194.116137 145.896513 
L 194.450938 145.967003 
L 194.785737 146.308037 
L 195.120538 146.913353 
L 195.790138 148.88173 
L 196.459738 151.784672 
L 197.464137 157.646764 
L 198.468538 164.936878 
L 200.142538 179.082698 
L 204.829738 220.154932 
L 206.168938 229.868099 
L 207.173338 235.857536 
L 208.177738 240.349666 
L 208.847338 242.334125 
L 209.516938 243.396358 
L 209.851738 243.556364 
L 210.186538 243.458534 
L 210.521338 243.097367 
L 210.856138 242.469459 
L 211.525738 240.411157 
L 212.195337 237.303071 
L 212.864937 233.203245 
L 213.869338 225.40957 
L 215.208537 212.668784 
L 220.900138 154.409004 
L 222.574138 141.043215 
L 223.913338 132.135876 
L 224.917737 126.66506 
L 225.922138 122.418897 
L 226.591738 120.358589 
L 227.261338 118.966758 
L 227.930938 118.268804 
L 228.265738 118.181366 
L 228.600538 118.265469 
L 228.935338 118.516625 
L 229.604938 119.49254 
L 230.274538 121.035722 
L 231.278938 124.191418 
L 232.952938 130.668992 
L 234.961738 138.259673 
L 236.300938 142.431688 
L 240.318538 153.965864 
L 241.322938 157.98597 
L 242.662138 164.504696 
L 244.336138 174.126393 
L 248.018937 195.935463 
L 249.692937 204.399036 
L 251.366938 211.866602 
L 253.040937 218.42109 
L 254.045338 221.72774 
L 255.049737 224.264349 
L 255.719337 225.355476 
L 256.054138 225.678079 
L 256.388937 225.832779 
L 256.723738 225.805673 
L 257.058537 225.583684 
L 257.393338 225.15489 
L 258.062938 223.636754 
L 258.732538 221.189943 
L 259.402137 217.788315 
L 260.406538 210.9377 
L 261.410937 202.203231 
L 262.750137 188.370476 
L 266.432938 148.655275 
L 267.437338 140.23419 
L 268.441738 133.706662 
L 269.111337 130.528892 
L 269.780937 128.33464 
L 270.450537 127.131256 
L 270.785338 126.896287 
L 271.120137 126.900082 
L 271.454938 127.136493 
L 271.789738 127.59795 
L 272.459338 129.159082 
L 273.128938 131.497549 
L 274.133338 136.234063 
L 275.472538 144.215865 
L 280.829338 178.587805 
L 282.503338 187.044004 
L 284.177338 194.284397 
L 285.516538 199.209064 
L 286.520938 202.301878 
L 287.525338 204.758546 
L 288.194937 205.98167 
L 288.864537 206.833367 
L 289.534137 207.286891 
L 290.203737 207.325374 
L 290.873337 206.944223 
L 291.542937 206.152778 
L 292.212537 204.975175 
L 293.216938 202.573846 
L 294.556137 198.496264 
L 297.904137 187.632578 
L 299.243337 184.326701 
L 300.582538 181.73828 
L 302.256538 178.647265 
L 303.260938 176.157276 
L 303.930538 173.946006 
L 304.600138 171.142473 
L 305.269738 167.639464 
L 306.274137 160.914263 
L 307.278538 152.348238 
L 308.617737 138.275654 
L 310.291738 117.620725 
L 313.304937 79.572075 
L 314.644137 65.598897 
L 315.648538 57.251943 
L 316.652938 51.067789 
L 317.322538 48.246989 
L 317.992138 46.512336 
L 318.326937 46.059122 
L 318.661738 45.883636 
L 318.996537 45.985893 
L 319.331338 46.364917 
L 319.666137 47.018725 
L 320.335737 49.137571 
L 321.005337 52.305394 
L 321.674937 56.467244 
L 322.679338 64.40805 
L 323.683738 74.091604 
L 325.357738 92.983838 
L 330.379738 152.399507 
L 332.388537 172.36989 
L 334.062537 186.966883 
L 335.401737 197.141598 
L 336.740937 205.567104 
L 337.745338 210.426727 
L 338.414938 212.860646 
L 339.084538 214.604597 
L 339.754138 215.644723 
L 340.088937 215.903364 
L 340.423738 215.992188 
L 340.758537 215.916364 
L 341.093338 215.682349 
L 341.762938 214.770874 
L 342.432538 213.327351 
L 343.436937 210.329237 
L 344.441337 206.539683 
L 345.780537 200.537578 
L 347.119737 193.563805 
L 348.458937 185.506915 
L 349.798137 176.182482 
L 351.472138 162.747112 
L 355.489737 128.751672 
L 356.494138 122.185079 
L 357.498537 117.233764 
L 358.168138 114.959328 
L 358.837738 113.550002 
L 359.172538 113.170819 
L 359.507338 113.004919 
L 359.842138 113.046962 
L 360.176938 113.289689 
L 360.846538 114.339439 
L 361.516138 116.06373 
L 362.520537 119.671441 
L 363.859737 125.73771 
L 367.207738 141.624462 
L 368.546938 146.768088 
L 369.886138 150.993974 
L 371.225338 154.469176 
L 372.899338 158.095591 
L 374.238538 160.558337 
L 375.242937 162.084712 
L 376.247338 163.185771 
L 376.916938 163.587987 
L 377.586537 163.650171 
L 378.256137 163.31042 
L 378.925737 162.515635 
L 379.595337 161.227521 
L 380.264937 159.427484 
L 381.269338 155.783618 
L 382.273737 151.117897 
L 383.612937 143.699267 
L 386.626138 125.432073 
L 386.626138 125.432073 
" clip-path="url(#p205e503c58)" style="fill: none; stroke: #1f77b4; stroke-width: 1.5; stroke-linecap: square"/>
   </g>
   <g id="patch_3">
    <path d="M 52.160938 253.44 
L 52.160938 36 
" style="fill: none; stroke: #000000; stroke-width: 0.8; stroke-linejoin: miter; stroke-linecap: square"/>
   </g>
   <g id="patch_4">
    <path d="M 386.960938 253.44 
L 386.960938 36 
" style="fill: none; stroke: #000000; stroke-width: 0.8; stroke-linejoin: miter; stroke-linecap: square"/>
   </g>
   <g id="patch_5">
    <path d="M 52.160938 253.44 
L 386.960938 253.44 
" style="fill: none; stroke: #000000; stroke-width: 0.8; stroke-linejoin: miter; stroke-linecap: square"/>
   </g>
   <g id="patch_6">
    <path d="M 52.160938 36 
L 386.960938 36 
" style="fill: none; stroke: #000000; stroke-width: 0.8; stroke-linejoin: miter; stroke-linecap: square"/>
   </g>
  </g>
  <g id="text_15">
   <!-- $x(t)$ signal with 10 Hz bandwidth -->
   <g transform="translate(116.600938 16.32) scale(0.12 -0.12)">
    <defs>
     <path id="DejaVuSans-69" d="M 603 3500 
L 1178 3500 
L 1178 0 
L 603 0 
L 603 3500 
z
M 603 4863 
L 1178 4863 
L 1178 4134 
L 603 4134 
L 603 4863 
z
" transform="scale(0.015625)"/>
     <path id="DejaVuSans-67" d="M 2906 1791 
Q 2906 2416 2648 2759 
Q 2391 3103 1925 3103 
Q 1463 3103 1205 2759 
Q 947 2416 947 1791 
Q 947 1169 1205 825 
Q 1463 481 1925 481 
Q 2391 481 2648 825 
Q 2906 1169 2906 1791 
z
M 3481 434 
Q 3481 -459 3084 -895 
Q 2688 -1331 1869 -1331 
Q 1566 -1331 1297 -1286 
Q 1028 -1241 775 -1147 
L 775 -588 
Q 1028 -725 1275 -790 
Q 1522 -856 1778 -856 
Q 2344 -856 2625 -561 
Q 2906 -266 2906 331 
L 2906 616 
Q 2728 306 2450 153 
Q 2172 0 1784 0 
Q 1141 0 747 490 
Q 353 981 353 1791 
Q 353 2603 747 3093 
Q 1141 3584 1784 3584 
Q 2172 3584 2450 3431 
Q 2728 3278 2906 2969 
L 2906 3500 
L 3481 3500 
L 3481 434 
z
" transform="scale(0.015625)"/>
     <path id="DejaVuSans-6e" d="M 3513 2113 
L 3513 0 
L 2938 0 
L 2938 2094 
Q 2938 2591 2744 2837 
Q 2550 3084 2163 3084 
Q 1697 3084 1428 2787 
Q 1159 2491 1159 1978 
L 1159 0 
L 581 0 
L 581 3500 
L 1159 3500 
L 1159 2956 
Q 1366 3272 1645 3428 
Q 1925 3584 2291 3584 
Q 2894 3584 3203 3211 
Q 3513 2838 3513 2113 
z
" transform="scale(0.015625)"/>
     <path id="DejaVuSans-61" d="M 2194 1759 
Q 1497 1759 1228 1600 
Q 959 1441 959 1056 
Q 959 750 1161 570 
Q 1363 391 1709 391 
Q 2188 391 2477 730 
Q 2766 1069 2766 1631 
L 2766 1759 
L 2194 1759 
z
M 3341 1997 
L 3341 0 
L 2766 0 
L 2766 531 
Q 2569 213 2275 61 
Q 1981 -91 1556 -91 
Q 1019 -91 701 211 
Q 384 513 384 1019 
Q 384 1609 779 1909 
Q 1175 2209 1959 2209 
L 2766 2209 
L 2766 2266 
Q 2766 2663 2505 2880 
Q 2244 3097 1772 3097 
Q 1472 3097 1187 3025 
Q 903 2953 641 2809 
L 641 3341 
Q 956 3463 1253 3523 
Q 1550 3584 1831 3584 
Q 2591 3584 2966 3190 
Q 3341 2797 3341 1997 
z
" transform="scale(0.015625)"/>
     <path id="DejaVuSans-6c" d="M 603 4863 
L 1178 4863 
L 1178 0 
L 603 0 
L 603 4863 
z
" transform="scale(0.015625)"/>
     <path id="DejaVuSans-77" d="M 269 3500 
L 844 3500 
L 1563 769 
L 2278 3500 
L 2956 3500 
L 3675 769 
L 4391 3500 
L 4966 3500 
L 4050 0 
L 3372 0 
L 2619 2869 
L 1863 0 
L 1184 0 
L 269 3500 
z
" transform="scale(0.015625)"/>
     <path id="DejaVuSans-74" d="M 1172 4494 
L 1172 3500 
L 2356 3500 
L 2356 3053 
L 1172 3053 
L 1172 1153 
Q 1172 725 1289 603 
Q 1406 481 1766 481 
L 2356 481 
L 2356 0 
L 1766 0 
Q 1100 0 847 248 
Q 594 497 594 1153 
L 594 3053 
L 172 3053 
L 172 3500 
L 594 3500 
L 594 4494 
L 1172 4494 
z
" transform="scale(0.015625)"/>
     <path id="DejaVuSans-68" d="M 3513 2113 
L 3513 0 
L 2938 0 
L 2938 2094 
Q 2938 2591 2744 2837 
Q 2550 3084 2163 3084 
Q 1697 3084 1428 2787 
Q 1159 2491 1159 1978 
L 1159 0 
L 581 0 
L 581 4863 
L 1159 4863 
L 1159 2956 
Q 1366 3272 1645 3428 
Q 1925 3584 2291 3584 
Q 2894 3584 3203 3211 
Q 3513 2838 3513 2113 
z
" transform="scale(0.015625)"/>
     <path id="DejaVuSans-48" d="M 628 4666 
L 1259 4666 
L 1259 2753 
L 3553 2753 
L 3553 4666 
L 4184 4666 
L 4184 0 
L 3553 0 
L 3553 2222 
L 1259 2222 
L 1259 0 
L 628 0 
L 628 4666 
z
" transform="scale(0.015625)"/>
     <path id="DejaVuSans-7a" d="M 353 3500 
L 3084 3500 
L 3084 2975 
L 922 459 
L 3084 459 
L 3084 0 
L 275 0 
L 275 525 
L 2438 3041 
L 353 3041 
L 353 3500 
z
" transform="scale(0.015625)"/>
     <path id="DejaVuSans-62" d="M 3116 1747 
Q 3116 2381 2855 2742 
Q 2594 3103 2138 3103 
Q 1681 3103 1420 2742 
Q 1159 2381 1159 1747 
Q 1159 1113 1420 752 
Q 1681 391 2138 391 
Q 2594 391 2855 752 
Q 3116 1113 3116 1747 
z
M 1159 2969 
Q 1341 3281 1617 3432 
Q 1894 3584 2278 3584 
Q 2916 3584 3314 3078 
Q 3713 2572 3713 1747 
Q 3713 922 3314 415 
Q 2916 -91 2278 -91 
Q 1894 -91 1617 61 
Q 1341 213 1159 525 
L 1159 0 
L 581 0 
L 581 4863 
L 1159 4863 
L 1159 2969 
z
" transform="scale(0.015625)"/>
     <path id="DejaVuSans-64" d="M 2906 2969 
L 2906 4863 
L 3481 4863 
L 3481 0 
L 2906 0 
L 2906 525 
Q 2725 213 2448 61 
Q 2172 -91 1784 -91 
Q 1150 -91 751 415 
Q 353 922 353 1747 
Q 353 2572 751 3078 
Q 1150 3584 1784 3584 
Q 2172 3584 2448 3432 
Q 2725 3281 2906 2969 
z
M 947 1747 
Q 947 1113 1208 752 
Q 1469 391 1925 391 
Q 2381 391 2643 752 
Q 2906 1113 2906 1747 
Q 2906 2381 2643 2742 
Q 2381 3103 1925 3103 
Q 1469 3103 1208 2742 
Q 947 2381 947 1747 
z
" transform="scale(0.015625)"/>
    </defs>
    <use xlink:href="#DejaVuSans-Oblique-78" transform="translate(0 0.015625)"/>
    <use xlink:href="#DejaVuSans-28" transform="translate(59.179688 0.015625)"/>
    <use xlink:href="#DejaVuSans-Oblique-74" transform="translate(98.193359 0.015625)"/>
    <use xlink:href="#DejaVuSans-29" transform="translate(137.402344 0.015625)"/>
    <use xlink:href="#DejaVuSans-20" transform="translate(176.416016 0.015625)"/>
    <use xlink:href="#DejaVuSans-73" transform="translate(208.203125 0.015625)"/>
    <use xlink:href="#DejaVuSans-69" transform="translate(260.302734 0.015625)"/>
    <use xlink:href="#DejaVuSans-67" transform="translate(288.085938 0.015625)"/>
    <use xlink:href="#DejaVuSans-6e" transform="translate(351.5625 0.015625)"/>
    <use xlink:href="#DejaVuSans-61" transform="translate(414.941406 0.015625)"/>
    <use xlink:href="#DejaVuSans-6c" transform="translate(476.220703 0.015625)"/>
    <use xlink:href="#DejaVuSans-20" transform="translate(504.003906 0.015625)"/>
    <use xlink:href="#DejaVuSans-77" transform="translate(535.791016 0.015625)"/>
    <use xlink:href="#DejaVuSans-69" transform="translate(617.578125 0.015625)"/>
    <use xlink:href="#DejaVuSans-74" transform="translate(645.361328 0.015625)"/>
    <use xlink:href="#DejaVuSans-68" transform="translate(684.570312 0.015625)"/>
    <use xlink:href="#DejaVuSans-20" transform="translate(747.949219 0.015625)"/>
    <use xlink:href="#DejaVuSans-31" transform="translate(779.736328 0.015625)"/>
    <use xlink:href="#DejaVuSans-30" transform="translate(843.359375 0.015625)"/>
    <use xlink:href="#DejaVuSans-20" transform="translate(906.982422 0.015625)"/>
    <use xlink:href="#DejaVuSans-48" transform="translate(938.769531 0.015625)"/>
    <use xlink:href="#DejaVuSans-7a" transform="translate(1013.964844 0.015625)"/>
    <use xlink:href="#DejaVuSans-20" transform="translate(1066.455078 0.015625)"/>
    <use xlink:href="#DejaVuSans-62" transform="translate(1098.242188 0.015625)"/>
    <use xlink:href="#DejaVuSans-61" transform="translate(1161.71875 0.015625)"/>
    <use xlink:href="#DejaVuSans-6e" transform="translate(1222.998047 0.015625)"/>
    <use xlink:href="#DejaVuSans-64" transform="translate(1286.376953 0.015625)"/>
    <use xlink:href="#DejaVuSans-77" transform="translate(1349.853516 0.015625)"/>
    <use xlink:href="#DejaVuSans-69" transform="translate(1431.640625 0.015625)"/>
    <use xlink:href="#DejaVuSans-64" transform="translate(1459.423828 0.015625)"/>
    <use xlink:href="#DejaVuSans-74" transform="translate(1522.900391 0.015625)"/>
    <use xlink:href="#DejaVuSans-68" transform="translate(1562.109375 0.015625)"/>
   </g>
  </g>
 </g>
 <defs>
  <clipPath id="p205e503c58">
   <rect x="52.160938" y="36" width="334.8" height="217.44"/>
  </clipPath>
 </defs>
</svg>
