<?xml version="1.0" encoding="utf-8" standalone="no"?>
<!DOCTYPE svg PUBLIC "-//W3C//DTD SVG 1.1//EN"
  "http://www.w3.org/Graphics/SVG/1.1/DTD/svg11.dtd">
<svg xmlns:xlink="http://www.w3.org/1999/xlink" width="421.32pt" height="290.99625pt" viewBox="0 0 421.32 290.99625" xmlns="http://www.w3.org/2000/svg" version="1.1">
 <metadata>
  <rdf:RDF xmlns:dc="http://purl.org/dc/elements/1.1/" xmlns:cc="http://creativecommons.org/ns#" xmlns:rdf="http://www.w3.org/1999/02/22-rdf-syntax-ns#">
   <cc:Work>
    <dc:type rdf:resource="http://purl.org/dc/dcmitype/StillImage"/>
    <dc:date>2022-10-16T13:57:10.024486</dc:date>
    <dc:format>image/svg+xml</dc:format>
    <dc:creator>
     <cc:Agent>
      <dc:title>Matplotlib v3.6.0, https://matplotlib.org/</dc:title>
     </cc:Agent>
    </dc:creator>
   </cc:Work>
  </rdf:RDF>
 </metadata>
 <defs>
  <style type="text/css">*{stroke-linejoin: round; stroke-linecap: butt}</style>
 </defs>
 <g id="figure_1">
  <g id="patch_1">
   <path d="M 0 290.99625 
L 421.32 290.99625 
L 421.32 0 
L 0 0 
L 0 290.99625 
z
" style="fill: none"/>
  </g>
  <g id="axes_1">
   <g id="patch_2">
    <path d="M 48.66 253.44 
L 383.46 253.44 
L 383.46 36 
L 48.66 36 
z
" style="fill: #ffffff"/>
   </g>
   <g id="matplotlib.axis_1">
    <g id="xtick_1">
     <g id="line2d_1">
      <defs>
       <path id="mfbf343e327" d="M 0 0 
L 0 3.5 
" style="stroke: #000000; stroke-width: 0.8"/>
      </defs>
      <g>
       <use xlink:href="#mfbf343e327" x="48.66" y="253.44" style="stroke: #000000; stroke-width: 0.8"/>
      </g>
     </g>
     <g id="text_1">
      <!-- 0.0 -->
      <g transform="translate(40.708437 268.038437) scale(0.1 -0.1)">
       <defs>
        <path id="DejaVuSans-30" d="M 2034 4250 
Q 1547 4250 1301 3770 
Q 1056 3291 1056 2328 
Q 1056 1369 1301 889 
Q 1547 409 2034 409 
Q 2525 409 2770 889 
Q 3016 1369 3016 2328 
Q 3016 3291 2770 3770 
Q 2525 4250 2034 4250 
z
M 2034 4750 
Q 2819 4750 3233 4129 
Q 3647 3509 3647 2328 
Q 3647 1150 3233 529 
Q 2819 -91 2034 -91 
Q 1250 -91 836 529 
Q 422 1150 422 2328 
Q 422 3509 836 4129 
Q 1250 4750 2034 4750 
z
" transform="scale(0.015625)"/>
        <path id="DejaVuSans-2e" d="M 684 794 
L 1344 794 
L 1344 0 
L 684 0 
L 684 794 
z
" transform="scale(0.015625)"/>
       </defs>
       <use xlink:href="#DejaVuSans-30"/>
       <use xlink:href="#DejaVuSans-2e" x="63.623047"/>
       <use xlink:href="#DejaVuSans-30" x="95.410156"/>
      </g>
     </g>
    </g>
    <g id="xtick_2">
     <g id="line2d_2">
      <g>
       <use xlink:href="#mfbf343e327" x="115.62" y="253.44" style="stroke: #000000; stroke-width: 0.8"/>
      </g>
     </g>
     <g id="text_2">
      <!-- 0.2 -->
      <g transform="translate(107.668437 268.038437) scale(0.1 -0.1)">
       <defs>
        <path id="DejaVuSans-32" d="M 1228 531 
L 3431 531 
L 3431 0 
L 469 0 
L 469 531 
Q 828 903 1448 1529 
Q 2069 2156 2228 2338 
Q 2531 2678 2651 2914 
Q 2772 3150 2772 3378 
Q 2772 3750 2511 3984 
Q 2250 4219 1831 4219 
Q 1534 4219 1204 4116 
Q 875 4013 500 3803 
L 500 4441 
Q 881 4594 1212 4672 
Q 1544 4750 1819 4750 
Q 2544 4750 2975 4387 
Q 3406 4025 3406 3419 
Q 3406 3131 3298 2873 
Q 3191 2616 2906 2266 
Q 2828 2175 2409 1742 
Q 1991 1309 1228 531 
z
" transform="scale(0.015625)"/>
       </defs>
       <use xlink:href="#DejaVuSans-30"/>
       <use xlink:href="#DejaVuSans-2e" x="63.623047"/>
       <use xlink:href="#DejaVuSans-32" x="95.410156"/>
      </g>
     </g>
    </g>
    <g id="xtick_3">
     <g id="line2d_3">
      <g>
       <use xlink:href="#mfbf343e327" x="182.58" y="253.44" style="stroke: #000000; stroke-width: 0.8"/>
      </g>
     </g>
     <g id="text_3">
      <!-- 0.4 -->
      <g transform="translate(174.628437 268.038437) scale(0.1 -0.1)">
       <defs>
        <path id="DejaVuSans-34" d="M 2419 4116 
L 825 1625 
L 2419 1625 
L 2419 4116 
z
M 2253 4666 
L 3047 4666 
L 3047 1625 
L 3713 1625 
L 3713 1100 
L 3047 1100 
L 3047 0 
L 2419 0 
L 2419 1100 
L 313 1100 
L 313 1709 
L 2253 4666 
z
" transform="scale(0.015625)"/>
       </defs>
       <use xlink:href="#DejaVuSans-30"/>
       <use xlink:href="#DejaVuSans-2e" x="63.623047"/>
       <use xlink:href="#DejaVuSans-34" x="95.410156"/>
      </g>
     </g>
    </g>
    <g id="xtick_4">
     <g id="line2d_4">
      <g>
       <use xlink:href="#mfbf343e327" x="249.54" y="253.44" style="stroke: #000000; stroke-width: 0.8"/>
      </g>
     </g>
     <g id="text_4">
      <!-- 0.6 -->
      <g transform="translate(241.588438 268.038437) scale(0.1 -0.1)">
       <defs>
        <path id="DejaVuSans-36" d="M 2113 2584 
Q 1688 2584 1439 2293 
Q 1191 2003 1191 1497 
Q 1191 994 1439 701 
Q 1688 409 2113 409 
Q 2538 409 2786 701 
Q 3034 994 3034 1497 
Q 3034 2003 2786 2293 
Q 2538 2584 2113 2584 
z
M 3366 4563 
L 3366 3988 
Q 3128 4100 2886 4159 
Q 2644 4219 2406 4219 
Q 1781 4219 1451 3797 
Q 1122 3375 1075 2522 
Q 1259 2794 1537 2939 
Q 1816 3084 2150 3084 
Q 2853 3084 3261 2657 
Q 3669 2231 3669 1497 
Q 3669 778 3244 343 
Q 2819 -91 2113 -91 
Q 1303 -91 875 529 
Q 447 1150 447 2328 
Q 447 3434 972 4092 
Q 1497 4750 2381 4750 
Q 2619 4750 2861 4703 
Q 3103 4656 3366 4563 
z
" transform="scale(0.015625)"/>
       </defs>
       <use xlink:href="#DejaVuSans-30"/>
       <use xlink:href="#DejaVuSans-2e" x="63.623047"/>
       <use xlink:href="#DejaVuSans-36" x="95.410156"/>
      </g>
     </g>
    </g>
    <g id="xtick_5">
     <g id="line2d_5">
      <g>
       <use xlink:href="#mfbf343e327" x="316.5" y="253.44" style="stroke: #000000; stroke-width: 0.8"/>
      </g>
     </g>
     <g id="text_5">
      <!-- 0.8 -->
      <g transform="translate(308.548437 268.038437) scale(0.1 -0.1)">
       <defs>
        <path id="DejaVuSans-38" d="M 2034 2216 
Q 1584 2216 1326 1975 
Q 1069 1734 1069 1313 
Q 1069 891 1326 650 
Q 1584 409 2034 409 
Q 2484 409 2743 651 
Q 3003 894 3003 1313 
Q 3003 1734 2745 1975 
Q 2488 2216 2034 2216 
z
M 1403 2484 
Q 997 2584 770 2862 
Q 544 3141 544 3541 
Q 544 4100 942 4425 
Q 1341 4750 2034 4750 
Q 2731 4750 3128 4425 
Q 3525 4100 3525 3541 
Q 3525 3141 3298 2862 
Q 3072 2584 2669 2484 
Q 3125 2378 3379 2068 
Q 3634 1759 3634 1313 
Q 3634 634 3220 271 
Q 2806 -91 2034 -91 
Q 1263 -91 848 271 
Q 434 634 434 1313 
Q 434 1759 690 2068 
Q 947 2378 1403 2484 
z
M 1172 3481 
Q 1172 3119 1398 2916 
Q 1625 2713 2034 2713 
Q 2441 2713 2670 2916 
Q 2900 3119 2900 3481 
Q 2900 3844 2670 4047 
Q 2441 4250 2034 4250 
Q 1625 4250 1398 4047 
Q 1172 3844 1172 3481 
z
" transform="scale(0.015625)"/>
       </defs>
       <use xlink:href="#DejaVuSans-30"/>
       <use xlink:href="#DejaVuSans-2e" x="63.623047"/>
       <use xlink:href="#DejaVuSans-38" x="95.410156"/>
      </g>
     </g>
    </g>
    <g id="xtick_6">
     <g id="line2d_6">
      <g>
       <use xlink:href="#mfbf343e327" x="383.46" y="253.44" style="stroke: #000000; stroke-width: 0.8"/>
      </g>
     </g>
     <g id="text_6">
      <!-- 1.0 -->
      <g transform="translate(375.508437 268.038437) scale(0.1 -0.1)">
       <defs>
        <path id="DejaVuSans-31" d="M 794 531 
L 1825 531 
L 1825 4091 
L 703 3866 
L 703 4441 
L 1819 4666 
L 2450 4666 
L 2450 531 
L 3481 531 
L 3481 0 
L 794 0 
L 794 531 
z
" transform="scale(0.015625)"/>
       </defs>
       <use xlink:href="#DejaVuSans-31"/>
       <use xlink:href="#DejaVuSans-2e" x="63.623047"/>
       <use xlink:href="#DejaVuSans-30" x="95.410156"/>
      </g>
     </g>
    </g>
    <g id="text_7">
     <!-- $t$ sec. -->
     <g transform="translate(202.46 281.716562) scale(0.1 -0.1)">
      <defs>
       <path id="DejaVuSans-Oblique-74" d="M 2706 3500 
L 2619 3053 
L 1472 3053 
L 1100 1153 
Q 1081 1047 1072 975 
Q 1063 903 1063 863 
Q 1063 663 1183 572 
Q 1303 481 1569 481 
L 2150 481 
L 2053 0 
L 1503 0 
Q 991 0 739 200 
Q 488 400 488 806 
Q 488 878 497 964 
Q 506 1050 525 1153 
L 897 3053 
L 409 3053 
L 500 3500 
L 978 3500 
L 1172 4494 
L 1747 4494 
L 1556 3500 
L 2706 3500 
z
" transform="scale(0.015625)"/>
       <path id="DejaVuSans-20" transform="scale(0.015625)"/>
       <path id="DejaVuSans-73" d="M 2834 3397 
L 2834 2853 
Q 2591 2978 2328 3040 
Q 2066 3103 1784 3103 
Q 1356 3103 1142 2972 
Q 928 2841 928 2578 
Q 928 2378 1081 2264 
Q 1234 2150 1697 2047 
L 1894 2003 
Q 2506 1872 2764 1633 
Q 3022 1394 3022 966 
Q 3022 478 2636 193 
Q 2250 -91 1575 -91 
Q 1294 -91 989 -36 
Q 684 19 347 128 
L 347 722 
Q 666 556 975 473 
Q 1284 391 1588 391 
Q 1994 391 2212 530 
Q 2431 669 2431 922 
Q 2431 1156 2273 1281 
Q 2116 1406 1581 1522 
L 1381 1569 
Q 847 1681 609 1914 
Q 372 2147 372 2553 
Q 372 3047 722 3315 
Q 1072 3584 1716 3584 
Q 2034 3584 2315 3537 
Q 2597 3491 2834 3397 
z
" transform="scale(0.015625)"/>
       <path id="DejaVuSans-65" d="M 3597 1894 
L 3597 1613 
L 953 1613 
Q 991 1019 1311 708 
Q 1631 397 2203 397 
Q 2534 397 2845 478 
Q 3156 559 3463 722 
L 3463 178 
Q 3153 47 2828 -22 
Q 2503 -91 2169 -91 
Q 1331 -91 842 396 
Q 353 884 353 1716 
Q 353 2575 817 3079 
Q 1281 3584 2069 3584 
Q 2775 3584 3186 3129 
Q 3597 2675 3597 1894 
z
M 3022 2063 
Q 3016 2534 2758 2815 
Q 2500 3097 2075 3097 
Q 1594 3097 1305 2825 
Q 1016 2553 972 2059 
L 3022 2063 
z
" transform="scale(0.015625)"/>
       <path id="DejaVuSans-63" d="M 3122 3366 
L 3122 2828 
Q 2878 2963 2633 3030 
Q 2388 3097 2138 3097 
Q 1578 3097 1268 2742 
Q 959 2388 959 1747 
Q 959 1106 1268 751 
Q 1578 397 2138 397 
Q 2388 397 2633 464 
Q 2878 531 3122 666 
L 3122 134 
Q 2881 22 2623 -34 
Q 2366 -91 2075 -91 
Q 1284 -91 818 406 
Q 353 903 353 1747 
Q 353 2603 823 3093 
Q 1294 3584 2113 3584 
Q 2378 3584 2631 3529 
Q 2884 3475 3122 3366 
z
" transform="scale(0.015625)"/>
      </defs>
      <use xlink:href="#DejaVuSans-Oblique-74" transform="translate(0 0.78125)"/>
      <use xlink:href="#DejaVuSans-20" transform="translate(39.208984 0.78125)"/>
      <use xlink:href="#DejaVuSans-73" transform="translate(70.996094 0.78125)"/>
      <use xlink:href="#DejaVuSans-65" transform="translate(123.095703 0.78125)"/>
      <use xlink:href="#DejaVuSans-63" transform="translate(184.619141 0.78125)"/>
      <use xlink:href="#DejaVuSans-2e" transform="translate(239.599609 0.78125)"/>
     </g>
    </g>
   </g>
   <g id="matplotlib.axis_2">
    <g id="ytick_1">
     <g id="line2d_7">
      <defs>
       <path id="m9de8dfd803" d="M 0 0 
L -3.5 0 
" style="stroke: #000000; stroke-width: 0.8"/>
      </defs>
      <g>
       <use xlink:href="#m9de8dfd803" x="48.66" y="243.556364" style="stroke: #000000; stroke-width: 0.8"/>
      </g>
     </g>
     <g id="text_8">
      <!-- 0.0 -->
      <g transform="translate(25.756875 247.355582) scale(0.1 -0.1)">
       <use xlink:href="#DejaVuSans-30"/>
       <use xlink:href="#DejaVuSans-2e" x="63.623047"/>
       <use xlink:href="#DejaVuSans-30" x="95.410156"/>
      </g>
     </g>
    </g>
    <g id="ytick_2">
     <g id="line2d_8">
      <g>
       <use xlink:href="#m9de8dfd803" x="48.66" y="211.928727" style="stroke: #000000; stroke-width: 0.8"/>
      </g>
     </g>
     <g id="text_9">
      <!-- 0.2 -->
      <g transform="translate(25.756875 215.727946) scale(0.1 -0.1)">
       <use xlink:href="#DejaVuSans-30"/>
       <use xlink:href="#DejaVuSans-2e" x="63.623047"/>
       <use xlink:href="#DejaVuSans-32" x="95.410156"/>
      </g>
     </g>
    </g>
    <g id="ytick_3">
     <g id="line2d_9">
      <g>
       <use xlink:href="#m9de8dfd803" x="48.66" y="180.301091" style="stroke: #000000; stroke-width: 0.8"/>
      </g>
     </g>
     <g id="text_10">
      <!-- 0.4 -->
      <g transform="translate(25.756875 184.10031) scale(0.1 -0.1)">
       <use xlink:href="#DejaVuSans-30"/>
       <use xlink:href="#DejaVuSans-2e" x="63.623047"/>
       <use xlink:href="#DejaVuSans-34" x="95.410156"/>
      </g>
     </g>
    </g>
    <g id="ytick_4">
     <g id="line2d_10">
      <g>
       <use xlink:href="#m9de8dfd803" x="48.66" y="148.673455" style="stroke: #000000; stroke-width: 0.8"/>
      </g>
     </g>
     <g id="text_11">
      <!-- 0.6 -->
      <g transform="translate(25.756875 152.472673) scale(0.1 -0.1)">
       <use xlink:href="#DejaVuSans-30"/>
       <use xlink:href="#DejaVuSans-2e" x="63.623047"/>
       <use xlink:href="#DejaVuSans-36" x="95.410156"/>
      </g>
     </g>
    </g>
    <g id="ytick_5">
     <g id="line2d_11">
      <g>
       <use xlink:href="#m9de8dfd803" x="48.66" y="117.045818" style="stroke: #000000; stroke-width: 0.8"/>
      </g>
     </g>
     <g id="text_12">
      <!-- 0.8 -->
      <g transform="translate(25.756875 120.845037) scale(0.1 -0.1)">
       <use xlink:href="#DejaVuSans-30"/>
       <use xlink:href="#DejaVuSans-2e" x="63.623047"/>
       <use xlink:href="#DejaVuSans-38" x="95.410156"/>
      </g>
     </g>
    </g>
    <g id="ytick_6">
     <g id="line2d_12">
      <g>
       <use xlink:href="#m9de8dfd803" x="48.66" y="85.418182" style="stroke: #000000; stroke-width: 0.8"/>
      </g>
     </g>
     <g id="text_13">
      <!-- 1.0 -->
      <g transform="translate(25.756875 89.217401) scale(0.1 -0.1)">
       <use xlink:href="#DejaVuSans-31"/>
       <use xlink:href="#DejaVuSans-2e" x="63.623047"/>
       <use xlink:href="#DejaVuSans-30" x="95.410156"/>
      </g>
     </g>
    </g>
    <g id="ytick_7">
     <g id="line2d_13">
      <g>
       <use xlink:href="#m9de8dfd803" x="48.66" y="53.790545" style="stroke: #000000; stroke-width: 0.8"/>
      </g>
     </g>
     <g id="text_14">
      <!-- 1.2 -->
      <g transform="translate(25.756875 57.589764) scale(0.1 -0.1)">
       <use xlink:href="#DejaVuSans-31"/>
       <use xlink:href="#DejaVuSans-2e" x="63.623047"/>
       <use xlink:href="#DejaVuSans-32" x="95.410156"/>
      </g>
     </g>
    </g>
    <g id="text_15">
     <!-- Voltage -->
     <g transform="translate(19.677187 163.47625) rotate(-90) scale(0.1 -0.1)">
      <defs>
       <path id="DejaVuSans-56" d="M 1831 0 
L 50 4666 
L 709 4666 
L 2188 738 
L 3669 4666 
L 4325 4666 
L 2547 0 
L 1831 0 
z
" transform="scale(0.015625)"/>
       <path id="DejaVuSans-6f" d="M 1959 3097 
Q 1497 3097 1228 2736 
Q 959 2375 959 1747 
Q 959 1119 1226 758 
Q 1494 397 1959 397 
Q 2419 397 2687 759 
Q 2956 1122 2956 1747 
Q 2956 2369 2687 2733 
Q 2419 3097 1959 3097 
z
M 1959 3584 
Q 2709 3584 3137 3096 
Q 3566 2609 3566 1747 
Q 3566 888 3137 398 
Q 2709 -91 1959 -91 
Q 1206 -91 779 398 
Q 353 888 353 1747 
Q 353 2609 779 3096 
Q 1206 3584 1959 3584 
z
" transform="scale(0.015625)"/>
       <path id="DejaVuSans-6c" d="M 603 4863 
L 1178 4863 
L 1178 0 
L 603 0 
L 603 4863 
z
" transform="scale(0.015625)"/>
       <path id="DejaVuSans-74" d="M 1172 4494 
L 1172 3500 
L 2356 3500 
L 2356 3053 
L 1172 3053 
L 1172 1153 
Q 1172 725 1289 603 
Q 1406 481 1766 481 
L 2356 481 
L 2356 0 
L 1766 0 
Q 1100 0 847 248 
Q 594 497 594 1153 
L 594 3053 
L 172 3053 
L 172 3500 
L 594 3500 
L 594 4494 
L 1172 4494 
z
" transform="scale(0.015625)"/>
       <path id="DejaVuSans-61" d="M 2194 1759 
Q 1497 1759 1228 1600 
Q 959 1441 959 1056 
Q 959 750 1161 570 
Q 1363 391 1709 391 
Q 2188 391 2477 730 
Q 2766 1069 2766 1631 
L 2766 1759 
L 2194 1759 
z
M 3341 1997 
L 3341 0 
L 2766 0 
L 2766 531 
Q 2569 213 2275 61 
Q 1981 -91 1556 -91 
Q 1019 -91 701 211 
Q 384 513 384 1019 
Q 384 1609 779 1909 
Q 1175 2209 1959 2209 
L 2766 2209 
L 2766 2266 
Q 2766 2663 2505 2880 
Q 2244 3097 1772 3097 
Q 1472 3097 1187 3025 
Q 903 2953 641 2809 
L 641 3341 
Q 956 3463 1253 3523 
Q 1550 3584 1831 3584 
Q 2591 3584 2966 3190 
Q 3341 2797 3341 1997 
z
" transform="scale(0.015625)"/>
       <path id="DejaVuSans-67" d="M 2906 1791 
Q 2906 2416 2648 2759 
Q 2391 3103 1925 3103 
Q 1463 3103 1205 2759 
Q 947 2416 947 1791 
Q 947 1169 1205 825 
Q 1463 481 1925 481 
Q 2391 481 2648 825 
Q 2906 1169 2906 1791 
z
M 3481 434 
Q 3481 -459 3084 -895 
Q 2688 -1331 1869 -1331 
Q 1566 -1331 1297 -1286 
Q 1028 -1241 775 -1147 
L 775 -588 
Q 1028 -725 1275 -790 
Q 1522 -856 1778 -856 
Q 2344 -856 2625 -561 
Q 2906 -266 2906 331 
L 2906 616 
Q 2728 306 2450 153 
Q 2172 0 1784 0 
Q 1141 0 747 490 
Q 353 981 353 1791 
Q 353 2603 747 3093 
Q 1141 3584 1784 3584 
Q 2172 3584 2450 3431 
Q 2728 3278 2906 2969 
L 2906 3500 
L 3481 3500 
L 3481 434 
z
" transform="scale(0.015625)"/>
      </defs>
      <use xlink:href="#DejaVuSans-56"/>
      <use xlink:href="#DejaVuSans-6f" x="60.658203"/>
      <use xlink:href="#DejaVuSans-6c" x="121.839844"/>
      <use xlink:href="#DejaVuSans-74" x="149.623047"/>
      <use xlink:href="#DejaVuSans-61" x="188.832031"/>
      <use xlink:href="#DejaVuSans-67" x="250.111328"/>
      <use xlink:href="#DejaVuSans-65" x="313.587891"/>
     </g>
    </g>
   </g>
   <g id="line2d_14">
    <path d="M 48.66 232.241476 
L 49.9992 192.363497 
L 51.3384 159.882635 
L 52.6776 133.426769 
L 54.0168 111.878301 
L 55.356 94.326939 
L 56.0256 86.812777 
L 56.3604 45.883636 
L 56.6952 243.556364 
L 58.0344 201.579544 
L 59.3736 167.389162 
L 60.7128 139.540883 
L 62.052 116.858285 
L 63.3912 98.383167 
L 64.3956 86.812777 
L 64.7304 45.883636 
L 65.0652 243.556364 
L 66.4044 201.579544 
L 67.7436 167.389162 
L 69.0828 139.540883 
L 70.422 116.858285 
L 71.7612 98.383167 
L 72.7656 86.812777 
L 73.1004 45.883636 
L 73.4352 243.556364 
L 74.7744 201.579544 
L 76.1136 167.389162 
L 77.4528 139.540883 
L 78.792 116.858285 
L 80.1312 98.383167 
L 81.1356 86.812777 
L 81.4704 45.883636 
L 81.8052 243.556364 
L 83.1444 201.579544 
L 84.4836 167.389162 
L 85.8228 139.540883 
L 87.162 116.858285 
L 88.5012 98.383167 
L 89.5056 86.812777 
L 89.8404 45.883636 
L 90.1752 243.556364 
L 91.5144 201.579544 
L 92.8536 167.389162 
L 94.1928 139.540883 
L 95.532 116.858285 
L 96.8712 98.383167 
L 97.8756 86.812777 
L 98.2104 45.883636 
L 98.5452 243.556364 
L 99.8844 201.579544 
L 101.2236 167.389162 
L 102.5628 139.540883 
L 103.902 116.858285 
L 105.2412 98.383167 
L 106.2456 86.812777 
L 106.5804 45.883636 
L 106.9152 243.556364 
L 108.2544 201.579544 
L 109.5936 167.389162 
L 110.9328 139.540883 
L 112.272 116.858285 
L 113.6112 98.383167 
L 114.6156 86.812777 
L 114.9504 45.883636 
L 115.2852 243.556364 
L 116.6244 201.579544 
L 117.9636 167.389162 
L 119.3028 139.540883 
L 120.642 116.858285 
L 121.9812 98.383167 
L 122.9856 86.812777 
L 123.3204 45.883636 
L 123.6552 243.556364 
L 124.9944 201.579544 
L 126.3336 167.389162 
L 127.6728 139.540883 
L 129.012 116.858285 
L 130.3512 98.383167 
L 131.3556 86.812777 
L 131.6904 45.883636 
L 132.0252 243.556364 
L 133.3644 201.579544 
L 134.7036 167.389162 
L 136.0428 139.540883 
L 137.382 116.858285 
L 138.7212 98.383167 
L 139.7256 86.812777 
L 140.0604 45.883636 
L 140.3952 243.556364 
L 141.7344 201.579544 
L 143.0736 167.389162 
L 144.4128 139.540883 
L 145.752 116.858285 
L 147.0912 98.383167 
L 148.0956 86.812777 
L 148.4304 45.883636 
L 148.7652 243.556364 
L 150.1044 201.579544 
L 151.4436 167.389162 
L 152.7828 139.540883 
L 154.122 116.858285 
L 155.4612 98.383167 
L 156.4656 86.812777 
L 156.8004 45.883636 
L 157.1352 243.556364 
L 158.4744 201.579544 
L 159.8136 167.389162 
L 161.1528 139.540883 
L 162.492 116.858285 
L 163.8312 98.383167 
L 164.8356 86.812777 
L 165.1704 45.883636 
L 165.5052 243.556364 
L 166.8444 201.579544 
L 168.1836 167.389162 
L 169.5228 139.540883 
L 170.862 116.858285 
L 172.2012 98.383167 
L 173.2056 86.812777 
L 173.5404 45.883636 
L 173.8752 243.556364 
L 175.2144 201.579544 
L 176.5536 167.389162 
L 177.8928 139.540883 
L 179.232 116.858285 
L 180.5712 98.383167 
L 181.5756 86.812777 
L 181.9104 45.883636 
L 182.2452 243.556364 
L 183.5844 201.579544 
L 184.9236 167.389162 
L 186.2628 139.540883 
L 187.602 116.858285 
L 188.9412 98.383167 
L 189.9456 86.812777 
L 190.2804 45.883636 
L 190.6152 243.556364 
L 191.9544 201.579544 
L 193.2936 167.389162 
L 194.6328 139.540883 
L 195.972 116.858285 
L 197.3112 98.383167 
L 198.3156 86.812777 
L 198.6504 45.883636 
L 198.9852 243.556364 
L 200.3244 201.579544 
L 201.6636 167.389162 
L 203.0028 139.540883 
L 204.342 116.858285 
L 205.6812 98.383167 
L 206.6856 86.812777 
L 207.0204 45.883636 
L 207.3552 243.556364 
L 208.6944 201.579544 
L 210.0336 167.389162 
L 211.3728 139.540883 
L 212.712 116.858285 
L 214.0512 98.383167 
L 215.0556 86.812777 
L 215.3904 45.883636 
L 215.7252 243.556364 
L 217.0644 201.579544 
L 218.4036 167.389162 
L 219.7428 139.540883 
L 221.082 116.858285 
L 222.4212 98.383167 
L 223.4256 86.812777 
L 223.7604 45.883636 
L 224.0952 243.556364 
L 225.4344 201.579544 
L 226.7736 167.389162 
L 228.1128 139.540883 
L 229.452 116.858285 
L 230.7912 98.383167 
L 231.7956 86.812777 
L 232.1304 45.883636 
L 232.4652 243.556364 
L 233.8044 201.579544 
L 235.1436 167.389162 
L 236.4828 139.540883 
L 237.822 116.858285 
L 239.1612 98.383167 
L 240.1656 86.812777 
L 240.5004 45.883636 
L 240.8352 243.556364 
L 242.1744 201.579544 
L 243.5136 167.389162 
L 244.8528 139.540883 
L 246.192 116.858285 
L 247.5312 98.383167 
L 248.5356 86.812777 
L 248.8704 45.883636 
L 249.2052 243.556364 
L 250.5444 201.579544 
L 251.8836 167.389162 
L 253.2228 139.540883 
L 254.562 116.858285 
L 255.9012 98.383167 
L 256.9056 86.812777 
L 257.2404 45.883636 
L 257.5752 243.556364 
L 258.9144 201.579544 
L 260.2536 167.389162 
L 261.5928 139.540883 
L 262.932 116.858285 
L 264.2712 98.383167 
L 265.2756 86.812777 
L 265.6104 45.883636 
L 265.9452 243.556364 
L 267.2844 201.579544 
L 268.6236 167.389162 
L 269.9628 139.540883 
L 271.302 116.858285 
L 272.6412 98.383167 
L 273.6456 86.812777 
L 273.9804 45.883636 
L 274.3152 243.556364 
L 275.6544 201.579544 
L 276.9936 167.389162 
L 278.3328 139.540883 
L 279.672 116.858285 
L 281.0112 98.383167 
L 282.0156 86.812777 
L 282.3504 45.883636 
L 282.6852 243.556364 
L 284.0244 201.579544 
L 285.3636 167.389162 
L 286.7028 139.540883 
L 288.042 116.858285 
L 289.3812 98.383167 
L 290.3856 86.812777 
L 290.7204 45.883636 
L 291.0552 243.556364 
L 292.3944 201.579544 
L 293.7336 167.389162 
L 295.0728 139.540883 
L 296.412 116.858285 
L 297.7512 98.383167 
L 298.7556 86.812777 
L 299.0904 45.883636 
L 299.4252 243.556364 
L 300.7644 201.579544 
L 302.1036 167.389162 
L 303.4428 139.540883 
L 304.782 116.858285 
L 306.1212 98.383167 
L 307.1256 86.812777 
L 307.4604 45.883636 
L 307.7952 243.556364 
L 309.1344 201.579544 
L 310.4736 167.389162 
L 311.8128 139.540883 
L 313.152 116.858285 
L 314.4912 98.383167 
L 315.4956 86.812777 
L 315.8304 45.883636 
L 316.1652 243.556364 
L 317.5044 201.579544 
L 318.8436 167.389162 
L 320.1828 139.540883 
L 321.522 116.858285 
L 322.8612 98.383167 
L 323.8656 86.812777 
L 324.2004 45.883636 
L 324.5352 243.556364 
L 325.8744 201.579544 
L 327.2136 167.389162 
L 328.5528 139.540883 
L 329.892 116.858285 
L 331.2312 98.383167 
L 332.2356 86.812777 
L 332.5704 45.883636 
L 332.9052 243.556364 
L 334.2444 201.579544 
L 335.5836 167.389162 
L 336.9228 139.540883 
L 338.262 116.858285 
L 339.6012 98.383167 
L 340.6056 86.812777 
L 340.9404 45.883636 
L 341.2752 243.556364 
L 342.6144 201.579544 
L 343.9536 167.389162 
L 345.2928 139.540883 
L 346.632 116.858285 
L 347.9712 98.383167 
L 348.9756 86.812777 
L 349.3104 45.883636 
L 349.6452 243.556364 
L 350.9844 201.579544 
L 352.3236 167.389162 
L 353.6628 139.540883 
L 355.002 116.858285 
L 356.3412 98.383167 
L 357.3456 86.812777 
L 357.6804 45.883636 
L 358.0152 243.556364 
L 359.3544 201.579544 
L 360.6936 167.389162 
L 362.0328 139.540883 
L 363.372 116.858285 
L 364.7112 98.383167 
L 365.7156 86.812777 
L 366.0504 45.883636 
L 366.3852 243.556364 
L 367.7244 201.579544 
L 369.0636 167.389162 
L 370.4028 139.540883 
L 371.742 116.858285 
L 373.0812 98.383167 
L 374.0856 86.812777 
L 374.4204 45.883636 
L 374.7552 243.556364 
L 376.0944 201.579544 
L 377.4336 167.389162 
L 378.7728 139.540883 
L 380.112 116.858285 
L 381.4512 98.383167 
L 382.4556 86.812777 
L 382.7904 45.883636 
L 383.1252 243.556364 
L 383.1252 243.556364 
" clip-path="url(#pd671a7d10b)" style="fill: none; stroke: #1f77b4; stroke-width: 1.5; stroke-linecap: square"/>
   </g>
   <g id="line2d_15">
    <path d="M 48.66 243.556364 
L 383.1252 243.556364 
L 383.1252 243.556364 
" clip-path="url(#pd671a7d10b)" style="fill: none; stroke: #ff7f0e; stroke-width: 1.5; stroke-linecap: square"/>
   </g>
   <g id="patch_3">
    <path d="M 48.66 253.44 
L 48.66 36 
" style="fill: none; stroke: #000000; stroke-width: 0.8; stroke-linejoin: miter; stroke-linecap: square"/>
   </g>
   <g id="patch_4">
    <path d="M 383.46 253.44 
L 383.46 36 
" style="fill: none; stroke: #000000; stroke-width: 0.8; stroke-linejoin: miter; stroke-linecap: square"/>
   </g>
   <g id="patch_5">
    <path d="M 48.66 253.44 
L 383.46 253.44 
" style="fill: none; stroke: #000000; stroke-width: 0.8; stroke-linejoin: miter; stroke-linecap: square"/>
   </g>
   <g id="patch_6">
    <path d="M 48.66 36 
L 383.46 36 
" style="fill: none; stroke: #000000; stroke-width: 0.8; stroke-linejoin: miter; stroke-linecap: square"/>
   </g>
   <g id="legend_1">
    <g id="patch_7">
     <path d="M 326.76 73.35625 
L 376.46 73.35625 
Q 378.46 73.35625 378.46 71.35625 
L 378.46 43 
Q 378.46 41 376.46 41 
L 326.76 41 
Q 324.76 41 324.76 43 
L 324.76 71.35625 
Q 324.76 73.35625 326.76 73.35625 
z
" style="fill: #ffffff; opacity: 0.8; stroke: #cccccc; stroke-linejoin: miter"/>
    </g>
    <g id="line2d_16">
     <path d="M 328.76 49.098437 
L 338.76 49.098437 
L 348.76 49.098437 
" style="fill: none; stroke: #1f77b4; stroke-width: 1.5; stroke-linecap: square"/>
    </g>
    <g id="text_16">
     <!-- $v(t)$ -->
     <g transform="translate(356.76 52.598437) scale(0.1 -0.1)">
      <defs>
       <path id="DejaVuSans-Oblique-76" d="M 459 3500 
L 1069 3500 
L 1581 525 
L 3256 3500 
L 3866 3500 
L 1875 0 
L 1100 0 
L 459 3500 
z
" transform="scale(0.015625)"/>
       <path id="DejaVuSans-28" d="M 1984 4856 
Q 1566 4138 1362 3434 
Q 1159 2731 1159 2009 
Q 1159 1288 1364 580 
Q 1569 -128 1984 -844 
L 1484 -844 
Q 1016 -109 783 600 
Q 550 1309 550 2009 
Q 550 2706 781 3412 
Q 1013 4119 1484 4856 
L 1984 4856 
z
" transform="scale(0.015625)"/>
       <path id="DejaVuSans-29" d="M 513 4856 
L 1013 4856 
Q 1481 4119 1714 3412 
Q 1947 2706 1947 2009 
Q 1947 1309 1714 600 
Q 1481 -109 1013 -844 
L 513 -844 
Q 928 -128 1133 580 
Q 1338 1288 1338 2009 
Q 1338 2731 1133 3434 
Q 928 4138 513 4856 
z
" transform="scale(0.015625)"/>
      </defs>
      <use xlink:href="#DejaVuSans-Oblique-76" transform="translate(0 0.125)"/>
      <use xlink:href="#DejaVuSans-28" transform="translate(59.179688 0.125)"/>
      <use xlink:href="#DejaVuSans-Oblique-74" transform="translate(98.193359 0.125)"/>
      <use xlink:href="#DejaVuSans-29" transform="translate(137.402344 0.125)"/>
     </g>
    </g>
    <g id="line2d_17">
     <path d="M 328.76 63.776562 
L 338.76 63.776562 
L 348.76 63.776562 
" style="fill: none; stroke: #ff7f0e; stroke-width: 1.5; stroke-linecap: square"/>
    </g>
    <g id="text_17">
     <!-- $x(t)$ -->
     <g transform="translate(356.76 67.276562) scale(0.1 -0.1)">
      <defs>
       <path id="DejaVuSans-Oblique-78" d="M 3841 3500 
L 2234 1784 
L 3219 0 
L 2559 0 
L 1819 1388 
L 531 0 
L -166 0 
L 1556 1844 
L 641 3500 
L 1300 3500 
L 1972 2234 
L 3144 3500 
L 3841 3500 
z
" transform="scale(0.015625)"/>
      </defs>
      <use xlink:href="#DejaVuSans-Oblique-78" transform="translate(0 0.125)"/>
      <use xlink:href="#DejaVuSans-28" transform="translate(59.179688 0.125)"/>
      <use xlink:href="#DejaVuSans-Oblique-74" transform="translate(98.193359 0.125)"/>
      <use xlink:href="#DejaVuSans-29" transform="translate(137.402344 0.125)"/>
     </g>
    </g>
   </g>
  </g>
  <g id="text_18">
   <!-- Voltage $v(t)$ of a LIF Neuron with $x=0$ and positive encoder $e=-1$ -->
   <g transform="translate(7.2 16.32) scale(0.12 -0.12)">
    <defs>
     <path id="DejaVuSans-66" d="M 2375 4863 
L 2375 4384 
L 1825 4384 
Q 1516 4384 1395 4259 
Q 1275 4134 1275 3809 
L 1275 3500 
L 2222 3500 
L 2222 3053 
L 1275 3053 
L 1275 0 
L 697 0 
L 697 3053 
L 147 3053 
L 147 3500 
L 697 3500 
L 697 3744 
Q 697 4328 969 4595 
Q 1241 4863 1831 4863 
L 2375 4863 
z
" transform="scale(0.015625)"/>
     <path id="DejaVuSans-4c" d="M 628 4666 
L 1259 4666 
L 1259 531 
L 3531 531 
L 3531 0 
L 628 0 
L 628 4666 
z
" transform="scale(0.015625)"/>
     <path id="DejaVuSans-49" d="M 628 4666 
L 1259 4666 
L 1259 0 
L 628 0 
L 628 4666 
z
" transform="scale(0.015625)"/>
     <path id="DejaVuSans-46" d="M 628 4666 
L 3309 4666 
L 3309 4134 
L 1259 4134 
L 1259 2759 
L 3109 2759 
L 3109 2228 
L 1259 2228 
L 1259 0 
L 628 0 
L 628 4666 
z
" transform="scale(0.015625)"/>
     <path id="DejaVuSans-4e" d="M 628 4666 
L 1478 4666 
L 3547 763 
L 3547 4666 
L 4159 4666 
L 4159 0 
L 3309 0 
L 1241 3903 
L 1241 0 
L 628 0 
L 628 4666 
z
" transform="scale(0.015625)"/>
     <path id="DejaVuSans-75" d="M 544 1381 
L 544 3500 
L 1119 3500 
L 1119 1403 
Q 1119 906 1312 657 
Q 1506 409 1894 409 
Q 2359 409 2629 706 
Q 2900 1003 2900 1516 
L 2900 3500 
L 3475 3500 
L 3475 0 
L 2900 0 
L 2900 538 
Q 2691 219 2414 64 
Q 2138 -91 1772 -91 
Q 1169 -91 856 284 
Q 544 659 544 1381 
z
M 1991 3584 
L 1991 3584 
z
" transform="scale(0.015625)"/>
     <path id="DejaVuSans-72" d="M 2631 2963 
Q 2534 3019 2420 3045 
Q 2306 3072 2169 3072 
Q 1681 3072 1420 2755 
Q 1159 2438 1159 1844 
L 1159 0 
L 581 0 
L 581 3500 
L 1159 3500 
L 1159 2956 
Q 1341 3275 1631 3429 
Q 1922 3584 2338 3584 
Q 2397 3584 2469 3576 
Q 2541 3569 2628 3553 
L 2631 2963 
z
" transform="scale(0.015625)"/>
     <path id="DejaVuSans-6e" d="M 3513 2113 
L 3513 0 
L 2938 0 
L 2938 2094 
Q 2938 2591 2744 2837 
Q 2550 3084 2163 3084 
Q 1697 3084 1428 2787 
Q 1159 2491 1159 1978 
L 1159 0 
L 581 0 
L 581 3500 
L 1159 3500 
L 1159 2956 
Q 1366 3272 1645 3428 
Q 1925 3584 2291 3584 
Q 2894 3584 3203 3211 
Q 3513 2838 3513 2113 
z
" transform="scale(0.015625)"/>
     <path id="DejaVuSans-77" d="M 269 3500 
L 844 3500 
L 1563 769 
L 2278 3500 
L 2956 3500 
L 3675 769 
L 4391 3500 
L 4966 3500 
L 4050 0 
L 3372 0 
L 2619 2869 
L 1863 0 
L 1184 0 
L 269 3500 
z
" transform="scale(0.015625)"/>
     <path id="DejaVuSans-69" d="M 603 3500 
L 1178 3500 
L 1178 0 
L 603 0 
L 603 3500 
z
M 603 4863 
L 1178 4863 
L 1178 4134 
L 603 4134 
L 603 4863 
z
" transform="scale(0.015625)"/>
     <path id="DejaVuSans-68" d="M 3513 2113 
L 3513 0 
L 2938 0 
L 2938 2094 
Q 2938 2591 2744 2837 
Q 2550 3084 2163 3084 
Q 1697 3084 1428 2787 
Q 1159 2491 1159 1978 
L 1159 0 
L 581 0 
L 581 4863 
L 1159 4863 
L 1159 2956 
Q 1366 3272 1645 3428 
Q 1925 3584 2291 3584 
Q 2894 3584 3203 3211 
Q 3513 2838 3513 2113 
z
" transform="scale(0.015625)"/>
     <path id="DejaVuSans-3d" d="M 678 2906 
L 4684 2906 
L 4684 2381 
L 678 2381 
L 678 2906 
z
M 678 1631 
L 4684 1631 
L 4684 1100 
L 678 1100 
L 678 1631 
z
" transform="scale(0.015625)"/>
     <path id="DejaVuSans-64" d="M 2906 2969 
L 2906 4863 
L 3481 4863 
L 3481 0 
L 2906 0 
L 2906 525 
Q 2725 213 2448 61 
Q 2172 -91 1784 -91 
Q 1150 -91 751 415 
Q 353 922 353 1747 
Q 353 2572 751 3078 
Q 1150 3584 1784 3584 
Q 2172 3584 2448 3432 
Q 2725 3281 2906 2969 
z
M 947 1747 
Q 947 1113 1208 752 
Q 1469 391 1925 391 
Q 2381 391 2643 752 
Q 2906 1113 2906 1747 
Q 2906 2381 2643 2742 
Q 2381 3103 1925 3103 
Q 1469 3103 1208 2742 
Q 947 2381 947 1747 
z
" transform="scale(0.015625)"/>
     <path id="DejaVuSans-70" d="M 1159 525 
L 1159 -1331 
L 581 -1331 
L 581 3500 
L 1159 3500 
L 1159 2969 
Q 1341 3281 1617 3432 
Q 1894 3584 2278 3584 
Q 2916 3584 3314 3078 
Q 3713 2572 3713 1747 
Q 3713 922 3314 415 
Q 2916 -91 2278 -91 
Q 1894 -91 1617 61 
Q 1341 213 1159 525 
z
M 3116 1747 
Q 3116 2381 2855 2742 
Q 2594 3103 2138 3103 
Q 1681 3103 1420 2742 
Q 1159 2381 1159 1747 
Q 1159 1113 1420 752 
Q 1681 391 2138 391 
Q 2594 391 2855 752 
Q 3116 1113 3116 1747 
z
" transform="scale(0.015625)"/>
     <path id="DejaVuSans-76" d="M 191 3500 
L 800 3500 
L 1894 563 
L 2988 3500 
L 3597 3500 
L 2284 0 
L 1503 0 
L 191 3500 
z
" transform="scale(0.015625)"/>
     <path id="DejaVuSans-Oblique-65" d="M 3078 2063 
Q 3088 2113 3092 2166 
Q 3097 2219 3097 2272 
Q 3097 2653 2873 2875 
Q 2650 3097 2266 3097 
Q 1838 3097 1509 2826 
Q 1181 2556 1013 2059 
L 3078 2063 
z
M 3578 1613 
L 903 1613 
Q 884 1494 878 1425 
Q 872 1356 872 1306 
Q 872 872 1139 634 
Q 1406 397 1894 397 
Q 2269 397 2603 481 
Q 2938 566 3225 728 
L 3116 159 
Q 2806 34 2476 -28 
Q 2147 -91 1806 -91 
Q 1078 -91 686 257 
Q 294 606 294 1247 
Q 294 1794 489 2264 
Q 684 2734 1063 3103 
Q 1306 3334 1642 3459 
Q 1978 3584 2356 3584 
Q 2950 3584 3301 3228 
Q 3653 2872 3653 2272 
Q 3653 2128 3634 1964 
Q 3616 1800 3578 1613 
z
" transform="scale(0.015625)"/>
     <path id="DejaVuSans-2212" d="M 678 2272 
L 4684 2272 
L 4684 1741 
L 678 1741 
L 678 2272 
z
" transform="scale(0.015625)"/>
    </defs>
    <use xlink:href="#DejaVuSans-56" transform="translate(0 0.015625)"/>
    <use xlink:href="#DejaVuSans-6f" transform="translate(68.408203 0.015625)"/>
    <use xlink:href="#DejaVuSans-6c" transform="translate(129.589844 0.015625)"/>
    <use xlink:href="#DejaVuSans-74" transform="translate(157.373047 0.015625)"/>
    <use xlink:href="#DejaVuSans-61" transform="translate(196.582031 0.015625)"/>
    <use xlink:href="#DejaVuSans-67" transform="translate(257.861328 0.015625)"/>
    <use xlink:href="#DejaVuSans-65" transform="translate(321.337891 0.015625)"/>
    <use xlink:href="#DejaVuSans-20" transform="translate(382.861328 0.015625)"/>
    <use xlink:href="#DejaVuSans-Oblique-76" transform="translate(414.648438 0.015625)"/>
    <use xlink:href="#DejaVuSans-28" transform="translate(473.828125 0.015625)"/>
    <use xlink:href="#DejaVuSans-Oblique-74" transform="translate(512.841797 0.015625)"/>
    <use xlink:href="#DejaVuSans-29" transform="translate(552.050781 0.015625)"/>
    <use xlink:href="#DejaVuSans-20" transform="translate(591.064453 0.015625)"/>
    <use xlink:href="#DejaVuSans-6f" transform="translate(622.851562 0.015625)"/>
    <use xlink:href="#DejaVuSans-66" transform="translate(684.033203 0.015625)"/>
    <use xlink:href="#DejaVuSans-20" transform="translate(719.238281 0.015625)"/>
    <use xlink:href="#DejaVuSans-61" transform="translate(751.025391 0.015625)"/>
    <use xlink:href="#DejaVuSans-20" transform="translate(812.304688 0.015625)"/>
    <use xlink:href="#DejaVuSans-4c" transform="translate(844.091797 0.015625)"/>
    <use xlink:href="#DejaVuSans-49" transform="translate(899.804688 0.015625)"/>
    <use xlink:href="#DejaVuSans-46" transform="translate(929.296875 0.015625)"/>
    <use xlink:href="#DejaVuSans-20" transform="translate(986.816406 0.015625)"/>
    <use xlink:href="#DejaVuSans-4e" transform="translate(1018.603516 0.015625)"/>
    <use xlink:href="#DejaVuSans-65" transform="translate(1093.408203 0.015625)"/>
    <use xlink:href="#DejaVuSans-75" transform="translate(1154.931641 0.015625)"/>
    <use xlink:href="#DejaVuSans-72" transform="translate(1218.310547 0.015625)"/>
    <use xlink:href="#DejaVuSans-6f" transform="translate(1259.423828 0.015625)"/>
    <use xlink:href="#DejaVuSans-6e" transform="translate(1320.605469 0.015625)"/>
    <use xlink:href="#DejaVuSans-20" transform="translate(1383.984375 0.015625)"/>
    <use xlink:href="#DejaVuSans-77" transform="translate(1415.771484 0.015625)"/>
    <use xlink:href="#DejaVuSans-69" transform="translate(1497.558594 0.015625)"/>
    <use xlink:href="#DejaVuSans-74" transform="translate(1525.341797 0.015625)"/>
    <use xlink:href="#DejaVuSans-68" transform="translate(1564.550781 0.015625)"/>
    <use xlink:href="#DejaVuSans-20" transform="translate(1627.929688 0.015625)"/>
    <use xlink:href="#DejaVuSans-Oblique-78" transform="translate(1659.716797 0.015625)"/>
    <use xlink:href="#DejaVuSans-3d" transform="translate(1738.378906 0.015625)"/>
    <use xlink:href="#DejaVuSans-30" transform="translate(1841.650391 0.015625)"/>
    <use xlink:href="#DejaVuSans-20" transform="translate(1905.273438 0.015625)"/>
    <use xlink:href="#DejaVuSans-61" transform="translate(1937.060547 0.015625)"/>
    <use xlink:href="#DejaVuSans-6e" transform="translate(1998.339844 0.015625)"/>
    <use xlink:href="#DejaVuSans-64" transform="translate(2061.71875 0.015625)"/>
    <use xlink:href="#DejaVuSans-20" transform="translate(2125.195312 0.015625)"/>
    <use xlink:href="#DejaVuSans-70" transform="translate(2156.982422 0.015625)"/>
    <use xlink:href="#DejaVuSans-6f" transform="translate(2220.458984 0.015625)"/>
    <use xlink:href="#DejaVuSans-73" transform="translate(2281.640625 0.015625)"/>
    <use xlink:href="#DejaVuSans-69" transform="translate(2333.740234 0.015625)"/>
    <use xlink:href="#DejaVuSans-74" transform="translate(2361.523438 0.015625)"/>
    <use xlink:href="#DejaVuSans-69" transform="translate(2400.732422 0.015625)"/>
    <use xlink:href="#DejaVuSans-76" transform="translate(2428.515625 0.015625)"/>
    <use xlink:href="#DejaVuSans-65" transform="translate(2487.695312 0.015625)"/>
    <use xlink:href="#DejaVuSans-20" transform="translate(2549.21875 0.015625)"/>
    <use xlink:href="#DejaVuSans-65" transform="translate(2581.005859 0.015625)"/>
    <use xlink:href="#DejaVuSans-6e" transform="translate(2642.529297 0.015625)"/>
    <use xlink:href="#DejaVuSans-63" transform="translate(2705.908203 0.015625)"/>
    <use xlink:href="#DejaVuSans-6f" transform="translate(2760.888672 0.015625)"/>
    <use xlink:href="#DejaVuSans-64" transform="translate(2822.070312 0.015625)"/>
    <use xlink:href="#DejaVuSans-65" transform="translate(2885.546875 0.015625)"/>
    <use xlink:href="#DejaVuSans-72" transform="translate(2947.070312 0.015625)"/>
    <use xlink:href="#DejaVuSans-20" transform="translate(2988.183594 0.015625)"/>
    <use xlink:href="#DejaVuSans-Oblique-65" transform="translate(3019.970703 0.015625)"/>
    <use xlink:href="#DejaVuSans-3d" transform="translate(3100.976562 0.015625)"/>
    <use xlink:href="#DejaVuSans-2212" transform="translate(3223.730469 0.015625)"/>
    <use xlink:href="#DejaVuSans-31" transform="translate(3327.001953 0.015625)"/>
   </g>
  </g>
 </g>
 <defs>
  <clipPath id="pd671a7d10b">
   <rect x="48.66" y="36" width="334.8" height="217.44"/>
  </clipPath>
 </defs>
</svg>
