<?xml version="1.0" encoding="utf-8" standalone="no"?>
<!DOCTYPE svg PUBLIC "-//W3C//DTD SVG 1.1//EN"
  "http://www.w3.org/Graphics/SVG/1.1/DTD/svg11.dtd">
<svg xmlns:xlink="http://www.w3.org/1999/xlink" width="394.160938pt" height="290.99625pt" viewBox="0 0 394.160938 290.99625" xmlns="http://www.w3.org/2000/svg" version="1.1">
 <metadata>
  <rdf:RDF xmlns:dc="http://purl.org/dc/elements/1.1/" xmlns:cc="http://creativecommons.org/ns#" xmlns:rdf="http://www.w3.org/1999/02/22-rdf-syntax-ns#">
   <cc:Work>
    <dc:type rdf:resource="http://purl.org/dc/dcmitype/StillImage"/>
    <dc:date>2022-10-14T15:56:00.494426</dc:date>
    <dc:format>image/svg+xml</dc:format>
    <dc:creator>
     <cc:Agent>
      <dc:title>Matplotlib v3.6.0, https://matplotlib.org/</dc:title>
     </cc:Agent>
    </dc:creator>
   </cc:Work>
  </rdf:RDF>
 </metadata>
 <defs>
  <style type="text/css">*{stroke-linejoin: round; stroke-linecap: butt}</style>
 </defs>
 <g id="figure_1">
  <g id="patch_1">
   <path d="M 0 290.99625 
L 394.160938 290.99625 
L 394.160938 0 
L 0 0 
L 0 290.99625 
z
" style="fill: none"/>
  </g>
  <g id="axes_1">
   <g id="patch_2">
    <path d="M 52.160938 253.44 
L 386.960938 253.44 
L 386.960938 36 
L 52.160938 36 
z
" style="fill: #ffffff"/>
   </g>
   <g id="matplotlib.axis_1">
    <g id="xtick_1">
     <g id="line2d_1">
      <defs>
       <path id="m5ddfbad113" d="M 0 0 
L 0 3.5 
" style="stroke: #000000; stroke-width: 0.8"/>
      </defs>
      <g>
       <use xlink:href="#m5ddfbad113" x="67.379119" y="253.44" style="stroke: #000000; stroke-width: 0.8"/>
      </g>
     </g>
     <g id="text_1">
      <!-- 0.0 -->
      <g transform="translate(59.427557 268.038437) scale(0.1 -0.1)">
       <defs>
        <path id="DejaVuSans-30" d="M 2034 4250 
Q 1547 4250 1301 3770 
Q 1056 3291 1056 2328 
Q 1056 1369 1301 889 
Q 1547 409 2034 409 
Q 2525 409 2770 889 
Q 3016 1369 3016 2328 
Q 3016 3291 2770 3770 
Q 2525 4250 2034 4250 
z
M 2034 4750 
Q 2819 4750 3233 4129 
Q 3647 3509 3647 2328 
Q 3647 1150 3233 529 
Q 2819 -91 2034 -91 
Q 1250 -91 836 529 
Q 422 1150 422 2328 
Q 422 3509 836 4129 
Q 1250 4750 2034 4750 
z
" transform="scale(0.015625)"/>
        <path id="DejaVuSans-2e" d="M 684 794 
L 1344 794 
L 1344 0 
L 684 0 
L 684 794 
z
" transform="scale(0.015625)"/>
       </defs>
       <use xlink:href="#DejaVuSans-30"/>
       <use xlink:href="#DejaVuSans-2e" x="63.623047"/>
       <use xlink:href="#DejaVuSans-30" x="95.410156"/>
      </g>
     </g>
    </g>
    <g id="xtick_2">
     <g id="line2d_2">
      <g>
       <use xlink:href="#m5ddfbad113" x="128.31278" y="253.44" style="stroke: #000000; stroke-width: 0.8"/>
      </g>
     </g>
     <g id="text_2">
      <!-- 0.2 -->
      <g transform="translate(120.361218 268.038437) scale(0.1 -0.1)">
       <defs>
        <path id="DejaVuSans-32" d="M 1228 531 
L 3431 531 
L 3431 0 
L 469 0 
L 469 531 
Q 828 903 1448 1529 
Q 2069 2156 2228 2338 
Q 2531 2678 2651 2914 
Q 2772 3150 2772 3378 
Q 2772 3750 2511 3984 
Q 2250 4219 1831 4219 
Q 1534 4219 1204 4116 
Q 875 4013 500 3803 
L 500 4441 
Q 881 4594 1212 4672 
Q 1544 4750 1819 4750 
Q 2544 4750 2975 4387 
Q 3406 4025 3406 3419 
Q 3406 3131 3298 2873 
Q 3191 2616 2906 2266 
Q 2828 2175 2409 1742 
Q 1991 1309 1228 531 
z
" transform="scale(0.015625)"/>
       </defs>
       <use xlink:href="#DejaVuSans-30"/>
       <use xlink:href="#DejaVuSans-2e" x="63.623047"/>
       <use xlink:href="#DejaVuSans-32" x="95.410156"/>
      </g>
     </g>
    </g>
    <g id="xtick_3">
     <g id="line2d_3">
      <g>
       <use xlink:href="#m5ddfbad113" x="189.246441" y="253.44" style="stroke: #000000; stroke-width: 0.8"/>
      </g>
     </g>
     <g id="text_3">
      <!-- 0.4 -->
      <g transform="translate(181.294879 268.038437) scale(0.1 -0.1)">
       <defs>
        <path id="DejaVuSans-34" d="M 2419 4116 
L 825 1625 
L 2419 1625 
L 2419 4116 
z
M 2253 4666 
L 3047 4666 
L 3047 1625 
L 3713 1625 
L 3713 1100 
L 3047 1100 
L 3047 0 
L 2419 0 
L 2419 1100 
L 313 1100 
L 313 1709 
L 2253 4666 
z
" transform="scale(0.015625)"/>
       </defs>
       <use xlink:href="#DejaVuSans-30"/>
       <use xlink:href="#DejaVuSans-2e" x="63.623047"/>
       <use xlink:href="#DejaVuSans-34" x="95.410156"/>
      </g>
     </g>
    </g>
    <g id="xtick_4">
     <g id="line2d_4">
      <g>
       <use xlink:href="#m5ddfbad113" x="250.180102" y="253.44" style="stroke: #000000; stroke-width: 0.8"/>
      </g>
     </g>
     <g id="text_4">
      <!-- 0.6 -->
      <g transform="translate(242.22854 268.038437) scale(0.1 -0.1)">
       <defs>
        <path id="DejaVuSans-36" d="M 2113 2584 
Q 1688 2584 1439 2293 
Q 1191 2003 1191 1497 
Q 1191 994 1439 701 
Q 1688 409 2113 409 
Q 2538 409 2786 701 
Q 3034 994 3034 1497 
Q 3034 2003 2786 2293 
Q 2538 2584 2113 2584 
z
M 3366 4563 
L 3366 3988 
Q 3128 4100 2886 4159 
Q 2644 4219 2406 4219 
Q 1781 4219 1451 3797 
Q 1122 3375 1075 2522 
Q 1259 2794 1537 2939 
Q 1816 3084 2150 3084 
Q 2853 3084 3261 2657 
Q 3669 2231 3669 1497 
Q 3669 778 3244 343 
Q 2819 -91 2113 -91 
Q 1303 -91 875 529 
Q 447 1150 447 2328 
Q 447 3434 972 4092 
Q 1497 4750 2381 4750 
Q 2619 4750 2861 4703 
Q 3103 4656 3366 4563 
z
" transform="scale(0.015625)"/>
       </defs>
       <use xlink:href="#DejaVuSans-30"/>
       <use xlink:href="#DejaVuSans-2e" x="63.623047"/>
       <use xlink:href="#DejaVuSans-36" x="95.410156"/>
      </g>
     </g>
    </g>
    <g id="xtick_5">
     <g id="line2d_5">
      <g>
       <use xlink:href="#m5ddfbad113" x="311.113763" y="253.44" style="stroke: #000000; stroke-width: 0.8"/>
      </g>
     </g>
     <g id="text_5">
      <!-- 0.8 -->
      <g transform="translate(303.162201 268.038437) scale(0.1 -0.1)">
       <defs>
        <path id="DejaVuSans-38" d="M 2034 2216 
Q 1584 2216 1326 1975 
Q 1069 1734 1069 1313 
Q 1069 891 1326 650 
Q 1584 409 2034 409 
Q 2484 409 2743 651 
Q 3003 894 3003 1313 
Q 3003 1734 2745 1975 
Q 2488 2216 2034 2216 
z
M 1403 2484 
Q 997 2584 770 2862 
Q 544 3141 544 3541 
Q 544 4100 942 4425 
Q 1341 4750 2034 4750 
Q 2731 4750 3128 4425 
Q 3525 4100 3525 3541 
Q 3525 3141 3298 2862 
Q 3072 2584 2669 2484 
Q 3125 2378 3379 2068 
Q 3634 1759 3634 1313 
Q 3634 634 3220 271 
Q 2806 -91 2034 -91 
Q 1263 -91 848 271 
Q 434 634 434 1313 
Q 434 1759 690 2068 
Q 947 2378 1403 2484 
z
M 1172 3481 
Q 1172 3119 1398 2916 
Q 1625 2713 2034 2713 
Q 2441 2713 2670 2916 
Q 2900 3119 2900 3481 
Q 2900 3844 2670 4047 
Q 2441 4250 2034 4250 
Q 1625 4250 1398 4047 
Q 1172 3844 1172 3481 
z
" transform="scale(0.015625)"/>
       </defs>
       <use xlink:href="#DejaVuSans-30"/>
       <use xlink:href="#DejaVuSans-2e" x="63.623047"/>
       <use xlink:href="#DejaVuSans-38" x="95.410156"/>
      </g>
     </g>
    </g>
    <g id="xtick_6">
     <g id="line2d_6">
      <g>
       <use xlink:href="#m5ddfbad113" x="372.047424" y="253.44" style="stroke: #000000; stroke-width: 0.8"/>
      </g>
     </g>
     <g id="text_6">
      <!-- 1.0 -->
      <g transform="translate(364.095861 268.038437) scale(0.1 -0.1)">
       <defs>
        <path id="DejaVuSans-31" d="M 794 531 
L 1825 531 
L 1825 4091 
L 703 3866 
L 703 4441 
L 1819 4666 
L 2450 4666 
L 2450 531 
L 3481 531 
L 3481 0 
L 794 0 
L 794 531 
z
" transform="scale(0.015625)"/>
       </defs>
       <use xlink:href="#DejaVuSans-31"/>
       <use xlink:href="#DejaVuSans-2e" x="63.623047"/>
       <use xlink:href="#DejaVuSans-30" x="95.410156"/>
      </g>
     </g>
    </g>
    <g id="text_7">
     <!-- $t$ sec. -->
     <g transform="translate(205.960938 281.716562) scale(0.1 -0.1)">
      <defs>
       <path id="DejaVuSans-Oblique-74" d="M 2706 3500 
L 2619 3053 
L 1472 3053 
L 1100 1153 
Q 1081 1047 1072 975 
Q 1063 903 1063 863 
Q 1063 663 1183 572 
Q 1303 481 1569 481 
L 2150 481 
L 2053 0 
L 1503 0 
Q 991 0 739 200 
Q 488 400 488 806 
Q 488 878 497 964 
Q 506 1050 525 1153 
L 897 3053 
L 409 3053 
L 500 3500 
L 978 3500 
L 1172 4494 
L 1747 4494 
L 1556 3500 
L 2706 3500 
z
" transform="scale(0.015625)"/>
       <path id="DejaVuSans-20" transform="scale(0.015625)"/>
       <path id="DejaVuSans-73" d="M 2834 3397 
L 2834 2853 
Q 2591 2978 2328 3040 
Q 2066 3103 1784 3103 
Q 1356 3103 1142 2972 
Q 928 2841 928 2578 
Q 928 2378 1081 2264 
Q 1234 2150 1697 2047 
L 1894 2003 
Q 2506 1872 2764 1633 
Q 3022 1394 3022 966 
Q 3022 478 2636 193 
Q 2250 -91 1575 -91 
Q 1294 -91 989 -36 
Q 684 19 347 128 
L 347 722 
Q 666 556 975 473 
Q 1284 391 1588 391 
Q 1994 391 2212 530 
Q 2431 669 2431 922 
Q 2431 1156 2273 1281 
Q 2116 1406 1581 1522 
L 1381 1569 
Q 847 1681 609 1914 
Q 372 2147 372 2553 
Q 372 3047 722 3315 
Q 1072 3584 1716 3584 
Q 2034 3584 2315 3537 
Q 2597 3491 2834 3397 
z
" transform="scale(0.015625)"/>
       <path id="DejaVuSans-65" d="M 3597 1894 
L 3597 1613 
L 953 1613 
Q 991 1019 1311 708 
Q 1631 397 2203 397 
Q 2534 397 2845 478 
Q 3156 559 3463 722 
L 3463 178 
Q 3153 47 2828 -22 
Q 2503 -91 2169 -91 
Q 1331 -91 842 396 
Q 353 884 353 1716 
Q 353 2575 817 3079 
Q 1281 3584 2069 3584 
Q 2775 3584 3186 3129 
Q 3597 2675 3597 1894 
z
M 3022 2063 
Q 3016 2534 2758 2815 
Q 2500 3097 2075 3097 
Q 1594 3097 1305 2825 
Q 1016 2553 972 2059 
L 3022 2063 
z
" transform="scale(0.015625)"/>
       <path id="DejaVuSans-63" d="M 3122 3366 
L 3122 2828 
Q 2878 2963 2633 3030 
Q 2388 3097 2138 3097 
Q 1578 3097 1268 2742 
Q 959 2388 959 1747 
Q 959 1106 1268 751 
Q 1578 397 2138 397 
Q 2388 397 2633 464 
Q 2878 531 3122 666 
L 3122 134 
Q 2881 22 2623 -34 
Q 2366 -91 2075 -91 
Q 1284 -91 818 406 
Q 353 903 353 1747 
Q 353 2603 823 3093 
Q 1294 3584 2113 3584 
Q 2378 3584 2631 3529 
Q 2884 3475 3122 3366 
z
" transform="scale(0.015625)"/>
      </defs>
      <use xlink:href="#DejaVuSans-Oblique-74" transform="translate(0 0.78125)"/>
      <use xlink:href="#DejaVuSans-20" transform="translate(39.208984 0.78125)"/>
      <use xlink:href="#DejaVuSans-73" transform="translate(70.996094 0.78125)"/>
      <use xlink:href="#DejaVuSans-65" transform="translate(123.095703 0.78125)"/>
      <use xlink:href="#DejaVuSans-63" transform="translate(184.619141 0.78125)"/>
      <use xlink:href="#DejaVuSans-2e" transform="translate(239.599609 0.78125)"/>
     </g>
    </g>
   </g>
   <g id="matplotlib.axis_2">
    <g id="ytick_1">
     <g id="line2d_7">
      <defs>
       <path id="m2b5c85d55a" d="M 0 0 
L -3.5 0 
" style="stroke: #000000; stroke-width: 0.8"/>
      </defs>
      <g>
       <use xlink:href="#m2b5c85d55a" x="52.160938" y="216.902283" style="stroke: #000000; stroke-width: 0.8"/>
      </g>
     </g>
     <g id="text_8">
      <!-- −0.5 -->
      <g transform="translate(20.878125 220.701502) scale(0.1 -0.1)">
       <defs>
        <path id="DejaVuSans-2212" d="M 678 2272 
L 4684 2272 
L 4684 1741 
L 678 1741 
L 678 2272 
z
" transform="scale(0.015625)"/>
        <path id="DejaVuSans-35" d="M 691 4666 
L 3169 4666 
L 3169 4134 
L 1269 4134 
L 1269 2991 
Q 1406 3038 1543 3061 
Q 1681 3084 1819 3084 
Q 2600 3084 3056 2656 
Q 3513 2228 3513 1497 
Q 3513 744 3044 326 
Q 2575 -91 1722 -91 
Q 1428 -91 1123 -41 
Q 819 9 494 109 
L 494 744 
Q 775 591 1075 516 
Q 1375 441 1709 441 
Q 2250 441 2565 725 
Q 2881 1009 2881 1497 
Q 2881 1984 2565 2268 
Q 2250 2553 1709 2553 
Q 1456 2553 1204 2497 
Q 953 2441 691 2322 
L 691 4666 
z
" transform="scale(0.015625)"/>
       </defs>
       <use xlink:href="#DejaVuSans-2212"/>
       <use xlink:href="#DejaVuSans-30" x="83.789062"/>
       <use xlink:href="#DejaVuSans-2e" x="147.412109"/>
       <use xlink:href="#DejaVuSans-35" x="179.199219"/>
      </g>
     </g>
    </g>
    <g id="ytick_2">
     <g id="line2d_8">
      <g>
       <use xlink:href="#m2b5c85d55a" x="52.160938" y="171.676571" style="stroke: #000000; stroke-width: 0.8"/>
      </g>
     </g>
     <g id="text_9">
      <!-- 0.0 -->
      <g transform="translate(29.257812 175.47579) scale(0.1 -0.1)">
       <use xlink:href="#DejaVuSans-30"/>
       <use xlink:href="#DejaVuSans-2e" x="63.623047"/>
       <use xlink:href="#DejaVuSans-30" x="95.410156"/>
      </g>
     </g>
    </g>
    <g id="ytick_3">
     <g id="line2d_9">
      <g>
       <use xlink:href="#m2b5c85d55a" x="52.160938" y="126.450859" style="stroke: #000000; stroke-width: 0.8"/>
      </g>
     </g>
     <g id="text_10">
      <!-- 0.5 -->
      <g transform="translate(29.257812 130.250078) scale(0.1 -0.1)">
       <use xlink:href="#DejaVuSans-30"/>
       <use xlink:href="#DejaVuSans-2e" x="63.623047"/>
       <use xlink:href="#DejaVuSans-35" x="95.410156"/>
      </g>
     </g>
    </g>
    <g id="ytick_4">
     <g id="line2d_10">
      <g>
       <use xlink:href="#m2b5c85d55a" x="52.160938" y="81.225147" style="stroke: #000000; stroke-width: 0.8"/>
      </g>
     </g>
     <g id="text_11">
      <!-- 1.0 -->
      <g transform="translate(29.257812 85.024366) scale(0.1 -0.1)">
       <use xlink:href="#DejaVuSans-31"/>
       <use xlink:href="#DejaVuSans-2e" x="63.623047"/>
       <use xlink:href="#DejaVuSans-30" x="95.410156"/>
      </g>
     </g>
    </g>
    <g id="text_12">
     <!-- $x(t)$ -->
     <g transform="translate(14.798438 153.57) rotate(-90) scale(0.1 -0.1)">
      <defs>
       <path id="DejaVuSans-Oblique-78" d="M 3841 3500 
L 2234 1784 
L 3219 0 
L 2559 0 
L 1819 1388 
L 531 0 
L -166 0 
L 1556 1844 
L 641 3500 
L 1300 3500 
L 1972 2234 
L 3144 3500 
L 3841 3500 
z
" transform="scale(0.015625)"/>
       <path id="DejaVuSans-28" d="M 1984 4856 
Q 1566 4138 1362 3434 
Q 1159 2731 1159 2009 
Q 1159 1288 1364 580 
Q 1569 -128 1984 -844 
L 1484 -844 
Q 1016 -109 783 600 
Q 550 1309 550 2009 
Q 550 2706 781 3412 
Q 1013 4119 1484 4856 
L 1984 4856 
z
" transform="scale(0.015625)"/>
       <path id="DejaVuSans-29" d="M 513 4856 
L 1013 4856 
Q 1481 4119 1714 3412 
Q 1947 2706 1947 2009 
Q 1947 1309 1714 600 
Q 1481 -109 1013 -844 
L 513 -844 
Q 928 -128 1133 580 
Q 1338 1288 1338 2009 
Q 1338 2731 1133 3434 
Q 928 4138 513 4856 
z
" transform="scale(0.015625)"/>
      </defs>
      <use xlink:href="#DejaVuSans-Oblique-78" transform="translate(0 0.125)"/>
      <use xlink:href="#DejaVuSans-28" transform="translate(59.179688 0.125)"/>
      <use xlink:href="#DejaVuSans-Oblique-74" transform="translate(98.193359 0.125)"/>
      <use xlink:href="#DejaVuSans-29" transform="translate(137.402344 0.125)"/>
     </g>
    </g>
   </g>
   <g id="line2d_11">
    <path d="M 67.379119 137.44702 
L 70.121134 113.422532 
L 71.644476 102.165177 
L 72.55848 96.66818 
L 73.472485 92.331856 
L 74.081822 90.157778 
L 74.691159 88.597752 
L 75.300495 87.67847 
L 75.605164 87.465388 
L 75.909832 87.419061 
L 76.2145 87.540667 
L 76.519168 87.830886 
L 77.128505 88.917429 
L 77.737842 90.674295 
L 78.347178 93.089309 
L 79.261183 97.900613 
L 80.175188 104.049483 
L 81.393861 114.098072 
L 82.917203 129.06872 
L 85.049881 152.848746 
L 88.401232 190.612283 
L 89.924574 205.517243 
L 91.143247 215.637993 
L 92.36192 223.832276 
L 93.275925 228.592695 
L 94.18993 232.113737 
L 94.799267 233.765721 
L 95.408603 234.865915 
L 96.01794 235.425081 
L 96.322608 235.506736 
L 96.627277 235.459778 
L 97.236613 234.991993 
L 97.84595 234.048695 
L 98.455286 232.661341 
L 99.369291 229.826065 
L 100.283296 226.205036 
L 101.501969 220.406723 
L 103.329979 210.368148 
L 106.985999 189.758852 
L 108.50934 182.416852 
L 109.728014 177.445945 
L 110.946687 173.3701 
L 112.16536 170.202374 
L 113.079365 168.394744 
L 113.99337 167.029717 
L 114.907375 166.051634 
L 115.82138 165.393709 
L 116.735385 164.9815 
L 117.954058 164.678308 
L 120.696073 164.143502 
L 121.914746 163.6125 
L 122.828751 162.995663 
L 123.742756 162.161578 
L 124.961429 160.695569 
L 126.180102 158.843809 
L 127.703444 156.087109 
L 132.578137 146.748324 
L 133.79681 145.107387 
L 134.710815 144.249164 
L 135.62482 143.764602 
L 136.234156 143.667681 
L 136.843493 143.76086 
L 137.452829 144.048877 
L 138.062166 144.533545 
L 138.976171 145.625867 
L 139.890176 147.140696 
L 140.804181 149.0467 
L 142.022854 152.116827 
L 143.546195 156.601934 
L 148.725557 172.638184 
L 149.94423 175.546303 
L 151.162903 177.81954 
L 152.076908 179.058148 
L 152.990913 179.877827 
L 153.60025 180.190802 
L 154.209586 180.321067 
L 154.818923 180.275581 
L 155.428259 180.064257 
L 156.342264 179.464828 
L 157.256269 178.5749 
L 158.474942 177.048967 
L 163.044967 170.853129 
L 163.958972 170.089626 
L 164.872977 169.637024 
L 165.482313 169.530165 
L 166.09165 169.590573 
L 166.700987 169.824526 
L 167.310323 170.235068 
L 168.224328 171.180484 
L 169.138333 172.506869 
L 170.357006 174.811342 
L 171.57568 177.61856 
L 173.708358 183.246144 
L 176.145704 189.600128 
L 177.364377 192.245951 
L 178.278382 193.838952 
L 179.192387 195.021577 
L 179.801724 195.555448 
L 180.41106 195.871719 
L 181.020397 195.962364 
L 181.629734 195.823106 
L 182.23907 195.453567 
L 182.848407 194.857369 
L 183.762412 193.55591 
L 184.676417 191.805167 
L 185.89509 188.881402 
L 187.418431 184.561555 
L 190.769783 174.805863 
L 191.988456 172.0587 
L 192.902461 170.550195 
L 193.511797 169.86385 
L 194.121134 169.463424 
L 194.730471 169.371001 
L 195.339807 169.604605 
L 195.949144 170.177824 
L 196.55848 171.09948 
L 197.167817 172.373374 
L 198.081822 174.940108 
L 198.995827 178.267623 
L 200.2145 183.789848 
L 201.433173 190.363431 
L 203.261183 201.570752 
L 206.612535 222.518561 
L 207.831208 228.901765 
L 208.745213 232.851077 
L 209.659218 235.908507 
L 210.268554 237.383155 
L 210.877891 238.365685 
L 211.487227 238.826536 
L 211.791896 238.853629 
L 212.096564 238.741801 
L 212.705901 238.093641 
L 213.315237 236.870624 
L 213.924574 235.067987 
L 214.53391 232.687811 
L 215.447915 228.056295 
L 216.36192 222.206872 
L 217.580594 212.680055 
L 219.103935 198.448963 
L 221.236613 175.672065 
L 224.587965 139.280964 
L 226.111306 125.116358 
L 227.329979 115.803552 
L 228.243984 110.271531 
L 229.157989 106.141983 
L 229.767326 104.221944 
L 230.376662 102.99574 
L 230.681331 102.647873 
L 230.985999 102.478574 
L 231.290667 102.488552 
L 231.595336 102.67803 
L 231.900004 103.046751 
L 232.50934 104.31846 
L 233.118677 106.291956 
L 233.728014 108.947929 
L 234.642019 114.151218 
L 235.556023 120.708874 
L 236.774697 131.291905 
L 238.298038 146.846623 
L 240.735385 174.684011 
L 243.477399 205.329138 
L 245.000741 219.833384 
L 246.219414 229.343927 
L 247.133419 235.014648 
L 248.047424 239.302975 
L 248.656761 241.353356 
L 249.266097 242.738874 
L 249.875434 243.452149 
L 250.180102 243.556364 
L 250.48477 243.493019 
L 250.789439 243.263212 
L 251.398775 242.310786 
L 252.008112 240.716516 
L 252.617449 238.50448 
L 253.531453 234.096256 
L 254.445458 228.495006 
L 255.664132 219.439601 
L 257.187473 206.175936 
L 260.234156 176.79015 
L 262.366834 157.396264 
L 263.890176 145.745603 
L 265.108849 138.32432 
L 266.022854 134.062264 
L 266.936859 131.020518 
L 267.546195 129.702031 
L 268.155532 128.964413 
L 268.4602 128.815157 
L 268.764869 128.812448 
L 269.069537 128.955955 
L 269.678874 129.678471 
L 270.28821 130.972797 
L 270.897547 132.823372 
L 271.811552 136.594802 
L 272.725557 141.476733 
L 273.94423 149.508867 
L 275.467571 161.516883 
L 277.60025 180.601819 
L 280.951601 210.674848 
L 282.474942 222.232429 
L 283.693616 229.760724 
L 284.607621 234.177417 
L 285.521625 237.403662 
L 286.130962 238.842957 
L 286.740299 239.684563 
L 287.044967 239.875109 
L 287.349635 239.909505 
L 287.654304 239.786162 
L 287.958972 239.503815 
L 288.568309 238.458666 
L 289.177645 236.770457 
L 289.786982 234.440878 
L 290.700987 229.760686 
L 291.614992 223.70023 
L 292.833665 213.60074 
L 294.052338 201.418485 
L 295.57568 183.745961 
L 297.708358 155.827496 
L 302.278382 94.582823 
L 303.801724 77.303277 
L 305.020397 65.687341 
L 305.934402 58.53053 
L 306.848407 52.868275 
L 307.762412 48.818738 
L 308.371748 47.06063 
L 308.981085 46.079008 
L 309.285753 45.883636 
L 309.590422 45.886683 
L 309.89509 46.088727 
L 310.199758 46.489926 
L 310.809095 47.888314 
L 311.418431 50.074642 
L 312.027768 53.034882 
L 312.941773 58.878962 
L 313.855778 66.317609 
L 315.074451 78.485696 
L 316.597793 96.74341 
L 318.425802 121.849271 
L 323.605164 195.145884 
L 325.128505 212.494102 
L 326.347178 223.715508 
L 327.261183 230.328924 
L 328.175188 235.263886 
L 328.784525 237.580659 
L 329.393861 239.101787 
L 330.003198 239.821701 
L 330.307866 239.881692 
L 330.612535 239.74299 
L 330.917203 239.407193 
L 331.526539 238.153223 
L 332.135876 236.142552 
L 332.745213 233.405691 
L 333.659218 228.023702 
L 334.573223 221.251871 
L 335.791896 210.390823 
L 337.315237 194.612719 
L 342.799267 135.023231 
L 344.01794 124.798104 
L 344.931945 118.506433 
L 345.84595 113.543621 
L 346.759955 110.00176 
L 347.369291 108.456982 
L 347.978628 107.572234 
L 348.283296 107.376601 
L 348.587965 107.344014 
L 348.892633 107.472743 
L 349.197301 107.760554 
L 349.806638 108.801997 
L 350.415974 110.44068 
L 351.025311 112.641511 
L 351.939316 116.90303 
L 353.157989 124.108218 
L 354.681331 134.886508 
L 359.251355 168.696808 
L 360.470028 175.492968 
L 361.384033 179.415383 
L 361.99337 181.391133 
L 362.602707 182.816954 
L 363.212043 183.668212 
L 363.516711 183.872823 
L 363.82138 183.928126 
L 364.126048 183.833287 
L 364.430716 183.587982 
L 365.040053 182.647245 
L 365.64939 181.113568 
L 366.258726 179.002685 
L 367.172731 174.807838 
L 368.086736 169.480394 
L 369.305409 160.872492 
L 370.828751 148.312675 
L 371.742756 140.197267 
L 371.742756 140.197267 
" clip-path="url(#pb3237eaae4)" style="fill: none; stroke: #1f77b4; stroke-width: 1.5; stroke-linecap: square"/>
   </g>
   <g id="patch_3">
    <path d="M 52.160938 253.44 
L 52.160938 36 
" style="fill: none; stroke: #000000; stroke-width: 0.8; stroke-linejoin: miter; stroke-linecap: square"/>
   </g>
   <g id="patch_4">
    <path d="M 386.960938 253.44 
L 386.960938 36 
" style="fill: none; stroke: #000000; stroke-width: 0.8; stroke-linejoin: miter; stroke-linecap: square"/>
   </g>
   <g id="patch_5">
    <path d="M 52.160938 253.44 
L 386.960938 253.44 
" style="fill: none; stroke: #000000; stroke-width: 0.8; stroke-linejoin: miter; stroke-linecap: square"/>
   </g>
   <g id="patch_6">
    <path d="M 52.160938 36 
L 386.960938 36 
" style="fill: none; stroke: #000000; stroke-width: 0.8; stroke-linejoin: miter; stroke-linecap: square"/>
   </g>
  </g>
  <g id="text_13">
   <!-- $x(t)$ signal with 10 Hz limit -->
   <g transform="translate(135.020938 16.32) scale(0.12 -0.12)">
    <defs>
     <path id="DejaVuSans-69" d="M 603 3500 
L 1178 3500 
L 1178 0 
L 603 0 
L 603 3500 
z
M 603 4863 
L 1178 4863 
L 1178 4134 
L 603 4134 
L 603 4863 
z
" transform="scale(0.015625)"/>
     <path id="DejaVuSans-67" d="M 2906 1791 
Q 2906 2416 2648 2759 
Q 2391 3103 1925 3103 
Q 1463 3103 1205 2759 
Q 947 2416 947 1791 
Q 947 1169 1205 825 
Q 1463 481 1925 481 
Q 2391 481 2648 825 
Q 2906 1169 2906 1791 
z
M 3481 434 
Q 3481 -459 3084 -895 
Q 2688 -1331 1869 -1331 
Q 1566 -1331 1297 -1286 
Q 1028 -1241 775 -1147 
L 775 -588 
Q 1028 -725 1275 -790 
Q 1522 -856 1778 -856 
Q 2344 -856 2625 -561 
Q 2906 -266 2906 331 
L 2906 616 
Q 2728 306 2450 153 
Q 2172 0 1784 0 
Q 1141 0 747 490 
Q 353 981 353 1791 
Q 353 2603 747 3093 
Q 1141 3584 1784 3584 
Q 2172 3584 2450 3431 
Q 2728 3278 2906 2969 
L 2906 3500 
L 3481 3500 
L 3481 434 
z
" transform="scale(0.015625)"/>
     <path id="DejaVuSans-6e" d="M 3513 2113 
L 3513 0 
L 2938 0 
L 2938 2094 
Q 2938 2591 2744 2837 
Q 2550 3084 2163 3084 
Q 1697 3084 1428 2787 
Q 1159 2491 1159 1978 
L 1159 0 
L 581 0 
L 581 3500 
L 1159 3500 
L 1159 2956 
Q 1366 3272 1645 3428 
Q 1925 3584 2291 3584 
Q 2894 3584 3203 3211 
Q 3513 2838 3513 2113 
z
" transform="scale(0.015625)"/>
     <path id="DejaVuSans-61" d="M 2194 1759 
Q 1497 1759 1228 1600 
Q 959 1441 959 1056 
Q 959 750 1161 570 
Q 1363 391 1709 391 
Q 2188 391 2477 730 
Q 2766 1069 2766 1631 
L 2766 1759 
L 2194 1759 
z
M 3341 1997 
L 3341 0 
L 2766 0 
L 2766 531 
Q 2569 213 2275 61 
Q 1981 -91 1556 -91 
Q 1019 -91 701 211 
Q 384 513 384 1019 
Q 384 1609 779 1909 
Q 1175 2209 1959 2209 
L 2766 2209 
L 2766 2266 
Q 2766 2663 2505 2880 
Q 2244 3097 1772 3097 
Q 1472 3097 1187 3025 
Q 903 2953 641 2809 
L 641 3341 
Q 956 3463 1253 3523 
Q 1550 3584 1831 3584 
Q 2591 3584 2966 3190 
Q 3341 2797 3341 1997 
z
" transform="scale(0.015625)"/>
     <path id="DejaVuSans-6c" d="M 603 4863 
L 1178 4863 
L 1178 0 
L 603 0 
L 603 4863 
z
" transform="scale(0.015625)"/>
     <path id="DejaVuSans-77" d="M 269 3500 
L 844 3500 
L 1563 769 
L 2278 3500 
L 2956 3500 
L 3675 769 
L 4391 3500 
L 4966 3500 
L 4050 0 
L 3372 0 
L 2619 2869 
L 1863 0 
L 1184 0 
L 269 3500 
z
" transform="scale(0.015625)"/>
     <path id="DejaVuSans-74" d="M 1172 4494 
L 1172 3500 
L 2356 3500 
L 2356 3053 
L 1172 3053 
L 1172 1153 
Q 1172 725 1289 603 
Q 1406 481 1766 481 
L 2356 481 
L 2356 0 
L 1766 0 
Q 1100 0 847 248 
Q 594 497 594 1153 
L 594 3053 
L 172 3053 
L 172 3500 
L 594 3500 
L 594 4494 
L 1172 4494 
z
" transform="scale(0.015625)"/>
     <path id="DejaVuSans-68" d="M 3513 2113 
L 3513 0 
L 2938 0 
L 2938 2094 
Q 2938 2591 2744 2837 
Q 2550 3084 2163 3084 
Q 1697 3084 1428 2787 
Q 1159 2491 1159 1978 
L 1159 0 
L 581 0 
L 581 4863 
L 1159 4863 
L 1159 2956 
Q 1366 3272 1645 3428 
Q 1925 3584 2291 3584 
Q 2894 3584 3203 3211 
Q 3513 2838 3513 2113 
z
" transform="scale(0.015625)"/>
     <path id="DejaVuSans-48" d="M 628 4666 
L 1259 4666 
L 1259 2753 
L 3553 2753 
L 3553 4666 
L 4184 4666 
L 4184 0 
L 3553 0 
L 3553 2222 
L 1259 2222 
L 1259 0 
L 628 0 
L 628 4666 
z
" transform="scale(0.015625)"/>
     <path id="DejaVuSans-7a" d="M 353 3500 
L 3084 3500 
L 3084 2975 
L 922 459 
L 3084 459 
L 3084 0 
L 275 0 
L 275 525 
L 2438 3041 
L 353 3041 
L 353 3500 
z
" transform="scale(0.015625)"/>
     <path id="DejaVuSans-6d" d="M 3328 2828 
Q 3544 3216 3844 3400 
Q 4144 3584 4550 3584 
Q 5097 3584 5394 3201 
Q 5691 2819 5691 2113 
L 5691 0 
L 5113 0 
L 5113 2094 
Q 5113 2597 4934 2840 
Q 4756 3084 4391 3084 
Q 3944 3084 3684 2787 
Q 3425 2491 3425 1978 
L 3425 0 
L 2847 0 
L 2847 2094 
Q 2847 2600 2669 2842 
Q 2491 3084 2119 3084 
Q 1678 3084 1418 2786 
Q 1159 2488 1159 1978 
L 1159 0 
L 581 0 
L 581 3500 
L 1159 3500 
L 1159 2956 
Q 1356 3278 1631 3431 
Q 1906 3584 2284 3584 
Q 2666 3584 2933 3390 
Q 3200 3197 3328 2828 
z
" transform="scale(0.015625)"/>
    </defs>
    <use xlink:href="#DejaVuSans-Oblique-78" transform="translate(0 0.015625)"/>
    <use xlink:href="#DejaVuSans-28" transform="translate(59.179688 0.015625)"/>
    <use xlink:href="#DejaVuSans-Oblique-74" transform="translate(98.193359 0.015625)"/>
    <use xlink:href="#DejaVuSans-29" transform="translate(137.402344 0.015625)"/>
    <use xlink:href="#DejaVuSans-20" transform="translate(176.416016 0.015625)"/>
    <use xlink:href="#DejaVuSans-73" transform="translate(208.203125 0.015625)"/>
    <use xlink:href="#DejaVuSans-69" transform="translate(260.302734 0.015625)"/>
    <use xlink:href="#DejaVuSans-67" transform="translate(288.085938 0.015625)"/>
    <use xlink:href="#DejaVuSans-6e" transform="translate(351.5625 0.015625)"/>
    <use xlink:href="#DejaVuSans-61" transform="translate(414.941406 0.015625)"/>
    <use xlink:href="#DejaVuSans-6c" transform="translate(476.220703 0.015625)"/>
    <use xlink:href="#DejaVuSans-20" transform="translate(504.003906 0.015625)"/>
    <use xlink:href="#DejaVuSans-77" transform="translate(535.791016 0.015625)"/>
    <use xlink:href="#DejaVuSans-69" transform="translate(617.578125 0.015625)"/>
    <use xlink:href="#DejaVuSans-74" transform="translate(645.361328 0.015625)"/>
    <use xlink:href="#DejaVuSans-68" transform="translate(684.570312 0.015625)"/>
    <use xlink:href="#DejaVuSans-20" transform="translate(747.949219 0.015625)"/>
    <use xlink:href="#DejaVuSans-31" transform="translate(779.736328 0.015625)"/>
    <use xlink:href="#DejaVuSans-30" transform="translate(843.359375 0.015625)"/>
    <use xlink:href="#DejaVuSans-20" transform="translate(906.982422 0.015625)"/>
    <use xlink:href="#DejaVuSans-48" transform="translate(938.769531 0.015625)"/>
    <use xlink:href="#DejaVuSans-7a" transform="translate(1013.964844 0.015625)"/>
    <use xlink:href="#DejaVuSans-20" transform="translate(1066.455078 0.015625)"/>
    <use xlink:href="#DejaVuSans-6c" transform="translate(1098.242188 0.015625)"/>
    <use xlink:href="#DejaVuSans-69" transform="translate(1126.025391 0.015625)"/>
    <use xlink:href="#DejaVuSans-6d" transform="translate(1153.808594 0.015625)"/>
    <use xlink:href="#DejaVuSans-69" transform="translate(1251.220703 0.015625)"/>
    <use xlink:href="#DejaVuSans-74" transform="translate(1279.003906 0.015625)"/>
   </g>
  </g>
 </g>
 <defs>
  <clipPath id="pb3237eaae4">
   <rect x="52.160938" y="36" width="334.8" height="217.44"/>
  </clipPath>
 </defs>
</svg>
