<?xml version="1.0" encoding="utf-8" standalone="no"?>
<!DOCTYPE svg PUBLIC "-//W3C//DTD SVG 1.1//EN"
  "http://www.w3.org/Graphics/SVG/1.1/DTD/svg11.dtd">
<svg xmlns:xlink="http://www.w3.org/1999/xlink" width="636pt" height="290.99625pt" viewBox="0 0 636 290.99625" xmlns="http://www.w3.org/2000/svg" version="1.1">
 <metadata>
  <rdf:RDF xmlns:dc="http://purl.org/dc/elements/1.1/" xmlns:cc="http://creativecommons.org/ns#" xmlns:rdf="http://www.w3.org/1999/02/22-rdf-syntax-ns#">
   <cc:Work>
    <dc:type rdf:resource="http://purl.org/dc/dcmitype/StillImage"/>
    <dc:date>2022-10-17T16:33:56.077353</dc:date>
    <dc:format>image/svg+xml</dc:format>
    <dc:creator>
     <cc:Agent>
      <dc:title>Matplotlib v3.6.0, https://matplotlib.org/</dc:title>
     </cc:Agent>
    </dc:creator>
   </cc:Work>
  </rdf:RDF>
 </metadata>
 <defs>
  <style type="text/css">*{stroke-linejoin: round; stroke-linecap: butt}</style>
 </defs>
 <g id="figure_1">
  <g id="patch_1">
   <path d="M 0 290.99625 
L 636 290.99625 
L 636 0 
L 0 0 
L 0 290.99625 
z
" style="fill: none"/>
  </g>
  <g id="axes_1">
   <g id="patch_2">
    <path d="M 156 253.44 
L 490.8 253.44 
L 490.8 36 
L 156 36 
z
" style="fill: #ffffff"/>
   </g>
   <g id="matplotlib.axis_1">
    <g id="xtick_1">
     <g id="line2d_1">
      <defs>
       <path id="m8106998788" d="M 0 0 
L 0 3.5 
" style="stroke: #000000; stroke-width: 0.8"/>
      </defs>
      <g>
       <use xlink:href="#m8106998788" x="156" y="253.44" style="stroke: #000000; stroke-width: 0.8"/>
      </g>
     </g>
     <g id="text_1">
      <!-- 0.00 -->
      <g transform="translate(144.867188 268.038437) scale(0.1 -0.1)">
       <defs>
        <path id="DejaVuSans-30" d="M 2034 4250 
Q 1547 4250 1301 3770 
Q 1056 3291 1056 2328 
Q 1056 1369 1301 889 
Q 1547 409 2034 409 
Q 2525 409 2770 889 
Q 3016 1369 3016 2328 
Q 3016 3291 2770 3770 
Q 2525 4250 2034 4250 
z
M 2034 4750 
Q 2819 4750 3233 4129 
Q 3647 3509 3647 2328 
Q 3647 1150 3233 529 
Q 2819 -91 2034 -91 
Q 1250 -91 836 529 
Q 422 1150 422 2328 
Q 422 3509 836 4129 
Q 1250 4750 2034 4750 
z
" transform="scale(0.015625)"/>
        <path id="DejaVuSans-2e" d="M 684 794 
L 1344 794 
L 1344 0 
L 684 0 
L 684 794 
z
" transform="scale(0.015625)"/>
       </defs>
       <use xlink:href="#DejaVuSans-30"/>
       <use xlink:href="#DejaVuSans-2e" x="63.623047"/>
       <use xlink:href="#DejaVuSans-30" x="95.410156"/>
       <use xlink:href="#DejaVuSans-30" x="159.033203"/>
      </g>
     </g>
    </g>
    <g id="xtick_2">
     <g id="line2d_2">
      <g>
       <use xlink:href="#m8106998788" x="197.85" y="253.44" style="stroke: #000000; stroke-width: 0.8"/>
      </g>
     </g>
     <g id="text_2">
      <!-- 0.25 -->
      <g transform="translate(186.717187 268.038437) scale(0.1 -0.1)">
       <defs>
        <path id="DejaVuSans-32" d="M 1228 531 
L 3431 531 
L 3431 0 
L 469 0 
L 469 531 
Q 828 903 1448 1529 
Q 2069 2156 2228 2338 
Q 2531 2678 2651 2914 
Q 2772 3150 2772 3378 
Q 2772 3750 2511 3984 
Q 2250 4219 1831 4219 
Q 1534 4219 1204 4116 
Q 875 4013 500 3803 
L 500 4441 
Q 881 4594 1212 4672 
Q 1544 4750 1819 4750 
Q 2544 4750 2975 4387 
Q 3406 4025 3406 3419 
Q 3406 3131 3298 2873 
Q 3191 2616 2906 2266 
Q 2828 2175 2409 1742 
Q 1991 1309 1228 531 
z
" transform="scale(0.015625)"/>
        <path id="DejaVuSans-35" d="M 691 4666 
L 3169 4666 
L 3169 4134 
L 1269 4134 
L 1269 2991 
Q 1406 3038 1543 3061 
Q 1681 3084 1819 3084 
Q 2600 3084 3056 2656 
Q 3513 2228 3513 1497 
Q 3513 744 3044 326 
Q 2575 -91 1722 -91 
Q 1428 -91 1123 -41 
Q 819 9 494 109 
L 494 744 
Q 775 591 1075 516 
Q 1375 441 1709 441 
Q 2250 441 2565 725 
Q 2881 1009 2881 1497 
Q 2881 1984 2565 2268 
Q 2250 2553 1709 2553 
Q 1456 2553 1204 2497 
Q 953 2441 691 2322 
L 691 4666 
z
" transform="scale(0.015625)"/>
       </defs>
       <use xlink:href="#DejaVuSans-30"/>
       <use xlink:href="#DejaVuSans-2e" x="63.623047"/>
       <use xlink:href="#DejaVuSans-32" x="95.410156"/>
       <use xlink:href="#DejaVuSans-35" x="159.033203"/>
      </g>
     </g>
    </g>
    <g id="xtick_3">
     <g id="line2d_3">
      <g>
       <use xlink:href="#m8106998788" x="239.7" y="253.44" style="stroke: #000000; stroke-width: 0.8"/>
      </g>
     </g>
     <g id="text_3">
      <!-- 0.50 -->
      <g transform="translate(228.567187 268.038437) scale(0.1 -0.1)">
       <use xlink:href="#DejaVuSans-30"/>
       <use xlink:href="#DejaVuSans-2e" x="63.623047"/>
       <use xlink:href="#DejaVuSans-35" x="95.410156"/>
       <use xlink:href="#DejaVuSans-30" x="159.033203"/>
      </g>
     </g>
    </g>
    <g id="xtick_4">
     <g id="line2d_4">
      <g>
       <use xlink:href="#m8106998788" x="281.55" y="253.44" style="stroke: #000000; stroke-width: 0.8"/>
      </g>
     </g>
     <g id="text_4">
      <!-- 0.75 -->
      <g transform="translate(270.417188 268.038437) scale(0.1 -0.1)">
       <defs>
        <path id="DejaVuSans-37" d="M 525 4666 
L 3525 4666 
L 3525 4397 
L 1831 0 
L 1172 0 
L 2766 4134 
L 525 4134 
L 525 4666 
z
" transform="scale(0.015625)"/>
       </defs>
       <use xlink:href="#DejaVuSans-30"/>
       <use xlink:href="#DejaVuSans-2e" x="63.623047"/>
       <use xlink:href="#DejaVuSans-37" x="95.410156"/>
       <use xlink:href="#DejaVuSans-35" x="159.033203"/>
      </g>
     </g>
    </g>
    <g id="xtick_5">
     <g id="line2d_5">
      <g>
       <use xlink:href="#m8106998788" x="323.4" y="253.44" style="stroke: #000000; stroke-width: 0.8"/>
      </g>
     </g>
     <g id="text_5">
      <!-- 1.00 -->
      <g transform="translate(312.267187 268.038437) scale(0.1 -0.1)">
       <defs>
        <path id="DejaVuSans-31" d="M 794 531 
L 1825 531 
L 1825 4091 
L 703 3866 
L 703 4441 
L 1819 4666 
L 2450 4666 
L 2450 531 
L 3481 531 
L 3481 0 
L 794 0 
L 794 531 
z
" transform="scale(0.015625)"/>
       </defs>
       <use xlink:href="#DejaVuSans-31"/>
       <use xlink:href="#DejaVuSans-2e" x="63.623047"/>
       <use xlink:href="#DejaVuSans-30" x="95.410156"/>
       <use xlink:href="#DejaVuSans-30" x="159.033203"/>
      </g>
     </g>
    </g>
    <g id="xtick_6">
     <g id="line2d_6">
      <g>
       <use xlink:href="#m8106998788" x="365.25" y="253.44" style="stroke: #000000; stroke-width: 0.8"/>
      </g>
     </g>
     <g id="text_6">
      <!-- 1.25 -->
      <g transform="translate(354.117188 268.038437) scale(0.1 -0.1)">
       <use xlink:href="#DejaVuSans-31"/>
       <use xlink:href="#DejaVuSans-2e" x="63.623047"/>
       <use xlink:href="#DejaVuSans-32" x="95.410156"/>
       <use xlink:href="#DejaVuSans-35" x="159.033203"/>
      </g>
     </g>
    </g>
    <g id="xtick_7">
     <g id="line2d_7">
      <g>
       <use xlink:href="#m8106998788" x="407.1" y="253.44" style="stroke: #000000; stroke-width: 0.8"/>
      </g>
     </g>
     <g id="text_7">
      <!-- 1.50 -->
      <g transform="translate(395.967188 268.038437) scale(0.1 -0.1)">
       <use xlink:href="#DejaVuSans-31"/>
       <use xlink:href="#DejaVuSans-2e" x="63.623047"/>
       <use xlink:href="#DejaVuSans-35" x="95.410156"/>
       <use xlink:href="#DejaVuSans-30" x="159.033203"/>
      </g>
     </g>
    </g>
    <g id="xtick_8">
     <g id="line2d_8">
      <g>
       <use xlink:href="#m8106998788" x="448.95" y="253.44" style="stroke: #000000; stroke-width: 0.8"/>
      </g>
     </g>
     <g id="text_8">
      <!-- 1.75 -->
      <g transform="translate(437.817187 268.038437) scale(0.1 -0.1)">
       <use xlink:href="#DejaVuSans-31"/>
       <use xlink:href="#DejaVuSans-2e" x="63.623047"/>
       <use xlink:href="#DejaVuSans-37" x="95.410156"/>
       <use xlink:href="#DejaVuSans-35" x="159.033203"/>
      </g>
     </g>
    </g>
    <g id="xtick_9">
     <g id="line2d_9">
      <g>
       <use xlink:href="#m8106998788" x="490.8" y="253.44" style="stroke: #000000; stroke-width: 0.8"/>
      </g>
     </g>
     <g id="text_9">
      <!-- 2.00 -->
      <g transform="translate(479.667188 268.038437) scale(0.1 -0.1)">
       <use xlink:href="#DejaVuSans-32"/>
       <use xlink:href="#DejaVuSans-2e" x="63.623047"/>
       <use xlink:href="#DejaVuSans-30" x="95.410156"/>
       <use xlink:href="#DejaVuSans-30" x="159.033203"/>
      </g>
     </g>
    </g>
    <g id="text_10">
     <!-- $t$ sec. -->
     <g transform="translate(309.8 281.716562) scale(0.1 -0.1)">
      <defs>
       <path id="DejaVuSans-Oblique-74" d="M 2706 3500 
L 2619 3053 
L 1472 3053 
L 1100 1153 
Q 1081 1047 1072 975 
Q 1063 903 1063 863 
Q 1063 663 1183 572 
Q 1303 481 1569 481 
L 2150 481 
L 2053 0 
L 1503 0 
Q 991 0 739 200 
Q 488 400 488 806 
Q 488 878 497 964 
Q 506 1050 525 1153 
L 897 3053 
L 409 3053 
L 500 3500 
L 978 3500 
L 1172 4494 
L 1747 4494 
L 1556 3500 
L 2706 3500 
z
" transform="scale(0.015625)"/>
       <path id="DejaVuSans-20" transform="scale(0.015625)"/>
       <path id="DejaVuSans-73" d="M 2834 3397 
L 2834 2853 
Q 2591 2978 2328 3040 
Q 2066 3103 1784 3103 
Q 1356 3103 1142 2972 
Q 928 2841 928 2578 
Q 928 2378 1081 2264 
Q 1234 2150 1697 2047 
L 1894 2003 
Q 2506 1872 2764 1633 
Q 3022 1394 3022 966 
Q 3022 478 2636 193 
Q 2250 -91 1575 -91 
Q 1294 -91 989 -36 
Q 684 19 347 128 
L 347 722 
Q 666 556 975 473 
Q 1284 391 1588 391 
Q 1994 391 2212 530 
Q 2431 669 2431 922 
Q 2431 1156 2273 1281 
Q 2116 1406 1581 1522 
L 1381 1569 
Q 847 1681 609 1914 
Q 372 2147 372 2553 
Q 372 3047 722 3315 
Q 1072 3584 1716 3584 
Q 2034 3584 2315 3537 
Q 2597 3491 2834 3397 
z
" transform="scale(0.015625)"/>
       <path id="DejaVuSans-65" d="M 3597 1894 
L 3597 1613 
L 953 1613 
Q 991 1019 1311 708 
Q 1631 397 2203 397 
Q 2534 397 2845 478 
Q 3156 559 3463 722 
L 3463 178 
Q 3153 47 2828 -22 
Q 2503 -91 2169 -91 
Q 1331 -91 842 396 
Q 353 884 353 1716 
Q 353 2575 817 3079 
Q 1281 3584 2069 3584 
Q 2775 3584 3186 3129 
Q 3597 2675 3597 1894 
z
M 3022 2063 
Q 3016 2534 2758 2815 
Q 2500 3097 2075 3097 
Q 1594 3097 1305 2825 
Q 1016 2553 972 2059 
L 3022 2063 
z
" transform="scale(0.015625)"/>
       <path id="DejaVuSans-63" d="M 3122 3366 
L 3122 2828 
Q 2878 2963 2633 3030 
Q 2388 3097 2138 3097 
Q 1578 3097 1268 2742 
Q 959 2388 959 1747 
Q 959 1106 1268 751 
Q 1578 397 2138 397 
Q 2388 397 2633 464 
Q 2878 531 3122 666 
L 3122 134 
Q 2881 22 2623 -34 
Q 2366 -91 2075 -91 
Q 1284 -91 818 406 
Q 353 903 353 1747 
Q 353 2603 823 3093 
Q 1294 3584 2113 3584 
Q 2378 3584 2631 3529 
Q 2884 3475 3122 3366 
z
" transform="scale(0.015625)"/>
      </defs>
      <use xlink:href="#DejaVuSans-Oblique-74" transform="translate(0 0.78125)"/>
      <use xlink:href="#DejaVuSans-20" transform="translate(39.208984 0.78125)"/>
      <use xlink:href="#DejaVuSans-73" transform="translate(70.996094 0.78125)"/>
      <use xlink:href="#DejaVuSans-65" transform="translate(123.095703 0.78125)"/>
      <use xlink:href="#DejaVuSans-63" transform="translate(184.619141 0.78125)"/>
      <use xlink:href="#DejaVuSans-2e" transform="translate(239.599609 0.78125)"/>
     </g>
    </g>
   </g>
   <g id="matplotlib.axis_2">
    <g id="ytick_1">
     <g id="line2d_10">
      <defs>
       <path id="mdda61084d1" d="M 0 0 
L -3.5 0 
" style="stroke: #000000; stroke-width: 0.8"/>
      </defs>
      <g>
       <use xlink:href="#mdda61084d1" x="156" y="216.905428" style="stroke: #000000; stroke-width: 0.8"/>
      </g>
     </g>
     <g id="text_11">
      <!-- −0.5 -->
      <g transform="translate(124.717187 220.704647) scale(0.1 -0.1)">
       <defs>
        <path id="DejaVuSans-2212" d="M 678 2272 
L 4684 2272 
L 4684 1741 
L 678 1741 
L 678 2272 
z
" transform="scale(0.015625)"/>
       </defs>
       <use xlink:href="#DejaVuSans-2212"/>
       <use xlink:href="#DejaVuSans-30" x="83.789062"/>
       <use xlink:href="#DejaVuSans-2e" x="147.412109"/>
       <use xlink:href="#DejaVuSans-35" x="179.199219"/>
      </g>
     </g>
    </g>
    <g id="ytick_2">
     <g id="line2d_11">
      <g>
       <use xlink:href="#mdda61084d1" x="156" y="171.685052" style="stroke: #000000; stroke-width: 0.8"/>
      </g>
     </g>
     <g id="text_12">
      <!-- 0.0 -->
      <g transform="translate(133.096875 175.484271) scale(0.1 -0.1)">
       <use xlink:href="#DejaVuSans-30"/>
       <use xlink:href="#DejaVuSans-2e" x="63.623047"/>
       <use xlink:href="#DejaVuSans-30" x="95.410156"/>
      </g>
     </g>
    </g>
    <g id="ytick_3">
     <g id="line2d_12">
      <g>
       <use xlink:href="#mdda61084d1" x="156" y="126.464676" style="stroke: #000000; stroke-width: 0.8"/>
      </g>
     </g>
     <g id="text_13">
      <!-- 0.5 -->
      <g transform="translate(133.096875 130.263895) scale(0.1 -0.1)">
       <use xlink:href="#DejaVuSans-30"/>
       <use xlink:href="#DejaVuSans-2e" x="63.623047"/>
       <use xlink:href="#DejaVuSans-35" x="95.410156"/>
      </g>
     </g>
    </g>
    <g id="ytick_4">
     <g id="line2d_13">
      <g>
       <use xlink:href="#mdda61084d1" x="156" y="81.2443" style="stroke: #000000; stroke-width: 0.8"/>
      </g>
     </g>
     <g id="text_14">
      <!-- 1.0 -->
      <g transform="translate(133.096875 85.043519) scale(0.1 -0.1)">
       <use xlink:href="#DejaVuSans-31"/>
       <use xlink:href="#DejaVuSans-2e" x="63.623047"/>
       <use xlink:href="#DejaVuSans-30" x="95.410156"/>
      </g>
     </g>
    </g>
    <g id="ytick_5">
     <g id="line2d_14">
      <g>
       <use xlink:href="#mdda61084d1" x="156" y="36.023924" style="stroke: #000000; stroke-width: 0.8"/>
      </g>
     </g>
     <g id="text_15">
      <!-- 1.5 -->
      <g transform="translate(133.096875 39.823142) scale(0.1 -0.1)">
       <use xlink:href="#DejaVuSans-31"/>
       <use xlink:href="#DejaVuSans-2e" x="63.623047"/>
       <use xlink:href="#DejaVuSans-35" x="95.410156"/>
      </g>
     </g>
    </g>
    <g id="text_16">
     <!-- Voltage -->
     <g transform="translate(118.6375 163.47625) rotate(-90) scale(0.1 -0.1)">
      <defs>
       <path id="DejaVuSans-56" d="M 1831 0 
L 50 4666 
L 709 4666 
L 2188 738 
L 3669 4666 
L 4325 4666 
L 2547 0 
L 1831 0 
z
" transform="scale(0.015625)"/>
       <path id="DejaVuSans-6f" d="M 1959 3097 
Q 1497 3097 1228 2736 
Q 959 2375 959 1747 
Q 959 1119 1226 758 
Q 1494 397 1959 397 
Q 2419 397 2687 759 
Q 2956 1122 2956 1747 
Q 2956 2369 2687 2733 
Q 2419 3097 1959 3097 
z
M 1959 3584 
Q 2709 3584 3137 3096 
Q 3566 2609 3566 1747 
Q 3566 888 3137 398 
Q 2709 -91 1959 -91 
Q 1206 -91 779 398 
Q 353 888 353 1747 
Q 353 2609 779 3096 
Q 1206 3584 1959 3584 
z
" transform="scale(0.015625)"/>
       <path id="DejaVuSans-6c" d="M 603 4863 
L 1178 4863 
L 1178 0 
L 603 0 
L 603 4863 
z
" transform="scale(0.015625)"/>
       <path id="DejaVuSans-74" d="M 1172 4494 
L 1172 3500 
L 2356 3500 
L 2356 3053 
L 1172 3053 
L 1172 1153 
Q 1172 725 1289 603 
Q 1406 481 1766 481 
L 2356 481 
L 2356 0 
L 1766 0 
Q 1100 0 847 248 
Q 594 497 594 1153 
L 594 3053 
L 172 3053 
L 172 3500 
L 594 3500 
L 594 4494 
L 1172 4494 
z
" transform="scale(0.015625)"/>
       <path id="DejaVuSans-61" d="M 2194 1759 
Q 1497 1759 1228 1600 
Q 959 1441 959 1056 
Q 959 750 1161 570 
Q 1363 391 1709 391 
Q 2188 391 2477 730 
Q 2766 1069 2766 1631 
L 2766 1759 
L 2194 1759 
z
M 3341 1997 
L 3341 0 
L 2766 0 
L 2766 531 
Q 2569 213 2275 61 
Q 1981 -91 1556 -91 
Q 1019 -91 701 211 
Q 384 513 384 1019 
Q 384 1609 779 1909 
Q 1175 2209 1959 2209 
L 2766 2209 
L 2766 2266 
Q 2766 2663 2505 2880 
Q 2244 3097 1772 3097 
Q 1472 3097 1187 3025 
Q 903 2953 641 2809 
L 641 3341 
Q 956 3463 1253 3523 
Q 1550 3584 1831 3584 
Q 2591 3584 2966 3190 
Q 3341 2797 3341 1997 
z
" transform="scale(0.015625)"/>
       <path id="DejaVuSans-67" d="M 2906 1791 
Q 2906 2416 2648 2759 
Q 2391 3103 1925 3103 
Q 1463 3103 1205 2759 
Q 947 2416 947 1791 
Q 947 1169 1205 825 
Q 1463 481 1925 481 
Q 2391 481 2648 825 
Q 2906 1169 2906 1791 
z
M 3481 434 
Q 3481 -459 3084 -895 
Q 2688 -1331 1869 -1331 
Q 1566 -1331 1297 -1286 
Q 1028 -1241 775 -1147 
L 775 -588 
Q 1028 -725 1275 -790 
Q 1522 -856 1778 -856 
Q 2344 -856 2625 -561 
Q 2906 -266 2906 331 
L 2906 616 
Q 2728 306 2450 153 
Q 2172 0 1784 0 
Q 1141 0 747 490 
Q 353 981 353 1791 
Q 353 2603 747 3093 
Q 1141 3584 1784 3584 
Q 2172 3584 2450 3431 
Q 2728 3278 2906 2969 
L 2906 3500 
L 3481 3500 
L 3481 434 
z
" transform="scale(0.015625)"/>
      </defs>
      <use xlink:href="#DejaVuSans-56"/>
      <use xlink:href="#DejaVuSans-6f" x="60.658203"/>
      <use xlink:href="#DejaVuSans-6c" x="121.839844"/>
      <use xlink:href="#DejaVuSans-74" x="149.623047"/>
      <use xlink:href="#DejaVuSans-61" x="188.832031"/>
      <use xlink:href="#DejaVuSans-67" x="250.111328"/>
      <use xlink:href="#DejaVuSans-65" x="313.587891"/>
     </g>
    </g>
   </g>
   <g id="line2d_15">
    <path d="M 156 169.700886 
L 156.5022 165.372887 
L 156.837 163.709082 
L 157.1718 162.908417 
L 157.3392 162.80348 
L 157.5066 162.881222 
L 157.8414 163.544285 
L 158.1762 164.820233 
L 158.6784 167.726988 
L 159.1806 171.628316 
L 159.6828 171.685052 
L 172.4052 171.619792 
L 172.74 170.902791 
L 173.0748 169.450153 
L 173.577 166.006077 
L 174.2466 159.305123 
L 175.0836 148.032602 
L 176.088 131.069428 
L 177.4272 104.172983 
L 178.4316 81.889927 
L 178.599 58.634112 
L 178.7664 171.685052 
L 179.9382 114.955321 
L 180.6078 86.68595 
L 180.7752 58.634112 
L 180.9426 171.685052 
L 181.947 109.688838 
L 182.4492 83.199668 
L 182.6166 58.634112 
L 182.784 171.685052 
L 183.7884 101.430644 
L 184.1232 81.580838 
L 184.2906 58.634112 
L 184.458 171.685052 
L 185.4624 96.31599 
L 185.6298 85.630071 
L 185.7972 58.634112 
L 185.9646 171.685052 
L 186.8016 105.220831 
L 187.1364 82.861407 
L 187.3038 58.634112 
L 187.4712 171.685052 
L 188.3082 104.576308 
L 188.643 82.258475 
L 188.8104 58.634112 
L 188.9778 171.685052 
L 189.8148 105.450496 
L 190.1496 83.653106 
L 190.317 58.634112 
L 190.4844 171.685052 
L 191.3214 107.650627 
L 191.6562 86.777515 
L 191.8236 58.634112 
L 191.991 171.685052 
L 192.828 110.924731 
L 193.3302 82.347671 
L 193.4976 58.634112 
L 193.665 171.685052 
L 194.502 115.468061 
L 195.1716 81.625443 
L 195.339 58.634112 
L 195.5064 171.685052 
L 196.3434 121.080096 
L 197.1804 84.54374 
L 197.3478 58.634112 
L 197.5152 171.685052 
L 198.3522 127.320982 
L 199.1892 95.486392 
L 199.524 85.576273 
L 199.6914 58.634112 
L 199.8588 171.685052 
L 200.6958 133.983026 
L 201.5328 106.897879 
L 202.3698 87.838409 
L 202.7046 81.993418 
L 202.872 58.634112 
L 203.0394 171.685052 
L 203.8764 140.870236 
L 204.7134 118.342399 
L 205.5504 102.018835 
L 206.3874 90.296948 
L 207.2244 81.950526 
L 207.3918 58.634112 
L 207.5592 171.685052 
L 208.3962 145.664232 
L 209.2332 125.8892 
L 210.0702 110.835899 
L 210.9072 99.351589 
L 211.7442 90.571471 
L 212.5812 83.853318 
L 212.916 81.63312 
L 213.0834 58.634112 
L 213.2508 171.685052 
L 214.0878 146.758423 
L 214.9248 127.592485 
L 215.7618 112.940097 
L 216.5988 101.851832 
L 217.4358 93.604702 
L 218.2728 87.646719 
L 218.9424 84.240159 
L 219.612 81.853207 
L 219.7794 81.398554 
L 219.9468 58.634112 
L 220.1142 171.685052 
L 220.9512 150.03652 
L 221.7882 134.073059 
L 222.6252 122.569226 
L 223.2948 115.92115 
L 223.9644 111.104857 
L 224.634 107.784915 
L 225.3036 105.678475 
L 225.8058 104.749052 
L 226.308 104.277945 
L 226.8102 104.186104 
L 227.3124 104.402507 
L 227.8146 104.8631 
L 228.6516 106.018377 
L 230.1582 108.674074 
L 231.4974 110.914995 
L 232.3344 111.974017 
L 233.004 112.536073 
L 233.6736 112.792519 
L 234.1758 112.760694 
L 234.678 112.521917 
L 235.1802 112.065789 
L 235.8498 111.106543 
L 236.5194 109.736402 
L 237.3564 107.442144 
L 238.1934 104.513167 
L 239.1978 100.203257 
L 240.3696 94.18653 
L 241.8762 85.177187 
L 242.3784 81.9321 
L 242.5458 58.634112 
L 242.7132 171.685052 
L 243.7176 140.515404 
L 244.722 115.68768 
L 245.7264 95.674475 
L 246.5634 81.886806 
L 246.7308 58.634112 
L 246.8982 171.685052 
L 247.9026 133.748006 
L 248.907 104.842945 
L 249.9114 82.86286 
L 250.0788 58.634112 
L 250.2462 171.685052 
L 251.0832 137.361246 
L 251.9202 110.725107 
L 252.7572 90.197844 
L 253.092 83.411339 
L 253.2594 58.634112 
L 253.4268 171.685052 
L 254.2638 137.878082 
L 255.1008 112.170974 
L 255.9378 92.824023 
L 256.44 83.68576 
L 256.6074 58.634112 
L 256.7748 171.685052 
L 257.6118 140.141151 
L 258.4488 116.400466 
L 259.2858 98.683529 
L 260.1228 85.586044 
L 260.4576 81.383007 
L 260.625 58.634112 
L 260.7924 171.685052 
L 261.6294 142.986951 
L 262.4664 121.143575 
L 263.3034 104.475866 
L 264.1404 91.669293 
L 264.9774 81.695519 
L 265.1448 58.634112 
L 265.3122 171.685052 
L 266.1492 143.248136 
L 267.1536 116.875998 
L 268.158 96.584699 
L 268.995 82.965539 
L 269.1624 58.634112 
L 269.3298 171.685052 
L 270.3342 134.119404 
L 271.3386 104.950221 
L 272.343 81.842009 
L 272.5104 58.634112 
L 272.6778 171.685052 
L 273.6822 128.603278 
L 274.6866 95.237768 
L 275.1888 81.392065 
L 275.3562 58.634112 
L 275.5236 171.685052 
L 276.528 124.077326 
L 277.5324 87.798766 
L 277.6998 82.648147 
L 277.8672 58.634112 
L 278.0346 171.685052 
L 278.8716 128.762897 
L 279.7086 95.101114 
L 280.0434 83.788684 
L 280.2108 58.634112 
L 280.3782 171.685052 
L 281.2152 128.013056 
L 282.0522 94.349492 
L 282.387 83.210156 
L 282.5544 58.634112 
L 282.7218 171.685052 
L 283.5588 128.905696 
L 284.3958 96.508477 
L 284.7306 85.953948 
L 284.898 58.634112 
L 285.0654 171.685052 
L 285.9024 131.32007 
L 286.7394 101.239126 
L 287.409 83.07097 
L 287.5764 58.634112 
L 287.7438 171.685052 
L 288.5808 135.337669 
L 289.4178 108.58278 
L 290.2548 89.236912 
L 290.5896 83.172579 
L 290.757 58.634112 
L 290.9244 171.685052 
L 291.7614 140.338409 
L 292.5984 117.179143 
L 293.4354 100.184633 
L 294.2724 87.752506 
L 294.7746 81.941913 
L 294.942 58.634112 
L 295.1094 171.685052 
L 295.9464 143.760483 
L 296.7834 122.0646 
L 297.7878 101.85607 
L 298.7922 85.889416 
L 298.9596 83.515988 
L 299.127 58.634112 
L 299.2944 171.685052 
L 300.2988 134.528723 
L 301.3032 104.766756 
L 302.1402 83.834299 
L 302.3076 58.634112 
L 302.475 171.685052 
L 303.4794 125.223337 
L 304.6512 81.67782 
L 304.8186 58.634112 
L 304.986 171.685052 
L 305.9904 115.516319 
L 306.66 84.257556 
L 306.8274 58.634112 
L 306.9948 171.685052 
L 307.9992 107.391244 
L 308.334 89.069118 
L 308.5014 58.634112 
L 308.6688 171.685052 
L 309.6732 101.130929 
L 309.8406 90.982682 
L 310.008 58.634112 
L 310.1754 171.685052 
L 311.1798 96.398908 
L 311.3472 85.673156 
L 311.5146 58.634112 
L 311.682 171.685052 
L 312.6864 92.924856 
L 312.8538 81.821171 
L 313.0212 58.634112 
L 313.1886 171.685052 
L 314.0256 102.864309 
L 314.193 91.04051 
L 314.3604 58.634112 
L 314.5278 171.685052 
L 315.3648 102.659354 
L 315.5322 90.905105 
L 315.6996 58.634112 
L 315.867 171.685052 
L 316.704 103.787142 
L 317.0388 81.522014 
L 317.2062 58.634112 
L 317.3736 171.685052 
L 318.2106 106.692878 
L 318.5454 85.677505 
L 318.7128 58.634112 
L 318.8802 171.685052 
L 319.7172 111.286086 
L 320.2194 83.390432 
L 320.3868 58.634112 
L 320.5542 171.685052 
L 321.3912 118.184251 
L 322.0608 87.189746 
L 322.2282 58.634112 
L 322.3956 171.685052 
L 323.0652 135.084924 
L 323.7348 108.332109 
L 324.4044 89.70969 
L 324.7392 82.991064 
L 324.9066 58.634112 
L 325.074 171.685052 
L 325.7436 147.85125 
L 326.4132 131.745364 
L 326.9154 123.853547 
L 327.4176 118.961909 
L 327.7524 117.13786 
L 328.0872 116.318886 
L 328.2546 116.250693 
L 328.422 116.392177 
L 328.7568 117.253768 
L 329.259 119.816332 
L 329.9286 125.155794 
L 330.7656 134.078614 
L 332.1048 151.25504 
L 333.6114 171.36884 
L 333.7788 171.685052 
L 340.977 171.685052 
L 341.1444 171.572329 
L 341.4792 170.864894 
L 341.814 169.541246 
L 342.3162 166.466966 
L 342.9858 160.487712 
L 343.8228 150.302519 
L 344.8272 134.648499 
L 345.999 112.52477 
L 347.3382 83.46114 
L 347.5056 58.634112 
L 347.673 171.685052 
L 349.0122 107.41946 
L 349.5144 86.116503 
L 349.6818 58.634112 
L 349.8492 171.685052 
L 351.021 98.712388 
L 351.1884 89.577366 
L 351.3558 58.634112 
L 351.5232 171.685052 
L 352.5276 99.172439 
L 352.695 88.631844 
L 352.8624 58.634112 
L 353.0298 171.685052 
L 354.0342 93.080953 
L 354.2016 81.841868 
L 354.369 58.634112 
L 354.5364 171.685052 
L 355.7082 58.634112 
L 355.8756 171.685052 
L 356.7126 99.924337 
L 356.88 87.619027 
L 357.0474 58.634112 
L 357.2148 171.685052 
L 358.0518 100.0926 
L 358.2192 87.942151 
L 358.3866 58.634112 
L 358.554 171.685052 
L 359.391 101.809997 
L 359.5584 90.072622 
L 359.7258 58.634112 
L 359.8932 171.685052 
L 360.7302 104.969884 
L 361.065 83.466345 
L 361.2324 58.634112 
L 361.3998 171.685052 
L 362.2368 110.041092 
L 362.739 81.630155 
L 362.9064 58.634112 
L 363.0738 171.685052 
L 363.9108 117.189702 
L 364.5804 85.542791 
L 364.7478 58.634112 
L 364.9152 171.685052 
L 365.7522 126.295256 
L 366.4218 100.691362 
L 367.0914 82.731348 
L 367.2588 58.634112 
L 367.4262 171.685052 
L 368.0958 144.878456 
L 368.7654 125.868117 
L 369.435 113.126909 
L 369.9372 106.911452 
L 370.4394 103.044483 
L 370.7742 101.571089 
L 371.109 100.855851 
L 371.2764 100.751729 
L 371.4438 100.801206 
L 371.7786 101.317625 
L 372.1134 102.322895 
L 372.6156 104.583854 
L 373.2852 108.654275 
L 374.457 117.411781 
L 376.4658 132.532186 
L 377.4702 138.361362 
L 378.1398 141.196039 
L 378.8094 143.044311 
L 379.3116 143.726637 
L 379.6464 143.829298 
L 379.9812 143.642032 
L 380.316 143.15948 
L 380.8182 141.87366 
L 381.3204 139.906931 
L 381.99 136.223597 
L 382.827 129.935055 
L 383.664 121.835047 
L 384.6684 109.867688 
L 385.8402 93.11405 
L 386.5098 82.362761 
L 386.6772 58.634112 
L 386.8446 171.685052 
L 388.1838 115.551023 
L 389.0208 85.24481 
L 389.1882 58.634112 
L 389.3556 171.685052 
L 390.5274 105.670763 
L 391.0296 81.566426 
L 391.197 58.634112 
L 391.3644 171.685052 
L 392.3688 104.065416 
L 392.7036 84.720513 
L 392.871 58.634112 
L 393.0384 171.685052 
L 394.0428 97.293449 
L 394.2102 86.620011 
L 394.3776 58.634112 
L 394.545 171.685052 
L 395.5494 92.932104 
L 395.7168 81.782924 
L 395.8842 58.634112 
L 396.0516 171.685052 
L 396.8886 102.421692 
L 397.056 90.499044 
L 397.2234 58.634112 
L 397.3908 171.685052 
L 398.2278 101.992459 
L 398.3952 90.114965 
L 398.5626 58.634112 
L 398.73 171.685052 
L 399.567 103.062437 
L 399.7344 91.489742 
L 399.9018 58.634112 
L 400.0692 171.685052 
L 400.9062 105.654164 
L 401.241 84.297762 
L 401.4084 58.634112 
L 401.5758 171.685052 
L 402.4128 110.352616 
L 402.915 82.074267 
L 403.0824 58.634112 
L 403.2498 171.685052 
L 404.0868 117.647681 
L 404.7564 86.550324 
L 404.9238 58.634112 
L 405.0912 171.685052 
L 405.7608 135.31146 
L 406.4304 109.106275 
L 407.1 91.361499 
L 407.6022 82.743763 
L 407.7696 58.634112 
L 407.937 171.685052 
L 408.6066 150.950266 
L 409.1088 140.627133 
L 409.611 134.110431 
L 409.9458 131.619019 
L 410.2806 130.446154 
L 410.448 130.313946 
L 410.6154 130.464437 
L 410.9502 131.556842 
L 411.285 133.615689 
L 411.7872 138.301027 
L 412.4568 147.066062 
L 413.2938 161.198793 
L 413.796 170.96749 
L 413.9634 171.685052 
L 431.8752 171.685052 
L 432.0426 171.457709 
L 432.3774 170.182323 
L 432.7122 167.894787 
L 433.2144 162.76575 
L 433.884 153.192869 
L 434.721 137.660031 
L 435.8928 111.029248 
L 436.8972 85.246995 
L 437.0646 58.634112 
L 437.232 171.685052 
L 438.5712 102.961269 
L 438.906 87.632745 
L 439.0734 58.634112 
L 439.2408 171.685052 
L 440.2452 105.314061 
L 440.58 86.021408 
L 440.7474 58.634112 
L 440.9148 171.685052 
L 441.9192 96.949893 
L 442.0866 86.175487 
L 442.254 58.634112 
L 442.4214 171.685052 
L 443.5932 58.634112 
L 443.7606 171.685052 
L 444.5976 102.165311 
L 444.765 90.230306 
L 444.9324 58.634112 
L 445.0998 171.685052 
L 445.9368 102.280385 
L 446.1042 90.515008 
L 446.2716 58.634112 
L 446.439 171.685052 
L 447.276 104.237537 
L 447.6108 82.322847 
L 447.7782 58.634112 
L 447.9456 171.685052 
L 448.7826 108.480382 
L 449.1174 88.306631 
L 449.2848 58.634112 
L 449.4522 171.685052 
L 450.2892 114.606351 
L 450.9588 81.354849 
L 451.1262 58.634112 
L 451.2936 171.685052 
L 452.1306 124.087858 
L 452.8002 97.407693 
L 453.3024 82.880091 
L 453.4698 58.634112 
L 453.6372 171.685052 
L 454.3068 143.650265 
L 454.9764 124.206388 
L 455.646 111.748369 
L 456.1482 106.171975 
L 456.6504 103.277497 
L 456.9852 102.623835 
L 457.1526 102.635987 
L 457.32 102.856012 
L 457.6548 103.868538 
L 458.157 106.639616 
L 458.8266 112.217745 
L 459.6636 121.36662 
L 461.1702 140.995246 
L 463.3464 169.037361 
L 463.6812 171.685052 
L 469.875 171.578148 
L 470.2098 170.997571 
L 470.5446 169.951023 
L 471.0468 167.566708 
L 471.7164 163.005884 
L 472.5534 155.374541 
L 473.5578 143.90741 
L 474.897 125.800173 
L 477.7428 83.248095 
L 477.9102 58.634112 
L 478.0776 171.685052 
L 479.082 133.032483 
L 480.0864 102.379962 
L 480.9234 82.02112 
L 481.0908 58.634112 
L 481.2582 171.685052 
L 482.0952 135.164212 
L 482.9322 107.22439 
L 483.7692 86.478923 
L 483.9366 83.093287 
L 484.104 58.634112 
L 484.2714 171.685052 
L 485.1084 138.873088 
L 485.778 119.660363 
L 486.4476 105.713709 
L 487.1172 96.277906 
L 487.6194 91.77328 
L 488.1216 89.210066 
L 488.4564 88.475038 
L 488.6238 88.377851 
L 488.7912 88.451731 
L 489.126 89.086485 
L 489.4608 90.328777 
L 489.963 93.227586 
L 490.6326 98.793324 
L 490.6326 98.793324 
" clip-path="url(#p73e1dda116)" style="fill: none; stroke: #1f77b4; stroke-width: 1.5; stroke-linecap: square"/>
   </g>
   <g id="line2d_16">
    <path d="M 156 137.459539 
L 159.0132 113.437886 
L 160.5198 103.19896 
L 161.6916 96.68551 
L 162.696 92.349698 
L 163.533 89.727186 
L 164.2026 88.325301 
L 164.7048 87.696861 
L 165.207 87.439717 
L 165.5418 87.477235 
L 165.8766 87.683069 
L 166.3788 88.308227 
L 166.881 89.312347 
L 167.5506 91.234965 
L 168.3876 94.555315 
L 169.2246 98.852748 
L 170.229 105.21193 
L 171.4008 114.113346 
L 172.9074 127.487499 
L 174.9162 147.604557 
L 179.436 193.768998 
L 181.11 208.217777 
L 182.4492 217.879548 
L 183.621 224.712511 
L 184.6254 229.267995 
L 185.4624 232.115087 
L 186.132 233.766876 
L 186.8016 234.86694 
L 187.3038 235.336171 
L 187.806 235.507686 
L 188.3082 235.389931 
L 188.8104 234.993004 
L 189.3126 234.328539 
L 189.9822 233.049176 
L 190.8192 230.866823 
L 191.8236 227.492485 
L 192.9954 222.694206 
L 194.502 215.531868 
L 197.6826 198.928314 
L 199.8588 188.208162 
L 201.3654 181.755937 
L 202.7046 176.894473 
L 203.8764 173.378381 
L 205.0482 170.55843 
L 206.0526 168.672805 
L 207.057 167.237697 
L 208.0614 166.199625 
L 209.0658 165.493431 
L 210.0702 165.045708 
L 211.4094 164.715669 
L 215.0922 163.98806 
L 216.264 163.4392 
L 217.4358 162.616346 
L 218.6076 161.488684 
L 219.7794 160.053773 
L 221.1186 158.071603 
L 222.96 154.898985 
L 227.145 147.496225 
L 228.4842 145.673531 
L 229.4886 144.645997 
L 230.3256 144.055808 
L 231.1626 143.734695 
L 231.8322 143.684704 
L 232.5018 143.826244 
L 233.1714 144.16333 
L 234.0084 144.861018 
L 234.8454 145.861193 
L 235.8498 147.443594 
L 237.0216 149.772607 
L 238.3608 152.975322 
L 240.2022 158.052832 
L 245.0568 171.83392 
L 246.396 174.882794 
L 247.5678 177.055385 
L 248.5722 178.498253 
L 249.4092 179.385831 
L 250.2462 179.980967 
L 251.0832 180.285875 
L 251.9202 180.310399 
L 252.7572 180.071748 
L 253.5942 179.594044 
L 254.5986 178.748429 
L 255.7704 177.466641 
L 257.6118 175.07911 
L 259.9554 172.069298 
L 261.2946 170.715137 
L 262.299 169.999932 
L 263.136 169.645745 
L 263.973 169.538021 
L 264.81 169.694305 
L 265.647 170.1245 
L 266.484 170.830512 
L 267.4884 172.032462 
L 268.4928 173.596142 
L 269.6646 175.82082 
L 271.1712 179.170144 
L 276.528 191.64102 
L 277.6998 193.606208 
L 278.7042 194.861135 
L 279.5412 195.561112 
L 280.2108 195.877345 
L 280.8804 195.967979 
L 281.55 195.828737 
L 282.2196 195.459243 
L 283.0566 194.67948 
L 283.8936 193.56181 
L 284.898 191.811273 
L 286.0698 189.284677 
L 287.5764 185.472096 
L 291.9288 174.060646 
L 293.1006 171.779198 
L 293.9376 170.558809 
L 294.7746 169.744721 
L 295.4442 169.419415 
L 295.9464 169.379753 
L 296.4486 169.523552 
L 296.9508 169.856792 
L 297.6204 170.603348 
L 298.29 171.70084 
L 299.127 173.567557 
L 299.964 175.974856 
L 300.9684 179.544775 
L 302.1402 184.566005 
L 303.6468 192.146198 
L 305.823 204.513036 
L 308.8362 221.65099 
L 310.3428 228.903494 
L 311.5146 233.427716 
L 312.3516 235.909409 
L 313.0212 237.383883 
L 313.6908 238.366298 
L 314.193 238.762205 
L 314.6952 238.854183 
L 315.1974 238.633722 
L 315.6996 238.094286 
L 316.2018 237.231394 
L 316.8714 235.573932 
L 317.541 233.337831 
L 318.378 229.740748 
L 319.3824 224.289171 
L 320.5542 216.471924 
L 321.8934 205.851573 
L 323.5674 190.598307 
L 326.4132 162.092923 
L 328.9242 137.774325 
L 330.4308 125.130332 
L 331.6026 116.867535 
L 332.607 111.115136 
L 333.444 107.371473 
L 334.281 104.654056 
L 334.9506 103.252839 
L 335.4528 102.664498 
L 335.7876 102.495219 
L 336.1224 102.505195 
L 336.4572 102.694652 
L 336.9594 103.314661 
L 337.4616 104.334887 
L 338.1312 106.308151 
L 338.8008 108.963811 
L 339.6378 113.201681 
L 340.6422 119.542591 
L 341.814 128.48227 
L 343.3206 141.971762 
L 345.3294 162.287587 
L 349.5144 205.333648 
L 351.021 218.505891 
L 352.3602 228.273694 
L 353.3646 234.163987 
L 354.2016 238.033392 
L 355.0386 240.902957 
L 355.7082 242.455483 
L 356.2104 243.179765 
L 356.7126 243.525256 
L 357.0474 243.545579 
L 357.3822 243.398856 
L 357.8844 242.868559 
L 358.3866 241.971749 
L 359.0562 240.220733 
L 359.7258 237.859047 
L 360.5628 234.097372 
L 361.5672 228.496783 
L 362.739 220.661237 
L 364.2456 208.96662 
L 366.5892 188.658326 
L 369.7698 161.318683 
L 371.2764 150.132533 
L 372.6156 141.812305 
L 373.62 136.785622 
L 374.457 133.481536 
L 375.294 131.033796 
L 375.9636 129.715464 
L 376.4658 129.107502 
L 376.968 128.828695 
L 377.4702 128.879491 
L 377.9724 129.25847 
L 378.4746 129.962362 
L 379.1442 131.397256 
L 379.8138 133.383583 
L 380.6508 136.607421 
L 381.6552 141.488777 
L 382.827 148.430403 
L 384.1662 157.733745 
L 386.0076 172.227242 
L 391.3644 215.546019 
L 392.7036 224.277128 
L 393.8754 230.576147 
L 394.8798 234.801797 
L 395.7168 237.404388 
L 396.3864 238.843513 
L 396.8886 239.531792 
L 397.3908 239.875543 
L 397.7256 239.909935 
L 398.0604 239.786607 
L 398.5626 239.30321 
L 399.0648 238.459267 
L 399.7344 236.771258 
L 400.404 234.441953 
L 401.241 230.63966 
L 402.2454 224.805631 
L 403.2498 217.649752 
L 404.4216 207.756218 
L 405.9282 192.889436 
L 407.7696 172.133982 
L 410.6154 136.955335 
L 413.796 98.353258 
L 415.47 80.555858 
L 416.8092 68.401597 
L 417.981 59.644823 
L 418.9854 53.725245 
L 419.8224 50.006072 
L 420.492 47.866764 
L 421.1616 46.495059 
L 421.6638 45.979886 
L 421.9986 45.883636 
L 422.3334 45.986123 
L 422.6682 46.287715 
L 423.1704 47.113197 
L 423.6726 48.384488 
L 424.3422 50.765594 
L 425.1792 54.821249 
L 426.0162 60.032798 
L 427.0206 67.724431 
L 428.1924 78.505172 
L 429.5316 92.877307 
L 431.373 115.352815 
L 435.2232 166.380262 
L 437.3994 193.245227 
L 438.906 209.301126 
L 440.2452 221.159881 
L 441.2496 228.30772 
L 442.0866 233.013321 
L 442.9236 236.521892 
L 443.5932 238.441821 
L 444.0954 239.357414 
L 444.5976 239.822141 
L 444.9324 239.882126 
L 445.2672 239.74344 
L 445.602 239.407683 
L 446.1042 238.539272 
L 446.6064 237.241491 
L 447.276 234.863719 
L 448.113 230.900527 
L 449.1174 224.802627 
L 450.2892 216.060427 
L 451.6284 204.324782 
L 453.6372 184.415875 
L 457.6548 143.85926 
L 459.1614 130.976406 
L 460.3332 122.574807 
L 461.3376 116.714112 
L 462.1746 112.868156 
L 463.0116 110.017517 
L 463.6812 108.472921 
L 464.1834 107.747617 
L 464.6856 107.392668 
L 465.0204 107.360085 
L 465.3552 107.488799 
L 465.8574 107.979277 
L 466.3596 108.817896 
L 467.0292 110.456385 
L 467.8662 113.290142 
L 468.8706 117.730371 
L 470.0424 124.12231 
L 471.549 133.759266 
L 476.9058 169.641258 
L 478.0776 175.500999 
L 479.082 179.422951 
L 479.919 181.807524 
L 480.5886 183.09156 
L 481.0908 183.675278 
L 481.593 183.926239 
L 481.9278 183.906545 
L 482.43 183.595057 
L 482.9322 182.945608 
L 483.6018 181.559167 
L 484.2714 179.590907 
L 485.1084 176.346142 
L 486.1128 171.382223 
L 487.2846 164.289537 
L 488.7912 153.533772 
L 490.6326 138.836027 
L 490.6326 138.836027 
" clip-path="url(#p73e1dda116)" style="fill: none; stroke: #ff7f0e; stroke-width: 1.5; stroke-linecap: square"/>
   </g>
   <g id="patch_3">
    <path d="M 156 253.44 
L 156 36 
" style="fill: none; stroke: #000000; stroke-width: 0.8; stroke-linejoin: miter; stroke-linecap: square"/>
   </g>
   <g id="patch_4">
    <path d="M 490.8 253.44 
L 490.8 36 
" style="fill: none; stroke: #000000; stroke-width: 0.8; stroke-linejoin: miter; stroke-linecap: square"/>
   </g>
   <g id="patch_5">
    <path d="M 156 253.44 
L 490.8 253.44 
" style="fill: none; stroke: #000000; stroke-width: 0.8; stroke-linejoin: miter; stroke-linecap: square"/>
   </g>
   <g id="patch_6">
    <path d="M 156 36 
L 490.8 36 
" style="fill: none; stroke: #000000; stroke-width: 0.8; stroke-linejoin: miter; stroke-linecap: square"/>
   </g>
   <g id="legend_1">
    <g id="patch_7">
     <path d="M 434.1 73.35625 
L 483.8 73.35625 
Q 485.8 73.35625 485.8 71.35625 
L 485.8 43 
Q 485.8 41 483.8 41 
L 434.1 41 
Q 432.1 41 432.1 43 
L 432.1 71.35625 
Q 432.1 73.35625 434.1 73.35625 
z
" style="fill: #ffffff; opacity: 0.8; stroke: #cccccc; stroke-linejoin: miter"/>
    </g>
    <g id="line2d_17">
     <path d="M 436.1 49.098437 
L 446.1 49.098437 
L 456.1 49.098437 
" style="fill: none; stroke: #1f77b4; stroke-width: 1.5; stroke-linecap: square"/>
    </g>
    <g id="text_17">
     <!-- $v(t)$ -->
     <g transform="translate(464.1 52.598437) scale(0.1 -0.1)">
      <defs>
       <path id="DejaVuSans-Oblique-76" d="M 459 3500 
L 1069 3500 
L 1581 525 
L 3256 3500 
L 3866 3500 
L 1875 0 
L 1100 0 
L 459 3500 
z
" transform="scale(0.015625)"/>
       <path id="DejaVuSans-28" d="M 1984 4856 
Q 1566 4138 1362 3434 
Q 1159 2731 1159 2009 
Q 1159 1288 1364 580 
Q 1569 -128 1984 -844 
L 1484 -844 
Q 1016 -109 783 600 
Q 550 1309 550 2009 
Q 550 2706 781 3412 
Q 1013 4119 1484 4856 
L 1984 4856 
z
" transform="scale(0.015625)"/>
       <path id="DejaVuSans-29" d="M 513 4856 
L 1013 4856 
Q 1481 4119 1714 3412 
Q 1947 2706 1947 2009 
Q 1947 1309 1714 600 
Q 1481 -109 1013 -844 
L 513 -844 
Q 928 -128 1133 580 
Q 1338 1288 1338 2009 
Q 1338 2731 1133 3434 
Q 928 4138 513 4856 
z
" transform="scale(0.015625)"/>
      </defs>
      <use xlink:href="#DejaVuSans-Oblique-76" transform="translate(0 0.125)"/>
      <use xlink:href="#DejaVuSans-28" transform="translate(59.179688 0.125)"/>
      <use xlink:href="#DejaVuSans-Oblique-74" transform="translate(98.193359 0.125)"/>
      <use xlink:href="#DejaVuSans-29" transform="translate(137.402344 0.125)"/>
     </g>
    </g>
    <g id="line2d_18">
     <path d="M 436.1 63.776562 
L 446.1 63.776562 
L 456.1 63.776562 
" style="fill: none; stroke: #ff7f0e; stroke-width: 1.5; stroke-linecap: square"/>
    </g>
    <g id="text_18">
     <!-- $x(t)$ -->
     <g transform="translate(464.1 67.276562) scale(0.1 -0.1)">
      <defs>
       <path id="DejaVuSans-Oblique-78" d="M 3841 3500 
L 2234 1784 
L 3219 0 
L 2559 0 
L 1819 1388 
L 531 0 
L -166 0 
L 1556 1844 
L 641 3500 
L 1300 3500 
L 1972 2234 
L 3144 3500 
L 3841 3500 
z
" transform="scale(0.015625)"/>
      </defs>
      <use xlink:href="#DejaVuSans-Oblique-78" transform="translate(0 0.125)"/>
      <use xlink:href="#DejaVuSans-28" transform="translate(59.179688 0.125)"/>
      <use xlink:href="#DejaVuSans-Oblique-74" transform="translate(98.193359 0.125)"/>
      <use xlink:href="#DejaVuSans-29" transform="translate(137.402344 0.125)"/>
     </g>
    </g>
   </g>
  </g>
  <g id="text_19">
   <!-- Voltage $v(t)$ of a LIF Neuron with $x(t)$ as random white noise and positive encoder $e=-1$ and 5Hz limit -->
   <g transform="translate(7.2 16.32) scale(0.12 -0.12)">
    <defs>
     <path id="DejaVuSans-66" d="M 2375 4863 
L 2375 4384 
L 1825 4384 
Q 1516 4384 1395 4259 
Q 1275 4134 1275 3809 
L 1275 3500 
L 2222 3500 
L 2222 3053 
L 1275 3053 
L 1275 0 
L 697 0 
L 697 3053 
L 147 3053 
L 147 3500 
L 697 3500 
L 697 3744 
Q 697 4328 969 4595 
Q 1241 4863 1831 4863 
L 2375 4863 
z
" transform="scale(0.015625)"/>
     <path id="DejaVuSans-4c" d="M 628 4666 
L 1259 4666 
L 1259 531 
L 3531 531 
L 3531 0 
L 628 0 
L 628 4666 
z
" transform="scale(0.015625)"/>
     <path id="DejaVuSans-49" d="M 628 4666 
L 1259 4666 
L 1259 0 
L 628 0 
L 628 4666 
z
" transform="scale(0.015625)"/>
     <path id="DejaVuSans-46" d="M 628 4666 
L 3309 4666 
L 3309 4134 
L 1259 4134 
L 1259 2759 
L 3109 2759 
L 3109 2228 
L 1259 2228 
L 1259 0 
L 628 0 
L 628 4666 
z
" transform="scale(0.015625)"/>
     <path id="DejaVuSans-4e" d="M 628 4666 
L 1478 4666 
L 3547 763 
L 3547 4666 
L 4159 4666 
L 4159 0 
L 3309 0 
L 1241 3903 
L 1241 0 
L 628 0 
L 628 4666 
z
" transform="scale(0.015625)"/>
     <path id="DejaVuSans-75" d="M 544 1381 
L 544 3500 
L 1119 3500 
L 1119 1403 
Q 1119 906 1312 657 
Q 1506 409 1894 409 
Q 2359 409 2629 706 
Q 2900 1003 2900 1516 
L 2900 3500 
L 3475 3500 
L 3475 0 
L 2900 0 
L 2900 538 
Q 2691 219 2414 64 
Q 2138 -91 1772 -91 
Q 1169 -91 856 284 
Q 544 659 544 1381 
z
M 1991 3584 
L 1991 3584 
z
" transform="scale(0.015625)"/>
     <path id="DejaVuSans-72" d="M 2631 2963 
Q 2534 3019 2420 3045 
Q 2306 3072 2169 3072 
Q 1681 3072 1420 2755 
Q 1159 2438 1159 1844 
L 1159 0 
L 581 0 
L 581 3500 
L 1159 3500 
L 1159 2956 
Q 1341 3275 1631 3429 
Q 1922 3584 2338 3584 
Q 2397 3584 2469 3576 
Q 2541 3569 2628 3553 
L 2631 2963 
z
" transform="scale(0.015625)"/>
     <path id="DejaVuSans-6e" d="M 3513 2113 
L 3513 0 
L 2938 0 
L 2938 2094 
Q 2938 2591 2744 2837 
Q 2550 3084 2163 3084 
Q 1697 3084 1428 2787 
Q 1159 2491 1159 1978 
L 1159 0 
L 581 0 
L 581 3500 
L 1159 3500 
L 1159 2956 
Q 1366 3272 1645 3428 
Q 1925 3584 2291 3584 
Q 2894 3584 3203 3211 
Q 3513 2838 3513 2113 
z
" transform="scale(0.015625)"/>
     <path id="DejaVuSans-77" d="M 269 3500 
L 844 3500 
L 1563 769 
L 2278 3500 
L 2956 3500 
L 3675 769 
L 4391 3500 
L 4966 3500 
L 4050 0 
L 3372 0 
L 2619 2869 
L 1863 0 
L 1184 0 
L 269 3500 
z
" transform="scale(0.015625)"/>
     <path id="DejaVuSans-69" d="M 603 3500 
L 1178 3500 
L 1178 0 
L 603 0 
L 603 3500 
z
M 603 4863 
L 1178 4863 
L 1178 4134 
L 603 4134 
L 603 4863 
z
" transform="scale(0.015625)"/>
     <path id="DejaVuSans-68" d="M 3513 2113 
L 3513 0 
L 2938 0 
L 2938 2094 
Q 2938 2591 2744 2837 
Q 2550 3084 2163 3084 
Q 1697 3084 1428 2787 
Q 1159 2491 1159 1978 
L 1159 0 
L 581 0 
L 581 4863 
L 1159 4863 
L 1159 2956 
Q 1366 3272 1645 3428 
Q 1925 3584 2291 3584 
Q 2894 3584 3203 3211 
Q 3513 2838 3513 2113 
z
" transform="scale(0.015625)"/>
     <path id="DejaVuSans-64" d="M 2906 2969 
L 2906 4863 
L 3481 4863 
L 3481 0 
L 2906 0 
L 2906 525 
Q 2725 213 2448 61 
Q 2172 -91 1784 -91 
Q 1150 -91 751 415 
Q 353 922 353 1747 
Q 353 2572 751 3078 
Q 1150 3584 1784 3584 
Q 2172 3584 2448 3432 
Q 2725 3281 2906 2969 
z
M 947 1747 
Q 947 1113 1208 752 
Q 1469 391 1925 391 
Q 2381 391 2643 752 
Q 2906 1113 2906 1747 
Q 2906 2381 2643 2742 
Q 2381 3103 1925 3103 
Q 1469 3103 1208 2742 
Q 947 2381 947 1747 
z
" transform="scale(0.015625)"/>
     <path id="DejaVuSans-6d" d="M 3328 2828 
Q 3544 3216 3844 3400 
Q 4144 3584 4550 3584 
Q 5097 3584 5394 3201 
Q 5691 2819 5691 2113 
L 5691 0 
L 5113 0 
L 5113 2094 
Q 5113 2597 4934 2840 
Q 4756 3084 4391 3084 
Q 3944 3084 3684 2787 
Q 3425 2491 3425 1978 
L 3425 0 
L 2847 0 
L 2847 2094 
Q 2847 2600 2669 2842 
Q 2491 3084 2119 3084 
Q 1678 3084 1418 2786 
Q 1159 2488 1159 1978 
L 1159 0 
L 581 0 
L 581 3500 
L 1159 3500 
L 1159 2956 
Q 1356 3278 1631 3431 
Q 1906 3584 2284 3584 
Q 2666 3584 2933 3390 
Q 3200 3197 3328 2828 
z
" transform="scale(0.015625)"/>
     <path id="DejaVuSans-70" d="M 1159 525 
L 1159 -1331 
L 581 -1331 
L 581 3500 
L 1159 3500 
L 1159 2969 
Q 1341 3281 1617 3432 
Q 1894 3584 2278 3584 
Q 2916 3584 3314 3078 
Q 3713 2572 3713 1747 
Q 3713 922 3314 415 
Q 2916 -91 2278 -91 
Q 1894 -91 1617 61 
Q 1341 213 1159 525 
z
M 3116 1747 
Q 3116 2381 2855 2742 
Q 2594 3103 2138 3103 
Q 1681 3103 1420 2742 
Q 1159 2381 1159 1747 
Q 1159 1113 1420 752 
Q 1681 391 2138 391 
Q 2594 391 2855 752 
Q 3116 1113 3116 1747 
z
" transform="scale(0.015625)"/>
     <path id="DejaVuSans-76" d="M 191 3500 
L 800 3500 
L 1894 563 
L 2988 3500 
L 3597 3500 
L 2284 0 
L 1503 0 
L 191 3500 
z
" transform="scale(0.015625)"/>
     <path id="DejaVuSans-Oblique-65" d="M 3078 2063 
Q 3088 2113 3092 2166 
Q 3097 2219 3097 2272 
Q 3097 2653 2873 2875 
Q 2650 3097 2266 3097 
Q 1838 3097 1509 2826 
Q 1181 2556 1013 2059 
L 3078 2063 
z
M 3578 1613 
L 903 1613 
Q 884 1494 878 1425 
Q 872 1356 872 1306 
Q 872 872 1139 634 
Q 1406 397 1894 397 
Q 2269 397 2603 481 
Q 2938 566 3225 728 
L 3116 159 
Q 2806 34 2476 -28 
Q 2147 -91 1806 -91 
Q 1078 -91 686 257 
Q 294 606 294 1247 
Q 294 1794 489 2264 
Q 684 2734 1063 3103 
Q 1306 3334 1642 3459 
Q 1978 3584 2356 3584 
Q 2950 3584 3301 3228 
Q 3653 2872 3653 2272 
Q 3653 2128 3634 1964 
Q 3616 1800 3578 1613 
z
" transform="scale(0.015625)"/>
     <path id="DejaVuSans-3d" d="M 678 2906 
L 4684 2906 
L 4684 2381 
L 678 2381 
L 678 2906 
z
M 678 1631 
L 4684 1631 
L 4684 1100 
L 678 1100 
L 678 1631 
z
" transform="scale(0.015625)"/>
     <path id="DejaVuSans-48" d="M 628 4666 
L 1259 4666 
L 1259 2753 
L 3553 2753 
L 3553 4666 
L 4184 4666 
L 4184 0 
L 3553 0 
L 3553 2222 
L 1259 2222 
L 1259 0 
L 628 0 
L 628 4666 
z
" transform="scale(0.015625)"/>
     <path id="DejaVuSans-7a" d="M 353 3500 
L 3084 3500 
L 3084 2975 
L 922 459 
L 3084 459 
L 3084 0 
L 275 0 
L 275 525 
L 2438 3041 
L 353 3041 
L 353 3500 
z
" transform="scale(0.015625)"/>
    </defs>
    <use xlink:href="#DejaVuSans-56" transform="translate(0 0.015625)"/>
    <use xlink:href="#DejaVuSans-6f" transform="translate(68.408203 0.015625)"/>
    <use xlink:href="#DejaVuSans-6c" transform="translate(129.589844 0.015625)"/>
    <use xlink:href="#DejaVuSans-74" transform="translate(157.373047 0.015625)"/>
    <use xlink:href="#DejaVuSans-61" transform="translate(196.582031 0.015625)"/>
    <use xlink:href="#DejaVuSans-67" transform="translate(257.861328 0.015625)"/>
    <use xlink:href="#DejaVuSans-65" transform="translate(321.337891 0.015625)"/>
    <use xlink:href="#DejaVuSans-20" transform="translate(382.861328 0.015625)"/>
    <use xlink:href="#DejaVuSans-Oblique-76" transform="translate(414.648438 0.015625)"/>
    <use xlink:href="#DejaVuSans-28" transform="translate(473.828125 0.015625)"/>
    <use xlink:href="#DejaVuSans-Oblique-74" transform="translate(512.841797 0.015625)"/>
    <use xlink:href="#DejaVuSans-29" transform="translate(552.050781 0.015625)"/>
    <use xlink:href="#DejaVuSans-20" transform="translate(591.064453 0.015625)"/>
    <use xlink:href="#DejaVuSans-6f" transform="translate(622.851562 0.015625)"/>
    <use xlink:href="#DejaVuSans-66" transform="translate(684.033203 0.015625)"/>
    <use xlink:href="#DejaVuSans-20" transform="translate(719.238281 0.015625)"/>
    <use xlink:href="#DejaVuSans-61" transform="translate(751.025391 0.015625)"/>
    <use xlink:href="#DejaVuSans-20" transform="translate(812.304688 0.015625)"/>
    <use xlink:href="#DejaVuSans-4c" transform="translate(844.091797 0.015625)"/>
    <use xlink:href="#DejaVuSans-49" transform="translate(899.804688 0.015625)"/>
    <use xlink:href="#DejaVuSans-46" transform="translate(929.296875 0.015625)"/>
    <use xlink:href="#DejaVuSans-20" transform="translate(986.816406 0.015625)"/>
    <use xlink:href="#DejaVuSans-4e" transform="translate(1018.603516 0.015625)"/>
    <use xlink:href="#DejaVuSans-65" transform="translate(1093.408203 0.015625)"/>
    <use xlink:href="#DejaVuSans-75" transform="translate(1154.931641 0.015625)"/>
    <use xlink:href="#DejaVuSans-72" transform="translate(1218.310547 0.015625)"/>
    <use xlink:href="#DejaVuSans-6f" transform="translate(1259.423828 0.015625)"/>
    <use xlink:href="#DejaVuSans-6e" transform="translate(1320.605469 0.015625)"/>
    <use xlink:href="#DejaVuSans-20" transform="translate(1383.984375 0.015625)"/>
    <use xlink:href="#DejaVuSans-77" transform="translate(1415.771484 0.015625)"/>
    <use xlink:href="#DejaVuSans-69" transform="translate(1497.558594 0.015625)"/>
    <use xlink:href="#DejaVuSans-74" transform="translate(1525.341797 0.015625)"/>
    <use xlink:href="#DejaVuSans-68" transform="translate(1564.550781 0.015625)"/>
    <use xlink:href="#DejaVuSans-20" transform="translate(1627.929688 0.015625)"/>
    <use xlink:href="#DejaVuSans-Oblique-78" transform="translate(1659.716797 0.015625)"/>
    <use xlink:href="#DejaVuSans-28" transform="translate(1718.896484 0.015625)"/>
    <use xlink:href="#DejaVuSans-Oblique-74" transform="translate(1757.910156 0.015625)"/>
    <use xlink:href="#DejaVuSans-29" transform="translate(1797.119141 0.015625)"/>
    <use xlink:href="#DejaVuSans-20" transform="translate(1836.132812 0.015625)"/>
    <use xlink:href="#DejaVuSans-61" transform="translate(1867.919922 0.015625)"/>
    <use xlink:href="#DejaVuSans-73" transform="translate(1929.199219 0.015625)"/>
    <use xlink:href="#DejaVuSans-20" transform="translate(1981.298828 0.015625)"/>
    <use xlink:href="#DejaVuSans-72" transform="translate(2013.085938 0.015625)"/>
    <use xlink:href="#DejaVuSans-61" transform="translate(2054.199219 0.015625)"/>
    <use xlink:href="#DejaVuSans-6e" transform="translate(2115.478516 0.015625)"/>
    <use xlink:href="#DejaVuSans-64" transform="translate(2178.857422 0.015625)"/>
    <use xlink:href="#DejaVuSans-6f" transform="translate(2242.333984 0.015625)"/>
    <use xlink:href="#DejaVuSans-6d" transform="translate(2303.515625 0.015625)"/>
    <use xlink:href="#DejaVuSans-20" transform="translate(2400.927734 0.015625)"/>
    <use xlink:href="#DejaVuSans-77" transform="translate(2432.714844 0.015625)"/>
    <use xlink:href="#DejaVuSans-68" transform="translate(2514.501953 0.015625)"/>
    <use xlink:href="#DejaVuSans-69" transform="translate(2577.880859 0.015625)"/>
    <use xlink:href="#DejaVuSans-74" transform="translate(2605.664062 0.015625)"/>
    <use xlink:href="#DejaVuSans-65" transform="translate(2644.873047 0.015625)"/>
    <use xlink:href="#DejaVuSans-20" transform="translate(2706.396484 0.015625)"/>
    <use xlink:href="#DejaVuSans-6e" transform="translate(2738.183594 0.015625)"/>
    <use xlink:href="#DejaVuSans-6f" transform="translate(2801.5625 0.015625)"/>
    <use xlink:href="#DejaVuSans-69" transform="translate(2862.744141 0.015625)"/>
    <use xlink:href="#DejaVuSans-73" transform="translate(2890.527344 0.015625)"/>
    <use xlink:href="#DejaVuSans-65" transform="translate(2942.626953 0.015625)"/>
    <use xlink:href="#DejaVuSans-20" transform="translate(3004.150391 0.015625)"/>
    <use xlink:href="#DejaVuSans-61" transform="translate(3035.9375 0.015625)"/>
    <use xlink:href="#DejaVuSans-6e" transform="translate(3097.216797 0.015625)"/>
    <use xlink:href="#DejaVuSans-64" transform="translate(3160.595703 0.015625)"/>
    <use xlink:href="#DejaVuSans-20" transform="translate(3224.072266 0.015625)"/>
    <use xlink:href="#DejaVuSans-70" transform="translate(3255.859375 0.015625)"/>
    <use xlink:href="#DejaVuSans-6f" transform="translate(3319.335938 0.015625)"/>
    <use xlink:href="#DejaVuSans-73" transform="translate(3380.517578 0.015625)"/>
    <use xlink:href="#DejaVuSans-69" transform="translate(3432.617188 0.015625)"/>
    <use xlink:href="#DejaVuSans-74" transform="translate(3460.400391 0.015625)"/>
    <use xlink:href="#DejaVuSans-69" transform="translate(3499.609375 0.015625)"/>
    <use xlink:href="#DejaVuSans-76" transform="translate(3527.392578 0.015625)"/>
    <use xlink:href="#DejaVuSans-65" transform="translate(3586.572266 0.015625)"/>
    <use xlink:href="#DejaVuSans-20" transform="translate(3648.095703 0.015625)"/>
    <use xlink:href="#DejaVuSans-65" transform="translate(3679.882812 0.015625)"/>
    <use xlink:href="#DejaVuSans-6e" transform="translate(3741.40625 0.015625)"/>
    <use xlink:href="#DejaVuSans-63" transform="translate(3804.785156 0.015625)"/>
    <use xlink:href="#DejaVuSans-6f" transform="translate(3859.765625 0.015625)"/>
    <use xlink:href="#DejaVuSans-64" transform="translate(3920.947266 0.015625)"/>
    <use xlink:href="#DejaVuSans-65" transform="translate(3984.423828 0.015625)"/>
    <use xlink:href="#DejaVuSans-72" transform="translate(4045.947266 0.015625)"/>
    <use xlink:href="#DejaVuSans-20" transform="translate(4087.060547 0.015625)"/>
    <use xlink:href="#DejaVuSans-Oblique-65" transform="translate(4118.847656 0.015625)"/>
    <use xlink:href="#DejaVuSans-3d" transform="translate(4199.853516 0.015625)"/>
    <use xlink:href="#DejaVuSans-2212" transform="translate(4322.607422 0.015625)"/>
    <use xlink:href="#DejaVuSans-31" transform="translate(4425.878906 0.015625)"/>
    <use xlink:href="#DejaVuSans-20" transform="translate(4489.501953 0.015625)"/>
    <use xlink:href="#DejaVuSans-61" transform="translate(4521.289062 0.015625)"/>
    <use xlink:href="#DejaVuSans-6e" transform="translate(4582.568359 0.015625)"/>
    <use xlink:href="#DejaVuSans-64" transform="translate(4645.947266 0.015625)"/>
    <use xlink:href="#DejaVuSans-20" transform="translate(4709.423828 0.015625)"/>
    <use xlink:href="#DejaVuSans-35" transform="translate(4741.210938 0.015625)"/>
    <use xlink:href="#DejaVuSans-48" transform="translate(4800.333984 0.015625)"/>
    <use xlink:href="#DejaVuSans-7a" transform="translate(4875.529297 0.015625)"/>
    <use xlink:href="#DejaVuSans-20" transform="translate(4928.019531 0.015625)"/>
    <use xlink:href="#DejaVuSans-6c" transform="translate(4959.806641 0.015625)"/>
    <use xlink:href="#DejaVuSans-69" transform="translate(4987.589844 0.015625)"/>
    <use xlink:href="#DejaVuSans-6d" transform="translate(5015.373047 0.015625)"/>
    <use xlink:href="#DejaVuSans-69" transform="translate(5112.785156 0.015625)"/>
    <use xlink:href="#DejaVuSans-74" transform="translate(5140.568359 0.015625)"/>
   </g>
  </g>
 </g>
 <defs>
  <clipPath id="p73e1dda116">
   <rect x="156" y="36" width="334.8" height="217.44"/>
  </clipPath>
 </defs>
</svg>
