<?xml version="1.0" encoding="utf-8" standalone="no"?>
<!DOCTYPE svg PUBLIC "-//W3C//DTD SVG 1.1//EN"
  "http://www.w3.org/Graphics/SVG/1.1/DTD/svg11.dtd">
<svg xmlns:xlink="http://www.w3.org/1999/xlink" width="409.06125pt" height="290.99625pt" viewBox="0 0 409.06125 290.99625" xmlns="http://www.w3.org/2000/svg" version="1.1">
 <metadata>
  <rdf:RDF xmlns:dc="http://purl.org/dc/elements/1.1/" xmlns:cc="http://creativecommons.org/ns#" xmlns:rdf="http://www.w3.org/1999/02/22-rdf-syntax-ns#">
   <cc:Work>
    <dc:type rdf:resource="http://purl.org/dc/dcmitype/StillImage"/>
    <dc:date>2022-10-16T21:52:38.748380</dc:date>
    <dc:format>image/svg+xml</dc:format>
    <dc:creator>
     <cc:Agent>
      <dc:title>Matplotlib v3.6.0, https://matplotlib.org/</dc:title>
     </cc:Agent>
    </dc:creator>
   </cc:Work>
  </rdf:RDF>
 </metadata>
 <defs>
  <style type="text/css">*{stroke-linejoin: round; stroke-linecap: butt}</style>
 </defs>
 <g id="figure_1">
  <g id="patch_1">
   <path d="M 0 290.99625 
L 409.06125 290.99625 
L 409.06125 0 
L 0 0 
L 0 290.99625 
z
" style="fill: none"/>
  </g>
  <g id="axes_1">
   <g id="patch_2">
    <path d="M 43.78125 253.44 
L 378.58125 253.44 
L 378.58125 36 
L 43.78125 36 
z
" style="fill: #ffffff"/>
   </g>
   <g id="matplotlib.axis_1">
    <g id="xtick_1">
     <g id="line2d_1">
      <defs>
       <path id="m5b6dbb2466" d="M 0 0 
L 0 3.5 
" style="stroke: #000000; stroke-width: 0.8"/>
      </defs>
      <g>
       <use xlink:href="#m5b6dbb2466" x="43.78125" y="253.44" style="stroke: #000000; stroke-width: 0.8"/>
      </g>
     </g>
     <g id="text_1">
      <!-- 0.0 -->
      <g transform="translate(35.829688 268.038437) scale(0.1 -0.1)">
       <defs>
        <path id="DejaVuSans-30" d="M 2034 4250 
Q 1547 4250 1301 3770 
Q 1056 3291 1056 2328 
Q 1056 1369 1301 889 
Q 1547 409 2034 409 
Q 2525 409 2770 889 
Q 3016 1369 3016 2328 
Q 3016 3291 2770 3770 
Q 2525 4250 2034 4250 
z
M 2034 4750 
Q 2819 4750 3233 4129 
Q 3647 3509 3647 2328 
Q 3647 1150 3233 529 
Q 2819 -91 2034 -91 
Q 1250 -91 836 529 
Q 422 1150 422 2328 
Q 422 3509 836 4129 
Q 1250 4750 2034 4750 
z
" transform="scale(0.015625)"/>
        <path id="DejaVuSans-2e" d="M 684 794 
L 1344 794 
L 1344 0 
L 684 0 
L 684 794 
z
" transform="scale(0.015625)"/>
       </defs>
       <use xlink:href="#DejaVuSans-30"/>
       <use xlink:href="#DejaVuSans-2e" x="63.623047"/>
       <use xlink:href="#DejaVuSans-30" x="95.410156"/>
      </g>
     </g>
    </g>
    <g id="xtick_2">
     <g id="line2d_2">
      <g>
       <use xlink:href="#m5b6dbb2466" x="110.74125" y="253.44" style="stroke: #000000; stroke-width: 0.8"/>
      </g>
     </g>
     <g id="text_2">
      <!-- 0.2 -->
      <g transform="translate(102.789688 268.038437) scale(0.1 -0.1)">
       <defs>
        <path id="DejaVuSans-32" d="M 1228 531 
L 3431 531 
L 3431 0 
L 469 0 
L 469 531 
Q 828 903 1448 1529 
Q 2069 2156 2228 2338 
Q 2531 2678 2651 2914 
Q 2772 3150 2772 3378 
Q 2772 3750 2511 3984 
Q 2250 4219 1831 4219 
Q 1534 4219 1204 4116 
Q 875 4013 500 3803 
L 500 4441 
Q 881 4594 1212 4672 
Q 1544 4750 1819 4750 
Q 2544 4750 2975 4387 
Q 3406 4025 3406 3419 
Q 3406 3131 3298 2873 
Q 3191 2616 2906 2266 
Q 2828 2175 2409 1742 
Q 1991 1309 1228 531 
z
" transform="scale(0.015625)"/>
       </defs>
       <use xlink:href="#DejaVuSans-30"/>
       <use xlink:href="#DejaVuSans-2e" x="63.623047"/>
       <use xlink:href="#DejaVuSans-32" x="95.410156"/>
      </g>
     </g>
    </g>
    <g id="xtick_3">
     <g id="line2d_3">
      <g>
       <use xlink:href="#m5b6dbb2466" x="177.70125" y="253.44" style="stroke: #000000; stroke-width: 0.8"/>
      </g>
     </g>
     <g id="text_3">
      <!-- 0.4 -->
      <g transform="translate(169.749688 268.038437) scale(0.1 -0.1)">
       <defs>
        <path id="DejaVuSans-34" d="M 2419 4116 
L 825 1625 
L 2419 1625 
L 2419 4116 
z
M 2253 4666 
L 3047 4666 
L 3047 1625 
L 3713 1625 
L 3713 1100 
L 3047 1100 
L 3047 0 
L 2419 0 
L 2419 1100 
L 313 1100 
L 313 1709 
L 2253 4666 
z
" transform="scale(0.015625)"/>
       </defs>
       <use xlink:href="#DejaVuSans-30"/>
       <use xlink:href="#DejaVuSans-2e" x="63.623047"/>
       <use xlink:href="#DejaVuSans-34" x="95.410156"/>
      </g>
     </g>
    </g>
    <g id="xtick_4">
     <g id="line2d_4">
      <g>
       <use xlink:href="#m5b6dbb2466" x="244.66125" y="253.44" style="stroke: #000000; stroke-width: 0.8"/>
      </g>
     </g>
     <g id="text_4">
      <!-- 0.6 -->
      <g transform="translate(236.709688 268.038437) scale(0.1 -0.1)">
       <defs>
        <path id="DejaVuSans-36" d="M 2113 2584 
Q 1688 2584 1439 2293 
Q 1191 2003 1191 1497 
Q 1191 994 1439 701 
Q 1688 409 2113 409 
Q 2538 409 2786 701 
Q 3034 994 3034 1497 
Q 3034 2003 2786 2293 
Q 2538 2584 2113 2584 
z
M 3366 4563 
L 3366 3988 
Q 3128 4100 2886 4159 
Q 2644 4219 2406 4219 
Q 1781 4219 1451 3797 
Q 1122 3375 1075 2522 
Q 1259 2794 1537 2939 
Q 1816 3084 2150 3084 
Q 2853 3084 3261 2657 
Q 3669 2231 3669 1497 
Q 3669 778 3244 343 
Q 2819 -91 2113 -91 
Q 1303 -91 875 529 
Q 447 1150 447 2328 
Q 447 3434 972 4092 
Q 1497 4750 2381 4750 
Q 2619 4750 2861 4703 
Q 3103 4656 3366 4563 
z
" transform="scale(0.015625)"/>
       </defs>
       <use xlink:href="#DejaVuSans-30"/>
       <use xlink:href="#DejaVuSans-2e" x="63.623047"/>
       <use xlink:href="#DejaVuSans-36" x="95.410156"/>
      </g>
     </g>
    </g>
    <g id="xtick_5">
     <g id="line2d_5">
      <g>
       <use xlink:href="#m5b6dbb2466" x="311.62125" y="253.44" style="stroke: #000000; stroke-width: 0.8"/>
      </g>
     </g>
     <g id="text_5">
      <!-- 0.8 -->
      <g transform="translate(303.669688 268.038437) scale(0.1 -0.1)">
       <defs>
        <path id="DejaVuSans-38" d="M 2034 2216 
Q 1584 2216 1326 1975 
Q 1069 1734 1069 1313 
Q 1069 891 1326 650 
Q 1584 409 2034 409 
Q 2484 409 2743 651 
Q 3003 894 3003 1313 
Q 3003 1734 2745 1975 
Q 2488 2216 2034 2216 
z
M 1403 2484 
Q 997 2584 770 2862 
Q 544 3141 544 3541 
Q 544 4100 942 4425 
Q 1341 4750 2034 4750 
Q 2731 4750 3128 4425 
Q 3525 4100 3525 3541 
Q 3525 3141 3298 2862 
Q 3072 2584 2669 2484 
Q 3125 2378 3379 2068 
Q 3634 1759 3634 1313 
Q 3634 634 3220 271 
Q 2806 -91 2034 -91 
Q 1263 -91 848 271 
Q 434 634 434 1313 
Q 434 1759 690 2068 
Q 947 2378 1403 2484 
z
M 1172 3481 
Q 1172 3119 1398 2916 
Q 1625 2713 2034 2713 
Q 2441 2713 2670 2916 
Q 2900 3119 2900 3481 
Q 2900 3844 2670 4047 
Q 2441 4250 2034 4250 
Q 1625 4250 1398 4047 
Q 1172 3844 1172 3481 
z
" transform="scale(0.015625)"/>
       </defs>
       <use xlink:href="#DejaVuSans-30"/>
       <use xlink:href="#DejaVuSans-2e" x="63.623047"/>
       <use xlink:href="#DejaVuSans-38" x="95.410156"/>
      </g>
     </g>
    </g>
    <g id="xtick_6">
     <g id="line2d_6">
      <g>
       <use xlink:href="#m5b6dbb2466" x="378.58125" y="253.44" style="stroke: #000000; stroke-width: 0.8"/>
      </g>
     </g>
     <g id="text_6">
      <!-- 1.0 -->
      <g transform="translate(370.629687 268.038437) scale(0.1 -0.1)">
       <defs>
        <path id="DejaVuSans-31" d="M 794 531 
L 1825 531 
L 1825 4091 
L 703 3866 
L 703 4441 
L 1819 4666 
L 2450 4666 
L 2450 531 
L 3481 531 
L 3481 0 
L 794 0 
L 794 531 
z
" transform="scale(0.015625)"/>
       </defs>
       <use xlink:href="#DejaVuSans-31"/>
       <use xlink:href="#DejaVuSans-2e" x="63.623047"/>
       <use xlink:href="#DejaVuSans-30" x="95.410156"/>
      </g>
     </g>
    </g>
    <g id="text_7">
     <!-- $t$ sec. -->
     <g transform="translate(197.58125 281.716562) scale(0.1 -0.1)">
      <defs>
       <path id="DejaVuSans-Oblique-74" d="M 2706 3500 
L 2619 3053 
L 1472 3053 
L 1100 1153 
Q 1081 1047 1072 975 
Q 1063 903 1063 863 
Q 1063 663 1183 572 
Q 1303 481 1569 481 
L 2150 481 
L 2053 0 
L 1503 0 
Q 991 0 739 200 
Q 488 400 488 806 
Q 488 878 497 964 
Q 506 1050 525 1153 
L 897 3053 
L 409 3053 
L 500 3500 
L 978 3500 
L 1172 4494 
L 1747 4494 
L 1556 3500 
L 2706 3500 
z
" transform="scale(0.015625)"/>
       <path id="DejaVuSans-20" transform="scale(0.015625)"/>
       <path id="DejaVuSans-73" d="M 2834 3397 
L 2834 2853 
Q 2591 2978 2328 3040 
Q 2066 3103 1784 3103 
Q 1356 3103 1142 2972 
Q 928 2841 928 2578 
Q 928 2378 1081 2264 
Q 1234 2150 1697 2047 
L 1894 2003 
Q 2506 1872 2764 1633 
Q 3022 1394 3022 966 
Q 3022 478 2636 193 
Q 2250 -91 1575 -91 
Q 1294 -91 989 -36 
Q 684 19 347 128 
L 347 722 
Q 666 556 975 473 
Q 1284 391 1588 391 
Q 1994 391 2212 530 
Q 2431 669 2431 922 
Q 2431 1156 2273 1281 
Q 2116 1406 1581 1522 
L 1381 1569 
Q 847 1681 609 1914 
Q 372 2147 372 2553 
Q 372 3047 722 3315 
Q 1072 3584 1716 3584 
Q 2034 3584 2315 3537 
Q 2597 3491 2834 3397 
z
" transform="scale(0.015625)"/>
       <path id="DejaVuSans-65" d="M 3597 1894 
L 3597 1613 
L 953 1613 
Q 991 1019 1311 708 
Q 1631 397 2203 397 
Q 2534 397 2845 478 
Q 3156 559 3463 722 
L 3463 178 
Q 3153 47 2828 -22 
Q 2503 -91 2169 -91 
Q 1331 -91 842 396 
Q 353 884 353 1716 
Q 353 2575 817 3079 
Q 1281 3584 2069 3584 
Q 2775 3584 3186 3129 
Q 3597 2675 3597 1894 
z
M 3022 2063 
Q 3016 2534 2758 2815 
Q 2500 3097 2075 3097 
Q 1594 3097 1305 2825 
Q 1016 2553 972 2059 
L 3022 2063 
z
" transform="scale(0.015625)"/>
       <path id="DejaVuSans-63" d="M 3122 3366 
L 3122 2828 
Q 2878 2963 2633 3030 
Q 2388 3097 2138 3097 
Q 1578 3097 1268 2742 
Q 959 2388 959 1747 
Q 959 1106 1268 751 
Q 1578 397 2138 397 
Q 2388 397 2633 464 
Q 2878 531 3122 666 
L 3122 134 
Q 2881 22 2623 -34 
Q 2366 -91 2075 -91 
Q 1284 -91 818 406 
Q 353 903 353 1747 
Q 353 2603 823 3093 
Q 1294 3584 2113 3584 
Q 2378 3584 2631 3529 
Q 2884 3475 3122 3366 
z
" transform="scale(0.015625)"/>
      </defs>
      <use xlink:href="#DejaVuSans-Oblique-74" transform="translate(0 0.78125)"/>
      <use xlink:href="#DejaVuSans-20" transform="translate(39.208984 0.78125)"/>
      <use xlink:href="#DejaVuSans-73" transform="translate(70.996094 0.78125)"/>
      <use xlink:href="#DejaVuSans-65" transform="translate(123.095703 0.78125)"/>
      <use xlink:href="#DejaVuSans-63" transform="translate(184.619141 0.78125)"/>
      <use xlink:href="#DejaVuSans-2e" transform="translate(239.599609 0.78125)"/>
     </g>
    </g>
   </g>
   <g id="matplotlib.axis_2">
    <g id="ytick_1">
     <g id="line2d_7">
      <defs>
       <path id="m1b2aaee8b4" d="M 0 0 
L -3.5 0 
" style="stroke: #000000; stroke-width: 0.8"/>
      </defs>
      <g>
       <use xlink:href="#m1b2aaee8b4" x="43.78125" y="243.556364" style="stroke: #000000; stroke-width: 0.8"/>
      </g>
     </g>
     <g id="text_8">
      <!-- 0.0 -->
      <g transform="translate(20.878125 247.355582) scale(0.1 -0.1)">
       <use xlink:href="#DejaVuSans-30"/>
       <use xlink:href="#DejaVuSans-2e" x="63.623047"/>
       <use xlink:href="#DejaVuSans-30" x="95.410156"/>
      </g>
     </g>
    </g>
    <g id="ytick_2">
     <g id="line2d_8">
      <g>
       <use xlink:href="#m1b2aaee8b4" x="43.78125" y="211.928727" style="stroke: #000000; stroke-width: 0.8"/>
      </g>
     </g>
     <g id="text_9">
      <!-- 0.2 -->
      <g transform="translate(20.878125 215.727946) scale(0.1 -0.1)">
       <use xlink:href="#DejaVuSans-30"/>
       <use xlink:href="#DejaVuSans-2e" x="63.623047"/>
       <use xlink:href="#DejaVuSans-32" x="95.410156"/>
      </g>
     </g>
    </g>
    <g id="ytick_3">
     <g id="line2d_9">
      <g>
       <use xlink:href="#m1b2aaee8b4" x="43.78125" y="180.301091" style="stroke: #000000; stroke-width: 0.8"/>
      </g>
     </g>
     <g id="text_10">
      <!-- 0.4 -->
      <g transform="translate(20.878125 184.10031) scale(0.1 -0.1)">
       <use xlink:href="#DejaVuSans-30"/>
       <use xlink:href="#DejaVuSans-2e" x="63.623047"/>
       <use xlink:href="#DejaVuSans-34" x="95.410156"/>
      </g>
     </g>
    </g>
    <g id="ytick_4">
     <g id="line2d_10">
      <g>
       <use xlink:href="#m1b2aaee8b4" x="43.78125" y="148.673455" style="stroke: #000000; stroke-width: 0.8"/>
      </g>
     </g>
     <g id="text_11">
      <!-- 0.6 -->
      <g transform="translate(20.878125 152.472673) scale(0.1 -0.1)">
       <use xlink:href="#DejaVuSans-30"/>
       <use xlink:href="#DejaVuSans-2e" x="63.623047"/>
       <use xlink:href="#DejaVuSans-36" x="95.410156"/>
      </g>
     </g>
    </g>
    <g id="ytick_5">
     <g id="line2d_11">
      <g>
       <use xlink:href="#m1b2aaee8b4" x="43.78125" y="117.045818" style="stroke: #000000; stroke-width: 0.8"/>
      </g>
     </g>
     <g id="text_12">
      <!-- 0.8 -->
      <g transform="translate(20.878125 120.845037) scale(0.1 -0.1)">
       <use xlink:href="#DejaVuSans-30"/>
       <use xlink:href="#DejaVuSans-2e" x="63.623047"/>
       <use xlink:href="#DejaVuSans-38" x="95.410156"/>
      </g>
     </g>
    </g>
    <g id="ytick_6">
     <g id="line2d_12">
      <g>
       <use xlink:href="#m1b2aaee8b4" x="43.78125" y="85.418182" style="stroke: #000000; stroke-width: 0.8"/>
      </g>
     </g>
     <g id="text_13">
      <!-- 1.0 -->
      <g transform="translate(20.878125 89.217401) scale(0.1 -0.1)">
       <use xlink:href="#DejaVuSans-31"/>
       <use xlink:href="#DejaVuSans-2e" x="63.623047"/>
       <use xlink:href="#DejaVuSans-30" x="95.410156"/>
      </g>
     </g>
    </g>
    <g id="ytick_7">
     <g id="line2d_13">
      <g>
       <use xlink:href="#m1b2aaee8b4" x="43.78125" y="53.790545" style="stroke: #000000; stroke-width: 0.8"/>
      </g>
     </g>
     <g id="text_14">
      <!-- 1.2 -->
      <g transform="translate(20.878125 57.589764) scale(0.1 -0.1)">
       <use xlink:href="#DejaVuSans-31"/>
       <use xlink:href="#DejaVuSans-2e" x="63.623047"/>
       <use xlink:href="#DejaVuSans-32" x="95.410156"/>
      </g>
     </g>
    </g>
    <g id="text_15">
     <!-- Voltage -->
     <g transform="translate(14.798438 163.47625) rotate(-90) scale(0.1 -0.1)">
      <defs>
       <path id="DejaVuSans-56" d="M 1831 0 
L 50 4666 
L 709 4666 
L 2188 738 
L 3669 4666 
L 4325 4666 
L 2547 0 
L 1831 0 
z
" transform="scale(0.015625)"/>
       <path id="DejaVuSans-6f" d="M 1959 3097 
Q 1497 3097 1228 2736 
Q 959 2375 959 1747 
Q 959 1119 1226 758 
Q 1494 397 1959 397 
Q 2419 397 2687 759 
Q 2956 1122 2956 1747 
Q 2956 2369 2687 2733 
Q 2419 3097 1959 3097 
z
M 1959 3584 
Q 2709 3584 3137 3096 
Q 3566 2609 3566 1747 
Q 3566 888 3137 398 
Q 2709 -91 1959 -91 
Q 1206 -91 779 398 
Q 353 888 353 1747 
Q 353 2609 779 3096 
Q 1206 3584 1959 3584 
z
" transform="scale(0.015625)"/>
       <path id="DejaVuSans-6c" d="M 603 4863 
L 1178 4863 
L 1178 0 
L 603 0 
L 603 4863 
z
" transform="scale(0.015625)"/>
       <path id="DejaVuSans-74" d="M 1172 4494 
L 1172 3500 
L 2356 3500 
L 2356 3053 
L 1172 3053 
L 1172 1153 
Q 1172 725 1289 603 
Q 1406 481 1766 481 
L 2356 481 
L 2356 0 
L 1766 0 
Q 1100 0 847 248 
Q 594 497 594 1153 
L 594 3053 
L 172 3053 
L 172 3500 
L 594 3500 
L 594 4494 
L 1172 4494 
z
" transform="scale(0.015625)"/>
       <path id="DejaVuSans-61" d="M 2194 1759 
Q 1497 1759 1228 1600 
Q 959 1441 959 1056 
Q 959 750 1161 570 
Q 1363 391 1709 391 
Q 2188 391 2477 730 
Q 2766 1069 2766 1631 
L 2766 1759 
L 2194 1759 
z
M 3341 1997 
L 3341 0 
L 2766 0 
L 2766 531 
Q 2569 213 2275 61 
Q 1981 -91 1556 -91 
Q 1019 -91 701 211 
Q 384 513 384 1019 
Q 384 1609 779 1909 
Q 1175 2209 1959 2209 
L 2766 2209 
L 2766 2266 
Q 2766 2663 2505 2880 
Q 2244 3097 1772 3097 
Q 1472 3097 1187 3025 
Q 903 2953 641 2809 
L 641 3341 
Q 956 3463 1253 3523 
Q 1550 3584 1831 3584 
Q 2591 3584 2966 3190 
Q 3341 2797 3341 1997 
z
" transform="scale(0.015625)"/>
       <path id="DejaVuSans-67" d="M 2906 1791 
Q 2906 2416 2648 2759 
Q 2391 3103 1925 3103 
Q 1463 3103 1205 2759 
Q 947 2416 947 1791 
Q 947 1169 1205 825 
Q 1463 481 1925 481 
Q 2391 481 2648 825 
Q 2906 1169 2906 1791 
z
M 3481 434 
Q 3481 -459 3084 -895 
Q 2688 -1331 1869 -1331 
Q 1566 -1331 1297 -1286 
Q 1028 -1241 775 -1147 
L 775 -588 
Q 1028 -725 1275 -790 
Q 1522 -856 1778 -856 
Q 2344 -856 2625 -561 
Q 2906 -266 2906 331 
L 2906 616 
Q 2728 306 2450 153 
Q 2172 0 1784 0 
Q 1141 0 747 490 
Q 353 981 353 1791 
Q 353 2603 747 3093 
Q 1141 3584 1784 3584 
Q 2172 3584 2450 3431 
Q 2728 3278 2906 2969 
L 2906 3500 
L 3481 3500 
L 3481 434 
z
" transform="scale(0.015625)"/>
      </defs>
      <use xlink:href="#DejaVuSans-56"/>
      <use xlink:href="#DejaVuSans-6f" x="60.658203"/>
      <use xlink:href="#DejaVuSans-6c" x="121.839844"/>
      <use xlink:href="#DejaVuSans-74" x="149.623047"/>
      <use xlink:href="#DejaVuSans-61" x="188.832031"/>
      <use xlink:href="#DejaVuSans-67" x="250.111328"/>
      <use xlink:href="#DejaVuSans-65" x="313.587891"/>
     </g>
    </g>
   </g>
   <g id="line2d_14">
    <path d="M 43.78125 232.241476 
L 45.12045 192.363497 
L 46.45965 159.882635 
L 47.79885 133.426769 
L 49.13805 111.878301 
L 50.47725 94.326939 
L 51.14685 86.812777 
L 51.48165 45.883636 
L 51.81645 243.556364 
L 53.15565 201.579544 
L 54.49485 167.389162 
L 55.83405 139.540883 
L 57.17325 116.858285 
L 58.51245 98.383167 
L 59.51685 86.812777 
L 59.85165 45.883636 
L 60.18645 243.556364 
L 61.52565 201.579544 
L 62.86485 167.389162 
L 64.20405 139.540883 
L 65.54325 116.858285 
L 66.88245 98.383167 
L 67.88685 86.812777 
L 68.22165 45.883636 
L 68.55645 243.556364 
L 69.89565 201.579544 
L 71.23485 167.389162 
L 72.57405 139.540883 
L 73.91325 116.858285 
L 75.25245 98.383167 
L 76.25685 86.812777 
L 76.59165 45.883636 
L 76.92645 243.556364 
L 78.26565 201.579544 
L 79.60485 167.389162 
L 80.94405 139.540883 
L 82.28325 116.858285 
L 83.62245 98.383167 
L 84.62685 86.812777 
L 84.96165 45.883636 
L 85.29645 243.556364 
L 86.63565 201.579544 
L 87.97485 167.389162 
L 89.31405 139.540883 
L 90.65325 116.858285 
L 91.99245 98.383167 
L 92.99685 86.812777 
L 93.33165 45.883636 
L 93.66645 243.556364 
L 95.00565 201.579544 
L 96.34485 167.389162 
L 97.68405 139.540883 
L 99.02325 116.858285 
L 100.36245 98.383167 
L 101.36685 86.812777 
L 101.70165 45.883636 
L 102.03645 243.556364 
L 103.37565 201.579544 
L 104.71485 167.389162 
L 106.05405 139.540883 
L 107.39325 116.858285 
L 108.73245 98.383167 
L 109.73685 86.812777 
L 110.07165 45.883636 
L 110.40645 243.556364 
L 111.74565 201.579544 
L 113.08485 167.389162 
L 114.42405 139.540883 
L 115.76325 116.858285 
L 117.10245 98.383167 
L 118.10685 86.812777 
L 118.44165 45.883636 
L 118.77645 243.556364 
L 120.11565 201.579544 
L 121.45485 167.389162 
L 122.79405 139.540883 
L 124.13325 116.858285 
L 125.47245 98.383167 
L 126.47685 86.812777 
L 126.81165 45.883636 
L 127.14645 243.556364 
L 128.48565 201.579544 
L 129.82485 167.389162 
L 131.16405 139.540883 
L 132.50325 116.858285 
L 133.84245 98.383167 
L 134.84685 86.812777 
L 135.18165 45.883636 
L 135.51645 243.556364 
L 136.85565 201.579544 
L 138.19485 167.389162 
L 139.53405 139.540883 
L 140.87325 116.858285 
L 142.21245 98.383167 
L 143.21685 86.812777 
L 143.55165 45.883636 
L 143.88645 243.556364 
L 145.22565 201.579544 
L 146.56485 167.389162 
L 147.90405 139.540883 
L 149.24325 116.858285 
L 150.58245 98.383167 
L 151.58685 86.812777 
L 151.92165 45.883636 
L 152.25645 243.556364 
L 153.59565 201.579544 
L 154.93485 167.389162 
L 156.27405 139.540883 
L 157.61325 116.858285 
L 158.95245 98.383167 
L 159.95685 86.812777 
L 160.29165 45.883636 
L 160.62645 243.556364 
L 161.96565 201.579544 
L 163.30485 167.389162 
L 164.64405 139.540883 
L 165.98325 116.858285 
L 167.32245 98.383167 
L 168.32685 86.812777 
L 168.66165 45.883636 
L 168.99645 243.556364 
L 170.33565 201.579544 
L 171.67485 167.389162 
L 173.01405 139.540883 
L 174.35325 116.858285 
L 175.69245 98.383167 
L 176.69685 86.812777 
L 177.03165 45.883636 
L 177.36645 243.556364 
L 178.70565 201.579544 
L 180.04485 167.389162 
L 181.38405 139.540883 
L 182.72325 116.858285 
L 184.06245 98.383167 
L 185.06685 86.812777 
L 185.40165 45.883636 
L 185.73645 243.556364 
L 187.07565 201.579544 
L 188.41485 167.389162 
L 189.75405 139.540883 
L 191.09325 116.858285 
L 192.43245 98.383167 
L 193.43685 86.812777 
L 193.77165 45.883636 
L 194.10645 243.556364 
L 195.44565 201.579544 
L 196.78485 167.389162 
L 198.12405 139.540883 
L 199.46325 116.858285 
L 200.80245 98.383167 
L 201.80685 86.812777 
L 202.14165 45.883636 
L 202.47645 243.556364 
L 203.81565 201.579544 
L 205.15485 167.389162 
L 206.49405 139.540883 
L 207.83325 116.858285 
L 209.17245 98.383167 
L 210.17685 86.812777 
L 210.51165 45.883636 
L 210.84645 243.556364 
L 212.18565 201.579544 
L 213.52485 167.389162 
L 214.86405 139.540883 
L 216.20325 116.858285 
L 217.54245 98.383167 
L 218.54685 86.812777 
L 218.88165 45.883636 
L 219.21645 243.556364 
L 220.55565 201.579544 
L 221.89485 167.389162 
L 223.23405 139.540883 
L 224.57325 116.858285 
L 225.91245 98.383167 
L 226.91685 86.812777 
L 227.25165 45.883636 
L 227.58645 243.556364 
L 228.92565 201.579544 
L 230.26485 167.389162 
L 231.60405 139.540883 
L 232.94325 116.858285 
L 234.28245 98.383167 
L 235.28685 86.812777 
L 235.62165 45.883636 
L 235.95645 243.556364 
L 237.29565 201.579544 
L 238.63485 167.389162 
L 239.97405 139.540883 
L 241.31325 116.858285 
L 242.65245 98.383167 
L 243.65685 86.812777 
L 243.99165 45.883636 
L 244.32645 243.556364 
L 245.66565 201.579544 
L 247.00485 167.389162 
L 248.34405 139.540883 
L 249.68325 116.858285 
L 251.02245 98.383167 
L 252.02685 86.812777 
L 252.36165 45.883636 
L 252.69645 243.556364 
L 254.03565 201.579544 
L 255.37485 167.389162 
L 256.71405 139.540883 
L 258.05325 116.858285 
L 259.39245 98.383167 
L 260.39685 86.812777 
L 260.73165 45.883636 
L 261.06645 243.556364 
L 262.40565 201.579544 
L 263.74485 167.389162 
L 265.08405 139.540883 
L 266.42325 116.858285 
L 267.76245 98.383167 
L 268.76685 86.812777 
L 269.10165 45.883636 
L 269.43645 243.556364 
L 270.77565 201.579544 
L 272.11485 167.389162 
L 273.45405 139.540883 
L 274.79325 116.858285 
L 276.13245 98.383167 
L 277.13685 86.812777 
L 277.47165 45.883636 
L 277.80645 243.556364 
L 279.14565 201.579544 
L 280.48485 167.389162 
L 281.82405 139.540883 
L 283.16325 116.858285 
L 284.50245 98.383167 
L 285.50685 86.812777 
L 285.84165 45.883636 
L 286.17645 243.556364 
L 287.51565 201.579544 
L 288.85485 167.389162 
L 290.19405 139.540883 
L 291.53325 116.858285 
L 292.87245 98.383167 
L 293.87685 86.812777 
L 294.21165 45.883636 
L 294.54645 243.556364 
L 295.88565 201.579544 
L 297.22485 167.389162 
L 298.56405 139.540883 
L 299.90325 116.858285 
L 301.24245 98.383167 
L 302.24685 86.812777 
L 302.58165 45.883636 
L 302.91645 243.556364 
L 304.25565 201.579544 
L 305.59485 167.389162 
L 306.93405 139.540883 
L 308.27325 116.858285 
L 309.61245 98.383167 
L 310.61685 86.812777 
L 310.95165 45.883636 
L 311.28645 243.556364 
L 312.62565 201.579544 
L 313.96485 167.389162 
L 315.30405 139.540883 
L 316.64325 116.858285 
L 317.98245 98.383167 
L 318.98685 86.812777 
L 319.32165 45.883636 
L 319.65645 243.556364 
L 320.99565 201.579544 
L 322.33485 167.389162 
L 323.67405 139.540883 
L 325.01325 116.858285 
L 326.35245 98.383167 
L 327.35685 86.812777 
L 327.69165 45.883636 
L 328.02645 243.556364 
L 329.36565 201.579544 
L 330.70485 167.389162 
L 332.04405 139.540883 
L 333.38325 116.858285 
L 334.72245 98.383167 
L 335.72685 86.812777 
L 336.06165 45.883636 
L 336.39645 243.556364 
L 337.73565 201.579544 
L 339.07485 167.389162 
L 340.41405 139.540883 
L 341.75325 116.858285 
L 343.09245 98.383167 
L 344.09685 86.812777 
L 344.43165 45.883636 
L 344.76645 243.556364 
L 346.10565 201.579544 
L 347.44485 167.389162 
L 348.78405 139.540883 
L 350.12325 116.858285 
L 351.46245 98.383167 
L 352.46685 86.812777 
L 352.80165 45.883636 
L 353.13645 243.556364 
L 354.47565 201.579544 
L 355.81485 167.389162 
L 357.15405 139.540883 
L 358.49325 116.858285 
L 359.83245 98.383167 
L 360.83685 86.812777 
L 361.17165 45.883636 
L 361.50645 243.556364 
L 362.84565 201.579544 
L 364.18485 167.389162 
L 365.52405 139.540883 
L 366.86325 116.858285 
L 368.20245 98.383167 
L 369.20685 86.812777 
L 369.54165 45.883636 
L 369.87645 243.556364 
L 371.21565 201.579544 
L 372.55485 167.389162 
L 373.89405 139.540883 
L 375.23325 116.858285 
L 376.57245 98.383167 
L 377.57685 86.812777 
L 377.91165 45.883636 
L 378.24645 243.556364 
L 378.24645 243.556364 
" clip-path="url(#p9bd93b7328)" style="fill: none; stroke: #1f77b4; stroke-width: 1.5; stroke-linecap: square"/>
   </g>
   <g id="line2d_15">
    <path d="M 43.78125 243.556364 
L 378.24645 243.556364 
L 378.24645 243.556364 
" clip-path="url(#p9bd93b7328)" style="fill: none; stroke: #ff7f0e; stroke-width: 1.5; stroke-linecap: square"/>
   </g>
   <g id="patch_3">
    <path d="M 43.78125 253.44 
L 43.78125 36 
" style="fill: none; stroke: #000000; stroke-width: 0.8; stroke-linejoin: miter; stroke-linecap: square"/>
   </g>
   <g id="patch_4">
    <path d="M 378.58125 253.44 
L 378.58125 36 
" style="fill: none; stroke: #000000; stroke-width: 0.8; stroke-linejoin: miter; stroke-linecap: square"/>
   </g>
   <g id="patch_5">
    <path d="M 43.78125 253.44 
L 378.58125 253.44 
" style="fill: none; stroke: #000000; stroke-width: 0.8; stroke-linejoin: miter; stroke-linecap: square"/>
   </g>
   <g id="patch_6">
    <path d="M 43.78125 36 
L 378.58125 36 
" style="fill: none; stroke: #000000; stroke-width: 0.8; stroke-linejoin: miter; stroke-linecap: square"/>
   </g>
   <g id="legend_1">
    <g id="patch_7">
     <path d="M 321.88125 73.35625 
L 371.58125 73.35625 
Q 373.58125 73.35625 373.58125 71.35625 
L 373.58125 43 
Q 373.58125 41 371.58125 41 
L 321.88125 41 
Q 319.88125 41 319.88125 43 
L 319.88125 71.35625 
Q 319.88125 73.35625 321.88125 73.35625 
z
" style="fill: #ffffff; opacity: 0.8; stroke: #cccccc; stroke-linejoin: miter"/>
    </g>
    <g id="line2d_16">
     <path d="M 323.88125 49.098437 
L 333.88125 49.098437 
L 343.88125 49.098437 
" style="fill: none; stroke: #1f77b4; stroke-width: 1.5; stroke-linecap: square"/>
    </g>
    <g id="text_16">
     <!-- $v(t)$ -->
     <g transform="translate(351.88125 52.598437) scale(0.1 -0.1)">
      <defs>
       <path id="DejaVuSans-Oblique-76" d="M 459 3500 
L 1069 3500 
L 1581 525 
L 3256 3500 
L 3866 3500 
L 1875 0 
L 1100 0 
L 459 3500 
z
" transform="scale(0.015625)"/>
       <path id="DejaVuSans-28" d="M 1984 4856 
Q 1566 4138 1362 3434 
Q 1159 2731 1159 2009 
Q 1159 1288 1364 580 
Q 1569 -128 1984 -844 
L 1484 -844 
Q 1016 -109 783 600 
Q 550 1309 550 2009 
Q 550 2706 781 3412 
Q 1013 4119 1484 4856 
L 1984 4856 
z
" transform="scale(0.015625)"/>
       <path id="DejaVuSans-29" d="M 513 4856 
L 1013 4856 
Q 1481 4119 1714 3412 
Q 1947 2706 1947 2009 
Q 1947 1309 1714 600 
Q 1481 -109 1013 -844 
L 513 -844 
Q 928 -128 1133 580 
Q 1338 1288 1338 2009 
Q 1338 2731 1133 3434 
Q 928 4138 513 4856 
z
" transform="scale(0.015625)"/>
      </defs>
      <use xlink:href="#DejaVuSans-Oblique-76" transform="translate(0 0.125)"/>
      <use xlink:href="#DejaVuSans-28" transform="translate(59.179688 0.125)"/>
      <use xlink:href="#DejaVuSans-Oblique-74" transform="translate(98.193359 0.125)"/>
      <use xlink:href="#DejaVuSans-29" transform="translate(137.402344 0.125)"/>
     </g>
    </g>
    <g id="line2d_17">
     <path d="M 323.88125 63.776562 
L 333.88125 63.776562 
L 343.88125 63.776562 
" style="fill: none; stroke: #ff7f0e; stroke-width: 1.5; stroke-linecap: square"/>
    </g>
    <g id="text_17">
     <!-- $x(t)$ -->
     <g transform="translate(351.88125 67.276562) scale(0.1 -0.1)">
      <defs>
       <path id="DejaVuSans-Oblique-78" d="M 3841 3500 
L 2234 1784 
L 3219 0 
L 2559 0 
L 1819 1388 
L 531 0 
L -166 0 
L 1556 1844 
L 641 3500 
L 1300 3500 
L 1972 2234 
L 3144 3500 
L 3841 3500 
z
" transform="scale(0.015625)"/>
      </defs>
      <use xlink:href="#DejaVuSans-Oblique-78" transform="translate(0 0.125)"/>
      <use xlink:href="#DejaVuSans-28" transform="translate(59.179688 0.125)"/>
      <use xlink:href="#DejaVuSans-Oblique-74" transform="translate(98.193359 0.125)"/>
      <use xlink:href="#DejaVuSans-29" transform="translate(137.402344 0.125)"/>
     </g>
    </g>
   </g>
  </g>
  <g id="text_18">
   <!-- Voltage $v(t)$ of a LIF Neuron with $x=0$ and positive encoder $e=1$ -->
   <g transform="translate(9.70125 16.32) scale(0.12 -0.12)">
    <defs>
     <path id="DejaVuSans-66" d="M 2375 4863 
L 2375 4384 
L 1825 4384 
Q 1516 4384 1395 4259 
Q 1275 4134 1275 3809 
L 1275 3500 
L 2222 3500 
L 2222 3053 
L 1275 3053 
L 1275 0 
L 697 0 
L 697 3053 
L 147 3053 
L 147 3500 
L 697 3500 
L 697 3744 
Q 697 4328 969 4595 
Q 1241 4863 1831 4863 
L 2375 4863 
z
" transform="scale(0.015625)"/>
     <path id="DejaVuSans-4c" d="M 628 4666 
L 1259 4666 
L 1259 531 
L 3531 531 
L 3531 0 
L 628 0 
L 628 4666 
z
" transform="scale(0.015625)"/>
     <path id="DejaVuSans-49" d="M 628 4666 
L 1259 4666 
L 1259 0 
L 628 0 
L 628 4666 
z
" transform="scale(0.015625)"/>
     <path id="DejaVuSans-46" d="M 628 4666 
L 3309 4666 
L 3309 4134 
L 1259 4134 
L 1259 2759 
L 3109 2759 
L 3109 2228 
L 1259 2228 
L 1259 0 
L 628 0 
L 628 4666 
z
" transform="scale(0.015625)"/>
     <path id="DejaVuSans-4e" d="M 628 4666 
L 1478 4666 
L 3547 763 
L 3547 4666 
L 4159 4666 
L 4159 0 
L 3309 0 
L 1241 3903 
L 1241 0 
L 628 0 
L 628 4666 
z
" transform="scale(0.015625)"/>
     <path id="DejaVuSans-75" d="M 544 1381 
L 544 3500 
L 1119 3500 
L 1119 1403 
Q 1119 906 1312 657 
Q 1506 409 1894 409 
Q 2359 409 2629 706 
Q 2900 1003 2900 1516 
L 2900 3500 
L 3475 3500 
L 3475 0 
L 2900 0 
L 2900 538 
Q 2691 219 2414 64 
Q 2138 -91 1772 -91 
Q 1169 -91 856 284 
Q 544 659 544 1381 
z
M 1991 3584 
L 1991 3584 
z
" transform="scale(0.015625)"/>
     <path id="DejaVuSans-72" d="M 2631 2963 
Q 2534 3019 2420 3045 
Q 2306 3072 2169 3072 
Q 1681 3072 1420 2755 
Q 1159 2438 1159 1844 
L 1159 0 
L 581 0 
L 581 3500 
L 1159 3500 
L 1159 2956 
Q 1341 3275 1631 3429 
Q 1922 3584 2338 3584 
Q 2397 3584 2469 3576 
Q 2541 3569 2628 3553 
L 2631 2963 
z
" transform="scale(0.015625)"/>
     <path id="DejaVuSans-6e" d="M 3513 2113 
L 3513 0 
L 2938 0 
L 2938 2094 
Q 2938 2591 2744 2837 
Q 2550 3084 2163 3084 
Q 1697 3084 1428 2787 
Q 1159 2491 1159 1978 
L 1159 0 
L 581 0 
L 581 3500 
L 1159 3500 
L 1159 2956 
Q 1366 3272 1645 3428 
Q 1925 3584 2291 3584 
Q 2894 3584 3203 3211 
Q 3513 2838 3513 2113 
z
" transform="scale(0.015625)"/>
     <path id="DejaVuSans-77" d="M 269 3500 
L 844 3500 
L 1563 769 
L 2278 3500 
L 2956 3500 
L 3675 769 
L 4391 3500 
L 4966 3500 
L 4050 0 
L 3372 0 
L 2619 2869 
L 1863 0 
L 1184 0 
L 269 3500 
z
" transform="scale(0.015625)"/>
     <path id="DejaVuSans-69" d="M 603 3500 
L 1178 3500 
L 1178 0 
L 603 0 
L 603 3500 
z
M 603 4863 
L 1178 4863 
L 1178 4134 
L 603 4134 
L 603 4863 
z
" transform="scale(0.015625)"/>
     <path id="DejaVuSans-68" d="M 3513 2113 
L 3513 0 
L 2938 0 
L 2938 2094 
Q 2938 2591 2744 2837 
Q 2550 3084 2163 3084 
Q 1697 3084 1428 2787 
Q 1159 2491 1159 1978 
L 1159 0 
L 581 0 
L 581 4863 
L 1159 4863 
L 1159 2956 
Q 1366 3272 1645 3428 
Q 1925 3584 2291 3584 
Q 2894 3584 3203 3211 
Q 3513 2838 3513 2113 
z
" transform="scale(0.015625)"/>
     <path id="DejaVuSans-3d" d="M 678 2906 
L 4684 2906 
L 4684 2381 
L 678 2381 
L 678 2906 
z
M 678 1631 
L 4684 1631 
L 4684 1100 
L 678 1100 
L 678 1631 
z
" transform="scale(0.015625)"/>
     <path id="DejaVuSans-64" d="M 2906 2969 
L 2906 4863 
L 3481 4863 
L 3481 0 
L 2906 0 
L 2906 525 
Q 2725 213 2448 61 
Q 2172 -91 1784 -91 
Q 1150 -91 751 415 
Q 353 922 353 1747 
Q 353 2572 751 3078 
Q 1150 3584 1784 3584 
Q 2172 3584 2448 3432 
Q 2725 3281 2906 2969 
z
M 947 1747 
Q 947 1113 1208 752 
Q 1469 391 1925 391 
Q 2381 391 2643 752 
Q 2906 1113 2906 1747 
Q 2906 2381 2643 2742 
Q 2381 3103 1925 3103 
Q 1469 3103 1208 2742 
Q 947 2381 947 1747 
z
" transform="scale(0.015625)"/>
     <path id="DejaVuSans-70" d="M 1159 525 
L 1159 -1331 
L 581 -1331 
L 581 3500 
L 1159 3500 
L 1159 2969 
Q 1341 3281 1617 3432 
Q 1894 3584 2278 3584 
Q 2916 3584 3314 3078 
Q 3713 2572 3713 1747 
Q 3713 922 3314 415 
Q 2916 -91 2278 -91 
Q 1894 -91 1617 61 
Q 1341 213 1159 525 
z
M 3116 1747 
Q 3116 2381 2855 2742 
Q 2594 3103 2138 3103 
Q 1681 3103 1420 2742 
Q 1159 2381 1159 1747 
Q 1159 1113 1420 752 
Q 1681 391 2138 391 
Q 2594 391 2855 752 
Q 3116 1113 3116 1747 
z
" transform="scale(0.015625)"/>
     <path id="DejaVuSans-76" d="M 191 3500 
L 800 3500 
L 1894 563 
L 2988 3500 
L 3597 3500 
L 2284 0 
L 1503 0 
L 191 3500 
z
" transform="scale(0.015625)"/>
     <path id="DejaVuSans-Oblique-65" d="M 3078 2063 
Q 3088 2113 3092 2166 
Q 3097 2219 3097 2272 
Q 3097 2653 2873 2875 
Q 2650 3097 2266 3097 
Q 1838 3097 1509 2826 
Q 1181 2556 1013 2059 
L 3078 2063 
z
M 3578 1613 
L 903 1613 
Q 884 1494 878 1425 
Q 872 1356 872 1306 
Q 872 872 1139 634 
Q 1406 397 1894 397 
Q 2269 397 2603 481 
Q 2938 566 3225 728 
L 3116 159 
Q 2806 34 2476 -28 
Q 2147 -91 1806 -91 
Q 1078 -91 686 257 
Q 294 606 294 1247 
Q 294 1794 489 2264 
Q 684 2734 1063 3103 
Q 1306 3334 1642 3459 
Q 1978 3584 2356 3584 
Q 2950 3584 3301 3228 
Q 3653 2872 3653 2272 
Q 3653 2128 3634 1964 
Q 3616 1800 3578 1613 
z
" transform="scale(0.015625)"/>
    </defs>
    <use xlink:href="#DejaVuSans-56" transform="translate(0 0.015625)"/>
    <use xlink:href="#DejaVuSans-6f" transform="translate(68.408203 0.015625)"/>
    <use xlink:href="#DejaVuSans-6c" transform="translate(129.589844 0.015625)"/>
    <use xlink:href="#DejaVuSans-74" transform="translate(157.373047 0.015625)"/>
    <use xlink:href="#DejaVuSans-61" transform="translate(196.582031 0.015625)"/>
    <use xlink:href="#DejaVuSans-67" transform="translate(257.861328 0.015625)"/>
    <use xlink:href="#DejaVuSans-65" transform="translate(321.337891 0.015625)"/>
    <use xlink:href="#DejaVuSans-20" transform="translate(382.861328 0.015625)"/>
    <use xlink:href="#DejaVuSans-Oblique-76" transform="translate(414.648438 0.015625)"/>
    <use xlink:href="#DejaVuSans-28" transform="translate(473.828125 0.015625)"/>
    <use xlink:href="#DejaVuSans-Oblique-74" transform="translate(512.841797 0.015625)"/>
    <use xlink:href="#DejaVuSans-29" transform="translate(552.050781 0.015625)"/>
    <use xlink:href="#DejaVuSans-20" transform="translate(591.064453 0.015625)"/>
    <use xlink:href="#DejaVuSans-6f" transform="translate(622.851562 0.015625)"/>
    <use xlink:href="#DejaVuSans-66" transform="translate(684.033203 0.015625)"/>
    <use xlink:href="#DejaVuSans-20" transform="translate(719.238281 0.015625)"/>
    <use xlink:href="#DejaVuSans-61" transform="translate(751.025391 0.015625)"/>
    <use xlink:href="#DejaVuSans-20" transform="translate(812.304688 0.015625)"/>
    <use xlink:href="#DejaVuSans-4c" transform="translate(844.091797 0.015625)"/>
    <use xlink:href="#DejaVuSans-49" transform="translate(899.804688 0.015625)"/>
    <use xlink:href="#DejaVuSans-46" transform="translate(929.296875 0.015625)"/>
    <use xlink:href="#DejaVuSans-20" transform="translate(986.816406 0.015625)"/>
    <use xlink:href="#DejaVuSans-4e" transform="translate(1018.603516 0.015625)"/>
    <use xlink:href="#DejaVuSans-65" transform="translate(1093.408203 0.015625)"/>
    <use xlink:href="#DejaVuSans-75" transform="translate(1154.931641 0.015625)"/>
    <use xlink:href="#DejaVuSans-72" transform="translate(1218.310547 0.015625)"/>
    <use xlink:href="#DejaVuSans-6f" transform="translate(1259.423828 0.015625)"/>
    <use xlink:href="#DejaVuSans-6e" transform="translate(1320.605469 0.015625)"/>
    <use xlink:href="#DejaVuSans-20" transform="translate(1383.984375 0.015625)"/>
    <use xlink:href="#DejaVuSans-77" transform="translate(1415.771484 0.015625)"/>
    <use xlink:href="#DejaVuSans-69" transform="translate(1497.558594 0.015625)"/>
    <use xlink:href="#DejaVuSans-74" transform="translate(1525.341797 0.015625)"/>
    <use xlink:href="#DejaVuSans-68" transform="translate(1564.550781 0.015625)"/>
    <use xlink:href="#DejaVuSans-20" transform="translate(1627.929688 0.015625)"/>
    <use xlink:href="#DejaVuSans-Oblique-78" transform="translate(1659.716797 0.015625)"/>
    <use xlink:href="#DejaVuSans-3d" transform="translate(1738.378906 0.015625)"/>
    <use xlink:href="#DejaVuSans-30" transform="translate(1841.650391 0.015625)"/>
    <use xlink:href="#DejaVuSans-20" transform="translate(1905.273438 0.015625)"/>
    <use xlink:href="#DejaVuSans-61" transform="translate(1937.060547 0.015625)"/>
    <use xlink:href="#DejaVuSans-6e" transform="translate(1998.339844 0.015625)"/>
    <use xlink:href="#DejaVuSans-64" transform="translate(2061.71875 0.015625)"/>
    <use xlink:href="#DejaVuSans-20" transform="translate(2125.195312 0.015625)"/>
    <use xlink:href="#DejaVuSans-70" transform="translate(2156.982422 0.015625)"/>
    <use xlink:href="#DejaVuSans-6f" transform="translate(2220.458984 0.015625)"/>
    <use xlink:href="#DejaVuSans-73" transform="translate(2281.640625 0.015625)"/>
    <use xlink:href="#DejaVuSans-69" transform="translate(2333.740234 0.015625)"/>
    <use xlink:href="#DejaVuSans-74" transform="translate(2361.523438 0.015625)"/>
    <use xlink:href="#DejaVuSans-69" transform="translate(2400.732422 0.015625)"/>
    <use xlink:href="#DejaVuSans-76" transform="translate(2428.515625 0.015625)"/>
    <use xlink:href="#DejaVuSans-65" transform="translate(2487.695312 0.015625)"/>
    <use xlink:href="#DejaVuSans-20" transform="translate(2549.21875 0.015625)"/>
    <use xlink:href="#DejaVuSans-65" transform="translate(2581.005859 0.015625)"/>
    <use xlink:href="#DejaVuSans-6e" transform="translate(2642.529297 0.015625)"/>
    <use xlink:href="#DejaVuSans-63" transform="translate(2705.908203 0.015625)"/>
    <use xlink:href="#DejaVuSans-6f" transform="translate(2760.888672 0.015625)"/>
    <use xlink:href="#DejaVuSans-64" transform="translate(2822.070312 0.015625)"/>
    <use xlink:href="#DejaVuSans-65" transform="translate(2885.546875 0.015625)"/>
    <use xlink:href="#DejaVuSans-72" transform="translate(2947.070312 0.015625)"/>
    <use xlink:href="#DejaVuSans-20" transform="translate(2988.183594 0.015625)"/>
    <use xlink:href="#DejaVuSans-Oblique-65" transform="translate(3019.970703 0.015625)"/>
    <use xlink:href="#DejaVuSans-3d" transform="translate(3100.976562 0.015625)"/>
    <use xlink:href="#DejaVuSans-31" transform="translate(3204.248047 0.015625)"/>
   </g>
  </g>
 </g>
 <defs>
  <clipPath id="p9bd93b7328">
   <rect x="43.78125" y="36" width="334.8" height="217.44"/>
  </clipPath>
 </defs>
</svg>
