<?xml version="1.0" encoding="utf-8" standalone="no"?>
<!DOCTYPE svg PUBLIC "-//W3C//DTD SVG 1.1//EN"
  "http://www.w3.org/Graphics/SVG/1.1/DTD/svg11.dtd">
<svg xmlns:xlink="http://www.w3.org/1999/xlink" width="474.96pt" height="283.99625pt" viewBox="0 0 474.96 283.99625" xmlns="http://www.w3.org/2000/svg" version="1.1">
 <metadata>
  <rdf:RDF xmlns:dc="http://purl.org/dc/elements/1.1/" xmlns:cc="http://creativecommons.org/ns#" xmlns:rdf="http://www.w3.org/1999/02/22-rdf-syntax-ns#">
   <cc:Work>
    <dc:type rdf:resource="http://purl.org/dc/dcmitype/StillImage"/>
    <dc:date>2022-10-17T15:53:49.352277</dc:date>
    <dc:format>image/svg+xml</dc:format>
    <dc:creator>
     <cc:Agent>
      <dc:title>Matplotlib v3.6.0, https://matplotlib.org/</dc:title>
     </cc:Agent>
    </dc:creator>
   </cc:Work>
  </rdf:RDF>
 </metadata>
 <defs>
  <style type="text/css">*{stroke-linejoin: round; stroke-linecap: butt}</style>
 </defs>
 <g id="figure_1">
  <g id="patch_1">
   <path d="M 0 283.99625 
L 474.96 283.99625 
L 474.96 0 
L 0 0 
L 0 283.99625 
z
" style="fill: none"/>
  </g>
  <g id="axes_1">
   <g id="patch_2">
    <path d="M 60.605 70.751302 
L 432.4175 70.751302 
L 432.4175 41.182932 
L 60.605 41.182932 
z
" style="fill: #ffffff"/>
   </g>
   <g id="matplotlib.axis_1">
    <g id="xtick_1">
     <g id="line2d_1">
      <defs>
       <path id="mbc4d5fe373" d="M 0 0 
L 0 3.5 
" style="stroke: #000000; stroke-width: 0.8"/>
      </defs>
      <g>
       <use xlink:href="#mbc4d5fe373" x="60.605" y="70.751302" style="stroke: #000000; stroke-width: 0.8"/>
      </g>
     </g>
     <g id="text_1">
      <!-- 0.00 -->
      <g transform="translate(49.472188 85.34974) scale(0.1 -0.1)">
       <defs>
        <path id="DejaVuSans-30" d="M 2034 4250 
Q 1547 4250 1301 3770 
Q 1056 3291 1056 2328 
Q 1056 1369 1301 889 
Q 1547 409 2034 409 
Q 2525 409 2770 889 
Q 3016 1369 3016 2328 
Q 3016 3291 2770 3770 
Q 2525 4250 2034 4250 
z
M 2034 4750 
Q 2819 4750 3233 4129 
Q 3647 3509 3647 2328 
Q 3647 1150 3233 529 
Q 2819 -91 2034 -91 
Q 1250 -91 836 529 
Q 422 1150 422 2328 
Q 422 3509 836 4129 
Q 1250 4750 2034 4750 
z
" transform="scale(0.015625)"/>
        <path id="DejaVuSans-2e" d="M 684 794 
L 1344 794 
L 1344 0 
L 684 0 
L 684 794 
z
" transform="scale(0.015625)"/>
       </defs>
       <use xlink:href="#DejaVuSans-30"/>
       <use xlink:href="#DejaVuSans-2e" x="63.623047"/>
       <use xlink:href="#DejaVuSans-30" x="95.410156"/>
       <use xlink:href="#DejaVuSans-30" x="159.033203"/>
      </g>
     </g>
    </g>
    <g id="xtick_2">
     <g id="line2d_2">
      <g>
       <use xlink:href="#mbc4d5fe373" x="122.57375" y="70.751302" style="stroke: #000000; stroke-width: 0.8"/>
      </g>
     </g>
     <g id="text_2">
      <!-- 0.01 -->
      <g transform="translate(111.440938 85.34974) scale(0.1 -0.1)">
       <defs>
        <path id="DejaVuSans-31" d="M 794 531 
L 1825 531 
L 1825 4091 
L 703 3866 
L 703 4441 
L 1819 4666 
L 2450 4666 
L 2450 531 
L 3481 531 
L 3481 0 
L 794 0 
L 794 531 
z
" transform="scale(0.015625)"/>
       </defs>
       <use xlink:href="#DejaVuSans-30"/>
       <use xlink:href="#DejaVuSans-2e" x="63.623047"/>
       <use xlink:href="#DejaVuSans-30" x="95.410156"/>
       <use xlink:href="#DejaVuSans-31" x="159.033203"/>
      </g>
     </g>
    </g>
    <g id="xtick_3">
     <g id="line2d_3">
      <g>
       <use xlink:href="#mbc4d5fe373" x="184.5425" y="70.751302" style="stroke: #000000; stroke-width: 0.8"/>
      </g>
     </g>
     <g id="text_3">
      <!-- 0.02 -->
      <g transform="translate(173.409688 85.34974) scale(0.1 -0.1)">
       <defs>
        <path id="DejaVuSans-32" d="M 1228 531 
L 3431 531 
L 3431 0 
L 469 0 
L 469 531 
Q 828 903 1448 1529 
Q 2069 2156 2228 2338 
Q 2531 2678 2651 2914 
Q 2772 3150 2772 3378 
Q 2772 3750 2511 3984 
Q 2250 4219 1831 4219 
Q 1534 4219 1204 4116 
Q 875 4013 500 3803 
L 500 4441 
Q 881 4594 1212 4672 
Q 1544 4750 1819 4750 
Q 2544 4750 2975 4387 
Q 3406 4025 3406 3419 
Q 3406 3131 3298 2873 
Q 3191 2616 2906 2266 
Q 2828 2175 2409 1742 
Q 1991 1309 1228 531 
z
" transform="scale(0.015625)"/>
       </defs>
       <use xlink:href="#DejaVuSans-30"/>
       <use xlink:href="#DejaVuSans-2e" x="63.623047"/>
       <use xlink:href="#DejaVuSans-30" x="95.410156"/>
       <use xlink:href="#DejaVuSans-32" x="159.033203"/>
      </g>
     </g>
    </g>
    <g id="xtick_4">
     <g id="line2d_4">
      <g>
       <use xlink:href="#mbc4d5fe373" x="246.51125" y="70.751302" style="stroke: #000000; stroke-width: 0.8"/>
      </g>
     </g>
     <g id="text_4">
      <!-- 0.03 -->
      <g transform="translate(235.378438 85.34974) scale(0.1 -0.1)">
       <defs>
        <path id="DejaVuSans-33" d="M 2597 2516 
Q 3050 2419 3304 2112 
Q 3559 1806 3559 1356 
Q 3559 666 3084 287 
Q 2609 -91 1734 -91 
Q 1441 -91 1130 -33 
Q 819 25 488 141 
L 488 750 
Q 750 597 1062 519 
Q 1375 441 1716 441 
Q 2309 441 2620 675 
Q 2931 909 2931 1356 
Q 2931 1769 2642 2001 
Q 2353 2234 1838 2234 
L 1294 2234 
L 1294 2753 
L 1863 2753 
Q 2328 2753 2575 2939 
Q 2822 3125 2822 3475 
Q 2822 3834 2567 4026 
Q 2313 4219 1838 4219 
Q 1578 4219 1281 4162 
Q 984 4106 628 3988 
L 628 4550 
Q 988 4650 1302 4700 
Q 1616 4750 1894 4750 
Q 2613 4750 3031 4423 
Q 3450 4097 3450 3541 
Q 3450 3153 3228 2886 
Q 3006 2619 2597 2516 
z
" transform="scale(0.015625)"/>
       </defs>
       <use xlink:href="#DejaVuSans-30"/>
       <use xlink:href="#DejaVuSans-2e" x="63.623047"/>
       <use xlink:href="#DejaVuSans-30" x="95.410156"/>
       <use xlink:href="#DejaVuSans-33" x="159.033203"/>
      </g>
     </g>
    </g>
    <g id="xtick_5">
     <g id="line2d_5">
      <g>
       <use xlink:href="#mbc4d5fe373" x="308.48" y="70.751302" style="stroke: #000000; stroke-width: 0.8"/>
      </g>
     </g>
     <g id="text_5">
      <!-- 0.04 -->
      <g transform="translate(297.347188 85.34974) scale(0.1 -0.1)">
       <defs>
        <path id="DejaVuSans-34" d="M 2419 4116 
L 825 1625 
L 2419 1625 
L 2419 4116 
z
M 2253 4666 
L 3047 4666 
L 3047 1625 
L 3713 1625 
L 3713 1100 
L 3047 1100 
L 3047 0 
L 2419 0 
L 2419 1100 
L 313 1100 
L 313 1709 
L 2253 4666 
z
" transform="scale(0.015625)"/>
       </defs>
       <use xlink:href="#DejaVuSans-30"/>
       <use xlink:href="#DejaVuSans-2e" x="63.623047"/>
       <use xlink:href="#DejaVuSans-30" x="95.410156"/>
       <use xlink:href="#DejaVuSans-34" x="159.033203"/>
      </g>
     </g>
    </g>
    <g id="xtick_6">
     <g id="line2d_6">
      <g>
       <use xlink:href="#mbc4d5fe373" x="370.44875" y="70.751302" style="stroke: #000000; stroke-width: 0.8"/>
      </g>
     </g>
     <g id="text_6">
      <!-- 0.05 -->
      <g transform="translate(359.315938 85.34974) scale(0.1 -0.1)">
       <defs>
        <path id="DejaVuSans-35" d="M 691 4666 
L 3169 4666 
L 3169 4134 
L 1269 4134 
L 1269 2991 
Q 1406 3038 1543 3061 
Q 1681 3084 1819 3084 
Q 2600 3084 3056 2656 
Q 3513 2228 3513 1497 
Q 3513 744 3044 326 
Q 2575 -91 1722 -91 
Q 1428 -91 1123 -41 
Q 819 9 494 109 
L 494 744 
Q 775 591 1075 516 
Q 1375 441 1709 441 
Q 2250 441 2565 725 
Q 2881 1009 2881 1497 
Q 2881 1984 2565 2268 
Q 2250 2553 1709 2553 
Q 1456 2553 1204 2497 
Q 953 2441 691 2322 
L 691 4666 
z
" transform="scale(0.015625)"/>
       </defs>
       <use xlink:href="#DejaVuSans-30"/>
       <use xlink:href="#DejaVuSans-2e" x="63.623047"/>
       <use xlink:href="#DejaVuSans-30" x="95.410156"/>
       <use xlink:href="#DejaVuSans-35" x="159.033203"/>
      </g>
     </g>
    </g>
    <g id="xtick_7">
     <g id="line2d_7">
      <g>
       <use xlink:href="#mbc4d5fe373" x="432.4175" y="70.751302" style="stroke: #000000; stroke-width: 0.8"/>
      </g>
     </g>
     <g id="text_7">
      <!-- 0.06 -->
      <g transform="translate(421.284688 85.34974) scale(0.1 -0.1)">
       <defs>
        <path id="DejaVuSans-36" d="M 2113 2584 
Q 1688 2584 1439 2293 
Q 1191 2003 1191 1497 
Q 1191 994 1439 701 
Q 1688 409 2113 409 
Q 2538 409 2786 701 
Q 3034 994 3034 1497 
Q 3034 2003 2786 2293 
Q 2538 2584 2113 2584 
z
M 3366 4563 
L 3366 3988 
Q 3128 4100 2886 4159 
Q 2644 4219 2406 4219 
Q 1781 4219 1451 3797 
Q 1122 3375 1075 2522 
Q 1259 2794 1537 2939 
Q 1816 3084 2150 3084 
Q 2853 3084 3261 2657 
Q 3669 2231 3669 1497 
Q 3669 778 3244 343 
Q 2819 -91 2113 -91 
Q 1303 -91 875 529 
Q 447 1150 447 2328 
Q 447 3434 972 4092 
Q 1497 4750 2381 4750 
Q 2619 4750 2861 4703 
Q 3103 4656 3366 4563 
z
" transform="scale(0.015625)"/>
       </defs>
       <use xlink:href="#DejaVuSans-30"/>
       <use xlink:href="#DejaVuSans-2e" x="63.623047"/>
       <use xlink:href="#DejaVuSans-30" x="95.410156"/>
       <use xlink:href="#DejaVuSans-36" x="159.033203"/>
      </g>
     </g>
    </g>
   </g>
   <g id="matplotlib.axis_2">
    <g id="ytick_1">
     <g id="line2d_8">
      <defs>
       <path id="m2b96ce9aa9" d="M 0 0 
L -3.5 0 
" style="stroke: #000000; stroke-width: 0.8"/>
      </defs>
      <g>
       <use xlink:href="#m2b96ce9aa9" x="60.605" y="69.407285" style="stroke: #000000; stroke-width: 0.8"/>
      </g>
     </g>
     <g id="text_8">
      <!-- 0.0 -->
      <g transform="translate(37.701875 73.206504) scale(0.1 -0.1)">
       <use xlink:href="#DejaVuSans-30"/>
       <use xlink:href="#DejaVuSans-2e" x="63.623047"/>
       <use xlink:href="#DejaVuSans-30" x="95.410156"/>
      </g>
     </g>
    </g>
    <g id="ytick_2">
     <g id="line2d_9">
      <g>
       <use xlink:href="#m2b96ce9aa9" x="60.605" y="41.969262" style="stroke: #000000; stroke-width: 0.8"/>
      </g>
     </g>
     <g id="text_9">
      <!-- 0.5 -->
      <g transform="translate(37.701875 45.76848) scale(0.1 -0.1)">
       <use xlink:href="#DejaVuSans-30"/>
       <use xlink:href="#DejaVuSans-2e" x="63.623047"/>
       <use xlink:href="#DejaVuSans-35" x="95.410156"/>
      </g>
     </g>
    </g>
   </g>
   <g id="line2d_10">
    <path d="M 60.605 42.526949 
L 66.801875 53.103537 
L 72.99875 59.518562 
L 79.195625 63.409472 
L 85.3925 65.769428 
L 91.589375 67.200813 
L 97.78625 68.068992 
L 103.983125 68.59557 
L 110.18 68.914955 
L 116.376875 69.108672 
L 122.57375 69.226167 
L 128.770625 69.297432 
L 134.9675 69.340656 
L 141.164375 69.366873 
L 147.36125 69.382774 
L 153.558125 69.392418 
L 159.755 69.398268 
L 165.951875 69.401816 
L 172.14875 69.403968 
L 178.345625 69.405273 
L 184.5425 69.406065 
L 190.739375 69.406545 
L 196.93625 69.406837 
L 203.133125 69.407013 
L 209.33 69.40712 
L 215.526875 69.407185 
L 221.72375 69.407225 
L 227.920625 69.407249 
L 234.1175 69.407263 
L 240.314375 69.407272 
L 246.51125 69.407277 
L 252.708125 69.40728 
L 258.905 69.407282 
L 265.101875 69.407284 
L 271.29875 69.407284 
L 277.495625 69.407285 
L 283.6925 69.407285 
L 289.889375 69.407285 
L 296.08625 69.407285 
L 302.283125 69.407285 
L 308.48 69.407285 
L 314.676875 69.407285 
L 320.87375 69.407285 
L 327.070625 69.407285 
L 333.2675 69.407285 
L 339.464375 69.407285 
L 345.66125 69.407285 
L 351.858125 69.407285 
L 358.055 69.407285 
L 364.251875 69.407285 
L 370.44875 69.407285 
L 376.645625 69.407285 
L 382.8425 69.407285 
L 389.039375 69.407285 
L 395.23625 69.407285 
L 401.433125 69.407285 
L 407.63 69.407285 
L 413.826875 69.407285 
L 420.02375 69.407285 
L 426.220625 69.407285 
L 432.4175 69.407285 
L 438.614375 69.407285 
" clip-path="url(#p276405020a)" style="fill: none; stroke: #1f77b4; stroke-width: 1.5; stroke-linecap: square"/>
   </g>
   <g id="patch_3">
    <path d="M 60.605 70.751302 
L 60.605 41.182932 
" style="fill: none; stroke: #000000; stroke-width: 0.8; stroke-linejoin: miter; stroke-linecap: square"/>
   </g>
   <g id="patch_4">
    <path d="M 432.4175 70.751302 
L 432.4175 41.182932 
" style="fill: none; stroke: #000000; stroke-width: 0.8; stroke-linejoin: miter; stroke-linecap: square"/>
   </g>
   <g id="patch_5">
    <path d="M 60.605 70.751302 
L 432.4175 70.751302 
" style="fill: none; stroke: #000000; stroke-width: 0.8; stroke-linejoin: miter; stroke-linecap: square"/>
   </g>
   <g id="patch_6">
    <path d="M 60.605 41.182932 
L 432.4175 41.182932 
" style="fill: none; stroke: #000000; stroke-width: 0.8; stroke-linejoin: miter; stroke-linecap: square"/>
   </g>
   <g id="legend_1">
    <g id="patch_7">
     <path d="M 248.4175 63.861057 
L 425.4175 63.861057 
Q 427.4175 63.861057 427.4175 61.861057 
L 427.4175 48.182932 
Q 427.4175 46.182932 425.4175 46.182932 
L 248.4175 46.182932 
Q 246.4175 46.182932 246.4175 48.182932 
L 246.4175 61.861057 
Q 246.4175 63.861057 248.4175 63.861057 
z
" style="fill: #ffffff; opacity: 0.8; stroke: #cccccc; stroke-linejoin: miter"/>
    </g>
    <g id="line2d_11">
     <path d="M 250.4175 54.28137 
L 260.4175 54.28137 
L 270.4175 54.28137 
" style="fill: none; stroke: #1f77b4; stroke-width: 1.5; stroke-linecap: square"/>
    </g>
    <g id="text_10">
     <!-- $h(t)$ with $n=0$ and $\tau=2.0ms$ -->
     <g transform="translate(278.4175 57.78137) scale(0.1 -0.1)">
      <defs>
       <path id="DejaVuSans-Oblique-68" d="M 3566 2113 
L 3156 0 
L 2578 0 
L 2988 2091 
Q 3016 2238 3031 2350 
Q 3047 2463 3047 2528 
Q 3047 2791 2881 2937 
Q 2716 3084 2419 3084 
Q 1956 3084 1617 2771 
Q 1278 2459 1178 1941 
L 800 0 
L 225 0 
L 1172 4863 
L 1747 4863 
L 1375 2950 
Q 1594 3244 1934 3414 
Q 2275 3584 2650 3584 
Q 3113 3584 3367 3334 
Q 3622 3084 3622 2631 
Q 3622 2519 3608 2391 
Q 3594 2263 3566 2113 
z
" transform="scale(0.015625)"/>
       <path id="DejaVuSans-28" d="M 1984 4856 
Q 1566 4138 1362 3434 
Q 1159 2731 1159 2009 
Q 1159 1288 1364 580 
Q 1569 -128 1984 -844 
L 1484 -844 
Q 1016 -109 783 600 
Q 550 1309 550 2009 
Q 550 2706 781 3412 
Q 1013 4119 1484 4856 
L 1984 4856 
z
" transform="scale(0.015625)"/>
       <path id="DejaVuSans-Oblique-74" d="M 2706 3500 
L 2619 3053 
L 1472 3053 
L 1100 1153 
Q 1081 1047 1072 975 
Q 1063 903 1063 863 
Q 1063 663 1183 572 
Q 1303 481 1569 481 
L 2150 481 
L 2053 0 
L 1503 0 
Q 991 0 739 200 
Q 488 400 488 806 
Q 488 878 497 964 
Q 506 1050 525 1153 
L 897 3053 
L 409 3053 
L 500 3500 
L 978 3500 
L 1172 4494 
L 1747 4494 
L 1556 3500 
L 2706 3500 
z
" transform="scale(0.015625)"/>
       <path id="DejaVuSans-29" d="M 513 4856 
L 1013 4856 
Q 1481 4119 1714 3412 
Q 1947 2706 1947 2009 
Q 1947 1309 1714 600 
Q 1481 -109 1013 -844 
L 513 -844 
Q 928 -128 1133 580 
Q 1338 1288 1338 2009 
Q 1338 2731 1133 3434 
Q 928 4138 513 4856 
z
" transform="scale(0.015625)"/>
       <path id="DejaVuSans-20" transform="scale(0.015625)"/>
       <path id="DejaVuSans-77" d="M 269 3500 
L 844 3500 
L 1563 769 
L 2278 3500 
L 2956 3500 
L 3675 769 
L 4391 3500 
L 4966 3500 
L 4050 0 
L 3372 0 
L 2619 2869 
L 1863 0 
L 1184 0 
L 269 3500 
z
" transform="scale(0.015625)"/>
       <path id="DejaVuSans-69" d="M 603 3500 
L 1178 3500 
L 1178 0 
L 603 0 
L 603 3500 
z
M 603 4863 
L 1178 4863 
L 1178 4134 
L 603 4134 
L 603 4863 
z
" transform="scale(0.015625)"/>
       <path id="DejaVuSans-74" d="M 1172 4494 
L 1172 3500 
L 2356 3500 
L 2356 3053 
L 1172 3053 
L 1172 1153 
Q 1172 725 1289 603 
Q 1406 481 1766 481 
L 2356 481 
L 2356 0 
L 1766 0 
Q 1100 0 847 248 
Q 594 497 594 1153 
L 594 3053 
L 172 3053 
L 172 3500 
L 594 3500 
L 594 4494 
L 1172 4494 
z
" transform="scale(0.015625)"/>
       <path id="DejaVuSans-68" d="M 3513 2113 
L 3513 0 
L 2938 0 
L 2938 2094 
Q 2938 2591 2744 2837 
Q 2550 3084 2163 3084 
Q 1697 3084 1428 2787 
Q 1159 2491 1159 1978 
L 1159 0 
L 581 0 
L 581 4863 
L 1159 4863 
L 1159 2956 
Q 1366 3272 1645 3428 
Q 1925 3584 2291 3584 
Q 2894 3584 3203 3211 
Q 3513 2838 3513 2113 
z
" transform="scale(0.015625)"/>
       <path id="DejaVuSans-Oblique-6e" d="M 3566 2113 
L 3156 0 
L 2578 0 
L 2988 2091 
Q 3016 2238 3031 2350 
Q 3047 2463 3047 2528 
Q 3047 2791 2881 2937 
Q 2716 3084 2419 3084 
Q 1956 3084 1622 2776 
Q 1288 2469 1184 1941 
L 800 0 
L 225 0 
L 903 3500 
L 1478 3500 
L 1363 2950 
Q 1603 3253 1940 3418 
Q 2278 3584 2650 3584 
Q 3113 3584 3367 3334 
Q 3622 3084 3622 2631 
Q 3622 2519 3608 2391 
Q 3594 2263 3566 2113 
z
" transform="scale(0.015625)"/>
       <path id="DejaVuSans-3d" d="M 678 2906 
L 4684 2906 
L 4684 2381 
L 678 2381 
L 678 2906 
z
M 678 1631 
L 4684 1631 
L 4684 1100 
L 678 1100 
L 678 1631 
z
" transform="scale(0.015625)"/>
       <path id="DejaVuSans-61" d="M 2194 1759 
Q 1497 1759 1228 1600 
Q 959 1441 959 1056 
Q 959 750 1161 570 
Q 1363 391 1709 391 
Q 2188 391 2477 730 
Q 2766 1069 2766 1631 
L 2766 1759 
L 2194 1759 
z
M 3341 1997 
L 3341 0 
L 2766 0 
L 2766 531 
Q 2569 213 2275 61 
Q 1981 -91 1556 -91 
Q 1019 -91 701 211 
Q 384 513 384 1019 
Q 384 1609 779 1909 
Q 1175 2209 1959 2209 
L 2766 2209 
L 2766 2266 
Q 2766 2663 2505 2880 
Q 2244 3097 1772 3097 
Q 1472 3097 1187 3025 
Q 903 2953 641 2809 
L 641 3341 
Q 956 3463 1253 3523 
Q 1550 3584 1831 3584 
Q 2591 3584 2966 3190 
Q 3341 2797 3341 1997 
z
" transform="scale(0.015625)"/>
       <path id="DejaVuSans-6e" d="M 3513 2113 
L 3513 0 
L 2938 0 
L 2938 2094 
Q 2938 2591 2744 2837 
Q 2550 3084 2163 3084 
Q 1697 3084 1428 2787 
Q 1159 2491 1159 1978 
L 1159 0 
L 581 0 
L 581 3500 
L 1159 3500 
L 1159 2956 
Q 1366 3272 1645 3428 
Q 1925 3584 2291 3584 
Q 2894 3584 3203 3211 
Q 3513 2838 3513 2113 
z
" transform="scale(0.015625)"/>
       <path id="DejaVuSans-64" d="M 2906 2969 
L 2906 4863 
L 3481 4863 
L 3481 0 
L 2906 0 
L 2906 525 
Q 2725 213 2448 61 
Q 2172 -91 1784 -91 
Q 1150 -91 751 415 
Q 353 922 353 1747 
Q 353 2572 751 3078 
Q 1150 3584 1784 3584 
Q 2172 3584 2448 3432 
Q 2725 3281 2906 2969 
z
M 947 1747 
Q 947 1113 1208 752 
Q 1469 391 1925 391 
Q 2381 391 2643 752 
Q 2906 1113 2906 1747 
Q 2906 2381 2643 2742 
Q 2381 3103 1925 3103 
Q 1469 3103 1208 2742 
Q 947 2381 947 1747 
z
" transform="scale(0.015625)"/>
       <path id="DejaVuSans-Oblique-3c4" d="M 2103 638 
Q 2188 488 2525 488 
L 2800 488 
L 2706 0 
L 2363 0 
Q 1800 0 1600 300 
Q 1403 606 1534 1269 
L 1856 2925 
L 541 2925 
L 653 3500 
L 3881 3500 
L 3769 2925 
L 2444 2925 
L 2113 1234 
Q 2025 781 2103 638 
z
" transform="scale(0.015625)"/>
       <path id="DejaVuSans-Oblique-6d" d="M 5747 2113 
L 5338 0 
L 4763 0 
L 5166 2094 
Q 5191 2228 5203 2325 
Q 5216 2422 5216 2491 
Q 5216 2772 5059 2928 
Q 4903 3084 4622 3084 
Q 4203 3084 3875 2770 
Q 3547 2456 3450 1953 
L 3066 0 
L 2491 0 
L 2900 2094 
Q 2925 2209 2937 2307 
Q 2950 2406 2950 2484 
Q 2950 2769 2794 2926 
Q 2638 3084 2363 3084 
Q 1938 3084 1609 2770 
Q 1281 2456 1184 1953 
L 800 0 
L 225 0 
L 909 3500 
L 1484 3500 
L 1375 2956 
Q 1609 3263 1923 3423 
Q 2238 3584 2597 3584 
Q 2978 3584 3223 3384 
Q 3469 3184 3519 2828 
Q 3781 3197 4126 3390 
Q 4472 3584 4856 3584 
Q 5306 3584 5551 3325 
Q 5797 3066 5797 2591 
Q 5797 2488 5784 2364 
Q 5772 2241 5747 2113 
z
" transform="scale(0.015625)"/>
       <path id="DejaVuSans-Oblique-73" d="M 3200 3397 
L 3091 2853 
Q 2863 2978 2609 3040 
Q 2356 3103 2088 3103 
Q 1634 3103 1373 2948 
Q 1113 2794 1113 2528 
Q 1113 2219 1719 2053 
Q 1766 2041 1788 2034 
L 1972 1978 
Q 2547 1819 2739 1644 
Q 2931 1469 2931 1166 
Q 2931 609 2489 259 
Q 2047 -91 1331 -91 
Q 1053 -91 747 -37 
Q 441 16 72 128 
L 184 722 
Q 500 559 806 475 
Q 1113 391 1394 391 
Q 1816 391 2080 572 
Q 2344 753 2344 1031 
Q 2344 1331 1650 1516 
L 1591 1531 
L 1394 1581 
Q 956 1697 753 1886 
Q 550 2075 550 2369 
Q 550 2928 970 3256 
Q 1391 3584 2113 3584 
Q 2397 3584 2667 3537 
Q 2938 3491 3200 3397 
z
" transform="scale(0.015625)"/>
      </defs>
      <use xlink:href="#DejaVuSans-Oblique-68" transform="translate(0 0.015625)"/>
      <use xlink:href="#DejaVuSans-28" transform="translate(63.378906 0.015625)"/>
      <use xlink:href="#DejaVuSans-Oblique-74" transform="translate(102.392578 0.015625)"/>
      <use xlink:href="#DejaVuSans-29" transform="translate(141.601562 0.015625)"/>
      <use xlink:href="#DejaVuSans-20" transform="translate(180.615234 0.015625)"/>
      <use xlink:href="#DejaVuSans-77" transform="translate(212.402344 0.015625)"/>
      <use xlink:href="#DejaVuSans-69" transform="translate(294.189453 0.015625)"/>
      <use xlink:href="#DejaVuSans-74" transform="translate(321.972656 0.015625)"/>
      <use xlink:href="#DejaVuSans-68" transform="translate(361.181641 0.015625)"/>
      <use xlink:href="#DejaVuSans-20" transform="translate(424.560547 0.015625)"/>
      <use xlink:href="#DejaVuSans-Oblique-6e" transform="translate(456.347656 0.015625)"/>
      <use xlink:href="#DejaVuSans-3d" transform="translate(539.208984 0.015625)"/>
      <use xlink:href="#DejaVuSans-30" transform="translate(642.480469 0.015625)"/>
      <use xlink:href="#DejaVuSans-20" transform="translate(706.103516 0.015625)"/>
      <use xlink:href="#DejaVuSans-61" transform="translate(737.890625 0.015625)"/>
      <use xlink:href="#DejaVuSans-6e" transform="translate(799.169922 0.015625)"/>
      <use xlink:href="#DejaVuSans-64" transform="translate(862.548828 0.015625)"/>
      <use xlink:href="#DejaVuSans-20" transform="translate(926.025391 0.015625)"/>
      <use xlink:href="#DejaVuSans-Oblique-3c4" transform="translate(957.8125 0.015625)"/>
      <use xlink:href="#DejaVuSans-3d" transform="translate(1037.5 0.015625)"/>
      <use xlink:href="#DejaVuSans-32" transform="translate(1140.771484 0.015625)"/>
      <use xlink:href="#DejaVuSans-2e" transform="translate(1204.394531 0.015625)"/>
      <use xlink:href="#DejaVuSans-30" transform="translate(1236.181641 0.015625)"/>
      <use xlink:href="#DejaVuSans-Oblique-6d" transform="translate(1299.804688 0.015625)"/>
      <use xlink:href="#DejaVuSans-Oblique-73" transform="translate(1397.216797 0.015625)"/>
     </g>
    </g>
   </g>
  </g>
  <g id="axes_2">
   <g id="patch_8">
    <path d="M 60.605 129.314202 
L 432.4175 129.314202 
L 432.4175 99.745831 
L 60.605 99.745831 
z
" style="fill: #ffffff"/>
   </g>
   <g id="matplotlib.axis_3">
    <g id="xtick_8">
     <g id="line2d_12">
      <g>
       <use xlink:href="#mbc4d5fe373" x="60.605" y="129.314202" style="stroke: #000000; stroke-width: 0.8"/>
      </g>
     </g>
     <g id="text_11">
      <!-- 0.00 -->
      <g transform="translate(49.472188 143.912639) scale(0.1 -0.1)">
       <use xlink:href="#DejaVuSans-30"/>
       <use xlink:href="#DejaVuSans-2e" x="63.623047"/>
       <use xlink:href="#DejaVuSans-30" x="95.410156"/>
       <use xlink:href="#DejaVuSans-30" x="159.033203"/>
      </g>
     </g>
    </g>
    <g id="xtick_9">
     <g id="line2d_13">
      <g>
       <use xlink:href="#mbc4d5fe373" x="122.57375" y="129.314202" style="stroke: #000000; stroke-width: 0.8"/>
      </g>
     </g>
     <g id="text_12">
      <!-- 0.01 -->
      <g transform="translate(111.440938 143.912639) scale(0.1 -0.1)">
       <use xlink:href="#DejaVuSans-30"/>
       <use xlink:href="#DejaVuSans-2e" x="63.623047"/>
       <use xlink:href="#DejaVuSans-30" x="95.410156"/>
       <use xlink:href="#DejaVuSans-31" x="159.033203"/>
      </g>
     </g>
    </g>
    <g id="xtick_10">
     <g id="line2d_14">
      <g>
       <use xlink:href="#mbc4d5fe373" x="184.5425" y="129.314202" style="stroke: #000000; stroke-width: 0.8"/>
      </g>
     </g>
     <g id="text_13">
      <!-- 0.02 -->
      <g transform="translate(173.409688 143.912639) scale(0.1 -0.1)">
       <use xlink:href="#DejaVuSans-30"/>
       <use xlink:href="#DejaVuSans-2e" x="63.623047"/>
       <use xlink:href="#DejaVuSans-30" x="95.410156"/>
       <use xlink:href="#DejaVuSans-32" x="159.033203"/>
      </g>
     </g>
    </g>
    <g id="xtick_11">
     <g id="line2d_15">
      <g>
       <use xlink:href="#mbc4d5fe373" x="246.51125" y="129.314202" style="stroke: #000000; stroke-width: 0.8"/>
      </g>
     </g>
     <g id="text_14">
      <!-- 0.03 -->
      <g transform="translate(235.378438 143.912639) scale(0.1 -0.1)">
       <use xlink:href="#DejaVuSans-30"/>
       <use xlink:href="#DejaVuSans-2e" x="63.623047"/>
       <use xlink:href="#DejaVuSans-30" x="95.410156"/>
       <use xlink:href="#DejaVuSans-33" x="159.033203"/>
      </g>
     </g>
    </g>
    <g id="xtick_12">
     <g id="line2d_16">
      <g>
       <use xlink:href="#mbc4d5fe373" x="308.48" y="129.314202" style="stroke: #000000; stroke-width: 0.8"/>
      </g>
     </g>
     <g id="text_15">
      <!-- 0.04 -->
      <g transform="translate(297.347188 143.912639) scale(0.1 -0.1)">
       <use xlink:href="#DejaVuSans-30"/>
       <use xlink:href="#DejaVuSans-2e" x="63.623047"/>
       <use xlink:href="#DejaVuSans-30" x="95.410156"/>
       <use xlink:href="#DejaVuSans-34" x="159.033203"/>
      </g>
     </g>
    </g>
    <g id="xtick_13">
     <g id="line2d_17">
      <g>
       <use xlink:href="#mbc4d5fe373" x="370.44875" y="129.314202" style="stroke: #000000; stroke-width: 0.8"/>
      </g>
     </g>
     <g id="text_16">
      <!-- 0.05 -->
      <g transform="translate(359.315938 143.912639) scale(0.1 -0.1)">
       <use xlink:href="#DejaVuSans-30"/>
       <use xlink:href="#DejaVuSans-2e" x="63.623047"/>
       <use xlink:href="#DejaVuSans-30" x="95.410156"/>
       <use xlink:href="#DejaVuSans-35" x="159.033203"/>
      </g>
     </g>
    </g>
    <g id="xtick_14">
     <g id="line2d_18">
      <g>
       <use xlink:href="#mbc4d5fe373" x="432.4175" y="129.314202" style="stroke: #000000; stroke-width: 0.8"/>
      </g>
     </g>
     <g id="text_17">
      <!-- 0.06 -->
      <g transform="translate(421.284688 143.912639) scale(0.1 -0.1)">
       <use xlink:href="#DejaVuSans-30"/>
       <use xlink:href="#DejaVuSans-2e" x="63.623047"/>
       <use xlink:href="#DejaVuSans-30" x="95.410156"/>
       <use xlink:href="#DejaVuSans-36" x="159.033203"/>
      </g>
     </g>
    </g>
   </g>
   <g id="matplotlib.axis_4">
    <g id="ytick_3">
     <g id="line2d_19">
      <g>
       <use xlink:href="#m2b96ce9aa9" x="60.605" y="127.970185" style="stroke: #000000; stroke-width: 0.8"/>
      </g>
     </g>
     <g id="text_18">
      <!-- 0.0 -->
      <g transform="translate(37.701875 131.769403) scale(0.1 -0.1)">
       <use xlink:href="#DejaVuSans-30"/>
       <use xlink:href="#DejaVuSans-2e" x="63.623047"/>
       <use xlink:href="#DejaVuSans-30" x="95.410156"/>
      </g>
     </g>
    </g>
    <g id="ytick_4">
     <g id="line2d_20">
      <g>
       <use xlink:href="#m2b96ce9aa9" x="60.605" y="101.000307" style="stroke: #000000; stroke-width: 0.8"/>
      </g>
     </g>
     <g id="text_19">
      <!-- 0.2 -->
      <g transform="translate(37.701875 104.799526) scale(0.1 -0.1)">
       <use xlink:href="#DejaVuSans-30"/>
       <use xlink:href="#DejaVuSans-2e" x="63.623047"/>
       <use xlink:href="#DejaVuSans-32" x="95.410156"/>
      </g>
     </g>
    </g>
   </g>
   <g id="line2d_21">
    <path d="M 60.605 101.089848 
L 66.801875 105.962427 
L 72.99875 109.951756 
L 79.195625 113.217943 
L 85.3925 115.892071 
L 91.589375 118.081462 
L 97.78625 119.873983 
L 103.983125 121.341575 
L 110.18 122.543138 
L 116.376875 123.526895 
L 122.57375 124.332327 
L 128.770625 124.991759 
L 134.9675 125.531656 
L 141.164375 125.973686 
L 147.36125 126.33559 
L 153.558125 126.631892 
L 159.755 126.874483 
L 165.951875 127.0731 
L 172.14875 127.235714 
L 178.345625 127.368851 
L 184.5425 127.477854 
L 190.739375 127.567099 
L 196.93625 127.640166 
L 203.133125 127.699988 
L 209.33 127.748966 
L 215.526875 127.789066 
L 221.72375 127.821898 
L 227.920625 127.848777 
L 234.1175 127.870785 
L 240.314375 127.888803 
L 246.51125 127.903555 
L 252.708125 127.915633 
L 258.905 127.925521 
L 265.101875 127.933618 
L 271.29875 127.940246 
L 277.495625 127.945673 
L 283.6925 127.950116 
L 289.889375 127.953754 
L 296.08625 127.956732 
L 302.283125 127.959171 
L 308.48 127.961167 
L 314.676875 127.962802 
L 320.87375 127.96414 
L 327.070625 127.965236 
L 333.2675 127.966133 
L 339.464375 127.966867 
L 345.66125 127.967469 
L 351.858125 127.967961 
L 358.055 127.968364 
L 364.251875 127.968694 
L 370.44875 127.968964 
L 376.645625 127.969186 
L 382.8425 127.969367 
L 389.039375 127.969515 
L 395.23625 127.969636 
L 401.433125 127.969736 
L 407.63 127.969817 
L 413.826875 127.969884 
L 420.02375 127.969938 
L 426.220625 127.969983 
L 432.4175 127.97002 
L 438.614375 127.970049 
" clip-path="url(#pfae6ad7434)" style="fill: none; stroke: #1f77b4; stroke-width: 1.5; stroke-linecap: square"/>
   </g>
   <g id="patch_9">
    <path d="M 60.605 129.314202 
L 60.605 99.745831 
" style="fill: none; stroke: #000000; stroke-width: 0.8; stroke-linejoin: miter; stroke-linecap: square"/>
   </g>
   <g id="patch_10">
    <path d="M 432.4175 129.314202 
L 432.4175 99.745831 
" style="fill: none; stroke: #000000; stroke-width: 0.8; stroke-linejoin: miter; stroke-linecap: square"/>
   </g>
   <g id="patch_11">
    <path d="M 60.605 129.314202 
L 432.4175 129.314202 
" style="fill: none; stroke: #000000; stroke-width: 0.8; stroke-linejoin: miter; stroke-linecap: square"/>
   </g>
   <g id="patch_12">
    <path d="M 60.605 99.745831 
L 432.4175 99.745831 
" style="fill: none; stroke: #000000; stroke-width: 0.8; stroke-linejoin: miter; stroke-linecap: square"/>
   </g>
   <g id="legend_2">
    <g id="patch_13">
     <path d="M 248.4175 122.423956 
L 425.4175 122.423956 
Q 427.4175 122.423956 427.4175 120.423956 
L 427.4175 106.745831 
Q 427.4175 104.745831 425.4175 104.745831 
L 248.4175 104.745831 
Q 246.4175 104.745831 246.4175 106.745831 
L 246.4175 120.423956 
Q 246.4175 122.423956 248.4175 122.423956 
z
" style="fill: #ffffff; opacity: 0.8; stroke: #cccccc; stroke-linejoin: miter"/>
    </g>
    <g id="line2d_22">
     <path d="M 250.4175 112.844269 
L 260.4175 112.844269 
L 270.4175 112.844269 
" style="fill: none; stroke: #1f77b4; stroke-width: 1.5; stroke-linecap: square"/>
    </g>
    <g id="text_20">
     <!-- $h(t)$ with $n=0$ and $\tau=5.0ms$ -->
     <g transform="translate(278.4175 116.344269) scale(0.1 -0.1)">
      <use xlink:href="#DejaVuSans-Oblique-68" transform="translate(0 0.015625)"/>
      <use xlink:href="#DejaVuSans-28" transform="translate(63.378906 0.015625)"/>
      <use xlink:href="#DejaVuSans-Oblique-74" transform="translate(102.392578 0.015625)"/>
      <use xlink:href="#DejaVuSans-29" transform="translate(141.601562 0.015625)"/>
      <use xlink:href="#DejaVuSans-20" transform="translate(180.615234 0.015625)"/>
      <use xlink:href="#DejaVuSans-77" transform="translate(212.402344 0.015625)"/>
      <use xlink:href="#DejaVuSans-69" transform="translate(294.189453 0.015625)"/>
      <use xlink:href="#DejaVuSans-74" transform="translate(321.972656 0.015625)"/>
      <use xlink:href="#DejaVuSans-68" transform="translate(361.181641 0.015625)"/>
      <use xlink:href="#DejaVuSans-20" transform="translate(424.560547 0.015625)"/>
      <use xlink:href="#DejaVuSans-Oblique-6e" transform="translate(456.347656 0.015625)"/>
      <use xlink:href="#DejaVuSans-3d" transform="translate(539.208984 0.015625)"/>
      <use xlink:href="#DejaVuSans-30" transform="translate(642.480469 0.015625)"/>
      <use xlink:href="#DejaVuSans-20" transform="translate(706.103516 0.015625)"/>
      <use xlink:href="#DejaVuSans-61" transform="translate(737.890625 0.015625)"/>
      <use xlink:href="#DejaVuSans-6e" transform="translate(799.169922 0.015625)"/>
      <use xlink:href="#DejaVuSans-64" transform="translate(862.548828 0.015625)"/>
      <use xlink:href="#DejaVuSans-20" transform="translate(926.025391 0.015625)"/>
      <use xlink:href="#DejaVuSans-Oblique-3c4" transform="translate(957.8125 0.015625)"/>
      <use xlink:href="#DejaVuSans-3d" transform="translate(1037.5 0.015625)"/>
      <use xlink:href="#DejaVuSans-35" transform="translate(1140.771484 0.015625)"/>
      <use xlink:href="#DejaVuSans-2e" transform="translate(1204.394531 0.015625)"/>
      <use xlink:href="#DejaVuSans-30" transform="translate(1236.181641 0.015625)"/>
      <use xlink:href="#DejaVuSans-Oblique-6d" transform="translate(1299.804688 0.015625)"/>
      <use xlink:href="#DejaVuSans-Oblique-73" transform="translate(1397.216797 0.015625)"/>
     </g>
    </g>
   </g>
  </g>
  <g id="axes_3">
   <g id="patch_14">
    <path d="M 60.605 187.877101 
L 432.4175 187.877101 
L 432.4175 158.308731 
L 60.605 158.308731 
z
" style="fill: #ffffff"/>
   </g>
   <g id="matplotlib.axis_5">
    <g id="xtick_15">
     <g id="line2d_23">
      <g>
       <use xlink:href="#mbc4d5fe373" x="60.605" y="187.877101" style="stroke: #000000; stroke-width: 0.8"/>
      </g>
     </g>
     <g id="text_21">
      <!-- 0.00 -->
      <g transform="translate(49.472188 202.475538) scale(0.1 -0.1)">
       <use xlink:href="#DejaVuSans-30"/>
       <use xlink:href="#DejaVuSans-2e" x="63.623047"/>
       <use xlink:href="#DejaVuSans-30" x="95.410156"/>
       <use xlink:href="#DejaVuSans-30" x="159.033203"/>
      </g>
     </g>
    </g>
    <g id="xtick_16">
     <g id="line2d_24">
      <g>
       <use xlink:href="#mbc4d5fe373" x="122.57375" y="187.877101" style="stroke: #000000; stroke-width: 0.8"/>
      </g>
     </g>
     <g id="text_22">
      <!-- 0.01 -->
      <g transform="translate(111.440938 202.475538) scale(0.1 -0.1)">
       <use xlink:href="#DejaVuSans-30"/>
       <use xlink:href="#DejaVuSans-2e" x="63.623047"/>
       <use xlink:href="#DejaVuSans-30" x="95.410156"/>
       <use xlink:href="#DejaVuSans-31" x="159.033203"/>
      </g>
     </g>
    </g>
    <g id="xtick_17">
     <g id="line2d_25">
      <g>
       <use xlink:href="#mbc4d5fe373" x="184.5425" y="187.877101" style="stroke: #000000; stroke-width: 0.8"/>
      </g>
     </g>
     <g id="text_23">
      <!-- 0.02 -->
      <g transform="translate(173.409688 202.475538) scale(0.1 -0.1)">
       <use xlink:href="#DejaVuSans-30"/>
       <use xlink:href="#DejaVuSans-2e" x="63.623047"/>
       <use xlink:href="#DejaVuSans-30" x="95.410156"/>
       <use xlink:href="#DejaVuSans-32" x="159.033203"/>
      </g>
     </g>
    </g>
    <g id="xtick_18">
     <g id="line2d_26">
      <g>
       <use xlink:href="#mbc4d5fe373" x="246.51125" y="187.877101" style="stroke: #000000; stroke-width: 0.8"/>
      </g>
     </g>
     <g id="text_24">
      <!-- 0.03 -->
      <g transform="translate(235.378438 202.475538) scale(0.1 -0.1)">
       <use xlink:href="#DejaVuSans-30"/>
       <use xlink:href="#DejaVuSans-2e" x="63.623047"/>
       <use xlink:href="#DejaVuSans-30" x="95.410156"/>
       <use xlink:href="#DejaVuSans-33" x="159.033203"/>
      </g>
     </g>
    </g>
    <g id="xtick_19">
     <g id="line2d_27">
      <g>
       <use xlink:href="#mbc4d5fe373" x="308.48" y="187.877101" style="stroke: #000000; stroke-width: 0.8"/>
      </g>
     </g>
     <g id="text_25">
      <!-- 0.04 -->
      <g transform="translate(297.347188 202.475538) scale(0.1 -0.1)">
       <use xlink:href="#DejaVuSans-30"/>
       <use xlink:href="#DejaVuSans-2e" x="63.623047"/>
       <use xlink:href="#DejaVuSans-30" x="95.410156"/>
       <use xlink:href="#DejaVuSans-34" x="159.033203"/>
      </g>
     </g>
    </g>
    <g id="xtick_20">
     <g id="line2d_28">
      <g>
       <use xlink:href="#mbc4d5fe373" x="370.44875" y="187.877101" style="stroke: #000000; stroke-width: 0.8"/>
      </g>
     </g>
     <g id="text_26">
      <!-- 0.05 -->
      <g transform="translate(359.315938 202.475538) scale(0.1 -0.1)">
       <use xlink:href="#DejaVuSans-30"/>
       <use xlink:href="#DejaVuSans-2e" x="63.623047"/>
       <use xlink:href="#DejaVuSans-30" x="95.410156"/>
       <use xlink:href="#DejaVuSans-35" x="159.033203"/>
      </g>
     </g>
    </g>
    <g id="xtick_21">
     <g id="line2d_29">
      <g>
       <use xlink:href="#mbc4d5fe373" x="432.4175" y="187.877101" style="stroke: #000000; stroke-width: 0.8"/>
      </g>
     </g>
     <g id="text_27">
      <!-- 0.06 -->
      <g transform="translate(421.284688 202.475538) scale(0.1 -0.1)">
       <use xlink:href="#DejaVuSans-30"/>
       <use xlink:href="#DejaVuSans-2e" x="63.623047"/>
       <use xlink:href="#DejaVuSans-30" x="95.410156"/>
       <use xlink:href="#DejaVuSans-36" x="159.033203"/>
      </g>
     </g>
    </g>
   </g>
   <g id="matplotlib.axis_6">
    <g id="ytick_5">
     <g id="line2d_30">
      <g>
       <use xlink:href="#m2b96ce9aa9" x="60.605" y="186.533084" style="stroke: #000000; stroke-width: 0.8"/>
      </g>
     </g>
     <g id="text_28">
      <!-- 0.0 -->
      <g transform="translate(37.701875 190.332303) scale(0.1 -0.1)">
       <use xlink:href="#DejaVuSans-30"/>
       <use xlink:href="#DejaVuSans-2e" x="63.623047"/>
       <use xlink:href="#DejaVuSans-30" x="95.410156"/>
      </g>
     </g>
    </g>
    <g id="ytick_6">
     <g id="line2d_31">
      <g>
       <use xlink:href="#m2b96ce9aa9" x="60.605" y="159.630351" style="stroke: #000000; stroke-width: 0.8"/>
      </g>
     </g>
     <g id="text_29">
      <!-- 0.1 -->
      <g transform="translate(37.701875 163.42957) scale(0.1 -0.1)">
       <use xlink:href="#DejaVuSans-30"/>
       <use xlink:href="#DejaVuSans-2e" x="63.623047"/>
       <use xlink:href="#DejaVuSans-31" x="95.410156"/>
      </g>
     </g>
    </g>
   </g>
   <g id="line2d_32">
    <path d="M 60.605 159.652747 
L 66.801875 162.21075 
L 72.99875 164.525326 
L 79.195625 166.619641 
L 85.3925 168.514656 
L 91.589375 170.229336 
L 97.78625 171.780842 
L 103.983125 173.184704 
L 110.18 174.45497 
L 116.376875 175.604355 
L 122.57375 176.644361 
L 128.770625 177.585397 
L 134.9675 178.436882 
L 141.164375 179.207338 
L 147.36125 179.904475 
L 153.558125 180.53527 
L 159.755 181.106038 
L 165.951875 181.622489 
L 172.14875 182.089794 
L 178.345625 182.512629 
L 184.5425 182.895226 
L 190.739375 183.241414 
L 196.93625 183.554658 
L 203.133125 183.838092 
L 209.33 184.094555 
L 215.526875 184.326612 
L 221.72375 184.536585 
L 227.920625 184.726577 
L 234.1175 184.898489 
L 240.314375 185.054041 
L 246.51125 185.194791 
L 252.708125 185.322146 
L 258.905 185.437382 
L 265.101875 185.541652 
L 271.29875 185.635999 
L 277.495625 185.721368 
L 283.6925 185.798613 
L 289.889375 185.868507 
L 296.08625 185.93175 
L 302.283125 185.988975 
L 308.48 186.040753 
L 314.676875 186.087605 
L 320.87375 186.129998 
L 327.070625 186.168357 
L 333.2675 186.203065 
L 339.464375 186.23447 
L 345.66125 186.262887 
L 351.858125 186.2886 
L 358.055 186.311866 
L 364.251875 186.332917 
L 370.44875 186.351966 
L 376.645625 186.369201 
L 382.8425 186.384797 
L 389.039375 186.398908 
L 395.23625 186.411677 
L 401.433125 186.42323 
L 407.63 186.433684 
L 413.826875 186.443143 
L 420.02375 186.451702 
L 426.220625 186.459447 
L 432.4175 186.466454 
L 438.614375 186.472795 
" clip-path="url(#pdf3945f4b9)" style="fill: none; stroke: #1f77b4; stroke-width: 1.5; stroke-linecap: square"/>
   </g>
   <g id="patch_15">
    <path d="M 60.605 187.877101 
L 60.605 158.308731 
" style="fill: none; stroke: #000000; stroke-width: 0.8; stroke-linejoin: miter; stroke-linecap: square"/>
   </g>
   <g id="patch_16">
    <path d="M 432.4175 187.877101 
L 432.4175 158.308731 
" style="fill: none; stroke: #000000; stroke-width: 0.8; stroke-linejoin: miter; stroke-linecap: square"/>
   </g>
   <g id="patch_17">
    <path d="M 60.605 187.877101 
L 432.4175 187.877101 
" style="fill: none; stroke: #000000; stroke-width: 0.8; stroke-linejoin: miter; stroke-linecap: square"/>
   </g>
   <g id="patch_18">
    <path d="M 60.605 158.308731 
L 432.4175 158.308731 
" style="fill: none; stroke: #000000; stroke-width: 0.8; stroke-linejoin: miter; stroke-linecap: square"/>
   </g>
   <g id="legend_3">
    <g id="patch_19">
     <path d="M 242.1175 180.986856 
L 425.4175 180.986856 
Q 427.4175 180.986856 427.4175 178.986856 
L 427.4175 165.308731 
Q 427.4175 163.308731 425.4175 163.308731 
L 242.1175 163.308731 
Q 240.1175 163.308731 240.1175 165.308731 
L 240.1175 178.986856 
Q 240.1175 180.986856 242.1175 180.986856 
z
" style="fill: #ffffff; opacity: 0.8; stroke: #cccccc; stroke-linejoin: miter"/>
    </g>
    <g id="line2d_33">
     <path d="M 244.1175 171.407168 
L 254.1175 171.407168 
L 264.1175 171.407168 
" style="fill: none; stroke: #1f77b4; stroke-width: 1.5; stroke-linecap: square"/>
    </g>
    <g id="text_30">
     <!-- $h(t)$ with $n=0$ and $\tau=10.0ms$ -->
     <g transform="translate(272.1175 174.907168) scale(0.1 -0.1)">
      <use xlink:href="#DejaVuSans-Oblique-68" transform="translate(0 0.015625)"/>
      <use xlink:href="#DejaVuSans-28" transform="translate(63.378906 0.015625)"/>
      <use xlink:href="#DejaVuSans-Oblique-74" transform="translate(102.392578 0.015625)"/>
      <use xlink:href="#DejaVuSans-29" transform="translate(141.601562 0.015625)"/>
      <use xlink:href="#DejaVuSans-20" transform="translate(180.615234 0.015625)"/>
      <use xlink:href="#DejaVuSans-77" transform="translate(212.402344 0.015625)"/>
      <use xlink:href="#DejaVuSans-69" transform="translate(294.189453 0.015625)"/>
      <use xlink:href="#DejaVuSans-74" transform="translate(321.972656 0.015625)"/>
      <use xlink:href="#DejaVuSans-68" transform="translate(361.181641 0.015625)"/>
      <use xlink:href="#DejaVuSans-20" transform="translate(424.560547 0.015625)"/>
      <use xlink:href="#DejaVuSans-Oblique-6e" transform="translate(456.347656 0.015625)"/>
      <use xlink:href="#DejaVuSans-3d" transform="translate(539.208984 0.015625)"/>
      <use xlink:href="#DejaVuSans-30" transform="translate(642.480469 0.015625)"/>
      <use xlink:href="#DejaVuSans-20" transform="translate(706.103516 0.015625)"/>
      <use xlink:href="#DejaVuSans-61" transform="translate(737.890625 0.015625)"/>
      <use xlink:href="#DejaVuSans-6e" transform="translate(799.169922 0.015625)"/>
      <use xlink:href="#DejaVuSans-64" transform="translate(862.548828 0.015625)"/>
      <use xlink:href="#DejaVuSans-20" transform="translate(926.025391 0.015625)"/>
      <use xlink:href="#DejaVuSans-Oblique-3c4" transform="translate(957.8125 0.015625)"/>
      <use xlink:href="#DejaVuSans-3d" transform="translate(1037.5 0.015625)"/>
      <use xlink:href="#DejaVuSans-31" transform="translate(1140.771484 0.015625)"/>
      <use xlink:href="#DejaVuSans-30" transform="translate(1204.394531 0.015625)"/>
      <use xlink:href="#DejaVuSans-2e" transform="translate(1268.017578 0.015625)"/>
      <use xlink:href="#DejaVuSans-30" transform="translate(1299.804688 0.015625)"/>
      <use xlink:href="#DejaVuSans-Oblique-6d" transform="translate(1363.427734 0.015625)"/>
      <use xlink:href="#DejaVuSans-Oblique-73" transform="translate(1460.839844 0.015625)"/>
     </g>
    </g>
   </g>
  </g>
  <g id="axes_4">
   <g id="patch_20">
    <path d="M 60.605 246.44 
L 432.4175 246.44 
L 432.4175 216.87163 
L 60.605 216.87163 
z
" style="fill: #ffffff"/>
   </g>
   <g id="matplotlib.axis_7">
    <g id="xtick_22">
     <g id="line2d_34">
      <g>
       <use xlink:href="#mbc4d5fe373" x="60.605" y="246.44" style="stroke: #000000; stroke-width: 0.8"/>
      </g>
     </g>
     <g id="text_31">
      <!-- 0.00 -->
      <g transform="translate(49.472188 261.038438) scale(0.1 -0.1)">
       <use xlink:href="#DejaVuSans-30"/>
       <use xlink:href="#DejaVuSans-2e" x="63.623047"/>
       <use xlink:href="#DejaVuSans-30" x="95.410156"/>
       <use xlink:href="#DejaVuSans-30" x="159.033203"/>
      </g>
     </g>
    </g>
    <g id="xtick_23">
     <g id="line2d_35">
      <g>
       <use xlink:href="#mbc4d5fe373" x="122.57375" y="246.44" style="stroke: #000000; stroke-width: 0.8"/>
      </g>
     </g>
     <g id="text_32">
      <!-- 0.01 -->
      <g transform="translate(111.440938 261.038438) scale(0.1 -0.1)">
       <use xlink:href="#DejaVuSans-30"/>
       <use xlink:href="#DejaVuSans-2e" x="63.623047"/>
       <use xlink:href="#DejaVuSans-30" x="95.410156"/>
       <use xlink:href="#DejaVuSans-31" x="159.033203"/>
      </g>
     </g>
    </g>
    <g id="xtick_24">
     <g id="line2d_36">
      <g>
       <use xlink:href="#mbc4d5fe373" x="184.5425" y="246.44" style="stroke: #000000; stroke-width: 0.8"/>
      </g>
     </g>
     <g id="text_33">
      <!-- 0.02 -->
      <g transform="translate(173.409688 261.038438) scale(0.1 -0.1)">
       <use xlink:href="#DejaVuSans-30"/>
       <use xlink:href="#DejaVuSans-2e" x="63.623047"/>
       <use xlink:href="#DejaVuSans-30" x="95.410156"/>
       <use xlink:href="#DejaVuSans-32" x="159.033203"/>
      </g>
     </g>
    </g>
    <g id="xtick_25">
     <g id="line2d_37">
      <g>
       <use xlink:href="#mbc4d5fe373" x="246.51125" y="246.44" style="stroke: #000000; stroke-width: 0.8"/>
      </g>
     </g>
     <g id="text_34">
      <!-- 0.03 -->
      <g transform="translate(235.378438 261.038438) scale(0.1 -0.1)">
       <use xlink:href="#DejaVuSans-30"/>
       <use xlink:href="#DejaVuSans-2e" x="63.623047"/>
       <use xlink:href="#DejaVuSans-30" x="95.410156"/>
       <use xlink:href="#DejaVuSans-33" x="159.033203"/>
      </g>
     </g>
    </g>
    <g id="xtick_26">
     <g id="line2d_38">
      <g>
       <use xlink:href="#mbc4d5fe373" x="308.48" y="246.44" style="stroke: #000000; stroke-width: 0.8"/>
      </g>
     </g>
     <g id="text_35">
      <!-- 0.04 -->
      <g transform="translate(297.347188 261.038438) scale(0.1 -0.1)">
       <use xlink:href="#DejaVuSans-30"/>
       <use xlink:href="#DejaVuSans-2e" x="63.623047"/>
       <use xlink:href="#DejaVuSans-30" x="95.410156"/>
       <use xlink:href="#DejaVuSans-34" x="159.033203"/>
      </g>
     </g>
    </g>
    <g id="xtick_27">
     <g id="line2d_39">
      <g>
       <use xlink:href="#mbc4d5fe373" x="370.44875" y="246.44" style="stroke: #000000; stroke-width: 0.8"/>
      </g>
     </g>
     <g id="text_36">
      <!-- 0.05 -->
      <g transform="translate(359.315938 261.038438) scale(0.1 -0.1)">
       <use xlink:href="#DejaVuSans-30"/>
       <use xlink:href="#DejaVuSans-2e" x="63.623047"/>
       <use xlink:href="#DejaVuSans-30" x="95.410156"/>
       <use xlink:href="#DejaVuSans-35" x="159.033203"/>
      </g>
     </g>
    </g>
    <g id="xtick_28">
     <g id="line2d_40">
      <g>
       <use xlink:href="#mbc4d5fe373" x="432.4175" y="246.44" style="stroke: #000000; stroke-width: 0.8"/>
      </g>
     </g>
     <g id="text_37">
      <!-- 0.06 -->
      <g transform="translate(421.284688 261.038438) scale(0.1 -0.1)">
       <use xlink:href="#DejaVuSans-30"/>
       <use xlink:href="#DejaVuSans-2e" x="63.623047"/>
       <use xlink:href="#DejaVuSans-30" x="95.410156"/>
       <use xlink:href="#DejaVuSans-36" x="159.033203"/>
      </g>
     </g>
    </g>
    <g id="text_38">
     <!-- $t$ -->
     <g transform="translate(244.51125 274.716563) scale(0.1 -0.1)">
      <use xlink:href="#DejaVuSans-Oblique-74" transform="translate(0 0.78125)"/>
     </g>
    </g>
   </g>
   <g id="matplotlib.axis_8">
    <g id="ytick_7">
     <g id="line2d_41">
      <g>
       <use xlink:href="#m2b96ce9aa9" x="60.605" y="245.095983" style="stroke: #000000; stroke-width: 0.8"/>
      </g>
     </g>
     <g id="text_39">
      <!-- 0.00 -->
      <g transform="translate(31.339375 248.895202) scale(0.1 -0.1)">
       <use xlink:href="#DejaVuSans-30"/>
       <use xlink:href="#DejaVuSans-2e" x="63.623047"/>
       <use xlink:href="#DejaVuSans-30" x="95.410156"/>
       <use xlink:href="#DejaVuSans-30" x="159.033203"/>
      </g>
     </g>
    </g>
    <g id="ytick_8">
     <g id="line2d_42">
      <g>
       <use xlink:href="#m2b96ce9aa9" x="60.605" y="218.210047" style="stroke: #000000; stroke-width: 0.8"/>
      </g>
     </g>
     <g id="text_40">
      <!-- 0.05 -->
      <g transform="translate(31.339375 222.009266) scale(0.1 -0.1)">
       <use xlink:href="#DejaVuSans-30"/>
       <use xlink:href="#DejaVuSans-2e" x="63.623047"/>
       <use xlink:href="#DejaVuSans-30" x="95.410156"/>
       <use xlink:href="#DejaVuSans-35" x="159.033203"/>
      </g>
     </g>
    </g>
   </g>
   <g id="line2d_43">
    <path d="M 60.605 218.215647 
L 66.801875 219.526616 
L 72.99875 220.773649 
L 79.195625 221.959863 
L 85.3925 223.088225 
L 91.589375 224.161556 
L 97.78625 225.18254 
L 103.983125 226.15373 
L 110.18 227.077555 
L 116.376875 227.956324 
L 122.57375 228.792235 
L 128.770625 229.587378 
L 134.9675 230.343742 
L 141.164375 231.063217 
L 147.36125 231.747603 
L 153.558125 232.398611 
L 159.755 233.017869 
L 165.951875 233.606926 
L 172.14875 234.167254 
L 178.345625 234.700254 
L 184.5425 235.20726 
L 190.739375 235.689539 
L 196.93625 236.148296 
L 203.133125 236.58468 
L 209.33 236.999781 
L 215.526875 237.394638 
L 221.72375 237.770237 
L 227.920625 238.127518 
L 234.1175 238.467374 
L 240.314375 238.790655 
L 246.51125 239.098169 
L 252.708125 239.390686 
L 258.905 239.668937 
L 265.101875 239.933617 
L 271.29875 240.185389 
L 277.495625 240.424881 
L 283.6925 240.652693 
L 289.889375 240.869395 
L 296.08625 241.075528 
L 302.283125 241.271608 
L 308.48 241.458125 
L 314.676875 241.635546 
L 320.87375 241.804313 
L 327.070625 241.96485 
L 333.2675 242.117557 
L 339.464375 242.262817 
L 345.66125 242.400992 
L 351.858125 242.532428 
L 358.055 242.657454 
L 364.251875 242.776383 
L 370.44875 242.889511 
L 376.645625 242.997122 
L 382.8425 243.099484 
L 389.039375 243.196855 
L 395.23625 243.289476 
L 401.433125 243.377581 
L 407.63 243.461388 
L 413.826875 243.541108 
L 420.02375 243.616941 
L 426.220625 243.689074 
L 432.4175 243.75769 
L 438.614375 243.822959 
" clip-path="url(#pcf0fff8632)" style="fill: none; stroke: #1f77b4; stroke-width: 1.5; stroke-linecap: square"/>
   </g>
   <g id="patch_21">
    <path d="M 60.605 246.44 
L 60.605 216.87163 
" style="fill: none; stroke: #000000; stroke-width: 0.8; stroke-linejoin: miter; stroke-linecap: square"/>
   </g>
   <g id="patch_22">
    <path d="M 432.4175 246.44 
L 432.4175 216.87163 
" style="fill: none; stroke: #000000; stroke-width: 0.8; stroke-linejoin: miter; stroke-linecap: square"/>
   </g>
   <g id="patch_23">
    <path d="M 60.605 246.44 
L 432.4175 246.44 
" style="fill: none; stroke: #000000; stroke-width: 0.8; stroke-linejoin: miter; stroke-linecap: square"/>
   </g>
   <g id="patch_24">
    <path d="M 60.605 216.87163 
L 432.4175 216.87163 
" style="fill: none; stroke: #000000; stroke-width: 0.8; stroke-linejoin: miter; stroke-linecap: square"/>
   </g>
   <g id="legend_4">
    <g id="patch_25">
     <path d="M 242.1175 239.549755 
L 425.4175 239.549755 
Q 427.4175 239.549755 427.4175 237.549755 
L 427.4175 223.87163 
Q 427.4175 221.87163 425.4175 221.87163 
L 242.1175 221.87163 
Q 240.1175 221.87163 240.1175 223.87163 
L 240.1175 237.549755 
Q 240.1175 239.549755 242.1175 239.549755 
z
" style="fill: #ffffff; opacity: 0.8; stroke: #cccccc; stroke-linejoin: miter"/>
    </g>
    <g id="line2d_44">
     <path d="M 244.1175 229.970067 
L 254.1175 229.970067 
L 264.1175 229.970067 
" style="fill: none; stroke: #1f77b4; stroke-width: 1.5; stroke-linecap: square"/>
    </g>
    <g id="text_41">
     <!-- $h(t)$ with $n=0$ and $\tau=20.0ms$ -->
     <g transform="translate(272.1175 233.470067) scale(0.1 -0.1)">
      <use xlink:href="#DejaVuSans-Oblique-68" transform="translate(0 0.015625)"/>
      <use xlink:href="#DejaVuSans-28" transform="translate(63.378906 0.015625)"/>
      <use xlink:href="#DejaVuSans-Oblique-74" transform="translate(102.392578 0.015625)"/>
      <use xlink:href="#DejaVuSans-29" transform="translate(141.601562 0.015625)"/>
      <use xlink:href="#DejaVuSans-20" transform="translate(180.615234 0.015625)"/>
      <use xlink:href="#DejaVuSans-77" transform="translate(212.402344 0.015625)"/>
      <use xlink:href="#DejaVuSans-69" transform="translate(294.189453 0.015625)"/>
      <use xlink:href="#DejaVuSans-74" transform="translate(321.972656 0.015625)"/>
      <use xlink:href="#DejaVuSans-68" transform="translate(361.181641 0.015625)"/>
      <use xlink:href="#DejaVuSans-20" transform="translate(424.560547 0.015625)"/>
      <use xlink:href="#DejaVuSans-Oblique-6e" transform="translate(456.347656 0.015625)"/>
      <use xlink:href="#DejaVuSans-3d" transform="translate(539.208984 0.015625)"/>
      <use xlink:href="#DejaVuSans-30" transform="translate(642.480469 0.015625)"/>
      <use xlink:href="#DejaVuSans-20" transform="translate(706.103516 0.015625)"/>
      <use xlink:href="#DejaVuSans-61" transform="translate(737.890625 0.015625)"/>
      <use xlink:href="#DejaVuSans-6e" transform="translate(799.169922 0.015625)"/>
      <use xlink:href="#DejaVuSans-64" transform="translate(862.548828 0.015625)"/>
      <use xlink:href="#DejaVuSans-20" transform="translate(926.025391 0.015625)"/>
      <use xlink:href="#DejaVuSans-Oblique-3c4" transform="translate(957.8125 0.015625)"/>
      <use xlink:href="#DejaVuSans-3d" transform="translate(1037.5 0.015625)"/>
      <use xlink:href="#DejaVuSans-32" transform="translate(1140.771484 0.015625)"/>
      <use xlink:href="#DejaVuSans-30" transform="translate(1204.394531 0.015625)"/>
      <use xlink:href="#DejaVuSans-2e" transform="translate(1268.017578 0.015625)"/>
      <use xlink:href="#DejaVuSans-30" transform="translate(1299.804688 0.015625)"/>
      <use xlink:href="#DejaVuSans-Oblique-6d" transform="translate(1363.427734 0.015625)"/>
      <use xlink:href="#DejaVuSans-Oblique-73" transform="translate(1460.839844 0.015625)"/>
     </g>
    </g>
   </g>
  </g>
  <g id="text_42">
   <!-- Normalized post-synaptic filter $h(t)$ with $n=0$ and $\tau=2ms,5ms,10ms,20ms$ -->
   <g transform="translate(7.2 16.32) scale(0.12 -0.12)">
    <defs>
     <path id="DejaVuSans-4e" d="M 628 4666 
L 1478 4666 
L 3547 763 
L 3547 4666 
L 4159 4666 
L 4159 0 
L 3309 0 
L 1241 3903 
L 1241 0 
L 628 0 
L 628 4666 
z
" transform="scale(0.015625)"/>
     <path id="DejaVuSans-6f" d="M 1959 3097 
Q 1497 3097 1228 2736 
Q 959 2375 959 1747 
Q 959 1119 1226 758 
Q 1494 397 1959 397 
Q 2419 397 2687 759 
Q 2956 1122 2956 1747 
Q 2956 2369 2687 2733 
Q 2419 3097 1959 3097 
z
M 1959 3584 
Q 2709 3584 3137 3096 
Q 3566 2609 3566 1747 
Q 3566 888 3137 398 
Q 2709 -91 1959 -91 
Q 1206 -91 779 398 
Q 353 888 353 1747 
Q 353 2609 779 3096 
Q 1206 3584 1959 3584 
z
" transform="scale(0.015625)"/>
     <path id="DejaVuSans-72" d="M 2631 2963 
Q 2534 3019 2420 3045 
Q 2306 3072 2169 3072 
Q 1681 3072 1420 2755 
Q 1159 2438 1159 1844 
L 1159 0 
L 581 0 
L 581 3500 
L 1159 3500 
L 1159 2956 
Q 1341 3275 1631 3429 
Q 1922 3584 2338 3584 
Q 2397 3584 2469 3576 
Q 2541 3569 2628 3553 
L 2631 2963 
z
" transform="scale(0.015625)"/>
     <path id="DejaVuSans-6d" d="M 3328 2828 
Q 3544 3216 3844 3400 
Q 4144 3584 4550 3584 
Q 5097 3584 5394 3201 
Q 5691 2819 5691 2113 
L 5691 0 
L 5113 0 
L 5113 2094 
Q 5113 2597 4934 2840 
Q 4756 3084 4391 3084 
Q 3944 3084 3684 2787 
Q 3425 2491 3425 1978 
L 3425 0 
L 2847 0 
L 2847 2094 
Q 2847 2600 2669 2842 
Q 2491 3084 2119 3084 
Q 1678 3084 1418 2786 
Q 1159 2488 1159 1978 
L 1159 0 
L 581 0 
L 581 3500 
L 1159 3500 
L 1159 2956 
Q 1356 3278 1631 3431 
Q 1906 3584 2284 3584 
Q 2666 3584 2933 3390 
Q 3200 3197 3328 2828 
z
" transform="scale(0.015625)"/>
     <path id="DejaVuSans-6c" d="M 603 4863 
L 1178 4863 
L 1178 0 
L 603 0 
L 603 4863 
z
" transform="scale(0.015625)"/>
     <path id="DejaVuSans-7a" d="M 353 3500 
L 3084 3500 
L 3084 2975 
L 922 459 
L 3084 459 
L 3084 0 
L 275 0 
L 275 525 
L 2438 3041 
L 353 3041 
L 353 3500 
z
" transform="scale(0.015625)"/>
     <path id="DejaVuSans-65" d="M 3597 1894 
L 3597 1613 
L 953 1613 
Q 991 1019 1311 708 
Q 1631 397 2203 397 
Q 2534 397 2845 478 
Q 3156 559 3463 722 
L 3463 178 
Q 3153 47 2828 -22 
Q 2503 -91 2169 -91 
Q 1331 -91 842 396 
Q 353 884 353 1716 
Q 353 2575 817 3079 
Q 1281 3584 2069 3584 
Q 2775 3584 3186 3129 
Q 3597 2675 3597 1894 
z
M 3022 2063 
Q 3016 2534 2758 2815 
Q 2500 3097 2075 3097 
Q 1594 3097 1305 2825 
Q 1016 2553 972 2059 
L 3022 2063 
z
" transform="scale(0.015625)"/>
     <path id="DejaVuSans-70" d="M 1159 525 
L 1159 -1331 
L 581 -1331 
L 581 3500 
L 1159 3500 
L 1159 2969 
Q 1341 3281 1617 3432 
Q 1894 3584 2278 3584 
Q 2916 3584 3314 3078 
Q 3713 2572 3713 1747 
Q 3713 922 3314 415 
Q 2916 -91 2278 -91 
Q 1894 -91 1617 61 
Q 1341 213 1159 525 
z
M 3116 1747 
Q 3116 2381 2855 2742 
Q 2594 3103 2138 3103 
Q 1681 3103 1420 2742 
Q 1159 2381 1159 1747 
Q 1159 1113 1420 752 
Q 1681 391 2138 391 
Q 2594 391 2855 752 
Q 3116 1113 3116 1747 
z
" transform="scale(0.015625)"/>
     <path id="DejaVuSans-73" d="M 2834 3397 
L 2834 2853 
Q 2591 2978 2328 3040 
Q 2066 3103 1784 3103 
Q 1356 3103 1142 2972 
Q 928 2841 928 2578 
Q 928 2378 1081 2264 
Q 1234 2150 1697 2047 
L 1894 2003 
Q 2506 1872 2764 1633 
Q 3022 1394 3022 966 
Q 3022 478 2636 193 
Q 2250 -91 1575 -91 
Q 1294 -91 989 -36 
Q 684 19 347 128 
L 347 722 
Q 666 556 975 473 
Q 1284 391 1588 391 
Q 1994 391 2212 530 
Q 2431 669 2431 922 
Q 2431 1156 2273 1281 
Q 2116 1406 1581 1522 
L 1381 1569 
Q 847 1681 609 1914 
Q 372 2147 372 2553 
Q 372 3047 722 3315 
Q 1072 3584 1716 3584 
Q 2034 3584 2315 3537 
Q 2597 3491 2834 3397 
z
" transform="scale(0.015625)"/>
     <path id="DejaVuSans-2d" d="M 313 2009 
L 1997 2009 
L 1997 1497 
L 313 1497 
L 313 2009 
z
" transform="scale(0.015625)"/>
     <path id="DejaVuSans-79" d="M 2059 -325 
Q 1816 -950 1584 -1140 
Q 1353 -1331 966 -1331 
L 506 -1331 
L 506 -850 
L 844 -850 
Q 1081 -850 1212 -737 
Q 1344 -625 1503 -206 
L 1606 56 
L 191 3500 
L 800 3500 
L 1894 763 
L 2988 3500 
L 3597 3500 
L 2059 -325 
z
" transform="scale(0.015625)"/>
     <path id="DejaVuSans-63" d="M 3122 3366 
L 3122 2828 
Q 2878 2963 2633 3030 
Q 2388 3097 2138 3097 
Q 1578 3097 1268 2742 
Q 959 2388 959 1747 
Q 959 1106 1268 751 
Q 1578 397 2138 397 
Q 2388 397 2633 464 
Q 2878 531 3122 666 
L 3122 134 
Q 2881 22 2623 -34 
Q 2366 -91 2075 -91 
Q 1284 -91 818 406 
Q 353 903 353 1747 
Q 353 2603 823 3093 
Q 1294 3584 2113 3584 
Q 2378 3584 2631 3529 
Q 2884 3475 3122 3366 
z
" transform="scale(0.015625)"/>
     <path id="DejaVuSans-66" d="M 2375 4863 
L 2375 4384 
L 1825 4384 
Q 1516 4384 1395 4259 
Q 1275 4134 1275 3809 
L 1275 3500 
L 2222 3500 
L 2222 3053 
L 1275 3053 
L 1275 0 
L 697 0 
L 697 3053 
L 147 3053 
L 147 3500 
L 697 3500 
L 697 3744 
Q 697 4328 969 4595 
Q 1241 4863 1831 4863 
L 2375 4863 
z
" transform="scale(0.015625)"/>
     <path id="DejaVuSans-2c" d="M 750 794 
L 1409 794 
L 1409 256 
L 897 -744 
L 494 -744 
L 750 256 
L 750 794 
z
" transform="scale(0.015625)"/>
    </defs>
    <use xlink:href="#DejaVuSans-4e" transform="translate(0 0.015625)"/>
    <use xlink:href="#DejaVuSans-6f" transform="translate(74.804688 0.015625)"/>
    <use xlink:href="#DejaVuSans-72" transform="translate(135.986328 0.015625)"/>
    <use xlink:href="#DejaVuSans-6d" transform="translate(177.099609 0.015625)"/>
    <use xlink:href="#DejaVuSans-61" transform="translate(274.511719 0.015625)"/>
    <use xlink:href="#DejaVuSans-6c" transform="translate(335.791016 0.015625)"/>
    <use xlink:href="#DejaVuSans-69" transform="translate(363.574219 0.015625)"/>
    <use xlink:href="#DejaVuSans-7a" transform="translate(391.357422 0.015625)"/>
    <use xlink:href="#DejaVuSans-65" transform="translate(443.847656 0.015625)"/>
    <use xlink:href="#DejaVuSans-64" transform="translate(505.371094 0.015625)"/>
    <use xlink:href="#DejaVuSans-20" transform="translate(568.847656 0.015625)"/>
    <use xlink:href="#DejaVuSans-70" transform="translate(600.634766 0.015625)"/>
    <use xlink:href="#DejaVuSans-6f" transform="translate(664.111328 0.015625)"/>
    <use xlink:href="#DejaVuSans-73" transform="translate(725.292969 0.015625)"/>
    <use xlink:href="#DejaVuSans-74" transform="translate(777.392578 0.015625)"/>
    <use xlink:href="#DejaVuSans-2d" transform="translate(816.601562 0.015625)"/>
    <use xlink:href="#DejaVuSans-73" transform="translate(852.685547 0.015625)"/>
    <use xlink:href="#DejaVuSans-79" transform="translate(904.785156 0.015625)"/>
    <use xlink:href="#DejaVuSans-6e" transform="translate(963.964844 0.015625)"/>
    <use xlink:href="#DejaVuSans-61" transform="translate(1027.34375 0.015625)"/>
    <use xlink:href="#DejaVuSans-70" transform="translate(1088.623047 0.015625)"/>
    <use xlink:href="#DejaVuSans-74" transform="translate(1152.099609 0.015625)"/>
    <use xlink:href="#DejaVuSans-69" transform="translate(1191.308594 0.015625)"/>
    <use xlink:href="#DejaVuSans-63" transform="translate(1219.091797 0.015625)"/>
    <use xlink:href="#DejaVuSans-20" transform="translate(1274.072266 0.015625)"/>
    <use xlink:href="#DejaVuSans-66" transform="translate(1305.859375 0.015625)"/>
    <use xlink:href="#DejaVuSans-69" transform="translate(1341.064453 0.015625)"/>
    <use xlink:href="#DejaVuSans-6c" transform="translate(1368.847656 0.015625)"/>
    <use xlink:href="#DejaVuSans-74" transform="translate(1396.630859 0.015625)"/>
    <use xlink:href="#DejaVuSans-65" transform="translate(1435.839844 0.015625)"/>
    <use xlink:href="#DejaVuSans-72" transform="translate(1497.363281 0.015625)"/>
    <use xlink:href="#DejaVuSans-20" transform="translate(1538.476562 0.015625)"/>
    <use xlink:href="#DejaVuSans-Oblique-68" transform="translate(1570.263672 0.015625)"/>
    <use xlink:href="#DejaVuSans-28" transform="translate(1633.642578 0.015625)"/>
    <use xlink:href="#DejaVuSans-Oblique-74" transform="translate(1672.65625 0.015625)"/>
    <use xlink:href="#DejaVuSans-29" transform="translate(1711.865234 0.015625)"/>
    <use xlink:href="#DejaVuSans-20" transform="translate(1750.878906 0.015625)"/>
    <use xlink:href="#DejaVuSans-77" transform="translate(1782.666016 0.015625)"/>
    <use xlink:href="#DejaVuSans-69" transform="translate(1864.453125 0.015625)"/>
    <use xlink:href="#DejaVuSans-74" transform="translate(1892.236328 0.015625)"/>
    <use xlink:href="#DejaVuSans-68" transform="translate(1931.445312 0.015625)"/>
    <use xlink:href="#DejaVuSans-20" transform="translate(1994.824219 0.015625)"/>
    <use xlink:href="#DejaVuSans-Oblique-6e" transform="translate(2026.611328 0.015625)"/>
    <use xlink:href="#DejaVuSans-3d" transform="translate(2109.472656 0.015625)"/>
    <use xlink:href="#DejaVuSans-30" transform="translate(2212.744141 0.015625)"/>
    <use xlink:href="#DejaVuSans-20" transform="translate(2276.367188 0.015625)"/>
    <use xlink:href="#DejaVuSans-61" transform="translate(2308.154297 0.015625)"/>
    <use xlink:href="#DejaVuSans-6e" transform="translate(2369.433594 0.015625)"/>
    <use xlink:href="#DejaVuSans-64" transform="translate(2432.8125 0.015625)"/>
    <use xlink:href="#DejaVuSans-20" transform="translate(2496.289062 0.015625)"/>
    <use xlink:href="#DejaVuSans-Oblique-3c4" transform="translate(2528.076172 0.015625)"/>
    <use xlink:href="#DejaVuSans-3d" transform="translate(2607.763672 0.015625)"/>
    <use xlink:href="#DejaVuSans-32" transform="translate(2711.035156 0.015625)"/>
    <use xlink:href="#DejaVuSans-Oblique-6d" transform="translate(2772.908203 0.015625)"/>
    <use xlink:href="#DejaVuSans-Oblique-73" transform="translate(2870.320312 0.015625)"/>
    <use xlink:href="#DejaVuSans-2c" transform="translate(2922.419922 0.015625)"/>
    <use xlink:href="#DejaVuSans-35" transform="translate(2973.689453 0.015625)"/>
    <use xlink:href="#DejaVuSans-Oblique-6d" transform="translate(3031.8125 0.015625)"/>
    <use xlink:href="#DejaVuSans-Oblique-73" transform="translate(3129.224609 0.015625)"/>
    <use xlink:href="#DejaVuSans-2c" transform="translate(3181.324219 0.015625)"/>
    <use xlink:href="#DejaVuSans-31" transform="translate(3232.59375 0.015625)"/>
    <use xlink:href="#DejaVuSans-30" transform="translate(3296.216797 0.015625)"/>
    <use xlink:href="#DejaVuSans-Oblique-6d" transform="translate(3359.839844 0.015625)"/>
    <use xlink:href="#DejaVuSans-Oblique-73" transform="translate(3457.251953 0.015625)"/>
    <use xlink:href="#DejaVuSans-2c" transform="translate(3509.351562 0.015625)"/>
    <use xlink:href="#DejaVuSans-32" transform="translate(3560.621094 0.015625)"/>
    <use xlink:href="#DejaVuSans-30" transform="translate(3624.244141 0.015625)"/>
    <use xlink:href="#DejaVuSans-Oblique-6d" transform="translate(3687.867188 0.015625)"/>
    <use xlink:href="#DejaVuSans-Oblique-73" transform="translate(3785.279297 0.015625)"/>
   </g>
  </g>
 </g>
 <defs>
  <clipPath id="p276405020a">
   <rect x="60.605" y="41.182932" width="371.8125" height="29.56837"/>
  </clipPath>
  <clipPath id="pfae6ad7434">
   <rect x="60.605" y="99.745831" width="371.8125" height="29.56837"/>
  </clipPath>
  <clipPath id="pdf3945f4b9">
   <rect x="60.605" y="158.308731" width="371.8125" height="29.56837"/>
  </clipPath>
  <clipPath id="pcf0fff8632">
   <rect x="60.605" y="216.87163" width="371.8125" height="29.56837"/>
  </clipPath>
 </defs>
</svg>
