<?xml version="1.0" encoding="utf-8" standalone="no"?>
<!DOCTYPE svg PUBLIC "-//W3C//DTD SVG 1.1//EN"
  "http://www.w3.org/Graphics/SVG/1.1/DTD/svg11.dtd">
<svg xmlns:xlink="http://www.w3.org/1999/xlink" width="505.56pt" height="290.99625pt" viewBox="0 0 505.56 290.99625" xmlns="http://www.w3.org/2000/svg" version="1.1">
 <metadata>
  <rdf:RDF xmlns:dc="http://purl.org/dc/elements/1.1/" xmlns:cc="http://creativecommons.org/ns#" xmlns:rdf="http://www.w3.org/1999/02/22-rdf-syntax-ns#">
   <cc:Work>
    <dc:type rdf:resource="http://purl.org/dc/dcmitype/StillImage"/>
    <dc:date>2022-10-16T12:06:34.165478</dc:date>
    <dc:format>image/svg+xml</dc:format>
    <dc:creator>
     <cc:Agent>
      <dc:title>Matplotlib v3.6.0, https://matplotlib.org/</dc:title>
     </cc:Agent>
    </dc:creator>
   </cc:Work>
  </rdf:RDF>
 </metadata>
 <defs>
  <style type="text/css">*{stroke-linejoin: round; stroke-linecap: butt}</style>
 </defs>
 <g id="figure_1">
  <g id="patch_1">
   <path d="M 0 290.99625 
L 505.56 290.99625 
L 505.56 0 
L 0 0 
L 0 290.99625 
z
" style="fill: none"/>
  </g>
  <g id="axes_1">
   <g id="patch_2">
    <path d="M 90.78 253.44 
L 425.58 253.44 
L 425.58 36 
L 90.78 36 
z
" style="fill: #ffffff"/>
   </g>
   <g id="matplotlib.axis_1">
    <g id="xtick_1">
     <g id="line2d_1">
      <defs>
       <path id="m739d1a9ab7" d="M 0 0 
L 0 3.5 
" style="stroke: #000000; stroke-width: 0.8"/>
      </defs>
      <g>
       <use xlink:href="#m739d1a9ab7" x="90.78" y="253.44" style="stroke: #000000; stroke-width: 0.8"/>
      </g>
     </g>
     <g id="text_1">
      <!-- 0.0 -->
      <g transform="translate(82.828437 268.038437) scale(0.1 -0.1)">
       <defs>
        <path id="DejaVuSans-30" d="M 2034 4250 
Q 1547 4250 1301 3770 
Q 1056 3291 1056 2328 
Q 1056 1369 1301 889 
Q 1547 409 2034 409 
Q 2525 409 2770 889 
Q 3016 1369 3016 2328 
Q 3016 3291 2770 3770 
Q 2525 4250 2034 4250 
z
M 2034 4750 
Q 2819 4750 3233 4129 
Q 3647 3509 3647 2328 
Q 3647 1150 3233 529 
Q 2819 -91 2034 -91 
Q 1250 -91 836 529 
Q 422 1150 422 2328 
Q 422 3509 836 4129 
Q 1250 4750 2034 4750 
z
" transform="scale(0.015625)"/>
        <path id="DejaVuSans-2e" d="M 684 794 
L 1344 794 
L 1344 0 
L 684 0 
L 684 794 
z
" transform="scale(0.015625)"/>
       </defs>
       <use xlink:href="#DejaVuSans-30"/>
       <use xlink:href="#DejaVuSans-2e" x="63.623047"/>
       <use xlink:href="#DejaVuSans-30" x="95.410156"/>
      </g>
     </g>
    </g>
    <g id="xtick_2">
     <g id="line2d_2">
      <g>
       <use xlink:href="#m739d1a9ab7" x="157.74" y="253.44" style="stroke: #000000; stroke-width: 0.8"/>
      </g>
     </g>
     <g id="text_2">
      <!-- 0.2 -->
      <g transform="translate(149.788438 268.038437) scale(0.1 -0.1)">
       <defs>
        <path id="DejaVuSans-32" d="M 1228 531 
L 3431 531 
L 3431 0 
L 469 0 
L 469 531 
Q 828 903 1448 1529 
Q 2069 2156 2228 2338 
Q 2531 2678 2651 2914 
Q 2772 3150 2772 3378 
Q 2772 3750 2511 3984 
Q 2250 4219 1831 4219 
Q 1534 4219 1204 4116 
Q 875 4013 500 3803 
L 500 4441 
Q 881 4594 1212 4672 
Q 1544 4750 1819 4750 
Q 2544 4750 2975 4387 
Q 3406 4025 3406 3419 
Q 3406 3131 3298 2873 
Q 3191 2616 2906 2266 
Q 2828 2175 2409 1742 
Q 1991 1309 1228 531 
z
" transform="scale(0.015625)"/>
       </defs>
       <use xlink:href="#DejaVuSans-30"/>
       <use xlink:href="#DejaVuSans-2e" x="63.623047"/>
       <use xlink:href="#DejaVuSans-32" x="95.410156"/>
      </g>
     </g>
    </g>
    <g id="xtick_3">
     <g id="line2d_3">
      <g>
       <use xlink:href="#m739d1a9ab7" x="224.7" y="253.44" style="stroke: #000000; stroke-width: 0.8"/>
      </g>
     </g>
     <g id="text_3">
      <!-- 0.4 -->
      <g transform="translate(216.748437 268.038437) scale(0.1 -0.1)">
       <defs>
        <path id="DejaVuSans-34" d="M 2419 4116 
L 825 1625 
L 2419 1625 
L 2419 4116 
z
M 2253 4666 
L 3047 4666 
L 3047 1625 
L 3713 1625 
L 3713 1100 
L 3047 1100 
L 3047 0 
L 2419 0 
L 2419 1100 
L 313 1100 
L 313 1709 
L 2253 4666 
z
" transform="scale(0.015625)"/>
       </defs>
       <use xlink:href="#DejaVuSans-30"/>
       <use xlink:href="#DejaVuSans-2e" x="63.623047"/>
       <use xlink:href="#DejaVuSans-34" x="95.410156"/>
      </g>
     </g>
    </g>
    <g id="xtick_4">
     <g id="line2d_4">
      <g>
       <use xlink:href="#m739d1a9ab7" x="291.66" y="253.44" style="stroke: #000000; stroke-width: 0.8"/>
      </g>
     </g>
     <g id="text_4">
      <!-- 0.6 -->
      <g transform="translate(283.708438 268.038437) scale(0.1 -0.1)">
       <defs>
        <path id="DejaVuSans-36" d="M 2113 2584 
Q 1688 2584 1439 2293 
Q 1191 2003 1191 1497 
Q 1191 994 1439 701 
Q 1688 409 2113 409 
Q 2538 409 2786 701 
Q 3034 994 3034 1497 
Q 3034 2003 2786 2293 
Q 2538 2584 2113 2584 
z
M 3366 4563 
L 3366 3988 
Q 3128 4100 2886 4159 
Q 2644 4219 2406 4219 
Q 1781 4219 1451 3797 
Q 1122 3375 1075 2522 
Q 1259 2794 1537 2939 
Q 1816 3084 2150 3084 
Q 2853 3084 3261 2657 
Q 3669 2231 3669 1497 
Q 3669 778 3244 343 
Q 2819 -91 2113 -91 
Q 1303 -91 875 529 
Q 447 1150 447 2328 
Q 447 3434 972 4092 
Q 1497 4750 2381 4750 
Q 2619 4750 2861 4703 
Q 3103 4656 3366 4563 
z
" transform="scale(0.015625)"/>
       </defs>
       <use xlink:href="#DejaVuSans-30"/>
       <use xlink:href="#DejaVuSans-2e" x="63.623047"/>
       <use xlink:href="#DejaVuSans-36" x="95.410156"/>
      </g>
     </g>
    </g>
    <g id="xtick_5">
     <g id="line2d_5">
      <g>
       <use xlink:href="#m739d1a9ab7" x="358.62" y="253.44" style="stroke: #000000; stroke-width: 0.8"/>
      </g>
     </g>
     <g id="text_5">
      <!-- 0.8 -->
      <g transform="translate(350.668437 268.038437) scale(0.1 -0.1)">
       <defs>
        <path id="DejaVuSans-38" d="M 2034 2216 
Q 1584 2216 1326 1975 
Q 1069 1734 1069 1313 
Q 1069 891 1326 650 
Q 1584 409 2034 409 
Q 2484 409 2743 651 
Q 3003 894 3003 1313 
Q 3003 1734 2745 1975 
Q 2488 2216 2034 2216 
z
M 1403 2484 
Q 997 2584 770 2862 
Q 544 3141 544 3541 
Q 544 4100 942 4425 
Q 1341 4750 2034 4750 
Q 2731 4750 3128 4425 
Q 3525 4100 3525 3541 
Q 3525 3141 3298 2862 
Q 3072 2584 2669 2484 
Q 3125 2378 3379 2068 
Q 3634 1759 3634 1313 
Q 3634 634 3220 271 
Q 2806 -91 2034 -91 
Q 1263 -91 848 271 
Q 434 634 434 1313 
Q 434 1759 690 2068 
Q 947 2378 1403 2484 
z
M 1172 3481 
Q 1172 3119 1398 2916 
Q 1625 2713 2034 2713 
Q 2441 2713 2670 2916 
Q 2900 3119 2900 3481 
Q 2900 3844 2670 4047 
Q 2441 4250 2034 4250 
Q 1625 4250 1398 4047 
Q 1172 3844 1172 3481 
z
" transform="scale(0.015625)"/>
       </defs>
       <use xlink:href="#DejaVuSans-30"/>
       <use xlink:href="#DejaVuSans-2e" x="63.623047"/>
       <use xlink:href="#DejaVuSans-38" x="95.410156"/>
      </g>
     </g>
    </g>
    <g id="xtick_6">
     <g id="line2d_6">
      <g>
       <use xlink:href="#m739d1a9ab7" x="425.58" y="253.44" style="stroke: #000000; stroke-width: 0.8"/>
      </g>
     </g>
     <g id="text_6">
      <!-- 1.0 -->
      <g transform="translate(417.628437 268.038437) scale(0.1 -0.1)">
       <defs>
        <path id="DejaVuSans-31" d="M 794 531 
L 1825 531 
L 1825 4091 
L 703 3866 
L 703 4441 
L 1819 4666 
L 2450 4666 
L 2450 531 
L 3481 531 
L 3481 0 
L 794 0 
L 794 531 
z
" transform="scale(0.015625)"/>
       </defs>
       <use xlink:href="#DejaVuSans-31"/>
       <use xlink:href="#DejaVuSans-2e" x="63.623047"/>
       <use xlink:href="#DejaVuSans-30" x="95.410156"/>
      </g>
     </g>
    </g>
    <g id="text_7">
     <!-- $t$ sec. -->
     <g transform="translate(244.58 281.716562) scale(0.1 -0.1)">
      <defs>
       <path id="DejaVuSans-Oblique-74" d="M 2706 3500 
L 2619 3053 
L 1472 3053 
L 1100 1153 
Q 1081 1047 1072 975 
Q 1063 903 1063 863 
Q 1063 663 1183 572 
Q 1303 481 1569 481 
L 2150 481 
L 2053 0 
L 1503 0 
Q 991 0 739 200 
Q 488 400 488 806 
Q 488 878 497 964 
Q 506 1050 525 1153 
L 897 3053 
L 409 3053 
L 500 3500 
L 978 3500 
L 1172 4494 
L 1747 4494 
L 1556 3500 
L 2706 3500 
z
" transform="scale(0.015625)"/>
       <path id="DejaVuSans-20" transform="scale(0.015625)"/>
       <path id="DejaVuSans-73" d="M 2834 3397 
L 2834 2853 
Q 2591 2978 2328 3040 
Q 2066 3103 1784 3103 
Q 1356 3103 1142 2972 
Q 928 2841 928 2578 
Q 928 2378 1081 2264 
Q 1234 2150 1697 2047 
L 1894 2003 
Q 2506 1872 2764 1633 
Q 3022 1394 3022 966 
Q 3022 478 2636 193 
Q 2250 -91 1575 -91 
Q 1294 -91 989 -36 
Q 684 19 347 128 
L 347 722 
Q 666 556 975 473 
Q 1284 391 1588 391 
Q 1994 391 2212 530 
Q 2431 669 2431 922 
Q 2431 1156 2273 1281 
Q 2116 1406 1581 1522 
L 1381 1569 
Q 847 1681 609 1914 
Q 372 2147 372 2553 
Q 372 3047 722 3315 
Q 1072 3584 1716 3584 
Q 2034 3584 2315 3537 
Q 2597 3491 2834 3397 
z
" transform="scale(0.015625)"/>
       <path id="DejaVuSans-65" d="M 3597 1894 
L 3597 1613 
L 953 1613 
Q 991 1019 1311 708 
Q 1631 397 2203 397 
Q 2534 397 2845 478 
Q 3156 559 3463 722 
L 3463 178 
Q 3153 47 2828 -22 
Q 2503 -91 2169 -91 
Q 1331 -91 842 396 
Q 353 884 353 1716 
Q 353 2575 817 3079 
Q 1281 3584 2069 3584 
Q 2775 3584 3186 3129 
Q 3597 2675 3597 1894 
z
M 3022 2063 
Q 3016 2534 2758 2815 
Q 2500 3097 2075 3097 
Q 1594 3097 1305 2825 
Q 1016 2553 972 2059 
L 3022 2063 
z
" transform="scale(0.015625)"/>
       <path id="DejaVuSans-63" d="M 3122 3366 
L 3122 2828 
Q 2878 2963 2633 3030 
Q 2388 3097 2138 3097 
Q 1578 3097 1268 2742 
Q 959 2388 959 1747 
Q 959 1106 1268 751 
Q 1578 397 2138 397 
Q 2388 397 2633 464 
Q 2878 531 3122 666 
L 3122 134 
Q 2881 22 2623 -34 
Q 2366 -91 2075 -91 
Q 1284 -91 818 406 
Q 353 903 353 1747 
Q 353 2603 823 3093 
Q 1294 3584 2113 3584 
Q 2378 3584 2631 3529 
Q 2884 3475 3122 3366 
z
" transform="scale(0.015625)"/>
      </defs>
      <use xlink:href="#DejaVuSans-Oblique-74" transform="translate(0 0.78125)"/>
      <use xlink:href="#DejaVuSans-20" transform="translate(39.208984 0.78125)"/>
      <use xlink:href="#DejaVuSans-73" transform="translate(70.996094 0.78125)"/>
      <use xlink:href="#DejaVuSans-65" transform="translate(123.095703 0.78125)"/>
      <use xlink:href="#DejaVuSans-63" transform="translate(184.619141 0.78125)"/>
      <use xlink:href="#DejaVuSans-2e" transform="translate(239.599609 0.78125)"/>
     </g>
    </g>
   </g>
   <g id="matplotlib.axis_2">
    <g id="ytick_1">
     <g id="line2d_7">
      <defs>
       <path id="m58b398cbd9" d="M 0 0 
L -3.5 0 
" style="stroke: #000000; stroke-width: 0.8"/>
      </defs>
      <g>
       <use xlink:href="#m58b398cbd9" x="90.78" y="243.556364" style="stroke: #000000; stroke-width: 0.8"/>
      </g>
     </g>
     <g id="text_8">
      <!-- −0.50 -->
      <g transform="translate(53.134687 247.355582) scale(0.1 -0.1)">
       <defs>
        <path id="DejaVuSans-2212" d="M 678 2272 
L 4684 2272 
L 4684 1741 
L 678 1741 
L 678 2272 
z
" transform="scale(0.015625)"/>
        <path id="DejaVuSans-35" d="M 691 4666 
L 3169 4666 
L 3169 4134 
L 1269 4134 
L 1269 2991 
Q 1406 3038 1543 3061 
Q 1681 3084 1819 3084 
Q 2600 3084 3056 2656 
Q 3513 2228 3513 1497 
Q 3513 744 3044 326 
Q 2575 -91 1722 -91 
Q 1428 -91 1123 -41 
Q 819 9 494 109 
L 494 744 
Q 775 591 1075 516 
Q 1375 441 1709 441 
Q 2250 441 2565 725 
Q 2881 1009 2881 1497 
Q 2881 1984 2565 2268 
Q 2250 2553 1709 2553 
Q 1456 2553 1204 2497 
Q 953 2441 691 2322 
L 691 4666 
z
" transform="scale(0.015625)"/>
       </defs>
       <use xlink:href="#DejaVuSans-2212"/>
       <use xlink:href="#DejaVuSans-30" x="83.789062"/>
       <use xlink:href="#DejaVuSans-2e" x="147.412109"/>
       <use xlink:href="#DejaVuSans-35" x="179.199219"/>
       <use xlink:href="#DejaVuSans-30" x="242.822266"/>
      </g>
     </g>
    </g>
    <g id="ytick_2">
     <g id="line2d_8">
      <g>
       <use xlink:href="#m58b398cbd9" x="90.78" y="215.317403" style="stroke: #000000; stroke-width: 0.8"/>
      </g>
     </g>
     <g id="text_9">
      <!-- −0.25 -->
      <g transform="translate(53.134687 219.116621) scale(0.1 -0.1)">
       <use xlink:href="#DejaVuSans-2212"/>
       <use xlink:href="#DejaVuSans-30" x="83.789062"/>
       <use xlink:href="#DejaVuSans-2e" x="147.412109"/>
       <use xlink:href="#DejaVuSans-32" x="179.199219"/>
       <use xlink:href="#DejaVuSans-35" x="242.822266"/>
      </g>
     </g>
    </g>
    <g id="ytick_3">
     <g id="line2d_9">
      <g>
       <use xlink:href="#m58b398cbd9" x="90.78" y="187.078442" style="stroke: #000000; stroke-width: 0.8"/>
      </g>
     </g>
     <g id="text_10">
      <!-- 0.00 -->
      <g transform="translate(61.514375 190.87766) scale(0.1 -0.1)">
       <use xlink:href="#DejaVuSans-30"/>
       <use xlink:href="#DejaVuSans-2e" x="63.623047"/>
       <use xlink:href="#DejaVuSans-30" x="95.410156"/>
       <use xlink:href="#DejaVuSans-30" x="159.033203"/>
      </g>
     </g>
    </g>
    <g id="ytick_4">
     <g id="line2d_10">
      <g>
       <use xlink:href="#m58b398cbd9" x="90.78" y="158.839481" style="stroke: #000000; stroke-width: 0.8"/>
      </g>
     </g>
     <g id="text_11">
      <!-- 0.25 -->
      <g transform="translate(61.514375 162.638699) scale(0.1 -0.1)">
       <use xlink:href="#DejaVuSans-30"/>
       <use xlink:href="#DejaVuSans-2e" x="63.623047"/>
       <use xlink:href="#DejaVuSans-32" x="95.410156"/>
       <use xlink:href="#DejaVuSans-35" x="159.033203"/>
      </g>
     </g>
    </g>
    <g id="ytick_5">
     <g id="line2d_11">
      <g>
       <use xlink:href="#m58b398cbd9" x="90.78" y="130.600519" style="stroke: #000000; stroke-width: 0.8"/>
      </g>
     </g>
     <g id="text_12">
      <!-- 0.50 -->
      <g transform="translate(61.514375 134.399738) scale(0.1 -0.1)">
       <use xlink:href="#DejaVuSans-30"/>
       <use xlink:href="#DejaVuSans-2e" x="63.623047"/>
       <use xlink:href="#DejaVuSans-35" x="95.410156"/>
       <use xlink:href="#DejaVuSans-30" x="159.033203"/>
      </g>
     </g>
    </g>
    <g id="ytick_6">
     <g id="line2d_12">
      <g>
       <use xlink:href="#m58b398cbd9" x="90.78" y="102.361558" style="stroke: #000000; stroke-width: 0.8"/>
      </g>
     </g>
     <g id="text_13">
      <!-- 0.75 -->
      <g transform="translate(61.514375 106.160777) scale(0.1 -0.1)">
       <defs>
        <path id="DejaVuSans-37" d="M 525 4666 
L 3525 4666 
L 3525 4397 
L 1831 0 
L 1172 0 
L 2766 4134 
L 525 4134 
L 525 4666 
z
" transform="scale(0.015625)"/>
       </defs>
       <use xlink:href="#DejaVuSans-30"/>
       <use xlink:href="#DejaVuSans-2e" x="63.623047"/>
       <use xlink:href="#DejaVuSans-37" x="95.410156"/>
       <use xlink:href="#DejaVuSans-35" x="159.033203"/>
      </g>
     </g>
    </g>
    <g id="ytick_7">
     <g id="line2d_13">
      <g>
       <use xlink:href="#m58b398cbd9" x="90.78" y="74.122597" style="stroke: #000000; stroke-width: 0.8"/>
      </g>
     </g>
     <g id="text_14">
      <!-- 1.00 -->
      <g transform="translate(61.514375 77.921816) scale(0.1 -0.1)">
       <use xlink:href="#DejaVuSans-31"/>
       <use xlink:href="#DejaVuSans-2e" x="63.623047"/>
       <use xlink:href="#DejaVuSans-30" x="95.410156"/>
       <use xlink:href="#DejaVuSans-30" x="159.033203"/>
      </g>
     </g>
    </g>
    <g id="ytick_8">
     <g id="line2d_14">
      <g>
       <use xlink:href="#m58b398cbd9" x="90.78" y="45.883636" style="stroke: #000000; stroke-width: 0.8"/>
      </g>
     </g>
     <g id="text_15">
      <!-- 1.25 -->
      <g transform="translate(61.514375 49.682855) scale(0.1 -0.1)">
       <use xlink:href="#DejaVuSans-31"/>
       <use xlink:href="#DejaVuSans-2e" x="63.623047"/>
       <use xlink:href="#DejaVuSans-32" x="95.410156"/>
       <use xlink:href="#DejaVuSans-35" x="159.033203"/>
      </g>
     </g>
    </g>
    <g id="text_16">
     <!-- Voltage -->
     <g transform="translate(47.055 163.47625) rotate(-90) scale(0.1 -0.1)">
      <defs>
       <path id="DejaVuSans-56" d="M 1831 0 
L 50 4666 
L 709 4666 
L 2188 738 
L 3669 4666 
L 4325 4666 
L 2547 0 
L 1831 0 
z
" transform="scale(0.015625)"/>
       <path id="DejaVuSans-6f" d="M 1959 3097 
Q 1497 3097 1228 2736 
Q 959 2375 959 1747 
Q 959 1119 1226 758 
Q 1494 397 1959 397 
Q 2419 397 2687 759 
Q 2956 1122 2956 1747 
Q 2956 2369 2687 2733 
Q 2419 3097 1959 3097 
z
M 1959 3584 
Q 2709 3584 3137 3096 
Q 3566 2609 3566 1747 
Q 3566 888 3137 398 
Q 2709 -91 1959 -91 
Q 1206 -91 779 398 
Q 353 888 353 1747 
Q 353 2609 779 3096 
Q 1206 3584 1959 3584 
z
" transform="scale(0.015625)"/>
       <path id="DejaVuSans-6c" d="M 603 4863 
L 1178 4863 
L 1178 0 
L 603 0 
L 603 4863 
z
" transform="scale(0.015625)"/>
       <path id="DejaVuSans-74" d="M 1172 4494 
L 1172 3500 
L 2356 3500 
L 2356 3053 
L 1172 3053 
L 1172 1153 
Q 1172 725 1289 603 
Q 1406 481 1766 481 
L 2356 481 
L 2356 0 
L 1766 0 
Q 1100 0 847 248 
Q 594 497 594 1153 
L 594 3053 
L 172 3053 
L 172 3500 
L 594 3500 
L 594 4494 
L 1172 4494 
z
" transform="scale(0.015625)"/>
       <path id="DejaVuSans-61" d="M 2194 1759 
Q 1497 1759 1228 1600 
Q 959 1441 959 1056 
Q 959 750 1161 570 
Q 1363 391 1709 391 
Q 2188 391 2477 730 
Q 2766 1069 2766 1631 
L 2766 1759 
L 2194 1759 
z
M 3341 1997 
L 3341 0 
L 2766 0 
L 2766 531 
Q 2569 213 2275 61 
Q 1981 -91 1556 -91 
Q 1019 -91 701 211 
Q 384 513 384 1019 
Q 384 1609 779 1909 
Q 1175 2209 1959 2209 
L 2766 2209 
L 2766 2266 
Q 2766 2663 2505 2880 
Q 2244 3097 1772 3097 
Q 1472 3097 1187 3025 
Q 903 2953 641 2809 
L 641 3341 
Q 956 3463 1253 3523 
Q 1550 3584 1831 3584 
Q 2591 3584 2966 3190 
Q 3341 2797 3341 1997 
z
" transform="scale(0.015625)"/>
       <path id="DejaVuSans-67" d="M 2906 1791 
Q 2906 2416 2648 2759 
Q 2391 3103 1925 3103 
Q 1463 3103 1205 2759 
Q 947 2416 947 1791 
Q 947 1169 1205 825 
Q 1463 481 1925 481 
Q 2391 481 2648 825 
Q 2906 1169 2906 1791 
z
M 3481 434 
Q 3481 -459 3084 -895 
Q 2688 -1331 1869 -1331 
Q 1566 -1331 1297 -1286 
Q 1028 -1241 775 -1147 
L 775 -588 
Q 1028 -725 1275 -790 
Q 1522 -856 1778 -856 
Q 2344 -856 2625 -561 
Q 2906 -266 2906 331 
L 2906 616 
Q 2728 306 2450 153 
Q 2172 0 1784 0 
Q 1141 0 747 490 
Q 353 981 353 1791 
Q 353 2603 747 3093 
Q 1141 3584 1784 3584 
Q 2172 3584 2450 3431 
Q 2728 3278 2906 2969 
L 2906 3500 
L 3481 3500 
L 3481 434 
z
" transform="scale(0.015625)"/>
      </defs>
      <use xlink:href="#DejaVuSans-56"/>
      <use xlink:href="#DejaVuSans-6f" x="60.658203"/>
      <use xlink:href="#DejaVuSans-6c" x="121.839844"/>
      <use xlink:href="#DejaVuSans-74" x="149.623047"/>
      <use xlink:href="#DejaVuSans-61" x="188.832031"/>
      <use xlink:href="#DejaVuSans-67" x="250.111328"/>
      <use xlink:href="#DejaVuSans-65" x="313.587891"/>
     </g>
    </g>
   </g>
   <g id="line2d_15">
    <path d="M 90.78 178.996379 
L 91.7844 158.443359 
L 92.7888 142.798632 
L 93.7932 131.332637 
L 94.4628 125.689533 
L 95.1324 121.444873 
L 95.802 118.440483 
L 96.4716 116.530352 
L 97.1412 115.579541 
L 97.476 115.4245 
L 97.8108 115.463218 
L 98.1456 115.681528 
L 98.8152 116.602883 
L 99.4848 118.085432 
L 100.4892 121.154174 
L 101.8284 126.373931 
L 104.172 136.955231 
L 106.1808 145.808639 
L 107.52 150.904295 
L 108.5244 154.079978 
L 109.5288 156.582326 
L 110.1984 157.831838 
L 110.868 158.719859 
L 111.5376 159.227187 
L 112.2072 159.33765 
L 112.8768 159.038028 
L 113.5464 158.317961 
L 114.216 157.169878 
L 114.8856 155.58891 
L 115.89 152.401588 
L 116.8944 148.2389 
L 117.8988 143.116174 
L 119.238 134.840621 
L 120.5772 125.001208 
L 122.2512 110.696261 
L 123.9252 94.451187 
L 125.5992 76.629972 
L 125.934 45.883636 
L 126.2688 187.078442 
L 127.9428 141.071811 
L 129.6168 100.56628 
L 130.6212 78.51866 
L 130.956 45.883636 
L 131.2908 187.078442 
L 132.63 138.578796 
L 133.9692 96.681419 
L 134.6388 77.920627 
L 134.9736 45.883636 
L 135.3084 187.078442 
L 136.6476 132.418319 
L 137.9868 86.584453 
L 138.3216 76.355511 
L 138.6564 45.883636 
L 138.9912 187.078442 
L 140.3304 129.803037 
L 141.6696 82.996399 
L 142.0044 45.883636 
L 142.3392 187.078442 
L 143.6784 130.224897 
L 145.0176 84.833702 
L 145.3524 75.068642 
L 145.6872 45.883636 
L 146.022 187.078442 
L 147.0264 145.86261 
L 148.0308 111.61907 
L 149.0352 83.504893 
L 149.37 75.365951 
L 149.7048 45.883636 
L 150.0396 187.078442 
L 151.044 151.101652 
L 152.0484 121.884716 
L 153.0528 98.563756 
L 154.0572 80.382759 
L 154.392 75.347458 
L 154.7268 45.883636 
L 155.0616 187.078442 
L 156.066 160.090353 
L 157.0704 138.921063 
L 158.0748 122.758101 
L 159.0792 110.887238 
L 159.7488 105.043624 
L 160.4184 100.657761 
L 161.088 97.574197 
L 161.7576 95.649182 
L 162.0924 95.079142 
L 162.4272 94.749598 
L 162.762 94.645411 
L 163.0968 94.751998 
L 163.4316 95.0553 
L 164.1012 96.198307 
L 164.7708 97.971654 
L 165.7752 101.606053 
L 166.7796 106.149082 
L 168.4536 115.02866 
L 173.1408 140.956661 
L 174.48 146.952329 
L 175.4844 150.691661 
L 176.4888 153.677268 
L 177.4932 155.831583 
L 178.1628 156.774312 
L 178.8324 157.304211 
L 179.502 157.408902 
L 180.1716 157.07869 
L 180.8412 156.3065 
L 181.5108 155.087817 
L 182.1804 153.420629 
L 183.1848 150.080466 
L 184.1892 145.744008 
L 185.1936 140.434049 
L 186.5328 131.899464 
L 187.872 121.803153 
L 189.546 107.198594 
L 191.5548 87.200871 
L 192.5592 76.382293 
L 192.894 45.883636 
L 193.2288 187.078442 
L 194.9028 141.071811 
L 196.5768 100.56628 
L 197.5812 78.51866 
L 197.916 45.883636 
L 198.2508 187.078442 
L 199.59 138.578796 
L 200.9292 96.681419 
L 201.5988 77.920627 
L 201.9336 45.883636 
L 202.2684 187.078442 
L 203.6076 132.418319 
L 204.9468 86.584453 
L 205.2816 76.355511 
L 205.6164 45.883636 
L 205.9512 187.078442 
L 207.2904 129.803037 
L 208.6296 82.996399 
L 208.9644 45.883636 
L 209.2992 187.078442 
L 210.6384 130.224897 
L 211.9776 84.833702 
L 212.3124 75.068642 
L 212.6472 45.883636 
L 212.982 187.078442 
L 213.9864 145.86261 
L 214.9908 111.61907 
L 215.9952 83.504893 
L 216.33 75.365951 
L 216.6648 45.883636 
L 216.9996 187.078442 
L 218.004 151.101652 
L 219.0084 121.884716 
L 220.0128 98.563756 
L 221.0172 80.382759 
L 221.352 75.347458 
L 221.6868 45.883636 
L 222.0216 187.078442 
L 223.026 160.090353 
L 224.0304 138.921063 
L 225.0348 122.758101 
L 226.0392 110.887238 
L 226.7088 105.043624 
L 227.3784 100.657761 
L 228.048 97.574197 
L 228.7176 95.649182 
L 229.0524 95.079142 
L 229.3872 94.749598 
L 229.722 94.645411 
L 230.0568 94.751998 
L 230.3916 95.0553 
L 231.0612 96.198307 
L 231.7308 97.971654 
L 232.7352 101.606053 
L 233.7396 106.149082 
L 235.4136 115.02866 
L 240.1008 140.956661 
L 241.44 146.952329 
L 242.4444 150.691661 
L 243.4488 153.677268 
L 244.4532 155.831583 
L 245.1228 156.774312 
L 245.7924 157.304211 
L 246.462 157.408902 
L 247.1316 157.07869 
L 247.8012 156.3065 
L 248.4708 155.087817 
L 249.1404 153.420629 
L 250.1448 150.080466 
L 251.1492 145.744008 
L 252.1536 140.434049 
L 253.4928 131.899464 
L 254.832 121.803153 
L 256.506 107.198594 
L 258.5148 87.200871 
L 259.5192 76.382293 
L 259.854 45.883636 
L 260.1888 187.078442 
L 261.8628 141.071811 
L 263.5368 100.56628 
L 264.5412 78.51866 
L 264.876 45.883636 
L 265.2108 187.078442 
L 266.55 138.578796 
L 267.8892 96.681419 
L 268.5588 77.920627 
L 268.8936 45.883636 
L 269.2284 187.078442 
L 270.5676 132.418319 
L 271.9068 86.584453 
L 272.2416 76.355511 
L 272.5764 45.883636 
L 272.9112 187.078442 
L 274.2504 129.803037 
L 275.5896 82.996399 
L 275.9244 45.883636 
L 276.2592 187.078442 
L 277.5984 130.224897 
L 278.9376 84.833702 
L 279.2724 75.068642 
L 279.6072 45.883636 
L 279.942 187.078442 
L 280.9464 145.86261 
L 281.9508 111.61907 
L 282.9552 83.504893 
L 283.29 75.365951 
L 283.6248 45.883636 
L 283.9596 187.078442 
L 284.964 151.101652 
L 285.9684 121.884716 
L 286.9728 98.563756 
L 287.9772 80.382759 
L 288.312 75.347458 
L 288.6468 45.883636 
L 288.9816 187.078442 
L 289.986 160.090353 
L 290.9904 138.921063 
L 291.9948 122.758101 
L 292.9992 110.887238 
L 293.6688 105.043624 
L 294.3384 100.657761 
L 295.008 97.574197 
L 295.6776 95.649182 
L 296.0124 95.079142 
L 296.3472 94.749598 
L 296.682 94.645411 
L 297.0168 94.751998 
L 297.3516 95.0553 
L 298.0212 96.198307 
L 298.6908 97.971654 
L 299.6952 101.606053 
L 300.6996 106.149082 
L 302.3736 115.02866 
L 307.0608 140.956661 
L 308.4 146.952329 
L 309.4044 150.691661 
L 310.4088 153.677268 
L 311.4132 155.831583 
L 312.0828 156.774312 
L 312.7524 157.304211 
L 313.422 157.408902 
L 314.0916 157.07869 
L 314.7612 156.3065 
L 315.4308 155.087817 
L 316.1004 153.420629 
L 317.1048 150.080466 
L 318.1092 145.744008 
L 319.1136 140.434049 
L 320.4528 131.899464 
L 321.792 121.803153 
L 323.466 107.198594 
L 325.4748 87.200871 
L 326.4792 76.382293 
L 326.814 45.883636 
L 327.1488 187.078442 
L 328.8228 141.071811 
L 330.4968 100.56628 
L 331.5012 78.51866 
L 331.836 45.883636 
L 332.1708 187.078442 
L 333.51 138.578796 
L 334.8492 96.681419 
L 335.5188 77.920627 
L 335.8536 45.883636 
L 336.1884 187.078442 
L 337.5276 132.418319 
L 338.8668 86.584453 
L 339.2016 76.355511 
L 339.5364 45.883636 
L 339.8712 187.078442 
L 341.2104 129.803037 
L 342.5496 82.996399 
L 342.8844 45.883636 
L 343.2192 187.078442 
L 344.5584 130.224897 
L 345.8976 84.833702 
L 346.2324 75.068642 
L 346.5672 45.883636 
L 346.902 187.078442 
L 347.9064 145.86261 
L 348.9108 111.61907 
L 349.9152 83.504893 
L 350.25 75.365951 
L 350.5848 45.883636 
L 350.9196 187.078442 
L 351.924 151.101652 
L 352.9284 121.884716 
L 353.9328 98.563756 
L 354.9372 80.382759 
L 355.272 75.347458 
L 355.6068 45.883636 
L 355.9416 187.078442 
L 356.946 160.090353 
L 357.9504 138.921063 
L 358.9548 122.758101 
L 359.9592 110.887238 
L 360.6288 105.043624 
L 361.2984 100.657761 
L 361.968 97.574197 
L 362.6376 95.649182 
L 362.9724 95.079142 
L 363.3072 94.749598 
L 363.642 94.645411 
L 363.9768 94.751998 
L 364.3116 95.0553 
L 364.9812 96.198307 
L 365.6508 97.971654 
L 366.6552 101.606053 
L 367.6596 106.149082 
L 369.3336 115.02866 
L 374.0208 140.956661 
L 375.36 146.952329 
L 376.3644 150.691661 
L 377.3688 153.677268 
L 378.3732 155.831583 
L 379.0428 156.774312 
L 379.7124 157.304211 
L 380.382 157.408902 
L 381.0516 157.07869 
L 381.7212 156.3065 
L 382.3908 155.087817 
L 383.0604 153.420629 
L 384.0648 150.080466 
L 385.0692 145.744008 
L 386.0736 140.434049 
L 387.4128 131.899464 
L 388.752 121.803153 
L 390.426 107.198594 
L 392.4348 87.200871 
L 393.4392 76.382293 
L 393.774 45.883636 
L 394.1088 187.078442 
L 395.7828 141.071811 
L 397.4568 100.56628 
L 398.4612 78.51866 
L 398.796 45.883636 
L 399.1308 187.078442 
L 400.47 138.578796 
L 401.8092 96.681419 
L 402.4788 77.920627 
L 402.8136 45.883636 
L 403.1484 187.078442 
L 404.4876 132.418319 
L 405.8268 86.584453 
L 406.1616 76.355511 
L 406.4964 45.883636 
L 406.8312 187.078442 
L 408.1704 129.803037 
L 409.5096 82.996399 
L 409.8444 45.883636 
L 410.1792 187.078442 
L 411.5184 130.224897 
L 412.8576 84.833702 
L 413.1924 75.068642 
L 413.5272 45.883636 
L 413.862 187.078442 
L 414.8664 145.86261 
L 415.8708 111.61907 
L 416.8752 83.504893 
L 417.21 75.365951 
L 417.5448 45.883636 
L 417.8796 187.078442 
L 418.884 151.101652 
L 419.8884 121.884716 
L 420.8928 98.563756 
L 421.8972 80.382759 
L 422.232 75.347458 
L 422.5668 45.883636 
L 422.9016 187.078442 
L 423.906 160.090353 
L 424.9104 138.921063 
L 425.2452 133.014298 
L 425.2452 133.014298 
" clip-path="url(#pc9c899b337)" style="fill: none; stroke: #1f77b4; stroke-width: 1.5; stroke-linecap: square"/>
   </g>
   <g id="line2d_16">
    <path d="M 90.78 187.078442 
L 94.7976 166.287532 
L 97.1412 155.33314 
L 98.8152 148.416643 
L 100.4892 142.452128 
L 101.8284 138.46552 
L 103.1676 135.245567 
L 104.172 133.364746 
L 105.1764 131.960691 
L 105.846 131.295856 
L 106.5156 130.85117 
L 107.1852 130.628388 
L 107.8548 130.628388 
L 108.5244 130.85117 
L 109.194 131.295856 
L 109.8636 131.960691 
L 110.868 133.364746 
L 111.8724 135.245567 
L 112.8768 137.586461 
L 114.216 141.386843 
L 115.5552 145.907808 
L 117.2292 152.462725 
L 119.238 161.438001 
L 121.5816 173.032953 
L 130.2864 217.340826 
L 132.2952 225.74024 
L 133.9692 231.704755 
L 135.3084 235.691363 
L 136.6476 238.911316 
L 137.652 240.792137 
L 138.6564 242.196192 
L 139.326 242.861027 
L 139.9956 243.305713 
L 140.6652 243.528495 
L 141.3348 243.528495 
L 142.0044 243.305713 
L 142.674 242.861027 
L 143.3436 242.196192 
L 144.348 240.792137 
L 145.3524 238.911316 
L 146.3568 236.570422 
L 147.696 232.77004 
L 149.0352 228.249075 
L 150.7092 221.694158 
L 152.718 212.718882 
L 155.0616 201.12393 
L 163.7664 156.816058 
L 165.7752 148.416643 
L 167.4492 142.452128 
L 168.7884 138.46552 
L 170.1276 135.245567 
L 171.132 133.364746 
L 172.1364 131.960691 
L 172.806 131.295856 
L 173.4756 130.85117 
L 174.1452 130.628388 
L 174.8148 130.628388 
L 175.4844 130.85117 
L 176.154 131.295856 
L 176.8236 131.960691 
L 177.828 133.364746 
L 178.8324 135.245567 
L 179.8368 137.586461 
L 181.176 141.386843 
L 182.5152 145.907808 
L 184.1892 152.462725 
L 186.198 161.438001 
L 188.5416 173.032953 
L 197.2464 217.340826 
L 199.2552 225.74024 
L 200.9292 231.704755 
L 202.2684 235.691363 
L 203.6076 238.911316 
L 204.612 240.792137 
L 205.6164 242.196192 
L 206.286 242.861027 
L 206.9556 243.305713 
L 207.6252 243.528495 
L 208.2948 243.528495 
L 208.9644 243.305713 
L 209.634 242.861027 
L 210.3036 242.196192 
L 211.308 240.792137 
L 212.3124 238.911316 
L 213.3168 236.570422 
L 214.656 232.77004 
L 215.9952 228.249075 
L 217.6692 221.694158 
L 219.678 212.718882 
L 222.0216 201.12393 
L 230.7264 156.816058 
L 232.7352 148.416643 
L 234.4092 142.452128 
L 235.7484 138.46552 
L 237.0876 135.245567 
L 238.092 133.364746 
L 239.0964 131.960691 
L 239.766 131.295856 
L 240.4356 130.85117 
L 241.1052 130.628388 
L 241.7748 130.628388 
L 242.4444 130.85117 
L 243.114 131.295856 
L 243.7836 131.960691 
L 244.788 133.364746 
L 245.7924 135.245567 
L 246.7968 137.586461 
L 248.136 141.386843 
L 249.4752 145.907808 
L 251.1492 152.462725 
L 253.158 161.438001 
L 255.5016 173.032953 
L 264.2064 217.340826 
L 266.2152 225.74024 
L 267.8892 231.704755 
L 269.2284 235.691363 
L 270.5676 238.911316 
L 271.572 240.792137 
L 272.5764 242.196192 
L 273.246 242.861027 
L 273.9156 243.305713 
L 274.5852 243.528495 
L 275.2548 243.528495 
L 275.9244 243.305713 
L 276.594 242.861027 
L 277.2636 242.196192 
L 278.268 240.792137 
L 279.2724 238.911316 
L 280.2768 236.570422 
L 281.616 232.77004 
L 282.9552 228.249075 
L 284.6292 221.694158 
L 286.638 212.718882 
L 288.9816 201.12393 
L 297.6864 156.816058 
L 299.6952 148.416643 
L 301.3692 142.452128 
L 302.7084 138.46552 
L 304.0476 135.245567 
L 305.052 133.364746 
L 306.0564 131.960691 
L 306.726 131.295856 
L 307.3956 130.85117 
L 308.0652 130.628388 
L 308.7348 130.628388 
L 309.4044 130.85117 
L 310.074 131.295856 
L 310.7436 131.960691 
L 311.748 133.364746 
L 312.7524 135.245567 
L 313.7568 137.586461 
L 315.096 141.386843 
L 316.4352 145.907808 
L 318.1092 152.462725 
L 320.118 161.438001 
L 322.4616 173.032953 
L 331.1664 217.340826 
L 333.1752 225.74024 
L 334.8492 231.704755 
L 336.1884 235.691363 
L 337.5276 238.911316 
L 338.532 240.792137 
L 339.5364 242.196192 
L 340.206 242.861027 
L 340.8756 243.305713 
L 341.5452 243.528495 
L 342.2148 243.528495 
L 342.8844 243.305713 
L 343.554 242.861027 
L 344.2236 242.196192 
L 345.228 240.792137 
L 346.2324 238.911316 
L 347.2368 236.570422 
L 348.576 232.77004 
L 349.9152 228.249075 
L 351.5892 221.694158 
L 353.598 212.718882 
L 355.9416 201.12393 
L 364.6464 156.816058 
L 366.6552 148.416643 
L 368.3292 142.452128 
L 369.6684 138.46552 
L 371.0076 135.245567 
L 372.012 133.364746 
L 373.0164 131.960691 
L 373.686 131.295856 
L 374.3556 130.85117 
L 375.0252 130.628388 
L 375.6948 130.628388 
L 376.3644 130.85117 
L 377.034 131.295856 
L 377.7036 131.960691 
L 378.708 133.364746 
L 379.7124 135.245567 
L 380.7168 137.586461 
L 382.056 141.386843 
L 383.3952 145.907808 
L 385.0692 152.462725 
L 387.078 161.438001 
L 389.4216 173.032953 
L 398.1264 217.340826 
L 400.1352 225.74024 
L 401.8092 231.704755 
L 403.1484 235.691363 
L 404.4876 238.911316 
L 405.492 240.792137 
L 406.4964 242.196192 
L 407.166 242.861027 
L 407.8356 243.305713 
L 408.5052 243.528495 
L 409.1748 243.528495 
L 409.8444 243.305713 
L 410.514 242.861027 
L 411.1836 242.196192 
L 412.188 240.792137 
L 413.1924 238.911316 
L 414.1968 236.570422 
L 415.536 232.77004 
L 416.8752 228.249075 
L 418.5492 221.694158 
L 420.558 212.718882 
L 422.9016 201.12393 
L 425.2452 188.852456 
L 425.2452 188.852456 
" clip-path="url(#pc9c899b337)" style="fill: none; stroke: #ff7f0e; stroke-width: 1.5; stroke-linecap: square"/>
   </g>
   <g id="patch_3">
    <path d="M 90.78 253.44 
L 90.78 36 
" style="fill: none; stroke: #000000; stroke-width: 0.8; stroke-linejoin: miter; stroke-linecap: square"/>
   </g>
   <g id="patch_4">
    <path d="M 425.58 253.44 
L 425.58 36 
" style="fill: none; stroke: #000000; stroke-width: 0.8; stroke-linejoin: miter; stroke-linecap: square"/>
   </g>
   <g id="patch_5">
    <path d="M 90.78 253.44 
L 425.58 253.44 
" style="fill: none; stroke: #000000; stroke-width: 0.8; stroke-linejoin: miter; stroke-linecap: square"/>
   </g>
   <g id="patch_6">
    <path d="M 90.78 36 
L 425.58 36 
" style="fill: none; stroke: #000000; stroke-width: 0.8; stroke-linejoin: miter; stroke-linecap: square"/>
   </g>
   <g id="legend_1">
    <g id="patch_7">
     <path d="M 97.78 73.35625 
L 147.48 73.35625 
Q 149.48 73.35625 149.48 71.35625 
L 149.48 43 
Q 149.48 41 147.48 41 
L 97.78 41 
Q 95.78 41 95.78 43 
L 95.78 71.35625 
Q 95.78 73.35625 97.78 73.35625 
z
" style="fill: #ffffff; opacity: 0.8; stroke: #cccccc; stroke-linejoin: miter"/>
    </g>
    <g id="line2d_17">
     <path d="M 99.78 49.098437 
L 109.78 49.098437 
L 119.78 49.098437 
" style="fill: none; stroke: #1f77b4; stroke-width: 1.5; stroke-linecap: square"/>
    </g>
    <g id="text_17">
     <!-- $v(t)$ -->
     <g transform="translate(127.78 52.598437) scale(0.1 -0.1)">
      <defs>
       <path id="DejaVuSans-Oblique-76" d="M 459 3500 
L 1069 3500 
L 1581 525 
L 3256 3500 
L 3866 3500 
L 1875 0 
L 1100 0 
L 459 3500 
z
" transform="scale(0.015625)"/>
       <path id="DejaVuSans-28" d="M 1984 4856 
Q 1566 4138 1362 3434 
Q 1159 2731 1159 2009 
Q 1159 1288 1364 580 
Q 1569 -128 1984 -844 
L 1484 -844 
Q 1016 -109 783 600 
Q 550 1309 550 2009 
Q 550 2706 781 3412 
Q 1013 4119 1484 4856 
L 1984 4856 
z
" transform="scale(0.015625)"/>
       <path id="DejaVuSans-29" d="M 513 4856 
L 1013 4856 
Q 1481 4119 1714 3412 
Q 1947 2706 1947 2009 
Q 1947 1309 1714 600 
Q 1481 -109 1013 -844 
L 513 -844 
Q 928 -128 1133 580 
Q 1338 1288 1338 2009 
Q 1338 2731 1133 3434 
Q 928 4138 513 4856 
z
" transform="scale(0.015625)"/>
      </defs>
      <use xlink:href="#DejaVuSans-Oblique-76" transform="translate(0 0.125)"/>
      <use xlink:href="#DejaVuSans-28" transform="translate(59.179688 0.125)"/>
      <use xlink:href="#DejaVuSans-Oblique-74" transform="translate(98.193359 0.125)"/>
      <use xlink:href="#DejaVuSans-29" transform="translate(137.402344 0.125)"/>
     </g>
    </g>
    <g id="line2d_18">
     <path d="M 99.78 63.776562 
L 109.78 63.776562 
L 119.78 63.776562 
" style="fill: none; stroke: #ff7f0e; stroke-width: 1.5; stroke-linecap: square"/>
    </g>
    <g id="text_18">
     <!-- $x(t)$ -->
     <g transform="translate(127.78 67.276562) scale(0.1 -0.1)">
      <defs>
       <path id="DejaVuSans-Oblique-78" d="M 3841 3500 
L 2234 1784 
L 3219 0 
L 2559 0 
L 1819 1388 
L 531 0 
L -166 0 
L 1556 1844 
L 641 3500 
L 1300 3500 
L 1972 2234 
L 3144 3500 
L 3841 3500 
z
" transform="scale(0.015625)"/>
      </defs>
      <use xlink:href="#DejaVuSans-Oblique-78" transform="translate(0 0.125)"/>
      <use xlink:href="#DejaVuSans-28" transform="translate(59.179688 0.125)"/>
      <use xlink:href="#DejaVuSans-Oblique-74" transform="translate(98.193359 0.125)"/>
      <use xlink:href="#DejaVuSans-29" transform="translate(137.402344 0.125)"/>
     </g>
    </g>
   </g>
  </g>
  <g id="text_19">
   <!-- Voltage $v(t)$ for a LIF Neuron with $x(t)=0.5sin(10\pi t)$ and positive encoder $e=-1$ -->
   <g transform="translate(7.2 16.32) scale(0.12 -0.12)">
    <defs>
     <path id="DejaVuSans-66" d="M 2375 4863 
L 2375 4384 
L 1825 4384 
Q 1516 4384 1395 4259 
Q 1275 4134 1275 3809 
L 1275 3500 
L 2222 3500 
L 2222 3053 
L 1275 3053 
L 1275 0 
L 697 0 
L 697 3053 
L 147 3053 
L 147 3500 
L 697 3500 
L 697 3744 
Q 697 4328 969 4595 
Q 1241 4863 1831 4863 
L 2375 4863 
z
" transform="scale(0.015625)"/>
     <path id="DejaVuSans-72" d="M 2631 2963 
Q 2534 3019 2420 3045 
Q 2306 3072 2169 3072 
Q 1681 3072 1420 2755 
Q 1159 2438 1159 1844 
L 1159 0 
L 581 0 
L 581 3500 
L 1159 3500 
L 1159 2956 
Q 1341 3275 1631 3429 
Q 1922 3584 2338 3584 
Q 2397 3584 2469 3576 
Q 2541 3569 2628 3553 
L 2631 2963 
z
" transform="scale(0.015625)"/>
     <path id="DejaVuSans-4c" d="M 628 4666 
L 1259 4666 
L 1259 531 
L 3531 531 
L 3531 0 
L 628 0 
L 628 4666 
z
" transform="scale(0.015625)"/>
     <path id="DejaVuSans-49" d="M 628 4666 
L 1259 4666 
L 1259 0 
L 628 0 
L 628 4666 
z
" transform="scale(0.015625)"/>
     <path id="DejaVuSans-46" d="M 628 4666 
L 3309 4666 
L 3309 4134 
L 1259 4134 
L 1259 2759 
L 3109 2759 
L 3109 2228 
L 1259 2228 
L 1259 0 
L 628 0 
L 628 4666 
z
" transform="scale(0.015625)"/>
     <path id="DejaVuSans-4e" d="M 628 4666 
L 1478 4666 
L 3547 763 
L 3547 4666 
L 4159 4666 
L 4159 0 
L 3309 0 
L 1241 3903 
L 1241 0 
L 628 0 
L 628 4666 
z
" transform="scale(0.015625)"/>
     <path id="DejaVuSans-75" d="M 544 1381 
L 544 3500 
L 1119 3500 
L 1119 1403 
Q 1119 906 1312 657 
Q 1506 409 1894 409 
Q 2359 409 2629 706 
Q 2900 1003 2900 1516 
L 2900 3500 
L 3475 3500 
L 3475 0 
L 2900 0 
L 2900 538 
Q 2691 219 2414 64 
Q 2138 -91 1772 -91 
Q 1169 -91 856 284 
Q 544 659 544 1381 
z
M 1991 3584 
L 1991 3584 
z
" transform="scale(0.015625)"/>
     <path id="DejaVuSans-6e" d="M 3513 2113 
L 3513 0 
L 2938 0 
L 2938 2094 
Q 2938 2591 2744 2837 
Q 2550 3084 2163 3084 
Q 1697 3084 1428 2787 
Q 1159 2491 1159 1978 
L 1159 0 
L 581 0 
L 581 3500 
L 1159 3500 
L 1159 2956 
Q 1366 3272 1645 3428 
Q 1925 3584 2291 3584 
Q 2894 3584 3203 3211 
Q 3513 2838 3513 2113 
z
" transform="scale(0.015625)"/>
     <path id="DejaVuSans-77" d="M 269 3500 
L 844 3500 
L 1563 769 
L 2278 3500 
L 2956 3500 
L 3675 769 
L 4391 3500 
L 4966 3500 
L 4050 0 
L 3372 0 
L 2619 2869 
L 1863 0 
L 1184 0 
L 269 3500 
z
" transform="scale(0.015625)"/>
     <path id="DejaVuSans-69" d="M 603 3500 
L 1178 3500 
L 1178 0 
L 603 0 
L 603 3500 
z
M 603 4863 
L 1178 4863 
L 1178 4134 
L 603 4134 
L 603 4863 
z
" transform="scale(0.015625)"/>
     <path id="DejaVuSans-68" d="M 3513 2113 
L 3513 0 
L 2938 0 
L 2938 2094 
Q 2938 2591 2744 2837 
Q 2550 3084 2163 3084 
Q 1697 3084 1428 2787 
Q 1159 2491 1159 1978 
L 1159 0 
L 581 0 
L 581 4863 
L 1159 4863 
L 1159 2956 
Q 1366 3272 1645 3428 
Q 1925 3584 2291 3584 
Q 2894 3584 3203 3211 
Q 3513 2838 3513 2113 
z
" transform="scale(0.015625)"/>
     <path id="DejaVuSans-3d" d="M 678 2906 
L 4684 2906 
L 4684 2381 
L 678 2381 
L 678 2906 
z
M 678 1631 
L 4684 1631 
L 4684 1100 
L 678 1100 
L 678 1631 
z
" transform="scale(0.015625)"/>
     <path id="DejaVuSans-Oblique-73" d="M 3200 3397 
L 3091 2853 
Q 2863 2978 2609 3040 
Q 2356 3103 2088 3103 
Q 1634 3103 1373 2948 
Q 1113 2794 1113 2528 
Q 1113 2219 1719 2053 
Q 1766 2041 1788 2034 
L 1972 1978 
Q 2547 1819 2739 1644 
Q 2931 1469 2931 1166 
Q 2931 609 2489 259 
Q 2047 -91 1331 -91 
Q 1053 -91 747 -37 
Q 441 16 72 128 
L 184 722 
Q 500 559 806 475 
Q 1113 391 1394 391 
Q 1816 391 2080 572 
Q 2344 753 2344 1031 
Q 2344 1331 1650 1516 
L 1591 1531 
L 1394 1581 
Q 956 1697 753 1886 
Q 550 2075 550 2369 
Q 550 2928 970 3256 
Q 1391 3584 2113 3584 
Q 2397 3584 2667 3537 
Q 2938 3491 3200 3397 
z
" transform="scale(0.015625)"/>
     <path id="DejaVuSans-Oblique-69" d="M 1172 4863 
L 1747 4863 
L 1606 4134 
L 1031 4134 
L 1172 4863 
z
M 909 3500 
L 1484 3500 
L 800 0 
L 225 0 
L 909 3500 
z
" transform="scale(0.015625)"/>
     <path id="DejaVuSans-Oblique-6e" d="M 3566 2113 
L 3156 0 
L 2578 0 
L 2988 2091 
Q 3016 2238 3031 2350 
Q 3047 2463 3047 2528 
Q 3047 2791 2881 2937 
Q 2716 3084 2419 3084 
Q 1956 3084 1622 2776 
Q 1288 2469 1184 1941 
L 800 0 
L 225 0 
L 903 3500 
L 1478 3500 
L 1363 2950 
Q 1603 3253 1940 3418 
Q 2278 3584 2650 3584 
Q 3113 3584 3367 3334 
Q 3622 3084 3622 2631 
Q 3622 2519 3608 2391 
Q 3594 2263 3566 2113 
z
" transform="scale(0.015625)"/>
     <path id="DejaVuSans-Oblique-3c0" d="M 584 3500 
L 3938 3500 
L 3825 2925 
L 3384 2925 
L 2966 775 
Q 2922 550 2981 450 
Q 3038 353 3209 353 
Q 3256 353 3325 363 
Q 3397 369 3419 372 
L 3338 -44 
Q 3222 -84 3103 -103 
Q 2981 -122 2866 -122 
Q 2491 -122 2388 81 
Q 2284 288 2391 838 
L 2797 2925 
L 1506 2925 
L 938 0 
L 350 0 
L 919 2925 
L 472 2925 
L 584 3500 
z
" transform="scale(0.015625)"/>
     <path id="DejaVuSans-64" d="M 2906 2969 
L 2906 4863 
L 3481 4863 
L 3481 0 
L 2906 0 
L 2906 525 
Q 2725 213 2448 61 
Q 2172 -91 1784 -91 
Q 1150 -91 751 415 
Q 353 922 353 1747 
Q 353 2572 751 3078 
Q 1150 3584 1784 3584 
Q 2172 3584 2448 3432 
Q 2725 3281 2906 2969 
z
M 947 1747 
Q 947 1113 1208 752 
Q 1469 391 1925 391 
Q 2381 391 2643 752 
Q 2906 1113 2906 1747 
Q 2906 2381 2643 2742 
Q 2381 3103 1925 3103 
Q 1469 3103 1208 2742 
Q 947 2381 947 1747 
z
" transform="scale(0.015625)"/>
     <path id="DejaVuSans-70" d="M 1159 525 
L 1159 -1331 
L 581 -1331 
L 581 3500 
L 1159 3500 
L 1159 2969 
Q 1341 3281 1617 3432 
Q 1894 3584 2278 3584 
Q 2916 3584 3314 3078 
Q 3713 2572 3713 1747 
Q 3713 922 3314 415 
Q 2916 -91 2278 -91 
Q 1894 -91 1617 61 
Q 1341 213 1159 525 
z
M 3116 1747 
Q 3116 2381 2855 2742 
Q 2594 3103 2138 3103 
Q 1681 3103 1420 2742 
Q 1159 2381 1159 1747 
Q 1159 1113 1420 752 
Q 1681 391 2138 391 
Q 2594 391 2855 752 
Q 3116 1113 3116 1747 
z
" transform="scale(0.015625)"/>
     <path id="DejaVuSans-76" d="M 191 3500 
L 800 3500 
L 1894 563 
L 2988 3500 
L 3597 3500 
L 2284 0 
L 1503 0 
L 191 3500 
z
" transform="scale(0.015625)"/>
     <path id="DejaVuSans-Oblique-65" d="M 3078 2063 
Q 3088 2113 3092 2166 
Q 3097 2219 3097 2272 
Q 3097 2653 2873 2875 
Q 2650 3097 2266 3097 
Q 1838 3097 1509 2826 
Q 1181 2556 1013 2059 
L 3078 2063 
z
M 3578 1613 
L 903 1613 
Q 884 1494 878 1425 
Q 872 1356 872 1306 
Q 872 872 1139 634 
Q 1406 397 1894 397 
Q 2269 397 2603 481 
Q 2938 566 3225 728 
L 3116 159 
Q 2806 34 2476 -28 
Q 2147 -91 1806 -91 
Q 1078 -91 686 257 
Q 294 606 294 1247 
Q 294 1794 489 2264 
Q 684 2734 1063 3103 
Q 1306 3334 1642 3459 
Q 1978 3584 2356 3584 
Q 2950 3584 3301 3228 
Q 3653 2872 3653 2272 
Q 3653 2128 3634 1964 
Q 3616 1800 3578 1613 
z
" transform="scale(0.015625)"/>
    </defs>
    <use xlink:href="#DejaVuSans-56" transform="translate(0 0.015625)"/>
    <use xlink:href="#DejaVuSans-6f" transform="translate(68.408203 0.015625)"/>
    <use xlink:href="#DejaVuSans-6c" transform="translate(129.589844 0.015625)"/>
    <use xlink:href="#DejaVuSans-74" transform="translate(157.373047 0.015625)"/>
    <use xlink:href="#DejaVuSans-61" transform="translate(196.582031 0.015625)"/>
    <use xlink:href="#DejaVuSans-67" transform="translate(257.861328 0.015625)"/>
    <use xlink:href="#DejaVuSans-65" transform="translate(321.337891 0.015625)"/>
    <use xlink:href="#DejaVuSans-20" transform="translate(382.861328 0.015625)"/>
    <use xlink:href="#DejaVuSans-Oblique-76" transform="translate(414.648438 0.015625)"/>
    <use xlink:href="#DejaVuSans-28" transform="translate(473.828125 0.015625)"/>
    <use xlink:href="#DejaVuSans-Oblique-74" transform="translate(512.841797 0.015625)"/>
    <use xlink:href="#DejaVuSans-29" transform="translate(552.050781 0.015625)"/>
    <use xlink:href="#DejaVuSans-20" transform="translate(591.064453 0.015625)"/>
    <use xlink:href="#DejaVuSans-66" transform="translate(622.851562 0.015625)"/>
    <use xlink:href="#DejaVuSans-6f" transform="translate(658.056641 0.015625)"/>
    <use xlink:href="#DejaVuSans-72" transform="translate(719.238281 0.015625)"/>
    <use xlink:href="#DejaVuSans-20" transform="translate(760.351562 0.015625)"/>
    <use xlink:href="#DejaVuSans-61" transform="translate(792.138672 0.015625)"/>
    <use xlink:href="#DejaVuSans-20" transform="translate(853.417969 0.015625)"/>
    <use xlink:href="#DejaVuSans-4c" transform="translate(885.205078 0.015625)"/>
    <use xlink:href="#DejaVuSans-49" transform="translate(940.917969 0.015625)"/>
    <use xlink:href="#DejaVuSans-46" transform="translate(970.410156 0.015625)"/>
    <use xlink:href="#DejaVuSans-20" transform="translate(1027.929688 0.015625)"/>
    <use xlink:href="#DejaVuSans-4e" transform="translate(1059.716797 0.015625)"/>
    <use xlink:href="#DejaVuSans-65" transform="translate(1134.521484 0.015625)"/>
    <use xlink:href="#DejaVuSans-75" transform="translate(1196.044922 0.015625)"/>
    <use xlink:href="#DejaVuSans-72" transform="translate(1259.423828 0.015625)"/>
    <use xlink:href="#DejaVuSans-6f" transform="translate(1300.537109 0.015625)"/>
    <use xlink:href="#DejaVuSans-6e" transform="translate(1361.71875 0.015625)"/>
    <use xlink:href="#DejaVuSans-20" transform="translate(1425.097656 0.015625)"/>
    <use xlink:href="#DejaVuSans-77" transform="translate(1456.884766 0.015625)"/>
    <use xlink:href="#DejaVuSans-69" transform="translate(1538.671875 0.015625)"/>
    <use xlink:href="#DejaVuSans-74" transform="translate(1566.455078 0.015625)"/>
    <use xlink:href="#DejaVuSans-68" transform="translate(1605.664062 0.015625)"/>
    <use xlink:href="#DejaVuSans-20" transform="translate(1669.042969 0.015625)"/>
    <use xlink:href="#DejaVuSans-Oblique-78" transform="translate(1700.830078 0.015625)"/>
    <use xlink:href="#DejaVuSans-28" transform="translate(1760.009766 0.015625)"/>
    <use xlink:href="#DejaVuSans-Oblique-74" transform="translate(1799.023438 0.015625)"/>
    <use xlink:href="#DejaVuSans-29" transform="translate(1838.232422 0.015625)"/>
    <use xlink:href="#DejaVuSans-3d" transform="translate(1896.728516 0.015625)"/>
    <use xlink:href="#DejaVuSans-30" transform="translate(2000 0.015625)"/>
    <use xlink:href="#DejaVuSans-2e" transform="translate(2063.623047 0.015625)"/>
    <use xlink:href="#DejaVuSans-35" transform="translate(2095.410156 0.015625)"/>
    <use xlink:href="#DejaVuSans-Oblique-73" transform="translate(2159.033203 0.015625)"/>
    <use xlink:href="#DejaVuSans-Oblique-69" transform="translate(2211.132812 0.015625)"/>
    <use xlink:href="#DejaVuSans-Oblique-6e" transform="translate(2238.916016 0.015625)"/>
    <use xlink:href="#DejaVuSans-28" transform="translate(2302.294922 0.015625)"/>
    <use xlink:href="#DejaVuSans-31" transform="translate(2341.308594 0.015625)"/>
    <use xlink:href="#DejaVuSans-30" transform="translate(2404.931641 0.015625)"/>
    <use xlink:href="#DejaVuSans-Oblique-3c0" transform="translate(2468.554688 0.015625)"/>
    <use xlink:href="#DejaVuSans-Oblique-74" transform="translate(2528.759766 0.015625)"/>
    <use xlink:href="#DejaVuSans-29" transform="translate(2567.96875 0.015625)"/>
    <use xlink:href="#DejaVuSans-20" transform="translate(2606.982422 0.015625)"/>
    <use xlink:href="#DejaVuSans-61" transform="translate(2638.769531 0.015625)"/>
    <use xlink:href="#DejaVuSans-6e" transform="translate(2700.048828 0.015625)"/>
    <use xlink:href="#DejaVuSans-64" transform="translate(2763.427734 0.015625)"/>
    <use xlink:href="#DejaVuSans-20" transform="translate(2826.904297 0.015625)"/>
    <use xlink:href="#DejaVuSans-70" transform="translate(2858.691406 0.015625)"/>
    <use xlink:href="#DejaVuSans-6f" transform="translate(2922.167969 0.015625)"/>
    <use xlink:href="#DejaVuSans-73" transform="translate(2983.349609 0.015625)"/>
    <use xlink:href="#DejaVuSans-69" transform="translate(3035.449219 0.015625)"/>
    <use xlink:href="#DejaVuSans-74" transform="translate(3063.232422 0.015625)"/>
    <use xlink:href="#DejaVuSans-69" transform="translate(3102.441406 0.015625)"/>
    <use xlink:href="#DejaVuSans-76" transform="translate(3130.224609 0.015625)"/>
    <use xlink:href="#DejaVuSans-65" transform="translate(3189.404297 0.015625)"/>
    <use xlink:href="#DejaVuSans-20" transform="translate(3250.927734 0.015625)"/>
    <use xlink:href="#DejaVuSans-65" transform="translate(3282.714844 0.015625)"/>
    <use xlink:href="#DejaVuSans-6e" transform="translate(3344.238281 0.015625)"/>
    <use xlink:href="#DejaVuSans-63" transform="translate(3407.617188 0.015625)"/>
    <use xlink:href="#DejaVuSans-6f" transform="translate(3462.597656 0.015625)"/>
    <use xlink:href="#DejaVuSans-64" transform="translate(3523.779297 0.015625)"/>
    <use xlink:href="#DejaVuSans-65" transform="translate(3587.255859 0.015625)"/>
    <use xlink:href="#DejaVuSans-72" transform="translate(3648.779297 0.015625)"/>
    <use xlink:href="#DejaVuSans-20" transform="translate(3689.892578 0.015625)"/>
    <use xlink:href="#DejaVuSans-Oblique-65" transform="translate(3721.679688 0.015625)"/>
    <use xlink:href="#DejaVuSans-3d" transform="translate(3802.685547 0.015625)"/>
    <use xlink:href="#DejaVuSans-2212" transform="translate(3925.439453 0.015625)"/>
    <use xlink:href="#DejaVuSans-31" transform="translate(4028.710938 0.015625)"/>
   </g>
  </g>
 </g>
 <defs>
  <clipPath id="pc9c899b337">
   <rect x="90.78" y="36" width="334.8" height="217.44"/>
  </clipPath>
 </defs>
</svg>
