<?xml version="1.0" encoding="utf-8" standalone="no"?>
<!DOCTYPE svg PUBLIC "-//W3C//DTD SVG 1.1//EN"
  "http://www.w3.org/Graphics/SVG/1.1/DTD/svg11.dtd">
<svg xmlns:xlink="http://www.w3.org/1999/xlink" width="380.054687pt" height="248.518125pt" viewBox="0 0 380.054687 248.518125" xmlns="http://www.w3.org/2000/svg" version="1.1">
 <metadata>
  <rdf:RDF xmlns:dc="http://purl.org/dc/elements/1.1/" xmlns:cc="http://creativecommons.org/ns#" xmlns:rdf="http://www.w3.org/1999/02/22-rdf-syntax-ns#">
   <cc:Work>
    <dc:type rdf:resource="http://purl.org/dc/dcmitype/StillImage"/>
    <dc:date>2022-10-15T15:41:51.704907</dc:date>
    <dc:format>image/svg+xml</dc:format>
    <dc:creator>
     <cc:Agent>
      <dc:title>Matplotlib v3.6.0, https://matplotlib.org/</dc:title>
     </cc:Agent>
    </dc:creator>
   </cc:Work>
  </rdf:RDF>
 </metadata>
 <defs>
  <style type="text/css">*{stroke-linejoin: round; stroke-linecap: butt}</style>
 </defs>
 <g id="figure_1">
  <g id="patch_1">
   <path d="M 0 248.518125 
L 380.054687 248.518125 
L 380.054687 0 
L 0 0 
L 0 248.518125 
z
" style="fill: none"/>
  </g>
  <g id="axes_1">
   <g id="patch_2">
    <path d="M 30.103125 224.64 
L 364.903125 224.64 
L 364.903125 7.2 
L 30.103125 7.2 
z
" style="fill: #ffffff"/>
   </g>
   <g id="matplotlib.axis_1">
    <g id="xtick_1">
     <g id="line2d_1">
      <defs>
       <path id="m942b7f2376" d="M 0 0 
L 0 3.5 
" style="stroke: #000000; stroke-width: 0.8"/>
      </defs>
      <g>
       <use xlink:href="#m942b7f2376" x="30.103125" y="224.64" style="stroke: #000000; stroke-width: 0.8"/>
      </g>
     </g>
     <g id="text_1">
      <!-- 0.0 -->
      <g transform="translate(22.151563 239.238437) scale(0.1 -0.1)">
       <defs>
        <path id="DejaVuSans-30" d="M 2034 4250 
Q 1547 4250 1301 3770 
Q 1056 3291 1056 2328 
Q 1056 1369 1301 889 
Q 1547 409 2034 409 
Q 2525 409 2770 889 
Q 3016 1369 3016 2328 
Q 3016 3291 2770 3770 
Q 2525 4250 2034 4250 
z
M 2034 4750 
Q 2819 4750 3233 4129 
Q 3647 3509 3647 2328 
Q 3647 1150 3233 529 
Q 2819 -91 2034 -91 
Q 1250 -91 836 529 
Q 422 1150 422 2328 
Q 422 3509 836 4129 
Q 1250 4750 2034 4750 
z
" transform="scale(0.015625)"/>
        <path id="DejaVuSans-2e" d="M 684 794 
L 1344 794 
L 1344 0 
L 684 0 
L 684 794 
z
" transform="scale(0.015625)"/>
       </defs>
       <use xlink:href="#DejaVuSans-30"/>
       <use xlink:href="#DejaVuSans-2e" x="63.623047"/>
       <use xlink:href="#DejaVuSans-30" x="95.410156"/>
      </g>
     </g>
    </g>
    <g id="xtick_2">
     <g id="line2d_2">
      <g>
       <use xlink:href="#m942b7f2376" x="97.063125" y="224.64" style="stroke: #000000; stroke-width: 0.8"/>
      </g>
     </g>
     <g id="text_2">
      <!-- 0.2 -->
      <g transform="translate(89.111563 239.238437) scale(0.1 -0.1)">
       <defs>
        <path id="DejaVuSans-32" d="M 1228 531 
L 3431 531 
L 3431 0 
L 469 0 
L 469 531 
Q 828 903 1448 1529 
Q 2069 2156 2228 2338 
Q 2531 2678 2651 2914 
Q 2772 3150 2772 3378 
Q 2772 3750 2511 3984 
Q 2250 4219 1831 4219 
Q 1534 4219 1204 4116 
Q 875 4013 500 3803 
L 500 4441 
Q 881 4594 1212 4672 
Q 1544 4750 1819 4750 
Q 2544 4750 2975 4387 
Q 3406 4025 3406 3419 
Q 3406 3131 3298 2873 
Q 3191 2616 2906 2266 
Q 2828 2175 2409 1742 
Q 1991 1309 1228 531 
z
" transform="scale(0.015625)"/>
       </defs>
       <use xlink:href="#DejaVuSans-30"/>
       <use xlink:href="#DejaVuSans-2e" x="63.623047"/>
       <use xlink:href="#DejaVuSans-32" x="95.410156"/>
      </g>
     </g>
    </g>
    <g id="xtick_3">
     <g id="line2d_3">
      <g>
       <use xlink:href="#m942b7f2376" x="164.023125" y="224.64" style="stroke: #000000; stroke-width: 0.8"/>
      </g>
     </g>
     <g id="text_3">
      <!-- 0.4 -->
      <g transform="translate(156.071563 239.238437) scale(0.1 -0.1)">
       <defs>
        <path id="DejaVuSans-34" d="M 2419 4116 
L 825 1625 
L 2419 1625 
L 2419 4116 
z
M 2253 4666 
L 3047 4666 
L 3047 1625 
L 3713 1625 
L 3713 1100 
L 3047 1100 
L 3047 0 
L 2419 0 
L 2419 1100 
L 313 1100 
L 313 1709 
L 2253 4666 
z
" transform="scale(0.015625)"/>
       </defs>
       <use xlink:href="#DejaVuSans-30"/>
       <use xlink:href="#DejaVuSans-2e" x="63.623047"/>
       <use xlink:href="#DejaVuSans-34" x="95.410156"/>
      </g>
     </g>
    </g>
    <g id="xtick_4">
     <g id="line2d_4">
      <g>
       <use xlink:href="#m942b7f2376" x="230.983125" y="224.64" style="stroke: #000000; stroke-width: 0.8"/>
      </g>
     </g>
     <g id="text_4">
      <!-- 0.6 -->
      <g transform="translate(223.031563 239.238437) scale(0.1 -0.1)">
       <defs>
        <path id="DejaVuSans-36" d="M 2113 2584 
Q 1688 2584 1439 2293 
Q 1191 2003 1191 1497 
Q 1191 994 1439 701 
Q 1688 409 2113 409 
Q 2538 409 2786 701 
Q 3034 994 3034 1497 
Q 3034 2003 2786 2293 
Q 2538 2584 2113 2584 
z
M 3366 4563 
L 3366 3988 
Q 3128 4100 2886 4159 
Q 2644 4219 2406 4219 
Q 1781 4219 1451 3797 
Q 1122 3375 1075 2522 
Q 1259 2794 1537 2939 
Q 1816 3084 2150 3084 
Q 2853 3084 3261 2657 
Q 3669 2231 3669 1497 
Q 3669 778 3244 343 
Q 2819 -91 2113 -91 
Q 1303 -91 875 529 
Q 447 1150 447 2328 
Q 447 3434 972 4092 
Q 1497 4750 2381 4750 
Q 2619 4750 2861 4703 
Q 3103 4656 3366 4563 
z
" transform="scale(0.015625)"/>
       </defs>
       <use xlink:href="#DejaVuSans-30"/>
       <use xlink:href="#DejaVuSans-2e" x="63.623047"/>
       <use xlink:href="#DejaVuSans-36" x="95.410156"/>
      </g>
     </g>
    </g>
    <g id="xtick_5">
     <g id="line2d_5">
      <g>
       <use xlink:href="#m942b7f2376" x="297.943125" y="224.64" style="stroke: #000000; stroke-width: 0.8"/>
      </g>
     </g>
     <g id="text_5">
      <!-- 0.8 -->
      <g transform="translate(289.991563 239.238437) scale(0.1 -0.1)">
       <defs>
        <path id="DejaVuSans-38" d="M 2034 2216 
Q 1584 2216 1326 1975 
Q 1069 1734 1069 1313 
Q 1069 891 1326 650 
Q 1584 409 2034 409 
Q 2484 409 2743 651 
Q 3003 894 3003 1313 
Q 3003 1734 2745 1975 
Q 2488 2216 2034 2216 
z
M 1403 2484 
Q 997 2584 770 2862 
Q 544 3141 544 3541 
Q 544 4100 942 4425 
Q 1341 4750 2034 4750 
Q 2731 4750 3128 4425 
Q 3525 4100 3525 3541 
Q 3525 3141 3298 2862 
Q 3072 2584 2669 2484 
Q 3125 2378 3379 2068 
Q 3634 1759 3634 1313 
Q 3634 634 3220 271 
Q 2806 -91 2034 -91 
Q 1263 -91 848 271 
Q 434 634 434 1313 
Q 434 1759 690 2068 
Q 947 2378 1403 2484 
z
M 1172 3481 
Q 1172 3119 1398 2916 
Q 1625 2713 2034 2713 
Q 2441 2713 2670 2916 
Q 2900 3119 2900 3481 
Q 2900 3844 2670 4047 
Q 2441 4250 2034 4250 
Q 1625 4250 1398 4047 
Q 1172 3844 1172 3481 
z
" transform="scale(0.015625)"/>
       </defs>
       <use xlink:href="#DejaVuSans-30"/>
       <use xlink:href="#DejaVuSans-2e" x="63.623047"/>
       <use xlink:href="#DejaVuSans-38" x="95.410156"/>
      </g>
     </g>
    </g>
    <g id="xtick_6">
     <g id="line2d_6">
      <g>
       <use xlink:href="#m942b7f2376" x="364.903125" y="224.64" style="stroke: #000000; stroke-width: 0.8"/>
      </g>
     </g>
     <g id="text_6">
      <!-- 1.0 -->
      <g transform="translate(356.951563 239.238437) scale(0.1 -0.1)">
       <defs>
        <path id="DejaVuSans-31" d="M 794 531 
L 1825 531 
L 1825 4091 
L 703 3866 
L 703 4441 
L 1819 4666 
L 2450 4666 
L 2450 531 
L 3481 531 
L 3481 0 
L 794 0 
L 794 531 
z
" transform="scale(0.015625)"/>
       </defs>
       <use xlink:href="#DejaVuSans-31"/>
       <use xlink:href="#DejaVuSans-2e" x="63.623047"/>
       <use xlink:href="#DejaVuSans-30" x="95.410156"/>
      </g>
     </g>
    </g>
   </g>
   <g id="matplotlib.axis_2">
    <g id="ytick_1">
     <g id="line2d_7">
      <defs>
       <path id="m744403d329" d="M 0 0 
L -3.5 0 
" style="stroke: #000000; stroke-width: 0.8"/>
      </defs>
      <g>
       <use xlink:href="#m744403d329" x="30.103125" y="214.756364" style="stroke: #000000; stroke-width: 0.8"/>
      </g>
     </g>
     <g id="text_7">
      <!-- 0.0 -->
      <g transform="translate(7.2 218.555582) scale(0.1 -0.1)">
       <use xlink:href="#DejaVuSans-30"/>
       <use xlink:href="#DejaVuSans-2e" x="63.623047"/>
       <use xlink:href="#DejaVuSans-30" x="95.410156"/>
      </g>
     </g>
    </g>
    <g id="ytick_2">
     <g id="line2d_8">
      <g>
       <use xlink:href="#m744403d329" x="30.103125" y="175.751495" style="stroke: #000000; stroke-width: 0.8"/>
      </g>
     </g>
     <g id="text_8">
      <!-- 0.2 -->
      <g transform="translate(7.2 179.550713) scale(0.1 -0.1)">
       <use xlink:href="#DejaVuSans-30"/>
       <use xlink:href="#DejaVuSans-2e" x="63.623047"/>
       <use xlink:href="#DejaVuSans-32" x="95.410156"/>
      </g>
     </g>
    </g>
    <g id="ytick_3">
     <g id="line2d_9">
      <g>
       <use xlink:href="#m744403d329" x="30.103125" y="136.746625" style="stroke: #000000; stroke-width: 0.8"/>
      </g>
     </g>
     <g id="text_9">
      <!-- 0.4 -->
      <g transform="translate(7.2 140.545844) scale(0.1 -0.1)">
       <use xlink:href="#DejaVuSans-30"/>
       <use xlink:href="#DejaVuSans-2e" x="63.623047"/>
       <use xlink:href="#DejaVuSans-34" x="95.410156"/>
      </g>
     </g>
    </g>
    <g id="ytick_4">
     <g id="line2d_10">
      <g>
       <use xlink:href="#m744403d329" x="30.103125" y="97.741756" style="stroke: #000000; stroke-width: 0.8"/>
      </g>
     </g>
     <g id="text_10">
      <!-- 0.6 -->
      <g transform="translate(7.2 101.540975) scale(0.1 -0.1)">
       <use xlink:href="#DejaVuSans-30"/>
       <use xlink:href="#DejaVuSans-2e" x="63.623047"/>
       <use xlink:href="#DejaVuSans-36" x="95.410156"/>
      </g>
     </g>
    </g>
    <g id="ytick_5">
     <g id="line2d_11">
      <g>
       <use xlink:href="#m744403d329" x="30.103125" y="58.736887" style="stroke: #000000; stroke-width: 0.8"/>
      </g>
     </g>
     <g id="text_11">
      <!-- 0.8 -->
      <g transform="translate(7.2 62.536106) scale(0.1 -0.1)">
       <use xlink:href="#DejaVuSans-30"/>
       <use xlink:href="#DejaVuSans-2e" x="63.623047"/>
       <use xlink:href="#DejaVuSans-38" x="95.410156"/>
      </g>
     </g>
    </g>
    <g id="ytick_6">
     <g id="line2d_12">
      <g>
       <use xlink:href="#m744403d329" x="30.103125" y="19.732018" style="stroke: #000000; stroke-width: 0.8"/>
      </g>
     </g>
     <g id="text_12">
      <!-- 1.0 -->
      <g transform="translate(7.2 23.531237) scale(0.1 -0.1)">
       <use xlink:href="#DejaVuSans-31"/>
       <use xlink:href="#DejaVuSans-2e" x="63.623047"/>
       <use xlink:href="#DejaVuSans-30" x="95.410156"/>
      </g>
     </g>
    </g>
   </g>
   <g id="line2d_13">
    <path d="M 30.103125 200.486914 
L 31.442325 150.195933 
L 32.781525 109.233614 
L 34.120725 75.86955 
L 35.459925 48.694311 
L 36.799125 26.559909 
L 37.468725 17.083636 
L 37.803525 214.756364 
L 39.142725 161.818489 
L 40.481925 118.700259 
L 41.821125 83.580191 
L 43.160325 54.974676 
L 44.499525 31.675306 
L 45.503925 17.083636 
L 45.838725 214.756364 
L 47.177925 161.818489 
L 48.517125 118.700259 
L 49.856325 83.580191 
L 51.195525 54.974676 
L 52.534725 31.675306 
L 53.539125 17.083636 
L 53.873925 214.756364 
L 55.213125 161.818489 
L 56.552325 118.700259 
L 57.891525 83.580191 
L 59.230725 54.974676 
L 60.569925 31.675306 
L 61.574325 17.083636 
L 61.909125 214.756364 
L 63.248325 161.818489 
L 64.587525 118.700259 
L 65.926725 83.580191 
L 67.265925 54.974676 
L 68.605125 31.675306 
L 69.609525 17.083636 
L 69.944325 214.756364 
L 71.283525 161.818489 
L 72.622725 118.700259 
L 73.961925 83.580191 
L 75.301125 54.974676 
L 76.640325 31.675306 
L 77.644725 17.083636 
L 77.979525 214.756364 
L 79.318725 161.818489 
L 80.657925 118.700259 
L 81.997125 83.580191 
L 83.336325 54.974676 
L 84.675525 31.675306 
L 85.679925 17.083636 
L 86.014725 214.756364 
L 87.353925 161.818489 
L 88.693125 118.700259 
L 90.032325 83.580191 
L 91.371525 54.974676 
L 92.710725 31.675306 
L 93.715125 17.083636 
L 94.049925 214.756364 
L 95.389125 161.818489 
L 96.728325 118.700259 
L 98.067525 83.580191 
L 99.406725 54.974676 
L 100.745925 31.675306 
L 101.750325 17.083636 
L 102.085125 214.756364 
L 103.424325 161.818489 
L 104.763525 118.700259 
L 106.102725 83.580191 
L 107.441925 54.974676 
L 108.781125 31.675306 
L 109.785525 17.083636 
L 110.120325 214.756364 
L 111.459525 161.818489 
L 112.798725 118.700259 
L 114.137925 83.580191 
L 115.477125 54.974676 
L 116.816325 31.675306 
L 117.820725 17.083636 
L 118.155525 214.756364 
L 119.494725 161.818489 
L 120.833925 118.700259 
L 122.173125 83.580191 
L 123.512325 54.974676 
L 124.851525 31.675306 
L 125.855925 17.083636 
L 126.190725 214.756364 
L 127.529925 161.818489 
L 128.869125 118.700259 
L 130.208325 83.580191 
L 131.547525 54.974676 
L 132.886725 31.675306 
L 133.891125 17.083636 
L 134.225925 214.756364 
L 135.565125 161.818489 
L 136.904325 118.700259 
L 138.243525 83.580191 
L 139.582725 54.974676 
L 140.921925 31.675306 
L 141.926325 17.083636 
L 142.261125 214.756364 
L 143.600325 161.818489 
L 144.939525 118.700259 
L 146.278725 83.580191 
L 147.617925 54.974676 
L 148.957125 31.675306 
L 149.961525 17.083636 
L 150.296325 214.756364 
L 151.635525 161.818489 
L 152.974725 118.700259 
L 154.313925 83.580191 
L 155.653125 54.974676 
L 156.992325 31.675306 
L 157.996725 17.083636 
L 158.331525 214.756364 
L 159.670725 161.818489 
L 161.009925 118.700259 
L 162.349125 83.580191 
L 163.688325 54.974676 
L 165.027525 31.675306 
L 166.031925 17.083636 
L 166.366725 214.756364 
L 167.705925 161.818489 
L 169.045125 118.700259 
L 170.384325 83.580191 
L 171.723525 54.974676 
L 173.062725 31.675306 
L 174.067125 17.083636 
L 174.401925 214.756364 
L 175.741125 161.818489 
L 177.080325 118.700259 
L 178.419525 83.580191 
L 179.758725 54.974676 
L 181.097925 31.675306 
L 182.102325 17.083636 
L 182.437125 214.756364 
L 183.776325 161.818489 
L 185.115525 118.700259 
L 186.454725 83.580191 
L 187.793925 54.974676 
L 189.133125 31.675306 
L 190.137525 17.083636 
L 190.472325 214.756364 
L 191.811525 161.818489 
L 193.150725 118.700259 
L 194.489925 83.580191 
L 195.829125 54.974676 
L 197.168325 31.675306 
L 198.172725 17.083636 
L 198.507525 214.756364 
L 199.846725 161.818489 
L 201.185925 118.700259 
L 202.525125 83.580191 
L 203.864325 54.974676 
L 205.203525 31.675306 
L 206.207925 17.083636 
L 206.542725 214.756364 
L 207.881925 161.818489 
L 209.221125 118.700259 
L 210.560325 83.580191 
L 211.899525 54.974676 
L 213.238725 31.675306 
L 214.243125 17.083636 
L 214.577925 214.756364 
L 215.917125 161.818489 
L 217.256325 118.700259 
L 218.595525 83.580191 
L 219.934725 54.974676 
L 221.273925 31.675306 
L 222.278325 17.083636 
L 222.613125 214.756364 
L 223.952325 161.818489 
L 225.291525 118.700259 
L 226.630725 83.580191 
L 227.969925 54.974676 
L 229.309125 31.675306 
L 230.313525 17.083636 
L 230.648325 214.756364 
L 231.987525 161.818489 
L 233.326725 118.700259 
L 234.665925 83.580191 
L 236.005125 54.974676 
L 237.344325 31.675306 
L 238.348725 17.083636 
L 238.683525 214.756364 
L 240.022725 161.818489 
L 241.361925 118.700259 
L 242.701125 83.580191 
L 244.040325 54.974676 
L 245.379525 31.675306 
L 246.383925 17.083636 
L 246.718725 214.756364 
L 248.057925 161.818489 
L 249.397125 118.700259 
L 250.736325 83.580191 
L 252.075525 54.974676 
L 253.414725 31.675306 
L 254.419125 17.083636 
L 254.753925 214.756364 
L 256.093125 161.818489 
L 257.432325 118.700259 
L 258.771525 83.580191 
L 260.110725 54.974676 
L 261.449925 31.675306 
L 262.454325 17.083636 
L 262.789125 214.756364 
L 264.128325 161.818489 
L 265.467525 118.700259 
L 266.806725 83.580191 
L 268.145925 54.974676 
L 269.485125 31.675306 
L 270.489525 17.083636 
L 270.824325 214.756364 
L 272.163525 161.818489 
L 273.502725 118.700259 
L 274.841925 83.580191 
L 276.181125 54.974676 
L 277.520325 31.675306 
L 278.524725 17.083636 
L 278.859525 214.756364 
L 280.198725 161.818489 
L 281.537925 118.700259 
L 282.877125 83.580191 
L 284.216325 54.974676 
L 285.555525 31.675306 
L 286.559925 17.083636 
L 286.894725 214.756364 
L 288.233925 161.818489 
L 289.573125 118.700259 
L 290.912325 83.580191 
L 292.251525 54.974676 
L 293.590725 31.675306 
L 294.595125 17.083636 
L 294.929925 214.756364 
L 296.269125 161.818489 
L 297.608325 118.700259 
L 298.947525 83.580191 
L 300.286725 54.974676 
L 301.625925 31.675306 
L 302.630325 17.083636 
L 302.965125 214.756364 
L 304.304325 161.818489 
L 305.643525 118.700259 
L 306.982725 83.580191 
L 308.321925 54.974676 
L 309.661125 31.675306 
L 310.665525 17.083636 
L 311.000325 214.756364 
L 312.339525 161.818489 
L 313.678725 118.700259 
L 315.017925 83.580191 
L 316.357125 54.974676 
L 317.696325 31.675306 
L 318.700725 17.083636 
L 319.035525 214.756364 
L 320.374725 161.818489 
L 321.713925 118.700259 
L 323.053125 83.580191 
L 324.392325 54.974676 
L 325.731525 31.675306 
L 326.735925 17.083636 
L 327.070725 214.756364 
L 328.409925 161.818489 
L 329.749125 118.700259 
L 331.088325 83.580191 
L 332.427525 54.974676 
L 333.766725 31.675306 
L 334.771125 17.083636 
L 335.105925 214.756364 
L 336.445125 161.818489 
L 337.784325 118.700259 
L 339.123525 83.580191 
L 340.462725 54.974676 
L 341.801925 31.675306 
L 342.806325 17.083636 
L 343.141125 214.756364 
L 344.480325 161.818489 
L 345.819525 118.700259 
L 347.158725 83.580191 
L 348.497925 54.974676 
L 349.837125 31.675306 
L 350.841525 17.083636 
L 351.176325 214.756364 
L 352.515525 161.818489 
L 353.854725 118.700259 
L 355.193925 83.580191 
L 356.533125 54.974676 
L 357.872325 31.675306 
L 358.876725 17.083636 
L 359.211525 214.756364 
L 360.550725 161.818489 
L 361.889925 118.700259 
L 363.229125 83.580191 
L 364.568325 54.974676 
L 364.568325 54.974676 
" clip-path="url(#pe260438d5f)" style="fill: none; stroke: #1f77b4; stroke-width: 1.5; stroke-linecap: square"/>
   </g>
   <g id="patch_3">
    <path d="M 30.103125 224.64 
L 30.103125 7.2 
" style="fill: none; stroke: #000000; stroke-width: 0.8; stroke-linejoin: miter; stroke-linecap: square"/>
   </g>
   <g id="patch_4">
    <path d="M 364.903125 224.64 
L 364.903125 7.2 
" style="fill: none; stroke: #000000; stroke-width: 0.8; stroke-linejoin: miter; stroke-linecap: square"/>
   </g>
   <g id="patch_5">
    <path d="M 30.103125 224.64 
L 364.903125 224.64 
" style="fill: none; stroke: #000000; stroke-width: 0.8; stroke-linejoin: miter; stroke-linecap: square"/>
   </g>
   <g id="patch_6">
    <path d="M 30.103125 7.2 
L 364.903125 7.2 
" style="fill: none; stroke: #000000; stroke-width: 0.8; stroke-linejoin: miter; stroke-linecap: square"/>
   </g>
  </g>
 </g>
 <defs>
  <clipPath id="pe260438d5f">
   <rect x="30.103125" y="7.2" width="334.8" height="217.44"/>
  </clipPath>
 </defs>
</svg>
