<?xml version="1.0" encoding="utf-8" standalone="no"?>
<!DOCTYPE svg PUBLIC "-//W3C//DTD SVG 1.1//EN"
  "http://www.w3.org/Graphics/SVG/1.1/DTD/svg11.dtd">
<svg xmlns:xlink="http://www.w3.org/1999/xlink" width="370.942187pt" height="252.123687pt" viewBox="0 0 370.942187 252.123687" xmlns="http://www.w3.org/2000/svg" version="1.1">
 <metadata>
  <rdf:RDF xmlns:dc="http://purl.org/dc/elements/1.1/" xmlns:cc="http://creativecommons.org/ns#" xmlns:rdf="http://www.w3.org/1999/02/22-rdf-syntax-ns#">
   <cc:Work>
    <dc:type rdf:resource="http://purl.org/dc/dcmitype/StillImage"/>
    <dc:date>2022-10-17T16:34:03.997237</dc:date>
    <dc:format>image/svg+xml</dc:format>
    <dc:creator>
     <cc:Agent>
      <dc:title>Matplotlib v3.6.0, https://matplotlib.org/</dc:title>
     </cc:Agent>
    </dc:creator>
   </cc:Work>
  </rdf:RDF>
 </metadata>
 <defs>
  <style type="text/css">*{stroke-linejoin: round; stroke-linecap: butt}</style>
 </defs>
 <g id="figure_1">
  <g id="patch_1">
   <path d="M 0 252.123687 
L 370.942187 252.123687 
L 370.942187 0 
L 0 0 
L 0 252.123687 
z
" style="fill: none"/>
  </g>
  <g id="axes_1">
   <g id="patch_2">
    <path d="M 28.942188 228.245562 
L 363.742188 228.245562 
L 363.742188 10.805562 
L 28.942188 10.805562 
z
" style="fill: #ffffff"/>
   </g>
   <g id="matplotlib.axis_1">
    <g id="xtick_1">
     <g id="line2d_1">
      <defs>
       <path id="m429cfb35d5" d="M 0 0 
L 0 3.5 
" style="stroke: #000000; stroke-width: 0.8"/>
      </defs>
      <g>
       <use xlink:href="#m429cfb35d5" x="44.160369" y="228.245562" style="stroke: #000000; stroke-width: 0.8"/>
      </g>
     </g>
     <g id="text_1">
      <!-- 0.00 -->
      <g transform="translate(33.027557 242.843999) scale(0.1 -0.1)">
       <defs>
        <path id="DejaVuSans-30" d="M 2034 4250 
Q 1547 4250 1301 3770 
Q 1056 3291 1056 2328 
Q 1056 1369 1301 889 
Q 1547 409 2034 409 
Q 2525 409 2770 889 
Q 3016 1369 3016 2328 
Q 3016 3291 2770 3770 
Q 2525 4250 2034 4250 
z
M 2034 4750 
Q 2819 4750 3233 4129 
Q 3647 3509 3647 2328 
Q 3647 1150 3233 529 
Q 2819 -91 2034 -91 
Q 1250 -91 836 529 
Q 422 1150 422 2328 
Q 422 3509 836 4129 
Q 1250 4750 2034 4750 
z
" transform="scale(0.015625)"/>
        <path id="DejaVuSans-2e" d="M 684 794 
L 1344 794 
L 1344 0 
L 684 0 
L 684 794 
z
" transform="scale(0.015625)"/>
       </defs>
       <use xlink:href="#DejaVuSans-30"/>
       <use xlink:href="#DejaVuSans-2e" x="63.623047"/>
       <use xlink:href="#DejaVuSans-30" x="95.410156"/>
       <use xlink:href="#DejaVuSans-30" x="159.033203"/>
      </g>
     </g>
    </g>
    <g id="xtick_2">
     <g id="line2d_2">
      <g>
       <use xlink:href="#m429cfb35d5" x="82.224856" y="228.245562" style="stroke: #000000; stroke-width: 0.8"/>
      </g>
     </g>
     <g id="text_2">
      <!-- 0.25 -->
      <g transform="translate(71.092044 242.843999) scale(0.1 -0.1)">
       <defs>
        <path id="DejaVuSans-32" d="M 1228 531 
L 3431 531 
L 3431 0 
L 469 0 
L 469 531 
Q 828 903 1448 1529 
Q 2069 2156 2228 2338 
Q 2531 2678 2651 2914 
Q 2772 3150 2772 3378 
Q 2772 3750 2511 3984 
Q 2250 4219 1831 4219 
Q 1534 4219 1204 4116 
Q 875 4013 500 3803 
L 500 4441 
Q 881 4594 1212 4672 
Q 1544 4750 1819 4750 
Q 2544 4750 2975 4387 
Q 3406 4025 3406 3419 
Q 3406 3131 3298 2873 
Q 3191 2616 2906 2266 
Q 2828 2175 2409 1742 
Q 1991 1309 1228 531 
z
" transform="scale(0.015625)"/>
        <path id="DejaVuSans-35" d="M 691 4666 
L 3169 4666 
L 3169 4134 
L 1269 4134 
L 1269 2991 
Q 1406 3038 1543 3061 
Q 1681 3084 1819 3084 
Q 2600 3084 3056 2656 
Q 3513 2228 3513 1497 
Q 3513 744 3044 326 
Q 2575 -91 1722 -91 
Q 1428 -91 1123 -41 
Q 819 9 494 109 
L 494 744 
Q 775 591 1075 516 
Q 1375 441 1709 441 
Q 2250 441 2565 725 
Q 2881 1009 2881 1497 
Q 2881 1984 2565 2268 
Q 2250 2553 1709 2553 
Q 1456 2553 1204 2497 
Q 953 2441 691 2322 
L 691 4666 
z
" transform="scale(0.015625)"/>
       </defs>
       <use xlink:href="#DejaVuSans-30"/>
       <use xlink:href="#DejaVuSans-2e" x="63.623047"/>
       <use xlink:href="#DejaVuSans-32" x="95.410156"/>
       <use xlink:href="#DejaVuSans-35" x="159.033203"/>
      </g>
     </g>
    </g>
    <g id="xtick_3">
     <g id="line2d_3">
      <g>
       <use xlink:href="#m429cfb35d5" x="120.289343" y="228.245562" style="stroke: #000000; stroke-width: 0.8"/>
      </g>
     </g>
     <g id="text_3">
      <!-- 0.50 -->
      <g transform="translate(109.15653 242.843999) scale(0.1 -0.1)">
       <use xlink:href="#DejaVuSans-30"/>
       <use xlink:href="#DejaVuSans-2e" x="63.623047"/>
       <use xlink:href="#DejaVuSans-35" x="95.410156"/>
       <use xlink:href="#DejaVuSans-30" x="159.033203"/>
      </g>
     </g>
    </g>
    <g id="xtick_4">
     <g id="line2d_4">
      <g>
       <use xlink:href="#m429cfb35d5" x="158.35383" y="228.245562" style="stroke: #000000; stroke-width: 0.8"/>
      </g>
     </g>
     <g id="text_4">
      <!-- 0.75 -->
      <g transform="translate(147.221017 242.843999) scale(0.1 -0.1)">
       <defs>
        <path id="DejaVuSans-37" d="M 525 4666 
L 3525 4666 
L 3525 4397 
L 1831 0 
L 1172 0 
L 2766 4134 
L 525 4134 
L 525 4666 
z
" transform="scale(0.015625)"/>
       </defs>
       <use xlink:href="#DejaVuSans-30"/>
       <use xlink:href="#DejaVuSans-2e" x="63.623047"/>
       <use xlink:href="#DejaVuSans-37" x="95.410156"/>
       <use xlink:href="#DejaVuSans-35" x="159.033203"/>
      </g>
     </g>
    </g>
    <g id="xtick_5">
     <g id="line2d_5">
      <g>
       <use xlink:href="#m429cfb35d5" x="196.418316" y="228.245562" style="stroke: #000000; stroke-width: 0.8"/>
      </g>
     </g>
     <g id="text_5">
      <!-- 1.00 -->
      <g transform="translate(185.285504 242.843999) scale(0.1 -0.1)">
       <defs>
        <path id="DejaVuSans-31" d="M 794 531 
L 1825 531 
L 1825 4091 
L 703 3866 
L 703 4441 
L 1819 4666 
L 2450 4666 
L 2450 531 
L 3481 531 
L 3481 0 
L 794 0 
L 794 531 
z
" transform="scale(0.015625)"/>
       </defs>
       <use xlink:href="#DejaVuSans-31"/>
       <use xlink:href="#DejaVuSans-2e" x="63.623047"/>
       <use xlink:href="#DejaVuSans-30" x="95.410156"/>
       <use xlink:href="#DejaVuSans-30" x="159.033203"/>
      </g>
     </g>
    </g>
    <g id="xtick_6">
     <g id="line2d_6">
      <g>
       <use xlink:href="#m429cfb35d5" x="234.482803" y="228.245562" style="stroke: #000000; stroke-width: 0.8"/>
      </g>
     </g>
     <g id="text_6">
      <!-- 1.25 -->
      <g transform="translate(223.349991 242.843999) scale(0.1 -0.1)">
       <use xlink:href="#DejaVuSans-31"/>
       <use xlink:href="#DejaVuSans-2e" x="63.623047"/>
       <use xlink:href="#DejaVuSans-32" x="95.410156"/>
       <use xlink:href="#DejaVuSans-35" x="159.033203"/>
      </g>
     </g>
    </g>
    <g id="xtick_7">
     <g id="line2d_7">
      <g>
       <use xlink:href="#m429cfb35d5" x="272.54729" y="228.245562" style="stroke: #000000; stroke-width: 0.8"/>
      </g>
     </g>
     <g id="text_7">
      <!-- 1.50 -->
      <g transform="translate(261.414478 242.843999) scale(0.1 -0.1)">
       <use xlink:href="#DejaVuSans-31"/>
       <use xlink:href="#DejaVuSans-2e" x="63.623047"/>
       <use xlink:href="#DejaVuSans-35" x="95.410156"/>
       <use xlink:href="#DejaVuSans-30" x="159.033203"/>
      </g>
     </g>
    </g>
    <g id="xtick_8">
     <g id="line2d_8">
      <g>
       <use xlink:href="#m429cfb35d5" x="310.611777" y="228.245562" style="stroke: #000000; stroke-width: 0.8"/>
      </g>
     </g>
     <g id="text_8">
      <!-- 1.75 -->
      <g transform="translate(299.478964 242.843999) scale(0.1 -0.1)">
       <use xlink:href="#DejaVuSans-31"/>
       <use xlink:href="#DejaVuSans-2e" x="63.623047"/>
       <use xlink:href="#DejaVuSans-37" x="95.410156"/>
       <use xlink:href="#DejaVuSans-35" x="159.033203"/>
      </g>
     </g>
    </g>
    <g id="xtick_9">
     <g id="line2d_9">
      <g>
       <use xlink:href="#m429cfb35d5" x="348.676264" y="228.245562" style="stroke: #000000; stroke-width: 0.8"/>
      </g>
     </g>
     <g id="text_9">
      <!-- 2.00 -->
      <g transform="translate(337.543451 242.843999) scale(0.1 -0.1)">
       <use xlink:href="#DejaVuSans-32"/>
       <use xlink:href="#DejaVuSans-2e" x="63.623047"/>
       <use xlink:href="#DejaVuSans-30" x="95.410156"/>
       <use xlink:href="#DejaVuSans-30" x="159.033203"/>
      </g>
     </g>
    </g>
   </g>
   <g id="matplotlib.axis_2">
    <g id="ytick_1">
     <g id="line2d_10">
      <defs>
       <path id="md9a43d2b70" d="M 0 0 
L -3.5 0 
" style="stroke: #000000; stroke-width: 0.8"/>
      </defs>
      <g>
       <use xlink:href="#md9a43d2b70" x="28.942188" y="225.687521" style="stroke: #000000; stroke-width: 0.8"/>
      </g>
     </g>
     <g id="text_10">
      <!-- −3 -->
      <g transform="translate(7.2 229.486739) scale(0.1 -0.1)">
       <defs>
        <path id="DejaVuSans-2212" d="M 678 2272 
L 4684 2272 
L 4684 1741 
L 678 1741 
L 678 2272 
z
" transform="scale(0.015625)"/>
        <path id="DejaVuSans-33" d="M 2597 2516 
Q 3050 2419 3304 2112 
Q 3559 1806 3559 1356 
Q 3559 666 3084 287 
Q 2609 -91 1734 -91 
Q 1441 -91 1130 -33 
Q 819 25 488 141 
L 488 750 
Q 750 597 1062 519 
Q 1375 441 1716 441 
Q 2309 441 2620 675 
Q 2931 909 2931 1356 
Q 2931 1769 2642 2001 
Q 2353 2234 1838 2234 
L 1294 2234 
L 1294 2753 
L 1863 2753 
Q 2328 2753 2575 2939 
Q 2822 3125 2822 3475 
Q 2822 3834 2567 4026 
Q 2313 4219 1838 4219 
Q 1578 4219 1281 4162 
Q 984 4106 628 3988 
L 628 4550 
Q 988 4650 1302 4700 
Q 1616 4750 1894 4750 
Q 2613 4750 3031 4423 
Q 3450 4097 3450 3541 
Q 3450 3153 3228 2886 
Q 3006 2619 2597 2516 
z
" transform="scale(0.015625)"/>
       </defs>
       <use xlink:href="#DejaVuSans-2212"/>
       <use xlink:href="#DejaVuSans-33" x="83.789062"/>
      </g>
     </g>
    </g>
    <g id="ytick_2">
     <g id="line2d_11">
      <g>
       <use xlink:href="#md9a43d2b70" x="28.942188" y="189.906137" style="stroke: #000000; stroke-width: 0.8"/>
      </g>
     </g>
     <g id="text_11">
      <!-- −2 -->
      <g transform="translate(7.2 193.705356) scale(0.1 -0.1)">
       <use xlink:href="#DejaVuSans-2212"/>
       <use xlink:href="#DejaVuSans-32" x="83.789062"/>
      </g>
     </g>
    </g>
    <g id="ytick_3">
     <g id="line2d_12">
      <g>
       <use xlink:href="#md9a43d2b70" x="28.942188" y="154.124753" style="stroke: #000000; stroke-width: 0.8"/>
      </g>
     </g>
     <g id="text_12">
      <!-- −1 -->
      <g transform="translate(7.2 157.923972) scale(0.1 -0.1)">
       <use xlink:href="#DejaVuSans-2212"/>
       <use xlink:href="#DejaVuSans-31" x="83.789062"/>
      </g>
     </g>
    </g>
    <g id="ytick_4">
     <g id="line2d_13">
      <g>
       <use xlink:href="#md9a43d2b70" x="28.942188" y="118.34337" style="stroke: #000000; stroke-width: 0.8"/>
      </g>
     </g>
     <g id="text_13">
      <!-- 0 -->
      <g transform="translate(15.579688 122.142588) scale(0.1 -0.1)">
       <use xlink:href="#DejaVuSans-30"/>
      </g>
     </g>
    </g>
    <g id="ytick_5">
     <g id="line2d_14">
      <g>
       <use xlink:href="#md9a43d2b70" x="28.942188" y="82.561986" style="stroke: #000000; stroke-width: 0.8"/>
      </g>
     </g>
     <g id="text_14">
      <!-- 1 -->
      <g transform="translate(15.579688 86.361205) scale(0.1 -0.1)">
       <use xlink:href="#DejaVuSans-31"/>
      </g>
     </g>
    </g>
    <g id="ytick_6">
     <g id="line2d_15">
      <g>
       <use xlink:href="#md9a43d2b70" x="28.942188" y="46.780602" style="stroke: #000000; stroke-width: 0.8"/>
      </g>
     </g>
     <g id="text_15">
      <!-- 2 -->
      <g transform="translate(15.579688 50.579821) scale(0.1 -0.1)">
       <use xlink:href="#DejaVuSans-32"/>
      </g>
     </g>
    </g>
    <g id="ytick_7">
     <g id="line2d_16">
      <g>
       <use xlink:href="#md9a43d2b70" x="28.942188" y="10.999219" style="stroke: #000000; stroke-width: 0.8"/>
      </g>
     </g>
     <g id="text_16">
      <!-- 3 -->
      <g transform="translate(15.579688 14.798437) scale(0.1 -0.1)">
       <use xlink:href="#DejaVuSans-33"/>
      </g>
     </g>
    </g>
   </g>
   <g id="line2d_17">
    <path d="M 44.160369 114.793012 
L 45.378433 87.505928 
L 45.530691 77.099729 
L 45.682949 121.727466 
L 46.748754 87.269793 
L 46.901012 74.192209 
L 47.05327 118.365816 
L 47.966818 87.265884 
L 48.119076 82.761535 
L 48.271334 73.61664 
L 48.423592 118.34337 
L 49.489397 73.61664 
L 49.641655 118.34337 
L 50.707461 73.61664 
L 50.859719 118.34337 
L 51.773267 73.61664 
L 51.925525 118.34337 
L 52.839072 73.61664 
L 52.99133 118.34337 
L 53.904878 73.61664 
L 54.057136 118.34337 
L 54.818426 87.776076 
L 54.970684 82.634185 
L 55.122942 73.61664 
L 55.275199 118.34337 
L 56.036489 89.066153 
L 56.188747 84.192232 
L 56.341005 73.61664 
L 56.493263 118.34337 
L 57.254553 90.927229 
L 57.406811 86.414045 
L 57.559069 73.61664 
L 57.711327 118.34337 
L 58.472616 93.28947 
L 58.777132 85.422132 
L 58.92939 73.61664 
L 59.081648 118.369189 
L 59.69068 101.09484 
L 60.299712 89.50754 
L 60.45197 87.383388 
L 60.604228 77.769131 
L 60.756486 123.241283 
L 61.365517 112.107428 
L 61.822291 106.924683 
L 62.279065 104.043392 
L 62.583581 103.239474 
L 62.735839 103.139507 
L 62.888097 103.227185 
L 63.040355 94.80734 
L 63.192613 140.880487 
L 63.649387 137.834838 
L 63.953902 136.915186 
L 64.10616 136.75288 
L 64.258418 136.774187 
L 64.562934 137.326134 
L 64.715192 145.523926 
L 64.86745 99.929213 
L 66.542288 130.968376 
L 66.694545 142.311625 
L 66.846803 97.888249 
L 68.064867 133.571408 
L 68.217125 137.601957 
L 68.369383 147.9998 
L 68.521641 103.972014 
L 69.587446 141.018156 
L 69.739704 145.637412 
L 69.891962 155.488436 
L 70.04422 111.532336 
L 70.957768 145.845167 
L 71.110026 150.78698 
L 71.262284 162.168202 
L 71.414542 118.127671 
L 72.175832 144.638836 
L 72.480347 153.484972 
L 72.632605 163.070099 
L 72.784863 118.34337 
L 73.698411 149.425395 
L 73.850669 153.723512 
L 74.002927 163.070099 
L 74.155185 118.34337 
L 74.916475 144.547973 
L 75.220991 153.171749 
L 75.373248 163.070099 
L 75.525506 118.34337 
L 76.286796 143.677528 
L 76.591312 151.935628 
L 76.74357 163.070099 
L 76.895828 118.34337 
L 77.657118 142.382183 
L 78.113892 153.688223 
L 78.266149 163.037113 
L 78.418407 118.238237 
L 79.179697 139.578192 
L 79.788729 151.673156 
L 79.940987 160.376024 
L 80.093245 115.230401 
L 80.854535 132.810169 
L 81.463566 142.446483 
L 81.615824 144.33931 
L 81.768082 153.957336 
L 81.92034 108.584221 
L 82.529372 120.359884 
L 83.138404 128.645886 
L 83.747436 134.134484 
L 83.899694 144.044467 
L 84.051951 98.565844 
L 84.660983 107.851396 
L 85.270015 114.3112 
L 85.879047 118.54595 
L 86.335821 120.562823 
L 86.640337 121.455312 
L 86.792595 129.997431 
L 86.944852 84.578541 
L 87.249368 88.55011 
L 87.401626 81.378543 
L 87.553884 128.389014 
L 88.162916 126.915162 
L 89.228722 123.595984 
L 90.751301 118.394904 
L 91.055817 118.34337 
L 92.273881 114.361474 
L 93.339686 111.528426 
L 93.79646 110.50461 
L 93.948718 101.420584 
L 94.100976 146.960905 
L 95.014524 135.540874 
L 95.928071 127.064251 
L 96.080329 134.574413 
L 96.232587 88.33676 
L 96.841619 91.086925 
L 96.993877 83.478447 
L 97.146135 129.886293 
L 98.059683 122.638215 
L 98.97323 117.081139 
L 99.73452 113.339695 
L 99.886778 103.933885 
L 100.039036 149.234565 
L 100.952584 135.760242 
L 101.866131 125.258458 
L 102.170647 122.25343 
L 102.322905 129.674983 
L 102.475163 83.430507 
L 102.627421 75.537044 
L 102.779679 122.075422 
L 103.845485 112.389562 
L 104.91129 104.388609 
L 105.063548 94.463428 
L 105.215806 139.821532 
L 106.129354 124.119895 
L 107.195159 109.70925 
L 107.347417 99.875841 
L 107.499675 144.72471 
L 108.413223 125.237363 
L 109.326771 110.031517 
L 109.479029 100.053637 
L 109.631287 144.702184 
L 110.544834 123.360722 
L 111.306124 109.533079 
L 111.458382 98.666191 
L 111.61064 143.272618 
L 112.524188 121.379858 
L 113.285477 107.554553 
L 113.437735 97.312679 
L 113.589993 141.967051 
L 114.351283 123.625258 
L 115.112573 109.705528 
L 115.264831 107.373118 
L 115.417089 96.951252 
L 115.569347 141.70942 
L 116.330636 124.431084 
L 117.091926 111.695915 
L 117.396442 107.664749 
L 117.5487 98.286721 
L 117.700958 143.184813 
L 118.462248 127.656116 
L 119.223537 116.591427 
L 119.680311 111.701323 
L 119.832569 101.897227 
L 119.984827 146.939531 
L 120.746117 133.644786 
L 121.507406 124.498429 
L 122.116438 119.545033 
L 122.420954 117.720381 
L 122.573212 108.693709 
L 122.72547 153.852637 
L 122.877728 160.161231 
L 123.029986 112.696394 
L 123.48676 111.94783 
L 123.791276 111.747766 
L 124.095792 111.755762 
L 124.400307 111.947421 
L 124.857081 112.530381 
L 125.466113 113.753518 
L 126.075145 115.35553 
L 126.227403 107.072311 
L 126.379661 152.852295 
L 126.531919 151.493902 
L 126.684177 158.452785 
L 126.836435 111.614073 
L 128.511272 119.854985 
L 129.577078 124.222837 
L 129.729336 133.136762 
L 129.881594 87.776804 
L 130.795141 100.562304 
L 131.556431 108.635186 
L 131.708689 101.242951 
L 131.860947 147.590057 
L 132.469979 145.37392 
L 132.622237 153.432634 
L 132.774495 107.043689 
L 133.535784 113.183758 
L 134.297074 117.57711 
L 134.906106 120.052336 
L 135.515138 121.756282 
L 135.667396 130.922895 
L 135.819654 85.477388 
L 136.428685 93.090763 
L 136.580943 86.096461 
L 136.733201 132.92371 
L 139.169328 126.044108 
L 139.321586 133.867685 
L 139.473844 88.014483 
L 140.235134 94.416843 
L 140.387392 86.892291 
L 140.53965 133.438669 
L 141.453198 128.442595 
L 142.366745 124.605671 
L 143.128035 122.216974 
L 143.280293 121.823419 
L 143.432551 129.897194 
L 143.584809 84.177341 
L 143.737067 85.71254 
L 143.889325 78.445828 
L 144.041583 125.416521 
L 144.650614 123.689441 
L 145.259646 122.551301 
L 145.71642 122.057279 
L 146.173194 121.852601 
L 146.629968 121.921391 
L 146.934484 122.111604 
L 147.086742 130.906929 
L 147.239 85.407672 
L 147.848031 93.185578 
L 148.000289 86.262165 
L 148.152547 133.205595 
L 148.609321 132.960324 
L 148.913837 133.010556 
L 149.370611 133.373786 
L 149.827385 134.045874 
L 149.979643 134.331784 
L 150.131901 142.488228 
L 150.284158 96.808895 
L 151.349964 111.374456 
L 152.568028 124.849622 
L 152.720286 133.664706 
L 152.872544 88.777598 
L 153.786091 107.151719 
L 154.699639 121.673191 
L 154.851897 123.780674 
L 155.004155 133.360045 
L 155.156413 88.719783 
L 156.06996 109.261191 
L 156.983508 124.814995 
L 157.135766 134.876744 
L 157.288024 90.25657 
L 158.201572 111.02762 
L 158.962861 123.929575 
L 159.115119 126.103183 
L 159.267377 135.847385 
L 159.419635 91.132604 
L 160.180925 107.971615 
L 160.942215 120.44377 
L 161.246731 124.405485 
L 161.398989 135.090632 
L 161.551247 90.229398 
L 162.312536 105.362317 
L 163.073826 116.159781 
L 163.682858 122.284485 
L 163.835116 131.663315 
L 163.987374 86.638495 
L 164.748663 99.404752 
L 165.509953 108.198985 
L 165.662211 109.564517 
L 165.814469 101.953428 
L 165.966727 148.205488 
L 166.575759 145.061569 
L 166.728017 152.892558 
L 166.880275 106.360524 
L 167.489307 110.006528 
L 168.098338 112.390808 
L 168.70737 113.813234 
L 169.164144 114.404872 
L 169.620918 114.695784 
L 169.773176 105.958035 
L 169.925434 151.549889 
L 170.382208 146.277867 
L 170.534465 153.211253 
L 170.686723 106.306244 
L 171.448013 107.958588 
L 173.122851 110.963789 
L 173.275109 102.392237 
L 173.427366 148.225241 
L 174.188656 141.820134 
L 174.340914 149.771989 
L 174.493172 103.27038 
L 176.777041 119.553994 
L 177.081557 121.965746 
L 177.233815 131.641139 
L 177.386073 86.676027 
L 178.756395 112.978433 
L 179.365426 123.469637 
L 179.517684 132.950281 
L 179.669942 88.619067 
L 180.888006 121.391764 
L 181.192522 128.632569 
L 181.34478 139.433262 
L 181.497038 95.387162 
L 182.562843 129.679161 
L 182.715101 134.016819 
L 182.867359 146.847652 
L 183.019617 102.917633 
L 184.237681 154.151046 
L 184.389939 110.239764 
L 185.303486 144.829397 
L 185.455744 149.850237 
L 185.608002 161.316135 
L 185.76026 117.347858 
L 186.369292 140.072384 
L 186.826066 153.896524 
L 186.978324 163.070099 
L 187.130582 118.34337 
L 188.196387 163.070099 
L 188.348645 118.34337 
L 189.414451 163.070099 
L 189.566709 118.34337 
L 190.327999 145.206052 
L 190.632514 154.01488 
L 190.784772 163.070099 
L 190.93703 118.34337 
L 191.69832 144.056446 
L 192.002836 152.370829 
L 192.155094 163.070099 
L 192.307352 118.34337 
L 193.068642 142.239219 
L 193.525415 153.11084 
L 193.677673 162.738885 
L 193.829931 117.791502 
L 194.438963 133.883108 
L 195.047995 144.922593 
L 195.200253 146.988753 
L 195.352511 157.587195 
L 195.504769 112.11952 
L 196.113801 123.238571 
L 196.570574 128.593439 
L 197.027348 131.750113 
L 197.331864 132.774183 
L 197.63638 133.022977 
L 197.788638 141.414594 
L 197.940896 95.417669 
L 198.39767 98.848658 
L 198.702186 100.007118 
L 199.006702 100.364866 
L 199.15896 100.268759 
L 199.311217 100.002038 
L 199.463475 91.641197 
L 199.615733 137.267111 
L 201.290571 106.491224 
L 201.442829 94.876062 
L 201.595087 139.263414 
L 203.117666 88.495004 
L 203.269924 132.429846 
L 204.487988 80.805719 
L 204.640246 124.636523 
L 205.553793 88.553503 
L 205.706051 83.306391 
L 205.858309 73.61664 
L 206.010567 118.34337 
L 207.076373 73.61664 
L 207.228631 118.34337 
L 208.294436 73.61664 
L 208.446694 118.34337 
L 209.207984 90.80337 
L 209.360242 86.149137 
L 209.5125 73.61664 
L 209.664758 118.34337 
L 210.426048 91.736108 
L 210.730564 83.113829 
L 210.882821 73.61664 
L 211.035079 118.34337 
L 211.796369 93.530954 
L 212.100885 85.627583 
L 212.253143 73.61664 
L 212.405401 118.34337 
L 213.014433 100.460698 
L 213.623465 88.004086 
L 213.775722 85.636129 
L 213.92798 76.762269 
L 214.080238 122.106484 
L 214.68927 109.710543 
L 215.298302 102.121507 
L 215.755076 99.101805 
L 215.907334 98.545277 
L 216.059592 89.427965 
L 216.21185 135.345848 
L 216.668623 130.679825 
L 217.125397 128.251125 
L 217.429913 127.71831 
L 217.582171 127.745647 
L 217.886687 128.338318 
L 218.191203 129.586647 
L 218.343461 138.737097 
L 218.495719 93.462385 
L 220.170556 127.740628 
L 220.322814 139.102372 
L 220.475072 94.919751 
L 221.693136 133.304569 
L 221.845394 146.427657 
L 221.997652 102.603659 
L 223.215715 155.0321 
L 223.367973 111.293455 
L 224.586037 163.070099 
L 224.738295 118.34337 
L 225.8041 163.070099 
L 225.956358 118.34337 
L 227.022164 163.070099 
L 227.174422 118.34337 
L 228.240227 163.070099 
L 228.392485 118.34337 
L 229.153775 145.988276 
L 229.306033 150.631974 
L 229.458291 163.070099 
L 229.610549 118.34337 
L 230.371839 144.738119 
L 230.676355 153.245638 
L 230.828613 163.070099 
L 230.98087 118.34337 
L 231.74216 142.73178 
L 232.198934 153.952169 
L 232.351192 162.968026 
L 232.50345 118.098887 
L 233.112482 134.77965 
L 233.721514 146.305424 
L 233.873771 148.485664 
L 234.026029 158.484264 
L 234.178287 113.068627 
L 234.787319 124.803862 
L 235.396351 132.10152 
L 235.853125 135.146536 
L 236.157641 136.184447 
L 236.309899 144.597027 
L 236.462157 98.728317 
L 236.91893 103.459026 
L 237.375704 106.218682 
L 237.68022 107.115581 
L 237.984736 107.354023 
L 238.136994 107.249943 
L 238.289252 107.008842 
L 238.44151 97.7178 
L 238.593768 143.261978 
L 240.573121 111.040498 
L 240.725379 101.058627 
L 240.877637 145.523406 
L 241.943443 117.429441 
L 242.400217 107.013845 
L 242.552474 96.125951 
L 242.704732 140.33668 
L 243.61828 112.768943 
L 244.075054 101.31906 
L 244.227312 90.483475 
L 244.37957 134.7378 
L 245.293118 106.916672 
L 245.749891 95.884483 
L 245.902149 86.193785 
L 246.054407 130.651294 
L 246.815697 108.315733 
L 247.424729 94.774756 
L 247.576987 84.637307 
L 247.729245 129.386598 
L 248.490534 109.821823 
L 249.251824 96.422931 
L 249.404082 86.857927 
L 249.55634 131.963968 
L 250.165372 119.122954 
L 250.774404 110.269904 
L 251.383435 104.804905 
L 251.535693 103.9069 
L 251.687951 95.589809 
L 251.840209 141.119187 
L 252.449241 133.268839 
L 252.906015 129.705102 
L 253.362789 127.853108 
L 253.667305 127.459328 
L 253.819563 127.492059 
L 253.97182 135.946156 
L 254.124078 90.405248 
L 255.951174 119.969009 
L 256.103432 122.561562 
L 256.25569 133.436602 
L 256.407948 89.110215 
L 257.778269 127.197517 
L 257.930527 131.05604 
L 258.082785 140.928986 
L 258.235043 97.024074 
L 259.300849 133.864125 
L 259.453107 138.543686 
L 259.605365 149.793214 
L 259.757622 105.998512 
L 260.975686 158.115687 
L 261.127944 114.283808 
L 261.889234 144.882116 
L 262.19375 153.911656 
L 262.346008 163.070099 
L 262.498266 118.34337 
L 263.564071 163.070099 
L 263.716329 118.34337 
L 264.782135 163.070099 
L 264.934393 118.34337 
L 265.695682 145.492769 
L 265.84794 150.071314 
L 266.000198 163.070099 
L 266.152456 118.34337 
L 266.913746 144.467396 
L 267.218262 152.916702 
L 267.37052 163.070099 
L 267.522778 118.34337 
L 268.284068 142.608531 
L 268.740841 153.75133 
L 268.893099 162.917599 
L 269.045357 118.02237 
L 269.654389 134.439638 
L 270.263421 145.582804 
L 270.415679 147.640211 
L 270.567937 157.970686 
L 270.720195 112.481191 
L 271.329226 123.353904 
L 271.786 128.36591 
L 272.242774 131.04008 
L 272.54729 131.662594 
L 272.699548 131.654076 
L 272.851806 131.444068 
L 273.004064 131.040906 
L 273.156322 139.167124 
L 273.30858 92.995217 
L 273.613096 94.538182 
L 273.917612 95.107988 
L 274.06987 95.055139 
L 274.222127 94.790733 
L 274.374385 85.90419 
L 274.526643 131.646843 
L 275.592449 110.896199 
L 276.049223 101.03797 
L 276.201481 89.130693 
L 276.353739 133.404882 
L 277.72406 81.266647 
L 277.876318 124.871802 
L 278.942124 73.61664 
L 279.094382 118.34337 
L 280.007929 73.61664 
L 280.160187 118.34337 
L 281.073735 73.61664 
L 281.225993 118.34337 
L 281.987283 73.61664 
L 282.139541 118.34337 
L 282.90083 73.61664 
L 283.053088 118.34337 
L 283.814378 73.61664 
L 283.966636 118.34337 
L 284.727926 73.61664 
L 284.880184 118.34337 
L 285.641474 73.61664 
L 285.793731 118.34337 
L 286.555021 73.61664 
L 286.707279 118.34337 
L 287.468569 73.61664 
L 287.620827 118.34337 
L 288.382117 73.61664 
L 288.534375 118.34337 
L 289.295664 73.61664 
L 289.447922 118.34337 
L 290.209212 73.61664 
L 290.36147 118.34337 
L 291.275018 73.61664 
L 291.427275 118.34337 
L 292.340823 73.61664 
L 292.493081 118.34337 
L 293.254371 88.319002 
L 293.406629 83.476618 
L 293.558887 73.61664 
L 293.711145 118.34337 
L 294.472434 92.099801 
L 294.77695 84.080564 
L 294.929208 73.61664 
L 295.081466 118.34337 
L 295.690498 101.346134 
L 296.29953 90.932735 
L 296.451788 89.213195 
L 296.604046 78.897393 
L 296.756304 124.608213 
L 297.213077 117.578906 
L 297.669851 113.532498 
L 297.974367 112.269426 
L 298.126625 112.022835 
L 298.278883 112.014149 
L 298.431141 112.230047 
L 298.735657 113.284997 
L 299.192431 116.248623 
L 299.649205 120.611381 
L 299.801463 131.092958 
L 299.953721 86.422878 
L 301.4763 124.646955 
L 301.628558 136.942009 
L 301.780816 93.078341 
L 303.151137 146.800471 
L 303.303395 103.149495 
L 304.521459 156.443448 
L 304.673717 112.749161 
L 305.739523 163.070099 
L 305.89178 118.34337 
L 306.957586 163.070099 
L 307.109844 118.34337 
L 308.17565 163.070099 
L 308.327908 118.34337 
L 309.089197 145.027861 
L 309.393713 153.698044 
L 309.545971 163.070099 
L 309.698229 118.34337 
L 310.459519 143.349249 
L 310.764035 151.330659 
L 310.916293 163.070099 
L 311.068551 118.34337 
L 311.82984 140.332552 
L 312.438872 151.946334 
L 312.59113 160.412847 
L 312.743388 115.111538 
L 313.35242 127.926908 
L 313.961452 135.88629 
L 314.418226 139.158261 
L 314.570483 139.794985 
L 314.722741 148.261177 
L 314.874999 102.375024 
L 315.331773 107.375966 
L 315.788547 110.117319 
L 316.093063 110.849752 
L 316.245321 110.920342 
L 316.397579 110.807499 
L 316.702095 110.070171 
L 317.006611 108.711545 
L 317.158869 99.535803 
L 317.311127 144.753325 
L 318.985964 110.631691 
L 319.138222 98.870836 
L 319.29048 143.067207 
L 320.508543 105.676731 
L 320.660801 101.447735 
L 320.813059 91.048803 
L 320.965317 134.916898 
L 322.183381 83.069148 
L 322.335639 126.906482 
L 323.249186 91.766129 
L 323.401444 86.697957 
L 323.553702 75.437884 
L 323.70596 119.390885 
L 324.314992 96.655365 
L 324.771766 82.963846 
L 324.924024 73.61664 
L 325.076282 118.34337 
L 325.98983 87.174661 
L 326.142087 82.881202 
L 326.294345 73.61664 
L 326.446603 118.34337 
L 327.207893 92.302093 
L 327.512409 83.789902 
L 327.664667 73.61664 
L 327.816925 118.34337 
L 328.578215 93.571396 
L 328.88273 85.580824 
L 329.034988 73.61664 
L 329.187246 118.34337 
L 329.948536 95.668638 
L 330.40531 85.748063 
L 330.557568 74.89035 
L 330.709826 119.972724 
L 331.318858 104.887886 
L 331.927889 94.370178 
L 332.232405 90.567756 
L 332.384663 81.482691 
L 332.536921 126.954999 
L 333.145953 115.984283 
L 333.754985 108.864608 
L 334.211759 105.594267 
L 334.668532 103.788667 
L 334.82079 95.655856 
L 334.973048 141.372749 
L 335.58208 134.650125 
L 336.038854 131.450158 
L 336.495628 129.515544 
L 336.800144 128.805991 
L 336.952402 137.368855 
L 337.10466 91.564929 
L 338.627239 108.605924 
L 339.693045 118.506168 
L 339.845303 127.58613 
L 339.997561 82.701586 
L 340.149819 76.809331 
L 340.302077 124.571522 
L 341.063366 128.845698 
L 341.672398 131.266512 
L 342.129172 132.456524 
L 342.433688 132.939993 
L 342.585946 141.517692 
L 342.738204 95.718455 
L 343.347235 102.35001 
L 343.956267 106.646498 
L 344.413041 108.480598 
L 344.717557 109.092694 
L 344.869815 100.807119 
L 345.022073 146.516723 
L 347.001426 119.714682 
L 347.305942 115.251737 
L 347.4582 105.803901 
L 347.610458 150.200691 
L 348.524006 125.473611 
L 348.524006 125.473611 
" clip-path="url(#p89c20054fb)" style="fill: none; stroke: #1f77b4; stroke-width: 1.5; stroke-linecap: square"/>
   </g>
   <g id="line2d_18">
    <path d="M 44.160369 104.802613 
L 47.05327 94.815149 
L 48.423592 90.845584 
L 49.489397 88.351574 
L 50.402945 86.718557 
L 51.164235 85.755961 
L 51.773267 85.264435 
L 52.382298 85.030542 
L 52.99133 85.060322 
L 53.600362 85.356712 
L 54.209394 85.91953 
L 54.970684 86.992423 
L 55.731973 88.463174 
L 56.645521 90.724332 
L 57.711327 93.98521 
L 59.081648 99.011695 
L 60.756486 106.084433 
L 66.237772 130.054955 
L 67.608093 134.800573 
L 68.826157 138.241438 
L 69.891962 140.578513 
L 70.80551 142.053758 
L 71.5668 142.905014 
L 72.32809 143.415383 
L 72.937121 143.584012 
L 73.546153 143.547149 
L 74.155185 143.313999 
L 74.916475 142.763662 
L 75.830022 141.757656 
L 76.895828 140.172041 
L 78.113892 137.926857 
L 79.788729 134.338391 
L 84.356467 124.280978 
L 85.879047 121.565972 
L 87.249368 119.575547 
L 88.467432 118.188756 
L 89.685496 117.151624 
L 90.903559 116.430686 
L 92.121623 115.974041 
L 93.491944 115.694888 
L 95.623555 115.517836 
L 98.059683 115.27304 
L 99.582262 114.909318 
L 101.104842 114.309346 
L 102.627421 113.463262 
L 104.454516 112.176385 
L 109.783545 108.215169 
L 111.153866 107.591047 
L 112.219672 107.322773 
L 113.285477 107.27231 
L 114.351283 107.454857 
L 115.417089 107.875003 
L 116.482894 108.526278 
L 117.700958 109.530825 
L 119.223537 111.112975 
L 121.202891 113.530509 
L 125.009339 118.237018 
L 126.531919 119.743276 
L 127.749982 120.676027 
L 128.968046 121.329054 
L 130.033852 121.658742 
L 131.099657 121.764904 
L 132.165463 121.661427 
L 133.383526 121.318544 
L 134.906106 120.63076 
L 137.799007 118.981767 
L 139.626102 118.07842 
L 140.996424 117.641283 
L 142.214487 117.49428 
L 143.280293 117.581064 
L 144.346099 117.880547 
L 145.564162 118.480817 
L 146.782226 119.334781 
L 148.304805 120.693942 
L 150.588674 123.084326 
L 153.177059 125.714128 
L 154.547381 126.814195 
L 155.765445 127.512603 
L 156.83125 127.863085 
L 157.744798 127.950507 
L 158.658346 127.833661 
L 159.571893 127.513386 
L 160.637699 126.894891 
L 161.855762 125.900401 
L 163.378342 124.321896 
L 168.555112 118.613795 
L 169.620918 117.89779 
L 170.534465 117.53236 
L 171.295755 117.428615 
L 172.057045 117.523727 
L 172.818335 117.828618 
L 173.579624 118.349616 
L 174.493172 119.261732 
L 175.40672 120.479599 
L 176.472525 122.262317 
L 177.842847 125.052069 
L 179.517684 129.020681 
L 183.933165 139.773382 
L 185.151228 142.058737 
L 186.217034 143.577984 
L 186.978324 144.336023 
L 187.739613 144.790031 
L 188.348645 144.919177 
L 188.957677 144.830501 
L 189.566709 144.517568 
L 190.175741 143.976508 
L 190.93703 142.97779 
L 191.69832 141.624545 
L 192.611868 139.547677 
L 193.677673 136.539987 
L 194.895737 132.420545 
L 196.418316 126.460054 
L 199.006702 115.21909 
L 201.442829 104.927153 
L 202.965408 99.420967 
L 204.183472 95.839669 
L 205.097019 93.740254 
L 206.010567 92.203579 
L 206.771857 91.381924 
L 207.380889 91.036532 
L 207.98992 90.973507 
L 208.598952 91.194323 
L 209.207984 91.697394 
L 209.817016 92.478083 
L 210.578306 93.832428 
L 211.491853 95.983724 
L 212.557659 99.15493 
L 213.775722 103.526615 
L 215.298302 109.843029 
L 218.343461 123.722333 
L 220.475072 132.881274 
L 221.845394 137.90811 
L 223.063457 141.565922 
L 223.977005 143.720801 
L 224.890553 145.322644 
L 225.651842 146.213754 
L 226.260874 146.629067 
L 226.869906 146.778062 
L 227.478938 146.662095 
L 228.087969 146.285328 
L 228.697001 145.654656 
L 229.458291 144.524013 
L 230.371839 142.697727 
L 231.437644 139.986748 
L 232.655708 136.247316 
L 234.330545 130.300084 
L 239.507316 111.216252 
L 240.877637 107.282771 
L 241.943443 104.83651 
L 242.85699 103.228782 
L 243.61828 102.260374 
L 244.37957 101.644194 
L 244.988602 101.410236 
L 245.597633 101.408059 
L 246.206665 101.636626 
L 246.815697 102.092585 
L 247.576987 102.973559 
L 248.490534 104.465487 
L 249.404082 106.396714 
L 250.622146 109.57412 
L 251.992467 113.817887 
L 253.97182 120.76079 
L 257.778269 134.262692 
L 259.300849 138.751545 
L 260.518912 141.642655 
L 261.43246 143.314463 
L 262.19375 144.344135 
L 262.955039 145.019226 
L 263.564071 145.291795 
L 264.173103 145.318851 
L 264.782135 145.095372 
L 265.391167 144.618381 
L 266.152456 143.664463 
L 266.913746 142.316017 
L 267.827294 140.188667 
L 268.893099 137.035266 
L 270.111163 132.614328 
L 271.481484 126.732533 
L 273.156322 118.520981 
L 275.896965 103.770488 
L 278.789866 88.584258 
L 280.464703 81.010546 
L 281.682767 76.415436 
L 282.748573 73.168527 
L 283.66212 71.031985 
L 284.42341 69.74244 
L 285.032442 69.046956 
L 285.641474 68.658639 
L 286.098247 68.572126 
L 286.555021 68.662484 
L 287.164053 69.058581 
L 287.773085 69.768139 
L 288.534375 71.089236 
L 289.295664 72.879238 
L 290.209212 75.616735 
L 291.275018 79.561839 
L 292.493081 84.941164 
L 294.015661 92.707999 
L 296.29953 105.669763 
L 299.496947 123.752808 
L 301.019526 131.222846 
L 302.23759 136.274912 
L 303.303395 139.872556 
L 304.216943 142.271837 
L 304.978233 143.756055 
L 305.739523 144.754578 
L 306.348554 145.197916 
L 306.957586 145.324411 
L 307.41436 145.212823 
L 308.023392 144.793133 
L 308.632424 144.07156 
L 309.393713 142.762591 
L 310.307261 140.633547 
L 311.373067 137.459847 
L 312.59113 133.071762 
L 314.265968 126.087868 
L 319.29048 104.401003 
L 320.660801 99.79887 
L 321.726607 96.945081 
L 322.640155 95.07344 
L 323.401444 93.945632 
L 324.162734 93.22256 
L 324.771766 92.937752 
L 325.380798 92.911799 
L 325.98983 93.139237 
L 326.598861 93.611426 
L 327.360151 94.527753 
L 328.273699 96.066245 
L 329.339504 98.386008 
L 330.709826 102.013332 
L 332.841437 108.442593 
L 335.277564 115.600292 
L 336.647886 118.921241 
L 337.713691 120.936236 
L 338.627239 122.186321 
L 339.388529 122.856166 
L 339.997561 123.134929 
L 340.606592 123.178601 
L 341.215624 122.984541 
L 341.824656 122.553348 
L 342.585946 121.687032 
L 343.347235 120.470866 
L 344.260783 118.581022 
L 345.326589 115.848738 
L 346.69691 111.663702 
L 348.524006 105.347198 
L 348.524006 105.347198 
" clip-path="url(#p89c20054fb)" style="fill: none; stroke: #ff7f0e; stroke-width: 1.5; stroke-linecap: square"/>
   </g>
   <g id="line2d_19">
    <path d="M 44.160369 100.505616 
L 44.769401 108.270067 
L 45.378433 112.654793 
L 45.987465 115.130927 
L 46.596496 116.529245 
L 47.205528 117.318901 
L 47.81456 117.764834 
L 48.57585 118.060152 
L 49.793913 118.25305 
L 52.230041 118.334184 
L 67.151319 118.34337 
L 348.524006 118.34337 
L 348.524006 118.34337 
" clip-path="url(#p89c20054fb)" style="fill: none; stroke: #2ca02c; stroke-width: 1.5; stroke-linecap: square"/>
   </g>
   <g id="line2d_20">
    <path d="M 44.160369 159.949658 
L 44.312627 158.760201 
L 44.464885 158.489697 
L 44.617143 158.894208 
L 44.921659 160.936735 
L 45.530691 166.0041 
L 45.682949 171.160882 
L 46.139723 124.68287 
L 46.596496 97.900008 
L 47.357786 69.402727 
L 47.81456 107.370633 
L 48.119076 118.858475 
L 48.423592 122.30957 
L 48.57585 121.632929 
L 48.880366 116.438865 
L 49.184882 107.140613 
L 49.33714 96.933013 
L 49.641655 119.294759 
L 49.946171 127.207243 
L 50.098429 127.013062 
L 50.250687 124.594217 
L 50.555203 114.390768 
L 50.859719 98.79174 
L 51.011977 86.514471 
L 51.316493 104.521955 
L 51.468751 107.450097 
L 51.621009 107.155239 
L 51.773267 104.152068 
L 52.077783 91.734077 
L 52.382298 69.018327 
L 52.686814 83.844458 
L 52.839072 85.117628 
L 52.99133 83.171382 
L 53.295846 71.714135 
L 53.600362 52.962024 
L 53.75262 39.368533 
L 54.057136 55.997924 
L 54.209394 58.440203 
L 54.361652 57.829965 
L 54.666168 49.508169 
L 54.818426 42.644696 
L 54.970684 30.42467 
L 55.275199 49.213508 
L 55.427457 52.444592 
L 55.579715 52.478796 
L 55.731973 49.879583 
L 56.036489 38.64207 
L 56.188747 26.954882 
L 56.493263 46.616354 
L 56.645521 50.222551 
L 56.797779 50.609302 
L 56.950037 48.350949 
L 57.254553 37.794582 
L 57.406811 26.220213 
L 57.711327 46.148168 
L 57.863585 49.989335 
L 58.015843 50.673063 
L 58.1681 48.769697 
L 58.472616 39.082555 
L 58.777132 21.258803 
L 59.081648 42.598025 
L 59.386164 48.850762 
L 59.538422 47.905376 
L 59.842938 40.282761 
L 59.995196 34.364862 
L 60.147454 23.247065 
L 60.45197 44.372516 
L 60.756486 51.615703 
L 60.908744 51.583751 
L 61.061001 49.767624 
L 61.365517 42.319891 
L 61.670033 31.796904 
L 61.822291 22.58912 
L 62.279065 55.905457 
L 62.583581 64.518107 
L 62.888097 66.695384 
L 63.040355 66.227879 
L 63.344871 63.463248 
L 63.801645 57.488983 
L 63.953902 51.175124 
L 64.410676 94.309114 
L 64.86745 117.418055 
L 65.324224 130.248668 
L 66.237772 150.616919 
L 66.694545 111.213218 
L 66.999061 99.863308 
L 67.151319 97.561107 
L 67.303577 97.125163 
L 67.455835 98.314581 
L 67.760351 104.755926 
L 68.064867 115.504429 
L 68.217125 126.231143 
L 68.521641 105.033496 
L 68.826157 98.475601 
L 68.978415 99.392096 
L 69.282931 107.610826 
L 69.587446 122.270247 
L 69.739704 135.748086 
L 70.04422 119.853429 
L 70.196478 117.873067 
L 70.348736 119.055492 
L 70.653252 128.950707 
L 70.957768 146.267769 
L 71.110026 160.840499 
L 71.414542 147.078535 
L 71.5668 146.338157 
L 71.719058 148.81715 
L 72.023574 161.338939 
L 72.480347 195.089646 
L 72.784863 179.056 
L 72.937121 176.914712 
L 73.089379 177.827488 
L 73.393895 186.758058 
L 73.698411 206.162782 
L 74.002927 187.457438 
L 74.155185 184.345542 
L 74.307443 184.472467 
L 74.459701 187.268805 
L 74.764217 198.989052 
L 74.916475 210.550522 
L 75.220991 190.765545 
L 75.373248 187.225704 
L 75.525506 186.974551 
L 75.677764 189.427784 
L 75.98228 200.518977 
L 76.134538 211.87678 
L 76.439054 191.704679 
L 76.591312 187.919334 
L 76.74357 187.387286 
L 76.895828 189.524165 
L 77.200344 199.877577 
L 77.352602 211.320764 
L 77.657118 191.16492 
L 77.809376 187.206036 
L 77.961634 186.398724 
L 78.113892 188.170979 
L 78.418407 197.569361 
L 78.722923 215.260335 
L 79.027439 193.919542 
L 79.331955 187.505416 
L 79.484213 188.324305 
L 79.788729 195.626159 
L 80.093245 208.058714 
L 80.245503 218.361925 
L 80.550019 195.623846 
L 80.854535 186.595318 
L 81.006793 185.703298 
L 81.15905 186.589321 
L 81.463566 192.195164 
L 81.768082 200.951849 
L 81.92034 209.965894 
L 82.377114 175.842741 
L 82.68163 166.492169 
L 82.986146 163.561637 
L 83.138404 163.675838 
L 83.44292 165.825899 
L 84.051951 173.067585 
L 84.204209 178.87057 
L 84.660983 134.644006 
L 85.117757 111.035536 
L 85.574531 98.43498 
L 86.335821 82.586567 
L 86.792595 124.056565 
L 87.09711 137.691343 
L 87.401626 143.298581 
L 87.553884 143.734237 
L 87.706142 142.869238 
L 88.010658 137.917014 
L 88.467432 124.457708 
L 88.61969 115.026956 
L 88.924206 138.973473 
L 89.228722 149.083405 
L 89.38098 150.200414 
L 89.533238 149.226261 
L 89.837753 142.290822 
L 90.294527 123.174295 
L 90.446785 111.455353 
L 90.751301 131.111999 
L 91.055817 136.833132 
L 91.208075 135.811932 
L 91.512591 128.074103 
L 91.969365 106.839904 
L 92.121623 94.48254 
L 92.426139 113.068521 
L 92.578397 116.86139 
L 92.730654 117.786271 
L 92.882912 116.338303 
L 93.187428 107.965412 
L 93.644202 86.453382 
L 93.79646 74.671416 
L 94.100976 94.489046 
L 94.405492 100.605945 
L 94.55775 99.941055 
L 94.862266 93.327215 
L 95.31904 74.974948 
L 95.471298 63.94508 
L 95.775813 85.516002 
L 96.080329 93.962311 
L 96.232587 94.645681 
L 96.384845 93.552201 
L 96.689361 87.418598 
L 97.146135 72.310895 
L 97.298393 62.742695 
L 97.602909 87.431932 
L 97.907425 99.782006 
L 98.211941 103.843304 
L 98.364199 103.726902 
L 98.668714 100.655479 
L 99.277746 88.864381 
L 99.430004 85.59181 
L 99.582262 78.608649 
L 100.039036 118.988739 
L 100.49581 138.155027 
L 100.800326 144.231603 
L 101.104842 147.324607 
L 101.561615 149.32046 
L 101.713873 149.757534 
L 101.866131 154.350965 
L 102.322905 108.667005 
L 102.627421 92.839772 
L 102.931937 85.480543 
L 103.084195 84.325958 
L 103.236453 84.574176 
L 103.540969 88.595505 
L 103.997743 101.412971 
L 104.15 111.191067 
L 104.454516 88.035105 
L 104.759032 78.951999 
L 104.91129 78.456235 
L 105.063548 80.131972 
L 105.368064 88.732444 
L 105.824838 111.063143 
L 105.977096 123.291695 
L 106.281612 105.080619 
L 106.43387 101.854605 
L 106.586128 101.753955 
L 106.738386 104.284948 
L 107.042901 115.599801 
L 107.347417 133.059306 
L 107.499675 146.778683 
L 107.804191 131.398532 
L 107.956449 129.74574 
L 108.108707 131.268481 
L 108.413223 141.806824 
L 108.717739 159.625293 
L 108.869997 173.957072 
L 109.174513 159.690618 
L 109.326771 158.694103 
L 109.479029 160.89935 
L 109.783545 172.673928 
L 110.240318 203.077033 
L 110.544834 185.023725 
L 110.697092 182.014587 
L 110.84935 182.132375 
L 111.001608 184.830442 
L 111.306124 196.161662 
L 111.458382 208.09952 
L 111.762898 188.833523 
L 111.915156 185.378529 
L 112.067414 185.126329 
L 112.219672 187.511313 
L 112.524188 198.325416 
L 112.676446 209.975231 
L 112.980961 190.213817 
L 113.133219 186.509769 
L 113.285477 185.999156 
L 113.437735 188.111452 
L 113.742251 198.322318 
L 113.894509 209.972545 
L 114.199025 190.116215 
L 114.351283 186.23048 
L 114.503541 185.459949 
L 114.655799 187.241371 
L 114.960315 196.602881 
L 115.264831 214.391895 
L 115.569347 193.25131 
L 115.873862 186.936726 
L 116.02612 187.779509 
L 116.330636 195.093091 
L 116.635152 207.489507 
L 116.78741 217.843354 
L 117.091926 195.133603 
L 117.396442 186.00875 
L 117.5487 185.025312 
L 117.700958 185.791418 
L 118.005474 191.069402 
L 118.30999 199.372105 
L 118.462248 208.34042 
L 118.919021 173.734764 
L 119.223537 163.662329 
L 119.528053 159.707624 
L 119.680311 159.197569 
L 119.832569 159.322082 
L 120.137085 160.673791 
L 120.746117 163.781146 
L 120.898375 164.062356 
L 121.050633 168.357217 
L 121.507406 118.994924 
L 121.96418 88.348999 
L 122.268696 69.453262 
L 122.72547 99.901494 
L 123.029986 107.510254 
L 123.182244 108.36932 
L 123.334502 107.565009 
L 123.639018 101.702395 
L 123.943534 91.176076 
L 124.095792 80.229525 
L 124.400307 101.005227 
L 124.552565 105.422073 
L 124.704823 106.592054 
L 124.857081 104.973466 
L 125.161597 94.90297 
L 125.466113 77.782659 
L 125.618371 64.698679 
L 125.922887 80.551884 
L 126.075145 81.804386 
L 126.227403 79.48511 
L 126.531919 66.240345 
L 126.836435 42.631201 
L 127.140951 58.083198 
L 127.293208 59.498537 
L 127.445466 57.59937 
L 127.749982 45.988809 
L 127.90224 33.323608 
L 128.206756 50.778144 
L 128.359014 52.565296 
L 128.511272 50.7181 
L 128.815788 38.48878 
L 128.968046 26.821998 
L 129.272562 45.620253 
L 129.42482 47.569586 
L 129.577078 45.629481 
L 129.729336 40.465835 
L 129.881594 28.535864 
L 130.186109 46.711068 
L 130.338367 48.136803 
L 130.490625 45.576692 
L 130.642883 39.723969 
L 130.795141 27.892756 
L 131.099657 46.068143 
L 131.251915 47.274742 
L 131.404173 44.393513 
L 131.556431 38.144578 
L 131.708689 26.523617 
L 132.013205 44.920376 
L 132.165463 46.054996 
L 132.317721 43.017913 
L 132.469979 36.552283 
L 132.622237 25.143292 
L 132.926753 43.807533 
L 133.07901 44.950373 
L 133.231268 41.866734 
L 133.535784 24.072675 
L 133.8403 42.972559 
L 133.992558 44.174854 
L 134.144816 41.130212 
L 134.449332 23.459836 
L 134.753848 42.527699 
L 134.906106 43.827499 
L 135.058364 40.896579 
L 135.210622 34.510706 
L 135.36288 23.373494 
L 135.667396 42.524703 
L 135.819654 43.953235 
L 135.971911 41.204656 
L 136.124169 35.051656 
L 136.276427 23.842432 
L 136.580943 42.984423 
L 136.733201 44.568471 
L 136.885459 42.066013 
L 137.037717 36.239439 
L 137.189975 24.872094 
L 137.494491 43.909282 
L 137.646749 45.67191 
L 137.799007 43.474332 
L 137.951265 38.061539 
L 138.103523 26.451633 
L 138.408039 45.288587 
L 138.560297 47.249181 
L 138.712555 45.409484 
L 139.01707 33.10654 
L 139.169328 22.156254 
L 139.473844 42.332625 
L 139.626102 45.223801 
L 139.77836 44.449403 
L 140.082876 34.587366 
L 140.235134 23.439948 
L 140.53965 43.613973 
L 140.691908 46.957869 
L 140.844166 46.87281 
L 140.996424 44.014325 
L 141.30094 32.129766 
L 141.453198 21.30951 
L 141.757713 42.419402 
L 141.909971 46.719881 
L 142.062229 47.840509 
L 142.214487 46.389461 
L 142.519003 37.768629 
L 142.823519 20.689198 
L 143.128035 42.49555 
L 143.432551 50.592436 
L 143.584809 51.138111 
L 143.737067 50.030775 
L 144.041583 44.451092 
L 144.346099 36.447329 
L 144.498356 27.684874 
L 144.95513 63.780382 
L 145.411904 79.589253 
L 145.868678 85.857645 
L 146.934484 94.593357 
L 147.391257 102.085308 
L 147.543515 105.380265 
L 147.695773 113.461872 
L 148.000289 86.877976 
L 148.304805 74.044717 
L 148.457063 71.683148 
L 148.609321 71.549203 
L 148.761579 73.343096 
L 149.066095 81.70218 
L 149.370611 95.043265 
L 149.522869 107.416827 
L 149.827385 89.438832 
L 149.979643 86.268478 
L 150.131901 86.214928 
L 150.284158 88.802204 
L 150.588674 100.308233 
L 150.89319 118.117268 
L 151.045448 132.333816 
L 151.349964 117.967308 
L 151.502222 116.838273 
L 151.65448 118.900154 
L 151.958996 130.566459 
L 152.263512 149.574337 
L 152.41577 164.410475 
L 152.720286 151.182737 
L 152.872544 150.739439 
L 153.024802 153.511685 
L 153.329317 166.552043 
L 153.633833 190.464878 
L 153.938349 175.560544 
L 154.090607 173.838293 
L 154.242865 175.081975 
L 154.547381 184.432094 
L 154.851897 204.231505 
L 155.156413 185.922429 
L 155.308671 182.842805 
L 155.460929 182.904709 
L 155.613187 185.547122 
L 155.917703 196.721242 
L 156.06996 208.584607 
L 156.374476 189.128994 
L 156.526734 185.48646 
L 156.678992 184.982788 
L 156.83125 187.051466 
L 157.135766 197.037078 
L 157.440282 215.055846 
L 157.744798 193.828027 
L 158.049314 187.730593 
L 158.201572 188.766948 
L 158.506088 196.592685 
L 158.658346 202.620812 
L 158.810604 213.698814 
L 159.115119 192.558832 
L 159.419635 185.502086 
L 159.571893 185.685193 
L 159.876409 191.089661 
L 160.333183 206.582906 
L 160.485441 215.808771 
L 160.789957 190.427326 
L 161.094473 177.596243 
L 161.398989 172.991841 
L 161.551247 172.754429 
L 161.703505 173.468518 
L 162.00802 176.757641 
L 162.464794 183.562961 
L 162.617052 189.795433 
L 163.073826 146.680366 
L 163.5306 124.009556 
L 163.987374 111.864549 
L 164.748663 99.702361 
L 164.900921 97.382229 
L 165.053179 90.796662 
L 165.509953 130.515881 
L 165.814469 141.985861 
L 165.966727 144.339321 
L 166.118985 144.826911 
L 166.271243 143.693404 
L 166.575759 137.389576 
L 166.880275 126.830068 
L 167.032533 115.992843 
L 167.337049 137.075387 
L 167.641564 143.749119 
L 167.793822 142.966194 
L 168.098338 135.148925 
L 168.555112 112.26897 
L 168.70737 99.470705 
L 169.011886 116.577634 
L 169.164144 119.156069 
L 169.316402 118.574399 
L 169.620918 109.907608 
L 169.925434 93.879242 
L 170.077692 79.551035 
L 170.382208 93.941946 
L 170.534465 95.145734 
L 170.686723 93.216201 
L 170.991239 82.019033 
L 171.295755 63.785043 
L 171.448013 49.658697 
L 171.752529 64.425028 
L 171.904787 65.934721 
L 172.057045 64.608756 
L 172.361561 55.389575 
L 172.666077 39.983154 
L 172.818335 28.117438 
L 173.122851 47.601089 
L 173.275109 51.287489 
L 173.427366 51.833482 
L 173.579624 49.79282 
L 173.88414 39.779987 
L 174.188656 21.682375 
L 174.493172 42.812156 
L 174.797688 48.481827 
L 174.949946 47.112962 
L 175.254462 38.395641 
L 175.558978 21.034772 
L 175.863494 42.449153 
L 176.16801 48.800679 
L 176.320267 47.893156 
L 176.624783 40.292997 
L 176.777041 34.350425 
L 176.929299 23.23455 
L 177.233815 44.290625 
L 177.538331 51.08513 
L 177.690589 50.674449 
L 177.995105 44.599118 
L 178.299621 33.899019 
L 178.451879 23.478206 
L 178.756395 46.45271 
L 179.06091 56.434578 
L 179.213168 57.968172 
L 179.365426 57.790147 
L 179.669942 53.697128 
L 180.126716 42.172522 
L 180.278974 33.936741 
L 180.735748 70.236612 
L 181.040264 81.011988 
L 181.34478 85.192866 
L 181.497038 85.609513 
L 181.649296 85.241755 
L 181.953811 82.923654 
L 182.562843 75.793826 
L 182.715101 70.14792 
L 183.171875 114.282933 
L 183.628649 136.896068 
L 184.085423 147.494502 
L 184.389939 150.872234 
L 184.694455 152.656103 
L 184.846712 157.572915 
L 185.303486 111.52349 
L 185.76026 88.451777 
L 186.064776 81.6097 
L 186.369292 79.517648 
L 186.52155 79.831894 
L 186.826066 82.518058 
L 187.28284 90.166846 
L 187.587356 96.766212 
L 187.739613 104.246314 
L 188.044129 71.641357 
L 188.653161 104.646629 
L 189.414451 133.285018 
L 190.023483 148.980717 
L 190.327999 154.860497 
L 190.480257 161.552135 
L 190.93703 119.582697 
L 191.393804 98.378897 
L 191.850578 88.993027 
L 192.155094 86.392136 
L 192.45961 85.335648 
L 192.611868 85.118054 
L 192.764126 80.798896 
L 193.2209 127.863693 
L 193.677673 150.759939 
L 193.982189 156.785506 
L 194.134447 157.700485 
L 194.286705 157.447536 
L 194.591221 153.994069 
L 195.047995 143.073397 
L 195.200253 138.240041 
L 195.352511 129.340172 
L 195.657027 154.115671 
L 195.961543 164.883693 
L 196.113801 166.222381 
L 196.266059 165.378431 
L 196.418316 162.671597 
L 196.87509 147.220508 
L 197.484122 134.650813 
L 198.093154 127.552478 
L 198.702186 123.54392 
L 199.311217 121.280215 
L 199.920249 120.001859 
L 200.529281 119.279949 
L 201.138313 118.872273 
L 202.051861 118.567822 
L 203.422182 118.40542 
L 206.467341 118.346933 
L 243.161506 118.34337 
L 348.524006 118.34337 
L 348.524006 118.34337 
" clip-path="url(#p89c20054fb)" style="fill: none; stroke: #d62728; stroke-width: 1.5; stroke-linecap: square"/>
   </g>
   <g id="patch_3">
    <path d="M 28.942188 228.245562 
L 28.942188 10.805562 
" style="fill: none; stroke: #000000; stroke-width: 0.8; stroke-linejoin: miter; stroke-linecap: square"/>
   </g>
   <g id="patch_4">
    <path d="M 363.742188 228.245562 
L 363.742188 10.805562 
" style="fill: none; stroke: #000000; stroke-width: 0.8; stroke-linejoin: miter; stroke-linecap: square"/>
   </g>
   <g id="patch_5">
    <path d="M 28.942188 228.245562 
L 363.742188 228.245562 
" style="fill: none; stroke: #000000; stroke-width: 0.8; stroke-linejoin: miter; stroke-linecap: square"/>
   </g>
   <g id="patch_6">
    <path d="M 28.942188 10.805562 
L 363.742188 10.805562 
" style="fill: none; stroke: #000000; stroke-width: 0.8; stroke-linejoin: miter; stroke-linecap: square"/>
   </g>
  </g>
 </g>
 <defs>
  <clipPath id="p89c20054fb">
   <rect x="28.942188" y="10.805562" width="334.8" height="217.44"/>
  </clipPath>
 </defs>
</svg>
