<?xml version="1.0" encoding="utf-8" standalone="no"?>
<!DOCTYPE svg PUBLIC "-//W3C//DTD SVG 1.1//EN"
  "http://www.w3.org/Graphics/SVG/1.1/DTD/svg11.dtd">
<svg xmlns:xlink="http://www.w3.org/1999/xlink" width="442.44pt" height="290.99625pt" viewBox="0 0 442.44 290.99625" xmlns="http://www.w3.org/2000/svg" version="1.1">
 <metadata>
  <rdf:RDF xmlns:dc="http://purl.org/dc/elements/1.1/" xmlns:cc="http://creativecommons.org/ns#" xmlns:rdf="http://www.w3.org/1999/02/22-rdf-syntax-ns#">
   <cc:Work>
    <dc:type rdf:resource="http://purl.org/dc/dcmitype/StillImage"/>
    <dc:date>2022-10-20T19:08:57.365250</dc:date>
    <dc:format>image/svg+xml</dc:format>
    <dc:creator>
     <cc:Agent>
      <dc:title>Matplotlib v3.6.0, https://matplotlib.org/</dc:title>
     </cc:Agent>
    </dc:creator>
   </cc:Work>
  </rdf:RDF>
 </metadata>
 <defs>
  <style type="text/css">*{stroke-linejoin: round; stroke-linecap: butt}</style>
 </defs>
 <g id="figure_1">
  <g id="patch_1">
   <path d="M 0 290.99625 
L 442.44 290.99625 
L 442.44 0 
L 0 0 
L 0 290.99625 
z
" style="fill: none"/>
  </g>
  <g id="axes_1">
   <g id="patch_2">
    <path d="M 59.22 253.44 
L 394.02 253.44 
L 394.02 36 
L 59.22 36 
z
" style="fill: #ffffff"/>
   </g>
   <g id="matplotlib.axis_1">
    <g id="xtick_1">
     <g id="line2d_1">
      <defs>
       <path id="m53b9fd7cd5" d="M 0 0 
L 0 3.5 
" style="stroke: #000000; stroke-width: 0.8"/>
      </defs>
      <g>
       <use xlink:href="#m53b9fd7cd5" x="59.22" y="253.44" style="stroke: #000000; stroke-width: 0.8"/>
      </g>
     </g>
     <g id="text_1">
      <!-- 0.00 -->
      <g transform="translate(48.087187 268.038437) scale(0.1 -0.1)">
       <defs>
        <path id="DejaVuSans-30" d="M 2034 4250 
Q 1547 4250 1301 3770 
Q 1056 3291 1056 2328 
Q 1056 1369 1301 889 
Q 1547 409 2034 409 
Q 2525 409 2770 889 
Q 3016 1369 3016 2328 
Q 3016 3291 2770 3770 
Q 2525 4250 2034 4250 
z
M 2034 4750 
Q 2819 4750 3233 4129 
Q 3647 3509 3647 2328 
Q 3647 1150 3233 529 
Q 2819 -91 2034 -91 
Q 1250 -91 836 529 
Q 422 1150 422 2328 
Q 422 3509 836 4129 
Q 1250 4750 2034 4750 
z
" transform="scale(0.015625)"/>
        <path id="DejaVuSans-2e" d="M 684 794 
L 1344 794 
L 1344 0 
L 684 0 
L 684 794 
z
" transform="scale(0.015625)"/>
       </defs>
       <use xlink:href="#DejaVuSans-30"/>
       <use xlink:href="#DejaVuSans-2e" x="63.623047"/>
       <use xlink:href="#DejaVuSans-30" x="95.410156"/>
       <use xlink:href="#DejaVuSans-30" x="159.033203"/>
      </g>
     </g>
    </g>
    <g id="xtick_2">
     <g id="line2d_2">
      <g>
       <use xlink:href="#m53b9fd7cd5" x="101.07" y="253.44" style="stroke: #000000; stroke-width: 0.8"/>
      </g>
     </g>
     <g id="text_2">
      <!-- 0.25 -->
      <g transform="translate(89.937187 268.038437) scale(0.1 -0.1)">
       <defs>
        <path id="DejaVuSans-32" d="M 1228 531 
L 3431 531 
L 3431 0 
L 469 0 
L 469 531 
Q 828 903 1448 1529 
Q 2069 2156 2228 2338 
Q 2531 2678 2651 2914 
Q 2772 3150 2772 3378 
Q 2772 3750 2511 3984 
Q 2250 4219 1831 4219 
Q 1534 4219 1204 4116 
Q 875 4013 500 3803 
L 500 4441 
Q 881 4594 1212 4672 
Q 1544 4750 1819 4750 
Q 2544 4750 2975 4387 
Q 3406 4025 3406 3419 
Q 3406 3131 3298 2873 
Q 3191 2616 2906 2266 
Q 2828 2175 2409 1742 
Q 1991 1309 1228 531 
z
" transform="scale(0.015625)"/>
        <path id="DejaVuSans-35" d="M 691 4666 
L 3169 4666 
L 3169 4134 
L 1269 4134 
L 1269 2991 
Q 1406 3038 1543 3061 
Q 1681 3084 1819 3084 
Q 2600 3084 3056 2656 
Q 3513 2228 3513 1497 
Q 3513 744 3044 326 
Q 2575 -91 1722 -91 
Q 1428 -91 1123 -41 
Q 819 9 494 109 
L 494 744 
Q 775 591 1075 516 
Q 1375 441 1709 441 
Q 2250 441 2565 725 
Q 2881 1009 2881 1497 
Q 2881 1984 2565 2268 
Q 2250 2553 1709 2553 
Q 1456 2553 1204 2497 
Q 953 2441 691 2322 
L 691 4666 
z
" transform="scale(0.015625)"/>
       </defs>
       <use xlink:href="#DejaVuSans-30"/>
       <use xlink:href="#DejaVuSans-2e" x="63.623047"/>
       <use xlink:href="#DejaVuSans-32" x="95.410156"/>
       <use xlink:href="#DejaVuSans-35" x="159.033203"/>
      </g>
     </g>
    </g>
    <g id="xtick_3">
     <g id="line2d_3">
      <g>
       <use xlink:href="#m53b9fd7cd5" x="142.92" y="253.44" style="stroke: #000000; stroke-width: 0.8"/>
      </g>
     </g>
     <g id="text_3">
      <!-- 0.50 -->
      <g transform="translate(131.787187 268.038437) scale(0.1 -0.1)">
       <use xlink:href="#DejaVuSans-30"/>
       <use xlink:href="#DejaVuSans-2e" x="63.623047"/>
       <use xlink:href="#DejaVuSans-35" x="95.410156"/>
       <use xlink:href="#DejaVuSans-30" x="159.033203"/>
      </g>
     </g>
    </g>
    <g id="xtick_4">
     <g id="line2d_4">
      <g>
       <use xlink:href="#m53b9fd7cd5" x="184.77" y="253.44" style="stroke: #000000; stroke-width: 0.8"/>
      </g>
     </g>
     <g id="text_4">
      <!-- 0.75 -->
      <g transform="translate(173.637187 268.038437) scale(0.1 -0.1)">
       <defs>
        <path id="DejaVuSans-37" d="M 525 4666 
L 3525 4666 
L 3525 4397 
L 1831 0 
L 1172 0 
L 2766 4134 
L 525 4134 
L 525 4666 
z
" transform="scale(0.015625)"/>
       </defs>
       <use xlink:href="#DejaVuSans-30"/>
       <use xlink:href="#DejaVuSans-2e" x="63.623047"/>
       <use xlink:href="#DejaVuSans-37" x="95.410156"/>
       <use xlink:href="#DejaVuSans-35" x="159.033203"/>
      </g>
     </g>
    </g>
    <g id="xtick_5">
     <g id="line2d_5">
      <g>
       <use xlink:href="#m53b9fd7cd5" x="226.62" y="253.44" style="stroke: #000000; stroke-width: 0.8"/>
      </g>
     </g>
     <g id="text_5">
      <!-- 1.00 -->
      <g transform="translate(215.487188 268.038437) scale(0.1 -0.1)">
       <defs>
        <path id="DejaVuSans-31" d="M 794 531 
L 1825 531 
L 1825 4091 
L 703 3866 
L 703 4441 
L 1819 4666 
L 2450 4666 
L 2450 531 
L 3481 531 
L 3481 0 
L 794 0 
L 794 531 
z
" transform="scale(0.015625)"/>
       </defs>
       <use xlink:href="#DejaVuSans-31"/>
       <use xlink:href="#DejaVuSans-2e" x="63.623047"/>
       <use xlink:href="#DejaVuSans-30" x="95.410156"/>
       <use xlink:href="#DejaVuSans-30" x="159.033203"/>
      </g>
     </g>
    </g>
    <g id="xtick_6">
     <g id="line2d_6">
      <g>
       <use xlink:href="#m53b9fd7cd5" x="268.47" y="253.44" style="stroke: #000000; stroke-width: 0.8"/>
      </g>
     </g>
     <g id="text_6">
      <!-- 1.25 -->
      <g transform="translate(257.337187 268.038437) scale(0.1 -0.1)">
       <use xlink:href="#DejaVuSans-31"/>
       <use xlink:href="#DejaVuSans-2e" x="63.623047"/>
       <use xlink:href="#DejaVuSans-32" x="95.410156"/>
       <use xlink:href="#DejaVuSans-35" x="159.033203"/>
      </g>
     </g>
    </g>
    <g id="xtick_7">
     <g id="line2d_7">
      <g>
       <use xlink:href="#m53b9fd7cd5" x="310.32" y="253.44" style="stroke: #000000; stroke-width: 0.8"/>
      </g>
     </g>
     <g id="text_7">
      <!-- 1.50 -->
      <g transform="translate(299.187187 268.038437) scale(0.1 -0.1)">
       <use xlink:href="#DejaVuSans-31"/>
       <use xlink:href="#DejaVuSans-2e" x="63.623047"/>
       <use xlink:href="#DejaVuSans-35" x="95.410156"/>
       <use xlink:href="#DejaVuSans-30" x="159.033203"/>
      </g>
     </g>
    </g>
    <g id="xtick_8">
     <g id="line2d_8">
      <g>
       <use xlink:href="#m53b9fd7cd5" x="352.17" y="253.44" style="stroke: #000000; stroke-width: 0.8"/>
      </g>
     </g>
     <g id="text_8">
      <!-- 1.75 -->
      <g transform="translate(341.037187 268.038437) scale(0.1 -0.1)">
       <use xlink:href="#DejaVuSans-31"/>
       <use xlink:href="#DejaVuSans-2e" x="63.623047"/>
       <use xlink:href="#DejaVuSans-37" x="95.410156"/>
       <use xlink:href="#DejaVuSans-35" x="159.033203"/>
      </g>
     </g>
    </g>
    <g id="xtick_9">
     <g id="line2d_9">
      <g>
       <use xlink:href="#m53b9fd7cd5" x="394.02" y="253.44" style="stroke: #000000; stroke-width: 0.8"/>
      </g>
     </g>
     <g id="text_9">
      <!-- 2.00 -->
      <g transform="translate(382.887187 268.038437) scale(0.1 -0.1)">
       <use xlink:href="#DejaVuSans-32"/>
       <use xlink:href="#DejaVuSans-2e" x="63.623047"/>
       <use xlink:href="#DejaVuSans-30" x="95.410156"/>
       <use xlink:href="#DejaVuSans-30" x="159.033203"/>
      </g>
     </g>
    </g>
    <g id="text_10">
     <!-- $t$ -->
     <g transform="translate(224.62 281.716562) scale(0.1 -0.1)">
      <defs>
       <path id="DejaVuSans-Oblique-74" d="M 2706 3500 
L 2619 3053 
L 1472 3053 
L 1100 1153 
Q 1081 1047 1072 975 
Q 1063 903 1063 863 
Q 1063 663 1183 572 
Q 1303 481 1569 481 
L 2150 481 
L 2053 0 
L 1503 0 
Q 991 0 739 200 
Q 488 400 488 806 
Q 488 878 497 964 
Q 506 1050 525 1153 
L 897 3053 
L 409 3053 
L 500 3500 
L 978 3500 
L 1172 4494 
L 1747 4494 
L 1556 3500 
L 2706 3500 
z
" transform="scale(0.015625)"/>
      </defs>
      <use xlink:href="#DejaVuSans-Oblique-74" transform="translate(0 0.78125)"/>
     </g>
    </g>
   </g>
   <g id="matplotlib.axis_2">
    <g id="ytick_1">
     <g id="line2d_10">
      <defs>
       <path id="mb036e10a0b" d="M 0 0 
L -3.5 0 
" style="stroke: #000000; stroke-width: 0.8"/>
      </defs>
      <g>
       <use xlink:href="#mb036e10a0b" x="59.22" y="223.789091" style="stroke: #000000; stroke-width: 0.8"/>
      </g>
     </g>
     <g id="text_11">
      <!-- −1.0 -->
      <g transform="translate(27.937187 227.58831) scale(0.1 -0.1)">
       <defs>
        <path id="DejaVuSans-2212" d="M 678 2272 
L 4684 2272 
L 4684 1741 
L 678 1741 
L 678 2272 
z
" transform="scale(0.015625)"/>
       </defs>
       <use xlink:href="#DejaVuSans-2212"/>
       <use xlink:href="#DejaVuSans-31" x="83.789062"/>
       <use xlink:href="#DejaVuSans-2e" x="147.412109"/>
       <use xlink:href="#DejaVuSans-30" x="179.199219"/>
      </g>
     </g>
    </g>
    <g id="ytick_2">
     <g id="line2d_11">
      <g>
       <use xlink:href="#mb036e10a0b" x="59.22" y="184.254545" style="stroke: #000000; stroke-width: 0.8"/>
      </g>
     </g>
     <g id="text_12">
      <!-- −0.5 -->
      <g transform="translate(27.937187 188.053764) scale(0.1 -0.1)">
       <use xlink:href="#DejaVuSans-2212"/>
       <use xlink:href="#DejaVuSans-30" x="83.789062"/>
       <use xlink:href="#DejaVuSans-2e" x="147.412109"/>
       <use xlink:href="#DejaVuSans-35" x="179.199219"/>
      </g>
     </g>
    </g>
    <g id="ytick_3">
     <g id="line2d_12">
      <g>
       <use xlink:href="#mb036e10a0b" x="59.22" y="144.72" style="stroke: #000000; stroke-width: 0.8"/>
      </g>
     </g>
     <g id="text_13">
      <!-- 0.0 -->
      <g transform="translate(36.316875 148.519219) scale(0.1 -0.1)">
       <use xlink:href="#DejaVuSans-30"/>
       <use xlink:href="#DejaVuSans-2e" x="63.623047"/>
       <use xlink:href="#DejaVuSans-30" x="95.410156"/>
      </g>
     </g>
    </g>
    <g id="ytick_4">
     <g id="line2d_13">
      <g>
       <use xlink:href="#mb036e10a0b" x="59.22" y="105.185455" style="stroke: #000000; stroke-width: 0.8"/>
      </g>
     </g>
     <g id="text_14">
      <!-- 0.5 -->
      <g transform="translate(36.316875 108.984673) scale(0.1 -0.1)">
       <use xlink:href="#DejaVuSans-30"/>
       <use xlink:href="#DejaVuSans-2e" x="63.623047"/>
       <use xlink:href="#DejaVuSans-35" x="95.410156"/>
      </g>
     </g>
    </g>
    <g id="ytick_5">
     <g id="line2d_14">
      <g>
       <use xlink:href="#mb036e10a0b" x="59.22" y="65.650909" style="stroke: #000000; stroke-width: 0.8"/>
      </g>
     </g>
     <g id="text_15">
      <!-- 1.0 -->
      <g transform="translate(36.316875 69.450128) scale(0.1 -0.1)">
       <use xlink:href="#DejaVuSans-31"/>
       <use xlink:href="#DejaVuSans-2e" x="63.623047"/>
       <use xlink:href="#DejaVuSans-30" x="95.410156"/>
      </g>
     </g>
    </g>
    <g id="text_16">
     <!-- Magnitude -->
     <g transform="translate(21.8575 171.209844) rotate(-90) scale(0.1 -0.1)">
      <defs>
       <path id="DejaVuSans-4d" d="M 628 4666 
L 1569 4666 
L 2759 1491 
L 3956 4666 
L 4897 4666 
L 4897 0 
L 4281 0 
L 4281 4097 
L 3078 897 
L 2444 897 
L 1241 4097 
L 1241 0 
L 628 0 
L 628 4666 
z
" transform="scale(0.015625)"/>
       <path id="DejaVuSans-61" d="M 2194 1759 
Q 1497 1759 1228 1600 
Q 959 1441 959 1056 
Q 959 750 1161 570 
Q 1363 391 1709 391 
Q 2188 391 2477 730 
Q 2766 1069 2766 1631 
L 2766 1759 
L 2194 1759 
z
M 3341 1997 
L 3341 0 
L 2766 0 
L 2766 531 
Q 2569 213 2275 61 
Q 1981 -91 1556 -91 
Q 1019 -91 701 211 
Q 384 513 384 1019 
Q 384 1609 779 1909 
Q 1175 2209 1959 2209 
L 2766 2209 
L 2766 2266 
Q 2766 2663 2505 2880 
Q 2244 3097 1772 3097 
Q 1472 3097 1187 3025 
Q 903 2953 641 2809 
L 641 3341 
Q 956 3463 1253 3523 
Q 1550 3584 1831 3584 
Q 2591 3584 2966 3190 
Q 3341 2797 3341 1997 
z
" transform="scale(0.015625)"/>
       <path id="DejaVuSans-67" d="M 2906 1791 
Q 2906 2416 2648 2759 
Q 2391 3103 1925 3103 
Q 1463 3103 1205 2759 
Q 947 2416 947 1791 
Q 947 1169 1205 825 
Q 1463 481 1925 481 
Q 2391 481 2648 825 
Q 2906 1169 2906 1791 
z
M 3481 434 
Q 3481 -459 3084 -895 
Q 2688 -1331 1869 -1331 
Q 1566 -1331 1297 -1286 
Q 1028 -1241 775 -1147 
L 775 -588 
Q 1028 -725 1275 -790 
Q 1522 -856 1778 -856 
Q 2344 -856 2625 -561 
Q 2906 -266 2906 331 
L 2906 616 
Q 2728 306 2450 153 
Q 2172 0 1784 0 
Q 1141 0 747 490 
Q 353 981 353 1791 
Q 353 2603 747 3093 
Q 1141 3584 1784 3584 
Q 2172 3584 2450 3431 
Q 2728 3278 2906 2969 
L 2906 3500 
L 3481 3500 
L 3481 434 
z
" transform="scale(0.015625)"/>
       <path id="DejaVuSans-6e" d="M 3513 2113 
L 3513 0 
L 2938 0 
L 2938 2094 
Q 2938 2591 2744 2837 
Q 2550 3084 2163 3084 
Q 1697 3084 1428 2787 
Q 1159 2491 1159 1978 
L 1159 0 
L 581 0 
L 581 3500 
L 1159 3500 
L 1159 2956 
Q 1366 3272 1645 3428 
Q 1925 3584 2291 3584 
Q 2894 3584 3203 3211 
Q 3513 2838 3513 2113 
z
" transform="scale(0.015625)"/>
       <path id="DejaVuSans-69" d="M 603 3500 
L 1178 3500 
L 1178 0 
L 603 0 
L 603 3500 
z
M 603 4863 
L 1178 4863 
L 1178 4134 
L 603 4134 
L 603 4863 
z
" transform="scale(0.015625)"/>
       <path id="DejaVuSans-74" d="M 1172 4494 
L 1172 3500 
L 2356 3500 
L 2356 3053 
L 1172 3053 
L 1172 1153 
Q 1172 725 1289 603 
Q 1406 481 1766 481 
L 2356 481 
L 2356 0 
L 1766 0 
Q 1100 0 847 248 
Q 594 497 594 1153 
L 594 3053 
L 172 3053 
L 172 3500 
L 594 3500 
L 594 4494 
L 1172 4494 
z
" transform="scale(0.015625)"/>
       <path id="DejaVuSans-75" d="M 544 1381 
L 544 3500 
L 1119 3500 
L 1119 1403 
Q 1119 906 1312 657 
Q 1506 409 1894 409 
Q 2359 409 2629 706 
Q 2900 1003 2900 1516 
L 2900 3500 
L 3475 3500 
L 3475 0 
L 2900 0 
L 2900 538 
Q 2691 219 2414 64 
Q 2138 -91 1772 -91 
Q 1169 -91 856 284 
Q 544 659 544 1381 
z
M 1991 3584 
L 1991 3584 
z
" transform="scale(0.015625)"/>
       <path id="DejaVuSans-64" d="M 2906 2969 
L 2906 4863 
L 3481 4863 
L 3481 0 
L 2906 0 
L 2906 525 
Q 2725 213 2448 61 
Q 2172 -91 1784 -91 
Q 1150 -91 751 415 
Q 353 922 353 1747 
Q 353 2572 751 3078 
Q 1150 3584 1784 3584 
Q 2172 3584 2448 3432 
Q 2725 3281 2906 2969 
z
M 947 1747 
Q 947 1113 1208 752 
Q 1469 391 1925 391 
Q 2381 391 2643 752 
Q 2906 1113 2906 1747 
Q 2906 2381 2643 2742 
Q 2381 3103 1925 3103 
Q 1469 3103 1208 2742 
Q 947 2381 947 1747 
z
" transform="scale(0.015625)"/>
       <path id="DejaVuSans-65" d="M 3597 1894 
L 3597 1613 
L 953 1613 
Q 991 1019 1311 708 
Q 1631 397 2203 397 
Q 2534 397 2845 478 
Q 3156 559 3463 722 
L 3463 178 
Q 3153 47 2828 -22 
Q 2503 -91 2169 -91 
Q 1331 -91 842 396 
Q 353 884 353 1716 
Q 353 2575 817 3079 
Q 1281 3584 2069 3584 
Q 2775 3584 3186 3129 
Q 3597 2675 3597 1894 
z
M 3022 2063 
Q 3016 2534 2758 2815 
Q 2500 3097 2075 3097 
Q 1594 3097 1305 2825 
Q 1016 2553 972 2059 
L 3022 2063 
z
" transform="scale(0.015625)"/>
      </defs>
      <use xlink:href="#DejaVuSans-4d"/>
      <use xlink:href="#DejaVuSans-61" x="86.279297"/>
      <use xlink:href="#DejaVuSans-67" x="147.558594"/>
      <use xlink:href="#DejaVuSans-6e" x="211.035156"/>
      <use xlink:href="#DejaVuSans-69" x="274.414062"/>
      <use xlink:href="#DejaVuSans-74" x="302.197266"/>
      <use xlink:href="#DejaVuSans-75" x="341.40625"/>
      <use xlink:href="#DejaVuSans-64" x="404.785156"/>
      <use xlink:href="#DejaVuSans-65" x="468.261719"/>
     </g>
    </g>
   </g>
   <g id="line2d_15">
    <path d="M 59.22 130.663168 
L 60.2244 45.883636 
L 60.3918 144.72 
L 61.2288 81.205817 
L 61.3962 70.362369 
L 61.5636 45.883636 
L 61.731 144.72 
L 62.568 81.526791 
L 62.7354 70.756658 
L 62.9028 45.883636 
L 63.0702 144.72 
L 63.9072 82.078712 
L 64.0746 71.421541 
L 64.242 45.883636 
L 64.4094 144.72 
L 65.2464 82.862589 
L 65.4138 72.358009 
L 65.5812 45.883636 
L 65.7486 144.72 
L 66.5856 83.877034 
L 66.753 73.564245 
L 66.9204 45.883636 
L 67.0878 144.72 
L 67.9248 85.11826 
L 68.0922 75.03562 
L 68.2596 45.883636 
L 68.427 144.72 
L 69.264 86.580096 
L 69.5988 67.485949 
L 69.7662 45.883636 
L 69.9336 144.72 
L 70.7706 88.477683 
L 71.1054 70.058623 
L 71.2728 45.883636 
L 71.4402 144.72 
L 72.2772 90.628131 
L 72.612 72.965571 
L 72.7794 45.883636 
L 72.9468 144.72 
L 73.7838 93.0154 
L 74.286 68.861963 
L 74.4534 46.498038 
L 74.6208 145.625236 
L 75.4578 98.991114 
L 76.1274 71.644131 
L 76.2948 52.185847 
L 76.4622 151.774473 
L 77.2992 110.641695 
L 77.9688 86.943968 
L 78.1362 82.100329 
L 78.3036 63.143573 
L 78.471 163.057341 
L 79.308 127.393957 
L 79.9776 107.297496 
L 80.3124 99.583707 
L 80.4798 78.60843 
L 80.6472 178.746589 
L 81.3168 153.752061 
L 81.9864 135.739628 
L 82.656 123.428851 
L 82.8234 121.114774 
L 82.9908 99.327719 
L 83.1582 199.619894 
L 83.8278 179.610648 
L 84.4974 165.68764 
L 85.167 156.717424 
L 85.6692 152.674965 
L 85.8366 151.771629 
L 86.004 169.415738 
L 86.1714 68.534132 
L 86.3388 72.311252 
L 86.5062 56.962854 
L 86.6736 161.043572 
L 87.0084 160.462341 
L 87.1758 160.424863 
L 87.3432 160.544343 
L 87.678 161.221284 
L 88.1802 163.218222 
L 88.6824 166.230032 
L 89.1846 170.095921 
L 89.352 190.029948 
L 89.5194 89.647366 
L 90.8586 132.142201 
L 91.863 159.439093 
L 92.0304 179.551287 
L 92.1978 80.812849 
L 93.2022 127.328954 
L 94.0392 159.618602 
L 94.2066 184.667265 
L 94.374 86.484975 
L 95.3784 139.795815 
L 96.048 169.223742 
L 96.2154 193.813481 
L 96.3828 95.827031 
L 97.3872 153.254507 
L 97.8894 177.131534 
L 98.0568 203.396274 
L 98.2242 105.436433 
L 99.2286 165.34163 
L 99.7308 189.976485 
L 99.8982 212.791483 
L 100.0656 114.769777 
L 101.07 176.162757 
L 101.4048 193.191694 
L 101.5722 220.495414 
L 101.7396 122.368556 
L 102.744 184.369582 
L 103.0788 201.426515 
L 103.2462 227.000259 
L 103.4136 128.737714 
L 104.2506 181.601164 
L 104.7528 207.609186 
L 104.9202 232.050009 
L 105.0876 133.6315 
L 105.9246 185.997319 
L 106.4268 211.551198 
L 106.5942 235.476374 
L 106.7616 136.88887 
L 107.5986 188.274283 
L 108.1008 213.139003 
L 108.2682 237.174766 
L 108.4356 138.410704 
L 109.2726 188.361481 
L 109.7748 212.319112 
L 109.9422 237.090051 
L 110.1096 138.146275 
L 110.9466 186.238513 
L 111.4488 209.089051 
L 111.6162 235.207974 
L 111.7836 136.08508 
L 112.6206 181.928628 
L 113.2902 209.822746 
L 113.4576 231.088079 
L 113.625 131.772815 
L 114.462 174.737568 
L 115.1316 200.518479 
L 115.299 224.892493 
L 115.4664 125.393632 
L 116.3034 165.110046 
L 117.1404 193.456321 
L 117.3078 215.902699 
L 117.4752 116.217855 
L 118.3122 152.042909 
L 118.9818 172.791405 
L 119.3166 180.963183 
L 119.484 203.766803 
L 119.6514 103.902164 
L 120.4884 135.202346 
L 121.158 152.866331 
L 121.8276 165.233215 
L 121.995 187.080112 
L 122.1624 87.042148 
L 122.832 108.508989 
L 123.5016 123.875351 
L 124.1712 134.24293 
L 124.6734 139.287629 
L 124.8408 140.514496 
L 125.0082 122.18696 
L 125.1756 223.195378 
L 125.343 238.154587 
L 125.5104 134.112318 
L 125.8452 135.415603 
L 126.18 136.010965 
L 126.3474 136.064731 
L 126.5148 135.966574 
L 126.8496 135.34432 
L 127.1844 134.200433 
L 127.6866 131.617081 
L 128.3562 126.786527 
L 128.5236 106.517081 
L 128.691 206.745756 
L 130.0302 164.543898 
L 131.0346 137.222574 
L 131.202 115.096644 
L 131.3694 213.737545 
L 132.5412 160.523616 
L 133.3782 129.032991 
L 133.5456 107.935203 
L 133.713 205.984594 
L 134.7174 151.876042 
L 135.387 121.767371 
L 135.5544 97.169513 
L 135.7218 195.015137 
L 136.7262 136.205944 
L 137.2284 111.553453 
L 137.3958 85.950643 
L 137.5632 183.751156 
L 138.5676 121.785437 
L 139.0698 96.073923 
L 139.2372 74.695191 
L 139.4046 172.53594 
L 140.409 108.32508 
L 140.7438 90.36241 
L 140.9112 65.095786 
L 141.0786 163.022996 
L 142.083 97.483444 
L 142.4178 79.289283 
L 142.5852 56.520789 
L 142.7526 154.568 
L 143.757 88.340753 
L 144.0918 70.096944 
L 144.2592 49.262424 
L 144.4266 147.454182 
L 145.2636 91.159148 
L 145.5984 73.211504 
L 145.7658 45.883636 
L 145.9332 144.72 
L 146.7702 90.757912 
L 147.105 72.734748 
L 147.2724 45.883636 
L 147.4398 144.72 
L 148.2768 90.715759 
L 148.6116 72.737721 
L 148.779 45.883636 
L 148.9464 144.72 
L 149.7834 91.036681 
L 150.1182 73.225037 
L 150.2856 45.883636 
L 150.453 144.72 
L 151.29 91.720311 
L 151.7922 66.122086 
L 151.9596 45.883636 
L 152.127 144.72 
L 152.964 92.899404 
L 153.4662 68.006814 
L 153.6336 45.964021 
L 153.801 144.891961 
L 154.638 95.621205 
L 155.1402 72.521724 
L 155.3076 48.291355 
L 155.475 147.521488 
L 156.312 101.69248 
L 156.9816 74.295789 
L 157.149 54.035499 
L 157.3164 153.539029 
L 158.1534 111.67582 
L 158.823 87.086635 
L 158.9904 62.561371 
L 159.1578 162.295738 
L 159.9948 124.62698 
L 160.6644 102.959207 
L 160.9992 94.485387 
L 161.1666 75.667699 
L 161.334 175.633497 
L 162.171 143.204331 
L 162.8406 125.12187 
L 163.5102 112.695638 
L 163.6776 94.206677 
L 163.845 194.391984 
L 164.5146 172.674312 
L 165.1842 157.419252 
L 165.8538 147.471732 
L 166.356 142.918261 
L 166.6908 141.076271 
L 166.8582 121.833225 
L 167.0256 222.226548 
L 167.193 237.682509 
L 167.3604 133.352791 
L 167.6952 134.469378 
L 168.1974 137.201143 
L 168.867 142.548886 
L 169.704 151.487328 
L 170.3736 160.089995 
L 170.541 179.805081 
L 170.7084 80.131844 
L 172.0476 129.529205 
L 172.8846 156.590851 
L 173.052 178.340493 
L 173.2194 80.057707 
L 174.3912 139.527045 
L 175.0608 168.440283 
L 175.2282 189.316161 
L 175.3956 91.588247 
L 176.4 151.789923 
L 176.9022 177.632289 
L 177.0696 202.743426 
L 177.237 105.230825 
L 178.2414 171.022905 
L 178.5762 189.960202 
L 178.7436 216.387713 
L 178.911 118.948571 
L 179.9154 188.898774 
L 180.2502 208.872776 
L 180.4176 230.397579 
L 180.585 132.955276 
L 181.5894 206.332646 
L 181.7568 216.93616 
L 181.9242 242.776238 
L 182.0916 144.72 
L 183.096 212.718261 
L 183.2634 222.341409 
L 183.4308 243.556364 
L 183.5982 144.72 
L 184.77 243.556364 
L 184.9374 144.72 
L 186.1092 243.556364 
L 186.2766 144.72 
L 187.1136 208.008178 
L 187.281 218.934791 
L 187.4484 243.556364 
L 187.6158 144.72 
L 188.4528 209.194714 
L 188.6202 220.30262 
L 188.7876 243.556364 
L 188.955 144.72 
L 189.792 210.108477 
L 189.9594 221.350507 
L 190.1268 243.556364 
L 190.2942 144.72 
L 191.1312 210.743942 
L 191.2986 222.072193 
L 191.466 243.556364 
L 191.6334 144.72 
L 192.4704 211.098248 
L 192.6378 222.464542 
L 192.8052 243.556364 
L 192.9726 144.72 
L 193.8096 211.171219 
L 193.977 222.527566 
L 194.1444 243.556364 
L 194.3118 144.72 
L 195.1488 210.965358 
L 195.3162 222.264405 
L 195.4836 243.556364 
L 195.651 144.72 
L 196.488 210.485811 
L 196.6554 221.681297 
L 196.8228 243.556364 
L 196.9902 144.72 
L 197.8272 209.740311 
L 197.9946 220.787498 
L 198.162 243.556364 
L 198.3294 144.72 
L 199.1664 208.73909 
L 199.3338 219.595188 
L 199.5012 243.556364 
L 199.6686 144.72 
L 200.5056 207.494775 
L 200.673 218.119336 
L 200.8404 243.556364 
L 201.0078 144.72 
L 201.8448 206.022249 
L 202.0122 216.377545 
L 202.1796 243.556364 
L 202.347 144.72 
L 203.184 204.338503 
L 203.3514 214.389871 
L 203.5188 243.556364 
L 203.6862 144.72 
L 204.5232 202.462455 
L 204.858 221.35269 
L 205.0254 243.556364 
L 205.1928 144.72 
L 206.0298 200.14782 
L 206.3646 218.234024 
L 206.532 243.556364 
L 206.6994 144.72 
L 207.5364 197.647686 
L 208.0386 222.74913 
L 208.206 243.556364 
L 208.3734 144.657164 
L 209.2104 193.425079 
L 209.7126 215.701314 
L 209.88 240.40376 
L 210.0474 140.986755 
L 210.8844 184.398642 
L 211.554 209.628009 
L 211.7214 232.08828 
L 211.8888 132.317886 
L 212.7258 170.685282 
L 213.3954 192.6742 
L 213.5628 197.154873 
L 213.7302 219.513941 
L 213.8976 119.519003 
L 214.7346 153.054984 
L 215.4042 171.986788 
L 215.9064 182.448691 
L 216.0738 202.322087 
L 216.2412 102.197971 
L 216.9108 125.890064 
L 217.5804 143.147964 
L 218.25 155.195543 
L 218.7522 161.421763 
L 218.9196 180.007103 
L 219.087 79.849557 
L 219.7566 99.254827 
L 220.4262 113.183995 
L 220.761 118.43634 
L 220.9284 101.105776 
L 221.0958 203.246233 
L 222.435 185.282533 
L 222.6024 202.432363 
L 222.7698 99.828476 
L 223.4394 105.897391 
L 223.9416 108.663495 
L 224.4438 110.175224 
L 224.6112 110.437809 
L 224.7786 92.956085 
L 224.946 194.269163 
L 226.1178 167.058736 
L 227.2896 144.558184 
L 227.6244 138.847096 
L 227.7918 117.770977 
L 227.9592 217.11538 
L 228.9636 180.217329 
L 229.968 151.272365 
L 230.3028 143.064784 
L 230.4702 120.621159 
L 230.6376 219.382254 
L 231.642 177.709687 
L 232.6464 146.084909 
L 232.8138 141.616402 
L 232.9812 118.373899 
L 233.1486 217.024194 
L 233.9856 180.391506 
L 234.8226 151.87073 
L 235.3248 137.951201 
L 235.4922 116.011174 
L 235.6596 214.745443 
L 236.4966 178.672323 
L 237.3336 151.150671 
L 237.8358 137.996782 
L 238.0032 115.617578 
L 238.1706 214.52417 
L 239.0076 180.223281 
L 239.8446 154.614193 
L 240.5142 139.164618 
L 240.6816 118.372484 
L 240.849 217.499672 
L 241.686 186.1042 
L 242.523 163.270689 
L 243.1926 149.954128 
L 243.5274 144.72 
L 243.6948 144.72 
L 244.3644 136.871861 
L 245.034 131.734576 
L 245.5362 129.394491 
L 246.0384 128.176391 
L 246.3732 127.920473 
L 246.708 128.067742 
L 246.8754 128.282402 
L 247.0428 110.403246 
L 247.2102 211.462226 
L 247.8798 198.505084 
L 248.2146 193.55657 
L 248.382 209.471154 
L 248.5494 106.889536 
L 251.5626 149.262419 
L 251.73 169.402145 
L 251.8974 69.952109 
L 253.0692 111.613771 
L 254.241 145.712998 
L 254.4084 168.204279 
L 254.5758 69.761397 
L 255.5802 116.106761 
L 256.5846 153.921876 
L 256.752 176.671864 
L 256.9194 78.629395 
L 257.9238 131.283636 
L 258.7608 167.12577 
L 258.9282 188.12087 
L 259.0956 90.239508 
L 260.1 147.453123 
L 260.7696 178.818806 
L 260.937 199.889494 
L 261.1044 102.049583 
L 262.1088 162.623049 
L 262.611 187.784134 
L 262.7784 210.783263 
L 262.9458 112.921178 
L 263.9502 175.934998 
L 264.285 193.612936 
L 264.4524 220.295773 
L 264.6198 122.376944 
L 265.6242 187.093028 
L 265.959 205.137731 
L 266.1264 229.113196 
L 266.2938 131.110347 
L 267.2982 197.033319 
L 267.633 215.299748 
L 267.8004 236.986989 
L 267.9678 138.877937 
L 268.9722 205.503209 
L 269.1396 214.889753 
L 269.307 243.097606 
L 269.4744 144.72 
L 270.3114 198.827904 
L 270.6462 216.968014 
L 270.8136 243.556364 
L 270.981 144.72 
L 271.818 199.307396 
L 272.1528 217.55712 
L 272.3202 243.556364 
L 272.4876 144.72 
L 273.3246 199.4754 
L 273.6594 217.72929 
L 273.8268 243.556364 
L 273.9942 144.72 
L 274.8312 199.323634 
L 275.166 217.474118 
L 275.3334 243.556364 
L 275.5008 144.72 
L 276.3378 198.847763 
L 276.6726 216.786478 
L 276.84 243.556364 
L 277.0074 144.72 
L 277.8444 198.047462 
L 278.3466 223.78068 
L 278.514 243.556364 
L 278.6814 144.72 
L 279.5184 196.782336 
L 280.0206 221.801821 
L 280.188 243.544345 
L 280.3554 144.658906 
L 281.1924 194.303972 
L 281.6946 217.579405 
L 281.862 241.540526 
L 282.0294 142.333823 
L 282.8664 188.46717 
L 283.536 216.077011 
L 283.7034 236.020766 
L 283.8708 136.536311 
L 284.7078 178.741491 
L 285.3774 203.596547 
L 285.5448 227.723791 
L 285.7122 128.013476 
L 286.5492 166.142355 
L 287.2188 188.17634 
L 287.3862 192.686873 
L 287.5536 216.072927 
L 287.721 116.157901 
L 288.558 149.649365 
L 289.2276 168.521459 
L 289.7298 178.880586 
L 289.8972 199.650297 
L 290.0646 99.539652 
L 290.7342 122.698443 
L 291.4038 139.256203 
L 292.0734 150.395133 
L 292.5756 155.782226 
L 292.743 176.446232 
L 292.9104 76.153363 
L 293.58 93.585926 
L 294.0822 102.869453 
L 294.2496 87.018132 
L 294.417 189.557534 
L 295.7562 170.463658 
L 297.4302 142.971663 
L 297.5976 122.466235 
L 297.765 221.548 
L 298.9368 174.999591 
L 299.9412 140.740722 
L 300.1086 117.941951 
L 300.276 215.996304 
L 301.4478 156.119729 
L 302.1174 127.199398 
L 302.2848 105.020011 
L 302.4522 202.671588 
L 303.4566 143.135104 
L 303.9588 117.655037 
L 304.1262 91.125163 
L 304.2936 188.628328 
L 305.298 124.054153 
L 305.6328 105.499724 
L 305.8002 77.548486 
L 305.9676 175.010296 
L 306.972 106.608055 
L 307.3068 87.097915 
L 307.4742 63.843282 
L 307.6416 161.323029 
L 308.646 89.701585 
L 308.8134 79.357211 
L 308.9808 51.820565 
L 309.1482 149.352349 
L 309.9852 88.169887 
L 310.32 68.944726 
L 310.4874 45.883636 
L 310.6548 144.72 
L 311.6592 75.836882 
L 311.8266 66.117858 
L 311.994 45.883636 
L 312.1614 144.72 
L 313.3332 45.883636 
L 313.5006 144.72 
L 314.3376 82.695708 
L 314.505 71.984596 
L 314.6724 45.883636 
L 314.8398 144.72 
L 315.6768 81.488188 
L 315.8442 70.589317 
L 316.0116 45.883636 
L 316.179 144.72 
L 317.016 80.516501 
L 317.1834 69.470504 
L 317.3508 45.883636 
L 317.5182 144.72 
L 318.3552 79.783517 
L 318.5226 68.631326 
L 318.69 45.883636 
L 318.8574 144.72 
L 319.6944 79.289723 
L 319.8618 68.072163 
L 320.0292 45.883636 
L 320.1966 144.72 
L 321.0336 79.033232 
L 321.201 67.790617 
L 321.3684 45.883636 
L 321.5358 144.72 
L 322.3728 79.009818 
L 322.5402 67.781552 
L 322.7076 45.883636 
L 322.875 144.72 
L 323.712 79.212968 
L 323.8794 68.037167 
L 324.0468 45.883636 
L 324.2142 144.72 
L 325.0512 79.633972 
L 325.2186 68.547086 
L 325.386 45.883636 
L 325.5534 144.72 
L 326.3904 80.262017 
L 326.5578 69.298488 
L 326.7252 45.883636 
L 326.8926 144.72 
L 327.7296 81.084316 
L 327.897 70.276246 
L 328.0644 45.883636 
L 328.2318 144.72 
L 329.0688 82.086251 
L 329.2362 71.463106 
L 329.4036 45.883636 
L 329.571 144.72 
L 330.408 83.25154 
L 330.5754 72.839874 
L 330.7428 45.883636 
L 330.9102 144.72 
L 331.7472 84.562409 
L 331.9146 74.385631 
L 332.082 45.883636 
L 332.2494 144.72 
L 333.0864 85.999797 
L 333.4212 66.694695 
L 333.5886 45.883636 
L 333.756 144.72 
L 334.593 87.742966 
L 334.9278 69.037982 
L 335.0952 45.883636 
L 335.2626 144.72 
L 336.0996 89.590761 
L 336.4344 71.515777 
L 336.6018 45.883636 
L 336.7692 144.72 
L 337.6062 91.512229 
L 338.1084 66.093524 
L 338.2758 45.883636 
L 338.4432 144.72 
L 339.2802 93.930199 
L 339.7824 70.198763 
L 339.9498 47.015938 
L 340.1172 146.167401 
L 340.9542 99.366857 
L 341.6238 71.26286 
L 341.7912 52.021849 
L 341.9586 151.450745 
L 342.7956 108.194705 
L 343.4652 82.286381 
L 343.6326 59.351595 
L 343.8 158.923782 
L 344.637 118.523844 
L 345.474 89.23742 
L 345.6414 68.590588 
L 345.8088 168.222665 
L 346.6458 130.336244 
L 347.4828 102.809594 
L 347.6502 98.322709 
L 347.8176 78.948562 
L 347.985 178.571788 
L 348.822 142.802004 
L 349.659 116.658659 
L 349.8264 112.373935 
L 349.9938 88.860196 
L 350.1612 188.422803 
L 350.9982 154.180749 
L 351.8352 128.917343 
L 352.17 120.825076 
L 352.3374 98.380591 
L 352.5048 197.837322 
L 353.3418 164.593317 
L 354.1788 139.734853 
L 354.681 127.977436 
L 354.8484 106.695175 
L 355.0158 206.005268 
L 355.8528 173.088069 
L 356.6898 148.056022 
L 357.192 135.999218 
L 357.3594 112.633746 
L 357.5268 211.773791 
L 358.3638 178.426413 
L 359.2008 152.618762 
L 359.8704 136.140678 
L 360.0378 116.032971 
L 360.2052 214.976567 
L 361.0422 180.372169 
L 362.0466 148.388624 
L 362.3814 139.533787 
L 362.5488 116.319004 
L 362.7162 215.073657 
L 363.7206 172.257032 
L 364.725 139.492858 
L 364.8924 134.794596 
L 365.0598 113.788908 
L 365.2272 212.358667 
L 366.2316 166.630199 
L 367.236 131.200465 
L 367.4034 108.98891 
L 367.5708 207.396883 
L 368.5752 158.456534 
L 369.4122 126.009313 
L 369.5796 102.589389 
L 369.747 200.861953 
L 370.7514 148.621862 
L 371.421 120.281683 
L 371.5884 95.210252 
L 371.7558 193.374456 
L 372.7602 137.914337 
L 373.4298 107.792593 
L 373.5972 86.633274 
L 373.7646 184.708269 
L 374.769 125.95541 
L 375.2712 101.569256 
L 375.4386 77.927244 
L 375.606 175.939533 
L 376.6104 114.185715 
L 376.9452 96.78232 
L 377.1126 69.493618 
L 377.28 167.466161 
L 378.2844 103.062877 
L 378.6192 84.945137 
L 378.7866 60.740209 
L 378.954 158.690412 
L 379.9584 91.769497 
L 380.2932 72.987399 
L 380.4606 51.844218 
L 380.628 149.790129 
L 381.6324 80.790904 
L 381.7998 71.777245 
L 381.9672 45.883636 
L 382.1346 144.72 
L 383.139 78.786634 
L 383.3064 69.503655 
L 383.4738 45.883636 
L 383.6412 144.72 
L 384.6456 76.919629 
L 384.813 67.388796 
L 384.9804 45.883636 
L 385.1478 144.72 
L 385.9848 85.45581 
L 386.1522 75.223727 
L 386.3196 45.883636 
L 386.487 144.72 
L 387.324 84.303173 
L 387.4914 73.885762 
L 387.6588 45.883636 
L 387.8262 144.72 
L 388.6632 83.304218 
L 388.8306 72.729126 
L 388.998 45.883636 
L 389.1654 144.72 
L 390.0024 82.475424 
L 390.1698 71.77299 
L 390.3372 45.883636 
L 390.5046 144.72 
L 391.3416 81.83164 
L 391.509 71.034604 
L 391.6764 45.883636 
L 391.8438 144.72 
L 392.6808 81.385916 
L 392.8482 70.529099 
L 393.0156 45.883636 
L 393.183 144.72 
L 393.8526 92.600194 
L 393.8526 92.600194 
" clip-path="url(#p44a12474e1)" style="fill: none; stroke: #1f77b4; stroke-opacity: 0.6; stroke-width: 1.5; stroke-linecap: square"/>
   </g>
   <g id="line2d_16">
    <path d="M 59.22 80.650921 
L 60.2244 80.658937 
L 61.2288 80.880377 
L 62.2332 81.318705 
L 63.2376 81.976138 
L 64.4094 83.021271 
L 65.5812 84.365193 
L 66.9204 86.262934 
L 68.2596 88.538505 
L 69.7662 91.534639 
L 71.4402 95.377393 
L 73.2816 100.181429 
L 75.2904 106.035623 
L 77.634 113.542047 
L 80.6472 123.976821 
L 90.8586 160.048579 
L 93.2022 167.162799 
L 95.211 172.571523 
L 96.885 176.508102 
L 98.3916 179.557842 
L 99.8982 182.104095 
L 101.2374 183.921224 
L 102.4092 185.153248 
L 103.581 186.042434 
L 104.5854 186.527275 
L 105.5898 186.753796 
L 106.5942 186.721224 
L 107.5986 186.430185 
L 108.603 185.882702 
L 109.6074 185.082186 
L 110.7792 183.834911 
L 111.951 182.25974 
L 113.2902 180.074027 
L 114.7968 177.15045 
L 116.4708 173.36932 
L 118.3122 168.631701 
L 120.4884 162.372221 
L 123.1668 153.922354 
L 127.3518 139.848201 
L 131.8716 124.872559 
L 134.3826 117.278348 
L 136.5588 111.394202 
L 138.4002 107.050013 
L 140.0742 103.685011 
L 141.5808 101.181926 
L 142.92 99.405182 
L 144.0918 98.213965 
L 145.0962 97.472118 
L 146.1006 96.994065 
L 147.105 96.784097 
L 147.942 96.816021 
L 148.779 97.037019 
L 149.7834 97.552012 
L 150.7878 98.3385 
L 151.7922 99.394024 
L 152.964 100.960223 
L 154.3032 103.180809 
L 155.6424 105.844362 
L 157.149 109.343816 
L 158.823 113.813831 
L 160.6644 119.370314 
L 162.8406 126.68155 
L 165.519 136.55191 
L 169.2018 151.096615 
L 175.563 176.272794 
L 178.2414 185.913499 
L 180.4176 192.979164 
L 182.4264 198.743461 
L 184.1004 202.911503 
L 185.607 206.122263 
L 186.9462 208.519875 
L 188.2854 210.469517 
L 189.4572 211.797459 
L 190.4616 212.649898 
L 191.466 213.236038 
L 192.4704 213.555011 
L 193.4748 213.607385 
L 194.4792 213.395154 
L 195.4836 212.921724 
L 196.488 212.191892 
L 197.6598 211.024644 
L 198.8316 209.528883 
L 200.1708 207.435753 
L 201.6774 204.621997 
L 203.3514 200.974078 
L 205.1928 196.401277 
L 207.369 190.366545 
L 210.0474 182.2426 
L 214.902 166.615579 
L 218.7522 154.556215 
L 221.2632 147.374907 
L 223.4394 141.81711 
L 225.2808 137.708184 
L 226.9548 134.510806 
L 228.4614 132.110472 
L 229.8006 130.379067 
L 230.9724 129.186621 
L 232.1442 128.302618 
L 233.1486 127.793855 
L 234.153 127.51636 
L 235.1574 127.470089 
L 236.1618 127.653621 
L 237.1662 128.064172 
L 238.1706 128.697612 
L 239.3424 129.710993 
L 240.5142 131.009423 
L 241.8534 132.825408 
L 243.36 135.263875 
L 245.034 138.419295 
L 246.8754 142.363182 
L 249.219 147.961766 
L 252.2322 155.806184 
L 259.5978 175.255161 
L 261.9414 180.688029 
L 263.9502 184.776749 
L 265.6242 187.695144 
L 267.1308 189.889186 
L 268.47 191.463632 
L 269.6418 192.532275 
L 270.8136 193.298893 
L 271.818 193.707458 
L 272.8224 193.880901 
L 273.8268 193.815167 
L 274.8312 193.507513 
L 275.8356 192.95653 
L 276.84 192.16214 
L 278.0118 190.92947 
L 279.1836 189.371549 
L 280.5228 187.201509 
L 282.0294 184.280297 
L 283.536 180.875653 
L 285.21 176.564097 
L 287.2188 170.726057 
L 289.395 163.697065 
L 292.0734 154.254825 
L 295.7562 140.379313 
L 302.4522 115.082747 
L 305.1306 105.858053 
L 307.4742 98.556781 
L 309.483 93.002985 
L 311.3244 88.562706 
L 312.9984 85.113901 
L 314.505 82.51596 
L 315.8442 80.623236 
L 317.1834 79.13039 
L 318.3552 78.154935 
L 319.527 77.488031 
L 320.5314 77.160074 
L 321.5358 77.053948 
L 322.5402 77.165441 
L 323.5446 77.489146 
L 324.7164 78.126196 
L 325.8882 79.030778 
L 327.2274 80.373765 
L 328.734 82.249634 
L 330.408 84.741431 
L 332.2494 87.909379 
L 334.4256 92.115735 
L 337.2714 98.13072 
L 344.9718 114.677179 
L 347.3154 119.038839 
L 349.1568 122.042502 
L 350.8308 124.387214 
L 352.3374 126.146258 
L 353.6766 127.408673 
L 355.0158 128.372513 
L 356.1876 128.962395 
L 357.3594 129.310523 
L 358.5312 129.414268 
L 359.703 129.273261 
L 360.8748 128.889387 
L 362.0466 128.266775 
L 363.3858 127.271113 
L 364.725 125.984871 
L 366.2316 124.211107 
L 367.9056 121.868214 
L 369.747 118.892515 
L 371.9232 114.932681 
L 374.769 109.242703 
L 382.8042 92.836633 
L 384.9804 89.042231 
L 386.8218 86.264058 
L 388.3284 84.346142 
L 389.835 82.790856 
L 391.1742 81.741563 
L 392.346 81.098592 
L 393.5178 80.725532 
L 393.8526 80.670024 
L 393.8526 80.670024 
" clip-path="url(#p44a12474e1)" style="fill: none; stroke: #ff4d00; stroke-opacity: 0.8; stroke-width: 1.5; stroke-linecap: square"/>
   </g>
   <g id="line2d_17">
    <path d="M 59.22 142.711881 
L 59.5548 134.087396 
L 60.057 113.676464 
L 60.2244 103.689564 
L 60.5592 111.879525 
L 60.7266 112.338236 
L 60.894 110.925885 
L 61.2288 103.799973 
L 61.5636 90.641622 
L 61.8984 102.082524 
L 62.0658 103.862386 
L 62.2332 103.604504 
L 62.4006 101.671953 
L 62.7354 93.97835 
L 62.9028 86.613705 
L 63.2376 99.071139 
L 63.405 101.28303 
L 63.5724 101.415438 
L 63.7398 99.837123 
L 64.0746 92.76285 
L 64.242 85.560015 
L 64.5768 98.302142 
L 64.7442 100.661833 
L 64.9116 100.944752 
L 65.079 99.519092 
L 65.4138 92.754714 
L 65.5812 85.552961 
L 65.916 98.32697 
L 66.0834 100.743011 
L 66.2508 101.103738 
L 66.4182 99.773941 
L 66.753 93.244174 
L 66.9204 85.977264 
L 67.2552 98.683152 
L 67.4226 101.125457 
L 67.59 101.544371 
L 67.7574 100.299548 
L 68.0922 94.003066 
L 68.2596 86.63513 
L 68.5944 99.221877 
L 68.7618 101.679818 
L 68.9292 102.153992 
L 69.0966 100.997548 
L 69.4314 94.955645 
L 69.7662 83.639095 
L 70.101 97.028407 
L 70.2684 99.892338 
L 70.4358 100.772585 
L 70.6032 100.020493 
L 70.938 94.776489 
L 71.1054 90.759163 
L 71.2728 83.823062 
L 71.6076 97.232746 
L 71.9424 101.229696 
L 72.1098 100.666951 
L 72.4446 95.8908 
L 72.612 92.140413 
L 72.7794 85.020438 
L 73.1142 98.206174 
L 73.449 102.298722 
L 73.6164 101.871407 
L 73.9512 97.50244 
L 74.286 89.936344 
L 74.4534 83.19755 
L 74.7882 97.21636 
L 75.123 102.465052 
L 75.2904 102.718594 
L 75.4578 101.777212 
L 75.7926 97.220504 
L 76.1274 90.292965 
L 76.2948 84.319241 
L 76.6296 99.869935 
L 76.9644 106.880053 
L 77.1318 108.065914 
L 77.2992 108.077054 
L 77.4666 107.141444 
L 77.8014 103.177438 
L 78.1362 97.401074 
L 78.3036 92.046493 
L 78.6384 108.856025 
L 78.9732 117.41964 
L 79.308 120.341096 
L 79.4754 120.303057 
L 79.6428 119.524179 
L 79.9776 116.35173 
L 80.3124 111.819695 
L 80.4798 106.754942 
L 80.982 129.927998 
L 81.3168 136.698821 
L 81.6516 139.070115 
L 81.819 139.099744 
L 81.9864 138.565014 
L 82.3212 136.286711 
L 82.8234 131.211224 
L 82.9908 126.524929 
L 83.493 151.154082 
L 83.8278 159.402997 
L 84.1626 163.47111 
L 84.4974 164.771582 
L 84.6648 164.716589 
L 84.9996 163.694875 
L 85.6692 159.930138 
L 85.8366 158.912708 
L 86.004 160.551308 
L 86.5062 125.350469 
L 87.0084 138.077925 
L 87.5106 146.337676 
L 88.1802 153.834798 
L 89.1846 162.628061 
L 89.352 166.716952 
L 89.8542 140.792421 
L 90.189 132.350521 
L 90.5238 128.797672 
L 90.6912 128.421508 
L 90.8586 128.794369 
L 91.1934 131.344286 
L 91.6956 138.392669 
L 91.863 141.337704 
L 92.0304 146.763861 
L 92.3652 130.417421 
L 92.7 122.474984 
L 92.8674 120.886096 
L 93.0348 120.55884 
L 93.2022 121.29079 
L 93.537 125.26124 
L 94.0392 135.545959 
L 94.2066 142.473979 
L 94.5414 128.895672 
L 94.8762 123.695377 
L 95.0436 123.443342 
L 95.211 124.420632 
L 95.5458 129.261752 
L 96.048 141.431817 
L 96.2154 148.882902 
L 96.5502 136.320823 
L 96.885 132.291223 
L 97.0524 132.651236 
L 97.3872 136.859261 
L 97.8894 149.101681 
L 98.0568 156.900707 
L 98.3916 144.982234 
L 98.559 142.438686 
L 98.7264 141.686954 
L 98.8938 142.426925 
L 99.2286 147.389658 
L 99.7308 160.688022 
L 99.8982 168.286823 
L 100.233 156.075042 
L 100.4004 153.477561 
L 100.5678 152.71649 
L 100.7352 153.481215 
L 101.07 158.561557 
L 101.4048 167.018196 
L 101.5722 174.874872 
L 101.907 163.075576 
L 102.0744 160.674385 
L 102.2418 160.099417 
L 102.4092 161.038046 
L 102.744 166.423614 
L 103.0788 175.122024 
L 103.2462 182.829166 
L 103.581 170.757714 
L 103.7484 168.252867 
L 103.9158 167.588335 
L 104.0832 168.44695 
L 104.418 173.686529 
L 104.7528 182.239085 
L 104.9202 189.720181 
L 105.255 177.231253 
L 105.4224 174.541442 
L 105.5898 173.70225 
L 105.7572 174.393162 
L 106.092 179.307456 
L 106.4268 187.534575 
L 106.5942 194.800205 
L 106.929 181.892208 
L 107.2638 177.948381 
L 107.4312 178.429906 
L 107.766 182.916494 
L 108.1008 190.699511 
L 108.2682 197.786446 
L 108.603 184.502451 
L 108.9378 180.125204 
L 109.1052 180.371588 
L 109.2726 181.860071 
L 109.6074 187.659806 
L 109.7748 191.600585 
L 109.9422 198.555464 
L 110.277 184.956563 
L 110.6118 180.144094 
L 110.7792 180.137609 
L 110.9466 181.353958 
L 111.2814 186.561943 
L 111.4488 190.187435 
L 111.6162 197.061568 
L 111.951 183.218392 
L 112.2858 177.979699 
L 112.4532 177.708364 
L 112.6206 178.632402 
L 112.9554 183.190263 
L 113.2902 190.208176 
L 113.4576 196.490991 
L 113.7924 181.553966 
L 114.1272 175.180354 
L 114.2946 174.333427 
L 114.462 174.679449 
L 114.7968 178.080935 
L 115.1316 183.950866 
L 115.299 190.181584 
L 115.6338 175.013541 
L 115.9686 168.11121 
L 116.136 166.91806 
L 116.3034 166.875872 
L 116.4708 167.766769 
L 116.8056 171.632148 
L 117.1404 177.336761 
L 117.3078 183.163706 
L 117.6426 167.174345 
L 117.9774 159.227356 
L 118.3122 156.805386 
L 118.4796 157.068885 
L 118.8144 159.640051 
L 119.3166 166.633963 
L 119.484 172.151988 
L 119.8188 155.475946 
L 120.1536 146.513699 
L 120.4884 142.864217 
L 120.6558 142.461795 
L 120.8232 142.768526 
L 121.158 144.945805 
L 121.6602 150.523291 
L 121.8276 152.681204 
L 121.995 157.672836 
L 122.4972 133.980915 
L 122.832 126.40462 
L 123.1668 123.035776 
L 123.3342 122.468385 
L 123.5016 122.45276 
L 123.669 122.870954 
L 124.0038 124.623845 
L 124.8408 131.228547 
L 125.0082 129.805552 
L 125.343 156.578297 
L 125.8452 148.755548 
L 126.3474 144.076042 
L 127.017 140.002648 
L 128.3562 132.491645 
L 128.5236 128.661949 
L 129.0258 155.13869 
L 129.3606 163.866982 
L 129.6954 167.653361 
L 129.8628 168.128824 
L 130.0302 167.844578 
L 130.365 165.442008 
L 130.8672 158.545795 
L 131.0346 155.634216 
L 131.202 149.949384 
L 131.5368 165.859973 
L 131.8716 173.500996 
L 132.039 174.974681 
L 132.2064 175.204057 
L 132.3738 174.387604 
L 132.7086 170.275167 
L 133.2108 159.807058 
L 133.5456 148.859936 
L 133.8804 162.759251 
L 134.2152 168.135758 
L 134.3826 168.430611 
L 134.55 167.469825 
L 134.8848 162.592199 
L 135.387 150.221463 
L 135.5544 142.69617 
L 135.8892 155.069977 
L 136.224 158.840225 
L 136.3914 158.327386 
L 136.7262 153.772911 
L 137.2284 140.921464 
L 137.3958 133.03151 
L 137.7306 144.712466 
L 137.898 147.089838 
L 138.0654 147.648707 
L 138.2328 146.692255 
L 138.5676 141.235981 
L 139.0698 127.075904 
L 139.2372 119.421179 
L 139.572 131.426689 
L 139.7394 133.842495 
L 139.9068 134.378954 
L 140.0742 133.352536 
L 140.409 127.657068 
L 140.7438 118.489063 
L 140.9112 110.606093 
L 141.246 122.223137 
L 141.4134 124.425329 
L 141.5808 124.743193 
L 141.7482 123.497932 
L 142.083 117.378992 
L 142.4178 107.825024 
L 142.5852 100.136674 
L 142.92 112.07538 
L 143.0874 114.373793 
L 143.2548 114.757184 
L 143.4222 113.554297 
L 143.757 107.47517 
L 144.0918 97.93279 
L 144.2592 90.524405 
L 144.594 102.945824 
L 144.7614 105.42859 
L 144.9288 105.968955 
L 145.0962 104.902138 
L 145.431 99.199226 
L 145.5984 95.043548 
L 145.7658 87.537101 
L 146.1006 100.046312 
L 146.268 102.673388 
L 146.4354 103.412832 
L 146.6028 102.592099 
L 146.9376 97.350098 
L 147.105 93.372471 
L 147.2724 86.088482 
L 147.6072 98.95371 
L 147.7746 101.719706 
L 147.942 102.578441 
L 148.1094 101.861309 
L 148.4442 96.792336 
L 148.6116 92.889385 
L 148.779 85.669705 
L 149.1138 98.646459 
L 149.2812 101.469162 
L 149.4486 102.386267 
L 149.616 101.729762 
L 149.9508 96.790607 
L 150.1182 92.957502 
L 150.2856 85.728754 
L 150.6204 98.709753 
L 150.9552 102.524627 
L 151.1226 101.927254 
L 151.4574 97.141707 
L 151.7922 89.003986 
L 151.9596 82.301538 
L 152.2944 96.168605 
L 152.6292 100.776236 
L 152.7966 100.546981 
L 152.964 99.024444 
L 153.2988 93.036102 
L 153.6336 82.27259 
L 153.9684 96.258518 
L 154.3032 101.214951 
L 154.4706 101.236328 
L 154.638 100.010852 
L 154.9728 94.745006 
L 155.1402 91.083743 
L 155.3076 84.448393 
L 155.6424 98.698235 
L 155.9772 104.228885 
L 156.1446 104.622837 
L 156.312 103.813867 
L 156.6468 99.481798 
L 156.9816 92.706881 
L 157.149 86.676048 
L 157.4838 102.096934 
L 157.8186 108.941952 
L 157.986 110.027592 
L 158.1534 109.925321 
L 158.3208 108.862526 
L 158.6556 104.601942 
L 158.823 101.709205 
L 158.9904 95.697945 
L 159.3252 111.339641 
L 159.66 118.811479 
L 159.8274 120.320984 
L 159.9948 120.698601 
L 160.1622 120.160874 
L 160.497 117.050314 
L 160.9992 109.316537 
L 161.1666 104.164906 
L 161.5014 121.420013 
L 161.8362 130.682005 
L 162.171 134.452735 
L 162.3384 134.872582 
L 162.5058 134.564346 
L 162.8406 132.350304 
L 163.3428 126.697667 
L 163.5102 124.521929 
L 163.6776 119.994549 
L 164.1798 144.758034 
L 164.5146 152.79502 
L 164.8494 156.50831 
L 165.0168 157.221057 
L 165.1842 157.371068 
L 165.3516 157.080502 
L 165.6864 155.576203 
L 166.5234 149.662272 
L 166.6908 148.483813 
L 166.8582 144.713227 
L 167.193 167.593657 
L 167.6952 155.588229 
L 168.1974 148.648545 
L 168.5322 146.161328 
L 168.867 145.038053 
L 169.0344 144.914661 
L 169.2018 145.050596 
L 169.5366 146.01706 
L 169.8714 147.791206 
L 170.3736 151.713381 
L 170.541 155.794562 
L 171.0432 130.485515 
L 171.378 122.902263 
L 171.7128 120.450602 
L 171.8802 120.693557 
L 172.215 123.415259 
L 172.7172 131.52019 
L 172.8846 134.973212 
L 173.052 141.073653 
L 173.3868 126.06414 
L 173.7216 119.589229 
L 173.889 118.772347 
L 174.0564 119.238166 
L 174.3912 123.226473 
L 174.8934 134.563285 
L 175.2282 146.395852 
L 175.563 133.370675 
L 175.8978 129.203998 
L 176.0652 129.607759 
L 176.4 134.110428 
L 176.9022 147.267435 
L 177.0696 155.217376 
L 177.4044 143.792817 
L 177.5718 141.64309 
L 177.7392 141.371142 
L 177.9066 142.669248 
L 178.2414 148.957275 
L 178.5762 158.817677 
L 178.7436 167.17921 
L 179.0784 156.556723 
L 179.2458 154.892887 
L 179.4132 155.144089 
L 179.5806 156.990922 
L 179.9154 164.415451 
L 180.2502 175.416294 
L 180.4176 183.569593 
L 180.7524 172.706644 
L 180.9198 171.081896 
L 181.0872 171.451252 
L 181.2546 173.478672 
L 181.5894 181.397287 
L 181.9242 195.23341 
L 182.259 184.491238 
L 182.4264 182.737767 
L 182.5938 182.868968 
L 182.7612 184.55959 
L 183.096 191.546197 
L 183.4308 203.640916 
L 183.7656 190.88108 
L 183.933 188.415957 
L 184.1004 187.99304 
L 184.2678 189.261933 
L 184.6026 195.718914 
L 184.77 203.049312 
L 185.1048 190.49239 
L 185.2722 188.187021 
L 185.4396 187.951137 
L 185.607 189.427301 
L 185.9418 196.336734 
L 186.1092 203.584887 
L 186.444 190.942831 
L 186.6114 188.670022 
L 186.7788 188.503668 
L 186.9462 190.078318 
L 187.281 197.245448 
L 187.4484 204.37263 
L 187.7832 191.574496 
L 187.9506 189.293945 
L 188.118 189.154639 
L 188.2854 190.783745 
L 188.6202 198.117905 
L 188.7876 205.128944 
L 189.1224 192.173988 
L 189.2898 189.873267 
L 189.4572 189.742461 
L 189.6246 191.402531 
L 189.9594 198.845767 
L 190.1268 205.759911 
L 190.4616 192.670533 
L 190.629 190.346265 
L 190.7964 190.213098 
L 190.9638 191.887163 
L 191.2986 199.39175 
L 191.466 206.233213 
L 191.8008 193.039733 
L 191.9682 190.691577 
L 192.1356 190.547741 
L 192.303 192.220982 
L 192.6378 199.742535 
L 192.8052 206.5373 
L 193.14 193.272881 
L 193.3074 190.901615 
L 193.4748 190.739765 
L 193.6422 192.398201 
L 193.977 199.893751 
L 194.1444 206.668386 
L 194.4792 193.367189 
L 194.6466 190.97408 
L 194.814 190.787369 
L 194.9814 192.417533 
L 195.3162 199.845191 
L 195.4836 206.62629 
L 195.8184 193.32266 
L 195.9858 190.909262 
L 196.1532 190.691238 
L 196.3206 192.280153 
L 196.6554 199.599264 
L 196.8228 206.413102 
L 197.1576 193.141089 
L 197.325 190.709161 
L 197.4924 190.45377 
L 197.6598 191.989026 
L 197.9946 199.160481 
L 198.162 206.03273 
L 198.4968 192.825715 
L 198.6642 190.377186 
L 198.8316 190.078814 
L 198.999 191.548666 
L 199.3338 198.53524 
L 199.5012 205.490722 
L 199.836 192.381087 
L 200.0034 189.918027 
L 200.1708 189.571543 
L 200.3382 190.965021 
L 200.673 197.731712 
L 200.8404 204.794162 
L 201.1752 191.812979 
L 201.3426 189.33758 
L 201.51 188.938385 
L 201.6774 190.245387 
L 202.0122 196.759739 
L 202.1796 203.95158 
L 202.5144 191.128322 
L 202.6818 188.642875 
L 202.8492 188.186938 
L 203.0166 189.398327 
L 203.3514 195.630724 
L 203.5188 202.972862 
L 203.8536 190.335126 
L 204.021 187.841999 
L 204.1884 187.325894 
L 204.3558 188.433577 
L 204.6906 194.357513 
L 205.0254 205.631114 
L 205.3602 192.261161 
L 205.5276 189.371324 
L 205.695 188.445312 
L 205.8624 189.134244 
L 206.1972 194.208181 
L 206.3646 198.122214 
L 206.532 205.132679 
L 206.8668 191.808919 
L 207.2016 187.750242 
L 207.369 188.240013 
L 207.7038 192.80665 
L 208.0386 200.69082 
L 208.206 207.359348 
L 208.5408 193.355286 
L 208.8756 188.356708 
L 209.043 188.289675 
L 209.2104 189.447456 
L 209.5452 194.500985 
L 209.7126 198.014223 
L 209.88 204.588693 
L 210.2148 190.12675 
L 210.5496 184.187505 
L 210.717 183.525149 
L 210.8844 184.027704 
L 211.2192 187.646035 
L 211.554 193.592968 
L 211.7214 199.568079 
L 212.0562 183.883559 
L 212.391 176.46276 
L 212.5584 175.00023 
L 212.7258 174.678588 
L 212.8932 175.278318 
L 213.228 178.52229 
L 213.5628 183.550983 
L 213.7302 189.06657 
L 214.065 172.426011 
L 214.3998 163.746302 
L 214.7346 160.528219 
L 214.902 160.375111 
L 215.0694 160.944739 
L 215.4042 163.669096 
L 215.9064 170.070581 
L 216.0738 174.924728 
L 216.576 151.128382 
L 216.9108 143.861673 
L 217.2456 140.991517 
L 217.413 140.722949 
L 217.5804 141.030468 
L 217.9152 142.900323 
L 218.5848 149.259864 
L 218.7522 151.041474 
L 218.9196 155.240961 
L 219.4218 129.476203 
L 219.7566 120.607764 
L 220.0914 116.046483 
L 220.4262 114.386611 
L 220.5936 114.313253 
L 220.761 114.606254 
L 220.9284 112.384456 
L 221.4306 144.632769 
L 221.9328 163.124368 
L 222.6024 177.171566 
L 223.1046 149.778723 
L 223.6068 133.514165 
L 224.109 123.940631 
L 224.7786 114.386627 
L 225.2808 141.780514 
L 225.783 155.15777 
L 226.1178 158.963622 
L 226.2852 159.762241 
L 226.4526 159.971203 
L 226.62 159.681698 
L 226.9548 157.910906 
L 227.457 153.15796 
L 227.6244 151.195694 
L 227.7918 146.483776 
L 228.294 170.204108 
L 228.6288 177.098206 
L 228.9636 179.204607 
L 229.131 178.924885 
L 229.4658 176.407838 
L 229.968 169.307024 
L 230.3028 163.253272 
L 230.4702 157.343392 
L 230.805 173.008925 
L 231.1398 180.82908 
L 231.3072 182.540245 
L 231.4746 183.100264 
L 231.642 182.703815 
L 231.9768 179.68527 
L 232.479 171.444176 
L 232.8138 164.528271 
L 232.9812 158.127623 
L 233.316 172.926032 
L 233.6508 179.954706 
L 233.8182 181.305444 
L 233.9856 181.531042 
L 234.153 180.827418 
L 234.4878 177.279285 
L 234.99 168.459422 
L 235.3248 161.299392 
L 235.4922 154.991048 
L 235.827 169.971347 
L 236.1618 177.186271 
L 236.3292 178.638395 
L 236.4966 178.973439 
L 236.664 178.388746 
L 236.9988 175.111083 
L 237.501 166.787682 
L 237.8358 160.022169 
L 238.0032 153.827624 
L 238.338 169.086728 
L 238.6728 176.696888 
L 239.0076 178.973832 
L 239.175 178.663916 
L 239.5098 175.986455 
L 240.012 168.667909 
L 240.5142 159.450443 
L 240.6816 153.725564 
L 241.0164 169.888169 
L 241.3512 178.490012 
L 241.686 181.819118 
L 241.8534 182.051298 
L 242.0208 181.557889 
L 242.3556 178.937172 
L 242.8578 172.469087 
L 244.5318 148.511405 
L 245.3688 139.38841 
L 246.0384 134.205244 
L 246.5406 131.598116 
L 246.8754 130.448763 
L 247.0428 127.446187 
L 247.545 156.976584 
L 248.0472 172.75722 
L 248.382 181.087406 
L 248.8842 155.247883 
L 249.3864 141.097988 
L 249.7212 136.066325 
L 250.056 133.539343 
L 250.2234 133.012325 
L 250.3908 132.889477 
L 250.5582 133.116562 
L 250.893 134.439137 
L 251.3952 138.062805 
L 251.5626 139.597942 
L 251.73 143.805822 
L 252.2322 118.801087 
L 252.567 111.208104 
L 252.9018 108.569163 
L 253.0692 108.652177 
L 253.2366 109.477159 
L 253.5714 112.892111 
L 254.0736 121.09711 
L 254.241 124.383695 
L 254.4084 130.445804 
L 254.7432 115.20681 
L 255.078 108.088153 
L 255.2454 106.824169 
L 255.4128 106.772555 
L 255.5802 107.736593 
L 255.915 112.060573 
L 256.4172 122.661796 
L 256.752 133.84787 
L 257.0868 120.300028 
L 257.4216 115.058181 
L 257.589 114.766674 
L 257.7564 115.695746 
L 258.0912 120.423592 
L 258.5934 132.410797 
L 258.9282 144.444761 
L 259.263 131.485437 
L 259.5978 127.127385 
L 259.7652 127.348229 
L 259.9326 128.819931 
L 260.2674 134.685079 
L 260.7696 148.400576 
L 260.937 155.791967 
L 261.2718 143.256606 
L 261.6066 139.546033 
L 261.774 140.142679 
L 262.1088 144.929859 
L 262.611 158.202896 
L 262.7784 165.845634 
L 263.1132 153.781214 
L 263.2806 151.294351 
L 263.448 150.666795 
L 263.6154 151.586842 
L 263.9502 157.039554 
L 264.285 165.945772 
L 264.4524 173.916691 
L 264.7872 162.418723 
L 264.9546 160.229561 
L 265.122 159.9023 
L 265.2894 161.121038 
L 265.6242 167.153075 
L 265.959 176.598164 
L 266.1264 184.410647 
L 266.4612 172.671546 
L 266.6286 170.436706 
L 266.796 170.100105 
L 266.9634 171.33754 
L 267.2982 177.46398 
L 267.633 187.044279 
L 267.8004 194.59098 
L 268.1352 182.417999 
L 268.3026 180.041156 
L 268.47 179.599512 
L 268.6374 180.760904 
L 268.9722 186.796225 
L 269.1396 191.2192 
L 269.307 199.083072 
L 269.6418 187.276269 
L 269.8092 184.935618 
L 269.9766 184.448676 
L 270.144 185.493738 
L 270.4788 191.11896 
L 270.6462 195.263378 
L 270.8136 202.654418 
L 271.1484 189.977446 
L 271.3158 187.310056 
L 271.4832 186.553484 
L 271.6506 187.376666 
L 271.9854 192.670405 
L 272.1528 196.692449 
L 272.3202 203.893248 
L 272.655 190.916033 
L 272.8224 188.137478 
L 272.9898 187.289272 
L 273.1572 188.036403 
L 273.492 193.211869 
L 273.6594 197.186428 
L 273.8268 204.321467 
L 274.1616 191.235415 
L 274.329 188.408507 
L 274.4964 187.514001 
L 274.6638 188.2157 
L 274.9986 193.299138 
L 275.166 197.225626 
L 275.3334 204.355448 
L 275.6682 191.248322 
L 275.8356 188.393929 
L 276.003 187.461978 
L 276.1704 188.117137 
L 276.5052 193.083227 
L 276.6726 196.940224 
L 276.84 204.108038 
L 277.1748 191.039516 
L 277.5096 187.196773 
L 277.677 187.795754 
L 278.0118 192.605443 
L 278.3466 200.78521 
L 278.514 207.441172 
L 278.8488 193.506947 
L 279.1836 188.87661 
L 279.351 189.106238 
L 279.5184 190.634925 
L 279.8532 196.648187 
L 280.188 207.406406 
L 280.5228 193.402777 
L 280.8576 188.475371 
L 281.025 188.480596 
L 281.1924 189.738518 
L 281.5272 195.081753 
L 281.6946 198.785977 
L 281.862 205.420105 
L 282.1968 191.183917 
L 282.5316 185.697112 
L 282.699 185.33318 
L 282.8664 186.176264 
L 283.2012 190.5859 
L 283.536 197.447187 
L 283.7034 203.471 
L 284.0382 188.053873 
L 284.373 181.248552 
L 284.5404 180.193056 
L 284.7078 180.331021 
L 284.8752 181.434272 
L 285.21 185.787522 
L 285.3774 188.731462 
L 285.5448 194.730249 
L 285.8796 179.088068 
L 286.2144 171.66514 
L 286.3818 170.194492 
L 286.5492 169.863611 
L 286.7166 170.454895 
L 287.0514 173.689589 
L 287.3862 178.724019 
L 287.5536 184.390608 
L 287.8884 168.013941 
L 288.2232 159.527373 
L 288.558 156.450482 
L 288.7254 156.352329 
L 288.8928 156.967817 
L 289.2276 159.758977 
L 289.7298 166.201992 
L 289.8972 171.189449 
L 290.3994 147.6503 
L 290.7342 140.415002 
L 291.069 137.484075 
L 291.2364 137.154044 
L 291.4038 137.380697 
L 291.7386 139.0333 
L 292.4082 144.746577 
L 292.5756 146.323357 
L 292.743 150.642234 
L 293.2452 124.901422 
L 293.58 115.721363 
L 293.9148 110.645856 
L 294.0822 109.203228 
L 294.2496 105.688171 
L 294.7518 135.153759 
L 295.254 151.74636 
L 295.5888 157.857588 
L 295.9236 161.087779 
L 296.2584 162.110219 
L 296.4258 161.958086 
L 296.7606 160.585261 
L 297.2628 156.445241 
L 297.4302 154.63459 
L 297.5976 150.135629 
L 297.9324 168.25437 
L 298.2672 178.146307 
L 298.602 182.043971 
L 298.7694 182.281791 
L 298.9368 181.607143 
L 299.2716 178.067035 
L 299.7738 168.863402 
L 299.9412 165.080913 
L 300.1086 158.54499 
L 300.4434 172.775276 
L 300.7782 178.621299 
L 300.9456 179.172328 
L 301.113 178.469532 
L 301.4478 174.084895 
L 301.95 162.319304 
L 302.2848 150.104304 
L 302.6196 162.675186 
L 302.9544 166.55762 
L 303.1218 166.062785 
L 303.4566 161.46004 
L 303.9588 148.312094 
L 304.1262 140.177502 
L 304.461 151.330789 
L 304.6284 153.414918 
L 304.7958 153.659199 
L 304.9632 152.365883 
L 305.298 146.166497 
L 305.6328 136.475508 
L 305.8002 127.977102 
L 306.135 138.423488 
L 306.3024 140.073033 
L 306.4698 139.846744 
L 306.6372 138.057832 
L 306.972 130.827536 
L 307.3068 120.097886 
L 307.4742 111.821816 
L 307.809 122.541544 
L 307.9764 124.173695 
L 308.1438 123.853212 
L 308.3112 121.909182 
L 308.646 114.237841 
L 308.9808 100.447494 
L 309.3156 110.73172 
L 309.483 112.091597 
L 309.6504 111.475405 
L 309.9852 105.930236 
L 310.32 96.52465 
L 310.4874 88.821035 
L 310.8222 100.874712 
L 310.9896 103.119184 
L 311.157 103.391588 
L 311.3244 102.031064 
L 311.6592 95.530131 
L 311.994 83.901384 
L 312.3288 97.116191 
L 312.4962 99.74201 
L 312.6636 100.291353 
L 312.831 99.12091 
L 313.1658 92.797546 
L 313.3332 85.590091 
L 313.668 98.337926 
L 313.8354 100.709782 
L 314.0028 100.998031 
L 314.1702 99.56326 
L 314.505 92.713893 
L 314.6724 85.517575 
L 315.0072 98.243369 
L 315.1746 100.550608 
L 315.342 100.748477 
L 315.5094 99.203635 
L 315.8442 92.094779 
L 316.0116 84.980879 
L 316.3464 97.807402 
L 316.5138 100.109943 
L 316.6812 100.276098 
L 316.8486 98.678443 
L 317.1834 91.419945 
L 317.3508 84.39588 
L 317.6856 97.342659 
L 317.853 99.659009 
L 318.0204 99.816296 
L 318.1878 98.192102 
L 318.5226 90.843816 
L 318.69 83.896447 
L 319.0248 96.949773 
L 319.1922 99.285101 
L 319.3596 99.444818 
L 319.527 97.810353 
L 319.8618 90.415909 
L 320.0292 83.525503 
L 320.364 96.660962 
L 320.5314 99.01606 
L 320.6988 99.185658 
L 320.8662 97.553792 
L 321.201 90.151125 
L 321.3684 83.295967 
L 321.7032 96.485817 
L 321.8706 98.85997 
L 322.038 99.045471 
L 322.2054 97.427712 
L 322.5402 90.052184 
L 322.7076 83.210198 
L 323.0424 96.425925 
L 323.2098 98.817833 
L 323.3772 99.024565 
L 323.5446 97.431635 
L 323.8794 90.116806 
L 324.0468 83.266217 
L 324.3816 96.479544 
L 324.549 98.887628 
L 324.7164 99.120429 
L 324.8838 97.56238 
L 325.2186 90.340041 
L 325.386 83.459734 
L 325.7208 96.643123 
L 325.8882 99.065636 
L 326.0556 99.328891 
L 326.223 97.815082 
L 326.5578 90.71506 
L 326.7252 83.78483 
L 327.06 96.911826 
L 327.2274 99.346903 
L 327.3948 99.644528 
L 327.5622 98.183553 
L 327.897 91.233471 
L 328.0644 84.234229 
L 328.3992 97.27974 
L 328.5666 99.725422 
L 328.734 100.060836 
L 328.9014 98.66046 
L 329.2362 91.885486 
L 329.4036 84.799447 
L 329.7384 97.739988 
L 329.9058 100.19425 
L 330.0732 100.570348 
L 330.2406 99.237433 
L 330.5754 92.660059 
L 330.7428 85.470907 
L 331.0776 98.284824 
L 331.245 100.745593 
L 331.4124 101.164726 
L 331.5798 99.905174 
L 331.9146 93.545011 
L 332.082 86.238053 
L 332.4168 98.905722 
L 332.5842 101.370903 
L 332.7516 101.834856 
L 332.919 100.653559 
L 333.2538 94.527172 
L 333.5886 83.219118 
L 333.9234 96.691204 
L 334.0908 99.557203 
L 334.2582 100.418324 
L 334.4256 99.628963 
L 334.7604 94.265878 
L 334.9278 90.17072 
L 335.0952 83.312954 
L 335.43 96.81939 
L 335.7648 100.777904 
L 335.9322 100.156508 
L 336.267 95.201132 
L 336.4344 91.335442 
L 336.6018 84.322626 
L 336.9366 97.638363 
L 337.2714 101.667792 
L 337.4388 101.152616 
L 337.7736 96.50963 
L 338.1084 88.51144 
L 338.2758 81.874561 
L 338.6106 95.86741 
L 338.9454 100.654143 
L 339.1128 100.54534 
L 339.2802 99.170278 
L 339.615 93.570551 
L 339.7824 89.733782 
L 339.9498 83.09594 
L 340.2846 97.290215 
L 340.6194 102.671413 
L 340.7868 102.966102 
L 340.9542 102.045448 
L 341.289 97.460524 
L 341.6238 90.401248 
L 341.7912 84.389682 
L 342.126 99.784203 
L 342.4608 106.465342 
L 342.6282 107.425758 
L 342.7956 107.172547 
L 343.1304 103.907719 
L 343.4652 98.123966 
L 343.6326 92.131441 
L 343.9674 107.686631 
L 344.3022 114.810605 
L 344.4696 116.063657 
L 344.637 116.136142 
L 344.8044 115.248387 
L 345.1392 111.315102 
L 345.474 105.451719 
L 345.6414 99.803564 
L 345.9762 116.013687 
L 346.311 123.915032 
L 346.4784 125.581151 
L 346.6458 126.074132 
L 346.8132 125.609028 
L 347.148 122.51072 
L 347.6502 114.449935 
L 347.8176 109.08363 
L 348.1524 125.817569 
L 348.4872 134.35496 
L 348.822 137.199582 
L 348.9894 137.081417 
L 349.1568 136.18552 
L 349.4916 132.648175 
L 349.8264 127.552323 
L 349.9938 121.857748 
L 350.3286 138.096377 
L 350.6634 146.439213 
L 350.9982 149.284468 
L 351.1656 149.214953 
L 351.333 148.389588 
L 351.6678 145.034821 
L 352.17 137.341094 
L 352.3374 131.703474 
L 352.6722 148.042318 
L 353.007 156.580398 
L 353.3418 159.664042 
L 353.5092 159.718017 
L 353.6766 159.01421 
L 354.0114 155.886003 
L 354.5136 148.462327 
L 354.681 145.572346 
L 354.8484 140.026762 
L 355.1832 156.491353 
L 355.518 165.17018 
L 355.8528 168.38193 
L 356.0202 168.489121 
L 356.1876 167.828956 
L 356.5224 164.754346 
L 357.0246 157.315081 
L 357.192 154.392572 
L 357.3594 148.521188 
L 357.6942 164.405441 
L 358.029 172.610163 
L 358.3638 175.411048 
L 358.5312 175.326528 
L 358.6986 174.479705 
L 359.0334 171.037543 
L 359.5356 163.035831 
L 359.8704 156.669264 
L 360.0378 150.980406 
L 360.3726 167.074228 
L 360.7074 175.30662 
L 361.0422 177.989475 
L 361.2096 177.800357 
L 361.5444 175.198404 
L 362.0466 167.573492 
L 362.3814 161.046844 
L 362.5488 154.816095 
L 362.8836 169.929268 
L 363.2184 177.225693 
L 363.3858 178.687448 
L 363.5532 179.006143 
L 363.7206 178.375762 
L 364.0554 174.907137 
L 364.5576 166.013087 
L 364.8924 158.656029 
L 365.0598 152.382108 
L 365.3946 167.304044 
L 365.7294 174.192079 
L 365.8968 175.388276 
L 366.0642 175.409047 
L 366.2316 174.453685 
L 366.5664 170.27159 
L 367.0686 160.199805 
L 367.4034 149.574026 
L 367.7382 163.78916 
L 368.073 169.850099 
L 368.2404 170.602035 
L 368.4078 170.164104 
L 368.7426 166.501215 
L 369.2448 156.28379 
L 369.5796 145.074141 
L 369.9144 158.579758 
L 370.2492 163.800537 
L 370.4166 164.100101 
L 370.584 163.195239 
L 370.9188 158.571145 
L 371.421 146.889493 
L 371.5884 139.527864 
L 371.9232 152.330947 
L 372.258 156.721959 
L 372.4254 156.576244 
L 372.5928 155.213038 
L 372.9276 149.649857 
L 373.4298 136.550532 
L 373.5972 129.339965 
L 373.932 142.276829 
L 374.2668 146.457659 
L 374.4342 146.113689 
L 374.769 141.853159 
L 375.2712 129.389138 
L 375.4386 121.888193 
L 375.7734 134.258348 
L 375.9408 136.918888 
L 376.1082 137.728328 
L 376.2756 136.994761 
L 376.6104 131.916446 
L 376.9452 123.369449 
L 377.1126 115.465053 
L 377.4474 127.100289 
L 377.6148 129.363971 
L 377.7822 129.764873 
L 377.9496 128.615867 
L 378.2844 122.701351 
L 378.6192 113.330624 
L 378.7866 105.512131 
L 379.1214 117.211872 
L 379.2888 119.404772 
L 379.4562 119.682891 
L 379.6236 118.369366 
L 379.9584 112.034341 
L 380.2932 102.165432 
L 380.4606 94.562416 
L 380.7954 106.545455 
L 380.9628 108.761969 
L 381.1302 109.003527 
L 381.2976 107.60467 
L 381.6324 101.026488 
L 381.7998 96.422666 
L 381.9672 88.732628 
L 382.302 100.88447 
L 382.4694 103.277567 
L 382.6368 103.750133 
L 382.8042 102.632108 
L 383.139 96.712605 
L 383.4738 85.209283 
L 383.8086 98.185212 
L 383.976 100.837567 
L 384.1434 101.489228 
L 384.3108 100.483547 
L 384.6456 94.632848 
L 384.9804 83.384489 
L 385.3152 96.766728 
L 385.4826 99.516426 
L 385.65 100.21094 
L 385.8174 99.203514 
L 386.1522 93.248096 
L 386.3196 85.980663 
L 386.6544 98.680107 
L 386.8218 101.102356 
L 386.9892 101.480187 
L 387.1566 100.167627 
L 387.4914 93.638725 
L 387.6588 86.319291 
L 387.9936 98.9017 
L 388.161 101.230966 
L 388.3284 101.49975 
L 388.4958 100.066283 
L 388.8306 93.273623 
L 388.998 86.002792 
L 389.3328 98.636222 
L 389.5002 100.947628 
L 389.6676 101.177342 
L 389.835 99.688302 
L 390.1698 92.75035 
L 390.3372 85.549179 
L 390.672 98.27343 
L 390.8394 100.591151 
L 391.0068 100.808026 
L 391.1742 99.29122 
L 391.509 92.266742 
L 391.6764 85.12995 
L 392.0112 97.94263 
L 392.1786 100.274452 
L 392.346 100.490887 
L 392.5134 98.962475 
L 392.8482 91.892285 
L 393.0156 84.805341 
L 393.3504 97.689453 
L 393.5178 100.037798 
L 393.6852 100.261855 
L 393.8526 98.73453 
L 393.8526 98.73453 
" clip-path="url(#p44a12474e1)" style="fill: none; stroke: #003dde; stroke-width: 1.5; stroke-linecap: square"/>
   </g>
   <g id="patch_3">
    <path d="M 59.22 253.44 
L 59.22 36 
" style="fill: none; stroke: #000000; stroke-width: 0.8; stroke-linejoin: miter; stroke-linecap: square"/>
   </g>
   <g id="patch_4">
    <path d="M 394.02 253.44 
L 394.02 36 
" style="fill: none; stroke: #000000; stroke-width: 0.8; stroke-linejoin: miter; stroke-linecap: square"/>
   </g>
   <g id="patch_5">
    <path d="M 59.22 253.44 
L 394.02 253.44 
" style="fill: none; stroke: #000000; stroke-width: 0.8; stroke-linejoin: miter; stroke-linecap: square"/>
   </g>
   <g id="patch_6">
    <path d="M 59.22 36 
L 394.02 36 
" style="fill: none; stroke: #000000; stroke-width: 0.8; stroke-linejoin: miter; stroke-linecap: square"/>
   </g>
   <g id="legend_1">
    <g id="patch_7">
     <path d="M 151.37 89.7 
L 301.87 89.7 
Q 303.87 89.7 303.87 87.7 
L 303.87 43 
Q 303.87 41 301.87 41 
L 151.37 41 
Q 149.37 41 149.37 43 
L 149.37 87.7 
Q 149.37 89.7 151.37 89.7 
z
" style="fill: #ffffff; opacity: 0.8; stroke: #cccccc; stroke-linejoin: miter"/>
    </g>
    <g id="line2d_18">
     <path d="M 153.37 49.1 
L 163.37 49.1 
L 173.37 49.1 
" style="fill: none; stroke: #1f77b4; stroke-opacity: 0.6; stroke-width: 1.5; stroke-linecap: square"/>
    </g>
    <g id="text_17">
     <!-- Spikes $v(t)$ -->
     <g transform="translate(181.37 52.6) scale(0.1 -0.1)">
      <defs>
       <path id="DejaVuSans-53" d="M 3425 4513 
L 3425 3897 
Q 3066 4069 2747 4153 
Q 2428 4238 2131 4238 
Q 1616 4238 1336 4038 
Q 1056 3838 1056 3469 
Q 1056 3159 1242 3001 
Q 1428 2844 1947 2747 
L 2328 2669 
Q 3034 2534 3370 2195 
Q 3706 1856 3706 1288 
Q 3706 609 3251 259 
Q 2797 -91 1919 -91 
Q 1588 -91 1214 -16 
Q 841 59 441 206 
L 441 856 
Q 825 641 1194 531 
Q 1563 422 1919 422 
Q 2459 422 2753 634 
Q 3047 847 3047 1241 
Q 3047 1584 2836 1778 
Q 2625 1972 2144 2069 
L 1759 2144 
Q 1053 2284 737 2584 
Q 422 2884 422 3419 
Q 422 4038 858 4394 
Q 1294 4750 2059 4750 
Q 2388 4750 2728 4690 
Q 3069 4631 3425 4513 
z
" transform="scale(0.015625)"/>
       <path id="DejaVuSans-70" d="M 1159 525 
L 1159 -1331 
L 581 -1331 
L 581 3500 
L 1159 3500 
L 1159 2969 
Q 1341 3281 1617 3432 
Q 1894 3584 2278 3584 
Q 2916 3584 3314 3078 
Q 3713 2572 3713 1747 
Q 3713 922 3314 415 
Q 2916 -91 2278 -91 
Q 1894 -91 1617 61 
Q 1341 213 1159 525 
z
M 3116 1747 
Q 3116 2381 2855 2742 
Q 2594 3103 2138 3103 
Q 1681 3103 1420 2742 
Q 1159 2381 1159 1747 
Q 1159 1113 1420 752 
Q 1681 391 2138 391 
Q 2594 391 2855 752 
Q 3116 1113 3116 1747 
z
" transform="scale(0.015625)"/>
       <path id="DejaVuSans-6b" d="M 581 4863 
L 1159 4863 
L 1159 1991 
L 2875 3500 
L 3609 3500 
L 1753 1863 
L 3688 0 
L 2938 0 
L 1159 1709 
L 1159 0 
L 581 0 
L 581 4863 
z
" transform="scale(0.015625)"/>
       <path id="DejaVuSans-73" d="M 2834 3397 
L 2834 2853 
Q 2591 2978 2328 3040 
Q 2066 3103 1784 3103 
Q 1356 3103 1142 2972 
Q 928 2841 928 2578 
Q 928 2378 1081 2264 
Q 1234 2150 1697 2047 
L 1894 2003 
Q 2506 1872 2764 1633 
Q 3022 1394 3022 966 
Q 3022 478 2636 193 
Q 2250 -91 1575 -91 
Q 1294 -91 989 -36 
Q 684 19 347 128 
L 347 722 
Q 666 556 975 473 
Q 1284 391 1588 391 
Q 1994 391 2212 530 
Q 2431 669 2431 922 
Q 2431 1156 2273 1281 
Q 2116 1406 1581 1522 
L 1381 1569 
Q 847 1681 609 1914 
Q 372 2147 372 2553 
Q 372 3047 722 3315 
Q 1072 3584 1716 3584 
Q 2034 3584 2315 3537 
Q 2597 3491 2834 3397 
z
" transform="scale(0.015625)"/>
       <path id="DejaVuSans-20" transform="scale(0.015625)"/>
       <path id="DejaVuSans-Oblique-76" d="M 459 3500 
L 1069 3500 
L 1581 525 
L 3256 3500 
L 3866 3500 
L 1875 0 
L 1100 0 
L 459 3500 
z
" transform="scale(0.015625)"/>
       <path id="DejaVuSans-28" d="M 1984 4856 
Q 1566 4138 1362 3434 
Q 1159 2731 1159 2009 
Q 1159 1288 1364 580 
Q 1569 -128 1984 -844 
L 1484 -844 
Q 1016 -109 783 600 
Q 550 1309 550 2009 
Q 550 2706 781 3412 
Q 1013 4119 1484 4856 
L 1984 4856 
z
" transform="scale(0.015625)"/>
       <path id="DejaVuSans-29" d="M 513 4856 
L 1013 4856 
Q 1481 4119 1714 3412 
Q 1947 2706 1947 2009 
Q 1947 1309 1714 600 
Q 1481 -109 1013 -844 
L 513 -844 
Q 928 -128 1133 580 
Q 1338 1288 1338 2009 
Q 1338 2731 1133 3434 
Q 928 4138 513 4856 
z
" transform="scale(0.015625)"/>
      </defs>
      <use xlink:href="#DejaVuSans-53" transform="translate(0 0.015625)"/>
      <use xlink:href="#DejaVuSans-70" transform="translate(63.476562 0.015625)"/>
      <use xlink:href="#DejaVuSans-69" transform="translate(126.953125 0.015625)"/>
      <use xlink:href="#DejaVuSans-6b" transform="translate(154.736328 0.015625)"/>
      <use xlink:href="#DejaVuSans-65" transform="translate(212.646484 0.015625)"/>
      <use xlink:href="#DejaVuSans-73" transform="translate(274.169922 0.015625)"/>
      <use xlink:href="#DejaVuSans-20" transform="translate(326.269531 0.015625)"/>
      <use xlink:href="#DejaVuSans-Oblique-76" transform="translate(358.056641 0.015625)"/>
      <use xlink:href="#DejaVuSans-28" transform="translate(417.236328 0.015625)"/>
      <use xlink:href="#DejaVuSans-Oblique-74" transform="translate(456.25 0.015625)"/>
      <use xlink:href="#DejaVuSans-29" transform="translate(495.458984 0.015625)"/>
     </g>
    </g>
    <g id="line2d_19">
     <path d="M 153.37 63.8 
L 163.37 63.8 
L 173.37 63.8 
" style="fill: none; stroke: #ff4d00; stroke-opacity: 0.8; stroke-width: 1.5; stroke-linecap: square"/>
    </g>
    <g id="text_18">
     <!-- input $x(t)$ with 2Hz limit -->
     <g transform="translate(181.37 67.3) scale(0.1 -0.1)">
      <defs>
       <path id="DejaVuSans-Oblique-78" d="M 3841 3500 
L 2234 1784 
L 3219 0 
L 2559 0 
L 1819 1388 
L 531 0 
L -166 0 
L 1556 1844 
L 641 3500 
L 1300 3500 
L 1972 2234 
L 3144 3500 
L 3841 3500 
z
" transform="scale(0.015625)"/>
       <path id="DejaVuSans-77" d="M 269 3500 
L 844 3500 
L 1563 769 
L 2278 3500 
L 2956 3500 
L 3675 769 
L 4391 3500 
L 4966 3500 
L 4050 0 
L 3372 0 
L 2619 2869 
L 1863 0 
L 1184 0 
L 269 3500 
z
" transform="scale(0.015625)"/>
       <path id="DejaVuSans-68" d="M 3513 2113 
L 3513 0 
L 2938 0 
L 2938 2094 
Q 2938 2591 2744 2837 
Q 2550 3084 2163 3084 
Q 1697 3084 1428 2787 
Q 1159 2491 1159 1978 
L 1159 0 
L 581 0 
L 581 4863 
L 1159 4863 
L 1159 2956 
Q 1366 3272 1645 3428 
Q 1925 3584 2291 3584 
Q 2894 3584 3203 3211 
Q 3513 2838 3513 2113 
z
" transform="scale(0.015625)"/>
       <path id="DejaVuSans-48" d="M 628 4666 
L 1259 4666 
L 1259 2753 
L 3553 2753 
L 3553 4666 
L 4184 4666 
L 4184 0 
L 3553 0 
L 3553 2222 
L 1259 2222 
L 1259 0 
L 628 0 
L 628 4666 
z
" transform="scale(0.015625)"/>
       <path id="DejaVuSans-7a" d="M 353 3500 
L 3084 3500 
L 3084 2975 
L 922 459 
L 3084 459 
L 3084 0 
L 275 0 
L 275 525 
L 2438 3041 
L 353 3041 
L 353 3500 
z
" transform="scale(0.015625)"/>
       <path id="DejaVuSans-6c" d="M 603 4863 
L 1178 4863 
L 1178 0 
L 603 0 
L 603 4863 
z
" transform="scale(0.015625)"/>
       <path id="DejaVuSans-6d" d="M 3328 2828 
Q 3544 3216 3844 3400 
Q 4144 3584 4550 3584 
Q 5097 3584 5394 3201 
Q 5691 2819 5691 2113 
L 5691 0 
L 5113 0 
L 5113 2094 
Q 5113 2597 4934 2840 
Q 4756 3084 4391 3084 
Q 3944 3084 3684 2787 
Q 3425 2491 3425 1978 
L 3425 0 
L 2847 0 
L 2847 2094 
Q 2847 2600 2669 2842 
Q 2491 3084 2119 3084 
Q 1678 3084 1418 2786 
Q 1159 2488 1159 1978 
L 1159 0 
L 581 0 
L 581 3500 
L 1159 3500 
L 1159 2956 
Q 1356 3278 1631 3431 
Q 1906 3584 2284 3584 
Q 2666 3584 2933 3390 
Q 3200 3197 3328 2828 
z
" transform="scale(0.015625)"/>
      </defs>
      <use xlink:href="#DejaVuSans-69" transform="translate(0 0.015625)"/>
      <use xlink:href="#DejaVuSans-6e" transform="translate(27.783203 0.015625)"/>
      <use xlink:href="#DejaVuSans-70" transform="translate(91.162109 0.015625)"/>
      <use xlink:href="#DejaVuSans-75" transform="translate(154.638672 0.015625)"/>
      <use xlink:href="#DejaVuSans-74" transform="translate(218.017578 0.015625)"/>
      <use xlink:href="#DejaVuSans-20" transform="translate(257.226562 0.015625)"/>
      <use xlink:href="#DejaVuSans-Oblique-78" transform="translate(289.013672 0.015625)"/>
      <use xlink:href="#DejaVuSans-28" transform="translate(348.193359 0.015625)"/>
      <use xlink:href="#DejaVuSans-Oblique-74" transform="translate(387.207031 0.015625)"/>
      <use xlink:href="#DejaVuSans-29" transform="translate(426.416016 0.015625)"/>
      <use xlink:href="#DejaVuSans-20" transform="translate(465.429688 0.015625)"/>
      <use xlink:href="#DejaVuSans-77" transform="translate(497.216797 0.015625)"/>
      <use xlink:href="#DejaVuSans-69" transform="translate(579.003906 0.015625)"/>
      <use xlink:href="#DejaVuSans-74" transform="translate(606.787109 0.015625)"/>
      <use xlink:href="#DejaVuSans-68" transform="translate(645.996094 0.015625)"/>
      <use xlink:href="#DejaVuSans-20" transform="translate(709.375 0.015625)"/>
      <use xlink:href="#DejaVuSans-32" transform="translate(741.162109 0.015625)"/>
      <use xlink:href="#DejaVuSans-48" transform="translate(804.785156 0.015625)"/>
      <use xlink:href="#DejaVuSans-7a" transform="translate(879.980469 0.015625)"/>
      <use xlink:href="#DejaVuSans-20" transform="translate(932.470703 0.015625)"/>
      <use xlink:href="#DejaVuSans-6c" transform="translate(964.257812 0.015625)"/>
      <use xlink:href="#DejaVuSans-69" transform="translate(992.041016 0.015625)"/>
      <use xlink:href="#DejaVuSans-6d" transform="translate(1019.824219 0.015625)"/>
      <use xlink:href="#DejaVuSans-69" transform="translate(1117.236328 0.015625)"/>
      <use xlink:href="#DejaVuSans-74" transform="translate(1145.019531 0.015625)"/>
     </g>
    </g>
    <g id="line2d_20">
     <path d="M 153.37 80.1 
L 163.37 80.1 
L 173.37 80.1 
" style="fill: none; stroke: #003dde; stroke-width: 1.5; stroke-linecap: square"/>
    </g>
    <g id="text_19">
     <!-- decoded output $\hat{x}(t)$ -->
     <g transform="translate(181.37 83.6) scale(0.1 -0.1)">
      <defs>
       <path id="DejaVuSans-63" d="M 3122 3366 
L 3122 2828 
Q 2878 2963 2633 3030 
Q 2388 3097 2138 3097 
Q 1578 3097 1268 2742 
Q 959 2388 959 1747 
Q 959 1106 1268 751 
Q 1578 397 2138 397 
Q 2388 397 2633 464 
Q 2878 531 3122 666 
L 3122 134 
Q 2881 22 2623 -34 
Q 2366 -91 2075 -91 
Q 1284 -91 818 406 
Q 353 903 353 1747 
Q 353 2603 823 3093 
Q 1294 3584 2113 3584 
Q 2378 3584 2631 3529 
Q 2884 3475 3122 3366 
z
" transform="scale(0.015625)"/>
       <path id="DejaVuSans-6f" d="M 1959 3097 
Q 1497 3097 1228 2736 
Q 959 2375 959 1747 
Q 959 1119 1226 758 
Q 1494 397 1959 397 
Q 2419 397 2687 759 
Q 2956 1122 2956 1747 
Q 2956 2369 2687 2733 
Q 2419 3097 1959 3097 
z
M 1959 3584 
Q 2709 3584 3137 3096 
Q 3566 2609 3566 1747 
Q 3566 888 3137 398 
Q 2709 -91 1959 -91 
Q 1206 -91 779 398 
Q 353 888 353 1747 
Q 353 2609 779 3096 
Q 1206 3584 1959 3584 
z
" transform="scale(0.015625)"/>
       <path id="DejaVuSans-302" d="M -1831 5119 
L -1369 5119 
L -603 3944 
L -1038 3944 
L -1600 4709 
L -2163 3944 
L -2597 3944 
L -1831 5119 
z
M -1600 3584 
L -1600 3584 
z
" transform="scale(0.015625)"/>
      </defs>
      <use xlink:href="#DejaVuSans-64" transform="translate(0 0.828125)"/>
      <use xlink:href="#DejaVuSans-65" transform="translate(63.476562 0.828125)"/>
      <use xlink:href="#DejaVuSans-63" transform="translate(125 0.828125)"/>
      <use xlink:href="#DejaVuSans-6f" transform="translate(179.980469 0.828125)"/>
      <use xlink:href="#DejaVuSans-64" transform="translate(241.162109 0.828125)"/>
      <use xlink:href="#DejaVuSans-65" transform="translate(304.638672 0.828125)"/>
      <use xlink:href="#DejaVuSans-64" transform="translate(366.162109 0.828125)"/>
      <use xlink:href="#DejaVuSans-20" transform="translate(429.638672 0.828125)"/>
      <use xlink:href="#DejaVuSans-6f" transform="translate(461.425781 0.828125)"/>
      <use xlink:href="#DejaVuSans-75" transform="translate(522.607422 0.828125)"/>
      <use xlink:href="#DejaVuSans-74" transform="translate(585.986328 0.828125)"/>
      <use xlink:href="#DejaVuSans-70" transform="translate(625.195312 0.828125)"/>
      <use xlink:href="#DejaVuSans-75" transform="translate(688.671875 0.828125)"/>
      <use xlink:href="#DejaVuSans-74" transform="translate(752.050781 0.828125)"/>
      <use xlink:href="#DejaVuSans-20" transform="translate(791.259766 0.828125)"/>
      <use xlink:href="#DejaVuSans-302" transform="translate(885.419922 12.015625)"/>
      <use xlink:href="#DejaVuSans-Oblique-78" transform="translate(823.046875 0.828125)"/>
      <use xlink:href="#DejaVuSans-28" transform="translate(882.226562 0.828125)"/>
      <use xlink:href="#DejaVuSans-Oblique-74" transform="translate(921.240234 0.828125)"/>
      <use xlink:href="#DejaVuSans-29" transform="translate(960.449219 0.828125)"/>
     </g>
    </g>
   </g>
  </g>
  <g id="text_20">
   <!-- Spike train, input $x(t)$ and decoded output signal $\hat{x}(t)$ on 0 to 2 seconds -->
   <g transform="translate(7.2 18.24) scale(0.12 -0.12)">
    <defs>
     <path id="DejaVuSans-72" d="M 2631 2963 
Q 2534 3019 2420 3045 
Q 2306 3072 2169 3072 
Q 1681 3072 1420 2755 
Q 1159 2438 1159 1844 
L 1159 0 
L 581 0 
L 581 3500 
L 1159 3500 
L 1159 2956 
Q 1341 3275 1631 3429 
Q 1922 3584 2338 3584 
Q 2397 3584 2469 3576 
Q 2541 3569 2628 3553 
L 2631 2963 
z
" transform="scale(0.015625)"/>
     <path id="DejaVuSans-2c" d="M 750 794 
L 1409 794 
L 1409 256 
L 897 -744 
L 494 -744 
L 750 256 
L 750 794 
z
" transform="scale(0.015625)"/>
    </defs>
    <use xlink:href="#DejaVuSans-53" transform="translate(0 0.828125)"/>
    <use xlink:href="#DejaVuSans-70" transform="translate(63.476562 0.828125)"/>
    <use xlink:href="#DejaVuSans-69" transform="translate(126.953125 0.828125)"/>
    <use xlink:href="#DejaVuSans-6b" transform="translate(154.736328 0.828125)"/>
    <use xlink:href="#DejaVuSans-65" transform="translate(212.646484 0.828125)"/>
    <use xlink:href="#DejaVuSans-20" transform="translate(274.169922 0.828125)"/>
    <use xlink:href="#DejaVuSans-74" transform="translate(305.957031 0.828125)"/>
    <use xlink:href="#DejaVuSans-72" transform="translate(345.166016 0.828125)"/>
    <use xlink:href="#DejaVuSans-61" transform="translate(386.279297 0.828125)"/>
    <use xlink:href="#DejaVuSans-69" transform="translate(447.558594 0.828125)"/>
    <use xlink:href="#DejaVuSans-6e" transform="translate(475.341797 0.828125)"/>
    <use xlink:href="#DejaVuSans-2c" transform="translate(538.720703 0.828125)"/>
    <use xlink:href="#DejaVuSans-20" transform="translate(570.507812 0.828125)"/>
    <use xlink:href="#DejaVuSans-69" transform="translate(602.294922 0.828125)"/>
    <use xlink:href="#DejaVuSans-6e" transform="translate(630.078125 0.828125)"/>
    <use xlink:href="#DejaVuSans-70" transform="translate(693.457031 0.828125)"/>
    <use xlink:href="#DejaVuSans-75" transform="translate(756.933594 0.828125)"/>
    <use xlink:href="#DejaVuSans-74" transform="translate(820.3125 0.828125)"/>
    <use xlink:href="#DejaVuSans-20" transform="translate(859.521484 0.828125)"/>
    <use xlink:href="#DejaVuSans-Oblique-78" transform="translate(891.308594 0.828125)"/>
    <use xlink:href="#DejaVuSans-28" transform="translate(950.488281 0.828125)"/>
    <use xlink:href="#DejaVuSans-Oblique-74" transform="translate(989.501953 0.828125)"/>
    <use xlink:href="#DejaVuSans-29" transform="translate(1028.710938 0.828125)"/>
    <use xlink:href="#DejaVuSans-20" transform="translate(1067.724609 0.828125)"/>
    <use xlink:href="#DejaVuSans-61" transform="translate(1099.511719 0.828125)"/>
    <use xlink:href="#DejaVuSans-6e" transform="translate(1160.791016 0.828125)"/>
    <use xlink:href="#DejaVuSans-64" transform="translate(1224.169922 0.828125)"/>
    <use xlink:href="#DejaVuSans-20" transform="translate(1287.646484 0.828125)"/>
    <use xlink:href="#DejaVuSans-64" transform="translate(1319.433594 0.828125)"/>
    <use xlink:href="#DejaVuSans-65" transform="translate(1382.910156 0.828125)"/>
    <use xlink:href="#DejaVuSans-63" transform="translate(1444.433594 0.828125)"/>
    <use xlink:href="#DejaVuSans-6f" transform="translate(1499.414062 0.828125)"/>
    <use xlink:href="#DejaVuSans-64" transform="translate(1560.595703 0.828125)"/>
    <use xlink:href="#DejaVuSans-65" transform="translate(1624.072266 0.828125)"/>
    <use xlink:href="#DejaVuSans-64" transform="translate(1685.595703 0.828125)"/>
    <use xlink:href="#DejaVuSans-20" transform="translate(1749.072266 0.828125)"/>
    <use xlink:href="#DejaVuSans-6f" transform="translate(1780.859375 0.828125)"/>
    <use xlink:href="#DejaVuSans-75" transform="translate(1842.041016 0.828125)"/>
    <use xlink:href="#DejaVuSans-74" transform="translate(1905.419922 0.828125)"/>
    <use xlink:href="#DejaVuSans-70" transform="translate(1944.628906 0.828125)"/>
    <use xlink:href="#DejaVuSans-75" transform="translate(2008.105469 0.828125)"/>
    <use xlink:href="#DejaVuSans-74" transform="translate(2071.484375 0.828125)"/>
    <use xlink:href="#DejaVuSans-20" transform="translate(2110.693359 0.828125)"/>
    <use xlink:href="#DejaVuSans-73" transform="translate(2142.480469 0.828125)"/>
    <use xlink:href="#DejaVuSans-69" transform="translate(2194.580078 0.828125)"/>
    <use xlink:href="#DejaVuSans-67" transform="translate(2222.363281 0.828125)"/>
    <use xlink:href="#DejaVuSans-6e" transform="translate(2285.839844 0.828125)"/>
    <use xlink:href="#DejaVuSans-61" transform="translate(2349.21875 0.828125)"/>
    <use xlink:href="#DejaVuSans-6c" transform="translate(2410.498047 0.828125)"/>
    <use xlink:href="#DejaVuSans-20" transform="translate(2438.28125 0.828125)"/>
    <use xlink:href="#DejaVuSans-302" transform="translate(2532.441406 12.015625)"/>
    <use xlink:href="#DejaVuSans-Oblique-78" transform="translate(2470.068359 0.828125)"/>
    <use xlink:href="#DejaVuSans-28" transform="translate(2529.248047 0.828125)"/>
    <use xlink:href="#DejaVuSans-Oblique-74" transform="translate(2568.261719 0.828125)"/>
    <use xlink:href="#DejaVuSans-29" transform="translate(2607.470703 0.828125)"/>
    <use xlink:href="#DejaVuSans-20" transform="translate(2646.484375 0.828125)"/>
    <use xlink:href="#DejaVuSans-6f" transform="translate(2678.271484 0.828125)"/>
    <use xlink:href="#DejaVuSans-6e" transform="translate(2739.453125 0.828125)"/>
    <use xlink:href="#DejaVuSans-20" transform="translate(2802.832031 0.828125)"/>
    <use xlink:href="#DejaVuSans-30" transform="translate(2834.619141 0.828125)"/>
    <use xlink:href="#DejaVuSans-20" transform="translate(2898.242188 0.828125)"/>
    <use xlink:href="#DejaVuSans-74" transform="translate(2930.029297 0.828125)"/>
    <use xlink:href="#DejaVuSans-6f" transform="translate(2969.238281 0.828125)"/>
    <use xlink:href="#DejaVuSans-20" transform="translate(3030.419922 0.828125)"/>
    <use xlink:href="#DejaVuSans-32" transform="translate(3062.207031 0.828125)"/>
    <use xlink:href="#DejaVuSans-20" transform="translate(3125.830078 0.828125)"/>
    <use xlink:href="#DejaVuSans-73" transform="translate(3157.617188 0.828125)"/>
    <use xlink:href="#DejaVuSans-65" transform="translate(3209.716797 0.828125)"/>
    <use xlink:href="#DejaVuSans-63" transform="translate(3271.240234 0.828125)"/>
    <use xlink:href="#DejaVuSans-6f" transform="translate(3326.220703 0.828125)"/>
    <use xlink:href="#DejaVuSans-6e" transform="translate(3387.402344 0.828125)"/>
    <use xlink:href="#DejaVuSans-64" transform="translate(3450.78125 0.828125)"/>
    <use xlink:href="#DejaVuSans-73" transform="translate(3514.257812 0.828125)"/>
   </g>
  </g>
 </g>
 <defs>
  <clipPath id="p44a12474e1">
   <rect x="59.22" y="36" width="334.8" height="217.44"/>
  </clipPath>
 </defs>
</svg>
