<?xml version="1.0" encoding="utf-8" standalone="no"?>
<!DOCTYPE svg PUBLIC "-//W3C//DTD SVG 1.1//EN"
  "http://www.w3.org/Graphics/SVG/1.1/DTD/svg11.dtd">
<svg xmlns:xlink="http://www.w3.org/1999/xlink" width="592.68pt" height="290.99625pt" viewBox="0 0 592.68 290.99625" xmlns="http://www.w3.org/2000/svg" version="1.1">
 <metadata>
  <rdf:RDF xmlns:dc="http://purl.org/dc/elements/1.1/" xmlns:cc="http://creativecommons.org/ns#" xmlns:rdf="http://www.w3.org/1999/02/22-rdf-syntax-ns#">
   <cc:Work>
    <dc:type rdf:resource="http://purl.org/dc/dcmitype/StillImage"/>
    <dc:date>2022-10-17T13:02:30.314834</dc:date>
    <dc:format>image/svg+xml</dc:format>
    <dc:creator>
     <cc:Agent>
      <dc:title>Matplotlib v3.6.0, https://matplotlib.org/</dc:title>
     </cc:Agent>
    </dc:creator>
   </cc:Work>
  </rdf:RDF>
 </metadata>
 <defs>
  <style type="text/css">*{stroke-linejoin: round; stroke-linecap: butt}</style>
 </defs>
 <g id="figure_1">
  <g id="patch_1">
   <path d="M -0 290.99625 
L 592.68 290.99625 
L 592.68 0 
L -0 0 
L -0 290.99625 
z
" style="fill: none"/>
  </g>
  <g id="axes_1">
   <g id="patch_2">
    <path d="M 134.34 253.44 
L 469.14 253.44 
L 469.14 36 
L 134.34 36 
z
" style="fill: #ffffff"/>
   </g>
   <g id="matplotlib.axis_1">
    <g id="xtick_1">
     <g id="line2d_1">
      <defs>
       <path id="m32e257fb44" d="M 0 0 
L 0 3.5 
" style="stroke: #000000; stroke-width: 0.8"/>
      </defs>
      <g>
       <use xlink:href="#m32e257fb44" x="134.34" y="253.44" style="stroke: #000000; stroke-width: 0.8"/>
      </g>
     </g>
     <g id="text_1">
      <!-- 0.00 -->
      <g transform="translate(123.207188 268.038437) scale(0.1 -0.1)">
       <defs>
        <path id="DejaVuSans-30" d="M 2034 4250 
Q 1547 4250 1301 3770 
Q 1056 3291 1056 2328 
Q 1056 1369 1301 889 
Q 1547 409 2034 409 
Q 2525 409 2770 889 
Q 3016 1369 3016 2328 
Q 3016 3291 2770 3770 
Q 2525 4250 2034 4250 
z
M 2034 4750 
Q 2819 4750 3233 4129 
Q 3647 3509 3647 2328 
Q 3647 1150 3233 529 
Q 2819 -91 2034 -91 
Q 1250 -91 836 529 
Q 422 1150 422 2328 
Q 422 3509 836 4129 
Q 1250 4750 2034 4750 
z
" transform="scale(0.015625)"/>
        <path id="DejaVuSans-2e" d="M 684 794 
L 1344 794 
L 1344 0 
L 684 0 
L 684 794 
z
" transform="scale(0.015625)"/>
       </defs>
       <use xlink:href="#DejaVuSans-30"/>
       <use xlink:href="#DejaVuSans-2e" x="63.623047"/>
       <use xlink:href="#DejaVuSans-30" x="95.410156"/>
       <use xlink:href="#DejaVuSans-30" x="159.033203"/>
      </g>
     </g>
    </g>
    <g id="xtick_2">
     <g id="line2d_2">
      <g>
       <use xlink:href="#m32e257fb44" x="190.14" y="253.44" style="stroke: #000000; stroke-width: 0.8"/>
      </g>
     </g>
     <g id="text_2">
      <!-- 0.01 -->
      <g transform="translate(179.007188 268.038437) scale(0.1 -0.1)">
       <defs>
        <path id="DejaVuSans-31" d="M 794 531 
L 1825 531 
L 1825 4091 
L 703 3866 
L 703 4441 
L 1819 4666 
L 2450 4666 
L 2450 531 
L 3481 531 
L 3481 0 
L 794 0 
L 794 531 
z
" transform="scale(0.015625)"/>
       </defs>
       <use xlink:href="#DejaVuSans-30"/>
       <use xlink:href="#DejaVuSans-2e" x="63.623047"/>
       <use xlink:href="#DejaVuSans-30" x="95.410156"/>
       <use xlink:href="#DejaVuSans-31" x="159.033203"/>
      </g>
     </g>
    </g>
    <g id="xtick_3">
     <g id="line2d_3">
      <g>
       <use xlink:href="#m32e257fb44" x="245.94" y="253.44" style="stroke: #000000; stroke-width: 0.8"/>
      </g>
     </g>
     <g id="text_3">
      <!-- 0.02 -->
      <g transform="translate(234.807188 268.038437) scale(0.1 -0.1)">
       <defs>
        <path id="DejaVuSans-32" d="M 1228 531 
L 3431 531 
L 3431 0 
L 469 0 
L 469 531 
Q 828 903 1448 1529 
Q 2069 2156 2228 2338 
Q 2531 2678 2651 2914 
Q 2772 3150 2772 3378 
Q 2772 3750 2511 3984 
Q 2250 4219 1831 4219 
Q 1534 4219 1204 4116 
Q 875 4013 500 3803 
L 500 4441 
Q 881 4594 1212 4672 
Q 1544 4750 1819 4750 
Q 2544 4750 2975 4387 
Q 3406 4025 3406 3419 
Q 3406 3131 3298 2873 
Q 3191 2616 2906 2266 
Q 2828 2175 2409 1742 
Q 1991 1309 1228 531 
z
" transform="scale(0.015625)"/>
       </defs>
       <use xlink:href="#DejaVuSans-30"/>
       <use xlink:href="#DejaVuSans-2e" x="63.623047"/>
       <use xlink:href="#DejaVuSans-30" x="95.410156"/>
       <use xlink:href="#DejaVuSans-32" x="159.033203"/>
      </g>
     </g>
    </g>
    <g id="xtick_4">
     <g id="line2d_4">
      <g>
       <use xlink:href="#m32e257fb44" x="301.74" y="253.44" style="stroke: #000000; stroke-width: 0.8"/>
      </g>
     </g>
     <g id="text_4">
      <!-- 0.03 -->
      <g transform="translate(290.607188 268.038437) scale(0.1 -0.1)">
       <defs>
        <path id="DejaVuSans-33" d="M 2597 2516 
Q 3050 2419 3304 2112 
Q 3559 1806 3559 1356 
Q 3559 666 3084 287 
Q 2609 -91 1734 -91 
Q 1441 -91 1130 -33 
Q 819 25 488 141 
L 488 750 
Q 750 597 1062 519 
Q 1375 441 1716 441 
Q 2309 441 2620 675 
Q 2931 909 2931 1356 
Q 2931 1769 2642 2001 
Q 2353 2234 1838 2234 
L 1294 2234 
L 1294 2753 
L 1863 2753 
Q 2328 2753 2575 2939 
Q 2822 3125 2822 3475 
Q 2822 3834 2567 4026 
Q 2313 4219 1838 4219 
Q 1578 4219 1281 4162 
Q 984 4106 628 3988 
L 628 4550 
Q 988 4650 1302 4700 
Q 1616 4750 1894 4750 
Q 2613 4750 3031 4423 
Q 3450 4097 3450 3541 
Q 3450 3153 3228 2886 
Q 3006 2619 2597 2516 
z
" transform="scale(0.015625)"/>
       </defs>
       <use xlink:href="#DejaVuSans-30"/>
       <use xlink:href="#DejaVuSans-2e" x="63.623047"/>
       <use xlink:href="#DejaVuSans-30" x="95.410156"/>
       <use xlink:href="#DejaVuSans-33" x="159.033203"/>
      </g>
     </g>
    </g>
    <g id="xtick_5">
     <g id="line2d_5">
      <g>
       <use xlink:href="#m32e257fb44" x="357.54" y="253.44" style="stroke: #000000; stroke-width: 0.8"/>
      </g>
     </g>
     <g id="text_5">
      <!-- 0.04 -->
      <g transform="translate(346.407188 268.038437) scale(0.1 -0.1)">
       <defs>
        <path id="DejaVuSans-34" d="M 2419 4116 
L 825 1625 
L 2419 1625 
L 2419 4116 
z
M 2253 4666 
L 3047 4666 
L 3047 1625 
L 3713 1625 
L 3713 1100 
L 3047 1100 
L 3047 0 
L 2419 0 
L 2419 1100 
L 313 1100 
L 313 1709 
L 2253 4666 
z
" transform="scale(0.015625)"/>
       </defs>
       <use xlink:href="#DejaVuSans-30"/>
       <use xlink:href="#DejaVuSans-2e" x="63.623047"/>
       <use xlink:href="#DejaVuSans-30" x="95.410156"/>
       <use xlink:href="#DejaVuSans-34" x="159.033203"/>
      </g>
     </g>
    </g>
    <g id="xtick_6">
     <g id="line2d_6">
      <g>
       <use xlink:href="#m32e257fb44" x="413.34" y="253.44" style="stroke: #000000; stroke-width: 0.8"/>
      </g>
     </g>
     <g id="text_6">
      <!-- 0.05 -->
      <g transform="translate(402.207188 268.038437) scale(0.1 -0.1)">
       <defs>
        <path id="DejaVuSans-35" d="M 691 4666 
L 3169 4666 
L 3169 4134 
L 1269 4134 
L 1269 2991 
Q 1406 3038 1543 3061 
Q 1681 3084 1819 3084 
Q 2600 3084 3056 2656 
Q 3513 2228 3513 1497 
Q 3513 744 3044 326 
Q 2575 -91 1722 -91 
Q 1428 -91 1123 -41 
Q 819 9 494 109 
L 494 744 
Q 775 591 1075 516 
Q 1375 441 1709 441 
Q 2250 441 2565 725 
Q 2881 1009 2881 1497 
Q 2881 1984 2565 2268 
Q 2250 2553 1709 2553 
Q 1456 2553 1204 2497 
Q 953 2441 691 2322 
L 691 4666 
z
" transform="scale(0.015625)"/>
       </defs>
       <use xlink:href="#DejaVuSans-30"/>
       <use xlink:href="#DejaVuSans-2e" x="63.623047"/>
       <use xlink:href="#DejaVuSans-30" x="95.410156"/>
       <use xlink:href="#DejaVuSans-35" x="159.033203"/>
      </g>
     </g>
    </g>
    <g id="xtick_7">
     <g id="line2d_7">
      <g>
       <use xlink:href="#m32e257fb44" x="469.14" y="253.44" style="stroke: #000000; stroke-width: 0.8"/>
      </g>
     </g>
     <g id="text_7">
      <!-- 0.06 -->
      <g transform="translate(458.007188 268.038437) scale(0.1 -0.1)">
       <defs>
        <path id="DejaVuSans-36" d="M 2113 2584 
Q 1688 2584 1439 2293 
Q 1191 2003 1191 1497 
Q 1191 994 1439 701 
Q 1688 409 2113 409 
Q 2538 409 2786 701 
Q 3034 994 3034 1497 
Q 3034 2003 2786 2293 
Q 2538 2584 2113 2584 
z
M 3366 4563 
L 3366 3988 
Q 3128 4100 2886 4159 
Q 2644 4219 2406 4219 
Q 1781 4219 1451 3797 
Q 1122 3375 1075 2522 
Q 1259 2794 1537 2939 
Q 1816 3084 2150 3084 
Q 2853 3084 3261 2657 
Q 3669 2231 3669 1497 
Q 3669 778 3244 343 
Q 2819 -91 2113 -91 
Q 1303 -91 875 529 
Q 447 1150 447 2328 
Q 447 3434 972 4092 
Q 1497 4750 2381 4750 
Q 2619 4750 2861 4703 
Q 3103 4656 3366 4563 
z
" transform="scale(0.015625)"/>
       </defs>
       <use xlink:href="#DejaVuSans-30"/>
       <use xlink:href="#DejaVuSans-2e" x="63.623047"/>
       <use xlink:href="#DejaVuSans-30" x="95.410156"/>
       <use xlink:href="#DejaVuSans-36" x="159.033203"/>
      </g>
     </g>
    </g>
    <g id="text_8">
     <!-- $t$ -->
     <g transform="translate(299.74 281.716562) scale(0.1 -0.1)">
      <defs>
       <path id="DejaVuSans-Oblique-74" d="M 2706 3500 
L 2619 3053 
L 1472 3053 
L 1100 1153 
Q 1081 1047 1072 975 
Q 1063 903 1063 863 
Q 1063 663 1183 572 
Q 1303 481 1569 481 
L 2150 481 
L 2053 0 
L 1503 0 
Q 991 0 739 200 
Q 488 400 488 806 
Q 488 878 497 964 
Q 506 1050 525 1153 
L 897 3053 
L 409 3053 
L 500 3500 
L 978 3500 
L 1172 4494 
L 1747 4494 
L 1556 3500 
L 2706 3500 
z
" transform="scale(0.015625)"/>
      </defs>
      <use xlink:href="#DejaVuSans-Oblique-74" transform="translate(0 0.78125)"/>
     </g>
    </g>
   </g>
   <g id="matplotlib.axis_2">
    <g id="ytick_1">
     <g id="line2d_8">
      <defs>
       <path id="m404969945d" d="M 0 0 
L -3.5 0 
" style="stroke: #000000; stroke-width: 0.8"/>
      </defs>
      <g>
       <use xlink:href="#m404969945d" x="134.34" y="243.556364" style="stroke: #000000; stroke-width: 0.8"/>
      </g>
     </g>
     <g id="text_9">
      <!-- 0.0 -->
      <g transform="translate(111.436875 247.355582) scale(0.1 -0.1)">
       <use xlink:href="#DejaVuSans-30"/>
       <use xlink:href="#DejaVuSans-2e" x="63.623047"/>
       <use xlink:href="#DejaVuSans-30" x="95.410156"/>
      </g>
     </g>
    </g>
    <g id="ytick_2">
     <g id="line2d_9">
      <g>
       <use xlink:href="#m404969945d" x="134.34" y="203.201593" style="stroke: #000000; stroke-width: 0.8"/>
      </g>
     </g>
     <g id="text_10">
      <!-- 0.2 -->
      <g transform="translate(111.436875 207.000812) scale(0.1 -0.1)">
       <use xlink:href="#DejaVuSans-30"/>
       <use xlink:href="#DejaVuSans-2e" x="63.623047"/>
       <use xlink:href="#DejaVuSans-32" x="95.410156"/>
      </g>
     </g>
    </g>
    <g id="ytick_3">
     <g id="line2d_10">
      <g>
       <use xlink:href="#m404969945d" x="134.34" y="162.846823" style="stroke: #000000; stroke-width: 0.8"/>
      </g>
     </g>
     <g id="text_11">
      <!-- 0.4 -->
      <g transform="translate(111.436875 166.646042) scale(0.1 -0.1)">
       <use xlink:href="#DejaVuSans-30"/>
       <use xlink:href="#DejaVuSans-2e" x="63.623047"/>
       <use xlink:href="#DejaVuSans-34" x="95.410156"/>
      </g>
     </g>
    </g>
    <g id="ytick_4">
     <g id="line2d_11">
      <g>
       <use xlink:href="#m404969945d" x="134.34" y="122.492053" style="stroke: #000000; stroke-width: 0.8"/>
      </g>
     </g>
     <g id="text_12">
      <!-- 0.6 -->
      <g transform="translate(111.436875 126.291271) scale(0.1 -0.1)">
       <use xlink:href="#DejaVuSans-30"/>
       <use xlink:href="#DejaVuSans-2e" x="63.623047"/>
       <use xlink:href="#DejaVuSans-36" x="95.410156"/>
      </g>
     </g>
    </g>
    <g id="ytick_5">
     <g id="line2d_12">
      <g>
       <use xlink:href="#m404969945d" x="134.34" y="82.137282" style="stroke: #000000; stroke-width: 0.8"/>
      </g>
     </g>
     <g id="text_13">
      <!-- 0.8 -->
      <g transform="translate(111.436875 85.936501) scale(0.1 -0.1)">
       <defs>
        <path id="DejaVuSans-38" d="M 2034 2216 
Q 1584 2216 1326 1975 
Q 1069 1734 1069 1313 
Q 1069 891 1326 650 
Q 1584 409 2034 409 
Q 2484 409 2743 651 
Q 3003 894 3003 1313 
Q 3003 1734 2745 1975 
Q 2488 2216 2034 2216 
z
M 1403 2484 
Q 997 2584 770 2862 
Q 544 3141 544 3541 
Q 544 4100 942 4425 
Q 1341 4750 2034 4750 
Q 2731 4750 3128 4425 
Q 3525 4100 3525 3541 
Q 3525 3141 3298 2862 
Q 3072 2584 2669 2484 
Q 3125 2378 3379 2068 
Q 3634 1759 3634 1313 
Q 3634 634 3220 271 
Q 2806 -91 2034 -91 
Q 1263 -91 848 271 
Q 434 634 434 1313 
Q 434 1759 690 2068 
Q 947 2378 1403 2484 
z
M 1172 3481 
Q 1172 3119 1398 2916 
Q 1625 2713 2034 2713 
Q 2441 2713 2670 2916 
Q 2900 3119 2900 3481 
Q 2900 3844 2670 4047 
Q 2441 4250 2034 4250 
Q 1625 4250 1398 4047 
Q 1172 3844 1172 3481 
z
" transform="scale(0.015625)"/>
       </defs>
       <use xlink:href="#DejaVuSans-30"/>
       <use xlink:href="#DejaVuSans-2e" x="63.623047"/>
       <use xlink:href="#DejaVuSans-38" x="95.410156"/>
      </g>
     </g>
    </g>
    <g id="ytick_6">
     <g id="line2d_13">
      <g>
       <use xlink:href="#m404969945d" x="134.34" y="41.782512" style="stroke: #000000; stroke-width: 0.8"/>
      </g>
     </g>
     <g id="text_14">
      <!-- 1.0 -->
      <g transform="translate(111.436875 45.581731) scale(0.1 -0.1)">
       <use xlink:href="#DejaVuSans-31"/>
       <use xlink:href="#DejaVuSans-2e" x="63.623047"/>
       <use xlink:href="#DejaVuSans-30" x="95.410156"/>
      </g>
     </g>
    </g>
   </g>
   <g id="line2d_14">
    <path d="M 134.34 45.883636 
L 139.92 123.661794 
L 145.5 170.836631 
L 151.08 199.449616 
L 156.66 216.804269 
L 162.24 227.330398 
L 167.82 233.714818 
L 173.4 237.587164 
L 178.98 239.935861 
L 184.56 241.360418 
L 190.14 242.224455 
L 195.72 242.74852 
L 201.3 243.066382 
L 206.88 243.259175 
L 212.46 243.376109 
L 218.04 243.447034 
L 223.62 243.490052 
L 229.2 243.516143 
L 234.78 243.531969 
L 240.36 243.541567 
L 245.94 243.547389 
L 251.52 243.55092 
L 257.1 243.553062 
L 262.68 243.554361 
L 268.26 243.555149 
L 273.84 243.555627 
L 279.42 243.555917 
L 285 243.556093 
L 290.58 243.556199 
L 296.16 243.556264 
L 301.74 243.556303 
L 307.32 243.556327 
L 312.9 243.556341 
L 318.48 243.55635 
L 324.06 243.556355 
L 329.64 243.556359 
L 335.22 243.556361 
L 340.8 243.556362 
L 346.38 243.556363 
L 351.96 243.556363 
L 357.54 243.556363 
L 363.12 243.556363 
L 368.7 243.556363 
L 374.28 243.556364 
L 379.86 243.556364 
L 385.44 243.556364 
L 391.02 243.556364 
L 396.6 243.556364 
L 402.18 243.556364 
L 407.76 243.556364 
L 413.34 243.556364 
L 418.92 243.556364 
L 424.5 243.556364 
L 430.08 243.556364 
L 435.66 243.556364 
L 441.24 243.556364 
L 446.82 243.556364 
L 452.4 243.556364 
L 457.98 243.556364 
L 463.56 243.556364 
L 469.14 243.556364 
L 474.72 243.556364 
" clip-path="url(#pc2ce41f49d)" style="fill: none; stroke: #1f77b4; stroke-width: 1.5; stroke-linecap: square"/>
   </g>
   <g id="line2d_15">
    <path d="M 134.34 163.114783 
L 139.92 177.696368 
L 145.5 189.63476 
L 151.08 199.409088 
L 156.66 207.411632 
L 162.24 213.96356 
L 167.82 219.327825 
L 173.4 223.719714 
L 178.98 227.315489 
L 184.56 230.25946 
L 190.14 232.66978 
L 195.72 234.643182 
L 201.3 236.258868 
L 206.88 237.58168 
L 212.46 238.664706 
L 218.04 239.551413 
L 223.62 240.277388 
L 229.2 240.871765 
L 234.78 241.3584 
L 240.36 241.756823 
L 245.94 242.083025 
L 251.52 242.350096 
L 257.1 242.568755 
L 262.68 242.747778 
L 268.26 242.89435 
L 273.84 243.014353 
L 279.42 243.112602 
L 285 243.193043 
L 290.58 243.258902 
L 296.16 243.312822 
L 301.74 243.356969 
L 307.32 243.393113 
L 312.9 243.422705 
L 318.48 243.446933 
L 324.06 243.46677 
L 329.64 243.48301 
L 335.22 243.496307 
L 340.8 243.507193 
L 346.38 243.516107 
L 351.96 243.523404 
L 357.54 243.529378 
L 363.12 243.53427 
L 368.7 243.538275 
L 374.28 243.541554 
L 379.86 243.544238 
L 385.44 243.546436 
L 391.02 243.548236 
L 396.6 243.549709 
L 402.18 243.550915 
L 407.76 243.551903 
L 413.34 243.552712 
L 418.92 243.553374 
L 424.5 243.553916 
L 430.08 243.554359 
L 435.66 243.554723 
L 441.24 243.55502 
L 446.82 243.555264 
L 452.4 243.555463 
L 457.98 243.555626 
L 463.56 243.55576 
L 469.14 243.555869 
L 474.72 243.555959 
" clip-path="url(#pc2ce41f49d)" style="fill: none; stroke: #ff7f0e; stroke-width: 1.5; stroke-linecap: square"/>
   </g>
   <g id="line2d_16">
    <path d="M 134.34 203.235189 
L 139.92 207.072256 
L 145.5 210.544178 
L 151.08 213.685703 
L 156.66 216.528272 
L 162.24 219.100335 
L 167.82 221.427634 
L 173.4 223.533461 
L 178.98 225.438892 
L 184.56 227.162997 
L 190.14 228.723032 
L 195.72 230.13461 
L 201.3 231.411859 
L 206.88 232.567562 
L 212.46 233.613284 
L 218.04 234.559493 
L 223.62 235.415659 
L 229.2 236.190349 
L 234.78 236.891318 
L 240.36 237.525581 
L 245.94 238.099486 
L 251.52 238.618777 
L 257.1 239.08865 
L 262.68 239.513809 
L 268.26 239.898509 
L 273.84 240.2466 
L 279.42 240.561566 
L 285 240.846558 
L 290.58 241.10443 
L 296.16 241.337763 
L 301.74 241.548891 
L 307.32 241.739927 
L 312.9 241.912784 
L 318.48 242.069191 
L 324.06 242.210714 
L 329.64 242.33877 
L 335.22 242.454639 
L 340.8 242.559482 
L 346.38 242.654348 
L 351.96 242.740186 
L 357.54 242.817856 
L 363.12 242.888134 
L 368.7 242.951724 
L 374.28 243.009263 
L 379.86 243.061327 
L 385.44 243.108436 
L 391.02 243.151062 
L 396.6 243.189631 
L 402.18 243.224531 
L 407.76 243.256109 
L 413.34 243.284682 
L 418.92 243.310536 
L 424.5 243.333929 
L 430.08 243.355097 
L 435.66 243.37425 
L 441.24 243.39158 
L 446.82 243.407261 
L 452.4 243.42145 
L 457.98 243.434289 
L 463.56 243.445906 
L 469.14 243.456417 
L 474.72 243.465929 
" clip-path="url(#pc2ce41f49d)" style="fill: none; stroke: #2ca02c; stroke-width: 1.5; stroke-linecap: square"/>
   </g>
   <g id="line2d_17">
    <path d="M 134.34 223.383181 
L 139.92 224.367039 
L 145.5 225.302913 
L 151.08 226.193144 
L 156.66 227.039959 
L 162.24 227.845473 
L 167.82 228.611702 
L 173.4 229.340562 
L 178.98 230.033875 
L 184.56 230.693375 
L 190.14 231.32071 
L 195.72 231.91745 
L 201.3 232.485086 
L 206.88 233.025039 
L 212.46 233.538658 
L 218.04 234.027227 
L 223.62 234.491968 
L 229.2 234.934044 
L 234.78 235.35456 
L 240.36 235.754566 
L 245.94 236.135065 
L 251.52 236.497006 
L 257.1 236.841294 
L 262.68 237.168792 
L 268.26 237.480318 
L 273.84 237.77665 
L 279.42 238.05853 
L 285 238.326663 
L 290.58 238.581718 
L 296.16 238.824334 
L 301.74 239.055118 
L 307.32 239.274647 
L 312.9 239.483468 
L 318.48 239.682106 
L 324.06 239.871056 
L 329.64 240.05079 
L 335.22 240.221759 
L 340.8 240.38439 
L 346.38 240.539089 
L 351.96 240.686243 
L 357.54 240.82622 
L 363.12 240.959371 
L 368.7 241.086028 
L 374.28 241.206507 
L 379.86 241.321111 
L 385.44 241.430126 
L 391.02 241.533824 
L 396.6 241.632464 
L 402.18 241.726294 
L 407.76 241.815547 
L 413.34 241.900448 
L 418.92 241.981208 
L 424.5 242.058029 
L 430.08 242.131104 
L 435.66 242.200615 
L 441.24 242.266735 
L 446.82 242.329631 
L 452.4 242.38946 
L 457.98 242.44637 
L 463.56 242.500505 
L 469.14 242.552 
L 474.72 242.600983 
" clip-path="url(#pc2ce41f49d)" style="fill: none; stroke: #d62728; stroke-width: 1.5; stroke-linecap: square"/>
   </g>
   <g id="patch_3">
    <path d="M 134.34 253.44 
L 134.34 36 
" style="fill: none; stroke: #000000; stroke-width: 0.8; stroke-linejoin: miter; stroke-linecap: square"/>
   </g>
   <g id="patch_4">
    <path d="M 469.14 253.44 
L 469.14 36 
" style="fill: none; stroke: #000000; stroke-width: 0.8; stroke-linejoin: miter; stroke-linecap: square"/>
   </g>
   <g id="patch_5">
    <path d="M 134.34 253.44 
L 469.14 253.44 
" style="fill: none; stroke: #000000; stroke-width: 0.8; stroke-linejoin: miter; stroke-linecap: square"/>
   </g>
   <g id="patch_6">
    <path d="M 134.34 36 
L 469.14 36 
" style="fill: none; stroke: #000000; stroke-width: 0.8; stroke-linejoin: miter; stroke-linecap: square"/>
   </g>
   <g id="legend_1">
    <g id="patch_7">
     <path d="M 278.84 102.7125 
L 462.14 102.7125 
Q 464.14 102.7125 464.14 100.7125 
L 464.14 43 
Q 464.14 41 462.14 41 
L 278.84 41 
Q 276.84 41 276.84 43 
L 276.84 100.7125 
Q 276.84 102.7125 278.84 102.7125 
z
" style="fill: #ffffff; opacity: 0.8; stroke: #cccccc; stroke-linejoin: miter"/>
    </g>
    <g id="line2d_18">
     <path d="M 280.84 49.098437 
L 290.84 49.098437 
L 300.84 49.098437 
" style="fill: none; stroke: #1f77b4; stroke-width: 1.5; stroke-linecap: square"/>
    </g>
    <g id="text_15">
     <!-- $h(t)$ with $n=0$ and $\tau=2.0ms$ -->
     <g transform="translate(308.84 52.598437) scale(0.1 -0.1)">
      <defs>
       <path id="DejaVuSans-Oblique-68" d="M 3566 2113 
L 3156 0 
L 2578 0 
L 2988 2091 
Q 3016 2238 3031 2350 
Q 3047 2463 3047 2528 
Q 3047 2791 2881 2937 
Q 2716 3084 2419 3084 
Q 1956 3084 1617 2771 
Q 1278 2459 1178 1941 
L 800 0 
L 225 0 
L 1172 4863 
L 1747 4863 
L 1375 2950 
Q 1594 3244 1934 3414 
Q 2275 3584 2650 3584 
Q 3113 3584 3367 3334 
Q 3622 3084 3622 2631 
Q 3622 2519 3608 2391 
Q 3594 2263 3566 2113 
z
" transform="scale(0.015625)"/>
       <path id="DejaVuSans-28" d="M 1984 4856 
Q 1566 4138 1362 3434 
Q 1159 2731 1159 2009 
Q 1159 1288 1364 580 
Q 1569 -128 1984 -844 
L 1484 -844 
Q 1016 -109 783 600 
Q 550 1309 550 2009 
Q 550 2706 781 3412 
Q 1013 4119 1484 4856 
L 1984 4856 
z
" transform="scale(0.015625)"/>
       <path id="DejaVuSans-29" d="M 513 4856 
L 1013 4856 
Q 1481 4119 1714 3412 
Q 1947 2706 1947 2009 
Q 1947 1309 1714 600 
Q 1481 -109 1013 -844 
L 513 -844 
Q 928 -128 1133 580 
Q 1338 1288 1338 2009 
Q 1338 2731 1133 3434 
Q 928 4138 513 4856 
z
" transform="scale(0.015625)"/>
       <path id="DejaVuSans-20" transform="scale(0.015625)"/>
       <path id="DejaVuSans-77" d="M 269 3500 
L 844 3500 
L 1563 769 
L 2278 3500 
L 2956 3500 
L 3675 769 
L 4391 3500 
L 4966 3500 
L 4050 0 
L 3372 0 
L 2619 2869 
L 1863 0 
L 1184 0 
L 269 3500 
z
" transform="scale(0.015625)"/>
       <path id="DejaVuSans-69" d="M 603 3500 
L 1178 3500 
L 1178 0 
L 603 0 
L 603 3500 
z
M 603 4863 
L 1178 4863 
L 1178 4134 
L 603 4134 
L 603 4863 
z
" transform="scale(0.015625)"/>
       <path id="DejaVuSans-74" d="M 1172 4494 
L 1172 3500 
L 2356 3500 
L 2356 3053 
L 1172 3053 
L 1172 1153 
Q 1172 725 1289 603 
Q 1406 481 1766 481 
L 2356 481 
L 2356 0 
L 1766 0 
Q 1100 0 847 248 
Q 594 497 594 1153 
L 594 3053 
L 172 3053 
L 172 3500 
L 594 3500 
L 594 4494 
L 1172 4494 
z
" transform="scale(0.015625)"/>
       <path id="DejaVuSans-68" d="M 3513 2113 
L 3513 0 
L 2938 0 
L 2938 2094 
Q 2938 2591 2744 2837 
Q 2550 3084 2163 3084 
Q 1697 3084 1428 2787 
Q 1159 2491 1159 1978 
L 1159 0 
L 581 0 
L 581 4863 
L 1159 4863 
L 1159 2956 
Q 1366 3272 1645 3428 
Q 1925 3584 2291 3584 
Q 2894 3584 3203 3211 
Q 3513 2838 3513 2113 
z
" transform="scale(0.015625)"/>
       <path id="DejaVuSans-Oblique-6e" d="M 3566 2113 
L 3156 0 
L 2578 0 
L 2988 2091 
Q 3016 2238 3031 2350 
Q 3047 2463 3047 2528 
Q 3047 2791 2881 2937 
Q 2716 3084 2419 3084 
Q 1956 3084 1622 2776 
Q 1288 2469 1184 1941 
L 800 0 
L 225 0 
L 903 3500 
L 1478 3500 
L 1363 2950 
Q 1603 3253 1940 3418 
Q 2278 3584 2650 3584 
Q 3113 3584 3367 3334 
Q 3622 3084 3622 2631 
Q 3622 2519 3608 2391 
Q 3594 2263 3566 2113 
z
" transform="scale(0.015625)"/>
       <path id="DejaVuSans-3d" d="M 678 2906 
L 4684 2906 
L 4684 2381 
L 678 2381 
L 678 2906 
z
M 678 1631 
L 4684 1631 
L 4684 1100 
L 678 1100 
L 678 1631 
z
" transform="scale(0.015625)"/>
       <path id="DejaVuSans-61" d="M 2194 1759 
Q 1497 1759 1228 1600 
Q 959 1441 959 1056 
Q 959 750 1161 570 
Q 1363 391 1709 391 
Q 2188 391 2477 730 
Q 2766 1069 2766 1631 
L 2766 1759 
L 2194 1759 
z
M 3341 1997 
L 3341 0 
L 2766 0 
L 2766 531 
Q 2569 213 2275 61 
Q 1981 -91 1556 -91 
Q 1019 -91 701 211 
Q 384 513 384 1019 
Q 384 1609 779 1909 
Q 1175 2209 1959 2209 
L 2766 2209 
L 2766 2266 
Q 2766 2663 2505 2880 
Q 2244 3097 1772 3097 
Q 1472 3097 1187 3025 
Q 903 2953 641 2809 
L 641 3341 
Q 956 3463 1253 3523 
Q 1550 3584 1831 3584 
Q 2591 3584 2966 3190 
Q 3341 2797 3341 1997 
z
" transform="scale(0.015625)"/>
       <path id="DejaVuSans-6e" d="M 3513 2113 
L 3513 0 
L 2938 0 
L 2938 2094 
Q 2938 2591 2744 2837 
Q 2550 3084 2163 3084 
Q 1697 3084 1428 2787 
Q 1159 2491 1159 1978 
L 1159 0 
L 581 0 
L 581 3500 
L 1159 3500 
L 1159 2956 
Q 1366 3272 1645 3428 
Q 1925 3584 2291 3584 
Q 2894 3584 3203 3211 
Q 3513 2838 3513 2113 
z
" transform="scale(0.015625)"/>
       <path id="DejaVuSans-64" d="M 2906 2969 
L 2906 4863 
L 3481 4863 
L 3481 0 
L 2906 0 
L 2906 525 
Q 2725 213 2448 61 
Q 2172 -91 1784 -91 
Q 1150 -91 751 415 
Q 353 922 353 1747 
Q 353 2572 751 3078 
Q 1150 3584 1784 3584 
Q 2172 3584 2448 3432 
Q 2725 3281 2906 2969 
z
M 947 1747 
Q 947 1113 1208 752 
Q 1469 391 1925 391 
Q 2381 391 2643 752 
Q 2906 1113 2906 1747 
Q 2906 2381 2643 2742 
Q 2381 3103 1925 3103 
Q 1469 3103 1208 2742 
Q 947 2381 947 1747 
z
" transform="scale(0.015625)"/>
       <path id="DejaVuSans-Oblique-3c4" d="M 2103 638 
Q 2188 488 2525 488 
L 2800 488 
L 2706 0 
L 2363 0 
Q 1800 0 1600 300 
Q 1403 606 1534 1269 
L 1856 2925 
L 541 2925 
L 653 3500 
L 3881 3500 
L 3769 2925 
L 2444 2925 
L 2113 1234 
Q 2025 781 2103 638 
z
" transform="scale(0.015625)"/>
       <path id="DejaVuSans-Oblique-6d" d="M 5747 2113 
L 5338 0 
L 4763 0 
L 5166 2094 
Q 5191 2228 5203 2325 
Q 5216 2422 5216 2491 
Q 5216 2772 5059 2928 
Q 4903 3084 4622 3084 
Q 4203 3084 3875 2770 
Q 3547 2456 3450 1953 
L 3066 0 
L 2491 0 
L 2900 2094 
Q 2925 2209 2937 2307 
Q 2950 2406 2950 2484 
Q 2950 2769 2794 2926 
Q 2638 3084 2363 3084 
Q 1938 3084 1609 2770 
Q 1281 2456 1184 1953 
L 800 0 
L 225 0 
L 909 3500 
L 1484 3500 
L 1375 2956 
Q 1609 3263 1923 3423 
Q 2238 3584 2597 3584 
Q 2978 3584 3223 3384 
Q 3469 3184 3519 2828 
Q 3781 3197 4126 3390 
Q 4472 3584 4856 3584 
Q 5306 3584 5551 3325 
Q 5797 3066 5797 2591 
Q 5797 2488 5784 2364 
Q 5772 2241 5747 2113 
z
" transform="scale(0.015625)"/>
       <path id="DejaVuSans-Oblique-73" d="M 3200 3397 
L 3091 2853 
Q 2863 2978 2609 3040 
Q 2356 3103 2088 3103 
Q 1634 3103 1373 2948 
Q 1113 2794 1113 2528 
Q 1113 2219 1719 2053 
Q 1766 2041 1788 2034 
L 1972 1978 
Q 2547 1819 2739 1644 
Q 2931 1469 2931 1166 
Q 2931 609 2489 259 
Q 2047 -91 1331 -91 
Q 1053 -91 747 -37 
Q 441 16 72 128 
L 184 722 
Q 500 559 806 475 
Q 1113 391 1394 391 
Q 1816 391 2080 572 
Q 2344 753 2344 1031 
Q 2344 1331 1650 1516 
L 1591 1531 
L 1394 1581 
Q 956 1697 753 1886 
Q 550 2075 550 2369 
Q 550 2928 970 3256 
Q 1391 3584 2113 3584 
Q 2397 3584 2667 3537 
Q 2938 3491 3200 3397 
z
" transform="scale(0.015625)"/>
      </defs>
      <use xlink:href="#DejaVuSans-Oblique-68" transform="translate(0 0.015625)"/>
      <use xlink:href="#DejaVuSans-28" transform="translate(63.378906 0.015625)"/>
      <use xlink:href="#DejaVuSans-Oblique-74" transform="translate(102.392578 0.015625)"/>
      <use xlink:href="#DejaVuSans-29" transform="translate(141.601562 0.015625)"/>
      <use xlink:href="#DejaVuSans-20" transform="translate(180.615234 0.015625)"/>
      <use xlink:href="#DejaVuSans-77" transform="translate(212.402344 0.015625)"/>
      <use xlink:href="#DejaVuSans-69" transform="translate(294.189453 0.015625)"/>
      <use xlink:href="#DejaVuSans-74" transform="translate(321.972656 0.015625)"/>
      <use xlink:href="#DejaVuSans-68" transform="translate(361.181641 0.015625)"/>
      <use xlink:href="#DejaVuSans-20" transform="translate(424.560547 0.015625)"/>
      <use xlink:href="#DejaVuSans-Oblique-6e" transform="translate(456.347656 0.015625)"/>
      <use xlink:href="#DejaVuSans-3d" transform="translate(539.208984 0.015625)"/>
      <use xlink:href="#DejaVuSans-30" transform="translate(642.480469 0.015625)"/>
      <use xlink:href="#DejaVuSans-20" transform="translate(706.103516 0.015625)"/>
      <use xlink:href="#DejaVuSans-61" transform="translate(737.890625 0.015625)"/>
      <use xlink:href="#DejaVuSans-6e" transform="translate(799.169922 0.015625)"/>
      <use xlink:href="#DejaVuSans-64" transform="translate(862.548828 0.015625)"/>
      <use xlink:href="#DejaVuSans-20" transform="translate(926.025391 0.015625)"/>
      <use xlink:href="#DejaVuSans-Oblique-3c4" transform="translate(957.8125 0.015625)"/>
      <use xlink:href="#DejaVuSans-3d" transform="translate(1037.5 0.015625)"/>
      <use xlink:href="#DejaVuSans-32" transform="translate(1140.771484 0.015625)"/>
      <use xlink:href="#DejaVuSans-2e" transform="translate(1204.394531 0.015625)"/>
      <use xlink:href="#DejaVuSans-30" transform="translate(1236.181641 0.015625)"/>
      <use xlink:href="#DejaVuSans-Oblique-6d" transform="translate(1299.804688 0.015625)"/>
      <use xlink:href="#DejaVuSans-Oblique-73" transform="translate(1397.216797 0.015625)"/>
     </g>
    </g>
    <g id="line2d_19">
     <path d="M 280.84 63.776562 
L 290.84 63.776562 
L 300.84 63.776562 
" style="fill: none; stroke: #ff7f0e; stroke-width: 1.5; stroke-linecap: square"/>
    </g>
    <g id="text_16">
     <!-- $h(t)$ with $n=0$ and $\tau=5.0ms$ -->
     <g transform="translate(308.84 67.276562) scale(0.1 -0.1)">
      <use xlink:href="#DejaVuSans-Oblique-68" transform="translate(0 0.015625)"/>
      <use xlink:href="#DejaVuSans-28" transform="translate(63.378906 0.015625)"/>
      <use xlink:href="#DejaVuSans-Oblique-74" transform="translate(102.392578 0.015625)"/>
      <use xlink:href="#DejaVuSans-29" transform="translate(141.601562 0.015625)"/>
      <use xlink:href="#DejaVuSans-20" transform="translate(180.615234 0.015625)"/>
      <use xlink:href="#DejaVuSans-77" transform="translate(212.402344 0.015625)"/>
      <use xlink:href="#DejaVuSans-69" transform="translate(294.189453 0.015625)"/>
      <use xlink:href="#DejaVuSans-74" transform="translate(321.972656 0.015625)"/>
      <use xlink:href="#DejaVuSans-68" transform="translate(361.181641 0.015625)"/>
      <use xlink:href="#DejaVuSans-20" transform="translate(424.560547 0.015625)"/>
      <use xlink:href="#DejaVuSans-Oblique-6e" transform="translate(456.347656 0.015625)"/>
      <use xlink:href="#DejaVuSans-3d" transform="translate(539.208984 0.015625)"/>
      <use xlink:href="#DejaVuSans-30" transform="translate(642.480469 0.015625)"/>
      <use xlink:href="#DejaVuSans-20" transform="translate(706.103516 0.015625)"/>
      <use xlink:href="#DejaVuSans-61" transform="translate(737.890625 0.015625)"/>
      <use xlink:href="#DejaVuSans-6e" transform="translate(799.169922 0.015625)"/>
      <use xlink:href="#DejaVuSans-64" transform="translate(862.548828 0.015625)"/>
      <use xlink:href="#DejaVuSans-20" transform="translate(926.025391 0.015625)"/>
      <use xlink:href="#DejaVuSans-Oblique-3c4" transform="translate(957.8125 0.015625)"/>
      <use xlink:href="#DejaVuSans-3d" transform="translate(1037.5 0.015625)"/>
      <use xlink:href="#DejaVuSans-35" transform="translate(1140.771484 0.015625)"/>
      <use xlink:href="#DejaVuSans-2e" transform="translate(1204.394531 0.015625)"/>
      <use xlink:href="#DejaVuSans-30" transform="translate(1236.181641 0.015625)"/>
      <use xlink:href="#DejaVuSans-Oblique-6d" transform="translate(1299.804688 0.015625)"/>
      <use xlink:href="#DejaVuSans-Oblique-73" transform="translate(1397.216797 0.015625)"/>
     </g>
    </g>
    <g id="line2d_20">
     <path d="M 280.84 78.454687 
L 290.84 78.454687 
L 300.84 78.454687 
" style="fill: none; stroke: #2ca02c; stroke-width: 1.5; stroke-linecap: square"/>
    </g>
    <g id="text_17">
     <!-- $h(t)$ with $n=0$ and $\tau=10.0ms$ -->
     <g transform="translate(308.84 81.954687) scale(0.1 -0.1)">
      <use xlink:href="#DejaVuSans-Oblique-68" transform="translate(0 0.015625)"/>
      <use xlink:href="#DejaVuSans-28" transform="translate(63.378906 0.015625)"/>
      <use xlink:href="#DejaVuSans-Oblique-74" transform="translate(102.392578 0.015625)"/>
      <use xlink:href="#DejaVuSans-29" transform="translate(141.601562 0.015625)"/>
      <use xlink:href="#DejaVuSans-20" transform="translate(180.615234 0.015625)"/>
      <use xlink:href="#DejaVuSans-77" transform="translate(212.402344 0.015625)"/>
      <use xlink:href="#DejaVuSans-69" transform="translate(294.189453 0.015625)"/>
      <use xlink:href="#DejaVuSans-74" transform="translate(321.972656 0.015625)"/>
      <use xlink:href="#DejaVuSans-68" transform="translate(361.181641 0.015625)"/>
      <use xlink:href="#DejaVuSans-20" transform="translate(424.560547 0.015625)"/>
      <use xlink:href="#DejaVuSans-Oblique-6e" transform="translate(456.347656 0.015625)"/>
      <use xlink:href="#DejaVuSans-3d" transform="translate(539.208984 0.015625)"/>
      <use xlink:href="#DejaVuSans-30" transform="translate(642.480469 0.015625)"/>
      <use xlink:href="#DejaVuSans-20" transform="translate(706.103516 0.015625)"/>
      <use xlink:href="#DejaVuSans-61" transform="translate(737.890625 0.015625)"/>
      <use xlink:href="#DejaVuSans-6e" transform="translate(799.169922 0.015625)"/>
      <use xlink:href="#DejaVuSans-64" transform="translate(862.548828 0.015625)"/>
      <use xlink:href="#DejaVuSans-20" transform="translate(926.025391 0.015625)"/>
      <use xlink:href="#DejaVuSans-Oblique-3c4" transform="translate(957.8125 0.015625)"/>
      <use xlink:href="#DejaVuSans-3d" transform="translate(1037.5 0.015625)"/>
      <use xlink:href="#DejaVuSans-31" transform="translate(1140.771484 0.015625)"/>
      <use xlink:href="#DejaVuSans-30" transform="translate(1204.394531 0.015625)"/>
      <use xlink:href="#DejaVuSans-2e" transform="translate(1268.017578 0.015625)"/>
      <use xlink:href="#DejaVuSans-30" transform="translate(1299.804688 0.015625)"/>
      <use xlink:href="#DejaVuSans-Oblique-6d" transform="translate(1363.427734 0.015625)"/>
      <use xlink:href="#DejaVuSans-Oblique-73" transform="translate(1460.839844 0.015625)"/>
     </g>
    </g>
    <g id="line2d_21">
     <path d="M 280.84 93.132812 
L 290.84 93.132812 
L 300.84 93.132812 
" style="fill: none; stroke: #d62728; stroke-width: 1.5; stroke-linecap: square"/>
    </g>
    <g id="text_18">
     <!-- $h(t)$ with $n=0$ and $\tau=20.0ms$ -->
     <g transform="translate(308.84 96.632812) scale(0.1 -0.1)">
      <use xlink:href="#DejaVuSans-Oblique-68" transform="translate(0 0.015625)"/>
      <use xlink:href="#DejaVuSans-28" transform="translate(63.378906 0.015625)"/>
      <use xlink:href="#DejaVuSans-Oblique-74" transform="translate(102.392578 0.015625)"/>
      <use xlink:href="#DejaVuSans-29" transform="translate(141.601562 0.015625)"/>
      <use xlink:href="#DejaVuSans-20" transform="translate(180.615234 0.015625)"/>
      <use xlink:href="#DejaVuSans-77" transform="translate(212.402344 0.015625)"/>
      <use xlink:href="#DejaVuSans-69" transform="translate(294.189453 0.015625)"/>
      <use xlink:href="#DejaVuSans-74" transform="translate(321.972656 0.015625)"/>
      <use xlink:href="#DejaVuSans-68" transform="translate(361.181641 0.015625)"/>
      <use xlink:href="#DejaVuSans-20" transform="translate(424.560547 0.015625)"/>
      <use xlink:href="#DejaVuSans-Oblique-6e" transform="translate(456.347656 0.015625)"/>
      <use xlink:href="#DejaVuSans-3d" transform="translate(539.208984 0.015625)"/>
      <use xlink:href="#DejaVuSans-30" transform="translate(642.480469 0.015625)"/>
      <use xlink:href="#DejaVuSans-20" transform="translate(706.103516 0.015625)"/>
      <use xlink:href="#DejaVuSans-61" transform="translate(737.890625 0.015625)"/>
      <use xlink:href="#DejaVuSans-6e" transform="translate(799.169922 0.015625)"/>
      <use xlink:href="#DejaVuSans-64" transform="translate(862.548828 0.015625)"/>
      <use xlink:href="#DejaVuSans-20" transform="translate(926.025391 0.015625)"/>
      <use xlink:href="#DejaVuSans-Oblique-3c4" transform="translate(957.8125 0.015625)"/>
      <use xlink:href="#DejaVuSans-3d" transform="translate(1037.5 0.015625)"/>
      <use xlink:href="#DejaVuSans-32" transform="translate(1140.771484 0.015625)"/>
      <use xlink:href="#DejaVuSans-30" transform="translate(1204.394531 0.015625)"/>
      <use xlink:href="#DejaVuSans-2e" transform="translate(1268.017578 0.015625)"/>
      <use xlink:href="#DejaVuSans-30" transform="translate(1299.804688 0.015625)"/>
      <use xlink:href="#DejaVuSans-Oblique-6d" transform="translate(1363.427734 0.015625)"/>
      <use xlink:href="#DejaVuSans-Oblique-73" transform="translate(1460.839844 0.015625)"/>
     </g>
    </g>
   </g>
  </g>
  <g id="text_19">
   <!-- Normalized post-synaptic filter $h(t)$ with $n=0$ and $\tau=2ms,5ms,10ms,20ms$ on the same graph -->
   <g transform="translate(7.2 16.32) scale(0.12 -0.12)">
    <defs>
     <path id="DejaVuSans-4e" d="M 628 4666 
L 1478 4666 
L 3547 763 
L 3547 4666 
L 4159 4666 
L 4159 0 
L 3309 0 
L 1241 3903 
L 1241 0 
L 628 0 
L 628 4666 
z
" transform="scale(0.015625)"/>
     <path id="DejaVuSans-6f" d="M 1959 3097 
Q 1497 3097 1228 2736 
Q 959 2375 959 1747 
Q 959 1119 1226 758 
Q 1494 397 1959 397 
Q 2419 397 2687 759 
Q 2956 1122 2956 1747 
Q 2956 2369 2687 2733 
Q 2419 3097 1959 3097 
z
M 1959 3584 
Q 2709 3584 3137 3096 
Q 3566 2609 3566 1747 
Q 3566 888 3137 398 
Q 2709 -91 1959 -91 
Q 1206 -91 779 398 
Q 353 888 353 1747 
Q 353 2609 779 3096 
Q 1206 3584 1959 3584 
z
" transform="scale(0.015625)"/>
     <path id="DejaVuSans-72" d="M 2631 2963 
Q 2534 3019 2420 3045 
Q 2306 3072 2169 3072 
Q 1681 3072 1420 2755 
Q 1159 2438 1159 1844 
L 1159 0 
L 581 0 
L 581 3500 
L 1159 3500 
L 1159 2956 
Q 1341 3275 1631 3429 
Q 1922 3584 2338 3584 
Q 2397 3584 2469 3576 
Q 2541 3569 2628 3553 
L 2631 2963 
z
" transform="scale(0.015625)"/>
     <path id="DejaVuSans-6d" d="M 3328 2828 
Q 3544 3216 3844 3400 
Q 4144 3584 4550 3584 
Q 5097 3584 5394 3201 
Q 5691 2819 5691 2113 
L 5691 0 
L 5113 0 
L 5113 2094 
Q 5113 2597 4934 2840 
Q 4756 3084 4391 3084 
Q 3944 3084 3684 2787 
Q 3425 2491 3425 1978 
L 3425 0 
L 2847 0 
L 2847 2094 
Q 2847 2600 2669 2842 
Q 2491 3084 2119 3084 
Q 1678 3084 1418 2786 
Q 1159 2488 1159 1978 
L 1159 0 
L 581 0 
L 581 3500 
L 1159 3500 
L 1159 2956 
Q 1356 3278 1631 3431 
Q 1906 3584 2284 3584 
Q 2666 3584 2933 3390 
Q 3200 3197 3328 2828 
z
" transform="scale(0.015625)"/>
     <path id="DejaVuSans-6c" d="M 603 4863 
L 1178 4863 
L 1178 0 
L 603 0 
L 603 4863 
z
" transform="scale(0.015625)"/>
     <path id="DejaVuSans-7a" d="M 353 3500 
L 3084 3500 
L 3084 2975 
L 922 459 
L 3084 459 
L 3084 0 
L 275 0 
L 275 525 
L 2438 3041 
L 353 3041 
L 353 3500 
z
" transform="scale(0.015625)"/>
     <path id="DejaVuSans-65" d="M 3597 1894 
L 3597 1613 
L 953 1613 
Q 991 1019 1311 708 
Q 1631 397 2203 397 
Q 2534 397 2845 478 
Q 3156 559 3463 722 
L 3463 178 
Q 3153 47 2828 -22 
Q 2503 -91 2169 -91 
Q 1331 -91 842 396 
Q 353 884 353 1716 
Q 353 2575 817 3079 
Q 1281 3584 2069 3584 
Q 2775 3584 3186 3129 
Q 3597 2675 3597 1894 
z
M 3022 2063 
Q 3016 2534 2758 2815 
Q 2500 3097 2075 3097 
Q 1594 3097 1305 2825 
Q 1016 2553 972 2059 
L 3022 2063 
z
" transform="scale(0.015625)"/>
     <path id="DejaVuSans-70" d="M 1159 525 
L 1159 -1331 
L 581 -1331 
L 581 3500 
L 1159 3500 
L 1159 2969 
Q 1341 3281 1617 3432 
Q 1894 3584 2278 3584 
Q 2916 3584 3314 3078 
Q 3713 2572 3713 1747 
Q 3713 922 3314 415 
Q 2916 -91 2278 -91 
Q 1894 -91 1617 61 
Q 1341 213 1159 525 
z
M 3116 1747 
Q 3116 2381 2855 2742 
Q 2594 3103 2138 3103 
Q 1681 3103 1420 2742 
Q 1159 2381 1159 1747 
Q 1159 1113 1420 752 
Q 1681 391 2138 391 
Q 2594 391 2855 752 
Q 3116 1113 3116 1747 
z
" transform="scale(0.015625)"/>
     <path id="DejaVuSans-73" d="M 2834 3397 
L 2834 2853 
Q 2591 2978 2328 3040 
Q 2066 3103 1784 3103 
Q 1356 3103 1142 2972 
Q 928 2841 928 2578 
Q 928 2378 1081 2264 
Q 1234 2150 1697 2047 
L 1894 2003 
Q 2506 1872 2764 1633 
Q 3022 1394 3022 966 
Q 3022 478 2636 193 
Q 2250 -91 1575 -91 
Q 1294 -91 989 -36 
Q 684 19 347 128 
L 347 722 
Q 666 556 975 473 
Q 1284 391 1588 391 
Q 1994 391 2212 530 
Q 2431 669 2431 922 
Q 2431 1156 2273 1281 
Q 2116 1406 1581 1522 
L 1381 1569 
Q 847 1681 609 1914 
Q 372 2147 372 2553 
Q 372 3047 722 3315 
Q 1072 3584 1716 3584 
Q 2034 3584 2315 3537 
Q 2597 3491 2834 3397 
z
" transform="scale(0.015625)"/>
     <path id="DejaVuSans-2d" d="M 313 2009 
L 1997 2009 
L 1997 1497 
L 313 1497 
L 313 2009 
z
" transform="scale(0.015625)"/>
     <path id="DejaVuSans-79" d="M 2059 -325 
Q 1816 -950 1584 -1140 
Q 1353 -1331 966 -1331 
L 506 -1331 
L 506 -850 
L 844 -850 
Q 1081 -850 1212 -737 
Q 1344 -625 1503 -206 
L 1606 56 
L 191 3500 
L 800 3500 
L 1894 763 
L 2988 3500 
L 3597 3500 
L 2059 -325 
z
" transform="scale(0.015625)"/>
     <path id="DejaVuSans-63" d="M 3122 3366 
L 3122 2828 
Q 2878 2963 2633 3030 
Q 2388 3097 2138 3097 
Q 1578 3097 1268 2742 
Q 959 2388 959 1747 
Q 959 1106 1268 751 
Q 1578 397 2138 397 
Q 2388 397 2633 464 
Q 2878 531 3122 666 
L 3122 134 
Q 2881 22 2623 -34 
Q 2366 -91 2075 -91 
Q 1284 -91 818 406 
Q 353 903 353 1747 
Q 353 2603 823 3093 
Q 1294 3584 2113 3584 
Q 2378 3584 2631 3529 
Q 2884 3475 3122 3366 
z
" transform="scale(0.015625)"/>
     <path id="DejaVuSans-66" d="M 2375 4863 
L 2375 4384 
L 1825 4384 
Q 1516 4384 1395 4259 
Q 1275 4134 1275 3809 
L 1275 3500 
L 2222 3500 
L 2222 3053 
L 1275 3053 
L 1275 0 
L 697 0 
L 697 3053 
L 147 3053 
L 147 3500 
L 697 3500 
L 697 3744 
Q 697 4328 969 4595 
Q 1241 4863 1831 4863 
L 2375 4863 
z
" transform="scale(0.015625)"/>
     <path id="DejaVuSans-2c" d="M 750 794 
L 1409 794 
L 1409 256 
L 897 -744 
L 494 -744 
L 750 256 
L 750 794 
z
" transform="scale(0.015625)"/>
     <path id="DejaVuSans-67" d="M 2906 1791 
Q 2906 2416 2648 2759 
Q 2391 3103 1925 3103 
Q 1463 3103 1205 2759 
Q 947 2416 947 1791 
Q 947 1169 1205 825 
Q 1463 481 1925 481 
Q 2391 481 2648 825 
Q 2906 1169 2906 1791 
z
M 3481 434 
Q 3481 -459 3084 -895 
Q 2688 -1331 1869 -1331 
Q 1566 -1331 1297 -1286 
Q 1028 -1241 775 -1147 
L 775 -588 
Q 1028 -725 1275 -790 
Q 1522 -856 1778 -856 
Q 2344 -856 2625 -561 
Q 2906 -266 2906 331 
L 2906 616 
Q 2728 306 2450 153 
Q 2172 0 1784 0 
Q 1141 0 747 490 
Q 353 981 353 1791 
Q 353 2603 747 3093 
Q 1141 3584 1784 3584 
Q 2172 3584 2450 3431 
Q 2728 3278 2906 2969 
L 2906 3500 
L 3481 3500 
L 3481 434 
z
" transform="scale(0.015625)"/>
    </defs>
    <use xlink:href="#DejaVuSans-4e" transform="translate(0 0.015625)"/>
    <use xlink:href="#DejaVuSans-6f" transform="translate(74.804688 0.015625)"/>
    <use xlink:href="#DejaVuSans-72" transform="translate(135.986328 0.015625)"/>
    <use xlink:href="#DejaVuSans-6d" transform="translate(177.099609 0.015625)"/>
    <use xlink:href="#DejaVuSans-61" transform="translate(274.511719 0.015625)"/>
    <use xlink:href="#DejaVuSans-6c" transform="translate(335.791016 0.015625)"/>
    <use xlink:href="#DejaVuSans-69" transform="translate(363.574219 0.015625)"/>
    <use xlink:href="#DejaVuSans-7a" transform="translate(391.357422 0.015625)"/>
    <use xlink:href="#DejaVuSans-65" transform="translate(443.847656 0.015625)"/>
    <use xlink:href="#DejaVuSans-64" transform="translate(505.371094 0.015625)"/>
    <use xlink:href="#DejaVuSans-20" transform="translate(568.847656 0.015625)"/>
    <use xlink:href="#DejaVuSans-70" transform="translate(600.634766 0.015625)"/>
    <use xlink:href="#DejaVuSans-6f" transform="translate(664.111328 0.015625)"/>
    <use xlink:href="#DejaVuSans-73" transform="translate(725.292969 0.015625)"/>
    <use xlink:href="#DejaVuSans-74" transform="translate(777.392578 0.015625)"/>
    <use xlink:href="#DejaVuSans-2d" transform="translate(816.601562 0.015625)"/>
    <use xlink:href="#DejaVuSans-73" transform="translate(852.685547 0.015625)"/>
    <use xlink:href="#DejaVuSans-79" transform="translate(904.785156 0.015625)"/>
    <use xlink:href="#DejaVuSans-6e" transform="translate(963.964844 0.015625)"/>
    <use xlink:href="#DejaVuSans-61" transform="translate(1027.34375 0.015625)"/>
    <use xlink:href="#DejaVuSans-70" transform="translate(1088.623047 0.015625)"/>
    <use xlink:href="#DejaVuSans-74" transform="translate(1152.099609 0.015625)"/>
    <use xlink:href="#DejaVuSans-69" transform="translate(1191.308594 0.015625)"/>
    <use xlink:href="#DejaVuSans-63" transform="translate(1219.091797 0.015625)"/>
    <use xlink:href="#DejaVuSans-20" transform="translate(1274.072266 0.015625)"/>
    <use xlink:href="#DejaVuSans-66" transform="translate(1305.859375 0.015625)"/>
    <use xlink:href="#DejaVuSans-69" transform="translate(1341.064453 0.015625)"/>
    <use xlink:href="#DejaVuSans-6c" transform="translate(1368.847656 0.015625)"/>
    <use xlink:href="#DejaVuSans-74" transform="translate(1396.630859 0.015625)"/>
    <use xlink:href="#DejaVuSans-65" transform="translate(1435.839844 0.015625)"/>
    <use xlink:href="#DejaVuSans-72" transform="translate(1497.363281 0.015625)"/>
    <use xlink:href="#DejaVuSans-20" transform="translate(1538.476562 0.015625)"/>
    <use xlink:href="#DejaVuSans-Oblique-68" transform="translate(1570.263672 0.015625)"/>
    <use xlink:href="#DejaVuSans-28" transform="translate(1633.642578 0.015625)"/>
    <use xlink:href="#DejaVuSans-Oblique-74" transform="translate(1672.65625 0.015625)"/>
    <use xlink:href="#DejaVuSans-29" transform="translate(1711.865234 0.015625)"/>
    <use xlink:href="#DejaVuSans-20" transform="translate(1750.878906 0.015625)"/>
    <use xlink:href="#DejaVuSans-77" transform="translate(1782.666016 0.015625)"/>
    <use xlink:href="#DejaVuSans-69" transform="translate(1864.453125 0.015625)"/>
    <use xlink:href="#DejaVuSans-74" transform="translate(1892.236328 0.015625)"/>
    <use xlink:href="#DejaVuSans-68" transform="translate(1931.445312 0.015625)"/>
    <use xlink:href="#DejaVuSans-20" transform="translate(1994.824219 0.015625)"/>
    <use xlink:href="#DejaVuSans-Oblique-6e" transform="translate(2026.611328 0.015625)"/>
    <use xlink:href="#DejaVuSans-3d" transform="translate(2109.472656 0.015625)"/>
    <use xlink:href="#DejaVuSans-30" transform="translate(2212.744141 0.015625)"/>
    <use xlink:href="#DejaVuSans-20" transform="translate(2276.367188 0.015625)"/>
    <use xlink:href="#DejaVuSans-61" transform="translate(2308.154297 0.015625)"/>
    <use xlink:href="#DejaVuSans-6e" transform="translate(2369.433594 0.015625)"/>
    <use xlink:href="#DejaVuSans-64" transform="translate(2432.8125 0.015625)"/>
    <use xlink:href="#DejaVuSans-20" transform="translate(2496.289062 0.015625)"/>
    <use xlink:href="#DejaVuSans-Oblique-3c4" transform="translate(2528.076172 0.015625)"/>
    <use xlink:href="#DejaVuSans-3d" transform="translate(2607.763672 0.015625)"/>
    <use xlink:href="#DejaVuSans-32" transform="translate(2711.035156 0.015625)"/>
    <use xlink:href="#DejaVuSans-Oblique-6d" transform="translate(2772.908203 0.015625)"/>
    <use xlink:href="#DejaVuSans-Oblique-73" transform="translate(2870.320312 0.015625)"/>
    <use xlink:href="#DejaVuSans-2c" transform="translate(2922.419922 0.015625)"/>
    <use xlink:href="#DejaVuSans-35" transform="translate(2973.689453 0.015625)"/>
    <use xlink:href="#DejaVuSans-Oblique-6d" transform="translate(3031.8125 0.015625)"/>
    <use xlink:href="#DejaVuSans-Oblique-73" transform="translate(3129.224609 0.015625)"/>
    <use xlink:href="#DejaVuSans-2c" transform="translate(3181.324219 0.015625)"/>
    <use xlink:href="#DejaVuSans-31" transform="translate(3232.59375 0.015625)"/>
    <use xlink:href="#DejaVuSans-30" transform="translate(3296.216797 0.015625)"/>
    <use xlink:href="#DejaVuSans-Oblique-6d" transform="translate(3359.839844 0.015625)"/>
    <use xlink:href="#DejaVuSans-Oblique-73" transform="translate(3457.251953 0.015625)"/>
    <use xlink:href="#DejaVuSans-2c" transform="translate(3509.351562 0.015625)"/>
    <use xlink:href="#DejaVuSans-32" transform="translate(3560.621094 0.015625)"/>
    <use xlink:href="#DejaVuSans-30" transform="translate(3624.244141 0.015625)"/>
    <use xlink:href="#DejaVuSans-Oblique-6d" transform="translate(3687.867188 0.015625)"/>
    <use xlink:href="#DejaVuSans-Oblique-73" transform="translate(3785.279297 0.015625)"/>
    <use xlink:href="#DejaVuSans-20" transform="translate(3837.378906 0.015625)"/>
    <use xlink:href="#DejaVuSans-6f" transform="translate(3869.166016 0.015625)"/>
    <use xlink:href="#DejaVuSans-6e" transform="translate(3930.347656 0.015625)"/>
    <use xlink:href="#DejaVuSans-20" transform="translate(3993.726562 0.015625)"/>
    <use xlink:href="#DejaVuSans-74" transform="translate(4025.513672 0.015625)"/>
    <use xlink:href="#DejaVuSans-68" transform="translate(4064.722656 0.015625)"/>
    <use xlink:href="#DejaVuSans-65" transform="translate(4128.101562 0.015625)"/>
    <use xlink:href="#DejaVuSans-20" transform="translate(4189.625 0.015625)"/>
    <use xlink:href="#DejaVuSans-73" transform="translate(4221.412109 0.015625)"/>
    <use xlink:href="#DejaVuSans-61" transform="translate(4273.511719 0.015625)"/>
    <use xlink:href="#DejaVuSans-6d" transform="translate(4334.791016 0.015625)"/>
    <use xlink:href="#DejaVuSans-65" transform="translate(4432.203125 0.015625)"/>
    <use xlink:href="#DejaVuSans-20" transform="translate(4493.726562 0.015625)"/>
    <use xlink:href="#DejaVuSans-67" transform="translate(4525.513672 0.015625)"/>
    <use xlink:href="#DejaVuSans-72" transform="translate(4588.990234 0.015625)"/>
    <use xlink:href="#DejaVuSans-61" transform="translate(4630.103516 0.015625)"/>
    <use xlink:href="#DejaVuSans-70" transform="translate(4691.382812 0.015625)"/>
    <use xlink:href="#DejaVuSans-68" transform="translate(4754.859375 0.015625)"/>
   </g>
  </g>
 </g>
 <defs>
  <clipPath id="pc2ce41f49d">
   <rect x="134.34" y="36" width="334.8" height="217.44"/>
  </clipPath>
 </defs>
</svg>
