<?xml version="1.0" encoding="utf-8" standalone="no"?>
<!DOCTYPE svg PUBLIC "-//W3C//DTD SVG 1.1//EN"
  "http://www.w3.org/Graphics/SVG/1.1/DTD/svg11.dtd">
<svg xmlns:xlink="http://www.w3.org/1999/xlink" width="442.44pt" height="290.99625pt" viewBox="0 0 442.44 290.99625" xmlns="http://www.w3.org/2000/svg" version="1.1">
 <metadata>
  <rdf:RDF xmlns:dc="http://purl.org/dc/elements/1.1/" xmlns:cc="http://creativecommons.org/ns#" xmlns:rdf="http://www.w3.org/1999/02/22-rdf-syntax-ns#">
   <cc:Work>
    <dc:type rdf:resource="http://purl.org/dc/dcmitype/StillImage"/>
    <dc:date>2022-10-17T21:20:06.771348</dc:date>
    <dc:format>image/svg+xml</dc:format>
    <dc:creator>
     <cc:Agent>
      <dc:title>Matplotlib v3.6.0, https://matplotlib.org/</dc:title>
     </cc:Agent>
    </dc:creator>
   </cc:Work>
  </rdf:RDF>
 </metadata>
 <defs>
  <style type="text/css">*{stroke-linejoin: round; stroke-linecap: butt}</style>
 </defs>
 <g id="figure_1">
  <g id="patch_1">
   <path d="M 0 290.99625 
L 442.44 290.99625 
L 442.44 0 
L 0 0 
L 0 290.99625 
z
" style="fill: none"/>
  </g>
  <g id="axes_1">
   <g id="patch_2">
    <path d="M 59.22 253.44 
L 394.02 253.44 
L 394.02 36 
L 59.22 36 
z
" style="fill: #ffffff"/>
   </g>
   <g id="matplotlib.axis_1">
    <g id="xtick_1">
     <g id="line2d_1">
      <defs>
       <path id="m2c552c7af5" d="M 0 0 
L 0 3.5 
" style="stroke: #000000; stroke-width: 0.8"/>
      </defs>
      <g>
       <use xlink:href="#m2c552c7af5" x="59.22" y="253.44" style="stroke: #000000; stroke-width: 0.8"/>
      </g>
     </g>
     <g id="text_1">
      <!-- 0.00 -->
      <g transform="translate(48.087187 268.038437) scale(0.1 -0.1)">
       <defs>
        <path id="DejaVuSans-30" d="M 2034 4250 
Q 1547 4250 1301 3770 
Q 1056 3291 1056 2328 
Q 1056 1369 1301 889 
Q 1547 409 2034 409 
Q 2525 409 2770 889 
Q 3016 1369 3016 2328 
Q 3016 3291 2770 3770 
Q 2525 4250 2034 4250 
z
M 2034 4750 
Q 2819 4750 3233 4129 
Q 3647 3509 3647 2328 
Q 3647 1150 3233 529 
Q 2819 -91 2034 -91 
Q 1250 -91 836 529 
Q 422 1150 422 2328 
Q 422 3509 836 4129 
Q 1250 4750 2034 4750 
z
" transform="scale(0.015625)"/>
        <path id="DejaVuSans-2e" d="M 684 794 
L 1344 794 
L 1344 0 
L 684 0 
L 684 794 
z
" transform="scale(0.015625)"/>
       </defs>
       <use xlink:href="#DejaVuSans-30"/>
       <use xlink:href="#DejaVuSans-2e" x="63.623047"/>
       <use xlink:href="#DejaVuSans-30" x="95.410156"/>
       <use xlink:href="#DejaVuSans-30" x="159.033203"/>
      </g>
     </g>
    </g>
    <g id="xtick_2">
     <g id="line2d_2">
      <g>
       <use xlink:href="#m2c552c7af5" x="101.07" y="253.44" style="stroke: #000000; stroke-width: 0.8"/>
      </g>
     </g>
     <g id="text_2">
      <!-- 0.25 -->
      <g transform="translate(89.937187 268.038437) scale(0.1 -0.1)">
       <defs>
        <path id="DejaVuSans-32" d="M 1228 531 
L 3431 531 
L 3431 0 
L 469 0 
L 469 531 
Q 828 903 1448 1529 
Q 2069 2156 2228 2338 
Q 2531 2678 2651 2914 
Q 2772 3150 2772 3378 
Q 2772 3750 2511 3984 
Q 2250 4219 1831 4219 
Q 1534 4219 1204 4116 
Q 875 4013 500 3803 
L 500 4441 
Q 881 4594 1212 4672 
Q 1544 4750 1819 4750 
Q 2544 4750 2975 4387 
Q 3406 4025 3406 3419 
Q 3406 3131 3298 2873 
Q 3191 2616 2906 2266 
Q 2828 2175 2409 1742 
Q 1991 1309 1228 531 
z
" transform="scale(0.015625)"/>
        <path id="DejaVuSans-35" d="M 691 4666 
L 3169 4666 
L 3169 4134 
L 1269 4134 
L 1269 2991 
Q 1406 3038 1543 3061 
Q 1681 3084 1819 3084 
Q 2600 3084 3056 2656 
Q 3513 2228 3513 1497 
Q 3513 744 3044 326 
Q 2575 -91 1722 -91 
Q 1428 -91 1123 -41 
Q 819 9 494 109 
L 494 744 
Q 775 591 1075 516 
Q 1375 441 1709 441 
Q 2250 441 2565 725 
Q 2881 1009 2881 1497 
Q 2881 1984 2565 2268 
Q 2250 2553 1709 2553 
Q 1456 2553 1204 2497 
Q 953 2441 691 2322 
L 691 4666 
z
" transform="scale(0.015625)"/>
       </defs>
       <use xlink:href="#DejaVuSans-30"/>
       <use xlink:href="#DejaVuSans-2e" x="63.623047"/>
       <use xlink:href="#DejaVuSans-32" x="95.410156"/>
       <use xlink:href="#DejaVuSans-35" x="159.033203"/>
      </g>
     </g>
    </g>
    <g id="xtick_3">
     <g id="line2d_3">
      <g>
       <use xlink:href="#m2c552c7af5" x="142.92" y="253.44" style="stroke: #000000; stroke-width: 0.8"/>
      </g>
     </g>
     <g id="text_3">
      <!-- 0.50 -->
      <g transform="translate(131.787187 268.038437) scale(0.1 -0.1)">
       <use xlink:href="#DejaVuSans-30"/>
       <use xlink:href="#DejaVuSans-2e" x="63.623047"/>
       <use xlink:href="#DejaVuSans-35" x="95.410156"/>
       <use xlink:href="#DejaVuSans-30" x="159.033203"/>
      </g>
     </g>
    </g>
    <g id="xtick_4">
     <g id="line2d_4">
      <g>
       <use xlink:href="#m2c552c7af5" x="184.77" y="253.44" style="stroke: #000000; stroke-width: 0.8"/>
      </g>
     </g>
     <g id="text_4">
      <!-- 0.75 -->
      <g transform="translate(173.637187 268.038437) scale(0.1 -0.1)">
       <defs>
        <path id="DejaVuSans-37" d="M 525 4666 
L 3525 4666 
L 3525 4397 
L 1831 0 
L 1172 0 
L 2766 4134 
L 525 4134 
L 525 4666 
z
" transform="scale(0.015625)"/>
       </defs>
       <use xlink:href="#DejaVuSans-30"/>
       <use xlink:href="#DejaVuSans-2e" x="63.623047"/>
       <use xlink:href="#DejaVuSans-37" x="95.410156"/>
       <use xlink:href="#DejaVuSans-35" x="159.033203"/>
      </g>
     </g>
    </g>
    <g id="xtick_5">
     <g id="line2d_5">
      <g>
       <use xlink:href="#m2c552c7af5" x="226.62" y="253.44" style="stroke: #000000; stroke-width: 0.8"/>
      </g>
     </g>
     <g id="text_5">
      <!-- 1.00 -->
      <g transform="translate(215.487188 268.038437) scale(0.1 -0.1)">
       <defs>
        <path id="DejaVuSans-31" d="M 794 531 
L 1825 531 
L 1825 4091 
L 703 3866 
L 703 4441 
L 1819 4666 
L 2450 4666 
L 2450 531 
L 3481 531 
L 3481 0 
L 794 0 
L 794 531 
z
" transform="scale(0.015625)"/>
       </defs>
       <use xlink:href="#DejaVuSans-31"/>
       <use xlink:href="#DejaVuSans-2e" x="63.623047"/>
       <use xlink:href="#DejaVuSans-30" x="95.410156"/>
       <use xlink:href="#DejaVuSans-30" x="159.033203"/>
      </g>
     </g>
    </g>
    <g id="xtick_6">
     <g id="line2d_6">
      <g>
       <use xlink:href="#m2c552c7af5" x="268.47" y="253.44" style="stroke: #000000; stroke-width: 0.8"/>
      </g>
     </g>
     <g id="text_6">
      <!-- 1.25 -->
      <g transform="translate(257.337187 268.038437) scale(0.1 -0.1)">
       <use xlink:href="#DejaVuSans-31"/>
       <use xlink:href="#DejaVuSans-2e" x="63.623047"/>
       <use xlink:href="#DejaVuSans-32" x="95.410156"/>
       <use xlink:href="#DejaVuSans-35" x="159.033203"/>
      </g>
     </g>
    </g>
    <g id="xtick_7">
     <g id="line2d_7">
      <g>
       <use xlink:href="#m2c552c7af5" x="310.32" y="253.44" style="stroke: #000000; stroke-width: 0.8"/>
      </g>
     </g>
     <g id="text_7">
      <!-- 1.50 -->
      <g transform="translate(299.187187 268.038437) scale(0.1 -0.1)">
       <use xlink:href="#DejaVuSans-31"/>
       <use xlink:href="#DejaVuSans-2e" x="63.623047"/>
       <use xlink:href="#DejaVuSans-35" x="95.410156"/>
       <use xlink:href="#DejaVuSans-30" x="159.033203"/>
      </g>
     </g>
    </g>
    <g id="xtick_8">
     <g id="line2d_8">
      <g>
       <use xlink:href="#m2c552c7af5" x="352.17" y="253.44" style="stroke: #000000; stroke-width: 0.8"/>
      </g>
     </g>
     <g id="text_8">
      <!-- 1.75 -->
      <g transform="translate(341.037187 268.038437) scale(0.1 -0.1)">
       <use xlink:href="#DejaVuSans-31"/>
       <use xlink:href="#DejaVuSans-2e" x="63.623047"/>
       <use xlink:href="#DejaVuSans-37" x="95.410156"/>
       <use xlink:href="#DejaVuSans-35" x="159.033203"/>
      </g>
     </g>
    </g>
    <g id="xtick_9">
     <g id="line2d_9">
      <g>
       <use xlink:href="#m2c552c7af5" x="394.02" y="253.44" style="stroke: #000000; stroke-width: 0.8"/>
      </g>
     </g>
     <g id="text_9">
      <!-- 2.00 -->
      <g transform="translate(382.887187 268.038437) scale(0.1 -0.1)">
       <use xlink:href="#DejaVuSans-32"/>
       <use xlink:href="#DejaVuSans-2e" x="63.623047"/>
       <use xlink:href="#DejaVuSans-30" x="95.410156"/>
       <use xlink:href="#DejaVuSans-30" x="159.033203"/>
      </g>
     </g>
    </g>
    <g id="text_10">
     <!-- $t$ -->
     <g transform="translate(224.62 281.716562) scale(0.1 -0.1)">
      <defs>
       <path id="DejaVuSans-Oblique-74" d="M 2706 3500 
L 2619 3053 
L 1472 3053 
L 1100 1153 
Q 1081 1047 1072 975 
Q 1063 903 1063 863 
Q 1063 663 1183 572 
Q 1303 481 1569 481 
L 2150 481 
L 2053 0 
L 1503 0 
Q 991 0 739 200 
Q 488 400 488 806 
Q 488 878 497 964 
Q 506 1050 525 1153 
L 897 3053 
L 409 3053 
L 500 3500 
L 978 3500 
L 1172 4494 
L 1747 4494 
L 1556 3500 
L 2706 3500 
z
" transform="scale(0.015625)"/>
      </defs>
      <use xlink:href="#DejaVuSans-Oblique-74" transform="translate(0 0.78125)"/>
     </g>
    </g>
   </g>
   <g id="matplotlib.axis_2">
    <g id="ytick_1">
     <g id="line2d_10">
      <defs>
       <path id="ma8bbabe27f" d="M 0 0 
L -3.5 0 
" style="stroke: #000000; stroke-width: 0.8"/>
      </defs>
      <g>
       <use xlink:href="#ma8bbabe27f" x="59.22" y="224.844312" style="stroke: #000000; stroke-width: 0.8"/>
      </g>
     </g>
     <g id="text_11">
      <!-- −1.0 -->
      <g transform="translate(27.937187 228.643531) scale(0.1 -0.1)">
       <defs>
        <path id="DejaVuSans-2212" d="M 678 2272 
L 4684 2272 
L 4684 1741 
L 678 1741 
L 678 2272 
z
" transform="scale(0.015625)"/>
       </defs>
       <use xlink:href="#DejaVuSans-2212"/>
       <use xlink:href="#DejaVuSans-31" x="83.789062"/>
       <use xlink:href="#DejaVuSans-2e" x="147.412109"/>
       <use xlink:href="#DejaVuSans-30" x="179.199219"/>
      </g>
     </g>
    </g>
    <g id="ytick_2">
     <g id="line2d_11">
      <g>
       <use xlink:href="#ma8bbabe27f" x="59.22" y="187.42021" style="stroke: #000000; stroke-width: 0.8"/>
      </g>
     </g>
     <g id="text_12">
      <!-- −0.5 -->
      <g transform="translate(27.937187 191.219429) scale(0.1 -0.1)">
       <use xlink:href="#DejaVuSans-2212"/>
       <use xlink:href="#DejaVuSans-30" x="83.789062"/>
       <use xlink:href="#DejaVuSans-2e" x="147.412109"/>
       <use xlink:href="#DejaVuSans-35" x="179.199219"/>
      </g>
     </g>
    </g>
    <g id="ytick_3">
     <g id="line2d_12">
      <g>
       <use xlink:href="#ma8bbabe27f" x="59.22" y="149.996107" style="stroke: #000000; stroke-width: 0.8"/>
      </g>
     </g>
     <g id="text_13">
      <!-- 0.0 -->
      <g transform="translate(36.316875 153.795326) scale(0.1 -0.1)">
       <use xlink:href="#DejaVuSans-30"/>
       <use xlink:href="#DejaVuSans-2e" x="63.623047"/>
       <use xlink:href="#DejaVuSans-30" x="95.410156"/>
      </g>
     </g>
    </g>
    <g id="ytick_4">
     <g id="line2d_13">
      <g>
       <use xlink:href="#ma8bbabe27f" x="59.22" y="112.572005" style="stroke: #000000; stroke-width: 0.8"/>
      </g>
     </g>
     <g id="text_14">
      <!-- 0.5 -->
      <g transform="translate(36.316875 116.371223) scale(0.1 -0.1)">
       <use xlink:href="#DejaVuSans-30"/>
       <use xlink:href="#DejaVuSans-2e" x="63.623047"/>
       <use xlink:href="#DejaVuSans-35" x="95.410156"/>
      </g>
     </g>
    </g>
    <g id="ytick_5">
     <g id="line2d_14">
      <g>
       <use xlink:href="#ma8bbabe27f" x="59.22" y="75.147902" style="stroke: #000000; stroke-width: 0.8"/>
      </g>
     </g>
     <g id="text_15">
      <!-- 1.0 -->
      <g transform="translate(36.316875 78.947121) scale(0.1 -0.1)">
       <use xlink:href="#DejaVuSans-31"/>
       <use xlink:href="#DejaVuSans-2e" x="63.623047"/>
       <use xlink:href="#DejaVuSans-30" x="95.410156"/>
      </g>
     </g>
    </g>
    <g id="ytick_6">
     <g id="line2d_15">
      <g>
       <use xlink:href="#ma8bbabe27f" x="59.22" y="37.723799" style="stroke: #000000; stroke-width: 0.8"/>
      </g>
     </g>
     <g id="text_16">
      <!-- 1.5 -->
      <g transform="translate(36.316875 41.523018) scale(0.1 -0.1)">
       <use xlink:href="#DejaVuSans-31"/>
       <use xlink:href="#DejaVuSans-2e" x="63.623047"/>
       <use xlink:href="#DejaVuSans-35" x="95.410156"/>
      </g>
     </g>
    </g>
    <g id="text_17">
     <!-- Magnitude -->
     <g transform="translate(21.8575 171.209844) rotate(-90) scale(0.1 -0.1)">
      <defs>
       <path id="DejaVuSans-4d" d="M 628 4666 
L 1569 4666 
L 2759 1491 
L 3956 4666 
L 4897 4666 
L 4897 0 
L 4281 0 
L 4281 4097 
L 3078 897 
L 2444 897 
L 1241 4097 
L 1241 0 
L 628 0 
L 628 4666 
z
" transform="scale(0.015625)"/>
       <path id="DejaVuSans-61" d="M 2194 1759 
Q 1497 1759 1228 1600 
Q 959 1441 959 1056 
Q 959 750 1161 570 
Q 1363 391 1709 391 
Q 2188 391 2477 730 
Q 2766 1069 2766 1631 
L 2766 1759 
L 2194 1759 
z
M 3341 1997 
L 3341 0 
L 2766 0 
L 2766 531 
Q 2569 213 2275 61 
Q 1981 -91 1556 -91 
Q 1019 -91 701 211 
Q 384 513 384 1019 
Q 384 1609 779 1909 
Q 1175 2209 1959 2209 
L 2766 2209 
L 2766 2266 
Q 2766 2663 2505 2880 
Q 2244 3097 1772 3097 
Q 1472 3097 1187 3025 
Q 903 2953 641 2809 
L 641 3341 
Q 956 3463 1253 3523 
Q 1550 3584 1831 3584 
Q 2591 3584 2966 3190 
Q 3341 2797 3341 1997 
z
" transform="scale(0.015625)"/>
       <path id="DejaVuSans-67" d="M 2906 1791 
Q 2906 2416 2648 2759 
Q 2391 3103 1925 3103 
Q 1463 3103 1205 2759 
Q 947 2416 947 1791 
Q 947 1169 1205 825 
Q 1463 481 1925 481 
Q 2391 481 2648 825 
Q 2906 1169 2906 1791 
z
M 3481 434 
Q 3481 -459 3084 -895 
Q 2688 -1331 1869 -1331 
Q 1566 -1331 1297 -1286 
Q 1028 -1241 775 -1147 
L 775 -588 
Q 1028 -725 1275 -790 
Q 1522 -856 1778 -856 
Q 2344 -856 2625 -561 
Q 2906 -266 2906 331 
L 2906 616 
Q 2728 306 2450 153 
Q 2172 0 1784 0 
Q 1141 0 747 490 
Q 353 981 353 1791 
Q 353 2603 747 3093 
Q 1141 3584 1784 3584 
Q 2172 3584 2450 3431 
Q 2728 3278 2906 2969 
L 2906 3500 
L 3481 3500 
L 3481 434 
z
" transform="scale(0.015625)"/>
       <path id="DejaVuSans-6e" d="M 3513 2113 
L 3513 0 
L 2938 0 
L 2938 2094 
Q 2938 2591 2744 2837 
Q 2550 3084 2163 3084 
Q 1697 3084 1428 2787 
Q 1159 2491 1159 1978 
L 1159 0 
L 581 0 
L 581 3500 
L 1159 3500 
L 1159 2956 
Q 1366 3272 1645 3428 
Q 1925 3584 2291 3584 
Q 2894 3584 3203 3211 
Q 3513 2838 3513 2113 
z
" transform="scale(0.015625)"/>
       <path id="DejaVuSans-69" d="M 603 3500 
L 1178 3500 
L 1178 0 
L 603 0 
L 603 3500 
z
M 603 4863 
L 1178 4863 
L 1178 4134 
L 603 4134 
L 603 4863 
z
" transform="scale(0.015625)"/>
       <path id="DejaVuSans-74" d="M 1172 4494 
L 1172 3500 
L 2356 3500 
L 2356 3053 
L 1172 3053 
L 1172 1153 
Q 1172 725 1289 603 
Q 1406 481 1766 481 
L 2356 481 
L 2356 0 
L 1766 0 
Q 1100 0 847 248 
Q 594 497 594 1153 
L 594 3053 
L 172 3053 
L 172 3500 
L 594 3500 
L 594 4494 
L 1172 4494 
z
" transform="scale(0.015625)"/>
       <path id="DejaVuSans-75" d="M 544 1381 
L 544 3500 
L 1119 3500 
L 1119 1403 
Q 1119 906 1312 657 
Q 1506 409 1894 409 
Q 2359 409 2629 706 
Q 2900 1003 2900 1516 
L 2900 3500 
L 3475 3500 
L 3475 0 
L 2900 0 
L 2900 538 
Q 2691 219 2414 64 
Q 2138 -91 1772 -91 
Q 1169 -91 856 284 
Q 544 659 544 1381 
z
M 1991 3584 
L 1991 3584 
z
" transform="scale(0.015625)"/>
       <path id="DejaVuSans-64" d="M 2906 2969 
L 2906 4863 
L 3481 4863 
L 3481 0 
L 2906 0 
L 2906 525 
Q 2725 213 2448 61 
Q 2172 -91 1784 -91 
Q 1150 -91 751 415 
Q 353 922 353 1747 
Q 353 2572 751 3078 
Q 1150 3584 1784 3584 
Q 2172 3584 2448 3432 
Q 2725 3281 2906 2969 
z
M 947 1747 
Q 947 1113 1208 752 
Q 1469 391 1925 391 
Q 2381 391 2643 752 
Q 2906 1113 2906 1747 
Q 2906 2381 2643 2742 
Q 2381 3103 1925 3103 
Q 1469 3103 1208 2742 
Q 947 2381 947 1747 
z
" transform="scale(0.015625)"/>
       <path id="DejaVuSans-65" d="M 3597 1894 
L 3597 1613 
L 953 1613 
Q 991 1019 1311 708 
Q 1631 397 2203 397 
Q 2534 397 2845 478 
Q 3156 559 3463 722 
L 3463 178 
Q 3153 47 2828 -22 
Q 2503 -91 2169 -91 
Q 1331 -91 842 396 
Q 353 884 353 1716 
Q 353 2575 817 3079 
Q 1281 3584 2069 3584 
Q 2775 3584 3186 3129 
Q 3597 2675 3597 1894 
z
M 3022 2063 
Q 3016 2534 2758 2815 
Q 2500 3097 2075 3097 
Q 1594 3097 1305 2825 
Q 1016 2553 972 2059 
L 3022 2063 
z
" transform="scale(0.015625)"/>
      </defs>
      <use xlink:href="#DejaVuSans-4d"/>
      <use xlink:href="#DejaVuSans-61" x="86.279297"/>
      <use xlink:href="#DejaVuSans-67" x="147.558594"/>
      <use xlink:href="#DejaVuSans-6e" x="211.035156"/>
      <use xlink:href="#DejaVuSans-69" x="274.414062"/>
      <use xlink:href="#DejaVuSans-74" x="302.197266"/>
      <use xlink:href="#DejaVuSans-75" x="341.40625"/>
      <use xlink:href="#DejaVuSans-64" x="404.785156"/>
      <use xlink:href="#DejaVuSans-65" x="468.261719"/>
     </g>
    </g>
   </g>
   <g id="line2d_16">
    <path d="M 59.22 142.569399 
L 60.5592 85.489737 
L 60.7266 63.721846 
L 60.894 157.075026 
L 62.0658 84.995785 
L 62.2332 57.639836 
L 62.4006 150.043061 
L 63.405 84.987609 
L 63.5724 75.565322 
L 63.7398 56.435851 
L 63.9072 149.996107 
L 65.079 56.435851 
L 65.2464 149.996107 
L 66.4182 56.435851 
L 66.5856 149.996107 
L 67.59 56.435851 
L 67.7574 149.996107 
L 68.7618 56.435851 
L 68.9292 149.996107 
L 69.9336 56.435851 
L 70.101 149.996107 
L 70.938 86.054839 
L 71.1054 75.298928 
L 71.2728 56.435851 
L 71.4402 149.996107 
L 72.2772 88.753447 
L 72.4446 78.558082 
L 72.612 56.435851 
L 72.7794 149.996107 
L 73.6164 92.646482 
L 73.7838 83.205715 
L 73.9512 56.435851 
L 74.1186 149.996107 
L 74.9556 97.587864 
L 75.2904 81.130812 
L 75.4578 56.435851 
L 75.6252 150.050116 
L 76.2948 113.915291 
L 76.9644 89.676748 
L 77.1318 85.233406 
L 77.2992 65.122113 
L 77.4666 160.241659 
L 78.1362 136.951641 
L 78.6384 126.110273 
L 79.1406 120.083131 
L 79.4754 118.40148 
L 79.6428 118.192368 
L 79.8102 118.375773 
L 79.9776 100.762975 
L 80.145 197.139695 
L 80.6472 190.768745 
L 80.982 188.845 
L 81.1494 188.505483 
L 81.3168 188.550054 
L 81.4842 188.956781 
L 81.6516 189.704628 
L 81.819 206.852931 
L 81.9864 111.477011 
L 83.8278 176.405346 
L 83.9952 200.133377 
L 84.1626 107.207682 
L 85.5018 181.850418 
L 85.6692 190.2816 
L 85.8366 212.032015 
L 86.004 119.933821 
L 87.1758 197.427673 
L 87.3432 207.090325 
L 87.5106 227.696891 
L 87.678 135.748652 
L 88.6824 207.524909 
L 88.8498 217.862292 
L 89.0172 241.669756 
L 89.1846 149.544904 
L 90.0216 205.001484 
L 90.3564 223.506005 
L 90.5238 243.556364 
L 90.6912 149.996107 
L 91.5282 205.534887 
L 91.863 224.004987 
L 92.0304 243.556364 
L 92.1978 149.996107 
L 93.0348 204.811414 
L 93.3696 222.850799 
L 93.537 243.556364 
L 93.7044 149.996107 
L 94.5414 202.9906 
L 94.8762 220.265058 
L 95.0436 243.556364 
L 95.211 149.996107 
L 96.048 200.280972 
L 96.5502 223.931169 
L 96.7176 243.487362 
L 96.885 149.776188 
L 97.722 194.415528 
L 98.3916 219.716013 
L 98.559 237.920843 
L 98.7264 143.484338 
L 99.396 174.02069 
L 100.0656 196.046615 
L 100.4004 204.374929 
L 100.5678 224.494105 
L 100.7352 129.581728 
L 101.4048 154.214291 
L 102.0744 171.547114 
L 102.744 183.028273 
L 102.9114 203.75817 
L 103.0788 108.625088 
L 103.7484 128.04879 
L 104.418 141.561535 
L 105.0876 150.419869 
L 105.5898 154.638804 
L 105.9246 156.50573 
L 106.092 174.374302 
L 106.2594 79.366172 
L 106.5942 87.673979 
L 106.7616 72.672352 
L 106.929 171.009784 
L 107.5986 167.926751 
L 108.603 162.04811 
L 110.4444 150.103907 
L 110.7792 149.996107 
L 112.1184 141.666698 
L 113.2902 135.740473 
L 113.7924 133.598835 
L 113.9598 114.59669 
L 114.1272 209.858832 
L 114.9642 189.473587 
L 115.8012 173.57452 
L 116.136 168.23862 
L 116.3034 183.948525 
L 116.4708 87.227687 
L 117.1404 92.980538 
L 117.3078 77.064974 
L 117.4752 174.141823 
L 118.4796 158.980149 
L 119.484 147.355749 
L 120.321 139.529322 
L 120.4884 119.854062 
L 120.6558 214.614921 
L 121.6602 186.429064 
L 122.6646 164.461225 
L 122.9994 158.175248 
L 123.1668 173.699801 
L 123.3342 76.964691 
L 123.5016 60.452989 
L 123.669 157.802888 
L 124.8408 137.541814 
L 126.0126 120.805263 
L 126.18 100.043573 
L 126.3474 194.924551 
L 127.3518 162.079556 
L 128.3562 135.802778 
L 128.5236 131.935084 
L 128.691 111.365367 
L 128.8584 205.181117 
L 129.8628 164.417099 
L 130.8672 132.60921 
L 131.0346 111.737283 
L 131.202 205.133996 
L 132.2064 160.491503 
L 133.0434 131.566568 
L 133.2108 108.834996 
L 133.3782 202.143601 
L 134.2152 163.066451 
L 135.0522 132.631783 
L 135.2196 127.427848 
L 135.387 106.003692 
L 135.5544 199.412589 
L 136.3914 161.044865 
L 137.2284 131.9273 
L 137.3958 127.048318 
L 137.5632 105.247653 
L 137.7306 198.873673 
L 138.5676 162.730508 
L 139.4046 136.090831 
L 139.7394 127.658357 
L 139.9068 108.041214 
L 140.0742 201.959928 
L 140.9112 169.476695 
L 141.7482 146.33136 
L 142.2504 136.102143 
L 142.4178 115.593741 
L 142.5852 209.814121 
L 143.4222 182.003911 
L 144.0918 166.10201 
L 144.7614 154.741506 
L 145.2636 148.692926 
L 145.431 129.810755 
L 145.5984 224.275093 
L 145.7658 237.471535 
L 145.9332 138.183653 
L 146.4354 136.61779 
L 146.7702 136.199293 
L 147.105 136.216018 
L 147.4398 136.616935 
L 147.942 137.836382 
L 148.6116 140.394965 
L 149.2812 143.746084 
L 149.4486 126.419084 
L 149.616 222.18256 
L 149.7834 219.341045 
L 149.9508 233.897774 
L 150.1182 135.919631 
L 151.7922 151.722469 
L 153.1314 162.294894 
L 153.2988 180.941217 
L 153.4662 86.05636 
L 154.3032 108.873012 
L 155.1402 126.655603 
L 155.3076 129.688336 
L 155.475 114.225114 
L 155.6424 211.174904 
L 156.312 206.539147 
L 156.4794 223.396523 
L 156.6468 126.359212 
L 157.4838 139.203129 
L 158.3208 148.393229 
L 158.9904 153.570957 
L 159.66 157.135304 
L 159.8274 176.310206 
L 159.9948 81.246397 
L 160.6644 97.172206 
L 160.8318 82.541387 
L 160.9992 180.49555 
L 163.6776 166.104663 
L 163.845 182.470177 
L 164.0124 86.553544 
L 164.8494 99.946126 
L 165.0168 84.206119 
L 165.1842 181.572753 
L 166.1886 171.121866 
L 167.193 163.095714 
L 168.03 158.09899 
L 168.1974 157.275743 
L 168.3648 174.164624 
L 168.5322 78.526934 
L 168.6996 81.738293 
L 168.867 66.537641 
L 169.0344 164.791865 
L 169.704 161.179124 
L 170.3736 158.79834 
L 170.8758 157.764936 
L 171.2106 157.414335 
L 171.5454 157.32279 
L 171.8802 157.480683 
L 172.215 157.878574 
L 172.3824 176.27681 
L 172.5498 81.100564 
L 173.2194 97.370542 
L 173.3868 82.888009 
L 173.5542 181.085204 
L 173.889 180.650172 
L 174.2238 180.582312 
L 174.5586 180.853482 
L 174.8934 181.437029 
L 175.3956 182.842916 
L 175.563 183.440988 
L 175.7304 200.502798 
L 175.8978 104.949867 
L 177.0696 135.418396 
L 178.2414 160.39679 
L 178.4088 163.606014 
L 178.5762 182.04558 
L 178.7436 88.149843 
L 179.748 126.585191 
L 180.7524 156.961493 
L 180.9198 161.369968 
L 181.0872 181.408285 
L 181.2546 88.028904 
L 182.259 130.997826 
L 183.2634 163.533581 
L 183.4308 184.580945 
L 183.5982 91.243584 
L 184.4352 128.359794 
L 185.2722 156.866101 
L 185.607 166.228238 
L 185.7744 186.611353 
L 185.9418 93.076089 
L 186.7788 128.300265 
L 187.6158 154.389765 
L 187.9506 162.67696 
L 188.118 185.028362 
L 188.2854 91.186745 
L 189.1224 122.842085 
L 189.9594 145.428433 
L 190.629 158.24021 
L 190.7964 177.859031 
L 190.9638 83.675224 
L 191.8008 110.379932 
L 192.4704 125.664304 
L 192.8052 131.63233 
L 192.9726 115.711303 
L 193.14 212.462276 
L 193.8096 205.885765 
L 193.977 222.266783 
L 194.1444 124.930154 
L 194.814 132.556937 
L 195.4836 137.544421 
L 195.9858 139.933858 
L 196.488 141.424205 
L 196.9902 142.22168 
L 197.1576 142.366015 
L 197.325 124.08822 
L 197.4924 219.458161 
L 197.9946 208.43004 
L 198.162 222.933435 
L 198.3294 124.816611 
L 199.1664 128.273016 
L 201.0078 134.559354 
L 201.1752 116.629213 
L 201.3426 212.503596 
L 202.0122 201.355235 
L 202.1796 199.105268 
L 202.347 215.739113 
L 202.5144 118.46613 
L 205.0254 152.528515 
L 205.3602 157.573466 
L 205.5276 177.812644 
L 205.695 83.753735 
L 207.0342 133.093604 
L 207.8712 160.719334 
L 208.0386 180.551133 
L 208.206 87.818223 
L 209.3778 148.536019 
L 209.88 171.519258 
L 210.0474 194.112361 
L 210.2148 101.975859 
L 211.3866 173.708539 
L 211.554 182.782138 
L 211.7214 209.621928 
L 211.8888 117.728247 
L 212.8932 186.308628 
L 213.0606 196.418395 
L 213.228 224.899313 
L 213.3954 133.044825 
L 214.3998 205.400102 
L 214.5672 215.902795 
L 214.7346 239.887387 
L 214.902 147.913677 
L 215.5716 195.44929 
L 216.0738 224.366897 
L 216.2412 243.556364 
L 216.4086 149.996107 
L 217.2456 206.951727 
L 217.413 216.737029 
L 217.5804 243.556364 
L 217.7478 149.996107 
L 218.5848 207.121346 
L 218.7522 216.84909 
L 218.9196 243.556364 
L 219.087 149.996107 
L 219.924 206.187996 
L 220.2588 224.614478 
L 220.4262 243.556364 
L 220.5936 149.996107 
L 221.4306 203.783227 
L 221.7654 221.175419 
L 221.9328 243.556364 
L 222.1002 149.996107 
L 222.9372 199.981916 
L 223.4394 222.723388 
L 223.6068 242.863524 
L 223.7742 148.841698 
L 224.4438 182.502438 
L 225.1134 205.595052 
L 225.2808 209.917086 
L 225.4482 232.087116 
L 225.6156 136.976936 
L 226.2852 160.235986 
L 226.7874 171.437404 
L 227.2896 178.040597 
L 227.6244 180.182768 
L 227.7918 180.636307 
L 227.9592 180.703199 
L 228.1266 198.25695 
L 228.294 102.039674 
L 228.7962 109.216685 
L 229.131 111.639973 
L 229.2984 112.212725 
L 229.4658 112.388318 
L 229.6332 112.18728 
L 229.8006 111.629347 
L 229.968 94.139975 
L 230.1354 189.581164 
L 231.9768 125.203555 
L 232.1442 100.90673 
L 232.3116 193.75707 
L 233.9856 87.558706 
L 234.153 179.462477 
L 235.4922 71.474109 
L 235.6596 163.160249 
L 236.664 87.681075 
L 236.8314 76.705064 
L 236.9988 56.435851 
L 237.1662 149.996107 
L 238.338 56.435851 
L 238.5054 149.996107 
L 239.3424 91.822182 
L 239.5098 81.877502 
L 239.6772 56.435851 
L 239.8446 149.996107 
L 240.6816 92.387391 
L 240.849 82.651576 
L 241.0164 56.435851 
L 241.1838 149.996107 
L 242.0208 94.338512 
L 242.3556 76.302258 
L 242.523 56.435851 
L 242.6904 149.996107 
L 243.5274 98.093006 
L 243.8622 81.560577 
L 244.0296 56.435851 
L 244.197 149.996107 
L 244.8666 112.588781 
L 245.5362 86.531793 
L 245.7036 81.578454 
L 245.871 63.015939 
L 246.0384 157.867864 
L 246.708 131.937789 
L 247.2102 119.184502 
L 247.7124 111.366598 
L 248.0472 108.582066 
L 248.2146 89.510292 
L 248.382 185.562226 
L 248.8842 175.801747 
L 249.219 171.93701 
L 249.5538 169.952074 
L 249.7212 169.606793 
L 249.8886 169.663977 
L 250.056 170.102928 
L 250.3908 172.047249 
L 250.5582 173.515017 
L 250.7256 192.656108 
L 250.893 97.949572 
L 252.7344 169.653478 
L 252.9018 193.420198 
L 253.0692 100.99812 
L 254.4084 181.29224 
L 254.5758 208.743375 
L 254.7432 117.071469 
L 256.0824 226.742317 
L 256.2498 135.248956 
L 257.2542 212.51218 
L 257.4216 223.783523 
L 257.589 243.556364 
L 257.7564 149.996107 
L 258.9282 243.556364 
L 259.0956 149.996107 
L 259.9326 209.384829 
L 260.1 219.568627 
L 260.2674 243.556364 
L 260.4348 149.996107 
L 261.2718 209.245576 
L 261.4392 219.301212 
L 261.6066 243.556364 
L 261.774 149.996107 
L 262.611 207.824269 
L 262.7784 217.538047 
L 262.9458 243.556364 
L 263.1132 149.996107 
L 263.9502 205.209166 
L 264.285 223.005362 
L 264.4524 243.556364 
L 264.6198 149.996107 
L 265.4568 201.012266 
L 265.959 224.483296 
L 266.1264 243.342844 
L 266.2938 149.484693 
L 266.9634 184.377843 
L 267.633 208.487684 
L 267.8004 213.048353 
L 267.9678 233.963623 
L 268.1352 138.962297 
L 268.8048 163.510292 
L 269.307 175.733668 
L 269.8092 183.45864 
L 270.144 186.424357 
L 270.3114 187.316426 
L 270.4788 204.914026 
L 270.6462 108.964953 
L 271.1484 118.860743 
L 271.6506 124.633446 
L 271.9854 126.509598 
L 272.1528 126.921074 
L 272.3202 127.008375 
L 272.4876 126.790659 
L 272.655 126.286319 
L 272.8224 106.851132 
L 272.9898 202.121345 
L 275.166 134.719817 
L 275.3334 113.839541 
L 275.5008 206.851843 
L 276.6726 148.084333 
L 277.1748 126.296784 
L 277.3422 103.521271 
L 277.5096 196.002148 
L 278.514 138.335411 
L 279.0162 114.38432 
L 279.1836 91.718229 
L 279.351 184.2903 
L 280.188 134.628967 
L 280.8576 103.016165 
L 281.025 82.74497 
L 281.1924 175.742065 
L 282.0294 129.020099 
L 282.699 100.694816 
L 282.8664 79.4891 
L 283.0338 173.096549 
L 283.8708 132.170568 
L 284.5404 108.828781 
L 284.7078 104.142501 
L 284.8752 84.134237 
L 285.0426 178.487945 
L 285.7122 151.626857 
L 286.3818 133.107873 
L 286.884 123.930502 
L 287.2188 119.797614 
L 287.3862 102.39976 
L 287.5536 197.639012 
L 288.2232 181.217498 
L 288.7254 173.762804 
L 289.0602 170.811904 
L 289.395 169.31174 
L 289.5624 169.065049 
L 289.7298 169.133516 
L 289.8972 186.817963 
L 290.0646 91.554593 
L 291.906 148.003471 
L 292.2408 158.819805 
L 292.4082 181.568429 
L 292.5756 88.845617 
L 294.0822 168.517388 
L 294.2496 176.588721 
L 294.417 197.241146 
L 294.5844 105.399982 
L 295.7562 182.46273 
L 295.9236 192.251528 
L 296.091 215.783513 
L 296.2584 124.172889 
L 297.2628 197.397781 
L 297.4302 208.139969 
L 297.5976 233.192626 
L 297.765 141.504237 
L 298.602 205.510381 
L 298.9368 224.398551 
L 299.1042 243.556364 
L 299.2716 149.996107 
L 300.1086 207.318034 
L 300.276 217.185144 
L 300.4434 243.556364 
L 300.6108 149.996107 
L 301.4478 207.673265 
L 301.6152 217.503005 
L 301.7826 243.556364 
L 301.95 149.996107 
L 302.787 206.787758 
L 302.9544 216.365248 
L 303.1218 243.556364 
L 303.2892 149.996107 
L 304.1262 204.642861 
L 304.461 222.317286 
L 304.6284 243.556364 
L 304.7958 149.996107 
L 305.6328 200.75445 
L 306.135 224.063179 
L 306.3024 243.237361 
L 306.4698 149.324634 
L 307.1394 183.666599 
L 307.809 206.976093 
L 307.9764 211.279819 
L 308.1438 232.88931 
L 308.3112 137.733487 
L 308.9808 160.477242 
L 309.483 170.961454 
L 309.9852 176.555337 
L 310.32 177.857524 
L 310.4874 177.839706 
L 310.6548 177.400407 
L 310.8222 176.557064 
L 310.9896 193.555647 
L 311.157 96.972341 
L 311.4918 100.199945 
L 311.8266 101.391876 
L 311.994 101.281325 
L 312.1614 100.728237 
L 312.3288 82.139191 
L 312.4962 177.824575 
L 313.668 134.417968 
L 314.1702 113.796331 
L 314.3376 88.888452 
L 314.505 181.502075 
L 316.0116 72.438286 
L 316.179 163.65241 
L 317.3508 56.435851 
L 317.5182 149.996107 
L 318.5226 56.435851 
L 318.69 149.996107 
L 319.6944 56.435851 
L 319.8618 149.996107 
L 320.6988 56.435851 
L 320.8662 149.996107 
L 321.7032 56.435851 
L 321.8706 149.996107 
L 322.7076 56.435851 
L 322.875 149.996107 
L 323.712 56.435851 
L 323.8794 149.996107 
L 324.7164 56.435851 
L 324.8838 149.996107 
L 325.7208 56.435851 
L 325.8882 149.996107 
L 326.7252 56.435851 
L 326.8926 149.996107 
L 327.7296 56.435851 
L 327.897 149.996107 
L 328.734 56.435851 
L 328.9014 149.996107 
L 329.7384 56.435851 
L 329.9058 149.996107 
L 330.9102 56.435851 
L 331.0776 149.996107 
L 332.082 56.435851 
L 332.2494 149.996107 
L 333.0864 87.190541 
L 333.2538 77.061148 
L 333.4212 56.435851 
L 333.5886 149.996107 
L 334.4256 95.099291 
L 334.7604 78.324493 
L 334.9278 56.435851 
L 335.0952 149.996107 
L 335.7648 114.440953 
L 336.267 96.957154 
L 336.6018 89.061032 
L 336.7692 67.482235 
L 336.9366 163.101031 
L 337.4388 148.396988 
L 337.941 139.932631 
L 338.2758 137.290511 
L 338.4432 136.774687 
L 338.6106 136.756518 
L 338.778 137.208138 
L 339.1128 139.414903 
L 339.615 145.614275 
L 340.1172 154.740377 
L 340.2846 176.665948 
L 340.452 83.224192 
L 342.126 163.182071 
L 342.2934 188.901109 
L 342.4608 97.146221 
L 343.9674 209.523233 
L 344.1348 118.21326 
L 345.474 229.694604 
L 345.6414 138.29403 
L 346.8132 243.556364 
L 346.9806 149.996107 
L 347.8176 207.530214 
L 347.985 217.407549 
L 348.1524 243.556364 
L 348.3198 149.996107 
L 349.1568 207.434978 
L 349.3242 217.171931 
L 349.4916 243.556364 
L 349.659 149.996107 
L 350.496 205.815252 
L 350.8308 223.951713 
L 350.9982 243.556364 
L 351.1656 149.996107 
L 352.0026 202.3039 
L 352.3374 218.999571 
L 352.5048 243.556364 
L 352.6722 149.996107 
L 353.3418 188.278471 
L 354.0114 215.145162 
L 354.1788 220.287452 
L 354.3462 237.997871 
L 354.5136 143.235697 
L 355.1832 170.043141 
L 355.6854 183.385816 
L 356.1876 191.745158 
L 356.5224 194.869019 
L 356.6898 212.578768 
L 356.8572 116.593206 
L 357.3594 127.054276 
L 357.8616 132.788692 
L 358.1964 134.32081 
L 358.3638 134.468471 
L 358.5312 134.232423 
L 358.866 132.690066 
L 359.2008 129.848066 
L 359.3682 110.654067 
L 359.5356 205.240973 
L 361.377 133.864666 
L 361.5444 109.263076 
L 361.7118 201.713919 
L 363.051 123.499783 
L 363.2184 114.653485 
L 363.3858 92.900793 
L 363.5532 184.664942 
L 364.8924 76.208794 
L 365.0598 167.908595 
L 366.0642 94.40131 
L 366.2316 83.799607 
L 366.399 60.245564 
L 366.5664 152.18732 
L 367.236 104.628709 
L 367.7382 75.988521 
L 367.9056 56.435851 
L 368.073 149.996107 
L 368.91 94.278192 
L 369.2448 75.815644 
L 369.4122 56.435851 
L 369.5796 149.996107 
L 370.4166 95.52245 
L 370.7514 77.71648 
L 370.9188 56.435851 
L 371.0862 149.996107 
L 371.9232 98.177603 
L 372.258 81.462766 
L 372.4254 56.435851 
L 372.5928 149.996107 
L 373.4298 102.564656 
L 373.932 81.812602 
L 374.0994 59.100221 
L 374.2668 153.404423 
L 374.9364 121.849661 
L 375.606 99.848512 
L 375.9408 91.89453 
L 376.1082 72.890212 
L 376.2756 168.010084 
L 376.9452 145.061323 
L 377.6148 130.168246 
L 378.117 123.327283 
L 378.6192 119.550292 
L 378.7866 102.537918 
L 378.954 198.169418 
L 379.6236 184.106901 
L 380.1258 177.413146 
L 380.628 173.366283 
L 380.9628 171.882025 
L 381.1302 189.793993 
L 381.2976 93.980436 
L 382.9716 129.627126 
L 384.1434 150.336652 
L 384.3108 169.330295 
L 384.4782 75.43992 
L 384.6456 63.114384 
L 384.813 163.024278 
L 385.65 171.965084 
L 386.3196 177.028991 
L 386.8218 179.518281 
L 387.1566 180.529612 
L 387.324 198.472611 
L 387.4914 102.668865 
L 388.161 116.540881 
L 388.8306 125.52836 
L 389.3328 129.364966 
L 389.6676 130.64536 
L 389.835 113.313431 
L 390.0024 208.929684 
L 392.0112 157.454614 
L 392.5134 143.528969 
L 392.6808 123.765799 
L 392.8482 216.635882 
L 393.8526 164.911287 
L 393.8526 164.911287 
" clip-path="url(#pd55127628d)" style="fill: none; stroke: #1f77b4; stroke-opacity: 0.6; stroke-width: 1.5; stroke-linecap: square"/>
   </g>
   <g id="line2d_17">
    <path d="M 59.22 121.671285 
L 62.2332 101.791114 
L 63.7398 93.317443 
L 64.9116 87.926952 
L 65.916 84.338661 
L 66.753 82.168286 
L 67.4226 81.008094 
L 67.9248 80.488002 
L 68.427 80.27519 
L 68.9292 80.37397 
L 69.4314 80.78659 
L 69.9336 81.513235 
L 70.6032 82.967036 
L 71.2728 84.96545 
L 72.1098 88.203836 
L 73.1142 93.114332 
L 74.286 100.121659 
L 75.6252 109.557729 
L 77.4666 124.352622 
L 83.493 174.494633 
L 84.9996 184.421609 
L 86.1714 190.810865 
L 87.1758 195.250928 
L 88.1802 198.680212 
L 89.0172 200.748572 
L 89.6868 201.886477 
L 90.3564 202.571615 
L 90.8586 202.794982 
L 91.3608 202.776466 
L 91.863 202.523976 
L 92.3652 202.046728 
L 93.0348 201.078957 
L 93.8718 199.376115 
L 94.8762 196.690354 
L 96.048 192.818403 
L 97.5546 186.975885 
L 100.233 175.440197 
L 102.744 164.959125 
L 104.418 158.883648 
L 105.7572 154.770242 
L 106.929 151.777691 
L 108.1008 149.362508 
L 109.1052 147.736358 
L 110.1096 146.489304 
L 111.114 145.578955 
L 112.1184 144.952808 
L 113.2902 144.501428 
L 114.7968 144.205071 
L 118.1448 143.675036 
L 119.484 143.171891 
L 120.6558 142.490902 
L 121.8276 141.557657 
L 123.1668 140.180682 
L 124.6734 138.279079 
L 126.6822 135.342933 
L 130.0302 130.409014 
L 131.3694 128.809737 
L 132.5412 127.741406 
L 133.5456 127.130316 
L 134.3826 126.864565 
L 135.2196 126.837447 
L 136.0566 127.059474 
L 136.8936 127.535357 
L 137.7306 128.263796 
L 138.735 129.46052 
L 139.9068 131.269976 
L 141.246 133.810494 
L 142.92 137.521903 
L 148.779 151.118222 
L 150.1182 153.463877 
L 151.29 155.07939 
L 152.2944 156.104333 
L 153.1314 156.693811 
L 153.9684 157.0416 
L 154.8054 157.153339 
L 155.6424 157.040869 
L 156.4794 156.721918 
L 157.4838 156.099562 
L 158.6556 155.10595 
L 160.3296 153.363317 
L 163.5102 150.004288 
L 164.682 149.078215 
L 165.6864 148.527469 
L 166.6908 148.247302 
L 167.5278 148.24415 
L 168.3648 148.463547 
L 169.2018 148.911067 
L 170.2062 149.747172 
L 171.2106 150.89512 
L 172.3824 152.590118 
L 173.889 155.226494 
L 176.0652 159.569884 
L 178.7436 164.827781 
L 180.0828 167.01719 
L 181.2546 168.523405 
L 182.259 169.440859 
L 183.096 169.909636 
L 183.933 170.091507 
L 184.6026 170.023989 
L 185.2722 169.765685 
L 186.1092 169.178128 
L 186.9462 168.30764 
L 187.9506 166.917735 
L 189.1224 164.88309 
L 190.629 161.77534 
L 195.3162 151.663096 
L 196.488 149.847307 
L 197.325 148.900983 
L 198.162 148.299621 
L 198.8316 148.093623 
L 199.5012 148.150394 
L 200.1708 148.483051 
L 200.8404 149.100895 
L 201.51 150.009174 
L 202.347 151.554057 
L 203.3514 153.997024 
L 204.3558 157.0498 
L 205.5276 161.306089 
L 207.0342 167.678555 
L 209.3778 178.792283 
L 212.0562 191.347607 
L 213.5628 197.349735 
L 214.7346 201.093953 
L 215.5716 203.147787 
L 216.4086 204.610522 
L 217.0782 205.317757 
L 217.5804 205.562445 
L 218.0826 205.553078 
L 218.5848 205.283149 
L 219.087 204.747812 
L 219.7566 203.616012 
L 220.4262 202.004474 
L 221.2632 199.320772 
L 222.2676 195.145369 
L 223.272 189.984952 
L 224.4438 182.836806 
L 225.9504 172.150158 
L 227.9592 156.094182 
L 232.3116 120.691442 
L 233.8182 110.413852 
L 234.99 103.761399 
L 235.9944 99.183673 
L 236.8314 96.251342 
L 237.501 94.521671 
L 238.1706 93.362033 
L 238.6728 92.875125 
L 239.175 92.720594 
L 239.6772 92.90008 
L 240.1794 93.413196 
L 240.6816 94.257529 
L 241.3512 95.890589 
L 242.1882 98.723634 
L 243.0252 102.394099 
L 244.0296 107.820534 
L 245.2014 115.398469 
L 246.708 126.738424 
L 248.8842 145.1393 
L 252.567 176.535508 
L 254.241 188.744743 
L 255.5802 196.828516 
L 256.5846 201.703286 
L 257.4216 204.905582 
L 258.2586 207.280416 
L 258.9282 208.565276 
L 259.4304 209.164688 
L 259.9326 209.450614 
L 260.4348 209.423941 
L 260.937 209.087422 
L 261.4392 208.445648 
L 262.1088 207.126395 
L 262.7784 205.295944 
L 263.6154 202.327807 
L 264.6198 197.849057 
L 265.7916 191.517992 
L 267.2982 181.98504 
L 269.4744 166.506111 
L 272.9898 141.416965 
L 274.4964 132.159376 
L 275.8356 125.273608 
L 276.84 121.113556 
L 277.8444 117.916202 
L 278.6814 116.035958 
L 279.351 115.064441 
L 279.8532 114.65196 
L 280.3554 114.512183 
L 280.8576 114.644962 
L 281.3598 115.04861 
L 281.862 115.719916 
L 282.5316 117.023009 
L 283.3686 119.285513 
L 284.2056 122.214941 
L 285.21 126.54052 
L 286.3818 132.57269 
L 287.8884 141.589005 
L 290.0646 156.215865 
L 293.9148 182.267031 
L 295.4214 190.955231 
L 296.5932 196.640209 
L 297.5976 200.601901 
L 298.4346 203.178899 
L 299.2716 205.041211 
L 299.9412 205.987146 
L 300.4434 206.367356 
L 300.9456 206.458597 
L 301.4478 206.256213 
L 301.95 205.756894 
L 302.4522 204.958694 
L 303.1218 203.428723 
L 303.7914 201.369055 
L 304.6284 198.060488 
L 305.6328 193.045485 
L 306.8046 185.831793 
L 308.1438 175.953455 
L 309.6504 163.062721 
L 311.6592 143.699357 
L 318.1878 78.773421 
L 319.6944 66.867789 
L 320.8662 59.181679 
L 321.8706 53.864221 
L 322.7076 50.413252 
L 323.5446 47.908556 
L 324.2142 46.61308 
L 324.7164 46.064607 
L 325.2186 45.883636 
L 325.5534 45.968454 
L 326.0556 46.404639 
L 326.5578 47.211054 
L 327.2274 48.858096 
L 327.897 51.148977 
L 328.734 54.893339 
L 329.7384 60.619689 
L 330.9102 68.872135 
L 332.2494 80.124713 
L 333.9234 96.371532 
L 336.267 121.628645 
L 339.9498 161.311677 
L 341.6238 176.93765 
L 342.963 187.505662 
L 344.1348 195.031285 
L 345.1392 200.050148 
L 345.9762 203.154865 
L 346.6458 204.908187 
L 347.3154 206.001334 
L 347.8176 206.38594 
L 348.1524 206.435582 
L 348.4872 206.320807 
L 348.9894 205.843368 
L 349.4916 205.005281 
L 350.1612 203.341458 
L 350.8308 201.076716 
L 351.6678 197.449123 
L 352.6722 192.026961 
L 353.844 184.421834 
L 355.3506 173.056747 
L 357.6942 153.337821 
L 360.7074 128.251067 
L 362.214 117.402238 
L 363.5532 109.352773 
L 364.5576 104.502498 
L 365.3946 101.319609 
L 366.2316 98.960438 
L 366.9012 97.68214 
L 367.4034 97.081883 
L 367.9056 96.788129 
L 368.4078 96.797845 
L 368.91 97.105849 
L 369.4122 97.704857 
L 370.0818 98.939796 
L 370.7514 100.647725 
L 371.5884 103.396379 
L 372.5928 107.49165 
L 373.932 114.045806 
L 375.7734 124.374407 
L 379.1214 143.400113 
L 380.4606 149.795602 
L 381.6324 154.336574 
L 382.4694 156.849986 
L 383.3064 158.683107 
L 383.976 159.627391 
L 384.4782 160.019186 
L 384.9804 160.134222 
L 385.4826 159.969812 
L 385.9848 159.525412 
L 386.487 158.802623 
L 387.1566 157.412623 
L 387.9936 155.01181 
L 388.8306 151.914638 
L 389.835 147.361022 
L 391.1742 140.080501 
L 392.8482 129.560295 
L 393.8526 122.810458 
L 393.8526 122.810458 
" clip-path="url(#pd55127628d)" style="fill: none; stroke: #ff4d00; stroke-opacity: 0.8; stroke-width: 1.5; stroke-linecap: square"/>
   </g>
   <g id="line2d_18">
    <path d="M 59.22 148.935149 
L 59.5548 144.215862 
L 60.057 132.351955 
L 60.5592 116.726022 
L 60.7266 108.830111 
L 61.0614 119.37154 
L 61.2288 121.343026 
L 61.3962 121.548885 
L 61.5636 120.258975 
L 61.8984 114.090127 
L 62.0658 109.584246 
L 62.2332 101.770205 
L 62.568 112.05578 
L 62.7354 113.76246 
L 62.9028 113.667301 
L 63.0702 112.071219 
L 63.405 105.371995 
L 63.7398 93.878863 
L 64.0746 105.967605 
L 64.242 108.191421 
L 64.4094 108.41405 
L 64.5768 106.973169 
L 64.9116 100.217955 
L 65.079 93.478776 
L 65.4138 105.561096 
L 65.5812 107.636567 
L 65.7486 107.642866 
L 65.916 105.935238 
L 66.2508 98.552526 
L 66.4182 92.035053 
L 66.753 104.404321 
L 66.9204 106.498271 
L 67.0878 106.464771 
L 67.2552 104.67434 
L 67.4226 101.444427 
L 67.59 94.541977 
L 67.9248 106.256748 
L 68.0922 108.047114 
L 68.2596 107.730617 
L 68.427 105.680469 
L 68.5944 102.216213 
L 68.7618 95.211022 
L 69.0966 106.759306 
L 69.264 108.486903 
L 69.4314 108.124679 
L 69.5988 106.047713 
L 69.7662 102.576959 
L 69.9336 95.523745 
L 70.2684 107.02605 
L 70.4358 108.784582 
L 70.6032 108.486691 
L 70.7706 106.505658 
L 71.1054 98.724529 
L 71.2728 92.184158 
L 71.6076 104.591204 
L 71.775 106.82469 
L 71.9424 107.015733 
L 72.1098 105.536811 
L 72.4446 98.796251 
L 72.612 92.246332 
L 72.9468 104.751384 
L 73.1142 107.189363 
L 73.2816 107.668922 
L 73.449 106.550225 
L 73.7838 100.703868 
L 73.9512 93.900004 
L 74.286 106.142027 
L 74.4534 108.687316 
L 74.6208 109.401007 
L 74.7882 108.623077 
L 75.123 103.710811 
L 75.2904 100.034507 
L 75.4578 93.31975 
L 75.7926 105.951994 
L 76.1274 110.430193 
L 76.2948 110.542889 
L 76.4622 109.627655 
L 76.797 105.629243 
L 77.1318 99.93367 
L 77.2992 94.473231 
L 77.634 110.023754 
L 77.9688 118.439401 
L 78.3036 122.203872 
L 78.471 122.926068 
L 78.6384 123.117427 
L 78.8058 122.924922 
L 79.1406 121.862984 
L 79.8102 119.378945 
L 79.9776 116.421461 
L 80.4798 144.756632 
L 80.982 161.41333 
L 81.4842 171.908183 
L 81.6516 174.663848 
L 81.819 179.50243 
L 82.3212 157.147626 
L 82.656 150.532626 
L 82.8234 149.100984 
L 82.9908 148.707741 
L 83.1582 149.218909 
L 83.493 152.500988 
L 83.8278 158.17596 
L 83.9952 164.249508 
L 84.33 150.733788 
L 84.6648 145.826036 
L 84.8322 145.835623 
L 84.9996 147.160681 
L 85.3344 152.969159 
L 85.6692 161.930187 
L 85.8366 169.20377 
L 86.1714 158.156235 
L 86.3388 156.205479 
L 86.5062 156.145975 
L 86.6736 157.672624 
L 87.0084 164.469518 
L 87.3432 174.902774 
L 87.5106 182.687258 
L 87.8454 172.649798 
L 88.0128 171.297775 
L 88.1802 171.866104 
L 88.515 177.509447 
L 88.8498 187.491276 
L 89.0172 195.596076 
L 89.352 185.934872 
L 89.5194 184.523925 
L 89.6868 184.869028 
L 90.0216 189.638868 
L 90.3564 198.274104 
L 90.5238 205.212987 
L 90.8586 193.24424 
L 91.026 190.907448 
L 91.1934 190.464874 
L 91.3608 191.584591 
L 91.6956 197.415099 
L 92.0304 208.161391 
L 92.3652 195.445886 
L 92.5326 192.784416 
L 92.7 192.039488 
L 92.8674 192.873106 
L 93.2022 198.160907 
L 93.537 208.578914 
L 93.8718 195.709628 
L 94.0392 192.911878 
L 94.2066 191.996657 
L 94.374 192.629627 
L 94.7088 197.437945 
L 94.8762 201.16081 
L 95.0436 207.715408 
L 95.3784 194.980979 
L 95.7132 191.075998 
L 95.8806 191.519457 
L 96.2154 195.807279 
L 96.5502 203.224105 
L 96.7176 209.494176 
L 97.0524 196.11175 
L 97.3872 191.141882 
L 97.5546 190.913335 
L 97.722 191.811979 
L 98.0568 196.101147 
L 98.3916 202.547901 
L 98.559 208.112773 
L 98.8938 193.151388 
L 99.2286 186.121461 
L 99.396 184.744461 
L 99.5634 184.441821 
L 99.7308 184.998534 
L 100.0656 187.986693 
L 100.4004 192.557492 
L 100.5678 197.534202 
L 100.9026 181.265788 
L 101.2374 172.446839 
L 101.5722 168.700347 
L 101.7396 168.167577 
L 101.907 168.294038 
L 102.2418 169.975326 
L 102.744 174.524551 
L 102.9114 178.939568 
L 103.4136 155.561416 
L 103.7484 147.799059 
L 104.0832 144.030893 
L 104.418 142.905163 
L 104.5854 143.01662 
L 104.9202 144.116544 
L 105.5898 148.022947 
L 105.9246 150.14449 
L 106.092 153.607336 
L 106.5942 127.650783 
L 106.7616 119.579189 
L 107.2638 137.752777 
L 107.766 148.690642 
L 108.2682 154.764906 
L 108.603 156.923677 
L 108.9378 157.97836 
L 109.1052 158.17597 
L 109.2726 158.190886 
L 109.6074 157.765057 
L 109.9422 156.860116 
L 110.9466 153.010767 
L 111.7836 148.935368 
L 113.7924 137.972436 
L 113.9598 134.515993 
L 114.462 160.494878 
L 114.7968 169.875459 
L 115.1316 174.963023 
L 115.4664 177.010223 
L 115.6338 177.192714 
L 115.8012 176.940589 
L 116.136 175.43175 
L 116.3034 176.896049 
L 116.8056 144.668572 
L 117.3078 122.783602 
L 117.81 140.159653 
L 118.3122 148.595776 
L 118.647 151.03295 
L 118.9818 151.768472 
L 119.1492 151.663812 
L 119.484 150.761213 
L 119.9862 148.224393 
L 120.321 146.054042 
L 120.4884 142.272811 
L 120.9906 167.02651 
L 121.3254 175.369323 
L 121.6602 179.300848 
L 121.8276 180.028135 
L 121.995 180.105325 
L 122.1624 179.640651 
L 122.4972 177.442358 
L 122.9994 171.992226 
L 123.1668 172.450299 
L 123.5016 145.03386 
L 123.8364 147.895616 
L 124.0038 148.398197 
L 124.1712 148.408954 
L 124.3386 148.006373 
L 124.6734 146.220489 
L 125.1756 141.834431 
L 126.0126 132.149644 
L 126.18 127.389327 
L 126.6822 149.64197 
L 127.017 156.31379 
L 127.3518 158.580972 
L 127.5192 158.481141 
L 127.6866 157.735957 
L 128.0214 154.730932 
L 128.5236 147.648655 
L 128.691 142.442475 
L 129.0258 157.961677 
L 129.3606 165.77856 
L 129.6954 168.118007 
L 129.8628 167.765724 
L 130.1976 164.830617 
L 130.6998 156.649978 
L 130.8672 153.280358 
L 131.0346 147.377606 
L 131.3694 161.546047 
L 131.7042 167.961824 
L 131.8716 169.005119 
L 132.039 168.91972 
L 132.2064 167.899911 
L 132.5412 163.699087 
L 133.0434 153.838948 
L 133.2108 147.447223 
L 133.5456 160.759288 
L 133.8804 166.399008 
L 134.0478 167.091561 
L 134.2152 166.68297 
L 134.55 163.317169 
L 135.0522 154.065766 
L 135.2196 150.299968 
L 135.387 143.974887 
L 135.7218 157.433945 
L 136.0566 163.246088 
L 136.224 164.04174 
L 136.3914 163.75035 
L 136.7262 160.667248 
L 137.2284 151.974641 
L 137.3958 148.432999 
L 137.5632 142.248447 
L 137.898 156.052832 
L 138.2328 162.3557 
L 138.4002 163.443791 
L 138.5676 163.472807 
L 138.735 162.637803 
L 139.0698 159.018198 
L 139.7394 147.285063 
L 139.9068 141.652406 
L 140.2416 156.534157 
L 140.5764 164.040055 
L 140.9112 166.44855 
L 141.0786 166.283101 
L 141.4134 164.035437 
L 141.9156 157.671819 
L 142.2504 152.447234 
L 142.4178 147.206311 
L 142.7526 162.943749 
L 143.0874 171.605026 
L 143.4222 175.365333 
L 143.5896 175.924544 
L 143.757 175.820155 
L 144.0918 174.132817 
L 144.594 169.35935 
L 145.2636 161.51825 
L 145.431 157.100777 
L 145.7658 177.030282 
L 146.4354 159.305147 
L 146.9376 150.909827 
L 147.4398 145.513415 
L 147.942 142.372394 
L 148.2768 141.258235 
L 148.6116 140.779423 
L 148.779 140.745386 
L 149.1138 141.031711 
L 149.2812 141.33221 
L 149.4486 139.11742 
L 149.9508 171.232411 
L 150.453 159.25051 
L 150.9552 153.283805 
L 151.29 151.540404 
L 151.6248 151.041199 
L 151.7922 151.148698 
L 152.127 151.90626 
L 152.6292 154.006614 
L 153.1314 156.79853 
L 153.2988 160.313708 
L 153.801 134.821171 
L 154.1358 125.98676 
L 154.4706 121.547415 
L 154.8054 120.20111 
L 154.9728 120.376182 
L 155.3076 121.945815 
L 155.475 120.569787 
L 155.9772 153.215821 
L 156.4794 175.769566 
L 156.9816 159.10698 
L 157.4838 151.11527 
L 157.8186 148.801587 
L 158.1534 148.038649 
L 158.3208 148.070248 
L 158.6556 148.703432 
L 159.1578 150.517009 
L 159.66 152.74097 
L 159.8274 156.134726 
L 160.3296 130.030267 
L 160.8318 114.753419 
L 161.334 138.082295 
L 161.8362 152.27522 
L 162.3384 160.506691 
L 162.8406 164.851235 
L 163.1754 166.28066 
L 163.5102 166.876585 
L 163.6776 166.930643 
L 163.845 169.315435 
L 164.3472 140.063993 
L 165.0168 118.05544 
L 165.519 140.223032 
L 166.0212 152.67811 
L 166.5234 159.04094 
L 166.8582 161.09411 
L 167.193 161.975742 
L 167.3604 162.092536 
L 167.5278 162.042583 
L 167.8626 161.561149 
L 168.1974 160.73038 
L 168.3648 162.754056 
L 168.867 130.258974 
L 169.3692 142.265127 
L 169.8714 149.126023 
L 170.3736 152.893759 
L 170.8758 154.89032 
L 171.378 155.963381 
L 172.215 157.072198 
L 172.3824 159.8846 
L 172.8846 132.395564 
L 173.3868 116.360857 
L 173.889 139.618697 
L 174.3912 154.689116 
L 174.8934 164.710401 
L 175.7304 177.658453 
L 176.2326 153.096222 
L 176.5674 144.625989 
L 176.9022 140.506046 
L 177.0696 139.686853 
L 177.237 139.528758 
L 177.4044 139.928649 
L 177.7392 142.059871 
L 178.2414 147.592755 
L 178.4088 149.856966 
L 178.5762 154.453985 
L 178.911 137.8603 
L 179.2458 129.004491 
L 179.5806 125.687695 
L 179.748 125.579266 
L 179.9154 126.28072 
L 180.2502 129.579876 
L 180.7524 137.730361 
L 180.9198 140.98804 
L 181.0872 146.674667 
L 181.422 132.116939 
L 181.7568 125.251366 
L 181.9242 123.969497 
L 182.0916 123.810657 
L 182.259 124.582479 
L 182.5938 128.281633 
L 183.096 137.387334 
L 183.2634 140.999765 
L 183.4308 147.138068 
L 183.7656 133.351132 
L 184.1004 127.143858 
L 184.2678 126.141381 
L 184.4352 126.22607 
L 184.6026 127.204212 
L 184.9374 131.201144 
L 185.607 144.050962 
L 185.7744 150.073142 
L 186.1092 135.998677 
L 186.444 129.385911 
L 186.6114 128.137335 
L 186.7788 127.947815 
L 186.9462 128.624386 
L 187.281 131.939589 
L 187.7832 139.997429 
L 187.9506 143.140024 
L 188.118 149.057328 
L 188.4528 134.629457 
L 188.7876 127.370022 
L 189.1224 125.06541 
L 189.2898 125.24462 
L 189.6246 127.466457 
L 190.1268 133.707946 
L 190.629 141.488594 
L 190.7964 146.60155 
L 191.2986 125.422637 
L 191.6334 119.12153 
L 191.9682 116.840061 
L 192.1356 116.771512 
L 192.303 117.235527 
L 192.6378 119.332571 
L 192.8052 120.791169 
L 192.9726 119.781162 
L 193.4748 153.011619 
L 193.977 175.384846 
L 194.4792 158.028949 
L 194.9814 148.74035 
L 195.4836 144.155521 
L 195.8184 142.642307 
L 196.1532 141.87004 
L 196.488 141.552668 
L 196.8228 141.491489 
L 197.1576 141.552284 
L 197.325 138.975217 
L 197.8272 167.251324 
L 198.162 180.61907 
L 198.6642 160.838452 
L 199.1664 148.721576 
L 199.6686 141.494222 
L 200.1708 137.406848 
L 200.673 135.370454 
L 201.0078 134.811484 
L 201.1752 132.066194 
L 201.6774 160.45074 
L 202.347 181.895584 
L 202.8492 159.875075 
L 203.3514 147.975426 
L 203.6862 143.880938 
L 204.021 141.999828 
L 204.1884 141.720018 
L 204.3558 141.80888 
L 204.6906 142.920858 
L 205.0254 145.049792 
L 205.3602 147.98495 
L 205.5276 152.22647 
L 206.0298 129.36409 
L 206.3646 122.896555 
L 206.532 121.573991 
L 206.6994 121.280556 
L 206.8668 121.864313 
L 207.2016 125.15929 
L 207.7038 133.962416 
L 208.0386 143.640117 
L 208.3734 129.977644 
L 208.7082 124.575287 
L 208.8756 124.225495 
L 209.043 125.126597 
L 209.3778 129.92408 
L 209.88 142.417783 
L 210.0474 149.728948 
L 210.3822 138.59217 
L 210.5496 136.407366 
L 210.717 136.018944 
L 210.8844 137.14205 
L 211.2192 142.977843 
L 211.554 152.3423 
L 211.7214 160.547944 
L 212.0562 151.099218 
L 212.2236 149.839439 
L 212.391 150.40541 
L 212.7258 155.857341 
L 213.0606 165.529378 
L 213.228 174.162015 
L 213.5628 165.530182 
L 213.7302 164.757621 
L 213.8976 165.840442 
L 214.2324 172.361307 
L 214.5672 183.079502 
L 214.7346 191.516982 
L 215.0694 182.604844 
L 215.2368 181.662039 
L 215.4042 182.428501 
L 215.739 187.932779 
L 216.0738 197.201104 
L 216.2412 204.282827 
L 216.576 192.583305 
L 216.7434 190.411895 
L 216.9108 190.153243 
L 217.0782 191.474093 
L 217.413 197.753656 
L 217.5804 204.761822 
L 217.9152 192.95745 
L 218.0826 190.759747 
L 218.25 190.482955 
L 218.4174 191.788258 
L 218.7522 198.026758 
L 218.9196 204.998568 
L 219.2544 193.115225 
L 219.4218 190.852834 
L 219.5892 190.493151 
L 219.7566 191.696665 
L 220.0914 197.673268 
L 220.4262 208.430879 
L 220.761 195.629162 
L 220.9284 192.899608 
L 221.0958 192.066148 
L 221.2632 192.788577 
L 221.598 197.779236 
L 221.7654 201.586719 
L 221.9328 208.084619 
L 222.2676 195.258941 
L 222.6024 191.269838 
L 222.7698 191.662407 
L 223.1046 195.812718 
L 223.4394 202.962091 
L 223.6068 209.177922 
L 223.9416 195.520326 
L 224.2764 189.91904 
L 224.4438 189.248177 
L 224.6112 189.622934 
L 224.946 192.626037 
L 225.2808 197.477028 
L 225.4482 202.883555 
L 225.783 187.237576 
L 226.1178 178.735953 
L 226.4526 174.936435 
L 226.62 174.223431 
L 226.7874 174.061281 
L 226.9548 174.30376 
L 227.2896 175.528125 
L 227.9592 178.565688 
L 228.1266 181.656852 
L 228.6288 153.796235 
L 229.131 137.74161 
L 229.6332 127.898258 
L 229.8006 125.359004 
L 229.968 120.6593 
L 230.4702 143.418648 
L 230.805 150.30488 
L 230.9724 151.863147 
L 231.1398 152.373593 
L 231.3072 151.967989 
L 231.642 148.854478 
L 231.9768 143.280766 
L 232.1442 137.161958 
L 232.479 150.566405 
L 232.8138 155.309436 
L 232.9812 155.193037 
L 233.1486 153.743093 
L 233.4834 147.626773 
L 233.8182 138.276147 
L 233.9856 130.916704 
L 234.3204 141.711047 
L 234.4878 143.466282 
L 234.6552 143.289533 
L 234.8226 141.489323 
L 235.1574 134.045526 
L 235.4922 120.428876 
L 235.827 129.3162 
L 235.9944 130.079385 
L 236.1618 128.912734 
L 236.4966 122.044842 
L 236.8314 110.804142 
L 236.9988 102.655708 
L 237.3336 112.623972 
L 237.501 114.087963 
L 237.6684 113.722164 
L 238.0032 108.733776 
L 238.1706 104.619559 
L 238.338 97.29443 
L 238.6728 108.557145 
L 238.8402 110.493974 
L 239.0076 110.514478 
L 239.175 108.956415 
L 239.5098 102.220239 
L 239.6772 95.214512 
L 240.012 107.000316 
L 240.1794 109.162002 
L 240.3468 109.393835 
L 240.5142 108.040096 
L 240.849 101.712224 
L 241.0164 94.774125 
L 241.3512 106.719668 
L 241.5186 109.022204 
L 241.686 109.432056 
L 241.8534 108.291108 
L 242.1882 102.484282 
L 242.523 91.800074 
L 242.8578 104.591583 
L 243.1926 108.339701 
L 243.36 107.773003 
L 243.6948 103.203729 
L 243.8622 99.656325 
L 244.0296 92.991911 
L 244.3644 105.655278 
L 244.6992 109.997108 
L 244.8666 109.977955 
L 245.034 108.889302 
L 245.3688 104.424859 
L 245.7036 98.116997 
L 245.871 92.597515 
L 246.2058 107.886441 
L 246.5406 115.752453 
L 246.8754 118.755011 
L 247.0428 119.036419 
L 247.2102 118.75618 
L 247.545 117.098959 
L 248.0472 113.517767 
L 248.2146 109.733009 
L 248.7168 135.589097 
L 249.219 149.44144 
L 249.7212 157.132578 
L 250.7256 169.34205 
L 251.2278 145.722034 
L 251.5626 138.918484 
L 251.73 137.53846 
L 251.8974 137.277139 
L 252.0648 137.99012 
L 252.3996 141.851298 
L 252.7344 148.294342 
L 252.9018 154.724326 
L 253.2366 142.017683 
L 253.5714 138.086641 
L 253.7388 138.636022 
L 254.0736 143.562629 
L 254.4084 152.35002 
L 254.5758 160.429129 
L 254.9106 150.901292 
L 255.078 149.714191 
L 255.2454 150.422979 
L 255.5802 156.354532 
L 255.915 166.735011 
L 256.0824 175.470438 
L 256.4172 167.221014 
L 256.5846 166.777204 
L 256.752 168.263203 
L 257.0868 175.76922 
L 257.4216 187.647048 
L 257.589 196.000626 
L 257.9238 186.389474 
L 258.0912 185.105907 
L 258.2586 185.653059 
L 258.5934 191.006368 
L 258.7608 195.303999 
L 258.9282 202.638268 
L 259.263 191.425602 
L 259.4304 189.560218 
L 259.5978 189.636302 
L 259.7652 191.312528 
L 260.1 198.338073 
L 260.2674 205.26844 
L 260.6022 193.408602 
L 260.7696 191.286692 
L 260.937 191.136142 
L 261.1044 192.6067 
L 261.4392 199.255166 
L 261.6066 206.063447 
L 261.9414 193.971553 
L 262.1088 191.702479 
L 262.2762 191.38355 
L 262.4436 192.664474 
L 262.7784 198.870687 
L 262.9458 205.730151 
L 263.2806 193.648002 
L 263.448 191.274902 
L 263.6154 190.79097 
L 263.7828 191.853325 
L 264.1176 197.487058 
L 264.4524 208.091673 
L 264.7872 195.299223 
L 265.122 191.454362 
L 265.2894 191.945234 
L 265.6242 196.322232 
L 265.959 203.774759 
L 266.1264 209.95088 
L 266.4612 196.320845 
L 266.796 190.908816 
L 266.9634 190.374107 
L 267.1308 190.905221 
L 267.4656 194.265568 
L 267.8004 199.514645 
L 267.9678 204.917992 
L 268.3026 189.341631 
L 268.6374 181.0634 
L 268.9722 177.606179 
L 269.1396 177.101587 
L 269.307 177.170043 
L 269.6418 178.458868 
L 270.3114 182.799799 
L 270.4788 186.27832 
L 270.981 159.767304 
L 271.4832 145.615525 
L 271.9854 138.062292 
L 272.4876 133.582901 
L 272.655 132.380749 
L 272.8224 128.562175 
L 273.3246 153.420805 
L 273.6594 161.593988 
L 273.9942 164.955172 
L 274.1616 165.21632 
L 274.329 164.697808 
L 274.6638 161.729264 
L 275.166 153.661265 
L 275.3334 148.008128 
L 275.6682 162.362544 
L 276.003 168.422807 
L 276.1704 169.092382 
L 276.3378 168.508439 
L 276.6726 164.351084 
L 277.1748 152.89194 
L 277.3422 145.867178 
L 277.677 157.65009 
L 277.8444 160.235998 
L 278.0118 161.079545 
L 278.1792 160.467401 
L 278.514 155.829064 
L 279.0162 143.10051 
L 279.1836 135.693055 
L 279.5184 146.83417 
L 279.6858 149.107755 
L 279.8532 149.662162 
L 280.0206 148.794197 
L 280.3554 143.775181 
L 280.8576 130.880084 
L 281.025 123.817544 
L 281.3598 135.696955 
L 281.6946 139.363647 
L 281.862 138.965088 
L 282.1968 135.000511 
L 282.699 123.999493 
L 282.8664 117.387787 
L 283.2012 130.318185 
L 283.536 135.381211 
L 283.7034 135.790847 
L 283.8708 135.135376 
L 284.2056 131.45867 
L 284.7078 122.402562 
L 284.8752 116.667034 
L 285.21 131.466663 
L 285.5448 138.869749 
L 285.8796 141.304239 
L 286.047 141.234463 
L 286.3818 139.39334 
L 286.884 134.278711 
L 287.2188 130.363627 
L 287.3862 126.177666 
L 287.8884 150.382965 
L 288.3906 161.871937 
L 288.7254 165.514459 
L 289.0602 167.368519 
L 289.395 168.273957 
L 289.7298 168.826904 
L 289.8972 171.580374 
L 290.3994 144.195741 
L 290.7342 134.70832 
L 291.069 130.296929 
L 291.2364 129.604829 
L 291.4038 129.75362 
L 291.5712 130.63746 
L 291.906 134.253317 
L 292.2408 139.847408 
L 292.4082 145.708756 
L 292.743 131.828227 
L 293.0778 126.383482 
L 293.2452 126.086303 
L 293.4126 127.090801 
L 293.7474 132.246238 
L 294.2496 145.632074 
L 294.417 152.962314 
L 294.7518 142.04593 
L 294.9192 140.11214 
L 295.0866 140.051807 
L 295.254 141.568976 
L 295.5888 148.351512 
L 295.9236 158.817377 
L 296.091 167.041272 
L 296.4258 157.821848 
L 296.5932 156.831104 
L 296.7606 157.743891 
L 297.0954 164.060958 
L 297.4302 174.741998 
L 297.5976 183.33299 
L 297.9324 174.781157 
L 298.0998 174.183809 
L 298.2672 175.505715 
L 298.602 182.563827 
L 299.1042 200.788558 
L 299.439 189.966746 
L 299.6064 188.162959 
L 299.7738 188.233565 
L 299.9412 189.850885 
L 300.276 196.643232 
L 300.4434 203.79922 
L 300.7782 192.250478 
L 300.9456 190.179428 
L 301.113 190.028251 
L 301.2804 191.457897 
L 301.6152 197.940265 
L 301.7826 204.923589 
L 302.1174 193.077876 
L 302.2848 190.857535 
L 302.4522 190.551455 
L 302.6196 191.817642 
L 302.9544 197.938408 
L 303.1218 204.921979 
L 303.4566 193.01937 
L 303.624 190.690119 
L 303.7914 190.228235 
L 303.9588 191.296084 
L 304.2936 196.907714 
L 304.6284 207.571099 
L 304.9632 194.89866 
L 305.298 191.113469 
L 305.4654 191.618663 
L 305.8002 196.002691 
L 306.135 203.433556 
L 306.3024 209.640029 
L 306.6372 196.026976 
L 306.972 190.557206 
L 307.1394 189.967697 
L 307.3068 190.426929 
L 307.6416 193.590746 
L 307.9764 198.567688 
L 308.1438 203.943624 
L 308.4786 188.224214 
L 308.8134 179.606429 
L 309.1482 175.625327 
L 309.483 174.485605 
L 309.6504 174.560243 
L 309.9852 175.370507 
L 310.6548 177.233169 
L 310.8222 177.401736 
L 310.9896 179.976233 
L 311.4918 150.386673 
L 311.994 132.016387 
L 312.3288 120.689592 
L 312.6636 134.575451 
L 312.9984 141.860064 
L 313.1658 143.502342 
L 313.3332 144.017298 
L 313.5006 143.535165 
L 313.8354 140.020899 
L 314.1702 133.71104 
L 314.3376 127.149277 
L 314.6724 139.602992 
L 314.8398 142.25061 
L 315.0072 142.951939 
L 315.1746 141.981699 
L 315.5094 135.945076 
L 315.8442 125.682536 
L 316.0116 117.839521 
L 316.3464 127.342511 
L 316.5138 128.093307 
L 316.6812 126.703048 
L 317.016 118.763652 
L 317.3508 104.61147 
L 317.6856 113.873961 
L 317.853 114.722367 
L 318.0204 113.583937 
L 318.3552 106.624143 
L 318.5226 99.032159 
L 318.8574 109.495045 
L 319.0248 110.566329 
L 319.1922 109.459052 
L 319.527 102.128351 
L 319.6944 95.134857 
L 320.0292 106.403216 
L 320.1966 107.571718 
L 320.364 106.408749 
L 320.5314 103.313471 
L 320.6988 96.16221 
L 321.0336 107.057091 
L 321.201 107.911729 
L 321.3684 106.377105 
L 321.5358 102.868769 
L 321.7032 95.776708 
L 322.038 106.671698 
L 322.2054 107.394978 
L 322.3728 105.667864 
L 322.5402 101.922024 
L 322.7076 94.955996 
L 323.0424 105.983685 
L 323.2098 106.663818 
L 323.3772 104.843279 
L 323.5446 100.967544 
L 323.712 94.128579 
L 324.0468 105.316606 
L 324.2142 106.001666 
L 324.3816 104.15322 
L 324.549 100.227225 
L 324.7164 93.486812 
L 325.0512 104.816092 
L 325.2186 105.536792 
L 325.386 103.711722 
L 325.5534 99.803454 
L 325.7208 93.119454 
L 326.0556 104.549427 
L 326.223 105.328575 
L 326.3904 103.571674 
L 326.5578 99.743749 
L 326.7252 93.067698 
L 327.06 104.547631 
L 327.2274 105.403945 
L 327.3948 103.756347 
L 327.5622 100.068014 
L 327.7296 93.348796 
L 328.0644 104.823204 
L 328.2318 105.77274 
L 328.3992 104.272675 
L 328.5666 100.780014 
L 328.734 93.966013 
L 329.0688 105.377598 
L 329.2362 106.434182 
L 329.4036 105.116873 
L 329.571 101.872248 
L 329.7384 94.912846 
L 330.0732 106.204404 
L 330.2406 107.379656 
L 330.408 106.276874 
L 330.7428 98.902041 
L 330.9102 92.338039 
L 331.245 104.432492 
L 331.4124 106.165569 
L 331.5798 105.701366 
L 331.9146 99.789701 
L 332.082 93.107533 
L 332.4168 105.200579 
L 332.5842 107.205033 
L 332.7516 107.154045 
L 332.919 105.440565 
L 333.2538 98.316527 
L 333.4212 91.83047 
L 333.756 104.48451 
L 333.9234 107.062374 
L 334.0908 107.734119 
L 334.2582 106.864308 
L 334.593 101.696667 
L 334.7604 97.887588 
L 334.9278 91.458632 
L 335.2626 104.530156 
L 335.5974 109.383724 
L 335.7648 109.710822 
L 335.9322 109.047045 
L 336.267 105.702379 
L 336.6018 100.904632 
L 336.7692 95.652096 
L 337.2714 117.289061 
L 337.6062 124.495861 
L 337.941 128.420346 
L 338.2758 130.522978 
L 339.4476 135.759483 
L 339.9498 140.250431 
L 340.1172 142.225549 
L 340.2846 147.069959 
L 340.6194 131.134602 
L 340.9542 123.441878 
L 341.1216 122.026267 
L 341.289 121.945976 
L 341.4564 123.021301 
L 341.7912 128.032041 
L 342.126 136.029174 
L 342.2934 143.446339 
L 342.6282 132.669672 
L 342.7956 130.769246 
L 342.963 130.737146 
L 343.1304 132.288054 
L 343.4652 139.185188 
L 343.8 149.860574 
L 343.9674 158.382491 
L 344.3022 149.770682 
L 344.4696 149.093897 
L 344.637 150.329864 
L 344.9718 157.323073 
L 345.3066 168.717089 
L 345.474 177.610412 
L 345.8088 169.681223 
L 345.9762 169.415494 
L 346.1436 171.077279 
L 346.4784 178.894146 
L 346.8132 193.228372 
L 347.148 184.29417 
L 347.3154 183.261789 
L 347.4828 184.007298 
L 347.8176 189.6121 
L 347.985 193.968542 
L 348.1524 201.48059 
L 348.4872 190.505462 
L 348.6546 188.659423 
L 348.822 188.69653 
L 348.9894 190.280489 
L 349.3242 196.978664 
L 349.4916 204.089998 
L 349.8264 192.427594 
L 349.9938 190.244126 
L 350.1612 189.942207 
L 350.3286 191.182248 
L 350.6634 197.167988 
L 350.9982 207.969096 
L 351.333 195.244366 
L 351.5004 192.488193 
L 351.6678 191.589341 
L 351.8352 192.21057 
L 352.17 196.901602 
L 352.3374 200.515082 
L 352.5048 207.155641 
L 352.8396 194.483564 
L 353.1744 190.253493 
L 353.3418 190.363254 
L 353.5092 191.560553 
L 353.844 196.28405 
L 354.1788 202.890106 
L 354.3462 208.420426 
L 354.681 193.205862 
L 355.0158 185.514442 
L 355.3506 182.754396 
L 355.518 182.612082 
L 355.6854 183.040133 
L 356.0202 185.011753 
L 356.5224 189.09111 
L 356.6898 192.827082 
L 357.192 166.982337 
L 357.6942 153.392626 
L 358.1964 146.112466 
L 358.866 140.166923 
L 359.2008 137.431234 
L 359.3682 133.483605 
L 359.8704 157.292755 
L 360.2052 164.16828 
L 360.3726 165.579029 
L 360.54 165.871309 
L 360.7074 165.191843 
L 361.0422 161.413098 
L 361.377 155.083344 
L 361.5444 148.587116 
L 361.8792 161.224762 
L 362.214 165.22524 
L 362.3814 164.755927 
L 362.7162 160.06997 
L 363.2184 146.35489 
L 363.3858 138.683143 
L 363.7206 148.937661 
L 363.888 150.483269 
L 364.0554 150.134594 
L 364.2228 148.198498 
L 364.5576 140.585039 
L 364.8924 126.742566 
L 365.2272 135.369003 
L 365.3946 136.090597 
L 365.562 134.933965 
L 365.8968 128.221974 
L 366.2316 117.291855 
L 366.399 108.824007 
L 366.7338 117.675485 
L 366.9012 118.58045 
L 367.0686 117.785618 
L 367.4034 112.259305 
L 367.7382 103.024134 
L 367.9056 95.91139 
L 368.2404 107.590602 
L 368.4078 109.800365 
L 368.5752 110.127653 
L 368.7426 108.904406 
L 369.0774 102.902348 
L 369.4122 92.053979 
L 369.747 104.719941 
L 369.9144 107.372024 
L 370.0818 108.118549 
L 370.2492 107.298001 
L 370.584 102.072521 
L 370.9188 91.665782 
L 371.2536 104.502344 
L 371.5884 108.30968 
L 371.7558 107.765678 
L 372.0906 103.209865 
L 372.258 99.647671 
L 372.4254 92.984409 
L 372.7602 105.606189 
L 373.095 109.679063 
L 373.2624 109.432886 
L 373.5972 105.791111 
L 373.932 99.377081 
L 374.0994 93.130466 
L 374.4342 106.902222 
L 374.769 112.885718 
L 374.9364 113.80501 
L 375.1038 113.698295 
L 375.2712 112.783259 
L 375.606 109.239505 
L 375.9408 104.336521 
L 376.1082 99.399693 
L 376.6104 121.159161 
L 376.9452 127.618315 
L 377.28 130.124486 
L 377.4474 130.374239 
L 377.6148 130.153791 
L 377.9496 128.764237 
L 378.6192 124.490358 
L 378.7866 121.105995 
L 379.2888 147.562133 
L 379.791 161.117272 
L 380.2932 167.47036 
L 380.628 169.495096 
L 380.9628 170.564412 
L 381.1302 173.511728 
L 381.6324 145.908022 
L 382.1346 132.077995 
L 382.4694 127.976605 
L 382.8042 126.722553 
L 382.9716 126.910923 
L 383.3064 128.521108 
L 383.8086 133.106071 
L 384.1434 137.061972 
L 384.3108 141.545818 
L 384.6456 122.001216 
L 385.3152 141.785781 
L 385.9848 156.051644 
L 386.6544 166.316388 
L 387.1566 171.885806 
L 387.324 175.897018 
L 387.8262 150.739005 
L 388.3284 138.028673 
L 388.6632 133.732831 
L 388.998 131.469634 
L 389.3328 130.445718 
L 389.6676 130.07964 
L 389.835 127.49058 
L 390.3372 155.702937 
L 390.672 166.115449 
L 391.0068 171.691385 
L 391.3416 173.588199 
L 391.509 173.436572 
L 391.6764 172.671116 
L 392.0112 169.587075 
L 392.5134 161.922898 
L 392.6808 156.587992 
L 393.0156 171.43933 
L 393.3504 177.894075 
L 393.5178 178.696534 
L 393.6852 178.19064 
L 393.8526 176.568064 
L 393.8526 176.568064 
" clip-path="url(#pd55127628d)" style="fill: none; stroke: #003dde; stroke-width: 1.5; stroke-linecap: square"/>
   </g>
   <g id="patch_3">
    <path d="M 59.22 253.44 
L 59.22 36 
" style="fill: none; stroke: #000000; stroke-width: 0.8; stroke-linejoin: miter; stroke-linecap: square"/>
   </g>
   <g id="patch_4">
    <path d="M 394.02 253.44 
L 394.02 36 
" style="fill: none; stroke: #000000; stroke-width: 0.8; stroke-linejoin: miter; stroke-linecap: square"/>
   </g>
   <g id="patch_5">
    <path d="M 59.22 253.44 
L 394.02 253.44 
" style="fill: none; stroke: #000000; stroke-width: 0.8; stroke-linejoin: miter; stroke-linecap: square"/>
   </g>
   <g id="patch_6">
    <path d="M 59.22 36 
L 394.02 36 
" style="fill: none; stroke: #000000; stroke-width: 0.8; stroke-linejoin: miter; stroke-linecap: square"/>
   </g>
   <g id="legend_1">
    <g id="patch_7">
     <path d="M 160.62 89.7 
L 292.62 89.7 
Q 294.62 89.7 294.62 87.7 
L 294.62 43 
Q 294.62 41 292.62 41 
L 160.62 41 
Q 158.62 41 158.62 43 
L 158.62 87.7 
Q 158.62 89.7 160.62 89.7 
z
" style="fill: #ffffff; opacity: 0.8; stroke: #cccccc; stroke-linejoin: miter"/>
    </g>
    <g id="line2d_19">
     <path d="M 162.62 49.1 
L 172.62 49.1 
L 182.62 49.1 
" style="fill: none; stroke: #1f77b4; stroke-opacity: 0.6; stroke-width: 1.5; stroke-linecap: square"/>
    </g>
    <g id="text_18">
     <!-- Spikes $v(t)$ -->
     <g transform="translate(190.62 52.6) scale(0.1 -0.1)">
      <defs>
       <path id="DejaVuSans-53" d="M 3425 4513 
L 3425 3897 
Q 3066 4069 2747 4153 
Q 2428 4238 2131 4238 
Q 1616 4238 1336 4038 
Q 1056 3838 1056 3469 
Q 1056 3159 1242 3001 
Q 1428 2844 1947 2747 
L 2328 2669 
Q 3034 2534 3370 2195 
Q 3706 1856 3706 1288 
Q 3706 609 3251 259 
Q 2797 -91 1919 -91 
Q 1588 -91 1214 -16 
Q 841 59 441 206 
L 441 856 
Q 825 641 1194 531 
Q 1563 422 1919 422 
Q 2459 422 2753 634 
Q 3047 847 3047 1241 
Q 3047 1584 2836 1778 
Q 2625 1972 2144 2069 
L 1759 2144 
Q 1053 2284 737 2584 
Q 422 2884 422 3419 
Q 422 4038 858 4394 
Q 1294 4750 2059 4750 
Q 2388 4750 2728 4690 
Q 3069 4631 3425 4513 
z
" transform="scale(0.015625)"/>
       <path id="DejaVuSans-70" d="M 1159 525 
L 1159 -1331 
L 581 -1331 
L 581 3500 
L 1159 3500 
L 1159 2969 
Q 1341 3281 1617 3432 
Q 1894 3584 2278 3584 
Q 2916 3584 3314 3078 
Q 3713 2572 3713 1747 
Q 3713 922 3314 415 
Q 2916 -91 2278 -91 
Q 1894 -91 1617 61 
Q 1341 213 1159 525 
z
M 3116 1747 
Q 3116 2381 2855 2742 
Q 2594 3103 2138 3103 
Q 1681 3103 1420 2742 
Q 1159 2381 1159 1747 
Q 1159 1113 1420 752 
Q 1681 391 2138 391 
Q 2594 391 2855 752 
Q 3116 1113 3116 1747 
z
" transform="scale(0.015625)"/>
       <path id="DejaVuSans-6b" d="M 581 4863 
L 1159 4863 
L 1159 1991 
L 2875 3500 
L 3609 3500 
L 1753 1863 
L 3688 0 
L 2938 0 
L 1159 1709 
L 1159 0 
L 581 0 
L 581 4863 
z
" transform="scale(0.015625)"/>
       <path id="DejaVuSans-73" d="M 2834 3397 
L 2834 2853 
Q 2591 2978 2328 3040 
Q 2066 3103 1784 3103 
Q 1356 3103 1142 2972 
Q 928 2841 928 2578 
Q 928 2378 1081 2264 
Q 1234 2150 1697 2047 
L 1894 2003 
Q 2506 1872 2764 1633 
Q 3022 1394 3022 966 
Q 3022 478 2636 193 
Q 2250 -91 1575 -91 
Q 1294 -91 989 -36 
Q 684 19 347 128 
L 347 722 
Q 666 556 975 473 
Q 1284 391 1588 391 
Q 1994 391 2212 530 
Q 2431 669 2431 922 
Q 2431 1156 2273 1281 
Q 2116 1406 1581 1522 
L 1381 1569 
Q 847 1681 609 1914 
Q 372 2147 372 2553 
Q 372 3047 722 3315 
Q 1072 3584 1716 3584 
Q 2034 3584 2315 3537 
Q 2597 3491 2834 3397 
z
" transform="scale(0.015625)"/>
       <path id="DejaVuSans-20" transform="scale(0.015625)"/>
       <path id="DejaVuSans-Oblique-76" d="M 459 3500 
L 1069 3500 
L 1581 525 
L 3256 3500 
L 3866 3500 
L 1875 0 
L 1100 0 
L 459 3500 
z
" transform="scale(0.015625)"/>
       <path id="DejaVuSans-28" d="M 1984 4856 
Q 1566 4138 1362 3434 
Q 1159 2731 1159 2009 
Q 1159 1288 1364 580 
Q 1569 -128 1984 -844 
L 1484 -844 
Q 1016 -109 783 600 
Q 550 1309 550 2009 
Q 550 2706 781 3412 
Q 1013 4119 1484 4856 
L 1984 4856 
z
" transform="scale(0.015625)"/>
       <path id="DejaVuSans-29" d="M 513 4856 
L 1013 4856 
Q 1481 4119 1714 3412 
Q 1947 2706 1947 2009 
Q 1947 1309 1714 600 
Q 1481 -109 1013 -844 
L 513 -844 
Q 928 -128 1133 580 
Q 1338 1288 1338 2009 
Q 1338 2731 1133 3434 
Q 928 4138 513 4856 
z
" transform="scale(0.015625)"/>
      </defs>
      <use xlink:href="#DejaVuSans-53" transform="translate(0 0.015625)"/>
      <use xlink:href="#DejaVuSans-70" transform="translate(63.476562 0.015625)"/>
      <use xlink:href="#DejaVuSans-69" transform="translate(126.953125 0.015625)"/>
      <use xlink:href="#DejaVuSans-6b" transform="translate(154.736328 0.015625)"/>
      <use xlink:href="#DejaVuSans-65" transform="translate(212.646484 0.015625)"/>
      <use xlink:href="#DejaVuSans-73" transform="translate(274.169922 0.015625)"/>
      <use xlink:href="#DejaVuSans-20" transform="translate(326.269531 0.015625)"/>
      <use xlink:href="#DejaVuSans-Oblique-76" transform="translate(358.056641 0.015625)"/>
      <use xlink:href="#DejaVuSans-28" transform="translate(417.236328 0.015625)"/>
      <use xlink:href="#DejaVuSans-Oblique-74" transform="translate(456.25 0.015625)"/>
      <use xlink:href="#DejaVuSans-29" transform="translate(495.458984 0.015625)"/>
     </g>
    </g>
    <g id="line2d_20">
     <path d="M 162.62 63.8 
L 172.62 63.8 
L 182.62 63.8 
" style="fill: none; stroke: #ff4d00; stroke-opacity: 0.8; stroke-width: 1.5; stroke-linecap: square"/>
    </g>
    <g id="text_19">
     <!-- input $x(t)$ -->
     <g transform="translate(190.62 67.3) scale(0.1 -0.1)">
      <defs>
       <path id="DejaVuSans-Oblique-78" d="M 3841 3500 
L 2234 1784 
L 3219 0 
L 2559 0 
L 1819 1388 
L 531 0 
L -166 0 
L 1556 1844 
L 641 3500 
L 1300 3500 
L 1972 2234 
L 3144 3500 
L 3841 3500 
z
" transform="scale(0.015625)"/>
      </defs>
      <use xlink:href="#DejaVuSans-69" transform="translate(0 0.015625)"/>
      <use xlink:href="#DejaVuSans-6e" transform="translate(27.783203 0.015625)"/>
      <use xlink:href="#DejaVuSans-70" transform="translate(91.162109 0.015625)"/>
      <use xlink:href="#DejaVuSans-75" transform="translate(154.638672 0.015625)"/>
      <use xlink:href="#DejaVuSans-74" transform="translate(218.017578 0.015625)"/>
      <use xlink:href="#DejaVuSans-20" transform="translate(257.226562 0.015625)"/>
      <use xlink:href="#DejaVuSans-Oblique-78" transform="translate(289.013672 0.015625)"/>
      <use xlink:href="#DejaVuSans-28" transform="translate(348.193359 0.015625)"/>
      <use xlink:href="#DejaVuSans-Oblique-74" transform="translate(387.207031 0.015625)"/>
      <use xlink:href="#DejaVuSans-29" transform="translate(426.416016 0.015625)"/>
     </g>
    </g>
    <g id="line2d_21">
     <path d="M 162.62 80.1 
L 172.62 80.1 
L 182.62 80.1 
" style="fill: none; stroke: #003dde; stroke-width: 1.5; stroke-linecap: square"/>
    </g>
    <g id="text_20">
     <!-- decoded output $\hat{x}(t)$ -->
     <g transform="translate(190.62 83.6) scale(0.1 -0.1)">
      <defs>
       <path id="DejaVuSans-63" d="M 3122 3366 
L 3122 2828 
Q 2878 2963 2633 3030 
Q 2388 3097 2138 3097 
Q 1578 3097 1268 2742 
Q 959 2388 959 1747 
Q 959 1106 1268 751 
Q 1578 397 2138 397 
Q 2388 397 2633 464 
Q 2878 531 3122 666 
L 3122 134 
Q 2881 22 2623 -34 
Q 2366 -91 2075 -91 
Q 1284 -91 818 406 
Q 353 903 353 1747 
Q 353 2603 823 3093 
Q 1294 3584 2113 3584 
Q 2378 3584 2631 3529 
Q 2884 3475 3122 3366 
z
" transform="scale(0.015625)"/>
       <path id="DejaVuSans-6f" d="M 1959 3097 
Q 1497 3097 1228 2736 
Q 959 2375 959 1747 
Q 959 1119 1226 758 
Q 1494 397 1959 397 
Q 2419 397 2687 759 
Q 2956 1122 2956 1747 
Q 2956 2369 2687 2733 
Q 2419 3097 1959 3097 
z
M 1959 3584 
Q 2709 3584 3137 3096 
Q 3566 2609 3566 1747 
Q 3566 888 3137 398 
Q 2709 -91 1959 -91 
Q 1206 -91 779 398 
Q 353 888 353 1747 
Q 353 2609 779 3096 
Q 1206 3584 1959 3584 
z
" transform="scale(0.015625)"/>
       <path id="DejaVuSans-302" d="M -1831 5119 
L -1369 5119 
L -603 3944 
L -1038 3944 
L -1600 4709 
L -2163 3944 
L -2597 3944 
L -1831 5119 
z
M -1600 3584 
L -1600 3584 
z
" transform="scale(0.015625)"/>
      </defs>
      <use xlink:href="#DejaVuSans-64" transform="translate(0 0.828125)"/>
      <use xlink:href="#DejaVuSans-65" transform="translate(63.476562 0.828125)"/>
      <use xlink:href="#DejaVuSans-63" transform="translate(125 0.828125)"/>
      <use xlink:href="#DejaVuSans-6f" transform="translate(179.980469 0.828125)"/>
      <use xlink:href="#DejaVuSans-64" transform="translate(241.162109 0.828125)"/>
      <use xlink:href="#DejaVuSans-65" transform="translate(304.638672 0.828125)"/>
      <use xlink:href="#DejaVuSans-64" transform="translate(366.162109 0.828125)"/>
      <use xlink:href="#DejaVuSans-20" transform="translate(429.638672 0.828125)"/>
      <use xlink:href="#DejaVuSans-6f" transform="translate(461.425781 0.828125)"/>
      <use xlink:href="#DejaVuSans-75" transform="translate(522.607422 0.828125)"/>
      <use xlink:href="#DejaVuSans-74" transform="translate(585.986328 0.828125)"/>
      <use xlink:href="#DejaVuSans-70" transform="translate(625.195312 0.828125)"/>
      <use xlink:href="#DejaVuSans-75" transform="translate(688.671875 0.828125)"/>
      <use xlink:href="#DejaVuSans-74" transform="translate(752.050781 0.828125)"/>
      <use xlink:href="#DejaVuSans-20" transform="translate(791.259766 0.828125)"/>
      <use xlink:href="#DejaVuSans-302" transform="translate(885.419922 12.015625)"/>
      <use xlink:href="#DejaVuSans-Oblique-78" transform="translate(823.046875 0.828125)"/>
      <use xlink:href="#DejaVuSans-28" transform="translate(882.226562 0.828125)"/>
      <use xlink:href="#DejaVuSans-Oblique-74" transform="translate(921.240234 0.828125)"/>
      <use xlink:href="#DejaVuSans-29" transform="translate(960.449219 0.828125)"/>
     </g>
    </g>
   </g>
  </g>
  <g id="text_21">
   <!-- Spike train, input $x(t)$ and decoded output signal $\hat{x}(t)$ on 0 to 2 seconds -->
   <g transform="translate(7.2 18.24) scale(0.12 -0.12)">
    <defs>
     <path id="DejaVuSans-72" d="M 2631 2963 
Q 2534 3019 2420 3045 
Q 2306 3072 2169 3072 
Q 1681 3072 1420 2755 
Q 1159 2438 1159 1844 
L 1159 0 
L 581 0 
L 581 3500 
L 1159 3500 
L 1159 2956 
Q 1341 3275 1631 3429 
Q 1922 3584 2338 3584 
Q 2397 3584 2469 3576 
Q 2541 3569 2628 3553 
L 2631 2963 
z
" transform="scale(0.015625)"/>
     <path id="DejaVuSans-2c" d="M 750 794 
L 1409 794 
L 1409 256 
L 897 -744 
L 494 -744 
L 750 256 
L 750 794 
z
" transform="scale(0.015625)"/>
     <path id="DejaVuSans-6c" d="M 603 4863 
L 1178 4863 
L 1178 0 
L 603 0 
L 603 4863 
z
" transform="scale(0.015625)"/>
    </defs>
    <use xlink:href="#DejaVuSans-53" transform="translate(0 0.828125)"/>
    <use xlink:href="#DejaVuSans-70" transform="translate(63.476562 0.828125)"/>
    <use xlink:href="#DejaVuSans-69" transform="translate(126.953125 0.828125)"/>
    <use xlink:href="#DejaVuSans-6b" transform="translate(154.736328 0.828125)"/>
    <use xlink:href="#DejaVuSans-65" transform="translate(212.646484 0.828125)"/>
    <use xlink:href="#DejaVuSans-20" transform="translate(274.169922 0.828125)"/>
    <use xlink:href="#DejaVuSans-74" transform="translate(305.957031 0.828125)"/>
    <use xlink:href="#DejaVuSans-72" transform="translate(345.166016 0.828125)"/>
    <use xlink:href="#DejaVuSans-61" transform="translate(386.279297 0.828125)"/>
    <use xlink:href="#DejaVuSans-69" transform="translate(447.558594 0.828125)"/>
    <use xlink:href="#DejaVuSans-6e" transform="translate(475.341797 0.828125)"/>
    <use xlink:href="#DejaVuSans-2c" transform="translate(538.720703 0.828125)"/>
    <use xlink:href="#DejaVuSans-20" transform="translate(570.507812 0.828125)"/>
    <use xlink:href="#DejaVuSans-69" transform="translate(602.294922 0.828125)"/>
    <use xlink:href="#DejaVuSans-6e" transform="translate(630.078125 0.828125)"/>
    <use xlink:href="#DejaVuSans-70" transform="translate(693.457031 0.828125)"/>
    <use xlink:href="#DejaVuSans-75" transform="translate(756.933594 0.828125)"/>
    <use xlink:href="#DejaVuSans-74" transform="translate(820.3125 0.828125)"/>
    <use xlink:href="#DejaVuSans-20" transform="translate(859.521484 0.828125)"/>
    <use xlink:href="#DejaVuSans-Oblique-78" transform="translate(891.308594 0.828125)"/>
    <use xlink:href="#DejaVuSans-28" transform="translate(950.488281 0.828125)"/>
    <use xlink:href="#DejaVuSans-Oblique-74" transform="translate(989.501953 0.828125)"/>
    <use xlink:href="#DejaVuSans-29" transform="translate(1028.710938 0.828125)"/>
    <use xlink:href="#DejaVuSans-20" transform="translate(1067.724609 0.828125)"/>
    <use xlink:href="#DejaVuSans-61" transform="translate(1099.511719 0.828125)"/>
    <use xlink:href="#DejaVuSans-6e" transform="translate(1160.791016 0.828125)"/>
    <use xlink:href="#DejaVuSans-64" transform="translate(1224.169922 0.828125)"/>
    <use xlink:href="#DejaVuSans-20" transform="translate(1287.646484 0.828125)"/>
    <use xlink:href="#DejaVuSans-64" transform="translate(1319.433594 0.828125)"/>
    <use xlink:href="#DejaVuSans-65" transform="translate(1382.910156 0.828125)"/>
    <use xlink:href="#DejaVuSans-63" transform="translate(1444.433594 0.828125)"/>
    <use xlink:href="#DejaVuSans-6f" transform="translate(1499.414062 0.828125)"/>
    <use xlink:href="#DejaVuSans-64" transform="translate(1560.595703 0.828125)"/>
    <use xlink:href="#DejaVuSans-65" transform="translate(1624.072266 0.828125)"/>
    <use xlink:href="#DejaVuSans-64" transform="translate(1685.595703 0.828125)"/>
    <use xlink:href="#DejaVuSans-20" transform="translate(1749.072266 0.828125)"/>
    <use xlink:href="#DejaVuSans-6f" transform="translate(1780.859375 0.828125)"/>
    <use xlink:href="#DejaVuSans-75" transform="translate(1842.041016 0.828125)"/>
    <use xlink:href="#DejaVuSans-74" transform="translate(1905.419922 0.828125)"/>
    <use xlink:href="#DejaVuSans-70" transform="translate(1944.628906 0.828125)"/>
    <use xlink:href="#DejaVuSans-75" transform="translate(2008.105469 0.828125)"/>
    <use xlink:href="#DejaVuSans-74" transform="translate(2071.484375 0.828125)"/>
    <use xlink:href="#DejaVuSans-20" transform="translate(2110.693359 0.828125)"/>
    <use xlink:href="#DejaVuSans-73" transform="translate(2142.480469 0.828125)"/>
    <use xlink:href="#DejaVuSans-69" transform="translate(2194.580078 0.828125)"/>
    <use xlink:href="#DejaVuSans-67" transform="translate(2222.363281 0.828125)"/>
    <use xlink:href="#DejaVuSans-6e" transform="translate(2285.839844 0.828125)"/>
    <use xlink:href="#DejaVuSans-61" transform="translate(2349.21875 0.828125)"/>
    <use xlink:href="#DejaVuSans-6c" transform="translate(2410.498047 0.828125)"/>
    <use xlink:href="#DejaVuSans-20" transform="translate(2438.28125 0.828125)"/>
    <use xlink:href="#DejaVuSans-302" transform="translate(2532.441406 12.015625)"/>
    <use xlink:href="#DejaVuSans-Oblique-78" transform="translate(2470.068359 0.828125)"/>
    <use xlink:href="#DejaVuSans-28" transform="translate(2529.248047 0.828125)"/>
    <use xlink:href="#DejaVuSans-Oblique-74" transform="translate(2568.261719 0.828125)"/>
    <use xlink:href="#DejaVuSans-29" transform="translate(2607.470703 0.828125)"/>
    <use xlink:href="#DejaVuSans-20" transform="translate(2646.484375 0.828125)"/>
    <use xlink:href="#DejaVuSans-6f" transform="translate(2678.271484 0.828125)"/>
    <use xlink:href="#DejaVuSans-6e" transform="translate(2739.453125 0.828125)"/>
    <use xlink:href="#DejaVuSans-20" transform="translate(2802.832031 0.828125)"/>
    <use xlink:href="#DejaVuSans-30" transform="translate(2834.619141 0.828125)"/>
    <use xlink:href="#DejaVuSans-20" transform="translate(2898.242188 0.828125)"/>
    <use xlink:href="#DejaVuSans-74" transform="translate(2930.029297 0.828125)"/>
    <use xlink:href="#DejaVuSans-6f" transform="translate(2969.238281 0.828125)"/>
    <use xlink:href="#DejaVuSans-20" transform="translate(3030.419922 0.828125)"/>
    <use xlink:href="#DejaVuSans-32" transform="translate(3062.207031 0.828125)"/>
    <use xlink:href="#DejaVuSans-20" transform="translate(3125.830078 0.828125)"/>
    <use xlink:href="#DejaVuSans-73" transform="translate(3157.617188 0.828125)"/>
    <use xlink:href="#DejaVuSans-65" transform="translate(3209.716797 0.828125)"/>
    <use xlink:href="#DejaVuSans-63" transform="translate(3271.240234 0.828125)"/>
    <use xlink:href="#DejaVuSans-6f" transform="translate(3326.220703 0.828125)"/>
    <use xlink:href="#DejaVuSans-6e" transform="translate(3387.402344 0.828125)"/>
    <use xlink:href="#DejaVuSans-64" transform="translate(3450.78125 0.828125)"/>
    <use xlink:href="#DejaVuSans-73" transform="translate(3514.257812 0.828125)"/>
   </g>
  </g>
 </g>
 <defs>
  <clipPath id="pd55127628d">
   <rect x="59.22" y="36" width="334.8" height="217.44"/>
  </clipPath>
 </defs>
</svg>
