<?xml version="1.0" encoding="utf-8" standalone="no"?>
<!DOCTYPE svg PUBLIC "-//W3C//DTD SVG 1.1//EN"
  "http://www.w3.org/Graphics/SVG/1.1/DTD/svg11.dtd">
<svg xmlns:xlink="http://www.w3.org/1999/xlink" width="394.160938pt" height="290.99625pt" viewBox="0 0 394.160938 290.99625" xmlns="http://www.w3.org/2000/svg" version="1.1">
 <metadata>
  <rdf:RDF xmlns:dc="http://purl.org/dc/elements/1.1/" xmlns:cc="http://creativecommons.org/ns#" xmlns:rdf="http://www.w3.org/1999/02/22-rdf-syntax-ns#">
   <cc:Work>
    <dc:type rdf:resource="http://purl.org/dc/dcmitype/StillImage"/>
    <dc:date>2022-10-14T15:56:00.594331</dc:date>
    <dc:format>image/svg+xml</dc:format>
    <dc:creator>
     <cc:Agent>
      <dc:title>Matplotlib v3.6.0, https://matplotlib.org/</dc:title>
     </cc:Agent>
    </dc:creator>
   </cc:Work>
  </rdf:RDF>
 </metadata>
 <defs>
  <style type="text/css">*{stroke-linejoin: round; stroke-linecap: butt}</style>
 </defs>
 <g id="figure_1">
  <g id="patch_1">
   <path d="M 0 290.99625 
L 394.160938 290.99625 
L 394.160938 0 
L 0 0 
L 0 290.99625 
z
" style="fill: none"/>
  </g>
  <g id="axes_1">
   <g id="patch_2">
    <path d="M 52.160938 253.44 
L 386.960938 253.44 
L 386.960938 36 
L 52.160938 36 
z
" style="fill: #ffffff"/>
   </g>
   <g id="matplotlib.axis_1">
    <g id="xtick_1">
     <g id="line2d_1">
      <defs>
       <path id="m17f22a126f" d="M 0 0 
L 0 3.5 
" style="stroke: #000000; stroke-width: 0.8"/>
      </defs>
      <g>
       <use xlink:href="#m17f22a126f" x="67.379119" y="253.44" style="stroke: #000000; stroke-width: 0.8"/>
      </g>
     </g>
     <g id="text_1">
      <!-- 0.0 -->
      <g transform="translate(59.427557 268.038437) scale(0.1 -0.1)">
       <defs>
        <path id="DejaVuSans-30" d="M 2034 4250 
Q 1547 4250 1301 3770 
Q 1056 3291 1056 2328 
Q 1056 1369 1301 889 
Q 1547 409 2034 409 
Q 2525 409 2770 889 
Q 3016 1369 3016 2328 
Q 3016 3291 2770 3770 
Q 2525 4250 2034 4250 
z
M 2034 4750 
Q 2819 4750 3233 4129 
Q 3647 3509 3647 2328 
Q 3647 1150 3233 529 
Q 2819 -91 2034 -91 
Q 1250 -91 836 529 
Q 422 1150 422 2328 
Q 422 3509 836 4129 
Q 1250 4750 2034 4750 
z
" transform="scale(0.015625)"/>
        <path id="DejaVuSans-2e" d="M 684 794 
L 1344 794 
L 1344 0 
L 684 0 
L 684 794 
z
" transform="scale(0.015625)"/>
       </defs>
       <use xlink:href="#DejaVuSans-30"/>
       <use xlink:href="#DejaVuSans-2e" x="63.623047"/>
       <use xlink:href="#DejaVuSans-30" x="95.410156"/>
      </g>
     </g>
    </g>
    <g id="xtick_2">
     <g id="line2d_2">
      <g>
       <use xlink:href="#m17f22a126f" x="128.31278" y="253.44" style="stroke: #000000; stroke-width: 0.8"/>
      </g>
     </g>
     <g id="text_2">
      <!-- 0.2 -->
      <g transform="translate(120.361218 268.038437) scale(0.1 -0.1)">
       <defs>
        <path id="DejaVuSans-32" d="M 1228 531 
L 3431 531 
L 3431 0 
L 469 0 
L 469 531 
Q 828 903 1448 1529 
Q 2069 2156 2228 2338 
Q 2531 2678 2651 2914 
Q 2772 3150 2772 3378 
Q 2772 3750 2511 3984 
Q 2250 4219 1831 4219 
Q 1534 4219 1204 4116 
Q 875 4013 500 3803 
L 500 4441 
Q 881 4594 1212 4672 
Q 1544 4750 1819 4750 
Q 2544 4750 2975 4387 
Q 3406 4025 3406 3419 
Q 3406 3131 3298 2873 
Q 3191 2616 2906 2266 
Q 2828 2175 2409 1742 
Q 1991 1309 1228 531 
z
" transform="scale(0.015625)"/>
       </defs>
       <use xlink:href="#DejaVuSans-30"/>
       <use xlink:href="#DejaVuSans-2e" x="63.623047"/>
       <use xlink:href="#DejaVuSans-32" x="95.410156"/>
      </g>
     </g>
    </g>
    <g id="xtick_3">
     <g id="line2d_3">
      <g>
       <use xlink:href="#m17f22a126f" x="189.246441" y="253.44" style="stroke: #000000; stroke-width: 0.8"/>
      </g>
     </g>
     <g id="text_3">
      <!-- 0.4 -->
      <g transform="translate(181.294879 268.038437) scale(0.1 -0.1)">
       <defs>
        <path id="DejaVuSans-34" d="M 2419 4116 
L 825 1625 
L 2419 1625 
L 2419 4116 
z
M 2253 4666 
L 3047 4666 
L 3047 1625 
L 3713 1625 
L 3713 1100 
L 3047 1100 
L 3047 0 
L 2419 0 
L 2419 1100 
L 313 1100 
L 313 1709 
L 2253 4666 
z
" transform="scale(0.015625)"/>
       </defs>
       <use xlink:href="#DejaVuSans-30"/>
       <use xlink:href="#DejaVuSans-2e" x="63.623047"/>
       <use xlink:href="#DejaVuSans-34" x="95.410156"/>
      </g>
     </g>
    </g>
    <g id="xtick_4">
     <g id="line2d_4">
      <g>
       <use xlink:href="#m17f22a126f" x="250.180102" y="253.44" style="stroke: #000000; stroke-width: 0.8"/>
      </g>
     </g>
     <g id="text_4">
      <!-- 0.6 -->
      <g transform="translate(242.22854 268.038437) scale(0.1 -0.1)">
       <defs>
        <path id="DejaVuSans-36" d="M 2113 2584 
Q 1688 2584 1439 2293 
Q 1191 2003 1191 1497 
Q 1191 994 1439 701 
Q 1688 409 2113 409 
Q 2538 409 2786 701 
Q 3034 994 3034 1497 
Q 3034 2003 2786 2293 
Q 2538 2584 2113 2584 
z
M 3366 4563 
L 3366 3988 
Q 3128 4100 2886 4159 
Q 2644 4219 2406 4219 
Q 1781 4219 1451 3797 
Q 1122 3375 1075 2522 
Q 1259 2794 1537 2939 
Q 1816 3084 2150 3084 
Q 2853 3084 3261 2657 
Q 3669 2231 3669 1497 
Q 3669 778 3244 343 
Q 2819 -91 2113 -91 
Q 1303 -91 875 529 
Q 447 1150 447 2328 
Q 447 3434 972 4092 
Q 1497 4750 2381 4750 
Q 2619 4750 2861 4703 
Q 3103 4656 3366 4563 
z
" transform="scale(0.015625)"/>
       </defs>
       <use xlink:href="#DejaVuSans-30"/>
       <use xlink:href="#DejaVuSans-2e" x="63.623047"/>
       <use xlink:href="#DejaVuSans-36" x="95.410156"/>
      </g>
     </g>
    </g>
    <g id="xtick_5">
     <g id="line2d_5">
      <g>
       <use xlink:href="#m17f22a126f" x="311.113763" y="253.44" style="stroke: #000000; stroke-width: 0.8"/>
      </g>
     </g>
     <g id="text_5">
      <!-- 0.8 -->
      <g transform="translate(303.162201 268.038437) scale(0.1 -0.1)">
       <defs>
        <path id="DejaVuSans-38" d="M 2034 2216 
Q 1584 2216 1326 1975 
Q 1069 1734 1069 1313 
Q 1069 891 1326 650 
Q 1584 409 2034 409 
Q 2484 409 2743 651 
Q 3003 894 3003 1313 
Q 3003 1734 2745 1975 
Q 2488 2216 2034 2216 
z
M 1403 2484 
Q 997 2584 770 2862 
Q 544 3141 544 3541 
Q 544 4100 942 4425 
Q 1341 4750 2034 4750 
Q 2731 4750 3128 4425 
Q 3525 4100 3525 3541 
Q 3525 3141 3298 2862 
Q 3072 2584 2669 2484 
Q 3125 2378 3379 2068 
Q 3634 1759 3634 1313 
Q 3634 634 3220 271 
Q 2806 -91 2034 -91 
Q 1263 -91 848 271 
Q 434 634 434 1313 
Q 434 1759 690 2068 
Q 947 2378 1403 2484 
z
M 1172 3481 
Q 1172 3119 1398 2916 
Q 1625 2713 2034 2713 
Q 2441 2713 2670 2916 
Q 2900 3119 2900 3481 
Q 2900 3844 2670 4047 
Q 2441 4250 2034 4250 
Q 1625 4250 1398 4047 
Q 1172 3844 1172 3481 
z
" transform="scale(0.015625)"/>
       </defs>
       <use xlink:href="#DejaVuSans-30"/>
       <use xlink:href="#DejaVuSans-2e" x="63.623047"/>
       <use xlink:href="#DejaVuSans-38" x="95.410156"/>
      </g>
     </g>
    </g>
    <g id="xtick_6">
     <g id="line2d_6">
      <g>
       <use xlink:href="#m17f22a126f" x="372.047424" y="253.44" style="stroke: #000000; stroke-width: 0.8"/>
      </g>
     </g>
     <g id="text_6">
      <!-- 1.0 -->
      <g transform="translate(364.095861 268.038437) scale(0.1 -0.1)">
       <defs>
        <path id="DejaVuSans-31" d="M 794 531 
L 1825 531 
L 1825 4091 
L 703 3866 
L 703 4441 
L 1819 4666 
L 2450 4666 
L 2450 531 
L 3481 531 
L 3481 0 
L 794 0 
L 794 531 
z
" transform="scale(0.015625)"/>
       </defs>
       <use xlink:href="#DejaVuSans-31"/>
       <use xlink:href="#DejaVuSans-2e" x="63.623047"/>
       <use xlink:href="#DejaVuSans-30" x="95.410156"/>
      </g>
     </g>
    </g>
    <g id="text_7">
     <!-- $t$ sec. -->
     <g transform="translate(205.960938 281.716562) scale(0.1 -0.1)">
      <defs>
       <path id="DejaVuSans-Oblique-74" d="M 2706 3500 
L 2619 3053 
L 1472 3053 
L 1100 1153 
Q 1081 1047 1072 975 
Q 1063 903 1063 863 
Q 1063 663 1183 572 
Q 1303 481 1569 481 
L 2150 481 
L 2053 0 
L 1503 0 
Q 991 0 739 200 
Q 488 400 488 806 
Q 488 878 497 964 
Q 506 1050 525 1153 
L 897 3053 
L 409 3053 
L 500 3500 
L 978 3500 
L 1172 4494 
L 1747 4494 
L 1556 3500 
L 2706 3500 
z
" transform="scale(0.015625)"/>
       <path id="DejaVuSans-20" transform="scale(0.015625)"/>
       <path id="DejaVuSans-73" d="M 2834 3397 
L 2834 2853 
Q 2591 2978 2328 3040 
Q 2066 3103 1784 3103 
Q 1356 3103 1142 2972 
Q 928 2841 928 2578 
Q 928 2378 1081 2264 
Q 1234 2150 1697 2047 
L 1894 2003 
Q 2506 1872 2764 1633 
Q 3022 1394 3022 966 
Q 3022 478 2636 193 
Q 2250 -91 1575 -91 
Q 1294 -91 989 -36 
Q 684 19 347 128 
L 347 722 
Q 666 556 975 473 
Q 1284 391 1588 391 
Q 1994 391 2212 530 
Q 2431 669 2431 922 
Q 2431 1156 2273 1281 
Q 2116 1406 1581 1522 
L 1381 1569 
Q 847 1681 609 1914 
Q 372 2147 372 2553 
Q 372 3047 722 3315 
Q 1072 3584 1716 3584 
Q 2034 3584 2315 3537 
Q 2597 3491 2834 3397 
z
" transform="scale(0.015625)"/>
       <path id="DejaVuSans-65" d="M 3597 1894 
L 3597 1613 
L 953 1613 
Q 991 1019 1311 708 
Q 1631 397 2203 397 
Q 2534 397 2845 478 
Q 3156 559 3463 722 
L 3463 178 
Q 3153 47 2828 -22 
Q 2503 -91 2169 -91 
Q 1331 -91 842 396 
Q 353 884 353 1716 
Q 353 2575 817 3079 
Q 1281 3584 2069 3584 
Q 2775 3584 3186 3129 
Q 3597 2675 3597 1894 
z
M 3022 2063 
Q 3016 2534 2758 2815 
Q 2500 3097 2075 3097 
Q 1594 3097 1305 2825 
Q 1016 2553 972 2059 
L 3022 2063 
z
" transform="scale(0.015625)"/>
       <path id="DejaVuSans-63" d="M 3122 3366 
L 3122 2828 
Q 2878 2963 2633 3030 
Q 2388 3097 2138 3097 
Q 1578 3097 1268 2742 
Q 959 2388 959 1747 
Q 959 1106 1268 751 
Q 1578 397 2138 397 
Q 2388 397 2633 464 
Q 2878 531 3122 666 
L 3122 134 
Q 2881 22 2623 -34 
Q 2366 -91 2075 -91 
Q 1284 -91 818 406 
Q 353 903 353 1747 
Q 353 2603 823 3093 
Q 1294 3584 2113 3584 
Q 2378 3584 2631 3529 
Q 2884 3475 3122 3366 
z
" transform="scale(0.015625)"/>
      </defs>
      <use xlink:href="#DejaVuSans-Oblique-74" transform="translate(0 0.78125)"/>
      <use xlink:href="#DejaVuSans-20" transform="translate(39.208984 0.78125)"/>
      <use xlink:href="#DejaVuSans-73" transform="translate(70.996094 0.78125)"/>
      <use xlink:href="#DejaVuSans-65" transform="translate(123.095703 0.78125)"/>
      <use xlink:href="#DejaVuSans-63" transform="translate(184.619141 0.78125)"/>
      <use xlink:href="#DejaVuSans-2e" transform="translate(239.599609 0.78125)"/>
     </g>
    </g>
   </g>
   <g id="matplotlib.axis_2">
    <g id="ytick_1">
     <g id="line2d_7">
      <defs>
       <path id="m629d1bad11" d="M 0 0 
L -3.5 0 
" style="stroke: #000000; stroke-width: 0.8"/>
      </defs>
      <g>
       <use xlink:href="#m629d1bad11" x="52.160938" y="238.087691" style="stroke: #000000; stroke-width: 0.8"/>
      </g>
     </g>
     <g id="text_8">
      <!-- −1.0 -->
      <g transform="translate(20.878125 241.88691) scale(0.1 -0.1)">
       <defs>
        <path id="DejaVuSans-2212" d="M 678 2272 
L 4684 2272 
L 4684 1741 
L 678 1741 
L 678 2272 
z
" transform="scale(0.015625)"/>
       </defs>
       <use xlink:href="#DejaVuSans-2212"/>
       <use xlink:href="#DejaVuSans-31" x="83.789062"/>
       <use xlink:href="#DejaVuSans-2e" x="147.412109"/>
       <use xlink:href="#DejaVuSans-30" x="179.199219"/>
      </g>
     </g>
    </g>
    <g id="ytick_2">
     <g id="line2d_8">
      <g>
       <use xlink:href="#m629d1bad11" x="52.160938" y="199.817941" style="stroke: #000000; stroke-width: 0.8"/>
      </g>
     </g>
     <g id="text_9">
      <!-- −0.5 -->
      <g transform="translate(20.878125 203.61716) scale(0.1 -0.1)">
       <defs>
        <path id="DejaVuSans-35" d="M 691 4666 
L 3169 4666 
L 3169 4134 
L 1269 4134 
L 1269 2991 
Q 1406 3038 1543 3061 
Q 1681 3084 1819 3084 
Q 2600 3084 3056 2656 
Q 3513 2228 3513 1497 
Q 3513 744 3044 326 
Q 2575 -91 1722 -91 
Q 1428 -91 1123 -41 
Q 819 9 494 109 
L 494 744 
Q 775 591 1075 516 
Q 1375 441 1709 441 
Q 2250 441 2565 725 
Q 2881 1009 2881 1497 
Q 2881 1984 2565 2268 
Q 2250 2553 1709 2553 
Q 1456 2553 1204 2497 
Q 953 2441 691 2322 
L 691 4666 
z
" transform="scale(0.015625)"/>
       </defs>
       <use xlink:href="#DejaVuSans-2212"/>
       <use xlink:href="#DejaVuSans-30" x="83.789062"/>
       <use xlink:href="#DejaVuSans-2e" x="147.412109"/>
       <use xlink:href="#DejaVuSans-35" x="179.199219"/>
      </g>
     </g>
    </g>
    <g id="ytick_3">
     <g id="line2d_9">
      <g>
       <use xlink:href="#m629d1bad11" x="52.160938" y="161.548191" style="stroke: #000000; stroke-width: 0.8"/>
      </g>
     </g>
     <g id="text_10">
      <!-- 0.0 -->
      <g transform="translate(29.257812 165.34741) scale(0.1 -0.1)">
       <use xlink:href="#DejaVuSans-30"/>
       <use xlink:href="#DejaVuSans-2e" x="63.623047"/>
       <use xlink:href="#DejaVuSans-30" x="95.410156"/>
      </g>
     </g>
    </g>
    <g id="ytick_4">
     <g id="line2d_10">
      <g>
       <use xlink:href="#m629d1bad11" x="52.160938" y="123.278441" style="stroke: #000000; stroke-width: 0.8"/>
      </g>
     </g>
     <g id="text_11">
      <!-- 0.5 -->
      <g transform="translate(29.257812 127.07766) scale(0.1 -0.1)">
       <use xlink:href="#DejaVuSans-30"/>
       <use xlink:href="#DejaVuSans-2e" x="63.623047"/>
       <use xlink:href="#DejaVuSans-35" x="95.410156"/>
      </g>
     </g>
    </g>
    <g id="ytick_5">
     <g id="line2d_11">
      <g>
       <use xlink:href="#m629d1bad11" x="52.160938" y="85.008691" style="stroke: #000000; stroke-width: 0.8"/>
      </g>
     </g>
     <g id="text_12">
      <!-- 1.0 -->
      <g transform="translate(29.257812 88.80791) scale(0.1 -0.1)">
       <use xlink:href="#DejaVuSans-31"/>
       <use xlink:href="#DejaVuSans-2e" x="63.623047"/>
       <use xlink:href="#DejaVuSans-30" x="95.410156"/>
      </g>
     </g>
    </g>
    <g id="ytick_6">
     <g id="line2d_12">
      <g>
       <use xlink:href="#m629d1bad11" x="52.160938" y="46.738941" style="stroke: #000000; stroke-width: 0.8"/>
      </g>
     </g>
     <g id="text_13">
      <!-- 1.5 -->
      <g transform="translate(29.257812 50.53816) scale(0.1 -0.1)">
       <use xlink:href="#DejaVuSans-31"/>
       <use xlink:href="#DejaVuSans-2e" x="63.623047"/>
       <use xlink:href="#DejaVuSans-35" x="95.410156"/>
      </g>
     </g>
    </g>
    <g id="text_14">
     <!-- $x(t)$ -->
     <g transform="translate(14.798438 153.57) rotate(-90) scale(0.1 -0.1)">
      <defs>
       <path id="DejaVuSans-Oblique-78" d="M 3841 3500 
L 2234 1784 
L 3219 0 
L 2559 0 
L 1819 1388 
L 531 0 
L -166 0 
L 1556 1844 
L 641 3500 
L 1300 3500 
L 1972 2234 
L 3144 3500 
L 3841 3500 
z
" transform="scale(0.015625)"/>
       <path id="DejaVuSans-28" d="M 1984 4856 
Q 1566 4138 1362 3434 
Q 1159 2731 1159 2009 
Q 1159 1288 1364 580 
Q 1569 -128 1984 -844 
L 1484 -844 
Q 1016 -109 783 600 
Q 550 1309 550 2009 
Q 550 2706 781 3412 
Q 1013 4119 1484 4856 
L 1984 4856 
z
" transform="scale(0.015625)"/>
       <path id="DejaVuSans-29" d="M 513 4856 
L 1013 4856 
Q 1481 4119 1714 3412 
Q 1947 2706 1947 2009 
Q 1947 1309 1714 600 
Q 1481 -109 1013 -844 
L 513 -844 
Q 928 -128 1133 580 
Q 1338 1288 1338 2009 
Q 1338 2731 1133 3434 
Q 928 4138 513 4856 
z
" transform="scale(0.015625)"/>
      </defs>
      <use xlink:href="#DejaVuSans-Oblique-78" transform="translate(0 0.125)"/>
      <use xlink:href="#DejaVuSans-28" transform="translate(59.179688 0.125)"/>
      <use xlink:href="#DejaVuSans-Oblique-74" transform="translate(98.193359 0.125)"/>
      <use xlink:href="#DejaVuSans-29" transform="translate(137.402344 0.125)"/>
     </g>
    </g>
   </g>
   <g id="line2d_13">
    <path d="M 67.379119 138.236879 
L 71.035139 101.431686 
L 71.949144 95.522817 
L 72.55848 92.998921 
L 72.863149 92.203683 
L 73.167817 91.730759 
L 73.472485 91.584213 
L 73.777154 91.764573 
L 74.081822 92.268818 
L 74.691159 94.219376 
L 75.300495 97.343225 
L 76.2145 103.905835 
L 77.433173 115.109711 
L 80.175188 141.470491 
L 81.089193 148.140012 
L 82.003198 153.066383 
L 82.612535 155.356067 
L 83.221871 156.908337 
L 83.831208 157.826561 
L 84.440544 158.253318 
L 85.049881 158.360237 
L 86.268554 158.373667 
L 86.877891 158.656816 
L 87.487227 159.347491 
L 88.096564 160.574573 
L 88.705901 162.424597 
L 89.315237 164.935169 
L 90.229242 169.892782 
L 91.447915 178.246413 
L 93.885262 195.723868 
L 94.799267 200.372618 
L 95.408603 202.385227 
L 95.713272 203.017777 
L 96.01794 203.387408 
L 96.322608 203.488305 
L 96.627277 203.318457 
L 96.931945 202.87975 
L 97.541281 201.223011 
L 98.150618 198.611296 
L 99.064623 193.250116 
L 102.111306 172.725487 
L 102.720643 170.152164 
L 103.329979 168.628729 
L 103.634648 168.305881 
L 103.939316 168.291358 
L 104.243984 168.591286 
L 104.548652 169.20702 
L 105.157989 171.366902 
L 105.767326 174.684043 
L 106.681331 181.45369 
L 108.50934 198.064886 
L 109.423345 205.585161 
L 110.032682 209.474182 
L 110.642019 212.077959 
L 110.946687 212.809531 
L 111.251355 213.121721 
L 111.556023 212.990949 
L 111.860692 212.398751 
L 112.16536 211.332107 
L 112.774697 207.752066 
L 113.384033 202.263368 
L 113.99337 194.974157 
L 114.907375 181.127184 
L 116.430716 153.022358 
L 118.258726 119.222743 
L 119.172731 105.819542 
L 119.782068 99.060237 
L 120.391404 94.363075 
L 120.696073 92.846223 
L 121.000741 91.90286 
L 121.305409 91.539314 
L 121.610078 91.755488 
L 121.914746 92.544873 
L 122.219414 93.894657 
L 122.828751 98.19377 
L 123.438087 104.432882 
L 124.352092 116.75049 
L 125.875434 141.87724 
L 127.398775 166.839755 
L 128.31278 179.109257 
L 129.226785 188.105304 
L 129.836122 191.988149 
L 130.445458 194.09791 
L 130.750127 194.493176 
L 131.054795 194.461907 
L 131.359463 194.020074 
L 131.664132 193.188111 
L 132.273468 190.455461 
L 132.882805 186.500741 
L 133.79681 178.894621 
L 136.843493 151.120564 
L 137.757498 145.209075 
L 138.366834 142.307322 
L 138.976171 140.246562 
L 139.585508 138.97154 
L 140.194844 138.379084 
L 140.499512 138.296093 
L 141.108849 138.456363 
L 142.022854 139.187099 
L 143.241527 140.190965 
L 143.850864 140.386679 
L 144.4602 140.25169 
L 145.069537 139.746422 
L 145.678874 138.880234 
L 146.592879 137.043838 
L 148.420888 133.042292 
L 149.030225 132.24521 
L 149.334893 132.052886 
L 149.639562 132.027735 
L 149.94423 132.190266 
L 150.248898 132.559098 
L 150.858235 133.9785 
L 151.467571 136.383842 
L 152.076908 139.822793 
L 152.990913 146.884404 
L 153.904918 155.962052 
L 155.428259 173.950409 
L 157.256269 195.315486 
L 158.170274 203.684926 
L 158.779611 207.831388 
L 159.388947 210.613484 
L 159.693616 211.451787 
L 159.998284 211.907414 
L 160.302952 211.974837 
L 160.607621 211.652705 
L 160.912289 210.94386 
L 161.521625 208.398068 
L 162.130962 204.441115 
L 163.044967 196.229361 
L 164.26364 182.249078 
L 167.005655 148.971909 
L 167.91966 140.431974 
L 168.833665 134.182752 
L 169.443001 131.417536 
L 170.052338 129.786729 
L 170.357006 129.385132 
L 170.661675 129.247768 
L 170.966343 129.362918 
L 171.271011 129.716809 
L 171.880348 131.077274 
L 172.489684 133.189759 
L 173.403689 137.436133 
L 174.927031 146.16045 
L 178.583051 167.691729 
L 181.325065 183.702205 
L 184.981085 206.209722 
L 185.89509 210.152953 
L 186.504426 211.845474 
L 186.809095 212.34661 
L 187.113763 212.591227 
L 187.418431 212.561358 
L 187.7231 212.240958 
L 188.027768 211.616235 
L 188.637105 209.411835 
L 189.246441 205.89439 
L 189.855778 201.063457 
L 190.769783 191.497737 
L 191.988456 175.19184 
L 195.339807 126.058668 
L 196.253812 116.757952 
L 196.863149 112.550606 
L 197.472485 110.182812 
L 197.777154 109.733857 
L 198.081822 109.789793 
L 198.38649 110.355823 
L 198.691159 111.432239 
L 199.300495 115.09278 
L 199.909832 120.676167 
L 200.823837 132.267905 
L 202.04251 152.345239 
L 205.69853 217.917918 
L 206.612535 229.614411 
L 207.221871 235.53321 
L 207.831208 239.835775 
L 208.440544 242.497879 
L 208.745213 243.223044 
L 209.049881 243.556364 
L 209.354549 243.51093 
L 209.659218 243.102712 
L 209.963886 242.350233 
L 210.573223 239.897256 
L 211.182559 236.337701 
L 212.096564 229.369523 
L 213.315237 218.114342 
L 217.580594 177.095981 
L 220.627277 151.501201 
L 223.67396 127.07015 
L 224.892633 118.946941 
L 225.806638 114.288316 
L 226.415974 112.087959 
L 227.025311 110.729 
L 227.329979 110.3891 
L 227.634648 110.284662 
L 227.939316 110.41981 
L 228.243984 110.796339 
L 228.853321 112.268389 
L 229.462657 114.665009 
L 230.071994 117.909504 
L 230.985999 124.102972 
L 232.50934 136.568422 
L 234.33735 151.215658 
L 235.251355 156.898382 
L 235.860692 159.748347 
L 236.470028 161.75555 
L 237.079365 162.896681 
L 237.384033 163.149393 
L 237.688702 163.200391 
L 237.99337 163.061255 
L 238.602707 162.273714 
L 239.212043 160.935838 
L 240.430716 157.381 
L 241.344721 154.821434 
L 241.954058 153.59701 
L 242.258726 153.210935 
L 242.563395 153.008363 
L 242.868063 153.011233 
L 243.172731 153.238991 
L 243.477399 153.708286 
L 244.086736 155.422569 
L 244.696073 158.222343 
L 245.305409 162.118558 
L 246.219414 169.896532 
L 247.438087 183.173316 
L 250.789439 222.247963 
L 251.703444 229.24399 
L 252.31278 232.244458 
L 252.617449 233.187535 
L 252.922117 233.741299 
L 253.226785 233.896903 
L 253.531453 233.649245 
L 253.836122 232.997007 
L 254.445458 230.492295 
L 255.054795 226.446246 
L 255.664132 220.977549 
L 256.578137 210.485079 
L 257.79681 193.393247 
L 261.148161 143.962074 
L 262.062166 133.46499 
L 262.976171 125.216644 
L 263.585508 121.069323 
L 264.194844 118.019896 
L 264.804181 116.045196 
L 265.108849 115.445926 
L 265.413517 115.094479 
L 265.718186 114.981195 
L 266.022854 115.095469 
L 266.327522 115.425951 
L 266.936859 116.687585 
L 267.546195 118.667634 
L 268.4602 122.76952 
L 269.374205 127.95367 
L 270.592879 136.089685 
L 272.420888 149.950696 
L 276.990913 185.868095 
L 278.209586 193.497241 
L 279.123591 197.950188 
L 279.732928 200.172973 
L 280.342264 201.727635 
L 280.951601 202.571346 
L 281.256269 202.718825 
L 281.560938 202.682159 
L 281.865606 202.4624 
L 282.474942 201.486121 
L 283.084279 199.831995 
L 283.693616 197.569019 
L 284.607621 193.246219 
L 286.130962 184.633773 
L 287.654304 176.278082 
L 288.568309 172.338015 
L 289.177645 170.405581 
L 289.786982 169.120713 
L 290.396318 168.524191 
L 290.700987 168.486529 
L 291.005655 168.619014 
L 291.310323 168.91586 
L 291.91966 169.967257 
L 292.528996 171.546517 
L 293.443001 174.614208 
L 295.271011 181.098956 
L 295.880348 182.636147 
L 296.489684 183.52706 
L 296.794353 183.672588 
L 297.099021 183.590281 
L 297.403689 183.261446 
L 297.708358 182.669446 
L 298.317694 180.640932 
L 298.927031 177.42019 
L 299.536367 172.966467 
L 300.450372 164.000018 
L 301.364377 152.503438 
L 302.583051 134.039721 
L 306.543738 69.795246 
L 307.457743 59.002436 
L 308.371748 51.208082 
L 308.981085 47.886574 
L 309.590422 46.149324 
L 309.89509 45.883636 
L 310.199758 46.019106 
L 310.504426 46.551757 
L 310.809095 47.474999 
L 311.418431 50.454432 
L 312.027768 54.856576 
L 312.941773 63.825325 
L 313.855778 75.120076 
L 315.379119 97.302536 
L 318.425802 143.002354 
L 319.644476 158.176945 
L 320.863149 170.456657 
L 321.777154 177.673982 
L 322.691159 183.281726 
L 323.605164 187.482393 
L 324.519168 190.549805 
L 325.433173 192.792141 
L 326.651847 195.018798 
L 330.612535 201.162643 
L 331.526539 202.320498 
L 332.135876 202.831023 
L 332.745213 203.025516 
L 333.049881 202.973798 
L 333.354549 202.806425 
L 333.963886 202.077122 
L 334.573223 200.747806 
L 335.182559 198.741387 
L 335.791896 195.999047 
L 336.705901 190.435208 
L 337.619906 183.140033 
L 338.838579 171.010499 
L 340.666589 149.473941 
L 342.799267 124.70085 
L 343.713272 116.101523 
L 344.627277 109.537003 
L 345.236613 106.494717 
L 345.84595 104.610221 
L 346.150618 104.11381 
L 346.455286 103.915532 
L 346.759955 104.012705 
L 347.064623 104.399971 
L 347.369291 105.069349 
L 347.978628 107.209953 
L 348.587965 110.322191 
L 349.501969 116.485817 
L 350.720643 126.541045 
L 353.157989 147.052309 
L 354.071994 153.11081 
L 354.985999 157.69793 
L 355.595336 159.877629 
L 356.204672 161.369309 
L 356.814009 162.226621 
L 357.423345 162.534471 
L 358.032682 162.402324 
L 358.642019 161.956137 
L 361.079365 159.61888 
L 361.688702 159.435507 
L 362.298038 159.542199 
L 362.907375 159.945916 
L 363.516711 160.616942 
L 364.735385 162.46864 
L 365.954058 164.231547 
L 366.563395 164.724342 
L 366.868063 164.807701 
L 367.172731 164.758264 
L 367.477399 164.559148 
L 367.782068 164.194793 
L 368.391404 162.916519 
L 369.000741 160.836214 
L 369.610078 157.904403 
L 370.524082 151.909322 
L 371.438087 144.171374 
L 371.742756 141.268946 
L 371.742756 141.268946 
" clip-path="url(#pcdc10b285e)" style="fill: none; stroke: #1f77b4; stroke-width: 1.5; stroke-linecap: square"/>
   </g>
   <g id="patch_3">
    <path d="M 52.160938 253.44 
L 52.160938 36 
" style="fill: none; stroke: #000000; stroke-width: 0.8; stroke-linejoin: miter; stroke-linecap: square"/>
   </g>
   <g id="patch_4">
    <path d="M 386.960938 253.44 
L 386.960938 36 
" style="fill: none; stroke: #000000; stroke-width: 0.8; stroke-linejoin: miter; stroke-linecap: square"/>
   </g>
   <g id="patch_5">
    <path d="M 52.160938 253.44 
L 386.960938 253.44 
" style="fill: none; stroke: #000000; stroke-width: 0.8; stroke-linejoin: miter; stroke-linecap: square"/>
   </g>
   <g id="patch_6">
    <path d="M 52.160938 36 
L 386.960938 36 
" style="fill: none; stroke: #000000; stroke-width: 0.8; stroke-linejoin: miter; stroke-linecap: square"/>
   </g>
  </g>
  <g id="text_15">
   <!-- $x(t)$ signal with 20 Hz limit -->
   <g transform="translate(135.020938 16.32) scale(0.12 -0.12)">
    <defs>
     <path id="DejaVuSans-69" d="M 603 3500 
L 1178 3500 
L 1178 0 
L 603 0 
L 603 3500 
z
M 603 4863 
L 1178 4863 
L 1178 4134 
L 603 4134 
L 603 4863 
z
" transform="scale(0.015625)"/>
     <path id="DejaVuSans-67" d="M 2906 1791 
Q 2906 2416 2648 2759 
Q 2391 3103 1925 3103 
Q 1463 3103 1205 2759 
Q 947 2416 947 1791 
Q 947 1169 1205 825 
Q 1463 481 1925 481 
Q 2391 481 2648 825 
Q 2906 1169 2906 1791 
z
M 3481 434 
Q 3481 -459 3084 -895 
Q 2688 -1331 1869 -1331 
Q 1566 -1331 1297 -1286 
Q 1028 -1241 775 -1147 
L 775 -588 
Q 1028 -725 1275 -790 
Q 1522 -856 1778 -856 
Q 2344 -856 2625 -561 
Q 2906 -266 2906 331 
L 2906 616 
Q 2728 306 2450 153 
Q 2172 0 1784 0 
Q 1141 0 747 490 
Q 353 981 353 1791 
Q 353 2603 747 3093 
Q 1141 3584 1784 3584 
Q 2172 3584 2450 3431 
Q 2728 3278 2906 2969 
L 2906 3500 
L 3481 3500 
L 3481 434 
z
" transform="scale(0.015625)"/>
     <path id="DejaVuSans-6e" d="M 3513 2113 
L 3513 0 
L 2938 0 
L 2938 2094 
Q 2938 2591 2744 2837 
Q 2550 3084 2163 3084 
Q 1697 3084 1428 2787 
Q 1159 2491 1159 1978 
L 1159 0 
L 581 0 
L 581 3500 
L 1159 3500 
L 1159 2956 
Q 1366 3272 1645 3428 
Q 1925 3584 2291 3584 
Q 2894 3584 3203 3211 
Q 3513 2838 3513 2113 
z
" transform="scale(0.015625)"/>
     <path id="DejaVuSans-61" d="M 2194 1759 
Q 1497 1759 1228 1600 
Q 959 1441 959 1056 
Q 959 750 1161 570 
Q 1363 391 1709 391 
Q 2188 391 2477 730 
Q 2766 1069 2766 1631 
L 2766 1759 
L 2194 1759 
z
M 3341 1997 
L 3341 0 
L 2766 0 
L 2766 531 
Q 2569 213 2275 61 
Q 1981 -91 1556 -91 
Q 1019 -91 701 211 
Q 384 513 384 1019 
Q 384 1609 779 1909 
Q 1175 2209 1959 2209 
L 2766 2209 
L 2766 2266 
Q 2766 2663 2505 2880 
Q 2244 3097 1772 3097 
Q 1472 3097 1187 3025 
Q 903 2953 641 2809 
L 641 3341 
Q 956 3463 1253 3523 
Q 1550 3584 1831 3584 
Q 2591 3584 2966 3190 
Q 3341 2797 3341 1997 
z
" transform="scale(0.015625)"/>
     <path id="DejaVuSans-6c" d="M 603 4863 
L 1178 4863 
L 1178 0 
L 603 0 
L 603 4863 
z
" transform="scale(0.015625)"/>
     <path id="DejaVuSans-77" d="M 269 3500 
L 844 3500 
L 1563 769 
L 2278 3500 
L 2956 3500 
L 3675 769 
L 4391 3500 
L 4966 3500 
L 4050 0 
L 3372 0 
L 2619 2869 
L 1863 0 
L 1184 0 
L 269 3500 
z
" transform="scale(0.015625)"/>
     <path id="DejaVuSans-74" d="M 1172 4494 
L 1172 3500 
L 2356 3500 
L 2356 3053 
L 1172 3053 
L 1172 1153 
Q 1172 725 1289 603 
Q 1406 481 1766 481 
L 2356 481 
L 2356 0 
L 1766 0 
Q 1100 0 847 248 
Q 594 497 594 1153 
L 594 3053 
L 172 3053 
L 172 3500 
L 594 3500 
L 594 4494 
L 1172 4494 
z
" transform="scale(0.015625)"/>
     <path id="DejaVuSans-68" d="M 3513 2113 
L 3513 0 
L 2938 0 
L 2938 2094 
Q 2938 2591 2744 2837 
Q 2550 3084 2163 3084 
Q 1697 3084 1428 2787 
Q 1159 2491 1159 1978 
L 1159 0 
L 581 0 
L 581 4863 
L 1159 4863 
L 1159 2956 
Q 1366 3272 1645 3428 
Q 1925 3584 2291 3584 
Q 2894 3584 3203 3211 
Q 3513 2838 3513 2113 
z
" transform="scale(0.015625)"/>
     <path id="DejaVuSans-48" d="M 628 4666 
L 1259 4666 
L 1259 2753 
L 3553 2753 
L 3553 4666 
L 4184 4666 
L 4184 0 
L 3553 0 
L 3553 2222 
L 1259 2222 
L 1259 0 
L 628 0 
L 628 4666 
z
" transform="scale(0.015625)"/>
     <path id="DejaVuSans-7a" d="M 353 3500 
L 3084 3500 
L 3084 2975 
L 922 459 
L 3084 459 
L 3084 0 
L 275 0 
L 275 525 
L 2438 3041 
L 353 3041 
L 353 3500 
z
" transform="scale(0.015625)"/>
     <path id="DejaVuSans-6d" d="M 3328 2828 
Q 3544 3216 3844 3400 
Q 4144 3584 4550 3584 
Q 5097 3584 5394 3201 
Q 5691 2819 5691 2113 
L 5691 0 
L 5113 0 
L 5113 2094 
Q 5113 2597 4934 2840 
Q 4756 3084 4391 3084 
Q 3944 3084 3684 2787 
Q 3425 2491 3425 1978 
L 3425 0 
L 2847 0 
L 2847 2094 
Q 2847 2600 2669 2842 
Q 2491 3084 2119 3084 
Q 1678 3084 1418 2786 
Q 1159 2488 1159 1978 
L 1159 0 
L 581 0 
L 581 3500 
L 1159 3500 
L 1159 2956 
Q 1356 3278 1631 3431 
Q 1906 3584 2284 3584 
Q 2666 3584 2933 3390 
Q 3200 3197 3328 2828 
z
" transform="scale(0.015625)"/>
    </defs>
    <use xlink:href="#DejaVuSans-Oblique-78" transform="translate(0 0.015625)"/>
    <use xlink:href="#DejaVuSans-28" transform="translate(59.179688 0.015625)"/>
    <use xlink:href="#DejaVuSans-Oblique-74" transform="translate(98.193359 0.015625)"/>
    <use xlink:href="#DejaVuSans-29" transform="translate(137.402344 0.015625)"/>
    <use xlink:href="#DejaVuSans-20" transform="translate(176.416016 0.015625)"/>
    <use xlink:href="#DejaVuSans-73" transform="translate(208.203125 0.015625)"/>
    <use xlink:href="#DejaVuSans-69" transform="translate(260.302734 0.015625)"/>
    <use xlink:href="#DejaVuSans-67" transform="translate(288.085938 0.015625)"/>
    <use xlink:href="#DejaVuSans-6e" transform="translate(351.5625 0.015625)"/>
    <use xlink:href="#DejaVuSans-61" transform="translate(414.941406 0.015625)"/>
    <use xlink:href="#DejaVuSans-6c" transform="translate(476.220703 0.015625)"/>
    <use xlink:href="#DejaVuSans-20" transform="translate(504.003906 0.015625)"/>
    <use xlink:href="#DejaVuSans-77" transform="translate(535.791016 0.015625)"/>
    <use xlink:href="#DejaVuSans-69" transform="translate(617.578125 0.015625)"/>
    <use xlink:href="#DejaVuSans-74" transform="translate(645.361328 0.015625)"/>
    <use xlink:href="#DejaVuSans-68" transform="translate(684.570312 0.015625)"/>
    <use xlink:href="#DejaVuSans-20" transform="translate(747.949219 0.015625)"/>
    <use xlink:href="#DejaVuSans-32" transform="translate(779.736328 0.015625)"/>
    <use xlink:href="#DejaVuSans-30" transform="translate(843.359375 0.015625)"/>
    <use xlink:href="#DejaVuSans-20" transform="translate(906.982422 0.015625)"/>
    <use xlink:href="#DejaVuSans-48" transform="translate(938.769531 0.015625)"/>
    <use xlink:href="#DejaVuSans-7a" transform="translate(1013.964844 0.015625)"/>
    <use xlink:href="#DejaVuSans-20" transform="translate(1066.455078 0.015625)"/>
    <use xlink:href="#DejaVuSans-6c" transform="translate(1098.242188 0.015625)"/>
    <use xlink:href="#DejaVuSans-69" transform="translate(1126.025391 0.015625)"/>
    <use xlink:href="#DejaVuSans-6d" transform="translate(1153.808594 0.015625)"/>
    <use xlink:href="#DejaVuSans-69" transform="translate(1251.220703 0.015625)"/>
    <use xlink:href="#DejaVuSans-74" transform="translate(1279.003906 0.015625)"/>
   </g>
  </g>
 </g>
 <defs>
  <clipPath id="pcdc10b285e">
   <rect x="52.160938" y="36" width="334.8" height="217.44"/>
  </clipPath>
 </defs>
</svg>
