<?xml version="1.0" encoding="utf-8" standalone="no"?>
<!DOCTYPE svg PUBLIC "-//W3C//DTD SVG 1.1//EN"
  "http://www.w3.org/Graphics/SVG/1.1/DTD/svg11.dtd">
<svg xmlns:xlink="http://www.w3.org/1999/xlink" width="621.36pt" height="290.99625pt" viewBox="0 0 621.36 290.99625" xmlns="http://www.w3.org/2000/svg" version="1.1">
 <metadata>
  <rdf:RDF xmlns:dc="http://purl.org/dc/elements/1.1/" xmlns:cc="http://creativecommons.org/ns#" xmlns:rdf="http://www.w3.org/1999/02/22-rdf-syntax-ns#">
   <cc:Work>
    <dc:type rdf:resource="http://purl.org/dc/dcmitype/StillImage"/>
    <dc:date>2022-10-16T21:52:39.779901</dc:date>
    <dc:format>image/svg+xml</dc:format>
    <dc:creator>
     <cc:Agent>
      <dc:title>Matplotlib v3.6.0, https://matplotlib.org/</dc:title>
     </cc:Agent>
    </dc:creator>
   </cc:Work>
  </rdf:RDF>
 </metadata>
 <defs>
  <style type="text/css">*{stroke-linejoin: round; stroke-linecap: butt}</style>
 </defs>
 <g id="figure_1">
  <g id="patch_1">
   <path d="M 0 290.99625 
L 621.36 290.99625 
L 621.36 0 
L 0 0 
L 0 290.99625 
z
" style="fill: none"/>
  </g>
  <g id="axes_1">
   <g id="patch_2">
    <path d="M 148.68 253.44 
L 483.48 253.44 
L 483.48 36 
L 148.68 36 
z
" style="fill: #ffffff"/>
   </g>
   <g id="matplotlib.axis_1">
    <g id="xtick_1">
     <g id="line2d_1">
      <defs>
       <path id="m2d151df229" d="M 0 0 
L 0 3.5 
" style="stroke: #000000; stroke-width: 0.8"/>
      </defs>
      <g>
       <use xlink:href="#m2d151df229" x="148.68" y="253.44" style="stroke: #000000; stroke-width: 0.8"/>
      </g>
     </g>
     <g id="text_1">
      <!-- 0.00 -->
      <g transform="translate(137.547187 268.038437) scale(0.1 -0.1)">
       <defs>
        <path id="DejaVuSans-30" d="M 2034 4250 
Q 1547 4250 1301 3770 
Q 1056 3291 1056 2328 
Q 1056 1369 1301 889 
Q 1547 409 2034 409 
Q 2525 409 2770 889 
Q 3016 1369 3016 2328 
Q 3016 3291 2770 3770 
Q 2525 4250 2034 4250 
z
M 2034 4750 
Q 2819 4750 3233 4129 
Q 3647 3509 3647 2328 
Q 3647 1150 3233 529 
Q 2819 -91 2034 -91 
Q 1250 -91 836 529 
Q 422 1150 422 2328 
Q 422 3509 836 4129 
Q 1250 4750 2034 4750 
z
" transform="scale(0.015625)"/>
        <path id="DejaVuSans-2e" d="M 684 794 
L 1344 794 
L 1344 0 
L 684 0 
L 684 794 
z
" transform="scale(0.015625)"/>
       </defs>
       <use xlink:href="#DejaVuSans-30"/>
       <use xlink:href="#DejaVuSans-2e" x="63.623047"/>
       <use xlink:href="#DejaVuSans-30" x="95.410156"/>
       <use xlink:href="#DejaVuSans-30" x="159.033203"/>
      </g>
     </g>
    </g>
    <g id="xtick_2">
     <g id="line2d_2">
      <g>
       <use xlink:href="#m2d151df229" x="190.53" y="253.44" style="stroke: #000000; stroke-width: 0.8"/>
      </g>
     </g>
     <g id="text_2">
      <!-- 0.25 -->
      <g transform="translate(179.397187 268.038437) scale(0.1 -0.1)">
       <defs>
        <path id="DejaVuSans-32" d="M 1228 531 
L 3431 531 
L 3431 0 
L 469 0 
L 469 531 
Q 828 903 1448 1529 
Q 2069 2156 2228 2338 
Q 2531 2678 2651 2914 
Q 2772 3150 2772 3378 
Q 2772 3750 2511 3984 
Q 2250 4219 1831 4219 
Q 1534 4219 1204 4116 
Q 875 4013 500 3803 
L 500 4441 
Q 881 4594 1212 4672 
Q 1544 4750 1819 4750 
Q 2544 4750 2975 4387 
Q 3406 4025 3406 3419 
Q 3406 3131 3298 2873 
Q 3191 2616 2906 2266 
Q 2828 2175 2409 1742 
Q 1991 1309 1228 531 
z
" transform="scale(0.015625)"/>
        <path id="DejaVuSans-35" d="M 691 4666 
L 3169 4666 
L 3169 4134 
L 1269 4134 
L 1269 2991 
Q 1406 3038 1543 3061 
Q 1681 3084 1819 3084 
Q 2600 3084 3056 2656 
Q 3513 2228 3513 1497 
Q 3513 744 3044 326 
Q 2575 -91 1722 -91 
Q 1428 -91 1123 -41 
Q 819 9 494 109 
L 494 744 
Q 775 591 1075 516 
Q 1375 441 1709 441 
Q 2250 441 2565 725 
Q 2881 1009 2881 1497 
Q 2881 1984 2565 2268 
Q 2250 2553 1709 2553 
Q 1456 2553 1204 2497 
Q 953 2441 691 2322 
L 691 4666 
z
" transform="scale(0.015625)"/>
       </defs>
       <use xlink:href="#DejaVuSans-30"/>
       <use xlink:href="#DejaVuSans-2e" x="63.623047"/>
       <use xlink:href="#DejaVuSans-32" x="95.410156"/>
       <use xlink:href="#DejaVuSans-35" x="159.033203"/>
      </g>
     </g>
    </g>
    <g id="xtick_3">
     <g id="line2d_3">
      <g>
       <use xlink:href="#m2d151df229" x="232.38" y="253.44" style="stroke: #000000; stroke-width: 0.8"/>
      </g>
     </g>
     <g id="text_3">
      <!-- 0.50 -->
      <g transform="translate(221.247187 268.038437) scale(0.1 -0.1)">
       <use xlink:href="#DejaVuSans-30"/>
       <use xlink:href="#DejaVuSans-2e" x="63.623047"/>
       <use xlink:href="#DejaVuSans-35" x="95.410156"/>
       <use xlink:href="#DejaVuSans-30" x="159.033203"/>
      </g>
     </g>
    </g>
    <g id="xtick_4">
     <g id="line2d_4">
      <g>
       <use xlink:href="#m2d151df229" x="274.23" y="253.44" style="stroke: #000000; stroke-width: 0.8"/>
      </g>
     </g>
     <g id="text_4">
      <!-- 0.75 -->
      <g transform="translate(263.097187 268.038437) scale(0.1 -0.1)">
       <defs>
        <path id="DejaVuSans-37" d="M 525 4666 
L 3525 4666 
L 3525 4397 
L 1831 0 
L 1172 0 
L 2766 4134 
L 525 4134 
L 525 4666 
z
" transform="scale(0.015625)"/>
       </defs>
       <use xlink:href="#DejaVuSans-30"/>
       <use xlink:href="#DejaVuSans-2e" x="63.623047"/>
       <use xlink:href="#DejaVuSans-37" x="95.410156"/>
       <use xlink:href="#DejaVuSans-35" x="159.033203"/>
      </g>
     </g>
    </g>
    <g id="xtick_5">
     <g id="line2d_5">
      <g>
       <use xlink:href="#m2d151df229" x="316.08" y="253.44" style="stroke: #000000; stroke-width: 0.8"/>
      </g>
     </g>
     <g id="text_5">
      <!-- 1.00 -->
      <g transform="translate(304.947187 268.038437) scale(0.1 -0.1)">
       <defs>
        <path id="DejaVuSans-31" d="M 794 531 
L 1825 531 
L 1825 4091 
L 703 3866 
L 703 4441 
L 1819 4666 
L 2450 4666 
L 2450 531 
L 3481 531 
L 3481 0 
L 794 0 
L 794 531 
z
" transform="scale(0.015625)"/>
       </defs>
       <use xlink:href="#DejaVuSans-31"/>
       <use xlink:href="#DejaVuSans-2e" x="63.623047"/>
       <use xlink:href="#DejaVuSans-30" x="95.410156"/>
       <use xlink:href="#DejaVuSans-30" x="159.033203"/>
      </g>
     </g>
    </g>
    <g id="xtick_6">
     <g id="line2d_6">
      <g>
       <use xlink:href="#m2d151df229" x="357.93" y="253.44" style="stroke: #000000; stroke-width: 0.8"/>
      </g>
     </g>
     <g id="text_6">
      <!-- 1.25 -->
      <g transform="translate(346.797187 268.038437) scale(0.1 -0.1)">
       <use xlink:href="#DejaVuSans-31"/>
       <use xlink:href="#DejaVuSans-2e" x="63.623047"/>
       <use xlink:href="#DejaVuSans-32" x="95.410156"/>
       <use xlink:href="#DejaVuSans-35" x="159.033203"/>
      </g>
     </g>
    </g>
    <g id="xtick_7">
     <g id="line2d_7">
      <g>
       <use xlink:href="#m2d151df229" x="399.78" y="253.44" style="stroke: #000000; stroke-width: 0.8"/>
      </g>
     </g>
     <g id="text_7">
      <!-- 1.50 -->
      <g transform="translate(388.647187 268.038437) scale(0.1 -0.1)">
       <use xlink:href="#DejaVuSans-31"/>
       <use xlink:href="#DejaVuSans-2e" x="63.623047"/>
       <use xlink:href="#DejaVuSans-35" x="95.410156"/>
       <use xlink:href="#DejaVuSans-30" x="159.033203"/>
      </g>
     </g>
    </g>
    <g id="xtick_8">
     <g id="line2d_8">
      <g>
       <use xlink:href="#m2d151df229" x="441.63" y="253.44" style="stroke: #000000; stroke-width: 0.8"/>
      </g>
     </g>
     <g id="text_8">
      <!-- 1.75 -->
      <g transform="translate(430.497187 268.038437) scale(0.1 -0.1)">
       <use xlink:href="#DejaVuSans-31"/>
       <use xlink:href="#DejaVuSans-2e" x="63.623047"/>
       <use xlink:href="#DejaVuSans-37" x="95.410156"/>
       <use xlink:href="#DejaVuSans-35" x="159.033203"/>
      </g>
     </g>
    </g>
    <g id="xtick_9">
     <g id="line2d_9">
      <g>
       <use xlink:href="#m2d151df229" x="483.48" y="253.44" style="stroke: #000000; stroke-width: 0.8"/>
      </g>
     </g>
     <g id="text_9">
      <!-- 2.00 -->
      <g transform="translate(472.347187 268.038437) scale(0.1 -0.1)">
       <use xlink:href="#DejaVuSans-32"/>
       <use xlink:href="#DejaVuSans-2e" x="63.623047"/>
       <use xlink:href="#DejaVuSans-30" x="95.410156"/>
       <use xlink:href="#DejaVuSans-30" x="159.033203"/>
      </g>
     </g>
    </g>
    <g id="text_10">
     <!-- $t$ sec. -->
     <g transform="translate(302.48 281.716562) scale(0.1 -0.1)">
      <defs>
       <path id="DejaVuSans-Oblique-74" d="M 2706 3500 
L 2619 3053 
L 1472 3053 
L 1100 1153 
Q 1081 1047 1072 975 
Q 1063 903 1063 863 
Q 1063 663 1183 572 
Q 1303 481 1569 481 
L 2150 481 
L 2053 0 
L 1503 0 
Q 991 0 739 200 
Q 488 400 488 806 
Q 488 878 497 964 
Q 506 1050 525 1153 
L 897 3053 
L 409 3053 
L 500 3500 
L 978 3500 
L 1172 4494 
L 1747 4494 
L 1556 3500 
L 2706 3500 
z
" transform="scale(0.015625)"/>
       <path id="DejaVuSans-20" transform="scale(0.015625)"/>
       <path id="DejaVuSans-73" d="M 2834 3397 
L 2834 2853 
Q 2591 2978 2328 3040 
Q 2066 3103 1784 3103 
Q 1356 3103 1142 2972 
Q 928 2841 928 2578 
Q 928 2378 1081 2264 
Q 1234 2150 1697 2047 
L 1894 2003 
Q 2506 1872 2764 1633 
Q 3022 1394 3022 966 
Q 3022 478 2636 193 
Q 2250 -91 1575 -91 
Q 1294 -91 989 -36 
Q 684 19 347 128 
L 347 722 
Q 666 556 975 473 
Q 1284 391 1588 391 
Q 1994 391 2212 530 
Q 2431 669 2431 922 
Q 2431 1156 2273 1281 
Q 2116 1406 1581 1522 
L 1381 1569 
Q 847 1681 609 1914 
Q 372 2147 372 2553 
Q 372 3047 722 3315 
Q 1072 3584 1716 3584 
Q 2034 3584 2315 3537 
Q 2597 3491 2834 3397 
z
" transform="scale(0.015625)"/>
       <path id="DejaVuSans-65" d="M 3597 1894 
L 3597 1613 
L 953 1613 
Q 991 1019 1311 708 
Q 1631 397 2203 397 
Q 2534 397 2845 478 
Q 3156 559 3463 722 
L 3463 178 
Q 3153 47 2828 -22 
Q 2503 -91 2169 -91 
Q 1331 -91 842 396 
Q 353 884 353 1716 
Q 353 2575 817 3079 
Q 1281 3584 2069 3584 
Q 2775 3584 3186 3129 
Q 3597 2675 3597 1894 
z
M 3022 2063 
Q 3016 2534 2758 2815 
Q 2500 3097 2075 3097 
Q 1594 3097 1305 2825 
Q 1016 2553 972 2059 
L 3022 2063 
z
" transform="scale(0.015625)"/>
       <path id="DejaVuSans-63" d="M 3122 3366 
L 3122 2828 
Q 2878 2963 2633 3030 
Q 2388 3097 2138 3097 
Q 1578 3097 1268 2742 
Q 959 2388 959 1747 
Q 959 1106 1268 751 
Q 1578 397 2138 397 
Q 2388 397 2633 464 
Q 2878 531 3122 666 
L 3122 134 
Q 2881 22 2623 -34 
Q 2366 -91 2075 -91 
Q 1284 -91 818 406 
Q 353 903 353 1747 
Q 353 2603 823 3093 
Q 1294 3584 2113 3584 
Q 2378 3584 2631 3529 
Q 2884 3475 3122 3366 
z
" transform="scale(0.015625)"/>
      </defs>
      <use xlink:href="#DejaVuSans-Oblique-74" transform="translate(0 0.78125)"/>
      <use xlink:href="#DejaVuSans-20" transform="translate(39.208984 0.78125)"/>
      <use xlink:href="#DejaVuSans-73" transform="translate(70.996094 0.78125)"/>
      <use xlink:href="#DejaVuSans-65" transform="translate(123.095703 0.78125)"/>
      <use xlink:href="#DejaVuSans-63" transform="translate(184.619141 0.78125)"/>
      <use xlink:href="#DejaVuSans-2e" transform="translate(239.599609 0.78125)"/>
     </g>
    </g>
   </g>
   <g id="matplotlib.axis_2">
    <g id="ytick_1">
     <g id="line2d_10">
      <defs>
       <path id="mbe105f490c" d="M 0 0 
L -3.5 0 
" style="stroke: #000000; stroke-width: 0.8"/>
      </defs>
      <g>
       <use xlink:href="#mbe105f490c" x="148.68" y="216.905428" style="stroke: #000000; stroke-width: 0.8"/>
      </g>
     </g>
     <g id="text_11">
      <!-- −0.5 -->
      <g transform="translate(117.397187 220.704647) scale(0.1 -0.1)">
       <defs>
        <path id="DejaVuSans-2212" d="M 678 2272 
L 4684 2272 
L 4684 1741 
L 678 1741 
L 678 2272 
z
" transform="scale(0.015625)"/>
       </defs>
       <use xlink:href="#DejaVuSans-2212"/>
       <use xlink:href="#DejaVuSans-30" x="83.789062"/>
       <use xlink:href="#DejaVuSans-2e" x="147.412109"/>
       <use xlink:href="#DejaVuSans-35" x="179.199219"/>
      </g>
     </g>
    </g>
    <g id="ytick_2">
     <g id="line2d_11">
      <g>
       <use xlink:href="#mbe105f490c" x="148.68" y="171.685052" style="stroke: #000000; stroke-width: 0.8"/>
      </g>
     </g>
     <g id="text_12">
      <!-- 0.0 -->
      <g transform="translate(125.776875 175.484271) scale(0.1 -0.1)">
       <use xlink:href="#DejaVuSans-30"/>
       <use xlink:href="#DejaVuSans-2e" x="63.623047"/>
       <use xlink:href="#DejaVuSans-30" x="95.410156"/>
      </g>
     </g>
    </g>
    <g id="ytick_3">
     <g id="line2d_12">
      <g>
       <use xlink:href="#mbe105f490c" x="148.68" y="126.464676" style="stroke: #000000; stroke-width: 0.8"/>
      </g>
     </g>
     <g id="text_13">
      <!-- 0.5 -->
      <g transform="translate(125.776875 130.263895) scale(0.1 -0.1)">
       <use xlink:href="#DejaVuSans-30"/>
       <use xlink:href="#DejaVuSans-2e" x="63.623047"/>
       <use xlink:href="#DejaVuSans-35" x="95.410156"/>
      </g>
     </g>
    </g>
    <g id="ytick_4">
     <g id="line2d_13">
      <g>
       <use xlink:href="#mbe105f490c" x="148.68" y="81.2443" style="stroke: #000000; stroke-width: 0.8"/>
      </g>
     </g>
     <g id="text_14">
      <!-- 1.0 -->
      <g transform="translate(125.776875 85.043519) scale(0.1 -0.1)">
       <use xlink:href="#DejaVuSans-31"/>
       <use xlink:href="#DejaVuSans-2e" x="63.623047"/>
       <use xlink:href="#DejaVuSans-30" x="95.410156"/>
      </g>
     </g>
    </g>
    <g id="ytick_5">
     <g id="line2d_14">
      <g>
       <use xlink:href="#mbe105f490c" x="148.68" y="36.023924" style="stroke: #000000; stroke-width: 0.8"/>
      </g>
     </g>
     <g id="text_15">
      <!-- 1.5 -->
      <g transform="translate(125.776875 39.823142) scale(0.1 -0.1)">
       <use xlink:href="#DejaVuSans-31"/>
       <use xlink:href="#DejaVuSans-2e" x="63.623047"/>
       <use xlink:href="#DejaVuSans-35" x="95.410156"/>
      </g>
     </g>
    </g>
    <g id="text_16">
     <!-- Voltage -->
     <g transform="translate(111.3175 163.47625) rotate(-90) scale(0.1 -0.1)">
      <defs>
       <path id="DejaVuSans-56" d="M 1831 0 
L 50 4666 
L 709 4666 
L 2188 738 
L 3669 4666 
L 4325 4666 
L 2547 0 
L 1831 0 
z
" transform="scale(0.015625)"/>
       <path id="DejaVuSans-6f" d="M 1959 3097 
Q 1497 3097 1228 2736 
Q 959 2375 959 1747 
Q 959 1119 1226 758 
Q 1494 397 1959 397 
Q 2419 397 2687 759 
Q 2956 1122 2956 1747 
Q 2956 2369 2687 2733 
Q 2419 3097 1959 3097 
z
M 1959 3584 
Q 2709 3584 3137 3096 
Q 3566 2609 3566 1747 
Q 3566 888 3137 398 
Q 2709 -91 1959 -91 
Q 1206 -91 779 398 
Q 353 888 353 1747 
Q 353 2609 779 3096 
Q 1206 3584 1959 3584 
z
" transform="scale(0.015625)"/>
       <path id="DejaVuSans-6c" d="M 603 4863 
L 1178 4863 
L 1178 0 
L 603 0 
L 603 4863 
z
" transform="scale(0.015625)"/>
       <path id="DejaVuSans-74" d="M 1172 4494 
L 1172 3500 
L 2356 3500 
L 2356 3053 
L 1172 3053 
L 1172 1153 
Q 1172 725 1289 603 
Q 1406 481 1766 481 
L 2356 481 
L 2356 0 
L 1766 0 
Q 1100 0 847 248 
Q 594 497 594 1153 
L 594 3053 
L 172 3053 
L 172 3500 
L 594 3500 
L 594 4494 
L 1172 4494 
z
" transform="scale(0.015625)"/>
       <path id="DejaVuSans-61" d="M 2194 1759 
Q 1497 1759 1228 1600 
Q 959 1441 959 1056 
Q 959 750 1161 570 
Q 1363 391 1709 391 
Q 2188 391 2477 730 
Q 2766 1069 2766 1631 
L 2766 1759 
L 2194 1759 
z
M 3341 1997 
L 3341 0 
L 2766 0 
L 2766 531 
Q 2569 213 2275 61 
Q 1981 -91 1556 -91 
Q 1019 -91 701 211 
Q 384 513 384 1019 
Q 384 1609 779 1909 
Q 1175 2209 1959 2209 
L 2766 2209 
L 2766 2266 
Q 2766 2663 2505 2880 
Q 2244 3097 1772 3097 
Q 1472 3097 1187 3025 
Q 903 2953 641 2809 
L 641 3341 
Q 956 3463 1253 3523 
Q 1550 3584 1831 3584 
Q 2591 3584 2966 3190 
Q 3341 2797 3341 1997 
z
" transform="scale(0.015625)"/>
       <path id="DejaVuSans-67" d="M 2906 1791 
Q 2906 2416 2648 2759 
Q 2391 3103 1925 3103 
Q 1463 3103 1205 2759 
Q 947 2416 947 1791 
Q 947 1169 1205 825 
Q 1463 481 1925 481 
Q 2391 481 2648 825 
Q 2906 1169 2906 1791 
z
M 3481 434 
Q 3481 -459 3084 -895 
Q 2688 -1331 1869 -1331 
Q 1566 -1331 1297 -1286 
Q 1028 -1241 775 -1147 
L 775 -588 
Q 1028 -725 1275 -790 
Q 1522 -856 1778 -856 
Q 2344 -856 2625 -561 
Q 2906 -266 2906 331 
L 2906 616 
Q 2728 306 2450 153 
Q 2172 0 1784 0 
Q 1141 0 747 490 
Q 353 981 353 1791 
Q 353 2603 747 3093 
Q 1141 3584 1784 3584 
Q 2172 3584 2450 3431 
Q 2728 3278 2906 2969 
L 2906 3500 
L 3481 3500 
L 3481 434 
z
" transform="scale(0.015625)"/>
      </defs>
      <use xlink:href="#DejaVuSans-56"/>
      <use xlink:href="#DejaVuSans-6f" x="60.658203"/>
      <use xlink:href="#DejaVuSans-6c" x="121.839844"/>
      <use xlink:href="#DejaVuSans-74" x="149.623047"/>
      <use xlink:href="#DejaVuSans-61" x="188.832031"/>
      <use xlink:href="#DejaVuSans-67" x="250.111328"/>
      <use xlink:href="#DejaVuSans-65" x="313.587891"/>
     </g>
    </g>
   </g>
   <g id="line2d_15">
    <path d="M 148.68 160.72703 
L 149.8518 93.340173 
L 150.0192 84.858998 
L 150.1866 58.634112 
L 150.354 171.685052 
L 151.3584 100.785617 
L 151.5258 90.385978 
L 151.6932 58.634112 
L 151.8606 171.685052 
L 152.865 93.133837 
L 153.0324 81.748678 
L 153.1998 58.634112 
L 153.3672 171.685052 
L 154.539 58.634112 
L 154.7064 171.685052 
L 155.8782 58.634112 
L 156.0456 171.685052 
L 157.05 58.634112 
L 157.2174 171.685052 
L 158.2218 58.634112 
L 158.3892 171.685052 
L 159.3936 58.634112 
L 159.561 171.685052 
L 160.398 94.423394 
L 160.5654 81.426788 
L 160.7328 58.634112 
L 160.9002 171.685052 
L 161.7372 97.684183 
L 161.9046 85.364896 
L 162.072 58.634112 
L 162.2394 171.685052 
L 163.0764 102.388223 
L 163.2438 90.980734 
L 163.4112 58.634112 
L 163.5786 171.685052 
L 164.4156 108.359005 
L 164.7504 88.473584 
L 164.9178 58.634112 
L 165.0852 171.685052 
L 165.9222 116.299687 
L 166.5918 84.683567 
L 166.7592 58.634112 
L 166.9266 171.685052 
L 167.5962 134.75538 
L 168.2658 108.071179 
L 168.9354 89.76454 
L 169.2702 83.256522 
L 169.4376 58.634112 
L 169.605 171.685052 
L 170.2746 148.401053 
L 170.9442 132.767064 
L 171.4464 125.141571 
L 171.9486 120.419526 
L 172.2834 118.647586 
L 172.6182 117.828231 
L 172.7856 117.739438 
L 172.953 117.846431 
L 173.2878 118.59682 
L 173.6226 119.982845 
L 174.1248 123.06208 
L 174.7944 128.626082 
L 175.7988 139.018871 
L 178.812 171.685052 
L 186.1776 171.601675 
L 186.5124 171.141436 
L 187.0146 169.768006 
L 187.5168 167.652035 
L 188.1864 163.816736 
L 189.0234 157.646266 
L 190.1952 147.017903 
L 191.8692 129.250147 
L 196.0542 82.902458 
L 196.2216 58.634112 
L 196.389 171.685052 
L 197.3934 137.792965 
L 198.3978 111.324339 
L 199.4022 90.645706 
L 199.9044 82.080782 
L 200.0718 58.634112 
L 200.2392 171.685052 
L 201.0762 139.150484 
L 201.9132 113.616472 
L 202.7502 93.610499 
L 203.2524 83.764807 
L 203.4198 58.634112 
L 203.5872 171.685052 
L 204.4242 138.272989 
L 205.2612 112.343638 
L 206.0982 92.208873 
L 206.6004 82.343612 
L 206.7678 58.634112 
L 206.9352 171.685052 
L 207.7722 137.903946 
L 208.6092 111.573722 
L 209.6136 87.363075 
L 209.781 83.953974 
L 209.9484 58.634112 
L 210.1158 171.685052 
L 210.9528 136.75091 
L 211.9572 104.415857 
L 212.7942 83.439567 
L 212.9616 58.634112 
L 213.129 171.685052 
L 214.1334 128.004849 
L 215.1378 94.735147 
L 215.4726 85.442871 
L 215.64 58.634112 
L 215.8074 171.685052 
L 216.8118 124.74715 
L 217.8162 88.954992 
L 217.9836 83.854939 
L 218.151 58.634112 
L 218.3184 171.685052 
L 219.3228 121.604319 
L 220.3272 83.677158 
L 220.4946 58.634112 
L 220.662 171.685052 
L 221.499 126.971764 
L 222.336 91.855365 
L 222.5034 85.795978 
L 222.6708 58.634112 
L 222.8382 171.685052 
L 223.6752 125.925604 
L 224.5122 90.398487 
L 224.6796 84.323164 
L 224.847 58.634112 
L 225.0144 171.685052 
L 225.8514 125.980957 
L 226.6884 90.960764 
L 226.8558 85.03237 
L 227.0232 58.634112 
L 227.1906 171.685052 
L 228.0276 127.251295 
L 228.8646 93.671151 
L 229.1994 82.745201 
L 229.3668 58.634112 
L 229.5342 171.685052 
L 230.3712 129.88429 
L 231.2082 98.741679 
L 231.7104 84.190552 
L 231.8778 58.634112 
L 232.0452 171.685052 
L 232.8822 133.781003 
L 233.7192 105.893391 
L 234.5562 85.782782 
L 234.7236 82.531813 
L 234.891 58.634112 
L 235.0584 171.685052 
L 235.8954 139.024834 
L 236.7324 115.158246 
L 237.5694 98.022991 
L 238.4064 85.998788 
L 238.7412 82.324699 
L 238.9086 58.634112 
L 239.076 171.685052 
L 239.913 144.905879 
L 240.75 125.040115 
L 241.587 110.361303 
L 242.424 99.525912 
L 243.261 91.491191 
L 244.098 85.451684 
L 244.7676 81.636491 
L 244.935 58.634112 
L 245.1024 171.685052 
L 245.9394 147.325467 
L 246.9438 124.836687 
L 247.9482 107.66987 
L 248.9526 94.263591 
L 249.957 83.521068 
L 250.1244 81.932704 
L 250.2918 58.634112 
L 250.4592 171.685052 
L 251.4636 139.032959 
L 252.468 114.133589 
L 253.4724 95.025991 
L 254.3094 82.510444 
L 254.4768 58.634112 
L 254.6442 171.685052 
L 255.4812 141.355034 
L 256.3182 117.707829 
L 257.1552 99.380343 
L 257.9922 85.327259 
L 258.1596 82.955289 
L 258.327 58.634112 
L 258.4944 171.685052 
L 259.3314 141.819808 
L 260.1684 119.260801 
L 261.0054 102.508326 
L 261.8424 90.389669 
L 262.512 83.403384 
L 262.6794 81.980768 
L 262.8468 58.634112 
L 263.0142 171.685052 
L 263.8512 146.4099 
L 264.6882 128.028215 
L 265.5252 115.021683 
L 266.1948 107.668463 
L 266.8644 102.47706 
L 267.534 99.024906 
L 268.0362 97.360203 
L 268.5384 96.341393 
L 269.0406 95.852663 
L 269.3754 95.769945 
L 269.8776 95.941112 
L 270.3798 96.391436 
L 271.0494 97.295343 
L 272.556 99.862312 
L 273.7278 101.661197 
L 274.5648 102.532427 
L 275.2344 102.877128 
L 275.7366 102.895757 
L 276.2388 102.690127 
L 276.741 102.24793 
L 277.4106 101.276505 
L 278.0802 99.861064 
L 278.9172 97.472464 
L 279.9216 93.740419 
L 281.0934 88.323588 
L 282.2652 81.992707 
L 282.4326 58.634112 
L 282.6 171.685052 
L 283.6044 141.397302 
L 284.6088 117.412808 
L 285.6132 98.289281 
L 286.6176 83.046232 
L 286.785 58.634112 
L 286.9524 171.685052 
L 287.7894 141.260106 
L 288.6264 117.511989 
L 289.4634 99.224534 
L 290.3004 85.47422 
L 290.4678 83.203497 
L 290.6352 58.634112 
L 290.8026 171.685052 
L 291.6396 142.85568 
L 292.4766 121.790887 
L 293.1462 109.550255 
L 293.8158 100.759625 
L 294.4854 94.92786 
L 294.9876 92.245452 
L 295.4898 90.844099 
L 295.8246 90.554779 
L 295.992 90.589737 
L 296.3268 90.9973 
L 296.6616 91.827799 
L 297.1638 93.799023 
L 297.8334 97.630729 
L 298.6704 104.055848 
L 299.6748 113.661118 
L 301.1814 130.681318 
L 304.6968 171.685052 
L 312.5646 171.685052 
L 312.732 171.548581 
L 313.0668 170.847878 
L 313.4016 169.598385 
L 313.9038 166.749089 
L 314.5734 161.252314 
L 315.4104 151.901509 
L 316.4148 137.479978 
L 317.5866 116.948762 
L 319.0932 86.060117 
L 319.2606 82.391058 
L 319.428 58.634112 
L 319.5954 171.685052 
L 320.9346 108.265498 
L 321.4368 87.296375 
L 321.6042 58.634112 
L 321.7716 171.685052 
L 322.9434 99.883757 
L 323.2782 82.197426 
L 323.4456 58.634112 
L 323.613 171.685052 
L 324.6174 99.620343 
L 324.7848 89.167353 
L 324.9522 58.634112 
L 325.1196 171.685052 
L 326.124 93.90545 
L 326.2914 82.809641 
L 326.4588 58.634112 
L 326.6262 171.685052 
L 327.798 58.634112 
L 327.9654 171.685052 
L 328.8024 101.392204 
L 328.9698 89.375826 
L 329.1372 58.634112 
L 329.3046 171.685052 
L 330.1416 102.075158 
L 330.309 90.311156 
L 330.4764 58.634112 
L 330.6438 171.685052 
L 331.4808 104.432741 
L 331.8156 82.639134 
L 331.983 58.634112 
L 332.1504 171.685052 
L 332.9874 108.96938 
L 333.3222 88.992878 
L 333.4896 58.634112 
L 333.657 171.685052 
L 334.494 115.273469 
L 335.1636 82.495952 
L 335.331 58.634112 
L 335.4984 171.685052 
L 336.3354 124.892106 
L 337.005 98.763034 
L 337.5072 84.606991 
L 337.6746 58.634112 
L 337.842 171.685052 
L 338.5116 144.450342 
L 339.1812 125.716951 
L 339.6834 116.287745 
L 340.1856 110.181141 
L 340.6878 106.899065 
L 341.0226 106.061595 
L 341.19 106.003316 
L 341.3574 106.166863 
L 341.6922 107.10729 
L 342.1944 109.868942 
L 342.864 115.610191 
L 343.701 125.228903 
L 345.0402 143.906191 
L 346.8816 171.000844 
L 347.049 171.685052 
L 355.419 171.634684 
L 355.7538 171.067099 
L 356.0886 169.90936 
L 356.5908 167.146854 
L 357.2604 161.730223 
L 358.0974 152.536806 
L 359.1018 138.56838 
L 360.441 116.187558 
L 362.115 84.477845 
L 362.2824 58.634112 
L 362.4498 171.685052 
L 363.6216 120.17747 
L 364.626 83.305343 
L 364.7934 58.634112 
L 364.9608 171.685052 
L 365.9652 115.645173 
L 366.6348 84.867997 
L 366.8022 58.634112 
L 366.9696 171.685052 
L 367.974 109.923285 
L 368.4762 84.79816 
L 368.6436 58.634112 
L 368.811 171.685052 
L 369.648 117.090993 
L 370.3176 82.389509 
L 370.485 58.634112 
L 370.6524 171.685052 
L 371.4894 117.698533 
L 372.159 84.24197 
L 372.3264 58.634112 
L 372.4938 171.685052 
L 373.3308 120.838672 
L 374.1678 83.693664 
L 374.3352 58.634112 
L 374.5026 171.685052 
L 375.3396 126.835262 
L 376.0092 100.677872 
L 376.6788 81.619622 
L 376.8462 58.634112 
L 377.0136 171.685052 
L 377.6832 143.096114 
L 378.3528 122.381246 
L 379.0224 108.164588 
L 379.5246 101.06887 
L 380.0268 96.565043 
L 380.3616 94.82084 
L 380.6964 93.968916 
L 380.8638 93.849348 
L 381.0312 93.919883 
L 381.366 94.591235 
L 381.7008 95.906681 
L 382.203 98.934348 
L 382.8726 104.607375 
L 383.7096 113.698874 
L 385.0488 131.12336 
L 388.062 171.685052 
L 395.4276 171.685052 
L 395.595 171.571158 
L 395.9298 170.873696 
L 396.2646 169.571747 
L 396.7668 166.539223 
L 397.4364 160.600797 
L 398.106 152.653034 
L 398.943 140.136047 
L 399.9474 121.719748 
L 401.1192 96.18221 
L 401.6214 84.085823 
L 401.7888 58.634112 
L 401.9562 171.685052 
L 403.4628 95.586552 
L 403.6302 87.815847 
L 403.7976 58.634112 
L 403.965 171.685052 
L 405.1368 91.635284 
L 405.3042 81.352447 
L 405.4716 58.634112 
L 405.639 171.685052 
L 406.8108 58.634112 
L 406.9782 171.685052 
L 407.9826 58.634112 
L 408.15 171.685052 
L 409.1544 58.634112 
L 409.3218 171.685052 
L 410.1588 58.634112 
L 410.3262 171.685052 
L 411.1632 58.634112 
L 411.3306 171.685052 
L 412.1676 58.634112 
L 412.335 171.685052 
L 413.172 58.634112 
L 413.3394 171.685052 
L 414.1764 58.634112 
L 414.3438 171.685052 
L 415.1808 58.634112 
L 415.3482 171.685052 
L 416.1852 58.634112 
L 416.3526 171.685052 
L 417.1896 58.634112 
L 417.357 171.685052 
L 418.194 58.634112 
L 418.3614 171.685052 
L 419.1984 58.634112 
L 419.3658 171.685052 
L 420.3702 58.634112 
L 420.5376 171.685052 
L 421.542 58.634112 
L 421.7094 171.685052 
L 422.5464 95.795689 
L 422.7138 83.556117 
L 422.8812 58.634112 
L 423.0486 171.685052 
L 423.8856 105.352008 
L 424.2204 85.082645 
L 424.3878 58.634112 
L 424.5552 171.685052 
L 425.2248 126.197062 
L 425.8944 93.48284 
L 426.0618 87.016635 
L 426.2292 58.634112 
L 426.3966 171.685052 
L 427.0662 138.169024 
L 427.7358 115.195446 
L 428.238 103.648893 
L 428.7402 96.155097 
L 429.2424 92.077784 
L 429.5772 90.979603 
L 429.7446 90.859874 
L 429.912 91.003061 
L 430.2468 92.012552 
L 430.5816 93.883538 
L 431.0838 98.057428 
L 431.7534 105.643891 
L 432.7578 119.941303 
L 436.1058 171.685052 
L 442.2996 171.685052 
L 442.467 171.548483 
L 442.8018 170.79507 
L 443.1366 169.427231 
L 443.6388 166.289445 
L 444.3084 160.231471 
L 445.1454 149.963792 
L 446.1498 134.254133 
L 447.3216 112.169403 
L 448.6608 83.364687 
L 448.8282 58.634112 
L 448.9956 171.685052 
L 450.3348 108.094349 
L 450.837 87.147637 
L 451.0044 58.634112 
L 451.1718 171.685052 
L 452.1762 109.474391 
L 452.6784 82.785896 
L 452.8458 58.634112 
L 453.0132 171.685052 
L 454.0176 100.741198 
L 454.185 90.499649 
L 454.3524 58.634112 
L 454.5198 171.685052 
L 455.5242 95.856748 
L 455.6916 85.092522 
L 455.859 58.634112 
L 456.0264 171.685052 
L 456.8634 104.754315 
L 457.1982 82.260038 
L 457.3656 58.634112 
L 457.533 171.685052 
L 458.37 104.359855 
L 458.7048 82.051147 
L 458.8722 58.634112 
L 459.0396 171.685052 
L 459.8766 105.86332 
L 460.2114 84.34797 
L 460.3788 58.634112 
L 460.5462 171.685052 
L 461.3832 109.0716 
L 461.718 88.87469 
L 461.8854 58.634112 
L 462.0528 171.685052 
L 462.8898 113.685092 
L 463.392 86.873862 
L 463.5594 58.634112 
L 463.7268 171.685052 
L 464.5638 119.98746 
L 465.4008 83.41722 
L 465.5682 58.634112 
L 465.7356 171.685052 
L 466.5726 128.338819 
L 467.2422 103.388825 
L 467.9118 85.29458 
L 468.0792 81.677276 
L 468.2466 58.634112 
L 468.414 171.685052 
L 469.251 138.948742 
L 469.9206 120.264834 
L 470.5902 106.722783 
L 471.2598 97.161165 
L 471.9294 90.611356 
L 472.599 86.264947 
L 473.2686 83.447461 
L 473.9382 81.597152 
L 474.1056 58.634112 
L 474.273 171.685052 
L 475.11 149.589641 
L 476.1144 128.813541 
L 477.2862 109.24754 
L 479.1276 82.331771 
L 479.295 58.634112 
L 479.4624 171.685052 
L 480.6342 125.695278 
L 481.9734 81.820347 
L 482.1408 58.634112 
L 482.3082 171.685052 
L 483.3126 116.815668 
L 483.3126 116.815668 
" clip-path="url(#pd80f900cde)" style="fill: none; stroke: #1f77b4; stroke-width: 1.5; stroke-linecap: square"/>
   </g>
   <g id="line2d_16">
    <path d="M 148.68 137.459539 
L 151.6932 113.437886 
L 153.1998 103.19896 
L 154.3716 96.68551 
L 155.376 92.349698 
L 156.213 89.727186 
L 156.8826 88.325301 
L 157.3848 87.696861 
L 157.887 87.439717 
L 158.2218 87.477235 
L 158.5566 87.683069 
L 159.0588 88.308227 
L 159.561 89.312347 
L 160.2306 91.234965 
L 161.0676 94.555315 
L 161.9046 98.852748 
L 162.909 105.21193 
L 164.0808 114.113346 
L 165.5874 127.487499 
L 167.5962 147.604557 
L 172.116 193.768998 
L 173.79 208.217777 
L 175.1292 217.879548 
L 176.301 224.712511 
L 177.3054 229.267995 
L 178.1424 232.115087 
L 178.812 233.766876 
L 179.4816 234.86694 
L 179.9838 235.336171 
L 180.486 235.507686 
L 180.9882 235.389931 
L 181.4904 234.993004 
L 181.9926 234.328539 
L 182.6622 233.049176 
L 183.4992 230.866823 
L 184.5036 227.492485 
L 185.6754 222.694206 
L 187.182 215.531868 
L 190.3626 198.928314 
L 192.5388 188.208162 
L 194.0454 181.755937 
L 195.3846 176.894473 
L 196.5564 173.378381 
L 197.7282 170.55843 
L 198.7326 168.672805 
L 199.737 167.237697 
L 200.7414 166.199625 
L 201.7458 165.493431 
L 202.7502 165.045708 
L 204.0894 164.715669 
L 207.7722 163.98806 
L 208.944 163.4392 
L 210.1158 162.616346 
L 211.2876 161.488684 
L 212.4594 160.053773 
L 213.7986 158.071603 
L 215.64 154.898985 
L 219.825 147.496225 
L 221.1642 145.673531 
L 222.1686 144.645997 
L 223.0056 144.055808 
L 223.8426 143.734695 
L 224.5122 143.684704 
L 225.1818 143.826244 
L 225.8514 144.16333 
L 226.6884 144.861018 
L 227.5254 145.861193 
L 228.5298 147.443594 
L 229.7016 149.772607 
L 231.0408 152.975322 
L 232.8822 158.052832 
L 237.7368 171.83392 
L 239.076 174.882794 
L 240.2478 177.055385 
L 241.2522 178.498253 
L 242.0892 179.385831 
L 242.9262 179.980967 
L 243.7632 180.285875 
L 244.6002 180.310399 
L 245.4372 180.071748 
L 246.2742 179.594044 
L 247.2786 178.748429 
L 248.4504 177.466641 
L 250.2918 175.07911 
L 252.6354 172.069298 
L 253.9746 170.715137 
L 254.979 169.999932 
L 255.816 169.645745 
L 256.653 169.538021 
L 257.49 169.694305 
L 258.327 170.1245 
L 259.164 170.830512 
L 260.1684 172.032462 
L 261.1728 173.596142 
L 262.3446 175.82082 
L 263.8512 179.170144 
L 269.208 191.64102 
L 270.3798 193.606208 
L 271.3842 194.861135 
L 272.2212 195.561112 
L 272.8908 195.877345 
L 273.5604 195.967979 
L 274.23 195.828737 
L 274.8996 195.459243 
L 275.7366 194.67948 
L 276.5736 193.56181 
L 277.578 191.811273 
L 278.7498 189.284677 
L 280.2564 185.472096 
L 284.6088 174.060646 
L 285.7806 171.779198 
L 286.6176 170.558809 
L 287.4546 169.744721 
L 288.1242 169.419415 
L 288.6264 169.379753 
L 289.1286 169.523552 
L 289.6308 169.856792 
L 290.3004 170.603348 
L 290.97 171.70084 
L 291.807 173.567557 
L 292.644 175.974856 
L 293.6484 179.544775 
L 294.8202 184.566005 
L 296.3268 192.146198 
L 298.503 204.513036 
L 301.5162 221.65099 
L 303.0228 228.903494 
L 304.1946 233.427716 
L 305.0316 235.909409 
L 305.7012 237.383883 
L 306.3708 238.366298 
L 306.873 238.762205 
L 307.3752 238.854183 
L 307.8774 238.633722 
L 308.3796 238.094286 
L 308.8818 237.231394 
L 309.5514 235.573932 
L 310.221 233.337831 
L 311.058 229.740748 
L 312.0624 224.289171 
L 313.2342 216.471924 
L 314.5734 205.851573 
L 316.2474 190.598307 
L 319.0932 162.092923 
L 321.6042 137.774325 
L 323.1108 125.130332 
L 324.2826 116.867535 
L 325.287 111.115136 
L 326.124 107.371473 
L 326.961 104.654056 
L 327.6306 103.252839 
L 328.1328 102.664498 
L 328.4676 102.495219 
L 328.8024 102.505195 
L 329.1372 102.694652 
L 329.6394 103.314661 
L 330.1416 104.334887 
L 330.8112 106.308151 
L 331.4808 108.963811 
L 332.3178 113.201681 
L 333.3222 119.542591 
L 334.494 128.48227 
L 336.0006 141.971762 
L 338.0094 162.287587 
L 342.1944 205.333648 
L 343.701 218.505891 
L 345.0402 228.273694 
L 346.0446 234.163987 
L 346.8816 238.033392 
L 347.7186 240.902957 
L 348.3882 242.455483 
L 348.8904 243.179765 
L 349.3926 243.525256 
L 349.7274 243.545579 
L 350.0622 243.398856 
L 350.5644 242.868559 
L 351.0666 241.971749 
L 351.7362 240.220733 
L 352.4058 237.859047 
L 353.2428 234.097372 
L 354.2472 228.496783 
L 355.419 220.661237 
L 356.9256 208.96662 
L 359.2692 188.658326 
L 362.4498 161.318683 
L 363.9564 150.132533 
L 365.2956 141.812305 
L 366.3 136.785622 
L 367.137 133.481536 
L 367.974 131.033796 
L 368.6436 129.715464 
L 369.1458 129.107502 
L 369.648 128.828695 
L 370.1502 128.879491 
L 370.6524 129.25847 
L 371.1546 129.962362 
L 371.8242 131.397256 
L 372.4938 133.383583 
L 373.3308 136.607421 
L 374.3352 141.488777 
L 375.507 148.430403 
L 376.8462 157.733745 
L 378.6876 172.227242 
L 384.0444 215.546019 
L 385.3836 224.277128 
L 386.5554 230.576147 
L 387.5598 234.801797 
L 388.3968 237.404388 
L 389.0664 238.843513 
L 389.5686 239.531792 
L 390.0708 239.875543 
L 390.4056 239.909935 
L 390.7404 239.786607 
L 391.2426 239.30321 
L 391.7448 238.459267 
L 392.4144 236.771258 
L 393.084 234.441953 
L 393.921 230.63966 
L 394.9254 224.805631 
L 395.9298 217.649752 
L 397.1016 207.756218 
L 398.6082 192.889436 
L 400.4496 172.133982 
L 403.2954 136.955335 
L 406.476 98.353258 
L 408.15 80.555858 
L 409.4892 68.401597 
L 410.661 59.644823 
L 411.6654 53.725245 
L 412.5024 50.006072 
L 413.172 47.866764 
L 413.8416 46.495059 
L 414.3438 45.979886 
L 414.6786 45.883636 
L 415.0134 45.986123 
L 415.3482 46.287715 
L 415.8504 47.113197 
L 416.3526 48.384488 
L 417.0222 50.765594 
L 417.8592 54.821249 
L 418.6962 60.032798 
L 419.7006 67.724431 
L 420.8724 78.505172 
L 422.2116 92.877307 
L 424.053 115.352815 
L 427.9032 166.380262 
L 430.0794 193.245227 
L 431.586 209.301126 
L 432.9252 221.159881 
L 433.9296 228.30772 
L 434.7666 233.013321 
L 435.6036 236.521892 
L 436.2732 238.441821 
L 436.7754 239.357414 
L 437.2776 239.822141 
L 437.6124 239.882126 
L 437.9472 239.74344 
L 438.282 239.407683 
L 438.7842 238.539272 
L 439.2864 237.241491 
L 439.956 234.863719 
L 440.793 230.900527 
L 441.7974 224.802627 
L 442.9692 216.060427 
L 444.3084 204.324782 
L 446.3172 184.415875 
L 450.3348 143.85926 
L 451.8414 130.976406 
L 453.0132 122.574807 
L 454.0176 116.714112 
L 454.8546 112.868156 
L 455.6916 110.017517 
L 456.3612 108.472921 
L 456.8634 107.747617 
L 457.3656 107.392668 
L 457.7004 107.360085 
L 458.0352 107.488799 
L 458.5374 107.979277 
L 459.0396 108.817896 
L 459.7092 110.456385 
L 460.5462 113.290142 
L 461.5506 117.730371 
L 462.7224 124.12231 
L 464.229 133.759266 
L 469.5858 169.641258 
L 470.7576 175.500999 
L 471.762 179.422951 
L 472.599 181.807524 
L 473.2686 183.09156 
L 473.7708 183.675278 
L 474.273 183.926239 
L 474.6078 183.906545 
L 475.11 183.595057 
L 475.6122 182.945608 
L 476.2818 181.559167 
L 476.9514 179.590907 
L 477.7884 176.346142 
L 478.7928 171.382223 
L 479.9646 164.289537 
L 481.4712 153.533772 
L 483.3126 138.836027 
L 483.3126 138.836027 
" clip-path="url(#pd80f900cde)" style="fill: none; stroke: #ff7f0e; stroke-width: 1.5; stroke-linecap: square"/>
   </g>
   <g id="patch_3">
    <path d="M 148.68 253.44 
L 148.68 36 
" style="fill: none; stroke: #000000; stroke-width: 0.8; stroke-linejoin: miter; stroke-linecap: square"/>
   </g>
   <g id="patch_4">
    <path d="M 483.48 253.44 
L 483.48 36 
" style="fill: none; stroke: #000000; stroke-width: 0.8; stroke-linejoin: miter; stroke-linecap: square"/>
   </g>
   <g id="patch_5">
    <path d="M 148.68 253.44 
L 483.48 253.44 
" style="fill: none; stroke: #000000; stroke-width: 0.8; stroke-linejoin: miter; stroke-linecap: square"/>
   </g>
   <g id="patch_6">
    <path d="M 148.68 36 
L 483.48 36 
" style="fill: none; stroke: #000000; stroke-width: 0.8; stroke-linejoin: miter; stroke-linecap: square"/>
   </g>
   <g id="legend_1">
    <g id="patch_7">
     <path d="M 291.23 73.35625 
L 340.93 73.35625 
Q 342.93 73.35625 342.93 71.35625 
L 342.93 43 
Q 342.93 41 340.93 41 
L 291.23 41 
Q 289.23 41 289.23 43 
L 289.23 71.35625 
Q 289.23 73.35625 291.23 73.35625 
z
" style="fill: #ffffff; opacity: 0.8; stroke: #cccccc; stroke-linejoin: miter"/>
    </g>
    <g id="line2d_17">
     <path d="M 293.23 49.098437 
L 303.23 49.098437 
L 313.23 49.098437 
" style="fill: none; stroke: #1f77b4; stroke-width: 1.5; stroke-linecap: square"/>
    </g>
    <g id="text_17">
     <!-- $v(t)$ -->
     <g transform="translate(321.23 52.598437) scale(0.1 -0.1)">
      <defs>
       <path id="DejaVuSans-Oblique-76" d="M 459 3500 
L 1069 3500 
L 1581 525 
L 3256 3500 
L 3866 3500 
L 1875 0 
L 1100 0 
L 459 3500 
z
" transform="scale(0.015625)"/>
       <path id="DejaVuSans-28" d="M 1984 4856 
Q 1566 4138 1362 3434 
Q 1159 2731 1159 2009 
Q 1159 1288 1364 580 
Q 1569 -128 1984 -844 
L 1484 -844 
Q 1016 -109 783 600 
Q 550 1309 550 2009 
Q 550 2706 781 3412 
Q 1013 4119 1484 4856 
L 1984 4856 
z
" transform="scale(0.015625)"/>
       <path id="DejaVuSans-29" d="M 513 4856 
L 1013 4856 
Q 1481 4119 1714 3412 
Q 1947 2706 1947 2009 
Q 1947 1309 1714 600 
Q 1481 -109 1013 -844 
L 513 -844 
Q 928 -128 1133 580 
Q 1338 1288 1338 2009 
Q 1338 2731 1133 3434 
Q 928 4138 513 4856 
z
" transform="scale(0.015625)"/>
      </defs>
      <use xlink:href="#DejaVuSans-Oblique-76" transform="translate(0 0.125)"/>
      <use xlink:href="#DejaVuSans-28" transform="translate(59.179688 0.125)"/>
      <use xlink:href="#DejaVuSans-Oblique-74" transform="translate(98.193359 0.125)"/>
      <use xlink:href="#DejaVuSans-29" transform="translate(137.402344 0.125)"/>
     </g>
    </g>
    <g id="line2d_18">
     <path d="M 293.23 63.776562 
L 303.23 63.776562 
L 313.23 63.776562 
" style="fill: none; stroke: #ff7f0e; stroke-width: 1.5; stroke-linecap: square"/>
    </g>
    <g id="text_18">
     <!-- $x(t)$ -->
     <g transform="translate(321.23 67.276562) scale(0.1 -0.1)">
      <defs>
       <path id="DejaVuSans-Oblique-78" d="M 3841 3500 
L 2234 1784 
L 3219 0 
L 2559 0 
L 1819 1388 
L 531 0 
L -166 0 
L 1556 1844 
L 641 3500 
L 1300 3500 
L 1972 2234 
L 3144 3500 
L 3841 3500 
z
" transform="scale(0.015625)"/>
      </defs>
      <use xlink:href="#DejaVuSans-Oblique-78" transform="translate(0 0.125)"/>
      <use xlink:href="#DejaVuSans-28" transform="translate(59.179688 0.125)"/>
      <use xlink:href="#DejaVuSans-Oblique-74" transform="translate(98.193359 0.125)"/>
      <use xlink:href="#DejaVuSans-29" transform="translate(137.402344 0.125)"/>
     </g>
    </g>
   </g>
  </g>
  <g id="text_19">
   <!-- Voltage $v(t)$ of a LIF Neuron with $x(t)$ as random white noise and positive encoder $e=1$ and 5Hz limit -->
   <g transform="translate(7.2 16.32) scale(0.12 -0.12)">
    <defs>
     <path id="DejaVuSans-66" d="M 2375 4863 
L 2375 4384 
L 1825 4384 
Q 1516 4384 1395 4259 
Q 1275 4134 1275 3809 
L 1275 3500 
L 2222 3500 
L 2222 3053 
L 1275 3053 
L 1275 0 
L 697 0 
L 697 3053 
L 147 3053 
L 147 3500 
L 697 3500 
L 697 3744 
Q 697 4328 969 4595 
Q 1241 4863 1831 4863 
L 2375 4863 
z
" transform="scale(0.015625)"/>
     <path id="DejaVuSans-4c" d="M 628 4666 
L 1259 4666 
L 1259 531 
L 3531 531 
L 3531 0 
L 628 0 
L 628 4666 
z
" transform="scale(0.015625)"/>
     <path id="DejaVuSans-49" d="M 628 4666 
L 1259 4666 
L 1259 0 
L 628 0 
L 628 4666 
z
" transform="scale(0.015625)"/>
     <path id="DejaVuSans-46" d="M 628 4666 
L 3309 4666 
L 3309 4134 
L 1259 4134 
L 1259 2759 
L 3109 2759 
L 3109 2228 
L 1259 2228 
L 1259 0 
L 628 0 
L 628 4666 
z
" transform="scale(0.015625)"/>
     <path id="DejaVuSans-4e" d="M 628 4666 
L 1478 4666 
L 3547 763 
L 3547 4666 
L 4159 4666 
L 4159 0 
L 3309 0 
L 1241 3903 
L 1241 0 
L 628 0 
L 628 4666 
z
" transform="scale(0.015625)"/>
     <path id="DejaVuSans-75" d="M 544 1381 
L 544 3500 
L 1119 3500 
L 1119 1403 
Q 1119 906 1312 657 
Q 1506 409 1894 409 
Q 2359 409 2629 706 
Q 2900 1003 2900 1516 
L 2900 3500 
L 3475 3500 
L 3475 0 
L 2900 0 
L 2900 538 
Q 2691 219 2414 64 
Q 2138 -91 1772 -91 
Q 1169 -91 856 284 
Q 544 659 544 1381 
z
M 1991 3584 
L 1991 3584 
z
" transform="scale(0.015625)"/>
     <path id="DejaVuSans-72" d="M 2631 2963 
Q 2534 3019 2420 3045 
Q 2306 3072 2169 3072 
Q 1681 3072 1420 2755 
Q 1159 2438 1159 1844 
L 1159 0 
L 581 0 
L 581 3500 
L 1159 3500 
L 1159 2956 
Q 1341 3275 1631 3429 
Q 1922 3584 2338 3584 
Q 2397 3584 2469 3576 
Q 2541 3569 2628 3553 
L 2631 2963 
z
" transform="scale(0.015625)"/>
     <path id="DejaVuSans-6e" d="M 3513 2113 
L 3513 0 
L 2938 0 
L 2938 2094 
Q 2938 2591 2744 2837 
Q 2550 3084 2163 3084 
Q 1697 3084 1428 2787 
Q 1159 2491 1159 1978 
L 1159 0 
L 581 0 
L 581 3500 
L 1159 3500 
L 1159 2956 
Q 1366 3272 1645 3428 
Q 1925 3584 2291 3584 
Q 2894 3584 3203 3211 
Q 3513 2838 3513 2113 
z
" transform="scale(0.015625)"/>
     <path id="DejaVuSans-77" d="M 269 3500 
L 844 3500 
L 1563 769 
L 2278 3500 
L 2956 3500 
L 3675 769 
L 4391 3500 
L 4966 3500 
L 4050 0 
L 3372 0 
L 2619 2869 
L 1863 0 
L 1184 0 
L 269 3500 
z
" transform="scale(0.015625)"/>
     <path id="DejaVuSans-69" d="M 603 3500 
L 1178 3500 
L 1178 0 
L 603 0 
L 603 3500 
z
M 603 4863 
L 1178 4863 
L 1178 4134 
L 603 4134 
L 603 4863 
z
" transform="scale(0.015625)"/>
     <path id="DejaVuSans-68" d="M 3513 2113 
L 3513 0 
L 2938 0 
L 2938 2094 
Q 2938 2591 2744 2837 
Q 2550 3084 2163 3084 
Q 1697 3084 1428 2787 
Q 1159 2491 1159 1978 
L 1159 0 
L 581 0 
L 581 4863 
L 1159 4863 
L 1159 2956 
Q 1366 3272 1645 3428 
Q 1925 3584 2291 3584 
Q 2894 3584 3203 3211 
Q 3513 2838 3513 2113 
z
" transform="scale(0.015625)"/>
     <path id="DejaVuSans-64" d="M 2906 2969 
L 2906 4863 
L 3481 4863 
L 3481 0 
L 2906 0 
L 2906 525 
Q 2725 213 2448 61 
Q 2172 -91 1784 -91 
Q 1150 -91 751 415 
Q 353 922 353 1747 
Q 353 2572 751 3078 
Q 1150 3584 1784 3584 
Q 2172 3584 2448 3432 
Q 2725 3281 2906 2969 
z
M 947 1747 
Q 947 1113 1208 752 
Q 1469 391 1925 391 
Q 2381 391 2643 752 
Q 2906 1113 2906 1747 
Q 2906 2381 2643 2742 
Q 2381 3103 1925 3103 
Q 1469 3103 1208 2742 
Q 947 2381 947 1747 
z
" transform="scale(0.015625)"/>
     <path id="DejaVuSans-6d" d="M 3328 2828 
Q 3544 3216 3844 3400 
Q 4144 3584 4550 3584 
Q 5097 3584 5394 3201 
Q 5691 2819 5691 2113 
L 5691 0 
L 5113 0 
L 5113 2094 
Q 5113 2597 4934 2840 
Q 4756 3084 4391 3084 
Q 3944 3084 3684 2787 
Q 3425 2491 3425 1978 
L 3425 0 
L 2847 0 
L 2847 2094 
Q 2847 2600 2669 2842 
Q 2491 3084 2119 3084 
Q 1678 3084 1418 2786 
Q 1159 2488 1159 1978 
L 1159 0 
L 581 0 
L 581 3500 
L 1159 3500 
L 1159 2956 
Q 1356 3278 1631 3431 
Q 1906 3584 2284 3584 
Q 2666 3584 2933 3390 
Q 3200 3197 3328 2828 
z
" transform="scale(0.015625)"/>
     <path id="DejaVuSans-70" d="M 1159 525 
L 1159 -1331 
L 581 -1331 
L 581 3500 
L 1159 3500 
L 1159 2969 
Q 1341 3281 1617 3432 
Q 1894 3584 2278 3584 
Q 2916 3584 3314 3078 
Q 3713 2572 3713 1747 
Q 3713 922 3314 415 
Q 2916 -91 2278 -91 
Q 1894 -91 1617 61 
Q 1341 213 1159 525 
z
M 3116 1747 
Q 3116 2381 2855 2742 
Q 2594 3103 2138 3103 
Q 1681 3103 1420 2742 
Q 1159 2381 1159 1747 
Q 1159 1113 1420 752 
Q 1681 391 2138 391 
Q 2594 391 2855 752 
Q 3116 1113 3116 1747 
z
" transform="scale(0.015625)"/>
     <path id="DejaVuSans-76" d="M 191 3500 
L 800 3500 
L 1894 563 
L 2988 3500 
L 3597 3500 
L 2284 0 
L 1503 0 
L 191 3500 
z
" transform="scale(0.015625)"/>
     <path id="DejaVuSans-Oblique-65" d="M 3078 2063 
Q 3088 2113 3092 2166 
Q 3097 2219 3097 2272 
Q 3097 2653 2873 2875 
Q 2650 3097 2266 3097 
Q 1838 3097 1509 2826 
Q 1181 2556 1013 2059 
L 3078 2063 
z
M 3578 1613 
L 903 1613 
Q 884 1494 878 1425 
Q 872 1356 872 1306 
Q 872 872 1139 634 
Q 1406 397 1894 397 
Q 2269 397 2603 481 
Q 2938 566 3225 728 
L 3116 159 
Q 2806 34 2476 -28 
Q 2147 -91 1806 -91 
Q 1078 -91 686 257 
Q 294 606 294 1247 
Q 294 1794 489 2264 
Q 684 2734 1063 3103 
Q 1306 3334 1642 3459 
Q 1978 3584 2356 3584 
Q 2950 3584 3301 3228 
Q 3653 2872 3653 2272 
Q 3653 2128 3634 1964 
Q 3616 1800 3578 1613 
z
" transform="scale(0.015625)"/>
     <path id="DejaVuSans-3d" d="M 678 2906 
L 4684 2906 
L 4684 2381 
L 678 2381 
L 678 2906 
z
M 678 1631 
L 4684 1631 
L 4684 1100 
L 678 1100 
L 678 1631 
z
" transform="scale(0.015625)"/>
     <path id="DejaVuSans-48" d="M 628 4666 
L 1259 4666 
L 1259 2753 
L 3553 2753 
L 3553 4666 
L 4184 4666 
L 4184 0 
L 3553 0 
L 3553 2222 
L 1259 2222 
L 1259 0 
L 628 0 
L 628 4666 
z
" transform="scale(0.015625)"/>
     <path id="DejaVuSans-7a" d="M 353 3500 
L 3084 3500 
L 3084 2975 
L 922 459 
L 3084 459 
L 3084 0 
L 275 0 
L 275 525 
L 2438 3041 
L 353 3041 
L 353 3500 
z
" transform="scale(0.015625)"/>
    </defs>
    <use xlink:href="#DejaVuSans-56" transform="translate(0 0.015625)"/>
    <use xlink:href="#DejaVuSans-6f" transform="translate(68.408203 0.015625)"/>
    <use xlink:href="#DejaVuSans-6c" transform="translate(129.589844 0.015625)"/>
    <use xlink:href="#DejaVuSans-74" transform="translate(157.373047 0.015625)"/>
    <use xlink:href="#DejaVuSans-61" transform="translate(196.582031 0.015625)"/>
    <use xlink:href="#DejaVuSans-67" transform="translate(257.861328 0.015625)"/>
    <use xlink:href="#DejaVuSans-65" transform="translate(321.337891 0.015625)"/>
    <use xlink:href="#DejaVuSans-20" transform="translate(382.861328 0.015625)"/>
    <use xlink:href="#DejaVuSans-Oblique-76" transform="translate(414.648438 0.015625)"/>
    <use xlink:href="#DejaVuSans-28" transform="translate(473.828125 0.015625)"/>
    <use xlink:href="#DejaVuSans-Oblique-74" transform="translate(512.841797 0.015625)"/>
    <use xlink:href="#DejaVuSans-29" transform="translate(552.050781 0.015625)"/>
    <use xlink:href="#DejaVuSans-20" transform="translate(591.064453 0.015625)"/>
    <use xlink:href="#DejaVuSans-6f" transform="translate(622.851562 0.015625)"/>
    <use xlink:href="#DejaVuSans-66" transform="translate(684.033203 0.015625)"/>
    <use xlink:href="#DejaVuSans-20" transform="translate(719.238281 0.015625)"/>
    <use xlink:href="#DejaVuSans-61" transform="translate(751.025391 0.015625)"/>
    <use xlink:href="#DejaVuSans-20" transform="translate(812.304688 0.015625)"/>
    <use xlink:href="#DejaVuSans-4c" transform="translate(844.091797 0.015625)"/>
    <use xlink:href="#DejaVuSans-49" transform="translate(899.804688 0.015625)"/>
    <use xlink:href="#DejaVuSans-46" transform="translate(929.296875 0.015625)"/>
    <use xlink:href="#DejaVuSans-20" transform="translate(986.816406 0.015625)"/>
    <use xlink:href="#DejaVuSans-4e" transform="translate(1018.603516 0.015625)"/>
    <use xlink:href="#DejaVuSans-65" transform="translate(1093.408203 0.015625)"/>
    <use xlink:href="#DejaVuSans-75" transform="translate(1154.931641 0.015625)"/>
    <use xlink:href="#DejaVuSans-72" transform="translate(1218.310547 0.015625)"/>
    <use xlink:href="#DejaVuSans-6f" transform="translate(1259.423828 0.015625)"/>
    <use xlink:href="#DejaVuSans-6e" transform="translate(1320.605469 0.015625)"/>
    <use xlink:href="#DejaVuSans-20" transform="translate(1383.984375 0.015625)"/>
    <use xlink:href="#DejaVuSans-77" transform="translate(1415.771484 0.015625)"/>
    <use xlink:href="#DejaVuSans-69" transform="translate(1497.558594 0.015625)"/>
    <use xlink:href="#DejaVuSans-74" transform="translate(1525.341797 0.015625)"/>
    <use xlink:href="#DejaVuSans-68" transform="translate(1564.550781 0.015625)"/>
    <use xlink:href="#DejaVuSans-20" transform="translate(1627.929688 0.015625)"/>
    <use xlink:href="#DejaVuSans-Oblique-78" transform="translate(1659.716797 0.015625)"/>
    <use xlink:href="#DejaVuSans-28" transform="translate(1718.896484 0.015625)"/>
    <use xlink:href="#DejaVuSans-Oblique-74" transform="translate(1757.910156 0.015625)"/>
    <use xlink:href="#DejaVuSans-29" transform="translate(1797.119141 0.015625)"/>
    <use xlink:href="#DejaVuSans-20" transform="translate(1836.132812 0.015625)"/>
    <use xlink:href="#DejaVuSans-61" transform="translate(1867.919922 0.015625)"/>
    <use xlink:href="#DejaVuSans-73" transform="translate(1929.199219 0.015625)"/>
    <use xlink:href="#DejaVuSans-20" transform="translate(1981.298828 0.015625)"/>
    <use xlink:href="#DejaVuSans-72" transform="translate(2013.085938 0.015625)"/>
    <use xlink:href="#DejaVuSans-61" transform="translate(2054.199219 0.015625)"/>
    <use xlink:href="#DejaVuSans-6e" transform="translate(2115.478516 0.015625)"/>
    <use xlink:href="#DejaVuSans-64" transform="translate(2178.857422 0.015625)"/>
    <use xlink:href="#DejaVuSans-6f" transform="translate(2242.333984 0.015625)"/>
    <use xlink:href="#DejaVuSans-6d" transform="translate(2303.515625 0.015625)"/>
    <use xlink:href="#DejaVuSans-20" transform="translate(2400.927734 0.015625)"/>
    <use xlink:href="#DejaVuSans-77" transform="translate(2432.714844 0.015625)"/>
    <use xlink:href="#DejaVuSans-68" transform="translate(2514.501953 0.015625)"/>
    <use xlink:href="#DejaVuSans-69" transform="translate(2577.880859 0.015625)"/>
    <use xlink:href="#DejaVuSans-74" transform="translate(2605.664062 0.015625)"/>
    <use xlink:href="#DejaVuSans-65" transform="translate(2644.873047 0.015625)"/>
    <use xlink:href="#DejaVuSans-20" transform="translate(2706.396484 0.015625)"/>
    <use xlink:href="#DejaVuSans-6e" transform="translate(2738.183594 0.015625)"/>
    <use xlink:href="#DejaVuSans-6f" transform="translate(2801.5625 0.015625)"/>
    <use xlink:href="#DejaVuSans-69" transform="translate(2862.744141 0.015625)"/>
    <use xlink:href="#DejaVuSans-73" transform="translate(2890.527344 0.015625)"/>
    <use xlink:href="#DejaVuSans-65" transform="translate(2942.626953 0.015625)"/>
    <use xlink:href="#DejaVuSans-20" transform="translate(3004.150391 0.015625)"/>
    <use xlink:href="#DejaVuSans-61" transform="translate(3035.9375 0.015625)"/>
    <use xlink:href="#DejaVuSans-6e" transform="translate(3097.216797 0.015625)"/>
    <use xlink:href="#DejaVuSans-64" transform="translate(3160.595703 0.015625)"/>
    <use xlink:href="#DejaVuSans-20" transform="translate(3224.072266 0.015625)"/>
    <use xlink:href="#DejaVuSans-70" transform="translate(3255.859375 0.015625)"/>
    <use xlink:href="#DejaVuSans-6f" transform="translate(3319.335938 0.015625)"/>
    <use xlink:href="#DejaVuSans-73" transform="translate(3380.517578 0.015625)"/>
    <use xlink:href="#DejaVuSans-69" transform="translate(3432.617188 0.015625)"/>
    <use xlink:href="#DejaVuSans-74" transform="translate(3460.400391 0.015625)"/>
    <use xlink:href="#DejaVuSans-69" transform="translate(3499.609375 0.015625)"/>
    <use xlink:href="#DejaVuSans-76" transform="translate(3527.392578 0.015625)"/>
    <use xlink:href="#DejaVuSans-65" transform="translate(3586.572266 0.015625)"/>
    <use xlink:href="#DejaVuSans-20" transform="translate(3648.095703 0.015625)"/>
    <use xlink:href="#DejaVuSans-65" transform="translate(3679.882812 0.015625)"/>
    <use xlink:href="#DejaVuSans-6e" transform="translate(3741.40625 0.015625)"/>
    <use xlink:href="#DejaVuSans-63" transform="translate(3804.785156 0.015625)"/>
    <use xlink:href="#DejaVuSans-6f" transform="translate(3859.765625 0.015625)"/>
    <use xlink:href="#DejaVuSans-64" transform="translate(3920.947266 0.015625)"/>
    <use xlink:href="#DejaVuSans-65" transform="translate(3984.423828 0.015625)"/>
    <use xlink:href="#DejaVuSans-72" transform="translate(4045.947266 0.015625)"/>
    <use xlink:href="#DejaVuSans-20" transform="translate(4087.060547 0.015625)"/>
    <use xlink:href="#DejaVuSans-Oblique-65" transform="translate(4118.847656 0.015625)"/>
    <use xlink:href="#DejaVuSans-3d" transform="translate(4199.853516 0.015625)"/>
    <use xlink:href="#DejaVuSans-31" transform="translate(4303.125 0.015625)"/>
    <use xlink:href="#DejaVuSans-20" transform="translate(4366.748047 0.015625)"/>
    <use xlink:href="#DejaVuSans-61" transform="translate(4398.535156 0.015625)"/>
    <use xlink:href="#DejaVuSans-6e" transform="translate(4459.814453 0.015625)"/>
    <use xlink:href="#DejaVuSans-64" transform="translate(4523.193359 0.015625)"/>
    <use xlink:href="#DejaVuSans-20" transform="translate(4586.669922 0.015625)"/>
    <use xlink:href="#DejaVuSans-35" transform="translate(4618.457031 0.015625)"/>
    <use xlink:href="#DejaVuSans-48" transform="translate(4677.580078 0.015625)"/>
    <use xlink:href="#DejaVuSans-7a" transform="translate(4752.775391 0.015625)"/>
    <use xlink:href="#DejaVuSans-20" transform="translate(4805.265625 0.015625)"/>
    <use xlink:href="#DejaVuSans-6c" transform="translate(4837.052734 0.015625)"/>
    <use xlink:href="#DejaVuSans-69" transform="translate(4864.835938 0.015625)"/>
    <use xlink:href="#DejaVuSans-6d" transform="translate(4892.619141 0.015625)"/>
    <use xlink:href="#DejaVuSans-69" transform="translate(4990.03125 0.015625)"/>
    <use xlink:href="#DejaVuSans-74" transform="translate(5017.814453 0.015625)"/>
   </g>
  </g>
 </g>
 <defs>
  <clipPath id="pd80f900cde">
   <rect x="148.68" y="36" width="334.8" height="217.44"/>
  </clipPath>
 </defs>
</svg>
