<?xml version="1.0" encoding="utf-8" standalone="no"?>
<!DOCTYPE svg PUBLIC "-//W3C//DTD SVG 1.1//EN"
  "http://www.w3.org/Graphics/SVG/1.1/DTD/svg11.dtd">
<svg xmlns:xlink="http://www.w3.org/1999/xlink" width="592.68pt" height="290.99625pt" viewBox="0 0 592.68 290.99625" xmlns="http://www.w3.org/2000/svg" version="1.1">
 <metadata>
  <rdf:RDF xmlns:dc="http://purl.org/dc/elements/1.1/" xmlns:cc="http://creativecommons.org/ns#" xmlns:rdf="http://www.w3.org/1999/02/22-rdf-syntax-ns#">
   <cc:Work>
    <dc:type rdf:resource="http://purl.org/dc/dcmitype/StillImage"/>
    <dc:date>2022-10-17T21:20:05.902449</dc:date>
    <dc:format>image/svg+xml</dc:format>
    <dc:creator>
     <cc:Agent>
      <dc:title>Matplotlib v3.6.0, https://matplotlib.org/</dc:title>
     </cc:Agent>
    </dc:creator>
   </cc:Work>
  </rdf:RDF>
 </metadata>
 <defs>
  <style type="text/css">*{stroke-linejoin: round; stroke-linecap: butt}</style>
 </defs>
 <g id="figure_1">
  <g id="patch_1">
   <path d="M -0 290.99625 
L 592.68 290.99625 
L 592.68 0 
L -0 0 
L -0 290.99625 
z
" style="fill: none"/>
  </g>
  <g id="axes_1">
   <g id="patch_2">
    <path d="M 134.34 253.44 
L 469.14 253.44 
L 469.14 36 
L 134.34 36 
z
" style="fill: #ffffff"/>
   </g>
   <g id="matplotlib.axis_1">
    <g id="xtick_1">
     <g id="line2d_1">
      <defs>
       <path id="m25757ba0a3" d="M 0 0 
L 0 3.5 
" style="stroke: #000000; stroke-width: 0.8"/>
      </defs>
      <g>
       <use xlink:href="#m25757ba0a3" x="134.34" y="253.44" style="stroke: #000000; stroke-width: 0.8"/>
      </g>
     </g>
     <g id="text_1">
      <!-- −0.01 -->
      <g transform="translate(119.017344 268.038437) scale(0.1 -0.1)">
       <defs>
        <path id="DejaVuSans-2212" d="M 678 2272 
L 4684 2272 
L 4684 1741 
L 678 1741 
L 678 2272 
z
" transform="scale(0.015625)"/>
        <path id="DejaVuSans-30" d="M 2034 4250 
Q 1547 4250 1301 3770 
Q 1056 3291 1056 2328 
Q 1056 1369 1301 889 
Q 1547 409 2034 409 
Q 2525 409 2770 889 
Q 3016 1369 3016 2328 
Q 3016 3291 2770 3770 
Q 2525 4250 2034 4250 
z
M 2034 4750 
Q 2819 4750 3233 4129 
Q 3647 3509 3647 2328 
Q 3647 1150 3233 529 
Q 2819 -91 2034 -91 
Q 1250 -91 836 529 
Q 422 1150 422 2328 
Q 422 3509 836 4129 
Q 1250 4750 2034 4750 
z
" transform="scale(0.015625)"/>
        <path id="DejaVuSans-2e" d="M 684 794 
L 1344 794 
L 1344 0 
L 684 0 
L 684 794 
z
" transform="scale(0.015625)"/>
        <path id="DejaVuSans-31" d="M 794 531 
L 1825 531 
L 1825 4091 
L 703 3866 
L 703 4441 
L 1819 4666 
L 2450 4666 
L 2450 531 
L 3481 531 
L 3481 0 
L 794 0 
L 794 531 
z
" transform="scale(0.015625)"/>
       </defs>
       <use xlink:href="#DejaVuSans-2212"/>
       <use xlink:href="#DejaVuSans-30" x="83.789062"/>
       <use xlink:href="#DejaVuSans-2e" x="147.412109"/>
       <use xlink:href="#DejaVuSans-30" x="179.199219"/>
       <use xlink:href="#DejaVuSans-31" x="242.822266"/>
      </g>
     </g>
    </g>
    <g id="xtick_2">
     <g id="line2d_2">
      <g>
       <use xlink:href="#m25757ba0a3" x="182.168571" y="253.44" style="stroke: #000000; stroke-width: 0.8"/>
      </g>
     </g>
     <g id="text_2">
      <!-- 0.00 -->
      <g transform="translate(171.035759 268.038437) scale(0.1 -0.1)">
       <use xlink:href="#DejaVuSans-30"/>
       <use xlink:href="#DejaVuSans-2e" x="63.623047"/>
       <use xlink:href="#DejaVuSans-30" x="95.410156"/>
       <use xlink:href="#DejaVuSans-30" x="159.033203"/>
      </g>
     </g>
    </g>
    <g id="xtick_3">
     <g id="line2d_3">
      <g>
       <use xlink:href="#m25757ba0a3" x="229.997143" y="253.44" style="stroke: #000000; stroke-width: 0.8"/>
      </g>
     </g>
     <g id="text_3">
      <!-- 0.01 -->
      <g transform="translate(218.86433 268.038437) scale(0.1 -0.1)">
       <use xlink:href="#DejaVuSans-30"/>
       <use xlink:href="#DejaVuSans-2e" x="63.623047"/>
       <use xlink:href="#DejaVuSans-30" x="95.410156"/>
       <use xlink:href="#DejaVuSans-31" x="159.033203"/>
      </g>
     </g>
    </g>
    <g id="xtick_4">
     <g id="line2d_4">
      <g>
       <use xlink:href="#m25757ba0a3" x="277.825714" y="253.44" style="stroke: #000000; stroke-width: 0.8"/>
      </g>
     </g>
     <g id="text_4">
      <!-- 0.02 -->
      <g transform="translate(266.692902 268.038437) scale(0.1 -0.1)">
       <defs>
        <path id="DejaVuSans-32" d="M 1228 531 
L 3431 531 
L 3431 0 
L 469 0 
L 469 531 
Q 828 903 1448 1529 
Q 2069 2156 2228 2338 
Q 2531 2678 2651 2914 
Q 2772 3150 2772 3378 
Q 2772 3750 2511 3984 
Q 2250 4219 1831 4219 
Q 1534 4219 1204 4116 
Q 875 4013 500 3803 
L 500 4441 
Q 881 4594 1212 4672 
Q 1544 4750 1819 4750 
Q 2544 4750 2975 4387 
Q 3406 4025 3406 3419 
Q 3406 3131 3298 2873 
Q 3191 2616 2906 2266 
Q 2828 2175 2409 1742 
Q 1991 1309 1228 531 
z
" transform="scale(0.015625)"/>
       </defs>
       <use xlink:href="#DejaVuSans-30"/>
       <use xlink:href="#DejaVuSans-2e" x="63.623047"/>
       <use xlink:href="#DejaVuSans-30" x="95.410156"/>
       <use xlink:href="#DejaVuSans-32" x="159.033203"/>
      </g>
     </g>
    </g>
    <g id="xtick_5">
     <g id="line2d_5">
      <g>
       <use xlink:href="#m25757ba0a3" x="325.654286" y="253.44" style="stroke: #000000; stroke-width: 0.8"/>
      </g>
     </g>
     <g id="text_5">
      <!-- 0.03 -->
      <g transform="translate(314.521473 268.038437) scale(0.1 -0.1)">
       <defs>
        <path id="DejaVuSans-33" d="M 2597 2516 
Q 3050 2419 3304 2112 
Q 3559 1806 3559 1356 
Q 3559 666 3084 287 
Q 2609 -91 1734 -91 
Q 1441 -91 1130 -33 
Q 819 25 488 141 
L 488 750 
Q 750 597 1062 519 
Q 1375 441 1716 441 
Q 2309 441 2620 675 
Q 2931 909 2931 1356 
Q 2931 1769 2642 2001 
Q 2353 2234 1838 2234 
L 1294 2234 
L 1294 2753 
L 1863 2753 
Q 2328 2753 2575 2939 
Q 2822 3125 2822 3475 
Q 2822 3834 2567 4026 
Q 2313 4219 1838 4219 
Q 1578 4219 1281 4162 
Q 984 4106 628 3988 
L 628 4550 
Q 988 4650 1302 4700 
Q 1616 4750 1894 4750 
Q 2613 4750 3031 4423 
Q 3450 4097 3450 3541 
Q 3450 3153 3228 2886 
Q 3006 2619 2597 2516 
z
" transform="scale(0.015625)"/>
       </defs>
       <use xlink:href="#DejaVuSans-30"/>
       <use xlink:href="#DejaVuSans-2e" x="63.623047"/>
       <use xlink:href="#DejaVuSans-30" x="95.410156"/>
       <use xlink:href="#DejaVuSans-33" x="159.033203"/>
      </g>
     </g>
    </g>
    <g id="xtick_6">
     <g id="line2d_6">
      <g>
       <use xlink:href="#m25757ba0a3" x="373.482857" y="253.44" style="stroke: #000000; stroke-width: 0.8"/>
      </g>
     </g>
     <g id="text_6">
      <!-- 0.04 -->
      <g transform="translate(362.350045 268.038437) scale(0.1 -0.1)">
       <defs>
        <path id="DejaVuSans-34" d="M 2419 4116 
L 825 1625 
L 2419 1625 
L 2419 4116 
z
M 2253 4666 
L 3047 4666 
L 3047 1625 
L 3713 1625 
L 3713 1100 
L 3047 1100 
L 3047 0 
L 2419 0 
L 2419 1100 
L 313 1100 
L 313 1709 
L 2253 4666 
z
" transform="scale(0.015625)"/>
       </defs>
       <use xlink:href="#DejaVuSans-30"/>
       <use xlink:href="#DejaVuSans-2e" x="63.623047"/>
       <use xlink:href="#DejaVuSans-30" x="95.410156"/>
       <use xlink:href="#DejaVuSans-34" x="159.033203"/>
      </g>
     </g>
    </g>
    <g id="xtick_7">
     <g id="line2d_7">
      <g>
       <use xlink:href="#m25757ba0a3" x="421.311429" y="253.44" style="stroke: #000000; stroke-width: 0.8"/>
      </g>
     </g>
     <g id="text_7">
      <!-- 0.05 -->
      <g transform="translate(410.178616 268.038437) scale(0.1 -0.1)">
       <defs>
        <path id="DejaVuSans-35" d="M 691 4666 
L 3169 4666 
L 3169 4134 
L 1269 4134 
L 1269 2991 
Q 1406 3038 1543 3061 
Q 1681 3084 1819 3084 
Q 2600 3084 3056 2656 
Q 3513 2228 3513 1497 
Q 3513 744 3044 326 
Q 2575 -91 1722 -91 
Q 1428 -91 1123 -41 
Q 819 9 494 109 
L 494 744 
Q 775 591 1075 516 
Q 1375 441 1709 441 
Q 2250 441 2565 725 
Q 2881 1009 2881 1497 
Q 2881 1984 2565 2268 
Q 2250 2553 1709 2553 
Q 1456 2553 1204 2497 
Q 953 2441 691 2322 
L 691 4666 
z
" transform="scale(0.015625)"/>
       </defs>
       <use xlink:href="#DejaVuSans-30"/>
       <use xlink:href="#DejaVuSans-2e" x="63.623047"/>
       <use xlink:href="#DejaVuSans-30" x="95.410156"/>
       <use xlink:href="#DejaVuSans-35" x="159.033203"/>
      </g>
     </g>
    </g>
    <g id="xtick_8">
     <g id="line2d_8">
      <g>
       <use xlink:href="#m25757ba0a3" x="469.14" y="253.44" style="stroke: #000000; stroke-width: 0.8"/>
      </g>
     </g>
     <g id="text_8">
      <!-- 0.06 -->
      <g transform="translate(458.007188 268.038437) scale(0.1 -0.1)">
       <defs>
        <path id="DejaVuSans-36" d="M 2113 2584 
Q 1688 2584 1439 2293 
Q 1191 2003 1191 1497 
Q 1191 994 1439 701 
Q 1688 409 2113 409 
Q 2538 409 2786 701 
Q 3034 994 3034 1497 
Q 3034 2003 2786 2293 
Q 2538 2584 2113 2584 
z
M 3366 4563 
L 3366 3988 
Q 3128 4100 2886 4159 
Q 2644 4219 2406 4219 
Q 1781 4219 1451 3797 
Q 1122 3375 1075 2522 
Q 1259 2794 1537 2939 
Q 1816 3084 2150 3084 
Q 2853 3084 3261 2657 
Q 3669 2231 3669 1497 
Q 3669 778 3244 343 
Q 2819 -91 2113 -91 
Q 1303 -91 875 529 
Q 447 1150 447 2328 
Q 447 3434 972 4092 
Q 1497 4750 2381 4750 
Q 2619 4750 2861 4703 
Q 3103 4656 3366 4563 
z
" transform="scale(0.015625)"/>
       </defs>
       <use xlink:href="#DejaVuSans-30"/>
       <use xlink:href="#DejaVuSans-2e" x="63.623047"/>
       <use xlink:href="#DejaVuSans-30" x="95.410156"/>
       <use xlink:href="#DejaVuSans-36" x="159.033203"/>
      </g>
     </g>
    </g>
    <g id="text_9">
     <!-- $t$ -->
     <g transform="translate(299.74 281.716562) scale(0.1 -0.1)">
      <defs>
       <path id="DejaVuSans-Oblique-74" d="M 2706 3500 
L 2619 3053 
L 1472 3053 
L 1100 1153 
Q 1081 1047 1072 975 
Q 1063 903 1063 863 
Q 1063 663 1183 572 
Q 1303 481 1569 481 
L 2150 481 
L 2053 0 
L 1503 0 
Q 991 0 739 200 
Q 488 400 488 806 
Q 488 878 497 964 
Q 506 1050 525 1153 
L 897 3053 
L 409 3053 
L 500 3500 
L 978 3500 
L 1172 4494 
L 1747 4494 
L 1556 3500 
L 2706 3500 
z
" transform="scale(0.015625)"/>
      </defs>
      <use xlink:href="#DejaVuSans-Oblique-74" transform="translate(0 0.78125)"/>
     </g>
    </g>
   </g>
   <g id="matplotlib.axis_2">
    <g id="ytick_1">
     <g id="line2d_9">
      <defs>
       <path id="m515ca10558" d="M 0 0 
L -3.5 0 
" style="stroke: #000000; stroke-width: 0.8"/>
      </defs>
      <g>
       <use xlink:href="#m515ca10558" x="134.34" y="243.556364" style="stroke: #000000; stroke-width: 0.8"/>
      </g>
     </g>
     <g id="text_10">
      <!-- 0.00 -->
      <g transform="translate(105.074375 247.355582) scale(0.1 -0.1)">
       <use xlink:href="#DejaVuSans-30"/>
       <use xlink:href="#DejaVuSans-2e" x="63.623047"/>
       <use xlink:href="#DejaVuSans-30" x="95.410156"/>
       <use xlink:href="#DejaVuSans-30" x="159.033203"/>
      </g>
     </g>
    </g>
    <g id="ytick_2">
     <g id="line2d_10">
      <g>
       <use xlink:href="#m515ca10558" x="134.34" y="218.847273" style="stroke: #000000; stroke-width: 0.8"/>
      </g>
     </g>
     <g id="text_11">
      <!-- 0.05 -->
      <g transform="translate(105.074375 222.646491) scale(0.1 -0.1)">
       <use xlink:href="#DejaVuSans-30"/>
       <use xlink:href="#DejaVuSans-2e" x="63.623047"/>
       <use xlink:href="#DejaVuSans-30" x="95.410156"/>
       <use xlink:href="#DejaVuSans-35" x="159.033203"/>
      </g>
     </g>
    </g>
    <g id="ytick_3">
     <g id="line2d_11">
      <g>
       <use xlink:href="#m515ca10558" x="134.34" y="194.138182" style="stroke: #000000; stroke-width: 0.8"/>
      </g>
     </g>
     <g id="text_12">
      <!-- 0.10 -->
      <g transform="translate(105.074375 197.937401) scale(0.1 -0.1)">
       <use xlink:href="#DejaVuSans-30"/>
       <use xlink:href="#DejaVuSans-2e" x="63.623047"/>
       <use xlink:href="#DejaVuSans-31" x="95.410156"/>
       <use xlink:href="#DejaVuSans-30" x="159.033203"/>
      </g>
     </g>
    </g>
    <g id="ytick_4">
     <g id="line2d_12">
      <g>
       <use xlink:href="#m515ca10558" x="134.34" y="169.429091" style="stroke: #000000; stroke-width: 0.8"/>
      </g>
     </g>
     <g id="text_13">
      <!-- 0.15 -->
      <g transform="translate(105.074375 173.22831) scale(0.1 -0.1)">
       <use xlink:href="#DejaVuSans-30"/>
       <use xlink:href="#DejaVuSans-2e" x="63.623047"/>
       <use xlink:href="#DejaVuSans-31" x="95.410156"/>
       <use xlink:href="#DejaVuSans-35" x="159.033203"/>
      </g>
     </g>
    </g>
    <g id="ytick_5">
     <g id="line2d_13">
      <g>
       <use xlink:href="#m515ca10558" x="134.34" y="144.72" style="stroke: #000000; stroke-width: 0.8"/>
      </g>
     </g>
     <g id="text_14">
      <!-- 0.20 -->
      <g transform="translate(105.074375 148.519219) scale(0.1 -0.1)">
       <use xlink:href="#DejaVuSans-30"/>
       <use xlink:href="#DejaVuSans-2e" x="63.623047"/>
       <use xlink:href="#DejaVuSans-32" x="95.410156"/>
       <use xlink:href="#DejaVuSans-30" x="159.033203"/>
      </g>
     </g>
    </g>
    <g id="ytick_6">
     <g id="line2d_14">
      <g>
       <use xlink:href="#m515ca10558" x="134.34" y="120.010909" style="stroke: #000000; stroke-width: 0.8"/>
      </g>
     </g>
     <g id="text_15">
      <!-- 0.25 -->
      <g transform="translate(105.074375 123.810128) scale(0.1 -0.1)">
       <use xlink:href="#DejaVuSans-30"/>
       <use xlink:href="#DejaVuSans-2e" x="63.623047"/>
       <use xlink:href="#DejaVuSans-32" x="95.410156"/>
       <use xlink:href="#DejaVuSans-35" x="159.033203"/>
      </g>
     </g>
    </g>
    <g id="ytick_7">
     <g id="line2d_15">
      <g>
       <use xlink:href="#m515ca10558" x="134.34" y="95.301818" style="stroke: #000000; stroke-width: 0.8"/>
      </g>
     </g>
     <g id="text_16">
      <!-- 0.30 -->
      <g transform="translate(105.074375 99.101037) scale(0.1 -0.1)">
       <use xlink:href="#DejaVuSans-30"/>
       <use xlink:href="#DejaVuSans-2e" x="63.623047"/>
       <use xlink:href="#DejaVuSans-33" x="95.410156"/>
       <use xlink:href="#DejaVuSans-30" x="159.033203"/>
      </g>
     </g>
    </g>
    <g id="ytick_8">
     <g id="line2d_16">
      <g>
       <use xlink:href="#m515ca10558" x="134.34" y="70.592727" style="stroke: #000000; stroke-width: 0.8"/>
      </g>
     </g>
     <g id="text_17">
      <!-- 0.35 -->
      <g transform="translate(105.074375 74.391946) scale(0.1 -0.1)">
       <use xlink:href="#DejaVuSans-30"/>
       <use xlink:href="#DejaVuSans-2e" x="63.623047"/>
       <use xlink:href="#DejaVuSans-33" x="95.410156"/>
       <use xlink:href="#DejaVuSans-35" x="159.033203"/>
      </g>
     </g>
    </g>
    <g id="ytick_9">
     <g id="line2d_17">
      <g>
       <use xlink:href="#m515ca10558" x="134.34" y="45.883636" style="stroke: #000000; stroke-width: 0.8"/>
      </g>
     </g>
     <g id="text_18">
      <!-- 0.40 -->
      <g transform="translate(105.074375 49.682855) scale(0.1 -0.1)">
       <use xlink:href="#DejaVuSans-30"/>
       <use xlink:href="#DejaVuSans-2e" x="63.623047"/>
       <use xlink:href="#DejaVuSans-34" x="95.410156"/>
       <use xlink:href="#DejaVuSans-30" x="159.033203"/>
      </g>
     </g>
    </g>
   </g>
   <g id="line2d_18">
    <path d="M 129.557143 243.556364 
L 134.34 243.556364 
L 139.122857 243.556364 
L 143.905714 243.556364 
L 148.688571 243.556364 
L 153.471429 243.556364 
L 158.254286 243.556364 
L 163.037143 243.556364 
L 167.82 243.556364 
L 172.602857 243.556364 
L 177.385714 243.556364 
L 182.168571 45.883636 
L 186.951429 123.661794 
L 191.734286 170.836631 
L 196.517143 199.449616 
L 201.3 216.804269 
L 206.082857 227.330398 
L 210.865714 233.714818 
L 215.648571 237.587164 
L 220.431429 239.935861 
L 225.214286 241.360418 
L 229.997143 242.224455 
L 234.78 242.74852 
L 239.562857 243.066382 
L 244.345714 243.259175 
L 249.128571 243.376109 
L 253.911429 243.447034 
L 258.694286 243.490052 
L 263.477143 243.516143 
L 268.26 243.531969 
L 273.042857 243.541567 
L 277.825714 243.547389 
L 282.608571 243.55092 
L 287.391429 243.553062 
L 292.174286 243.554361 
L 296.957143 243.555149 
L 301.74 243.555627 
L 306.522857 243.555917 
L 311.305714 243.556093 
L 316.088571 243.556199 
L 320.871429 243.556264 
L 325.654286 243.556303 
L 330.437143 243.556327 
L 335.22 243.556341 
L 340.002857 243.55635 
L 344.785714 243.556355 
L 349.568571 243.556359 
L 354.351429 243.556361 
L 359.134286 243.556362 
L 363.917143 243.556363 
L 368.7 243.556363 
L 373.482857 243.556363 
L 378.265714 243.556363 
L 383.048571 243.556363 
L 387.831429 243.556364 
L 392.614286 243.556364 
L 397.397143 243.556364 
L 402.18 243.556364 
L 406.962857 243.556364 
L 411.745714 243.556364 
L 416.528571 243.556364 
L 421.311429 243.556364 
L 426.094286 243.556364 
L 430.877143 243.556364 
L 435.66 243.556364 
L 440.442857 243.556364 
L 445.225714 243.556364 
L 450.008571 243.556364 
L 454.791429 243.556364 
L 459.574286 243.556364 
L 464.357143 243.556364 
L 469.14 243.556364 
" clip-path="url(#p136b1bb5f7)" style="fill: none; stroke: #1f77b4; stroke-width: 1.5; stroke-linecap: square"/>
   </g>
   <g id="line2d_19">
    <path d="M 129.557143 243.556364 
L 134.34 243.556364 
L 139.122857 243.556364 
L 143.905714 243.556364 
L 148.688571 243.556364 
L 153.471429 243.556364 
L 158.254286 243.556364 
L 163.037143 243.556364 
L 167.82 243.556364 
L 172.602857 243.556364 
L 177.385714 243.556364 
L 182.168571 164.487273 
L 186.951429 178.820067 
L 191.734286 190.554767 
L 196.517143 200.162326 
L 201.3 208.028331 
L 206.082857 214.468471 
L 210.865714 219.741211 
L 215.648571 224.058166 
L 220.431429 227.59259 
L 225.214286 230.486331 
L 229.997143 232.855526 
L 234.78 234.795259 
L 239.562857 236.383378 
L 244.345714 237.683619 
L 249.128571 238.748167 
L 253.911429 239.619745 
L 258.694286 240.333333 
L 263.477143 240.91757 
L 268.26 241.395902 
L 273.042857 241.787527 
L 277.825714 242.108163 
L 282.608571 242.370677 
L 287.391429 242.585606 
L 292.174286 242.761574 
L 296.957143 242.905645 
L 301.74 243.0236 
L 306.522857 243.120174 
L 311.305714 243.199242 
L 316.088571 243.263977 
L 320.871429 243.316978 
L 325.654286 243.360371 
L 330.437143 243.395898 
L 335.22 243.424986 
L 340.002857 243.448801 
L 344.785714 243.468298 
L 349.568571 243.484262 
L 354.351429 243.497332 
L 359.134286 243.508032 
L 363.917143 243.516793 
L 368.7 243.523966 
L 373.482857 243.529839 
L 378.265714 243.534647 
L 383.048571 243.538584 
L 387.831429 243.541807 
L 392.614286 243.544445 
L 397.397143 243.546606 
L 402.18 243.548375 
L 406.962857 243.549823 
L 411.745714 243.551008 
L 416.528571 243.551979 
L 421.311429 243.552774 
L 426.094286 243.553425 
L 430.877143 243.553957 
L 435.66 243.554394 
L 440.442857 243.554751 
L 445.225714 243.555043 
L 450.008571 243.555282 
L 454.791429 243.555478 
L 459.574286 243.555639 
L 464.357143 243.55577 
L 469.14 243.555878 
" clip-path="url(#p136b1bb5f7)" style="fill: none; stroke: #ff7f0e; stroke-width: 1.5; stroke-linecap: square"/>
   </g>
   <g id="line2d_20">
    <path d="M 129.557143 243.556364 
L 134.34 243.556364 
L 139.122857 243.556364 
L 143.905714 243.556364 
L 148.688571 243.556364 
L 153.471429 243.556364 
L 158.254286 243.556364 
L 163.037143 243.556364 
L 167.82 243.556364 
L 172.602857 243.556364 
L 177.385714 243.556364 
L 182.168571 204.021818 
L 186.951429 207.784028 
L 191.734286 211.188215 
L 196.517143 214.268452 
L 201.3 217.055565 
L 206.082857 219.57745 
L 210.865714 221.859345 
L 215.648571 223.924089 
L 220.431429 225.792347 
L 225.214286 227.482817 
L 229.997143 229.012417 
L 234.78 230.396457 
L 239.562857 231.648787 
L 244.345714 232.781943 
L 249.128571 233.807265 
L 253.911429 234.735014 
L 258.694286 235.574477 
L 263.477143 236.334054 
L 268.26 237.021347 
L 273.042857 237.643236 
L 277.825714 238.205945 
L 282.608571 238.715104 
L 287.391429 239.175811 
L 292.174286 239.592676 
L 296.957143 239.969871 
L 301.74 240.311171 
L 306.522857 240.619991 
L 311.305714 240.899424 
L 316.088571 241.152265 
L 320.871429 241.381046 
L 325.654286 241.588055 
L 330.437143 241.775364 
L 335.22 241.944848 
L 340.002857 242.098204 
L 344.785714 242.236967 
L 349.568571 242.362524 
L 354.351429 242.476133 
L 359.134286 242.57893 
L 363.917143 242.671945 
L 368.7 242.756109 
L 373.482857 242.832263 
L 378.265714 242.90117 
L 383.048571 242.96352 
L 387.831429 243.019937 
L 392.614286 243.070985 
L 397.397143 243.117175 
L 402.18 243.158969 
L 406.962857 243.196786 
L 411.745714 243.231004 
L 416.528571 243.261966 
L 421.311429 243.289982 
L 426.094286 243.315332 
L 430.877143 243.338269 
L 435.66 243.359023 
L 440.442857 243.377803 
L 445.225714 243.394795 
L 450.008571 243.41017 
L 454.791429 243.424082 
L 459.574286 243.436671 
L 464.357143 243.448061 
L 469.14 243.458367 
" clip-path="url(#p136b1bb5f7)" style="fill: none; stroke: #2ca02c; stroke-width: 1.5; stroke-linecap: square"/>
   </g>
   <g id="line2d_21">
    <path d="M 129.557143 243.556364 
L 134.34 243.556364 
L 139.122857 243.556364 
L 143.905714 243.556364 
L 148.688571 243.556364 
L 153.471429 243.556364 
L 158.254286 243.556364 
L 163.037143 243.556364 
L 167.82 243.556364 
L 172.602857 243.556364 
L 177.385714 243.556364 
L 182.168571 223.789091 
L 186.951429 224.753152 
L 191.734286 225.670196 
L 196.517143 226.542514 
L 201.3 227.37229 
L 206.082857 228.161596 
L 210.865714 228.912408 
L 215.648571 229.626602 
L 220.431429 230.305964 
L 225.214286 230.952194 
L 229.997143 231.566907 
L 234.78 232.151639 
L 239.562857 232.707854 
L 244.345714 233.236942 
L 249.128571 233.740227 
L 253.911429 234.218965 
L 258.694286 234.674355 
L 263.477143 235.107536 
L 268.26 235.51959 
L 273.042857 235.911548 
L 277.825714 236.28439 
L 282.608571 236.639049 
L 287.391429 236.97641 
L 292.174286 237.297318 
L 296.957143 237.602576 
L 301.74 237.892945 
L 306.522857 238.169153 
L 311.305714 238.431891 
L 316.088571 238.681814 
L 320.871429 238.919549 
L 325.654286 239.145689 
L 330.437143 239.3608 
L 335.22 239.56542 
L 340.002857 239.760061 
L 344.785714 239.945209 
L 349.568571 240.121327 
L 354.351429 240.288855 
L 359.134286 240.448214 
L 363.917143 240.5998 
L 368.7 240.743993 
L 373.482857 240.881154 
L 378.265714 241.011626 
L 383.048571 241.135734 
L 387.831429 241.25379 
L 392.614286 241.366087 
L 397.397143 241.472908 
L 402.18 241.57452 
L 406.962857 241.671175 
L 411.745714 241.763117 
L 416.528571 241.850575 
L 421.311429 241.933767 
L 426.094286 242.012902 
L 430.877143 242.088178 
L 435.66 242.159782 
L 440.442857 242.227894 
L 445.225714 242.292684 
L 450.008571 242.354315 
L 454.791429 242.412939 
L 459.574286 242.468705 
L 464.357143 242.52175 
L 469.14 242.572209 
" clip-path="url(#p136b1bb5f7)" style="fill: none; stroke: #d62728; stroke-width: 1.5; stroke-linecap: square"/>
   </g>
   <g id="patch_3">
    <path d="M 134.34 253.44 
L 134.34 36 
" style="fill: none; stroke: #000000; stroke-width: 0.8; stroke-linejoin: miter; stroke-linecap: square"/>
   </g>
   <g id="patch_4">
    <path d="M 469.14 253.44 
L 469.14 36 
" style="fill: none; stroke: #000000; stroke-width: 0.8; stroke-linejoin: miter; stroke-linecap: square"/>
   </g>
   <g id="patch_5">
    <path d="M 134.34 253.44 
L 469.14 253.44 
" style="fill: none; stroke: #000000; stroke-width: 0.8; stroke-linejoin: miter; stroke-linecap: square"/>
   </g>
   <g id="patch_6">
    <path d="M 134.34 36 
L 469.14 36 
" style="fill: none; stroke: #000000; stroke-width: 0.8; stroke-linejoin: miter; stroke-linecap: square"/>
   </g>
   <g id="legend_1">
    <g id="patch_7">
     <path d="M 278.84 102.7125 
L 462.14 102.7125 
Q 464.14 102.7125 464.14 100.7125 
L 464.14 43 
Q 464.14 41 462.14 41 
L 278.84 41 
Q 276.84 41 276.84 43 
L 276.84 100.7125 
Q 276.84 102.7125 278.84 102.7125 
z
" style="fill: #ffffff; opacity: 0.8; stroke: #cccccc; stroke-linejoin: miter"/>
    </g>
    <g id="line2d_22">
     <path d="M 280.84 49.098437 
L 290.84 49.098437 
L 300.84 49.098437 
" style="fill: none; stroke: #1f77b4; stroke-width: 1.5; stroke-linecap: square"/>
    </g>
    <g id="text_19">
     <!-- $h(t)$ with $n=0$ and $\tau=2.0ms$ -->
     <g transform="translate(308.84 52.598437) scale(0.1 -0.1)">
      <defs>
       <path id="DejaVuSans-Oblique-68" d="M 3566 2113 
L 3156 0 
L 2578 0 
L 2988 2091 
Q 3016 2238 3031 2350 
Q 3047 2463 3047 2528 
Q 3047 2791 2881 2937 
Q 2716 3084 2419 3084 
Q 1956 3084 1617 2771 
Q 1278 2459 1178 1941 
L 800 0 
L 225 0 
L 1172 4863 
L 1747 4863 
L 1375 2950 
Q 1594 3244 1934 3414 
Q 2275 3584 2650 3584 
Q 3113 3584 3367 3334 
Q 3622 3084 3622 2631 
Q 3622 2519 3608 2391 
Q 3594 2263 3566 2113 
z
" transform="scale(0.015625)"/>
       <path id="DejaVuSans-28" d="M 1984 4856 
Q 1566 4138 1362 3434 
Q 1159 2731 1159 2009 
Q 1159 1288 1364 580 
Q 1569 -128 1984 -844 
L 1484 -844 
Q 1016 -109 783 600 
Q 550 1309 550 2009 
Q 550 2706 781 3412 
Q 1013 4119 1484 4856 
L 1984 4856 
z
" transform="scale(0.015625)"/>
       <path id="DejaVuSans-29" d="M 513 4856 
L 1013 4856 
Q 1481 4119 1714 3412 
Q 1947 2706 1947 2009 
Q 1947 1309 1714 600 
Q 1481 -109 1013 -844 
L 513 -844 
Q 928 -128 1133 580 
Q 1338 1288 1338 2009 
Q 1338 2731 1133 3434 
Q 928 4138 513 4856 
z
" transform="scale(0.015625)"/>
       <path id="DejaVuSans-20" transform="scale(0.015625)"/>
       <path id="DejaVuSans-77" d="M 269 3500 
L 844 3500 
L 1563 769 
L 2278 3500 
L 2956 3500 
L 3675 769 
L 4391 3500 
L 4966 3500 
L 4050 0 
L 3372 0 
L 2619 2869 
L 1863 0 
L 1184 0 
L 269 3500 
z
" transform="scale(0.015625)"/>
       <path id="DejaVuSans-69" d="M 603 3500 
L 1178 3500 
L 1178 0 
L 603 0 
L 603 3500 
z
M 603 4863 
L 1178 4863 
L 1178 4134 
L 603 4134 
L 603 4863 
z
" transform="scale(0.015625)"/>
       <path id="DejaVuSans-74" d="M 1172 4494 
L 1172 3500 
L 2356 3500 
L 2356 3053 
L 1172 3053 
L 1172 1153 
Q 1172 725 1289 603 
Q 1406 481 1766 481 
L 2356 481 
L 2356 0 
L 1766 0 
Q 1100 0 847 248 
Q 594 497 594 1153 
L 594 3053 
L 172 3053 
L 172 3500 
L 594 3500 
L 594 4494 
L 1172 4494 
z
" transform="scale(0.015625)"/>
       <path id="DejaVuSans-68" d="M 3513 2113 
L 3513 0 
L 2938 0 
L 2938 2094 
Q 2938 2591 2744 2837 
Q 2550 3084 2163 3084 
Q 1697 3084 1428 2787 
Q 1159 2491 1159 1978 
L 1159 0 
L 581 0 
L 581 4863 
L 1159 4863 
L 1159 2956 
Q 1366 3272 1645 3428 
Q 1925 3584 2291 3584 
Q 2894 3584 3203 3211 
Q 3513 2838 3513 2113 
z
" transform="scale(0.015625)"/>
       <path id="DejaVuSans-Oblique-6e" d="M 3566 2113 
L 3156 0 
L 2578 0 
L 2988 2091 
Q 3016 2238 3031 2350 
Q 3047 2463 3047 2528 
Q 3047 2791 2881 2937 
Q 2716 3084 2419 3084 
Q 1956 3084 1622 2776 
Q 1288 2469 1184 1941 
L 800 0 
L 225 0 
L 903 3500 
L 1478 3500 
L 1363 2950 
Q 1603 3253 1940 3418 
Q 2278 3584 2650 3584 
Q 3113 3584 3367 3334 
Q 3622 3084 3622 2631 
Q 3622 2519 3608 2391 
Q 3594 2263 3566 2113 
z
" transform="scale(0.015625)"/>
       <path id="DejaVuSans-3d" d="M 678 2906 
L 4684 2906 
L 4684 2381 
L 678 2381 
L 678 2906 
z
M 678 1631 
L 4684 1631 
L 4684 1100 
L 678 1100 
L 678 1631 
z
" transform="scale(0.015625)"/>
       <path id="DejaVuSans-61" d="M 2194 1759 
Q 1497 1759 1228 1600 
Q 959 1441 959 1056 
Q 959 750 1161 570 
Q 1363 391 1709 391 
Q 2188 391 2477 730 
Q 2766 1069 2766 1631 
L 2766 1759 
L 2194 1759 
z
M 3341 1997 
L 3341 0 
L 2766 0 
L 2766 531 
Q 2569 213 2275 61 
Q 1981 -91 1556 -91 
Q 1019 -91 701 211 
Q 384 513 384 1019 
Q 384 1609 779 1909 
Q 1175 2209 1959 2209 
L 2766 2209 
L 2766 2266 
Q 2766 2663 2505 2880 
Q 2244 3097 1772 3097 
Q 1472 3097 1187 3025 
Q 903 2953 641 2809 
L 641 3341 
Q 956 3463 1253 3523 
Q 1550 3584 1831 3584 
Q 2591 3584 2966 3190 
Q 3341 2797 3341 1997 
z
" transform="scale(0.015625)"/>
       <path id="DejaVuSans-6e" d="M 3513 2113 
L 3513 0 
L 2938 0 
L 2938 2094 
Q 2938 2591 2744 2837 
Q 2550 3084 2163 3084 
Q 1697 3084 1428 2787 
Q 1159 2491 1159 1978 
L 1159 0 
L 581 0 
L 581 3500 
L 1159 3500 
L 1159 2956 
Q 1366 3272 1645 3428 
Q 1925 3584 2291 3584 
Q 2894 3584 3203 3211 
Q 3513 2838 3513 2113 
z
" transform="scale(0.015625)"/>
       <path id="DejaVuSans-64" d="M 2906 2969 
L 2906 4863 
L 3481 4863 
L 3481 0 
L 2906 0 
L 2906 525 
Q 2725 213 2448 61 
Q 2172 -91 1784 -91 
Q 1150 -91 751 415 
Q 353 922 353 1747 
Q 353 2572 751 3078 
Q 1150 3584 1784 3584 
Q 2172 3584 2448 3432 
Q 2725 3281 2906 2969 
z
M 947 1747 
Q 947 1113 1208 752 
Q 1469 391 1925 391 
Q 2381 391 2643 752 
Q 2906 1113 2906 1747 
Q 2906 2381 2643 2742 
Q 2381 3103 1925 3103 
Q 1469 3103 1208 2742 
Q 947 2381 947 1747 
z
" transform="scale(0.015625)"/>
       <path id="DejaVuSans-Oblique-3c4" d="M 2103 638 
Q 2188 488 2525 488 
L 2800 488 
L 2706 0 
L 2363 0 
Q 1800 0 1600 300 
Q 1403 606 1534 1269 
L 1856 2925 
L 541 2925 
L 653 3500 
L 3881 3500 
L 3769 2925 
L 2444 2925 
L 2113 1234 
Q 2025 781 2103 638 
z
" transform="scale(0.015625)"/>
       <path id="DejaVuSans-Oblique-6d" d="M 5747 2113 
L 5338 0 
L 4763 0 
L 5166 2094 
Q 5191 2228 5203 2325 
Q 5216 2422 5216 2491 
Q 5216 2772 5059 2928 
Q 4903 3084 4622 3084 
Q 4203 3084 3875 2770 
Q 3547 2456 3450 1953 
L 3066 0 
L 2491 0 
L 2900 2094 
Q 2925 2209 2937 2307 
Q 2950 2406 2950 2484 
Q 2950 2769 2794 2926 
Q 2638 3084 2363 3084 
Q 1938 3084 1609 2770 
Q 1281 2456 1184 1953 
L 800 0 
L 225 0 
L 909 3500 
L 1484 3500 
L 1375 2956 
Q 1609 3263 1923 3423 
Q 2238 3584 2597 3584 
Q 2978 3584 3223 3384 
Q 3469 3184 3519 2828 
Q 3781 3197 4126 3390 
Q 4472 3584 4856 3584 
Q 5306 3584 5551 3325 
Q 5797 3066 5797 2591 
Q 5797 2488 5784 2364 
Q 5772 2241 5747 2113 
z
" transform="scale(0.015625)"/>
       <path id="DejaVuSans-Oblique-73" d="M 3200 3397 
L 3091 2853 
Q 2863 2978 2609 3040 
Q 2356 3103 2088 3103 
Q 1634 3103 1373 2948 
Q 1113 2794 1113 2528 
Q 1113 2219 1719 2053 
Q 1766 2041 1788 2034 
L 1972 1978 
Q 2547 1819 2739 1644 
Q 2931 1469 2931 1166 
Q 2931 609 2489 259 
Q 2047 -91 1331 -91 
Q 1053 -91 747 -37 
Q 441 16 72 128 
L 184 722 
Q 500 559 806 475 
Q 1113 391 1394 391 
Q 1816 391 2080 572 
Q 2344 753 2344 1031 
Q 2344 1331 1650 1516 
L 1591 1531 
L 1394 1581 
Q 956 1697 753 1886 
Q 550 2075 550 2369 
Q 550 2928 970 3256 
Q 1391 3584 2113 3584 
Q 2397 3584 2667 3537 
Q 2938 3491 3200 3397 
z
" transform="scale(0.015625)"/>
      </defs>
      <use xlink:href="#DejaVuSans-Oblique-68" transform="translate(0 0.015625)"/>
      <use xlink:href="#DejaVuSans-28" transform="translate(63.378906 0.015625)"/>
      <use xlink:href="#DejaVuSans-Oblique-74" transform="translate(102.392578 0.015625)"/>
      <use xlink:href="#DejaVuSans-29" transform="translate(141.601562 0.015625)"/>
      <use xlink:href="#DejaVuSans-20" transform="translate(180.615234 0.015625)"/>
      <use xlink:href="#DejaVuSans-77" transform="translate(212.402344 0.015625)"/>
      <use xlink:href="#DejaVuSans-69" transform="translate(294.189453 0.015625)"/>
      <use xlink:href="#DejaVuSans-74" transform="translate(321.972656 0.015625)"/>
      <use xlink:href="#DejaVuSans-68" transform="translate(361.181641 0.015625)"/>
      <use xlink:href="#DejaVuSans-20" transform="translate(424.560547 0.015625)"/>
      <use xlink:href="#DejaVuSans-Oblique-6e" transform="translate(456.347656 0.015625)"/>
      <use xlink:href="#DejaVuSans-3d" transform="translate(539.208984 0.015625)"/>
      <use xlink:href="#DejaVuSans-30" transform="translate(642.480469 0.015625)"/>
      <use xlink:href="#DejaVuSans-20" transform="translate(706.103516 0.015625)"/>
      <use xlink:href="#DejaVuSans-61" transform="translate(737.890625 0.015625)"/>
      <use xlink:href="#DejaVuSans-6e" transform="translate(799.169922 0.015625)"/>
      <use xlink:href="#DejaVuSans-64" transform="translate(862.548828 0.015625)"/>
      <use xlink:href="#DejaVuSans-20" transform="translate(926.025391 0.015625)"/>
      <use xlink:href="#DejaVuSans-Oblique-3c4" transform="translate(957.8125 0.015625)"/>
      <use xlink:href="#DejaVuSans-3d" transform="translate(1037.5 0.015625)"/>
      <use xlink:href="#DejaVuSans-32" transform="translate(1140.771484 0.015625)"/>
      <use xlink:href="#DejaVuSans-2e" transform="translate(1204.394531 0.015625)"/>
      <use xlink:href="#DejaVuSans-30" transform="translate(1236.181641 0.015625)"/>
      <use xlink:href="#DejaVuSans-Oblique-6d" transform="translate(1299.804688 0.015625)"/>
      <use xlink:href="#DejaVuSans-Oblique-73" transform="translate(1397.216797 0.015625)"/>
     </g>
    </g>
    <g id="line2d_23">
     <path d="M 280.84 63.776562 
L 290.84 63.776562 
L 300.84 63.776562 
" style="fill: none; stroke: #ff7f0e; stroke-width: 1.5; stroke-linecap: square"/>
    </g>
    <g id="text_20">
     <!-- $h(t)$ with $n=0$ and $\tau=5.0ms$ -->
     <g transform="translate(308.84 67.276562) scale(0.1 -0.1)">
      <use xlink:href="#DejaVuSans-Oblique-68" transform="translate(0 0.015625)"/>
      <use xlink:href="#DejaVuSans-28" transform="translate(63.378906 0.015625)"/>
      <use xlink:href="#DejaVuSans-Oblique-74" transform="translate(102.392578 0.015625)"/>
      <use xlink:href="#DejaVuSans-29" transform="translate(141.601562 0.015625)"/>
      <use xlink:href="#DejaVuSans-20" transform="translate(180.615234 0.015625)"/>
      <use xlink:href="#DejaVuSans-77" transform="translate(212.402344 0.015625)"/>
      <use xlink:href="#DejaVuSans-69" transform="translate(294.189453 0.015625)"/>
      <use xlink:href="#DejaVuSans-74" transform="translate(321.972656 0.015625)"/>
      <use xlink:href="#DejaVuSans-68" transform="translate(361.181641 0.015625)"/>
      <use xlink:href="#DejaVuSans-20" transform="translate(424.560547 0.015625)"/>
      <use xlink:href="#DejaVuSans-Oblique-6e" transform="translate(456.347656 0.015625)"/>
      <use xlink:href="#DejaVuSans-3d" transform="translate(539.208984 0.015625)"/>
      <use xlink:href="#DejaVuSans-30" transform="translate(642.480469 0.015625)"/>
      <use xlink:href="#DejaVuSans-20" transform="translate(706.103516 0.015625)"/>
      <use xlink:href="#DejaVuSans-61" transform="translate(737.890625 0.015625)"/>
      <use xlink:href="#DejaVuSans-6e" transform="translate(799.169922 0.015625)"/>
      <use xlink:href="#DejaVuSans-64" transform="translate(862.548828 0.015625)"/>
      <use xlink:href="#DejaVuSans-20" transform="translate(926.025391 0.015625)"/>
      <use xlink:href="#DejaVuSans-Oblique-3c4" transform="translate(957.8125 0.015625)"/>
      <use xlink:href="#DejaVuSans-3d" transform="translate(1037.5 0.015625)"/>
      <use xlink:href="#DejaVuSans-35" transform="translate(1140.771484 0.015625)"/>
      <use xlink:href="#DejaVuSans-2e" transform="translate(1204.394531 0.015625)"/>
      <use xlink:href="#DejaVuSans-30" transform="translate(1236.181641 0.015625)"/>
      <use xlink:href="#DejaVuSans-Oblique-6d" transform="translate(1299.804688 0.015625)"/>
      <use xlink:href="#DejaVuSans-Oblique-73" transform="translate(1397.216797 0.015625)"/>
     </g>
    </g>
    <g id="line2d_24">
     <path d="M 280.84 78.454687 
L 290.84 78.454687 
L 300.84 78.454687 
" style="fill: none; stroke: #2ca02c; stroke-width: 1.5; stroke-linecap: square"/>
    </g>
    <g id="text_21">
     <!-- $h(t)$ with $n=0$ and $\tau=10.0ms$ -->
     <g transform="translate(308.84 81.954687) scale(0.1 -0.1)">
      <use xlink:href="#DejaVuSans-Oblique-68" transform="translate(0 0.015625)"/>
      <use xlink:href="#DejaVuSans-28" transform="translate(63.378906 0.015625)"/>
      <use xlink:href="#DejaVuSans-Oblique-74" transform="translate(102.392578 0.015625)"/>
      <use xlink:href="#DejaVuSans-29" transform="translate(141.601562 0.015625)"/>
      <use xlink:href="#DejaVuSans-20" transform="translate(180.615234 0.015625)"/>
      <use xlink:href="#DejaVuSans-77" transform="translate(212.402344 0.015625)"/>
      <use xlink:href="#DejaVuSans-69" transform="translate(294.189453 0.015625)"/>
      <use xlink:href="#DejaVuSans-74" transform="translate(321.972656 0.015625)"/>
      <use xlink:href="#DejaVuSans-68" transform="translate(361.181641 0.015625)"/>
      <use xlink:href="#DejaVuSans-20" transform="translate(424.560547 0.015625)"/>
      <use xlink:href="#DejaVuSans-Oblique-6e" transform="translate(456.347656 0.015625)"/>
      <use xlink:href="#DejaVuSans-3d" transform="translate(539.208984 0.015625)"/>
      <use xlink:href="#DejaVuSans-30" transform="translate(642.480469 0.015625)"/>
      <use xlink:href="#DejaVuSans-20" transform="translate(706.103516 0.015625)"/>
      <use xlink:href="#DejaVuSans-61" transform="translate(737.890625 0.015625)"/>
      <use xlink:href="#DejaVuSans-6e" transform="translate(799.169922 0.015625)"/>
      <use xlink:href="#DejaVuSans-64" transform="translate(862.548828 0.015625)"/>
      <use xlink:href="#DejaVuSans-20" transform="translate(926.025391 0.015625)"/>
      <use xlink:href="#DejaVuSans-Oblique-3c4" transform="translate(957.8125 0.015625)"/>
      <use xlink:href="#DejaVuSans-3d" transform="translate(1037.5 0.015625)"/>
      <use xlink:href="#DejaVuSans-31" transform="translate(1140.771484 0.015625)"/>
      <use xlink:href="#DejaVuSans-30" transform="translate(1204.394531 0.015625)"/>
      <use xlink:href="#DejaVuSans-2e" transform="translate(1268.017578 0.015625)"/>
      <use xlink:href="#DejaVuSans-30" transform="translate(1299.804688 0.015625)"/>
      <use xlink:href="#DejaVuSans-Oblique-6d" transform="translate(1363.427734 0.015625)"/>
      <use xlink:href="#DejaVuSans-Oblique-73" transform="translate(1460.839844 0.015625)"/>
     </g>
    </g>
    <g id="line2d_25">
     <path d="M 280.84 93.132812 
L 290.84 93.132812 
L 300.84 93.132812 
" style="fill: none; stroke: #d62728; stroke-width: 1.5; stroke-linecap: square"/>
    </g>
    <g id="text_22">
     <!-- $h(t)$ with $n=0$ and $\tau=20.0ms$ -->
     <g transform="translate(308.84 96.632812) scale(0.1 -0.1)">
      <use xlink:href="#DejaVuSans-Oblique-68" transform="translate(0 0.015625)"/>
      <use xlink:href="#DejaVuSans-28" transform="translate(63.378906 0.015625)"/>
      <use xlink:href="#DejaVuSans-Oblique-74" transform="translate(102.392578 0.015625)"/>
      <use xlink:href="#DejaVuSans-29" transform="translate(141.601562 0.015625)"/>
      <use xlink:href="#DejaVuSans-20" transform="translate(180.615234 0.015625)"/>
      <use xlink:href="#DejaVuSans-77" transform="translate(212.402344 0.015625)"/>
      <use xlink:href="#DejaVuSans-69" transform="translate(294.189453 0.015625)"/>
      <use xlink:href="#DejaVuSans-74" transform="translate(321.972656 0.015625)"/>
      <use xlink:href="#DejaVuSans-68" transform="translate(361.181641 0.015625)"/>
      <use xlink:href="#DejaVuSans-20" transform="translate(424.560547 0.015625)"/>
      <use xlink:href="#DejaVuSans-Oblique-6e" transform="translate(456.347656 0.015625)"/>
      <use xlink:href="#DejaVuSans-3d" transform="translate(539.208984 0.015625)"/>
      <use xlink:href="#DejaVuSans-30" transform="translate(642.480469 0.015625)"/>
      <use xlink:href="#DejaVuSans-20" transform="translate(706.103516 0.015625)"/>
      <use xlink:href="#DejaVuSans-61" transform="translate(737.890625 0.015625)"/>
      <use xlink:href="#DejaVuSans-6e" transform="translate(799.169922 0.015625)"/>
      <use xlink:href="#DejaVuSans-64" transform="translate(862.548828 0.015625)"/>
      <use xlink:href="#DejaVuSans-20" transform="translate(926.025391 0.015625)"/>
      <use xlink:href="#DejaVuSans-Oblique-3c4" transform="translate(957.8125 0.015625)"/>
      <use xlink:href="#DejaVuSans-3d" transform="translate(1037.5 0.015625)"/>
      <use xlink:href="#DejaVuSans-32" transform="translate(1140.771484 0.015625)"/>
      <use xlink:href="#DejaVuSans-30" transform="translate(1204.394531 0.015625)"/>
      <use xlink:href="#DejaVuSans-2e" transform="translate(1268.017578 0.015625)"/>
      <use xlink:href="#DejaVuSans-30" transform="translate(1299.804688 0.015625)"/>
      <use xlink:href="#DejaVuSans-Oblique-6d" transform="translate(1363.427734 0.015625)"/>
      <use xlink:href="#DejaVuSans-Oblique-73" transform="translate(1460.839844 0.015625)"/>
     </g>
    </g>
   </g>
  </g>
  <g id="text_23">
   <!-- Normalized post-synaptic filter $h(t)$ with $n=0$ and $\tau=2ms,5ms,10ms,20ms$ on the same graph -->
   <g transform="translate(7.2 16.32) scale(0.12 -0.12)">
    <defs>
     <path id="DejaVuSans-4e" d="M 628 4666 
L 1478 4666 
L 3547 763 
L 3547 4666 
L 4159 4666 
L 4159 0 
L 3309 0 
L 1241 3903 
L 1241 0 
L 628 0 
L 628 4666 
z
" transform="scale(0.015625)"/>
     <path id="DejaVuSans-6f" d="M 1959 3097 
Q 1497 3097 1228 2736 
Q 959 2375 959 1747 
Q 959 1119 1226 758 
Q 1494 397 1959 397 
Q 2419 397 2687 759 
Q 2956 1122 2956 1747 
Q 2956 2369 2687 2733 
Q 2419 3097 1959 3097 
z
M 1959 3584 
Q 2709 3584 3137 3096 
Q 3566 2609 3566 1747 
Q 3566 888 3137 398 
Q 2709 -91 1959 -91 
Q 1206 -91 779 398 
Q 353 888 353 1747 
Q 353 2609 779 3096 
Q 1206 3584 1959 3584 
z
" transform="scale(0.015625)"/>
     <path id="DejaVuSans-72" d="M 2631 2963 
Q 2534 3019 2420 3045 
Q 2306 3072 2169 3072 
Q 1681 3072 1420 2755 
Q 1159 2438 1159 1844 
L 1159 0 
L 581 0 
L 581 3500 
L 1159 3500 
L 1159 2956 
Q 1341 3275 1631 3429 
Q 1922 3584 2338 3584 
Q 2397 3584 2469 3576 
Q 2541 3569 2628 3553 
L 2631 2963 
z
" transform="scale(0.015625)"/>
     <path id="DejaVuSans-6d" d="M 3328 2828 
Q 3544 3216 3844 3400 
Q 4144 3584 4550 3584 
Q 5097 3584 5394 3201 
Q 5691 2819 5691 2113 
L 5691 0 
L 5113 0 
L 5113 2094 
Q 5113 2597 4934 2840 
Q 4756 3084 4391 3084 
Q 3944 3084 3684 2787 
Q 3425 2491 3425 1978 
L 3425 0 
L 2847 0 
L 2847 2094 
Q 2847 2600 2669 2842 
Q 2491 3084 2119 3084 
Q 1678 3084 1418 2786 
Q 1159 2488 1159 1978 
L 1159 0 
L 581 0 
L 581 3500 
L 1159 3500 
L 1159 2956 
Q 1356 3278 1631 3431 
Q 1906 3584 2284 3584 
Q 2666 3584 2933 3390 
Q 3200 3197 3328 2828 
z
" transform="scale(0.015625)"/>
     <path id="DejaVuSans-6c" d="M 603 4863 
L 1178 4863 
L 1178 0 
L 603 0 
L 603 4863 
z
" transform="scale(0.015625)"/>
     <path id="DejaVuSans-7a" d="M 353 3500 
L 3084 3500 
L 3084 2975 
L 922 459 
L 3084 459 
L 3084 0 
L 275 0 
L 275 525 
L 2438 3041 
L 353 3041 
L 353 3500 
z
" transform="scale(0.015625)"/>
     <path id="DejaVuSans-65" d="M 3597 1894 
L 3597 1613 
L 953 1613 
Q 991 1019 1311 708 
Q 1631 397 2203 397 
Q 2534 397 2845 478 
Q 3156 559 3463 722 
L 3463 178 
Q 3153 47 2828 -22 
Q 2503 -91 2169 -91 
Q 1331 -91 842 396 
Q 353 884 353 1716 
Q 353 2575 817 3079 
Q 1281 3584 2069 3584 
Q 2775 3584 3186 3129 
Q 3597 2675 3597 1894 
z
M 3022 2063 
Q 3016 2534 2758 2815 
Q 2500 3097 2075 3097 
Q 1594 3097 1305 2825 
Q 1016 2553 972 2059 
L 3022 2063 
z
" transform="scale(0.015625)"/>
     <path id="DejaVuSans-70" d="M 1159 525 
L 1159 -1331 
L 581 -1331 
L 581 3500 
L 1159 3500 
L 1159 2969 
Q 1341 3281 1617 3432 
Q 1894 3584 2278 3584 
Q 2916 3584 3314 3078 
Q 3713 2572 3713 1747 
Q 3713 922 3314 415 
Q 2916 -91 2278 -91 
Q 1894 -91 1617 61 
Q 1341 213 1159 525 
z
M 3116 1747 
Q 3116 2381 2855 2742 
Q 2594 3103 2138 3103 
Q 1681 3103 1420 2742 
Q 1159 2381 1159 1747 
Q 1159 1113 1420 752 
Q 1681 391 2138 391 
Q 2594 391 2855 752 
Q 3116 1113 3116 1747 
z
" transform="scale(0.015625)"/>
     <path id="DejaVuSans-73" d="M 2834 3397 
L 2834 2853 
Q 2591 2978 2328 3040 
Q 2066 3103 1784 3103 
Q 1356 3103 1142 2972 
Q 928 2841 928 2578 
Q 928 2378 1081 2264 
Q 1234 2150 1697 2047 
L 1894 2003 
Q 2506 1872 2764 1633 
Q 3022 1394 3022 966 
Q 3022 478 2636 193 
Q 2250 -91 1575 -91 
Q 1294 -91 989 -36 
Q 684 19 347 128 
L 347 722 
Q 666 556 975 473 
Q 1284 391 1588 391 
Q 1994 391 2212 530 
Q 2431 669 2431 922 
Q 2431 1156 2273 1281 
Q 2116 1406 1581 1522 
L 1381 1569 
Q 847 1681 609 1914 
Q 372 2147 372 2553 
Q 372 3047 722 3315 
Q 1072 3584 1716 3584 
Q 2034 3584 2315 3537 
Q 2597 3491 2834 3397 
z
" transform="scale(0.015625)"/>
     <path id="DejaVuSans-2d" d="M 313 2009 
L 1997 2009 
L 1997 1497 
L 313 1497 
L 313 2009 
z
" transform="scale(0.015625)"/>
     <path id="DejaVuSans-79" d="M 2059 -325 
Q 1816 -950 1584 -1140 
Q 1353 -1331 966 -1331 
L 506 -1331 
L 506 -850 
L 844 -850 
Q 1081 -850 1212 -737 
Q 1344 -625 1503 -206 
L 1606 56 
L 191 3500 
L 800 3500 
L 1894 763 
L 2988 3500 
L 3597 3500 
L 2059 -325 
z
" transform="scale(0.015625)"/>
     <path id="DejaVuSans-63" d="M 3122 3366 
L 3122 2828 
Q 2878 2963 2633 3030 
Q 2388 3097 2138 3097 
Q 1578 3097 1268 2742 
Q 959 2388 959 1747 
Q 959 1106 1268 751 
Q 1578 397 2138 397 
Q 2388 397 2633 464 
Q 2878 531 3122 666 
L 3122 134 
Q 2881 22 2623 -34 
Q 2366 -91 2075 -91 
Q 1284 -91 818 406 
Q 353 903 353 1747 
Q 353 2603 823 3093 
Q 1294 3584 2113 3584 
Q 2378 3584 2631 3529 
Q 2884 3475 3122 3366 
z
" transform="scale(0.015625)"/>
     <path id="DejaVuSans-66" d="M 2375 4863 
L 2375 4384 
L 1825 4384 
Q 1516 4384 1395 4259 
Q 1275 4134 1275 3809 
L 1275 3500 
L 2222 3500 
L 2222 3053 
L 1275 3053 
L 1275 0 
L 697 0 
L 697 3053 
L 147 3053 
L 147 3500 
L 697 3500 
L 697 3744 
Q 697 4328 969 4595 
Q 1241 4863 1831 4863 
L 2375 4863 
z
" transform="scale(0.015625)"/>
     <path id="DejaVuSans-2c" d="M 750 794 
L 1409 794 
L 1409 256 
L 897 -744 
L 494 -744 
L 750 256 
L 750 794 
z
" transform="scale(0.015625)"/>
     <path id="DejaVuSans-67" d="M 2906 1791 
Q 2906 2416 2648 2759 
Q 2391 3103 1925 3103 
Q 1463 3103 1205 2759 
Q 947 2416 947 1791 
Q 947 1169 1205 825 
Q 1463 481 1925 481 
Q 2391 481 2648 825 
Q 2906 1169 2906 1791 
z
M 3481 434 
Q 3481 -459 3084 -895 
Q 2688 -1331 1869 -1331 
Q 1566 -1331 1297 -1286 
Q 1028 -1241 775 -1147 
L 775 -588 
Q 1028 -725 1275 -790 
Q 1522 -856 1778 -856 
Q 2344 -856 2625 -561 
Q 2906 -266 2906 331 
L 2906 616 
Q 2728 306 2450 153 
Q 2172 0 1784 0 
Q 1141 0 747 490 
Q 353 981 353 1791 
Q 353 2603 747 3093 
Q 1141 3584 1784 3584 
Q 2172 3584 2450 3431 
Q 2728 3278 2906 2969 
L 2906 3500 
L 3481 3500 
L 3481 434 
z
" transform="scale(0.015625)"/>
    </defs>
    <use xlink:href="#DejaVuSans-4e" transform="translate(0 0.015625)"/>
    <use xlink:href="#DejaVuSans-6f" transform="translate(74.804688 0.015625)"/>
    <use xlink:href="#DejaVuSans-72" transform="translate(135.986328 0.015625)"/>
    <use xlink:href="#DejaVuSans-6d" transform="translate(177.099609 0.015625)"/>
    <use xlink:href="#DejaVuSans-61" transform="translate(274.511719 0.015625)"/>
    <use xlink:href="#DejaVuSans-6c" transform="translate(335.791016 0.015625)"/>
    <use xlink:href="#DejaVuSans-69" transform="translate(363.574219 0.015625)"/>
    <use xlink:href="#DejaVuSans-7a" transform="translate(391.357422 0.015625)"/>
    <use xlink:href="#DejaVuSans-65" transform="translate(443.847656 0.015625)"/>
    <use xlink:href="#DejaVuSans-64" transform="translate(505.371094 0.015625)"/>
    <use xlink:href="#DejaVuSans-20" transform="translate(568.847656 0.015625)"/>
    <use xlink:href="#DejaVuSans-70" transform="translate(600.634766 0.015625)"/>
    <use xlink:href="#DejaVuSans-6f" transform="translate(664.111328 0.015625)"/>
    <use xlink:href="#DejaVuSans-73" transform="translate(725.292969 0.015625)"/>
    <use xlink:href="#DejaVuSans-74" transform="translate(777.392578 0.015625)"/>
    <use xlink:href="#DejaVuSans-2d" transform="translate(816.601562 0.015625)"/>
    <use xlink:href="#DejaVuSans-73" transform="translate(852.685547 0.015625)"/>
    <use xlink:href="#DejaVuSans-79" transform="translate(904.785156 0.015625)"/>
    <use xlink:href="#DejaVuSans-6e" transform="translate(963.964844 0.015625)"/>
    <use xlink:href="#DejaVuSans-61" transform="translate(1027.34375 0.015625)"/>
    <use xlink:href="#DejaVuSans-70" transform="translate(1088.623047 0.015625)"/>
    <use xlink:href="#DejaVuSans-74" transform="translate(1152.099609 0.015625)"/>
    <use xlink:href="#DejaVuSans-69" transform="translate(1191.308594 0.015625)"/>
    <use xlink:href="#DejaVuSans-63" transform="translate(1219.091797 0.015625)"/>
    <use xlink:href="#DejaVuSans-20" transform="translate(1274.072266 0.015625)"/>
    <use xlink:href="#DejaVuSans-66" transform="translate(1305.859375 0.015625)"/>
    <use xlink:href="#DejaVuSans-69" transform="translate(1341.064453 0.015625)"/>
    <use xlink:href="#DejaVuSans-6c" transform="translate(1368.847656 0.015625)"/>
    <use xlink:href="#DejaVuSans-74" transform="translate(1396.630859 0.015625)"/>
    <use xlink:href="#DejaVuSans-65" transform="translate(1435.839844 0.015625)"/>
    <use xlink:href="#DejaVuSans-72" transform="translate(1497.363281 0.015625)"/>
    <use xlink:href="#DejaVuSans-20" transform="translate(1538.476562 0.015625)"/>
    <use xlink:href="#DejaVuSans-Oblique-68" transform="translate(1570.263672 0.015625)"/>
    <use xlink:href="#DejaVuSans-28" transform="translate(1633.642578 0.015625)"/>
    <use xlink:href="#DejaVuSans-Oblique-74" transform="translate(1672.65625 0.015625)"/>
    <use xlink:href="#DejaVuSans-29" transform="translate(1711.865234 0.015625)"/>
    <use xlink:href="#DejaVuSans-20" transform="translate(1750.878906 0.015625)"/>
    <use xlink:href="#DejaVuSans-77" transform="translate(1782.666016 0.015625)"/>
    <use xlink:href="#DejaVuSans-69" transform="translate(1864.453125 0.015625)"/>
    <use xlink:href="#DejaVuSans-74" transform="translate(1892.236328 0.015625)"/>
    <use xlink:href="#DejaVuSans-68" transform="translate(1931.445312 0.015625)"/>
    <use xlink:href="#DejaVuSans-20" transform="translate(1994.824219 0.015625)"/>
    <use xlink:href="#DejaVuSans-Oblique-6e" transform="translate(2026.611328 0.015625)"/>
    <use xlink:href="#DejaVuSans-3d" transform="translate(2109.472656 0.015625)"/>
    <use xlink:href="#DejaVuSans-30" transform="translate(2212.744141 0.015625)"/>
    <use xlink:href="#DejaVuSans-20" transform="translate(2276.367188 0.015625)"/>
    <use xlink:href="#DejaVuSans-61" transform="translate(2308.154297 0.015625)"/>
    <use xlink:href="#DejaVuSans-6e" transform="translate(2369.433594 0.015625)"/>
    <use xlink:href="#DejaVuSans-64" transform="translate(2432.8125 0.015625)"/>
    <use xlink:href="#DejaVuSans-20" transform="translate(2496.289062 0.015625)"/>
    <use xlink:href="#DejaVuSans-Oblique-3c4" transform="translate(2528.076172 0.015625)"/>
    <use xlink:href="#DejaVuSans-3d" transform="translate(2607.763672 0.015625)"/>
    <use xlink:href="#DejaVuSans-32" transform="translate(2711.035156 0.015625)"/>
    <use xlink:href="#DejaVuSans-Oblique-6d" transform="translate(2772.908203 0.015625)"/>
    <use xlink:href="#DejaVuSans-Oblique-73" transform="translate(2870.320312 0.015625)"/>
    <use xlink:href="#DejaVuSans-2c" transform="translate(2922.419922 0.015625)"/>
    <use xlink:href="#DejaVuSans-35" transform="translate(2973.689453 0.015625)"/>
    <use xlink:href="#DejaVuSans-Oblique-6d" transform="translate(3031.8125 0.015625)"/>
    <use xlink:href="#DejaVuSans-Oblique-73" transform="translate(3129.224609 0.015625)"/>
    <use xlink:href="#DejaVuSans-2c" transform="translate(3181.324219 0.015625)"/>
    <use xlink:href="#DejaVuSans-31" transform="translate(3232.59375 0.015625)"/>
    <use xlink:href="#DejaVuSans-30" transform="translate(3296.216797 0.015625)"/>
    <use xlink:href="#DejaVuSans-Oblique-6d" transform="translate(3359.839844 0.015625)"/>
    <use xlink:href="#DejaVuSans-Oblique-73" transform="translate(3457.251953 0.015625)"/>
    <use xlink:href="#DejaVuSans-2c" transform="translate(3509.351562 0.015625)"/>
    <use xlink:href="#DejaVuSans-32" transform="translate(3560.621094 0.015625)"/>
    <use xlink:href="#DejaVuSans-30" transform="translate(3624.244141 0.015625)"/>
    <use xlink:href="#DejaVuSans-Oblique-6d" transform="translate(3687.867188 0.015625)"/>
    <use xlink:href="#DejaVuSans-Oblique-73" transform="translate(3785.279297 0.015625)"/>
    <use xlink:href="#DejaVuSans-20" transform="translate(3837.378906 0.015625)"/>
    <use xlink:href="#DejaVuSans-6f" transform="translate(3869.166016 0.015625)"/>
    <use xlink:href="#DejaVuSans-6e" transform="translate(3930.347656 0.015625)"/>
    <use xlink:href="#DejaVuSans-20" transform="translate(3993.726562 0.015625)"/>
    <use xlink:href="#DejaVuSans-74" transform="translate(4025.513672 0.015625)"/>
    <use xlink:href="#DejaVuSans-68" transform="translate(4064.722656 0.015625)"/>
    <use xlink:href="#DejaVuSans-65" transform="translate(4128.101562 0.015625)"/>
    <use xlink:href="#DejaVuSans-20" transform="translate(4189.625 0.015625)"/>
    <use xlink:href="#DejaVuSans-73" transform="translate(4221.412109 0.015625)"/>
    <use xlink:href="#DejaVuSans-61" transform="translate(4273.511719 0.015625)"/>
    <use xlink:href="#DejaVuSans-6d" transform="translate(4334.791016 0.015625)"/>
    <use xlink:href="#DejaVuSans-65" transform="translate(4432.203125 0.015625)"/>
    <use xlink:href="#DejaVuSans-20" transform="translate(4493.726562 0.015625)"/>
    <use xlink:href="#DejaVuSans-67" transform="translate(4525.513672 0.015625)"/>
    <use xlink:href="#DejaVuSans-72" transform="translate(4588.990234 0.015625)"/>
    <use xlink:href="#DejaVuSans-61" transform="translate(4630.103516 0.015625)"/>
    <use xlink:href="#DejaVuSans-70" transform="translate(4691.382812 0.015625)"/>
    <use xlink:href="#DejaVuSans-68" transform="translate(4754.859375 0.015625)"/>
   </g>
  </g>
 </g>
 <defs>
  <clipPath id="p136b1bb5f7">
   <rect x="134.34" y="36" width="334.8" height="217.44"/>
  </clipPath>
 </defs>
</svg>
