<?xml version="1.0" encoding="utf-8" standalone="no"?>
<!DOCTYPE svg PUBLIC "-//W3C//DTD SVG 1.1//EN"
  "http://www.w3.org/Graphics/SVG/1.1/DTD/svg11.dtd">
<svg xmlns:xlink="http://www.w3.org/1999/xlink" width="393.732813pt" height="290.99625pt" viewBox="0 0 393.732813 290.99625" xmlns="http://www.w3.org/2000/svg" version="1.1">
 <metadata>
  <rdf:RDF xmlns:dc="http://purl.org/dc/elements/1.1/" xmlns:cc="http://creativecommons.org/ns#" xmlns:rdf="http://www.w3.org/1999/02/22-rdf-syntax-ns#">
   <cc:Work>
    <dc:type rdf:resource="http://purl.org/dc/dcmitype/StillImage"/>
    <dc:date>2022-10-15T20:27:04.647184</dc:date>
    <dc:format>image/svg+xml</dc:format>
    <dc:creator>
     <cc:Agent>
      <dc:title>Matplotlib v3.6.0, https://matplotlib.org/</dc:title>
     </cc:Agent>
    </dc:creator>
   </cc:Work>
  </rdf:RDF>
 </metadata>
 <defs>
  <style type="text/css">*{stroke-linejoin: round; stroke-linecap: butt}</style>
 </defs>
 <g id="figure_1">
  <g id="patch_1">
   <path d="M 0 290.99625 
L 393.732813 290.99625 
L 393.732813 0 
L 0 0 
L 0 290.99625 
z
" style="fill: none"/>
  </g>
  <g id="axes_1">
   <g id="patch_2">
    <path d="M 43.78125 253.44 
L 378.58125 253.44 
L 378.58125 36 
L 43.78125 36 
z
" style="fill: #ffffff"/>
   </g>
   <g id="matplotlib.axis_1">
    <g id="xtick_1">
     <g id="line2d_1">
      <defs>
       <path id="mfa637af2b2" d="M 0 0 
L 0 3.5 
" style="stroke: #000000; stroke-width: 0.8"/>
      </defs>
      <g>
       <use xlink:href="#mfa637af2b2" x="43.78125" y="253.44" style="stroke: #000000; stroke-width: 0.8"/>
      </g>
     </g>
     <g id="text_1">
      <!-- 0.0 -->
      <g transform="translate(35.829688 268.038437) scale(0.1 -0.1)">
       <defs>
        <path id="DejaVuSans-30" d="M 2034 4250 
Q 1547 4250 1301 3770 
Q 1056 3291 1056 2328 
Q 1056 1369 1301 889 
Q 1547 409 2034 409 
Q 2525 409 2770 889 
Q 3016 1369 3016 2328 
Q 3016 3291 2770 3770 
Q 2525 4250 2034 4250 
z
M 2034 4750 
Q 2819 4750 3233 4129 
Q 3647 3509 3647 2328 
Q 3647 1150 3233 529 
Q 2819 -91 2034 -91 
Q 1250 -91 836 529 
Q 422 1150 422 2328 
Q 422 3509 836 4129 
Q 1250 4750 2034 4750 
z
" transform="scale(0.015625)"/>
        <path id="DejaVuSans-2e" d="M 684 794 
L 1344 794 
L 1344 0 
L 684 0 
L 684 794 
z
" transform="scale(0.015625)"/>
       </defs>
       <use xlink:href="#DejaVuSans-30"/>
       <use xlink:href="#DejaVuSans-2e" x="63.623047"/>
       <use xlink:href="#DejaVuSans-30" x="95.410156"/>
      </g>
     </g>
    </g>
    <g id="xtick_2">
     <g id="line2d_2">
      <g>
       <use xlink:href="#mfa637af2b2" x="110.74125" y="253.44" style="stroke: #000000; stroke-width: 0.8"/>
      </g>
     </g>
     <g id="text_2">
      <!-- 0.2 -->
      <g transform="translate(102.789688 268.038437) scale(0.1 -0.1)">
       <defs>
        <path id="DejaVuSans-32" d="M 1228 531 
L 3431 531 
L 3431 0 
L 469 0 
L 469 531 
Q 828 903 1448 1529 
Q 2069 2156 2228 2338 
Q 2531 2678 2651 2914 
Q 2772 3150 2772 3378 
Q 2772 3750 2511 3984 
Q 2250 4219 1831 4219 
Q 1534 4219 1204 4116 
Q 875 4013 500 3803 
L 500 4441 
Q 881 4594 1212 4672 
Q 1544 4750 1819 4750 
Q 2544 4750 2975 4387 
Q 3406 4025 3406 3419 
Q 3406 3131 3298 2873 
Q 3191 2616 2906 2266 
Q 2828 2175 2409 1742 
Q 1991 1309 1228 531 
z
" transform="scale(0.015625)"/>
       </defs>
       <use xlink:href="#DejaVuSans-30"/>
       <use xlink:href="#DejaVuSans-2e" x="63.623047"/>
       <use xlink:href="#DejaVuSans-32" x="95.410156"/>
      </g>
     </g>
    </g>
    <g id="xtick_3">
     <g id="line2d_3">
      <g>
       <use xlink:href="#mfa637af2b2" x="177.70125" y="253.44" style="stroke: #000000; stroke-width: 0.8"/>
      </g>
     </g>
     <g id="text_3">
      <!-- 0.4 -->
      <g transform="translate(169.749688 268.038437) scale(0.1 -0.1)">
       <defs>
        <path id="DejaVuSans-34" d="M 2419 4116 
L 825 1625 
L 2419 1625 
L 2419 4116 
z
M 2253 4666 
L 3047 4666 
L 3047 1625 
L 3713 1625 
L 3713 1100 
L 3047 1100 
L 3047 0 
L 2419 0 
L 2419 1100 
L 313 1100 
L 313 1709 
L 2253 4666 
z
" transform="scale(0.015625)"/>
       </defs>
       <use xlink:href="#DejaVuSans-30"/>
       <use xlink:href="#DejaVuSans-2e" x="63.623047"/>
       <use xlink:href="#DejaVuSans-34" x="95.410156"/>
      </g>
     </g>
    </g>
    <g id="xtick_4">
     <g id="line2d_4">
      <g>
       <use xlink:href="#mfa637af2b2" x="244.66125" y="253.44" style="stroke: #000000; stroke-width: 0.8"/>
      </g>
     </g>
     <g id="text_4">
      <!-- 0.6 -->
      <g transform="translate(236.709688 268.038437) scale(0.1 -0.1)">
       <defs>
        <path id="DejaVuSans-36" d="M 2113 2584 
Q 1688 2584 1439 2293 
Q 1191 2003 1191 1497 
Q 1191 994 1439 701 
Q 1688 409 2113 409 
Q 2538 409 2786 701 
Q 3034 994 3034 1497 
Q 3034 2003 2786 2293 
Q 2538 2584 2113 2584 
z
M 3366 4563 
L 3366 3988 
Q 3128 4100 2886 4159 
Q 2644 4219 2406 4219 
Q 1781 4219 1451 3797 
Q 1122 3375 1075 2522 
Q 1259 2794 1537 2939 
Q 1816 3084 2150 3084 
Q 2853 3084 3261 2657 
Q 3669 2231 3669 1497 
Q 3669 778 3244 343 
Q 2819 -91 2113 -91 
Q 1303 -91 875 529 
Q 447 1150 447 2328 
Q 447 3434 972 4092 
Q 1497 4750 2381 4750 
Q 2619 4750 2861 4703 
Q 3103 4656 3366 4563 
z
" transform="scale(0.015625)"/>
       </defs>
       <use xlink:href="#DejaVuSans-30"/>
       <use xlink:href="#DejaVuSans-2e" x="63.623047"/>
       <use xlink:href="#DejaVuSans-36" x="95.410156"/>
      </g>
     </g>
    </g>
    <g id="xtick_5">
     <g id="line2d_5">
      <g>
       <use xlink:href="#mfa637af2b2" x="311.62125" y="253.44" style="stroke: #000000; stroke-width: 0.8"/>
      </g>
     </g>
     <g id="text_5">
      <!-- 0.8 -->
      <g transform="translate(303.669688 268.038437) scale(0.1 -0.1)">
       <defs>
        <path id="DejaVuSans-38" d="M 2034 2216 
Q 1584 2216 1326 1975 
Q 1069 1734 1069 1313 
Q 1069 891 1326 650 
Q 1584 409 2034 409 
Q 2484 409 2743 651 
Q 3003 894 3003 1313 
Q 3003 1734 2745 1975 
Q 2488 2216 2034 2216 
z
M 1403 2484 
Q 997 2584 770 2862 
Q 544 3141 544 3541 
Q 544 4100 942 4425 
Q 1341 4750 2034 4750 
Q 2731 4750 3128 4425 
Q 3525 4100 3525 3541 
Q 3525 3141 3298 2862 
Q 3072 2584 2669 2484 
Q 3125 2378 3379 2068 
Q 3634 1759 3634 1313 
Q 3634 634 3220 271 
Q 2806 -91 2034 -91 
Q 1263 -91 848 271 
Q 434 634 434 1313 
Q 434 1759 690 2068 
Q 947 2378 1403 2484 
z
M 1172 3481 
Q 1172 3119 1398 2916 
Q 1625 2713 2034 2713 
Q 2441 2713 2670 2916 
Q 2900 3119 2900 3481 
Q 2900 3844 2670 4047 
Q 2441 4250 2034 4250 
Q 1625 4250 1398 4047 
Q 1172 3844 1172 3481 
z
" transform="scale(0.015625)"/>
       </defs>
       <use xlink:href="#DejaVuSans-30"/>
       <use xlink:href="#DejaVuSans-2e" x="63.623047"/>
       <use xlink:href="#DejaVuSans-38" x="95.410156"/>
      </g>
     </g>
    </g>
    <g id="xtick_6">
     <g id="line2d_6">
      <g>
       <use xlink:href="#mfa637af2b2" x="378.58125" y="253.44" style="stroke: #000000; stroke-width: 0.8"/>
      </g>
     </g>
     <g id="text_6">
      <!-- 1.0 -->
      <g transform="translate(370.629687 268.038437) scale(0.1 -0.1)">
       <defs>
        <path id="DejaVuSans-31" d="M 794 531 
L 1825 531 
L 1825 4091 
L 703 3866 
L 703 4441 
L 1819 4666 
L 2450 4666 
L 2450 531 
L 3481 531 
L 3481 0 
L 794 0 
L 794 531 
z
" transform="scale(0.015625)"/>
       </defs>
       <use xlink:href="#DejaVuSans-31"/>
       <use xlink:href="#DejaVuSans-2e" x="63.623047"/>
       <use xlink:href="#DejaVuSans-30" x="95.410156"/>
      </g>
     </g>
    </g>
    <g id="text_7">
     <!-- $t$ sec -->
     <g transform="translate(199.18125 281.716562) scale(0.1 -0.1)">
      <defs>
       <path id="DejaVuSans-Oblique-74" d="M 2706 3500 
L 2619 3053 
L 1472 3053 
L 1100 1153 
Q 1081 1047 1072 975 
Q 1063 903 1063 863 
Q 1063 663 1183 572 
Q 1303 481 1569 481 
L 2150 481 
L 2053 0 
L 1503 0 
Q 991 0 739 200 
Q 488 400 488 806 
Q 488 878 497 964 
Q 506 1050 525 1153 
L 897 3053 
L 409 3053 
L 500 3500 
L 978 3500 
L 1172 4494 
L 1747 4494 
L 1556 3500 
L 2706 3500 
z
" transform="scale(0.015625)"/>
       <path id="DejaVuSans-20" transform="scale(0.015625)"/>
       <path id="DejaVuSans-73" d="M 2834 3397 
L 2834 2853 
Q 2591 2978 2328 3040 
Q 2066 3103 1784 3103 
Q 1356 3103 1142 2972 
Q 928 2841 928 2578 
Q 928 2378 1081 2264 
Q 1234 2150 1697 2047 
L 1894 2003 
Q 2506 1872 2764 1633 
Q 3022 1394 3022 966 
Q 3022 478 2636 193 
Q 2250 -91 1575 -91 
Q 1294 -91 989 -36 
Q 684 19 347 128 
L 347 722 
Q 666 556 975 473 
Q 1284 391 1588 391 
Q 1994 391 2212 530 
Q 2431 669 2431 922 
Q 2431 1156 2273 1281 
Q 2116 1406 1581 1522 
L 1381 1569 
Q 847 1681 609 1914 
Q 372 2147 372 2553 
Q 372 3047 722 3315 
Q 1072 3584 1716 3584 
Q 2034 3584 2315 3537 
Q 2597 3491 2834 3397 
z
" transform="scale(0.015625)"/>
       <path id="DejaVuSans-65" d="M 3597 1894 
L 3597 1613 
L 953 1613 
Q 991 1019 1311 708 
Q 1631 397 2203 397 
Q 2534 397 2845 478 
Q 3156 559 3463 722 
L 3463 178 
Q 3153 47 2828 -22 
Q 2503 -91 2169 -91 
Q 1331 -91 842 396 
Q 353 884 353 1716 
Q 353 2575 817 3079 
Q 1281 3584 2069 3584 
Q 2775 3584 3186 3129 
Q 3597 2675 3597 1894 
z
M 3022 2063 
Q 3016 2534 2758 2815 
Q 2500 3097 2075 3097 
Q 1594 3097 1305 2825 
Q 1016 2553 972 2059 
L 3022 2063 
z
" transform="scale(0.015625)"/>
       <path id="DejaVuSans-63" d="M 3122 3366 
L 3122 2828 
Q 2878 2963 2633 3030 
Q 2388 3097 2138 3097 
Q 1578 3097 1268 2742 
Q 959 2388 959 1747 
Q 959 1106 1268 751 
Q 1578 397 2138 397 
Q 2388 397 2633 464 
Q 2878 531 3122 666 
L 3122 134 
Q 2881 22 2623 -34 
Q 2366 -91 2075 -91 
Q 1284 -91 818 406 
Q 353 903 353 1747 
Q 353 2603 823 3093 
Q 1294 3584 2113 3584 
Q 2378 3584 2631 3529 
Q 2884 3475 3122 3366 
z
" transform="scale(0.015625)"/>
      </defs>
      <use xlink:href="#DejaVuSans-Oblique-74" transform="translate(0 0.78125)"/>
      <use xlink:href="#DejaVuSans-20" transform="translate(39.208984 0.78125)"/>
      <use xlink:href="#DejaVuSans-73" transform="translate(70.996094 0.78125)"/>
      <use xlink:href="#DejaVuSans-65" transform="translate(123.095703 0.78125)"/>
      <use xlink:href="#DejaVuSans-63" transform="translate(184.619141 0.78125)"/>
     </g>
    </g>
   </g>
   <g id="matplotlib.axis_2">
    <g id="ytick_1">
     <g id="line2d_7">
      <defs>
       <path id="m5d6ff16521" d="M 0 0 
L -3.5 0 
" style="stroke: #000000; stroke-width: 0.8"/>
      </defs>
      <g>
       <use xlink:href="#m5d6ff16521" x="43.78125" y="243.556364" style="stroke: #000000; stroke-width: 0.8"/>
      </g>
     </g>
     <g id="text_8">
      <!-- 0.0 -->
      <g transform="translate(20.878125 247.355582) scale(0.1 -0.1)">
       <use xlink:href="#DejaVuSans-30"/>
       <use xlink:href="#DejaVuSans-2e" x="63.623047"/>
       <use xlink:href="#DejaVuSans-30" x="95.410156"/>
      </g>
     </g>
    </g>
    <g id="ytick_2">
     <g id="line2d_8">
      <g>
       <use xlink:href="#m5d6ff16521" x="43.78125" y="207.186522" style="stroke: #000000; stroke-width: 0.8"/>
      </g>
     </g>
     <g id="text_9">
      <!-- 0.2 -->
      <g transform="translate(20.878125 210.985741) scale(0.1 -0.1)">
       <use xlink:href="#DejaVuSans-30"/>
       <use xlink:href="#DejaVuSans-2e" x="63.623047"/>
       <use xlink:href="#DejaVuSans-32" x="95.410156"/>
      </g>
     </g>
    </g>
    <g id="ytick_3">
     <g id="line2d_9">
      <g>
       <use xlink:href="#m5d6ff16521" x="43.78125" y="170.816681" style="stroke: #000000; stroke-width: 0.8"/>
      </g>
     </g>
     <g id="text_10">
      <!-- 0.4 -->
      <g transform="translate(20.878125 174.6159) scale(0.1 -0.1)">
       <use xlink:href="#DejaVuSans-30"/>
       <use xlink:href="#DejaVuSans-2e" x="63.623047"/>
       <use xlink:href="#DejaVuSans-34" x="95.410156"/>
      </g>
     </g>
    </g>
    <g id="ytick_4">
     <g id="line2d_10">
      <g>
       <use xlink:href="#m5d6ff16521" x="43.78125" y="134.44684" style="stroke: #000000; stroke-width: 0.8"/>
      </g>
     </g>
     <g id="text_11">
      <!-- 0.6 -->
      <g transform="translate(20.878125 138.246059) scale(0.1 -0.1)">
       <use xlink:href="#DejaVuSans-30"/>
       <use xlink:href="#DejaVuSans-2e" x="63.623047"/>
       <use xlink:href="#DejaVuSans-36" x="95.410156"/>
      </g>
     </g>
    </g>
    <g id="ytick_5">
     <g id="line2d_11">
      <g>
       <use xlink:href="#m5d6ff16521" x="43.78125" y="98.076998" style="stroke: #000000; stroke-width: 0.8"/>
      </g>
     </g>
     <g id="text_12">
      <!-- 0.8 -->
      <g transform="translate(20.878125 101.876217) scale(0.1 -0.1)">
       <use xlink:href="#DejaVuSans-30"/>
       <use xlink:href="#DejaVuSans-2e" x="63.623047"/>
       <use xlink:href="#DejaVuSans-38" x="95.410156"/>
      </g>
     </g>
    </g>
    <g id="ytick_6">
     <g id="line2d_12">
      <g>
       <use xlink:href="#m5d6ff16521" x="43.78125" y="61.707157" style="stroke: #000000; stroke-width: 0.8"/>
      </g>
     </g>
     <g id="text_13">
      <!-- 1.0 -->
      <g transform="translate(20.878125 65.506376) scale(0.1 -0.1)">
       <use xlink:href="#DejaVuSans-31"/>
       <use xlink:href="#DejaVuSans-2e" x="63.623047"/>
       <use xlink:href="#DejaVuSans-30" x="95.410156"/>
      </g>
     </g>
    </g>
    <g id="text_14">
     <!-- Voltage -->
     <g transform="translate(14.798438 163.47625) rotate(-90) scale(0.1 -0.1)">
      <defs>
       <path id="DejaVuSans-56" d="M 1831 0 
L 50 4666 
L 709 4666 
L 2188 738 
L 3669 4666 
L 4325 4666 
L 2547 0 
L 1831 0 
z
" transform="scale(0.015625)"/>
       <path id="DejaVuSans-6f" d="M 1959 3097 
Q 1497 3097 1228 2736 
Q 959 2375 959 1747 
Q 959 1119 1226 758 
Q 1494 397 1959 397 
Q 2419 397 2687 759 
Q 2956 1122 2956 1747 
Q 2956 2369 2687 2733 
Q 2419 3097 1959 3097 
z
M 1959 3584 
Q 2709 3584 3137 3096 
Q 3566 2609 3566 1747 
Q 3566 888 3137 398 
Q 2709 -91 1959 -91 
Q 1206 -91 779 398 
Q 353 888 353 1747 
Q 353 2609 779 3096 
Q 1206 3584 1959 3584 
z
" transform="scale(0.015625)"/>
       <path id="DejaVuSans-6c" d="M 603 4863 
L 1178 4863 
L 1178 0 
L 603 0 
L 603 4863 
z
" transform="scale(0.015625)"/>
       <path id="DejaVuSans-74" d="M 1172 4494 
L 1172 3500 
L 2356 3500 
L 2356 3053 
L 1172 3053 
L 1172 1153 
Q 1172 725 1289 603 
Q 1406 481 1766 481 
L 2356 481 
L 2356 0 
L 1766 0 
Q 1100 0 847 248 
Q 594 497 594 1153 
L 594 3053 
L 172 3053 
L 172 3500 
L 594 3500 
L 594 4494 
L 1172 4494 
z
" transform="scale(0.015625)"/>
       <path id="DejaVuSans-61" d="M 2194 1759 
Q 1497 1759 1228 1600 
Q 959 1441 959 1056 
Q 959 750 1161 570 
Q 1363 391 1709 391 
Q 2188 391 2477 730 
Q 2766 1069 2766 1631 
L 2766 1759 
L 2194 1759 
z
M 3341 1997 
L 3341 0 
L 2766 0 
L 2766 531 
Q 2569 213 2275 61 
Q 1981 -91 1556 -91 
Q 1019 -91 701 211 
Q 384 513 384 1019 
Q 384 1609 779 1909 
Q 1175 2209 1959 2209 
L 2766 2209 
L 2766 2266 
Q 2766 2663 2505 2880 
Q 2244 3097 1772 3097 
Q 1472 3097 1187 3025 
Q 903 2953 641 2809 
L 641 3341 
Q 956 3463 1253 3523 
Q 1550 3584 1831 3584 
Q 2591 3584 2966 3190 
Q 3341 2797 3341 1997 
z
" transform="scale(0.015625)"/>
       <path id="DejaVuSans-67" d="M 2906 1791 
Q 2906 2416 2648 2759 
Q 2391 3103 1925 3103 
Q 1463 3103 1205 2759 
Q 947 2416 947 1791 
Q 947 1169 1205 825 
Q 1463 481 1925 481 
Q 2391 481 2648 825 
Q 2906 1169 2906 1791 
z
M 3481 434 
Q 3481 -459 3084 -895 
Q 2688 -1331 1869 -1331 
Q 1566 -1331 1297 -1286 
Q 1028 -1241 775 -1147 
L 775 -588 
Q 1028 -725 1275 -790 
Q 1522 -856 1778 -856 
Q 2344 -856 2625 -561 
Q 2906 -266 2906 331 
L 2906 616 
Q 2728 306 2450 153 
Q 2172 0 1784 0 
Q 1141 0 747 490 
Q 353 981 353 1791 
Q 353 2603 747 3093 
Q 1141 3584 1784 3584 
Q 2172 3584 2450 3431 
Q 2728 3278 2906 2969 
L 2906 3500 
L 3481 3500 
L 3481 434 
z
" transform="scale(0.015625)"/>
      </defs>
      <use xlink:href="#DejaVuSans-56"/>
      <use xlink:href="#DejaVuSans-6f" x="60.658203"/>
      <use xlink:href="#DejaVuSans-6c" x="121.839844"/>
      <use xlink:href="#DejaVuSans-74" x="149.623047"/>
      <use xlink:href="#DejaVuSans-61" x="188.832031"/>
      <use xlink:href="#DejaVuSans-67" x="250.111328"/>
      <use xlink:href="#DejaVuSans-65" x="313.587891"/>
     </g>
    </g>
   </g>
   <g id="line2d_13">
    <path d="M 43.78125 199.865809 
L 45.12045 45.883636 
L 45.45525 243.556364 
L 46.79445 81.469866 
L 47.12925 45.883636 
L 47.46405 243.556364 
L 48.80325 81.469866 
L 49.13805 45.883636 
L 49.47285 243.556364 
L 50.81205 81.469866 
L 51.14685 45.883636 
L 51.48165 243.556364 
L 52.82085 81.469866 
L 53.15565 45.883636 
L 53.49045 243.556364 
L 54.82965 81.469866 
L 55.16445 45.883636 
L 55.49925 243.556364 
L 56.83845 81.469866 
L 57.17325 45.883636 
L 57.50805 243.556364 
L 58.84725 81.469866 
L 59.18205 45.883636 
L 59.51685 243.556364 
L 60.85605 81.469866 
L 61.19085 45.883636 
L 61.52565 243.556364 
L 62.86485 81.469866 
L 63.19965 45.883636 
L 63.53445 243.556364 
L 64.87365 81.469866 
L 65.20845 45.883636 
L 65.54325 243.556364 
L 66.88245 81.469866 
L 67.21725 45.883636 
L 67.55205 243.556364 
L 68.89125 81.469866 
L 69.22605 45.883636 
L 69.56085 243.556364 
L 70.90005 81.469866 
L 71.23485 45.883636 
L 71.56965 243.556364 
L 72.90885 81.469866 
L 73.24365 45.883636 
L 73.57845 243.556364 
L 74.91765 81.469866 
L 75.25245 45.883636 
L 75.58725 243.556364 
L 76.92645 81.469866 
L 77.26125 45.883636 
L 77.59605 243.556364 
L 78.93525 81.469866 
L 79.27005 45.883636 
L 79.60485 243.556364 
L 80.94405 81.469866 
L 81.27885 45.883636 
L 81.61365 243.556364 
L 82.95285 81.469866 
L 83.28765 45.883636 
L 83.62245 243.556364 
L 84.96165 81.469866 
L 85.29645 45.883636 
L 85.63125 243.556364 
L 86.97045 81.469866 
L 87.30525 45.883636 
L 87.64005 243.556364 
L 88.97925 81.469866 
L 89.31405 45.883636 
L 89.64885 243.556364 
L 90.98805 81.469866 
L 91.32285 45.883636 
L 91.65765 243.556364 
L 92.99685 81.469866 
L 93.33165 45.883636 
L 93.66645 243.556364 
L 95.00565 81.469866 
L 95.34045 45.883636 
L 95.67525 243.556364 
L 97.01445 81.469866 
L 97.34925 45.883636 
L 97.68405 243.556364 
L 99.02325 81.469866 
L 99.35805 45.883636 
L 99.69285 243.556364 
L 101.03205 81.469866 
L 101.36685 45.883636 
L 101.70165 243.556364 
L 103.04085 81.469866 
L 103.37565 45.883636 
L 103.71045 243.556364 
L 105.04965 81.469866 
L 105.38445 45.883636 
L 105.71925 243.556364 
L 107.05845 81.469866 
L 107.39325 45.883636 
L 107.72805 243.556364 
L 109.06725 81.469866 
L 109.40205 45.883636 
L 109.73685 243.556364 
L 111.07605 81.469866 
L 111.41085 45.883636 
L 111.74565 243.556364 
L 113.08485 81.469866 
L 113.41965 45.883636 
L 113.75445 243.556364 
L 115.09365 81.469866 
L 115.42845 45.883636 
L 115.76325 243.556364 
L 117.10245 81.469866 
L 117.43725 45.883636 
L 117.77205 243.556364 
L 119.11125 81.469866 
L 119.44605 45.883636 
L 119.78085 243.556364 
L 121.12005 81.469866 
L 121.45485 45.883636 
L 121.78965 243.556364 
L 123.12885 81.469866 
L 123.46365 45.883636 
L 123.79845 243.556364 
L 125.13765 81.469866 
L 125.47245 45.883636 
L 125.80725 243.556364 
L 127.14645 81.469866 
L 127.48125 45.883636 
L 127.81605 243.556364 
L 129.15525 81.469866 
L 129.49005 45.883636 
L 129.82485 243.556364 
L 131.16405 81.469866 
L 131.49885 45.883636 
L 131.83365 243.556364 
L 133.17285 81.469866 
L 133.50765 45.883636 
L 133.84245 243.556364 
L 135.18165 81.469866 
L 135.51645 45.883636 
L 135.85125 243.556364 
L 137.19045 81.469866 
L 137.52525 45.883636 
L 137.86005 243.556364 
L 139.19925 81.469866 
L 139.53405 45.883636 
L 139.86885 243.556364 
L 141.20805 81.469866 
L 141.54285 45.883636 
L 141.87765 243.556364 
L 143.21685 81.469866 
L 143.55165 45.883636 
L 143.88645 243.556364 
L 145.22565 81.469866 
L 145.56045 45.883636 
L 145.89525 243.556364 
L 147.23445 81.469866 
L 147.56925 45.883636 
L 147.90405 243.556364 
L 149.24325 81.469866 
L 149.57805 45.883636 
L 149.91285 243.556364 
L 151.25205 81.469866 
L 151.58685 45.883636 
L 151.92165 243.556364 
L 153.26085 81.469866 
L 153.59565 45.883636 
L 153.93045 243.556364 
L 155.26965 81.469866 
L 155.60445 45.883636 
L 155.93925 243.556364 
L 157.27845 81.469866 
L 157.61325 45.883636 
L 157.94805 243.556364 
L 159.28725 81.469866 
L 159.62205 45.883636 
L 159.95685 243.556364 
L 161.29605 81.469866 
L 161.63085 45.883636 
L 161.96565 243.556364 
L 163.30485 81.469866 
L 163.63965 45.883636 
L 163.97445 243.556364 
L 165.31365 81.469866 
L 165.64845 45.883636 
L 165.98325 243.556364 
L 167.32245 81.469866 
L 167.65725 45.883636 
L 167.99205 243.556364 
L 169.33125 81.469866 
L 169.66605 45.883636 
L 170.00085 243.556364 
L 171.34005 81.469866 
L 171.67485 45.883636 
L 172.00965 243.556364 
L 173.34885 81.469866 
L 173.68365 45.883636 
L 174.01845 243.556364 
L 175.35765 81.469866 
L 175.69245 45.883636 
L 176.02725 243.556364 
L 177.36645 81.469866 
L 177.70125 45.883636 
L 178.03605 243.556364 
L 179.37525 81.469866 
L 179.71005 45.883636 
L 180.04485 243.556364 
L 181.38405 81.469866 
L 181.71885 45.883636 
L 182.05365 243.556364 
L 183.39285 81.469866 
L 183.72765 45.883636 
L 184.06245 243.556364 
L 185.40165 81.469866 
L 185.73645 45.883636 
L 186.07125 243.556364 
L 187.41045 81.469866 
L 187.74525 45.883636 
L 188.08005 243.556364 
L 189.41925 81.469866 
L 189.75405 45.883636 
L 190.08885 243.556364 
L 191.42805 81.469866 
L 191.76285 45.883636 
L 192.09765 243.556364 
L 193.43685 81.469866 
L 193.77165 45.883636 
L 194.10645 243.556364 
L 195.44565 81.469866 
L 195.78045 45.883636 
L 196.11525 243.556364 
L 197.45445 81.469866 
L 197.78925 45.883636 
L 198.12405 243.556364 
L 199.46325 81.469866 
L 199.79805 45.883636 
L 200.13285 243.556364 
L 201.47205 81.469866 
L 201.80685 45.883636 
L 202.14165 243.556364 
L 203.48085 81.469866 
L 203.81565 45.883636 
L 204.15045 243.556364 
L 205.48965 81.469866 
L 205.82445 45.883636 
L 206.15925 243.556364 
L 207.49845 81.469866 
L 207.83325 45.883636 
L 208.16805 243.556364 
L 209.50725 81.469866 
L 209.84205 45.883636 
L 210.17685 243.556364 
L 211.51605 81.469866 
L 211.85085 45.883636 
L 212.18565 243.556364 
L 213.52485 81.469866 
L 213.85965 45.883636 
L 214.19445 243.556364 
L 215.53365 81.469866 
L 215.86845 45.883636 
L 216.20325 243.556364 
L 217.54245 81.469866 
L 217.87725 45.883636 
L 218.21205 243.556364 
L 219.55125 81.469866 
L 219.88605 45.883636 
L 220.22085 243.556364 
L 221.56005 81.469866 
L 221.89485 45.883636 
L 222.22965 243.556364 
L 223.56885 81.469866 
L 223.90365 45.883636 
L 224.23845 243.556364 
L 225.57765 81.469866 
L 225.91245 45.883636 
L 226.24725 243.556364 
L 227.58645 81.469866 
L 227.92125 45.883636 
L 228.25605 243.556364 
L 229.59525 81.469866 
L 229.93005 45.883636 
L 230.26485 243.556364 
L 231.60405 81.469866 
L 231.93885 45.883636 
L 232.27365 243.556364 
L 233.61285 81.469866 
L 233.94765 45.883636 
L 234.28245 243.556364 
L 235.62165 81.469866 
L 235.95645 45.883636 
L 236.29125 243.556364 
L 237.63045 81.469866 
L 237.96525 45.883636 
L 238.30005 243.556364 
L 239.63925 81.469866 
L 239.97405 45.883636 
L 240.30885 243.556364 
L 241.64805 81.469866 
L 241.98285 45.883636 
L 242.31765 243.556364 
L 243.65685 81.469866 
L 243.99165 45.883636 
L 244.32645 243.556364 
L 245.66565 81.469866 
L 246.00045 45.883636 
L 246.33525 243.556364 
L 247.67445 81.469866 
L 248.00925 45.883636 
L 248.34405 243.556364 
L 249.68325 81.469866 
L 250.01805 45.883636 
L 250.35285 243.556364 
L 251.69205 81.469866 
L 252.02685 45.883636 
L 252.36165 243.556364 
L 253.70085 81.469866 
L 254.03565 45.883636 
L 254.37045 243.556364 
L 255.70965 81.469866 
L 256.04445 45.883636 
L 256.37925 243.556364 
L 257.71845 81.469866 
L 258.05325 45.883636 
L 258.38805 243.556364 
L 259.72725 81.469866 
L 260.06205 45.883636 
L 260.39685 243.556364 
L 261.73605 81.469866 
L 262.07085 45.883636 
L 262.40565 243.556364 
L 263.74485 81.469866 
L 264.07965 45.883636 
L 264.41445 243.556364 
L 265.75365 81.469866 
L 266.08845 45.883636 
L 266.42325 243.556364 
L 267.76245 81.469866 
L 268.09725 45.883636 
L 268.43205 243.556364 
L 269.77125 81.469866 
L 270.10605 45.883636 
L 270.44085 243.556364 
L 271.78005 81.469866 
L 272.11485 45.883636 
L 272.44965 243.556364 
L 273.78885 81.469866 
L 274.12365 45.883636 
L 274.45845 243.556364 
L 275.79765 81.469866 
L 276.13245 45.883636 
L 276.46725 243.556364 
L 277.80645 81.469866 
L 278.14125 45.883636 
L 278.47605 243.556364 
L 279.81525 81.469866 
L 280.15005 45.883636 
L 280.48485 243.556364 
L 281.82405 81.469866 
L 282.15885 45.883636 
L 282.49365 243.556364 
L 283.83285 81.469866 
L 284.16765 45.883636 
L 284.50245 243.556364 
L 285.84165 81.469866 
L 286.17645 45.883636 
L 286.51125 243.556364 
L 287.85045 81.469866 
L 288.18525 45.883636 
L 288.52005 243.556364 
L 289.85925 81.469866 
L 290.19405 45.883636 
L 290.52885 243.556364 
L 291.86805 81.469866 
L 292.20285 45.883636 
L 292.53765 243.556364 
L 293.87685 81.469866 
L 294.21165 45.883636 
L 294.54645 243.556364 
L 295.88565 81.469866 
L 296.22045 45.883636 
L 296.55525 243.556364 
L 297.89445 81.469866 
L 298.22925 45.883636 
L 298.56405 243.556364 
L 299.90325 81.469866 
L 300.23805 45.883636 
L 300.57285 243.556364 
L 301.91205 81.469866 
L 302.24685 45.883636 
L 302.58165 243.556364 
L 303.92085 81.469866 
L 304.25565 45.883636 
L 304.59045 243.556364 
L 305.92965 81.469866 
L 306.26445 45.883636 
L 306.59925 243.556364 
L 307.93845 81.469866 
L 308.27325 45.883636 
L 308.60805 243.556364 
L 309.94725 81.469866 
L 310.28205 45.883636 
L 310.61685 243.556364 
L 311.95605 81.469866 
L 312.29085 45.883636 
L 312.62565 243.556364 
L 313.96485 81.469866 
L 314.29965 45.883636 
L 314.63445 243.556364 
L 315.97365 81.469866 
L 316.30845 45.883636 
L 316.64325 243.556364 
L 317.98245 81.469866 
L 318.31725 45.883636 
L 318.65205 243.556364 
L 319.99125 81.469866 
L 320.32605 45.883636 
L 320.66085 243.556364 
L 322.00005 81.469866 
L 322.33485 45.883636 
L 322.66965 243.556364 
L 324.00885 81.469866 
L 324.34365 45.883636 
L 324.67845 243.556364 
L 326.01765 81.469866 
L 326.35245 45.883636 
L 326.68725 243.556364 
L 328.02645 81.469866 
L 328.36125 45.883636 
L 328.69605 243.556364 
L 330.03525 81.469866 
L 330.37005 45.883636 
L 330.70485 243.556364 
L 332.04405 81.469866 
L 332.37885 45.883636 
L 332.71365 243.556364 
L 334.05285 81.469866 
L 334.38765 45.883636 
L 334.72245 243.556364 
L 336.06165 81.469866 
L 336.39645 45.883636 
L 336.73125 243.556364 
L 338.07045 81.469866 
L 338.40525 45.883636 
L 338.74005 243.556364 
L 340.07925 81.469866 
L 340.41405 45.883636 
L 340.74885 243.556364 
L 342.08805 81.469866 
L 342.42285 45.883636 
L 342.75765 243.556364 
L 344.09685 81.469866 
L 344.43165 45.883636 
L 344.76645 243.556364 
L 346.10565 81.469866 
L 346.44045 45.883636 
L 346.77525 243.556364 
L 348.11445 81.469866 
L 348.44925 45.883636 
L 348.78405 243.556364 
L 350.12325 81.469866 
L 350.45805 45.883636 
L 350.79285 243.556364 
L 352.13205 81.469866 
L 352.46685 45.883636 
L 352.80165 243.556364 
L 354.14085 81.469866 
L 354.47565 45.883636 
L 354.81045 243.556364 
L 356.14965 81.469866 
L 356.48445 45.883636 
L 356.81925 243.556364 
L 358.15845 81.469866 
L 358.49325 45.883636 
L 358.82805 243.556364 
L 360.16725 81.469866 
L 360.50205 45.883636 
L 360.83685 243.556364 
L 362.17605 81.469866 
L 362.51085 45.883636 
L 362.84565 243.556364 
L 364.18485 81.469866 
L 364.51965 45.883636 
L 364.85445 243.556364 
L 366.19365 81.469866 
L 366.52845 45.883636 
L 366.86325 243.556364 
L 368.20245 81.469866 
L 368.53725 45.883636 
L 368.87205 243.556364 
L 370.21125 81.469866 
L 370.54605 45.883636 
L 370.88085 243.556364 
L 372.22005 81.469866 
L 372.55485 45.883636 
L 372.88965 243.556364 
L 374.22885 81.469866 
L 374.56365 45.883636 
L 374.89845 243.556364 
L 376.23765 81.469866 
L 376.57245 45.883636 
L 376.90725 243.556364 
L 378.24645 81.469866 
L 378.24645 81.469866 
" clip-path="url(#pebaba6f288)" style="fill: none; stroke: #1f77b4; stroke-width: 1.5; stroke-linecap: square"/>
   </g>
   <g id="line2d_14">
    <path d="M 43.78125 61.707157 
L 378.24645 61.707157 
L 378.24645 61.707157 
" clip-path="url(#pebaba6f288)" style="fill: none; stroke: #ff7f0e; stroke-width: 1.5; stroke-linecap: square"/>
   </g>
   <g id="patch_3">
    <path d="M 43.78125 253.44 
L 43.78125 36 
" style="fill: none; stroke: #000000; stroke-width: 0.8; stroke-linejoin: miter; stroke-linecap: square"/>
   </g>
   <g id="patch_4">
    <path d="M 378.58125 253.44 
L 378.58125 36 
" style="fill: none; stroke: #000000; stroke-width: 0.8; stroke-linejoin: miter; stroke-linecap: square"/>
   </g>
   <g id="patch_5">
    <path d="M 43.78125 253.44 
L 378.58125 253.44 
" style="fill: none; stroke: #000000; stroke-width: 0.8; stroke-linejoin: miter; stroke-linecap: square"/>
   </g>
   <g id="patch_6">
    <path d="M 43.78125 36 
L 378.58125 36 
" style="fill: none; stroke: #000000; stroke-width: 0.8; stroke-linejoin: miter; stroke-linecap: square"/>
   </g>
   <g id="legend_1">
    <g id="patch_7">
     <path d="M 186.33125 248.44 
L 236.03125 248.44 
Q 238.03125 248.44 238.03125 246.44 
L 238.03125 218.08375 
Q 238.03125 216.08375 236.03125 216.08375 
L 186.33125 216.08375 
Q 184.33125 216.08375 184.33125 218.08375 
L 184.33125 246.44 
Q 184.33125 248.44 186.33125 248.44 
z
" style="fill: #ffffff; opacity: 0.8; stroke: #cccccc; stroke-linejoin: miter"/>
    </g>
    <g id="line2d_15">
     <path d="M 188.33125 224.182187 
L 198.33125 224.182187 
L 208.33125 224.182187 
" style="fill: none; stroke: #1f77b4; stroke-width: 1.5; stroke-linecap: square"/>
    </g>
    <g id="text_15">
     <!-- $v(t)$ -->
     <g transform="translate(216.33125 227.682187) scale(0.1 -0.1)">
      <defs>
       <path id="DejaVuSans-Oblique-76" d="M 459 3500 
L 1069 3500 
L 1581 525 
L 3256 3500 
L 3866 3500 
L 1875 0 
L 1100 0 
L 459 3500 
z
" transform="scale(0.015625)"/>
       <path id="DejaVuSans-28" d="M 1984 4856 
Q 1566 4138 1362 3434 
Q 1159 2731 1159 2009 
Q 1159 1288 1364 580 
Q 1569 -128 1984 -844 
L 1484 -844 
Q 1016 -109 783 600 
Q 550 1309 550 2009 
Q 550 2706 781 3412 
Q 1013 4119 1484 4856 
L 1984 4856 
z
" transform="scale(0.015625)"/>
       <path id="DejaVuSans-29" d="M 513 4856 
L 1013 4856 
Q 1481 4119 1714 3412 
Q 1947 2706 1947 2009 
Q 1947 1309 1714 600 
Q 1481 -109 1013 -844 
L 513 -844 
Q 928 -128 1133 580 
Q 1338 1288 1338 2009 
Q 1338 2731 1133 3434 
Q 928 4138 513 4856 
z
" transform="scale(0.015625)"/>
      </defs>
      <use xlink:href="#DejaVuSans-Oblique-76" transform="translate(0 0.125)"/>
      <use xlink:href="#DejaVuSans-28" transform="translate(59.179688 0.125)"/>
      <use xlink:href="#DejaVuSans-Oblique-74" transform="translate(98.193359 0.125)"/>
      <use xlink:href="#DejaVuSans-29" transform="translate(137.402344 0.125)"/>
     </g>
    </g>
    <g id="line2d_16">
     <path d="M 188.33125 238.860312 
L 198.33125 238.860312 
L 208.33125 238.860312 
" style="fill: none; stroke: #ff7f0e; stroke-width: 1.5; stroke-linecap: square"/>
    </g>
    <g id="text_16">
     <!-- $x(t)$ -->
     <g transform="translate(216.33125 242.360312) scale(0.1 -0.1)">
      <defs>
       <path id="DejaVuSans-Oblique-78" d="M 3841 3500 
L 2234 1784 
L 3219 0 
L 2559 0 
L 1819 1388 
L 531 0 
L -166 0 
L 1556 1844 
L 641 3500 
L 1300 3500 
L 1972 2234 
L 3144 3500 
L 3841 3500 
z
" transform="scale(0.015625)"/>
      </defs>
      <use xlink:href="#DejaVuSans-Oblique-78" transform="translate(0 0.125)"/>
      <use xlink:href="#DejaVuSans-28" transform="translate(59.179688 0.125)"/>
      <use xlink:href="#DejaVuSans-Oblique-74" transform="translate(98.193359 0.125)"/>
      <use xlink:href="#DejaVuSans-29" transform="translate(137.402344 0.125)"/>
     </g>
    </g>
   </g>
  </g>
  <g id="text_17">
   <!-- Voltage $v(t)$ for a LIF Neuron with $x=1$ -->
   <g transform="translate(88.96125 16.32) scale(0.12 -0.12)">
    <defs>
     <path id="DejaVuSans-66" d="M 2375 4863 
L 2375 4384 
L 1825 4384 
Q 1516 4384 1395 4259 
Q 1275 4134 1275 3809 
L 1275 3500 
L 2222 3500 
L 2222 3053 
L 1275 3053 
L 1275 0 
L 697 0 
L 697 3053 
L 147 3053 
L 147 3500 
L 697 3500 
L 697 3744 
Q 697 4328 969 4595 
Q 1241 4863 1831 4863 
L 2375 4863 
z
" transform="scale(0.015625)"/>
     <path id="DejaVuSans-72" d="M 2631 2963 
Q 2534 3019 2420 3045 
Q 2306 3072 2169 3072 
Q 1681 3072 1420 2755 
Q 1159 2438 1159 1844 
L 1159 0 
L 581 0 
L 581 3500 
L 1159 3500 
L 1159 2956 
Q 1341 3275 1631 3429 
Q 1922 3584 2338 3584 
Q 2397 3584 2469 3576 
Q 2541 3569 2628 3553 
L 2631 2963 
z
" transform="scale(0.015625)"/>
     <path id="DejaVuSans-4c" d="M 628 4666 
L 1259 4666 
L 1259 531 
L 3531 531 
L 3531 0 
L 628 0 
L 628 4666 
z
" transform="scale(0.015625)"/>
     <path id="DejaVuSans-49" d="M 628 4666 
L 1259 4666 
L 1259 0 
L 628 0 
L 628 4666 
z
" transform="scale(0.015625)"/>
     <path id="DejaVuSans-46" d="M 628 4666 
L 3309 4666 
L 3309 4134 
L 1259 4134 
L 1259 2759 
L 3109 2759 
L 3109 2228 
L 1259 2228 
L 1259 0 
L 628 0 
L 628 4666 
z
" transform="scale(0.015625)"/>
     <path id="DejaVuSans-4e" d="M 628 4666 
L 1478 4666 
L 3547 763 
L 3547 4666 
L 4159 4666 
L 4159 0 
L 3309 0 
L 1241 3903 
L 1241 0 
L 628 0 
L 628 4666 
z
" transform="scale(0.015625)"/>
     <path id="DejaVuSans-75" d="M 544 1381 
L 544 3500 
L 1119 3500 
L 1119 1403 
Q 1119 906 1312 657 
Q 1506 409 1894 409 
Q 2359 409 2629 706 
Q 2900 1003 2900 1516 
L 2900 3500 
L 3475 3500 
L 3475 0 
L 2900 0 
L 2900 538 
Q 2691 219 2414 64 
Q 2138 -91 1772 -91 
Q 1169 -91 856 284 
Q 544 659 544 1381 
z
M 1991 3584 
L 1991 3584 
z
" transform="scale(0.015625)"/>
     <path id="DejaVuSans-6e" d="M 3513 2113 
L 3513 0 
L 2938 0 
L 2938 2094 
Q 2938 2591 2744 2837 
Q 2550 3084 2163 3084 
Q 1697 3084 1428 2787 
Q 1159 2491 1159 1978 
L 1159 0 
L 581 0 
L 581 3500 
L 1159 3500 
L 1159 2956 
Q 1366 3272 1645 3428 
Q 1925 3584 2291 3584 
Q 2894 3584 3203 3211 
Q 3513 2838 3513 2113 
z
" transform="scale(0.015625)"/>
     <path id="DejaVuSans-77" d="M 269 3500 
L 844 3500 
L 1563 769 
L 2278 3500 
L 2956 3500 
L 3675 769 
L 4391 3500 
L 4966 3500 
L 4050 0 
L 3372 0 
L 2619 2869 
L 1863 0 
L 1184 0 
L 269 3500 
z
" transform="scale(0.015625)"/>
     <path id="DejaVuSans-69" d="M 603 3500 
L 1178 3500 
L 1178 0 
L 603 0 
L 603 3500 
z
M 603 4863 
L 1178 4863 
L 1178 4134 
L 603 4134 
L 603 4863 
z
" transform="scale(0.015625)"/>
     <path id="DejaVuSans-68" d="M 3513 2113 
L 3513 0 
L 2938 0 
L 2938 2094 
Q 2938 2591 2744 2837 
Q 2550 3084 2163 3084 
Q 1697 3084 1428 2787 
Q 1159 2491 1159 1978 
L 1159 0 
L 581 0 
L 581 4863 
L 1159 4863 
L 1159 2956 
Q 1366 3272 1645 3428 
Q 1925 3584 2291 3584 
Q 2894 3584 3203 3211 
Q 3513 2838 3513 2113 
z
" transform="scale(0.015625)"/>
     <path id="DejaVuSans-3d" d="M 678 2906 
L 4684 2906 
L 4684 2381 
L 678 2381 
L 678 2906 
z
M 678 1631 
L 4684 1631 
L 4684 1100 
L 678 1100 
L 678 1631 
z
" transform="scale(0.015625)"/>
    </defs>
    <use xlink:href="#DejaVuSans-56" transform="translate(0 0.015625)"/>
    <use xlink:href="#DejaVuSans-6f" transform="translate(68.408203 0.015625)"/>
    <use xlink:href="#DejaVuSans-6c" transform="translate(129.589844 0.015625)"/>
    <use xlink:href="#DejaVuSans-74" transform="translate(157.373047 0.015625)"/>
    <use xlink:href="#DejaVuSans-61" transform="translate(196.582031 0.015625)"/>
    <use xlink:href="#DejaVuSans-67" transform="translate(257.861328 0.015625)"/>
    <use xlink:href="#DejaVuSans-65" transform="translate(321.337891 0.015625)"/>
    <use xlink:href="#DejaVuSans-20" transform="translate(382.861328 0.015625)"/>
    <use xlink:href="#DejaVuSans-Oblique-76" transform="translate(414.648438 0.015625)"/>
    <use xlink:href="#DejaVuSans-28" transform="translate(473.828125 0.015625)"/>
    <use xlink:href="#DejaVuSans-Oblique-74" transform="translate(512.841797 0.015625)"/>
    <use xlink:href="#DejaVuSans-29" transform="translate(552.050781 0.015625)"/>
    <use xlink:href="#DejaVuSans-20" transform="translate(591.064453 0.015625)"/>
    <use xlink:href="#DejaVuSans-66" transform="translate(622.851562 0.015625)"/>
    <use xlink:href="#DejaVuSans-6f" transform="translate(658.056641 0.015625)"/>
    <use xlink:href="#DejaVuSans-72" transform="translate(719.238281 0.015625)"/>
    <use xlink:href="#DejaVuSans-20" transform="translate(760.351562 0.015625)"/>
    <use xlink:href="#DejaVuSans-61" transform="translate(792.138672 0.015625)"/>
    <use xlink:href="#DejaVuSans-20" transform="translate(853.417969 0.015625)"/>
    <use xlink:href="#DejaVuSans-4c" transform="translate(885.205078 0.015625)"/>
    <use xlink:href="#DejaVuSans-49" transform="translate(940.917969 0.015625)"/>
    <use xlink:href="#DejaVuSans-46" transform="translate(970.410156 0.015625)"/>
    <use xlink:href="#DejaVuSans-20" transform="translate(1027.929688 0.015625)"/>
    <use xlink:href="#DejaVuSans-4e" transform="translate(1059.716797 0.015625)"/>
    <use xlink:href="#DejaVuSans-65" transform="translate(1134.521484 0.015625)"/>
    <use xlink:href="#DejaVuSans-75" transform="translate(1196.044922 0.015625)"/>
    <use xlink:href="#DejaVuSans-72" transform="translate(1259.423828 0.015625)"/>
    <use xlink:href="#DejaVuSans-6f" transform="translate(1300.537109 0.015625)"/>
    <use xlink:href="#DejaVuSans-6e" transform="translate(1361.71875 0.015625)"/>
    <use xlink:href="#DejaVuSans-20" transform="translate(1425.097656 0.015625)"/>
    <use xlink:href="#DejaVuSans-77" transform="translate(1456.884766 0.015625)"/>
    <use xlink:href="#DejaVuSans-69" transform="translate(1538.671875 0.015625)"/>
    <use xlink:href="#DejaVuSans-74" transform="translate(1566.455078 0.015625)"/>
    <use xlink:href="#DejaVuSans-68" transform="translate(1605.664062 0.015625)"/>
    <use xlink:href="#DejaVuSans-20" transform="translate(1669.042969 0.015625)"/>
    <use xlink:href="#DejaVuSans-Oblique-78" transform="translate(1700.830078 0.015625)"/>
    <use xlink:href="#DejaVuSans-3d" transform="translate(1779.492188 0.015625)"/>
    <use xlink:href="#DejaVuSans-31" transform="translate(1882.763672 0.015625)"/>
   </g>
  </g>
 </g>
 <defs>
  <clipPath id="pebaba6f288">
   <rect x="43.78125" y="36" width="334.8" height="217.44"/>
  </clipPath>
 </defs>
</svg>
