<?xml version="1.0" encoding="utf-8" standalone="no"?>
<!DOCTYPE svg PUBLIC "-//W3C//DTD SVG 1.1//EN"
  "http://www.w3.org/Graphics/SVG/1.1/DTD/svg11.dtd">
<svg xmlns:xlink="http://www.w3.org/1999/xlink" width="384.736875pt" height="290.99625pt" viewBox="0 0 384.736875 290.99625" xmlns="http://www.w3.org/2000/svg" version="1.1">
 <metadata>
  <rdf:RDF xmlns:dc="http://purl.org/dc/elements/1.1/" xmlns:cc="http://creativecommons.org/ns#" xmlns:rdf="http://www.w3.org/1999/02/22-rdf-syntax-ns#">
   <cc:Work>
    <dc:type rdf:resource="http://purl.org/dc/dcmitype/StillImage"/>
    <dc:date>2022-11-20T20:09:24.816135</dc:date>
    <dc:format>image/svg+xml</dc:format>
    <dc:creator>
     <cc:Agent>
      <dc:title>Matplotlib v3.6.0, https://matplotlib.org/</dc:title>
     </cc:Agent>
    </dc:creator>
   </cc:Work>
  </rdf:RDF>
 </metadata>
 <defs>
  <style type="text/css">*{stroke-linejoin: round; stroke-linecap: butt}</style>
 </defs>
 <g id="figure_1">
  <g id="patch_1">
   <path d="M 0 290.99625 
L 384.736875 290.99625 
L 384.736875 0 
L 0 0 
L 0 290.99625 
z
" style="fill: none"/>
  </g>
  <g id="axes_1">
   <g id="patch_2">
    <path d="M 30.368437 253.44 
L 365.168437 253.44 
L 365.168437 36 
L 30.368437 36 
z
" style="fill: #ffffff"/>
   </g>
   <g id="matplotlib.axis_1">
    <g id="xtick_1">
     <g id="line2d_1">
      <defs>
       <path id="m67f83c0edb" d="M 0 0 
L 0 3.5 
" style="stroke: #000000; stroke-width: 0.8"/>
      </defs>
      <g>
       <use xlink:href="#m67f83c0edb" x="30.368437" y="253.44" style="stroke: #000000; stroke-width: 0.8"/>
      </g>
     </g>
     <g id="text_1">
      <!-- 0.00 -->
      <g transform="translate(19.235625 268.038437) scale(0.1 -0.1)">
       <defs>
        <path id="DejaVuSans-30" d="M 2034 4250 
Q 1547 4250 1301 3770 
Q 1056 3291 1056 2328 
Q 1056 1369 1301 889 
Q 1547 409 2034 409 
Q 2525 409 2770 889 
Q 3016 1369 3016 2328 
Q 3016 3291 2770 3770 
Q 2525 4250 2034 4250 
z
M 2034 4750 
Q 2819 4750 3233 4129 
Q 3647 3509 3647 2328 
Q 3647 1150 3233 529 
Q 2819 -91 2034 -91 
Q 1250 -91 836 529 
Q 422 1150 422 2328 
Q 422 3509 836 4129 
Q 1250 4750 2034 4750 
z
" transform="scale(0.015625)"/>
        <path id="DejaVuSans-2e" d="M 684 794 
L 1344 794 
L 1344 0 
L 684 0 
L 684 794 
z
" transform="scale(0.015625)"/>
       </defs>
       <use xlink:href="#DejaVuSans-30"/>
       <use xlink:href="#DejaVuSans-2e" x="63.623047"/>
       <use xlink:href="#DejaVuSans-30" x="95.410156"/>
       <use xlink:href="#DejaVuSans-30" x="159.033203"/>
      </g>
     </g>
    </g>
    <g id="xtick_2">
     <g id="line2d_2">
      <g>
       <use xlink:href="#m67f83c0edb" x="72.218437" y="253.44" style="stroke: #000000; stroke-width: 0.8"/>
      </g>
     </g>
     <g id="text_2">
      <!-- 0.25 -->
      <g transform="translate(61.085625 268.038437) scale(0.1 -0.1)">
       <defs>
        <path id="DejaVuSans-32" d="M 1228 531 
L 3431 531 
L 3431 0 
L 469 0 
L 469 531 
Q 828 903 1448 1529 
Q 2069 2156 2228 2338 
Q 2531 2678 2651 2914 
Q 2772 3150 2772 3378 
Q 2772 3750 2511 3984 
Q 2250 4219 1831 4219 
Q 1534 4219 1204 4116 
Q 875 4013 500 3803 
L 500 4441 
Q 881 4594 1212 4672 
Q 1544 4750 1819 4750 
Q 2544 4750 2975 4387 
Q 3406 4025 3406 3419 
Q 3406 3131 3298 2873 
Q 3191 2616 2906 2266 
Q 2828 2175 2409 1742 
Q 1991 1309 1228 531 
z
" transform="scale(0.015625)"/>
        <path id="DejaVuSans-35" d="M 691 4666 
L 3169 4666 
L 3169 4134 
L 1269 4134 
L 1269 2991 
Q 1406 3038 1543 3061 
Q 1681 3084 1819 3084 
Q 2600 3084 3056 2656 
Q 3513 2228 3513 1497 
Q 3513 744 3044 326 
Q 2575 -91 1722 -91 
Q 1428 -91 1123 -41 
Q 819 9 494 109 
L 494 744 
Q 775 591 1075 516 
Q 1375 441 1709 441 
Q 2250 441 2565 725 
Q 2881 1009 2881 1497 
Q 2881 1984 2565 2268 
Q 2250 2553 1709 2553 
Q 1456 2553 1204 2497 
Q 953 2441 691 2322 
L 691 4666 
z
" transform="scale(0.015625)"/>
       </defs>
       <use xlink:href="#DejaVuSans-30"/>
       <use xlink:href="#DejaVuSans-2e" x="63.623047"/>
       <use xlink:href="#DejaVuSans-32" x="95.410156"/>
       <use xlink:href="#DejaVuSans-35" x="159.033203"/>
      </g>
     </g>
    </g>
    <g id="xtick_3">
     <g id="line2d_3">
      <g>
       <use xlink:href="#m67f83c0edb" x="114.068437" y="253.44" style="stroke: #000000; stroke-width: 0.8"/>
      </g>
     </g>
     <g id="text_3">
      <!-- 0.50 -->
      <g transform="translate(102.935625 268.038437) scale(0.1 -0.1)">
       <use xlink:href="#DejaVuSans-30"/>
       <use xlink:href="#DejaVuSans-2e" x="63.623047"/>
       <use xlink:href="#DejaVuSans-35" x="95.410156"/>
       <use xlink:href="#DejaVuSans-30" x="159.033203"/>
      </g>
     </g>
    </g>
    <g id="xtick_4">
     <g id="line2d_4">
      <g>
       <use xlink:href="#m67f83c0edb" x="155.918437" y="253.44" style="stroke: #000000; stroke-width: 0.8"/>
      </g>
     </g>
     <g id="text_4">
      <!-- 0.75 -->
      <g transform="translate(144.785625 268.038437) scale(0.1 -0.1)">
       <defs>
        <path id="DejaVuSans-37" d="M 525 4666 
L 3525 4666 
L 3525 4397 
L 1831 0 
L 1172 0 
L 2766 4134 
L 525 4134 
L 525 4666 
z
" transform="scale(0.015625)"/>
       </defs>
       <use xlink:href="#DejaVuSans-30"/>
       <use xlink:href="#DejaVuSans-2e" x="63.623047"/>
       <use xlink:href="#DejaVuSans-37" x="95.410156"/>
       <use xlink:href="#DejaVuSans-35" x="159.033203"/>
      </g>
     </g>
    </g>
    <g id="xtick_5">
     <g id="line2d_5">
      <g>
       <use xlink:href="#m67f83c0edb" x="197.768437" y="253.44" style="stroke: #000000; stroke-width: 0.8"/>
      </g>
     </g>
     <g id="text_5">
      <!-- 1.00 -->
      <g transform="translate(186.635625 268.038437) scale(0.1 -0.1)">
       <defs>
        <path id="DejaVuSans-31" d="M 794 531 
L 1825 531 
L 1825 4091 
L 703 3866 
L 703 4441 
L 1819 4666 
L 2450 4666 
L 2450 531 
L 3481 531 
L 3481 0 
L 794 0 
L 794 531 
z
" transform="scale(0.015625)"/>
       </defs>
       <use xlink:href="#DejaVuSans-31"/>
       <use xlink:href="#DejaVuSans-2e" x="63.623047"/>
       <use xlink:href="#DejaVuSans-30" x="95.410156"/>
       <use xlink:href="#DejaVuSans-30" x="159.033203"/>
      </g>
     </g>
    </g>
    <g id="xtick_6">
     <g id="line2d_6">
      <g>
       <use xlink:href="#m67f83c0edb" x="239.618437" y="253.44" style="stroke: #000000; stroke-width: 0.8"/>
      </g>
     </g>
     <g id="text_6">
      <!-- 1.25 -->
      <g transform="translate(228.485625 268.038437) scale(0.1 -0.1)">
       <use xlink:href="#DejaVuSans-31"/>
       <use xlink:href="#DejaVuSans-2e" x="63.623047"/>
       <use xlink:href="#DejaVuSans-32" x="95.410156"/>
       <use xlink:href="#DejaVuSans-35" x="159.033203"/>
      </g>
     </g>
    </g>
    <g id="xtick_7">
     <g id="line2d_7">
      <g>
       <use xlink:href="#m67f83c0edb" x="281.468437" y="253.44" style="stroke: #000000; stroke-width: 0.8"/>
      </g>
     </g>
     <g id="text_7">
      <!-- 1.50 -->
      <g transform="translate(270.335625 268.038437) scale(0.1 -0.1)">
       <use xlink:href="#DejaVuSans-31"/>
       <use xlink:href="#DejaVuSans-2e" x="63.623047"/>
       <use xlink:href="#DejaVuSans-35" x="95.410156"/>
       <use xlink:href="#DejaVuSans-30" x="159.033203"/>
      </g>
     </g>
    </g>
    <g id="xtick_8">
     <g id="line2d_8">
      <g>
       <use xlink:href="#m67f83c0edb" x="323.318437" y="253.44" style="stroke: #000000; stroke-width: 0.8"/>
      </g>
     </g>
     <g id="text_8">
      <!-- 1.75 -->
      <g transform="translate(312.185625 268.038437) scale(0.1 -0.1)">
       <use xlink:href="#DejaVuSans-31"/>
       <use xlink:href="#DejaVuSans-2e" x="63.623047"/>
       <use xlink:href="#DejaVuSans-37" x="95.410156"/>
       <use xlink:href="#DejaVuSans-35" x="159.033203"/>
      </g>
     </g>
    </g>
    <g id="xtick_9">
     <g id="line2d_9">
      <g>
       <use xlink:href="#m67f83c0edb" x="365.168437" y="253.44" style="stroke: #000000; stroke-width: 0.8"/>
      </g>
     </g>
     <g id="text_9">
      <!-- 2.00 -->
      <g transform="translate(354.035625 268.038437) scale(0.1 -0.1)">
       <use xlink:href="#DejaVuSans-32"/>
       <use xlink:href="#DejaVuSans-2e" x="63.623047"/>
       <use xlink:href="#DejaVuSans-30" x="95.410156"/>
       <use xlink:href="#DejaVuSans-30" x="159.033203"/>
      </g>
     </g>
    </g>
    <g id="text_10">
     <!-- $t$ -->
     <g transform="translate(195.768437 281.716562) scale(0.1 -0.1)">
      <defs>
       <path id="DejaVuSans-Oblique-74" d="M 2706 3500 
L 2619 3053 
L 1472 3053 
L 1100 1153 
Q 1081 1047 1072 975 
Q 1063 903 1063 863 
Q 1063 663 1183 572 
Q 1303 481 1569 481 
L 2150 481 
L 2053 0 
L 1503 0 
Q 991 0 739 200 
Q 488 400 488 806 
Q 488 878 497 964 
Q 506 1050 525 1153 
L 897 3053 
L 409 3053 
L 500 3500 
L 978 3500 
L 1172 4494 
L 1747 4494 
L 1556 3500 
L 2706 3500 
z
" transform="scale(0.015625)"/>
      </defs>
      <use xlink:href="#DejaVuSans-Oblique-74" transform="translate(0 0.78125)"/>
     </g>
    </g>
   </g>
   <g id="matplotlib.axis_2">
    <g id="ytick_1">
     <g id="line2d_10">
      <defs>
       <path id="m9a236c8cc9" d="M 0 0 
L -3.5 0 
" style="stroke: #000000; stroke-width: 0.8"/>
      </defs>
      <g>
       <use xlink:href="#m9a236c8cc9" x="30.368437" y="235.096515" style="stroke: #000000; stroke-width: 0.8"/>
      </g>
     </g>
     <g id="text_11">
      <!-- 0.0 -->
      <g transform="translate(7.465312 238.895734) scale(0.1 -0.1)">
       <use xlink:href="#DejaVuSans-30"/>
       <use xlink:href="#DejaVuSans-2e" x="63.623047"/>
       <use xlink:href="#DejaVuSans-30" x="95.410156"/>
      </g>
     </g>
    </g>
    <g id="ytick_2">
     <g id="line2d_11">
      <g>
       <use xlink:href="#m9a236c8cc9" x="30.368437" y="196.50051" style="stroke: #000000; stroke-width: 0.8"/>
      </g>
     </g>
     <g id="text_12">
      <!-- 0.2 -->
      <g transform="translate(7.465312 200.299729) scale(0.1 -0.1)">
       <use xlink:href="#DejaVuSans-30"/>
       <use xlink:href="#DejaVuSans-2e" x="63.623047"/>
       <use xlink:href="#DejaVuSans-32" x="95.410156"/>
      </g>
     </g>
    </g>
    <g id="ytick_3">
     <g id="line2d_12">
      <g>
       <use xlink:href="#m9a236c8cc9" x="30.368437" y="157.904505" style="stroke: #000000; stroke-width: 0.8"/>
      </g>
     </g>
     <g id="text_13">
      <!-- 0.4 -->
      <g transform="translate(7.465312 161.703724) scale(0.1 -0.1)">
       <defs>
        <path id="DejaVuSans-34" d="M 2419 4116 
L 825 1625 
L 2419 1625 
L 2419 4116 
z
M 2253 4666 
L 3047 4666 
L 3047 1625 
L 3713 1625 
L 3713 1100 
L 3047 1100 
L 3047 0 
L 2419 0 
L 2419 1100 
L 313 1100 
L 313 1709 
L 2253 4666 
z
" transform="scale(0.015625)"/>
       </defs>
       <use xlink:href="#DejaVuSans-30"/>
       <use xlink:href="#DejaVuSans-2e" x="63.623047"/>
       <use xlink:href="#DejaVuSans-34" x="95.410156"/>
      </g>
     </g>
    </g>
    <g id="ytick_4">
     <g id="line2d_13">
      <g>
       <use xlink:href="#m9a236c8cc9" x="30.368437" y="119.3085" style="stroke: #000000; stroke-width: 0.8"/>
      </g>
     </g>
     <g id="text_14">
      <!-- 0.6 -->
      <g transform="translate(7.465312 123.107718) scale(0.1 -0.1)">
       <defs>
        <path id="DejaVuSans-36" d="M 2113 2584 
Q 1688 2584 1439 2293 
Q 1191 2003 1191 1497 
Q 1191 994 1439 701 
Q 1688 409 2113 409 
Q 2538 409 2786 701 
Q 3034 994 3034 1497 
Q 3034 2003 2786 2293 
Q 2538 2584 2113 2584 
z
M 3366 4563 
L 3366 3988 
Q 3128 4100 2886 4159 
Q 2644 4219 2406 4219 
Q 1781 4219 1451 3797 
Q 1122 3375 1075 2522 
Q 1259 2794 1537 2939 
Q 1816 3084 2150 3084 
Q 2853 3084 3261 2657 
Q 3669 2231 3669 1497 
Q 3669 778 3244 343 
Q 2819 -91 2113 -91 
Q 1303 -91 875 529 
Q 447 1150 447 2328 
Q 447 3434 972 4092 
Q 1497 4750 2381 4750 
Q 2619 4750 2861 4703 
Q 3103 4656 3366 4563 
z
" transform="scale(0.015625)"/>
       </defs>
       <use xlink:href="#DejaVuSans-30"/>
       <use xlink:href="#DejaVuSans-2e" x="63.623047"/>
       <use xlink:href="#DejaVuSans-36" x="95.410156"/>
      </g>
     </g>
    </g>
    <g id="ytick_5">
     <g id="line2d_14">
      <g>
       <use xlink:href="#m9a236c8cc9" x="30.368437" y="80.712495" style="stroke: #000000; stroke-width: 0.8"/>
      </g>
     </g>
     <g id="text_15">
      <!-- 0.8 -->
      <g transform="translate(7.465312 84.511713) scale(0.1 -0.1)">
       <defs>
        <path id="DejaVuSans-38" d="M 2034 2216 
Q 1584 2216 1326 1975 
Q 1069 1734 1069 1313 
Q 1069 891 1326 650 
Q 1584 409 2034 409 
Q 2484 409 2743 651 
Q 3003 894 3003 1313 
Q 3003 1734 2745 1975 
Q 2488 2216 2034 2216 
z
M 1403 2484 
Q 997 2584 770 2862 
Q 544 3141 544 3541 
Q 544 4100 942 4425 
Q 1341 4750 2034 4750 
Q 2731 4750 3128 4425 
Q 3525 4100 3525 3541 
Q 3525 3141 3298 2862 
Q 3072 2584 2669 2484 
Q 3125 2378 3379 2068 
Q 3634 1759 3634 1313 
Q 3634 634 3220 271 
Q 2806 -91 2034 -91 
Q 1263 -91 848 271 
Q 434 634 434 1313 
Q 434 1759 690 2068 
Q 947 2378 1403 2484 
z
M 1172 3481 
Q 1172 3119 1398 2916 
Q 1625 2713 2034 2713 
Q 2441 2713 2670 2916 
Q 2900 3119 2900 3481 
Q 2900 3844 2670 4047 
Q 2441 4250 2034 4250 
Q 1625 4250 1398 4047 
Q 1172 3844 1172 3481 
z
" transform="scale(0.015625)"/>
       </defs>
       <use xlink:href="#DejaVuSans-30"/>
       <use xlink:href="#DejaVuSans-2e" x="63.623047"/>
       <use xlink:href="#DejaVuSans-38" x="95.410156"/>
      </g>
     </g>
    </g>
    <g id="ytick_6">
     <g id="line2d_15">
      <g>
       <use xlink:href="#m9a236c8cc9" x="30.368437" y="42.11649" style="stroke: #000000; stroke-width: 0.8"/>
      </g>
     </g>
     <g id="text_16">
      <!-- 1.0 -->
      <g transform="translate(7.465312 45.915708) scale(0.1 -0.1)">
       <use xlink:href="#DejaVuSans-31"/>
       <use xlink:href="#DejaVuSans-2e" x="63.623047"/>
       <use xlink:href="#DejaVuSans-30" x="95.410156"/>
      </g>
     </g>
    </g>
   </g>
   <g id="line2d_16">
    <path d="M 30.535837 235.096515 
L 30.703237 234.354417 
L 30.870637 231.315623 
L 31.205437 237.773138 
L 31.372837 243.556364 
L 31.875037 229.406029 
L 32.042437 237.301093 
L 32.377237 233.056499 
L 32.544637 232.709662 
L 32.712037 236.923622 
L 33.046837 232.462496 
L 33.214237 241.812114 
L 33.381637 237.541574 
L 33.549037 229.977044 
L 33.716437 235.851494 
L 33.883837 236.523679 
L 34.051237 230.11353 
L 34.218637 233.18375 
L 34.386037 229.204952 
L 34.553437 234.454342 
L 34.720837 234.379764 
L 34.888237 232.610238 
L 35.055637 238.50173 
L 35.390437 231.518474 
L 35.557837 237.360736 
L 35.725237 233.041033 
L 35.892637 237.915594 
L 36.060037 231.990928 
L 36.227437 232.283417 
L 36.394837 233.225594 
L 36.562237 235.341305 
L 36.729637 230.006107 
L 36.897037 229.808389 
L 37.064437 234.373868 
L 37.231837 235.786902 
L 37.399237 227.674618 
L 37.734037 240.176736 
L 38.068837 226.203344 
L 38.403637 236.910135 
L 38.905837 222.550047 
L 39.073237 225.24043 
L 39.240637 225.084667 
L 39.408037 230.413135 
L 39.575437 226.629415 
L 39.742837 229.03541 
L 39.910237 224.89841 
L 40.245037 232.192573 
L 40.412437 230.759166 
L 40.579837 222.898744 
L 40.914637 228.156841 
L 41.082037 232.625379 
L 41.249437 228.519485 
L 41.416837 231.690363 
L 41.584237 225.355704 
L 41.751637 224.142243 
L 41.919037 228.620244 
L 42.253837 220.491954 
L 42.421237 222.856131 
L 42.588637 230.935265 
L 42.756037 229.467382 
L 42.923437 224.374595 
L 43.090837 223.462713 
L 43.258237 225.842 
L 43.425637 226.530874 
L 43.593037 223.620857 
L 43.760437 226.373001 
L 44.430037 216.183015 
L 44.597437 227.727455 
L 44.764837 223.50834 
L 44.932237 215.34121 
L 45.099637 224.282101 
L 45.267037 225.611667 
L 45.601837 219.18637 
L 45.769237 227.511023 
L 45.936637 227.524119 
L 46.104037 220.458491 
L 46.438837 223.064901 
L 46.773637 217.633194 
L 46.941037 218.064018 
L 47.108437 233.3956 
L 47.443237 217.684337 
L 47.610637 210.650552 
L 47.778037 220.092609 
L 47.945437 221.746911 
L 48.112837 218.670739 
L 48.280237 217.775104 
L 48.447637 217.569292 
L 48.615037 219.905292 
L 48.949837 209.701879 
L 49.284637 219.54791 
L 49.452037 218.328424 
L 49.619437 217.985508 
L 49.786837 221.693702 
L 49.954237 218.887908 
L 50.121637 211.690591 
L 50.289037 221.022061 
L 50.456437 222.713708 
L 50.791237 215.273544 
L 50.958637 218.100724 
L 51.126037 217.85421 
L 51.460837 209.655697 
L 51.628237 214.4525 
L 51.795637 212.906395 
L 52.130437 216.701972 
L 52.297837 219.777111 
L 52.632637 211.014274 
L 52.800037 212.036751 
L 52.967437 214.678042 
L 53.134837 208.274972 
L 53.302237 208.963501 
L 53.469637 215.629362 
L 53.637037 213.235483 
L 53.804437 215.997936 
L 53.971837 214.407699 
L 54.139237 215.855415 
L 54.306637 213.908437 
L 54.474037 210.388735 
L 54.641437 211.112834 
L 54.808837 202.91027 
L 54.976237 218.28233 
L 55.143637 210.049611 
L 55.311037 210.360066 
L 55.478437 205.353247 
L 55.645837 211.434497 
L 55.813237 211.828692 
L 55.980637 206.737317 
L 56.315437 212.878565 
L 56.482837 213.65896 
L 56.650237 211.815862 
L 56.817637 203.843205 
L 56.985037 214.668766 
L 57.152437 217.176074 
L 57.319837 205.825607 
L 57.487237 204.985137 
L 57.654637 211.250143 
L 57.822037 207.886792 
L 57.989437 207.045878 
L 58.156837 210.291916 
L 58.324237 203.292852 
L 58.491637 205.366703 
L 58.659037 210.230283 
L 58.826437 209.874395 
L 58.993837 211.967405 
L 59.161237 208.606743 
L 59.328637 208.618755 
L 59.496037 202.717556 
L 59.663437 212.743098 
L 59.830837 207.246212 
L 59.998237 208.171194 
L 60.165637 207.153269 
L 60.333037 211.163949 
L 60.500437 208.909606 
L 60.667837 204.912695 
L 60.835237 210.877853 
L 61.002637 204.931317 
L 61.170037 204.076769 
L 61.504837 200.664493 
L 61.672237 209.759318 
L 62.174437 201.892188 
L 62.341837 212.294652 
L 62.844037 201.171299 
L 63.011437 200.354356 
L 63.178837 208.489063 
L 63.513637 201.166471 
L 63.681037 210.211821 
L 63.848437 206.922388 
L 64.015837 200.028827 
L 64.183237 199.751043 
L 64.350637 211.153318 
L 64.518037 210.124699 
L 64.685437 200.754033 
L 65.020237 206.995362 
L 65.187637 202.19845 
L 65.355037 203.345014 
L 65.522437 203.464968 
L 65.689837 207.631371 
L 65.857237 203.057913 
L 66.024637 201.63196 
L 66.192037 195.102461 
L 66.359437 202.562361 
L 66.526837 202.022268 
L 66.694237 199.646534 
L 66.861637 203.322939 
L 67.029037 203.943976 
L 67.196437 201.668699 
L 67.363837 201.173023 
L 67.531237 193.100555 
L 67.866037 203.702348 
L 68.033437 205.751103 
L 68.200837 196.759185 
L 68.368237 199.05518 
L 68.535637 199.26332 
L 68.703037 198.572996 
L 69.037837 200.913736 
L 69.205237 200.000733 
L 69.372637 199.786499 
L 69.540037 195.64927 
L 69.707437 197.110217 
L 69.874837 196.78565 
L 70.042237 202.222037 
L 70.209637 193.361177 
L 70.377037 200.417483 
L 70.711837 196.961765 
L 70.879237 196.186529 
L 71.046637 192.292083 
L 71.214037 198.773413 
L 71.548837 194.295979 
L 71.716237 197.297323 
L 71.883637 198.07635 
L 72.051037 199.970705 
L 72.218437 198.636215 
L 72.385837 195.733348 
L 72.553237 201.538856 
L 72.720637 195.517432 
L 72.888037 196.321572 
L 73.055437 190.576793 
L 73.222837 198.274642 
L 73.390237 193.835291 
L 73.557637 194.295602 
L 73.725037 193.128398 
L 73.892437 192.900143 
L 74.059837 191.400143 
L 74.227237 196.090926 
L 74.394637 195.260008 
L 74.562037 195.843216 
L 74.729437 195.791807 
L 75.064237 188.791728 
L 75.231637 193.295708 
L 75.399037 193.908657 
L 75.566437 193.976584 
L 75.901237 183.859286 
L 76.068637 192.435034 
L 76.236037 194.752337 
L 76.570837 188.350371 
L 76.738237 198.060924 
L 76.905637 195.582152 
L 77.240437 187.745587 
L 77.407837 193.043565 
L 77.742637 190.111064 
L 77.910037 192.688428 
L 78.077437 186.101276 
L 78.244837 189.267468 
L 78.412237 189.323622 
L 78.579637 188.090465 
L 78.747037 192.173774 
L 78.914437 192.02285 
L 79.081837 188.937144 
L 79.249237 190.793495 
L 79.416637 187.366735 
L 79.584037 190.178684 
L 79.751437 188.678723 
L 79.918837 185.157135 
L 80.253637 187.326315 
L 80.588437 183.451603 
L 80.755837 190.383781 
L 81.090637 183.15103 
L 81.258037 184.031695 
L 81.425437 182.574111 
L 81.592837 187.581122 
L 81.760237 188.277337 
L 82.095037 183.300678 
L 82.429837 185.153955 
L 82.597237 188.072516 
L 82.932037 182.149911 
L 83.099437 182.173169 
L 83.266837 186.071495 
L 83.434237 186.443986 
L 83.601637 183.354229 
L 83.769037 190.620951 
L 83.936437 181.870383 
L 84.271237 183.983856 
L 84.438637 178.762138 
L 84.606037 186.521163 
L 84.773437 187.581025 
L 85.108237 175.541634 
L 85.275637 182.959448 
L 85.443037 183.531792 
L 85.610437 183.070794 
L 85.777837 184.246481 
L 85.945237 186.961313 
L 86.112637 180.977135 
L 86.280037 184.328159 
L 86.447437 179.524194 
L 86.782237 182.844146 
L 86.949637 183.284789 
L 87.117037 185.020273 
L 87.284437 179.782134 
L 87.451837 179.866857 
L 87.786637 186.398959 
L 87.954037 181.415323 
L 88.121437 180.981685 
L 88.288837 180.86135 
L 88.456237 177.021695 
L 88.791037 182.565451 
L 88.958437 179.314569 
L 89.125837 179.676574 
L 89.293237 179.590528 
L 89.460637 177.346506 
L 89.628037 184.116744 
L 89.795437 185.331982 
L 89.962837 174.582366 
L 90.297637 177.720554 
L 90.465037 181.888505 
L 90.632437 178.838068 
L 90.799837 178.857717 
L 90.967237 180.158075 
L 91.134637 176.773343 
L 91.302037 178.507945 
L 91.469437 172.554279 
L 91.636837 179.879477 
L 91.804237 176.323796 
L 91.971637 181.115985 
L 92.306437 169.735117 
L 92.641237 176.896168 
L 92.808637 177.661527 
L 92.976037 177.74962 
L 93.143437 176.68457 
L 93.310837 176.530318 
L 93.478237 175.65382 
L 93.645637 175.662692 
L 93.813037 172.271635 
L 93.980437 175.941666 
L 94.147837 173.243025 
L 94.315237 175.039446 
L 94.650037 172.496739 
L 94.817437 169.64397 
L 94.984837 173.228253 
L 95.152237 174.027097 
L 95.319637 178.039505 
L 95.654437 171.956493 
L 95.821837 170.081226 
L 95.989237 170.749859 
L 96.156637 167.845352 
L 96.324037 168.017383 
L 96.491437 174.706302 
L 96.658837 170.782143 
L 96.826237 170.654273 
L 96.993637 164.873053 
L 97.161037 169.132286 
L 97.328437 169.299219 
L 97.663237 174.845011 
L 97.830637 166.14478 
L 98.332837 169.220493 
L 98.500237 162.575083 
L 98.667637 161.527508 
L 98.835037 171.468676 
L 99.002437 171.39523 
L 99.169837 177.457209 
L 99.337237 164.923 
L 99.839437 169.467598 
L 100.174237 160.272011 
L 100.341637 166.864422 
L 100.509037 178.026519 
L 100.676437 172.527069 
L 100.843837 160.447572 
L 101.178637 164.008908 
L 101.346037 162.076519 
L 101.513437 163.478618 
L 101.680837 160.3244 
L 102.015637 170.579891 
L 102.517837 158.698637 
L 102.852637 168.096047 
L 103.020037 163.732519 
L 103.187437 155.64957 
L 103.354837 159.254485 
L 103.522237 171.490062 
L 103.857037 159.603844 
L 104.024437 161.96478 
L 104.191837 159.380085 
L 104.526637 165.979657 
L 104.694037 160.288731 
L 104.861437 160.202514 
L 105.028837 161.42896 
L 105.196237 160.158519 
L 105.363637 162.779814 
L 105.531037 158.74002 
L 105.698437 160.254895 
L 105.865837 165.133326 
L 106.033237 155.224704 
L 106.368037 161.414928 
L 106.535437 156.738257 
L 106.870237 160.605208 
L 107.205037 156.120063 
L 107.372437 155.998367 
L 107.539837 164.811278 
L 107.707237 163.838099 
L 108.042037 154.95749 
L 108.209437 155.300619 
L 108.376837 155.328021 
L 108.544237 155.206181 
L 108.711637 159.902394 
L 108.879037 159.265945 
L 109.046437 156.548827 
L 109.213837 158.334858 
L 109.381237 158.252749 
L 109.883437 151.603462 
L 110.050838 156.064789 
L 110.218237 154.086704 
L 110.385637 149.541796 
L 110.553037 154.618994 
L 110.720437 154.594597 
L 110.887837 154.375751 
L 111.055237 155.126816 
L 111.222637 152.862167 
L 111.390037 155.017892 
L 111.557437 155.712091 
L 111.724837 158.075755 
L 111.892237 151.993059 
L 112.059637 153.140941 
L 112.227037 157.667289 
L 112.394437 152.858897 
L 112.561837 155.307476 
L 112.729237 155.478459 
L 112.896637 150.884303 
L 113.064037 149.677431 
L 113.231437 151.316772 
L 113.398837 155.028073 
L 113.566237 148.208119 
L 113.733637 150.634699 
L 113.901037 155.711685 
L 114.068437 151.667322 
L 114.235837 156.592933 
L 114.403237 157.000847 
L 114.570637 153.158849 
L 114.738037 153.171206 
L 114.905437 152.50752 
L 115.072837 153.352397 
L 115.240237 145.446331 
L 115.575037 153.235773 
L 115.742437 150.403024 
L 115.909837 153.04422 
L 116.244637 141.008444 
L 116.412037 148.036078 
L 116.579437 145.925765 
L 116.746837 150.426949 
L 116.914237 148.849972 
L 117.081637 149.562752 
L 117.249037 151.37556 
L 117.416437 141.363129 
L 117.583837 149.486407 
L 117.751237 150.906184 
L 117.918637 153.607077 
L 118.086037 145.045379 
L 118.420837 152.554534 
L 118.588237 146.914942 
L 118.755637 148.154889 
L 118.923037 145.951411 
L 119.090437 141.615774 
L 119.425237 150.321723 
L 119.592637 143.055739 
L 119.760037 145.837372 
L 119.927437 144.369494 
L 120.094837 145.381253 
L 120.262237 148.544438 
L 120.597037 141.333796 
L 120.764437 150.110131 
L 120.931838 140.989119 
L 121.266637 146.749866 
L 121.434037 147.070765 
L 121.601437 142.804752 
L 121.768837 143.841712 
L 122.103637 147.501058 
L 122.271037 142.501063 
L 122.438437 147.525762 
L 122.605837 139.979157 
L 122.773237 138.06195 
L 122.940637 145.170018 
L 123.275437 141.89751 
L 123.442837 139.719313 
L 123.610237 135.54879 
L 123.945037 144.576904 
L 124.112437 139.785782 
L 124.279837 139.072613 
L 124.447237 142.243142 
L 124.614638 138.059648 
L 124.782038 139.502045 
L 124.949438 144.800497 
L 125.116838 140.760343 
L 125.284238 141.352863 
L 125.451638 140.8701 
L 125.786438 138.531484 
L 126.121237 130.251169 
L 126.288637 136.289081 
L 126.456037 127.545342 
L 126.623437 135.381426 
L 126.790837 137.278982 
L 126.958237 136.191428 
L 127.125637 132.269427 
L 127.293037 133.768574 
L 127.460437 138.73156 
L 127.627837 138.734069 
L 127.795237 130.859276 
L 127.962637 132.63804 
L 128.130037 136.41158 
L 128.297437 128.594062 
L 128.632237 137.5398 
L 128.799637 134.556416 
L 128.967037 127.413146 
L 129.134437 132.248088 
L 129.469237 129.299499 
L 129.636637 131.436928 
L 129.804037 129.458293 
L 130.138837 132.715559 
L 130.306237 134.91669 
L 130.473637 128.252091 
L 130.641037 135.279283 
L 130.808437 132.88145 
L 130.975837 125.582619 
L 131.143237 126.219996 
L 131.310637 132.87267 
L 131.478037 125.902581 
L 131.812837 130.638155 
L 131.980237 125.541221 
L 132.147637 125.589034 
L 132.315037 133.731115 
L 132.482437 124.659725 
L 132.817237 132.525234 
L 133.152037 121.282716 
L 133.486837 129.249029 
L 133.654237 123.875773 
L 133.821637 129.636685 
L 133.989037 124.845086 
L 134.156437 124.575677 
L 134.323837 128.691883 
L 134.658637 122.155816 
L 134.826037 121.44552 
L 134.993437 119.556777 
L 135.160837 130.338175 
L 135.328237 122.133086 
L 135.495637 120.7764 
L 135.663037 127.317167 
L 135.997837 117.982648 
L 136.165237 127.956633 
L 136.500037 117.373203 
L 136.667437 118.524851 
L 136.834837 114.148483 
L 137.169637 127.935584 
L 137.504437 119.018736 
L 137.671837 116.5638 
L 137.839237 122.08326 
L 138.006637 121.538095 
L 138.174037 122.519572 
L 138.341437 113.353494 
L 138.508837 118.266751 
L 138.676237 116.910816 
L 138.843637 116.939011 
L 139.011037 116.117543 
L 139.178437 117.94375 
L 139.345837 116.41806 
L 139.513237 110.057453 
L 139.848037 123.26693 
L 140.015437 112.448867 
L 140.182837 113.534636 
L 140.350237 120.653602 
L 140.517637 116.741036 
L 140.685037 120.074282 
L 140.852437 113.767572 
L 141.019837 115.126932 
L 141.187237 111.792351 
L 141.354637 117.202929 
L 141.522037 118.875325 
L 141.689437 111.020952 
L 142.024237 116.774463 
L 142.191637 107.986329 
L 142.359037 119.175893 
L 142.526437 117.86732 
L 142.693838 105.128299 
L 142.861237 107.303371 
L 143.028638 113.130055 
L 143.196037 110.469001 
L 143.363437 112.282731 
L 143.530837 111.230303 
L 143.865637 116.952797 
L 144.033037 120.467097 
L 144.200437 106.151262 
L 144.367837 105.30497 
L 144.702637 115.268003 
L 145.037437 109.062012 
L 145.204837 115.579912 
L 145.707037 104.285802 
L 145.874437 104.764204 
L 146.041837 110.353264 
L 146.209238 104.270707 
L 146.711437 114.273215 
L 146.878838 108.267598 
L 147.213638 108.865437 
L 147.548438 104.678397 
L 147.715837 108.268192 
L 147.883238 107.952912 
L 148.050637 108.485138 
L 148.218037 108.132501 
L 148.385437 108.464715 
L 148.552837 101.64277 
L 148.720237 100.270194 
L 148.887637 102.576055 
L 149.055037 107.255243 
L 149.222437 108.197271 
L 149.389837 110.895727 
L 149.724637 98.966096 
L 149.892037 105.979494 
L 150.059437 97.773428 
L 150.226837 110.508552 
L 150.561637 102.771149 
L 150.896437 107.880298 
L 151.063837 95.531492 
L 151.231237 101.93985 
L 151.398637 100.719135 
L 151.566037 104.197889 
L 151.733437 105.308965 
L 151.900837 107.566992 
L 152.068237 103.174624 
L 152.235637 93.369921 
L 152.403037 93.093162 
L 152.570437 108.707546 
L 152.905237 95.159587 
L 153.072637 103.048538 
L 153.240037 104.076216 
L 153.407437 92.770498 
L 153.742237 103.892317 
L 153.909637 97.96594 
L 154.077037 104.262525 
L 154.244437 103.837265 
L 154.411837 105.4298 
L 154.579237 93.621697 
L 154.914037 101.352936 
L 155.081437 103.092821 
L 155.248837 98.910991 
L 155.416237 104.694619 
L 155.751037 94.998814 
L 155.918437 89.604857 
L 156.085837 103.202874 
L 156.253237 103.124196 
L 156.588037 95.872292 
L 156.755437 97.789898 
L 156.922837 96.335443 
L 157.090237 92.594386 
L 157.257637 94.853566 
L 157.425037 101.433137 
L 157.759837 94.771638 
L 157.927237 96.937937 
L 158.094637 96.346402 
L 158.262037 94.938645 
L 158.429437 96.761417 
L 158.596837 94.699187 
L 158.764237 95.653979 
L 158.931637 99.285229 
L 159.099037 98.794921 
L 159.433837 91.200054 
L 159.601237 90.008772 
L 159.768637 92.307981 
L 159.936037 97.867649 
L 160.103437 94.409385 
L 160.270837 94.793499 
L 160.438237 90.221453 
L 160.605637 91.052305 
L 160.773037 90.411193 
L 160.940437 84.940419 
L 161.275237 97.386384 
L 161.442637 92.362965 
L 161.610037 92.002151 
L 161.777437 85.95668 
L 162.112237 93.6461 
L 162.279637 91.946533 
L 162.447037 86.294607 
L 162.614437 95.735736 
L 162.781837 89.579279 
L 162.949237 90.879965 
L 163.116637 93.738813 
L 163.284037 87.623491 
L 163.618837 91.412109 
L 163.786237 85.27861 
L 164.121037 93.195297 
L 164.288437 86.277869 
L 164.790637 94.362729 
L 165.125437 86.454343 
L 165.292837 85.549097 
L 165.460237 94.932118 
L 165.627637 95.080648 
L 165.795037 93.081735 
L 165.962437 88.580264 
L 166.129837 87.570264 
L 166.297237 85.727255 
L 166.464637 92.353147 
L 166.799437 85.146854 
L 167.134237 89.220792 
L 167.301637 88.434879 
L 167.469037 90.129678 
L 167.636437 83.081453 
L 167.803837 87.806489 
L 167.971237 88.848908 
L 168.138637 86.625081 
L 168.306037 77.64319 
L 168.640837 89.174097 
L 168.808237 84.488695 
L 168.975637 88.046608 
L 169.143037 80.572343 
L 169.310437 86.641184 
L 169.812637 81.754343 
L 169.980037 86.409999 
L 170.147437 84.561744 
L 170.314837 81.097485 
L 170.482237 85.895913 
L 170.649637 86.206349 
L 170.817037 81.405499 
L 170.984437 81.810068 
L 171.151837 76.245653 
L 171.319237 83.612855 
L 171.486637 83.554066 
L 171.654037 80.899761 
L 171.821437 82.696986 
L 171.988837 86.831802 
L 172.156237 81.813938 
L 172.491037 80.049525 
L 172.658437 81.1274 
L 172.825837 85.61026 
L 172.993237 76.19867 
L 173.495437 86.071562 
L 173.662837 88.605378 
L 173.830237 77.118475 
L 174.165037 82.120341 
L 174.499837 76.672674 
L 174.667237 78.725075 
L 174.834637 75.544336 
L 175.002037 84.932936 
L 175.169437 83.414118 
L 175.336837 76.798049 
L 175.671637 83.102766 
L 175.839037 82.272452 
L 176.006437 70.010492 
L 176.341237 81.231603 
L 176.676037 72.719913 
L 176.843437 79.765007 
L 177.010837 76.933304 
L 177.178237 85.170824 
L 177.345637 83.940876 
L 177.513037 74.55834 
L 177.847837 79.151617 
L 178.182637 74.213013 
L 178.350037 77.982097 
L 178.517437 77.405943 
L 178.852237 83.045991 
L 179.019637 76.096627 
L 179.187037 76.695154 
L 179.354437 84.194012 
L 179.521837 71.172777 
L 179.856637 79.688624 
L 180.024037 72.651686 
L 180.191437 78.605404 
L 180.526237 68.971781 
L 180.693637 86.667827 
L 181.028437 73.157241 
L 181.195837 78.337498 
L 181.363237 73.727651 
L 181.530637 73.265396 
L 181.698037 76.777451 
L 181.865437 69.77312 
L 182.032837 78.216763 
L 182.200237 78.100553 
L 182.367637 59.233477 
L 182.702437 82.014377 
L 182.869837 71.395256 
L 183.037237 71.32891 
L 183.204637 80.561766 
L 183.372037 72.208809 
L 183.539437 75.464235 
L 183.706837 73.748997 
L 183.874237 68.165438 
L 184.041637 76.153434 
L 184.376437 66.576372 
L 184.543837 76.958173 
L 184.711237 73.796632 
L 184.878637 64.761515 
L 185.046037 73.879046 
L 185.213437 74.859321 
L 185.380837 74.573386 
L 185.548237 78.195348 
L 185.715637 71.531392 
L 185.883037 75.285987 
L 186.050437 72.067916 
L 186.385237 75.355988 
L 186.720037 69.038707 
L 186.887437 71.935462 
L 187.054837 69.122525 
L 187.389637 75.084177 
L 187.557037 70.605739 
L 187.891837 77.05302 
L 188.059237 68.435734 
L 188.226637 71.690783 
L 188.394037 70.400002 
L 188.561437 70.473125 
L 188.728837 71.598495 
L 188.896237 75.519536 
L 189.063637 64.827654 
L 189.231037 66.406963 
L 189.398438 72.147466 
L 189.565837 72.141815 
L 189.733238 61.140369 
L 190.068037 75.223887 
L 190.235437 72.893301 
L 190.402837 74.993101 
L 190.570237 73.033079 
L 190.737637 67.295418 
L 190.905037 70.616657 
L 191.072437 70.405206 
L 191.239837 66.799193 
L 191.407237 72.817019 
L 191.574637 65.300557 
L 191.742037 70.866745 
L 192.076837 66.143747 
L 192.244237 70.23851 
L 192.411637 64.230662 
L 192.579037 66.988985 
L 192.746437 77.303163 
L 192.913837 70.473515 
L 193.081237 69.622306 
L 193.248637 65.019527 
L 193.416037 71.8945 
L 193.583437 71.768253 
L 193.750837 64.334537 
L 193.918237 72.70956 
L 194.253037 64.788267 
L 194.420437 71.584882 
L 194.587837 64.693363 
L 194.755237 64.305315 
L 194.922637 66.155857 
L 195.090037 64.197392 
L 195.257437 65.119058 
L 195.424837 68.909365 
L 195.592237 67.596506 
L 195.759637 67.711418 
L 195.927037 74.391042 
L 196.094437 69.57581 
L 196.429237 72.777526 
L 196.596637 65.048337 
L 196.764037 66.613735 
L 196.931437 69.289152 
L 197.098837 67.766423 
L 197.266237 70.14135 
L 197.601037 60.7353 
L 197.768437 70.527925 
L 197.935837 68.805266 
L 198.103237 63.160622 
L 198.270637 61.994763 
L 198.438037 68.954697 
L 198.605437 61.592401 
L 198.772837 68.320626 
L 198.940237 61.429413 
L 199.107637 74.953827 
L 199.442437 65.521858 
L 199.777237 71.441366 
L 199.944637 62.020715 
L 200.112037 59.964204 
L 200.279438 72.372377 
L 200.446837 64.209041 
L 200.781637 69.32983 
L 200.949038 64.608278 
L 201.116437 64.454963 
L 201.283838 65.404408 
L 201.451237 61.647661 
L 201.618638 62.8882 
L 201.786037 66.119554 
L 201.953437 62.795667 
L 202.120837 67.657323 
L 202.288237 65.955854 
L 202.455637 57.011041 
L 202.623037 62.805845 
L 202.790437 76.450337 
L 202.957837 64.111707 
L 203.125237 68.76026 
L 203.460037 63.139417 
L 203.627437 68.741481 
L 203.794837 67.03207 
L 204.129637 62.920676 
L 204.631837 70.311758 
L 204.799237 59.465587 
L 205.134037 66.516122 
L 205.468837 61.209025 
L 205.636237 65.047766 
L 205.803637 65.347438 
L 205.971037 55.284262 
L 206.138437 64.484779 
L 206.305837 67.470757 
L 206.473237 59.929551 
L 206.640637 59.818216 
L 206.808037 58.932819 
L 206.975437 67.384955 
L 207.142837 66.836762 
L 207.310237 62.86071 
L 207.477637 67.306164 
L 207.645037 62.651274 
L 207.812437 70.433969 
L 208.147237 60.287209 
L 208.314637 65.747565 
L 208.482037 65.747413 
L 208.649437 61.284785 
L 208.816837 68.214589 
L 208.984237 57.997285 
L 209.151637 63.0629 
L 209.319037 64.033549 
L 209.486437 60.026151 
L 209.653837 65.380431 
L 209.821237 58.428714 
L 210.156037 66.500401 
L 210.323437 59.11776 
L 210.490837 61.750408 
L 210.658237 61.097998 
L 210.825637 58.670854 
L 210.993037 65.603289 
L 211.160438 60.507265 
L 211.327837 63.860826 
L 211.495238 61.281177 
L 211.830038 62.551903 
L 211.997437 57.303598 
L 212.332237 62.639438 
L 212.499637 69.544602 
L 212.667037 63.140956 
L 212.834437 67.725052 
L 213.001837 64.19697 
L 213.169237 63.682652 
L 213.336637 66.348825 
L 213.504037 61.879745 
L 213.671437 66.206394 
L 213.838837 67.469741 
L 214.006237 56.008877 
L 214.173637 60.587875 
L 214.341037 60.601151 
L 214.675837 65.236285 
L 214.843237 59.477049 
L 215.178037 64.103121 
L 215.345437 57.432085 
L 215.512837 63.506249 
L 215.680237 61.794321 
L 215.847637 58.803267 
L 216.015037 60.520209 
L 216.182437 60.708091 
L 216.517237 56.42326 
L 216.684637 63.395984 
L 216.852037 61.722264 
L 217.019437 63.307407 
L 217.354237 58.947749 
L 217.521637 64.450895 
L 217.689037 53.594976 
L 217.856437 63.629889 
L 218.023837 64.116324 
L 218.358637 58.308561 
L 218.526038 58.989072 
L 218.693437 59.131622 
L 218.860838 59.656063 
L 219.028237 62.850936 
L 219.195638 56.583792 
L 219.363037 67.709557 
L 219.697837 59.914096 
L 219.865238 67.635662 
L 220.032637 60.980889 
L 220.367437 67.526674 
L 220.534838 59.233575 
L 220.702237 58.418074 
L 220.869638 59.516609 
L 221.037037 63.696559 
L 221.204438 59.763569 
L 221.371837 59.794591 
L 221.539237 57.087627 
L 221.706637 68.720342 
L 222.041437 54.836162 
L 222.208837 64.338726 
L 222.543637 60.559456 
L 222.711037 63.485668 
L 223.045837 59.979488 
L 223.213237 59.218616 
L 223.380637 59.916467 
L 223.548037 59.237671 
L 223.715437 59.941786 
L 223.882837 55.732343 
L 224.050237 63.341286 
L 224.217637 60.365173 
L 224.385037 62.927273 
L 224.719837 55.947312 
L 224.887237 61.639776 
L 225.054637 54.739834 
L 225.222037 61.189181 
L 225.389437 63.14199 
L 225.556837 60.514145 
L 225.724237 60.831653 
L 225.891637 53.658927 
L 226.059037 61.910995 
L 226.226437 62.229735 
L 226.393837 57.788768 
L 226.561237 58.05501 
L 226.728637 62.316671 
L 227.063437 58.897021 
L 227.230837 60.648418 
L 227.398237 58.512834 
L 227.565637 60.041638 
L 227.733037 56.463125 
L 227.900437 61.999224 
L 228.067837 57.633167 
L 228.235237 57.669622 
L 228.402637 59.410224 
L 228.570037 57.844448 
L 228.737437 61.49362 
L 228.904837 57.137445 
L 229.072237 63.893923 
L 229.239637 55.651066 
L 229.407037 54.650313 
L 229.574437 64.620578 
L 229.741837 56.831449 
L 229.909237 56.219403 
L 230.076637 57.284128 
L 230.244037 62.306755 
L 230.411437 57.962641 
L 230.578837 58.412327 
L 230.746237 57.26801 
L 230.913637 57.058659 
L 231.081037 55.174736 
L 231.248437 55.743503 
L 231.415837 64.253297 
L 231.583237 56.56257 
L 231.750637 56.369047 
L 231.918037 66.191774 
L 232.085437 54.254095 
L 232.252837 56.186425 
L 232.420237 62.173922 
L 232.587637 56.74642 
L 232.922437 59.07358 
L 233.089837 58.939464 
L 233.257237 58.191382 
L 233.424637 61.404201 
L 233.592037 54.638272 
L 233.759437 56.151429 
L 233.926837 63.059118 
L 234.094237 57.618755 
L 234.261637 59.951705 
L 234.429037 59.429725 
L 234.596437 54.655912 
L 234.763837 62.134604 
L 234.931237 60.048064 
L 235.098637 52.004137 
L 235.266037 62.160563 
L 235.433437 61.830703 
L 235.600837 54.575558 
L 235.935637 59.891163 
L 236.103037 57.859219 
L 236.270437 61.793589 
L 236.437838 54.727177 
L 236.605237 60.962938 
L 236.772638 59.392579 
L 236.940037 54.720994 
L 237.107438 65.381159 
L 237.274837 54.694935 
L 237.442238 53.578611 
L 237.609637 62.349132 
L 237.777038 61.824857 
L 237.944437 59.556506 
L 238.111838 52.864349 
L 238.279237 58.762238 
L 238.446638 56.603277 
L 238.614037 59.109663 
L 238.781437 56.098519 
L 238.948837 59.680263 
L 239.116237 56.807403 
L 239.451037 62.182202 
L 239.618437 52.912448 
L 239.785837 55.472984 
L 239.953237 54.935345 
L 240.120637 64.626689 
L 240.288037 56.156247 
L 240.455437 54.986415 
L 240.790237 60.872829 
L 240.957637 57.081235 
L 241.125037 56.35719 
L 241.292437 58.289944 
L 241.459837 53.756774 
L 241.794637 62.344534 
L 241.962037 54.945777 
L 242.129437 55.532422 
L 242.296837 61.17483 
L 242.464237 58.965253 
L 242.631637 53.03525 
L 242.799037 55.070032 
L 242.966437 61.335968 
L 243.301237 58.633282 
L 243.468637 61.153553 
L 243.636037 54.353241 
L 243.803438 55.350477 
L 243.970837 59.213953 
L 244.305637 58.882366 
L 244.473038 53.776447 
L 244.807837 64.500008 
L 244.975237 50.929508 
L 245.310037 64.024823 
L 245.477437 54.993505 
L 245.812237 56.031931 
L 245.979637 59.39421 
L 246.147037 58.824237 
L 246.314437 58.691208 
L 246.481837 61.835904 
L 246.649237 59.893844 
L 246.816637 54.6043 
L 246.984037 56.204801 
L 247.151437 52.656256 
L 247.318837 59.256746 
L 247.486237 60.151345 
L 247.653637 55.309459 
L 247.821037 57.465845 
L 247.988437 55.877638 
L 248.155837 63.84218 
L 248.323237 56.753806 
L 248.490637 56.806304 
L 248.658037 57.195176 
L 248.992837 56.694481 
L 249.160237 57.137736 
L 249.327637 62.497295 
L 249.495037 52.941783 
L 249.829837 60.286459 
L 250.164637 55.616148 
L 250.499437 61.77531 
L 250.666837 58.045152 
L 250.834237 61.282923 
L 251.001637 57.333986 
L 251.169037 48.75132 
L 251.503837 57.189342 
L 251.671237 61.173219 
L 251.838637 53.124003 
L 252.173437 63.718922 
L 252.340837 51.410547 
L 252.675637 62.995225 
L 253.010437 51.961323 
L 253.177837 61.391915 
L 253.345237 63.755332 
L 253.512637 53.697632 
L 253.847437 62.187714 
L 254.014837 55.171905 
L 254.182237 55.140305 
L 254.349638 53.991462 
L 254.517037 60.821129 
L 254.684438 61.664899 
L 254.851837 52.706318 
L 255.019238 58.948897 
L 255.186637 58.210167 
L 255.354038 52.919201 
L 255.688838 64.600597 
L 255.856237 51.692508 
L 256.023638 61.216117 
L 256.191037 60.1196 
L 256.358437 51.423869 
L 256.525837 61.229061 
L 256.693238 54.769744 
L 256.860637 56.397048 
L 257.028037 59.68058 
L 257.195437 51.275165 
L 257.362838 63.183865 
L 257.530237 54.677866 
L 257.697637 54.01603 
L 257.865037 63.15762 
L 258.032438 52.927285 
L 258.199838 58.47149 
L 258.367237 54.045517 
L 258.534637 58.847099 
L 258.702038 55.452854 
L 258.869438 56.465086 
L 259.036837 59.803889 
L 259.204237 59.44882 
L 259.371638 56.683641 
L 259.539038 56.026453 
L 259.873837 60.698081 
L 260.041238 54.83523 
L 260.376037 59.083004 
L 260.543437 55.755112 
L 260.878238 59.991348 
L 261.045637 53.900088 
L 261.213037 64.431468 
L 261.380438 59.276645 
L 261.547838 48.634047 
L 261.715238 59.105319 
L 261.882637 59.712808 
L 262.050038 55.088792 
L 262.217438 59.859417 
L 262.384838 55.719371 
L 262.552237 59.678707 
L 262.887038 53.190229 
L 263.054438 58.592215 
L 263.221837 54.800453 
L 263.389238 53.571462 
L 263.556638 61.437818 
L 263.891437 55.237193 
L 264.058838 57.202123 
L 264.226237 62.463119 
L 264.393638 52.450005 
L 264.561037 59.104499 
L 264.728438 60.943071 
L 264.895837 54.292701 
L 265.063238 59.695872 
L 265.230638 60.151726 
L 265.398038 55.987418 
L 265.565437 55.319357 
L 265.732838 55.44827 
L 265.900238 59.81535 
L 266.235037 49.747471 
L 266.402437 63.749637 
L 266.569838 60.081184 
L 266.737237 50.723142 
L 266.904637 56.690209 
L 267.072037 67.485106 
L 267.239438 49.089416 
L 267.406837 59.144273 
L 267.574237 61.564686 
L 267.741637 57.560902 
L 267.909038 56.558321 
L 268.243837 60.771733 
L 268.411237 51.97753 
L 268.746037 58.346341 
L 268.913437 55.562365 
L 269.080837 54.911079 
L 269.415638 58.986489 
L 269.583037 53.998033 
L 269.917838 60.927262 
L 270.085238 52.659615 
L 270.252637 55.78871 
L 270.420037 66.926095 
L 270.587438 54.289185 
L 270.754838 52.269403 
L 270.922237 61.457446 
L 271.089637 58.678061 
L 271.257038 59.916594 
L 271.424438 53.77729 
L 271.591837 55.536651 
L 271.759237 59.034325 
L 271.926638 56.206056 
L 272.094037 60.669704 
L 272.428837 54.348613 
L 272.596238 62.170302 
L 272.763637 60.960818 
L 272.931038 50.014918 
L 273.265838 58.314375 
L 273.433237 57.895622 
L 273.600638 54.134335 
L 273.768037 57.056828 
L 273.935437 56.473146 
L 274.102837 49.850728 
L 274.270238 63.909089 
L 274.772437 54.460881 
L 274.939838 62.902473 
L 275.274637 53.016124 
L 275.442037 54.240187 
L 275.609438 65.292535 
L 275.944237 53.287523 
L 276.111637 60.260485 
L 276.446438 54.460899 
L 276.613837 55.856037 
L 276.781237 58.823528 
L 276.948638 57.834888 
L 277.116038 54.742895 
L 277.450837 59.314057 
L 277.618238 55.559805 
L 277.785638 56.787848 
L 277.953037 58.869779 
L 278.120437 55.026235 
L 278.287838 54.067096 
L 278.455238 63.408945 
L 278.790037 52.916953 
L 278.957438 61.754684 
L 279.124838 53.342962 
L 279.292237 60.551242 
L 279.459637 52.071539 
L 279.627038 52.430765 
L 279.794438 55.842535 
L 279.961838 61.957334 
L 280.296638 55.212764 
L 280.631438 57.596406 
L 280.798837 55.571298 
L 280.966238 55.508075 
L 281.133638 54.58794 
L 281.468437 62.09059 
L 281.635838 58.328941 
L 281.803237 59.756539 
L 282.138037 52.258158 
L 282.305438 60.914346 
L 282.472837 58.235452 
L 282.640238 53.200453 
L 282.975037 58.826408 
L 283.142437 58.242735 
L 283.309838 51.217546 
L 283.477238 59.915199 
L 283.644637 55.537203 
L 283.812037 54.299187 
L 283.979438 55.97586 
L 284.146838 60.959447 
L 284.314237 59.073953 
L 284.481637 52.253638 
L 284.816438 62.733159 
L 284.983837 49.714783 
L 285.318638 59.007613 
L 285.486038 61.211555 
L 285.653437 52.019114 
L 285.820837 58.317349 
L 285.988238 60.311988 
L 286.155638 56.438728 
L 286.323037 55.600511 
L 286.490437 52.515848 
L 286.825237 57.151097 
L 286.992638 60.82895 
L 287.160037 60.874373 
L 287.327438 52.660749 
L 287.662237 61.593426 
L 287.997037 53.548722 
L 288.331837 60.778022 
L 288.499237 56.140913 
L 288.666637 58.68436 
L 289.001437 56.511699 
L 289.168837 56.622761 
L 289.336237 55.579383 
L 289.503637 57.372172 
L 289.671037 55.977391 
L 289.838437 61.566163 
L 290.005837 62.630017 
L 290.340637 54.928305 
L 290.508038 55.430996 
L 290.675437 56.481626 
L 290.842837 55.904088 
L 291.010237 54.198494 
L 291.177638 57.785229 
L 291.512437 60.40737 
L 291.679837 53.488138 
L 291.847238 55.401809 
L 292.014637 59.297916 
L 292.182037 54.786476 
L 292.349437 61.969586 
L 292.516838 50.336977 
L 292.851637 59.23743 
L 293.019037 51.816274 
L 293.186438 61.384976 
L 293.353837 51.577876 
L 293.688637 59.386121 
L 293.856038 51.657865 
L 294.023438 62.753528 
L 294.190837 56.914052 
L 294.358237 56.624857 
L 294.525638 60.168642 
L 294.693037 50.490789 
L 294.860437 58.505162 
L 295.027837 57.28145 
L 295.195238 54.837012 
L 295.362637 59.316981 
L 295.530037 54.576233 
L 295.864837 57.79133 
L 296.032237 52.003984 
L 296.199637 55.797881 
L 296.367037 55.742847 
L 296.701837 57.488312 
L 296.869237 57.197032 
L 297.036637 56.573203 
L 297.204037 64.640055 
L 297.538837 49.359973 
L 297.706237 58.648937 
L 297.873637 60.790328 
L 298.041037 56.984626 
L 298.208438 59.200031 
L 298.375837 51.442143 
L 298.543237 61.215961 
L 299.045437 54.489717 
L 299.212837 58.361632 
L 299.380237 55.95963 
L 299.547638 57.331094 
L 299.715037 64.969517 
L 299.882437 52.371815 
L 300.049837 55.76988 
L 300.217238 63.386958 
L 300.384637 53.38827 
L 300.552037 56.864664 
L 300.886838 57.394113 
L 301.054237 60.187617 
L 301.389037 56.403966 
L 301.556438 58.786397 
L 301.723838 54.808695 
L 301.891237 54.294794 
L 302.058637 60.159455 
L 302.226038 53.611984 
L 302.393438 54.954959 
L 302.560837 59.512809 
L 302.728237 53.053192 
L 302.895638 54.840455 
L 303.063038 59.820437 
L 303.230437 50.761731 
L 303.397837 61.351205 
L 303.565238 56.019137 
L 303.732637 57.141075 
L 303.900037 56.169185 
L 304.067437 59.879376 
L 304.234838 56.672948 
L 304.402237 57.593592 
L 304.569637 57.670631 
L 304.737037 51.7359 
L 304.904438 63.529568 
L 305.071837 51.68466 
L 305.406637 60.922145 
L 305.574037 50.966653 
L 305.741437 59.220395 
L 306.076237 51.285296 
L 306.243637 59.238836 
L 306.411037 55.089341 
L 306.578438 56.825594 
L 306.745837 59.891716 
L 306.913237 54.889183 
L 307.080637 65.011955 
L 307.248038 50.690174 
L 307.415437 51.63186 
L 307.582837 63.82539 
L 307.917638 56.022381 
L 308.085037 55.45869 
L 308.252437 59.309571 
L 308.419837 57.595911 
L 308.587238 54.501611 
L 308.754638 58.105331 
L 308.922037 57.864046 
L 309.089437 52.501459 
L 309.424238 60.276407 
L 309.591637 54.714279 
L 309.759037 53.281677 
L 309.926437 54.780814 
L 310.093838 61.884926 
L 310.261237 50.620162 
L 310.428637 51.668571 
L 310.596037 63.820099 
L 310.763438 57.679242 
L 310.930837 55.899477 
L 311.098237 58.779045 
L 311.265637 52.482887 
L 311.433038 53.404641 
L 311.600437 60.397636 
L 311.767837 54.410505 
L 311.935237 62.670915 
L 312.102638 52.068404 
L 312.437437 61.080481 
L 312.604837 50.613502 
L 312.939637 60.140181 
L 313.107037 54.203989 
L 313.274437 54.962353 
L 313.441837 62.375431 
L 313.609237 55.874828 
L 313.776637 54.370486 
L 313.944037 61.850729 
L 314.111437 52.790962 
L 314.278837 59.297298 
L 314.446237 55.330347 
L 314.613637 55.549836 
L 314.781037 61.405645 
L 314.948437 60.463981 
L 315.283237 53.191082 
L 315.450637 58.495105 
L 315.952837 54.999611 
L 316.120237 58.873803 
L 316.287637 57.725444 
L 316.455038 52.362661 
L 316.622437 53.945887 
L 316.789837 63.214737 
L 316.957237 53.742063 
L 317.124638 53.916038 
L 317.292037 61.834533 
L 317.459437 62.348659 
L 317.626837 53.800168 
L 317.961637 60.917637 
L 318.296437 52.035978 
L 318.463838 59.386641 
L 318.798637 53.591268 
L 319.133438 63.757235 
L 319.300838 50.898727 
L 319.635637 61.827741 
L 319.803038 52.404317 
L 319.970438 56.564578 
L 320.137837 56.534054 
L 320.305237 56.301795 
L 320.472638 54.779943 
L 320.807437 58.361766 
L 320.974837 59.771899 
L 321.142238 49.560441 
L 321.309637 61.09085 
L 321.477037 57.388803 
L 321.644437 45.883636 
L 321.811838 60.186984 
L 321.979237 60.94429 
L 322.146637 54.691032 
L 322.314037 55.697377 
L 322.481437 54.459773 
L 322.648837 55.237345 
L 322.816237 58.532838 
L 322.983637 51.739391 
L 323.151037 62.58497 
L 323.318437 61.01645 
L 323.485838 53.201612 
L 323.653237 58.931134 
L 323.820637 54.331144 
L 323.988037 53.864588 
L 324.155438 60.672638 
L 324.490237 52.400851 
L 324.657637 59.594385 
L 324.825038 59.614327 
L 324.992437 52.559459 
L 325.159837 59.10287 
L 325.327237 56.552653 
L 325.494638 56.67458 
L 325.662037 56.975275 
L 325.829437 54.975495 
L 325.996837 63.197282 
L 326.164238 53.500252 
L 326.331637 56.972391 
L 326.499037 56.458765 
L 326.833838 57.889242 
L 327.001238 57.05427 
L 327.168637 53.831193 
L 327.336037 63.945257 
L 327.503438 54.786949 
L 327.670838 56.831855 
L 327.838237 54.508096 
L 328.005637 55.790095 
L 328.173038 61.774243 
L 328.340438 53.788045 
L 328.507837 56.041147 
L 328.675237 62.22563 
L 328.842638 56.896742 
L 329.010038 55.172174 
L 329.177437 56.386894 
L 329.344837 56.0304 
L 329.512238 55.11542 
L 329.679638 55.135043 
L 329.847037 59.573657 
L 330.014437 58.428034 
L 330.181838 51.947719 
L 330.349238 59.292325 
L 330.516637 58.341038 
L 330.684037 55.058011 
L 330.851437 56.055755 
L 331.018837 56.051848 
L 331.186237 62.486389 
L 331.353637 54.446701 
L 331.688437 57.627781 
L 331.855837 50.058977 
L 332.023237 58.329105 
L 332.190637 59.493369 
L 332.358037 49.696953 
L 332.692837 58.694705 
L 332.860237 59.999583 
L 333.027637 59.487997 
L 333.195037 54.966749 
L 333.362437 59.480863 
L 333.529837 55.430371 
L 333.697237 54.753349 
L 333.864637 61.077267 
L 334.032038 54.046941 
L 334.199437 53.681227 
L 334.534237 61.064741 
L 334.701638 56.024223 
L 334.869037 56.133182 
L 335.036437 53.592018 
L 335.371238 58.254688 
L 335.538637 56.349204 
L 335.706037 59.374914 
L 335.873437 49.206582 
L 336.040838 61.117988 
L 336.208237 63.602453 
L 336.375637 49.655974 
L 336.543037 53.570389 
L 336.710438 60.90387 
L 336.877837 52.579567 
L 337.045237 57.055484 
L 337.212637 58.086916 
L 337.380038 59.882385 
L 337.547438 57.493769 
L 337.714837 57.710819 
L 337.882237 56.824596 
L 338.049638 52.547965 
L 338.217038 51.296674 
L 338.384437 61.651658 
L 338.551837 60.606329 
L 338.719238 49.393959 
L 338.886637 54.790049 
L 339.054037 65.041216 
L 339.221437 51.270001 
L 339.556237 59.34146 
L 339.723637 52.072591 
L 339.891037 56.373232 
L 340.058437 57.567417 
L 340.225837 62.762928 
L 340.560637 51.782477 
L 340.728037 64.027099 
L 340.895437 52.215102 
L 341.230237 56.232369 
L 341.397637 56.366988 
L 341.565037 57.637957 
L 341.732438 56.362233 
L 341.899837 56.351582 
L 342.067237 59.396266 
L 342.234637 51.418222 
L 342.402038 60.978727 
L 342.736837 51.543062 
L 343.071638 63.455637 
L 343.239037 53.519645 
L 343.406437 61.236005 
L 343.741238 51.116128 
L 343.908637 60.09502 
L 344.076037 55.707788 
L 344.243437 57.658685 
L 344.410838 54.85327 
L 344.578238 57.009809 
L 344.745637 61.555628 
L 344.913037 54.476772 
L 345.247838 59.932693 
L 345.415237 51.255539 
L 345.582637 57.024106 
L 345.750038 55.149434 
L 345.917438 59.407645 
L 346.084837 57.143109 
L 346.252237 58.772982 
L 346.587038 53.611922 
L 346.921837 61.252258 
L 347.089238 54.733075 
L 347.256638 54.580644 
L 347.424037 60.278283 
L 347.591437 61.2552 
L 347.926237 53.465801 
L 348.093637 56.105147 
L 348.261037 53.110098 
L 348.428438 54.346449 
L 348.595837 59.340166 
L 348.763238 54.824173 
L 348.930637 55.379414 
L 349.265437 58.77478 
L 349.432838 50.480801 
L 349.600237 58.220695 
L 349.767637 58.571918 
L 349.935037 57.599852 
L 350.102438 55.637645 
L 350.269837 57.083321 
L 350.437237 61.975053 
L 350.604637 54.449232 
L 350.772038 54.28215 
L 350.939437 61.515025 
L 351.106837 49.899129 
L 351.441638 60.720468 
L 351.776437 53.132781 
L 352.111237 63.563763 
L 352.278638 51.701641 
L 352.613437 59.227718 
L 352.780837 60.813483 
L 352.948238 52.320351 
L 353.115637 55.425898 
L 353.283037 64.791602 
L 353.450437 55.587348 
L 353.617838 54.172025 
L 353.952637 61.10785 
L 354.120037 53.081417 
L 354.287438 57.947388 
L 354.454837 55.309772 
L 354.622237 54.838798 
L 354.957038 60.17687 
L 355.124437 54.210545 
L 355.291837 52.726696 
L 355.459237 62.25405 
L 355.794037 53.508962 
L 355.961437 58.747399 
L 356.128837 54.894995 
L 356.463637 56.166301 
L 356.631037 54.644842 
L 356.798437 60.877777 
L 356.965838 54.716746 
L 357.133237 53.854218 
L 357.300637 62.056127 
L 357.468037 52.370483 
L 357.635437 58.475094 
L 357.802837 57.80725 
L 357.970237 51.317874 
L 358.137637 55.274974 
L 358.305037 62.436227 
L 358.472437 54.654871 
L 358.639837 55.408337 
L 358.807237 59.986838 
L 358.974637 52.53784 
L 359.142037 53.647674 
L 359.309438 60.729631 
L 359.644237 55.215898 
L 359.811637 58.425236 
L 359.979038 59.246175 
L 360.146437 55.954462 
L 360.313837 57.532501 
L 360.481237 53.988675 
L 360.648638 63.119835 
L 360.816037 50.805299 
L 360.983437 53.212792 
L 361.150837 59.043325 
L 361.318238 59.755221 
L 361.485637 52.993155 
L 361.653037 59.502507 
L 361.820437 57.431759 
L 361.987838 53.324137 
L 362.155237 59.449685 
L 362.322637 60.861812 
L 362.490037 57.431175 
L 362.657438 58.871346 
L 362.824838 55.185728 
L 362.992237 54.802562 
L 363.159637 54.042026 
L 363.327038 58.29517 
L 363.661837 53.458935 
L 363.829237 56.221456 
L 363.996638 65.965883 
L 364.164038 53.518153 
L 364.331437 53.08852 
L 364.498837 58.56475 
L 364.666238 56.296288 
L 364.833638 57.508194 
L 365.001037 55.092625 
L 365.168437 56.692072 
L 365.168437 56.692072 
" clip-path="url(#p4144838705)" style="fill: none; stroke: #1f77b4; stroke-width: 1.5; stroke-linecap: square"/>
   </g>
   <g id="line2d_17">
    <path d="M 30.535837 235.096515 
L 31.205437 228.73435 
L 31.875037 224.469664 
L 32.544637 221.610959 
L 33.214237 219.694712 
L 33.883837 218.410213 
L 34.553437 217.549188 
L 35.390437 216.860351 
L 36.394837 216.381262 
L 37.566637 216.087897 
L 39.408037 215.89484 
L 42.923437 215.810308 
L 61.170037 215.798513 
L 365.168437 215.798513 
L 365.168437 215.798513 
" clip-path="url(#p4144838705)" style="fill: none; stroke: #ff7f0e; stroke-width: 1.5; stroke-linecap: square"/>
   </g>
   <g id="patch_3">
    <path d="M 30.368437 253.44 
L 30.368437 36 
" style="fill: none; stroke: #000000; stroke-width: 0.8; stroke-linejoin: miter; stroke-linecap: square"/>
   </g>
   <g id="patch_4">
    <path d="M 365.168437 253.44 
L 365.168437 36 
" style="fill: none; stroke: #000000; stroke-width: 0.8; stroke-linejoin: miter; stroke-linecap: square"/>
   </g>
   <g id="patch_5">
    <path d="M 30.368437 253.44 
L 365.168437 253.44 
" style="fill: none; stroke: #000000; stroke-width: 0.8; stroke-linejoin: miter; stroke-linecap: square"/>
   </g>
   <g id="patch_6">
    <path d="M 30.368437 36 
L 365.168437 36 
" style="fill: none; stroke: #000000; stroke-width: 0.8; stroke-linejoin: miter; stroke-linecap: square"/>
   </g>
   <g id="legend_1">
    <g id="patch_7">
     <path d="M 37.368437 77.078125 
L 87.068437 77.078125 
Q 89.068437 77.078125 89.068437 75.078125 
L 89.068437 43 
Q 89.068437 41 87.068437 41 
L 37.368437 41 
Q 35.368437 41 35.368437 43 
L 35.368437 75.078125 
Q 35.368437 77.078125 37.368437 77.078125 
z
" style="fill: #ffffff; opacity: 0.8; stroke: #cccccc; stroke-linejoin: miter"/>
    </g>
    <g id="line2d_18">
     <path d="M 39.368437 52.8 
L 49.368437 52.8 
L 59.368437 52.8 
" style="fill: none; stroke: #1f77b4; stroke-width: 1.5; stroke-linecap: square"/>
    </g>
    <g id="text_17">
     <!-- $\hat{y(t)}$ -->
     <g transform="translate(67.368437 56.3) scale(0.1 -0.1)">
      <defs>
       <path id="DejaVuSans-302" d="M -1831 5119 
L -1369 5119 
L -603 3944 
L -1038 3944 
L -1600 4709 
L -2163 3944 
L -2597 3944 
L -1831 5119 
z
M -1600 3584 
L -1600 3584 
z
" transform="scale(0.015625)"/>
       <path id="DejaVuSans-Oblique-79" d="M 1588 -325 
Q 1188 -997 936 -1164 
Q 684 -1331 294 -1331 
L -159 -1331 
L -63 -850 
L 269 -850 
Q 509 -850 678 -719 
Q 847 -588 1056 -206 
L 1234 128 
L 459 3500 
L 1069 3500 
L 1650 819 
L 3256 3500 
L 3859 3500 
L 1588 -325 
z
" transform="scale(0.015625)"/>
       <path id="DejaVuSans-28" d="M 1984 4856 
Q 1566 4138 1362 3434 
Q 1159 2731 1159 2009 
Q 1159 1288 1364 580 
Q 1569 -128 1984 -844 
L 1484 -844 
Q 1016 -109 783 600 
Q 550 1309 550 2009 
Q 550 2706 781 3412 
Q 1013 4119 1484 4856 
L 1984 4856 
z
" transform="scale(0.015625)"/>
       <path id="DejaVuSans-29" d="M 513 4856 
L 1013 4856 
Q 1481 4119 1714 3412 
Q 1947 2706 1947 2009 
Q 1947 1309 1714 600 
Q 1481 -109 1013 -844 
L 513 -844 
Q 928 -128 1133 580 
Q 1338 1288 1338 2009 
Q 1338 2731 1133 3434 
Q 928 4138 513 4856 
z
" transform="scale(0.015625)"/>
      </defs>
      <use xlink:href="#DejaVuSans-302" transform="translate(135.682129 33.015625)"/>
      <use xlink:href="#DejaVuSans-Oblique-79" transform="translate(0 0.640625)"/>
      <use xlink:href="#DejaVuSans-28" transform="translate(59.179688 0.640625)"/>
      <use xlink:href="#DejaVuSans-Oblique-74" transform="translate(98.193359 0.640625)"/>
      <use xlink:href="#DejaVuSans-29" transform="translate(137.402344 0.640625)"/>
     </g>
    </g>
    <g id="line2d_19">
     <path d="M 39.368437 67.498437 
L 49.368437 67.498437 
L 59.368437 67.498437 
" style="fill: none; stroke: #ff7f0e; stroke-width: 1.5; stroke-linecap: square"/>
    </g>
    <g id="text_18">
     <!-- $x(t)$ -->
     <g transform="translate(67.368437 70.998437) scale(0.1 -0.1)">
      <defs>
       <path id="DejaVuSans-Oblique-78" d="M 3841 3500 
L 2234 1784 
L 3219 0 
L 2559 0 
L 1819 1388 
L 531 0 
L -166 0 
L 1556 1844 
L 641 3500 
L 1300 3500 
L 1972 2234 
L 3144 3500 
L 3841 3500 
z
" transform="scale(0.015625)"/>
      </defs>
      <use xlink:href="#DejaVuSans-Oblique-78" transform="translate(0 0.125)"/>
      <use xlink:href="#DejaVuSans-28" transform="translate(59.179688 0.125)"/>
      <use xlink:href="#DejaVuSans-Oblique-74" transform="translate(98.193359 0.125)"/>
      <use xlink:href="#DejaVuSans-29" transform="translate(137.402344 0.125)"/>
     </g>
    </g>
   </g>
  </g>
  <g id="text_19">
   <!-- Accumulate to Threshold model with input of 0.1 with rms=1  -->
   <g transform="translate(7.2 16.318125) scale(0.12 -0.12)">
    <defs>
     <path id="DejaVuSans-41" d="M 2188 4044 
L 1331 1722 
L 3047 1722 
L 2188 4044 
z
M 1831 4666 
L 2547 4666 
L 4325 0 
L 3669 0 
L 3244 1197 
L 1141 1197 
L 716 0 
L 50 0 
L 1831 4666 
z
" transform="scale(0.015625)"/>
     <path id="DejaVuSans-63" d="M 3122 3366 
L 3122 2828 
Q 2878 2963 2633 3030 
Q 2388 3097 2138 3097 
Q 1578 3097 1268 2742 
Q 959 2388 959 1747 
Q 959 1106 1268 751 
Q 1578 397 2138 397 
Q 2388 397 2633 464 
Q 2878 531 3122 666 
L 3122 134 
Q 2881 22 2623 -34 
Q 2366 -91 2075 -91 
Q 1284 -91 818 406 
Q 353 903 353 1747 
Q 353 2603 823 3093 
Q 1294 3584 2113 3584 
Q 2378 3584 2631 3529 
Q 2884 3475 3122 3366 
z
" transform="scale(0.015625)"/>
     <path id="DejaVuSans-75" d="M 544 1381 
L 544 3500 
L 1119 3500 
L 1119 1403 
Q 1119 906 1312 657 
Q 1506 409 1894 409 
Q 2359 409 2629 706 
Q 2900 1003 2900 1516 
L 2900 3500 
L 3475 3500 
L 3475 0 
L 2900 0 
L 2900 538 
Q 2691 219 2414 64 
Q 2138 -91 1772 -91 
Q 1169 -91 856 284 
Q 544 659 544 1381 
z
M 1991 3584 
L 1991 3584 
z
" transform="scale(0.015625)"/>
     <path id="DejaVuSans-6d" d="M 3328 2828 
Q 3544 3216 3844 3400 
Q 4144 3584 4550 3584 
Q 5097 3584 5394 3201 
Q 5691 2819 5691 2113 
L 5691 0 
L 5113 0 
L 5113 2094 
Q 5113 2597 4934 2840 
Q 4756 3084 4391 3084 
Q 3944 3084 3684 2787 
Q 3425 2491 3425 1978 
L 3425 0 
L 2847 0 
L 2847 2094 
Q 2847 2600 2669 2842 
Q 2491 3084 2119 3084 
Q 1678 3084 1418 2786 
Q 1159 2488 1159 1978 
L 1159 0 
L 581 0 
L 581 3500 
L 1159 3500 
L 1159 2956 
Q 1356 3278 1631 3431 
Q 1906 3584 2284 3584 
Q 2666 3584 2933 3390 
Q 3200 3197 3328 2828 
z
" transform="scale(0.015625)"/>
     <path id="DejaVuSans-6c" d="M 603 4863 
L 1178 4863 
L 1178 0 
L 603 0 
L 603 4863 
z
" transform="scale(0.015625)"/>
     <path id="DejaVuSans-61" d="M 2194 1759 
Q 1497 1759 1228 1600 
Q 959 1441 959 1056 
Q 959 750 1161 570 
Q 1363 391 1709 391 
Q 2188 391 2477 730 
Q 2766 1069 2766 1631 
L 2766 1759 
L 2194 1759 
z
M 3341 1997 
L 3341 0 
L 2766 0 
L 2766 531 
Q 2569 213 2275 61 
Q 1981 -91 1556 -91 
Q 1019 -91 701 211 
Q 384 513 384 1019 
Q 384 1609 779 1909 
Q 1175 2209 1959 2209 
L 2766 2209 
L 2766 2266 
Q 2766 2663 2505 2880 
Q 2244 3097 1772 3097 
Q 1472 3097 1187 3025 
Q 903 2953 641 2809 
L 641 3341 
Q 956 3463 1253 3523 
Q 1550 3584 1831 3584 
Q 2591 3584 2966 3190 
Q 3341 2797 3341 1997 
z
" transform="scale(0.015625)"/>
     <path id="DejaVuSans-74" d="M 1172 4494 
L 1172 3500 
L 2356 3500 
L 2356 3053 
L 1172 3053 
L 1172 1153 
Q 1172 725 1289 603 
Q 1406 481 1766 481 
L 2356 481 
L 2356 0 
L 1766 0 
Q 1100 0 847 248 
Q 594 497 594 1153 
L 594 3053 
L 172 3053 
L 172 3500 
L 594 3500 
L 594 4494 
L 1172 4494 
z
" transform="scale(0.015625)"/>
     <path id="DejaVuSans-65" d="M 3597 1894 
L 3597 1613 
L 953 1613 
Q 991 1019 1311 708 
Q 1631 397 2203 397 
Q 2534 397 2845 478 
Q 3156 559 3463 722 
L 3463 178 
Q 3153 47 2828 -22 
Q 2503 -91 2169 -91 
Q 1331 -91 842 396 
Q 353 884 353 1716 
Q 353 2575 817 3079 
Q 1281 3584 2069 3584 
Q 2775 3584 3186 3129 
Q 3597 2675 3597 1894 
z
M 3022 2063 
Q 3016 2534 2758 2815 
Q 2500 3097 2075 3097 
Q 1594 3097 1305 2825 
Q 1016 2553 972 2059 
L 3022 2063 
z
" transform="scale(0.015625)"/>
     <path id="DejaVuSans-20" transform="scale(0.015625)"/>
     <path id="DejaVuSans-6f" d="M 1959 3097 
Q 1497 3097 1228 2736 
Q 959 2375 959 1747 
Q 959 1119 1226 758 
Q 1494 397 1959 397 
Q 2419 397 2687 759 
Q 2956 1122 2956 1747 
Q 2956 2369 2687 2733 
Q 2419 3097 1959 3097 
z
M 1959 3584 
Q 2709 3584 3137 3096 
Q 3566 2609 3566 1747 
Q 3566 888 3137 398 
Q 2709 -91 1959 -91 
Q 1206 -91 779 398 
Q 353 888 353 1747 
Q 353 2609 779 3096 
Q 1206 3584 1959 3584 
z
" transform="scale(0.015625)"/>
     <path id="DejaVuSans-54" d="M -19 4666 
L 3928 4666 
L 3928 4134 
L 2272 4134 
L 2272 0 
L 1638 0 
L 1638 4134 
L -19 4134 
L -19 4666 
z
" transform="scale(0.015625)"/>
     <path id="DejaVuSans-68" d="M 3513 2113 
L 3513 0 
L 2938 0 
L 2938 2094 
Q 2938 2591 2744 2837 
Q 2550 3084 2163 3084 
Q 1697 3084 1428 2787 
Q 1159 2491 1159 1978 
L 1159 0 
L 581 0 
L 581 4863 
L 1159 4863 
L 1159 2956 
Q 1366 3272 1645 3428 
Q 1925 3584 2291 3584 
Q 2894 3584 3203 3211 
Q 3513 2838 3513 2113 
z
" transform="scale(0.015625)"/>
     <path id="DejaVuSans-72" d="M 2631 2963 
Q 2534 3019 2420 3045 
Q 2306 3072 2169 3072 
Q 1681 3072 1420 2755 
Q 1159 2438 1159 1844 
L 1159 0 
L 581 0 
L 581 3500 
L 1159 3500 
L 1159 2956 
Q 1341 3275 1631 3429 
Q 1922 3584 2338 3584 
Q 2397 3584 2469 3576 
Q 2541 3569 2628 3553 
L 2631 2963 
z
" transform="scale(0.015625)"/>
     <path id="DejaVuSans-73" d="M 2834 3397 
L 2834 2853 
Q 2591 2978 2328 3040 
Q 2066 3103 1784 3103 
Q 1356 3103 1142 2972 
Q 928 2841 928 2578 
Q 928 2378 1081 2264 
Q 1234 2150 1697 2047 
L 1894 2003 
Q 2506 1872 2764 1633 
Q 3022 1394 3022 966 
Q 3022 478 2636 193 
Q 2250 -91 1575 -91 
Q 1294 -91 989 -36 
Q 684 19 347 128 
L 347 722 
Q 666 556 975 473 
Q 1284 391 1588 391 
Q 1994 391 2212 530 
Q 2431 669 2431 922 
Q 2431 1156 2273 1281 
Q 2116 1406 1581 1522 
L 1381 1569 
Q 847 1681 609 1914 
Q 372 2147 372 2553 
Q 372 3047 722 3315 
Q 1072 3584 1716 3584 
Q 2034 3584 2315 3537 
Q 2597 3491 2834 3397 
z
" transform="scale(0.015625)"/>
     <path id="DejaVuSans-64" d="M 2906 2969 
L 2906 4863 
L 3481 4863 
L 3481 0 
L 2906 0 
L 2906 525 
Q 2725 213 2448 61 
Q 2172 -91 1784 -91 
Q 1150 -91 751 415 
Q 353 922 353 1747 
Q 353 2572 751 3078 
Q 1150 3584 1784 3584 
Q 2172 3584 2448 3432 
Q 2725 3281 2906 2969 
z
M 947 1747 
Q 947 1113 1208 752 
Q 1469 391 1925 391 
Q 2381 391 2643 752 
Q 2906 1113 2906 1747 
Q 2906 2381 2643 2742 
Q 2381 3103 1925 3103 
Q 1469 3103 1208 2742 
Q 947 2381 947 1747 
z
" transform="scale(0.015625)"/>
     <path id="DejaVuSans-77" d="M 269 3500 
L 844 3500 
L 1563 769 
L 2278 3500 
L 2956 3500 
L 3675 769 
L 4391 3500 
L 4966 3500 
L 4050 0 
L 3372 0 
L 2619 2869 
L 1863 0 
L 1184 0 
L 269 3500 
z
" transform="scale(0.015625)"/>
     <path id="DejaVuSans-69" d="M 603 3500 
L 1178 3500 
L 1178 0 
L 603 0 
L 603 3500 
z
M 603 4863 
L 1178 4863 
L 1178 4134 
L 603 4134 
L 603 4863 
z
" transform="scale(0.015625)"/>
     <path id="DejaVuSans-6e" d="M 3513 2113 
L 3513 0 
L 2938 0 
L 2938 2094 
Q 2938 2591 2744 2837 
Q 2550 3084 2163 3084 
Q 1697 3084 1428 2787 
Q 1159 2491 1159 1978 
L 1159 0 
L 581 0 
L 581 3500 
L 1159 3500 
L 1159 2956 
Q 1366 3272 1645 3428 
Q 1925 3584 2291 3584 
Q 2894 3584 3203 3211 
Q 3513 2838 3513 2113 
z
" transform="scale(0.015625)"/>
     <path id="DejaVuSans-70" d="M 1159 525 
L 1159 -1331 
L 581 -1331 
L 581 3500 
L 1159 3500 
L 1159 2969 
Q 1341 3281 1617 3432 
Q 1894 3584 2278 3584 
Q 2916 3584 3314 3078 
Q 3713 2572 3713 1747 
Q 3713 922 3314 415 
Q 2916 -91 2278 -91 
Q 1894 -91 1617 61 
Q 1341 213 1159 525 
z
M 3116 1747 
Q 3116 2381 2855 2742 
Q 2594 3103 2138 3103 
Q 1681 3103 1420 2742 
Q 1159 2381 1159 1747 
Q 1159 1113 1420 752 
Q 1681 391 2138 391 
Q 2594 391 2855 752 
Q 3116 1113 3116 1747 
z
" transform="scale(0.015625)"/>
     <path id="DejaVuSans-66" d="M 2375 4863 
L 2375 4384 
L 1825 4384 
Q 1516 4384 1395 4259 
Q 1275 4134 1275 3809 
L 1275 3500 
L 2222 3500 
L 2222 3053 
L 1275 3053 
L 1275 0 
L 697 0 
L 697 3053 
L 147 3053 
L 147 3500 
L 697 3500 
L 697 3744 
Q 697 4328 969 4595 
Q 1241 4863 1831 4863 
L 2375 4863 
z
" transform="scale(0.015625)"/>
     <path id="DejaVuSans-3d" d="M 678 2906 
L 4684 2906 
L 4684 2381 
L 678 2381 
L 678 2906 
z
M 678 1631 
L 4684 1631 
L 4684 1100 
L 678 1100 
L 678 1631 
z
" transform="scale(0.015625)"/>
    </defs>
    <use xlink:href="#DejaVuSans-41"/>
    <use xlink:href="#DejaVuSans-63" x="66.658203"/>
    <use xlink:href="#DejaVuSans-63" x="121.638672"/>
    <use xlink:href="#DejaVuSans-75" x="176.619141"/>
    <use xlink:href="#DejaVuSans-6d" x="239.998047"/>
    <use xlink:href="#DejaVuSans-75" x="337.410156"/>
    <use xlink:href="#DejaVuSans-6c" x="400.789062"/>
    <use xlink:href="#DejaVuSans-61" x="428.572266"/>
    <use xlink:href="#DejaVuSans-74" x="489.851562"/>
    <use xlink:href="#DejaVuSans-65" x="529.060547"/>
    <use xlink:href="#DejaVuSans-20" x="590.583984"/>
    <use xlink:href="#DejaVuSans-74" x="622.371094"/>
    <use xlink:href="#DejaVuSans-6f" x="661.580078"/>
    <use xlink:href="#DejaVuSans-20" x="722.761719"/>
    <use xlink:href="#DejaVuSans-54" x="754.548828"/>
    <use xlink:href="#DejaVuSans-68" x="815.632812"/>
    <use xlink:href="#DejaVuSans-72" x="879.011719"/>
    <use xlink:href="#DejaVuSans-65" x="917.875"/>
    <use xlink:href="#DejaVuSans-73" x="979.398438"/>
    <use xlink:href="#DejaVuSans-68" x="1031.498047"/>
    <use xlink:href="#DejaVuSans-6f" x="1094.876953"/>
    <use xlink:href="#DejaVuSans-6c" x="1156.058594"/>
    <use xlink:href="#DejaVuSans-64" x="1183.841797"/>
    <use xlink:href="#DejaVuSans-20" x="1247.318359"/>
    <use xlink:href="#DejaVuSans-6d" x="1279.105469"/>
    <use xlink:href="#DejaVuSans-6f" x="1376.517578"/>
    <use xlink:href="#DejaVuSans-64" x="1437.699219"/>
    <use xlink:href="#DejaVuSans-65" x="1501.175781"/>
    <use xlink:href="#DejaVuSans-6c" x="1562.699219"/>
    <use xlink:href="#DejaVuSans-20" x="1590.482422"/>
    <use xlink:href="#DejaVuSans-77" x="1622.269531"/>
    <use xlink:href="#DejaVuSans-69" x="1704.056641"/>
    <use xlink:href="#DejaVuSans-74" x="1731.839844"/>
    <use xlink:href="#DejaVuSans-68" x="1771.048828"/>
    <use xlink:href="#DejaVuSans-20" x="1834.427734"/>
    <use xlink:href="#DejaVuSans-69" x="1866.214844"/>
    <use xlink:href="#DejaVuSans-6e" x="1893.998047"/>
    <use xlink:href="#DejaVuSans-70" x="1957.376953"/>
    <use xlink:href="#DejaVuSans-75" x="2020.853516"/>
    <use xlink:href="#DejaVuSans-74" x="2084.232422"/>
    <use xlink:href="#DejaVuSans-20" x="2123.441406"/>
    <use xlink:href="#DejaVuSans-6f" x="2155.228516"/>
    <use xlink:href="#DejaVuSans-66" x="2216.410156"/>
    <use xlink:href="#DejaVuSans-20" x="2251.615234"/>
    <use xlink:href="#DejaVuSans-30" x="2283.402344"/>
    <use xlink:href="#DejaVuSans-2e" x="2347.025391"/>
    <use xlink:href="#DejaVuSans-31" x="2378.8125"/>
    <use xlink:href="#DejaVuSans-20" x="2442.435547"/>
    <use xlink:href="#DejaVuSans-77" x="2474.222656"/>
    <use xlink:href="#DejaVuSans-69" x="2556.009766"/>
    <use xlink:href="#DejaVuSans-74" x="2583.792969"/>
    <use xlink:href="#DejaVuSans-68" x="2623.001953"/>
    <use xlink:href="#DejaVuSans-20" x="2686.380859"/>
    <use xlink:href="#DejaVuSans-72" x="2718.167969"/>
    <use xlink:href="#DejaVuSans-6d" x="2757.53125"/>
    <use xlink:href="#DejaVuSans-73" x="2854.943359"/>
    <use xlink:href="#DejaVuSans-3d" x="2907.042969"/>
    <use xlink:href="#DejaVuSans-31" x="2990.832031"/>
    <use xlink:href="#DejaVuSans-20" x="3054.455078"/>
   </g>
  </g>
 </g>
 <defs>
  <clipPath id="p4144838705">
   <rect x="30.368437" y="36" width="334.8" height="217.44"/>
  </clipPath>
 </defs>
</svg>
