<?xml version="1.0" encoding="utf-8" standalone="no"?>
<!DOCTYPE svg PUBLIC "-//W3C//DTD SVG 1.1//EN"
  "http://www.w3.org/Graphics/SVG/1.1/DTD/svg11.dtd">
<svg xmlns:xlink="http://www.w3.org/1999/xlink" width="398.833437pt" height="290.99625pt" viewBox="0 0 398.833437 290.99625" xmlns="http://www.w3.org/2000/svg" version="1.1">
 <metadata>
  <rdf:RDF xmlns:dc="http://purl.org/dc/elements/1.1/" xmlns:cc="http://creativecommons.org/ns#" xmlns:rdf="http://www.w3.org/1999/02/22-rdf-syntax-ns#">
   <cc:Work>
    <dc:type rdf:resource="http://purl.org/dc/dcmitype/StillImage"/>
    <dc:date>2022-12-01T16:27:25.890152</dc:date>
    <dc:format>image/svg+xml</dc:format>
    <dc:creator>
     <cc:Agent>
      <dc:title>Matplotlib v3.6.0, https://matplotlib.org/</dc:title>
     </cc:Agent>
    </dc:creator>
   </cc:Work>
  </rdf:RDF>
 </metadata>
 <defs>
  <style type="text/css">*{stroke-linejoin: round; stroke-linecap: butt}</style>
 </defs>
 <g id="figure_1">
  <g id="patch_1">
   <path d="M -0 290.99625 
L 398.833437 290.99625 
L 398.833437 0 
L -0 0 
L -0 290.99625 
z
" style="fill: none"/>
  </g>
  <g id="axes_1">
   <g id="patch_2">
    <path d="M 38.482813 253.44 
L 373.282813 253.44 
L 373.282813 36 
L 38.482813 36 
z
" style="fill: #ffffff"/>
   </g>
   <g id="matplotlib.axis_1">
    <g id="xtick_1">
     <g id="line2d_1">
      <defs>
       <path id="me46957e112" d="M 0 0 
L 0 3.5 
" style="stroke: #000000; stroke-width: 0.8"/>
      </defs>
      <g>
       <use xlink:href="#me46957e112" x="38.482813" y="253.44" style="stroke: #000000; stroke-width: 0.8"/>
      </g>
     </g>
     <g id="text_1">
      <!-- 0.00 -->
      <g transform="translate(27.35 268.038437) scale(0.1 -0.1)">
       <defs>
        <path id="DejaVuSans-30" d="M 2034 4250 
Q 1547 4250 1301 3770 
Q 1056 3291 1056 2328 
Q 1056 1369 1301 889 
Q 1547 409 2034 409 
Q 2525 409 2770 889 
Q 3016 1369 3016 2328 
Q 3016 3291 2770 3770 
Q 2525 4250 2034 4250 
z
M 2034 4750 
Q 2819 4750 3233 4129 
Q 3647 3509 3647 2328 
Q 3647 1150 3233 529 
Q 2819 -91 2034 -91 
Q 1250 -91 836 529 
Q 422 1150 422 2328 
Q 422 3509 836 4129 
Q 1250 4750 2034 4750 
z
" transform="scale(0.015625)"/>
        <path id="DejaVuSans-2e" d="M 684 794 
L 1344 794 
L 1344 0 
L 684 0 
L 684 794 
z
" transform="scale(0.015625)"/>
       </defs>
       <use xlink:href="#DejaVuSans-30"/>
       <use xlink:href="#DejaVuSans-2e" x="63.623047"/>
       <use xlink:href="#DejaVuSans-30" x="95.410156"/>
       <use xlink:href="#DejaVuSans-30" x="159.033203"/>
      </g>
     </g>
    </g>
    <g id="xtick_2">
     <g id="line2d_2">
      <g>
       <use xlink:href="#me46957e112" x="80.332813" y="253.44" style="stroke: #000000; stroke-width: 0.8"/>
      </g>
     </g>
     <g id="text_2">
      <!-- 0.25 -->
      <g transform="translate(69.2 268.038437) scale(0.1 -0.1)">
       <defs>
        <path id="DejaVuSans-32" d="M 1228 531 
L 3431 531 
L 3431 0 
L 469 0 
L 469 531 
Q 828 903 1448 1529 
Q 2069 2156 2228 2338 
Q 2531 2678 2651 2914 
Q 2772 3150 2772 3378 
Q 2772 3750 2511 3984 
Q 2250 4219 1831 4219 
Q 1534 4219 1204 4116 
Q 875 4013 500 3803 
L 500 4441 
Q 881 4594 1212 4672 
Q 1544 4750 1819 4750 
Q 2544 4750 2975 4387 
Q 3406 4025 3406 3419 
Q 3406 3131 3298 2873 
Q 3191 2616 2906 2266 
Q 2828 2175 2409 1742 
Q 1991 1309 1228 531 
z
" transform="scale(0.015625)"/>
        <path id="DejaVuSans-35" d="M 691 4666 
L 3169 4666 
L 3169 4134 
L 1269 4134 
L 1269 2991 
Q 1406 3038 1543 3061 
Q 1681 3084 1819 3084 
Q 2600 3084 3056 2656 
Q 3513 2228 3513 1497 
Q 3513 744 3044 326 
Q 2575 -91 1722 -91 
Q 1428 -91 1123 -41 
Q 819 9 494 109 
L 494 744 
Q 775 591 1075 516 
Q 1375 441 1709 441 
Q 2250 441 2565 725 
Q 2881 1009 2881 1497 
Q 2881 1984 2565 2268 
Q 2250 2553 1709 2553 
Q 1456 2553 1204 2497 
Q 953 2441 691 2322 
L 691 4666 
z
" transform="scale(0.015625)"/>
       </defs>
       <use xlink:href="#DejaVuSans-30"/>
       <use xlink:href="#DejaVuSans-2e" x="63.623047"/>
       <use xlink:href="#DejaVuSans-32" x="95.410156"/>
       <use xlink:href="#DejaVuSans-35" x="159.033203"/>
      </g>
     </g>
    </g>
    <g id="xtick_3">
     <g id="line2d_3">
      <g>
       <use xlink:href="#me46957e112" x="122.182813" y="253.44" style="stroke: #000000; stroke-width: 0.8"/>
      </g>
     </g>
     <g id="text_3">
      <!-- 0.50 -->
      <g transform="translate(111.05 268.038437) scale(0.1 -0.1)">
       <use xlink:href="#DejaVuSans-30"/>
       <use xlink:href="#DejaVuSans-2e" x="63.623047"/>
       <use xlink:href="#DejaVuSans-35" x="95.410156"/>
       <use xlink:href="#DejaVuSans-30" x="159.033203"/>
      </g>
     </g>
    </g>
    <g id="xtick_4">
     <g id="line2d_4">
      <g>
       <use xlink:href="#me46957e112" x="164.032813" y="253.44" style="stroke: #000000; stroke-width: 0.8"/>
      </g>
     </g>
     <g id="text_4">
      <!-- 0.75 -->
      <g transform="translate(152.9 268.038437) scale(0.1 -0.1)">
       <defs>
        <path id="DejaVuSans-37" d="M 525 4666 
L 3525 4666 
L 3525 4397 
L 1831 0 
L 1172 0 
L 2766 4134 
L 525 4134 
L 525 4666 
z
" transform="scale(0.015625)"/>
       </defs>
       <use xlink:href="#DejaVuSans-30"/>
       <use xlink:href="#DejaVuSans-2e" x="63.623047"/>
       <use xlink:href="#DejaVuSans-37" x="95.410156"/>
       <use xlink:href="#DejaVuSans-35" x="159.033203"/>
      </g>
     </g>
    </g>
    <g id="xtick_5">
     <g id="line2d_5">
      <g>
       <use xlink:href="#me46957e112" x="205.882812" y="253.44" style="stroke: #000000; stroke-width: 0.8"/>
      </g>
     </g>
     <g id="text_5">
      <!-- 1.00 -->
      <g transform="translate(194.75 268.038437) scale(0.1 -0.1)">
       <defs>
        <path id="DejaVuSans-31" d="M 794 531 
L 1825 531 
L 1825 4091 
L 703 3866 
L 703 4441 
L 1819 4666 
L 2450 4666 
L 2450 531 
L 3481 531 
L 3481 0 
L 794 0 
L 794 531 
z
" transform="scale(0.015625)"/>
       </defs>
       <use xlink:href="#DejaVuSans-31"/>
       <use xlink:href="#DejaVuSans-2e" x="63.623047"/>
       <use xlink:href="#DejaVuSans-30" x="95.410156"/>
       <use xlink:href="#DejaVuSans-30" x="159.033203"/>
      </g>
     </g>
    </g>
    <g id="xtick_6">
     <g id="line2d_6">
      <g>
       <use xlink:href="#me46957e112" x="247.732812" y="253.44" style="stroke: #000000; stroke-width: 0.8"/>
      </g>
     </g>
     <g id="text_6">
      <!-- 1.25 -->
      <g transform="translate(236.6 268.038437) scale(0.1 -0.1)">
       <use xlink:href="#DejaVuSans-31"/>
       <use xlink:href="#DejaVuSans-2e" x="63.623047"/>
       <use xlink:href="#DejaVuSans-32" x="95.410156"/>
       <use xlink:href="#DejaVuSans-35" x="159.033203"/>
      </g>
     </g>
    </g>
    <g id="xtick_7">
     <g id="line2d_7">
      <g>
       <use xlink:href="#me46957e112" x="289.582813" y="253.44" style="stroke: #000000; stroke-width: 0.8"/>
      </g>
     </g>
     <g id="text_7">
      <!-- 1.50 -->
      <g transform="translate(278.45 268.038437) scale(0.1 -0.1)">
       <use xlink:href="#DejaVuSans-31"/>
       <use xlink:href="#DejaVuSans-2e" x="63.623047"/>
       <use xlink:href="#DejaVuSans-35" x="95.410156"/>
       <use xlink:href="#DejaVuSans-30" x="159.033203"/>
      </g>
     </g>
    </g>
    <g id="xtick_8">
     <g id="line2d_8">
      <g>
       <use xlink:href="#me46957e112" x="331.432813" y="253.44" style="stroke: #000000; stroke-width: 0.8"/>
      </g>
     </g>
     <g id="text_8">
      <!-- 1.75 -->
      <g transform="translate(320.3 268.038437) scale(0.1 -0.1)">
       <use xlink:href="#DejaVuSans-31"/>
       <use xlink:href="#DejaVuSans-2e" x="63.623047"/>
       <use xlink:href="#DejaVuSans-37" x="95.410156"/>
       <use xlink:href="#DejaVuSans-35" x="159.033203"/>
      </g>
     </g>
    </g>
    <g id="xtick_9">
     <g id="line2d_9">
      <g>
       <use xlink:href="#me46957e112" x="373.282813" y="253.44" style="stroke: #000000; stroke-width: 0.8"/>
      </g>
     </g>
     <g id="text_9">
      <!-- 2.00 -->
      <g transform="translate(362.15 268.038437) scale(0.1 -0.1)">
       <use xlink:href="#DejaVuSans-32"/>
       <use xlink:href="#DejaVuSans-2e" x="63.623047"/>
       <use xlink:href="#DejaVuSans-30" x="95.410156"/>
       <use xlink:href="#DejaVuSans-30" x="159.033203"/>
      </g>
     </g>
    </g>
    <g id="text_10">
     <!-- $t$ -->
     <g transform="translate(203.882812 281.716562) scale(0.1 -0.1)">
      <defs>
       <path id="DejaVuSans-Oblique-74" d="M 2706 3500 
L 2619 3053 
L 1472 3053 
L 1100 1153 
Q 1081 1047 1072 975 
Q 1063 903 1063 863 
Q 1063 663 1183 572 
Q 1303 481 1569 481 
L 2150 481 
L 2053 0 
L 1503 0 
Q 991 0 739 200 
Q 488 400 488 806 
Q 488 878 497 964 
Q 506 1050 525 1153 
L 897 3053 
L 409 3053 
L 500 3500 
L 978 3500 
L 1172 4494 
L 1747 4494 
L 1556 3500 
L 2706 3500 
z
" transform="scale(0.015625)"/>
      </defs>
      <use xlink:href="#DejaVuSans-Oblique-74" transform="translate(0 0.78125)"/>
     </g>
    </g>
   </g>
   <g id="matplotlib.axis_2">
    <g id="ytick_1">
     <g id="line2d_10">
      <defs>
       <path id="m808543436b" d="M 0 0 
L -3.5 0 
" style="stroke: #000000; stroke-width: 0.8"/>
      </defs>
      <g>
       <use xlink:href="#m808543436b" x="38.482813" y="247.620068" style="stroke: #000000; stroke-width: 0.8"/>
      </g>
     </g>
     <g id="text_11">
      <!-- −0.7 -->
      <g transform="translate(7.2 251.419286) scale(0.1 -0.1)">
       <defs>
        <path id="DejaVuSans-2212" d="M 678 2272 
L 4684 2272 
L 4684 1741 
L 678 1741 
L 678 2272 
z
" transform="scale(0.015625)"/>
       </defs>
       <use xlink:href="#DejaVuSans-2212"/>
       <use xlink:href="#DejaVuSans-30" x="83.789062"/>
       <use xlink:href="#DejaVuSans-2e" x="147.412109"/>
       <use xlink:href="#DejaVuSans-37" x="179.199219"/>
      </g>
     </g>
    </g>
    <g id="ytick_2">
     <g id="line2d_11">
      <g>
       <use xlink:href="#m808543436b" x="38.482813" y="220.282322" style="stroke: #000000; stroke-width: 0.8"/>
      </g>
     </g>
     <g id="text_12">
      <!-- −0.6 -->
      <g transform="translate(7.2 224.081541) scale(0.1 -0.1)">
       <defs>
        <path id="DejaVuSans-36" d="M 2113 2584 
Q 1688 2584 1439 2293 
Q 1191 2003 1191 1497 
Q 1191 994 1439 701 
Q 1688 409 2113 409 
Q 2538 409 2786 701 
Q 3034 994 3034 1497 
Q 3034 2003 2786 2293 
Q 2538 2584 2113 2584 
z
M 3366 4563 
L 3366 3988 
Q 3128 4100 2886 4159 
Q 2644 4219 2406 4219 
Q 1781 4219 1451 3797 
Q 1122 3375 1075 2522 
Q 1259 2794 1537 2939 
Q 1816 3084 2150 3084 
Q 2853 3084 3261 2657 
Q 3669 2231 3669 1497 
Q 3669 778 3244 343 
Q 2819 -91 2113 -91 
Q 1303 -91 875 529 
Q 447 1150 447 2328 
Q 447 3434 972 4092 
Q 1497 4750 2381 4750 
Q 2619 4750 2861 4703 
Q 3103 4656 3366 4563 
z
" transform="scale(0.015625)"/>
       </defs>
       <use xlink:href="#DejaVuSans-2212"/>
       <use xlink:href="#DejaVuSans-30" x="83.789062"/>
       <use xlink:href="#DejaVuSans-2e" x="147.412109"/>
       <use xlink:href="#DejaVuSans-36" x="179.199219"/>
      </g>
     </g>
    </g>
    <g id="ytick_3">
     <g id="line2d_12">
      <g>
       <use xlink:href="#m808543436b" x="38.482813" y="192.944577" style="stroke: #000000; stroke-width: 0.8"/>
      </g>
     </g>
     <g id="text_13">
      <!-- −0.5 -->
      <g transform="translate(7.2 196.743796) scale(0.1 -0.1)">
       <use xlink:href="#DejaVuSans-2212"/>
       <use xlink:href="#DejaVuSans-30" x="83.789062"/>
       <use xlink:href="#DejaVuSans-2e" x="147.412109"/>
       <use xlink:href="#DejaVuSans-35" x="179.199219"/>
      </g>
     </g>
    </g>
    <g id="ytick_4">
     <g id="line2d_13">
      <g>
       <use xlink:href="#m808543436b" x="38.482813" y="165.606832" style="stroke: #000000; stroke-width: 0.8"/>
      </g>
     </g>
     <g id="text_14">
      <!-- −0.4 -->
      <g transform="translate(7.2 169.406051) scale(0.1 -0.1)">
       <defs>
        <path id="DejaVuSans-34" d="M 2419 4116 
L 825 1625 
L 2419 1625 
L 2419 4116 
z
M 2253 4666 
L 3047 4666 
L 3047 1625 
L 3713 1625 
L 3713 1100 
L 3047 1100 
L 3047 0 
L 2419 0 
L 2419 1100 
L 313 1100 
L 313 1709 
L 2253 4666 
z
" transform="scale(0.015625)"/>
       </defs>
       <use xlink:href="#DejaVuSans-2212"/>
       <use xlink:href="#DejaVuSans-30" x="83.789062"/>
       <use xlink:href="#DejaVuSans-2e" x="147.412109"/>
       <use xlink:href="#DejaVuSans-34" x="179.199219"/>
      </g>
     </g>
    </g>
    <g id="ytick_5">
     <g id="line2d_14">
      <g>
       <use xlink:href="#m808543436b" x="38.482813" y="138.269087" style="stroke: #000000; stroke-width: 0.8"/>
      </g>
     </g>
     <g id="text_15">
      <!-- −0.3 -->
      <g transform="translate(7.2 142.068306) scale(0.1 -0.1)">
       <defs>
        <path id="DejaVuSans-33" d="M 2597 2516 
Q 3050 2419 3304 2112 
Q 3559 1806 3559 1356 
Q 3559 666 3084 287 
Q 2609 -91 1734 -91 
Q 1441 -91 1130 -33 
Q 819 25 488 141 
L 488 750 
Q 750 597 1062 519 
Q 1375 441 1716 441 
Q 2309 441 2620 675 
Q 2931 909 2931 1356 
Q 2931 1769 2642 2001 
Q 2353 2234 1838 2234 
L 1294 2234 
L 1294 2753 
L 1863 2753 
Q 2328 2753 2575 2939 
Q 2822 3125 2822 3475 
Q 2822 3834 2567 4026 
Q 2313 4219 1838 4219 
Q 1578 4219 1281 4162 
Q 984 4106 628 3988 
L 628 4550 
Q 988 4650 1302 4700 
Q 1616 4750 1894 4750 
Q 2613 4750 3031 4423 
Q 3450 4097 3450 3541 
Q 3450 3153 3228 2886 
Q 3006 2619 2597 2516 
z
" transform="scale(0.015625)"/>
       </defs>
       <use xlink:href="#DejaVuSans-2212"/>
       <use xlink:href="#DejaVuSans-30" x="83.789062"/>
       <use xlink:href="#DejaVuSans-2e" x="147.412109"/>
       <use xlink:href="#DejaVuSans-33" x="179.199219"/>
      </g>
     </g>
    </g>
    <g id="ytick_6">
     <g id="line2d_15">
      <g>
       <use xlink:href="#m808543436b" x="38.482813" y="110.931342" style="stroke: #000000; stroke-width: 0.8"/>
      </g>
     </g>
     <g id="text_16">
      <!-- −0.2 -->
      <g transform="translate(7.2 114.730561) scale(0.1 -0.1)">
       <use xlink:href="#DejaVuSans-2212"/>
       <use xlink:href="#DejaVuSans-30" x="83.789062"/>
       <use xlink:href="#DejaVuSans-2e" x="147.412109"/>
       <use xlink:href="#DejaVuSans-32" x="179.199219"/>
      </g>
     </g>
    </g>
    <g id="ytick_7">
     <g id="line2d_16">
      <g>
       <use xlink:href="#m808543436b" x="38.482813" y="83.593597" style="stroke: #000000; stroke-width: 0.8"/>
      </g>
     </g>
     <g id="text_17">
      <!-- −0.1 -->
      <g transform="translate(7.2 87.392816) scale(0.1 -0.1)">
       <use xlink:href="#DejaVuSans-2212"/>
       <use xlink:href="#DejaVuSans-30" x="83.789062"/>
       <use xlink:href="#DejaVuSans-2e" x="147.412109"/>
       <use xlink:href="#DejaVuSans-31" x="179.199219"/>
      </g>
     </g>
    </g>
    <g id="ytick_8">
     <g id="line2d_17">
      <g>
       <use xlink:href="#m808543436b" x="38.482813" y="56.255852" style="stroke: #000000; stroke-width: 0.8"/>
      </g>
     </g>
     <g id="text_18">
      <!-- 0.0 -->
      <g transform="translate(15.579688 60.05507) scale(0.1 -0.1)">
       <use xlink:href="#DejaVuSans-30"/>
       <use xlink:href="#DejaVuSans-2e" x="63.623047"/>
       <use xlink:href="#DejaVuSans-30" x="95.410156"/>
      </g>
     </g>
    </g>
   </g>
   <g id="line2d_18">
    <path d="M 38.650213 56.255852 
L 38.817613 68.921749 
L 38.985013 57.40895 
L 39.152413 58.286529 
L 39.319813 52.251348 
L 39.487212 57.881201 
L 39.822012 47.405079 
L 39.989413 56.969808 
L 40.156813 58.742279 
L 40.491613 54.122521 
L 40.659013 54.325534 
L 40.826413 51.579082 
L 40.993813 56.644995 
L 41.161213 66.519432 
L 41.328612 47.004085 
L 41.663412 57.758035 
L 41.830813 53.316965 
L 42.165613 63.781783 
L 42.333013 55.311469 
L 42.500413 54.742498 
L 42.667813 54.886513 
L 42.835213 60.361575 
L 43.002612 54.908871 
L 43.170012 55.843858 
L 43.337412 55.883064 
L 43.504812 60.191495 
L 43.672213 56.704398 
L 43.839613 45.883636 
L 44.007013 50.553526 
L 44.174413 65.424467 
L 44.341813 60.613855 
L 44.509213 66.235617 
L 44.676613 68.099786 
L 45.011412 60.761288 
L 45.178812 56.462895 
L 45.346213 67.182004 
L 45.513613 52.491188 
L 45.681013 51.877498 
L 45.848413 54.232005 
L 46.015813 69.048578 
L 46.183213 71.878901 
L 46.350613 71.605885 
L 46.518012 60.034061 
L 46.685412 63.301432 
L 46.852812 63.596863 
L 47.020212 61.880777 
L 47.355013 69.595858 
L 47.522413 68.326389 
L 47.689813 58.187609 
L 48.024613 72.299198 
L 48.192013 59.311807 
L 48.359413 61.754353 
L 48.526813 80.769661 
L 48.694212 81.465908 
L 49.029013 58.491204 
L 49.196413 65.862406 
L 49.363813 65.839311 
L 49.531213 71.163294 
L 49.698613 80.4789 
L 49.866013 83.422547 
L 50.200813 62.284685 
L 50.368213 79.594806 
L 50.535612 76.224202 
L 50.703012 75.162115 
L 50.870413 77.535957 
L 51.205213 64.069528 
L 51.372613 73.47644 
L 51.540013 71.715079 
L 52.042213 83.868717 
L 52.209613 74.120586 
L 52.377013 73.731204 
L 52.544413 79.136705 
L 52.711813 73.683835 
L 52.879213 83.130771 
L 53.046613 84.961362 
L 53.214013 81.014706 
L 53.381413 73.475752 
L 53.548813 80.564857 
L 53.883612 82.650287 
L 54.218412 88.850871 
L 54.385813 76.253606 
L 54.553213 82.131013 
L 54.720613 81.486614 
L 54.888013 82.114634 
L 55.055413 77.959558 
L 55.390213 88.502406 
L 55.557613 80.659666 
L 55.725013 84.463938 
L 55.892413 84.975429 
L 56.059812 80.98472 
L 56.227213 95.017908 
L 56.394613 94.994947 
L 56.729413 80.643057 
L 56.896813 91.539377 
L 57.064213 85.453773 
L 57.231613 83.985896 
L 57.399012 85.735111 
L 57.901212 97.687955 
L 58.068613 95.805779 
L 58.236013 90.729794 
L 58.403413 90.565085 
L 58.570813 83.497356 
L 58.738213 92.022586 
L 58.905613 89.290065 
L 59.073013 93.267881 
L 59.240413 90.351056 
L 59.575213 105.213371 
L 59.910013 87.856473 
L 60.077413 96.340455 
L 60.244813 92.5259 
L 60.412213 92.740085 
L 60.747013 94.675314 
L 60.914413 103.589827 
L 61.081813 105.000814 
L 61.584013 86.379131 
L 61.751413 94.514671 
L 62.086213 93.470559 
L 62.421013 107.922161 
L 62.588413 91.360879 
L 62.755813 101.836412 
L 63.090613 106.497137 
L 63.425413 95.013407 
L 63.592813 96.573913 
L 63.760213 90.200438 
L 63.927613 90.299097 
L 64.095012 99.644241 
L 64.262413 97.094454 
L 64.429812 97.596225 
L 64.597212 97.000862 
L 64.764612 107.637251 
L 64.932012 105.946631 
L 65.266813 96.476628 
L 65.434213 105.315012 
L 65.601613 102.537772 
L 65.936413 106.187453 
L 66.103813 99.104854 
L 66.438613 107.191943 
L 66.773413 103.326362 
L 66.940813 104.507701 
L 67.108213 107.992313 
L 67.275613 106.097982 
L 67.443013 115.809783 
L 67.610413 109.445639 
L 67.777813 109.768065 
L 67.945212 111.129957 
L 68.112612 110.023707 
L 68.447412 113.775839 
L 68.614812 119.577865 
L 68.949613 102.27004 
L 69.117013 103.265424 
L 69.451813 120.074966 
L 69.619213 110.782139 
L 69.786613 109.259013 
L 69.954013 121.409307 
L 70.121413 115.861809 
L 70.288813 117.418587 
L 70.456213 110.678903 
L 70.623613 123.115087 
L 70.958413 116.150394 
L 71.125812 124.459404 
L 71.293213 119.245464 
L 71.460612 127.200628 
L 71.628013 126.297852 
L 71.795412 120.1058 
L 71.962813 120.149246 
L 72.130212 123.263273 
L 72.297613 122.135448 
L 72.465013 121.953744 
L 72.632413 115.429396 
L 72.799813 132.005751 
L 72.967213 123.479192 
L 73.134613 123.776826 
L 73.302013 118.274454 
L 73.469413 127.905061 
L 73.636812 125.090397 
L 73.804213 124.606937 
L 74.139013 114.634624 
L 74.306412 126.397978 
L 74.473813 129.560437 
L 74.641212 121.019825 
L 74.808613 120.893949 
L 74.976012 125.94648 
L 75.143413 120.893703 
L 75.478213 126.23132 
L 75.645612 134.086063 
L 75.980412 124.200585 
L 76.315213 128.433664 
L 76.482613 127.612522 
L 76.650013 119.832849 
L 76.817413 131.732684 
L 76.984813 130.786084 
L 77.152213 127.359331 
L 77.319613 133.950463 
L 77.487013 130.070606 
L 77.654413 138.110267 
L 78.156613 125.280897 
L 78.491412 140.914902 
L 78.826212 133.303025 
L 78.993613 133.953151 
L 79.161012 135.138845 
L 79.328412 140.147398 
L 79.495812 139.155236 
L 79.663213 127.596705 
L 79.830613 127.429133 
L 79.998013 135.215622 
L 80.165413 133.428972 
L 80.332813 127.412655 
L 80.667613 141.185264 
L 80.835013 137.510047 
L 81.002413 130.706384 
L 81.169813 138.513369 
L 81.504613 134.433495 
L 81.672012 139.339275 
L 81.839413 138.912962 
L 82.174213 131.258027 
L 82.341612 133.660841 
L 82.509013 144.39563 
L 82.676412 127.767927 
L 83.011212 135.725477 
L 83.178613 134.656287 
L 83.346013 139.185732 
L 83.513413 134.312796 
L 83.680813 133.51502 
L 83.848213 152.992996 
L 84.183013 139.191641 
L 84.350413 136.156786 
L 84.517813 141.380783 
L 84.685213 133.280075 
L 84.852613 134.263436 
L 85.187413 141.446305 
L 85.354813 143.135575 
L 85.522213 139.264892 
L 85.689613 138.093672 
L 85.857013 135.605492 
L 86.024413 140.506852 
L 86.191813 135.518354 
L 86.359213 122.719424 
L 86.694013 139.081386 
L 86.861413 138.353677 
L 87.028813 140.27766 
L 87.196213 145.509071 
L 87.363613 142.724971 
L 87.531013 142.863805 
L 87.698413 146.269839 
L 87.865813 136.581326 
L 88.200613 140.142686 
L 88.368012 134.075635 
L 88.535413 141.707164 
L 88.702812 140.270178 
L 88.870213 140.204355 
L 89.037612 139.960554 
L 89.205013 141.260013 
L 89.372412 147.367056 
L 89.539813 144.476535 
L 89.707212 138.064812 
L 89.874613 148.459186 
L 90.042012 138.468891 
L 90.209412 139.109166 
L 90.376812 140.627851 
L 90.544213 153.29981 
L 90.879013 136.012543 
L 91.213813 151.184814 
L 91.381213 140.533433 
L 91.548613 145.81595 
L 91.716013 140.322224 
L 91.883413 150.567832 
L 92.050813 152.299791 
L 92.218213 149.545999 
L 92.385613 141.355377 
L 92.553013 148.896277 
L 92.720413 144.556133 
L 92.887812 147.269463 
L 93.055213 144.596713 
L 93.222612 154.028297 
L 93.557412 143.741572 
L 93.724813 151.05885 
L 93.892212 151.283608 
L 94.059613 139.913742 
L 94.227013 146.849054 
L 94.561813 147.364015 
L 94.729213 155.25743 
L 94.896613 151.823546 
L 95.064013 142.729077 
L 95.231413 144.705574 
L 95.398813 152.978028 
L 95.566213 147.448854 
L 95.733613 136.780735 
L 95.901013 150.339148 
L 96.068413 140.476881 
L 96.235813 139.338847 
L 96.403213 148.782756 
L 96.570613 149.166484 
L 96.738013 145.036722 
L 96.905413 156.172397 
L 97.072813 140.668748 
L 97.240213 138.492452 
L 97.407612 142.361212 
L 97.575012 142.710707 
L 97.742413 138.846672 
L 97.909813 153.829734 
L 98.244613 144.693142 
L 98.412013 153.531594 
L 98.579413 154.491925 
L 98.746813 152.572141 
L 98.914212 147.794512 
L 99.081613 159.513656 
L 99.249012 145.389259 
L 99.416413 145.23368 
L 99.583812 147.767339 
L 99.751213 155.5909 
L 99.918612 154.573711 
L 100.253412 145.680187 
L 100.420813 155.871422 
L 100.588212 148.071401 
L 100.755613 155.249077 
L 100.923012 151.536045 
L 101.090413 153.988995 
L 101.257812 153.780608 
L 101.425213 150.913899 
L 101.592613 150.259238 
L 101.760013 156.019679 
L 101.927413 153.149949 
L 102.429613 162.593937 
L 102.597013 154.035608 
L 102.764412 154.15583 
L 102.931813 158.454196 
L 103.099212 152.330018 
L 103.266613 160.881153 
L 103.434012 158.874292 
L 103.601413 158.770035 
L 103.768812 151.051042 
L 103.936213 158.36172 
L 104.103612 157.399118 
L 104.438412 164.786255 
L 104.773212 154.106319 
L 105.108013 157.520912 
L 105.275413 153.548832 
L 105.442813 161.196131 
L 105.610213 157.555902 
L 105.777613 162.982042 
L 105.945013 161.499685 
L 106.112413 167.360207 
L 106.279813 159.906235 
L 106.447213 167.678621 
L 106.782013 158.560467 
L 106.949413 161.112561 
L 107.116813 157.415828 
L 107.284212 158.085189 
L 107.451613 165.094063 
L 107.619012 157.765782 
L 107.786413 164.055366 
L 107.953812 162.713278 
L 108.121213 163.934923 
L 108.288612 170.219677 
L 108.456013 159.915463 
L 108.790812 164.957219 
L 108.958213 154.629763 
L 109.125612 158.166014 
L 109.293013 168.474656 
L 109.460412 163.209406 
L 109.627813 161.524092 
L 109.795212 165.285963 
L 109.962613 164.739588 
L 110.130012 155.726668 
L 110.297413 158.750474 
L 110.464812 170.230547 
L 110.632213 169.399375 
L 110.967013 149.147308 
L 111.134412 171.933176 
L 111.301813 171.262916 
L 111.636613 156.225446 
L 111.804012 167.507573 
L 111.971413 166.744876 
L 112.138813 160.618533 
L 112.306213 166.976976 
L 112.473613 166.277717 
L 112.641013 157.501359 
L 112.808413 159.273918 
L 112.975813 156.888183 
L 113.143213 163.014556 
L 113.478013 160.301811 
L 113.645412 167.423672 
L 113.812813 167.374364 
L 113.980212 162.124238 
L 114.315012 171.413226 
L 114.817213 163.98087 
L 114.984612 163.681943 
L 115.319412 167.374581 
L 115.654212 165.202145 
L 115.821613 160.242669 
L 115.989013 168.434118 
L 116.156413 165.555992 
L 116.323813 169.831901 
L 116.491213 178.779344 
L 116.658613 165.45107 
L 116.826013 166.713072 
L 116.993413 169.439811 
L 117.160813 165.762536 
L 117.495613 167.712673 
L 117.663013 170.718762 
L 117.830413 165.174722 
L 117.997813 179.153077 
L 118.165213 167.45786 
L 118.332613 164.897693 
L 118.500012 164.854585 
L 118.667413 164.178072 
L 118.834812 159.995483 
L 119.002213 170.970622 
L 119.337013 158.712134 
L 119.504413 178.478065 
L 119.839213 165.817479 
L 120.006612 179.210547 
L 120.174013 161.89374 
L 120.341412 169.246305 
L 120.676212 167.278351 
L 120.843613 170.679768 
L 121.011012 157.86368 
L 121.178413 167.814584 
L 121.345812 160.782404 
L 121.513213 160.812313 
L 121.680612 171.880468 
L 122.015412 161.336463 
L 122.350212 172.890657 
L 122.517613 169.114869 
L 122.852413 171.185599 
L 123.019813 170.214648 
L 123.354613 163.096373 
L 123.522013 165.779634 
L 123.689413 173.330002 
L 123.856813 171.007248 
L 124.024213 162.924773 
L 124.359013 172.283385 
L 124.526413 162.984304 
L 124.693813 160.764371 
L 124.861212 173.418833 
L 125.028613 170.757672 
L 125.196012 161.56716 
L 125.363413 175.068668 
L 125.530812 169.295533 
L 125.698213 169.616731 
L 125.865612 169.426338 
L 126.033013 178.992801 
L 126.200412 171.700914 
L 126.367813 172.317222 
L 126.535213 168.177736 
L 126.702613 180.571443 
L 127.037413 171.929361 
L 127.204813 182.240303 
L 127.372213 184.130275 
L 127.707013 158.709068 
L 127.874413 167.843802 
L 128.041813 168.564022 
L 128.209213 168.419976 
L 128.376613 171.632758 
L 128.544013 178.505904 
L 128.878813 172.576579 
L 129.046213 188.322059 
L 129.213613 181.038387 
L 129.381012 178.780034 
L 129.548413 184.017776 
L 129.715812 180.82895 
L 129.883213 181.446296 
L 130.050612 176.845217 
L 130.218013 176.785821 
L 130.385413 169.442104 
L 130.552813 173.309354 
L 130.720213 171.272918 
L 130.887613 173.55474 
L 131.055013 173.203579 
L 131.222413 167.423078 
L 131.724613 182.856456 
L 131.892013 176.797157 
L 132.059413 181.198958 
L 132.226813 169.617482 
L 132.394213 170.587374 
L 132.561613 176.427969 
L 132.729013 178.134518 
L 132.896413 176.324581 
L 133.063813 182.567741 
L 133.231213 178.583968 
L 133.398613 181.523866 
L 133.566013 181.168054 
L 133.733413 186.17899 
L 134.068213 183.325338 
L 134.235613 184.196053 
L 134.403013 178.15141 
L 134.570413 183.091778 
L 134.737813 170.684084 
L 134.905213 171.235174 
L 135.072612 173.520589 
L 135.240013 170.806856 
L 135.574813 184.003391 
L 135.742212 176.764573 
L 135.909613 176.712929 
L 136.077012 186.59794 
L 136.244413 179.858815 
L 136.579213 185.757272 
L 136.746612 189.719577 
L 136.914013 189.316961 
L 137.081412 188.352039 
L 137.248812 188.482637 
L 137.416213 178.583567 
L 137.583612 180.691087 
L 137.751013 185.692117 
L 137.918412 184.004108 
L 138.085813 187.580923 
L 138.420613 183.131179 
L 138.588012 187.004041 
L 138.755413 185.185754 
L 138.922812 186.645648 
L 139.090213 198.939919 
L 139.257612 197.011486 
L 139.425013 178.709131 
L 139.592412 183.529318 
L 139.759813 182.491847 
L 139.927212 183.087363 
L 140.094613 189.093553 
L 140.262012 181.855182 
L 140.429413 184.44177 
L 140.596812 189.593569 
L 140.764213 184.175352 
L 140.931612 186.763036 
L 141.099013 197.307403 
L 141.433813 179.921332 
L 141.601213 190.045933 
L 141.936013 183.06168 
L 142.438212 191.557827 
L 142.605613 190.311614 
L 142.940413 183.625517 
L 143.275213 181.060593 
L 143.442612 186.097026 
L 143.610013 186.166307 
L 143.777412 187.582029 
L 143.944813 187.487062 
L 144.112212 192.622347 
L 144.279613 193.312503 
L 144.447012 184.553031 
L 144.614413 186.138099 
L 144.781813 192.843161 
L 145.116613 179.156765 
L 145.284013 196.310503 
L 145.618813 179.636915 
L 145.786213 191.6045 
L 146.121013 182.114723 
L 146.455813 192.484016 
L 146.623213 183.567904 
L 146.790613 188.745827 
L 146.958012 187.83328 
L 147.125413 185.531795 
L 147.292812 193.246779 
L 147.460213 188.537934 
L 147.627612 193.204002 
L 147.795013 192.220351 
L 147.962412 185.377441 
L 148.129813 190.449504 
L 148.297213 204.873422 
L 148.632013 178.85109 
L 148.799413 199.71082 
L 149.134213 185.174262 
L 149.469013 191.156805 
L 149.803813 184.333897 
L 149.971213 188.438874 
L 150.138613 186.537201 
L 150.306013 191.854938 
L 150.473413 192.414364 
L 150.640813 192.323462 
L 150.975613 183.790227 
L 151.143013 191.408543 
L 151.477812 193.21247 
L 151.645213 179.528599 
L 151.812613 195.768375 
L 151.980013 193.05861 
L 152.147413 182.727953 
L 152.314813 186.555243 
L 152.482213 196.282114 
L 152.649613 185.690212 
L 152.817013 187.018993 
L 152.984413 198.847648 
L 153.151813 186.670024 
L 153.319213 192.172032 
L 153.486613 202.985237 
L 153.654013 196.048578 
L 153.821413 194.408315 
L 153.988813 196.371364 
L 154.156213 194.241705 
L 154.323613 195.990042 
L 154.491013 192.026129 
L 154.658413 183.980768 
L 154.825813 192.474443 
L 154.993213 186.667711 
L 155.160613 185.644998 
L 155.328013 191.892662 
L 155.495413 191.031876 
L 155.830213 200.644124 
L 155.997613 193.19289 
L 156.165013 191.247144 
L 156.332413 190.726556 
L 156.667213 197.207761 
L 156.834612 192.465241 
L 157.169412 203.083877 
L 157.504212 189.616065 
L 157.671613 197.28858 
L 157.839012 196.095908 
L 158.006413 186.811049 
L 158.173812 195.009385 
L 158.341213 189.722281 
L 158.508612 196.143958 
L 158.676013 190.774131 
L 158.843412 196.600442 
L 159.010813 189.322065 
L 159.178213 191.77229 
L 159.345612 197.317401 
L 159.513013 191.415876 
L 159.847813 197.746381 
L 160.182613 187.382382 
L 160.350012 195.02676 
L 160.517413 194.006088 
L 160.684812 194.699835 
L 160.852213 198.835483 
L 161.187013 188.855398 
L 161.354412 198.930863 
L 161.521813 200.123344 
L 161.689212 198.840878 
L 162.024012 198.202366 
L 162.191413 199.606527 
L 162.358812 204.614833 
L 162.693613 192.031022 
L 162.861013 207.93491 
L 163.028413 196.181162 
L 163.195813 198.293224 
L 163.363213 207.369152 
L 163.698013 197.972056 
L 163.865413 197.791952 
L 164.032813 200.999459 
L 164.200212 198.394432 
L 164.535012 207.350629 
L 164.702413 198.636625 
L 164.869812 200.270009 
L 165.037213 192.705754 
L 165.204612 204.405007 
L 165.539412 199.091305 
L 165.706813 199.857938 
L 165.874212 197.467708 
L 166.041613 201.619329 
L 166.209013 192.494864 
L 166.376413 208.428255 
L 166.711212 199.011692 
L 166.878613 204.974929 
L 167.213413 200.729554 
L 167.380812 211.773318 
L 167.548213 209.500929 
L 167.715612 200.561171 
L 167.883013 209.428582 
L 168.217813 202.470893 
L 168.385212 211.204566 
L 168.552613 209.580492 
L 168.720012 197.977939 
L 168.887413 215.826396 
L 169.054812 203.670296 
L 169.222213 203.341645 
L 169.389612 205.781348 
L 169.724412 204.8724 
L 169.891813 211.117872 
L 170.226613 204.789303 
L 170.394013 212.020341 
L 170.561413 202.983784 
L 170.728813 207.390366 
L 170.896213 207.795167 
L 171.063613 209.752948 
L 171.231012 215.822259 
L 171.398413 215.315804 
L 171.565812 205.103071 
L 171.733213 209.809797 
L 171.900612 199.293648 
L 172.068013 214.013836 
L 172.402813 202.708787 
L 172.737613 213.038916 
L 172.905012 207.702216 
L 173.239812 218.043748 
L 173.407213 210.762829 
L 173.574613 214.791396 
L 173.742013 212.931888 
L 174.076813 206.726828 
L 174.244213 222.752111 
L 174.746413 202.138681 
L 174.913813 220.396876 
L 175.248613 205.716044 
L 175.583413 209.853151 
L 175.750813 215.471949 
L 175.918213 210.944582 
L 176.085612 210.244295 
L 176.253013 207.6063 
L 176.420412 212.903359 
L 176.587813 212.265585 
L 176.922613 209.821912 
L 177.090013 213.433626 
L 177.257413 219.626366 
L 177.424813 218.735763 
L 177.592213 215.855883 
L 177.759613 221.438115 
L 177.927012 212.861617 
L 178.094413 215.480311 
L 178.261812 215.800367 
L 178.429213 211.991659 
L 178.764013 215.518361 
L 178.931412 207.413609 
L 179.098812 214.697405 
L 179.266212 214.336361 
L 179.433612 216.545581 
L 179.601012 214.446321 
L 179.768412 222.457101 
L 180.103212 214.327881 
L 180.270612 220.129752 
L 180.438012 219.148706 
L 180.605412 218.95849 
L 180.772812 209.213635 
L 180.940213 213.581757 
L 181.107612 221.843929 
L 181.442412 213.836213 
L 181.609813 222.301842 
L 181.777212 215.657527 
L 181.944613 216.218406 
L 182.112012 220.817315 
L 182.279413 218.143949 
L 182.446812 207.151272 
L 182.781612 221.260131 
L 182.949013 211.299402 
L 183.116412 215.018371 
L 183.283813 228.820522 
L 183.618613 209.389556 
L 183.786012 210.528195 
L 183.953412 224.577685 
L 184.120812 224.933767 
L 184.288212 215.512266 
L 184.623012 224.71395 
L 184.957812 217.585658 
L 185.125213 225.619257 
L 185.292612 214.941689 
L 185.460013 216.133766 
L 185.627412 226.833074 
L 185.794813 217.662035 
L 185.962212 218.034376 
L 186.129613 225.794216 
L 186.297012 217.210854 
L 186.631812 226.454548 
L 186.966612 211.131915 
L 187.134013 223.437887 
L 187.301412 219.652157 
L 187.636212 226.581684 
L 187.971013 221.143302 
L 188.138413 222.38324 
L 188.305813 228.017117 
L 188.473213 224.611508 
L 188.640613 216.6654 
L 188.808012 219.154374 
L 188.975413 224.454906 
L 189.310213 215.504367 
L 189.477612 217.443402 
L 189.645013 214.509268 
L 189.979813 225.318903 
L 190.147212 225.040683 
L 190.314613 210.721082 
L 190.649413 227.889595 
L 190.816812 218.560338 
L 190.984213 219.424369 
L 191.151612 230.720549 
L 191.319013 211.057636 
L 191.486413 225.223795 
L 191.653813 226.463198 
L 191.821213 218.7358 
L 191.988613 216.874975 
L 192.156013 221.054698 
L 192.323413 228.091419 
L 192.658213 224.226168 
L 192.825613 218.827374 
L 192.993013 221.749436 
L 193.160413 222.589556 
L 193.495213 217.31089 
L 193.830013 223.570894 
L 193.997412 224.247877 
L 194.164813 220.584227 
L 194.332212 227.976165 
L 194.667012 218.658678 
L 195.001812 227.238639 
L 195.336613 221.827765 
L 195.504013 215.382261 
L 195.671413 230.49277 
L 196.006213 212.424966 
L 196.173613 222.663271 
L 196.341013 225.93612 
L 196.508413 215.433735 
L 196.675813 218.426403 
L 196.843213 218.013977 
L 197.178013 210.674914 
L 197.345413 217.910642 
L 197.680213 216.210934 
L 197.847613 221.838841 
L 198.182412 204.215899 
L 198.517212 227.030252 
L 198.684613 214.082396 
L 198.852013 215.884536 
L 199.019413 222.809112 
L 199.186813 221.032825 
L 199.354212 224.282013 
L 199.689012 215.805961 
L 199.856413 225.623107 
L 200.191213 212.537417 
L 200.526013 218.00687 
L 200.693412 216.633483 
L 200.860813 221.851525 
L 201.028212 214.151653 
L 201.195612 236.545272 
L 201.530412 213.318879 
L 201.865212 230.071225 
L 202.032612 218.930779 
L 202.200012 216.64683 
L 202.367413 226.509451 
L 202.534812 221.990213 
L 202.702213 224.85691 
L 202.869612 233.524022 
L 203.204412 212.28968 
L 203.539212 232.682706 
L 203.874012 212.262743 
L 204.041413 228.257575 
L 204.208812 225.51502 
L 204.376213 213.614495 
L 204.543612 221.708396 
L 204.711013 222.286983 
L 204.878412 224.980063 
L 205.045813 224.24507 
L 205.380613 219.541458 
L 205.548012 214.024593 
L 205.715413 226.576081 
L 205.882812 219.98286 
L 206.050213 219.539681 
L 206.217613 228.280999 
L 206.385013 226.119868 
L 206.552413 211.849167 
L 206.719813 224.394967 
L 206.887213 228.271467 
L 207.054613 211.902017 
L 207.389413 222.012242 
L 207.556813 226.267764 
L 207.724213 218.078349 
L 207.891613 224.274747 
L 208.059013 222.280661 
L 208.226413 216.251265 
L 208.393813 219.664042 
L 208.561213 218.627486 
L 208.728613 211.005137 
L 209.063413 230.120881 
L 209.230813 219.5228 
L 209.398213 218.065897 
L 209.565613 232.6819 
L 209.900413 211.887707 
L 210.235213 223.709381 
L 210.402612 218.529543 
L 210.570013 222.084572 
L 210.737412 222.707447 
L 210.904812 221.356928 
L 211.072212 219.072613 
L 211.239612 214.572106 
L 211.407012 216.752248 
L 211.574412 213.490444 
L 211.909212 221.756626 
L 212.076612 212.075865 
L 212.244012 213.721482 
L 212.411412 220.471644 
L 212.913612 204.662308 
L 213.081012 215.270278 
L 213.248413 213.356226 
L 213.415812 212.783833 
L 213.583213 214.084825 
L 213.918013 207.32011 
L 214.085412 226.466114 
L 214.420212 208.015294 
L 214.587613 205.111375 
L 214.755012 216.104896 
L 214.922413 206.238639 
L 215.089812 216.288327 
L 215.257213 218.239003 
L 215.592013 211.83913 
L 215.759412 210.75984 
L 215.926813 215.978766 
L 216.094212 205.167199 
L 216.429012 221.239589 
L 216.596413 218.369715 
L 216.763813 205.630388 
L 216.931213 228.110816 
L 217.098613 213.105566 
L 217.266013 212.584261 
L 217.433413 218.533711 
L 217.600813 215.036368 
L 217.768213 203.660715 
L 217.935613 215.987676 
L 218.103013 211.735008 
L 218.270413 203.289741 
L 218.437813 216.955747 
L 218.605213 219.407203 
L 219.107412 205.855772 
L 219.274813 218.986383 
L 219.442212 219.613176 
L 219.609613 209.708375 
L 219.944413 222.649733 
L 220.111812 213.960468 
L 220.279212 211.553535 
L 220.446612 214.954532 
L 220.614013 208.807624 
L 220.948813 224.883796 
L 221.283613 199.253486 
L 221.451012 217.801407 
L 221.618413 216.802486 
L 221.785812 205.891955 
L 221.953213 206.316852 
L 222.120612 211.97344 
L 222.455412 200.181233 
L 222.622813 211.76876 
L 222.790212 207.284883 
L 222.957613 210.619146 
L 223.125012 209.06409 
L 223.292413 205.470287 
L 223.459812 207.531383 
L 223.627213 205.805436 
L 223.794612 214.153965 
L 223.962013 210.790746 
L 224.296813 201.293736 
L 224.464213 209.504549 
L 224.631613 207.951351 
L 224.799013 197.116895 
L 224.966413 216.354404 
L 225.133813 210.428188 
L 225.301213 209.912603 
L 225.468613 213.419486 
L 225.803413 209.51309 
L 225.970813 202.806054 
L 226.305613 218.739082 
L 226.473013 205.964605 
L 226.640413 214.039514 
L 226.807813 213.137024 
L 226.975213 205.242223 
L 227.310013 209.060029 
L 227.477413 195.915747 
L 227.812213 217.110066 
L 227.979613 203.545162 
L 228.147012 202.985353 
L 228.314413 212.708187 
L 228.481812 210.923559 
L 228.649213 206.001194 
L 228.816612 207.897074 
L 228.984013 208.521068 
L 229.151412 211.532917 
L 229.486212 210.365576 
L 229.821012 200.925219 
L 229.988413 213.233398 
L 230.155812 211.271305 
L 230.490612 199.02835 
L 230.658013 219.087406 
L 230.992813 201.396266 
L 231.160213 211.502198 
L 231.495013 210.104288 
L 231.662412 204.100534 
L 231.829813 215.356811 
L 231.997212 205.540551 
L 232.164613 204.04012 
L 232.332012 216.889048 
L 232.666812 204.823607 
L 232.834213 211.659037 
L 233.001612 211.931921 
L 233.169013 203.739261 
L 233.336412 204.744019 
L 233.503813 212.198386 
L 233.671212 205.327254 
L 233.838613 205.410508 
L 234.006012 210.503395 
L 234.340812 206.146755 
L 234.508213 199.97087 
L 234.843013 215.916859 
L 235.010413 206.091375 
L 235.177813 213.846291 
L 235.345213 213.856213 
L 235.512613 205.621228 
L 235.680013 205.009222 
L 235.847413 210.245448 
L 236.014812 207.529825 
L 236.182213 201.417444 
L 236.349612 218.172891 
L 236.684412 193.351102 
L 236.851813 206.049903 
L 237.019212 204.458897 
L 237.186613 199.176104 
L 237.354012 198.569582 
L 237.521412 208.719946 
L 237.688812 199.809667 
L 237.856212 202.187501 
L 238.023612 212.199397 
L 238.191012 198.920484 
L 238.358412 204.742561 
L 238.525813 203.510964 
L 238.693212 214.672031 
L 238.860613 209.333362 
L 239.028012 197.49947 
L 239.195413 212.212467 
L 239.362812 213.728525 
L 239.697612 199.443717 
L 239.865013 212.515646 
L 240.032412 199.328371 
L 240.199813 197.988987 
L 240.367212 214.127688 
L 240.534613 203.492143 
L 240.869413 197.812168 
L 241.036812 206.016596 
L 241.204213 207.692772 
L 241.371612 203.728451 
L 241.539013 211.232617 
L 241.706412 203.06108 
L 241.873813 201.097623 
L 242.041213 202.306487 
L 242.208613 212.227369 
L 242.543413 192.411831 
L 242.710813 208.219413 
L 242.878213 198.233926 
L 243.045613 198.819626 
L 243.213013 201.043165 
L 243.380413 194.945737 
L 243.547813 207.610659 
L 243.715213 201.158122 
L 243.882613 203.127251 
L 244.050013 201.63465 
L 244.217413 195.109714 
L 244.552213 205.236234 
L 244.887013 202.458072 
L 245.054413 202.048077 
L 245.221813 206.906392 
L 245.556613 196.103968 
L 245.724012 201.337415 
L 245.891413 199.753025 
L 246.058812 204.158019 
L 246.226213 205.169292 
L 246.561013 200.040591 
L 246.728412 206.85747 
L 246.895813 206.260118 
L 247.063212 207.727761 
L 247.230613 215.518647 
L 247.565413 202.754275 
L 247.732812 209.876441 
L 247.900213 206.837157 
L 248.067612 198.861035 
L 248.235013 206.717988 
L 248.402412 202.284755 
L 248.569813 202.185819 
L 248.737212 200.623446 
L 248.904613 194.27733 
L 249.239413 206.293147 
L 249.406813 203.966434 
L 249.574213 205.502529 
L 249.741613 204.625642 
L 249.909013 199.95691 
L 250.076413 199.047614 
L 250.243813 204.891775 
L 250.411213 197.857865 
L 250.746013 213.052701 
L 250.913413 206.142101 
L 251.080813 206.980276 
L 251.248213 202.59758 
L 251.415613 201.881282 
L 251.583013 197.473962 
L 251.917813 205.111928 
L 252.252613 201.646677 
L 252.420013 205.861773 
L 252.587413 200.573505 
L 252.754813 201.544486 
L 252.922213 205.823425 
L 253.089613 203.615709 
L 253.257013 206.065264 
L 253.591812 206.610419 
L 253.759213 206.497735 
L 254.094013 199.01297 
L 254.261412 218.356889 
L 254.428813 203.532419 
L 254.596212 201.371106 
L 254.763613 214.391833 
L 255.098412 202.043145 
L 255.265812 216.188383 
L 255.600612 200.784867 
L 255.768012 205.657106 
L 255.935412 206.762713 
L 256.102813 204.705488 
L 256.437613 213.34911 
L 256.772413 208.740541 
L 256.939813 198.957407 
L 257.107213 211.65178 
L 257.274612 210.038565 
L 257.442013 205.880376 
L 257.609413 211.184374 
L 257.776813 207.829481 
L 257.944212 200.036591 
L 258.279013 212.966482 
L 258.613812 207.609616 
L 258.781213 207.457832 
L 259.283412 220.002497 
L 259.450813 216.818615 
L 259.618213 216.94991 
L 259.785613 209.652304 
L 259.953012 212.801051 
L 260.120413 208.496259 
L 260.455213 217.308012 
L 260.622613 214.87964 
L 260.790013 219.00327 
L 260.957413 209.010328 
L 261.124813 209.113422 
L 261.292213 213.824808 
L 261.459613 209.036587 
L 261.627013 210.621272 
L 261.794413 214.994351 
L 261.961813 213.748768 
L 262.129213 206.576469 
L 262.296613 207.001254 
L 262.464013 197.002501 
L 262.631413 214.637481 
L 262.798813 215.159838 
L 262.966212 205.665325 
L 263.301013 212.697258 
L 263.468413 209.151872 
L 263.635812 211.516714 
L 263.803213 208.385794 
L 263.970613 193.327727 
L 264.138013 209.337331 
L 264.305412 206.885689 
L 264.472813 206.600621 
L 264.640213 202.535259 
L 264.975012 212.327812 
L 265.142413 212.616598 
L 265.309813 201.039313 
L 265.644612 213.631184 
L 265.979413 205.897508 
L 266.146813 204.884365 
L 266.481613 215.944896 
L 266.816413 206.88295 
L 266.983812 208.542244 
L 267.151213 207.682859 
L 267.318613 204.904529 
L 267.486013 209.971326 
L 267.820813 212.045626 
L 267.988213 217.455705 
L 268.155613 200.446889 
L 268.323013 200.877979 
L 268.490413 215.978091 
L 268.657813 213.177182 
L 268.825213 207.97088 
L 269.160013 214.469483 
L 269.327413 205.576688 
L 269.494813 216.285187 
L 269.662213 209.153191 
L 269.829613 206.922955 
L 269.997013 212.61187 
L 270.164413 210.800753 
L 270.331813 202.382602 
L 270.499213 210.290096 
L 270.666613 211.65123 
L 270.834013 203.500614 
L 271.168813 213.867879 
L 271.503613 216.816222 
L 271.838413 206.690448 
L 272.005813 218.284475 
L 272.340613 203.282153 
L 272.508013 212.267263 
L 272.675412 203.755453 
L 273.010213 215.504226 
L 273.177613 208.300744 
L 273.345012 212.278878 
L 273.512413 219.719587 
L 273.679813 205.394544 
L 274.014612 221.412011 
L 274.349413 207.112758 
L 274.516813 210.628959 
L 274.684213 210.631411 
L 275.019013 218.837867 
L 275.353813 212.632402 
L 275.521212 217.230882 
L 275.688613 214.742986 
L 275.856013 215.680418 
L 276.190812 223.254345 
L 276.358213 219.012089 
L 276.525613 217.965461 
L 276.860412 220.974775 
L 277.195213 214.619717 
L 277.362613 209.219001 
L 277.530012 226.30138 
L 277.697413 217.145897 
L 277.864813 219.894286 
L 278.032213 218.611815 
L 278.199613 221.643599 
L 278.367013 222.467285 
L 278.534413 225.18146 
L 278.701813 212.141484 
L 278.869213 227.83479 
L 279.036613 214.532065 
L 279.204013 212.997773 
L 279.538813 226.912033 
L 279.706213 216.90792 
L 279.873613 216.540797 
L 280.208413 224.158033 
L 280.375813 223.205265 
L 280.543212 223.244533 
L 280.710613 217.451004 
L 280.878013 221.234559 
L 281.212812 217.018644 
L 281.380213 220.626091 
L 281.547613 227.892494 
L 281.715013 223.024766 
L 282.049813 221.03874 
L 282.217213 220.824464 
L 282.384613 225.538581 
L 282.552012 226.962871 
L 282.719413 221.113818 
L 283.054213 227.371967 
L 283.221612 225.554496 
L 283.389013 221.378736 
L 283.556413 234.695309 
L 283.891212 224.121766 
L 284.058613 224.963917 
L 284.393413 229.563799 
L 284.560812 227.490404 
L 284.728213 231.02816 
L 285.063013 221.917916 
L 285.230412 223.743487 
L 285.565213 217.371307 
L 285.900013 228.104375 
L 286.234813 221.464434 
L 286.402213 232.441233 
L 286.737013 220.585682 
L 287.071813 229.515874 
L 287.239213 228.981096 
L 287.406613 218.875568 
L 287.574013 220.649053 
L 287.741413 223.97047 
L 287.908813 219.00109 
L 288.076213 230.024917 
L 288.411013 216.91737 
L 288.578413 232.489045 
L 288.745813 225.637891 
L 288.913213 213.120339 
L 289.080613 226.708221 
L 289.248013 228.57525 
L 289.415413 221.226144 
L 289.582813 227.283624 
L 289.750213 228.391634 
L 289.917613 227.089842 
L 290.085013 221.427004 
L 290.252412 227.429254 
L 290.419813 227.746442 
L 290.587213 228.976885 
L 290.754613 222.214106 
L 290.922012 220.407602 
L 291.089413 224.688126 
L 291.256813 220.795509 
L 291.424213 226.571515 
L 291.591612 226.309447 
L 291.759013 224.900724 
L 291.926413 227.659057 
L 292.093813 225.676178 
L 292.261212 214.134698 
L 292.428613 212.993521 
L 292.596013 223.014501 
L 292.763413 225.038013 
L 292.930813 213.406512 
L 293.098213 225.735252 
L 293.265613 221.644224 
L 293.433013 212.939856 
L 293.600413 232.116437 
L 293.935213 217.761175 
L 294.102613 218.089531 
L 294.270013 220.960648 
L 294.437413 217.961453 
L 294.604813 220.971463 
L 294.772213 227.272431 
L 294.939613 217.279754 
L 295.274413 226.096251 
L 295.441813 226.442533 
L 295.776612 219.291757 
L 295.944013 226.740109 
L 296.111413 222.902248 
L 296.278813 210.57756 
L 296.446213 224.890853 
L 296.613613 213.602391 
L 296.948413 219.090093 
L 297.115813 216.968118 
L 297.283213 217.291024 
L 297.450613 211.981455 
L 297.618013 212.456598 
L 297.785413 222.375262 
L 297.952813 213.376763 
L 298.120213 217.545405 
L 298.287613 211.860965 
L 298.455013 219.082431 
L 298.622413 210.97971 
L 298.789813 219.352564 
L 298.957213 219.949725 
L 299.124613 214.074327 
L 299.292013 222.417628 
L 299.459413 220.524895 
L 299.626813 212.014065 
L 299.794213 219.213069 
L 299.961613 217.400879 
L 300.129013 223.642691 
L 300.296413 217.187412 
L 300.463813 218.708012 
L 300.631213 218.348671 
L 300.798613 206.589236 
L 300.966013 220.722565 
L 301.133413 218.872219 
L 301.300813 215.073556 
L 301.468213 218.380962 
L 301.635613 213.2364 
L 301.803013 217.122961 
L 301.970413 224.185228 
L 302.472613 216.822101 
L 302.640013 217.901332 
L 302.807412 211.072853 
L 302.974813 213.625912 
L 303.142213 211.406383 
L 303.309613 218.913776 
L 303.477013 215.34701 
L 303.644413 206.400186 
L 303.811813 222.005916 
L 304.146613 209.741865 
L 304.314013 229.536341 
L 304.648813 208.150709 
L 304.816213 217.08393 
L 304.983613 213.724551 
L 305.318413 215.316491 
L 305.485813 212.870093 
L 305.653213 216.051377 
L 305.988013 224.807699 
L 306.155413 215.843795 
L 306.322813 218.751696 
L 306.490213 211.699116 
L 306.657613 220.633511 
L 306.825013 216.125952 
L 306.992413 206.247481 
L 307.327213 221.142939 
L 307.662013 206.123383 
L 307.829413 225.250391 
L 307.996813 219.872753 
L 308.164213 210.806955 
L 308.331613 221.83033 
L 308.499013 225.448697 
L 308.666413 219.156265 
L 308.833813 223.516577 
L 309.168613 208.723241 
L 309.336013 221.557536 
L 309.503413 224.413915 
L 309.670813 210.346876 
L 309.838213 212.415585 
L 310.005613 219.631092 
L 310.173013 208.55964 
L 310.340413 215.57802 
L 310.507813 217.619599 
L 310.675213 214.381243 
L 310.842613 223.393672 
L 311.010013 209.171215 
L 311.344813 219.502173 
L 311.512213 213.368831 
L 311.679613 229.129743 
L 311.847013 216.344353 
L 312.014413 214.895923 
L 312.181813 228.659817 
L 312.516613 210.792843 
L 312.851413 227.732739 
L 313.186213 210.480151 
L 313.353613 217.152888 
L 313.521013 213.172542 
L 313.688413 213.475997 
L 313.855813 213.160424 
L 314.190613 219.200562 
L 314.358013 214.390207 
L 314.525413 215.992154 
L 314.692813 210.334447 
L 314.860213 211.72754 
L 315.027613 223.437717 
L 315.195013 212.777034 
L 315.362413 215.094745 
L 315.529813 202.040136 
L 315.697213 211.387001 
L 315.864613 209.961015 
L 316.032013 201.025692 
L 316.199413 217.728369 
L 316.366813 206.056904 
L 316.534213 205.953853 
L 316.701613 201.306704 
L 317.036413 212.996957 
L 317.203813 206.010266 
L 317.371213 210.781291 
L 317.538613 204.412865 
L 317.706013 214.324512 
L 317.873413 214.479039 
L 318.040813 211.857238 
L 318.208213 212.313862 
L 318.375613 207.318639 
L 318.710413 220.265061 
L 318.877813 210.280577 
L 319.045213 218.533383 
L 319.212613 220.201728 
L 319.547413 208.478806 
L 319.714812 216.441995 
L 320.049613 208.061556 
L 320.217013 215.180202 
L 320.384412 208.797098 
L 320.719213 222.683602 
L 320.886613 205.856719 
L 321.054012 214.494574 
L 321.221413 206.443177 
L 321.556213 215.10102 
L 321.723613 204.655781 
L 321.891013 216.663816 
L 322.058413 213.028451 
L 322.225813 213.795178 
L 322.560613 222.054839 
L 322.728013 215.521698 
L 322.895413 203.087664 
L 323.062813 220.150167 
L 323.230213 210.16235 
L 323.397613 208.887444 
L 323.565013 220.681129 
L 323.899813 210.109262 
L 324.067213 215.877617 
L 324.234613 217.293547 
L 324.569413 202.321584 
L 324.736813 224.966239 
L 324.904213 212.90277 
L 325.071613 210.511636 
L 325.239013 222.403966 
L 325.406413 212.201672 
L 325.573813 221.326864 
L 325.741213 210.200125 
L 325.908613 210.921036 
L 326.076013 217.562844 
L 326.243413 211.19561 
L 326.410813 209.631309 
L 326.578213 220.799066 
L 326.913013 214.518801 
L 327.080413 217.532123 
L 327.247813 207.062423 
L 327.415213 205.367993 
L 327.582613 225.197088 
L 327.917413 205.517826 
L 328.084813 220.591988 
L 328.252213 213.823709 
L 328.419613 212.322982 
L 328.587013 218.506476 
L 328.754413 215.011725 
L 328.921813 223.673231 
L 329.089213 221.174872 
L 329.256613 216.428576 
L 329.591413 219.632956 
L 329.758813 226.234457 
L 330.093613 208.99571 
L 330.261013 216.09224 
L 330.428413 218.324064 
L 330.595813 213.528323 
L 330.763213 213.937612 
L 330.930613 225.963682 
L 331.098013 215.505504 
L 331.265413 221.099252 
L 331.432813 221.608927 
L 331.600213 226.611143 
L 331.767613 218.707279 
L 331.935013 218.668507 
L 332.102413 228.219486 
L 332.269813 215.557254 
L 332.437213 218.038098 
L 332.604613 225.872113 
L 332.772013 212.46435 
L 332.939413 220.104686 
L 333.106813 233.434996 
L 333.274213 219.603216 
L 333.441613 225.384912 
L 333.609013 224.224966 
L 333.943813 215.902516 
L 334.111213 218.026092 
L 334.278613 224.199981 
L 334.446013 224.451048 
L 334.780813 218.390233 
L 334.948213 221.075323 
L 335.115613 221.419173 
L 335.283013 225.298634 
L 335.450413 225.361584 
L 335.617813 218.863361 
L 335.785213 225.091224 
L 336.120013 220.87384 
L 336.454813 224.359409 
L 336.622213 217.980518 
L 336.789613 227.328056 
L 336.957013 215.659672 
L 337.124413 225.625253 
L 337.459213 218.773765 
L 337.626613 222.188047 
L 337.794013 223.052722 
L 337.961413 216.944359 
L 338.128813 229.393293 
L 338.631012 218.32812 
L 338.798413 228.918384 
L 339.133213 225.245827 
L 339.300612 229.321533 
L 339.468013 229.751176 
L 339.635413 226.82325 
L 339.802813 227.40056 
L 339.970213 226.862396 
L 340.137613 230.439529 
L 340.305013 223.528704 
L 340.472413 229.678893 
L 340.639813 227.852741 
L 340.807213 229.714681 
L 340.974613 227.545489 
L 341.142013 229.631731 
L 341.309413 225.533654 
L 341.476813 218.348558 
L 341.644213 227.437206 
L 341.811613 224.985643 
L 341.979013 215.935889 
L 342.313813 228.920324 
L 342.481213 221.362655 
L 342.648613 233.485861 
L 342.816013 221.04102 
L 342.983413 219.413117 
L 343.150813 237.792262 
L 343.318213 224.533144 
L 343.485613 220.997786 
L 343.653013 227.281345 
L 343.820413 227.346169 
L 343.987813 225.767382 
L 344.155213 228.389945 
L 344.322613 224.876439 
L 344.490013 226.752047 
L 344.657413 235.996417 
L 344.992213 224.541988 
L 345.159613 224.713067 
L 345.327013 220.865776 
L 345.661813 223.633561 
L 345.829213 220.901325 
L 345.996613 221.647395 
L 346.164013 223.656657 
L 346.331413 230.422653 
L 346.498813 219.433735 
L 346.666213 224.138074 
L 347.001013 214.940665 
L 347.335813 228.306905 
L 347.670613 219.027213 
L 347.838013 218.966897 
L 348.005413 226.360218 
L 348.172813 220.796696 
L 348.507613 225.878252 
L 348.675013 222.974257 
L 348.842413 223.697889 
L 349.344613 215.754704 
L 349.512013 225.362686 
L 349.846813 226.094796 
L 350.014213 225.290224 
L 350.181613 229.547987 
L 350.349013 225.249969 
L 350.516413 227.707791 
L 350.683813 228.429798 
L 350.851213 225.154112 
L 351.018613 230.838759 
L 351.186013 226.034014 
L 351.353413 225.333601 
L 351.520813 235.951423 
L 351.688213 229.057576 
L 351.855613 232.040189 
L 352.023013 223.275834 
L 352.190413 222.280643 
L 352.357813 231.748916 
L 352.525213 227.28449 
L 352.692613 226.866362 
L 352.860013 243.556364 
L 353.027413 225.004424 
L 353.194813 227.745381 
L 353.362213 234.607329 
L 353.529613 230.097766 
L 353.697013 237.486079 
L 353.864413 233.819803 
L 354.031813 226.977892 
L 354.199213 229.968462 
L 354.366613 236.967297 
L 354.701413 226.818203 
L 354.868813 228.807353 
L 355.036213 224.125752 
L 355.203613 232.452372 
L 355.371013 233.862714 
L 355.538413 232.605197 
L 355.705813 230.178093 
L 355.873213 230.426773 
L 356.040613 230.092592 
L 356.208013 235.032162 
L 356.375413 230.392396 
L 356.542813 235.384353 
L 356.710213 226.726645 
L 356.877613 226.330449 
L 357.045013 227.173519 
L 357.212413 224.393261 
L 357.379813 229.073061 
L 357.547213 225.594843 
L 357.714613 232.971761 
L 357.882013 231.245622 
L 358.049413 227.208604 
L 358.216813 241.229905 
L 358.384213 238.995423 
L 358.551613 225.854378 
L 358.719013 234.952812 
L 359.053813 228.209706 
L 359.221213 231.604889 
L 359.388613 225.517424 
L 359.556013 227.097489 
L 359.723413 232.425587 
L 359.890813 233.099738 
L 360.058213 230.322446 
L 360.225613 233.795967 
L 360.393013 233.207913 
L 360.560413 229.444752 
L 360.727813 236.591714 
L 360.895213 235.812255 
L 361.230013 237.935933 
L 361.397413 218.572639 
L 361.732213 236.425055 
L 361.899613 224.923128 
L 362.067013 225.873359 
L 362.234413 231.038232 
L 362.401813 230.098316 
L 362.569213 229.850596 
L 362.736613 233.869883 
L 362.904013 230.666498 
L 363.071413 232.406373 
L 363.238813 235.604749 
L 363.406213 235.547171 
L 363.573613 226.783961 
L 363.741013 233.249823 
L 363.908412 233.780623 
L 364.075813 229.289865 
L 364.243213 235.419919 
L 364.745413 233.386727 
L 364.912813 232.862109 
L 365.080213 237.797213 
L 365.247613 237.892677 
L 365.749813 231.869898 
L 365.917213 224.730158 
L 366.252013 232.947616 
L 366.419413 234.744419 
L 366.586813 227.395839 
L 366.754213 228.791615 
L 366.921613 223.161324 
L 367.089013 239.761227 
L 367.256413 232.518255 
L 367.423813 237.479214 
L 367.591213 233.10075 
L 367.758613 236.705817 
L 367.926013 233.942029 
L 368.093413 233.78436 
L 368.260813 229.645154 
L 368.428213 234.334347 
L 368.763013 225.493324 
L 368.930413 231.651595 
L 369.097813 228.150295 
L 369.265213 238.843413 
L 369.432613 230.317964 
L 369.600013 232.255692 
L 369.767413 240.576816 
L 369.934813 240.015154 
L 370.102213 226.516328 
L 370.437013 232.154629 
L 370.604413 224.058153 
L 370.771813 231.996862 
L 371.106613 231.014967 
L 371.274013 225.449876 
L 371.608813 237.826373 
L 371.776213 237.686723 
L 371.943613 234.924923 
L 372.111013 235.553445 
L 372.278413 234.491152 
L 372.445813 232.348887 
L 372.613213 231.671208 
L 372.780613 232.468803 
L 372.948013 231.524662 
L 373.115413 231.361267 
L 373.282813 231.581075 
L 373.282813 231.581075 
" clip-path="url(#pd6a3a62e1e)" style="fill: none; stroke: #1f77b4; stroke-width: 1.5; stroke-linecap: square"/>
   </g>
   <g id="line2d_19">
    <path d="M 38.650213 56.255852 
L 39.319813 74.281265 
L 39.989413 86.364061 
L 40.659013 94.463401 
L 41.328612 99.892551 
L 41.998213 103.531819 
L 42.667813 105.971293 
L 43.337412 107.606522 
L 44.007013 108.702648 
L 44.676613 109.437404 
L 45.513613 110.025223 
L 46.518012 110.434053 
L 47.857213 110.707896 
L 49.866013 110.864041 
L 54.385813 110.926819 
L 99.249012 110.931342 
L 373.282813 110.931342 
L 373.282813 110.931342 
" clip-path="url(#pd6a3a62e1e)" style="fill: none; stroke: #ff7f0e; stroke-width: 1.5; stroke-linecap: square"/>
   </g>
   <g id="patch_3">
    <path d="M 38.482813 253.44 
L 38.482813 36 
" style="fill: none; stroke: #000000; stroke-width: 0.8; stroke-linejoin: miter; stroke-linecap: square"/>
   </g>
   <g id="patch_4">
    <path d="M 373.282813 253.44 
L 373.282813 36 
" style="fill: none; stroke: #000000; stroke-width: 0.8; stroke-linejoin: miter; stroke-linecap: square"/>
   </g>
   <g id="patch_5">
    <path d="M 38.482813 253.44 
L 373.282813 253.44 
" style="fill: none; stroke: #000000; stroke-width: 0.8; stroke-linejoin: miter; stroke-linecap: square"/>
   </g>
   <g id="patch_6">
    <path d="M 38.482813 36 
L 373.282813 36 
" style="fill: none; stroke: #000000; stroke-width: 0.8; stroke-linejoin: miter; stroke-linecap: square"/>
   </g>
   <g id="legend_1">
    <g id="patch_7">
     <path d="M 316.582813 77.078125 
L 366.282813 77.078125 
Q 368.282813 77.078125 368.282813 75.078125 
L 368.282813 43 
Q 368.282813 41 366.282813 41 
L 316.582813 41 
Q 314.582813 41 314.582813 43 
L 314.582813 75.078125 
Q 314.582813 77.078125 316.582813 77.078125 
z
" style="fill: #ffffff; opacity: 0.8; stroke: #cccccc; stroke-linejoin: miter"/>
    </g>
    <g id="line2d_20">
     <path d="M 318.582813 52.8 
L 328.582813 52.8 
L 338.582813 52.8 
" style="fill: none; stroke: #1f77b4; stroke-width: 1.5; stroke-linecap: square"/>
    </g>
    <g id="text_19">
     <!-- $\hat{y(t)}$ -->
     <g transform="translate(346.582813 56.3) scale(0.1 -0.1)">
      <defs>
       <path id="DejaVuSans-302" d="M -1831 5119 
L -1369 5119 
L -603 3944 
L -1038 3944 
L -1600 4709 
L -2163 3944 
L -2597 3944 
L -1831 5119 
z
M -1600 3584 
L -1600 3584 
z
" transform="scale(0.015625)"/>
       <path id="DejaVuSans-Oblique-79" d="M 1588 -325 
Q 1188 -997 936 -1164 
Q 684 -1331 294 -1331 
L -159 -1331 
L -63 -850 
L 269 -850 
Q 509 -850 678 -719 
Q 847 -588 1056 -206 
L 1234 128 
L 459 3500 
L 1069 3500 
L 1650 819 
L 3256 3500 
L 3859 3500 
L 1588 -325 
z
" transform="scale(0.015625)"/>
       <path id="DejaVuSans-28" d="M 1984 4856 
Q 1566 4138 1362 3434 
Q 1159 2731 1159 2009 
Q 1159 1288 1364 580 
Q 1569 -128 1984 -844 
L 1484 -844 
Q 1016 -109 783 600 
Q 550 1309 550 2009 
Q 550 2706 781 3412 
Q 1013 4119 1484 4856 
L 1984 4856 
z
" transform="scale(0.015625)"/>
       <path id="DejaVuSans-29" d="M 513 4856 
L 1013 4856 
Q 1481 4119 1714 3412 
Q 1947 2706 1947 2009 
Q 1947 1309 1714 600 
Q 1481 -109 1013 -844 
L 513 -844 
Q 928 -128 1133 580 
Q 1338 1288 1338 2009 
Q 1338 2731 1133 3434 
Q 928 4138 513 4856 
z
" transform="scale(0.015625)"/>
      </defs>
      <use xlink:href="#DejaVuSans-302" transform="translate(135.682129 33.015625)"/>
      <use xlink:href="#DejaVuSans-Oblique-79" transform="translate(0 0.640625)"/>
      <use xlink:href="#DejaVuSans-28" transform="translate(59.179688 0.640625)"/>
      <use xlink:href="#DejaVuSans-Oblique-74" transform="translate(98.193359 0.640625)"/>
      <use xlink:href="#DejaVuSans-29" transform="translate(137.402344 0.640625)"/>
     </g>
    </g>
    <g id="line2d_21">
     <path d="M 318.582813 67.498437 
L 328.582813 67.498437 
L 338.582813 67.498437 
" style="fill: none; stroke: #ff7f0e; stroke-width: 1.5; stroke-linecap: square"/>
    </g>
    <g id="text_20">
     <!-- $x(t)$ -->
     <g transform="translate(346.582813 70.998437) scale(0.1 -0.1)">
      <defs>
       <path id="DejaVuSans-Oblique-78" d="M 3841 3500 
L 2234 1784 
L 3219 0 
L 2559 0 
L 1819 1388 
L 531 0 
L -166 0 
L 1556 1844 
L 641 3500 
L 1300 3500 
L 1972 2234 
L 3144 3500 
L 3841 3500 
z
" transform="scale(0.015625)"/>
      </defs>
      <use xlink:href="#DejaVuSans-Oblique-78" transform="translate(0 0.125)"/>
      <use xlink:href="#DejaVuSans-28" transform="translate(59.179688 0.125)"/>
      <use xlink:href="#DejaVuSans-Oblique-74" transform="translate(98.193359 0.125)"/>
      <use xlink:href="#DejaVuSans-29" transform="translate(137.402344 0.125)"/>
     </g>
    </g>
   </g>
  </g>
  <g id="text_21">
   <!-- Accumulate to Threshold model with input of -0.2 with rms=10  -->
   <g transform="translate(9.332188 16.318125) scale(0.12 -0.12)">
    <defs>
     <path id="DejaVuSans-41" d="M 2188 4044 
L 1331 1722 
L 3047 1722 
L 2188 4044 
z
M 1831 4666 
L 2547 4666 
L 4325 0 
L 3669 0 
L 3244 1197 
L 1141 1197 
L 716 0 
L 50 0 
L 1831 4666 
z
" transform="scale(0.015625)"/>
     <path id="DejaVuSans-63" d="M 3122 3366 
L 3122 2828 
Q 2878 2963 2633 3030 
Q 2388 3097 2138 3097 
Q 1578 3097 1268 2742 
Q 959 2388 959 1747 
Q 959 1106 1268 751 
Q 1578 397 2138 397 
Q 2388 397 2633 464 
Q 2878 531 3122 666 
L 3122 134 
Q 2881 22 2623 -34 
Q 2366 -91 2075 -91 
Q 1284 -91 818 406 
Q 353 903 353 1747 
Q 353 2603 823 3093 
Q 1294 3584 2113 3584 
Q 2378 3584 2631 3529 
Q 2884 3475 3122 3366 
z
" transform="scale(0.015625)"/>
     <path id="DejaVuSans-75" d="M 544 1381 
L 544 3500 
L 1119 3500 
L 1119 1403 
Q 1119 906 1312 657 
Q 1506 409 1894 409 
Q 2359 409 2629 706 
Q 2900 1003 2900 1516 
L 2900 3500 
L 3475 3500 
L 3475 0 
L 2900 0 
L 2900 538 
Q 2691 219 2414 64 
Q 2138 -91 1772 -91 
Q 1169 -91 856 284 
Q 544 659 544 1381 
z
M 1991 3584 
L 1991 3584 
z
" transform="scale(0.015625)"/>
     <path id="DejaVuSans-6d" d="M 3328 2828 
Q 3544 3216 3844 3400 
Q 4144 3584 4550 3584 
Q 5097 3584 5394 3201 
Q 5691 2819 5691 2113 
L 5691 0 
L 5113 0 
L 5113 2094 
Q 5113 2597 4934 2840 
Q 4756 3084 4391 3084 
Q 3944 3084 3684 2787 
Q 3425 2491 3425 1978 
L 3425 0 
L 2847 0 
L 2847 2094 
Q 2847 2600 2669 2842 
Q 2491 3084 2119 3084 
Q 1678 3084 1418 2786 
Q 1159 2488 1159 1978 
L 1159 0 
L 581 0 
L 581 3500 
L 1159 3500 
L 1159 2956 
Q 1356 3278 1631 3431 
Q 1906 3584 2284 3584 
Q 2666 3584 2933 3390 
Q 3200 3197 3328 2828 
z
" transform="scale(0.015625)"/>
     <path id="DejaVuSans-6c" d="M 603 4863 
L 1178 4863 
L 1178 0 
L 603 0 
L 603 4863 
z
" transform="scale(0.015625)"/>
     <path id="DejaVuSans-61" d="M 2194 1759 
Q 1497 1759 1228 1600 
Q 959 1441 959 1056 
Q 959 750 1161 570 
Q 1363 391 1709 391 
Q 2188 391 2477 730 
Q 2766 1069 2766 1631 
L 2766 1759 
L 2194 1759 
z
M 3341 1997 
L 3341 0 
L 2766 0 
L 2766 531 
Q 2569 213 2275 61 
Q 1981 -91 1556 -91 
Q 1019 -91 701 211 
Q 384 513 384 1019 
Q 384 1609 779 1909 
Q 1175 2209 1959 2209 
L 2766 2209 
L 2766 2266 
Q 2766 2663 2505 2880 
Q 2244 3097 1772 3097 
Q 1472 3097 1187 3025 
Q 903 2953 641 2809 
L 641 3341 
Q 956 3463 1253 3523 
Q 1550 3584 1831 3584 
Q 2591 3584 2966 3190 
Q 3341 2797 3341 1997 
z
" transform="scale(0.015625)"/>
     <path id="DejaVuSans-74" d="M 1172 4494 
L 1172 3500 
L 2356 3500 
L 2356 3053 
L 1172 3053 
L 1172 1153 
Q 1172 725 1289 603 
Q 1406 481 1766 481 
L 2356 481 
L 2356 0 
L 1766 0 
Q 1100 0 847 248 
Q 594 497 594 1153 
L 594 3053 
L 172 3053 
L 172 3500 
L 594 3500 
L 594 4494 
L 1172 4494 
z
" transform="scale(0.015625)"/>
     <path id="DejaVuSans-65" d="M 3597 1894 
L 3597 1613 
L 953 1613 
Q 991 1019 1311 708 
Q 1631 397 2203 397 
Q 2534 397 2845 478 
Q 3156 559 3463 722 
L 3463 178 
Q 3153 47 2828 -22 
Q 2503 -91 2169 -91 
Q 1331 -91 842 396 
Q 353 884 353 1716 
Q 353 2575 817 3079 
Q 1281 3584 2069 3584 
Q 2775 3584 3186 3129 
Q 3597 2675 3597 1894 
z
M 3022 2063 
Q 3016 2534 2758 2815 
Q 2500 3097 2075 3097 
Q 1594 3097 1305 2825 
Q 1016 2553 972 2059 
L 3022 2063 
z
" transform="scale(0.015625)"/>
     <path id="DejaVuSans-20" transform="scale(0.015625)"/>
     <path id="DejaVuSans-6f" d="M 1959 3097 
Q 1497 3097 1228 2736 
Q 959 2375 959 1747 
Q 959 1119 1226 758 
Q 1494 397 1959 397 
Q 2419 397 2687 759 
Q 2956 1122 2956 1747 
Q 2956 2369 2687 2733 
Q 2419 3097 1959 3097 
z
M 1959 3584 
Q 2709 3584 3137 3096 
Q 3566 2609 3566 1747 
Q 3566 888 3137 398 
Q 2709 -91 1959 -91 
Q 1206 -91 779 398 
Q 353 888 353 1747 
Q 353 2609 779 3096 
Q 1206 3584 1959 3584 
z
" transform="scale(0.015625)"/>
     <path id="DejaVuSans-54" d="M -19 4666 
L 3928 4666 
L 3928 4134 
L 2272 4134 
L 2272 0 
L 1638 0 
L 1638 4134 
L -19 4134 
L -19 4666 
z
" transform="scale(0.015625)"/>
     <path id="DejaVuSans-68" d="M 3513 2113 
L 3513 0 
L 2938 0 
L 2938 2094 
Q 2938 2591 2744 2837 
Q 2550 3084 2163 3084 
Q 1697 3084 1428 2787 
Q 1159 2491 1159 1978 
L 1159 0 
L 581 0 
L 581 4863 
L 1159 4863 
L 1159 2956 
Q 1366 3272 1645 3428 
Q 1925 3584 2291 3584 
Q 2894 3584 3203 3211 
Q 3513 2838 3513 2113 
z
" transform="scale(0.015625)"/>
     <path id="DejaVuSans-72" d="M 2631 2963 
Q 2534 3019 2420 3045 
Q 2306 3072 2169 3072 
Q 1681 3072 1420 2755 
Q 1159 2438 1159 1844 
L 1159 0 
L 581 0 
L 581 3500 
L 1159 3500 
L 1159 2956 
Q 1341 3275 1631 3429 
Q 1922 3584 2338 3584 
Q 2397 3584 2469 3576 
Q 2541 3569 2628 3553 
L 2631 2963 
z
" transform="scale(0.015625)"/>
     <path id="DejaVuSans-73" d="M 2834 3397 
L 2834 2853 
Q 2591 2978 2328 3040 
Q 2066 3103 1784 3103 
Q 1356 3103 1142 2972 
Q 928 2841 928 2578 
Q 928 2378 1081 2264 
Q 1234 2150 1697 2047 
L 1894 2003 
Q 2506 1872 2764 1633 
Q 3022 1394 3022 966 
Q 3022 478 2636 193 
Q 2250 -91 1575 -91 
Q 1294 -91 989 -36 
Q 684 19 347 128 
L 347 722 
Q 666 556 975 473 
Q 1284 391 1588 391 
Q 1994 391 2212 530 
Q 2431 669 2431 922 
Q 2431 1156 2273 1281 
Q 2116 1406 1581 1522 
L 1381 1569 
Q 847 1681 609 1914 
Q 372 2147 372 2553 
Q 372 3047 722 3315 
Q 1072 3584 1716 3584 
Q 2034 3584 2315 3537 
Q 2597 3491 2834 3397 
z
" transform="scale(0.015625)"/>
     <path id="DejaVuSans-64" d="M 2906 2969 
L 2906 4863 
L 3481 4863 
L 3481 0 
L 2906 0 
L 2906 525 
Q 2725 213 2448 61 
Q 2172 -91 1784 -91 
Q 1150 -91 751 415 
Q 353 922 353 1747 
Q 353 2572 751 3078 
Q 1150 3584 1784 3584 
Q 2172 3584 2448 3432 
Q 2725 3281 2906 2969 
z
M 947 1747 
Q 947 1113 1208 752 
Q 1469 391 1925 391 
Q 2381 391 2643 752 
Q 2906 1113 2906 1747 
Q 2906 2381 2643 2742 
Q 2381 3103 1925 3103 
Q 1469 3103 1208 2742 
Q 947 2381 947 1747 
z
" transform="scale(0.015625)"/>
     <path id="DejaVuSans-77" d="M 269 3500 
L 844 3500 
L 1563 769 
L 2278 3500 
L 2956 3500 
L 3675 769 
L 4391 3500 
L 4966 3500 
L 4050 0 
L 3372 0 
L 2619 2869 
L 1863 0 
L 1184 0 
L 269 3500 
z
" transform="scale(0.015625)"/>
     <path id="DejaVuSans-69" d="M 603 3500 
L 1178 3500 
L 1178 0 
L 603 0 
L 603 3500 
z
M 603 4863 
L 1178 4863 
L 1178 4134 
L 603 4134 
L 603 4863 
z
" transform="scale(0.015625)"/>
     <path id="DejaVuSans-6e" d="M 3513 2113 
L 3513 0 
L 2938 0 
L 2938 2094 
Q 2938 2591 2744 2837 
Q 2550 3084 2163 3084 
Q 1697 3084 1428 2787 
Q 1159 2491 1159 1978 
L 1159 0 
L 581 0 
L 581 3500 
L 1159 3500 
L 1159 2956 
Q 1366 3272 1645 3428 
Q 1925 3584 2291 3584 
Q 2894 3584 3203 3211 
Q 3513 2838 3513 2113 
z
" transform="scale(0.015625)"/>
     <path id="DejaVuSans-70" d="M 1159 525 
L 1159 -1331 
L 581 -1331 
L 581 3500 
L 1159 3500 
L 1159 2969 
Q 1341 3281 1617 3432 
Q 1894 3584 2278 3584 
Q 2916 3584 3314 3078 
Q 3713 2572 3713 1747 
Q 3713 922 3314 415 
Q 2916 -91 2278 -91 
Q 1894 -91 1617 61 
Q 1341 213 1159 525 
z
M 3116 1747 
Q 3116 2381 2855 2742 
Q 2594 3103 2138 3103 
Q 1681 3103 1420 2742 
Q 1159 2381 1159 1747 
Q 1159 1113 1420 752 
Q 1681 391 2138 391 
Q 2594 391 2855 752 
Q 3116 1113 3116 1747 
z
" transform="scale(0.015625)"/>
     <path id="DejaVuSans-66" d="M 2375 4863 
L 2375 4384 
L 1825 4384 
Q 1516 4384 1395 4259 
Q 1275 4134 1275 3809 
L 1275 3500 
L 2222 3500 
L 2222 3053 
L 1275 3053 
L 1275 0 
L 697 0 
L 697 3053 
L 147 3053 
L 147 3500 
L 697 3500 
L 697 3744 
Q 697 4328 969 4595 
Q 1241 4863 1831 4863 
L 2375 4863 
z
" transform="scale(0.015625)"/>
     <path id="DejaVuSans-2d" d="M 313 2009 
L 1997 2009 
L 1997 1497 
L 313 1497 
L 313 2009 
z
" transform="scale(0.015625)"/>
     <path id="DejaVuSans-3d" d="M 678 2906 
L 4684 2906 
L 4684 2381 
L 678 2381 
L 678 2906 
z
M 678 1631 
L 4684 1631 
L 4684 1100 
L 678 1100 
L 678 1631 
z
" transform="scale(0.015625)"/>
    </defs>
    <use xlink:href="#DejaVuSans-41"/>
    <use xlink:href="#DejaVuSans-63" x="66.658203"/>
    <use xlink:href="#DejaVuSans-63" x="121.638672"/>
    <use xlink:href="#DejaVuSans-75" x="176.619141"/>
    <use xlink:href="#DejaVuSans-6d" x="239.998047"/>
    <use xlink:href="#DejaVuSans-75" x="337.410156"/>
    <use xlink:href="#DejaVuSans-6c" x="400.789062"/>
    <use xlink:href="#DejaVuSans-61" x="428.572266"/>
    <use xlink:href="#DejaVuSans-74" x="489.851562"/>
    <use xlink:href="#DejaVuSans-65" x="529.060547"/>
    <use xlink:href="#DejaVuSans-20" x="590.583984"/>
    <use xlink:href="#DejaVuSans-74" x="622.371094"/>
    <use xlink:href="#DejaVuSans-6f" x="661.580078"/>
    <use xlink:href="#DejaVuSans-20" x="722.761719"/>
    <use xlink:href="#DejaVuSans-54" x="754.548828"/>
    <use xlink:href="#DejaVuSans-68" x="815.632812"/>
    <use xlink:href="#DejaVuSans-72" x="879.011719"/>
    <use xlink:href="#DejaVuSans-65" x="917.875"/>
    <use xlink:href="#DejaVuSans-73" x="979.398438"/>
    <use xlink:href="#DejaVuSans-68" x="1031.498047"/>
    <use xlink:href="#DejaVuSans-6f" x="1094.876953"/>
    <use xlink:href="#DejaVuSans-6c" x="1156.058594"/>
    <use xlink:href="#DejaVuSans-64" x="1183.841797"/>
    <use xlink:href="#DejaVuSans-20" x="1247.318359"/>
    <use xlink:href="#DejaVuSans-6d" x="1279.105469"/>
    <use xlink:href="#DejaVuSans-6f" x="1376.517578"/>
    <use xlink:href="#DejaVuSans-64" x="1437.699219"/>
    <use xlink:href="#DejaVuSans-65" x="1501.175781"/>
    <use xlink:href="#DejaVuSans-6c" x="1562.699219"/>
    <use xlink:href="#DejaVuSans-20" x="1590.482422"/>
    <use xlink:href="#DejaVuSans-77" x="1622.269531"/>
    <use xlink:href="#DejaVuSans-69" x="1704.056641"/>
    <use xlink:href="#DejaVuSans-74" x="1731.839844"/>
    <use xlink:href="#DejaVuSans-68" x="1771.048828"/>
    <use xlink:href="#DejaVuSans-20" x="1834.427734"/>
    <use xlink:href="#DejaVuSans-69" x="1866.214844"/>
    <use xlink:href="#DejaVuSans-6e" x="1893.998047"/>
    <use xlink:href="#DejaVuSans-70" x="1957.376953"/>
    <use xlink:href="#DejaVuSans-75" x="2020.853516"/>
    <use xlink:href="#DejaVuSans-74" x="2084.232422"/>
    <use xlink:href="#DejaVuSans-20" x="2123.441406"/>
    <use xlink:href="#DejaVuSans-6f" x="2155.228516"/>
    <use xlink:href="#DejaVuSans-66" x="2216.410156"/>
    <use xlink:href="#DejaVuSans-20" x="2251.615234"/>
    <use xlink:href="#DejaVuSans-2d" x="2283.402344"/>
    <use xlink:href="#DejaVuSans-30" x="2319.486328"/>
    <use xlink:href="#DejaVuSans-2e" x="2383.109375"/>
    <use xlink:href="#DejaVuSans-32" x="2414.896484"/>
    <use xlink:href="#DejaVuSans-20" x="2478.519531"/>
    <use xlink:href="#DejaVuSans-77" x="2510.306641"/>
    <use xlink:href="#DejaVuSans-69" x="2592.09375"/>
    <use xlink:href="#DejaVuSans-74" x="2619.876953"/>
    <use xlink:href="#DejaVuSans-68" x="2659.085938"/>
    <use xlink:href="#DejaVuSans-20" x="2722.464844"/>
    <use xlink:href="#DejaVuSans-72" x="2754.251953"/>
    <use xlink:href="#DejaVuSans-6d" x="2793.615234"/>
    <use xlink:href="#DejaVuSans-73" x="2891.027344"/>
    <use xlink:href="#DejaVuSans-3d" x="2943.126953"/>
    <use xlink:href="#DejaVuSans-31" x="3026.916016"/>
    <use xlink:href="#DejaVuSans-30" x="3090.539062"/>
    <use xlink:href="#DejaVuSans-20" x="3154.162109"/>
   </g>
  </g>
 </g>
 <defs>
  <clipPath id="pd6a3a62e1e">
   <rect x="38.482813" y="36" width="334.8" height="217.44"/>
  </clipPath>
 </defs>
</svg>
