<?xml version="1.0" encoding="utf-8" standalone="no"?>
<!DOCTYPE svg PUBLIC "-//W3C//DTD SVG 1.1//EN"
  "http://www.w3.org/Graphics/SVG/1.1/DTD/svg11.dtd">
<svg xmlns:xlink="http://www.w3.org/1999/xlink" width="390.834062pt" height="277.318125pt" viewBox="0 0 390.834062 277.318125" xmlns="http://www.w3.org/2000/svg" version="1.1">
 <metadata>
  <rdf:RDF xmlns:dc="http://purl.org/dc/elements/1.1/" xmlns:cc="http://creativecommons.org/ns#" xmlns:rdf="http://www.w3.org/1999/02/22-rdf-syntax-ns#">
   <cc:Work>
    <dc:type rdf:resource="http://purl.org/dc/dcmitype/StillImage"/>
    <dc:date>2022-11-17T20:29:58.670422</dc:date>
    <dc:format>image/svg+xml</dc:format>
    <dc:creator>
     <cc:Agent>
      <dc:title>Matplotlib v3.6.0, https://matplotlib.org/</dc:title>
     </cc:Agent>
    </dc:creator>
   </cc:Work>
  </rdf:RDF>
 </metadata>
 <defs>
  <style type="text/css">*{stroke-linejoin: round; stroke-linecap: butt}</style>
 </defs>
 <g id="figure_1">
  <g id="patch_1">
   <path d="M 0 277.318125 
L 390.834062 277.318125 
L 390.834062 0 
L 0 0 
L 0 277.318125 
z
" style="fill: none"/>
  </g>
  <g id="axes_1">
   <g id="patch_2">
    <path d="M 36.465625 253.44 
L 371.265625 253.44 
L 371.265625 36 
L 36.465625 36 
z
" style="fill: #ffffff"/>
   </g>
   <g id="matplotlib.axis_1">
    <g id="xtick_1">
     <g id="line2d_1">
      <defs>
       <path id="md3f89d9dba" d="M 0 0 
L 0 3.5 
" style="stroke: #000000; stroke-width: 0.8"/>
      </defs>
      <g>
       <use xlink:href="#md3f89d9dba" x="36.465625" y="253.44" style="stroke: #000000; stroke-width: 0.8"/>
      </g>
     </g>
     <g id="text_1">
      <!-- 0.00 -->
      <g transform="translate(25.332813 268.038437) scale(0.1 -0.1)">
       <defs>
        <path id="DejaVuSans-30" d="M 2034 4250 
Q 1547 4250 1301 3770 
Q 1056 3291 1056 2328 
Q 1056 1369 1301 889 
Q 1547 409 2034 409 
Q 2525 409 2770 889 
Q 3016 1369 3016 2328 
Q 3016 3291 2770 3770 
Q 2525 4250 2034 4250 
z
M 2034 4750 
Q 2819 4750 3233 4129 
Q 3647 3509 3647 2328 
Q 3647 1150 3233 529 
Q 2819 -91 2034 -91 
Q 1250 -91 836 529 
Q 422 1150 422 2328 
Q 422 3509 836 4129 
Q 1250 4750 2034 4750 
z
" transform="scale(0.015625)"/>
        <path id="DejaVuSans-2e" d="M 684 794 
L 1344 794 
L 1344 0 
L 684 0 
L 684 794 
z
" transform="scale(0.015625)"/>
       </defs>
       <use xlink:href="#DejaVuSans-30"/>
       <use xlink:href="#DejaVuSans-2e" x="63.623047"/>
       <use xlink:href="#DejaVuSans-30" x="95.410156"/>
       <use xlink:href="#DejaVuSans-30" x="159.033203"/>
      </g>
     </g>
    </g>
    <g id="xtick_2">
     <g id="line2d_2">
      <g>
       <use xlink:href="#md3f89d9dba" x="78.315625" y="253.44" style="stroke: #000000; stroke-width: 0.8"/>
      </g>
     </g>
     <g id="text_2">
      <!-- 0.25 -->
      <g transform="translate(67.182813 268.038437) scale(0.1 -0.1)">
       <defs>
        <path id="DejaVuSans-32" d="M 1228 531 
L 3431 531 
L 3431 0 
L 469 0 
L 469 531 
Q 828 903 1448 1529 
Q 2069 2156 2228 2338 
Q 2531 2678 2651 2914 
Q 2772 3150 2772 3378 
Q 2772 3750 2511 3984 
Q 2250 4219 1831 4219 
Q 1534 4219 1204 4116 
Q 875 4013 500 3803 
L 500 4441 
Q 881 4594 1212 4672 
Q 1544 4750 1819 4750 
Q 2544 4750 2975 4387 
Q 3406 4025 3406 3419 
Q 3406 3131 3298 2873 
Q 3191 2616 2906 2266 
Q 2828 2175 2409 1742 
Q 1991 1309 1228 531 
z
" transform="scale(0.015625)"/>
        <path id="DejaVuSans-35" d="M 691 4666 
L 3169 4666 
L 3169 4134 
L 1269 4134 
L 1269 2991 
Q 1406 3038 1543 3061 
Q 1681 3084 1819 3084 
Q 2600 3084 3056 2656 
Q 3513 2228 3513 1497 
Q 3513 744 3044 326 
Q 2575 -91 1722 -91 
Q 1428 -91 1123 -41 
Q 819 9 494 109 
L 494 744 
Q 775 591 1075 516 
Q 1375 441 1709 441 
Q 2250 441 2565 725 
Q 2881 1009 2881 1497 
Q 2881 1984 2565 2268 
Q 2250 2553 1709 2553 
Q 1456 2553 1204 2497 
Q 953 2441 691 2322 
L 691 4666 
z
" transform="scale(0.015625)"/>
       </defs>
       <use xlink:href="#DejaVuSans-30"/>
       <use xlink:href="#DejaVuSans-2e" x="63.623047"/>
       <use xlink:href="#DejaVuSans-32" x="95.410156"/>
       <use xlink:href="#DejaVuSans-35" x="159.033203"/>
      </g>
     </g>
    </g>
    <g id="xtick_3">
     <g id="line2d_3">
      <g>
       <use xlink:href="#md3f89d9dba" x="120.165625" y="253.44" style="stroke: #000000; stroke-width: 0.8"/>
      </g>
     </g>
     <g id="text_3">
      <!-- 0.50 -->
      <g transform="translate(109.032813 268.038437) scale(0.1 -0.1)">
       <use xlink:href="#DejaVuSans-30"/>
       <use xlink:href="#DejaVuSans-2e" x="63.623047"/>
       <use xlink:href="#DejaVuSans-35" x="95.410156"/>
       <use xlink:href="#DejaVuSans-30" x="159.033203"/>
      </g>
     </g>
    </g>
    <g id="xtick_4">
     <g id="line2d_4">
      <g>
       <use xlink:href="#md3f89d9dba" x="162.015625" y="253.44" style="stroke: #000000; stroke-width: 0.8"/>
      </g>
     </g>
     <g id="text_4">
      <!-- 0.75 -->
      <g transform="translate(150.882812 268.038437) scale(0.1 -0.1)">
       <defs>
        <path id="DejaVuSans-37" d="M 525 4666 
L 3525 4666 
L 3525 4397 
L 1831 0 
L 1172 0 
L 2766 4134 
L 525 4134 
L 525 4666 
z
" transform="scale(0.015625)"/>
       </defs>
       <use xlink:href="#DejaVuSans-30"/>
       <use xlink:href="#DejaVuSans-2e" x="63.623047"/>
       <use xlink:href="#DejaVuSans-37" x="95.410156"/>
       <use xlink:href="#DejaVuSans-35" x="159.033203"/>
      </g>
     </g>
    </g>
    <g id="xtick_5">
     <g id="line2d_5">
      <g>
       <use xlink:href="#md3f89d9dba" x="203.865625" y="253.44" style="stroke: #000000; stroke-width: 0.8"/>
      </g>
     </g>
     <g id="text_5">
      <!-- 1.00 -->
      <g transform="translate(192.732813 268.038437) scale(0.1 -0.1)">
       <defs>
        <path id="DejaVuSans-31" d="M 794 531 
L 1825 531 
L 1825 4091 
L 703 3866 
L 703 4441 
L 1819 4666 
L 2450 4666 
L 2450 531 
L 3481 531 
L 3481 0 
L 794 0 
L 794 531 
z
" transform="scale(0.015625)"/>
       </defs>
       <use xlink:href="#DejaVuSans-31"/>
       <use xlink:href="#DejaVuSans-2e" x="63.623047"/>
       <use xlink:href="#DejaVuSans-30" x="95.410156"/>
       <use xlink:href="#DejaVuSans-30" x="159.033203"/>
      </g>
     </g>
    </g>
    <g id="xtick_6">
     <g id="line2d_6">
      <g>
       <use xlink:href="#md3f89d9dba" x="245.715625" y="253.44" style="stroke: #000000; stroke-width: 0.8"/>
      </g>
     </g>
     <g id="text_6">
      <!-- 1.25 -->
      <g transform="translate(234.582812 268.038437) scale(0.1 -0.1)">
       <use xlink:href="#DejaVuSans-31"/>
       <use xlink:href="#DejaVuSans-2e" x="63.623047"/>
       <use xlink:href="#DejaVuSans-32" x="95.410156"/>
       <use xlink:href="#DejaVuSans-35" x="159.033203"/>
      </g>
     </g>
    </g>
    <g id="xtick_7">
     <g id="line2d_7">
      <g>
       <use xlink:href="#md3f89d9dba" x="287.565625" y="253.44" style="stroke: #000000; stroke-width: 0.8"/>
      </g>
     </g>
     <g id="text_7">
      <!-- 1.50 -->
      <g transform="translate(276.432813 268.038437) scale(0.1 -0.1)">
       <use xlink:href="#DejaVuSans-31"/>
       <use xlink:href="#DejaVuSans-2e" x="63.623047"/>
       <use xlink:href="#DejaVuSans-35" x="95.410156"/>
       <use xlink:href="#DejaVuSans-30" x="159.033203"/>
      </g>
     </g>
    </g>
    <g id="xtick_8">
     <g id="line2d_8">
      <g>
       <use xlink:href="#md3f89d9dba" x="329.415625" y="253.44" style="stroke: #000000; stroke-width: 0.8"/>
      </g>
     </g>
     <g id="text_8">
      <!-- 1.75 -->
      <g transform="translate(318.282812 268.038437) scale(0.1 -0.1)">
       <use xlink:href="#DejaVuSans-31"/>
       <use xlink:href="#DejaVuSans-2e" x="63.623047"/>
       <use xlink:href="#DejaVuSans-37" x="95.410156"/>
       <use xlink:href="#DejaVuSans-35" x="159.033203"/>
      </g>
     </g>
    </g>
    <g id="xtick_9">
     <g id="line2d_9">
      <g>
       <use xlink:href="#md3f89d9dba" x="371.265625" y="253.44" style="stroke: #000000; stroke-width: 0.8"/>
      </g>
     </g>
     <g id="text_9">
      <!-- 2.00 -->
      <g transform="translate(360.132812 268.038437) scale(0.1 -0.1)">
       <use xlink:href="#DejaVuSans-32"/>
       <use xlink:href="#DejaVuSans-2e" x="63.623047"/>
       <use xlink:href="#DejaVuSans-30" x="95.410156"/>
       <use xlink:href="#DejaVuSans-30" x="159.033203"/>
      </g>
     </g>
    </g>
   </g>
   <g id="matplotlib.axis_2">
    <g id="ytick_1">
     <g id="line2d_10">
      <defs>
       <path id="m3c795e0221" d="M 0 0 
L -3.5 0 
" style="stroke: #000000; stroke-width: 0.8"/>
      </defs>
      <g>
       <use xlink:href="#m3c795e0221" x="36.465625" y="234.470641" style="stroke: #000000; stroke-width: 0.8"/>
      </g>
     </g>
     <g id="text_10">
      <!-- 0.00 -->
      <g transform="translate(7.2 238.26986) scale(0.1 -0.1)">
       <use xlink:href="#DejaVuSans-30"/>
       <use xlink:href="#DejaVuSans-2e" x="63.623047"/>
       <use xlink:href="#DejaVuSans-30" x="95.410156"/>
       <use xlink:href="#DejaVuSans-30" x="159.033203"/>
      </g>
     </g>
    </g>
    <g id="ytick_2">
     <g id="line2d_11">
      <g>
       <use xlink:href="#m3c795e0221" x="36.465625" y="202.620259" style="stroke: #000000; stroke-width: 0.8"/>
      </g>
     </g>
     <g id="text_11">
      <!-- 0.05 -->
      <g transform="translate(7.2 206.419477) scale(0.1 -0.1)">
       <use xlink:href="#DejaVuSans-30"/>
       <use xlink:href="#DejaVuSans-2e" x="63.623047"/>
       <use xlink:href="#DejaVuSans-30" x="95.410156"/>
       <use xlink:href="#DejaVuSans-35" x="159.033203"/>
      </g>
     </g>
    </g>
    <g id="ytick_3">
     <g id="line2d_12">
      <g>
       <use xlink:href="#m3c795e0221" x="36.465625" y="170.769876" style="stroke: #000000; stroke-width: 0.8"/>
      </g>
     </g>
     <g id="text_12">
      <!-- 0.10 -->
      <g transform="translate(7.2 174.569095) scale(0.1 -0.1)">
       <use xlink:href="#DejaVuSans-30"/>
       <use xlink:href="#DejaVuSans-2e" x="63.623047"/>
       <use xlink:href="#DejaVuSans-31" x="95.410156"/>
       <use xlink:href="#DejaVuSans-30" x="159.033203"/>
      </g>
     </g>
    </g>
    <g id="ytick_4">
     <g id="line2d_13">
      <g>
       <use xlink:href="#m3c795e0221" x="36.465625" y="138.919494" style="stroke: #000000; stroke-width: 0.8"/>
      </g>
     </g>
     <g id="text_13">
      <!-- 0.15 -->
      <g transform="translate(7.2 142.718713) scale(0.1 -0.1)">
       <use xlink:href="#DejaVuSans-30"/>
       <use xlink:href="#DejaVuSans-2e" x="63.623047"/>
       <use xlink:href="#DejaVuSans-31" x="95.410156"/>
       <use xlink:href="#DejaVuSans-35" x="159.033203"/>
      </g>
     </g>
    </g>
    <g id="ytick_5">
     <g id="line2d_14">
      <g>
       <use xlink:href="#m3c795e0221" x="36.465625" y="107.069112" style="stroke: #000000; stroke-width: 0.8"/>
      </g>
     </g>
     <g id="text_14">
      <!-- 0.20 -->
      <g transform="translate(7.2 110.86833) scale(0.1 -0.1)">
       <use xlink:href="#DejaVuSans-30"/>
       <use xlink:href="#DejaVuSans-2e" x="63.623047"/>
       <use xlink:href="#DejaVuSans-32" x="95.410156"/>
       <use xlink:href="#DejaVuSans-30" x="159.033203"/>
      </g>
     </g>
    </g>
    <g id="ytick_6">
     <g id="line2d_15">
      <g>
       <use xlink:href="#m3c795e0221" x="36.465625" y="75.218729" style="stroke: #000000; stroke-width: 0.8"/>
      </g>
     </g>
     <g id="text_15">
      <!-- 0.25 -->
      <g transform="translate(7.2 79.017948) scale(0.1 -0.1)">
       <use xlink:href="#DejaVuSans-30"/>
       <use xlink:href="#DejaVuSans-2e" x="63.623047"/>
       <use xlink:href="#DejaVuSans-32" x="95.410156"/>
       <use xlink:href="#DejaVuSans-35" x="159.033203"/>
      </g>
     </g>
    </g>
    <g id="ytick_7">
     <g id="line2d_16">
      <g>
       <use xlink:href="#m3c795e0221" x="36.465625" y="43.368347" style="stroke: #000000; stroke-width: 0.8"/>
      </g>
     </g>
     <g id="text_16">
      <!-- 0.30 -->
      <g transform="translate(7.2 47.167566) scale(0.1 -0.1)">
       <defs>
        <path id="DejaVuSans-33" d="M 2597 2516 
Q 3050 2419 3304 2112 
Q 3559 1806 3559 1356 
Q 3559 666 3084 287 
Q 2609 -91 1734 -91 
Q 1441 -91 1130 -33 
Q 819 25 488 141 
L 488 750 
Q 750 597 1062 519 
Q 1375 441 1716 441 
Q 2309 441 2620 675 
Q 2931 909 2931 1356 
Q 2931 1769 2642 2001 
Q 2353 2234 1838 2234 
L 1294 2234 
L 1294 2753 
L 1863 2753 
Q 2328 2753 2575 2939 
Q 2822 3125 2822 3475 
Q 2822 3834 2567 4026 
Q 2313 4219 1838 4219 
Q 1578 4219 1281 4162 
Q 984 4106 628 3988 
L 628 4550 
Q 988 4650 1302 4700 
Q 1616 4750 1894 4750 
Q 2613 4750 3031 4423 
Q 3450 4097 3450 3541 
Q 3450 3153 3228 2886 
Q 3006 2619 2597 2516 
z
" transform="scale(0.015625)"/>
       </defs>
       <use xlink:href="#DejaVuSans-30"/>
       <use xlink:href="#DejaVuSans-2e" x="63.623047"/>
       <use xlink:href="#DejaVuSans-33" x="95.410156"/>
       <use xlink:href="#DejaVuSans-30" x="159.033203"/>
      </g>
     </g>
    </g>
   </g>
   <g id="line2d_17">
    <path d="M 36.633025 234.470641 
L 36.800425 243.556364 
L 36.967825 200.300889 
L 37.135225 226.87212 
L 37.302625 221.252563 
L 37.470025 219.701949 
L 37.637425 220.118064 
L 37.804825 211.774768 
L 38.139625 170.213516 
L 38.307025 165.502403 
L 38.474425 188.024261 
L 38.809225 134.326185 
L 38.976625 145.111058 
L 39.311425 122.669436 
L 39.478825 122.404156 
L 39.646225 149.880234 
L 39.813625 146.462768 
L 39.981025 124.278216 
L 40.148425 138.652441 
L 40.315825 134.829764 
L 40.483225 119.906066 
L 40.650625 143.407053 
L 40.985425 135.88745 
L 41.152825 115.432712 
L 41.320225 164.87648 
L 41.487625 158.186063 
L 41.655025 141.485363 
L 41.822425 136.474434 
L 41.989825 142.4164 
L 42.324625 96.443832 
L 42.492025 126.845165 
L 42.659425 136.320921 
L 42.826825 133.246349 
L 43.329025 87.978425 
L 43.496425 79.571399 
L 43.663825 93.855605 
L 43.831225 97.649022 
L 43.998625 95.213201 
L 44.166025 60.766513 
L 44.333425 49.823993 
L 44.500825 79.026229 
L 44.668225 78.103163 
L 44.835625 85.662147 
L 45.003025 102.207704 
L 45.170425 94.887916 
L 45.337825 116.641483 
L 45.505225 94.574059 
L 46.007425 130.715111 
L 46.174825 152.411002 
L 46.509625 82.572478 
L 47.011825 131.382785 
L 47.179225 90.702968 
L 47.346625 93.515086 
L 47.514025 99.253846 
L 47.681425 122.038491 
L 47.848825 118.445297 
L 48.016225 135.350906 
L 48.183625 139.898325 
L 48.351025 154.461082 
L 48.685825 123.540489 
L 49.020625 155.588276 
L 49.355425 124.785804 
L 49.522825 116.086956 
L 49.857625 130.773139 
L 50.025025 144.135817 
L 50.192425 132.091566 
L 50.359825 130.929652 
L 50.527225 117.18873 
L 50.694625 133.12223 
L 51.029425 117.789937 
L 51.196825 138.56831 
L 51.364225 142.088407 
L 51.866425 110.990475 
L 52.033825 104.655154 
L 52.201225 110.260044 
L 52.536025 72.864447 
L 52.703425 77.085437 
L 53.038225 106.911022 
L 53.205625 77.949241 
L 53.540425 94.89746 
L 53.707825 80.344778 
L 54.042625 117.686827 
L 54.210025 114.718778 
L 54.377425 126.817105 
L 54.544825 129.724212 
L 54.712225 87.422976 
L 54.879625 99.157832 
L 55.047025 101.664028 
L 55.214425 140.04868 
L 55.381825 88.814936 
L 55.549225 87.837062 
L 55.884025 105.803101 
L 56.051425 94.769964 
L 56.218825 92.248104 
L 56.386225 81.516108 
L 56.553625 61.534967 
L 56.721025 60.114317 
L 56.888425 51.699883 
L 57.055825 63.463183 
L 57.223225 60.696096 
L 57.558025 79.563831 
L 57.725425 79.702028 
L 57.892825 86.055293 
L 58.060225 58.885615 
L 58.227625 70.59027 
L 58.395025 90.620748 
L 58.562425 86.200091 
L 58.729825 64.717622 
L 58.897225 102.321571 
L 59.232025 77.237431 
L 59.566825 94.703447 
L 59.734225 58.561917 
L 59.901625 88.971366 
L 60.069025 71.400978 
L 60.236425 69.779641 
L 60.403825 64.389978 
L 60.571225 93.793145 
L 60.738625 69.015015 
L 60.906025 86.982811 
L 61.073425 90.023135 
L 61.240825 69.762021 
L 61.408225 80.731463 
L 61.575625 76.303518 
L 61.743025 81.536906 
L 61.910425 101.554145 
L 62.077825 103.667442 
L 62.245225 72.814088 
L 62.580025 99.048967 
L 62.747425 105.966996 
L 62.914825 95.667994 
L 63.082225 54.793036 
L 63.249625 95.51261 
L 63.417025 94.13308 
L 63.584425 102.474071 
L 63.751825 103.710008 
L 64.086625 70.164272 
L 64.254025 82.559067 
L 64.421425 58.649411 
L 64.756225 112.424142 
L 64.923625 92.404858 
L 65.091025 85.876607 
L 65.258425 133.178814 
L 65.425825 125.2539 
L 65.593225 122.812962 
L 65.760625 122.768262 
L 65.928025 146.739533 
L 66.095425 117.370231 
L 66.262825 125.204838 
L 66.430225 121.628348 
L 66.597625 162.233349 
L 66.932425 97.785772 
L 67.099825 92.252217 
L 67.267225 92.121424 
L 67.602025 98.336526 
L 67.769425 92.946252 
L 67.936825 92.65348 
L 68.104225 87.792437 
L 68.271625 76.447285 
L 68.439025 89.406771 
L 68.606425 77.437392 
L 68.773825 113.309489 
L 68.941225 86.574171 
L 69.108625 97.155728 
L 69.276025 72.656001 
L 69.443425 107.610465 
L 69.778225 115.331076 
L 70.113025 58.231543 
L 70.447825 97.535043 
L 70.615225 97.67406 
L 70.782625 69.276991 
L 71.117425 104.73054 
L 71.284825 103.306853 
L 71.452225 103.887927 
L 71.619625 93.314472 
L 72.121825 121.246156 
L 72.289225 95.812916 
L 72.456625 92.376233 
L 72.624025 92.552857 
L 72.791425 98.05266 
L 72.958825 111.811939 
L 73.126225 100.008383 
L 73.293625 115.342382 
L 73.628425 95.219406 
L 73.795825 104.047097 
L 73.963225 145.50444 
L 74.130625 149.859919 
L 74.298025 124.107794 
L 74.632825 138.060664 
L 74.800225 123.731527 
L 74.967625 142.906476 
L 75.135025 145.277307 
L 75.302425 152.115932 
L 75.469825 150.295026 
L 75.637225 150.242561 
L 75.972025 140.580813 
L 76.306825 116.770925 
L 76.474225 126.624176 
L 76.976425 80.738404 
L 77.143825 82.457053 
L 77.478625 92.398204 
L 77.646025 77.319691 
L 77.813425 100.976698 
L 77.980825 104.689684 
L 78.148225 80.253552 
L 78.315625 76.430904 
L 78.483025 77.122262 
L 78.650425 133.644559 
L 78.985225 71.029243 
L 79.487425 103.233468 
L 79.654825 81.3359 
L 79.989625 111.249562 
L 80.491825 92.10236 
L 80.659225 97.991612 
L 80.826625 94.301476 
L 80.994025 96.689679 
L 81.328825 121.320713 
L 81.663625 95.857659 
L 81.998425 134.581608 
L 82.333225 125.311514 
L 82.500625 124.030688 
L 82.668025 102.999257 
L 82.835425 105.933501 
L 83.002825 122.911416 
L 83.170225 123.144442 
L 83.337625 103.007964 
L 83.505025 98.432445 
L 83.672425 81.173498 
L 83.839825 91.051598 
L 84.007225 84.64484 
L 84.174625 127.319272 
L 84.342025 112.400985 
L 84.509425 134.647732 
L 84.676825 128.286009 
L 84.844225 98.945883 
L 85.179025 138.189105 
L 85.346425 125.50861 
L 85.513825 133.753108 
L 85.681225 126.284196 
L 85.848625 113.290046 
L 86.016025 113.975177 
L 86.350825 142.8746 
L 86.685625 108.211246 
L 86.853025 126.685655 
L 87.020425 125.418071 
L 87.355225 130.930495 
L 87.690025 93.517703 
L 88.024825 139.38648 
L 88.192225 155.376424 
L 88.359625 135.647842 
L 88.527025 89.347274 
L 88.694425 87.10239 
L 88.861825 98.059405 
L 89.029225 100.252403 
L 89.196625 80.126837 
L 89.364025 99.732584 
L 89.531425 94.230865 
L 89.866225 63.379802 
L 90.033625 87.467557 
L 90.368425 78.887413 
L 90.535825 81.963271 
L 90.703225 65.195299 
L 90.870625 69.513747 
L 91.038025 92.758695 
L 91.205425 94.05288 
L 91.372825 93.80372 
L 91.540225 79.531778 
L 91.707625 107.25543 
L 91.875025 109.790755 
L 92.042425 87.330495 
L 92.209825 105.639852 
L 92.544625 115.461603 
L 92.712025 83.335332 
L 92.879425 84.834647 
L 93.046825 101.219232 
L 93.214225 103.226078 
L 93.381625 91.502584 
L 93.549025 99.953601 
L 93.716425 79.289291 
L 93.883825 99.720809 
L 94.051225 104.355764 
L 94.218625 93.752521 
L 94.386025 96.150304 
L 94.553425 77.369068 
L 94.720825 72.711655 
L 95.223025 83.71039 
L 95.390425 104.956832 
L 95.725225 81.008982 
L 95.892625 111.643301 
L 96.060025 97.917272 
L 96.394825 131.88013 
L 96.562225 142.259325 
L 96.729625 140.556855 
L 96.897025 149.973018 
L 97.231825 128.342697 
L 97.566625 102.986285 
L 97.734025 123.812386 
L 97.901425 113.445323 
L 98.068825 113.224261 
L 98.236225 132.825683 
L 98.403625 128.411491 
L 98.571025 143.553843 
L 98.905825 127.035191 
L 99.073225 129.880175 
L 99.240625 130.035068 
L 99.408025 111.099204 
L 99.575425 134.032197 
L 99.742825 134.208996 
L 99.910225 128.722864 
L 100.077625 133.772201 
L 100.245025 127.844069 
L 100.412425 140.436264 
L 100.579825 139.656441 
L 100.747225 120.962257 
L 100.914625 139.090877 
L 101.082025 109.731262 
L 101.249425 136.251291 
L 101.416825 133.078586 
L 101.584225 122.138503 
L 101.751625 121.903349 
L 101.919025 124.391332 
L 102.086425 145.317558 
L 102.253825 141.811767 
L 102.421225 125.493065 
L 102.588625 120.603646 
L 102.756025 130.069965 
L 103.090825 124.540627 
L 103.258225 122.979738 
L 103.425625 117.713948 
L 103.760425 96.244276 
L 103.927825 96.05235 
L 104.095225 129.390723 
L 104.430025 108.682802 
L 104.597425 75.880359 
L 104.764825 82.424661 
L 104.932225 94.381303 
L 105.099625 96.871247 
L 105.267025 117.041803 
L 105.601825 57.492709 
L 105.936625 89.481723 
L 106.104025 99.311661 
L 106.271425 76.378536 
L 106.438825 80.877261 
L 106.606225 104.145849 
L 106.773625 97.9899 
L 106.941025 101.061124 
L 107.108425 96.832186 
L 107.443225 123.473809 
L 107.610625 97.375211 
L 107.945425 101.463319 
L 108.112825 93.595667 
L 108.280225 97.940192 
L 108.447625 93.685559 
L 108.615025 86.377534 
L 108.782425 92.80975 
L 108.949825 87.826425 
L 109.117225 90.734161 
L 109.284625 108.348492 
L 109.452025 87.115815 
L 109.619425 80.3168 
L 109.786825 102.176151 
L 109.954225 101.821937 
L 110.121625 84.189639 
L 110.289025 95.909256 
L 110.456425 116.547406 
L 110.623825 110.154553 
L 110.958625 91.665741 
L 111.126025 88.344144 
L 111.293425 74.430913 
L 111.460825 90.613887 
L 111.628225 79.384264 
L 111.795625 88.994607 
L 111.963025 84.318418 
L 112.130425 59.13042 
L 112.465225 108.250383 
L 112.632625 87.12614 
L 112.967425 128.424276 
L 113.134825 107.373797 
L 113.302225 108.111917 
L 113.469625 89.975458 
L 113.637025 86.142597 
L 113.804425 71.175295 
L 113.971825 81.282914 
L 114.139225 103.161371 
L 114.306625 88.546297 
L 114.474025 100.103005 
L 114.641425 89.941658 
L 114.976225 105.170625 
L 115.143625 129.854649 
L 115.478425 102.046197 
L 115.645825 111.801246 
L 115.813225 114.817455 
L 116.148025 102.027244 
L 116.315425 92.128699 
L 116.650225 110.756511 
L 116.817625 125.7856 
L 116.985025 92.419503 
L 117.152425 107.469067 
L 117.319825 144.267503 
L 117.989425 104.309263 
L 118.324225 129.497467 
L 118.491625 118.894128 
L 118.659025 118.852115 
L 118.826425 124.700426 
L 118.993825 135.28724 
L 119.161225 128.801291 
L 119.328625 92.209308 
L 119.496025 114.641353 
L 119.663425 153.121967 
L 119.830825 128.656174 
L 119.998225 133.238735 
L 120.333025 115.914858 
L 120.500425 123.397035 
L 120.667825 122.816009 
L 121.002625 106.593618 
L 121.170025 123.555465 
L 121.337425 120.894363 
L 121.504825 120.555099 
L 121.672225 118.208106 
L 121.839625 135.890655 
L 122.007025 116.605997 
L 122.174425 127.537725 
L 122.341825 111.747466 
L 122.676625 140.379803 
L 122.844025 121.520561 
L 123.178825 151.408659 
L 123.346225 169.019155 
L 123.513625 142.481278 
L 123.681025 149.467083 
L 123.848425 148.981048 
L 124.015825 152.491483 
L 124.183225 107.091727 
L 124.350625 112.673602 
L 124.518025 122.121488 
L 124.685425 110.454723 
L 124.852825 113.588411 
L 125.020225 150.938039 
L 125.187625 161.069535 
L 125.355025 154.442897 
L 125.689825 106.886873 
L 126.192025 124.795184 
L 126.526825 109.875985 
L 126.861625 150.709362 
L 127.029025 128.834836 
L 127.196425 129.775752 
L 127.363825 129.059689 
L 127.531225 139.241301 
L 127.698625 125.702318 
L 127.866025 146.863001 
L 128.200825 122.680402 
L 128.368225 119.44405 
L 128.535625 123.538536 
L 128.703025 105.805261 
L 128.870425 118.049391 
L 129.205225 109.274244 
L 129.372625 92.738107 
L 129.540025 100.21633 
L 129.707425 116.291317 
L 129.874825 96.566663 
L 130.042225 121.110057 
L 130.209625 106.745576 
L 130.377025 112.819845 
L 130.544425 97.550253 
L 130.711825 114.873253 
L 130.879225 116.357996 
L 131.046625 85.241824 
L 131.214025 84.571991 
L 131.381425 110.098327 
L 131.716225 78.444369 
L 131.883625 90.534945 
L 132.051025 82.842601 
L 132.218425 100.754468 
L 132.385825 102.003362 
L 132.720625 85.100931 
L 132.888025 91.519714 
L 133.055425 86.306142 
L 133.222825 101.051893 
L 133.390225 99.400254 
L 133.725025 116.521855 
L 133.892425 94.458973 
L 134.059825 93.730096 
L 134.227225 81.771548 
L 134.394625 124.520215 
L 134.562025 130.312152 
L 134.896825 84.294216 
L 135.064225 100.179375 
L 135.231625 73.987175 
L 135.399025 91.537518 
L 135.566425 95.31142 
L 135.733825 110.071571 
L 136.068625 79.08991 
L 136.236025 78.412326 
L 136.403425 85.235057 
L 136.570825 71.174206 
L 136.905625 99.246514 
L 137.073025 96.755437 
L 137.240425 110.453094 
L 137.575225 98.768337 
L 137.742625 134.787584 
L 138.077425 102.869507 
L 138.244825 118.144209 
L 138.412225 118.771246 
L 138.579625 134.233962 
L 138.747025 130.161067 
L 139.081825 103.935572 
L 139.249225 87.459496 
L 139.416625 112.877897 
L 139.584025 107.657412 
L 139.751425 122.405687 
L 139.918825 124.721447 
L 140.086225 138.704774 
L 140.253625 126.830801 
L 140.421025 101.964879 
L 140.755825 91.140967 
L 140.923225 109.630586 
L 141.258025 91.019715 
L 141.592825 133.07498 
L 141.760225 123.194198 
L 141.927625 96.845211 
L 142.095025 107.380407 
L 142.262425 107.525773 
L 142.429825 126.947727 
L 142.597225 104.983418 
L 142.764625 98.686674 
L 142.932025 84.157412 
L 143.099425 88.08881 
L 143.266825 97.126736 
L 143.434225 79.078401 
L 143.601625 91.459331 
L 143.769025 87.17651 
L 143.936425 125.163215 
L 144.103825 124.29311 
L 144.271225 95.5178 
L 144.438625 95.722232 
L 144.606025 128.466938 
L 144.773425 126.242826 
L 144.940825 130.132534 
L 145.108225 107.211648 
L 145.275625 122.16451 
L 145.443025 116.592878 
L 145.610425 124.651476 
L 145.777825 154.512415 
L 146.280025 85.538637 
L 146.614825 110.942953 
L 146.782225 82.258083 
L 146.949625 88.253192 
L 147.117025 87.748446 
L 147.451825 132.345635 
L 147.619225 130.554369 
L 147.786625 152.926058 
L 148.121425 123.187568 
L 148.288825 118.754686 
L 148.623625 103.268022 
L 148.958425 151.375916 
L 149.125825 149.032115 
L 149.293225 130.764241 
L 149.460625 130.245655 
L 149.628025 175.175878 
L 149.795425 181.104319 
L 150.130225 130.981977 
L 150.297625 140.678298 
L 150.465025 142.266338 
L 150.632425 148.463945 
L 150.799825 124.777461 
L 150.967225 130.5638 
L 151.302025 112.261153 
L 151.469425 111.971238 
L 151.636825 100.248149 
L 151.804225 121.968363 
L 151.971625 110.953717 
L 152.139025 116.73886 
L 152.306425 114.330844 
L 152.473825 146.288658 
L 152.641225 150.759754 
L 152.808625 132.122302 
L 152.976025 145.118167 
L 153.143425 128.023046 
L 153.310825 124.201236 
L 153.478225 124.383885 
L 153.645625 117.482819 
L 153.813025 127.622253 
L 153.980425 127.406983 
L 154.147825 125.110003 
L 154.315225 118.149185 
L 154.482625 135.689624 
L 154.650025 126.177136 
L 154.817425 138.076608 
L 154.984825 89.613059 
L 155.152225 105.334885 
L 155.319625 95.448126 
L 155.487025 151.413258 
L 155.654425 116.042031 
L 156.156625 105.384608 
L 156.491425 90.350324 
L 156.658825 104.847788 
L 156.826225 105.145332 
L 156.993625 107.812082 
L 157.328425 104.704247 
L 157.495825 113.63659 
L 157.663225 143.477426 
L 157.998025 95.314382 
L 158.165425 95.911229 
L 158.332825 103.429647 
L 158.500225 134.046655 
L 158.667625 132.027997 
L 158.835025 137.688465 
L 159.169825 109.515325 
L 159.337225 115.437349 
L 159.504625 110.535527 
L 159.672025 114.444356 
L 159.839425 125.04687 
L 160.006825 102.698414 
L 160.174225 121.301863 
L 160.341625 118.754982 
L 160.509025 132.762601 
L 160.676425 112.548643 
L 160.843825 128.214599 
L 161.011225 114.014885 
L 161.178625 133.178239 
L 161.346025 114.24961 
L 161.680825 134.702339 
L 161.848225 117.222227 
L 162.015625 152.64031 
L 162.350425 122.005705 
L 162.517825 117.854274 
L 162.685225 125.847945 
L 162.852625 121.417213 
L 163.020025 122.351582 
L 163.354825 94.303863 
L 163.689625 106.004911 
L 163.857025 94.54641 
L 164.024425 97.744406 
L 164.191825 112.003173 
L 164.359225 114.29131 
L 164.526625 106.74891 
L 164.694025 133.748055 
L 164.861425 134.689364 
L 165.196225 87.671364 
L 165.363625 113.271946 
L 165.531025 108.8596 
L 165.698425 140.168912 
L 166.033225 89.405806 
L 166.200625 124.93894 
L 166.702825 85.127474 
L 166.870225 103.901562 
L 167.205025 71.392956 
L 167.372425 107.095071 
L 167.539825 109.837888 
L 167.707225 80.777517 
L 167.874625 88.224508 
L 168.042025 122.692282 
L 168.376825 101.257281 
L 168.711625 119.132058 
L 168.879025 93.159799 
L 169.548625 145.541149 
L 169.883425 133.522367 
L 170.050825 122.115474 
L 170.385625 127.265104 
L 170.720425 100.859536 
L 170.887825 92.636651 
L 171.055225 103.125627 
L 171.222625 97.590233 
L 171.390025 97.90156 
L 171.557425 83.666033 
L 171.724825 98.016989 
L 171.892225 99.512012 
L 172.059625 115.235827 
L 172.394425 119.207379 
L 172.561825 117.908523 
L 172.729225 134.690271 
L 172.896625 130.572768 
L 173.064025 136.341491 
L 173.231425 113.289629 
L 173.398825 147.255352 
L 173.733625 124.763421 
L 174.068425 96.415992 
L 174.235825 99.139096 
L 174.403225 126.460324 
L 174.570625 105.968401 
L 174.738025 105.110076 
L 174.905425 90.933317 
L 175.240225 108.843659 
L 175.407625 107.788718 
L 175.575025 116.724623 
L 175.742425 109.238494 
L 175.909825 90.730328 
L 176.077225 86.694443 
L 176.244625 76.104399 
L 176.412025 126.06287 
L 176.579425 130.837975 
L 176.746825 121.089019 
L 176.914225 124.295765 
L 177.081625 133.065159 
L 177.249025 134.815034 
L 177.583825 147.059271 
L 177.751225 119.667867 
L 178.086025 138.230594 
L 178.253425 131.74745 
L 178.420825 114.307498 
L 178.588225 111.206955 
L 178.755625 119.082115 
L 178.923025 120.176099 
L 179.090425 95.766889 
L 179.425225 99.25757 
L 179.592625 99.479172 
L 179.927425 120.421921 
L 180.094825 121.088591 
L 180.262225 128.37565 
L 180.429625 118.406254 
L 180.597025 123.150526 
L 180.764425 99.17637 
L 180.931825 120.554385 
L 181.099225 112.156657 
L 181.266625 120.568023 
L 181.434025 82.062599 
L 181.768825 119.15813 
L 182.103625 99.737382 
L 182.271025 105.263036 
L 182.438425 142.879451 
L 182.605825 96.732128 
L 182.773225 93.134781 
L 182.940625 104.121975 
L 183.108025 104.184339 
L 183.275425 98.827444 
L 183.442825 107.80251 
L 183.610225 109.480661 
L 183.777625 98.337894 
L 183.945025 97.392783 
L 184.112425 84.946525 
L 184.279825 99.175626 
L 184.447225 79.832782 
L 184.614625 75.244273 
L 184.782025 76.717522 
L 184.949425 108.712884 
L 185.116825 87.901277 
L 185.284225 103.7237 
L 185.451625 102.789955 
L 185.619025 112.926571 
L 185.786425 109.889884 
L 185.953825 95.802124 
L 186.121225 98.670343 
L 186.456025 125.458637 
L 186.623425 112.065231 
L 186.790825 150.009665 
L 186.958225 138.454255 
L 187.125625 137.148536 
L 187.460425 94.372902 
L 187.627825 127.141997 
L 187.795225 137.355668 
L 188.130025 97.925325 
L 188.297425 124.956243 
L 188.632225 110.20861 
L 188.799625 142.460366 
L 188.967025 141.729228 
L 189.301825 98.875891 
L 189.804025 154.255682 
L 189.971425 103.173304 
L 190.138825 117.00317 
L 190.306225 117.512982 
L 190.473625 100.778726 
L 190.641025 113.982754 
L 190.808425 112.431547 
L 190.975825 117.081868 
L 191.143225 117.839825 
L 191.310625 126.386164 
L 191.645425 111.53571 
L 191.812825 111.887394 
L 191.980225 91.44257 
L 192.147625 92.866756 
L 192.315025 73.499932 
L 192.482425 105.015438 
L 192.649825 100.638581 
L 192.817225 73.929456 
L 192.984625 73.732871 
L 193.152025 77.125277 
L 193.654225 109.978875 
L 193.821625 103.907918 
L 194.156425 70.295451 
L 194.323825 93.181323 
L 194.491225 96.451816 
L 194.658625 113.434699 
L 194.826025 108.867987 
L 194.993425 111.039169 
L 195.160825 110.638134 
L 195.328225 113.959318 
L 195.495625 126.495612 
L 195.663025 108.053138 
L 195.830425 124.647568 
L 195.997825 112.301852 
L 196.165225 87.778227 
L 196.332625 103.960467 
L 196.500025 94.802712 
L 196.667425 113.003409 
L 196.834825 87.011292 
L 197.169625 107.73975 
L 197.337025 108.993768 
L 197.504425 95.619427 
L 197.671825 97.733099 
L 197.839225 95.611777 
L 198.006625 119.054016 
L 198.174025 89.120463 
L 198.341425 110.639084 
L 198.508825 101.182591 
L 198.676225 107.483834 
L 198.843625 92.155343 
L 199.011025 90.448051 
L 199.178425 98.184566 
L 199.345825 82.122191 
L 199.513225 107.056774 
L 199.680625 99.616778 
L 199.848025 97.68988 
L 200.015425 85.569932 
L 200.182825 110.932356 
L 200.350225 101.480096 
L 200.517625 103.097932 
L 200.685025 98.00636 
L 201.019825 135.093445 
L 201.187225 128.031114 
L 201.522025 103.022944 
L 201.689425 120.452035 
L 201.856825 111.07273 
L 202.024225 121.367071 
L 202.191625 138.874998 
L 202.526425 116.810367 
L 202.693825 139.408738 
L 202.861225 97.335045 
L 203.196025 110.824805 
L 203.363425 104.636577 
L 203.530825 135.835605 
L 203.698225 144.411579 
L 203.865625 120.657977 
L 204.033025 115.431512 
L 204.367825 138.510824 
L 204.702625 110.997496 
L 204.870025 112.431251 
L 205.037425 127.659531 
L 205.204825 125.046828 
L 205.372225 112.851286 
L 205.539625 83.71926 
L 205.707025 88.408334 
L 205.874425 116.983625 
L 206.209225 128.253863 
L 206.376625 100.794243 
L 206.544025 113.515234 
L 206.711425 108.8537 
L 206.878825 100.293673 
L 207.046225 128.309997 
L 207.213625 109.763769 
L 207.381025 103.739051 
L 207.548425 91.437507 
L 207.883225 87.067137 
L 208.218025 113.731677 
L 208.385425 84.584622 
L 208.552825 75.281371 
L 208.720225 87.346665 
L 208.887625 110.806826 
L 209.389825 126.355627 
L 209.724625 115.606327 
L 209.892025 138.410224 
L 210.059425 106.030241 
L 210.394225 124.868448 
L 210.729025 111.377207 
L 211.063825 144.300583 
L 211.231225 124.008166 
L 211.398625 131.90005 
L 211.733425 112.177719 
L 211.900825 87.395366 
L 212.235625 118.565016 
L 212.570425 90.807412 
L 212.737825 97.141294 
L 212.905225 146.062418 
L 213.072625 141.912975 
L 213.574825 92.769861 
L 213.909625 121.43184 
L 214.077025 115.728698 
L 214.244425 125.21779 
L 214.746625 104.415293 
L 214.914025 117.30722 
L 215.081425 105.423071 
L 215.248825 72.737516 
L 215.416225 66.038613 
L 215.583625 98.607361 
L 215.751025 95.097089 
L 215.918425 86.702243 
L 216.085825 115.998212 
L 216.253225 125.23603 
L 216.420625 114.510654 
L 216.755425 124.542945 
L 216.922825 161.379348 
L 217.425025 123.759697 
L 217.592425 118.054913 
L 217.927225 98.744166 
L 218.094625 113.651327 
L 218.262025 109.761097 
L 218.429425 122.756918 
L 218.931625 83.467647 
L 219.099025 88.635395 
L 219.266425 103.806944 
L 219.433825 107.504118 
L 219.768625 74.855514 
L 220.103425 94.833193 
L 220.270825 97.961756 
L 220.438225 113.210362 
L 220.605625 104.166048 
L 220.773025 124.594954 
L 220.940425 124.26276 
L 221.107825 125.008831 
L 221.275225 118.912471 
L 221.610025 93.408053 
L 221.777425 106.747348 
L 221.944825 100.556678 
L 222.112225 79.862725 
L 222.279625 76.906464 
L 222.447025 97.915059 
L 222.781825 73.90306 
L 222.949225 78.206197 
L 223.284025 101.90984 
L 223.451425 101.355337 
L 223.618825 90.898607 
L 223.953625 134.705431 
L 224.455825 98.171754 
L 224.790625 142.467939 
L 224.958025 118.402673 
L 225.125425 119.27545 
L 225.292825 137.729098 
L 225.627625 96.550714 
L 225.795025 96.734545 
L 225.962425 99.306488 
L 226.129825 85.985647 
L 226.297225 84.33138 
L 226.632025 79.832714 
L 226.966825 127.675571 
L 227.134225 123.338427 
L 227.301625 129.137034 
L 227.469025 125.516871 
L 227.636425 140.249495 
L 227.803825 135.544499 
L 227.971225 125.842048 
L 228.138625 125.920862 
L 228.306025 142.149876 
L 228.473425 146.230703 
L 228.640825 119.481691 
L 228.808225 111.168854 
L 228.975625 156.412642 
L 229.143025 138.996333 
L 229.310425 142.456615 
L 229.477825 140.466839 
L 229.645225 126.525367 
L 229.812625 126.96334 
L 229.980025 109.434206 
L 230.147425 105.047681 
L 230.314825 125.228188 
L 230.482225 108.606095 
L 230.649625 103.678398 
L 230.817025 113.44216 
L 230.984425 107.246145 
L 231.151825 139.98175 
L 231.319225 111.191576 
L 231.486625 111.991437 
L 231.654025 114.598732 
L 231.821425 105.776443 
L 231.988825 110.505923 
L 232.156225 134.785474 
L 232.323625 128.56698 
L 232.491025 133.816221 
L 232.658425 112.238982 
L 232.993225 157.745327 
L 233.160625 162.187075 
L 233.328025 121.799951 
L 233.495425 115.154126 
L 233.662825 115.236513 
L 233.830225 149.94426 
L 234.165025 113.237681 
L 234.499825 165.38552 
L 234.834625 116.72206 
L 235.002025 111.160468 
L 235.169425 101.102089 
L 235.504225 117.259695 
L 235.671625 116.026794 
L 235.839025 118.545944 
L 236.006425 102.40872 
L 236.173825 124.830539 
L 236.341225 110.47454 
L 236.508625 113.239082 
L 236.676025 88.020555 
L 236.843425 127.446343 
L 237.345625 114.934628 
L 237.513025 98.201567 
L 237.680425 136.253494 
L 237.847825 146.976356 
L 238.015225 168.806712 
L 238.182625 152.843778 
L 238.350025 125.987747 
L 238.517425 136.311259 
L 238.852225 101.910938 
L 239.019625 98.126395 
L 239.354425 121.619327 
L 239.521825 116.089335 
L 239.689225 93.893834 
L 240.024025 101.925192 
L 240.191425 91.203545 
L 240.358825 72.107117 
L 240.526225 78.629768 
L 240.693625 67.474143 
L 240.861025 78.385883 
L 241.028425 63.724901 
L 241.195825 73.698547 
L 241.530625 101.980089 
L 241.698025 96.089887 
L 241.865425 99.299033 
L 242.032825 95.537676 
L 242.200225 102.514836 
L 242.367625 94.842481 
L 242.702425 74.863088 
L 242.869825 81.592055 
L 243.037225 78.538196 
L 243.372025 79.680914 
L 243.539425 78.572689 
L 243.706825 87.598873 
L 243.874225 75.15652 
L 244.041625 105.280273 
L 244.209025 95.093557 
L 244.376425 108.35704 
L 244.543825 105.074287 
L 244.711225 99.262249 
L 245.046025 131.160488 
L 245.213425 123.786848 
L 245.380825 139.384333 
L 245.548225 136.464276 
L 246.050425 97.358475 
L 246.217825 99.841261 
L 246.385225 109.269335 
L 246.552625 80.561151 
L 246.720025 76.040582 
L 246.887425 95.715629 
L 247.222225 60.804034 
L 247.389625 72.625941 
L 247.557025 100.214976 
L 247.724425 81.254785 
L 247.891825 76.003125 
L 248.059225 97.415341 
L 248.226625 85.414838 
L 248.394025 88.447976 
L 248.561425 82.291821 
L 248.728825 87.341347 
L 248.896225 82.489195 
L 249.063625 82.659615 
L 249.231025 65.543563 
L 249.398425 62.22638 
L 249.565825 73.435558 
L 249.733225 103.800701 
L 249.900625 108.016972 
L 250.068025 120.904805 
L 250.402825 93.389838 
L 250.570225 95.906466 
L 250.737625 139.112471 
L 251.072425 106.060379 
L 251.239825 113.32091 
L 251.407225 115.545276 
L 251.574625 124.198464 
L 251.742025 102.409446 
L 252.244225 118.183911 
L 252.411625 128.558795 
L 252.579025 122.936713 
L 252.746425 105.484742 
L 252.913825 122.881265 
L 253.081225 125.634884 
L 253.248625 124.516619 
L 253.416025 129.179892 
L 253.583425 129.218504 
L 253.750825 102.521589 
L 253.918225 129.698442 
L 254.253025 105.295748 
L 254.587825 107.024429 
L 254.755225 120.732507 
L 254.922625 118.368631 
L 255.090025 123.208924 
L 255.257425 136.787298 
L 255.424825 127.013797 
L 255.592225 127.810298 
L 255.759625 114.395253 
L 255.927025 119.559561 
L 256.094425 105.555134 
L 256.429225 121.081542 
L 256.596625 120.362196 
L 256.931425 138.763403 
L 257.098825 134.930166 
L 257.433625 164.681776 
L 257.601025 156.498167 
L 257.768425 155.024015 
L 258.103225 108.378223 
L 258.270625 143.427732 
L 258.605425 119.035411 
L 258.772825 125.085001 
L 258.940225 138.724419 
L 259.107625 122.632051 
L 259.275025 120.552803 
L 259.609825 157.255371 
L 259.777225 145.330932 
L 259.944625 90.097538 
L 260.112025 103.856911 
L 260.446825 145.990394 
L 260.614225 116.956652 
L 260.781625 120.328309 
L 260.949025 103.013027 
L 261.116425 104.406741 
L 261.283825 102.325542 
L 261.451225 79.079192 
L 261.618625 72.025839 
L 261.786025 89.039522 
L 261.953425 71.799197 
L 262.288225 105.751884 
L 262.455625 95.225731 
L 262.623025 109.927261 
L 262.790425 102.026896 
L 262.957825 85.275693 
L 263.125225 108.571962 
L 263.292625 109.433132 
L 263.627425 100.614203 
L 263.962225 81.639135 
L 264.297025 95.015734 
L 264.464425 80.136511 
L 264.631825 90.16165 
L 264.799225 91.479714 
L 264.966625 89.929266 
L 265.134025 87.109347 
L 265.301425 96.128159 
L 265.636225 53.830244 
L 265.803625 61.844905 
L 265.971025 93.632726 
L 266.138425 82.802155 
L 266.305825 94.793987 
L 266.473225 64.863465 
L 266.640625 82.166343 
L 266.808025 72.571553 
L 266.975425 77.344182 
L 267.142825 63.653831 
L 267.645025 106.35783 
L 267.812425 111.591449 
L 267.979825 111.495269 
L 268.147225 108.114073 
L 268.314625 121.310905 
L 268.482025 115.027475 
L 268.816825 91.144204 
L 269.151625 94.866804 
L 269.319025 134.318809 
L 269.486425 130.368606 
L 269.653825 129.601522 
L 269.821225 112.239733 
L 270.156025 159.354401 
L 270.323425 130.092061 
L 270.490825 138.071538 
L 270.658225 128.988356 
L 270.825625 100.105644 
L 271.160425 121.466253 
L 271.327825 117.598277 
L 271.662625 146.920023 
L 271.997425 112.525557 
L 272.164825 109.159538 
L 272.332225 149.459346 
L 273.169225 85.325021 
L 273.336625 99.518104 
L 273.671425 86.285824 
L 273.838825 112.496622 
L 274.173625 100.198427 
L 274.341025 102.432482 
L 274.675825 130.528211 
L 274.843225 105.862178 
L 275.010625 102.38348 
L 275.178025 106.762423 
L 275.345425 100.896039 
L 275.512825 107.746721 
L 275.680225 126.705803 
L 276.015025 90.882888 
L 276.182425 104.919546 
L 276.349825 105.6727 
L 276.517225 116.845662 
L 276.852025 92.401013 
L 277.186825 111.830995 
L 277.354225 109.349279 
L 277.521625 97.02308 
L 277.856425 123.767688 
L 278.023825 120.491889 
L 278.191225 101.344255 
L 278.358625 101.855106 
L 278.526025 109.150663 
L 278.693425 108.43022 
L 279.028225 134.023754 
L 279.363025 107.333537 
L 279.530425 120.413063 
L 279.865225 92.795012 
L 280.200025 96.147755 
L 280.367425 89.772258 
L 280.534825 73.627114 
L 280.702225 75.254753 
L 280.869625 71.184756 
L 281.037025 72.179033 
L 281.204425 61.142916 
L 281.371825 93.834347 
L 281.706625 63.898397 
L 281.874025 45.883636 
L 282.041425 90.477975 
L 282.208825 104.387007 
L 282.376225 103.168436 
L 282.543625 85.84717 
L 282.711025 95.954909 
L 282.878425 91.167762 
L 283.045825 80.643828 
L 283.213225 57.147432 
L 283.380625 61.01862 
L 283.548025 85.180992 
L 283.715425 89.556685 
L 283.882825 80.326587 
L 284.217625 107.177335 
L 284.385025 100.657911 
L 284.552425 84.116749 
L 284.719825 103.415268 
L 284.887225 103.755659 
L 285.054625 122.904879 
L 285.222025 122.523885 
L 285.389425 116.949417 
L 285.556825 100.516672 
L 285.891625 121.484034 
L 286.226425 103.608431 
L 286.393825 49.659491 
L 287.063425 115.572178 
L 287.230825 87.092433 
L 287.398225 92.109917 
L 287.565625 100.880309 
L 287.900425 72.567395 
L 288.067825 112.659133 
L 288.402625 88.128699 
L 288.570025 83.370418 
L 288.737425 68.754031 
L 288.904825 90.603613 
L 289.072225 78.414683 
L 289.239625 91.111257 
L 289.407025 82.095487 
L 289.741825 102.396129 
L 290.244025 72.076642 
L 290.411425 73.487968 
L 290.578825 86.564934 
L 290.746225 89.664703 
L 290.913625 78.259745 
L 291.081025 77.13695 
L 291.415825 128.155841 
L 291.583225 105.594029 
L 291.750625 106.333578 
L 291.918025 105.88181 
L 292.085425 101.51462 
L 292.420225 115.630379 
L 292.587625 85.087477 
L 292.755025 86.279379 
L 293.089825 108.050482 
L 293.257225 87.526344 
L 293.424625 88.651982 
L 293.759425 101.438416 
L 293.926825 70.732662 
L 294.261625 99.534862 
L 294.429025 84.167285 
L 294.596425 96.23102 
L 294.763825 95.757172 
L 294.931225 84.519991 
L 295.098625 90.434378 
L 295.266025 77.412341 
L 295.768225 105.726666 
L 295.935625 79.048751 
L 296.103025 88.629186 
L 296.437825 123.463351 
L 296.605225 131.464421 
L 296.772625 133.556661 
L 296.940025 131.399008 
L 297.107425 100.110417 
L 297.442225 134.104172 
L 297.777025 102.943702 
L 297.944425 110.750094 
L 298.446625 153.757462 
L 298.614025 152.579181 
L 298.781425 135.420959 
L 298.948825 131.080608 
L 299.283625 145.153561 
L 299.451025 124.388973 
L 299.618425 153.23804 
L 299.785825 136.49574 
L 299.953225 136.605011 
L 300.120625 146.115807 
L 300.288025 113.6038 
L 300.455425 106.601581 
L 300.622825 125.283632 
L 300.790225 113.833345 
L 300.957625 78.333947 
L 301.292425 105.422053 
L 301.459825 78.278449 
L 301.627225 104.722415 
L 301.962025 97.243078 
L 302.129425 85.691081 
L 302.296825 92.402944 
L 302.464225 109.208755 
L 302.631625 109.618694 
L 302.799025 126.052095 
L 302.966425 111.421203 
L 303.133825 121.726168 
L 303.468625 111.300353 
L 303.636025 126.377687 
L 303.803425 112.420776 
L 303.970825 143.774858 
L 304.305625 152.551278 
L 304.473025 137.809232 
L 304.807825 156.960727 
L 305.142625 127.53447 
L 305.310025 126.459211 
L 305.477425 92.667314 
L 305.644825 133.580357 
L 305.979625 94.74808 
L 306.147025 105.704977 
L 306.314425 101.816481 
L 306.481825 124.647866 
L 306.816625 103.369867 
L 306.984025 105.172053 
L 307.151425 92.844557 
L 307.318825 90.480538 
L 307.486225 107.339215 
L 307.653625 104.640244 
L 307.821025 119.232074 
L 307.988425 113.895859 
L 308.155825 101.182615 
L 308.323225 110.534157 
L 308.490625 102.413197 
L 308.658025 120.644422 
L 308.825425 105.782512 
L 309.160225 135.383972 
L 309.327625 118.406031 
L 309.495025 115.760766 
L 309.662425 120.945347 
L 309.829825 139.011244 
L 310.332025 82.558954 
L 310.499425 107.005107 
L 310.666825 113.103543 
L 310.834225 92.072452 
L 311.001625 87.302649 
L 311.169025 127.06137 
L 311.336425 136.203382 
L 311.503825 108.098174 
L 312.006025 136.96176 
L 312.173425 118.840774 
L 312.508225 123.627051 
L 312.675625 157.271807 
L 312.843025 156.612787 
L 313.010425 156.781087 
L 313.177825 124.307055 
L 313.345225 130.19279 
L 313.512625 126.141633 
L 313.680025 130.380002 
L 313.847425 125.640886 
L 314.014825 116.546059 
L 314.182225 89.231373 
L 314.349625 88.587524 
L 314.517025 92.530145 
L 314.684425 128.365785 
L 315.019225 84.416526 
L 315.354025 117.711093 
L 315.521425 90.274268 
L 315.688825 96.572844 
L 315.856225 122.564308 
L 316.023625 118.851922 
L 316.191025 111.631432 
L 316.358425 98.541577 
L 316.525825 123.174627 
L 316.693225 122.917948 
L 316.860625 130.720625 
L 317.362825 101.342866 
L 317.530225 105.04382 
L 317.697625 123.246656 
L 317.865025 104.280115 
L 318.032425 110.943148 
L 318.199825 122.393356 
L 318.367225 110.327899 
L 318.534625 89.619301 
L 318.702025 103.028381 
L 318.869425 140.946111 
L 319.036825 112.201469 
L 319.371625 98.369331 
L 319.539025 145.447275 
L 319.706425 117.094734 
L 319.873825 108.472052 
L 320.041225 114.856187 
L 320.208625 107.563214 
L 320.376025 122.172093 
L 320.543425 107.93931 
L 320.710825 119.934638 
L 320.878225 119.182073 
L 321.045625 124.9712 
L 321.380425 101.698172 
L 321.547825 78.009355 
L 321.715225 100.791319 
L 321.882625 86.564199 
L 322.050025 92.633898 
L 322.217425 90.49337 
L 322.552225 112.81892 
L 322.719625 96.759389 
L 322.887025 122.733101 
L 323.054425 125.700662 
L 323.221825 133.586628 
L 323.556625 103.139981 
L 323.724025 135.638647 
L 323.891425 143.319989 
L 324.226225 96.799062 
L 324.561025 136.575399 
L 324.895825 89.142056 
L 325.063225 120.965716 
L 325.230625 129.620521 
L 325.398025 107.311269 
L 325.565425 104.704095 
L 325.732825 121.837945 
L 325.900225 102.463593 
L 326.235025 93.500705 
L 326.402425 101.733737 
L 326.737225 74.38012 
L 326.904625 74.451565 
L 327.239425 52.067863 
L 327.406825 76.326235 
L 327.574225 55.622109 
L 327.909025 88.418009 
L 328.076425 84.639584 
L 328.243825 85.58158 
L 328.411225 77.630753 
L 328.578625 62.007031 
L 328.746025 92.602383 
L 328.913425 85.086307 
L 329.080825 87.777424 
L 329.248225 85.484751 
L 329.415625 64.130499 
L 329.583025 71.761586 
L 329.750425 97.928239 
L 329.917825 104.201028 
L 330.085225 104.69701 
L 330.252625 94.911236 
L 330.420025 103.372561 
L 330.587425 119.788487 
L 330.754825 121.127714 
L 330.922225 104.012585 
L 331.089625 103.907798 
L 331.257025 116.814056 
L 331.424425 109.301608 
L 331.591825 82.459785 
L 331.759225 96.929226 
L 332.094025 134.787407 
L 332.261425 140.825745 
L 332.428825 131.420903 
L 332.596225 110.024257 
L 332.763625 111.1982 
L 332.931025 151.373919 
L 333.098425 130.497661 
L 333.265825 142.426607 
L 333.768025 101.112178 
L 333.935425 118.057727 
L 334.102825 118.042177 
L 334.270225 107.386621 
L 334.605025 145.802334 
L 334.939825 108.329728 
L 335.107225 141.521194 
L 335.274625 113.435503 
L 335.442025 105.756882 
L 335.609425 106.952913 
L 335.776825 140.025106 
L 336.111625 116.241692 
L 336.446425 106.540489 
L 336.613825 128.059695 
L 336.781225 119.025052 
L 336.948625 101.358004 
L 337.116025 123.461292 
L 337.283425 109.734453 
L 337.450825 119.896189 
L 337.618225 112.094294 
L 337.785625 132.044839 
L 337.953025 112.498672 
L 338.120425 109.647424 
L 338.455225 146.715735 
L 338.622625 161.397474 
L 339.124825 112.111076 
L 339.292225 128.97873 
L 339.627025 113.796652 
L 339.961825 123.86061 
L 340.129225 119.489995 
L 340.296625 86.761111 
L 340.631425 132.021769 
L 340.798825 126.044949 
L 340.966225 142.678539 
L 341.133625 144.405919 
L 341.301025 131.994857 
L 341.635825 171.758106 
L 341.803225 110.250151 
L 341.970625 109.895345 
L 342.138025 107.147117 
L 342.305425 140.083892 
L 342.472825 126.414638 
L 342.640225 127.426537 
L 342.807625 135.406118 
L 342.975025 112.609311 
L 343.142425 117.729695 
L 343.477225 133.273424 
L 343.812025 159.632643 
L 343.979425 145.260481 
L 344.146825 149.737717 
L 344.314225 122.00271 
L 344.481625 127.523418 
L 344.649025 117.943161 
L 344.816425 129.180232 
L 345.151225 108.819007 
L 345.486025 105.190231 
L 345.653425 117.460669 
L 345.820825 115.498433 
L 345.988225 82.393732 
L 346.323025 108.278637 
L 346.657825 88.944139 
L 346.825225 112.305705 
L 346.992625 107.378078 
L 347.160025 120.769072 
L 347.327425 87.295777 
L 347.494825 110.737262 
L 347.662225 112.547044 
L 347.829625 125.067534 
L 347.997025 115.131206 
L 348.164425 115.440548 
L 348.331825 100.85038 
L 348.499225 115.901967 
L 348.666625 115.889766 
L 348.834025 116.863356 
L 349.001425 114.708276 
L 349.168825 99.002354 
L 349.336225 125.928514 
L 349.503625 131.553008 
L 349.671025 129.822234 
L 349.838425 114.350769 
L 350.005825 122.584377 
L 350.173225 123.805544 
L 350.340625 129.639974 
L 350.508025 130.019009 
L 350.675425 118.223378 
L 350.842825 121.490611 
L 351.177625 149.699379 
L 351.345025 140.681316 
L 351.512425 117.889672 
L 351.679825 123.377601 
L 351.847225 122.6359 
L 352.014625 105.78312 
L 352.182025 76.480319 
L 352.349425 86.738064 
L 352.516825 85.453735 
L 352.684225 133.604438 
L 352.851625 138.954731 
L 353.019025 132.328714 
L 353.186425 135.821767 
L 353.353825 134.795723 
L 353.521225 132.462266 
L 353.688625 116.808513 
L 353.856025 143.865211 
L 354.023425 137.631071 
L 354.190825 111.91975 
L 354.358225 130.523499 
L 354.693025 96.918979 
L 354.860425 135.098366 
L 355.027825 115.034171 
L 355.195225 119.164189 
L 355.362625 134.390963 
L 355.530025 169.355031 
L 355.697425 140.088411 
L 355.864825 148.902992 
L 356.032225 147.556847 
L 356.199625 122.055336 
L 356.367025 119.077786 
L 356.534425 112.760898 
L 356.701825 121.921616 
L 356.869225 149.570421 
L 357.036625 135.306048 
L 357.204025 132.328054 
L 357.371425 123.994487 
L 357.538825 149.599047 
L 357.873625 142.497491 
L 358.041025 160.685838 
L 358.208425 150.653094 
L 358.375825 127.874309 
L 358.543225 133.985798 
L 358.710625 127.246363 
L 359.045425 131.832224 
L 359.212825 158.57407 
L 359.380225 115.594978 
L 359.547625 109.487326 
L 359.715025 88.874223 
L 360.217225 140.233443 
L 360.384625 113.796728 
L 360.552025 123.265436 
L 360.886825 100.422925 
L 361.054225 102.920688 
L 361.221625 100.341687 
L 361.389025 74.877867 
L 361.556425 78.116259 
L 361.723825 70.621541 
L 361.891225 71.610709 
L 362.058625 75.014586 
L 362.393425 110.245489 
L 362.560825 101.117916 
L 362.728225 98.424352 
L 362.895625 101.184369 
L 363.063025 97.061976 
L 363.230425 96.385775 
L 363.565225 100.252943 
L 363.732625 88.713186 
L 363.900025 98.182197 
L 364.067425 78.107769 
L 364.234825 75.318514 
L 364.569625 111.067839 
L 364.904425 128.236856 
L 365.071825 127.110483 
L 365.406625 114.790809 
L 365.741425 146.513541 
L 366.076225 97.806664 
L 366.243625 123.218912 
L 366.411025 122.832398 
L 366.578425 116.37334 
L 366.745825 121.002838 
L 366.913225 99.736075 
L 367.080625 118.725811 
L 367.248025 95.043001 
L 367.582825 130.816601 
L 367.917625 111.060415 
L 368.085025 117.198234 
L 368.252425 118.035545 
L 368.419825 117.591127 
L 368.587225 129.83023 
L 368.754625 94.578972 
L 368.922025 95.579726 
L 369.089425 108.605367 
L 369.256825 111.095958 
L 369.424225 88.528384 
L 369.591625 89.229135 
L 369.759025 81.465688 
L 369.926425 85.415348 
L 370.093825 114.277635 
L 370.428625 100.151952 
L 370.596025 104.286673 
L 370.930825 124.93415 
L 371.265625 105.557244 
L 371.265625 105.557244 
" clip-path="url(#pf7eeed125a)" style="fill: none; stroke: #1f77b4; stroke-width: 1.5; stroke-linecap: square"/>
   </g>
   <g id="line2d_18">
    <path d="M 36.633025 234.470641 
L 37.302625 192.468911 
L 37.972225 164.314309 
L 38.641825 145.441715 
L 39.311425 132.791037 
L 39.981025 124.311034 
L 40.650625 118.626718 
L 41.320225 114.816407 
L 41.989825 112.262279 
L 42.659425 110.550196 
L 43.329025 109.402552 
L 43.998625 108.633263 
L 44.835625 108.017818 
L 45.840025 107.589772 
L 47.179225 107.30306 
L 49.188025 107.139575 
L 53.540425 107.074345 
L 92.544625 107.069112 
L 371.265625 107.069112 
L 371.265625 107.069112 
" clip-path="url(#pf7eeed125a)" style="fill: none; stroke: #ff7f0e; stroke-width: 1.5; stroke-linecap: square"/>
   </g>
   <g id="patch_3">
    <path d="M 36.465625 253.44 
L 36.465625 36 
" style="fill: none; stroke: #000000; stroke-width: 0.8; stroke-linejoin: miter; stroke-linecap: square"/>
   </g>
   <g id="patch_4">
    <path d="M 371.265625 253.44 
L 371.265625 36 
" style="fill: none; stroke: #000000; stroke-width: 0.8; stroke-linejoin: miter; stroke-linecap: square"/>
   </g>
   <g id="patch_5">
    <path d="M 36.465625 253.44 
L 371.265625 253.44 
" style="fill: none; stroke: #000000; stroke-width: 0.8; stroke-linejoin: miter; stroke-linecap: square"/>
   </g>
   <g id="patch_6">
    <path d="M 36.465625 36 
L 371.265625 36 
" style="fill: none; stroke: #000000; stroke-width: 0.8; stroke-linejoin: miter; stroke-linecap: square"/>
   </g>
   <g id="legend_1">
    <g id="patch_7">
     <path d="M 43.465625 248.44 
L 93.165625 248.44 
Q 95.165625 248.44 95.165625 246.44 
L 95.165625 214.361875 
Q 95.165625 212.361875 93.165625 212.361875 
L 43.465625 212.361875 
Q 41.465625 212.361875 41.465625 214.361875 
L 41.465625 246.44 
Q 41.465625 248.44 43.465625 248.44 
z
" style="fill: #ffffff; opacity: 0.8; stroke: #cccccc; stroke-linejoin: miter"/>
    </g>
    <g id="line2d_19">
     <path d="M 45.465625 224.161875 
L 55.465625 224.161875 
L 65.465625 224.161875 
" style="fill: none; stroke: #1f77b4; stroke-width: 1.5; stroke-linecap: square"/>
    </g>
    <g id="text_17">
     <!-- $\hat{y(t)}$ -->
     <g transform="translate(73.465625 227.661875) scale(0.1 -0.1)">
      <defs>
       <path id="DejaVuSans-302" d="M -1831 5119 
L -1369 5119 
L -603 3944 
L -1038 3944 
L -1600 4709 
L -2163 3944 
L -2597 3944 
L -1831 5119 
z
M -1600 3584 
L -1600 3584 
z
" transform="scale(0.015625)"/>
       <path id="DejaVuSans-Oblique-79" d="M 1588 -325 
Q 1188 -997 936 -1164 
Q 684 -1331 294 -1331 
L -159 -1331 
L -63 -850 
L 269 -850 
Q 509 -850 678 -719 
Q 847 -588 1056 -206 
L 1234 128 
L 459 3500 
L 1069 3500 
L 1650 819 
L 3256 3500 
L 3859 3500 
L 1588 -325 
z
" transform="scale(0.015625)"/>
       <path id="DejaVuSans-28" d="M 1984 4856 
Q 1566 4138 1362 3434 
Q 1159 2731 1159 2009 
Q 1159 1288 1364 580 
Q 1569 -128 1984 -844 
L 1484 -844 
Q 1016 -109 783 600 
Q 550 1309 550 2009 
Q 550 2706 781 3412 
Q 1013 4119 1484 4856 
L 1984 4856 
z
" transform="scale(0.015625)"/>
       <path id="DejaVuSans-Oblique-74" d="M 2706 3500 
L 2619 3053 
L 1472 3053 
L 1100 1153 
Q 1081 1047 1072 975 
Q 1063 903 1063 863 
Q 1063 663 1183 572 
Q 1303 481 1569 481 
L 2150 481 
L 2053 0 
L 1503 0 
Q 991 0 739 200 
Q 488 400 488 806 
Q 488 878 497 964 
Q 506 1050 525 1153 
L 897 3053 
L 409 3053 
L 500 3500 
L 978 3500 
L 1172 4494 
L 1747 4494 
L 1556 3500 
L 2706 3500 
z
" transform="scale(0.015625)"/>
       <path id="DejaVuSans-29" d="M 513 4856 
L 1013 4856 
Q 1481 4119 1714 3412 
Q 1947 2706 1947 2009 
Q 1947 1309 1714 600 
Q 1481 -109 1013 -844 
L 513 -844 
Q 928 -128 1133 580 
Q 1338 1288 1338 2009 
Q 1338 2731 1133 3434 
Q 928 4138 513 4856 
z
" transform="scale(0.015625)"/>
      </defs>
      <use xlink:href="#DejaVuSans-302" transform="translate(135.682129 33.015625)"/>
      <use xlink:href="#DejaVuSans-Oblique-79" transform="translate(0 0.640625)"/>
      <use xlink:href="#DejaVuSans-28" transform="translate(59.179688 0.640625)"/>
      <use xlink:href="#DejaVuSans-Oblique-74" transform="translate(98.193359 0.640625)"/>
      <use xlink:href="#DejaVuSans-29" transform="translate(137.402344 0.640625)"/>
     </g>
    </g>
    <g id="line2d_20">
     <path d="M 45.465625 238.860312 
L 55.465625 238.860312 
L 65.465625 238.860312 
" style="fill: none; stroke: #ff7f0e; stroke-width: 1.5; stroke-linecap: square"/>
    </g>
    <g id="text_18">
     <!-- $x(t)$ -->
     <g transform="translate(73.465625 242.360312) scale(0.1 -0.1)">
      <defs>
       <path id="DejaVuSans-Oblique-78" d="M 3841 3500 
L 2234 1784 
L 3219 0 
L 2559 0 
L 1819 1388 
L 531 0 
L -166 0 
L 1556 1844 
L 641 3500 
L 1300 3500 
L 1972 2234 
L 3144 3500 
L 3841 3500 
z
" transform="scale(0.015625)"/>
      </defs>
      <use xlink:href="#DejaVuSans-Oblique-78" transform="translate(0 0.125)"/>
      <use xlink:href="#DejaVuSans-28" transform="translate(59.179688 0.125)"/>
      <use xlink:href="#DejaVuSans-Oblique-74" transform="translate(98.193359 0.125)"/>
      <use xlink:href="#DejaVuSans-29" transform="translate(137.402344 0.125)"/>
     </g>
    </g>
   </g>
  </g>
  <g id="text_19">
   <!-- Accumulate to Threshold model with input of 0.2 with rms=3  -->
   <g transform="translate(13.297188 16.318125) scale(0.12 -0.12)">
    <defs>
     <path id="DejaVuSans-41" d="M 2188 4044 
L 1331 1722 
L 3047 1722 
L 2188 4044 
z
M 1831 4666 
L 2547 4666 
L 4325 0 
L 3669 0 
L 3244 1197 
L 1141 1197 
L 716 0 
L 50 0 
L 1831 4666 
z
" transform="scale(0.015625)"/>
     <path id="DejaVuSans-63" d="M 3122 3366 
L 3122 2828 
Q 2878 2963 2633 3030 
Q 2388 3097 2138 3097 
Q 1578 3097 1268 2742 
Q 959 2388 959 1747 
Q 959 1106 1268 751 
Q 1578 397 2138 397 
Q 2388 397 2633 464 
Q 2878 531 3122 666 
L 3122 134 
Q 2881 22 2623 -34 
Q 2366 -91 2075 -91 
Q 1284 -91 818 406 
Q 353 903 353 1747 
Q 353 2603 823 3093 
Q 1294 3584 2113 3584 
Q 2378 3584 2631 3529 
Q 2884 3475 3122 3366 
z
" transform="scale(0.015625)"/>
     <path id="DejaVuSans-75" d="M 544 1381 
L 544 3500 
L 1119 3500 
L 1119 1403 
Q 1119 906 1312 657 
Q 1506 409 1894 409 
Q 2359 409 2629 706 
Q 2900 1003 2900 1516 
L 2900 3500 
L 3475 3500 
L 3475 0 
L 2900 0 
L 2900 538 
Q 2691 219 2414 64 
Q 2138 -91 1772 -91 
Q 1169 -91 856 284 
Q 544 659 544 1381 
z
M 1991 3584 
L 1991 3584 
z
" transform="scale(0.015625)"/>
     <path id="DejaVuSans-6d" d="M 3328 2828 
Q 3544 3216 3844 3400 
Q 4144 3584 4550 3584 
Q 5097 3584 5394 3201 
Q 5691 2819 5691 2113 
L 5691 0 
L 5113 0 
L 5113 2094 
Q 5113 2597 4934 2840 
Q 4756 3084 4391 3084 
Q 3944 3084 3684 2787 
Q 3425 2491 3425 1978 
L 3425 0 
L 2847 0 
L 2847 2094 
Q 2847 2600 2669 2842 
Q 2491 3084 2119 3084 
Q 1678 3084 1418 2786 
Q 1159 2488 1159 1978 
L 1159 0 
L 581 0 
L 581 3500 
L 1159 3500 
L 1159 2956 
Q 1356 3278 1631 3431 
Q 1906 3584 2284 3584 
Q 2666 3584 2933 3390 
Q 3200 3197 3328 2828 
z
" transform="scale(0.015625)"/>
     <path id="DejaVuSans-6c" d="M 603 4863 
L 1178 4863 
L 1178 0 
L 603 0 
L 603 4863 
z
" transform="scale(0.015625)"/>
     <path id="DejaVuSans-61" d="M 2194 1759 
Q 1497 1759 1228 1600 
Q 959 1441 959 1056 
Q 959 750 1161 570 
Q 1363 391 1709 391 
Q 2188 391 2477 730 
Q 2766 1069 2766 1631 
L 2766 1759 
L 2194 1759 
z
M 3341 1997 
L 3341 0 
L 2766 0 
L 2766 531 
Q 2569 213 2275 61 
Q 1981 -91 1556 -91 
Q 1019 -91 701 211 
Q 384 513 384 1019 
Q 384 1609 779 1909 
Q 1175 2209 1959 2209 
L 2766 2209 
L 2766 2266 
Q 2766 2663 2505 2880 
Q 2244 3097 1772 3097 
Q 1472 3097 1187 3025 
Q 903 2953 641 2809 
L 641 3341 
Q 956 3463 1253 3523 
Q 1550 3584 1831 3584 
Q 2591 3584 2966 3190 
Q 3341 2797 3341 1997 
z
" transform="scale(0.015625)"/>
     <path id="DejaVuSans-74" d="M 1172 4494 
L 1172 3500 
L 2356 3500 
L 2356 3053 
L 1172 3053 
L 1172 1153 
Q 1172 725 1289 603 
Q 1406 481 1766 481 
L 2356 481 
L 2356 0 
L 1766 0 
Q 1100 0 847 248 
Q 594 497 594 1153 
L 594 3053 
L 172 3053 
L 172 3500 
L 594 3500 
L 594 4494 
L 1172 4494 
z
" transform="scale(0.015625)"/>
     <path id="DejaVuSans-65" d="M 3597 1894 
L 3597 1613 
L 953 1613 
Q 991 1019 1311 708 
Q 1631 397 2203 397 
Q 2534 397 2845 478 
Q 3156 559 3463 722 
L 3463 178 
Q 3153 47 2828 -22 
Q 2503 -91 2169 -91 
Q 1331 -91 842 396 
Q 353 884 353 1716 
Q 353 2575 817 3079 
Q 1281 3584 2069 3584 
Q 2775 3584 3186 3129 
Q 3597 2675 3597 1894 
z
M 3022 2063 
Q 3016 2534 2758 2815 
Q 2500 3097 2075 3097 
Q 1594 3097 1305 2825 
Q 1016 2553 972 2059 
L 3022 2063 
z
" transform="scale(0.015625)"/>
     <path id="DejaVuSans-20" transform="scale(0.015625)"/>
     <path id="DejaVuSans-6f" d="M 1959 3097 
Q 1497 3097 1228 2736 
Q 959 2375 959 1747 
Q 959 1119 1226 758 
Q 1494 397 1959 397 
Q 2419 397 2687 759 
Q 2956 1122 2956 1747 
Q 2956 2369 2687 2733 
Q 2419 3097 1959 3097 
z
M 1959 3584 
Q 2709 3584 3137 3096 
Q 3566 2609 3566 1747 
Q 3566 888 3137 398 
Q 2709 -91 1959 -91 
Q 1206 -91 779 398 
Q 353 888 353 1747 
Q 353 2609 779 3096 
Q 1206 3584 1959 3584 
z
" transform="scale(0.015625)"/>
     <path id="DejaVuSans-54" d="M -19 4666 
L 3928 4666 
L 3928 4134 
L 2272 4134 
L 2272 0 
L 1638 0 
L 1638 4134 
L -19 4134 
L -19 4666 
z
" transform="scale(0.015625)"/>
     <path id="DejaVuSans-68" d="M 3513 2113 
L 3513 0 
L 2938 0 
L 2938 2094 
Q 2938 2591 2744 2837 
Q 2550 3084 2163 3084 
Q 1697 3084 1428 2787 
Q 1159 2491 1159 1978 
L 1159 0 
L 581 0 
L 581 4863 
L 1159 4863 
L 1159 2956 
Q 1366 3272 1645 3428 
Q 1925 3584 2291 3584 
Q 2894 3584 3203 3211 
Q 3513 2838 3513 2113 
z
" transform="scale(0.015625)"/>
     <path id="DejaVuSans-72" d="M 2631 2963 
Q 2534 3019 2420 3045 
Q 2306 3072 2169 3072 
Q 1681 3072 1420 2755 
Q 1159 2438 1159 1844 
L 1159 0 
L 581 0 
L 581 3500 
L 1159 3500 
L 1159 2956 
Q 1341 3275 1631 3429 
Q 1922 3584 2338 3584 
Q 2397 3584 2469 3576 
Q 2541 3569 2628 3553 
L 2631 2963 
z
" transform="scale(0.015625)"/>
     <path id="DejaVuSans-73" d="M 2834 3397 
L 2834 2853 
Q 2591 2978 2328 3040 
Q 2066 3103 1784 3103 
Q 1356 3103 1142 2972 
Q 928 2841 928 2578 
Q 928 2378 1081 2264 
Q 1234 2150 1697 2047 
L 1894 2003 
Q 2506 1872 2764 1633 
Q 3022 1394 3022 966 
Q 3022 478 2636 193 
Q 2250 -91 1575 -91 
Q 1294 -91 989 -36 
Q 684 19 347 128 
L 347 722 
Q 666 556 975 473 
Q 1284 391 1588 391 
Q 1994 391 2212 530 
Q 2431 669 2431 922 
Q 2431 1156 2273 1281 
Q 2116 1406 1581 1522 
L 1381 1569 
Q 847 1681 609 1914 
Q 372 2147 372 2553 
Q 372 3047 722 3315 
Q 1072 3584 1716 3584 
Q 2034 3584 2315 3537 
Q 2597 3491 2834 3397 
z
" transform="scale(0.015625)"/>
     <path id="DejaVuSans-64" d="M 2906 2969 
L 2906 4863 
L 3481 4863 
L 3481 0 
L 2906 0 
L 2906 525 
Q 2725 213 2448 61 
Q 2172 -91 1784 -91 
Q 1150 -91 751 415 
Q 353 922 353 1747 
Q 353 2572 751 3078 
Q 1150 3584 1784 3584 
Q 2172 3584 2448 3432 
Q 2725 3281 2906 2969 
z
M 947 1747 
Q 947 1113 1208 752 
Q 1469 391 1925 391 
Q 2381 391 2643 752 
Q 2906 1113 2906 1747 
Q 2906 2381 2643 2742 
Q 2381 3103 1925 3103 
Q 1469 3103 1208 2742 
Q 947 2381 947 1747 
z
" transform="scale(0.015625)"/>
     <path id="DejaVuSans-77" d="M 269 3500 
L 844 3500 
L 1563 769 
L 2278 3500 
L 2956 3500 
L 3675 769 
L 4391 3500 
L 4966 3500 
L 4050 0 
L 3372 0 
L 2619 2869 
L 1863 0 
L 1184 0 
L 269 3500 
z
" transform="scale(0.015625)"/>
     <path id="DejaVuSans-69" d="M 603 3500 
L 1178 3500 
L 1178 0 
L 603 0 
L 603 3500 
z
M 603 4863 
L 1178 4863 
L 1178 4134 
L 603 4134 
L 603 4863 
z
" transform="scale(0.015625)"/>
     <path id="DejaVuSans-6e" d="M 3513 2113 
L 3513 0 
L 2938 0 
L 2938 2094 
Q 2938 2591 2744 2837 
Q 2550 3084 2163 3084 
Q 1697 3084 1428 2787 
Q 1159 2491 1159 1978 
L 1159 0 
L 581 0 
L 581 3500 
L 1159 3500 
L 1159 2956 
Q 1366 3272 1645 3428 
Q 1925 3584 2291 3584 
Q 2894 3584 3203 3211 
Q 3513 2838 3513 2113 
z
" transform="scale(0.015625)"/>
     <path id="DejaVuSans-70" d="M 1159 525 
L 1159 -1331 
L 581 -1331 
L 581 3500 
L 1159 3500 
L 1159 2969 
Q 1341 3281 1617 3432 
Q 1894 3584 2278 3584 
Q 2916 3584 3314 3078 
Q 3713 2572 3713 1747 
Q 3713 922 3314 415 
Q 2916 -91 2278 -91 
Q 1894 -91 1617 61 
Q 1341 213 1159 525 
z
M 3116 1747 
Q 3116 2381 2855 2742 
Q 2594 3103 2138 3103 
Q 1681 3103 1420 2742 
Q 1159 2381 1159 1747 
Q 1159 1113 1420 752 
Q 1681 391 2138 391 
Q 2594 391 2855 752 
Q 3116 1113 3116 1747 
z
" transform="scale(0.015625)"/>
     <path id="DejaVuSans-66" d="M 2375 4863 
L 2375 4384 
L 1825 4384 
Q 1516 4384 1395 4259 
Q 1275 4134 1275 3809 
L 1275 3500 
L 2222 3500 
L 2222 3053 
L 1275 3053 
L 1275 0 
L 697 0 
L 697 3053 
L 147 3053 
L 147 3500 
L 697 3500 
L 697 3744 
Q 697 4328 969 4595 
Q 1241 4863 1831 4863 
L 2375 4863 
z
" transform="scale(0.015625)"/>
     <path id="DejaVuSans-3d" d="M 678 2906 
L 4684 2906 
L 4684 2381 
L 678 2381 
L 678 2906 
z
M 678 1631 
L 4684 1631 
L 4684 1100 
L 678 1100 
L 678 1631 
z
" transform="scale(0.015625)"/>
    </defs>
    <use xlink:href="#DejaVuSans-41"/>
    <use xlink:href="#DejaVuSans-63" x="66.658203"/>
    <use xlink:href="#DejaVuSans-63" x="121.638672"/>
    <use xlink:href="#DejaVuSans-75" x="176.619141"/>
    <use xlink:href="#DejaVuSans-6d" x="239.998047"/>
    <use xlink:href="#DejaVuSans-75" x="337.410156"/>
    <use xlink:href="#DejaVuSans-6c" x="400.789062"/>
    <use xlink:href="#DejaVuSans-61" x="428.572266"/>
    <use xlink:href="#DejaVuSans-74" x="489.851562"/>
    <use xlink:href="#DejaVuSans-65" x="529.060547"/>
    <use xlink:href="#DejaVuSans-20" x="590.583984"/>
    <use xlink:href="#DejaVuSans-74" x="622.371094"/>
    <use xlink:href="#DejaVuSans-6f" x="661.580078"/>
    <use xlink:href="#DejaVuSans-20" x="722.761719"/>
    <use xlink:href="#DejaVuSans-54" x="754.548828"/>
    <use xlink:href="#DejaVuSans-68" x="815.632812"/>
    <use xlink:href="#DejaVuSans-72" x="879.011719"/>
    <use xlink:href="#DejaVuSans-65" x="917.875"/>
    <use xlink:href="#DejaVuSans-73" x="979.398438"/>
    <use xlink:href="#DejaVuSans-68" x="1031.498047"/>
    <use xlink:href="#DejaVuSans-6f" x="1094.876953"/>
    <use xlink:href="#DejaVuSans-6c" x="1156.058594"/>
    <use xlink:href="#DejaVuSans-64" x="1183.841797"/>
    <use xlink:href="#DejaVuSans-20" x="1247.318359"/>
    <use xlink:href="#DejaVuSans-6d" x="1279.105469"/>
    <use xlink:href="#DejaVuSans-6f" x="1376.517578"/>
    <use xlink:href="#DejaVuSans-64" x="1437.699219"/>
    <use xlink:href="#DejaVuSans-65" x="1501.175781"/>
    <use xlink:href="#DejaVuSans-6c" x="1562.699219"/>
    <use xlink:href="#DejaVuSans-20" x="1590.482422"/>
    <use xlink:href="#DejaVuSans-77" x="1622.269531"/>
    <use xlink:href="#DejaVuSans-69" x="1704.056641"/>
    <use xlink:href="#DejaVuSans-74" x="1731.839844"/>
    <use xlink:href="#DejaVuSans-68" x="1771.048828"/>
    <use xlink:href="#DejaVuSans-20" x="1834.427734"/>
    <use xlink:href="#DejaVuSans-69" x="1866.214844"/>
    <use xlink:href="#DejaVuSans-6e" x="1893.998047"/>
    <use xlink:href="#DejaVuSans-70" x="1957.376953"/>
    <use xlink:href="#DejaVuSans-75" x="2020.853516"/>
    <use xlink:href="#DejaVuSans-74" x="2084.232422"/>
    <use xlink:href="#DejaVuSans-20" x="2123.441406"/>
    <use xlink:href="#DejaVuSans-6f" x="2155.228516"/>
    <use xlink:href="#DejaVuSans-66" x="2216.410156"/>
    <use xlink:href="#DejaVuSans-20" x="2251.615234"/>
    <use xlink:href="#DejaVuSans-30" x="2283.402344"/>
    <use xlink:href="#DejaVuSans-2e" x="2347.025391"/>
    <use xlink:href="#DejaVuSans-32" x="2378.8125"/>
    <use xlink:href="#DejaVuSans-20" x="2442.435547"/>
    <use xlink:href="#DejaVuSans-77" x="2474.222656"/>
    <use xlink:href="#DejaVuSans-69" x="2556.009766"/>
    <use xlink:href="#DejaVuSans-74" x="2583.792969"/>
    <use xlink:href="#DejaVuSans-68" x="2623.001953"/>
    <use xlink:href="#DejaVuSans-20" x="2686.380859"/>
    <use xlink:href="#DejaVuSans-72" x="2718.167969"/>
    <use xlink:href="#DejaVuSans-6d" x="2757.53125"/>
    <use xlink:href="#DejaVuSans-73" x="2854.943359"/>
    <use xlink:href="#DejaVuSans-3d" x="2907.042969"/>
    <use xlink:href="#DejaVuSans-33" x="2990.832031"/>
    <use xlink:href="#DejaVuSans-20" x="3054.455078"/>
   </g>
  </g>
 </g>
 <defs>
  <clipPath id="pf7eeed125a">
   <rect x="36.465625" y="36" width="334.8" height="217.44"/>
  </clipPath>
 </defs>
</svg>
