<?xml version="1.0" encoding="utf-8" standalone="no"?>
<!DOCTYPE svg PUBLIC "-//W3C//DTD SVG 1.1//EN"
  "http://www.w3.org/Graphics/SVG/1.1/DTD/svg11.dtd">
<svg xmlns:xlink="http://www.w3.org/1999/xlink" width="401.378437pt" height="277.318125pt" viewBox="0 0 401.378437 277.318125" xmlns="http://www.w3.org/2000/svg" version="1.1">
 <metadata>
  <rdf:RDF xmlns:dc="http://purl.org/dc/elements/1.1/" xmlns:cc="http://creativecommons.org/ns#" xmlns:rdf="http://www.w3.org/1999/02/22-rdf-syntax-ns#">
   <cc:Work>
    <dc:type rdf:resource="http://purl.org/dc/dcmitype/StillImage"/>
    <dc:date>2022-11-17T12:01:30.197161</dc:date>
    <dc:format>image/svg+xml</dc:format>
    <dc:creator>
     <cc:Agent>
      <dc:title>Matplotlib v3.6.0, https://matplotlib.org/</dc:title>
     </cc:Agent>
    </dc:creator>
   </cc:Work>
  </rdf:RDF>
 </metadata>
 <defs>
  <style type="text/css">*{stroke-linejoin: round; stroke-linecap: butt}</style>
 </defs>
 <g id="figure_1">
  <g id="patch_1">
   <path d="M 0 277.318125 
L 401.378437 277.318125 
L 401.378437 0 
L 0 0 
L 0 277.318125 
z
" style="fill: none"/>
  </g>
  <g id="axes_1">
   <g id="patch_2">
    <path d="M 44.845313 253.44 
L 379.645313 253.44 
L 379.645313 36 
L 44.845313 36 
z
" style="fill: #ffffff"/>
   </g>
   <g id="matplotlib.axis_1">
    <g id="xtick_1">
     <g id="line2d_1">
      <defs>
       <path id="m73edef6607" d="M 0 0 
L 0 3.5 
" style="stroke: #000000; stroke-width: 0.8"/>
      </defs>
      <g>
       <use xlink:href="#m73edef6607" x="44.845313" y="253.44" style="stroke: #000000; stroke-width: 0.8"/>
      </g>
     </g>
     <g id="text_1">
      <!-- 0.00 -->
      <g transform="translate(33.7125 268.038437) scale(0.1 -0.1)">
       <defs>
        <path id="DejaVuSans-30" d="M 2034 4250 
Q 1547 4250 1301 3770 
Q 1056 3291 1056 2328 
Q 1056 1369 1301 889 
Q 1547 409 2034 409 
Q 2525 409 2770 889 
Q 3016 1369 3016 2328 
Q 3016 3291 2770 3770 
Q 2525 4250 2034 4250 
z
M 2034 4750 
Q 2819 4750 3233 4129 
Q 3647 3509 3647 2328 
Q 3647 1150 3233 529 
Q 2819 -91 2034 -91 
Q 1250 -91 836 529 
Q 422 1150 422 2328 
Q 422 3509 836 4129 
Q 1250 4750 2034 4750 
z
" transform="scale(0.015625)"/>
        <path id="DejaVuSans-2e" d="M 684 794 
L 1344 794 
L 1344 0 
L 684 0 
L 684 794 
z
" transform="scale(0.015625)"/>
       </defs>
       <use xlink:href="#DejaVuSans-30"/>
       <use xlink:href="#DejaVuSans-2e" x="63.623047"/>
       <use xlink:href="#DejaVuSans-30" x="95.410156"/>
       <use xlink:href="#DejaVuSans-30" x="159.033203"/>
      </g>
     </g>
    </g>
    <g id="xtick_2">
     <g id="line2d_2">
      <g>
       <use xlink:href="#m73edef6607" x="86.695313" y="253.44" style="stroke: #000000; stroke-width: 0.8"/>
      </g>
     </g>
     <g id="text_2">
      <!-- 0.25 -->
      <g transform="translate(75.5625 268.038437) scale(0.1 -0.1)">
       <defs>
        <path id="DejaVuSans-32" d="M 1228 531 
L 3431 531 
L 3431 0 
L 469 0 
L 469 531 
Q 828 903 1448 1529 
Q 2069 2156 2228 2338 
Q 2531 2678 2651 2914 
Q 2772 3150 2772 3378 
Q 2772 3750 2511 3984 
Q 2250 4219 1831 4219 
Q 1534 4219 1204 4116 
Q 875 4013 500 3803 
L 500 4441 
Q 881 4594 1212 4672 
Q 1544 4750 1819 4750 
Q 2544 4750 2975 4387 
Q 3406 4025 3406 3419 
Q 3406 3131 3298 2873 
Q 3191 2616 2906 2266 
Q 2828 2175 2409 1742 
Q 1991 1309 1228 531 
z
" transform="scale(0.015625)"/>
        <path id="DejaVuSans-35" d="M 691 4666 
L 3169 4666 
L 3169 4134 
L 1269 4134 
L 1269 2991 
Q 1406 3038 1543 3061 
Q 1681 3084 1819 3084 
Q 2600 3084 3056 2656 
Q 3513 2228 3513 1497 
Q 3513 744 3044 326 
Q 2575 -91 1722 -91 
Q 1428 -91 1123 -41 
Q 819 9 494 109 
L 494 744 
Q 775 591 1075 516 
Q 1375 441 1709 441 
Q 2250 441 2565 725 
Q 2881 1009 2881 1497 
Q 2881 1984 2565 2268 
Q 2250 2553 1709 2553 
Q 1456 2553 1204 2497 
Q 953 2441 691 2322 
L 691 4666 
z
" transform="scale(0.015625)"/>
       </defs>
       <use xlink:href="#DejaVuSans-30"/>
       <use xlink:href="#DejaVuSans-2e" x="63.623047"/>
       <use xlink:href="#DejaVuSans-32" x="95.410156"/>
       <use xlink:href="#DejaVuSans-35" x="159.033203"/>
      </g>
     </g>
    </g>
    <g id="xtick_3">
     <g id="line2d_3">
      <g>
       <use xlink:href="#m73edef6607" x="128.545313" y="253.44" style="stroke: #000000; stroke-width: 0.8"/>
      </g>
     </g>
     <g id="text_3">
      <!-- 0.50 -->
      <g transform="translate(117.4125 268.038437) scale(0.1 -0.1)">
       <use xlink:href="#DejaVuSans-30"/>
       <use xlink:href="#DejaVuSans-2e" x="63.623047"/>
       <use xlink:href="#DejaVuSans-35" x="95.410156"/>
       <use xlink:href="#DejaVuSans-30" x="159.033203"/>
      </g>
     </g>
    </g>
    <g id="xtick_4">
     <g id="line2d_4">
      <g>
       <use xlink:href="#m73edef6607" x="170.395313" y="253.44" style="stroke: #000000; stroke-width: 0.8"/>
      </g>
     </g>
     <g id="text_4">
      <!-- 0.75 -->
      <g transform="translate(159.2625 268.038437) scale(0.1 -0.1)">
       <defs>
        <path id="DejaVuSans-37" d="M 525 4666 
L 3525 4666 
L 3525 4397 
L 1831 0 
L 1172 0 
L 2766 4134 
L 525 4134 
L 525 4666 
z
" transform="scale(0.015625)"/>
       </defs>
       <use xlink:href="#DejaVuSans-30"/>
       <use xlink:href="#DejaVuSans-2e" x="63.623047"/>
       <use xlink:href="#DejaVuSans-37" x="95.410156"/>
       <use xlink:href="#DejaVuSans-35" x="159.033203"/>
      </g>
     </g>
    </g>
    <g id="xtick_5">
     <g id="line2d_5">
      <g>
       <use xlink:href="#m73edef6607" x="212.245313" y="253.44" style="stroke: #000000; stroke-width: 0.8"/>
      </g>
     </g>
     <g id="text_5">
      <!-- 1.00 -->
      <g transform="translate(201.1125 268.038437) scale(0.1 -0.1)">
       <defs>
        <path id="DejaVuSans-31" d="M 794 531 
L 1825 531 
L 1825 4091 
L 703 3866 
L 703 4441 
L 1819 4666 
L 2450 4666 
L 2450 531 
L 3481 531 
L 3481 0 
L 794 0 
L 794 531 
z
" transform="scale(0.015625)"/>
       </defs>
       <use xlink:href="#DejaVuSans-31"/>
       <use xlink:href="#DejaVuSans-2e" x="63.623047"/>
       <use xlink:href="#DejaVuSans-30" x="95.410156"/>
       <use xlink:href="#DejaVuSans-30" x="159.033203"/>
      </g>
     </g>
    </g>
    <g id="xtick_6">
     <g id="line2d_6">
      <g>
       <use xlink:href="#m73edef6607" x="254.095313" y="253.44" style="stroke: #000000; stroke-width: 0.8"/>
      </g>
     </g>
     <g id="text_6">
      <!-- 1.25 -->
      <g transform="translate(242.9625 268.038437) scale(0.1 -0.1)">
       <use xlink:href="#DejaVuSans-31"/>
       <use xlink:href="#DejaVuSans-2e" x="63.623047"/>
       <use xlink:href="#DejaVuSans-32" x="95.410156"/>
       <use xlink:href="#DejaVuSans-35" x="159.033203"/>
      </g>
     </g>
    </g>
    <g id="xtick_7">
     <g id="line2d_7">
      <g>
       <use xlink:href="#m73edef6607" x="295.945313" y="253.44" style="stroke: #000000; stroke-width: 0.8"/>
      </g>
     </g>
     <g id="text_7">
      <!-- 1.50 -->
      <g transform="translate(284.8125 268.038437) scale(0.1 -0.1)">
       <use xlink:href="#DejaVuSans-31"/>
       <use xlink:href="#DejaVuSans-2e" x="63.623047"/>
       <use xlink:href="#DejaVuSans-35" x="95.410156"/>
       <use xlink:href="#DejaVuSans-30" x="159.033203"/>
      </g>
     </g>
    </g>
    <g id="xtick_8">
     <g id="line2d_8">
      <g>
       <use xlink:href="#m73edef6607" x="337.795313" y="253.44" style="stroke: #000000; stroke-width: 0.8"/>
      </g>
     </g>
     <g id="text_8">
      <!-- 1.75 -->
      <g transform="translate(326.6625 268.038437) scale(0.1 -0.1)">
       <use xlink:href="#DejaVuSans-31"/>
       <use xlink:href="#DejaVuSans-2e" x="63.623047"/>
       <use xlink:href="#DejaVuSans-37" x="95.410156"/>
       <use xlink:href="#DejaVuSans-35" x="159.033203"/>
      </g>
     </g>
    </g>
    <g id="xtick_9">
     <g id="line2d_9">
      <g>
       <use xlink:href="#m73edef6607" x="379.645313" y="253.44" style="stroke: #000000; stroke-width: 0.8"/>
      </g>
     </g>
     <g id="text_9">
      <!-- 2.00 -->
      <g transform="translate(368.5125 268.038437) scale(0.1 -0.1)">
       <use xlink:href="#DejaVuSans-32"/>
       <use xlink:href="#DejaVuSans-2e" x="63.623047"/>
       <use xlink:href="#DejaVuSans-30" x="95.410156"/>
       <use xlink:href="#DejaVuSans-30" x="159.033203"/>
      </g>
     </g>
    </g>
   </g>
   <g id="matplotlib.axis_2">
    <g id="ytick_1">
     <g id="line2d_10">
      <defs>
       <path id="me7b471088a" d="M 0 0 
L -3.5 0 
" style="stroke: #000000; stroke-width: 0.8"/>
      </defs>
      <g>
       <use xlink:href="#me7b471088a" x="44.845313" y="210.883381" style="stroke: #000000; stroke-width: 0.8"/>
      </g>
     </g>
     <g id="text_10">
      <!-- −0.15 -->
      <g transform="translate(7.2 214.682599) scale(0.1 -0.1)">
       <defs>
        <path id="DejaVuSans-2212" d="M 678 2272 
L 4684 2272 
L 4684 1741 
L 678 1741 
L 678 2272 
z
" transform="scale(0.015625)"/>
       </defs>
       <use xlink:href="#DejaVuSans-2212"/>
       <use xlink:href="#DejaVuSans-30" x="83.789062"/>
       <use xlink:href="#DejaVuSans-2e" x="147.412109"/>
       <use xlink:href="#DejaVuSans-31" x="179.199219"/>
       <use xlink:href="#DejaVuSans-35" x="242.822266"/>
      </g>
     </g>
    </g>
    <g id="ytick_2">
     <g id="line2d_11">
      <g>
       <use xlink:href="#me7b471088a" x="44.845313" y="163.36864" style="stroke: #000000; stroke-width: 0.8"/>
      </g>
     </g>
     <g id="text_11">
      <!-- −0.10 -->
      <g transform="translate(7.2 167.167858) scale(0.1 -0.1)">
       <use xlink:href="#DejaVuSans-2212"/>
       <use xlink:href="#DejaVuSans-30" x="83.789062"/>
       <use xlink:href="#DejaVuSans-2e" x="147.412109"/>
       <use xlink:href="#DejaVuSans-31" x="179.199219"/>
       <use xlink:href="#DejaVuSans-30" x="242.822266"/>
      </g>
     </g>
    </g>
    <g id="ytick_3">
     <g id="line2d_12">
      <g>
       <use xlink:href="#me7b471088a" x="44.845313" y="115.853898" style="stroke: #000000; stroke-width: 0.8"/>
      </g>
     </g>
     <g id="text_12">
      <!-- −0.05 -->
      <g transform="translate(7.2 119.653117) scale(0.1 -0.1)">
       <use xlink:href="#DejaVuSans-2212"/>
       <use xlink:href="#DejaVuSans-30" x="83.789062"/>
       <use xlink:href="#DejaVuSans-2e" x="147.412109"/>
       <use xlink:href="#DejaVuSans-30" x="179.199219"/>
       <use xlink:href="#DejaVuSans-35" x="242.822266"/>
      </g>
     </g>
    </g>
    <g id="ytick_4">
     <g id="line2d_13">
      <g>
       <use xlink:href="#me7b471088a" x="44.845313" y="68.339157" style="stroke: #000000; stroke-width: 0.8"/>
      </g>
     </g>
     <g id="text_13">
      <!-- 0.00 -->
      <g transform="translate(15.579688 72.138376) scale(0.1 -0.1)">
       <use xlink:href="#DejaVuSans-30"/>
       <use xlink:href="#DejaVuSans-2e" x="63.623047"/>
       <use xlink:href="#DejaVuSans-30" x="95.410156"/>
       <use xlink:href="#DejaVuSans-30" x="159.033203"/>
      </g>
     </g>
    </g>
   </g>
   <g id="line2d_14">
    <path d="M 45.012713 68.339157 
L 45.180113 45.883636 
L 45.514913 103.924016 
L 45.682313 87.50367 
L 45.849713 52.132199 
L 46.351913 145.064888 
L 46.519313 88.004889 
L 46.686713 97.075176 
L 46.854113 171.419838 
L 47.021513 128.620147 
L 47.188913 124.588242 
L 47.356313 156.201355 
L 47.523713 166.598679 
L 47.691113 168.678035 
L 47.858513 198.036526 
L 48.193313 161.340719 
L 48.360713 151.185377 
L 48.528113 194.470607 
L 48.695513 202.13881 
L 48.862913 143.153335 
L 49.030313 147.764926 
L 49.197713 137.514297 
L 49.365113 183.042417 
L 49.532513 171.293824 
L 49.699913 136.058677 
L 49.867313 150.38271 
L 50.034713 177.128175 
L 50.202113 185.686318 
L 50.369513 117.492336 
L 50.536913 192.905361 
L 50.704313 167.247597 
L 50.871713 170.786453 
L 51.039113 125.285398 
L 51.206513 159.628963 
L 51.373913 159.736434 
L 51.541313 144.286504 
L 51.708713 141.948581 
L 51.876113 131.555664 
L 52.210913 179.296644 
L 52.378313 167.032143 
L 52.545713 163.175436 
L 52.713113 164.237608 
L 52.880513 174.111648 
L 53.047913 175.291803 
L 53.215313 138.030707 
L 53.382713 154.537943 
L 53.550113 158.962078 
L 53.717513 176.48098 
L 54.052313 103.338495 
L 54.219713 155.598997 
L 54.387113 158.325224 
L 54.554513 133.752399 
L 54.721913 127.359304 
L 54.889313 146.189207 
L 55.056713 145.83219 
L 55.391513 180.078662 
L 55.558913 154.854603 
L 55.726313 155.641609 
L 55.893713 162.763407 
L 56.061113 192.397954 
L 56.395913 136.479164 
L 56.563313 160.068468 
L 56.730713 154.163154 
L 56.898113 185.805419 
L 57.065513 157.213181 
L 57.400313 183.131791 
L 57.567713 175.267492 
L 57.902513 226.109931 
L 58.069913 225.199245 
L 58.237313 228.929979 
L 58.404713 185.836206 
L 58.572113 187.507753 
L 58.739513 167.031619 
L 58.906913 172.317131 
L 59.074313 214.436352 
L 59.409113 144.778627 
L 59.576513 180.327902 
L 59.743913 146.256464 
L 59.911313 147.850424 
L 60.078713 140.723787 
L 60.246113 157.857199 
L 60.413513 155.940607 
L 60.580913 182.762253 
L 60.748313 132.291343 
L 61.083113 175.997872 
L 61.250513 161.171718 
L 61.417913 125.807806 
L 61.585313 163.253278 
L 61.920113 168.162176 
L 62.254913 145.736788 
L 62.422313 139.014271 
L 62.589713 105.564848 
L 62.757113 120.395798 
L 63.091913 165.411003 
L 63.259313 151.842279 
L 63.426713 117.064658 
L 63.594113 169.840828 
L 63.928913 185.108635 
L 64.096313 124.958061 
L 64.263713 150.102995 
L 64.431113 135.178017 
L 64.598513 179.335229 
L 64.765913 179.438617 
L 64.933313 136.903509 
L 65.100713 139.705254 
L 65.268113 160.966732 
L 65.602913 105.98955 
L 65.770313 136.432536 
L 65.937713 145.967683 
L 66.105113 88.021786 
L 66.272513 91.373399 
L 66.607313 122.226262 
L 66.774713 128.393553 
L 66.942113 70.662226 
L 67.109513 57.966071 
L 67.276913 118.292737 
L 67.611713 122.11913 
L 67.779113 101.280276 
L 67.946513 127.779881 
L 68.113913 131.8646 
L 68.281313 149.903098 
L 68.448713 105.804871 
L 68.616113 157.492937 
L 68.783513 132.089045 
L 68.950913 137.675127 
L 69.118313 137.022127 
L 69.453113 175.812598 
L 69.787913 146.752681 
L 69.955313 190.31479 
L 70.122713 177.497181 
L 70.290113 114.037896 
L 70.457513 125.704175 
L 70.624913 168.455379 
L 70.792313 172.050206 
L 70.959713 135.787183 
L 71.294513 191.803807 
L 71.461913 138.746277 
L 71.796713 146.933291 
L 71.964113 136.151634 
L 72.131513 151.564429 
L 72.298913 133.327921 
L 72.466313 187.851834 
L 72.633713 159.049153 
L 72.801113 159.281716 
L 73.135913 103.704844 
L 73.470713 166.455943 
L 73.972913 100.53381 
L 74.140313 160.907487 
L 74.307713 156.495493 
L 74.809913 118.030068 
L 74.977313 101.458603 
L 75.144713 143.579449 
L 75.312113 142.467076 
L 75.479513 145.545072 
L 75.646913 145.426484 
L 76.149113 106.745025 
L 76.316513 93.624387 
L 76.483913 136.763857 
L 76.651313 131.972563 
L 76.818713 137.60423 
L 76.986113 137.023366 
L 77.153513 146.525627 
L 77.320913 135.950883 
L 77.655713 162.402128 
L 77.823113 192.201178 
L 77.990513 145.245975 
L 78.157913 162.058515 
L 78.325313 206.247691 
L 78.492713 198.3905 
L 78.660113 143.346288 
L 78.827513 159.988154 
L 78.994913 216.105059 
L 79.162313 224.955258 
L 79.329713 160.958044 
L 79.497113 191.683889 
L 79.664513 161.753285 
L 79.831913 166.766967 
L 79.999313 167.452394 
L 80.166713 170.647556 
L 80.334113 147.567509 
L 80.836313 205.539918 
L 81.003713 182.725889 
L 81.171113 175.363976 
L 81.338513 134.232694 
L 81.505913 195.552573 
L 81.673313 165.389096 
L 81.840713 167.884674 
L 82.008113 155.509367 
L 82.342913 205.937566 
L 82.510313 201.852118 
L 82.677713 194.52047 
L 82.845113 194.507429 
L 83.012513 182.970105 
L 83.179913 212.417196 
L 83.347313 203.934519 
L 83.514713 183.612609 
L 83.682113 186.798271 
L 83.849513 169.388982 
L 84.184313 242.112747 
L 84.351713 194.825449 
L 84.519113 212.461398 
L 84.686513 188.242986 
L 84.853913 224.622784 
L 85.021313 208.279063 
L 85.188713 223.722778 
L 85.356113 171.491699 
L 85.858313 220.271779 
L 86.025713 150.508397 
L 86.193113 170.227699 
L 86.360513 142.563597 
L 86.527913 171.635467 
L 86.695313 151.110812 
L 86.862713 186.631807 
L 87.030113 196.009566 
L 87.197513 160.305823 
L 87.364913 168.902594 
L 87.532313 190.717512 
L 87.699713 182.043533 
L 88.034513 133.968785 
L 88.369313 171.517739 
L 88.536713 181.679176 
L 88.704113 139.796752 
L 88.871513 185.728207 
L 89.206313 112.178063 
L 89.541113 167.113467 
L 89.708513 151.686587 
L 89.875913 108.79532 
L 90.043313 161.800815 
L 90.210713 162.993799 
L 90.545513 139.341304 
L 90.712913 140.642475 
L 90.880313 154.968166 
L 91.382513 105.714541 
L 91.717313 177.287563 
L 91.884713 171.941547 
L 92.052113 175.744109 
L 92.219513 103.338049 
L 92.386913 115.266536 
L 92.554313 117.31566 
L 92.721713 151.000817 
L 93.056513 119.134892 
L 93.223913 111.166721 
L 93.558713 186.72535 
L 93.726113 151.920011 
L 93.893513 141.49211 
L 94.060913 141.575589 
L 94.228313 124.693044 
L 94.395713 141.870417 
L 94.563113 145.403617 
L 94.730513 114.8339 
L 94.897913 138.440534 
L 95.232713 147.467274 
L 95.400113 167.836224 
L 95.567513 145.784241 
L 95.734913 150.145468 
L 96.069713 119.616517 
L 96.237113 102.329289 
L 96.404513 121.76753 
L 96.571913 184.300024 
L 96.739313 156.273992 
L 96.906713 147.905886 
L 97.074113 165.042738 
L 97.241513 128.244827 
L 97.576313 164.642097 
L 97.743713 165.390742 
L 97.911113 170.137634 
L 98.078513 166.243352 
L 98.245913 203.203787 
L 98.413313 167.452916 
L 98.580713 187.790564 
L 98.748113 185.954879 
L 98.915513 200.309711 
L 99.082913 146.843981 
L 99.417713 185.190253 
L 99.585113 183.230567 
L 99.752513 198.277873 
L 99.919913 189.664332 
L 100.254713 157.841542 
L 100.422113 160.621049 
L 100.589513 142.063174 
L 100.756913 177.864503 
L 100.924313 183.456877 
L 101.091713 157.166006 
L 101.259113 105.446251 
L 101.426513 111.880625 
L 101.593913 176.624914 
L 101.761313 164.402871 
L 101.928713 127.647094 
L 102.096113 164.567678 
L 102.263513 165.628527 
L 102.430913 107.848538 
L 102.765713 166.601364 
L 103.100513 143.057724 
L 103.267913 175.149253 
L 103.435313 170.939451 
L 103.770113 133.076924 
L 103.937513 131.864873 
L 104.104913 139.51264 
L 104.272313 128.849253 
L 104.607113 178.693628 
L 104.941913 135.747615 
L 105.109313 178.082989 
L 105.276713 167.639483 
L 105.444113 175.019654 
L 105.611513 132.433385 
L 105.778913 153.372836 
L 106.113713 124.73772 
L 106.281113 162.471353 
L 106.448513 135.190801 
L 106.615913 139.586664 
L 106.783313 159.763384 
L 106.950713 140.477398 
L 107.452913 186.983271 
L 107.787713 105.000177 
L 107.955113 127.179853 
L 108.289913 120.654172 
L 108.457313 150.622027 
L 108.624713 156.671236 
L 108.792113 140.773725 
L 108.959513 139.216035 
L 109.294313 121.581848 
L 109.461713 154.298098 
L 109.629113 152.30368 
L 109.796513 173.091857 
L 109.963913 126.703877 
L 110.131313 149.50823 
L 110.466113 133.148761 
L 110.800913 147.407661 
L 110.968313 170.200751 
L 111.135713 165.331842 
L 111.303113 155.592394 
L 111.470513 177.795308 
L 111.805313 128.124941 
L 111.972713 139.637711 
L 112.140113 173.457749 
L 112.307513 172.087794 
L 112.474913 146.196038 
L 112.642313 149.595145 
L 112.809713 112.585561 
L 112.977113 117.00836 
L 113.311913 161.497373 
L 113.646713 127.920427 
L 113.981513 151.59928 
L 114.148913 119.494642 
L 114.316313 113.902824 
L 114.483713 178.733505 
L 114.818513 96.206474 
L 114.985913 154.973706 
L 115.153313 150.271619 
L 115.488113 96.912122 
L 115.655513 173.108053 
L 115.990313 102.901934 
L 116.157713 131.193957 
L 116.325113 134.828163 
L 116.492513 141.540885 
L 116.659913 134.226766 
L 116.827313 167.244805 
L 117.162113 135.585296 
L 117.329513 135.321246 
L 117.496913 153.674175 
L 117.831713 140.532817 
L 117.999113 138.306796 
L 118.501313 152.76899 
L 118.668713 161.673242 
L 118.836113 143.871397 
L 119.003513 165.792408 
L 119.170913 144.57991 
L 119.338313 147.290224 
L 119.505713 188.39832 
L 119.673113 197.882733 
L 120.007913 137.530804 
L 120.175313 180.413207 
L 120.510113 149.605155 
L 120.677513 137.187506 
L 120.844913 174.356626 
L 121.179713 163.251762 
L 121.347113 136.296542 
L 121.514513 145.671506 
L 121.681913 140.048826 
L 121.849313 157.873239 
L 122.016713 158.634859 
L 122.351513 117.01374 
L 122.518913 185.648749 
L 122.686313 176.833607 
L 123.021113 123.993479 
L 123.188513 144.158054 
L 123.355913 137.432365 
L 123.523313 120.466035 
L 123.690713 146.779668 
L 124.025513 127.004127 
L 124.192913 116.854151 
L 124.360313 148.233872 
L 124.527713 141.457896 
L 124.695113 163.455387 
L 124.862513 150.341499 
L 125.029913 102.713163 
L 125.197313 99.931477 
L 125.532113 164.082468 
L 125.866913 125.867938 
L 126.034313 150.877029 
L 126.369113 130.255298 
L 126.536513 142.597811 
L 126.703913 134.749962 
L 126.871313 103.116301 
L 127.038713 99.806819 
L 127.373513 182.474847 
L 127.708313 118.06826 
L 127.875713 155.90039 
L 128.043113 162.753543 
L 128.210513 160.838928 
L 128.377913 168.205726 
L 128.545313 219.965142 
L 128.880113 133.653689 
L 129.047513 174.730108 
L 129.214913 179.737773 
L 129.382313 160.955032 
L 129.549713 163.868888 
L 130.051913 113.233295 
L 130.219313 133.984914 
L 130.386713 125.202545 
L 130.554113 154.676214 
L 130.721513 147.5425 
L 130.888913 135.409773 
L 131.056313 162.678948 
L 131.223713 132.248002 
L 131.391113 169.208151 
L 131.558513 168.416944 
L 131.725913 155.862398 
L 131.893313 184.412704 
L 132.060713 188.064062 
L 132.228113 172.830701 
L 132.395513 176.94561 
L 132.562913 168.002002 
L 132.897713 193.567154 
L 133.065113 223.315119 
L 133.232513 183.980955 
L 133.567313 196.36058 
L 133.734713 196.923399 
L 133.902113 208.040121 
L 134.069513 176.311822 
L 134.236913 174.850248 
L 134.404313 203.579792 
L 134.571713 171.666395 
L 134.739113 179.715945 
L 135.073913 243.556364 
L 135.241313 172.070364 
L 135.408713 204.837098 
L 135.576113 208.717211 
L 135.910913 172.75932 
L 136.078313 159.071839 
L 136.413113 192.46702 
L 136.580513 194.310995 
L 136.747913 162.272763 
L 136.915313 166.083409 
L 137.082713 156.781814 
L 137.250113 182.347964 
L 137.417513 144.075155 
L 137.584913 150.622403 
L 137.752313 186.490983 
L 138.087113 117.880941 
L 138.254513 124.897518 
L 138.421913 193.580842 
L 138.924113 144.191669 
L 139.258913 171.732162 
L 139.593713 213.232946 
L 139.761113 210.960333 
L 139.928513 175.376734 
L 140.095913 186.036766 
L 140.263313 187.558365 
L 140.430713 151.929031 
L 140.598113 207.122902 
L 140.765513 165.491027 
L 140.932913 193.600384 
L 141.100313 136.994792 
L 141.602513 194.776387 
L 141.769913 150.833203 
L 141.937313 151.991661 
L 142.104713 166.881399 
L 142.272113 135.00934 
L 142.439513 148.561658 
L 142.606913 172.839794 
L 142.774313 178.024965 
L 143.109113 126.662645 
L 143.276513 159.254062 
L 143.778713 165.199322 
L 143.946113 155.237875 
L 144.113513 98.558902 
L 144.280913 121.04235 
L 144.448313 175.060596 
L 144.615713 163.840899 
L 144.783113 104.568421 
L 144.950513 158.47662 
L 145.117913 158.353601 
L 145.285313 132.926301 
L 145.452713 179.225836 
L 145.620113 166.600952 
L 145.954913 111.330744 
L 146.122313 179.481258 
L 146.289713 175.796655 
L 146.457113 179.10963 
L 146.959313 137.706927 
L 147.126713 138.153426 
L 147.294113 168.882704 
L 147.461513 144.634804 
L 147.628913 147.82046 
L 147.796313 120.062999 
L 147.963713 167.196292 
L 148.131113 155.845417 
L 148.298513 158.297036 
L 148.465913 130.161128 
L 148.633313 163.391762 
L 148.800713 166.685673 
L 148.968113 153.349668 
L 149.135513 162.543345 
L 149.302913 134.487253 
L 149.470313 135.243824 
L 149.637713 191.574128 
L 149.805113 135.094449 
L 149.972513 145.312033 
L 150.139913 107.96865 
L 150.307313 129.982587 
L 150.474713 93.920764 
L 150.642113 129.988248 
L 150.809513 88.543274 
L 150.976913 91.572839 
L 151.144313 110.134674 
L 151.311713 100.717244 
L 151.479113 138.52675 
L 151.813913 101.694374 
L 151.981313 130.860447 
L 152.148713 129.946153 
L 152.316113 108.06477 
L 152.483513 174.37239 
L 152.650913 151.756977 
L 152.818313 150.222872 
L 152.985713 174.306031 
L 153.153113 172.570967 
L 153.320513 132.829509 
L 153.487913 141.951513 
L 153.655313 187.334725 
L 153.990113 125.513018 
L 154.157513 127.023838 
L 154.324913 147.98216 
L 154.492313 185.828889 
L 154.659713 168.24429 
L 154.994513 161.251717 
L 155.329313 133.941814 
L 155.496713 146.052982 
L 155.664113 148.685795 
L 155.831513 143.37479 
L 155.998913 158.18159 
L 156.166313 140.000569 
L 156.333713 148.742781 
L 156.501113 148.15287 
L 156.668513 178.045032 
L 157.170713 130.622031 
L 157.338113 151.048222 
L 157.505513 139.692838 
L 157.672913 115.194888 
L 157.840313 113.576329 
L 158.007713 115.751433 
L 158.175113 131.557327 
L 158.509913 182.353127 
L 158.844713 140.566675 
L 159.179513 169.038224 
L 159.346913 165.464153 
L 159.514313 146.362102 
L 159.681713 149.508571 
L 159.849113 189.883662 
L 160.016513 159.167767 
L 160.183913 163.917438 
L 160.351313 203.52243 
L 160.518713 193.582283 
L 160.686113 157.047619 
L 160.853513 170.088885 
L 161.020913 170.800202 
L 161.188313 157.802321 
L 161.355713 185.014374 
L 161.523113 182.883991 
L 161.690513 164.523674 
L 161.857913 120.652548 
L 162.192713 169.050485 
L 162.360113 171.463746 
L 162.527513 148.573376 
L 162.862313 171.922474 
L 163.029713 143.416565 
L 163.197113 183.589793 
L 163.364513 145.13012 
L 163.531913 188.010398 
L 163.699313 149.291007 
L 163.866713 146.684119 
L 164.034113 176.153126 
L 164.368913 191.666346 
L 164.703713 134.759137 
L 164.871113 129.49579 
L 165.038513 134.281529 
L 165.205913 131.855292 
L 165.373313 126.932701 
L 165.540713 84.795362 
L 165.708113 154.242382 
L 165.875513 157.351445 
L 166.042913 146.221678 
L 166.545113 92.194488 
L 166.712513 134.917523 
L 167.214713 114.174711 
L 167.382113 148.208486 
L 167.549513 150.796607 
L 167.716913 127.79016 
L 167.884313 120.414251 
L 168.386513 166.050383 
L 168.553913 163.605823 
L 168.721313 131.712882 
L 168.888713 175.525836 
L 169.390913 161.30089 
L 169.558313 163.982356 
L 169.893113 174.726743 
L 170.060513 163.125373 
L 170.395313 168.327404 
L 170.562713 172.80444 
L 170.730113 131.824696 
L 171.064913 172.024642 
L 171.232313 166.79454 
L 171.399713 181.77056 
L 171.567113 178.792924 
L 171.734513 143.009578 
L 171.901913 147.726461 
L 172.236713 185.601035 
L 172.404113 140.782323 
L 172.571513 145.572417 
L 172.738913 124.948702 
L 172.906313 128.458715 
L 173.073713 151.24162 
L 173.408513 123.05424 
L 173.575913 141.674473 
L 173.743313 145.07851 
L 173.910713 165.510645 
L 174.078113 158.415592 
L 174.245513 193.409278 
L 174.412913 186.459523 
L 174.580313 153.275147 
L 174.747713 167.093803 
L 174.915113 134.802671 
L 175.082513 142.08233 
L 175.249913 124.583453 
L 175.752113 174.073096 
L 175.919513 106.064249 
L 176.254313 160.909026 
L 176.421713 152.184067 
L 176.589113 149.931116 
L 176.923913 136.21427 
L 177.258713 165.935708 
L 177.426113 167.295548 
L 177.593513 172.163576 
L 177.928313 171.148414 
L 178.095713 132.490144 
L 178.430513 158.248284 
L 178.597913 151.450202 
L 178.765313 186.553959 
L 178.932713 193.520013 
L 179.434913 136.377366 
L 179.602313 175.870777 
L 179.769713 164.016309 
L 180.104513 185.794224 
L 180.271913 177.681733 
L 180.439313 151.210807 
L 180.606713 216.018735 
L 180.774113 193.422902 
L 180.941513 201.09353 
L 181.276313 161.402899 
L 181.443713 144.656671 
L 181.778513 205.570711 
L 182.113313 132.958958 
L 182.280713 168.973913 
L 182.448113 143.378483 
L 182.615513 162.175062 
L 182.782913 193.756518 
L 183.117713 145.305318 
L 183.452513 134.654079 
L 183.619913 181.281786 
L 183.787313 182.994377 
L 183.954713 170.880772 
L 184.122113 139.680189 
L 184.289513 166.940516 
L 184.456913 134.175135 
L 184.624313 142.829692 
L 184.959113 175.485992 
L 185.126513 176.058343 
L 185.293913 132.582401 
L 185.461313 129.042384 
L 185.796113 171.02193 
L 185.963513 159.649757 
L 186.130913 165.893402 
L 186.298313 185.718742 
L 186.633113 139.54058 
L 186.800513 208.524145 
L 187.135313 142.702182 
L 187.302713 152.677083 
L 187.637513 185.093047 
L 187.804913 118.558194 
L 187.972313 162.005967 
L 188.139713 155.479619 
L 188.307113 123.671456 
L 188.474513 115.543272 
L 188.641913 90.133577 
L 188.809313 128.041951 
L 188.976713 112.62874 
L 189.144113 120.314738 
L 189.311513 115.568104 
L 189.478913 116.02673 
L 189.813713 94.527554 
L 189.981113 103.839595 
L 190.148513 142.682589 
L 190.315913 127.506055 
L 190.483313 132.05758 
L 190.650713 141.84865 
L 190.985513 122.97848 
L 191.152913 204.096032 
L 191.320313 199.346625 
L 191.487713 147.526842 
L 191.655113 155.262242 
L 191.822513 153.601029 
L 191.989913 174.017623 
L 192.157313 139.974347 
L 192.324713 183.927327 
L 192.492113 144.323073 
L 192.659513 140.022652 
L 192.826913 166.683534 
L 192.994313 166.126558 
L 193.161713 117.514523 
L 193.329113 138.553419 
L 193.496513 190.817826 
L 193.663913 190.281665 
L 193.831313 124.769236 
L 193.998713 170.183083 
L 194.166113 172.162944 
L 194.333513 195.526726 
L 194.500913 151.230595 
L 194.668313 197.289422 
L 194.835713 166.155884 
L 195.170513 153.255396 
L 195.337913 176.235218 
L 195.505313 139.876495 
L 195.672713 197.907278 
L 195.840113 206.317114 
L 196.007513 153.331499 
L 196.174913 150.949143 
L 196.342313 146.063304 
L 196.509713 184.403056 
L 196.677113 179.560967 
L 196.844513 168.185699 
L 197.179313 181.706921 
L 197.346713 160.403915 
L 197.681513 197.987953 
L 198.016313 169.080306 
L 198.183713 170.5118 
L 198.351113 150.505529 
L 198.518513 173.283144 
L 198.685913 173.126603 
L 198.853313 154.846703 
L 199.020713 153.930327 
L 199.188113 143.644116 
L 199.355513 154.841332 
L 199.522913 155.933095 
L 199.690313 177.274654 
L 200.025113 159.395027 
L 200.192513 174.247829 
L 200.359913 145.256045 
L 200.694713 170.202752 
L 200.862113 214.747955 
L 201.196913 140.680168 
L 201.364313 136.548918 
L 201.531713 165.163839 
L 201.699113 169.994521 
L 202.033913 136.504189 
L 202.201313 146.188586 
L 202.368713 135.477797 
L 202.536113 146.390067 
L 202.703513 173.644049 
L 202.870913 126.04697 
L 203.038313 124.161017 
L 203.205713 133.036027 
L 203.540513 171.538234 
L 203.707913 146.965185 
L 203.875313 151.121475 
L 204.210113 151.217584 
L 204.377513 166.812527 
L 204.544913 145.598797 
L 204.712313 155.585912 
L 204.879713 137.629111 
L 205.047113 175.253011 
L 205.381913 96.567994 
L 205.549313 113.24838 
L 205.716713 151.051968 
L 205.884113 144.563734 
L 206.218913 147.819286 
L 206.386313 140.255752 
L 206.553713 140.18894 
L 206.721113 123.553615 
L 206.888513 134.017383 
L 207.055913 96.142782 
L 207.223313 120.046309 
L 207.390713 125.894087 
L 207.558113 126.607315 
L 207.892913 149.332161 
L 208.060313 124.210813 
L 208.227713 130.287292 
L 208.395113 167.528082 
L 208.562513 147.03897 
L 208.729913 172.388121 
L 208.897313 127.339846 
L 209.064713 164.590683 
L 209.232113 176.478762 
L 209.399513 120.207263 
L 209.566913 152.592486 
L 209.734313 152.895696 
L 209.901713 173.530754 
L 210.069113 175.247873 
L 210.236513 146.593043 
L 210.403913 154.863627 
L 210.738713 121.353487 
L 210.906113 147.122216 
L 211.073513 152.886614 
L 211.240913 172.764597 
L 211.408313 143.793325 
L 211.575713 165.100763 
L 211.743113 141.302039 
L 211.910513 184.324246 
L 212.077913 177.292614 
L 212.245313 190.638089 
L 212.412713 181.479194 
L 212.580113 216.100177 
L 212.914913 198.419732 
L 213.082313 199.099542 
L 213.249713 194.512713 
L 213.751913 142.348462 
L 213.919313 138.449844 
L 214.254113 164.67148 
L 214.421513 141.700525 
L 214.588913 144.031583 
L 214.923713 179.967948 
L 215.091113 177.800261 
L 215.258513 120.268197 
L 215.425913 168.284571 
L 215.593313 170.504608 
L 215.760713 140.793669 
L 215.928113 144.222691 
L 216.095513 162.28609 
L 216.262913 134.93957 
L 216.430313 163.764377 
L 216.597713 141.831303 
L 216.765113 154.55361 
L 216.932513 125.638951 
L 217.099913 122.761557 
L 217.267313 140.203506 
L 217.434713 108.162116 
L 217.602113 107.132428 
L 217.769513 140.622166 
L 217.936913 141.501107 
L 218.271713 105.386274 
L 218.439113 153.114839 
L 218.606513 136.786178 
L 218.773913 133.320391 
L 219.108713 145.37018 
L 219.276113 138.49135 
L 219.443513 119.340401 
L 219.778313 150.116446 
L 220.113113 132.233261 
L 220.280513 163.615633 
L 220.447913 159.558875 
L 220.615313 143.936522 
L 220.950113 200.652879 
L 221.284913 118.921265 
L 221.452313 150.308626 
L 221.787113 123.245092 
L 222.121913 158.803581 
L 222.456713 133.013077 
L 222.624113 148.128469 
L 222.791513 148.713659 
L 222.958913 144.813972 
L 223.126313 106.017796 
L 223.293713 157.033133 
L 223.461113 159.534514 
L 223.628513 169.52696 
L 223.795913 208.167233 
L 223.963313 175.943443 
L 224.130713 205.881712 
L 224.298113 178.648091 
L 224.465513 215.713234 
L 224.632913 185.669969 
L 224.800313 212.195604 
L 224.967713 171.21188 
L 225.135113 161.422246 
L 225.302513 196.871837 
L 225.637313 151.170632 
L 225.804713 156.252693 
L 225.972113 186.3962 
L 226.139513 159.027786 
L 226.306913 151.809716 
L 226.641713 202.4084 
L 226.976513 160.228898 
L 227.143913 176.509318 
L 227.311313 180.011082 
L 227.478713 166.699596 
L 227.646113 168.391874 
L 227.813513 213.239764 
L 227.980913 165.859472 
L 228.148313 153.191132 
L 228.315713 170.620236 
L 228.483113 164.406649 
L 228.650513 170.332832 
L 228.817913 157.408354 
L 228.985313 231.678411 
L 229.320113 144.322168 
L 229.487513 143.207646 
L 229.654913 141.250872 
L 229.822313 137.462932 
L 230.157113 146.003422 
L 230.324513 149.208867 
L 230.491913 118.715469 
L 230.826713 132.274471 
L 230.994113 124.579077 
L 231.328913 90.813128 
L 231.496313 104.107167 
L 231.663713 78.868111 
L 231.831113 91.147668 
L 231.998513 121.933195 
L 232.165913 116.833048 
L 232.500713 52.058816 
L 232.835513 87.195545 
L 233.002913 84.199091 
L 233.170313 101.827496 
L 233.337713 92.26514 
L 233.505113 107.668287 
L 233.672513 99.089833 
L 233.839913 67.892461 
L 234.007313 140.469358 
L 234.174713 109.699785 
L 234.342113 117.319959 
L 234.676913 150.664998 
L 235.011713 85.249256 
L 235.346513 147.712617 
L 235.513913 85.996818 
L 235.848713 149.187635 
L 236.016113 129.649608 
L 236.183513 134.645303 
L 236.350913 157.492847 
L 236.518313 165.02384 
L 236.685713 151.373162 
L 236.853113 122.774392 
L 237.020513 124.722119 
L 237.355313 157.2131 
L 237.690113 142.068846 
L 237.857513 203.860735 
L 238.024913 212.70408 
L 238.192313 181.552096 
L 238.359713 185.59675 
L 238.527113 176.309019 
L 238.861913 207.465404 
L 239.029313 165.694147 
L 239.196713 198.593937 
L 239.531513 148.483839 
L 239.698913 145.194111 
L 239.866313 145.603111 
L 240.033713 138.250473 
L 240.535913 94.311058 
L 240.703313 127.20955 
L 240.870713 131.767243 
L 241.038113 165.05311 
L 241.540313 77.719453 
L 241.707713 117.794344 
L 241.875113 127.465049 
L 242.042513 103.509022 
L 242.209913 108.46473 
L 242.377313 128.552523 
L 242.544713 132.274015 
L 242.712113 115.935427 
L 242.879513 160.588479 
L 243.046913 157.68425 
L 243.214313 169.977601 
L 243.381713 138.319941 
L 243.549113 158.908159 
L 243.716513 157.289226 
L 243.883913 149.64446 
L 244.051313 129.88855 
L 244.218713 169.773978 
L 244.386113 174.822162 
L 244.720913 121.960378 
L 245.055713 202.685846 
L 245.223113 160.078579 
L 245.390513 149.13272 
L 245.557913 176.90368 
L 245.725313 165.974657 
L 245.892713 180.854525 
L 246.060113 169.984943 
L 246.227513 167.425371 
L 246.394913 181.269056 
L 246.562313 206.203549 
L 246.729713 168.892038 
L 246.897113 156.897642 
L 247.064513 160.154161 
L 247.231913 173.926849 
L 247.399313 169.065855 
L 247.566713 146.601451 
L 247.901513 186.661457 
L 248.068913 141.791492 
L 248.571113 188.926107 
L 248.738513 183.744239 
L 248.905913 150.542597 
L 249.073313 179.751748 
L 249.240713 171.959681 
L 249.408113 136.021098 
L 249.575513 150.099388 
L 249.910313 121.54806 
L 250.245113 156.321521 
L 250.412513 110.198891 
L 250.579913 159.498979 
L 250.747313 134.805207 
L 250.914713 136.519556 
L 251.082113 107.80502 
L 251.416913 150.197702 
L 251.584313 147.658127 
L 251.751713 156.431403 
L 251.919113 172.249288 
L 252.086513 147.272254 
L 252.253913 190.867731 
L 252.421313 151.923469 
L 252.588713 144.958875 
L 252.756113 128.214604 
L 252.923513 155.133901 
L 253.090913 161.054209 
L 253.258313 155.706705 
L 253.425713 128.471518 
L 253.593113 142.180578 
L 253.760513 137.986229 
L 253.927913 164.438883 
L 254.095313 134.103204 
L 254.262713 155.249086 
L 254.597513 119.527005 
L 254.764913 122.346323 
L 254.932313 166.185259 
L 255.099713 155.162002 
L 255.267113 156.466728 
L 255.434513 159.873789 
L 255.601913 134.170915 
L 255.769313 192.672634 
L 255.936713 180.865166 
L 256.271513 137.072551 
L 256.438913 182.409675 
L 256.606313 193.94107 
L 256.773713 171.175987 
L 256.941113 106.578795 
L 257.108513 164.223815 
L 257.275913 153.859326 
L 257.610713 191.505301 
L 257.778113 188.653599 
L 257.945513 180.74417 
L 258.112913 120.270836 
L 258.280313 172.68939 
L 258.447713 177.080373 
L 258.615113 178.25929 
L 258.782513 140.806441 
L 258.949913 171.823561 
L 259.117313 171.57797 
L 259.284713 156.131082 
L 259.452113 178.37242 
L 259.786913 140.496073 
L 259.954313 148.047588 
L 260.121713 127.269376 
L 260.289113 141.514964 
L 260.456513 134.551365 
L 260.623913 187.432579 
L 260.791313 140.59328 
L 260.958713 142.350793 
L 261.293513 222.965896 
L 261.460913 146.893177 
L 261.795713 159.471435 
L 261.963113 202.451488 
L 262.297913 149.254022 
L 262.465313 173.996706 
L 262.632713 173.197525 
L 262.800113 117.73903 
L 262.967512 132.742764 
L 263.134913 171.127408 
L 263.469713 104.851234 
L 263.637113 95.548309 
L 263.804513 109.547933 
L 263.971913 134.606006 
L 264.139313 107.697965 
L 264.306713 113.759872 
L 264.474113 96.520761 
L 264.641513 133.92134 
L 264.808913 98.423417 
L 265.143713 140.604708 
L 265.311113 141.582347 
L 265.478513 145.590609 
L 265.645913 110.073457 
L 265.813313 195.644254 
L 265.980713 139.763962 
L 266.148113 143.497617 
L 266.315513 134.750627 
L 266.482913 162.422813 
L 266.650313 164.583675 
L 266.817713 128.093631 
L 267.152513 188.123628 
L 267.319913 156.357368 
L 267.487313 154.356535 
L 267.822113 184.941828 
L 267.989513 155.932293 
L 268.156913 155.100767 
L 268.324313 170.308923 
L 268.491713 131.38627 
L 268.659113 134.949417 
L 268.826513 162.417285 
L 268.993913 151.005166 
L 269.161313 151.777436 
L 269.496113 198.752177 
L 269.830913 144.188416 
L 269.998313 148.459629 
L 270.333113 95.489538 
L 270.500513 118.092301 
L 270.667913 102.455897 
L 270.835313 102.926738 
L 271.002713 87.397219 
L 271.337513 134.854758 
L 271.504913 103.574992 
L 271.839713 156.143508 
L 272.174513 110.927606 
L 272.341913 175.288573 
L 272.509313 158.509627 
L 272.844113 109.265139 
L 273.011513 196.34935 
L 273.178913 175.876573 
L 273.346313 130.474861 
L 273.513713 129.703638 
L 273.681113 166.018175 
L 273.848513 107.377707 
L 274.015913 125.635988 
L 274.183313 173.056516 
L 274.518113 102.592563 
L 274.852913 157.949844 
L 275.187713 103.590343 
L 275.355113 142.732487 
L 275.522513 145.191854 
L 275.689913 152.691145 
L 275.857313 111.70476 
L 276.024713 149.547708 
L 276.192113 140.039161 
L 276.359513 156.340475 
L 276.526913 143.497271 
L 276.694313 145.88018 
L 276.861713 112.591767 
L 277.029113 170.388682 
L 277.363913 124.101499 
L 277.531313 140.554372 
L 277.698713 184.513269 
L 277.866113 195.548176 
L 278.033513 152.946208 
L 278.200913 154.628705 
L 278.368313 134.511662 
L 278.703113 186.562516 
L 278.870513 116.552148 
L 279.205313 161.18043 
L 279.540113 194.223809 
L 279.707513 169.726319 
L 279.874913 185.965753 
L 280.209713 166.738845 
L 280.377113 177.805601 
L 280.544513 148.288413 
L 280.711913 165.604014 
L 280.879313 161.642386 
L 281.381513 176.494474 
L 281.548913 124.956232 
L 281.716313 135.742275 
L 281.883713 137.135432 
L 282.051113 144.895105 
L 282.218513 107.452245 
L 282.385913 118.266948 
L 282.553313 161.328527 
L 282.888113 116.990947 
L 283.390313 175.211216 
L 283.557713 118.597512 
L 283.892513 162.917131 
L 284.059913 102.495663 
L 284.227313 94.228445 
L 284.394713 137.016285 
L 284.562113 139.411498 
L 284.729513 121.643202 
L 284.896913 159.135131 
L 285.064313 162.466922 
L 285.231713 100.75966 
L 285.566513 117.812944 
L 285.733913 102.69077 
L 285.901313 136.402278 
L 286.068713 96.105745 
L 286.570913 152.623783 
L 286.738313 120.213807 
L 287.073113 168.540924 
L 287.407913 140.354826 
L 287.575313 168.266741 
L 287.742713 157.464448 
L 288.077513 117.243934 
L 288.244913 169.416212 
L 288.412313 168.886907 
L 288.579713 127.694032 
L 288.747113 116.36685 
L 288.914513 149.170144 
L 289.249313 86.329814 
L 289.416713 146.6508 
L 289.751513 116.387723 
L 289.918913 146.108742 
L 290.086313 139.322418 
L 290.253713 167.866314 
L 290.421113 156.961253 
L 290.588513 157.468194 
L 290.755913 169.53236 
L 290.923313 191.588804 
L 291.090713 195.093362 
L 291.258113 184.152873 
L 291.425513 186.790198 
L 291.927713 167.271461 
L 292.095113 138.001494 
L 292.262513 138.688151 
L 292.429913 137.196166 
L 292.764713 111.160114 
L 292.932113 123.596572 
L 293.099513 151.429185 
L 293.434313 136.279617 
L 293.601713 137.998107 
L 293.769113 158.535013 
L 293.936513 130.934677 
L 294.103913 144.442236 
L 294.271313 138.214638 
L 294.438713 156.396577 
L 294.606113 119.796545 
L 294.773513 150.311239 
L 294.940913 151.943527 
L 295.108313 147.033335 
L 295.275713 155.202215 
L 295.443113 137.553342 
L 295.610513 145.83773 
L 295.777913 141.038169 
L 295.945313 109.801584 
L 296.112713 129.855562 
L 296.280113 112.934976 
L 296.447513 143.688725 
L 296.614913 150.22761 
L 296.782313 177.794252 
L 296.949713 149.786144 
L 297.117113 187.918176 
L 297.284513 169.974724 
L 297.451913 177.632567 
L 297.619313 144.776403 
L 297.786713 169.765274 
L 297.954113 165.989615 
L 298.121513 203.01926 
L 298.288913 150.035999 
L 298.456313 190.523152 
L 298.623713 183.068147 
L 298.791113 161.481045 
L 298.958513 189.885901 
L 299.125913 190.408425 
L 299.293313 158.254247 
L 299.460713 165.177754 
L 299.628113 157.084111 
L 300.130313 118.206502 
L 300.297713 113.460996 
L 300.465113 172.367038 
L 300.632513 125.41483 
L 300.799913 130.207915 
L 300.967313 143.894244 
L 301.134713 133.56991 
L 301.302113 133.84664 
L 301.636913 170.953051 
L 301.804313 177.042728 
L 301.971713 173.368076 
L 302.139113 175.202005 
L 302.306513 174.188568 
L 302.473913 112.75492 
L 302.641313 103.393481 
L 302.808713 163.906077 
L 302.976113 116.809531 
L 303.143513 109.294666 
L 303.310913 121.412323 
L 303.478313 122.522386 
L 303.645713 131.314343 
L 303.813113 192.819846 
L 303.980513 174.372578 
L 304.147913 181.524201 
L 304.315313 196.35045 
L 304.482713 174.16739 
L 304.650113 101.580035 
L 304.984913 170.465477 
L 305.152312 178.584447 
L 305.319713 133.539477 
L 305.487113 151.241093 
L 305.654513 186.499231 
L 305.989313 128.277571 
L 306.156713 131.932994 
L 306.324113 163.202876 
L 306.658913 83.501453 
L 306.993713 136.173603 
L 307.161113 99.895812 
L 307.328513 150.176367 
L 307.495913 152.260923 
L 307.830713 75.675207 
L 308.165513 164.674736 
L 308.332913 155.754211 
L 308.500313 170.047038 
L 308.667713 169.60789 
L 308.835113 163.933091 
L 309.002513 185.998638 
L 309.337313 142.265629 
L 309.504713 177.68184 
L 309.839513 151.422488 
L 310.341713 218.424242 
L 310.509113 174.57842 
L 310.676513 160.590115 
L 311.178713 197.401701 
L 311.513513 171.137087 
L 311.680913 176.91157 
L 311.848313 195.389687 
L 312.015713 182.098753 
L 312.517913 222.687503 
L 312.685313 157.643848 
L 313.187513 189.43487 
L 313.354913 140.039694 
L 313.522313 138.534542 
L 313.689713 187.212471 
L 313.857113 202.143025 
L 314.191913 164.871568 
L 314.359313 194.373213 
L 314.694113 127.680579 
L 314.861513 178.648868 
L 315.028913 177.826344 
L 315.196313 174.445094 
L 315.363713 190.693257 
L 315.531113 170.867964 
L 315.698513 129.786127 
L 315.865913 170.432082 
L 316.033313 159.823867 
L 316.368113 105.189735 
L 316.702913 139.598525 
L 316.870313 139.205271 
L 317.037713 145.614563 
L 317.205113 135.598045 
L 317.372513 143.615668 
L 317.539913 118.152024 
L 317.707313 136.68101 
L 317.874713 119.171804 
L 318.042113 83.693775 
L 318.209513 83.314933 
L 318.544313 142.097504 
L 318.711713 100.369201 
L 319.046513 171.734367 
L 319.213913 165.495147 
L 319.548713 147.278408 
L 319.716113 117.313288 
L 319.883513 158.028977 
L 320.050913 156.01978 
L 320.218313 166.347649 
L 320.553113 144.708462 
L 320.720513 164.575276 
L 321.055313 130.131122 
L 321.222713 139.614822 
L 321.390113 178.129862 
L 321.557513 190.95488 
L 321.724913 186.286299 
L 321.892313 142.542926 
L 322.059713 199.597168 
L 322.227113 218.000813 
L 322.561913 151.641651 
L 322.729313 170.263762 
L 322.896713 170.297755 
L 323.064113 170.034612 
L 323.398913 159.381363 
L 323.566313 117.365108 
L 323.901113 161.225831 
L 324.068512 149.970552 
L 324.235913 199.513709 
L 324.403313 170.228831 
L 324.570713 171.474475 
L 325.072913 118.901751 
L 325.240313 130.016212 
L 325.407713 167.577792 
L 325.575113 151.305294 
L 325.742513 158.228313 
L 325.909913 172.017187 
L 326.077313 152.011955 
L 326.244713 176.628707 
L 326.412113 117.993081 
L 326.579513 158.106577 
L 326.746913 163.98223 
L 326.914313 157.353408 
L 327.081713 169.723431 
L 327.249113 197.166424 
L 327.416513 172.359384 
L 327.583913 130.017766 
L 327.751313 135.459126 
L 327.918713 148.232125 
L 328.420913 119.436904 
L 328.588313 123.583083 
L 328.755713 130.528383 
L 328.923113 156.020317 
L 329.090513 158.699282 
L 329.257913 174.368223 
L 329.425313 168.671549 
L 329.592713 156.376154 
L 329.760113 165.310272 
L 330.094913 133.183953 
L 330.262313 181.189854 
L 330.429713 166.721784 
L 330.597113 162.527003 
L 330.764513 171.254768 
L 330.931913 172.535271 
L 331.266713 160.993484 
L 331.434113 187.385832 
L 331.601513 165.067238 
L 331.768913 108.510895 
L 332.103713 159.361935 
L 332.271113 157.626523 
L 332.605913 121.316932 
L 332.773313 110.090542 
L 332.940713 131.314465 
L 333.108113 136.423482 
L 333.275513 87.594699 
L 333.442913 109.583314 
L 333.610313 158.004789 
L 333.945113 100.498908 
L 334.112513 127.831108 
L 334.279913 133.348193 
L 334.447313 122.83065 
L 334.614713 125.412202 
L 334.949513 165.362145 
L 335.116913 129.667332 
L 335.284313 127.371188 
L 335.451713 115.152184 
L 335.619113 158.103845 
L 335.786513 170.30173 
L 335.953913 134.503975 
L 336.288713 155.1504 
L 336.456113 121.787015 
L 336.790913 131.808825 
L 336.958313 205.136926 
L 337.293113 113.655413 
L 337.460513 132.193327 
L 337.627913 170.612314 
L 337.795313 121.939609 
L 338.130113 141.548094 
L 338.297513 119.130561 
L 338.632313 203.845293 
L 338.799713 179.414173 
L 338.967113 102.151503 
L 339.134513 128.43901 
L 339.301913 211.799271 
L 339.636713 134.563671 
L 339.971513 173.764808 
L 340.138913 170.793274 
L 340.306313 198.321285 
L 340.473713 174.723531 
L 340.641113 127.858971 
L 340.975913 194.383038 
L 341.143313 193.910436 
L 341.310713 145.894921 
L 341.645513 165.820011 
L 341.812913 137.394075 
L 341.980313 166.795102 
L 342.147713 171.13542 
L 342.315113 139.763837 
L 342.649913 162.818553 
L 342.984713 111.878385 
L 343.152113 154.842585 
L 343.319513 145.709675 
L 343.486913 117.84163 
L 343.821713 153.803971 
L 343.989113 114.249573 
L 344.156513 134.284777 
L 344.491313 118.157961 
L 344.658713 154.202912 
L 344.826113 127.15911 
L 344.993513 128.045675 
L 345.160913 124.146015 
L 345.328313 151.938476 
L 345.495713 139.379628 
L 345.663113 113.365288 
L 345.830513 127.043176 
L 345.997913 128.856735 
L 346.165313 138.356798 
L 346.332713 135.824929 
L 346.500113 107.168818 
L 346.667513 143.027916 
L 346.834913 118.199752 
L 347.002313 123.650118 
L 347.169713 156.495982 
L 347.337113 108.617461 
L 347.504513 146.521455 
L 347.671913 138.969777 
L 347.839313 171.065626 
L 348.006713 181.61502 
L 348.174113 146.791838 
L 348.341513 159.020412 
L 348.508913 180.683051 
L 348.676313 179.679804 
L 348.843713 154.724386 
L 349.011113 203.715421 
L 349.513313 131.469407 
L 349.680713 206.100369 
L 349.848113 203.932385 
L 350.015513 156.545643 
L 350.182913 156.692532 
L 350.350313 168.412594 
L 350.517713 167.318012 
L 350.685113 145.497822 
L 350.852513 159.605823 
L 351.019913 154.53451 
L 351.187313 164.102725 
L 351.354713 133.249339 
L 351.522113 143.087407 
L 351.689513 178.67818 
L 351.856913 112.082912 
L 352.024313 147.841479 
L 352.359113 165.484338 
L 352.526513 163.317062 
L 352.693913 180.573829 
L 353.028713 142.704822 
L 353.363513 197.125645 
L 353.530913 176.459332 
L 353.698313 171.304386 
L 354.033113 105.946253 
L 354.200513 107.402858 
L 354.367913 154.999391 
L 354.535313 144.179413 
L 354.702713 80.610043 
L 355.037513 153.835126 
L 355.539713 91.637828 
L 355.874513 161.57436 
L 356.041913 120.528424 
L 356.209313 108.06999 
L 356.376713 122.278946 
L 356.544113 122.517167 
L 356.711513 117.361448 
L 356.878913 151.760985 
L 357.046313 114.63868 
L 357.381113 135.324877 
L 357.715913 112.182523 
L 357.883313 123.305339 
L 358.050713 153.701491 
L 358.385513 100.237417 
L 358.720313 183.179296 
L 358.887713 146.500042 
L 359.055113 137.649908 
L 359.222513 172.2663 
L 359.389913 181.839218 
L 359.724713 133.828784 
L 359.892113 148.979401 
L 360.059513 122.156061 
L 360.226913 146.454408 
L 360.394313 128.187314 
L 360.561713 131.171415 
L 360.729113 123.650142 
L 360.896513 163.174158 
L 361.063913 158.722531 
L 361.398713 134.335641 
L 361.566113 135.472161 
L 361.733513 158.926152 
L 361.900913 153.330621 
L 362.068313 182.676915 
L 362.235713 186.614529 
L 362.403113 150.111151 
L 362.570513 161.522081 
L 362.737913 184.899151 
L 362.905313 145.627366 
L 363.240113 177.179733 
L 363.407513 162.255946 
L 363.574913 124.673863 
L 364.244513 209.636585 
L 364.579313 153.909996 
L 364.746713 171.916107 
L 364.914113 158.92514 
L 365.248913 95.580684 
L 365.416313 120.089082 
L 365.583713 122.469626 
L 365.751113 133.511321 
L 365.918513 124.741268 
L 366.085913 136.412517 
L 366.253313 139.432685 
L 366.420713 184.626906 
L 366.588113 181.596415 
L 366.755513 152.283586 
L 366.922913 143.985149 
L 367.090313 171.462145 
L 367.257713 172.50833 
L 367.592513 129.996542 
L 367.759913 141.043273 
L 367.927313 121.384613 
L 368.094713 146.852319 
L 368.262113 154.213979 
L 368.429513 126.567315 
L 368.596913 129.474868 
L 368.764313 127.326287 
L 368.931713 80.341286 
L 369.099113 102.904227 
L 369.433913 181.85606 
L 369.768713 108.465045 
L 369.936113 149.325592 
L 370.103513 125.534144 
L 370.438313 147.769803 
L 370.605713 133.774224 
L 370.773113 148.817183 
L 370.940513 152.23637 
L 371.107913 161.276651 
L 371.275313 146.442991 
L 371.442713 162.164039 
L 371.610113 223.284852 
L 371.777513 206.705713 
L 371.944913 152.121156 
L 372.112313 167.894504 
L 372.279713 215.658012 
L 372.614513 140.399853 
L 372.781913 151.140134 
L 372.949313 205.326958 
L 373.116713 170.111316 
L 373.284113 178.910077 
L 373.451513 196.199951 
L 373.618913 166.434326 
L 373.786313 165.164312 
L 373.953713 164.772159 
L 374.121113 190.753371 
L 374.288513 159.079608 
L 374.455913 164.045516 
L 374.623313 126.176534 
L 374.790713 182.233346 
L 374.958113 140.027833 
L 375.125513 128.684666 
L 375.292913 133.169125 
L 375.460313 163.332595 
L 375.627713 107.114555 
L 376.129913 167.790669 
L 376.297313 145.181994 
L 376.464713 160.267235 
L 376.632113 163.246545 
L 376.966913 211.873847 
L 377.301713 226.721618 
L 377.469113 202.355919 
L 377.636513 150.656439 
L 377.803913 186.318407 
L 378.138713 163.596664 
L 378.306113 165.062337 
L 378.473513 187.839591 
L 378.640913 155.810775 
L 378.808313 159.217851 
L 378.975713 157.400863 
L 379.143113 200.779894 
L 379.310513 172.873087 
L 379.477913 191.526325 
L 379.645313 175.4724 
L 379.645313 175.4724 
" clip-path="url(#p6528e25e64)" style="fill: none; stroke: #1f77b4; stroke-width: 1.5; stroke-linecap: square"/>
   </g>
   <g id="line2d_15">
    <path d="M 45.012713 68.339157 
L 45.682313 99.668473 
L 46.351913 120.669141 
L 47.021513 134.74631 
L 47.691113 144.182518 
L 48.360713 150.507798 
L 49.030313 154.747759 
L 49.699913 157.589891 
L 50.369513 159.495028 
L 51.039113 160.77208 
L 51.708713 161.628114 
L 52.545713 162.312957 
L 53.550113 162.789269 
L 54.721913 163.080933 
L 56.563313 163.27287 
L 60.078713 163.356912 
L 78.492713 163.368639 
L 379.645313 163.36864 
L 379.645313 163.36864 
" clip-path="url(#p6528e25e64)" style="fill: none; stroke: #ff7f0e; stroke-width: 1.5; stroke-linecap: square"/>
   </g>
   <g id="patch_3">
    <path d="M 44.845313 253.44 
L 44.845313 36 
" style="fill: none; stroke: #000000; stroke-width: 0.8; stroke-linejoin: miter; stroke-linecap: square"/>
   </g>
   <g id="patch_4">
    <path d="M 379.645313 253.44 
L 379.645313 36 
" style="fill: none; stroke: #000000; stroke-width: 0.8; stroke-linejoin: miter; stroke-linecap: square"/>
   </g>
   <g id="patch_5">
    <path d="M 44.845313 253.44 
L 379.645313 253.44 
" style="fill: none; stroke: #000000; stroke-width: 0.8; stroke-linejoin: miter; stroke-linecap: square"/>
   </g>
   <g id="patch_6">
    <path d="M 44.845313 36 
L 379.645313 36 
" style="fill: none; stroke: #000000; stroke-width: 0.8; stroke-linejoin: miter; stroke-linecap: square"/>
   </g>
   <g id="legend_1">
    <g id="patch_7">
     <path d="M 322.945313 77.078125 
L 372.645313 77.078125 
Q 374.645313 77.078125 374.645313 75.078125 
L 374.645313 43 
Q 374.645313 41 372.645313 41 
L 322.945313 41 
Q 320.945313 41 320.945313 43 
L 320.945313 75.078125 
Q 320.945313 77.078125 322.945313 77.078125 
z
" style="fill: #ffffff; opacity: 0.8; stroke: #cccccc; stroke-linejoin: miter"/>
    </g>
    <g id="line2d_16">
     <path d="M 324.945313 52.8 
L 334.945313 52.8 
L 344.945313 52.8 
" style="fill: none; stroke: #1f77b4; stroke-width: 1.5; stroke-linecap: square"/>
    </g>
    <g id="text_14">
     <!-- $\hat{y(t)}$ -->
     <g transform="translate(352.945313 56.3) scale(0.1 -0.1)">
      <defs>
       <path id="DejaVuSans-302" d="M -1831 5119 
L -1369 5119 
L -603 3944 
L -1038 3944 
L -1600 4709 
L -2163 3944 
L -2597 3944 
L -1831 5119 
z
M -1600 3584 
L -1600 3584 
z
" transform="scale(0.015625)"/>
       <path id="DejaVuSans-Oblique-79" d="M 1588 -325 
Q 1188 -997 936 -1164 
Q 684 -1331 294 -1331 
L -159 -1331 
L -63 -850 
L 269 -850 
Q 509 -850 678 -719 
Q 847 -588 1056 -206 
L 1234 128 
L 459 3500 
L 1069 3500 
L 1650 819 
L 3256 3500 
L 3859 3500 
L 1588 -325 
z
" transform="scale(0.015625)"/>
       <path id="DejaVuSans-28" d="M 1984 4856 
Q 1566 4138 1362 3434 
Q 1159 2731 1159 2009 
Q 1159 1288 1364 580 
Q 1569 -128 1984 -844 
L 1484 -844 
Q 1016 -109 783 600 
Q 550 1309 550 2009 
Q 550 2706 781 3412 
Q 1013 4119 1484 4856 
L 1984 4856 
z
" transform="scale(0.015625)"/>
       <path id="DejaVuSans-Oblique-74" d="M 2706 3500 
L 2619 3053 
L 1472 3053 
L 1100 1153 
Q 1081 1047 1072 975 
Q 1063 903 1063 863 
Q 1063 663 1183 572 
Q 1303 481 1569 481 
L 2150 481 
L 2053 0 
L 1503 0 
Q 991 0 739 200 
Q 488 400 488 806 
Q 488 878 497 964 
Q 506 1050 525 1153 
L 897 3053 
L 409 3053 
L 500 3500 
L 978 3500 
L 1172 4494 
L 1747 4494 
L 1556 3500 
L 2706 3500 
z
" transform="scale(0.015625)"/>
       <path id="DejaVuSans-29" d="M 513 4856 
L 1013 4856 
Q 1481 4119 1714 3412 
Q 1947 2706 1947 2009 
Q 1947 1309 1714 600 
Q 1481 -109 1013 -844 
L 513 -844 
Q 928 -128 1133 580 
Q 1338 1288 1338 2009 
Q 1338 2731 1133 3434 
Q 928 4138 513 4856 
z
" transform="scale(0.015625)"/>
      </defs>
      <use xlink:href="#DejaVuSans-302" transform="translate(135.682129 33.015625)"/>
      <use xlink:href="#DejaVuSans-Oblique-79" transform="translate(0 0.640625)"/>
      <use xlink:href="#DejaVuSans-28" transform="translate(59.179688 0.640625)"/>
      <use xlink:href="#DejaVuSans-Oblique-74" transform="translate(98.193359 0.640625)"/>
      <use xlink:href="#DejaVuSans-29" transform="translate(137.402344 0.640625)"/>
     </g>
    </g>
    <g id="line2d_17">
     <path d="M 324.945313 67.498437 
L 334.945313 67.498437 
L 344.945313 67.498437 
" style="fill: none; stroke: #ff7f0e; stroke-width: 1.5; stroke-linecap: square"/>
    </g>
    <g id="text_15">
     <!-- $x(t)$ -->
     <g transform="translate(352.945313 70.998437) scale(0.1 -0.1)">
      <defs>
       <path id="DejaVuSans-Oblique-78" d="M 3841 3500 
L 2234 1784 
L 3219 0 
L 2559 0 
L 1819 1388 
L 531 0 
L -166 0 
L 1556 1844 
L 641 3500 
L 1300 3500 
L 1972 2234 
L 3144 3500 
L 3841 3500 
z
" transform="scale(0.015625)"/>
      </defs>
      <use xlink:href="#DejaVuSans-Oblique-78" transform="translate(0 0.125)"/>
      <use xlink:href="#DejaVuSans-28" transform="translate(59.179688 0.125)"/>
      <use xlink:href="#DejaVuSans-Oblique-74" transform="translate(98.193359 0.125)"/>
      <use xlink:href="#DejaVuSans-29" transform="translate(137.402344 0.125)"/>
     </g>
    </g>
   </g>
  </g>
  <g id="text_16">
   <!-- Accumulate to Threshold model with input of -0.1 with rms=3  -->
   <g transform="translate(19.512188 16.318125) scale(0.12 -0.12)">
    <defs>
     <path id="DejaVuSans-41" d="M 2188 4044 
L 1331 1722 
L 3047 1722 
L 2188 4044 
z
M 1831 4666 
L 2547 4666 
L 4325 0 
L 3669 0 
L 3244 1197 
L 1141 1197 
L 716 0 
L 50 0 
L 1831 4666 
z
" transform="scale(0.015625)"/>
     <path id="DejaVuSans-63" d="M 3122 3366 
L 3122 2828 
Q 2878 2963 2633 3030 
Q 2388 3097 2138 3097 
Q 1578 3097 1268 2742 
Q 959 2388 959 1747 
Q 959 1106 1268 751 
Q 1578 397 2138 397 
Q 2388 397 2633 464 
Q 2878 531 3122 666 
L 3122 134 
Q 2881 22 2623 -34 
Q 2366 -91 2075 -91 
Q 1284 -91 818 406 
Q 353 903 353 1747 
Q 353 2603 823 3093 
Q 1294 3584 2113 3584 
Q 2378 3584 2631 3529 
Q 2884 3475 3122 3366 
z
" transform="scale(0.015625)"/>
     <path id="DejaVuSans-75" d="M 544 1381 
L 544 3500 
L 1119 3500 
L 1119 1403 
Q 1119 906 1312 657 
Q 1506 409 1894 409 
Q 2359 409 2629 706 
Q 2900 1003 2900 1516 
L 2900 3500 
L 3475 3500 
L 3475 0 
L 2900 0 
L 2900 538 
Q 2691 219 2414 64 
Q 2138 -91 1772 -91 
Q 1169 -91 856 284 
Q 544 659 544 1381 
z
M 1991 3584 
L 1991 3584 
z
" transform="scale(0.015625)"/>
     <path id="DejaVuSans-6d" d="M 3328 2828 
Q 3544 3216 3844 3400 
Q 4144 3584 4550 3584 
Q 5097 3584 5394 3201 
Q 5691 2819 5691 2113 
L 5691 0 
L 5113 0 
L 5113 2094 
Q 5113 2597 4934 2840 
Q 4756 3084 4391 3084 
Q 3944 3084 3684 2787 
Q 3425 2491 3425 1978 
L 3425 0 
L 2847 0 
L 2847 2094 
Q 2847 2600 2669 2842 
Q 2491 3084 2119 3084 
Q 1678 3084 1418 2786 
Q 1159 2488 1159 1978 
L 1159 0 
L 581 0 
L 581 3500 
L 1159 3500 
L 1159 2956 
Q 1356 3278 1631 3431 
Q 1906 3584 2284 3584 
Q 2666 3584 2933 3390 
Q 3200 3197 3328 2828 
z
" transform="scale(0.015625)"/>
     <path id="DejaVuSans-6c" d="M 603 4863 
L 1178 4863 
L 1178 0 
L 603 0 
L 603 4863 
z
" transform="scale(0.015625)"/>
     <path id="DejaVuSans-61" d="M 2194 1759 
Q 1497 1759 1228 1600 
Q 959 1441 959 1056 
Q 959 750 1161 570 
Q 1363 391 1709 391 
Q 2188 391 2477 730 
Q 2766 1069 2766 1631 
L 2766 1759 
L 2194 1759 
z
M 3341 1997 
L 3341 0 
L 2766 0 
L 2766 531 
Q 2569 213 2275 61 
Q 1981 -91 1556 -91 
Q 1019 -91 701 211 
Q 384 513 384 1019 
Q 384 1609 779 1909 
Q 1175 2209 1959 2209 
L 2766 2209 
L 2766 2266 
Q 2766 2663 2505 2880 
Q 2244 3097 1772 3097 
Q 1472 3097 1187 3025 
Q 903 2953 641 2809 
L 641 3341 
Q 956 3463 1253 3523 
Q 1550 3584 1831 3584 
Q 2591 3584 2966 3190 
Q 3341 2797 3341 1997 
z
" transform="scale(0.015625)"/>
     <path id="DejaVuSans-74" d="M 1172 4494 
L 1172 3500 
L 2356 3500 
L 2356 3053 
L 1172 3053 
L 1172 1153 
Q 1172 725 1289 603 
Q 1406 481 1766 481 
L 2356 481 
L 2356 0 
L 1766 0 
Q 1100 0 847 248 
Q 594 497 594 1153 
L 594 3053 
L 172 3053 
L 172 3500 
L 594 3500 
L 594 4494 
L 1172 4494 
z
" transform="scale(0.015625)"/>
     <path id="DejaVuSans-65" d="M 3597 1894 
L 3597 1613 
L 953 1613 
Q 991 1019 1311 708 
Q 1631 397 2203 397 
Q 2534 397 2845 478 
Q 3156 559 3463 722 
L 3463 178 
Q 3153 47 2828 -22 
Q 2503 -91 2169 -91 
Q 1331 -91 842 396 
Q 353 884 353 1716 
Q 353 2575 817 3079 
Q 1281 3584 2069 3584 
Q 2775 3584 3186 3129 
Q 3597 2675 3597 1894 
z
M 3022 2063 
Q 3016 2534 2758 2815 
Q 2500 3097 2075 3097 
Q 1594 3097 1305 2825 
Q 1016 2553 972 2059 
L 3022 2063 
z
" transform="scale(0.015625)"/>
     <path id="DejaVuSans-20" transform="scale(0.015625)"/>
     <path id="DejaVuSans-6f" d="M 1959 3097 
Q 1497 3097 1228 2736 
Q 959 2375 959 1747 
Q 959 1119 1226 758 
Q 1494 397 1959 397 
Q 2419 397 2687 759 
Q 2956 1122 2956 1747 
Q 2956 2369 2687 2733 
Q 2419 3097 1959 3097 
z
M 1959 3584 
Q 2709 3584 3137 3096 
Q 3566 2609 3566 1747 
Q 3566 888 3137 398 
Q 2709 -91 1959 -91 
Q 1206 -91 779 398 
Q 353 888 353 1747 
Q 353 2609 779 3096 
Q 1206 3584 1959 3584 
z
" transform="scale(0.015625)"/>
     <path id="DejaVuSans-54" d="M -19 4666 
L 3928 4666 
L 3928 4134 
L 2272 4134 
L 2272 0 
L 1638 0 
L 1638 4134 
L -19 4134 
L -19 4666 
z
" transform="scale(0.015625)"/>
     <path id="DejaVuSans-68" d="M 3513 2113 
L 3513 0 
L 2938 0 
L 2938 2094 
Q 2938 2591 2744 2837 
Q 2550 3084 2163 3084 
Q 1697 3084 1428 2787 
Q 1159 2491 1159 1978 
L 1159 0 
L 581 0 
L 581 4863 
L 1159 4863 
L 1159 2956 
Q 1366 3272 1645 3428 
Q 1925 3584 2291 3584 
Q 2894 3584 3203 3211 
Q 3513 2838 3513 2113 
z
" transform="scale(0.015625)"/>
     <path id="DejaVuSans-72" d="M 2631 2963 
Q 2534 3019 2420 3045 
Q 2306 3072 2169 3072 
Q 1681 3072 1420 2755 
Q 1159 2438 1159 1844 
L 1159 0 
L 581 0 
L 581 3500 
L 1159 3500 
L 1159 2956 
Q 1341 3275 1631 3429 
Q 1922 3584 2338 3584 
Q 2397 3584 2469 3576 
Q 2541 3569 2628 3553 
L 2631 2963 
z
" transform="scale(0.015625)"/>
     <path id="DejaVuSans-73" d="M 2834 3397 
L 2834 2853 
Q 2591 2978 2328 3040 
Q 2066 3103 1784 3103 
Q 1356 3103 1142 2972 
Q 928 2841 928 2578 
Q 928 2378 1081 2264 
Q 1234 2150 1697 2047 
L 1894 2003 
Q 2506 1872 2764 1633 
Q 3022 1394 3022 966 
Q 3022 478 2636 193 
Q 2250 -91 1575 -91 
Q 1294 -91 989 -36 
Q 684 19 347 128 
L 347 722 
Q 666 556 975 473 
Q 1284 391 1588 391 
Q 1994 391 2212 530 
Q 2431 669 2431 922 
Q 2431 1156 2273 1281 
Q 2116 1406 1581 1522 
L 1381 1569 
Q 847 1681 609 1914 
Q 372 2147 372 2553 
Q 372 3047 722 3315 
Q 1072 3584 1716 3584 
Q 2034 3584 2315 3537 
Q 2597 3491 2834 3397 
z
" transform="scale(0.015625)"/>
     <path id="DejaVuSans-64" d="M 2906 2969 
L 2906 4863 
L 3481 4863 
L 3481 0 
L 2906 0 
L 2906 525 
Q 2725 213 2448 61 
Q 2172 -91 1784 -91 
Q 1150 -91 751 415 
Q 353 922 353 1747 
Q 353 2572 751 3078 
Q 1150 3584 1784 3584 
Q 2172 3584 2448 3432 
Q 2725 3281 2906 2969 
z
M 947 1747 
Q 947 1113 1208 752 
Q 1469 391 1925 391 
Q 2381 391 2643 752 
Q 2906 1113 2906 1747 
Q 2906 2381 2643 2742 
Q 2381 3103 1925 3103 
Q 1469 3103 1208 2742 
Q 947 2381 947 1747 
z
" transform="scale(0.015625)"/>
     <path id="DejaVuSans-77" d="M 269 3500 
L 844 3500 
L 1563 769 
L 2278 3500 
L 2956 3500 
L 3675 769 
L 4391 3500 
L 4966 3500 
L 4050 0 
L 3372 0 
L 2619 2869 
L 1863 0 
L 1184 0 
L 269 3500 
z
" transform="scale(0.015625)"/>
     <path id="DejaVuSans-69" d="M 603 3500 
L 1178 3500 
L 1178 0 
L 603 0 
L 603 3500 
z
M 603 4863 
L 1178 4863 
L 1178 4134 
L 603 4134 
L 603 4863 
z
" transform="scale(0.015625)"/>
     <path id="DejaVuSans-6e" d="M 3513 2113 
L 3513 0 
L 2938 0 
L 2938 2094 
Q 2938 2591 2744 2837 
Q 2550 3084 2163 3084 
Q 1697 3084 1428 2787 
Q 1159 2491 1159 1978 
L 1159 0 
L 581 0 
L 581 3500 
L 1159 3500 
L 1159 2956 
Q 1366 3272 1645 3428 
Q 1925 3584 2291 3584 
Q 2894 3584 3203 3211 
Q 3513 2838 3513 2113 
z
" transform="scale(0.015625)"/>
     <path id="DejaVuSans-70" d="M 1159 525 
L 1159 -1331 
L 581 -1331 
L 581 3500 
L 1159 3500 
L 1159 2969 
Q 1341 3281 1617 3432 
Q 1894 3584 2278 3584 
Q 2916 3584 3314 3078 
Q 3713 2572 3713 1747 
Q 3713 922 3314 415 
Q 2916 -91 2278 -91 
Q 1894 -91 1617 61 
Q 1341 213 1159 525 
z
M 3116 1747 
Q 3116 2381 2855 2742 
Q 2594 3103 2138 3103 
Q 1681 3103 1420 2742 
Q 1159 2381 1159 1747 
Q 1159 1113 1420 752 
Q 1681 391 2138 391 
Q 2594 391 2855 752 
Q 3116 1113 3116 1747 
z
" transform="scale(0.015625)"/>
     <path id="DejaVuSans-66" d="M 2375 4863 
L 2375 4384 
L 1825 4384 
Q 1516 4384 1395 4259 
Q 1275 4134 1275 3809 
L 1275 3500 
L 2222 3500 
L 2222 3053 
L 1275 3053 
L 1275 0 
L 697 0 
L 697 3053 
L 147 3053 
L 147 3500 
L 697 3500 
L 697 3744 
Q 697 4328 969 4595 
Q 1241 4863 1831 4863 
L 2375 4863 
z
" transform="scale(0.015625)"/>
     <path id="DejaVuSans-2d" d="M 313 2009 
L 1997 2009 
L 1997 1497 
L 313 1497 
L 313 2009 
z
" transform="scale(0.015625)"/>
     <path id="DejaVuSans-3d" d="M 678 2906 
L 4684 2906 
L 4684 2381 
L 678 2381 
L 678 2906 
z
M 678 1631 
L 4684 1631 
L 4684 1100 
L 678 1100 
L 678 1631 
z
" transform="scale(0.015625)"/>
     <path id="DejaVuSans-33" d="M 2597 2516 
Q 3050 2419 3304 2112 
Q 3559 1806 3559 1356 
Q 3559 666 3084 287 
Q 2609 -91 1734 -91 
Q 1441 -91 1130 -33 
Q 819 25 488 141 
L 488 750 
Q 750 597 1062 519 
Q 1375 441 1716 441 
Q 2309 441 2620 675 
Q 2931 909 2931 1356 
Q 2931 1769 2642 2001 
Q 2353 2234 1838 2234 
L 1294 2234 
L 1294 2753 
L 1863 2753 
Q 2328 2753 2575 2939 
Q 2822 3125 2822 3475 
Q 2822 3834 2567 4026 
Q 2313 4219 1838 4219 
Q 1578 4219 1281 4162 
Q 984 4106 628 3988 
L 628 4550 
Q 988 4650 1302 4700 
Q 1616 4750 1894 4750 
Q 2613 4750 3031 4423 
Q 3450 4097 3450 3541 
Q 3450 3153 3228 2886 
Q 3006 2619 2597 2516 
z
" transform="scale(0.015625)"/>
    </defs>
    <use xlink:href="#DejaVuSans-41"/>
    <use xlink:href="#DejaVuSans-63" x="66.658203"/>
    <use xlink:href="#DejaVuSans-63" x="121.638672"/>
    <use xlink:href="#DejaVuSans-75" x="176.619141"/>
    <use xlink:href="#DejaVuSans-6d" x="239.998047"/>
    <use xlink:href="#DejaVuSans-75" x="337.410156"/>
    <use xlink:href="#DejaVuSans-6c" x="400.789062"/>
    <use xlink:href="#DejaVuSans-61" x="428.572266"/>
    <use xlink:href="#DejaVuSans-74" x="489.851562"/>
    <use xlink:href="#DejaVuSans-65" x="529.060547"/>
    <use xlink:href="#DejaVuSans-20" x="590.583984"/>
    <use xlink:href="#DejaVuSans-74" x="622.371094"/>
    <use xlink:href="#DejaVuSans-6f" x="661.580078"/>
    <use xlink:href="#DejaVuSans-20" x="722.761719"/>
    <use xlink:href="#DejaVuSans-54" x="754.548828"/>
    <use xlink:href="#DejaVuSans-68" x="815.632812"/>
    <use xlink:href="#DejaVuSans-72" x="879.011719"/>
    <use xlink:href="#DejaVuSans-65" x="917.875"/>
    <use xlink:href="#DejaVuSans-73" x="979.398438"/>
    <use xlink:href="#DejaVuSans-68" x="1031.498047"/>
    <use xlink:href="#DejaVuSans-6f" x="1094.876953"/>
    <use xlink:href="#DejaVuSans-6c" x="1156.058594"/>
    <use xlink:href="#DejaVuSans-64" x="1183.841797"/>
    <use xlink:href="#DejaVuSans-20" x="1247.318359"/>
    <use xlink:href="#DejaVuSans-6d" x="1279.105469"/>
    <use xlink:href="#DejaVuSans-6f" x="1376.517578"/>
    <use xlink:href="#DejaVuSans-64" x="1437.699219"/>
    <use xlink:href="#DejaVuSans-65" x="1501.175781"/>
    <use xlink:href="#DejaVuSans-6c" x="1562.699219"/>
    <use xlink:href="#DejaVuSans-20" x="1590.482422"/>
    <use xlink:href="#DejaVuSans-77" x="1622.269531"/>
    <use xlink:href="#DejaVuSans-69" x="1704.056641"/>
    <use xlink:href="#DejaVuSans-74" x="1731.839844"/>
    <use xlink:href="#DejaVuSans-68" x="1771.048828"/>
    <use xlink:href="#DejaVuSans-20" x="1834.427734"/>
    <use xlink:href="#DejaVuSans-69" x="1866.214844"/>
    <use xlink:href="#DejaVuSans-6e" x="1893.998047"/>
    <use xlink:href="#DejaVuSans-70" x="1957.376953"/>
    <use xlink:href="#DejaVuSans-75" x="2020.853516"/>
    <use xlink:href="#DejaVuSans-74" x="2084.232422"/>
    <use xlink:href="#DejaVuSans-20" x="2123.441406"/>
    <use xlink:href="#DejaVuSans-6f" x="2155.228516"/>
    <use xlink:href="#DejaVuSans-66" x="2216.410156"/>
    <use xlink:href="#DejaVuSans-20" x="2251.615234"/>
    <use xlink:href="#DejaVuSans-2d" x="2283.402344"/>
    <use xlink:href="#DejaVuSans-30" x="2319.486328"/>
    <use xlink:href="#DejaVuSans-2e" x="2383.109375"/>
    <use xlink:href="#DejaVuSans-31" x="2414.896484"/>
    <use xlink:href="#DejaVuSans-20" x="2478.519531"/>
    <use xlink:href="#DejaVuSans-77" x="2510.306641"/>
    <use xlink:href="#DejaVuSans-69" x="2592.09375"/>
    <use xlink:href="#DejaVuSans-74" x="2619.876953"/>
    <use xlink:href="#DejaVuSans-68" x="2659.085938"/>
    <use xlink:href="#DejaVuSans-20" x="2722.464844"/>
    <use xlink:href="#DejaVuSans-72" x="2754.251953"/>
    <use xlink:href="#DejaVuSans-6d" x="2793.615234"/>
    <use xlink:href="#DejaVuSans-73" x="2891.027344"/>
    <use xlink:href="#DejaVuSans-3d" x="2943.126953"/>
    <use xlink:href="#DejaVuSans-33" x="3026.916016"/>
    <use xlink:href="#DejaVuSans-20" x="3090.539062"/>
   </g>
  </g>
 </g>
 <defs>
  <clipPath id="p6528e25e64">
   <rect x="44.845313" y="36" width="334.8" height="217.44"/>
  </clipPath>
 </defs>
</svg>
