<?xml version="1.0" encoding="utf-8" standalone="no"?>
<!DOCTYPE svg PUBLIC "-//W3C//DTD SVG 1.1//EN"
  "http://www.w3.org/Graphics/SVG/1.1/DTD/svg11.dtd">
<svg xmlns:xlink="http://www.w3.org/1999/xlink" width="401.378437pt" height="277.318125pt" viewBox="0 0 401.378437 277.318125" xmlns="http://www.w3.org/2000/svg" version="1.1">
 <metadata>
  <rdf:RDF xmlns:dc="http://purl.org/dc/elements/1.1/" xmlns:cc="http://creativecommons.org/ns#" xmlns:rdf="http://www.w3.org/1999/02/22-rdf-syntax-ns#">
   <cc:Work>
    <dc:type rdf:resource="http://purl.org/dc/dcmitype/StillImage"/>
    <dc:date>2022-11-17T12:01:30.885883</dc:date>
    <dc:format>image/svg+xml</dc:format>
    <dc:creator>
     <cc:Agent>
      <dc:title>Matplotlib v3.6.0, https://matplotlib.org/</dc:title>
     </cc:Agent>
    </dc:creator>
   </cc:Work>
  </rdf:RDF>
 </metadata>
 <defs>
  <style type="text/css">*{stroke-linejoin: round; stroke-linecap: butt}</style>
 </defs>
 <g id="figure_1">
  <g id="patch_1">
   <path d="M 0 277.318125 
L 401.378437 277.318125 
L 401.378437 0 
L 0 0 
L 0 277.318125 
z
" style="fill: none"/>
  </g>
  <g id="axes_1">
   <g id="patch_2">
    <path d="M 44.845313 253.44 
L 379.645313 253.44 
L 379.645313 36 
L 44.845313 36 
z
" style="fill: #ffffff"/>
   </g>
   <g id="matplotlib.axis_1">
    <g id="xtick_1">
     <g id="line2d_1">
      <defs>
       <path id="m910876385f" d="M 0 0 
L 0 3.5 
" style="stroke: #000000; stroke-width: 0.8"/>
      </defs>
      <g>
       <use xlink:href="#m910876385f" x="44.845313" y="253.44" style="stroke: #000000; stroke-width: 0.8"/>
      </g>
     </g>
     <g id="text_1">
      <!-- 0.00 -->
      <g transform="translate(33.7125 268.038437) scale(0.1 -0.1)">
       <defs>
        <path id="DejaVuSans-30" d="M 2034 4250 
Q 1547 4250 1301 3770 
Q 1056 3291 1056 2328 
Q 1056 1369 1301 889 
Q 1547 409 2034 409 
Q 2525 409 2770 889 
Q 3016 1369 3016 2328 
Q 3016 3291 2770 3770 
Q 2525 4250 2034 4250 
z
M 2034 4750 
Q 2819 4750 3233 4129 
Q 3647 3509 3647 2328 
Q 3647 1150 3233 529 
Q 2819 -91 2034 -91 
Q 1250 -91 836 529 
Q 422 1150 422 2328 
Q 422 3509 836 4129 
Q 1250 4750 2034 4750 
z
" transform="scale(0.015625)"/>
        <path id="DejaVuSans-2e" d="M 684 794 
L 1344 794 
L 1344 0 
L 684 0 
L 684 794 
z
" transform="scale(0.015625)"/>
       </defs>
       <use xlink:href="#DejaVuSans-30"/>
       <use xlink:href="#DejaVuSans-2e" x="63.623047"/>
       <use xlink:href="#DejaVuSans-30" x="95.410156"/>
       <use xlink:href="#DejaVuSans-30" x="159.033203"/>
      </g>
     </g>
    </g>
    <g id="xtick_2">
     <g id="line2d_2">
      <g>
       <use xlink:href="#m910876385f" x="86.695313" y="253.44" style="stroke: #000000; stroke-width: 0.8"/>
      </g>
     </g>
     <g id="text_2">
      <!-- 0.25 -->
      <g transform="translate(75.5625 268.038437) scale(0.1 -0.1)">
       <defs>
        <path id="DejaVuSans-32" d="M 1228 531 
L 3431 531 
L 3431 0 
L 469 0 
L 469 531 
Q 828 903 1448 1529 
Q 2069 2156 2228 2338 
Q 2531 2678 2651 2914 
Q 2772 3150 2772 3378 
Q 2772 3750 2511 3984 
Q 2250 4219 1831 4219 
Q 1534 4219 1204 4116 
Q 875 4013 500 3803 
L 500 4441 
Q 881 4594 1212 4672 
Q 1544 4750 1819 4750 
Q 2544 4750 2975 4387 
Q 3406 4025 3406 3419 
Q 3406 3131 3298 2873 
Q 3191 2616 2906 2266 
Q 2828 2175 2409 1742 
Q 1991 1309 1228 531 
z
" transform="scale(0.015625)"/>
        <path id="DejaVuSans-35" d="M 691 4666 
L 3169 4666 
L 3169 4134 
L 1269 4134 
L 1269 2991 
Q 1406 3038 1543 3061 
Q 1681 3084 1819 3084 
Q 2600 3084 3056 2656 
Q 3513 2228 3513 1497 
Q 3513 744 3044 326 
Q 2575 -91 1722 -91 
Q 1428 -91 1123 -41 
Q 819 9 494 109 
L 494 744 
Q 775 591 1075 516 
Q 1375 441 1709 441 
Q 2250 441 2565 725 
Q 2881 1009 2881 1497 
Q 2881 1984 2565 2268 
Q 2250 2553 1709 2553 
Q 1456 2553 1204 2497 
Q 953 2441 691 2322 
L 691 4666 
z
" transform="scale(0.015625)"/>
       </defs>
       <use xlink:href="#DejaVuSans-30"/>
       <use xlink:href="#DejaVuSans-2e" x="63.623047"/>
       <use xlink:href="#DejaVuSans-32" x="95.410156"/>
       <use xlink:href="#DejaVuSans-35" x="159.033203"/>
      </g>
     </g>
    </g>
    <g id="xtick_3">
     <g id="line2d_3">
      <g>
       <use xlink:href="#m910876385f" x="128.545313" y="253.44" style="stroke: #000000; stroke-width: 0.8"/>
      </g>
     </g>
     <g id="text_3">
      <!-- 0.50 -->
      <g transform="translate(117.4125 268.038437) scale(0.1 -0.1)">
       <use xlink:href="#DejaVuSans-30"/>
       <use xlink:href="#DejaVuSans-2e" x="63.623047"/>
       <use xlink:href="#DejaVuSans-35" x="95.410156"/>
       <use xlink:href="#DejaVuSans-30" x="159.033203"/>
      </g>
     </g>
    </g>
    <g id="xtick_4">
     <g id="line2d_4">
      <g>
       <use xlink:href="#m910876385f" x="170.395313" y="253.44" style="stroke: #000000; stroke-width: 0.8"/>
      </g>
     </g>
     <g id="text_4">
      <!-- 0.75 -->
      <g transform="translate(159.2625 268.038437) scale(0.1 -0.1)">
       <defs>
        <path id="DejaVuSans-37" d="M 525 4666 
L 3525 4666 
L 3525 4397 
L 1831 0 
L 1172 0 
L 2766 4134 
L 525 4134 
L 525 4666 
z
" transform="scale(0.015625)"/>
       </defs>
       <use xlink:href="#DejaVuSans-30"/>
       <use xlink:href="#DejaVuSans-2e" x="63.623047"/>
       <use xlink:href="#DejaVuSans-37" x="95.410156"/>
       <use xlink:href="#DejaVuSans-35" x="159.033203"/>
      </g>
     </g>
    </g>
    <g id="xtick_5">
     <g id="line2d_5">
      <g>
       <use xlink:href="#m910876385f" x="212.245313" y="253.44" style="stroke: #000000; stroke-width: 0.8"/>
      </g>
     </g>
     <g id="text_5">
      <!-- 1.00 -->
      <g transform="translate(201.1125 268.038437) scale(0.1 -0.1)">
       <defs>
        <path id="DejaVuSans-31" d="M 794 531 
L 1825 531 
L 1825 4091 
L 703 3866 
L 703 4441 
L 1819 4666 
L 2450 4666 
L 2450 531 
L 3481 531 
L 3481 0 
L 794 0 
L 794 531 
z
" transform="scale(0.015625)"/>
       </defs>
       <use xlink:href="#DejaVuSans-31"/>
       <use xlink:href="#DejaVuSans-2e" x="63.623047"/>
       <use xlink:href="#DejaVuSans-30" x="95.410156"/>
       <use xlink:href="#DejaVuSans-30" x="159.033203"/>
      </g>
     </g>
    </g>
    <g id="xtick_6">
     <g id="line2d_6">
      <g>
       <use xlink:href="#m910876385f" x="254.095313" y="253.44" style="stroke: #000000; stroke-width: 0.8"/>
      </g>
     </g>
     <g id="text_6">
      <!-- 1.25 -->
      <g transform="translate(242.9625 268.038437) scale(0.1 -0.1)">
       <use xlink:href="#DejaVuSans-31"/>
       <use xlink:href="#DejaVuSans-2e" x="63.623047"/>
       <use xlink:href="#DejaVuSans-32" x="95.410156"/>
       <use xlink:href="#DejaVuSans-35" x="159.033203"/>
      </g>
     </g>
    </g>
    <g id="xtick_7">
     <g id="line2d_7">
      <g>
       <use xlink:href="#m910876385f" x="295.945313" y="253.44" style="stroke: #000000; stroke-width: 0.8"/>
      </g>
     </g>
     <g id="text_7">
      <!-- 1.50 -->
      <g transform="translate(284.8125 268.038437) scale(0.1 -0.1)">
       <use xlink:href="#DejaVuSans-31"/>
       <use xlink:href="#DejaVuSans-2e" x="63.623047"/>
       <use xlink:href="#DejaVuSans-35" x="95.410156"/>
       <use xlink:href="#DejaVuSans-30" x="159.033203"/>
      </g>
     </g>
    </g>
    <g id="xtick_8">
     <g id="line2d_8">
      <g>
       <use xlink:href="#m910876385f" x="337.795313" y="253.44" style="stroke: #000000; stroke-width: 0.8"/>
      </g>
     </g>
     <g id="text_8">
      <!-- 1.75 -->
      <g transform="translate(326.6625 268.038437) scale(0.1 -0.1)">
       <use xlink:href="#DejaVuSans-31"/>
       <use xlink:href="#DejaVuSans-2e" x="63.623047"/>
       <use xlink:href="#DejaVuSans-37" x="95.410156"/>
       <use xlink:href="#DejaVuSans-35" x="159.033203"/>
      </g>
     </g>
    </g>
    <g id="xtick_9">
     <g id="line2d_9">
      <g>
       <use xlink:href="#m910876385f" x="379.645313" y="253.44" style="stroke: #000000; stroke-width: 0.8"/>
      </g>
     </g>
     <g id="text_9">
      <!-- 2.00 -->
      <g transform="translate(368.5125 268.038437) scale(0.1 -0.1)">
       <use xlink:href="#DejaVuSans-32"/>
       <use xlink:href="#DejaVuSans-2e" x="63.623047"/>
       <use xlink:href="#DejaVuSans-30" x="95.410156"/>
       <use xlink:href="#DejaVuSans-30" x="159.033203"/>
      </g>
     </g>
    </g>
   </g>
   <g id="matplotlib.axis_2">
    <g id="ytick_1">
     <g id="line2d_10">
      <defs>
       <path id="m7bbeb77292" d="M 0 0 
L -3.5 0 
" style="stroke: #000000; stroke-width: 0.8"/>
      </defs>
      <g>
       <use xlink:href="#m7bbeb77292" x="44.845313" y="240.042368" style="stroke: #000000; stroke-width: 0.8"/>
      </g>
     </g>
     <g id="text_10">
      <!-- −0.30 -->
      <g transform="translate(7.2 243.841587) scale(0.1 -0.1)">
       <defs>
        <path id="DejaVuSans-2212" d="M 678 2272 
L 4684 2272 
L 4684 1741 
L 678 1741 
L 678 2272 
z
" transform="scale(0.015625)"/>
        <path id="DejaVuSans-33" d="M 2597 2516 
Q 3050 2419 3304 2112 
Q 3559 1806 3559 1356 
Q 3559 666 3084 287 
Q 2609 -91 1734 -91 
Q 1441 -91 1130 -33 
Q 819 25 488 141 
L 488 750 
Q 750 597 1062 519 
Q 1375 441 1716 441 
Q 2309 441 2620 675 
Q 2931 909 2931 1356 
Q 2931 1769 2642 2001 
Q 2353 2234 1838 2234 
L 1294 2234 
L 1294 2753 
L 1863 2753 
Q 2328 2753 2575 2939 
Q 2822 3125 2822 3475 
Q 2822 3834 2567 4026 
Q 2313 4219 1838 4219 
Q 1578 4219 1281 4162 
Q 984 4106 628 3988 
L 628 4550 
Q 988 4650 1302 4700 
Q 1616 4750 1894 4750 
Q 2613 4750 3031 4423 
Q 3450 4097 3450 3541 
Q 3450 3153 3228 2886 
Q 3006 2619 2597 2516 
z
" transform="scale(0.015625)"/>
       </defs>
       <use xlink:href="#DejaVuSans-2212"/>
       <use xlink:href="#DejaVuSans-30" x="83.789062"/>
       <use xlink:href="#DejaVuSans-2e" x="147.412109"/>
       <use xlink:href="#DejaVuSans-33" x="179.199219"/>
       <use xlink:href="#DejaVuSans-30" x="242.822266"/>
      </g>
     </g>
    </g>
    <g id="ytick_2">
     <g id="line2d_11">
      <g>
       <use xlink:href="#m7bbeb77292" x="44.845313" y="209.478169" style="stroke: #000000; stroke-width: 0.8"/>
      </g>
     </g>
     <g id="text_11">
      <!-- −0.25 -->
      <g transform="translate(7.2 213.277387) scale(0.1 -0.1)">
       <use xlink:href="#DejaVuSans-2212"/>
       <use xlink:href="#DejaVuSans-30" x="83.789062"/>
       <use xlink:href="#DejaVuSans-2e" x="147.412109"/>
       <use xlink:href="#DejaVuSans-32" x="179.199219"/>
       <use xlink:href="#DejaVuSans-35" x="242.822266"/>
      </g>
     </g>
    </g>
    <g id="ytick_3">
     <g id="line2d_12">
      <g>
       <use xlink:href="#m7bbeb77292" x="44.845313" y="178.913969" style="stroke: #000000; stroke-width: 0.8"/>
      </g>
     </g>
     <g id="text_12">
      <!-- −0.20 -->
      <g transform="translate(7.2 182.713188) scale(0.1 -0.1)">
       <use xlink:href="#DejaVuSans-2212"/>
       <use xlink:href="#DejaVuSans-30" x="83.789062"/>
       <use xlink:href="#DejaVuSans-2e" x="147.412109"/>
       <use xlink:href="#DejaVuSans-32" x="179.199219"/>
       <use xlink:href="#DejaVuSans-30" x="242.822266"/>
      </g>
     </g>
    </g>
    <g id="ytick_4">
     <g id="line2d_13">
      <g>
       <use xlink:href="#m7bbeb77292" x="44.845313" y="148.34977" style="stroke: #000000; stroke-width: 0.8"/>
      </g>
     </g>
     <g id="text_13">
      <!-- −0.15 -->
      <g transform="translate(7.2 152.148989) scale(0.1 -0.1)">
       <use xlink:href="#DejaVuSans-2212"/>
       <use xlink:href="#DejaVuSans-30" x="83.789062"/>
       <use xlink:href="#DejaVuSans-2e" x="147.412109"/>
       <use xlink:href="#DejaVuSans-31" x="179.199219"/>
       <use xlink:href="#DejaVuSans-35" x="242.822266"/>
      </g>
     </g>
    </g>
    <g id="ytick_5">
     <g id="line2d_14">
      <g>
       <use xlink:href="#m7bbeb77292" x="44.845313" y="117.78557" style="stroke: #000000; stroke-width: 0.8"/>
      </g>
     </g>
     <g id="text_14">
      <!-- −0.10 -->
      <g transform="translate(7.2 121.584789) scale(0.1 -0.1)">
       <use xlink:href="#DejaVuSans-2212"/>
       <use xlink:href="#DejaVuSans-30" x="83.789062"/>
       <use xlink:href="#DejaVuSans-2e" x="147.412109"/>
       <use xlink:href="#DejaVuSans-31" x="179.199219"/>
       <use xlink:href="#DejaVuSans-30" x="242.822266"/>
      </g>
     </g>
    </g>
    <g id="ytick_6">
     <g id="line2d_15">
      <g>
       <use xlink:href="#m7bbeb77292" x="44.845313" y="87.221371" style="stroke: #000000; stroke-width: 0.8"/>
      </g>
     </g>
     <g id="text_15">
      <!-- −0.05 -->
      <g transform="translate(7.2 91.02059) scale(0.1 -0.1)">
       <use xlink:href="#DejaVuSans-2212"/>
       <use xlink:href="#DejaVuSans-30" x="83.789062"/>
       <use xlink:href="#DejaVuSans-2e" x="147.412109"/>
       <use xlink:href="#DejaVuSans-30" x="179.199219"/>
       <use xlink:href="#DejaVuSans-35" x="242.822266"/>
      </g>
     </g>
    </g>
    <g id="ytick_7">
     <g id="line2d_16">
      <g>
       <use xlink:href="#m7bbeb77292" x="44.845313" y="56.657172" style="stroke: #000000; stroke-width: 0.8"/>
      </g>
     </g>
     <g id="text_16">
      <!-- 0.00 -->
      <g transform="translate(15.579688 60.456391) scale(0.1 -0.1)">
       <use xlink:href="#DejaVuSans-30"/>
       <use xlink:href="#DejaVuSans-2e" x="63.623047"/>
       <use xlink:href="#DejaVuSans-30" x="95.410156"/>
       <use xlink:href="#DejaVuSans-30" x="159.033203"/>
      </g>
     </g>
    </g>
   </g>
   <g id="line2d_17">
    <path d="M 45.012713 56.657172 
L 45.180113 45.883636 
L 45.347513 81.972271 
L 45.514913 82.324953 
L 45.682313 69.472473 
L 46.017113 92.043338 
L 46.351913 84.217051 
L 46.519313 88.696179 
L 46.686713 89.173274 
L 47.021513 121.677518 
L 47.188913 129.511607 
L 47.356313 125.871136 
L 47.691113 136.498376 
L 47.858513 157.681849 
L 48.025913 146.535775 
L 48.193313 161.262441 
L 48.360713 156.065357 
L 48.528113 133.104158 
L 48.695513 154.114761 
L 48.862913 149.980221 
L 49.030313 150.596826 
L 49.197713 158.444865 
L 49.365113 139.52584 
L 49.699913 165.985425 
L 50.034713 135.897331 
L 50.202113 154.610989 
L 50.369513 160.636214 
L 50.536913 146.493679 
L 50.871713 179.674127 
L 51.039113 157.063918 
L 51.206513 153.369693 
L 51.373913 145.473675 
L 51.708713 168.458595 
L 51.876113 161.734294 
L 52.043513 148.444826 
L 52.210913 161.742038 
L 52.378313 164.866164 
L 52.713113 187.083159 
L 52.880513 170.991236 
L 53.215313 208.258335 
L 53.382713 202.19866 
L 53.550113 191.986264 
L 53.717513 192.895249 
L 53.884913 169.640006 
L 54.052313 192.253524 
L 54.219713 192.604913 
L 54.387113 192.311281 
L 54.721913 171.7153 
L 54.889313 181.89972 
L 55.056713 155.022696 
L 55.224113 183.085819 
L 55.391513 174.013376 
L 55.558913 171.379651 
L 55.893713 178.204935 
L 56.061113 175.919324 
L 56.228513 164.86816 
L 56.395913 177.59143 
L 56.563313 165.226942 
L 56.730713 176.68615 
L 56.898113 199.068118 
L 57.065513 179.643075 
L 57.232913 187.667152 
L 57.400313 161.172735 
L 57.567713 186.317585 
L 57.735113 176.20061 
L 57.902513 183.454899 
L 58.069913 196.71148 
L 58.237313 191.715544 
L 58.404713 174.329459 
L 58.572113 172.630018 
L 58.739513 185.011007 
L 58.906913 169.31133 
L 59.074313 169.777946 
L 59.241713 163.546849 
L 59.576513 180.452649 
L 59.743913 177.108472 
L 59.911313 179.471913 
L 60.078713 169.811335 
L 60.246113 186.74372 
L 60.413513 166.027105 
L 60.748313 172.320862 
L 60.915713 191.908197 
L 61.250513 144.751309 
L 61.417913 151.912734 
L 61.585313 192.937758 
L 61.752713 179.289509 
L 61.920113 190.814544 
L 62.254913 148.875095 
L 62.422313 159.932661 
L 62.757113 168.464527 
L 62.924513 136.772402 
L 63.091913 147.444572 
L 63.259313 145.432438 
L 63.426713 136.984354 
L 63.594113 140.309936 
L 63.761513 193.658129 
L 64.096313 159.377252 
L 64.431113 185.118499 
L 64.598513 164.388688 
L 64.765913 164.981116 
L 64.933313 164.552873 
L 65.100713 155.520884 
L 65.268113 160.025738 
L 65.435513 157.986206 
L 65.602913 173.793485 
L 65.770313 154.689052 
L 65.937713 158.992977 
L 66.105113 166.960889 
L 66.272513 141.787596 
L 66.439913 154.47356 
L 66.607313 184.357189 
L 66.774713 170.285754 
L 66.942113 172.711709 
L 67.109513 153.228634 
L 67.444313 158.469114 
L 67.611713 153.65893 
L 67.779113 188.822645 
L 67.946513 167.43967 
L 68.113913 166.79671 
L 68.281313 196.069285 
L 68.448713 181.412376 
L 68.616113 176.667235 
L 68.783513 158.571193 
L 68.950913 195.240572 
L 69.285713 172.218452 
L 69.453113 174.735179 
L 69.620513 185.191417 
L 69.787913 172.103138 
L 69.955313 188.772132 
L 70.122713 188.914176 
L 70.290113 188.070946 
L 70.457513 176.542456 
L 70.624913 186.18842 
L 70.792313 168.987285 
L 70.959713 185.192785 
L 71.127113 177.598884 
L 71.294513 187.971354 
L 71.461913 156.641865 
L 71.629313 159.974413 
L 72.131513 202.758352 
L 72.298913 200.052121 
L 72.466313 193.002956 
L 72.633713 195.36024 
L 72.801113 195.954128 
L 73.135913 187.118045 
L 73.303313 171.265698 
L 73.470713 179.657045 
L 73.638113 151.868522 
L 73.805513 171.223211 
L 73.972913 176.001078 
L 74.140313 162.110285 
L 74.307713 166.611074 
L 74.475113 182.979017 
L 74.642513 156.119027 
L 74.809913 166.901768 
L 75.144713 194.982281 
L 75.312113 191.718295 
L 75.479513 199.751072 
L 75.646913 221.30277 
L 75.814313 213.717559 
L 75.981713 243.556364 
L 76.483913 205.125281 
L 76.651313 228.348933 
L 76.818713 233.30757 
L 77.153513 202.080028 
L 77.320913 205.358157 
L 77.488313 227.60968 
L 77.655713 226.219374 
L 77.823113 193.132393 
L 77.990513 184.445657 
L 78.157913 195.093867 
L 78.325313 190.562345 
L 78.492713 175.172292 
L 78.660113 179.291845 
L 78.827513 197.377699 
L 78.994913 187.901504 
L 79.162313 221.855816 
L 79.497113 184.584585 
L 79.664513 178.476755 
L 79.831913 195.941078 
L 79.999313 199.278912 
L 80.166713 206.963942 
L 80.334113 194.658576 
L 80.501513 192.413813 
L 80.668913 211.793057 
L 80.836313 203.26052 
L 81.171113 166.443413 
L 81.338513 167.333473 
L 81.505913 180.810883 
L 81.673313 173.285504 
L 81.840713 151.619495 
L 82.175513 161.659583 
L 82.342913 174.606277 
L 82.510313 146.308241 
L 82.677713 153.174571 
L 83.012513 183.884003 
L 83.179913 177.664515 
L 83.347313 147.58696 
L 83.514713 145.906641 
L 83.849513 184.32448 
L 84.016913 178.484501 
L 84.184313 166.617955 
L 84.351713 163.638877 
L 84.519113 182.697114 
L 84.686513 170.955855 
L 84.853913 190.843792 
L 85.021313 172.328532 
L 85.188713 169.443798 
L 85.356113 189.943836 
L 85.858313 150.596769 
L 86.025713 193.150821 
L 86.360513 165.391239 
L 86.527913 159.820034 
L 86.862713 200.238528 
L 87.030113 172.406966 
L 87.197513 189.073743 
L 87.364913 180.58259 
L 87.532313 184.165929 
L 87.699713 196.920254 
L 87.867113 165.564001 
L 88.034513 165.600401 
L 88.201913 198.163903 
L 88.536713 177.078178 
L 88.704113 158.126189 
L 89.038913 198.467622 
L 89.206313 163.552761 
L 89.541113 201.009395 
L 89.708513 192.928736 
L 89.875913 175.4594 
L 90.043313 191.786967 
L 90.210713 189.45746 
L 90.378113 183.405667 
L 90.545513 192.643683 
L 90.712913 209.239061 
L 91.047713 179.762801 
L 91.382513 168.350428 
L 91.549913 200.34614 
L 91.884713 163.054776 
L 92.052113 171.082697 
L 92.219513 198.725751 
L 92.386913 199.401857 
L 92.554313 168.278463 
L 92.889113 183.370601 
L 93.056513 218.109066 
L 93.558713 172.021054 
L 93.893513 222.193455 
L 94.228313 183.019908 
L 94.395713 187.258533 
L 94.563113 181.476453 
L 94.730513 196.919309 
L 94.897913 166.018022 
L 95.232713 171.574893 
L 95.400113 185.561547 
L 95.567513 166.756472 
L 95.734913 169.735771 
L 95.902313 202.537167 
L 96.069713 171.405375 
L 96.237113 161.861646 
L 96.404513 185.976573 
L 96.571913 187.941575 
L 96.739313 151.215731 
L 97.074113 184.539705 
L 97.241513 172.416906 
L 97.576313 191.151691 
L 97.743713 190.52435 
L 98.078513 166.101242 
L 98.245913 183.375766 
L 98.413313 188.669162 
L 98.580713 185.868932 
L 98.748113 157.872513 
L 99.082913 180.167968 
L 99.250313 164.074847 
L 99.585113 161.312755 
L 99.752513 165.727196 
L 99.919913 151.542001 
L 100.087313 177.959203 
L 100.422113 154.417179 
L 100.589513 171.809554 
L 100.756913 156.967754 
L 100.924313 167.515967 
L 101.091713 189.077411 
L 101.259113 168.990532 
L 101.426513 170.424454 
L 101.593913 142.462339 
L 101.761313 165.441808 
L 101.928713 155.226953 
L 102.096113 162.764562 
L 102.263513 182.371447 
L 102.598313 166.267907 
L 102.933113 178.232437 
L 103.100513 162.485571 
L 103.267913 183.310041 
L 103.435313 169.861189 
L 103.602713 188.036823 
L 103.770113 175.810017 
L 103.937513 197.915135 
L 104.104913 178.733909 
L 104.272313 173.752849 
L 104.439713 180.306398 
L 104.607113 200.676422 
L 104.774513 187.651367 
L 105.109313 181.646691 
L 105.444113 154.008651 
L 105.611513 194.63354 
L 105.778913 192.388272 
L 105.946313 186.178024 
L 106.113713 159.547479 
L 106.281113 182.352023 
L 106.448513 187.685508 
L 106.615913 184.510258 
L 106.783313 175.158173 
L 107.285513 198.944741 
L 107.452913 166.11868 
L 107.620313 165.19267 
L 107.787713 169.158553 
L 107.955113 161.55235 
L 108.122513 185.178591 
L 108.289913 160.338688 
L 108.457313 160.901859 
L 108.624713 168.732613 
L 108.792113 181.764773 
L 108.959513 154.833242 
L 109.126913 147.891359 
L 109.461713 194.478983 
L 109.796513 164.639756 
L 109.963913 203.121673 
L 110.298713 163.53347 
L 110.466113 188.455494 
L 110.800913 179.544741 
L 110.968313 176.380163 
L 111.135713 167.120254 
L 111.303113 177.368884 
L 111.470513 173.163312 
L 111.637913 187.675608 
L 111.805313 167.715139 
L 111.972713 172.181703 
L 112.140113 170.65084 
L 112.307513 158.563103 
L 112.474913 169.65117 
L 112.642313 156.931385 
L 112.809713 168.745948 
L 112.977113 167.714865 
L 113.144513 179.064079 
L 113.311913 198.611318 
L 113.479313 159.470999 
L 113.646713 183.813426 
L 113.814113 166.364662 
L 113.981513 202.098566 
L 114.148913 168.407187 
L 114.316313 160.097597 
L 114.483713 182.118823 
L 114.818513 134.928814 
L 114.985913 147.032938 
L 115.153313 148.096207 
L 115.320713 154.42728 
L 115.488113 166.262008 
L 115.655513 119.659062 
L 116.157713 172.240688 
L 116.325113 138.746259 
L 116.659913 174.160333 
L 116.827313 160.716522 
L 116.994713 165.935831 
L 117.329513 192.784262 
L 117.496913 171.324958 
L 117.664313 193.424113 
L 117.831713 184.537144 
L 117.999113 167.083932 
L 118.166513 199.186853 
L 118.333913 203.236841 
L 118.668713 182.038579 
L 118.836113 189.638715 
L 119.003513 188.622153 
L 119.170913 168.571609 
L 119.673113 204.973785 
L 119.840513 184.663047 
L 120.007913 191.738341 
L 120.175313 174.269239 
L 120.342713 193.000959 
L 120.510113 171.194521 
L 120.677513 182.884253 
L 120.844913 183.928399 
L 121.012313 208.584373 
L 121.179713 193.882589 
L 121.347113 197.109691 
L 121.514513 187.050348 
L 121.681913 188.42644 
L 121.849313 174.520384 
L 122.016713 188.192604 
L 122.184113 176.123962 
L 122.351513 178.999726 
L 122.518913 179.744147 
L 122.686313 187.180903 
L 122.853713 202.044984 
L 123.021113 180.575089 
L 123.188513 197.86236 
L 123.355913 186.187867 
L 123.523313 204.403057 
L 123.690713 193.727335 
L 123.858113 162.375695 
L 124.025513 171.250119 
L 124.192913 170.474805 
L 124.360313 163.351994 
L 124.527713 183.494726 
L 124.695113 187.412281 
L 124.862513 183.469275 
L 125.029913 184.491104 
L 125.197313 181.96058 
L 125.364713 214.354998 
L 125.532113 209.001735 
L 125.699513 184.066904 
L 125.866913 177.212541 
L 126.034313 195.55906 
L 126.536513 173.912651 
L 126.703913 188.762004 
L 126.871313 190.851155 
L 127.206113 169.243933 
L 127.373513 175.321932 
L 127.540913 170.864007 
L 127.708313 137.973466 
L 127.875713 172.22802 
L 128.043113 151.974909 
L 128.210513 165.355558 
L 128.545313 152.832399 
L 128.712713 156.08376 
L 128.880113 144.763252 
L 129.047513 156.340263 
L 129.214913 176.41173 
L 129.549713 158.752204 
L 129.884513 187.204638 
L 130.219313 166.773388 
L 130.386713 202.295109 
L 130.554113 194.146801 
L 130.721513 170.038559 
L 130.888913 180.575597 
L 131.223713 177.079616 
L 131.391113 172.396833 
L 131.558513 195.305693 
L 131.725913 197.976535 
L 132.060713 170.209006 
L 132.228113 193.180583 
L 132.562913 171.193083 
L 132.730313 200.992397 
L 133.065113 193.084456 
L 133.232513 172.802998 
L 133.399913 213.259945 
L 133.734713 177.819009 
L 133.902113 206.501472 
L 134.069513 200.739386 
L 134.236913 189.183819 
L 134.404313 195.915497 
L 134.739113 169.408587 
L 134.906513 187.853993 
L 135.073913 192.017509 
L 135.241313 178.550526 
L 135.408713 175.788179 
L 135.576113 190.99138 
L 135.910913 165.914814 
L 136.245713 154.394074 
L 136.413113 171.889684 
L 136.580513 168.293034 
L 136.747913 160.68888 
L 136.915313 175.181056 
L 137.082713 177.2401 
L 137.250113 158.770977 
L 137.417513 178.669908 
L 137.584913 174.782993 
L 137.752313 184.50311 
L 137.919713 181.059143 
L 138.087113 171.313906 
L 138.254513 154.435459 
L 138.421913 160.407053 
L 138.589313 182.249536 
L 138.756713 172.48359 
L 138.924113 189.590759 
L 139.091513 184.944319 
L 139.258913 188.032574 
L 139.593713 170.670367 
L 139.761113 184.533872 
L 139.928513 178.577107 
L 140.095913 188.454284 
L 140.263313 179.161565 
L 140.430713 178.840042 
L 140.598113 193.109166 
L 140.765513 174.854298 
L 141.100313 194.985694 
L 141.267713 189.840059 
L 141.435113 168.725081 
L 141.602513 176.829994 
L 141.769913 175.137695 
L 141.937313 194.765415 
L 142.104713 154.923641 
L 142.272113 181.132048 
L 142.439513 181.920291 
L 142.941713 165.811329 
L 143.109113 176.257463 
L 143.276513 175.213225 
L 143.443913 157.406593 
L 143.611313 162.062246 
L 143.946113 189.553041 
L 144.113513 160.319572 
L 144.280913 165.90307 
L 144.448313 162.262467 
L 144.615713 186.24857 
L 144.783113 161.044198 
L 144.950513 155.244496 
L 145.117913 163.466402 
L 145.285313 163.47717 
L 145.452713 180.82125 
L 145.787513 168.627248 
L 145.954913 172.305966 
L 146.122313 170.111721 
L 146.457113 198.408308 
L 146.624513 182.503207 
L 146.791913 183.336483 
L 146.959313 173.76494 
L 147.126713 194.058284 
L 147.461513 172.439229 
L 147.628913 147.315888 
L 147.963713 198.944054 
L 148.131113 188.758067 
L 148.298513 191.643581 
L 148.465913 181.35495 
L 148.633313 156.725799 
L 148.800713 174.63863 
L 148.968113 174.459885 
L 149.302913 163.318307 
L 149.470313 174.139088 
L 149.637713 163.598286 
L 149.972513 179.707541 
L 150.139913 172.108676 
L 150.307313 156.9685 
L 150.474713 168.678359 
L 150.642113 194.486526 
L 150.809513 150.796619 
L 150.976913 154.413014 
L 151.144313 166.970107 
L 151.311713 134.878673 
L 151.479113 147.091455 
L 151.646513 150.744792 
L 151.813913 171.189535 
L 151.981313 161.088452 
L 152.148713 160.090194 
L 152.483513 184.655213 
L 152.650913 157.070119 
L 152.818313 151.37289 
L 152.985713 180.298261 
L 153.153113 181.243953 
L 153.320513 168.868332 
L 153.487913 145.749421 
L 153.655313 153.279074 
L 153.822713 192.567529 
L 153.990113 163.963049 
L 154.157513 175.923432 
L 154.492313 146.172986 
L 154.994513 178.354454 
L 155.161913 160.52589 
L 155.329313 177.671716 
L 155.496713 148.031661 
L 155.664113 154.971395 
L 155.831513 177.204933 
L 155.998913 178.930556 
L 156.333713 143.768827 
L 156.501113 184.72429 
L 156.835913 141.218967 
L 157.170713 179.245704 
L 157.505513 155.246744 
L 157.672913 155.718245 
L 157.840313 170.668369 
L 158.007713 166.238456 
L 158.175113 149.295187 
L 158.342513 182.20912 
L 158.509913 161.429283 
L 158.677313 182.395882 
L 158.844713 167.138896 
L 159.012113 166.426139 
L 159.179513 166.805681 
L 159.346913 161.113015 
L 159.514313 183.415358 
L 159.681713 181.556983 
L 159.849113 168.273367 
L 160.016513 169.596167 
L 160.183913 186.524085 
L 160.351313 176.161996 
L 160.518713 174.340064 
L 160.686113 183.244444 
L 161.020913 207.89167 
L 161.188313 187.89093 
L 161.355713 206.010324 
L 161.523113 192.861527 
L 161.690513 214.309376 
L 162.025313 181.978285 
L 162.192713 193.283259 
L 162.360113 179.217891 
L 162.527513 183.646042 
L 162.694913 200.450875 
L 162.862313 176.792123 
L 163.029713 173.207581 
L 163.197113 199.665131 
L 163.364513 190.843308 
L 163.531913 193.526689 
L 163.699313 159.839774 
L 163.866713 195.486003 
L 164.034113 196.461779 
L 164.368913 141.54895 
L 164.536313 146.086455 
L 164.703713 169.016834 
L 164.871113 149.299678 
L 165.038513 182.982707 
L 165.373313 172.198972 
L 165.540713 145.918682 
L 165.875513 174.981344 
L 166.042913 167.025311 
L 166.210313 182.50538 
L 166.712513 145.624194 
L 166.879913 164.471108 
L 167.214713 154.09186 
L 167.382113 146.600157 
L 167.549513 145.838238 
L 167.716913 171.352911 
L 167.884313 148.326149 
L 168.051713 159.936577 
L 168.219113 142.942442 
L 168.386513 150.960018 
L 168.721313 146.690321 
L 169.223513 172.42229 
L 169.390913 140.435314 
L 169.558313 164.865621 
L 169.725713 155.234946 
L 169.893113 158.455124 
L 170.060513 137.610593 
L 170.395313 159.234258 
L 170.562713 193.626764 
L 170.897513 134.768536 
L 171.064913 130.559071 
L 171.232313 185.596294 
L 171.567113 141.305687 
L 171.901913 170.711239 
L 172.069313 170.621788 
L 172.404113 153.214347 
L 172.571513 168.408027 
L 172.738913 169.451952 
L 172.906313 169.27906 
L 173.073713 159.192075 
L 173.241113 168.824608 
L 173.408513 151.886544 
L 173.575913 157.301319 
L 173.743313 134.71441 
L 173.910713 148.133268 
L 174.078113 150.486409 
L 174.245513 162.121561 
L 174.412913 161.320685 
L 174.747713 180.461135 
L 174.915113 186.675717 
L 175.082513 174.876021 
L 175.417313 214.470154 
L 175.584713 201.165142 
L 175.752113 214.304597 
L 175.919513 185.926669 
L 176.086913 196.012946 
L 176.254313 176.280698 
L 176.421713 177.52777 
L 176.589113 175.516042 
L 176.756513 178.415093 
L 176.923913 177.381203 
L 177.091313 156.010964 
L 177.258713 157.328767 
L 177.593513 185.589507 
L 177.760913 177.511035 
L 177.928313 135.268517 
L 178.095713 135.066154 
L 178.263113 188.04634 
L 178.597913 162.137565 
L 178.765313 181.315815 
L 178.932713 161.118402 
L 179.100113 165.826709 
L 179.267513 148.465508 
L 179.434913 172.414466 
L 179.602313 160.142019 
L 179.769713 176.827933 
L 180.439313 147.070296 
L 180.606713 162.946549 
L 180.774113 160.57042 
L 181.108913 148.841195 
L 181.276313 175.634689 
L 181.443713 184.173014 
L 181.778513 150.301398 
L 182.113313 174.754291 
L 182.280713 164.147351 
L 182.615513 194.186796 
L 182.782913 197.972995 
L 183.117713 191.185528 
L 183.285113 197.318334 
L 183.452513 228.893007 
L 183.619913 184.130096 
L 183.787313 171.624684 
L 184.122113 215.952992 
L 184.456913 165.668831 
L 184.624313 192.085596 
L 184.791713 167.801229 
L 184.959113 189.269959 
L 185.126513 162.790628 
L 185.461313 178.272365 
L 185.796113 151.237359 
L 185.963513 153.442389 
L 186.130913 163.935638 
L 186.465713 138.909539 
L 186.800513 159.579295 
L 186.967913 147.383963 
L 187.135313 147.294526 
L 187.302713 148.946064 
L 187.470113 157.477921 
L 187.637513 126.137131 
L 187.804913 154.120009 
L 187.972313 150.576459 
L 188.139713 137.477597 
L 188.474513 153.213673 
L 188.641913 145.495631 
L 188.809313 146.940922 
L 188.976713 151.367168 
L 189.144113 122.236858 
L 189.478913 171.09611 
L 189.813713 147.079246 
L 189.981113 161.429773 
L 190.148513 157.974423 
L 190.315913 146.800507 
L 190.483313 145.792127 
L 190.650713 190.384865 
L 190.985513 150.705842 
L 191.152913 159.887273 
L 191.320313 191.967908 
L 191.655113 137.32275 
L 191.822513 169.821527 
L 191.989913 165.769312 
L 192.157313 150.362402 
L 192.324713 165.228891 
L 192.492113 160.55935 
L 192.659513 164.479065 
L 192.826913 175.120224 
L 192.994313 164.745638 
L 193.161713 162.800252 
L 193.329113 158.598914 
L 193.496513 172.420246 
L 193.663913 164.716296 
L 193.831313 174.722265 
L 193.998713 168.417303 
L 194.166113 152.663272 
L 194.333513 190.095345 
L 194.500913 187.790883 
L 194.668313 163.436992 
L 194.835713 193.692353 
L 195.003113 182.671218 
L 195.170513 149.239797 
L 195.505313 178.094482 
L 195.840113 152.992824 
L 196.007513 143.790888 
L 196.174913 173.905862 
L 196.342313 156.414397 
L 196.509713 169.600665 
L 196.677113 151.510271 
L 196.844513 147.219799 
L 197.011913 161.796671 
L 197.179313 149.760147 
L 197.346713 150.612542 
L 197.514113 129.912013 
L 197.681513 159.96939 
L 197.848913 169.271817 
L 198.016313 165.148768 
L 198.183713 142.700856 
L 198.351113 172.482118 
L 198.518513 156.778316 
L 198.685913 156.398682 
L 198.853313 162.435439 
L 199.188113 182.912331 
L 199.355513 175.055758 
L 199.522913 193.492981 
L 199.690313 180.949404 
L 199.857713 192.499128 
L 200.025113 196.035482 
L 200.192513 176.315158 
L 200.527313 167.775764 
L 200.694713 169.626883 
L 200.862113 156.900108 
L 201.029513 166.335514 
L 201.196913 185.86199 
L 201.364313 183.419609 
L 201.531713 176.751891 
L 201.699113 202.213421 
L 201.866513 197.004384 
L 202.033913 160.826243 
L 202.368713 184.165689 
L 202.536113 165.308094 
L 202.703513 164.401959 
L 202.870913 191.294447 
L 203.038313 194.605111 
L 203.373113 167.906567 
L 203.540513 165.139107 
L 203.707913 179.363252 
L 204.042713 149.639512 
L 204.210113 155.437594 
L 204.377513 170.706174 
L 204.544913 172.130704 
L 204.712313 143.073502 
L 204.879713 167.095383 
L 205.047113 172.966911 
L 205.214513 156.750869 
L 205.381913 167.523994 
L 205.549313 147.108232 
L 205.716713 155.136736 
L 205.884113 150.738844 
L 206.051513 173.485413 
L 206.218913 172.571997 
L 206.386313 174.099809 
L 206.553713 163.987699 
L 206.721113 177.654153 
L 206.888513 181.486531 
L 207.223313 161.095468 
L 207.390713 159.048952 
L 207.725513 176.957751 
L 207.892913 160.761541 
L 208.060313 165.80301 
L 208.227713 164.645051 
L 208.562513 189.668856 
L 208.897313 152.647751 
L 209.064713 180.287592 
L 209.232113 175.41526 
L 209.566913 153.292018 
L 209.734313 179.366587 
L 209.901713 183.26568 
L 210.069113 155.416909 
L 210.236513 155.939439 
L 210.403913 180.638526 
L 210.738713 190.173719 
L 210.906113 185.670501 
L 211.073513 175.685462 
L 211.408313 204.724152 
L 211.575713 206.059636 
L 211.743113 204.060435 
L 211.910513 188.598624 
L 212.077913 207.766901 
L 212.245313 209.679529 
L 212.412713 184.316724 
L 212.580113 189.890898 
L 212.747513 189.944473 
L 212.914913 182.147337 
L 213.082313 164.189624 
L 213.249713 185.002663 
L 213.417113 177.373471 
L 213.584513 179.725365 
L 213.751913 177.792051 
L 213.919313 160.080782 
L 214.086713 180.062863 
L 214.254113 180.13084 
L 214.421513 161.167906 
L 214.588913 193.855489 
L 214.756313 192.292792 
L 214.923713 193.691938 
L 215.091113 170.324598 
L 215.258513 210.908192 
L 215.425913 207.258197 
L 215.593313 172.506215 
L 215.760713 202.86276 
L 215.928113 188.375993 
L 216.095513 198.563035 
L 216.262913 201.394487 
L 216.430313 185.224458 
L 216.765113 179.496528 
L 216.932513 199.113963 
L 217.099913 192.122014 
L 217.434713 170.951901 
L 217.602113 171.695887 
L 217.769513 160.250376 
L 217.936913 183.497391 
L 218.104313 176.744503 
L 218.439113 172.065613 
L 218.606513 172.576497 
L 218.773913 179.158796 
L 218.941313 177.895844 
L 219.108713 146.183307 
L 219.276113 143.710685 
L 219.443513 149.611723 
L 219.610913 159.583409 
L 219.778313 150.072976 
L 219.945713 157.875374 
L 220.113113 144.546507 
L 220.280513 140.998682 
L 220.447913 140.785091 
L 220.615313 170.369999 
L 220.782713 166.297291 
L 220.950113 156.788095 
L 221.117513 162.097196 
L 221.284913 185.100799 
L 221.787113 165.298703 
L 221.954513 167.346949 
L 222.289313 134.171169 
L 222.624113 168.762892 
L 222.791513 155.416014 
L 222.958913 161.364631 
L 223.293713 176.480842 
L 223.461113 157.796895 
L 223.628513 170.687658 
L 223.795913 167.277645 
L 223.963313 167.775066 
L 224.130713 141.051264 
L 224.298113 156.810898 
L 224.465513 154.261947 
L 224.632913 129.920844 
L 224.800313 180.221112 
L 224.967713 178.332545 
L 225.135113 158.248503 
L 225.302513 151.965018 
L 225.469913 175.943405 
L 225.637313 183.52669 
L 225.972113 143.845588 
L 226.139513 168.783382 
L 226.306913 164.782014 
L 226.474313 188.089894 
L 226.809113 168.49928 
L 227.143913 196.116135 
L 227.311313 174.142349 
L 227.478713 194.823339 
L 227.646113 189.116511 
L 227.813513 206.546648 
L 227.980913 181.364129 
L 228.148313 181.864481 
L 228.315713 171.057075 
L 228.483113 198.337086 
L 228.650513 193.965598 
L 229.152713 145.21131 
L 229.320113 167.788169 
L 229.487513 150.878879 
L 229.654913 159.253308 
L 229.822313 155.313519 
L 229.989713 160.859343 
L 230.324513 138.246266 
L 230.491913 171.584977 
L 230.659313 152.98422 
L 230.826713 156.132476 
L 230.994113 179.392239 
L 231.161513 174.310489 
L 231.496313 184.357378 
L 231.663713 164.934557 
L 231.831113 169.138689 
L 231.998513 195.537209 
L 232.165913 182.321026 
L 232.333313 180.917194 
L 232.500713 175.198253 
L 232.668113 183.521933 
L 232.835513 165.391653 
L 233.002913 199.925378 
L 233.170313 171.850473 
L 233.505113 154.789358 
L 233.672513 170.365582 
L 233.839913 171.406227 
L 234.007313 181.762301 
L 234.342113 168.368452 
L 234.509513 199.202139 
L 234.844313 171.867125 
L 235.179113 217.694 
L 235.513913 181.79831 
L 235.681313 189.279575 
L 235.848713 208.092122 
L 236.016113 187.005607 
L 236.183513 184.06892 
L 236.350913 160.553412 
L 236.518313 167.405423 
L 236.853113 160.96718 
L 237.020513 167.501458 
L 237.187913 159.74647 
L 237.355313 181.773743 
L 237.522713 162.374911 
L 237.690113 169.856362 
L 237.857513 204.767413 
L 238.024913 174.927382 
L 238.192313 172.619828 
L 238.359713 193.763208 
L 238.527113 192.05975 
L 238.694513 179.970934 
L 238.861913 155.869055 
L 239.029313 181.694679 
L 239.196713 169.933159 
L 239.364113 176.203236 
L 239.531513 190.426495 
L 239.698913 187.360614 
L 239.866313 168.700878 
L 240.033713 182.903851 
L 240.201113 156.12431 
L 240.368513 163.121535 
L 240.535913 192.584802 
L 240.703313 194.171911 
L 240.870713 175.7658 
L 241.038113 174.920274 
L 241.205513 204.572876 
L 241.372913 185.654931 
L 241.540313 189.840134 
L 241.707713 160.129408 
L 241.875113 182.396641 
L 242.042513 184.852692 
L 242.377313 175.506389 
L 242.544713 187.810725 
L 242.712113 180.785985 
L 242.879513 179.527403 
L 243.046913 182.391946 
L 243.214313 176.886721 
L 243.381713 162.173408 
L 243.549113 167.589558 
L 243.716513 186.640671 
L 243.883913 188.461026 
L 244.051313 170.687823 
L 244.218713 179.140852 
L 244.386113 179.875975 
L 244.553513 191.074604 
L 244.720913 174.105644 
L 245.055713 185.735373 
L 245.223113 151.034644 
L 245.390513 155.953862 
L 245.557913 174.999686 
L 245.725313 177.982531 
L 245.892713 158.150648 
L 246.060113 187.406371 
L 246.227513 174.963939 
L 246.394913 186.162332 
L 246.562313 211.014613 
L 246.897113 188.31073 
L 247.064513 185.596945 
L 247.399313 194.959104 
L 247.566713 194.73092 
L 247.901513 173.735107 
L 248.068913 172.346768 
L 248.236313 152.832348 
L 248.403713 186.937897 
L 248.571113 190.571851 
L 248.738513 174.088042 
L 248.905913 174.692453 
L 249.073313 223.362931 
L 249.408113 186.610928 
L 249.742913 202.060546 
L 250.077713 172.526967 
L 250.412513 157.576018 
L 250.579913 172.644128 
L 250.747313 159.878314 
L 250.914713 163.523507 
L 251.082113 174.009786 
L 251.249513 192.871774 
L 251.584313 182.300343 
L 251.751713 188.898425 
L 251.919113 184.111294 
L 252.086513 165.361043 
L 252.253913 192.710064 
L 252.421313 198.062639 
L 252.588713 180.712392 
L 252.756113 141.531879 
L 253.090913 186.131585 
L 253.258313 182.877892 
L 253.425713 152.028299 
L 253.593113 181.470115 
L 253.760513 169.889814 
L 253.927913 144.180822 
L 254.095313 152.241755 
L 254.262713 185.080441 
L 254.597513 132.473329 
L 254.764913 191.594354 
L 254.932313 189.748678 
L 255.099713 147.410736 
L 255.267113 169.271076 
L 255.601913 182.396326 
L 255.769313 168.880718 
L 255.936713 168.476044 
L 256.104113 177.565396 
L 256.271513 161.692577 
L 256.438913 156.985268 
L 256.606313 145.397609 
L 256.773713 162.717495 
L 256.941113 165.03962 
L 257.108513 160.643531 
L 257.275913 151.429192 
L 257.443313 115.731428 
L 257.778113 154.90764 
L 257.945513 158.416094 
L 258.112913 135.13369 
L 258.447713 172.786974 
L 258.782513 155.13473 
L 258.949913 161.661766 
L 259.117313 150.136953 
L 259.284713 153.1644 
L 259.619513 189.840167 
L 259.786913 183.431112 
L 259.954313 186.347432 
L 260.289113 164.871981 
L 260.456513 182.718436 
L 260.623913 186.434998 
L 260.958713 140.37492 
L 261.126113 181.233465 
L 261.293513 181.899574 
L 261.460913 167.427924 
L 261.628313 164.387944 
L 261.963113 215.159599 
L 262.130513 185.472992 
L 262.297913 187.548802 
L 262.465313 192.67379 
L 262.632713 206.883155 
L 262.800113 191.713171 
L 262.967512 197.052089 
L 263.134913 210.085845 
L 263.302313 197.488186 
L 263.469713 166.576174 
L 263.637113 177.613933 
L 263.804513 217.255295 
L 263.971913 186.835451 
L 264.139313 177.671164 
L 264.306713 208.712879 
L 264.474113 158.705302 
L 264.641513 161.995111 
L 264.976313 195.958824 
L 265.143713 158.288301 
L 265.311113 155.731827 
L 265.478513 204.294454 
L 265.645913 175.685588 
L 265.813313 170.230772 
L 265.980713 158.238852 
L 266.148113 182.573451 
L 266.482913 156.95176 
L 266.650313 171.602634 
L 266.817713 170.791206 
L 266.985113 161.964135 
L 267.152513 135.339695 
L 267.319913 137.487636 
L 267.487313 158.336196 
L 267.822113 149.777582 
L 268.156913 164.568445 
L 268.491713 153.425659 
L 268.826513 171.952441 
L 268.993913 170.159713 
L 269.161313 144.445937 
L 269.328713 146.579795 
L 269.496113 146.552246 
L 269.663513 173.040949 
L 269.830913 169.784888 
L 269.998313 151.280287 
L 270.165713 184.734579 
L 270.333113 165.329608 
L 270.500513 159.750637 
L 270.667913 150.237217 
L 270.835313 156.206664 
L 271.002713 177.564395 
L 271.170113 175.990179 
L 271.337513 149.036166 
L 271.504913 157.951594 
L 271.672313 187.3207 
L 272.007113 141.963865 
L 272.341913 188.894129 
L 272.509313 177.507961 
L 272.676713 148.406124 
L 272.844113 170.895044 
L 273.011513 160.023873 
L 273.178913 176.514707 
L 273.346313 152.979234 
L 273.513713 158.831734 
L 273.681113 191.295316 
L 273.848513 193.728526 
L 274.015913 171.700726 
L 274.183313 185.640738 
L 274.350713 163.74524 
L 274.518113 172.489334 
L 274.685513 169.827381 
L 274.852913 170.352017 
L 275.020313 173.966638 
L 275.355113 204.930047 
L 275.689913 165.459963 
L 275.857313 176.568086 
L 276.024713 196.267689 
L 276.359513 150.554821 
L 276.526913 165.524125 
L 276.861713 153.183903 
L 277.029113 165.129183 
L 277.363913 161.113683 
L 277.531313 149.458298 
L 277.866113 175.245357 
L 278.200913 149.96633 
L 278.535713 174.90774 
L 278.703113 154.196457 
L 278.870513 147.82947 
L 279.372713 186.559982 
L 279.540113 176.420627 
L 279.707513 176.813395 
L 279.874913 183.358846 
L 280.042313 174.178745 
L 280.209713 189.902964 
L 280.377113 164.271119 
L 280.711913 206.277806 
L 280.879313 208.940618 
L 281.046713 193.843289 
L 281.214113 199.798728 
L 281.381513 195.884723 
L 281.548913 206.787404 
L 281.716313 192.655328 
L 281.883713 214.200632 
L 282.218513 186.904453 
L 282.553313 214.16758 
L 282.888113 190.619038 
L 283.055513 192.929008 
L 283.222913 162.837594 
L 283.557713 188.905722 
L 283.725113 183.812553 
L 283.892513 161.151768 
L 284.059913 166.89699 
L 284.227313 164.997762 
L 284.394713 171.596389 
L 284.562113 162.650156 
L 284.896913 188.374855 
L 285.231713 153.202682 
L 285.566513 189.16842 
L 285.733913 163.045971 
L 285.901313 163.768554 
L 286.068713 170.806237 
L 286.236113 172.358541 
L 286.570913 192.378779 
L 286.738313 160.26078 
L 287.240513 192.767983 
L 287.575313 161.66607 
L 287.742713 181.831816 
L 287.910113 165.222802 
L 288.077513 162.048672 
L 288.244913 194.767046 
L 288.412313 202.821219 
L 288.579713 156.855171 
L 289.081913 196.152262 
L 289.249313 144.709352 
L 289.416713 187.881581 
L 289.584113 183.516778 
L 289.751513 174.680654 
L 290.086313 184.632899 
L 290.253713 174.22829 
L 290.421113 174.036481 
L 290.588513 165.088894 
L 290.755913 165.855513 
L 290.923313 150.544323 
L 291.090713 163.445608 
L 291.258113 167.510382 
L 291.425513 149.056354 
L 291.760313 175.852226 
L 291.927713 182.874176 
L 292.095113 171.222195 
L 292.262513 191.332915 
L 292.429913 159.646824 
L 293.099513 184.779227 
L 293.266913 180.423349 
L 293.601713 158.16536 
L 293.769113 167.507296 
L 293.936513 156.264818 
L 294.103913 156.685286 
L 294.606113 180.900127 
L 294.773513 175.218152 
L 294.940913 177.020198 
L 295.108313 171.439205 
L 295.275713 175.963051 
L 295.443113 211.637431 
L 295.610513 206.106597 
L 295.777913 173.760606 
L 295.945313 179.911245 
L 296.112713 146.50609 
L 296.280113 171.964698 
L 296.614913 149.858779 
L 297.117113 193.064543 
L 297.284513 172.957124 
L 297.451913 180.022823 
L 297.619313 154.867333 
L 297.954113 184.116261 
L 298.121513 153.479131 
L 298.288913 157.750197 
L 298.456313 174.807311 
L 298.623713 180.493057 
L 298.791113 180.992384 
L 298.958513 172.289013 
L 299.125913 189.612152 
L 299.460713 153.887897 
L 299.628113 186.700613 
L 299.962913 153.817173 
L 300.130313 168.050543 
L 300.297713 153.514378 
L 300.465113 154.333957 
L 300.632513 147.67395 
L 300.799913 151.233003 
L 300.967313 146.106944 
L 301.134713 133.417222 
L 301.302113 148.337134 
L 301.804313 114.960464 
L 301.971713 168.262379 
L 302.139113 164.173698 
L 302.306513 144.293623 
L 302.641313 163.738603 
L 302.976113 122.973232 
L 303.645713 164.188898 
L 303.813113 148.670149 
L 303.980513 159.249033 
L 304.147913 147.816806 
L 304.315313 173.718847 
L 304.482713 169.295309 
L 304.650113 154.671161 
L 304.817513 129.936036 
L 304.984913 155.292439 
L 305.152312 151.68473 
L 305.319713 144.60856 
L 305.487113 171.685707 
L 305.654513 149.110743 
L 305.821913 144.437118 
L 305.989313 135.828509 
L 306.156713 174.029033 
L 306.658913 135.234657 
L 306.826313 172.174858 
L 306.993713 146.742899 
L 307.161113 155.510918 
L 307.328513 175.634741 
L 307.663313 161.4766 
L 307.830713 188.13326 
L 307.998113 195.457669 
L 308.165513 152.51919 
L 308.332913 142.44336 
L 308.500313 168.08396 
L 308.667713 159.956068 
L 308.835113 135.959831 
L 309.002513 153.432232 
L 309.169913 155.542166 
L 309.337313 151.054281 
L 309.504713 136.956733 
L 309.672113 149.766791 
L 309.839513 124.822702 
L 310.006913 125.552421 
L 310.174313 153.482484 
L 310.341713 151.375482 
L 310.676513 134.935978 
L 310.843913 169.064229 
L 311.178713 142.036677 
L 311.513513 171.5693 
L 311.848313 131.45817 
L 312.015713 157.841481 
L 312.183113 134.881167 
L 312.350513 135.84251 
L 312.517913 163.422577 
L 312.685313 161.299334 
L 312.852713 163.345202 
L 313.020113 178.489639 
L 313.187513 175.42964 
L 313.354913 175.252733 
L 313.522313 169.523553 
L 313.689713 200.543467 
L 313.857113 206.628046 
L 314.024513 188.687637 
L 314.191913 210.693978 
L 314.359313 189.428918 
L 314.526713 191.158425 
L 314.694113 195.361149 
L 314.861513 191.515335 
L 315.028913 202.224672 
L 315.196313 193.061091 
L 315.363713 193.486184 
L 315.531113 197.968628 
L 315.698513 195.135869 
L 315.865913 209.663857 
L 316.033313 191.525942 
L 316.200713 196.753809 
L 316.535513 184.334272 
L 316.702913 198.54537 
L 316.870313 199.303908 
L 317.037713 197.614352 
L 317.205113 170.032513 
L 317.372513 171.245741 
L 317.539913 178.727304 
L 317.707313 193.941991 
L 317.874713 161.79125 
L 318.042113 159.536945 
L 318.209513 164.055146 
L 318.544313 190.204092 
L 318.711713 174.457748 
L 318.879113 186.415444 
L 319.046513 180.279476 
L 319.213913 180.339059 
L 319.381313 194.602714 
L 319.548713 174.033567 
L 319.716113 176.977592 
L 319.883513 198.489666 
L 320.218313 180.794651 
L 320.385713 205.278095 
L 320.720513 176.519934 
L 320.887913 175.390359 
L 321.055313 202.766608 
L 321.390113 171.532836 
L 321.557513 169.918495 
L 321.724913 194.06829 
L 321.892313 189.547515 
L 322.059713 173.537406 
L 322.227113 188.235443 
L 322.394513 175.704547 
L 322.561913 172.931313 
L 322.896713 198.979208 
L 323.231513 179.33149 
L 323.566313 214.672804 
L 323.901113 164.935344 
L 324.068512 178.811331 
L 324.235913 212.533043 
L 324.570713 146.301146 
L 324.905513 196.301334 
L 325.072913 163.247657 
L 325.240313 177.437498 
L 325.575113 164.337862 
L 325.742513 147.806639 
L 325.909913 167.717965 
L 326.077313 170.119253 
L 326.244713 164.8082 
L 326.412113 190.177223 
L 326.579513 192.503759 
L 326.746913 151.908679 
L 326.914313 158.983597 
L 327.081713 171.279622 
L 327.249113 163.918647 
L 327.751313 188.923841 
L 327.918713 165.909607 
L 328.086113 178.762967 
L 328.253513 201.651107 
L 328.420913 192.180759 
L 328.588313 165.782549 
L 328.755713 199.728076 
L 329.090513 165.384942 
L 329.257913 171.543528 
L 329.425313 186.444274 
L 329.592713 166.140763 
L 329.760113 183.988093 
L 329.927513 175.163499 
L 330.094913 181.267965 
L 330.262313 154.665442 
L 330.429713 175.098796 
L 330.597113 157.320701 
L 330.764513 170.062621 
L 330.931913 155.064833 
L 331.099313 179.230966 
L 331.266713 147.702455 
L 331.434113 156.027653 
L 331.601513 155.496662 
L 331.768913 137.570916 
L 331.936313 132.506124 
L 332.271113 179.539207 
L 332.438513 150.608984 
L 332.605913 144.777077 
L 332.773313 160.481794 
L 333.108113 156.03696 
L 333.275513 169.234641 
L 333.442913 161.678331 
L 333.610313 160.321534 
L 333.777713 172.493575 
L 333.945113 166.288159 
L 334.279913 185.116096 
L 334.447313 165.399198 
L 334.614713 177.728214 
L 334.782113 170.619607 
L 334.949513 186.765965 
L 335.284313 142.655059 
L 335.619113 196.647114 
L 335.786513 167.580281 
L 335.953913 165.746735 
L 336.121313 197.241862 
L 336.288713 169.024583 
L 336.456113 183.656347 
L 336.623513 158.056307 
L 336.790913 172.090935 
L 336.958313 196.793031 
L 337.125713 174.069401 
L 337.293113 177.688264 
L 337.460513 150.72482 
L 337.627913 175.21441 
L 337.795313 174.733763 
L 337.962713 152.018136 
L 338.130113 159.252741 
L 338.297513 192.180556 
L 338.464913 179.559422 
L 338.799713 175.232006 
L 338.967113 187.143164 
L 339.134513 166.793698 
L 339.301913 179.881222 
L 339.469313 175.974223 
L 339.636713 175.813423 
L 339.804113 180.681435 
L 340.138913 212.610347 
L 340.306313 207.26007 
L 340.473713 211.12154 
L 340.641113 212.042943 
L 340.808513 201.476956 
L 340.975913 180.529436 
L 341.143313 190.90312 
L 341.310713 216.062593 
L 341.478113 208.953281 
L 341.645513 175.825839 
L 341.812913 180.101396 
L 341.980313 189.62401 
L 342.147713 189.697336 
L 342.315113 167.81962 
L 342.482513 195.214005 
L 342.817313 162.53653 
L 343.152113 186.686378 
L 343.319513 175.375669 
L 343.486913 183.630766 
L 343.654313 172.089543 
L 343.989113 188.126782 
L 344.156513 197.986346 
L 344.323913 160.961144 
L 344.491313 178.114412 
L 344.658713 160.222451 
L 344.826113 191.19618 
L 344.993513 175.681136 
L 345.160913 170.954234 
L 345.328313 159.884425 
L 345.495713 183.155843 
L 345.663113 180.608533 
L 345.830513 192.982642 
L 345.997913 179.091411 
L 346.165313 189.818651 
L 346.332713 184.252366 
L 346.500113 162.421735 
L 346.667513 190.70564 
L 346.834913 193.66212 
L 347.002313 168.969431 
L 347.169713 176.575412 
L 347.337113 212.238125 
L 347.504513 172.38782 
L 347.671913 166.39473 
L 347.839313 151.340563 
L 348.006713 181.007681 
L 348.174113 170.975496 
L 348.341513 153.425512 
L 348.508913 169.105174 
L 348.676313 164.698878 
L 348.843713 165.93294 
L 349.011113 155.510929 
L 349.513313 174.625363 
L 349.680713 143.976224 
L 349.848113 169.615896 
L 350.015513 154.322223 
L 350.182913 159.336671 
L 350.350313 127.154311 
L 350.685113 167.268648 
L 350.852513 168.11073 
L 351.019913 150.894449 
L 351.187313 153.391654 
L 351.354713 154.085539 
L 351.522113 150.093548 
L 351.689513 127.572411 
L 351.856913 153.118406 
L 352.191713 134.05874 
L 352.359113 144.002957 
L 352.693913 125.964567 
L 352.861313 147.792901 
L 353.028713 153.881096 
L 353.363513 132.185382 
L 353.530913 141.930464 
L 353.698313 137.381249 
L 353.865713 121.205945 
L 354.033113 146.901228 
L 354.200513 126.821729 
L 354.367913 128.083244 
L 354.702713 172.254698 
L 354.870113 163.395993 
L 355.037513 131.221015 
L 355.707113 191.273593 
L 355.874513 162.439139 
L 356.041913 180.699618 
L 356.209313 167.081325 
L 356.376713 178.128552 
L 356.544113 169.691825 
L 356.711513 168.968894 
L 357.046313 190.133577 
L 357.213713 179.784808 
L 357.548513 198.618068 
L 357.883313 178.033773 
L 358.050713 156.182266 
L 358.218113 203.209013 
L 358.385513 195.291247 
L 358.552913 171.031486 
L 358.720313 190.763564 
L 358.887713 196.456664 
L 359.557313 172.614312 
L 359.724713 153.244957 
L 359.892113 160.023724 
L 360.059513 161.313155 
L 360.226913 156.921318 
L 360.394313 177.101294 
L 360.561713 156.976248 
L 360.896513 186.731661 
L 361.063913 170.666792 
L 361.398713 185.589621 
L 361.566113 180.427384 
L 361.733513 180.818361 
L 361.900913 195.334284 
L 362.068313 188.947801 
L 362.235713 155.36669 
L 362.403113 207.345046 
L 362.570513 195.853781 
L 362.737913 171.502109 
L 363.072713 194.627297 
L 363.240113 188.118495 
L 363.407513 157.542045 
L 363.574913 178.954132 
L 363.909713 170.936851 
L 364.077113 180.592985 
L 364.244513 164.254704 
L 364.411913 166.264904 
L 364.579313 157.746867 
L 364.746713 165.216178 
L 364.914113 155.190295 
L 365.081513 168.65952 
L 365.248913 200.677618 
L 365.416313 192.659866 
L 365.583713 167.681005 
L 365.751113 180.460474 
L 366.085913 161.126944 
L 366.253313 177.710781 
L 366.420713 157.50952 
L 366.588113 157.564406 
L 366.755513 169.177795 
L 366.922913 199.355473 
L 367.090313 155.524408 
L 367.257713 167.478415 
L 367.425113 157.230389 
L 367.592513 164.729006 
L 367.759913 185.209839 
L 367.927313 156.910542 
L 368.262113 173.269758 
L 368.429513 206.577554 
L 368.596913 204.284961 
L 368.764313 175.019936 
L 368.931713 182.377802 
L 369.099113 207.232098 
L 369.266513 196.423746 
L 369.433913 195.885418 
L 369.601313 191.917447 
L 369.936113 164.351101 
L 370.103513 173.426857 
L 370.270913 172.4444 
L 370.438313 140.895519 
L 370.940513 189.734758 
L 371.107913 167.987512 
L 371.442713 195.82463 
L 371.777513 149.334372 
L 372.112313 186.106572 
L 372.447113 144.858094 
L 372.614513 177.845705 
L 372.781913 182.657603 
L 372.949313 142.738996 
L 373.116713 152.428572 
L 373.284113 172.294636 
L 373.451513 159.706274 
L 373.618913 168.384774 
L 373.786313 153.540704 
L 373.953713 162.819546 
L 374.121113 147.435575 
L 374.288513 160.261005 
L 374.455913 146.717201 
L 374.623313 160.138756 
L 374.790713 161.371737 
L 374.958113 190.752674 
L 375.125513 184.827578 
L 375.292913 166.240839 
L 375.795113 194.152645 
L 375.962513 165.397321 
L 376.297313 202.540528 
L 376.464713 184.87802 
L 376.632113 179.424691 
L 376.799513 179.235266 
L 376.966913 179.540346 
L 377.134313 203.320378 
L 377.469113 155.72796 
L 377.636513 182.149456 
L 377.803913 187.139339 
L 377.971313 186.915076 
L 378.138713 164.901011 
L 378.306113 173.673728 
L 378.473513 150.842048 
L 378.640913 192.36158 
L 378.808313 153.224209 
L 379.143113 143.840591 
L 379.310513 161.643348 
L 379.477913 134.851707 
L 379.645313 178.097379 
L 379.645313 178.097379 
" clip-path="url(#p566db679ac)" style="fill: none; stroke: #1f77b4; stroke-width: 1.5; stroke-linecap: square"/>
   </g>
   <g id="line2d_18">
    <path d="M 45.012713 56.657172 
L 45.682313 96.962787 
L 46.351913 123.980449 
L 47.021513 142.090929 
L 47.691113 154.230748 
L 48.360713 162.368311 
L 49.030313 167.823083 
L 49.699913 171.479526 
L 50.369513 173.930513 
L 51.039113 175.573458 
L 51.708713 176.674758 
L 52.378313 177.412981 
L 53.215313 178.003574 
L 54.219713 178.414334 
L 55.558913 178.689468 
L 57.567713 178.846351 
L 62.087513 178.909425 
L 106.783313 178.913969 
L 379.645313 178.913969 
L 379.645313 178.913969 
" clip-path="url(#p566db679ac)" style="fill: none; stroke: #ff7f0e; stroke-width: 1.5; stroke-linecap: square"/>
   </g>
   <g id="patch_3">
    <path d="M 44.845313 253.44 
L 44.845313 36 
" style="fill: none; stroke: #000000; stroke-width: 0.8; stroke-linejoin: miter; stroke-linecap: square"/>
   </g>
   <g id="patch_4">
    <path d="M 379.645313 253.44 
L 379.645313 36 
" style="fill: none; stroke: #000000; stroke-width: 0.8; stroke-linejoin: miter; stroke-linecap: square"/>
   </g>
   <g id="patch_5">
    <path d="M 44.845313 253.44 
L 379.645313 253.44 
" style="fill: none; stroke: #000000; stroke-width: 0.8; stroke-linejoin: miter; stroke-linecap: square"/>
   </g>
   <g id="patch_6">
    <path d="M 44.845313 36 
L 379.645313 36 
" style="fill: none; stroke: #000000; stroke-width: 0.8; stroke-linejoin: miter; stroke-linecap: square"/>
   </g>
   <g id="legend_1">
    <g id="patch_7">
     <path d="M 322.945313 77.078125 
L 372.645313 77.078125 
Q 374.645313 77.078125 374.645313 75.078125 
L 374.645313 43 
Q 374.645313 41 372.645313 41 
L 322.945313 41 
Q 320.945313 41 320.945313 43 
L 320.945313 75.078125 
Q 320.945313 77.078125 322.945313 77.078125 
z
" style="fill: #ffffff; opacity: 0.8; stroke: #cccccc; stroke-linejoin: miter"/>
    </g>
    <g id="line2d_19">
     <path d="M 324.945313 52.8 
L 334.945313 52.8 
L 344.945313 52.8 
" style="fill: none; stroke: #1f77b4; stroke-width: 1.5; stroke-linecap: square"/>
    </g>
    <g id="text_17">
     <!-- $\hat{y(t)}$ -->
     <g transform="translate(352.945313 56.3) scale(0.1 -0.1)">
      <defs>
       <path id="DejaVuSans-302" d="M -1831 5119 
L -1369 5119 
L -603 3944 
L -1038 3944 
L -1600 4709 
L -2163 3944 
L -2597 3944 
L -1831 5119 
z
M -1600 3584 
L -1600 3584 
z
" transform="scale(0.015625)"/>
       <path id="DejaVuSans-Oblique-79" d="M 1588 -325 
Q 1188 -997 936 -1164 
Q 684 -1331 294 -1331 
L -159 -1331 
L -63 -850 
L 269 -850 
Q 509 -850 678 -719 
Q 847 -588 1056 -206 
L 1234 128 
L 459 3500 
L 1069 3500 
L 1650 819 
L 3256 3500 
L 3859 3500 
L 1588 -325 
z
" transform="scale(0.015625)"/>
       <path id="DejaVuSans-28" d="M 1984 4856 
Q 1566 4138 1362 3434 
Q 1159 2731 1159 2009 
Q 1159 1288 1364 580 
Q 1569 -128 1984 -844 
L 1484 -844 
Q 1016 -109 783 600 
Q 550 1309 550 2009 
Q 550 2706 781 3412 
Q 1013 4119 1484 4856 
L 1984 4856 
z
" transform="scale(0.015625)"/>
       <path id="DejaVuSans-Oblique-74" d="M 2706 3500 
L 2619 3053 
L 1472 3053 
L 1100 1153 
Q 1081 1047 1072 975 
Q 1063 903 1063 863 
Q 1063 663 1183 572 
Q 1303 481 1569 481 
L 2150 481 
L 2053 0 
L 1503 0 
Q 991 0 739 200 
Q 488 400 488 806 
Q 488 878 497 964 
Q 506 1050 525 1153 
L 897 3053 
L 409 3053 
L 500 3500 
L 978 3500 
L 1172 4494 
L 1747 4494 
L 1556 3500 
L 2706 3500 
z
" transform="scale(0.015625)"/>
       <path id="DejaVuSans-29" d="M 513 4856 
L 1013 4856 
Q 1481 4119 1714 3412 
Q 1947 2706 1947 2009 
Q 1947 1309 1714 600 
Q 1481 -109 1013 -844 
L 513 -844 
Q 928 -128 1133 580 
Q 1338 1288 1338 2009 
Q 1338 2731 1133 3434 
Q 928 4138 513 4856 
z
" transform="scale(0.015625)"/>
      </defs>
      <use xlink:href="#DejaVuSans-302" transform="translate(135.682129 33.015625)"/>
      <use xlink:href="#DejaVuSans-Oblique-79" transform="translate(0 0.640625)"/>
      <use xlink:href="#DejaVuSans-28" transform="translate(59.179688 0.640625)"/>
      <use xlink:href="#DejaVuSans-Oblique-74" transform="translate(98.193359 0.640625)"/>
      <use xlink:href="#DejaVuSans-29" transform="translate(137.402344 0.640625)"/>
     </g>
    </g>
    <g id="line2d_20">
     <path d="M 324.945313 67.498437 
L 334.945313 67.498437 
L 344.945313 67.498437 
" style="fill: none; stroke: #ff7f0e; stroke-width: 1.5; stroke-linecap: square"/>
    </g>
    <g id="text_18">
     <!-- $x(t)$ -->
     <g transform="translate(352.945313 70.998437) scale(0.1 -0.1)">
      <defs>
       <path id="DejaVuSans-Oblique-78" d="M 3841 3500 
L 2234 1784 
L 3219 0 
L 2559 0 
L 1819 1388 
L 531 0 
L -166 0 
L 1556 1844 
L 641 3500 
L 1300 3500 
L 1972 2234 
L 3144 3500 
L 3841 3500 
z
" transform="scale(0.015625)"/>
      </defs>
      <use xlink:href="#DejaVuSans-Oblique-78" transform="translate(0 0.125)"/>
      <use xlink:href="#DejaVuSans-28" transform="translate(59.179688 0.125)"/>
      <use xlink:href="#DejaVuSans-Oblique-74" transform="translate(98.193359 0.125)"/>
      <use xlink:href="#DejaVuSans-29" transform="translate(137.402344 0.125)"/>
     </g>
    </g>
   </g>
  </g>
  <g id="text_19">
   <!-- Accumulate to Threshold model with input of -0.2 with rms=3  -->
   <g transform="translate(19.512188 16.318125) scale(0.12 -0.12)">
    <defs>
     <path id="DejaVuSans-41" d="M 2188 4044 
L 1331 1722 
L 3047 1722 
L 2188 4044 
z
M 1831 4666 
L 2547 4666 
L 4325 0 
L 3669 0 
L 3244 1197 
L 1141 1197 
L 716 0 
L 50 0 
L 1831 4666 
z
" transform="scale(0.015625)"/>
     <path id="DejaVuSans-63" d="M 3122 3366 
L 3122 2828 
Q 2878 2963 2633 3030 
Q 2388 3097 2138 3097 
Q 1578 3097 1268 2742 
Q 959 2388 959 1747 
Q 959 1106 1268 751 
Q 1578 397 2138 397 
Q 2388 397 2633 464 
Q 2878 531 3122 666 
L 3122 134 
Q 2881 22 2623 -34 
Q 2366 -91 2075 -91 
Q 1284 -91 818 406 
Q 353 903 353 1747 
Q 353 2603 823 3093 
Q 1294 3584 2113 3584 
Q 2378 3584 2631 3529 
Q 2884 3475 3122 3366 
z
" transform="scale(0.015625)"/>
     <path id="DejaVuSans-75" d="M 544 1381 
L 544 3500 
L 1119 3500 
L 1119 1403 
Q 1119 906 1312 657 
Q 1506 409 1894 409 
Q 2359 409 2629 706 
Q 2900 1003 2900 1516 
L 2900 3500 
L 3475 3500 
L 3475 0 
L 2900 0 
L 2900 538 
Q 2691 219 2414 64 
Q 2138 -91 1772 -91 
Q 1169 -91 856 284 
Q 544 659 544 1381 
z
M 1991 3584 
L 1991 3584 
z
" transform="scale(0.015625)"/>
     <path id="DejaVuSans-6d" d="M 3328 2828 
Q 3544 3216 3844 3400 
Q 4144 3584 4550 3584 
Q 5097 3584 5394 3201 
Q 5691 2819 5691 2113 
L 5691 0 
L 5113 0 
L 5113 2094 
Q 5113 2597 4934 2840 
Q 4756 3084 4391 3084 
Q 3944 3084 3684 2787 
Q 3425 2491 3425 1978 
L 3425 0 
L 2847 0 
L 2847 2094 
Q 2847 2600 2669 2842 
Q 2491 3084 2119 3084 
Q 1678 3084 1418 2786 
Q 1159 2488 1159 1978 
L 1159 0 
L 581 0 
L 581 3500 
L 1159 3500 
L 1159 2956 
Q 1356 3278 1631 3431 
Q 1906 3584 2284 3584 
Q 2666 3584 2933 3390 
Q 3200 3197 3328 2828 
z
" transform="scale(0.015625)"/>
     <path id="DejaVuSans-6c" d="M 603 4863 
L 1178 4863 
L 1178 0 
L 603 0 
L 603 4863 
z
" transform="scale(0.015625)"/>
     <path id="DejaVuSans-61" d="M 2194 1759 
Q 1497 1759 1228 1600 
Q 959 1441 959 1056 
Q 959 750 1161 570 
Q 1363 391 1709 391 
Q 2188 391 2477 730 
Q 2766 1069 2766 1631 
L 2766 1759 
L 2194 1759 
z
M 3341 1997 
L 3341 0 
L 2766 0 
L 2766 531 
Q 2569 213 2275 61 
Q 1981 -91 1556 -91 
Q 1019 -91 701 211 
Q 384 513 384 1019 
Q 384 1609 779 1909 
Q 1175 2209 1959 2209 
L 2766 2209 
L 2766 2266 
Q 2766 2663 2505 2880 
Q 2244 3097 1772 3097 
Q 1472 3097 1187 3025 
Q 903 2953 641 2809 
L 641 3341 
Q 956 3463 1253 3523 
Q 1550 3584 1831 3584 
Q 2591 3584 2966 3190 
Q 3341 2797 3341 1997 
z
" transform="scale(0.015625)"/>
     <path id="DejaVuSans-74" d="M 1172 4494 
L 1172 3500 
L 2356 3500 
L 2356 3053 
L 1172 3053 
L 1172 1153 
Q 1172 725 1289 603 
Q 1406 481 1766 481 
L 2356 481 
L 2356 0 
L 1766 0 
Q 1100 0 847 248 
Q 594 497 594 1153 
L 594 3053 
L 172 3053 
L 172 3500 
L 594 3500 
L 594 4494 
L 1172 4494 
z
" transform="scale(0.015625)"/>
     <path id="DejaVuSans-65" d="M 3597 1894 
L 3597 1613 
L 953 1613 
Q 991 1019 1311 708 
Q 1631 397 2203 397 
Q 2534 397 2845 478 
Q 3156 559 3463 722 
L 3463 178 
Q 3153 47 2828 -22 
Q 2503 -91 2169 -91 
Q 1331 -91 842 396 
Q 353 884 353 1716 
Q 353 2575 817 3079 
Q 1281 3584 2069 3584 
Q 2775 3584 3186 3129 
Q 3597 2675 3597 1894 
z
M 3022 2063 
Q 3016 2534 2758 2815 
Q 2500 3097 2075 3097 
Q 1594 3097 1305 2825 
Q 1016 2553 972 2059 
L 3022 2063 
z
" transform="scale(0.015625)"/>
     <path id="DejaVuSans-20" transform="scale(0.015625)"/>
     <path id="DejaVuSans-6f" d="M 1959 3097 
Q 1497 3097 1228 2736 
Q 959 2375 959 1747 
Q 959 1119 1226 758 
Q 1494 397 1959 397 
Q 2419 397 2687 759 
Q 2956 1122 2956 1747 
Q 2956 2369 2687 2733 
Q 2419 3097 1959 3097 
z
M 1959 3584 
Q 2709 3584 3137 3096 
Q 3566 2609 3566 1747 
Q 3566 888 3137 398 
Q 2709 -91 1959 -91 
Q 1206 -91 779 398 
Q 353 888 353 1747 
Q 353 2609 779 3096 
Q 1206 3584 1959 3584 
z
" transform="scale(0.015625)"/>
     <path id="DejaVuSans-54" d="M -19 4666 
L 3928 4666 
L 3928 4134 
L 2272 4134 
L 2272 0 
L 1638 0 
L 1638 4134 
L -19 4134 
L -19 4666 
z
" transform="scale(0.015625)"/>
     <path id="DejaVuSans-68" d="M 3513 2113 
L 3513 0 
L 2938 0 
L 2938 2094 
Q 2938 2591 2744 2837 
Q 2550 3084 2163 3084 
Q 1697 3084 1428 2787 
Q 1159 2491 1159 1978 
L 1159 0 
L 581 0 
L 581 4863 
L 1159 4863 
L 1159 2956 
Q 1366 3272 1645 3428 
Q 1925 3584 2291 3584 
Q 2894 3584 3203 3211 
Q 3513 2838 3513 2113 
z
" transform="scale(0.015625)"/>
     <path id="DejaVuSans-72" d="M 2631 2963 
Q 2534 3019 2420 3045 
Q 2306 3072 2169 3072 
Q 1681 3072 1420 2755 
Q 1159 2438 1159 1844 
L 1159 0 
L 581 0 
L 581 3500 
L 1159 3500 
L 1159 2956 
Q 1341 3275 1631 3429 
Q 1922 3584 2338 3584 
Q 2397 3584 2469 3576 
Q 2541 3569 2628 3553 
L 2631 2963 
z
" transform="scale(0.015625)"/>
     <path id="DejaVuSans-73" d="M 2834 3397 
L 2834 2853 
Q 2591 2978 2328 3040 
Q 2066 3103 1784 3103 
Q 1356 3103 1142 2972 
Q 928 2841 928 2578 
Q 928 2378 1081 2264 
Q 1234 2150 1697 2047 
L 1894 2003 
Q 2506 1872 2764 1633 
Q 3022 1394 3022 966 
Q 3022 478 2636 193 
Q 2250 -91 1575 -91 
Q 1294 -91 989 -36 
Q 684 19 347 128 
L 347 722 
Q 666 556 975 473 
Q 1284 391 1588 391 
Q 1994 391 2212 530 
Q 2431 669 2431 922 
Q 2431 1156 2273 1281 
Q 2116 1406 1581 1522 
L 1381 1569 
Q 847 1681 609 1914 
Q 372 2147 372 2553 
Q 372 3047 722 3315 
Q 1072 3584 1716 3584 
Q 2034 3584 2315 3537 
Q 2597 3491 2834 3397 
z
" transform="scale(0.015625)"/>
     <path id="DejaVuSans-64" d="M 2906 2969 
L 2906 4863 
L 3481 4863 
L 3481 0 
L 2906 0 
L 2906 525 
Q 2725 213 2448 61 
Q 2172 -91 1784 -91 
Q 1150 -91 751 415 
Q 353 922 353 1747 
Q 353 2572 751 3078 
Q 1150 3584 1784 3584 
Q 2172 3584 2448 3432 
Q 2725 3281 2906 2969 
z
M 947 1747 
Q 947 1113 1208 752 
Q 1469 391 1925 391 
Q 2381 391 2643 752 
Q 2906 1113 2906 1747 
Q 2906 2381 2643 2742 
Q 2381 3103 1925 3103 
Q 1469 3103 1208 2742 
Q 947 2381 947 1747 
z
" transform="scale(0.015625)"/>
     <path id="DejaVuSans-77" d="M 269 3500 
L 844 3500 
L 1563 769 
L 2278 3500 
L 2956 3500 
L 3675 769 
L 4391 3500 
L 4966 3500 
L 4050 0 
L 3372 0 
L 2619 2869 
L 1863 0 
L 1184 0 
L 269 3500 
z
" transform="scale(0.015625)"/>
     <path id="DejaVuSans-69" d="M 603 3500 
L 1178 3500 
L 1178 0 
L 603 0 
L 603 3500 
z
M 603 4863 
L 1178 4863 
L 1178 4134 
L 603 4134 
L 603 4863 
z
" transform="scale(0.015625)"/>
     <path id="DejaVuSans-6e" d="M 3513 2113 
L 3513 0 
L 2938 0 
L 2938 2094 
Q 2938 2591 2744 2837 
Q 2550 3084 2163 3084 
Q 1697 3084 1428 2787 
Q 1159 2491 1159 1978 
L 1159 0 
L 581 0 
L 581 3500 
L 1159 3500 
L 1159 2956 
Q 1366 3272 1645 3428 
Q 1925 3584 2291 3584 
Q 2894 3584 3203 3211 
Q 3513 2838 3513 2113 
z
" transform="scale(0.015625)"/>
     <path id="DejaVuSans-70" d="M 1159 525 
L 1159 -1331 
L 581 -1331 
L 581 3500 
L 1159 3500 
L 1159 2969 
Q 1341 3281 1617 3432 
Q 1894 3584 2278 3584 
Q 2916 3584 3314 3078 
Q 3713 2572 3713 1747 
Q 3713 922 3314 415 
Q 2916 -91 2278 -91 
Q 1894 -91 1617 61 
Q 1341 213 1159 525 
z
M 3116 1747 
Q 3116 2381 2855 2742 
Q 2594 3103 2138 3103 
Q 1681 3103 1420 2742 
Q 1159 2381 1159 1747 
Q 1159 1113 1420 752 
Q 1681 391 2138 391 
Q 2594 391 2855 752 
Q 3116 1113 3116 1747 
z
" transform="scale(0.015625)"/>
     <path id="DejaVuSans-66" d="M 2375 4863 
L 2375 4384 
L 1825 4384 
Q 1516 4384 1395 4259 
Q 1275 4134 1275 3809 
L 1275 3500 
L 2222 3500 
L 2222 3053 
L 1275 3053 
L 1275 0 
L 697 0 
L 697 3053 
L 147 3053 
L 147 3500 
L 697 3500 
L 697 3744 
Q 697 4328 969 4595 
Q 1241 4863 1831 4863 
L 2375 4863 
z
" transform="scale(0.015625)"/>
     <path id="DejaVuSans-2d" d="M 313 2009 
L 1997 2009 
L 1997 1497 
L 313 1497 
L 313 2009 
z
" transform="scale(0.015625)"/>
     <path id="DejaVuSans-3d" d="M 678 2906 
L 4684 2906 
L 4684 2381 
L 678 2381 
L 678 2906 
z
M 678 1631 
L 4684 1631 
L 4684 1100 
L 678 1100 
L 678 1631 
z
" transform="scale(0.015625)"/>
    </defs>
    <use xlink:href="#DejaVuSans-41"/>
    <use xlink:href="#DejaVuSans-63" x="66.658203"/>
    <use xlink:href="#DejaVuSans-63" x="121.638672"/>
    <use xlink:href="#DejaVuSans-75" x="176.619141"/>
    <use xlink:href="#DejaVuSans-6d" x="239.998047"/>
    <use xlink:href="#DejaVuSans-75" x="337.410156"/>
    <use xlink:href="#DejaVuSans-6c" x="400.789062"/>
    <use xlink:href="#DejaVuSans-61" x="428.572266"/>
    <use xlink:href="#DejaVuSans-74" x="489.851562"/>
    <use xlink:href="#DejaVuSans-65" x="529.060547"/>
    <use xlink:href="#DejaVuSans-20" x="590.583984"/>
    <use xlink:href="#DejaVuSans-74" x="622.371094"/>
    <use xlink:href="#DejaVuSans-6f" x="661.580078"/>
    <use xlink:href="#DejaVuSans-20" x="722.761719"/>
    <use xlink:href="#DejaVuSans-54" x="754.548828"/>
    <use xlink:href="#DejaVuSans-68" x="815.632812"/>
    <use xlink:href="#DejaVuSans-72" x="879.011719"/>
    <use xlink:href="#DejaVuSans-65" x="917.875"/>
    <use xlink:href="#DejaVuSans-73" x="979.398438"/>
    <use xlink:href="#DejaVuSans-68" x="1031.498047"/>
    <use xlink:href="#DejaVuSans-6f" x="1094.876953"/>
    <use xlink:href="#DejaVuSans-6c" x="1156.058594"/>
    <use xlink:href="#DejaVuSans-64" x="1183.841797"/>
    <use xlink:href="#DejaVuSans-20" x="1247.318359"/>
    <use xlink:href="#DejaVuSans-6d" x="1279.105469"/>
    <use xlink:href="#DejaVuSans-6f" x="1376.517578"/>
    <use xlink:href="#DejaVuSans-64" x="1437.699219"/>
    <use xlink:href="#DejaVuSans-65" x="1501.175781"/>
    <use xlink:href="#DejaVuSans-6c" x="1562.699219"/>
    <use xlink:href="#DejaVuSans-20" x="1590.482422"/>
    <use xlink:href="#DejaVuSans-77" x="1622.269531"/>
    <use xlink:href="#DejaVuSans-69" x="1704.056641"/>
    <use xlink:href="#DejaVuSans-74" x="1731.839844"/>
    <use xlink:href="#DejaVuSans-68" x="1771.048828"/>
    <use xlink:href="#DejaVuSans-20" x="1834.427734"/>
    <use xlink:href="#DejaVuSans-69" x="1866.214844"/>
    <use xlink:href="#DejaVuSans-6e" x="1893.998047"/>
    <use xlink:href="#DejaVuSans-70" x="1957.376953"/>
    <use xlink:href="#DejaVuSans-75" x="2020.853516"/>
    <use xlink:href="#DejaVuSans-74" x="2084.232422"/>
    <use xlink:href="#DejaVuSans-20" x="2123.441406"/>
    <use xlink:href="#DejaVuSans-6f" x="2155.228516"/>
    <use xlink:href="#DejaVuSans-66" x="2216.410156"/>
    <use xlink:href="#DejaVuSans-20" x="2251.615234"/>
    <use xlink:href="#DejaVuSans-2d" x="2283.402344"/>
    <use xlink:href="#DejaVuSans-30" x="2319.486328"/>
    <use xlink:href="#DejaVuSans-2e" x="2383.109375"/>
    <use xlink:href="#DejaVuSans-32" x="2414.896484"/>
    <use xlink:href="#DejaVuSans-20" x="2478.519531"/>
    <use xlink:href="#DejaVuSans-77" x="2510.306641"/>
    <use xlink:href="#DejaVuSans-69" x="2592.09375"/>
    <use xlink:href="#DejaVuSans-74" x="2619.876953"/>
    <use xlink:href="#DejaVuSans-68" x="2659.085938"/>
    <use xlink:href="#DejaVuSans-20" x="2722.464844"/>
    <use xlink:href="#DejaVuSans-72" x="2754.251953"/>
    <use xlink:href="#DejaVuSans-6d" x="2793.615234"/>
    <use xlink:href="#DejaVuSans-73" x="2891.027344"/>
    <use xlink:href="#DejaVuSans-3d" x="2943.126953"/>
    <use xlink:href="#DejaVuSans-33" x="3026.916016"/>
    <use xlink:href="#DejaVuSans-20" x="3090.539062"/>
   </g>
  </g>
 </g>
 <defs>
  <clipPath id="p566db679ac">
   <rect x="44.845313" y="36" width="334.8" height="217.44"/>
  </clipPath>
 </defs>
</svg>
