<?xml version="1.0" encoding="utf-8" standalone="no"?>
<!DOCTYPE svg PUBLIC "-//W3C//DTD SVG 1.1//EN"
  "http://www.w3.org/Graphics/SVG/1.1/DTD/svg11.dtd">
<svg xmlns:xlink="http://www.w3.org/1999/xlink" width="395.015937pt" height="290.99625pt" viewBox="0 0 395.015937 290.99625" xmlns="http://www.w3.org/2000/svg" version="1.1">
 <metadata>
  <rdf:RDF xmlns:dc="http://purl.org/dc/elements/1.1/" xmlns:cc="http://creativecommons.org/ns#" xmlns:rdf="http://www.w3.org/1999/02/22-rdf-syntax-ns#">
   <cc:Work>
    <dc:type rdf:resource="http://purl.org/dc/dcmitype/StillImage"/>
    <dc:date>2022-11-20T12:44:45.070505</dc:date>
    <dc:format>image/svg+xml</dc:format>
    <dc:creator>
     <cc:Agent>
      <dc:title>Matplotlib v3.6.0, https://matplotlib.org/</dc:title>
     </cc:Agent>
    </dc:creator>
   </cc:Work>
  </rdf:RDF>
 </metadata>
 <defs>
  <style type="text/css">*{stroke-linejoin: round; stroke-linecap: butt}</style>
 </defs>
 <g id="figure_1">
  <g id="patch_1">
   <path d="M -0 290.99625 
L 395.015937 290.99625 
L 395.015937 0 
L -0 0 
L -0 290.99625 
z
" style="fill: none"/>
  </g>
  <g id="axes_1">
   <g id="patch_2">
    <path d="M 38.482813 253.44 
L 373.282813 253.44 
L 373.282813 36 
L 38.482813 36 
z
" style="fill: #ffffff"/>
   </g>
   <g id="matplotlib.axis_1">
    <g id="xtick_1">
     <g id="line2d_1">
      <defs>
       <path id="mc8e4caf3d1" d="M 0 0 
L 0 3.5 
" style="stroke: #000000; stroke-width: 0.8"/>
      </defs>
      <g>
       <use xlink:href="#mc8e4caf3d1" x="38.482813" y="253.44" style="stroke: #000000; stroke-width: 0.8"/>
      </g>
     </g>
     <g id="text_1">
      <!-- 0.00 -->
      <g transform="translate(27.35 268.038437) scale(0.1 -0.1)">
       <defs>
        <path id="DejaVuSans-30" d="M 2034 4250 
Q 1547 4250 1301 3770 
Q 1056 3291 1056 2328 
Q 1056 1369 1301 889 
Q 1547 409 2034 409 
Q 2525 409 2770 889 
Q 3016 1369 3016 2328 
Q 3016 3291 2770 3770 
Q 2525 4250 2034 4250 
z
M 2034 4750 
Q 2819 4750 3233 4129 
Q 3647 3509 3647 2328 
Q 3647 1150 3233 529 
Q 2819 -91 2034 -91 
Q 1250 -91 836 529 
Q 422 1150 422 2328 
Q 422 3509 836 4129 
Q 1250 4750 2034 4750 
z
" transform="scale(0.015625)"/>
        <path id="DejaVuSans-2e" d="M 684 794 
L 1344 794 
L 1344 0 
L 684 0 
L 684 794 
z
" transform="scale(0.015625)"/>
       </defs>
       <use xlink:href="#DejaVuSans-30"/>
       <use xlink:href="#DejaVuSans-2e" x="63.623047"/>
       <use xlink:href="#DejaVuSans-30" x="95.410156"/>
       <use xlink:href="#DejaVuSans-30" x="159.033203"/>
      </g>
     </g>
    </g>
    <g id="xtick_2">
     <g id="line2d_2">
      <g>
       <use xlink:href="#mc8e4caf3d1" x="80.332813" y="253.44" style="stroke: #000000; stroke-width: 0.8"/>
      </g>
     </g>
     <g id="text_2">
      <!-- 0.25 -->
      <g transform="translate(69.2 268.038437) scale(0.1 -0.1)">
       <defs>
        <path id="DejaVuSans-32" d="M 1228 531 
L 3431 531 
L 3431 0 
L 469 0 
L 469 531 
Q 828 903 1448 1529 
Q 2069 2156 2228 2338 
Q 2531 2678 2651 2914 
Q 2772 3150 2772 3378 
Q 2772 3750 2511 3984 
Q 2250 4219 1831 4219 
Q 1534 4219 1204 4116 
Q 875 4013 500 3803 
L 500 4441 
Q 881 4594 1212 4672 
Q 1544 4750 1819 4750 
Q 2544 4750 2975 4387 
Q 3406 4025 3406 3419 
Q 3406 3131 3298 2873 
Q 3191 2616 2906 2266 
Q 2828 2175 2409 1742 
Q 1991 1309 1228 531 
z
" transform="scale(0.015625)"/>
        <path id="DejaVuSans-35" d="M 691 4666 
L 3169 4666 
L 3169 4134 
L 1269 4134 
L 1269 2991 
Q 1406 3038 1543 3061 
Q 1681 3084 1819 3084 
Q 2600 3084 3056 2656 
Q 3513 2228 3513 1497 
Q 3513 744 3044 326 
Q 2575 -91 1722 -91 
Q 1428 -91 1123 -41 
Q 819 9 494 109 
L 494 744 
Q 775 591 1075 516 
Q 1375 441 1709 441 
Q 2250 441 2565 725 
Q 2881 1009 2881 1497 
Q 2881 1984 2565 2268 
Q 2250 2553 1709 2553 
Q 1456 2553 1204 2497 
Q 953 2441 691 2322 
L 691 4666 
z
" transform="scale(0.015625)"/>
       </defs>
       <use xlink:href="#DejaVuSans-30"/>
       <use xlink:href="#DejaVuSans-2e" x="63.623047"/>
       <use xlink:href="#DejaVuSans-32" x="95.410156"/>
       <use xlink:href="#DejaVuSans-35" x="159.033203"/>
      </g>
     </g>
    </g>
    <g id="xtick_3">
     <g id="line2d_3">
      <g>
       <use xlink:href="#mc8e4caf3d1" x="122.182813" y="253.44" style="stroke: #000000; stroke-width: 0.8"/>
      </g>
     </g>
     <g id="text_3">
      <!-- 0.50 -->
      <g transform="translate(111.05 268.038437) scale(0.1 -0.1)">
       <use xlink:href="#DejaVuSans-30"/>
       <use xlink:href="#DejaVuSans-2e" x="63.623047"/>
       <use xlink:href="#DejaVuSans-35" x="95.410156"/>
       <use xlink:href="#DejaVuSans-30" x="159.033203"/>
      </g>
     </g>
    </g>
    <g id="xtick_4">
     <g id="line2d_4">
      <g>
       <use xlink:href="#mc8e4caf3d1" x="164.032813" y="253.44" style="stroke: #000000; stroke-width: 0.8"/>
      </g>
     </g>
     <g id="text_4">
      <!-- 0.75 -->
      <g transform="translate(152.9 268.038437) scale(0.1 -0.1)">
       <defs>
        <path id="DejaVuSans-37" d="M 525 4666 
L 3525 4666 
L 3525 4397 
L 1831 0 
L 1172 0 
L 2766 4134 
L 525 4134 
L 525 4666 
z
" transform="scale(0.015625)"/>
       </defs>
       <use xlink:href="#DejaVuSans-30"/>
       <use xlink:href="#DejaVuSans-2e" x="63.623047"/>
       <use xlink:href="#DejaVuSans-37" x="95.410156"/>
       <use xlink:href="#DejaVuSans-35" x="159.033203"/>
      </g>
     </g>
    </g>
    <g id="xtick_5">
     <g id="line2d_5">
      <g>
       <use xlink:href="#mc8e4caf3d1" x="205.882812" y="253.44" style="stroke: #000000; stroke-width: 0.8"/>
      </g>
     </g>
     <g id="text_5">
      <!-- 1.00 -->
      <g transform="translate(194.75 268.038437) scale(0.1 -0.1)">
       <defs>
        <path id="DejaVuSans-31" d="M 794 531 
L 1825 531 
L 1825 4091 
L 703 3866 
L 703 4441 
L 1819 4666 
L 2450 4666 
L 2450 531 
L 3481 531 
L 3481 0 
L 794 0 
L 794 531 
z
" transform="scale(0.015625)"/>
       </defs>
       <use xlink:href="#DejaVuSans-31"/>
       <use xlink:href="#DejaVuSans-2e" x="63.623047"/>
       <use xlink:href="#DejaVuSans-30" x="95.410156"/>
       <use xlink:href="#DejaVuSans-30" x="159.033203"/>
      </g>
     </g>
    </g>
    <g id="xtick_6">
     <g id="line2d_6">
      <g>
       <use xlink:href="#mc8e4caf3d1" x="247.732812" y="253.44" style="stroke: #000000; stroke-width: 0.8"/>
      </g>
     </g>
     <g id="text_6">
      <!-- 1.25 -->
      <g transform="translate(236.6 268.038437) scale(0.1 -0.1)">
       <use xlink:href="#DejaVuSans-31"/>
       <use xlink:href="#DejaVuSans-2e" x="63.623047"/>
       <use xlink:href="#DejaVuSans-32" x="95.410156"/>
       <use xlink:href="#DejaVuSans-35" x="159.033203"/>
      </g>
     </g>
    </g>
    <g id="xtick_7">
     <g id="line2d_7">
      <g>
       <use xlink:href="#mc8e4caf3d1" x="289.582813" y="253.44" style="stroke: #000000; stroke-width: 0.8"/>
      </g>
     </g>
     <g id="text_7">
      <!-- 1.50 -->
      <g transform="translate(278.45 268.038437) scale(0.1 -0.1)">
       <use xlink:href="#DejaVuSans-31"/>
       <use xlink:href="#DejaVuSans-2e" x="63.623047"/>
       <use xlink:href="#DejaVuSans-35" x="95.410156"/>
       <use xlink:href="#DejaVuSans-30" x="159.033203"/>
      </g>
     </g>
    </g>
    <g id="xtick_8">
     <g id="line2d_8">
      <g>
       <use xlink:href="#mc8e4caf3d1" x="331.432813" y="253.44" style="stroke: #000000; stroke-width: 0.8"/>
      </g>
     </g>
     <g id="text_8">
      <!-- 1.75 -->
      <g transform="translate(320.3 268.038437) scale(0.1 -0.1)">
       <use xlink:href="#DejaVuSans-31"/>
       <use xlink:href="#DejaVuSans-2e" x="63.623047"/>
       <use xlink:href="#DejaVuSans-37" x="95.410156"/>
       <use xlink:href="#DejaVuSans-35" x="159.033203"/>
      </g>
     </g>
    </g>
    <g id="xtick_9">
     <g id="line2d_9">
      <g>
       <use xlink:href="#mc8e4caf3d1" x="373.282813" y="253.44" style="stroke: #000000; stroke-width: 0.8"/>
      </g>
     </g>
     <g id="text_9">
      <!-- 2.00 -->
      <g transform="translate(362.15 268.038437) scale(0.1 -0.1)">
       <use xlink:href="#DejaVuSans-32"/>
       <use xlink:href="#DejaVuSans-2e" x="63.623047"/>
       <use xlink:href="#DejaVuSans-30" x="95.410156"/>
       <use xlink:href="#DejaVuSans-30" x="159.033203"/>
      </g>
     </g>
    </g>
    <g id="text_10">
     <!-- $t$ -->
     <g transform="translate(203.882812 281.716562) scale(0.1 -0.1)">
      <defs>
       <path id="DejaVuSans-Oblique-74" d="M 2706 3500 
L 2619 3053 
L 1472 3053 
L 1100 1153 
Q 1081 1047 1072 975 
Q 1063 903 1063 863 
Q 1063 663 1183 572 
Q 1303 481 1569 481 
L 2150 481 
L 2053 0 
L 1503 0 
Q 991 0 739 200 
Q 488 400 488 806 
Q 488 878 497 964 
Q 506 1050 525 1153 
L 897 3053 
L 409 3053 
L 500 3500 
L 978 3500 
L 1172 4494 
L 1747 4494 
L 1556 3500 
L 2706 3500 
z
" transform="scale(0.015625)"/>
      </defs>
      <use xlink:href="#DejaVuSans-Oblique-74" transform="translate(0 0.78125)"/>
     </g>
    </g>
   </g>
   <g id="matplotlib.axis_2">
    <g id="ytick_1">
     <g id="line2d_10">
      <defs>
       <path id="m271d6e3ae3" d="M 0 0 
L -3.5 0 
" style="stroke: #000000; stroke-width: 0.8"/>
      </defs>
      <g>
       <use xlink:href="#m271d6e3ae3" x="38.482813" y="227.609122" style="stroke: #000000; stroke-width: 0.8"/>
      </g>
     </g>
     <g id="text_11">
      <!-- −1.0 -->
      <g transform="translate(7.2 231.408341) scale(0.1 -0.1)">
       <defs>
        <path id="DejaVuSans-2212" d="M 678 2272 
L 4684 2272 
L 4684 1741 
L 678 1741 
L 678 2272 
z
" transform="scale(0.015625)"/>
       </defs>
       <use xlink:href="#DejaVuSans-2212"/>
       <use xlink:href="#DejaVuSans-31" x="83.789062"/>
       <use xlink:href="#DejaVuSans-2e" x="147.412109"/>
       <use xlink:href="#DejaVuSans-30" x="179.199219"/>
      </g>
     </g>
    </g>
    <g id="ytick_2">
     <g id="line2d_11">
      <g>
       <use xlink:href="#m271d6e3ae3" x="38.482813" y="193.318011" style="stroke: #000000; stroke-width: 0.8"/>
      </g>
     </g>
     <g id="text_12">
      <!-- −0.8 -->
      <g transform="translate(7.2 197.11723) scale(0.1 -0.1)">
       <defs>
        <path id="DejaVuSans-38" d="M 2034 2216 
Q 1584 2216 1326 1975 
Q 1069 1734 1069 1313 
Q 1069 891 1326 650 
Q 1584 409 2034 409 
Q 2484 409 2743 651 
Q 3003 894 3003 1313 
Q 3003 1734 2745 1975 
Q 2488 2216 2034 2216 
z
M 1403 2484 
Q 997 2584 770 2862 
Q 544 3141 544 3541 
Q 544 4100 942 4425 
Q 1341 4750 2034 4750 
Q 2731 4750 3128 4425 
Q 3525 4100 3525 3541 
Q 3525 3141 3298 2862 
Q 3072 2584 2669 2484 
Q 3125 2378 3379 2068 
Q 3634 1759 3634 1313 
Q 3634 634 3220 271 
Q 2806 -91 2034 -91 
Q 1263 -91 848 271 
Q 434 634 434 1313 
Q 434 1759 690 2068 
Q 947 2378 1403 2484 
z
M 1172 3481 
Q 1172 3119 1398 2916 
Q 1625 2713 2034 2713 
Q 2441 2713 2670 2916 
Q 2900 3119 2900 3481 
Q 2900 3844 2670 4047 
Q 2441 4250 2034 4250 
Q 1625 4250 1398 4047 
Q 1172 3844 1172 3481 
z
" transform="scale(0.015625)"/>
       </defs>
       <use xlink:href="#DejaVuSans-2212"/>
       <use xlink:href="#DejaVuSans-30" x="83.789062"/>
       <use xlink:href="#DejaVuSans-2e" x="147.412109"/>
       <use xlink:href="#DejaVuSans-38" x="179.199219"/>
      </g>
     </g>
    </g>
    <g id="ytick_3">
     <g id="line2d_12">
      <g>
       <use xlink:href="#m271d6e3ae3" x="38.482813" y="159.0269" style="stroke: #000000; stroke-width: 0.8"/>
      </g>
     </g>
     <g id="text_13">
      <!-- −0.6 -->
      <g transform="translate(7.2 162.826119) scale(0.1 -0.1)">
       <defs>
        <path id="DejaVuSans-36" d="M 2113 2584 
Q 1688 2584 1439 2293 
Q 1191 2003 1191 1497 
Q 1191 994 1439 701 
Q 1688 409 2113 409 
Q 2538 409 2786 701 
Q 3034 994 3034 1497 
Q 3034 2003 2786 2293 
Q 2538 2584 2113 2584 
z
M 3366 4563 
L 3366 3988 
Q 3128 4100 2886 4159 
Q 2644 4219 2406 4219 
Q 1781 4219 1451 3797 
Q 1122 3375 1075 2522 
Q 1259 2794 1537 2939 
Q 1816 3084 2150 3084 
Q 2853 3084 3261 2657 
Q 3669 2231 3669 1497 
Q 3669 778 3244 343 
Q 2819 -91 2113 -91 
Q 1303 -91 875 529 
Q 447 1150 447 2328 
Q 447 3434 972 4092 
Q 1497 4750 2381 4750 
Q 2619 4750 2861 4703 
Q 3103 4656 3366 4563 
z
" transform="scale(0.015625)"/>
       </defs>
       <use xlink:href="#DejaVuSans-2212"/>
       <use xlink:href="#DejaVuSans-30" x="83.789062"/>
       <use xlink:href="#DejaVuSans-2e" x="147.412109"/>
       <use xlink:href="#DejaVuSans-36" x="179.199219"/>
      </g>
     </g>
    </g>
    <g id="ytick_4">
     <g id="line2d_13">
      <g>
       <use xlink:href="#m271d6e3ae3" x="38.482813" y="124.735789" style="stroke: #000000; stroke-width: 0.8"/>
      </g>
     </g>
     <g id="text_14">
      <!-- −0.4 -->
      <g transform="translate(7.2 128.535007) scale(0.1 -0.1)">
       <defs>
        <path id="DejaVuSans-34" d="M 2419 4116 
L 825 1625 
L 2419 1625 
L 2419 4116 
z
M 2253 4666 
L 3047 4666 
L 3047 1625 
L 3713 1625 
L 3713 1100 
L 3047 1100 
L 3047 0 
L 2419 0 
L 2419 1100 
L 313 1100 
L 313 1709 
L 2253 4666 
z
" transform="scale(0.015625)"/>
       </defs>
       <use xlink:href="#DejaVuSans-2212"/>
       <use xlink:href="#DejaVuSans-30" x="83.789062"/>
       <use xlink:href="#DejaVuSans-2e" x="147.412109"/>
       <use xlink:href="#DejaVuSans-34" x="179.199219"/>
      </g>
     </g>
    </g>
    <g id="ytick_5">
     <g id="line2d_14">
      <g>
       <use xlink:href="#m271d6e3ae3" x="38.482813" y="90.444677" style="stroke: #000000; stroke-width: 0.8"/>
      </g>
     </g>
     <g id="text_15">
      <!-- −0.2 -->
      <g transform="translate(7.2 94.243896) scale(0.1 -0.1)">
       <use xlink:href="#DejaVuSans-2212"/>
       <use xlink:href="#DejaVuSans-30" x="83.789062"/>
       <use xlink:href="#DejaVuSans-2e" x="147.412109"/>
       <use xlink:href="#DejaVuSans-32" x="179.199219"/>
      </g>
     </g>
    </g>
    <g id="ytick_6">
     <g id="line2d_15">
      <g>
       <use xlink:href="#m271d6e3ae3" x="38.482813" y="56.153566" style="stroke: #000000; stroke-width: 0.8"/>
      </g>
     </g>
     <g id="text_16">
      <!-- 0.0 -->
      <g transform="translate(15.579688 59.952785) scale(0.1 -0.1)">
       <use xlink:href="#DejaVuSans-30"/>
       <use xlink:href="#DejaVuSans-2e" x="63.623047"/>
       <use xlink:href="#DejaVuSans-30" x="95.410156"/>
      </g>
     </g>
    </g>
   </g>
   <g id="line2d_16">
    <path d="M 38.650213 56.153566 
L 38.817613 64.702112 
L 38.985013 63.401064 
L 39.319813 53.783783 
L 39.654612 62.27999 
L 39.822012 56.441092 
L 39.989413 55.388129 
L 40.324213 58.6059 
L 40.491613 53.475573 
L 40.993813 60.48436 
L 41.161213 59.771176 
L 41.328612 62.685081 
L 41.496012 51.600284 
L 41.663412 52.676752 
L 41.830813 50.425203 
L 41.998213 59.190818 
L 42.165613 59.965698 
L 42.333013 55.000755 
L 42.500413 55.591267 
L 42.667813 55.735192 
L 42.835213 56.838918 
L 43.170012 52.415035 
L 43.504812 62.135137 
L 43.672213 59.689236 
L 43.839613 53.078024 
L 44.007013 56.520162 
L 44.174413 57.454404 
L 44.341813 57.435428 
L 44.509213 55.729403 
L 44.676613 58.002898 
L 44.844013 62.998468 
L 45.011412 51.567361 
L 45.178812 51.317329 
L 45.681013 60.615703 
L 45.848413 53.747483 
L 46.015813 56.665778 
L 46.183213 51.457048 
L 46.350613 57.809149 
L 46.518012 57.937424 
L 46.685412 56.130352 
L 47.020212 61.230659 
L 47.187613 58.076811 
L 47.355013 58.726982 
L 47.522413 56.292577 
L 47.689813 55.682923 
L 47.857213 56.19452 
L 48.024613 57.842178 
L 48.192013 60.951574 
L 48.526813 55.85221 
L 48.694212 56.301678 
L 48.861612 58.43526 
L 49.029013 55.758047 
L 49.196413 50.771397 
L 49.363813 59.569763 
L 49.531213 59.489347 
L 49.698613 57.78411 
L 49.866013 51.97246 
L 50.033413 55.560717 
L 50.200813 53.808611 
L 50.368213 60.118446 
L 50.535612 55.540079 
L 50.870413 59.885575 
L 51.037813 57.146345 
L 51.205213 46.943034 
L 51.707413 64.931767 
L 51.874813 53.9507 
L 52.042213 57.320013 
L 52.209613 56.528292 
L 52.377013 59.881426 
L 52.544413 56.97283 
L 52.711813 52.120735 
L 52.879213 54.978351 
L 53.046613 63.112865 
L 53.381413 54.069991 
L 53.548813 52.756752 
L 53.716212 60.191722 
L 53.883612 55.468057 
L 54.051012 57.137353 
L 54.218412 56.992381 
L 54.385813 51.82832 
L 54.553213 51.849269 
L 55.055413 62.425472 
L 55.222813 56.381115 
L 55.390213 57.276968 
L 55.557613 57.516711 
L 55.725013 60.392794 
L 55.892413 54.185149 
L 56.059812 55.013922 
L 56.394613 57.189789 
L 56.562013 53.673379 
L 56.729413 57.20142 
L 56.896813 57.074286 
L 57.064213 57.973126 
L 57.231613 52.768929 
L 57.399012 53.593991 
L 57.566412 62.657934 
L 57.733812 61.653691 
L 58.068613 53.477739 
L 58.236013 59.628268 
L 58.403413 60.350044 
L 58.570813 61.576109 
L 58.738213 45.883636 
L 59.073013 63.782511 
L 59.240413 62.354207 
L 59.407813 53.423565 
L 59.742613 58.431101 
L 59.910013 54.448581 
L 60.077413 54.104602 
L 60.244813 61.260962 
L 60.412213 58.72758 
L 60.579613 53.806678 
L 60.747013 53.018588 
L 60.914413 58.547774 
L 61.249212 58.144468 
L 61.416612 57.246044 
L 61.584013 57.322007 
L 61.751413 54.35959 
L 61.918813 61.41585 
L 62.086213 54.273591 
L 62.253613 54.478901 
L 62.421013 53.935952 
L 62.588413 55.702606 
L 62.755813 59.723677 
L 62.923213 58.700906 
L 63.090613 59.137732 
L 63.258012 58.404583 
L 63.425413 56.879066 
L 63.592813 58.461846 
L 63.760213 58.242184 
L 63.927613 58.750126 
L 64.095012 60.67324 
L 64.262413 59.848445 
L 64.429812 53.421959 
L 64.597212 55.384451 
L 64.764612 49.423819 
L 65.099412 61.967656 
L 65.266813 60.504613 
L 65.434213 51.635312 
L 65.601613 51.434684 
L 65.769013 58.500603 
L 65.936413 59.655917 
L 66.103813 54.744207 
L 66.606013 58.205602 
L 66.773413 52.984754 
L 66.940813 52.951457 
L 67.108213 60.06948 
L 67.275613 62.059945 
L 67.443013 52.694156 
L 67.610413 54.683797 
L 67.945212 61.116339 
L 68.112612 51.988698 
L 68.280012 54.137068 
L 68.447412 53.327964 
L 68.614812 60.12905 
L 68.782212 60.156723 
L 68.949613 53.902751 
L 69.117013 57.743853 
L 69.284413 58.077681 
L 69.451813 56.467349 
L 69.619213 56.639226 
L 69.786613 56.142964 
L 69.954013 57.196411 
L 70.121413 53.620681 
L 70.456213 59.363619 
L 70.623613 56.939558 
L 70.791012 51.973112 
L 71.293213 63.523865 
L 71.460612 55.088873 
L 71.962813 61.607092 
L 72.130212 55.913279 
L 72.297613 57.371958 
L 72.465013 56.482489 
L 72.632413 56.780996 
L 72.799813 52.003111 
L 73.134613 56.949165 
L 73.302013 57.581596 
L 73.469413 55.566411 
L 73.636812 59.840494 
L 73.804213 59.852666 
L 73.971612 62.482401 
L 74.139013 51.099387 
L 74.306412 52.623876 
L 74.641212 59.807773 
L 74.976012 53.568331 
L 75.143413 53.000943 
L 75.310812 57.113119 
L 75.478213 58.317348 
L 75.645612 60.573922 
L 76.147813 49.920293 
L 76.315213 56.39318 
L 76.482613 56.370378 
L 76.650013 52.625073 
L 76.984813 61.180401 
L 77.152213 58.554767 
L 77.319613 57.950178 
L 77.487013 58.889589 
L 77.654413 57.631937 
L 77.821813 57.736367 
L 77.989213 56.82078 
L 78.156613 62.592563 
L 78.658813 52.739854 
L 78.826212 61.168363 
L 78.993613 59.94624 
L 79.161012 61.484862 
L 79.328412 54.690243 
L 79.495812 58.413995 
L 79.663213 53.900445 
L 79.830613 57.696871 
L 79.998013 56.734382 
L 80.165413 57.885444 
L 80.332813 50.615576 
L 80.500213 54.403125 
L 80.667613 54.641712 
L 80.835013 60.099698 
L 81.002413 53.299528 
L 81.337213 59.22108 
L 81.504613 59.927529 
L 81.839413 50.614196 
L 82.174213 60.583889 
L 82.509013 56.483915 
L 82.676412 51.803745 
L 82.843813 60.807067 
L 83.011212 57.559877 
L 83.346013 62.332562 
L 83.513413 59.376477 
L 83.680813 52.165595 
L 83.848213 52.949058 
L 84.183013 59.876402 
L 84.350413 55.455458 
L 84.685213 53.558631 
L 84.852613 55.727266 
L 85.020013 53.61426 
L 85.187413 61.774462 
L 85.354813 58.865155 
L 85.522213 58.63352 
L 85.689613 50.506294 
L 86.024413 59.835631 
L 86.359213 55.858135 
L 86.526612 58.575575 
L 86.694013 58.340188 
L 87.028813 51.211283 
L 87.196213 52.4232 
L 87.363613 60.832196 
L 87.865813 55.154365 
L 88.033212 55.581273 
L 88.200613 57.513242 
L 88.368012 55.537363 
L 88.535413 59.030137 
L 88.702812 54.226815 
L 88.870213 57.503814 
L 89.037612 53.152308 
L 89.205013 53.664961 
L 89.372412 59.509363 
L 89.539813 54.768712 
L 89.707212 53.863997 
L 90.042012 58.915206 
L 90.209412 57.101415 
L 90.376812 48.684342 
L 90.544213 54.691303 
L 90.711613 55.304387 
L 90.879013 61.524322 
L 91.046413 59.102785 
L 91.213813 60.276951 
L 91.381213 57.363226 
L 91.548613 58.97111 
L 91.716013 50.340691 
L 92.050813 58.824674 
L 92.385613 52.811937 
L 92.553013 58.506089 
L 92.720413 56.986612 
L 92.887812 59.078977 
L 93.055213 53.290901 
L 93.390013 59.468219 
L 93.557412 62.633484 
L 93.724813 62.358171 
L 93.892212 53.998597 
L 94.059613 54.098424 
L 94.227013 58.827131 
L 94.394413 49.792749 
L 94.561813 57.448315 
L 94.729213 57.795986 
L 94.896613 59.316475 
L 95.064013 55.396001 
L 95.231413 55.979864 
L 95.398813 53.076838 
L 95.566213 52.894275 
L 95.901013 55.849479 
L 96.235813 61.404262 
L 96.403213 48.272243 
L 96.570613 51.67875 
L 96.738013 58.15037 
L 97.072813 60.963192 
L 97.407612 55.383965 
L 97.575012 55.160727 
L 97.742413 54.098871 
L 97.909813 57.494032 
L 98.077213 54.353429 
L 98.244613 62.464843 
L 98.412013 55.154421 
L 98.579413 52.878114 
L 98.746813 55.551998 
L 98.914212 62.66084 
L 99.081613 52.791261 
L 99.249012 52.987024 
L 99.583812 63.371998 
L 99.918612 48.241508 
L 100.253412 60.339954 
L 100.420813 53.814431 
L 100.588212 60.506608 
L 101.090413 50.664842 
L 101.425213 58.059539 
L 101.760013 61.229395 
L 101.927413 55.524453 
L 102.262213 59.914247 
L 102.597013 54.188629 
L 102.764412 61.202925 
L 102.931813 57.288479 
L 103.099212 56.932977 
L 103.266613 50.228009 
L 103.434012 56.456523 
L 103.601413 58.106197 
L 103.768812 57.920379 
L 103.936213 51.098572 
L 104.438412 60.323496 
L 104.605813 51.730336 
L 104.773212 59.351857 
L 104.940613 57.267704 
L 105.108013 57.633946 
L 105.275413 50.545627 
L 105.442813 60.920239 
L 105.610213 63.466102 
L 105.777613 62.53853 
L 105.945013 49.880923 
L 106.112413 55.16214 
L 106.279813 54.518906 
L 106.447213 62.833799 
L 106.614613 53.233791 
L 106.782013 57.539448 
L 106.949413 54.122793 
L 107.116813 59.143682 
L 107.284212 53.28653 
L 107.451613 58.495126 
L 107.619012 58.062503 
L 107.786413 58.944756 
L 107.953812 55.246775 
L 108.121213 54.985116 
L 108.288612 60.378622 
L 108.790812 51.840928 
L 109.125612 60.332864 
L 109.293013 57.8005 
L 109.460412 50.276256 
L 109.627813 59.25 
L 109.795212 62.230603 
L 110.130012 52.413229 
L 110.297413 59.411561 
L 110.464812 59.689163 
L 110.632213 55.911423 
L 110.799612 56.720572 
L 110.967013 53.970967 
L 111.134412 53.799294 
L 111.301813 55.980363 
L 111.469212 53.036173 
L 111.636613 61.980303 
L 111.971413 51.172043 
L 112.138813 53.523605 
L 112.473613 61.33575 
L 112.641013 54.284741 
L 112.808413 59.3161 
L 112.975813 59.273769 
L 113.143213 63.862435 
L 113.645412 51.447674 
L 113.812813 59.205625 
L 114.147613 54.666623 
L 114.315012 58.311729 
L 114.482413 57.310984 
L 114.649812 52.590935 
L 114.817213 53.259158 
L 114.984612 55.13866 
L 115.152013 60.924981 
L 115.319412 52.951359 
L 115.486813 54.561907 
L 115.654212 52.708586 
L 115.989013 59.913319 
L 116.323813 55.434071 
L 116.491213 59.196013 
L 116.658613 57.681365 
L 116.826013 59.594574 
L 116.993413 52.621534 
L 117.160813 55.596927 
L 117.328213 55.66035 
L 117.495613 59.759196 
L 117.830413 57.784624 
L 118.165213 53.927291 
L 118.332613 59.05595 
L 118.500012 59.611525 
L 118.667413 51.519341 
L 118.834812 51.896496 
L 119.002213 56.491689 
L 119.169612 57.130538 
L 119.337013 53.523063 
L 119.504413 58.089714 
L 119.671813 57.978192 
L 119.839213 59.408618 
L 120.006612 54.290763 
L 120.341412 56.946255 
L 120.508813 56.606031 
L 120.676212 52.735656 
L 121.011012 60.681657 
L 121.178413 61.643922 
L 121.345812 52.143758 
L 121.513213 56.497745 
L 121.680612 55.798513 
L 121.848013 60.399818 
L 122.015412 61.79111 
L 122.350212 51.510526 
L 122.517613 52.911038 
L 122.852413 59.499579 
L 123.019813 52.637661 
L 123.354613 53.417258 
L 123.522013 55.528445 
L 123.689413 52.839533 
L 123.856813 55.201528 
L 124.024213 61.727076 
L 124.359013 55.726428 
L 124.526413 60.160674 
L 124.693813 53.66658 
L 125.028613 57.040544 
L 125.196012 57.49763 
L 125.363413 58.973787 
L 125.530812 56.498458 
L 125.698213 61.363065 
L 126.033013 54.948631 
L 126.200412 50.900755 
L 126.367813 54.177701 
L 126.535213 54.804536 
L 126.702613 60.625109 
L 127.037413 56.18954 
L 127.204813 58.503912 
L 127.372213 57.509901 
L 127.539613 53.128985 
L 128.041813 63.411498 
L 128.209213 47.922762 
L 128.544013 52.940936 
L 128.711413 62.61607 
L 128.878813 58.430302 
L 129.046213 57.808659 
L 129.213613 52.824717 
L 129.381012 56.100463 
L 129.548413 54.21314 
L 129.715812 56.427696 
L 129.883213 49.90497 
L 130.050612 57.409574 
L 130.218013 58.909097 
L 130.385413 58.017812 
L 130.552813 52.620155 
L 130.887613 57.875942 
L 131.055013 57.712037 
L 131.222413 53.270183 
L 131.389813 57.92497 
L 131.892013 51.895959 
L 132.059413 57.403149 
L 132.394213 53.999108 
L 132.729013 60.641521 
L 132.896413 53.925213 
L 133.063813 58.490028 
L 133.231213 51.446212 
L 133.398613 53.449796 
L 133.566013 53.764434 
L 133.900813 57.561453 
L 134.235613 50.874436 
L 134.403013 52.980873 
L 134.737813 59.30642 
L 135.240013 52.052486 
L 135.407412 59.433872 
L 135.574813 56.168706 
L 135.742212 60.120331 
L 135.909613 57.607468 
L 136.077012 58.488614 
L 136.244413 56.691898 
L 136.579213 55.542085 
L 136.914013 53.347526 
L 137.081412 54.715846 
L 137.248812 51.658976 
L 137.416213 56.607142 
L 137.583612 50.722661 
L 137.751013 56.962871 
L 137.918412 56.07245 
L 138.085813 57.144083 
L 138.253212 51.168184 
L 138.420613 58.518272 
L 138.588012 59.16432 
L 138.922812 52.383326 
L 139.090213 64.128767 
L 139.257612 55.067566 
L 139.592412 51.975072 
L 139.927212 63.847288 
L 140.262012 47.395583 
L 140.596812 63.273012 
L 140.931612 48.197243 
L 141.266413 59.488286 
L 141.433813 57.929921 
L 141.601213 52.56799 
L 141.768613 52.623718 
L 141.936013 57.253016 
L 142.103412 56.035783 
L 142.270813 52.628625 
L 142.438212 53.310716 
L 142.605613 55.355318 
L 142.773012 53.651841 
L 143.107812 58.849277 
L 143.275213 57.95687 
L 143.442612 54.824591 
L 143.610013 53.817032 
L 143.777412 54.830753 
L 143.944813 60.838861 
L 144.112212 60.632029 
L 144.279613 57.460037 
L 144.447012 51.273718 
L 144.614413 55.192164 
L 144.781813 56.390336 
L 144.949213 56.482136 
L 145.116613 60.409008 
L 145.284013 53.372543 
L 145.451413 56.053262 
L 145.618813 49.746078 
L 145.953613 59.81349 
L 146.288413 50.646877 
L 146.623213 61.138626 
L 146.958012 51.14472 
L 147.460213 59.713832 
L 147.795013 54.425343 
L 147.962412 55.502302 
L 148.129813 58.472923 
L 148.297213 53.098982 
L 148.464613 58.035884 
L 148.632013 53.779805 
L 148.799413 54.668757 
L 148.966813 53.44378 
L 149.134213 54.261329 
L 149.301613 54.137425 
L 149.469013 56.331376 
L 149.636413 56.139678 
L 149.803813 60.170461 
L 149.971213 58.693374 
L 150.138613 59.389261 
L 150.306013 52.168203 
L 150.473413 58.351627 
L 150.640813 56.613503 
L 150.808213 52.510671 
L 150.975613 55.184539 
L 151.143013 60.575725 
L 151.477812 53.850025 
L 151.645213 53.714414 
L 151.812613 56.566628 
L 151.980013 54.454869 
L 152.147413 54.977022 
L 152.314813 51.844732 
L 152.482213 58.944331 
L 152.817013 59.13689 
L 152.984413 51.263538 
L 153.486613 61.937455 
L 153.821413 53.91298 
L 153.988813 58.036847 
L 154.156213 57.007511 
L 154.323613 52.126375 
L 154.658413 59.285692 
L 154.825813 60.219369 
L 154.993213 53.537393 
L 155.328013 56.352811 
L 155.495413 57.084532 
L 155.662813 52.83094 
L 155.997613 58.715469 
L 156.165013 60.448081 
L 156.332413 45.94661 
L 156.834612 57.716667 
L 157.002013 52.828577 
L 157.169412 56.26162 
L 157.336813 56.991743 
L 157.504212 55.971106 
L 157.671613 49.720178 
L 158.173812 61.085691 
L 158.341213 52.683692 
L 158.676013 59.514543 
L 158.843412 57.943659 
L 159.010813 50.825867 
L 159.178213 63.020772 
L 159.345612 59.528418 
L 159.513013 60.738467 
L 159.680412 48.498701 
L 160.182613 61.23189 
L 160.350012 51.052641 
L 160.517413 56.420114 
L 160.684812 55.58981 
L 161.019612 51.581193 
L 161.187013 60.44368 
L 161.354412 59.700446 
L 161.521813 57.963813 
L 161.689212 52.151999 
L 161.856613 56.630776 
L 162.024012 55.851459 
L 162.191413 63.045423 
L 162.358812 50.842761 
L 162.526213 57.345671 
L 162.693613 57.201312 
L 162.861013 57.921912 
L 163.028413 52.458271 
L 163.195813 52.675997 
L 163.363213 53.596867 
L 163.530613 53.840169 
L 163.865413 58.193747 
L 164.032813 57.426249 
L 164.200212 62.192457 
L 164.367613 55.641372 
L 164.535012 56.858842 
L 164.702413 60.295331 
L 164.869812 52.315843 
L 165.037213 52.968194 
L 165.204612 56.907076 
L 165.372013 53.279445 
L 165.539412 57.008116 
L 165.706813 53.281854 
L 165.874212 53.102227 
L 166.209013 61.023762 
L 166.376413 59.005869 
L 166.543813 49.96688 
L 166.711212 55.534861 
L 166.878613 55.191688 
L 167.046012 53.964985 
L 167.213413 56.501064 
L 167.380812 60.810177 
L 167.883013 53.280844 
L 168.050412 58.33237 
L 168.217813 59.8075 
L 168.385212 54.291586 
L 168.720012 57.83318 
L 168.887413 56.944244 
L 169.054812 57.343282 
L 169.222213 53.293752 
L 169.389612 53.17033 
L 169.557013 63.614995 
L 169.724412 62.245921 
L 169.891813 58.585873 
L 170.059213 50.683371 
L 170.394013 55.860866 
L 170.561413 52.970739 
L 170.728813 57.800358 
L 170.896213 55.485504 
L 171.063613 58.373939 
L 171.231012 49.779835 
L 171.398413 51.833292 
L 171.733213 59.377922 
L 171.900612 55.678603 
L 172.235412 58.28953 
L 172.402813 57.596093 
L 172.570212 49.433895 
L 172.737613 51.698769 
L 173.072413 64.22912 
L 173.239812 62.104521 
L 173.407213 52.856579 
L 173.574613 57.540849 
L 173.909413 55.997043 
L 174.076813 59.178974 
L 174.244213 65.849571 
L 174.579013 48.959067 
L 174.746413 52.561061 
L 174.913813 59.232416 
L 175.081213 57.551629 
L 175.416013 51.427117 
L 175.750813 57.492326 
L 175.918213 58.809122 
L 176.085612 50.961754 
L 176.253013 57.908868 
L 176.420412 58.643577 
L 176.587813 53.524745 
L 176.755212 58.862823 
L 176.922613 58.361565 
L 177.090013 61.357915 
L 177.257413 52.695433 
L 177.424813 56.877114 
L 177.592213 54.208366 
L 177.759613 56.738758 
L 177.927012 55.76899 
L 178.261812 61.110681 
L 178.429213 61.400574 
L 178.596612 52.661761 
L 178.764013 52.654925 
L 179.266212 60.354778 
L 179.601012 49.315938 
L 179.935812 56.342015 
L 180.103212 56.071408 
L 180.270612 51.771551 
L 180.438012 59.000043 
L 180.772812 62.351805 
L 180.940213 52.865497 
L 181.107612 60.56392 
L 181.275013 56.371576 
L 181.442412 58.558931 
L 181.609813 57.12307 
L 181.777212 61.815904 
L 181.944613 60.00875 
L 182.112012 54.921803 
L 182.279413 55.496499 
L 182.446812 54.889195 
L 182.614213 58.369203 
L 182.781612 58.311877 
L 182.949013 53.86861 
L 183.116412 56.629354 
L 183.283813 56.228756 
L 183.451212 60.731215 
L 183.618613 57.607463 
L 183.786012 58.554044 
L 183.953412 57.055075 
L 184.120812 60.244553 
L 184.288212 58.668638 
L 184.455613 64.223911 
L 184.623012 54.153193 
L 184.790413 52.338767 
L 184.957812 53.281129 
L 185.125213 59.320408 
L 185.460013 56.491031 
L 185.627412 56.28042 
L 185.794813 59.242191 
L 185.962212 57.414099 
L 186.297012 60.521412 
L 186.464413 58.526876 
L 186.631812 61.913876 
L 186.799213 56.264873 
L 186.966612 58.438089 
L 187.134013 56.537788 
L 187.301412 57.781998 
L 187.468813 55.856448 
L 187.636212 60.333651 
L 187.803613 58.179712 
L 187.971013 63.354682 
L 188.138413 56.720569 
L 188.305813 54.577057 
L 188.473213 54.923493 
L 188.640613 59.772066 
L 188.808012 59.662974 
L 188.975413 59.234652 
L 189.142812 59.973865 
L 189.310213 64.669539 
L 189.477612 58.644493 
L 189.645013 59.026642 
L 189.812412 52.576204 
L 189.979813 52.991746 
L 190.482012 64.90115 
L 190.816812 49.445658 
L 191.151612 59.77605 
L 191.319013 60.348832 
L 191.486413 57.398939 
L 191.653813 61.113941 
L 191.988613 54.430579 
L 192.156013 52.782585 
L 192.323413 58.975322 
L 192.490813 60.294481 
L 192.658213 60.187895 
L 192.825613 59.208157 
L 192.993013 60.11696 
L 193.160413 61.947894 
L 193.327812 54.767262 
L 193.495213 55.173106 
L 193.662612 58.004537 
L 193.830013 64.157567 
L 193.997412 61.82011 
L 194.164813 53.736395 
L 194.332212 56.383203 
L 194.499613 57.183733 
L 194.667012 63.177913 
L 194.834413 62.060286 
L 195.169213 55.900607 
L 195.336613 62.503302 
L 195.504013 54.978271 
L 195.671413 59.450803 
L 195.838813 51.549826 
L 196.006213 56.67166 
L 196.341013 53.222935 
L 196.508413 56.191148 
L 196.675813 64.79595 
L 196.843213 63.812595 
L 197.010613 54.36743 
L 197.345413 63.092637 
L 197.680213 55.11873 
L 198.015013 61.198178 
L 198.182412 61.915348 
L 198.349813 56.684197 
L 198.517212 61.968088 
L 198.684613 60.569316 
L 198.852013 64.659574 
L 199.019413 60.174693 
L 199.186813 62.597571 
L 199.354212 59.540134 
L 199.521613 62.835734 
L 199.689012 58.214553 
L 199.856413 61.346383 
L 200.023812 59.0637 
L 200.191213 53.423142 
L 200.860813 64.173825 
L 201.363012 58.401435 
L 201.530412 63.372492 
L 201.697812 59.159541 
L 201.865212 63.940062 
L 202.032612 64.757662 
L 202.200012 64.239482 
L 202.367413 62.863789 
L 202.534812 58.320541 
L 202.702213 64.344093 
L 202.869612 62.097779 
L 203.037013 63.234658 
L 203.204412 60.035448 
L 203.371813 67.591851 
L 203.874012 59.701479 
L 204.041413 68.473398 
L 204.208812 65.230552 
L 204.376213 67.751778 
L 204.543612 61.945487 
L 204.711013 64.134073 
L 204.878412 60.70336 
L 205.045813 61.322828 
L 205.213212 66.015877 
L 205.380613 64.099004 
L 205.548012 68.236252 
L 205.715413 67.850763 
L 205.882812 64.134567 
L 206.050213 64.095679 
L 206.217613 66.298185 
L 206.385013 63.855355 
L 206.552413 64.726495 
L 206.719813 64.539682 
L 207.054613 69.665853 
L 207.389413 59.646688 
L 207.556813 61.290683 
L 207.891613 67.622438 
L 208.059013 68.525178 
L 208.393813 62.751533 
L 208.561213 65.103441 
L 208.728613 69.157127 
L 208.896013 67.71464 
L 209.063413 70.038697 
L 209.565613 62.502624 
L 209.733013 65.382887 
L 209.900413 70.202405 
L 210.067812 66.882994 
L 210.235213 67.761497 
L 210.402612 66.330857 
L 210.737412 71.574428 
L 210.904812 72.006482 
L 211.072212 69.976749 
L 211.239612 69.950548 
L 211.407012 69.633942 
L 211.574412 71.547797 
L 211.741812 70.28426 
L 211.909212 65.682646 
L 212.076612 64.418493 
L 212.411412 75.785545 
L 212.578812 69.338899 
L 212.746212 71.098924 
L 212.913612 69.196796 
L 213.081012 72.841746 
L 213.248413 71.675831 
L 213.415812 72.945076 
L 213.583213 78.902306 
L 213.750612 76.642692 
L 213.918013 77.773476 
L 214.252813 74.800218 
L 214.420212 78.717061 
L 214.587613 79.259187 
L 214.755012 70.133979 
L 215.257213 82.439513 
L 215.424612 84.667788 
L 215.592013 74.676054 
L 215.759412 73.369242 
L 215.926813 76.804237 
L 216.094212 77.72403 
L 216.261613 74.056368 
L 216.596413 82.554459 
L 216.763813 83.102897 
L 216.931213 81.151203 
L 217.098613 80.616181 
L 217.266013 81.167047 
L 217.433413 78.321662 
L 217.600813 80.16929 
L 217.768213 86.17089 
L 217.935613 81.357494 
L 218.103013 83.634758 
L 218.437813 89.22347 
L 218.772612 82.051671 
L 218.940013 83.257457 
L 219.107412 87.320973 
L 219.274813 86.704006 
L 219.442212 86.728092 
L 219.609613 88.111682 
L 219.777012 93.356122 
L 220.111812 92.304867 
L 220.279212 89.655986 
L 220.446612 89.052593 
L 220.614013 88.868127 
L 220.781412 88.143596 
L 221.116212 96.287067 
L 221.618413 89.015577 
L 221.953213 94.182077 
L 222.120612 90.492369 
L 222.455412 101.158629 
L 222.622813 99.843416 
L 222.957613 94.536988 
L 223.292413 102.136351 
L 223.459812 104.957774 
L 223.627213 103.385223 
L 223.962013 97.517108 
L 224.464213 106.747723 
L 224.631613 108.66191 
L 224.799013 102.82582 
L 224.966413 101.344569 
L 225.301213 111.720305 
L 225.468613 112.490098 
L 225.636013 110.584131 
L 225.803413 102.748682 
L 226.138213 111.167944 
L 226.305613 111.39652 
L 226.473013 116.33687 
L 226.640413 116.080204 
L 226.807813 109.234715 
L 226.975213 109.947932 
L 227.477413 115.197841 
L 227.644813 114.613281 
L 227.812213 110.988727 
L 227.979613 116.133901 
L 228.147012 113.999962 
L 228.649213 121.265264 
L 228.816612 118.761459 
L 228.984013 120.316452 
L 229.151412 119.987824 
L 229.318813 120.791911 
L 229.486212 126.366128 
L 229.653613 125.334946 
L 229.821012 126.611811 
L 229.988413 122.787482 
L 230.323213 126.935854 
L 230.490612 123.765169 
L 230.658013 125.947182 
L 230.992813 134.031359 
L 231.160213 129.908997 
L 231.327613 129.426553 
L 231.662412 134.529455 
L 231.829813 131.493971 
L 231.997212 132.873388 
L 232.332012 129.315558 
L 232.499413 128.92122 
L 232.666812 135.312203 
L 232.834213 132.083281 
L 233.001612 139.711602 
L 233.336412 137.448481 
L 233.503813 132.538751 
L 233.671212 138.362251 
L 233.838613 133.680411 
L 234.173413 136.546219 
L 234.340812 141.764374 
L 234.508213 138.216284 
L 234.675612 142.321898 
L 234.843013 141.106198 
L 235.177813 134.929119 
L 235.345213 141.232649 
L 235.512613 140.403581 
L 235.680013 141.740899 
L 235.847413 145.246946 
L 236.014812 140.223752 
L 236.182213 142.933402 
L 236.349612 141.642588 
L 236.517013 143.680654 
L 236.851813 141.54361 
L 237.019212 150.894755 
L 237.186613 142.60925 
L 237.354012 143.340952 
L 237.521412 139.749386 
L 237.688812 142.170409 
L 238.023612 153.761565 
L 238.191012 153.955361 
L 238.358412 151.904793 
L 238.693212 140.392965 
L 239.028012 152.78894 
L 239.195413 147.150843 
L 239.530213 154.324637 
L 239.697612 147.972627 
L 239.865013 151.212728 
L 240.032412 157.009154 
L 240.199813 147.299464 
L 240.367212 152.437573 
L 240.869413 148.753314 
L 241.036812 156.453456 
L 241.204213 156.203011 
L 241.371612 158.934182 
L 241.539013 164.160075 
L 241.706412 153.46777 
L 241.873813 162.857695 
L 242.208613 155.009923 
L 242.376013 158.382705 
L 242.543413 158.460534 
L 242.710813 164.442775 
L 242.878213 165.966437 
L 243.045613 159.189969 
L 243.213013 164.640517 
L 243.380413 159.166138 
L 243.547813 159.477972 
L 243.715213 167.049258 
L 243.882613 161.947187 
L 244.050013 161.590998 
L 244.217413 164.008011 
L 244.384813 162.036902 
L 244.552213 164.731613 
L 244.719613 174.063171 
L 244.887013 171.73861 
L 245.054413 173.568015 
L 245.389212 164.275258 
L 245.556613 164.908637 
L 245.724012 175.699231 
L 245.891413 175.134888 
L 246.058812 169.739735 
L 246.226213 176.912862 
L 246.393612 177.091422 
L 246.561013 168.27199 
L 246.728412 173.583667 
L 246.895813 174.668521 
L 247.063212 173.296256 
L 247.230613 173.354389 
L 247.565413 172.081387 
L 247.732812 172.898969 
L 247.900213 179.543288 
L 248.067612 172.864327 
L 248.235013 176.951779 
L 248.402412 177.3786 
L 248.737212 182.088308 
L 248.904613 178.687993 
L 249.072012 171.665658 
L 249.239413 182.290648 
L 249.574213 179.280154 
L 249.741613 176.60354 
L 249.909013 180.744523 
L 250.076413 179.20232 
L 250.243813 181.033805 
L 250.411213 180.754994 
L 250.578613 181.852693 
L 250.746013 182.098031 
L 250.913413 184.01197 
L 251.080813 181.612337 
L 251.248213 183.376373 
L 251.415613 181.513738 
L 251.583013 183.731133 
L 251.750413 180.478592 
L 251.917813 180.535895 
L 252.085213 180.034926 
L 252.252613 181.992548 
L 252.420013 188.483459 
L 252.587413 186.580552 
L 252.754813 183.237183 
L 252.922213 177.553548 
L 253.089613 187.492903 
L 253.257013 189.911747 
L 253.424413 185.623715 
L 253.591812 184.827216 
L 253.759213 183.475671 
L 253.926612 180.009152 
L 254.094013 187.754566 
L 254.261412 183.132764 
L 254.428813 184.61888 
L 254.596212 187.451225 
L 254.763613 180.293789 
L 254.931012 191.991464 
L 255.098412 189.75103 
L 255.265812 181.011968 
L 255.600612 191.120904 
L 255.768012 189.923834 
L 255.935412 190.949205 
L 256.102813 186.871115 
L 256.270213 188.786984 
L 256.437613 191.995299 
L 256.605012 190.80724 
L 256.772413 187.816718 
L 256.939813 191.912428 
L 257.107213 181.684177 
L 257.274612 184.75001 
L 257.442013 197.763641 
L 257.776813 190.137048 
L 257.944212 185.868692 
L 258.111613 195.444106 
L 258.279013 193.302874 
L 258.446413 189.389198 
L 258.613812 191.49121 
L 258.781213 189.542311 
L 258.948613 195.680221 
L 259.283412 191.536509 
L 259.450813 190.275467 
L 259.618213 189.924242 
L 259.785613 198.754181 
L 259.953012 191.914158 
L 260.287813 188.847785 
L 260.455213 193.738708 
L 260.622613 192.025639 
L 260.790013 196.048827 
L 261.124813 188.698159 
L 261.292213 194.753251 
L 261.459613 192.989554 
L 261.627013 197.611869 
L 261.961813 189.010311 
L 262.129213 199.591786 
L 262.296613 197.425616 
L 262.464013 190.261386 
L 262.631413 193.124232 
L 262.798813 205.40636 
L 263.301013 195.909636 
L 263.468413 201.765481 
L 263.635812 200.356732 
L 263.803213 191.517451 
L 264.138013 198.36307 
L 264.305412 200.605921 
L 264.472813 196.896327 
L 264.640213 199.253789 
L 264.807613 197.55634 
L 264.975012 202.654835 
L 265.142413 203.054817 
L 265.309813 203.129911 
L 265.477213 200.401651 
L 265.644612 205.905168 
L 265.979413 200.921409 
L 266.314212 210.045063 
L 266.481613 206.470038 
L 266.649013 206.527521 
L 266.816413 203.199795 
L 266.983812 208.975169 
L 267.151213 207.927224 
L 267.318613 208.333122 
L 267.486013 204.690789 
L 267.820813 210.919151 
L 267.988213 212.232123 
L 268.155613 203.873091 
L 268.323013 203.229217 
L 268.490413 210.42756 
L 268.657813 211.912694 
L 268.992613 204.415153 
L 269.327413 212.337203 
L 269.662213 208.467363 
L 269.829613 205.27929 
L 269.997013 211.009343 
L 270.164413 209.773684 
L 270.331813 202.655741 
L 270.499213 209.568456 
L 270.666613 210.36004 
L 270.834013 209.935518 
L 271.001413 207.627768 
L 271.168813 212.02736 
L 271.336213 207.016374 
L 271.503613 213.413303 
L 271.671013 209.630296 
L 271.838413 212.288687 
L 272.005813 208.337856 
L 272.340613 213.691045 
L 272.508013 214.610157 
L 272.675412 208.20438 
L 273.177613 214.896025 
L 273.345012 213.498498 
L 273.512413 209.383737 
L 273.679813 211.692923 
L 273.847213 216.980809 
L 274.182012 212.217255 
L 274.349413 212.68482 
L 274.684213 216.419784 
L 274.851612 213.480896 
L 275.019013 206.05217 
L 275.186413 225.195273 
L 275.353813 216.101341 
L 275.521212 215.594998 
L 275.688613 217.605708 
L 275.856013 215.581064 
L 276.023413 223.941025 
L 276.190812 215.470279 
L 276.358213 213.585959 
L 276.693013 220.687581 
L 276.860412 214.086348 
L 277.027813 219.935757 
L 277.195213 214.45422 
L 277.362613 214.771282 
L 277.530012 210.209149 
L 277.697413 225.234163 
L 278.032213 209.768628 
L 278.199613 224.09742 
L 278.534413 215.734527 
L 278.701813 221.861173 
L 278.869213 222.884846 
L 279.036613 217.419013 
L 279.204013 220.126917 
L 279.371413 220.527435 
L 279.538813 217.728487 
L 279.706213 219.571387 
L 279.873613 218.961218 
L 280.041013 213.549232 
L 280.208413 223.665019 
L 280.375813 222.839295 
L 280.543212 212.254721 
L 280.710613 222.181614 
L 280.878013 219.291334 
L 281.045413 223.41967 
L 281.380213 210.918234 
L 281.547613 224.02727 
L 281.715013 218.037189 
L 281.882412 219.579317 
L 282.049813 224.814958 
L 282.217213 216.49296 
L 282.384613 222.694996 
L 282.552012 217.917357 
L 282.719413 219.293006 
L 282.886813 219.196687 
L 283.054213 218.850466 
L 283.221612 219.591637 
L 283.389013 226.000082 
L 283.556413 217.411569 
L 283.723813 217.226812 
L 283.891212 228.752725 
L 284.226013 217.751169 
L 284.393413 217.906266 
L 284.560812 223.434363 
L 284.728213 220.83262 
L 284.895613 222.742522 
L 285.230412 219.761605 
L 285.397813 223.770567 
L 285.565213 218.330327 
L 285.900013 223.693619 
L 286.067413 219.978917 
L 286.234813 219.281154 
L 286.402213 227.773916 
L 286.569613 224.193489 
L 286.737013 214.567758 
L 286.904413 222.679673 
L 287.071813 225.368921 
L 287.239213 218.294001 
L 287.406613 224.244039 
L 287.574013 225.700474 
L 287.741413 221.603138 
L 287.908813 224.7412 
L 288.076213 220.903814 
L 288.243613 225.223233 
L 288.411013 224.4101 
L 288.578413 224.226328 
L 288.745813 218.843401 
L 288.913213 226.529626 
L 289.248013 218.934592 
L 289.415413 228.343425 
L 289.917613 218.526278 
L 290.085013 226.238736 
L 290.587213 217.567326 
L 290.754613 223.46221 
L 290.922012 225.207319 
L 291.089413 221.850998 
L 291.256813 224.504072 
L 291.591612 221.457458 
L 291.926413 227.135353 
L 292.093813 225.309695 
L 292.261212 218.901641 
L 292.428613 228.48786 
L 292.596013 223.242297 
L 292.763413 221.653157 
L 292.930813 224.932561 
L 293.098213 221.403318 
L 293.265613 225.697529 
L 293.433013 225.640422 
L 293.600413 218.162387 
L 293.767813 228.476301 
L 293.935213 224.027625 
L 294.270013 227.345179 
L 294.772213 222.722827 
L 295.107013 226.258235 
L 295.274413 224.065475 
L 295.609213 225.791532 
L 295.776612 225.532189 
L 295.944013 223.478467 
L 296.111413 228.646057 
L 296.278813 224.647011 
L 296.446213 226.43169 
L 296.613613 226.438503 
L 296.781013 225.668307 
L 296.948413 225.461869 
L 297.115813 224.116599 
L 297.450613 225.258897 
L 297.618013 225.388483 
L 297.785413 223.687479 
L 297.952813 233.36041 
L 298.120213 225.210188 
L 298.287613 224.752818 
L 298.455013 231.935245 
L 298.622413 225.025999 
L 298.957213 229.877607 
L 299.124613 223.702734 
L 299.292013 226.88176 
L 299.459413 223.675457 
L 299.626813 228.224412 
L 299.794213 229.203276 
L 299.961613 225.703577 
L 300.129013 230.230232 
L 300.296413 227.495661 
L 300.463813 229.215571 
L 300.631213 219.35115 
L 300.798613 229.633472 
L 300.966013 230.008174 
L 301.133413 222.204246 
L 301.300813 234.109951 
L 301.635613 223.9952 
L 301.803013 228.326801 
L 301.970413 224.153858 
L 302.137813 224.201671 
L 302.305213 228.723145 
L 302.472613 226.735658 
L 302.640013 230.50433 
L 302.807412 227.105546 
L 302.974813 220.457515 
L 303.142213 230.485204 
L 303.477013 223.596601 
L 303.644413 231.671332 
L 303.979213 228.028952 
L 304.146613 230.398894 
L 304.314013 229.126494 
L 304.481413 230.023123 
L 304.648813 224.700561 
L 304.816213 230.314505 
L 304.983613 231.381141 
L 305.151013 222.05011 
L 305.485813 231.427091 
L 305.653213 225.118642 
L 305.820613 229.55405 
L 306.155413 225.62377 
L 306.322813 230.29527 
L 306.490213 230.896374 
L 306.657613 225.753002 
L 306.825013 229.501709 
L 306.992413 224.051407 
L 307.159813 231.609565 
L 307.327213 231.213974 
L 307.494613 227.712453 
L 307.662013 227.397039 
L 307.829413 229.290048 
L 307.996813 226.402039 
L 308.164213 230.952242 
L 308.331613 231.091422 
L 308.499013 227.582763 
L 308.666413 229.66245 
L 308.833813 229.201713 
L 309.001213 229.085326 
L 309.168613 228.254356 
L 309.503413 229.601873 
L 309.838213 226.683646 
L 310.005613 235.6874 
L 310.173013 224.912123 
L 310.507813 232.700849 
L 310.675213 225.770155 
L 311.010013 235.73915 
L 311.177413 224.99864 
L 311.344813 231.838416 
L 311.512213 227.977064 
L 311.847013 231.999497 
L 312.014413 226.50549 
L 312.181813 225.561311 
L 312.349213 238.156668 
L 312.684013 218.275388 
L 312.851413 234.173839 
L 313.018813 227.863263 
L 313.186213 227.630561 
L 313.353613 236.105467 
L 313.521013 224.434407 
L 313.688413 228.346706 
L 313.855813 237.217044 
L 314.023213 226.566244 
L 314.190613 231.317215 
L 314.358013 228.601471 
L 314.692813 232.959265 
L 314.860213 226.637515 
L 315.027613 232.231879 
L 315.195013 233.569646 
L 315.529813 225.6186 
L 315.864613 235.25637 
L 316.032013 226.379994 
L 316.199413 233.935218 
L 316.366813 232.751541 
L 316.534213 224.297919 
L 316.701613 236.687634 
L 317.203813 225.749784 
L 317.371213 231.001475 
L 317.538613 230.81638 
L 317.706013 232.181798 
L 317.873413 232.114373 
L 318.040813 227.709414 
L 318.375613 235.805876 
L 318.543013 228.760963 
L 318.710413 228.826712 
L 318.877813 231.405397 
L 319.045213 229.465099 
L 319.212613 231.423836 
L 319.380013 226.263579 
L 319.547413 234.1112 
L 319.714812 229.051359 
L 319.882213 227.510774 
L 320.049613 232.664389 
L 320.217013 229.6183 
L 320.384412 230.987436 
L 320.551813 226.579312 
L 320.886613 233.67865 
L 321.054012 228.247824 
L 321.221413 234.658426 
L 321.388813 231.672554 
L 321.556213 224.848892 
L 321.723613 228.559807 
L 321.891013 236.264564 
L 322.225813 223.568853 
L 322.393213 232.566416 
L 322.560613 233.657473 
L 322.728013 229.270139 
L 322.895413 233.44041 
L 323.062813 226.264423 
L 323.230213 231.026259 
L 323.397613 231.599281 
L 323.565013 233.028021 
L 323.899813 226.737361 
L 324.067213 239.046784 
L 324.402013 226.039541 
L 324.569413 235.596448 
L 324.736813 232.766681 
L 324.904213 232.609622 
L 325.071613 230.423295 
L 325.239013 229.80614 
L 325.406413 230.722757 
L 325.573813 229.655832 
L 325.741213 233.611798 
L 325.908613 234.493115 
L 326.076013 224.300562 
L 326.243413 237.109506 
L 326.410813 231.550141 
L 326.578213 231.929039 
L 326.745613 230.481263 
L 326.913013 227.874092 
L 327.080413 230.835642 
L 327.247813 231.563871 
L 327.415213 230.858646 
L 327.582613 232.231499 
L 327.750013 231.513799 
L 327.917413 232.988832 
L 328.084813 237.335713 
L 328.419613 224.740611 
L 328.587013 235.05132 
L 328.754413 231.598285 
L 328.921813 218.38321 
L 329.089213 237.925601 
L 329.256613 234.84532 
L 329.424013 229.316359 
L 329.591413 234.661138 
L 329.758813 228.58715 
L 329.926213 232.474878 
L 330.093613 231.760596 
L 330.261013 226.508245 
L 330.428413 237.283469 
L 330.595813 228.637197 
L 330.930613 237.567786 
L 331.098013 223.873116 
L 331.265413 235.722137 
L 331.432813 239.454443 
L 331.600213 225.858045 
L 331.767613 229.1006 
L 331.935013 236.080594 
L 332.269813 228.961048 
L 332.437213 233.177772 
L 332.772013 229.457932 
L 332.939413 234.760084 
L 333.106813 232.738737 
L 333.274213 228.690995 
L 333.441613 232.158449 
L 333.609013 230.27446 
L 333.943813 232.448124 
L 334.278613 227.885342 
L 334.446013 232.649676 
L 334.613413 232.405699 
L 334.780813 234.238087 
L 335.115613 226.751377 
L 335.283013 236.835898 
L 335.450413 229.028509 
L 335.617813 226.759749 
L 335.952613 237.725027 
L 336.287413 227.910002 
L 336.454813 234.905017 
L 336.789613 228.911423 
L 336.957013 233.55945 
L 337.124413 229.457744 
L 337.291813 237.759558 
L 337.626613 230.488246 
L 337.961413 232.065501 
L 338.128813 236.190176 
L 338.296213 226.772394 
L 338.463613 229.883976 
L 338.631012 237.45239 
L 338.798413 232.113771 
L 338.965813 231.162349 
L 339.300612 233.171154 
L 339.635413 229.055644 
L 339.802813 235.412582 
L 339.970213 228.59981 
L 340.137613 233.53059 
L 340.305013 234.245113 
L 340.472413 229.842375 
L 340.639813 230.064983 
L 340.807213 234.661423 
L 340.974613 228.781565 
L 341.142013 232.397429 
L 341.309413 231.569946 
L 341.476813 236.678458 
L 341.644213 228.404253 
L 341.979013 235.544153 
L 342.146413 226.856256 
L 342.313813 235.597467 
L 342.481213 236.396891 
L 342.648613 226.865556 
L 342.816013 234.730783 
L 342.983413 230.337956 
L 343.150813 233.517686 
L 343.318213 232.484741 
L 343.485613 232.973468 
L 343.653013 235.731496 
L 343.987813 226.160206 
L 344.155213 240.528139 
L 344.490013 224.252647 
L 344.657413 239.27325 
L 344.992213 224.867245 
L 345.159613 239.69547 
L 345.327013 231.671481 
L 345.494413 230.089297 
L 345.661813 232.411754 
L 345.996613 227.633323 
L 346.164013 233.344846 
L 346.331413 234.490082 
L 346.498813 230.069185 
L 346.666213 229.902111 
L 346.833613 232.885261 
L 347.001013 233.367103 
L 347.168413 230.992625 
L 347.335813 234.462363 
L 347.503213 232.259534 
L 347.670613 232.649612 
L 347.838013 232.36681 
L 348.005413 233.257197 
L 348.172813 232.673743 
L 348.340213 229.167234 
L 348.507613 243.556364 
L 348.842413 228.783983 
L 349.009813 238.240948 
L 349.177213 235.77764 
L 349.344613 224.040076 
L 349.512013 235.501289 
L 349.679413 236.592042 
L 349.846813 233.048606 
L 350.014213 232.138824 
L 350.181613 234.906823 
L 350.349013 230.037582 
L 350.516413 233.078379 
L 350.683813 230.94106 
L 350.851213 233.677489 
L 351.018613 233.555731 
L 351.186013 229.401006 
L 351.353413 234.550769 
L 351.520813 232.051566 
L 351.688213 232.499154 
L 351.855613 234.269843 
L 352.190413 230.851131 
L 352.525213 237.604055 
L 352.692613 226.972927 
L 352.860013 226.080885 
L 353.027413 238.893624 
L 353.194813 226.223349 
L 353.529613 237.563294 
L 353.697013 231.321915 
L 353.864413 236.415867 
L 354.031813 231.861073 
L 354.199213 234.600683 
L 354.366613 233.136075 
L 354.534013 234.579942 
L 354.701413 234.944697 
L 355.036213 229.328286 
L 355.203613 235.796799 
L 355.371013 228.594278 
L 355.705813 235.361438 
L 355.873213 231.03801 
L 356.040613 230.061814 
L 356.375413 235.385263 
L 356.710213 226.327653 
L 357.045013 235.997863 
L 357.212413 226.25244 
L 357.379813 233.648199 
L 357.547213 234.177487 
L 357.714613 228.609038 
L 357.882013 236.438432 
L 358.216813 230.039326 
L 358.384213 237.003741 
L 358.551613 235.560607 
L 358.719013 226.148614 
L 358.886413 233.397403 
L 359.221213 234.6083 
L 359.388613 232.349496 
L 359.556013 235.935027 
L 359.723413 234.362908 
L 359.890813 231.563627 
L 360.058213 237.285448 
L 360.225613 231.263453 
L 360.393013 232.688045 
L 360.560413 225.080679 
L 360.727813 233.986177 
L 360.895213 235.959293 
L 361.062613 227.673869 
L 361.230013 235.490556 
L 361.397413 235.71497 
L 361.564813 225.459159 
L 361.732213 236.219976 
L 361.899613 234.218785 
L 362.067013 227.074033 
L 362.234413 236.446716 
L 362.401813 235.668712 
L 362.569213 228.047854 
L 362.736613 227.801489 
L 362.904013 235.644112 
L 363.071413 232.421974 
L 363.238813 232.203327 
L 363.406213 236.316892 
L 363.741013 229.573473 
L 363.908412 230.419498 
L 364.075813 235.449896 
L 364.243213 231.20871 
L 364.410613 236.710637 
L 364.578012 236.826383 
L 364.745413 227.18003 
L 365.080213 242.048223 
L 365.247613 229.291755 
L 365.415013 226.135436 
L 365.582413 238.681935 
L 365.749813 237.572241 
L 365.917213 225.996769 
L 366.084613 228.678933 
L 366.252013 235.494782 
L 366.419413 230.309932 
L 366.586813 235.095908 
L 366.754213 230.483911 
L 366.921613 230.209464 
L 367.089013 235.567833 
L 367.256413 234.41667 
L 367.423813 229.789771 
L 367.591213 232.375368 
L 367.758613 232.642359 
L 367.926013 236.854168 
L 368.093413 228.636318 
L 368.260813 231.089769 
L 368.428213 235.648126 
L 368.595613 232.783352 
L 368.763013 227.802491 
L 368.930413 236.498654 
L 369.265213 229.562961 
L 369.432613 237.16281 
L 369.767413 230.249203 
L 369.934813 236.09117 
L 370.102213 229.377125 
L 370.269613 233.035586 
L 370.437013 232.258064 
L 370.604413 233.945024 
L 370.771813 233.640509 
L 370.939213 233.014797 
L 371.106613 236.175148 
L 371.274013 232.151493 
L 371.441413 232.690217 
L 371.608813 231.984742 
L 371.943613 233.592406 
L 372.111013 230.309663 
L 372.278413 234.51907 
L 372.445813 233.558847 
L 372.613213 225.696254 
L 372.780613 237.488457 
L 372.948013 235.562014 
L 373.115413 228.55258 
L 373.282813 229.964412 
L 373.282813 229.964412 
" clip-path="url(#p624ec39a7b)" style="fill: none; stroke: #1f77b4; stroke-width: 1.5; stroke-linecap: square"/>
   </g>
   <g id="line2d_17">
    <path d="M 38.650213 56.153566 
L 39.319813 61.806112 
L 39.989413 65.595127 
L 40.659013 68.13498 
L 41.328612 69.837494 
L 41.998213 70.978723 
L 42.667813 71.743712 
L 43.504812 72.355718 
L 44.509213 72.781371 
L 45.848413 73.066481 
L 47.857213 73.229052 
L 52.209613 73.293917 
L 91.381213 73.299122 
L 373.282813 73.299122 
L 373.282813 73.299122 
" clip-path="url(#p624ec39a7b)" style="fill: none; stroke: #ff7f0e; stroke-width: 1.5; stroke-linecap: square"/>
   </g>
   <g id="patch_3">
    <path d="M 38.482813 253.44 
L 38.482813 36 
" style="fill: none; stroke: #000000; stroke-width: 0.8; stroke-linejoin: miter; stroke-linecap: square"/>
   </g>
   <g id="patch_4">
    <path d="M 373.282813 253.44 
L 373.282813 36 
" style="fill: none; stroke: #000000; stroke-width: 0.8; stroke-linejoin: miter; stroke-linecap: square"/>
   </g>
   <g id="patch_5">
    <path d="M 38.482813 253.44 
L 373.282813 253.44 
" style="fill: none; stroke: #000000; stroke-width: 0.8; stroke-linejoin: miter; stroke-linecap: square"/>
   </g>
   <g id="patch_6">
    <path d="M 38.482813 36 
L 373.282813 36 
" style="fill: none; stroke: #000000; stroke-width: 0.8; stroke-linejoin: miter; stroke-linecap: square"/>
   </g>
   <g id="legend_1">
    <g id="patch_7">
     <path d="M 45.482813 248.44 
L 95.182813 248.44 
Q 97.182813 248.44 97.182813 246.44 
L 97.182813 214.361875 
Q 97.182813 212.361875 95.182813 212.361875 
L 45.482813 212.361875 
Q 43.482813 212.361875 43.482813 214.361875 
L 43.482813 246.44 
Q 43.482813 248.44 45.482813 248.44 
z
" style="fill: #ffffff; opacity: 0.8; stroke: #cccccc; stroke-linejoin: miter"/>
    </g>
    <g id="line2d_18">
     <path d="M 47.482813 224.161875 
L 57.482813 224.161875 
L 67.482812 224.161875 
" style="fill: none; stroke: #1f77b4; stroke-width: 1.5; stroke-linecap: square"/>
    </g>
    <g id="text_17">
     <!-- $\hat{y(t)}$ -->
     <g transform="translate(75.482812 227.661875) scale(0.1 -0.1)">
      <defs>
       <path id="DejaVuSans-302" d="M -1831 5119 
L -1369 5119 
L -603 3944 
L -1038 3944 
L -1600 4709 
L -2163 3944 
L -2597 3944 
L -1831 5119 
z
M -1600 3584 
L -1600 3584 
z
" transform="scale(0.015625)"/>
       <path id="DejaVuSans-Oblique-79" d="M 1588 -325 
Q 1188 -997 936 -1164 
Q 684 -1331 294 -1331 
L -159 -1331 
L -63 -850 
L 269 -850 
Q 509 -850 678 -719 
Q 847 -588 1056 -206 
L 1234 128 
L 459 3500 
L 1069 3500 
L 1650 819 
L 3256 3500 
L 3859 3500 
L 1588 -325 
z
" transform="scale(0.015625)"/>
       <path id="DejaVuSans-28" d="M 1984 4856 
Q 1566 4138 1362 3434 
Q 1159 2731 1159 2009 
Q 1159 1288 1364 580 
Q 1569 -128 1984 -844 
L 1484 -844 
Q 1016 -109 783 600 
Q 550 1309 550 2009 
Q 550 2706 781 3412 
Q 1013 4119 1484 4856 
L 1984 4856 
z
" transform="scale(0.015625)"/>
       <path id="DejaVuSans-29" d="M 513 4856 
L 1013 4856 
Q 1481 4119 1714 3412 
Q 1947 2706 1947 2009 
Q 1947 1309 1714 600 
Q 1481 -109 1013 -844 
L 513 -844 
Q 928 -128 1133 580 
Q 1338 1288 1338 2009 
Q 1338 2731 1133 3434 
Q 928 4138 513 4856 
z
" transform="scale(0.015625)"/>
      </defs>
      <use xlink:href="#DejaVuSans-302" transform="translate(135.682129 33.015625)"/>
      <use xlink:href="#DejaVuSans-Oblique-79" transform="translate(0 0.640625)"/>
      <use xlink:href="#DejaVuSans-28" transform="translate(59.179688 0.640625)"/>
      <use xlink:href="#DejaVuSans-Oblique-74" transform="translate(98.193359 0.640625)"/>
      <use xlink:href="#DejaVuSans-29" transform="translate(137.402344 0.640625)"/>
     </g>
    </g>
    <g id="line2d_19">
     <path d="M 47.482813 238.860312 
L 57.482813 238.860312 
L 67.482812 238.860312 
" style="fill: none; stroke: #ff7f0e; stroke-width: 1.5; stroke-linecap: square"/>
    </g>
    <g id="text_18">
     <!-- $x(t)$ -->
     <g transform="translate(75.482812 242.360312) scale(0.1 -0.1)">
      <defs>
       <path id="DejaVuSans-Oblique-78" d="M 3841 3500 
L 2234 1784 
L 3219 0 
L 2559 0 
L 1819 1388 
L 531 0 
L -166 0 
L 1556 1844 
L 641 3500 
L 1300 3500 
L 1972 2234 
L 3144 3500 
L 3841 3500 
z
" transform="scale(0.015625)"/>
      </defs>
      <use xlink:href="#DejaVuSans-Oblique-78" transform="translate(0 0.125)"/>
      <use xlink:href="#DejaVuSans-28" transform="translate(59.179688 0.125)"/>
      <use xlink:href="#DejaVuSans-Oblique-74" transform="translate(98.193359 0.125)"/>
      <use xlink:href="#DejaVuSans-29" transform="translate(137.402344 0.125)"/>
     </g>
    </g>
   </g>
  </g>
  <g id="text_19">
   <!-- Accumulate to Threshold model with input of -0.1 with rms=3  -->
   <g transform="translate(13.149687 16.318125) scale(0.12 -0.12)">
    <defs>
     <path id="DejaVuSans-41" d="M 2188 4044 
L 1331 1722 
L 3047 1722 
L 2188 4044 
z
M 1831 4666 
L 2547 4666 
L 4325 0 
L 3669 0 
L 3244 1197 
L 1141 1197 
L 716 0 
L 50 0 
L 1831 4666 
z
" transform="scale(0.015625)"/>
     <path id="DejaVuSans-63" d="M 3122 3366 
L 3122 2828 
Q 2878 2963 2633 3030 
Q 2388 3097 2138 3097 
Q 1578 3097 1268 2742 
Q 959 2388 959 1747 
Q 959 1106 1268 751 
Q 1578 397 2138 397 
Q 2388 397 2633 464 
Q 2878 531 3122 666 
L 3122 134 
Q 2881 22 2623 -34 
Q 2366 -91 2075 -91 
Q 1284 -91 818 406 
Q 353 903 353 1747 
Q 353 2603 823 3093 
Q 1294 3584 2113 3584 
Q 2378 3584 2631 3529 
Q 2884 3475 3122 3366 
z
" transform="scale(0.015625)"/>
     <path id="DejaVuSans-75" d="M 544 1381 
L 544 3500 
L 1119 3500 
L 1119 1403 
Q 1119 906 1312 657 
Q 1506 409 1894 409 
Q 2359 409 2629 706 
Q 2900 1003 2900 1516 
L 2900 3500 
L 3475 3500 
L 3475 0 
L 2900 0 
L 2900 538 
Q 2691 219 2414 64 
Q 2138 -91 1772 -91 
Q 1169 -91 856 284 
Q 544 659 544 1381 
z
M 1991 3584 
L 1991 3584 
z
" transform="scale(0.015625)"/>
     <path id="DejaVuSans-6d" d="M 3328 2828 
Q 3544 3216 3844 3400 
Q 4144 3584 4550 3584 
Q 5097 3584 5394 3201 
Q 5691 2819 5691 2113 
L 5691 0 
L 5113 0 
L 5113 2094 
Q 5113 2597 4934 2840 
Q 4756 3084 4391 3084 
Q 3944 3084 3684 2787 
Q 3425 2491 3425 1978 
L 3425 0 
L 2847 0 
L 2847 2094 
Q 2847 2600 2669 2842 
Q 2491 3084 2119 3084 
Q 1678 3084 1418 2786 
Q 1159 2488 1159 1978 
L 1159 0 
L 581 0 
L 581 3500 
L 1159 3500 
L 1159 2956 
Q 1356 3278 1631 3431 
Q 1906 3584 2284 3584 
Q 2666 3584 2933 3390 
Q 3200 3197 3328 2828 
z
" transform="scale(0.015625)"/>
     <path id="DejaVuSans-6c" d="M 603 4863 
L 1178 4863 
L 1178 0 
L 603 0 
L 603 4863 
z
" transform="scale(0.015625)"/>
     <path id="DejaVuSans-61" d="M 2194 1759 
Q 1497 1759 1228 1600 
Q 959 1441 959 1056 
Q 959 750 1161 570 
Q 1363 391 1709 391 
Q 2188 391 2477 730 
Q 2766 1069 2766 1631 
L 2766 1759 
L 2194 1759 
z
M 3341 1997 
L 3341 0 
L 2766 0 
L 2766 531 
Q 2569 213 2275 61 
Q 1981 -91 1556 -91 
Q 1019 -91 701 211 
Q 384 513 384 1019 
Q 384 1609 779 1909 
Q 1175 2209 1959 2209 
L 2766 2209 
L 2766 2266 
Q 2766 2663 2505 2880 
Q 2244 3097 1772 3097 
Q 1472 3097 1187 3025 
Q 903 2953 641 2809 
L 641 3341 
Q 956 3463 1253 3523 
Q 1550 3584 1831 3584 
Q 2591 3584 2966 3190 
Q 3341 2797 3341 1997 
z
" transform="scale(0.015625)"/>
     <path id="DejaVuSans-74" d="M 1172 4494 
L 1172 3500 
L 2356 3500 
L 2356 3053 
L 1172 3053 
L 1172 1153 
Q 1172 725 1289 603 
Q 1406 481 1766 481 
L 2356 481 
L 2356 0 
L 1766 0 
Q 1100 0 847 248 
Q 594 497 594 1153 
L 594 3053 
L 172 3053 
L 172 3500 
L 594 3500 
L 594 4494 
L 1172 4494 
z
" transform="scale(0.015625)"/>
     <path id="DejaVuSans-65" d="M 3597 1894 
L 3597 1613 
L 953 1613 
Q 991 1019 1311 708 
Q 1631 397 2203 397 
Q 2534 397 2845 478 
Q 3156 559 3463 722 
L 3463 178 
Q 3153 47 2828 -22 
Q 2503 -91 2169 -91 
Q 1331 -91 842 396 
Q 353 884 353 1716 
Q 353 2575 817 3079 
Q 1281 3584 2069 3584 
Q 2775 3584 3186 3129 
Q 3597 2675 3597 1894 
z
M 3022 2063 
Q 3016 2534 2758 2815 
Q 2500 3097 2075 3097 
Q 1594 3097 1305 2825 
Q 1016 2553 972 2059 
L 3022 2063 
z
" transform="scale(0.015625)"/>
     <path id="DejaVuSans-20" transform="scale(0.015625)"/>
     <path id="DejaVuSans-6f" d="M 1959 3097 
Q 1497 3097 1228 2736 
Q 959 2375 959 1747 
Q 959 1119 1226 758 
Q 1494 397 1959 397 
Q 2419 397 2687 759 
Q 2956 1122 2956 1747 
Q 2956 2369 2687 2733 
Q 2419 3097 1959 3097 
z
M 1959 3584 
Q 2709 3584 3137 3096 
Q 3566 2609 3566 1747 
Q 3566 888 3137 398 
Q 2709 -91 1959 -91 
Q 1206 -91 779 398 
Q 353 888 353 1747 
Q 353 2609 779 3096 
Q 1206 3584 1959 3584 
z
" transform="scale(0.015625)"/>
     <path id="DejaVuSans-54" d="M -19 4666 
L 3928 4666 
L 3928 4134 
L 2272 4134 
L 2272 0 
L 1638 0 
L 1638 4134 
L -19 4134 
L -19 4666 
z
" transform="scale(0.015625)"/>
     <path id="DejaVuSans-68" d="M 3513 2113 
L 3513 0 
L 2938 0 
L 2938 2094 
Q 2938 2591 2744 2837 
Q 2550 3084 2163 3084 
Q 1697 3084 1428 2787 
Q 1159 2491 1159 1978 
L 1159 0 
L 581 0 
L 581 4863 
L 1159 4863 
L 1159 2956 
Q 1366 3272 1645 3428 
Q 1925 3584 2291 3584 
Q 2894 3584 3203 3211 
Q 3513 2838 3513 2113 
z
" transform="scale(0.015625)"/>
     <path id="DejaVuSans-72" d="M 2631 2963 
Q 2534 3019 2420 3045 
Q 2306 3072 2169 3072 
Q 1681 3072 1420 2755 
Q 1159 2438 1159 1844 
L 1159 0 
L 581 0 
L 581 3500 
L 1159 3500 
L 1159 2956 
Q 1341 3275 1631 3429 
Q 1922 3584 2338 3584 
Q 2397 3584 2469 3576 
Q 2541 3569 2628 3553 
L 2631 2963 
z
" transform="scale(0.015625)"/>
     <path id="DejaVuSans-73" d="M 2834 3397 
L 2834 2853 
Q 2591 2978 2328 3040 
Q 2066 3103 1784 3103 
Q 1356 3103 1142 2972 
Q 928 2841 928 2578 
Q 928 2378 1081 2264 
Q 1234 2150 1697 2047 
L 1894 2003 
Q 2506 1872 2764 1633 
Q 3022 1394 3022 966 
Q 3022 478 2636 193 
Q 2250 -91 1575 -91 
Q 1294 -91 989 -36 
Q 684 19 347 128 
L 347 722 
Q 666 556 975 473 
Q 1284 391 1588 391 
Q 1994 391 2212 530 
Q 2431 669 2431 922 
Q 2431 1156 2273 1281 
Q 2116 1406 1581 1522 
L 1381 1569 
Q 847 1681 609 1914 
Q 372 2147 372 2553 
Q 372 3047 722 3315 
Q 1072 3584 1716 3584 
Q 2034 3584 2315 3537 
Q 2597 3491 2834 3397 
z
" transform="scale(0.015625)"/>
     <path id="DejaVuSans-64" d="M 2906 2969 
L 2906 4863 
L 3481 4863 
L 3481 0 
L 2906 0 
L 2906 525 
Q 2725 213 2448 61 
Q 2172 -91 1784 -91 
Q 1150 -91 751 415 
Q 353 922 353 1747 
Q 353 2572 751 3078 
Q 1150 3584 1784 3584 
Q 2172 3584 2448 3432 
Q 2725 3281 2906 2969 
z
M 947 1747 
Q 947 1113 1208 752 
Q 1469 391 1925 391 
Q 2381 391 2643 752 
Q 2906 1113 2906 1747 
Q 2906 2381 2643 2742 
Q 2381 3103 1925 3103 
Q 1469 3103 1208 2742 
Q 947 2381 947 1747 
z
" transform="scale(0.015625)"/>
     <path id="DejaVuSans-77" d="M 269 3500 
L 844 3500 
L 1563 769 
L 2278 3500 
L 2956 3500 
L 3675 769 
L 4391 3500 
L 4966 3500 
L 4050 0 
L 3372 0 
L 2619 2869 
L 1863 0 
L 1184 0 
L 269 3500 
z
" transform="scale(0.015625)"/>
     <path id="DejaVuSans-69" d="M 603 3500 
L 1178 3500 
L 1178 0 
L 603 0 
L 603 3500 
z
M 603 4863 
L 1178 4863 
L 1178 4134 
L 603 4134 
L 603 4863 
z
" transform="scale(0.015625)"/>
     <path id="DejaVuSans-6e" d="M 3513 2113 
L 3513 0 
L 2938 0 
L 2938 2094 
Q 2938 2591 2744 2837 
Q 2550 3084 2163 3084 
Q 1697 3084 1428 2787 
Q 1159 2491 1159 1978 
L 1159 0 
L 581 0 
L 581 3500 
L 1159 3500 
L 1159 2956 
Q 1366 3272 1645 3428 
Q 1925 3584 2291 3584 
Q 2894 3584 3203 3211 
Q 3513 2838 3513 2113 
z
" transform="scale(0.015625)"/>
     <path id="DejaVuSans-70" d="M 1159 525 
L 1159 -1331 
L 581 -1331 
L 581 3500 
L 1159 3500 
L 1159 2969 
Q 1341 3281 1617 3432 
Q 1894 3584 2278 3584 
Q 2916 3584 3314 3078 
Q 3713 2572 3713 1747 
Q 3713 922 3314 415 
Q 2916 -91 2278 -91 
Q 1894 -91 1617 61 
Q 1341 213 1159 525 
z
M 3116 1747 
Q 3116 2381 2855 2742 
Q 2594 3103 2138 3103 
Q 1681 3103 1420 2742 
Q 1159 2381 1159 1747 
Q 1159 1113 1420 752 
Q 1681 391 2138 391 
Q 2594 391 2855 752 
Q 3116 1113 3116 1747 
z
" transform="scale(0.015625)"/>
     <path id="DejaVuSans-66" d="M 2375 4863 
L 2375 4384 
L 1825 4384 
Q 1516 4384 1395 4259 
Q 1275 4134 1275 3809 
L 1275 3500 
L 2222 3500 
L 2222 3053 
L 1275 3053 
L 1275 0 
L 697 0 
L 697 3053 
L 147 3053 
L 147 3500 
L 697 3500 
L 697 3744 
Q 697 4328 969 4595 
Q 1241 4863 1831 4863 
L 2375 4863 
z
" transform="scale(0.015625)"/>
     <path id="DejaVuSans-2d" d="M 313 2009 
L 1997 2009 
L 1997 1497 
L 313 1497 
L 313 2009 
z
" transform="scale(0.015625)"/>
     <path id="DejaVuSans-3d" d="M 678 2906 
L 4684 2906 
L 4684 2381 
L 678 2381 
L 678 2906 
z
M 678 1631 
L 4684 1631 
L 4684 1100 
L 678 1100 
L 678 1631 
z
" transform="scale(0.015625)"/>
     <path id="DejaVuSans-33" d="M 2597 2516 
Q 3050 2419 3304 2112 
Q 3559 1806 3559 1356 
Q 3559 666 3084 287 
Q 2609 -91 1734 -91 
Q 1441 -91 1130 -33 
Q 819 25 488 141 
L 488 750 
Q 750 597 1062 519 
Q 1375 441 1716 441 
Q 2309 441 2620 675 
Q 2931 909 2931 1356 
Q 2931 1769 2642 2001 
Q 2353 2234 1838 2234 
L 1294 2234 
L 1294 2753 
L 1863 2753 
Q 2328 2753 2575 2939 
Q 2822 3125 2822 3475 
Q 2822 3834 2567 4026 
Q 2313 4219 1838 4219 
Q 1578 4219 1281 4162 
Q 984 4106 628 3988 
L 628 4550 
Q 988 4650 1302 4700 
Q 1616 4750 1894 4750 
Q 2613 4750 3031 4423 
Q 3450 4097 3450 3541 
Q 3450 3153 3228 2886 
Q 3006 2619 2597 2516 
z
" transform="scale(0.015625)"/>
    </defs>
    <use xlink:href="#DejaVuSans-41"/>
    <use xlink:href="#DejaVuSans-63" x="66.658203"/>
    <use xlink:href="#DejaVuSans-63" x="121.638672"/>
    <use xlink:href="#DejaVuSans-75" x="176.619141"/>
    <use xlink:href="#DejaVuSans-6d" x="239.998047"/>
    <use xlink:href="#DejaVuSans-75" x="337.410156"/>
    <use xlink:href="#DejaVuSans-6c" x="400.789062"/>
    <use xlink:href="#DejaVuSans-61" x="428.572266"/>
    <use xlink:href="#DejaVuSans-74" x="489.851562"/>
    <use xlink:href="#DejaVuSans-65" x="529.060547"/>
    <use xlink:href="#DejaVuSans-20" x="590.583984"/>
    <use xlink:href="#DejaVuSans-74" x="622.371094"/>
    <use xlink:href="#DejaVuSans-6f" x="661.580078"/>
    <use xlink:href="#DejaVuSans-20" x="722.761719"/>
    <use xlink:href="#DejaVuSans-54" x="754.548828"/>
    <use xlink:href="#DejaVuSans-68" x="815.632812"/>
    <use xlink:href="#DejaVuSans-72" x="879.011719"/>
    <use xlink:href="#DejaVuSans-65" x="917.875"/>
    <use xlink:href="#DejaVuSans-73" x="979.398438"/>
    <use xlink:href="#DejaVuSans-68" x="1031.498047"/>
    <use xlink:href="#DejaVuSans-6f" x="1094.876953"/>
    <use xlink:href="#DejaVuSans-6c" x="1156.058594"/>
    <use xlink:href="#DejaVuSans-64" x="1183.841797"/>
    <use xlink:href="#DejaVuSans-20" x="1247.318359"/>
    <use xlink:href="#DejaVuSans-6d" x="1279.105469"/>
    <use xlink:href="#DejaVuSans-6f" x="1376.517578"/>
    <use xlink:href="#DejaVuSans-64" x="1437.699219"/>
    <use xlink:href="#DejaVuSans-65" x="1501.175781"/>
    <use xlink:href="#DejaVuSans-6c" x="1562.699219"/>
    <use xlink:href="#DejaVuSans-20" x="1590.482422"/>
    <use xlink:href="#DejaVuSans-77" x="1622.269531"/>
    <use xlink:href="#DejaVuSans-69" x="1704.056641"/>
    <use xlink:href="#DejaVuSans-74" x="1731.839844"/>
    <use xlink:href="#DejaVuSans-68" x="1771.048828"/>
    <use xlink:href="#DejaVuSans-20" x="1834.427734"/>
    <use xlink:href="#DejaVuSans-69" x="1866.214844"/>
    <use xlink:href="#DejaVuSans-6e" x="1893.998047"/>
    <use xlink:href="#DejaVuSans-70" x="1957.376953"/>
    <use xlink:href="#DejaVuSans-75" x="2020.853516"/>
    <use xlink:href="#DejaVuSans-74" x="2084.232422"/>
    <use xlink:href="#DejaVuSans-20" x="2123.441406"/>
    <use xlink:href="#DejaVuSans-6f" x="2155.228516"/>
    <use xlink:href="#DejaVuSans-66" x="2216.410156"/>
    <use xlink:href="#DejaVuSans-20" x="2251.615234"/>
    <use xlink:href="#DejaVuSans-2d" x="2283.402344"/>
    <use xlink:href="#DejaVuSans-30" x="2319.486328"/>
    <use xlink:href="#DejaVuSans-2e" x="2383.109375"/>
    <use xlink:href="#DejaVuSans-31" x="2414.896484"/>
    <use xlink:href="#DejaVuSans-20" x="2478.519531"/>
    <use xlink:href="#DejaVuSans-77" x="2510.306641"/>
    <use xlink:href="#DejaVuSans-69" x="2592.09375"/>
    <use xlink:href="#DejaVuSans-74" x="2619.876953"/>
    <use xlink:href="#DejaVuSans-68" x="2659.085938"/>
    <use xlink:href="#DejaVuSans-20" x="2722.464844"/>
    <use xlink:href="#DejaVuSans-72" x="2754.251953"/>
    <use xlink:href="#DejaVuSans-6d" x="2793.615234"/>
    <use xlink:href="#DejaVuSans-73" x="2891.027344"/>
    <use xlink:href="#DejaVuSans-3d" x="2943.126953"/>
    <use xlink:href="#DejaVuSans-33" x="3026.916016"/>
    <use xlink:href="#DejaVuSans-20" x="3090.539062"/>
   </g>
  </g>
 </g>
 <defs>
  <clipPath id="p624ec39a7b">
   <rect x="38.482813" y="36" width="334.8" height="217.44"/>
  </clipPath>
 </defs>
</svg>
