<?xml version="1.0" encoding="utf-8" standalone="no"?>
<!DOCTYPE svg PUBLIC "-//W3C//DTD SVG 1.1//EN"
  "http://www.w3.org/Graphics/SVG/1.1/DTD/svg11.dtd">
<svg xmlns:xlink="http://www.w3.org/1999/xlink" width="526.700625pt" height="290.99625pt" viewBox="0 0 526.700625 290.99625" xmlns="http://www.w3.org/2000/svg" version="1.1">
 <metadata>
  <rdf:RDF xmlns:dc="http://purl.org/dc/elements/1.1/" xmlns:cc="http://creativecommons.org/ns#" xmlns:rdf="http://www.w3.org/1999/02/22-rdf-syntax-ns#">
   <cc:Work>
    <dc:type rdf:resource="http://purl.org/dc/dcmitype/StillImage"/>
    <dc:date>2022-12-01T16:27:35.222324</dc:date>
    <dc:format>image/svg+xml</dc:format>
    <dc:creator>
     <cc:Agent>
      <dc:title>Matplotlib v3.6.0, https://matplotlib.org/</dc:title>
     </cc:Agent>
    </dc:creator>
   </cc:Work>
  </rdf:RDF>
 </metadata>
 <defs>
  <style type="text/css">*{stroke-linejoin: round; stroke-linecap: butt}</style>
 </defs>
 <g id="figure_1">
  <g id="patch_1">
   <path d="M 0 290.99625 
L 526.700625 290.99625 
L 526.700625 0 
L 0 0 
L 0 290.99625 
z
" style="fill: none"/>
  </g>
  <g id="axes_1">
   <g id="patch_2">
    <path d="M 101.350312 253.44 
L 436.150312 253.44 
L 436.150312 36 
L 101.350312 36 
z
" style="fill: #ffffff"/>
   </g>
   <g id="matplotlib.axis_1">
    <g id="xtick_1">
     <g id="line2d_1">
      <defs>
       <path id="mda4af334c0" d="M 0 0 
L 0 3.5 
" style="stroke: #000000; stroke-width: 0.8"/>
      </defs>
      <g>
       <use xlink:href="#mda4af334c0" x="101.350312" y="253.44" style="stroke: #000000; stroke-width: 0.8"/>
      </g>
     </g>
     <g id="text_1">
      <!-- 0.00 -->
      <g transform="translate(90.2175 268.038437) scale(0.1 -0.1)">
       <defs>
        <path id="DejaVuSans-30" d="M 2034 4250 
Q 1547 4250 1301 3770 
Q 1056 3291 1056 2328 
Q 1056 1369 1301 889 
Q 1547 409 2034 409 
Q 2525 409 2770 889 
Q 3016 1369 3016 2328 
Q 3016 3291 2770 3770 
Q 2525 4250 2034 4250 
z
M 2034 4750 
Q 2819 4750 3233 4129 
Q 3647 3509 3647 2328 
Q 3647 1150 3233 529 
Q 2819 -91 2034 -91 
Q 1250 -91 836 529 
Q 422 1150 422 2328 
Q 422 3509 836 4129 
Q 1250 4750 2034 4750 
z
" transform="scale(0.015625)"/>
        <path id="DejaVuSans-2e" d="M 684 794 
L 1344 794 
L 1344 0 
L 684 0 
L 684 794 
z
" transform="scale(0.015625)"/>
       </defs>
       <use xlink:href="#DejaVuSans-30"/>
       <use xlink:href="#DejaVuSans-2e" x="63.623047"/>
       <use xlink:href="#DejaVuSans-30" x="95.410156"/>
       <use xlink:href="#DejaVuSans-30" x="159.033203"/>
      </g>
     </g>
    </g>
    <g id="xtick_2">
     <g id="line2d_2">
      <g>
       <use xlink:href="#mda4af334c0" x="143.200312" y="253.44" style="stroke: #000000; stroke-width: 0.8"/>
      </g>
     </g>
     <g id="text_2">
      <!-- 0.25 -->
      <g transform="translate(132.0675 268.038437) scale(0.1 -0.1)">
       <defs>
        <path id="DejaVuSans-32" d="M 1228 531 
L 3431 531 
L 3431 0 
L 469 0 
L 469 531 
Q 828 903 1448 1529 
Q 2069 2156 2228 2338 
Q 2531 2678 2651 2914 
Q 2772 3150 2772 3378 
Q 2772 3750 2511 3984 
Q 2250 4219 1831 4219 
Q 1534 4219 1204 4116 
Q 875 4013 500 3803 
L 500 4441 
Q 881 4594 1212 4672 
Q 1544 4750 1819 4750 
Q 2544 4750 2975 4387 
Q 3406 4025 3406 3419 
Q 3406 3131 3298 2873 
Q 3191 2616 2906 2266 
Q 2828 2175 2409 1742 
Q 1991 1309 1228 531 
z
" transform="scale(0.015625)"/>
        <path id="DejaVuSans-35" d="M 691 4666 
L 3169 4666 
L 3169 4134 
L 1269 4134 
L 1269 2991 
Q 1406 3038 1543 3061 
Q 1681 3084 1819 3084 
Q 2600 3084 3056 2656 
Q 3513 2228 3513 1497 
Q 3513 744 3044 326 
Q 2575 -91 1722 -91 
Q 1428 -91 1123 -41 
Q 819 9 494 109 
L 494 744 
Q 775 591 1075 516 
Q 1375 441 1709 441 
Q 2250 441 2565 725 
Q 2881 1009 2881 1497 
Q 2881 1984 2565 2268 
Q 2250 2553 1709 2553 
Q 1456 2553 1204 2497 
Q 953 2441 691 2322 
L 691 4666 
z
" transform="scale(0.015625)"/>
       </defs>
       <use xlink:href="#DejaVuSans-30"/>
       <use xlink:href="#DejaVuSans-2e" x="63.623047"/>
       <use xlink:href="#DejaVuSans-32" x="95.410156"/>
       <use xlink:href="#DejaVuSans-35" x="159.033203"/>
      </g>
     </g>
    </g>
    <g id="xtick_3">
     <g id="line2d_3">
      <g>
       <use xlink:href="#mda4af334c0" x="185.050312" y="253.44" style="stroke: #000000; stroke-width: 0.8"/>
      </g>
     </g>
     <g id="text_3">
      <!-- 0.50 -->
      <g transform="translate(173.9175 268.038437) scale(0.1 -0.1)">
       <use xlink:href="#DejaVuSans-30"/>
       <use xlink:href="#DejaVuSans-2e" x="63.623047"/>
       <use xlink:href="#DejaVuSans-35" x="95.410156"/>
       <use xlink:href="#DejaVuSans-30" x="159.033203"/>
      </g>
     </g>
    </g>
    <g id="xtick_4">
     <g id="line2d_4">
      <g>
       <use xlink:href="#mda4af334c0" x="226.900312" y="253.44" style="stroke: #000000; stroke-width: 0.8"/>
      </g>
     </g>
     <g id="text_4">
      <!-- 0.75 -->
      <g transform="translate(215.7675 268.038437) scale(0.1 -0.1)">
       <defs>
        <path id="DejaVuSans-37" d="M 525 4666 
L 3525 4666 
L 3525 4397 
L 1831 0 
L 1172 0 
L 2766 4134 
L 525 4134 
L 525 4666 
z
" transform="scale(0.015625)"/>
       </defs>
       <use xlink:href="#DejaVuSans-30"/>
       <use xlink:href="#DejaVuSans-2e" x="63.623047"/>
       <use xlink:href="#DejaVuSans-37" x="95.410156"/>
       <use xlink:href="#DejaVuSans-35" x="159.033203"/>
      </g>
     </g>
    </g>
    <g id="xtick_5">
     <g id="line2d_5">
      <g>
       <use xlink:href="#mda4af334c0" x="268.750312" y="253.44" style="stroke: #000000; stroke-width: 0.8"/>
      </g>
     </g>
     <g id="text_5">
      <!-- 1.00 -->
      <g transform="translate(257.6175 268.038437) scale(0.1 -0.1)">
       <defs>
        <path id="DejaVuSans-31" d="M 794 531 
L 1825 531 
L 1825 4091 
L 703 3866 
L 703 4441 
L 1819 4666 
L 2450 4666 
L 2450 531 
L 3481 531 
L 3481 0 
L 794 0 
L 794 531 
z
" transform="scale(0.015625)"/>
       </defs>
       <use xlink:href="#DejaVuSans-31"/>
       <use xlink:href="#DejaVuSans-2e" x="63.623047"/>
       <use xlink:href="#DejaVuSans-30" x="95.410156"/>
       <use xlink:href="#DejaVuSans-30" x="159.033203"/>
      </g>
     </g>
    </g>
    <g id="xtick_6">
     <g id="line2d_6">
      <g>
       <use xlink:href="#mda4af334c0" x="310.600312" y="253.44" style="stroke: #000000; stroke-width: 0.8"/>
      </g>
     </g>
     <g id="text_6">
      <!-- 1.25 -->
      <g transform="translate(299.4675 268.038437) scale(0.1 -0.1)">
       <use xlink:href="#DejaVuSans-31"/>
       <use xlink:href="#DejaVuSans-2e" x="63.623047"/>
       <use xlink:href="#DejaVuSans-32" x="95.410156"/>
       <use xlink:href="#DejaVuSans-35" x="159.033203"/>
      </g>
     </g>
    </g>
    <g id="xtick_7">
     <g id="line2d_7">
      <g>
       <use xlink:href="#mda4af334c0" x="352.450312" y="253.44" style="stroke: #000000; stroke-width: 0.8"/>
      </g>
     </g>
     <g id="text_7">
      <!-- 1.50 -->
      <g transform="translate(341.3175 268.038437) scale(0.1 -0.1)">
       <use xlink:href="#DejaVuSans-31"/>
       <use xlink:href="#DejaVuSans-2e" x="63.623047"/>
       <use xlink:href="#DejaVuSans-35" x="95.410156"/>
       <use xlink:href="#DejaVuSans-30" x="159.033203"/>
      </g>
     </g>
    </g>
    <g id="xtick_8">
     <g id="line2d_8">
      <g>
       <use xlink:href="#mda4af334c0" x="394.300312" y="253.44" style="stroke: #000000; stroke-width: 0.8"/>
      </g>
     </g>
     <g id="text_8">
      <!-- 1.75 -->
      <g transform="translate(383.1675 268.038437) scale(0.1 -0.1)">
       <use xlink:href="#DejaVuSans-31"/>
       <use xlink:href="#DejaVuSans-2e" x="63.623047"/>
       <use xlink:href="#DejaVuSans-37" x="95.410156"/>
       <use xlink:href="#DejaVuSans-35" x="159.033203"/>
      </g>
     </g>
    </g>
    <g id="xtick_9">
     <g id="line2d_9">
      <g>
       <use xlink:href="#mda4af334c0" x="436.150312" y="253.44" style="stroke: #000000; stroke-width: 0.8"/>
      </g>
     </g>
     <g id="text_9">
      <!-- 2.00 -->
      <g transform="translate(425.0175 268.038437) scale(0.1 -0.1)">
       <use xlink:href="#DejaVuSans-32"/>
       <use xlink:href="#DejaVuSans-2e" x="63.623047"/>
       <use xlink:href="#DejaVuSans-30" x="95.410156"/>
       <use xlink:href="#DejaVuSans-30" x="159.033203"/>
      </g>
     </g>
    </g>
    <g id="text_10">
     <!-- $t$ -->
     <g transform="translate(266.750312 281.716562) scale(0.1 -0.1)">
      <defs>
       <path id="DejaVuSans-Oblique-74" d="M 2706 3500 
L 2619 3053 
L 1472 3053 
L 1100 1153 
Q 1081 1047 1072 975 
Q 1063 903 1063 863 
Q 1063 663 1183 572 
Q 1303 481 1569 481 
L 2150 481 
L 2053 0 
L 1503 0 
Q 991 0 739 200 
Q 488 400 488 806 
Q 488 878 497 964 
Q 506 1050 525 1153 
L 897 3053 
L 409 3053 
L 500 3500 
L 978 3500 
L 1172 4494 
L 1747 4494 
L 1556 3500 
L 2706 3500 
z
" transform="scale(0.015625)"/>
      </defs>
      <use xlink:href="#DejaVuSans-Oblique-74" transform="translate(0 0.78125)"/>
     </g>
    </g>
   </g>
   <g id="matplotlib.axis_2">
    <g id="ytick_1">
     <g id="line2d_10">
      <defs>
       <path id="m5651693039" d="M 0 0 
L -3.5 0 
" style="stroke: #000000; stroke-width: 0.8"/>
      </defs>
      <g>
       <use xlink:href="#m5651693039" x="101.350312" y="243.556364" style="stroke: #000000; stroke-width: 0.8"/>
      </g>
     </g>
     <g id="text_11">
      <!-- 0.0 -->
      <g transform="translate(78.447187 247.355582) scale(0.1 -0.1)">
       <use xlink:href="#DejaVuSans-30"/>
       <use xlink:href="#DejaVuSans-2e" x="63.623047"/>
       <use xlink:href="#DejaVuSans-30" x="95.410156"/>
      </g>
     </g>
    </g>
    <g id="ytick_2">
     <g id="line2d_11">
      <g>
       <use xlink:href="#m5651693039" x="101.350312" y="205.730944" style="stroke: #000000; stroke-width: 0.8"/>
      </g>
     </g>
     <g id="text_12">
      <!-- 0.2 -->
      <g transform="translate(78.447187 209.530163) scale(0.1 -0.1)">
       <use xlink:href="#DejaVuSans-30"/>
       <use xlink:href="#DejaVuSans-2e" x="63.623047"/>
       <use xlink:href="#DejaVuSans-32" x="95.410156"/>
      </g>
     </g>
    </g>
    <g id="ytick_3">
     <g id="line2d_12">
      <g>
       <use xlink:href="#m5651693039" x="101.350312" y="167.905524" style="stroke: #000000; stroke-width: 0.8"/>
      </g>
     </g>
     <g id="text_13">
      <!-- 0.4 -->
      <g transform="translate(78.447187 171.704743) scale(0.1 -0.1)">
       <defs>
        <path id="DejaVuSans-34" d="M 2419 4116 
L 825 1625 
L 2419 1625 
L 2419 4116 
z
M 2253 4666 
L 3047 4666 
L 3047 1625 
L 3713 1625 
L 3713 1100 
L 3047 1100 
L 3047 0 
L 2419 0 
L 2419 1100 
L 313 1100 
L 313 1709 
L 2253 4666 
z
" transform="scale(0.015625)"/>
       </defs>
       <use xlink:href="#DejaVuSans-30"/>
       <use xlink:href="#DejaVuSans-2e" x="63.623047"/>
       <use xlink:href="#DejaVuSans-34" x="95.410156"/>
      </g>
     </g>
    </g>
    <g id="ytick_4">
     <g id="line2d_13">
      <g>
       <use xlink:href="#m5651693039" x="101.350312" y="130.080105" style="stroke: #000000; stroke-width: 0.8"/>
      </g>
     </g>
     <g id="text_14">
      <!-- 0.6 -->
      <g transform="translate(78.447187 133.879323) scale(0.1 -0.1)">
       <defs>
        <path id="DejaVuSans-36" d="M 2113 2584 
Q 1688 2584 1439 2293 
Q 1191 2003 1191 1497 
Q 1191 994 1439 701 
Q 1688 409 2113 409 
Q 2538 409 2786 701 
Q 3034 994 3034 1497 
Q 3034 2003 2786 2293 
Q 2538 2584 2113 2584 
z
M 3366 4563 
L 3366 3988 
Q 3128 4100 2886 4159 
Q 2644 4219 2406 4219 
Q 1781 4219 1451 3797 
Q 1122 3375 1075 2522 
Q 1259 2794 1537 2939 
Q 1816 3084 2150 3084 
Q 2853 3084 3261 2657 
Q 3669 2231 3669 1497 
Q 3669 778 3244 343 
Q 2819 -91 2113 -91 
Q 1303 -91 875 529 
Q 447 1150 447 2328 
Q 447 3434 972 4092 
Q 1497 4750 2381 4750 
Q 2619 4750 2861 4703 
Q 3103 4656 3366 4563 
z
" transform="scale(0.015625)"/>
       </defs>
       <use xlink:href="#DejaVuSans-30"/>
       <use xlink:href="#DejaVuSans-2e" x="63.623047"/>
       <use xlink:href="#DejaVuSans-36" x="95.410156"/>
      </g>
     </g>
    </g>
    <g id="ytick_5">
     <g id="line2d_14">
      <g>
       <use xlink:href="#m5651693039" x="101.350312" y="92.254685" style="stroke: #000000; stroke-width: 0.8"/>
      </g>
     </g>
     <g id="text_15">
      <!-- 0.8 -->
      <g transform="translate(78.447187 96.053904) scale(0.1 -0.1)">
       <defs>
        <path id="DejaVuSans-38" d="M 2034 2216 
Q 1584 2216 1326 1975 
Q 1069 1734 1069 1313 
Q 1069 891 1326 650 
Q 1584 409 2034 409 
Q 2484 409 2743 651 
Q 3003 894 3003 1313 
Q 3003 1734 2745 1975 
Q 2488 2216 2034 2216 
z
M 1403 2484 
Q 997 2584 770 2862 
Q 544 3141 544 3541 
Q 544 4100 942 4425 
Q 1341 4750 2034 4750 
Q 2731 4750 3128 4425 
Q 3525 4100 3525 3541 
Q 3525 3141 3298 2862 
Q 3072 2584 2669 2484 
Q 3125 2378 3379 2068 
Q 3634 1759 3634 1313 
Q 3634 634 3220 271 
Q 2806 -91 2034 -91 
Q 1263 -91 848 271 
Q 434 634 434 1313 
Q 434 1759 690 2068 
Q 947 2378 1403 2484 
z
M 1172 3481 
Q 1172 3119 1398 2916 
Q 1625 2713 2034 2713 
Q 2441 2713 2670 2916 
Q 2900 3119 2900 3481 
Q 2900 3844 2670 4047 
Q 2441 4250 2034 4250 
Q 1625 4250 1398 4047 
Q 1172 3844 1172 3481 
z
" transform="scale(0.015625)"/>
       </defs>
       <use xlink:href="#DejaVuSans-30"/>
       <use xlink:href="#DejaVuSans-2e" x="63.623047"/>
       <use xlink:href="#DejaVuSans-38" x="95.410156"/>
      </g>
     </g>
    </g>
    <g id="ytick_6">
     <g id="line2d_15">
      <g>
       <use xlink:href="#m5651693039" x="101.350312" y="54.429265" style="stroke: #000000; stroke-width: 0.8"/>
      </g>
     </g>
     <g id="text_16">
      <!-- 1.0 -->
      <g transform="translate(78.447187 58.228484) scale(0.1 -0.1)">
       <use xlink:href="#DejaVuSans-31"/>
       <use xlink:href="#DejaVuSans-2e" x="63.623047"/>
       <use xlink:href="#DejaVuSans-30" x="95.410156"/>
      </g>
     </g>
    </g>
   </g>
   <g id="line2d_16">
    <path d="M 101.517712 243.556364 
L 283.481513 243.556364 
L 283.648912 220.050474 
L 284.318512 227.799895 
L 284.988112 232.994487 
L 285.155512 210.493693 
L 285.322912 213.640022 
L 285.490312 203.469568 
L 285.992512 213.859335 
L 286.159913 193.179492 
L 286.829512 209.787736 
L 286.996913 213.001246 
L 287.164312 173.141629 
L 287.833912 196.355955 
L 288.001312 200.847668 
L 288.168712 181.406048 
L 288.336113 187.320433 
L 288.503512 179.654619 
L 288.838313 191.23804 
L 289.005712 172.710897 
L 289.340512 185.553002 
L 289.507912 184.82869 
L 289.675313 177.399996 
L 289.842713 160.189718 
L 290.512313 187.67403 
L 290.679712 154.055406 
L 291.181913 169.083549 
L 291.349312 152.664685 
L 291.516713 148.296802 
L 292.018912 172.986344 
L 292.186312 156.19608 
L 292.353712 163.419099 
L 292.521112 155.614527 
L 292.688513 155.388266 
L 292.855912 140.27268 
L 293.190713 158.994836 
L 293.358112 154.024559 
L 293.525512 139.038747 
L 293.860312 157.984577 
L 294.027713 159.883747 
L 294.195112 126.558747 
L 294.697312 155.807878 
L 294.864712 140.652361 
L 295.032112 137.427602 
L 295.199512 147.527089 
L 295.366913 148.070449 
L 295.534312 131.237975 
L 295.701712 128.909113 
L 296.036512 149.603259 
L 296.203913 135.03819 
L 296.371312 144.274648 
L 296.706113 117.003021 
L 297.040912 140.112238 
L 297.208312 136.938878 
L 297.375712 123.767423 
L 297.710512 137.967459 
L 297.877912 131.494519 
L 298.045313 118.793093 
L 298.380112 141.692714 
L 298.714912 117.276049 
L 299.049712 138.390474 
L 299.217112 123.802031 
L 299.384513 122.409035 
L 299.551912 131.775196 
L 299.719313 112.858632 
L 299.886712 122.882894 
L 300.054112 121.887139 
L 300.221512 133.465497 
L 300.388912 120.348264 
L 300.556312 128.859925 
L 300.723712 120.513303 
L 300.891112 106.587114 
L 301.225912 132.002809 
L 301.393312 127.250192 
L 301.560712 115.040541 
L 301.728112 119.935965 
L 301.895512 130.020749 
L 302.062912 104.301832 
L 302.397713 127.417149 
L 302.565112 108.947549 
L 302.732512 106.965211 
L 303.067312 128.644232 
L 303.234713 103.056308 
L 303.569512 123.28178 
L 303.736913 109.092136 
L 303.904312 105.429346 
L 304.071712 118.674435 
L 304.239112 107.590648 
L 304.406512 114.513678 
L 304.573913 111.275198 
L 304.741312 98.637949 
L 305.076113 124.303607 
L 305.243512 122.963445 
L 305.410912 102.276156 
L 305.578312 113.717762 
L 305.745712 113.594185 
L 305.913113 102.715476 
L 306.080512 115.25609 
L 306.247912 118.808142 
L 306.415313 92.817065 
L 306.750113 120.061952 
L 307.084912 97.317586 
L 307.419713 123.826179 
L 307.587112 98.949303 
L 307.754513 113.38887 
L 307.921912 115.399035 
L 308.089313 102.998517 
L 308.256712 103.807136 
L 308.424112 117.334277 
L 308.758913 95.946861 
L 308.926312 110.443905 
L 309.093713 98.514929 
L 309.261112 112.609801 
L 309.428513 107.485404 
L 309.595912 91.569851 
L 309.763312 106.221719 
L 309.930712 105.4113 
L 310.098112 92.612806 
L 310.432912 112.637749 
L 310.600312 88.54928 
L 310.935112 114.578682 
L 311.102512 88.175644 
L 311.269912 96.718013 
L 311.437312 111.457789 
L 311.604713 98.644085 
L 311.772112 96.172903 
L 312.106913 117.418001 
L 312.274312 90.743425 
L 312.609112 117.105733 
L 312.943913 96.591895 
L 313.111312 111.179541 
L 313.278712 98.205219 
L 313.446113 98.931965 
L 313.613512 103.70991 
L 313.780912 94.050187 
L 313.948312 95.519854 
L 314.115712 107.195578 
L 314.283113 95.429409 
L 314.450513 102.291644 
L 314.617912 103.064907 
L 314.785313 91.053293 
L 314.952712 103.639153 
L 315.120113 103.936666 
L 315.287512 87.884915 
L 315.454912 99.923243 
L 315.622313 100.998618 
L 315.789712 88.70792 
L 316.124512 111.840711 
L 316.291912 85.11284 
L 316.626712 112.452993 
L 316.794112 82.163265 
L 317.128912 107.013963 
L 317.296312 83.548542 
L 317.631112 104.281237 
L 317.798512 92.025675 
L 317.965912 92.526383 
L 318.133312 107.57863 
L 318.300712 88.703388 
L 318.468112 88.418774 
L 318.635513 103.63221 
L 318.802912 92.768134 
L 318.970312 92.380585 
L 319.137712 98.287777 
L 319.305112 88.60748 
L 319.472512 103.864936 
L 319.639912 101.773553 
L 319.807312 83.014875 
L 319.974713 98.063026 
L 320.142112 99.814926 
L 320.309512 86.745622 
L 320.476912 99.444764 
L 320.811712 85.61744 
L 320.979112 98.360456 
L 321.146512 72.150731 
L 321.481312 98.927085 
L 321.648712 86.834978 
L 321.816112 86.496596 
L 321.983512 94.967974 
L 322.150913 85.561187 
L 322.318312 85.427236 
L 322.485712 98.637702 
L 322.820512 81.071543 
L 322.987912 97.069975 
L 323.155312 85.602958 
L 323.322712 88.066984 
L 323.490113 93.242421 
L 323.657512 84.388313 
L 323.824912 84.920668 
L 323.992313 100.01685 
L 324.159712 81.442664 
L 324.327112 96.805784 
L 324.494512 95.528746 
L 324.661912 86.457065 
L 324.829313 99.171663 
L 324.996713 93.837342 
L 325.164112 81.13953 
L 325.331513 94.969876 
L 325.498912 96.604499 
L 325.666313 80.251881 
L 325.833712 92.856943 
L 326.001112 91.895117 
L 326.168512 83.522262 
L 326.335913 93.305119 
L 326.503312 67.930736 
L 326.838112 97.843196 
L 327.005513 81.961145 
L 327.172912 81.569467 
L 327.340312 95.347717 
L 327.507712 85.037572 
L 327.675112 87.205824 
L 327.842512 92.126377 
L 328.009912 83.379933 
L 328.177312 84.091073 
L 328.344713 99.656626 
L 328.512112 79.110124 
L 328.679512 81.050171 
L 328.846912 97.054154 
L 329.181713 77.753987 
L 329.349112 94.070185 
L 329.851312 67.174438 
L 330.018712 84.055935 
L 330.186112 86.641283 
L 330.353512 73.61222 
L 330.688312 85.787947 
L 330.855712 74.560793 
L 331.190512 95.476995 
L 331.357912 73.494928 
L 331.692712 100.5888 
L 331.860113 76.863019 
L 332.194912 99.809073 
L 332.362313 74.835782 
L 332.697113 95.59304 
L 332.864512 72.985934 
L 333.031912 86.968044 
L 333.366713 71.97457 
L 333.534112 85.603329 
L 333.701513 78.242435 
L 333.868912 78.029783 
L 334.036313 87.733661 
L 334.203712 76.582901 
L 334.371112 79.367283 
L 334.538513 92.413035 
L 334.705913 77.690928 
L 334.873312 76.109788 
L 335.040713 91.934094 
L 335.375513 77.473999 
L 335.542912 90.041264 
L 335.710312 79.613131 
L 335.877712 81.707857 
L 336.045113 67.897844 
L 336.212513 81.62468 
L 336.379913 80.68443 
L 336.547312 73.444114 
L 336.714713 80.490601 
L 336.882112 93.53998 
L 337.049512 70.467228 
L 337.384312 92.829764 
L 337.551713 69.065324 
L 337.886512 98.75312 
L 338.053912 72.06882 
L 338.221312 81.8784 
L 338.388712 73.817421 
L 338.556112 76.08377 
L 338.723512 86.736092 
L 338.890913 72.795097 
L 339.058312 75.556749 
L 339.225712 85.665323 
L 339.560512 73.154293 
L 339.727913 88.97921 
L 339.895312 75.507975 
L 340.062712 78.098587 
L 340.230113 87.883791 
L 340.397512 77.358119 
L 340.564912 76.641539 
L 340.732312 67.516762 
L 340.899712 78.643655 
L 341.067113 76.131681 
L 341.234512 68.95986 
L 341.401912 84.620317 
L 341.569313 78.274506 
L 341.736712 67.608116 
L 341.904112 84.56694 
L 342.071512 85.172522 
L 342.238912 67.85062 
L 342.406313 82.302798 
L 342.573712 84.923088 
L 342.741112 74.563604 
L 342.908513 82.024169 
L 343.075912 58.458311 
L 343.410712 89.859391 
L 343.578112 58.34425 
L 343.912913 89.080272 
L 344.080312 67.679106 
L 344.247713 74.5157 
L 344.415112 90.514172 
L 344.582513 65.704204 
L 344.749912 82.791932 
L 344.917312 87.795236 
L 345.084712 64.055221 
L 345.252112 81.336154 
L 345.586912 65.777185 
L 345.754312 80.603784 
L 345.921713 73.436712 
L 346.089112 73.608109 
L 346.256512 81.027325 
L 346.423912 71.681575 
L 346.591312 73.915468 
L 346.758713 87.94251 
L 346.926112 71.120401 
L 347.093512 73.083216 
L 347.260913 63.682084 
L 347.428312 78.650424 
L 347.595712 74.009649 
L 347.763112 65.694744 
L 348.097913 92.502958 
L 348.265312 65.468118 
L 348.600113 90.610317 
L 348.767512 68.54494 
L 349.102312 92.54905 
L 349.269712 67.08525 
L 349.437113 82.587753 
L 349.604512 67.755848 
L 349.771912 67.087828 
L 349.939313 82.56623 
L 350.274113 68.808833 
L 350.441512 82.748393 
L 350.776313 70.137209 
L 350.943713 81.387261 
L 351.111112 73.684523 
L 351.278513 75.126429 
L 351.445912 58.569233 
L 351.613313 74.59322 
L 351.780712 77.985085 
L 351.948112 68.226694 
L 352.115513 77.234916 
L 352.282913 75.236525 
L 352.450312 68.703084 
L 352.617713 82.198013 
L 352.952513 67.842731 
L 353.119912 83.995446 
L 353.287312 83.875445 
L 353.454712 65.849029 
L 353.622113 82.152426 
L 353.789513 58.826249 
L 354.124312 81.49759 
L 354.291713 60.733653 
L 354.626512 90.055776 
L 354.793912 60.796237 
L 355.128713 90.144783 
L 355.296112 66.127901 
L 355.463512 73.586651 
L 355.630913 65.588413 
L 355.798312 67.620951 
L 355.965712 84.026138 
L 356.133112 65.772609 
L 356.300512 69.242516 
L 356.467913 81.952954 
L 356.802712 67.780339 
L 356.970113 84.786177 
L 357.137512 72.799728 
L 357.304913 73.592006 
L 357.472312 60.243231 
L 357.639713 74.722116 
L 357.807112 74.407072 
L 357.974513 67.27193 
L 358.141912 77.199712 
L 358.309313 76.315409 
L 358.476712 67.081698 
L 358.644112 83.062436 
L 358.978912 65.820247 
L 359.146312 81.551083 
L 359.313712 60.044522 
L 359.481112 67.006905 
L 359.648512 82.134316 
L 359.815912 60.899523 
L 359.983312 78.228015 
L 360.150712 81.927068 
L 360.318112 60.084787 
L 360.652912 87.725063 
L 360.820312 60.272442 
L 360.987712 76.160333 
L 361.322512 60.683442 
L 361.489913 77.598395 
L 361.657312 68.935799 
L 361.824712 67.287837 
L 361.992112 77.31467 
L 362.159513 69.953733 
L 362.326912 69.450243 
L 362.494312 83.039962 
L 362.661712 68.822967 
L 362.829113 72.442341 
L 362.996512 60.77392 
L 363.163912 75.432004 
L 363.331312 72.000551 
L 363.498713 63.0074 
L 363.666112 76.877592 
L 363.833512 77.986401 
L 364.000912 64.225223 
L 364.168313 79.091748 
L 364.335712 78.514541 
L 364.503112 69.756138 
L 364.670512 77.823746 
L 364.837913 53.023085 
L 365.172712 84.076365 
L 365.340112 57.388141 
L 365.674912 86.228694 
L 365.842312 62.285894 
L 366.177113 86.300411 
L 366.344512 63.442657 
L 366.511912 78.343278 
L 366.679312 61.604887 
L 366.846712 65.581648 
L 367.014112 80.215525 
L 367.348912 65.235158 
L 367.516312 80.549199 
L 367.683712 57.926129 
L 367.851112 64.949496 
L 368.018512 79.899463 
L 368.185912 59.227314 
L 368.353312 75.849457 
L 368.520713 58.410903 
L 368.688112 60.675502 
L 368.855512 77.719148 
L 369.190313 62.505828 
L 369.357712 77.687662 
L 369.525112 70.489646 
L 369.692512 71.211215 
L 369.859913 77.712254 
L 370.027312 69.042717 
L 370.194712 72.422595 
L 370.362112 60.183133 
L 370.529513 70.915107 
L 370.696912 72.394296 
L 370.864312 61.297923 
L 371.031712 78.555691 
L 371.199113 74.281837 
L 371.366512 65.433036 
L 371.533912 77.206565 
L 371.701312 79.817698 
L 371.868713 65.939741 
L 372.036113 78.670143 
L 372.203512 56.474747 
L 372.538313 79.825676 
L 372.705713 55.370735 
L 373.040512 88.636644 
L 373.207913 58.570618 
L 373.542712 87.22904 
L 373.710112 57.872793 
L 373.877513 73.577054 
L 374.044913 65.369409 
L 374.212312 67.250179 
L 374.379712 75.684231 
L 374.547113 65.63929 
L 374.714512 68.386194 
L 374.881912 81.282717 
L 375.049312 64.497511 
L 375.216713 69.032038 
L 375.384112 81.890453 
L 375.718912 67.584851 
L 375.886313 60.885725 
L 376.053712 75.094808 
L 376.221113 76.470433 
L 376.388512 61.257675 
L 376.555912 74.382363 
L 376.723312 77.813004 
L 376.890713 65.903732 
L 377.058112 76.286341 
L 377.225512 76.539784 
L 377.392912 69.379225 
L 377.560313 82.249147 
L 377.727712 52.182264 
L 378.062512 83.956746 
L 378.229913 59.383484 
L 378.397312 69.432352 
L 378.564712 86.555314 
L 378.732112 61.922992 
L 379.066913 84.648681 
L 379.234312 63.065833 
L 379.401712 74.880742 
L 379.569113 61.489641 
L 379.736513 64.285966 
L 379.903912 77.655899 
L 380.238712 64.884849 
L 380.406113 81.414677 
L 380.573512 68.141302 
L 380.740912 71.706271 
L 380.908312 79.744725 
L 381.075713 66.523186 
L 381.243112 70.769432 
L 381.410512 64.098181 
L 381.577912 72.72931 
L 381.745313 70.654982 
L 381.912712 64.186629 
L 382.080112 79.782411 
L 382.414913 63.501073 
L 382.582312 80.248028 
L 382.749712 80.490959 
L 382.917112 62.029297 
L 383.084513 78.237028 
L 383.251912 57.966475 
L 383.586712 78.651038 
L 383.754113 58.591322 
L 384.088912 86.08979 
L 384.256312 58.450257 
L 384.591112 87.751991 
L 384.758512 57.510572 
L 384.925912 75.214021 
L 385.093312 62.520196 
L 385.260712 64.799861 
L 385.428112 75.103092 
L 385.595512 65.24232 
L 385.762912 67.485341 
L 385.930312 82.388131 
L 386.097713 67.399449 
L 386.265112 67.237598 
L 386.432512 80.934614 
L 386.934712 59.981224 
L 387.102112 73.377865 
L 387.269512 74.994716 
L 387.436913 60.165816 
L 387.604312 62.086425 
L 387.771712 78.173643 
L 387.939112 67.17024 
L 388.106513 63.884297 
L 388.273912 78.78207 
L 388.441312 67.312464 
L 388.608712 70.721865 
L 388.776113 57.144836 
L 388.943512 70.094486 
L 389.110912 71.517688 
L 389.278312 57.7462 
L 389.445713 72.808072 
L 389.613112 74.118832 
L 389.780512 64.446304 
L 389.947912 74.653512 
L 390.115313 49.716471 
L 390.450112 83.028503 
L 390.617512 50.761018 
L 390.952313 84.71289 
L 391.119712 61.910727 
L 391.287112 67.672054 
L 391.454513 84.464632 
L 391.621913 62.135522 
L 391.789312 73.903619 
L 391.956712 59.079834 
L 392.124113 63.901603 
L 392.291512 81.29165 
L 392.458912 65.815896 
L 392.626312 63.027985 
L 392.793713 80.562528 
L 392.961112 67.043399 
L 393.128512 68.902084 
L 393.295912 80.053497 
L 393.463312 69.820103 
L 393.630712 69.136885 
L 393.798113 54.729792 
L 393.965512 72.373985 
L 394.132912 71.295545 
L 394.300312 63.443443 
L 394.467713 72.588208 
L 394.635112 73.918577 
L 394.802512 62.562936 
L 394.969912 79.614839 
L 395.137313 49.531023 
L 395.472112 81.652903 
L 395.639512 59.859937 
L 395.806913 67.023451 
L 395.974312 81.728111 
L 396.141712 60.513091 
L 396.476513 80.304035 
L 396.643912 59.3804 
L 396.811312 75.377982 
L 397.146113 59.757951 
L 397.313513 77.728762 
L 397.480912 66.69033 
L 397.648312 63.954619 
L 397.815713 77.251025 
L 397.983113 67.134935 
L 398.150512 70.298869 
L 398.317912 77.383087 
L 398.485313 53.64501 
L 398.652713 71.059379 
L 398.987512 58.96006 
L 399.154913 72.205166 
L 399.322313 65.058842 
L 399.489712 65.1153 
L 399.657112 73.706967 
L 399.824513 65.484978 
L 399.991913 69.952815 
L 400.159312 57.042343 
L 400.326712 67.703595 
L 400.494113 69.871097 
L 400.661513 60.620644 
L 400.828913 74.595306 
L 400.996312 71.709413 
L 401.163713 63.134994 
L 401.331113 74.879673 
L 401.498512 71.099034 
L 401.665912 64.572154 
L 401.833312 75.802547 
L 402.000712 52.639509 
L 402.335512 82.381365 
L 402.502912 54.804649 
L 402.837712 81.845841 
L 403.005112 54.675408 
L 403.339912 87.81292 
L 403.507312 58.07449 
L 403.674712 72.183007 
L 403.842112 63.368746 
L 404.176912 72.894983 
L 404.344313 65.047316 
L 404.511712 67.84958 
L 404.679112 74.725064 
L 404.846512 65.038027 
L 405.013913 68.86792 
L 405.181312 58.056435 
L 405.516112 70.41365 
L 405.683513 62.638282 
L 405.850912 75.752237 
L 406.185712 62.368263 
L 406.353113 77.146965 
L 406.520512 76.070851 
L 406.687912 61.934223 
L 406.855312 75.470911 
L 407.022713 55.055074 
L 407.190112 69.831002 
L 407.357512 66.379433 
L 407.524912 56.768033 
L 407.692313 71.916496 
L 407.859713 74.236771 
L 408.027112 57.148016 
L 408.194512 74.702841 
L 408.361913 51.239488 
L 408.529313 59.448308 
L 408.696712 76.975869 
L 408.864112 53.891568 
L 409.198913 77.348439 
L 409.366312 55.982331 
L 409.701113 84.747438 
L 409.868512 56.046642 
L 410.035912 71.496702 
L 410.203312 60.787963 
L 410.370713 65.701322 
L 410.538112 74.21329 
L 410.705512 63.833129 
L 410.872912 65.112795 
L 411.040312 82.228975 
L 411.207712 63.631842 
L 411.375113 65.364586 
L 411.542512 82.103871 
L 411.709912 66.869826 
L 411.877312 63.55051 
L 412.044713 57.449481 
L 412.212112 75.811345 
L 412.546912 58.040861 
L 412.714313 76.156808 
L 412.881712 77.853064 
L 413.049112 58.824066 
L 413.216512 75.925942 
L 413.383913 53.995515 
L 413.718712 77.318242 
L 413.886112 55.863502 
L 414.220912 83.827231 
L 414.388312 55.935813 
L 414.723113 85.978902 
L 414.890512 62.575866 
L 415.057912 72.368356 
L 415.225312 61.223605 
L 415.392713 62.7535 
L 415.560113 72.745035 
L 415.727512 63.920793 
L 415.894912 66.604607 
L 416.062313 79.292595 
L 416.229713 51.992674 
L 416.397112 68.359755 
L 416.564512 57.315436 
L 416.731913 61.260268 
L 416.899313 69.444337 
L 417.066712 62.919027 
L 417.234112 62.356443 
L 417.401513 77.425038 
L 417.568913 63.693678 
L 417.736312 64.61999 
L 417.903712 79.135337 
L 418.405912 55.853176 
L 418.573312 70.820793 
L 418.740713 67.5914 
L 418.908112 59.047266 
L 419.075513 72.079996 
L 419.242912 74.290348 
L 419.410313 61.300554 
L 419.577712 74.719338 
L 419.745113 51.701829 
L 420.079913 76.467257 
L 420.247312 53.050899 
L 420.582112 85.382888 
L 420.749512 52.816784 
L 421.084313 86.776556 
L 421.251712 61.881318 
L 421.419112 69.696779 
L 421.586512 61.779006 
L 421.921312 70.552493 
L 422.088712 63.331006 
L 422.256112 66.256887 
L 422.423513 78.200502 
L 422.590913 63.142497 
L 422.758312 66.667006 
L 422.925712 59.40866 
L 423.093112 72.18671 
L 423.427912 60.298331 
L 423.595312 73.935057 
L 423.762712 75.833496 
L 423.930113 59.155742 
L 424.097512 74.724432 
L 424.264912 75.065669 
L 424.432312 67.612837 
L 424.599713 76.969225 
L 424.767112 50.605709 
L 424.934512 68.401246 
L 425.101912 71.660516 
L 425.269313 55.040221 
L 425.436712 69.594115 
L 425.604112 72.579188 
L 425.771512 56.794572 
L 425.938913 70.526498 
L 426.106313 73.875166 
L 426.273712 63.577752 
L 426.441112 73.720098 
L 426.608513 49.643107 
L 426.943312 81.591888 
L 427.110712 52.297485 
L 427.445512 81.473649 
L 427.612912 60.43401 
L 427.780312 69.042686 
L 427.947713 58.887745 
L 428.115112 62.663241 
L 428.282512 77.373277 
L 428.449912 62.59731 
L 428.617312 62.177688 
L 428.784712 80.45308 
L 428.952112 63.136327 
L 429.119512 64.011425 
L 429.286912 80.054341 
L 429.621713 63.342294 
L 429.789112 56.663924 
L 429.956512 72.761754 
L 430.123912 73.767917 
L 430.291313 57.620672 
L 430.458712 74.205943 
L 430.626112 73.838342 
L 430.793512 64.032227 
L 430.960913 73.808753 
L 431.128312 53.329615 
L 431.463112 82.312729 
L 431.630513 53.657272 
L 431.965312 82.726559 
L 432.132712 54.649821 
L 432.467512 83.48951 
L 432.634912 60.543527 
L 432.802312 70.425808 
L 432.969713 45.883636 
L 433.304512 80.379309 
L 433.471912 51.84391 
L 433.806713 81.923419 
L 433.974112 59.65359 
L 434.141512 65.001078 
L 434.308913 59.632619 
L 434.476313 61.956262 
L 434.643712 75.627522 
L 434.811112 59.791687 
L 434.978513 63.19066 
L 435.145913 78.541771 
L 435.313312 59.744152 
L 435.480712 63.690673 
L 435.648113 80.773189 
L 435.982912 63.765736 
L 436.150312 55.777111 
L 436.150312 55.777111 
" clip-path="url(#p533b939147)" style="fill: none; stroke: #1f77b4; stroke-width: 1.5; stroke-linecap: square"/>
   </g>
   <g id="line2d_17">
    <path d="M 101.517712 243.556364 
L 102.187312 237.321222 
L 102.856912 233.141682 
L 103.526512 230.340053 
L 104.196112 228.462064 
L 104.865712 227.203211 
L 105.535312 226.359376 
L 106.372312 225.684292 
L 107.376712 225.214768 
L 108.548512 224.927261 
L 110.389912 224.738058 
L 113.905312 224.655214 
L 132.486712 224.643654 
L 436.150312 224.643654 
L 436.150312 224.643654 
" clip-path="url(#p533b939147)" style="fill: none; stroke: #ff7f0e; stroke-width: 1.5; stroke-linecap: square"/>
   </g>
   <g id="patch_3">
    <path d="M 101.350312 253.44 
L 101.350312 36 
" style="fill: none; stroke: #000000; stroke-width: 0.8; stroke-linejoin: miter; stroke-linecap: square"/>
   </g>
   <g id="patch_4">
    <path d="M 436.150312 253.44 
L 436.150312 36 
" style="fill: none; stroke: #000000; stroke-width: 0.8; stroke-linejoin: miter; stroke-linecap: square"/>
   </g>
   <g id="patch_5">
    <path d="M 101.350312 253.44 
L 436.150312 253.44 
" style="fill: none; stroke: #000000; stroke-width: 0.8; stroke-linejoin: miter; stroke-linecap: square"/>
   </g>
   <g id="patch_6">
    <path d="M 101.350312 36 
L 436.150312 36 
" style="fill: none; stroke: #000000; stroke-width: 0.8; stroke-linejoin: miter; stroke-linecap: square"/>
   </g>
   <g id="legend_1">
    <g id="patch_7">
     <path d="M 108.350312 77.078125 
L 158.050312 77.078125 
Q 160.050312 77.078125 160.050312 75.078125 
L 160.050312 43 
Q 160.050312 41 158.050312 41 
L 108.350312 41 
Q 106.350312 41 106.350312 43 
L 106.350312 75.078125 
Q 106.350312 77.078125 108.350312 77.078125 
z
" style="fill: #ffffff; opacity: 0.8; stroke: #cccccc; stroke-linejoin: miter"/>
    </g>
    <g id="line2d_18">
     <path d="M 110.350312 52.8 
L 120.350312 52.8 
L 130.350312 52.8 
" style="fill: none; stroke: #1f77b4; stroke-width: 1.5; stroke-linecap: square"/>
    </g>
    <g id="text_17">
     <!-- $\hat{y(t)}$ -->
     <g transform="translate(138.350312 56.3) scale(0.1 -0.1)">
      <defs>
       <path id="DejaVuSans-302" d="M -1831 5119 
L -1369 5119 
L -603 3944 
L -1038 3944 
L -1600 4709 
L -2163 3944 
L -2597 3944 
L -1831 5119 
z
M -1600 3584 
L -1600 3584 
z
" transform="scale(0.015625)"/>
       <path id="DejaVuSans-Oblique-79" d="M 1588 -325 
Q 1188 -997 936 -1164 
Q 684 -1331 294 -1331 
L -159 -1331 
L -63 -850 
L 269 -850 
Q 509 -850 678 -719 
Q 847 -588 1056 -206 
L 1234 128 
L 459 3500 
L 1069 3500 
L 1650 819 
L 3256 3500 
L 3859 3500 
L 1588 -325 
z
" transform="scale(0.015625)"/>
       <path id="DejaVuSans-28" d="M 1984 4856 
Q 1566 4138 1362 3434 
Q 1159 2731 1159 2009 
Q 1159 1288 1364 580 
Q 1569 -128 1984 -844 
L 1484 -844 
Q 1016 -109 783 600 
Q 550 1309 550 2009 
Q 550 2706 781 3412 
Q 1013 4119 1484 4856 
L 1984 4856 
z
" transform="scale(0.015625)"/>
       <path id="DejaVuSans-29" d="M 513 4856 
L 1013 4856 
Q 1481 4119 1714 3412 
Q 1947 2706 1947 2009 
Q 1947 1309 1714 600 
Q 1481 -109 1013 -844 
L 513 -844 
Q 928 -128 1133 580 
Q 1338 1288 1338 2009 
Q 1338 2731 1133 3434 
Q 928 4138 513 4856 
z
" transform="scale(0.015625)"/>
      </defs>
      <use xlink:href="#DejaVuSans-302" transform="translate(135.682129 33.015625)"/>
      <use xlink:href="#DejaVuSans-Oblique-79" transform="translate(0 0.640625)"/>
      <use xlink:href="#DejaVuSans-28" transform="translate(59.179688 0.640625)"/>
      <use xlink:href="#DejaVuSans-Oblique-74" transform="translate(98.193359 0.640625)"/>
      <use xlink:href="#DejaVuSans-29" transform="translate(137.402344 0.640625)"/>
     </g>
    </g>
    <g id="line2d_19">
     <path d="M 110.350312 67.498437 
L 120.350312 67.498437 
L 130.350312 67.498437 
" style="fill: none; stroke: #ff7f0e; stroke-width: 1.5; stroke-linecap: square"/>
    </g>
    <g id="text_18">
     <!-- $x(t)$ -->
     <g transform="translate(138.350312 70.998437) scale(0.1 -0.1)">
      <defs>
       <path id="DejaVuSans-Oblique-78" d="M 3841 3500 
L 2234 1784 
L 3219 0 
L 2559 0 
L 1819 1388 
L 531 0 
L -166 0 
L 1556 1844 
L 641 3500 
L 1300 3500 
L 1972 2234 
L 3144 3500 
L 3841 3500 
z
" transform="scale(0.015625)"/>
      </defs>
      <use xlink:href="#DejaVuSans-Oblique-78" transform="translate(0 0.125)"/>
      <use xlink:href="#DejaVuSans-28" transform="translate(59.179688 0.125)"/>
      <use xlink:href="#DejaVuSans-Oblique-74" transform="translate(98.193359 0.125)"/>
      <use xlink:href="#DejaVuSans-29" transform="translate(137.402344 0.125)"/>
     </g>
    </g>
   </g>
  </g>
  <g id="text_19">
   <!-- Accumulate to Threshold model with input of 0.1 with rms=3 and Uniform intercepts  -->
   <g transform="translate(7.2 16.318125) scale(0.12 -0.12)">
    <defs>
     <path id="DejaVuSans-41" d="M 2188 4044 
L 1331 1722 
L 3047 1722 
L 2188 4044 
z
M 1831 4666 
L 2547 4666 
L 4325 0 
L 3669 0 
L 3244 1197 
L 1141 1197 
L 716 0 
L 50 0 
L 1831 4666 
z
" transform="scale(0.015625)"/>
     <path id="DejaVuSans-63" d="M 3122 3366 
L 3122 2828 
Q 2878 2963 2633 3030 
Q 2388 3097 2138 3097 
Q 1578 3097 1268 2742 
Q 959 2388 959 1747 
Q 959 1106 1268 751 
Q 1578 397 2138 397 
Q 2388 397 2633 464 
Q 2878 531 3122 666 
L 3122 134 
Q 2881 22 2623 -34 
Q 2366 -91 2075 -91 
Q 1284 -91 818 406 
Q 353 903 353 1747 
Q 353 2603 823 3093 
Q 1294 3584 2113 3584 
Q 2378 3584 2631 3529 
Q 2884 3475 3122 3366 
z
" transform="scale(0.015625)"/>
     <path id="DejaVuSans-75" d="M 544 1381 
L 544 3500 
L 1119 3500 
L 1119 1403 
Q 1119 906 1312 657 
Q 1506 409 1894 409 
Q 2359 409 2629 706 
Q 2900 1003 2900 1516 
L 2900 3500 
L 3475 3500 
L 3475 0 
L 2900 0 
L 2900 538 
Q 2691 219 2414 64 
Q 2138 -91 1772 -91 
Q 1169 -91 856 284 
Q 544 659 544 1381 
z
M 1991 3584 
L 1991 3584 
z
" transform="scale(0.015625)"/>
     <path id="DejaVuSans-6d" d="M 3328 2828 
Q 3544 3216 3844 3400 
Q 4144 3584 4550 3584 
Q 5097 3584 5394 3201 
Q 5691 2819 5691 2113 
L 5691 0 
L 5113 0 
L 5113 2094 
Q 5113 2597 4934 2840 
Q 4756 3084 4391 3084 
Q 3944 3084 3684 2787 
Q 3425 2491 3425 1978 
L 3425 0 
L 2847 0 
L 2847 2094 
Q 2847 2600 2669 2842 
Q 2491 3084 2119 3084 
Q 1678 3084 1418 2786 
Q 1159 2488 1159 1978 
L 1159 0 
L 581 0 
L 581 3500 
L 1159 3500 
L 1159 2956 
Q 1356 3278 1631 3431 
Q 1906 3584 2284 3584 
Q 2666 3584 2933 3390 
Q 3200 3197 3328 2828 
z
" transform="scale(0.015625)"/>
     <path id="DejaVuSans-6c" d="M 603 4863 
L 1178 4863 
L 1178 0 
L 603 0 
L 603 4863 
z
" transform="scale(0.015625)"/>
     <path id="DejaVuSans-61" d="M 2194 1759 
Q 1497 1759 1228 1600 
Q 959 1441 959 1056 
Q 959 750 1161 570 
Q 1363 391 1709 391 
Q 2188 391 2477 730 
Q 2766 1069 2766 1631 
L 2766 1759 
L 2194 1759 
z
M 3341 1997 
L 3341 0 
L 2766 0 
L 2766 531 
Q 2569 213 2275 61 
Q 1981 -91 1556 -91 
Q 1019 -91 701 211 
Q 384 513 384 1019 
Q 384 1609 779 1909 
Q 1175 2209 1959 2209 
L 2766 2209 
L 2766 2266 
Q 2766 2663 2505 2880 
Q 2244 3097 1772 3097 
Q 1472 3097 1187 3025 
Q 903 2953 641 2809 
L 641 3341 
Q 956 3463 1253 3523 
Q 1550 3584 1831 3584 
Q 2591 3584 2966 3190 
Q 3341 2797 3341 1997 
z
" transform="scale(0.015625)"/>
     <path id="DejaVuSans-74" d="M 1172 4494 
L 1172 3500 
L 2356 3500 
L 2356 3053 
L 1172 3053 
L 1172 1153 
Q 1172 725 1289 603 
Q 1406 481 1766 481 
L 2356 481 
L 2356 0 
L 1766 0 
Q 1100 0 847 248 
Q 594 497 594 1153 
L 594 3053 
L 172 3053 
L 172 3500 
L 594 3500 
L 594 4494 
L 1172 4494 
z
" transform="scale(0.015625)"/>
     <path id="DejaVuSans-65" d="M 3597 1894 
L 3597 1613 
L 953 1613 
Q 991 1019 1311 708 
Q 1631 397 2203 397 
Q 2534 397 2845 478 
Q 3156 559 3463 722 
L 3463 178 
Q 3153 47 2828 -22 
Q 2503 -91 2169 -91 
Q 1331 -91 842 396 
Q 353 884 353 1716 
Q 353 2575 817 3079 
Q 1281 3584 2069 3584 
Q 2775 3584 3186 3129 
Q 3597 2675 3597 1894 
z
M 3022 2063 
Q 3016 2534 2758 2815 
Q 2500 3097 2075 3097 
Q 1594 3097 1305 2825 
Q 1016 2553 972 2059 
L 3022 2063 
z
" transform="scale(0.015625)"/>
     <path id="DejaVuSans-20" transform="scale(0.015625)"/>
     <path id="DejaVuSans-6f" d="M 1959 3097 
Q 1497 3097 1228 2736 
Q 959 2375 959 1747 
Q 959 1119 1226 758 
Q 1494 397 1959 397 
Q 2419 397 2687 759 
Q 2956 1122 2956 1747 
Q 2956 2369 2687 2733 
Q 2419 3097 1959 3097 
z
M 1959 3584 
Q 2709 3584 3137 3096 
Q 3566 2609 3566 1747 
Q 3566 888 3137 398 
Q 2709 -91 1959 -91 
Q 1206 -91 779 398 
Q 353 888 353 1747 
Q 353 2609 779 3096 
Q 1206 3584 1959 3584 
z
" transform="scale(0.015625)"/>
     <path id="DejaVuSans-54" d="M -19 4666 
L 3928 4666 
L 3928 4134 
L 2272 4134 
L 2272 0 
L 1638 0 
L 1638 4134 
L -19 4134 
L -19 4666 
z
" transform="scale(0.015625)"/>
     <path id="DejaVuSans-68" d="M 3513 2113 
L 3513 0 
L 2938 0 
L 2938 2094 
Q 2938 2591 2744 2837 
Q 2550 3084 2163 3084 
Q 1697 3084 1428 2787 
Q 1159 2491 1159 1978 
L 1159 0 
L 581 0 
L 581 4863 
L 1159 4863 
L 1159 2956 
Q 1366 3272 1645 3428 
Q 1925 3584 2291 3584 
Q 2894 3584 3203 3211 
Q 3513 2838 3513 2113 
z
" transform="scale(0.015625)"/>
     <path id="DejaVuSans-72" d="M 2631 2963 
Q 2534 3019 2420 3045 
Q 2306 3072 2169 3072 
Q 1681 3072 1420 2755 
Q 1159 2438 1159 1844 
L 1159 0 
L 581 0 
L 581 3500 
L 1159 3500 
L 1159 2956 
Q 1341 3275 1631 3429 
Q 1922 3584 2338 3584 
Q 2397 3584 2469 3576 
Q 2541 3569 2628 3553 
L 2631 2963 
z
" transform="scale(0.015625)"/>
     <path id="DejaVuSans-73" d="M 2834 3397 
L 2834 2853 
Q 2591 2978 2328 3040 
Q 2066 3103 1784 3103 
Q 1356 3103 1142 2972 
Q 928 2841 928 2578 
Q 928 2378 1081 2264 
Q 1234 2150 1697 2047 
L 1894 2003 
Q 2506 1872 2764 1633 
Q 3022 1394 3022 966 
Q 3022 478 2636 193 
Q 2250 -91 1575 -91 
Q 1294 -91 989 -36 
Q 684 19 347 128 
L 347 722 
Q 666 556 975 473 
Q 1284 391 1588 391 
Q 1994 391 2212 530 
Q 2431 669 2431 922 
Q 2431 1156 2273 1281 
Q 2116 1406 1581 1522 
L 1381 1569 
Q 847 1681 609 1914 
Q 372 2147 372 2553 
Q 372 3047 722 3315 
Q 1072 3584 1716 3584 
Q 2034 3584 2315 3537 
Q 2597 3491 2834 3397 
z
" transform="scale(0.015625)"/>
     <path id="DejaVuSans-64" d="M 2906 2969 
L 2906 4863 
L 3481 4863 
L 3481 0 
L 2906 0 
L 2906 525 
Q 2725 213 2448 61 
Q 2172 -91 1784 -91 
Q 1150 -91 751 415 
Q 353 922 353 1747 
Q 353 2572 751 3078 
Q 1150 3584 1784 3584 
Q 2172 3584 2448 3432 
Q 2725 3281 2906 2969 
z
M 947 1747 
Q 947 1113 1208 752 
Q 1469 391 1925 391 
Q 2381 391 2643 752 
Q 2906 1113 2906 1747 
Q 2906 2381 2643 2742 
Q 2381 3103 1925 3103 
Q 1469 3103 1208 2742 
Q 947 2381 947 1747 
z
" transform="scale(0.015625)"/>
     <path id="DejaVuSans-77" d="M 269 3500 
L 844 3500 
L 1563 769 
L 2278 3500 
L 2956 3500 
L 3675 769 
L 4391 3500 
L 4966 3500 
L 4050 0 
L 3372 0 
L 2619 2869 
L 1863 0 
L 1184 0 
L 269 3500 
z
" transform="scale(0.015625)"/>
     <path id="DejaVuSans-69" d="M 603 3500 
L 1178 3500 
L 1178 0 
L 603 0 
L 603 3500 
z
M 603 4863 
L 1178 4863 
L 1178 4134 
L 603 4134 
L 603 4863 
z
" transform="scale(0.015625)"/>
     <path id="DejaVuSans-6e" d="M 3513 2113 
L 3513 0 
L 2938 0 
L 2938 2094 
Q 2938 2591 2744 2837 
Q 2550 3084 2163 3084 
Q 1697 3084 1428 2787 
Q 1159 2491 1159 1978 
L 1159 0 
L 581 0 
L 581 3500 
L 1159 3500 
L 1159 2956 
Q 1366 3272 1645 3428 
Q 1925 3584 2291 3584 
Q 2894 3584 3203 3211 
Q 3513 2838 3513 2113 
z
" transform="scale(0.015625)"/>
     <path id="DejaVuSans-70" d="M 1159 525 
L 1159 -1331 
L 581 -1331 
L 581 3500 
L 1159 3500 
L 1159 2969 
Q 1341 3281 1617 3432 
Q 1894 3584 2278 3584 
Q 2916 3584 3314 3078 
Q 3713 2572 3713 1747 
Q 3713 922 3314 415 
Q 2916 -91 2278 -91 
Q 1894 -91 1617 61 
Q 1341 213 1159 525 
z
M 3116 1747 
Q 3116 2381 2855 2742 
Q 2594 3103 2138 3103 
Q 1681 3103 1420 2742 
Q 1159 2381 1159 1747 
Q 1159 1113 1420 752 
Q 1681 391 2138 391 
Q 2594 391 2855 752 
Q 3116 1113 3116 1747 
z
" transform="scale(0.015625)"/>
     <path id="DejaVuSans-66" d="M 2375 4863 
L 2375 4384 
L 1825 4384 
Q 1516 4384 1395 4259 
Q 1275 4134 1275 3809 
L 1275 3500 
L 2222 3500 
L 2222 3053 
L 1275 3053 
L 1275 0 
L 697 0 
L 697 3053 
L 147 3053 
L 147 3500 
L 697 3500 
L 697 3744 
Q 697 4328 969 4595 
Q 1241 4863 1831 4863 
L 2375 4863 
z
" transform="scale(0.015625)"/>
     <path id="DejaVuSans-3d" d="M 678 2906 
L 4684 2906 
L 4684 2381 
L 678 2381 
L 678 2906 
z
M 678 1631 
L 4684 1631 
L 4684 1100 
L 678 1100 
L 678 1631 
z
" transform="scale(0.015625)"/>
     <path id="DejaVuSans-33" d="M 2597 2516 
Q 3050 2419 3304 2112 
Q 3559 1806 3559 1356 
Q 3559 666 3084 287 
Q 2609 -91 1734 -91 
Q 1441 -91 1130 -33 
Q 819 25 488 141 
L 488 750 
Q 750 597 1062 519 
Q 1375 441 1716 441 
Q 2309 441 2620 675 
Q 2931 909 2931 1356 
Q 2931 1769 2642 2001 
Q 2353 2234 1838 2234 
L 1294 2234 
L 1294 2753 
L 1863 2753 
Q 2328 2753 2575 2939 
Q 2822 3125 2822 3475 
Q 2822 3834 2567 4026 
Q 2313 4219 1838 4219 
Q 1578 4219 1281 4162 
Q 984 4106 628 3988 
L 628 4550 
Q 988 4650 1302 4700 
Q 1616 4750 1894 4750 
Q 2613 4750 3031 4423 
Q 3450 4097 3450 3541 
Q 3450 3153 3228 2886 
Q 3006 2619 2597 2516 
z
" transform="scale(0.015625)"/>
     <path id="DejaVuSans-55" d="M 556 4666 
L 1191 4666 
L 1191 1831 
Q 1191 1081 1462 751 
Q 1734 422 2344 422 
Q 2950 422 3222 751 
Q 3494 1081 3494 1831 
L 3494 4666 
L 4128 4666 
L 4128 1753 
Q 4128 841 3676 375 
Q 3225 -91 2344 -91 
Q 1459 -91 1007 375 
Q 556 841 556 1753 
L 556 4666 
z
" transform="scale(0.015625)"/>
    </defs>
    <use xlink:href="#DejaVuSans-41"/>
    <use xlink:href="#DejaVuSans-63" x="66.658203"/>
    <use xlink:href="#DejaVuSans-63" x="121.638672"/>
    <use xlink:href="#DejaVuSans-75" x="176.619141"/>
    <use xlink:href="#DejaVuSans-6d" x="239.998047"/>
    <use xlink:href="#DejaVuSans-75" x="337.410156"/>
    <use xlink:href="#DejaVuSans-6c" x="400.789062"/>
    <use xlink:href="#DejaVuSans-61" x="428.572266"/>
    <use xlink:href="#DejaVuSans-74" x="489.851562"/>
    <use xlink:href="#DejaVuSans-65" x="529.060547"/>
    <use xlink:href="#DejaVuSans-20" x="590.583984"/>
    <use xlink:href="#DejaVuSans-74" x="622.371094"/>
    <use xlink:href="#DejaVuSans-6f" x="661.580078"/>
    <use xlink:href="#DejaVuSans-20" x="722.761719"/>
    <use xlink:href="#DejaVuSans-54" x="754.548828"/>
    <use xlink:href="#DejaVuSans-68" x="815.632812"/>
    <use xlink:href="#DejaVuSans-72" x="879.011719"/>
    <use xlink:href="#DejaVuSans-65" x="917.875"/>
    <use xlink:href="#DejaVuSans-73" x="979.398438"/>
    <use xlink:href="#DejaVuSans-68" x="1031.498047"/>
    <use xlink:href="#DejaVuSans-6f" x="1094.876953"/>
    <use xlink:href="#DejaVuSans-6c" x="1156.058594"/>
    <use xlink:href="#DejaVuSans-64" x="1183.841797"/>
    <use xlink:href="#DejaVuSans-20" x="1247.318359"/>
    <use xlink:href="#DejaVuSans-6d" x="1279.105469"/>
    <use xlink:href="#DejaVuSans-6f" x="1376.517578"/>
    <use xlink:href="#DejaVuSans-64" x="1437.699219"/>
    <use xlink:href="#DejaVuSans-65" x="1501.175781"/>
    <use xlink:href="#DejaVuSans-6c" x="1562.699219"/>
    <use xlink:href="#DejaVuSans-20" x="1590.482422"/>
    <use xlink:href="#DejaVuSans-77" x="1622.269531"/>
    <use xlink:href="#DejaVuSans-69" x="1704.056641"/>
    <use xlink:href="#DejaVuSans-74" x="1731.839844"/>
    <use xlink:href="#DejaVuSans-68" x="1771.048828"/>
    <use xlink:href="#DejaVuSans-20" x="1834.427734"/>
    <use xlink:href="#DejaVuSans-69" x="1866.214844"/>
    <use xlink:href="#DejaVuSans-6e" x="1893.998047"/>
    <use xlink:href="#DejaVuSans-70" x="1957.376953"/>
    <use xlink:href="#DejaVuSans-75" x="2020.853516"/>
    <use xlink:href="#DejaVuSans-74" x="2084.232422"/>
    <use xlink:href="#DejaVuSans-20" x="2123.441406"/>
    <use xlink:href="#DejaVuSans-6f" x="2155.228516"/>
    <use xlink:href="#DejaVuSans-66" x="2216.410156"/>
    <use xlink:href="#DejaVuSans-20" x="2251.615234"/>
    <use xlink:href="#DejaVuSans-30" x="2283.402344"/>
    <use xlink:href="#DejaVuSans-2e" x="2347.025391"/>
    <use xlink:href="#DejaVuSans-31" x="2378.8125"/>
    <use xlink:href="#DejaVuSans-20" x="2442.435547"/>
    <use xlink:href="#DejaVuSans-77" x="2474.222656"/>
    <use xlink:href="#DejaVuSans-69" x="2556.009766"/>
    <use xlink:href="#DejaVuSans-74" x="2583.792969"/>
    <use xlink:href="#DejaVuSans-68" x="2623.001953"/>
    <use xlink:href="#DejaVuSans-20" x="2686.380859"/>
    <use xlink:href="#DejaVuSans-72" x="2718.167969"/>
    <use xlink:href="#DejaVuSans-6d" x="2757.53125"/>
    <use xlink:href="#DejaVuSans-73" x="2854.943359"/>
    <use xlink:href="#DejaVuSans-3d" x="2907.042969"/>
    <use xlink:href="#DejaVuSans-33" x="2990.832031"/>
    <use xlink:href="#DejaVuSans-20" x="3054.455078"/>
    <use xlink:href="#DejaVuSans-61" x="3086.242188"/>
    <use xlink:href="#DejaVuSans-6e" x="3147.521484"/>
    <use xlink:href="#DejaVuSans-64" x="3210.900391"/>
    <use xlink:href="#DejaVuSans-20" x="3274.376953"/>
    <use xlink:href="#DejaVuSans-55" x="3306.164062"/>
    <use xlink:href="#DejaVuSans-6e" x="3379.357422"/>
    <use xlink:href="#DejaVuSans-69" x="3442.736328"/>
    <use xlink:href="#DejaVuSans-66" x="3470.519531"/>
    <use xlink:href="#DejaVuSans-6f" x="3505.724609"/>
    <use xlink:href="#DejaVuSans-72" x="3566.90625"/>
    <use xlink:href="#DejaVuSans-6d" x="3606.269531"/>
    <use xlink:href="#DejaVuSans-20" x="3703.681641"/>
    <use xlink:href="#DejaVuSans-69" x="3735.46875"/>
    <use xlink:href="#DejaVuSans-6e" x="3763.251953"/>
    <use xlink:href="#DejaVuSans-74" x="3826.630859"/>
    <use xlink:href="#DejaVuSans-65" x="3865.839844"/>
    <use xlink:href="#DejaVuSans-72" x="3927.363281"/>
    <use xlink:href="#DejaVuSans-63" x="3966.226562"/>
    <use xlink:href="#DejaVuSans-65" x="4021.207031"/>
    <use xlink:href="#DejaVuSans-70" x="4082.730469"/>
    <use xlink:href="#DejaVuSans-74" x="4146.207031"/>
    <use xlink:href="#DejaVuSans-73" x="4185.416016"/>
    <use xlink:href="#DejaVuSans-20" x="4237.515625"/>
   </g>
  </g>
 </g>
 <defs>
  <clipPath id="p533b939147">
   <rect x="101.350312" y="36" width="334.8" height="217.44"/>
  </clipPath>
 </defs>
</svg>
