<?xml version="1.0" encoding="utf-8" standalone="no"?>
<!DOCTYPE svg PUBLIC "-//W3C//DTD SVG 1.1//EN"
  "http://www.w3.org/Graphics/SVG/1.1/DTD/svg11.dtd">
<svg xmlns:xlink="http://www.w3.org/1999/xlink" width="398.833437pt" height="290.99625pt" viewBox="0 0 398.833437 290.99625" xmlns="http://www.w3.org/2000/svg" version="1.1">
 <metadata>
  <rdf:RDF xmlns:dc="http://purl.org/dc/elements/1.1/" xmlns:cc="http://creativecommons.org/ns#" xmlns:rdf="http://www.w3.org/1999/02/22-rdf-syntax-ns#">
   <cc:Work>
    <dc:type rdf:resource="http://purl.org/dc/dcmitype/StillImage"/>
    <dc:date>2022-11-19T22:55:08.642700</dc:date>
    <dc:format>image/svg+xml</dc:format>
    <dc:creator>
     <cc:Agent>
      <dc:title>Matplotlib v3.6.0, https://matplotlib.org/</dc:title>
     </cc:Agent>
    </dc:creator>
   </cc:Work>
  </rdf:RDF>
 </metadata>
 <defs>
  <style type="text/css">*{stroke-linejoin: round; stroke-linecap: butt}</style>
 </defs>
 <g id="figure_1">
  <g id="patch_1">
   <path d="M -0 290.99625 
L 398.833437 290.99625 
L 398.833437 0 
L -0 0 
L -0 290.99625 
z
" style="fill: none"/>
  </g>
  <g id="axes_1">
   <g id="patch_2">
    <path d="M 38.482813 253.44 
L 373.282813 253.44 
L 373.282813 36 
L 38.482813 36 
z
" style="fill: #ffffff"/>
   </g>
   <g id="matplotlib.axis_1">
    <g id="xtick_1">
     <g id="line2d_1">
      <defs>
       <path id="m4ba9f47731" d="M 0 0 
L 0 3.5 
" style="stroke: #000000; stroke-width: 0.8"/>
      </defs>
      <g>
       <use xlink:href="#m4ba9f47731" x="38.482813" y="253.44" style="stroke: #000000; stroke-width: 0.8"/>
      </g>
     </g>
     <g id="text_1">
      <!-- 0.00 -->
      <g transform="translate(27.35 268.038437) scale(0.1 -0.1)">
       <defs>
        <path id="DejaVuSans-30" d="M 2034 4250 
Q 1547 4250 1301 3770 
Q 1056 3291 1056 2328 
Q 1056 1369 1301 889 
Q 1547 409 2034 409 
Q 2525 409 2770 889 
Q 3016 1369 3016 2328 
Q 3016 3291 2770 3770 
Q 2525 4250 2034 4250 
z
M 2034 4750 
Q 2819 4750 3233 4129 
Q 3647 3509 3647 2328 
Q 3647 1150 3233 529 
Q 2819 -91 2034 -91 
Q 1250 -91 836 529 
Q 422 1150 422 2328 
Q 422 3509 836 4129 
Q 1250 4750 2034 4750 
z
" transform="scale(0.015625)"/>
        <path id="DejaVuSans-2e" d="M 684 794 
L 1344 794 
L 1344 0 
L 684 0 
L 684 794 
z
" transform="scale(0.015625)"/>
       </defs>
       <use xlink:href="#DejaVuSans-30"/>
       <use xlink:href="#DejaVuSans-2e" x="63.623047"/>
       <use xlink:href="#DejaVuSans-30" x="95.410156"/>
       <use xlink:href="#DejaVuSans-30" x="159.033203"/>
      </g>
     </g>
    </g>
    <g id="xtick_2">
     <g id="line2d_2">
      <g>
       <use xlink:href="#m4ba9f47731" x="80.332813" y="253.44" style="stroke: #000000; stroke-width: 0.8"/>
      </g>
     </g>
     <g id="text_2">
      <!-- 0.25 -->
      <g transform="translate(69.2 268.038437) scale(0.1 -0.1)">
       <defs>
        <path id="DejaVuSans-32" d="M 1228 531 
L 3431 531 
L 3431 0 
L 469 0 
L 469 531 
Q 828 903 1448 1529 
Q 2069 2156 2228 2338 
Q 2531 2678 2651 2914 
Q 2772 3150 2772 3378 
Q 2772 3750 2511 3984 
Q 2250 4219 1831 4219 
Q 1534 4219 1204 4116 
Q 875 4013 500 3803 
L 500 4441 
Q 881 4594 1212 4672 
Q 1544 4750 1819 4750 
Q 2544 4750 2975 4387 
Q 3406 4025 3406 3419 
Q 3406 3131 3298 2873 
Q 3191 2616 2906 2266 
Q 2828 2175 2409 1742 
Q 1991 1309 1228 531 
z
" transform="scale(0.015625)"/>
        <path id="DejaVuSans-35" d="M 691 4666 
L 3169 4666 
L 3169 4134 
L 1269 4134 
L 1269 2991 
Q 1406 3038 1543 3061 
Q 1681 3084 1819 3084 
Q 2600 3084 3056 2656 
Q 3513 2228 3513 1497 
Q 3513 744 3044 326 
Q 2575 -91 1722 -91 
Q 1428 -91 1123 -41 
Q 819 9 494 109 
L 494 744 
Q 775 591 1075 516 
Q 1375 441 1709 441 
Q 2250 441 2565 725 
Q 2881 1009 2881 1497 
Q 2881 1984 2565 2268 
Q 2250 2553 1709 2553 
Q 1456 2553 1204 2497 
Q 953 2441 691 2322 
L 691 4666 
z
" transform="scale(0.015625)"/>
       </defs>
       <use xlink:href="#DejaVuSans-30"/>
       <use xlink:href="#DejaVuSans-2e" x="63.623047"/>
       <use xlink:href="#DejaVuSans-32" x="95.410156"/>
       <use xlink:href="#DejaVuSans-35" x="159.033203"/>
      </g>
     </g>
    </g>
    <g id="xtick_3">
     <g id="line2d_3">
      <g>
       <use xlink:href="#m4ba9f47731" x="122.182813" y="253.44" style="stroke: #000000; stroke-width: 0.8"/>
      </g>
     </g>
     <g id="text_3">
      <!-- 0.50 -->
      <g transform="translate(111.05 268.038437) scale(0.1 -0.1)">
       <use xlink:href="#DejaVuSans-30"/>
       <use xlink:href="#DejaVuSans-2e" x="63.623047"/>
       <use xlink:href="#DejaVuSans-35" x="95.410156"/>
       <use xlink:href="#DejaVuSans-30" x="159.033203"/>
      </g>
     </g>
    </g>
    <g id="xtick_4">
     <g id="line2d_4">
      <g>
       <use xlink:href="#m4ba9f47731" x="164.032813" y="253.44" style="stroke: #000000; stroke-width: 0.8"/>
      </g>
     </g>
     <g id="text_4">
      <!-- 0.75 -->
      <g transform="translate(152.9 268.038437) scale(0.1 -0.1)">
       <defs>
        <path id="DejaVuSans-37" d="M 525 4666 
L 3525 4666 
L 3525 4397 
L 1831 0 
L 1172 0 
L 2766 4134 
L 525 4134 
L 525 4666 
z
" transform="scale(0.015625)"/>
       </defs>
       <use xlink:href="#DejaVuSans-30"/>
       <use xlink:href="#DejaVuSans-2e" x="63.623047"/>
       <use xlink:href="#DejaVuSans-37" x="95.410156"/>
       <use xlink:href="#DejaVuSans-35" x="159.033203"/>
      </g>
     </g>
    </g>
    <g id="xtick_5">
     <g id="line2d_5">
      <g>
       <use xlink:href="#m4ba9f47731" x="205.882812" y="253.44" style="stroke: #000000; stroke-width: 0.8"/>
      </g>
     </g>
     <g id="text_5">
      <!-- 1.00 -->
      <g transform="translate(194.75 268.038437) scale(0.1 -0.1)">
       <defs>
        <path id="DejaVuSans-31" d="M 794 531 
L 1825 531 
L 1825 4091 
L 703 3866 
L 703 4441 
L 1819 4666 
L 2450 4666 
L 2450 531 
L 3481 531 
L 3481 0 
L 794 0 
L 794 531 
z
" transform="scale(0.015625)"/>
       </defs>
       <use xlink:href="#DejaVuSans-31"/>
       <use xlink:href="#DejaVuSans-2e" x="63.623047"/>
       <use xlink:href="#DejaVuSans-30" x="95.410156"/>
       <use xlink:href="#DejaVuSans-30" x="159.033203"/>
      </g>
     </g>
    </g>
    <g id="xtick_6">
     <g id="line2d_6">
      <g>
       <use xlink:href="#m4ba9f47731" x="247.732812" y="253.44" style="stroke: #000000; stroke-width: 0.8"/>
      </g>
     </g>
     <g id="text_6">
      <!-- 1.25 -->
      <g transform="translate(236.6 268.038437) scale(0.1 -0.1)">
       <use xlink:href="#DejaVuSans-31"/>
       <use xlink:href="#DejaVuSans-2e" x="63.623047"/>
       <use xlink:href="#DejaVuSans-32" x="95.410156"/>
       <use xlink:href="#DejaVuSans-35" x="159.033203"/>
      </g>
     </g>
    </g>
    <g id="xtick_7">
     <g id="line2d_7">
      <g>
       <use xlink:href="#m4ba9f47731" x="289.582813" y="253.44" style="stroke: #000000; stroke-width: 0.8"/>
      </g>
     </g>
     <g id="text_7">
      <!-- 1.50 -->
      <g transform="translate(278.45 268.038437) scale(0.1 -0.1)">
       <use xlink:href="#DejaVuSans-31"/>
       <use xlink:href="#DejaVuSans-2e" x="63.623047"/>
       <use xlink:href="#DejaVuSans-35" x="95.410156"/>
       <use xlink:href="#DejaVuSans-30" x="159.033203"/>
      </g>
     </g>
    </g>
    <g id="xtick_8">
     <g id="line2d_8">
      <g>
       <use xlink:href="#m4ba9f47731" x="331.432813" y="253.44" style="stroke: #000000; stroke-width: 0.8"/>
      </g>
     </g>
     <g id="text_8">
      <!-- 1.75 -->
      <g transform="translate(320.3 268.038437) scale(0.1 -0.1)">
       <use xlink:href="#DejaVuSans-31"/>
       <use xlink:href="#DejaVuSans-2e" x="63.623047"/>
       <use xlink:href="#DejaVuSans-37" x="95.410156"/>
       <use xlink:href="#DejaVuSans-35" x="159.033203"/>
      </g>
     </g>
    </g>
    <g id="xtick_9">
     <g id="line2d_9">
      <g>
       <use xlink:href="#m4ba9f47731" x="373.282813" y="253.44" style="stroke: #000000; stroke-width: 0.8"/>
      </g>
     </g>
     <g id="text_9">
      <!-- 2.00 -->
      <g transform="translate(362.15 268.038437) scale(0.1 -0.1)">
       <use xlink:href="#DejaVuSans-32"/>
       <use xlink:href="#DejaVuSans-2e" x="63.623047"/>
       <use xlink:href="#DejaVuSans-30" x="95.410156"/>
       <use xlink:href="#DejaVuSans-30" x="159.033203"/>
      </g>
     </g>
    </g>
    <g id="text_10">
     <!-- $t$ -->
     <g transform="translate(203.882812 281.716562) scale(0.1 -0.1)">
      <defs>
       <path id="DejaVuSans-Oblique-74" d="M 2706 3500 
L 2619 3053 
L 1472 3053 
L 1100 1153 
Q 1081 1047 1072 975 
Q 1063 903 1063 863 
Q 1063 663 1183 572 
Q 1303 481 1569 481 
L 2150 481 
L 2053 0 
L 1503 0 
Q 991 0 739 200 
Q 488 400 488 806 
Q 488 878 497 964 
Q 506 1050 525 1153 
L 897 3053 
L 409 3053 
L 500 3500 
L 978 3500 
L 1172 4494 
L 1747 4494 
L 1556 3500 
L 2706 3500 
z
" transform="scale(0.015625)"/>
      </defs>
      <use xlink:href="#DejaVuSans-Oblique-74" transform="translate(0 0.78125)"/>
     </g>
    </g>
   </g>
   <g id="matplotlib.axis_2">
    <g id="ytick_1">
     <g id="line2d_10">
      <defs>
       <path id="m0033c558d5" d="M 0 0 
L -3.5 0 
" style="stroke: #000000; stroke-width: 0.8"/>
      </defs>
      <g>
       <use xlink:href="#m0033c558d5" x="38.482813" y="251.024445" style="stroke: #000000; stroke-width: 0.8"/>
      </g>
     </g>
     <g id="text_11">
      <!-- −0.4 -->
      <g transform="translate(7.2 254.823664) scale(0.1 -0.1)">
       <defs>
        <path id="DejaVuSans-2212" d="M 678 2272 
L 4684 2272 
L 4684 1741 
L 678 1741 
L 678 2272 
z
" transform="scale(0.015625)"/>
        <path id="DejaVuSans-34" d="M 2419 4116 
L 825 1625 
L 2419 1625 
L 2419 4116 
z
M 2253 4666 
L 3047 4666 
L 3047 1625 
L 3713 1625 
L 3713 1100 
L 3047 1100 
L 3047 0 
L 2419 0 
L 2419 1100 
L 313 1100 
L 313 1709 
L 2253 4666 
z
" transform="scale(0.015625)"/>
       </defs>
       <use xlink:href="#DejaVuSans-2212"/>
       <use xlink:href="#DejaVuSans-30" x="83.789062"/>
       <use xlink:href="#DejaVuSans-2e" x="147.412109"/>
       <use xlink:href="#DejaVuSans-34" x="179.199219"/>
      </g>
     </g>
    </g>
    <g id="ytick_2">
     <g id="line2d_11">
      <g>
       <use xlink:href="#m0033c558d5" x="38.482813" y="206.594536" style="stroke: #000000; stroke-width: 0.8"/>
      </g>
     </g>
     <g id="text_12">
      <!-- −0.3 -->
      <g transform="translate(7.2 210.393755) scale(0.1 -0.1)">
       <defs>
        <path id="DejaVuSans-33" d="M 2597 2516 
Q 3050 2419 3304 2112 
Q 3559 1806 3559 1356 
Q 3559 666 3084 287 
Q 2609 -91 1734 -91 
Q 1441 -91 1130 -33 
Q 819 25 488 141 
L 488 750 
Q 750 597 1062 519 
Q 1375 441 1716 441 
Q 2309 441 2620 675 
Q 2931 909 2931 1356 
Q 2931 1769 2642 2001 
Q 2353 2234 1838 2234 
L 1294 2234 
L 1294 2753 
L 1863 2753 
Q 2328 2753 2575 2939 
Q 2822 3125 2822 3475 
Q 2822 3834 2567 4026 
Q 2313 4219 1838 4219 
Q 1578 4219 1281 4162 
Q 984 4106 628 3988 
L 628 4550 
Q 988 4650 1302 4700 
Q 1616 4750 1894 4750 
Q 2613 4750 3031 4423 
Q 3450 4097 3450 3541 
Q 3450 3153 3228 2886 
Q 3006 2619 2597 2516 
z
" transform="scale(0.015625)"/>
       </defs>
       <use xlink:href="#DejaVuSans-2212"/>
       <use xlink:href="#DejaVuSans-30" x="83.789062"/>
       <use xlink:href="#DejaVuSans-2e" x="147.412109"/>
       <use xlink:href="#DejaVuSans-33" x="179.199219"/>
      </g>
     </g>
    </g>
    <g id="ytick_3">
     <g id="line2d_12">
      <g>
       <use xlink:href="#m0033c558d5" x="38.482813" y="162.164627" style="stroke: #000000; stroke-width: 0.8"/>
      </g>
     </g>
     <g id="text_13">
      <!-- −0.2 -->
      <g transform="translate(7.2 165.963846) scale(0.1 -0.1)">
       <use xlink:href="#DejaVuSans-2212"/>
       <use xlink:href="#DejaVuSans-30" x="83.789062"/>
       <use xlink:href="#DejaVuSans-2e" x="147.412109"/>
       <use xlink:href="#DejaVuSans-32" x="179.199219"/>
      </g>
     </g>
    </g>
    <g id="ytick_4">
     <g id="line2d_13">
      <g>
       <use xlink:href="#m0033c558d5" x="38.482813" y="117.734718" style="stroke: #000000; stroke-width: 0.8"/>
      </g>
     </g>
     <g id="text_14">
      <!-- −0.1 -->
      <g transform="translate(7.2 121.533937) scale(0.1 -0.1)">
       <use xlink:href="#DejaVuSans-2212"/>
       <use xlink:href="#DejaVuSans-30" x="83.789062"/>
       <use xlink:href="#DejaVuSans-2e" x="147.412109"/>
       <use xlink:href="#DejaVuSans-31" x="179.199219"/>
      </g>
     </g>
    </g>
    <g id="ytick_5">
     <g id="line2d_14">
      <g>
       <use xlink:href="#m0033c558d5" x="38.482813" y="73.304809" style="stroke: #000000; stroke-width: 0.8"/>
      </g>
     </g>
     <g id="text_15">
      <!-- 0.0 -->
      <g transform="translate(15.579688 77.104028) scale(0.1 -0.1)">
       <use xlink:href="#DejaVuSans-30"/>
       <use xlink:href="#DejaVuSans-2e" x="63.623047"/>
       <use xlink:href="#DejaVuSans-30" x="95.410156"/>
      </g>
     </g>
    </g>
   </g>
   <g id="line2d_15">
    <path d="M 38.650213 73.304809 
L 38.985013 45.883636 
L 39.152413 69.096443 
L 39.319813 69.496922 
L 39.487212 74.300379 
L 39.654612 67.744307 
L 39.822012 72.2435 
L 39.989413 71.355932 
L 40.156813 63.564355 
L 40.324213 64.491282 
L 40.491613 77.882074 
L 40.659013 72.510185 
L 40.826413 56.239072 
L 40.993813 57.534584 
L 41.161213 62.836684 
L 41.328612 89.100579 
L 41.496012 86.085287 
L 41.663412 69.791291 
L 41.830813 73.636878 
L 41.998213 73.699416 
L 42.165613 75.344951 
L 42.333013 68.295891 
L 42.500413 70.118786 
L 42.667813 69.140716 
L 42.835213 76.286308 
L 43.002612 98.449722 
L 43.170012 82.965887 
L 43.337412 82.140652 
L 43.672213 66.269312 
L 43.839613 72.959079 
L 44.007013 71.717128 
L 44.174413 89.61622 
L 44.509213 76.349806 
L 44.676613 52.681689 
L 45.011412 85.301622 
L 45.178812 85.527122 
L 45.346213 78.641889 
L 45.513613 88.017636 
L 45.848413 64.485587 
L 46.183213 74.621469 
L 46.350613 73.117946 
L 46.685412 101.346584 
L 47.020212 87.349623 
L 47.187613 92.684187 
L 47.355013 75.101396 
L 47.522413 83.65997 
L 47.689813 77.63777 
L 47.857213 78.743692 
L 48.024613 80.620819 
L 48.526813 96.608188 
L 48.694212 88.130427 
L 48.861612 91.562644 
L 49.029013 90.820192 
L 49.196413 77.822182 
L 49.531213 89.0245 
L 49.698613 107.670389 
L 49.866013 78.414448 
L 50.033413 75.791071 
L 50.200813 89.700923 
L 50.368213 92.347538 
L 50.535612 85.222618 
L 50.703012 94.255765 
L 50.870413 97.261994 
L 51.037813 106.764325 
L 51.372613 79.591539 
L 51.540013 80.027873 
L 51.707413 93.554557 
L 51.874813 93.261233 
L 52.042213 107.297726 
L 52.209613 88.9851 
L 52.377013 111.866657 
L 52.544413 93.360944 
L 52.711813 92.486946 
L 52.879213 94.510707 
L 53.046613 110.997734 
L 53.214013 92.470197 
L 53.716212 116.646683 
L 54.051012 90.423331 
L 54.218412 111.729525 
L 54.385813 106.716354 
L 54.553213 83.921102 
L 54.888013 120.553368 
L 55.055413 105.058455 
L 55.222813 112.776715 
L 55.390213 89.264261 
L 55.557613 108.603233 
L 55.725013 98.782812 
L 55.892413 104.378763 
L 56.059812 104.330609 
L 56.227213 114.503192 
L 56.394613 107.835847 
L 56.562013 108.746268 
L 56.729413 99.997391 
L 57.064213 98.129796 
L 57.231613 101.934618 
L 57.399012 87.889565 
L 57.566412 119.440255 
L 57.901212 107.836432 
L 58.068613 102.220636 
L 58.236013 101.748193 
L 58.403413 91.741891 
L 58.570813 98.543544 
L 58.738213 98.539563 
L 58.905613 119.764405 
L 59.073013 115.34319 
L 59.240413 97.992611 
L 59.407813 102.202598 
L 59.575213 92.982892 
L 59.742613 96.050037 
L 59.910013 113.398635 
L 60.077413 100.004867 
L 60.244813 113.289112 
L 60.579613 96.407722 
L 60.747013 96.485892 
L 60.914413 94.632565 
L 61.249212 110.517497 
L 61.584013 108.504631 
L 61.751413 103.752085 
L 61.918813 103.901142 
L 62.086213 101.699215 
L 62.421013 117.091603 
L 62.588413 105.071207 
L 62.755813 116.538252 
L 62.923213 119.483309 
L 63.090613 112.759166 
L 63.258012 95.380602 
L 63.592813 113.150246 
L 63.760213 94.312001 
L 63.927613 105.265358 
L 64.095012 101.001163 
L 64.262413 110.071975 
L 64.429812 108.232298 
L 64.597212 101.395979 
L 64.764612 103.044904 
L 64.932012 108.008125 
L 65.099412 119.690664 
L 65.266813 108.815135 
L 65.434213 109.315795 
L 65.601613 119.983517 
L 65.936413 90.82409 
L 66.103813 102.087754 
L 66.271213 124.616668 
L 66.438613 109.783558 
L 66.773413 121.707968 
L 66.940813 101.363199 
L 67.108213 107.997575 
L 67.275613 104.093804 
L 67.610413 116.919697 
L 67.777813 115.244472 
L 67.945212 117.905967 
L 68.112612 105.829767 
L 68.280012 107.272901 
L 68.447412 98.276821 
L 68.614812 97.079714 
L 68.782212 116.711907 
L 68.949613 99.231078 
L 69.284413 117.701029 
L 69.451813 119.236932 
L 69.619213 116.425085 
L 69.786613 104.543433 
L 69.954013 113.501861 
L 70.121413 108.984461 
L 70.288813 113.523641 
L 70.456213 114.150558 
L 70.791012 112.289995 
L 70.958413 102.118733 
L 71.125812 119.055386 
L 71.293213 103.784713 
L 71.460612 114.175614 
L 71.628013 104.082673 
L 71.795412 113.705847 
L 71.962813 115.962754 
L 72.130212 111.184361 
L 72.297613 95.569167 
L 72.465013 124.623485 
L 72.632413 128.435953 
L 72.967213 95.765827 
L 73.134613 123.591397 
L 73.302013 92.55253 
L 73.469413 99.370062 
L 73.804213 121.477657 
L 73.971612 106.865156 
L 74.306412 116.88365 
L 74.473813 104.42889 
L 74.976012 115.846449 
L 75.143413 117.079274 
L 75.310812 121.996745 
L 75.478213 99.64255 
L 75.645612 129.225342 
L 75.813013 113.214858 
L 75.980412 120.86798 
L 76.147813 114.076898 
L 76.315213 118.388844 
L 76.482613 105.858211 
L 76.650013 104.099761 
L 76.817413 107.544609 
L 76.984813 108.036761 
L 77.152213 127.982916 
L 77.319613 117.380933 
L 77.487013 97.32447 
L 77.821813 114.507115 
L 77.989213 99.811348 
L 78.324013 133.195824 
L 78.491412 127.49644 
L 78.658813 87.462972 
L 78.993613 111.511346 
L 79.161012 112.199714 
L 79.495812 130.765635 
L 79.998013 98.578693 
L 80.165413 120.576029 
L 80.332813 120.982826 
L 80.667613 119.543182 
L 80.835013 121.295558 
L 81.002413 118.253074 
L 81.169813 101.414354 
L 81.337213 119.614589 
L 81.504613 114.675102 
L 81.672012 126.809965 
L 81.839413 124.741185 
L 82.006812 129.713125 
L 82.174213 107.054408 
L 82.509013 116.174677 
L 82.676412 145.043111 
L 82.843813 119.437975 
L 83.011212 115.047824 
L 83.178613 106.48027 
L 83.346013 133.892104 
L 83.513413 118.782051 
L 83.680813 114.41743 
L 83.848213 124.900787 
L 84.015613 124.103812 
L 84.183013 125.645023 
L 84.350413 126.095902 
L 84.517813 125.573215 
L 84.685213 116.022743 
L 84.852613 114.32359 
L 85.020013 118.377043 
L 85.187413 152.630312 
L 85.522213 122.688303 
L 85.689613 115.934422 
L 85.857013 124.071484 
L 86.024413 116.986126 
L 86.191813 143.53433 
L 86.359213 142.222898 
L 86.526612 124.716416 
L 86.694013 121.182294 
L 86.861413 124.677412 
L 87.196213 138.819752 
L 87.363613 137.439658 
L 87.531013 131.33642 
L 87.698413 134.089849 
L 87.865813 141.003855 
L 88.033212 126.235157 
L 88.200613 125.047845 
L 88.535413 143.870794 
L 88.702812 120.470006 
L 88.870213 145.32021 
L 89.205013 120.456278 
L 89.372412 122.13518 
L 89.539813 128.597239 
L 89.707212 145.316334 
L 89.874613 137.375865 
L 90.042012 137.151779 
L 90.376812 127.015251 
L 90.711613 150.830528 
L 91.213813 136.434437 
L 91.381213 139.164892 
L 91.548613 139.95674 
L 91.716013 139.788191 
L 91.883413 140.372263 
L 92.050813 129.307396 
L 92.218213 152.257735 
L 92.385613 151.834313 
L 92.553013 141.527858 
L 92.720413 141.406763 
L 92.887812 139.122489 
L 93.055213 154.758823 
L 93.222612 153.310417 
L 93.390013 156.121364 
L 93.724813 132.061064 
L 94.059613 135.374248 
L 94.394413 146.981468 
L 94.561813 126.544162 
L 94.729213 137.089749 
L 94.896613 140.0239 
L 95.064013 136.476132 
L 95.231413 127.703423 
L 95.398813 156.22616 
L 95.566213 155.264298 
L 95.901013 133.297456 
L 96.068413 125.858515 
L 96.235813 124.123487 
L 96.570613 147.681628 
L 96.738013 153.155812 
L 97.072813 126.218838 
L 97.240213 148.446481 
L 97.407612 147.944227 
L 97.575012 141.56548 
L 97.742413 140.952992 
L 97.909813 148.813988 
L 98.077213 149.987603 
L 98.244613 144.355901 
L 98.412013 147.719737 
L 98.579413 133.954225 
L 98.746813 143.652882 
L 98.914212 143.645237 
L 99.249012 133.394592 
L 99.416413 146.268655 
L 99.583812 168.245427 
L 99.751213 147.770224 
L 99.918612 144.822914 
L 100.086013 150.39253 
L 100.253412 147.830522 
L 100.420813 152.782167 
L 100.588212 141.782683 
L 100.755613 144.202763 
L 100.923012 166.996357 
L 101.257812 129.77215 
L 101.592613 155.938872 
L 101.760013 139.595839 
L 102.094813 167.588581 
L 102.262213 164.272716 
L 102.429613 138.13783 
L 102.597013 152.540731 
L 102.764412 152.931712 
L 102.931813 167.73996 
L 103.099212 148.432275 
L 103.266613 151.847451 
L 103.434012 151.432394 
L 103.601413 159.356122 
L 103.768812 160.130577 
L 103.936213 159.809953 
L 104.103612 151.337606 
L 104.271013 160.962262 
L 104.438412 157.687937 
L 104.605813 150.464797 
L 104.940613 162.839715 
L 105.108013 147.463563 
L 105.275413 148.234903 
L 105.442813 164.235391 
L 105.610213 165.124126 
L 105.777613 139.024911 
L 106.279813 160.592659 
L 106.614613 152.160186 
L 106.782013 161.497585 
L 106.949413 152.578198 
L 107.116813 134.325715 
L 107.451613 164.165912 
L 107.619012 159.508194 
L 107.786413 139.530761 
L 108.121213 163.361228 
L 108.288612 160.241925 
L 108.456013 154.475027 
L 108.623413 162.220871 
L 108.790812 138.354964 
L 108.958213 148.57515 
L 109.125612 145.667738 
L 109.293013 172.051227 
L 109.460412 156.152016 
L 109.795212 166.698245 
L 109.962613 157.810685 
L 110.130012 131.962423 
L 110.297413 156.472874 
L 110.464812 161.139427 
L 110.632213 162.072197 
L 110.799612 178.129926 
L 110.967013 175.21376 
L 111.301813 137.788043 
L 111.469212 157.163992 
L 111.636613 163.363896 
L 111.804012 141.932775 
L 111.971413 166.211628 
L 112.306213 149.163795 
L 112.473613 155.086217 
L 112.641013 151.504229 
L 112.808413 157.681528 
L 112.975813 170.474298 
L 113.143213 155.030654 
L 113.310613 149.928498 
L 113.478013 162.2518 
L 113.645412 160.458479 
L 113.812813 156.405459 
L 113.980212 143.070652 
L 114.147613 149.171861 
L 114.315012 164.918153 
L 114.482413 145.315343 
L 114.649812 148.865496 
L 114.817213 143.358033 
L 115.152013 173.682736 
L 115.486813 161.514086 
L 115.821613 153.769631 
L 116.323813 168.302736 
L 116.491213 140.630358 
L 116.826013 173.037386 
L 117.160813 134.614431 
L 117.328213 169.98463 
L 117.663013 152.459551 
L 117.830413 165.005486 
L 118.165213 151.178312 
L 118.332613 153.158109 
L 118.500012 162.031686 
L 118.667413 149.801962 
L 118.834812 155.528765 
L 119.002213 176.762588 
L 119.169612 163.229292 
L 119.337013 134.581213 
L 119.671813 168.362212 
L 119.839213 161.062802 
L 120.006612 148.173096 
L 120.174013 152.756029 
L 120.341412 168.665035 
L 120.508813 165.249382 
L 120.676212 153.940093 
L 120.843613 153.442529 
L 121.011012 176.454007 
L 121.513213 158.118252 
L 121.680612 171.524686 
L 121.848013 161.192683 
L 122.015412 172.42175 
L 122.350212 154.819872 
L 122.517613 155.3385 
L 122.685012 150.426277 
L 122.852413 171.995532 
L 123.019813 174.231761 
L 123.187213 153.759561 
L 123.354613 154.123782 
L 123.522013 141.034167 
L 123.689413 164.483543 
L 123.856813 164.877416 
L 124.024213 175.221969 
L 124.191613 177.323876 
L 124.359013 165.424817 
L 124.693813 156.162586 
L 124.861212 173.259692 
L 125.028613 174.385233 
L 125.196012 164.100599 
L 125.363413 182.524192 
L 125.530812 173.689766 
L 125.865612 150.799121 
L 126.033013 178.506112 
L 126.367813 160.542127 
L 126.535213 166.781259 
L 126.702613 157.885798 
L 126.870013 158.11016 
L 127.037413 167.754725 
L 127.204813 162.961746 
L 127.372213 167.690572 
L 127.539613 157.02478 
L 127.707013 174.092312 
L 128.041813 170.436204 
L 128.209213 190.124771 
L 128.376613 184.545575 
L 128.544013 165.500843 
L 128.711413 166.083391 
L 128.878813 178.165679 
L 129.046213 176.234488 
L 129.213613 160.132894 
L 129.381012 171.777127 
L 129.548413 167.482154 
L 129.715812 169.181811 
L 129.883213 162.081807 
L 130.050612 148.17393 
L 130.552813 177.812741 
L 130.720213 171.454186 
L 130.887613 169.652453 
L 131.055013 169.619649 
L 131.222413 168.655495 
L 131.389813 161.359051 
L 131.557213 165.685249 
L 131.724613 184.089877 
L 132.059413 168.025412 
L 132.226813 183.302743 
L 132.394213 171.280857 
L 132.561613 174.538956 
L 132.729013 187.255088 
L 133.063813 170.185283 
L 133.231213 156.578088 
L 133.566013 188.209266 
L 133.733413 181.643439 
L 133.900813 183.303969 
L 134.068213 179.868104 
L 134.235613 155.952445 
L 134.403013 163.588454 
L 134.570413 196.884325 
L 134.737813 175.156185 
L 134.905213 169.660229 
L 135.072612 154.444181 
L 135.240013 171.75171 
L 135.407412 157.741176 
L 135.909613 190.652657 
L 136.077012 173.024201 
L 136.244413 183.355525 
L 136.411812 178.16703 
L 136.579213 166.535801 
L 136.746612 184.473414 
L 136.914013 172.870964 
L 137.081412 169.275561 
L 137.416213 196.752545 
L 137.751013 177.890793 
L 137.918412 175.893655 
L 138.085813 168.155594 
L 138.253212 175.302484 
L 138.420613 206.301872 
L 138.755413 179.519848 
L 139.090213 187.443802 
L 139.257612 181.868394 
L 139.425013 182.693897 
L 139.592412 177.386328 
L 139.759813 193.605634 
L 139.927212 190.178 
L 140.094613 203.242636 
L 140.262012 171.261694 
L 140.596812 182.928657 
L 140.764213 194.882318 
L 140.931612 165.478576 
L 141.099013 178.374559 
L 141.266413 200.234933 
L 141.601213 183.242465 
L 141.768613 185.512985 
L 141.936013 189.304199 
L 142.103412 188.765282 
L 142.270813 194.526323 
L 142.605613 184.098763 
L 142.773012 167.448958 
L 142.940413 194.760009 
L 143.107812 194.483388 
L 143.275213 183.116561 
L 143.610013 179.454479 
L 143.944813 193.803122 
L 144.112212 176.960015 
L 144.447012 199.472621 
L 144.781813 178.767973 
L 144.949213 178.103843 
L 145.116613 207.772778 
L 145.284013 177.448046 
L 145.451413 179.183698 
L 145.786213 195.115149 
L 145.953613 184.447735 
L 146.121013 184.581948 
L 146.288413 197.352487 
L 146.455813 193.640865 
L 146.790613 175.063491 
L 146.958012 186.406845 
L 147.125413 185.034204 
L 147.292812 187.613548 
L 147.460213 199.573657 
L 147.627612 196.295621 
L 147.795013 171.2414 
L 147.962412 188.887782 
L 148.129813 171.117341 
L 148.297213 180.772469 
L 148.464613 213.42912 
L 148.632013 207.153791 
L 148.799413 171.311079 
L 148.966813 184.463863 
L 149.301613 170.726223 
L 149.636413 195.111691 
L 149.803813 192.634155 
L 149.971213 185.925672 
L 150.138613 194.693291 
L 150.306013 184.671338 
L 150.473413 184.013183 
L 150.640813 198.246949 
L 150.975613 180.977652 
L 151.143013 178.75173 
L 151.310413 189.3893 
L 151.477812 172.701128 
L 151.645213 191.170387 
L 151.812613 191.657779 
L 151.980013 185.392285 
L 152.147413 192.123046 
L 152.314813 204.809685 
L 152.482213 193.283719 
L 152.649613 198.407403 
L 152.817013 211.1514 
L 152.984413 180.910938 
L 153.151813 179.521516 
L 153.319213 175.200847 
L 153.486613 197.407242 
L 153.654013 188.943015 
L 153.988813 192.301321 
L 154.156213 186.58433 
L 154.491013 195.326801 
L 154.658413 184.312805 
L 154.825813 193.077566 
L 154.993213 184.796949 
L 155.160613 198.445612 
L 155.328013 182.719886 
L 155.997613 196.082504 
L 156.165013 196.221765 
L 156.332413 178.952788 
L 156.667213 207.024381 
L 156.834612 185.255417 
L 157.002013 194.005875 
L 157.169412 171.825841 
L 157.336813 195.638025 
L 157.504212 190.772044 
L 157.671613 179.994169 
L 157.839012 193.265543 
L 158.006413 192.505979 
L 158.173812 183.672563 
L 158.341213 192.78102 
L 158.508612 182.160982 
L 158.676013 185.606221 
L 159.010813 205.336042 
L 159.345612 169.391545 
L 159.513013 195.359992 
L 159.680412 196.745693 
L 159.847813 183.312224 
L 160.015212 194.579539 
L 160.517413 182.213706 
L 160.684812 199.816018 
L 160.852213 180.629203 
L 161.019612 182.663682 
L 161.187013 203.663931 
L 161.354412 200.747383 
L 161.521813 194.994994 
L 161.689212 197.680679 
L 161.856613 202.853208 
L 162.024012 174.372152 
L 162.191413 177.422032 
L 162.526213 201.052665 
L 162.693613 191.603588 
L 162.861013 193.932641 
L 163.028413 193.709131 
L 163.195813 179.237627 
L 163.363213 202.01337 
L 163.530613 191.888229 
L 163.698013 196.022051 
L 163.865413 209.599216 
L 164.200212 182.694744 
L 164.367613 204.746401 
L 164.535012 204.790154 
L 164.702413 188.706387 
L 164.869812 187.181541 
L 165.037213 191.684193 
L 165.204612 190.990763 
L 165.372013 193.912277 
L 165.539412 194.291818 
L 165.706813 195.698711 
L 165.874212 201.427541 
L 166.041613 219.446862 
L 166.209013 205.910465 
L 166.376413 208.096021 
L 166.543813 184.320883 
L 166.711212 193.367644 
L 166.878613 184.223772 
L 167.046012 186.771169 
L 167.213413 187.345799 
L 167.380812 195.64954 
L 167.548213 198.221492 
L 167.715612 193.391833 
L 167.883013 199.217238 
L 168.050412 194.16882 
L 168.217813 195.222835 
L 168.385212 194.518707 
L 168.552613 198.063446 
L 168.720012 186.191092 
L 168.887413 189.580863 
L 169.054812 202.985941 
L 169.222213 196.861309 
L 169.389612 207.628597 
L 169.724412 198.595539 
L 169.891813 185.473541 
L 170.059213 200.569483 
L 170.226613 195.908357 
L 170.394013 196.655228 
L 170.561413 180.318686 
L 170.728813 194.944769 
L 170.896213 184.856577 
L 171.231012 200.454023 
L 171.398413 200.168417 
L 171.565812 218.371867 
L 171.900612 193.354609 
L 172.235412 199.487151 
L 172.402813 190.75112 
L 172.737613 198.909674 
L 173.072413 174.246993 
L 173.239812 210.959866 
L 173.407213 214.825817 
L 173.742013 194.238955 
L 173.909413 202.438481 
L 174.244213 169.542936 
L 174.411613 203.136215 
L 174.579013 196.689309 
L 174.746413 179.634956 
L 174.913813 187.916958 
L 175.081213 206.093 
L 175.248613 200.779369 
L 175.416013 212.981208 
L 175.750813 184.033963 
L 175.918213 196.123927 
L 176.085612 183.349372 
L 176.253013 186.455806 
L 176.420412 194.238511 
L 176.587813 211.854169 
L 176.922613 176.631012 
L 177.257413 191.590957 
L 177.424813 187.036405 
L 177.592213 207.053173 
L 177.759613 197.30842 
L 177.927012 179.046585 
L 178.094413 210.165136 
L 178.429213 191.097677 
L 178.596612 180.267683 
L 178.764013 194.776064 
L 178.931412 191.95458 
L 179.098812 196.434049 
L 179.433612 186.404458 
L 179.601012 197.605597 
L 179.768412 189.562107 
L 179.935812 196.158499 
L 180.103212 188.100129 
L 180.270612 193.586437 
L 180.438012 188.449071 
L 180.605412 201.415101 
L 180.772812 193.427245 
L 180.940213 194.555889 
L 181.107612 182.499486 
L 181.275013 180.128743 
L 181.442412 189.479348 
L 181.609813 183.071084 
L 181.777212 199.864487 
L 181.944613 190.437743 
L 182.112012 207.652117 
L 182.446812 180.193836 
L 182.614213 184.962371 
L 182.781612 194.913 
L 182.949013 183.938382 
L 183.116412 200.339079 
L 183.283813 193.632995 
L 183.451212 193.836252 
L 183.618613 186.208465 
L 183.786012 196.201679 
L 183.953412 173.621848 
L 184.120812 192.235743 
L 184.288212 193.470043 
L 184.455613 189.969356 
L 184.623012 183.267937 
L 184.790413 213.021909 
L 184.957812 188.595576 
L 185.125213 184.225627 
L 185.292612 198.075749 
L 185.460013 194.785927 
L 185.627412 194.993574 
L 185.794813 171.575849 
L 185.962212 202.411711 
L 186.129613 192.262509 
L 186.297012 175.218629 
L 186.464413 195.70563 
L 186.631812 198.696648 
L 186.799213 175.87939 
L 186.966612 195.112288 
L 187.134013 200.084403 
L 187.468813 191.835423 
L 187.636212 192.032897 
L 187.803613 189.848347 
L 187.971013 180.820534 
L 188.138413 187.922405 
L 188.305813 177.818592 
L 188.473213 174.932053 
L 188.640613 203.823757 
L 188.808012 186.826761 
L 188.975413 181.903289 
L 189.310213 210.563466 
L 189.645013 176.679048 
L 189.979813 190.72734 
L 190.147212 189.213808 
L 190.314613 192.48218 
L 190.482012 184.124041 
L 190.816812 187.774793 
L 190.984213 190.496218 
L 191.151612 198.06696 
L 191.319013 181.060384 
L 191.486413 196.030463 
L 191.653813 174.632135 
L 191.988613 203.169221 
L 192.323413 188.469729 
L 192.490813 192.849793 
L 192.658213 180.754631 
L 192.825613 189.262577 
L 192.993013 170.094001 
L 193.160413 196.179319 
L 193.327812 199.56603 
L 193.495213 197.453133 
L 193.662612 188.783112 
L 193.830013 202.53607 
L 193.997412 186.278433 
L 194.164813 196.651379 
L 194.332212 193.272665 
L 194.499613 173.789103 
L 194.834413 189.708647 
L 195.001812 210.554692 
L 195.169213 194.240226 
L 195.336613 189.797081 
L 195.504013 181.159997 
L 195.671413 201.373665 
L 195.838813 205.297916 
L 196.173613 195.680656 
L 196.341013 212.170494 
L 196.508413 213.351555 
L 196.675813 180.950692 
L 196.843213 183.962236 
L 197.010613 200.948434 
L 197.178013 194.414578 
L 197.345413 179.636047 
L 197.512813 218.163529 
L 197.847613 187.656093 
L 198.015013 207.878056 
L 198.182412 197.211939 
L 198.349813 196.799452 
L 198.852013 186.049705 
L 199.019413 195.504257 
L 199.186813 197.406225 
L 199.354212 214.759922 
L 199.521613 181.746376 
L 199.689012 191.999375 
L 199.856413 188.893338 
L 200.023812 193.702607 
L 200.191213 203.570493 
L 200.358612 193.198633 
L 200.860813 198.259632 
L 201.028212 189.026464 
L 201.195612 205.527474 
L 201.363012 206.484158 
L 201.697812 180.407737 
L 201.865212 204.78297 
L 202.200012 189.99609 
L 202.367413 193.432307 
L 202.534812 187.008309 
L 203.037013 204.480427 
L 203.204412 198.961589 
L 203.371813 185.616449 
L 203.539212 200.791062 
L 203.706613 176.88221 
L 203.874012 201.877573 
L 204.041413 202.792263 
L 204.376213 177.994298 
L 204.711013 187.351256 
L 204.878412 189.77146 
L 205.045813 185.690332 
L 205.213212 195.906773 
L 205.380613 189.903825 
L 205.548012 191.024949 
L 205.715413 204.212314 
L 206.385013 185.868909 
L 206.552413 185.798985 
L 206.719813 181.469124 
L 206.887213 190.329421 
L 207.054613 211.603493 
L 207.556813 194.13444 
L 207.724213 190.44113 
L 207.891613 202.034416 
L 208.059013 205.004578 
L 208.226413 195.454775 
L 208.393813 193.784247 
L 208.561213 209.267065 
L 208.728613 196.005129 
L 208.896013 195.824103 
L 209.230813 184.249727 
L 209.398213 187.872035 
L 209.565613 203.232924 
L 209.733013 202.922916 
L 209.900413 190.588122 
L 210.067812 214.783443 
L 210.235213 208.092793 
L 210.402612 206.324072 
L 210.570013 174.307654 
L 210.737412 207.020494 
L 210.904812 202.347027 
L 211.072212 188.717637 
L 211.239612 205.280539 
L 211.574412 192.992158 
L 211.741812 212.538695 
L 212.076612 183.380346 
L 212.244012 202.828589 
L 212.411412 194.826972 
L 212.578812 197.750771 
L 212.746212 191.093033 
L 213.081012 212.412543 
L 213.583213 179.374573 
L 213.750612 183.361684 
L 213.918013 201.820229 
L 214.085412 198.905752 
L 214.252813 193.164214 
L 214.587613 200.097949 
L 214.755012 187.896933 
L 215.089812 203.284808 
L 215.257213 203.256245 
L 215.424612 193.534058 
L 215.592013 194.312374 
L 215.759412 197.617389 
L 215.926813 204.379845 
L 216.094212 205.147953 
L 216.429012 171.262249 
L 216.596413 186.701917 
L 216.763813 214.272931 
L 217.098613 190.396976 
L 217.266013 198.865521 
L 217.433413 187.189886 
L 217.600813 186.50838 
L 217.768213 196.251081 
L 217.935613 188.821774 
L 218.103013 196.109631 
L 218.270413 217.610906 
L 218.437813 196.578809 
L 218.605213 194.895116 
L 218.772612 180.612293 
L 218.940013 203.852276 
L 219.107412 205.584131 
L 219.442212 172.131609 
L 219.777012 206.014 
L 219.944413 194.163029 
L 220.111812 191.893057 
L 220.279212 194.639103 
L 220.446612 191.947374 
L 220.614013 193.359267 
L 220.781412 177.250618 
L 220.948813 181.690622 
L 221.116212 197.096312 
L 221.283613 201.38776 
L 221.451012 176.022119 
L 221.618413 195.670979 
L 221.953213 183.523062 
L 222.120612 182.418505 
L 222.288013 210.316982 
L 222.622813 187.554421 
L 222.790212 200.333963 
L 223.125012 170.213387 
L 223.292413 187.607696 
L 223.627213 191.689594 
L 223.794612 174.427187 
L 223.962013 189.723986 
L 224.129413 182.690934 
L 224.296813 182.715088 
L 224.464213 203.070905 
L 224.799013 183.268669 
L 224.966413 181.29277 
L 225.133813 177.664779 
L 225.301213 177.639962 
L 225.636013 200.262383 
L 225.970813 178.586345 
L 226.138213 195.348553 
L 226.305613 187.265479 
L 226.473013 169.240404 
L 226.640413 200.745539 
L 226.807813 187.970458 
L 227.142613 181.159489 
L 227.310013 187.108801 
L 227.477413 181.120959 
L 227.644813 184.62359 
L 227.812213 180.120951 
L 227.979613 180.620832 
L 228.314413 196.513231 
L 228.816612 177.98768 
L 228.984013 177.55662 
L 229.151412 189.236997 
L 229.318813 176.390465 
L 229.486212 198.747652 
L 229.653613 190.938377 
L 229.821012 188.827177 
L 230.155812 181.302683 
L 230.490612 185.168413 
L 230.658013 195.40753 
L 230.825412 193.706356 
L 231.160213 187.384929 
L 231.327613 195.626219 
L 231.495013 182.879346 
L 231.662412 198.829108 
L 231.829813 191.079011 
L 231.997212 194.609436 
L 232.164613 183.780341 
L 232.332012 186.353948 
L 232.666812 219.229133 
L 232.834213 211.318132 
L 233.001612 186.589209 
L 233.336412 198.703119 
L 233.503813 204.012855 
L 233.671212 196.611829 
L 233.838613 200.412776 
L 234.173413 186.200933 
L 234.508213 209.223449 
L 234.675612 195.172799 
L 235.010413 200.16999 
L 235.177813 189.995104 
L 235.345213 189.280194 
L 235.512613 220.710929 
L 235.680013 209.21088 
L 235.847413 182.038161 
L 236.014812 207.83716 
L 236.182213 177.849709 
L 236.517013 214.478507 
L 236.684412 205.838468 
L 236.851813 187.913458 
L 237.019212 184.009709 
L 237.186613 190.937284 
L 237.354012 180.341005 
L 237.521412 186.329754 
L 237.688812 203.130451 
L 237.856212 204.735356 
L 238.023612 186.145525 
L 238.191012 209.952193 
L 238.358412 195.925116 
L 238.525813 203.668095 
L 238.693212 202.735288 
L 238.860613 192.316282 
L 239.028012 189.112716 
L 239.195413 188.592021 
L 239.362812 189.086296 
L 239.865013 204.676543 
L 240.199813 185.268647 
L 240.702012 206.127881 
L 240.869413 231.691794 
L 241.204213 178.456909 
L 241.371612 180.46998 
L 241.539013 207.647911 
L 241.873813 187.525371 
L 242.041213 210.239489 
L 242.208613 199.687811 
L 242.376013 196.66976 
L 242.543413 185.443766 
L 242.710813 189.822615 
L 242.878213 199.565073 
L 243.045613 199.826182 
L 243.213013 182.567455 
L 243.380413 190.382745 
L 243.547813 184.692005 
L 243.715213 199.761689 
L 243.882613 203.589143 
L 244.217413 183.525684 
L 244.384813 188.537752 
L 244.552213 205.572167 
L 244.719613 203.519307 
L 245.054413 192.168467 
L 245.221813 201.557027 
L 245.389212 196.17706 
L 245.556613 187.12368 
L 245.724012 188.417885 
L 245.891413 199.363336 
L 246.226213 175.241142 
L 246.393612 215.850806 
L 246.895813 176.903698 
L 247.063212 194.17668 
L 247.230613 193.373776 
L 247.398012 191.049139 
L 247.565413 197.641496 
L 248.067612 194.037443 
L 248.235013 184.770624 
L 248.402412 190.264778 
L 248.569813 189.979441 
L 248.737212 198.603354 
L 249.072012 190.046214 
L 249.239413 193.512774 
L 249.406813 187.556548 
L 249.574213 187.781819 
L 249.741613 201.517146 
L 249.909013 200.290554 
L 250.076413 192.781516 
L 250.243813 205.030881 
L 250.746013 176.64305 
L 250.913413 192.566828 
L 251.080813 177.783834 
L 251.248213 180.089086 
L 251.415613 186.576724 
L 251.583013 188.48094 
L 251.750413 188.139284 
L 251.917813 216.428505 
L 252.085213 199.319675 
L 252.252613 195.960449 
L 252.587413 180.333459 
L 252.922213 192.261224 
L 253.089613 187.870397 
L 253.257013 186.442307 
L 253.591812 208.830551 
L 253.926612 187.078638 
L 254.094013 210.878399 
L 254.261412 209.432733 
L 254.428813 202.791753 
L 254.596212 186.155875 
L 254.763613 193.794935 
L 254.931012 194.704247 
L 255.098412 188.93875 
L 255.265812 189.476839 
L 255.433212 184.432314 
L 255.768012 204.912259 
L 255.935412 192.462248 
L 256.102813 202.568926 
L 256.270213 202.901624 
L 256.437613 196.944232 
L 256.605012 207.594056 
L 256.772413 183.861819 
L 256.939813 187.980971 
L 257.107213 199.889184 
L 257.442013 208.675483 
L 257.609413 188.735992 
L 257.944212 199.259325 
L 258.279013 186.465261 
L 258.446413 180.491035 
L 258.613812 198.10244 
L 258.781213 193.581319 
L 258.948613 179.709345 
L 259.283412 211.663236 
L 259.450813 197.617274 
L 259.618213 201.367072 
L 259.785613 198.638822 
L 259.953012 188.301645 
L 260.120413 207.784519 
L 260.455213 192.495829 
L 260.622613 174.691972 
L 260.790013 205.374017 
L 260.957413 183.461561 
L 261.124813 189.786931 
L 261.459613 211.713005 
L 261.627013 201.588222 
L 261.794413 206.822009 
L 262.129213 189.698568 
L 262.296613 207.338313 
L 262.464013 211.382288 
L 262.798813 168.418717 
L 262.966212 197.413147 
L 263.133613 197.946473 
L 263.301013 191.151491 
L 263.635812 200.053424 
L 263.803213 200.954231 
L 263.970613 209.379361 
L 264.138013 206.667245 
L 264.305412 176.142019 
L 264.472813 181.462053 
L 264.640213 196.531695 
L 264.807613 199.539745 
L 264.975012 193.109423 
L 265.142413 199.072611 
L 265.309813 183.072578 
L 265.477213 194.072801 
L 265.644612 215.740819 
L 265.812013 180.926731 
L 265.979413 178.007442 
L 266.146813 211.484482 
L 266.481613 179.045061 
L 266.649013 180.905585 
L 266.816413 202.960819 
L 266.983812 199.600188 
L 267.151213 181.512702 
L 267.318613 185.042427 
L 267.486013 195.585151 
L 267.653413 196.165625 
L 267.820813 201.350147 
L 267.988213 187.428409 
L 268.155613 204.378993 
L 268.323013 186.529459 
L 268.490413 186.398301 
L 268.657813 187.300966 
L 268.825213 174.652676 
L 268.992613 207.645644 
L 269.160013 200.769608 
L 269.327413 203.910181 
L 269.494813 186.705705 
L 269.662213 189.031686 
L 269.829613 184.140676 
L 269.997013 186.340413 
L 270.164413 176.826358 
L 270.331813 181.370859 
L 270.666613 199.936993 
L 270.834013 188.522693 
L 271.001413 196.330874 
L 271.168813 216.507357 
L 271.336213 205.328454 
L 271.503613 175.614471 
L 271.671013 188.848798 
L 271.838413 191.130027 
L 272.005813 200.065652 
L 272.340613 193.43657 
L 272.508013 185.208202 
L 273.010213 207.260175 
L 273.177613 191.499119 
L 273.345012 205.178981 
L 273.512413 207.709261 
L 273.679813 192.538749 
L 273.847213 190.255404 
L 274.014612 205.501842 
L 274.349413 188.242673 
L 274.516813 191.416136 
L 274.684213 180.929079 
L 274.851612 190.726954 
L 275.019013 219.722995 
L 275.353813 185.944696 
L 275.521212 188.749591 
L 275.688613 188.861329 
L 275.856013 184.332337 
L 276.190812 209.233754 
L 276.525613 189.053589 
L 276.693013 189.060527 
L 277.027813 204.923858 
L 277.195213 202.282286 
L 277.362613 182.264649 
L 277.530012 180.255013 
L 277.697413 206.637266 
L 277.864813 205.171807 
L 278.032213 181.850969 
L 278.199613 194.960466 
L 278.534413 197.285338 
L 278.701813 200.814822 
L 278.869213 208.774713 
L 279.036613 204.726735 
L 279.204013 194.995891 
L 279.371413 194.982382 
L 279.538813 185.736649 
L 279.706213 187.382049 
L 279.873613 201.594188 
L 280.041013 206.193464 
L 280.208413 192.172038 
L 280.375813 189.031737 
L 280.543212 190.570938 
L 280.878013 201.609049 
L 281.045413 195.490029 
L 281.212812 213.349081 
L 281.380213 202.729845 
L 281.547613 205.020157 
L 281.715013 173.153014 
L 281.882412 203.153546 
L 282.049813 203.038943 
L 282.217213 196.457246 
L 282.384613 199.817508 
L 282.552012 189.676166 
L 282.719413 198.60375 
L 282.886813 196.287903 
L 283.221612 210.824911 
L 283.389013 205.758647 
L 283.556413 178.433412 
L 283.723813 204.122459 
L 283.891212 179.215578 
L 284.058613 198.536196 
L 284.226013 194.19889 
L 284.393413 206.280721 
L 284.560812 199.875388 
L 284.728213 183.2471 
L 285.063013 206.984554 
L 285.230412 194.276742 
L 285.397813 194.207548 
L 285.565213 199.081898 
L 285.732613 194.86261 
L 285.900013 210.273568 
L 286.067413 206.012493 
L 286.234813 207.102725 
L 286.402213 189.315167 
L 286.737013 208.032304 
L 286.904413 178.436883 
L 287.071813 193.152435 
L 287.239213 193.453894 
L 287.406613 198.592143 
L 287.574013 220.495538 
L 287.908813 191.616803 
L 288.076213 206.608553 
L 288.243613 206.590734 
L 288.411013 191.652736 
L 288.578413 188.90276 
L 288.745813 219.174671 
L 289.248013 186.476495 
L 289.415413 178.7978 
L 289.750213 214.567562 
L 290.085013 178.950188 
L 290.252412 214.29325 
L 290.419813 211.448284 
L 290.587213 205.977431 
L 290.754613 186.456174 
L 290.922012 190.196606 
L 291.089413 188.975328 
L 291.424213 208.870405 
L 291.591612 207.743542 
L 291.759013 197.625092 
L 291.926413 214.726294 
L 292.093813 190.814584 
L 292.261212 182.849432 
L 292.428613 205.826255 
L 292.596013 202.347967 
L 292.930813 179.34683 
L 293.265613 221.379076 
L 293.433013 221.578466 
L 293.767813 185.664387 
L 293.935213 198.102988 
L 294.102613 199.778145 
L 294.270013 194.041228 
L 294.437413 203.373915 
L 294.604813 221.409064 
L 295.107013 186.276316 
L 295.609213 208.789749 
L 295.944013 184.772845 
L 296.111413 190.237026 
L 296.278813 211.72726 
L 296.613613 199.401527 
L 296.781013 214.74178 
L 297.283213 182.63253 
L 297.450613 202.094096 
L 297.618013 202.055162 
L 297.952813 186.002148 
L 298.120213 199.487692 
L 298.287613 196.296357 
L 298.455013 202.210478 
L 298.622413 212.180274 
L 298.789813 198.964526 
L 298.957213 200.526385 
L 299.124613 196.440155 
L 299.292013 207.217509 
L 299.459413 193.07894 
L 299.626813 205.077904 
L 300.129013 187.904925 
L 300.463813 209.802675 
L 300.798613 196.417089 
L 300.966013 176.923191 
L 301.300813 214.272208 
L 301.635613 188.052482 
L 301.803013 210.261122 
L 301.970413 204.895705 
L 302.137813 183.028766 
L 302.305213 199.075558 
L 302.472613 201.846442 
L 302.640013 197.665351 
L 302.807412 200.777953 
L 303.142213 180.568123 
L 303.309613 186.682682 
L 303.477013 200.559641 
L 303.644413 198.386437 
L 303.811813 184.455363 
L 303.979213 194.450567 
L 304.146613 193.523277 
L 304.648813 202.334655 
L 304.816213 190.972387 
L 304.983613 193.844191 
L 305.151013 188.748728 
L 305.318413 190.457632 
L 305.485813 181.953394 
L 305.820613 202.845418 
L 305.988013 198.452547 
L 306.155413 206.544948 
L 306.322813 192.424403 
L 306.490213 190.171837 
L 306.657613 190.207452 
L 306.825013 187.631994 
L 307.159813 189.959734 
L 307.327213 191.410624 
L 307.662013 178.947339 
L 307.829413 200.433901 
L 307.996813 186.535847 
L 308.331613 205.218441 
L 308.666413 183.654464 
L 308.833813 206.10419 
L 309.001213 201.987342 
L 309.168613 192.483306 
L 309.336013 193.482641 
L 309.503413 203.291234 
L 309.670813 197.169421 
L 309.838213 185.13562 
L 310.005613 211.976796 
L 310.173013 213.966499 
L 310.340413 188.743262 
L 310.507813 188.499276 
L 310.675213 192.9556 
L 310.842613 202.707328 
L 311.177413 189.530679 
L 311.512213 203.978828 
L 311.679613 202.388426 
L 311.847013 210.997357 
L 312.014413 184.968037 
L 312.181813 199.419566 
L 312.349213 201.814039 
L 312.684013 191.555625 
L 312.851413 193.389316 
L 313.186213 217.184011 
L 313.353613 205.722594 
L 313.521013 183.526523 
L 313.855813 214.711284 
L 314.190613 189.8061 
L 314.358013 221.709928 
L 314.860213 194.473442 
L 315.027613 203.283388 
L 315.195013 201.086777 
L 315.362413 205.80299 
L 315.529813 203.509656 
L 315.697213 191.119027 
L 315.864613 200.474733 
L 316.032013 217.003954 
L 316.199413 204.109468 
L 316.366813 180.352389 
L 316.534213 205.595537 
L 316.701613 200.065672 
L 316.869013 209.036051 
L 317.036413 203.987633 
L 317.371213 210.775217 
L 317.538613 227.237162 
L 317.706013 185.834763 
L 318.040813 193.327027 
L 318.208213 204.267001 
L 318.375613 190.71753 
L 318.543013 191.722207 
L 318.710413 214.118873 
L 319.045213 203.428248 
L 319.212613 201.451535 
L 319.547413 181.240002 
L 319.714812 221.143874 
L 319.882213 215.734666 
L 320.049613 195.409406 
L 320.217013 225.59714 
L 320.384412 211.104608 
L 320.551813 213.341423 
L 320.719213 212.3249 
L 320.886613 209.813326 
L 321.054012 210.248327 
L 321.221413 201.6552 
L 321.388813 202.815435 
L 321.556213 202.341048 
L 321.891013 214.802547 
L 322.058413 204.11835 
L 322.393213 214.217585 
L 322.728013 203.737643 
L 322.895413 203.25847 
L 323.230213 210.33455 
L 323.397613 213.346321 
L 323.899813 205.924915 
L 324.067213 222.702516 
L 324.234613 197.796503 
L 324.402013 217.92427 
L 324.569413 215.537186 
L 324.904213 188.705947 
L 325.071613 214.68865 
L 325.239013 207.421537 
L 325.406413 218.972544 
L 325.573813 200.601202 
L 325.908613 208.740728 
L 326.076013 198.781406 
L 326.410813 221.086927 
L 326.745613 205.895431 
L 327.080413 210.36692 
L 327.247813 207.014805 
L 327.415213 229.953186 
L 327.582613 211.567878 
L 327.750013 227.345036 
L 327.917413 220.476186 
L 328.084813 203.759002 
L 328.252213 209.241585 
L 328.419613 220.34558 
L 328.587013 219.515786 
L 328.754413 199.605367 
L 329.089213 204.275349 
L 329.256613 211.873891 
L 329.424013 213.101312 
L 329.591413 218.4832 
L 329.758813 201.712465 
L 329.926213 210.096198 
L 330.093613 207.835842 
L 330.261013 203.545888 
L 330.428413 223.247149 
L 330.595813 221.376066 
L 330.763213 211.874904 
L 330.930613 208.891733 
L 331.098013 210.528779 
L 331.432813 221.81043 
L 331.600213 222.219112 
L 331.767613 205.034525 
L 331.935013 204.839454 
L 332.102413 226.812229 
L 332.269813 212.504342 
L 332.437213 216.753264 
L 332.772013 207.723985 
L 332.939413 211.95623 
L 333.106813 229.162672 
L 333.441613 212.82009 
L 333.609013 224.172992 
L 333.776413 204.503221 
L 333.943813 203.298861 
L 334.111213 237.267042 
L 334.278613 210.291192 
L 334.446013 205.609168 
L 334.613413 209.757587 
L 334.780813 239.560072 
L 335.115613 213.653444 
L 335.283013 228.563788 
L 335.450413 222.005044 
L 335.617813 205.887712 
L 335.785213 221.671837 
L 335.952613 202.986937 
L 336.120013 203.763554 
L 336.287413 227.917215 
L 336.454813 231.372687 
L 336.622213 228.483219 
L 336.789613 232.248872 
L 337.124413 212.419233 
L 337.459213 221.40641 
L 337.626613 214.361399 
L 337.961413 227.999747 
L 338.128813 228.758739 
L 338.296213 221.234329 
L 338.463613 226.236826 
L 338.631012 218.742683 
L 338.798413 233.65767 
L 338.965813 211.832668 
L 339.133213 216.388543 
L 339.300612 217.49894 
L 339.468013 236.026583 
L 339.802813 205.00659 
L 340.305013 216.680494 
L 340.472413 234.506357 
L 340.639813 221.004651 
L 340.807213 221.773237 
L 340.974613 233.631311 
L 341.142013 221.110789 
L 341.309413 220.701277 
L 341.476813 215.953408 
L 341.644213 223.289937 
L 341.979013 214.534066 
L 342.146413 232.107961 
L 342.481213 217.519297 
L 342.648613 218.094046 
L 342.816013 221.725253 
L 342.983413 212.811951 
L 343.318213 230.85849 
L 343.485613 235.045859 
L 343.653013 231.138243 
L 343.820413 217.181064 
L 343.987813 240.998751 
L 344.155213 237.200124 
L 344.322613 216.031541 
L 344.490013 220.591033 
L 344.657413 218.743406 
L 344.824813 212.954356 
L 344.992213 230.497194 
L 345.159613 232.834236 
L 345.327013 218.746341 
L 345.494413 225.173999 
L 345.661813 220.827496 
L 345.829213 226.790639 
L 345.996613 214.819458 
L 346.164013 226.710379 
L 346.331413 223.261143 
L 346.498813 228.213812 
L 346.666213 213.472271 
L 346.833613 237.143814 
L 347.001013 223.266434 
L 347.168413 219.029715 
L 347.335813 243.035204 
L 347.503213 243.119827 
L 347.838013 214.745729 
L 348.172813 225.237183 
L 348.340213 221.159055 
L 348.507613 226.946162 
L 348.842413 209.732694 
L 349.177213 222.482095 
L 349.344613 196.976629 
L 349.512013 224.79399 
L 349.679413 228.440742 
L 349.846813 213.59165 
L 350.014213 222.507112 
L 350.181613 210.63281 
L 350.349013 225.358313 
L 350.516413 217.900739 
L 350.683813 216.36457 
L 350.851213 212.856395 
L 351.018613 228.121583 
L 351.353413 208.6714 
L 351.520813 237.183176 
L 351.688213 230.63989 
L 351.855613 215.667478 
L 352.023013 223.220206 
L 352.190413 217.68894 
L 352.357813 217.05854 
L 352.525213 201.578442 
L 352.692613 233.981934 
L 352.860013 217.409008 
L 353.027413 215.235922 
L 353.194813 232.40773 
L 353.529613 215.139803 
L 353.697013 224.864636 
L 353.864413 206.812133 
L 354.031813 208.110083 
L 354.199213 227.90782 
L 354.366613 234.500013 
L 354.534013 210.334967 
L 354.701413 212.491225 
L 354.868813 201.608545 
L 355.036213 220.855938 
L 355.203613 222.284804 
L 355.371013 208.885461 
L 355.538413 214.54629 
L 355.705813 212.998184 
L 355.873213 236.112933 
L 356.208013 220.233486 
L 356.375413 233.19848 
L 356.542813 204.372604 
L 357.045013 225.028371 
L 357.212413 227.700598 
L 357.379813 234.643132 
L 357.547213 218.173479 
L 357.714613 216.67691 
L 357.882013 243.556364 
L 358.216813 199.831212 
L 358.551613 225.054758 
L 358.719013 219.163141 
L 358.886413 219.093762 
L 359.053813 233.264083 
L 359.388613 205.530364 
L 359.556013 219.116514 
L 359.890813 213.18629 
L 360.058213 218.039923 
L 360.225613 216.850918 
L 360.393013 216.867625 
L 360.560413 215.609498 
L 360.727813 211.415057 
L 360.895213 227.389542 
L 361.062613 221.246871 
L 361.230013 204.713708 
L 361.397413 202.363798 
L 361.899613 237.16971 
L 362.067013 231.721675 
L 362.401813 196.614115 
L 362.569213 221.319399 
L 362.736613 221.532521 
L 362.904013 219.798395 
L 363.071413 216.775322 
L 363.238813 230.784898 
L 363.573613 207.624974 
L 363.741013 209.292727 
L 363.908412 226.464341 
L 364.243213 202.231674 
L 364.410613 211.027101 
L 364.578012 211.76917 
L 364.745413 199.591742 
L 365.080213 227.521538 
L 365.247613 200.38794 
L 365.415013 212.315783 
L 365.582413 216.033712 
L 365.749813 201.04842 
L 365.917213 205.160923 
L 366.084613 214.948213 
L 366.252013 212.81773 
L 366.419413 208.854162 
L 366.586813 223.166535 
L 366.754213 212.857896 
L 366.921613 212.318728 
L 367.089013 199.029557 
L 367.256413 206.353956 
L 367.423813 202.806577 
L 367.591213 207.145456 
L 367.758613 197.157731 
L 368.093413 213.346292 
L 368.260813 211.581159 
L 368.428213 205.055561 
L 368.595613 215.175655 
L 368.763013 213.891846 
L 368.930413 193.595966 
L 369.265213 213.503654 
L 369.432613 208.185612 
L 369.600013 207.690676 
L 369.767413 217.255645 
L 369.934813 203.084807 
L 370.102213 203.250556 
L 370.269613 234.243062 
L 370.437013 216.550338 
L 370.604413 183.767727 
L 370.939213 216.83018 
L 371.106613 222.063259 
L 371.274013 217.986623 
L 371.441413 204.441345 
L 371.608813 207.072579 
L 371.776213 215.380856 
L 371.943613 214.442286 
L 372.111013 217.636384 
L 372.278413 190.747027 
L 372.445813 208.235922 
L 372.613213 199.719729 
L 372.780613 201.458999 
L 372.948013 216.641213 
L 373.115413 214.967376 
L 373.282813 209.845664 
L 373.282813 209.845664 
" clip-path="url(#pa1618393c4)" style="fill: none; stroke: #1f77b4; stroke-width: 1.5; stroke-linecap: square"/>
   </g>
   <g id="line2d_16">
    <path d="M 38.650213 73.304809 
L 39.319813 87.95246 
L 39.989413 97.771073 
L 40.659013 104.352687 
L 41.328612 108.764474 
L 41.998213 111.721784 
L 42.667813 113.704128 
L 43.337412 115.032933 
L 44.007013 115.923657 
L 44.844013 116.636254 
L 45.681013 117.068466 
L 46.852812 117.403867 
L 48.526813 117.613005 
L 51.540013 117.714599 
L 62.923213 117.734696 
L 373.282813 117.734718 
L 373.282813 117.734718 
" clip-path="url(#pa1618393c4)" style="fill: none; stroke: #ff7f0e; stroke-width: 1.5; stroke-linecap: square"/>
   </g>
   <g id="patch_3">
    <path d="M 38.482813 253.44 
L 38.482813 36 
" style="fill: none; stroke: #000000; stroke-width: 0.8; stroke-linejoin: miter; stroke-linecap: square"/>
   </g>
   <g id="patch_4">
    <path d="M 373.282813 253.44 
L 373.282813 36 
" style="fill: none; stroke: #000000; stroke-width: 0.8; stroke-linejoin: miter; stroke-linecap: square"/>
   </g>
   <g id="patch_5">
    <path d="M 38.482813 253.44 
L 373.282813 253.44 
" style="fill: none; stroke: #000000; stroke-width: 0.8; stroke-linejoin: miter; stroke-linecap: square"/>
   </g>
   <g id="patch_6">
    <path d="M 38.482813 36 
L 373.282813 36 
" style="fill: none; stroke: #000000; stroke-width: 0.8; stroke-linejoin: miter; stroke-linecap: square"/>
   </g>
   <g id="legend_1">
    <g id="patch_7">
     <path d="M 316.582813 77.078125 
L 366.282813 77.078125 
Q 368.282813 77.078125 368.282813 75.078125 
L 368.282813 43 
Q 368.282813 41 366.282813 41 
L 316.582813 41 
Q 314.582813 41 314.582813 43 
L 314.582813 75.078125 
Q 314.582813 77.078125 316.582813 77.078125 
z
" style="fill: #ffffff; opacity: 0.8; stroke: #cccccc; stroke-linejoin: miter"/>
    </g>
    <g id="line2d_17">
     <path d="M 318.582813 52.8 
L 328.582813 52.8 
L 338.582813 52.8 
" style="fill: none; stroke: #1f77b4; stroke-width: 1.5; stroke-linecap: square"/>
    </g>
    <g id="text_16">
     <!-- $\hat{y(t)}$ -->
     <g transform="translate(346.582813 56.3) scale(0.1 -0.1)">
      <defs>
       <path id="DejaVuSans-302" d="M -1831 5119 
L -1369 5119 
L -603 3944 
L -1038 3944 
L -1600 4709 
L -2163 3944 
L -2597 3944 
L -1831 5119 
z
M -1600 3584 
L -1600 3584 
z
" transform="scale(0.015625)"/>
       <path id="DejaVuSans-Oblique-79" d="M 1588 -325 
Q 1188 -997 936 -1164 
Q 684 -1331 294 -1331 
L -159 -1331 
L -63 -850 
L 269 -850 
Q 509 -850 678 -719 
Q 847 -588 1056 -206 
L 1234 128 
L 459 3500 
L 1069 3500 
L 1650 819 
L 3256 3500 
L 3859 3500 
L 1588 -325 
z
" transform="scale(0.015625)"/>
       <path id="DejaVuSans-28" d="M 1984 4856 
Q 1566 4138 1362 3434 
Q 1159 2731 1159 2009 
Q 1159 1288 1364 580 
Q 1569 -128 1984 -844 
L 1484 -844 
Q 1016 -109 783 600 
Q 550 1309 550 2009 
Q 550 2706 781 3412 
Q 1013 4119 1484 4856 
L 1984 4856 
z
" transform="scale(0.015625)"/>
       <path id="DejaVuSans-29" d="M 513 4856 
L 1013 4856 
Q 1481 4119 1714 3412 
Q 1947 2706 1947 2009 
Q 1947 1309 1714 600 
Q 1481 -109 1013 -844 
L 513 -844 
Q 928 -128 1133 580 
Q 1338 1288 1338 2009 
Q 1338 2731 1133 3434 
Q 928 4138 513 4856 
z
" transform="scale(0.015625)"/>
      </defs>
      <use xlink:href="#DejaVuSans-302" transform="translate(135.682129 33.015625)"/>
      <use xlink:href="#DejaVuSans-Oblique-79" transform="translate(0 0.640625)"/>
      <use xlink:href="#DejaVuSans-28" transform="translate(59.179688 0.640625)"/>
      <use xlink:href="#DejaVuSans-Oblique-74" transform="translate(98.193359 0.640625)"/>
      <use xlink:href="#DejaVuSans-29" transform="translate(137.402344 0.640625)"/>
     </g>
    </g>
    <g id="line2d_18">
     <path d="M 318.582813 67.498437 
L 328.582813 67.498437 
L 338.582813 67.498437 
" style="fill: none; stroke: #ff7f0e; stroke-width: 1.5; stroke-linecap: square"/>
    </g>
    <g id="text_17">
     <!-- $x(t)$ -->
     <g transform="translate(346.582813 70.998437) scale(0.1 -0.1)">
      <defs>
       <path id="DejaVuSans-Oblique-78" d="M 3841 3500 
L 2234 1784 
L 3219 0 
L 2559 0 
L 1819 1388 
L 531 0 
L -166 0 
L 1556 1844 
L 641 3500 
L 1300 3500 
L 1972 2234 
L 3144 3500 
L 3841 3500 
z
" transform="scale(0.015625)"/>
      </defs>
      <use xlink:href="#DejaVuSans-Oblique-78" transform="translate(0 0.125)"/>
      <use xlink:href="#DejaVuSans-28" transform="translate(59.179688 0.125)"/>
      <use xlink:href="#DejaVuSans-Oblique-74" transform="translate(98.193359 0.125)"/>
      <use xlink:href="#DejaVuSans-29" transform="translate(137.402344 0.125)"/>
     </g>
    </g>
   </g>
  </g>
  <g id="text_18">
   <!-- Accumulate to Threshold model with input of -0.1 with rms=10  -->
   <g transform="translate(9.332188 16.318125) scale(0.12 -0.12)">
    <defs>
     <path id="DejaVuSans-41" d="M 2188 4044 
L 1331 1722 
L 3047 1722 
L 2188 4044 
z
M 1831 4666 
L 2547 4666 
L 4325 0 
L 3669 0 
L 3244 1197 
L 1141 1197 
L 716 0 
L 50 0 
L 1831 4666 
z
" transform="scale(0.015625)"/>
     <path id="DejaVuSans-63" d="M 3122 3366 
L 3122 2828 
Q 2878 2963 2633 3030 
Q 2388 3097 2138 3097 
Q 1578 3097 1268 2742 
Q 959 2388 959 1747 
Q 959 1106 1268 751 
Q 1578 397 2138 397 
Q 2388 397 2633 464 
Q 2878 531 3122 666 
L 3122 134 
Q 2881 22 2623 -34 
Q 2366 -91 2075 -91 
Q 1284 -91 818 406 
Q 353 903 353 1747 
Q 353 2603 823 3093 
Q 1294 3584 2113 3584 
Q 2378 3584 2631 3529 
Q 2884 3475 3122 3366 
z
" transform="scale(0.015625)"/>
     <path id="DejaVuSans-75" d="M 544 1381 
L 544 3500 
L 1119 3500 
L 1119 1403 
Q 1119 906 1312 657 
Q 1506 409 1894 409 
Q 2359 409 2629 706 
Q 2900 1003 2900 1516 
L 2900 3500 
L 3475 3500 
L 3475 0 
L 2900 0 
L 2900 538 
Q 2691 219 2414 64 
Q 2138 -91 1772 -91 
Q 1169 -91 856 284 
Q 544 659 544 1381 
z
M 1991 3584 
L 1991 3584 
z
" transform="scale(0.015625)"/>
     <path id="DejaVuSans-6d" d="M 3328 2828 
Q 3544 3216 3844 3400 
Q 4144 3584 4550 3584 
Q 5097 3584 5394 3201 
Q 5691 2819 5691 2113 
L 5691 0 
L 5113 0 
L 5113 2094 
Q 5113 2597 4934 2840 
Q 4756 3084 4391 3084 
Q 3944 3084 3684 2787 
Q 3425 2491 3425 1978 
L 3425 0 
L 2847 0 
L 2847 2094 
Q 2847 2600 2669 2842 
Q 2491 3084 2119 3084 
Q 1678 3084 1418 2786 
Q 1159 2488 1159 1978 
L 1159 0 
L 581 0 
L 581 3500 
L 1159 3500 
L 1159 2956 
Q 1356 3278 1631 3431 
Q 1906 3584 2284 3584 
Q 2666 3584 2933 3390 
Q 3200 3197 3328 2828 
z
" transform="scale(0.015625)"/>
     <path id="DejaVuSans-6c" d="M 603 4863 
L 1178 4863 
L 1178 0 
L 603 0 
L 603 4863 
z
" transform="scale(0.015625)"/>
     <path id="DejaVuSans-61" d="M 2194 1759 
Q 1497 1759 1228 1600 
Q 959 1441 959 1056 
Q 959 750 1161 570 
Q 1363 391 1709 391 
Q 2188 391 2477 730 
Q 2766 1069 2766 1631 
L 2766 1759 
L 2194 1759 
z
M 3341 1997 
L 3341 0 
L 2766 0 
L 2766 531 
Q 2569 213 2275 61 
Q 1981 -91 1556 -91 
Q 1019 -91 701 211 
Q 384 513 384 1019 
Q 384 1609 779 1909 
Q 1175 2209 1959 2209 
L 2766 2209 
L 2766 2266 
Q 2766 2663 2505 2880 
Q 2244 3097 1772 3097 
Q 1472 3097 1187 3025 
Q 903 2953 641 2809 
L 641 3341 
Q 956 3463 1253 3523 
Q 1550 3584 1831 3584 
Q 2591 3584 2966 3190 
Q 3341 2797 3341 1997 
z
" transform="scale(0.015625)"/>
     <path id="DejaVuSans-74" d="M 1172 4494 
L 1172 3500 
L 2356 3500 
L 2356 3053 
L 1172 3053 
L 1172 1153 
Q 1172 725 1289 603 
Q 1406 481 1766 481 
L 2356 481 
L 2356 0 
L 1766 0 
Q 1100 0 847 248 
Q 594 497 594 1153 
L 594 3053 
L 172 3053 
L 172 3500 
L 594 3500 
L 594 4494 
L 1172 4494 
z
" transform="scale(0.015625)"/>
     <path id="DejaVuSans-65" d="M 3597 1894 
L 3597 1613 
L 953 1613 
Q 991 1019 1311 708 
Q 1631 397 2203 397 
Q 2534 397 2845 478 
Q 3156 559 3463 722 
L 3463 178 
Q 3153 47 2828 -22 
Q 2503 -91 2169 -91 
Q 1331 -91 842 396 
Q 353 884 353 1716 
Q 353 2575 817 3079 
Q 1281 3584 2069 3584 
Q 2775 3584 3186 3129 
Q 3597 2675 3597 1894 
z
M 3022 2063 
Q 3016 2534 2758 2815 
Q 2500 3097 2075 3097 
Q 1594 3097 1305 2825 
Q 1016 2553 972 2059 
L 3022 2063 
z
" transform="scale(0.015625)"/>
     <path id="DejaVuSans-20" transform="scale(0.015625)"/>
     <path id="DejaVuSans-6f" d="M 1959 3097 
Q 1497 3097 1228 2736 
Q 959 2375 959 1747 
Q 959 1119 1226 758 
Q 1494 397 1959 397 
Q 2419 397 2687 759 
Q 2956 1122 2956 1747 
Q 2956 2369 2687 2733 
Q 2419 3097 1959 3097 
z
M 1959 3584 
Q 2709 3584 3137 3096 
Q 3566 2609 3566 1747 
Q 3566 888 3137 398 
Q 2709 -91 1959 -91 
Q 1206 -91 779 398 
Q 353 888 353 1747 
Q 353 2609 779 3096 
Q 1206 3584 1959 3584 
z
" transform="scale(0.015625)"/>
     <path id="DejaVuSans-54" d="M -19 4666 
L 3928 4666 
L 3928 4134 
L 2272 4134 
L 2272 0 
L 1638 0 
L 1638 4134 
L -19 4134 
L -19 4666 
z
" transform="scale(0.015625)"/>
     <path id="DejaVuSans-68" d="M 3513 2113 
L 3513 0 
L 2938 0 
L 2938 2094 
Q 2938 2591 2744 2837 
Q 2550 3084 2163 3084 
Q 1697 3084 1428 2787 
Q 1159 2491 1159 1978 
L 1159 0 
L 581 0 
L 581 4863 
L 1159 4863 
L 1159 2956 
Q 1366 3272 1645 3428 
Q 1925 3584 2291 3584 
Q 2894 3584 3203 3211 
Q 3513 2838 3513 2113 
z
" transform="scale(0.015625)"/>
     <path id="DejaVuSans-72" d="M 2631 2963 
Q 2534 3019 2420 3045 
Q 2306 3072 2169 3072 
Q 1681 3072 1420 2755 
Q 1159 2438 1159 1844 
L 1159 0 
L 581 0 
L 581 3500 
L 1159 3500 
L 1159 2956 
Q 1341 3275 1631 3429 
Q 1922 3584 2338 3584 
Q 2397 3584 2469 3576 
Q 2541 3569 2628 3553 
L 2631 2963 
z
" transform="scale(0.015625)"/>
     <path id="DejaVuSans-73" d="M 2834 3397 
L 2834 2853 
Q 2591 2978 2328 3040 
Q 2066 3103 1784 3103 
Q 1356 3103 1142 2972 
Q 928 2841 928 2578 
Q 928 2378 1081 2264 
Q 1234 2150 1697 2047 
L 1894 2003 
Q 2506 1872 2764 1633 
Q 3022 1394 3022 966 
Q 3022 478 2636 193 
Q 2250 -91 1575 -91 
Q 1294 -91 989 -36 
Q 684 19 347 128 
L 347 722 
Q 666 556 975 473 
Q 1284 391 1588 391 
Q 1994 391 2212 530 
Q 2431 669 2431 922 
Q 2431 1156 2273 1281 
Q 2116 1406 1581 1522 
L 1381 1569 
Q 847 1681 609 1914 
Q 372 2147 372 2553 
Q 372 3047 722 3315 
Q 1072 3584 1716 3584 
Q 2034 3584 2315 3537 
Q 2597 3491 2834 3397 
z
" transform="scale(0.015625)"/>
     <path id="DejaVuSans-64" d="M 2906 2969 
L 2906 4863 
L 3481 4863 
L 3481 0 
L 2906 0 
L 2906 525 
Q 2725 213 2448 61 
Q 2172 -91 1784 -91 
Q 1150 -91 751 415 
Q 353 922 353 1747 
Q 353 2572 751 3078 
Q 1150 3584 1784 3584 
Q 2172 3584 2448 3432 
Q 2725 3281 2906 2969 
z
M 947 1747 
Q 947 1113 1208 752 
Q 1469 391 1925 391 
Q 2381 391 2643 752 
Q 2906 1113 2906 1747 
Q 2906 2381 2643 2742 
Q 2381 3103 1925 3103 
Q 1469 3103 1208 2742 
Q 947 2381 947 1747 
z
" transform="scale(0.015625)"/>
     <path id="DejaVuSans-77" d="M 269 3500 
L 844 3500 
L 1563 769 
L 2278 3500 
L 2956 3500 
L 3675 769 
L 4391 3500 
L 4966 3500 
L 4050 0 
L 3372 0 
L 2619 2869 
L 1863 0 
L 1184 0 
L 269 3500 
z
" transform="scale(0.015625)"/>
     <path id="DejaVuSans-69" d="M 603 3500 
L 1178 3500 
L 1178 0 
L 603 0 
L 603 3500 
z
M 603 4863 
L 1178 4863 
L 1178 4134 
L 603 4134 
L 603 4863 
z
" transform="scale(0.015625)"/>
     <path id="DejaVuSans-6e" d="M 3513 2113 
L 3513 0 
L 2938 0 
L 2938 2094 
Q 2938 2591 2744 2837 
Q 2550 3084 2163 3084 
Q 1697 3084 1428 2787 
Q 1159 2491 1159 1978 
L 1159 0 
L 581 0 
L 581 3500 
L 1159 3500 
L 1159 2956 
Q 1366 3272 1645 3428 
Q 1925 3584 2291 3584 
Q 2894 3584 3203 3211 
Q 3513 2838 3513 2113 
z
" transform="scale(0.015625)"/>
     <path id="DejaVuSans-70" d="M 1159 525 
L 1159 -1331 
L 581 -1331 
L 581 3500 
L 1159 3500 
L 1159 2969 
Q 1341 3281 1617 3432 
Q 1894 3584 2278 3584 
Q 2916 3584 3314 3078 
Q 3713 2572 3713 1747 
Q 3713 922 3314 415 
Q 2916 -91 2278 -91 
Q 1894 -91 1617 61 
Q 1341 213 1159 525 
z
M 3116 1747 
Q 3116 2381 2855 2742 
Q 2594 3103 2138 3103 
Q 1681 3103 1420 2742 
Q 1159 2381 1159 1747 
Q 1159 1113 1420 752 
Q 1681 391 2138 391 
Q 2594 391 2855 752 
Q 3116 1113 3116 1747 
z
" transform="scale(0.015625)"/>
     <path id="DejaVuSans-66" d="M 2375 4863 
L 2375 4384 
L 1825 4384 
Q 1516 4384 1395 4259 
Q 1275 4134 1275 3809 
L 1275 3500 
L 2222 3500 
L 2222 3053 
L 1275 3053 
L 1275 0 
L 697 0 
L 697 3053 
L 147 3053 
L 147 3500 
L 697 3500 
L 697 3744 
Q 697 4328 969 4595 
Q 1241 4863 1831 4863 
L 2375 4863 
z
" transform="scale(0.015625)"/>
     <path id="DejaVuSans-2d" d="M 313 2009 
L 1997 2009 
L 1997 1497 
L 313 1497 
L 313 2009 
z
" transform="scale(0.015625)"/>
     <path id="DejaVuSans-3d" d="M 678 2906 
L 4684 2906 
L 4684 2381 
L 678 2381 
L 678 2906 
z
M 678 1631 
L 4684 1631 
L 4684 1100 
L 678 1100 
L 678 1631 
z
" transform="scale(0.015625)"/>
    </defs>
    <use xlink:href="#DejaVuSans-41"/>
    <use xlink:href="#DejaVuSans-63" x="66.658203"/>
    <use xlink:href="#DejaVuSans-63" x="121.638672"/>
    <use xlink:href="#DejaVuSans-75" x="176.619141"/>
    <use xlink:href="#DejaVuSans-6d" x="239.998047"/>
    <use xlink:href="#DejaVuSans-75" x="337.410156"/>
    <use xlink:href="#DejaVuSans-6c" x="400.789062"/>
    <use xlink:href="#DejaVuSans-61" x="428.572266"/>
    <use xlink:href="#DejaVuSans-74" x="489.851562"/>
    <use xlink:href="#DejaVuSans-65" x="529.060547"/>
    <use xlink:href="#DejaVuSans-20" x="590.583984"/>
    <use xlink:href="#DejaVuSans-74" x="622.371094"/>
    <use xlink:href="#DejaVuSans-6f" x="661.580078"/>
    <use xlink:href="#DejaVuSans-20" x="722.761719"/>
    <use xlink:href="#DejaVuSans-54" x="754.548828"/>
    <use xlink:href="#DejaVuSans-68" x="815.632812"/>
    <use xlink:href="#DejaVuSans-72" x="879.011719"/>
    <use xlink:href="#DejaVuSans-65" x="917.875"/>
    <use xlink:href="#DejaVuSans-73" x="979.398438"/>
    <use xlink:href="#DejaVuSans-68" x="1031.498047"/>
    <use xlink:href="#DejaVuSans-6f" x="1094.876953"/>
    <use xlink:href="#DejaVuSans-6c" x="1156.058594"/>
    <use xlink:href="#DejaVuSans-64" x="1183.841797"/>
    <use xlink:href="#DejaVuSans-20" x="1247.318359"/>
    <use xlink:href="#DejaVuSans-6d" x="1279.105469"/>
    <use xlink:href="#DejaVuSans-6f" x="1376.517578"/>
    <use xlink:href="#DejaVuSans-64" x="1437.699219"/>
    <use xlink:href="#DejaVuSans-65" x="1501.175781"/>
    <use xlink:href="#DejaVuSans-6c" x="1562.699219"/>
    <use xlink:href="#DejaVuSans-20" x="1590.482422"/>
    <use xlink:href="#DejaVuSans-77" x="1622.269531"/>
    <use xlink:href="#DejaVuSans-69" x="1704.056641"/>
    <use xlink:href="#DejaVuSans-74" x="1731.839844"/>
    <use xlink:href="#DejaVuSans-68" x="1771.048828"/>
    <use xlink:href="#DejaVuSans-20" x="1834.427734"/>
    <use xlink:href="#DejaVuSans-69" x="1866.214844"/>
    <use xlink:href="#DejaVuSans-6e" x="1893.998047"/>
    <use xlink:href="#DejaVuSans-70" x="1957.376953"/>
    <use xlink:href="#DejaVuSans-75" x="2020.853516"/>
    <use xlink:href="#DejaVuSans-74" x="2084.232422"/>
    <use xlink:href="#DejaVuSans-20" x="2123.441406"/>
    <use xlink:href="#DejaVuSans-6f" x="2155.228516"/>
    <use xlink:href="#DejaVuSans-66" x="2216.410156"/>
    <use xlink:href="#DejaVuSans-20" x="2251.615234"/>
    <use xlink:href="#DejaVuSans-2d" x="2283.402344"/>
    <use xlink:href="#DejaVuSans-30" x="2319.486328"/>
    <use xlink:href="#DejaVuSans-2e" x="2383.109375"/>
    <use xlink:href="#DejaVuSans-31" x="2414.896484"/>
    <use xlink:href="#DejaVuSans-20" x="2478.519531"/>
    <use xlink:href="#DejaVuSans-77" x="2510.306641"/>
    <use xlink:href="#DejaVuSans-69" x="2592.09375"/>
    <use xlink:href="#DejaVuSans-74" x="2619.876953"/>
    <use xlink:href="#DejaVuSans-68" x="2659.085938"/>
    <use xlink:href="#DejaVuSans-20" x="2722.464844"/>
    <use xlink:href="#DejaVuSans-72" x="2754.251953"/>
    <use xlink:href="#DejaVuSans-6d" x="2793.615234"/>
    <use xlink:href="#DejaVuSans-73" x="2891.027344"/>
    <use xlink:href="#DejaVuSans-3d" x="2943.126953"/>
    <use xlink:href="#DejaVuSans-31" x="3026.916016"/>
    <use xlink:href="#DejaVuSans-30" x="3090.539062"/>
    <use xlink:href="#DejaVuSans-20" x="3154.162109"/>
   </g>
  </g>
 </g>
 <defs>
  <clipPath id="pa1618393c4">
   <rect x="38.482813" y="36" width="334.8" height="217.44"/>
  </clipPath>
 </defs>
</svg>
