<?xml version="1.0" encoding="utf-8" standalone="no"?>
<!DOCTYPE svg PUBLIC "-//W3C//DTD SVG 1.1//EN"
  "http://www.w3.org/Graphics/SVG/1.1/DTD/svg11.dtd">
<svg xmlns:xlink="http://www.w3.org/1999/xlink" width="531.03pt" height="290.99625pt" viewBox="0 0 531.03 290.99625" xmlns="http://www.w3.org/2000/svg" version="1.1">
 <metadata>
  <rdf:RDF xmlns:dc="http://purl.org/dc/elements/1.1/" xmlns:cc="http://creativecommons.org/ns#" xmlns:rdf="http://www.w3.org/1999/02/22-rdf-syntax-ns#">
   <cc:Work>
    <dc:type rdf:resource="http://purl.org/dc/dcmitype/StillImage"/>
    <dc:date>2022-11-20T19:01:01.053699</dc:date>
    <dc:format>image/svg+xml</dc:format>
    <dc:creator>
     <cc:Agent>
      <dc:title>Matplotlib v3.6.0, https://matplotlib.org/</dc:title>
     </cc:Agent>
    </dc:creator>
   </cc:Work>
  </rdf:RDF>
 </metadata>
 <defs>
  <style type="text/css">*{stroke-linejoin: round; stroke-linecap: butt}</style>
 </defs>
 <g id="figure_1">
  <g id="patch_1">
   <path d="M 0 290.99625 
L 531.03 290.99625 
L 531.03 0 
L 0 0 
L 0 290.99625 
z
" style="fill: none"/>
  </g>
  <g id="axes_1">
   <g id="patch_2">
    <path d="M 103.515 253.44 
L 438.315 253.44 
L 438.315 36 
L 103.515 36 
z
" style="fill: #ffffff"/>
   </g>
   <g id="matplotlib.axis_1">
    <g id="xtick_1">
     <g id="line2d_1">
      <defs>
       <path id="md461cbf64c" d="M 0 0 
L 0 3.5 
" style="stroke: #000000; stroke-width: 0.8"/>
      </defs>
      <g>
       <use xlink:href="#md461cbf64c" x="103.515" y="253.44" style="stroke: #000000; stroke-width: 0.8"/>
      </g>
     </g>
     <g id="text_1">
      <!-- 0.00 -->
      <g transform="translate(92.382187 268.038437) scale(0.1 -0.1)">
       <defs>
        <path id="DejaVuSans-30" d="M 2034 4250 
Q 1547 4250 1301 3770 
Q 1056 3291 1056 2328 
Q 1056 1369 1301 889 
Q 1547 409 2034 409 
Q 2525 409 2770 889 
Q 3016 1369 3016 2328 
Q 3016 3291 2770 3770 
Q 2525 4250 2034 4250 
z
M 2034 4750 
Q 2819 4750 3233 4129 
Q 3647 3509 3647 2328 
Q 3647 1150 3233 529 
Q 2819 -91 2034 -91 
Q 1250 -91 836 529 
Q 422 1150 422 2328 
Q 422 3509 836 4129 
Q 1250 4750 2034 4750 
z
" transform="scale(0.015625)"/>
        <path id="DejaVuSans-2e" d="M 684 794 
L 1344 794 
L 1344 0 
L 684 0 
L 684 794 
z
" transform="scale(0.015625)"/>
       </defs>
       <use xlink:href="#DejaVuSans-30"/>
       <use xlink:href="#DejaVuSans-2e" x="63.623047"/>
       <use xlink:href="#DejaVuSans-30" x="95.410156"/>
       <use xlink:href="#DejaVuSans-30" x="159.033203"/>
      </g>
     </g>
    </g>
    <g id="xtick_2">
     <g id="line2d_2">
      <g>
       <use xlink:href="#md461cbf64c" x="145.365" y="253.44" style="stroke: #000000; stroke-width: 0.8"/>
      </g>
     </g>
     <g id="text_2">
      <!-- 0.25 -->
      <g transform="translate(134.232187 268.038437) scale(0.1 -0.1)">
       <defs>
        <path id="DejaVuSans-32" d="M 1228 531 
L 3431 531 
L 3431 0 
L 469 0 
L 469 531 
Q 828 903 1448 1529 
Q 2069 2156 2228 2338 
Q 2531 2678 2651 2914 
Q 2772 3150 2772 3378 
Q 2772 3750 2511 3984 
Q 2250 4219 1831 4219 
Q 1534 4219 1204 4116 
Q 875 4013 500 3803 
L 500 4441 
Q 881 4594 1212 4672 
Q 1544 4750 1819 4750 
Q 2544 4750 2975 4387 
Q 3406 4025 3406 3419 
Q 3406 3131 3298 2873 
Q 3191 2616 2906 2266 
Q 2828 2175 2409 1742 
Q 1991 1309 1228 531 
z
" transform="scale(0.015625)"/>
        <path id="DejaVuSans-35" d="M 691 4666 
L 3169 4666 
L 3169 4134 
L 1269 4134 
L 1269 2991 
Q 1406 3038 1543 3061 
Q 1681 3084 1819 3084 
Q 2600 3084 3056 2656 
Q 3513 2228 3513 1497 
Q 3513 744 3044 326 
Q 2575 -91 1722 -91 
Q 1428 -91 1123 -41 
Q 819 9 494 109 
L 494 744 
Q 775 591 1075 516 
Q 1375 441 1709 441 
Q 2250 441 2565 725 
Q 2881 1009 2881 1497 
Q 2881 1984 2565 2268 
Q 2250 2553 1709 2553 
Q 1456 2553 1204 2497 
Q 953 2441 691 2322 
L 691 4666 
z
" transform="scale(0.015625)"/>
       </defs>
       <use xlink:href="#DejaVuSans-30"/>
       <use xlink:href="#DejaVuSans-2e" x="63.623047"/>
       <use xlink:href="#DejaVuSans-32" x="95.410156"/>
       <use xlink:href="#DejaVuSans-35" x="159.033203"/>
      </g>
     </g>
    </g>
    <g id="xtick_3">
     <g id="line2d_3">
      <g>
       <use xlink:href="#md461cbf64c" x="187.215" y="253.44" style="stroke: #000000; stroke-width: 0.8"/>
      </g>
     </g>
     <g id="text_3">
      <!-- 0.50 -->
      <g transform="translate(176.082187 268.038437) scale(0.1 -0.1)">
       <use xlink:href="#DejaVuSans-30"/>
       <use xlink:href="#DejaVuSans-2e" x="63.623047"/>
       <use xlink:href="#DejaVuSans-35" x="95.410156"/>
       <use xlink:href="#DejaVuSans-30" x="159.033203"/>
      </g>
     </g>
    </g>
    <g id="xtick_4">
     <g id="line2d_4">
      <g>
       <use xlink:href="#md461cbf64c" x="229.065" y="253.44" style="stroke: #000000; stroke-width: 0.8"/>
      </g>
     </g>
     <g id="text_4">
      <!-- 0.75 -->
      <g transform="translate(217.932187 268.038437) scale(0.1 -0.1)">
       <defs>
        <path id="DejaVuSans-37" d="M 525 4666 
L 3525 4666 
L 3525 4397 
L 1831 0 
L 1172 0 
L 2766 4134 
L 525 4134 
L 525 4666 
z
" transform="scale(0.015625)"/>
       </defs>
       <use xlink:href="#DejaVuSans-30"/>
       <use xlink:href="#DejaVuSans-2e" x="63.623047"/>
       <use xlink:href="#DejaVuSans-37" x="95.410156"/>
       <use xlink:href="#DejaVuSans-35" x="159.033203"/>
      </g>
     </g>
    </g>
    <g id="xtick_5">
     <g id="line2d_5">
      <g>
       <use xlink:href="#md461cbf64c" x="270.915" y="253.44" style="stroke: #000000; stroke-width: 0.8"/>
      </g>
     </g>
     <g id="text_5">
      <!-- 1.00 -->
      <g transform="translate(259.782187 268.038437) scale(0.1 -0.1)">
       <defs>
        <path id="DejaVuSans-31" d="M 794 531 
L 1825 531 
L 1825 4091 
L 703 3866 
L 703 4441 
L 1819 4666 
L 2450 4666 
L 2450 531 
L 3481 531 
L 3481 0 
L 794 0 
L 794 531 
z
" transform="scale(0.015625)"/>
       </defs>
       <use xlink:href="#DejaVuSans-31"/>
       <use xlink:href="#DejaVuSans-2e" x="63.623047"/>
       <use xlink:href="#DejaVuSans-30" x="95.410156"/>
       <use xlink:href="#DejaVuSans-30" x="159.033203"/>
      </g>
     </g>
    </g>
    <g id="xtick_6">
     <g id="line2d_6">
      <g>
       <use xlink:href="#md461cbf64c" x="312.765" y="253.44" style="stroke: #000000; stroke-width: 0.8"/>
      </g>
     </g>
     <g id="text_6">
      <!-- 1.25 -->
      <g transform="translate(301.632187 268.038437) scale(0.1 -0.1)">
       <use xlink:href="#DejaVuSans-31"/>
       <use xlink:href="#DejaVuSans-2e" x="63.623047"/>
       <use xlink:href="#DejaVuSans-32" x="95.410156"/>
       <use xlink:href="#DejaVuSans-35" x="159.033203"/>
      </g>
     </g>
    </g>
    <g id="xtick_7">
     <g id="line2d_7">
      <g>
       <use xlink:href="#md461cbf64c" x="354.615" y="253.44" style="stroke: #000000; stroke-width: 0.8"/>
      </g>
     </g>
     <g id="text_7">
      <!-- 1.50 -->
      <g transform="translate(343.482188 268.038437) scale(0.1 -0.1)">
       <use xlink:href="#DejaVuSans-31"/>
       <use xlink:href="#DejaVuSans-2e" x="63.623047"/>
       <use xlink:href="#DejaVuSans-35" x="95.410156"/>
       <use xlink:href="#DejaVuSans-30" x="159.033203"/>
      </g>
     </g>
    </g>
    <g id="xtick_8">
     <g id="line2d_8">
      <g>
       <use xlink:href="#md461cbf64c" x="396.465" y="253.44" style="stroke: #000000; stroke-width: 0.8"/>
      </g>
     </g>
     <g id="text_8">
      <!-- 1.75 -->
      <g transform="translate(385.332187 268.038437) scale(0.1 -0.1)">
       <use xlink:href="#DejaVuSans-31"/>
       <use xlink:href="#DejaVuSans-2e" x="63.623047"/>
       <use xlink:href="#DejaVuSans-37" x="95.410156"/>
       <use xlink:href="#DejaVuSans-35" x="159.033203"/>
      </g>
     </g>
    </g>
    <g id="xtick_9">
     <g id="line2d_9">
      <g>
       <use xlink:href="#md461cbf64c" x="438.315" y="253.44" style="stroke: #000000; stroke-width: 0.8"/>
      </g>
     </g>
     <g id="text_9">
      <!-- 2.00 -->
      <g transform="translate(427.182187 268.038437) scale(0.1 -0.1)">
       <use xlink:href="#DejaVuSans-32"/>
       <use xlink:href="#DejaVuSans-2e" x="63.623047"/>
       <use xlink:href="#DejaVuSans-30" x="95.410156"/>
       <use xlink:href="#DejaVuSans-30" x="159.033203"/>
      </g>
     </g>
    </g>
    <g id="text_10">
     <!-- $t$ -->
     <g transform="translate(268.915 281.716562) scale(0.1 -0.1)">
      <defs>
       <path id="DejaVuSans-Oblique-74" d="M 2706 3500 
L 2619 3053 
L 1472 3053 
L 1100 1153 
Q 1081 1047 1072 975 
Q 1063 903 1063 863 
Q 1063 663 1183 572 
Q 1303 481 1569 481 
L 2150 481 
L 2053 0 
L 1503 0 
Q 991 0 739 200 
Q 488 400 488 806 
Q 488 878 497 964 
Q 506 1050 525 1153 
L 897 3053 
L 409 3053 
L 500 3500 
L 978 3500 
L 1172 4494 
L 1747 4494 
L 1556 3500 
L 2706 3500 
z
" transform="scale(0.015625)"/>
      </defs>
      <use xlink:href="#DejaVuSans-Oblique-74" transform="translate(0 0.78125)"/>
     </g>
    </g>
   </g>
   <g id="matplotlib.axis_2">
    <g id="ytick_1">
     <g id="line2d_10">
      <defs>
       <path id="mf033a3f31e" d="M 0 0 
L -3.5 0 
" style="stroke: #000000; stroke-width: 0.8"/>
      </defs>
      <g>
       <use xlink:href="#mf033a3f31e" x="103.515" y="246.140751" style="stroke: #000000; stroke-width: 0.8"/>
      </g>
     </g>
     <g id="text_11">
      <!-- −1.2 -->
      <g transform="translate(72.232187 249.93997) scale(0.1 -0.1)">
       <defs>
        <path id="DejaVuSans-2212" d="M 678 2272 
L 4684 2272 
L 4684 1741 
L 678 1741 
L 678 2272 
z
" transform="scale(0.015625)"/>
       </defs>
       <use xlink:href="#DejaVuSans-2212"/>
       <use xlink:href="#DejaVuSans-31" x="83.789062"/>
       <use xlink:href="#DejaVuSans-2e" x="147.412109"/>
       <use xlink:href="#DejaVuSans-32" x="179.199219"/>
      </g>
     </g>
    </g>
    <g id="ytick_2">
     <g id="line2d_11">
      <g>
       <use xlink:href="#mf033a3f31e" x="103.515" y="212.764565" style="stroke: #000000; stroke-width: 0.8"/>
      </g>
     </g>
     <g id="text_12">
      <!-- −1.0 -->
      <g transform="translate(72.232187 216.563784) scale(0.1 -0.1)">
       <use xlink:href="#DejaVuSans-2212"/>
       <use xlink:href="#DejaVuSans-31" x="83.789062"/>
       <use xlink:href="#DejaVuSans-2e" x="147.412109"/>
       <use xlink:href="#DejaVuSans-30" x="179.199219"/>
      </g>
     </g>
    </g>
    <g id="ytick_3">
     <g id="line2d_12">
      <g>
       <use xlink:href="#mf033a3f31e" x="103.515" y="179.388379" style="stroke: #000000; stroke-width: 0.8"/>
      </g>
     </g>
     <g id="text_13">
      <!-- −0.8 -->
      <g transform="translate(72.232187 183.187598) scale(0.1 -0.1)">
       <defs>
        <path id="DejaVuSans-38" d="M 2034 2216 
Q 1584 2216 1326 1975 
Q 1069 1734 1069 1313 
Q 1069 891 1326 650 
Q 1584 409 2034 409 
Q 2484 409 2743 651 
Q 3003 894 3003 1313 
Q 3003 1734 2745 1975 
Q 2488 2216 2034 2216 
z
M 1403 2484 
Q 997 2584 770 2862 
Q 544 3141 544 3541 
Q 544 4100 942 4425 
Q 1341 4750 2034 4750 
Q 2731 4750 3128 4425 
Q 3525 4100 3525 3541 
Q 3525 3141 3298 2862 
Q 3072 2584 2669 2484 
Q 3125 2378 3379 2068 
Q 3634 1759 3634 1313 
Q 3634 634 3220 271 
Q 2806 -91 2034 -91 
Q 1263 -91 848 271 
Q 434 634 434 1313 
Q 434 1759 690 2068 
Q 947 2378 1403 2484 
z
M 1172 3481 
Q 1172 3119 1398 2916 
Q 1625 2713 2034 2713 
Q 2441 2713 2670 2916 
Q 2900 3119 2900 3481 
Q 2900 3844 2670 4047 
Q 2441 4250 2034 4250 
Q 1625 4250 1398 4047 
Q 1172 3844 1172 3481 
z
" transform="scale(0.015625)"/>
       </defs>
       <use xlink:href="#DejaVuSans-2212"/>
       <use xlink:href="#DejaVuSans-30" x="83.789062"/>
       <use xlink:href="#DejaVuSans-2e" x="147.412109"/>
       <use xlink:href="#DejaVuSans-38" x="179.199219"/>
      </g>
     </g>
    </g>
    <g id="ytick_4">
     <g id="line2d_13">
      <g>
       <use xlink:href="#mf033a3f31e" x="103.515" y="146.012194" style="stroke: #000000; stroke-width: 0.8"/>
      </g>
     </g>
     <g id="text_14">
      <!-- −0.6 -->
      <g transform="translate(72.232187 149.811412) scale(0.1 -0.1)">
       <defs>
        <path id="DejaVuSans-36" d="M 2113 2584 
Q 1688 2584 1439 2293 
Q 1191 2003 1191 1497 
Q 1191 994 1439 701 
Q 1688 409 2113 409 
Q 2538 409 2786 701 
Q 3034 994 3034 1497 
Q 3034 2003 2786 2293 
Q 2538 2584 2113 2584 
z
M 3366 4563 
L 3366 3988 
Q 3128 4100 2886 4159 
Q 2644 4219 2406 4219 
Q 1781 4219 1451 3797 
Q 1122 3375 1075 2522 
Q 1259 2794 1537 2939 
Q 1816 3084 2150 3084 
Q 2853 3084 3261 2657 
Q 3669 2231 3669 1497 
Q 3669 778 3244 343 
Q 2819 -91 2113 -91 
Q 1303 -91 875 529 
Q 447 1150 447 2328 
Q 447 3434 972 4092 
Q 1497 4750 2381 4750 
Q 2619 4750 2861 4703 
Q 3103 4656 3366 4563 
z
" transform="scale(0.015625)"/>
       </defs>
       <use xlink:href="#DejaVuSans-2212"/>
       <use xlink:href="#DejaVuSans-30" x="83.789062"/>
       <use xlink:href="#DejaVuSans-2e" x="147.412109"/>
       <use xlink:href="#DejaVuSans-36" x="179.199219"/>
      </g>
     </g>
    </g>
    <g id="ytick_5">
     <g id="line2d_14">
      <g>
       <use xlink:href="#mf033a3f31e" x="103.515" y="112.636008" style="stroke: #000000; stroke-width: 0.8"/>
      </g>
     </g>
     <g id="text_15">
      <!-- −0.4 -->
      <g transform="translate(72.232187 116.435227) scale(0.1 -0.1)">
       <defs>
        <path id="DejaVuSans-34" d="M 2419 4116 
L 825 1625 
L 2419 1625 
L 2419 4116 
z
M 2253 4666 
L 3047 4666 
L 3047 1625 
L 3713 1625 
L 3713 1100 
L 3047 1100 
L 3047 0 
L 2419 0 
L 2419 1100 
L 313 1100 
L 313 1709 
L 2253 4666 
z
" transform="scale(0.015625)"/>
       </defs>
       <use xlink:href="#DejaVuSans-2212"/>
       <use xlink:href="#DejaVuSans-30" x="83.789062"/>
       <use xlink:href="#DejaVuSans-2e" x="147.412109"/>
       <use xlink:href="#DejaVuSans-34" x="179.199219"/>
      </g>
     </g>
    </g>
    <g id="ytick_6">
     <g id="line2d_15">
      <g>
       <use xlink:href="#mf033a3f31e" x="103.515" y="79.259822" style="stroke: #000000; stroke-width: 0.8"/>
      </g>
     </g>
     <g id="text_16">
      <!-- −0.2 -->
      <g transform="translate(72.232187 83.059041) scale(0.1 -0.1)">
       <use xlink:href="#DejaVuSans-2212"/>
       <use xlink:href="#DejaVuSans-30" x="83.789062"/>
       <use xlink:href="#DejaVuSans-2e" x="147.412109"/>
       <use xlink:href="#DejaVuSans-32" x="179.199219"/>
      </g>
     </g>
    </g>
    <g id="ytick_7">
     <g id="line2d_16">
      <g>
       <use xlink:href="#mf033a3f31e" x="103.515" y="45.883636" style="stroke: #000000; stroke-width: 0.8"/>
      </g>
     </g>
     <g id="text_17">
      <!-- 0.0 -->
      <g transform="translate(80.611875 49.682855) scale(0.1 -0.1)">
       <use xlink:href="#DejaVuSans-30"/>
       <use xlink:href="#DejaVuSans-2e" x="63.623047"/>
       <use xlink:href="#DejaVuSans-30" x="95.410156"/>
      </g>
     </g>
    </g>
   </g>
   <g id="line2d_17">
    <path d="M 103.6824 45.883636 
L 185.0388 45.883636 
L 185.2062 62.073181 
L 185.7084 57.877146 
L 185.8758 70.528164 
L 186.0432 68.182927 
L 186.378 79.962508 
L 186.5454 92.909019 
L 186.7128 88.433962 
L 186.8802 98.177115 
L 187.5498 80.937004 
L 188.052 113.426873 
L 188.2194 110.767468 
L 188.3868 104.592955 
L 188.7216 123.609265 
L 189.0564 109.519999 
L 189.2238 111.67748 
L 189.5586 140.531679 
L 189.8934 123.374899 
L 190.0608 128.904397 
L 190.2282 129.217209 
L 190.3956 142.211752 
L 190.563 141.315381 
L 190.7304 146.026201 
L 190.8978 136.496376 
L 191.2326 146.612785 
L 191.4 150.819491 
L 191.5674 148.733554 
L 191.7348 138.94609 
L 191.9022 146.484136 
L 192.0696 162.68455 
L 192.4044 141.398039 
L 192.5718 170.530997 
L 192.9066 150.41678 
L 193.074 149.473019 
L 193.2414 169.597082 
L 193.4088 159.043302 
L 193.5762 157.249047 
L 193.7436 160.275372 
L 193.911 173.666288 
L 194.2458 153.764741 
L 194.5806 177.313942 
L 194.748 165.666266 
L 194.9154 170.227225 
L 195.0828 157.299525 
L 195.2502 162.760349 
L 195.4176 184.39765 
L 195.7524 157.920488 
L 196.2546 172.909502 
L 196.422 160.471179 
L 196.5894 180.344648 
L 196.7568 167.361916 
L 196.9242 163.141798 
L 197.259 181.6856 
L 197.4264 166.85778 
L 197.7612 190.021026 
L 197.9286 176.839389 
L 198.096 177.135824 
L 198.2634 164.645527 
L 198.5982 190.425871 
L 198.933 161.439204 
L 199.1004 177.5677 
L 199.2678 177.201199 
L 199.4352 173.807654 
L 199.77 187.249506 
L 199.9374 172.445183 
L 200.1048 171.940807 
L 200.2722 189.680282 
L 200.4396 184.041297 
L 200.607 170.198225 
L 200.7744 188.794957 
L 200.9418 183.101824 
L 201.2766 197.086376 
L 201.444 182.111826 
L 201.6114 190.292089 
L 201.7788 185.856691 
L 201.9462 189.054535 
L 202.1136 188.482586 
L 202.281 184.522177 
L 202.4484 196.29482 
L 202.6158 194.882599 
L 202.9506 169.758259 
L 203.118 201.144404 
L 203.4528 176.855915 
L 203.6202 199.039163 
L 203.7876 195.083883 
L 203.955 183.213728 
L 204.1224 196.501118 
L 204.6246 187.476195 
L 204.792 190.824711 
L 204.9594 187.7429 
L 205.2942 197.21205 
L 205.4616 183.931698 
L 205.7964 203.303194 
L 205.9638 203.74418 
L 206.1312 196.923287 
L 206.2986 197.543112 
L 206.466 206.292409 
L 206.8008 186.450047 
L 206.9682 204.094185 
L 207.1356 187.169953 
L 207.303 183.44072 
L 207.4704 210.039285 
L 207.8052 179.975213 
L 207.9726 214.297778 
L 208.14 197.730956 
L 208.3074 199.0819 
L 208.4748 209.887867 
L 208.6422 201.737215 
L 208.8096 200.946809 
L 208.977 203.914548 
L 209.1444 197.126667 
L 209.3118 205.461057 
L 209.4792 206.804572 
L 209.6466 192.526782 
L 209.814 206.66845 
L 209.9814 194.062417 
L 210.1488 210.653975 
L 210.3162 193.471448 
L 210.4836 196.963355 
L 210.651 214.300257 
L 210.8184 196.275455 
L 210.9858 192.235481 
L 211.1532 217.715448 
L 211.488 185.680999 
L 211.6554 212.960238 
L 211.8228 204.812118 
L 211.9902 203.413639 
L 212.1576 213.266469 
L 212.325 197.368107 
L 212.4924 205.482389 
L 212.6598 207.156602 
L 212.9946 201.164193 
L 213.162 210.244322 
L 213.3294 203.839487 
L 213.4968 202.929142 
L 213.6642 212.446241 
L 213.8316 210.24139 
L 213.999 205.330214 
L 214.1664 205.103486 
L 214.3338 211.579937 
L 214.5012 207.368553 
L 214.6686 206.587222 
L 214.836 204.807169 
L 215.0034 207.986207 
L 215.1708 205.142164 
L 215.3382 209.243472 
L 215.5056 193.187808 
L 215.673 207.90119 
L 215.8404 212.179803 
L 216.0078 195.347154 
L 216.1752 213.796754 
L 216.3426 213.599086 
L 216.51 209.946323 
L 216.6774 196.038688 
L 216.8448 215.929859 
L 217.0122 211.51647 
L 217.1796 196.86244 
L 217.5144 215.286878 
L 217.6818 200.363782 
L 217.8492 209.26942 
L 218.184 202.203145 
L 218.3514 218.056466 
L 218.6862 203.913481 
L 218.8536 217.62611 
L 219.021 210.655146 
L 219.1884 197.104236 
L 219.3558 217.969716 
L 219.6906 211.685351 
L 220.0254 207.286565 
L 220.1928 210.589402 
L 220.3602 210.39478 
L 220.5276 207.64551 
L 220.695 211.637546 
L 220.8624 211.499528 
L 221.0298 213.765785 
L 221.1972 203.508978 
L 221.3646 217.922041 
L 221.532 212.772949 
L 221.6994 196.456891 
L 221.8668 232.383153 
L 222.2016 196.086645 
L 222.369 231.443575 
L 222.7038 196.274667 
L 222.8712 221.631381 
L 223.0386 213.488507 
L 223.206 214.586089 
L 223.3734 211.534054 
L 223.5408 205.131923 
L 223.7082 213.939963 
L 223.8756 214.220465 
L 224.043 205.218345 
L 224.2104 214.00584 
L 224.3778 213.961315 
L 224.5452 219.232841 
L 224.7126 205.559793 
L 224.88 214.406602 
L 225.0474 212.819869 
L 225.2148 205.263725 
L 225.3822 214.694914 
L 225.5496 214.002572 
L 225.717 206.586579 
L 225.8844 220.403589 
L 226.2192 206.360059 
L 226.3866 221.715996 
L 226.554 205.718498 
L 226.7214 228.292859 
L 227.0562 204.114673 
L 227.2236 228.095261 
L 227.391 219.74536 
L 227.5584 203.26294 
L 227.7258 216.027993 
L 227.8932 219.548932 
L 228.228 216.497152 
L 228.3954 218.937473 
L 228.5628 216.529186 
L 228.7302 217.335924 
L 228.8976 201.844133 
L 229.2324 217.880839 
L 229.3998 216.773397 
L 229.5672 214.515267 
L 229.7346 217.244508 
L 230.0694 205.740294 
L 230.2368 232.175728 
L 230.4042 211.636058 
L 230.5716 207.635824 
L 230.739 230.660003 
L 231.0738 198.223571 
L 231.2412 220.04398 
L 231.4086 213.246227 
L 231.576 213.074789 
L 231.7434 219.133492 
L 231.9108 204.491017 
L 232.2456 219.461333 
L 232.413 221.186317 
L 232.5804 209.990338 
L 232.7478 220.101457 
L 232.9152 219.055233 
L 233.0826 201.894755 
L 233.4174 217.481229 
L 233.5848 201.820703 
L 233.7522 229.037749 
L 233.9196 217.979769 
L 234.087 219.240561 
L 234.2544 215.397377 
L 234.4218 216.352695 
L 234.5892 231.931287 
L 234.7566 214.339522 
L 234.924 213.444504 
L 235.0914 229.499571 
L 235.4262 205.613443 
L 235.5936 228.887666 
L 235.761 211.718268 
L 235.9284 211.754622 
L 236.0958 228.097635 
L 236.2632 210.631599 
L 236.4306 209.022651 
L 236.7654 226.752161 
L 236.9328 208.021875 
L 237.2676 225.127304 
L 237.435 207.372657 
L 237.6024 217.191477 
L 237.7698 214.327008 
L 237.9372 207.030355 
L 238.1046 231.711888 
L 238.272 212.013766 
L 238.4394 207.700554 
L 238.6068 221.655417 
L 238.7742 213.550994 
L 238.9416 212.381265 
L 239.109 220.002019 
L 239.2764 214.406133 
L 239.4438 228.701314 
L 239.6112 217.628948 
L 239.7786 225.57639 
L 239.946 224.984626 
L 240.1134 210.709873 
L 240.2808 222.823478 
L 240.4482 221.819088 
L 240.6156 208.089267 
L 240.783 222.540689 
L 241.1178 219.617492 
L 241.2852 202.547267 
L 241.4526 224.552439 
L 241.62 216.956788 
L 241.7874 202.922195 
L 241.9548 237.622842 
L 242.2896 201.131014 
L 242.457 225.845671 
L 242.6244 217.756936 
L 242.7918 203.868762 
L 242.9592 224.614782 
L 243.1266 216.513872 
L 243.294 215.662937 
L 243.4614 224.038841 
L 243.6288 206.974075 
L 243.7962 231.172626 
L 243.9636 213.414082 
L 244.2984 227.903529 
L 244.4658 211.761991 
L 244.6332 218.36904 
L 244.8006 219.690016 
L 244.968 224.351527 
L 245.1354 216.437004 
L 245.3028 217.1072 
L 245.4702 223.092908 
L 245.6376 214.05772 
L 245.805 215.728577 
L 245.9724 222.777191 
L 246.1398 214.084485 
L 246.3072 228.832391 
L 246.642 204.593465 
L 246.8094 226.300461 
L 246.9768 212.109375 
L 247.3116 226.884368 
L 247.479 209.581071 
L 247.6464 207.247137 
L 247.8138 226.068505 
L 247.9812 210.066508 
L 248.1486 223.283994 
L 248.316 226.692668 
L 248.8182 214.440566 
L 249.3204 227.083149 
L 249.4878 215.803138 
L 249.6552 220.633141 
L 249.99 209.63191 
L 250.1574 232.777838 
L 250.3248 212.150201 
L 250.4922 207.410943 
L 250.6596 231.059599 
L 250.827 212.833273 
L 250.9944 206.896383 
L 251.1618 221.197859 
L 251.3292 215.121918 
L 251.4966 219.816194 
L 251.664 219.53772 
L 251.8314 212.20701 
L 251.9988 235.70017 
L 252.1662 215.943446 
L 252.501 232.205606 
L 252.6684 212.351115 
L 252.8358 213.11777 
L 253.1706 228.000497 
L 253.338 212.223621 
L 253.5054 217.75409 
L 253.6728 228.417975 
L 253.8402 209.28805 
L 254.0076 208.082592 
L 254.175 226.475505 
L 254.3424 209.081906 
L 254.5098 225.142942 
L 254.6772 224.0708 
L 254.8446 206.235874 
L 255.012 224.234449 
L 255.1794 214.292776 
L 255.3468 235.836377 
L 255.6816 210.047191 
L 255.849 236.826736 
L 256.0164 218.286386 
L 256.1838 213.528745 
L 256.3512 224.622898 
L 256.686 211.337712 
L 256.8534 223.30097 
L 257.0208 214.561789 
L 257.1882 214.634946 
L 257.523 225.981042 
L 257.6904 211.858771 
L 257.8578 221.010209 
L 258.1926 210.815004 
L 258.36 231.912387 
L 258.6948 208.587727 
L 258.8622 230.21172 
L 259.0296 216.257021 
L 259.197 228.362003 
L 259.5318 213.017117 
L 259.6992 226.016452 
L 259.8666 220.845092 
L 260.034 223.542364 
L 260.2014 222.122239 
L 260.3688 209.039523 
L 260.5362 222.392807 
L 260.7036 224.202983 
L 260.871 207.125285 
L 261.0384 221.499065 
L 261.2058 224.138876 
L 261.3732 217.57007 
L 261.708 221.760551 
L 261.8754 217.461933 
L 262.0428 209.656473 
L 262.2102 232.464056 
L 262.3776 215.562785 
L 262.7124 230.055168 
L 262.8798 211.215197 
L 263.0472 227.711579 
L 263.382 211.847939 
L 263.5494 226.59159 
L 263.8842 211.168353 
L 264.0516 224.994099 
L 264.219 216.807033 
L 264.3864 216.084211 
L 264.5538 223.346327 
L 264.7212 213.37855 
L 264.8886 214.072824 
L 265.2234 229.633089 
L 265.3908 211.907473 
L 265.7256 227.610133 
L 265.893 208.90981 
L 266.0604 223.576889 
L 266.2278 225.112383 
L 266.3952 224.600025 
L 266.5626 222.621599 
L 266.73 212.475956 
L 266.8974 236.551304 
L 267.2322 202.22016 
L 267.3996 234.354379 
L 267.7344 201.458672 
L 267.9018 233.760969 
L 268.0692 217.008354 
L 268.2366 214.385446 
L 268.404 223.069781 
L 268.5714 213.828729 
L 268.7388 212.854063 
L 269.0736 228.575323 
L 269.241 210.979881 
L 269.5758 226.646727 
L 269.7432 226.825576 
L 269.9106 229.712904 
L 270.078 213.041048 
L 270.2454 222.625564 
L 270.4128 220.192559 
L 270.5802 214.512037 
L 270.7476 233.642511 
L 271.0824 211.6758 
L 271.2498 224.504061 
L 271.4172 218.685376 
L 271.5846 208.859261 
L 271.752 224.447002 
L 271.9194 216.922303 
L 272.2542 222.632398 
L 272.4216 205.295744 
L 272.589 222.421271 
L 272.7564 222.774983 
L 272.9238 218.721927 
L 273.0912 234.471442 
L 273.2586 217.580224 
L 273.426 216.051178 
L 273.5934 233.070443 
L 273.7608 230.31687 
L 273.9282 211.886175 
L 274.0956 213.282729 
L 274.263 228.591718 
L 274.4304 211.007795 
L 274.5978 213.203323 
L 274.7652 225.951972 
L 274.9326 208.639163 
L 275.1 225.619909 
L 275.4348 210.718164 
L 275.6022 222.824013 
L 275.7696 216.240888 
L 275.937 223.121961 
L 276.1044 222.193611 
L 276.2718 213.399396 
L 276.4392 227.710623 
L 276.6066 220.9734 
L 276.774 227.624143 
L 276.9414 224.040685 
L 277.1088 216.699131 
L 277.2762 224.549676 
L 277.611 227.421281 
L 277.7784 210.92438 
L 277.9458 221.530096 
L 278.1132 219.646041 
L 278.2806 210.975456 
L 278.448 219.48495 
L 278.6154 216.912362 
L 278.7828 210.793585 
L 278.9502 232.694716 
L 279.285 200.120878 
L 279.4524 232.724809 
L 279.6198 215.982204 
L 279.7872 229.56076 
L 279.9546 229.193314 
L 280.122 212.758905 
L 280.2894 224.332545 
L 280.4568 225.65143 
L 280.6242 224.146845 
L 280.7916 224.000454 
L 280.959 216.42022 
L 281.1264 220.98252 
L 281.2938 221.535393 
L 281.6286 217.606031 
L 281.796 219.469496 
L 281.9634 218.506356 
L 282.1308 211.108078 
L 282.2982 219.669824 
L 282.4656 216.51708 
L 282.8004 230.94824 
L 282.9678 213.010267 
L 283.1352 224.287201 
L 283.3026 219.702428 
L 283.47 211.989978 
L 283.6374 236.630644 
L 283.9722 209.153744 
L 284.1396 233.468685 
L 284.307 214.562004 
L 284.6418 230.085661 
L 284.8092 214.007041 
L 284.9766 211.935666 
L 285.3114 226.963192 
L 285.4788 209.905156 
L 285.8136 226.261234 
L 285.981 223.623741 
L 286.1484 209.805435 
L 286.3158 223.308529 
L 286.6506 222.855374 
L 286.818 218.747285 
L 286.9854 220.848433 
L 287.3202 219.160554 
L 287.4876 233.182512 
L 287.8224 208.632048 
L 287.9898 231.878213 
L 288.1572 214.651417 
L 288.492 230.376639 
L 288.6594 211.9935 
L 288.8268 220.261741 
L 288.9942 219.582339 
L 289.329 226.596896 
L 289.4964 216.396466 
L 289.6638 221.813396 
L 289.8312 223.195363 
L 289.9986 212.6355 
L 290.166 223.807503 
L 290.3334 221.075339 
L 290.5008 224.98126 
L 290.6682 210.89295 
L 291.003 225.592609 
L 291.1704 209.71972 
L 291.3378 231.899799 
L 291.5052 222.993094 
L 291.6726 206.365143 
L 291.84 221.123037 
L 292.0074 222.258992 
L 292.1748 236.21238 
L 292.3422 219.281533 
L 292.5096 218.77942 
L 292.677 231.983283 
L 292.8444 216.853562 
L 293.1792 226.916869 
L 293.3466 214.188823 
L 293.514 210.81672 
L 293.6814 229.935329 
L 293.8488 225.749062 
L 294.0162 208.132766 
L 294.1836 228.150989 
L 294.351 223.060227 
L 294.5184 204.790446 
L 294.6858 218.039665 
L 294.8532 222.485037 
L 295.0206 210.26218 
L 295.188 230.168037 
L 295.3554 218.723554 
L 295.6902 226.582137 
L 295.8576 220.095819 
L 296.025 233.786166 
L 296.3598 208.664537 
L 296.5272 229.995066 
L 296.6946 220.137766 
L 296.862 220.888581 
L 297.0294 226.043478 
L 297.1968 210.53897 
L 297.3642 218.282551 
L 297.5316 217.061885 
L 297.699 225.613163 
L 297.8664 215.407649 
L 298.0338 215.186169 
L 298.3686 229.712206 
L 298.536 215.990969 
L 298.7034 212.617714 
L 298.8708 227.484748 
L 299.0382 227.28427 
L 299.2056 209.585181 
L 299.373 226.974763 
L 299.5404 224.5955 
L 299.7078 206.760512 
L 299.8752 240.418025 
L 300.21 204.084234 
L 300.3774 230.148208 
L 300.5448 219.776397 
L 300.7122 217.891213 
L 301.047 217.719868 
L 301.2144 218.45799 
L 301.3818 216.619948 
L 301.7166 231.095534 
L 301.884 212.824695 
L 302.2188 229.400316 
L 302.3862 210.947905 
L 302.721 227.219055 
L 302.8884 224.075405 
L 303.0558 215.720359 
L 303.2232 217.032496 
L 303.3906 221.396903 
L 303.558 213.759033 
L 303.7254 228.229326 
L 304.0602 213.253404 
L 304.2276 225.787159 
L 304.395 212.243329 
L 304.5624 240.99563 
L 304.8972 208.412541 
L 305.0646 230.748824 
L 305.3994 219.239284 
L 305.5668 226.684522 
L 305.9016 215.406486 
L 306.069 215.948595 
L 306.2364 233.04073 
L 306.4038 214.55876 
L 306.5712 216.038932 
L 306.7386 228.126561 
L 306.906 212.32724 
L 307.2408 218.528938 
L 307.4082 211.865715 
L 307.5756 226.888639 
L 307.743 218.538401 
L 307.9104 229.195973 
L 308.2452 215.69083 
L 308.4126 239.529376 
L 308.7474 213.415368 
L 308.9148 226.633007 
L 309.0822 219.017315 
L 309.2496 216.921743 
L 309.417 224.448506 
L 309.7518 214.725146 
L 309.9192 223.286572 
L 310.0866 221.630243 
L 310.254 213.015832 
L 310.4214 222.844211 
L 310.5888 219.673824 
L 310.7562 228.186294 
L 311.091 217.520484 
L 311.4258 231.773767 
L 311.5932 212.559067 
L 311.7606 215.958973 
L 311.928 229.807035 
L 312.0954 213.005667 
L 312.2628 225.820268 
L 312.4302 225.866894 
L 312.5976 211.460847 
L 312.765 224.756638 
L 312.9324 215.020154 
L 313.0998 222.947743 
L 313.2672 221.680776 
L 313.4346 208.44309 
L 313.602 220.846927 
L 313.7694 220.719062 
L 313.9368 220.017837 
L 314.1042 235.872523 
L 314.439 214.57518 
L 314.6064 225.116069 
L 314.9412 212.516408 
L 315.276 229.029091 
L 315.4434 212.642289 
L 315.6108 222.895106 
L 315.9456 211.643617 
L 316.113 234.229185 
L 316.4478 209.252187 
L 316.6152 231.488835 
L 316.7826 216.281204 
L 316.95 238.437599 
L 317.1174 219.211514 
L 317.2848 212.768801 
L 317.4522 226.707946 
L 317.6196 217.557263 
L 317.787 224.30806 
L 317.9544 223.619484 
L 318.1218 217.399948 
L 318.2892 223.337577 
L 318.624 218.208485 
L 318.9588 221.582679 
L 319.1262 218.849517 
L 319.461 217.5919 
L 319.6284 215.905958 
L 319.7958 209.546502 
L 319.9632 233.416771 
L 320.1306 213.909641 
L 320.4654 230.123544 
L 320.6328 211.414241 
L 320.8002 235.89241 
L 321.135 210.596678 
L 321.3024 224.958389 
L 321.4698 215.870869 
L 321.6372 222.711255 
L 321.8046 222.250176 
L 321.972 215.171131 
L 322.1394 220.115195 
L 322.3068 220.155017 
L 322.4742 225.213772 
L 322.6416 211.313462 
L 322.9764 224.228948 
L 323.1438 208.611971 
L 323.4786 225.954963 
L 323.646 224.646269 
L 323.8134 227.265496 
L 324.1482 219.508007 
L 324.3156 217.140732 
L 324.483 220.610497 
L 324.6504 231.878424 
L 324.9852 208.143373 
L 325.1526 228.939396 
L 325.32 216.067951 
L 325.4874 211.880952 
L 325.6548 230.148138 
L 325.8222 213.13611 
L 325.9896 209.201394 
L 326.157 231.592621 
L 326.3244 224.440389 
L 326.4918 223.656376 
L 326.6592 227.085008 
L 326.8266 220.804434 
L 326.994 224.298787 
L 327.1614 213.987484 
L 327.4962 222.938091 
L 327.6636 225.994505 
L 327.831 216.673024 
L 327.9984 219.331144 
L 328.1658 224.050769 
L 328.3332 209.582271 
L 328.5006 231.668014 
L 328.8354 206.040085 
L 329.0028 229.115495 
L 329.1702 213.65583 
L 329.505 226.404598 
L 329.6724 212.498209 
L 329.8398 234.052122 
L 330.0072 214.801888 
L 330.342 229.750628 
L 330.5094 215.238215 
L 330.8442 227.47843 
L 331.0116 226.592955 
L 331.179 209.052309 
L 331.3464 225.317966 
L 331.5138 224.161599 
L 331.6812 207.135913 
L 331.8486 226.813251 
L 332.016 222.450418 
L 332.1834 204.614639 
L 332.3508 238.914641 
L 332.5182 220.218204 
L 332.6856 219.038645 
L 332.853 226.447137 
L 333.0204 216.955174 
L 333.1878 233.099256 
L 333.3552 214.774685 
L 333.5226 213.827798 
L 333.69 230.707293 
L 333.8574 212.432443 
L 334.0248 218.527955 
L 334.1922 229.312149 
L 334.3596 210.339931 
L 334.6944 227.752631 
L 335.0292 216.988973 
L 335.1966 223.492402 
L 335.364 221.081066 
L 335.5314 214.315118 
L 335.6988 212.66616 
L 336.0336 227.718158 
L 336.201 225.478947 
L 336.3684 219.351827 
L 336.5358 224.163249 
L 336.7032 222.977546 
L 336.8706 207.175112 
L 337.038 237.029188 
L 337.3728 203.232904 
L 337.5402 229.277136 
L 337.875 216.121278 
L 338.0424 228.598781 
L 338.2098 216.874267 
L 338.3772 213.570486 
L 338.5446 216.963672 
L 338.712 230.628423 
L 338.8794 230.708713 
L 339.0468 211.724918 
L 339.2142 226.722031 
L 339.3816 228.223009 
L 339.549 210.517349 
L 339.8838 224.687424 
L 340.0512 223.228561 
L 340.2186 213.761139 
L 340.386 224.529298 
L 340.5534 220.531992 
L 340.7208 212.36796 
L 340.8882 236.931532 
L 341.223 210.177357 
L 341.3904 225.039676 
L 341.5578 216.3938 
L 341.7252 215.407453 
L 341.8926 224.95423 
L 342.06 216.887291 
L 342.2274 229.802686 
L 342.3948 221.443204 
L 342.5622 218.674126 
L 342.7296 226.890135 
L 342.897 218.232547 
L 343.0644 216.411866 
L 343.3992 232.022404 
L 343.5666 212.328035 
L 343.9014 229.140446 
L 344.0688 210.787654 
L 344.2362 211.420136 
L 344.4036 228.393548 
L 344.571 210.478528 
L 344.7384 226.082639 
L 344.9058 223.825704 
L 345.0732 225.033024 
L 345.2406 223.546987 
L 345.408 204.613979 
L 345.5754 236.935778 
L 345.9102 204.036079 
L 346.0776 237.903339 
L 346.245 215.930683 
L 346.4124 215.367744 
L 346.5798 224.848161 
L 346.7472 216.611441 
L 346.9146 217.02417 
L 347.2494 229.481305 
L 347.4168 212.947848 
L 347.7516 227.29757 
L 347.919 209.389442 
L 348.0864 219.94496 
L 348.2538 219.70917 
L 348.4212 223.468938 
L 348.5886 232.205362 
L 348.756 213.734473 
L 349.0908 228.715029 
L 349.2582 210.442166 
L 349.4256 227.519339 
L 349.7604 210.879585 
L 349.9278 225.720966 
L 350.0952 215.188567 
L 350.2626 224.822515 
L 350.43 221.50032 
L 350.5974 215.438146 
L 350.7648 222.11766 
L 350.9322 221.859739 
L 351.0996 220.12528 
L 351.267 234.103409 
L 351.4344 218.721009 
L 351.6018 216.495905 
L 351.7692 231.095078 
L 351.9366 229.249322 
L 352.104 211.428486 
L 352.4388 228.860765 
L 352.6062 209.430636 
L 352.941 225.833293 
L 353.1084 207.730753 
L 353.2758 232.159646 
L 353.4432 223.475881 
L 353.6106 207.218838 
L 353.778 223.970581 
L 353.9454 212.406513 
L 354.1128 236.744493 
L 354.4476 210.608274 
L 354.615 235.572574 
L 354.7824 215.414802 
L 354.9498 223.472989 
L 355.1172 223.320535 
L 355.2846 214.134479 
L 355.452 223.184944 
L 355.6194 220.237753 
L 355.7868 228.095119 
L 355.9542 219.161006 
L 356.1216 217.867848 
L 356.289 226.879702 
L 356.4564 215.816268 
L 356.6238 216.685654 
L 356.7912 215.437665 
L 356.9586 215.050396 
L 357.126 232.091232 
L 357.2934 212.425206 
L 357.4608 230.914284 
L 357.6282 226.819336 
L 357.7956 209.71508 
L 357.963 225.1049 
L 358.1304 226.277264 
L 358.2978 209.38632 
L 358.4652 222.106038 
L 358.6326 223.945369 
L 358.9674 219.752206 
L 359.1348 222.623199 
L 359.3022 217.516953 
L 359.4696 219.873588 
L 359.637 225.913761 
L 359.8044 216.133397 
L 360.1392 222.182867 
L 360.3066 232.443046 
L 360.474 229.131153 
L 360.6414 217.689695 
L 360.8088 219.939927 
L 360.9762 225.035035 
L 361.1436 217.287546 
L 361.311 218.791918 
L 361.4784 221.746819 
L 361.6458 216.970127 
L 361.8132 230.344649 
L 362.148 207.421335 
L 362.3154 227.419241 
L 362.4828 212.654978 
L 362.8176 225.706954 
L 362.985 211.733258 
L 363.1524 215.169025 
L 363.3198 224.080686 
L 363.4872 224.926519 
L 363.6546 221.80479 
L 363.822 225.076977 
L 364.1568 218.668282 
L 364.3242 236.161936 
L 364.4916 216.777176 
L 364.659 218.430312 
L 364.8264 231.879808 
L 364.9938 213.023426 
L 365.3286 221.571005 
L 365.496 211.055136 
L 365.6634 229.040576 
L 365.9982 213.657904 
L 366.1656 226.633678 
L 366.333 208.456498 
L 366.5004 233.734015 
L 366.8352 207.758508 
L 367.0026 230.953533 
L 367.17 220.824552 
L 367.3374 220.61708 
L 367.5048 228.116092 
L 367.6722 219.409932 
L 367.8396 217.592693 
L 368.007 225.660444 
L 368.3418 214.083718 
L 368.5092 225.054269 
L 368.6766 222.39308 
L 368.844 212.136485 
L 369.0114 235.198947 
L 369.3462 202.640585 
L 369.5136 233.881138 
L 369.681 216.404946 
L 369.8484 218.191225 
L 370.0158 232.644138 
L 370.1832 214.257072 
L 370.3506 227.53616 
L 370.6854 212.612581 
L 370.8528 226.410508 
L 371.0202 211.09058 
L 371.1876 223.890604 
L 371.355 226.297746 
L 371.5224 209.623067 
L 371.6898 223.648576 
L 371.8572 224.481543 
L 372.192 212.757766 
L 372.3594 223.167599 
L 372.5268 218.025436 
L 372.6942 229.156242 
L 372.8616 232.010425 
L 373.029 216.691757 
L 373.3638 229.15118 
L 373.5312 215.165515 
L 373.6986 221.245712 
L 374.0334 213.426899 
L 374.2008 226.550989 
L 374.5356 209.454703 
L 374.703 224.8257 
L 375.0378 214.960221 
L 375.2052 223.602169 
L 375.3726 215.56139 
L 375.54 213.461833 
L 375.8748 228.530697 
L 376.0422 226.362097 
L 376.2096 219.407796 
L 376.377 225.317627 
L 376.5444 224.560281 
L 376.8792 221.494424 
L 377.0466 221.917557 
L 377.214 219.683353 
L 377.3814 220.591369 
L 377.5488 235.113076 
L 377.7162 215.7162 
L 377.8836 209.45038 
L 378.051 232.895075 
L 378.3858 206.554501 
L 378.5532 230.137183 
L 378.7206 215.600645 
L 378.888 229.240384 
L 379.0554 226.318673 
L 379.2228 211.093034 
L 379.3902 226.360196 
L 379.5576 216.627681 
L 379.8924 224.905244 
L 380.0598 215.368157 
L 380.2272 222.717276 
L 380.3946 221.864656 
L 380.562 227.138215 
L 380.7294 211.292168 
L 381.0642 225.104848 
L 381.2316 210.202853 
L 381.399 231.953114 
L 381.7338 221.544138 
L 381.9012 228.773096 
L 382.0686 220.713125 
L 382.4034 219.912366 
L 382.5708 216.33708 
L 382.7382 232.643656 
L 383.073 207.580088 
L 383.2404 230.629167 
L 383.4078 213.473949 
L 383.5752 212.184999 
L 383.7426 230.753878 
L 383.91 212.021505 
L 384.0774 211.266342 
L 384.2448 227.231204 
L 384.4122 226.473575 
L 384.5796 208.601889 
L 384.747 225.890867 
L 384.9144 223.408826 
L 385.0818 223.922014 
L 385.2492 229.407983 
L 385.4166 220.570994 
L 385.584 219.838708 
L 385.7514 228.135632 
L 385.9188 216.470142 
L 386.0862 231.749244 
L 386.2536 223.542904 
L 386.421 207.10235 
L 386.5884 232.159895 
L 386.9232 205.78376 
L 387.0906 229.434832 
L 387.258 209.934907 
L 387.5928 226.846088 
L 387.7602 210.720297 
L 387.9276 234.057532 
L 388.095 214.881612 
L 388.4298 230.397503 
L 388.5972 213.158398 
L 388.932 227.135463 
L 389.0994 226.339479 
L 389.2668 210.766762 
L 389.4342 225.271783 
L 389.6016 223.056169 
L 389.769 206.675926 
L 389.9364 239.25138 
L 390.2712 203.595342 
L 390.4386 236.028903 
L 390.7734 201.099822 
L 390.9408 227.82325 
L 391.1082 217.72758 
L 391.2756 232.375206 
L 391.443 215.007001 
L 391.6104 215.192766 
L 391.7778 231.727239 
L 391.9452 211.937824 
L 392.28 228.925435 
L 392.4474 211.415913 
L 392.7822 226.361036 
L 392.9496 224.263769 
L 393.117 215.612895 
L 393.2844 224.657957 
L 393.6192 213.754539 
L 393.7866 229.859403 
L 393.954 218.779725 
L 394.1214 228.118064 
L 394.2888 225.069531 
L 394.4562 216.628189 
L 394.6236 240.502113 
L 394.9584 205.259733 
L 395.1258 228.567288 
L 395.4606 205.442978 
L 395.628 226.567591 
L 395.9628 216.575165 
L 396.1302 222.761492 
L 396.465 215.104476 
L 396.6324 215.544302 
L 396.7998 231.478379 
L 396.9672 227.246793 
L 397.1346 214.023462 
L 397.302 227.021536 
L 397.4694 227.437606 
L 397.6368 225.313728 
L 397.8042 213.413962 
L 397.9716 226.862409 
L 398.139 222.249723 
L 398.3064 212.289144 
L 398.4738 237.782755 
L 398.6412 216.375207 
L 398.8086 212.481007 
L 398.976 235.379237 
L 399.3108 203.201004 
L 399.4782 225.976722 
L 399.6456 213.879648 
L 399.813 215.632869 
L 399.9804 222.481248 
L 400.1478 216.316357 
L 400.3152 229.876975 
L 400.4826 219.32616 
L 400.65 220.005003 
L 400.8174 226.056595 
L 400.9848 217.782065 
L 401.1522 217.180422 
L 401.487 232.567098 
L 401.6544 212.883282 
L 401.9892 229.351266 
L 402.1566 210.890142 
L 402.324 225.616965 
L 402.4914 225.895223 
L 402.6588 208.431809 
L 402.8262 226.350036 
L 402.9936 224.003185 
L 403.161 237.261651 
L 403.4958 203.028902 
L 403.6632 235.877936 
L 403.998 203.360626 
L 404.1654 234.45013 
L 404.3328 215.626055 
L 404.5002 214.356926 
L 404.6676 232.979713 
L 404.835 215.354987 
L 405.0024 211.683664 
L 405.3372 228.216892 
L 405.5046 210.93024 
L 405.672 221.641668 
L 405.8394 224.16428 
L 406.0068 211.001776 
L 406.1742 232.259623 
L 406.3416 214.190912 
L 406.509 225.607636 
L 406.6764 228.158047 
L 406.8438 214.286263 
L 407.0112 236.024736 
L 407.346 211.497278 
L 407.5134 231.629115 
L 407.8482 208.953811 
L 408.0156 220.278322 
L 408.183 216.092943 
L 408.5178 221.26086 
L 408.6852 215.778485 
L 409.02 221.726321 
L 409.1874 217.693788 
L 409.3548 232.430086 
L 409.6896 213.908457 
L 409.857 233.021839 
L 410.0244 228.589879 
L 410.1918 210.320253 
L 410.3592 232.103415 
L 410.5266 225.330214 
L 410.694 209.123901 
L 410.8614 233.033384 
L 411.1962 207.62839 
L 411.3636 230.565516 
L 411.531 220.44303 
L 411.6984 219.615722 
L 411.8658 219.520245 
L 412.0332 211.267187 
L 412.2006 218.471937 
L 412.368 218.139831 
L 412.5354 210.434853 
L 412.7028 234.155413 
L 412.8702 217.133329 
L 413.205 230.020414 
L 413.3724 214.862913 
L 413.5398 220.12053 
L 413.7072 219.556696 
L 413.8746 225.526899 
L 414.042 217.421796 
L 414.3768 225.283019 
L 414.5442 214.535804 
L 414.7116 230.34257 
L 414.879 213.541553 
L 415.0464 214.764373 
L 415.2138 227.447084 
L 415.3812 212.709265 
L 415.5486 243.556364 
L 415.8834 208.912363 
L 416.0508 230.432927 
L 416.2182 223.723072 
L 416.3856 207.104426 
L 416.553 222.104441 
L 416.7204 222.095657 
L 416.8878 217.910888 
L 417.0552 220.667111 
L 417.2226 219.245961 
L 417.39 215.974573 
L 417.7248 223.403167 
L 417.8922 217.0784 
L 418.0596 216.207665 
L 418.227 221.531171 
L 418.3944 231.795339 
L 418.5618 227.735734 
L 418.7292 218.397364 
L 418.8966 228.11104 
L 419.064 224.734719 
L 419.2314 217.050586 
L 419.3988 228.759572 
L 419.7336 213.430825 
L 419.901 229.074939 
L 420.2358 215.504689 
L 420.4032 226.282115 
L 420.5706 209.909338 
L 420.9054 224.590914 
L 421.0728 207.460303 
L 421.4076 222.796598 
L 421.575 220.890276 
L 421.7424 231.164857 
L 421.9098 221.864074 
L 422.2446 218.425755 
L 422.412 232.766931 
L 422.5794 216.491627 
L 422.7468 216.498646 
L 422.9142 230.330221 
L 423.0816 212.935979 
L 423.249 228.276229 
L 423.5838 212.673519 
L 423.7512 226.229913 
L 423.9186 218.171643 
L 424.086 225.258666 
L 424.2534 225.088895 
L 424.4208 206.655438 
L 424.5882 239.403821 
L 424.923 203.297542 
L 425.0904 228.484465 
L 425.4252 217.851102 
L 425.5926 227.935012 
L 425.76 217.054184 
L 425.9274 214.695014 
L 426.0948 224.746885 
L 426.4296 214.466888 
L 426.597 221.894003 
L 426.7644 219.993817 
L 426.9318 213.52702 
L 427.0992 233.539442 
L 427.434 209.658605 
L 427.6014 231.738453 
L 427.7688 217.609715 
L 427.9362 229.217765 
L 428.1036 230.518194 
L 428.271 212.359941 
L 428.4384 227.345119 
L 428.6058 219.336739 
L 428.7732 223.766305 
L 428.9406 224.147349 
L 429.108 208.495221 
L 429.2754 224.407199 
L 429.4428 223.497194 
L 429.6102 206.104351 
L 429.7776 222.647749 
L 429.945 223.09074 
L 430.2798 218.084781 
L 430.4472 220.884886 
L 430.6146 217.872398 
L 430.9494 233.12011 
L 431.1168 212.995532 
L 431.4516 229.799083 
L 431.619 210.093972 
L 431.7864 235.984509 
L 431.9538 216.81626 
L 432.1212 210.524788 
L 432.2886 233.193934 
L 432.456 214.944392 
L 432.6234 222.922497 
L 432.7908 222.027129 
L 432.9582 213.914552 
L 433.1256 221.062048 
L 433.293 219.680291 
L 433.4604 214.836322 
L 433.6278 227.072285 
L 433.7952 217.063718 
L 433.9626 225.696996 
L 434.13 224.159938 
L 434.2974 216.351764 
L 434.4648 223.548975 
L 434.6322 220.410093 
L 434.7996 221.610242 
L 434.967 221.434283 
L 435.1344 218.473734 
L 435.3018 219.136168 
L 435.4692 217.837964 
L 435.6366 233.143737 
L 435.804 215.597977 
L 435.9714 214.9101 
L 436.1388 232.965041 
L 436.3062 213.601478 
L 436.4736 217.961879 
L 436.641 230.186655 
L 436.8084 209.861513 
L 436.9758 228.341063 
L 437.1432 226.497045 
L 437.3106 221.463251 
L 437.478 224.457073 
L 437.6454 213.669949 
L 437.9802 222.09558 
L 438.1476 212.535401 
L 438.315 222.054127 
L 438.315 222.054127 
" clip-path="url(#p1237a99475)" style="fill: none; stroke: #1f77b4; stroke-width: 1.5; stroke-linecap: square"/>
   </g>
   <g id="line2d_18">
    <path d="M 103.6824 45.883636 
L 104.352 56.887096 
L 105.0216 64.262935 
L 105.6912 69.207108 
L 106.3608 72.521286 
L 107.0304 74.742847 
L 107.7 76.232003 
L 108.3696 77.230214 
L 109.2066 78.028803 
L 110.0436 78.513171 
L 111.048 78.850051 
L 112.5546 79.093222 
L 115.0656 79.222649 
L 121.929 79.259206 
L 438.315 79.259822 
L 438.315 79.259822 
" clip-path="url(#p1237a99475)" style="fill: none; stroke: #ff7f0e; stroke-width: 1.5; stroke-linecap: square"/>
   </g>
   <g id="patch_3">
    <path d="M 103.515 253.44 
L 103.515 36 
" style="fill: none; stroke: #000000; stroke-width: 0.8; stroke-linejoin: miter; stroke-linecap: square"/>
   </g>
   <g id="patch_4">
    <path d="M 438.315 253.44 
L 438.315 36 
" style="fill: none; stroke: #000000; stroke-width: 0.8; stroke-linejoin: miter; stroke-linecap: square"/>
   </g>
   <g id="patch_5">
    <path d="M 103.515 253.44 
L 438.315 253.44 
" style="fill: none; stroke: #000000; stroke-width: 0.8; stroke-linejoin: miter; stroke-linecap: square"/>
   </g>
   <g id="patch_6">
    <path d="M 103.515 36 
L 438.315 36 
" style="fill: none; stroke: #000000; stroke-width: 0.8; stroke-linejoin: miter; stroke-linecap: square"/>
   </g>
   <g id="legend_1">
    <g id="patch_7">
     <path d="M 381.615 77.078125 
L 431.315 77.078125 
Q 433.315 77.078125 433.315 75.078125 
L 433.315 43 
Q 433.315 41 431.315 41 
L 381.615 41 
Q 379.615 41 379.615 43 
L 379.615 75.078125 
Q 379.615 77.078125 381.615 77.078125 
z
" style="fill: #ffffff; opacity: 0.8; stroke: #cccccc; stroke-linejoin: miter"/>
    </g>
    <g id="line2d_19">
     <path d="M 383.615 52.8 
L 393.615 52.8 
L 403.615 52.8 
" style="fill: none; stroke: #1f77b4; stroke-width: 1.5; stroke-linecap: square"/>
    </g>
    <g id="text_18">
     <!-- $\hat{y(t)}$ -->
     <g transform="translate(411.615 56.3) scale(0.1 -0.1)">
      <defs>
       <path id="DejaVuSans-302" d="M -1831 5119 
L -1369 5119 
L -603 3944 
L -1038 3944 
L -1600 4709 
L -2163 3944 
L -2597 3944 
L -1831 5119 
z
M -1600 3584 
L -1600 3584 
z
" transform="scale(0.015625)"/>
       <path id="DejaVuSans-Oblique-79" d="M 1588 -325 
Q 1188 -997 936 -1164 
Q 684 -1331 294 -1331 
L -159 -1331 
L -63 -850 
L 269 -850 
Q 509 -850 678 -719 
Q 847 -588 1056 -206 
L 1234 128 
L 459 3500 
L 1069 3500 
L 1650 819 
L 3256 3500 
L 3859 3500 
L 1588 -325 
z
" transform="scale(0.015625)"/>
       <path id="DejaVuSans-28" d="M 1984 4856 
Q 1566 4138 1362 3434 
Q 1159 2731 1159 2009 
Q 1159 1288 1364 580 
Q 1569 -128 1984 -844 
L 1484 -844 
Q 1016 -109 783 600 
Q 550 1309 550 2009 
Q 550 2706 781 3412 
Q 1013 4119 1484 4856 
L 1984 4856 
z
" transform="scale(0.015625)"/>
       <path id="DejaVuSans-29" d="M 513 4856 
L 1013 4856 
Q 1481 4119 1714 3412 
Q 1947 2706 1947 2009 
Q 1947 1309 1714 600 
Q 1481 -109 1013 -844 
L 513 -844 
Q 928 -128 1133 580 
Q 1338 1288 1338 2009 
Q 1338 2731 1133 3434 
Q 928 4138 513 4856 
z
" transform="scale(0.015625)"/>
      </defs>
      <use xlink:href="#DejaVuSans-302" transform="translate(135.682129 33.015625)"/>
      <use xlink:href="#DejaVuSans-Oblique-79" transform="translate(0 0.640625)"/>
      <use xlink:href="#DejaVuSans-28" transform="translate(59.179688 0.640625)"/>
      <use xlink:href="#DejaVuSans-Oblique-74" transform="translate(98.193359 0.640625)"/>
      <use xlink:href="#DejaVuSans-29" transform="translate(137.402344 0.640625)"/>
     </g>
    </g>
    <g id="line2d_20">
     <path d="M 383.615 67.498437 
L 393.615 67.498437 
L 403.615 67.498437 
" style="fill: none; stroke: #ff7f0e; stroke-width: 1.5; stroke-linecap: square"/>
    </g>
    <g id="text_19">
     <!-- $x(t)$ -->
     <g transform="translate(411.615 70.998437) scale(0.1 -0.1)">
      <defs>
       <path id="DejaVuSans-Oblique-78" d="M 3841 3500 
L 2234 1784 
L 3219 0 
L 2559 0 
L 1819 1388 
L 531 0 
L -166 0 
L 1556 1844 
L 641 3500 
L 1300 3500 
L 1972 2234 
L 3144 3500 
L 3841 3500 
z
" transform="scale(0.015625)"/>
      </defs>
      <use xlink:href="#DejaVuSans-Oblique-78" transform="translate(0 0.125)"/>
      <use xlink:href="#DejaVuSans-28" transform="translate(59.179688 0.125)"/>
      <use xlink:href="#DejaVuSans-Oblique-74" transform="translate(98.193359 0.125)"/>
      <use xlink:href="#DejaVuSans-29" transform="translate(137.402344 0.125)"/>
     </g>
    </g>
   </g>
  </g>
  <g id="text_20">
   <!-- Accumulate to Threshold model with input of -0.2 with rms=3 and Uniform intercepts  -->
   <g transform="translate(7.2 16.318125) scale(0.12 -0.12)">
    <defs>
     <path id="DejaVuSans-41" d="M 2188 4044 
L 1331 1722 
L 3047 1722 
L 2188 4044 
z
M 1831 4666 
L 2547 4666 
L 4325 0 
L 3669 0 
L 3244 1197 
L 1141 1197 
L 716 0 
L 50 0 
L 1831 4666 
z
" transform="scale(0.015625)"/>
     <path id="DejaVuSans-63" d="M 3122 3366 
L 3122 2828 
Q 2878 2963 2633 3030 
Q 2388 3097 2138 3097 
Q 1578 3097 1268 2742 
Q 959 2388 959 1747 
Q 959 1106 1268 751 
Q 1578 397 2138 397 
Q 2388 397 2633 464 
Q 2878 531 3122 666 
L 3122 134 
Q 2881 22 2623 -34 
Q 2366 -91 2075 -91 
Q 1284 -91 818 406 
Q 353 903 353 1747 
Q 353 2603 823 3093 
Q 1294 3584 2113 3584 
Q 2378 3584 2631 3529 
Q 2884 3475 3122 3366 
z
" transform="scale(0.015625)"/>
     <path id="DejaVuSans-75" d="M 544 1381 
L 544 3500 
L 1119 3500 
L 1119 1403 
Q 1119 906 1312 657 
Q 1506 409 1894 409 
Q 2359 409 2629 706 
Q 2900 1003 2900 1516 
L 2900 3500 
L 3475 3500 
L 3475 0 
L 2900 0 
L 2900 538 
Q 2691 219 2414 64 
Q 2138 -91 1772 -91 
Q 1169 -91 856 284 
Q 544 659 544 1381 
z
M 1991 3584 
L 1991 3584 
z
" transform="scale(0.015625)"/>
     <path id="DejaVuSans-6d" d="M 3328 2828 
Q 3544 3216 3844 3400 
Q 4144 3584 4550 3584 
Q 5097 3584 5394 3201 
Q 5691 2819 5691 2113 
L 5691 0 
L 5113 0 
L 5113 2094 
Q 5113 2597 4934 2840 
Q 4756 3084 4391 3084 
Q 3944 3084 3684 2787 
Q 3425 2491 3425 1978 
L 3425 0 
L 2847 0 
L 2847 2094 
Q 2847 2600 2669 2842 
Q 2491 3084 2119 3084 
Q 1678 3084 1418 2786 
Q 1159 2488 1159 1978 
L 1159 0 
L 581 0 
L 581 3500 
L 1159 3500 
L 1159 2956 
Q 1356 3278 1631 3431 
Q 1906 3584 2284 3584 
Q 2666 3584 2933 3390 
Q 3200 3197 3328 2828 
z
" transform="scale(0.015625)"/>
     <path id="DejaVuSans-6c" d="M 603 4863 
L 1178 4863 
L 1178 0 
L 603 0 
L 603 4863 
z
" transform="scale(0.015625)"/>
     <path id="DejaVuSans-61" d="M 2194 1759 
Q 1497 1759 1228 1600 
Q 959 1441 959 1056 
Q 959 750 1161 570 
Q 1363 391 1709 391 
Q 2188 391 2477 730 
Q 2766 1069 2766 1631 
L 2766 1759 
L 2194 1759 
z
M 3341 1997 
L 3341 0 
L 2766 0 
L 2766 531 
Q 2569 213 2275 61 
Q 1981 -91 1556 -91 
Q 1019 -91 701 211 
Q 384 513 384 1019 
Q 384 1609 779 1909 
Q 1175 2209 1959 2209 
L 2766 2209 
L 2766 2266 
Q 2766 2663 2505 2880 
Q 2244 3097 1772 3097 
Q 1472 3097 1187 3025 
Q 903 2953 641 2809 
L 641 3341 
Q 956 3463 1253 3523 
Q 1550 3584 1831 3584 
Q 2591 3584 2966 3190 
Q 3341 2797 3341 1997 
z
" transform="scale(0.015625)"/>
     <path id="DejaVuSans-74" d="M 1172 4494 
L 1172 3500 
L 2356 3500 
L 2356 3053 
L 1172 3053 
L 1172 1153 
Q 1172 725 1289 603 
Q 1406 481 1766 481 
L 2356 481 
L 2356 0 
L 1766 0 
Q 1100 0 847 248 
Q 594 497 594 1153 
L 594 3053 
L 172 3053 
L 172 3500 
L 594 3500 
L 594 4494 
L 1172 4494 
z
" transform="scale(0.015625)"/>
     <path id="DejaVuSans-65" d="M 3597 1894 
L 3597 1613 
L 953 1613 
Q 991 1019 1311 708 
Q 1631 397 2203 397 
Q 2534 397 2845 478 
Q 3156 559 3463 722 
L 3463 178 
Q 3153 47 2828 -22 
Q 2503 -91 2169 -91 
Q 1331 -91 842 396 
Q 353 884 353 1716 
Q 353 2575 817 3079 
Q 1281 3584 2069 3584 
Q 2775 3584 3186 3129 
Q 3597 2675 3597 1894 
z
M 3022 2063 
Q 3016 2534 2758 2815 
Q 2500 3097 2075 3097 
Q 1594 3097 1305 2825 
Q 1016 2553 972 2059 
L 3022 2063 
z
" transform="scale(0.015625)"/>
     <path id="DejaVuSans-20" transform="scale(0.015625)"/>
     <path id="DejaVuSans-6f" d="M 1959 3097 
Q 1497 3097 1228 2736 
Q 959 2375 959 1747 
Q 959 1119 1226 758 
Q 1494 397 1959 397 
Q 2419 397 2687 759 
Q 2956 1122 2956 1747 
Q 2956 2369 2687 2733 
Q 2419 3097 1959 3097 
z
M 1959 3584 
Q 2709 3584 3137 3096 
Q 3566 2609 3566 1747 
Q 3566 888 3137 398 
Q 2709 -91 1959 -91 
Q 1206 -91 779 398 
Q 353 888 353 1747 
Q 353 2609 779 3096 
Q 1206 3584 1959 3584 
z
" transform="scale(0.015625)"/>
     <path id="DejaVuSans-54" d="M -19 4666 
L 3928 4666 
L 3928 4134 
L 2272 4134 
L 2272 0 
L 1638 0 
L 1638 4134 
L -19 4134 
L -19 4666 
z
" transform="scale(0.015625)"/>
     <path id="DejaVuSans-68" d="M 3513 2113 
L 3513 0 
L 2938 0 
L 2938 2094 
Q 2938 2591 2744 2837 
Q 2550 3084 2163 3084 
Q 1697 3084 1428 2787 
Q 1159 2491 1159 1978 
L 1159 0 
L 581 0 
L 581 4863 
L 1159 4863 
L 1159 2956 
Q 1366 3272 1645 3428 
Q 1925 3584 2291 3584 
Q 2894 3584 3203 3211 
Q 3513 2838 3513 2113 
z
" transform="scale(0.015625)"/>
     <path id="DejaVuSans-72" d="M 2631 2963 
Q 2534 3019 2420 3045 
Q 2306 3072 2169 3072 
Q 1681 3072 1420 2755 
Q 1159 2438 1159 1844 
L 1159 0 
L 581 0 
L 581 3500 
L 1159 3500 
L 1159 2956 
Q 1341 3275 1631 3429 
Q 1922 3584 2338 3584 
Q 2397 3584 2469 3576 
Q 2541 3569 2628 3553 
L 2631 2963 
z
" transform="scale(0.015625)"/>
     <path id="DejaVuSans-73" d="M 2834 3397 
L 2834 2853 
Q 2591 2978 2328 3040 
Q 2066 3103 1784 3103 
Q 1356 3103 1142 2972 
Q 928 2841 928 2578 
Q 928 2378 1081 2264 
Q 1234 2150 1697 2047 
L 1894 2003 
Q 2506 1872 2764 1633 
Q 3022 1394 3022 966 
Q 3022 478 2636 193 
Q 2250 -91 1575 -91 
Q 1294 -91 989 -36 
Q 684 19 347 128 
L 347 722 
Q 666 556 975 473 
Q 1284 391 1588 391 
Q 1994 391 2212 530 
Q 2431 669 2431 922 
Q 2431 1156 2273 1281 
Q 2116 1406 1581 1522 
L 1381 1569 
Q 847 1681 609 1914 
Q 372 2147 372 2553 
Q 372 3047 722 3315 
Q 1072 3584 1716 3584 
Q 2034 3584 2315 3537 
Q 2597 3491 2834 3397 
z
" transform="scale(0.015625)"/>
     <path id="DejaVuSans-64" d="M 2906 2969 
L 2906 4863 
L 3481 4863 
L 3481 0 
L 2906 0 
L 2906 525 
Q 2725 213 2448 61 
Q 2172 -91 1784 -91 
Q 1150 -91 751 415 
Q 353 922 353 1747 
Q 353 2572 751 3078 
Q 1150 3584 1784 3584 
Q 2172 3584 2448 3432 
Q 2725 3281 2906 2969 
z
M 947 1747 
Q 947 1113 1208 752 
Q 1469 391 1925 391 
Q 2381 391 2643 752 
Q 2906 1113 2906 1747 
Q 2906 2381 2643 2742 
Q 2381 3103 1925 3103 
Q 1469 3103 1208 2742 
Q 947 2381 947 1747 
z
" transform="scale(0.015625)"/>
     <path id="DejaVuSans-77" d="M 269 3500 
L 844 3500 
L 1563 769 
L 2278 3500 
L 2956 3500 
L 3675 769 
L 4391 3500 
L 4966 3500 
L 4050 0 
L 3372 0 
L 2619 2869 
L 1863 0 
L 1184 0 
L 269 3500 
z
" transform="scale(0.015625)"/>
     <path id="DejaVuSans-69" d="M 603 3500 
L 1178 3500 
L 1178 0 
L 603 0 
L 603 3500 
z
M 603 4863 
L 1178 4863 
L 1178 4134 
L 603 4134 
L 603 4863 
z
" transform="scale(0.015625)"/>
     <path id="DejaVuSans-6e" d="M 3513 2113 
L 3513 0 
L 2938 0 
L 2938 2094 
Q 2938 2591 2744 2837 
Q 2550 3084 2163 3084 
Q 1697 3084 1428 2787 
Q 1159 2491 1159 1978 
L 1159 0 
L 581 0 
L 581 3500 
L 1159 3500 
L 1159 2956 
Q 1366 3272 1645 3428 
Q 1925 3584 2291 3584 
Q 2894 3584 3203 3211 
Q 3513 2838 3513 2113 
z
" transform="scale(0.015625)"/>
     <path id="DejaVuSans-70" d="M 1159 525 
L 1159 -1331 
L 581 -1331 
L 581 3500 
L 1159 3500 
L 1159 2969 
Q 1341 3281 1617 3432 
Q 1894 3584 2278 3584 
Q 2916 3584 3314 3078 
Q 3713 2572 3713 1747 
Q 3713 922 3314 415 
Q 2916 -91 2278 -91 
Q 1894 -91 1617 61 
Q 1341 213 1159 525 
z
M 3116 1747 
Q 3116 2381 2855 2742 
Q 2594 3103 2138 3103 
Q 1681 3103 1420 2742 
Q 1159 2381 1159 1747 
Q 1159 1113 1420 752 
Q 1681 391 2138 391 
Q 2594 391 2855 752 
Q 3116 1113 3116 1747 
z
" transform="scale(0.015625)"/>
     <path id="DejaVuSans-66" d="M 2375 4863 
L 2375 4384 
L 1825 4384 
Q 1516 4384 1395 4259 
Q 1275 4134 1275 3809 
L 1275 3500 
L 2222 3500 
L 2222 3053 
L 1275 3053 
L 1275 0 
L 697 0 
L 697 3053 
L 147 3053 
L 147 3500 
L 697 3500 
L 697 3744 
Q 697 4328 969 4595 
Q 1241 4863 1831 4863 
L 2375 4863 
z
" transform="scale(0.015625)"/>
     <path id="DejaVuSans-2d" d="M 313 2009 
L 1997 2009 
L 1997 1497 
L 313 1497 
L 313 2009 
z
" transform="scale(0.015625)"/>
     <path id="DejaVuSans-3d" d="M 678 2906 
L 4684 2906 
L 4684 2381 
L 678 2381 
L 678 2906 
z
M 678 1631 
L 4684 1631 
L 4684 1100 
L 678 1100 
L 678 1631 
z
" transform="scale(0.015625)"/>
     <path id="DejaVuSans-33" d="M 2597 2516 
Q 3050 2419 3304 2112 
Q 3559 1806 3559 1356 
Q 3559 666 3084 287 
Q 2609 -91 1734 -91 
Q 1441 -91 1130 -33 
Q 819 25 488 141 
L 488 750 
Q 750 597 1062 519 
Q 1375 441 1716 441 
Q 2309 441 2620 675 
Q 2931 909 2931 1356 
Q 2931 1769 2642 2001 
Q 2353 2234 1838 2234 
L 1294 2234 
L 1294 2753 
L 1863 2753 
Q 2328 2753 2575 2939 
Q 2822 3125 2822 3475 
Q 2822 3834 2567 4026 
Q 2313 4219 1838 4219 
Q 1578 4219 1281 4162 
Q 984 4106 628 3988 
L 628 4550 
Q 988 4650 1302 4700 
Q 1616 4750 1894 4750 
Q 2613 4750 3031 4423 
Q 3450 4097 3450 3541 
Q 3450 3153 3228 2886 
Q 3006 2619 2597 2516 
z
" transform="scale(0.015625)"/>
     <path id="DejaVuSans-55" d="M 556 4666 
L 1191 4666 
L 1191 1831 
Q 1191 1081 1462 751 
Q 1734 422 2344 422 
Q 2950 422 3222 751 
Q 3494 1081 3494 1831 
L 3494 4666 
L 4128 4666 
L 4128 1753 
Q 4128 841 3676 375 
Q 3225 -91 2344 -91 
Q 1459 -91 1007 375 
Q 556 841 556 1753 
L 556 4666 
z
" transform="scale(0.015625)"/>
    </defs>
    <use xlink:href="#DejaVuSans-41"/>
    <use xlink:href="#DejaVuSans-63" x="66.658203"/>
    <use xlink:href="#DejaVuSans-63" x="121.638672"/>
    <use xlink:href="#DejaVuSans-75" x="176.619141"/>
    <use xlink:href="#DejaVuSans-6d" x="239.998047"/>
    <use xlink:href="#DejaVuSans-75" x="337.410156"/>
    <use xlink:href="#DejaVuSans-6c" x="400.789062"/>
    <use xlink:href="#DejaVuSans-61" x="428.572266"/>
    <use xlink:href="#DejaVuSans-74" x="489.851562"/>
    <use xlink:href="#DejaVuSans-65" x="529.060547"/>
    <use xlink:href="#DejaVuSans-20" x="590.583984"/>
    <use xlink:href="#DejaVuSans-74" x="622.371094"/>
    <use xlink:href="#DejaVuSans-6f" x="661.580078"/>
    <use xlink:href="#DejaVuSans-20" x="722.761719"/>
    <use xlink:href="#DejaVuSans-54" x="754.548828"/>
    <use xlink:href="#DejaVuSans-68" x="815.632812"/>
    <use xlink:href="#DejaVuSans-72" x="879.011719"/>
    <use xlink:href="#DejaVuSans-65" x="917.875"/>
    <use xlink:href="#DejaVuSans-73" x="979.398438"/>
    <use xlink:href="#DejaVuSans-68" x="1031.498047"/>
    <use xlink:href="#DejaVuSans-6f" x="1094.876953"/>
    <use xlink:href="#DejaVuSans-6c" x="1156.058594"/>
    <use xlink:href="#DejaVuSans-64" x="1183.841797"/>
    <use xlink:href="#DejaVuSans-20" x="1247.318359"/>
    <use xlink:href="#DejaVuSans-6d" x="1279.105469"/>
    <use xlink:href="#DejaVuSans-6f" x="1376.517578"/>
    <use xlink:href="#DejaVuSans-64" x="1437.699219"/>
    <use xlink:href="#DejaVuSans-65" x="1501.175781"/>
    <use xlink:href="#DejaVuSans-6c" x="1562.699219"/>
    <use xlink:href="#DejaVuSans-20" x="1590.482422"/>
    <use xlink:href="#DejaVuSans-77" x="1622.269531"/>
    <use xlink:href="#DejaVuSans-69" x="1704.056641"/>
    <use xlink:href="#DejaVuSans-74" x="1731.839844"/>
    <use xlink:href="#DejaVuSans-68" x="1771.048828"/>
    <use xlink:href="#DejaVuSans-20" x="1834.427734"/>
    <use xlink:href="#DejaVuSans-69" x="1866.214844"/>
    <use xlink:href="#DejaVuSans-6e" x="1893.998047"/>
    <use xlink:href="#DejaVuSans-70" x="1957.376953"/>
    <use xlink:href="#DejaVuSans-75" x="2020.853516"/>
    <use xlink:href="#DejaVuSans-74" x="2084.232422"/>
    <use xlink:href="#DejaVuSans-20" x="2123.441406"/>
    <use xlink:href="#DejaVuSans-6f" x="2155.228516"/>
    <use xlink:href="#DejaVuSans-66" x="2216.410156"/>
    <use xlink:href="#DejaVuSans-20" x="2251.615234"/>
    <use xlink:href="#DejaVuSans-2d" x="2283.402344"/>
    <use xlink:href="#DejaVuSans-30" x="2319.486328"/>
    <use xlink:href="#DejaVuSans-2e" x="2383.109375"/>
    <use xlink:href="#DejaVuSans-32" x="2414.896484"/>
    <use xlink:href="#DejaVuSans-20" x="2478.519531"/>
    <use xlink:href="#DejaVuSans-77" x="2510.306641"/>
    <use xlink:href="#DejaVuSans-69" x="2592.09375"/>
    <use xlink:href="#DejaVuSans-74" x="2619.876953"/>
    <use xlink:href="#DejaVuSans-68" x="2659.085938"/>
    <use xlink:href="#DejaVuSans-20" x="2722.464844"/>
    <use xlink:href="#DejaVuSans-72" x="2754.251953"/>
    <use xlink:href="#DejaVuSans-6d" x="2793.615234"/>
    <use xlink:href="#DejaVuSans-73" x="2891.027344"/>
    <use xlink:href="#DejaVuSans-3d" x="2943.126953"/>
    <use xlink:href="#DejaVuSans-33" x="3026.916016"/>
    <use xlink:href="#DejaVuSans-20" x="3090.539062"/>
    <use xlink:href="#DejaVuSans-61" x="3122.326172"/>
    <use xlink:href="#DejaVuSans-6e" x="3183.605469"/>
    <use xlink:href="#DejaVuSans-64" x="3246.984375"/>
    <use xlink:href="#DejaVuSans-20" x="3310.460938"/>
    <use xlink:href="#DejaVuSans-55" x="3342.248047"/>
    <use xlink:href="#DejaVuSans-6e" x="3415.441406"/>
    <use xlink:href="#DejaVuSans-69" x="3478.820312"/>
    <use xlink:href="#DejaVuSans-66" x="3506.603516"/>
    <use xlink:href="#DejaVuSans-6f" x="3541.808594"/>
    <use xlink:href="#DejaVuSans-72" x="3602.990234"/>
    <use xlink:href="#DejaVuSans-6d" x="3642.353516"/>
    <use xlink:href="#DejaVuSans-20" x="3739.765625"/>
    <use xlink:href="#DejaVuSans-69" x="3771.552734"/>
    <use xlink:href="#DejaVuSans-6e" x="3799.335938"/>
    <use xlink:href="#DejaVuSans-74" x="3862.714844"/>
    <use xlink:href="#DejaVuSans-65" x="3901.923828"/>
    <use xlink:href="#DejaVuSans-72" x="3963.447266"/>
    <use xlink:href="#DejaVuSans-63" x="4002.310547"/>
    <use xlink:href="#DejaVuSans-65" x="4057.291016"/>
    <use xlink:href="#DejaVuSans-70" x="4118.814453"/>
    <use xlink:href="#DejaVuSans-74" x="4182.291016"/>
    <use xlink:href="#DejaVuSans-73" x="4221.5"/>
    <use xlink:href="#DejaVuSans-20" x="4273.599609"/>
   </g>
  </g>
 </g>
 <defs>
  <clipPath id="p1237a99475">
   <rect x="103.515" y="36" width="334.8" height="217.44"/>
  </clipPath>
 </defs>
</svg>
