<?xml version="1.0" encoding="utf-8" standalone="no"?>
<!DOCTYPE svg PUBLIC "-//W3C//DTD SVG 1.1//EN"
  "http://www.w3.org/Graphics/SVG/1.1/DTD/svg11.dtd">
<svg xmlns:xlink="http://www.w3.org/1999/xlink" width="394.796875pt" height="290.99625pt" viewBox="0 0 394.796875 290.99625" xmlns="http://www.w3.org/2000/svg" version="1.1">
 <metadata>
  <rdf:RDF xmlns:dc="http://purl.org/dc/elements/1.1/" xmlns:cc="http://creativecommons.org/ns#" xmlns:rdf="http://www.w3.org/1999/02/22-rdf-syntax-ns#">
   <cc:Work>
    <dc:type rdf:resource="http://purl.org/dc/dcmitype/StillImage"/>
    <dc:date>2022-11-19T21:31:09.609138</dc:date>
    <dc:format>image/svg+xml</dc:format>
    <dc:creator>
     <cc:Agent>
      <dc:title>Matplotlib v3.6.0, https://matplotlib.org/</dc:title>
     </cc:Agent>
    </dc:creator>
   </cc:Work>
  </rdf:RDF>
 </metadata>
 <defs>
  <style type="text/css">*{stroke-linejoin: round; stroke-linecap: butt}</style>
 </defs>
 <g id="figure_1">
  <g id="patch_1">
   <path d="M 0 290.99625 
L 394.796875 290.99625 
L 394.796875 0 
L 0 0 
L 0 290.99625 
z
" style="fill: none"/>
  </g>
  <g id="axes_1">
   <g id="patch_2">
    <path d="M 44.845313 253.44 
L 379.645313 253.44 
L 379.645313 36 
L 44.845313 36 
z
" style="fill: #ffffff"/>
   </g>
   <g id="matplotlib.axis_1">
    <g id="xtick_1">
     <g id="line2d_1">
      <defs>
       <path id="m1eac4d4797" d="M 0 0 
L 0 3.5 
" style="stroke: #000000; stroke-width: 0.8"/>
      </defs>
      <g>
       <use xlink:href="#m1eac4d4797" x="44.845313" y="253.44" style="stroke: #000000; stroke-width: 0.8"/>
      </g>
     </g>
     <g id="text_1">
      <!-- 0.0 -->
      <g transform="translate(36.89375 268.038437) scale(0.1 -0.1)">
       <defs>
        <path id="DejaVuSans-30" d="M 2034 4250 
Q 1547 4250 1301 3770 
Q 1056 3291 1056 2328 
Q 1056 1369 1301 889 
Q 1547 409 2034 409 
Q 2525 409 2770 889 
Q 3016 1369 3016 2328 
Q 3016 3291 2770 3770 
Q 2525 4250 2034 4250 
z
M 2034 4750 
Q 2819 4750 3233 4129 
Q 3647 3509 3647 2328 
Q 3647 1150 3233 529 
Q 2819 -91 2034 -91 
Q 1250 -91 836 529 
Q 422 1150 422 2328 
Q 422 3509 836 4129 
Q 1250 4750 2034 4750 
z
" transform="scale(0.015625)"/>
        <path id="DejaVuSans-2e" d="M 684 794 
L 1344 794 
L 1344 0 
L 684 0 
L 684 794 
z
" transform="scale(0.015625)"/>
       </defs>
       <use xlink:href="#DejaVuSans-30"/>
       <use xlink:href="#DejaVuSans-2e" x="63.623047"/>
       <use xlink:href="#DejaVuSans-30" x="95.410156"/>
      </g>
     </g>
    </g>
    <g id="xtick_2">
     <g id="line2d_2">
      <g>
       <use xlink:href="#m1eac4d4797" x="86.695313" y="253.44" style="stroke: #000000; stroke-width: 0.8"/>
      </g>
     </g>
     <g id="text_2">
      <!-- 0.5 -->
      <g transform="translate(78.74375 268.038437) scale(0.1 -0.1)">
       <defs>
        <path id="DejaVuSans-35" d="M 691 4666 
L 3169 4666 
L 3169 4134 
L 1269 4134 
L 1269 2991 
Q 1406 3038 1543 3061 
Q 1681 3084 1819 3084 
Q 2600 3084 3056 2656 
Q 3513 2228 3513 1497 
Q 3513 744 3044 326 
Q 2575 -91 1722 -91 
Q 1428 -91 1123 -41 
Q 819 9 494 109 
L 494 744 
Q 775 591 1075 516 
Q 1375 441 1709 441 
Q 2250 441 2565 725 
Q 2881 1009 2881 1497 
Q 2881 1984 2565 2268 
Q 2250 2553 1709 2553 
Q 1456 2553 1204 2497 
Q 953 2441 691 2322 
L 691 4666 
z
" transform="scale(0.015625)"/>
       </defs>
       <use xlink:href="#DejaVuSans-30"/>
       <use xlink:href="#DejaVuSans-2e" x="63.623047"/>
       <use xlink:href="#DejaVuSans-35" x="95.410156"/>
      </g>
     </g>
    </g>
    <g id="xtick_3">
     <g id="line2d_3">
      <g>
       <use xlink:href="#m1eac4d4797" x="128.545313" y="253.44" style="stroke: #000000; stroke-width: 0.8"/>
      </g>
     </g>
     <g id="text_3">
      <!-- 1.0 -->
      <g transform="translate(120.59375 268.038437) scale(0.1 -0.1)">
       <defs>
        <path id="DejaVuSans-31" d="M 794 531 
L 1825 531 
L 1825 4091 
L 703 3866 
L 703 4441 
L 1819 4666 
L 2450 4666 
L 2450 531 
L 3481 531 
L 3481 0 
L 794 0 
L 794 531 
z
" transform="scale(0.015625)"/>
       </defs>
       <use xlink:href="#DejaVuSans-31"/>
       <use xlink:href="#DejaVuSans-2e" x="63.623047"/>
       <use xlink:href="#DejaVuSans-30" x="95.410156"/>
      </g>
     </g>
    </g>
    <g id="xtick_4">
     <g id="line2d_4">
      <g>
       <use xlink:href="#m1eac4d4797" x="170.395313" y="253.44" style="stroke: #000000; stroke-width: 0.8"/>
      </g>
     </g>
     <g id="text_4">
      <!-- 1.5 -->
      <g transform="translate(162.44375 268.038437) scale(0.1 -0.1)">
       <use xlink:href="#DejaVuSans-31"/>
       <use xlink:href="#DejaVuSans-2e" x="63.623047"/>
       <use xlink:href="#DejaVuSans-35" x="95.410156"/>
      </g>
     </g>
    </g>
    <g id="xtick_5">
     <g id="line2d_5">
      <g>
       <use xlink:href="#m1eac4d4797" x="212.245313" y="253.44" style="stroke: #000000; stroke-width: 0.8"/>
      </g>
     </g>
     <g id="text_5">
      <!-- 2.0 -->
      <g transform="translate(204.29375 268.038437) scale(0.1 -0.1)">
       <defs>
        <path id="DejaVuSans-32" d="M 1228 531 
L 3431 531 
L 3431 0 
L 469 0 
L 469 531 
Q 828 903 1448 1529 
Q 2069 2156 2228 2338 
Q 2531 2678 2651 2914 
Q 2772 3150 2772 3378 
Q 2772 3750 2511 3984 
Q 2250 4219 1831 4219 
Q 1534 4219 1204 4116 
Q 875 4013 500 3803 
L 500 4441 
Q 881 4594 1212 4672 
Q 1544 4750 1819 4750 
Q 2544 4750 2975 4387 
Q 3406 4025 3406 3419 
Q 3406 3131 3298 2873 
Q 3191 2616 2906 2266 
Q 2828 2175 2409 1742 
Q 1991 1309 1228 531 
z
" transform="scale(0.015625)"/>
       </defs>
       <use xlink:href="#DejaVuSans-32"/>
       <use xlink:href="#DejaVuSans-2e" x="63.623047"/>
       <use xlink:href="#DejaVuSans-30" x="95.410156"/>
      </g>
     </g>
    </g>
    <g id="xtick_6">
     <g id="line2d_6">
      <g>
       <use xlink:href="#m1eac4d4797" x="254.095313" y="253.44" style="stroke: #000000; stroke-width: 0.8"/>
      </g>
     </g>
     <g id="text_6">
      <!-- 2.5 -->
      <g transform="translate(246.14375 268.038437) scale(0.1 -0.1)">
       <use xlink:href="#DejaVuSans-32"/>
       <use xlink:href="#DejaVuSans-2e" x="63.623047"/>
       <use xlink:href="#DejaVuSans-35" x="95.410156"/>
      </g>
     </g>
    </g>
    <g id="xtick_7">
     <g id="line2d_7">
      <g>
       <use xlink:href="#m1eac4d4797" x="295.945313" y="253.44" style="stroke: #000000; stroke-width: 0.8"/>
      </g>
     </g>
     <g id="text_7">
      <!-- 3.0 -->
      <g transform="translate(287.99375 268.038437) scale(0.1 -0.1)">
       <defs>
        <path id="DejaVuSans-33" d="M 2597 2516 
Q 3050 2419 3304 2112 
Q 3559 1806 3559 1356 
Q 3559 666 3084 287 
Q 2609 -91 1734 -91 
Q 1441 -91 1130 -33 
Q 819 25 488 141 
L 488 750 
Q 750 597 1062 519 
Q 1375 441 1716 441 
Q 2309 441 2620 675 
Q 2931 909 2931 1356 
Q 2931 1769 2642 2001 
Q 2353 2234 1838 2234 
L 1294 2234 
L 1294 2753 
L 1863 2753 
Q 2328 2753 2575 2939 
Q 2822 3125 2822 3475 
Q 2822 3834 2567 4026 
Q 2313 4219 1838 4219 
Q 1578 4219 1281 4162 
Q 984 4106 628 3988 
L 628 4550 
Q 988 4650 1302 4700 
Q 1616 4750 1894 4750 
Q 2613 4750 3031 4423 
Q 3450 4097 3450 3541 
Q 3450 3153 3228 2886 
Q 3006 2619 2597 2516 
z
" transform="scale(0.015625)"/>
       </defs>
       <use xlink:href="#DejaVuSans-33"/>
       <use xlink:href="#DejaVuSans-2e" x="63.623047"/>
       <use xlink:href="#DejaVuSans-30" x="95.410156"/>
      </g>
     </g>
    </g>
    <g id="xtick_8">
     <g id="line2d_8">
      <g>
       <use xlink:href="#m1eac4d4797" x="337.795313" y="253.44" style="stroke: #000000; stroke-width: 0.8"/>
      </g>
     </g>
     <g id="text_8">
      <!-- 3.5 -->
      <g transform="translate(329.84375 268.038437) scale(0.1 -0.1)">
       <use xlink:href="#DejaVuSans-33"/>
       <use xlink:href="#DejaVuSans-2e" x="63.623047"/>
       <use xlink:href="#DejaVuSans-35" x="95.410156"/>
      </g>
     </g>
    </g>
    <g id="xtick_9">
     <g id="line2d_9">
      <g>
       <use xlink:href="#m1eac4d4797" x="379.645313" y="253.44" style="stroke: #000000; stroke-width: 0.8"/>
      </g>
     </g>
     <g id="text_9">
      <!-- 4.0 -->
      <g transform="translate(371.69375 268.038437) scale(0.1 -0.1)">
       <defs>
        <path id="DejaVuSans-34" d="M 2419 4116 
L 825 1625 
L 2419 1625 
L 2419 4116 
z
M 2253 4666 
L 3047 4666 
L 3047 1625 
L 3713 1625 
L 3713 1100 
L 3047 1100 
L 3047 0 
L 2419 0 
L 2419 1100 
L 313 1100 
L 313 1709 
L 2253 4666 
z
" transform="scale(0.015625)"/>
       </defs>
       <use xlink:href="#DejaVuSans-34"/>
       <use xlink:href="#DejaVuSans-2e" x="63.623047"/>
       <use xlink:href="#DejaVuSans-30" x="95.410156"/>
      </g>
     </g>
    </g>
    <g id="text_10">
     <!-- $t$ -->
     <g transform="translate(210.245313 281.716562) scale(0.1 -0.1)">
      <defs>
       <path id="DejaVuSans-Oblique-74" d="M 2706 3500 
L 2619 3053 
L 1472 3053 
L 1100 1153 
Q 1081 1047 1072 975 
Q 1063 903 1063 863 
Q 1063 663 1183 572 
Q 1303 481 1569 481 
L 2150 481 
L 2053 0 
L 1503 0 
Q 991 0 739 200 
Q 488 400 488 806 
Q 488 878 497 964 
Q 506 1050 525 1153 
L 897 3053 
L 409 3053 
L 500 3500 
L 978 3500 
L 1172 4494 
L 1747 4494 
L 1556 3500 
L 2706 3500 
z
" transform="scale(0.015625)"/>
      </defs>
      <use xlink:href="#DejaVuSans-Oblique-74" transform="translate(0 0.78125)"/>
     </g>
    </g>
   </g>
   <g id="matplotlib.axis_2">
    <g id="ytick_1">
     <g id="line2d_10">
      <defs>
       <path id="ma7ab95d54c" d="M 0 0 
L -3.5 0 
" style="stroke: #000000; stroke-width: 0.8"/>
      </defs>
      <g>
       <use xlink:href="#ma7ab95d54c" x="44.845313" y="243.751583" style="stroke: #000000; stroke-width: 0.8"/>
      </g>
     </g>
     <g id="text_11">
      <!-- −1.00 -->
      <g transform="translate(7.2 247.550802) scale(0.1 -0.1)">
       <defs>
        <path id="DejaVuSans-2212" d="M 678 2272 
L 4684 2272 
L 4684 1741 
L 678 1741 
L 678 2272 
z
" transform="scale(0.015625)"/>
       </defs>
       <use xlink:href="#DejaVuSans-2212"/>
       <use xlink:href="#DejaVuSans-31" x="83.789062"/>
       <use xlink:href="#DejaVuSans-2e" x="147.412109"/>
       <use xlink:href="#DejaVuSans-30" x="179.199219"/>
       <use xlink:href="#DejaVuSans-30" x="242.822266"/>
      </g>
     </g>
    </g>
    <g id="ytick_2">
     <g id="line2d_11">
      <g>
       <use xlink:href="#ma7ab95d54c" x="44.845313" y="218.993687" style="stroke: #000000; stroke-width: 0.8"/>
      </g>
     </g>
     <g id="text_12">
      <!-- −0.75 -->
      <g transform="translate(7.2 222.792906) scale(0.1 -0.1)">
       <defs>
        <path id="DejaVuSans-37" d="M 525 4666 
L 3525 4666 
L 3525 4397 
L 1831 0 
L 1172 0 
L 2766 4134 
L 525 4134 
L 525 4666 
z
" transform="scale(0.015625)"/>
       </defs>
       <use xlink:href="#DejaVuSans-2212"/>
       <use xlink:href="#DejaVuSans-30" x="83.789062"/>
       <use xlink:href="#DejaVuSans-2e" x="147.412109"/>
       <use xlink:href="#DejaVuSans-37" x="179.199219"/>
       <use xlink:href="#DejaVuSans-35" x="242.822266"/>
      </g>
     </g>
    </g>
    <g id="ytick_3">
     <g id="line2d_12">
      <g>
       <use xlink:href="#ma7ab95d54c" x="44.845313" y="194.235792" style="stroke: #000000; stroke-width: 0.8"/>
      </g>
     </g>
     <g id="text_13">
      <!-- −0.50 -->
      <g transform="translate(7.2 198.03501) scale(0.1 -0.1)">
       <use xlink:href="#DejaVuSans-2212"/>
       <use xlink:href="#DejaVuSans-30" x="83.789062"/>
       <use xlink:href="#DejaVuSans-2e" x="147.412109"/>
       <use xlink:href="#DejaVuSans-35" x="179.199219"/>
       <use xlink:href="#DejaVuSans-30" x="242.822266"/>
      </g>
     </g>
    </g>
    <g id="ytick_4">
     <g id="line2d_13">
      <g>
       <use xlink:href="#ma7ab95d54c" x="44.845313" y="169.477896" style="stroke: #000000; stroke-width: 0.8"/>
      </g>
     </g>
     <g id="text_14">
      <!-- −0.25 -->
      <g transform="translate(7.2 173.277115) scale(0.1 -0.1)">
       <use xlink:href="#DejaVuSans-2212"/>
       <use xlink:href="#DejaVuSans-30" x="83.789062"/>
       <use xlink:href="#DejaVuSans-2e" x="147.412109"/>
       <use xlink:href="#DejaVuSans-32" x="179.199219"/>
       <use xlink:href="#DejaVuSans-35" x="242.822266"/>
      </g>
     </g>
    </g>
    <g id="ytick_5">
     <g id="line2d_14">
      <g>
       <use xlink:href="#ma7ab95d54c" x="44.845313" y="144.72" style="stroke: #000000; stroke-width: 0.8"/>
      </g>
     </g>
     <g id="text_15">
      <!-- 0.00 -->
      <g transform="translate(15.579688 148.519219) scale(0.1 -0.1)">
       <use xlink:href="#DejaVuSans-30"/>
       <use xlink:href="#DejaVuSans-2e" x="63.623047"/>
       <use xlink:href="#DejaVuSans-30" x="95.410156"/>
       <use xlink:href="#DejaVuSans-30" x="159.033203"/>
      </g>
     </g>
    </g>
    <g id="ytick_6">
     <g id="line2d_15">
      <g>
       <use xlink:href="#ma7ab95d54c" x="44.845313" y="119.962104" style="stroke: #000000; stroke-width: 0.8"/>
      </g>
     </g>
     <g id="text_16">
      <!-- 0.25 -->
      <g transform="translate(15.579688 123.761323) scale(0.1 -0.1)">
       <use xlink:href="#DejaVuSans-30"/>
       <use xlink:href="#DejaVuSans-2e" x="63.623047"/>
       <use xlink:href="#DejaVuSans-32" x="95.410156"/>
       <use xlink:href="#DejaVuSans-35" x="159.033203"/>
      </g>
     </g>
    </g>
    <g id="ytick_7">
     <g id="line2d_16">
      <g>
       <use xlink:href="#ma7ab95d54c" x="44.845313" y="95.204208" style="stroke: #000000; stroke-width: 0.8"/>
      </g>
     </g>
     <g id="text_17">
      <!-- 0.50 -->
      <g transform="translate(15.579688 99.003427) scale(0.1 -0.1)">
       <use xlink:href="#DejaVuSans-30"/>
       <use xlink:href="#DejaVuSans-2e" x="63.623047"/>
       <use xlink:href="#DejaVuSans-35" x="95.410156"/>
       <use xlink:href="#DejaVuSans-30" x="159.033203"/>
      </g>
     </g>
    </g>
    <g id="ytick_8">
     <g id="line2d_17">
      <g>
       <use xlink:href="#ma7ab95d54c" x="44.845313" y="70.446313" style="stroke: #000000; stroke-width: 0.8"/>
      </g>
     </g>
     <g id="text_18">
      <!-- 0.75 -->
      <g transform="translate(15.579688 74.245531) scale(0.1 -0.1)">
       <use xlink:href="#DejaVuSans-30"/>
       <use xlink:href="#DejaVuSans-2e" x="63.623047"/>
       <use xlink:href="#DejaVuSans-37" x="95.410156"/>
       <use xlink:href="#DejaVuSans-35" x="159.033203"/>
      </g>
     </g>
    </g>
    <g id="ytick_9">
     <g id="line2d_18">
      <g>
       <use xlink:href="#ma7ab95d54c" x="44.845313" y="45.688417" style="stroke: #000000; stroke-width: 0.8"/>
      </g>
     </g>
     <g id="text_19">
      <!-- 1.00 -->
      <g transform="translate(15.579688 49.487636) scale(0.1 -0.1)">
       <use xlink:href="#DejaVuSans-31"/>
       <use xlink:href="#DejaVuSans-2e" x="63.623047"/>
       <use xlink:href="#DejaVuSans-30" x="95.410156"/>
       <use xlink:href="#DejaVuSans-30" x="159.033203"/>
      </g>
     </g>
    </g>
   </g>
   <g id="line2d_19">
    <path d="M 44.929013 144.72 
L 45.096413 144.547998 
L 45.347513 143.936838 
L 45.766013 142.238559 
L 46.435613 138.466822 
L 47.774813 129.365653 
L 52.462013 96.829793 
L 54.638213 83.406472 
L 56.563313 72.881902 
L 58.237313 64.940461 
L 59.743913 58.865728 
L 61.083113 54.384795 
L 62.254913 51.210946 
L 63.259313 49.065241 
L 64.180013 47.575578 
L 65.017013 46.623719 
L 65.770313 46.097977 
L 66.439913 45.895304 
L 67.109513 45.942272 
L 67.779113 46.23876 
L 68.448713 46.78402 
L 69.202013 47.693059 
L 70.039013 49.066741 
L 70.959713 51.013549 
L 72.047813 53.890337 
L 73.219613 57.665118 
L 74.558813 62.801508 
L 75.981713 69.163968 
L 77.572013 77.290386 
L 79.413413 87.890734 
L 81.589613 101.799024 
L 84.268013 120.444035 
L 89.122613 156.185793 
L 92.889113 183.118955 
L 95.400113 199.504131 
L 97.408913 211.240635 
L 99.166613 220.279872 
L 100.756913 227.330195 
L 102.179813 232.644231 
L 103.435313 236.502519 
L 104.523413 239.188439 
L 105.527813 241.108979 
L 106.448513 242.388545 
L 107.201813 243.088784 
L 107.871413 243.447261 
L 108.541013 243.556345 
L 109.210613 243.41576 
L 109.880213 243.02586 
L 110.633513 242.290466 
L 111.470513 241.107661 
L 112.391213 239.367441 
L 113.395613 236.953928 
L 114.483713 233.748369 
L 115.739213 229.313532 
L 117.078413 223.756518 
L 118.585013 216.554001 
L 120.342713 206.998129 
L 122.351513 194.761965 
L 124.778813 178.48897 
L 128.043113 154.94536 
L 134.739113 106.321045 
L 137.250113 89.935869 
L 139.258913 78.199365 
L 141.016613 69.160128 
L 142.606913 62.109805 
L 144.029813 56.795769 
L 145.285313 52.937481 
L 146.373413 50.251561 
L 147.377813 48.331021 
L 148.298513 47.051455 
L 149.051813 46.351216 
L 149.721413 45.992739 
L 150.391013 45.883655 
L 151.060613 46.02424 
L 151.730213 46.41414 
L 152.483513 47.149534 
L 153.320513 48.332339 
L 154.241213 50.072559 
L 155.245613 52.486072 
L 156.333713 55.691631 
L 157.589213 60.126468 
L 158.928413 65.683482 
L 160.435013 72.885999 
L 162.192713 82.441871 
L 164.201513 94.678035 
L 166.628813 110.95103 
L 169.893113 134.49464 
L 176.589113 183.118955 
L 179.100113 199.504131 
L 181.108913 211.240635 
L 182.866613 220.279872 
L 184.456913 227.330195 
L 185.879813 232.644231 
L 187.135313 236.502519 
L 188.223413 239.188439 
L 189.227813 241.108979 
L 190.148513 242.388545 
L 190.901813 243.088784 
L 191.571413 243.447261 
L 192.241013 243.556345 
L 192.910613 243.41576 
L 193.580213 243.02586 
L 194.333513 242.290466 
L 195.170513 241.107661 
L 196.091213 239.367441 
L 197.095613 236.953928 
L 198.183713 233.748369 
L 199.439213 229.313532 
L 200.778413 223.756518 
L 202.285013 216.554001 
L 204.042713 206.998129 
L 206.051513 194.761965 
L 208.478813 178.48897 
L 211.743113 154.94536 
L 212.747513 146.728528 
L 213.584513 136.595987 
L 218.188013 76.963617 
L 219.359813 65.557537 
L 220.364213 57.71212 
L 221.201213 52.676032 
L 221.954513 49.382728 
L 222.540413 47.661812 
L 223.042613 46.783741 
L 223.461113 46.476993 
L 223.795913 46.510745 
L 224.130713 46.792581 
L 224.549213 47.4926 
L 225.051413 48.838772 
L 225.637313 51.097183 
L 226.306913 54.563436 
L 227.143913 60.171515 
L 228.148313 68.65199 
L 229.320113 80.712214 
L 230.743013 97.972674 
L 232.584413 123.338164 
L 237.941213 198.969533 
L 239.364113 215.105283 
L 240.535913 226.018876 
L 241.540313 233.386512 
L 242.377313 237.994689 
L 243.046913 240.624829 
L 243.632813 242.132443 
L 244.135013 242.825428 
L 244.469813 242.977833 
L 244.804613 242.882031 
L 245.139413 242.538263 
L 245.557913 241.761233 
L 246.060113 240.323644 
L 246.646013 237.960609 
L 247.399313 233.866179 
L 248.236313 227.983654 
L 249.240713 219.200949 
L 250.412513 206.834086 
L 251.835413 189.280647 
L 253.760513 162.471973 
L 258.531413 94.655314 
L 260.038013 76.968865 
L 261.209813 65.558831 
L 262.214213 57.712509 
L 263.051213 52.676176 
L 263.804513 49.382787 
L 264.390413 47.661841 
L 264.892613 46.783757 
L 265.311113 46.477003 
L 265.645913 46.510751 
L 265.980713 46.792585 
L 266.399213 47.492602 
L 266.901413 48.838774 
L 267.487313 51.097184 
L 268.156913 54.563436 
L 268.993913 60.171515 
L 269.998313 68.65199 
L 271.170113 80.712214 
L 272.593013 97.972674 
L 274.434413 123.338164 
L 279.791213 198.969533 
L 281.214113 215.105283 
L 282.385913 226.018876 
L 283.390313 233.386512 
L 284.227313 237.994689 
L 284.896913 240.624829 
L 285.482813 242.132443 
L 285.985013 242.825428 
L 286.319813 242.977833 
L 286.654613 242.882031 
L 286.989413 242.538263 
L 287.407913 241.761233 
L 287.910113 240.323644 
L 288.496013 237.960609 
L 289.249313 233.866179 
L 290.086313 227.983654 
L 291.090713 219.200949 
L 292.262513 206.834086 
L 293.685413 189.280647 
L 295.610513 162.471973 
L 300.381413 94.655314 
L 301.888013 76.968865 
L 303.059813 65.558831 
L 304.064213 57.712509 
L 304.901213 52.676176 
L 305.654513 49.382787 
L 306.240413 47.661841 
L 306.742613 46.783757 
L 307.161113 46.477003 
L 307.495913 46.510751 
L 307.830713 46.792585 
L 308.249213 47.492602 
L 308.751413 48.838774 
L 309.337313 51.097184 
L 310.006913 54.563436 
L 310.843913 60.171515 
L 311.848313 68.65199 
L 313.020113 80.712214 
L 314.443013 97.972674 
L 316.284413 123.338164 
L 321.641213 198.969533 
L 323.064113 215.105283 
L 324.235913 226.018876 
L 325.240313 233.386512 
L 326.077313 237.994689 
L 326.746913 240.624829 
L 327.332813 242.132443 
L 327.835013 242.825428 
L 328.169813 242.977833 
L 328.504613 242.882031 
L 328.839413 242.538263 
L 329.257913 241.761233 
L 329.760113 240.323644 
L 330.346013 237.960609 
L 331.099313 233.866179 
L 331.936313 227.983654 
L 332.940713 219.200949 
L 334.112513 206.834086 
L 335.535413 189.280647 
L 337.460513 162.471973 
L 342.231413 94.655314 
L 343.738013 76.968865 
L 344.909813 65.558831 
L 345.914213 57.712509 
L 346.751213 52.676176 
L 347.504513 49.382787 
L 348.090413 47.661841 
L 348.592613 46.783757 
L 349.011113 46.477003 
L 349.345913 46.510751 
L 349.680713 46.792585 
L 350.099213 47.492602 
L 350.601413 48.838774 
L 351.187313 51.097184 
L 351.856913 54.563436 
L 352.693913 60.171515 
L 353.698313 68.65199 
L 354.870113 80.712214 
L 356.293013 97.972674 
L 358.134413 123.338164 
L 363.491213 198.969533 
L 364.914113 215.105283 
L 366.085913 226.018876 
L 367.090313 233.386512 
L 367.927313 237.994689 
L 368.596913 240.624829 
L 369.182813 242.132443 
L 369.685013 242.825428 
L 370.019813 242.977833 
L 370.354613 242.882031 
L 370.689413 242.538263 
L 371.107913 241.761233 
L 371.610113 240.323644 
L 372.196013 237.960609 
L 372.949313 233.866179 
L 373.786313 227.983654 
L 374.790713 219.200949 
L 375.962513 206.834086 
L 377.385413 189.280647 
L 379.310513 162.471973 
L 379.645313 157.593811 
L 379.645313 157.593811 
" clip-path="url(#pb59bb21141)" style="fill: none; stroke: #1f77b4; stroke-width: 1.5; stroke-linecap: square"/>
   </g>
   <g id="patch_3">
    <path d="M 44.845313 253.44 
L 44.845313 36 
" style="fill: none; stroke: #000000; stroke-width: 0.8; stroke-linejoin: miter; stroke-linecap: square"/>
   </g>
   <g id="patch_4">
    <path d="M 379.645313 253.44 
L 379.645313 36 
" style="fill: none; stroke: #000000; stroke-width: 0.8; stroke-linejoin: miter; stroke-linecap: square"/>
   </g>
   <g id="patch_5">
    <path d="M 44.845313 253.44 
L 379.645313 253.44 
" style="fill: none; stroke: #000000; stroke-width: 0.8; stroke-linejoin: miter; stroke-linecap: square"/>
   </g>
   <g id="patch_6">
    <path d="M 44.845313 36 
L 379.645313 36 
" style="fill: none; stroke: #000000; stroke-width: 0.8; stroke-linejoin: miter; stroke-linecap: square"/>
   </g>
   <g id="legend_1">
    <g id="patch_7">
     <path d="M 51.845313 248.44 
L 101.545313 248.44 
Q 103.545313 248.44 103.545313 246.44 
L 103.545313 232.761875 
Q 103.545313 230.761875 101.545313 230.761875 
L 51.845313 230.761875 
Q 49.845313 230.761875 49.845313 232.761875 
L 49.845313 246.44 
Q 49.845313 248.44 51.845313 248.44 
z
" style="fill: #ffffff; opacity: 0.8; stroke: #cccccc; stroke-linejoin: miter"/>
    </g>
    <g id="line2d_20">
     <path d="M 53.845313 238.860312 
L 63.845313 238.860312 
L 73.845313 238.860312 
" style="fill: none; stroke: #1f77b4; stroke-width: 1.5; stroke-linecap: square"/>
    </g>
    <g id="text_20">
     <!-- $x(t)$ -->
     <g transform="translate(81.845313 242.360312) scale(0.1 -0.1)">
      <defs>
       <path id="DejaVuSans-Oblique-78" d="M 3841 3500 
L 2234 1784 
L 3219 0 
L 2559 0 
L 1819 1388 
L 531 0 
L -166 0 
L 1556 1844 
L 641 3500 
L 1300 3500 
L 1972 2234 
L 3144 3500 
L 3841 3500 
z
" transform="scale(0.015625)"/>
       <path id="DejaVuSans-28" d="M 1984 4856 
Q 1566 4138 1362 3434 
Q 1159 2731 1159 2009 
Q 1159 1288 1364 580 
Q 1569 -128 1984 -844 
L 1484 -844 
Q 1016 -109 783 600 
Q 550 1309 550 2009 
Q 550 2706 781 3412 
Q 1013 4119 1484 4856 
L 1984 4856 
z
" transform="scale(0.015625)"/>
       <path id="DejaVuSans-29" d="M 513 4856 
L 1013 4856 
Q 1481 4119 1714 3412 
Q 1947 2706 1947 2009 
Q 1947 1309 1714 600 
Q 1481 -109 1013 -844 
L 513 -844 
Q 928 -128 1133 580 
Q 1338 1288 1338 2009 
Q 1338 2731 1133 3434 
Q 928 4138 513 4856 
z
" transform="scale(0.015625)"/>
      </defs>
      <use xlink:href="#DejaVuSans-Oblique-78" transform="translate(0 0.125)"/>
      <use xlink:href="#DejaVuSans-28" transform="translate(59.179688 0.125)"/>
      <use xlink:href="#DejaVuSans-Oblique-74" transform="translate(98.193359 0.125)"/>
      <use xlink:href="#DejaVuSans-29" transform="translate(137.402344 0.125)"/>
     </g>
    </g>
   </g>
  </g>
  <g id="text_21">
   <!-- Input function $x(t)$ -->
   <g transform="translate(152.365313 16.32) scale(0.12 -0.12)">
    <defs>
     <path id="DejaVuSans-49" d="M 628 4666 
L 1259 4666 
L 1259 0 
L 628 0 
L 628 4666 
z
" transform="scale(0.015625)"/>
     <path id="DejaVuSans-6e" d="M 3513 2113 
L 3513 0 
L 2938 0 
L 2938 2094 
Q 2938 2591 2744 2837 
Q 2550 3084 2163 3084 
Q 1697 3084 1428 2787 
Q 1159 2491 1159 1978 
L 1159 0 
L 581 0 
L 581 3500 
L 1159 3500 
L 1159 2956 
Q 1366 3272 1645 3428 
Q 1925 3584 2291 3584 
Q 2894 3584 3203 3211 
Q 3513 2838 3513 2113 
z
" transform="scale(0.015625)"/>
     <path id="DejaVuSans-70" d="M 1159 525 
L 1159 -1331 
L 581 -1331 
L 581 3500 
L 1159 3500 
L 1159 2969 
Q 1341 3281 1617 3432 
Q 1894 3584 2278 3584 
Q 2916 3584 3314 3078 
Q 3713 2572 3713 1747 
Q 3713 922 3314 415 
Q 2916 -91 2278 -91 
Q 1894 -91 1617 61 
Q 1341 213 1159 525 
z
M 3116 1747 
Q 3116 2381 2855 2742 
Q 2594 3103 2138 3103 
Q 1681 3103 1420 2742 
Q 1159 2381 1159 1747 
Q 1159 1113 1420 752 
Q 1681 391 2138 391 
Q 2594 391 2855 752 
Q 3116 1113 3116 1747 
z
" transform="scale(0.015625)"/>
     <path id="DejaVuSans-75" d="M 544 1381 
L 544 3500 
L 1119 3500 
L 1119 1403 
Q 1119 906 1312 657 
Q 1506 409 1894 409 
Q 2359 409 2629 706 
Q 2900 1003 2900 1516 
L 2900 3500 
L 3475 3500 
L 3475 0 
L 2900 0 
L 2900 538 
Q 2691 219 2414 64 
Q 2138 -91 1772 -91 
Q 1169 -91 856 284 
Q 544 659 544 1381 
z
M 1991 3584 
L 1991 3584 
z
" transform="scale(0.015625)"/>
     <path id="DejaVuSans-74" d="M 1172 4494 
L 1172 3500 
L 2356 3500 
L 2356 3053 
L 1172 3053 
L 1172 1153 
Q 1172 725 1289 603 
Q 1406 481 1766 481 
L 2356 481 
L 2356 0 
L 1766 0 
Q 1100 0 847 248 
Q 594 497 594 1153 
L 594 3053 
L 172 3053 
L 172 3500 
L 594 3500 
L 594 4494 
L 1172 4494 
z
" transform="scale(0.015625)"/>
     <path id="DejaVuSans-20" transform="scale(0.015625)"/>
     <path id="DejaVuSans-66" d="M 2375 4863 
L 2375 4384 
L 1825 4384 
Q 1516 4384 1395 4259 
Q 1275 4134 1275 3809 
L 1275 3500 
L 2222 3500 
L 2222 3053 
L 1275 3053 
L 1275 0 
L 697 0 
L 697 3053 
L 147 3053 
L 147 3500 
L 697 3500 
L 697 3744 
Q 697 4328 969 4595 
Q 1241 4863 1831 4863 
L 2375 4863 
z
" transform="scale(0.015625)"/>
     <path id="DejaVuSans-63" d="M 3122 3366 
L 3122 2828 
Q 2878 2963 2633 3030 
Q 2388 3097 2138 3097 
Q 1578 3097 1268 2742 
Q 959 2388 959 1747 
Q 959 1106 1268 751 
Q 1578 397 2138 397 
Q 2388 397 2633 464 
Q 2878 531 3122 666 
L 3122 134 
Q 2881 22 2623 -34 
Q 2366 -91 2075 -91 
Q 1284 -91 818 406 
Q 353 903 353 1747 
Q 353 2603 823 3093 
Q 1294 3584 2113 3584 
Q 2378 3584 2631 3529 
Q 2884 3475 3122 3366 
z
" transform="scale(0.015625)"/>
     <path id="DejaVuSans-69" d="M 603 3500 
L 1178 3500 
L 1178 0 
L 603 0 
L 603 3500 
z
M 603 4863 
L 1178 4863 
L 1178 4134 
L 603 4134 
L 603 4863 
z
" transform="scale(0.015625)"/>
     <path id="DejaVuSans-6f" d="M 1959 3097 
Q 1497 3097 1228 2736 
Q 959 2375 959 1747 
Q 959 1119 1226 758 
Q 1494 397 1959 397 
Q 2419 397 2687 759 
Q 2956 1122 2956 1747 
Q 2956 2369 2687 2733 
Q 2419 3097 1959 3097 
z
M 1959 3584 
Q 2709 3584 3137 3096 
Q 3566 2609 3566 1747 
Q 3566 888 3137 398 
Q 2709 -91 1959 -91 
Q 1206 -91 779 398 
Q 353 888 353 1747 
Q 353 2609 779 3096 
Q 1206 3584 1959 3584 
z
" transform="scale(0.015625)"/>
    </defs>
    <use xlink:href="#DejaVuSans-49" transform="translate(0 0.015625)"/>
    <use xlink:href="#DejaVuSans-6e" transform="translate(29.492188 0.015625)"/>
    <use xlink:href="#DejaVuSans-70" transform="translate(92.871094 0.015625)"/>
    <use xlink:href="#DejaVuSans-75" transform="translate(156.347656 0.015625)"/>
    <use xlink:href="#DejaVuSans-74" transform="translate(219.726562 0.015625)"/>
    <use xlink:href="#DejaVuSans-20" transform="translate(258.935547 0.015625)"/>
    <use xlink:href="#DejaVuSans-66" transform="translate(290.722656 0.015625)"/>
    <use xlink:href="#DejaVuSans-75" transform="translate(325.927734 0.015625)"/>
    <use xlink:href="#DejaVuSans-6e" transform="translate(389.306641 0.015625)"/>
    <use xlink:href="#DejaVuSans-63" transform="translate(452.685547 0.015625)"/>
    <use xlink:href="#DejaVuSans-74" transform="translate(507.666016 0.015625)"/>
    <use xlink:href="#DejaVuSans-69" transform="translate(546.875 0.015625)"/>
    <use xlink:href="#DejaVuSans-6f" transform="translate(574.658203 0.015625)"/>
    <use xlink:href="#DejaVuSans-6e" transform="translate(635.839844 0.015625)"/>
    <use xlink:href="#DejaVuSans-20" transform="translate(699.21875 0.015625)"/>
    <use xlink:href="#DejaVuSans-Oblique-78" transform="translate(731.005859 0.015625)"/>
    <use xlink:href="#DejaVuSans-28" transform="translate(790.185547 0.015625)"/>
    <use xlink:href="#DejaVuSans-Oblique-74" transform="translate(829.199219 0.015625)"/>
    <use xlink:href="#DejaVuSans-29" transform="translate(868.408203 0.015625)"/>
   </g>
  </g>
 </g>
 <defs>
  <clipPath id="pb59bb21141">
   <rect x="44.845313" y="36" width="334.8" height="217.44"/>
  </clipPath>
 </defs>
</svg>
