<?xml version="1.0" encoding="utf-8" standalone="no"?>
<!DOCTYPE svg PUBLIC "-//W3C//DTD SVG 1.1//EN"
  "http://www.w3.org/Graphics/SVG/1.1/DTD/svg11.dtd">
<svg xmlns:xlink="http://www.w3.org/1999/xlink" width="384.736875pt" height="290.99625pt" viewBox="0 0 384.736875 290.99625" xmlns="http://www.w3.org/2000/svg" version="1.1">
 <metadata>
  <rdf:RDF xmlns:dc="http://purl.org/dc/elements/1.1/" xmlns:cc="http://creativecommons.org/ns#" xmlns:rdf="http://www.w3.org/1999/02/22-rdf-syntax-ns#">
   <cc:Work>
    <dc:type rdf:resource="http://purl.org/dc/dcmitype/StillImage"/>
    <dc:date>2022-11-20T19:44:52.115887</dc:date>
    <dc:format>image/svg+xml</dc:format>
    <dc:creator>
     <cc:Agent>
      <dc:title>Matplotlib v3.6.0, https://matplotlib.org/</dc:title>
     </cc:Agent>
    </dc:creator>
   </cc:Work>
  </rdf:RDF>
 </metadata>
 <defs>
  <style type="text/css">*{stroke-linejoin: round; stroke-linecap: butt}</style>
 </defs>
 <g id="figure_1">
  <g id="patch_1">
   <path d="M 0 290.99625 
L 384.736875 290.99625 
L 384.736875 0 
L 0 0 
L 0 290.99625 
z
" style="fill: none"/>
  </g>
  <g id="axes_1">
   <g id="patch_2">
    <path d="M 30.368437 253.44 
L 365.168437 253.44 
L 365.168437 36 
L 30.368437 36 
z
" style="fill: #ffffff"/>
   </g>
   <g id="matplotlib.axis_1">
    <g id="xtick_1">
     <g id="line2d_1">
      <defs>
       <path id="m936c2918ed" d="M 0 0 
L 0 3.5 
" style="stroke: #000000; stroke-width: 0.8"/>
      </defs>
      <g>
       <use xlink:href="#m936c2918ed" x="30.368437" y="253.44" style="stroke: #000000; stroke-width: 0.8"/>
      </g>
     </g>
     <g id="text_1">
      <!-- 0.00 -->
      <g transform="translate(19.235625 268.038437) scale(0.1 -0.1)">
       <defs>
        <path id="DejaVuSans-30" d="M 2034 4250 
Q 1547 4250 1301 3770 
Q 1056 3291 1056 2328 
Q 1056 1369 1301 889 
Q 1547 409 2034 409 
Q 2525 409 2770 889 
Q 3016 1369 3016 2328 
Q 3016 3291 2770 3770 
Q 2525 4250 2034 4250 
z
M 2034 4750 
Q 2819 4750 3233 4129 
Q 3647 3509 3647 2328 
Q 3647 1150 3233 529 
Q 2819 -91 2034 -91 
Q 1250 -91 836 529 
Q 422 1150 422 2328 
Q 422 3509 836 4129 
Q 1250 4750 2034 4750 
z
" transform="scale(0.015625)"/>
        <path id="DejaVuSans-2e" d="M 684 794 
L 1344 794 
L 1344 0 
L 684 0 
L 684 794 
z
" transform="scale(0.015625)"/>
       </defs>
       <use xlink:href="#DejaVuSans-30"/>
       <use xlink:href="#DejaVuSans-2e" x="63.623047"/>
       <use xlink:href="#DejaVuSans-30" x="95.410156"/>
       <use xlink:href="#DejaVuSans-30" x="159.033203"/>
      </g>
     </g>
    </g>
    <g id="xtick_2">
     <g id="line2d_2">
      <g>
       <use xlink:href="#m936c2918ed" x="72.218437" y="253.44" style="stroke: #000000; stroke-width: 0.8"/>
      </g>
     </g>
     <g id="text_2">
      <!-- 0.25 -->
      <g transform="translate(61.085625 268.038437) scale(0.1 -0.1)">
       <defs>
        <path id="DejaVuSans-32" d="M 1228 531 
L 3431 531 
L 3431 0 
L 469 0 
L 469 531 
Q 828 903 1448 1529 
Q 2069 2156 2228 2338 
Q 2531 2678 2651 2914 
Q 2772 3150 2772 3378 
Q 2772 3750 2511 3984 
Q 2250 4219 1831 4219 
Q 1534 4219 1204 4116 
Q 875 4013 500 3803 
L 500 4441 
Q 881 4594 1212 4672 
Q 1544 4750 1819 4750 
Q 2544 4750 2975 4387 
Q 3406 4025 3406 3419 
Q 3406 3131 3298 2873 
Q 3191 2616 2906 2266 
Q 2828 2175 2409 1742 
Q 1991 1309 1228 531 
z
" transform="scale(0.015625)"/>
        <path id="DejaVuSans-35" d="M 691 4666 
L 3169 4666 
L 3169 4134 
L 1269 4134 
L 1269 2991 
Q 1406 3038 1543 3061 
Q 1681 3084 1819 3084 
Q 2600 3084 3056 2656 
Q 3513 2228 3513 1497 
Q 3513 744 3044 326 
Q 2575 -91 1722 -91 
Q 1428 -91 1123 -41 
Q 819 9 494 109 
L 494 744 
Q 775 591 1075 516 
Q 1375 441 1709 441 
Q 2250 441 2565 725 
Q 2881 1009 2881 1497 
Q 2881 1984 2565 2268 
Q 2250 2553 1709 2553 
Q 1456 2553 1204 2497 
Q 953 2441 691 2322 
L 691 4666 
z
" transform="scale(0.015625)"/>
       </defs>
       <use xlink:href="#DejaVuSans-30"/>
       <use xlink:href="#DejaVuSans-2e" x="63.623047"/>
       <use xlink:href="#DejaVuSans-32" x="95.410156"/>
       <use xlink:href="#DejaVuSans-35" x="159.033203"/>
      </g>
     </g>
    </g>
    <g id="xtick_3">
     <g id="line2d_3">
      <g>
       <use xlink:href="#m936c2918ed" x="114.068437" y="253.44" style="stroke: #000000; stroke-width: 0.8"/>
      </g>
     </g>
     <g id="text_3">
      <!-- 0.50 -->
      <g transform="translate(102.935625 268.038437) scale(0.1 -0.1)">
       <use xlink:href="#DejaVuSans-30"/>
       <use xlink:href="#DejaVuSans-2e" x="63.623047"/>
       <use xlink:href="#DejaVuSans-35" x="95.410156"/>
       <use xlink:href="#DejaVuSans-30" x="159.033203"/>
      </g>
     </g>
    </g>
    <g id="xtick_4">
     <g id="line2d_4">
      <g>
       <use xlink:href="#m936c2918ed" x="155.918437" y="253.44" style="stroke: #000000; stroke-width: 0.8"/>
      </g>
     </g>
     <g id="text_4">
      <!-- 0.75 -->
      <g transform="translate(144.785625 268.038437) scale(0.1 -0.1)">
       <defs>
        <path id="DejaVuSans-37" d="M 525 4666 
L 3525 4666 
L 3525 4397 
L 1831 0 
L 1172 0 
L 2766 4134 
L 525 4134 
L 525 4666 
z
" transform="scale(0.015625)"/>
       </defs>
       <use xlink:href="#DejaVuSans-30"/>
       <use xlink:href="#DejaVuSans-2e" x="63.623047"/>
       <use xlink:href="#DejaVuSans-37" x="95.410156"/>
       <use xlink:href="#DejaVuSans-35" x="159.033203"/>
      </g>
     </g>
    </g>
    <g id="xtick_5">
     <g id="line2d_5">
      <g>
       <use xlink:href="#m936c2918ed" x="197.768437" y="253.44" style="stroke: #000000; stroke-width: 0.8"/>
      </g>
     </g>
     <g id="text_5">
      <!-- 1.00 -->
      <g transform="translate(186.635625 268.038437) scale(0.1 -0.1)">
       <defs>
        <path id="DejaVuSans-31" d="M 794 531 
L 1825 531 
L 1825 4091 
L 703 3866 
L 703 4441 
L 1819 4666 
L 2450 4666 
L 2450 531 
L 3481 531 
L 3481 0 
L 794 0 
L 794 531 
z
" transform="scale(0.015625)"/>
       </defs>
       <use xlink:href="#DejaVuSans-31"/>
       <use xlink:href="#DejaVuSans-2e" x="63.623047"/>
       <use xlink:href="#DejaVuSans-30" x="95.410156"/>
       <use xlink:href="#DejaVuSans-30" x="159.033203"/>
      </g>
     </g>
    </g>
    <g id="xtick_6">
     <g id="line2d_6">
      <g>
       <use xlink:href="#m936c2918ed" x="239.618437" y="253.44" style="stroke: #000000; stroke-width: 0.8"/>
      </g>
     </g>
     <g id="text_6">
      <!-- 1.25 -->
      <g transform="translate(228.485625 268.038437) scale(0.1 -0.1)">
       <use xlink:href="#DejaVuSans-31"/>
       <use xlink:href="#DejaVuSans-2e" x="63.623047"/>
       <use xlink:href="#DejaVuSans-32" x="95.410156"/>
       <use xlink:href="#DejaVuSans-35" x="159.033203"/>
      </g>
     </g>
    </g>
    <g id="xtick_7">
     <g id="line2d_7">
      <g>
       <use xlink:href="#m936c2918ed" x="281.468437" y="253.44" style="stroke: #000000; stroke-width: 0.8"/>
      </g>
     </g>
     <g id="text_7">
      <!-- 1.50 -->
      <g transform="translate(270.335625 268.038437) scale(0.1 -0.1)">
       <use xlink:href="#DejaVuSans-31"/>
       <use xlink:href="#DejaVuSans-2e" x="63.623047"/>
       <use xlink:href="#DejaVuSans-35" x="95.410156"/>
       <use xlink:href="#DejaVuSans-30" x="159.033203"/>
      </g>
     </g>
    </g>
    <g id="xtick_8">
     <g id="line2d_8">
      <g>
       <use xlink:href="#m936c2918ed" x="323.318437" y="253.44" style="stroke: #000000; stroke-width: 0.8"/>
      </g>
     </g>
     <g id="text_8">
      <!-- 1.75 -->
      <g transform="translate(312.185625 268.038437) scale(0.1 -0.1)">
       <use xlink:href="#DejaVuSans-31"/>
       <use xlink:href="#DejaVuSans-2e" x="63.623047"/>
       <use xlink:href="#DejaVuSans-37" x="95.410156"/>
       <use xlink:href="#DejaVuSans-35" x="159.033203"/>
      </g>
     </g>
    </g>
    <g id="xtick_9">
     <g id="line2d_9">
      <g>
       <use xlink:href="#m936c2918ed" x="365.168437" y="253.44" style="stroke: #000000; stroke-width: 0.8"/>
      </g>
     </g>
     <g id="text_9">
      <!-- 2.00 -->
      <g transform="translate(354.035625 268.038437) scale(0.1 -0.1)">
       <use xlink:href="#DejaVuSans-32"/>
       <use xlink:href="#DejaVuSans-2e" x="63.623047"/>
       <use xlink:href="#DejaVuSans-30" x="95.410156"/>
       <use xlink:href="#DejaVuSans-30" x="159.033203"/>
      </g>
     </g>
    </g>
    <g id="text_10">
     <!-- $t$ -->
     <g transform="translate(195.768437 281.716562) scale(0.1 -0.1)">
      <defs>
       <path id="DejaVuSans-Oblique-74" d="M 2706 3500 
L 2619 3053 
L 1472 3053 
L 1100 1153 
Q 1081 1047 1072 975 
Q 1063 903 1063 863 
Q 1063 663 1183 572 
Q 1303 481 1569 481 
L 2150 481 
L 2053 0 
L 1503 0 
Q 991 0 739 200 
Q 488 400 488 806 
Q 488 878 497 964 
Q 506 1050 525 1153 
L 897 3053 
L 409 3053 
L 500 3500 
L 978 3500 
L 1172 4494 
L 1747 4494 
L 1556 3500 
L 2706 3500 
z
" transform="scale(0.015625)"/>
      </defs>
      <use xlink:href="#DejaVuSans-Oblique-74" transform="translate(0 0.78125)"/>
     </g>
    </g>
   </g>
   <g id="matplotlib.axis_2">
    <g id="ytick_1">
     <g id="line2d_10">
      <defs>
       <path id="m39a25bb57f" d="M 0 0 
L -3.5 0 
" style="stroke: #000000; stroke-width: 0.8"/>
      </defs>
      <g>
       <use xlink:href="#m39a25bb57f" x="30.368437" y="229.344091" style="stroke: #000000; stroke-width: 0.8"/>
      </g>
     </g>
     <g id="text_11">
      <!-- 0.0 -->
      <g transform="translate(7.465312 233.14331) scale(0.1 -0.1)">
       <use xlink:href="#DejaVuSans-30"/>
       <use xlink:href="#DejaVuSans-2e" x="63.623047"/>
       <use xlink:href="#DejaVuSans-30" x="95.410156"/>
      </g>
     </g>
    </g>
    <g id="ytick_2">
     <g id="line2d_11">
      <g>
       <use xlink:href="#m39a25bb57f" x="30.368437" y="199.309849" style="stroke: #000000; stroke-width: 0.8"/>
      </g>
     </g>
     <g id="text_12">
      <!-- 0.1 -->
      <g transform="translate(7.465312 203.109068) scale(0.1 -0.1)">
       <use xlink:href="#DejaVuSans-30"/>
       <use xlink:href="#DejaVuSans-2e" x="63.623047"/>
       <use xlink:href="#DejaVuSans-31" x="95.410156"/>
      </g>
     </g>
    </g>
    <g id="ytick_3">
     <g id="line2d_12">
      <g>
       <use xlink:href="#m39a25bb57f" x="30.368437" y="169.275608" style="stroke: #000000; stroke-width: 0.8"/>
      </g>
     </g>
     <g id="text_13">
      <!-- 0.2 -->
      <g transform="translate(7.465312 173.074826) scale(0.1 -0.1)">
       <use xlink:href="#DejaVuSans-30"/>
       <use xlink:href="#DejaVuSans-2e" x="63.623047"/>
       <use xlink:href="#DejaVuSans-32" x="95.410156"/>
      </g>
     </g>
    </g>
    <g id="ytick_4">
     <g id="line2d_13">
      <g>
       <use xlink:href="#m39a25bb57f" x="30.368437" y="139.241366" style="stroke: #000000; stroke-width: 0.8"/>
      </g>
     </g>
     <g id="text_14">
      <!-- 0.3 -->
      <g transform="translate(7.465312 143.040585) scale(0.1 -0.1)">
       <defs>
        <path id="DejaVuSans-33" d="M 2597 2516 
Q 3050 2419 3304 2112 
Q 3559 1806 3559 1356 
Q 3559 666 3084 287 
Q 2609 -91 1734 -91 
Q 1441 -91 1130 -33 
Q 819 25 488 141 
L 488 750 
Q 750 597 1062 519 
Q 1375 441 1716 441 
Q 2309 441 2620 675 
Q 2931 909 2931 1356 
Q 2931 1769 2642 2001 
Q 2353 2234 1838 2234 
L 1294 2234 
L 1294 2753 
L 1863 2753 
Q 2328 2753 2575 2939 
Q 2822 3125 2822 3475 
Q 2822 3834 2567 4026 
Q 2313 4219 1838 4219 
Q 1578 4219 1281 4162 
Q 984 4106 628 3988 
L 628 4550 
Q 988 4650 1302 4700 
Q 1616 4750 1894 4750 
Q 2613 4750 3031 4423 
Q 3450 4097 3450 3541 
Q 3450 3153 3228 2886 
Q 3006 2619 2597 2516 
z
" transform="scale(0.015625)"/>
       </defs>
       <use xlink:href="#DejaVuSans-30"/>
       <use xlink:href="#DejaVuSans-2e" x="63.623047"/>
       <use xlink:href="#DejaVuSans-33" x="95.410156"/>
      </g>
     </g>
    </g>
    <g id="ytick_5">
     <g id="line2d_14">
      <g>
       <use xlink:href="#m39a25bb57f" x="30.368437" y="109.207124" style="stroke: #000000; stroke-width: 0.8"/>
      </g>
     </g>
     <g id="text_15">
      <!-- 0.4 -->
      <g transform="translate(7.465312 113.006343) scale(0.1 -0.1)">
       <defs>
        <path id="DejaVuSans-34" d="M 2419 4116 
L 825 1625 
L 2419 1625 
L 2419 4116 
z
M 2253 4666 
L 3047 4666 
L 3047 1625 
L 3713 1625 
L 3713 1100 
L 3047 1100 
L 3047 0 
L 2419 0 
L 2419 1100 
L 313 1100 
L 313 1709 
L 2253 4666 
z
" transform="scale(0.015625)"/>
       </defs>
       <use xlink:href="#DejaVuSans-30"/>
       <use xlink:href="#DejaVuSans-2e" x="63.623047"/>
       <use xlink:href="#DejaVuSans-34" x="95.410156"/>
      </g>
     </g>
    </g>
    <g id="ytick_6">
     <g id="line2d_15">
      <g>
       <use xlink:href="#m39a25bb57f" x="30.368437" y="79.172882" style="stroke: #000000; stroke-width: 0.8"/>
      </g>
     </g>
     <g id="text_16">
      <!-- 0.5 -->
      <g transform="translate(7.465312 82.972101) scale(0.1 -0.1)">
       <use xlink:href="#DejaVuSans-30"/>
       <use xlink:href="#DejaVuSans-2e" x="63.623047"/>
       <use xlink:href="#DejaVuSans-35" x="95.410156"/>
      </g>
     </g>
    </g>
    <g id="ytick_7">
     <g id="line2d_16">
      <g>
       <use xlink:href="#m39a25bb57f" x="30.368437" y="49.13864" style="stroke: #000000; stroke-width: 0.8"/>
      </g>
     </g>
     <g id="text_17">
      <!-- 0.6 -->
      <g transform="translate(7.465312 52.937859) scale(0.1 -0.1)">
       <defs>
        <path id="DejaVuSans-36" d="M 2113 2584 
Q 1688 2584 1439 2293 
Q 1191 2003 1191 1497 
Q 1191 994 1439 701 
Q 1688 409 2113 409 
Q 2538 409 2786 701 
Q 3034 994 3034 1497 
Q 3034 2003 2786 2293 
Q 2538 2584 2113 2584 
z
M 3366 4563 
L 3366 3988 
Q 3128 4100 2886 4159 
Q 2644 4219 2406 4219 
Q 1781 4219 1451 3797 
Q 1122 3375 1075 2522 
Q 1259 2794 1537 2939 
Q 1816 3084 2150 3084 
Q 2853 3084 3261 2657 
Q 3669 2231 3669 1497 
Q 3669 778 3244 343 
Q 2819 -91 2113 -91 
Q 1303 -91 875 529 
Q 447 1150 447 2328 
Q 447 3434 972 4092 
Q 1497 4750 2381 4750 
Q 2619 4750 2861 4703 
Q 3103 4656 3366 4563 
z
" transform="scale(0.015625)"/>
       </defs>
       <use xlink:href="#DejaVuSans-30"/>
       <use xlink:href="#DejaVuSans-2e" x="63.623047"/>
       <use xlink:href="#DejaVuSans-36" x="95.410156"/>
      </g>
     </g>
    </g>
   </g>
   <g id="line2d_17">
    <path d="M 30.535837 229.344091 
L 30.703237 227.118182 
L 30.870637 234.485332 
L 31.038037 225.612411 
L 31.205437 232.764175 
L 31.372837 230.602719 
L 31.540237 231.095667 
L 31.707637 243.556364 
L 31.875037 222.846787 
L 32.209837 234.690298 
L 32.377237 230.858941 
L 32.544637 218.812466 
L 32.879437 227.578398 
L 33.046837 224.49904 
L 33.214237 227.450521 
L 33.381637 240.052716 
L 33.716437 228.151877 
L 33.883837 232.168499 
L 34.051237 231.346605 
L 34.218637 228.789958 
L 34.386037 228.657962 
L 34.553437 228.130575 
L 34.720837 234.041357 
L 34.888237 222.188795 
L 35.055637 235.254152 
L 35.223037 236.60352 
L 35.390437 227.456664 
L 35.557837 231.052501 
L 35.725237 221.211243 
L 35.892637 239.730136 
L 36.060037 241.71358 
L 36.227437 227.59283 
L 36.394837 227.588833 
L 36.729637 234.47469 
L 36.897037 228.161308 
L 37.064437 230.336606 
L 37.231837 239.44184 
L 37.399237 225.393228 
L 37.734037 231.84719 
L 37.901437 234.634661 
L 38.068837 231.018379 
L 38.236237 232.383767 
L 38.403637 229.954681 
L 38.571037 231.01931 
L 38.738437 239.909817 
L 38.905837 230.53297 
L 39.073237 237.523862 
L 39.240637 237.473954 
L 39.408037 243.074079 
L 39.575437 222.2024 
L 39.742837 222.513435 
L 40.077637 221.363215 
L 40.245037 235.08828 
L 40.412437 221.81447 
L 40.579837 225.695587 
L 40.747237 221.319597 
L 40.914637 223.646552 
L 41.082037 236.867103 
L 41.249437 233.051204 
L 41.416837 225.272343 
L 41.584237 228.47167 
L 41.751637 216.027701 
L 42.086437 237.048791 
L 42.253837 237.064534 
L 42.923437 221.907612 
L 43.090837 237.188248 
L 43.258237 235.775927 
L 43.425637 224.09275 
L 43.760437 239.133211 
L 44.095237 227.232706 
L 44.262637 224.505284 
L 44.597437 236.896039 
L 44.932237 223.792816 
L 45.099637 226.715329 
L 45.434437 234.29453 
L 45.769237 232.018564 
L 45.936637 221.189377 
L 46.104037 237.416317 
L 46.271437 238.023164 
L 46.438837 233.885529 
L 46.773637 221.686154 
L 46.941037 219.33684 
L 47.108437 229.713999 
L 47.275837 223.644387 
L 47.443237 236.100711 
L 47.610637 224.46058 
L 47.778037 232.521074 
L 47.945437 230.610477 
L 48.112837 234.208476 
L 48.280237 241.346093 
L 48.447637 222.413451 
L 48.615037 223.541394 
L 48.782437 228.948953 
L 48.949837 238.339183 
L 49.284637 228.056688 
L 49.452037 226.95531 
L 49.619437 235.269242 
L 49.954237 231.839838 
L 50.121637 217.983651 
L 50.289037 222.074685 
L 50.623837 236.387233 
L 50.791237 235.71699 
L 50.958637 228.15402 
L 51.293437 222.091997 
L 51.628237 238.314914 
L 51.963037 232.389048 
L 52.130437 232.477468 
L 52.297837 231.028281 
L 52.465237 240.285985 
L 52.632637 240.777481 
L 52.800037 219.759821 
L 53.134837 239.796016 
L 53.302237 233.763572 
L 53.469637 231.797191 
L 53.637037 228.349385 
L 53.804437 231.327509 
L 53.971837 231.857962 
L 54.139237 237.502384 
L 54.306637 234.523046 
L 54.474037 217.150422 
L 54.641437 223.42136 
L 54.808837 220.653213 
L 54.976237 239.146798 
L 55.311037 227.464363 
L 55.478437 234.28858 
L 55.813237 223.914044 
L 55.980637 223.356174 
L 56.148037 230.854493 
L 56.315437 232.929666 
L 56.482837 230.743545 
L 56.817637 235.160097 
L 57.152437 226.914867 
L 57.487237 231.913329 
L 57.654637 229.345883 
L 57.822037 232.39665 
L 57.989437 224.674377 
L 58.156837 235.233533 
L 58.324237 237.036318 
L 58.491637 242.984368 
L 58.659037 223.055027 
L 58.826437 232.992217 
L 58.993837 230.864737 
L 59.161237 232.029337 
L 59.328637 238.796986 
L 59.663437 224.628585 
L 59.830837 229.599143 
L 59.998237 222.463354 
L 60.165637 234.666627 
L 60.333037 225.286875 
L 60.500437 239.088748 
L 60.667837 219.745191 
L 60.835237 231.033474 
L 61.002637 234.535937 
L 61.170037 226.448551 
L 61.337437 228.769716 
L 61.504837 227.810122 
L 61.672237 223.232907 
L 62.007037 236.520471 
L 62.174437 226.745785 
L 62.341837 228.887712 
L 62.509237 220.7445 
L 62.676637 241.888561 
L 63.011437 223.717111 
L 63.346237 227.464965 
L 63.513637 233.356939 
L 63.681037 233.650333 
L 63.848437 223.44682 
L 64.183237 238.844769 
L 64.350637 232.782967 
L 64.518037 214.707752 
L 64.852837 237.015541 
L 65.020237 219.679022 
L 65.355037 233.113887 
L 65.522437 228.013076 
L 65.689837 226.701549 
L 65.857237 230.020956 
L 66.024637 230.182322 
L 66.192037 221.370602 
L 66.526837 237.013276 
L 67.029037 229.820669 
L 67.196437 227.320648 
L 67.363837 235.112577 
L 67.531237 233.214682 
L 67.698637 226.510665 
L 67.866037 230.80003 
L 68.033437 222.858758 
L 68.368237 233.24372 
L 68.535637 234.926806 
L 68.870437 223.640996 
L 69.037837 227.622751 
L 69.205237 226.162143 
L 69.372637 229.579985 
L 69.540037 224.091298 
L 69.707437 230.745791 
L 69.874837 230.138539 
L 70.042237 234.354587 
L 70.209637 219.880988 
L 70.544437 232.387544 
L 70.879237 237.077214 
L 71.214037 221.092364 
L 71.381437 237.613125 
L 71.548837 235.856465 
L 71.716237 229.62466 
L 71.883637 233.777503 
L 72.051037 220.125345 
L 72.385837 228.925956 
L 72.720637 241.318186 
L 72.888037 240.272417 
L 73.222837 212.244142 
L 73.390237 220.69593 
L 73.557637 236.433581 
L 73.725037 232.947987 
L 73.892437 227.013368 
L 74.059837 227.327756 
L 74.227237 229.087951 
L 74.562037 220.664272 
L 74.729437 230.491871 
L 74.896837 221.716907 
L 75.064237 225.676821 
L 75.231637 234.210923 
L 75.399037 220.717972 
L 75.566437 218.047326 
L 75.901237 241.710271 
L 76.236037 216.810537 
L 76.403437 230.675166 
L 76.570837 224.882639 
L 76.738237 226.106284 
L 76.905637 240.565842 
L 77.073037 224.970394 
L 77.240437 221.285829 
L 77.407837 234.611066 
L 77.742637 227.434652 
L 77.910037 216.970778 
L 78.077437 235.417997 
L 78.412237 224.187203 
L 78.747037 230.159498 
L 79.081837 221.040909 
L 79.249237 225.934021 
L 79.416637 235.511785 
L 79.584037 231.339236 
L 79.751437 222.11272 
L 79.918837 224.273782 
L 80.086237 231.202203 
L 80.253637 216.85913 
L 80.421037 228.429569 
L 80.588437 223.31816 
L 80.755837 213.890941 
L 80.923237 220.230879 
L 81.090637 219.415655 
L 81.258037 234.085063 
L 81.425437 207.394178 
L 81.592837 221.512639 
L 81.760237 225.052649 
L 81.927637 225.642356 
L 82.095037 227.672865 
L 82.262437 226.324263 
L 82.429837 226.081432 
L 82.597237 229.789639 
L 82.764637 230.809914 
L 82.932037 229.595815 
L 83.099437 210.871914 
L 83.266837 219.216717 
L 83.434237 221.599934 
L 83.601637 226.45008 
L 83.769037 209.671544 
L 83.936437 231.263533 
L 84.103837 231.080874 
L 84.271237 215.354837 
L 84.438637 219.067753 
L 84.606037 230.963735 
L 84.773437 216.189083 
L 84.940837 214.980413 
L 85.275637 219.782221 
L 85.610437 228.48628 
L 85.777837 223.700888 
L 85.945237 213.609801 
L 86.280037 225.123255 
L 86.447437 222.426537 
L 86.614837 223.836581 
L 86.949637 215.176216 
L 87.117037 221.141352 
L 87.284437 214.161222 
L 87.451837 201.472073 
L 87.786637 214.549431 
L 88.121437 215.870326 
L 88.288837 215.842771 
L 88.456237 225.059815 
L 88.623637 200.838518 
L 88.791037 201.055078 
L 88.958437 203.838636 
L 89.460637 225.559928 
L 89.628037 202.330043 
L 89.795437 206.570003 
L 89.962837 207.619567 
L 90.297637 211.805674 
L 90.465037 191.51248 
L 90.632437 198.581818 
L 90.799837 199.261298 
L 91.134637 206.378057 
L 91.302037 206.253133 
L 91.469437 205.871357 
L 91.636837 195.927258 
L 91.804237 212.716153 
L 91.971637 208.773731 
L 92.139037 186.125178 
L 92.306437 181.614949 
L 92.473837 197.613791 
L 92.641237 202.467454 
L 92.976037 189.189687 
L 93.143437 211.235704 
L 93.310837 208.811747 
L 93.645637 187.608111 
L 93.813037 186.856028 
L 93.980437 197.544111 
L 94.315237 188.017447 
L 94.482637 190.138575 
L 94.650037 189.509408 
L 94.817437 192.508101 
L 95.152237 179.879822 
L 95.319637 192.472916 
L 95.487037 185.463347 
L 95.654437 183.294508 
L 95.821837 185.564119 
L 95.989237 194.151025 
L 96.156637 192.386839 
L 96.324037 180.007058 
L 96.491437 179.246593 
L 96.658837 182.496089 
L 96.826237 182.347828 
L 96.993637 177.392045 
L 97.161037 184.306087 
L 97.328437 183.094846 
L 97.495837 185.633065 
L 97.663237 177.370597 
L 97.830637 163.30691 
L 97.998037 172.324769 
L 98.165437 174.1023 
L 98.332837 193.891848 
L 98.667637 179.351271 
L 98.835037 174.178423 
L 99.002437 178.844717 
L 99.169837 158.987345 
L 99.337237 162.095106 
L 99.504637 169.700011 
L 99.839437 166.779332 
L 100.174237 173.209323 
L 100.341637 161.949406 
L 100.509037 172.018355 
L 100.843837 160.746358 
L 101.011237 163.610832 
L 101.346037 162.741743 
L 101.513437 160.670323 
L 101.680837 161.209784 
L 101.848237 164.448658 
L 102.015637 157.157091 
L 102.183037 163.519628 
L 102.350437 157.044993 
L 102.517837 156.866019 
L 102.685237 144.554494 
L 102.852637 154.489555 
L 103.020037 157.715216 
L 103.187437 145.124131 
L 103.354837 142.857493 
L 103.522237 146.4155 
L 103.689637 164.864272 
L 104.024437 152.205919 
L 104.191837 153.786634 
L 104.359237 159.01427 
L 104.526637 147.100383 
L 104.694037 149.160988 
L 104.861437 147.919347 
L 105.028837 144.070668 
L 105.196237 144.033346 
L 105.363637 146.602107 
L 105.531037 152.977265 
L 105.698437 144.160196 
L 105.865837 152.817776 
L 106.033237 136.181837 
L 106.200637 133.709178 
L 106.368037 138.654907 
L 106.535437 139.19735 
L 106.702837 138.55177 
L 106.870237 147.031505 
L 107.037637 135.647335 
L 107.205037 144.429394 
L 107.372437 140.923701 
L 107.539837 132.578521 
L 107.707237 136.659567 
L 107.874637 143.996746 
L 108.042037 131.329209 
L 108.209437 135.627528 
L 108.376837 136.50226 
L 108.544237 131.192882 
L 108.711637 134.671301 
L 108.879037 130.940568 
L 109.046437 132.206783 
L 109.213837 131.177063 
L 109.548637 136.803666 
L 109.716037 132.61149 
L 109.883437 133.77146 
L 110.050838 136.347463 
L 110.218237 136.340954 
L 110.385637 120.023591 
L 110.553037 132.438922 
L 110.720437 128.25382 
L 110.887837 134.6294 
L 111.055237 132.146957 
L 111.222637 134.601762 
L 111.557437 120.748573 
L 111.724837 122.653344 
L 111.892237 133.522186 
L 112.227037 120.738507 
L 112.394437 132.835693 
L 112.729237 122.806745 
L 112.896637 126.46261 
L 113.064037 137.030523 
L 113.231437 116.211899 
L 113.566237 128.022041 
L 113.901037 114.154946 
L 114.068437 133.423607 
L 114.235837 118.662119 
L 114.403237 125.649926 
L 114.570637 127.75062 
L 114.738037 120.894362 
L 114.905437 127.972848 
L 115.072837 127.701516 
L 115.240237 105.717446 
L 115.742437 127.141381 
L 115.909837 123.987556 
L 116.244637 112.501104 
L 116.579437 124.162831 
L 116.746837 115.893259 
L 116.914237 117.711153 
L 117.081637 115.767979 
L 117.249037 122.409425 
L 117.416437 114.336179 
L 117.583837 124.424706 
L 117.751237 125.626182 
L 117.918637 120.659853 
L 118.086037 118.996694 
L 118.253437 120.808895 
L 118.420837 111.121999 
L 118.923037 120.15226 
L 119.090437 110.151835 
L 119.257837 109.928064 
L 119.425237 103.443672 
L 119.760037 118.35816 
L 119.927437 115.041313 
L 120.094837 117.34812 
L 120.262237 103.538625 
L 120.597037 114.261284 
L 120.764437 113.458565 
L 120.931838 120.551944 
L 121.266637 96.58796 
L 121.434037 105.475955 
L 121.601437 106.508551 
L 121.768837 112.268823 
L 121.936237 102.609822 
L 122.103637 104.336865 
L 122.271037 96.080565 
L 122.605837 120.580387 
L 122.773237 107.344992 
L 122.940637 122.638997 
L 123.108037 117.208619 
L 123.275437 99.636064 
L 123.442837 106.263684 
L 123.610237 96.189798 
L 123.777637 102.359792 
L 123.945037 117.659161 
L 124.279837 96.820505 
L 124.447237 106.392882 
L 124.614638 103.648951 
L 124.949438 111.279951 
L 125.116838 108.153275 
L 125.284238 91.675209 
L 125.451638 105.975864 
L 125.619038 103.471865 
L 125.786438 98.641611 
L 126.121237 110.008632 
L 126.288637 103.00457 
L 126.456037 102.071341 
L 126.623437 108.429958 
L 126.790837 108.963962 
L 126.958237 95.523907 
L 127.125637 97.938069 
L 127.293037 96.63464 
L 127.460437 88.119446 
L 127.627837 110.901657 
L 127.795237 104.869951 
L 127.962637 110.3265 
L 128.130037 105.137069 
L 128.297437 86.894536 
L 128.632237 101.603638 
L 128.799637 94.950138 
L 128.967037 95.300022 
L 129.134437 92.006078 
L 129.301837 94.192928 
L 129.469237 104.278056 
L 129.636637 107.277246 
L 129.804037 96.143515 
L 129.971437 96.683523 
L 130.138837 100.196371 
L 130.306237 89.138302 
L 130.641037 91.219921 
L 130.808437 85.821069 
L 131.143237 99.226757 
L 131.310637 99.935106 
L 131.478037 98.689805 
L 131.645437 95.012012 
L 131.812837 98.067205 
L 131.980237 92.680411 
L 132.147637 93.889498 
L 132.315037 83.471826 
L 132.482437 85.203858 
L 132.649837 89.933247 
L 132.817237 99.085556 
L 132.984637 87.904666 
L 133.152037 97.313964 
L 133.319437 86.85941 
L 133.654237 99.709808 
L 133.821637 88.807203 
L 133.989037 93.43798 
L 134.156437 93.389674 
L 134.323837 83.312363 
L 134.658637 97.321477 
L 134.826037 76.509842 
L 135.160837 95.601978 
L 135.328237 80.778683 
L 135.495637 98.098521 
L 135.663037 93.156185 
L 135.830437 84.196759 
L 135.997837 96.298918 
L 136.165237 90.030328 
L 136.332637 79.574078 
L 136.500037 89.830614 
L 136.667437 86.891528 
L 136.834837 76.426247 
L 137.169637 102.906166 
L 137.504437 75.781197 
L 137.671837 88.636606 
L 137.839237 87.20157 
L 138.006637 81.075002 
L 138.174037 97.095716 
L 138.341437 88.318038 
L 138.508837 85.779233 
L 138.676237 94.858054 
L 138.843637 78.614684 
L 139.011037 79.954021 
L 139.178437 94.63414 
L 139.345837 78.115217 
L 139.513237 80.882834 
L 139.848037 74.654167 
L 140.015437 92.877543 
L 140.182837 83.155076 
L 140.517637 80.20241 
L 140.685037 84.657412 
L 140.852437 78.704303 
L 141.019837 89.327521 
L 141.187237 80.433947 
L 141.354637 77.617992 
L 141.522037 89.531716 
L 141.689437 85.709838 
L 141.856837 79.154618 
L 142.024237 81.961688 
L 142.191637 82.004209 
L 142.359037 71.881677 
L 142.693838 95.343586 
L 143.028638 78.546054 
L 143.196037 84.705835 
L 143.363437 70.816958 
L 143.865637 87.135668 
L 144.033037 71.021929 
L 144.200437 83.316843 
L 144.367837 72.110031 
L 145.037437 90.029178 
L 145.204837 80.95438 
L 145.372237 79.120921 
L 145.707037 91.928209 
L 145.874437 73.636338 
L 146.041837 86.642268 
L 146.209238 71.886014 
L 146.376637 72.296426 
L 146.544038 82.203724 
L 146.711437 70.268772 
L 146.878838 81.818446 
L 147.046237 71.284985 
L 147.381037 86.597482 
L 147.548438 74.404401 
L 147.715837 75.736393 
L 147.883238 82.29498 
L 148.050637 82.184513 
L 148.385437 74.419513 
L 148.552837 64.039314 
L 148.887637 83.943532 
L 149.055037 76.006885 
L 149.222437 74.511598 
L 149.389837 76.102359 
L 149.557237 71.64209 
L 149.892037 81.504785 
L 150.059437 75.342633 
L 150.226837 84.917947 
L 150.561637 67.17416 
L 150.896437 89.362245 
L 151.231237 70.077199 
L 151.398637 77.501017 
L 151.566037 75.228381 
L 151.733437 75.821678 
L 151.900837 86.775744 
L 152.235637 75.808115 
L 152.403037 85.662939 
L 152.570437 78.434844 
L 152.737837 84.25457 
L 153.072637 70.974277 
L 153.240037 74.322173 
L 153.407437 85.075061 
L 153.742237 65.916821 
L 153.909637 79.551871 
L 154.411837 72.056346 
L 154.579237 78.525798 
L 154.746637 79.021873 
L 155.081437 75.432661 
L 155.248837 70.78705 
L 155.583637 81.684774 
L 155.751037 79.198167 
L 155.918437 66.249058 
L 156.085837 76.306451 
L 156.253237 78.560804 
L 156.420637 68.568107 
L 156.588037 77.453411 
L 156.755437 73.756792 
L 156.922837 72.681162 
L 157.090237 78.928366 
L 157.257637 71.417375 
L 157.425037 69.64644 
L 157.759837 81.681862 
L 158.094637 66.096021 
L 158.262037 70.233984 
L 158.429437 80.685622 
L 158.596837 78.801387 
L 158.764237 84.709718 
L 159.099037 64.779963 
L 159.266437 73.6456 
L 159.433837 68.220661 
L 159.768637 81.357031 
L 159.936037 78.04245 
L 160.103437 68.086843 
L 160.270837 67.709011 
L 160.438237 74.35259 
L 160.605637 75.189322 
L 160.773037 67.411705 
L 160.940437 80.047114 
L 161.107837 82.021766 
L 161.275237 62.718187 
L 161.610037 81.318986 
L 161.777437 68.915171 
L 161.944837 65.45962 
L 162.112237 77.949514 
L 162.279637 65.902483 
L 162.614437 74.043716 
L 162.949237 70.059463 
L 163.116637 75.640055 
L 163.284037 58.388104 
L 163.451437 75.563997 
L 163.786237 82.367288 
L 163.953637 71.442547 
L 164.121037 72.698225 
L 164.455837 64.29924 
L 164.623237 80.402229 
L 164.790637 73.66883 
L 164.958037 74.213816 
L 165.125437 69.761878 
L 165.292837 61.809301 
L 165.460237 71.300559 
L 165.627637 68.012684 
L 165.795037 69.385973 
L 165.962437 66.796025 
L 166.129837 74.773264 
L 166.297237 77.064505 
L 166.632037 67.035506 
L 166.966837 82.025451 
L 167.134237 67.353331 
L 167.469037 73.898371 
L 167.636437 63.468023 
L 167.971237 77.026058 
L 168.138637 74.527658 
L 168.306037 69.818471 
L 168.640837 66.537482 
L 168.808237 78.90908 
L 168.975637 71.364284 
L 169.143037 73.929694 
L 169.477837 64.691347 
L 169.812637 80.596898 
L 169.980037 69.324389 
L 170.147437 82.444332 
L 170.314837 65.657062 
L 170.482237 68.793935 
L 170.649637 69.188265 
L 170.817037 65.471813 
L 171.151837 79.601889 
L 171.319237 72.979358 
L 171.486637 57.211229 
L 171.654037 72.229707 
L 171.821437 70.221928 
L 171.988837 72.176257 
L 172.156237 67.288054 
L 172.323637 73.336289 
L 172.491037 72.505302 
L 172.658437 81.409609 
L 172.825837 69.383145 
L 172.993237 69.575142 
L 173.328037 85.594417 
L 173.495437 70.232722 
L 173.830237 76.590722 
L 173.997637 66.680422 
L 174.165037 66.404731 
L 174.332437 77.588124 
L 174.499837 63.34938 
L 174.667237 64.964521 
L 175.002037 72.047885 
L 175.336837 74.831458 
L 175.504237 73.686066 
L 175.671637 65.853136 
L 176.173837 75.956202 
L 176.341237 80.650768 
L 176.676037 62.047751 
L 176.843437 67.161467 
L 177.010837 80.783835 
L 177.345637 62.3997 
L 177.513037 76.474937 
L 177.847837 66.261792 
L 178.182637 70.297343 
L 178.350037 79.440358 
L 178.517437 82.464074 
L 178.684837 78.908254 
L 179.019637 63.032515 
L 179.187037 73.153265 
L 179.354437 65.853937 
L 179.689237 75.299201 
L 180.024037 53.12641 
L 180.191437 76.778361 
L 180.526237 67.491263 
L 180.693637 59.281355 
L 180.861037 69.401087 
L 181.028437 62.376286 
L 181.363237 81.716301 
L 181.698037 63.980564 
L 181.865437 75.72102 
L 182.032837 62.237551 
L 182.200237 72.210766 
L 182.367637 72.370048 
L 182.535037 61.479569 
L 182.869837 70.524916 
L 183.037237 59.591199 
L 183.372037 80.858063 
L 183.539437 69.956682 
L 183.706837 67.648434 
L 183.874237 77.041201 
L 184.209037 50.884176 
L 184.376437 72.79261 
L 184.543837 79.67096 
L 184.711237 65.299661 
L 184.878637 71.894316 
L 185.046037 72.156011 
L 185.213437 59.961774 
L 185.380837 64.569455 
L 185.548237 74.134964 
L 185.715637 66.110116 
L 185.883037 65.701955 
L 186.050437 73.75207 
L 186.217837 66.713183 
L 186.385237 64.505018 
L 186.552637 76.743391 
L 186.720037 74.522061 
L 187.054837 57.447362 
L 187.222237 64.578041 
L 187.557037 61.509285 
L 187.891837 68.735502 
L 188.059237 60.897832 
L 188.226637 71.784594 
L 188.394037 62.416472 
L 188.728837 76.845465 
L 188.896237 71.969029 
L 189.063637 71.089455 
L 189.231037 73.281857 
L 189.398438 63.931135 
L 189.733238 78.470985 
L 190.068037 62.951278 
L 190.235437 64.119286 
L 190.402837 73.87607 
L 190.570237 60.334086 
L 190.737637 61.634905 
L 190.905037 73.939021 
L 191.072437 71.759029 
L 191.239837 54.171251 
L 191.574637 70.346266 
L 191.742037 70.256708 
L 191.909437 76.685178 
L 192.076837 71.677325 
L 192.244237 58.778749 
L 192.579037 74.355709 
L 192.746437 59.931399 
L 192.913837 67.341767 
L 193.416037 60.197467 
L 193.583437 69.599464 
L 193.750837 70.054433 
L 193.918237 72.596958 
L 194.085637 78.167054 
L 194.420437 64.394902 
L 194.587837 76.070203 
L 194.755237 64.864826 
L 194.922637 66.193331 
L 195.090037 81.098209 
L 195.257437 64.215017 
L 195.424837 64.158618 
L 195.759637 61.530886 
L 196.094437 74.707367 
L 196.429237 53.304475 
L 197.098837 75.068931 
L 197.266237 71.061264 
L 197.433637 69.79082 
L 197.768437 57.05925 
L 198.103237 67.776191 
L 198.270637 62.920115 
L 198.438037 67.527254 
L 198.605437 68.640353 
L 198.772837 63.942728 
L 199.107637 70.743603 
L 199.275037 61.637794 
L 199.442437 66.031635 
L 199.609837 74.077464 
L 199.777237 67.233613 
L 199.944637 64.979141 
L 200.112037 67.440297 
L 200.279438 65.941878 
L 200.446837 73.788752 
L 200.614238 71.795103 
L 200.781637 60.573874 
L 200.949038 62.165988 
L 201.116437 64.898228 
L 201.283838 63.568977 
L 201.451237 59.868946 
L 201.618638 62.54319 
L 201.786037 63.276481 
L 201.953437 59.510429 
L 202.288237 72.668381 
L 202.455637 65.110512 
L 202.623037 68.630956 
L 202.790437 67.998344 
L 202.957837 61.127752 
L 203.125237 69.252915 
L 203.292637 68.377938 
L 203.460037 59.894865 
L 203.627437 61.313947 
L 203.794837 73.760013 
L 203.962237 57.076471 
L 204.297037 75.321853 
L 204.464437 69.046242 
L 204.631837 57.982334 
L 204.799237 69.662049 
L 205.134037 65.93445 
L 205.301437 62.485849 
L 205.468837 53.556579 
L 205.803637 63.871961 
L 205.971037 65.871364 
L 206.138437 71.996092 
L 206.305837 67.226229 
L 206.473237 49.738423 
L 206.640637 61.917442 
L 206.975437 69.275333 
L 207.142837 59.187846 
L 207.310237 62.042247 
L 207.477637 52.701435 
L 207.812437 78.830204 
L 207.979837 57.435537 
L 208.147237 67.715791 
L 208.314637 66.535723 
L 208.482037 66.787417 
L 208.649437 66.197168 
L 208.816837 57.882772 
L 209.151637 71.642575 
L 209.653837 47.790937 
L 209.988637 69.479138 
L 210.156037 63.129868 
L 210.490837 72.497769 
L 210.658237 55.092136 
L 210.825637 66.248835 
L 210.993037 67.474813 
L 211.160438 72.673492 
L 211.327837 70.406078 
L 211.495238 57.28799 
L 211.662637 58.819801 
L 211.997437 65.597862 
L 212.332237 62.906975 
L 212.499637 66.806289 
L 212.834437 56.145568 
L 213.169237 72.863667 
L 213.336637 62.415381 
L 213.504037 66.703554 
L 213.838837 58.7968 
L 214.006237 57.741892 
L 214.173637 68.608848 
L 214.341037 70.010481 
L 214.675837 55.894135 
L 214.843237 70.65002 
L 215.010637 62.680663 
L 215.178037 65.803044 
L 215.345437 66.248473 
L 215.512837 65.137242 
L 215.680237 54.73611 
L 215.847637 52.205104 
L 216.182437 60.358604 
L 216.349837 79.819637 
L 216.517237 57.686121 
L 216.684637 54.527586 
L 216.852037 68.638653 
L 217.019437 68.721909 
L 217.186837 58.124584 
L 217.354237 61.998995 
L 217.521637 62.285893 
L 217.689037 63.245721 
L 217.856437 48.406784 
L 218.023837 65.034862 
L 218.191237 67.957167 
L 218.693437 56.274814 
L 218.860838 70.34736 
L 219.195638 55.646201 
L 219.363037 56.750189 
L 219.530438 68.689281 
L 219.697837 67.013726 
L 219.865238 62.775997 
L 220.032637 68.497122 
L 220.200038 60.949861 
L 220.367437 64.243311 
L 220.534838 62.177352 
L 220.702237 58.566348 
L 220.869638 57.920285 
L 221.037037 56.541033 
L 221.204438 69.498974 
L 221.539237 49.258654 
L 221.706637 66.622467 
L 221.874037 60.714671 
L 222.041437 62.567207 
L 222.208837 71.355614 
L 222.376237 68.160891 
L 222.543637 59.023918 
L 222.711037 64.950247 
L 222.878437 52.183922 
L 223.045837 66.044312 
L 223.213237 57.472232 
L 223.380637 69.505664 
L 223.715437 55.57415 
L 223.882837 62.596737 
L 224.050237 55.87168 
L 224.385037 67.265792 
L 224.552437 61.875608 
L 224.719837 60.810734 
L 224.887237 54.406576 
L 225.054637 56.135855 
L 225.389437 67.729096 
L 225.556837 67.61544 
L 225.724237 61.249449 
L 225.891637 69.461117 
L 226.059037 60.501026 
L 226.226437 58.905822 
L 226.393837 65.200128 
L 226.561237 58.013332 
L 226.728637 64.787788 
L 226.896037 60.698684 
L 227.063437 63.506208 
L 227.230837 56.957863 
L 227.565637 65.812361 
L 227.733037 58.297715 
L 227.900437 59.147412 
L 228.235237 63.628242 
L 228.402637 66.310881 
L 228.570037 61.306938 
L 228.904837 63.530455 
L 229.072237 56.299884 
L 229.239637 68.123061 
L 229.407037 68.547658 
L 229.741837 61.441974 
L 229.909237 66.606272 
L 230.244037 60.778822 
L 230.746237 67.893915 
L 230.913637 62.182441 
L 231.081037 60.553341 
L 231.248437 60.193333 
L 231.415837 56.922209 
L 231.583237 76.180053 
L 231.750637 59.672249 
L 231.918037 54.976474 
L 232.085437 61.642545 
L 232.420237 54.336089 
L 232.587637 67.33478 
L 232.755037 65.681335 
L 233.089837 66.035142 
L 233.257237 64.176466 
L 233.424637 73.990784 
L 233.592037 60.240682 
L 233.759437 57.663315 
L 233.926837 64.55644 
L 234.094237 66.589413 
L 234.261637 58.793643 
L 234.429037 65.547655 
L 234.596437 60.487356 
L 234.931237 57.439365 
L 235.098637 54.27719 
L 235.600837 69.584427 
L 235.768237 54.899456 
L 235.935637 51.565393 
L 236.437838 71.788596 
L 236.605237 71.320952 
L 236.772638 47.93298 
L 237.107438 67.048747 
L 237.274837 57.791263 
L 237.442238 74.209263 
L 237.777038 50.910366 
L 238.111838 66.969976 
L 238.446638 61.482752 
L 238.614037 62.417077 
L 238.781437 51.28899 
L 238.948837 66.758698 
L 239.116237 71.464068 
L 239.451037 49.441557 
L 239.618437 70.887827 
L 239.953237 59.124281 
L 240.120637 58.642233 
L 240.288037 66.835951 
L 240.622837 60.625601 
L 240.790237 67.823849 
L 240.957637 55.462203 
L 241.292437 65.668914 
L 241.459837 58.360336 
L 241.627237 65.495104 
L 241.794637 54.071923 
L 241.962037 65.614006 
L 242.129437 64.433715 
L 242.296837 54.805055 
L 242.464237 64.168608 
L 242.631637 58.728565 
L 242.799037 63.188342 
L 242.966437 62.050361 
L 243.133837 63.028761 
L 243.301237 66.300738 
L 243.468637 65.061924 
L 243.636037 54.350397 
L 244.138238 68.093291 
L 244.305637 51.882217 
L 244.640437 66.995159 
L 244.807837 66.259274 
L 244.975237 50.939665 
L 245.142637 65.614587 
L 245.310037 58.323472 
L 245.477437 65.389663 
L 245.644837 60.164617 
L 245.812237 48.828451 
L 246.147037 75.22607 
L 246.314437 50.048494 
L 246.649237 67.256586 
L 246.984037 56.90007 
L 247.151437 67.432914 
L 247.318837 56.091029 
L 247.486237 59.90035 
L 247.653637 58.58758 
L 247.821037 56.197434 
L 248.155837 68.34718 
L 248.323237 60.154985 
L 248.490637 60.431853 
L 248.658037 64.049176 
L 248.825437 54.319771 
L 249.160237 68.526844 
L 249.327637 56.946076 
L 249.495037 64.705051 
L 249.662437 65.647984 
L 249.829837 47.184779 
L 250.164637 71.595238 
L 250.499437 53.784809 
L 250.666837 65.308511 
L 250.834237 57.67357 
L 251.001637 61.357038 
L 251.169037 60.14792 
L 251.336437 52.867101 
L 251.671237 67.640777 
L 251.838637 61.594816 
L 252.006037 64.767835 
L 252.173437 61.612575 
L 252.340837 53.553675 
L 252.508237 59.908187 
L 252.675637 54.527244 
L 252.843037 63.242298 
L 253.010437 63.315453 
L 253.177837 62.930567 
L 253.345237 62.949036 
L 253.512637 58.027037 
L 253.680037 58.227943 
L 253.847437 69.020985 
L 254.014837 60.740717 
L 254.182237 62.145084 
L 254.349638 58.439318 
L 254.684438 64.712095 
L 254.851837 53.955104 
L 255.186637 67.848929 
L 255.521437 66.054196 
L 255.688838 61.19175 
L 255.856237 60.783816 
L 256.023638 65.256076 
L 256.191037 61.93327 
L 256.358437 62.026135 
L 256.693238 68.690329 
L 256.860637 50.221766 
L 257.028037 49.410802 
L 257.195437 72.774315 
L 257.362838 65.908965 
L 257.530237 53.159078 
L 257.697637 66.10564 
L 257.865037 58.619389 
L 258.032438 59.93408 
L 258.199838 65.202589 
L 258.367237 63.1888 
L 258.534637 58.933185 
L 258.702038 67.748983 
L 258.869438 54.404067 
L 259.036837 65.700065 
L 259.204237 65.287179 
L 259.371638 63.049798 
L 259.539038 58.269298 
L 259.706437 74.448521 
L 259.873837 62.261356 
L 260.041238 61.174142 
L 260.208638 63.278856 
L 260.376037 60.074226 
L 260.543437 59.497285 
L 260.710838 68.361937 
L 260.878238 45.883636 
L 261.045637 59.060614 
L 261.213037 60.67716 
L 261.380438 59.554077 
L 261.547838 52.852433 
L 261.715238 62.494393 
L 262.050038 59.990196 
L 262.217438 60.049688 
L 262.384838 66.024747 
L 262.552237 66.796952 
L 262.719638 59.130563 
L 262.887038 56.926749 
L 263.221837 67.948524 
L 263.389238 64.433878 
L 263.556638 70.242167 
L 263.724038 61.40308 
L 263.891437 59.39936 
L 264.226237 71.684111 
L 264.393638 56.3104 
L 264.561037 62.676082 
L 264.728438 61.543262 
L 264.895837 57.279445 
L 265.063238 61.641087 
L 265.230638 61.167159 
L 265.398038 69.842452 
L 265.565437 55.886097 
L 265.732838 57.86525 
L 265.900238 63.698102 
L 266.067637 61.134865 
L 266.235037 55.724103 
L 266.402437 63.666726 
L 266.569838 59.971068 
L 266.737237 59.891955 
L 266.904637 70.03652 
L 267.072037 57.179724 
L 267.239438 67.248783 
L 267.406837 66.938793 
L 267.574237 63.928403 
L 267.741637 70.551699 
L 267.909038 53.597312 
L 268.076437 50.348054 
L 268.243837 64.779286 
L 268.411237 64.798802 
L 268.578638 61.361089 
L 268.746037 52.657193 
L 268.913437 62.393617 
L 269.080837 55.091395 
L 269.415638 77.650548 
L 269.583037 51.105977 
L 269.750437 53.576558 
L 269.917838 58.299965 
L 270.085238 52.012453 
L 270.252637 70.310833 
L 270.587438 53.123204 
L 270.922237 71.138961 
L 271.257038 54.876647 
L 271.424438 58.062197 
L 271.591837 55.115752 
L 271.759237 75.776829 
L 272.094037 49.762504 
L 272.261437 60.707266 
L 272.428837 63.301734 
L 272.596238 67.821088 
L 272.763637 67.061747 
L 273.098437 57.728439 
L 273.265838 58.647146 
L 273.433237 56.742591 
L 273.600638 64.473825 
L 273.768037 57.657112 
L 274.102837 63.872229 
L 274.270238 64.266024 
L 274.437637 69.406786 
L 274.605037 63.896753 
L 274.772437 48.357901 
L 274.939838 60.883539 
L 275.107237 63.754911 
L 275.274637 70.758859 
L 275.442037 57.52519 
L 275.609438 54.354634 
L 275.776837 66.982746 
L 276.111637 57.884292 
L 276.279038 64.993042 
L 276.446438 57.570469 
L 276.613837 69.214454 
L 276.948638 53.414392 
L 277.116038 55.560118 
L 277.283437 70.516475 
L 277.785638 60.430011 
L 277.953037 55.584375 
L 278.120437 71.486329 
L 278.287838 54.014245 
L 278.455238 66.330514 
L 278.622637 67.265733 
L 278.790037 53.657401 
L 278.957438 62.3598 
L 279.124838 50.859987 
L 279.459637 70.077588 
L 279.627038 55.744418 
L 279.794438 63.383869 
L 280.129237 58.035969 
L 280.296638 58.743869 
L 280.464038 67.790913 
L 280.631438 60.377031 
L 280.798837 61.036144 
L 280.966238 62.353981 
L 281.133638 53.303945 
L 281.468437 68.155242 
L 281.635838 75.878431 
L 281.803237 69.959674 
L 281.970638 56.870133 
L 282.138037 61.838015 
L 282.305438 60.812223 
L 282.472837 72.527813 
L 282.640238 61.303599 
L 282.807637 62.039657 
L 282.975037 71.949066 
L 283.309838 56.618416 
L 283.477238 65.623654 
L 283.644637 61.65869 
L 283.812037 69.506016 
L 284.146838 50.018418 
L 284.481637 68.115995 
L 284.649038 60.886351 
L 284.816438 66.623037 
L 284.983837 66.796636 
L 285.151237 54.661454 
L 285.318638 66.637229 
L 285.486038 67.539754 
L 285.653437 69.146517 
L 285.820837 77.133858 
L 285.988238 59.939586 
L 286.155638 56.181034 
L 286.323037 68.823492 
L 286.490437 57.158352 
L 286.825237 65.613518 
L 286.992638 50.26699 
L 287.327438 70.795019 
L 287.494837 64.38843 
L 287.829637 67.133928 
L 287.997037 54.173579 
L 288.164437 52.787218 
L 288.499237 80.104634 
L 288.666637 56.395458 
L 288.834037 65.125096 
L 289.001437 58.012941 
L 289.168837 64.727311 
L 289.503637 68.257 
L 289.671037 61.544301 
L 289.838437 62.194236 
L 290.005837 58.342494 
L 290.173237 63.166288 
L 290.340637 73.326027 
L 290.675437 57.543101 
L 290.842837 62.266678 
L 291.010237 63.131357 
L 291.177638 63.019445 
L 291.345037 63.43765 
L 291.512437 64.463544 
L 291.679837 72.283629 
L 291.847238 64.081867 
L 292.014637 69.311855 
L 292.182037 65.648706 
L 292.349437 58.858637 
L 292.516838 68.399998 
L 292.851637 55.881907 
L 293.019037 68.51279 
L 293.353837 57.072972 
L 293.521237 63.946271 
L 293.688637 63.056992 
L 293.856038 65.376242 
L 294.023438 57.71099 
L 294.190837 67.807141 
L 294.358237 62.793396 
L 294.693037 61.755489 
L 294.860437 68.554823 
L 295.027837 67.344932 
L 295.195238 52.470117 
L 295.362637 67.934073 
L 295.530037 67.631322 
L 295.697437 67.995984 
L 295.864837 62.522138 
L 296.032237 67.757692 
L 296.199637 66.006049 
L 296.367037 67.830155 
L 296.534437 68.002816 
L 296.701837 70.525863 
L 297.036637 64.278214 
L 297.204037 58.033641 
L 297.538837 71.783437 
L 297.706237 52.257063 
L 298.041037 74.820291 
L 298.208438 69.40752 
L 298.543237 55.169408 
L 298.710637 63.807262 
L 298.878038 78.731605 
L 299.045437 75.891134 
L 299.212837 56.894872 
L 299.380237 60.082353 
L 299.547638 67.186493 
L 299.715037 66.54283 
L 300.049837 61.787983 
L 300.384637 66.562293 
L 300.552037 59.908548 
L 300.719437 70.042139 
L 300.886838 56.586077 
L 301.221637 61.042894 
L 301.389037 60.474387 
L 301.556438 58.197503 
L 301.723838 62.698739 
L 301.891237 54.573227 
L 302.058637 60.410279 
L 302.226038 72.032387 
L 302.560837 69.631304 
L 302.728237 61.812908 
L 303.063038 66.269905 
L 303.230437 70.355244 
L 303.397837 47.001723 
L 303.732637 73.702684 
L 303.900037 71.456924 
L 304.067437 59.84436 
L 304.234838 60.875759 
L 304.402237 53.562717 
L 304.737037 66.086132 
L 305.071837 60.17948 
L 305.239238 72.383822 
L 305.406637 56.183367 
L 305.574037 60.275562 
L 305.741437 77.14409 
L 305.908838 61.173255 
L 306.076237 65.929575 
L 306.411037 60.347451 
L 306.745837 68.582141 
L 306.913237 60.737237 
L 307.080637 70.992171 
L 307.248038 64.711864 
L 307.415437 63.420006 
L 307.750237 68.229656 
L 307.917638 55.624326 
L 308.085037 67.745266 
L 308.252437 66.664791 
L 308.419837 64.455846 
L 308.587238 64.755542 
L 308.754638 65.424934 
L 308.922037 64.186098 
L 309.089437 69.991443 
L 309.256837 60.690019 
L 309.424238 63.669705 
L 309.591637 68.901713 
L 309.926437 61.687887 
L 310.093838 75.454837 
L 310.428637 53.952586 
L 310.596037 60.435673 
L 310.763438 71.739429 
L 310.930837 67.925565 
L 311.098237 70.75061 
L 311.433038 60.19638 
L 311.600437 73.125867 
L 311.767837 56.344533 
L 311.935237 57.061619 
L 312.102638 58.396513 
L 312.270037 62.347562 
L 312.437437 61.202856 
L 312.604837 58.284887 
L 312.772238 61.448684 
L 312.939637 68.198015 
L 313.107037 68.936163 
L 313.274437 65.920149 
L 313.441837 72.803747 
L 313.609237 58.261611 
L 313.776637 59.968556 
L 313.944037 63.690843 
L 314.111437 55.895167 
L 314.278837 68.516504 
L 314.613637 58.124684 
L 314.781037 68.971618 
L 314.948437 60.197934 
L 315.115837 61.511487 
L 315.283237 61.684908 
L 315.450637 65.541426 
L 315.618037 59.810367 
L 315.785438 60.980652 
L 315.952837 68.007932 
L 316.120237 62.330214 
L 316.455038 74.863254 
L 316.622437 55.97655 
L 316.789837 62.748176 
L 316.957237 61.588414 
L 317.124638 69.914519 
L 317.292037 69.092003 
L 317.459437 62.347434 
L 317.626837 62.952784 
L 317.961637 47.233546 
L 318.129037 64.385405 
L 318.296437 69.111587 
L 318.463838 53.526192 
L 318.631237 53.026432 
L 318.798637 68.626981 
L 318.966037 60.332355 
L 319.133438 62.850427 
L 319.300838 70.236286 
L 319.468237 61.63693 
L 319.635637 71.018346 
L 319.803038 66.227763 
L 319.970438 56.324682 
L 320.305237 74.62299 
L 320.472638 59.656162 
L 320.640038 70.229558 
L 320.807437 66.290603 
L 320.974837 53.213072 
L 321.309637 63.768367 
L 321.477037 55.26938 
L 321.644437 61.839286 
L 321.811838 63.13836 
L 321.979237 60.829964 
L 322.314037 65.456102 
L 322.481437 55.419017 
L 322.648837 63.271775 
L 322.816237 58.607153 
L 323.151037 65.19116 
L 323.318437 63.240949 
L 323.485838 71.359735 
L 323.653237 55.849399 
L 323.820637 55.73186 
L 323.988037 67.820817 
L 324.155438 68.993941 
L 324.322837 60.997208 
L 324.490237 61.982729 
L 324.657637 67.824795 
L 324.825038 50.542793 
L 324.992437 56.072911 
L 325.159837 72.827566 
L 325.327237 62.839048 
L 325.494638 64.38546 
L 325.662037 52.160285 
L 325.829437 56.067147 
L 325.996837 71.914877 
L 326.164238 68.004071 
L 326.331637 56.279433 
L 326.499037 59.931018 
L 326.666437 59.86555 
L 326.833838 57.659425 
L 327.168637 50.912034 
L 327.503438 72.590888 
L 327.670838 59.281377 
L 327.838237 64.884756 
L 328.005637 62.915774 
L 328.173038 63.623079 
L 328.340438 62.918169 
L 328.507837 66.888154 
L 328.842638 59.335151 
L 329.010038 61.84973 
L 329.177437 59.550602 
L 329.512238 72.158607 
L 329.847037 57.521331 
L 330.014437 63.021632 
L 330.181838 59.586433 
L 330.349238 64.649089 
L 330.516637 55.170838 
L 330.684037 53.033316 
L 330.851437 69.811505 
L 331.018837 68.018537 
L 331.186237 58.17525 
L 331.353637 67.398502 
L 331.521037 57.703613 
L 331.688437 69.194431 
L 332.023237 58.855191 
L 332.190637 59.178613 
L 332.358037 64.118444 
L 332.525437 50.652965 
L 332.860237 66.831302 
L 333.027637 52.518365 
L 333.195037 63.135208 
L 333.362437 65.891705 
L 333.529837 66.80559 
L 333.697237 62.774654 
L 333.864637 74.458872 
L 334.032038 54.985893 
L 334.534237 70.55272 
L 334.701638 60.244443 
L 334.869037 72.433028 
L 335.036437 64.435586 
L 335.371238 61.135918 
L 335.538637 59.81608 
L 335.706037 59.451026 
L 335.873437 57.075384 
L 336.208237 68.868909 
L 336.375637 58.115549 
L 336.543037 61.955024 
L 336.710438 68.889581 
L 336.877837 60.810747 
L 337.045237 64.496816 
L 337.212637 71.523917 
L 337.547438 58.422822 
L 337.714837 62.346549 
L 337.882237 63.103034 
L 338.049638 68.328972 
L 338.217038 77.412272 
L 338.384437 55.963787 
L 338.551837 69.385069 
L 338.719238 67.854239 
L 338.886637 54.874777 
L 339.054037 64.912416 
L 339.221437 65.397927 
L 339.388838 69.525431 
L 339.556237 69.291906 
L 339.723637 62.796815 
L 339.891037 60.857274 
L 340.058437 68.49128 
L 340.225837 53.775048 
L 340.393237 73.985335 
L 340.728037 58.748402 
L 340.895437 68.753051 
L 341.062838 66.372236 
L 341.230237 49.0944 
L 341.397637 67.336593 
L 341.565037 63.236112 
L 341.732438 53.317883 
L 342.067237 81.683295 
L 342.234637 62.851746 
L 342.402038 63.024237 
L 342.569437 78.910829 
L 342.736837 64.070351 
L 342.904237 61.797302 
L 343.071638 73.086761 
L 343.239037 49.35118 
L 343.573837 71.386991 
L 343.741238 48.819823 
L 344.076037 69.841615 
L 344.243437 57.989558 
L 344.578238 62.630746 
L 344.745637 55.584879 
L 344.913037 67.165863 
L 345.080438 70.199427 
L 345.247838 69.526173 
L 345.415237 72.511199 
L 345.582637 56.198325 
L 345.750038 63.463031 
L 345.917438 65.081445 
L 346.084837 68.678851 
L 346.252237 54.454774 
L 346.419638 61.987054 
L 346.587038 54.48913 
L 346.754437 66.456499 
L 346.921837 60.912935 
L 347.089238 60.094532 
L 347.256638 65.954191 
L 347.591437 55.742509 
L 348.093637 69.90287 
L 348.261037 65.015596 
L 348.428438 74.121535 
L 348.595837 63.47113 
L 348.763238 60.160505 
L 348.930637 67.736243 
L 349.098038 67.739319 
L 349.265437 66.918004 
L 349.432838 58.796384 
L 349.600237 56.097698 
L 349.767637 65.454392 
L 349.935037 58.573948 
L 350.269837 73.03121 
L 350.437237 57.98366 
L 350.604637 66.831882 
L 350.772038 64.544224 
L 350.939437 56.180003 
L 351.274237 75.726808 
L 351.441638 57.322415 
L 351.609037 62.341894 
L 351.776437 70.787647 
L 351.943837 53.091365 
L 352.278638 68.118644 
L 352.446037 59.622723 
L 352.613437 72.028426 
L 352.948238 55.442069 
L 353.115637 68.490177 
L 353.283037 55.244685 
L 353.450437 55.374335 
L 353.617838 66.126245 
L 353.785237 64.245918 
L 353.952637 64.478785 
L 354.120037 67.224804 
L 354.287438 54.627641 
L 354.454837 59.515838 
L 354.622237 69.87001 
L 354.957038 49.661254 
L 355.124437 61.853885 
L 355.291837 61.890455 
L 355.459237 57.996471 
L 355.626638 65.465044 
L 355.794037 57.283825 
L 355.961437 59.874604 
L 356.128837 71.354282 
L 356.296238 65.902569 
L 356.463637 66.953299 
L 356.631037 72.041922 
L 356.798437 57.687708 
L 356.965838 53.105288 
L 357.133237 72.737286 
L 357.300637 66.167453 
L 357.468037 65.571481 
L 357.635437 54.133634 
L 357.802837 56.510549 
L 357.970237 64.263864 
L 358.137637 62.030515 
L 358.305037 72.73261 
L 358.472437 56.052202 
L 358.639837 50.664951 
L 358.807237 64.419832 
L 358.974637 68.745326 
L 359.142037 52.729162 
L 359.309438 65.889179 
L 359.476837 68.543178 
L 359.644237 58.755319 
L 359.811637 63.592649 
L 359.979038 73.454319 
L 360.146437 63.231453 
L 360.313837 64.318352 
L 360.648638 60.864299 
L 360.816037 59.853867 
L 360.983437 62.882967 
L 361.150837 61.823702 
L 361.485637 61.547365 
L 361.653037 64.560929 
L 361.820437 60.045429 
L 361.987838 51.001905 
L 362.322637 69.132305 
L 362.490037 66.969278 
L 362.657438 54.73921 
L 362.824838 57.042071 
L 362.992237 53.018402 
L 363.159637 67.199364 
L 363.327038 69.699863 
L 363.494438 66.117976 
L 363.661837 57.560715 
L 363.829237 65.654983 
L 363.996638 48.00186 
L 364.164038 63.830151 
L 364.331437 67.844738 
L 364.498837 60.236148 
L 364.666238 65.459575 
L 365.001037 53.270787 
L 365.168437 62.834101 
L 365.168437 62.834101 
" clip-path="url(#pa351ad081d)" style="fill: none; stroke: #1f77b4; stroke-width: 1.5; stroke-linecap: square"/>
   </g>
   <g id="line2d_18">
    <path d="M 30.535837 229.344091 
L 31.205437 209.540716 
L 31.875037 196.266117 
L 32.544637 187.367887 
L 33.214237 181.403225 
L 33.883837 177.404993 
L 34.553437 174.724898 
L 35.223037 172.928376 
L 35.892637 171.724131 
L 36.562237 170.916902 
L 37.399237 170.271103 
L 38.403637 169.821947 
L 39.742837 169.521094 
L 41.751637 169.349547 
L 45.936637 169.281677 
L 79.751437 169.275608 
L 365.168437 169.275608 
L 365.168437 169.275608 
" clip-path="url(#pa351ad081d)" style="fill: none; stroke: #ff7f0e; stroke-width: 1.5; stroke-linecap: square"/>
   </g>
   <g id="patch_3">
    <path d="M 30.368437 253.44 
L 30.368437 36 
" style="fill: none; stroke: #000000; stroke-width: 0.8; stroke-linejoin: miter; stroke-linecap: square"/>
   </g>
   <g id="patch_4">
    <path d="M 365.168437 253.44 
L 365.168437 36 
" style="fill: none; stroke: #000000; stroke-width: 0.8; stroke-linejoin: miter; stroke-linecap: square"/>
   </g>
   <g id="patch_5">
    <path d="M 30.368437 253.44 
L 365.168437 253.44 
" style="fill: none; stroke: #000000; stroke-width: 0.8; stroke-linejoin: miter; stroke-linecap: square"/>
   </g>
   <g id="patch_6">
    <path d="M 30.368437 36 
L 365.168437 36 
" style="fill: none; stroke: #000000; stroke-width: 0.8; stroke-linejoin: miter; stroke-linecap: square"/>
   </g>
   <g id="legend_1">
    <g id="patch_7">
     <path d="M 37.368437 77.078125 
L 87.068437 77.078125 
Q 89.068437 77.078125 89.068437 75.078125 
L 89.068437 43 
Q 89.068437 41 87.068437 41 
L 37.368437 41 
Q 35.368437 41 35.368437 43 
L 35.368437 75.078125 
Q 35.368437 77.078125 37.368437 77.078125 
z
" style="fill: #ffffff; opacity: 0.8; stroke: #cccccc; stroke-linejoin: miter"/>
    </g>
    <g id="line2d_19">
     <path d="M 39.368437 52.8 
L 49.368437 52.8 
L 59.368437 52.8 
" style="fill: none; stroke: #1f77b4; stroke-width: 1.5; stroke-linecap: square"/>
    </g>
    <g id="text_18">
     <!-- $\hat{y(t)}$ -->
     <g transform="translate(67.368437 56.3) scale(0.1 -0.1)">
      <defs>
       <path id="DejaVuSans-302" d="M -1831 5119 
L -1369 5119 
L -603 3944 
L -1038 3944 
L -1600 4709 
L -2163 3944 
L -2597 3944 
L -1831 5119 
z
M -1600 3584 
L -1600 3584 
z
" transform="scale(0.015625)"/>
       <path id="DejaVuSans-Oblique-79" d="M 1588 -325 
Q 1188 -997 936 -1164 
Q 684 -1331 294 -1331 
L -159 -1331 
L -63 -850 
L 269 -850 
Q 509 -850 678 -719 
Q 847 -588 1056 -206 
L 1234 128 
L 459 3500 
L 1069 3500 
L 1650 819 
L 3256 3500 
L 3859 3500 
L 1588 -325 
z
" transform="scale(0.015625)"/>
       <path id="DejaVuSans-28" d="M 1984 4856 
Q 1566 4138 1362 3434 
Q 1159 2731 1159 2009 
Q 1159 1288 1364 580 
Q 1569 -128 1984 -844 
L 1484 -844 
Q 1016 -109 783 600 
Q 550 1309 550 2009 
Q 550 2706 781 3412 
Q 1013 4119 1484 4856 
L 1984 4856 
z
" transform="scale(0.015625)"/>
       <path id="DejaVuSans-29" d="M 513 4856 
L 1013 4856 
Q 1481 4119 1714 3412 
Q 1947 2706 1947 2009 
Q 1947 1309 1714 600 
Q 1481 -109 1013 -844 
L 513 -844 
Q 928 -128 1133 580 
Q 1338 1288 1338 2009 
Q 1338 2731 1133 3434 
Q 928 4138 513 4856 
z
" transform="scale(0.015625)"/>
      </defs>
      <use xlink:href="#DejaVuSans-302" transform="translate(135.682129 33.015625)"/>
      <use xlink:href="#DejaVuSans-Oblique-79" transform="translate(0 0.640625)"/>
      <use xlink:href="#DejaVuSans-28" transform="translate(59.179688 0.640625)"/>
      <use xlink:href="#DejaVuSans-Oblique-74" transform="translate(98.193359 0.640625)"/>
      <use xlink:href="#DejaVuSans-29" transform="translate(137.402344 0.640625)"/>
     </g>
    </g>
    <g id="line2d_20">
     <path d="M 39.368437 67.498437 
L 49.368437 67.498437 
L 59.368437 67.498437 
" style="fill: none; stroke: #ff7f0e; stroke-width: 1.5; stroke-linecap: square"/>
    </g>
    <g id="text_19">
     <!-- $x(t)$ -->
     <g transform="translate(67.368437 70.998437) scale(0.1 -0.1)">
      <defs>
       <path id="DejaVuSans-Oblique-78" d="M 3841 3500 
L 2234 1784 
L 3219 0 
L 2559 0 
L 1819 1388 
L 531 0 
L -166 0 
L 1556 1844 
L 641 3500 
L 1300 3500 
L 1972 2234 
L 3144 3500 
L 3841 3500 
z
" transform="scale(0.015625)"/>
      </defs>
      <use xlink:href="#DejaVuSans-Oblique-78" transform="translate(0 0.125)"/>
      <use xlink:href="#DejaVuSans-28" transform="translate(59.179688 0.125)"/>
      <use xlink:href="#DejaVuSans-Oblique-74" transform="translate(98.193359 0.125)"/>
      <use xlink:href="#DejaVuSans-29" transform="translate(137.402344 0.125)"/>
     </g>
    </g>
   </g>
  </g>
  <g id="text_20">
   <!-- Accumulate to Threshold model with input of 0.2 with rms=3  -->
   <g transform="translate(7.2 16.318125) scale(0.12 -0.12)">
    <defs>
     <path id="DejaVuSans-41" d="M 2188 4044 
L 1331 1722 
L 3047 1722 
L 2188 4044 
z
M 1831 4666 
L 2547 4666 
L 4325 0 
L 3669 0 
L 3244 1197 
L 1141 1197 
L 716 0 
L 50 0 
L 1831 4666 
z
" transform="scale(0.015625)"/>
     <path id="DejaVuSans-63" d="M 3122 3366 
L 3122 2828 
Q 2878 2963 2633 3030 
Q 2388 3097 2138 3097 
Q 1578 3097 1268 2742 
Q 959 2388 959 1747 
Q 959 1106 1268 751 
Q 1578 397 2138 397 
Q 2388 397 2633 464 
Q 2878 531 3122 666 
L 3122 134 
Q 2881 22 2623 -34 
Q 2366 -91 2075 -91 
Q 1284 -91 818 406 
Q 353 903 353 1747 
Q 353 2603 823 3093 
Q 1294 3584 2113 3584 
Q 2378 3584 2631 3529 
Q 2884 3475 3122 3366 
z
" transform="scale(0.015625)"/>
     <path id="DejaVuSans-75" d="M 544 1381 
L 544 3500 
L 1119 3500 
L 1119 1403 
Q 1119 906 1312 657 
Q 1506 409 1894 409 
Q 2359 409 2629 706 
Q 2900 1003 2900 1516 
L 2900 3500 
L 3475 3500 
L 3475 0 
L 2900 0 
L 2900 538 
Q 2691 219 2414 64 
Q 2138 -91 1772 -91 
Q 1169 -91 856 284 
Q 544 659 544 1381 
z
M 1991 3584 
L 1991 3584 
z
" transform="scale(0.015625)"/>
     <path id="DejaVuSans-6d" d="M 3328 2828 
Q 3544 3216 3844 3400 
Q 4144 3584 4550 3584 
Q 5097 3584 5394 3201 
Q 5691 2819 5691 2113 
L 5691 0 
L 5113 0 
L 5113 2094 
Q 5113 2597 4934 2840 
Q 4756 3084 4391 3084 
Q 3944 3084 3684 2787 
Q 3425 2491 3425 1978 
L 3425 0 
L 2847 0 
L 2847 2094 
Q 2847 2600 2669 2842 
Q 2491 3084 2119 3084 
Q 1678 3084 1418 2786 
Q 1159 2488 1159 1978 
L 1159 0 
L 581 0 
L 581 3500 
L 1159 3500 
L 1159 2956 
Q 1356 3278 1631 3431 
Q 1906 3584 2284 3584 
Q 2666 3584 2933 3390 
Q 3200 3197 3328 2828 
z
" transform="scale(0.015625)"/>
     <path id="DejaVuSans-6c" d="M 603 4863 
L 1178 4863 
L 1178 0 
L 603 0 
L 603 4863 
z
" transform="scale(0.015625)"/>
     <path id="DejaVuSans-61" d="M 2194 1759 
Q 1497 1759 1228 1600 
Q 959 1441 959 1056 
Q 959 750 1161 570 
Q 1363 391 1709 391 
Q 2188 391 2477 730 
Q 2766 1069 2766 1631 
L 2766 1759 
L 2194 1759 
z
M 3341 1997 
L 3341 0 
L 2766 0 
L 2766 531 
Q 2569 213 2275 61 
Q 1981 -91 1556 -91 
Q 1019 -91 701 211 
Q 384 513 384 1019 
Q 384 1609 779 1909 
Q 1175 2209 1959 2209 
L 2766 2209 
L 2766 2266 
Q 2766 2663 2505 2880 
Q 2244 3097 1772 3097 
Q 1472 3097 1187 3025 
Q 903 2953 641 2809 
L 641 3341 
Q 956 3463 1253 3523 
Q 1550 3584 1831 3584 
Q 2591 3584 2966 3190 
Q 3341 2797 3341 1997 
z
" transform="scale(0.015625)"/>
     <path id="DejaVuSans-74" d="M 1172 4494 
L 1172 3500 
L 2356 3500 
L 2356 3053 
L 1172 3053 
L 1172 1153 
Q 1172 725 1289 603 
Q 1406 481 1766 481 
L 2356 481 
L 2356 0 
L 1766 0 
Q 1100 0 847 248 
Q 594 497 594 1153 
L 594 3053 
L 172 3053 
L 172 3500 
L 594 3500 
L 594 4494 
L 1172 4494 
z
" transform="scale(0.015625)"/>
     <path id="DejaVuSans-65" d="M 3597 1894 
L 3597 1613 
L 953 1613 
Q 991 1019 1311 708 
Q 1631 397 2203 397 
Q 2534 397 2845 478 
Q 3156 559 3463 722 
L 3463 178 
Q 3153 47 2828 -22 
Q 2503 -91 2169 -91 
Q 1331 -91 842 396 
Q 353 884 353 1716 
Q 353 2575 817 3079 
Q 1281 3584 2069 3584 
Q 2775 3584 3186 3129 
Q 3597 2675 3597 1894 
z
M 3022 2063 
Q 3016 2534 2758 2815 
Q 2500 3097 2075 3097 
Q 1594 3097 1305 2825 
Q 1016 2553 972 2059 
L 3022 2063 
z
" transform="scale(0.015625)"/>
     <path id="DejaVuSans-20" transform="scale(0.015625)"/>
     <path id="DejaVuSans-6f" d="M 1959 3097 
Q 1497 3097 1228 2736 
Q 959 2375 959 1747 
Q 959 1119 1226 758 
Q 1494 397 1959 397 
Q 2419 397 2687 759 
Q 2956 1122 2956 1747 
Q 2956 2369 2687 2733 
Q 2419 3097 1959 3097 
z
M 1959 3584 
Q 2709 3584 3137 3096 
Q 3566 2609 3566 1747 
Q 3566 888 3137 398 
Q 2709 -91 1959 -91 
Q 1206 -91 779 398 
Q 353 888 353 1747 
Q 353 2609 779 3096 
Q 1206 3584 1959 3584 
z
" transform="scale(0.015625)"/>
     <path id="DejaVuSans-54" d="M -19 4666 
L 3928 4666 
L 3928 4134 
L 2272 4134 
L 2272 0 
L 1638 0 
L 1638 4134 
L -19 4134 
L -19 4666 
z
" transform="scale(0.015625)"/>
     <path id="DejaVuSans-68" d="M 3513 2113 
L 3513 0 
L 2938 0 
L 2938 2094 
Q 2938 2591 2744 2837 
Q 2550 3084 2163 3084 
Q 1697 3084 1428 2787 
Q 1159 2491 1159 1978 
L 1159 0 
L 581 0 
L 581 4863 
L 1159 4863 
L 1159 2956 
Q 1366 3272 1645 3428 
Q 1925 3584 2291 3584 
Q 2894 3584 3203 3211 
Q 3513 2838 3513 2113 
z
" transform="scale(0.015625)"/>
     <path id="DejaVuSans-72" d="M 2631 2963 
Q 2534 3019 2420 3045 
Q 2306 3072 2169 3072 
Q 1681 3072 1420 2755 
Q 1159 2438 1159 1844 
L 1159 0 
L 581 0 
L 581 3500 
L 1159 3500 
L 1159 2956 
Q 1341 3275 1631 3429 
Q 1922 3584 2338 3584 
Q 2397 3584 2469 3576 
Q 2541 3569 2628 3553 
L 2631 2963 
z
" transform="scale(0.015625)"/>
     <path id="DejaVuSans-73" d="M 2834 3397 
L 2834 2853 
Q 2591 2978 2328 3040 
Q 2066 3103 1784 3103 
Q 1356 3103 1142 2972 
Q 928 2841 928 2578 
Q 928 2378 1081 2264 
Q 1234 2150 1697 2047 
L 1894 2003 
Q 2506 1872 2764 1633 
Q 3022 1394 3022 966 
Q 3022 478 2636 193 
Q 2250 -91 1575 -91 
Q 1294 -91 989 -36 
Q 684 19 347 128 
L 347 722 
Q 666 556 975 473 
Q 1284 391 1588 391 
Q 1994 391 2212 530 
Q 2431 669 2431 922 
Q 2431 1156 2273 1281 
Q 2116 1406 1581 1522 
L 1381 1569 
Q 847 1681 609 1914 
Q 372 2147 372 2553 
Q 372 3047 722 3315 
Q 1072 3584 1716 3584 
Q 2034 3584 2315 3537 
Q 2597 3491 2834 3397 
z
" transform="scale(0.015625)"/>
     <path id="DejaVuSans-64" d="M 2906 2969 
L 2906 4863 
L 3481 4863 
L 3481 0 
L 2906 0 
L 2906 525 
Q 2725 213 2448 61 
Q 2172 -91 1784 -91 
Q 1150 -91 751 415 
Q 353 922 353 1747 
Q 353 2572 751 3078 
Q 1150 3584 1784 3584 
Q 2172 3584 2448 3432 
Q 2725 3281 2906 2969 
z
M 947 1747 
Q 947 1113 1208 752 
Q 1469 391 1925 391 
Q 2381 391 2643 752 
Q 2906 1113 2906 1747 
Q 2906 2381 2643 2742 
Q 2381 3103 1925 3103 
Q 1469 3103 1208 2742 
Q 947 2381 947 1747 
z
" transform="scale(0.015625)"/>
     <path id="DejaVuSans-77" d="M 269 3500 
L 844 3500 
L 1563 769 
L 2278 3500 
L 2956 3500 
L 3675 769 
L 4391 3500 
L 4966 3500 
L 4050 0 
L 3372 0 
L 2619 2869 
L 1863 0 
L 1184 0 
L 269 3500 
z
" transform="scale(0.015625)"/>
     <path id="DejaVuSans-69" d="M 603 3500 
L 1178 3500 
L 1178 0 
L 603 0 
L 603 3500 
z
M 603 4863 
L 1178 4863 
L 1178 4134 
L 603 4134 
L 603 4863 
z
" transform="scale(0.015625)"/>
     <path id="DejaVuSans-6e" d="M 3513 2113 
L 3513 0 
L 2938 0 
L 2938 2094 
Q 2938 2591 2744 2837 
Q 2550 3084 2163 3084 
Q 1697 3084 1428 2787 
Q 1159 2491 1159 1978 
L 1159 0 
L 581 0 
L 581 3500 
L 1159 3500 
L 1159 2956 
Q 1366 3272 1645 3428 
Q 1925 3584 2291 3584 
Q 2894 3584 3203 3211 
Q 3513 2838 3513 2113 
z
" transform="scale(0.015625)"/>
     <path id="DejaVuSans-70" d="M 1159 525 
L 1159 -1331 
L 581 -1331 
L 581 3500 
L 1159 3500 
L 1159 2969 
Q 1341 3281 1617 3432 
Q 1894 3584 2278 3584 
Q 2916 3584 3314 3078 
Q 3713 2572 3713 1747 
Q 3713 922 3314 415 
Q 2916 -91 2278 -91 
Q 1894 -91 1617 61 
Q 1341 213 1159 525 
z
M 3116 1747 
Q 3116 2381 2855 2742 
Q 2594 3103 2138 3103 
Q 1681 3103 1420 2742 
Q 1159 2381 1159 1747 
Q 1159 1113 1420 752 
Q 1681 391 2138 391 
Q 2594 391 2855 752 
Q 3116 1113 3116 1747 
z
" transform="scale(0.015625)"/>
     <path id="DejaVuSans-66" d="M 2375 4863 
L 2375 4384 
L 1825 4384 
Q 1516 4384 1395 4259 
Q 1275 4134 1275 3809 
L 1275 3500 
L 2222 3500 
L 2222 3053 
L 1275 3053 
L 1275 0 
L 697 0 
L 697 3053 
L 147 3053 
L 147 3500 
L 697 3500 
L 697 3744 
Q 697 4328 969 4595 
Q 1241 4863 1831 4863 
L 2375 4863 
z
" transform="scale(0.015625)"/>
     <path id="DejaVuSans-3d" d="M 678 2906 
L 4684 2906 
L 4684 2381 
L 678 2381 
L 678 2906 
z
M 678 1631 
L 4684 1631 
L 4684 1100 
L 678 1100 
L 678 1631 
z
" transform="scale(0.015625)"/>
    </defs>
    <use xlink:href="#DejaVuSans-41"/>
    <use xlink:href="#DejaVuSans-63" x="66.658203"/>
    <use xlink:href="#DejaVuSans-63" x="121.638672"/>
    <use xlink:href="#DejaVuSans-75" x="176.619141"/>
    <use xlink:href="#DejaVuSans-6d" x="239.998047"/>
    <use xlink:href="#DejaVuSans-75" x="337.410156"/>
    <use xlink:href="#DejaVuSans-6c" x="400.789062"/>
    <use xlink:href="#DejaVuSans-61" x="428.572266"/>
    <use xlink:href="#DejaVuSans-74" x="489.851562"/>
    <use xlink:href="#DejaVuSans-65" x="529.060547"/>
    <use xlink:href="#DejaVuSans-20" x="590.583984"/>
    <use xlink:href="#DejaVuSans-74" x="622.371094"/>
    <use xlink:href="#DejaVuSans-6f" x="661.580078"/>
    <use xlink:href="#DejaVuSans-20" x="722.761719"/>
    <use xlink:href="#DejaVuSans-54" x="754.548828"/>
    <use xlink:href="#DejaVuSans-68" x="815.632812"/>
    <use xlink:href="#DejaVuSans-72" x="879.011719"/>
    <use xlink:href="#DejaVuSans-65" x="917.875"/>
    <use xlink:href="#DejaVuSans-73" x="979.398438"/>
    <use xlink:href="#DejaVuSans-68" x="1031.498047"/>
    <use xlink:href="#DejaVuSans-6f" x="1094.876953"/>
    <use xlink:href="#DejaVuSans-6c" x="1156.058594"/>
    <use xlink:href="#DejaVuSans-64" x="1183.841797"/>
    <use xlink:href="#DejaVuSans-20" x="1247.318359"/>
    <use xlink:href="#DejaVuSans-6d" x="1279.105469"/>
    <use xlink:href="#DejaVuSans-6f" x="1376.517578"/>
    <use xlink:href="#DejaVuSans-64" x="1437.699219"/>
    <use xlink:href="#DejaVuSans-65" x="1501.175781"/>
    <use xlink:href="#DejaVuSans-6c" x="1562.699219"/>
    <use xlink:href="#DejaVuSans-20" x="1590.482422"/>
    <use xlink:href="#DejaVuSans-77" x="1622.269531"/>
    <use xlink:href="#DejaVuSans-69" x="1704.056641"/>
    <use xlink:href="#DejaVuSans-74" x="1731.839844"/>
    <use xlink:href="#DejaVuSans-68" x="1771.048828"/>
    <use xlink:href="#DejaVuSans-20" x="1834.427734"/>
    <use xlink:href="#DejaVuSans-69" x="1866.214844"/>
    <use xlink:href="#DejaVuSans-6e" x="1893.998047"/>
    <use xlink:href="#DejaVuSans-70" x="1957.376953"/>
    <use xlink:href="#DejaVuSans-75" x="2020.853516"/>
    <use xlink:href="#DejaVuSans-74" x="2084.232422"/>
    <use xlink:href="#DejaVuSans-20" x="2123.441406"/>
    <use xlink:href="#DejaVuSans-6f" x="2155.228516"/>
    <use xlink:href="#DejaVuSans-66" x="2216.410156"/>
    <use xlink:href="#DejaVuSans-20" x="2251.615234"/>
    <use xlink:href="#DejaVuSans-30" x="2283.402344"/>
    <use xlink:href="#DejaVuSans-2e" x="2347.025391"/>
    <use xlink:href="#DejaVuSans-32" x="2378.8125"/>
    <use xlink:href="#DejaVuSans-20" x="2442.435547"/>
    <use xlink:href="#DejaVuSans-77" x="2474.222656"/>
    <use xlink:href="#DejaVuSans-69" x="2556.009766"/>
    <use xlink:href="#DejaVuSans-74" x="2583.792969"/>
    <use xlink:href="#DejaVuSans-68" x="2623.001953"/>
    <use xlink:href="#DejaVuSans-20" x="2686.380859"/>
    <use xlink:href="#DejaVuSans-72" x="2718.167969"/>
    <use xlink:href="#DejaVuSans-6d" x="2757.53125"/>
    <use xlink:href="#DejaVuSans-73" x="2854.943359"/>
    <use xlink:href="#DejaVuSans-3d" x="2907.042969"/>
    <use xlink:href="#DejaVuSans-33" x="2990.832031"/>
    <use xlink:href="#DejaVuSans-20" x="3054.455078"/>
   </g>
  </g>
 </g>
 <defs>
  <clipPath id="pa351ad081d">
   <rect x="30.368437" y="36" width="334.8" height="217.44"/>
  </clipPath>
 </defs>
</svg>
