<?xml version="1.0" encoding="utf-8" standalone="no"?>
<!DOCTYPE svg PUBLIC "-//W3C//DTD SVG 1.1//EN"
  "http://www.w3.org/Graphics/SVG/1.1/DTD/svg11.dtd">
<svg xmlns:xlink="http://www.w3.org/1999/xlink" width="395.015937pt" height="290.99625pt" viewBox="0 0 395.015937 290.99625" xmlns="http://www.w3.org/2000/svg" version="1.1">
 <metadata>
  <rdf:RDF xmlns:dc="http://purl.org/dc/elements/1.1/" xmlns:cc="http://creativecommons.org/ns#" xmlns:rdf="http://www.w3.org/1999/02/22-rdf-syntax-ns#">
   <cc:Work>
    <dc:type rdf:resource="http://purl.org/dc/dcmitype/StillImage"/>
    <dc:date>2022-11-19T21:31:00.280142</dc:date>
    <dc:format>image/svg+xml</dc:format>
    <dc:creator>
     <cc:Agent>
      <dc:title>Matplotlib v3.6.0, https://matplotlib.org/</dc:title>
     </cc:Agent>
    </dc:creator>
   </cc:Work>
  </rdf:RDF>
 </metadata>
 <defs>
  <style type="text/css">*{stroke-linejoin: round; stroke-linecap: butt}</style>
 </defs>
 <g id="figure_1">
  <g id="patch_1">
   <path d="M -0 290.99625 
L 395.015937 290.99625 
L 395.015937 0 
L -0 0 
L -0 290.99625 
z
" style="fill: none"/>
  </g>
  <g id="axes_1">
   <g id="patch_2">
    <path d="M 38.482813 253.44 
L 373.282813 253.44 
L 373.282813 36 
L 38.482813 36 
z
" style="fill: #ffffff"/>
   </g>
   <g id="matplotlib.axis_1">
    <g id="xtick_1">
     <g id="line2d_1">
      <defs>
       <path id="md90076e968" d="M 0 0 
L 0 3.5 
" style="stroke: #000000; stroke-width: 0.8"/>
      </defs>
      <g>
       <use xlink:href="#md90076e968" x="38.482813" y="253.44" style="stroke: #000000; stroke-width: 0.8"/>
      </g>
     </g>
     <g id="text_1">
      <!-- 0.00 -->
      <g transform="translate(27.35 268.038437) scale(0.1 -0.1)">
       <defs>
        <path id="DejaVuSans-30" d="M 2034 4250 
Q 1547 4250 1301 3770 
Q 1056 3291 1056 2328 
Q 1056 1369 1301 889 
Q 1547 409 2034 409 
Q 2525 409 2770 889 
Q 3016 1369 3016 2328 
Q 3016 3291 2770 3770 
Q 2525 4250 2034 4250 
z
M 2034 4750 
Q 2819 4750 3233 4129 
Q 3647 3509 3647 2328 
Q 3647 1150 3233 529 
Q 2819 -91 2034 -91 
Q 1250 -91 836 529 
Q 422 1150 422 2328 
Q 422 3509 836 4129 
Q 1250 4750 2034 4750 
z
" transform="scale(0.015625)"/>
        <path id="DejaVuSans-2e" d="M 684 794 
L 1344 794 
L 1344 0 
L 684 0 
L 684 794 
z
" transform="scale(0.015625)"/>
       </defs>
       <use xlink:href="#DejaVuSans-30"/>
       <use xlink:href="#DejaVuSans-2e" x="63.623047"/>
       <use xlink:href="#DejaVuSans-30" x="95.410156"/>
       <use xlink:href="#DejaVuSans-30" x="159.033203"/>
      </g>
     </g>
    </g>
    <g id="xtick_2">
     <g id="line2d_2">
      <g>
       <use xlink:href="#md90076e968" x="80.332813" y="253.44" style="stroke: #000000; stroke-width: 0.8"/>
      </g>
     </g>
     <g id="text_2">
      <!-- 0.25 -->
      <g transform="translate(69.2 268.038437) scale(0.1 -0.1)">
       <defs>
        <path id="DejaVuSans-32" d="M 1228 531 
L 3431 531 
L 3431 0 
L 469 0 
L 469 531 
Q 828 903 1448 1529 
Q 2069 2156 2228 2338 
Q 2531 2678 2651 2914 
Q 2772 3150 2772 3378 
Q 2772 3750 2511 3984 
Q 2250 4219 1831 4219 
Q 1534 4219 1204 4116 
Q 875 4013 500 3803 
L 500 4441 
Q 881 4594 1212 4672 
Q 1544 4750 1819 4750 
Q 2544 4750 2975 4387 
Q 3406 4025 3406 3419 
Q 3406 3131 3298 2873 
Q 3191 2616 2906 2266 
Q 2828 2175 2409 1742 
Q 1991 1309 1228 531 
z
" transform="scale(0.015625)"/>
        <path id="DejaVuSans-35" d="M 691 4666 
L 3169 4666 
L 3169 4134 
L 1269 4134 
L 1269 2991 
Q 1406 3038 1543 3061 
Q 1681 3084 1819 3084 
Q 2600 3084 3056 2656 
Q 3513 2228 3513 1497 
Q 3513 744 3044 326 
Q 2575 -91 1722 -91 
Q 1428 -91 1123 -41 
Q 819 9 494 109 
L 494 744 
Q 775 591 1075 516 
Q 1375 441 1709 441 
Q 2250 441 2565 725 
Q 2881 1009 2881 1497 
Q 2881 1984 2565 2268 
Q 2250 2553 1709 2553 
Q 1456 2553 1204 2497 
Q 953 2441 691 2322 
L 691 4666 
z
" transform="scale(0.015625)"/>
       </defs>
       <use xlink:href="#DejaVuSans-30"/>
       <use xlink:href="#DejaVuSans-2e" x="63.623047"/>
       <use xlink:href="#DejaVuSans-32" x="95.410156"/>
       <use xlink:href="#DejaVuSans-35" x="159.033203"/>
      </g>
     </g>
    </g>
    <g id="xtick_3">
     <g id="line2d_3">
      <g>
       <use xlink:href="#md90076e968" x="122.182813" y="253.44" style="stroke: #000000; stroke-width: 0.8"/>
      </g>
     </g>
     <g id="text_3">
      <!-- 0.50 -->
      <g transform="translate(111.05 268.038437) scale(0.1 -0.1)">
       <use xlink:href="#DejaVuSans-30"/>
       <use xlink:href="#DejaVuSans-2e" x="63.623047"/>
       <use xlink:href="#DejaVuSans-35" x="95.410156"/>
       <use xlink:href="#DejaVuSans-30" x="159.033203"/>
      </g>
     </g>
    </g>
    <g id="xtick_4">
     <g id="line2d_4">
      <g>
       <use xlink:href="#md90076e968" x="164.032813" y="253.44" style="stroke: #000000; stroke-width: 0.8"/>
      </g>
     </g>
     <g id="text_4">
      <!-- 0.75 -->
      <g transform="translate(152.9 268.038437) scale(0.1 -0.1)">
       <defs>
        <path id="DejaVuSans-37" d="M 525 4666 
L 3525 4666 
L 3525 4397 
L 1831 0 
L 1172 0 
L 2766 4134 
L 525 4134 
L 525 4666 
z
" transform="scale(0.015625)"/>
       </defs>
       <use xlink:href="#DejaVuSans-30"/>
       <use xlink:href="#DejaVuSans-2e" x="63.623047"/>
       <use xlink:href="#DejaVuSans-37" x="95.410156"/>
       <use xlink:href="#DejaVuSans-35" x="159.033203"/>
      </g>
     </g>
    </g>
    <g id="xtick_5">
     <g id="line2d_5">
      <g>
       <use xlink:href="#md90076e968" x="205.882812" y="253.44" style="stroke: #000000; stroke-width: 0.8"/>
      </g>
     </g>
     <g id="text_5">
      <!-- 1.00 -->
      <g transform="translate(194.75 268.038437) scale(0.1 -0.1)">
       <defs>
        <path id="DejaVuSans-31" d="M 794 531 
L 1825 531 
L 1825 4091 
L 703 3866 
L 703 4441 
L 1819 4666 
L 2450 4666 
L 2450 531 
L 3481 531 
L 3481 0 
L 794 0 
L 794 531 
z
" transform="scale(0.015625)"/>
       </defs>
       <use xlink:href="#DejaVuSans-31"/>
       <use xlink:href="#DejaVuSans-2e" x="63.623047"/>
       <use xlink:href="#DejaVuSans-30" x="95.410156"/>
       <use xlink:href="#DejaVuSans-30" x="159.033203"/>
      </g>
     </g>
    </g>
    <g id="xtick_6">
     <g id="line2d_6">
      <g>
       <use xlink:href="#md90076e968" x="247.732812" y="253.44" style="stroke: #000000; stroke-width: 0.8"/>
      </g>
     </g>
     <g id="text_6">
      <!-- 1.25 -->
      <g transform="translate(236.6 268.038437) scale(0.1 -0.1)">
       <use xlink:href="#DejaVuSans-31"/>
       <use xlink:href="#DejaVuSans-2e" x="63.623047"/>
       <use xlink:href="#DejaVuSans-32" x="95.410156"/>
       <use xlink:href="#DejaVuSans-35" x="159.033203"/>
      </g>
     </g>
    </g>
    <g id="xtick_7">
     <g id="line2d_7">
      <g>
       <use xlink:href="#md90076e968" x="289.582813" y="253.44" style="stroke: #000000; stroke-width: 0.8"/>
      </g>
     </g>
     <g id="text_7">
      <!-- 1.50 -->
      <g transform="translate(278.45 268.038437) scale(0.1 -0.1)">
       <use xlink:href="#DejaVuSans-31"/>
       <use xlink:href="#DejaVuSans-2e" x="63.623047"/>
       <use xlink:href="#DejaVuSans-35" x="95.410156"/>
       <use xlink:href="#DejaVuSans-30" x="159.033203"/>
      </g>
     </g>
    </g>
    <g id="xtick_8">
     <g id="line2d_8">
      <g>
       <use xlink:href="#md90076e968" x="331.432813" y="253.44" style="stroke: #000000; stroke-width: 0.8"/>
      </g>
     </g>
     <g id="text_8">
      <!-- 1.75 -->
      <g transform="translate(320.3 268.038437) scale(0.1 -0.1)">
       <use xlink:href="#DejaVuSans-31"/>
       <use xlink:href="#DejaVuSans-2e" x="63.623047"/>
       <use xlink:href="#DejaVuSans-37" x="95.410156"/>
       <use xlink:href="#DejaVuSans-35" x="159.033203"/>
      </g>
     </g>
    </g>
    <g id="xtick_9">
     <g id="line2d_9">
      <g>
       <use xlink:href="#md90076e968" x="373.282813" y="253.44" style="stroke: #000000; stroke-width: 0.8"/>
      </g>
     </g>
     <g id="text_9">
      <!-- 2.00 -->
      <g transform="translate(362.15 268.038437) scale(0.1 -0.1)">
       <use xlink:href="#DejaVuSans-32"/>
       <use xlink:href="#DejaVuSans-2e" x="63.623047"/>
       <use xlink:href="#DejaVuSans-30" x="95.410156"/>
       <use xlink:href="#DejaVuSans-30" x="159.033203"/>
      </g>
     </g>
    </g>
    <g id="text_10">
     <!-- $t$ -->
     <g transform="translate(203.882812 281.716562) scale(0.1 -0.1)">
      <defs>
       <path id="DejaVuSans-Oblique-74" d="M 2706 3500 
L 2619 3053 
L 1472 3053 
L 1100 1153 
Q 1081 1047 1072 975 
Q 1063 903 1063 863 
Q 1063 663 1183 572 
Q 1303 481 1569 481 
L 2150 481 
L 2053 0 
L 1503 0 
Q 991 0 739 200 
Q 488 400 488 806 
Q 488 878 497 964 
Q 506 1050 525 1153 
L 897 3053 
L 409 3053 
L 500 3500 
L 978 3500 
L 1172 4494 
L 1747 4494 
L 1556 3500 
L 2706 3500 
z
" transform="scale(0.015625)"/>
      </defs>
      <use xlink:href="#DejaVuSans-Oblique-74" transform="translate(0 0.78125)"/>
     </g>
    </g>
   </g>
   <g id="matplotlib.axis_2">
    <g id="ytick_1">
     <g id="line2d_10">
      <defs>
       <path id="m9e4efd5711" d="M 0 0 
L -3.5 0 
" style="stroke: #000000; stroke-width: 0.8"/>
      </defs>
      <g>
       <use xlink:href="#m9e4efd5711" x="38.482813" y="221.653652" style="stroke: #000000; stroke-width: 0.8"/>
      </g>
     </g>
     <g id="text_11">
      <!-- −0.8 -->
      <g transform="translate(7.2 225.452871) scale(0.1 -0.1)">
       <defs>
        <path id="DejaVuSans-2212" d="M 678 2272 
L 4684 2272 
L 4684 1741 
L 678 1741 
L 678 2272 
z
" transform="scale(0.015625)"/>
        <path id="DejaVuSans-38" d="M 2034 2216 
Q 1584 2216 1326 1975 
Q 1069 1734 1069 1313 
Q 1069 891 1326 650 
Q 1584 409 2034 409 
Q 2484 409 2743 651 
Q 3003 894 3003 1313 
Q 3003 1734 2745 1975 
Q 2488 2216 2034 2216 
z
M 1403 2484 
Q 997 2584 770 2862 
Q 544 3141 544 3541 
Q 544 4100 942 4425 
Q 1341 4750 2034 4750 
Q 2731 4750 3128 4425 
Q 3525 4100 3525 3541 
Q 3525 3141 3298 2862 
Q 3072 2584 2669 2484 
Q 3125 2378 3379 2068 
Q 3634 1759 3634 1313 
Q 3634 634 3220 271 
Q 2806 -91 2034 -91 
Q 1263 -91 848 271 
Q 434 634 434 1313 
Q 434 1759 690 2068 
Q 947 2378 1403 2484 
z
M 1172 3481 
Q 1172 3119 1398 2916 
Q 1625 2713 2034 2713 
Q 2441 2713 2670 2916 
Q 2900 3119 2900 3481 
Q 2900 3844 2670 4047 
Q 2441 4250 2034 4250 
Q 1625 4250 1398 4047 
Q 1172 3844 1172 3481 
z
" transform="scale(0.015625)"/>
       </defs>
       <use xlink:href="#DejaVuSans-2212"/>
       <use xlink:href="#DejaVuSans-30" x="83.789062"/>
       <use xlink:href="#DejaVuSans-2e" x="147.412109"/>
       <use xlink:href="#DejaVuSans-38" x="179.199219"/>
      </g>
     </g>
    </g>
    <g id="ytick_2">
     <g id="line2d_11">
      <g>
       <use xlink:href="#m9e4efd5711" x="38.482813" y="181.623049" style="stroke: #000000; stroke-width: 0.8"/>
      </g>
     </g>
     <g id="text_12">
      <!-- −0.6 -->
      <g transform="translate(7.2 185.422268) scale(0.1 -0.1)">
       <defs>
        <path id="DejaVuSans-36" d="M 2113 2584 
Q 1688 2584 1439 2293 
Q 1191 2003 1191 1497 
Q 1191 994 1439 701 
Q 1688 409 2113 409 
Q 2538 409 2786 701 
Q 3034 994 3034 1497 
Q 3034 2003 2786 2293 
Q 2538 2584 2113 2584 
z
M 3366 4563 
L 3366 3988 
Q 3128 4100 2886 4159 
Q 2644 4219 2406 4219 
Q 1781 4219 1451 3797 
Q 1122 3375 1075 2522 
Q 1259 2794 1537 2939 
Q 1816 3084 2150 3084 
Q 2853 3084 3261 2657 
Q 3669 2231 3669 1497 
Q 3669 778 3244 343 
Q 2819 -91 2113 -91 
Q 1303 -91 875 529 
Q 447 1150 447 2328 
Q 447 3434 972 4092 
Q 1497 4750 2381 4750 
Q 2619 4750 2861 4703 
Q 3103 4656 3366 4563 
z
" transform="scale(0.015625)"/>
       </defs>
       <use xlink:href="#DejaVuSans-2212"/>
       <use xlink:href="#DejaVuSans-30" x="83.789062"/>
       <use xlink:href="#DejaVuSans-2e" x="147.412109"/>
       <use xlink:href="#DejaVuSans-36" x="179.199219"/>
      </g>
     </g>
    </g>
    <g id="ytick_3">
     <g id="line2d_12">
      <g>
       <use xlink:href="#m9e4efd5711" x="38.482813" y="141.592446" style="stroke: #000000; stroke-width: 0.8"/>
      </g>
     </g>
     <g id="text_13">
      <!-- −0.4 -->
      <g transform="translate(7.2 145.391665) scale(0.1 -0.1)">
       <defs>
        <path id="DejaVuSans-34" d="M 2419 4116 
L 825 1625 
L 2419 1625 
L 2419 4116 
z
M 2253 4666 
L 3047 4666 
L 3047 1625 
L 3713 1625 
L 3713 1100 
L 3047 1100 
L 3047 0 
L 2419 0 
L 2419 1100 
L 313 1100 
L 313 1709 
L 2253 4666 
z
" transform="scale(0.015625)"/>
       </defs>
       <use xlink:href="#DejaVuSans-2212"/>
       <use xlink:href="#DejaVuSans-30" x="83.789062"/>
       <use xlink:href="#DejaVuSans-2e" x="147.412109"/>
       <use xlink:href="#DejaVuSans-34" x="179.199219"/>
      </g>
     </g>
    </g>
    <g id="ytick_4">
     <g id="line2d_13">
      <g>
       <use xlink:href="#m9e4efd5711" x="38.482813" y="101.561843" style="stroke: #000000; stroke-width: 0.8"/>
      </g>
     </g>
     <g id="text_14">
      <!-- −0.2 -->
      <g transform="translate(7.2 105.361062) scale(0.1 -0.1)">
       <use xlink:href="#DejaVuSans-2212"/>
       <use xlink:href="#DejaVuSans-30" x="83.789062"/>
       <use xlink:href="#DejaVuSans-2e" x="147.412109"/>
       <use xlink:href="#DejaVuSans-32" x="179.199219"/>
      </g>
     </g>
    </g>
    <g id="ytick_5">
     <g id="line2d_14">
      <g>
       <use xlink:href="#m9e4efd5711" x="38.482813" y="61.53124" style="stroke: #000000; stroke-width: 0.8"/>
      </g>
     </g>
     <g id="text_15">
      <!-- 0.0 -->
      <g transform="translate(15.579688 65.330459) scale(0.1 -0.1)">
       <use xlink:href="#DejaVuSans-30"/>
       <use xlink:href="#DejaVuSans-2e" x="63.623047"/>
       <use xlink:href="#DejaVuSans-30" x="95.410156"/>
      </g>
     </g>
    </g>
   </g>
   <g id="line2d_15">
    <path d="M 38.650213 61.53124 
L 38.817613 49.998056 
L 38.985013 53.504587 
L 39.152413 54.238461 
L 39.319813 60.172081 
L 39.487212 54.134266 
L 39.654612 54.713699 
L 39.822012 57.649628 
L 39.989413 69.83803 
L 40.324213 58.951766 
L 40.491613 65.189776 
L 40.659013 61.022961 
L 40.826413 50.267955 
L 40.993813 51.112311 
L 41.161213 63.11245 
L 41.496012 59.768462 
L 41.830813 67.477487 
L 42.165613 54.513973 
L 42.333013 54.719104 
L 42.500413 57.866642 
L 42.667813 57.02208 
L 42.835213 65.803556 
L 43.002612 59.184035 
L 43.337412 63.116405 
L 43.504812 54.106312 
L 43.672213 53.289891 
L 43.839613 58.889545 
L 44.007013 59.499962 
L 44.174413 71.812482 
L 44.509213 59.804523 
L 44.844013 57.780859 
L 45.011412 61.430881 
L 45.178812 62.199673 
L 45.346213 55.165548 
L 45.513613 55.899609 
L 45.681013 51.189136 
L 46.183213 70.933114 
L 46.350613 58.190588 
L 46.518012 54.490176 
L 46.685412 58.970566 
L 46.852812 57.573357 
L 47.020212 58.204498 
L 47.522413 67.669266 
L 47.857213 54.691531 
L 48.192013 61.009989 
L 48.359413 54.180823 
L 48.526813 62.825501 
L 48.694212 53.238834 
L 48.861612 58.507918 
L 49.196413 50.505178 
L 49.531213 65.200565 
L 49.698613 64.561128 
L 49.866013 61.992248 
L 50.033413 55.13773 
L 50.368213 64.106086 
L 50.535612 59.129904 
L 50.703012 59.358422 
L 50.870413 65.199036 
L 51.037813 64.541882 
L 51.205213 60.159674 
L 51.372613 59.94545 
L 51.540013 56.254188 
L 51.707413 59.250202 
L 51.874813 52.867436 
L 52.042213 57.561534 
L 52.209613 53.048419 
L 52.377013 54.598944 
L 52.544413 49.151148 
L 52.711813 62.961909 
L 52.879213 62.351099 
L 53.046613 60.097721 
L 53.214013 61.439367 
L 53.548813 56.714652 
L 53.716212 56.945751 
L 53.883612 63.554238 
L 54.218412 57.80105 
L 54.385813 59.606231 
L 54.720613 48.804329 
L 54.888013 57.480919 
L 55.055413 58.622855 
L 55.222813 65.76375 
L 55.390213 65.953974 
L 55.557613 63.281878 
L 55.725013 57.158295 
L 55.892413 67.791186 
L 56.059812 55.384476 
L 56.227213 54.050899 
L 56.394613 55.184279 
L 56.562013 48.530087 
L 56.729413 48.500213 
L 56.896813 54.141647 
L 57.064213 67.268304 
L 57.231613 67.446223 
L 57.733812 54.137771 
L 57.901212 59.086853 
L 58.068613 56.882975 
L 58.236013 63.248641 
L 58.403413 61.831461 
L 58.570813 53.649849 
L 58.905613 61.310325 
L 59.073013 59.117134 
L 59.240413 54.491508 
L 59.742613 63.209959 
L 59.910013 64.332836 
L 60.412213 45.935487 
L 60.914413 62.813005 
L 61.081813 54.537986 
L 61.249212 51.963615 
L 61.416612 45.883636 
L 61.584013 57.724655 
L 61.751413 59.010019 
L 61.918813 63.478667 
L 62.253613 52.251898 
L 62.421013 56.168131 
L 62.588413 55.844886 
L 62.755813 58.107627 
L 62.923213 47.718958 
L 63.090613 55.667372 
L 63.258012 55.74794 
L 63.425413 55.196755 
L 63.592813 48.285408 
L 63.927613 63.707036 
L 64.095012 56.506368 
L 64.262413 54.176931 
L 64.429812 59.215176 
L 64.597212 56.972005 
L 64.764612 50.383252 
L 65.099412 66.408107 
L 65.266813 55.295008 
L 65.601613 48.793273 
L 65.769013 48.716449 
L 65.936413 51.517451 
L 66.103813 58.748733 
L 66.271213 55.517687 
L 66.438613 58.076073 
L 66.606013 49.05822 
L 66.940813 59.456372 
L 67.108213 52.801976 
L 67.443013 58.466287 
L 67.610413 52.022252 
L 67.945212 57.019728 
L 68.112612 60.155463 
L 68.280012 56.1521 
L 68.447412 46.376421 
L 68.782212 54.344257 
L 68.949613 51.147962 
L 69.117013 52.645327 
L 69.284413 57.6311 
L 69.451813 56.667121 
L 69.786613 51.141365 
L 70.121413 61.522404 
L 70.288813 48.04116 
L 70.456213 50.184334 
L 70.623613 55.009953 
L 70.791012 55.873154 
L 70.958413 52.59842 
L 71.125812 53.758849 
L 71.293213 53.755697 
L 71.460612 54.701609 
L 71.628013 50.10373 
L 71.962813 62.787278 
L 72.130212 58.468759 
L 72.297613 59.551417 
L 72.632413 54.430917 
L 72.799813 50.374709 
L 72.967213 54.262705 
L 73.134613 63.239246 
L 73.302013 58.941982 
L 73.469413 59.849846 
L 73.636812 66.274772 
L 74.139013 49.832228 
L 74.473813 55.47117 
L 74.641212 56.047862 
L 74.808613 49.31149 
L 74.976012 60.626027 
L 75.143413 54.592127 
L 75.478213 61.318553 
L 75.645612 58.875219 
L 75.813013 49.881943 
L 76.147813 61.384095 
L 76.315213 58.881164 
L 76.482613 58.564741 
L 76.650013 55.738449 
L 76.984813 64.941282 
L 77.152213 58.422286 
L 77.319613 57.260141 
L 77.487013 60.469829 
L 77.654413 55.182363 
L 77.821813 62.064712 
L 77.989213 55.532842 
L 78.156613 55.740024 
L 78.324013 60.803325 
L 78.658813 57.76312 
L 78.826212 57.202845 
L 78.993613 61.342808 
L 79.161012 58.216875 
L 79.328412 63.187376 
L 79.495812 60.078818 
L 79.663213 62.167779 
L 79.998013 52.083735 
L 80.165413 63.170371 
L 80.332813 65.309999 
L 80.500213 53.956296 
L 80.667613 54.642378 
L 80.835013 61.034396 
L 81.002413 57.379426 
L 81.169813 63.334293 
L 81.337213 54.007827 
L 81.504613 59.062165 
L 81.672012 57.406837 
L 81.839413 66.409109 
L 82.006812 54.450936 
L 82.174213 57.197044 
L 82.341612 56.108517 
L 82.509013 57.151696 
L 82.676412 59.285336 
L 82.843813 72.525568 
L 83.011212 74.091527 
L 83.346013 54.096622 
L 83.680813 56.325082 
L 83.848213 60.940101 
L 84.015613 61.835431 
L 84.183013 54.578561 
L 84.350413 54.876555 
L 84.685213 64.00092 
L 84.852613 59.786783 
L 85.020013 62.220214 
L 85.187413 60.202772 
L 85.354813 59.866542 
L 85.522213 60.288375 
L 85.689613 54.723746 
L 86.024413 61.78348 
L 86.191813 53.410293 
L 86.526612 70.578221 
L 86.694013 75.85179 
L 86.861413 52.98052 
L 87.196213 62.864325 
L 87.531013 58.716188 
L 87.698413 61.517113 
L 87.865813 61.311776 
L 88.033212 56.892836 
L 88.200613 57.083364 
L 88.368012 57.673336 
L 88.535413 65.626388 
L 88.702812 61.312363 
L 89.037612 64.692151 
L 89.205013 64.168066 
L 89.372412 57.046716 
L 89.539813 62.062886 
L 89.707212 61.489569 
L 89.874613 69.200078 
L 90.209412 54.852787 
L 90.544213 70.576999 
L 90.879013 60.533743 
L 91.046413 59.861567 
L 91.213813 54.361251 
L 91.548613 64.652223 
L 91.716013 69.67412 
L 91.883413 56.992427 
L 92.050813 57.424352 
L 92.218213 69.8063 
L 92.385613 73.953103 
L 92.720413 62.012177 
L 92.887812 61.453581 
L 93.055213 58.849717 
L 93.222612 61.171729 
L 93.390013 68.912484 
L 93.724813 55.496527 
L 93.892212 60.287504 
L 94.227013 76.907308 
L 94.394413 58.091762 
L 94.729213 67.491453 
L 94.896613 66.608221 
L 95.398813 63.045944 
L 95.566213 65.934987 
L 95.733613 60.135229 
L 95.901013 64.353944 
L 96.068413 82.618736 
L 96.403213 61.157566 
L 96.570613 59.992902 
L 96.905413 74.035433 
L 97.072813 64.924562 
L 97.240213 70.26886 
L 97.575012 62.341219 
L 98.077213 78.437203 
L 98.244613 76.6562 
L 98.412013 71.198553 
L 98.579413 70.533085 
L 98.914212 77.18366 
L 99.249012 62.878305 
L 99.416413 74.24501 
L 99.583812 76.804937 
L 99.751213 76.996901 
L 99.918612 80.828776 
L 100.253412 73.374455 
L 100.420813 82.049286 
L 100.588212 77.31712 
L 100.923012 75.894807 
L 101.257812 83.520606 
L 101.425213 83.643695 
L 101.592613 82.841661 
L 101.760013 78.742614 
L 101.927413 89.554966 
L 102.094813 91.450117 
L 102.262213 76.163858 
L 102.429613 79.628765 
L 102.597013 80.64949 
L 102.931813 92.328954 
L 103.266613 85.471384 
L 103.434012 88.148226 
L 103.601413 88.260732 
L 103.936213 91.398379 
L 104.103612 91.149521 
L 104.271013 89.932699 
L 104.438412 93.860468 
L 104.605813 89.10734 
L 104.940613 99.587335 
L 105.108013 101.039787 
L 105.275413 95.507472 
L 105.610213 99.863558 
L 105.777613 93.137474 
L 106.112413 103.298802 
L 106.279813 97.25652 
L 106.447213 100.26231 
L 106.782013 110.330241 
L 106.949413 100.110126 
L 107.116813 99.997513 
L 107.619012 104.239459 
L 107.786413 104.05271 
L 107.953812 102.136452 
L 108.121213 103.729439 
L 108.288612 111.052817 
L 108.456013 113.356227 
L 108.623413 104.406111 
L 108.790812 103.134707 
L 108.958213 105.099519 
L 109.125612 123.930069 
L 109.627813 101.313984 
L 109.795212 105.637629 
L 109.962613 113.787577 
L 110.130012 115.97188 
L 110.297413 115.057276 
L 110.464812 113.238742 
L 110.632213 119.068538 
L 110.799612 120.598907 
L 111.134412 113.567303 
L 111.301813 113.509959 
L 111.636613 127.049171 
L 111.804012 126.172389 
L 111.971413 114.597121 
L 112.138813 120.059346 
L 112.306213 121.549749 
L 112.473613 126.199706 
L 112.641013 116.549851 
L 112.975813 128.947641 
L 113.143213 123.670801 
L 113.310613 122.402803 
L 113.478013 131.064116 
L 113.645412 122.608075 
L 113.812813 123.88002 
L 113.980212 128.899289 
L 114.147613 125.670361 
L 114.315012 133.993969 
L 114.482413 132.117203 
L 114.649812 127.525304 
L 114.817213 135.371458 
L 114.984612 135.739867 
L 115.152013 134.754192 
L 115.486813 126.225216 
L 115.821613 144.582786 
L 115.989013 138.510916 
L 116.156413 122.563142 
L 116.491213 135.731084 
L 116.658613 139.920119 
L 116.826013 141.05437 
L 116.993413 144.089028 
L 117.160813 141.836662 
L 117.328213 143.41589 
L 117.495613 140.92778 
L 117.663013 146.623449 
L 117.830413 140.614785 
L 117.997813 141.843674 
L 118.165213 147.849277 
L 118.332613 147.586925 
L 118.500012 136.313977 
L 118.667413 137.768968 
L 118.834812 144.932512 
L 119.002213 143.428612 
L 119.169612 148.053662 
L 119.337013 135.055616 
L 119.504413 145.653118 
L 119.671813 145.729846 
L 120.174013 156.741857 
L 120.341412 149.525923 
L 120.508813 151.480761 
L 120.676212 151.466747 
L 120.843613 157.268781 
L 121.178413 147.061344 
L 121.345812 155.56936 
L 121.513213 156.594691 
L 121.680612 160.042337 
L 121.848013 160.886966 
L 122.015412 144.122455 
L 122.350212 151.389632 
L 122.517613 168.92366 
L 123.019813 149.145838 
L 123.354613 157.565592 
L 123.522013 155.82027 
L 123.689413 163.186914 
L 124.024213 159.433282 
L 124.191613 158.04512 
L 124.359013 165.42275 
L 124.526413 167.46386 
L 124.693813 160.642059 
L 124.861212 173.147665 
L 125.196012 165.843879 
L 125.363413 164.43203 
L 125.530812 160.060701 
L 126.033013 172.801176 
L 126.200412 170.256515 
L 126.367813 165.553126 
L 126.535213 174.993158 
L 126.702613 175.132211 
L 126.870013 164.976373 
L 127.037413 166.54786 
L 127.204813 173.582323 
L 127.372213 163.290353 
L 127.539613 169.485316 
L 127.707013 168.379816 
L 127.874413 168.561446 
L 128.041813 175.903907 
L 128.376613 173.81994 
L 128.544013 171.88635 
L 128.711413 165.049015 
L 129.046213 182.199442 
L 129.213613 177.746449 
L 129.381012 176.705637 
L 129.548413 180.100721 
L 129.715812 177.135473 
L 129.883213 181.933694 
L 130.385413 169.218693 
L 130.552813 183.142447 
L 130.720213 180.408983 
L 130.887613 182.82236 
L 131.055013 180.243026 
L 131.222413 181.28797 
L 131.389813 184.281365 
L 131.892013 177.944277 
L 132.059413 175.184242 
L 132.226813 177.256622 
L 132.561613 184.596733 
L 132.729013 184.808484 
L 132.896413 186.88114 
L 133.231213 177.720048 
L 133.398613 191.724891 
L 133.566013 182.939579 
L 133.733413 186.362464 
L 133.900813 183.955366 
L 134.068213 190.92823 
L 134.235613 177.054283 
L 134.570413 188.541941 
L 134.737813 188.489729 
L 134.905213 182.951786 
L 135.240013 195.900358 
L 135.407412 189.908272 
L 135.574813 194.365981 
L 135.742212 186.376401 
L 135.909613 187.120225 
L 136.077012 182.749381 
L 136.244413 203.214718 
L 136.579213 187.442258 
L 136.746612 191.686659 
L 136.914013 189.149291 
L 137.081412 189.602587 
L 137.248812 197.494392 
L 137.416213 197.141768 
L 137.583612 188.898584 
L 137.751013 200.571037 
L 137.918412 200.670027 
L 138.085813 195.646977 
L 138.253212 182.008472 
L 138.420613 198.772636 
L 138.755413 189.765304 
L 138.922812 193.459052 
L 139.090213 202.119004 
L 139.257612 197.182431 
L 139.592412 195.369122 
L 139.759813 194.64254 
L 139.927212 203.103824 
L 140.094613 197.57098 
L 140.262012 198.04158 
L 140.429413 197.338135 
L 140.596812 202.932504 
L 140.764213 194.432613 
L 140.931612 196.465177 
L 141.099013 200.508549 
L 141.266413 199.852357 
L 141.433813 191.065319 
L 141.768613 205.754579 
L 142.103412 195.641415 
L 142.270813 199.431269 
L 142.438212 199.159597 
L 142.605613 198.051925 
L 142.940413 210.080794 
L 143.107812 198.761096 
L 143.275213 198.698702 
L 143.442612 205.188204 
L 143.610013 202.436303 
L 143.777412 202.537192 
L 143.944813 203.787339 
L 144.112212 202.437651 
L 144.614413 205.680976 
L 144.781813 202.80751 
L 144.949213 202.309859 
L 145.116613 199.24045 
L 145.284013 206.23739 
L 145.451413 206.103474 
L 145.618813 203.187468 
L 145.786213 202.240851 
L 145.953613 216.682151 
L 146.288413 199.704752 
L 146.623213 213.392119 
L 146.790613 201.961621 
L 146.958012 199.309773 
L 147.125413 204.549738 
L 147.292812 205.835394 
L 147.627612 203.48311 
L 147.795013 205.554651 
L 148.297213 201.377098 
L 148.464613 214.23391 
L 148.632013 206.628266 
L 148.799413 209.687475 
L 148.966813 217.07387 
L 149.301613 206.745394 
L 149.469013 209.724973 
L 149.636413 205.484469 
L 149.803813 212.630479 
L 149.971213 211.71845 
L 150.138613 208.697894 
L 150.306013 209.719931 
L 150.473413 208.013902 
L 150.640813 214.515887 
L 150.808213 215.132705 
L 150.975613 205.5349 
L 151.143013 211.841517 
L 151.310413 213.83479 
L 151.477812 213.204419 
L 151.645213 210.61487 
L 151.812613 203.658813 
L 152.147413 216.892167 
L 152.482213 203.141515 
L 152.649613 219.974646 
L 152.984413 207.79407 
L 153.151813 210.428206 
L 153.319213 216.94168 
L 153.486613 216.664337 
L 153.821413 210.685265 
L 154.156213 216.068596 
L 154.323613 213.143242 
L 154.491013 206.768134 
L 154.825813 215.28929 
L 154.993213 209.774975 
L 155.328013 217.480959 
L 155.495413 212.1796 
L 155.662813 214.210139 
L 155.997613 211.846277 
L 156.165013 215.980377 
L 156.332413 216.038189 
L 156.499812 210.441353 
L 156.834612 219.1855 
L 157.169412 212.482815 
L 157.336813 217.878533 
L 157.504212 217.061573 
L 157.671613 209.993219 
L 157.839012 209.552834 
L 158.006413 218.35494 
L 158.341213 212.960313 
L 158.508612 218.874137 
L 158.676013 216.434093 
L 158.843412 224.311577 
L 159.010813 213.564035 
L 159.178213 211.467489 
L 159.345612 215.406604 
L 159.513013 223.683596 
L 159.680412 213.130763 
L 159.847813 215.979161 
L 160.182613 213.546152 
L 160.350012 222.54583 
L 160.517413 221.361643 
L 160.852213 210.540687 
L 161.187013 217.998417 
L 161.354412 213.011548 
L 161.521813 219.272782 
L 161.689212 214.935454 
L 162.024012 219.388971 
L 162.191413 220.250588 
L 162.526213 209.495574 
L 162.861013 220.641549 
L 163.028413 217.805934 
L 163.195813 209.979526 
L 163.363213 214.872316 
L 163.530613 229.660952 
L 163.865413 214.82659 
L 164.367613 219.754077 
L 164.535012 215.955496 
L 164.702413 217.998744 
L 164.869812 218.285692 
L 165.037213 220.580804 
L 165.204612 218.77244 
L 165.372013 214.727243 
L 165.706813 223.083787 
L 165.874212 218.22232 
L 166.041613 218.874949 
L 166.209013 221.946148 
L 166.543813 214.426769 
L 166.711212 214.286408 
L 167.046012 226.748832 
L 167.213413 221.19808 
L 167.380812 210.910153 
L 167.715612 230.025161 
L 167.883013 215.941589 
L 168.050412 216.92236 
L 168.217813 216.815879 
L 168.385212 217.350063 
L 168.552613 223.657254 
L 168.720012 216.987474 
L 168.887413 223.516213 
L 169.222213 220.365937 
L 169.389612 221.319952 
L 169.557013 227.262912 
L 169.724412 216.546714 
L 169.891813 219.120906 
L 170.059213 219.924733 
L 170.394013 224.594379 
L 170.728813 213.868543 
L 171.063613 226.475773 
L 171.231012 221.546346 
L 171.565812 219.176466 
L 171.733213 225.175933 
L 171.900612 217.694076 
L 172.068013 215.905583 
L 172.235412 224.546515 
L 172.402813 219.735261 
L 172.570212 218.753938 
L 172.737613 226.024997 
L 173.239812 220.756482 
L 173.407213 225.268127 
L 173.574613 221.450919 
L 173.742013 224.757995 
L 173.909413 218.526528 
L 174.244213 225.171682 
L 174.579013 220.287324 
L 174.746413 225.600334 
L 174.913813 222.682805 
L 175.248613 225.192325 
L 175.416013 225.446015 
L 175.583413 221.595058 
L 175.750813 223.296032 
L 175.918213 220.842938 
L 176.085612 222.184848 
L 176.253013 220.954889 
L 176.922613 230.681187 
L 177.090013 223.335397 
L 177.257413 222.853906 
L 177.424813 228.288706 
L 177.592213 220.487662 
L 177.927012 225.589108 
L 178.094413 224.126315 
L 178.261812 225.613738 
L 178.429213 224.41385 
L 178.596612 226.576562 
L 178.764013 230.337042 
L 179.098812 218.820275 
L 179.266212 230.60227 
L 179.433612 226.804895 
L 179.601012 217.892997 
L 179.768412 226.402899 
L 180.103212 223.372076 
L 180.270612 224.203114 
L 180.438012 219.891073 
L 180.605412 219.124702 
L 180.772812 226.362649 
L 180.940213 221.974475 
L 181.107612 228.879449 
L 181.275013 226.659789 
L 181.442412 227.252552 
L 181.609813 227.205169 
L 182.112012 217.940571 
L 182.279413 227.767823 
L 182.446812 227.664648 
L 182.614213 222.380461 
L 182.781612 222.585048 
L 182.949013 231.490535 
L 183.116412 229.033028 
L 183.283813 223.953391 
L 183.451212 227.05055 
L 183.618613 224.538152 
L 183.786012 226.878349 
L 183.953412 225.467766 
L 184.120812 222.68396 
L 184.455613 228.245021 
L 184.623012 225.114386 
L 184.790413 228.019209 
L 184.957812 226.958431 
L 185.125213 220.07856 
L 185.460013 227.928365 
L 185.627412 225.120257 
L 185.794813 226.0601 
L 185.962212 220.502281 
L 186.297012 228.001424 
L 186.631812 218.79797 
L 186.799213 231.882855 
L 186.966612 232.149849 
L 187.301412 224.636587 
L 187.468813 225.064459 
L 187.636212 229.013456 
L 187.803613 227.578397 
L 187.971013 214.072533 
L 188.138413 230.112878 
L 188.305813 233.994223 
L 188.473213 222.84773 
L 188.808012 226.308856 
L 188.975413 228.351149 
L 189.142812 226.336147 
L 189.310213 230.497711 
L 189.477612 229.907011 
L 189.645013 222.896945 
L 189.812412 226.627648 
L 189.979813 222.513793 
L 190.147212 223.887706 
L 190.314613 231.655583 
L 190.649413 223.493282 
L 190.816812 229.49537 
L 190.984213 231.415381 
L 191.151612 219.516444 
L 191.319013 230.713754 
L 191.486413 229.043678 
L 191.653813 223.64861 
L 191.821213 234.508261 
L 192.156013 217.098249 
L 192.323413 232.284573 
L 192.658213 219.874494 
L 192.993013 234.203677 
L 193.160413 220.947324 
L 193.495213 230.730385 
L 193.830013 224.099577 
L 193.997412 223.904031 
L 194.164813 224.474389 
L 194.332212 222.881136 
L 194.499613 229.503406 
L 194.834413 222.207415 
L 195.001812 236.646736 
L 195.169213 225.728487 
L 195.504013 229.380607 
L 195.671413 227.528085 
L 195.838813 226.946564 
L 196.006213 230.077537 
L 196.341013 224.605661 
L 196.508413 231.715437 
L 196.843213 222.063529 
L 197.010613 236.04807 
L 197.178013 225.705518 
L 197.345413 227.28156 
L 197.512813 224.8354 
L 197.680213 234.204917 
L 197.847613 227.102682 
L 198.015013 224.724688 
L 198.182412 224.589955 
L 198.349813 234.703794 
L 198.517212 222.505844 
L 198.852013 228.378601 
L 199.019413 225.437983 
L 199.354212 229.860671 
L 199.521613 228.688409 
L 199.689012 233.003514 
L 199.856413 226.445214 
L 200.023812 229.103027 
L 200.191213 224.829514 
L 200.358612 225.540118 
L 200.526013 220.596787 
L 200.693412 233.993388 
L 200.860813 230.7755 
L 201.028212 222.010746 
L 201.195612 230.52267 
L 201.363012 231.200909 
L 201.530412 223.496827 
L 201.865212 234.429668 
L 202.200012 228.345112 
L 202.367413 226.763878 
L 202.534812 223.500198 
L 202.869612 231.171171 
L 203.037013 230.649566 
L 203.204412 227.355167 
L 203.371813 226.483618 
L 203.539212 229.932214 
L 203.706613 222.639839 
L 203.874012 233.544861 
L 204.041413 234.854463 
L 204.208812 225.598224 
L 204.376213 228.867076 
L 204.711013 224.449626 
L 204.878412 230.811964 
L 205.045813 228.254503 
L 205.213212 228.155477 
L 205.380613 230.144072 
L 205.548012 227.239972 
L 205.715413 227.871804 
L 205.882812 229.208292 
L 206.050213 225.671235 
L 206.217613 226.732184 
L 206.385013 239.309876 
L 206.719813 224.520362 
L 206.887213 224.938122 
L 207.054613 232.269478 
L 207.389413 224.654356 
L 207.556813 234.121744 
L 207.724213 232.142484 
L 207.891613 231.893409 
L 208.059013 221.973512 
L 208.226413 225.142496 
L 208.393813 233.996269 
L 208.561213 232.134149 
L 208.728613 227.346758 
L 208.896013 226.959123 
L 209.063413 225.030789 
L 209.230813 225.217676 
L 209.398213 224.219191 
L 209.565613 229.030707 
L 209.733013 224.89171 
L 209.900413 232.732266 
L 210.067812 226.011042 
L 210.235213 232.657895 
L 210.570013 226.379404 
L 210.737412 226.757665 
L 210.904812 233.481988 
L 211.072212 230.890922 
L 211.239612 221.921415 
L 211.741812 231.803809 
L 211.909212 226.151344 
L 212.076612 225.950472 
L 212.244012 238.035968 
L 212.578812 227.673193 
L 212.746212 228.070715 
L 212.913612 234.429084 
L 213.248413 221.78756 
L 213.415812 231.579777 
L 213.750612 223.509623 
L 214.085412 231.656445 
L 214.252813 224.429934 
L 214.587613 234.681249 
L 214.755012 227.258016 
L 214.922413 228.240783 
L 215.089812 222.36029 
L 215.257213 228.940382 
L 215.424612 230.484457 
L 215.592013 222.725591 
L 215.926813 235.123332 
L 216.261613 222.197226 
L 216.596413 234.450062 
L 216.931213 231.566809 
L 217.098613 223.616643 
L 217.266013 231.720184 
L 217.433413 230.591435 
L 217.600813 226.470025 
L 217.768213 232.181015 
L 218.103013 227.564563 
L 218.437813 231.735831 
L 218.605213 223.516596 
L 218.772612 222.767585 
L 218.940013 230.922252 
L 219.274813 227.416403 
L 219.442212 230.062054 
L 219.609613 225.099219 
L 219.777012 224.587469 
L 219.944413 233.135739 
L 220.111812 233.108723 
L 220.279212 219.956568 
L 220.446612 236.294566 
L 220.614013 234.949042 
L 220.781412 224.109922 
L 221.116212 232.624641 
L 221.283613 226.109667 
L 221.451012 235.999016 
L 221.785812 225.134386 
L 221.953213 226.891882 
L 222.120612 224.269375 
L 222.455412 235.663898 
L 222.622813 223.563686 
L 222.790212 225.275767 
L 222.957613 234.355955 
L 223.125012 233.393776 
L 223.292413 225.794931 
L 223.459812 234.633942 
L 223.627213 224.897175 
L 223.794612 232.070555 
L 223.962013 225.68336 
L 224.129413 229.131743 
L 224.296813 224.586927 
L 224.464213 232.02042 
L 224.631613 228.24858 
L 224.799013 233.932288 
L 224.966413 228.364246 
L 225.133813 227.418522 
L 225.301213 224.347729 
L 225.468613 234.34969 
L 225.636013 233.451684 
L 225.803413 226.11939 
L 226.138213 228.960611 
L 226.305613 225.939856 
L 226.640413 230.827296 
L 226.807813 227.128076 
L 226.975213 235.241899 
L 227.142613 232.843916 
L 227.310013 224.157482 
L 227.477413 233.676215 
L 227.644813 227.878774 
L 227.812213 229.820607 
L 227.979613 236.321875 
L 228.147012 235.877157 
L 228.314413 220.864082 
L 228.481812 225.897993 
L 228.649213 235.811095 
L 228.984013 225.485905 
L 229.151412 231.471878 
L 229.318813 228.090652 
L 229.486212 232.199826 
L 229.653613 225.325074 
L 229.821012 232.569207 
L 229.988413 228.623647 
L 230.155812 228.62631 
L 230.323213 233.037955 
L 230.490612 228.280578 
L 230.658013 229.132594 
L 230.825412 222.214043 
L 231.160213 235.366153 
L 231.327613 233.832691 
L 231.495013 225.291821 
L 231.829813 234.562773 
L 231.997212 228.366156 
L 232.164613 229.811183 
L 232.332012 233.131724 
L 232.499413 228.324616 
L 232.666812 234.575782 
L 232.834213 232.660708 
L 233.001612 232.111696 
L 233.169013 227.22608 
L 233.336412 228.985783 
L 233.503813 232.722769 
L 233.838613 226.280425 
L 234.006012 230.862505 
L 234.173413 224.050258 
L 234.340812 236.302074 
L 234.843013 222.375283 
L 235.010413 229.08023 
L 235.177813 227.5743 
L 235.345213 233.232875 
L 235.680013 222.655419 
L 235.847413 227.435585 
L 236.014812 235.588583 
L 236.182213 230.562843 
L 236.349612 229.797666 
L 236.517013 226.732303 
L 236.684412 235.157084 
L 236.851813 232.429533 
L 237.019212 232.831318 
L 237.186613 223.559622 
L 237.354012 223.333162 
L 237.688812 235.863945 
L 237.856212 223.045078 
L 238.023612 229.527498 
L 238.191012 230.552068 
L 238.358412 229.741912 
L 238.525813 237.30231 
L 238.693212 232.237338 
L 238.860613 218.288117 
L 239.028012 237.236061 
L 239.195413 239.765883 
L 239.362812 225.935243 
L 239.530213 226.911208 
L 239.697612 228.558913 
L 239.865013 227.364215 
L 240.032412 233.169452 
L 240.367212 223.114521 
L 240.534613 234.53236 
L 240.869413 227.508633 
L 241.204213 235.384979 
L 241.371612 232.444367 
L 241.539013 224.60466 
L 241.706412 231.808979 
L 242.041213 224.778701 
L 242.208613 232.939423 
L 242.376013 230.40375 
L 242.543413 229.991198 
L 242.710813 230.365985 
L 243.045613 225.85287 
L 243.213013 235.810005 
L 243.380413 228.443868 
L 243.715213 233.704575 
L 243.882613 223.182105 
L 244.217413 231.084509 
L 244.384813 229.912157 
L 244.552213 231.293018 
L 244.719613 229.019828 
L 244.887013 231.006531 
L 245.054413 230.920397 
L 245.221813 233.595193 
L 245.389212 224.376194 
L 245.556613 231.631336 
L 245.724012 228.10299 
L 245.891413 235.180835 
L 246.226213 224.836192 
L 246.393612 230.52002 
L 246.561013 231.571565 
L 246.728412 227.139421 
L 246.895813 229.764647 
L 247.063212 226.495891 
L 247.230613 225.718374 
L 247.398012 233.34498 
L 247.565413 234.791596 
L 247.732812 233.069915 
L 247.900213 226.897526 
L 248.067612 232.348283 
L 248.235013 227.182302 
L 248.402412 227.855568 
L 248.569813 229.811218 
L 248.737212 228.132563 
L 248.904613 233.50894 
L 249.072012 230.114381 
L 249.239413 233.356776 
L 249.406813 229.55704 
L 249.574213 231.254679 
L 249.741613 229.707874 
L 249.909013 232.49681 
L 250.076413 232.321957 
L 250.243813 226.472217 
L 250.411213 227.841852 
L 250.578613 234.587889 
L 250.746013 230.780793 
L 250.913413 218.647148 
L 251.080813 233.01918 
L 251.248213 234.415496 
L 251.415613 225.656262 
L 251.750413 235.809549 
L 251.917813 235.064617 
L 252.252613 226.694866 
L 252.420013 235.46074 
L 252.587413 233.41153 
L 252.922213 225.271648 
L 253.089613 234.113952 
L 253.257013 224.846986 
L 253.591812 231.011036 
L 253.759213 230.167663 
L 253.926612 234.261773 
L 254.094013 227.497949 
L 254.261412 229.604884 
L 254.428813 234.31477 
L 254.596212 226.302358 
L 254.763613 229.228413 
L 254.931012 227.706093 
L 255.098412 236.513526 
L 255.265812 226.713804 
L 255.433212 225.458232 
L 255.768012 234.877173 
L 256.102813 231.14507 
L 256.270213 227.484552 
L 256.437613 229.470277 
L 256.605012 227.635615 
L 256.772413 223.915843 
L 256.939813 235.053526 
L 257.107213 233.463191 
L 257.274612 228.508134 
L 257.442013 231.931292 
L 257.609413 224.994834 
L 257.776813 229.182348 
L 257.944212 227.021977 
L 258.111613 230.837436 
L 258.279013 229.032656 
L 258.446413 230.774575 
L 258.613812 230.720526 
L 258.781213 231.839607 
L 258.948613 236.29775 
L 259.116013 227.992338 
L 259.283412 232.83658 
L 259.450813 230.858525 
L 259.618213 223.979187 
L 259.953012 231.967112 
L 260.120413 230.898921 
L 260.287813 226.306716 
L 260.455213 233.043587 
L 260.622613 228.772289 
L 260.790013 229.826994 
L 260.957413 234.971528 
L 261.124813 233.42743 
L 261.292213 230.109074 
L 261.459613 233.896264 
L 261.627013 227.326751 
L 261.794413 228.558936 
L 261.961813 227.363034 
L 262.129213 231.787665 
L 262.296613 231.655343 
L 262.464013 228.462512 
L 262.631413 230.692543 
L 262.798813 221.594083 
L 262.966212 236.776077 
L 263.133613 226.308113 
L 263.301013 226.639369 
L 263.468413 236.869424 
L 263.635812 236.153482 
L 263.803213 222.131053 
L 263.970613 231.697373 
L 264.138013 227.072671 
L 264.305412 226.209351 
L 264.472813 237.074282 
L 264.640213 234.064795 
L 264.807613 220.905077 
L 264.975012 235.512154 
L 265.142413 228.203229 
L 265.309813 230.599555 
L 265.477213 231.266127 
L 265.644612 231.392508 
L 265.812013 233.669506 
L 265.979413 227.692335 
L 266.146813 227.209979 
L 266.314212 222.476974 
L 266.481613 234.61897 
L 266.816413 226.669162 
L 266.983812 234.268262 
L 267.318613 224.590494 
L 267.653413 235.592602 
L 267.820813 227.365494 
L 268.155613 231.576632 
L 268.323013 226.087789 
L 268.657813 233.502067 
L 268.825213 226.719505 
L 268.992613 234.4199 
L 269.160013 226.397484 
L 269.327413 229.641847 
L 269.494813 227.635574 
L 269.662213 234.419614 
L 269.829613 227.864421 
L 269.997013 232.272877 
L 270.164413 225.990232 
L 270.331813 236.737638 
L 270.499213 228.361218 
L 270.834013 224.194448 
L 271.001413 239.291084 
L 271.336213 222.981526 
L 271.503613 230.534845 
L 271.671013 233.004068 
L 271.838413 232.857124 
L 272.005813 232.031561 
L 272.173213 234.285756 
L 272.340613 226.554349 
L 272.508013 227.468184 
L 272.675412 229.214795 
L 272.842813 229.600875 
L 273.010213 231.096337 
L 273.177613 225.523056 
L 273.345012 228.520379 
L 273.512413 234.849697 
L 273.679813 226.812957 
L 273.847213 227.975923 
L 274.014612 234.687976 
L 274.349413 228.575116 
L 274.516813 237.7023 
L 274.684213 226.70295 
L 274.851612 228.006674 
L 275.019013 236.784379 
L 275.186413 230.922642 
L 275.353813 220.499939 
L 275.521212 225.168316 
L 275.688613 233.049789 
L 276.023413 229.400851 
L 276.190812 230.176503 
L 276.358213 235.478251 
L 276.525613 230.914951 
L 276.693013 229.805937 
L 276.860412 233.500844 
L 277.027813 225.70637 
L 277.195213 229.162622 
L 277.362613 229.148633 
L 277.530012 230.084438 
L 277.864813 225.165028 
L 278.199613 236.564197 
L 278.367013 226.712464 
L 278.534413 225.287303 
L 278.701813 231.285011 
L 278.869213 227.896457 
L 279.036613 228.627943 
L 279.204013 233.535572 
L 279.371413 224.324728 
L 279.538813 234.071418 
L 279.706213 227.835512 
L 279.873613 226.252361 
L 280.041013 229.797732 
L 280.208413 226.163909 
L 280.375813 231.994562 
L 280.543212 233.656125 
L 280.710613 227.220649 
L 280.878013 226.705375 
L 281.045413 234.924494 
L 281.212812 231.018028 
L 281.380213 231.123349 
L 281.547613 235.303055 
L 281.715013 227.365074 
L 281.882412 228.292005 
L 282.049813 232.737415 
L 282.384613 223.098194 
L 282.552012 235.106563 
L 282.886813 229.792191 
L 283.054213 229.221185 
L 283.221612 241.530875 
L 283.389013 227.769798 
L 283.556413 233.243902 
L 283.891212 224.955648 
L 284.226013 229.564489 
L 284.393413 227.707647 
L 284.728213 231.468059 
L 284.895613 224.879643 
L 285.063013 233.987431 
L 285.397813 227.548053 
L 285.732613 237.571311 
L 285.900013 220.818883 
L 286.234813 233.049788 
L 286.402213 227.273455 
L 286.569613 226.660686 
L 286.904413 235.280338 
L 287.071813 230.77019 
L 287.239213 229.624601 
L 287.406613 226.410829 
L 287.574013 231.103694 
L 287.908813 234.177528 
L 288.076213 227.688084 
L 288.243613 227.04768 
L 288.411013 227.254622 
L 288.578413 228.912778 
L 288.745813 228.380999 
L 288.913213 229.770964 
L 289.080613 229.963064 
L 289.248013 227.990209 
L 289.415413 229.548562 
L 289.582813 224.77864 
L 289.750213 232.639578 
L 289.917613 226.498067 
L 290.252412 235.3262 
L 290.587213 223.482169 
L 290.922012 232.47368 
L 291.089413 231.434387 
L 291.256813 224.464257 
L 291.424213 232.66305 
L 291.926413 225.691465 
L 292.093813 236.174783 
L 292.261212 226.050481 
L 292.428613 233.416301 
L 292.596013 231.356333 
L 292.763413 225.198875 
L 292.930813 230.345324 
L 293.098213 225.474272 
L 293.265613 231.659273 
L 293.433013 231.696806 
L 293.600413 230.297055 
L 293.767813 226.993301 
L 293.935213 232.524495 
L 294.102613 234.208816 
L 294.270013 234.688826 
L 294.437413 230.764422 
L 294.604813 231.166775 
L 294.772213 229.720137 
L 294.939613 227.206879 
L 295.107013 228.993992 
L 295.274413 229.277072 
L 295.441813 226.465763 
L 295.609213 231.709058 
L 295.776612 230.365805 
L 295.944013 222.779499 
L 296.278813 233.640724 
L 296.446213 226.554975 
L 296.613613 238.870891 
L 296.948413 227.990796 
L 297.283213 235.144738 
L 297.450613 226.631476 
L 297.618013 232.467471 
L 297.785413 227.399575 
L 297.952813 228.419129 
L 298.120213 230.308292 
L 298.287613 226.332172 
L 298.455013 233.32825 
L 298.622413 233.833183 
L 298.789813 226.01457 
L 298.957213 235.268351 
L 299.124613 232.602937 
L 299.292013 223.384502 
L 299.459413 223.934015 
L 299.626813 233.252821 
L 299.794213 227.347976 
L 299.961613 231.002416 
L 300.129013 224.600143 
L 300.296413 230.096808 
L 300.463813 229.745237 
L 300.631213 225.217638 
L 300.798613 230.991079 
L 300.966013 230.680637 
L 301.133413 225.644047 
L 301.300813 232.883174 
L 301.635613 225.448274 
L 301.803013 228.061954 
L 301.970413 234.023784 
L 302.137813 228.523527 
L 302.305213 228.678 
L 302.640013 230.420914 
L 302.807412 229.180431 
L 302.974813 232.522537 
L 303.142213 232.883714 
L 303.309613 231.85539 
L 303.477013 225.896706 
L 303.644413 230.045683 
L 303.811813 227.109909 
L 303.979213 233.932438 
L 304.146613 224.522076 
L 304.481413 230.251104 
L 304.648813 230.26296 
L 304.816213 228.988674 
L 304.983613 237.757203 
L 305.151013 224.162687 
L 305.318413 221.175588 
L 305.485813 237.783777 
L 305.653213 231.45525 
L 305.820613 229.877066 
L 305.988013 233.150758 
L 306.155413 225.982816 
L 306.322813 228.795425 
L 306.490213 234.571704 
L 306.657613 224.259978 
L 306.825013 226.267393 
L 306.992413 236.424466 
L 307.159813 233.956388 
L 307.327213 223.191154 
L 307.662013 234.698087 
L 307.829413 235.033964 
L 307.996813 233.65451 
L 308.331613 221.505719 
L 308.499013 235.293645 
L 308.833813 226.440263 
L 309.001213 230.643787 
L 309.168613 227.888251 
L 309.336013 228.246209 
L 309.503413 237.786971 
L 309.670813 231.629046 
L 309.838213 221.105865 
L 310.005613 240.949628 
L 310.173013 237.083866 
L 310.340413 222.867045 
L 310.507813 222.507381 
L 310.842613 229.264654 
L 311.177413 234.888989 
L 311.344813 225.981692 
L 311.512213 232.318015 
L 311.679613 229.483028 
L 311.847013 231.188515 
L 312.014413 227.908856 
L 312.181813 231.775666 
L 312.349213 230.260967 
L 312.516613 231.644814 
L 312.851413 227.51179 
L 313.018813 225.972993 
L 313.186213 234.96606 
L 313.353613 229.453128 
L 313.521013 231.428095 
L 313.688413 228.488048 
L 313.855813 229.036884 
L 314.023213 226.483064 
L 314.190613 232.500099 
L 314.358013 230.827741 
L 314.525413 230.348926 
L 314.692813 232.995061 
L 314.860213 227.088125 
L 315.027613 227.850349 
L 315.195013 232.960076 
L 315.362413 228.722928 
L 315.529813 228.676501 
L 315.697213 229.233976 
L 315.864613 235.473614 
L 316.032013 232.585423 
L 316.199413 225.699748 
L 316.366813 228.592885 
L 316.534213 233.88795 
L 316.701613 228.271112 
L 316.869013 228.637134 
L 317.036413 232.739357 
L 317.371213 223.308053 
L 317.538613 230.252378 
L 317.706013 232.05298 
L 317.873413 227.19608 
L 318.040813 231.18039 
L 318.208213 227.543383 
L 318.375613 234.619642 
L 318.877813 227.953618 
L 319.045213 238.912717 
L 319.212613 228.85591 
L 319.380013 226.929647 
L 319.547413 233.801749 
L 319.882213 225.513632 
L 320.049613 227.88188 
L 320.217013 232.033074 
L 320.384412 229.530165 
L 320.719213 231.645509 
L 320.886613 231.051856 
L 321.054012 233.675269 
L 321.388813 224.4424 
L 321.556213 233.16601 
L 321.723613 231.485047 
L 321.891013 219.646716 
L 322.225813 234.105359 
L 322.560613 227.254396 
L 322.728013 235.154644 
L 322.895413 227.684367 
L 323.062813 230.122023 
L 323.230213 225.54782 
L 323.397613 233.776849 
L 323.732413 229.141737 
L 323.899813 223.186643 
L 324.067213 232.002795 
L 324.402013 226.445032 
L 324.569413 231.429906 
L 324.736813 233.100498 
L 325.071613 226.252156 
L 325.239013 233.236854 
L 325.406413 231.547213 
L 325.573813 234.457893 
L 326.076013 228.895172 
L 326.243413 222.531075 
L 326.578213 233.87835 
L 326.745613 230.078871 
L 326.913013 230.845029 
L 327.080413 226.51693 
L 327.247813 231.353254 
L 327.415213 226.509751 
L 327.582613 234.43174 
L 327.750013 233.684688 
L 327.917413 227.398325 
L 328.084813 233.70745 
L 328.252213 224.953424 
L 328.419613 232.616845 
L 328.754413 227.13977 
L 329.089213 235.294736 
L 329.256613 232.238937 
L 329.424013 221.203716 
L 329.758813 238.026773 
L 330.093613 226.543739 
L 330.261013 238.854267 
L 330.595813 224.779108 
L 330.763213 227.740274 
L 330.930613 232.917175 
L 331.098013 228.425698 
L 331.265413 233.018255 
L 331.432813 221.773076 
L 331.600213 231.720824 
L 331.767613 233.691355 
L 331.935013 226.116916 
L 332.102413 233.318097 
L 332.269813 235.611078 
L 332.772013 220.074216 
L 332.939413 232.328994 
L 333.106813 229.598622 
L 333.441613 228.015133 
L 333.609013 228.084795 
L 333.776413 228.778428 
L 333.943813 233.943861 
L 334.278613 228.668743 
L 334.446013 233.097871 
L 334.613413 231.25198 
L 334.780813 226.050645 
L 334.948213 230.355037 
L 335.283013 224.606733 
L 335.450413 235.311166 
L 335.617813 234.137919 
L 335.785213 225.990414 
L 335.952613 228.480091 
L 336.287413 237.870336 
L 336.454813 224.839787 
L 336.622213 227.344675 
L 336.789613 235.410923 
L 336.957013 234.383475 
L 337.291813 226.501371 
L 337.626613 230.164901 
L 337.794013 224.907419 
L 337.961413 225.608184 
L 338.128813 238.062404 
L 338.296213 232.246004 
L 338.463613 230.565578 
L 338.631012 237.14264 
L 338.965813 223.249459 
L 339.133213 239.145181 
L 339.300612 228.029746 
L 339.635413 232.228102 
L 339.802813 232.329433 
L 339.970213 225.184704 
L 340.137613 233.94287 
L 340.305013 235.240653 
L 340.639813 230.451939 
L 340.807213 230.31375 
L 340.974613 231.737281 
L 341.142013 227.633631 
L 341.309413 238.064715 
L 341.476813 237.544524 
L 341.644213 226.17143 
L 341.811613 229.44117 
L 341.979013 227.945548 
L 342.146413 230.958662 
L 342.313813 227.696815 
L 342.481213 228.087069 
L 342.648613 229.148594 
L 342.816013 237.3616 
L 342.983413 229.59183 
L 343.150813 234.652675 
L 343.318213 228.474303 
L 343.485613 234.01034 
L 343.653013 233.29787 
L 343.987813 220.537532 
L 344.322613 231.423838 
L 344.490013 233.367597 
L 344.657413 225.254097 
L 344.824813 230.539241 
L 344.992213 230.050761 
L 345.159613 231.052708 
L 345.327013 230.627214 
L 345.494413 237.196614 
L 345.829213 224.704772 
L 345.996613 235.265361 
L 346.331413 224.44599 
L 346.666213 231.717292 
L 346.833613 235.427871 
L 347.168413 223.102962 
L 347.335813 230.639457 
L 347.503213 231.108343 
L 347.670613 230.845897 
L 347.838013 240.079013 
L 348.172813 225.502899 
L 348.340213 232.1433 
L 348.507613 233.47734 
L 348.675013 225.718544 
L 348.842413 226.780707 
L 349.009813 231.849371 
L 349.177213 232.070738 
L 349.344613 226.722919 
L 349.512013 232.77097 
L 349.679413 232.335392 
L 349.846813 232.48402 
L 350.014213 232.290238 
L 350.349013 227.834283 
L 350.683813 231.3825 
L 350.851213 228.857477 
L 351.018613 236.262575 
L 351.186013 222.018859 
L 351.520813 234.804182 
L 351.688213 228.052567 
L 351.855613 226.570427 
L 352.023013 240.354694 
L 352.190413 227.270198 
L 352.357813 228.41777 
L 352.525213 238.557289 
L 352.860013 225.238767 
L 353.027413 239.41754 
L 353.194813 222.48942 
L 353.362213 223.076046 
L 353.529613 239.978826 
L 353.864413 223.8688 
L 354.031813 236.413179 
L 354.199213 238.486642 
L 354.534013 221.877896 
L 354.701413 237.276204 
L 355.036213 225.117517 
L 355.203613 224.903263 
L 355.371013 230.15247 
L 355.538413 228.421971 
L 355.705813 231.575303 
L 355.873213 225.668267 
L 356.040613 235.638726 
L 356.208013 232.142863 
L 356.375413 221.904675 
L 356.542813 234.969713 
L 356.710213 238.254727 
L 356.877613 223.270001 
L 357.212413 238.457754 
L 357.547213 224.484283 
L 357.882013 234.957994 
L 358.049413 228.523873 
L 358.384213 229.691481 
L 358.551613 234.548123 
L 358.719013 227.686469 
L 358.886413 234.017997 
L 359.053813 230.955094 
L 359.221213 230.907309 
L 359.388613 235.892576 
L 359.723413 229.273603 
L 359.890813 229.097829 
L 360.058213 231.64612 
L 360.225613 224.666014 
L 360.560413 237.824434 
L 360.895213 225.521185 
L 361.062613 227.755783 
L 361.397413 235.02385 
L 361.564813 234.38209 
L 361.732213 232.376283 
L 361.899613 232.878933 
L 362.234413 226.19415 
L 362.569213 230.659396 
L 362.736613 225.028561 
L 362.904013 238.605345 
L 363.071413 236.065228 
L 363.238813 224.801142 
L 363.406213 227.677735 
L 363.573613 243.556364 
L 363.741013 228.185127 
L 363.908412 227.212665 
L 364.075813 233.441246 
L 364.243213 232.022319 
L 364.410613 229.207999 
L 364.578012 235.022158 
L 364.745413 229.430912 
L 365.080213 227.469124 
L 365.247613 235.1996 
L 365.415013 235.313157 
L 365.749813 228.34354 
L 365.917213 235.493165 
L 366.084613 234.034629 
L 366.252013 227.986817 
L 366.419413 230.289697 
L 366.586813 235.439258 
L 366.754213 231.312686 
L 366.921613 223.350567 
L 367.089013 234.136877 
L 367.256413 228.835734 
L 367.423813 227.142864 
L 367.591213 237.027882 
L 367.758613 229.222344 
L 367.926013 227.596124 
L 368.093413 235.846076 
L 368.260813 230.93431 
L 368.428213 229.844157 
L 368.763013 237.712496 
L 368.930413 225.154397 
L 369.265213 232.234222 
L 369.432613 232.602283 
L 369.767413 228.126034 
L 369.934813 237.385712 
L 370.269613 230.008824 
L 370.437013 237.062475 
L 370.604413 237.139108 
L 370.771813 232.717671 
L 370.939213 224.952346 
L 371.106613 240.164645 
L 371.441413 222.43045 
L 371.608813 231.041635 
L 371.776213 232.692548 
L 371.943613 229.982266 
L 372.111013 223.818899 
L 372.278413 231.890566 
L 372.445813 230.96755 
L 372.613213 231.31043 
L 372.780613 229.586035 
L 372.948013 231.945906 
L 373.115413 231.4852 
L 373.282813 223.070467 
L 373.282813 223.070467 
" clip-path="url(#p8f4b75d8ad)" style="fill: none; stroke: #1f77b4; stroke-width: 1.5; stroke-linecap: square"/>
   </g>
   <g id="line2d_16">
    <path d="M 38.650213 61.53124 
L 39.319813 74.728527 
L 39.989413 83.574933 
L 40.659013 89.504857 
L 41.328612 93.479804 
L 41.998213 96.14429 
L 42.667813 97.930349 
L 43.337412 99.127579 
L 44.007013 99.930107 
L 44.844013 100.572145 
L 45.848413 101.018685 
L 47.187613 101.317786 
L 49.196413 101.488335 
L 53.381413 101.555809 
L 87.531013 101.561843 
L 373.282813 101.561843 
L 373.282813 101.561843 
" clip-path="url(#p8f4b75d8ad)" style="fill: none; stroke: #ff7f0e; stroke-width: 1.5; stroke-linecap: square"/>
   </g>
   <g id="patch_3">
    <path d="M 38.482813 253.44 
L 38.482813 36 
" style="fill: none; stroke: #000000; stroke-width: 0.8; stroke-linejoin: miter; stroke-linecap: square"/>
   </g>
   <g id="patch_4">
    <path d="M 373.282813 253.44 
L 373.282813 36 
" style="fill: none; stroke: #000000; stroke-width: 0.8; stroke-linejoin: miter; stroke-linecap: square"/>
   </g>
   <g id="patch_5">
    <path d="M 38.482813 253.44 
L 373.282813 253.44 
" style="fill: none; stroke: #000000; stroke-width: 0.8; stroke-linejoin: miter; stroke-linecap: square"/>
   </g>
   <g id="patch_6">
    <path d="M 38.482813 36 
L 373.282813 36 
" style="fill: none; stroke: #000000; stroke-width: 0.8; stroke-linejoin: miter; stroke-linecap: square"/>
   </g>
   <g id="legend_1">
    <g id="patch_7">
     <path d="M 316.582813 77.078125 
L 366.282813 77.078125 
Q 368.282813 77.078125 368.282813 75.078125 
L 368.282813 43 
Q 368.282813 41 366.282813 41 
L 316.582813 41 
Q 314.582813 41 314.582813 43 
L 314.582813 75.078125 
Q 314.582813 77.078125 316.582813 77.078125 
z
" style="fill: #ffffff; opacity: 0.8; stroke: #cccccc; stroke-linejoin: miter"/>
    </g>
    <g id="line2d_17">
     <path d="M 318.582813 52.8 
L 328.582813 52.8 
L 338.582813 52.8 
" style="fill: none; stroke: #1f77b4; stroke-width: 1.5; stroke-linecap: square"/>
    </g>
    <g id="text_16">
     <!-- $\hat{y(t)}$ -->
     <g transform="translate(346.582813 56.3) scale(0.1 -0.1)">
      <defs>
       <path id="DejaVuSans-302" d="M -1831 5119 
L -1369 5119 
L -603 3944 
L -1038 3944 
L -1600 4709 
L -2163 3944 
L -2597 3944 
L -1831 5119 
z
M -1600 3584 
L -1600 3584 
z
" transform="scale(0.015625)"/>
       <path id="DejaVuSans-Oblique-79" d="M 1588 -325 
Q 1188 -997 936 -1164 
Q 684 -1331 294 -1331 
L -159 -1331 
L -63 -850 
L 269 -850 
Q 509 -850 678 -719 
Q 847 -588 1056 -206 
L 1234 128 
L 459 3500 
L 1069 3500 
L 1650 819 
L 3256 3500 
L 3859 3500 
L 1588 -325 
z
" transform="scale(0.015625)"/>
       <path id="DejaVuSans-28" d="M 1984 4856 
Q 1566 4138 1362 3434 
Q 1159 2731 1159 2009 
Q 1159 1288 1364 580 
Q 1569 -128 1984 -844 
L 1484 -844 
Q 1016 -109 783 600 
Q 550 1309 550 2009 
Q 550 2706 781 3412 
Q 1013 4119 1484 4856 
L 1984 4856 
z
" transform="scale(0.015625)"/>
       <path id="DejaVuSans-29" d="M 513 4856 
L 1013 4856 
Q 1481 4119 1714 3412 
Q 1947 2706 1947 2009 
Q 1947 1309 1714 600 
Q 1481 -109 1013 -844 
L 513 -844 
Q 928 -128 1133 580 
Q 1338 1288 1338 2009 
Q 1338 2731 1133 3434 
Q 928 4138 513 4856 
z
" transform="scale(0.015625)"/>
      </defs>
      <use xlink:href="#DejaVuSans-302" transform="translate(135.682129 33.015625)"/>
      <use xlink:href="#DejaVuSans-Oblique-79" transform="translate(0 0.640625)"/>
      <use xlink:href="#DejaVuSans-28" transform="translate(59.179688 0.640625)"/>
      <use xlink:href="#DejaVuSans-Oblique-74" transform="translate(98.193359 0.640625)"/>
      <use xlink:href="#DejaVuSans-29" transform="translate(137.402344 0.640625)"/>
     </g>
    </g>
    <g id="line2d_18">
     <path d="M 318.582813 67.498437 
L 328.582813 67.498437 
L 338.582813 67.498437 
" style="fill: none; stroke: #ff7f0e; stroke-width: 1.5; stroke-linecap: square"/>
    </g>
    <g id="text_17">
     <!-- $x(t)$ -->
     <g transform="translate(346.582813 70.998437) scale(0.1 -0.1)">
      <defs>
       <path id="DejaVuSans-Oblique-78" d="M 3841 3500 
L 2234 1784 
L 3219 0 
L 2559 0 
L 1819 1388 
L 531 0 
L -166 0 
L 1556 1844 
L 641 3500 
L 1300 3500 
L 1972 2234 
L 3144 3500 
L 3841 3500 
z
" transform="scale(0.015625)"/>
      </defs>
      <use xlink:href="#DejaVuSans-Oblique-78" transform="translate(0 0.125)"/>
      <use xlink:href="#DejaVuSans-28" transform="translate(59.179688 0.125)"/>
      <use xlink:href="#DejaVuSans-Oblique-74" transform="translate(98.193359 0.125)"/>
      <use xlink:href="#DejaVuSans-29" transform="translate(137.402344 0.125)"/>
     </g>
    </g>
   </g>
  </g>
  <g id="text_18">
   <!-- Accumulate to Threshold model with input of -0.2 with rms=3  -->
   <g transform="translate(13.149687 16.318125) scale(0.12 -0.12)">
    <defs>
     <path id="DejaVuSans-41" d="M 2188 4044 
L 1331 1722 
L 3047 1722 
L 2188 4044 
z
M 1831 4666 
L 2547 4666 
L 4325 0 
L 3669 0 
L 3244 1197 
L 1141 1197 
L 716 0 
L 50 0 
L 1831 4666 
z
" transform="scale(0.015625)"/>
     <path id="DejaVuSans-63" d="M 3122 3366 
L 3122 2828 
Q 2878 2963 2633 3030 
Q 2388 3097 2138 3097 
Q 1578 3097 1268 2742 
Q 959 2388 959 1747 
Q 959 1106 1268 751 
Q 1578 397 2138 397 
Q 2388 397 2633 464 
Q 2878 531 3122 666 
L 3122 134 
Q 2881 22 2623 -34 
Q 2366 -91 2075 -91 
Q 1284 -91 818 406 
Q 353 903 353 1747 
Q 353 2603 823 3093 
Q 1294 3584 2113 3584 
Q 2378 3584 2631 3529 
Q 2884 3475 3122 3366 
z
" transform="scale(0.015625)"/>
     <path id="DejaVuSans-75" d="M 544 1381 
L 544 3500 
L 1119 3500 
L 1119 1403 
Q 1119 906 1312 657 
Q 1506 409 1894 409 
Q 2359 409 2629 706 
Q 2900 1003 2900 1516 
L 2900 3500 
L 3475 3500 
L 3475 0 
L 2900 0 
L 2900 538 
Q 2691 219 2414 64 
Q 2138 -91 1772 -91 
Q 1169 -91 856 284 
Q 544 659 544 1381 
z
M 1991 3584 
L 1991 3584 
z
" transform="scale(0.015625)"/>
     <path id="DejaVuSans-6d" d="M 3328 2828 
Q 3544 3216 3844 3400 
Q 4144 3584 4550 3584 
Q 5097 3584 5394 3201 
Q 5691 2819 5691 2113 
L 5691 0 
L 5113 0 
L 5113 2094 
Q 5113 2597 4934 2840 
Q 4756 3084 4391 3084 
Q 3944 3084 3684 2787 
Q 3425 2491 3425 1978 
L 3425 0 
L 2847 0 
L 2847 2094 
Q 2847 2600 2669 2842 
Q 2491 3084 2119 3084 
Q 1678 3084 1418 2786 
Q 1159 2488 1159 1978 
L 1159 0 
L 581 0 
L 581 3500 
L 1159 3500 
L 1159 2956 
Q 1356 3278 1631 3431 
Q 1906 3584 2284 3584 
Q 2666 3584 2933 3390 
Q 3200 3197 3328 2828 
z
" transform="scale(0.015625)"/>
     <path id="DejaVuSans-6c" d="M 603 4863 
L 1178 4863 
L 1178 0 
L 603 0 
L 603 4863 
z
" transform="scale(0.015625)"/>
     <path id="DejaVuSans-61" d="M 2194 1759 
Q 1497 1759 1228 1600 
Q 959 1441 959 1056 
Q 959 750 1161 570 
Q 1363 391 1709 391 
Q 2188 391 2477 730 
Q 2766 1069 2766 1631 
L 2766 1759 
L 2194 1759 
z
M 3341 1997 
L 3341 0 
L 2766 0 
L 2766 531 
Q 2569 213 2275 61 
Q 1981 -91 1556 -91 
Q 1019 -91 701 211 
Q 384 513 384 1019 
Q 384 1609 779 1909 
Q 1175 2209 1959 2209 
L 2766 2209 
L 2766 2266 
Q 2766 2663 2505 2880 
Q 2244 3097 1772 3097 
Q 1472 3097 1187 3025 
Q 903 2953 641 2809 
L 641 3341 
Q 956 3463 1253 3523 
Q 1550 3584 1831 3584 
Q 2591 3584 2966 3190 
Q 3341 2797 3341 1997 
z
" transform="scale(0.015625)"/>
     <path id="DejaVuSans-74" d="M 1172 4494 
L 1172 3500 
L 2356 3500 
L 2356 3053 
L 1172 3053 
L 1172 1153 
Q 1172 725 1289 603 
Q 1406 481 1766 481 
L 2356 481 
L 2356 0 
L 1766 0 
Q 1100 0 847 248 
Q 594 497 594 1153 
L 594 3053 
L 172 3053 
L 172 3500 
L 594 3500 
L 594 4494 
L 1172 4494 
z
" transform="scale(0.015625)"/>
     <path id="DejaVuSans-65" d="M 3597 1894 
L 3597 1613 
L 953 1613 
Q 991 1019 1311 708 
Q 1631 397 2203 397 
Q 2534 397 2845 478 
Q 3156 559 3463 722 
L 3463 178 
Q 3153 47 2828 -22 
Q 2503 -91 2169 -91 
Q 1331 -91 842 396 
Q 353 884 353 1716 
Q 353 2575 817 3079 
Q 1281 3584 2069 3584 
Q 2775 3584 3186 3129 
Q 3597 2675 3597 1894 
z
M 3022 2063 
Q 3016 2534 2758 2815 
Q 2500 3097 2075 3097 
Q 1594 3097 1305 2825 
Q 1016 2553 972 2059 
L 3022 2063 
z
" transform="scale(0.015625)"/>
     <path id="DejaVuSans-20" transform="scale(0.015625)"/>
     <path id="DejaVuSans-6f" d="M 1959 3097 
Q 1497 3097 1228 2736 
Q 959 2375 959 1747 
Q 959 1119 1226 758 
Q 1494 397 1959 397 
Q 2419 397 2687 759 
Q 2956 1122 2956 1747 
Q 2956 2369 2687 2733 
Q 2419 3097 1959 3097 
z
M 1959 3584 
Q 2709 3584 3137 3096 
Q 3566 2609 3566 1747 
Q 3566 888 3137 398 
Q 2709 -91 1959 -91 
Q 1206 -91 779 398 
Q 353 888 353 1747 
Q 353 2609 779 3096 
Q 1206 3584 1959 3584 
z
" transform="scale(0.015625)"/>
     <path id="DejaVuSans-54" d="M -19 4666 
L 3928 4666 
L 3928 4134 
L 2272 4134 
L 2272 0 
L 1638 0 
L 1638 4134 
L -19 4134 
L -19 4666 
z
" transform="scale(0.015625)"/>
     <path id="DejaVuSans-68" d="M 3513 2113 
L 3513 0 
L 2938 0 
L 2938 2094 
Q 2938 2591 2744 2837 
Q 2550 3084 2163 3084 
Q 1697 3084 1428 2787 
Q 1159 2491 1159 1978 
L 1159 0 
L 581 0 
L 581 4863 
L 1159 4863 
L 1159 2956 
Q 1366 3272 1645 3428 
Q 1925 3584 2291 3584 
Q 2894 3584 3203 3211 
Q 3513 2838 3513 2113 
z
" transform="scale(0.015625)"/>
     <path id="DejaVuSans-72" d="M 2631 2963 
Q 2534 3019 2420 3045 
Q 2306 3072 2169 3072 
Q 1681 3072 1420 2755 
Q 1159 2438 1159 1844 
L 1159 0 
L 581 0 
L 581 3500 
L 1159 3500 
L 1159 2956 
Q 1341 3275 1631 3429 
Q 1922 3584 2338 3584 
Q 2397 3584 2469 3576 
Q 2541 3569 2628 3553 
L 2631 2963 
z
" transform="scale(0.015625)"/>
     <path id="DejaVuSans-73" d="M 2834 3397 
L 2834 2853 
Q 2591 2978 2328 3040 
Q 2066 3103 1784 3103 
Q 1356 3103 1142 2972 
Q 928 2841 928 2578 
Q 928 2378 1081 2264 
Q 1234 2150 1697 2047 
L 1894 2003 
Q 2506 1872 2764 1633 
Q 3022 1394 3022 966 
Q 3022 478 2636 193 
Q 2250 -91 1575 -91 
Q 1294 -91 989 -36 
Q 684 19 347 128 
L 347 722 
Q 666 556 975 473 
Q 1284 391 1588 391 
Q 1994 391 2212 530 
Q 2431 669 2431 922 
Q 2431 1156 2273 1281 
Q 2116 1406 1581 1522 
L 1381 1569 
Q 847 1681 609 1914 
Q 372 2147 372 2553 
Q 372 3047 722 3315 
Q 1072 3584 1716 3584 
Q 2034 3584 2315 3537 
Q 2597 3491 2834 3397 
z
" transform="scale(0.015625)"/>
     <path id="DejaVuSans-64" d="M 2906 2969 
L 2906 4863 
L 3481 4863 
L 3481 0 
L 2906 0 
L 2906 525 
Q 2725 213 2448 61 
Q 2172 -91 1784 -91 
Q 1150 -91 751 415 
Q 353 922 353 1747 
Q 353 2572 751 3078 
Q 1150 3584 1784 3584 
Q 2172 3584 2448 3432 
Q 2725 3281 2906 2969 
z
M 947 1747 
Q 947 1113 1208 752 
Q 1469 391 1925 391 
Q 2381 391 2643 752 
Q 2906 1113 2906 1747 
Q 2906 2381 2643 2742 
Q 2381 3103 1925 3103 
Q 1469 3103 1208 2742 
Q 947 2381 947 1747 
z
" transform="scale(0.015625)"/>
     <path id="DejaVuSans-77" d="M 269 3500 
L 844 3500 
L 1563 769 
L 2278 3500 
L 2956 3500 
L 3675 769 
L 4391 3500 
L 4966 3500 
L 4050 0 
L 3372 0 
L 2619 2869 
L 1863 0 
L 1184 0 
L 269 3500 
z
" transform="scale(0.015625)"/>
     <path id="DejaVuSans-69" d="M 603 3500 
L 1178 3500 
L 1178 0 
L 603 0 
L 603 3500 
z
M 603 4863 
L 1178 4863 
L 1178 4134 
L 603 4134 
L 603 4863 
z
" transform="scale(0.015625)"/>
     <path id="DejaVuSans-6e" d="M 3513 2113 
L 3513 0 
L 2938 0 
L 2938 2094 
Q 2938 2591 2744 2837 
Q 2550 3084 2163 3084 
Q 1697 3084 1428 2787 
Q 1159 2491 1159 1978 
L 1159 0 
L 581 0 
L 581 3500 
L 1159 3500 
L 1159 2956 
Q 1366 3272 1645 3428 
Q 1925 3584 2291 3584 
Q 2894 3584 3203 3211 
Q 3513 2838 3513 2113 
z
" transform="scale(0.015625)"/>
     <path id="DejaVuSans-70" d="M 1159 525 
L 1159 -1331 
L 581 -1331 
L 581 3500 
L 1159 3500 
L 1159 2969 
Q 1341 3281 1617 3432 
Q 1894 3584 2278 3584 
Q 2916 3584 3314 3078 
Q 3713 2572 3713 1747 
Q 3713 922 3314 415 
Q 2916 -91 2278 -91 
Q 1894 -91 1617 61 
Q 1341 213 1159 525 
z
M 3116 1747 
Q 3116 2381 2855 2742 
Q 2594 3103 2138 3103 
Q 1681 3103 1420 2742 
Q 1159 2381 1159 1747 
Q 1159 1113 1420 752 
Q 1681 391 2138 391 
Q 2594 391 2855 752 
Q 3116 1113 3116 1747 
z
" transform="scale(0.015625)"/>
     <path id="DejaVuSans-66" d="M 2375 4863 
L 2375 4384 
L 1825 4384 
Q 1516 4384 1395 4259 
Q 1275 4134 1275 3809 
L 1275 3500 
L 2222 3500 
L 2222 3053 
L 1275 3053 
L 1275 0 
L 697 0 
L 697 3053 
L 147 3053 
L 147 3500 
L 697 3500 
L 697 3744 
Q 697 4328 969 4595 
Q 1241 4863 1831 4863 
L 2375 4863 
z
" transform="scale(0.015625)"/>
     <path id="DejaVuSans-2d" d="M 313 2009 
L 1997 2009 
L 1997 1497 
L 313 1497 
L 313 2009 
z
" transform="scale(0.015625)"/>
     <path id="DejaVuSans-3d" d="M 678 2906 
L 4684 2906 
L 4684 2381 
L 678 2381 
L 678 2906 
z
M 678 1631 
L 4684 1631 
L 4684 1100 
L 678 1100 
L 678 1631 
z
" transform="scale(0.015625)"/>
     <path id="DejaVuSans-33" d="M 2597 2516 
Q 3050 2419 3304 2112 
Q 3559 1806 3559 1356 
Q 3559 666 3084 287 
Q 2609 -91 1734 -91 
Q 1441 -91 1130 -33 
Q 819 25 488 141 
L 488 750 
Q 750 597 1062 519 
Q 1375 441 1716 441 
Q 2309 441 2620 675 
Q 2931 909 2931 1356 
Q 2931 1769 2642 2001 
Q 2353 2234 1838 2234 
L 1294 2234 
L 1294 2753 
L 1863 2753 
Q 2328 2753 2575 2939 
Q 2822 3125 2822 3475 
Q 2822 3834 2567 4026 
Q 2313 4219 1838 4219 
Q 1578 4219 1281 4162 
Q 984 4106 628 3988 
L 628 4550 
Q 988 4650 1302 4700 
Q 1616 4750 1894 4750 
Q 2613 4750 3031 4423 
Q 3450 4097 3450 3541 
Q 3450 3153 3228 2886 
Q 3006 2619 2597 2516 
z
" transform="scale(0.015625)"/>
    </defs>
    <use xlink:href="#DejaVuSans-41"/>
    <use xlink:href="#DejaVuSans-63" x="66.658203"/>
    <use xlink:href="#DejaVuSans-63" x="121.638672"/>
    <use xlink:href="#DejaVuSans-75" x="176.619141"/>
    <use xlink:href="#DejaVuSans-6d" x="239.998047"/>
    <use xlink:href="#DejaVuSans-75" x="337.410156"/>
    <use xlink:href="#DejaVuSans-6c" x="400.789062"/>
    <use xlink:href="#DejaVuSans-61" x="428.572266"/>
    <use xlink:href="#DejaVuSans-74" x="489.851562"/>
    <use xlink:href="#DejaVuSans-65" x="529.060547"/>
    <use xlink:href="#DejaVuSans-20" x="590.583984"/>
    <use xlink:href="#DejaVuSans-74" x="622.371094"/>
    <use xlink:href="#DejaVuSans-6f" x="661.580078"/>
    <use xlink:href="#DejaVuSans-20" x="722.761719"/>
    <use xlink:href="#DejaVuSans-54" x="754.548828"/>
    <use xlink:href="#DejaVuSans-68" x="815.632812"/>
    <use xlink:href="#DejaVuSans-72" x="879.011719"/>
    <use xlink:href="#DejaVuSans-65" x="917.875"/>
    <use xlink:href="#DejaVuSans-73" x="979.398438"/>
    <use xlink:href="#DejaVuSans-68" x="1031.498047"/>
    <use xlink:href="#DejaVuSans-6f" x="1094.876953"/>
    <use xlink:href="#DejaVuSans-6c" x="1156.058594"/>
    <use xlink:href="#DejaVuSans-64" x="1183.841797"/>
    <use xlink:href="#DejaVuSans-20" x="1247.318359"/>
    <use xlink:href="#DejaVuSans-6d" x="1279.105469"/>
    <use xlink:href="#DejaVuSans-6f" x="1376.517578"/>
    <use xlink:href="#DejaVuSans-64" x="1437.699219"/>
    <use xlink:href="#DejaVuSans-65" x="1501.175781"/>
    <use xlink:href="#DejaVuSans-6c" x="1562.699219"/>
    <use xlink:href="#DejaVuSans-20" x="1590.482422"/>
    <use xlink:href="#DejaVuSans-77" x="1622.269531"/>
    <use xlink:href="#DejaVuSans-69" x="1704.056641"/>
    <use xlink:href="#DejaVuSans-74" x="1731.839844"/>
    <use xlink:href="#DejaVuSans-68" x="1771.048828"/>
    <use xlink:href="#DejaVuSans-20" x="1834.427734"/>
    <use xlink:href="#DejaVuSans-69" x="1866.214844"/>
    <use xlink:href="#DejaVuSans-6e" x="1893.998047"/>
    <use xlink:href="#DejaVuSans-70" x="1957.376953"/>
    <use xlink:href="#DejaVuSans-75" x="2020.853516"/>
    <use xlink:href="#DejaVuSans-74" x="2084.232422"/>
    <use xlink:href="#DejaVuSans-20" x="2123.441406"/>
    <use xlink:href="#DejaVuSans-6f" x="2155.228516"/>
    <use xlink:href="#DejaVuSans-66" x="2216.410156"/>
    <use xlink:href="#DejaVuSans-20" x="2251.615234"/>
    <use xlink:href="#DejaVuSans-2d" x="2283.402344"/>
    <use xlink:href="#DejaVuSans-30" x="2319.486328"/>
    <use xlink:href="#DejaVuSans-2e" x="2383.109375"/>
    <use xlink:href="#DejaVuSans-32" x="2414.896484"/>
    <use xlink:href="#DejaVuSans-20" x="2478.519531"/>
    <use xlink:href="#DejaVuSans-77" x="2510.306641"/>
    <use xlink:href="#DejaVuSans-69" x="2592.09375"/>
    <use xlink:href="#DejaVuSans-74" x="2619.876953"/>
    <use xlink:href="#DejaVuSans-68" x="2659.085938"/>
    <use xlink:href="#DejaVuSans-20" x="2722.464844"/>
    <use xlink:href="#DejaVuSans-72" x="2754.251953"/>
    <use xlink:href="#DejaVuSans-6d" x="2793.615234"/>
    <use xlink:href="#DejaVuSans-73" x="2891.027344"/>
    <use xlink:href="#DejaVuSans-3d" x="2943.126953"/>
    <use xlink:href="#DejaVuSans-33" x="3026.916016"/>
    <use xlink:href="#DejaVuSans-20" x="3090.539062"/>
   </g>
  </g>
 </g>
 <defs>
  <clipPath id="p8f4b75d8ad">
   <rect x="38.482813" y="36" width="334.8" height="217.44"/>
  </clipPath>
 </defs>
</svg>
