<?xml version="1.0" encoding="utf-8" standalone="no"?>
<!DOCTYPE svg PUBLIC "-//W3C//DTD SVG 1.1//EN"
  "http://www.w3.org/Graphics/SVG/1.1/DTD/svg11.dtd">
<svg xmlns:xlink="http://www.w3.org/1999/xlink" width="384.736875pt" height="277.318125pt" viewBox="0 0 384.736875 277.318125" xmlns="http://www.w3.org/2000/svg" version="1.1">
 <metadata>
  <rdf:RDF xmlns:dc="http://purl.org/dc/elements/1.1/" xmlns:cc="http://creativecommons.org/ns#" xmlns:rdf="http://www.w3.org/1999/02/22-rdf-syntax-ns#">
   <cc:Work>
    <dc:type rdf:resource="http://purl.org/dc/dcmitype/StillImage"/>
    <dc:date>2022-11-17T21:01:36.319633</dc:date>
    <dc:format>image/svg+xml</dc:format>
    <dc:creator>
     <cc:Agent>
      <dc:title>Matplotlib v3.6.0, https://matplotlib.org/</dc:title>
     </cc:Agent>
    </dc:creator>
   </cc:Work>
  </rdf:RDF>
 </metadata>
 <defs>
  <style type="text/css">*{stroke-linejoin: round; stroke-linecap: butt}</style>
 </defs>
 <g id="figure_1">
  <g id="patch_1">
   <path d="M 0 277.318125 
L 384.736875 277.318125 
L 384.736875 0 
L 0 0 
L 0 277.318125 
z
" style="fill: none"/>
  </g>
  <g id="axes_1">
   <g id="patch_2">
    <path d="M 30.368437 253.44 
L 365.168437 253.44 
L 365.168437 36 
L 30.368437 36 
z
" style="fill: #ffffff"/>
   </g>
   <g id="matplotlib.axis_1">
    <g id="xtick_1">
     <g id="line2d_1">
      <defs>
       <path id="mee21506db5" d="M 0 0 
L 0 3.5 
" style="stroke: #000000; stroke-width: 0.8"/>
      </defs>
      <g>
       <use xlink:href="#mee21506db5" x="30.368437" y="253.44" style="stroke: #000000; stroke-width: 0.8"/>
      </g>
     </g>
     <g id="text_1">
      <!-- 0.00 -->
      <g transform="translate(19.235625 268.038437) scale(0.1 -0.1)">
       <defs>
        <path id="DejaVuSans-30" d="M 2034 4250 
Q 1547 4250 1301 3770 
Q 1056 3291 1056 2328 
Q 1056 1369 1301 889 
Q 1547 409 2034 409 
Q 2525 409 2770 889 
Q 3016 1369 3016 2328 
Q 3016 3291 2770 3770 
Q 2525 4250 2034 4250 
z
M 2034 4750 
Q 2819 4750 3233 4129 
Q 3647 3509 3647 2328 
Q 3647 1150 3233 529 
Q 2819 -91 2034 -91 
Q 1250 -91 836 529 
Q 422 1150 422 2328 
Q 422 3509 836 4129 
Q 1250 4750 2034 4750 
z
" transform="scale(0.015625)"/>
        <path id="DejaVuSans-2e" d="M 684 794 
L 1344 794 
L 1344 0 
L 684 0 
L 684 794 
z
" transform="scale(0.015625)"/>
       </defs>
       <use xlink:href="#DejaVuSans-30"/>
       <use xlink:href="#DejaVuSans-2e" x="63.623047"/>
       <use xlink:href="#DejaVuSans-30" x="95.410156"/>
       <use xlink:href="#DejaVuSans-30" x="159.033203"/>
      </g>
     </g>
    </g>
    <g id="xtick_2">
     <g id="line2d_2">
      <g>
       <use xlink:href="#mee21506db5" x="72.218437" y="253.44" style="stroke: #000000; stroke-width: 0.8"/>
      </g>
     </g>
     <g id="text_2">
      <!-- 0.25 -->
      <g transform="translate(61.085625 268.038437) scale(0.1 -0.1)">
       <defs>
        <path id="DejaVuSans-32" d="M 1228 531 
L 3431 531 
L 3431 0 
L 469 0 
L 469 531 
Q 828 903 1448 1529 
Q 2069 2156 2228 2338 
Q 2531 2678 2651 2914 
Q 2772 3150 2772 3378 
Q 2772 3750 2511 3984 
Q 2250 4219 1831 4219 
Q 1534 4219 1204 4116 
Q 875 4013 500 3803 
L 500 4441 
Q 881 4594 1212 4672 
Q 1544 4750 1819 4750 
Q 2544 4750 2975 4387 
Q 3406 4025 3406 3419 
Q 3406 3131 3298 2873 
Q 3191 2616 2906 2266 
Q 2828 2175 2409 1742 
Q 1991 1309 1228 531 
z
" transform="scale(0.015625)"/>
        <path id="DejaVuSans-35" d="M 691 4666 
L 3169 4666 
L 3169 4134 
L 1269 4134 
L 1269 2991 
Q 1406 3038 1543 3061 
Q 1681 3084 1819 3084 
Q 2600 3084 3056 2656 
Q 3513 2228 3513 1497 
Q 3513 744 3044 326 
Q 2575 -91 1722 -91 
Q 1428 -91 1123 -41 
Q 819 9 494 109 
L 494 744 
Q 775 591 1075 516 
Q 1375 441 1709 441 
Q 2250 441 2565 725 
Q 2881 1009 2881 1497 
Q 2881 1984 2565 2268 
Q 2250 2553 1709 2553 
Q 1456 2553 1204 2497 
Q 953 2441 691 2322 
L 691 4666 
z
" transform="scale(0.015625)"/>
       </defs>
       <use xlink:href="#DejaVuSans-30"/>
       <use xlink:href="#DejaVuSans-2e" x="63.623047"/>
       <use xlink:href="#DejaVuSans-32" x="95.410156"/>
       <use xlink:href="#DejaVuSans-35" x="159.033203"/>
      </g>
     </g>
    </g>
    <g id="xtick_3">
     <g id="line2d_3">
      <g>
       <use xlink:href="#mee21506db5" x="114.068437" y="253.44" style="stroke: #000000; stroke-width: 0.8"/>
      </g>
     </g>
     <g id="text_3">
      <!-- 0.50 -->
      <g transform="translate(102.935625 268.038437) scale(0.1 -0.1)">
       <use xlink:href="#DejaVuSans-30"/>
       <use xlink:href="#DejaVuSans-2e" x="63.623047"/>
       <use xlink:href="#DejaVuSans-35" x="95.410156"/>
       <use xlink:href="#DejaVuSans-30" x="159.033203"/>
      </g>
     </g>
    </g>
    <g id="xtick_4">
     <g id="line2d_4">
      <g>
       <use xlink:href="#mee21506db5" x="155.918437" y="253.44" style="stroke: #000000; stroke-width: 0.8"/>
      </g>
     </g>
     <g id="text_4">
      <!-- 0.75 -->
      <g transform="translate(144.785625 268.038437) scale(0.1 -0.1)">
       <defs>
        <path id="DejaVuSans-37" d="M 525 4666 
L 3525 4666 
L 3525 4397 
L 1831 0 
L 1172 0 
L 2766 4134 
L 525 4134 
L 525 4666 
z
" transform="scale(0.015625)"/>
       </defs>
       <use xlink:href="#DejaVuSans-30"/>
       <use xlink:href="#DejaVuSans-2e" x="63.623047"/>
       <use xlink:href="#DejaVuSans-37" x="95.410156"/>
       <use xlink:href="#DejaVuSans-35" x="159.033203"/>
      </g>
     </g>
    </g>
    <g id="xtick_5">
     <g id="line2d_5">
      <g>
       <use xlink:href="#mee21506db5" x="197.768437" y="253.44" style="stroke: #000000; stroke-width: 0.8"/>
      </g>
     </g>
     <g id="text_5">
      <!-- 1.00 -->
      <g transform="translate(186.635625 268.038437) scale(0.1 -0.1)">
       <defs>
        <path id="DejaVuSans-31" d="M 794 531 
L 1825 531 
L 1825 4091 
L 703 3866 
L 703 4441 
L 1819 4666 
L 2450 4666 
L 2450 531 
L 3481 531 
L 3481 0 
L 794 0 
L 794 531 
z
" transform="scale(0.015625)"/>
       </defs>
       <use xlink:href="#DejaVuSans-31"/>
       <use xlink:href="#DejaVuSans-2e" x="63.623047"/>
       <use xlink:href="#DejaVuSans-30" x="95.410156"/>
       <use xlink:href="#DejaVuSans-30" x="159.033203"/>
      </g>
     </g>
    </g>
    <g id="xtick_6">
     <g id="line2d_6">
      <g>
       <use xlink:href="#mee21506db5" x="239.618437" y="253.44" style="stroke: #000000; stroke-width: 0.8"/>
      </g>
     </g>
     <g id="text_6">
      <!-- 1.25 -->
      <g transform="translate(228.485625 268.038437) scale(0.1 -0.1)">
       <use xlink:href="#DejaVuSans-31"/>
       <use xlink:href="#DejaVuSans-2e" x="63.623047"/>
       <use xlink:href="#DejaVuSans-32" x="95.410156"/>
       <use xlink:href="#DejaVuSans-35" x="159.033203"/>
      </g>
     </g>
    </g>
    <g id="xtick_7">
     <g id="line2d_7">
      <g>
       <use xlink:href="#mee21506db5" x="281.468437" y="253.44" style="stroke: #000000; stroke-width: 0.8"/>
      </g>
     </g>
     <g id="text_7">
      <!-- 1.50 -->
      <g transform="translate(270.335625 268.038437) scale(0.1 -0.1)">
       <use xlink:href="#DejaVuSans-31"/>
       <use xlink:href="#DejaVuSans-2e" x="63.623047"/>
       <use xlink:href="#DejaVuSans-35" x="95.410156"/>
       <use xlink:href="#DejaVuSans-30" x="159.033203"/>
      </g>
     </g>
    </g>
    <g id="xtick_8">
     <g id="line2d_8">
      <g>
       <use xlink:href="#mee21506db5" x="323.318437" y="253.44" style="stroke: #000000; stroke-width: 0.8"/>
      </g>
     </g>
     <g id="text_8">
      <!-- 1.75 -->
      <g transform="translate(312.185625 268.038437) scale(0.1 -0.1)">
       <use xlink:href="#DejaVuSans-31"/>
       <use xlink:href="#DejaVuSans-2e" x="63.623047"/>
       <use xlink:href="#DejaVuSans-37" x="95.410156"/>
       <use xlink:href="#DejaVuSans-35" x="159.033203"/>
      </g>
     </g>
    </g>
    <g id="xtick_9">
     <g id="line2d_9">
      <g>
       <use xlink:href="#mee21506db5" x="365.168437" y="253.44" style="stroke: #000000; stroke-width: 0.8"/>
      </g>
     </g>
     <g id="text_9">
      <!-- 2.00 -->
      <g transform="translate(354.035625 268.038437) scale(0.1 -0.1)">
       <use xlink:href="#DejaVuSans-32"/>
       <use xlink:href="#DejaVuSans-2e" x="63.623047"/>
       <use xlink:href="#DejaVuSans-30" x="95.410156"/>
       <use xlink:href="#DejaVuSans-30" x="159.033203"/>
      </g>
     </g>
    </g>
   </g>
   <g id="matplotlib.axis_2">
    <g id="ytick_1">
     <g id="line2d_10">
      <defs>
       <path id="mc6805cdf5b" d="M 0 0 
L -3.5 0 
" style="stroke: #000000; stroke-width: 0.8"/>
      </defs>
      <g>
       <use xlink:href="#mc6805cdf5b" x="30.368437" y="234.401938" style="stroke: #000000; stroke-width: 0.8"/>
      </g>
     </g>
     <g id="text_10">
      <!-- 0.0 -->
      <g transform="translate(7.465312 238.201157) scale(0.1 -0.1)">
       <use xlink:href="#DejaVuSans-30"/>
       <use xlink:href="#DejaVuSans-2e" x="63.623047"/>
       <use xlink:href="#DejaVuSans-30" x="95.410156"/>
      </g>
     </g>
    </g>
    <g id="ytick_2">
     <g id="line2d_11">
      <g>
       <use xlink:href="#mc6805cdf5b" x="30.368437" y="198.511828" style="stroke: #000000; stroke-width: 0.8"/>
      </g>
     </g>
     <g id="text_11">
      <!-- 0.2 -->
      <g transform="translate(7.465312 202.311047) scale(0.1 -0.1)">
       <use xlink:href="#DejaVuSans-30"/>
       <use xlink:href="#DejaVuSans-2e" x="63.623047"/>
       <use xlink:href="#DejaVuSans-32" x="95.410156"/>
      </g>
     </g>
    </g>
    <g id="ytick_3">
     <g id="line2d_12">
      <g>
       <use xlink:href="#mc6805cdf5b" x="30.368437" y="162.621719" style="stroke: #000000; stroke-width: 0.8"/>
      </g>
     </g>
     <g id="text_12">
      <!-- 0.4 -->
      <g transform="translate(7.465312 166.420937) scale(0.1 -0.1)">
       <defs>
        <path id="DejaVuSans-34" d="M 2419 4116 
L 825 1625 
L 2419 1625 
L 2419 4116 
z
M 2253 4666 
L 3047 4666 
L 3047 1625 
L 3713 1625 
L 3713 1100 
L 3047 1100 
L 3047 0 
L 2419 0 
L 2419 1100 
L 313 1100 
L 313 1709 
L 2253 4666 
z
" transform="scale(0.015625)"/>
       </defs>
       <use xlink:href="#DejaVuSans-30"/>
       <use xlink:href="#DejaVuSans-2e" x="63.623047"/>
       <use xlink:href="#DejaVuSans-34" x="95.410156"/>
      </g>
     </g>
    </g>
    <g id="ytick_4">
     <g id="line2d_13">
      <g>
       <use xlink:href="#mc6805cdf5b" x="30.368437" y="126.731609" style="stroke: #000000; stroke-width: 0.8"/>
      </g>
     </g>
     <g id="text_13">
      <!-- 0.6 -->
      <g transform="translate(7.465312 130.530828) scale(0.1 -0.1)">
       <defs>
        <path id="DejaVuSans-36" d="M 2113 2584 
Q 1688 2584 1439 2293 
Q 1191 2003 1191 1497 
Q 1191 994 1439 701 
Q 1688 409 2113 409 
Q 2538 409 2786 701 
Q 3034 994 3034 1497 
Q 3034 2003 2786 2293 
Q 2538 2584 2113 2584 
z
M 3366 4563 
L 3366 3988 
Q 3128 4100 2886 4159 
Q 2644 4219 2406 4219 
Q 1781 4219 1451 3797 
Q 1122 3375 1075 2522 
Q 1259 2794 1537 2939 
Q 1816 3084 2150 3084 
Q 2853 3084 3261 2657 
Q 3669 2231 3669 1497 
Q 3669 778 3244 343 
Q 2819 -91 2113 -91 
Q 1303 -91 875 529 
Q 447 1150 447 2328 
Q 447 3434 972 4092 
Q 1497 4750 2381 4750 
Q 2619 4750 2861 4703 
Q 3103 4656 3366 4563 
z
" transform="scale(0.015625)"/>
       </defs>
       <use xlink:href="#DejaVuSans-30"/>
       <use xlink:href="#DejaVuSans-2e" x="63.623047"/>
       <use xlink:href="#DejaVuSans-36" x="95.410156"/>
      </g>
     </g>
    </g>
    <g id="ytick_5">
     <g id="line2d_14">
      <g>
       <use xlink:href="#mc6805cdf5b" x="30.368437" y="90.8415" style="stroke: #000000; stroke-width: 0.8"/>
      </g>
     </g>
     <g id="text_14">
      <!-- 0.8 -->
      <g transform="translate(7.465312 94.640718) scale(0.1 -0.1)">
       <defs>
        <path id="DejaVuSans-38" d="M 2034 2216 
Q 1584 2216 1326 1975 
Q 1069 1734 1069 1313 
Q 1069 891 1326 650 
Q 1584 409 2034 409 
Q 2484 409 2743 651 
Q 3003 894 3003 1313 
Q 3003 1734 2745 1975 
Q 2488 2216 2034 2216 
z
M 1403 2484 
Q 997 2584 770 2862 
Q 544 3141 544 3541 
Q 544 4100 942 4425 
Q 1341 4750 2034 4750 
Q 2731 4750 3128 4425 
Q 3525 4100 3525 3541 
Q 3525 3141 3298 2862 
Q 3072 2584 2669 2484 
Q 3125 2378 3379 2068 
Q 3634 1759 3634 1313 
Q 3634 634 3220 271 
Q 2806 -91 2034 -91 
Q 1263 -91 848 271 
Q 434 634 434 1313 
Q 434 1759 690 2068 
Q 947 2378 1403 2484 
z
M 1172 3481 
Q 1172 3119 1398 2916 
Q 1625 2713 2034 2713 
Q 2441 2713 2670 2916 
Q 2900 3119 2900 3481 
Q 2900 3844 2670 4047 
Q 2441 4250 2034 4250 
Q 1625 4250 1398 4047 
Q 1172 3844 1172 3481 
z
" transform="scale(0.015625)"/>
       </defs>
       <use xlink:href="#DejaVuSans-30"/>
       <use xlink:href="#DejaVuSans-2e" x="63.623047"/>
       <use xlink:href="#DejaVuSans-38" x="95.410156"/>
      </g>
     </g>
    </g>
    <g id="ytick_6">
     <g id="line2d_15">
      <g>
       <use xlink:href="#mc6805cdf5b" x="30.368437" y="54.95139" style="stroke: #000000; stroke-width: 0.8"/>
      </g>
     </g>
     <g id="text_15">
      <!-- 1.0 -->
      <g transform="translate(7.465312 58.750609) scale(0.1 -0.1)">
       <use xlink:href="#DejaVuSans-31"/>
       <use xlink:href="#DejaVuSans-2e" x="63.623047"/>
       <use xlink:href="#DejaVuSans-30" x="95.410156"/>
      </g>
     </g>
    </g>
   </g>
   <g id="line2d_16">
    <path d="M 30.535837 234.401938 
L 30.703237 243.556364 
L 31.038037 233.14533 
L 31.205437 233.593117 
L 31.372837 240.436371 
L 31.540237 231.176358 
L 31.707637 231.464871 
L 31.875037 236.620825 
L 32.042437 229.768765 
L 32.209837 233.945876 
L 32.377237 234.262522 
L 32.544637 227.395005 
L 32.712037 234.653558 
L 33.046837 224.780406 
L 33.214237 225.926495 
L 33.381637 231.631575 
L 33.549037 229.165994 
L 33.716437 230.427752 
L 33.883837 229.99923 
L 34.051237 225.805426 
L 34.218637 226.517897 
L 34.386037 222.679562 
L 34.553437 230.636917 
L 34.720837 225.314578 
L 34.888237 223.654571 
L 35.055637 227.200654 
L 35.223037 223.891889 
L 35.390437 224.974303 
L 35.557837 229.570605 
L 36.060037 217.643623 
L 36.227437 224.158628 
L 36.394837 224.243919 
L 36.562237 224.876822 
L 36.729637 223.325306 
L 36.897037 228.183769 
L 37.064437 216.770111 
L 37.399237 222.23203 
L 37.734037 220.592641 
L 37.901437 224.572937 
L 38.236237 218.722278 
L 38.403637 215.185546 
L 38.571037 222.936896 
L 38.738437 216.461239 
L 38.905837 221.43031 
L 39.073237 215.05943 
L 39.240637 216.713292 
L 39.408037 221.985057 
L 39.575437 216.421828 
L 39.742837 216.494654 
L 39.910237 216.033312 
L 40.245037 218.905733 
L 40.412437 211.988599 
L 40.579837 211.295508 
L 40.747237 218.860477 
L 40.914637 220.127681 
L 41.249437 211.790957 
L 41.416837 216.227188 
L 41.584237 216.343933 
L 41.751637 209.652014 
L 41.919037 215.532429 
L 42.086437 215.292411 
L 42.253837 214.194887 
L 42.421237 205.971081 
L 42.588637 208.198124 
L 42.756037 208.693232 
L 42.923437 214.168038 
L 43.258237 201.436956 
L 43.425637 204.417916 
L 43.593037 204.913402 
L 43.760437 209.150248 
L 44.095237 206.618465 
L 44.262637 197.123217 
L 44.430037 208.148457 
L 44.597437 208.253884 
L 44.764837 210.459779 
L 44.932237 205.771696 
L 45.099637 206.285253 
L 45.267037 203.893463 
L 45.434437 204.171971 
L 45.601837 208.375852 
L 45.769237 207.63661 
L 45.936637 203.087153 
L 46.104037 195.425933 
L 46.271437 196.82784 
L 46.606237 205.848699 
L 46.773637 204.77201 
L 46.941037 197.958441 
L 47.108437 201.222879 
L 47.443237 197.304999 
L 47.610637 209.433699 
L 47.945437 198.636114 
L 48.112837 196.881157 
L 48.280237 202.316047 
L 48.615037 189.668046 
L 48.782437 196.161224 
L 49.284637 200.080409 
L 49.619437 191.37767 
L 49.786837 193.071638 
L 50.121637 201.619063 
L 50.456437 189.973001 
L 50.623837 189.595291 
L 50.958637 197.484606 
L 51.126037 197.869696 
L 51.293437 195.430227 
L 51.460837 188.061166 
L 51.628237 187.74166 
L 51.963037 190.998231 
L 52.130437 191.953265 
L 52.297837 195.334255 
L 52.465237 195.818659 
L 52.800037 187.064718 
L 52.967437 179.231675 
L 53.134837 183.448445 
L 53.302237 195.026043 
L 53.469637 195.765083 
L 53.804437 185.586587 
L 53.971837 189.177306 
L 54.139237 187.857867 
L 54.306637 182.324831 
L 54.474037 183.11111 
L 54.641437 190.446879 
L 54.808837 189.835121 
L 54.976237 185.039504 
L 55.143637 185.989972 
L 55.311037 188.075982 
L 55.645837 177.757406 
L 55.813237 189.746934 
L 55.980637 190.50928 
L 56.148037 183.308728 
L 56.315437 184.591096 
L 56.482837 184.424333 
L 56.650237 184.48792 
L 56.817637 178.849831 
L 56.985037 179.828083 
L 57.152437 179.931522 
L 57.319837 187.10111 
L 57.487237 187.749795 
L 57.654637 186.43318 
L 57.822037 186.550803 
L 57.989437 175.147427 
L 58.156837 174.745197 
L 58.659037 183.064631 
L 58.826437 191.47517 
L 59.328637 173.072877 
L 59.496037 175.313337 
L 59.663437 175.814224 
L 59.998237 183.744063 
L 60.165637 176.942557 
L 60.333037 177.433998 
L 60.500437 174.518824 
L 60.667837 176.126283 
L 60.835237 176.647047 
L 61.002637 171.343757 
L 61.170037 170.746108 
L 61.337437 169.49266 
L 61.504837 171.773891 
L 61.672237 176.649663 
L 61.839637 176.492953 
L 62.174437 167.709502 
L 62.341837 168.676462 
L 62.509237 167.350981 
L 62.676637 172.359751 
L 63.011437 175.18588 
L 63.178837 174.793615 
L 63.346237 160.810114 
L 63.513637 170.923996 
L 63.681037 169.027638 
L 63.848437 170.154831 
L 64.015837 164.444731 
L 64.183237 168.497751 
L 64.350637 160.996718 
L 64.518037 165.821456 
L 64.685437 175.716597 
L 65.020237 162.948348 
L 65.187637 158.18865 
L 65.355037 166.41252 
L 65.522437 169.121054 
L 65.689837 161.943573 
L 65.857237 161.673539 
L 66.024637 162.091436 
L 66.192037 166.081467 
L 66.359437 158.302515 
L 66.526837 167.7767 
L 66.861637 159.620237 
L 67.029037 158.4204 
L 67.196437 151.977148 
L 67.363837 159.612763 
L 67.531237 159.785608 
L 67.698637 161.033032 
L 67.866037 156.265336 
L 68.033437 155.492073 
L 68.200837 164.403895 
L 68.368237 163.58168 
L 68.535637 158.902223 
L 68.703037 158.593281 
L 68.870437 152.9844 
L 69.037837 158.130008 
L 69.205237 154.570833 
L 69.372637 156.209808 
L 69.540037 151.739149 
L 69.707437 150.865807 
L 69.874837 146.596879 
L 70.209637 156.235264 
L 70.711837 144.89614 
L 71.046637 153.816964 
L 71.548837 144.252732 
L 71.716237 149.448236 
L 71.883637 147.691405 
L 72.051037 150.445082 
L 72.385837 141.249625 
L 72.553237 138.377263 
L 72.720637 148.837927 
L 72.888037 149.6893 
L 73.222837 143.273546 
L 73.390237 145.037976 
L 73.557637 145.439429 
L 73.725037 143.37524 
L 73.892437 138.228562 
L 74.059837 138.834204 
L 74.227237 137.106445 
L 74.394637 143.569747 
L 74.562037 132.860782 
L 74.896837 143.132641 
L 75.064237 137.307493 
L 75.399037 142.300379 
L 75.566437 138.136288 
L 75.733837 137.058016 
L 75.901237 141.426197 
L 76.068637 136.754881 
L 76.236037 141.799102 
L 76.403437 133.228036 
L 76.570837 133.850526 
L 76.738237 136.360455 
L 76.905637 134.951014 
L 77.073037 131.625912 
L 77.240437 135.767121 
L 77.407837 131.852514 
L 77.575237 132.612903 
L 77.742637 131.195435 
L 77.910037 131.141679 
L 78.077437 133.303378 
L 78.244837 133.067009 
L 78.579637 127.7647 
L 78.747037 130.280983 
L 78.914437 127.44627 
L 79.081837 127.722119 
L 79.249237 127.462263 
L 79.584037 132.672352 
L 79.751437 129.193015 
L 79.918837 130.864582 
L 80.086237 134.803366 
L 80.421037 124.497594 
L 80.588437 129.78288 
L 80.923237 124.474183 
L 81.258037 129.690679 
L 81.425437 116.519867 
L 81.592837 126.274214 
L 81.760237 121.847073 
L 81.927637 124.216123 
L 82.095037 123.491882 
L 82.262437 123.835676 
L 82.429837 117.148548 
L 82.597237 126.349567 
L 82.764637 125.328779 
L 82.932037 120.59138 
L 83.099437 122.109315 
L 83.266837 118.814028 
L 83.434237 123.588299 
L 83.769037 116.805537 
L 83.936437 116.809091 
L 84.271237 126.581451 
L 84.606037 113.365945 
L 84.773437 122.46808 
L 85.275637 111.785662 
L 85.443037 114.515768 
L 85.610437 125.075415 
L 85.777837 121.94662 
L 85.945237 114.109757 
L 86.112637 120.157112 
L 86.280037 116.484864 
L 86.447437 109.790102 
L 86.614837 118.18333 
L 86.949637 110.935709 
L 87.284437 115.593283 
L 87.451837 115.614333 
L 87.619237 119.889108 
L 87.954037 104.040283 
L 88.288837 119.090245 
L 88.456237 105.482007 
L 88.791037 112.332554 
L 88.958437 102.43614 
L 89.293237 114.799551 
L 89.460637 104.43128 
L 89.795437 113.241577 
L 89.962837 101.946889 
L 90.130237 110.628433 
L 90.297637 110.60436 
L 90.465037 102.43011 
L 90.632437 104.467563 
L 90.799837 112.200437 
L 91.134637 97.603673 
L 91.302037 109.732523 
L 91.636837 105.211759 
L 91.804237 105.266239 
L 91.971637 99.09142 
L 92.139037 108.482329 
L 92.306437 107.598001 
L 92.473837 102.980444 
L 92.641237 108.253936 
L 92.808637 105.693716 
L 92.976037 101.016933 
L 93.310837 103.350021 
L 93.478237 96.244306 
L 93.645637 100.932741 
L 93.813037 99.839694 
L 93.980437 101.564643 
L 94.147837 100.501722 
L 94.315237 104.609738 
L 94.482637 104.449587 
L 94.650037 100.706073 
L 94.817437 103.837426 
L 94.984837 98.566415 
L 95.152237 99.813763 
L 95.319637 93.667601 
L 95.487037 97.142194 
L 95.654437 96.796756 
L 95.821837 99.126951 
L 95.989237 91.708858 
L 96.156637 99.244955 
L 96.324037 95.642611 
L 96.491437 99.1125 
L 96.658837 98.200684 
L 96.826237 90.915207 
L 97.161037 97.228958 
L 97.328437 90.998618 
L 97.495837 97.095864 
L 97.663237 95.279808 
L 97.830637 96.576604 
L 97.998037 99.587128 
L 98.165437 90.202701 
L 98.332837 91.538909 
L 98.500237 98.17069 
L 98.667637 90.135554 
L 98.835037 92.652415 
L 99.002437 99.484784 
L 99.169837 91.260926 
L 99.504637 93.839094 
L 99.672037 89.562367 
L 99.839437 90.763673 
L 100.174237 94.357963 
L 100.341637 89.013814 
L 100.509037 94.086327 
L 100.676437 85.346789 
L 100.843837 87.38148 
L 101.011237 91.330796 
L 101.346037 83.695937 
L 101.680837 90.045952 
L 101.848237 86.597056 
L 102.015637 85.587078 
L 102.183037 80.624744 
L 102.350437 85.988698 
L 102.517837 85.201924 
L 102.685237 79.677832 
L 102.852637 85.534109 
L 103.020037 83.081655 
L 103.187437 84.192109 
L 103.354837 78.924633 
L 103.522237 83.763128 
L 103.689637 79.32783 
L 103.857037 86.072476 
L 104.024437 79.857557 
L 104.191837 82.635394 
L 104.359237 88.065117 
L 104.526637 80.817766 
L 104.861437 84.032019 
L 105.028837 78.79855 
L 105.196237 80.355587 
L 105.363637 84.880011 
L 105.531037 75.798835 
L 105.698437 80.843261 
L 105.865837 78.855968 
L 106.033237 83.705492 
L 106.200637 76.45086 
L 106.368037 77.777259 
L 106.535437 76.593509 
L 106.702837 74.502979 
L 107.037637 80.507049 
L 107.205037 75.02785 
L 107.372437 77.085929 
L 107.539837 74.438209 
L 107.874637 76.550563 
L 108.042037 76.597478 
L 108.209437 76.950249 
L 108.376837 79.018551 
L 108.544237 75.401951 
L 108.711637 74.616646 
L 108.879037 76.960996 
L 109.213837 74.994518 
L 109.381237 80.033087 
L 109.548637 77.674174 
L 109.716037 67.291925 
L 109.883437 78.853049 
L 110.050838 74.922961 
L 110.218237 76.796774 
L 110.385637 80.279929 
L 110.553037 69.841181 
L 110.720437 71.408346 
L 110.887837 74.764862 
L 111.055237 75.311856 
L 111.222637 72.349078 
L 111.557437 71.528804 
L 111.724837 70.513546 
L 111.892237 68.656132 
L 112.059637 77.278956 
L 112.227037 75.30327 
L 112.394437 70.082232 
L 112.561837 78.291049 
L 112.729237 75.461947 
L 112.896637 65.590765 
L 113.064037 73.611764 
L 113.231437 73.66985 
L 113.398837 69.156702 
L 113.566237 68.253764 
L 113.733637 72.892989 
L 113.901037 67.250593 
L 114.068437 71.577074 
L 114.235837 68.491688 
L 114.403237 70.387749 
L 114.570637 76.232854 
L 114.738037 70.778403 
L 114.905437 70.855031 
L 115.072837 72.760506 
L 115.240237 67.090201 
L 115.407637 75.46417 
L 115.575037 64.955757 
L 115.742437 67.708135 
L 115.909837 77.45538 
L 116.244637 67.343161 
L 116.412037 74.433911 
L 116.579437 72.078901 
L 116.746837 65.098985 
L 116.914237 72.468133 
L 117.081637 68.56917 
L 117.249037 67.528458 
L 117.416437 64.587067 
L 117.751237 72.253322 
L 118.086037 64.014682 
L 118.253437 72.592581 
L 118.420837 67.092679 
L 118.588237 66.274171 
L 118.755637 74.535721 
L 118.923037 70.183137 
L 119.090437 61.124225 
L 119.257837 70.401635 
L 119.425237 69.48357 
L 119.592637 65.642596 
L 119.760037 73.486689 
L 120.094837 67.655121 
L 120.262237 68.563132 
L 120.429637 68.437302 
L 120.597037 67.651429 
L 120.764437 63.852732 
L 120.931838 65.098734 
L 121.099238 70.042463 
L 121.266637 66.838919 
L 121.434037 66.626038 
L 121.601437 66.620716 
L 121.768837 68.082909 
L 121.936237 64.138909 
L 122.271037 68.949329 
L 122.438437 64.399825 
L 122.605837 65.502717 
L 122.773237 68.674784 
L 123.108037 62.738094 
L 123.442837 65.508672 
L 123.610237 63.57435 
L 123.777637 67.333139 
L 124.447237 64.296624 
L 124.614638 72.837027 
L 124.782038 61.392208 
L 124.949438 60.505793 
L 125.116838 69.833362 
L 125.284238 68.591335 
L 125.451638 64.570971 
L 125.619038 68.330075 
L 125.786438 59.30499 
L 126.121237 72.761278 
L 126.288637 63.941332 
L 126.456037 66.745351 
L 126.623437 59.518482 
L 126.790837 67.511452 
L 126.958237 69.241451 
L 127.125637 57.594579 
L 127.460437 68.77322 
L 127.627837 62.572403 
L 127.795237 65.398973 
L 127.962637 59.289306 
L 128.130037 66.424479 
L 128.297437 65.022797 
L 128.464837 61.118837 
L 128.632237 70.424902 
L 128.799637 59.378349 
L 128.967037 60.05296 
L 129.134437 70.940312 
L 129.301837 63.976252 
L 129.469237 62.245733 
L 129.636637 67.573066 
L 129.971437 60.713248 
L 130.138837 65.745376 
L 130.306237 63.790017 
L 130.473637 58.555051 
L 130.641037 62.171057 
L 130.808437 61.050194 
L 130.975837 68.085251 
L 131.310637 55.650824 
L 131.478037 66.019042 
L 131.645437 63.452625 
L 131.812837 53.763846 
L 131.980237 69.946628 
L 132.147637 61.971352 
L 132.315037 59.467185 
L 132.482437 65.585837 
L 132.649837 64.824654 
L 132.817237 57.299517 
L 132.984637 66.54341 
L 133.152037 58.810327 
L 133.319437 60.262016 
L 133.486837 63.133028 
L 133.821637 58.555405 
L 134.156437 66.011591 
L 134.323837 66.32303 
L 134.491237 59.807145 
L 134.826037 68.53001 
L 134.993437 60.798635 
L 135.328237 61.061898 
L 135.663037 61.443651 
L 135.830437 61.871961 
L 135.997837 60.366244 
L 136.332637 65.786965 
L 136.500037 57.982317 
L 136.667437 58.17914 
L 136.834837 66.716196 
L 137.002237 60.531921 
L 137.169637 60.525276 
L 137.337037 64.43971 
L 137.504437 57.602108 
L 137.671837 64.992847 
L 137.839237 63.140085 
L 138.006637 52.372627 
L 138.341437 68.008747 
L 138.508837 58.868957 
L 138.676237 59.3742 
L 138.843637 64.43049 
L 139.011037 61.71285 
L 139.178437 63.835197 
L 139.345837 59.45994 
L 139.513237 61.60859 
L 139.680637 57.320904 
L 139.848037 60.773307 
L 140.015437 67.050646 
L 140.182837 54.513975 
L 140.517637 64.392781 
L 140.685037 57.215435 
L 141.019837 62.730035 
L 141.187237 62.805825 
L 141.354637 59.83129 
L 141.522037 60.138513 
L 141.689437 64.273093 
L 141.856837 58.028774 
L 142.024237 61.230194 
L 142.359037 57.957932 
L 142.526437 63.639544 
L 142.693838 59.719765 
L 142.861237 61.191976 
L 143.028638 54.005384 
L 143.363437 69.633112 
L 143.530837 56.012726 
L 143.698237 56.195145 
L 143.865637 67.491742 
L 144.033037 59.355955 
L 144.367837 61.889325 
L 144.535237 57.651609 
L 144.702637 60.125288 
L 144.870037 55.905421 
L 145.037437 62.606847 
L 145.204837 60.203239 
L 145.372237 62.28073 
L 145.539637 59.352286 
L 145.707037 60.358058 
L 145.874437 57.912541 
L 146.041837 67.656523 
L 146.209238 56.057311 
L 146.376637 55.738916 
L 146.544038 69.282082 
L 146.711437 57.562843 
L 146.878838 56.470677 
L 147.046237 66.429892 
L 147.213638 55.098379 
L 147.381037 58.312912 
L 147.548438 66.540507 
L 147.715837 55.95285 
L 147.883238 59.54665 
L 148.050637 60.227569 
L 148.218037 65.56837 
L 148.552837 59.299837 
L 148.720237 59.901307 
L 148.887637 64.372671 
L 149.055037 58.032008 
L 149.222437 61.427185 
L 149.389837 58.659254 
L 149.557237 57.864239 
L 149.724637 58.865881 
L 150.059437 57.614612 
L 150.226837 60.756151 
L 150.394237 58.67223 
L 150.729037 62.600161 
L 150.896437 61.399155 
L 151.231237 56.371288 
L 151.398637 57.328528 
L 151.566037 64.058785 
L 151.900837 53.366774 
L 152.068237 65.731565 
L 152.235637 63.619723 
L 152.403037 54.783589 
L 152.570437 56.378588 
L 152.737837 63.342526 
L 152.905237 56.472184 
L 153.240037 59.378246 
L 153.407437 64.349283 
L 153.574837 55.962481 
L 153.742237 61.953972 
L 153.909637 58.298255 
L 154.244437 59.423656 
L 154.411837 59.030101 
L 154.579237 63.520413 
L 154.746637 53.774095 
L 154.914037 56.905686 
L 155.081437 70.601269 
L 155.248837 52.746918 
L 155.583637 62.410665 
L 155.751037 55.668424 
L 155.918437 59.378713 
L 156.085837 56.333533 
L 156.253237 59.997298 
L 156.420637 58.722641 
L 156.588037 61.334404 
L 156.755437 60.219285 
L 156.922837 58.137166 
L 157.090237 65.109553 
L 157.257637 61.345694 
L 157.425037 53.670272 
L 157.592437 58.876445 
L 157.759837 68.130588 
L 158.094637 51.143386 
L 158.262037 65.058024 
L 158.429437 66.098025 
L 158.596837 58.979574 
L 158.931637 55.737857 
L 159.099037 57.915403 
L 159.266437 64.062881 
L 159.433837 55.708243 
L 159.601237 57.590202 
L 159.768637 61.311997 
L 159.936037 55.62555 
L 160.103437 59.423353 
L 160.270837 57.482782 
L 160.438237 59.765562 
L 160.605637 60.342836 
L 160.773037 51.275082 
L 161.107837 65.438813 
L 161.275237 51.997679 
L 161.610037 63.479896 
L 161.777437 63.811991 
L 161.944837 57.101734 
L 162.112237 56.490196 
L 162.279637 55.221727 
L 162.447037 63.270773 
L 162.781837 53.556698 
L 162.949237 57.158432 
L 163.116637 57.547252 
L 163.284037 62.076855 
L 163.451437 59.607107 
L 163.618837 52.821471 
L 163.786237 62.781838 
L 163.953637 60.002762 
L 164.121037 53.873759 
L 164.288437 64.119517 
L 164.623237 55.094238 
L 164.790637 61.801295 
L 164.958037 53.811569 
L 165.125437 63.787805 
L 165.460237 52.314622 
L 165.627637 61.372269 
L 165.795037 63.925335 
L 166.129837 58.796549 
L 166.297237 54.166067 
L 166.632037 60.809499 
L 166.799437 53.425056 
L 167.134237 61.535744 
L 167.469037 57.523033 
L 167.636437 59.747358 
L 167.803837 55.623169 
L 167.971237 58.238397 
L 168.138637 58.293288 
L 168.306037 62.117888 
L 168.473437 52.885216 
L 168.640837 62.225309 
L 168.808237 62.275879 
L 168.975637 56.622957 
L 169.310437 62.304685 
L 169.477837 56.710134 
L 169.645237 57.31553 
L 169.812637 51.958009 
L 169.980037 65.623264 
L 170.314837 52.235942 
L 170.482237 62.831338 
L 170.649637 64.142241 
L 170.817037 49.836992 
L 170.984437 59.724534 
L 171.151837 59.720801 
L 171.319237 62.719115 
L 171.486637 54.178872 
L 171.988837 64.156114 
L 172.156237 52.360657 
L 172.323637 62.373027 
L 172.491037 56.114125 
L 172.658437 55.470897 
L 172.825837 61.207931 
L 172.993237 55.572283 
L 173.328037 60.798056 
L 173.495437 54.313909 
L 173.662837 57.209932 
L 173.830237 63.237268 
L 173.997637 61.325114 
L 174.165037 53.599735 
L 174.332437 57.217085 
L 174.499837 65.820314 
L 174.667237 52.607019 
L 174.834637 52.819436 
L 175.002037 63.379157 
L 175.169437 53.326381 
L 175.336837 54.981915 
L 175.504237 63.584439 
L 175.671637 48.051221 
L 176.006437 65.206776 
L 176.173837 56.195362 
L 176.341237 59.474744 
L 176.508637 60.051248 
L 176.676037 59.903908 
L 176.843437 59.503023 
L 177.010837 55.982417 
L 177.178237 60.50417 
L 177.345637 55.437045 
L 177.513037 56.863179 
L 177.680437 59.619618 
L 177.847837 59.984631 
L 178.182637 53.466219 
L 178.350037 60.08674 
L 178.517437 58.664001 
L 178.684837 59.929172 
L 179.019637 54.97242 
L 179.187037 60.681322 
L 179.354437 60.712906 
L 179.521837 58.578307 
L 179.689237 59.661584 
L 179.856637 58.422895 
L 180.024037 60.27182 
L 180.358837 54.867086 
L 180.526237 63.469568 
L 180.693637 53.538137 
L 180.861037 55.442724 
L 181.028437 60.442384 
L 181.195837 60.405018 
L 181.363237 57.569606 
L 181.530637 61.033018 
L 181.698037 56.650016 
L 181.865437 59.673463 
L 182.032837 59.845232 
L 182.200237 56.076281 
L 182.367637 56.955728 
L 182.535037 61.215326 
L 182.702437 53.523802 
L 183.037237 60.989857 
L 183.204637 51.774721 
L 183.372037 59.187742 
L 183.539437 60.916001 
L 183.706837 53.199367 
L 183.874237 61.473743 
L 184.041637 52.419468 
L 184.209037 63.585006 
L 184.543837 52.160947 
L 184.878637 61.145389 
L 185.046037 55.640981 
L 185.380837 61.650175 
L 185.548237 61.780715 
L 185.715637 51.922373 
L 185.883037 60.400535 
L 186.217837 56.786202 
L 186.385237 56.559047 
L 186.552637 52.984188 
L 186.720037 61.653444 
L 186.887437 60.918169 
L 187.054837 57.279651 
L 187.222237 62.505136 
L 187.389637 54.026363 
L 187.724437 60.382981 
L 187.891837 48.340643 
L 188.226637 64.767656 
L 188.394037 49.994928 
L 188.561437 60.987533 
L 188.728837 59.753252 
L 188.896237 56.102313 
L 189.231037 59.86687 
L 189.398438 56.165812 
L 189.565837 61.976029 
L 189.733238 57.126893 
L 190.068037 60.267733 
L 190.235437 58.479003 
L 190.402837 58.244881 
L 190.570237 57.389444 
L 190.737637 54.616603 
L 190.905037 60.125074 
L 191.072437 59.694835 
L 191.239837 53.998554 
L 191.574637 59.368087 
L 191.742037 54.601574 
L 191.909437 58.018811 
L 192.076837 58.714799 
L 192.244237 67.278776 
L 192.411637 51.094687 
L 192.579037 61.618311 
L 192.746437 61.685078 
L 192.913837 50.947004 
L 193.248637 68.341253 
L 193.416037 47.023992 
L 193.583437 58.836708 
L 193.750837 61.125055 
L 194.085637 54.671212 
L 194.755237 58.495937 
L 194.922637 57.054288 
L 195.090037 53.851314 
L 195.257437 58.904795 
L 195.424837 55.891403 
L 195.592237 57.772505 
L 195.759637 54.953457 
L 195.927037 62.256003 
L 196.094437 55.077065 
L 196.261837 56.049966 
L 196.429237 63.161393 
L 196.764037 53.01126 
L 196.931437 58.185305 
L 197.098837 57.682791 
L 197.266237 59.489237 
L 197.433637 51.809528 
L 197.601037 59.799526 
L 197.768437 59.676286 
L 197.935837 59.346398 
L 198.103237 57.021976 
L 198.270637 57.283344 
L 198.438037 55.994579 
L 198.605437 58.888266 
L 198.772837 59.670186 
L 198.940237 54.044824 
L 199.107637 55.571191 
L 199.275037 60.138094 
L 199.442437 56.155406 
L 199.609837 58.667749 
L 199.944637 54.412952 
L 200.112037 60.992558 
L 200.614238 55.959868 
L 200.781637 62.852167 
L 200.949038 53.718198 
L 201.283838 57.356105 
L 201.451237 57.028631 
L 201.618638 56.154793 
L 201.786037 61.502887 
L 201.953437 55.472034 
L 202.120837 58.891062 
L 202.288237 57.875324 
L 202.455637 55.971778 
L 202.623037 58.432262 
L 202.790437 54.745871 
L 202.957837 57.650962 
L 203.125237 62.798808 
L 203.292637 56.102996 
L 203.460037 59.068458 
L 203.627437 58.204184 
L 203.794837 59.209548 
L 203.962237 57.840205 
L 204.129637 54.554496 
L 204.297037 61.649865 
L 204.464437 59.741038 
L 204.631837 45.883636 
L 204.799237 59.75571 
L 204.966637 59.917857 
L 205.134037 57.456194 
L 205.301437 57.977521 
L 205.468837 54.964007 
L 205.803637 64.384759 
L 205.971037 48.316128 
L 206.305837 64.326808 
L 206.473237 53.644125 
L 206.640637 54.23757 
L 206.808037 59.6112 
L 206.975437 60.898526 
L 207.142837 60.454511 
L 207.310237 53.426695 
L 207.477637 62.484748 
L 207.645037 63.276216 
L 207.812437 51.226234 
L 207.979837 54.218562 
L 208.147237 63.491392 
L 208.314637 54.81417 
L 208.482037 61.393259 
L 208.649437 51.021213 
L 208.816837 61.662476 
L 209.151637 58.330517 
L 209.486437 56.895725 
L 209.653837 54.181443 
L 209.821237 68.401955 
L 209.988637 49.417124 
L 210.156037 53.919263 
L 210.323437 63.734096 
L 210.490837 55.025365 
L 210.658237 55.859041 
L 210.825637 62.199727 
L 210.993037 58.403514 
L 211.160438 57.527726 
L 211.327837 61.632838 
L 211.662637 54.087151 
L 211.830038 57.981679 
L 212.164837 54.418962 
L 212.499637 62.718428 
L 212.834437 51.042135 
L 213.001837 60.832392 
L 213.169237 62.732275 
L 213.336637 47.534399 
L 213.671437 62.712138 
L 213.838837 58.446088 
L 214.006237 57.350144 
L 214.173637 60.379911 
L 214.508437 54.997562 
L 214.675837 59.516109 
L 214.843237 57.370449 
L 215.010637 56.812154 
L 215.178037 56.842323 
L 215.345437 55.63952 
L 215.512837 59.664391 
L 215.680237 58.545815 
L 215.847637 54.049097 
L 216.015037 60.153959 
L 216.182437 52.007751 
L 216.349837 54.929168 
L 216.517237 64.637298 
L 216.684637 54.981701 
L 216.852037 61.598423 
L 217.019437 55.769594 
L 217.186837 59.169424 
L 217.354237 58.031091 
L 217.521637 60.702842 
L 217.689037 51.083706 
L 217.856437 57.643427 
L 218.023837 57.468877 
L 218.191237 54.80199 
L 218.358637 58.67664 
L 218.526038 57.485663 
L 218.693437 53.2696 
L 218.860838 62.100136 
L 219.028237 51.115905 
L 219.363037 60.699339 
L 219.530438 57.171902 
L 219.697837 56.081338 
L 219.865238 65.468192 
L 220.032637 54.169843 
L 220.200038 57.018089 
L 220.367437 56.479626 
L 220.534838 57.078616 
L 220.702237 58.287182 
L 220.869638 57.811615 
L 221.037037 57.889372 
L 221.204438 58.196615 
L 221.371837 49.335629 
L 221.539237 61.481293 
L 221.874037 53.312033 
L 222.041437 60.016272 
L 222.208837 56.934719 
L 222.543637 61.373136 
L 222.711037 52.636299 
L 223.045837 66.092166 
L 223.213237 52.257034 
L 223.380637 55.178184 
L 223.548037 55.863474 
L 223.715437 58.158032 
L 224.050237 56.005907 
L 224.217637 58.552138 
L 224.385037 63.4541 
L 224.552437 52.404051 
L 224.887237 59.096434 
L 225.054637 58.220569 
L 225.222037 62.122847 
L 225.389437 60.524296 
L 225.556837 55.792238 
L 225.724237 64.189938 
L 225.891637 56.368975 
L 226.059037 59.019315 
L 226.226437 58.768381 
L 226.393837 58.84362 
L 226.561237 55.318921 
L 226.896037 60.715301 
L 227.063437 54.543638 
L 227.230837 55.765749 
L 227.398237 59.413558 
L 227.565637 59.198924 
L 227.900437 59.71584 
L 228.235237 53.459685 
L 228.402637 59.381563 
L 228.570037 57.527195 
L 228.737437 53.842803 
L 229.072237 60.170435 
L 229.407037 54.479217 
L 229.574437 55.716536 
L 229.741837 62.065257 
L 229.909237 52.843863 
L 230.244037 62.921127 
L 230.411437 55.672943 
L 230.746237 58.423081 
L 230.913637 62.732215 
L 231.081037 56.235879 
L 231.415837 58.761417 
L 231.583237 54.917712 
L 231.750637 61.909071 
L 231.918037 52.325189 
L 232.085437 55.227274 
L 232.252837 60.341716 
L 232.420237 56.223159 
L 232.587637 55.338367 
L 232.755037 60.439755 
L 232.922437 53.116338 
L 233.089837 63.04482 
L 233.257237 58.493101 
L 233.424637 57.035448 
L 233.592037 58.192251 
L 233.759437 60.637201 
L 233.926837 53.545777 
L 234.094237 57.751679 
L 234.261637 57.383753 
L 234.429037 54.493076 
L 234.596437 57.721261 
L 234.763837 64.455404 
L 234.931237 53.715096 
L 235.098637 57.93209 
L 235.266037 55.354045 
L 235.433437 56.268832 
L 235.600837 61.730856 
L 235.768237 54.176282 
L 235.935637 56.355241 
L 236.103037 61.450202 
L 236.270437 54.507178 
L 236.437838 63.069792 
L 236.772638 53.772517 
L 236.940037 58.479319 
L 237.107438 59.111244 
L 237.274837 55.041956 
L 237.442238 58.951445 
L 237.609637 55.746457 
L 237.777038 57.28896 
L 237.944437 56.863731 
L 238.111838 60.869265 
L 238.446638 54.395798 
L 238.781437 62.413383 
L 238.948837 54.381443 
L 239.283637 59.018275 
L 239.451037 55.650561 
L 239.618437 58.982231 
L 239.785837 56.600216 
L 239.953237 51.826331 
L 240.120637 61.55638 
L 240.288037 55.465737 
L 240.622837 59.783168 
L 240.790237 57.677748 
L 240.957637 58.378457 
L 241.125037 62.400115 
L 241.292437 53.983978 
L 241.459837 60.612053 
L 241.627237 51.838588 
L 241.794637 55.406 
L 241.962037 64.547865 
L 242.129437 50.425002 
L 242.296837 59.112546 
L 242.464237 57.871473 
L 242.631637 54.299837 
L 242.799037 62.782856 
L 243.133837 51.759707 
L 243.301237 60.239155 
L 243.468637 60.638913 
L 243.803438 54.727735 
L 243.970837 61.191467 
L 244.305637 57.151861 
L 244.473038 58.6345 
L 244.640437 57.00772 
L 244.807837 57.114831 
L 244.975237 59.725996 
L 245.142637 58.567155 
L 245.310037 54.408703 
L 245.477437 59.697742 
L 245.812237 53.831838 
L 245.979637 55.846311 
L 246.147037 60.947425 
L 246.314437 58.634547 
L 246.481837 53.184264 
L 246.816637 64.841187 
L 246.984037 55.150926 
L 247.151437 55.713009 
L 247.318837 59.356559 
L 247.486237 52.837476 
L 247.653637 60.388126 
L 247.821037 55.72423 
L 248.155837 60.859704 
L 248.323237 56.569467 
L 248.490637 59.102712 
L 248.658037 54.004973 
L 248.825437 54.532808 
L 248.992837 66.031809 
L 249.160237 53.825137 
L 249.327637 56.181342 
L 249.495037 64.845799 
L 249.829837 54.792793 
L 249.997237 59.401701 
L 250.164637 52.983229 
L 250.332037 59.506813 
L 250.499437 58.226529 
L 250.666837 54.558285 
L 250.834237 55.710649 
L 251.001637 61.797491 
L 251.169037 55.091408 
L 251.336437 62.322006 
L 251.503837 61.41524 
L 251.838637 59.05607 
L 252.006037 51.326426 
L 252.340837 63.328255 
L 252.508237 52.000094 
L 252.843037 59.413212 
L 253.345237 55.414803 
L 253.512637 56.806242 
L 253.680037 63.839472 
L 253.847437 53.443937 
L 254.182237 61.656431 
L 254.349638 54.713243 
L 254.517037 56.020402 
L 254.684438 55.865225 
L 254.851837 54.81263 
L 255.019238 58.977507 
L 255.354038 56.779753 
L 255.521437 60.068594 
L 255.688838 59.240658 
L 255.856237 49.82564 
L 256.023638 61.395074 
L 256.191037 56.411518 
L 256.358437 55.47995 
L 256.525837 58.57359 
L 256.693238 57.676458 
L 256.860637 61.532134 
L 257.028037 55.715593 
L 257.195437 56.026932 
L 257.362838 64.378277 
L 257.530237 55.775196 
L 257.697637 57.988287 
L 257.865037 51.97081 
L 258.032438 61.723016 
L 258.367237 54.957558 
L 258.534637 57.384683 
L 258.869438 53.754833 
L 259.036837 63.535397 
L 259.204237 48.677501 
L 259.539038 62.131557 
L 259.706437 52.271409 
L 260.041238 61.358892 
L 260.208638 54.779315 
L 260.376037 56.815729 
L 260.543437 55.162074 
L 260.710838 59.386367 
L 260.878238 57.39048 
L 261.045637 61.620074 
L 261.213037 52.675482 
L 261.547838 61.143389 
L 261.715238 60.903282 
L 261.882637 51.074014 
L 262.217438 64.189892 
L 262.552237 53.217004 
L 262.719638 60.011903 
L 262.887038 59.048861 
L 263.054438 54.610095 
L 263.221837 58.268443 
L 263.389238 58.247766 
L 263.556638 58.807035 
L 263.724038 54.885687 
L 263.891437 59.088161 
L 264.058838 55.946711 
L 264.393638 62.02167 
L 264.561037 52.658515 
L 264.895837 62.437962 
L 265.063238 53.263448 
L 265.230638 56.451816 
L 265.398038 57.016739 
L 265.565437 58.590083 
L 265.732838 56.934845 
L 265.900238 53.705527 
L 266.067637 60.673383 
L 266.402437 57.415418 
L 266.569838 57.86299 
L 266.737237 61.258963 
L 266.904637 53.290272 
L 267.072037 59.298245 
L 267.239438 58.793385 
L 267.406837 49.122061 
L 267.741637 65.003062 
L 268.076437 53.012094 
L 268.243837 63.166345 
L 268.746037 55.923882 
L 268.913437 58.674417 
L 269.080837 59.062798 
L 269.248238 53.833564 
L 269.415638 56.826725 
L 269.583037 55.477179 
L 269.750437 56.10997 
L 269.917838 55.94453 
L 270.085238 58.789721 
L 270.252637 58.476347 
L 270.420037 55.23031 
L 270.587438 58.486389 
L 270.754838 59.505911 
L 270.922237 61.629812 
L 271.089637 56.28086 
L 271.257038 55.429031 
L 271.424438 52.102746 
L 271.591837 61.987533 
L 271.759237 62.508179 
L 271.926638 53.084259 
L 272.094037 54.891535 
L 272.261437 65.951697 
L 272.428837 54.768588 
L 272.596238 54.393126 
L 272.763637 61.106713 
L 272.931038 53.909631 
L 273.098437 54.575849 
L 273.265838 59.611492 
L 273.433237 56.98671 
L 273.600638 60.223745 
L 273.768037 54.397781 
L 273.935437 61.060094 
L 274.270238 56.50299 
L 274.437637 58.353782 
L 274.605037 56.848269 
L 274.772437 57.95171 
L 274.939838 62.388789 
L 275.107237 53.999697 
L 275.274637 58.036229 
L 275.442037 56.612539 
L 275.609438 59.311438 
L 275.776837 59.058518 
L 275.944237 50.364151 
L 276.111637 57.830294 
L 276.279038 60.322404 
L 276.446438 55.774376 
L 276.613837 62.949479 
L 276.781237 55.045149 
L 276.948638 56.187213 
L 277.116038 60.507041 
L 277.283437 59.866449 
L 277.450837 54.592238 
L 277.618238 57.422667 
L 277.785638 57.522944 
L 277.953037 53.697818 
L 278.120437 60.085548 
L 278.287838 61.645746 
L 278.455238 50.101118 
L 278.790037 62.173624 
L 278.957438 59.68575 
L 279.124838 53.327435 
L 279.292237 61.770729 
L 279.459637 56.606432 
L 279.627038 56.067256 
L 279.794438 56.806572 
L 279.961838 54.155424 
L 280.296638 63.064326 
L 280.464038 51.830504 
L 280.631438 54.646278 
L 280.966238 62.787937 
L 281.133638 57.672286 
L 281.301038 58.82696 
L 281.468437 57.867439 
L 281.635838 62.822771 
L 281.803237 48.68899 
L 281.970638 63.169745 
L 282.138037 61.577511 
L 282.305438 48.875645 
L 282.472837 59.75564 
L 282.640238 61.687099 
L 282.807637 56.575012 
L 282.975037 57.545737 
L 283.142437 54.318079 
L 283.477238 60.258718 
L 283.644637 54.185244 
L 283.812037 58.177801 
L 283.979438 57.845165 
L 284.146838 52.382937 
L 284.314237 62.593935 
L 284.649038 51.898938 
L 284.816438 61.789398 
L 284.983837 63.002932 
L 285.151237 49.278078 
L 285.318638 64.252368 
L 285.653437 52.950747 
L 285.820837 57.248976 
L 285.988238 58.663349 
L 286.155638 53.204701 
L 286.323037 55.875481 
L 286.490437 53.780428 
L 286.657838 59.11032 
L 286.825237 59.686097 
L 286.992638 56.470002 
L 287.160037 59.338923 
L 287.327438 59.392038 
L 287.494837 55.925275 
L 287.662237 55.514699 
L 287.829637 57.036697 
L 287.997037 56.299101 
L 288.331837 59.368338 
L 288.666637 55.814869 
L 288.834037 60.116692 
L 289.001437 54.663501 
L 289.168837 55.045896 
L 289.336237 59.693161 
L 289.503637 57.269127 
L 289.671037 56.594376 
L 289.838437 62.62372 
L 290.005837 55.4433 
L 290.173237 55.75282 
L 290.340637 55.443884 
L 290.675437 60.109217 
L 290.842837 56.404137 
L 291.010237 57.169905 
L 291.177638 62.754047 
L 291.345037 55.351757 
L 291.512437 60.173058 
L 291.847238 53.873552 
L 292.014637 61.021875 
L 292.182037 56.19086 
L 292.349437 56.859655 
L 292.516838 61.120188 
L 292.684237 55.564172 
L 292.851637 55.747111 
L 293.019037 57.520101 
L 293.186438 56.041245 
L 293.353837 60.296212 
L 293.521237 50.152346 
L 293.856038 63.930649 
L 294.190837 56.221518 
L 294.358237 59.001552 
L 294.525638 57.326504 
L 294.693037 58.493614 
L 294.860437 53.430463 
L 295.027837 53.878929 
L 295.195238 59.51549 
L 295.530037 57.936896 
L 295.697437 57.75477 
L 295.864837 57.085577 
L 296.032237 62.296448 
L 296.199637 55.539141 
L 296.367037 55.436338 
L 296.534437 61.658436 
L 296.701837 52.435971 
L 296.869237 57.275607 
L 297.036637 57.655547 
L 297.204037 50.859892 
L 297.371437 63.156238 
L 297.706237 53.392331 
L 297.873637 61.3453 
L 298.041037 61.535814 
L 298.375837 55.744935 
L 298.543237 56.740591 
L 298.710637 59.608794 
L 298.878038 56.364538 
L 299.045437 55.301399 
L 299.212837 59.760136 
L 299.380237 52.733428 
L 299.547638 58.535059 
L 299.715037 59.502714 
L 299.882437 55.868995 
L 300.049837 57.729389 
L 300.217238 66.54729 
L 300.384637 51.306616 
L 300.552037 55.990419 
L 300.719437 56.672842 
L 300.886838 62.527847 
L 301.054237 54.885029 
L 301.556438 63.140042 
L 301.723838 55.17969 
L 302.058637 61.417026 
L 302.393438 55.860667 
L 302.560837 56.022156 
L 302.728237 54.836812 
L 302.895638 60.74806 
L 303.063038 52.505664 
L 303.230437 56.838589 
L 303.397837 57.626025 
L 303.565238 59.938134 
L 303.732637 58.789207 
L 303.900037 56.032375 
L 304.067437 57.917179 
L 304.402237 55.266402 
L 304.737037 59.850755 
L 304.904438 54.524426 
L 305.071837 54.05165 
L 305.406637 60.680969 
L 305.574037 55.740956 
L 305.741437 57.878452 
L 305.908838 57.316092 
L 306.076237 54.207702 
L 306.243637 63.339838 
L 306.578438 56.914636 
L 306.745837 56.84295 
L 307.080637 59.487158 
L 307.248038 54.935947 
L 307.582837 55.836586 
L 307.917638 57.827242 
L 308.085037 54.986532 
L 308.252437 61.476438 
L 308.419837 52.548551 
L 308.754638 62.892481 
L 308.922037 54.124777 
L 309.089437 56.527341 
L 309.256837 61.714404 
L 309.424238 56.549741 
L 309.591637 55.31961 
L 309.759037 55.461905 
L 309.926437 57.379856 
L 310.093838 56.020446 
L 310.261237 59.342232 
L 310.428637 54.954399 
L 310.596037 56.566423 
L 310.930837 61.945439 
L 311.098237 49.027378 
L 311.265637 60.651173 
L 311.433038 59.355732 
L 311.600437 53.805482 
L 311.935237 61.367166 
L 312.102638 55.056805 
L 312.270037 60.490285 
L 312.437437 56.306119 
L 312.604837 61.623589 
L 312.772238 58.814324 
L 312.939637 49.730251 
L 313.274437 60.438755 
L 313.441837 51.487196 
L 313.609237 58.752496 
L 313.776637 54.826467 
L 313.944037 55.361596 
L 314.111437 63.74035 
L 314.278837 52.738343 
L 314.446237 53.817539 
L 314.613637 62.309598 
L 314.781037 57.690266 
L 314.948437 58.15162 
L 315.115837 60.773759 
L 315.283237 53.122193 
L 315.450637 56.942217 
L 315.618037 57.576232 
L 315.785438 56.298948 
L 315.952837 52.863499 
L 316.120237 56.70294 
L 316.287637 57.188588 
L 316.455038 59.365451 
L 316.622437 58.434071 
L 316.957237 63.015493 
L 317.124638 51.893755 
L 317.459437 61.438054 
L 317.626837 52.946808 
L 317.794238 55.207664 
L 317.961637 60.035506 
L 318.129037 61.24701 
L 318.631237 53.56337 
L 318.966037 64.72429 
L 319.133438 49.81074 
L 319.468237 63.062768 
L 319.803038 53.332294 
L 319.970438 56.932033 
L 320.137837 57.331406 
L 320.305237 60.136777 
L 320.472638 54.669616 
L 320.640038 58.187036 
L 320.807437 58.954937 
L 320.974837 56.824782 
L 321.142238 56.415419 
L 321.309637 62.607513 
L 321.477037 54.539306 
L 321.644437 55.043702 
L 321.811838 56.913755 
L 321.979237 62.424624 
L 322.146637 53.773949 
L 322.314037 61.514068 
L 322.481437 60.073152 
L 322.648837 52.488479 
L 322.816237 61.416326 
L 322.983637 59.094227 
L 323.151037 53.292103 
L 323.318437 53.974824 
L 323.485838 60.49804 
L 323.653237 62.640124 
L 323.820637 53.987698 
L 323.988037 54.459221 
L 324.155438 61.919 
L 324.322837 55.477264 
L 324.490237 53.769725 
L 324.657637 55.868851 
L 324.825038 55.324375 
L 324.992437 63.303914 
L 325.159837 54.496833 
L 325.327237 59.227298 
L 325.494638 58.712101 
L 325.662037 57.391431 
L 325.829437 59.604565 
L 325.996837 55.811948 
L 326.164238 57.490084 
L 326.499037 54.824598 
L 326.666437 55.866763 
L 326.833838 62.741859 
L 327.001238 56.615158 
L 327.168637 55.359253 
L 327.336037 62.42263 
L 327.503438 63.748666 
L 327.670838 54.806553 
L 328.005637 59.367522 
L 328.173038 57.472392 
L 328.340438 54.190348 
L 328.507837 62.518089 
L 328.675237 61.55048 
L 328.842638 49.543896 
L 329.010038 60.780187 
L 329.344837 55.125526 
L 329.512238 58.87242 
L 329.679638 56.779437 
L 329.847037 60.071979 
L 330.181838 53.558622 
L 330.349238 55.45716 
L 330.516637 54.528342 
L 330.684037 58.076473 
L 330.851437 57.569175 
L 331.018837 54.78268 
L 331.186237 62.422934 
L 331.353637 60.450065 
L 331.521037 54.206807 
L 331.855837 63.770511 
L 332.023237 54.223566 
L 332.190637 58.980138 
L 332.358037 57.063371 
L 332.525437 58.015836 
L 332.692837 60.232153 
L 332.860237 55.03538 
L 333.027637 59.670158 
L 333.362437 55.491848 
L 333.529837 60.475096 
L 333.697237 54.634048 
L 334.032038 60.010237 
L 334.199437 54.878241 
L 334.366837 53.322786 
L 334.534237 62.9894 
L 334.701638 54.41841 
L 334.869037 52.631327 
L 335.036437 58.057759 
L 335.203837 58.073357 
L 335.371238 55.747718 
L 335.538637 57.157427 
L 335.706037 56.799312 
L 335.873437 59.815647 
L 336.040838 60.5798 
L 336.208237 56.773629 
L 336.375637 48.971921 
L 336.543037 61.558713 
L 336.877837 57.25696 
L 337.045237 58.493934 
L 337.212637 58.84721 
L 337.380038 60.390469 
L 337.547438 55.855941 
L 337.882237 61.76225 
L 338.049638 56.748834 
L 338.217038 56.722633 
L 338.384437 54.094111 
L 338.551837 63.07235 
L 338.719238 56.310295 
L 338.886637 56.458783 
L 339.054037 61.335537 
L 339.221437 61.186582 
L 339.388838 55.496854 
L 339.556237 59.82078 
L 339.723637 55.588008 
L 339.891037 59.228356 
L 340.058437 56.754701 
L 340.225837 56.682656 
L 340.393237 56.852197 
L 340.560637 56.014373 
L 340.728037 56.156843 
L 341.062838 53.140739 
L 341.230237 62.985653 
L 341.397637 53.199393 
L 341.732438 63.227071 
L 341.899837 50.536693 
L 342.234637 63.671262 
L 342.402038 60.429925 
L 342.569437 54.148499 
L 342.736837 53.653909 
L 342.904237 63.421955 
L 343.239037 53.925756 
L 343.406437 54.990738 
L 343.573837 54.71964 
L 344.076037 58.745673 
L 344.243437 56.411135 
L 344.410838 60.061536 
L 344.745637 56.104221 
L 344.913037 58.140317 
L 345.080438 55.170996 
L 345.247838 62.990357 
L 345.415237 50.134334 
L 345.582637 54.51848 
L 345.750038 63.159321 
L 345.917438 50.792944 
L 346.084837 55.18349 
L 346.252237 69.530764 
L 346.419638 49.262313 
L 346.587038 58.778729 
L 346.754437 53.927669 
L 346.921837 52.96461 
L 347.089238 61.783669 
L 347.256638 59.383129 
L 347.424037 51.202523 
L 347.591437 58.602557 
L 347.926237 61.706303 
L 348.093637 56.098039 
L 348.261037 59.306871 
L 348.428438 59.968641 
L 348.595837 59.082763 
L 348.763238 52.04555 
L 348.930637 59.246573 
L 349.098038 53.584825 
L 349.265437 58.405548 
L 349.432838 56.177396 
L 349.600237 59.854049 
L 349.767637 57.333159 
L 349.935037 56.731838 
L 350.269837 59.127818 
L 350.437237 55.69664 
L 350.604637 62.038837 
L 350.772038 55.405348 
L 350.939437 54.356788 
L 351.106837 62.22561 
L 351.274237 55.08361 
L 351.441638 53.586856 
L 351.609037 55.848856 
L 351.776437 60.081976 
L 351.943837 59.929579 
L 352.111237 53.672567 
L 352.278638 60.135844 
L 352.446037 58.972362 
L 352.780837 63.112514 
L 352.948238 52.304587 
L 353.115637 55.730021 
L 353.283037 63.214141 
L 353.617838 53.850381 
L 353.785237 61.300558 
L 353.952637 57.324498 
L 354.120037 59.443503 
L 354.287438 57.681847 
L 354.454837 51.631501 
L 354.789637 62.795511 
L 354.957038 53.42154 
L 355.124437 52.704501 
L 355.291837 59.706889 
L 355.459237 61.170119 
L 355.626638 56.448532 
L 355.794037 59.761807 
L 355.961437 56.347319 
L 356.128837 61.137981 
L 356.296238 55.035449 
L 356.463637 58.399344 
L 356.631037 65.910347 
L 356.798437 49.827422 
L 357.133237 60.929888 
L 357.300637 56.261811 
L 357.468037 61.360977 
L 357.635437 52.565411 
L 357.802837 55.739012 
L 357.970237 61.350577 
L 358.137637 59.394297 
L 358.305037 60.134158 
L 358.472437 56.454788 
L 358.639837 55.571245 
L 358.807237 62.552907 
L 359.142037 53.507606 
L 359.309438 56.650243 
L 359.476837 62.883745 
L 359.644237 55.811142 
L 359.811637 58.875865 
L 359.979038 58.909621 
L 360.146437 50.739928 
L 360.313837 54.29856 
L 360.481237 63.227019 
L 360.648638 55.144067 
L 360.816037 54.363917 
L 361.150837 60.460241 
L 361.318238 60.180583 
L 361.485637 58.91283 
L 361.820437 52.532111 
L 361.987838 57.098158 
L 362.322637 56.885934 
L 362.490037 58.044456 
L 362.657438 51.318101 
L 362.824838 63.395134 
L 362.992237 60.375009 
L 363.159637 53.05614 
L 363.327038 60.581057 
L 363.494438 50.977785 
L 363.661837 53.745612 
L 363.829237 66.804174 
L 363.996638 50.119771 
L 364.331437 63.640156 
L 364.666238 54.468589 
L 365.001037 59.058183 
L 365.168437 58.986203 
L 365.168437 58.986203 
" clip-path="url(#p2edb9e4a2e)" style="fill: none; stroke: #1f77b4; stroke-width: 1.5; stroke-linecap: square"/>
   </g>
   <g id="line2d_17">
    <path d="M 30.535837 234.401938 
L 31.205437 222.569688 
L 31.875037 214.638294 
L 32.544637 209.321722 
L 33.214237 205.757916 
L 33.883837 203.369026 
L 34.553437 201.767706 
L 35.223037 200.694308 
L 35.892637 199.974788 
L 36.729637 199.399158 
L 37.734037 198.998805 
L 39.073237 198.730641 
L 41.249437 198.571462 
L 46.104037 198.515109 
L 107.372437 198.511828 
L 365.168437 198.511828 
L 365.168437 198.511828 
" clip-path="url(#p2edb9e4a2e)" style="fill: none; stroke: #ff7f0e; stroke-width: 1.5; stroke-linecap: square"/>
   </g>
   <g id="patch_3">
    <path d="M 30.368437 253.44 
L 30.368437 36 
" style="fill: none; stroke: #000000; stroke-width: 0.8; stroke-linejoin: miter; stroke-linecap: square"/>
   </g>
   <g id="patch_4">
    <path d="M 365.168437 253.44 
L 365.168437 36 
" style="fill: none; stroke: #000000; stroke-width: 0.8; stroke-linejoin: miter; stroke-linecap: square"/>
   </g>
   <g id="patch_5">
    <path d="M 30.368437 253.44 
L 365.168437 253.44 
" style="fill: none; stroke: #000000; stroke-width: 0.8; stroke-linejoin: miter; stroke-linecap: square"/>
   </g>
   <g id="patch_6">
    <path d="M 30.368437 36 
L 365.168437 36 
" style="fill: none; stroke: #000000; stroke-width: 0.8; stroke-linejoin: miter; stroke-linecap: square"/>
   </g>
   <g id="legend_1">
    <g id="patch_7">
     <path d="M 37.368437 77.078125 
L 87.068437 77.078125 
Q 89.068437 77.078125 89.068437 75.078125 
L 89.068437 43 
Q 89.068437 41 87.068437 41 
L 37.368437 41 
Q 35.368437 41 35.368437 43 
L 35.368437 75.078125 
Q 35.368437 77.078125 37.368437 77.078125 
z
" style="fill: #ffffff; opacity: 0.8; stroke: #cccccc; stroke-linejoin: miter"/>
    </g>
    <g id="line2d_18">
     <path d="M 39.368437 52.8 
L 49.368437 52.8 
L 59.368437 52.8 
" style="fill: none; stroke: #1f77b4; stroke-width: 1.5; stroke-linecap: square"/>
    </g>
    <g id="text_16">
     <!-- $\hat{y(t)}$ -->
     <g transform="translate(67.368437 56.3) scale(0.1 -0.1)">
      <defs>
       <path id="DejaVuSans-302" d="M -1831 5119 
L -1369 5119 
L -603 3944 
L -1038 3944 
L -1600 4709 
L -2163 3944 
L -2597 3944 
L -1831 5119 
z
M -1600 3584 
L -1600 3584 
z
" transform="scale(0.015625)"/>
       <path id="DejaVuSans-Oblique-79" d="M 1588 -325 
Q 1188 -997 936 -1164 
Q 684 -1331 294 -1331 
L -159 -1331 
L -63 -850 
L 269 -850 
Q 509 -850 678 -719 
Q 847 -588 1056 -206 
L 1234 128 
L 459 3500 
L 1069 3500 
L 1650 819 
L 3256 3500 
L 3859 3500 
L 1588 -325 
z
" transform="scale(0.015625)"/>
       <path id="DejaVuSans-28" d="M 1984 4856 
Q 1566 4138 1362 3434 
Q 1159 2731 1159 2009 
Q 1159 1288 1364 580 
Q 1569 -128 1984 -844 
L 1484 -844 
Q 1016 -109 783 600 
Q 550 1309 550 2009 
Q 550 2706 781 3412 
Q 1013 4119 1484 4856 
L 1984 4856 
z
" transform="scale(0.015625)"/>
       <path id="DejaVuSans-Oblique-74" d="M 2706 3500 
L 2619 3053 
L 1472 3053 
L 1100 1153 
Q 1081 1047 1072 975 
Q 1063 903 1063 863 
Q 1063 663 1183 572 
Q 1303 481 1569 481 
L 2150 481 
L 2053 0 
L 1503 0 
Q 991 0 739 200 
Q 488 400 488 806 
Q 488 878 497 964 
Q 506 1050 525 1153 
L 897 3053 
L 409 3053 
L 500 3500 
L 978 3500 
L 1172 4494 
L 1747 4494 
L 1556 3500 
L 2706 3500 
z
" transform="scale(0.015625)"/>
       <path id="DejaVuSans-29" d="M 513 4856 
L 1013 4856 
Q 1481 4119 1714 3412 
Q 1947 2706 1947 2009 
Q 1947 1309 1714 600 
Q 1481 -109 1013 -844 
L 513 -844 
Q 928 -128 1133 580 
Q 1338 1288 1338 2009 
Q 1338 2731 1133 3434 
Q 928 4138 513 4856 
z
" transform="scale(0.015625)"/>
      </defs>
      <use xlink:href="#DejaVuSans-302" transform="translate(135.682129 33.015625)"/>
      <use xlink:href="#DejaVuSans-Oblique-79" transform="translate(0 0.640625)"/>
      <use xlink:href="#DejaVuSans-28" transform="translate(59.179688 0.640625)"/>
      <use xlink:href="#DejaVuSans-Oblique-74" transform="translate(98.193359 0.640625)"/>
      <use xlink:href="#DejaVuSans-29" transform="translate(137.402344 0.640625)"/>
     </g>
    </g>
    <g id="line2d_19">
     <path d="M 39.368437 67.498437 
L 49.368437 67.498437 
L 59.368437 67.498437 
" style="fill: none; stroke: #ff7f0e; stroke-width: 1.5; stroke-linecap: square"/>
    </g>
    <g id="text_17">
     <!-- $x(t)$ -->
     <g transform="translate(67.368437 70.998437) scale(0.1 -0.1)">
      <defs>
       <path id="DejaVuSans-Oblique-78" d="M 3841 3500 
L 2234 1784 
L 3219 0 
L 2559 0 
L 1819 1388 
L 531 0 
L -166 0 
L 1556 1844 
L 641 3500 
L 1300 3500 
L 1972 2234 
L 3144 3500 
L 3841 3500 
z
" transform="scale(0.015625)"/>
      </defs>
      <use xlink:href="#DejaVuSans-Oblique-78" transform="translate(0 0.125)"/>
      <use xlink:href="#DejaVuSans-28" transform="translate(59.179688 0.125)"/>
      <use xlink:href="#DejaVuSans-Oblique-74" transform="translate(98.193359 0.125)"/>
      <use xlink:href="#DejaVuSans-29" transform="translate(137.402344 0.125)"/>
     </g>
    </g>
   </g>
  </g>
  <g id="text_18">
   <!-- Accumulate to Threshold model with input of 0.2 with rms=1  -->
   <g transform="translate(7.2 16.318125) scale(0.12 -0.12)">
    <defs>
     <path id="DejaVuSans-41" d="M 2188 4044 
L 1331 1722 
L 3047 1722 
L 2188 4044 
z
M 1831 4666 
L 2547 4666 
L 4325 0 
L 3669 0 
L 3244 1197 
L 1141 1197 
L 716 0 
L 50 0 
L 1831 4666 
z
" transform="scale(0.015625)"/>
     <path id="DejaVuSans-63" d="M 3122 3366 
L 3122 2828 
Q 2878 2963 2633 3030 
Q 2388 3097 2138 3097 
Q 1578 3097 1268 2742 
Q 959 2388 959 1747 
Q 959 1106 1268 751 
Q 1578 397 2138 397 
Q 2388 397 2633 464 
Q 2878 531 3122 666 
L 3122 134 
Q 2881 22 2623 -34 
Q 2366 -91 2075 -91 
Q 1284 -91 818 406 
Q 353 903 353 1747 
Q 353 2603 823 3093 
Q 1294 3584 2113 3584 
Q 2378 3584 2631 3529 
Q 2884 3475 3122 3366 
z
" transform="scale(0.015625)"/>
     <path id="DejaVuSans-75" d="M 544 1381 
L 544 3500 
L 1119 3500 
L 1119 1403 
Q 1119 906 1312 657 
Q 1506 409 1894 409 
Q 2359 409 2629 706 
Q 2900 1003 2900 1516 
L 2900 3500 
L 3475 3500 
L 3475 0 
L 2900 0 
L 2900 538 
Q 2691 219 2414 64 
Q 2138 -91 1772 -91 
Q 1169 -91 856 284 
Q 544 659 544 1381 
z
M 1991 3584 
L 1991 3584 
z
" transform="scale(0.015625)"/>
     <path id="DejaVuSans-6d" d="M 3328 2828 
Q 3544 3216 3844 3400 
Q 4144 3584 4550 3584 
Q 5097 3584 5394 3201 
Q 5691 2819 5691 2113 
L 5691 0 
L 5113 0 
L 5113 2094 
Q 5113 2597 4934 2840 
Q 4756 3084 4391 3084 
Q 3944 3084 3684 2787 
Q 3425 2491 3425 1978 
L 3425 0 
L 2847 0 
L 2847 2094 
Q 2847 2600 2669 2842 
Q 2491 3084 2119 3084 
Q 1678 3084 1418 2786 
Q 1159 2488 1159 1978 
L 1159 0 
L 581 0 
L 581 3500 
L 1159 3500 
L 1159 2956 
Q 1356 3278 1631 3431 
Q 1906 3584 2284 3584 
Q 2666 3584 2933 3390 
Q 3200 3197 3328 2828 
z
" transform="scale(0.015625)"/>
     <path id="DejaVuSans-6c" d="M 603 4863 
L 1178 4863 
L 1178 0 
L 603 0 
L 603 4863 
z
" transform="scale(0.015625)"/>
     <path id="DejaVuSans-61" d="M 2194 1759 
Q 1497 1759 1228 1600 
Q 959 1441 959 1056 
Q 959 750 1161 570 
Q 1363 391 1709 391 
Q 2188 391 2477 730 
Q 2766 1069 2766 1631 
L 2766 1759 
L 2194 1759 
z
M 3341 1997 
L 3341 0 
L 2766 0 
L 2766 531 
Q 2569 213 2275 61 
Q 1981 -91 1556 -91 
Q 1019 -91 701 211 
Q 384 513 384 1019 
Q 384 1609 779 1909 
Q 1175 2209 1959 2209 
L 2766 2209 
L 2766 2266 
Q 2766 2663 2505 2880 
Q 2244 3097 1772 3097 
Q 1472 3097 1187 3025 
Q 903 2953 641 2809 
L 641 3341 
Q 956 3463 1253 3523 
Q 1550 3584 1831 3584 
Q 2591 3584 2966 3190 
Q 3341 2797 3341 1997 
z
" transform="scale(0.015625)"/>
     <path id="DejaVuSans-74" d="M 1172 4494 
L 1172 3500 
L 2356 3500 
L 2356 3053 
L 1172 3053 
L 1172 1153 
Q 1172 725 1289 603 
Q 1406 481 1766 481 
L 2356 481 
L 2356 0 
L 1766 0 
Q 1100 0 847 248 
Q 594 497 594 1153 
L 594 3053 
L 172 3053 
L 172 3500 
L 594 3500 
L 594 4494 
L 1172 4494 
z
" transform="scale(0.015625)"/>
     <path id="DejaVuSans-65" d="M 3597 1894 
L 3597 1613 
L 953 1613 
Q 991 1019 1311 708 
Q 1631 397 2203 397 
Q 2534 397 2845 478 
Q 3156 559 3463 722 
L 3463 178 
Q 3153 47 2828 -22 
Q 2503 -91 2169 -91 
Q 1331 -91 842 396 
Q 353 884 353 1716 
Q 353 2575 817 3079 
Q 1281 3584 2069 3584 
Q 2775 3584 3186 3129 
Q 3597 2675 3597 1894 
z
M 3022 2063 
Q 3016 2534 2758 2815 
Q 2500 3097 2075 3097 
Q 1594 3097 1305 2825 
Q 1016 2553 972 2059 
L 3022 2063 
z
" transform="scale(0.015625)"/>
     <path id="DejaVuSans-20" transform="scale(0.015625)"/>
     <path id="DejaVuSans-6f" d="M 1959 3097 
Q 1497 3097 1228 2736 
Q 959 2375 959 1747 
Q 959 1119 1226 758 
Q 1494 397 1959 397 
Q 2419 397 2687 759 
Q 2956 1122 2956 1747 
Q 2956 2369 2687 2733 
Q 2419 3097 1959 3097 
z
M 1959 3584 
Q 2709 3584 3137 3096 
Q 3566 2609 3566 1747 
Q 3566 888 3137 398 
Q 2709 -91 1959 -91 
Q 1206 -91 779 398 
Q 353 888 353 1747 
Q 353 2609 779 3096 
Q 1206 3584 1959 3584 
z
" transform="scale(0.015625)"/>
     <path id="DejaVuSans-54" d="M -19 4666 
L 3928 4666 
L 3928 4134 
L 2272 4134 
L 2272 0 
L 1638 0 
L 1638 4134 
L -19 4134 
L -19 4666 
z
" transform="scale(0.015625)"/>
     <path id="DejaVuSans-68" d="M 3513 2113 
L 3513 0 
L 2938 0 
L 2938 2094 
Q 2938 2591 2744 2837 
Q 2550 3084 2163 3084 
Q 1697 3084 1428 2787 
Q 1159 2491 1159 1978 
L 1159 0 
L 581 0 
L 581 4863 
L 1159 4863 
L 1159 2956 
Q 1366 3272 1645 3428 
Q 1925 3584 2291 3584 
Q 2894 3584 3203 3211 
Q 3513 2838 3513 2113 
z
" transform="scale(0.015625)"/>
     <path id="DejaVuSans-72" d="M 2631 2963 
Q 2534 3019 2420 3045 
Q 2306 3072 2169 3072 
Q 1681 3072 1420 2755 
Q 1159 2438 1159 1844 
L 1159 0 
L 581 0 
L 581 3500 
L 1159 3500 
L 1159 2956 
Q 1341 3275 1631 3429 
Q 1922 3584 2338 3584 
Q 2397 3584 2469 3576 
Q 2541 3569 2628 3553 
L 2631 2963 
z
" transform="scale(0.015625)"/>
     <path id="DejaVuSans-73" d="M 2834 3397 
L 2834 2853 
Q 2591 2978 2328 3040 
Q 2066 3103 1784 3103 
Q 1356 3103 1142 2972 
Q 928 2841 928 2578 
Q 928 2378 1081 2264 
Q 1234 2150 1697 2047 
L 1894 2003 
Q 2506 1872 2764 1633 
Q 3022 1394 3022 966 
Q 3022 478 2636 193 
Q 2250 -91 1575 -91 
Q 1294 -91 989 -36 
Q 684 19 347 128 
L 347 722 
Q 666 556 975 473 
Q 1284 391 1588 391 
Q 1994 391 2212 530 
Q 2431 669 2431 922 
Q 2431 1156 2273 1281 
Q 2116 1406 1581 1522 
L 1381 1569 
Q 847 1681 609 1914 
Q 372 2147 372 2553 
Q 372 3047 722 3315 
Q 1072 3584 1716 3584 
Q 2034 3584 2315 3537 
Q 2597 3491 2834 3397 
z
" transform="scale(0.015625)"/>
     <path id="DejaVuSans-64" d="M 2906 2969 
L 2906 4863 
L 3481 4863 
L 3481 0 
L 2906 0 
L 2906 525 
Q 2725 213 2448 61 
Q 2172 -91 1784 -91 
Q 1150 -91 751 415 
Q 353 922 353 1747 
Q 353 2572 751 3078 
Q 1150 3584 1784 3584 
Q 2172 3584 2448 3432 
Q 2725 3281 2906 2969 
z
M 947 1747 
Q 947 1113 1208 752 
Q 1469 391 1925 391 
Q 2381 391 2643 752 
Q 2906 1113 2906 1747 
Q 2906 2381 2643 2742 
Q 2381 3103 1925 3103 
Q 1469 3103 1208 2742 
Q 947 2381 947 1747 
z
" transform="scale(0.015625)"/>
     <path id="DejaVuSans-77" d="M 269 3500 
L 844 3500 
L 1563 769 
L 2278 3500 
L 2956 3500 
L 3675 769 
L 4391 3500 
L 4966 3500 
L 4050 0 
L 3372 0 
L 2619 2869 
L 1863 0 
L 1184 0 
L 269 3500 
z
" transform="scale(0.015625)"/>
     <path id="DejaVuSans-69" d="M 603 3500 
L 1178 3500 
L 1178 0 
L 603 0 
L 603 3500 
z
M 603 4863 
L 1178 4863 
L 1178 4134 
L 603 4134 
L 603 4863 
z
" transform="scale(0.015625)"/>
     <path id="DejaVuSans-6e" d="M 3513 2113 
L 3513 0 
L 2938 0 
L 2938 2094 
Q 2938 2591 2744 2837 
Q 2550 3084 2163 3084 
Q 1697 3084 1428 2787 
Q 1159 2491 1159 1978 
L 1159 0 
L 581 0 
L 581 3500 
L 1159 3500 
L 1159 2956 
Q 1366 3272 1645 3428 
Q 1925 3584 2291 3584 
Q 2894 3584 3203 3211 
Q 3513 2838 3513 2113 
z
" transform="scale(0.015625)"/>
     <path id="DejaVuSans-70" d="M 1159 525 
L 1159 -1331 
L 581 -1331 
L 581 3500 
L 1159 3500 
L 1159 2969 
Q 1341 3281 1617 3432 
Q 1894 3584 2278 3584 
Q 2916 3584 3314 3078 
Q 3713 2572 3713 1747 
Q 3713 922 3314 415 
Q 2916 -91 2278 -91 
Q 1894 -91 1617 61 
Q 1341 213 1159 525 
z
M 3116 1747 
Q 3116 2381 2855 2742 
Q 2594 3103 2138 3103 
Q 1681 3103 1420 2742 
Q 1159 2381 1159 1747 
Q 1159 1113 1420 752 
Q 1681 391 2138 391 
Q 2594 391 2855 752 
Q 3116 1113 3116 1747 
z
" transform="scale(0.015625)"/>
     <path id="DejaVuSans-66" d="M 2375 4863 
L 2375 4384 
L 1825 4384 
Q 1516 4384 1395 4259 
Q 1275 4134 1275 3809 
L 1275 3500 
L 2222 3500 
L 2222 3053 
L 1275 3053 
L 1275 0 
L 697 0 
L 697 3053 
L 147 3053 
L 147 3500 
L 697 3500 
L 697 3744 
Q 697 4328 969 4595 
Q 1241 4863 1831 4863 
L 2375 4863 
z
" transform="scale(0.015625)"/>
     <path id="DejaVuSans-3d" d="M 678 2906 
L 4684 2906 
L 4684 2381 
L 678 2381 
L 678 2906 
z
M 678 1631 
L 4684 1631 
L 4684 1100 
L 678 1100 
L 678 1631 
z
" transform="scale(0.015625)"/>
    </defs>
    <use xlink:href="#DejaVuSans-41"/>
    <use xlink:href="#DejaVuSans-63" x="66.658203"/>
    <use xlink:href="#DejaVuSans-63" x="121.638672"/>
    <use xlink:href="#DejaVuSans-75" x="176.619141"/>
    <use xlink:href="#DejaVuSans-6d" x="239.998047"/>
    <use xlink:href="#DejaVuSans-75" x="337.410156"/>
    <use xlink:href="#DejaVuSans-6c" x="400.789062"/>
    <use xlink:href="#DejaVuSans-61" x="428.572266"/>
    <use xlink:href="#DejaVuSans-74" x="489.851562"/>
    <use xlink:href="#DejaVuSans-65" x="529.060547"/>
    <use xlink:href="#DejaVuSans-20" x="590.583984"/>
    <use xlink:href="#DejaVuSans-74" x="622.371094"/>
    <use xlink:href="#DejaVuSans-6f" x="661.580078"/>
    <use xlink:href="#DejaVuSans-20" x="722.761719"/>
    <use xlink:href="#DejaVuSans-54" x="754.548828"/>
    <use xlink:href="#DejaVuSans-68" x="815.632812"/>
    <use xlink:href="#DejaVuSans-72" x="879.011719"/>
    <use xlink:href="#DejaVuSans-65" x="917.875"/>
    <use xlink:href="#DejaVuSans-73" x="979.398438"/>
    <use xlink:href="#DejaVuSans-68" x="1031.498047"/>
    <use xlink:href="#DejaVuSans-6f" x="1094.876953"/>
    <use xlink:href="#DejaVuSans-6c" x="1156.058594"/>
    <use xlink:href="#DejaVuSans-64" x="1183.841797"/>
    <use xlink:href="#DejaVuSans-20" x="1247.318359"/>
    <use xlink:href="#DejaVuSans-6d" x="1279.105469"/>
    <use xlink:href="#DejaVuSans-6f" x="1376.517578"/>
    <use xlink:href="#DejaVuSans-64" x="1437.699219"/>
    <use xlink:href="#DejaVuSans-65" x="1501.175781"/>
    <use xlink:href="#DejaVuSans-6c" x="1562.699219"/>
    <use xlink:href="#DejaVuSans-20" x="1590.482422"/>
    <use xlink:href="#DejaVuSans-77" x="1622.269531"/>
    <use xlink:href="#DejaVuSans-69" x="1704.056641"/>
    <use xlink:href="#DejaVuSans-74" x="1731.839844"/>
    <use xlink:href="#DejaVuSans-68" x="1771.048828"/>
    <use xlink:href="#DejaVuSans-20" x="1834.427734"/>
    <use xlink:href="#DejaVuSans-69" x="1866.214844"/>
    <use xlink:href="#DejaVuSans-6e" x="1893.998047"/>
    <use xlink:href="#DejaVuSans-70" x="1957.376953"/>
    <use xlink:href="#DejaVuSans-75" x="2020.853516"/>
    <use xlink:href="#DejaVuSans-74" x="2084.232422"/>
    <use xlink:href="#DejaVuSans-20" x="2123.441406"/>
    <use xlink:href="#DejaVuSans-6f" x="2155.228516"/>
    <use xlink:href="#DejaVuSans-66" x="2216.410156"/>
    <use xlink:href="#DejaVuSans-20" x="2251.615234"/>
    <use xlink:href="#DejaVuSans-30" x="2283.402344"/>
    <use xlink:href="#DejaVuSans-2e" x="2347.025391"/>
    <use xlink:href="#DejaVuSans-32" x="2378.8125"/>
    <use xlink:href="#DejaVuSans-20" x="2442.435547"/>
    <use xlink:href="#DejaVuSans-77" x="2474.222656"/>
    <use xlink:href="#DejaVuSans-69" x="2556.009766"/>
    <use xlink:href="#DejaVuSans-74" x="2583.792969"/>
    <use xlink:href="#DejaVuSans-68" x="2623.001953"/>
    <use xlink:href="#DejaVuSans-20" x="2686.380859"/>
    <use xlink:href="#DejaVuSans-72" x="2718.167969"/>
    <use xlink:href="#DejaVuSans-6d" x="2757.53125"/>
    <use xlink:href="#DejaVuSans-73" x="2854.943359"/>
    <use xlink:href="#DejaVuSans-3d" x="2907.042969"/>
    <use xlink:href="#DejaVuSans-31" x="2990.832031"/>
    <use xlink:href="#DejaVuSans-20" x="3054.455078"/>
   </g>
  </g>
 </g>
 <defs>
  <clipPath id="p2edb9e4a2e">
   <rect x="30.368437" y="36" width="334.8" height="217.44"/>
  </clipPath>
 </defs>
</svg>
