<?xml version="1.0" encoding="utf-8" standalone="no"?>
<!DOCTYPE svg PUBLIC "-//W3C//DTD SVG 1.1//EN"
  "http://www.w3.org/Graphics/SVG/1.1/DTD/svg11.dtd">
<svg xmlns:xlink="http://www.w3.org/1999/xlink" width="395.015937pt" height="290.99625pt" viewBox="0 0 395.015937 290.99625" xmlns="http://www.w3.org/2000/svg" version="1.1">
 <metadata>
  <rdf:RDF xmlns:dc="http://purl.org/dc/elements/1.1/" xmlns:cc="http://creativecommons.org/ns#" xmlns:rdf="http://www.w3.org/1999/02/22-rdf-syntax-ns#">
   <cc:Work>
    <dc:type rdf:resource="http://purl.org/dc/dcmitype/StillImage"/>
    <dc:date>2022-11-20T12:44:38.325260</dc:date>
    <dc:format>image/svg+xml</dc:format>
    <dc:creator>
     <cc:Agent>
      <dc:title>Matplotlib v3.6.0, https://matplotlib.org/</dc:title>
     </cc:Agent>
    </dc:creator>
   </cc:Work>
  </rdf:RDF>
 </metadata>
 <defs>
  <style type="text/css">*{stroke-linejoin: round; stroke-linecap: butt}</style>
 </defs>
 <g id="figure_1">
  <g id="patch_1">
   <path d="M -0 290.99625 
L 395.015937 290.99625 
L 395.015937 0 
L -0 0 
L -0 290.99625 
z
" style="fill: none"/>
  </g>
  <g id="axes_1">
   <g id="patch_2">
    <path d="M 38.482813 253.44 
L 373.282813 253.44 
L 373.282813 36 
L 38.482813 36 
z
" style="fill: #ffffff"/>
   </g>
   <g id="matplotlib.axis_1">
    <g id="xtick_1">
     <g id="line2d_1">
      <defs>
       <path id="m388bbc4ade" d="M 0 0 
L 0 3.5 
" style="stroke: #000000; stroke-width: 0.8"/>
      </defs>
      <g>
       <use xlink:href="#m388bbc4ade" x="38.482813" y="253.44" style="stroke: #000000; stroke-width: 0.8"/>
      </g>
     </g>
     <g id="text_1">
      <!-- 0.00 -->
      <g transform="translate(27.35 268.038437) scale(0.1 -0.1)">
       <defs>
        <path id="DejaVuSans-30" d="M 2034 4250 
Q 1547 4250 1301 3770 
Q 1056 3291 1056 2328 
Q 1056 1369 1301 889 
Q 1547 409 2034 409 
Q 2525 409 2770 889 
Q 3016 1369 3016 2328 
Q 3016 3291 2770 3770 
Q 2525 4250 2034 4250 
z
M 2034 4750 
Q 2819 4750 3233 4129 
Q 3647 3509 3647 2328 
Q 3647 1150 3233 529 
Q 2819 -91 2034 -91 
Q 1250 -91 836 529 
Q 422 1150 422 2328 
Q 422 3509 836 4129 
Q 1250 4750 2034 4750 
z
" transform="scale(0.015625)"/>
        <path id="DejaVuSans-2e" d="M 684 794 
L 1344 794 
L 1344 0 
L 684 0 
L 684 794 
z
" transform="scale(0.015625)"/>
       </defs>
       <use xlink:href="#DejaVuSans-30"/>
       <use xlink:href="#DejaVuSans-2e" x="63.623047"/>
       <use xlink:href="#DejaVuSans-30" x="95.410156"/>
       <use xlink:href="#DejaVuSans-30" x="159.033203"/>
      </g>
     </g>
    </g>
    <g id="xtick_2">
     <g id="line2d_2">
      <g>
       <use xlink:href="#m388bbc4ade" x="80.332813" y="253.44" style="stroke: #000000; stroke-width: 0.8"/>
      </g>
     </g>
     <g id="text_2">
      <!-- 0.25 -->
      <g transform="translate(69.2 268.038437) scale(0.1 -0.1)">
       <defs>
        <path id="DejaVuSans-32" d="M 1228 531 
L 3431 531 
L 3431 0 
L 469 0 
L 469 531 
Q 828 903 1448 1529 
Q 2069 2156 2228 2338 
Q 2531 2678 2651 2914 
Q 2772 3150 2772 3378 
Q 2772 3750 2511 3984 
Q 2250 4219 1831 4219 
Q 1534 4219 1204 4116 
Q 875 4013 500 3803 
L 500 4441 
Q 881 4594 1212 4672 
Q 1544 4750 1819 4750 
Q 2544 4750 2975 4387 
Q 3406 4025 3406 3419 
Q 3406 3131 3298 2873 
Q 3191 2616 2906 2266 
Q 2828 2175 2409 1742 
Q 1991 1309 1228 531 
z
" transform="scale(0.015625)"/>
        <path id="DejaVuSans-35" d="M 691 4666 
L 3169 4666 
L 3169 4134 
L 1269 4134 
L 1269 2991 
Q 1406 3038 1543 3061 
Q 1681 3084 1819 3084 
Q 2600 3084 3056 2656 
Q 3513 2228 3513 1497 
Q 3513 744 3044 326 
Q 2575 -91 1722 -91 
Q 1428 -91 1123 -41 
Q 819 9 494 109 
L 494 744 
Q 775 591 1075 516 
Q 1375 441 1709 441 
Q 2250 441 2565 725 
Q 2881 1009 2881 1497 
Q 2881 1984 2565 2268 
Q 2250 2553 1709 2553 
Q 1456 2553 1204 2497 
Q 953 2441 691 2322 
L 691 4666 
z
" transform="scale(0.015625)"/>
       </defs>
       <use xlink:href="#DejaVuSans-30"/>
       <use xlink:href="#DejaVuSans-2e" x="63.623047"/>
       <use xlink:href="#DejaVuSans-32" x="95.410156"/>
       <use xlink:href="#DejaVuSans-35" x="159.033203"/>
      </g>
     </g>
    </g>
    <g id="xtick_3">
     <g id="line2d_3">
      <g>
       <use xlink:href="#m388bbc4ade" x="122.182813" y="253.44" style="stroke: #000000; stroke-width: 0.8"/>
      </g>
     </g>
     <g id="text_3">
      <!-- 0.50 -->
      <g transform="translate(111.05 268.038437) scale(0.1 -0.1)">
       <use xlink:href="#DejaVuSans-30"/>
       <use xlink:href="#DejaVuSans-2e" x="63.623047"/>
       <use xlink:href="#DejaVuSans-35" x="95.410156"/>
       <use xlink:href="#DejaVuSans-30" x="159.033203"/>
      </g>
     </g>
    </g>
    <g id="xtick_4">
     <g id="line2d_4">
      <g>
       <use xlink:href="#m388bbc4ade" x="164.032813" y="253.44" style="stroke: #000000; stroke-width: 0.8"/>
      </g>
     </g>
     <g id="text_4">
      <!-- 0.75 -->
      <g transform="translate(152.9 268.038437) scale(0.1 -0.1)">
       <defs>
        <path id="DejaVuSans-37" d="M 525 4666 
L 3525 4666 
L 3525 4397 
L 1831 0 
L 1172 0 
L 2766 4134 
L 525 4134 
L 525 4666 
z
" transform="scale(0.015625)"/>
       </defs>
       <use xlink:href="#DejaVuSans-30"/>
       <use xlink:href="#DejaVuSans-2e" x="63.623047"/>
       <use xlink:href="#DejaVuSans-37" x="95.410156"/>
       <use xlink:href="#DejaVuSans-35" x="159.033203"/>
      </g>
     </g>
    </g>
    <g id="xtick_5">
     <g id="line2d_5">
      <g>
       <use xlink:href="#m388bbc4ade" x="205.882812" y="253.44" style="stroke: #000000; stroke-width: 0.8"/>
      </g>
     </g>
     <g id="text_5">
      <!-- 1.00 -->
      <g transform="translate(194.75 268.038437) scale(0.1 -0.1)">
       <defs>
        <path id="DejaVuSans-31" d="M 794 531 
L 1825 531 
L 1825 4091 
L 703 3866 
L 703 4441 
L 1819 4666 
L 2450 4666 
L 2450 531 
L 3481 531 
L 3481 0 
L 794 0 
L 794 531 
z
" transform="scale(0.015625)"/>
       </defs>
       <use xlink:href="#DejaVuSans-31"/>
       <use xlink:href="#DejaVuSans-2e" x="63.623047"/>
       <use xlink:href="#DejaVuSans-30" x="95.410156"/>
       <use xlink:href="#DejaVuSans-30" x="159.033203"/>
      </g>
     </g>
    </g>
    <g id="xtick_6">
     <g id="line2d_6">
      <g>
       <use xlink:href="#m388bbc4ade" x="247.732812" y="253.44" style="stroke: #000000; stroke-width: 0.8"/>
      </g>
     </g>
     <g id="text_6">
      <!-- 1.25 -->
      <g transform="translate(236.6 268.038437) scale(0.1 -0.1)">
       <use xlink:href="#DejaVuSans-31"/>
       <use xlink:href="#DejaVuSans-2e" x="63.623047"/>
       <use xlink:href="#DejaVuSans-32" x="95.410156"/>
       <use xlink:href="#DejaVuSans-35" x="159.033203"/>
      </g>
     </g>
    </g>
    <g id="xtick_7">
     <g id="line2d_7">
      <g>
       <use xlink:href="#m388bbc4ade" x="289.582813" y="253.44" style="stroke: #000000; stroke-width: 0.8"/>
      </g>
     </g>
     <g id="text_7">
      <!-- 1.50 -->
      <g transform="translate(278.45 268.038437) scale(0.1 -0.1)">
       <use xlink:href="#DejaVuSans-31"/>
       <use xlink:href="#DejaVuSans-2e" x="63.623047"/>
       <use xlink:href="#DejaVuSans-35" x="95.410156"/>
       <use xlink:href="#DejaVuSans-30" x="159.033203"/>
      </g>
     </g>
    </g>
    <g id="xtick_8">
     <g id="line2d_8">
      <g>
       <use xlink:href="#m388bbc4ade" x="331.432813" y="253.44" style="stroke: #000000; stroke-width: 0.8"/>
      </g>
     </g>
     <g id="text_8">
      <!-- 1.75 -->
      <g transform="translate(320.3 268.038437) scale(0.1 -0.1)">
       <use xlink:href="#DejaVuSans-31"/>
       <use xlink:href="#DejaVuSans-2e" x="63.623047"/>
       <use xlink:href="#DejaVuSans-37" x="95.410156"/>
       <use xlink:href="#DejaVuSans-35" x="159.033203"/>
      </g>
     </g>
    </g>
    <g id="xtick_9">
     <g id="line2d_9">
      <g>
       <use xlink:href="#m388bbc4ade" x="373.282813" y="253.44" style="stroke: #000000; stroke-width: 0.8"/>
      </g>
     </g>
     <g id="text_9">
      <!-- 2.00 -->
      <g transform="translate(362.15 268.038437) scale(0.1 -0.1)">
       <use xlink:href="#DejaVuSans-32"/>
       <use xlink:href="#DejaVuSans-2e" x="63.623047"/>
       <use xlink:href="#DejaVuSans-30" x="95.410156"/>
       <use xlink:href="#DejaVuSans-30" x="159.033203"/>
      </g>
     </g>
    </g>
    <g id="text_10">
     <!-- $t$ -->
     <g transform="translate(203.882812 281.716562) scale(0.1 -0.1)">
      <defs>
       <path id="DejaVuSans-Oblique-74" d="M 2706 3500 
L 2619 3053 
L 1472 3053 
L 1100 1153 
Q 1081 1047 1072 975 
Q 1063 903 1063 863 
Q 1063 663 1183 572 
Q 1303 481 1569 481 
L 2150 481 
L 2053 0 
L 1503 0 
Q 991 0 739 200 
Q 488 400 488 806 
Q 488 878 497 964 
Q 506 1050 525 1153 
L 897 3053 
L 409 3053 
L 500 3500 
L 978 3500 
L 1172 4494 
L 1747 4494 
L 1556 3500 
L 2706 3500 
z
" transform="scale(0.015625)"/>
      </defs>
      <use xlink:href="#DejaVuSans-Oblique-74" transform="translate(0 0.78125)"/>
     </g>
    </g>
   </g>
   <g id="matplotlib.axis_2">
    <g id="ytick_1">
     <g id="line2d_10">
      <defs>
       <path id="m346ca23c28" d="M 0 0 
L -3.5 0 
" style="stroke: #000000; stroke-width: 0.8"/>
      </defs>
      <g>
       <use xlink:href="#m346ca23c28" x="38.482813" y="234.066789" style="stroke: #000000; stroke-width: 0.8"/>
      </g>
     </g>
     <g id="text_11">
      <!-- −1.0 -->
      <g transform="translate(7.2 237.866008) scale(0.1 -0.1)">
       <defs>
        <path id="DejaVuSans-2212" d="M 678 2272 
L 4684 2272 
L 4684 1741 
L 678 1741 
L 678 2272 
z
" transform="scale(0.015625)"/>
       </defs>
       <use xlink:href="#DejaVuSans-2212"/>
       <use xlink:href="#DejaVuSans-31" x="83.789062"/>
       <use xlink:href="#DejaVuSans-2e" x="147.412109"/>
       <use xlink:href="#DejaVuSans-30" x="179.199219"/>
      </g>
     </g>
    </g>
    <g id="ytick_2">
     <g id="line2d_11">
      <g>
       <use xlink:href="#m346ca23c28" x="38.482813" y="198.592219" style="stroke: #000000; stroke-width: 0.8"/>
      </g>
     </g>
     <g id="text_12">
      <!-- −0.8 -->
      <g transform="translate(7.2 202.391438) scale(0.1 -0.1)">
       <defs>
        <path id="DejaVuSans-38" d="M 2034 2216 
Q 1584 2216 1326 1975 
Q 1069 1734 1069 1313 
Q 1069 891 1326 650 
Q 1584 409 2034 409 
Q 2484 409 2743 651 
Q 3003 894 3003 1313 
Q 3003 1734 2745 1975 
Q 2488 2216 2034 2216 
z
M 1403 2484 
Q 997 2584 770 2862 
Q 544 3141 544 3541 
Q 544 4100 942 4425 
Q 1341 4750 2034 4750 
Q 2731 4750 3128 4425 
Q 3525 4100 3525 3541 
Q 3525 3141 3298 2862 
Q 3072 2584 2669 2484 
Q 3125 2378 3379 2068 
Q 3634 1759 3634 1313 
Q 3634 634 3220 271 
Q 2806 -91 2034 -91 
Q 1263 -91 848 271 
Q 434 634 434 1313 
Q 434 1759 690 2068 
Q 947 2378 1403 2484 
z
M 1172 3481 
Q 1172 3119 1398 2916 
Q 1625 2713 2034 2713 
Q 2441 2713 2670 2916 
Q 2900 3119 2900 3481 
Q 2900 3844 2670 4047 
Q 2441 4250 2034 4250 
Q 1625 4250 1398 4047 
Q 1172 3844 1172 3481 
z
" transform="scale(0.015625)"/>
       </defs>
       <use xlink:href="#DejaVuSans-2212"/>
       <use xlink:href="#DejaVuSans-30" x="83.789062"/>
       <use xlink:href="#DejaVuSans-2e" x="147.412109"/>
       <use xlink:href="#DejaVuSans-38" x="179.199219"/>
      </g>
     </g>
    </g>
    <g id="ytick_3">
     <g id="line2d_12">
      <g>
       <use xlink:href="#m346ca23c28" x="38.482813" y="163.117648" style="stroke: #000000; stroke-width: 0.8"/>
      </g>
     </g>
     <g id="text_13">
      <!-- −0.6 -->
      <g transform="translate(7.2 166.916867) scale(0.1 -0.1)">
       <defs>
        <path id="DejaVuSans-36" d="M 2113 2584 
Q 1688 2584 1439 2293 
Q 1191 2003 1191 1497 
Q 1191 994 1439 701 
Q 1688 409 2113 409 
Q 2538 409 2786 701 
Q 3034 994 3034 1497 
Q 3034 2003 2786 2293 
Q 2538 2584 2113 2584 
z
M 3366 4563 
L 3366 3988 
Q 3128 4100 2886 4159 
Q 2644 4219 2406 4219 
Q 1781 4219 1451 3797 
Q 1122 3375 1075 2522 
Q 1259 2794 1537 2939 
Q 1816 3084 2150 3084 
Q 2853 3084 3261 2657 
Q 3669 2231 3669 1497 
Q 3669 778 3244 343 
Q 2819 -91 2113 -91 
Q 1303 -91 875 529 
Q 447 1150 447 2328 
Q 447 3434 972 4092 
Q 1497 4750 2381 4750 
Q 2619 4750 2861 4703 
Q 3103 4656 3366 4563 
z
" transform="scale(0.015625)"/>
       </defs>
       <use xlink:href="#DejaVuSans-2212"/>
       <use xlink:href="#DejaVuSans-30" x="83.789062"/>
       <use xlink:href="#DejaVuSans-2e" x="147.412109"/>
       <use xlink:href="#DejaVuSans-36" x="179.199219"/>
      </g>
     </g>
    </g>
    <g id="ytick_4">
     <g id="line2d_13">
      <g>
       <use xlink:href="#m346ca23c28" x="38.482813" y="127.643078" style="stroke: #000000; stroke-width: 0.8"/>
      </g>
     </g>
     <g id="text_14">
      <!-- −0.4 -->
      <g transform="translate(7.2 131.442297) scale(0.1 -0.1)">
       <defs>
        <path id="DejaVuSans-34" d="M 2419 4116 
L 825 1625 
L 2419 1625 
L 2419 4116 
z
M 2253 4666 
L 3047 4666 
L 3047 1625 
L 3713 1625 
L 3713 1100 
L 3047 1100 
L 3047 0 
L 2419 0 
L 2419 1100 
L 313 1100 
L 313 1709 
L 2253 4666 
z
" transform="scale(0.015625)"/>
       </defs>
       <use xlink:href="#DejaVuSans-2212"/>
       <use xlink:href="#DejaVuSans-30" x="83.789062"/>
       <use xlink:href="#DejaVuSans-2e" x="147.412109"/>
       <use xlink:href="#DejaVuSans-34" x="179.199219"/>
      </g>
     </g>
    </g>
    <g id="ytick_5">
     <g id="line2d_14">
      <g>
       <use xlink:href="#m346ca23c28" x="38.482813" y="92.168508" style="stroke: #000000; stroke-width: 0.8"/>
      </g>
     </g>
     <g id="text_15">
      <!-- −0.2 -->
      <g transform="translate(7.2 95.967727) scale(0.1 -0.1)">
       <use xlink:href="#DejaVuSans-2212"/>
       <use xlink:href="#DejaVuSans-30" x="83.789062"/>
       <use xlink:href="#DejaVuSans-2e" x="147.412109"/>
       <use xlink:href="#DejaVuSans-32" x="179.199219"/>
      </g>
     </g>
    </g>
    <g id="ytick_6">
     <g id="line2d_15">
      <g>
       <use xlink:href="#m346ca23c28" x="38.482813" y="56.693938" style="stroke: #000000; stroke-width: 0.8"/>
      </g>
     </g>
     <g id="text_16">
      <!-- 0.0 -->
      <g transform="translate(15.579688 60.493156) scale(0.1 -0.1)">
       <use xlink:href="#DejaVuSans-30"/>
       <use xlink:href="#DejaVuSans-2e" x="63.623047"/>
       <use xlink:href="#DejaVuSans-30" x="95.410156"/>
      </g>
     </g>
    </g>
   </g>
   <g id="line2d_16">
    <path d="M 38.650213 56.693938 
L 38.817613 52.193958 
L 39.152413 61.514532 
L 39.319813 61.113881 
L 39.487212 54.605139 
L 39.654612 56.60785 
L 39.822012 55.252894 
L 39.989413 55.907053 
L 40.156813 45.883636 
L 40.491613 61.215356 
L 40.993813 55.377671 
L 41.161213 51.11018 
L 41.328612 55.851812 
L 41.496012 53.659111 
L 41.663412 65.257731 
L 41.830813 56.364196 
L 41.998213 59.295103 
L 42.333013 49.852141 
L 42.667813 63.028889 
L 42.835213 60.264962 
L 43.002612 64.154554 
L 43.170012 57.629813 
L 43.337412 56.529973 
L 43.504812 60.13269 
L 43.672213 54.40806 
L 43.839613 58.7319 
L 44.007013 55.918357 
L 44.174413 62.214072 
L 44.341813 58.73892 
L 44.509213 58.531347 
L 44.676613 53.656759 
L 45.011412 62.112733 
L 45.178812 64.090117 
L 45.346213 63.856917 
L 45.513613 58.242883 
L 45.848413 62.880278 
L 46.015813 66.868519 
L 46.183213 64.351834 
L 46.350613 66.258699 
L 46.518012 57.108725 
L 46.685412 58.58977 
L 47.020212 67.268727 
L 47.187613 66.262402 
L 47.355013 66.477786 
L 47.522413 61.448157 
L 47.689813 61.266165 
L 47.857213 70.47583 
L 48.024613 68.328252 
L 48.192013 63.309691 
L 48.359413 62.642514 
L 48.526813 69.797825 
L 48.694212 64.311928 
L 48.861612 72.951657 
L 49.029013 66.298728 
L 49.196413 71.384026 
L 49.531213 59.2186 
L 49.698613 67.044623 
L 49.866013 65.974646 
L 50.200813 71.248297 
L 50.368213 64.652531 
L 50.535612 71.680817 
L 50.703012 67.394065 
L 50.870413 75.830697 
L 51.037813 77.18914 
L 51.205213 66.82127 
L 51.540013 75.278055 
L 51.707413 68.732979 
L 52.042213 78.075682 
L 52.711813 66.163184 
L 52.879213 68.918401 
L 53.046613 86.697808 
L 53.214013 74.440553 
L 53.381413 72.877394 
L 53.716212 77.750964 
L 53.883612 72.967791 
L 54.051012 81.85794 
L 54.218412 79.573016 
L 54.385813 79.87834 
L 54.553213 75.64175 
L 54.720613 76.381599 
L 54.888013 76.299345 
L 55.055413 85.260324 
L 55.222813 85.898084 
L 55.390213 83.909086 
L 55.725013 78.59476 
L 55.892413 81.676326 
L 56.059812 78.57887 
L 56.227213 81.375249 
L 56.394613 88.075307 
L 56.562013 83.718317 
L 56.729413 82.889407 
L 57.064213 93.020152 
L 57.399012 84.002473 
L 57.566412 90.913579 
L 58.068613 82.545758 
L 58.236013 92.145154 
L 58.570813 87.357751 
L 58.905613 98.991847 
L 59.073013 87.293522 
L 59.240413 85.299189 
L 59.407813 95.328451 
L 59.742613 89.902871 
L 59.910013 90.300858 
L 60.077413 92.935285 
L 60.412213 89.772812 
L 60.579613 87.617012 
L 61.081813 98.656936 
L 61.249212 96.608518 
L 61.416612 91.100304 
L 61.584013 90.632702 
L 61.918813 101.493684 
L 62.253613 90.474346 
L 62.421013 96.731517 
L 62.588413 95.571472 
L 62.755813 91.871786 
L 62.923213 93.303739 
L 63.090613 101.523354 
L 63.258012 99.450539 
L 63.425413 100.688739 
L 63.592813 95.865635 
L 63.760213 98.105827 
L 63.927613 95.563863 
L 64.095012 99.86654 
L 64.262413 109.715906 
L 64.429812 99.752172 
L 64.597212 101.943037 
L 64.764612 97.852205 
L 64.932012 102.976373 
L 65.099412 98.679317 
L 65.266813 97.483832 
L 65.601613 107.045885 
L 65.769013 102.94339 
L 65.936413 101.79044 
L 66.103813 106.060388 
L 66.271213 103.858235 
L 66.438613 97.622779 
L 66.606013 103.999916 
L 66.773413 103.772137 
L 66.940813 106.354259 
L 67.108213 105.278583 
L 67.275613 102.312636 
L 67.443013 108.763357 
L 67.610413 106.310056 
L 67.777813 110.469466 
L 67.945212 104.351365 
L 68.112612 110.372849 
L 68.280012 104.611634 
L 68.447412 104.534246 
L 68.614812 102.762579 
L 68.782212 106.905286 
L 68.949613 115.863407 
L 69.117013 104.165525 
L 69.451813 100.634915 
L 69.619213 113.097131 
L 69.786613 117.2088 
L 70.121413 108.118113 
L 70.288813 106.680046 
L 70.456213 110.234315 
L 70.623613 109.589684 
L 70.791012 116.483492 
L 70.958413 103.218502 
L 71.293213 113.696086 
L 71.460612 110.984743 
L 71.628013 115.191676 
L 71.795412 115.793602 
L 71.962813 109.227218 
L 72.130212 110.612981 
L 72.465013 122.51471 
L 72.632413 116.48787 
L 72.799813 103.26584 
L 72.967213 108.248754 
L 73.134613 119.576978 
L 73.302013 119.588089 
L 73.469413 119.081854 
L 73.636812 120.372518 
L 73.971612 111.125927 
L 74.139013 120.702626 
L 74.473813 114.255232 
L 74.641212 124.396103 
L 74.808613 124.408782 
L 74.976012 113.584706 
L 75.143413 113.129506 
L 75.310812 122.077174 
L 75.478213 121.43123 
L 75.645612 120.072171 
L 75.813013 115.921609 
L 75.980412 122.910115 
L 76.147813 117.524781 
L 76.315213 117.705931 
L 76.482613 127.870158 
L 76.817413 121.853496 
L 76.984813 123.762967 
L 77.152213 119.774177 
L 77.319613 120.369732 
L 77.487013 122.409009 
L 77.654413 127.166276 
L 77.821813 115.704165 
L 78.156613 126.045662 
L 78.324013 123.465102 
L 78.658813 129.891426 
L 78.993613 121.506218 
L 79.161012 127.651753 
L 79.495812 119.482863 
L 79.663213 122.293051 
L 79.830613 128.80602 
L 79.998013 126.726477 
L 80.165413 128.85466 
L 80.332813 126.188172 
L 80.667613 128.807713 
L 80.835013 135.386764 
L 81.169813 120.650302 
L 81.337213 125.304713 
L 81.504613 133.322923 
L 81.839413 125.144535 
L 82.006812 126.478264 
L 82.174213 131.459568 
L 82.341612 130.930369 
L 82.509013 132.877103 
L 82.676412 127.494049 
L 82.843813 126.936935 
L 83.011212 132.438018 
L 83.178613 132.010177 
L 83.346013 130.414294 
L 83.513413 131.356052 
L 83.680813 129.30257 
L 83.848213 132.108721 
L 84.015613 132.149819 
L 84.183013 138.121446 
L 84.350413 131.15511 
L 84.517813 133.437837 
L 84.685213 137.516682 
L 84.852613 130.655534 
L 85.187413 134.802039 
L 85.354813 134.982506 
L 85.522213 133.756921 
L 85.689613 137.170215 
L 85.857013 136.469146 
L 86.191813 133.014607 
L 86.359213 138.909216 
L 86.526612 138.050997 
L 86.694013 132.046073 
L 86.861413 134.207728 
L 87.028813 141.664136 
L 87.196213 135.335196 
L 87.363613 144.095416 
L 87.698413 131.623956 
L 87.865813 140.026666 
L 88.033212 133.911442 
L 88.368012 145.529355 
L 88.535413 138.851606 
L 88.870213 142.734391 
L 89.037612 141.212377 
L 89.205013 143.859063 
L 89.372412 140.15568 
L 89.707212 145.817007 
L 89.874613 139.001453 
L 90.209412 144.409014 
L 90.376812 141.394977 
L 90.544213 147.406066 
L 90.711613 143.790631 
L 90.879013 147.022578 
L 91.213813 140.791113 
L 91.381213 142.40922 
L 91.548613 151.888631 
L 91.716013 151.06295 
L 91.883413 146.104653 
L 92.050813 149.212654 
L 92.218213 146.279005 
L 92.385613 146.787986 
L 92.887812 153.757675 
L 93.222612 146.779725 
L 93.390013 142.723692 
L 93.557412 148.787366 
L 93.724813 144.47216 
L 94.059613 153.97156 
L 94.227013 150.026234 
L 94.394413 150.160066 
L 94.729213 156.172396 
L 94.896613 154.144077 
L 95.064013 154.118555 
L 95.231413 147.588703 
L 95.566213 154.405416 
L 95.733613 149.352096 
L 95.901013 156.042848 
L 96.068413 158.045918 
L 96.235813 154.695207 
L 96.403213 157.398706 
L 96.738013 148.536456 
L 96.905413 155.113932 
L 97.072813 153.921405 
L 97.240213 159.458384 
L 97.407612 160.639477 
L 97.742413 156.066586 
L 97.909813 160.425341 
L 98.077213 153.703727 
L 98.244613 152.5632 
L 98.412013 156.808289 
L 98.579413 154.142118 
L 98.746813 157.415607 
L 98.914212 156.569406 
L 99.249012 165.12109 
L 99.583812 163.216053 
L 99.751213 151.762641 
L 99.918612 158.291723 
L 100.253412 157.16784 
L 100.420813 158.312166 
L 100.588212 166.43942 
L 100.755613 159.393869 
L 100.923012 158.009034 
L 101.090413 166.139415 
L 101.257812 159.230817 
L 101.425213 165.836391 
L 101.592613 164.688255 
L 101.760013 154.824673 
L 102.094813 165.27831 
L 102.262213 163.304597 
L 102.429613 169.253831 
L 102.764412 158.916274 
L 102.931813 172.151498 
L 103.099212 174.131703 
L 103.266613 166.566893 
L 103.434012 169.471567 
L 103.601413 168.492572 
L 103.768812 165.205036 
L 103.936213 176.353704 
L 104.103612 165.178772 
L 104.271013 166.176646 
L 104.438412 172.542511 
L 104.605813 167.122659 
L 104.773212 167.36373 
L 104.940613 173.47371 
L 105.108013 173.814859 
L 105.275413 166.911373 
L 105.442813 172.067669 
L 105.610213 172.535528 
L 105.777613 168.408214 
L 106.112413 175.318079 
L 106.279813 169.420855 
L 106.447213 180.102137 
L 106.782013 170.275705 
L 106.949413 179.520956 
L 107.116813 176.494555 
L 107.284212 179.374879 
L 107.619012 169.075187 
L 107.953812 181.132484 
L 108.121213 176.409445 
L 108.456013 174.158643 
L 108.623413 185.641841 
L 108.790812 184.247249 
L 108.958213 172.846872 
L 109.125612 171.624009 
L 109.293013 180.747094 
L 109.460412 176.577079 
L 109.627813 168.375168 
L 109.795212 185.603324 
L 109.962613 176.823363 
L 110.297413 182.336197 
L 110.464812 178.821679 
L 110.632213 179.170932 
L 110.799612 178.944568 
L 110.967013 175.796479 
L 111.134412 180.475243 
L 111.469212 176.133329 
L 111.804012 181.765263 
L 111.971413 181.419128 
L 112.138813 184.68647 
L 112.306213 185.103401 
L 112.473613 181.954902 
L 112.641013 189.270459 
L 112.808413 186.623748 
L 112.975813 190.936958 
L 113.143213 189.229905 
L 113.310613 181.607893 
L 113.478013 186.746067 
L 113.645412 187.328102 
L 113.812813 186.080892 
L 113.980212 179.256388 
L 114.315012 183.973024 
L 114.482413 183.08268 
L 114.649812 188.561468 
L 114.817213 181.783985 
L 114.984612 185.369152 
L 115.152013 195.760081 
L 115.319412 194.37497 
L 115.486813 185.339951 
L 115.654212 194.059533 
L 115.989013 187.272187 
L 116.156413 186.668491 
L 116.491213 194.962856 
L 116.658613 185.923508 
L 116.826013 186.460127 
L 116.993413 195.174738 
L 117.160813 195.96634 
L 117.328213 188.292309 
L 117.663013 197.091506 
L 117.830413 187.798043 
L 117.997813 191.788494 
L 118.165213 190.1052 
L 118.332613 196.967551 
L 118.667413 190.504329 
L 118.834812 192.423507 
L 119.002213 197.005534 
L 119.169612 189.89082 
L 119.504413 201.357489 
L 119.671813 196.32214 
L 119.839213 197.122237 
L 120.174013 193.197471 
L 120.341412 196.989572 
L 120.508813 197.659983 
L 120.676212 196.107467 
L 120.843613 200.387894 
L 121.011012 195.949683 
L 121.178413 196.032074 
L 121.345812 195.185485 
L 121.513213 200.211795 
L 121.680612 193.974206 
L 122.015412 197.236831 
L 122.182813 196.411736 
L 122.517613 200.907239 
L 122.685012 202.321965 
L 122.852413 197.130496 
L 123.187213 199.259824 
L 123.354613 194.681645 
L 123.689413 203.697604 
L 124.024213 197.914414 
L 124.191613 200.868431 
L 124.359013 193.62135 
L 124.526413 200.902438 
L 124.693813 202.919388 
L 124.861212 196.419047 
L 125.028613 203.005686 
L 125.363413 194.35207 
L 125.530812 205.406832 
L 125.698213 200.350252 
L 125.865612 199.898233 
L 126.033013 205.767276 
L 126.200412 200.613166 
L 126.535213 209.484007 
L 126.702613 201.314057 
L 126.870013 207.859898 
L 127.037413 200.004455 
L 127.204813 201.652417 
L 127.372213 206.166626 
L 127.539613 204.670929 
L 127.707013 205.882916 
L 127.874413 211.997136 
L 128.041813 199.128877 
L 128.376613 209.583432 
L 128.544013 203.427181 
L 128.711413 207.210583 
L 128.878813 206.462427 
L 129.046213 201.13748 
L 129.213613 211.502641 
L 129.548413 208.496507 
L 129.715812 205.387342 
L 129.883213 207.344656 
L 130.050612 212.091317 
L 130.385413 207.765237 
L 130.720213 207.1612 
L 130.887613 214.631348 
L 131.055013 207.378777 
L 131.222413 205.959851 
L 131.557213 215.600943 
L 131.724613 211.596142 
L 131.892013 210.973558 
L 132.059413 211.487221 
L 132.226813 216.978839 
L 132.394213 211.053801 
L 132.561613 211.193677 
L 132.729013 218.976138 
L 132.896413 205.649988 
L 133.231213 215.754038 
L 133.398613 205.995488 
L 133.566013 207.351521 
L 133.900813 212.110622 
L 134.068213 212.505194 
L 134.235613 212.340008 
L 134.403013 211.97007 
L 134.570413 210.469831 
L 134.737813 210.312868 
L 134.905213 214.113274 
L 135.072612 210.439881 
L 135.240013 212.353249 
L 135.407412 221.502037 
L 135.574813 211.121371 
L 135.742212 213.904692 
L 135.909613 210.584304 
L 136.077012 217.181185 
L 136.244413 217.283212 
L 136.411812 214.341811 
L 136.746612 219.932301 
L 136.914013 220.702269 
L 137.081412 213.044893 
L 137.248812 223.294871 
L 137.416213 208.167137 
L 137.583612 210.008453 
L 137.751013 219.653084 
L 137.918412 217.527498 
L 138.085813 217.699672 
L 138.420613 211.507686 
L 138.588012 218.25426 
L 138.922812 212.208146 
L 139.090213 216.135988 
L 139.257612 213.806867 
L 139.425013 214.872657 
L 139.592412 217.691388 
L 139.759813 214.538747 
L 139.927212 222.192851 
L 140.094613 220.319607 
L 140.262012 210.935051 
L 140.429413 221.072634 
L 140.596812 219.25247 
L 140.764213 214.384502 
L 141.099013 219.504974 
L 141.266413 216.463665 
L 141.433813 221.186911 
L 141.601213 221.269828 
L 141.768613 219.809487 
L 141.936013 219.428477 
L 142.103412 222.856804 
L 142.270813 222.098912 
L 142.605613 222.7795 
L 142.773012 219.030376 
L 143.107812 220.13871 
L 143.275213 223.99187 
L 143.610013 220.362412 
L 143.777412 226.666967 
L 143.944813 219.871181 
L 144.112212 222.923452 
L 144.279613 223.335321 
L 144.447012 217.634532 
L 144.614413 217.499359 
L 144.781813 225.082184 
L 145.116613 214.53063 
L 145.451413 225.90254 
L 145.618813 215.446208 
L 145.953613 222.713538 
L 146.121013 218.659956 
L 146.288413 220.218649 
L 146.455813 222.952539 
L 146.790613 219.539886 
L 146.958012 219.777933 
L 147.125413 230.035809 
L 147.460213 217.437807 
L 147.795013 226.833295 
L 147.962412 220.222583 
L 148.129813 220.048161 
L 148.297213 225.034574 
L 148.464613 221.229063 
L 148.632013 225.675464 
L 148.799413 226.401911 
L 148.966813 219.466302 
L 149.301613 225.93872 
L 149.469013 219.465782 
L 149.636413 231.365261 
L 149.971213 218.217452 
L 150.138613 227.19756 
L 150.306013 221.779439 
L 150.473413 227.498974 
L 150.640813 227.700731 
L 150.808213 219.906962 
L 150.975613 229.732011 
L 151.143013 228.73109 
L 151.310413 218.735738 
L 151.477812 226.531091 
L 151.645213 228.561993 
L 151.812613 216.826245 
L 151.980013 226.902297 
L 152.147413 218.497621 
L 152.314813 230.44945 
L 152.482213 225.122544 
L 152.649613 215.340051 
L 152.984413 230.520906 
L 153.319213 216.079465 
L 153.486613 223.969573 
L 153.654013 221.237249 
L 153.988813 223.888977 
L 154.156213 227.610838 
L 154.323613 221.823382 
L 154.491013 226.772599 
L 154.658413 224.607684 
L 154.825813 225.019295 
L 154.993213 223.194336 
L 155.160613 223.820393 
L 155.328013 225.73735 
L 155.495413 230.921208 
L 155.662813 221.453882 
L 155.830213 227.559733 
L 155.997613 226.691364 
L 156.165013 219.504549 
L 156.332413 230.107385 
L 156.499812 226.397114 
L 156.667213 220.108682 
L 156.834612 227.034881 
L 157.002013 224.188994 
L 157.169412 226.273858 
L 157.336813 232.922718 
L 157.504212 222.105201 
L 157.839012 229.09915 
L 158.006413 226.035885 
L 158.173812 229.107904 
L 158.341213 223.927986 
L 158.508612 225.694506 
L 158.676013 232.944486 
L 158.843412 223.76473 
L 159.010813 223.861671 
L 159.178213 230.849694 
L 159.345612 227.139933 
L 159.513013 227.69029 
L 159.680412 225.365534 
L 159.847813 228.849599 
L 160.015212 222.87168 
L 160.350012 229.828862 
L 160.517413 221.760652 
L 160.852213 229.452256 
L 161.019612 226.734144 
L 161.187013 229.352875 
L 161.354412 223.786231 
L 161.521813 231.315049 
L 161.689212 230.265925 
L 161.856613 217.081233 
L 162.024012 231.845636 
L 162.191413 225.182731 
L 162.358812 225.392246 
L 162.526213 233.523587 
L 162.693613 225.987729 
L 162.861013 223.871911 
L 163.028413 229.984476 
L 163.195813 229.646673 
L 163.363213 232.233915 
L 163.698013 221.335507 
L 163.865413 234.363163 
L 164.032813 225.640725 
L 164.200212 230.686765 
L 164.367613 227.663285 
L 164.535012 229.398107 
L 164.702413 229.52667 
L 164.869812 223.69098 
L 165.037213 226.428063 
L 165.204612 233.122292 
L 165.372013 225.289412 
L 165.539412 232.239656 
L 165.874212 221.79368 
L 166.041613 232.589943 
L 166.209013 227.338997 
L 166.376413 226.150393 
L 166.543813 227.353985 
L 166.711212 224.679735 
L 166.878613 234.225233 
L 167.046012 225.45661 
L 167.213413 227.435588 
L 167.380812 235.242008 
L 167.548213 222.431202 
L 167.715612 229.538364 
L 167.883013 229.541002 
L 168.050412 221.463608 
L 168.217813 228.953641 
L 168.385212 227.635163 
L 168.552613 231.260919 
L 168.887413 225.12117 
L 169.054812 232.642264 
L 169.389612 222.826907 
L 169.557013 228.042491 
L 169.724412 228.656609 
L 169.891813 234.819079 
L 170.059213 230.762668 
L 170.226613 218.951336 
L 170.394013 230.88523 
L 170.561413 230.495486 
L 170.728813 229.502964 
L 170.896213 230.773127 
L 171.063613 228.696177 
L 171.231012 229.969843 
L 171.398413 229.554618 
L 171.565812 222.446762 
L 171.900612 231.999057 
L 172.235412 225.37778 
L 172.402813 232.035858 
L 172.570212 230.081705 
L 172.737613 223.197198 
L 172.905012 230.668538 
L 173.072413 230.063285 
L 173.239812 226.511439 
L 173.407213 233.577686 
L 173.574613 228.085488 
L 173.742013 227.66531 
L 173.909413 232.572914 
L 174.076813 226.261268 
L 174.244213 234.596615 
L 174.579013 222.003574 
L 174.746413 237.088878 
L 174.913813 225.261079 
L 175.081213 225.828686 
L 175.248613 233.148039 
L 175.416013 220.635241 
L 175.583413 234.979871 
L 175.918213 218.327244 
L 176.085612 233.731766 
L 176.253013 229.809937 
L 176.420412 235.317744 
L 176.587813 233.450197 
L 176.755212 227.443639 
L 176.922613 232.726345 
L 177.090013 234.097283 
L 177.257413 222.893725 
L 177.424813 230.356835 
L 177.759613 233.943086 
L 177.927012 225.647501 
L 178.094413 227.174051 
L 178.261812 232.539811 
L 178.429213 227.44275 
L 178.596612 233.919385 
L 178.764013 226.187409 
L 179.098812 228.909444 
L 179.266212 227.212467 
L 179.601012 231.419759 
L 179.768412 228.844207 
L 179.935812 234.670785 
L 180.270612 223.922057 
L 180.438012 230.826689 
L 180.605412 231.312357 
L 180.772812 232.823986 
L 180.940213 233.277713 
L 181.107612 222.655222 
L 181.275013 233.107145 
L 181.442412 231.778265 
L 181.609813 225.279273 
L 181.777212 233.742235 
L 182.112012 229.235552 
L 182.279413 228.639076 
L 182.446812 230.259459 
L 182.614213 230.41355 
L 182.781612 233.892546 
L 182.949013 223.456783 
L 183.116412 231.086485 
L 183.283813 229.271645 
L 183.451212 228.908867 
L 183.618613 228.915827 
L 183.786012 234.87825 
L 183.953412 226.925764 
L 184.288212 234.915372 
L 184.455613 225.470341 
L 184.790413 231.506361 
L 184.957812 229.46919 
L 185.125213 232.166158 
L 185.292612 228.284897 
L 185.460013 227.583794 
L 185.627412 231.81094 
L 185.794813 230.068506 
L 185.962212 230.65718 
L 186.129613 230.297667 
L 186.297012 222.262333 
L 186.464413 236.7458 
L 186.799213 227.520668 
L 186.966612 236.612805 
L 187.134013 226.612376 
L 187.301412 232.848648 
L 187.468813 234.170501 
L 187.636212 224.068428 
L 187.803613 233.921402 
L 188.138413 227.612739 
L 188.305813 231.249738 
L 188.473213 229.330949 
L 188.640613 234.046713 
L 188.808012 225.450589 
L 189.142812 233.648768 
L 189.310213 225.22474 
L 189.645013 233.387846 
L 189.812412 231.028275 
L 189.979813 231.989239 
L 190.314613 229.146843 
L 190.482012 231.917115 
L 190.649413 226.909838 
L 190.816812 233.058746 
L 190.984213 229.292687 
L 191.151612 230.793385 
L 191.319013 228.21364 
L 191.486413 230.454923 
L 191.653813 230.926704 
L 191.821213 233.351523 
L 191.988613 227.525611 
L 192.323413 232.95373 
L 192.490813 230.628347 
L 192.658213 231.537675 
L 192.825613 230.543131 
L 192.993013 228.265676 
L 193.160413 234.029022 
L 193.327812 232.853746 
L 193.662612 224.922404 
L 193.830013 232.753293 
L 193.997412 230.617672 
L 194.164813 230.286036 
L 194.332212 234.422985 
L 194.499613 227.992923 
L 194.834413 232.606631 
L 195.001812 229.933467 
L 195.169213 232.811837 
L 195.336613 229.763907 
L 195.504013 235.219975 
L 195.838813 228.349411 
L 196.006213 228.664643 
L 196.173613 226.52393 
L 196.508413 233.692503 
L 196.675813 227.210039 
L 196.843213 232.991376 
L 197.010613 229.581721 
L 197.178013 229.756107 
L 197.345413 237.516628 
L 197.512813 229.671895 
L 197.680213 228.302052 
L 197.847613 234.005402 
L 198.015013 231.745939 
L 198.182412 226.318657 
L 198.349813 231.756484 
L 198.517212 231.379566 
L 198.684613 228.158162 
L 199.019413 233.447 
L 199.186813 231.927617 
L 199.354212 225.09439 
L 199.689012 235.869708 
L 199.856413 233.531057 
L 200.191213 227.011393 
L 200.358612 233.390692 
L 200.526013 232.320537 
L 200.693412 224.550142 
L 200.860813 236.844373 
L 201.028212 228.565908 
L 201.195612 228.341976 
L 201.363012 234.435366 
L 201.530412 230.34017 
L 201.697812 229.336508 
L 202.032612 233.042677 
L 202.200012 231.867987 
L 202.367413 227.80788 
L 202.702213 233.568348 
L 202.869612 230.637515 
L 203.037013 231.494165 
L 203.204412 234.74987 
L 203.371813 229.109333 
L 203.539212 231.069116 
L 203.706613 225.232959 
L 203.874012 234.193521 
L 204.041413 232.851135 
L 204.208812 229.202847 
L 204.376213 232.90688 
L 204.543612 231.540388 
L 204.711013 231.584307 
L 204.878412 234.210717 
L 205.045813 233.078942 
L 205.213212 227.772146 
L 205.380613 234.684283 
L 205.882812 227.421587 
L 206.050213 236.323051 
L 206.217613 227.930004 
L 206.385013 234.980783 
L 206.719813 229.208901 
L 206.887213 232.418797 
L 207.054613 232.654863 
L 207.222013 230.14949 
L 207.389413 230.476143 
L 207.556813 231.579465 
L 207.724213 230.894907 
L 207.891613 229.593393 
L 208.059013 230.555778 
L 208.226413 238.448952 
L 208.393813 226.91087 
L 208.728613 236.015376 
L 208.896013 222.006381 
L 209.063413 225.656217 
L 209.230813 238.717159 
L 209.565613 230.356924 
L 209.733013 233.881849 
L 209.900413 233.945709 
L 210.235213 225.158166 
L 210.402612 239.233769 
L 210.737412 226.474664 
L 210.904812 231.966642 
L 211.239612 231.071091 
L 211.407012 229.243107 
L 211.574412 231.650171 
L 211.741812 230.263786 
L 211.909212 231.344714 
L 212.076612 230.453782 
L 212.244012 232.132782 
L 212.411412 235.846878 
L 212.578812 236.533505 
L 212.746212 230.7384 
L 212.913612 233.625767 
L 213.248413 227.900826 
L 213.583213 232.040224 
L 213.750612 228.152105 
L 213.918013 236.102059 
L 214.085412 229.956555 
L 214.252813 231.243109 
L 214.420212 234.31058 
L 214.587613 226.333453 
L 214.755012 235.903602 
L 214.922413 232.60409 
L 215.089812 225.69833 
L 215.257213 234.339832 
L 215.424612 229.544033 
L 215.592013 230.101995 
L 215.759412 233.354832 
L 216.094212 227.294525 
L 216.261613 232.765059 
L 216.429012 231.358399 
L 216.596413 232.091356 
L 216.763813 232.20055 
L 217.098613 234.979263 
L 217.433413 229.061072 
L 217.600813 230.740449 
L 217.768213 228.549025 
L 217.935613 224.568838 
L 218.103013 235.032461 
L 218.437813 232.391856 
L 218.605213 229.423888 
L 218.772612 232.782649 
L 218.940013 240.944 
L 219.274813 221.776533 
L 219.442212 237.586009 
L 219.777012 226.662084 
L 219.944413 238.740657 
L 220.279212 223.875438 
L 220.446612 238.30508 
L 220.781412 226.368303 
L 221.116212 237.033118 
L 221.451012 230.764087 
L 221.618413 231.863474 
L 221.785812 233.738639 
L 221.953213 233.927351 
L 222.455412 226.826875 
L 222.622813 234.063643 
L 222.957613 230.14591 
L 223.292413 234.596055 
L 223.459812 233.211532 
L 223.627213 229.351716 
L 223.794612 228.964534 
L 223.962013 232.693643 
L 224.129413 232.262936 
L 224.296813 234.319907 
L 224.464213 230.501442 
L 224.631613 235.269804 
L 224.799013 234.116793 
L 224.966413 228.681176 
L 225.301213 231.47653 
L 225.468613 230.444564 
L 225.636013 239.706575 
L 225.970813 226.410897 
L 226.138213 233.857574 
L 226.305613 233.7642 
L 226.473013 232.540474 
L 226.640413 230.004125 
L 226.807813 232.135204 
L 226.975213 235.955377 
L 227.310013 227.549475 
L 227.477413 230.877973 
L 227.644813 230.826849 
L 227.812213 235.564134 
L 227.979613 233.303377 
L 228.147012 223.51977 
L 228.314413 227.136259 
L 228.481812 235.730985 
L 228.984013 233.643453 
L 229.151412 230.182221 
L 229.318813 234.459749 
L 229.653613 232.125494 
L 229.821012 228.63929 
L 230.155812 234.99541 
L 230.323213 228.966602 
L 230.490612 229.164748 
L 230.825412 233.810624 
L 230.992813 228.621874 
L 231.160213 234.935018 
L 231.327613 229.714716 
L 231.495013 235.01728 
L 231.662412 229.97383 
L 231.829813 229.253625 
L 231.997212 233.420505 
L 232.164613 233.231956 
L 232.332012 230.477084 
L 232.499413 231.470158 
L 232.666812 229.596036 
L 232.834213 235.927861 
L 233.001612 233.244299 
L 233.169013 227.489751 
L 233.336412 234.434222 
L 233.503813 236.129955 
L 233.671212 228.052942 
L 233.838613 228.863128 
L 234.006012 235.66566 
L 234.173413 233.029999 
L 234.508213 234.752856 
L 234.843013 232.104206 
L 235.010413 226.801861 
L 235.177813 236.134039 
L 235.512613 229.058172 
L 235.847413 233.578989 
L 236.014812 233.21467 
L 236.182213 229.094712 
L 236.349612 230.418995 
L 236.517013 233.046158 
L 236.684412 230.587288 
L 237.019212 234.782649 
L 237.186613 226.312829 
L 237.354012 237.017256 
L 237.521412 233.836193 
L 237.688812 228.246428 
L 238.191012 236.330751 
L 238.358412 231.358448 
L 238.525813 231.390127 
L 238.693212 237.260371 
L 238.860613 228.284854 
L 239.195413 234.229298 
L 239.362812 225.22756 
L 239.697612 234.985127 
L 239.865013 226.234253 
L 240.199813 234.827856 
L 240.367212 233.694563 
L 240.534613 233.930523 
L 240.702012 232.882307 
L 240.869413 228.433503 
L 241.036812 235.627627 
L 241.371612 227.519232 
L 241.539013 232.093487 
L 241.706412 230.299345 
L 241.873813 235.335616 
L 242.208613 228.338856 
L 242.543413 233.024535 
L 242.710813 228.551439 
L 243.045613 235.568491 
L 243.380413 232.943784 
L 243.715213 234.82312 
L 244.050013 232.817835 
L 244.217413 232.40195 
L 244.384813 229.560214 
L 244.552213 238.424885 
L 244.887013 228.449123 
L 245.054413 232.805645 
L 245.221813 230.300839 
L 245.389212 235.226548 
L 245.556613 227.85337 
L 245.724012 229.051965 
L 245.891413 236.70134 
L 246.058812 237.247507 
L 246.393612 229.62799 
L 246.895813 235.788678 
L 247.063212 228.178247 
L 247.230613 234.209361 
L 247.398012 229.078336 
L 247.565413 234.927874 
L 247.732812 236.049177 
L 247.900213 223.158431 
L 248.067612 234.086089 
L 248.235013 235.722468 
L 248.402412 225.588052 
L 248.569813 232.747105 
L 248.737212 232.702972 
L 248.904613 225.105862 
L 249.072012 240.165591 
L 249.239413 236.883213 
L 249.406813 225.769425 
L 249.574213 235.742813 
L 249.741613 235.213679 
L 249.909013 228.240917 
L 250.076413 232.986678 
L 250.243813 232.597707 
L 250.411213 236.669941 
L 250.746013 225.823697 
L 250.913413 234.401944 
L 251.080813 233.615273 
L 251.248213 228.588674 
L 251.415613 234.481669 
L 251.583013 227.997104 
L 251.917813 239.188 
L 252.085213 229.312716 
L 252.252613 232.402626 
L 252.420013 239.027959 
L 252.587413 231.236255 
L 252.754813 237.447883 
L 252.922213 229.062304 
L 253.089613 230.672084 
L 253.257013 237.631022 
L 253.424413 232.739289 
L 253.591812 231.756004 
L 253.759213 229.37806 
L 253.926612 234.689789 
L 254.094013 229.8522 
L 254.428813 234.596458 
L 254.596212 227.01177 
L 254.763613 238.559279 
L 255.098412 233.498047 
L 255.265812 235.325636 
L 255.433212 235.835393 
L 255.768012 229.102787 
L 255.935412 229.230071 
L 256.102813 234.395233 
L 256.270213 234.031181 
L 256.437613 235.068248 
L 256.605012 231.083351 
L 256.772413 230.640103 
L 256.939813 235.037312 
L 257.107213 230.265552 
L 257.274612 232.512777 
L 257.442013 231.787116 
L 257.609413 237.647931 
L 257.776813 231.841134 
L 257.944212 231.627629 
L 258.111613 234.055285 
L 258.279013 229.228175 
L 258.446413 231.62562 
L 258.613812 238.335029 
L 258.781213 231.351415 
L 258.948613 232.448461 
L 259.283412 229.519428 
L 259.450813 235.274929 
L 259.785613 227.548633 
L 259.953012 236.199587 
L 260.120413 231.019304 
L 260.287813 231.622852 
L 260.455213 235.625158 
L 260.622613 227.687133 
L 260.957413 236.505743 
L 261.124813 229.227367 
L 261.292213 231.64804 
L 261.459613 231.542184 
L 261.794413 236.403647 
L 261.961813 229.426567 
L 262.129213 234.64815 
L 262.296613 229.416309 
L 262.631413 232.983377 
L 262.798813 228.393904 
L 262.966212 233.390174 
L 263.133613 234.781028 
L 263.301013 233.836806 
L 263.468413 233.865841 
L 263.635812 229.715679 
L 263.803213 230.975568 
L 263.970613 237.988935 
L 264.138013 230.343536 
L 264.305412 229.865061 
L 264.472813 236.986196 
L 264.640213 231.461689 
L 264.807613 236.604875 
L 265.309813 229.152541 
L 265.477213 230.891872 
L 265.644612 230.743832 
L 265.812013 228.002254 
L 265.979413 236.934723 
L 266.146813 237.252792 
L 266.314212 225.490313 
L 266.649013 238.889922 
L 266.816413 232.917472 
L 266.983812 231.351389 
L 267.151213 234.591048 
L 267.318613 229.908702 
L 267.653413 235.259068 
L 267.820813 226.724039 
L 267.988213 226.986807 
L 268.155613 236.761256 
L 268.323013 233.568242 
L 268.490413 228.011799 
L 268.657813 229.943603 
L 268.825213 236.675957 
L 268.992613 234.36986 
L 269.160013 236.766288 
L 269.327413 231.203138 
L 269.494813 231.157172 
L 269.662213 233.091878 
L 269.829613 227.851458 
L 269.997013 231.597877 
L 270.164413 227.917816 
L 270.331813 234.545177 
L 270.499213 234.151414 
L 270.834013 229.037925 
L 271.001413 230.142168 
L 271.168813 234.868452 
L 271.336213 233.804561 
L 271.503613 229.005785 
L 271.671013 230.476536 
L 271.838413 234.055202 
L 272.005813 232.031289 
L 272.173213 234.176734 
L 272.340613 233.824117 
L 272.508013 232.65142 
L 272.675412 233.525874 
L 272.842813 230.64604 
L 273.010213 233.831276 
L 273.177613 230.675446 
L 273.345012 235.654425 
L 273.512413 234.600493 
L 273.679813 226.311515 
L 273.847213 238.407027 
L 274.182012 227.211316 
L 274.349413 233.220906 
L 274.516813 233.33126 
L 274.684213 233.999394 
L 274.851612 231.755683 
L 275.019013 231.768516 
L 275.186413 236.703109 
L 275.353813 226.741944 
L 275.688613 234.980334 
L 275.856013 229.073721 
L 276.023413 233.772445 
L 276.190812 232.284823 
L 276.358213 234.202171 
L 276.693013 232.264921 
L 276.860412 228.555648 
L 277.027813 231.486837 
L 277.195213 231.347278 
L 277.362613 230.784165 
L 277.530012 230.770011 
L 277.697413 234.361812 
L 277.864813 233.357301 
L 278.032213 228.120315 
L 278.199613 233.602977 
L 278.367013 231.680983 
L 278.534413 233.830738 
L 278.869213 229.971456 
L 279.036613 235.161803 
L 279.371413 230.693052 
L 279.538813 236.73855 
L 279.706213 227.768277 
L 279.873613 232.497675 
L 280.041013 233.618261 
L 280.208413 228.353906 
L 280.543212 234.666706 
L 280.710613 232.141673 
L 280.878013 233.86454 
L 281.212812 226.958307 
L 281.380213 236.508934 
L 281.715013 231.73935 
L 281.882412 236.335278 
L 282.217213 226.277114 
L 282.384613 239.009209 
L 282.719413 224.674956 
L 282.886813 238.475582 
L 283.054213 234.312986 
L 283.221612 223.968027 
L 283.389013 234.161928 
L 283.556413 230.840102 
L 283.723813 230.909066 
L 283.891212 236.760369 
L 284.058613 230.787499 
L 284.226013 237.537499 
L 284.393413 227.123449 
L 284.728213 236.656167 
L 284.895613 226.529423 
L 285.063013 230.127805 
L 285.230412 236.840242 
L 285.397813 228.914258 
L 285.565213 229.320875 
L 285.732613 232.672491 
L 285.900013 227.833125 
L 286.067413 233.17834 
L 286.402213 236.29372 
L 286.569613 234.789882 
L 286.737013 227.621369 
L 287.071813 234.47215 
L 287.239213 232.248597 
L 287.406613 231.599575 
L 287.574013 232.331563 
L 287.741413 230.414107 
L 287.908813 230.000803 
L 288.076213 232.827879 
L 288.243613 231.453643 
L 288.411013 231.708528 
L 288.578413 233.928872 
L 288.745813 230.38575 
L 288.913213 230.774301 
L 289.080613 235.208728 
L 289.248013 225.643247 
L 289.415413 235.71559 
L 289.582813 237.229304 
L 289.750213 225.568439 
L 290.085013 235.592314 
L 290.252412 230.762906 
L 290.419813 235.250567 
L 290.587213 231.37824 
L 290.754613 230.340765 
L 290.922012 236.866077 
L 291.089413 228.597968 
L 291.424213 232.80108 
L 291.591612 230.407763 
L 291.759013 233.834053 
L 291.926413 229.019056 
L 292.093813 227.582552 
L 292.261212 237.934358 
L 292.596013 229.015783 
L 292.763413 230.776156 
L 292.930813 234.044999 
L 293.098213 234.574792 
L 293.265613 229.413103 
L 293.433013 230.162895 
L 293.600413 236.207338 
L 293.767813 235.661539 
L 293.935213 227.708724 
L 294.270013 233.150302 
L 294.437413 230.645493 
L 294.604813 236.573861 
L 294.772213 234.881162 
L 294.939613 224.512029 
L 295.274413 238.528478 
L 295.609213 227.253785 
L 295.944013 237.528161 
L 296.278813 228.473954 
L 296.446213 234.207764 
L 296.781013 232.465671 
L 296.948413 234.998621 
L 297.115813 225.312954 
L 297.283213 233.555206 
L 297.450613 232.126575 
L 297.618013 226.173553 
L 297.785413 235.309906 
L 297.952813 232.29954 
L 298.120213 238.069828 
L 298.455013 227.358051 
L 298.622413 237.836005 
L 298.957213 231.124924 
L 299.124613 231.420623 
L 299.292013 226.759612 
L 299.459413 241.25451 
L 299.626813 229.649473 
L 299.794213 228.738023 
L 299.961613 236.196454 
L 300.296413 225.272122 
L 300.463813 238.672371 
L 300.631213 227.977074 
L 300.966013 233.592234 
L 301.133413 235.590743 
L 301.468213 227.206576 
L 301.635613 236.02998 
L 301.803013 229.053763 
L 301.970413 231.48295 
L 302.137813 230.753545 
L 302.305213 234.096977 
L 302.472613 231.030382 
L 302.640013 232.217389 
L 302.807412 227.568997 
L 302.974813 237.749128 
L 303.142213 231.134181 
L 303.309613 232.2507 
L 303.644413 227.880752 
L 303.811813 235.112305 
L 303.979213 233.913877 
L 304.146613 234.611779 
L 304.314013 229.443896 
L 304.481413 234.71827 
L 304.816213 229.284692 
L 304.983613 229.378771 
L 305.151013 233.991515 
L 305.318413 234.986583 
L 305.485813 232.321858 
L 305.653213 231.834768 
L 305.820613 232.193101 
L 305.988013 233.677093 
L 306.155413 230.018144 
L 306.322813 233.456151 
L 306.490213 231.880133 
L 306.657613 232.494648 
L 306.992413 234.856029 
L 307.327213 228.056442 
L 307.662013 238.151833 
L 307.829413 225.66666 
L 308.164213 236.648178 
L 308.331613 226.159617 
L 308.499013 237.431198 
L 308.666413 236.430995 
L 308.833813 229.262238 
L 309.001213 233.208724 
L 309.168613 227.841724 
L 309.336013 229.021135 
L 309.503413 233.959098 
L 309.670813 228.179031 
L 309.838213 230.534917 
L 310.005613 234.475915 
L 310.173013 231.970832 
L 310.340413 233.151689 
L 310.507813 232.583229 
L 310.675213 229.84811 
L 310.842613 231.640356 
L 311.010013 230.331452 
L 311.177413 239.432959 
L 311.512213 225.302771 
L 311.679613 234.836452 
L 312.014413 230.691275 
L 312.181813 232.377714 
L 312.349213 230.53589 
L 312.516613 237.7295 
L 312.684013 228.084127 
L 312.851413 232.904906 
L 313.018813 234.503415 
L 313.186213 230.116617 
L 313.353613 235.976881 
L 313.521013 231.322256 
L 313.688413 230.207346 
L 313.855813 237.893566 
L 314.023213 230.412251 
L 314.190613 232.28142 
L 314.358013 236.920682 
L 314.525413 228.915851 
L 314.692813 234.254263 
L 314.860213 232.636647 
L 315.027613 228.519264 
L 315.195013 232.941888 
L 315.362413 232.491943 
L 315.529813 229.093076 
L 315.697213 235.647213 
L 315.864613 231.791822 
L 316.199413 235.222587 
L 316.366813 230.245049 
L 316.534213 229.480585 
L 316.701613 231.331725 
L 316.869013 230.719869 
L 317.036413 238.306207 
L 317.371213 224.189004 
L 317.538613 237.909861 
L 317.873413 225.097506 
L 318.040813 236.327193 
L 318.375613 229.59083 
L 318.543013 235.78347 
L 318.710413 231.407673 
L 318.877813 223.685734 
L 319.045213 238.019123 
L 319.212613 227.709996 
L 319.380013 238.179403 
L 319.714812 228.985741 
L 319.882213 236.403091 
L 320.049613 234.975324 
L 320.217013 229.574276 
L 320.384412 238.296535 
L 320.551813 227.130904 
L 320.719213 234.250206 
L 320.886613 232.023629 
L 321.054012 223.164983 
L 321.221413 231.608492 
L 321.388813 232.376699 
L 321.556213 235.563303 
L 321.723613 228.076638 
L 322.058413 234.15085 
L 322.225813 233.836806 
L 322.393213 233.142791 
L 322.560613 230.680517 
L 322.728013 230.292743 
L 322.895413 242.904441 
L 323.062813 226.152701 
L 323.230213 226.892546 
L 323.397613 237.360521 
L 323.565013 228.806571 
L 323.899813 235.455328 
L 324.067213 222.708877 
L 324.234613 236.925849 
L 324.402013 233.599309 
L 324.569413 235.173101 
L 324.736813 234.437201 
L 324.904213 225.729798 
L 325.071613 236.521908 
L 325.239013 233.589321 
L 325.406413 227.222017 
L 325.573813 234.766028 
L 325.908613 230.098416 
L 326.076013 237.141664 
L 326.243413 224.860639 
L 326.578213 238.292718 
L 326.745613 230.652923 
L 326.913013 235.117642 
L 327.080413 230.984264 
L 327.247813 230.77162 
L 327.582613 235.706544 
L 327.750013 228.476287 
L 327.917413 226.834633 
L 328.084813 235.831987 
L 328.252213 229.97932 
L 328.587013 234.050366 
L 328.754413 229.628041 
L 328.921813 237.881276 
L 329.089213 230.150425 
L 329.256613 234.211899 
L 329.424013 235.231464 
L 329.591413 225.927772 
L 329.926213 234.639939 
L 330.093613 232.059522 
L 330.261013 234.106853 
L 330.595813 228.94428 
L 330.763213 234.499689 
L 330.930613 228.042022 
L 331.098013 235.53064 
L 331.265413 226.739429 
L 331.600213 239.064111 
L 331.767613 229.859826 
L 331.935013 234.464426 
L 332.102413 233.765845 
L 332.269813 228.233595 
L 332.437213 236.405413 
L 332.604613 228.314487 
L 332.772013 232.825873 
L 332.939413 232.385385 
L 333.106813 229.492948 
L 333.274213 236.433716 
L 333.441613 231.126413 
L 333.609013 230.175583 
L 333.776413 230.007317 
L 333.943813 234.592095 
L 334.111213 231.638381 
L 334.278613 234.299464 
L 334.446013 228.940839 
L 334.613413 234.076705 
L 334.948213 229.3623 
L 335.115613 236.260905 
L 335.283013 229.651077 
L 335.450413 230.650534 
L 335.617813 232.713909 
L 335.785213 227.499809 
L 335.952613 234.204838 
L 336.120013 229.970358 
L 336.287413 237.53428 
L 336.622213 229.840907 
L 336.789613 232.182242 
L 336.957013 226.765584 
L 337.291813 236.253954 
L 337.459213 230.072529 
L 337.626613 230.527618 
L 337.794013 238.319363 
L 337.961413 230.583391 
L 338.128813 232.322683 
L 338.296213 229.964322 
L 338.463613 237.61487 
L 338.631012 235.35337 
L 338.798413 227.611783 
L 338.965813 235.415212 
L 339.133213 229.485287 
L 339.300612 235.665649 
L 339.468013 234.678038 
L 339.635413 228.375509 
L 339.970213 233.774924 
L 340.137613 227.146131 
L 340.472413 232.905229 
L 340.639813 233.821447 
L 340.807213 232.00604 
L 340.974613 233.428026 
L 341.142013 228.093808 
L 341.309413 226.801595 
L 341.476813 241.264078 
L 341.644213 230.225319 
L 341.811613 228.266307 
L 341.979013 231.894418 
L 342.146413 230.338723 
L 342.313813 230.911262 
L 342.481213 234.312852 
L 342.648613 226.654912 
L 342.816013 234.861871 
L 342.983413 233.744817 
L 343.150813 228.281441 
L 343.318213 228.883853 
L 343.485613 231.558386 
L 343.653013 237.285819 
L 343.987813 229.623591 
L 344.155213 235.036834 
L 344.322613 231.259604 
L 344.490013 230.683662 
L 344.657413 233.355976 
L 344.824813 225.792307 
L 344.992213 235.912887 
L 345.159613 233.616804 
L 345.327013 226.417482 
L 345.494413 232.568428 
L 345.661813 230.961789 
L 345.829213 231.876897 
L 345.996613 234.746356 
L 346.164013 229.405205 
L 346.331413 234.722481 
L 346.498813 227.780363 
L 346.666213 235.893823 
L 346.833613 234.790054 
L 347.001013 229.11179 
L 347.168413 234.902697 
L 347.335813 229.302802 
L 347.670613 232.852187 
L 347.838013 225.748891 
L 348.005413 235.623732 
L 348.172813 233.803968 
L 348.340213 224.928336 
L 348.507613 239.18808 
L 348.675013 234.24875 
L 348.842413 224.631672 
L 349.009813 239.251527 
L 349.177213 230.354328 
L 349.344613 230.061404 
L 349.512013 232.665278 
L 349.679413 228.058128 
L 349.846813 232.775483 
L 350.014213 231.98093 
L 350.181613 233.98806 
L 350.349013 229.902885 
L 350.516413 232.917351 
L 350.683813 231.313885 
L 350.851213 234.278746 
L 351.018613 232.979757 
L 351.186013 229.207729 
L 351.353413 233.081929 
L 351.520813 234.09441 
L 351.688213 233.575413 
L 351.855613 229.407421 
L 352.023013 229.050335 
L 352.190413 229.58233 
L 352.357813 239.603866 
L 352.692613 222.303047 
L 352.860013 234.970869 
L 353.027413 232.23157 
L 353.194813 235.664525 
L 353.529613 228.818113 
L 353.697013 238.728946 
L 353.864413 228.894169 
L 354.031813 229.277434 
L 354.199213 237.860926 
L 354.366613 227.146304 
L 354.701413 235.96816 
L 354.868813 228.985161 
L 355.036213 229.849907 
L 355.203613 233.312739 
L 355.371013 232.000776 
L 355.538413 228.925947 
L 355.705813 234.349367 
L 355.873213 234.191174 
L 356.040613 227.574909 
L 356.208013 236.65662 
L 356.375413 232.196812 
L 356.542813 233.507732 
L 356.710213 236.596251 
L 356.877613 224.950153 
L 357.045013 233.176909 
L 357.212413 231.241441 
L 357.379813 226.573044 
L 357.547213 243.556364 
L 357.714613 225.774053 
L 357.882013 222.217895 
L 358.049413 243.167073 
L 358.216813 228.356241 
L 358.384213 223.904914 
L 358.551613 233.210029 
L 358.719013 229.171016 
L 358.886413 234.395316 
L 359.053813 233.205768 
L 359.221213 223.877366 
L 359.388613 240.726142 
L 359.723413 229.632107 
L 359.890813 238.720004 
L 360.058213 226.789609 
L 360.225613 229.428036 
L 360.393013 236.201556 
L 360.560413 230.032794 
L 360.727813 235.021654 
L 360.895213 231.682021 
L 361.062613 232.226163 
L 361.230013 235.06773 
L 361.397413 234.40312 
L 361.564813 227.900591 
L 361.732213 229.426059 
L 361.899613 234.464725 
L 362.234413 232.696287 
L 362.401813 232.574437 
L 362.569213 235.149053 
L 362.736613 233.66692 
L 362.904013 229.112917 
L 363.071413 230.168994 
L 363.238813 235.66486 
L 363.573613 230.875743 
L 363.741013 233.550591 
L 363.908412 230.841283 
L 364.075813 233.782708 
L 364.243213 231.896102 
L 364.410613 228.354336 
L 364.578012 231.81172 
L 364.745413 229.221343 
L 364.912813 229.403591 
L 365.080213 230.328106 
L 365.247613 230.623662 
L 365.415013 234.958823 
L 365.582413 232.931468 
L 365.749813 233.2217 
L 365.917213 232.335157 
L 366.084613 229.253417 
L 366.252013 232.016679 
L 366.419413 231.530962 
L 366.586813 233.976793 
L 366.754213 229.142313 
L 366.921613 229.991821 
L 367.089013 240.865119 
L 367.256413 228.004592 
L 367.423813 224.65325 
L 367.591213 237.483215 
L 367.926013 229.599456 
L 368.093413 231.518763 
L 368.260813 230.532191 
L 368.428213 238.704268 
L 368.763013 231.557807 
L 368.930413 235.318319 
L 369.097813 227.873933 
L 369.265213 237.491995 
L 369.600013 227.665564 
L 369.767413 232.919383 
L 369.934813 231.199111 
L 370.102213 232.555037 
L 370.437013 228.564449 
L 370.604413 241.814894 
L 370.771813 228.375468 
L 370.939213 226.639467 
L 371.106613 238.729662 
L 371.274013 225.374164 
L 371.608813 236.949993 
L 371.776213 228.726353 
L 372.111013 234.902103 
L 372.278413 231.837919 
L 372.445813 232.52688 
L 372.613213 228.640332 
L 372.780613 236.793301 
L 373.115413 228.198469 
L 373.282813 236.047441 
L 373.282813 236.047441 
" clip-path="url(#p585f802e8a)" style="fill: none; stroke: #1f77b4; stroke-width: 1.5; stroke-linecap: square"/>
   </g>
   <g id="line2d_17">
    <path d="M 38.650213 56.693938 
L 39.319813 68.389192 
L 39.989413 76.228756 
L 40.659013 81.483773 
L 41.328612 85.006316 
L 41.998213 87.367547 
L 42.667813 88.950327 
L 43.337412 90.011297 
L 44.007013 90.722486 
L 44.844013 91.291451 
L 45.848413 91.687169 
L 47.187613 91.952228 
L 49.363813 92.109565 
L 54.218412 92.165265 
L 116.156413 92.168508 
L 373.282813 92.168508 
L 373.282813 92.168508 
" clip-path="url(#p585f802e8a)" style="fill: none; stroke: #ff7f0e; stroke-width: 1.5; stroke-linecap: square"/>
   </g>
   <g id="patch_3">
    <path d="M 38.482813 253.44 
L 38.482813 36 
" style="fill: none; stroke: #000000; stroke-width: 0.8; stroke-linejoin: miter; stroke-linecap: square"/>
   </g>
   <g id="patch_4">
    <path d="M 373.282813 253.44 
L 373.282813 36 
" style="fill: none; stroke: #000000; stroke-width: 0.8; stroke-linejoin: miter; stroke-linecap: square"/>
   </g>
   <g id="patch_5">
    <path d="M 38.482813 253.44 
L 373.282813 253.44 
" style="fill: none; stroke: #000000; stroke-width: 0.8; stroke-linejoin: miter; stroke-linecap: square"/>
   </g>
   <g id="patch_6">
    <path d="M 38.482813 36 
L 373.282813 36 
" style="fill: none; stroke: #000000; stroke-width: 0.8; stroke-linejoin: miter; stroke-linecap: square"/>
   </g>
   <g id="legend_1">
    <g id="patch_7">
     <path d="M 316.582813 77.078125 
L 366.282813 77.078125 
Q 368.282813 77.078125 368.282813 75.078125 
L 368.282813 43 
Q 368.282813 41 366.282813 41 
L 316.582813 41 
Q 314.582813 41 314.582813 43 
L 314.582813 75.078125 
Q 314.582813 77.078125 316.582813 77.078125 
z
" style="fill: #ffffff; opacity: 0.8; stroke: #cccccc; stroke-linejoin: miter"/>
    </g>
    <g id="line2d_18">
     <path d="M 318.582813 52.8 
L 328.582813 52.8 
L 338.582813 52.8 
" style="fill: none; stroke: #1f77b4; stroke-width: 1.5; stroke-linecap: square"/>
    </g>
    <g id="text_17">
     <!-- $\hat{y(t)}$ -->
     <g transform="translate(346.582813 56.3) scale(0.1 -0.1)">
      <defs>
       <path id="DejaVuSans-302" d="M -1831 5119 
L -1369 5119 
L -603 3944 
L -1038 3944 
L -1600 4709 
L -2163 3944 
L -2597 3944 
L -1831 5119 
z
M -1600 3584 
L -1600 3584 
z
" transform="scale(0.015625)"/>
       <path id="DejaVuSans-Oblique-79" d="M 1588 -325 
Q 1188 -997 936 -1164 
Q 684 -1331 294 -1331 
L -159 -1331 
L -63 -850 
L 269 -850 
Q 509 -850 678 -719 
Q 847 -588 1056 -206 
L 1234 128 
L 459 3500 
L 1069 3500 
L 1650 819 
L 3256 3500 
L 3859 3500 
L 1588 -325 
z
" transform="scale(0.015625)"/>
       <path id="DejaVuSans-28" d="M 1984 4856 
Q 1566 4138 1362 3434 
Q 1159 2731 1159 2009 
Q 1159 1288 1364 580 
Q 1569 -128 1984 -844 
L 1484 -844 
Q 1016 -109 783 600 
Q 550 1309 550 2009 
Q 550 2706 781 3412 
Q 1013 4119 1484 4856 
L 1984 4856 
z
" transform="scale(0.015625)"/>
       <path id="DejaVuSans-29" d="M 513 4856 
L 1013 4856 
Q 1481 4119 1714 3412 
Q 1947 2706 1947 2009 
Q 1947 1309 1714 600 
Q 1481 -109 1013 -844 
L 513 -844 
Q 928 -128 1133 580 
Q 1338 1288 1338 2009 
Q 1338 2731 1133 3434 
Q 928 4138 513 4856 
z
" transform="scale(0.015625)"/>
      </defs>
      <use xlink:href="#DejaVuSans-302" transform="translate(135.682129 33.015625)"/>
      <use xlink:href="#DejaVuSans-Oblique-79" transform="translate(0 0.640625)"/>
      <use xlink:href="#DejaVuSans-28" transform="translate(59.179688 0.640625)"/>
      <use xlink:href="#DejaVuSans-Oblique-74" transform="translate(98.193359 0.640625)"/>
      <use xlink:href="#DejaVuSans-29" transform="translate(137.402344 0.640625)"/>
     </g>
    </g>
    <g id="line2d_19">
     <path d="M 318.582813 67.498437 
L 328.582813 67.498437 
L 338.582813 67.498437 
" style="fill: none; stroke: #ff7f0e; stroke-width: 1.5; stroke-linecap: square"/>
    </g>
    <g id="text_18">
     <!-- $x(t)$ -->
     <g transform="translate(346.582813 70.998437) scale(0.1 -0.1)">
      <defs>
       <path id="DejaVuSans-Oblique-78" d="M 3841 3500 
L 2234 1784 
L 3219 0 
L 2559 0 
L 1819 1388 
L 531 0 
L -166 0 
L 1556 1844 
L 641 3500 
L 1300 3500 
L 1972 2234 
L 3144 3500 
L 3841 3500 
z
" transform="scale(0.015625)"/>
      </defs>
      <use xlink:href="#DejaVuSans-Oblique-78" transform="translate(0 0.125)"/>
      <use xlink:href="#DejaVuSans-28" transform="translate(59.179688 0.125)"/>
      <use xlink:href="#DejaVuSans-Oblique-74" transform="translate(98.193359 0.125)"/>
      <use xlink:href="#DejaVuSans-29" transform="translate(137.402344 0.125)"/>
     </g>
    </g>
   </g>
  </g>
  <g id="text_19">
   <!-- Accumulate to Threshold model with input of -0.2 with rms=3  -->
   <g transform="translate(13.149687 16.318125) scale(0.12 -0.12)">
    <defs>
     <path id="DejaVuSans-41" d="M 2188 4044 
L 1331 1722 
L 3047 1722 
L 2188 4044 
z
M 1831 4666 
L 2547 4666 
L 4325 0 
L 3669 0 
L 3244 1197 
L 1141 1197 
L 716 0 
L 50 0 
L 1831 4666 
z
" transform="scale(0.015625)"/>
     <path id="DejaVuSans-63" d="M 3122 3366 
L 3122 2828 
Q 2878 2963 2633 3030 
Q 2388 3097 2138 3097 
Q 1578 3097 1268 2742 
Q 959 2388 959 1747 
Q 959 1106 1268 751 
Q 1578 397 2138 397 
Q 2388 397 2633 464 
Q 2878 531 3122 666 
L 3122 134 
Q 2881 22 2623 -34 
Q 2366 -91 2075 -91 
Q 1284 -91 818 406 
Q 353 903 353 1747 
Q 353 2603 823 3093 
Q 1294 3584 2113 3584 
Q 2378 3584 2631 3529 
Q 2884 3475 3122 3366 
z
" transform="scale(0.015625)"/>
     <path id="DejaVuSans-75" d="M 544 1381 
L 544 3500 
L 1119 3500 
L 1119 1403 
Q 1119 906 1312 657 
Q 1506 409 1894 409 
Q 2359 409 2629 706 
Q 2900 1003 2900 1516 
L 2900 3500 
L 3475 3500 
L 3475 0 
L 2900 0 
L 2900 538 
Q 2691 219 2414 64 
Q 2138 -91 1772 -91 
Q 1169 -91 856 284 
Q 544 659 544 1381 
z
M 1991 3584 
L 1991 3584 
z
" transform="scale(0.015625)"/>
     <path id="DejaVuSans-6d" d="M 3328 2828 
Q 3544 3216 3844 3400 
Q 4144 3584 4550 3584 
Q 5097 3584 5394 3201 
Q 5691 2819 5691 2113 
L 5691 0 
L 5113 0 
L 5113 2094 
Q 5113 2597 4934 2840 
Q 4756 3084 4391 3084 
Q 3944 3084 3684 2787 
Q 3425 2491 3425 1978 
L 3425 0 
L 2847 0 
L 2847 2094 
Q 2847 2600 2669 2842 
Q 2491 3084 2119 3084 
Q 1678 3084 1418 2786 
Q 1159 2488 1159 1978 
L 1159 0 
L 581 0 
L 581 3500 
L 1159 3500 
L 1159 2956 
Q 1356 3278 1631 3431 
Q 1906 3584 2284 3584 
Q 2666 3584 2933 3390 
Q 3200 3197 3328 2828 
z
" transform="scale(0.015625)"/>
     <path id="DejaVuSans-6c" d="M 603 4863 
L 1178 4863 
L 1178 0 
L 603 0 
L 603 4863 
z
" transform="scale(0.015625)"/>
     <path id="DejaVuSans-61" d="M 2194 1759 
Q 1497 1759 1228 1600 
Q 959 1441 959 1056 
Q 959 750 1161 570 
Q 1363 391 1709 391 
Q 2188 391 2477 730 
Q 2766 1069 2766 1631 
L 2766 1759 
L 2194 1759 
z
M 3341 1997 
L 3341 0 
L 2766 0 
L 2766 531 
Q 2569 213 2275 61 
Q 1981 -91 1556 -91 
Q 1019 -91 701 211 
Q 384 513 384 1019 
Q 384 1609 779 1909 
Q 1175 2209 1959 2209 
L 2766 2209 
L 2766 2266 
Q 2766 2663 2505 2880 
Q 2244 3097 1772 3097 
Q 1472 3097 1187 3025 
Q 903 2953 641 2809 
L 641 3341 
Q 956 3463 1253 3523 
Q 1550 3584 1831 3584 
Q 2591 3584 2966 3190 
Q 3341 2797 3341 1997 
z
" transform="scale(0.015625)"/>
     <path id="DejaVuSans-74" d="M 1172 4494 
L 1172 3500 
L 2356 3500 
L 2356 3053 
L 1172 3053 
L 1172 1153 
Q 1172 725 1289 603 
Q 1406 481 1766 481 
L 2356 481 
L 2356 0 
L 1766 0 
Q 1100 0 847 248 
Q 594 497 594 1153 
L 594 3053 
L 172 3053 
L 172 3500 
L 594 3500 
L 594 4494 
L 1172 4494 
z
" transform="scale(0.015625)"/>
     <path id="DejaVuSans-65" d="M 3597 1894 
L 3597 1613 
L 953 1613 
Q 991 1019 1311 708 
Q 1631 397 2203 397 
Q 2534 397 2845 478 
Q 3156 559 3463 722 
L 3463 178 
Q 3153 47 2828 -22 
Q 2503 -91 2169 -91 
Q 1331 -91 842 396 
Q 353 884 353 1716 
Q 353 2575 817 3079 
Q 1281 3584 2069 3584 
Q 2775 3584 3186 3129 
Q 3597 2675 3597 1894 
z
M 3022 2063 
Q 3016 2534 2758 2815 
Q 2500 3097 2075 3097 
Q 1594 3097 1305 2825 
Q 1016 2553 972 2059 
L 3022 2063 
z
" transform="scale(0.015625)"/>
     <path id="DejaVuSans-20" transform="scale(0.015625)"/>
     <path id="DejaVuSans-6f" d="M 1959 3097 
Q 1497 3097 1228 2736 
Q 959 2375 959 1747 
Q 959 1119 1226 758 
Q 1494 397 1959 397 
Q 2419 397 2687 759 
Q 2956 1122 2956 1747 
Q 2956 2369 2687 2733 
Q 2419 3097 1959 3097 
z
M 1959 3584 
Q 2709 3584 3137 3096 
Q 3566 2609 3566 1747 
Q 3566 888 3137 398 
Q 2709 -91 1959 -91 
Q 1206 -91 779 398 
Q 353 888 353 1747 
Q 353 2609 779 3096 
Q 1206 3584 1959 3584 
z
" transform="scale(0.015625)"/>
     <path id="DejaVuSans-54" d="M -19 4666 
L 3928 4666 
L 3928 4134 
L 2272 4134 
L 2272 0 
L 1638 0 
L 1638 4134 
L -19 4134 
L -19 4666 
z
" transform="scale(0.015625)"/>
     <path id="DejaVuSans-68" d="M 3513 2113 
L 3513 0 
L 2938 0 
L 2938 2094 
Q 2938 2591 2744 2837 
Q 2550 3084 2163 3084 
Q 1697 3084 1428 2787 
Q 1159 2491 1159 1978 
L 1159 0 
L 581 0 
L 581 4863 
L 1159 4863 
L 1159 2956 
Q 1366 3272 1645 3428 
Q 1925 3584 2291 3584 
Q 2894 3584 3203 3211 
Q 3513 2838 3513 2113 
z
" transform="scale(0.015625)"/>
     <path id="DejaVuSans-72" d="M 2631 2963 
Q 2534 3019 2420 3045 
Q 2306 3072 2169 3072 
Q 1681 3072 1420 2755 
Q 1159 2438 1159 1844 
L 1159 0 
L 581 0 
L 581 3500 
L 1159 3500 
L 1159 2956 
Q 1341 3275 1631 3429 
Q 1922 3584 2338 3584 
Q 2397 3584 2469 3576 
Q 2541 3569 2628 3553 
L 2631 2963 
z
" transform="scale(0.015625)"/>
     <path id="DejaVuSans-73" d="M 2834 3397 
L 2834 2853 
Q 2591 2978 2328 3040 
Q 2066 3103 1784 3103 
Q 1356 3103 1142 2972 
Q 928 2841 928 2578 
Q 928 2378 1081 2264 
Q 1234 2150 1697 2047 
L 1894 2003 
Q 2506 1872 2764 1633 
Q 3022 1394 3022 966 
Q 3022 478 2636 193 
Q 2250 -91 1575 -91 
Q 1294 -91 989 -36 
Q 684 19 347 128 
L 347 722 
Q 666 556 975 473 
Q 1284 391 1588 391 
Q 1994 391 2212 530 
Q 2431 669 2431 922 
Q 2431 1156 2273 1281 
Q 2116 1406 1581 1522 
L 1381 1569 
Q 847 1681 609 1914 
Q 372 2147 372 2553 
Q 372 3047 722 3315 
Q 1072 3584 1716 3584 
Q 2034 3584 2315 3537 
Q 2597 3491 2834 3397 
z
" transform="scale(0.015625)"/>
     <path id="DejaVuSans-64" d="M 2906 2969 
L 2906 4863 
L 3481 4863 
L 3481 0 
L 2906 0 
L 2906 525 
Q 2725 213 2448 61 
Q 2172 -91 1784 -91 
Q 1150 -91 751 415 
Q 353 922 353 1747 
Q 353 2572 751 3078 
Q 1150 3584 1784 3584 
Q 2172 3584 2448 3432 
Q 2725 3281 2906 2969 
z
M 947 1747 
Q 947 1113 1208 752 
Q 1469 391 1925 391 
Q 2381 391 2643 752 
Q 2906 1113 2906 1747 
Q 2906 2381 2643 2742 
Q 2381 3103 1925 3103 
Q 1469 3103 1208 2742 
Q 947 2381 947 1747 
z
" transform="scale(0.015625)"/>
     <path id="DejaVuSans-77" d="M 269 3500 
L 844 3500 
L 1563 769 
L 2278 3500 
L 2956 3500 
L 3675 769 
L 4391 3500 
L 4966 3500 
L 4050 0 
L 3372 0 
L 2619 2869 
L 1863 0 
L 1184 0 
L 269 3500 
z
" transform="scale(0.015625)"/>
     <path id="DejaVuSans-69" d="M 603 3500 
L 1178 3500 
L 1178 0 
L 603 0 
L 603 3500 
z
M 603 4863 
L 1178 4863 
L 1178 4134 
L 603 4134 
L 603 4863 
z
" transform="scale(0.015625)"/>
     <path id="DejaVuSans-6e" d="M 3513 2113 
L 3513 0 
L 2938 0 
L 2938 2094 
Q 2938 2591 2744 2837 
Q 2550 3084 2163 3084 
Q 1697 3084 1428 2787 
Q 1159 2491 1159 1978 
L 1159 0 
L 581 0 
L 581 3500 
L 1159 3500 
L 1159 2956 
Q 1366 3272 1645 3428 
Q 1925 3584 2291 3584 
Q 2894 3584 3203 3211 
Q 3513 2838 3513 2113 
z
" transform="scale(0.015625)"/>
     <path id="DejaVuSans-70" d="M 1159 525 
L 1159 -1331 
L 581 -1331 
L 581 3500 
L 1159 3500 
L 1159 2969 
Q 1341 3281 1617 3432 
Q 1894 3584 2278 3584 
Q 2916 3584 3314 3078 
Q 3713 2572 3713 1747 
Q 3713 922 3314 415 
Q 2916 -91 2278 -91 
Q 1894 -91 1617 61 
Q 1341 213 1159 525 
z
M 3116 1747 
Q 3116 2381 2855 2742 
Q 2594 3103 2138 3103 
Q 1681 3103 1420 2742 
Q 1159 2381 1159 1747 
Q 1159 1113 1420 752 
Q 1681 391 2138 391 
Q 2594 391 2855 752 
Q 3116 1113 3116 1747 
z
" transform="scale(0.015625)"/>
     <path id="DejaVuSans-66" d="M 2375 4863 
L 2375 4384 
L 1825 4384 
Q 1516 4384 1395 4259 
Q 1275 4134 1275 3809 
L 1275 3500 
L 2222 3500 
L 2222 3053 
L 1275 3053 
L 1275 0 
L 697 0 
L 697 3053 
L 147 3053 
L 147 3500 
L 697 3500 
L 697 3744 
Q 697 4328 969 4595 
Q 1241 4863 1831 4863 
L 2375 4863 
z
" transform="scale(0.015625)"/>
     <path id="DejaVuSans-2d" d="M 313 2009 
L 1997 2009 
L 1997 1497 
L 313 1497 
L 313 2009 
z
" transform="scale(0.015625)"/>
     <path id="DejaVuSans-3d" d="M 678 2906 
L 4684 2906 
L 4684 2381 
L 678 2381 
L 678 2906 
z
M 678 1631 
L 4684 1631 
L 4684 1100 
L 678 1100 
L 678 1631 
z
" transform="scale(0.015625)"/>
     <path id="DejaVuSans-33" d="M 2597 2516 
Q 3050 2419 3304 2112 
Q 3559 1806 3559 1356 
Q 3559 666 3084 287 
Q 2609 -91 1734 -91 
Q 1441 -91 1130 -33 
Q 819 25 488 141 
L 488 750 
Q 750 597 1062 519 
Q 1375 441 1716 441 
Q 2309 441 2620 675 
Q 2931 909 2931 1356 
Q 2931 1769 2642 2001 
Q 2353 2234 1838 2234 
L 1294 2234 
L 1294 2753 
L 1863 2753 
Q 2328 2753 2575 2939 
Q 2822 3125 2822 3475 
Q 2822 3834 2567 4026 
Q 2313 4219 1838 4219 
Q 1578 4219 1281 4162 
Q 984 4106 628 3988 
L 628 4550 
Q 988 4650 1302 4700 
Q 1616 4750 1894 4750 
Q 2613 4750 3031 4423 
Q 3450 4097 3450 3541 
Q 3450 3153 3228 2886 
Q 3006 2619 2597 2516 
z
" transform="scale(0.015625)"/>
    </defs>
    <use xlink:href="#DejaVuSans-41"/>
    <use xlink:href="#DejaVuSans-63" x="66.658203"/>
    <use xlink:href="#DejaVuSans-63" x="121.638672"/>
    <use xlink:href="#DejaVuSans-75" x="176.619141"/>
    <use xlink:href="#DejaVuSans-6d" x="239.998047"/>
    <use xlink:href="#DejaVuSans-75" x="337.410156"/>
    <use xlink:href="#DejaVuSans-6c" x="400.789062"/>
    <use xlink:href="#DejaVuSans-61" x="428.572266"/>
    <use xlink:href="#DejaVuSans-74" x="489.851562"/>
    <use xlink:href="#DejaVuSans-65" x="529.060547"/>
    <use xlink:href="#DejaVuSans-20" x="590.583984"/>
    <use xlink:href="#DejaVuSans-74" x="622.371094"/>
    <use xlink:href="#DejaVuSans-6f" x="661.580078"/>
    <use xlink:href="#DejaVuSans-20" x="722.761719"/>
    <use xlink:href="#DejaVuSans-54" x="754.548828"/>
    <use xlink:href="#DejaVuSans-68" x="815.632812"/>
    <use xlink:href="#DejaVuSans-72" x="879.011719"/>
    <use xlink:href="#DejaVuSans-65" x="917.875"/>
    <use xlink:href="#DejaVuSans-73" x="979.398438"/>
    <use xlink:href="#DejaVuSans-68" x="1031.498047"/>
    <use xlink:href="#DejaVuSans-6f" x="1094.876953"/>
    <use xlink:href="#DejaVuSans-6c" x="1156.058594"/>
    <use xlink:href="#DejaVuSans-64" x="1183.841797"/>
    <use xlink:href="#DejaVuSans-20" x="1247.318359"/>
    <use xlink:href="#DejaVuSans-6d" x="1279.105469"/>
    <use xlink:href="#DejaVuSans-6f" x="1376.517578"/>
    <use xlink:href="#DejaVuSans-64" x="1437.699219"/>
    <use xlink:href="#DejaVuSans-65" x="1501.175781"/>
    <use xlink:href="#DejaVuSans-6c" x="1562.699219"/>
    <use xlink:href="#DejaVuSans-20" x="1590.482422"/>
    <use xlink:href="#DejaVuSans-77" x="1622.269531"/>
    <use xlink:href="#DejaVuSans-69" x="1704.056641"/>
    <use xlink:href="#DejaVuSans-74" x="1731.839844"/>
    <use xlink:href="#DejaVuSans-68" x="1771.048828"/>
    <use xlink:href="#DejaVuSans-20" x="1834.427734"/>
    <use xlink:href="#DejaVuSans-69" x="1866.214844"/>
    <use xlink:href="#DejaVuSans-6e" x="1893.998047"/>
    <use xlink:href="#DejaVuSans-70" x="1957.376953"/>
    <use xlink:href="#DejaVuSans-75" x="2020.853516"/>
    <use xlink:href="#DejaVuSans-74" x="2084.232422"/>
    <use xlink:href="#DejaVuSans-20" x="2123.441406"/>
    <use xlink:href="#DejaVuSans-6f" x="2155.228516"/>
    <use xlink:href="#DejaVuSans-66" x="2216.410156"/>
    <use xlink:href="#DejaVuSans-20" x="2251.615234"/>
    <use xlink:href="#DejaVuSans-2d" x="2283.402344"/>
    <use xlink:href="#DejaVuSans-30" x="2319.486328"/>
    <use xlink:href="#DejaVuSans-2e" x="2383.109375"/>
    <use xlink:href="#DejaVuSans-32" x="2414.896484"/>
    <use xlink:href="#DejaVuSans-20" x="2478.519531"/>
    <use xlink:href="#DejaVuSans-77" x="2510.306641"/>
    <use xlink:href="#DejaVuSans-69" x="2592.09375"/>
    <use xlink:href="#DejaVuSans-74" x="2619.876953"/>
    <use xlink:href="#DejaVuSans-68" x="2659.085938"/>
    <use xlink:href="#DejaVuSans-20" x="2722.464844"/>
    <use xlink:href="#DejaVuSans-72" x="2754.251953"/>
    <use xlink:href="#DejaVuSans-6d" x="2793.615234"/>
    <use xlink:href="#DejaVuSans-73" x="2891.027344"/>
    <use xlink:href="#DejaVuSans-3d" x="2943.126953"/>
    <use xlink:href="#DejaVuSans-33" x="3026.916016"/>
    <use xlink:href="#DejaVuSans-20" x="3090.539062"/>
   </g>
  </g>
 </g>
 <defs>
  <clipPath id="p585f802e8a">
   <rect x="38.482813" y="36" width="334.8" height="217.44"/>
  </clipPath>
 </defs>
</svg>
