<?xml version="1.0" encoding="utf-8" standalone="no"?>
<!DOCTYPE svg PUBLIC "-//W3C//DTD SVG 1.1//EN"
  "http://www.w3.org/Graphics/SVG/1.1/DTD/svg11.dtd">
<svg xmlns:xlink="http://www.w3.org/1999/xlink" width="397.196562pt" height="277.318125pt" viewBox="0 0 397.196562 277.318125" xmlns="http://www.w3.org/2000/svg" version="1.1">
 <metadata>
  <rdf:RDF xmlns:dc="http://purl.org/dc/elements/1.1/" xmlns:cc="http://creativecommons.org/ns#" xmlns:rdf="http://www.w3.org/1999/02/22-rdf-syntax-ns#">
   <cc:Work>
    <dc:type rdf:resource="http://purl.org/dc/dcmitype/StillImage"/>
    <dc:date>2022-11-17T12:01:29.581570</dc:date>
    <dc:format>image/svg+xml</dc:format>
    <dc:creator>
     <cc:Agent>
      <dc:title>Matplotlib v3.6.0, https://matplotlib.org/</dc:title>
     </cc:Agent>
    </dc:creator>
   </cc:Work>
  </rdf:RDF>
 </metadata>
 <defs>
  <style type="text/css">*{stroke-linejoin: round; stroke-linecap: butt}</style>
 </defs>
 <g id="figure_1">
  <g id="patch_1">
   <path d="M 0 277.318125 
L 397.196562 277.318125 
L 397.196562 0 
L 0 0 
L 0 277.318125 
z
" style="fill: none"/>
  </g>
  <g id="axes_1">
   <g id="patch_2">
    <path d="M 42.828125 253.44 
L 377.628125 253.44 
L 377.628125 36 
L 42.828125 36 
z
" style="fill: #ffffff"/>
   </g>
   <g id="matplotlib.axis_1">
    <g id="xtick_1">
     <g id="line2d_1">
      <defs>
       <path id="mb149e67b26" d="M 0 0 
L 0 3.5 
" style="stroke: #000000; stroke-width: 0.8"/>
      </defs>
      <g>
       <use xlink:href="#mb149e67b26" x="42.828125" y="253.44" style="stroke: #000000; stroke-width: 0.8"/>
      </g>
     </g>
     <g id="text_1">
      <!-- 0.00 -->
      <g transform="translate(31.695312 268.038437) scale(0.1 -0.1)">
       <defs>
        <path id="DejaVuSans-30" d="M 2034 4250 
Q 1547 4250 1301 3770 
Q 1056 3291 1056 2328 
Q 1056 1369 1301 889 
Q 1547 409 2034 409 
Q 2525 409 2770 889 
Q 3016 1369 3016 2328 
Q 3016 3291 2770 3770 
Q 2525 4250 2034 4250 
z
M 2034 4750 
Q 2819 4750 3233 4129 
Q 3647 3509 3647 2328 
Q 3647 1150 3233 529 
Q 2819 -91 2034 -91 
Q 1250 -91 836 529 
Q 422 1150 422 2328 
Q 422 3509 836 4129 
Q 1250 4750 2034 4750 
z
" transform="scale(0.015625)"/>
        <path id="DejaVuSans-2e" d="M 684 794 
L 1344 794 
L 1344 0 
L 684 0 
L 684 794 
z
" transform="scale(0.015625)"/>
       </defs>
       <use xlink:href="#DejaVuSans-30"/>
       <use xlink:href="#DejaVuSans-2e" x="63.623047"/>
       <use xlink:href="#DejaVuSans-30" x="95.410156"/>
       <use xlink:href="#DejaVuSans-30" x="159.033203"/>
      </g>
     </g>
    </g>
    <g id="xtick_2">
     <g id="line2d_2">
      <g>
       <use xlink:href="#mb149e67b26" x="84.678125" y="253.44" style="stroke: #000000; stroke-width: 0.8"/>
      </g>
     </g>
     <g id="text_2">
      <!-- 0.25 -->
      <g transform="translate(73.545312 268.038437) scale(0.1 -0.1)">
       <defs>
        <path id="DejaVuSans-32" d="M 1228 531 
L 3431 531 
L 3431 0 
L 469 0 
L 469 531 
Q 828 903 1448 1529 
Q 2069 2156 2228 2338 
Q 2531 2678 2651 2914 
Q 2772 3150 2772 3378 
Q 2772 3750 2511 3984 
Q 2250 4219 1831 4219 
Q 1534 4219 1204 4116 
Q 875 4013 500 3803 
L 500 4441 
Q 881 4594 1212 4672 
Q 1544 4750 1819 4750 
Q 2544 4750 2975 4387 
Q 3406 4025 3406 3419 
Q 3406 3131 3298 2873 
Q 3191 2616 2906 2266 
Q 2828 2175 2409 1742 
Q 1991 1309 1228 531 
z
" transform="scale(0.015625)"/>
        <path id="DejaVuSans-35" d="M 691 4666 
L 3169 4666 
L 3169 4134 
L 1269 4134 
L 1269 2991 
Q 1406 3038 1543 3061 
Q 1681 3084 1819 3084 
Q 2600 3084 3056 2656 
Q 3513 2228 3513 1497 
Q 3513 744 3044 326 
Q 2575 -91 1722 -91 
Q 1428 -91 1123 -41 
Q 819 9 494 109 
L 494 744 
Q 775 591 1075 516 
Q 1375 441 1709 441 
Q 2250 441 2565 725 
Q 2881 1009 2881 1497 
Q 2881 1984 2565 2268 
Q 2250 2553 1709 2553 
Q 1456 2553 1204 2497 
Q 953 2441 691 2322 
L 691 4666 
z
" transform="scale(0.015625)"/>
       </defs>
       <use xlink:href="#DejaVuSans-30"/>
       <use xlink:href="#DejaVuSans-2e" x="63.623047"/>
       <use xlink:href="#DejaVuSans-32" x="95.410156"/>
       <use xlink:href="#DejaVuSans-35" x="159.033203"/>
      </g>
     </g>
    </g>
    <g id="xtick_3">
     <g id="line2d_3">
      <g>
       <use xlink:href="#mb149e67b26" x="126.528125" y="253.44" style="stroke: #000000; stroke-width: 0.8"/>
      </g>
     </g>
     <g id="text_3">
      <!-- 0.50 -->
      <g transform="translate(115.395313 268.038437) scale(0.1 -0.1)">
       <use xlink:href="#DejaVuSans-30"/>
       <use xlink:href="#DejaVuSans-2e" x="63.623047"/>
       <use xlink:href="#DejaVuSans-35" x="95.410156"/>
       <use xlink:href="#DejaVuSans-30" x="159.033203"/>
      </g>
     </g>
    </g>
    <g id="xtick_4">
     <g id="line2d_4">
      <g>
       <use xlink:href="#mb149e67b26" x="168.378125" y="253.44" style="stroke: #000000; stroke-width: 0.8"/>
      </g>
     </g>
     <g id="text_4">
      <!-- 0.75 -->
      <g transform="translate(157.245313 268.038437) scale(0.1 -0.1)">
       <defs>
        <path id="DejaVuSans-37" d="M 525 4666 
L 3525 4666 
L 3525 4397 
L 1831 0 
L 1172 0 
L 2766 4134 
L 525 4134 
L 525 4666 
z
" transform="scale(0.015625)"/>
       </defs>
       <use xlink:href="#DejaVuSans-30"/>
       <use xlink:href="#DejaVuSans-2e" x="63.623047"/>
       <use xlink:href="#DejaVuSans-37" x="95.410156"/>
       <use xlink:href="#DejaVuSans-35" x="159.033203"/>
      </g>
     </g>
    </g>
    <g id="xtick_5">
     <g id="line2d_5">
      <g>
       <use xlink:href="#mb149e67b26" x="210.228125" y="253.44" style="stroke: #000000; stroke-width: 0.8"/>
      </g>
     </g>
     <g id="text_5">
      <!-- 1.00 -->
      <g transform="translate(199.095313 268.038437) scale(0.1 -0.1)">
       <defs>
        <path id="DejaVuSans-31" d="M 794 531 
L 1825 531 
L 1825 4091 
L 703 3866 
L 703 4441 
L 1819 4666 
L 2450 4666 
L 2450 531 
L 3481 531 
L 3481 0 
L 794 0 
L 794 531 
z
" transform="scale(0.015625)"/>
       </defs>
       <use xlink:href="#DejaVuSans-31"/>
       <use xlink:href="#DejaVuSans-2e" x="63.623047"/>
       <use xlink:href="#DejaVuSans-30" x="95.410156"/>
       <use xlink:href="#DejaVuSans-30" x="159.033203"/>
      </g>
     </g>
    </g>
    <g id="xtick_6">
     <g id="line2d_6">
      <g>
       <use xlink:href="#mb149e67b26" x="252.078125" y="253.44" style="stroke: #000000; stroke-width: 0.8"/>
      </g>
     </g>
     <g id="text_6">
      <!-- 1.25 -->
      <g transform="translate(240.945312 268.038437) scale(0.1 -0.1)">
       <use xlink:href="#DejaVuSans-31"/>
       <use xlink:href="#DejaVuSans-2e" x="63.623047"/>
       <use xlink:href="#DejaVuSans-32" x="95.410156"/>
       <use xlink:href="#DejaVuSans-35" x="159.033203"/>
      </g>
     </g>
    </g>
    <g id="xtick_7">
     <g id="line2d_7">
      <g>
       <use xlink:href="#mb149e67b26" x="293.928125" y="253.44" style="stroke: #000000; stroke-width: 0.8"/>
      </g>
     </g>
     <g id="text_7">
      <!-- 1.50 -->
      <g transform="translate(282.795313 268.038437) scale(0.1 -0.1)">
       <use xlink:href="#DejaVuSans-31"/>
       <use xlink:href="#DejaVuSans-2e" x="63.623047"/>
       <use xlink:href="#DejaVuSans-35" x="95.410156"/>
       <use xlink:href="#DejaVuSans-30" x="159.033203"/>
      </g>
     </g>
    </g>
    <g id="xtick_8">
     <g id="line2d_8">
      <g>
       <use xlink:href="#mb149e67b26" x="335.778125" y="253.44" style="stroke: #000000; stroke-width: 0.8"/>
      </g>
     </g>
     <g id="text_8">
      <!-- 1.75 -->
      <g transform="translate(324.645312 268.038437) scale(0.1 -0.1)">
       <use xlink:href="#DejaVuSans-31"/>
       <use xlink:href="#DejaVuSans-2e" x="63.623047"/>
       <use xlink:href="#DejaVuSans-37" x="95.410156"/>
       <use xlink:href="#DejaVuSans-35" x="159.033203"/>
      </g>
     </g>
    </g>
    <g id="xtick_9">
     <g id="line2d_9">
      <g>
       <use xlink:href="#mb149e67b26" x="377.628125" y="253.44" style="stroke: #000000; stroke-width: 0.8"/>
      </g>
     </g>
     <g id="text_9">
      <!-- 2.00 -->
      <g transform="translate(366.495313 268.038437) scale(0.1 -0.1)">
       <use xlink:href="#DejaVuSans-32"/>
       <use xlink:href="#DejaVuSans-2e" x="63.623047"/>
       <use xlink:href="#DejaVuSans-30" x="95.410156"/>
       <use xlink:href="#DejaVuSans-30" x="159.033203"/>
      </g>
     </g>
    </g>
   </g>
   <g id="matplotlib.axis_2">
    <g id="ytick_1">
     <g id="line2d_10">
      <defs>
       <path id="m9d57b52def" d="M 0 0 
L -3.5 0 
" style="stroke: #000000; stroke-width: 0.8"/>
      </defs>
      <g>
       <use xlink:href="#m9d57b52def" x="42.828125" y="228.99661" style="stroke: #000000; stroke-width: 0.8"/>
      </g>
     </g>
     <g id="text_10">
      <!-- 0.000 -->
      <g transform="translate(7.2 232.795828) scale(0.1 -0.1)">
       <use xlink:href="#DejaVuSans-30"/>
       <use xlink:href="#DejaVuSans-2e" x="63.623047"/>
       <use xlink:href="#DejaVuSans-30" x="95.410156"/>
       <use xlink:href="#DejaVuSans-30" x="159.033203"/>
       <use xlink:href="#DejaVuSans-30" x="222.65625"/>
      </g>
     </g>
    </g>
    <g id="ytick_2">
     <g id="line2d_11">
      <g>
       <use xlink:href="#m9d57b52def" x="42.828125" y="203.873819" style="stroke: #000000; stroke-width: 0.8"/>
      </g>
     </g>
     <g id="text_11">
      <!-- 0.025 -->
      <g transform="translate(7.2 207.673038) scale(0.1 -0.1)">
       <use xlink:href="#DejaVuSans-30"/>
       <use xlink:href="#DejaVuSans-2e" x="63.623047"/>
       <use xlink:href="#DejaVuSans-30" x="95.410156"/>
       <use xlink:href="#DejaVuSans-32" x="159.033203"/>
       <use xlink:href="#DejaVuSans-35" x="222.65625"/>
      </g>
     </g>
    </g>
    <g id="ytick_3">
     <g id="line2d_12">
      <g>
       <use xlink:href="#m9d57b52def" x="42.828125" y="178.751028" style="stroke: #000000; stroke-width: 0.8"/>
      </g>
     </g>
     <g id="text_12">
      <!-- 0.050 -->
      <g transform="translate(7.2 182.550247) scale(0.1 -0.1)">
       <use xlink:href="#DejaVuSans-30"/>
       <use xlink:href="#DejaVuSans-2e" x="63.623047"/>
       <use xlink:href="#DejaVuSans-30" x="95.410156"/>
       <use xlink:href="#DejaVuSans-35" x="159.033203"/>
       <use xlink:href="#DejaVuSans-30" x="222.65625"/>
      </g>
     </g>
    </g>
    <g id="ytick_4">
     <g id="line2d_13">
      <g>
       <use xlink:href="#m9d57b52def" x="42.828125" y="153.628238" style="stroke: #000000; stroke-width: 0.8"/>
      </g>
     </g>
     <g id="text_13">
      <!-- 0.075 -->
      <g transform="translate(7.2 157.427456) scale(0.1 -0.1)">
       <use xlink:href="#DejaVuSans-30"/>
       <use xlink:href="#DejaVuSans-2e" x="63.623047"/>
       <use xlink:href="#DejaVuSans-30" x="95.410156"/>
       <use xlink:href="#DejaVuSans-37" x="159.033203"/>
       <use xlink:href="#DejaVuSans-35" x="222.65625"/>
      </g>
     </g>
    </g>
    <g id="ytick_5">
     <g id="line2d_14">
      <g>
       <use xlink:href="#m9d57b52def" x="42.828125" y="128.505447" style="stroke: #000000; stroke-width: 0.8"/>
      </g>
     </g>
     <g id="text_14">
      <!-- 0.100 -->
      <g transform="translate(7.2 132.304666) scale(0.1 -0.1)">
       <use xlink:href="#DejaVuSans-30"/>
       <use xlink:href="#DejaVuSans-2e" x="63.623047"/>
       <use xlink:href="#DejaVuSans-31" x="95.410156"/>
       <use xlink:href="#DejaVuSans-30" x="159.033203"/>
       <use xlink:href="#DejaVuSans-30" x="222.65625"/>
      </g>
     </g>
    </g>
    <g id="ytick_6">
     <g id="line2d_15">
      <g>
       <use xlink:href="#m9d57b52def" x="42.828125" y="103.382656" style="stroke: #000000; stroke-width: 0.8"/>
      </g>
     </g>
     <g id="text_15">
      <!-- 0.125 -->
      <g transform="translate(7.2 107.181875) scale(0.1 -0.1)">
       <use xlink:href="#DejaVuSans-30"/>
       <use xlink:href="#DejaVuSans-2e" x="63.623047"/>
       <use xlink:href="#DejaVuSans-31" x="95.410156"/>
       <use xlink:href="#DejaVuSans-32" x="159.033203"/>
       <use xlink:href="#DejaVuSans-35" x="222.65625"/>
      </g>
     </g>
    </g>
    <g id="ytick_7">
     <g id="line2d_16">
      <g>
       <use xlink:href="#m9d57b52def" x="42.828125" y="78.259866" style="stroke: #000000; stroke-width: 0.8"/>
      </g>
     </g>
     <g id="text_16">
      <!-- 0.150 -->
      <g transform="translate(7.2 82.059084) scale(0.1 -0.1)">
       <use xlink:href="#DejaVuSans-30"/>
       <use xlink:href="#DejaVuSans-2e" x="63.623047"/>
       <use xlink:href="#DejaVuSans-31" x="95.410156"/>
       <use xlink:href="#DejaVuSans-35" x="159.033203"/>
       <use xlink:href="#DejaVuSans-30" x="222.65625"/>
      </g>
     </g>
    </g>
    <g id="ytick_8">
     <g id="line2d_17">
      <g>
       <use xlink:href="#m9d57b52def" x="42.828125" y="53.137075" style="stroke: #000000; stroke-width: 0.8"/>
      </g>
     </g>
     <g id="text_17">
      <!-- 0.175 -->
      <g transform="translate(7.2 56.936294) scale(0.1 -0.1)">
       <use xlink:href="#DejaVuSans-30"/>
       <use xlink:href="#DejaVuSans-2e" x="63.623047"/>
       <use xlink:href="#DejaVuSans-31" x="95.410156"/>
       <use xlink:href="#DejaVuSans-37" x="159.033203"/>
       <use xlink:href="#DejaVuSans-35" x="222.65625"/>
      </g>
     </g>
    </g>
   </g>
   <g id="line2d_18">
    <path d="M 42.995525 228.99661 
L 43.330325 158.732787 
L 43.497725 203.325373 
L 43.665125 195.760228 
L 43.832525 160.495189 
L 43.999925 229.405455 
L 44.167325 175.964212 
L 44.334725 167.397398 
L 44.502125 175.182771 
L 44.669525 243.556364 
L 45.171725 172.848876 
L 45.339125 190.105216 
L 45.506525 142.97568 
L 45.673925 169.713593 
L 45.841325 170.623907 
L 46.008725 170.316055 
L 46.176125 158.343792 
L 46.343525 127.050786 
L 46.510925 170.808078 
L 46.678325 135.182889 
L 46.845725 161.699941 
L 47.013125 135.003093 
L 47.180525 141.462556 
L 47.347925 104.800268 
L 47.515325 164.63188 
L 47.850125 103.795569 
L 48.184925 129.563972 
L 48.352325 125.483929 
L 48.519725 139.10764 
L 49.021925 71.696439 
L 49.524125 124.228205 
L 49.691525 126.480958 
L 49.858925 93.27015 
L 50.193725 120.878386 
L 50.361125 93.812228 
L 50.695925 170.292869 
L 50.863325 163.498798 
L 51.030725 96.65473 
L 51.198125 151.809629 
L 51.532925 125.908264 
L 51.700325 129.435922 
L 51.867725 149.607101 
L 52.035125 122.124672 
L 52.369925 175.829206 
L 52.537325 144.835078 
L 52.704725 143.01799 
L 52.872125 176.310644 
L 53.039525 184.566344 
L 53.206925 169.264033 
L 53.374325 133.668251 
L 53.541725 156.161821 
L 53.709125 123.676681 
L 53.876525 125.285814 
L 54.211325 147.265839 
L 54.378725 146.87964 
L 54.546125 133.481258 
L 54.713525 147.776835 
L 54.880925 189.956271 
L 55.215725 136.76221 
L 55.383125 165.352762 
L 55.550525 170.193054 
L 55.717925 163.952301 
L 55.885325 163.156539 
L 56.052725 190.734168 
L 56.220125 141.602764 
L 56.387525 158.171697 
L 56.554925 127.408326 
L 56.722325 161.835307 
L 56.889725 133.562139 
L 57.057125 136.197202 
L 57.224525 99.739098 
L 57.559325 190.272159 
L 57.726725 194.77635 
L 58.061525 122.336883 
L 58.228925 138.888917 
L 58.396325 111.550495 
L 58.563725 126.694058 
L 58.731125 159.992572 
L 58.898525 103.568241 
L 59.065925 88.800242 
L 59.233325 136.873955 
L 59.400725 107.998748 
L 59.735525 142.85086 
L 59.902925 80.587408 
L 60.070325 90.657223 
L 60.237725 175.151335 
L 60.405125 190.119966 
L 60.572525 145.751089 
L 60.907325 182.909517 
L 61.074725 148.892707 
L 61.242125 165.886684 
L 61.409525 157.869329 
L 61.576925 138.644 
L 61.744325 137.688076 
L 61.911725 175.398785 
L 62.079125 159.168501 
L 62.413925 100.410064 
L 62.581325 147.946501 
L 62.748725 141.073603 
L 62.916125 107.493422 
L 63.083525 106.28307 
L 63.250925 124.626383 
L 63.418325 89.889367 
L 63.585725 122.005617 
L 63.753125 109.955684 
L 63.920525 65.044918 
L 64.087925 86.983186 
L 64.255325 179.657253 
L 64.590125 132.34745 
L 64.757525 144.139612 
L 64.924925 179.011823 
L 65.092325 147.084157 
L 65.259725 160.085246 
L 65.427125 131.479868 
L 65.594525 171.83094 
L 65.761925 125.677195 
L 65.929325 171.320629 
L 66.096725 149.873963 
L 66.264125 162.988314 
L 66.431525 144.435865 
L 66.598925 143.186461 
L 66.766325 144.809842 
L 66.933725 112.595431 
L 67.101125 166.282696 
L 67.603325 121.492475 
L 67.770725 145.043339 
L 67.938125 145.631018 
L 68.105525 140.480621 
L 68.272925 105.092934 
L 68.775125 193.522548 
L 68.942525 120.05883 
L 69.277325 203.499135 
L 69.612125 153.050045 
L 69.779525 146.126495 
L 70.114325 166.670865 
L 70.281725 168.683386 
L 70.449125 167.1129 
L 70.783925 125.152782 
L 70.951325 143.417094 
L 71.118725 131.943316 
L 71.286125 132.765775 
L 71.453525 139.360325 
L 71.620925 169.538928 
L 71.955725 101.154646 
L 72.290525 144.603013 
L 72.457925 110.402553 
L 72.625325 100.689841 
L 72.792725 139.873463 
L 72.960125 138.375731 
L 73.127525 100.658564 
L 73.294925 88.236538 
L 73.462325 144.568456 
L 73.629725 141.480321 
L 73.797125 125.801528 
L 73.964525 144.774663 
L 74.131925 150.729663 
L 74.299325 164.513949 
L 74.634125 92.362231 
L 74.968925 207.418335 
L 75.303725 144.155141 
L 75.638525 225.45083 
L 75.805925 194.996257 
L 75.973325 204.319388 
L 76.140725 203.39483 
L 76.475525 229.751749 
L 76.810325 159.897697 
L 77.145125 188.437333 
L 77.312525 184.675164 
L 77.479925 171.714422 
L 77.647325 192.382707 
L 77.814725 189.890361 
L 77.982125 141.427761 
L 78.149525 139.866365 
L 78.316925 222.960298 
L 78.484325 188.594502 
L 78.819125 206.327986 
L 78.986525 218.22245 
L 79.153925 183.853845 
L 79.321325 193.647599 
L 79.488725 187.844669 
L 79.656125 194.251772 
L 79.823525 138.128629 
L 80.158325 172.68076 
L 80.325725 164.437917 
L 80.493125 197.596475 
L 80.660525 154.901598 
L 80.827925 159.672296 
L 80.995325 169.098359 
L 81.162725 147.981217 
L 81.330125 185.407954 
L 81.664925 159.103908 
L 81.832325 155.020689 
L 81.999725 120.350031 
L 82.167125 124.562139 
L 82.501925 167.733894 
L 82.669325 150.312488 
L 82.836725 120.514106 
L 83.004125 137.038644 
L 83.171525 137.048726 
L 83.338925 111.103917 
L 83.506325 159.771253 
L 83.673725 137.158752 
L 83.841125 131.670982 
L 84.175925 105.178988 
L 84.510725 131.16623 
L 84.678125 111.58026 
L 85.012925 99.941977 
L 85.180325 166.159753 
L 85.515125 154.675899 
L 85.682525 116.44833 
L 85.849925 114.636136 
L 86.184725 185.240271 
L 86.519525 99.103404 
L 86.686925 124.300999 
L 86.854325 179.474484 
L 87.021725 141.442488 
L 87.356525 189.936373 
L 87.523925 146.164223 
L 87.691325 149.605982 
L 87.858725 189.223589 
L 88.026125 155.860422 
L 88.193525 212.357379 
L 88.360925 148.748399 
L 88.528325 144.673223 
L 88.863125 162.987672 
L 89.030525 161.732489 
L 89.197925 185.064049 
L 89.532725 135.981674 
L 89.700125 118.13602 
L 89.867525 182.497193 
L 90.034925 147.56713 
L 90.202325 155.094676 
L 90.369725 149.043692 
L 90.537125 167.757161 
L 90.704525 147.590881 
L 90.871925 183.559587 
L 91.039325 179.449566 
L 91.206725 137.65955 
L 91.374125 173.149214 
L 91.876325 128.323474 
L 92.043725 146.10325 
L 92.211125 120.001931 
L 92.378525 123.869801 
L 92.713325 161.575863 
L 93.048125 111.076296 
L 93.215525 150.667873 
L 93.382925 133.855448 
L 93.550325 135.817263 
L 93.885125 171.346169 
L 94.052525 161.446907 
L 94.219925 200.911832 
L 94.554725 181.573624 
L 94.722125 176.268523 
L 94.889525 152.6862 
L 95.056925 153.67664 
L 95.391725 97.411686 
L 95.726525 137.077675 
L 95.893925 125.811041 
L 96.061325 136.889166 
L 96.228725 167.578712 
L 96.396125 161.570028 
L 96.563525 151.481287 
L 96.898325 198.914061 
L 97.065725 196.021986 
L 97.233125 143.554339 
L 97.400525 190.493699 
L 97.567925 199.36378 
L 97.735325 193.162508 
L 97.902725 192.339797 
L 98.070125 147.980418 
L 98.237525 149.964842 
L 98.404925 173.636439 
L 98.572325 138.263085 
L 98.739725 137.940537 
L 98.907125 175.800364 
L 99.074525 183.537266 
L 99.241925 99.173139 
L 99.576725 164.015909 
L 99.744125 137.018208 
L 99.911525 134.081029 
L 100.078925 140.368261 
L 100.246325 162.54471 
L 100.413725 134.824073 
L 100.748525 170.895709 
L 101.083325 163.733933 
L 101.418125 204.871806 
L 101.585525 178.752694 
L 101.752925 191.744475 
L 102.255125 125.688678 
L 102.422525 191.492526 
L 102.757325 157.596689 
L 102.924725 161.916942 
L 103.092125 145.251736 
L 103.259525 140.664739 
L 103.594325 178.412954 
L 103.761725 161.700629 
L 103.929125 157.234048 
L 104.096525 187.174382 
L 104.431325 123.826982 
L 104.598725 179.505566 
L 104.933525 110.551215 
L 105.100925 175.31698 
L 105.435725 106.750153 
L 105.603125 127.170432 
L 105.770525 168.285464 
L 105.937925 160.423132 
L 106.105325 125.73213 
L 106.272725 140.163733 
L 106.440125 185.540141 
L 106.607525 182.94749 
L 106.774925 134.630518 
L 106.942325 168.568535 
L 107.109725 159.350863 
L 107.277125 168.334096 
L 107.444525 124.376354 
L 107.611925 124.233349 
L 107.779325 145.320209 
L 107.946725 121.351349 
L 108.114125 76.684564 
L 108.281525 96.680579 
L 108.448925 143.339666 
L 108.616325 145.482904 
L 108.951125 88.665489 
L 109.118525 127.017814 
L 109.285925 113.018558 
L 109.453325 113.602246 
L 109.788125 167.6401 
L 109.955525 121.563022 
L 110.290325 154.704761 
L 110.625125 115.537462 
L 110.792525 143.052803 
L 110.959925 114.822643 
L 111.127325 107.786181 
L 111.462125 141.334091 
L 111.629525 141.268859 
L 111.796925 130.766541 
L 112.131725 157.866754 
L 112.299125 117.365927 
L 112.466525 135.252276 
L 112.633925 135.55527 
L 112.801325 127.703904 
L 112.968725 100.621493 
L 113.136125 104.56317 
L 113.303525 150.743159 
L 113.638325 103.688444 
L 113.805725 103.023177 
L 113.973125 91.741276 
L 114.140525 92.422376 
L 114.307925 108.874794 
L 114.475325 55.682035 
L 114.642725 65.81133 
L 114.810125 109.949158 
L 114.977525 122.351423 
L 115.144925 115.387358 
L 115.479725 169.299729 
L 115.814525 128.282091 
L 115.981925 111.987732 
L 116.149325 153.935511 
L 116.316725 141.42251 
L 116.484125 153.39088 
L 116.651525 144.62684 
L 116.818925 103.758992 
L 116.986325 147.459018 
L 117.153725 148.560452 
L 117.321125 138.929178 
L 117.488525 151.348294 
L 117.655925 133.608736 
L 117.823325 168.577545 
L 118.158125 131.63989 
L 118.325525 168.428633 
L 118.492925 149.180609 
L 118.660325 147.274805 
L 118.827725 165.167231 
L 118.995125 164.631391 
L 119.162525 117.522395 
L 119.329925 152.161706 
L 119.497325 147.340185 
L 119.664725 89.919938 
L 119.832125 111.657168 
L 120.166925 93.801611 
L 120.334325 93.345368 
L 120.501725 104.272248 
L 120.669125 45.883636 
L 120.836525 119.151592 
L 121.003925 104.23789 
L 121.171325 107.966978 
L 121.338725 55.074978 
L 121.506125 179.259902 
L 121.673525 157.587545 
L 121.840925 173.02329 
L 122.008325 164.736342 
L 122.175725 111.470731 
L 122.343125 161.150965 
L 122.510525 157.423058 
L 122.677925 160.87892 
L 122.845325 174.360477 
L 123.012725 153.349282 
L 123.347525 204.176367 
L 123.682325 158.691039 
L 124.017125 214.364476 
L 124.184525 212.493077 
L 124.351925 171.653816 
L 124.519325 200.200564 
L 124.686725 159.446682 
L 124.854125 185.057169 
L 125.021525 189.238559 
L 125.188925 187.695407 
L 125.356325 189.814459 
L 125.523725 199.316768 
L 125.858525 160.436555 
L 126.025925 102.104619 
L 126.193325 165.630528 
L 126.360725 181.812071 
L 126.528125 123.420562 
L 126.695525 179.210148 
L 126.862925 175.804682 
L 127.030325 86.841599 
L 127.197725 108.181749 
L 127.365125 101.851543 
L 127.532525 111.514902 
L 127.699925 108.395989 
L 127.867325 142.088782 
L 128.034725 133.737242 
L 128.202125 132.777301 
L 128.369525 141.326518 
L 128.536925 155.818727 
L 128.704325 134.326494 
L 128.871725 129.630996 
L 129.373925 172.225931 
L 129.708725 114.234023 
L 129.876125 155.58089 
L 130.043525 138.43555 
L 130.210925 161.797822 
L 130.545725 110.159045 
L 130.880525 135.295062 
L 131.215325 117.954632 
L 131.717525 191.039177 
L 132.219725 145.330633 
L 132.387125 140.043898 
L 132.554525 164.378295 
L 132.721925 161.587213 
L 132.889325 154.452671 
L 133.056725 139.513898 
L 133.224125 193.1578 
L 133.391525 180.735446 
L 133.726325 140.84945 
L 133.893725 177.827416 
L 134.061125 150.432806 
L 134.228525 157.90914 
L 134.395925 136.097902 
L 134.563325 97.553278 
L 134.730725 123.847954 
L 134.898125 120.240659 
L 135.065525 127.61809 
L 135.232925 146.275948 
L 135.400325 143.054053 
L 135.567725 142.729759 
L 135.902525 125.863906 
L 136.069925 153.830221 
L 136.237325 100.853516 
L 136.572125 120.47138 
L 136.739525 92.00818 
L 136.906925 93.996265 
L 137.074325 93.152375 
L 137.409125 153.950932 
L 137.743925 90.591505 
L 137.911325 126.924899 
L 138.078725 118.466876 
L 138.246125 124.052699 
L 138.413525 101.622784 
L 138.580925 102.971609 
L 138.748325 93.421495 
L 138.915725 96.201516 
L 139.083125 61.295007 
L 139.417925 148.620959 
L 139.752725 118.522915 
L 139.920125 76.336752 
L 140.087525 80.260041 
L 140.254925 104.195869 
L 140.422325 102.750482 
L 140.589725 103.434956 
L 140.757125 97.29436 
L 140.924525 127.931979 
L 141.091925 115.09276 
L 141.259325 120.365837 
L 141.594125 93.95333 
L 141.928925 179.451396 
L 142.096325 131.982195 
L 142.263725 122.716602 
L 142.598525 179.025236 
L 142.765925 98.902485 
L 142.933325 146.208209 
L 143.100725 159.855224 
L 143.268125 141.883782 
L 143.435525 164.666928 
L 143.937725 83.363694 
L 144.105125 133.998418 
L 144.272525 120.938615 
L 144.439925 147.953043 
L 144.774725 120.661587 
L 144.942125 146.840455 
L 145.109525 132.706783 
L 145.276925 188.519035 
L 145.444325 154.677932 
L 145.611725 183.373915 
L 145.779125 155.053335 
L 145.946525 157.488881 
L 146.113925 150.473331 
L 146.281325 192.510897 
L 146.448725 161.334509 
L 146.616125 161.355248 
L 146.783525 146.584301 
L 146.950925 152.168741 
L 147.118325 124.203158 
L 147.285725 187.305456 
L 147.453125 191.272894 
L 147.620525 128.026623 
L 147.787925 160.703162 
L 148.122725 149.345776 
L 148.290125 117.72787 
L 148.792325 174.454738 
L 149.127125 127.76985 
L 149.294525 116.668652 
L 149.461925 145.999777 
L 149.796725 83.487533 
L 150.131525 148.858213 
L 150.298925 106.159201 
L 150.466325 92.146507 
L 150.633725 87.586955 
L 150.801125 111.909753 
L 150.968525 118.259128 
L 151.135925 92.314636 
L 151.470725 105.228447 
L 151.638125 163.252734 
L 151.972925 87.233797 
L 152.140325 110.803038 
L 152.307725 101.406476 
L 152.475125 134.93917 
L 152.642525 83.024891 
L 152.809925 95.812886 
L 152.977325 125.205268 
L 153.144725 131.486292 
L 153.479525 149.073782 
L 153.646925 129.744183 
L 153.814325 160.724388 
L 153.981725 163.733678 
L 154.149125 179.857288 
L 154.316525 143.757818 
L 154.483925 156.223598 
L 154.651325 153.456814 
L 154.818725 157.234889 
L 154.986125 132.282097 
L 155.320925 178.287781 
L 155.488325 131.866606 
L 155.823125 150.048214 
L 155.990525 144.941978 
L 156.157925 125.391788 
L 156.325325 63.673376 
L 156.492725 103.545521 
L 156.660125 104.53913 
L 156.827525 128.418399 
L 156.994925 109.442197 
L 157.162325 153.809768 
L 157.664525 91.370642 
L 157.831925 163.156257 
L 158.166725 112.679569 
L 158.334125 95.645019 
L 158.501525 101.025052 
L 158.836325 73.074218 
L 159.003725 81.631862 
L 159.171125 81.863653 
L 159.338525 84.315632 
L 159.505925 89.848168 
L 159.673325 67.283703 
L 160.008125 127.819275 
L 160.175525 120.763827 
L 160.342925 80.593719 
L 160.510325 94.716122 
L 160.677725 126.262051 
L 160.845125 94.802986 
L 161.012525 116.487956 
L 161.179925 108.403862 
L 161.347325 145.336334 
L 161.514725 149.704334 
L 161.682125 77.980383 
L 161.849525 70.909172 
L 162.016925 127.384102 
L 162.184325 107.160709 
L 162.351725 148.927003 
L 162.686525 110.641918 
L 162.853925 123.828288 
L 163.021325 93.922839 
L 163.188725 106.627643 
L 163.356125 133.140575 
L 163.690925 102.733648 
L 163.858325 94.810305 
L 164.025725 120.848246 
L 164.360525 82.85822 
L 164.695325 103.961571 
L 164.862725 103.270312 
L 165.030125 107.963977 
L 165.197525 99.499649 
L 165.364925 137.08971 
L 165.699725 49.231471 
L 166.034525 177.328148 
L 166.369325 100.826637 
L 166.536725 165.103502 
L 166.704125 176.065359 
L 166.871525 176.300958 
L 167.038925 191.097284 
L 167.206325 149.355904 
L 167.373725 149.940075 
L 167.541125 131.25987 
L 167.708525 166.157584 
L 167.875925 128.378745 
L 168.043325 118.148454 
L 168.210725 120.241522 
L 168.378125 130.590937 
L 168.545525 154.277013 
L 168.880325 118.788607 
L 169.215125 147.919551 
L 169.549925 156.210032 
L 169.717325 156.700275 
L 169.884725 198.865319 
L 170.052125 196.901317 
L 170.219525 158.943684 
L 170.386925 174.620243 
L 170.554325 207.932633 
L 170.721725 200.708291 
L 170.889125 155.138305 
L 171.223925 197.179264 
L 171.391325 189.971393 
L 171.558725 167.268191 
L 171.726125 183.281647 
L 171.893525 172.349752 
L 172.060925 152.231355 
L 172.228325 199.060458 
L 172.395725 187.681961 
L 172.563125 155.693732 
L 172.730525 165.423822 
L 172.897925 163.447338 
L 173.065325 177.333096 
L 173.232725 180.064504 
L 173.400125 173.776368 
L 173.567525 154.626633 
L 173.734925 164.271222 
L 173.902325 160.445238 
L 174.069725 146.193182 
L 174.237125 147.709201 
L 174.404525 189.726564 
L 174.571925 167.99945 
L 174.739325 128.861052 
L 174.906725 151.952284 
L 175.074125 145.806725 
L 175.241525 93.475244 
L 175.408925 140.953982 
L 175.576325 134.40345 
L 175.743725 150.330379 
L 175.911125 134.844471 
L 176.078525 163.304678 
L 176.245925 122.923443 
L 176.413325 189.941075 
L 176.580725 139.057504 
L 176.915525 189.74622 
L 177.082925 151.89854 
L 177.250325 163.589628 
L 177.417725 183.411241 
L 177.585125 174.66558 
L 177.752525 194.302893 
L 177.919925 152.273038 
L 178.254725 136.193968 
L 178.589525 110.363651 
L 178.756925 132.213384 
L 178.924325 118.212284 
L 179.091725 117.379268 
L 179.259125 121.560443 
L 179.426525 117.412846 
L 179.593925 91.444756 
L 179.761325 138.590409 
L 179.928725 148.239881 
L 180.096125 177.352214 
L 180.263525 157.565393 
L 180.430925 170.699174 
L 180.598325 157.091223 
L 180.933125 219.276784 
L 181.100525 168.82593 
L 181.267925 171.419599 
L 181.435325 165.208695 
L 181.602725 167.294662 
L 181.770125 218.3268 
L 182.272325 138.097715 
L 182.439725 154.281335 
L 182.607125 123.339841 
L 182.774525 156.794887 
L 182.941925 137.260359 
L 183.109325 141.068745 
L 183.276725 147.585898 
L 183.444125 197.712196 
L 183.611525 135.498419 
L 183.946325 193.902763 
L 184.113725 200.502799 
L 184.281125 172.983577 
L 184.448525 165.104377 
L 184.615925 139.514021 
L 184.783325 142.511349 
L 184.950725 164.310119 
L 185.118125 165.581631 
L 185.452925 130.798102 
L 185.620325 178.060614 
L 185.787725 170.300875 
L 185.955125 168.98809 
L 186.122525 132.608158 
L 186.457325 228.841033 
L 186.624725 163.058273 
L 186.792125 164.6244 
L 186.959525 197.196921 
L 187.126925 159.060502 
L 187.294325 174.642895 
L 187.461725 170.332728 
L 187.796525 118.681625 
L 187.963925 148.986327 
L 188.131325 156.600312 
L 188.298725 78.986706 
L 188.633525 156.668277 
L 188.800925 128.368102 
L 188.968325 78.368937 
L 189.135725 97.077031 
L 189.303125 129.416161 
L 189.470525 126.812488 
L 189.805325 113.796179 
L 189.972725 149.590208 
L 190.140125 130.211465 
L 190.307525 92.710835 
L 190.474925 128.76235 
L 190.642325 134.994091 
L 190.809725 117.736358 
L 190.977125 114.096873 
L 191.144525 120.285008 
L 191.311925 138.268902 
L 191.479325 118.780809 
L 191.814125 151.914421 
L 192.316325 100.811874 
L 192.483725 147.558613 
L 192.651125 134.066306 
L 192.818525 81.342228 
L 192.985925 92.957306 
L 193.153325 96.349045 
L 193.655525 161.451903 
L 193.822925 124.132452 
L 193.990325 120.583217 
L 194.157725 147.61839 
L 194.492525 104.161106 
L 194.659925 111.087752 
L 194.994725 146.119814 
L 195.162125 145.193288 
L 195.329525 90.009705 
L 195.496925 125.722989 
L 195.664325 109.124734 
L 195.831725 108.620723 
L 195.999125 117.483834 
L 196.166525 119.160374 
L 196.501325 151.632461 
L 196.668725 164.412172 
L 196.836125 149.602366 
L 197.003525 146.035191 
L 197.170925 198.031495 
L 197.505725 139.165418 
L 197.673125 198.413065 
L 197.840525 195.398452 
L 198.175325 156.557333 
L 198.510125 172.166894 
L 198.677525 145.844351 
L 198.844925 155.877385 
L 199.179725 185.225387 
L 199.347125 169.468086 
L 199.514525 172.17682 
L 199.681925 139.361053 
L 199.849325 139.145126 
L 200.016725 151.885745 
L 200.184125 150.600986 
L 200.351525 142.461446 
L 200.518925 150.696355 
L 200.686325 122.493895 
L 200.853725 141.603898 
L 201.188525 154.267188 
L 201.355925 114.89352 
L 201.523325 102.650455 
L 201.690725 180.887909 
L 202.527725 141.714359 
L 202.695125 125.385358 
L 202.862525 128.420421 
L 203.029925 156.060013 
L 203.197325 205.272179 
L 203.364725 157.791714 
L 203.532125 151.97255 
L 203.699525 124.842408 
L 204.034325 176.753136 
L 204.703925 119.846749 
L 204.871325 136.020906 
L 205.038725 124.237759 
L 205.206125 104.515782 
L 205.373525 119.19068 
L 205.540925 150.691375 
L 205.875725 120.152156 
L 206.210525 173.613474 
L 206.545325 156.093198 
L 206.712725 152.846602 
L 206.880125 173.323837 
L 207.047525 123.247474 
L 207.214925 120.720919 
L 207.382325 133.352986 
L 207.549725 123.378115 
L 207.717125 149.568261 
L 207.884525 102.143898 
L 208.051925 98.467182 
L 208.219325 113.830371 
L 208.386725 105.25261 
L 208.554125 110.225666 
L 208.721525 124.596951 
L 208.888925 109.632753 
L 209.056325 115.528683 
L 209.223725 185.910247 
L 209.391125 176.79125 
L 209.558525 149.441102 
L 209.725925 148.671665 
L 209.893325 192.122346 
L 210.060725 129.736516 
L 210.228125 143.714461 
L 210.395525 173.421043 
L 210.562925 100.975123 
L 210.897725 157.85071 
L 211.065125 137.923942 
L 211.232525 145.675587 
L 211.399925 133.108501 
L 211.567325 149.172078 
L 211.734725 147.866664 
L 211.902125 142.997283 
L 212.069525 131.020452 
L 212.236925 109.994662 
L 212.404325 143.129725 
L 212.571725 150.746698 
L 212.739125 136.702055 
L 212.906525 148.198436 
L 213.073925 167.765636 
L 213.408725 153.41607 
L 213.576125 182.735818 
L 213.743525 158.709575 
L 213.910925 159.445869 
L 214.078325 151.335444 
L 214.245725 151.843262 
L 214.413125 132.36816 
L 214.580525 166.939007 
L 214.747925 165.722205 
L 214.915325 192.655415 
L 215.082725 129.277579 
L 215.250125 148.197159 
L 215.417525 102.531823 
L 215.584925 139.288065 
L 215.752325 135.076119 
L 215.919725 135.211316 
L 216.087125 109.033188 
L 216.254525 104.492614 
L 216.589325 135.887518 
L 216.756725 114.377236 
L 216.924125 111.962963 
L 217.091525 119.12975 
L 217.258925 86.810181 
L 217.426325 107.226441 
L 217.593725 146.427451 
L 217.928525 124.861125 
L 218.095925 160.615817 
L 218.263325 148.84288 
L 218.598125 168.098908 
L 218.932925 121.080998 
L 219.100325 94.205004 
L 219.267725 100.484883 
L 219.435125 98.351716 
L 219.937325 121.943215 
L 220.104725 85.108457 
L 220.272125 158.042421 
L 220.606925 117.451751 
L 220.774325 135.316393 
L 220.941725 138.314348 
L 221.443925 98.058303 
L 221.611325 111.574045 
L 221.778725 85.758437 
L 221.946125 81.352647 
L 222.280925 119.267108 
L 222.448325 115.654251 
L 222.615725 95.08175 
L 222.783125 96.135353 
L 223.117925 192.341867 
L 223.285325 149.056179 
L 223.452725 190.64432 
L 223.620125 186.150749 
L 223.787525 205.309964 
L 224.122325 144.052985 
L 224.289725 168.854714 
L 224.457125 123.118255 
L 224.624525 126.311293 
L 224.791925 155.538026 
L 224.959325 216.856305 
L 225.126725 166.705041 
L 225.461525 182.374165 
L 225.628925 125.375328 
L 225.796325 191.671017 
L 225.963725 169.660031 
L 226.131125 177.84387 
L 226.298525 155.400717 
L 226.465925 205.516414 
L 226.633325 149.638849 
L 227.135525 123.10347 
L 227.302925 91.132133 
L 227.470325 157.688887 
L 227.637725 170.675777 
L 227.972525 109.150606 
L 228.307325 155.341878 
L 228.474725 164.842029 
L 228.642125 145.976758 
L 228.976925 192.686049 
L 229.144325 173.254083 
L 229.479125 209.940683 
L 229.646525 197.526796 
L 229.813925 194.94003 
L 229.981325 212.590512 
L 230.148725 182.78359 
L 230.316125 178.91559 
L 230.483525 186.498899 
L 230.650925 201.41734 
L 230.818325 181.31302 
L 231.153125 202.983348 
L 231.320525 204.08718 
L 231.487925 151.590584 
L 231.655325 216.875734 
L 231.822725 218.029188 
L 231.990125 231.075033 
L 232.157525 168.382626 
L 232.324925 167.879353 
L 232.492325 161.858778 
L 232.659725 192.229267 
L 232.827125 174.401428 
L 232.994525 138.372643 
L 233.161925 163.745105 
L 233.329325 166.748426 
L 233.496725 190.066423 
L 233.664125 131.519912 
L 233.831525 132.414707 
L 233.998925 163.663873 
L 234.166325 117.405288 
L 234.333725 120.516773 
L 234.501125 163.795748 
L 234.668525 157.605511 
L 234.835925 138.74067 
L 235.003325 159.324273 
L 235.170725 163.959676 
L 235.338125 134.375306 
L 235.505525 132.331626 
L 235.672925 176.213826 
L 236.007725 187.677112 
L 236.175125 144.357315 
L 236.509925 189.557918 
L 236.677325 139.027618 
L 236.844725 156.688227 
L 237.012125 198.449374 
L 237.179525 163.714491 
L 237.346925 177.287986 
L 237.514325 172.109774 
L 237.849125 116.584192 
L 238.016525 159.696667 
L 238.183925 137.745918 
L 238.351325 136.212583 
L 238.518725 126.194111 
L 238.686125 139.979031 
L 238.853525 129.020884 
L 239.020925 166.297878 
L 239.188325 145.360358 
L 239.355725 143.357187 
L 239.523125 171.003859 
L 239.857925 111.054174 
L 240.025325 155.946597 
L 240.192725 129.437897 
L 240.360125 140.835594 
L 240.527525 136.447237 
L 240.694925 127.68332 
L 240.862325 169.739573 
L 241.029725 168.963641 
L 241.197125 164.697613 
L 241.364525 131.322366 
L 241.531925 140.274657 
L 241.699325 208.044624 
L 241.866725 216.374671 
L 242.201525 161.452007 
L 242.368925 185.911678 
L 242.536325 185.25192 
L 242.703725 152.358244 
L 242.871125 170.922835 
L 243.038525 163.859369 
L 243.373325 125.208987 
L 243.540725 130.904675 
L 243.708125 159.354478 
L 243.875525 139.620262 
L 244.210325 182.22926 
L 244.377725 121.731055 
L 244.545125 140.249573 
L 244.712525 196.210517 
L 245.214725 117.07312 
L 245.549525 155.762224 
L 245.716925 122.16798 
L 245.884325 159.05009 
L 246.051725 132.551375 
L 246.219125 137.844259 
L 246.553925 162.799664 
L 246.721325 165.989156 
L 247.223525 105.961536 
L 247.390925 103.352193 
L 247.558325 118.364375 
L 247.725725 118.793486 
L 248.060525 101.663647 
L 248.395325 143.326323 
L 248.730125 136.8476 
L 248.897525 120.475374 
L 249.064925 137.138737 
L 249.232325 141.881964 
L 249.399725 109.009459 
L 249.567125 157.79584 
L 249.734525 170.755666 
L 249.901925 148.651704 
L 250.069325 148.7897 
L 250.236725 148.544803 
L 250.404125 167.555181 
L 250.738925 147.840055 
L 250.906325 159.333381 
L 251.073725 123.458424 
L 251.241125 120.418027 
L 251.408525 141.102688 
L 251.575925 183.447704 
L 251.910725 123.24814 
L 252.078125 183.563474 
L 252.245525 162.436845 
L 252.412925 157.826203 
L 252.580325 133.310332 
L 252.747725 133.514362 
L 252.915125 121.051051 
L 253.082525 123.775315 
L 253.249925 129.181532 
L 253.417325 171.968442 
L 253.584725 160.445148 
L 253.752125 126.565411 
L 254.086925 184.361894 
L 254.254325 212.25751 
L 254.421725 155.16453 
L 254.589125 178.908857 
L 254.923925 187.700556 
L 255.091325 141.091619 
L 255.258725 185.114248 
L 255.426125 175.74858 
L 255.593525 192.858568 
L 255.760925 222.901205 
L 255.928325 204.420958 
L 256.095725 149.310513 
L 256.263125 163.134201 
L 256.430525 125.79605 
L 256.597925 167.809486 
L 256.932725 137.067058 
L 257.267525 141.082777 
L 257.434925 118.652999 
L 257.602325 130.049954 
L 257.769725 118.574782 
L 257.937125 90.899511 
L 258.271925 157.758633 
L 258.439325 147.35044 
L 258.606725 149.435246 
L 258.774125 131.14101 
L 258.941525 153.685958 
L 259.108925 153.522584 
L 259.276325 175.691649 
L 259.611125 105.123754 
L 259.778525 160.573168 
L 259.945925 143.948138 
L 260.113325 159.624803 
L 260.280725 128.472758 
L 260.448125 150.786465 
L 260.615525 124.319212 
L 260.782925 141.782751 
L 260.950325 173.951782 
L 261.117725 148.351822 
L 261.285125 144.821239 
L 261.452525 167.875331 
L 261.619925 162.702456 
L 261.787325 207.960003 
L 261.954725 174.145473 
L 262.289525 164.489715 
L 262.456925 137.150562 
L 262.624325 137.684943 
L 262.959125 185.319341 
L 263.126525 164.533027 
L 263.293925 188.641821 
L 263.461325 189.608201 
L 263.628725 187.562658 
L 263.796125 161.768408 
L 263.963525 155.780257 
L 264.130925 134.906903 
L 264.298325 135.649678 
L 264.465725 188.485692 
L 264.633125 117.788067 
L 264.800525 125.657838 
L 264.967925 110.187194 
L 265.135325 168.929934 
L 265.302725 103.72977 
L 265.470125 102.328738 
L 265.637525 118.737016 
L 265.804925 111.702123 
L 265.972325 115.878622 
L 266.139725 127.402686 
L 266.307125 128.203504 
L 266.474525 125.838281 
L 266.809325 101.481264 
L 266.976725 111.396599 
L 267.144125 128.925918 
L 267.311525 118.822687 
L 267.646325 187.995544 
L 267.813725 151.264583 
L 267.981125 161.19898 
L 268.148525 184.651778 
L 268.315925 172.40859 
L 268.483325 148.647378 
L 268.650725 187.907166 
L 268.818125 191.243192 
L 268.985525 198.036617 
L 269.152925 143.533723 
L 269.487725 173.329504 
L 269.822525 135.266279 
L 270.157325 160.341717 
L 270.492125 146.336656 
L 270.659525 123.362244 
L 270.826925 159.279826 
L 270.994325 168.812119 
L 271.161725 148.98532 
L 271.329125 105.382421 
L 271.496525 141.541316 
L 271.663925 152.692769 
L 271.831325 182.665737 
L 271.998725 149.926632 
L 272.166125 174.727207 
L 272.333525 118.851915 
L 272.500925 164.06339 
L 273.003125 112.504553 
L 273.337925 160.253636 
L 273.505325 104.608122 
L 273.672725 106.450681 
L 273.840125 140.036832 
L 274.007525 98.764331 
L 274.174925 153.178758 
L 274.509725 175.064718 
L 274.677125 152.370934 
L 274.844525 150.921956 
L 275.011925 144.329919 
L 275.346725 184.387488 
L 275.514125 172.475788 
L 275.681525 183.66837 
L 275.848925 153.360229 
L 276.016325 152.150558 
L 276.183725 129.641381 
L 276.351125 147.658198 
L 276.518525 142.320089 
L 276.685925 102.598059 
L 276.853325 149.629541 
L 277.020725 137.103426 
L 277.188125 187.47597 
L 277.355525 143.32642 
L 277.522925 173.521542 
L 277.690325 141.76904 
L 277.857725 134.766804 
L 278.025125 161.171591 
L 278.192525 167.985577 
L 278.359925 131.517971 
L 278.527325 132.310015 
L 278.694725 137.625867 
L 279.029525 95.602541 
L 279.196925 109.193037 
L 279.364325 80.692958 
L 279.531725 116.130324 
L 279.866525 87.40585 
L 280.033925 90.805517 
L 280.201325 70.199617 
L 280.368725 65.249914 
L 280.536125 98.662546 
L 280.703525 74.396406 
L 280.870925 74.728282 
L 281.038325 83.597652 
L 281.205725 84.112444 
L 281.373125 98.291636 
L 281.540525 89.673977 
L 281.707925 135.414933 
L 282.042725 128.835845 
L 282.210125 83.322788 
L 282.377525 91.324726 
L 282.544925 142.432457 
L 282.879725 91.309604 
L 283.047125 104.467074 
L 283.214525 151.914589 
L 283.381925 135.878013 
L 283.549325 135.118052 
L 283.716725 116.405491 
L 283.884125 153.156594 
L 284.051525 131.66662 
L 284.218925 167.382813 
L 284.386325 179.237759 
L 284.553725 114.422531 
L 284.721125 98.717928 
L 284.888525 159.306027 
L 285.055925 146.511766 
L 285.223325 158.069388 
L 285.390725 115.221506 
L 285.558125 162.460067 
L 285.725525 127.077767 
L 285.892925 138.514142 
L 286.060325 162.202118 
L 286.227725 150.352484 
L 286.395125 163.936591 
L 286.562525 155.326493 
L 286.729925 159.304648 
L 286.897325 195.078564 
L 287.064725 189.439524 
L 287.232125 173.076821 
L 287.399525 214.005061 
L 287.566925 216.804943 
L 287.734325 167.664423 
L 287.901725 164.041058 
L 288.069125 130.408001 
L 288.236525 141.161452 
L 288.403925 181.468451 
L 288.738725 115.801058 
L 288.906125 99.142972 
L 289.240925 152.943228 
L 289.408325 111.761967 
L 289.575725 124.441837 
L 289.743125 124.412619 
L 289.910525 163.619464 
L 290.245325 130.98811 
L 290.580125 163.664721 
L 290.747525 178.55339 
L 291.082325 150.870649 
L 291.249725 126.754414 
L 291.417125 141.743831 
L 291.584525 138.995841 
L 291.751925 109.522405 
L 291.919325 160.609471 
L 292.086725 145.329653 
L 292.254125 117.16098 
L 292.588925 175.684824 
L 292.756325 142.190748 
L 293.091125 192.401861 
L 293.258525 198.765782 
L 293.425925 148.645405 
L 293.593325 169.376476 
L 293.760725 139.966663 
L 293.928125 137.752145 
L 294.095525 147.976061 
L 294.262925 125.28235 
L 294.430325 128.269448 
L 294.597725 140.739318 
L 294.765125 129.815709 
L 294.932525 110.04558 
L 295.099925 150.008227 
L 295.267325 150.384652 
L 295.434725 111.871636 
L 295.602125 183.221892 
L 295.936925 178.771792 
L 296.104325 141.595279 
L 296.271725 146.089952 
L 296.439125 167.859027 
L 296.606525 156.041334 
L 296.773925 162.949062 
L 297.276125 149.659381 
L 297.443525 174.625799 
L 297.610925 165.572568 
L 297.778325 121.342501 
L 297.945725 162.112093 
L 298.113125 154.238187 
L 298.280525 157.739508 
L 298.447925 138.115087 
L 298.615325 157.066897 
L 298.782725 158.960151 
L 298.950125 147.781488 
L 299.117525 192.455322 
L 299.284925 189.5177 
L 299.619725 112.17821 
L 299.954525 192.193723 
L 300.121925 171.014004 
L 300.456725 180.564647 
L 300.624125 213.2036 
L 300.791525 204.32443 
L 300.958925 150.865356 
L 301.126325 148.078252 
L 301.293725 160.889356 
L 301.628525 134.290756 
L 301.795925 126.373898 
L 301.963325 124.796856 
L 302.130725 131.245758 
L 302.298125 155.774254 
L 302.465525 114.6129 
L 302.632925 129.141826 
L 302.800325 114.097619 
L 302.967725 194.676629 
L 303.135125 158.348472 
L 303.302525 90.324095 
L 303.469925 82.186082 
L 303.804725 135.846592 
L 303.972125 153.459802 
L 304.139525 120.689007 
L 304.474325 129.494669 
L 304.641725 106.79615 
L 304.809125 110.601165 
L 305.478725 163.651393 
L 305.646125 156.37601 
L 305.813525 135.077218 
L 305.980925 147.785089 
L 306.148325 201.386485 
L 306.483125 178.734373 
L 306.650525 180.164408 
L 306.817925 160.387872 
L 306.985325 198.310785 
L 307.320125 157.243282 
L 307.487525 184.231907 
L 307.822325 134.227483 
L 307.989725 151.013001 
L 308.157125 119.760744 
L 308.324525 121.039317 
L 308.491925 113.308843 
L 308.659325 140.46872 
L 308.826725 136.659713 
L 308.994125 139.374727 
L 309.161525 205.438846 
L 309.328925 197.494845 
L 309.663725 139.906703 
L 309.831125 165.750042 
L 309.998525 164.411912 
L 310.500725 90.942877 
L 310.668125 92.126789 
L 310.835525 107.012491 
L 311.002925 69.622104 
L 311.337725 119.126005 
L 311.505125 104.452803 
L 311.672525 105.360072 
L 312.007325 129.030471 
L 312.174725 122.126607 
L 312.342125 124.895101 
L 312.509525 134.341177 
L 312.676925 130.968362 
L 312.844325 138.214903 
L 313.011725 136.926872 
L 313.179125 162.745761 
L 313.346525 144.624802 
L 313.681325 172.952695 
L 313.848725 204.130869 
L 314.016125 209.430471 
L 314.183525 199.269518 
L 314.350925 180.268971 
L 314.518325 185.229358 
L 314.685725 194.654149 
L 314.853125 185.541795 
L 315.020525 193.998588 
L 315.187925 194.942038 
L 315.355325 181.274478 
L 315.522725 177.700178 
L 315.690125 160.440274 
L 315.857525 223.292537 
L 316.024925 204.854106 
L 316.192325 225.733103 
L 316.359725 160.068958 
L 316.527125 174.867572 
L 316.694525 175.578295 
L 316.861925 154.744766 
L 317.029325 169.986394 
L 317.364125 140.213381 
L 317.531525 165.12218 
L 317.698925 157.587122 
L 317.866325 159.920777 
L 318.033725 193.592396 
L 318.201125 198.513071 
L 318.368525 180.490402 
L 318.535925 175.997757 
L 318.703325 174.81009 
L 318.870725 176.190451 
L 319.038125 153.140566 
L 319.205525 178.929246 
L 319.372925 182.209364 
L 319.540325 190.975838 
L 319.707725 184.259478 
L 319.875125 160.06938 
L 320.042525 154.583583 
L 320.209925 141.454912 
L 320.377325 197.199717 
L 320.544725 197.64347 
L 320.712125 196.166427 
L 320.879525 137.665784 
L 321.381725 220.488165 
L 321.549125 205.429709 
L 321.716525 175.558077 
L 321.883925 180.932877 
L 322.051325 193.482385 
L 322.218725 215.158787 
L 322.386125 135.83915 
L 322.553525 183.403607 
L 322.720925 162.717817 
L 322.888325 124.210063 
L 323.223125 190.278552 
L 323.892725 97.988857 
L 324.227525 191.124898 
L 324.562325 107.238314 
L 324.729725 166.255662 
L 324.897125 147.452489 
L 325.064525 144.830365 
L 325.231925 164.605094 
L 325.399325 128.061762 
L 325.566725 128.612665 
L 325.734125 127.783387 
L 325.901525 153.926742 
L 326.068925 124.314635 
L 326.236325 162.903594 
L 326.571125 108.411937 
L 326.905925 191.199669 
L 327.073325 143.664049 
L 327.240725 127.756193 
L 327.408125 125.135608 
L 327.575525 141.234342 
L 327.742925 141.374981 
L 327.910325 120.181817 
L 328.077725 151.853787 
L 328.245125 161.593339 
L 328.412525 127.195188 
L 328.747325 152.584015 
L 329.082125 190.265742 
L 329.416925 179.262488 
L 329.584325 200.708301 
L 329.919125 137.811431 
L 330.253925 172.195991 
L 330.421325 113.23116 
L 330.588725 109.365441 
L 330.756125 110.896529 
L 330.923525 139.832206 
L 331.425725 102.071039 
L 331.593125 112.604136 
L 331.760525 100.98708 
L 331.927925 123.908424 
L 332.095325 88.396505 
L 332.262725 92.780918 
L 332.430125 115.051351 
L 332.597525 69.326557 
L 332.764925 73.308169 
L 332.932325 93.681908 
L 333.099725 96.176731 
L 333.267125 126.041308 
L 333.434525 87.586725 
L 333.601925 94.238722 
L 333.769325 115.936049 
L 333.936725 117.727672 
L 334.271525 195.305803 
L 334.438925 150.062061 
L 334.941125 202.540344 
L 335.108525 152.553349 
L 335.275925 212.754538 
L 335.443325 199.116626 
L 335.610725 148.990499 
L 335.778125 190.323363 
L 335.945525 184.242674 
L 336.112925 122.788018 
L 336.280325 149.079578 
L 336.447725 139.221968 
L 336.615125 104.972112 
L 336.782525 132.248933 
L 336.949925 136.678089 
L 337.117325 122.27383 
L 337.284725 125.988446 
L 337.452125 124.846328 
L 337.786925 142.874721 
L 337.954325 146.833102 
L 338.289125 113.707017 
L 338.456525 124.682766 
L 338.623925 117.251271 
L 338.791325 96.385043 
L 338.958725 93.535611 
L 339.126125 96.739274 
L 339.293525 125.13055 
L 339.628325 119.191365 
L 339.795725 126.215321 
L 340.130525 114.529528 
L 340.297925 156.287055 
L 340.465325 121.408 
L 340.632725 123.936826 
L 340.800125 112.497177 
L 340.967525 156.855381 
L 341.302325 90.854784 
L 341.637125 119.295333 
L 341.804525 103.037594 
L 342.139325 134.071548 
L 342.306725 124.337095 
L 342.641525 134.867992 
L 342.808925 166.670981 
L 342.976325 143.758871 
L 343.311125 160.399695 
L 343.645925 128.446045 
L 343.813325 148.385186 
L 343.980725 130.545886 
L 344.148125 126.462316 
L 344.315525 145.845956 
L 344.482925 118.410142 
L 344.650325 120.262856 
L 344.985125 166.686319 
L 345.152525 141.372923 
L 345.487325 129.728838 
L 345.654725 113.462062 
L 345.822125 116.822548 
L 345.989525 131.602962 
L 346.156925 114.667764 
L 346.324325 127.749205 
L 346.491725 127.369222 
L 346.659125 173.457064 
L 346.826525 171.180628 
L 346.993925 143.103938 
L 347.161325 150.722171 
L 347.328725 133.759397 
L 347.496125 138.609812 
L 347.663525 126.060713 
L 347.830925 127.448934 
L 347.998325 115.615408 
L 348.165725 140.529697 
L 348.333125 135.334924 
L 348.500525 134.655534 
L 348.667925 160.351549 
L 348.835325 156.133206 
L 349.002725 95.809448 
L 349.337525 132.906355 
L 349.504925 120.675511 
L 349.672325 120.861969 
L 349.839725 165.543213 
L 350.174525 108.936489 
L 350.341925 112.739825 
L 350.509325 158.575205 
L 350.844125 109.158947 
L 351.011525 121.724065 
L 351.178925 124.008728 
L 351.346325 83.885855 
L 351.513725 97.694969 
L 351.681125 101.22936 
L 351.848525 85.243863 
L 352.015925 98.923746 
L 352.183325 89.315298 
L 352.350725 50.131916 
L 352.518125 113.643476 
L 352.685525 117.873298 
L 352.852925 107.44965 
L 353.020325 78.310043 
L 353.187725 110.243836 
L 353.522525 111.024658 
L 354.024725 145.794163 
L 354.359525 119.156722 
L 354.526925 140.699075 
L 354.694325 81.124412 
L 354.861725 129.967076 
L 355.029125 92.152603 
L 355.196525 160.602585 
L 355.363925 146.615005 
L 355.531325 108.980387 
L 355.866125 162.645288 
L 356.033525 163.115425 
L 356.200925 143.473184 
L 356.368325 141.019109 
L 356.535725 130.601777 
L 356.703125 157.716929 
L 356.870525 116.945274 
L 357.037925 116.89272 
L 357.205325 177.562395 
L 357.372725 165.562837 
L 357.540125 168.356407 
L 357.707525 181.406561 
L 358.042325 161.484341 
L 358.209725 173.67764 
L 358.377125 141.432693 
L 358.544525 146.038147 
L 358.711925 107.260401 
L 358.879325 112.261843 
L 359.046725 96.762856 
L 359.214125 58.306126 
L 359.381525 114.430155 
L 359.883725 81.107354 
L 360.051125 132.233173 
L 360.218525 149.253744 
L 360.553325 71.532758 
L 360.888125 131.287956 
L 361.055525 126.358866 
L 361.222925 146.67363 
L 361.390325 104.838512 
L 361.725125 132.511101 
L 361.892525 108.511479 
L 362.059925 106.581401 
L 362.227325 110.539895 
L 362.562125 88.638355 
L 362.729525 116.703953 
L 362.896925 115.373669 
L 363.064325 115.804248 
L 363.231725 48.665113 
L 363.566525 93.760546 
L 363.733925 68.750057 
L 363.901325 67.55288 
L 364.068725 120.606739 
L 364.236125 117.502688 
L 364.570925 70.460052 
L 364.738325 104.128334 
L 364.905725 81.939136 
L 365.073125 109.740179 
L 365.407925 65.081882 
L 365.742725 116.81741 
L 365.910125 91.536202 
L 366.244925 118.876062 
L 366.412325 63.98188 
L 366.579725 76.425231 
L 366.747125 111.911185 
L 366.914525 108.598185 
L 367.081925 95.600422 
L 367.249325 149.443532 
L 367.416725 140.687374 
L 367.584125 119.330469 
L 367.751525 151.366914 
L 367.918925 152.207119 
L 368.086325 162.760388 
L 368.253725 162.756925 
L 368.421125 160.240807 
L 368.588525 143.655309 
L 368.755925 139.548061 
L 368.923325 124.23726 
L 369.090725 137.841023 
L 369.258125 133.32007 
L 369.425525 119.220201 
L 369.592925 133.136667 
L 369.760325 132.704834 
L 369.927725 100.525957 
L 370.095125 93.696705 
L 370.262525 126.690011 
L 370.429925 181.713747 
L 370.597325 132.139363 
L 370.932125 125.706274 
L 371.099525 163.478847 
L 371.266925 175.897864 
L 371.434325 140.811916 
L 371.769125 168.739324 
L 371.936525 179.141187 
L 372.103925 147.07852 
L 372.271325 166.77538 
L 372.438725 154.966569 
L 372.606125 180.352766 
L 372.773525 132.577529 
L 373.108325 177.083504 
L 373.275725 166.247675 
L 373.443125 167.203421 
L 373.610525 148.474449 
L 373.777925 150.430416 
L 373.945325 146.355148 
L 374.112725 134.731184 
L 374.280125 107.617433 
L 374.447525 115.812926 
L 374.614925 141.953065 
L 374.949725 135.455443 
L 375.117125 92.425743 
L 375.284525 104.313194 
L 375.451925 152.556038 
L 375.619325 153.015422 
L 375.786725 119.321495 
L 375.954125 108.744635 
L 376.288925 162.636678 
L 376.456325 158.358955 
L 376.623725 131.866982 
L 376.791125 177.129089 
L 376.958525 142.16404 
L 377.125925 172.394814 
L 377.293325 123.138434 
L 377.628125 133.968098 
L 377.628125 133.968098 
" clip-path="url(#p265adbdca5)" style="fill: none; stroke: #1f77b4; stroke-width: 1.5; stroke-linecap: square"/>
   </g>
   <g id="line2d_19">
    <path d="M 42.995525 228.99661 
L 43.665125 195.866688 
L 44.334725 173.659037 
L 45.004325 158.772803 
L 45.673925 148.794263 
L 46.343525 142.105447 
L 47.013125 137.6218 
L 47.682725 134.616321 
L 48.352325 132.601688 
L 49.021925 131.25124 
L 49.691525 130.346007 
L 50.528525 129.621803 
L 51.365525 129.182551 
L 52.537325 128.841687 
L 54.211325 128.629143 
L 57.224525 128.525894 
L 68.440325 128.505472 
L 377.628125 128.505447 
L 377.628125 128.505447 
" clip-path="url(#p265adbdca5)" style="fill: none; stroke: #ff7f0e; stroke-width: 1.5; stroke-linecap: square"/>
   </g>
   <g id="patch_3">
    <path d="M 42.828125 253.44 
L 42.828125 36 
" style="fill: none; stroke: #000000; stroke-width: 0.8; stroke-linejoin: miter; stroke-linecap: square"/>
   </g>
   <g id="patch_4">
    <path d="M 377.628125 253.44 
L 377.628125 36 
" style="fill: none; stroke: #000000; stroke-width: 0.8; stroke-linejoin: miter; stroke-linecap: square"/>
   </g>
   <g id="patch_5">
    <path d="M 42.828125 253.44 
L 377.628125 253.44 
" style="fill: none; stroke: #000000; stroke-width: 0.8; stroke-linejoin: miter; stroke-linecap: square"/>
   </g>
   <g id="patch_6">
    <path d="M 42.828125 36 
L 377.628125 36 
" style="fill: none; stroke: #000000; stroke-width: 0.8; stroke-linejoin: miter; stroke-linecap: square"/>
   </g>
   <g id="legend_1">
    <g id="patch_7">
     <path d="M 185.378125 77.078125 
L 235.078125 77.078125 
Q 237.078125 77.078125 237.078125 75.078125 
L 237.078125 43 
Q 237.078125 41 235.078125 41 
L 185.378125 41 
Q 183.378125 41 183.378125 43 
L 183.378125 75.078125 
Q 183.378125 77.078125 185.378125 77.078125 
z
" style="fill: #ffffff; opacity: 0.8; stroke: #cccccc; stroke-linejoin: miter"/>
    </g>
    <g id="line2d_20">
     <path d="M 187.378125 52.8 
L 197.378125 52.8 
L 207.378125 52.8 
" style="fill: none; stroke: #1f77b4; stroke-width: 1.5; stroke-linecap: square"/>
    </g>
    <g id="text_18">
     <!-- $\hat{y(t)}$ -->
     <g transform="translate(215.378125 56.3) scale(0.1 -0.1)">
      <defs>
       <path id="DejaVuSans-302" d="M -1831 5119 
L -1369 5119 
L -603 3944 
L -1038 3944 
L -1600 4709 
L -2163 3944 
L -2597 3944 
L -1831 5119 
z
M -1600 3584 
L -1600 3584 
z
" transform="scale(0.015625)"/>
       <path id="DejaVuSans-Oblique-79" d="M 1588 -325 
Q 1188 -997 936 -1164 
Q 684 -1331 294 -1331 
L -159 -1331 
L -63 -850 
L 269 -850 
Q 509 -850 678 -719 
Q 847 -588 1056 -206 
L 1234 128 
L 459 3500 
L 1069 3500 
L 1650 819 
L 3256 3500 
L 3859 3500 
L 1588 -325 
z
" transform="scale(0.015625)"/>
       <path id="DejaVuSans-28" d="M 1984 4856 
Q 1566 4138 1362 3434 
Q 1159 2731 1159 2009 
Q 1159 1288 1364 580 
Q 1569 -128 1984 -844 
L 1484 -844 
Q 1016 -109 783 600 
Q 550 1309 550 2009 
Q 550 2706 781 3412 
Q 1013 4119 1484 4856 
L 1984 4856 
z
" transform="scale(0.015625)"/>
       <path id="DejaVuSans-Oblique-74" d="M 2706 3500 
L 2619 3053 
L 1472 3053 
L 1100 1153 
Q 1081 1047 1072 975 
Q 1063 903 1063 863 
Q 1063 663 1183 572 
Q 1303 481 1569 481 
L 2150 481 
L 2053 0 
L 1503 0 
Q 991 0 739 200 
Q 488 400 488 806 
Q 488 878 497 964 
Q 506 1050 525 1153 
L 897 3053 
L 409 3053 
L 500 3500 
L 978 3500 
L 1172 4494 
L 1747 4494 
L 1556 3500 
L 2706 3500 
z
" transform="scale(0.015625)"/>
       <path id="DejaVuSans-29" d="M 513 4856 
L 1013 4856 
Q 1481 4119 1714 3412 
Q 1947 2706 1947 2009 
Q 1947 1309 1714 600 
Q 1481 -109 1013 -844 
L 513 -844 
Q 928 -128 1133 580 
Q 1338 1288 1338 2009 
Q 1338 2731 1133 3434 
Q 928 4138 513 4856 
z
" transform="scale(0.015625)"/>
      </defs>
      <use xlink:href="#DejaVuSans-302" transform="translate(135.682129 33.015625)"/>
      <use xlink:href="#DejaVuSans-Oblique-79" transform="translate(0 0.640625)"/>
      <use xlink:href="#DejaVuSans-28" transform="translate(59.179688 0.640625)"/>
      <use xlink:href="#DejaVuSans-Oblique-74" transform="translate(98.193359 0.640625)"/>
      <use xlink:href="#DejaVuSans-29" transform="translate(137.402344 0.640625)"/>
     </g>
    </g>
    <g id="line2d_21">
     <path d="M 187.378125 67.498437 
L 197.378125 67.498437 
L 207.378125 67.498437 
" style="fill: none; stroke: #ff7f0e; stroke-width: 1.5; stroke-linecap: square"/>
    </g>
    <g id="text_19">
     <!-- $x(t)$ -->
     <g transform="translate(215.378125 70.998437) scale(0.1 -0.1)">
      <defs>
       <path id="DejaVuSans-Oblique-78" d="M 3841 3500 
L 2234 1784 
L 3219 0 
L 2559 0 
L 1819 1388 
L 531 0 
L -166 0 
L 1556 1844 
L 641 3500 
L 1300 3500 
L 1972 2234 
L 3144 3500 
L 3841 3500 
z
" transform="scale(0.015625)"/>
      </defs>
      <use xlink:href="#DejaVuSans-Oblique-78" transform="translate(0 0.125)"/>
      <use xlink:href="#DejaVuSans-28" transform="translate(59.179688 0.125)"/>
      <use xlink:href="#DejaVuSans-Oblique-74" transform="translate(98.193359 0.125)"/>
      <use xlink:href="#DejaVuSans-29" transform="translate(137.402344 0.125)"/>
     </g>
    </g>
   </g>
  </g>
  <g id="text_20">
   <!-- Accumulate to Threshold model with input of 0.1 with rms=3  -->
   <g transform="translate(19.659688 16.318125) scale(0.12 -0.12)">
    <defs>
     <path id="DejaVuSans-41" d="M 2188 4044 
L 1331 1722 
L 3047 1722 
L 2188 4044 
z
M 1831 4666 
L 2547 4666 
L 4325 0 
L 3669 0 
L 3244 1197 
L 1141 1197 
L 716 0 
L 50 0 
L 1831 4666 
z
" transform="scale(0.015625)"/>
     <path id="DejaVuSans-63" d="M 3122 3366 
L 3122 2828 
Q 2878 2963 2633 3030 
Q 2388 3097 2138 3097 
Q 1578 3097 1268 2742 
Q 959 2388 959 1747 
Q 959 1106 1268 751 
Q 1578 397 2138 397 
Q 2388 397 2633 464 
Q 2878 531 3122 666 
L 3122 134 
Q 2881 22 2623 -34 
Q 2366 -91 2075 -91 
Q 1284 -91 818 406 
Q 353 903 353 1747 
Q 353 2603 823 3093 
Q 1294 3584 2113 3584 
Q 2378 3584 2631 3529 
Q 2884 3475 3122 3366 
z
" transform="scale(0.015625)"/>
     <path id="DejaVuSans-75" d="M 544 1381 
L 544 3500 
L 1119 3500 
L 1119 1403 
Q 1119 906 1312 657 
Q 1506 409 1894 409 
Q 2359 409 2629 706 
Q 2900 1003 2900 1516 
L 2900 3500 
L 3475 3500 
L 3475 0 
L 2900 0 
L 2900 538 
Q 2691 219 2414 64 
Q 2138 -91 1772 -91 
Q 1169 -91 856 284 
Q 544 659 544 1381 
z
M 1991 3584 
L 1991 3584 
z
" transform="scale(0.015625)"/>
     <path id="DejaVuSans-6d" d="M 3328 2828 
Q 3544 3216 3844 3400 
Q 4144 3584 4550 3584 
Q 5097 3584 5394 3201 
Q 5691 2819 5691 2113 
L 5691 0 
L 5113 0 
L 5113 2094 
Q 5113 2597 4934 2840 
Q 4756 3084 4391 3084 
Q 3944 3084 3684 2787 
Q 3425 2491 3425 1978 
L 3425 0 
L 2847 0 
L 2847 2094 
Q 2847 2600 2669 2842 
Q 2491 3084 2119 3084 
Q 1678 3084 1418 2786 
Q 1159 2488 1159 1978 
L 1159 0 
L 581 0 
L 581 3500 
L 1159 3500 
L 1159 2956 
Q 1356 3278 1631 3431 
Q 1906 3584 2284 3584 
Q 2666 3584 2933 3390 
Q 3200 3197 3328 2828 
z
" transform="scale(0.015625)"/>
     <path id="DejaVuSans-6c" d="M 603 4863 
L 1178 4863 
L 1178 0 
L 603 0 
L 603 4863 
z
" transform="scale(0.015625)"/>
     <path id="DejaVuSans-61" d="M 2194 1759 
Q 1497 1759 1228 1600 
Q 959 1441 959 1056 
Q 959 750 1161 570 
Q 1363 391 1709 391 
Q 2188 391 2477 730 
Q 2766 1069 2766 1631 
L 2766 1759 
L 2194 1759 
z
M 3341 1997 
L 3341 0 
L 2766 0 
L 2766 531 
Q 2569 213 2275 61 
Q 1981 -91 1556 -91 
Q 1019 -91 701 211 
Q 384 513 384 1019 
Q 384 1609 779 1909 
Q 1175 2209 1959 2209 
L 2766 2209 
L 2766 2266 
Q 2766 2663 2505 2880 
Q 2244 3097 1772 3097 
Q 1472 3097 1187 3025 
Q 903 2953 641 2809 
L 641 3341 
Q 956 3463 1253 3523 
Q 1550 3584 1831 3584 
Q 2591 3584 2966 3190 
Q 3341 2797 3341 1997 
z
" transform="scale(0.015625)"/>
     <path id="DejaVuSans-74" d="M 1172 4494 
L 1172 3500 
L 2356 3500 
L 2356 3053 
L 1172 3053 
L 1172 1153 
Q 1172 725 1289 603 
Q 1406 481 1766 481 
L 2356 481 
L 2356 0 
L 1766 0 
Q 1100 0 847 248 
Q 594 497 594 1153 
L 594 3053 
L 172 3053 
L 172 3500 
L 594 3500 
L 594 4494 
L 1172 4494 
z
" transform="scale(0.015625)"/>
     <path id="DejaVuSans-65" d="M 3597 1894 
L 3597 1613 
L 953 1613 
Q 991 1019 1311 708 
Q 1631 397 2203 397 
Q 2534 397 2845 478 
Q 3156 559 3463 722 
L 3463 178 
Q 3153 47 2828 -22 
Q 2503 -91 2169 -91 
Q 1331 -91 842 396 
Q 353 884 353 1716 
Q 353 2575 817 3079 
Q 1281 3584 2069 3584 
Q 2775 3584 3186 3129 
Q 3597 2675 3597 1894 
z
M 3022 2063 
Q 3016 2534 2758 2815 
Q 2500 3097 2075 3097 
Q 1594 3097 1305 2825 
Q 1016 2553 972 2059 
L 3022 2063 
z
" transform="scale(0.015625)"/>
     <path id="DejaVuSans-20" transform="scale(0.015625)"/>
     <path id="DejaVuSans-6f" d="M 1959 3097 
Q 1497 3097 1228 2736 
Q 959 2375 959 1747 
Q 959 1119 1226 758 
Q 1494 397 1959 397 
Q 2419 397 2687 759 
Q 2956 1122 2956 1747 
Q 2956 2369 2687 2733 
Q 2419 3097 1959 3097 
z
M 1959 3584 
Q 2709 3584 3137 3096 
Q 3566 2609 3566 1747 
Q 3566 888 3137 398 
Q 2709 -91 1959 -91 
Q 1206 -91 779 398 
Q 353 888 353 1747 
Q 353 2609 779 3096 
Q 1206 3584 1959 3584 
z
" transform="scale(0.015625)"/>
     <path id="DejaVuSans-54" d="M -19 4666 
L 3928 4666 
L 3928 4134 
L 2272 4134 
L 2272 0 
L 1638 0 
L 1638 4134 
L -19 4134 
L -19 4666 
z
" transform="scale(0.015625)"/>
     <path id="DejaVuSans-68" d="M 3513 2113 
L 3513 0 
L 2938 0 
L 2938 2094 
Q 2938 2591 2744 2837 
Q 2550 3084 2163 3084 
Q 1697 3084 1428 2787 
Q 1159 2491 1159 1978 
L 1159 0 
L 581 0 
L 581 4863 
L 1159 4863 
L 1159 2956 
Q 1366 3272 1645 3428 
Q 1925 3584 2291 3584 
Q 2894 3584 3203 3211 
Q 3513 2838 3513 2113 
z
" transform="scale(0.015625)"/>
     <path id="DejaVuSans-72" d="M 2631 2963 
Q 2534 3019 2420 3045 
Q 2306 3072 2169 3072 
Q 1681 3072 1420 2755 
Q 1159 2438 1159 1844 
L 1159 0 
L 581 0 
L 581 3500 
L 1159 3500 
L 1159 2956 
Q 1341 3275 1631 3429 
Q 1922 3584 2338 3584 
Q 2397 3584 2469 3576 
Q 2541 3569 2628 3553 
L 2631 2963 
z
" transform="scale(0.015625)"/>
     <path id="DejaVuSans-73" d="M 2834 3397 
L 2834 2853 
Q 2591 2978 2328 3040 
Q 2066 3103 1784 3103 
Q 1356 3103 1142 2972 
Q 928 2841 928 2578 
Q 928 2378 1081 2264 
Q 1234 2150 1697 2047 
L 1894 2003 
Q 2506 1872 2764 1633 
Q 3022 1394 3022 966 
Q 3022 478 2636 193 
Q 2250 -91 1575 -91 
Q 1294 -91 989 -36 
Q 684 19 347 128 
L 347 722 
Q 666 556 975 473 
Q 1284 391 1588 391 
Q 1994 391 2212 530 
Q 2431 669 2431 922 
Q 2431 1156 2273 1281 
Q 2116 1406 1581 1522 
L 1381 1569 
Q 847 1681 609 1914 
Q 372 2147 372 2553 
Q 372 3047 722 3315 
Q 1072 3584 1716 3584 
Q 2034 3584 2315 3537 
Q 2597 3491 2834 3397 
z
" transform="scale(0.015625)"/>
     <path id="DejaVuSans-64" d="M 2906 2969 
L 2906 4863 
L 3481 4863 
L 3481 0 
L 2906 0 
L 2906 525 
Q 2725 213 2448 61 
Q 2172 -91 1784 -91 
Q 1150 -91 751 415 
Q 353 922 353 1747 
Q 353 2572 751 3078 
Q 1150 3584 1784 3584 
Q 2172 3584 2448 3432 
Q 2725 3281 2906 2969 
z
M 947 1747 
Q 947 1113 1208 752 
Q 1469 391 1925 391 
Q 2381 391 2643 752 
Q 2906 1113 2906 1747 
Q 2906 2381 2643 2742 
Q 2381 3103 1925 3103 
Q 1469 3103 1208 2742 
Q 947 2381 947 1747 
z
" transform="scale(0.015625)"/>
     <path id="DejaVuSans-77" d="M 269 3500 
L 844 3500 
L 1563 769 
L 2278 3500 
L 2956 3500 
L 3675 769 
L 4391 3500 
L 4966 3500 
L 4050 0 
L 3372 0 
L 2619 2869 
L 1863 0 
L 1184 0 
L 269 3500 
z
" transform="scale(0.015625)"/>
     <path id="DejaVuSans-69" d="M 603 3500 
L 1178 3500 
L 1178 0 
L 603 0 
L 603 3500 
z
M 603 4863 
L 1178 4863 
L 1178 4134 
L 603 4134 
L 603 4863 
z
" transform="scale(0.015625)"/>
     <path id="DejaVuSans-6e" d="M 3513 2113 
L 3513 0 
L 2938 0 
L 2938 2094 
Q 2938 2591 2744 2837 
Q 2550 3084 2163 3084 
Q 1697 3084 1428 2787 
Q 1159 2491 1159 1978 
L 1159 0 
L 581 0 
L 581 3500 
L 1159 3500 
L 1159 2956 
Q 1366 3272 1645 3428 
Q 1925 3584 2291 3584 
Q 2894 3584 3203 3211 
Q 3513 2838 3513 2113 
z
" transform="scale(0.015625)"/>
     <path id="DejaVuSans-70" d="M 1159 525 
L 1159 -1331 
L 581 -1331 
L 581 3500 
L 1159 3500 
L 1159 2969 
Q 1341 3281 1617 3432 
Q 1894 3584 2278 3584 
Q 2916 3584 3314 3078 
Q 3713 2572 3713 1747 
Q 3713 922 3314 415 
Q 2916 -91 2278 -91 
Q 1894 -91 1617 61 
Q 1341 213 1159 525 
z
M 3116 1747 
Q 3116 2381 2855 2742 
Q 2594 3103 2138 3103 
Q 1681 3103 1420 2742 
Q 1159 2381 1159 1747 
Q 1159 1113 1420 752 
Q 1681 391 2138 391 
Q 2594 391 2855 752 
Q 3116 1113 3116 1747 
z
" transform="scale(0.015625)"/>
     <path id="DejaVuSans-66" d="M 2375 4863 
L 2375 4384 
L 1825 4384 
Q 1516 4384 1395 4259 
Q 1275 4134 1275 3809 
L 1275 3500 
L 2222 3500 
L 2222 3053 
L 1275 3053 
L 1275 0 
L 697 0 
L 697 3053 
L 147 3053 
L 147 3500 
L 697 3500 
L 697 3744 
Q 697 4328 969 4595 
Q 1241 4863 1831 4863 
L 2375 4863 
z
" transform="scale(0.015625)"/>
     <path id="DejaVuSans-3d" d="M 678 2906 
L 4684 2906 
L 4684 2381 
L 678 2381 
L 678 2906 
z
M 678 1631 
L 4684 1631 
L 4684 1100 
L 678 1100 
L 678 1631 
z
" transform="scale(0.015625)"/>
     <path id="DejaVuSans-33" d="M 2597 2516 
Q 3050 2419 3304 2112 
Q 3559 1806 3559 1356 
Q 3559 666 3084 287 
Q 2609 -91 1734 -91 
Q 1441 -91 1130 -33 
Q 819 25 488 141 
L 488 750 
Q 750 597 1062 519 
Q 1375 441 1716 441 
Q 2309 441 2620 675 
Q 2931 909 2931 1356 
Q 2931 1769 2642 2001 
Q 2353 2234 1838 2234 
L 1294 2234 
L 1294 2753 
L 1863 2753 
Q 2328 2753 2575 2939 
Q 2822 3125 2822 3475 
Q 2822 3834 2567 4026 
Q 2313 4219 1838 4219 
Q 1578 4219 1281 4162 
Q 984 4106 628 3988 
L 628 4550 
Q 988 4650 1302 4700 
Q 1616 4750 1894 4750 
Q 2613 4750 3031 4423 
Q 3450 4097 3450 3541 
Q 3450 3153 3228 2886 
Q 3006 2619 2597 2516 
z
" transform="scale(0.015625)"/>
    </defs>
    <use xlink:href="#DejaVuSans-41"/>
    <use xlink:href="#DejaVuSans-63" x="66.658203"/>
    <use xlink:href="#DejaVuSans-63" x="121.638672"/>
    <use xlink:href="#DejaVuSans-75" x="176.619141"/>
    <use xlink:href="#DejaVuSans-6d" x="239.998047"/>
    <use xlink:href="#DejaVuSans-75" x="337.410156"/>
    <use xlink:href="#DejaVuSans-6c" x="400.789062"/>
    <use xlink:href="#DejaVuSans-61" x="428.572266"/>
    <use xlink:href="#DejaVuSans-74" x="489.851562"/>
    <use xlink:href="#DejaVuSans-65" x="529.060547"/>
    <use xlink:href="#DejaVuSans-20" x="590.583984"/>
    <use xlink:href="#DejaVuSans-74" x="622.371094"/>
    <use xlink:href="#DejaVuSans-6f" x="661.580078"/>
    <use xlink:href="#DejaVuSans-20" x="722.761719"/>
    <use xlink:href="#DejaVuSans-54" x="754.548828"/>
    <use xlink:href="#DejaVuSans-68" x="815.632812"/>
    <use xlink:href="#DejaVuSans-72" x="879.011719"/>
    <use xlink:href="#DejaVuSans-65" x="917.875"/>
    <use xlink:href="#DejaVuSans-73" x="979.398438"/>
    <use xlink:href="#DejaVuSans-68" x="1031.498047"/>
    <use xlink:href="#DejaVuSans-6f" x="1094.876953"/>
    <use xlink:href="#DejaVuSans-6c" x="1156.058594"/>
    <use xlink:href="#DejaVuSans-64" x="1183.841797"/>
    <use xlink:href="#DejaVuSans-20" x="1247.318359"/>
    <use xlink:href="#DejaVuSans-6d" x="1279.105469"/>
    <use xlink:href="#DejaVuSans-6f" x="1376.517578"/>
    <use xlink:href="#DejaVuSans-64" x="1437.699219"/>
    <use xlink:href="#DejaVuSans-65" x="1501.175781"/>
    <use xlink:href="#DejaVuSans-6c" x="1562.699219"/>
    <use xlink:href="#DejaVuSans-20" x="1590.482422"/>
    <use xlink:href="#DejaVuSans-77" x="1622.269531"/>
    <use xlink:href="#DejaVuSans-69" x="1704.056641"/>
    <use xlink:href="#DejaVuSans-74" x="1731.839844"/>
    <use xlink:href="#DejaVuSans-68" x="1771.048828"/>
    <use xlink:href="#DejaVuSans-20" x="1834.427734"/>
    <use xlink:href="#DejaVuSans-69" x="1866.214844"/>
    <use xlink:href="#DejaVuSans-6e" x="1893.998047"/>
    <use xlink:href="#DejaVuSans-70" x="1957.376953"/>
    <use xlink:href="#DejaVuSans-75" x="2020.853516"/>
    <use xlink:href="#DejaVuSans-74" x="2084.232422"/>
    <use xlink:href="#DejaVuSans-20" x="2123.441406"/>
    <use xlink:href="#DejaVuSans-6f" x="2155.228516"/>
    <use xlink:href="#DejaVuSans-66" x="2216.410156"/>
    <use xlink:href="#DejaVuSans-20" x="2251.615234"/>
    <use xlink:href="#DejaVuSans-30" x="2283.402344"/>
    <use xlink:href="#DejaVuSans-2e" x="2347.025391"/>
    <use xlink:href="#DejaVuSans-31" x="2378.8125"/>
    <use xlink:href="#DejaVuSans-20" x="2442.435547"/>
    <use xlink:href="#DejaVuSans-77" x="2474.222656"/>
    <use xlink:href="#DejaVuSans-69" x="2556.009766"/>
    <use xlink:href="#DejaVuSans-74" x="2583.792969"/>
    <use xlink:href="#DejaVuSans-68" x="2623.001953"/>
    <use xlink:href="#DejaVuSans-20" x="2686.380859"/>
    <use xlink:href="#DejaVuSans-72" x="2718.167969"/>
    <use xlink:href="#DejaVuSans-6d" x="2757.53125"/>
    <use xlink:href="#DejaVuSans-73" x="2854.943359"/>
    <use xlink:href="#DejaVuSans-3d" x="2907.042969"/>
    <use xlink:href="#DejaVuSans-33" x="2990.832031"/>
    <use xlink:href="#DejaVuSans-20" x="3054.455078"/>
   </g>
  </g>
 </g>
 <defs>
  <clipPath id="p265adbdca5">
   <rect x="42.828125" y="36" width="334.8" height="217.44"/>
  </clipPath>
 </defs>
</svg>
