<?xml version="1.0" encoding="utf-8" standalone="no"?>
<!DOCTYPE svg PUBLIC "-//W3C//DTD SVG 1.1//EN"
  "http://www.w3.org/Graphics/SVG/1.1/DTD/svg11.dtd">
<svg xmlns:xlink="http://www.w3.org/1999/xlink" width="395.015937pt" height="277.318125pt" viewBox="0 0 395.015937 277.318125" xmlns="http://www.w3.org/2000/svg" version="1.1">
 <metadata>
  <rdf:RDF xmlns:dc="http://purl.org/dc/elements/1.1/" xmlns:cc="http://creativecommons.org/ns#" xmlns:rdf="http://www.w3.org/1999/02/22-rdf-syntax-ns#">
   <cc:Work>
    <dc:type rdf:resource="http://purl.org/dc/dcmitype/StillImage"/>
    <dc:date>2022-11-17T20:29:55.193894</dc:date>
    <dc:format>image/svg+xml</dc:format>
    <dc:creator>
     <cc:Agent>
      <dc:title>Matplotlib v3.6.0, https://matplotlib.org/</dc:title>
     </cc:Agent>
    </dc:creator>
   </cc:Work>
  </rdf:RDF>
 </metadata>
 <defs>
  <style type="text/css">*{stroke-linejoin: round; stroke-linecap: butt}</style>
 </defs>
 <g id="figure_1">
  <g id="patch_1">
   <path d="M -0 277.318125 
L 395.015937 277.318125 
L 395.015937 0 
L -0 0 
L -0 277.318125 
z
" style="fill: none"/>
  </g>
  <g id="axes_1">
   <g id="patch_2">
    <path d="M 38.482813 253.44 
L 373.282813 253.44 
L 373.282813 36 
L 38.482813 36 
z
" style="fill: #ffffff"/>
   </g>
   <g id="matplotlib.axis_1">
    <g id="xtick_1">
     <g id="line2d_1">
      <defs>
       <path id="m61e14307b3" d="M 0 0 
L 0 3.5 
" style="stroke: #000000; stroke-width: 0.8"/>
      </defs>
      <g>
       <use xlink:href="#m61e14307b3" x="38.482813" y="253.44" style="stroke: #000000; stroke-width: 0.8"/>
      </g>
     </g>
     <g id="text_1">
      <!-- 0.00 -->
      <g transform="translate(27.35 268.038437) scale(0.1 -0.1)">
       <defs>
        <path id="DejaVuSans-30" d="M 2034 4250 
Q 1547 4250 1301 3770 
Q 1056 3291 1056 2328 
Q 1056 1369 1301 889 
Q 1547 409 2034 409 
Q 2525 409 2770 889 
Q 3016 1369 3016 2328 
Q 3016 3291 2770 3770 
Q 2525 4250 2034 4250 
z
M 2034 4750 
Q 2819 4750 3233 4129 
Q 3647 3509 3647 2328 
Q 3647 1150 3233 529 
Q 2819 -91 2034 -91 
Q 1250 -91 836 529 
Q 422 1150 422 2328 
Q 422 3509 836 4129 
Q 1250 4750 2034 4750 
z
" transform="scale(0.015625)"/>
        <path id="DejaVuSans-2e" d="M 684 794 
L 1344 794 
L 1344 0 
L 684 0 
L 684 794 
z
" transform="scale(0.015625)"/>
       </defs>
       <use xlink:href="#DejaVuSans-30"/>
       <use xlink:href="#DejaVuSans-2e" x="63.623047"/>
       <use xlink:href="#DejaVuSans-30" x="95.410156"/>
       <use xlink:href="#DejaVuSans-30" x="159.033203"/>
      </g>
     </g>
    </g>
    <g id="xtick_2">
     <g id="line2d_2">
      <g>
       <use xlink:href="#m61e14307b3" x="80.332813" y="253.44" style="stroke: #000000; stroke-width: 0.8"/>
      </g>
     </g>
     <g id="text_2">
      <!-- 0.25 -->
      <g transform="translate(69.2 268.038437) scale(0.1 -0.1)">
       <defs>
        <path id="DejaVuSans-32" d="M 1228 531 
L 3431 531 
L 3431 0 
L 469 0 
L 469 531 
Q 828 903 1448 1529 
Q 2069 2156 2228 2338 
Q 2531 2678 2651 2914 
Q 2772 3150 2772 3378 
Q 2772 3750 2511 3984 
Q 2250 4219 1831 4219 
Q 1534 4219 1204 4116 
Q 875 4013 500 3803 
L 500 4441 
Q 881 4594 1212 4672 
Q 1544 4750 1819 4750 
Q 2544 4750 2975 4387 
Q 3406 4025 3406 3419 
Q 3406 3131 3298 2873 
Q 3191 2616 2906 2266 
Q 2828 2175 2409 1742 
Q 1991 1309 1228 531 
z
" transform="scale(0.015625)"/>
        <path id="DejaVuSans-35" d="M 691 4666 
L 3169 4666 
L 3169 4134 
L 1269 4134 
L 1269 2991 
Q 1406 3038 1543 3061 
Q 1681 3084 1819 3084 
Q 2600 3084 3056 2656 
Q 3513 2228 3513 1497 
Q 3513 744 3044 326 
Q 2575 -91 1722 -91 
Q 1428 -91 1123 -41 
Q 819 9 494 109 
L 494 744 
Q 775 591 1075 516 
Q 1375 441 1709 441 
Q 2250 441 2565 725 
Q 2881 1009 2881 1497 
Q 2881 1984 2565 2268 
Q 2250 2553 1709 2553 
Q 1456 2553 1204 2497 
Q 953 2441 691 2322 
L 691 4666 
z
" transform="scale(0.015625)"/>
       </defs>
       <use xlink:href="#DejaVuSans-30"/>
       <use xlink:href="#DejaVuSans-2e" x="63.623047"/>
       <use xlink:href="#DejaVuSans-32" x="95.410156"/>
       <use xlink:href="#DejaVuSans-35" x="159.033203"/>
      </g>
     </g>
    </g>
    <g id="xtick_3">
     <g id="line2d_3">
      <g>
       <use xlink:href="#m61e14307b3" x="122.182813" y="253.44" style="stroke: #000000; stroke-width: 0.8"/>
      </g>
     </g>
     <g id="text_3">
      <!-- 0.50 -->
      <g transform="translate(111.05 268.038437) scale(0.1 -0.1)">
       <use xlink:href="#DejaVuSans-30"/>
       <use xlink:href="#DejaVuSans-2e" x="63.623047"/>
       <use xlink:href="#DejaVuSans-35" x="95.410156"/>
       <use xlink:href="#DejaVuSans-30" x="159.033203"/>
      </g>
     </g>
    </g>
    <g id="xtick_4">
     <g id="line2d_4">
      <g>
       <use xlink:href="#m61e14307b3" x="164.032813" y="253.44" style="stroke: #000000; stroke-width: 0.8"/>
      </g>
     </g>
     <g id="text_4">
      <!-- 0.75 -->
      <g transform="translate(152.9 268.038437) scale(0.1 -0.1)">
       <defs>
        <path id="DejaVuSans-37" d="M 525 4666 
L 3525 4666 
L 3525 4397 
L 1831 0 
L 1172 0 
L 2766 4134 
L 525 4134 
L 525 4666 
z
" transform="scale(0.015625)"/>
       </defs>
       <use xlink:href="#DejaVuSans-30"/>
       <use xlink:href="#DejaVuSans-2e" x="63.623047"/>
       <use xlink:href="#DejaVuSans-37" x="95.410156"/>
       <use xlink:href="#DejaVuSans-35" x="159.033203"/>
      </g>
     </g>
    </g>
    <g id="xtick_5">
     <g id="line2d_5">
      <g>
       <use xlink:href="#m61e14307b3" x="205.882812" y="253.44" style="stroke: #000000; stroke-width: 0.8"/>
      </g>
     </g>
     <g id="text_5">
      <!-- 1.00 -->
      <g transform="translate(194.75 268.038437) scale(0.1 -0.1)">
       <defs>
        <path id="DejaVuSans-31" d="M 794 531 
L 1825 531 
L 1825 4091 
L 703 3866 
L 703 4441 
L 1819 4666 
L 2450 4666 
L 2450 531 
L 3481 531 
L 3481 0 
L 794 0 
L 794 531 
z
" transform="scale(0.015625)"/>
       </defs>
       <use xlink:href="#DejaVuSans-31"/>
       <use xlink:href="#DejaVuSans-2e" x="63.623047"/>
       <use xlink:href="#DejaVuSans-30" x="95.410156"/>
       <use xlink:href="#DejaVuSans-30" x="159.033203"/>
      </g>
     </g>
    </g>
    <g id="xtick_6">
     <g id="line2d_6">
      <g>
       <use xlink:href="#m61e14307b3" x="247.732812" y="253.44" style="stroke: #000000; stroke-width: 0.8"/>
      </g>
     </g>
     <g id="text_6">
      <!-- 1.25 -->
      <g transform="translate(236.6 268.038437) scale(0.1 -0.1)">
       <use xlink:href="#DejaVuSans-31"/>
       <use xlink:href="#DejaVuSans-2e" x="63.623047"/>
       <use xlink:href="#DejaVuSans-32" x="95.410156"/>
       <use xlink:href="#DejaVuSans-35" x="159.033203"/>
      </g>
     </g>
    </g>
    <g id="xtick_7">
     <g id="line2d_7">
      <g>
       <use xlink:href="#m61e14307b3" x="289.582813" y="253.44" style="stroke: #000000; stroke-width: 0.8"/>
      </g>
     </g>
     <g id="text_7">
      <!-- 1.50 -->
      <g transform="translate(278.45 268.038437) scale(0.1 -0.1)">
       <use xlink:href="#DejaVuSans-31"/>
       <use xlink:href="#DejaVuSans-2e" x="63.623047"/>
       <use xlink:href="#DejaVuSans-35" x="95.410156"/>
       <use xlink:href="#DejaVuSans-30" x="159.033203"/>
      </g>
     </g>
    </g>
    <g id="xtick_8">
     <g id="line2d_8">
      <g>
       <use xlink:href="#m61e14307b3" x="331.432813" y="253.44" style="stroke: #000000; stroke-width: 0.8"/>
      </g>
     </g>
     <g id="text_8">
      <!-- 1.75 -->
      <g transform="translate(320.3 268.038437) scale(0.1 -0.1)">
       <use xlink:href="#DejaVuSans-31"/>
       <use xlink:href="#DejaVuSans-2e" x="63.623047"/>
       <use xlink:href="#DejaVuSans-37" x="95.410156"/>
       <use xlink:href="#DejaVuSans-35" x="159.033203"/>
      </g>
     </g>
    </g>
    <g id="xtick_9">
     <g id="line2d_9">
      <g>
       <use xlink:href="#m61e14307b3" x="373.282813" y="253.44" style="stroke: #000000; stroke-width: 0.8"/>
      </g>
     </g>
     <g id="text_9">
      <!-- 2.00 -->
      <g transform="translate(362.15 268.038437) scale(0.1 -0.1)">
       <use xlink:href="#DejaVuSans-32"/>
       <use xlink:href="#DejaVuSans-2e" x="63.623047"/>
       <use xlink:href="#DejaVuSans-30" x="95.410156"/>
       <use xlink:href="#DejaVuSans-30" x="159.033203"/>
      </g>
     </g>
    </g>
   </g>
   <g id="matplotlib.axis_2">
    <g id="ytick_1">
     <g id="line2d_10">
      <defs>
       <path id="md87acbcb81" d="M 0 0 
L -3.5 0 
" style="stroke: #000000; stroke-width: 0.8"/>
      </defs>
      <g>
       <use xlink:href="#md87acbcb81" x="38.482813" y="225.580015" style="stroke: #000000; stroke-width: 0.8"/>
      </g>
     </g>
     <g id="text_10">
      <!-- −1.0 -->
      <g transform="translate(7.2 229.379234) scale(0.1 -0.1)">
       <defs>
        <path id="DejaVuSans-2212" d="M 678 2272 
L 4684 2272 
L 4684 1741 
L 678 1741 
L 678 2272 
z
" transform="scale(0.015625)"/>
       </defs>
       <use xlink:href="#DejaVuSans-2212"/>
       <use xlink:href="#DejaVuSans-31" x="83.789062"/>
       <use xlink:href="#DejaVuSans-2e" x="147.412109"/>
       <use xlink:href="#DejaVuSans-30" x="179.199219"/>
      </g>
     </g>
    </g>
    <g id="ytick_2">
     <g id="line2d_11">
      <g>
       <use xlink:href="#md87acbcb81" x="38.482813" y="189.819884" style="stroke: #000000; stroke-width: 0.8"/>
      </g>
     </g>
     <g id="text_11">
      <!-- −0.8 -->
      <g transform="translate(7.2 193.619103) scale(0.1 -0.1)">
       <defs>
        <path id="DejaVuSans-38" d="M 2034 2216 
Q 1584 2216 1326 1975 
Q 1069 1734 1069 1313 
Q 1069 891 1326 650 
Q 1584 409 2034 409 
Q 2484 409 2743 651 
Q 3003 894 3003 1313 
Q 3003 1734 2745 1975 
Q 2488 2216 2034 2216 
z
M 1403 2484 
Q 997 2584 770 2862 
Q 544 3141 544 3541 
Q 544 4100 942 4425 
Q 1341 4750 2034 4750 
Q 2731 4750 3128 4425 
Q 3525 4100 3525 3541 
Q 3525 3141 3298 2862 
Q 3072 2584 2669 2484 
Q 3125 2378 3379 2068 
Q 3634 1759 3634 1313 
Q 3634 634 3220 271 
Q 2806 -91 2034 -91 
Q 1263 -91 848 271 
Q 434 634 434 1313 
Q 434 1759 690 2068 
Q 947 2378 1403 2484 
z
M 1172 3481 
Q 1172 3119 1398 2916 
Q 1625 2713 2034 2713 
Q 2441 2713 2670 2916 
Q 2900 3119 2900 3481 
Q 2900 3844 2670 4047 
Q 2441 4250 2034 4250 
Q 1625 4250 1398 4047 
Q 1172 3844 1172 3481 
z
" transform="scale(0.015625)"/>
       </defs>
       <use xlink:href="#DejaVuSans-2212"/>
       <use xlink:href="#DejaVuSans-30" x="83.789062"/>
       <use xlink:href="#DejaVuSans-2e" x="147.412109"/>
       <use xlink:href="#DejaVuSans-38" x="179.199219"/>
      </g>
     </g>
    </g>
    <g id="ytick_3">
     <g id="line2d_12">
      <g>
       <use xlink:href="#md87acbcb81" x="38.482813" y="154.059754" style="stroke: #000000; stroke-width: 0.8"/>
      </g>
     </g>
     <g id="text_12">
      <!-- −0.6 -->
      <g transform="translate(7.2 157.858973) scale(0.1 -0.1)">
       <defs>
        <path id="DejaVuSans-36" d="M 2113 2584 
Q 1688 2584 1439 2293 
Q 1191 2003 1191 1497 
Q 1191 994 1439 701 
Q 1688 409 2113 409 
Q 2538 409 2786 701 
Q 3034 994 3034 1497 
Q 3034 2003 2786 2293 
Q 2538 2584 2113 2584 
z
M 3366 4563 
L 3366 3988 
Q 3128 4100 2886 4159 
Q 2644 4219 2406 4219 
Q 1781 4219 1451 3797 
Q 1122 3375 1075 2522 
Q 1259 2794 1537 2939 
Q 1816 3084 2150 3084 
Q 2853 3084 3261 2657 
Q 3669 2231 3669 1497 
Q 3669 778 3244 343 
Q 2819 -91 2113 -91 
Q 1303 -91 875 529 
Q 447 1150 447 2328 
Q 447 3434 972 4092 
Q 1497 4750 2381 4750 
Q 2619 4750 2861 4703 
Q 3103 4656 3366 4563 
z
" transform="scale(0.015625)"/>
       </defs>
       <use xlink:href="#DejaVuSans-2212"/>
       <use xlink:href="#DejaVuSans-30" x="83.789062"/>
       <use xlink:href="#DejaVuSans-2e" x="147.412109"/>
       <use xlink:href="#DejaVuSans-36" x="179.199219"/>
      </g>
     </g>
    </g>
    <g id="ytick_4">
     <g id="line2d_13">
      <g>
       <use xlink:href="#md87acbcb81" x="38.482813" y="118.299624" style="stroke: #000000; stroke-width: 0.8"/>
      </g>
     </g>
     <g id="text_13">
      <!-- −0.4 -->
      <g transform="translate(7.2 122.098842) scale(0.1 -0.1)">
       <defs>
        <path id="DejaVuSans-34" d="M 2419 4116 
L 825 1625 
L 2419 1625 
L 2419 4116 
z
M 2253 4666 
L 3047 4666 
L 3047 1625 
L 3713 1625 
L 3713 1100 
L 3047 1100 
L 3047 0 
L 2419 0 
L 2419 1100 
L 313 1100 
L 313 1709 
L 2253 4666 
z
" transform="scale(0.015625)"/>
       </defs>
       <use xlink:href="#DejaVuSans-2212"/>
       <use xlink:href="#DejaVuSans-30" x="83.789062"/>
       <use xlink:href="#DejaVuSans-2e" x="147.412109"/>
       <use xlink:href="#DejaVuSans-34" x="179.199219"/>
      </g>
     </g>
    </g>
    <g id="ytick_5">
     <g id="line2d_14">
      <g>
       <use xlink:href="#md87acbcb81" x="38.482813" y="82.539493" style="stroke: #000000; stroke-width: 0.8"/>
      </g>
     </g>
     <g id="text_14">
      <!-- −0.2 -->
      <g transform="translate(7.2 86.338712) scale(0.1 -0.1)">
       <use xlink:href="#DejaVuSans-2212"/>
       <use xlink:href="#DejaVuSans-30" x="83.789062"/>
       <use xlink:href="#DejaVuSans-2e" x="147.412109"/>
       <use xlink:href="#DejaVuSans-32" x="179.199219"/>
      </g>
     </g>
    </g>
    <g id="ytick_6">
     <g id="line2d_15">
      <g>
       <use xlink:href="#md87acbcb81" x="38.482813" y="46.779363" style="stroke: #000000; stroke-width: 0.8"/>
      </g>
     </g>
     <g id="text_15">
      <!-- 0.0 -->
      <g transform="translate(15.579688 50.578581) scale(0.1 -0.1)">
       <use xlink:href="#DejaVuSans-30"/>
       <use xlink:href="#DejaVuSans-2e" x="63.623047"/>
       <use xlink:href="#DejaVuSans-30" x="95.410156"/>
      </g>
     </g>
    </g>
   </g>
   <g id="line2d_16">
    <path d="M 38.650213 46.779363 
L 38.817613 45.883636 
L 38.985013 55.220272 
L 39.152413 56.260709 
L 39.487212 49.686545 
L 39.654612 49.427065 
L 39.989413 63.65671 
L 40.156813 60.943165 
L 40.324213 55.468628 
L 40.659013 71.135933 
L 40.826413 70.205551 
L 40.993813 67.672142 
L 41.161213 72.562237 
L 41.328612 71.656007 
L 41.496012 73.337911 
L 41.663412 71.116699 
L 41.998213 75.075241 
L 42.165613 85.336408 
L 42.333013 85.520484 
L 42.500413 90.800703 
L 42.667813 89.805933 
L 42.835213 92.050724 
L 43.002612 79.222669 
L 43.504812 91.901433 
L 43.672213 79.763109 
L 44.007013 91.102001 
L 44.174413 90.775408 
L 44.341813 91.45274 
L 44.509213 94.209922 
L 44.844013 81.861961 
L 45.011412 93.113507 
L 45.178812 92.395184 
L 45.346213 93.721255 
L 45.513613 96.331588 
L 45.681013 87.762447 
L 45.848413 86.073545 
L 46.015813 92.31788 
L 46.183213 87.984317 
L 46.350613 87.517817 
L 46.518012 89.718503 
L 46.685412 94.109536 
L 46.852812 85.909436 
L 47.020212 92.68946 
L 47.187613 92.917549 
L 47.355013 91.525217 
L 47.522413 96.450161 
L 47.689813 105.499034 
L 47.857213 103.431267 
L 48.024613 93.788588 
L 48.192013 96.102783 
L 48.526813 86.541104 
L 48.861612 91.017125 
L 49.196413 86.544015 
L 49.531213 94.016137 
L 49.698613 92.475064 
L 49.866013 93.25991 
L 50.033413 95.826877 
L 50.200813 95.268956 
L 50.368213 97.905734 
L 50.535612 90.051814 
L 50.703012 97.658673 
L 50.870413 90.451421 
L 51.037813 98.483264 
L 51.205213 99.823079 
L 51.372613 93.060557 
L 51.707413 103.182462 
L 51.874813 101.453757 
L 52.042213 101.289286 
L 52.209613 110.241082 
L 52.377013 110.959958 
L 52.544413 104.526508 
L 52.879213 112.849992 
L 53.046613 109.415416 
L 53.214013 102.546852 
L 53.381413 114.788184 
L 53.548813 111.319836 
L 53.716212 111.738353 
L 53.883612 105.001084 
L 54.051012 109.312587 
L 54.218412 109.304865 
L 54.385813 114.241607 
L 54.553213 106.787062 
L 54.720613 106.629692 
L 54.888013 110.109123 
L 55.055413 105.763848 
L 55.390213 107.504299 
L 55.557613 105.873302 
L 55.725013 101.68142 
L 55.892413 102.89067 
L 56.059812 105.594078 
L 56.227213 102.066375 
L 56.394613 103.600573 
L 56.562013 97.452452 
L 56.729413 99.718154 
L 56.896813 99.386266 
L 57.231613 103.612642 
L 57.566412 91.876488 
L 57.733812 92.323559 
L 57.901212 103.129618 
L 58.236013 105.270031 
L 58.403413 108.951847 
L 58.570813 106.357977 
L 58.738213 107.820116 
L 58.905613 107.310503 
L 59.073013 110.530413 
L 59.240413 110.609677 
L 59.407813 110.232086 
L 59.575213 117.457638 
L 59.742613 113.167417 
L 59.910013 112.278334 
L 60.077413 102.927536 
L 60.244813 109.51715 
L 60.412213 110.584481 
L 60.579613 107.074694 
L 60.747013 110.633915 
L 60.914413 119.783638 
L 61.081813 113.150409 
L 61.249212 113.670131 
L 61.416612 111.207149 
L 61.751413 113.258642 
L 61.918813 113.417831 
L 62.086213 113.236553 
L 62.253613 111.933681 
L 62.421013 112.583122 
L 62.588413 107.423766 
L 62.755813 111.345555 
L 63.090613 103.385789 
L 63.258012 110.251297 
L 63.425413 105.907842 
L 63.592813 107.425729 
L 63.760213 107.798378 
L 63.927613 111.199745 
L 64.095012 108.477834 
L 64.262413 112.703489 
L 64.597212 114.459968 
L 64.764612 108.019306 
L 65.099412 121.681803 
L 65.434213 114.630993 
L 65.601613 110.22617 
L 65.769013 118.303878 
L 66.103813 110.683393 
L 66.271213 111.001952 
L 66.438613 110.105667 
L 66.606013 115.177578 
L 66.773413 114.174529 
L 66.940813 114.505137 
L 67.108213 116.158489 
L 67.443013 113.770309 
L 67.610413 115.9447 
L 67.777813 121.681356 
L 68.112612 123.87901 
L 68.280012 120.473145 
L 68.447412 124.07583 
L 68.614812 116.720098 
L 68.782212 117.57332 
L 69.284413 106.481229 
L 69.451813 114.781018 
L 69.619213 114.477805 
L 69.786613 110.957065 
L 70.121413 113.40088 
L 70.456213 109.90337 
L 70.623613 110.396467 
L 70.791012 117.232561 
L 71.125812 112.613213 
L 71.460612 104.701364 
L 71.795412 121.319214 
L 71.962813 112.002935 
L 72.297613 125.982222 
L 72.465013 121.125149 
L 72.799813 133.247893 
L 73.134613 121.292309 
L 73.469413 127.566031 
L 73.636812 121.581882 
L 73.804213 120.65889 
L 73.971612 125.303596 
L 74.139013 125.029572 
L 74.306412 117.411112 
L 74.473813 128.584489 
L 74.641212 126.863551 
L 74.808613 123.567551 
L 74.976012 130.004761 
L 75.143413 130.794014 
L 75.310812 125.524585 
L 75.478213 131.605519 
L 75.645612 129.103033 
L 75.813013 133.35884 
L 76.147813 125.611278 
L 76.315213 130.941242 
L 76.650013 128.765321 
L 76.817413 123.233118 
L 76.984813 132.419148 
L 77.152213 128.094635 
L 77.319613 128.057034 
L 77.487013 128.148344 
L 78.324013 144.715994 
L 78.491412 139.638786 
L 78.658813 146.122187 
L 79.161012 136.171685 
L 79.328412 138.344831 
L 79.495812 136.47431 
L 79.830613 138.863874 
L 79.998013 130.733416 
L 80.165413 142.84825 
L 80.332813 138.077845 
L 80.500213 140.694705 
L 80.667613 140.706069 
L 80.835013 135.445067 
L 81.002413 134.241098 
L 81.169813 139.30901 
L 81.504613 132.726651 
L 81.672012 137.131852 
L 81.839413 135.324248 
L 82.006812 125.270299 
L 82.174213 136.594542 
L 82.341612 134.481476 
L 82.509013 140.979256 
L 82.676412 136.116546 
L 82.843813 134.504064 
L 83.011212 136.439008 
L 83.178613 134.541047 
L 83.680813 133.350989 
L 83.848213 130.572474 
L 84.015613 135.845981 
L 84.183013 136.580579 
L 84.350413 133.864746 
L 84.517813 142.886992 
L 84.685213 140.597627 
L 84.852613 135.184002 
L 85.020013 143.402708 
L 85.354813 136.514407 
L 85.522213 141.937946 
L 85.689613 142.025901 
L 85.857013 146.038964 
L 86.024413 141.440758 
L 86.191813 145.769144 
L 86.359213 147.104756 
L 86.526612 140.599924 
L 86.694013 140.705836 
L 86.861413 140.018211 
L 87.028813 143.127444 
L 87.196213 133.958712 
L 87.363613 138.749627 
L 87.698413 135.825499 
L 87.865813 137.626536 
L 88.033212 147.605762 
L 88.368012 139.618129 
L 88.535413 147.423646 
L 88.702812 146.589227 
L 88.870213 139.040893 
L 89.205013 150.120774 
L 89.539813 138.064727 
L 89.707212 144.130559 
L 89.874613 144.500031 
L 90.042012 141.904436 
L 90.209412 142.716095 
L 90.376812 146.244299 
L 90.544213 156.069334 
L 90.879013 143.293067 
L 91.046413 148.290661 
L 91.213813 149.771507 
L 91.381213 149.662718 
L 91.548613 150.351281 
L 91.716013 158.360572 
L 91.883413 151.419522 
L 92.050813 158.405039 
L 92.218213 157.748867 
L 92.385613 156.255651 
L 92.553013 159.242829 
L 92.720413 158.285248 
L 92.887812 154.277031 
L 93.055213 154.223626 
L 93.222612 160.99051 
L 93.557412 154.78232 
L 93.724813 155.155892 
L 93.892212 157.432081 
L 94.059613 158.059559 
L 94.729213 167.357922 
L 94.896613 167.845232 
L 95.064013 167.744504 
L 95.231413 162.673005 
L 95.398813 164.812741 
L 95.566213 156.443382 
L 95.733613 157.498596 
L 95.901013 155.820094 
L 96.068413 156.429662 
L 96.235813 159.740643 
L 96.403213 157.264011 
L 96.570613 159.20042 
L 96.738013 162.850962 
L 96.905413 163.365052 
L 97.072813 164.794459 
L 97.240213 161.126841 
L 97.407612 165.12538 
L 97.575012 166.386794 
L 97.742413 168.551738 
L 97.909813 159.236789 
L 98.077213 167.435659 
L 98.244613 163.223533 
L 98.579413 151.117081 
L 98.746813 161.214091 
L 98.914212 150.171276 
L 99.249012 153.581915 
L 99.416413 162.38542 
L 99.751213 153.422121 
L 99.918612 159.597418 
L 100.086013 157.678433 
L 100.253412 157.137673 
L 100.420813 158.865718 
L 100.588212 162.579776 
L 100.755613 160.390962 
L 100.923012 156.275882 
L 101.090413 157.710786 
L 101.257812 164.904425 
L 101.425213 162.425445 
L 101.592613 154.937355 
L 101.760013 158.700705 
L 101.927413 157.848213 
L 102.094813 164.56677 
L 102.262213 160.96823 
L 102.429613 163.091645 
L 102.597013 166.839595 
L 102.764412 176.284192 
L 102.931813 168.876484 
L 103.099212 169.380353 
L 103.434012 174.415197 
L 103.601413 169.371093 
L 103.768812 172.577213 
L 103.936213 167.736578 
L 104.103612 169.114274 
L 104.271013 166.524119 
L 104.438412 169.371881 
L 104.605813 163.795314 
L 104.773212 172.158643 
L 104.940613 172.137639 
L 105.108013 171.108734 
L 105.275413 173.713588 
L 105.442813 173.973424 
L 105.610213 169.03132 
L 105.777613 175.582401 
L 105.945013 165.718336 
L 106.112413 165.641382 
L 106.279813 171.477209 
L 106.447213 167.722761 
L 106.614613 171.860895 
L 106.782013 170.958865 
L 106.949413 168.766268 
L 107.116813 169.5039 
L 107.284212 165.203384 
L 107.451613 165.428006 
L 107.619012 168.596126 
L 107.786413 169.553913 
L 107.953812 166.584778 
L 108.121213 167.268995 
L 108.288612 176.984673 
L 108.456013 171.903429 
L 108.623413 175.88667 
L 108.790812 176.524121 
L 108.958213 176.265184 
L 109.125612 172.57715 
L 109.293013 175.962517 
L 109.460412 168.472548 
L 109.795212 177.027611 
L 109.962613 169.436284 
L 110.130012 170.338444 
L 110.464812 176.984693 
L 110.632213 169.80994 
L 110.799612 171.951516 
L 110.967013 178.052409 
L 111.134412 171.937889 
L 111.301813 178.652528 
L 111.469212 172.108421 
L 111.636613 170.615702 
L 111.804012 177.214914 
L 111.971413 169.293168 
L 112.306213 185.810244 
L 112.473613 169.409376 
L 112.641013 169.352706 
L 112.808413 179.383521 
L 112.975813 179.274418 
L 113.143213 178.41394 
L 113.310613 181.027905 
L 113.478013 172.640778 
L 113.812813 182.285472 
L 114.147613 179.163378 
L 114.315012 180.557956 
L 114.482413 175.718461 
L 114.649812 174.389231 
L 114.817213 184.75398 
L 115.152013 174.044822 
L 115.486813 181.721053 
L 115.654212 180.202379 
L 115.821613 176.996018 
L 116.156413 187.760227 
L 116.323813 183.399945 
L 116.491213 188.241731 
L 116.658613 187.455264 
L 116.826013 178.348798 
L 116.993413 179.943727 
L 117.160813 184.830263 
L 117.328213 182.365605 
L 117.495613 188.196873 
L 117.663013 184.842326 
L 117.830413 184.952263 
L 117.997813 189.988575 
L 118.332613 175.654752 
L 118.500012 183.582666 
L 118.834812 169.82588 
L 119.002213 177.660969 
L 119.169612 176.121104 
L 119.337013 176.442921 
L 119.504413 183.183372 
L 119.671813 176.787752 
L 119.839213 175.711863 
L 120.006612 178.933324 
L 120.174013 184.871198 
L 120.341412 175.199015 
L 120.508813 177.709638 
L 120.676212 189.202624 
L 120.843613 173.284537 
L 121.178413 189.953124 
L 121.345812 185.143908 
L 121.513213 184.227089 
L 121.680612 189.654157 
L 121.848013 182.410539 
L 122.015412 181.206738 
L 122.182813 187.052796 
L 122.350212 181.179753 
L 122.517613 181.523201 
L 122.685012 189.476794 
L 122.852413 184.903795 
L 123.019813 188.275719 
L 123.187213 196.915371 
L 123.354613 190.015156 
L 123.522013 190.336988 
L 123.689413 191.232862 
L 123.856813 187.764004 
L 124.024213 192.473023 
L 124.191613 188.861416 
L 124.359013 190.73851 
L 124.526413 190.828257 
L 124.693813 189.077725 
L 124.861212 197.085347 
L 125.196012 189.362682 
L 125.363413 193.783021 
L 125.530812 178.771185 
L 125.698213 180.104784 
L 125.865612 187.524396 
L 126.033013 181.885124 
L 126.200412 182.403639 
L 126.367813 181.137009 
L 126.535213 169.834556 
L 126.702613 177.422781 
L 126.870013 177.140257 
L 127.037413 179.077881 
L 127.204813 186.40048 
L 127.372213 179.971307 
L 127.539613 184.616485 
L 127.707013 181.625687 
L 128.041813 186.331438 
L 128.209213 185.404365 
L 128.376613 187.571494 
L 128.544013 186.935443 
L 128.711413 190.244736 
L 128.878813 187.421117 
L 129.381012 195.947566 
L 129.548413 198.300509 
L 129.715812 197.295095 
L 129.883213 203.407746 
L 130.050612 201.85619 
L 130.218013 198.417844 
L 130.385413 200.160283 
L 130.552813 199.863497 
L 130.720213 196.305269 
L 131.055013 202.653001 
L 131.222413 198.091812 
L 131.389813 202.417454 
L 131.557213 192.0709 
L 131.724613 198.601666 
L 131.892013 193.165764 
L 132.226813 199.984884 
L 132.561613 190.300039 
L 132.729013 199.340956 
L 132.896413 199.613198 
L 133.063813 201.180468 
L 133.231213 198.138395 
L 133.398613 204.155403 
L 133.566013 199.211562 
L 133.733413 198.965979 
L 133.900813 208.550718 
L 134.068213 201.878433 
L 134.403013 204.847189 
L 134.570413 204.714483 
L 134.737813 202.887202 
L 134.905213 204.680783 
L 135.072612 202.887119 
L 135.240013 199.377378 
L 135.407412 209.691179 
L 135.574813 207.881671 
L 135.742212 203.595502 
L 136.077012 209.033717 
L 136.244413 204.797902 
L 136.579213 215.835403 
L 136.746612 204.882735 
L 136.914013 205.557557 
L 137.081412 212.417559 
L 137.248812 209.86287 
L 137.416213 204.969158 
L 137.583612 215.591395 
L 137.751013 208.41777 
L 137.918412 207.36173 
L 138.085813 211.422723 
L 138.253212 212.512617 
L 138.588012 218.135127 
L 138.755413 212.747536 
L 139.090213 214.917016 
L 139.257612 213.496611 
L 139.425013 213.983445 
L 139.592412 213.647356 
L 139.927212 203.52359 
L 140.094613 208.982618 
L 140.429413 210.28515 
L 140.596812 201.968222 
L 140.931612 213.852147 
L 141.266413 203.491002 
L 141.601213 208.196477 
L 141.936013 207.982803 
L 142.103412 209.126954 
L 142.270813 207.457996 
L 142.438212 209.559703 
L 142.773012 204.024954 
L 142.940413 211.227081 
L 143.107812 204.375116 
L 143.275213 207.009563 
L 143.442612 207.599287 
L 143.610013 207.043937 
L 143.777412 206.899441 
L 143.944813 206.584234 
L 144.112212 209.447677 
L 144.279613 207.372489 
L 144.447012 209.919187 
L 144.614413 214.788309 
L 144.781813 208.855915 
L 144.949213 208.725547 
L 145.116613 212.349968 
L 145.284013 211.49696 
L 145.451413 212.832421 
L 145.618813 211.182288 
L 145.786213 204.366589 
L 145.953613 210.524392 
L 146.288413 207.062927 
L 146.455813 215.673898 
L 146.623213 206.041398 
L 146.790613 209.236304 
L 146.958012 209.906128 
L 147.125413 213.201361 
L 147.292812 209.874593 
L 147.460213 211.936827 
L 147.627612 220.535853 
L 147.795013 209.888154 
L 148.129813 219.234786 
L 148.297213 213.528999 
L 148.464613 214.578116 
L 148.632013 217.747794 
L 148.799413 210.011179 
L 149.301613 219.510381 
L 149.469013 212.436707 
L 149.636413 214.305701 
L 149.803813 224.342344 
L 150.138613 216.170986 
L 150.306013 215.780113 
L 150.473413 217.130583 
L 150.640813 223.144013 
L 150.808213 212.107261 
L 150.975613 227.578799 
L 151.143013 223.626042 
L 151.310413 209.358929 
L 151.645213 224.314471 
L 151.980013 213.940138 
L 152.147413 221.705676 
L 152.314813 222.082676 
L 152.482213 209.481932 
L 152.649613 221.054902 
L 152.817013 224.774835 
L 152.984413 217.538878 
L 153.151813 221.735021 
L 153.319213 221.920532 
L 153.486613 221.493047 
L 153.654013 224.368323 
L 153.821413 215.832819 
L 153.988813 218.346874 
L 154.156213 211.483246 
L 154.491013 220.090612 
L 154.658413 211.809075 
L 154.825813 224.038088 
L 154.993213 214.491125 
L 155.160613 211.963225 
L 155.495413 220.241663 
L 155.830213 210.721387 
L 155.997613 220.483697 
L 156.165013 210.425356 
L 156.332413 209.486324 
L 156.499812 215.977133 
L 156.667213 211.453676 
L 156.834612 217.80063 
L 157.002013 216.87386 
L 157.169412 214.907835 
L 157.336813 225.200499 
L 157.504212 215.040619 
L 157.671613 217.440519 
L 157.839012 221.541463 
L 158.006413 220.816731 
L 158.173812 221.489621 
L 158.341213 221.046853 
L 158.508612 230.324339 
L 158.843412 224.484405 
L 159.010813 228.353069 
L 159.345612 230.43579 
L 159.513013 226.693002 
L 159.680412 228.07323 
L 160.015212 222.608429 
L 160.182613 224.206959 
L 160.350012 229.230717 
L 160.517413 225.991403 
L 160.684812 225.984429 
L 160.852213 231.643345 
L 161.019612 225.422079 
L 161.187013 225.402016 
L 161.354412 232.957949 
L 161.521813 224.754628 
L 161.856613 231.680065 
L 162.024012 223.638282 
L 162.191413 230.193658 
L 162.358812 227.802758 
L 162.526213 228.086615 
L 162.693613 226.37404 
L 162.861013 226.790051 
L 163.028413 230.981142 
L 163.195813 224.568236 
L 163.363213 222.875619 
L 163.530613 230.592546 
L 163.698013 224.523357 
L 164.200212 234.583455 
L 164.367613 223.449195 
L 164.535012 227.272196 
L 164.702413 237.805455 
L 164.869812 226.267399 
L 165.037213 232.723188 
L 165.204612 231.680653 
L 165.372013 224.080296 
L 165.539412 221.671484 
L 165.706813 227.979254 
L 165.874212 229.501863 
L 166.041613 221.055441 
L 166.376413 227.986669 
L 166.543813 225.916009 
L 166.711212 225.990494 
L 166.878613 222.29382 
L 167.046012 232.372423 
L 167.213413 224.827902 
L 167.380812 224.378974 
L 167.548213 230.333934 
L 167.715612 220.776439 
L 167.883013 227.593219 
L 168.050412 223.918099 
L 168.217813 222.931912 
L 168.385212 224.470019 
L 168.552613 218.263901 
L 168.887413 226.825012 
L 169.054812 224.427459 
L 169.222213 225.540326 
L 169.389612 221.510551 
L 169.557013 227.13176 
L 169.724412 221.033352 
L 169.891813 225.874746 
L 170.059213 222.233524 
L 170.226613 214.084628 
L 170.394013 225.764555 
L 170.561413 228.191175 
L 170.728813 223.938969 
L 170.896213 227.686022 
L 171.063613 224.448243 
L 171.231012 223.822016 
L 171.398413 226.502431 
L 171.565812 231.990615 
L 171.733213 228.406411 
L 171.900612 230.887642 
L 172.068013 228.185113 
L 172.235412 230.247031 
L 172.402813 227.896351 
L 172.570212 219.614049 
L 172.737613 233.608692 
L 172.905012 224.586158 
L 173.239812 233.052434 
L 173.407213 221.753749 
L 173.574613 231.332924 
L 173.742013 228.348133 
L 173.909413 227.597914 
L 174.076813 224.284641 
L 174.244213 224.646865 
L 174.411613 227.124638 
L 174.579013 223.845701 
L 174.746413 224.230707 
L 174.913813 227.348516 
L 175.081213 232.875136 
L 175.248613 224.644065 
L 175.583413 238.161981 
L 175.750813 228.711246 
L 175.918213 234.007796 
L 176.085612 229.291597 
L 176.420412 231.431107 
L 176.587813 225.885905 
L 176.755212 234.461722 
L 176.922613 228.072469 
L 177.090013 228.586766 
L 177.424813 233.569603 
L 177.592213 231.631389 
L 177.759613 234.215372 
L 178.094413 228.094508 
L 178.261812 234.815773 
L 178.429213 229.481216 
L 178.596612 228.583202 
L 178.764013 230.349203 
L 178.931412 222.106623 
L 179.098812 229.613263 
L 179.266212 228.999266 
L 179.433612 223.541531 
L 179.768412 229.145856 
L 179.935812 232.84947 
L 180.103212 221.30573 
L 180.270612 236.133145 
L 180.438012 225.842364 
L 180.605412 223.782573 
L 180.772812 224.270139 
L 180.940213 221.691156 
L 181.107612 225.844013 
L 181.442412 222.344576 
L 181.609813 224.572463 
L 181.777212 222.55057 
L 181.944613 225.795426 
L 182.112012 225.311148 
L 182.279413 219.664735 
L 182.446812 222.539268 
L 182.614213 229.384868 
L 182.781612 231.193559 
L 182.949013 224.405366 
L 183.116412 224.115207 
L 183.283813 227.266381 
L 183.451212 227.104606 
L 183.618613 231.394202 
L 183.786012 224.980897 
L 183.953412 224.131507 
L 184.120812 230.19571 
L 184.288212 224.212682 
L 184.455613 224.493649 
L 184.623012 227.666185 
L 184.790413 224.752038 
L 184.957812 226.926658 
L 185.125213 222.221021 
L 185.292612 222.062445 
L 185.460013 225.821023 
L 185.627412 223.285301 
L 185.794813 217.272891 
L 186.129613 231.568305 
L 186.297012 218.179946 
L 186.631812 229.309419 
L 186.799213 218.004201 
L 186.966612 218.724374 
L 187.134013 229.198322 
L 187.301412 223.388623 
L 187.468813 223.139086 
L 187.636212 232.724743 
L 187.803613 226.714813 
L 188.138413 231.797295 
L 188.305813 222.409256 
L 188.473213 227.664485 
L 188.640613 219.281516 
L 188.975413 227.852541 
L 189.142812 225.023946 
L 189.310213 220.245778 
L 189.477612 223.852177 
L 189.645013 221.886319 
L 189.812412 223.697809 
L 189.979813 227.637914 
L 190.147212 228.468235 
L 190.314613 231.23123 
L 190.482012 229.658335 
L 190.649413 226.624407 
L 190.816812 230.380763 
L 190.984213 228.371109 
L 191.151612 233.576076 
L 191.319013 233.254447 
L 191.486413 222.798695 
L 191.653813 231.209743 
L 191.821213 228.18049 
L 191.988613 222.892463 
L 192.156013 230.399849 
L 192.323413 227.430286 
L 192.490813 229.871397 
L 192.658213 227.428754 
L 192.825613 222.750608 
L 193.160413 231.4562 
L 193.327812 225.855394 
L 193.495213 233.224939 
L 193.830013 227.840294 
L 193.997412 231.196235 
L 194.164813 226.948112 
L 194.332212 227.249218 
L 194.499613 224.155554 
L 194.667012 230.278487 
L 195.001812 225.586823 
L 195.169213 232.752049 
L 195.336613 224.721847 
L 195.504013 222.872595 
L 195.671413 227.128312 
L 196.006213 225.346796 
L 196.173613 220.595218 
L 196.341013 225.358523 
L 196.675813 222.978991 
L 196.843213 232.588905 
L 197.010613 225.563757 
L 197.345413 229.131426 
L 197.512813 232.482326 
L 197.847613 224.250902 
L 198.015013 236.95882 
L 198.349813 224.226186 
L 198.517212 230.607054 
L 198.684613 227.567975 
L 198.852013 231.183792 
L 199.019413 231.292404 
L 199.186813 231.680985 
L 199.354212 233.700048 
L 199.521613 237.076165 
L 199.856413 227.637414 
L 200.023812 230.771186 
L 200.358612 223.229244 
L 200.526013 226.955562 
L 200.693412 227.892478 
L 200.860813 225.024849 
L 201.028212 214.598168 
L 201.195612 226.84917 
L 201.363012 225.821557 
L 201.530412 220.207836 
L 201.865212 230.93456 
L 202.032612 227.927653 
L 202.200012 228.744495 
L 202.534812 234.39219 
L 202.702213 226.343143 
L 202.869612 238.407355 
L 203.204412 228.688229 
L 203.371813 228.889533 
L 203.539212 233.204113 
L 203.706613 230.217161 
L 203.874012 223.507451 
L 204.041413 230.283082 
L 204.208812 230.34693 
L 204.376213 230.063182 
L 204.543612 229.351347 
L 204.711013 231.175163 
L 204.878412 222.865707 
L 205.045813 230.268434 
L 205.213212 228.608824 
L 205.380613 224.337438 
L 205.548012 233.145823 
L 205.715413 225.125771 
L 205.882812 226.922309 
L 206.050213 232.874786 
L 206.217613 223.186782 
L 206.385013 230.758086 
L 206.552413 225.45869 
L 206.719813 227.846702 
L 206.887213 226.170814 
L 207.054613 228.283878 
L 207.222013 227.640722 
L 207.389413 228.633964 
L 207.724213 224.929844 
L 207.891613 233.389026 
L 208.059013 229.811448 
L 208.226413 235.859836 
L 208.561213 225.700933 
L 208.728613 235.280195 
L 208.896013 232.077472 
L 209.063413 226.252163 
L 209.398213 240.80942 
L 209.565613 224.521575 
L 209.733013 235.041856 
L 209.900413 238.279422 
L 210.067812 224.642607 
L 210.235213 237.399414 
L 210.570013 233.801341 
L 210.737412 237.05933 
L 210.904812 230.855879 
L 211.072212 236.972963 
L 211.239612 232.416631 
L 211.407012 233.903851 
L 211.574412 237.822589 
L 211.909212 225.372994 
L 212.076612 236.919531 
L 212.411412 229.93539 
L 212.578812 235.610727 
L 212.746212 231.256194 
L 212.913612 230.157888 
L 213.081012 232.60507 
L 213.248413 238.836572 
L 213.415812 231.179487 
L 213.583213 232.209544 
L 213.750612 238.516202 
L 214.085412 227.95375 
L 214.252813 232.014291 
L 214.420212 232.09811 
L 214.587613 230.383579 
L 214.755012 231.120352 
L 214.922413 221.721546 
L 215.089812 234.259198 
L 215.257213 234.272046 
L 215.424612 232.141256 
L 215.592013 234.760281 
L 215.759412 231.95922 
L 215.926813 239.129108 
L 216.261613 222.970388 
L 216.429012 233.462495 
L 216.596413 233.58966 
L 216.763813 228.680996 
L 216.931213 230.062747 
L 217.098613 233.893276 
L 217.266013 226.887161 
L 217.433413 227.762034 
L 217.600813 230.07215 
L 217.768213 234.802266 
L 217.935613 236.122582 
L 218.103013 224.727528 
L 218.270413 233.112634 
L 218.437813 234.72353 
L 218.605213 229.53471 
L 218.772612 229.676802 
L 218.940013 228.208495 
L 219.107412 228.749541 
L 219.274813 228.099336 
L 219.442212 229.427102 
L 219.609613 226.169606 
L 219.777012 225.729429 
L 219.944413 232.919545 
L 220.111812 223.6219 
L 220.279212 229.53367 
L 220.446612 222.623801 
L 220.614013 228.831294 
L 220.781412 226.784244 
L 220.948813 226.268795 
L 221.116212 222.920712 
L 221.283613 225.75606 
L 221.451012 225.491362 
L 221.618413 224.830653 
L 221.785812 219.606138 
L 221.953213 227.189984 
L 222.288013 215.102961 
L 222.455412 223.784915 
L 222.622813 225.275819 
L 222.790212 216.696546 
L 222.957613 223.376345 
L 223.125012 223.158759 
L 223.292413 218.15673 
L 223.459812 218.571076 
L 223.794612 223.639579 
L 223.962013 222.830766 
L 224.129413 222.932486 
L 224.296813 220.038656 
L 224.464213 229.863707 
L 224.631613 225.328333 
L 224.799013 217.363758 
L 224.966413 231.27876 
L 225.133813 224.253501 
L 225.301213 225.22209 
L 225.468613 230.510289 
L 225.636013 225.870542 
L 225.803413 233.043291 
L 225.970813 229.755087 
L 226.138213 232.683246 
L 226.305613 233.373867 
L 226.473013 230.097872 
L 226.640413 229.690693 
L 226.807813 230.281053 
L 226.975213 229.473286 
L 227.142613 234.311188 
L 227.310013 234.221508 
L 227.477413 227.531572 
L 227.644813 237.590131 
L 227.812213 228.083286 
L 227.979613 232.604942 
L 228.147012 231.463153 
L 228.314413 228.942418 
L 228.481812 230.41774 
L 228.649213 227.412874 
L 228.816612 240.360746 
L 229.151412 227.930332 
L 229.318813 233.652518 
L 229.486212 230.76542 
L 229.653613 235.023953 
L 229.821012 228.311118 
L 230.155812 231.288647 
L 230.323213 227.228751 
L 230.490612 236.482278 
L 230.658013 230.084468 
L 230.825412 229.250486 
L 230.992813 234.541496 
L 231.160213 228.308212 
L 231.327613 233.004028 
L 231.662412 226.522977 
L 231.829813 233.9366 
L 231.997212 230.350639 
L 232.164613 230.503796 
L 232.332012 229.403406 
L 232.499413 223.761052 
L 232.666812 226.868543 
L 232.834213 226.679573 
L 233.169013 230.862993 
L 233.336412 222.468933 
L 233.503813 225.427565 
L 233.671212 223.594213 
L 234.006012 231.204677 
L 234.173413 228.058122 
L 234.340812 228.337325 
L 234.843013 226.042628 
L 235.177813 232.155398 
L 235.345213 224.732958 
L 235.512613 225.849501 
L 235.680013 235.149908 
L 235.847413 228.007775 
L 236.014812 231.602252 
L 236.182213 231.478642 
L 236.349612 228.660971 
L 236.517013 228.638199 
L 236.851813 232.016271 
L 237.019212 230.406838 
L 237.186613 231.399311 
L 237.354012 233.850522 
L 237.521412 230.102703 
L 237.688812 234.046767 
L 237.856212 229.125072 
L 238.023612 228.656991 
L 238.191012 232.112447 
L 238.358412 232.693277 
L 238.693212 226.558181 
L 238.860613 235.662962 
L 239.028012 230.074647 
L 239.195413 233.801831 
L 239.362812 229.283663 
L 239.697612 235.55747 
L 239.865013 224.366915 
L 240.199813 233.818006 
L 240.367212 230.011256 
L 240.534613 233.769094 
L 240.702012 233.112463 
L 240.869413 225.672068 
L 241.204213 230.820466 
L 241.371612 222.528173 
L 241.539013 230.595742 
L 241.706412 222.630206 
L 241.873813 223.446233 
L 242.041213 235.2165 
L 242.208613 225.160468 
L 242.543413 234.032213 
L 242.710813 234.424349 
L 243.045613 229.105887 
L 243.213013 227.400281 
L 243.380413 230.237533 
L 243.547813 238.649985 
L 243.715213 228.187104 
L 243.882613 228.361313 
L 244.050013 233.542805 
L 244.217413 228.164559 
L 244.384813 228.355868 
L 244.552213 230.33428 
L 244.719613 228.135168 
L 244.887013 220.63293 
L 245.054413 222.902605 
L 245.221813 227.435873 
L 245.556613 218.735955 
L 245.724012 229.217355 
L 245.891413 230.546753 
L 246.058812 227.747082 
L 246.226213 235.720908 
L 246.561013 225.340676 
L 246.728412 233.730818 
L 246.895813 233.843964 
L 247.063212 228.543432 
L 247.230613 228.431668 
L 247.398012 238.362133 
L 247.732812 225.566998 
L 247.900213 235.979366 
L 248.067612 233.144367 
L 248.235013 234.605366 
L 248.402412 237.696157 
L 248.737212 229.91909 
L 248.904613 231.901937 
L 249.072012 235.972133 
L 249.239413 226.638149 
L 249.574213 230.119424 
L 249.741613 229.96823 
L 249.909013 227.877927 
L 250.243813 233.153545 
L 250.578613 230.265916 
L 250.746013 234.861752 
L 250.913413 229.502933 
L 251.080813 230.275148 
L 251.248213 234.765509 
L 251.415613 228.386038 
L 251.750413 234.557589 
L 251.917813 228.636458 
L 252.085213 227.584382 
L 252.252613 235.676482 
L 252.420013 229.130995 
L 252.587413 234.125644 
L 252.754813 234.789672 
L 252.922213 224.817979 
L 253.089613 232.649862 
L 253.257013 232.876055 
L 253.424413 226.317688 
L 253.759213 234.669552 
L 253.926612 232.243564 
L 254.094013 232.602695 
L 254.261412 231.641447 
L 254.428813 228.366001 
L 254.596212 236.378019 
L 254.763613 229.633398 
L 254.931012 236.055426 
L 255.098412 236.564475 
L 255.265812 233.408079 
L 255.433212 237.268617 
L 255.600612 232.08873 
L 255.935412 234.535859 
L 256.102813 236.777877 
L 256.270213 236.147845 
L 256.437613 232.009104 
L 256.605012 237.091787 
L 256.772413 229.649111 
L 257.107213 234.919286 
L 257.274612 227.699291 
L 257.442013 232.739659 
L 257.609413 231.195518 
L 257.776813 233.754486 
L 257.944212 232.4789 
L 258.279013 228.206742 
L 258.446413 222.613805 
L 258.613812 228.767042 
L 258.781213 220.442853 
L 259.116013 229.78413 
L 259.283412 223.212776 
L 259.450813 224.488081 
L 259.618213 231.548154 
L 259.785613 228.353081 
L 259.953012 229.540985 
L 260.120413 224.417982 
L 260.455213 232.564671 
L 260.622613 224.769751 
L 260.790013 232.194776 
L 260.957413 231.96223 
L 261.124813 227.889843 
L 261.292213 234.757003 
L 261.627013 228.706624 
L 261.794413 233.286337 
L 261.961813 230.654536 
L 262.129213 232.731106 
L 262.464013 228.353211 
L 262.631413 231.119318 
L 262.798813 225.77566 
L 262.966212 227.202317 
L 263.133613 231.186734 
L 263.301013 227.369489 
L 263.468413 229.499268 
L 263.635812 226.005123 
L 263.803213 231.268082 
L 263.970613 226.371522 
L 264.138013 229.418466 
L 264.472813 227.792305 
L 264.640213 228.343712 
L 264.807613 231.376111 
L 264.975012 222.603139 
L 265.142413 232.292785 
L 265.309813 230.099936 
L 265.477213 230.170707 
L 265.644612 235.190676 
L 265.812013 232.448922 
L 266.146813 234.901998 
L 266.314212 233.015544 
L 266.481613 236.030307 
L 266.649013 228.199793 
L 266.816413 237.239472 
L 266.983812 234.014003 
L 267.151213 225.51585 
L 267.318613 233.292779 
L 267.486013 235.36609 
L 267.653413 227.745022 
L 267.988213 237.575145 
L 268.155613 232.227403 
L 268.323013 232.201139 
L 268.490413 236.618736 
L 268.657813 227.74123 
L 268.825213 234.080221 
L 268.992613 234.837368 
L 269.160013 231.003607 
L 269.327413 236.517796 
L 269.494813 229.219507 
L 269.662213 233.992528 
L 269.829613 234.256056 
L 269.997013 232.899952 
L 270.164413 232.714049 
L 270.331813 232.080288 
L 270.499213 233.493309 
L 270.666613 229.516045 
L 270.834013 230.015097 
L 271.001413 230.888544 
L 271.168813 228.122301 
L 271.336213 232.418325 
L 271.503613 224.871056 
L 271.671013 227.326121 
L 271.838413 227.043908 
L 272.005813 228.492114 
L 272.173213 223.14392 
L 272.340613 231.332938 
L 272.675412 220.475113 
L 272.842813 227.288223 
L 273.010213 223.92765 
L 273.177613 228.699287 
L 273.345012 229.331573 
L 273.512413 228.569962 
L 273.679813 228.560604 
L 273.847213 225.296528 
L 274.014612 227.449826 
L 274.182012 226.311036 
L 274.349413 228.355564 
L 274.516813 232.161783 
L 274.684213 228.098216 
L 274.851612 227.221867 
L 275.019013 228.962241 
L 275.353813 228.590975 
L 275.521212 237.779332 
L 275.688613 225.309543 
L 275.856013 226.736951 
L 276.023413 229.53401 
L 276.190812 223.104631 
L 276.358213 230.241038 
L 276.860412 224.281393 
L 277.195213 229.417708 
L 277.362613 226.970528 
L 277.530012 227.239036 
L 277.697413 229.18069 
L 277.864813 223.051054 
L 278.032213 228.515787 
L 278.199613 228.701381 
L 278.367013 227.432275 
L 278.534413 234.413512 
L 278.701813 230.060889 
L 278.869213 233.037804 
L 279.036613 231.244067 
L 279.204013 230.933887 
L 279.371413 234.844885 
L 279.538813 232.253501 
L 279.706213 234.722918 
L 279.873613 232.144296 
L 280.041013 224.494153 
L 280.208413 229.919936 
L 280.375813 226.723206 
L 280.710613 232.519583 
L 280.878013 225.042792 
L 281.045413 232.352351 
L 281.212812 233.883208 
L 281.380213 225.698546 
L 281.547613 226.762097 
L 281.715013 231.05331 
L 281.882412 226.872967 
L 282.049813 225.655292 
L 282.217213 227.684556 
L 282.384613 227.660696 
L 282.552012 226.926516 
L 282.719413 230.292041 
L 282.886813 227.419602 
L 283.054213 227.31613 
L 283.221612 235.825218 
L 283.389013 227.123191 
L 283.556413 233.487357 
L 283.723813 227.935663 
L 283.891212 235.453304 
L 284.226013 225.311101 
L 284.393413 234.198828 
L 284.560812 225.064631 
L 284.728213 225.817712 
L 284.895613 222.784392 
L 285.063013 223.956261 
L 285.230412 228.801527 
L 285.397813 229.5706 
L 285.565213 227.081572 
L 285.732613 227.897027 
L 285.900013 233.917246 
L 286.067413 227.278317 
L 286.234813 236.088994 
L 286.737013 230.158003 
L 286.904413 235.421162 
L 287.071813 233.801321 
L 287.239213 229.90592 
L 287.406613 229.255559 
L 287.574013 230.495143 
L 287.741413 229.173155 
L 287.908813 233.897086 
L 288.076213 229.397174 
L 288.411013 232.037494 
L 288.578413 231.810327 
L 288.913213 228.316784 
L 289.415413 222.200249 
L 289.750213 229.686472 
L 289.917613 226.531161 
L 290.085013 227.086826 
L 290.252412 232.41304 
L 290.587213 224.9886 
L 290.754613 227.492115 
L 290.922012 226.529398 
L 291.089413 228.317211 
L 291.256813 226.881513 
L 291.424213 223.505812 
L 291.591612 233.63693 
L 291.759013 229.273822 
L 292.093813 232.058458 
L 292.428613 223.286508 
L 292.596013 235.504366 
L 292.763413 226.149628 
L 292.930813 226.199985 
L 293.098213 227.243941 
L 293.265613 221.710149 
L 293.433013 220.319459 
L 293.600413 222.523092 
L 293.767813 233.219991 
L 294.102613 218.291567 
L 294.270013 229.216342 
L 294.437413 229.982956 
L 294.604813 229.171931 
L 294.772213 227.040454 
L 294.939613 228.759539 
L 295.274413 222.126435 
L 295.441813 231.471149 
L 295.776612 224.456949 
L 295.944013 226.30934 
L 296.111413 226.889786 
L 296.278813 221.128308 
L 296.446213 223.218939 
L 296.613613 227.548651 
L 296.781013 221.813298 
L 296.948413 225.540582 
L 297.115813 225.656286 
L 297.283213 220.546632 
L 297.450613 229.945405 
L 297.618013 229.1058 
L 297.785413 232.080941 
L 298.120213 226.074192 
L 298.287613 234.354053 
L 298.455013 228.10299 
L 298.622413 226.241213 
L 298.789813 233.205358 
L 298.957213 234.222698 
L 299.124613 227.463096 
L 299.292013 230.496132 
L 299.459413 227.283182 
L 299.626813 221.238356 
L 299.794213 229.818387 
L 299.961613 225.513524 
L 300.129013 227.574694 
L 300.463813 223.317497 
L 300.631213 226.393597 
L 300.798613 218.115795 
L 300.966013 229.149271 
L 301.133413 219.759075 
L 301.468213 229.446314 
L 301.635613 223.600878 
L 301.803013 226.630492 
L 301.970413 222.133427 
L 302.137813 228.013119 
L 302.305213 221.800786 
L 302.640013 229.409222 
L 302.807412 224.767681 
L 302.974813 228.11988 
L 303.142213 226.163747 
L 303.309613 228.113013 
L 303.477013 232.664871 
L 303.811813 230.765575 
L 303.979213 228.555638 
L 304.146613 223.24838 
L 304.314013 230.078135 
L 304.481413 228.412175 
L 304.816213 223.606328 
L 305.151013 233.125611 
L 305.318413 220.433926 
L 305.485813 223.575193 
L 305.653213 230.141638 
L 305.820613 228.476791 
L 305.988013 229.982853 
L 306.155413 234.373311 
L 306.322813 228.476855 
L 306.825013 237.638849 
L 307.159813 229.821399 
L 307.327213 236.472709 
L 307.494613 232.734114 
L 307.662013 232.477401 
L 307.829413 230.293833 
L 307.996813 229.620077 
L 308.164213 236.691207 
L 308.331613 226.724818 
L 308.499013 225.26687 
L 308.666413 238.361905 
L 308.833813 233.538891 
L 309.001213 233.718367 
L 309.168613 237.794765 
L 309.336013 230.395078 
L 309.503413 228.624455 
L 309.670813 234.788466 
L 309.838213 236.475244 
L 310.005613 228.733957 
L 310.173013 238.145635 
L 310.340413 235.873229 
L 310.507813 229.580267 
L 310.675213 239.154933 
L 310.842613 234.225878 
L 311.010013 235.982554 
L 311.177413 228.127523 
L 311.344813 235.862685 
L 311.512213 233.012648 
L 311.679613 224.719584 
L 312.014413 234.239292 
L 312.181813 233.084853 
L 312.349213 229.400151 
L 312.684013 233.86541 
L 313.186213 230.173048 
L 313.353613 237.679737 
L 313.688413 228.521762 
L 313.855813 232.633897 
L 314.023213 232.731247 
L 314.190613 232.138844 
L 314.358013 237.842462 
L 314.692813 228.147242 
L 314.860213 237.998096 
L 315.027613 229.159555 
L 315.195013 233.702148 
L 315.362413 232.659738 
L 315.529813 227.694531 
L 315.697213 230.518474 
L 315.864613 227.483198 
L 316.032013 229.747628 
L 316.199413 234.214373 
L 316.366813 226.839121 
L 316.701613 234.171348 
L 316.869013 228.043429 
L 317.036413 226.006932 
L 317.203813 221.650639 
L 317.371213 226.017471 
L 317.538613 226.235079 
L 317.706013 231.30382 
L 318.040813 225.074667 
L 318.208213 233.10346 
L 318.375613 232.93131 
L 318.543013 230.249405 
L 318.710413 231.604893 
L 318.877813 234.630275 
L 319.212613 229.356727 
L 319.547413 235.81941 
L 319.714812 229.959778 
L 319.882213 231.826962 
L 320.049613 237.249965 
L 320.217013 235.265588 
L 320.384412 230.275689 
L 320.551813 234.590458 
L 320.719213 234.393097 
L 320.886613 233.729505 
L 321.054012 243.356028 
L 321.221413 232.479132 
L 321.556213 240.422708 
L 321.723613 232.930022 
L 321.891013 235.681688 
L 322.058413 242.986887 
L 322.225813 233.786508 
L 322.393213 235.808195 
L 322.560613 243.556364 
L 322.728013 235.857317 
L 322.895413 238.935476 
L 323.062813 239.452362 
L 323.230213 235.224703 
L 323.397613 238.921647 
L 323.565013 238.43836 
L 323.732413 235.002359 
L 323.899813 228.055994 
L 324.067213 237.987975 
L 324.402013 233.46162 
L 324.569413 233.002002 
L 324.736813 234.604508 
L 324.904213 241.678606 
L 325.071613 238.319273 
L 325.239013 238.577236 
L 325.406413 238.361232 
L 325.573813 230.982064 
L 325.908613 238.267426 
L 326.243413 234.640373 
L 326.410813 242.673459 
L 326.745613 228.986798 
L 326.913013 240.831586 
L 327.080413 232.947839 
L 327.247813 234.081949 
L 327.415213 234.15764 
L 327.582613 229.474914 
L 327.750013 232.079809 
L 327.917413 232.629936 
L 328.084813 225.993319 
L 328.419613 236.353592 
L 328.587013 231.348404 
L 328.754413 233.663983 
L 328.921813 232.909018 
L 329.089213 232.800342 
L 329.256613 237.584804 
L 329.424013 232.13797 
L 329.758813 232.960559 
L 330.093613 236.066302 
L 330.261013 229.187291 
L 330.595813 235.535549 
L 330.763213 230.186416 
L 330.930613 232.41109 
L 331.098013 217.997553 
L 331.432813 234.554995 
L 331.600213 227.507724 
L 331.935013 235.154431 
L 332.102413 231.820783 
L 332.437213 232.960862 
L 332.604613 232.391054 
L 332.772013 235.917023 
L 333.106813 223.005085 
L 333.274213 238.221526 
L 333.441613 222.39656 
L 333.776413 231.426775 
L 333.943813 222.754365 
L 334.111213 229.327064 
L 334.278613 226.728657 
L 334.446013 234.259467 
L 334.613413 228.041957 
L 334.780813 228.939296 
L 334.948213 235.717842 
L 335.115613 224.314182 
L 335.283013 230.572822 
L 335.450413 230.753423 
L 335.617813 224.992419 
L 335.785213 232.148083 
L 336.120013 226.485606 
L 336.454813 232.181626 
L 336.622213 233.248429 
L 336.789613 230.190435 
L 337.124413 236.406953 
L 337.291813 226.31071 
L 337.626613 233.000142 
L 337.794013 221.879257 
L 337.961413 229.735837 
L 338.128813 226.096224 
L 338.463613 233.03436 
L 338.631012 224.41103 
L 338.965813 237.330984 
L 339.133213 225.841409 
L 339.468013 237.1658 
L 339.802813 229.377563 
L 339.970213 239.660323 
L 340.137613 229.900225 
L 340.305013 231.224604 
L 340.472413 228.121524 
L 340.639813 230.073435 
L 340.807213 226.861756 
L 340.974613 226.255013 
L 341.142013 226.543039 
L 341.309413 230.050534 
L 341.476813 225.535168 
L 341.644213 236.729615 
L 341.979013 225.504775 
L 342.146413 234.161584 
L 342.313813 224.763312 
L 342.648613 227.34265 
L 342.816013 228.764407 
L 342.983413 223.442866 
L 343.150813 226.268563 
L 343.318213 225.280151 
L 343.485613 215.093694 
L 343.653013 228.102991 
L 343.820413 229.918522 
L 343.987813 222.838271 
L 344.322613 233.523653 
L 344.490013 229.7931 
L 344.657413 220.804304 
L 344.992213 233.415145 
L 345.159613 221.402413 
L 345.327013 230.891495 
L 345.661813 225.310198 
L 345.996613 231.404846 
L 346.164013 227.194987 
L 346.331413 233.954808 
L 346.498813 227.037703 
L 346.666213 225.44286 
L 346.833613 231.187464 
L 347.001013 226.274088 
L 347.168413 230.750245 
L 347.335813 230.642171 
L 347.503213 227.700946 
L 347.670613 232.614072 
L 347.838013 229.686017 
L 348.005413 229.651761 
L 348.172813 231.560022 
L 348.340213 235.658476 
L 348.507613 224.416127 
L 348.675013 235.450637 
L 348.842413 234.03331 
L 349.009813 220.30285 
L 349.177213 231.704557 
L 349.344613 231.111422 
L 349.512013 232.009884 
L 349.679413 233.548741 
L 349.846813 227.329638 
L 350.014213 237.537443 
L 350.181613 238.777559 
L 350.349013 229.75258 
L 350.516413 230.16155 
L 350.683813 237.948186 
L 351.018613 228.433828 
L 351.186013 233.659974 
L 351.353413 227.588195 
L 351.520813 233.551982 
L 351.688213 226.58572 
L 351.855613 227.117976 
L 352.190413 234.077746 
L 352.525213 222.685436 
L 352.692613 234.856055 
L 352.860013 238.134431 
L 353.194813 228.528806 
L 353.529613 232.304913 
L 353.697013 230.997009 
L 353.864413 235.802997 
L 354.031813 229.579915 
L 354.199213 233.447681 
L 354.366613 229.588656 
L 354.534013 230.220553 
L 354.701413 235.842595 
L 354.868813 229.714888 
L 355.036213 240.178039 
L 355.371013 230.062572 
L 355.538413 232.407281 
L 355.705813 232.194012 
L 355.873213 238.325876 
L 356.040613 234.864671 
L 356.208013 222.390091 
L 356.375413 237.538181 
L 356.710213 225.127549 
L 356.877613 228.52543 
L 357.045013 236.718802 
L 357.212413 227.83196 
L 357.379813 227.248824 
L 357.547213 230.705574 
L 357.714613 231.56451 
L 357.882013 228.825505 
L 358.049413 228.772268 
L 358.216813 231.92384 
L 358.384213 230.113922 
L 358.551613 230.704083 
L 358.886413 228.046928 
L 359.053813 233.543891 
L 359.221213 233.706722 
L 359.388613 229.031271 
L 359.556013 228.984724 
L 359.723413 226.167399 
L 359.890813 235.56469 
L 360.058213 226.3715 
L 360.225613 233.300402 
L 360.393013 231.882684 
L 360.560413 232.774059 
L 360.727813 230.565593 
L 360.895213 222.424422 
L 361.062613 232.78349 
L 361.230013 231.310843 
L 361.397413 224.924497 
L 361.564813 228.04866 
L 361.732213 236.788044 
L 361.899613 223.321473 
L 362.067013 223.296984 
L 362.234413 233.472272 
L 362.401813 223.959468 
L 362.736613 227.861059 
L 362.904013 227.681174 
L 363.071413 229.789641 
L 363.238813 224.837515 
L 363.406213 228.74763 
L 363.573613 228.877223 
L 363.741013 227.963815 
L 363.908412 232.439458 
L 364.075813 233.466715 
L 364.243213 228.30902 
L 364.410613 231.277265 
L 364.578012 230.224156 
L 364.745413 234.553944 
L 364.912813 233.678153 
L 365.080213 231.722863 
L 365.247613 239.459263 
L 365.415013 231.161271 
L 365.582413 228.840023 
L 365.749813 237.550975 
L 365.917213 233.060158 
L 366.084613 234.816604 
L 366.252013 228.918315 
L 366.419413 237.409019 
L 366.754213 228.913788 
L 366.921613 231.027449 
L 367.089013 230.108521 
L 367.256413 232.041246 
L 367.423813 227.83409 
L 367.591213 231.738967 
L 367.758613 230.767095 
L 367.926013 221.399203 
L 368.093413 229.375049 
L 368.260813 230.304233 
L 368.428213 232.015828 
L 368.595613 225.353672 
L 368.763013 224.664318 
L 368.930413 222.800288 
L 369.097813 223.904629 
L 369.265213 232.052805 
L 369.432613 226.897367 
L 369.767413 230.83214 
L 369.934813 228.560672 
L 370.437013 234.012428 
L 370.771813 221.791374 
L 370.939213 236.426735 
L 371.274013 224.101063 
L 371.441413 229.59283 
L 371.608813 228.175483 
L 371.776213 225.108963 
L 371.943613 231.177281 
L 372.111013 232.123018 
L 372.445813 226.024204 
L 372.613213 228.423249 
L 372.780613 223.805486 
L 372.948013 230.74637 
L 373.115413 228.363358 
L 373.282813 220.98898 
L 373.282813 220.98898 
" clip-path="url(#p4c1db6e3e5)" style="fill: none; stroke: #1f77b4; stroke-width: 1.5; stroke-linecap: square"/>
   </g>
   <g id="line2d_17">
    <path d="M 38.650213 46.779363 
L 39.319813 58.568761 
L 39.989413 66.471431 
L 40.659013 71.768749 
L 41.328612 75.319647 
L 41.998213 77.699886 
L 42.667813 79.295407 
L 43.337412 80.364917 
L 44.007013 81.081831 
L 44.844013 81.655377 
L 45.848413 82.05428 
L 47.187613 82.321473 
L 49.363813 82.480076 
L 54.218412 82.536224 
L 115.654212 82.539493 
L 373.282813 82.539493 
L 373.282813 82.539493 
" clip-path="url(#p4c1db6e3e5)" style="fill: none; stroke: #ff7f0e; stroke-width: 1.5; stroke-linecap: square"/>
   </g>
   <g id="patch_3">
    <path d="M 38.482813 253.44 
L 38.482813 36 
" style="fill: none; stroke: #000000; stroke-width: 0.8; stroke-linejoin: miter; stroke-linecap: square"/>
   </g>
   <g id="patch_4">
    <path d="M 373.282813 253.44 
L 373.282813 36 
" style="fill: none; stroke: #000000; stroke-width: 0.8; stroke-linejoin: miter; stroke-linecap: square"/>
   </g>
   <g id="patch_5">
    <path d="M 38.482813 253.44 
L 373.282813 253.44 
" style="fill: none; stroke: #000000; stroke-width: 0.8; stroke-linejoin: miter; stroke-linecap: square"/>
   </g>
   <g id="patch_6">
    <path d="M 38.482813 36 
L 373.282813 36 
" style="fill: none; stroke: #000000; stroke-width: 0.8; stroke-linejoin: miter; stroke-linecap: square"/>
   </g>
   <g id="legend_1">
    <g id="patch_7">
     <path d="M 316.582813 77.078125 
L 366.282813 77.078125 
Q 368.282813 77.078125 368.282813 75.078125 
L 368.282813 43 
Q 368.282813 41 366.282813 41 
L 316.582813 41 
Q 314.582813 41 314.582813 43 
L 314.582813 75.078125 
Q 314.582813 77.078125 316.582813 77.078125 
z
" style="fill: #ffffff; opacity: 0.8; stroke: #cccccc; stroke-linejoin: miter"/>
    </g>
    <g id="line2d_18">
     <path d="M 318.582813 52.8 
L 328.582813 52.8 
L 338.582813 52.8 
" style="fill: none; stroke: #1f77b4; stroke-width: 1.5; stroke-linecap: square"/>
    </g>
    <g id="text_16">
     <!-- $\hat{y(t)}$ -->
     <g transform="translate(346.582813 56.3) scale(0.1 -0.1)">
      <defs>
       <path id="DejaVuSans-302" d="M -1831 5119 
L -1369 5119 
L -603 3944 
L -1038 3944 
L -1600 4709 
L -2163 3944 
L -2597 3944 
L -1831 5119 
z
M -1600 3584 
L -1600 3584 
z
" transform="scale(0.015625)"/>
       <path id="DejaVuSans-Oblique-79" d="M 1588 -325 
Q 1188 -997 936 -1164 
Q 684 -1331 294 -1331 
L -159 -1331 
L -63 -850 
L 269 -850 
Q 509 -850 678 -719 
Q 847 -588 1056 -206 
L 1234 128 
L 459 3500 
L 1069 3500 
L 1650 819 
L 3256 3500 
L 3859 3500 
L 1588 -325 
z
" transform="scale(0.015625)"/>
       <path id="DejaVuSans-28" d="M 1984 4856 
Q 1566 4138 1362 3434 
Q 1159 2731 1159 2009 
Q 1159 1288 1364 580 
Q 1569 -128 1984 -844 
L 1484 -844 
Q 1016 -109 783 600 
Q 550 1309 550 2009 
Q 550 2706 781 3412 
Q 1013 4119 1484 4856 
L 1984 4856 
z
" transform="scale(0.015625)"/>
       <path id="DejaVuSans-Oblique-74" d="M 2706 3500 
L 2619 3053 
L 1472 3053 
L 1100 1153 
Q 1081 1047 1072 975 
Q 1063 903 1063 863 
Q 1063 663 1183 572 
Q 1303 481 1569 481 
L 2150 481 
L 2053 0 
L 1503 0 
Q 991 0 739 200 
Q 488 400 488 806 
Q 488 878 497 964 
Q 506 1050 525 1153 
L 897 3053 
L 409 3053 
L 500 3500 
L 978 3500 
L 1172 4494 
L 1747 4494 
L 1556 3500 
L 2706 3500 
z
" transform="scale(0.015625)"/>
       <path id="DejaVuSans-29" d="M 513 4856 
L 1013 4856 
Q 1481 4119 1714 3412 
Q 1947 2706 1947 2009 
Q 1947 1309 1714 600 
Q 1481 -109 1013 -844 
L 513 -844 
Q 928 -128 1133 580 
Q 1338 1288 1338 2009 
Q 1338 2731 1133 3434 
Q 928 4138 513 4856 
z
" transform="scale(0.015625)"/>
      </defs>
      <use xlink:href="#DejaVuSans-302" transform="translate(135.682129 33.015625)"/>
      <use xlink:href="#DejaVuSans-Oblique-79" transform="translate(0 0.640625)"/>
      <use xlink:href="#DejaVuSans-28" transform="translate(59.179688 0.640625)"/>
      <use xlink:href="#DejaVuSans-Oblique-74" transform="translate(98.193359 0.640625)"/>
      <use xlink:href="#DejaVuSans-29" transform="translate(137.402344 0.640625)"/>
     </g>
    </g>
    <g id="line2d_19">
     <path d="M 318.582813 67.498437 
L 328.582813 67.498437 
L 338.582813 67.498437 
" style="fill: none; stroke: #ff7f0e; stroke-width: 1.5; stroke-linecap: square"/>
    </g>
    <g id="text_17">
     <!-- $x(t)$ -->
     <g transform="translate(346.582813 70.998437) scale(0.1 -0.1)">
      <defs>
       <path id="DejaVuSans-Oblique-78" d="M 3841 3500 
L 2234 1784 
L 3219 0 
L 2559 0 
L 1819 1388 
L 531 0 
L -166 0 
L 1556 1844 
L 641 3500 
L 1300 3500 
L 1972 2234 
L 3144 3500 
L 3841 3500 
z
" transform="scale(0.015625)"/>
      </defs>
      <use xlink:href="#DejaVuSans-Oblique-78" transform="translate(0 0.125)"/>
      <use xlink:href="#DejaVuSans-28" transform="translate(59.179688 0.125)"/>
      <use xlink:href="#DejaVuSans-Oblique-74" transform="translate(98.193359 0.125)"/>
      <use xlink:href="#DejaVuSans-29" transform="translate(137.402344 0.125)"/>
     </g>
    </g>
   </g>
  </g>
  <g id="text_18">
   <!-- Accumulate to Threshold model with input of -0.2 with rms=5  -->
   <g transform="translate(13.149687 16.318125) scale(0.12 -0.12)">
    <defs>
     <path id="DejaVuSans-41" d="M 2188 4044 
L 1331 1722 
L 3047 1722 
L 2188 4044 
z
M 1831 4666 
L 2547 4666 
L 4325 0 
L 3669 0 
L 3244 1197 
L 1141 1197 
L 716 0 
L 50 0 
L 1831 4666 
z
" transform="scale(0.015625)"/>
     <path id="DejaVuSans-63" d="M 3122 3366 
L 3122 2828 
Q 2878 2963 2633 3030 
Q 2388 3097 2138 3097 
Q 1578 3097 1268 2742 
Q 959 2388 959 1747 
Q 959 1106 1268 751 
Q 1578 397 2138 397 
Q 2388 397 2633 464 
Q 2878 531 3122 666 
L 3122 134 
Q 2881 22 2623 -34 
Q 2366 -91 2075 -91 
Q 1284 -91 818 406 
Q 353 903 353 1747 
Q 353 2603 823 3093 
Q 1294 3584 2113 3584 
Q 2378 3584 2631 3529 
Q 2884 3475 3122 3366 
z
" transform="scale(0.015625)"/>
     <path id="DejaVuSans-75" d="M 544 1381 
L 544 3500 
L 1119 3500 
L 1119 1403 
Q 1119 906 1312 657 
Q 1506 409 1894 409 
Q 2359 409 2629 706 
Q 2900 1003 2900 1516 
L 2900 3500 
L 3475 3500 
L 3475 0 
L 2900 0 
L 2900 538 
Q 2691 219 2414 64 
Q 2138 -91 1772 -91 
Q 1169 -91 856 284 
Q 544 659 544 1381 
z
M 1991 3584 
L 1991 3584 
z
" transform="scale(0.015625)"/>
     <path id="DejaVuSans-6d" d="M 3328 2828 
Q 3544 3216 3844 3400 
Q 4144 3584 4550 3584 
Q 5097 3584 5394 3201 
Q 5691 2819 5691 2113 
L 5691 0 
L 5113 0 
L 5113 2094 
Q 5113 2597 4934 2840 
Q 4756 3084 4391 3084 
Q 3944 3084 3684 2787 
Q 3425 2491 3425 1978 
L 3425 0 
L 2847 0 
L 2847 2094 
Q 2847 2600 2669 2842 
Q 2491 3084 2119 3084 
Q 1678 3084 1418 2786 
Q 1159 2488 1159 1978 
L 1159 0 
L 581 0 
L 581 3500 
L 1159 3500 
L 1159 2956 
Q 1356 3278 1631 3431 
Q 1906 3584 2284 3584 
Q 2666 3584 2933 3390 
Q 3200 3197 3328 2828 
z
" transform="scale(0.015625)"/>
     <path id="DejaVuSans-6c" d="M 603 4863 
L 1178 4863 
L 1178 0 
L 603 0 
L 603 4863 
z
" transform="scale(0.015625)"/>
     <path id="DejaVuSans-61" d="M 2194 1759 
Q 1497 1759 1228 1600 
Q 959 1441 959 1056 
Q 959 750 1161 570 
Q 1363 391 1709 391 
Q 2188 391 2477 730 
Q 2766 1069 2766 1631 
L 2766 1759 
L 2194 1759 
z
M 3341 1997 
L 3341 0 
L 2766 0 
L 2766 531 
Q 2569 213 2275 61 
Q 1981 -91 1556 -91 
Q 1019 -91 701 211 
Q 384 513 384 1019 
Q 384 1609 779 1909 
Q 1175 2209 1959 2209 
L 2766 2209 
L 2766 2266 
Q 2766 2663 2505 2880 
Q 2244 3097 1772 3097 
Q 1472 3097 1187 3025 
Q 903 2953 641 2809 
L 641 3341 
Q 956 3463 1253 3523 
Q 1550 3584 1831 3584 
Q 2591 3584 2966 3190 
Q 3341 2797 3341 1997 
z
" transform="scale(0.015625)"/>
     <path id="DejaVuSans-74" d="M 1172 4494 
L 1172 3500 
L 2356 3500 
L 2356 3053 
L 1172 3053 
L 1172 1153 
Q 1172 725 1289 603 
Q 1406 481 1766 481 
L 2356 481 
L 2356 0 
L 1766 0 
Q 1100 0 847 248 
Q 594 497 594 1153 
L 594 3053 
L 172 3053 
L 172 3500 
L 594 3500 
L 594 4494 
L 1172 4494 
z
" transform="scale(0.015625)"/>
     <path id="DejaVuSans-65" d="M 3597 1894 
L 3597 1613 
L 953 1613 
Q 991 1019 1311 708 
Q 1631 397 2203 397 
Q 2534 397 2845 478 
Q 3156 559 3463 722 
L 3463 178 
Q 3153 47 2828 -22 
Q 2503 -91 2169 -91 
Q 1331 -91 842 396 
Q 353 884 353 1716 
Q 353 2575 817 3079 
Q 1281 3584 2069 3584 
Q 2775 3584 3186 3129 
Q 3597 2675 3597 1894 
z
M 3022 2063 
Q 3016 2534 2758 2815 
Q 2500 3097 2075 3097 
Q 1594 3097 1305 2825 
Q 1016 2553 972 2059 
L 3022 2063 
z
" transform="scale(0.015625)"/>
     <path id="DejaVuSans-20" transform="scale(0.015625)"/>
     <path id="DejaVuSans-6f" d="M 1959 3097 
Q 1497 3097 1228 2736 
Q 959 2375 959 1747 
Q 959 1119 1226 758 
Q 1494 397 1959 397 
Q 2419 397 2687 759 
Q 2956 1122 2956 1747 
Q 2956 2369 2687 2733 
Q 2419 3097 1959 3097 
z
M 1959 3584 
Q 2709 3584 3137 3096 
Q 3566 2609 3566 1747 
Q 3566 888 3137 398 
Q 2709 -91 1959 -91 
Q 1206 -91 779 398 
Q 353 888 353 1747 
Q 353 2609 779 3096 
Q 1206 3584 1959 3584 
z
" transform="scale(0.015625)"/>
     <path id="DejaVuSans-54" d="M -19 4666 
L 3928 4666 
L 3928 4134 
L 2272 4134 
L 2272 0 
L 1638 0 
L 1638 4134 
L -19 4134 
L -19 4666 
z
" transform="scale(0.015625)"/>
     <path id="DejaVuSans-68" d="M 3513 2113 
L 3513 0 
L 2938 0 
L 2938 2094 
Q 2938 2591 2744 2837 
Q 2550 3084 2163 3084 
Q 1697 3084 1428 2787 
Q 1159 2491 1159 1978 
L 1159 0 
L 581 0 
L 581 4863 
L 1159 4863 
L 1159 2956 
Q 1366 3272 1645 3428 
Q 1925 3584 2291 3584 
Q 2894 3584 3203 3211 
Q 3513 2838 3513 2113 
z
" transform="scale(0.015625)"/>
     <path id="DejaVuSans-72" d="M 2631 2963 
Q 2534 3019 2420 3045 
Q 2306 3072 2169 3072 
Q 1681 3072 1420 2755 
Q 1159 2438 1159 1844 
L 1159 0 
L 581 0 
L 581 3500 
L 1159 3500 
L 1159 2956 
Q 1341 3275 1631 3429 
Q 1922 3584 2338 3584 
Q 2397 3584 2469 3576 
Q 2541 3569 2628 3553 
L 2631 2963 
z
" transform="scale(0.015625)"/>
     <path id="DejaVuSans-73" d="M 2834 3397 
L 2834 2853 
Q 2591 2978 2328 3040 
Q 2066 3103 1784 3103 
Q 1356 3103 1142 2972 
Q 928 2841 928 2578 
Q 928 2378 1081 2264 
Q 1234 2150 1697 2047 
L 1894 2003 
Q 2506 1872 2764 1633 
Q 3022 1394 3022 966 
Q 3022 478 2636 193 
Q 2250 -91 1575 -91 
Q 1294 -91 989 -36 
Q 684 19 347 128 
L 347 722 
Q 666 556 975 473 
Q 1284 391 1588 391 
Q 1994 391 2212 530 
Q 2431 669 2431 922 
Q 2431 1156 2273 1281 
Q 2116 1406 1581 1522 
L 1381 1569 
Q 847 1681 609 1914 
Q 372 2147 372 2553 
Q 372 3047 722 3315 
Q 1072 3584 1716 3584 
Q 2034 3584 2315 3537 
Q 2597 3491 2834 3397 
z
" transform="scale(0.015625)"/>
     <path id="DejaVuSans-64" d="M 2906 2969 
L 2906 4863 
L 3481 4863 
L 3481 0 
L 2906 0 
L 2906 525 
Q 2725 213 2448 61 
Q 2172 -91 1784 -91 
Q 1150 -91 751 415 
Q 353 922 353 1747 
Q 353 2572 751 3078 
Q 1150 3584 1784 3584 
Q 2172 3584 2448 3432 
Q 2725 3281 2906 2969 
z
M 947 1747 
Q 947 1113 1208 752 
Q 1469 391 1925 391 
Q 2381 391 2643 752 
Q 2906 1113 2906 1747 
Q 2906 2381 2643 2742 
Q 2381 3103 1925 3103 
Q 1469 3103 1208 2742 
Q 947 2381 947 1747 
z
" transform="scale(0.015625)"/>
     <path id="DejaVuSans-77" d="M 269 3500 
L 844 3500 
L 1563 769 
L 2278 3500 
L 2956 3500 
L 3675 769 
L 4391 3500 
L 4966 3500 
L 4050 0 
L 3372 0 
L 2619 2869 
L 1863 0 
L 1184 0 
L 269 3500 
z
" transform="scale(0.015625)"/>
     <path id="DejaVuSans-69" d="M 603 3500 
L 1178 3500 
L 1178 0 
L 603 0 
L 603 3500 
z
M 603 4863 
L 1178 4863 
L 1178 4134 
L 603 4134 
L 603 4863 
z
" transform="scale(0.015625)"/>
     <path id="DejaVuSans-6e" d="M 3513 2113 
L 3513 0 
L 2938 0 
L 2938 2094 
Q 2938 2591 2744 2837 
Q 2550 3084 2163 3084 
Q 1697 3084 1428 2787 
Q 1159 2491 1159 1978 
L 1159 0 
L 581 0 
L 581 3500 
L 1159 3500 
L 1159 2956 
Q 1366 3272 1645 3428 
Q 1925 3584 2291 3584 
Q 2894 3584 3203 3211 
Q 3513 2838 3513 2113 
z
" transform="scale(0.015625)"/>
     <path id="DejaVuSans-70" d="M 1159 525 
L 1159 -1331 
L 581 -1331 
L 581 3500 
L 1159 3500 
L 1159 2969 
Q 1341 3281 1617 3432 
Q 1894 3584 2278 3584 
Q 2916 3584 3314 3078 
Q 3713 2572 3713 1747 
Q 3713 922 3314 415 
Q 2916 -91 2278 -91 
Q 1894 -91 1617 61 
Q 1341 213 1159 525 
z
M 3116 1747 
Q 3116 2381 2855 2742 
Q 2594 3103 2138 3103 
Q 1681 3103 1420 2742 
Q 1159 2381 1159 1747 
Q 1159 1113 1420 752 
Q 1681 391 2138 391 
Q 2594 391 2855 752 
Q 3116 1113 3116 1747 
z
" transform="scale(0.015625)"/>
     <path id="DejaVuSans-66" d="M 2375 4863 
L 2375 4384 
L 1825 4384 
Q 1516 4384 1395 4259 
Q 1275 4134 1275 3809 
L 1275 3500 
L 2222 3500 
L 2222 3053 
L 1275 3053 
L 1275 0 
L 697 0 
L 697 3053 
L 147 3053 
L 147 3500 
L 697 3500 
L 697 3744 
Q 697 4328 969 4595 
Q 1241 4863 1831 4863 
L 2375 4863 
z
" transform="scale(0.015625)"/>
     <path id="DejaVuSans-2d" d="M 313 2009 
L 1997 2009 
L 1997 1497 
L 313 1497 
L 313 2009 
z
" transform="scale(0.015625)"/>
     <path id="DejaVuSans-3d" d="M 678 2906 
L 4684 2906 
L 4684 2381 
L 678 2381 
L 678 2906 
z
M 678 1631 
L 4684 1631 
L 4684 1100 
L 678 1100 
L 678 1631 
z
" transform="scale(0.015625)"/>
    </defs>
    <use xlink:href="#DejaVuSans-41"/>
    <use xlink:href="#DejaVuSans-63" x="66.658203"/>
    <use xlink:href="#DejaVuSans-63" x="121.638672"/>
    <use xlink:href="#DejaVuSans-75" x="176.619141"/>
    <use xlink:href="#DejaVuSans-6d" x="239.998047"/>
    <use xlink:href="#DejaVuSans-75" x="337.410156"/>
    <use xlink:href="#DejaVuSans-6c" x="400.789062"/>
    <use xlink:href="#DejaVuSans-61" x="428.572266"/>
    <use xlink:href="#DejaVuSans-74" x="489.851562"/>
    <use xlink:href="#DejaVuSans-65" x="529.060547"/>
    <use xlink:href="#DejaVuSans-20" x="590.583984"/>
    <use xlink:href="#DejaVuSans-74" x="622.371094"/>
    <use xlink:href="#DejaVuSans-6f" x="661.580078"/>
    <use xlink:href="#DejaVuSans-20" x="722.761719"/>
    <use xlink:href="#DejaVuSans-54" x="754.548828"/>
    <use xlink:href="#DejaVuSans-68" x="815.632812"/>
    <use xlink:href="#DejaVuSans-72" x="879.011719"/>
    <use xlink:href="#DejaVuSans-65" x="917.875"/>
    <use xlink:href="#DejaVuSans-73" x="979.398438"/>
    <use xlink:href="#DejaVuSans-68" x="1031.498047"/>
    <use xlink:href="#DejaVuSans-6f" x="1094.876953"/>
    <use xlink:href="#DejaVuSans-6c" x="1156.058594"/>
    <use xlink:href="#DejaVuSans-64" x="1183.841797"/>
    <use xlink:href="#DejaVuSans-20" x="1247.318359"/>
    <use xlink:href="#DejaVuSans-6d" x="1279.105469"/>
    <use xlink:href="#DejaVuSans-6f" x="1376.517578"/>
    <use xlink:href="#DejaVuSans-64" x="1437.699219"/>
    <use xlink:href="#DejaVuSans-65" x="1501.175781"/>
    <use xlink:href="#DejaVuSans-6c" x="1562.699219"/>
    <use xlink:href="#DejaVuSans-20" x="1590.482422"/>
    <use xlink:href="#DejaVuSans-77" x="1622.269531"/>
    <use xlink:href="#DejaVuSans-69" x="1704.056641"/>
    <use xlink:href="#DejaVuSans-74" x="1731.839844"/>
    <use xlink:href="#DejaVuSans-68" x="1771.048828"/>
    <use xlink:href="#DejaVuSans-20" x="1834.427734"/>
    <use xlink:href="#DejaVuSans-69" x="1866.214844"/>
    <use xlink:href="#DejaVuSans-6e" x="1893.998047"/>
    <use xlink:href="#DejaVuSans-70" x="1957.376953"/>
    <use xlink:href="#DejaVuSans-75" x="2020.853516"/>
    <use xlink:href="#DejaVuSans-74" x="2084.232422"/>
    <use xlink:href="#DejaVuSans-20" x="2123.441406"/>
    <use xlink:href="#DejaVuSans-6f" x="2155.228516"/>
    <use xlink:href="#DejaVuSans-66" x="2216.410156"/>
    <use xlink:href="#DejaVuSans-20" x="2251.615234"/>
    <use xlink:href="#DejaVuSans-2d" x="2283.402344"/>
    <use xlink:href="#DejaVuSans-30" x="2319.486328"/>
    <use xlink:href="#DejaVuSans-2e" x="2383.109375"/>
    <use xlink:href="#DejaVuSans-32" x="2414.896484"/>
    <use xlink:href="#DejaVuSans-20" x="2478.519531"/>
    <use xlink:href="#DejaVuSans-77" x="2510.306641"/>
    <use xlink:href="#DejaVuSans-69" x="2592.09375"/>
    <use xlink:href="#DejaVuSans-74" x="2619.876953"/>
    <use xlink:href="#DejaVuSans-68" x="2659.085938"/>
    <use xlink:href="#DejaVuSans-20" x="2722.464844"/>
    <use xlink:href="#DejaVuSans-72" x="2754.251953"/>
    <use xlink:href="#DejaVuSans-6d" x="2793.615234"/>
    <use xlink:href="#DejaVuSans-73" x="2891.027344"/>
    <use xlink:href="#DejaVuSans-3d" x="2943.126953"/>
    <use xlink:href="#DejaVuSans-35" x="3026.916016"/>
    <use xlink:href="#DejaVuSans-20" x="3090.539062"/>
   </g>
  </g>
 </g>
 <defs>
  <clipPath id="p4c1db6e3e5">
   <rect x="38.482813" y="36" width="334.8" height="217.44"/>
  </clipPath>
 </defs>
</svg>
