<?xml version="1.0" encoding="utf-8" standalone="no"?>
<!DOCTYPE svg PUBLIC "-//W3C//DTD SVG 1.1//EN"
  "http://www.w3.org/Graphics/SVG/1.1/DTD/svg11.dtd">
<svg xmlns:xlink="http://www.w3.org/1999/xlink" width="384.736875pt" height="290.99625pt" viewBox="0 0 384.736875 290.99625" xmlns="http://www.w3.org/2000/svg" version="1.1">
 <metadata>
  <rdf:RDF xmlns:dc="http://purl.org/dc/elements/1.1/" xmlns:cc="http://creativecommons.org/ns#" xmlns:rdf="http://www.w3.org/1999/02/22-rdf-syntax-ns#">
   <cc:Work>
    <dc:type rdf:resource="http://purl.org/dc/dcmitype/StillImage"/>
    <dc:date>2022-11-19T21:30:51.469307</dc:date>
    <dc:format>image/svg+xml</dc:format>
    <dc:creator>
     <cc:Agent>
      <dc:title>Matplotlib v3.6.0, https://matplotlib.org/</dc:title>
     </cc:Agent>
    </dc:creator>
   </cc:Work>
  </rdf:RDF>
 </metadata>
 <defs>
  <style type="text/css">*{stroke-linejoin: round; stroke-linecap: butt}</style>
 </defs>
 <g id="figure_1">
  <g id="patch_1">
   <path d="M 0 290.99625 
L 384.736875 290.99625 
L 384.736875 0 
L 0 0 
L 0 290.99625 
z
" style="fill: none"/>
  </g>
  <g id="axes_1">
   <g id="patch_2">
    <path d="M 30.368437 253.44 
L 365.168437 253.44 
L 365.168437 36 
L 30.368437 36 
z
" style="fill: #ffffff"/>
   </g>
   <g id="matplotlib.axis_1">
    <g id="xtick_1">
     <g id="line2d_1">
      <defs>
       <path id="m0b64837144" d="M 0 0 
L 0 3.5 
" style="stroke: #000000; stroke-width: 0.8"/>
      </defs>
      <g>
       <use xlink:href="#m0b64837144" x="30.368437" y="253.44" style="stroke: #000000; stroke-width: 0.8"/>
      </g>
     </g>
     <g id="text_1">
      <!-- 0.00 -->
      <g transform="translate(19.235625 268.038437) scale(0.1 -0.1)">
       <defs>
        <path id="DejaVuSans-30" d="M 2034 4250 
Q 1547 4250 1301 3770 
Q 1056 3291 1056 2328 
Q 1056 1369 1301 889 
Q 1547 409 2034 409 
Q 2525 409 2770 889 
Q 3016 1369 3016 2328 
Q 3016 3291 2770 3770 
Q 2525 4250 2034 4250 
z
M 2034 4750 
Q 2819 4750 3233 4129 
Q 3647 3509 3647 2328 
Q 3647 1150 3233 529 
Q 2819 -91 2034 -91 
Q 1250 -91 836 529 
Q 422 1150 422 2328 
Q 422 3509 836 4129 
Q 1250 4750 2034 4750 
z
" transform="scale(0.015625)"/>
        <path id="DejaVuSans-2e" d="M 684 794 
L 1344 794 
L 1344 0 
L 684 0 
L 684 794 
z
" transform="scale(0.015625)"/>
       </defs>
       <use xlink:href="#DejaVuSans-30"/>
       <use xlink:href="#DejaVuSans-2e" x="63.623047"/>
       <use xlink:href="#DejaVuSans-30" x="95.410156"/>
       <use xlink:href="#DejaVuSans-30" x="159.033203"/>
      </g>
     </g>
    </g>
    <g id="xtick_2">
     <g id="line2d_2">
      <g>
       <use xlink:href="#m0b64837144" x="72.218437" y="253.44" style="stroke: #000000; stroke-width: 0.8"/>
      </g>
     </g>
     <g id="text_2">
      <!-- 0.25 -->
      <g transform="translate(61.085625 268.038437) scale(0.1 -0.1)">
       <defs>
        <path id="DejaVuSans-32" d="M 1228 531 
L 3431 531 
L 3431 0 
L 469 0 
L 469 531 
Q 828 903 1448 1529 
Q 2069 2156 2228 2338 
Q 2531 2678 2651 2914 
Q 2772 3150 2772 3378 
Q 2772 3750 2511 3984 
Q 2250 4219 1831 4219 
Q 1534 4219 1204 4116 
Q 875 4013 500 3803 
L 500 4441 
Q 881 4594 1212 4672 
Q 1544 4750 1819 4750 
Q 2544 4750 2975 4387 
Q 3406 4025 3406 3419 
Q 3406 3131 3298 2873 
Q 3191 2616 2906 2266 
Q 2828 2175 2409 1742 
Q 1991 1309 1228 531 
z
" transform="scale(0.015625)"/>
        <path id="DejaVuSans-35" d="M 691 4666 
L 3169 4666 
L 3169 4134 
L 1269 4134 
L 1269 2991 
Q 1406 3038 1543 3061 
Q 1681 3084 1819 3084 
Q 2600 3084 3056 2656 
Q 3513 2228 3513 1497 
Q 3513 744 3044 326 
Q 2575 -91 1722 -91 
Q 1428 -91 1123 -41 
Q 819 9 494 109 
L 494 744 
Q 775 591 1075 516 
Q 1375 441 1709 441 
Q 2250 441 2565 725 
Q 2881 1009 2881 1497 
Q 2881 1984 2565 2268 
Q 2250 2553 1709 2553 
Q 1456 2553 1204 2497 
Q 953 2441 691 2322 
L 691 4666 
z
" transform="scale(0.015625)"/>
       </defs>
       <use xlink:href="#DejaVuSans-30"/>
       <use xlink:href="#DejaVuSans-2e" x="63.623047"/>
       <use xlink:href="#DejaVuSans-32" x="95.410156"/>
       <use xlink:href="#DejaVuSans-35" x="159.033203"/>
      </g>
     </g>
    </g>
    <g id="xtick_3">
     <g id="line2d_3">
      <g>
       <use xlink:href="#m0b64837144" x="114.068437" y="253.44" style="stroke: #000000; stroke-width: 0.8"/>
      </g>
     </g>
     <g id="text_3">
      <!-- 0.50 -->
      <g transform="translate(102.935625 268.038437) scale(0.1 -0.1)">
       <use xlink:href="#DejaVuSans-30"/>
       <use xlink:href="#DejaVuSans-2e" x="63.623047"/>
       <use xlink:href="#DejaVuSans-35" x="95.410156"/>
       <use xlink:href="#DejaVuSans-30" x="159.033203"/>
      </g>
     </g>
    </g>
    <g id="xtick_4">
     <g id="line2d_4">
      <g>
       <use xlink:href="#m0b64837144" x="155.918437" y="253.44" style="stroke: #000000; stroke-width: 0.8"/>
      </g>
     </g>
     <g id="text_4">
      <!-- 0.75 -->
      <g transform="translate(144.785625 268.038437) scale(0.1 -0.1)">
       <defs>
        <path id="DejaVuSans-37" d="M 525 4666 
L 3525 4666 
L 3525 4397 
L 1831 0 
L 1172 0 
L 2766 4134 
L 525 4134 
L 525 4666 
z
" transform="scale(0.015625)"/>
       </defs>
       <use xlink:href="#DejaVuSans-30"/>
       <use xlink:href="#DejaVuSans-2e" x="63.623047"/>
       <use xlink:href="#DejaVuSans-37" x="95.410156"/>
       <use xlink:href="#DejaVuSans-35" x="159.033203"/>
      </g>
     </g>
    </g>
    <g id="xtick_5">
     <g id="line2d_5">
      <g>
       <use xlink:href="#m0b64837144" x="197.768437" y="253.44" style="stroke: #000000; stroke-width: 0.8"/>
      </g>
     </g>
     <g id="text_5">
      <!-- 1.00 -->
      <g transform="translate(186.635625 268.038437) scale(0.1 -0.1)">
       <defs>
        <path id="DejaVuSans-31" d="M 794 531 
L 1825 531 
L 1825 4091 
L 703 3866 
L 703 4441 
L 1819 4666 
L 2450 4666 
L 2450 531 
L 3481 531 
L 3481 0 
L 794 0 
L 794 531 
z
" transform="scale(0.015625)"/>
       </defs>
       <use xlink:href="#DejaVuSans-31"/>
       <use xlink:href="#DejaVuSans-2e" x="63.623047"/>
       <use xlink:href="#DejaVuSans-30" x="95.410156"/>
       <use xlink:href="#DejaVuSans-30" x="159.033203"/>
      </g>
     </g>
    </g>
    <g id="xtick_6">
     <g id="line2d_6">
      <g>
       <use xlink:href="#m0b64837144" x="239.618437" y="253.44" style="stroke: #000000; stroke-width: 0.8"/>
      </g>
     </g>
     <g id="text_6">
      <!-- 1.25 -->
      <g transform="translate(228.485625 268.038437) scale(0.1 -0.1)">
       <use xlink:href="#DejaVuSans-31"/>
       <use xlink:href="#DejaVuSans-2e" x="63.623047"/>
       <use xlink:href="#DejaVuSans-32" x="95.410156"/>
       <use xlink:href="#DejaVuSans-35" x="159.033203"/>
      </g>
     </g>
    </g>
    <g id="xtick_7">
     <g id="line2d_7">
      <g>
       <use xlink:href="#m0b64837144" x="281.468437" y="253.44" style="stroke: #000000; stroke-width: 0.8"/>
      </g>
     </g>
     <g id="text_7">
      <!-- 1.50 -->
      <g transform="translate(270.335625 268.038437) scale(0.1 -0.1)">
       <use xlink:href="#DejaVuSans-31"/>
       <use xlink:href="#DejaVuSans-2e" x="63.623047"/>
       <use xlink:href="#DejaVuSans-35" x="95.410156"/>
       <use xlink:href="#DejaVuSans-30" x="159.033203"/>
      </g>
     </g>
    </g>
    <g id="xtick_8">
     <g id="line2d_8">
      <g>
       <use xlink:href="#m0b64837144" x="323.318437" y="253.44" style="stroke: #000000; stroke-width: 0.8"/>
      </g>
     </g>
     <g id="text_8">
      <!-- 1.75 -->
      <g transform="translate(312.185625 268.038437) scale(0.1 -0.1)">
       <use xlink:href="#DejaVuSans-31"/>
       <use xlink:href="#DejaVuSans-2e" x="63.623047"/>
       <use xlink:href="#DejaVuSans-37" x="95.410156"/>
       <use xlink:href="#DejaVuSans-35" x="159.033203"/>
      </g>
     </g>
    </g>
    <g id="xtick_9">
     <g id="line2d_9">
      <g>
       <use xlink:href="#m0b64837144" x="365.168437" y="253.44" style="stroke: #000000; stroke-width: 0.8"/>
      </g>
     </g>
     <g id="text_9">
      <!-- 2.00 -->
      <g transform="translate(354.035625 268.038437) scale(0.1 -0.1)">
       <use xlink:href="#DejaVuSans-32"/>
       <use xlink:href="#DejaVuSans-2e" x="63.623047"/>
       <use xlink:href="#DejaVuSans-30" x="95.410156"/>
       <use xlink:href="#DejaVuSans-30" x="159.033203"/>
      </g>
     </g>
    </g>
    <g id="text_10">
     <!-- $t$ -->
     <g transform="translate(195.768437 281.716562) scale(0.1 -0.1)">
      <defs>
       <path id="DejaVuSans-Oblique-74" d="M 2706 3500 
L 2619 3053 
L 1472 3053 
L 1100 1153 
Q 1081 1047 1072 975 
Q 1063 903 1063 863 
Q 1063 663 1183 572 
Q 1303 481 1569 481 
L 2150 481 
L 2053 0 
L 1503 0 
Q 991 0 739 200 
Q 488 400 488 806 
Q 488 878 497 964 
Q 506 1050 525 1153 
L 897 3053 
L 409 3053 
L 500 3500 
L 978 3500 
L 1172 4494 
L 1747 4494 
L 1556 3500 
L 2706 3500 
z
" transform="scale(0.015625)"/>
      </defs>
      <use xlink:href="#DejaVuSans-Oblique-74" transform="translate(0 0.78125)"/>
     </g>
    </g>
   </g>
   <g id="matplotlib.axis_2">
    <g id="ytick_1">
     <g id="line2d_10">
      <defs>
       <path id="m481e1a39f5" d="M 0 0 
L -3.5 0 
" style="stroke: #000000; stroke-width: 0.8"/>
      </defs>
      <g>
       <use xlink:href="#m481e1a39f5" x="30.368437" y="238.432379" style="stroke: #000000; stroke-width: 0.8"/>
      </g>
     </g>
     <g id="text_11">
      <!-- 0.0 -->
      <g transform="translate(7.465312 242.231598) scale(0.1 -0.1)">
       <use xlink:href="#DejaVuSans-30"/>
       <use xlink:href="#DejaVuSans-2e" x="63.623047"/>
       <use xlink:href="#DejaVuSans-30" x="95.410156"/>
      </g>
     </g>
    </g>
    <g id="ytick_2">
     <g id="line2d_11">
      <g>
       <use xlink:href="#m481e1a39f5" x="30.368437" y="201.469926" style="stroke: #000000; stroke-width: 0.8"/>
      </g>
     </g>
     <g id="text_12">
      <!-- 0.2 -->
      <g transform="translate(7.465312 205.269145) scale(0.1 -0.1)">
       <use xlink:href="#DejaVuSans-30"/>
       <use xlink:href="#DejaVuSans-2e" x="63.623047"/>
       <use xlink:href="#DejaVuSans-32" x="95.410156"/>
      </g>
     </g>
    </g>
    <g id="ytick_3">
     <g id="line2d_12">
      <g>
       <use xlink:href="#m481e1a39f5" x="30.368437" y="164.507473" style="stroke: #000000; stroke-width: 0.8"/>
      </g>
     </g>
     <g id="text_13">
      <!-- 0.4 -->
      <g transform="translate(7.465312 168.306692) scale(0.1 -0.1)">
       <defs>
        <path id="DejaVuSans-34" d="M 2419 4116 
L 825 1625 
L 2419 1625 
L 2419 4116 
z
M 2253 4666 
L 3047 4666 
L 3047 1625 
L 3713 1625 
L 3713 1100 
L 3047 1100 
L 3047 0 
L 2419 0 
L 2419 1100 
L 313 1100 
L 313 1709 
L 2253 4666 
z
" transform="scale(0.015625)"/>
       </defs>
       <use xlink:href="#DejaVuSans-30"/>
       <use xlink:href="#DejaVuSans-2e" x="63.623047"/>
       <use xlink:href="#DejaVuSans-34" x="95.410156"/>
      </g>
     </g>
    </g>
    <g id="ytick_4">
     <g id="line2d_13">
      <g>
       <use xlink:href="#m481e1a39f5" x="30.368437" y="127.54502" style="stroke: #000000; stroke-width: 0.8"/>
      </g>
     </g>
     <g id="text_14">
      <!-- 0.6 -->
      <g transform="translate(7.465312 131.344238) scale(0.1 -0.1)">
       <defs>
        <path id="DejaVuSans-36" d="M 2113 2584 
Q 1688 2584 1439 2293 
Q 1191 2003 1191 1497 
Q 1191 994 1439 701 
Q 1688 409 2113 409 
Q 2538 409 2786 701 
Q 3034 994 3034 1497 
Q 3034 2003 2786 2293 
Q 2538 2584 2113 2584 
z
M 3366 4563 
L 3366 3988 
Q 3128 4100 2886 4159 
Q 2644 4219 2406 4219 
Q 1781 4219 1451 3797 
Q 1122 3375 1075 2522 
Q 1259 2794 1537 2939 
Q 1816 3084 2150 3084 
Q 2853 3084 3261 2657 
Q 3669 2231 3669 1497 
Q 3669 778 3244 343 
Q 2819 -91 2113 -91 
Q 1303 -91 875 529 
Q 447 1150 447 2328 
Q 447 3434 972 4092 
Q 1497 4750 2381 4750 
Q 2619 4750 2861 4703 
Q 3103 4656 3366 4563 
z
" transform="scale(0.015625)"/>
       </defs>
       <use xlink:href="#DejaVuSans-30"/>
       <use xlink:href="#DejaVuSans-2e" x="63.623047"/>
       <use xlink:href="#DejaVuSans-36" x="95.410156"/>
      </g>
     </g>
    </g>
    <g id="ytick_5">
     <g id="line2d_14">
      <g>
       <use xlink:href="#m481e1a39f5" x="30.368437" y="90.582567" style="stroke: #000000; stroke-width: 0.8"/>
      </g>
     </g>
     <g id="text_15">
      <!-- 0.8 -->
      <g transform="translate(7.465312 94.381785) scale(0.1 -0.1)">
       <defs>
        <path id="DejaVuSans-38" d="M 2034 2216 
Q 1584 2216 1326 1975 
Q 1069 1734 1069 1313 
Q 1069 891 1326 650 
Q 1584 409 2034 409 
Q 2484 409 2743 651 
Q 3003 894 3003 1313 
Q 3003 1734 2745 1975 
Q 2488 2216 2034 2216 
z
M 1403 2484 
Q 997 2584 770 2862 
Q 544 3141 544 3541 
Q 544 4100 942 4425 
Q 1341 4750 2034 4750 
Q 2731 4750 3128 4425 
Q 3525 4100 3525 3541 
Q 3525 3141 3298 2862 
Q 3072 2584 2669 2484 
Q 3125 2378 3379 2068 
Q 3634 1759 3634 1313 
Q 3634 634 3220 271 
Q 2806 -91 2034 -91 
Q 1263 -91 848 271 
Q 434 634 434 1313 
Q 434 1759 690 2068 
Q 947 2378 1403 2484 
z
M 1172 3481 
Q 1172 3119 1398 2916 
Q 1625 2713 2034 2713 
Q 2441 2713 2670 2916 
Q 2900 3119 2900 3481 
Q 2900 3844 2670 4047 
Q 2441 4250 2034 4250 
Q 1625 4250 1398 4047 
Q 1172 3844 1172 3481 
z
" transform="scale(0.015625)"/>
       </defs>
       <use xlink:href="#DejaVuSans-30"/>
       <use xlink:href="#DejaVuSans-2e" x="63.623047"/>
       <use xlink:href="#DejaVuSans-38" x="95.410156"/>
      </g>
     </g>
    </g>
    <g id="ytick_6">
     <g id="line2d_15">
      <g>
       <use xlink:href="#m481e1a39f5" x="30.368437" y="53.620113" style="stroke: #000000; stroke-width: 0.8"/>
      </g>
     </g>
     <g id="text_16">
      <!-- 1.0 -->
      <g transform="translate(7.465312 57.419332) scale(0.1 -0.1)">
       <use xlink:href="#DejaVuSans-31"/>
       <use xlink:href="#DejaVuSans-2e" x="63.623047"/>
       <use xlink:href="#DejaVuSans-30" x="95.410156"/>
      </g>
     </g>
    </g>
   </g>
   <g id="line2d_16">
    <path d="M 30.535837 238.432379 
L 30.703237 235.28603 
L 30.870637 235.190603 
L 31.038037 237.393249 
L 31.205437 236.223136 
L 31.372837 233.797319 
L 31.540237 239.335334 
L 31.707637 236.77445 
L 31.875037 236.896693 
L 32.209837 234.435115 
L 32.377237 235.963185 
L 32.544637 233.229284 
L 32.712037 235.031841 
L 32.879437 233.794883 
L 33.046837 235.425148 
L 33.214237 243.556364 
L 33.381637 243.068752 
L 33.549037 230.1716 
L 33.716437 231.09402 
L 33.883837 230.934807 
L 34.051237 238.307578 
L 34.386037 230.124788 
L 34.553437 229.910469 
L 34.720837 230.770896 
L 34.888237 228.1447 
L 35.055637 238.908149 
L 35.223037 230.616478 
L 35.390437 234.830888 
L 35.557837 231.681915 
L 35.725237 235.540954 
L 36.227437 224.326724 
L 36.394837 231.40784 
L 36.562237 230.609147 
L 36.729637 230.976494 
L 36.897037 234.035015 
L 37.064437 231.467562 
L 37.231837 233.517542 
L 37.399237 233.046569 
L 37.566637 230.326795 
L 37.734037 222.166324 
L 37.901437 225.820683 
L 38.068837 233.40388 
L 38.236237 225.96436 
L 38.403637 226.829368 
L 38.571037 229.148065 
L 38.738437 233.594397 
L 38.905837 225.3862 
L 39.073237 228.521859 
L 39.240637 236.910549 
L 39.408037 235.111904 
L 39.575437 219.556979 
L 39.742837 223.129414 
L 39.910237 230.447297 
L 40.077637 229.85796 
L 40.412437 222.932309 
L 40.747237 225.976299 
L 40.914637 225.442503 
L 41.082037 223.371995 
L 41.416837 227.931857 
L 41.584237 227.455931 
L 41.751637 222.655518 
L 41.919037 223.629937 
L 42.086437 225.38376 
L 42.253837 223.602932 
L 42.588637 231.866407 
L 42.923437 218.848591 
L 43.090837 227.175489 
L 43.258237 224.598872 
L 43.425637 224.704823 
L 43.593037 222.472969 
L 43.760437 226.258803 
L 44.095237 216.32495 
L 44.262637 227.13618 
L 44.597437 228.788323 
L 44.932237 222.895986 
L 45.099637 223.977485 
L 45.267037 222.479156 
L 45.434437 215.916802 
L 45.601837 223.55211 
L 45.936637 227.782567 
L 46.104037 219.903831 
L 46.271437 218.407806 
L 46.606237 226.88847 
L 46.773637 218.087981 
L 46.941037 222.736688 
L 47.108437 222.43617 
L 47.275837 221.368992 
L 47.443237 219.505991 
L 47.778037 227.238802 
L 47.945437 220.317513 
L 48.112837 220.791112 
L 48.280237 224.881666 
L 48.615037 213.906163 
L 49.117237 225.309581 
L 49.284637 218.867337 
L 49.452037 221.630222 
L 49.619437 218.063993 
L 49.786837 217.332664 
L 49.954237 214.10598 
L 50.121637 221.647578 
L 50.289037 217.705821 
L 50.456437 217.051995 
L 50.623837 218.107982 
L 50.958637 223.685854 
L 51.293437 216.929777 
L 51.460837 225.353895 
L 51.628237 222.492158 
L 51.795637 213.104762 
L 51.963037 211.850578 
L 52.130437 223.465785 
L 52.297837 222.215247 
L 52.465237 216.474642 
L 52.800037 219.662304 
L 52.967437 215.97125 
L 53.134837 216.190366 
L 53.302237 222.380262 
L 53.469637 214.767192 
L 53.804437 218.059966 
L 53.971837 219.526485 
L 54.139237 217.366553 
L 54.306637 218.541853 
L 54.474037 218.738346 
L 54.808837 214.380145 
L 54.976237 219.986722 
L 55.143637 209.115268 
L 55.311037 214.213119 
L 55.478437 213.768386 
L 55.645837 212.022068 
L 55.813237 214.149019 
L 55.980637 219.035939 
L 56.148037 218.940424 
L 56.315437 211.755625 
L 56.650237 213.526548 
L 56.817637 210.683465 
L 56.985037 216.048964 
L 57.152437 214.729475 
L 57.319837 203.277049 
L 57.487237 214.114087 
L 57.989437 210.719459 
L 58.156837 211.920458 
L 58.491637 208.546631 
L 58.659037 216.177742 
L 58.826437 211.467826 
L 58.993837 214.409867 
L 59.161237 214.991128 
L 59.328637 216.997961 
L 59.496037 207.377002 
L 59.663437 206.536311 
L 59.830837 215.712927 
L 59.998237 206.092331 
L 60.165637 211.667836 
L 60.500437 212.292418 
L 60.667837 203.395077 
L 61.002637 215.721854 
L 61.170037 208.386377 
L 61.337437 212.373698 
L 61.504837 206.858054 
L 61.839637 212.513898 
L 62.007037 210.472766 
L 62.174437 213.070955 
L 62.341837 208.016361 
L 62.509237 207.884366 
L 62.676637 201.212258 
L 62.844037 206.99662 
L 63.011437 207.27157 
L 63.178837 211.967316 
L 63.346237 210.401287 
L 63.513637 202.940897 
L 63.681037 205.833413 
L 63.848437 202.984892 
L 64.015837 206.575136 
L 64.183237 202.639025 
L 64.350637 210.646885 
L 64.685437 206.455756 
L 64.852837 199.842575 
L 65.187637 209.979774 
L 65.355037 200.768736 
L 65.689837 210.091947 
L 65.857237 208.178439 
L 66.024637 201.839189 
L 66.192037 202.566662 
L 66.359437 202.036934 
L 66.526837 204.969731 
L 66.694237 201.633844 
L 66.861637 201.359247 
L 67.029037 201.43767 
L 67.196437 202.988334 
L 67.363837 207.376559 
L 67.698637 202.818001 
L 67.866037 204.835326 
L 68.033437 204.204451 
L 68.200837 198.204131 
L 68.368237 203.921345 
L 68.535637 204.653644 
L 68.870437 195.95859 
L 69.037837 198.77271 
L 69.205237 197.630107 
L 69.372637 202.012688 
L 69.540037 202.723651 
L 69.707437 202.498364 
L 69.874837 199.214823 
L 70.042237 200.272395 
L 70.209637 204.853741 
L 70.544437 197.096162 
L 70.711837 203.133549 
L 70.879237 196.626658 
L 71.214037 194.436659 
L 71.381437 197.354406 
L 71.716237 192.568275 
L 71.883637 195.926666 
L 72.051037 195.684659 
L 72.218437 196.696974 
L 72.385837 202.465236 
L 72.720637 194.789442 
L 72.888037 197.688804 
L 73.055437 202.999556 
L 73.222837 195.0951 
L 73.390237 195.614321 
L 73.557637 193.671055 
L 73.725037 200.291259 
L 74.227237 188.7666 
L 74.394637 189.556865 
L 74.729437 192.445823 
L 74.896837 200.030166 
L 75.231637 191.224917 
L 75.399037 186.823265 
L 75.733837 194.59049 
L 75.901237 186.953042 
L 76.068637 186.948399 
L 76.236037 188.503869 
L 76.403437 192.443879 
L 76.570837 193.294574 
L 76.738237 188.568375 
L 76.905637 191.811613 
L 77.240437 187.818491 
L 77.407837 189.927686 
L 77.575237 198.474038 
L 77.910037 186.635303 
L 78.077437 186.382219 
L 78.244837 185.218183 
L 78.412237 189.340841 
L 78.579637 184.010816 
L 78.914437 191.794199 
L 79.081837 188.189961 
L 79.249237 181.892693 
L 79.416637 188.253951 
L 79.584037 186.525548 
L 79.918837 192.281711 
L 80.253637 180.536946 
L 80.421037 181.832729 
L 80.588437 190.043248 
L 80.755837 188.82686 
L 80.923237 181.302695 
L 81.258037 185.127753 
L 81.425437 185.932188 
L 81.592837 184.060468 
L 81.760237 185.292109 
L 81.927637 183.656153 
L 82.095037 186.434976 
L 82.262437 184.654215 
L 82.429837 187.006001 
L 82.597237 185.417776 
L 82.764637 180.686466 
L 82.932037 180.218506 
L 83.099437 182.786801 
L 83.266837 188.299429 
L 83.434237 178.928604 
L 83.769037 187.928362 
L 83.936437 183.378516 
L 84.103837 175.649956 
L 84.271237 178.103315 
L 84.438637 176.476997 
L 84.606037 188.913643 
L 84.773437 184.254471 
L 84.940837 186.383719 
L 85.108237 172.95235 
L 85.275637 180.316825 
L 85.777837 188.903707 
L 86.112637 178.007105 
L 86.447437 180.102338 
L 86.614837 173.949052 
L 86.949637 186.318689 
L 87.284437 178.598021 
L 87.619237 184.601192 
L 87.786637 176.828621 
L 87.954037 177.037765 
L 88.121437 178.53391 
L 88.288837 176.600435 
L 88.623637 180.94063 
L 88.791037 184.622731 
L 89.125837 170.811502 
L 89.293237 171.353316 
L 89.460637 183.394175 
L 89.628037 180.868124 
L 89.795437 174.250512 
L 90.130237 182.481426 
L 90.297637 170.694583 
L 90.465037 174.074904 
L 90.632437 181.059462 
L 90.799837 179.434681 
L 90.967237 174.16274 
L 91.134637 178.877522 
L 91.302037 176.748016 
L 91.636837 179.880353 
L 91.804237 180.79568 
L 91.971637 171.160244 
L 92.139037 169.613551 
L 92.473837 179.939676 
L 92.641237 181.805066 
L 92.808637 175.129044 
L 92.976037 176.837683 
L 93.143437 176.882664 
L 93.478237 167.656198 
L 93.645637 170.363118 
L 93.813037 181.707852 
L 93.980437 173.268526 
L 94.147837 180.439165 
L 94.315237 174.739152 
L 94.482637 174.460374 
L 94.650037 172.373699 
L 94.817437 172.51909 
L 94.984837 169.571646 
L 95.152237 176.284142 
L 95.319637 175.376686 
L 95.487037 175.47652 
L 95.821837 166.759025 
L 95.989237 170.143925 
L 96.156637 176.64243 
L 96.324037 178.202026 
L 96.491437 169.09045 
L 96.658837 168.572236 
L 96.826237 174.004793 
L 96.993637 175.690269 
L 97.161037 169.021688 
L 97.328437 175.096301 
L 97.495837 176.092177 
L 97.663237 165.691975 
L 97.830637 162.821189 
L 97.998037 175.343319 
L 98.165437 176.074803 
L 98.332837 172.365822 
L 98.500237 172.752531 
L 98.667637 168.288554 
L 98.835037 168.95523 
L 99.002437 171.719937 
L 99.169837 170.661301 
L 99.337237 166.479065 
L 99.504637 174.439832 
L 99.672037 168.273277 
L 99.839437 167.046544 
L 100.006837 173.349263 
L 100.341637 169.802545 
L 100.509037 172.624736 
L 100.676437 162.449118 
L 101.011237 174.162415 
L 101.346037 164.619691 
L 101.513437 166.277602 
L 101.680837 172.548383 
L 101.848237 170.465454 
L 102.015637 163.004944 
L 102.183037 163.762972 
L 102.350437 173.658977 
L 102.685237 166.430948 
L 102.852637 167.764307 
L 103.020037 167.148312 
L 103.187437 164.179011 
L 103.354837 166.74573 
L 103.522237 166.903375 
L 103.689637 167.505878 
L 103.857037 170.32295 
L 104.024437 168.5474 
L 104.191837 162.968218 
L 104.359237 163.143282 
L 104.526637 166.244558 
L 104.694037 176.982658 
L 104.861437 162.79781 
L 105.028837 162.56577 
L 105.196237 164.669004 
L 105.363637 172.2968 
L 105.531037 158.767588 
L 105.698437 167.0733 
L 105.865837 168.525438 
L 106.033237 166.83837 
L 106.200637 161.896491 
L 106.368037 160.714689 
L 106.535437 164.704129 
L 106.702837 164.020812 
L 106.870237 161.901944 
L 107.037637 162.232608 
L 107.205037 171.542074 
L 107.372437 168.067973 
L 107.539837 158.513997 
L 107.707237 158.180051 
L 107.874637 163.36326 
L 108.042037 164.574027 
L 108.209437 161.814102 
L 108.376837 162.324132 
L 108.711637 156.532948 
L 109.046437 162.107107 
L 109.213837 169.943712 
L 109.381237 158.067077 
L 109.716037 161.251861 
L 109.883437 162.925595 
L 110.050838 160.705663 
L 110.218237 162.780438 
L 110.385637 161.798875 
L 110.553037 155.281291 
L 110.720437 162.585703 
L 110.887837 162.780724 
L 111.055237 156.427994 
L 111.222637 158.567501 
L 111.390037 154.6788 
L 111.557437 162.135494 
L 111.724837 161.544839 
L 112.059637 152.680681 
L 112.227037 158.111069 
L 112.394437 157.158961 
L 112.561837 152.027112 
L 112.729237 160.001944 
L 112.896637 156.422283 
L 113.064037 159.718803 
L 113.231437 157.834153 
L 113.398837 157.643699 
L 113.733637 155.201931 
L 113.901037 158.728875 
L 114.068437 154.737211 
L 114.235837 160.197458 
L 114.403237 156.441473 
L 114.570637 157.821636 
L 114.738037 155.018766 
L 114.905437 156.700266 
L 115.072837 156.364943 
L 115.240237 153.571865 
L 115.407637 160.802702 
L 115.575037 157.486504 
L 115.742437 148.70256 
L 116.077237 155.490506 
L 116.244637 161.033364 
L 116.412037 154.195129 
L 116.579437 157.913298 
L 116.746837 153.763336 
L 116.914237 156.675441 
L 117.081637 154.275907 
L 117.249037 148.944135 
L 117.416437 154.038941 
L 117.583837 153.17395 
L 117.751237 156.759552 
L 117.918637 153.545594 
L 118.086037 156.612592 
L 118.253437 152.277016 
L 118.588237 157.226987 
L 118.755637 157.69236 
L 118.923037 153.857647 
L 119.090437 153.983796 
L 119.257837 155.863236 
L 119.425237 148.913764 
L 119.592637 151.758594 
L 119.760037 157.460073 
L 119.927437 159.327646 
L 120.094837 156.62731 
L 120.262237 157.291642 
L 120.429637 148.06388 
L 120.597037 156.578447 
L 120.764437 151.780033 
L 120.931838 155.866656 
L 121.099238 154.576557 
L 121.266637 151.258125 
L 121.434037 151.003793 
L 121.601437 149.309242 
L 121.768837 151.362526 
L 121.936237 150.195863 
L 122.103637 159.8037 
L 122.271037 156.020573 
L 122.438437 159.104115 
L 122.605837 148.479588 
L 122.773237 156.163131 
L 122.940637 147.938211 
L 123.275437 152.80046 
L 123.442837 153.060733 
L 123.610237 145.588097 
L 123.945037 156.467622 
L 124.112437 154.961387 
L 124.279837 148.413258 
L 124.782038 157.955937 
L 124.949438 150.871595 
L 125.116838 154.259446 
L 125.284238 150.215776 
L 125.451638 150.907714 
L 125.619038 144.498492 
L 125.953837 149.325558 
L 126.121237 148.476511 
L 126.288637 152.705688 
L 126.456037 150.124579 
L 126.790837 150.979641 
L 126.958237 143.942047 
L 127.125637 143.994316 
L 127.293037 152.727345 
L 127.460437 152.975864 
L 127.795237 145.321677 
L 127.962637 145.431495 
L 128.130037 151.94005 
L 128.297437 144.748894 
L 128.464837 149.11205 
L 128.632237 147.415003 
L 128.799637 146.966838 
L 128.967037 151.08528 
L 129.134437 148.359282 
L 129.301837 154.58444 
L 129.469237 144.563485 
L 129.636637 144.840169 
L 129.804037 144.43032 
L 129.971437 147.933151 
L 130.138837 148.432579 
L 130.306237 151.982534 
L 130.473637 151.50874 
L 130.641037 143.690437 
L 130.808437 143.378805 
L 130.975837 151.50828 
L 131.143237 152.146252 
L 131.310637 142.839471 
L 131.645437 150.500118 
L 131.812837 148.070298 
L 131.980237 143.520703 
L 132.147637 146.574201 
L 132.315037 143.704398 
L 132.482437 146.562052 
L 132.649837 146.524605 
L 132.817237 151.14896 
L 132.984637 144.754602 
L 133.152037 148.072832 
L 133.486837 143.059897 
L 133.654237 146.981291 
L 133.821637 144.532896 
L 133.989037 145.541642 
L 134.156437 143.793112 
L 134.323837 139.123041 
L 134.491237 150.193188 
L 134.993437 143.180511 
L 135.160837 149.236162 
L 135.328237 146.156664 
L 135.495637 140.478009 
L 135.663037 147.986052 
L 135.830437 144.852214 
L 135.997837 145.442186 
L 136.165237 139.011235 
L 136.332637 142.286626 
L 136.500037 143.119476 
L 136.667437 143.272353 
L 136.834837 140.67078 
L 137.002237 145.415212 
L 137.169637 140.630231 
L 137.337037 145.820831 
L 137.671837 142.220519 
L 137.839237 140.681826 
L 138.006637 143.29128 
L 138.174037 137.08625 
L 138.508837 147.524698 
L 138.676237 140.043753 
L 138.843637 139.652812 
L 139.011037 144.069798 
L 139.178437 142.621552 
L 139.345837 139.553891 
L 139.513237 130.418288 
L 139.680637 141.942703 
L 139.848037 143.399759 
L 140.015437 143.029765 
L 140.182837 143.497299 
L 140.350237 138.799718 
L 140.517637 138.511851 
L 140.685037 139.606135 
L 140.852437 142.099976 
L 141.019837 149.452775 
L 141.187237 143.211612 
L 141.354637 143.450259 
L 141.689437 136.524769 
L 141.856837 140.834936 
L 142.024237 137.955542 
L 142.191637 131.111542 
L 142.359037 135.938495 
L 142.526437 144.047154 
L 142.693838 136.660405 
L 142.861237 134.527316 
L 143.028638 138.891485 
L 143.363437 135.290362 
L 143.530837 135.867725 
L 143.865637 143.294704 
L 144.200437 138.539582 
L 144.367837 149.154169 
L 144.535237 135.240795 
L 144.702637 138.561066 
L 144.870037 138.326714 
L 145.037437 130.738586 
L 145.372237 136.963503 
L 145.539637 136.121885 
L 145.707037 137.101333 
L 145.874437 143.424013 
L 146.041837 137.872362 
L 146.209238 137.318481 
L 146.544038 128.863993 
L 146.711437 134.987871 
L 146.878838 134.271026 
L 147.046237 135.135945 
L 147.213638 140.530757 
L 147.381037 140.026505 
L 147.548438 140.245431 
L 147.883238 129.392633 
L 148.050637 141.382332 
L 148.218037 137.708862 
L 148.385437 130.224143 
L 148.552837 133.606041 
L 148.720237 140.555125 
L 148.887637 131.44649 
L 149.222437 143.238972 
L 149.389837 128.783708 
L 149.557237 128.924088 
L 149.724637 135.281303 
L 149.892037 132.683053 
L 150.059437 135.055946 
L 150.226837 132.16278 
L 150.561637 136.195628 
L 150.729037 128.094986 
L 150.896437 136.368094 
L 151.063837 129.865392 
L 151.566037 138.871293 
L 151.900837 131.933634 
L 152.068237 136.521674 
L 152.235637 132.150011 
L 152.403037 138.278563 
L 152.737837 128.371217 
L 152.905237 131.577882 
L 153.072637 131.13175 
L 153.240037 124.546372 
L 153.407437 132.936913 
L 153.574837 130.351374 
L 153.742237 129.805263 
L 153.909637 140.056577 
L 154.077037 137.758388 
L 154.244437 128.188433 
L 154.411837 130.230517 
L 154.579237 129.978509 
L 154.746637 124.811506 
L 154.914037 129.332402 
L 155.081437 127.297129 
L 155.248837 132.17113 
L 155.416237 133.371231 
L 155.583637 130.579476 
L 155.751037 139.926968 
L 156.085837 126.581765 
L 156.253237 132.197944 
L 156.588037 128.079468 
L 156.755437 130.789232 
L 156.922837 129.072944 
L 157.090237 135.242927 
L 157.257637 130.293288 
L 157.759837 134.797505 
L 157.927237 130.451787 
L 158.094637 131.933583 
L 158.429437 121.105444 
L 158.596837 128.267492 
L 158.764237 128.953841 
L 158.931637 130.142825 
L 159.099037 125.735257 
L 159.266437 127.994356 
L 159.433837 126.588826 
L 159.601237 131.100079 
L 159.768637 124.563056 
L 159.936037 124.310623 
L 160.270837 131.991551 
L 160.438237 130.498781 
L 160.605637 126.191547 
L 160.773037 126.149195 
L 160.940437 128.148336 
L 161.107837 121.55724 
L 161.275237 126.599474 
L 161.442637 123.310113 
L 161.610037 124.579847 
L 161.777437 127.01009 
L 161.944837 127.536264 
L 162.112237 123.309232 
L 162.447037 131.945068 
L 162.614437 117.780983 
L 162.781837 123.881736 
L 162.949237 123.135582 
L 163.116637 123.260463 
L 163.284037 124.703911 
L 163.618837 130.296151 
L 163.786237 119.416563 
L 163.953637 125.570381 
L 164.121037 124.384768 
L 164.288437 121.690196 
L 164.623237 132.081952 
L 164.790637 123.583509 
L 164.958037 122.23215 
L 165.125437 124.974071 
L 165.292837 121.924604 
L 165.460237 114.766477 
L 165.795037 127.09192 
L 166.129837 115.647205 
L 166.297237 120.811095 
L 166.632037 122.840031 
L 166.799437 122.817386 
L 166.966837 130.759932 
L 167.134237 121.615972 
L 167.301637 120.312187 
L 167.469037 131.55281 
L 167.636437 116.303584 
L 167.803837 114.660566 
L 167.971237 120.488289 
L 168.138637 118.023535 
L 168.306037 119.981368 
L 168.473437 118.458908 
L 168.808237 126.067975 
L 168.975637 115.091364 
L 169.143037 122.398978 
L 169.310437 116.316498 
L 169.477837 116.946373 
L 169.645237 115.079918 
L 169.812637 120.250701 
L 169.980037 119.636881 
L 170.314837 115.781465 
L 170.482237 116.972935 
L 170.649637 123.386186 
L 170.817037 118.062834 
L 170.984437 116.713877 
L 171.151837 123.606726 
L 171.319237 116.758193 
L 171.486637 117.998636 
L 171.654037 121.713356 
L 171.988837 115.995295 
L 172.156237 124.637961 
L 172.323637 114.882996 
L 172.825837 123.817296 
L 173.160637 109.798048 
L 173.495437 123.510457 
L 173.662837 106.738952 
L 173.997637 120.596743 
L 174.165037 119.558788 
L 174.332437 115.704321 
L 174.499837 119.491173 
L 174.667237 113.321981 
L 174.834637 115.817629 
L 175.002037 111.872768 
L 175.169437 115.576914 
L 175.336837 115.966539 
L 175.504237 111.369463 
L 175.671637 111.906472 
L 175.839037 115.060681 
L 176.006437 112.229733 
L 176.173837 111.538545 
L 176.341237 108.179313 
L 176.508637 111.021686 
L 176.676037 116.496534 
L 176.843437 111.864726 
L 177.010837 111.09026 
L 177.178237 115.406286 
L 177.345637 111.290457 
L 177.513037 116.604922 
L 177.680437 116.318414 
L 177.847837 111.135092 
L 178.015237 115.707595 
L 178.182637 114.093099 
L 178.350037 106.673321 
L 178.517437 112.49813 
L 178.684837 113.594581 
L 178.852237 105.357992 
L 179.354437 114.944526 
L 179.521837 112.305425 
L 179.689237 112.269633 
L 179.856637 115.261866 
L 180.024037 108.177175 
L 180.191437 113.482258 
L 180.358837 112.390988 
L 180.526237 113.402152 
L 180.693637 106.368196 
L 181.028437 114.097031 
L 181.195837 105.404384 
L 181.363237 107.45583 
L 181.530637 113.301889 
L 181.698037 110.165773 
L 181.865437 103.830341 
L 182.032837 113.668178 
L 182.367637 107.173631 
L 182.702437 117.353367 
L 182.869837 103.687382 
L 183.037237 103.381644 
L 183.204637 105.72433 
L 183.372037 111.144255 
L 183.539437 108.978299 
L 183.874237 114.678524 
L 184.041637 105.507864 
L 184.376437 111.163759 
L 184.543837 106.386375 
L 184.711237 107.169576 
L 184.878637 113.312226 
L 185.046037 103.769144 
L 185.715637 113.614658 
L 185.883037 109.440833 
L 186.050437 111.599308 
L 186.217837 101.743236 
L 186.385237 102.983626 
L 186.552637 113.11845 
L 186.887437 100.763922 
L 187.222237 108.577865 
L 187.389637 106.474901 
L 187.557037 105.956556 
L 187.891837 102.93965 
L 188.059237 102.761263 
L 188.561437 111.379345 
L 188.728837 102.344599 
L 188.896237 103.799761 
L 189.063637 109.45494 
L 189.231037 103.023364 
L 189.398438 111.72118 
L 189.733238 98.760261 
L 189.900637 103.26834 
L 190.068037 96.990653 
L 190.235437 106.505364 
L 190.402837 104.51607 
L 190.570237 98.413133 
L 190.905037 106.224556 
L 191.072437 104.004062 
L 191.239837 97.07804 
L 191.574637 109.782843 
L 191.742037 102.668862 
L 191.909437 102.660589 
L 192.076837 98.001931 
L 192.244237 100.217924 
L 192.411637 99.505038 
L 192.579037 103.848003 
L 192.913837 99.324788 
L 193.248637 106.145983 
L 193.416037 97.167255 
L 193.583437 105.939002 
L 193.918237 97.029703 
L 194.085637 99.803891 
L 194.253037 96.582263 
L 194.420437 98.980625 
L 194.587837 94.546794 
L 194.755237 103.177965 
L 194.922637 97.656462 
L 195.257437 101.667507 
L 195.592237 96.410595 
L 195.759637 100.307805 
L 195.927037 99.772175 
L 196.094437 97.027697 
L 196.261837 100.111206 
L 196.429237 100.41241 
L 196.596637 96.189002 
L 196.764037 97.20822 
L 196.931437 99.586883 
L 197.098837 93.588897 
L 197.266237 95.627001 
L 197.433637 101.771336 
L 197.601037 94.655912 
L 197.935837 101.363499 
L 198.103237 101.327384 
L 198.438037 95.290397 
L 198.605437 96.085454 
L 198.772837 90.887406 
L 199.107637 99.999729 
L 199.275037 92.629695 
L 199.442437 94.03275 
L 199.609837 103.553779 
L 199.777237 102.32374 
L 199.944637 92.818473 
L 200.112037 95.234267 
L 200.279438 95.262071 
L 200.446837 93.359068 
L 200.614238 101.411794 
L 200.781637 96.969676 
L 200.949038 89.086297 
L 201.283838 93.757221 
L 201.451237 94.964722 
L 201.618638 100.695987 
L 201.786037 96.235529 
L 201.953437 97.565045 
L 202.120837 90.274681 
L 202.288237 91.268039 
L 202.455637 97.373446 
L 202.623037 91.042769 
L 202.790437 91.394614 
L 202.957837 95.097713 
L 203.125237 89.473135 
L 203.460037 100.487398 
L 203.627437 85.531765 
L 203.962237 95.277905 
L 204.129637 92.597824 
L 204.297037 96.966591 
L 204.631837 89.439866 
L 204.799237 93.175349 
L 204.966637 88.482728 
L 205.134037 87.805332 
L 205.301437 94.920044 
L 205.468837 86.338066 
L 205.636237 92.931317 
L 205.803637 94.429088 
L 205.971037 91.168937 
L 206.138437 93.311263 
L 206.305837 91.61721 
L 206.473237 96.97663 
L 206.808037 90.8393 
L 206.975437 98.472155 
L 207.142837 95.805515 
L 207.310237 82.296339 
L 207.477637 97.154648 
L 207.645037 94.315417 
L 207.812437 83.878875 
L 207.979837 91.006234 
L 208.147237 92.823352 
L 208.314637 87.516781 
L 208.482037 91.299882 
L 208.649437 91.721273 
L 208.816837 87.405129 
L 208.984237 87.55958 
L 209.151637 92.33599 
L 209.319037 85.094525 
L 209.486437 91.21103 
L 209.821237 94.572913 
L 209.988637 85.262229 
L 210.323437 89.558291 
L 210.490837 84.346476 
L 210.825637 92.078286 
L 210.993037 83.649175 
L 211.160438 86.403993 
L 211.327837 98.530011 
L 211.662637 82.269069 
L 211.830038 88.79038 
L 211.997437 87.167762 
L 212.164837 88.535252 
L 212.332237 90.830156 
L 212.667037 83.10814 
L 212.834437 89.549602 
L 213.001837 90.668931 
L 213.336637 81.609797 
L 213.504037 91.844334 
L 213.671437 91.010006 
L 213.838837 81.929876 
L 214.006237 90.000581 
L 214.173637 86.500015 
L 214.341037 79.696637 
L 214.508437 91.849728 
L 214.843237 77.980246 
L 215.010637 87.86854 
L 215.178037 88.951672 
L 215.512837 80.927935 
L 215.680237 89.001383 
L 215.847637 88.169819 
L 216.015037 82.417233 
L 216.182437 86.82726 
L 216.349837 85.549306 
L 216.517237 81.728967 
L 216.684637 91.2275 
L 216.852037 82.200338 
L 217.186837 89.784318 
L 217.354237 80.066071 
L 217.689037 94.304442 
L 218.023837 79.694714 
L 218.358637 87.360808 
L 218.860838 81.278706 
L 219.028237 86.171008 
L 219.195638 84.760666 
L 219.363037 85.761929 
L 219.530438 79.849958 
L 219.865238 84.746085 
L 220.032637 83.522442 
L 220.200038 85.056022 
L 220.367437 77.75339 
L 220.534838 79.38488 
L 220.702237 85.912974 
L 220.869638 75.375264 
L 221.371837 84.076981 
L 221.539237 79.013096 
L 221.706637 81.636537 
L 221.874037 82.11587 
L 222.041437 80.008374 
L 222.208837 84.792614 
L 222.376237 85.335675 
L 222.543637 78.730845 
L 222.711037 85.828627 
L 222.878437 81.717545 
L 223.213237 80.16108 
L 223.548037 87.103354 
L 223.715437 76.023951 
L 223.882837 77.934939 
L 224.050237 82.872883 
L 224.217637 81.525366 
L 224.385037 75.694391 
L 224.552437 85.503451 
L 224.719837 75.155084 
L 224.887237 76.586458 
L 225.054637 86.839084 
L 225.222037 76.077134 
L 225.389437 84.571079 
L 225.724237 77.873054 
L 226.059037 82.060261 
L 226.226437 74.812251 
L 226.561237 77.942826 
L 226.896037 74.648669 
L 227.063437 76.415713 
L 227.230837 74.640377 
L 227.565637 82.151534 
L 227.733037 80.755597 
L 227.900437 74.646223 
L 228.235237 80.383982 
L 228.402637 75.21314 
L 228.570037 81.218649 
L 228.737437 72.572719 
L 228.904837 74.315167 
L 229.072237 78.703638 
L 229.239637 70.417452 
L 229.407037 81.162955 
L 229.574437 82.767926 
L 229.741837 73.431604 
L 229.909237 81.770532 
L 230.076637 73.194476 
L 230.244037 74.153509 
L 230.411437 82.351405 
L 230.746237 70.049152 
L 230.913637 71.470985 
L 231.248437 79.661953 
L 231.415837 70.144219 
L 231.583237 71.625325 
L 231.750637 83.542712 
L 231.918037 73.505194 
L 232.085437 78.058738 
L 232.420237 67.49434 
L 232.587637 78.745347 
L 232.755037 76.041225 
L 232.922437 67.946575 
L 233.089837 71.719853 
L 233.257237 69.324082 
L 233.592037 72.958837 
L 233.759437 72.811693 
L 233.926837 67.469936 
L 234.094237 67.633668 
L 234.261637 71.742884 
L 234.429037 71.843881 
L 234.596437 75.517809 
L 234.763837 69.06455 
L 234.931237 68.600613 
L 235.098637 70.219165 
L 235.266037 76.618484 
L 235.433437 69.544701 
L 235.600837 67.342628 
L 235.768237 71.071846 
L 235.935637 66.808294 
L 236.103037 66.955017 
L 236.270437 71.442634 
L 236.437838 64.049382 
L 236.605237 66.769332 
L 236.772638 75.156336 
L 236.940037 63.522237 
L 237.107438 66.481253 
L 237.274837 74.435296 
L 237.609637 68.357308 
L 237.944437 71.282433 
L 238.111838 74.529818 
L 238.279237 67.144118 
L 238.446638 70.236227 
L 238.614037 69.383768 
L 238.781437 65.414341 
L 238.948837 68.085153 
L 239.283637 69.569361 
L 239.451037 69.306932 
L 239.618437 64.92768 
L 239.785837 68.085263 
L 239.953237 65.373348 
L 240.120637 65.376336 
L 240.288037 68.897634 
L 240.455437 64.100448 
L 240.622837 65.376149 
L 240.790237 73.084283 
L 240.957637 59.181956 
L 241.125037 66.691826 
L 241.292437 68.232862 
L 241.459837 61.113932 
L 241.627237 70.225724 
L 241.794637 68.372487 
L 241.962037 62.136251 
L 242.129437 69.773096 
L 242.296837 68.52292 
L 242.464237 64.508137 
L 242.631637 64.681896 
L 242.799037 70.11854 
L 243.133837 62.337146 
L 243.301237 66.806064 
L 243.468637 63.373687 
L 243.636037 62.42166 
L 243.803438 72.457776 
L 243.970837 62.639764 
L 244.138238 60.628835 
L 244.305637 73.810486 
L 244.473038 59.323506 
L 244.807837 71.403175 
L 244.975237 57.129752 
L 245.142637 68.113148 
L 245.477437 59.146253 
L 245.644837 66.925893 
L 245.812237 66.040234 
L 245.979637 61.970172 
L 246.147037 66.125794 
L 246.314437 66.51348 
L 246.481837 62.640111 
L 246.816637 65.504924 
L 246.984037 62.908526 
L 247.151437 63.857525 
L 247.318837 68.565056 
L 247.486237 59.335821 
L 247.653637 61.061608 
L 247.821037 70.0753 
L 247.988437 66.29004 
L 248.155837 57.416903 
L 248.323237 64.966335 
L 248.490637 64.861182 
L 248.658037 58.550948 
L 248.992837 69.03021 
L 249.160237 60.449675 
L 249.495037 69.361558 
L 249.662437 57.956449 
L 249.997237 68.652106 
L 250.164637 57.092412 
L 250.499437 68.421411 
L 250.666837 58.108383 
L 250.834237 64.53613 
L 251.001637 65.906922 
L 251.169037 58.72271 
L 251.503837 63.25594 
L 251.671237 58.030397 
L 252.006037 66.80759 
L 252.173437 61.904702 
L 252.340837 61.239833 
L 252.508237 65.540129 
L 252.675637 56.805949 
L 252.843037 60.672589 
L 253.010437 69.032024 
L 253.177837 60.089611 
L 253.345237 63.393953 
L 253.512637 62.714498 
L 253.680037 59.150659 
L 253.847437 63.169859 
L 254.014837 62.68422 
L 254.182237 59.776898 
L 254.349638 60.957043 
L 254.517037 63.879456 
L 254.851837 56.478397 
L 255.019238 62.206983 
L 255.186637 63.271257 
L 255.354038 55.147869 
L 255.521437 65.25925 
L 255.856237 55.013906 
L 256.023638 64.274091 
L 256.191037 61.102589 
L 256.358437 61.375315 
L 256.525837 55.55804 
L 256.693238 61.245372 
L 256.860637 62.612902 
L 257.028037 61.705289 
L 257.195437 61.994236 
L 257.530237 59.414049 
L 257.697637 62.928251 
L 257.865037 63.403262 
L 258.032438 55.42147 
L 258.367237 63.609179 
L 258.534637 58.95148 
L 258.702038 58.552338 
L 258.869438 60.152756 
L 259.036837 67.102677 
L 259.204237 57.934633 
L 259.371638 65.340733 
L 259.539038 65.545048 
L 259.706437 55.418302 
L 260.041238 64.377842 
L 260.208638 60.410765 
L 260.376037 60.531472 
L 260.543437 59.191405 
L 260.710838 60.1956 
L 260.878238 59.717964 
L 261.045637 62.817544 
L 261.213037 58.102272 
L 261.380438 57.42762 
L 261.547838 60.631448 
L 261.715238 58.558982 
L 261.882637 58.456408 
L 262.050038 64.877222 
L 262.217438 57.059218 
L 262.384838 57.974849 
L 262.552237 60.726559 
L 262.719638 60.240348 
L 262.887038 56.398596 
L 263.389238 65.607981 
L 263.556638 53.093113 
L 263.724038 59.942939 
L 263.891437 56.700738 
L 264.058838 63.309551 
L 264.226237 63.545843 
L 264.393638 51.994568 
L 264.561037 63.031242 
L 264.728438 61.137538 
L 264.895837 54.890688 
L 265.063238 66.754604 
L 265.230638 55.203552 
L 265.565437 65.401913 
L 265.732838 59.312309 
L 265.900238 60.653062 
L 266.067637 64.688701 
L 266.235037 52.167562 
L 266.402437 64.665236 
L 266.569838 61.113371 
L 266.737237 52.160562 
L 267.072037 65.625789 
L 267.239438 57.728067 
L 267.406837 64.942889 
L 267.741637 55.176059 
L 267.909038 61.992916 
L 268.076437 62.239982 
L 268.243837 56.519643 
L 268.411237 63.135832 
L 268.578638 55.824483 
L 268.746037 57.983708 
L 268.913437 64.097418 
L 269.080837 55.869389 
L 269.248238 54.548686 
L 269.415638 65.182261 
L 269.583037 62.338383 
L 269.750437 52.215222 
L 269.917838 59.687503 
L 270.085238 59.860012 
L 270.252637 57.775156 
L 270.420037 60.772366 
L 270.587438 59.554938 
L 270.754838 50.220841 
L 270.922237 66.447884 
L 271.257038 53.322218 
L 271.424438 65.384712 
L 271.759237 54.607568 
L 271.926638 62.461274 
L 272.094037 60.755505 
L 272.261437 60.209953 
L 272.428837 56.175347 
L 272.763637 64.809144 
L 272.931038 53.786684 
L 273.265838 62.760064 
L 273.433237 53.559907 
L 273.600638 63.066955 
L 273.768037 50.549952 
L 274.102837 66.180075 
L 274.270238 56.656705 
L 274.437637 58.834445 
L 274.605037 50.91244 
L 274.939838 64.531162 
L 275.107237 49.405556 
L 275.274637 59.640328 
L 275.442037 57.598318 
L 275.609438 57.87693 
L 275.776837 59.363001 
L 275.944237 55.877184 
L 276.111637 57.298774 
L 276.279038 63.377611 
L 276.446438 57.067905 
L 276.613837 56.040352 
L 276.781237 60.824125 
L 276.948638 60.850497 
L 277.283437 55.489724 
L 277.450837 60.372087 
L 277.785638 55.191323 
L 277.953037 61.388781 
L 278.120437 56.490373 
L 278.287838 60.422964 
L 278.455238 59.996144 
L 278.622637 56.322755 
L 278.790037 59.5381 
L 278.957438 56.785891 
L 279.292237 61.11375 
L 279.459637 55.245346 
L 279.627038 57.872233 
L 279.794438 57.592283 
L 279.961838 59.727872 
L 280.129237 57.607678 
L 280.296638 57.855873 
L 280.464038 54.598741 
L 280.966238 60.811317 
L 281.133638 54.867239 
L 281.301038 59.002879 
L 281.468437 60.064036 
L 281.635838 60.070276 
L 281.803237 53.713789 
L 281.970638 61.863996 
L 282.305438 56.750829 
L 282.472837 62.327134 
L 282.640238 55.023417 
L 282.807637 56.18327 
L 282.975037 63.615315 
L 283.142437 55.424071 
L 283.309838 56.19372 
L 283.477238 61.998605 
L 283.644637 50.75349 
L 283.812037 61.155065 
L 283.979438 62.650368 
L 284.146838 50.884589 
L 284.314237 56.807652 
L 284.481637 57.733694 
L 284.649038 57.30165 
L 284.816438 58.16156 
L 284.983837 60.729386 
L 285.151237 51.721134 
L 285.318638 60.696721 
L 285.486038 62.388295 
L 285.653437 59.44452 
L 285.820837 51.078976 
L 285.988238 61.578658 
L 286.155638 60.091351 
L 286.323037 54.592762 
L 286.490437 60.614643 
L 286.657838 56.223924 
L 286.992638 63.847025 
L 287.160037 51.528616 
L 287.494837 61.048862 
L 287.662237 57.30439 
L 287.829637 60.008147 
L 287.997037 59.527838 
L 288.164437 54.389757 
L 288.499237 60.815477 
L 288.834037 55.221227 
L 289.001437 60.360041 
L 289.168837 56.490492 
L 289.336237 59.965432 
L 289.503637 58.835812 
L 289.671037 54.524992 
L 290.005837 57.664099 
L 290.173237 57.312758 
L 290.340637 58.614277 
L 290.508038 56.021415 
L 290.675437 57.273 
L 290.842837 62.779933 
L 291.010237 59.542684 
L 291.177638 53.202842 
L 291.512437 58.937221 
L 291.679837 57.440819 
L 291.847238 57.009166 
L 292.014637 58.984376 
L 292.182037 58.111147 
L 292.349437 60.90696 
L 292.516838 56.003049 
L 292.684237 54.731161 
L 292.851637 59.018302 
L 293.019037 55.477479 
L 293.186438 58.291155 
L 293.353837 63.35321 
L 293.521237 53.393234 
L 293.856038 61.83471 
L 294.023438 50.340806 
L 294.190837 60.193137 
L 294.525638 50.970305 
L 294.693037 64.112873 
L 294.860437 55.036255 
L 295.027837 52.569887 
L 295.362637 59.284724 
L 295.530037 59.902593 
L 295.864837 56.333346 
L 296.032237 59.768122 
L 296.199637 58.267283 
L 296.367037 61.653133 
L 296.534437 49.077828 
L 296.869237 62.291542 
L 297.036637 61.288663 
L 297.204037 55.774236 
L 297.371437 54.876411 
L 297.706237 61.371785 
L 297.873637 55.605018 
L 298.041037 56.531695 
L 298.208438 54.512969 
L 298.543237 59.748258 
L 298.710637 50.92397 
L 299.045437 59.911311 
L 299.212837 48.748906 
L 299.380237 59.935465 
L 299.547638 60.658535 
L 299.715037 49.217065 
L 300.049837 64.216797 
L 300.217238 54.595596 
L 300.552037 58.269511 
L 300.719437 58.712863 
L 300.886838 60.080438 
L 301.221637 54.294789 
L 301.389037 59.322211 
L 301.556438 57.742101 
L 301.723838 58.754472 
L 301.891237 54.438362 
L 302.058637 53.478232 
L 302.226038 60.390414 
L 302.560837 50.776594 
L 302.728237 62.958962 
L 302.895638 55.384996 
L 303.063038 55.89753 
L 303.230437 58.824617 
L 303.397837 53.941144 
L 303.565238 55.444703 
L 303.732637 60.287364 
L 303.900037 57.803392 
L 304.067437 52.47388 
L 304.402237 60.304686 
L 304.569637 49.554449 
L 304.737037 59.002319 
L 304.904438 61.495958 
L 305.071837 52.065752 
L 305.406637 61.208765 
L 305.574037 55.743121 
L 305.741437 60.551431 
L 305.908838 52.410076 
L 306.076237 56.373843 
L 306.243637 63.866455 
L 306.411037 53.25387 
L 306.745837 58.277421 
L 306.913237 60.839217 
L 307.248038 52.094419 
L 307.415437 57.991216 
L 307.582837 53.665692 
L 307.750237 59.86368 
L 307.917638 57.782609 
L 308.085037 48.508361 
L 308.419837 62.556264 
L 308.587238 52.64745 
L 308.754638 58.263007 
L 308.922037 54.03373 
L 309.089437 55.781525 
L 309.256837 59.668669 
L 309.424238 53.43288 
L 309.759037 59.681905 
L 309.926437 53.012344 
L 310.093838 57.218789 
L 310.261237 54.200556 
L 310.428637 60.502823 
L 310.763438 51.262379 
L 310.930837 60.995219 
L 311.098237 58.671544 
L 311.265637 47.440832 
L 311.433038 61.58247 
L 311.600437 59.314059 
L 311.767837 47.254889 
L 311.935237 60.32473 
L 312.102638 54.974563 
L 312.270037 53.740064 
L 312.604837 57.509779 
L 312.772238 51.884194 
L 312.939637 61.344143 
L 313.107037 60.131853 
L 313.274437 49.717703 
L 313.441837 58.046403 
L 313.776637 52.409183 
L 313.944037 58.503019 
L 314.111437 54.302334 
L 314.278837 55.064716 
L 314.446237 57.065629 
L 314.613637 55.861791 
L 314.781037 52.34317 
L 314.948437 56.266276 
L 315.115837 56.474292 
L 315.283237 54.739911 
L 315.618037 58.896512 
L 315.785438 54.956641 
L 315.952837 55.565066 
L 316.287637 62.997641 
L 316.622437 54.061428 
L 316.789837 61.911421 
L 316.957237 58.447667 
L 317.124638 57.690086 
L 317.292037 59.735763 
L 317.459437 50.070552 
L 317.626837 60.576697 
L 317.961637 48.530772 
L 318.129037 60.116623 
L 318.296437 59.513452 
L 318.463838 51.840318 
L 318.631237 58.500664 
L 318.966037 53.00151 
L 319.133438 59.014477 
L 319.300838 56.290943 
L 319.468237 55.440306 
L 319.635637 57.309372 
L 319.803038 56.621263 
L 319.970438 57.730102 
L 320.137837 54.371025 
L 320.305237 56.249374 
L 320.472638 52.70504 
L 320.640038 57.286168 
L 320.807437 57.749581 
L 320.974837 58.799322 
L 321.309637 52.66487 
L 321.477037 56.269699 
L 321.644437 57.10596 
L 321.979237 55.193307 
L 322.146637 54.156525 
L 322.314037 58.541283 
L 322.481437 54.701805 
L 322.816237 54.339986 
L 322.983637 57.7728 
L 323.151037 58.409256 
L 323.318437 54.349532 
L 323.485838 53.397056 
L 323.653237 62.040675 
L 323.820637 55.487203 
L 323.988037 53.639786 
L 324.155438 58.745413 
L 324.657637 53.465594 
L 324.825038 58.954957 
L 324.992437 58.411683 
L 325.159837 51.270688 
L 325.494638 57.541103 
L 325.662037 52.977241 
L 325.829437 58.816693 
L 325.996837 51.710351 
L 326.164238 51.584745 
L 326.331637 62.705417 
L 326.499037 53.415602 
L 326.666437 55.868409 
L 326.833838 52.972394 
L 327.001238 57.290563 
L 327.168637 56.172655 
L 327.336037 53.694681 
L 327.670838 61.303748 
L 327.838237 54.545277 
L 328.005637 59.588444 
L 328.173038 47.669954 
L 328.340438 60.129213 
L 328.507837 59.552742 
L 328.675237 50.74955 
L 328.842638 61.169217 
L 329.177437 51.222484 
L 329.344837 62.408845 
L 329.512238 52.372234 
L 329.679638 59.172279 
L 329.847037 56.39973 
L 330.014437 50.683854 
L 330.181838 61.816001 
L 330.516637 50.583566 
L 330.684037 58.881801 
L 331.018837 51.677065 
L 331.186237 57.794163 
L 331.353637 56.215426 
L 331.521037 52.495853 
L 331.688437 54.119954 
L 331.855837 54.374622 
L 332.023237 52.012342 
L 332.358037 62.492779 
L 332.525437 48.083984 
L 332.692837 60.613264 
L 332.860237 60.249132 
L 333.027637 51.524802 
L 333.195037 59.033189 
L 333.362437 59.345639 
L 333.529837 52.853124 
L 333.697237 58.643202 
L 334.032038 51.471686 
L 334.199437 60.041233 
L 334.366837 59.031431 
L 334.534237 50.202554 
L 334.701638 57.474332 
L 335.036437 57.797307 
L 335.203837 53.488673 
L 335.538637 59.033357 
L 335.706037 55.277598 
L 335.873437 55.169193 
L 336.040838 53.040819 
L 336.375637 61.38668 
L 336.543037 57.674224 
L 336.710438 48.897531 
L 336.877837 60.15428 
L 337.045237 54.138333 
L 337.212637 54.272355 
L 337.380038 57.831669 
L 337.547438 51.454798 
L 337.882237 60.062697 
L 338.049638 55.140374 
L 338.217038 56.347508 
L 338.384437 52.96891 
L 338.719238 56.610349 
L 338.886637 54.848405 
L 339.054037 55.362775 
L 339.221437 58.649338 
L 339.723637 52.476588 
L 340.058437 57.701085 
L 340.225837 54.152075 
L 340.393237 57.709421 
L 340.560637 55.608779 
L 340.728037 56.557102 
L 340.895437 59.8522 
L 341.062838 51.707941 
L 341.230237 57.243721 
L 341.397637 57.893114 
L 341.565037 54.211432 
L 341.732438 54.398345 
L 341.899837 58.500664 
L 342.067237 55.863049 
L 342.234637 57.567099 
L 342.402038 51.095832 
L 342.569437 58.34238 
L 342.904237 55.60046 
L 343.239037 57.56832 
L 343.406437 56.828443 
L 343.741238 53.015599 
L 343.908637 53.70105 
L 344.243437 60.946799 
L 344.410838 45.883636 
L 344.745637 67.106694 
L 344.913037 53.149582 
L 345.080438 57.001121 
L 345.247838 51.96174 
L 345.415237 54.230932 
L 345.582637 62.414538 
L 345.917438 52.551649 
L 346.084837 52.575734 
L 346.252237 60.322812 
L 346.419638 53.450765 
L 346.587038 54.919784 
L 346.754437 59.055423 
L 346.921837 55.826628 
L 347.089238 57.766239 
L 347.256638 55.116869 
L 347.424037 48.141506 
L 347.591437 60.351842 
L 347.926237 51.571388 
L 348.093637 58.410942 
L 348.261037 49.424621 
L 348.428438 59.7116 
L 348.595837 60.736332 
L 348.763238 50.907947 
L 348.930637 57.713266 
L 349.265437 54.556683 
L 349.432838 59.800289 
L 349.767637 50.687833 
L 349.935037 58.952245 
L 350.102438 54.810067 
L 350.269837 55.315291 
L 350.437237 57.208668 
L 350.604637 56.35797 
L 350.772038 56.223392 
L 350.939437 55.145913 
L 351.106837 60.670034 
L 351.274237 53.144709 
L 351.441638 55.370018 
L 351.609037 62.212125 
L 351.776437 48.638139 
L 352.111237 60.939234 
L 352.278638 49.680899 
L 352.446037 59.123907 
L 352.613437 61.451155 
L 352.780837 54.434875 
L 352.948238 54.030934 
L 353.115637 57.13953 
L 353.283037 55.804342 
L 353.450437 57.812817 
L 353.617838 57.076522 
L 353.785237 49.404094 
L 353.952637 52.692156 
L 354.120037 61.826501 
L 354.287438 51.997022 
L 354.454837 51.632001 
L 354.622237 62.321286 
L 354.957038 53.460449 
L 355.124437 55.446108 
L 355.291837 52.989877 
L 355.626638 59.675662 
L 355.794037 50.649143 
L 355.961437 51.093243 
L 356.128837 58.379614 
L 356.463637 51.691057 
L 356.631037 53.957782 
L 356.798437 53.674863 
L 356.965838 63.472823 
L 357.300637 52.611443 
L 357.468037 57.942748 
L 357.802837 55.014303 
L 357.970237 56.34004 
L 358.137637 55.585038 
L 358.305037 58.677796 
L 358.472437 52.291913 
L 358.639837 57.602877 
L 358.974637 51.071676 
L 359.142037 61.313547 
L 359.309438 53.126829 
L 359.476837 56.264468 
L 359.644237 55.436117 
L 359.811637 51.546153 
L 359.979038 57.904276 
L 360.146437 57.598215 
L 360.313837 50.951407 
L 360.481237 58.611222 
L 360.648638 51.506224 
L 360.983437 58.979799 
L 361.150837 52.93245 
L 361.485637 57.295064 
L 361.653037 55.27917 
L 361.820437 55.088646 
L 361.987838 51.352675 
L 362.155237 58.344266 
L 362.322637 53.430415 
L 362.490037 58.189391 
L 362.824838 56.408981 
L 362.992237 54.062823 
L 363.159637 56.609445 
L 363.327038 56.270965 
L 363.494438 54.095742 
L 363.661837 53.657134 
L 363.829237 58.052352 
L 363.996638 52.293795 
L 364.164038 57.239634 
L 364.331437 55.143035 
L 364.498837 50.347994 
L 364.833638 58.133469 
L 365.001037 49.585111 
L 365.168437 55.65187 
L 365.168437 55.65187 
" clip-path="url(#pad05500a44)" style="fill: none; stroke: #1f77b4; stroke-width: 1.5; stroke-linecap: square"/>
   </g>
   <g id="line2d_17">
    <path d="M 30.535837 238.432379 
L 31.205437 232.339489 
L 31.875037 228.255303 
L 32.544637 225.517591 
L 33.214237 223.682448 
L 33.883837 222.452315 
L 34.553437 221.627732 
L 35.390437 220.968049 
L 36.394837 220.509237 
L 37.566637 220.228289 
L 39.408037 220.043404 
L 43.090837 219.961374 
L 63.848437 219.951153 
L 365.168437 219.951153 
L 365.168437 219.951153 
" clip-path="url(#pad05500a44)" style="fill: none; stroke: #ff7f0e; stroke-width: 1.5; stroke-linecap: square"/>
   </g>
   <g id="patch_3">
    <path d="M 30.368437 253.44 
L 30.368437 36 
" style="fill: none; stroke: #000000; stroke-width: 0.8; stroke-linejoin: miter; stroke-linecap: square"/>
   </g>
   <g id="patch_4">
    <path d="M 365.168437 253.44 
L 365.168437 36 
" style="fill: none; stroke: #000000; stroke-width: 0.8; stroke-linejoin: miter; stroke-linecap: square"/>
   </g>
   <g id="patch_5">
    <path d="M 30.368437 253.44 
L 365.168437 253.44 
" style="fill: none; stroke: #000000; stroke-width: 0.8; stroke-linejoin: miter; stroke-linecap: square"/>
   </g>
   <g id="patch_6">
    <path d="M 30.368437 36 
L 365.168437 36 
" style="fill: none; stroke: #000000; stroke-width: 0.8; stroke-linejoin: miter; stroke-linecap: square"/>
   </g>
   <g id="legend_1">
    <g id="patch_7">
     <path d="M 37.368437 77.078125 
L 87.068437 77.078125 
Q 89.068437 77.078125 89.068437 75.078125 
L 89.068437 43 
Q 89.068437 41 87.068437 41 
L 37.368437 41 
Q 35.368437 41 35.368437 43 
L 35.368437 75.078125 
Q 35.368437 77.078125 37.368437 77.078125 
z
" style="fill: #ffffff; opacity: 0.8; stroke: #cccccc; stroke-linejoin: miter"/>
    </g>
    <g id="line2d_18">
     <path d="M 39.368437 52.8 
L 49.368437 52.8 
L 59.368437 52.8 
" style="fill: none; stroke: #1f77b4; stroke-width: 1.5; stroke-linecap: square"/>
    </g>
    <g id="text_17">
     <!-- $\hat{y(t)}$ -->
     <g transform="translate(67.368437 56.3) scale(0.1 -0.1)">
      <defs>
       <path id="DejaVuSans-302" d="M -1831 5119 
L -1369 5119 
L -603 3944 
L -1038 3944 
L -1600 4709 
L -2163 3944 
L -2597 3944 
L -1831 5119 
z
M -1600 3584 
L -1600 3584 
z
" transform="scale(0.015625)"/>
       <path id="DejaVuSans-Oblique-79" d="M 1588 -325 
Q 1188 -997 936 -1164 
Q 684 -1331 294 -1331 
L -159 -1331 
L -63 -850 
L 269 -850 
Q 509 -850 678 -719 
Q 847 -588 1056 -206 
L 1234 128 
L 459 3500 
L 1069 3500 
L 1650 819 
L 3256 3500 
L 3859 3500 
L 1588 -325 
z
" transform="scale(0.015625)"/>
       <path id="DejaVuSans-28" d="M 1984 4856 
Q 1566 4138 1362 3434 
Q 1159 2731 1159 2009 
Q 1159 1288 1364 580 
Q 1569 -128 1984 -844 
L 1484 -844 
Q 1016 -109 783 600 
Q 550 1309 550 2009 
Q 550 2706 781 3412 
Q 1013 4119 1484 4856 
L 1984 4856 
z
" transform="scale(0.015625)"/>
       <path id="DejaVuSans-29" d="M 513 4856 
L 1013 4856 
Q 1481 4119 1714 3412 
Q 1947 2706 1947 2009 
Q 1947 1309 1714 600 
Q 1481 -109 1013 -844 
L 513 -844 
Q 928 -128 1133 580 
Q 1338 1288 1338 2009 
Q 1338 2731 1133 3434 
Q 928 4138 513 4856 
z
" transform="scale(0.015625)"/>
      </defs>
      <use xlink:href="#DejaVuSans-302" transform="translate(135.682129 33.015625)"/>
      <use xlink:href="#DejaVuSans-Oblique-79" transform="translate(0 0.640625)"/>
      <use xlink:href="#DejaVuSans-28" transform="translate(59.179688 0.640625)"/>
      <use xlink:href="#DejaVuSans-Oblique-74" transform="translate(98.193359 0.640625)"/>
      <use xlink:href="#DejaVuSans-29" transform="translate(137.402344 0.640625)"/>
     </g>
    </g>
    <g id="line2d_19">
     <path d="M 39.368437 67.498437 
L 49.368437 67.498437 
L 59.368437 67.498437 
" style="fill: none; stroke: #ff7f0e; stroke-width: 1.5; stroke-linecap: square"/>
    </g>
    <g id="text_18">
     <!-- $x(t)$ -->
     <g transform="translate(67.368437 70.998437) scale(0.1 -0.1)">
      <defs>
       <path id="DejaVuSans-Oblique-78" d="M 3841 3500 
L 2234 1784 
L 3219 0 
L 2559 0 
L 1819 1388 
L 531 0 
L -166 0 
L 1556 1844 
L 641 3500 
L 1300 3500 
L 1972 2234 
L 3144 3500 
L 3841 3500 
z
" transform="scale(0.015625)"/>
      </defs>
      <use xlink:href="#DejaVuSans-Oblique-78" transform="translate(0 0.125)"/>
      <use xlink:href="#DejaVuSans-28" transform="translate(59.179688 0.125)"/>
      <use xlink:href="#DejaVuSans-Oblique-74" transform="translate(98.193359 0.125)"/>
      <use xlink:href="#DejaVuSans-29" transform="translate(137.402344 0.125)"/>
     </g>
    </g>
   </g>
  </g>
  <g id="text_19">
   <!-- Accumulate to Threshold model with input of 0.1 with rms=3  -->
   <g transform="translate(7.2 16.318125) scale(0.12 -0.12)">
    <defs>
     <path id="DejaVuSans-41" d="M 2188 4044 
L 1331 1722 
L 3047 1722 
L 2188 4044 
z
M 1831 4666 
L 2547 4666 
L 4325 0 
L 3669 0 
L 3244 1197 
L 1141 1197 
L 716 0 
L 50 0 
L 1831 4666 
z
" transform="scale(0.015625)"/>
     <path id="DejaVuSans-63" d="M 3122 3366 
L 3122 2828 
Q 2878 2963 2633 3030 
Q 2388 3097 2138 3097 
Q 1578 3097 1268 2742 
Q 959 2388 959 1747 
Q 959 1106 1268 751 
Q 1578 397 2138 397 
Q 2388 397 2633 464 
Q 2878 531 3122 666 
L 3122 134 
Q 2881 22 2623 -34 
Q 2366 -91 2075 -91 
Q 1284 -91 818 406 
Q 353 903 353 1747 
Q 353 2603 823 3093 
Q 1294 3584 2113 3584 
Q 2378 3584 2631 3529 
Q 2884 3475 3122 3366 
z
" transform="scale(0.015625)"/>
     <path id="DejaVuSans-75" d="M 544 1381 
L 544 3500 
L 1119 3500 
L 1119 1403 
Q 1119 906 1312 657 
Q 1506 409 1894 409 
Q 2359 409 2629 706 
Q 2900 1003 2900 1516 
L 2900 3500 
L 3475 3500 
L 3475 0 
L 2900 0 
L 2900 538 
Q 2691 219 2414 64 
Q 2138 -91 1772 -91 
Q 1169 -91 856 284 
Q 544 659 544 1381 
z
M 1991 3584 
L 1991 3584 
z
" transform="scale(0.015625)"/>
     <path id="DejaVuSans-6d" d="M 3328 2828 
Q 3544 3216 3844 3400 
Q 4144 3584 4550 3584 
Q 5097 3584 5394 3201 
Q 5691 2819 5691 2113 
L 5691 0 
L 5113 0 
L 5113 2094 
Q 5113 2597 4934 2840 
Q 4756 3084 4391 3084 
Q 3944 3084 3684 2787 
Q 3425 2491 3425 1978 
L 3425 0 
L 2847 0 
L 2847 2094 
Q 2847 2600 2669 2842 
Q 2491 3084 2119 3084 
Q 1678 3084 1418 2786 
Q 1159 2488 1159 1978 
L 1159 0 
L 581 0 
L 581 3500 
L 1159 3500 
L 1159 2956 
Q 1356 3278 1631 3431 
Q 1906 3584 2284 3584 
Q 2666 3584 2933 3390 
Q 3200 3197 3328 2828 
z
" transform="scale(0.015625)"/>
     <path id="DejaVuSans-6c" d="M 603 4863 
L 1178 4863 
L 1178 0 
L 603 0 
L 603 4863 
z
" transform="scale(0.015625)"/>
     <path id="DejaVuSans-61" d="M 2194 1759 
Q 1497 1759 1228 1600 
Q 959 1441 959 1056 
Q 959 750 1161 570 
Q 1363 391 1709 391 
Q 2188 391 2477 730 
Q 2766 1069 2766 1631 
L 2766 1759 
L 2194 1759 
z
M 3341 1997 
L 3341 0 
L 2766 0 
L 2766 531 
Q 2569 213 2275 61 
Q 1981 -91 1556 -91 
Q 1019 -91 701 211 
Q 384 513 384 1019 
Q 384 1609 779 1909 
Q 1175 2209 1959 2209 
L 2766 2209 
L 2766 2266 
Q 2766 2663 2505 2880 
Q 2244 3097 1772 3097 
Q 1472 3097 1187 3025 
Q 903 2953 641 2809 
L 641 3341 
Q 956 3463 1253 3523 
Q 1550 3584 1831 3584 
Q 2591 3584 2966 3190 
Q 3341 2797 3341 1997 
z
" transform="scale(0.015625)"/>
     <path id="DejaVuSans-74" d="M 1172 4494 
L 1172 3500 
L 2356 3500 
L 2356 3053 
L 1172 3053 
L 1172 1153 
Q 1172 725 1289 603 
Q 1406 481 1766 481 
L 2356 481 
L 2356 0 
L 1766 0 
Q 1100 0 847 248 
Q 594 497 594 1153 
L 594 3053 
L 172 3053 
L 172 3500 
L 594 3500 
L 594 4494 
L 1172 4494 
z
" transform="scale(0.015625)"/>
     <path id="DejaVuSans-65" d="M 3597 1894 
L 3597 1613 
L 953 1613 
Q 991 1019 1311 708 
Q 1631 397 2203 397 
Q 2534 397 2845 478 
Q 3156 559 3463 722 
L 3463 178 
Q 3153 47 2828 -22 
Q 2503 -91 2169 -91 
Q 1331 -91 842 396 
Q 353 884 353 1716 
Q 353 2575 817 3079 
Q 1281 3584 2069 3584 
Q 2775 3584 3186 3129 
Q 3597 2675 3597 1894 
z
M 3022 2063 
Q 3016 2534 2758 2815 
Q 2500 3097 2075 3097 
Q 1594 3097 1305 2825 
Q 1016 2553 972 2059 
L 3022 2063 
z
" transform="scale(0.015625)"/>
     <path id="DejaVuSans-20" transform="scale(0.015625)"/>
     <path id="DejaVuSans-6f" d="M 1959 3097 
Q 1497 3097 1228 2736 
Q 959 2375 959 1747 
Q 959 1119 1226 758 
Q 1494 397 1959 397 
Q 2419 397 2687 759 
Q 2956 1122 2956 1747 
Q 2956 2369 2687 2733 
Q 2419 3097 1959 3097 
z
M 1959 3584 
Q 2709 3584 3137 3096 
Q 3566 2609 3566 1747 
Q 3566 888 3137 398 
Q 2709 -91 1959 -91 
Q 1206 -91 779 398 
Q 353 888 353 1747 
Q 353 2609 779 3096 
Q 1206 3584 1959 3584 
z
" transform="scale(0.015625)"/>
     <path id="DejaVuSans-54" d="M -19 4666 
L 3928 4666 
L 3928 4134 
L 2272 4134 
L 2272 0 
L 1638 0 
L 1638 4134 
L -19 4134 
L -19 4666 
z
" transform="scale(0.015625)"/>
     <path id="DejaVuSans-68" d="M 3513 2113 
L 3513 0 
L 2938 0 
L 2938 2094 
Q 2938 2591 2744 2837 
Q 2550 3084 2163 3084 
Q 1697 3084 1428 2787 
Q 1159 2491 1159 1978 
L 1159 0 
L 581 0 
L 581 4863 
L 1159 4863 
L 1159 2956 
Q 1366 3272 1645 3428 
Q 1925 3584 2291 3584 
Q 2894 3584 3203 3211 
Q 3513 2838 3513 2113 
z
" transform="scale(0.015625)"/>
     <path id="DejaVuSans-72" d="M 2631 2963 
Q 2534 3019 2420 3045 
Q 2306 3072 2169 3072 
Q 1681 3072 1420 2755 
Q 1159 2438 1159 1844 
L 1159 0 
L 581 0 
L 581 3500 
L 1159 3500 
L 1159 2956 
Q 1341 3275 1631 3429 
Q 1922 3584 2338 3584 
Q 2397 3584 2469 3576 
Q 2541 3569 2628 3553 
L 2631 2963 
z
" transform="scale(0.015625)"/>
     <path id="DejaVuSans-73" d="M 2834 3397 
L 2834 2853 
Q 2591 2978 2328 3040 
Q 2066 3103 1784 3103 
Q 1356 3103 1142 2972 
Q 928 2841 928 2578 
Q 928 2378 1081 2264 
Q 1234 2150 1697 2047 
L 1894 2003 
Q 2506 1872 2764 1633 
Q 3022 1394 3022 966 
Q 3022 478 2636 193 
Q 2250 -91 1575 -91 
Q 1294 -91 989 -36 
Q 684 19 347 128 
L 347 722 
Q 666 556 975 473 
Q 1284 391 1588 391 
Q 1994 391 2212 530 
Q 2431 669 2431 922 
Q 2431 1156 2273 1281 
Q 2116 1406 1581 1522 
L 1381 1569 
Q 847 1681 609 1914 
Q 372 2147 372 2553 
Q 372 3047 722 3315 
Q 1072 3584 1716 3584 
Q 2034 3584 2315 3537 
Q 2597 3491 2834 3397 
z
" transform="scale(0.015625)"/>
     <path id="DejaVuSans-64" d="M 2906 2969 
L 2906 4863 
L 3481 4863 
L 3481 0 
L 2906 0 
L 2906 525 
Q 2725 213 2448 61 
Q 2172 -91 1784 -91 
Q 1150 -91 751 415 
Q 353 922 353 1747 
Q 353 2572 751 3078 
Q 1150 3584 1784 3584 
Q 2172 3584 2448 3432 
Q 2725 3281 2906 2969 
z
M 947 1747 
Q 947 1113 1208 752 
Q 1469 391 1925 391 
Q 2381 391 2643 752 
Q 2906 1113 2906 1747 
Q 2906 2381 2643 2742 
Q 2381 3103 1925 3103 
Q 1469 3103 1208 2742 
Q 947 2381 947 1747 
z
" transform="scale(0.015625)"/>
     <path id="DejaVuSans-77" d="M 269 3500 
L 844 3500 
L 1563 769 
L 2278 3500 
L 2956 3500 
L 3675 769 
L 4391 3500 
L 4966 3500 
L 4050 0 
L 3372 0 
L 2619 2869 
L 1863 0 
L 1184 0 
L 269 3500 
z
" transform="scale(0.015625)"/>
     <path id="DejaVuSans-69" d="M 603 3500 
L 1178 3500 
L 1178 0 
L 603 0 
L 603 3500 
z
M 603 4863 
L 1178 4863 
L 1178 4134 
L 603 4134 
L 603 4863 
z
" transform="scale(0.015625)"/>
     <path id="DejaVuSans-6e" d="M 3513 2113 
L 3513 0 
L 2938 0 
L 2938 2094 
Q 2938 2591 2744 2837 
Q 2550 3084 2163 3084 
Q 1697 3084 1428 2787 
Q 1159 2491 1159 1978 
L 1159 0 
L 581 0 
L 581 3500 
L 1159 3500 
L 1159 2956 
Q 1366 3272 1645 3428 
Q 1925 3584 2291 3584 
Q 2894 3584 3203 3211 
Q 3513 2838 3513 2113 
z
" transform="scale(0.015625)"/>
     <path id="DejaVuSans-70" d="M 1159 525 
L 1159 -1331 
L 581 -1331 
L 581 3500 
L 1159 3500 
L 1159 2969 
Q 1341 3281 1617 3432 
Q 1894 3584 2278 3584 
Q 2916 3584 3314 3078 
Q 3713 2572 3713 1747 
Q 3713 922 3314 415 
Q 2916 -91 2278 -91 
Q 1894 -91 1617 61 
Q 1341 213 1159 525 
z
M 3116 1747 
Q 3116 2381 2855 2742 
Q 2594 3103 2138 3103 
Q 1681 3103 1420 2742 
Q 1159 2381 1159 1747 
Q 1159 1113 1420 752 
Q 1681 391 2138 391 
Q 2594 391 2855 752 
Q 3116 1113 3116 1747 
z
" transform="scale(0.015625)"/>
     <path id="DejaVuSans-66" d="M 2375 4863 
L 2375 4384 
L 1825 4384 
Q 1516 4384 1395 4259 
Q 1275 4134 1275 3809 
L 1275 3500 
L 2222 3500 
L 2222 3053 
L 1275 3053 
L 1275 0 
L 697 0 
L 697 3053 
L 147 3053 
L 147 3500 
L 697 3500 
L 697 3744 
Q 697 4328 969 4595 
Q 1241 4863 1831 4863 
L 2375 4863 
z
" transform="scale(0.015625)"/>
     <path id="DejaVuSans-3d" d="M 678 2906 
L 4684 2906 
L 4684 2381 
L 678 2381 
L 678 2906 
z
M 678 1631 
L 4684 1631 
L 4684 1100 
L 678 1100 
L 678 1631 
z
" transform="scale(0.015625)"/>
     <path id="DejaVuSans-33" d="M 2597 2516 
Q 3050 2419 3304 2112 
Q 3559 1806 3559 1356 
Q 3559 666 3084 287 
Q 2609 -91 1734 -91 
Q 1441 -91 1130 -33 
Q 819 25 488 141 
L 488 750 
Q 750 597 1062 519 
Q 1375 441 1716 441 
Q 2309 441 2620 675 
Q 2931 909 2931 1356 
Q 2931 1769 2642 2001 
Q 2353 2234 1838 2234 
L 1294 2234 
L 1294 2753 
L 1863 2753 
Q 2328 2753 2575 2939 
Q 2822 3125 2822 3475 
Q 2822 3834 2567 4026 
Q 2313 4219 1838 4219 
Q 1578 4219 1281 4162 
Q 984 4106 628 3988 
L 628 4550 
Q 988 4650 1302 4700 
Q 1616 4750 1894 4750 
Q 2613 4750 3031 4423 
Q 3450 4097 3450 3541 
Q 3450 3153 3228 2886 
Q 3006 2619 2597 2516 
z
" transform="scale(0.015625)"/>
    </defs>
    <use xlink:href="#DejaVuSans-41"/>
    <use xlink:href="#DejaVuSans-63" x="66.658203"/>
    <use xlink:href="#DejaVuSans-63" x="121.638672"/>
    <use xlink:href="#DejaVuSans-75" x="176.619141"/>
    <use xlink:href="#DejaVuSans-6d" x="239.998047"/>
    <use xlink:href="#DejaVuSans-75" x="337.410156"/>
    <use xlink:href="#DejaVuSans-6c" x="400.789062"/>
    <use xlink:href="#DejaVuSans-61" x="428.572266"/>
    <use xlink:href="#DejaVuSans-74" x="489.851562"/>
    <use xlink:href="#DejaVuSans-65" x="529.060547"/>
    <use xlink:href="#DejaVuSans-20" x="590.583984"/>
    <use xlink:href="#DejaVuSans-74" x="622.371094"/>
    <use xlink:href="#DejaVuSans-6f" x="661.580078"/>
    <use xlink:href="#DejaVuSans-20" x="722.761719"/>
    <use xlink:href="#DejaVuSans-54" x="754.548828"/>
    <use xlink:href="#DejaVuSans-68" x="815.632812"/>
    <use xlink:href="#DejaVuSans-72" x="879.011719"/>
    <use xlink:href="#DejaVuSans-65" x="917.875"/>
    <use xlink:href="#DejaVuSans-73" x="979.398438"/>
    <use xlink:href="#DejaVuSans-68" x="1031.498047"/>
    <use xlink:href="#DejaVuSans-6f" x="1094.876953"/>
    <use xlink:href="#DejaVuSans-6c" x="1156.058594"/>
    <use xlink:href="#DejaVuSans-64" x="1183.841797"/>
    <use xlink:href="#DejaVuSans-20" x="1247.318359"/>
    <use xlink:href="#DejaVuSans-6d" x="1279.105469"/>
    <use xlink:href="#DejaVuSans-6f" x="1376.517578"/>
    <use xlink:href="#DejaVuSans-64" x="1437.699219"/>
    <use xlink:href="#DejaVuSans-65" x="1501.175781"/>
    <use xlink:href="#DejaVuSans-6c" x="1562.699219"/>
    <use xlink:href="#DejaVuSans-20" x="1590.482422"/>
    <use xlink:href="#DejaVuSans-77" x="1622.269531"/>
    <use xlink:href="#DejaVuSans-69" x="1704.056641"/>
    <use xlink:href="#DejaVuSans-74" x="1731.839844"/>
    <use xlink:href="#DejaVuSans-68" x="1771.048828"/>
    <use xlink:href="#DejaVuSans-20" x="1834.427734"/>
    <use xlink:href="#DejaVuSans-69" x="1866.214844"/>
    <use xlink:href="#DejaVuSans-6e" x="1893.998047"/>
    <use xlink:href="#DejaVuSans-70" x="1957.376953"/>
    <use xlink:href="#DejaVuSans-75" x="2020.853516"/>
    <use xlink:href="#DejaVuSans-74" x="2084.232422"/>
    <use xlink:href="#DejaVuSans-20" x="2123.441406"/>
    <use xlink:href="#DejaVuSans-6f" x="2155.228516"/>
    <use xlink:href="#DejaVuSans-66" x="2216.410156"/>
    <use xlink:href="#DejaVuSans-20" x="2251.615234"/>
    <use xlink:href="#DejaVuSans-30" x="2283.402344"/>
    <use xlink:href="#DejaVuSans-2e" x="2347.025391"/>
    <use xlink:href="#DejaVuSans-31" x="2378.8125"/>
    <use xlink:href="#DejaVuSans-20" x="2442.435547"/>
    <use xlink:href="#DejaVuSans-77" x="2474.222656"/>
    <use xlink:href="#DejaVuSans-69" x="2556.009766"/>
    <use xlink:href="#DejaVuSans-74" x="2583.792969"/>
    <use xlink:href="#DejaVuSans-68" x="2623.001953"/>
    <use xlink:href="#DejaVuSans-20" x="2686.380859"/>
    <use xlink:href="#DejaVuSans-72" x="2718.167969"/>
    <use xlink:href="#DejaVuSans-6d" x="2757.53125"/>
    <use xlink:href="#DejaVuSans-73" x="2854.943359"/>
    <use xlink:href="#DejaVuSans-3d" x="2907.042969"/>
    <use xlink:href="#DejaVuSans-33" x="2990.832031"/>
    <use xlink:href="#DejaVuSans-20" x="3054.455078"/>
   </g>
  </g>
 </g>
 <defs>
  <clipPath id="pad05500a44">
   <rect x="30.368437" y="36" width="334.8" height="217.44"/>
  </clipPath>
 </defs>
</svg>
