<?xml version="1.0" encoding="utf-8" standalone="no"?>
<!DOCTYPE svg PUBLIC "-//W3C//DTD SVG 1.1//EN"
  "http://www.w3.org/Graphics/SVG/1.1/DTD/svg11.dtd">
<svg xmlns:xlink="http://www.w3.org/1999/xlink" width="392.371875pt" height="277.318125pt" viewBox="0 0 392.371875 277.318125" xmlns="http://www.w3.org/2000/svg" version="1.1">
 <metadata>
  <rdf:RDF xmlns:dc="http://purl.org/dc/elements/1.1/" xmlns:cc="http://creativecommons.org/ns#" xmlns:rdf="http://www.w3.org/1999/02/22-rdf-syntax-ns#">
   <cc:Work>
    <dc:type rdf:resource="http://purl.org/dc/dcmitype/StillImage"/>
    <dc:date>2022-11-17T20:29:56.528166</dc:date>
    <dc:format>image/svg+xml</dc:format>
    <dc:creator>
     <cc:Agent>
      <dc:title>Matplotlib v3.6.0, https://matplotlib.org/</dc:title>
     </cc:Agent>
    </dc:creator>
   </cc:Work>
  </rdf:RDF>
 </metadata>
 <defs>
  <style type="text/css">*{stroke-linejoin: round; stroke-linecap: butt}</style>
 </defs>
 <g id="figure_1">
  <g id="patch_1">
   <path d="M 0 277.318125 
L 392.371875 277.318125 
L 392.371875 0 
L 0 0 
L 0 277.318125 
z
" style="fill: none"/>
  </g>
  <g id="axes_1">
   <g id="patch_2">
    <path d="M 34.185938 253.44 
L 368.985938 253.44 
L 368.985938 36 
L 34.185938 36 
z
" style="fill: #ffffff"/>
   </g>
   <g id="matplotlib.axis_1">
    <g id="xtick_1">
     <g id="line2d_1">
      <defs>
       <path id="m94f2a5100e" d="M 0 0 
L 0 3.5 
" style="stroke: #000000; stroke-width: 0.8"/>
      </defs>
      <g>
       <use xlink:href="#m94f2a5100e" x="34.185938" y="253.44" style="stroke: #000000; stroke-width: 0.8"/>
      </g>
     </g>
     <g id="text_1">
      <!-- 0.00 -->
      <g transform="translate(23.053125 268.038437) scale(0.1 -0.1)">
       <defs>
        <path id="DejaVuSans-30" d="M 2034 4250 
Q 1547 4250 1301 3770 
Q 1056 3291 1056 2328 
Q 1056 1369 1301 889 
Q 1547 409 2034 409 
Q 2525 409 2770 889 
Q 3016 1369 3016 2328 
Q 3016 3291 2770 3770 
Q 2525 4250 2034 4250 
z
M 2034 4750 
Q 2819 4750 3233 4129 
Q 3647 3509 3647 2328 
Q 3647 1150 3233 529 
Q 2819 -91 2034 -91 
Q 1250 -91 836 529 
Q 422 1150 422 2328 
Q 422 3509 836 4129 
Q 1250 4750 2034 4750 
z
" transform="scale(0.015625)"/>
        <path id="DejaVuSans-2e" d="M 684 794 
L 1344 794 
L 1344 0 
L 684 0 
L 684 794 
z
" transform="scale(0.015625)"/>
       </defs>
       <use xlink:href="#DejaVuSans-30"/>
       <use xlink:href="#DejaVuSans-2e" x="63.623047"/>
       <use xlink:href="#DejaVuSans-30" x="95.410156"/>
       <use xlink:href="#DejaVuSans-30" x="159.033203"/>
      </g>
     </g>
    </g>
    <g id="xtick_2">
     <g id="line2d_2">
      <g>
       <use xlink:href="#m94f2a5100e" x="76.035938" y="253.44" style="stroke: #000000; stroke-width: 0.8"/>
      </g>
     </g>
     <g id="text_2">
      <!-- 0.25 -->
      <g transform="translate(64.903125 268.038437) scale(0.1 -0.1)">
       <defs>
        <path id="DejaVuSans-32" d="M 1228 531 
L 3431 531 
L 3431 0 
L 469 0 
L 469 531 
Q 828 903 1448 1529 
Q 2069 2156 2228 2338 
Q 2531 2678 2651 2914 
Q 2772 3150 2772 3378 
Q 2772 3750 2511 3984 
Q 2250 4219 1831 4219 
Q 1534 4219 1204 4116 
Q 875 4013 500 3803 
L 500 4441 
Q 881 4594 1212 4672 
Q 1544 4750 1819 4750 
Q 2544 4750 2975 4387 
Q 3406 4025 3406 3419 
Q 3406 3131 3298 2873 
Q 3191 2616 2906 2266 
Q 2828 2175 2409 1742 
Q 1991 1309 1228 531 
z
" transform="scale(0.015625)"/>
        <path id="DejaVuSans-35" d="M 691 4666 
L 3169 4666 
L 3169 4134 
L 1269 4134 
L 1269 2991 
Q 1406 3038 1543 3061 
Q 1681 3084 1819 3084 
Q 2600 3084 3056 2656 
Q 3513 2228 3513 1497 
Q 3513 744 3044 326 
Q 2575 -91 1722 -91 
Q 1428 -91 1123 -41 
Q 819 9 494 109 
L 494 744 
Q 775 591 1075 516 
Q 1375 441 1709 441 
Q 2250 441 2565 725 
Q 2881 1009 2881 1497 
Q 2881 1984 2565 2268 
Q 2250 2553 1709 2553 
Q 1456 2553 1204 2497 
Q 953 2441 691 2322 
L 691 4666 
z
" transform="scale(0.015625)"/>
       </defs>
       <use xlink:href="#DejaVuSans-30"/>
       <use xlink:href="#DejaVuSans-2e" x="63.623047"/>
       <use xlink:href="#DejaVuSans-32" x="95.410156"/>
       <use xlink:href="#DejaVuSans-35" x="159.033203"/>
      </g>
     </g>
    </g>
    <g id="xtick_3">
     <g id="line2d_3">
      <g>
       <use xlink:href="#m94f2a5100e" x="117.885938" y="253.44" style="stroke: #000000; stroke-width: 0.8"/>
      </g>
     </g>
     <g id="text_3">
      <!-- 0.50 -->
      <g transform="translate(106.753125 268.038437) scale(0.1 -0.1)">
       <use xlink:href="#DejaVuSans-30"/>
       <use xlink:href="#DejaVuSans-2e" x="63.623047"/>
       <use xlink:href="#DejaVuSans-35" x="95.410156"/>
       <use xlink:href="#DejaVuSans-30" x="159.033203"/>
      </g>
     </g>
    </g>
    <g id="xtick_4">
     <g id="line2d_4">
      <g>
       <use xlink:href="#m94f2a5100e" x="159.735938" y="253.44" style="stroke: #000000; stroke-width: 0.8"/>
      </g>
     </g>
     <g id="text_4">
      <!-- 0.75 -->
      <g transform="translate(148.603125 268.038437) scale(0.1 -0.1)">
       <defs>
        <path id="DejaVuSans-37" d="M 525 4666 
L 3525 4666 
L 3525 4397 
L 1831 0 
L 1172 0 
L 2766 4134 
L 525 4134 
L 525 4666 
z
" transform="scale(0.015625)"/>
       </defs>
       <use xlink:href="#DejaVuSans-30"/>
       <use xlink:href="#DejaVuSans-2e" x="63.623047"/>
       <use xlink:href="#DejaVuSans-37" x="95.410156"/>
       <use xlink:href="#DejaVuSans-35" x="159.033203"/>
      </g>
     </g>
    </g>
    <g id="xtick_5">
     <g id="line2d_5">
      <g>
       <use xlink:href="#m94f2a5100e" x="201.585938" y="253.44" style="stroke: #000000; stroke-width: 0.8"/>
      </g>
     </g>
     <g id="text_5">
      <!-- 1.00 -->
      <g transform="translate(190.453125 268.038437) scale(0.1 -0.1)">
       <defs>
        <path id="DejaVuSans-31" d="M 794 531 
L 1825 531 
L 1825 4091 
L 703 3866 
L 703 4441 
L 1819 4666 
L 2450 4666 
L 2450 531 
L 3481 531 
L 3481 0 
L 794 0 
L 794 531 
z
" transform="scale(0.015625)"/>
       </defs>
       <use xlink:href="#DejaVuSans-31"/>
       <use xlink:href="#DejaVuSans-2e" x="63.623047"/>
       <use xlink:href="#DejaVuSans-30" x="95.410156"/>
       <use xlink:href="#DejaVuSans-30" x="159.033203"/>
      </g>
     </g>
    </g>
    <g id="xtick_6">
     <g id="line2d_6">
      <g>
       <use xlink:href="#m94f2a5100e" x="243.435938" y="253.44" style="stroke: #000000; stroke-width: 0.8"/>
      </g>
     </g>
     <g id="text_6">
      <!-- 1.25 -->
      <g transform="translate(232.303125 268.038437) scale(0.1 -0.1)">
       <use xlink:href="#DejaVuSans-31"/>
       <use xlink:href="#DejaVuSans-2e" x="63.623047"/>
       <use xlink:href="#DejaVuSans-32" x="95.410156"/>
       <use xlink:href="#DejaVuSans-35" x="159.033203"/>
      </g>
     </g>
    </g>
    <g id="xtick_7">
     <g id="line2d_7">
      <g>
       <use xlink:href="#m94f2a5100e" x="285.285938" y="253.44" style="stroke: #000000; stroke-width: 0.8"/>
      </g>
     </g>
     <g id="text_7">
      <!-- 1.50 -->
      <g transform="translate(274.153125 268.038437) scale(0.1 -0.1)">
       <use xlink:href="#DejaVuSans-31"/>
       <use xlink:href="#DejaVuSans-2e" x="63.623047"/>
       <use xlink:href="#DejaVuSans-35" x="95.410156"/>
       <use xlink:href="#DejaVuSans-30" x="159.033203"/>
      </g>
     </g>
    </g>
    <g id="xtick_8">
     <g id="line2d_8">
      <g>
       <use xlink:href="#m94f2a5100e" x="327.135938" y="253.44" style="stroke: #000000; stroke-width: 0.8"/>
      </g>
     </g>
     <g id="text_8">
      <!-- 1.75 -->
      <g transform="translate(316.003125 268.038437) scale(0.1 -0.1)">
       <use xlink:href="#DejaVuSans-31"/>
       <use xlink:href="#DejaVuSans-2e" x="63.623047"/>
       <use xlink:href="#DejaVuSans-37" x="95.410156"/>
       <use xlink:href="#DejaVuSans-35" x="159.033203"/>
      </g>
     </g>
    </g>
    <g id="xtick_9">
     <g id="line2d_9">
      <g>
       <use xlink:href="#m94f2a5100e" x="368.985938" y="253.44" style="stroke: #000000; stroke-width: 0.8"/>
      </g>
     </g>
     <g id="text_9">
      <!-- 2.00 -->
      <g transform="translate(357.853125 268.038437) scale(0.1 -0.1)">
       <use xlink:href="#DejaVuSans-32"/>
       <use xlink:href="#DejaVuSans-2e" x="63.623047"/>
       <use xlink:href="#DejaVuSans-30" x="95.410156"/>
       <use xlink:href="#DejaVuSans-30" x="159.033203"/>
      </g>
     </g>
    </g>
   </g>
   <g id="matplotlib.axis_2">
    <g id="ytick_1">
     <g id="line2d_10">
      <defs>
       <path id="mf1492376fb" d="M 0 0 
L -3.5 0 
" style="stroke: #000000; stroke-width: 0.8"/>
      </defs>
      <g>
       <use xlink:href="#mf1492376fb" x="34.185938" y="225.984645" style="stroke: #000000; stroke-width: 0.8"/>
      </g>
     </g>
     <g id="text_10">
      <!-- 0.0 -->
      <g transform="translate(11.282813 229.783864) scale(0.1 -0.1)">
       <use xlink:href="#DejaVuSans-30"/>
       <use xlink:href="#DejaVuSans-2e" x="63.623047"/>
       <use xlink:href="#DejaVuSans-30" x="95.410156"/>
      </g>
     </g>
    </g>
    <g id="ytick_2">
     <g id="line2d_11">
      <g>
       <use xlink:href="#mf1492376fb" x="34.185938" y="189.050495" style="stroke: #000000; stroke-width: 0.8"/>
      </g>
     </g>
     <g id="text_11">
      <!-- 0.1 -->
      <g transform="translate(11.282813 192.849713) scale(0.1 -0.1)">
       <use xlink:href="#DejaVuSans-30"/>
       <use xlink:href="#DejaVuSans-2e" x="63.623047"/>
       <use xlink:href="#DejaVuSans-31" x="95.410156"/>
      </g>
     </g>
    </g>
    <g id="ytick_3">
     <g id="line2d_12">
      <g>
       <use xlink:href="#mf1492376fb" x="34.185938" y="152.116344" style="stroke: #000000; stroke-width: 0.8"/>
      </g>
     </g>
     <g id="text_12">
      <!-- 0.2 -->
      <g transform="translate(11.282813 155.915563) scale(0.1 -0.1)">
       <use xlink:href="#DejaVuSans-30"/>
       <use xlink:href="#DejaVuSans-2e" x="63.623047"/>
       <use xlink:href="#DejaVuSans-32" x="95.410156"/>
      </g>
     </g>
    </g>
    <g id="ytick_4">
     <g id="line2d_13">
      <g>
       <use xlink:href="#mf1492376fb" x="34.185938" y="115.182194" style="stroke: #000000; stroke-width: 0.8"/>
      </g>
     </g>
     <g id="text_13">
      <!-- 0.3 -->
      <g transform="translate(11.282813 118.981413) scale(0.1 -0.1)">
       <defs>
        <path id="DejaVuSans-33" d="M 2597 2516 
Q 3050 2419 3304 2112 
Q 3559 1806 3559 1356 
Q 3559 666 3084 287 
Q 2609 -91 1734 -91 
Q 1441 -91 1130 -33 
Q 819 25 488 141 
L 488 750 
Q 750 597 1062 519 
Q 1375 441 1716 441 
Q 2309 441 2620 675 
Q 2931 909 2931 1356 
Q 2931 1769 2642 2001 
Q 2353 2234 1838 2234 
L 1294 2234 
L 1294 2753 
L 1863 2753 
Q 2328 2753 2575 2939 
Q 2822 3125 2822 3475 
Q 2822 3834 2567 4026 
Q 2313 4219 1838 4219 
Q 1578 4219 1281 4162 
Q 984 4106 628 3988 
L 628 4550 
Q 988 4650 1302 4700 
Q 1616 4750 1894 4750 
Q 2613 4750 3031 4423 
Q 3450 4097 3450 3541 
Q 3450 3153 3228 2886 
Q 3006 2619 2597 2516 
z
" transform="scale(0.015625)"/>
       </defs>
       <use xlink:href="#DejaVuSans-30"/>
       <use xlink:href="#DejaVuSans-2e" x="63.623047"/>
       <use xlink:href="#DejaVuSans-33" x="95.410156"/>
      </g>
     </g>
    </g>
    <g id="ytick_5">
     <g id="line2d_14">
      <g>
       <use xlink:href="#mf1492376fb" x="34.185938" y="78.248044" style="stroke: #000000; stroke-width: 0.8"/>
      </g>
     </g>
     <g id="text_14">
      <!-- 0.4 -->
      <g transform="translate(11.282813 82.047262) scale(0.1 -0.1)">
       <defs>
        <path id="DejaVuSans-34" d="M 2419 4116 
L 825 1625 
L 2419 1625 
L 2419 4116 
z
M 2253 4666 
L 3047 4666 
L 3047 1625 
L 3713 1625 
L 3713 1100 
L 3047 1100 
L 3047 0 
L 2419 0 
L 2419 1100 
L 313 1100 
L 313 1709 
L 2253 4666 
z
" transform="scale(0.015625)"/>
       </defs>
       <use xlink:href="#DejaVuSans-30"/>
       <use xlink:href="#DejaVuSans-2e" x="63.623047"/>
       <use xlink:href="#DejaVuSans-34" x="95.410156"/>
      </g>
     </g>
    </g>
    <g id="ytick_6">
     <g id="line2d_15">
      <g>
       <use xlink:href="#mf1492376fb" x="34.185938" y="41.313893" style="stroke: #000000; stroke-width: 0.8"/>
      </g>
     </g>
     <g id="text_15">
      <!-- 0.5 -->
      <g transform="translate(11.282813 45.113112) scale(0.1 -0.1)">
       <use xlink:href="#DejaVuSans-30"/>
       <use xlink:href="#DejaVuSans-2e" x="63.623047"/>
       <use xlink:href="#DejaVuSans-35" x="95.410156"/>
      </g>
     </g>
    </g>
   </g>
   <g id="line2d_16">
    <path d="M 34.353338 225.984645 
L 34.520738 225.80005 
L 34.855538 241.159666 
L 35.022938 243.556364 
L 35.190338 228.446224 
L 35.357738 231.249738 
L 35.525138 212.95834 
L 35.692538 213.8409 
L 35.859938 213.754295 
L 36.027338 203.899588 
L 36.194738 216.464791 
L 36.696938 196.315088 
L 37.031738 217.149194 
L 37.199138 218.417181 
L 37.701338 208.158131 
L 38.036138 192.132937 
L 38.203538 190.091612 
L 38.538338 193.2623 
L 38.705738 196.462449 
L 38.873138 188.020382 
L 39.040538 188.154422 
L 39.207938 177.081513 
L 39.375338 178.053101 
L 39.542738 161.600346 
L 39.877538 167.291689 
L 40.044938 158.290641 
L 40.212338 158.361347 
L 40.379738 140.2028 
L 40.547138 151.499884 
L 40.714538 172.491114 
L 40.881938 167.855358 
L 41.049338 184.390202 
L 41.216738 175.417579 
L 41.551538 191.955503 
L 41.718938 180.884704 
L 41.886338 182.929588 
L 42.053738 188.405117 
L 42.388538 201.39391 
L 42.555938 192.372446 
L 42.723338 212.520761 
L 43.058138 193.382868 
L 43.225538 201.508889 
L 43.560338 186.180608 
L 43.895138 198.565115 
L 44.062538 181.910425 
L 44.229938 196.373469 
L 44.397338 192.716703 
L 44.732138 168.110235 
L 44.899538 177.24193 
L 45.066938 166.737374 
L 45.234338 168.217653 
L 45.401738 177.793378 
L 45.569138 178.061187 
L 45.903938 193.570726 
L 46.238738 211.01481 
L 46.406138 200.301729 
L 46.573538 206.739916 
L 46.740938 195.864857 
L 46.908338 195.711408 
L 47.243138 179.186721 
L 47.410538 179.95362 
L 47.577938 179.314068 
L 47.745338 188.778912 
L 47.912738 188.673044 
L 48.080138 192.894909 
L 48.582338 180.277579 
L 48.917138 157.652443 
L 49.084538 155.957937 
L 49.251938 151.741778 
L 49.586738 159.955726 
L 49.754138 180.066057 
L 49.921538 182.645469 
L 50.256338 211.545807 
L 50.423738 206.08303 
L 50.591138 205.514417 
L 50.758538 215.590739 
L 50.925938 211.37022 
L 51.093338 217.655018 
L 51.428138 236.829404 
L 51.595538 241.367426 
L 51.762938 242.827355 
L 51.930338 238.405168 
L 52.097738 237.748276 
L 52.599938 194.248159 
L 52.767338 206.437288 
L 53.102138 182.861686 
L 53.436938 210.943064 
L 53.604338 191.651515 
L 53.771738 205.970352 
L 53.939138 197.763178 
L 54.106538 198.133659 
L 54.441338 183.922812 
L 54.608738 182.236832 
L 54.776138 167.704084 
L 54.943538 167.545022 
L 55.110938 175.085653 
L 55.278338 167.278387 
L 55.445738 185.444877 
L 55.780538 175.682101 
L 55.947938 193.080137 
L 56.115338 198.749458 
L 56.282738 175.029935 
L 56.450138 180.730132 
L 56.617538 193.022477 
L 56.784938 173.552897 
L 57.287138 187.956295 
L 57.454538 186.495817 
L 57.621938 188.043773 
L 57.956738 172.233791 
L 58.124138 187.785438 
L 58.458938 166.498557 
L 58.626338 168.298514 
L 58.793738 167.736958 
L 58.961138 168.641998 
L 59.128538 172.710096 
L 59.295938 168.703908 
L 59.463338 181.662381 
L 59.798138 160.129945 
L 59.965538 169.402785 
L 60.132938 147.877867 
L 60.300338 168.097289 
L 60.467738 167.598598 
L 60.635138 155.140953 
L 60.802538 164.02598 
L 60.969938 152.752422 
L 61.304738 174.988935 
L 61.472138 171.675359 
L 61.639538 173.444404 
L 61.806938 173.757167 
L 62.309138 145.184559 
L 62.476538 140.484699 
L 62.643938 141.416715 
L 62.811338 148.904737 
L 62.978738 148.762002 
L 63.313538 141.902403 
L 63.648338 159.180067 
L 63.815738 142.236538 
L 63.983138 148.124368 
L 64.150538 134.760658 
L 64.317938 135.038234 
L 64.485338 148.338266 
L 64.652738 139.867266 
L 64.820138 140.94626 
L 64.987538 144.577621 
L 65.322338 134.951648 
L 65.489738 143.614583 
L 65.657138 132.476585 
L 65.824538 133.364004 
L 65.991938 130.735938 
L 66.159338 139.556497 
L 66.326738 128.532862 
L 66.494138 126.840212 
L 66.661538 126.96606 
L 66.996338 138.863667 
L 67.163738 141.155729 
L 67.331138 158.486534 
L 67.498538 156.291537 
L 67.833338 171.723234 
L 68.000738 171.78369 
L 68.168138 176.941592 
L 68.335538 190.777334 
L 68.502938 184.493648 
L 68.670338 183.89797 
L 68.837738 181.051618 
L 69.172538 164.034307 
L 69.339938 168.762862 
L 69.507338 156.430086 
L 69.674738 156.63491 
L 70.009538 134.579708 
L 70.344338 144.777208 
L 70.511738 129.648733 
L 70.679138 131.641634 
L 70.846538 137.414728 
L 71.013938 151.963692 
L 71.181338 146.577988 
L 71.516138 182.970694 
L 71.683538 187.064013 
L 71.850938 181.067756 
L 72.185738 193.825768 
L 72.353138 190.558131 
L 72.520538 197.043469 
L 72.687938 196.833429 
L 72.855338 193.508879 
L 73.022738 181.818737 
L 73.190138 206.739616 
L 73.357538 198.728272 
L 73.524938 197.674739 
L 73.692338 201.621551 
L 73.859738 198.251429 
L 74.027138 183.091571 
L 74.194538 180.192522 
L 74.361938 159.719959 
L 74.529338 160.804526 
L 74.696738 158.303286 
L 74.864137 151.266326 
L 75.031538 151.410924 
L 75.366338 163.945258 
L 75.533738 164.320929 
L 75.701138 173.811901 
L 75.868538 168.192032 
L 76.203338 185.733229 
L 76.370738 185.869804 
L 76.538138 182.607719 
L 76.705538 160.135115 
L 76.872938 176.806963 
L 77.040338 172.668634 
L 77.207738 157.312137 
L 77.375138 157.11825 
L 77.542538 154.537762 
L 77.709938 157.962364 
L 77.877338 148.0442 
L 78.044738 147.562892 
L 78.714338 179.499522 
L 78.881738 180.83775 
L 79.049138 178.210521 
L 79.383938 171.063119 
L 79.551338 176.156575 
L 79.718738 146.70314 
L 79.886138 141.652408 
L 80.053538 148.891837 
L 80.220938 148.135095 
L 80.388338 145.050773 
L 80.555738 156.613409 
L 80.890538 133.614505 
L 81.057938 150.476825 
L 81.225338 148.54719 
L 81.392738 134.367757 
L 81.560138 134.103723 
L 81.727538 150.912727 
L 81.894938 149.242555 
L 82.062338 159.063339 
L 82.229738 161.273918 
L 82.397138 153.450881 
L 82.731938 175.148258 
L 82.899338 171.729751 
L 83.066738 180.09603 
L 83.234138 172.21252 
L 83.568938 201.932747 
L 83.903738 184.3956 
L 84.071138 182.637334 
L 84.238538 184.085202 
L 84.405938 188.072461 
L 84.573338 184.748944 
L 84.740738 175.144587 
L 85.075538 176.526434 
L 85.242938 187.475276 
L 85.410338 188.566903 
L 85.577738 178.831658 
L 85.745138 187.478661 
L 86.079937 192.235961 
L 86.247338 167.226663 
L 86.414738 175.213465 
L 86.582138 170.304735 
L 86.749538 158.691444 
L 86.916938 164.450191 
L 87.419138 140.204662 
L 87.586538 155.522663 
L 87.753938 154.362565 
L 88.088738 160.556131 
L 88.256138 154.840958 
L 88.423538 158.849675 
L 88.590938 169.566965 
L 88.758338 164.467775 
L 88.925738 178.351367 
L 89.260538 157.201482 
L 89.427938 172.207628 
L 89.595338 163.223118 
L 89.762738 182.47009 
L 89.930138 184.843277 
L 90.097538 184.215845 
L 90.432338 190.165107 
L 90.599738 191.523581 
L 90.767138 197.015934 
L 90.934538 192.546499 
L 91.101938 196.345525 
L 91.269338 181.31756 
L 91.436738 192.717306 
L 91.604138 183.751189 
L 91.771538 165.116471 
L 91.938938 169.278858 
L 92.273738 147.832415 
L 92.441138 159.181879 
L 92.608538 158.412319 
L 92.775938 165.450701 
L 92.943338 166.334743 
L 93.110737 171.781854 
L 93.278138 183.282715 
L 93.445538 168.165782 
L 93.612938 177.05212 
L 93.780338 176.349948 
L 93.947738 174.288206 
L 94.115138 178.433369 
L 94.449938 168.478224 
L 94.617338 168.767364 
L 94.952138 146.624048 
L 95.119538 148.052366 
L 95.286938 154.542685 
L 95.454338 155.29304 
L 95.621738 157.883407 
L 95.789138 149.980729 
L 95.956538 148.474526 
L 96.123938 157.756046 
L 96.291338 151.776672 
L 96.458738 152.804399 
L 96.626138 159.55052 
L 96.793538 160.115439 
L 96.960938 151.765952 
L 97.128338 151.477489 
L 97.463138 153.953893 
L 97.630538 148.215403 
L 97.965338 168.975719 
L 98.132738 167.087732 
L 98.467538 178.731657 
L 98.969738 154.998422 
L 99.137138 158.548824 
L 99.304538 155.167935 
L 99.471938 165.062756 
L 99.639338 141.520925 
L 99.806738 152.228567 
L 99.974138 152.61573 
L 100.141538 139.376048 
L 100.308938 153.502892 
L 100.476338 153.474096 
L 100.643738 133.510372 
L 100.811138 142.454924 
L 100.978538 145.062244 
L 101.145938 144.449069 
L 101.313338 140.31577 
L 101.480738 148.821824 
L 101.648138 139.223005 
L 101.815538 138.410365 
L 101.982938 147.311713 
L 102.150338 145.723309 
L 102.317738 131.307518 
L 102.485138 138.322369 
L 102.987338 121.157683 
L 103.154738 114.657998 
L 103.322138 115.726469 
L 103.489538 111.596779 
L 103.656938 95.115581 
L 103.824338 102.423604 
L 103.991738 88.430463 
L 104.159138 102.082914 
L 104.493938 88.09586 
L 104.828738 98.519352 
L 104.996138 91.409286 
L 105.163538 115.28943 
L 105.498338 127.802361 
L 105.665738 127.274508 
L 105.833138 124.88859 
L 106.000538 124.557171 
L 106.167938 123.473015 
L 106.335338 135.447999 
L 106.502738 139.080488 
L 106.670138 134.94356 
L 106.837538 138.681716 
L 107.004938 136.657451 
L 107.339738 125.717799 
L 107.507138 135.259451 
L 107.674538 132.901102 
L 107.841938 115.876272 
L 108.009338 115.998389 
L 108.176738 119.541187 
L 108.344138 118.14565 
L 108.678938 141.606959 
L 108.846338 141.411744 
L 109.013738 142.221628 
L 109.181138 135.225112 
L 109.348538 134.444991 
L 109.515938 143.608172 
L 109.683338 144.840842 
L 109.850738 119.403151 
L 110.018138 146.456671 
L 110.185538 153.46281 
L 110.352938 135.04207 
L 110.520338 147.352938 
L 110.687738 142.772162 
L 110.855138 148.169324 
L 111.357338 128.923563 
L 111.524738 116.176617 
L 111.859538 112.269858 
L 112.026938 106.202328 
L 112.194338 107.228474 
L 112.361738 101.720057 
L 112.696538 105.935777 
L 112.863938 101.298739 
L 113.031338 113.92559 
L 113.198738 109.708065 
L 113.366138 119.992029 
L 113.533538 119.071123 
L 113.700938 132.686159 
L 113.868338 128.137599 
L 114.035738 136.723722 
L 114.203138 132.028915 
L 114.370538 133.273243 
L 114.537938 132.406239 
L 114.705338 133.029121 
L 114.872738 131.261086 
L 115.040138 143.130262 
L 115.374938 126.580253 
L 115.709738 136.357142 
L 116.044538 141.368597 
L 116.211938 149.105218 
L 116.379338 132.636933 
L 116.714138 139.187329 
L 116.881538 146.348808 
L 117.048938 128.541145 
L 117.216338 127.936999 
L 117.551138 150.549595 
L 117.885938 133.100433 
L 118.053338 132.458438 
L 118.220738 122.524641 
L 118.555538 138.98727 
L 118.722938 117.101685 
L 118.890338 120.919688 
L 119.057738 127.421988 
L 119.225138 129.383274 
L 119.559938 116.183179 
L 119.727338 129.250298 
L 120.062138 102.028455 
L 120.229538 104.467252 
L 120.396938 96.904278 
L 120.564338 102.97327 
L 120.731738 114.67935 
L 120.899138 101.40246 
L 121.568738 133.102356 
L 121.736138 134.600452 
L 121.903538 131.493472 
L 122.070938 137.024943 
L 122.238338 123.657622 
L 122.405738 121.037775 
L 122.573138 128.309954 
L 122.740538 141.726362 
L 122.907938 140.582678 
L 123.075338 137.574842 
L 123.242738 155.428113 
L 123.410138 153.504128 
L 123.744938 167.730265 
L 123.912338 155.160049 
L 124.247138 148.210994 
L 124.414538 154.637092 
L 124.581938 155.191905 
L 124.916738 127.94368 
L 125.084138 135.125403 
L 125.418938 123.992855 
L 125.586338 133.475599 
L 125.921138 117.600701 
L 126.088538 115.535211 
L 126.255938 124.341998 
L 126.423338 143.58092 
L 126.590738 131.374425 
L 126.758138 153.165609 
L 126.925538 135.954348 
L 127.092938 136.985299 
L 127.260338 148.129305 
L 127.427738 134.006257 
L 127.762538 146.21433 
L 127.929938 135.045989 
L 128.432138 160.253852 
L 128.599538 155.119804 
L 128.766938 141.127989 
L 128.934338 155.524368 
L 129.269138 143.13884 
L 129.436538 150.310269 
L 129.603938 133.163674 
L 129.771338 149.760819 
L 129.938738 147.301157 
L 130.106138 152.793891 
L 130.273538 139.24781 
L 130.440938 141.900421 
L 130.608338 127.426217 
L 130.775737 124.736301 
L 130.943138 113.715856 
L 131.110538 117.241825 
L 131.277938 125.9784 
L 131.612738 114.808463 
L 131.780138 114.808343 
L 131.947538 135.34275 
L 132.114937 132.019965 
L 132.282338 131.888819 
L 132.617138 145.648429 
L 132.784537 139.965417 
L 132.951937 139.764943 
L 133.119338 143.420484 
L 133.286738 143.948782 
L 133.454138 144.883755 
L 133.621537 139.730304 
L 133.788938 145.292839 
L 133.956338 134.372186 
L 134.291137 140.201635 
L 134.458538 134.860465 
L 134.625938 133.818086 
L 134.793338 129.882442 
L 134.960737 139.185343 
L 135.128138 130.242353 
L 135.295538 148.903953 
L 135.462938 149.788449 
L 135.630337 143.930551 
L 135.797738 153.939361 
L 135.965138 148.47692 
L 136.132538 155.222882 
L 136.299937 156.446082 
L 136.467338 164.392415 
L 136.634738 148.271371 
L 136.969538 165.432615 
L 137.136938 142.537814 
L 137.304338 153.37122 
L 137.973938 121.437924 
L 138.141338 125.785072 
L 138.308738 123.016192 
L 138.476137 124.163987 
L 138.643538 127.088925 
L 138.810938 119.130935 
L 139.145737 128.66905 
L 139.313138 127.826943 
L 139.647938 115.649109 
L 139.815337 112.923491 
L 139.982738 125.902395 
L 140.150138 109.201794 
L 140.317538 107.448562 
L 140.484938 100.911752 
L 140.652338 114.276229 
L 140.819738 107.653261 
L 140.987138 124.869932 
L 141.154538 130.055919 
L 141.321938 119.925543 
L 141.489338 118.763614 
L 141.991538 136.905361 
L 142.158938 119.7547 
L 142.493738 151.29424 
L 142.828538 144.154583 
L 142.995938 136.971016 
L 143.163338 146.462134 
L 143.498138 130.095354 
L 143.832938 144.159858 
L 144.000338 123.768036 
L 144.167738 119.588301 
L 144.335138 118.957163 
L 144.502538 121.492935 
L 144.669938 114.24259 
L 144.837338 112.697208 
L 145.172138 105.011088 
L 145.339538 116.825183 
L 145.506938 119.461086 
L 145.674338 117.114874 
L 145.841738 122.455219 
L 146.009138 100.536591 
L 146.511338 116.626421 
L 146.678738 130.581392 
L 146.846138 113.778139 
L 147.013538 108.645533 
L 147.180938 113.496482 
L 147.515738 105.514479 
L 147.683138 89.387869 
L 147.850538 88.723783 
L 148.017938 102.172566 
L 148.185338 90.215596 
L 148.352738 91.273867 
L 148.520138 88.019879 
L 148.687538 91.043017 
L 148.854938 91.713649 
L 149.022338 94.228476 
L 149.189738 109.039098 
L 149.357138 107.316598 
L 149.524538 86.194524 
L 149.859338 109.247287 
L 150.026738 101.824387 
L 150.194138 105.422364 
L 150.696338 90.703617 
L 151.031138 106.849445 
L 151.198538 102.710913 
L 151.365938 107.242585 
L 151.700738 99.634174 
L 151.868138 100.475218 
L 152.035538 103.186425 
L 152.202938 96.082564 
L 152.370338 95.601136 
L 152.537737 88.46044 
L 152.705138 100.30266 
L 152.872538 100.277108 
L 153.039938 97.089438 
L 153.207337 83.279338 
L 153.374738 81.746888 
L 153.542138 93.024189 
L 153.876937 69.439964 
L 154.211738 76.186392 
L 154.379138 73.709182 
L 154.546537 82.074342 
L 154.713938 70.701036 
L 154.881338 74.582805 
L 155.048738 81.52675 
L 155.216138 78.875558 
L 155.383537 95.124155 
L 155.550938 95.600849 
L 155.718338 94.362048 
L 156.220538 133.50438 
L 156.387938 127.715393 
L 156.555338 128.429525 
L 157.057538 143.784362 
L 157.392337 127.353453 
L 157.559738 130.456442 
L 157.727138 139.832949 
L 158.061937 109.020036 
L 158.229338 119.911069 
L 158.396738 116.610828 
L 158.564138 119.179682 
L 158.731538 117.455553 
L 158.898938 111.301608 
L 159.066338 134.456009 
L 159.401138 113.807731 
L 159.735938 129.030192 
L 159.903338 106.746682 
L 160.070738 114.720346 
L 160.238137 115.307036 
L 160.405538 118.544458 
L 160.740338 93.531356 
L 161.075138 125.248641 
L 161.242538 125.623297 
L 161.577337 146.0112 
L 161.912138 140.878378 
L 162.079538 148.97731 
L 162.246938 145.063273 
L 162.414337 110.569928 
L 162.749138 128.905635 
L 162.916538 106.925336 
L 163.083937 123.553032 
L 163.251338 109.078524 
L 163.418738 105.240602 
L 163.586138 128.482133 
L 163.753537 111.718478 
L 163.920938 113.695636 
L 164.088338 126.543424 
L 164.423137 122.166303 
L 164.590538 124.360827 
L 164.757938 131.195933 
L 164.925338 116.472082 
L 165.092737 119.208483 
L 165.260138 116.035635 
L 165.594938 88.43304 
L 165.762338 92.806126 
L 165.929738 78.877748 
L 166.097138 81.988644 
L 166.431938 97.701731 
L 166.599338 87.55436 
L 166.766738 101.024242 
L 166.934138 101.13699 
L 167.101538 102.047602 
L 167.268937 114.053135 
L 167.436338 104.181174 
L 167.603738 115.481184 
L 167.771138 116.093305 
L 167.938537 122.659616 
L 168.105938 115.053637 
L 168.440738 123.176638 
L 168.608137 107.136265 
L 168.775538 112.322412 
L 168.942938 113.774795 
L 169.277738 102.412507 
L 169.445138 105.491864 
L 169.612538 121.252997 
L 169.779938 120.418019 
L 170.114738 133.885725 
L 170.282138 120.126844 
L 170.449538 118.251251 
L 170.616938 121.791831 
L 170.784338 119.783259 
L 171.119138 97.240226 
L 171.286538 113.352638 
L 171.621338 84.644635 
L 171.788738 90.305638 
L 172.290938 79.772021 
L 172.458338 82.867028 
L 172.625738 67.400897 
L 172.793138 75.780451 
L 172.960538 72.47029 
L 173.127938 59.436796 
L 173.462738 84.219813 
L 173.630137 76.547319 
L 173.797538 74.298731 
L 173.964938 85.042601 
L 174.132338 85.206563 
L 174.299737 89.27722 
L 174.467138 85.665778 
L 174.634538 88.474072 
L 174.801938 73.375061 
L 174.969337 84.656652 
L 175.136737 78.466094 
L 175.304138 61.693177 
L 175.471538 86.91396 
L 175.638937 85.119619 
L 175.806337 87.978582 
L 175.973738 75.805812 
L 176.141138 86.224064 
L 176.308537 85.859208 
L 176.643338 98.261102 
L 176.810738 93.457138 
L 176.978138 93.085501 
L 177.145537 97.041961 
L 177.312938 96.178141 
L 177.480338 107.80699 
L 177.647738 104.395867 
L 177.982538 123.1378 
L 178.149938 93.241721 
L 178.317338 110.263991 
L 178.484737 104.129511 
L 178.652138 107.892467 
L 178.819538 99.220289 
L 179.154337 96.867015 
L 179.489138 114.919525 
L 179.656538 114.436426 
L 179.991337 139.216797 
L 180.158738 145.577486 
L 180.326138 141.779896 
L 180.493538 123.219217 
L 180.660937 135.272098 
L 180.828338 136.815649 
L 180.995738 106.732763 
L 181.163138 116.144605 
L 181.497938 102.046243 
L 181.665338 116.358475 
L 181.832738 112.326343 
L 182.000137 96.973575 
L 182.167538 98.390277 
L 182.334938 98.712834 
L 182.502338 104.443491 
L 182.669737 71.78618 
L 183.004538 105.796343 
L 183.171938 75.440088 
L 183.339337 89.766296 
L 183.506738 85.810236 
L 183.674138 72.125501 
L 183.841538 81.218501 
L 184.008938 83.61855 
L 184.176338 79.558016 
L 184.343738 88.177678 
L 184.511138 86.002918 
L 184.678538 88.494237 
L 184.845937 84.013116 
L 185.180738 87.624075 
L 185.348138 95.819207 
L 185.515537 111.212022 
L 185.850338 78.005046 
L 186.017738 92.087166 
L 186.185137 89.219649 
L 186.519938 58.171862 
L 187.022138 88.199998 
L 187.691738 118.42827 
L 187.859138 107.434778 
L 188.026538 105.663475 
L 188.193938 117.533636 
L 188.361338 108.686457 
L 188.528738 109.76934 
L 188.696138 98.38753 
L 188.863538 104.948012 
L 189.030937 99.478754 
L 189.365738 119.704202 
L 189.533138 105.591306 
L 189.700537 107.978242 
L 189.867938 107.43104 
L 190.035338 99.845143 
L 190.202738 106.534229 
L 190.370137 107.050713 
L 190.537538 99.990469 
L 190.704938 98.951362 
L 190.872338 111.520552 
L 191.039738 106.423054 
L 191.207138 94.986861 
L 191.374538 97.054908 
L 191.709338 82.602676 
L 191.876738 104.312653 
L 192.044138 96.741272 
L 192.211538 80.493612 
L 192.546338 101.802501 
L 192.713738 82.549436 
L 192.881138 99.322214 
L 193.048538 87.721384 
L 193.215938 86.772761 
L 193.383338 102.914678 
L 193.550738 85.996029 
L 193.718138 94.297723 
L 194.052938 72.971989 
L 194.220338 76.813063 
L 194.387738 85.693941 
L 194.555138 81.792023 
L 194.889938 93.638955 
L 195.057338 87.319638 
L 195.392137 109.4181 
L 195.559538 109.745654 
L 195.894338 117.887208 
L 196.061737 114.367777 
L 196.229138 120.86818 
L 196.396538 121.956417 
L 196.563938 100.129334 
L 196.731337 100.218787 
L 197.066138 83.737984 
L 197.233538 83.503774 
L 197.568337 78.093465 
L 197.735738 74.71358 
L 197.903138 94.132477 
L 198.070538 93.44684 
L 198.237937 84.754608 
L 198.405338 87.947794 
L 198.572738 93.712487 
L 198.740138 95.52274 
L 198.907537 102.004952 
L 199.074938 92.705698 
L 199.242338 90.274549 
L 199.409738 91.288804 
L 199.577137 100.949156 
L 199.744538 90.945297 
L 199.911938 90.417505 
L 200.079338 92.749808 
L 200.414138 114.733487 
L 200.581538 108.954784 
L 200.748938 108.714188 
L 200.916337 127.860897 
L 201.083738 125.218005 
L 201.251138 126.81437 
L 201.418538 118.920534 
L 201.753338 133.159435 
L 201.920738 132.498373 
L 202.088138 123.065333 
L 202.255538 121.572351 
L 202.422938 133.290369 
L 202.590338 123.122053 
L 202.757738 136.058471 
L 203.092538 106.334432 
L 203.259938 111.768091 
L 203.427338 110.968304 
L 203.594738 108.710266 
L 203.762138 95.893232 
L 203.929538 103.913394 
L 204.096938 104.847605 
L 204.264338 95.058053 
L 204.431738 109.598738 
L 204.599138 113.582045 
L 204.766538 90.752614 
L 205.101338 122.867182 
L 205.268738 102.613597 
L 205.436138 104.182577 
L 205.603538 108.770487 
L 205.770938 106.664839 
L 205.938338 115.489587 
L 206.105737 108.076917 
L 206.273138 114.973185 
L 206.440538 112.71986 
L 206.607937 125.952037 
L 206.775337 104.860202 
L 206.942738 115.092661 
L 207.277537 121.496513 
L 207.779738 93.231075 
L 207.947137 93.411768 
L 208.281938 103.061918 
L 208.449338 117.796899 
L 208.616737 109.061122 
L 208.784137 106.549284 
L 208.951538 118.834298 
L 209.286338 87.131936 
L 209.621138 97.093874 
L 209.788538 87.290135 
L 209.955938 88.417282 
L 210.123337 91.664905 
L 210.290738 97.680362 
L 210.458138 85.936619 
L 210.625538 97.370679 
L 210.960338 77.786369 
L 211.127738 78.136656 
L 211.295138 77.918972 
L 211.462537 84.049539 
L 211.629938 72.105344 
L 211.797338 74.188439 
L 211.964738 82.780579 
L 212.299538 103.894062 
L 212.466938 109.755393 
L 212.634338 101.174122 
L 212.801738 104.315261 
L 212.969138 87.627042 
L 213.136538 98.756174 
L 213.303938 88.281711 
L 213.638738 108.414664 
L 213.806138 108.705086 
L 213.973538 102.778101 
L 214.140938 108.118982 
L 214.308338 119.357015 
L 214.475737 104.061395 
L 214.643138 100.686322 
L 214.810538 103.136254 
L 214.977938 108.771069 
L 215.145337 105.231488 
L 215.312738 98.018231 
L 215.480138 110.482041 
L 215.647538 113.692084 
L 215.982338 131.304853 
L 216.149738 131.696227 
L 216.317138 126.179258 
L 216.484537 114.478144 
L 216.651938 133.154769 
L 216.986738 111.45288 
L 217.154137 121.922972 
L 217.321538 109.383215 
L 217.488938 108.072216 
L 217.656338 117.883227 
L 217.823737 120.988916 
L 217.991138 116.099159 
L 218.158538 124.199591 
L 218.325938 118.461241 
L 218.493337 98.361055 
L 218.828138 120.188686 
L 219.162937 95.486866 
L 219.330338 102.501323 
L 219.665138 123.880917 
L 219.832538 123.909931 
L 219.999938 125.338156 
L 220.167338 138.780966 
L 220.334738 115.837357 
L 220.502138 113.508048 
L 220.669538 144.648399 
L 220.836938 116.664273 
L 221.004338 117.943184 
L 221.171738 124.387338 
L 221.673938 111.449169 
L 221.841338 126.504252 
L 222.008738 125.280569 
L 222.176138 136.976318 
L 222.510938 126.123176 
L 222.678338 124.748208 
L 222.845738 119.060869 
L 223.013138 122.652722 
L 223.347938 147.369037 
L 223.515338 137.693918 
L 223.682738 144.703773 
L 223.850138 141.854793 
L 224.017538 143.375514 
L 224.184937 135.480545 
L 224.352338 120.433135 
L 224.519738 138.098242 
L 224.687138 125.511099 
L 225.021938 142.80225 
L 225.189338 139.14243 
L 225.356738 126.820208 
L 225.524137 129.141054 
L 225.691538 136.504174 
L 225.858938 115.166801 
L 226.026338 108.936811 
L 226.193737 96.554797 
L 226.361138 102.571261 
L 226.528538 87.113144 
L 226.695938 90.858179 
L 226.863338 105.724779 
L 227.030738 109.82381 
L 227.198138 101.919802 
L 227.365538 103.501635 
L 227.532938 102.261174 
L 227.700337 99.421737 
L 227.867738 86.091684 
L 228.035138 86.739459 
L 228.202538 73.215891 
L 228.369937 79.29678 
L 228.537338 78.780593 
L 229.206938 105.003775 
L 229.374338 118.424797 
L 229.709137 97.786712 
L 229.876538 96.58168 
L 230.043938 106.690195 
L 230.211338 93.2431 
L 230.546138 115.708264 
L 230.713538 107.97369 
L 230.880938 110.816654 
L 231.048338 107.03881 
L 231.215738 106.824553 
L 231.383138 97.880341 
L 231.717938 109.95062 
L 232.052737 81.914179 
L 232.220138 99.769748 
L 232.387538 95.853751 
L 232.554938 96.971332 
L 232.722337 93.615872 
L 232.889738 106.627945 
L 233.057138 102.533281 
L 233.224537 101.616709 
L 233.391937 112.048516 
L 233.559338 100.427282 
L 233.894137 106.179055 
L 234.228938 97.07338 
L 234.563738 85.50626 
L 234.898538 114.102712 
L 235.065938 113.415885 
L 235.233338 108.657119 
L 235.568138 137.485253 
L 235.735538 115.052068 
L 235.902938 116.108279 
L 236.070337 119.499513 
L 236.237738 118.183638 
L 236.405138 131.487746 
L 236.739937 110.295816 
L 236.907338 124.29473 
L 237.074738 104.653902 
L 237.242138 101.528476 
L 237.409537 100.751589 
L 237.576938 117.670418 
L 237.911738 108.222902 
L 238.079138 113.390706 
L 238.246538 140.002515 
L 238.413938 114.717638 
L 238.581338 113.828675 
L 238.748738 114.290107 
L 238.916138 122.331031 
L 239.083538 113.39657 
L 239.250938 119.317064 
L 239.418338 99.549536 
L 239.585738 110.90206 
L 239.753138 111.886034 
L 239.920538 116.062264 
L 240.087938 128.624992 
L 240.255338 127.192294 
L 240.590138 102.048867 
L 240.757538 109.794984 
L 240.924938 97.22607 
L 241.092337 95.853019 
L 241.427138 79.190481 
L 241.594538 83.652477 
L 241.761937 93.914948 
L 242.096738 72.149476 
L 242.431537 93.916275 
L 242.598938 76.66459 
L 242.933738 103.377924 
L 243.268538 79.11728 
L 243.435938 88.068288 
L 243.603338 89.54599 
L 243.770737 93.590056 
L 244.105538 80.057034 
L 244.272938 82.831944 
L 244.440337 74.445799 
L 244.607738 54.72237 
L 244.775138 72.982819 
L 245.277338 76.119361 
L 245.444738 102.01748 
L 245.612138 103.822915 
L 245.779538 91.72411 
L 245.946938 90.354306 
L 246.281738 55.785887 
L 246.783938 74.670901 
L 246.951338 73.767159 
L 247.453538 92.665089 
L 247.620938 92.088193 
L 247.788338 95.34903 
L 248.123138 118.111056 
L 248.290538 93.555092 
L 248.457938 99.688092 
L 248.625338 110.605557 
L 248.792738 94.590309 
L 248.960138 90.206921 
L 249.127538 107.659802 
L 249.294938 108.761067 
L 249.462338 100.487922 
L 249.629737 109.569039 
L 249.964538 104.932112 
L 250.131938 115.871872 
L 250.466738 107.340568 
L 250.634138 108.855258 
L 250.801537 94.626771 
L 250.968937 96.870472 
L 251.136338 111.770804 
L 251.303738 112.925697 
L 251.471137 110.575811 
L 251.638537 105.089609 
L 251.973338 125.6304 
L 252.308137 113.24797 
L 252.475538 124.446721 
L 252.642938 126.605116 
L 252.977737 108.014967 
L 253.145138 113.055096 
L 253.312538 113.513911 
L 253.479938 105.860086 
L 253.647337 128.159342 
L 253.814738 129.388199 
L 253.982138 132.561438 
L 254.149538 132.70001 
L 254.316937 131.583996 
L 254.484338 115.211677 
L 254.651738 123.650011 
L 254.819138 126.055535 
L 255.153938 107.134468 
L 255.321338 117.052438 
L 255.488738 118.08812 
L 255.823538 130.053005 
L 255.990938 116.150874 
L 256.325738 126.151649 
L 256.493138 116.561576 
L 256.660538 127.679816 
L 256.827938 104.231738 
L 257.162738 113.087666 
L 257.330138 115.122581 
L 257.497538 111.651988 
L 257.664938 125.275252 
L 257.999738 105.960168 
L 258.167138 103.890885 
L 258.334538 99.911898 
L 258.501938 91.890112 
L 258.669337 93.839521 
L 258.836738 101.43148 
L 259.171538 87.879196 
L 259.338937 119.494442 
L 259.506338 110.775305 
L 259.673738 114.372293 
L 260.008537 87.526613 
L 260.175938 89.630839 
L 260.343338 71.696609 
L 260.510738 70.328747 
L 260.678137 74.596026 
L 260.845538 62.230026 
L 261.012938 66.043082 
L 261.180338 73.803527 
L 261.347737 66.342043 
L 261.515138 83.663772 
L 261.849938 63.557046 
L 262.017337 82.398221 
L 262.184738 77.994193 
L 262.352138 80.345756 
L 262.519538 91.343653 
L 262.686937 83.383864 
L 263.189138 103.173354 
L 263.356538 86.281842 
L 263.523938 80.955367 
L 263.691338 88.178241 
L 263.858738 72.712382 
L 264.026138 77.306566 
L 264.193538 72.302308 
L 264.360938 78.482481 
L 264.695738 73.21539 
L 264.863138 85.550686 
L 265.365338 72.510578 
L 265.532738 76.288681 
L 265.700138 65.876718 
L 265.867538 78.62521 
L 266.034938 78.208877 
L 266.202338 67.270204 
L 266.369738 83.640838 
L 266.537138 75.878428 
L 266.871938 104.633202 
L 267.039338 99.935053 
L 267.206738 104.767996 
L 267.374138 100.769419 
L 267.541538 111.714637 
L 267.876338 93.947976 
L 268.043738 86.386536 
L 268.211138 92.997257 
L 268.378537 90.741799 
L 268.545938 79.995491 
L 268.713338 101.917684 
L 268.880738 73.77047 
L 269.048137 70.475209 
L 269.215538 79.528604 
L 269.382938 82.303133 
L 269.717737 54.419943 
L 269.885137 58.561756 
L 270.052538 78.443738 
L 270.219938 56.668654 
L 270.387338 63.969585 
L 270.554737 86.115021 
L 270.722138 65.445966 
L 270.889538 66.916644 
L 271.056938 71.44508 
L 271.224337 54.490513 
L 271.559138 67.488901 
L 271.726538 60.826827 
L 271.893937 63.464172 
L 272.061338 75.987205 
L 272.228738 58.23998 
L 272.563537 93.011587 
L 272.898338 83.445451 
L 273.065738 98.537491 
L 273.233137 99.805367 
L 273.400538 93.136363 
L 273.567938 95.274689 
L 273.735338 100.419647 
L 273.902738 90.005323 
L 274.070138 97.089624 
L 274.237538 95.236562 
L 274.404938 96.724046 
L 274.739738 109.510434 
L 274.907138 112.740033 
L 275.074538 99.044188 
L 275.241938 106.473482 
L 275.409338 107.306008 
L 275.744138 121.12922 
L 275.911538 114.985754 
L 276.246337 121.21636 
L 276.413738 130.294559 
L 276.748538 112.100217 
L 276.915937 126.850049 
L 277.083338 127.961624 
L 277.250738 109.271163 
L 277.585537 114.250054 
L 277.752938 112.264518 
L 277.920338 103.86236 
L 278.087738 104.445674 
L 278.255137 114.224832 
L 278.422538 101.643816 
L 278.589938 123.929553 
L 278.757338 123.429154 
L 278.924737 117.882324 
L 279.092138 121.687339 
L 279.259538 119.718948 
L 279.426938 124.189111 
L 279.761738 108.48351 
L 279.929138 100.997296 
L 280.096538 111.633961 
L 280.263937 85.011611 
L 280.431338 85.343613 
L 280.598738 97.326 
L 281.100938 76.992706 
L 281.435738 95.544976 
L 281.603138 88.334405 
L 281.770538 102.289854 
L 282.105338 94.755692 
L 282.440138 102.533631 
L 282.942338 92.382629 
L 283.109738 89.28921 
L 283.277138 80.520432 
L 283.611938 103.29393 
L 283.779338 104.109756 
L 283.946738 98.589342 
L 284.114138 114.335502 
L 284.616338 123.980579 
L 284.783738 133.306238 
L 284.951138 129.694835 
L 285.118538 117.783167 
L 285.453338 113.290316 
L 285.620738 118.67559 
L 285.788138 117.586271 
L 285.955537 99.8692 
L 286.122938 96.417694 
L 286.290338 87.402959 
L 286.457738 85.765849 
L 286.625137 85.683895 
L 286.792538 89.193172 
L 286.959938 104.747568 
L 287.294737 86.417247 
L 287.629538 114.596342 
L 287.796938 116.987841 
L 287.964337 103.289118 
L 288.466538 113.326868 
L 288.633938 112.358328 
L 288.968738 121.390389 
L 289.303538 107.099523 
L 289.470938 110.638403 
L 289.638338 106.354229 
L 289.805738 108.052928 
L 289.973138 92.446311 
L 290.140538 89.963105 
L 290.307938 93.055093 
L 290.475338 93.903471 
L 290.810138 114.943497 
L 290.977538 109.053541 
L 291.144938 124.814412 
L 291.312338 118.310111 
L 291.479737 101.500357 
L 291.647138 98.941223 
L 291.814538 93.196903 
L 291.981938 103.395889 
L 292.149338 97.465391 
L 292.484138 106.886253 
L 292.651538 100.270514 
L 292.818938 106.173957 
L 292.986338 102.064566 
L 293.153738 104.92486 
L 293.321138 110.358357 
L 293.488538 100.675388 
L 293.823338 94.471614 
L 293.990738 107.474166 
L 294.158138 86.141301 
L 294.325538 100.844666 
L 294.660338 98.01759 
L 294.995138 117.61124 
L 295.162538 119.764265 
L 295.329938 114.782658 
L 295.497338 103.103593 
L 295.832138 124.825121 
L 295.999538 112.291843 
L 296.166938 125.22271 
L 296.334338 126.586663 
L 296.501738 104.866575 
L 296.836538 117.563126 
L 297.003938 105.523645 
L 297.338738 102.04173 
L 297.506138 104.42757 
L 297.673538 102.903884 
L 297.840938 100.123074 
L 298.008338 105.874865 
L 298.175738 107.225172 
L 298.343138 97.229736 
L 298.510537 98.794782 
L 298.677938 105.647321 
L 298.845338 104.045849 
L 299.012738 94.488687 
L 299.180138 97.441029 
L 299.347538 83.511812 
L 299.849738 92.887614 
L 300.017138 89.67625 
L 300.184538 76.207105 
L 300.351938 94.135591 
L 300.519338 95.942938 
L 300.686738 89.600102 
L 300.854138 95.22745 
L 301.021538 112.095672 
L 301.188938 105.24966 
L 301.356338 105.390818 
L 301.523738 126.955958 
L 301.691138 107.781304 
L 301.858538 101.63723 
L 302.025938 113.470451 
L 302.360738 100.28707 
L 302.695538 91.181504 
L 303.365138 57.851523 
L 303.699938 79.37294 
L 303.867338 69.463524 
L 304.704338 105.101427 
L 304.871738 96.918264 
L 305.039138 81.262587 
L 305.206538 76.01432 
L 305.373938 83.653225 
L 305.541338 76.268677 
L 305.708738 81.889827 
L 305.876138 79.094308 
L 306.043538 95.85253 
L 306.210938 97.233915 
L 306.378338 96.813776 
L 306.545738 105.500556 
L 306.713138 104.985026 
L 306.880538 106.274236 
L 307.047938 110.992392 
L 307.215338 106.706709 
L 307.382738 107.255993 
L 307.550138 99.006191 
L 307.717538 96.582149 
L 308.052338 100.536315 
L 308.219738 100.048913 
L 308.554538 120.238381 
L 308.889338 97.424104 
L 309.056738 98.034284 
L 309.224138 93.296796 
L 309.391538 95.20457 
L 309.558938 91.107906 
L 309.726338 95.175473 
L 309.893738 87.41772 
L 310.061138 85.374941 
L 310.228538 98.19254 
L 310.395938 99.064196 
L 310.563338 106.405585 
L 310.730738 104.479819 
L 310.898138 106.797023 
L 311.065538 106.380064 
L 311.232938 101.764798 
L 311.400338 102.731509 
L 311.567738 112.576749 
L 312.069938 88.314643 
L 312.237338 89.965849 
L 312.404738 94.169058 
L 312.572138 92.830372 
L 312.739538 89.659564 
L 312.906938 78.415479 
L 313.074338 91.58401 
L 313.241738 86.366408 
L 313.409138 77.371419 
L 313.576538 95.159038 
L 313.911338 78.424008 
L 314.078738 99.18187 
L 314.246138 100.542853 
L 314.413538 86.745402 
L 314.580938 97.66434 
L 314.748338 99.308078 
L 314.915738 87.521513 
L 315.083138 90.085824 
L 315.250538 87.43077 
L 315.585338 89.458759 
L 315.752738 74.319645 
L 315.920138 93.165084 
L 316.087537 74.943929 
L 316.254938 88.576594 
L 316.422338 77.905243 
L 316.589738 77.730481 
L 316.924538 88.867045 
L 317.091938 77.226441 
L 317.259338 74.492447 
L 317.426738 82.812946 
L 317.594138 80.92529 
L 317.761538 76.667372 
L 317.928938 87.724191 
L 318.096338 81.110534 
L 318.263738 79.148404 
L 318.431138 95.82005 
L 318.598538 88.545265 
L 318.765938 89.467065 
L 318.933338 103.551336 
L 319.100738 80.153185 
L 319.268138 79.428513 
L 319.435538 82.752152 
L 319.602938 69.535294 
L 319.770338 67.786076 
L 319.937738 69.563056 
L 320.105138 73.254869 
L 320.272538 74.319141 
L 320.439938 73.813502 
L 320.607338 88.152618 
L 320.942138 95.828658 
L 321.109538 109.628774 
L 321.276938 109.717902 
L 321.444338 99.97517 
L 321.611738 98.77243 
L 321.779138 96.494941 
L 321.946538 103.481195 
L 322.113938 86.723188 
L 322.281338 102.981605 
L 322.616138 110.679908 
L 322.783538 120.545864 
L 322.950938 108.959552 
L 323.118338 122.225689 
L 323.285738 114.268098 
L 323.453138 128.793608 
L 323.620538 129.875085 
L 323.787938 134.335533 
L 323.955338 126.670421 
L 324.122738 134.268275 
L 324.290138 135.156867 
L 324.457538 116.573793 
L 324.624938 111.897701 
L 324.792338 99.72031 
L 325.127138 103.652529 
L 325.294538 96.05815 
L 325.461938 111.53063 
L 325.629338 115.602756 
L 325.796738 97.470104 
L 326.131538 107.398818 
L 326.298938 105.639645 
L 326.466338 101.513381 
L 326.633738 100.332112 
L 326.801138 89.313655 
L 326.968538 100.39655 
L 327.135938 85.897911 
L 327.470738 99.654646 
L 327.638138 93.193464 
L 327.805538 103.510457 
L 327.972938 97.874121 
L 328.140338 88.484085 
L 328.475138 97.11616 
L 328.642538 81.168801 
L 328.809938 77.735193 
L 329.144738 99.339851 
L 329.312138 102.645802 
L 329.479538 98.886884 
L 329.646938 98.73177 
L 329.814338 109.63928 
L 330.149138 93.598042 
L 330.483938 112.644539 
L 330.651338 94.205409 
L 330.818738 118.374967 
L 330.986138 106.071934 
L 331.153538 105.762707 
L 331.320938 122.748741 
L 331.488338 117.255846 
L 331.655738 106.950335 
L 332.157938 97.39466 
L 332.492738 107.374684 
L 332.660138 102.925064 
L 333.162338 136.469194 
L 333.329738 143.084955 
L 333.497138 121.369855 
L 333.664538 134.075973 
L 333.831938 131.24477 
L 333.999338 95.35542 
L 334.334137 109.033906 
L 334.668938 110.526828 
L 334.836338 95.338338 
L 335.171138 116.575466 
L 335.338538 107.393426 
L 335.505938 114.458636 
L 335.673338 128.9325 
L 335.840738 111.383847 
L 336.008138 113.328643 
L 336.175538 113.824782 
L 336.510338 133.800814 
L 336.677738 119.642106 
L 336.845138 124.199583 
L 337.179938 107.954194 
L 337.347338 107.622729 
L 337.514738 103.043916 
L 337.682138 83.333584 
L 338.016938 89.234924 
L 338.184338 83.741261 
L 338.351738 90.162144 
L 338.519138 102.316318 
L 338.686538 94.411103 
L 338.853938 104.333281 
L 339.021338 100.160211 
L 339.188738 102.448348 
L 339.356138 109.184398 
L 339.523538 107.356155 
L 339.690938 112.36639 
L 339.858338 97.761288 
L 340.025738 101.249512 
L 340.193138 114.129174 
L 340.360538 102.86644 
L 340.527938 102.104938 
L 340.695338 104.093868 
L 340.862738 110.369429 
L 341.030138 107.036046 
L 341.197538 111.716717 
L 341.364938 110.028724 
L 341.532338 110.093176 
L 341.867138 100.031664 
L 342.034538 117.041227 
L 342.201938 121.615315 
L 342.369338 120.841359 
L 342.536738 127.345052 
L 342.704138 110.156883 
L 342.871538 109.310872 
L 343.038938 119.865933 
L 343.206338 104.180657 
L 343.373738 119.990886 
L 343.541138 114.481966 
L 343.708538 103.652005 
L 343.875938 114.318451 
L 344.043338 112.375306 
L 344.210738 121.973761 
L 344.545538 105.519848 
L 344.712938 116.054526 
L 345.047738 98.201317 
L 345.215138 100.635664 
L 345.382538 98.224458 
L 345.549938 87.682712 
L 345.717338 104.014288 
L 345.884738 105.907311 
L 346.052138 89.966009 
L 346.219538 107.702018 
L 346.386938 113.254546 
L 346.721738 97.092602 
L 346.889138 93.238529 
L 347.223938 107.644021 
L 347.391338 106.051523 
L 347.558738 108.081333 
L 347.726138 106.894365 
L 347.893538 99.186552 
L 348.060938 110.16511 
L 348.395738 96.04136 
L 348.563138 95.00251 
L 348.730538 81.233297 
L 348.897938 82.898257 
L 349.065338 70.62317 
L 349.232738 74.887519 
L 349.567538 96.439538 
L 349.734938 98.971954 
L 350.069738 118.979344 
L 350.237138 129.60684 
L 350.404538 120.13917 
L 350.571938 133.316469 
L 350.739338 127.47579 
L 350.906738 117.131107 
L 351.241538 142.659437 
L 351.408938 136.023618 
L 351.743738 153.11121 
L 351.911138 138.591309 
L 352.078538 136.380467 
L 352.245938 144.588678 
L 352.413338 136.438766 
L 352.580738 137.164607 
L 352.915538 124.065804 
L 353.082938 137.43575 
L 353.250338 139.747585 
L 353.417738 127.408852 
L 353.585138 127.29503 
L 353.752538 134.990987 
L 353.919938 124.675499 
L 354.087338 100.134521 
L 354.254738 111.884728 
L 354.589538 92.394543 
L 354.756938 95.296053 
L 355.259138 66.616915 
L 355.426538 78.577929 
L 355.761338 48.612167 
L 355.928738 69.437948 
L 356.263538 60.745495 
L 356.430938 66.109003 
L 356.598338 60.6624 
L 356.765738 63.764641 
L 356.933138 79.618345 
L 357.100538 70.16527 
L 357.267938 73.423399 
L 357.602738 82.733222 
L 357.770138 80.073281 
L 357.937538 85.157418 
L 358.104938 109.269472 
L 358.439738 94.105061 
L 358.774538 98.605893 
L 358.941938 112.366507 
L 359.109338 90.369745 
L 359.276738 94.137208 
L 359.444138 85.593058 
L 359.611537 107.508698 
L 359.778938 110.356634 
L 359.946338 110.001919 
L 360.113738 124.748991 
L 360.281137 122.91093 
L 360.448538 103.997408 
L 360.783338 133.98229 
L 360.950738 120.386887 
L 361.118138 125.415859 
L 361.285538 144.947778 
L 361.452938 121.734056 
L 361.620338 119.070666 
L 361.787738 126.768466 
L 361.955138 109.782546 
L 362.289938 122.31978 
L 362.457338 120.729801 
L 362.624738 100.549294 
L 362.792138 98.638011 
L 362.959538 107.236666 
L 363.126938 126.543242 
L 363.461738 99.838889 
L 363.796538 121.975243 
L 364.131338 107.508769 
L 364.298738 103.971745 
L 364.466138 93.155059 
L 364.633538 102.738565 
L 364.800938 66.296473 
L 364.968338 71.165662 
L 365.135738 66.855205 
L 365.303138 59.0089 
L 365.470538 62.260702 
L 365.805338 45.883636 
L 365.972738 73.564478 
L 366.140138 82.353726 
L 366.307538 80.10784 
L 366.642338 99.322571 
L 366.809738 101.089769 
L 366.977138 88.797796 
L 367.144538 88.519378 
L 367.479338 103.525023 
L 367.646738 104.609981 
L 367.814138 91.318615 
L 367.981538 97.068898 
L 368.148938 94.098633 
L 368.316338 95.066031 
L 368.483738 99.481639 
L 368.651138 81.887781 
L 368.985938 79.391934 
L 368.985938 79.391934 
" clip-path="url(#p3c21281213)" style="fill: none; stroke: #1f77b4; stroke-width: 1.5; stroke-linecap: square"/>
   </g>
   <g id="line2d_17">
    <path d="M 34.353338 225.984645 
L 35.022938 213.808196 
L 35.692538 205.646078 
L 36.362138 200.174847 
L 37.031738 196.507371 
L 37.701338 194.048988 
L 38.370938 192.401085 
L 39.040538 191.296463 
L 39.710138 190.556012 
L 40.547138 189.963637 
L 41.551538 189.551638 
L 42.890738 189.275673 
L 44.899538 189.118317 
L 49.419338 189.055053 
L 93.947738 189.050495 
L 368.985938 189.050495 
L 368.985938 189.050495 
" clip-path="url(#p3c21281213)" style="fill: none; stroke: #ff7f0e; stroke-width: 1.5; stroke-linecap: square"/>
   </g>
   <g id="patch_3">
    <path d="M 34.185938 253.44 
L 34.185938 36 
" style="fill: none; stroke: #000000; stroke-width: 0.8; stroke-linejoin: miter; stroke-linecap: square"/>
   </g>
   <g id="patch_4">
    <path d="M 368.985938 253.44 
L 368.985938 36 
" style="fill: none; stroke: #000000; stroke-width: 0.8; stroke-linejoin: miter; stroke-linecap: square"/>
   </g>
   <g id="patch_5">
    <path d="M 34.185938 253.44 
L 368.985938 253.44 
" style="fill: none; stroke: #000000; stroke-width: 0.8; stroke-linejoin: miter; stroke-linecap: square"/>
   </g>
   <g id="patch_6">
    <path d="M 34.185938 36 
L 368.985938 36 
" style="fill: none; stroke: #000000; stroke-width: 0.8; stroke-linejoin: miter; stroke-linecap: square"/>
   </g>
   <g id="legend_1">
    <g id="patch_7">
     <path d="M 41.185938 77.078125 
L 90.885938 77.078125 
Q 92.885938 77.078125 92.885938 75.078125 
L 92.885938 43 
Q 92.885938 41 90.885938 41 
L 41.185938 41 
Q 39.185938 41 39.185938 43 
L 39.185938 75.078125 
Q 39.185938 77.078125 41.185938 77.078125 
z
" style="fill: #ffffff; opacity: 0.8; stroke: #cccccc; stroke-linejoin: miter"/>
    </g>
    <g id="line2d_18">
     <path d="M 43.185938 52.8 
L 53.185938 52.8 
L 63.185938 52.8 
" style="fill: none; stroke: #1f77b4; stroke-width: 1.5; stroke-linecap: square"/>
    </g>
    <g id="text_16">
     <!-- $\hat{y(t)}$ -->
     <g transform="translate(71.185938 56.3) scale(0.1 -0.1)">
      <defs>
       <path id="DejaVuSans-302" d="M -1831 5119 
L -1369 5119 
L -603 3944 
L -1038 3944 
L -1600 4709 
L -2163 3944 
L -2597 3944 
L -1831 5119 
z
M -1600 3584 
L -1600 3584 
z
" transform="scale(0.015625)"/>
       <path id="DejaVuSans-Oblique-79" d="M 1588 -325 
Q 1188 -997 936 -1164 
Q 684 -1331 294 -1331 
L -159 -1331 
L -63 -850 
L 269 -850 
Q 509 -850 678 -719 
Q 847 -588 1056 -206 
L 1234 128 
L 459 3500 
L 1069 3500 
L 1650 819 
L 3256 3500 
L 3859 3500 
L 1588 -325 
z
" transform="scale(0.015625)"/>
       <path id="DejaVuSans-28" d="M 1984 4856 
Q 1566 4138 1362 3434 
Q 1159 2731 1159 2009 
Q 1159 1288 1364 580 
Q 1569 -128 1984 -844 
L 1484 -844 
Q 1016 -109 783 600 
Q 550 1309 550 2009 
Q 550 2706 781 3412 
Q 1013 4119 1484 4856 
L 1984 4856 
z
" transform="scale(0.015625)"/>
       <path id="DejaVuSans-Oblique-74" d="M 2706 3500 
L 2619 3053 
L 1472 3053 
L 1100 1153 
Q 1081 1047 1072 975 
Q 1063 903 1063 863 
Q 1063 663 1183 572 
Q 1303 481 1569 481 
L 2150 481 
L 2053 0 
L 1503 0 
Q 991 0 739 200 
Q 488 400 488 806 
Q 488 878 497 964 
Q 506 1050 525 1153 
L 897 3053 
L 409 3053 
L 500 3500 
L 978 3500 
L 1172 4494 
L 1747 4494 
L 1556 3500 
L 2706 3500 
z
" transform="scale(0.015625)"/>
       <path id="DejaVuSans-29" d="M 513 4856 
L 1013 4856 
Q 1481 4119 1714 3412 
Q 1947 2706 1947 2009 
Q 1947 1309 1714 600 
Q 1481 -109 1013 -844 
L 513 -844 
Q 928 -128 1133 580 
Q 1338 1288 1338 2009 
Q 1338 2731 1133 3434 
Q 928 4138 513 4856 
z
" transform="scale(0.015625)"/>
      </defs>
      <use xlink:href="#DejaVuSans-302" transform="translate(135.682129 33.015625)"/>
      <use xlink:href="#DejaVuSans-Oblique-79" transform="translate(0 0.640625)"/>
      <use xlink:href="#DejaVuSans-28" transform="translate(59.179688 0.640625)"/>
      <use xlink:href="#DejaVuSans-Oblique-74" transform="translate(98.193359 0.640625)"/>
      <use xlink:href="#DejaVuSans-29" transform="translate(137.402344 0.640625)"/>
     </g>
    </g>
    <g id="line2d_19">
     <path d="M 43.185938 67.498437 
L 53.185938 67.498437 
L 63.185938 67.498437 
" style="fill: none; stroke: #ff7f0e; stroke-width: 1.5; stroke-linecap: square"/>
    </g>
    <g id="text_17">
     <!-- $x(t)$ -->
     <g transform="translate(71.185938 70.998437) scale(0.1 -0.1)">
      <defs>
       <path id="DejaVuSans-Oblique-78" d="M 3841 3500 
L 2234 1784 
L 3219 0 
L 2559 0 
L 1819 1388 
L 531 0 
L -166 0 
L 1556 1844 
L 641 3500 
L 1300 3500 
L 1972 2234 
L 3144 3500 
L 3841 3500 
z
" transform="scale(0.015625)"/>
      </defs>
      <use xlink:href="#DejaVuSans-Oblique-78" transform="translate(0 0.125)"/>
      <use xlink:href="#DejaVuSans-28" transform="translate(59.179688 0.125)"/>
      <use xlink:href="#DejaVuSans-Oblique-74" transform="translate(98.193359 0.125)"/>
      <use xlink:href="#DejaVuSans-29" transform="translate(137.402344 0.125)"/>
     </g>
    </g>
   </g>
  </g>
  <g id="text_18">
   <!-- Accumulate to Threshold model with input of 0.1 with rms=10  -->
   <g transform="translate(7.2 16.318125) scale(0.12 -0.12)">
    <defs>
     <path id="DejaVuSans-41" d="M 2188 4044 
L 1331 1722 
L 3047 1722 
L 2188 4044 
z
M 1831 4666 
L 2547 4666 
L 4325 0 
L 3669 0 
L 3244 1197 
L 1141 1197 
L 716 0 
L 50 0 
L 1831 4666 
z
" transform="scale(0.015625)"/>
     <path id="DejaVuSans-63" d="M 3122 3366 
L 3122 2828 
Q 2878 2963 2633 3030 
Q 2388 3097 2138 3097 
Q 1578 3097 1268 2742 
Q 959 2388 959 1747 
Q 959 1106 1268 751 
Q 1578 397 2138 397 
Q 2388 397 2633 464 
Q 2878 531 3122 666 
L 3122 134 
Q 2881 22 2623 -34 
Q 2366 -91 2075 -91 
Q 1284 -91 818 406 
Q 353 903 353 1747 
Q 353 2603 823 3093 
Q 1294 3584 2113 3584 
Q 2378 3584 2631 3529 
Q 2884 3475 3122 3366 
z
" transform="scale(0.015625)"/>
     <path id="DejaVuSans-75" d="M 544 1381 
L 544 3500 
L 1119 3500 
L 1119 1403 
Q 1119 906 1312 657 
Q 1506 409 1894 409 
Q 2359 409 2629 706 
Q 2900 1003 2900 1516 
L 2900 3500 
L 3475 3500 
L 3475 0 
L 2900 0 
L 2900 538 
Q 2691 219 2414 64 
Q 2138 -91 1772 -91 
Q 1169 -91 856 284 
Q 544 659 544 1381 
z
M 1991 3584 
L 1991 3584 
z
" transform="scale(0.015625)"/>
     <path id="DejaVuSans-6d" d="M 3328 2828 
Q 3544 3216 3844 3400 
Q 4144 3584 4550 3584 
Q 5097 3584 5394 3201 
Q 5691 2819 5691 2113 
L 5691 0 
L 5113 0 
L 5113 2094 
Q 5113 2597 4934 2840 
Q 4756 3084 4391 3084 
Q 3944 3084 3684 2787 
Q 3425 2491 3425 1978 
L 3425 0 
L 2847 0 
L 2847 2094 
Q 2847 2600 2669 2842 
Q 2491 3084 2119 3084 
Q 1678 3084 1418 2786 
Q 1159 2488 1159 1978 
L 1159 0 
L 581 0 
L 581 3500 
L 1159 3500 
L 1159 2956 
Q 1356 3278 1631 3431 
Q 1906 3584 2284 3584 
Q 2666 3584 2933 3390 
Q 3200 3197 3328 2828 
z
" transform="scale(0.015625)"/>
     <path id="DejaVuSans-6c" d="M 603 4863 
L 1178 4863 
L 1178 0 
L 603 0 
L 603 4863 
z
" transform="scale(0.015625)"/>
     <path id="DejaVuSans-61" d="M 2194 1759 
Q 1497 1759 1228 1600 
Q 959 1441 959 1056 
Q 959 750 1161 570 
Q 1363 391 1709 391 
Q 2188 391 2477 730 
Q 2766 1069 2766 1631 
L 2766 1759 
L 2194 1759 
z
M 3341 1997 
L 3341 0 
L 2766 0 
L 2766 531 
Q 2569 213 2275 61 
Q 1981 -91 1556 -91 
Q 1019 -91 701 211 
Q 384 513 384 1019 
Q 384 1609 779 1909 
Q 1175 2209 1959 2209 
L 2766 2209 
L 2766 2266 
Q 2766 2663 2505 2880 
Q 2244 3097 1772 3097 
Q 1472 3097 1187 3025 
Q 903 2953 641 2809 
L 641 3341 
Q 956 3463 1253 3523 
Q 1550 3584 1831 3584 
Q 2591 3584 2966 3190 
Q 3341 2797 3341 1997 
z
" transform="scale(0.015625)"/>
     <path id="DejaVuSans-74" d="M 1172 4494 
L 1172 3500 
L 2356 3500 
L 2356 3053 
L 1172 3053 
L 1172 1153 
Q 1172 725 1289 603 
Q 1406 481 1766 481 
L 2356 481 
L 2356 0 
L 1766 0 
Q 1100 0 847 248 
Q 594 497 594 1153 
L 594 3053 
L 172 3053 
L 172 3500 
L 594 3500 
L 594 4494 
L 1172 4494 
z
" transform="scale(0.015625)"/>
     <path id="DejaVuSans-65" d="M 3597 1894 
L 3597 1613 
L 953 1613 
Q 991 1019 1311 708 
Q 1631 397 2203 397 
Q 2534 397 2845 478 
Q 3156 559 3463 722 
L 3463 178 
Q 3153 47 2828 -22 
Q 2503 -91 2169 -91 
Q 1331 -91 842 396 
Q 353 884 353 1716 
Q 353 2575 817 3079 
Q 1281 3584 2069 3584 
Q 2775 3584 3186 3129 
Q 3597 2675 3597 1894 
z
M 3022 2063 
Q 3016 2534 2758 2815 
Q 2500 3097 2075 3097 
Q 1594 3097 1305 2825 
Q 1016 2553 972 2059 
L 3022 2063 
z
" transform="scale(0.015625)"/>
     <path id="DejaVuSans-20" transform="scale(0.015625)"/>
     <path id="DejaVuSans-6f" d="M 1959 3097 
Q 1497 3097 1228 2736 
Q 959 2375 959 1747 
Q 959 1119 1226 758 
Q 1494 397 1959 397 
Q 2419 397 2687 759 
Q 2956 1122 2956 1747 
Q 2956 2369 2687 2733 
Q 2419 3097 1959 3097 
z
M 1959 3584 
Q 2709 3584 3137 3096 
Q 3566 2609 3566 1747 
Q 3566 888 3137 398 
Q 2709 -91 1959 -91 
Q 1206 -91 779 398 
Q 353 888 353 1747 
Q 353 2609 779 3096 
Q 1206 3584 1959 3584 
z
" transform="scale(0.015625)"/>
     <path id="DejaVuSans-54" d="M -19 4666 
L 3928 4666 
L 3928 4134 
L 2272 4134 
L 2272 0 
L 1638 0 
L 1638 4134 
L -19 4134 
L -19 4666 
z
" transform="scale(0.015625)"/>
     <path id="DejaVuSans-68" d="M 3513 2113 
L 3513 0 
L 2938 0 
L 2938 2094 
Q 2938 2591 2744 2837 
Q 2550 3084 2163 3084 
Q 1697 3084 1428 2787 
Q 1159 2491 1159 1978 
L 1159 0 
L 581 0 
L 581 4863 
L 1159 4863 
L 1159 2956 
Q 1366 3272 1645 3428 
Q 1925 3584 2291 3584 
Q 2894 3584 3203 3211 
Q 3513 2838 3513 2113 
z
" transform="scale(0.015625)"/>
     <path id="DejaVuSans-72" d="M 2631 2963 
Q 2534 3019 2420 3045 
Q 2306 3072 2169 3072 
Q 1681 3072 1420 2755 
Q 1159 2438 1159 1844 
L 1159 0 
L 581 0 
L 581 3500 
L 1159 3500 
L 1159 2956 
Q 1341 3275 1631 3429 
Q 1922 3584 2338 3584 
Q 2397 3584 2469 3576 
Q 2541 3569 2628 3553 
L 2631 2963 
z
" transform="scale(0.015625)"/>
     <path id="DejaVuSans-73" d="M 2834 3397 
L 2834 2853 
Q 2591 2978 2328 3040 
Q 2066 3103 1784 3103 
Q 1356 3103 1142 2972 
Q 928 2841 928 2578 
Q 928 2378 1081 2264 
Q 1234 2150 1697 2047 
L 1894 2003 
Q 2506 1872 2764 1633 
Q 3022 1394 3022 966 
Q 3022 478 2636 193 
Q 2250 -91 1575 -91 
Q 1294 -91 989 -36 
Q 684 19 347 128 
L 347 722 
Q 666 556 975 473 
Q 1284 391 1588 391 
Q 1994 391 2212 530 
Q 2431 669 2431 922 
Q 2431 1156 2273 1281 
Q 2116 1406 1581 1522 
L 1381 1569 
Q 847 1681 609 1914 
Q 372 2147 372 2553 
Q 372 3047 722 3315 
Q 1072 3584 1716 3584 
Q 2034 3584 2315 3537 
Q 2597 3491 2834 3397 
z
" transform="scale(0.015625)"/>
     <path id="DejaVuSans-64" d="M 2906 2969 
L 2906 4863 
L 3481 4863 
L 3481 0 
L 2906 0 
L 2906 525 
Q 2725 213 2448 61 
Q 2172 -91 1784 -91 
Q 1150 -91 751 415 
Q 353 922 353 1747 
Q 353 2572 751 3078 
Q 1150 3584 1784 3584 
Q 2172 3584 2448 3432 
Q 2725 3281 2906 2969 
z
M 947 1747 
Q 947 1113 1208 752 
Q 1469 391 1925 391 
Q 2381 391 2643 752 
Q 2906 1113 2906 1747 
Q 2906 2381 2643 2742 
Q 2381 3103 1925 3103 
Q 1469 3103 1208 2742 
Q 947 2381 947 1747 
z
" transform="scale(0.015625)"/>
     <path id="DejaVuSans-77" d="M 269 3500 
L 844 3500 
L 1563 769 
L 2278 3500 
L 2956 3500 
L 3675 769 
L 4391 3500 
L 4966 3500 
L 4050 0 
L 3372 0 
L 2619 2869 
L 1863 0 
L 1184 0 
L 269 3500 
z
" transform="scale(0.015625)"/>
     <path id="DejaVuSans-69" d="M 603 3500 
L 1178 3500 
L 1178 0 
L 603 0 
L 603 3500 
z
M 603 4863 
L 1178 4863 
L 1178 4134 
L 603 4134 
L 603 4863 
z
" transform="scale(0.015625)"/>
     <path id="DejaVuSans-6e" d="M 3513 2113 
L 3513 0 
L 2938 0 
L 2938 2094 
Q 2938 2591 2744 2837 
Q 2550 3084 2163 3084 
Q 1697 3084 1428 2787 
Q 1159 2491 1159 1978 
L 1159 0 
L 581 0 
L 581 3500 
L 1159 3500 
L 1159 2956 
Q 1366 3272 1645 3428 
Q 1925 3584 2291 3584 
Q 2894 3584 3203 3211 
Q 3513 2838 3513 2113 
z
" transform="scale(0.015625)"/>
     <path id="DejaVuSans-70" d="M 1159 525 
L 1159 -1331 
L 581 -1331 
L 581 3500 
L 1159 3500 
L 1159 2969 
Q 1341 3281 1617 3432 
Q 1894 3584 2278 3584 
Q 2916 3584 3314 3078 
Q 3713 2572 3713 1747 
Q 3713 922 3314 415 
Q 2916 -91 2278 -91 
Q 1894 -91 1617 61 
Q 1341 213 1159 525 
z
M 3116 1747 
Q 3116 2381 2855 2742 
Q 2594 3103 2138 3103 
Q 1681 3103 1420 2742 
Q 1159 2381 1159 1747 
Q 1159 1113 1420 752 
Q 1681 391 2138 391 
Q 2594 391 2855 752 
Q 3116 1113 3116 1747 
z
" transform="scale(0.015625)"/>
     <path id="DejaVuSans-66" d="M 2375 4863 
L 2375 4384 
L 1825 4384 
Q 1516 4384 1395 4259 
Q 1275 4134 1275 3809 
L 1275 3500 
L 2222 3500 
L 2222 3053 
L 1275 3053 
L 1275 0 
L 697 0 
L 697 3053 
L 147 3053 
L 147 3500 
L 697 3500 
L 697 3744 
Q 697 4328 969 4595 
Q 1241 4863 1831 4863 
L 2375 4863 
z
" transform="scale(0.015625)"/>
     <path id="DejaVuSans-3d" d="M 678 2906 
L 4684 2906 
L 4684 2381 
L 678 2381 
L 678 2906 
z
M 678 1631 
L 4684 1631 
L 4684 1100 
L 678 1100 
L 678 1631 
z
" transform="scale(0.015625)"/>
    </defs>
    <use xlink:href="#DejaVuSans-41"/>
    <use xlink:href="#DejaVuSans-63" x="66.658203"/>
    <use xlink:href="#DejaVuSans-63" x="121.638672"/>
    <use xlink:href="#DejaVuSans-75" x="176.619141"/>
    <use xlink:href="#DejaVuSans-6d" x="239.998047"/>
    <use xlink:href="#DejaVuSans-75" x="337.410156"/>
    <use xlink:href="#DejaVuSans-6c" x="400.789062"/>
    <use xlink:href="#DejaVuSans-61" x="428.572266"/>
    <use xlink:href="#DejaVuSans-74" x="489.851562"/>
    <use xlink:href="#DejaVuSans-65" x="529.060547"/>
    <use xlink:href="#DejaVuSans-20" x="590.583984"/>
    <use xlink:href="#DejaVuSans-74" x="622.371094"/>
    <use xlink:href="#DejaVuSans-6f" x="661.580078"/>
    <use xlink:href="#DejaVuSans-20" x="722.761719"/>
    <use xlink:href="#DejaVuSans-54" x="754.548828"/>
    <use xlink:href="#DejaVuSans-68" x="815.632812"/>
    <use xlink:href="#DejaVuSans-72" x="879.011719"/>
    <use xlink:href="#DejaVuSans-65" x="917.875"/>
    <use xlink:href="#DejaVuSans-73" x="979.398438"/>
    <use xlink:href="#DejaVuSans-68" x="1031.498047"/>
    <use xlink:href="#DejaVuSans-6f" x="1094.876953"/>
    <use xlink:href="#DejaVuSans-6c" x="1156.058594"/>
    <use xlink:href="#DejaVuSans-64" x="1183.841797"/>
    <use xlink:href="#DejaVuSans-20" x="1247.318359"/>
    <use xlink:href="#DejaVuSans-6d" x="1279.105469"/>
    <use xlink:href="#DejaVuSans-6f" x="1376.517578"/>
    <use xlink:href="#DejaVuSans-64" x="1437.699219"/>
    <use xlink:href="#DejaVuSans-65" x="1501.175781"/>
    <use xlink:href="#DejaVuSans-6c" x="1562.699219"/>
    <use xlink:href="#DejaVuSans-20" x="1590.482422"/>
    <use xlink:href="#DejaVuSans-77" x="1622.269531"/>
    <use xlink:href="#DejaVuSans-69" x="1704.056641"/>
    <use xlink:href="#DejaVuSans-74" x="1731.839844"/>
    <use xlink:href="#DejaVuSans-68" x="1771.048828"/>
    <use xlink:href="#DejaVuSans-20" x="1834.427734"/>
    <use xlink:href="#DejaVuSans-69" x="1866.214844"/>
    <use xlink:href="#DejaVuSans-6e" x="1893.998047"/>
    <use xlink:href="#DejaVuSans-70" x="1957.376953"/>
    <use xlink:href="#DejaVuSans-75" x="2020.853516"/>
    <use xlink:href="#DejaVuSans-74" x="2084.232422"/>
    <use xlink:href="#DejaVuSans-20" x="2123.441406"/>
    <use xlink:href="#DejaVuSans-6f" x="2155.228516"/>
    <use xlink:href="#DejaVuSans-66" x="2216.410156"/>
    <use xlink:href="#DejaVuSans-20" x="2251.615234"/>
    <use xlink:href="#DejaVuSans-30" x="2283.402344"/>
    <use xlink:href="#DejaVuSans-2e" x="2347.025391"/>
    <use xlink:href="#DejaVuSans-31" x="2378.8125"/>
    <use xlink:href="#DejaVuSans-20" x="2442.435547"/>
    <use xlink:href="#DejaVuSans-77" x="2474.222656"/>
    <use xlink:href="#DejaVuSans-69" x="2556.009766"/>
    <use xlink:href="#DejaVuSans-74" x="2583.792969"/>
    <use xlink:href="#DejaVuSans-68" x="2623.001953"/>
    <use xlink:href="#DejaVuSans-20" x="2686.380859"/>
    <use xlink:href="#DejaVuSans-72" x="2718.167969"/>
    <use xlink:href="#DejaVuSans-6d" x="2757.53125"/>
    <use xlink:href="#DejaVuSans-73" x="2854.943359"/>
    <use xlink:href="#DejaVuSans-3d" x="2907.042969"/>
    <use xlink:href="#DejaVuSans-31" x="2990.832031"/>
    <use xlink:href="#DejaVuSans-30" x="3054.455078"/>
    <use xlink:href="#DejaVuSans-20" x="3118.078125"/>
   </g>
  </g>
 </g>
 <defs>
  <clipPath id="p3c21281213">
   <rect x="34.185938" y="36" width="334.8" height="217.44"/>
  </clipPath>
 </defs>
</svg>
