<?xml version="1.0" encoding="utf-8" standalone="no"?>
<!DOCTYPE svg PUBLIC "-//W3C//DTD SVG 1.1//EN"
  "http://www.w3.org/Graphics/SVG/1.1/DTD/svg11.dtd">
<svg xmlns:xlink="http://www.w3.org/1999/xlink" width="384.736875pt" height="277.318125pt" viewBox="0 0 384.736875 277.318125" xmlns="http://www.w3.org/2000/svg" version="1.1">
 <metadata>
  <rdf:RDF xmlns:dc="http://purl.org/dc/elements/1.1/" xmlns:cc="http://creativecommons.org/ns#" xmlns:rdf="http://www.w3.org/1999/02/22-rdf-syntax-ns#">
   <cc:Work>
    <dc:type rdf:resource="http://purl.org/dc/dcmitype/StillImage"/>
    <dc:date>2022-11-17T11:59:57.438159</dc:date>
    <dc:format>image/svg+xml</dc:format>
    <dc:creator>
     <cc:Agent>
      <dc:title>Matplotlib v3.6.0, https://matplotlib.org/</dc:title>
     </cc:Agent>
    </dc:creator>
   </cc:Work>
  </rdf:RDF>
 </metadata>
 <defs>
  <style type="text/css">*{stroke-linejoin: round; stroke-linecap: butt}</style>
 </defs>
 <g id="figure_1">
  <g id="patch_1">
   <path d="M 0 277.318125 
L 384.736875 277.318125 
L 384.736875 0 
L 0 0 
L 0 277.318125 
z
" style="fill: none"/>
  </g>
  <g id="axes_1">
   <g id="patch_2">
    <path d="M 30.368437 253.44 
L 365.168437 253.44 
L 365.168437 36 
L 30.368437 36 
z
" style="fill: #ffffff"/>
   </g>
   <g id="matplotlib.axis_1">
    <g id="xtick_1">
     <g id="line2d_1">
      <defs>
       <path id="mb68dcf3b25" d="M 0 0 
L 0 3.5 
" style="stroke: #000000; stroke-width: 0.8"/>
      </defs>
      <g>
       <use xlink:href="#mb68dcf3b25" x="30.368437" y="253.44" style="stroke: #000000; stroke-width: 0.8"/>
      </g>
     </g>
     <g id="text_1">
      <!-- 0.00 -->
      <g transform="translate(19.235625 268.038437) scale(0.1 -0.1)">
       <defs>
        <path id="DejaVuSans-30" d="M 2034 4250 
Q 1547 4250 1301 3770 
Q 1056 3291 1056 2328 
Q 1056 1369 1301 889 
Q 1547 409 2034 409 
Q 2525 409 2770 889 
Q 3016 1369 3016 2328 
Q 3016 3291 2770 3770 
Q 2525 4250 2034 4250 
z
M 2034 4750 
Q 2819 4750 3233 4129 
Q 3647 3509 3647 2328 
Q 3647 1150 3233 529 
Q 2819 -91 2034 -91 
Q 1250 -91 836 529 
Q 422 1150 422 2328 
Q 422 3509 836 4129 
Q 1250 4750 2034 4750 
z
" transform="scale(0.015625)"/>
        <path id="DejaVuSans-2e" d="M 684 794 
L 1344 794 
L 1344 0 
L 684 0 
L 684 794 
z
" transform="scale(0.015625)"/>
       </defs>
       <use xlink:href="#DejaVuSans-30"/>
       <use xlink:href="#DejaVuSans-2e" x="63.623047"/>
       <use xlink:href="#DejaVuSans-30" x="95.410156"/>
       <use xlink:href="#DejaVuSans-30" x="159.033203"/>
      </g>
     </g>
    </g>
    <g id="xtick_2">
     <g id="line2d_2">
      <g>
       <use xlink:href="#mb68dcf3b25" x="72.218437" y="253.44" style="stroke: #000000; stroke-width: 0.8"/>
      </g>
     </g>
     <g id="text_2">
      <!-- 0.25 -->
      <g transform="translate(61.085625 268.038437) scale(0.1 -0.1)">
       <defs>
        <path id="DejaVuSans-32" d="M 1228 531 
L 3431 531 
L 3431 0 
L 469 0 
L 469 531 
Q 828 903 1448 1529 
Q 2069 2156 2228 2338 
Q 2531 2678 2651 2914 
Q 2772 3150 2772 3378 
Q 2772 3750 2511 3984 
Q 2250 4219 1831 4219 
Q 1534 4219 1204 4116 
Q 875 4013 500 3803 
L 500 4441 
Q 881 4594 1212 4672 
Q 1544 4750 1819 4750 
Q 2544 4750 2975 4387 
Q 3406 4025 3406 3419 
Q 3406 3131 3298 2873 
Q 3191 2616 2906 2266 
Q 2828 2175 2409 1742 
Q 1991 1309 1228 531 
z
" transform="scale(0.015625)"/>
        <path id="DejaVuSans-35" d="M 691 4666 
L 3169 4666 
L 3169 4134 
L 1269 4134 
L 1269 2991 
Q 1406 3038 1543 3061 
Q 1681 3084 1819 3084 
Q 2600 3084 3056 2656 
Q 3513 2228 3513 1497 
Q 3513 744 3044 326 
Q 2575 -91 1722 -91 
Q 1428 -91 1123 -41 
Q 819 9 494 109 
L 494 744 
Q 775 591 1075 516 
Q 1375 441 1709 441 
Q 2250 441 2565 725 
Q 2881 1009 2881 1497 
Q 2881 1984 2565 2268 
Q 2250 2553 1709 2553 
Q 1456 2553 1204 2497 
Q 953 2441 691 2322 
L 691 4666 
z
" transform="scale(0.015625)"/>
       </defs>
       <use xlink:href="#DejaVuSans-30"/>
       <use xlink:href="#DejaVuSans-2e" x="63.623047"/>
       <use xlink:href="#DejaVuSans-32" x="95.410156"/>
       <use xlink:href="#DejaVuSans-35" x="159.033203"/>
      </g>
     </g>
    </g>
    <g id="xtick_3">
     <g id="line2d_3">
      <g>
       <use xlink:href="#mb68dcf3b25" x="114.068437" y="253.44" style="stroke: #000000; stroke-width: 0.8"/>
      </g>
     </g>
     <g id="text_3">
      <!-- 0.50 -->
      <g transform="translate(102.935625 268.038437) scale(0.1 -0.1)">
       <use xlink:href="#DejaVuSans-30"/>
       <use xlink:href="#DejaVuSans-2e" x="63.623047"/>
       <use xlink:href="#DejaVuSans-35" x="95.410156"/>
       <use xlink:href="#DejaVuSans-30" x="159.033203"/>
      </g>
     </g>
    </g>
    <g id="xtick_4">
     <g id="line2d_4">
      <g>
       <use xlink:href="#mb68dcf3b25" x="155.918437" y="253.44" style="stroke: #000000; stroke-width: 0.8"/>
      </g>
     </g>
     <g id="text_4">
      <!-- 0.75 -->
      <g transform="translate(144.785625 268.038437) scale(0.1 -0.1)">
       <defs>
        <path id="DejaVuSans-37" d="M 525 4666 
L 3525 4666 
L 3525 4397 
L 1831 0 
L 1172 0 
L 2766 4134 
L 525 4134 
L 525 4666 
z
" transform="scale(0.015625)"/>
       </defs>
       <use xlink:href="#DejaVuSans-30"/>
       <use xlink:href="#DejaVuSans-2e" x="63.623047"/>
       <use xlink:href="#DejaVuSans-37" x="95.410156"/>
       <use xlink:href="#DejaVuSans-35" x="159.033203"/>
      </g>
     </g>
    </g>
    <g id="xtick_5">
     <g id="line2d_5">
      <g>
       <use xlink:href="#mb68dcf3b25" x="197.768437" y="253.44" style="stroke: #000000; stroke-width: 0.8"/>
      </g>
     </g>
     <g id="text_5">
      <!-- 1.00 -->
      <g transform="translate(186.635625 268.038437) scale(0.1 -0.1)">
       <defs>
        <path id="DejaVuSans-31" d="M 794 531 
L 1825 531 
L 1825 4091 
L 703 3866 
L 703 4441 
L 1819 4666 
L 2450 4666 
L 2450 531 
L 3481 531 
L 3481 0 
L 794 0 
L 794 531 
z
" transform="scale(0.015625)"/>
       </defs>
       <use xlink:href="#DejaVuSans-31"/>
       <use xlink:href="#DejaVuSans-2e" x="63.623047"/>
       <use xlink:href="#DejaVuSans-30" x="95.410156"/>
       <use xlink:href="#DejaVuSans-30" x="159.033203"/>
      </g>
     </g>
    </g>
    <g id="xtick_6">
     <g id="line2d_6">
      <g>
       <use xlink:href="#mb68dcf3b25" x="239.618437" y="253.44" style="stroke: #000000; stroke-width: 0.8"/>
      </g>
     </g>
     <g id="text_6">
      <!-- 1.25 -->
      <g transform="translate(228.485625 268.038437) scale(0.1 -0.1)">
       <use xlink:href="#DejaVuSans-31"/>
       <use xlink:href="#DejaVuSans-2e" x="63.623047"/>
       <use xlink:href="#DejaVuSans-32" x="95.410156"/>
       <use xlink:href="#DejaVuSans-35" x="159.033203"/>
      </g>
     </g>
    </g>
    <g id="xtick_7">
     <g id="line2d_7">
      <g>
       <use xlink:href="#mb68dcf3b25" x="281.468437" y="253.44" style="stroke: #000000; stroke-width: 0.8"/>
      </g>
     </g>
     <g id="text_7">
      <!-- 1.50 -->
      <g transform="translate(270.335625 268.038437) scale(0.1 -0.1)">
       <use xlink:href="#DejaVuSans-31"/>
       <use xlink:href="#DejaVuSans-2e" x="63.623047"/>
       <use xlink:href="#DejaVuSans-35" x="95.410156"/>
       <use xlink:href="#DejaVuSans-30" x="159.033203"/>
      </g>
     </g>
    </g>
    <g id="xtick_8">
     <g id="line2d_8">
      <g>
       <use xlink:href="#mb68dcf3b25" x="323.318437" y="253.44" style="stroke: #000000; stroke-width: 0.8"/>
      </g>
     </g>
     <g id="text_8">
      <!-- 1.75 -->
      <g transform="translate(312.185625 268.038437) scale(0.1 -0.1)">
       <use xlink:href="#DejaVuSans-31"/>
       <use xlink:href="#DejaVuSans-2e" x="63.623047"/>
       <use xlink:href="#DejaVuSans-37" x="95.410156"/>
       <use xlink:href="#DejaVuSans-35" x="159.033203"/>
      </g>
     </g>
    </g>
    <g id="xtick_9">
     <g id="line2d_9">
      <g>
       <use xlink:href="#mb68dcf3b25" x="365.168437" y="253.44" style="stroke: #000000; stroke-width: 0.8"/>
      </g>
     </g>
     <g id="text_9">
      <!-- 2.00 -->
      <g transform="translate(354.035625 268.038437) scale(0.1 -0.1)">
       <use xlink:href="#DejaVuSans-32"/>
       <use xlink:href="#DejaVuSans-2e" x="63.623047"/>
       <use xlink:href="#DejaVuSans-30" x="95.410156"/>
       <use xlink:href="#DejaVuSans-30" x="159.033203"/>
      </g>
     </g>
    </g>
   </g>
   <g id="matplotlib.axis_2">
    <g id="ytick_1">
     <g id="line2d_10">
      <defs>
       <path id="m843bee7fdb" d="M 0 0 
L -3.5 0 
" style="stroke: #000000; stroke-width: 0.8"/>
      </defs>
      <g>
       <use xlink:href="#m843bee7fdb" x="30.368437" y="239.674929" style="stroke: #000000; stroke-width: 0.8"/>
      </g>
     </g>
     <g id="text_10">
      <!-- 0.0 -->
      <g transform="translate(7.465312 243.474148) scale(0.1 -0.1)">
       <use xlink:href="#DejaVuSans-30"/>
       <use xlink:href="#DejaVuSans-2e" x="63.623047"/>
       <use xlink:href="#DejaVuSans-30" x="95.410156"/>
      </g>
     </g>
    </g>
    <g id="ytick_2">
     <g id="line2d_11">
      <g>
       <use xlink:href="#m843bee7fdb" x="30.368437" y="202.630353" style="stroke: #000000; stroke-width: 0.8"/>
      </g>
     </g>
     <g id="text_11">
      <!-- 0.2 -->
      <g transform="translate(7.465312 206.429572) scale(0.1 -0.1)">
       <use xlink:href="#DejaVuSans-30"/>
       <use xlink:href="#DejaVuSans-2e" x="63.623047"/>
       <use xlink:href="#DejaVuSans-32" x="95.410156"/>
      </g>
     </g>
    </g>
    <g id="ytick_3">
     <g id="line2d_12">
      <g>
       <use xlink:href="#m843bee7fdb" x="30.368437" y="165.585777" style="stroke: #000000; stroke-width: 0.8"/>
      </g>
     </g>
     <g id="text_12">
      <!-- 0.4 -->
      <g transform="translate(7.465312 169.384996) scale(0.1 -0.1)">
       <defs>
        <path id="DejaVuSans-34" d="M 2419 4116 
L 825 1625 
L 2419 1625 
L 2419 4116 
z
M 2253 4666 
L 3047 4666 
L 3047 1625 
L 3713 1625 
L 3713 1100 
L 3047 1100 
L 3047 0 
L 2419 0 
L 2419 1100 
L 313 1100 
L 313 1709 
L 2253 4666 
z
" transform="scale(0.015625)"/>
       </defs>
       <use xlink:href="#DejaVuSans-30"/>
       <use xlink:href="#DejaVuSans-2e" x="63.623047"/>
       <use xlink:href="#DejaVuSans-34" x="95.410156"/>
      </g>
     </g>
    </g>
    <g id="ytick_4">
     <g id="line2d_13">
      <g>
       <use xlink:href="#m843bee7fdb" x="30.368437" y="128.541201" style="stroke: #000000; stroke-width: 0.8"/>
      </g>
     </g>
     <g id="text_13">
      <!-- 0.6 -->
      <g transform="translate(7.465312 132.34042) scale(0.1 -0.1)">
       <defs>
        <path id="DejaVuSans-36" d="M 2113 2584 
Q 1688 2584 1439 2293 
Q 1191 2003 1191 1497 
Q 1191 994 1439 701 
Q 1688 409 2113 409 
Q 2538 409 2786 701 
Q 3034 994 3034 1497 
Q 3034 2003 2786 2293 
Q 2538 2584 2113 2584 
z
M 3366 4563 
L 3366 3988 
Q 3128 4100 2886 4159 
Q 2644 4219 2406 4219 
Q 1781 4219 1451 3797 
Q 1122 3375 1075 2522 
Q 1259 2794 1537 2939 
Q 1816 3084 2150 3084 
Q 2853 3084 3261 2657 
Q 3669 2231 3669 1497 
Q 3669 778 3244 343 
Q 2819 -91 2113 -91 
Q 1303 -91 875 529 
Q 447 1150 447 2328 
Q 447 3434 972 4092 
Q 1497 4750 2381 4750 
Q 2619 4750 2861 4703 
Q 3103 4656 3366 4563 
z
" transform="scale(0.015625)"/>
       </defs>
       <use xlink:href="#DejaVuSans-30"/>
       <use xlink:href="#DejaVuSans-2e" x="63.623047"/>
       <use xlink:href="#DejaVuSans-36" x="95.410156"/>
      </g>
     </g>
    </g>
    <g id="ytick_5">
     <g id="line2d_14">
      <g>
       <use xlink:href="#m843bee7fdb" x="30.368437" y="91.496625" style="stroke: #000000; stroke-width: 0.8"/>
      </g>
     </g>
     <g id="text_14">
      <!-- 0.8 -->
      <g transform="translate(7.465312 95.295844) scale(0.1 -0.1)">
       <defs>
        <path id="DejaVuSans-38" d="M 2034 2216 
Q 1584 2216 1326 1975 
Q 1069 1734 1069 1313 
Q 1069 891 1326 650 
Q 1584 409 2034 409 
Q 2484 409 2743 651 
Q 3003 894 3003 1313 
Q 3003 1734 2745 1975 
Q 2488 2216 2034 2216 
z
M 1403 2484 
Q 997 2584 770 2862 
Q 544 3141 544 3541 
Q 544 4100 942 4425 
Q 1341 4750 2034 4750 
Q 2731 4750 3128 4425 
Q 3525 4100 3525 3541 
Q 3525 3141 3298 2862 
Q 3072 2584 2669 2484 
Q 3125 2378 3379 2068 
Q 3634 1759 3634 1313 
Q 3634 634 3220 271 
Q 2806 -91 2034 -91 
Q 1263 -91 848 271 
Q 434 634 434 1313 
Q 434 1759 690 2068 
Q 947 2378 1403 2484 
z
M 1172 3481 
Q 1172 3119 1398 2916 
Q 1625 2713 2034 2713 
Q 2441 2713 2670 2916 
Q 2900 3119 2900 3481 
Q 2900 3844 2670 4047 
Q 2441 4250 2034 4250 
Q 1625 4250 1398 4047 
Q 1172 3844 1172 3481 
z
" transform="scale(0.015625)"/>
       </defs>
       <use xlink:href="#DejaVuSans-30"/>
       <use xlink:href="#DejaVuSans-2e" x="63.623047"/>
       <use xlink:href="#DejaVuSans-38" x="95.410156"/>
      </g>
     </g>
    </g>
    <g id="ytick_6">
     <g id="line2d_15">
      <g>
       <use xlink:href="#m843bee7fdb" x="30.368437" y="54.452049" style="stroke: #000000; stroke-width: 0.8"/>
      </g>
     </g>
     <g id="text_15">
      <!-- 1.0 -->
      <g transform="translate(7.465312 58.251268) scale(0.1 -0.1)">
       <use xlink:href="#DejaVuSans-31"/>
       <use xlink:href="#DejaVuSans-2e" x="63.623047"/>
       <use xlink:href="#DejaVuSans-30" x="95.410156"/>
      </g>
     </g>
    </g>
   </g>
   <g id="line2d_16">
    <path d="M 30.535837 239.674929 
L 30.703237 239.386208 
L 30.870637 242.158144 
L 31.038037 235.009983 
L 31.205437 235.453911 
L 31.372837 243.556364 
L 31.540237 238.111357 
L 31.707637 238.260151 
L 32.042437 231.596039 
L 32.209837 240.152195 
L 32.377237 241.47065 
L 32.544637 230.640196 
L 32.712037 229.31742 
L 32.879437 235.584429 
L 33.046837 233.171417 
L 33.381637 217.096112 
L 33.716437 231.480289 
L 33.883837 230.275457 
L 34.218637 215.136227 
L 34.386037 224.019149 
L 34.553437 221.409301 
L 34.720837 227.592871 
L 34.888237 221.879963 
L 35.055637 228.16993 
L 35.223037 218.194283 
L 35.390437 220.070814 
L 35.557837 214.665495 
L 35.725237 218.792774 
L 35.892637 226.018479 
L 36.227437 218.803408 
L 36.394837 211.770865 
L 36.729637 224.027991 
L 36.897037 221.783128 
L 37.064437 214.479985 
L 37.399237 220.453156 
L 37.566637 214.255693 
L 37.734037 217.255702 
L 37.901437 210.459953 
L 38.068837 221.709811 
L 38.236237 221.236508 
L 38.403637 213.994607 
L 38.571037 213.06013 
L 38.738437 218.990846 
L 38.905837 217.578577 
L 39.073237 210.903692 
L 39.240637 208.905064 
L 39.575437 220.733113 
L 39.742837 213.759512 
L 39.910237 212.214675 
L 40.077637 212.782947 
L 40.245037 221.08131 
L 40.579837 209.615953 
L 40.747237 213.857883 
L 41.082037 212.357066 
L 41.249437 219.776583 
L 41.751637 207.048816 
L 41.919037 216.839826 
L 42.086437 211.20602 
L 42.253837 211.820073 
L 42.588637 217.273967 
L 42.756037 209.661764 
L 42.923437 208.473298 
L 43.090837 210.616938 
L 43.258237 201.161726 
L 43.425637 210.768373 
L 43.593037 211.721602 
L 43.760437 210.696163 
L 44.095237 195.701022 
L 44.430037 216.437196 
L 44.597437 215.684445 
L 44.764837 200.733375 
L 44.932237 207.585297 
L 45.099637 208.520789 
L 45.267037 204.697293 
L 45.434437 211.830678 
L 45.601837 212.496537 
L 45.769237 209.574468 
L 45.936637 204.185277 
L 46.104037 213.76389 
L 46.438837 209.207467 
L 46.606237 200.871672 
L 46.773637 211.836335 
L 46.941037 208.393505 
L 47.108437 207.619977 
L 47.275837 207.520558 
L 47.443237 197.82322 
L 47.945437 211.573104 
L 48.280237 206.552959 
L 48.447637 202.609195 
L 48.615037 205.630216 
L 48.782437 205.64652 
L 48.949837 192.697291 
L 49.117237 201.969793 
L 49.452037 208.558363 
L 49.619437 195.082467 
L 49.786837 198.03941 
L 49.954237 204.492775 
L 50.121637 203.655977 
L 50.289037 197.612267 
L 50.456437 202.143701 
L 50.791237 197.122552 
L 50.958637 207.9359 
L 51.293437 199.542249 
L 51.460837 197.742452 
L 51.795637 201.68414 
L 51.963037 200.506669 
L 52.130437 189.497828 
L 52.465237 200.923137 
L 52.632637 201.183741 
L 52.800037 197.596842 
L 52.967437 201.568486 
L 53.134837 193.057064 
L 53.302237 193.736466 
L 53.469637 205.317775 
L 53.804437 189.769147 
L 54.139237 199.747227 
L 54.306637 200.556852 
L 54.474037 192.699323 
L 54.641437 191.54004 
L 54.808837 199.084221 
L 54.976237 199.377776 
L 55.143637 191.898651 
L 55.311037 190.535132 
L 55.478437 199.038883 
L 55.645837 199.460356 
L 55.980637 186.442893 
L 56.315437 198.1133 
L 56.650237 188.805554 
L 56.817637 194.882749 
L 57.152437 191.137275 
L 57.319837 191.828125 
L 57.487237 197.498166 
L 57.654637 187.159557 
L 57.822037 193.760607 
L 57.989437 193.216216 
L 58.156837 195.492862 
L 58.324237 188.348055 
L 58.491637 187.502692 
L 58.659037 197.014372 
L 58.993837 184.762292 
L 59.328637 195.085322 
L 59.663437 182.093055 
L 59.830837 183.406098 
L 59.998237 181.83514 
L 60.165637 193.543055 
L 60.500437 187.796288 
L 60.835237 181.840702 
L 61.002637 191.683901 
L 61.170037 191.741952 
L 61.337437 193.275633 
L 61.504837 184.061416 
L 61.839637 185.70482 
L 62.174437 190.962543 
L 62.341837 191.084206 
L 62.509237 186.254414 
L 62.676637 191.6008 
L 62.844037 186.618784 
L 63.011437 188.820424 
L 63.346237 181.575201 
L 63.513637 185.870548 
L 63.681037 184.810299 
L 63.848437 180.539502 
L 64.015837 183.35338 
L 64.183237 184.051582 
L 64.350637 177.124044 
L 64.518037 182.233339 
L 64.685437 174.841331 
L 64.852837 181.541265 
L 65.020237 182.66574 
L 65.187637 179.654008 
L 65.355037 180.207669 
L 65.522437 178.343825 
L 65.689837 181.535648 
L 65.857237 176.357271 
L 66.024637 175.774264 
L 66.192037 182.629425 
L 66.359437 183.456456 
L 66.526837 175.780466 
L 66.694237 181.247981 
L 66.861637 177.000474 
L 67.029037 175.927823 
L 67.196437 175.790776 
L 67.363837 175.185482 
L 67.531237 184.557563 
L 67.698637 183.025473 
L 67.866037 172.671391 
L 68.033437 179.126286 
L 68.200837 171.729093 
L 68.368237 180.814348 
L 68.535637 178.093968 
L 68.703037 186.046712 
L 68.870437 175.342209 
L 69.037837 175.066462 
L 69.205237 181.902544 
L 69.540037 175.090769 
L 69.707437 181.821089 
L 70.209637 175.692526 
L 70.377037 174.218354 
L 70.544437 182.620295 
L 70.711837 173.965893 
L 71.046637 180.078697 
L 71.214037 177.987965 
L 71.381437 172.385636 
L 71.548837 170.565487 
L 71.883637 177.115072 
L 72.051037 169.412274 
L 72.218437 174.167294 
L 72.385837 170.215226 
L 72.553237 174.021653 
L 72.720637 174.269198 
L 72.888037 173.978654 
L 73.222837 162.501442 
L 73.390237 170.912884 
L 73.557637 172.933454 
L 73.725037 173.235156 
L 73.892437 171.686596 
L 74.059837 174.582932 
L 74.227237 170.961656 
L 74.394637 173.085688 
L 74.562037 170.471479 
L 74.729437 175.65944 
L 75.064237 165.916896 
L 75.231637 177.225623 
L 75.733837 166.841324 
L 75.901237 167.230512 
L 76.068637 176.015208 
L 76.236037 166.89662 
L 76.403437 166.504824 
L 76.570837 162.952555 
L 76.738237 168.215275 
L 76.905637 165.2142 
L 77.073037 176.938632 
L 77.240437 176.276276 
L 77.407837 173.817075 
L 77.742637 162.592079 
L 78.077437 170.292562 
L 78.244837 166.154202 
L 78.412237 166.827194 
L 78.747037 156.631033 
L 78.914437 164.736714 
L 79.081837 164.810228 
L 79.249237 166.679639 
L 79.584037 160.315623 
L 79.918837 166.106876 
L 80.086237 168.217825 
L 80.253637 162.360506 
L 80.421037 167.156484 
L 80.755837 163.454786 
L 80.923237 158.220647 
L 81.258037 169.116529 
L 81.425437 161.909984 
L 81.592837 162.2886 
L 81.760237 159.26882 
L 81.927637 161.072817 
L 82.262437 170.406751 
L 82.429837 168.683558 
L 82.597237 157.899304 
L 82.932037 166.988242 
L 83.099437 164.5705 
L 83.434237 153.038429 
L 83.601637 166.141676 
L 83.769037 167.445787 
L 83.936437 166.206955 
L 84.103837 160.095507 
L 84.271237 158.409203 
L 84.438637 165.792156 
L 84.606037 158.88538 
L 84.773437 160.08895 
L 84.940837 165.0459 
L 85.108237 156.178828 
L 85.275637 159.2912 
L 85.443037 157.849305 
L 85.610437 163.317695 
L 85.777837 155.540067 
L 86.112637 167.557442 
L 86.280037 161.354222 
L 86.447437 161.735117 
L 86.614837 161.263689 
L 86.782237 165.85083 
L 86.949637 152.432544 
L 87.117037 150.34649 
L 87.284437 162.991036 
L 87.451837 157.100446 
L 87.619237 161.659677 
L 87.786637 162.619255 
L 87.954037 160.822365 
L 88.288837 145.058306 
L 88.623637 167.175101 
L 88.958437 155.267566 
L 89.293237 150.934776 
L 89.460637 156.714733 
L 89.628037 158.576281 
L 89.962837 150.02891 
L 90.297637 163.314999 
L 90.632437 151.905239 
L 90.799837 153.869311 
L 90.967237 163.920031 
L 91.134637 148.454024 
L 91.469437 156.166527 
L 91.636837 142.43467 
L 91.804237 146.442504 
L 92.139037 159.432774 
L 92.306437 148.58697 
L 92.473837 149.884197 
L 92.641237 157.274044 
L 92.808637 149.267258 
L 92.976037 151.777216 
L 93.310837 146.706947 
L 93.478237 155.434342 
L 93.645637 149.836275 
L 93.813037 154.75378 
L 93.980437 144.870456 
L 94.147837 143.832092 
L 94.315237 160.318872 
L 94.482637 157.574982 
L 94.817437 140.208118 
L 94.984837 143.231155 
L 95.152237 151.8971 
L 95.319637 147.265581 
L 95.487037 150.72301 
L 95.654437 143.545878 
L 95.821837 141.9695 
L 95.989237 144.229303 
L 96.156637 151.793115 
L 96.324037 145.179431 
L 96.491437 143.269896 
L 96.658837 145.855488 
L 96.826237 151.191978 
L 96.993637 146.618598 
L 97.161037 138.140171 
L 97.328437 139.748335 
L 97.495837 143.004053 
L 97.663237 152.753005 
L 97.830637 145.38622 
L 97.998037 131.829398 
L 98.165437 141.077466 
L 98.332837 143.080795 
L 98.500237 138.249718 
L 98.835037 144.03111 
L 99.169837 141.880323 
L 99.337237 137.492882 
L 99.504637 147.792649 
L 99.672037 140.351617 
L 99.839437 140.905518 
L 100.006837 143.532836 
L 100.174237 137.82749 
L 100.509037 145.998065 
L 100.676437 145.304436 
L 100.843837 136.09183 
L 101.011237 136.979078 
L 101.178637 138.984147 
L 101.346037 138.387336 
L 101.513437 148.670912 
L 101.680837 143.231686 
L 101.848237 133.342064 
L 102.015637 131.297899 
L 102.183037 135.326818 
L 102.350437 144.274072 
L 102.517837 145.268569 
L 102.685237 136.997151 
L 102.852637 142.922366 
L 103.020037 142.457772 
L 103.187437 135.432961 
L 103.354837 141.690766 
L 103.522237 135.956749 
L 103.857037 141.516622 
L 104.024437 136.080398 
L 104.359237 144.775536 
L 104.526637 136.525989 
L 104.694037 133.771814 
L 104.861437 143.630314 
L 105.196237 130.937993 
L 105.531037 140.520882 
L 105.698437 132.291417 
L 105.865837 136.100427 
L 106.033237 133.624261 
L 106.200637 133.816625 
L 106.368037 134.416681 
L 106.535437 138.477045 
L 106.870237 126.740398 
L 107.037637 135.974268 
L 107.205037 134.327015 
L 107.372437 129.050124 
L 107.707237 144.995299 
L 107.874637 130.070267 
L 108.042037 126.406479 
L 108.209437 134.427569 
L 108.376837 134.011819 
L 108.544237 136.396089 
L 108.711637 137.168591 
L 108.879037 131.159915 
L 109.046437 129.915972 
L 109.213837 126.398327 
L 109.381237 133.546247 
L 109.548637 128.318075 
L 109.716037 129.307381 
L 109.883437 133.436482 
L 110.050838 131.998302 
L 110.218237 127.622586 
L 110.385637 127.093907 
L 110.553037 132.048589 
L 110.720437 123.422085 
L 110.887837 134.87332 
L 111.055237 131.852969 
L 111.222637 121.778287 
L 111.390037 129.041252 
L 111.557437 130.280161 
L 111.724837 124.515616 
L 111.892237 123.979071 
L 112.059637 124.126738 
L 112.394437 130.759914 
L 112.561837 121.830785 
L 112.729237 125.387156 
L 112.896637 122.002356 
L 113.064037 133.664862 
L 113.398837 124.564342 
L 113.566237 124.901694 
L 113.733637 127.566783 
L 113.901037 114.523272 
L 114.235837 124.940831 
L 114.403237 129.768164 
L 114.570637 124.378765 
L 114.738037 124.357721 
L 114.905437 123.12212 
L 115.072837 125.418161 
L 115.240237 123.283546 
L 115.407637 123.881251 
L 115.575037 114.996853 
L 115.742437 115.764325 
L 115.909837 128.068118 
L 116.244637 113.925728 
L 116.579437 123.910751 
L 116.746837 123.243629 
L 116.914237 125.308177 
L 117.249037 119.069444 
L 117.416437 125.620198 
L 117.751237 116.724113 
L 117.918637 119.645469 
L 118.086037 130.714372 
L 118.253437 126.692122 
L 118.420837 118.735424 
L 118.588237 119.661995 
L 118.755637 119.625033 
L 119.090437 123.262347 
L 119.425237 114.041784 
L 119.760037 127.978727 
L 119.927437 113.240297 
L 120.094837 115.159855 
L 120.262237 115.552368 
L 120.429637 114.405204 
L 120.597037 116.299456 
L 120.764437 124.202154 
L 120.931838 113.250539 
L 121.099238 114.802258 
L 121.434037 122.31668 
L 121.601437 115.035949 
L 121.768837 115.219517 
L 121.936237 119.135103 
L 122.103637 118.183893 
L 122.271037 121.538646 
L 122.438437 113.327732 
L 122.605837 111.396335 
L 122.773237 122.664335 
L 123.108037 112.411001 
L 123.275437 116.09959 
L 123.610237 110.095281 
L 123.945037 120.090335 
L 124.112437 109.924917 
L 124.279837 109.406458 
L 124.447237 107.378904 
L 124.614638 111.32675 
L 124.949438 109.808028 
L 125.116838 116.026006 
L 125.284238 114.052338 
L 125.451638 110.130214 
L 125.619038 115.464194 
L 125.786438 114.324451 
L 125.953837 116.26661 
L 126.288637 106.053923 
L 126.456037 114.923775 
L 126.623437 111.404128 
L 126.790837 104.112987 
L 127.125637 116.872333 
L 127.293037 103.553197 
L 127.460437 102.866471 
L 127.795237 112.323367 
L 128.130037 105.157425 
L 128.464837 107.40574 
L 128.632237 112.809176 
L 128.799637 104.752371 
L 129.134437 109.792442 
L 129.301837 114.661522 
L 129.469237 113.357029 
L 129.636637 105.806981 
L 129.804037 112.215561 
L 129.971437 109.866402 
L 130.138837 111.351076 
L 130.306237 105.607422 
L 130.473637 104.188461 
L 130.641037 117.54027 
L 130.808437 113.838773 
L 130.975837 103.934146 
L 131.143237 104.122112 
L 131.310637 109.822491 
L 131.478037 109.313095 
L 131.980237 98.648897 
L 132.147637 107.332725 
L 132.315037 105.555882 
L 132.649837 99.164428 
L 132.817237 104.596507 
L 132.984637 104.828577 
L 133.152037 99.884604 
L 133.319437 101.558985 
L 133.486837 111.367108 
L 133.654237 110.479004 
L 133.821637 103.595824 
L 133.989037 105.637204 
L 134.156437 101.247518 
L 134.323837 101.786251 
L 134.491237 101.597705 
L 134.658637 99.054716 
L 134.826037 108.969581 
L 134.993437 88.899545 
L 135.495637 103.95675 
L 135.663037 98.505245 
L 135.830437 99.983454 
L 135.997837 99.682136 
L 136.165237 97.78823 
L 136.332637 94.226523 
L 136.500037 101.292022 
L 136.667437 97.71033 
L 136.834837 102.035599 
L 137.002237 98.868203 
L 137.169637 98.315551 
L 137.337037 93.726729 
L 137.504437 100.586586 
L 137.671837 101.102872 
L 138.006637 95.418984 
L 138.174037 94.547042 
L 138.508837 99.478957 
L 138.676237 98.305855 
L 138.843637 99.223104 
L 139.011037 102.752341 
L 139.178437 99.223415 
L 139.345837 98.383247 
L 139.680637 100.31599 
L 139.848037 94.045298 
L 140.015437 94.818962 
L 140.182837 96.464531 
L 140.350237 96.44656 
L 140.517637 100.626317 
L 140.852437 87.296692 
L 141.019837 97.912597 
L 141.187237 98.952006 
L 141.354637 85.40007 
L 141.522037 94.69335 
L 141.689437 92.092038 
L 141.856837 93.706769 
L 142.024237 89.329776 
L 142.191637 93.057824 
L 142.359037 91.693164 
L 142.526437 92.326966 
L 142.693838 88.892802 
L 142.861237 89.676616 
L 143.028638 87.157621 
L 143.196037 93.828204 
L 143.363437 86.010898 
L 143.530837 92.294577 
L 143.698237 90.750072 
L 143.865637 90.309809 
L 144.033037 83.03912 
L 144.367837 89.82411 
L 144.535237 95.82249 
L 144.702637 87.117991 
L 144.870037 88.156904 
L 145.204837 104.824157 
L 145.372237 89.616346 
L 145.539637 91.358814 
L 145.707037 94.354228 
L 145.874437 85.54919 
L 146.041837 90.750262 
L 146.376637 84.016008 
L 146.544038 91.232938 
L 146.711437 89.530495 
L 146.878838 90.983458 
L 147.046237 83.320625 
L 147.381037 91.307579 
L 147.548438 81.949304 
L 147.883238 90.171815 
L 148.050637 87.553113 
L 148.218037 88.063874 
L 148.552837 83.313149 
L 148.720237 86.286302 
L 148.887637 84.05346 
L 149.055037 88.024301 
L 149.222437 85.398431 
L 149.557237 93.454678 
L 149.724637 83.602238 
L 149.892037 93.485607 
L 150.226837 87.331933 
L 150.394237 87.747471 
L 150.561637 97.349945 
L 150.729037 89.278539 
L 150.896437 91.969637 
L 151.063837 89.600466 
L 151.231237 90.233994 
L 151.398637 89.588683 
L 151.566037 88.105288 
L 151.733437 85.425057 
L 151.900837 88.639882 
L 152.068237 84.394627 
L 152.235637 84.759957 
L 152.403037 84.315333 
L 152.570437 87.683455 
L 152.905237 85.06359 
L 153.072637 89.231771 
L 153.240037 90.08388 
L 153.407437 89.458471 
L 153.574837 90.587976 
L 153.742237 79.041495 
L 153.909637 85.468759 
L 154.077037 86.829783 
L 154.244437 86.452711 
L 154.411837 79.271264 
L 154.579237 81.446016 
L 154.746637 80.845678 
L 154.914037 85.185851 
L 155.081437 84.467638 
L 155.248837 75.272258 
L 155.416237 83.227188 
L 155.583637 84.141993 
L 155.751037 79.673722 
L 155.918437 89.527358 
L 156.085837 92.466985 
L 156.253237 81.196471 
L 156.420637 87.871436 
L 156.588037 85.684587 
L 156.755437 86.883103 
L 156.922837 86.853101 
L 157.090237 82.807876 
L 157.257637 84.11497 
L 157.425037 86.421895 
L 157.592437 82.568729 
L 157.759837 83.642738 
L 157.927237 81.704809 
L 158.094637 87.05418 
L 158.262037 78.753816 
L 158.429437 85.774607 
L 158.596837 82.708263 
L 158.931637 85.515763 
L 159.099037 79.855733 
L 159.266437 83.335764 
L 159.601237 79.501495 
L 159.936037 86.350597 
L 160.103437 79.000935 
L 160.270837 86.374678 
L 160.605637 74.854725 
L 160.773037 84.466736 
L 160.940437 78.651444 
L 161.107837 77.620861 
L 161.275237 78.745348 
L 161.442637 86.853426 
L 161.610037 76.13555 
L 161.944837 84.799743 
L 162.112237 76.201956 
L 162.279637 76.596746 
L 162.447037 85.028042 
L 162.614437 80.972793 
L 162.781837 72.119435 
L 162.949237 79.125562 
L 163.116637 77.922992 
L 163.284037 80.35652 
L 163.451437 85.30857 
L 163.618837 73.516045 
L 163.786237 71.104781 
L 163.953637 75.527405 
L 164.121037 76.856718 
L 164.288437 73.576885 
L 164.455837 80.47458 
L 164.623237 72.776996 
L 164.790637 77.441774 
L 164.958037 75.203525 
L 165.125437 70.107362 
L 165.292837 77.037224 
L 165.460237 75.575603 
L 165.627637 79.820834 
L 165.795037 73.359012 
L 165.962437 73.74287 
L 166.129837 73.189521 
L 166.297237 72.016357 
L 166.464637 73.651271 
L 166.632037 76.392673 
L 166.799437 71.659971 
L 167.134237 75.238757 
L 167.469037 67.599497 
L 167.803837 77.930671 
L 167.971237 68.986143 
L 168.138637 72.316533 
L 168.306037 80.487701 
L 168.473437 74.66188 
L 168.640837 78.806057 
L 168.808237 73.128172 
L 168.975637 73.063771 
L 169.143037 69.991329 
L 169.477837 76.132574 
L 169.645237 65.416984 
L 169.980037 70.816778 
L 170.147437 68.224757 
L 170.482237 75.975044 
L 170.984437 66.288594 
L 171.151837 72.032552 
L 171.319237 71.974879 
L 171.486637 65.760916 
L 171.654037 70.847758 
L 171.821437 68.903107 
L 172.156237 74.587441 
L 172.323637 70.80926 
L 172.491037 69.94037 
L 172.658437 74.254802 
L 172.825837 68.690268 
L 172.993237 71.251021 
L 173.160637 67.297682 
L 173.328037 73.077233 
L 173.495437 72.256457 
L 173.662837 67.461466 
L 173.997637 72.042916 
L 174.165037 62.738621 
L 174.332437 70.763149 
L 174.499837 72.484031 
L 174.667237 63.753136 
L 174.834637 72.904882 
L 175.002037 69.107498 
L 175.169437 62.563833 
L 175.336837 73.614379 
L 175.504237 75.623411 
L 175.671637 63.430317 
L 175.839037 62.43573 
L 176.006437 74.8932 
L 176.173837 78.247021 
L 176.341237 67.585705 
L 176.508637 70.923255 
L 176.676037 69.936273 
L 176.843437 68.041864 
L 177.010837 71.18445 
L 177.178237 66.760499 
L 177.513037 75.146455 
L 177.680437 69.744813 
L 178.015237 68.151152 
L 178.182637 72.841931 
L 178.517437 66.98881 
L 178.684837 70.205372 
L 179.019637 63.861813 
L 179.187037 71.315927 
L 179.354437 64.188577 
L 179.521837 63.457639 
L 179.689237 74.412613 
L 179.856637 74.348572 
L 180.024037 63.170584 
L 180.191437 63.304036 
L 180.358837 69.901633 
L 180.526237 71.21132 
L 180.693637 69.961386 
L 180.861037 64.990505 
L 181.028437 69.517821 
L 181.363237 67.998345 
L 181.530637 67.811092 
L 181.698037 60.08981 
L 181.865437 67.637243 
L 182.032837 67.260215 
L 182.200237 61.878644 
L 182.367637 64.434402 
L 182.535037 69.924968 
L 182.869837 57.131097 
L 183.037237 72.537977 
L 183.372037 60.384418 
L 183.539437 68.356978 
L 183.706837 70.85918 
L 183.874237 63.511428 
L 184.041637 69.282547 
L 184.209037 66.191834 
L 184.376437 65.875629 
L 184.543837 69.625151 
L 184.711237 63.912031 
L 184.878637 69.434542 
L 185.046037 61.37421 
L 185.213437 69.091163 
L 185.380837 66.950593 
L 185.548237 55.891614 
L 185.715637 67.898867 
L 186.050437 61.646451 
L 186.217837 68.434715 
L 186.385237 67.105397 
L 186.552637 58.241694 
L 186.887437 69.345189 
L 187.222237 57.422398 
L 187.389637 66.712585 
L 187.557037 65.36263 
L 187.724437 64.959649 
L 187.891837 66.292314 
L 188.059237 59.668681 
L 188.226637 65.944898 
L 188.561437 63.13508 
L 188.728837 59.005763 
L 188.896237 65.832111 
L 189.063637 61.242409 
L 189.231037 68.906805 
L 189.398438 61.674562 
L 189.565837 62.621094 
L 189.733238 69.506877 
L 189.900637 63.173908 
L 190.068037 63.520297 
L 190.235437 61.569779 
L 190.570237 63.089973 
L 190.737637 69.47481 
L 190.905037 60.290497 
L 191.072437 64.862693 
L 191.239837 63.284559 
L 191.574637 66.179511 
L 191.742037 58.551535 
L 192.076837 65.375683 
L 192.411637 58.909891 
L 192.746437 62.586336 
L 192.913837 66.158906 
L 193.081237 61.562177 
L 193.248637 66.505067 
L 193.416037 64.571549 
L 193.583437 60.44031 
L 193.750837 59.20127 
L 193.918237 63.711069 
L 194.085637 65.149173 
L 194.253037 59.8066 
L 194.420437 60.469859 
L 194.587837 60.361203 
L 194.755237 74.808503 
L 194.922637 56.546505 
L 195.090037 54.21315 
L 195.257437 66.812846 
L 195.424837 69.618292 
L 195.592237 55.812534 
L 195.759637 60.473427 
L 195.927037 60.986561 
L 196.094437 62.492901 
L 196.261837 62.934986 
L 196.429237 70.569085 
L 196.596637 57.502679 
L 196.931437 61.267291 
L 197.098837 65.849604 
L 197.433637 59.92138 
L 197.601037 61.452745 
L 197.768437 64.749035 
L 197.935837 58.859784 
L 198.103237 60.198454 
L 198.438037 63.778648 
L 198.605437 56.324154 
L 198.772837 65.557303 
L 198.940237 56.712042 
L 199.107637 61.610617 
L 199.275037 70.468046 
L 199.442437 55.143596 
L 199.777237 67.453074 
L 199.944637 61.403592 
L 200.112037 62.499889 
L 200.279438 64.903624 
L 200.614238 59.050938 
L 200.949038 65.461097 
L 201.116437 59.426847 
L 201.283838 60.169806 
L 201.618638 65.618575 
L 201.953437 54.804473 
L 202.120837 64.128437 
L 202.288237 66.353714 
L 202.455637 59.581373 
L 202.623037 62.269222 
L 202.790437 70.654427 
L 203.125237 58.460886 
L 203.292637 62.923721 
L 203.460037 63.948216 
L 203.627437 63.390044 
L 203.794837 59.998237 
L 203.962237 65.731589 
L 204.129637 59.048412 
L 204.297037 59.183803 
L 204.464437 64.953797 
L 204.631837 64.205276 
L 204.966637 57.577467 
L 205.301437 67.099941 
L 205.468837 54.159068 
L 205.803637 64.509905 
L 206.138437 61.266586 
L 206.305837 54.921778 
L 206.473237 58.342095 
L 206.640637 67.641484 
L 206.808037 57.300446 
L 206.975437 57.828935 
L 207.142837 67.875263 
L 207.310237 62.868919 
L 207.477637 65.178609 
L 207.645037 63.762862 
L 207.812437 57.208139 
L 208.147237 65.820823 
L 208.314637 54.784446 
L 208.482037 56.849553 
L 208.649437 64.540136 
L 208.816837 60.172601 
L 208.984237 59.527298 
L 209.151637 61.284081 
L 209.319037 54.114722 
L 209.653837 66.641527 
L 209.821237 53.495408 
L 210.156037 67.958736 
L 210.323437 57.479411 
L 210.490837 58.372513 
L 210.658237 62.420445 
L 210.825637 58.474002 
L 210.993037 59.95037 
L 211.160438 59.150284 
L 211.327837 64.606301 
L 211.662637 58.174083 
L 211.830038 60.692007 
L 211.997437 61.425788 
L 212.164837 57.66188 
L 212.332237 62.167213 
L 212.499637 61.856852 
L 212.667037 60.980571 
L 212.834437 62.812095 
L 213.001837 58.869343 
L 213.169237 59.224274 
L 213.336637 65.173165 
L 213.504037 57.237591 
L 213.838837 61.425139 
L 214.006237 55.697617 
L 214.173637 64.702324 
L 214.341037 60.926266 
L 214.508437 54.498493 
L 214.675837 59.016866 
L 215.178037 61.720307 
L 215.512837 56.952545 
L 215.680237 66.280706 
L 215.847637 53.677576 
L 216.015037 61.551948 
L 216.182437 62.815878 
L 216.349837 57.806336 
L 216.684637 70.122726 
L 216.852037 54.964894 
L 217.019437 62.522985 
L 217.186837 63.106378 
L 217.354237 57.374412 
L 217.521637 63.339684 
L 217.856437 55.138612 
L 218.023837 61.850568 
L 218.358637 60.282072 
L 218.526038 68.021081 
L 218.693437 56.917962 
L 218.860838 53.820975 
L 219.028237 69.401691 
L 219.195638 56.188145 
L 219.363037 57.314293 
L 219.530438 65.557589 
L 219.865238 54.869225 
L 220.032637 63.886873 
L 220.200038 57.531866 
L 220.367437 58.133039 
L 220.534838 63.874415 
L 220.702237 58.828687 
L 220.869638 62.698673 
L 221.037037 59.526905 
L 221.371837 65.454942 
L 221.539237 50.424421 
L 221.874037 66.150074 
L 222.041437 54.355459 
L 222.208837 60.354845 
L 222.376237 59.669275 
L 222.543637 60.838151 
L 222.711037 64.770187 
L 223.045837 54.719363 
L 223.213237 64.1856 
L 223.548037 55.204915 
L 223.715437 64.453272 
L 224.050237 57.24372 
L 224.217637 60.4539 
L 224.385037 58.252883 
L 224.552437 59.324059 
L 225.054637 55.806783 
L 225.222037 58.880244 
L 225.389437 56.040279 
L 225.724237 63.983642 
L 225.891637 58.157763 
L 226.059037 59.515021 
L 226.226437 56.221795 
L 226.561237 63.551572 
L 226.728637 54.21253 
L 226.896037 61.30793 
L 227.063437 59.607841 
L 227.230837 53.57452 
L 227.565637 63.963586 
L 227.733037 55.65741 
L 227.900437 61.749288 
L 228.067837 62.98338 
L 228.235237 57.340794 
L 228.402637 60.452146 
L 228.570037 57.236139 
L 228.737437 62.510738 
L 228.904837 63.652686 
L 229.072237 52.205871 
L 229.239637 54.596053 
L 229.407037 63.711244 
L 229.574437 60.520323 
L 229.741837 54.322498 
L 229.909237 59.949939 
L 230.076637 58.949415 
L 230.244037 59.539219 
L 230.411437 60.856656 
L 230.578837 55.403119 
L 230.746237 62.688179 
L 230.913637 62.320453 
L 231.081037 54.558257 
L 231.248437 62.940217 
L 231.415837 57.147564 
L 231.583237 61.580072 
L 231.750637 60.69964 
L 231.918037 52.796846 
L 232.085437 58.52781 
L 232.252837 58.750782 
L 232.420237 55.003903 
L 232.755037 61.007582 
L 232.922437 53.44115 
L 233.257237 66.579917 
L 233.424637 49.738577 
L 233.759437 63.703717 
L 234.261637 56.549826 
L 234.429037 58.803555 
L 234.596437 62.947704 
L 234.763837 57.281046 
L 234.931237 58.416121 
L 235.098637 61.192233 
L 235.266037 58.368765 
L 235.433437 59.327439 
L 235.600837 62.51297 
L 235.768237 52.056756 
L 236.103037 57.738585 
L 236.270437 60.687423 
L 236.437838 60.59233 
L 236.772638 55.132737 
L 236.940037 63.94184 
L 237.107438 57.12695 
L 237.274837 56.794158 
L 237.609637 59.040682 
L 237.777038 54.30948 
L 237.944437 61.865481 
L 238.279237 57.792907 
L 238.446638 61.698333 
L 238.781437 60.519183 
L 238.948837 61.039956 
L 239.116237 60.635678 
L 239.283637 54.636954 
L 239.451037 66.004853 
L 239.785837 54.212714 
L 240.288037 64.090173 
L 240.455437 54.615188 
L 240.622837 57.094625 
L 240.790237 64.306897 
L 240.957637 56.30903 
L 241.125037 60.209165 
L 241.292437 60.666727 
L 241.459837 57.784604 
L 241.627237 62.687899 
L 241.794637 62.330151 
L 241.962037 51.335174 
L 242.129437 64.342921 
L 242.296837 56.846327 
L 242.464237 57.711629 
L 242.631637 55.610705 
L 242.799037 62.191979 
L 242.966437 56.583354 
L 243.133837 57.282703 
L 243.301237 61.776262 
L 243.468637 54.157975 
L 243.636037 60.643027 
L 243.803438 60.057184 
L 243.970837 53.856438 
L 244.138238 59.893221 
L 244.305637 57.254973 
L 244.473038 52.667667 
L 244.640437 62.136289 
L 244.807837 61.508861 
L 244.975237 54.416434 
L 245.310037 63.065108 
L 245.477437 56.672257 
L 245.644837 55.239217 
L 245.979637 66.158539 
L 246.147037 49.134687 
L 246.314437 59.81448 
L 246.481837 59.3307 
L 246.649237 50.085434 
L 246.984037 64.385293 
L 247.151437 58.086372 
L 247.318837 58.128927 
L 247.486237 58.654775 
L 247.821037 64.718175 
L 248.155837 55.330797 
L 248.323237 60.448105 
L 248.658037 51.681983 
L 248.825437 57.396098 
L 248.992837 53.875336 
L 249.327637 61.882505 
L 249.495037 50.562239 
L 249.829837 62.002732 
L 249.997237 59.998624 
L 250.164637 54.93492 
L 250.332037 60.565907 
L 250.499437 58.451456 
L 250.666837 59.835312 
L 250.834237 59.215333 
L 251.001637 51.223386 
L 251.503837 64.856268 
L 251.671237 52.368273 
L 251.838637 52.909699 
L 252.006037 61.781427 
L 252.173437 59.735235 
L 252.340837 59.223473 
L 252.508237 54.073167 
L 252.843037 60.389068 
L 253.010437 57.413539 
L 253.177837 52.272249 
L 253.345237 62.981609 
L 253.512637 59.096108 
L 253.680037 51.267051 
L 254.014837 63.901288 
L 254.182237 53.260568 
L 254.349638 56.708085 
L 254.517037 66.191276 
L 254.684438 49.554 
L 255.019238 58.219165 
L 255.186637 57.565794 
L 255.354038 59.614029 
L 255.521437 56.207124 
L 255.688838 58.52517 
L 256.023638 55.229271 
L 256.191037 59.030036 
L 256.358437 58.858143 
L 256.525837 57.307122 
L 256.860637 60.820004 
L 257.028037 58.964896 
L 257.195437 53.480789 
L 257.362838 54.511312 
L 257.530237 65.364823 
L 257.865037 51.092886 
L 258.032438 60.41851 
L 258.199838 57.752338 
L 258.367237 60.627469 
L 258.702038 56.452388 
L 258.869438 57.443714 
L 259.036837 61.786989 
L 259.204237 59.757322 
L 259.371638 50.074239 
L 259.539038 65.720627 
L 259.706437 60.607748 
L 259.873837 50.634469 
L 260.041238 62.401051 
L 260.208638 58.158054 
L 260.376037 57.500647 
L 260.710838 62.124687 
L 260.878238 55.98492 
L 261.045637 62.912555 
L 261.213037 56.51336 
L 261.380438 59.052561 
L 261.547838 54.705647 
L 261.715238 62.687106 
L 262.050038 52.426447 
L 262.384838 61.730633 
L 262.552237 56.357015 
L 262.719638 57.58968 
L 262.887038 52.27971 
L 263.054438 61.282066 
L 263.221837 62.978028 
L 263.389238 51.818146 
L 263.724038 63.49462 
L 263.891437 49.227555 
L 264.226237 61.566722 
L 264.393638 55.343108 
L 264.561037 57.282281 
L 264.728438 55.938012 
L 264.895837 61.48366 
L 265.063238 56.9183 
L 265.230638 56.080204 
L 265.398038 60.91277 
L 265.565437 60.604918 
L 265.732838 57.796469 
L 265.900238 62.596263 
L 266.067637 58.721416 
L 266.235037 57.978314 
L 266.402437 62.9617 
L 266.569838 57.922915 
L 266.737237 56.297957 
L 266.904637 62.917038 
L 267.239438 53.85287 
L 267.406837 61.522495 
L 267.574237 61.567609 
L 267.741637 53.823108 
L 267.909038 61.606318 
L 268.076437 59.347309 
L 268.243837 63.382737 
L 268.411237 58.728308 
L 268.578638 59.255931 
L 268.746037 57.579287 
L 268.913437 59.575274 
L 269.080837 53.865191 
L 269.415638 60.388681 
L 269.583037 50.051842 
L 269.750437 61.370605 
L 269.917838 61.987865 
L 270.085238 50.368109 
L 270.420037 60.52534 
L 270.587438 60.268253 
L 270.754838 55.276911 
L 271.089637 58.92212 
L 271.257038 54.985098 
L 271.424438 59.084588 
L 271.591837 52.817517 
L 271.926638 62.981426 
L 272.094037 51.471895 
L 272.261437 59.050897 
L 272.428837 57.189387 
L 272.596238 52.755098 
L 272.763637 58.421357 
L 272.931038 60.255245 
L 273.098437 51.662414 
L 273.265838 56.091573 
L 273.433237 65.093183 
L 273.600638 47.792344 
L 273.935437 63.217399 
L 274.102837 52.348468 
L 274.270238 55.546037 
L 274.437637 68.517977 
L 274.605037 50.645071 
L 274.772437 53.584183 
L 274.939838 63.534805 
L 275.107237 55.660437 
L 275.274637 56.552051 
L 275.442037 59.07765 
L 275.609438 54.023939 
L 275.776837 59.036528 
L 275.944237 58.678222 
L 276.111637 53.647732 
L 276.279038 60.298402 
L 276.446438 60.909955 
L 276.613837 53.766952 
L 276.781237 55.1032 
L 276.948638 57.540836 
L 277.116038 56.724863 
L 277.283437 54.646439 
L 277.450837 54.758779 
L 277.618238 57.461491 
L 277.785638 57.793551 
L 277.953037 55.414749 
L 278.120437 61.22117 
L 278.455238 51.738998 
L 278.622637 61.775081 
L 278.957438 53.99775 
L 279.124838 63.693055 
L 279.292237 50.528195 
L 279.627038 61.305808 
L 279.794438 52.996375 
L 279.961838 58.998292 
L 280.129237 60.249505 
L 280.296638 52.211547 
L 280.464038 61.143908 
L 280.631438 62.178355 
L 280.798837 53.700542 
L 280.966238 53.961448 
L 281.133638 58.948284 
L 281.301038 54.574157 
L 281.468437 57.990382 
L 281.635838 57.416759 
L 281.803237 55.277279 
L 282.138037 63.367116 
L 282.305438 55.267446 
L 282.640238 58.107425 
L 282.807637 65.709644 
L 283.142437 54.270348 
L 283.309838 63.953242 
L 283.477238 55.236463 
L 283.644637 59.218731 
L 283.812037 59.604275 
L 283.979438 51.967776 
L 284.146838 54.421739 
L 284.314237 67.63975 
L 284.481637 50.038649 
L 284.649038 58.980905 
L 284.816438 59.710173 
L 284.983837 51.869285 
L 285.151237 62.661172 
L 285.318638 58.866319 
L 285.486038 51.114194 
L 285.653437 60.911523 
L 285.820837 55.589515 
L 285.988238 56.803675 
L 286.155638 62.057434 
L 286.323037 55.507083 
L 286.490437 55.505325 
L 286.657838 60.994079 
L 286.825237 52.659166 
L 287.160037 63.469117 
L 287.327438 54.462726 
L 287.494837 58.8409 
L 287.662237 53.406263 
L 287.829637 58.768884 
L 287.997037 56.444364 
L 288.164437 55.751871 
L 288.331837 61.561821 
L 288.499237 59.048016 
L 288.666637 52.264096 
L 289.001437 64.5965 
L 289.168837 52.6081 
L 289.336237 56.017701 
L 289.503637 63.134866 
L 289.671037 57.250677 
L 289.838437 56.133192 
L 290.005837 51.532379 
L 290.173237 53.208154 
L 290.340637 64.047937 
L 290.508038 51.806759 
L 290.675437 52.223534 
L 290.842837 63.839834 
L 291.010237 57.85225 
L 291.177638 58.860866 
L 291.345037 58.113849 
L 291.512437 56.241292 
L 291.847238 62.506115 
L 292.014637 52.932997 
L 292.182037 58.500669 
L 292.349437 53.681472 
L 292.516838 60.580328 
L 292.684237 61.874364 
L 292.851637 48.475629 
L 293.186438 64.153287 
L 293.353837 61.515125 
L 293.521237 51.467426 
L 293.856038 60.022325 
L 294.023438 58.777501 
L 294.190837 55.594331 
L 294.358237 56.947191 
L 294.525638 65.463607 
L 294.693037 54.382907 
L 294.860437 54.064963 
L 295.027837 58.459449 
L 295.195238 57.543145 
L 295.362637 59.781022 
L 295.530037 58.069846 
L 295.697437 54.021205 
L 295.864837 60.243672 
L 296.032237 56.349408 
L 296.367037 57.680241 
L 296.534437 53.928449 
L 296.701837 53.948291 
L 296.869237 59.923503 
L 297.036637 54.467462 
L 297.204037 53.496022 
L 297.371437 63.129716 
L 297.706237 55.065944 
L 297.873637 61.114275 
L 298.041037 60.474623 
L 298.208438 58.868493 
L 298.375837 58.91125 
L 298.543237 54.256478 
L 298.710637 54.853736 
L 298.878038 61.616471 
L 299.045437 62.455583 
L 299.212837 50.957102 
L 299.380237 64.290784 
L 299.547638 63.75671 
L 299.715037 54.810323 
L 299.882437 58.818913 
L 300.049837 59.232859 
L 300.217238 53.520738 
L 300.552037 61.026476 
L 300.719437 52.195809 
L 300.886838 52.531814 
L 301.054237 60.474087 
L 301.221637 57.103101 
L 301.389037 58.784578 
L 301.556438 55.146946 
L 301.723838 57.940445 
L 301.891237 57.398565 
L 302.058637 62.088005 
L 302.226038 57.250259 
L 302.393438 55.920534 
L 302.560837 60.758641 
L 302.728237 56.295576 
L 302.895638 58.294115 
L 303.063038 57.193584 
L 303.230437 54.66105 
L 303.397837 58.629812 
L 303.565238 58.48995 
L 303.732637 57.837283 
L 303.900037 56.361523 
L 304.234838 63.529145 
L 304.569637 52.865943 
L 304.737037 61.67591 
L 304.904438 51.358555 
L 305.239238 61.339225 
L 305.406637 63.458109 
L 305.574037 56.345375 
L 305.741437 55.557118 
L 305.908838 63.53385 
L 306.076237 59.545823 
L 306.243637 58.55872 
L 306.411037 55.91216 
L 306.578438 55.397144 
L 306.745837 64.685567 
L 306.913237 52.602957 
L 307.080637 52.464676 
L 307.248038 58.696299 
L 307.415437 56.350795 
L 307.582837 58.183921 
L 307.750237 55.992896 
L 307.917638 57.35589 
L 308.085037 60.55857 
L 308.252437 55.430186 
L 308.419837 56.055136 
L 308.587238 59.366766 
L 308.754638 58.50986 
L 308.922037 56.22071 
L 309.089437 56.009045 
L 309.256837 59.794428 
L 309.424238 58.867986 
L 309.591637 54.597051 
L 309.759037 59.64503 
L 309.926437 55.610341 
L 310.093838 58.103199 
L 310.261237 58.392616 
L 310.428637 55.570694 
L 310.596037 61.248013 
L 310.763438 58.632842 
L 310.930837 51.893978 
L 311.098237 60.668084 
L 311.265637 61.858463 
L 311.433038 51.4839 
L 311.600437 57.010727 
L 311.767837 58.125427 
L 311.935237 55.223239 
L 312.102638 58.68455 
L 312.270037 56.838773 
L 312.437437 56.267684 
L 312.604837 53.674468 
L 312.772238 64.717289 
L 312.939637 54.388064 
L 313.107037 54.009872 
L 313.274437 60.648045 
L 313.609237 56.200548 
L 313.776637 57.526549 
L 313.944037 53.004449 
L 314.278837 60.986781 
L 314.446237 50.171285 
L 314.781037 59.527566 
L 314.948437 57.554857 
L 315.115837 51.745656 
L 315.283237 60.76902 
L 315.450637 60.138583 
L 315.618037 56.077209 
L 315.785438 57.27483 
L 315.952837 50.505619 
L 316.287637 60.225541 
L 316.455038 51.266238 
L 316.622437 54.434487 
L 316.789837 63.614753 
L 317.124638 55.57409 
L 317.292037 58.964127 
L 317.459437 59.715328 
L 317.626837 56.129599 
L 317.794238 60.73203 
L 317.961637 51.417021 
L 318.296437 57.689882 
L 318.463838 65.553182 
L 318.631237 57.772651 
L 318.798637 57.984066 
L 318.966037 58.922467 
L 319.133438 55.729803 
L 319.300838 60.91403 
L 319.635637 52.398651 
L 319.803038 61.210268 
L 319.970438 63.51396 
L 320.305237 53.538452 
L 320.472638 61.811669 
L 320.807437 56.832227 
L 320.974837 59.301828 
L 321.142238 54.394274 
L 321.309637 55.68781 
L 321.477037 62.977286 
L 321.644437 61.728293 
L 321.811838 50.249362 
L 321.979237 59.152818 
L 322.146637 60.848195 
L 322.314037 52.700688 
L 322.481437 58.283588 
L 322.648837 55.379364 
L 322.816237 60.288936 
L 322.983637 61.857232 
L 323.151037 51.833718 
L 323.318437 54.079426 
L 323.485838 66.062471 
L 323.820637 50.743856 
L 323.988037 61.199739 
L 324.155438 55.818766 
L 324.490237 61.537745 
L 324.657637 53.762027 
L 324.992437 57.219541 
L 325.159837 62.335464 
L 325.327237 55.4599 
L 325.494638 55.905372 
L 325.662037 57.942153 
L 325.829437 61.452764 
L 326.164238 54.734595 
L 326.331637 61.517891 
L 326.499037 59.819623 
L 326.666437 50.991744 
L 326.833838 60.298931 
L 327.001238 62.234469 
L 327.168637 51.895209 
L 327.336037 56.104702 
L 327.503438 63.261792 
L 327.838237 52.853863 
L 328.005637 62.797311 
L 328.173038 56.828165 
L 328.340438 55.264527 
L 328.507837 56.777531 
L 328.675237 55.421952 
L 329.010038 61.211847 
L 329.177437 53.666194 
L 329.512238 62.751075 
L 329.679638 55.384137 
L 329.847037 56.882468 
L 330.014437 61.253253 
L 330.181838 51.715301 
L 330.349238 55.080635 
L 330.516637 62.490403 
L 330.684037 48.900837 
L 330.851437 62.599374 
L 331.018837 62.285162 
L 331.186237 45.883636 
L 331.353637 59.869298 
L 331.521037 62.166532 
L 331.688437 47.991322 
L 332.023237 60.469916 
L 332.190637 57.550776 
L 332.358037 57.442451 
L 332.692837 60.956697 
L 332.860237 58.330568 
L 333.027637 58.948931 
L 333.195037 58.022301 
L 333.362437 55.085028 
L 333.529837 55.627782 
L 333.864637 62.698292 
L 334.032038 49.805232 
L 334.366837 63.433654 
L 334.534237 56.873699 
L 334.701638 55.422627 
L 334.869037 61.946767 
L 335.036437 57.028036 
L 335.203837 64.260717 
L 335.371238 51.776587 
L 335.538637 59.526326 
L 335.706037 57.792292 
L 336.040838 59.03588 
L 336.208237 50.062289 
L 336.543037 58.541697 
L 336.710438 60.77057 
L 336.877837 57.371551 
L 337.045237 58.002899 
L 337.212637 57.123727 
L 337.380038 51.557864 
L 337.714837 58.227251 
L 337.882237 53.967337 
L 338.049638 53.375503 
L 338.217038 64.681895 
L 338.384437 52.851135 
L 338.551837 51.665683 
L 338.719238 61.73646 
L 338.886637 57.879453 
L 339.221437 60.868715 
L 339.388838 59.950853 
L 339.556237 53.887631 
L 339.891037 59.262718 
L 340.058437 53.381833 
L 340.225837 55.18526 
L 340.393237 63.202831 
L 340.728037 55.362032 
L 340.895437 59.75413 
L 341.062838 53.427307 
L 341.230237 63.234256 
L 341.565037 52.085139 
L 341.732438 60.63772 
L 341.899837 54.73921 
L 342.067237 54.036409 
L 342.402038 62.028585 
L 342.569437 50.105095 
L 342.736837 59.069898 
L 343.239037 53.788599 
L 343.406437 62.866992 
L 343.741238 54.888962 
L 343.908637 61.249189 
L 344.076037 55.717861 
L 344.243437 57.083416 
L 344.410838 52.862288 
L 344.578238 53.543192 
L 344.745637 63.586126 
L 344.913037 60.406428 
L 345.080438 53.045797 
L 345.415237 63.127799 
L 345.750038 56.935318 
L 345.917438 56.692119 
L 346.084837 58.236239 
L 346.252237 56.782968 
L 346.419638 56.748991 
L 346.587038 57.414659 
L 346.754437 50.918296 
L 346.921837 61.563642 
L 347.089238 62.044854 
L 347.256638 53.352203 
L 347.591437 62.686425 
L 347.758838 60.570823 
L 347.926237 53.35879 
L 348.093637 65.267476 
L 348.261037 52.976367 
L 348.428438 61.087668 
L 348.763238 57.38966 
L 348.930637 59.060897 
L 349.098038 58.403698 
L 349.265437 52.205978 
L 349.432838 59.743115 
L 349.600237 59.162837 
L 349.767637 52.446054 
L 349.935037 58.731793 
L 350.102438 58.301494 
L 350.269837 56.835576 
L 350.437237 58.689168 
L 350.604637 55.332582 
L 350.939437 58.62316 
L 351.106837 54.671425 
L 351.274237 59.550619 
L 351.441638 57.363468 
L 351.609037 56.7153 
L 351.943837 61.490305 
L 352.111237 53.488698 
L 352.278638 53.310405 
L 352.446037 59.294304 
L 352.613437 58.970885 
L 352.780837 58.082166 
L 352.948238 53.739928 
L 353.283037 65.508761 
L 353.450437 53.390378 
L 353.785237 60.975102 
L 353.952637 56.528649 
L 354.287438 59.115701 
L 354.454837 58.838336 
L 354.622237 57.292023 
L 354.789637 50.207215 
L 354.957038 58.345557 
L 355.124437 60.005026 
L 355.291837 50.564185 
L 355.459237 62.612696 
L 355.794037 52.258832 
L 355.961437 59.384302 
L 356.128837 59.756891 
L 356.296238 51.693757 
L 356.463637 63.212736 
L 356.631037 57.665296 
L 356.798437 57.273405 
L 356.965838 53.136237 
L 357.300637 56.781999 
L 357.468037 63.688514 
L 357.635437 54.082023 
L 357.802837 54.892634 
L 357.970237 57.771189 
L 358.137637 62.972467 
L 358.305037 56.099459 
L 358.472437 57.659711 
L 358.639837 53.421213 
L 358.807237 60.564321 
L 358.974637 58.838313 
L 359.142037 53.20257 
L 359.309438 61.76478 
L 359.644237 53.608889 
L 359.811637 67.981236 
L 359.979038 55.606186 
L 360.146437 54.034082 
L 360.313837 63.251736 
L 360.481237 56.077168 
L 360.648638 59.414247 
L 360.816037 55.242512 
L 360.983437 54.619765 
L 361.150837 62.330423 
L 361.318238 54.687656 
L 361.485637 57.035883 
L 361.653037 62.583983 
L 361.820437 55.399026 
L 361.987838 53.901298 
L 362.155237 60.500243 
L 362.657438 54.330325 
L 362.824838 62.723123 
L 363.159637 52.791557 
L 363.494438 62.184998 
L 363.661837 53.780529 
L 363.996638 58.170029 
L 364.164038 53.563775 
L 364.498837 58.964134 
L 364.666238 56.617544 
L 364.833638 58.18077 
L 365.001037 56.581334 
L 365.168437 52.59149 
L 365.168437 52.59149 
" clip-path="url(#pb0a7400bf4)" style="fill: none; stroke: #1f77b4; stroke-width: 1.5; stroke-linecap: square"/>
   </g>
   <g id="line2d_17">
    <path d="M 30.535837 239.674929 
L 31.205437 233.568502 
L 31.875037 229.475242 
L 32.544637 226.731447 
L 33.214237 224.892227 
L 33.883837 223.65936 
L 34.553437 222.832945 
L 35.390437 222.171797 
L 36.394837 221.711966 
L 37.566637 221.430394 
L 39.408037 221.245097 
L 42.923437 221.163963 
L 61.839637 221.152641 
L 365.168437 221.152641 
L 365.168437 221.152641 
" clip-path="url(#pb0a7400bf4)" style="fill: none; stroke: #ff7f0e; stroke-width: 1.5; stroke-linecap: square"/>
   </g>
   <g id="patch_3">
    <path d="M 30.368437 253.44 
L 30.368437 36 
" style="fill: none; stroke: #000000; stroke-width: 0.8; stroke-linejoin: miter; stroke-linecap: square"/>
   </g>
   <g id="patch_4">
    <path d="M 365.168437 253.44 
L 365.168437 36 
" style="fill: none; stroke: #000000; stroke-width: 0.8; stroke-linejoin: miter; stroke-linecap: square"/>
   </g>
   <g id="patch_5">
    <path d="M 30.368437 253.44 
L 365.168437 253.44 
" style="fill: none; stroke: #000000; stroke-width: 0.8; stroke-linejoin: miter; stroke-linecap: square"/>
   </g>
   <g id="patch_6">
    <path d="M 30.368437 36 
L 365.168437 36 
" style="fill: none; stroke: #000000; stroke-width: 0.8; stroke-linejoin: miter; stroke-linecap: square"/>
   </g>
   <g id="legend_1">
    <g id="patch_7">
     <path d="M 37.368437 77.078125 
L 87.068437 77.078125 
Q 89.068437 77.078125 89.068437 75.078125 
L 89.068437 43 
Q 89.068437 41 87.068437 41 
L 37.368437 41 
Q 35.368437 41 35.368437 43 
L 35.368437 75.078125 
Q 35.368437 77.078125 37.368437 77.078125 
z
" style="fill: #ffffff; opacity: 0.8; stroke: #cccccc; stroke-linejoin: miter"/>
    </g>
    <g id="line2d_18">
     <path d="M 39.368437 52.8 
L 49.368437 52.8 
L 59.368437 52.8 
" style="fill: none; stroke: #1f77b4; stroke-width: 1.5; stroke-linecap: square"/>
    </g>
    <g id="text_16">
     <!-- $\hat{y(t)}$ -->
     <g transform="translate(67.368437 56.3) scale(0.1 -0.1)">
      <defs>
       <path id="DejaVuSans-302" d="M -1831 5119 
L -1369 5119 
L -603 3944 
L -1038 3944 
L -1600 4709 
L -2163 3944 
L -2597 3944 
L -1831 5119 
z
M -1600 3584 
L -1600 3584 
z
" transform="scale(0.015625)"/>
       <path id="DejaVuSans-Oblique-79" d="M 1588 -325 
Q 1188 -997 936 -1164 
Q 684 -1331 294 -1331 
L -159 -1331 
L -63 -850 
L 269 -850 
Q 509 -850 678 -719 
Q 847 -588 1056 -206 
L 1234 128 
L 459 3500 
L 1069 3500 
L 1650 819 
L 3256 3500 
L 3859 3500 
L 1588 -325 
z
" transform="scale(0.015625)"/>
       <path id="DejaVuSans-28" d="M 1984 4856 
Q 1566 4138 1362 3434 
Q 1159 2731 1159 2009 
Q 1159 1288 1364 580 
Q 1569 -128 1984 -844 
L 1484 -844 
Q 1016 -109 783 600 
Q 550 1309 550 2009 
Q 550 2706 781 3412 
Q 1013 4119 1484 4856 
L 1984 4856 
z
" transform="scale(0.015625)"/>
       <path id="DejaVuSans-Oblique-74" d="M 2706 3500 
L 2619 3053 
L 1472 3053 
L 1100 1153 
Q 1081 1047 1072 975 
Q 1063 903 1063 863 
Q 1063 663 1183 572 
Q 1303 481 1569 481 
L 2150 481 
L 2053 0 
L 1503 0 
Q 991 0 739 200 
Q 488 400 488 806 
Q 488 878 497 964 
Q 506 1050 525 1153 
L 897 3053 
L 409 3053 
L 500 3500 
L 978 3500 
L 1172 4494 
L 1747 4494 
L 1556 3500 
L 2706 3500 
z
" transform="scale(0.015625)"/>
       <path id="DejaVuSans-29" d="M 513 4856 
L 1013 4856 
Q 1481 4119 1714 3412 
Q 1947 2706 1947 2009 
Q 1947 1309 1714 600 
Q 1481 -109 1013 -844 
L 513 -844 
Q 928 -128 1133 580 
Q 1338 1288 1338 2009 
Q 1338 2731 1133 3434 
Q 928 4138 513 4856 
z
" transform="scale(0.015625)"/>
      </defs>
      <use xlink:href="#DejaVuSans-302" transform="translate(135.682129 33.015625)"/>
      <use xlink:href="#DejaVuSans-Oblique-79" transform="translate(0 0.640625)"/>
      <use xlink:href="#DejaVuSans-28" transform="translate(59.179688 0.640625)"/>
      <use xlink:href="#DejaVuSans-Oblique-74" transform="translate(98.193359 0.640625)"/>
      <use xlink:href="#DejaVuSans-29" transform="translate(137.402344 0.640625)"/>
     </g>
    </g>
    <g id="line2d_19">
     <path d="M 39.368437 67.498437 
L 49.368437 67.498437 
L 59.368437 67.498437 
" style="fill: none; stroke: #ff7f0e; stroke-width: 1.5; stroke-linecap: square"/>
    </g>
    <g id="text_17">
     <!-- $x(t)$ -->
     <g transform="translate(67.368437 70.998437) scale(0.1 -0.1)">
      <defs>
       <path id="DejaVuSans-Oblique-78" d="M 3841 3500 
L 2234 1784 
L 3219 0 
L 2559 0 
L 1819 1388 
L 531 0 
L -166 0 
L 1556 1844 
L 641 3500 
L 1300 3500 
L 1972 2234 
L 3144 3500 
L 3841 3500 
z
" transform="scale(0.015625)"/>
      </defs>
      <use xlink:href="#DejaVuSans-Oblique-78" transform="translate(0 0.125)"/>
      <use xlink:href="#DejaVuSans-28" transform="translate(59.179688 0.125)"/>
      <use xlink:href="#DejaVuSans-Oblique-74" transform="translate(98.193359 0.125)"/>
      <use xlink:href="#DejaVuSans-29" transform="translate(137.402344 0.125)"/>
     </g>
    </g>
   </g>
  </g>
  <g id="text_18">
   <!-- Accumulate to Threshold model with input of 0.1 with rms=1  -->
   <g transform="translate(7.2 16.318125) scale(0.12 -0.12)">
    <defs>
     <path id="DejaVuSans-41" d="M 2188 4044 
L 1331 1722 
L 3047 1722 
L 2188 4044 
z
M 1831 4666 
L 2547 4666 
L 4325 0 
L 3669 0 
L 3244 1197 
L 1141 1197 
L 716 0 
L 50 0 
L 1831 4666 
z
" transform="scale(0.015625)"/>
     <path id="DejaVuSans-63" d="M 3122 3366 
L 3122 2828 
Q 2878 2963 2633 3030 
Q 2388 3097 2138 3097 
Q 1578 3097 1268 2742 
Q 959 2388 959 1747 
Q 959 1106 1268 751 
Q 1578 397 2138 397 
Q 2388 397 2633 464 
Q 2878 531 3122 666 
L 3122 134 
Q 2881 22 2623 -34 
Q 2366 -91 2075 -91 
Q 1284 -91 818 406 
Q 353 903 353 1747 
Q 353 2603 823 3093 
Q 1294 3584 2113 3584 
Q 2378 3584 2631 3529 
Q 2884 3475 3122 3366 
z
" transform="scale(0.015625)"/>
     <path id="DejaVuSans-75" d="M 544 1381 
L 544 3500 
L 1119 3500 
L 1119 1403 
Q 1119 906 1312 657 
Q 1506 409 1894 409 
Q 2359 409 2629 706 
Q 2900 1003 2900 1516 
L 2900 3500 
L 3475 3500 
L 3475 0 
L 2900 0 
L 2900 538 
Q 2691 219 2414 64 
Q 2138 -91 1772 -91 
Q 1169 -91 856 284 
Q 544 659 544 1381 
z
M 1991 3584 
L 1991 3584 
z
" transform="scale(0.015625)"/>
     <path id="DejaVuSans-6d" d="M 3328 2828 
Q 3544 3216 3844 3400 
Q 4144 3584 4550 3584 
Q 5097 3584 5394 3201 
Q 5691 2819 5691 2113 
L 5691 0 
L 5113 0 
L 5113 2094 
Q 5113 2597 4934 2840 
Q 4756 3084 4391 3084 
Q 3944 3084 3684 2787 
Q 3425 2491 3425 1978 
L 3425 0 
L 2847 0 
L 2847 2094 
Q 2847 2600 2669 2842 
Q 2491 3084 2119 3084 
Q 1678 3084 1418 2786 
Q 1159 2488 1159 1978 
L 1159 0 
L 581 0 
L 581 3500 
L 1159 3500 
L 1159 2956 
Q 1356 3278 1631 3431 
Q 1906 3584 2284 3584 
Q 2666 3584 2933 3390 
Q 3200 3197 3328 2828 
z
" transform="scale(0.015625)"/>
     <path id="DejaVuSans-6c" d="M 603 4863 
L 1178 4863 
L 1178 0 
L 603 0 
L 603 4863 
z
" transform="scale(0.015625)"/>
     <path id="DejaVuSans-61" d="M 2194 1759 
Q 1497 1759 1228 1600 
Q 959 1441 959 1056 
Q 959 750 1161 570 
Q 1363 391 1709 391 
Q 2188 391 2477 730 
Q 2766 1069 2766 1631 
L 2766 1759 
L 2194 1759 
z
M 3341 1997 
L 3341 0 
L 2766 0 
L 2766 531 
Q 2569 213 2275 61 
Q 1981 -91 1556 -91 
Q 1019 -91 701 211 
Q 384 513 384 1019 
Q 384 1609 779 1909 
Q 1175 2209 1959 2209 
L 2766 2209 
L 2766 2266 
Q 2766 2663 2505 2880 
Q 2244 3097 1772 3097 
Q 1472 3097 1187 3025 
Q 903 2953 641 2809 
L 641 3341 
Q 956 3463 1253 3523 
Q 1550 3584 1831 3584 
Q 2591 3584 2966 3190 
Q 3341 2797 3341 1997 
z
" transform="scale(0.015625)"/>
     <path id="DejaVuSans-74" d="M 1172 4494 
L 1172 3500 
L 2356 3500 
L 2356 3053 
L 1172 3053 
L 1172 1153 
Q 1172 725 1289 603 
Q 1406 481 1766 481 
L 2356 481 
L 2356 0 
L 1766 0 
Q 1100 0 847 248 
Q 594 497 594 1153 
L 594 3053 
L 172 3053 
L 172 3500 
L 594 3500 
L 594 4494 
L 1172 4494 
z
" transform="scale(0.015625)"/>
     <path id="DejaVuSans-65" d="M 3597 1894 
L 3597 1613 
L 953 1613 
Q 991 1019 1311 708 
Q 1631 397 2203 397 
Q 2534 397 2845 478 
Q 3156 559 3463 722 
L 3463 178 
Q 3153 47 2828 -22 
Q 2503 -91 2169 -91 
Q 1331 -91 842 396 
Q 353 884 353 1716 
Q 353 2575 817 3079 
Q 1281 3584 2069 3584 
Q 2775 3584 3186 3129 
Q 3597 2675 3597 1894 
z
M 3022 2063 
Q 3016 2534 2758 2815 
Q 2500 3097 2075 3097 
Q 1594 3097 1305 2825 
Q 1016 2553 972 2059 
L 3022 2063 
z
" transform="scale(0.015625)"/>
     <path id="DejaVuSans-20" transform="scale(0.015625)"/>
     <path id="DejaVuSans-6f" d="M 1959 3097 
Q 1497 3097 1228 2736 
Q 959 2375 959 1747 
Q 959 1119 1226 758 
Q 1494 397 1959 397 
Q 2419 397 2687 759 
Q 2956 1122 2956 1747 
Q 2956 2369 2687 2733 
Q 2419 3097 1959 3097 
z
M 1959 3584 
Q 2709 3584 3137 3096 
Q 3566 2609 3566 1747 
Q 3566 888 3137 398 
Q 2709 -91 1959 -91 
Q 1206 -91 779 398 
Q 353 888 353 1747 
Q 353 2609 779 3096 
Q 1206 3584 1959 3584 
z
" transform="scale(0.015625)"/>
     <path id="DejaVuSans-54" d="M -19 4666 
L 3928 4666 
L 3928 4134 
L 2272 4134 
L 2272 0 
L 1638 0 
L 1638 4134 
L -19 4134 
L -19 4666 
z
" transform="scale(0.015625)"/>
     <path id="DejaVuSans-68" d="M 3513 2113 
L 3513 0 
L 2938 0 
L 2938 2094 
Q 2938 2591 2744 2837 
Q 2550 3084 2163 3084 
Q 1697 3084 1428 2787 
Q 1159 2491 1159 1978 
L 1159 0 
L 581 0 
L 581 4863 
L 1159 4863 
L 1159 2956 
Q 1366 3272 1645 3428 
Q 1925 3584 2291 3584 
Q 2894 3584 3203 3211 
Q 3513 2838 3513 2113 
z
" transform="scale(0.015625)"/>
     <path id="DejaVuSans-72" d="M 2631 2963 
Q 2534 3019 2420 3045 
Q 2306 3072 2169 3072 
Q 1681 3072 1420 2755 
Q 1159 2438 1159 1844 
L 1159 0 
L 581 0 
L 581 3500 
L 1159 3500 
L 1159 2956 
Q 1341 3275 1631 3429 
Q 1922 3584 2338 3584 
Q 2397 3584 2469 3576 
Q 2541 3569 2628 3553 
L 2631 2963 
z
" transform="scale(0.015625)"/>
     <path id="DejaVuSans-73" d="M 2834 3397 
L 2834 2853 
Q 2591 2978 2328 3040 
Q 2066 3103 1784 3103 
Q 1356 3103 1142 2972 
Q 928 2841 928 2578 
Q 928 2378 1081 2264 
Q 1234 2150 1697 2047 
L 1894 2003 
Q 2506 1872 2764 1633 
Q 3022 1394 3022 966 
Q 3022 478 2636 193 
Q 2250 -91 1575 -91 
Q 1294 -91 989 -36 
Q 684 19 347 128 
L 347 722 
Q 666 556 975 473 
Q 1284 391 1588 391 
Q 1994 391 2212 530 
Q 2431 669 2431 922 
Q 2431 1156 2273 1281 
Q 2116 1406 1581 1522 
L 1381 1569 
Q 847 1681 609 1914 
Q 372 2147 372 2553 
Q 372 3047 722 3315 
Q 1072 3584 1716 3584 
Q 2034 3584 2315 3537 
Q 2597 3491 2834 3397 
z
" transform="scale(0.015625)"/>
     <path id="DejaVuSans-64" d="M 2906 2969 
L 2906 4863 
L 3481 4863 
L 3481 0 
L 2906 0 
L 2906 525 
Q 2725 213 2448 61 
Q 2172 -91 1784 -91 
Q 1150 -91 751 415 
Q 353 922 353 1747 
Q 353 2572 751 3078 
Q 1150 3584 1784 3584 
Q 2172 3584 2448 3432 
Q 2725 3281 2906 2969 
z
M 947 1747 
Q 947 1113 1208 752 
Q 1469 391 1925 391 
Q 2381 391 2643 752 
Q 2906 1113 2906 1747 
Q 2906 2381 2643 2742 
Q 2381 3103 1925 3103 
Q 1469 3103 1208 2742 
Q 947 2381 947 1747 
z
" transform="scale(0.015625)"/>
     <path id="DejaVuSans-77" d="M 269 3500 
L 844 3500 
L 1563 769 
L 2278 3500 
L 2956 3500 
L 3675 769 
L 4391 3500 
L 4966 3500 
L 4050 0 
L 3372 0 
L 2619 2869 
L 1863 0 
L 1184 0 
L 269 3500 
z
" transform="scale(0.015625)"/>
     <path id="DejaVuSans-69" d="M 603 3500 
L 1178 3500 
L 1178 0 
L 603 0 
L 603 3500 
z
M 603 4863 
L 1178 4863 
L 1178 4134 
L 603 4134 
L 603 4863 
z
" transform="scale(0.015625)"/>
     <path id="DejaVuSans-6e" d="M 3513 2113 
L 3513 0 
L 2938 0 
L 2938 2094 
Q 2938 2591 2744 2837 
Q 2550 3084 2163 3084 
Q 1697 3084 1428 2787 
Q 1159 2491 1159 1978 
L 1159 0 
L 581 0 
L 581 3500 
L 1159 3500 
L 1159 2956 
Q 1366 3272 1645 3428 
Q 1925 3584 2291 3584 
Q 2894 3584 3203 3211 
Q 3513 2838 3513 2113 
z
" transform="scale(0.015625)"/>
     <path id="DejaVuSans-70" d="M 1159 525 
L 1159 -1331 
L 581 -1331 
L 581 3500 
L 1159 3500 
L 1159 2969 
Q 1341 3281 1617 3432 
Q 1894 3584 2278 3584 
Q 2916 3584 3314 3078 
Q 3713 2572 3713 1747 
Q 3713 922 3314 415 
Q 2916 -91 2278 -91 
Q 1894 -91 1617 61 
Q 1341 213 1159 525 
z
M 3116 1747 
Q 3116 2381 2855 2742 
Q 2594 3103 2138 3103 
Q 1681 3103 1420 2742 
Q 1159 2381 1159 1747 
Q 1159 1113 1420 752 
Q 1681 391 2138 391 
Q 2594 391 2855 752 
Q 3116 1113 3116 1747 
z
" transform="scale(0.015625)"/>
     <path id="DejaVuSans-66" d="M 2375 4863 
L 2375 4384 
L 1825 4384 
Q 1516 4384 1395 4259 
Q 1275 4134 1275 3809 
L 1275 3500 
L 2222 3500 
L 2222 3053 
L 1275 3053 
L 1275 0 
L 697 0 
L 697 3053 
L 147 3053 
L 147 3500 
L 697 3500 
L 697 3744 
Q 697 4328 969 4595 
Q 1241 4863 1831 4863 
L 2375 4863 
z
" transform="scale(0.015625)"/>
     <path id="DejaVuSans-3d" d="M 678 2906 
L 4684 2906 
L 4684 2381 
L 678 2381 
L 678 2906 
z
M 678 1631 
L 4684 1631 
L 4684 1100 
L 678 1100 
L 678 1631 
z
" transform="scale(0.015625)"/>
    </defs>
    <use xlink:href="#DejaVuSans-41"/>
    <use xlink:href="#DejaVuSans-63" x="66.658203"/>
    <use xlink:href="#DejaVuSans-63" x="121.638672"/>
    <use xlink:href="#DejaVuSans-75" x="176.619141"/>
    <use xlink:href="#DejaVuSans-6d" x="239.998047"/>
    <use xlink:href="#DejaVuSans-75" x="337.410156"/>
    <use xlink:href="#DejaVuSans-6c" x="400.789062"/>
    <use xlink:href="#DejaVuSans-61" x="428.572266"/>
    <use xlink:href="#DejaVuSans-74" x="489.851562"/>
    <use xlink:href="#DejaVuSans-65" x="529.060547"/>
    <use xlink:href="#DejaVuSans-20" x="590.583984"/>
    <use xlink:href="#DejaVuSans-74" x="622.371094"/>
    <use xlink:href="#DejaVuSans-6f" x="661.580078"/>
    <use xlink:href="#DejaVuSans-20" x="722.761719"/>
    <use xlink:href="#DejaVuSans-54" x="754.548828"/>
    <use xlink:href="#DejaVuSans-68" x="815.632812"/>
    <use xlink:href="#DejaVuSans-72" x="879.011719"/>
    <use xlink:href="#DejaVuSans-65" x="917.875"/>
    <use xlink:href="#DejaVuSans-73" x="979.398438"/>
    <use xlink:href="#DejaVuSans-68" x="1031.498047"/>
    <use xlink:href="#DejaVuSans-6f" x="1094.876953"/>
    <use xlink:href="#DejaVuSans-6c" x="1156.058594"/>
    <use xlink:href="#DejaVuSans-64" x="1183.841797"/>
    <use xlink:href="#DejaVuSans-20" x="1247.318359"/>
    <use xlink:href="#DejaVuSans-6d" x="1279.105469"/>
    <use xlink:href="#DejaVuSans-6f" x="1376.517578"/>
    <use xlink:href="#DejaVuSans-64" x="1437.699219"/>
    <use xlink:href="#DejaVuSans-65" x="1501.175781"/>
    <use xlink:href="#DejaVuSans-6c" x="1562.699219"/>
    <use xlink:href="#DejaVuSans-20" x="1590.482422"/>
    <use xlink:href="#DejaVuSans-77" x="1622.269531"/>
    <use xlink:href="#DejaVuSans-69" x="1704.056641"/>
    <use xlink:href="#DejaVuSans-74" x="1731.839844"/>
    <use xlink:href="#DejaVuSans-68" x="1771.048828"/>
    <use xlink:href="#DejaVuSans-20" x="1834.427734"/>
    <use xlink:href="#DejaVuSans-69" x="1866.214844"/>
    <use xlink:href="#DejaVuSans-6e" x="1893.998047"/>
    <use xlink:href="#DejaVuSans-70" x="1957.376953"/>
    <use xlink:href="#DejaVuSans-75" x="2020.853516"/>
    <use xlink:href="#DejaVuSans-74" x="2084.232422"/>
    <use xlink:href="#DejaVuSans-20" x="2123.441406"/>
    <use xlink:href="#DejaVuSans-6f" x="2155.228516"/>
    <use xlink:href="#DejaVuSans-66" x="2216.410156"/>
    <use xlink:href="#DejaVuSans-20" x="2251.615234"/>
    <use xlink:href="#DejaVuSans-30" x="2283.402344"/>
    <use xlink:href="#DejaVuSans-2e" x="2347.025391"/>
    <use xlink:href="#DejaVuSans-31" x="2378.8125"/>
    <use xlink:href="#DejaVuSans-20" x="2442.435547"/>
    <use xlink:href="#DejaVuSans-77" x="2474.222656"/>
    <use xlink:href="#DejaVuSans-69" x="2556.009766"/>
    <use xlink:href="#DejaVuSans-74" x="2583.792969"/>
    <use xlink:href="#DejaVuSans-68" x="2623.001953"/>
    <use xlink:href="#DejaVuSans-20" x="2686.380859"/>
    <use xlink:href="#DejaVuSans-72" x="2718.167969"/>
    <use xlink:href="#DejaVuSans-6d" x="2757.53125"/>
    <use xlink:href="#DejaVuSans-73" x="2854.943359"/>
    <use xlink:href="#DejaVuSans-3d" x="2907.042969"/>
    <use xlink:href="#DejaVuSans-31" x="2990.832031"/>
    <use xlink:href="#DejaVuSans-20" x="3054.455078"/>
   </g>
  </g>
 </g>
 <defs>
  <clipPath id="pb0a7400bf4">
   <rect x="30.368437" y="36" width="334.8" height="217.44"/>
  </clipPath>
 </defs>
</svg>
