<?xml version="1.0" encoding="utf-8" standalone="no"?>
<!DOCTYPE svg PUBLIC "-//W3C//DTD SVG 1.1//EN"
  "http://www.w3.org/Graphics/SVG/1.1/DTD/svg11.dtd">
<svg xmlns:xlink="http://www.w3.org/1999/xlink" width="384.736875pt" height="277.318125pt" viewBox="0 0 384.736875 277.318125" xmlns="http://www.w3.org/2000/svg" version="1.1">
 <metadata>
  <rdf:RDF xmlns:dc="http://purl.org/dc/elements/1.1/" xmlns:cc="http://creativecommons.org/ns#" xmlns:rdf="http://www.w3.org/1999/02/22-rdf-syntax-ns#">
   <cc:Work>
    <dc:type rdf:resource="http://purl.org/dc/dcmitype/StillImage"/>
    <dc:date>2022-11-17T12:42:03.428946</dc:date>
    <dc:format>image/svg+xml</dc:format>
    <dc:creator>
     <cc:Agent>
      <dc:title>Matplotlib v3.6.0, https://matplotlib.org/</dc:title>
     </cc:Agent>
    </dc:creator>
   </cc:Work>
  </rdf:RDF>
 </metadata>
 <defs>
  <style type="text/css">*{stroke-linejoin: round; stroke-linecap: butt}</style>
 </defs>
 <g id="figure_1">
  <g id="patch_1">
   <path d="M 0 277.318125 
L 384.736875 277.318125 
L 384.736875 0 
L 0 0 
L 0 277.318125 
z
" style="fill: none"/>
  </g>
  <g id="axes_1">
   <g id="patch_2">
    <path d="M 30.368437 253.44 
L 365.168437 253.44 
L 365.168437 36 
L 30.368437 36 
z
" style="fill: #ffffff"/>
   </g>
   <g id="matplotlib.axis_1">
    <g id="xtick_1">
     <g id="line2d_1">
      <defs>
       <path id="m13c9b8a49c" d="M 0 0 
L 0 3.5 
" style="stroke: #000000; stroke-width: 0.8"/>
      </defs>
      <g>
       <use xlink:href="#m13c9b8a49c" x="30.368437" y="253.44" style="stroke: #000000; stroke-width: 0.8"/>
      </g>
     </g>
     <g id="text_1">
      <!-- 0.00 -->
      <g transform="translate(19.235625 268.038437) scale(0.1 -0.1)">
       <defs>
        <path id="DejaVuSans-30" d="M 2034 4250 
Q 1547 4250 1301 3770 
Q 1056 3291 1056 2328 
Q 1056 1369 1301 889 
Q 1547 409 2034 409 
Q 2525 409 2770 889 
Q 3016 1369 3016 2328 
Q 3016 3291 2770 3770 
Q 2525 4250 2034 4250 
z
M 2034 4750 
Q 2819 4750 3233 4129 
Q 3647 3509 3647 2328 
Q 3647 1150 3233 529 
Q 2819 -91 2034 -91 
Q 1250 -91 836 529 
Q 422 1150 422 2328 
Q 422 3509 836 4129 
Q 1250 4750 2034 4750 
z
" transform="scale(0.015625)"/>
        <path id="DejaVuSans-2e" d="M 684 794 
L 1344 794 
L 1344 0 
L 684 0 
L 684 794 
z
" transform="scale(0.015625)"/>
       </defs>
       <use xlink:href="#DejaVuSans-30"/>
       <use xlink:href="#DejaVuSans-2e" x="63.623047"/>
       <use xlink:href="#DejaVuSans-30" x="95.410156"/>
       <use xlink:href="#DejaVuSans-30" x="159.033203"/>
      </g>
     </g>
    </g>
    <g id="xtick_2">
     <g id="line2d_2">
      <g>
       <use xlink:href="#m13c9b8a49c" x="72.218437" y="253.44" style="stroke: #000000; stroke-width: 0.8"/>
      </g>
     </g>
     <g id="text_2">
      <!-- 0.25 -->
      <g transform="translate(61.085625 268.038437) scale(0.1 -0.1)">
       <defs>
        <path id="DejaVuSans-32" d="M 1228 531 
L 3431 531 
L 3431 0 
L 469 0 
L 469 531 
Q 828 903 1448 1529 
Q 2069 2156 2228 2338 
Q 2531 2678 2651 2914 
Q 2772 3150 2772 3378 
Q 2772 3750 2511 3984 
Q 2250 4219 1831 4219 
Q 1534 4219 1204 4116 
Q 875 4013 500 3803 
L 500 4441 
Q 881 4594 1212 4672 
Q 1544 4750 1819 4750 
Q 2544 4750 2975 4387 
Q 3406 4025 3406 3419 
Q 3406 3131 3298 2873 
Q 3191 2616 2906 2266 
Q 2828 2175 2409 1742 
Q 1991 1309 1228 531 
z
" transform="scale(0.015625)"/>
        <path id="DejaVuSans-35" d="M 691 4666 
L 3169 4666 
L 3169 4134 
L 1269 4134 
L 1269 2991 
Q 1406 3038 1543 3061 
Q 1681 3084 1819 3084 
Q 2600 3084 3056 2656 
Q 3513 2228 3513 1497 
Q 3513 744 3044 326 
Q 2575 -91 1722 -91 
Q 1428 -91 1123 -41 
Q 819 9 494 109 
L 494 744 
Q 775 591 1075 516 
Q 1375 441 1709 441 
Q 2250 441 2565 725 
Q 2881 1009 2881 1497 
Q 2881 1984 2565 2268 
Q 2250 2553 1709 2553 
Q 1456 2553 1204 2497 
Q 953 2441 691 2322 
L 691 4666 
z
" transform="scale(0.015625)"/>
       </defs>
       <use xlink:href="#DejaVuSans-30"/>
       <use xlink:href="#DejaVuSans-2e" x="63.623047"/>
       <use xlink:href="#DejaVuSans-32" x="95.410156"/>
       <use xlink:href="#DejaVuSans-35" x="159.033203"/>
      </g>
     </g>
    </g>
    <g id="xtick_3">
     <g id="line2d_3">
      <g>
       <use xlink:href="#m13c9b8a49c" x="114.068437" y="253.44" style="stroke: #000000; stroke-width: 0.8"/>
      </g>
     </g>
     <g id="text_3">
      <!-- 0.50 -->
      <g transform="translate(102.935625 268.038437) scale(0.1 -0.1)">
       <use xlink:href="#DejaVuSans-30"/>
       <use xlink:href="#DejaVuSans-2e" x="63.623047"/>
       <use xlink:href="#DejaVuSans-35" x="95.410156"/>
       <use xlink:href="#DejaVuSans-30" x="159.033203"/>
      </g>
     </g>
    </g>
    <g id="xtick_4">
     <g id="line2d_4">
      <g>
       <use xlink:href="#m13c9b8a49c" x="155.918437" y="253.44" style="stroke: #000000; stroke-width: 0.8"/>
      </g>
     </g>
     <g id="text_4">
      <!-- 0.75 -->
      <g transform="translate(144.785625 268.038437) scale(0.1 -0.1)">
       <defs>
        <path id="DejaVuSans-37" d="M 525 4666 
L 3525 4666 
L 3525 4397 
L 1831 0 
L 1172 0 
L 2766 4134 
L 525 4134 
L 525 4666 
z
" transform="scale(0.015625)"/>
       </defs>
       <use xlink:href="#DejaVuSans-30"/>
       <use xlink:href="#DejaVuSans-2e" x="63.623047"/>
       <use xlink:href="#DejaVuSans-37" x="95.410156"/>
       <use xlink:href="#DejaVuSans-35" x="159.033203"/>
      </g>
     </g>
    </g>
    <g id="xtick_5">
     <g id="line2d_5">
      <g>
       <use xlink:href="#m13c9b8a49c" x="197.768437" y="253.44" style="stroke: #000000; stroke-width: 0.8"/>
      </g>
     </g>
     <g id="text_5">
      <!-- 1.00 -->
      <g transform="translate(186.635625 268.038437) scale(0.1 -0.1)">
       <defs>
        <path id="DejaVuSans-31" d="M 794 531 
L 1825 531 
L 1825 4091 
L 703 3866 
L 703 4441 
L 1819 4666 
L 2450 4666 
L 2450 531 
L 3481 531 
L 3481 0 
L 794 0 
L 794 531 
z
" transform="scale(0.015625)"/>
       </defs>
       <use xlink:href="#DejaVuSans-31"/>
       <use xlink:href="#DejaVuSans-2e" x="63.623047"/>
       <use xlink:href="#DejaVuSans-30" x="95.410156"/>
       <use xlink:href="#DejaVuSans-30" x="159.033203"/>
      </g>
     </g>
    </g>
    <g id="xtick_6">
     <g id="line2d_6">
      <g>
       <use xlink:href="#m13c9b8a49c" x="239.618437" y="253.44" style="stroke: #000000; stroke-width: 0.8"/>
      </g>
     </g>
     <g id="text_6">
      <!-- 1.25 -->
      <g transform="translate(228.485625 268.038437) scale(0.1 -0.1)">
       <use xlink:href="#DejaVuSans-31"/>
       <use xlink:href="#DejaVuSans-2e" x="63.623047"/>
       <use xlink:href="#DejaVuSans-32" x="95.410156"/>
       <use xlink:href="#DejaVuSans-35" x="159.033203"/>
      </g>
     </g>
    </g>
    <g id="xtick_7">
     <g id="line2d_7">
      <g>
       <use xlink:href="#m13c9b8a49c" x="281.468437" y="253.44" style="stroke: #000000; stroke-width: 0.8"/>
      </g>
     </g>
     <g id="text_7">
      <!-- 1.50 -->
      <g transform="translate(270.335625 268.038437) scale(0.1 -0.1)">
       <use xlink:href="#DejaVuSans-31"/>
       <use xlink:href="#DejaVuSans-2e" x="63.623047"/>
       <use xlink:href="#DejaVuSans-35" x="95.410156"/>
       <use xlink:href="#DejaVuSans-30" x="159.033203"/>
      </g>
     </g>
    </g>
    <g id="xtick_8">
     <g id="line2d_8">
      <g>
       <use xlink:href="#m13c9b8a49c" x="323.318437" y="253.44" style="stroke: #000000; stroke-width: 0.8"/>
      </g>
     </g>
     <g id="text_8">
      <!-- 1.75 -->
      <g transform="translate(312.185625 268.038437) scale(0.1 -0.1)">
       <use xlink:href="#DejaVuSans-31"/>
       <use xlink:href="#DejaVuSans-2e" x="63.623047"/>
       <use xlink:href="#DejaVuSans-37" x="95.410156"/>
       <use xlink:href="#DejaVuSans-35" x="159.033203"/>
      </g>
     </g>
    </g>
    <g id="xtick_9">
     <g id="line2d_9">
      <g>
       <use xlink:href="#m13c9b8a49c" x="365.168437" y="253.44" style="stroke: #000000; stroke-width: 0.8"/>
      </g>
     </g>
     <g id="text_9">
      <!-- 2.00 -->
      <g transform="translate(354.035625 268.038437) scale(0.1 -0.1)">
       <use xlink:href="#DejaVuSans-32"/>
       <use xlink:href="#DejaVuSans-2e" x="63.623047"/>
       <use xlink:href="#DejaVuSans-30" x="95.410156"/>
       <use xlink:href="#DejaVuSans-30" x="159.033203"/>
      </g>
     </g>
    </g>
   </g>
   <g id="matplotlib.axis_2">
    <g id="ytick_1">
     <g id="line2d_10">
      <defs>
       <path id="mee40d7c67b" d="M 0 0 
L -3.5 0 
" style="stroke: #000000; stroke-width: 0.8"/>
      </defs>
      <g>
       <use xlink:href="#mee40d7c67b" x="30.368437" y="241.271836" style="stroke: #000000; stroke-width: 0.8"/>
      </g>
     </g>
     <g id="text_10">
      <!-- 0.0 -->
      <g transform="translate(7.465312 245.071055) scale(0.1 -0.1)">
       <use xlink:href="#DejaVuSans-30"/>
       <use xlink:href="#DejaVuSans-2e" x="63.623047"/>
       <use xlink:href="#DejaVuSans-30" x="95.410156"/>
      </g>
     </g>
    </g>
    <g id="ytick_2">
     <g id="line2d_11">
      <g>
       <use xlink:href="#mee40d7c67b" x="30.368437" y="207.390093" style="stroke: #000000; stroke-width: 0.8"/>
      </g>
     </g>
     <g id="text_11">
      <!-- 0.2 -->
      <g transform="translate(7.465312 211.189312) scale(0.1 -0.1)">
       <use xlink:href="#DejaVuSans-30"/>
       <use xlink:href="#DejaVuSans-2e" x="63.623047"/>
       <use xlink:href="#DejaVuSans-32" x="95.410156"/>
      </g>
     </g>
    </g>
    <g id="ytick_3">
     <g id="line2d_12">
      <g>
       <use xlink:href="#mee40d7c67b" x="30.368437" y="173.50835" style="stroke: #000000; stroke-width: 0.8"/>
      </g>
     </g>
     <g id="text_12">
      <!-- 0.4 -->
      <g transform="translate(7.465312 177.307568) scale(0.1 -0.1)">
       <defs>
        <path id="DejaVuSans-34" d="M 2419 4116 
L 825 1625 
L 2419 1625 
L 2419 4116 
z
M 2253 4666 
L 3047 4666 
L 3047 1625 
L 3713 1625 
L 3713 1100 
L 3047 1100 
L 3047 0 
L 2419 0 
L 2419 1100 
L 313 1100 
L 313 1709 
L 2253 4666 
z
" transform="scale(0.015625)"/>
       </defs>
       <use xlink:href="#DejaVuSans-30"/>
       <use xlink:href="#DejaVuSans-2e" x="63.623047"/>
       <use xlink:href="#DejaVuSans-34" x="95.410156"/>
      </g>
     </g>
    </g>
    <g id="ytick_4">
     <g id="line2d_13">
      <g>
       <use xlink:href="#mee40d7c67b" x="30.368437" y="139.626607" style="stroke: #000000; stroke-width: 0.8"/>
      </g>
     </g>
     <g id="text_13">
      <!-- 0.6 -->
      <g transform="translate(7.465312 143.425825) scale(0.1 -0.1)">
       <defs>
        <path id="DejaVuSans-36" d="M 2113 2584 
Q 1688 2584 1439 2293 
Q 1191 2003 1191 1497 
Q 1191 994 1439 701 
Q 1688 409 2113 409 
Q 2538 409 2786 701 
Q 3034 994 3034 1497 
Q 3034 2003 2786 2293 
Q 2538 2584 2113 2584 
z
M 3366 4563 
L 3366 3988 
Q 3128 4100 2886 4159 
Q 2644 4219 2406 4219 
Q 1781 4219 1451 3797 
Q 1122 3375 1075 2522 
Q 1259 2794 1537 2939 
Q 1816 3084 2150 3084 
Q 2853 3084 3261 2657 
Q 3669 2231 3669 1497 
Q 3669 778 3244 343 
Q 2819 -91 2113 -91 
Q 1303 -91 875 529 
Q 447 1150 447 2328 
Q 447 3434 972 4092 
Q 1497 4750 2381 4750 
Q 2619 4750 2861 4703 
Q 3103 4656 3366 4563 
z
" transform="scale(0.015625)"/>
       </defs>
       <use xlink:href="#DejaVuSans-30"/>
       <use xlink:href="#DejaVuSans-2e" x="63.623047"/>
       <use xlink:href="#DejaVuSans-36" x="95.410156"/>
      </g>
     </g>
    </g>
    <g id="ytick_5">
     <g id="line2d_14">
      <g>
       <use xlink:href="#mee40d7c67b" x="30.368437" y="105.744864" style="stroke: #000000; stroke-width: 0.8"/>
      </g>
     </g>
     <g id="text_14">
      <!-- 0.8 -->
      <g transform="translate(7.465312 109.544082) scale(0.1 -0.1)">
       <defs>
        <path id="DejaVuSans-38" d="M 2034 2216 
Q 1584 2216 1326 1975 
Q 1069 1734 1069 1313 
Q 1069 891 1326 650 
Q 1584 409 2034 409 
Q 2484 409 2743 651 
Q 3003 894 3003 1313 
Q 3003 1734 2745 1975 
Q 2488 2216 2034 2216 
z
M 1403 2484 
Q 997 2584 770 2862 
Q 544 3141 544 3541 
Q 544 4100 942 4425 
Q 1341 4750 2034 4750 
Q 2731 4750 3128 4425 
Q 3525 4100 3525 3541 
Q 3525 3141 3298 2862 
Q 3072 2584 2669 2484 
Q 3125 2378 3379 2068 
Q 3634 1759 3634 1313 
Q 3634 634 3220 271 
Q 2806 -91 2034 -91 
Q 1263 -91 848 271 
Q 434 634 434 1313 
Q 434 1759 690 2068 
Q 947 2378 1403 2484 
z
M 1172 3481 
Q 1172 3119 1398 2916 
Q 1625 2713 2034 2713 
Q 2441 2713 2670 2916 
Q 2900 3119 2900 3481 
Q 2900 3844 2670 4047 
Q 2441 4250 2034 4250 
Q 1625 4250 1398 4047 
Q 1172 3844 1172 3481 
z
" transform="scale(0.015625)"/>
       </defs>
       <use xlink:href="#DejaVuSans-30"/>
       <use xlink:href="#DejaVuSans-2e" x="63.623047"/>
       <use xlink:href="#DejaVuSans-38" x="95.410156"/>
      </g>
     </g>
    </g>
    <g id="ytick_6">
     <g id="line2d_15">
      <g>
       <use xlink:href="#mee40d7c67b" x="30.368437" y="71.86312" style="stroke: #000000; stroke-width: 0.8"/>
      </g>
     </g>
     <g id="text_15">
      <!-- 1.0 -->
      <g transform="translate(7.465312 75.662339) scale(0.1 -0.1)">
       <use xlink:href="#DejaVuSans-31"/>
       <use xlink:href="#DejaVuSans-2e" x="63.623047"/>
       <use xlink:href="#DejaVuSans-30" x="95.410156"/>
      </g>
     </g>
    </g>
    <g id="ytick_7">
     <g id="line2d_16">
      <g>
       <use xlink:href="#mee40d7c67b" x="30.368437" y="37.981377" style="stroke: #000000; stroke-width: 0.8"/>
      </g>
     </g>
     <g id="text_16">
      <!-- 1.2 -->
      <g transform="translate(7.465312 41.780596) scale(0.1 -0.1)">
       <use xlink:href="#DejaVuSans-31"/>
       <use xlink:href="#DejaVuSans-2e" x="63.623047"/>
       <use xlink:href="#DejaVuSans-32" x="95.410156"/>
      </g>
     </g>
    </g>
   </g>
   <g id="line2d_17">
    <path d="M 30.535837 241.271836 
L 30.703237 239.18342 
L 30.870637 240.663043 
L 31.038037 240.752484 
L 31.205437 237.48909 
L 31.372837 236.98619 
L 31.540237 243.556364 
L 31.707637 238.407104 
L 32.042437 240.928322 
L 32.209837 234.529229 
L 32.377237 241.928357 
L 32.712037 230.924671 
L 32.879437 230.98952 
L 33.046837 231.443455 
L 33.214237 223.612049 
L 33.381637 222.896913 
L 33.549037 224.474297 
L 33.883837 222.034625 
L 34.051237 226.382044 
L 34.386037 212.828008 
L 34.553437 215.560591 
L 34.720837 222.071421 
L 34.888237 211.800723 
L 35.055637 213.62306 
L 35.223037 213.519385 
L 35.390437 201.375948 
L 35.557837 212.912308 
L 35.725237 214.635744 
L 35.892637 197.728347 
L 36.060037 198.839499 
L 36.227437 209.580324 
L 36.562237 201.089692 
L 36.729637 200.195102 
L 36.897037 205.815286 
L 37.064437 203.499246 
L 37.231837 207.034906 
L 37.566637 196.657727 
L 37.734037 194.317039 
L 37.901437 194.687301 
L 38.068837 193.369214 
L 38.236237 197.469565 
L 38.403637 195.952997 
L 38.571037 188.098797 
L 38.905837 196.11175 
L 39.073237 194.443332 
L 39.240637 200.225597 
L 39.742837 191.393992 
L 39.910237 195.956062 
L 40.077637 195.013187 
L 40.245037 189.017054 
L 40.579837 195.961585 
L 40.747237 196.265706 
L 40.914637 191.830708 
L 41.082037 192.899444 
L 41.249437 190.454404 
L 41.416837 191.207917 
L 41.584237 185.875582 
L 41.751637 192.120623 
L 42.086437 188.167898 
L 42.253837 195.747426 
L 42.421237 187.615352 
L 42.588637 186.745606 
L 42.756037 184.479793 
L 42.923437 190.517525 
L 43.090837 186.72116 
L 43.258237 185.876662 
L 43.425637 180.552553 
L 43.593037 185.342247 
L 43.760437 185.796473 
L 43.927837 184.281484 
L 44.095237 181.532842 
L 44.262637 191.240534 
L 44.764837 177.594983 
L 44.932237 179.679978 
L 45.099637 187.695467 
L 45.601837 177.956367 
L 45.769237 177.08979 
L 45.936637 181.105167 
L 46.104037 181.055862 
L 46.438837 187.159936 
L 46.606237 189.86014 
L 46.773637 181.613532 
L 46.941037 187.004837 
L 47.275837 185.685371 
L 47.443237 177.353 
L 47.610637 178.681798 
L 47.778037 181.388977 
L 47.945437 181.415655 
L 48.112837 178.971484 
L 48.280237 173.677782 
L 48.615037 182.426604 
L 48.782437 184.063516 
L 48.949837 178.934393 
L 49.117237 184.322052 
L 49.452037 180.454322 
L 49.619437 180.863915 
L 49.786837 182.340652 
L 50.623837 171.945324 
L 50.791237 174.379329 
L 50.958637 171.206604 
L 51.126037 174.990033 
L 51.293437 175.378207 
L 51.460837 177.858976 
L 51.628237 177.659619 
L 51.795637 175.690278 
L 52.297837 163.837141 
L 52.465237 171.89857 
L 52.632637 171.485544 
L 52.800037 166.483933 
L 52.967437 166.226849 
L 53.134837 174.452837 
L 53.469637 166.467681 
L 53.637037 170.541866 
L 53.804437 171.409359 
L 53.971837 165.248529 
L 54.139237 168.461974 
L 54.306637 167.56362 
L 54.474037 162.168019 
L 54.641437 162.621069 
L 54.808837 166.738653 
L 54.976237 166.24399 
L 55.143637 161.593719 
L 55.311037 168.905147 
L 55.478437 160.808024 
L 55.645837 162.797813 
L 55.813237 168.175357 
L 56.148037 165.429701 
L 56.315437 157.318684 
L 56.650237 166.714703 
L 56.817637 161.254871 
L 56.985037 160.152884 
L 57.152437 162.256788 
L 57.319837 162.689574 
L 57.487237 160.074543 
L 57.654637 162.81169 
L 57.822037 162.579674 
L 57.989437 161.609165 
L 58.156837 164.563905 
L 58.324237 165.464191 
L 58.491637 162.496648 
L 58.659037 167.043024 
L 58.826437 160.084049 
L 59.161237 166.499203 
L 59.328637 162.050247 
L 59.496037 167.870934 
L 59.830837 157.192009 
L 60.165637 155.161559 
L 60.333037 155.894178 
L 60.500437 162.643802 
L 60.667837 159.846898 
L 60.835237 153.148384 
L 61.002637 158.674394 
L 61.170037 158.100749 
L 61.337437 148.704478 
L 61.672237 154.848694 
L 61.839637 154.012936 
L 62.007037 159.781502 
L 62.174437 155.687644 
L 62.341837 154.500363 
L 62.509237 155.752119 
L 62.676637 153.537868 
L 62.844037 154.625012 
L 63.011437 154.436444 
L 63.178837 145.850174 
L 63.513637 153.974174 
L 63.681037 148.801829 
L 63.848437 149.18087 
L 64.183237 139.98659 
L 64.518037 146.223673 
L 64.685437 146.075014 
L 65.020237 140.475957 
L 65.187637 145.941046 
L 65.522437 135.802906 
L 65.689837 138.108557 
L 65.857237 149.047776 
L 66.192037 142.416782 
L 66.359437 149.288868 
L 66.526837 149.434788 
L 66.694237 147.823298 
L 66.861637 152.330385 
L 67.029037 150.359501 
L 67.196437 145.86099 
L 67.363837 154.940533 
L 67.698637 141.147049 
L 68.033437 150.102959 
L 68.200837 146.41716 
L 68.368237 148.730899 
L 68.535637 146.189694 
L 68.703037 149.675436 
L 68.870437 140.982044 
L 69.037837 140.609691 
L 69.372637 145.784577 
L 69.540037 142.708096 
L 69.707437 148.024247 
L 70.042237 139.719343 
L 70.377037 142.622423 
L 70.544437 143.797944 
L 70.711837 138.378995 
L 70.879237 138.912182 
L 71.046637 136.504484 
L 71.214037 137.116829 
L 71.381437 142.824358 
L 71.716237 133.15393 
L 71.883637 139.138788 
L 72.051037 138.043239 
L 72.218437 135.845224 
L 72.385837 137.993675 
L 72.553237 137.206687 
L 72.720637 135.414237 
L 72.888037 138.63813 
L 73.055437 136.754159 
L 73.222837 142.102953 
L 73.390237 140.699423 
L 73.557637 135.221376 
L 73.725037 139.814684 
L 74.059837 131.280347 
L 74.227237 132.224978 
L 74.394637 132.881905 
L 74.562037 130.739337 
L 74.729437 133.697857 
L 74.896837 129.043432 
L 75.064237 129.921992 
L 75.231637 133.829685 
L 75.399037 128.210112 
L 75.733837 132.360217 
L 75.901237 130.655416 
L 76.068637 127.502362 
L 76.236037 132.59402 
L 76.403437 132.22792 
L 76.570837 137.235051 
L 76.738237 135.488819 
L 76.905637 139.4172 
L 77.240437 134.303696 
L 77.575237 142.655034 
L 77.742637 130.891644 
L 77.910037 130.083627 
L 78.077437 130.736262 
L 78.244837 129.804808 
L 78.579637 126.033508 
L 78.747037 132.98233 
L 78.914437 128.252452 
L 79.081837 134.196404 
L 79.249237 128.457215 
L 79.416637 134.117804 
L 79.918837 124.68798 
L 80.086237 126.323413 
L 80.253637 131.426324 
L 80.421037 127.701763 
L 80.588437 129.631357 
L 80.755837 122.483096 
L 81.090637 127.784652 
L 81.258037 136.010197 
L 81.425437 123.183042 
L 81.592837 124.040712 
L 81.760237 129.113387 
L 81.927637 120.293345 
L 82.095037 118.417908 
L 82.262437 123.446174 
L 82.429837 112.990528 
L 82.597237 121.541948 
L 82.764637 121.060209 
L 82.932037 115.51256 
L 83.099437 119.37795 
L 83.266837 104.663447 
L 83.434237 110.760159 
L 83.601637 123.729188 
L 83.769037 116.162255 
L 83.936437 116.491172 
L 84.103837 110.255843 
L 84.438637 115.295476 
L 84.606037 114.311739 
L 84.773437 109.994638 
L 85.108237 110.760566 
L 85.275637 117.837929 
L 85.443037 114.214893 
L 85.610437 107.055478 
L 85.777837 116.171035 
L 86.112637 111.129209 
L 86.280037 117.557212 
L 86.447437 107.079608 
L 86.614837 111.709447 
L 86.782237 111.030638 
L 87.117037 108.316642 
L 87.284437 113.532687 
L 87.451837 106.4814 
L 87.619237 111.32402 
L 87.786637 110.212108 
L 87.954037 111.075334 
L 88.121437 112.59557 
L 88.288837 112.760584 
L 88.456237 111.410303 
L 88.623637 114.334037 
L 88.791037 112.088622 
L 88.958437 115.298502 
L 89.125837 112.690692 
L 89.460637 116.358308 
L 89.628037 104.250072 
L 89.795437 112.364389 
L 89.962837 114.854142 
L 90.130237 115.531452 
L 90.297637 110.357577 
L 90.465037 113.589405 
L 90.632437 113.534663 
L 90.799837 111.064982 
L 90.967237 110.949759 
L 91.302037 114.557468 
L 91.469437 107.188905 
L 91.636837 119.368786 
L 91.804237 123.147995 
L 91.971637 109.530942 
L 92.139037 111.983669 
L 92.306437 117.615093 
L 92.473837 105.902528 
L 92.641237 114.2398 
L 92.808637 109.02482 
L 92.976037 108.228127 
L 93.143437 109.549682 
L 93.310837 104.041813 
L 93.478237 117.239847 
L 93.645637 113.929549 
L 93.813037 106.038137 
L 93.980437 111.080282 
L 94.147837 102.770538 
L 94.482637 115.834516 
L 94.650037 108.972879 
L 94.817437 110.450036 
L 94.984837 115.912587 
L 95.319637 111.23257 
L 95.487037 111.790574 
L 95.654437 108.831299 
L 95.821837 109.099197 
L 95.989237 108.289582 
L 96.324037 100.810485 
L 96.491437 104.778409 
L 96.658837 99.801385 
L 96.826237 100.323152 
L 96.993637 104.853036 
L 97.161037 100.488142 
L 97.328437 101.779332 
L 97.495837 100.968503 
L 97.663237 102.030208 
L 97.830637 103.851489 
L 97.998037 97.373237 
L 98.165437 97.694562 
L 98.332837 99.983107 
L 98.500237 88.322322 
L 98.835037 101.713779 
L 99.002437 93.98281 
L 99.169837 96.648357 
L 99.337237 105.772609 
L 99.504637 94.006246 
L 99.672037 95.715848 
L 99.839437 96.250086 
L 100.006837 91.685146 
L 100.174237 101.096218 
L 100.341637 93.359434 
L 100.509037 90.788612 
L 100.676437 94.608429 
L 100.843837 87.908476 
L 101.178637 94.805229 
L 101.346037 94.542159 
L 101.513437 89.240872 
L 101.680837 88.639713 
L 102.015637 93.082245 
L 102.183037 87.963437 
L 102.350437 87.677265 
L 102.517837 86.132408 
L 102.685237 82.963784 
L 102.852637 91.891814 
L 103.187437 85.576436 
L 103.522237 96.801745 
L 103.689637 80.811461 
L 103.857037 87.427283 
L 104.024437 88.927967 
L 104.191837 88.706022 
L 104.359237 89.295065 
L 104.526637 83.035646 
L 104.694037 89.232388 
L 104.861437 81.269383 
L 105.196237 84.1642 
L 105.363637 74.332332 
L 105.531037 85.413953 
L 105.698437 81.894574 
L 105.865837 74.353465 
L 106.033237 83.44698 
L 106.200637 76.402009 
L 106.368037 83.409332 
L 106.535437 82.46089 
L 106.702837 80.774926 
L 106.870237 80.867287 
L 107.037637 72.174773 
L 107.205037 84.004227 
L 107.372437 83.652716 
L 107.539837 76.171223 
L 107.707237 79.269285 
L 107.874637 77.720468 
L 108.042037 78.47401 
L 108.209437 83.22309 
L 108.376837 76.847781 
L 108.544237 78.460537 
L 108.711637 81.578373 
L 108.879037 73.83847 
L 109.046437 85.354973 
L 109.213837 79.997844 
L 109.381237 79.119354 
L 109.883437 82.128396 
L 110.050838 75.017343 
L 110.385637 80.944671 
L 110.553037 74.658109 
L 110.887837 78.668431 
L 111.222637 70.676224 
L 111.390037 78.749763 
L 111.724837 72.103583 
L 111.892237 77.481146 
L 112.059637 76.683924 
L 112.227037 70.66822 
L 112.394437 78.659502 
L 112.729237 70.862038 
L 112.896637 75.844798 
L 113.064037 70.65337 
L 113.231437 75.216075 
L 113.398837 72.446787 
L 113.566237 74.379912 
L 113.733637 71.421902 
L 113.901037 72.444351 
L 114.068437 77.533051 
L 114.235837 71.500994 
L 114.403237 69.891011 
L 114.570637 80.480363 
L 114.905437 72.605238 
L 115.072837 79.52313 
L 115.240237 79.291614 
L 115.407637 74.354291 
L 115.742437 77.549066 
L 115.909837 74.768964 
L 116.077237 77.105506 
L 116.244637 72.378639 
L 116.412037 76.951515 
L 116.579437 76.648798 
L 116.746837 66.791399 
L 116.914237 80.096777 
L 117.081637 70.288836 
L 117.249037 68.862981 
L 117.416437 76.209387 
L 117.583837 66.850423 
L 117.751237 73.540659 
L 117.918637 69.260179 
L 118.086037 72.666588 
L 118.253437 78.850787 
L 118.420837 65.933622 
L 118.588237 74.469497 
L 118.755637 67.977374 
L 118.923037 66.351773 
L 119.090437 77.065497 
L 119.257837 66.492951 
L 119.425237 68.206047 
L 119.592637 73.550321 
L 119.760037 64.227648 
L 119.927437 75.75538 
L 120.094837 68.949344 
L 120.262237 68.319688 
L 120.429637 72.709355 
L 120.597037 69.373054 
L 120.764437 73.876182 
L 121.099238 61.654919 
L 121.266637 70.163335 
L 121.434037 69.374809 
L 121.601437 72.481129 
L 121.768837 63.31115 
L 121.936237 71.391394 
L 122.103637 70.668645 
L 122.271037 69.104639 
L 122.438437 70.66048 
L 122.773237 66.761484 
L 122.940637 70.207024 
L 123.108037 66.072129 
L 123.275437 69.900054 
L 123.442837 70.144093 
L 123.610237 71.367002 
L 123.945037 65.382734 
L 124.279837 70.187155 
L 124.447237 65.656886 
L 124.614638 68.307724 
L 124.782038 59.387596 
L 124.949438 62.213757 
L 125.116838 74.973395 
L 125.284238 60.811845 
L 125.451638 63.067387 
L 125.619038 68.664737 
L 125.786438 59.369887 
L 125.953837 65.735771 
L 126.121237 65.95849 
L 126.288637 63.963777 
L 126.456037 70.675494 
L 126.623437 61.541541 
L 126.790837 70.932534 
L 126.958237 68.609823 
L 127.125637 68.491788 
L 127.293037 73.500393 
L 127.460437 61.902393 
L 127.795237 71.41703 
L 127.962637 61.534163 
L 128.130037 67.188429 
L 128.464837 63.491974 
L 128.632237 65.182432 
L 128.799637 68.758668 
L 129.134437 60.168366 
L 129.469237 70.097914 
L 129.636637 62.115805 
L 129.804037 64.419338 
L 129.971437 63.008242 
L 130.138837 58.348149 
L 130.306237 66.438735 
L 130.473637 61.127406 
L 130.808437 60.363408 
L 130.975837 66.855056 
L 131.143237 64.972747 
L 131.310637 61.09316 
L 131.478037 59.896298 
L 131.645437 66.067838 
L 131.980237 60.678318 
L 132.147637 61.395203 
L 132.315037 66.3662 
L 132.482437 60.912472 
L 132.649837 60.723052 
L 132.817237 56.568898 
L 133.152037 68.555709 
L 133.319437 54.002503 
L 133.654237 68.875684 
L 133.989037 63.950394 
L 134.156437 64.142831 
L 134.323837 63.634201 
L 134.491237 63.641192 
L 134.658637 63.265069 
L 134.826037 60.218146 
L 134.993437 66.934217 
L 135.160837 57.763324 
L 135.328237 64.470496 
L 135.495637 65.934881 
L 135.663037 62.762106 
L 135.830437 65.240617 
L 135.997837 64.428882 
L 136.165237 62.397737 
L 136.332637 62.45717 
L 136.500037 59.066628 
L 136.667437 71.010483 
L 136.834837 61.276726 
L 137.002237 61.263659 
L 137.169637 67.233471 
L 137.337037 55.204356 
L 137.504437 67.451405 
L 137.671837 60.982366 
L 137.839237 62.652172 
L 138.006637 68.438054 
L 138.174037 58.816152 
L 138.341437 65.07374 
L 138.508837 61.699963 
L 138.843637 66.554566 
L 139.011037 64.987431 
L 139.178437 67.858907 
L 139.345837 60.005 
L 139.513237 63.907724 
L 139.848037 57.364755 
L 140.015437 69.973359 
L 140.182837 63.38532 
L 140.350237 65.168649 
L 140.517637 61.525476 
L 140.685037 61.171567 
L 141.187237 65.829733 
L 141.354637 64.479993 
L 141.522037 59.986141 
L 141.689437 60.92826 
L 141.856837 63.721051 
L 142.191637 54.485654 
L 142.359037 71.408331 
L 142.693838 54.87731 
L 142.861237 64.459751 
L 143.028638 64.707424 
L 143.196037 62.550765 
L 143.363437 56.558209 
L 143.530837 65.781548 
L 143.698237 66.966773 
L 143.865637 52.417289 
L 144.033037 66.652299 
L 144.367837 52.807489 
L 144.535237 64.734497 
L 144.702637 55.935132 
L 144.870037 63.32863 
L 145.037437 56.897596 
L 145.204837 56.185078 
L 145.372237 64.913303 
L 145.539637 56.065817 
L 145.874437 64.648701 
L 146.041837 59.733212 
L 146.209238 68.208477 
L 146.376637 56.540048 
L 146.711437 63.03527 
L 146.878838 63.336471 
L 147.213638 57.4431 
L 147.381037 63.584684 
L 147.548438 65.250031 
L 147.883238 57.950818 
L 148.218037 65.604609 
L 148.385437 54.746456 
L 148.720237 63.556393 
L 148.887637 61.815457 
L 149.222437 62.799888 
L 149.389837 59.961962 
L 149.724637 65.352621 
L 149.892037 57.696275 
L 150.059437 60.373259 
L 150.226837 59.358535 
L 150.394237 59.664773 
L 150.561637 60.391694 
L 150.729037 59.560294 
L 150.896437 59.74341 
L 151.063837 56.669328 
L 151.231237 65.365016 
L 151.398637 62.030321 
L 151.566037 56.188486 
L 151.733437 63.640779 
L 151.900837 55.038976 
L 152.235637 64.687442 
L 152.403037 59.70158 
L 152.570437 64.833947 
L 152.737837 62.647246 
L 152.905237 61.922434 
L 153.240037 67.613713 
L 153.407437 60.476567 
L 153.574837 67.063029 
L 153.742237 60.506186 
L 153.909637 63.712515 
L 154.077037 62.671243 
L 154.244437 53.393834 
L 154.411837 64.936524 
L 154.579237 59.699135 
L 154.914037 64.365799 
L 155.081437 53.215633 
L 155.416237 63.05573 
L 155.583637 57.036831 
L 155.751037 64.21048 
L 155.918437 55.172229 
L 156.085837 63.37163 
L 156.420637 58.75387 
L 156.588037 71.271973 
L 156.755437 63.019342 
L 156.922837 68.124211 
L 157.090237 56.882094 
L 157.257637 64.543046 
L 157.425037 63.976928 
L 157.759837 57.725115 
L 157.927237 63.5055 
L 158.094637 65.155818 
L 158.262037 49.65425 
L 158.429437 60.323819 
L 158.596837 63.345918 
L 158.764237 56.583507 
L 158.931637 62.104985 
L 159.099037 55.207807 
L 159.266437 58.958792 
L 159.433837 59.204349 
L 159.601237 63.390375 
L 159.936037 56.841203 
L 160.103437 65.077393 
L 160.270837 57.103144 
L 160.605637 60.469648 
L 160.773037 55.603543 
L 161.107837 60.855476 
L 161.275237 58.198991 
L 161.442637 63.258558 
L 161.777437 54.48263 
L 162.112237 64.42004 
L 162.447037 53.742999 
L 162.614437 61.682234 
L 162.781837 61.155756 
L 163.116637 59.19891 
L 163.284037 58.297923 
L 163.451437 66.352387 
L 163.618837 55.893653 
L 163.786237 63.297647 
L 163.953637 62.88121 
L 164.121037 54.574496 
L 164.455837 66.445603 
L 164.623237 59.322674 
L 164.790637 62.187722 
L 164.958037 63.050657 
L 165.125437 59.462859 
L 165.292837 63.760422 
L 165.460237 61.308378 
L 165.627637 53.504768 
L 165.962437 62.692348 
L 166.129837 64.302689 
L 166.297237 56.817226 
L 166.632037 64.9955 
L 166.799437 58.509881 
L 166.966837 58.390507 
L 167.134237 62.397887 
L 167.301637 57.369142 
L 167.469037 62.239927 
L 167.636437 56.831565 
L 167.803837 59.914243 
L 167.971237 65.909356 
L 168.138637 55.328854 
L 168.306037 56.723228 
L 168.473437 63.688036 
L 168.640837 63.99061 
L 168.975637 56.112308 
L 169.143037 58.05953 
L 169.310437 65.058996 
L 169.477837 62.870989 
L 169.645237 57.808093 
L 169.812637 65.219514 
L 169.980037 59.927218 
L 170.147437 63.389447 
L 170.314837 59.933829 
L 170.482237 60.347682 
L 170.649637 60.259662 
L 170.984437 65.530181 
L 171.151837 54.159019 
L 171.319237 54.125407 
L 171.654037 64.647729 
L 171.821437 53.867159 
L 172.156237 63.175044 
L 172.323637 58.225742 
L 172.491037 59.901626 
L 172.658437 62.910751 
L 172.825837 57.527015 
L 172.993237 60.009049 
L 173.160637 68.639386 
L 173.328037 55.944615 
L 173.495437 55.634526 
L 173.662837 63.222796 
L 173.830237 59.790147 
L 173.997637 60.766492 
L 174.165037 55.013347 
L 174.332437 55.149655 
L 174.667237 64.912391 
L 174.834637 57.696257 
L 175.002037 58.624474 
L 175.169437 61.560616 
L 175.336837 54.016231 
L 175.671637 60.678818 
L 175.839037 57.018933 
L 176.006437 56.377746 
L 176.173837 64.779488 
L 176.341237 51.307398 
L 176.508637 54.035186 
L 176.676037 60.705081 
L 176.843437 50.557706 
L 177.010837 64.555546 
L 177.178237 48.366973 
L 177.513037 65.079433 
L 177.680437 54.390759 
L 178.015237 58.639646 
L 178.350037 63.308362 
L 178.517437 56.477198 
L 178.684837 60.146547 
L 178.852237 59.893923 
L 179.019637 57.449384 
L 179.187037 57.953653 
L 179.354437 54.29699 
L 179.521837 61.610077 
L 179.689237 59.808581 
L 179.856637 55.292941 
L 180.024037 59.282327 
L 180.191437 60.109252 
L 180.358837 53.421439 
L 180.526237 61.007592 
L 180.693637 58.863453 
L 180.861037 54.402297 
L 181.028437 58.730907 
L 181.195837 55.618115 
L 181.363237 59.27283 
L 181.530637 57.941649 
L 181.698037 53.266079 
L 181.865437 63.349599 
L 182.032837 55.570326 
L 182.200237 56.744716 
L 182.367637 53.444071 
L 182.535037 59.389646 
L 182.869837 56.105343 
L 183.037237 60.705496 
L 183.204637 52.973254 
L 183.372037 59.865853 
L 183.539437 62.113335 
L 183.706837 53.60687 
L 184.041637 61.378629 
L 184.209037 53.970633 
L 184.376437 55.836208 
L 184.543837 54.87926 
L 184.711237 54.960788 
L 184.878637 60.512601 
L 185.046037 60.03753 
L 185.380837 54.217314 
L 185.548237 53.979983 
L 185.715637 57.2929 
L 185.883037 56.997132 
L 186.050437 59.397554 
L 186.217837 53.778574 
L 186.385237 54.729701 
L 186.552637 57.896898 
L 186.720037 53.665303 
L 187.054837 61.223664 
L 187.557037 54.390109 
L 187.724437 61.924873 
L 187.891837 56.603549 
L 188.059237 59.312901 
L 188.226637 55.530579 
L 188.394037 57.558606 
L 188.561437 57.987346 
L 188.728837 52.499915 
L 188.896237 55.294244 
L 189.063637 60.226781 
L 189.231037 55.994322 
L 189.565837 61.029893 
L 189.900637 54.893231 
L 190.235437 60.312678 
L 190.402837 52.060157 
L 190.570237 57.331882 
L 190.905037 51.879582 
L 191.239837 60.373023 
L 191.407237 55.14994 
L 191.574637 56.197473 
L 191.742037 61.55163 
L 191.909437 52.184564 
L 192.076837 62.660122 
L 192.244237 51.639524 
L 192.411637 51.304548 
L 192.579037 63.755262 
L 192.913837 51.906138 
L 193.081237 57.75789 
L 193.248637 54.377033 
L 193.416037 56.582304 
L 193.583437 54.222544 
L 193.750837 58.174043 
L 194.085637 55.461728 
L 194.253037 55.721336 
L 194.420437 53.724154 
L 194.587837 56.925594 
L 194.755237 56.657967 
L 194.922637 51.283195 
L 195.090037 58.375084 
L 195.424837 60.173912 
L 195.592237 63.393053 
L 195.759637 56.186094 
L 195.927037 57.790783 
L 196.094437 55.291295 
L 196.429237 62.903214 
L 196.596637 57.361172 
L 196.931437 59.405622 
L 197.098837 60.842079 
L 197.266237 56.452116 
L 197.433637 63.711109 
L 197.601037 60.260316 
L 197.768437 53.867634 
L 197.935837 61.145062 
L 198.103237 60.073396 
L 198.270637 64.255106 
L 198.438037 53.208881 
L 198.772837 62.147555 
L 198.940237 53.5102 
L 199.107637 58.471245 
L 199.275037 54.773588 
L 199.609837 58.604651 
L 199.777237 57.165047 
L 200.112037 61.323828 
L 200.279438 58.525113 
L 200.446837 64.422689 
L 200.781637 50.940805 
L 200.949038 62.675809 
L 201.116437 62.858079 
L 201.283838 53.600071 
L 201.451237 64.625217 
L 201.618638 55.39489 
L 201.786037 57.835383 
L 201.953437 57.773056 
L 202.120837 59.22857 
L 202.288237 64.106902 
L 202.455637 56.245147 
L 202.623037 56.505965 
L 202.790437 57.517916 
L 202.957837 61.742235 
L 203.125237 57.223216 
L 203.292637 57.993669 
L 203.460037 55.793945 
L 203.627437 61.264157 
L 203.794837 58.903705 
L 203.962237 53.204455 
L 204.129637 58.09732 
L 204.297037 58.696745 
L 204.464437 58.580748 
L 204.799237 55.171713 
L 204.966637 61.57898 
L 205.134037 52.228705 
L 205.301437 64.321026 
L 205.468837 54.913469 
L 205.803637 65.05712 
L 205.971037 53.599863 
L 206.138437 62.288185 
L 206.473237 55.44319 
L 206.640637 65.490647 
L 206.808037 58.745832 
L 206.975437 58.206595 
L 207.142837 64.79354 
L 207.310237 55.987937 
L 207.477637 60.28779 
L 207.645037 60.553396 
L 207.979837 53.421837 
L 208.147237 61.080623 
L 208.314637 59.448478 
L 208.482037 51.535092 
L 208.649437 58.07254 
L 208.816837 55.468892 
L 208.984237 57.655857 
L 209.319037 53.423077 
L 209.486437 62.200932 
L 209.653837 54.738736 
L 209.821237 53.657 
L 209.988637 56.295624 
L 210.156037 61.367538 
L 210.323437 50.593708 
L 210.490837 52.807377 
L 210.658237 61.68949 
L 210.993037 51.394491 
L 211.160438 60.797789 
L 211.327837 61.199898 
L 211.495238 56.345566 
L 211.662637 56.011165 
L 211.830038 52.497457 
L 211.997437 56.859001 
L 212.164837 57.20356 
L 212.332237 59.566507 
L 212.499637 54.433183 
L 212.667037 61.026864 
L 212.834437 61.097356 
L 213.001837 62.102009 
L 213.169237 57.088162 
L 213.336637 56.352991 
L 213.504037 62.785784 
L 213.671437 56.253124 
L 214.006237 57.73168 
L 214.173637 54.064134 
L 214.341037 55.937629 
L 214.508437 55.802932 
L 214.675837 57.769445 
L 214.843237 61.591533 
L 215.010637 56.402868 
L 215.178037 62.383009 
L 215.345437 50.386347 
L 215.512837 66.82423 
L 215.680237 51.983289 
L 215.847637 53.240894 
L 216.015037 63.691636 
L 216.182437 48.366239 
L 216.349837 50.750612 
L 216.517237 57.011536 
L 216.684637 54.683589 
L 216.852037 54.346417 
L 217.019437 57.125677 
L 217.186837 56.949966 
L 217.354237 51.118164 
L 217.521637 64.660656 
L 217.689037 54.984999 
L 217.856437 57.190407 
L 218.023837 57.618884 
L 218.191237 58.525386 
L 218.358637 57.659867 
L 218.526038 60.782541 
L 218.693437 56.34982 
L 219.028237 61.345296 
L 219.195638 56.22321 
L 219.530438 60.063127 
L 219.697837 54.383054 
L 219.865238 56.042788 
L 220.032637 56.168334 
L 220.200038 53.143796 
L 220.367437 55.650943 
L 220.534838 56.266914 
L 220.702237 63.257256 
L 220.869638 56.356386 
L 221.204438 53.063889 
L 221.371837 60.71175 
L 221.539237 46.809767 
L 221.706637 56.934604 
L 221.874037 56.879781 
L 222.041437 57.680912 
L 222.208837 60.262572 
L 222.376237 50.732818 
L 222.711037 60.311286 
L 222.878437 53.190776 
L 223.045837 56.444449 
L 223.213237 53.188942 
L 223.548037 56.926235 
L 223.715437 53.99658 
L 223.882837 53.11782 
L 224.050237 61.005795 
L 224.217637 58.486831 
L 224.385037 50.346186 
L 224.552437 62.116679 
L 224.887237 53.809677 
L 225.054637 60.78829 
L 225.222037 56.653097 
L 225.556837 54.043562 
L 225.724237 61.843261 
L 225.891637 53.438703 
L 226.226437 59.660732 
L 226.393837 51.78635 
L 226.561237 61.224593 
L 226.728637 55.795975 
L 226.896037 57.61124 
L 227.063437 53.271034 
L 227.230837 59.846264 
L 227.398237 59.890686 
L 227.565637 52.729898 
L 227.900437 60.107006 
L 228.067837 55.735003 
L 228.235237 55.546126 
L 228.402637 57.234205 
L 228.570037 63.719778 
L 228.737437 59.334535 
L 228.904837 51.364444 
L 229.072237 62.522727 
L 229.407037 53.858848 
L 229.574437 61.994185 
L 229.741837 54.306774 
L 229.909237 55.687268 
L 230.076637 58.242013 
L 230.244037 56.113808 
L 230.578837 62.857701 
L 230.913637 54.981668 
L 231.248437 62.533014 
L 231.415837 57.435097 
L 231.583237 60.356919 
L 231.750637 58.634221 
L 231.918037 53.686214 
L 232.085437 61.372302 
L 232.252837 61.11986 
L 232.420237 57.273659 
L 232.587637 62.565286 
L 232.755037 58.209329 
L 232.922437 57.733772 
L 233.089837 60.884138 
L 233.257237 61.792057 
L 233.424637 57.436698 
L 233.592037 56.697578 
L 233.759437 61.531809 
L 234.094237 54.206331 
L 234.261637 61.799297 
L 234.429037 55.844736 
L 234.596437 54.016297 
L 234.763837 63.569576 
L 235.098637 58.003585 
L 235.266037 63.091099 
L 235.433437 49.343885 
L 235.600837 60.5309 
L 235.768237 63.558328 
L 235.935637 51.767523 
L 236.103037 60.944442 
L 236.437838 54.070983 
L 236.772638 59.551902 
L 236.940037 56.091207 
L 237.274837 59.847087 
L 237.442238 56.123845 
L 237.609637 54.899432 
L 237.777038 62.323613 
L 238.111838 55.80176 
L 238.279237 64.327374 
L 238.446638 59.4741 
L 238.614037 63.217062 
L 238.948837 55.04475 
L 239.116237 63.733534 
L 239.451037 53.945467 
L 239.785837 61.577174 
L 239.953237 57.532813 
L 240.120637 57.081 
L 240.288037 57.003362 
L 240.455437 60.872901 
L 240.622837 61.276325 
L 240.790237 56.948271 
L 240.957637 59.788051 
L 241.125037 60.053983 
L 241.292437 61.380407 
L 241.459837 68.87386 
L 241.627237 54.468962 
L 241.794637 58.109284 
L 241.962037 58.447599 
L 242.129437 59.740853 
L 242.296837 67.545878 
L 242.464237 55.336287 
L 242.799037 58.693221 
L 242.966437 60.656937 
L 243.133837 52.828458 
L 243.468637 64.816015 
L 243.636037 51.934439 
L 243.803438 60.768617 
L 243.970837 52.846763 
L 244.138238 56.112982 
L 244.305637 57.080852 
L 244.473038 54.136187 
L 244.640437 56.918585 
L 244.807837 55.549184 
L 244.975237 56.398948 
L 245.142637 56.658203 
L 245.310037 55.924974 
L 245.477437 57.398676 
L 245.644837 61.574149 
L 245.812237 60.821469 
L 245.979637 53.528963 
L 246.147037 62.550218 
L 246.481837 54.471349 
L 246.649237 59.257183 
L 246.816637 59.96185 
L 246.984037 55.415416 
L 247.151437 59.419986 
L 247.486237 56.302623 
L 247.653637 59.630858 
L 247.821037 56.818854 
L 247.988437 56.119499 
L 248.155837 60.411919 
L 248.323237 56.725378 
L 248.490637 58.079947 
L 248.658037 54.567907 
L 248.825437 60.684749 
L 248.992837 55.204229 
L 249.160237 54.62498 
L 249.327637 59.041776 
L 249.495037 54.149955 
L 249.662437 54.924826 
L 249.829837 62.157533 
L 249.997237 59.159681 
L 250.164637 51.396228 
L 250.332037 53.294834 
L 250.499437 63.743584 
L 250.666837 56.414411 
L 250.834237 54.351715 
L 251.001637 60.794787 
L 251.336437 48.091456 
L 251.503837 58.481356 
L 251.671237 55.289414 
L 251.838637 59.671379 
L 252.006037 54.200338 
L 252.340837 57.982316 
L 252.508237 58.825656 
L 252.675637 58.991474 
L 252.843037 64.114687 
L 253.010437 59.662952 
L 253.177837 60.725233 
L 253.345237 59.744246 
L 253.512637 61.91451 
L 253.680037 56.635646 
L 253.847437 57.458322 
L 254.014837 64.237321 
L 254.182237 60.816564 
L 254.349638 52.446855 
L 254.517037 59.50301 
L 254.684438 58.397135 
L 254.851837 55.884098 
L 255.019238 58.839979 
L 255.186637 54.875921 
L 255.521437 61.10685 
L 255.688838 54.242634 
L 255.856237 54.686993 
L 256.023638 62.658465 
L 256.191037 63.337388 
L 256.358437 49.870677 
L 256.525837 64.916109 
L 256.860637 54.2933 
L 257.028037 59.115021 
L 257.195437 58.783284 
L 257.362838 59.542953 
L 257.530237 58.695434 
L 257.697637 55.173307 
L 257.865037 60.304543 
L 258.032438 50.801386 
L 258.199838 62.178571 
L 258.534637 55.270035 
L 258.702038 67.257208 
L 258.869438 52.23186 
L 259.204237 60.445273 
L 259.371638 59.113357 
L 259.539038 62.355203 
L 259.706437 53.68021 
L 259.873837 58.461286 
L 260.041238 58.069438 
L 260.208638 59.371974 
L 260.376037 49.467467 
L 260.543437 60.650366 
L 260.710838 64.256334 
L 260.878238 57.489819 
L 261.213037 56.175081 
L 261.380438 62.302823 
L 261.547838 54.949018 
L 261.715238 55.372128 
L 261.882637 64.598192 
L 262.050038 56.449042 
L 262.217438 59.779965 
L 262.384838 53.780478 
L 262.552237 60.946956 
L 262.719638 61.501656 
L 262.887038 55.310568 
L 263.054438 63.022835 
L 263.221837 50.214386 
L 263.389238 62.855924 
L 263.556638 60.338146 
L 263.724038 50.985573 
L 263.891437 60.803417 
L 264.058838 56.705773 
L 264.226237 56.882724 
L 264.393638 56.141439 
L 264.561037 60.021077 
L 264.728438 57.81743 
L 264.895837 53.321083 
L 265.063238 55.486291 
L 265.230638 64.849206 
L 265.398038 56.578365 
L 265.565437 57.734473 
L 265.732838 59.745702 
L 265.900238 55.925746 
L 266.067637 61.979154 
L 266.569838 54.483083 
L 266.904637 61.922827 
L 267.072037 53.038039 
L 267.239438 59.753015 
L 267.406837 59.333959 
L 267.574237 62.187488 
L 267.909038 54.621147 
L 268.076437 62.433694 
L 268.243837 53.842192 
L 268.411237 56.619233 
L 268.578638 62.010965 
L 268.746037 51.645655 
L 268.913437 61.54997 
L 269.080837 62.376869 
L 269.415638 54.50678 
L 269.750437 63.534381 
L 269.917838 56.955193 
L 270.252637 58.492238 
L 270.420037 59.149495 
L 270.587438 60.404544 
L 270.754838 54.05587 
L 271.089637 61.204277 
L 271.257038 53.48719 
L 271.424438 61.952605 
L 271.759237 55.374098 
L 271.926638 56.517414 
L 272.094037 60.69322 
L 272.261437 54.943347 
L 272.428837 56.266578 
L 272.596238 61.170493 
L 272.763637 62.681534 
L 272.931038 53.169691 
L 273.098437 56.058115 
L 273.265838 62.019299 
L 273.433237 54.048366 
L 273.600638 58.682266 
L 273.768037 58.008073 
L 273.935437 51.921679 
L 274.102837 56.117186 
L 274.270238 66.34727 
L 274.437637 53.900291 
L 274.605037 57.051367 
L 274.772437 52.915964 
L 274.939838 57.185565 
L 275.107237 54.908233 
L 275.274637 49.80828 
L 275.442037 59.047531 
L 275.609438 57.231371 
L 275.776837 50.546895 
L 275.944237 52.371864 
L 276.111637 57.383618 
L 276.279038 52.488931 
L 276.446438 51.043023 
L 276.613837 57.787311 
L 276.781237 53.663645 
L 276.948638 53.759917 
L 277.116038 55.852707 
L 277.283437 51.606328 
L 277.450837 56.740534 
L 277.618238 52.669308 
L 277.785638 52.982393 
L 278.287838 61.57878 
L 278.455238 53.782034 
L 278.622637 59.771407 
L 278.790037 53.267603 
L 278.957438 57.406065 
L 279.124838 64.585319 
L 279.292237 50.659125 
L 279.459637 59.498799 
L 279.627038 59.511434 
L 279.794438 58.172717 
L 279.961838 58.60529 
L 280.129237 57.134732 
L 280.296638 61.402398 
L 280.464038 54.976716 
L 280.631438 59.894017 
L 280.798837 59.066175 
L 280.966238 63.612537 
L 281.133638 53.202587 
L 281.468437 62.106986 
L 281.635838 53.057038 
L 281.970638 56.455557 
L 282.138037 55.251127 
L 282.305438 56.005402 
L 282.472837 54.34619 
L 282.640238 63.396379 
L 282.807637 53.561429 
L 282.975037 55.134735 
L 283.142437 58.108369 
L 283.309838 55.286688 
L 283.477238 55.744041 
L 283.979438 58.315119 
L 284.146838 60.699751 
L 284.314237 55.380525 
L 284.481637 58.791569 
L 284.649038 64.682324 
L 284.816438 58.295285 
L 284.983837 59.895588 
L 285.151237 57.958584 
L 285.318638 53.14429 
L 285.486038 60.420254 
L 285.653437 60.749216 
L 285.820837 61.758409 
L 286.155638 58.582028 
L 286.323037 59.997742 
L 286.490437 56.329214 
L 286.825237 59.878779 
L 286.992638 55.230084 
L 287.160037 57.437339 
L 287.327438 55.9909 
L 287.494837 57.780576 
L 287.662237 61.050739 
L 287.829637 54.959781 
L 287.997037 56.405807 
L 288.164437 59.178441 
L 288.331837 55.854533 
L 288.499237 61.848962 
L 288.666637 55.426587 
L 288.834037 55.746208 
L 289.001437 59.560359 
L 289.168837 55.351676 
L 289.336237 59.704558 
L 289.503637 55.856303 
L 289.671037 58.451418 
L 289.838437 57.280436 
L 290.005837 53.376829 
L 290.173237 63.894041 
L 290.340637 50.241596 
L 290.508038 59.794243 
L 290.675437 59.568541 
L 290.842837 53.839074 
L 291.010237 61.931202 
L 291.177638 59.070303 
L 291.345037 58.454066 
L 291.512437 60.966097 
L 291.679837 56.505222 
L 291.847238 58.953749 
L 292.014637 58.771916 
L 292.182037 51.212588 
L 292.516838 60.099397 
L 292.684237 52.945142 
L 292.851637 61.708399 
L 293.019037 62.430028 
L 293.186438 48.8995 
L 293.521237 61.60943 
L 293.688637 59.090948 
L 293.856038 60.788232 
L 294.023438 61.184879 
L 294.190837 53.408384 
L 294.358237 56.445688 
L 294.525638 63.712652 
L 294.693037 56.564316 
L 294.860437 60.291202 
L 295.027837 60.907935 
L 295.195238 56.986775 
L 295.362637 58.291337 
L 295.530037 60.955287 
L 295.697437 56.296062 
L 295.864837 57.810273 
L 296.032237 55.651308 
L 296.199637 60.397259 
L 296.367037 53.764735 
L 296.534437 55.771099 
L 296.701837 61.695819 
L 296.869237 52.597578 
L 297.036637 53.906356 
L 297.204037 59.560544 
L 297.371437 53.795739 
L 297.538837 52.952263 
L 297.873637 60.633687 
L 298.041037 45.883636 
L 298.208438 60.640201 
L 298.375837 59.334697 
L 298.543237 51.376285 
L 298.710637 63.843947 
L 298.878038 53.094513 
L 299.045437 54.114863 
L 299.212837 57.306931 
L 299.380237 53.708778 
L 299.547638 58.582403 
L 299.715037 52.64499 
L 299.882437 54.43383 
L 300.049837 58.480898 
L 300.217238 57.951419 
L 300.384637 57.046636 
L 300.552037 51.851284 
L 300.719437 61.579874 
L 301.054237 52.89152 
L 301.221637 59.729996 
L 301.389037 56.281015 
L 301.556438 56.977326 
L 301.723838 55.567108 
L 301.891237 59.65466 
L 302.058637 56.195253 
L 302.226038 55.213151 
L 302.393438 51.512602 
L 302.560837 58.90714 
L 302.728237 55.176907 
L 303.063038 59.690998 
L 303.230437 56.394717 
L 303.565238 58.598537 
L 303.732637 57.935272 
L 303.900037 61.367841 
L 304.067437 60.671583 
L 304.234838 53.427285 
L 304.402237 56.686892 
L 304.569637 64.276503 
L 304.737037 53.99947 
L 305.071837 63.430812 
L 305.239238 55.495898 
L 305.406637 60.301776 
L 305.574037 53.016484 
L 305.741437 60.56167 
L 306.076237 55.379685 
L 306.411037 60.863461 
L 306.745837 53.33047 
L 306.913237 61.664504 
L 307.080637 55.432605 
L 307.248038 56.312226 
L 307.582837 55.062539 
L 307.750237 53.857623 
L 307.917638 54.46967 
L 308.085037 57.316081 
L 308.252437 56.038773 
L 308.587238 58.560209 
L 308.754638 51.518188 
L 309.089437 65.604667 
L 309.256837 53.309883 
L 309.591637 57.522894 
L 309.759037 58.501388 
L 310.093838 54.765351 
L 310.261237 57.810783 
L 310.428637 53.287165 
L 310.596037 56.690163 
L 310.763438 53.385185 
L 310.930837 52.874664 
L 311.098237 60.377216 
L 311.265637 54.802926 
L 311.433038 53.349158 
L 311.600437 58.509422 
L 311.767837 53.890044 
L 311.935237 56.077595 
L 312.102638 60.084782 
L 312.437437 55.259995 
L 312.604837 62.997375 
L 312.772238 50.912763 
L 312.939637 54.121402 
L 313.107037 62.885399 
L 313.274437 54.382455 
L 313.609237 58.033013 
L 313.776637 51.85473 
L 313.944037 50.859533 
L 314.111437 57.692653 
L 314.278837 59.67759 
L 314.446237 52.136594 
L 314.613637 58.405419 
L 314.781037 57.191855 
L 314.948437 54.360622 
L 315.115837 58.033631 
L 315.283237 48.171806 
L 315.450637 57.101432 
L 315.785438 56.169533 
L 316.120237 61.837353 
L 316.287637 56.826785 
L 316.455038 59.358906 
L 316.789837 56.581493 
L 316.957237 59.386871 
L 317.292037 55.463408 
L 317.459437 57.139594 
L 317.626837 56.541532 
L 317.794238 61.435663 
L 317.961637 53.516919 
L 318.129037 56.823353 
L 318.296437 63.974942 
L 318.463838 53.719106 
L 318.798637 62.321887 
L 318.966037 55.886345 
L 319.133438 57.036749 
L 319.300838 59.283267 
L 319.468237 53.286032 
L 319.635637 56.865658 
L 319.803038 57.316867 
L 319.970438 53.596453 
L 320.305237 62.388859 
L 320.472638 52.917711 
L 320.640038 60.289783 
L 320.807437 58.32529 
L 320.974837 54.092642 
L 321.142238 53.985788 
L 321.309637 58.063391 
L 321.477037 53.019465 
L 321.644437 57.226613 
L 321.811838 58.215254 
L 321.979237 57.596667 
L 322.314037 54.675242 
L 322.481437 60.292116 
L 322.648837 60.80534 
L 322.816237 54.402375 
L 322.983637 62.974091 
L 323.151037 52.874942 
L 323.318437 57.710778 
L 323.485838 59.032746 
L 323.653237 55.682714 
L 323.820637 61.823603 
L 323.988037 60.80497 
L 324.155438 61.594408 
L 324.322837 53.629839 
L 324.490237 56.407859 
L 324.657637 61.266289 
L 324.825038 59.403809 
L 324.992437 62.979878 
L 325.159837 55.44843 
L 325.327237 61.092794 
L 325.494638 58.454141 
L 325.662037 58.199657 
L 325.829437 62.976976 
L 326.164238 55.644731 
L 326.499037 62.527419 
L 326.666437 54.072626 
L 327.001238 61.776025 
L 327.168637 55.898729 
L 327.336037 55.751256 
L 327.670838 60.70557 
L 327.838237 54.614401 
L 328.005637 54.503565 
L 328.173038 64.642185 
L 328.340438 56.457159 
L 328.675237 57.939376 
L 328.842638 60.576343 
L 329.010038 60.723886 
L 329.177437 54.657501 
L 329.344837 57.048992 
L 329.512238 65.70886 
L 329.679638 56.137991 
L 330.014437 58.071351 
L 330.181838 56.956758 
L 330.349238 57.485767 
L 330.516637 56.650821 
L 330.684037 63.222249 
L 330.851437 56.024064 
L 331.018837 55.115545 
L 331.186237 64.041471 
L 331.353637 55.808684 
L 331.521037 61.341911 
L 331.688437 55.456822 
L 332.023237 59.700963 
L 332.190637 56.82226 
L 332.358037 62.520407 
L 332.525437 52.533148 
L 332.692837 60.330415 
L 333.027637 58.109314 
L 333.195037 53.793556 
L 333.362437 58.249315 
L 333.529837 58.130269 
L 333.697237 56.35894 
L 333.864637 61.939178 
L 334.032038 51.97468 
L 334.199437 61.195615 
L 334.366837 60.191286 
L 334.534237 49.702768 
L 334.701638 62.004556 
L 335.036437 54.050735 
L 335.371238 57.814506 
L 335.538637 56.072638 
L 335.706037 56.511818 
L 335.873437 59.644085 
L 336.040838 50.071913 
L 336.375637 61.315137 
L 336.543037 48.328901 
L 336.710438 57.657683 
L 336.877837 59.225578 
L 337.045237 53.72587 
L 337.212637 53.928501 
L 337.547438 63.196374 
L 337.882237 58.556359 
L 338.049638 59.975282 
L 338.217038 50.891892 
L 338.551837 62.933771 
L 338.719238 56.920057 
L 338.886637 60.364429 
L 339.054037 56.391547 
L 339.221437 59.248766 
L 339.388838 59.605596 
L 339.556237 60.326764 
L 339.723637 60.452587 
L 339.891037 53.104824 
L 340.058437 57.019473 
L 340.225837 57.440182 
L 340.560637 54.025108 
L 340.728037 53.89418 
L 340.895437 55.142382 
L 341.062838 57.788092 
L 341.230237 47.573762 
L 341.397637 57.31619 
L 341.565037 56.04513 
L 341.732438 53.366686 
L 341.899837 57.302443 
L 342.067237 55.156848 
L 342.234637 59.760559 
L 342.402038 54.140549 
L 342.569437 56.233923 
L 342.736837 55.523435 
L 342.904237 51.178801 
L 343.071638 59.785746 
L 343.239037 53.241889 
L 343.406437 59.840633 
L 343.573837 59.43009 
L 343.741238 53.219291 
L 343.908637 58.80604 
L 344.076037 56.33119 
L 344.243437 58.362419 
L 344.410838 57.451757 
L 344.578238 59.00732 
L 344.745637 53.359266 
L 345.080438 63.408561 
L 345.247838 56.041546 
L 345.415237 57.219483 
L 345.582637 52.133094 
L 345.750038 59.843 
L 345.917438 60.587821 
L 346.084837 53.404987 
L 346.419638 58.55265 
L 346.587038 56.846549 
L 346.754437 50.870411 
L 346.921837 62.014804 
L 347.256638 53.841604 
L 347.591437 60.049047 
L 347.926237 50.785746 
L 348.093637 57.689585 
L 348.428438 53.347764 
L 348.595837 58.83334 
L 348.763238 54.92579 
L 348.930637 56.142471 
L 349.098038 61.97648 
L 349.600237 56.733302 
L 349.767637 59.072012 
L 349.935037 57.533709 
L 350.102438 52.460979 
L 350.437237 61.422813 
L 350.604637 60.687618 
L 350.939437 56.012811 
L 351.106837 66.349117 
L 351.274237 54.768767 
L 351.441638 56.676564 
L 351.609037 61.925859 
L 351.776437 54.187817 
L 351.943837 56.207096 
L 352.111237 51.493497 
L 352.446037 56.946845 
L 352.780837 57.56593 
L 352.948238 57.33117 
L 353.115637 55.795201 
L 353.283037 51.99267 
L 353.450437 59.821614 
L 353.617838 56.127285 
L 353.785237 49.69802 
L 353.952637 60.668491 
L 354.287438 55.207823 
L 354.454837 60.520983 
L 354.789637 51.40102 
L 354.957038 63.451885 
L 355.124437 54.40028 
L 355.291837 56.452135 
L 355.459237 63.910463 
L 355.626638 57.17467 
L 355.794037 62.452133 
L 355.961437 53.407738 
L 356.296238 62.936634 
L 356.463637 55.990015 
L 356.631037 57.224209 
L 356.798437 53.570707 
L 356.965838 64.902798 
L 357.133237 51.817225 
L 357.300637 62.534464 
L 357.635437 56.106837 
L 357.802837 63.174742 
L 358.137637 51.569046 
L 358.305037 55.235645 
L 358.639837 57.12545 
L 358.807237 55.413519 
L 358.974637 50.829326 
L 359.309438 58.856193 
L 359.476837 55.355615 
L 359.644237 55.441753 
L 359.811637 56.501648 
L 359.979038 56.558271 
L 360.146437 62.555271 
L 360.313837 54.224833 
L 360.481237 56.871189 
L 360.648638 53.75483 
L 360.816037 55.292001 
L 360.983437 60.001901 
L 361.150837 55.302658 
L 361.318238 55.047825 
L 361.485637 57.051445 
L 361.653037 54.262254 
L 361.820437 55.83048 
L 361.987838 54.793529 
L 362.322637 64.225477 
L 362.490037 50.229358 
L 362.657438 62.02666 
L 362.824838 65.799272 
L 362.992237 49.394791 
L 363.159637 64.172768 
L 363.327038 65.439867 
L 363.494438 57.662515 
L 363.661837 56.557516 
L 363.829237 57.617761 
L 363.996638 57.759762 
L 364.164038 51.374926 
L 364.331437 57.54606 
L 364.498837 57.315974 
L 364.666238 60.647452 
L 365.001037 54.694134 
L 365.168437 61.17552 
L 365.168437 61.17552 
" clip-path="url(#pdf9fe16332)" style="fill: none; stroke: #1f77b4; stroke-width: 1.5; stroke-linecap: square"/>
   </g>
   <g id="line2d_18">
    <path d="M 30.535837 241.271836 
L 31.205437 230.101704 
L 31.875037 222.614141 
L 32.544637 217.595078 
L 33.214237 214.230699 
L 33.883837 211.975488 
L 34.553437 210.463775 
L 35.223037 209.450444 
L 36.060037 208.639759 
L 36.897037 208.148054 
L 37.901437 207.806071 
L 39.408037 207.559217 
L 41.919037 207.427829 
L 48.782437 207.390718 
L 362.992237 207.390093 
L 365.168437 207.390093 
L 365.168437 207.390093 
" clip-path="url(#pdf9fe16332)" style="fill: none; stroke: #ff7f0e; stroke-width: 1.5; stroke-linecap: square"/>
   </g>
   <g id="patch_3">
    <path d="M 30.368437 253.44 
L 30.368437 36 
" style="fill: none; stroke: #000000; stroke-width: 0.8; stroke-linejoin: miter; stroke-linecap: square"/>
   </g>
   <g id="patch_4">
    <path d="M 365.168437 253.44 
L 365.168437 36 
" style="fill: none; stroke: #000000; stroke-width: 0.8; stroke-linejoin: miter; stroke-linecap: square"/>
   </g>
   <g id="patch_5">
    <path d="M 30.368437 253.44 
L 365.168437 253.44 
" style="fill: none; stroke: #000000; stroke-width: 0.8; stroke-linejoin: miter; stroke-linecap: square"/>
   </g>
   <g id="patch_6">
    <path d="M 30.368437 36 
L 365.168437 36 
" style="fill: none; stroke: #000000; stroke-width: 0.8; stroke-linejoin: miter; stroke-linecap: square"/>
   </g>
   <g id="legend_1">
    <g id="patch_7">
     <path d="M 37.368437 77.078125 
L 87.068437 77.078125 
Q 89.068437 77.078125 89.068437 75.078125 
L 89.068437 43 
Q 89.068437 41 87.068437 41 
L 37.368437 41 
Q 35.368437 41 35.368437 43 
L 35.368437 75.078125 
Q 35.368437 77.078125 37.368437 77.078125 
z
" style="fill: #ffffff; opacity: 0.8; stroke: #cccccc; stroke-linejoin: miter"/>
    </g>
    <g id="line2d_19">
     <path d="M 39.368437 52.8 
L 49.368437 52.8 
L 59.368437 52.8 
" style="fill: none; stroke: #1f77b4; stroke-width: 1.5; stroke-linecap: square"/>
    </g>
    <g id="text_17">
     <!-- $\hat{y(t)}$ -->
     <g transform="translate(67.368437 56.3) scale(0.1 -0.1)">
      <defs>
       <path id="DejaVuSans-302" d="M -1831 5119 
L -1369 5119 
L -603 3944 
L -1038 3944 
L -1600 4709 
L -2163 3944 
L -2597 3944 
L -1831 5119 
z
M -1600 3584 
L -1600 3584 
z
" transform="scale(0.015625)"/>
       <path id="DejaVuSans-Oblique-79" d="M 1588 -325 
Q 1188 -997 936 -1164 
Q 684 -1331 294 -1331 
L -159 -1331 
L -63 -850 
L 269 -850 
Q 509 -850 678 -719 
Q 847 -588 1056 -206 
L 1234 128 
L 459 3500 
L 1069 3500 
L 1650 819 
L 3256 3500 
L 3859 3500 
L 1588 -325 
z
" transform="scale(0.015625)"/>
       <path id="DejaVuSans-28" d="M 1984 4856 
Q 1566 4138 1362 3434 
Q 1159 2731 1159 2009 
Q 1159 1288 1364 580 
Q 1569 -128 1984 -844 
L 1484 -844 
Q 1016 -109 783 600 
Q 550 1309 550 2009 
Q 550 2706 781 3412 
Q 1013 4119 1484 4856 
L 1984 4856 
z
" transform="scale(0.015625)"/>
       <path id="DejaVuSans-Oblique-74" d="M 2706 3500 
L 2619 3053 
L 1472 3053 
L 1100 1153 
Q 1081 1047 1072 975 
Q 1063 903 1063 863 
Q 1063 663 1183 572 
Q 1303 481 1569 481 
L 2150 481 
L 2053 0 
L 1503 0 
Q 991 0 739 200 
Q 488 400 488 806 
Q 488 878 497 964 
Q 506 1050 525 1153 
L 897 3053 
L 409 3053 
L 500 3500 
L 978 3500 
L 1172 4494 
L 1747 4494 
L 1556 3500 
L 2706 3500 
z
" transform="scale(0.015625)"/>
       <path id="DejaVuSans-29" d="M 513 4856 
L 1013 4856 
Q 1481 4119 1714 3412 
Q 1947 2706 1947 2009 
Q 1947 1309 1714 600 
Q 1481 -109 1013 -844 
L 513 -844 
Q 928 -128 1133 580 
Q 1338 1288 1338 2009 
Q 1338 2731 1133 3434 
Q 928 4138 513 4856 
z
" transform="scale(0.015625)"/>
      </defs>
      <use xlink:href="#DejaVuSans-302" transform="translate(135.682129 33.015625)"/>
      <use xlink:href="#DejaVuSans-Oblique-79" transform="translate(0 0.640625)"/>
      <use xlink:href="#DejaVuSans-28" transform="translate(59.179688 0.640625)"/>
      <use xlink:href="#DejaVuSans-Oblique-74" transform="translate(98.193359 0.640625)"/>
      <use xlink:href="#DejaVuSans-29" transform="translate(137.402344 0.640625)"/>
     </g>
    </g>
    <g id="line2d_20">
     <path d="M 39.368437 67.498437 
L 49.368437 67.498437 
L 59.368437 67.498437 
" style="fill: none; stroke: #ff7f0e; stroke-width: 1.5; stroke-linecap: square"/>
    </g>
    <g id="text_18">
     <!-- $x(t)$ -->
     <g transform="translate(67.368437 70.998437) scale(0.1 -0.1)">
      <defs>
       <path id="DejaVuSans-Oblique-78" d="M 3841 3500 
L 2234 1784 
L 3219 0 
L 2559 0 
L 1819 1388 
L 531 0 
L -166 0 
L 1556 1844 
L 641 3500 
L 1300 3500 
L 1972 2234 
L 3144 3500 
L 3841 3500 
z
" transform="scale(0.015625)"/>
      </defs>
      <use xlink:href="#DejaVuSans-Oblique-78" transform="translate(0 0.125)"/>
      <use xlink:href="#DejaVuSans-28" transform="translate(59.179688 0.125)"/>
      <use xlink:href="#DejaVuSans-Oblique-74" transform="translate(98.193359 0.125)"/>
      <use xlink:href="#DejaVuSans-29" transform="translate(137.402344 0.125)"/>
     </g>
    </g>
   </g>
  </g>
  <g id="text_19">
   <!-- Accumulate to Threshold model with input of 0.2 with rms=3  -->
   <g transform="translate(7.2 16.318125) scale(0.12 -0.12)">
    <defs>
     <path id="DejaVuSans-41" d="M 2188 4044 
L 1331 1722 
L 3047 1722 
L 2188 4044 
z
M 1831 4666 
L 2547 4666 
L 4325 0 
L 3669 0 
L 3244 1197 
L 1141 1197 
L 716 0 
L 50 0 
L 1831 4666 
z
" transform="scale(0.015625)"/>
     <path id="DejaVuSans-63" d="M 3122 3366 
L 3122 2828 
Q 2878 2963 2633 3030 
Q 2388 3097 2138 3097 
Q 1578 3097 1268 2742 
Q 959 2388 959 1747 
Q 959 1106 1268 751 
Q 1578 397 2138 397 
Q 2388 397 2633 464 
Q 2878 531 3122 666 
L 3122 134 
Q 2881 22 2623 -34 
Q 2366 -91 2075 -91 
Q 1284 -91 818 406 
Q 353 903 353 1747 
Q 353 2603 823 3093 
Q 1294 3584 2113 3584 
Q 2378 3584 2631 3529 
Q 2884 3475 3122 3366 
z
" transform="scale(0.015625)"/>
     <path id="DejaVuSans-75" d="M 544 1381 
L 544 3500 
L 1119 3500 
L 1119 1403 
Q 1119 906 1312 657 
Q 1506 409 1894 409 
Q 2359 409 2629 706 
Q 2900 1003 2900 1516 
L 2900 3500 
L 3475 3500 
L 3475 0 
L 2900 0 
L 2900 538 
Q 2691 219 2414 64 
Q 2138 -91 1772 -91 
Q 1169 -91 856 284 
Q 544 659 544 1381 
z
M 1991 3584 
L 1991 3584 
z
" transform="scale(0.015625)"/>
     <path id="DejaVuSans-6d" d="M 3328 2828 
Q 3544 3216 3844 3400 
Q 4144 3584 4550 3584 
Q 5097 3584 5394 3201 
Q 5691 2819 5691 2113 
L 5691 0 
L 5113 0 
L 5113 2094 
Q 5113 2597 4934 2840 
Q 4756 3084 4391 3084 
Q 3944 3084 3684 2787 
Q 3425 2491 3425 1978 
L 3425 0 
L 2847 0 
L 2847 2094 
Q 2847 2600 2669 2842 
Q 2491 3084 2119 3084 
Q 1678 3084 1418 2786 
Q 1159 2488 1159 1978 
L 1159 0 
L 581 0 
L 581 3500 
L 1159 3500 
L 1159 2956 
Q 1356 3278 1631 3431 
Q 1906 3584 2284 3584 
Q 2666 3584 2933 3390 
Q 3200 3197 3328 2828 
z
" transform="scale(0.015625)"/>
     <path id="DejaVuSans-6c" d="M 603 4863 
L 1178 4863 
L 1178 0 
L 603 0 
L 603 4863 
z
" transform="scale(0.015625)"/>
     <path id="DejaVuSans-61" d="M 2194 1759 
Q 1497 1759 1228 1600 
Q 959 1441 959 1056 
Q 959 750 1161 570 
Q 1363 391 1709 391 
Q 2188 391 2477 730 
Q 2766 1069 2766 1631 
L 2766 1759 
L 2194 1759 
z
M 3341 1997 
L 3341 0 
L 2766 0 
L 2766 531 
Q 2569 213 2275 61 
Q 1981 -91 1556 -91 
Q 1019 -91 701 211 
Q 384 513 384 1019 
Q 384 1609 779 1909 
Q 1175 2209 1959 2209 
L 2766 2209 
L 2766 2266 
Q 2766 2663 2505 2880 
Q 2244 3097 1772 3097 
Q 1472 3097 1187 3025 
Q 903 2953 641 2809 
L 641 3341 
Q 956 3463 1253 3523 
Q 1550 3584 1831 3584 
Q 2591 3584 2966 3190 
Q 3341 2797 3341 1997 
z
" transform="scale(0.015625)"/>
     <path id="DejaVuSans-74" d="M 1172 4494 
L 1172 3500 
L 2356 3500 
L 2356 3053 
L 1172 3053 
L 1172 1153 
Q 1172 725 1289 603 
Q 1406 481 1766 481 
L 2356 481 
L 2356 0 
L 1766 0 
Q 1100 0 847 248 
Q 594 497 594 1153 
L 594 3053 
L 172 3053 
L 172 3500 
L 594 3500 
L 594 4494 
L 1172 4494 
z
" transform="scale(0.015625)"/>
     <path id="DejaVuSans-65" d="M 3597 1894 
L 3597 1613 
L 953 1613 
Q 991 1019 1311 708 
Q 1631 397 2203 397 
Q 2534 397 2845 478 
Q 3156 559 3463 722 
L 3463 178 
Q 3153 47 2828 -22 
Q 2503 -91 2169 -91 
Q 1331 -91 842 396 
Q 353 884 353 1716 
Q 353 2575 817 3079 
Q 1281 3584 2069 3584 
Q 2775 3584 3186 3129 
Q 3597 2675 3597 1894 
z
M 3022 2063 
Q 3016 2534 2758 2815 
Q 2500 3097 2075 3097 
Q 1594 3097 1305 2825 
Q 1016 2553 972 2059 
L 3022 2063 
z
" transform="scale(0.015625)"/>
     <path id="DejaVuSans-20" transform="scale(0.015625)"/>
     <path id="DejaVuSans-6f" d="M 1959 3097 
Q 1497 3097 1228 2736 
Q 959 2375 959 1747 
Q 959 1119 1226 758 
Q 1494 397 1959 397 
Q 2419 397 2687 759 
Q 2956 1122 2956 1747 
Q 2956 2369 2687 2733 
Q 2419 3097 1959 3097 
z
M 1959 3584 
Q 2709 3584 3137 3096 
Q 3566 2609 3566 1747 
Q 3566 888 3137 398 
Q 2709 -91 1959 -91 
Q 1206 -91 779 398 
Q 353 888 353 1747 
Q 353 2609 779 3096 
Q 1206 3584 1959 3584 
z
" transform="scale(0.015625)"/>
     <path id="DejaVuSans-54" d="M -19 4666 
L 3928 4666 
L 3928 4134 
L 2272 4134 
L 2272 0 
L 1638 0 
L 1638 4134 
L -19 4134 
L -19 4666 
z
" transform="scale(0.015625)"/>
     <path id="DejaVuSans-68" d="M 3513 2113 
L 3513 0 
L 2938 0 
L 2938 2094 
Q 2938 2591 2744 2837 
Q 2550 3084 2163 3084 
Q 1697 3084 1428 2787 
Q 1159 2491 1159 1978 
L 1159 0 
L 581 0 
L 581 4863 
L 1159 4863 
L 1159 2956 
Q 1366 3272 1645 3428 
Q 1925 3584 2291 3584 
Q 2894 3584 3203 3211 
Q 3513 2838 3513 2113 
z
" transform="scale(0.015625)"/>
     <path id="DejaVuSans-72" d="M 2631 2963 
Q 2534 3019 2420 3045 
Q 2306 3072 2169 3072 
Q 1681 3072 1420 2755 
Q 1159 2438 1159 1844 
L 1159 0 
L 581 0 
L 581 3500 
L 1159 3500 
L 1159 2956 
Q 1341 3275 1631 3429 
Q 1922 3584 2338 3584 
Q 2397 3584 2469 3576 
Q 2541 3569 2628 3553 
L 2631 2963 
z
" transform="scale(0.015625)"/>
     <path id="DejaVuSans-73" d="M 2834 3397 
L 2834 2853 
Q 2591 2978 2328 3040 
Q 2066 3103 1784 3103 
Q 1356 3103 1142 2972 
Q 928 2841 928 2578 
Q 928 2378 1081 2264 
Q 1234 2150 1697 2047 
L 1894 2003 
Q 2506 1872 2764 1633 
Q 3022 1394 3022 966 
Q 3022 478 2636 193 
Q 2250 -91 1575 -91 
Q 1294 -91 989 -36 
Q 684 19 347 128 
L 347 722 
Q 666 556 975 473 
Q 1284 391 1588 391 
Q 1994 391 2212 530 
Q 2431 669 2431 922 
Q 2431 1156 2273 1281 
Q 2116 1406 1581 1522 
L 1381 1569 
Q 847 1681 609 1914 
Q 372 2147 372 2553 
Q 372 3047 722 3315 
Q 1072 3584 1716 3584 
Q 2034 3584 2315 3537 
Q 2597 3491 2834 3397 
z
" transform="scale(0.015625)"/>
     <path id="DejaVuSans-64" d="M 2906 2969 
L 2906 4863 
L 3481 4863 
L 3481 0 
L 2906 0 
L 2906 525 
Q 2725 213 2448 61 
Q 2172 -91 1784 -91 
Q 1150 -91 751 415 
Q 353 922 353 1747 
Q 353 2572 751 3078 
Q 1150 3584 1784 3584 
Q 2172 3584 2448 3432 
Q 2725 3281 2906 2969 
z
M 947 1747 
Q 947 1113 1208 752 
Q 1469 391 1925 391 
Q 2381 391 2643 752 
Q 2906 1113 2906 1747 
Q 2906 2381 2643 2742 
Q 2381 3103 1925 3103 
Q 1469 3103 1208 2742 
Q 947 2381 947 1747 
z
" transform="scale(0.015625)"/>
     <path id="DejaVuSans-77" d="M 269 3500 
L 844 3500 
L 1563 769 
L 2278 3500 
L 2956 3500 
L 3675 769 
L 4391 3500 
L 4966 3500 
L 4050 0 
L 3372 0 
L 2619 2869 
L 1863 0 
L 1184 0 
L 269 3500 
z
" transform="scale(0.015625)"/>
     <path id="DejaVuSans-69" d="M 603 3500 
L 1178 3500 
L 1178 0 
L 603 0 
L 603 3500 
z
M 603 4863 
L 1178 4863 
L 1178 4134 
L 603 4134 
L 603 4863 
z
" transform="scale(0.015625)"/>
     <path id="DejaVuSans-6e" d="M 3513 2113 
L 3513 0 
L 2938 0 
L 2938 2094 
Q 2938 2591 2744 2837 
Q 2550 3084 2163 3084 
Q 1697 3084 1428 2787 
Q 1159 2491 1159 1978 
L 1159 0 
L 581 0 
L 581 3500 
L 1159 3500 
L 1159 2956 
Q 1366 3272 1645 3428 
Q 1925 3584 2291 3584 
Q 2894 3584 3203 3211 
Q 3513 2838 3513 2113 
z
" transform="scale(0.015625)"/>
     <path id="DejaVuSans-70" d="M 1159 525 
L 1159 -1331 
L 581 -1331 
L 581 3500 
L 1159 3500 
L 1159 2969 
Q 1341 3281 1617 3432 
Q 1894 3584 2278 3584 
Q 2916 3584 3314 3078 
Q 3713 2572 3713 1747 
Q 3713 922 3314 415 
Q 2916 -91 2278 -91 
Q 1894 -91 1617 61 
Q 1341 213 1159 525 
z
M 3116 1747 
Q 3116 2381 2855 2742 
Q 2594 3103 2138 3103 
Q 1681 3103 1420 2742 
Q 1159 2381 1159 1747 
Q 1159 1113 1420 752 
Q 1681 391 2138 391 
Q 2594 391 2855 752 
Q 3116 1113 3116 1747 
z
" transform="scale(0.015625)"/>
     <path id="DejaVuSans-66" d="M 2375 4863 
L 2375 4384 
L 1825 4384 
Q 1516 4384 1395 4259 
Q 1275 4134 1275 3809 
L 1275 3500 
L 2222 3500 
L 2222 3053 
L 1275 3053 
L 1275 0 
L 697 0 
L 697 3053 
L 147 3053 
L 147 3500 
L 697 3500 
L 697 3744 
Q 697 4328 969 4595 
Q 1241 4863 1831 4863 
L 2375 4863 
z
" transform="scale(0.015625)"/>
     <path id="DejaVuSans-3d" d="M 678 2906 
L 4684 2906 
L 4684 2381 
L 678 2381 
L 678 2906 
z
M 678 1631 
L 4684 1631 
L 4684 1100 
L 678 1100 
L 678 1631 
z
" transform="scale(0.015625)"/>
     <path id="DejaVuSans-33" d="M 2597 2516 
Q 3050 2419 3304 2112 
Q 3559 1806 3559 1356 
Q 3559 666 3084 287 
Q 2609 -91 1734 -91 
Q 1441 -91 1130 -33 
Q 819 25 488 141 
L 488 750 
Q 750 597 1062 519 
Q 1375 441 1716 441 
Q 2309 441 2620 675 
Q 2931 909 2931 1356 
Q 2931 1769 2642 2001 
Q 2353 2234 1838 2234 
L 1294 2234 
L 1294 2753 
L 1863 2753 
Q 2328 2753 2575 2939 
Q 2822 3125 2822 3475 
Q 2822 3834 2567 4026 
Q 2313 4219 1838 4219 
Q 1578 4219 1281 4162 
Q 984 4106 628 3988 
L 628 4550 
Q 988 4650 1302 4700 
Q 1616 4750 1894 4750 
Q 2613 4750 3031 4423 
Q 3450 4097 3450 3541 
Q 3450 3153 3228 2886 
Q 3006 2619 2597 2516 
z
" transform="scale(0.015625)"/>
    </defs>
    <use xlink:href="#DejaVuSans-41"/>
    <use xlink:href="#DejaVuSans-63" x="66.658203"/>
    <use xlink:href="#DejaVuSans-63" x="121.638672"/>
    <use xlink:href="#DejaVuSans-75" x="176.619141"/>
    <use xlink:href="#DejaVuSans-6d" x="239.998047"/>
    <use xlink:href="#DejaVuSans-75" x="337.410156"/>
    <use xlink:href="#DejaVuSans-6c" x="400.789062"/>
    <use xlink:href="#DejaVuSans-61" x="428.572266"/>
    <use xlink:href="#DejaVuSans-74" x="489.851562"/>
    <use xlink:href="#DejaVuSans-65" x="529.060547"/>
    <use xlink:href="#DejaVuSans-20" x="590.583984"/>
    <use xlink:href="#DejaVuSans-74" x="622.371094"/>
    <use xlink:href="#DejaVuSans-6f" x="661.580078"/>
    <use xlink:href="#DejaVuSans-20" x="722.761719"/>
    <use xlink:href="#DejaVuSans-54" x="754.548828"/>
    <use xlink:href="#DejaVuSans-68" x="815.632812"/>
    <use xlink:href="#DejaVuSans-72" x="879.011719"/>
    <use xlink:href="#DejaVuSans-65" x="917.875"/>
    <use xlink:href="#DejaVuSans-73" x="979.398438"/>
    <use xlink:href="#DejaVuSans-68" x="1031.498047"/>
    <use xlink:href="#DejaVuSans-6f" x="1094.876953"/>
    <use xlink:href="#DejaVuSans-6c" x="1156.058594"/>
    <use xlink:href="#DejaVuSans-64" x="1183.841797"/>
    <use xlink:href="#DejaVuSans-20" x="1247.318359"/>
    <use xlink:href="#DejaVuSans-6d" x="1279.105469"/>
    <use xlink:href="#DejaVuSans-6f" x="1376.517578"/>
    <use xlink:href="#DejaVuSans-64" x="1437.699219"/>
    <use xlink:href="#DejaVuSans-65" x="1501.175781"/>
    <use xlink:href="#DejaVuSans-6c" x="1562.699219"/>
    <use xlink:href="#DejaVuSans-20" x="1590.482422"/>
    <use xlink:href="#DejaVuSans-77" x="1622.269531"/>
    <use xlink:href="#DejaVuSans-69" x="1704.056641"/>
    <use xlink:href="#DejaVuSans-74" x="1731.839844"/>
    <use xlink:href="#DejaVuSans-68" x="1771.048828"/>
    <use xlink:href="#DejaVuSans-20" x="1834.427734"/>
    <use xlink:href="#DejaVuSans-69" x="1866.214844"/>
    <use xlink:href="#DejaVuSans-6e" x="1893.998047"/>
    <use xlink:href="#DejaVuSans-70" x="1957.376953"/>
    <use xlink:href="#DejaVuSans-75" x="2020.853516"/>
    <use xlink:href="#DejaVuSans-74" x="2084.232422"/>
    <use xlink:href="#DejaVuSans-20" x="2123.441406"/>
    <use xlink:href="#DejaVuSans-6f" x="2155.228516"/>
    <use xlink:href="#DejaVuSans-66" x="2216.410156"/>
    <use xlink:href="#DejaVuSans-20" x="2251.615234"/>
    <use xlink:href="#DejaVuSans-30" x="2283.402344"/>
    <use xlink:href="#DejaVuSans-2e" x="2347.025391"/>
    <use xlink:href="#DejaVuSans-32" x="2378.8125"/>
    <use xlink:href="#DejaVuSans-20" x="2442.435547"/>
    <use xlink:href="#DejaVuSans-77" x="2474.222656"/>
    <use xlink:href="#DejaVuSans-69" x="2556.009766"/>
    <use xlink:href="#DejaVuSans-74" x="2583.792969"/>
    <use xlink:href="#DejaVuSans-68" x="2623.001953"/>
    <use xlink:href="#DejaVuSans-20" x="2686.380859"/>
    <use xlink:href="#DejaVuSans-72" x="2718.167969"/>
    <use xlink:href="#DejaVuSans-6d" x="2757.53125"/>
    <use xlink:href="#DejaVuSans-73" x="2854.943359"/>
    <use xlink:href="#DejaVuSans-3d" x="2907.042969"/>
    <use xlink:href="#DejaVuSans-33" x="2990.832031"/>
    <use xlink:href="#DejaVuSans-20" x="3054.455078"/>
   </g>
  </g>
 </g>
 <defs>
  <clipPath id="pdf9fe16332">
   <rect x="30.368437" y="36" width="334.8" height="217.44"/>
  </clipPath>
 </defs>
</svg>
