<?xml version="1.0" encoding="utf-8" standalone="no"?>
<!DOCTYPE svg PUBLIC "-//W3C//DTD SVG 1.1//EN"
  "http://www.w3.org/Graphics/SVG/1.1/DTD/svg11.dtd">
<svg xmlns:xlink="http://www.w3.org/1999/xlink" width="395.015937pt" height="290.99625pt" viewBox="0 0 395.015937 290.99625" xmlns="http://www.w3.org/2000/svg" version="1.1">
 <metadata>
  <rdf:RDF xmlns:dc="http://purl.org/dc/elements/1.1/" xmlns:cc="http://creativecommons.org/ns#" xmlns:rdf="http://www.w3.org/1999/02/22-rdf-syntax-ns#">
   <cc:Work>
    <dc:type rdf:resource="http://purl.org/dc/dcmitype/StillImage"/>
    <dc:date>2022-11-20T19:00:45.337533</dc:date>
    <dc:format>image/svg+xml</dc:format>
    <dc:creator>
     <cc:Agent>
      <dc:title>Matplotlib v3.6.0, https://matplotlib.org/</dc:title>
     </cc:Agent>
    </dc:creator>
   </cc:Work>
  </rdf:RDF>
 </metadata>
 <defs>
  <style type="text/css">*{stroke-linejoin: round; stroke-linecap: butt}</style>
 </defs>
 <g id="figure_1">
  <g id="patch_1">
   <path d="M -0 290.99625 
L 395.015937 290.99625 
L 395.015937 0 
L -0 0 
L -0 290.99625 
z
" style="fill: none"/>
  </g>
  <g id="axes_1">
   <g id="patch_2">
    <path d="M 38.482813 253.44 
L 373.282813 253.44 
L 373.282813 36 
L 38.482813 36 
z
" style="fill: #ffffff"/>
   </g>
   <g id="matplotlib.axis_1">
    <g id="xtick_1">
     <g id="line2d_1">
      <defs>
       <path id="m253a72ad28" d="M 0 0 
L 0 3.5 
" style="stroke: #000000; stroke-width: 0.8"/>
      </defs>
      <g>
       <use xlink:href="#m253a72ad28" x="38.482813" y="253.44" style="stroke: #000000; stroke-width: 0.8"/>
      </g>
     </g>
     <g id="text_1">
      <!-- 0.00 -->
      <g transform="translate(27.35 268.038437) scale(0.1 -0.1)">
       <defs>
        <path id="DejaVuSans-30" d="M 2034 4250 
Q 1547 4250 1301 3770 
Q 1056 3291 1056 2328 
Q 1056 1369 1301 889 
Q 1547 409 2034 409 
Q 2525 409 2770 889 
Q 3016 1369 3016 2328 
Q 3016 3291 2770 3770 
Q 2525 4250 2034 4250 
z
M 2034 4750 
Q 2819 4750 3233 4129 
Q 3647 3509 3647 2328 
Q 3647 1150 3233 529 
Q 2819 -91 2034 -91 
Q 1250 -91 836 529 
Q 422 1150 422 2328 
Q 422 3509 836 4129 
Q 1250 4750 2034 4750 
z
" transform="scale(0.015625)"/>
        <path id="DejaVuSans-2e" d="M 684 794 
L 1344 794 
L 1344 0 
L 684 0 
L 684 794 
z
" transform="scale(0.015625)"/>
       </defs>
       <use xlink:href="#DejaVuSans-30"/>
       <use xlink:href="#DejaVuSans-2e" x="63.623047"/>
       <use xlink:href="#DejaVuSans-30" x="95.410156"/>
       <use xlink:href="#DejaVuSans-30" x="159.033203"/>
      </g>
     </g>
    </g>
    <g id="xtick_2">
     <g id="line2d_2">
      <g>
       <use xlink:href="#m253a72ad28" x="80.332813" y="253.44" style="stroke: #000000; stroke-width: 0.8"/>
      </g>
     </g>
     <g id="text_2">
      <!-- 0.25 -->
      <g transform="translate(69.2 268.038437) scale(0.1 -0.1)">
       <defs>
        <path id="DejaVuSans-32" d="M 1228 531 
L 3431 531 
L 3431 0 
L 469 0 
L 469 531 
Q 828 903 1448 1529 
Q 2069 2156 2228 2338 
Q 2531 2678 2651 2914 
Q 2772 3150 2772 3378 
Q 2772 3750 2511 3984 
Q 2250 4219 1831 4219 
Q 1534 4219 1204 4116 
Q 875 4013 500 3803 
L 500 4441 
Q 881 4594 1212 4672 
Q 1544 4750 1819 4750 
Q 2544 4750 2975 4387 
Q 3406 4025 3406 3419 
Q 3406 3131 3298 2873 
Q 3191 2616 2906 2266 
Q 2828 2175 2409 1742 
Q 1991 1309 1228 531 
z
" transform="scale(0.015625)"/>
        <path id="DejaVuSans-35" d="M 691 4666 
L 3169 4666 
L 3169 4134 
L 1269 4134 
L 1269 2991 
Q 1406 3038 1543 3061 
Q 1681 3084 1819 3084 
Q 2600 3084 3056 2656 
Q 3513 2228 3513 1497 
Q 3513 744 3044 326 
Q 2575 -91 1722 -91 
Q 1428 -91 1123 -41 
Q 819 9 494 109 
L 494 744 
Q 775 591 1075 516 
Q 1375 441 1709 441 
Q 2250 441 2565 725 
Q 2881 1009 2881 1497 
Q 2881 1984 2565 2268 
Q 2250 2553 1709 2553 
Q 1456 2553 1204 2497 
Q 953 2441 691 2322 
L 691 4666 
z
" transform="scale(0.015625)"/>
       </defs>
       <use xlink:href="#DejaVuSans-30"/>
       <use xlink:href="#DejaVuSans-2e" x="63.623047"/>
       <use xlink:href="#DejaVuSans-32" x="95.410156"/>
       <use xlink:href="#DejaVuSans-35" x="159.033203"/>
      </g>
     </g>
    </g>
    <g id="xtick_3">
     <g id="line2d_3">
      <g>
       <use xlink:href="#m253a72ad28" x="122.182813" y="253.44" style="stroke: #000000; stroke-width: 0.8"/>
      </g>
     </g>
     <g id="text_3">
      <!-- 0.50 -->
      <g transform="translate(111.05 268.038437) scale(0.1 -0.1)">
       <use xlink:href="#DejaVuSans-30"/>
       <use xlink:href="#DejaVuSans-2e" x="63.623047"/>
       <use xlink:href="#DejaVuSans-35" x="95.410156"/>
       <use xlink:href="#DejaVuSans-30" x="159.033203"/>
      </g>
     </g>
    </g>
    <g id="xtick_4">
     <g id="line2d_4">
      <g>
       <use xlink:href="#m253a72ad28" x="164.032813" y="253.44" style="stroke: #000000; stroke-width: 0.8"/>
      </g>
     </g>
     <g id="text_4">
      <!-- 0.75 -->
      <g transform="translate(152.9 268.038437) scale(0.1 -0.1)">
       <defs>
        <path id="DejaVuSans-37" d="M 525 4666 
L 3525 4666 
L 3525 4397 
L 1831 0 
L 1172 0 
L 2766 4134 
L 525 4134 
L 525 4666 
z
" transform="scale(0.015625)"/>
       </defs>
       <use xlink:href="#DejaVuSans-30"/>
       <use xlink:href="#DejaVuSans-2e" x="63.623047"/>
       <use xlink:href="#DejaVuSans-37" x="95.410156"/>
       <use xlink:href="#DejaVuSans-35" x="159.033203"/>
      </g>
     </g>
    </g>
    <g id="xtick_5">
     <g id="line2d_5">
      <g>
       <use xlink:href="#m253a72ad28" x="205.882812" y="253.44" style="stroke: #000000; stroke-width: 0.8"/>
      </g>
     </g>
     <g id="text_5">
      <!-- 1.00 -->
      <g transform="translate(194.75 268.038437) scale(0.1 -0.1)">
       <defs>
        <path id="DejaVuSans-31" d="M 794 531 
L 1825 531 
L 1825 4091 
L 703 3866 
L 703 4441 
L 1819 4666 
L 2450 4666 
L 2450 531 
L 3481 531 
L 3481 0 
L 794 0 
L 794 531 
z
" transform="scale(0.015625)"/>
       </defs>
       <use xlink:href="#DejaVuSans-31"/>
       <use xlink:href="#DejaVuSans-2e" x="63.623047"/>
       <use xlink:href="#DejaVuSans-30" x="95.410156"/>
       <use xlink:href="#DejaVuSans-30" x="159.033203"/>
      </g>
     </g>
    </g>
    <g id="xtick_6">
     <g id="line2d_6">
      <g>
       <use xlink:href="#m253a72ad28" x="247.732812" y="253.44" style="stroke: #000000; stroke-width: 0.8"/>
      </g>
     </g>
     <g id="text_6">
      <!-- 1.25 -->
      <g transform="translate(236.6 268.038437) scale(0.1 -0.1)">
       <use xlink:href="#DejaVuSans-31"/>
       <use xlink:href="#DejaVuSans-2e" x="63.623047"/>
       <use xlink:href="#DejaVuSans-32" x="95.410156"/>
       <use xlink:href="#DejaVuSans-35" x="159.033203"/>
      </g>
     </g>
    </g>
    <g id="xtick_7">
     <g id="line2d_7">
      <g>
       <use xlink:href="#m253a72ad28" x="289.582813" y="253.44" style="stroke: #000000; stroke-width: 0.8"/>
      </g>
     </g>
     <g id="text_7">
      <!-- 1.50 -->
      <g transform="translate(278.45 268.038437) scale(0.1 -0.1)">
       <use xlink:href="#DejaVuSans-31"/>
       <use xlink:href="#DejaVuSans-2e" x="63.623047"/>
       <use xlink:href="#DejaVuSans-35" x="95.410156"/>
       <use xlink:href="#DejaVuSans-30" x="159.033203"/>
      </g>
     </g>
    </g>
    <g id="xtick_8">
     <g id="line2d_8">
      <g>
       <use xlink:href="#m253a72ad28" x="331.432813" y="253.44" style="stroke: #000000; stroke-width: 0.8"/>
      </g>
     </g>
     <g id="text_8">
      <!-- 1.75 -->
      <g transform="translate(320.3 268.038437) scale(0.1 -0.1)">
       <use xlink:href="#DejaVuSans-31"/>
       <use xlink:href="#DejaVuSans-2e" x="63.623047"/>
       <use xlink:href="#DejaVuSans-37" x="95.410156"/>
       <use xlink:href="#DejaVuSans-35" x="159.033203"/>
      </g>
     </g>
    </g>
    <g id="xtick_9">
     <g id="line2d_9">
      <g>
       <use xlink:href="#m253a72ad28" x="373.282813" y="253.44" style="stroke: #000000; stroke-width: 0.8"/>
      </g>
     </g>
     <g id="text_9">
      <!-- 2.00 -->
      <g transform="translate(362.15 268.038437) scale(0.1 -0.1)">
       <use xlink:href="#DejaVuSans-32"/>
       <use xlink:href="#DejaVuSans-2e" x="63.623047"/>
       <use xlink:href="#DejaVuSans-30" x="95.410156"/>
       <use xlink:href="#DejaVuSans-30" x="159.033203"/>
      </g>
     </g>
    </g>
    <g id="text_10">
     <!-- $t$ -->
     <g transform="translate(203.882812 281.716562) scale(0.1 -0.1)">
      <defs>
       <path id="DejaVuSans-Oblique-74" d="M 2706 3500 
L 2619 3053 
L 1472 3053 
L 1100 1153 
Q 1081 1047 1072 975 
Q 1063 903 1063 863 
Q 1063 663 1183 572 
Q 1303 481 1569 481 
L 2150 481 
L 2053 0 
L 1503 0 
Q 991 0 739 200 
Q 488 400 488 806 
Q 488 878 497 964 
Q 506 1050 525 1153 
L 897 3053 
L 409 3053 
L 500 3500 
L 978 3500 
L 1172 4494 
L 1747 4494 
L 1556 3500 
L 2706 3500 
z
" transform="scale(0.015625)"/>
      </defs>
      <use xlink:href="#DejaVuSans-Oblique-74" transform="translate(0 0.78125)"/>
     </g>
    </g>
   </g>
   <g id="matplotlib.axis_2">
    <g id="ytick_1">
     <g id="line2d_10">
      <defs>
       <path id="m7666a8e4c3" d="M 0 0 
L -3.5 0 
" style="stroke: #000000; stroke-width: 0.8"/>
      </defs>
      <g>
       <use xlink:href="#m7666a8e4c3" x="38.482813" y="243.89905" style="stroke: #000000; stroke-width: 0.8"/>
      </g>
     </g>
     <g id="text_11">
      <!-- −1.0 -->
      <g transform="translate(7.2 247.698269) scale(0.1 -0.1)">
       <defs>
        <path id="DejaVuSans-2212" d="M 678 2272 
L 4684 2272 
L 4684 1741 
L 678 1741 
L 678 2272 
z
" transform="scale(0.015625)"/>
       </defs>
       <use xlink:href="#DejaVuSans-2212"/>
       <use xlink:href="#DejaVuSans-31" x="83.789062"/>
       <use xlink:href="#DejaVuSans-2e" x="147.412109"/>
       <use xlink:href="#DejaVuSans-30" x="179.199219"/>
      </g>
     </g>
    </g>
    <g id="ytick_2">
     <g id="line2d_11">
      <g>
       <use xlink:href="#m7666a8e4c3" x="38.482813" y="206.1464" style="stroke: #000000; stroke-width: 0.8"/>
      </g>
     </g>
     <g id="text_12">
      <!-- −0.8 -->
      <g transform="translate(7.2 209.945619) scale(0.1 -0.1)">
       <defs>
        <path id="DejaVuSans-38" d="M 2034 2216 
Q 1584 2216 1326 1975 
Q 1069 1734 1069 1313 
Q 1069 891 1326 650 
Q 1584 409 2034 409 
Q 2484 409 2743 651 
Q 3003 894 3003 1313 
Q 3003 1734 2745 1975 
Q 2488 2216 2034 2216 
z
M 1403 2484 
Q 997 2584 770 2862 
Q 544 3141 544 3541 
Q 544 4100 942 4425 
Q 1341 4750 2034 4750 
Q 2731 4750 3128 4425 
Q 3525 4100 3525 3541 
Q 3525 3141 3298 2862 
Q 3072 2584 2669 2484 
Q 3125 2378 3379 2068 
Q 3634 1759 3634 1313 
Q 3634 634 3220 271 
Q 2806 -91 2034 -91 
Q 1263 -91 848 271 
Q 434 634 434 1313 
Q 434 1759 690 2068 
Q 947 2378 1403 2484 
z
M 1172 3481 
Q 1172 3119 1398 2916 
Q 1625 2713 2034 2713 
Q 2441 2713 2670 2916 
Q 2900 3119 2900 3481 
Q 2900 3844 2670 4047 
Q 2441 4250 2034 4250 
Q 1625 4250 1398 4047 
Q 1172 3844 1172 3481 
z
" transform="scale(0.015625)"/>
       </defs>
       <use xlink:href="#DejaVuSans-2212"/>
       <use xlink:href="#DejaVuSans-30" x="83.789062"/>
       <use xlink:href="#DejaVuSans-2e" x="147.412109"/>
       <use xlink:href="#DejaVuSans-38" x="179.199219"/>
      </g>
     </g>
    </g>
    <g id="ytick_3">
     <g id="line2d_12">
      <g>
       <use xlink:href="#m7666a8e4c3" x="38.482813" y="168.39375" style="stroke: #000000; stroke-width: 0.8"/>
      </g>
     </g>
     <g id="text_13">
      <!-- −0.6 -->
      <g transform="translate(7.2 172.192968) scale(0.1 -0.1)">
       <defs>
        <path id="DejaVuSans-36" d="M 2113 2584 
Q 1688 2584 1439 2293 
Q 1191 2003 1191 1497 
Q 1191 994 1439 701 
Q 1688 409 2113 409 
Q 2538 409 2786 701 
Q 3034 994 3034 1497 
Q 3034 2003 2786 2293 
Q 2538 2584 2113 2584 
z
M 3366 4563 
L 3366 3988 
Q 3128 4100 2886 4159 
Q 2644 4219 2406 4219 
Q 1781 4219 1451 3797 
Q 1122 3375 1075 2522 
Q 1259 2794 1537 2939 
Q 1816 3084 2150 3084 
Q 2853 3084 3261 2657 
Q 3669 2231 3669 1497 
Q 3669 778 3244 343 
Q 2819 -91 2113 -91 
Q 1303 -91 875 529 
Q 447 1150 447 2328 
Q 447 3434 972 4092 
Q 1497 4750 2381 4750 
Q 2619 4750 2861 4703 
Q 3103 4656 3366 4563 
z
" transform="scale(0.015625)"/>
       </defs>
       <use xlink:href="#DejaVuSans-2212"/>
       <use xlink:href="#DejaVuSans-30" x="83.789062"/>
       <use xlink:href="#DejaVuSans-2e" x="147.412109"/>
       <use xlink:href="#DejaVuSans-36" x="179.199219"/>
      </g>
     </g>
    </g>
    <g id="ytick_4">
     <g id="line2d_13">
      <g>
       <use xlink:href="#m7666a8e4c3" x="38.482813" y="130.641099" style="stroke: #000000; stroke-width: 0.8"/>
      </g>
     </g>
     <g id="text_14">
      <!-- −0.4 -->
      <g transform="translate(7.2 134.440318) scale(0.1 -0.1)">
       <defs>
        <path id="DejaVuSans-34" d="M 2419 4116 
L 825 1625 
L 2419 1625 
L 2419 4116 
z
M 2253 4666 
L 3047 4666 
L 3047 1625 
L 3713 1625 
L 3713 1100 
L 3047 1100 
L 3047 0 
L 2419 0 
L 2419 1100 
L 313 1100 
L 313 1709 
L 2253 4666 
z
" transform="scale(0.015625)"/>
       </defs>
       <use xlink:href="#DejaVuSans-2212"/>
       <use xlink:href="#DejaVuSans-30" x="83.789062"/>
       <use xlink:href="#DejaVuSans-2e" x="147.412109"/>
       <use xlink:href="#DejaVuSans-34" x="179.199219"/>
      </g>
     </g>
    </g>
    <g id="ytick_5">
     <g id="line2d_14">
      <g>
       <use xlink:href="#m7666a8e4c3" x="38.482813" y="92.888449" style="stroke: #000000; stroke-width: 0.8"/>
      </g>
     </g>
     <g id="text_15">
      <!-- −0.2 -->
      <g transform="translate(7.2 96.687667) scale(0.1 -0.1)">
       <use xlink:href="#DejaVuSans-2212"/>
       <use xlink:href="#DejaVuSans-30" x="83.789062"/>
       <use xlink:href="#DejaVuSans-2e" x="147.412109"/>
       <use xlink:href="#DejaVuSans-32" x="179.199219"/>
      </g>
     </g>
    </g>
    <g id="ytick_6">
     <g id="line2d_15">
      <g>
       <use xlink:href="#m7666a8e4c3" x="38.482813" y="55.135798" style="stroke: #000000; stroke-width: 0.8"/>
      </g>
     </g>
     <g id="text_16">
      <!-- 0.0 -->
      <g transform="translate(15.579688 58.935017) scale(0.1 -0.1)">
       <use xlink:href="#DejaVuSans-30"/>
       <use xlink:href="#DejaVuSans-2e" x="63.623047"/>
       <use xlink:href="#DejaVuSans-30" x="95.410156"/>
      </g>
     </g>
    </g>
   </g>
   <g id="line2d_16">
    <path d="M 38.650213 55.135798 
L 38.817613 48.399197 
L 38.985013 56.094304 
L 39.152413 57.987867 
L 39.319813 58.226237 
L 39.487212 53.769577 
L 39.654612 58.878057 
L 39.822012 52.48797 
L 40.156813 48.315112 
L 40.324213 58.123805 
L 40.491613 59.497694 
L 40.659013 56.815629 
L 40.826413 45.883636 
L 40.993813 54.488573 
L 41.328612 58.385094 
L 41.496012 50.856287 
L 41.830813 55.551822 
L 41.998213 58.150577 
L 42.165613 53.656356 
L 42.333013 60.956982 
L 42.500413 59.327691 
L 42.667813 55.117034 
L 42.835213 54.556202 
L 43.002612 55.711745 
L 43.170012 62.827459 
L 43.337412 61.59023 
L 43.672213 50.722621 
L 43.839613 63.932615 
L 44.007013 57.160759 
L 44.174413 56.401671 
L 44.341813 61.416412 
L 44.509213 59.901491 
L 44.676613 54.67022 
L 44.844013 53.668178 
L 45.513613 63.69065 
L 45.681013 52.781081 
L 46.015813 56.909651 
L 46.183213 69.309076 
L 46.350613 58.160224 
L 46.518012 55.678138 
L 46.685412 56.151026 
L 46.852812 61.446795 
L 47.020212 55.404626 
L 47.187613 55.410808 
L 47.522413 70.411439 
L 47.689813 58.057187 
L 47.857213 57.605515 
L 48.192013 63.810134 
L 48.359413 60.792608 
L 48.526813 61.637228 
L 48.694212 70.459063 
L 49.029013 52.824912 
L 49.196413 55.604929 
L 49.531213 64.544059 
L 49.866013 60.730715 
L 50.033413 65.063602 
L 50.200813 61.951088 
L 50.368213 55.786317 
L 50.535612 58.019013 
L 50.870413 72.2815 
L 51.037813 64.245548 
L 51.205213 68.22117 
L 51.540013 60.702669 
L 51.707413 61.196863 
L 51.874813 66.488592 
L 52.042213 67.902887 
L 52.377013 57.592107 
L 52.544413 60.304367 
L 52.711813 69.346342 
L 52.879213 67.339475 
L 53.046613 62.796861 
L 53.381413 67.486778 
L 53.548813 66.087409 
L 53.716212 61.889355 
L 54.051012 73.106924 
L 54.218412 65.07005 
L 54.385813 73.322876 
L 54.553213 66.713775 
L 54.720613 64.661594 
L 54.888013 66.547654 
L 55.222813 72.852633 
L 55.390213 69.722559 
L 55.557613 70.246674 
L 55.725013 69.683121 
L 56.059812 63.12264 
L 56.227213 70.859752 
L 56.394613 65.904553 
L 56.562013 64.975226 
L 56.729413 77.640458 
L 56.896813 72.024335 
L 57.064213 70.13957 
L 57.231613 66.118571 
L 57.399012 74.416838 
L 57.733812 69.036178 
L 58.068613 77.101918 
L 58.403413 65.905322 
L 58.570813 70.561328 
L 58.738213 79.241522 
L 59.073013 64.232807 
L 59.240413 64.946108 
L 59.407813 80.147509 
L 59.575213 80.494281 
L 59.742613 74.105181 
L 59.910013 74.615531 
L 60.077413 79.995047 
L 60.244813 75.646861 
L 60.412213 74.666541 
L 60.747013 79.905166 
L 61.081813 70.961832 
L 61.249212 78.315055 
L 61.416612 79.710402 
L 61.584013 74.503991 
L 61.751413 74.646653 
L 61.918813 71.996772 
L 62.086213 76.983009 
L 62.253613 73.439592 
L 62.421013 75.867876 
L 62.588413 82.602046 
L 62.755813 83.716736 
L 62.923213 75.26944 
L 63.258012 81.413303 
L 63.425413 80.846212 
L 63.592813 81.60222 
L 63.760213 79.61048 
L 63.927613 79.992778 
L 64.095012 76.859972 
L 64.597212 84.737116 
L 64.764612 80.193635 
L 64.932012 84.517101 
L 65.099412 79.203011 
L 65.266813 79.85705 
L 65.434213 83.951748 
L 65.601613 84.358604 
L 65.769013 79.66375 
L 65.936413 82.933326 
L 66.103813 77.575634 
L 66.271213 79.77866 
L 66.438613 76.075401 
L 66.606013 86.329032 
L 66.773413 88.710542 
L 66.940813 81.377225 
L 67.108213 80.697516 
L 67.275613 91.698125 
L 67.610413 82.85987 
L 67.777813 79.209491 
L 67.945212 88.295916 
L 68.280012 86.105617 
L 68.447412 79.848666 
L 68.614812 80.371281 
L 68.782212 87.709686 
L 68.949613 89.123795 
L 69.117013 77.295492 
L 69.619213 91.474456 
L 69.786613 87.130408 
L 69.954013 79.510505 
L 70.121413 84.144836 
L 70.288813 82.777685 
L 70.623613 88.232759 
L 70.791012 87.729595 
L 70.958413 93.339865 
L 71.293213 83.35884 
L 71.460612 84.865389 
L 71.628013 85.332019 
L 71.795412 92.176644 
L 71.962813 86.737806 
L 72.130212 91.60742 
L 72.297613 87.372005 
L 72.632413 86.49764 
L 72.799813 90.322518 
L 72.967213 88.760889 
L 73.134613 88.450803 
L 73.302013 87.533565 
L 73.469413 88.869596 
L 73.636812 86.373849 
L 73.804213 92.320761 
L 74.139013 90.638791 
L 74.306412 83.271225 
L 74.641212 98.266069 
L 74.808613 88.690944 
L 74.976012 93.28858 
L 75.143413 88.882727 
L 75.310812 90.287245 
L 75.478213 90.261427 
L 75.645612 95.396632 
L 75.813013 94.769643 
L 76.147813 88.086742 
L 76.315213 96.172979 
L 76.482613 93.880195 
L 76.650013 87.507887 
L 76.817413 87.345302 
L 76.984813 95.637375 
L 77.152213 93.521214 
L 77.319613 89.247798 
L 77.487013 89.636826 
L 77.821813 91.194242 
L 77.989213 96.323461 
L 78.156613 94.530194 
L 78.324013 94.832511 
L 78.491412 95.444247 
L 78.658813 96.689558 
L 79.161012 87.263576 
L 79.328412 96.753088 
L 79.495812 99.300319 
L 79.663213 95.718796 
L 79.830613 102.089412 
L 79.998013 96.725662 
L 80.165413 96.697461 
L 80.332813 90.606627 
L 80.835013 100.589343 
L 81.002413 102.078685 
L 81.337213 94.359284 
L 81.504613 96.230394 
L 81.672012 101.303935 
L 81.839413 97.108271 
L 82.174213 102.137716 
L 82.341612 97.313797 
L 82.509013 98.012154 
L 82.676412 96.039162 
L 82.843813 103.398819 
L 83.011212 97.301554 
L 83.178613 104.050054 
L 83.346013 105.278634 
L 83.513413 92.163035 
L 83.680813 100.242541 
L 83.848213 102.806058 
L 84.015613 102.986589 
L 84.183013 98.079025 
L 84.350413 97.418237 
L 84.517813 98.497381 
L 84.685213 105.882103 
L 84.852613 105.871757 
L 85.020013 101.606818 
L 85.354813 100.667666 
L 85.522213 98.395349 
L 85.689613 101.288512 
L 85.857013 101.370673 
L 86.024413 104.343423 
L 86.191813 101.964583 
L 86.359213 101.592386 
L 86.526612 105.46984 
L 86.694013 100.764315 
L 86.861413 99.411082 
L 87.028813 100.282488 
L 87.196213 102.798035 
L 87.363613 102.258734 
L 87.531013 106.822148 
L 87.698413 103.328531 
L 87.865813 103.374296 
L 88.033212 108.051937 
L 88.200613 98.705016 
L 88.368012 104.966101 
L 88.535413 101.403177 
L 88.702812 109.09034 
L 89.037612 98.656632 
L 89.205013 97.095451 
L 89.539813 107.311224 
L 89.707212 112.560996 
L 90.042012 100.946704 
L 90.209412 109.429245 
L 90.376812 105.230826 
L 90.544213 106.328074 
L 90.711613 100.789789 
L 90.879013 108.437185 
L 91.046413 106.070625 
L 91.213813 101.147414 
L 91.381213 105.878899 
L 91.548613 102.360923 
L 91.716013 108.344935 
L 91.883413 107.43091 
L 92.050813 114.789816 
L 92.218213 102.590502 
L 92.385613 106.109892 
L 92.553013 101.543475 
L 92.720413 112.036206 
L 92.887812 113.799358 
L 93.055213 101.290024 
L 93.222612 101.093866 
L 93.390013 114.735517 
L 93.557412 114.488862 
L 93.892212 100.101824 
L 94.059613 110.629579 
L 94.227013 103.160218 
L 94.394413 107.407796 
L 94.561813 116.011527 
L 94.896613 106.363118 
L 95.064013 106.245331 
L 95.231413 119.029237 
L 95.398813 116.820717 
L 95.733613 106.253276 
L 95.901013 112.498414 
L 96.068413 110.617194 
L 96.235813 107.407553 
L 96.403213 110.79099 
L 96.570613 109.124213 
L 96.738013 109.966253 
L 96.905413 114.249621 
L 97.072813 111.881585 
L 97.240213 113.403131 
L 97.407612 108.050504 
L 97.575012 107.378037 
L 97.742413 117.576862 
L 98.244613 112.085716 
L 98.412013 116.173538 
L 98.579413 110.734852 
L 98.746813 112.269763 
L 99.081613 117.773241 
L 99.249012 109.603582 
L 99.416413 107.250347 
L 99.583812 118.307814 
L 99.918612 113.598073 
L 100.086013 113.918371 
L 100.253412 113.074925 
L 100.588212 121.18822 
L 100.755613 110.735369 
L 100.923012 118.201561 
L 101.090413 113.635062 
L 101.257812 113.945148 
L 101.425213 123.408388 
L 101.760013 116.849153 
L 101.927413 119.133542 
L 102.094813 119.037005 
L 102.262213 121.704469 
L 102.429613 116.36281 
L 102.764412 120.001483 
L 102.931813 115.921846 
L 103.266613 122.920365 
L 103.434012 126.180508 
L 103.601413 122.283456 
L 103.768812 114.179754 
L 103.936213 117.72401 
L 104.103612 128.893281 
L 104.271013 117.38986 
L 104.438412 118.578851 
L 104.605813 122.046293 
L 104.773212 128.368726 
L 104.940613 121.307806 
L 105.108013 124.029644 
L 105.275413 124.467601 
L 105.442813 121.963394 
L 105.610213 130.867067 
L 105.945013 122.114891 
L 106.112413 124.876351 
L 106.279813 124.967456 
L 106.447213 133.618819 
L 106.782013 120.111306 
L 106.949413 119.258752 
L 107.451613 132.687735 
L 107.619012 121.156356 
L 107.786413 121.474504 
L 107.953812 124.736107 
L 108.121213 134.327184 
L 108.456013 124.145912 
L 108.623413 122.83078 
L 108.790812 126.407918 
L 108.958213 126.770824 
L 109.125612 130.763307 
L 109.293013 132.039178 
L 109.460412 130.106755 
L 109.627813 120.765091 
L 109.795212 130.647162 
L 109.962613 129.623392 
L 110.130012 137.451725 
L 110.464812 125.302038 
L 110.799612 132.515411 
L 110.967013 132.974215 
L 111.134412 129.892878 
L 111.301813 135.921319 
L 111.469212 127.752613 
L 111.636613 127.265218 
L 111.804012 134.152101 
L 112.138813 127.949284 
L 112.306213 134.018039 
L 112.473613 132.345424 
L 112.641013 129.256409 
L 112.808413 138.114746 
L 112.975813 136.805035 
L 113.143213 133.366091 
L 113.310613 137.000327 
L 113.478013 135.786426 
L 113.645412 129.801662 
L 113.980212 139.104032 
L 114.147613 141.287455 
L 114.315012 130.903174 
L 114.482413 133.966815 
L 114.649812 134.863876 
L 114.817213 137.219196 
L 114.984612 133.926356 
L 115.152013 138.555541 
L 115.319412 136.286998 
L 115.486813 138.73825 
L 115.654212 138.358362 
L 115.821613 132.019194 
L 115.989013 134.628336 
L 116.156413 141.809566 
L 116.323813 141.367699 
L 116.658613 136.981853 
L 116.826013 136.967089 
L 116.993413 140.993731 
L 117.160813 136.671175 
L 117.328213 135.686812 
L 117.663013 142.968963 
L 117.830413 137.265128 
L 118.165213 143.545629 
L 118.332613 143.956004 
L 118.500012 127.672958 
L 118.667413 131.336201 
L 118.834812 144.347185 
L 119.002213 142.927585 
L 119.169612 134.645209 
L 119.504413 147.29819 
L 119.671813 137.40295 
L 119.839213 140.521589 
L 120.006612 146.777196 
L 120.174013 139.656972 
L 120.341412 141.58576 
L 120.508813 146.284869 
L 120.843613 128.604258 
L 121.011012 148.056302 
L 121.345812 138.52419 
L 121.513213 147.531782 
L 121.848013 138.976408 
L 122.015412 142.372992 
L 122.182813 142.96435 
L 122.350212 147.856693 
L 122.517613 143.723451 
L 122.685012 142.48436 
L 122.852413 138.224134 
L 123.019813 138.493643 
L 123.187213 141.890019 
L 123.354613 147.748357 
L 123.689413 137.582779 
L 123.856813 143.443148 
L 124.024213 144.390953 
L 124.359013 140.426577 
L 124.526413 148.506944 
L 124.693813 144.500373 
L 124.861212 145.050847 
L 125.028613 143.305912 
L 125.196012 144.802133 
L 125.530812 134.530715 
L 125.698213 144.401738 
L 125.865612 144.333031 
L 126.033013 147.527175 
L 126.367813 144.177967 
L 126.535213 144.493072 
L 126.702613 146.890184 
L 126.870013 147.210742 
L 127.204813 142.287784 
L 127.372213 144.723993 
L 127.539613 140.36815 
L 127.707013 139.505536 
L 128.209213 151.765418 
L 128.544013 143.312684 
L 128.711413 143.431109 
L 129.046213 147.317484 
L 129.381012 142.204835 
L 129.548413 149.783344 
L 129.715812 144.645228 
L 130.050612 147.99947 
L 130.218013 145.933317 
L 130.552813 152.158779 
L 130.720213 142.078345 
L 130.887613 150.080015 
L 131.055013 151.503238 
L 131.222413 146.317271 
L 131.389813 147.376472 
L 131.557213 146.788347 
L 131.892013 152.173814 
L 132.059413 155.90389 
L 132.226813 149.105911 
L 132.561613 152.148692 
L 133.063813 146.01671 
L 133.231213 153.509411 
L 133.398613 147.312188 
L 133.733413 153.591566 
L 133.900813 146.382561 
L 134.235613 155.041752 
L 134.403013 154.954018 
L 134.570413 148.275204 
L 134.737813 153.240382 
L 134.905213 154.311011 
L 135.072612 152.888141 
L 135.240013 152.510785 
L 135.407412 153.131797 
L 135.574813 154.615636 
L 135.742212 154.862043 
L 135.909613 158.519708 
L 136.077012 155.457548 
L 136.244413 150.062433 
L 136.411812 153.477322 
L 136.579213 151.188073 
L 136.914013 158.530439 
L 137.081412 151.249645 
L 137.248812 151.191652 
L 137.416213 153.638628 
L 137.583612 162.307028 
L 137.751013 156.951279 
L 137.918412 157.410214 
L 138.085813 158.369379 
L 138.420613 146.387491 
L 138.588012 156.705042 
L 138.755413 156.484382 
L 138.922812 162.040277 
L 139.090213 157.209163 
L 139.257612 158.398784 
L 139.425013 156.588892 
L 139.592412 161.346627 
L 139.927212 146.246938 
L 140.094613 161.481873 
L 140.429413 155.274242 
L 140.596812 154.90943 
L 140.764213 151.035285 
L 141.266413 161.267617 
L 141.433813 155.45027 
L 141.601213 159.304528 
L 141.768613 159.331672 
L 141.936013 155.64569 
L 142.270813 160.487137 
L 142.438212 155.347851 
L 142.773012 161.940803 
L 143.107812 154.341049 
L 143.275213 159.092371 
L 143.442612 156.884557 
L 143.610013 165.400858 
L 143.777412 165.52313 
L 144.112212 153.660427 
L 144.279613 157.582243 
L 144.447012 155.775188 
L 144.781813 159.185422 
L 144.949213 167.285628 
L 145.116613 160.586326 
L 145.284013 161.202866 
L 145.451413 156.313434 
L 145.786213 167.311023 
L 145.953613 167.916149 
L 146.288413 161.406779 
L 146.623213 155.768647 
L 146.958012 166.420547 
L 147.125413 165.655889 
L 147.292812 156.67589 
L 147.460213 166.423567 
L 147.627612 165.985828 
L 147.795013 159.226255 
L 148.129813 163.654966 
L 148.297213 161.453397 
L 148.464613 169.782858 
L 148.799413 157.887257 
L 148.966813 165.399364 
L 149.134213 166.501025 
L 149.301613 164.772922 
L 149.469013 167.954344 
L 149.636413 160.282017 
L 149.803813 164.258164 
L 149.971213 163.581038 
L 150.138613 162.132872 
L 150.306013 157.377684 
L 150.473413 162.44149 
L 150.640813 163.450858 
L 150.808213 159.886393 
L 150.975613 164.822912 
L 151.143013 157.429861 
L 151.310413 161.486605 
L 151.477812 161.15489 
L 151.645213 158.468154 
L 151.812613 167.928336 
L 151.980013 166.933869 
L 152.147413 164.063627 
L 152.314813 158.039595 
L 152.482213 160.020149 
L 152.649613 165.932154 
L 152.984413 163.8051 
L 153.151813 163.775306 
L 153.319213 167.287151 
L 153.486613 166.660732 
L 153.654013 164.433287 
L 153.821413 167.699886 
L 154.156213 161.902595 
L 154.323613 168.097885 
L 154.658413 160.920288 
L 154.825813 165.4962 
L 154.993213 163.381426 
L 155.160613 170.274767 
L 155.328013 166.2225 
L 155.495413 165.505402 
L 155.662813 160.543548 
L 155.830213 170.096432 
L 155.997613 170.782812 
L 156.165013 165.286068 
L 156.332413 163.66815 
L 156.499812 170.176724 
L 156.667213 168.473256 
L 156.834612 171.493182 
L 157.002013 164.323999 
L 157.169412 162.562467 
L 157.504212 171.285916 
L 157.671613 166.879229 
L 157.839012 166.352335 
L 158.006413 169.674862 
L 158.173812 164.804204 
L 158.341213 165.506277 
L 158.508612 168.090778 
L 158.676013 167.391849 
L 158.843412 164.09192 
L 159.178213 170.017277 
L 159.345612 169.15193 
L 159.513013 165.895941 
L 159.847813 166.705606 
L 160.015212 173.506861 
L 160.182613 173.095735 
L 160.350012 166.673237 
L 160.517413 171.679286 
L 160.684812 166.510501 
L 161.019612 170.862674 
L 161.187013 170.873469 
L 161.354412 168.477889 
L 161.521813 170.172423 
L 161.689212 177.238288 
L 162.024012 169.00388 
L 162.191413 166.81662 
L 162.358812 167.392734 
L 162.526213 169.301341 
L 162.693613 180.233615 
L 162.861013 174.988081 
L 163.028413 163.516273 
L 163.195813 174.120766 
L 163.363213 177.054709 
L 163.530613 167.357003 
L 163.698013 170.801095 
L 163.865413 165.414827 
L 164.032813 175.658924 
L 164.200212 178.975798 
L 164.367613 171.249412 
L 164.702413 170.900769 
L 164.869812 172.62409 
L 165.037213 169.520568 
L 165.204612 179.232117 
L 165.372013 177.492626 
L 165.539412 168.578681 
L 165.706813 172.413551 
L 165.874212 172.31705 
L 166.041613 168.220119 
L 166.209013 170.811319 
L 166.376413 177.323394 
L 166.543813 176.623409 
L 166.711212 178.33163 
L 166.878613 176.289523 
L 167.046012 171.087377 
L 167.213413 176.473115 
L 167.380812 174.181974 
L 167.548213 163.786263 
L 167.883013 175.425405 
L 168.050412 174.095492 
L 168.385212 176.749011 
L 168.552613 179.052847 
L 168.720012 173.620554 
L 168.887413 176.230493 
L 169.054812 176.460646 
L 169.222213 171.107177 
L 169.389612 173.065381 
L 169.557013 178.852748 
L 169.724412 170.432611 
L 170.059213 184.307835 
L 170.226613 172.911161 
L 170.394013 170.368839 
L 170.561413 181.453653 
L 170.896213 172.128693 
L 171.063613 172.185584 
L 171.565812 180.673981 
L 171.733213 177.968985 
L 171.900612 171.850815 
L 172.068013 173.187898 
L 172.235412 175.697737 
L 172.402813 172.947796 
L 172.570212 178.553445 
L 172.737613 180.027924 
L 172.905012 171.929252 
L 173.072413 181.917434 
L 173.239812 174.848488 
L 173.574613 183.063335 
L 173.909413 174.743621 
L 174.076813 186.514578 
L 174.244213 173.604046 
L 174.411613 176.611783 
L 174.579013 182.199917 
L 174.746413 176.302458 
L 174.913813 175.996747 
L 175.081213 178.891695 
L 175.248613 169.817632 
L 175.583413 184.325049 
L 175.750813 181.530527 
L 175.918213 174.346817 
L 176.085612 181.36086 
L 176.253013 182.034249 
L 176.587813 176.506923 
L 176.755212 173.65583 
L 176.922613 174.815614 
L 177.090013 184.361928 
L 177.257413 176.776559 
L 177.592213 182.527189 
L 177.759613 183.222934 
L 177.927012 173.415288 
L 178.094413 180.54382 
L 178.261812 178.414701 
L 178.429213 178.315808 
L 178.596612 182.234958 
L 178.764013 181.254745 
L 178.931412 179.096659 
L 179.098812 182.268019 
L 179.266212 181.339394 
L 179.433612 183.413575 
L 179.601012 179.747026 
L 179.768412 173.210186 
L 180.103212 181.328888 
L 180.270612 190.446916 
L 180.438012 179.144376 
L 180.772812 177.712586 
L 181.107612 182.494221 
L 181.275013 174.966099 
L 181.442412 185.712527 
L 181.609813 187.442803 
L 181.944613 171.608317 
L 182.112012 190.09782 
L 182.279413 177.242733 
L 182.446812 176.75376 
L 182.614213 177.57057 
L 182.781612 187.876287 
L 182.949013 184.601226 
L 183.116412 184.617963 
L 183.283813 184.167526 
L 183.451212 188.420208 
L 183.786012 174.278409 
L 183.953412 174.375918 
L 184.120812 185.240486 
L 184.288212 187.562647 
L 184.455613 181.956448 
L 184.623012 184.98635 
L 184.790413 181.508576 
L 185.125213 182.782471 
L 185.292612 181.818406 
L 185.460013 176.377778 
L 185.794813 184.283041 
L 185.962212 180.156075 
L 186.297012 189.699378 
L 186.631812 180.868883 
L 186.799213 183.40384 
L 186.966612 180.542867 
L 187.134013 180.298575 
L 187.468813 185.848564 
L 187.636212 182.044061 
L 188.138413 187.299742 
L 188.305813 184.864767 
L 188.473213 180.15527 
L 188.640613 180.508815 
L 188.975413 183.268608 
L 189.142812 188.131132 
L 189.310213 188.722796 
L 189.477612 187.743551 
L 189.812412 174.752947 
L 190.147212 187.64345 
L 190.314613 190.052421 
L 190.482012 188.146406 
L 190.649413 195.51284 
L 190.816812 186.534046 
L 190.984213 186.980331 
L 191.151612 183.604728 
L 191.319013 187.769468 
L 191.486413 188.588181 
L 191.653813 187.883238 
L 191.821213 183.503885 
L 191.988613 184.783743 
L 192.156013 191.000295 
L 192.323413 189.625748 
L 192.490813 183.52021 
L 192.658213 182.653312 
L 192.825613 187.439924 
L 193.160413 185.066277 
L 193.830013 193.782307 
L 193.997412 186.898441 
L 194.164813 190.274389 
L 194.332212 185.576366 
L 194.499613 193.73848 
L 194.667012 188.12248 
L 194.834413 188.827365 
L 195.001812 184.996019 
L 195.169213 190.536149 
L 195.504013 186.848673 
L 195.671413 192.910047 
L 195.838813 192.033895 
L 196.006213 190.198578 
L 196.173613 194.910882 
L 196.341013 193.779447 
L 196.508413 184.72438 
L 196.675813 183.771443 
L 197.010613 196.238048 
L 197.178013 198.458461 
L 197.345413 190.543262 
L 197.512813 190.038881 
L 197.680213 191.479541 
L 197.847613 189.882339 
L 198.015013 191.471638 
L 198.182412 194.592486 
L 198.349813 191.607868 
L 198.517212 198.743393 
L 198.852013 185.73373 
L 199.019413 195.075227 
L 199.354212 189.852177 
L 199.521613 201.3706 
L 199.689012 189.249815 
L 199.856413 189.158461 
L 200.023812 199.543878 
L 200.191213 194.962424 
L 200.358612 198.216253 
L 200.526013 196.784074 
L 200.693412 188.759486 
L 201.028212 194.770233 
L 201.195612 187.682921 
L 201.363012 191.333423 
L 201.530412 199.208598 
L 201.697812 194.935851 
L 201.865212 196.161928 
L 202.200012 191.61493 
L 202.367413 198.345244 
L 202.534812 195.970998 
L 202.702213 186.364529 
L 202.869612 198.371505 
L 203.037013 200.976209 
L 203.204412 194.000891 
L 203.371813 206.258444 
L 203.539212 197.297337 
L 203.874012 199.095184 
L 204.208812 193.483362 
L 204.376213 196.598623 
L 204.543612 190.664443 
L 204.878412 198.292634 
L 205.045813 195.806607 
L 205.213212 195.706443 
L 205.715413 208.386212 
L 205.882812 199.091341 
L 206.050213 200.438961 
L 206.217613 206.705859 
L 206.385013 199.088808 
L 206.552413 198.93908 
L 206.887213 203.726736 
L 207.054613 206.401087 
L 207.222013 195.225103 
L 207.389413 193.347079 
L 207.556813 203.778679 
L 207.724213 203.621371 
L 207.891613 193.698413 
L 208.226413 208.186663 
L 208.393813 201.332466 
L 208.561213 200.381795 
L 208.728613 204.866235 
L 208.896013 197.797658 
L 209.063413 199.485057 
L 209.230813 206.995446 
L 209.398213 208.019178 
L 209.733013 201.090905 
L 209.900413 201.689129 
L 210.067812 207.641868 
L 210.235213 203.894056 
L 210.402612 207.924042 
L 210.570013 207.796287 
L 210.737412 208.068656 
L 210.904812 210.018725 
L 211.072212 205.512797 
L 211.239612 206.856468 
L 211.407012 203.31601 
L 211.574412 202.982489 
L 211.741812 196.755041 
L 212.076612 203.865176 
L 212.244012 205.554889 
L 212.411412 203.443007 
L 212.578812 210.838604 
L 212.746212 202.862194 
L 212.913612 210.107935 
L 213.081012 209.657158 
L 213.248413 207.348036 
L 213.415812 210.739421 
L 213.750612 205.858113 
L 213.918013 206.902156 
L 214.085412 206.105862 
L 214.252813 200.721605 
L 214.420212 208.344678 
L 214.587613 208.39769 
L 214.755012 212.269118 
L 214.922413 204.141309 
L 215.257213 215.354186 
L 215.424612 209.3118 
L 215.592013 208.76155 
L 215.759412 215.97503 
L 215.926813 207.086778 
L 216.094212 208.722692 
L 216.261613 205.487871 
L 216.429012 213.292544 
L 216.596413 209.812339 
L 216.763813 199.351372 
L 217.098613 214.890495 
L 217.266013 204.106912 
L 217.433413 212.963212 
L 217.600813 214.893309 
L 217.768213 210.755187 
L 217.935613 211.67161 
L 218.270413 208.073701 
L 218.437813 214.724516 
L 218.605213 209.890506 
L 218.940013 214.954507 
L 219.107412 214.71256 
L 219.274813 216.679754 
L 219.442212 212.284781 
L 219.609613 212.93539 
L 219.777012 206.634837 
L 219.944413 210.930067 
L 220.111812 205.165764 
L 220.446612 208.881646 
L 220.614013 209.757712 
L 220.781412 209.241727 
L 220.948813 209.103146 
L 221.116212 216.705967 
L 221.283613 213.739629 
L 221.451012 215.285118 
L 221.785812 214.018248 
L 221.953213 211.514013 
L 222.120612 217.939385 
L 222.288013 210.102691 
L 222.455412 210.285388 
L 222.622813 211.621318 
L 222.790212 215.896676 
L 223.125012 210.54615 
L 223.459812 217.860168 
L 223.627213 214.038251 
L 223.794612 214.806837 
L 223.962013 217.268611 
L 224.296813 214.290208 
L 224.464213 214.719692 
L 224.631613 217.323469 
L 224.799013 215.925951 
L 224.966413 209.481746 
L 225.133813 211.51698 
L 225.301213 215.453106 
L 225.468613 216.235858 
L 225.636013 208.636168 
L 225.803413 212.154793 
L 225.970813 221.888983 
L 226.138213 214.271596 
L 226.305613 213.927131 
L 226.640413 220.76008 
L 226.807813 216.282632 
L 226.975213 216.460508 
L 227.310013 213.528477 
L 227.477413 212.105411 
L 227.644813 212.652468 
L 227.812213 217.820419 
L 228.147012 212.918631 
L 228.481812 215.349975 
L 228.649213 216.61358 
L 228.816612 219.334311 
L 228.984013 215.105444 
L 229.151412 215.618262 
L 229.318813 221.441316 
L 229.486212 214.850131 
L 229.653613 223.916409 
L 229.821012 221.823687 
L 229.988413 210.30464 
L 230.155812 210.576832 
L 230.490612 218.614257 
L 230.658013 214.741843 
L 230.825412 216.490724 
L 230.992813 212.864999 
L 231.160213 216.539728 
L 231.327613 213.933167 
L 231.495013 217.845004 
L 231.662412 214.55624 
L 231.829813 214.173764 
L 231.997212 224.0122 
L 232.164613 219.191823 
L 232.332012 222.503281 
L 232.499413 213.49397 
L 232.666812 218.060548 
L 232.834213 216.494606 
L 233.001612 211.914615 
L 233.169013 220.057421 
L 233.336412 220.045391 
L 233.503813 218.90146 
L 233.671212 224.708538 
L 233.838613 220.909393 
L 234.006012 211.624483 
L 234.340812 227.555407 
L 234.508213 219.496949 
L 234.675612 223.29497 
L 234.843013 219.522186 
L 235.177813 227.588708 
L 235.345213 217.717927 
L 235.512613 214.960462 
L 235.680013 221.615596 
L 235.847413 220.548883 
L 236.014812 210.960545 
L 236.182213 222.84191 
L 236.517013 215.006487 
L 236.684412 222.66375 
L 236.851813 218.816636 
L 237.019212 224.896829 
L 237.186613 224.065229 
L 237.354012 219.27853 
L 237.521412 221.509784 
L 237.688812 221.594879 
L 237.856212 218.254208 
L 238.023612 226.594067 
L 238.358412 215.08518 
L 238.525813 224.830934 
L 238.693212 213.602117 
L 238.860613 219.192293 
L 239.028012 219.854585 
L 239.195413 215.990329 
L 239.362812 222.796613 
L 239.530213 221.503035 
L 239.697612 210.243446 
L 239.865013 224.871264 
L 240.032412 227.603961 
L 240.199813 219.891532 
L 240.367212 220.381767 
L 240.534613 223.452107 
L 240.702012 221.094271 
L 240.869413 225.188077 
L 241.036812 222.625012 
L 241.204213 227.789401 
L 241.371612 226.540196 
L 241.539013 223.114543 
L 241.706412 228.169058 
L 241.873813 216.555005 
L 242.041213 214.221183 
L 242.208613 226.808276 
L 242.376013 216.628242 
L 242.543413 223.54096 
L 242.710813 222.081349 
L 242.878213 216.448001 
L 243.045613 227.108064 
L 243.213013 226.188435 
L 243.380413 219.372827 
L 243.547813 224.269079 
L 243.715213 225.090653 
L 243.882613 224.195124 
L 244.050013 227.622721 
L 244.217413 215.244711 
L 244.552213 229.669897 
L 244.719613 220.55819 
L 244.887013 228.893219 
L 245.054413 221.500285 
L 245.221813 222.625734 
L 245.389212 225.633648 
L 245.556613 219.809058 
L 245.724012 226.891197 
L 245.891413 225.236833 
L 246.226213 214.683239 
L 246.393612 227.370118 
L 246.561013 217.450893 
L 246.895813 228.168923 
L 247.063212 217.500248 
L 247.230613 226.582002 
L 247.398012 225.923691 
L 247.565413 221.708995 
L 247.732812 228.023664 
L 247.900213 225.143217 
L 248.067612 218.349459 
L 248.235013 226.943466 
L 248.402412 222.093448 
L 248.569813 230.27413 
L 248.737212 223.042803 
L 248.904613 226.208061 
L 249.072012 226.643647 
L 249.239413 225.510483 
L 249.574213 230.469149 
L 249.741613 219.431086 
L 249.909013 223.430269 
L 250.076413 231.374332 
L 250.243813 216.034773 
L 250.411213 223.074922 
L 250.578613 224.870578 
L 250.746013 222.770485 
L 250.913413 227.295279 
L 251.080813 227.078542 
L 251.415613 223.504021 
L 251.583013 219.971985 
L 251.750413 223.714894 
L 251.917813 223.934813 
L 252.085213 227.547046 
L 252.252613 223.832136 
L 252.420013 223.18209 
L 252.587413 223.959357 
L 252.754813 231.459996 
L 252.922213 225.584417 
L 253.089613 225.619056 
L 253.257013 230.344407 
L 253.424413 224.992172 
L 253.591812 230.012052 
L 253.759213 229.166414 
L 253.926612 226.38235 
L 254.094013 226.127731 
L 254.261412 227.102109 
L 254.428813 230.938485 
L 254.763613 219.540039 
L 254.931012 232.104827 
L 255.265812 223.856198 
L 255.433212 221.874159 
L 255.600612 227.53665 
L 255.768012 227.40032 
L 255.935412 220.726675 
L 256.102813 221.138415 
L 256.270213 228.895719 
L 256.437613 225.090694 
L 256.605012 216.061374 
L 256.772413 228.384215 
L 257.107213 225.331944 
L 257.274612 227.871846 
L 257.609413 221.285322 
L 257.776813 230.929913 
L 257.944212 229.897277 
L 258.111613 225.693085 
L 258.279013 227.660579 
L 258.446413 226.1338 
L 258.613812 228.51205 
L 258.781213 223.271267 
L 258.948613 226.921337 
L 259.116013 223.669347 
L 259.283412 224.043876 
L 259.450813 222.389315 
L 259.618213 225.467816 
L 259.785613 226.383 
L 259.953012 226.595236 
L 260.120413 233.894964 
L 260.287813 221.011652 
L 260.622613 235.333404 
L 260.790013 222.548367 
L 261.124813 232.573354 
L 261.292213 227.436597 
L 261.627013 232.852894 
L 261.794413 229.29666 
L 261.961813 231.835125 
L 262.129213 229.445602 
L 262.464013 232.259332 
L 262.631413 223.99616 
L 262.966212 233.197774 
L 263.133613 224.879132 
L 263.301013 225.98193 
L 263.468413 228.560652 
L 263.635812 227.320591 
L 263.803213 223.495008 
L 263.970613 228.699801 
L 264.138013 229.657811 
L 264.305412 226.824052 
L 264.472813 230.06998 
L 264.640213 222.205404 
L 264.807613 231.58284 
L 264.975012 230.929265 
L 265.142413 225.623964 
L 265.309813 230.536201 
L 265.477213 231.286437 
L 265.644612 230.753967 
L 265.812013 234.354469 
L 265.979413 227.42428 
L 266.146813 231.771781 
L 266.314212 232.249206 
L 266.481613 222.333448 
L 266.649013 233.844093 
L 266.816413 234.621352 
L 266.983812 223.886749 
L 267.151213 227.453071 
L 267.318613 235.012042 
L 267.653413 227.739508 
L 267.820813 232.73944 
L 267.988213 233.984396 
L 268.323013 227.008674 
L 268.490413 231.508603 
L 268.825213 224.610385 
L 268.992613 231.57031 
L 269.160013 222.931019 
L 269.327413 231.528433 
L 269.494813 231.199719 
L 269.662213 225.411957 
L 269.829613 227.586336 
L 269.997013 233.324533 
L 270.499213 230.051059 
L 270.666613 229.424695 
L 271.001413 230.593695 
L 271.168813 234.402861 
L 271.336213 227.166081 
L 271.503613 230.937154 
L 271.671013 237.480057 
L 271.838413 226.147707 
L 272.005813 227.619508 
L 272.173213 234.999412 
L 272.508013 228.906454 
L 272.675412 235.382232 
L 272.842813 234.267237 
L 273.010213 231.23471 
L 273.345012 234.841907 
L 273.512413 229.702909 
L 273.679813 231.83189 
L 273.847213 235.517494 
L 274.182012 225.528021 
L 274.349413 226.499456 
L 274.516813 234.343844 
L 274.684213 229.245661 
L 274.851612 229.44957 
L 275.019013 226.466896 
L 275.353813 237.078351 
L 275.521212 226.502429 
L 275.688613 223.008643 
L 276.023413 234.746872 
L 276.190812 229.65371 
L 276.358213 228.57252 
L 276.525613 230.036242 
L 276.693013 234.493387 
L 276.860412 230.217691 
L 277.027813 232.122271 
L 277.195213 231.720802 
L 277.362613 232.235122 
L 277.530012 234.41281 
L 277.697413 229.29037 
L 277.864813 233.638282 
L 278.032213 231.541194 
L 278.199613 226.850135 
L 278.534413 236.867012 
L 278.701813 229.958435 
L 279.036613 235.86445 
L 279.204013 231.948419 
L 279.538813 233.455544 
L 279.706213 236.751274 
L 279.873613 229.732618 
L 280.208413 227.324237 
L 280.375813 226.640085 
L 280.543212 232.240123 
L 280.878013 225.472981 
L 281.212812 233.126534 
L 281.380213 236.152739 
L 281.715013 226.114183 
L 281.882412 234.655736 
L 282.049813 235.099038 
L 282.217213 229.533421 
L 282.384613 229.711577 
L 282.552012 230.566078 
L 282.719413 233.568383 
L 282.886813 233.76225 
L 283.054213 230.979307 
L 283.221612 233.541847 
L 283.389013 227.411143 
L 283.556413 235.528176 
L 283.723813 233.719879 
L 283.891212 229.794669 
L 284.058613 235.94612 
L 284.226013 236.791552 
L 284.393413 224.499494 
L 284.560812 237.671626 
L 284.895613 227.219008 
L 285.063013 232.351763 
L 285.230412 231.607717 
L 285.397813 234.7568 
L 285.565213 226.633588 
L 285.732613 234.634887 
L 285.900013 233.815473 
L 286.067413 223.25821 
L 286.234813 232.103897 
L 286.402213 232.998494 
L 286.569613 224.896923 
L 286.737013 231.999874 
L 287.071813 224.497508 
L 287.239213 236.8275 
L 287.406613 229.679539 
L 287.574013 229.212029 
L 287.741413 231.910674 
L 287.908813 229.225674 
L 288.076213 234.553747 
L 288.243613 234.707 
L 288.411013 225.963353 
L 288.745813 233.704674 
L 288.913213 225.233506 
L 289.080613 238.373317 
L 289.248013 233.235467 
L 289.415413 231.87127 
L 289.582813 232.576754 
L 289.750213 237.369099 
L 289.917613 229.838686 
L 290.085013 228.890849 
L 290.252412 228.90832 
L 290.419813 238.497952 
L 290.587213 231.405594 
L 290.754613 230.9875 
L 290.922012 238.361533 
L 291.089413 227.322928 
L 291.424213 240.784233 
L 291.591612 227.356115 
L 291.759013 224.346405 
L 291.926413 242.370782 
L 292.093813 230.989835 
L 292.261212 229.810743 
L 292.428613 233.223581 
L 292.596013 233.96927 
L 292.763413 231.442287 
L 292.930813 234.466072 
L 293.098213 228.654249 
L 293.265613 227.468595 
L 293.433013 234.289754 
L 293.767813 223.603133 
L 293.935213 230.56754 
L 294.102613 231.965511 
L 294.437413 225.005381 
L 294.604813 238.452773 
L 294.939613 227.75107 
L 295.107013 234.691939 
L 295.274413 231.827605 
L 295.441813 224.966011 
L 295.609213 236.199176 
L 295.776612 237.218217 
L 295.944013 226.931679 
L 296.111413 233.068879 
L 296.278813 232.247834 
L 296.446213 233.438272 
L 296.613613 236.154213 
L 296.781013 229.977157 
L 297.115813 234.644968 
L 297.283213 230.387501 
L 297.450613 232.292358 
L 297.618013 231.951068 
L 297.785413 232.897226 
L 297.952813 236.406144 
L 298.120213 232.971679 
L 298.287613 235.822296 
L 298.455013 233.776405 
L 298.622413 223.574498 
L 298.789813 237.825442 
L 299.124613 229.09082 
L 299.292013 234.945507 
L 299.459413 231.919206 
L 299.626813 231.128177 
L 299.794213 240.828572 
L 300.129013 228.880335 
L 300.296413 235.99748 
L 300.463813 228.884389 
L 300.631213 232.466622 
L 300.798613 227.901364 
L 300.966013 235.613308 
L 301.133413 229.926067 
L 301.300813 230.94626 
L 301.635613 230.6231 
L 301.970413 234.729486 
L 302.137813 228.109572 
L 302.472613 233.288268 
L 302.640013 229.688911 
L 302.807412 229.326395 
L 302.974813 237.362555 
L 303.142213 235.922115 
L 303.309613 229.265434 
L 303.644413 236.366179 
L 303.811813 230.1249 
L 303.979213 232.724533 
L 304.146613 232.631229 
L 304.481413 233.246571 
L 304.648813 233.228032 
L 304.816213 228.243698 
L 304.983613 238.284156 
L 305.151013 235.615319 
L 305.318413 229.908612 
L 305.485813 236.664686 
L 305.820613 229.618546 
L 305.988013 230.048565 
L 306.155413 233.639312 
L 306.322813 229.214439 
L 306.657613 236.882484 
L 306.825013 230.763758 
L 306.992413 231.558241 
L 307.159813 234.849355 
L 307.327213 229.682955 
L 307.494613 235.170178 
L 307.662013 230.594136 
L 307.829413 239.00869 
L 307.996813 235.580003 
L 308.164213 229.713963 
L 308.331613 234.039607 
L 308.499013 227.539502 
L 308.666413 234.29471 
L 308.833813 234.277868 
L 309.001213 219.814048 
L 309.336013 236.869093 
L 309.503413 226.784451 
L 309.670813 237.690975 
L 310.005613 228.50375 
L 310.173013 238.238025 
L 310.340413 236.442474 
L 310.507813 226.549608 
L 310.675213 234.867435 
L 310.842613 236.784576 
L 311.010013 229.084802 
L 311.344813 234.767619 
L 311.512213 233.583505 
L 311.679613 235.21428 
L 311.847013 233.03241 
L 312.014413 232.905738 
L 312.181813 229.676857 
L 312.349213 231.666436 
L 312.516613 230.312348 
L 312.851413 234.1566 
L 313.018813 231.821254 
L 313.186213 226.279309 
L 313.353613 236.931554 
L 313.521013 233.638467 
L 313.688413 227.018529 
L 313.855813 231.212994 
L 314.023213 239.348292 
L 314.358013 228.084823 
L 314.692813 235.81393 
L 315.027613 225.890542 
L 315.362413 238.68998 
L 315.529813 230.730967 
L 315.697213 233.634808 
L 315.864613 233.596526 
L 316.032013 229.979599 
L 316.366813 233.963758 
L 316.534213 234.067196 
L 316.701613 226.175592 
L 317.036413 238.739698 
L 317.203813 228.33359 
L 317.371213 230.135973 
L 317.538613 234.256439 
L 317.706013 234.379441 
L 317.873413 229.587156 
L 318.040813 235.08851 
L 318.208213 231.269657 
L 318.375613 234.20641 
L 318.543013 233.698727 
L 318.710413 229.346225 
L 319.045213 237.242854 
L 319.212613 230.315229 
L 319.380013 232.570514 
L 319.547413 228.317647 
L 319.714812 229.305468 
L 319.882213 231.877529 
L 320.217013 230.253555 
L 320.384412 233.358746 
L 320.551813 234.003769 
L 320.886613 236.910509 
L 321.054012 227.343972 
L 321.221413 233.774544 
L 321.388813 235.372082 
L 321.556213 228.571633 
L 321.723613 233.181395 
L 321.891013 234.001738 
L 322.058413 233.176062 
L 322.225813 235.533398 
L 322.393213 229.464877 
L 322.560613 236.349897 
L 322.895413 228.253244 
L 323.062813 239.001673 
L 323.397613 227.298697 
L 323.565013 236.318277 
L 323.732413 230.944806 
L 323.899813 237.946158 
L 324.234613 226.098399 
L 324.402013 236.292916 
L 324.736813 228.769302 
L 324.904213 233.849502 
L 325.071613 229.49957 
L 325.239013 236.930027 
L 325.406413 233.617995 
L 325.573813 227.698465 
L 325.741213 236.258946 
L 325.908613 232.659734 
L 326.076013 231.906948 
L 326.243413 234.181061 
L 326.410813 229.619143 
L 326.578213 228.509406 
L 326.745613 232.697959 
L 326.913013 227.471791 
L 327.080413 235.842978 
L 327.247813 234.039943 
L 327.415213 233.538584 
L 327.582613 232.169445 
L 327.750013 226.606483 
L 328.084813 237.314154 
L 328.419613 228.583139 
L 328.754413 239.490331 
L 328.921813 229.275321 
L 329.089213 236.139193 
L 329.256613 238.152142 
L 329.424013 228.064478 
L 329.591413 233.784863 
L 329.926213 230.663399 
L 330.093613 235.669279 
L 330.261013 227.108478 
L 330.428413 230.71152 
L 330.595813 238.596002 
L 330.763213 230.2254 
L 330.930613 237.106516 
L 331.098013 233.224942 
L 331.265413 233.281993 
L 331.432813 243.556364 
L 331.600213 232.211833 
L 331.767613 229.897567 
L 331.935013 235.793741 
L 332.102413 235.342225 
L 332.269813 231.466695 
L 332.437213 233.734358 
L 332.604613 230.512891 
L 332.772013 230.343728 
L 332.939413 233.844185 
L 333.106813 234.21101 
L 333.274213 231.866093 
L 333.441613 227.46094 
L 333.776413 234.427108 
L 334.111213 227.888894 
L 334.278613 233.417283 
L 334.613413 230.950097 
L 334.780813 233.982893 
L 334.948213 228.964903 
L 335.115613 228.724576 
L 335.283013 236.146932 
L 335.617813 233.177541 
L 335.785213 240.008013 
L 335.952613 230.45591 
L 336.120013 231.767595 
L 336.287413 240.314089 
L 336.454813 231.333841 
L 336.789613 232.682395 
L 336.957013 234.127592 
L 337.124413 230.161693 
L 337.291813 232.345123 
L 337.459213 231.36862 
L 337.626613 231.717987 
L 337.794013 233.85075 
L 337.961413 228.850651 
L 338.128813 235.546432 
L 338.296213 236.381547 
L 338.463613 235.873193 
L 338.631012 230.161821 
L 338.798413 231.755077 
L 338.965813 234.726821 
L 339.133213 235.548779 
L 339.300612 228.338861 
L 339.468013 236.763023 
L 339.635413 235.681913 
L 339.802813 236.500232 
L 339.970213 236.318722 
L 340.137613 226.616857 
L 340.305013 236.954013 
L 340.472413 234.425435 
L 340.639813 227.911453 
L 340.807213 236.217236 
L 340.974613 222.823127 
L 341.309413 232.690354 
L 341.476813 225.947242 
L 341.644213 226.261011 
L 341.811613 236.491497 
L 341.979013 230.313316 
L 342.146413 234.044149 
L 342.313813 228.469548 
L 342.481213 229.642855 
L 342.648613 232.421404 
L 342.816013 230.930215 
L 342.983413 234.821908 
L 343.318213 228.204022 
L 343.485613 237.961445 
L 343.653013 236.211654 
L 343.820413 225.748994 
L 343.987813 238.487291 
L 344.155213 238.533083 
L 344.322613 226.322507 
L 344.490013 236.96514 
L 344.657413 238.38908 
L 344.824813 232.591585 
L 344.992213 234.238389 
L 345.327013 229.249956 
L 345.494413 233.893551 
L 345.661813 234.519482 
L 345.829213 228.266876 
L 345.996613 237.702736 
L 346.331413 231.955394 
L 346.833613 238.439232 
L 347.001013 228.74719 
L 347.168413 226.303672 
L 347.335813 239.20831 
L 347.670613 226.05678 
L 347.838013 236.075074 
L 348.172813 231.647801 
L 348.340213 230.44299 
L 348.507613 226.936049 
L 348.675013 233.772832 
L 349.009813 230.79053 
L 349.177213 229.601598 
L 349.344613 230.454273 
L 349.512013 236.160411 
L 349.846813 225.552286 
L 350.014213 233.414953 
L 350.181613 232.287521 
L 350.349013 234.04 
L 350.516413 230.114617 
L 350.683813 231.038814 
L 350.851213 235.079127 
L 351.018613 229.711772 
L 351.186013 238.536684 
L 351.520813 232.620497 
L 351.688213 233.239192 
L 352.023013 235.373221 
L 352.190413 233.58635 
L 352.357813 229.449279 
L 352.860013 235.822348 
L 353.027413 231.2273 
L 353.194813 234.27645 
L 353.362213 234.548166 
L 353.529613 231.106251 
L 353.864413 233.644749 
L 354.031813 232.287138 
L 354.199213 234.048204 
L 354.534013 228.999818 
L 354.701413 233.704748 
L 354.868813 229.499277 
L 355.036213 230.662204 
L 355.203613 241.190219 
L 355.371013 228.231496 
L 355.705813 237.805211 
L 355.873213 232.408739 
L 356.208013 233.439076 
L 356.375413 238.553526 
L 356.710213 226.837834 
L 357.045013 235.44484 
L 357.379813 227.962164 
L 357.547213 231.614442 
L 357.714613 232.74088 
L 358.049413 229.908795 
L 358.216813 232.593506 
L 358.384213 231.708263 
L 358.551613 232.912967 
L 358.719013 235.373325 
L 359.053813 228.421883 
L 359.221213 238.085039 
L 359.388613 236.996745 
L 359.556013 231.032989 
L 359.723413 236.398507 
L 359.890813 233.438929 
L 360.058213 234.39951 
L 360.393013 233.166755 
L 360.560413 234.925299 
L 360.727813 227.121966 
L 360.895213 234.938556 
L 361.062613 232.852791 
L 361.230013 227.993881 
L 361.397413 234.928783 
L 361.564813 228.930492 
L 361.732213 229.402808 
L 361.899613 240.649725 
L 362.234413 227.268481 
L 362.401813 236.263847 
L 362.569213 231.035285 
L 362.736613 233.246493 
L 362.904013 231.629893 
L 363.071413 231.875744 
L 363.238813 233.981274 
L 363.406213 232.639244 
L 363.573613 239.210414 
L 363.741013 236.535972 
L 363.908412 231.83119 
L 364.075813 231.509304 
L 364.243213 237.492705 
L 364.410613 230.420969 
L 364.578012 234.588382 
L 364.745413 235.24203 
L 364.912813 233.560208 
L 365.080213 236.593253 
L 365.247613 230.943102 
L 365.415013 231.443284 
L 365.582413 235.703584 
L 365.749813 228.687097 
L 365.917213 231.535595 
L 366.252013 238.435817 
L 366.586813 230.451864 
L 366.754213 237.233763 
L 366.921613 236.680764 
L 367.089013 233.605481 
L 367.256413 236.321976 
L 367.423813 233.206361 
L 367.591213 234.068044 
L 367.758613 231.465558 
L 367.926013 231.180244 
L 368.093413 234.883446 
L 368.260813 228.525366 
L 368.428213 233.63405 
L 368.595613 233.746347 
L 368.763013 232.020611 
L 368.930413 234.548032 
L 369.265213 229.153149 
L 369.432613 234.213444 
L 369.600013 227.044731 
L 369.767413 240.299868 
L 369.934813 229.269278 
L 370.269613 234.60573 
L 370.437013 230.763167 
L 370.604413 237.010261 
L 370.771813 235.250892 
L 370.939213 231.283645 
L 371.106613 236.667848 
L 371.274013 230.591283 
L 371.608813 235.834042 
L 371.776213 227.324146 
L 371.943613 238.347246 
L 372.111013 235.194968 
L 372.278413 229.84908 
L 372.445813 235.23589 
L 372.613213 230.601909 
L 372.780613 236.830897 
L 372.948013 237.282697 
L 373.115413 228.264392 
L 373.282813 228.130602 
L 373.282813 228.130602 
" clip-path="url(#pf168a9ed54)" style="fill: none; stroke: #1f77b4; stroke-width: 1.5; stroke-linecap: square"/>
   </g>
   <g id="line2d_17">
    <path d="M 38.650213 55.135798 
L 39.319813 61.358944 
L 39.989413 65.530444 
L 40.659013 68.326683 
L 41.328612 70.201059 
L 41.998213 71.457491 
L 42.667813 72.299702 
L 43.504812 72.973487 
L 44.509213 73.442108 
L 45.681013 73.729062 
L 47.522413 73.9179 
L 51.037813 74.000585 
L 69.619213 74.012123 
L 373.282813 74.012123 
L 373.282813 74.012123 
" clip-path="url(#pf168a9ed54)" style="fill: none; stroke: #ff7f0e; stroke-width: 1.5; stroke-linecap: square"/>
   </g>
   <g id="patch_3">
    <path d="M 38.482813 253.44 
L 38.482813 36 
" style="fill: none; stroke: #000000; stroke-width: 0.8; stroke-linejoin: miter; stroke-linecap: square"/>
   </g>
   <g id="patch_4">
    <path d="M 373.282813 253.44 
L 373.282813 36 
" style="fill: none; stroke: #000000; stroke-width: 0.8; stroke-linejoin: miter; stroke-linecap: square"/>
   </g>
   <g id="patch_5">
    <path d="M 38.482813 253.44 
L 373.282813 253.44 
" style="fill: none; stroke: #000000; stroke-width: 0.8; stroke-linejoin: miter; stroke-linecap: square"/>
   </g>
   <g id="patch_6">
    <path d="M 38.482813 36 
L 373.282813 36 
" style="fill: none; stroke: #000000; stroke-width: 0.8; stroke-linejoin: miter; stroke-linecap: square"/>
   </g>
   <g id="legend_1">
    <g id="patch_7">
     <path d="M 45.482813 248.44 
L 95.182813 248.44 
Q 97.182813 248.44 97.182813 246.44 
L 97.182813 214.361875 
Q 97.182813 212.361875 95.182813 212.361875 
L 45.482813 212.361875 
Q 43.482813 212.361875 43.482813 214.361875 
L 43.482813 246.44 
Q 43.482813 248.44 45.482813 248.44 
z
" style="fill: #ffffff; opacity: 0.8; stroke: #cccccc; stroke-linejoin: miter"/>
    </g>
    <g id="line2d_18">
     <path d="M 47.482813 224.161875 
L 57.482813 224.161875 
L 67.482812 224.161875 
" style="fill: none; stroke: #1f77b4; stroke-width: 1.5; stroke-linecap: square"/>
    </g>
    <g id="text_17">
     <!-- $\hat{y(t)}$ -->
     <g transform="translate(75.482812 227.661875) scale(0.1 -0.1)">
      <defs>
       <path id="DejaVuSans-302" d="M -1831 5119 
L -1369 5119 
L -603 3944 
L -1038 3944 
L -1600 4709 
L -2163 3944 
L -2597 3944 
L -1831 5119 
z
M -1600 3584 
L -1600 3584 
z
" transform="scale(0.015625)"/>
       <path id="DejaVuSans-Oblique-79" d="M 1588 -325 
Q 1188 -997 936 -1164 
Q 684 -1331 294 -1331 
L -159 -1331 
L -63 -850 
L 269 -850 
Q 509 -850 678 -719 
Q 847 -588 1056 -206 
L 1234 128 
L 459 3500 
L 1069 3500 
L 1650 819 
L 3256 3500 
L 3859 3500 
L 1588 -325 
z
" transform="scale(0.015625)"/>
       <path id="DejaVuSans-28" d="M 1984 4856 
Q 1566 4138 1362 3434 
Q 1159 2731 1159 2009 
Q 1159 1288 1364 580 
Q 1569 -128 1984 -844 
L 1484 -844 
Q 1016 -109 783 600 
Q 550 1309 550 2009 
Q 550 2706 781 3412 
Q 1013 4119 1484 4856 
L 1984 4856 
z
" transform="scale(0.015625)"/>
       <path id="DejaVuSans-29" d="M 513 4856 
L 1013 4856 
Q 1481 4119 1714 3412 
Q 1947 2706 1947 2009 
Q 1947 1309 1714 600 
Q 1481 -109 1013 -844 
L 513 -844 
Q 928 -128 1133 580 
Q 1338 1288 1338 2009 
Q 1338 2731 1133 3434 
Q 928 4138 513 4856 
z
" transform="scale(0.015625)"/>
      </defs>
      <use xlink:href="#DejaVuSans-302" transform="translate(135.682129 33.015625)"/>
      <use xlink:href="#DejaVuSans-Oblique-79" transform="translate(0 0.640625)"/>
      <use xlink:href="#DejaVuSans-28" transform="translate(59.179688 0.640625)"/>
      <use xlink:href="#DejaVuSans-Oblique-74" transform="translate(98.193359 0.640625)"/>
      <use xlink:href="#DejaVuSans-29" transform="translate(137.402344 0.640625)"/>
     </g>
    </g>
    <g id="line2d_19">
     <path d="M 47.482813 238.860312 
L 57.482813 238.860312 
L 67.482812 238.860312 
" style="fill: none; stroke: #ff7f0e; stroke-width: 1.5; stroke-linecap: square"/>
    </g>
    <g id="text_18">
     <!-- $x(t)$ -->
     <g transform="translate(75.482812 242.360312) scale(0.1 -0.1)">
      <defs>
       <path id="DejaVuSans-Oblique-78" d="M 3841 3500 
L 2234 1784 
L 3219 0 
L 2559 0 
L 1819 1388 
L 531 0 
L -166 0 
L 1556 1844 
L 641 3500 
L 1300 3500 
L 1972 2234 
L 3144 3500 
L 3841 3500 
z
" transform="scale(0.015625)"/>
      </defs>
      <use xlink:href="#DejaVuSans-Oblique-78" transform="translate(0 0.125)"/>
      <use xlink:href="#DejaVuSans-28" transform="translate(59.179688 0.125)"/>
      <use xlink:href="#DejaVuSans-Oblique-74" transform="translate(98.193359 0.125)"/>
      <use xlink:href="#DejaVuSans-29" transform="translate(137.402344 0.125)"/>
     </g>
    </g>
   </g>
  </g>
  <g id="text_19">
   <!-- Accumulate to Threshold model with input of -0.1 with rms=3  -->
   <g transform="translate(13.149687 16.318125) scale(0.12 -0.12)">
    <defs>
     <path id="DejaVuSans-41" d="M 2188 4044 
L 1331 1722 
L 3047 1722 
L 2188 4044 
z
M 1831 4666 
L 2547 4666 
L 4325 0 
L 3669 0 
L 3244 1197 
L 1141 1197 
L 716 0 
L 50 0 
L 1831 4666 
z
" transform="scale(0.015625)"/>
     <path id="DejaVuSans-63" d="M 3122 3366 
L 3122 2828 
Q 2878 2963 2633 3030 
Q 2388 3097 2138 3097 
Q 1578 3097 1268 2742 
Q 959 2388 959 1747 
Q 959 1106 1268 751 
Q 1578 397 2138 397 
Q 2388 397 2633 464 
Q 2878 531 3122 666 
L 3122 134 
Q 2881 22 2623 -34 
Q 2366 -91 2075 -91 
Q 1284 -91 818 406 
Q 353 903 353 1747 
Q 353 2603 823 3093 
Q 1294 3584 2113 3584 
Q 2378 3584 2631 3529 
Q 2884 3475 3122 3366 
z
" transform="scale(0.015625)"/>
     <path id="DejaVuSans-75" d="M 544 1381 
L 544 3500 
L 1119 3500 
L 1119 1403 
Q 1119 906 1312 657 
Q 1506 409 1894 409 
Q 2359 409 2629 706 
Q 2900 1003 2900 1516 
L 2900 3500 
L 3475 3500 
L 3475 0 
L 2900 0 
L 2900 538 
Q 2691 219 2414 64 
Q 2138 -91 1772 -91 
Q 1169 -91 856 284 
Q 544 659 544 1381 
z
M 1991 3584 
L 1991 3584 
z
" transform="scale(0.015625)"/>
     <path id="DejaVuSans-6d" d="M 3328 2828 
Q 3544 3216 3844 3400 
Q 4144 3584 4550 3584 
Q 5097 3584 5394 3201 
Q 5691 2819 5691 2113 
L 5691 0 
L 5113 0 
L 5113 2094 
Q 5113 2597 4934 2840 
Q 4756 3084 4391 3084 
Q 3944 3084 3684 2787 
Q 3425 2491 3425 1978 
L 3425 0 
L 2847 0 
L 2847 2094 
Q 2847 2600 2669 2842 
Q 2491 3084 2119 3084 
Q 1678 3084 1418 2786 
Q 1159 2488 1159 1978 
L 1159 0 
L 581 0 
L 581 3500 
L 1159 3500 
L 1159 2956 
Q 1356 3278 1631 3431 
Q 1906 3584 2284 3584 
Q 2666 3584 2933 3390 
Q 3200 3197 3328 2828 
z
" transform="scale(0.015625)"/>
     <path id="DejaVuSans-6c" d="M 603 4863 
L 1178 4863 
L 1178 0 
L 603 0 
L 603 4863 
z
" transform="scale(0.015625)"/>
     <path id="DejaVuSans-61" d="M 2194 1759 
Q 1497 1759 1228 1600 
Q 959 1441 959 1056 
Q 959 750 1161 570 
Q 1363 391 1709 391 
Q 2188 391 2477 730 
Q 2766 1069 2766 1631 
L 2766 1759 
L 2194 1759 
z
M 3341 1997 
L 3341 0 
L 2766 0 
L 2766 531 
Q 2569 213 2275 61 
Q 1981 -91 1556 -91 
Q 1019 -91 701 211 
Q 384 513 384 1019 
Q 384 1609 779 1909 
Q 1175 2209 1959 2209 
L 2766 2209 
L 2766 2266 
Q 2766 2663 2505 2880 
Q 2244 3097 1772 3097 
Q 1472 3097 1187 3025 
Q 903 2953 641 2809 
L 641 3341 
Q 956 3463 1253 3523 
Q 1550 3584 1831 3584 
Q 2591 3584 2966 3190 
Q 3341 2797 3341 1997 
z
" transform="scale(0.015625)"/>
     <path id="DejaVuSans-74" d="M 1172 4494 
L 1172 3500 
L 2356 3500 
L 2356 3053 
L 1172 3053 
L 1172 1153 
Q 1172 725 1289 603 
Q 1406 481 1766 481 
L 2356 481 
L 2356 0 
L 1766 0 
Q 1100 0 847 248 
Q 594 497 594 1153 
L 594 3053 
L 172 3053 
L 172 3500 
L 594 3500 
L 594 4494 
L 1172 4494 
z
" transform="scale(0.015625)"/>
     <path id="DejaVuSans-65" d="M 3597 1894 
L 3597 1613 
L 953 1613 
Q 991 1019 1311 708 
Q 1631 397 2203 397 
Q 2534 397 2845 478 
Q 3156 559 3463 722 
L 3463 178 
Q 3153 47 2828 -22 
Q 2503 -91 2169 -91 
Q 1331 -91 842 396 
Q 353 884 353 1716 
Q 353 2575 817 3079 
Q 1281 3584 2069 3584 
Q 2775 3584 3186 3129 
Q 3597 2675 3597 1894 
z
M 3022 2063 
Q 3016 2534 2758 2815 
Q 2500 3097 2075 3097 
Q 1594 3097 1305 2825 
Q 1016 2553 972 2059 
L 3022 2063 
z
" transform="scale(0.015625)"/>
     <path id="DejaVuSans-20" transform="scale(0.015625)"/>
     <path id="DejaVuSans-6f" d="M 1959 3097 
Q 1497 3097 1228 2736 
Q 959 2375 959 1747 
Q 959 1119 1226 758 
Q 1494 397 1959 397 
Q 2419 397 2687 759 
Q 2956 1122 2956 1747 
Q 2956 2369 2687 2733 
Q 2419 3097 1959 3097 
z
M 1959 3584 
Q 2709 3584 3137 3096 
Q 3566 2609 3566 1747 
Q 3566 888 3137 398 
Q 2709 -91 1959 -91 
Q 1206 -91 779 398 
Q 353 888 353 1747 
Q 353 2609 779 3096 
Q 1206 3584 1959 3584 
z
" transform="scale(0.015625)"/>
     <path id="DejaVuSans-54" d="M -19 4666 
L 3928 4666 
L 3928 4134 
L 2272 4134 
L 2272 0 
L 1638 0 
L 1638 4134 
L -19 4134 
L -19 4666 
z
" transform="scale(0.015625)"/>
     <path id="DejaVuSans-68" d="M 3513 2113 
L 3513 0 
L 2938 0 
L 2938 2094 
Q 2938 2591 2744 2837 
Q 2550 3084 2163 3084 
Q 1697 3084 1428 2787 
Q 1159 2491 1159 1978 
L 1159 0 
L 581 0 
L 581 4863 
L 1159 4863 
L 1159 2956 
Q 1366 3272 1645 3428 
Q 1925 3584 2291 3584 
Q 2894 3584 3203 3211 
Q 3513 2838 3513 2113 
z
" transform="scale(0.015625)"/>
     <path id="DejaVuSans-72" d="M 2631 2963 
Q 2534 3019 2420 3045 
Q 2306 3072 2169 3072 
Q 1681 3072 1420 2755 
Q 1159 2438 1159 1844 
L 1159 0 
L 581 0 
L 581 3500 
L 1159 3500 
L 1159 2956 
Q 1341 3275 1631 3429 
Q 1922 3584 2338 3584 
Q 2397 3584 2469 3576 
Q 2541 3569 2628 3553 
L 2631 2963 
z
" transform="scale(0.015625)"/>
     <path id="DejaVuSans-73" d="M 2834 3397 
L 2834 2853 
Q 2591 2978 2328 3040 
Q 2066 3103 1784 3103 
Q 1356 3103 1142 2972 
Q 928 2841 928 2578 
Q 928 2378 1081 2264 
Q 1234 2150 1697 2047 
L 1894 2003 
Q 2506 1872 2764 1633 
Q 3022 1394 3022 966 
Q 3022 478 2636 193 
Q 2250 -91 1575 -91 
Q 1294 -91 989 -36 
Q 684 19 347 128 
L 347 722 
Q 666 556 975 473 
Q 1284 391 1588 391 
Q 1994 391 2212 530 
Q 2431 669 2431 922 
Q 2431 1156 2273 1281 
Q 2116 1406 1581 1522 
L 1381 1569 
Q 847 1681 609 1914 
Q 372 2147 372 2553 
Q 372 3047 722 3315 
Q 1072 3584 1716 3584 
Q 2034 3584 2315 3537 
Q 2597 3491 2834 3397 
z
" transform="scale(0.015625)"/>
     <path id="DejaVuSans-64" d="M 2906 2969 
L 2906 4863 
L 3481 4863 
L 3481 0 
L 2906 0 
L 2906 525 
Q 2725 213 2448 61 
Q 2172 -91 1784 -91 
Q 1150 -91 751 415 
Q 353 922 353 1747 
Q 353 2572 751 3078 
Q 1150 3584 1784 3584 
Q 2172 3584 2448 3432 
Q 2725 3281 2906 2969 
z
M 947 1747 
Q 947 1113 1208 752 
Q 1469 391 1925 391 
Q 2381 391 2643 752 
Q 2906 1113 2906 1747 
Q 2906 2381 2643 2742 
Q 2381 3103 1925 3103 
Q 1469 3103 1208 2742 
Q 947 2381 947 1747 
z
" transform="scale(0.015625)"/>
     <path id="DejaVuSans-77" d="M 269 3500 
L 844 3500 
L 1563 769 
L 2278 3500 
L 2956 3500 
L 3675 769 
L 4391 3500 
L 4966 3500 
L 4050 0 
L 3372 0 
L 2619 2869 
L 1863 0 
L 1184 0 
L 269 3500 
z
" transform="scale(0.015625)"/>
     <path id="DejaVuSans-69" d="M 603 3500 
L 1178 3500 
L 1178 0 
L 603 0 
L 603 3500 
z
M 603 4863 
L 1178 4863 
L 1178 4134 
L 603 4134 
L 603 4863 
z
" transform="scale(0.015625)"/>
     <path id="DejaVuSans-6e" d="M 3513 2113 
L 3513 0 
L 2938 0 
L 2938 2094 
Q 2938 2591 2744 2837 
Q 2550 3084 2163 3084 
Q 1697 3084 1428 2787 
Q 1159 2491 1159 1978 
L 1159 0 
L 581 0 
L 581 3500 
L 1159 3500 
L 1159 2956 
Q 1366 3272 1645 3428 
Q 1925 3584 2291 3584 
Q 2894 3584 3203 3211 
Q 3513 2838 3513 2113 
z
" transform="scale(0.015625)"/>
     <path id="DejaVuSans-70" d="M 1159 525 
L 1159 -1331 
L 581 -1331 
L 581 3500 
L 1159 3500 
L 1159 2969 
Q 1341 3281 1617 3432 
Q 1894 3584 2278 3584 
Q 2916 3584 3314 3078 
Q 3713 2572 3713 1747 
Q 3713 922 3314 415 
Q 2916 -91 2278 -91 
Q 1894 -91 1617 61 
Q 1341 213 1159 525 
z
M 3116 1747 
Q 3116 2381 2855 2742 
Q 2594 3103 2138 3103 
Q 1681 3103 1420 2742 
Q 1159 2381 1159 1747 
Q 1159 1113 1420 752 
Q 1681 391 2138 391 
Q 2594 391 2855 752 
Q 3116 1113 3116 1747 
z
" transform="scale(0.015625)"/>
     <path id="DejaVuSans-66" d="M 2375 4863 
L 2375 4384 
L 1825 4384 
Q 1516 4384 1395 4259 
Q 1275 4134 1275 3809 
L 1275 3500 
L 2222 3500 
L 2222 3053 
L 1275 3053 
L 1275 0 
L 697 0 
L 697 3053 
L 147 3053 
L 147 3500 
L 697 3500 
L 697 3744 
Q 697 4328 969 4595 
Q 1241 4863 1831 4863 
L 2375 4863 
z
" transform="scale(0.015625)"/>
     <path id="DejaVuSans-2d" d="M 313 2009 
L 1997 2009 
L 1997 1497 
L 313 1497 
L 313 2009 
z
" transform="scale(0.015625)"/>
     <path id="DejaVuSans-3d" d="M 678 2906 
L 4684 2906 
L 4684 2381 
L 678 2381 
L 678 2906 
z
M 678 1631 
L 4684 1631 
L 4684 1100 
L 678 1100 
L 678 1631 
z
" transform="scale(0.015625)"/>
     <path id="DejaVuSans-33" d="M 2597 2516 
Q 3050 2419 3304 2112 
Q 3559 1806 3559 1356 
Q 3559 666 3084 287 
Q 2609 -91 1734 -91 
Q 1441 -91 1130 -33 
Q 819 25 488 141 
L 488 750 
Q 750 597 1062 519 
Q 1375 441 1716 441 
Q 2309 441 2620 675 
Q 2931 909 2931 1356 
Q 2931 1769 2642 2001 
Q 2353 2234 1838 2234 
L 1294 2234 
L 1294 2753 
L 1863 2753 
Q 2328 2753 2575 2939 
Q 2822 3125 2822 3475 
Q 2822 3834 2567 4026 
Q 2313 4219 1838 4219 
Q 1578 4219 1281 4162 
Q 984 4106 628 3988 
L 628 4550 
Q 988 4650 1302 4700 
Q 1616 4750 1894 4750 
Q 2613 4750 3031 4423 
Q 3450 4097 3450 3541 
Q 3450 3153 3228 2886 
Q 3006 2619 2597 2516 
z
" transform="scale(0.015625)"/>
    </defs>
    <use xlink:href="#DejaVuSans-41"/>
    <use xlink:href="#DejaVuSans-63" x="66.658203"/>
    <use xlink:href="#DejaVuSans-63" x="121.638672"/>
    <use xlink:href="#DejaVuSans-75" x="176.619141"/>
    <use xlink:href="#DejaVuSans-6d" x="239.998047"/>
    <use xlink:href="#DejaVuSans-75" x="337.410156"/>
    <use xlink:href="#DejaVuSans-6c" x="400.789062"/>
    <use xlink:href="#DejaVuSans-61" x="428.572266"/>
    <use xlink:href="#DejaVuSans-74" x="489.851562"/>
    <use xlink:href="#DejaVuSans-65" x="529.060547"/>
    <use xlink:href="#DejaVuSans-20" x="590.583984"/>
    <use xlink:href="#DejaVuSans-74" x="622.371094"/>
    <use xlink:href="#DejaVuSans-6f" x="661.580078"/>
    <use xlink:href="#DejaVuSans-20" x="722.761719"/>
    <use xlink:href="#DejaVuSans-54" x="754.548828"/>
    <use xlink:href="#DejaVuSans-68" x="815.632812"/>
    <use xlink:href="#DejaVuSans-72" x="879.011719"/>
    <use xlink:href="#DejaVuSans-65" x="917.875"/>
    <use xlink:href="#DejaVuSans-73" x="979.398438"/>
    <use xlink:href="#DejaVuSans-68" x="1031.498047"/>
    <use xlink:href="#DejaVuSans-6f" x="1094.876953"/>
    <use xlink:href="#DejaVuSans-6c" x="1156.058594"/>
    <use xlink:href="#DejaVuSans-64" x="1183.841797"/>
    <use xlink:href="#DejaVuSans-20" x="1247.318359"/>
    <use xlink:href="#DejaVuSans-6d" x="1279.105469"/>
    <use xlink:href="#DejaVuSans-6f" x="1376.517578"/>
    <use xlink:href="#DejaVuSans-64" x="1437.699219"/>
    <use xlink:href="#DejaVuSans-65" x="1501.175781"/>
    <use xlink:href="#DejaVuSans-6c" x="1562.699219"/>
    <use xlink:href="#DejaVuSans-20" x="1590.482422"/>
    <use xlink:href="#DejaVuSans-77" x="1622.269531"/>
    <use xlink:href="#DejaVuSans-69" x="1704.056641"/>
    <use xlink:href="#DejaVuSans-74" x="1731.839844"/>
    <use xlink:href="#DejaVuSans-68" x="1771.048828"/>
    <use xlink:href="#DejaVuSans-20" x="1834.427734"/>
    <use xlink:href="#DejaVuSans-69" x="1866.214844"/>
    <use xlink:href="#DejaVuSans-6e" x="1893.998047"/>
    <use xlink:href="#DejaVuSans-70" x="1957.376953"/>
    <use xlink:href="#DejaVuSans-75" x="2020.853516"/>
    <use xlink:href="#DejaVuSans-74" x="2084.232422"/>
    <use xlink:href="#DejaVuSans-20" x="2123.441406"/>
    <use xlink:href="#DejaVuSans-6f" x="2155.228516"/>
    <use xlink:href="#DejaVuSans-66" x="2216.410156"/>
    <use xlink:href="#DejaVuSans-20" x="2251.615234"/>
    <use xlink:href="#DejaVuSans-2d" x="2283.402344"/>
    <use xlink:href="#DejaVuSans-30" x="2319.486328"/>
    <use xlink:href="#DejaVuSans-2e" x="2383.109375"/>
    <use xlink:href="#DejaVuSans-31" x="2414.896484"/>
    <use xlink:href="#DejaVuSans-20" x="2478.519531"/>
    <use xlink:href="#DejaVuSans-77" x="2510.306641"/>
    <use xlink:href="#DejaVuSans-69" x="2592.09375"/>
    <use xlink:href="#DejaVuSans-74" x="2619.876953"/>
    <use xlink:href="#DejaVuSans-68" x="2659.085938"/>
    <use xlink:href="#DejaVuSans-20" x="2722.464844"/>
    <use xlink:href="#DejaVuSans-72" x="2754.251953"/>
    <use xlink:href="#DejaVuSans-6d" x="2793.615234"/>
    <use xlink:href="#DejaVuSans-73" x="2891.027344"/>
    <use xlink:href="#DejaVuSans-3d" x="2943.126953"/>
    <use xlink:href="#DejaVuSans-33" x="3026.916016"/>
    <use xlink:href="#DejaVuSans-20" x="3090.539062"/>
   </g>
  </g>
 </g>
 <defs>
  <clipPath id="pf168a9ed54">
   <rect x="38.482813" y="36" width="334.8" height="217.44"/>
  </clipPath>
 </defs>
</svg>
