<?xml version="1.0" encoding="utf-8" standalone="no"?>
<!DOCTYPE svg PUBLIC "-//W3C//DTD SVG 1.1//EN"
  "http://www.w3.org/Graphics/SVG/1.1/DTD/svg11.dtd">
<svg xmlns:xlink="http://www.w3.org/1999/xlink" width="398.833437pt" height="277.318125pt" viewBox="0 0 398.833437 277.318125" xmlns="http://www.w3.org/2000/svg" version="1.1">
 <metadata>
  <rdf:RDF xmlns:dc="http://purl.org/dc/elements/1.1/" xmlns:cc="http://creativecommons.org/ns#" xmlns:rdf="http://www.w3.org/1999/02/22-rdf-syntax-ns#">
   <cc:Work>
    <dc:type rdf:resource="http://purl.org/dc/dcmitype/StillImage"/>
    <dc:date>2022-11-17T20:29:57.950919</dc:date>
    <dc:format>image/svg+xml</dc:format>
    <dc:creator>
     <cc:Agent>
      <dc:title>Matplotlib v3.6.0, https://matplotlib.org/</dc:title>
     </cc:Agent>
    </dc:creator>
   </cc:Work>
  </rdf:RDF>
 </metadata>
 <defs>
  <style type="text/css">*{stroke-linejoin: round; stroke-linecap: butt}</style>
 </defs>
 <g id="figure_1">
  <g id="patch_1">
   <path d="M -0 277.318125 
L 398.833437 277.318125 
L 398.833437 0 
L -0 0 
L -0 277.318125 
z
" style="fill: none"/>
  </g>
  <g id="axes_1">
   <g id="patch_2">
    <path d="M 38.482813 253.44 
L 373.282813 253.44 
L 373.282813 36 
L 38.482813 36 
z
" style="fill: #ffffff"/>
   </g>
   <g id="matplotlib.axis_1">
    <g id="xtick_1">
     <g id="line2d_1">
      <defs>
       <path id="m0671378be8" d="M 0 0 
L 0 3.5 
" style="stroke: #000000; stroke-width: 0.8"/>
      </defs>
      <g>
       <use xlink:href="#m0671378be8" x="38.482813" y="253.44" style="stroke: #000000; stroke-width: 0.8"/>
      </g>
     </g>
     <g id="text_1">
      <!-- 0.00 -->
      <g transform="translate(27.35 268.038437) scale(0.1 -0.1)">
       <defs>
        <path id="DejaVuSans-30" d="M 2034 4250 
Q 1547 4250 1301 3770 
Q 1056 3291 1056 2328 
Q 1056 1369 1301 889 
Q 1547 409 2034 409 
Q 2525 409 2770 889 
Q 3016 1369 3016 2328 
Q 3016 3291 2770 3770 
Q 2525 4250 2034 4250 
z
M 2034 4750 
Q 2819 4750 3233 4129 
Q 3647 3509 3647 2328 
Q 3647 1150 3233 529 
Q 2819 -91 2034 -91 
Q 1250 -91 836 529 
Q 422 1150 422 2328 
Q 422 3509 836 4129 
Q 1250 4750 2034 4750 
z
" transform="scale(0.015625)"/>
        <path id="DejaVuSans-2e" d="M 684 794 
L 1344 794 
L 1344 0 
L 684 0 
L 684 794 
z
" transform="scale(0.015625)"/>
       </defs>
       <use xlink:href="#DejaVuSans-30"/>
       <use xlink:href="#DejaVuSans-2e" x="63.623047"/>
       <use xlink:href="#DejaVuSans-30" x="95.410156"/>
       <use xlink:href="#DejaVuSans-30" x="159.033203"/>
      </g>
     </g>
    </g>
    <g id="xtick_2">
     <g id="line2d_2">
      <g>
       <use xlink:href="#m0671378be8" x="80.332813" y="253.44" style="stroke: #000000; stroke-width: 0.8"/>
      </g>
     </g>
     <g id="text_2">
      <!-- 0.25 -->
      <g transform="translate(69.2 268.038437) scale(0.1 -0.1)">
       <defs>
        <path id="DejaVuSans-32" d="M 1228 531 
L 3431 531 
L 3431 0 
L 469 0 
L 469 531 
Q 828 903 1448 1529 
Q 2069 2156 2228 2338 
Q 2531 2678 2651 2914 
Q 2772 3150 2772 3378 
Q 2772 3750 2511 3984 
Q 2250 4219 1831 4219 
Q 1534 4219 1204 4116 
Q 875 4013 500 3803 
L 500 4441 
Q 881 4594 1212 4672 
Q 1544 4750 1819 4750 
Q 2544 4750 2975 4387 
Q 3406 4025 3406 3419 
Q 3406 3131 3298 2873 
Q 3191 2616 2906 2266 
Q 2828 2175 2409 1742 
Q 1991 1309 1228 531 
z
" transform="scale(0.015625)"/>
        <path id="DejaVuSans-35" d="M 691 4666 
L 3169 4666 
L 3169 4134 
L 1269 4134 
L 1269 2991 
Q 1406 3038 1543 3061 
Q 1681 3084 1819 3084 
Q 2600 3084 3056 2656 
Q 3513 2228 3513 1497 
Q 3513 744 3044 326 
Q 2575 -91 1722 -91 
Q 1428 -91 1123 -41 
Q 819 9 494 109 
L 494 744 
Q 775 591 1075 516 
Q 1375 441 1709 441 
Q 2250 441 2565 725 
Q 2881 1009 2881 1497 
Q 2881 1984 2565 2268 
Q 2250 2553 1709 2553 
Q 1456 2553 1204 2497 
Q 953 2441 691 2322 
L 691 4666 
z
" transform="scale(0.015625)"/>
       </defs>
       <use xlink:href="#DejaVuSans-30"/>
       <use xlink:href="#DejaVuSans-2e" x="63.623047"/>
       <use xlink:href="#DejaVuSans-32" x="95.410156"/>
       <use xlink:href="#DejaVuSans-35" x="159.033203"/>
      </g>
     </g>
    </g>
    <g id="xtick_3">
     <g id="line2d_3">
      <g>
       <use xlink:href="#m0671378be8" x="122.182813" y="253.44" style="stroke: #000000; stroke-width: 0.8"/>
      </g>
     </g>
     <g id="text_3">
      <!-- 0.50 -->
      <g transform="translate(111.05 268.038437) scale(0.1 -0.1)">
       <use xlink:href="#DejaVuSans-30"/>
       <use xlink:href="#DejaVuSans-2e" x="63.623047"/>
       <use xlink:href="#DejaVuSans-35" x="95.410156"/>
       <use xlink:href="#DejaVuSans-30" x="159.033203"/>
      </g>
     </g>
    </g>
    <g id="xtick_4">
     <g id="line2d_4">
      <g>
       <use xlink:href="#m0671378be8" x="164.032813" y="253.44" style="stroke: #000000; stroke-width: 0.8"/>
      </g>
     </g>
     <g id="text_4">
      <!-- 0.75 -->
      <g transform="translate(152.9 268.038437) scale(0.1 -0.1)">
       <defs>
        <path id="DejaVuSans-37" d="M 525 4666 
L 3525 4666 
L 3525 4397 
L 1831 0 
L 1172 0 
L 2766 4134 
L 525 4134 
L 525 4666 
z
" transform="scale(0.015625)"/>
       </defs>
       <use xlink:href="#DejaVuSans-30"/>
       <use xlink:href="#DejaVuSans-2e" x="63.623047"/>
       <use xlink:href="#DejaVuSans-37" x="95.410156"/>
       <use xlink:href="#DejaVuSans-35" x="159.033203"/>
      </g>
     </g>
    </g>
    <g id="xtick_5">
     <g id="line2d_5">
      <g>
       <use xlink:href="#m0671378be8" x="205.882812" y="253.44" style="stroke: #000000; stroke-width: 0.8"/>
      </g>
     </g>
     <g id="text_5">
      <!-- 1.00 -->
      <g transform="translate(194.75 268.038437) scale(0.1 -0.1)">
       <defs>
        <path id="DejaVuSans-31" d="M 794 531 
L 1825 531 
L 1825 4091 
L 703 3866 
L 703 4441 
L 1819 4666 
L 2450 4666 
L 2450 531 
L 3481 531 
L 3481 0 
L 794 0 
L 794 531 
z
" transform="scale(0.015625)"/>
       </defs>
       <use xlink:href="#DejaVuSans-31"/>
       <use xlink:href="#DejaVuSans-2e" x="63.623047"/>
       <use xlink:href="#DejaVuSans-30" x="95.410156"/>
       <use xlink:href="#DejaVuSans-30" x="159.033203"/>
      </g>
     </g>
    </g>
    <g id="xtick_6">
     <g id="line2d_6">
      <g>
       <use xlink:href="#m0671378be8" x="247.732812" y="253.44" style="stroke: #000000; stroke-width: 0.8"/>
      </g>
     </g>
     <g id="text_6">
      <!-- 1.25 -->
      <g transform="translate(236.6 268.038437) scale(0.1 -0.1)">
       <use xlink:href="#DejaVuSans-31"/>
       <use xlink:href="#DejaVuSans-2e" x="63.623047"/>
       <use xlink:href="#DejaVuSans-32" x="95.410156"/>
       <use xlink:href="#DejaVuSans-35" x="159.033203"/>
      </g>
     </g>
    </g>
    <g id="xtick_7">
     <g id="line2d_7">
      <g>
       <use xlink:href="#m0671378be8" x="289.582813" y="253.44" style="stroke: #000000; stroke-width: 0.8"/>
      </g>
     </g>
     <g id="text_7">
      <!-- 1.50 -->
      <g transform="translate(278.45 268.038437) scale(0.1 -0.1)">
       <use xlink:href="#DejaVuSans-31"/>
       <use xlink:href="#DejaVuSans-2e" x="63.623047"/>
       <use xlink:href="#DejaVuSans-35" x="95.410156"/>
       <use xlink:href="#DejaVuSans-30" x="159.033203"/>
      </g>
     </g>
    </g>
    <g id="xtick_8">
     <g id="line2d_8">
      <g>
       <use xlink:href="#m0671378be8" x="331.432813" y="253.44" style="stroke: #000000; stroke-width: 0.8"/>
      </g>
     </g>
     <g id="text_8">
      <!-- 1.75 -->
      <g transform="translate(320.3 268.038437) scale(0.1 -0.1)">
       <use xlink:href="#DejaVuSans-31"/>
       <use xlink:href="#DejaVuSans-2e" x="63.623047"/>
       <use xlink:href="#DejaVuSans-37" x="95.410156"/>
       <use xlink:href="#DejaVuSans-35" x="159.033203"/>
      </g>
     </g>
    </g>
    <g id="xtick_9">
     <g id="line2d_9">
      <g>
       <use xlink:href="#m0671378be8" x="373.282813" y="253.44" style="stroke: #000000; stroke-width: 0.8"/>
      </g>
     </g>
     <g id="text_9">
      <!-- 2.00 -->
      <g transform="translate(362.15 268.038437) scale(0.1 -0.1)">
       <use xlink:href="#DejaVuSans-32"/>
       <use xlink:href="#DejaVuSans-2e" x="63.623047"/>
       <use xlink:href="#DejaVuSans-30" x="95.410156"/>
       <use xlink:href="#DejaVuSans-30" x="159.033203"/>
      </g>
     </g>
    </g>
   </g>
   <g id="matplotlib.axis_2">
    <g id="ytick_1">
     <g id="line2d_10">
      <defs>
       <path id="mdb20808ecc" d="M 0 0 
L -3.5 0 
" style="stroke: #000000; stroke-width: 0.8"/>
      </defs>
      <g>
       <use xlink:href="#mdb20808ecc" x="38.482813" y="241.562263" style="stroke: #000000; stroke-width: 0.8"/>
      </g>
     </g>
     <g id="text_10">
      <!-- −0.8 -->
      <g transform="translate(7.2 245.361481) scale(0.1 -0.1)">
       <defs>
        <path id="DejaVuSans-2212" d="M 678 2272 
L 4684 2272 
L 4684 1741 
L 678 1741 
L 678 2272 
z
" transform="scale(0.015625)"/>
        <path id="DejaVuSans-38" d="M 2034 2216 
Q 1584 2216 1326 1975 
Q 1069 1734 1069 1313 
Q 1069 891 1326 650 
Q 1584 409 2034 409 
Q 2484 409 2743 651 
Q 3003 894 3003 1313 
Q 3003 1734 2745 1975 
Q 2488 2216 2034 2216 
z
M 1403 2484 
Q 997 2584 770 2862 
Q 544 3141 544 3541 
Q 544 4100 942 4425 
Q 1341 4750 2034 4750 
Q 2731 4750 3128 4425 
Q 3525 4100 3525 3541 
Q 3525 3141 3298 2862 
Q 3072 2584 2669 2484 
Q 3125 2378 3379 2068 
Q 3634 1759 3634 1313 
Q 3634 634 3220 271 
Q 2806 -91 2034 -91 
Q 1263 -91 848 271 
Q 434 634 434 1313 
Q 434 1759 690 2068 
Q 947 2378 1403 2484 
z
M 1172 3481 
Q 1172 3119 1398 2916 
Q 1625 2713 2034 2713 
Q 2441 2713 2670 2916 
Q 2900 3119 2900 3481 
Q 2900 3844 2670 4047 
Q 2441 4250 2034 4250 
Q 1625 4250 1398 4047 
Q 1172 3844 1172 3481 
z
" transform="scale(0.015625)"/>
       </defs>
       <use xlink:href="#DejaVuSans-2212"/>
       <use xlink:href="#DejaVuSans-30" x="83.789062"/>
       <use xlink:href="#DejaVuSans-2e" x="147.412109"/>
       <use xlink:href="#DejaVuSans-38" x="179.199219"/>
      </g>
     </g>
    </g>
    <g id="ytick_2">
     <g id="line2d_11">
      <g>
       <use xlink:href="#mdb20808ecc" x="38.482813" y="217.102434" style="stroke: #000000; stroke-width: 0.8"/>
      </g>
     </g>
     <g id="text_11">
      <!-- −0.7 -->
      <g transform="translate(7.2 220.901653) scale(0.1 -0.1)">
       <use xlink:href="#DejaVuSans-2212"/>
       <use xlink:href="#DejaVuSans-30" x="83.789062"/>
       <use xlink:href="#DejaVuSans-2e" x="147.412109"/>
       <use xlink:href="#DejaVuSans-37" x="179.199219"/>
      </g>
     </g>
    </g>
    <g id="ytick_3">
     <g id="line2d_12">
      <g>
       <use xlink:href="#mdb20808ecc" x="38.482813" y="192.642606" style="stroke: #000000; stroke-width: 0.8"/>
      </g>
     </g>
     <g id="text_12">
      <!-- −0.6 -->
      <g transform="translate(7.2 196.441825) scale(0.1 -0.1)">
       <defs>
        <path id="DejaVuSans-36" d="M 2113 2584 
Q 1688 2584 1439 2293 
Q 1191 2003 1191 1497 
Q 1191 994 1439 701 
Q 1688 409 2113 409 
Q 2538 409 2786 701 
Q 3034 994 3034 1497 
Q 3034 2003 2786 2293 
Q 2538 2584 2113 2584 
z
M 3366 4563 
L 3366 3988 
Q 3128 4100 2886 4159 
Q 2644 4219 2406 4219 
Q 1781 4219 1451 3797 
Q 1122 3375 1075 2522 
Q 1259 2794 1537 2939 
Q 1816 3084 2150 3084 
Q 2853 3084 3261 2657 
Q 3669 2231 3669 1497 
Q 3669 778 3244 343 
Q 2819 -91 2113 -91 
Q 1303 -91 875 529 
Q 447 1150 447 2328 
Q 447 3434 972 4092 
Q 1497 4750 2381 4750 
Q 2619 4750 2861 4703 
Q 3103 4656 3366 4563 
z
" transform="scale(0.015625)"/>
       </defs>
       <use xlink:href="#DejaVuSans-2212"/>
       <use xlink:href="#DejaVuSans-30" x="83.789062"/>
       <use xlink:href="#DejaVuSans-2e" x="147.412109"/>
       <use xlink:href="#DejaVuSans-36" x="179.199219"/>
      </g>
     </g>
    </g>
    <g id="ytick_4">
     <g id="line2d_13">
      <g>
       <use xlink:href="#mdb20808ecc" x="38.482813" y="168.182778" style="stroke: #000000; stroke-width: 0.8"/>
      </g>
     </g>
     <g id="text_13">
      <!-- −0.5 -->
      <g transform="translate(7.2 171.981997) scale(0.1 -0.1)">
       <use xlink:href="#DejaVuSans-2212"/>
       <use xlink:href="#DejaVuSans-30" x="83.789062"/>
       <use xlink:href="#DejaVuSans-2e" x="147.412109"/>
       <use xlink:href="#DejaVuSans-35" x="179.199219"/>
      </g>
     </g>
    </g>
    <g id="ytick_5">
     <g id="line2d_14">
      <g>
       <use xlink:href="#mdb20808ecc" x="38.482813" y="143.72295" style="stroke: #000000; stroke-width: 0.8"/>
      </g>
     </g>
     <g id="text_14">
      <!-- −0.4 -->
      <g transform="translate(7.2 147.522168) scale(0.1 -0.1)">
       <defs>
        <path id="DejaVuSans-34" d="M 2419 4116 
L 825 1625 
L 2419 1625 
L 2419 4116 
z
M 2253 4666 
L 3047 4666 
L 3047 1625 
L 3713 1625 
L 3713 1100 
L 3047 1100 
L 3047 0 
L 2419 0 
L 2419 1100 
L 313 1100 
L 313 1709 
L 2253 4666 
z
" transform="scale(0.015625)"/>
       </defs>
       <use xlink:href="#DejaVuSans-2212"/>
       <use xlink:href="#DejaVuSans-30" x="83.789062"/>
       <use xlink:href="#DejaVuSans-2e" x="147.412109"/>
       <use xlink:href="#DejaVuSans-34" x="179.199219"/>
      </g>
     </g>
    </g>
    <g id="ytick_6">
     <g id="line2d_15">
      <g>
       <use xlink:href="#mdb20808ecc" x="38.482813" y="119.263121" style="stroke: #000000; stroke-width: 0.8"/>
      </g>
     </g>
     <g id="text_15">
      <!-- −0.3 -->
      <g transform="translate(7.2 123.06234) scale(0.1 -0.1)">
       <defs>
        <path id="DejaVuSans-33" d="M 2597 2516 
Q 3050 2419 3304 2112 
Q 3559 1806 3559 1356 
Q 3559 666 3084 287 
Q 2609 -91 1734 -91 
Q 1441 -91 1130 -33 
Q 819 25 488 141 
L 488 750 
Q 750 597 1062 519 
Q 1375 441 1716 441 
Q 2309 441 2620 675 
Q 2931 909 2931 1356 
Q 2931 1769 2642 2001 
Q 2353 2234 1838 2234 
L 1294 2234 
L 1294 2753 
L 1863 2753 
Q 2328 2753 2575 2939 
Q 2822 3125 2822 3475 
Q 2822 3834 2567 4026 
Q 2313 4219 1838 4219 
Q 1578 4219 1281 4162 
Q 984 4106 628 3988 
L 628 4550 
Q 988 4650 1302 4700 
Q 1616 4750 1894 4750 
Q 2613 4750 3031 4423 
Q 3450 4097 3450 3541 
Q 3450 3153 3228 2886 
Q 3006 2619 2597 2516 
z
" transform="scale(0.015625)"/>
       </defs>
       <use xlink:href="#DejaVuSans-2212"/>
       <use xlink:href="#DejaVuSans-30" x="83.789062"/>
       <use xlink:href="#DejaVuSans-2e" x="147.412109"/>
       <use xlink:href="#DejaVuSans-33" x="179.199219"/>
      </g>
     </g>
    </g>
    <g id="ytick_7">
     <g id="line2d_16">
      <g>
       <use xlink:href="#mdb20808ecc" x="38.482813" y="94.803293" style="stroke: #000000; stroke-width: 0.8"/>
      </g>
     </g>
     <g id="text_16">
      <!-- −0.2 -->
      <g transform="translate(7.2 98.602512) scale(0.1 -0.1)">
       <use xlink:href="#DejaVuSans-2212"/>
       <use xlink:href="#DejaVuSans-30" x="83.789062"/>
       <use xlink:href="#DejaVuSans-2e" x="147.412109"/>
       <use xlink:href="#DejaVuSans-32" x="179.199219"/>
      </g>
     </g>
    </g>
    <g id="ytick_8">
     <g id="line2d_17">
      <g>
       <use xlink:href="#mdb20808ecc" x="38.482813" y="70.343465" style="stroke: #000000; stroke-width: 0.8"/>
      </g>
     </g>
     <g id="text_17">
      <!-- −0.1 -->
      <g transform="translate(7.2 74.142683) scale(0.1 -0.1)">
       <use xlink:href="#DejaVuSans-2212"/>
       <use xlink:href="#DejaVuSans-30" x="83.789062"/>
       <use xlink:href="#DejaVuSans-2e" x="147.412109"/>
       <use xlink:href="#DejaVuSans-31" x="179.199219"/>
      </g>
     </g>
    </g>
    <g id="ytick_9">
     <g id="line2d_18">
      <g>
       <use xlink:href="#mdb20808ecc" x="38.482813" y="45.883636" style="stroke: #000000; stroke-width: 0.8"/>
      </g>
     </g>
     <g id="text_18">
      <!-- 0.0 -->
      <g transform="translate(15.579688 49.682855) scale(0.1 -0.1)">
       <use xlink:href="#DejaVuSans-30"/>
       <use xlink:href="#DejaVuSans-2e" x="63.623047"/>
       <use xlink:href="#DejaVuSans-30" x="95.410156"/>
      </g>
     </g>
    </g>
   </g>
   <g id="line2d_19">
    <path d="M 38.650213 45.883636 
L 38.817613 48.340808 
L 38.985013 54.805526 
L 39.152413 55.240593 
L 39.319813 60.106462 
L 39.487212 61.711599 
L 39.654612 58.542519 
L 39.822012 61.895452 
L 39.989413 57.170587 
L 40.156813 61.757599 
L 40.324213 70.20734 
L 40.491613 55.712725 
L 40.659013 67.715913 
L 40.826413 68.189184 
L 40.993813 73.473292 
L 41.161213 74.57307 
L 41.496012 91.295407 
L 41.663412 83.655035 
L 41.830813 92.410965 
L 41.998213 91.943417 
L 42.165613 101.770862 
L 42.333013 100.246172 
L 42.500413 92.488064 
L 42.667813 107.391466 
L 42.835213 101.363194 
L 43.002612 106.045366 
L 43.170012 115.686715 
L 43.504812 121.624475 
L 43.672213 118.461996 
L 43.839613 106.250067 
L 44.007013 110.465387 
L 44.341813 96.038498 
L 44.676613 85.541445 
L 44.844013 89.853585 
L 45.011412 79.495842 
L 45.178812 78.648584 
L 45.346213 82.940048 
L 45.513613 78.481544 
L 45.681013 90.220345 
L 45.848413 80.276275 
L 46.015813 81.963165 
L 46.183213 74.142869 
L 46.350613 82.501502 
L 46.518012 79.64125 
L 46.685412 80.749479 
L 46.852812 83.749325 
L 47.020212 77.399858 
L 47.187613 77.77056 
L 47.355013 76.043654 
L 47.522413 76.410488 
L 47.857213 65.8937 
L 48.024613 61.033301 
L 48.192013 71.002967 
L 48.359413 60.426901 
L 48.526813 67.647544 
L 48.694212 80.736475 
L 48.861612 77.419789 
L 49.196413 87.800478 
L 49.363813 87.218383 
L 49.531213 82.501916 
L 49.866013 95.58698 
L 50.033413 99.847338 
L 50.200813 93.647311 
L 50.368213 107.425575 
L 50.535612 106.900028 
L 50.703012 101.853153 
L 50.870413 107.225247 
L 51.205213 100.685566 
L 51.372613 102.78551 
L 51.540013 89.285324 
L 51.707413 86.725225 
L 51.874813 96.720468 
L 52.042213 98.200472 
L 52.377013 105.953586 
L 52.544413 99.1802 
L 52.711813 109.640646 
L 52.879213 109.900476 
L 53.046613 105.888714 
L 53.381413 104.299003 
L 53.716212 92.834026 
L 53.883612 88.366106 
L 54.051012 108.123391 
L 54.218412 88.30423 
L 54.385813 82.585328 
L 54.553213 82.766423 
L 54.720613 65.183314 
L 54.888013 82.562306 
L 55.055413 84.279328 
L 55.222813 70.759399 
L 56.059812 102.191142 
L 56.227213 104.242535 
L 56.394613 99.158972 
L 56.562013 111.213077 
L 56.729413 111.017129 
L 57.064213 96.651711 
L 57.231613 98.62366 
L 57.399012 95.314307 
L 57.901212 108.146874 
L 58.068613 113.507226 
L 58.236013 113.516052 
L 58.403413 124.791181 
L 58.570813 120.822531 
L 58.738213 121.068032 
L 58.905613 119.973064 
L 59.073013 116.400415 
L 59.240413 116.173204 
L 59.575213 111.948662 
L 59.742613 125.146069 
L 59.910013 115.608145 
L 60.077413 115.045195 
L 60.244813 124.154765 
L 60.412213 124.234825 
L 60.747013 107.786482 
L 60.914413 114.257187 
L 61.081813 112.626763 
L 61.249212 102.260518 
L 61.416612 107.953343 
L 61.584013 100.69058 
L 61.751413 112.5941 
L 62.086213 100.203447 
L 62.253613 102.014307 
L 62.421013 106.113057 
L 62.588413 103.328417 
L 62.755813 116.22124 
L 62.923213 108.416768 
L 63.090613 110.467842 
L 63.258012 117.076875 
L 63.425413 106.450727 
L 63.760213 116.413616 
L 63.927613 115.986804 
L 64.095012 118.450799 
L 64.429812 107.966971 
L 64.597212 117.330601 
L 64.764612 106.369264 
L 64.932012 107.685573 
L 65.099412 93.116141 
L 65.266813 97.711994 
L 65.434213 114.159046 
L 65.601613 99.642166 
L 65.769013 98.818808 
L 65.936413 118.084323 
L 66.271213 112.47257 
L 66.438613 119.100441 
L 66.606013 131.644401 
L 66.773413 135.404593 
L 67.108213 135.228972 
L 67.275613 135.998578 
L 67.443013 152.565189 
L 67.777813 133.837025 
L 68.112612 125.256245 
L 68.447412 136.281107 
L 68.614812 132.548219 
L 68.782212 123.953559 
L 68.949613 129.469885 
L 69.117013 117.288413 
L 69.284413 128.195111 
L 69.451813 126.383108 
L 69.619213 122.057637 
L 69.786613 129.707586 
L 69.954013 130.800917 
L 70.121413 129.6431 
L 70.288813 132.742812 
L 70.456213 146.104655 
L 70.623613 138.246016 
L 70.791012 145.114218 
L 70.958413 144.706021 
L 71.125812 135.124334 
L 71.293213 137.5045 
L 71.628013 120.822221 
L 71.795412 134.168488 
L 71.962813 129.523865 
L 72.130212 120.738216 
L 72.297613 123.067512 
L 72.465013 129.882361 
L 72.799813 131.699656 
L 72.967213 134.203187 
L 73.134613 139.014038 
L 73.302013 131.449081 
L 73.469413 136.445579 
L 73.636812 127.827471 
L 73.804213 126.895567 
L 73.971612 128.519424 
L 74.139013 125.36774 
L 74.306412 119.516339 
L 74.473813 119.620369 
L 74.641212 130.916833 
L 74.976012 104.275559 
L 75.310812 114.233835 
L 75.478213 116.217859 
L 75.645612 101.407431 
L 75.813013 112.35174 
L 75.980412 115.879059 
L 76.147813 114.526471 
L 76.315213 108.598998 
L 76.482613 124.567362 
L 76.650013 120.320054 
L 76.984813 136.41292 
L 77.319613 118.928708 
L 77.487013 134.299572 
L 77.821813 118.56564 
L 77.989213 121.91578 
L 78.156613 117.990724 
L 78.324013 109.738947 
L 78.658813 117.963996 
L 78.826212 109.437802 
L 78.993613 112.113596 
L 79.495812 128.784286 
L 79.663213 131.372139 
L 79.830613 123.753035 
L 80.165413 142.00947 
L 80.500213 135.037603 
L 80.667613 142.418003 
L 80.835013 135.096213 
L 81.002413 135.684834 
L 81.169813 130.492406 
L 81.337213 130.081237 
L 81.504613 121.443333 
L 81.672012 122.420084 
L 82.174213 135.75408 
L 82.341612 133.548796 
L 82.509013 141.725293 
L 82.676412 142.708565 
L 83.011212 118.052258 
L 83.178613 130.593485 
L 83.513413 136.444465 
L 83.848213 149.936072 
L 84.183013 160.882829 
L 84.350413 153.368146 
L 84.517813 161.052481 
L 84.685213 153.144951 
L 84.852613 137.8459 
L 85.020013 141.594187 
L 85.354813 132.712239 
L 85.522213 142.604141 
L 85.689613 140.888616 
L 85.857013 135.767424 
L 86.024413 142.746071 
L 86.191813 135.420307 
L 86.526612 138.376583 
L 86.694013 132.125603 
L 86.861413 130.722284 
L 87.028813 131.276793 
L 87.196213 133.053519 
L 87.698413 144.908944 
L 87.865813 144.729103 
L 88.033212 145.042722 
L 88.200613 148.260396 
L 88.368012 141.078937 
L 88.535413 147.976623 
L 88.702812 139.582054 
L 88.870213 153.810365 
L 89.205013 146.291738 
L 89.372412 163.45338 
L 89.539813 155.15729 
L 89.707212 154.614477 
L 89.874613 161.677996 
L 90.042012 149.399605 
L 90.209412 151.755744 
L 90.376812 163.780195 
L 90.711613 148.326682 
L 90.879013 159.285892 
L 91.213813 142.914869 
L 91.381213 145.932743 
L 91.548613 142.400746 
L 91.716013 142.344089 
L 91.883413 138.309978 
L 92.050813 143.686592 
L 92.218213 158.225881 
L 92.385613 145.876239 
L 92.553013 148.390804 
L 92.720413 146.503291 
L 93.055213 152.919412 
L 93.222612 155.062728 
L 93.390013 151.659599 
L 93.557412 157.700016 
L 93.724813 150.733003 
L 93.892212 135.2412 
L 94.059613 148.657481 
L 94.394413 143.23438 
L 94.561813 148.368997 
L 94.729213 144.458304 
L 94.896613 144.925502 
L 95.064013 142.85662 
L 95.231413 147.25699 
L 95.566213 135.646071 
L 95.901013 154.119337 
L 96.068413 155.01573 
L 96.235813 166.596225 
L 96.403213 166.413405 
L 96.570613 175.85278 
L 96.738013 175.587929 
L 97.072813 157.028269 
L 97.240213 158.629823 
L 97.407612 157.449744 
L 97.575012 149.417163 
L 97.742413 147.967814 
L 97.909813 144.803981 
L 98.077213 152.579146 
L 98.244613 141.876312 
L 98.746813 154.09611 
L 98.914212 144.923423 
L 99.249012 138.446889 
L 99.583812 144.434116 
L 99.751213 143.081037 
L 99.918612 147.110532 
L 100.086013 158.034226 
L 100.253412 149.716812 
L 100.420813 158.540992 
L 100.588212 156.561196 
L 100.923012 149.437559 
L 101.090413 150.246845 
L 101.257812 155.632079 
L 101.425213 147.03337 
L 101.592613 159.63872 
L 101.760013 147.694741 
L 101.927413 149.302263 
L 102.094813 165.420275 
L 102.262213 158.039447 
L 102.429613 161.70424 
L 102.597013 160.917075 
L 102.764412 152.570793 
L 102.931813 155.242608 
L 103.099212 166.789257 
L 103.266613 152.404142 
L 103.434012 158.94597 
L 103.601413 159.339633 
L 103.768812 155.305574 
L 104.103612 156.383861 
L 104.271013 159.394016 
L 104.605813 139.137138 
L 104.773212 148.863434 
L 104.940613 145.29831 
L 105.108013 146.91138 
L 105.275413 144.409327 
L 105.442813 145.868959 
L 105.610213 153.715174 
L 105.777613 153.774231 
L 105.945013 150.032441 
L 106.112413 155.492695 
L 106.279813 143.727018 
L 106.447213 150.793095 
L 106.614613 151.625417 
L 106.782013 143.973039 
L 107.116813 153.521242 
L 107.284212 139.246384 
L 107.619012 144.156294 
L 107.786413 139.738455 
L 108.121213 150.988889 
L 108.288612 151.926467 
L 108.456013 164.606321 
L 108.623413 159.174438 
L 108.790812 158.797453 
L 109.125612 152.061856 
L 109.627813 138.688319 
L 109.795212 144.291426 
L 109.962613 142.268218 
L 110.130012 141.885962 
L 110.297413 155.332741 
L 110.464812 154.631541 
L 110.632213 155.602594 
L 110.967013 166.058697 
L 111.134412 152.395996 
L 111.301813 152.517755 
L 111.469212 152.423685 
L 111.636613 147.266799 
L 111.804012 150.204375 
L 111.971413 156.30002 
L 112.306213 138.234289 
L 112.473613 154.863184 
L 112.641013 147.539432 
L 112.808413 133.817523 
L 112.975813 134.389029 
L 113.143213 146.507972 
L 113.310613 145.793129 
L 113.478013 135.712024 
L 113.812813 140.872453 
L 113.980212 140.955711 
L 114.147613 142.931288 
L 114.315012 135.074416 
L 114.482413 140.584303 
L 114.649812 152.524185 
L 114.817213 142.351972 
L 114.984612 146.717752 
L 115.319412 161.89129 
L 115.486813 157.339735 
L 115.654212 156.309245 
L 115.821613 162.563936 
L 116.156413 151.197419 
L 116.323813 151.414636 
L 116.826013 139.863228 
L 117.160813 154.200796 
L 117.495613 149.642471 
L 117.663013 178.41785 
L 117.830413 169.719649 
L 118.332613 162.629848 
L 118.500012 171.275158 
L 118.834812 163.924246 
L 119.002213 168.130904 
L 119.169612 177.308098 
L 119.504413 161.705027 
L 119.839213 179.520146 
L 120.006612 180.300495 
L 120.174013 168.485169 
L 120.508813 175.497428 
L 120.676212 173.730659 
L 120.843613 159.239932 
L 121.011012 168.081412 
L 121.178413 169.829213 
L 121.513213 155.703631 
L 121.680612 148.894191 
L 122.015412 158.446694 
L 122.350212 152.554458 
L 122.517613 157.109009 
L 122.685012 154.623211 
L 122.852413 155.21164 
L 123.019813 154.385821 
L 123.187213 144.293322 
L 123.354613 156.579715 
L 123.689413 163.306699 
L 123.856813 169.949639 
L 124.024213 165.261345 
L 124.191613 178.802391 
L 124.359013 177.22471 
L 124.526413 164.725954 
L 124.693813 173.856372 
L 125.028613 157.752273 
L 125.196012 161.94194 
L 125.363413 161.189369 
L 125.698213 157.498682 
L 126.033013 161.345573 
L 126.200412 174.381581 
L 126.367813 174.671408 
L 126.535213 165.812275 
L 126.702613 179.118229 
L 126.870013 175.980135 
L 127.037413 166.114817 
L 127.204813 165.843824 
L 127.539613 175.415711 
L 127.707013 166.15755 
L 127.874413 166.750208 
L 128.041813 171.908869 
L 128.376613 163.16446 
L 128.544013 160.858817 
L 128.711413 156.214562 
L 129.046213 171.379057 
L 129.213613 159.97224 
L 129.381012 165.65104 
L 129.548413 154.253665 
L 129.715812 172.931077 
L 130.050612 156.132688 
L 130.218013 155.139137 
L 130.385413 164.67783 
L 130.552813 148.598642 
L 130.887613 167.600814 
L 131.055013 150.926105 
L 131.222413 165.380409 
L 131.389813 164.893981 
L 131.557213 175.070575 
L 131.724613 160.389956 
L 132.059413 183.4626 
L 132.226813 170.609385 
L 132.561613 186.918185 
L 132.729013 184.474475 
L 132.896413 188.569232 
L 133.063813 187.86781 
L 133.231213 178.879241 
L 133.398613 179.87218 
L 133.566013 187.329419 
L 133.733413 186.566411 
L 134.068213 177.227245 
L 134.235613 180.083828 
L 134.403013 172.074504 
L 134.905213 191.698774 
L 135.072612 187.920433 
L 135.240013 172.801103 
L 135.407412 183.197487 
L 135.574813 185.029755 
L 135.742212 182.212383 
L 135.909613 186.564524 
L 136.077012 185.523797 
L 136.244413 179.255217 
L 136.411812 186.617098 
L 137.081412 168.370077 
L 137.416213 172.052874 
L 137.918412 190.28982 
L 138.085813 193.167409 
L 138.253212 192.889056 
L 138.755413 198.46885 
L 138.922812 200.025517 
L 139.090213 210.955748 
L 139.425013 192.978966 
L 139.592412 194.24156 
L 139.759813 193.21203 
L 139.927212 181.360235 
L 140.094613 191.080026 
L 140.262012 183.903566 
L 140.429413 170.893313 
L 140.596812 174.066634 
L 140.931612 171.071179 
L 141.099013 157.726306 
L 141.266413 173.481832 
L 141.433813 167.986309 
L 141.601213 174.921242 
L 141.936013 159.00701 
L 142.103412 161.571309 
L 142.270813 168.60611 
L 142.605613 159.202066 
L 142.773012 167.613849 
L 142.940413 164.009213 
L 143.107812 164.454983 
L 143.275213 166.868916 
L 143.442612 165.981295 
L 143.610013 175.39277 
L 143.777412 172.698 
L 143.944813 167.581646 
L 144.112212 166.201083 
L 144.279613 172.709578 
L 144.447012 170.263035 
L 144.614413 173.827956 
L 144.781813 171.963876 
L 144.949213 167.064095 
L 145.116613 170.599331 
L 145.284013 167.703757 
L 145.451413 153.463688 
L 145.618813 177.274483 
L 145.786213 174.882712 
L 145.953613 165.813721 
L 146.288413 178.288103 
L 146.623213 187.577446 
L 146.790613 183.460655 
L 146.958012 204.337439 
L 147.292812 195.87558 
L 147.460213 211.878403 
L 147.627612 203.604678 
L 147.962412 216.901863 
L 149.134213 180.449459 
L 149.301613 177.041043 
L 149.636413 184.473654 
L 149.803813 184.445197 
L 149.971213 178.424478 
L 150.138613 188.625175 
L 150.306013 189.260636 
L 150.473413 181.295599 
L 150.640813 182.237766 
L 150.808213 171.037179 
L 150.975613 181.65983 
L 151.310413 178.744034 
L 151.645213 169.699366 
L 151.812613 173.630963 
L 151.980013 181.910155 
L 152.147413 178.067262 
L 152.314813 187.141695 
L 152.482213 184.197026 
L 152.649613 186.792736 
L 152.817013 191.737281 
L 152.984413 187.798472 
L 153.486613 190.993476 
L 153.654013 187.328001 
L 153.821413 179.921079 
L 153.988813 187.375032 
L 154.323613 169.12318 
L 154.491013 173.137638 
L 154.658413 160.171511 
L 154.825813 168.145423 
L 155.160613 158.852874 
L 155.328013 160.121525 
L 155.495413 163.738356 
L 155.662813 170.214683 
L 155.830213 172.327025 
L 156.165013 168.538529 
L 156.499812 156.532665 
L 156.667213 160.528114 
L 156.834612 153.774344 
L 157.169412 168.000854 
L 157.336813 158.964202 
L 157.504212 162.722008 
L 157.839012 151.537043 
L 158.006413 151.20807 
L 158.173812 141.465505 
L 158.508612 153.179321 
L 158.676013 148.469587 
L 158.843412 157.238834 
L 159.010813 172.110721 
L 159.178213 175.028765 
L 159.345612 174.122317 
L 159.680412 190.075146 
L 159.847813 185.0311 
L 160.015212 170.848849 
L 160.182613 176.997557 
L 160.350012 177.526135 
L 160.517413 172.91863 
L 161.354412 183.548839 
L 161.521813 173.819308 
L 161.689212 157.591259 
L 161.856613 168.410887 
L 162.358812 149.051125 
L 162.526213 145.27453 
L 162.693613 157.20121 
L 163.028413 139.976281 
L 163.195813 153.988672 
L 163.698013 143.362983 
L 164.032813 148.794757 
L 164.200212 147.675288 
L 164.367613 144.897922 
L 164.702413 170.951178 
L 164.869812 163.623376 
L 165.037213 164.827592 
L 165.372013 169.970674 
L 165.539412 166.079165 
L 165.706813 180.808168 
L 166.041613 187.930037 
L 166.209013 184.102422 
L 166.376413 197.881951 
L 166.543813 193.825719 
L 166.711212 196.577709 
L 166.878613 181.113962 
L 167.046012 190.565955 
L 167.213413 192.342245 
L 167.548213 174.950141 
L 167.715612 184.234177 
L 167.883013 179.805704 
L 168.050412 187.923949 
L 168.217813 189.227274 
L 168.385212 169.642517 
L 168.552613 181.77271 
L 168.720012 163.882636 
L 168.887413 158.414188 
L 169.054812 164.483707 
L 169.222213 157.77749 
L 169.389612 176.502903 
L 169.557013 182.306848 
L 169.724412 175.645785 
L 169.891813 193.359308 
L 170.059213 192.176545 
L 170.226613 185.665673 
L 170.394013 197.170529 
L 170.561413 184.586944 
L 170.728813 183.904544 
L 170.896213 187.648024 
L 171.063613 188.209762 
L 171.231012 187.097114 
L 171.398413 192.264157 
L 171.565812 177.797544 
L 171.733213 178.231189 
L 171.900612 183.963174 
L 172.068013 162.889743 
L 172.235412 175.396724 
L 172.570212 162.094646 
L 172.737613 160.177841 
L 172.905012 178.550228 
L 173.072413 180.933468 
L 173.407213 193.239585 
L 173.574613 193.29859 
L 173.742013 194.573281 
L 174.076813 180.471248 
L 174.244213 189.935262 
L 174.411613 177.661906 
L 174.579013 176.923502 
L 174.746413 187.814461 
L 174.913813 177.902547 
L 175.081213 176.177685 
L 175.248613 180.94583 
L 175.416013 182.40246 
L 175.583413 186.733633 
L 175.750813 185.659826 
L 175.918213 181.896509 
L 176.085612 181.678099 
L 176.253013 172.681847 
L 176.420412 183.883008 
L 176.587813 182.571281 
L 176.755212 183.267416 
L 177.090013 173.634161 
L 177.257413 187.308043 
L 177.424813 181.989877 
L 177.592213 170.513774 
L 177.759613 183.902783 
L 177.927012 184.440412 
L 178.094413 180.859266 
L 178.261812 185.152824 
L 178.429213 184.319138 
L 178.596612 190.455004 
L 178.764013 192.126462 
L 178.931412 186.517346 
L 179.098812 187.022124 
L 179.266212 192.797029 
L 179.433612 180.660894 
L 179.601012 194.068996 
L 179.768412 197.617805 
L 179.935812 188.374009 
L 180.103212 202.898139 
L 180.270612 203.229517 
L 180.438012 187.641461 
L 180.605412 201.681204 
L 180.772812 190.804804 
L 180.940213 195.363687 
L 181.275013 179.565164 
L 181.442412 181.716998 
L 181.609813 177.972392 
L 181.777212 186.168852 
L 181.944613 170.175741 
L 182.112012 171.304757 
L 182.279413 186.171996 
L 182.446812 190.053531 
L 182.614213 189.366685 
L 182.781612 194.558756 
L 182.949013 180.701313 
L 183.116412 183.679079 
L 183.283813 182.611052 
L 183.451212 171.578286 
L 183.618613 181.961278 
L 183.786012 176.401242 
L 183.953412 176.035555 
L 184.120812 166.672278 
L 184.288212 163.771419 
L 184.455613 167.143784 
L 184.623012 173.84807 
L 184.790413 168.617159 
L 184.957812 169.130652 
L 185.125213 169.024584 
L 185.292612 167.036699 
L 185.460013 172.237952 
L 185.627412 188.030618 
L 185.794813 184.630975 
L 185.962212 185.12828 
L 186.129613 197.499062 
L 186.297012 191.943288 
L 186.464413 191.10164 
L 186.631812 200.245107 
L 186.799213 197.785086 
L 186.966612 197.98447 
L 187.134013 186.717056 
L 187.301412 187.243919 
L 187.636212 171.251252 
L 187.803613 177.602625 
L 187.971013 175.632881 
L 188.138413 167.091727 
L 188.305813 171.454645 
L 188.473213 164.38491 
L 188.640613 170.08899 
L 188.808012 183.261418 
L 188.975413 170.188194 
L 189.142812 170.388474 
L 189.477612 175.240718 
L 189.645013 170.295374 
L 189.812412 180.95313 
L 189.979813 178.31767 
L 190.147212 180.039664 
L 190.314613 172.282735 
L 190.482012 169.992977 
L 190.649413 173.983812 
L 190.816812 174.549081 
L 190.984213 169.108115 
L 191.151612 184.848102 
L 191.486413 167.724039 
L 191.653813 185.02645 
L 191.821213 172.055137 
L 191.988613 182.456915 
L 192.156013 162.254068 
L 192.323413 158.723828 
L 192.490813 165.018093 
L 192.658213 163.555244 
L 192.825613 157.997514 
L 193.327812 179.297812 
L 193.495213 178.248326 
L 193.662612 173.390434 
L 193.830013 183.924188 
L 193.997412 179.60132 
L 194.164813 180.65758 
L 194.332212 173.669466 
L 194.499613 181.487473 
L 195.001812 160.27456 
L 195.169213 161.309362 
L 195.336613 159.346458 
L 195.504013 151.579694 
L 195.671413 160.646667 
L 195.838813 160.276578 
L 196.006213 159.51189 
L 196.173613 163.282566 
L 196.341013 161.956913 
L 196.508413 170.783646 
L 196.675813 173.166575 
L 196.843213 170.853583 
L 197.010613 171.784593 
L 197.178013 163.242291 
L 197.345413 176.628863 
L 197.512813 165.163144 
L 197.680213 187.21471 
L 197.847613 184.966528 
L 198.015013 172.796552 
L 198.349813 190.992499 
L 198.517212 189.947329 
L 198.684613 183.254761 
L 198.852013 190.486421 
L 199.019413 175.764528 
L 199.186813 178.204811 
L 199.521613 185.443516 
L 199.689012 184.511831 
L 199.856413 179.464801 
L 200.191213 194.049159 
L 200.358612 180.221783 
L 200.526013 189.956444 
L 200.693412 177.375639 
L 200.860813 181.264751 
L 201.028212 193.07212 
L 201.195612 179.068288 
L 201.363012 189.800867 
L 201.530412 182.581847 
L 201.697812 183.582933 
L 201.865212 185.891174 
L 202.032612 192.218532 
L 202.534812 168.312778 
L 202.702213 171.398421 
L 203.037013 168.894957 
L 203.371813 179.726261 
L 203.539212 188.622505 
L 203.706613 179.04339 
L 203.874012 192.871629 
L 204.041413 191.562878 
L 204.208812 181.484172 
L 204.376213 184.684865 
L 204.543612 193.174697 
L 204.878412 178.692698 
L 205.045813 184.013371 
L 205.213212 181.834376 
L 205.380613 181.416438 
L 205.548012 189.800764 
L 205.882812 171.818857 
L 206.050213 189.015499 
L 206.217613 184.896247 
L 206.385013 186.236607 
L 206.552413 193.652327 
L 206.719813 179.152022 
L 206.887213 184.184913 
L 207.054613 184.401813 
L 207.222013 184.031393 
L 207.389413 180.94778 
L 207.556813 185.980226 
L 207.724213 201.363295 
L 207.891613 196.916633 
L 208.059013 185.782862 
L 208.226413 192.001094 
L 208.393813 192.313799 
L 208.561213 191.301952 
L 208.728613 206.543333 
L 208.896013 204.07545 
L 209.063413 193.499092 
L 209.230813 202.659578 
L 209.398213 195.93368 
L 209.565613 201.357628 
L 209.900413 189.659813 
L 210.235213 185.947502 
L 210.570013 176.467072 
L 210.737412 180.848851 
L 211.072212 163.297569 
L 211.239612 173.396268 
L 211.574412 164.541223 
L 211.741812 165.647724 
L 211.909212 180.187042 
L 212.244012 170.652641 
L 212.411412 179.367119 
L 212.746212 175.998997 
L 212.913612 169.907485 
L 213.248413 173.078172 
L 213.415812 166.215955 
L 213.750612 171.505236 
L 213.918013 172.356668 
L 214.085412 167.976634 
L 214.252813 171.117276 
L 214.420212 153.944254 
L 214.587613 165.457111 
L 214.755012 168.255272 
L 214.922413 151.05736 
L 215.257213 163.60636 
L 215.424612 154.650471 
L 215.592013 162.659992 
L 215.759412 160.223823 
L 215.926813 164.173731 
L 216.094212 162.203746 
L 216.261613 156.779535 
L 216.596413 158.856939 
L 216.763813 165.405269 
L 217.098613 149.846118 
L 217.266013 161.564497 
L 217.433413 159.538902 
L 218.103013 187.477134 
L 218.270413 183.251657 
L 218.437813 186.236133 
L 218.605213 197.213071 
L 218.772612 184.785003 
L 218.940013 184.509039 
L 219.107412 197.566034 
L 219.274813 190.512329 
L 219.442212 199.231171 
L 219.609613 197.888176 
L 219.777012 194.522908 
L 219.944413 201.411677 
L 220.111812 194.266693 
L 220.279212 202.490248 
L 220.446612 193.037351 
L 220.614013 191.908351 
L 220.781412 181.589276 
L 220.948813 183.28104 
L 221.116212 169.654183 
L 221.283613 182.140341 
L 221.451012 184.15438 
L 221.618413 178.453669 
L 221.785812 185.560077 
L 222.120612 170.872545 
L 222.790212 178.798894 
L 223.125012 172.763962 
L 223.292413 187.494636 
L 223.459812 188.248766 
L 223.627213 181.988076 
L 223.962013 195.179898 
L 224.129413 190.721975 
L 224.464213 197.813947 
L 224.631613 198.706629 
L 224.966413 192.399252 
L 225.133813 191.723813 
L 225.301213 192.59156 
L 225.468613 201.787633 
L 225.636013 195.921862 
L 225.803413 195.569766 
L 225.970813 190.566503 
L 226.305613 205.255172 
L 226.473013 203.496449 
L 226.640413 210.735531 
L 226.807813 190.57114 
L 226.975213 199.690174 
L 227.142613 196.711261 
L 227.310013 190.944535 
L 227.477413 195.397723 
L 227.812213 187.319894 
L 227.979613 195.641073 
L 228.147012 176.938416 
L 228.314413 174.956104 
L 228.481812 188.078382 
L 228.816612 176.109046 
L 228.984013 184.040754 
L 229.151412 174.066145 
L 229.318813 175.729841 
L 229.653613 170.179785 
L 229.821012 171.934154 
L 230.323213 159.340797 
L 230.490612 174.447826 
L 230.658013 164.087482 
L 230.825412 171.20951 
L 230.992813 167.004057 
L 231.160213 176.270274 
L 231.327613 176.397737 
L 231.495013 176.819171 
L 231.829813 182.36015 
L 232.332012 173.817604 
L 232.499413 179.338998 
L 232.666812 179.976227 
L 232.834213 176.641021 
L 233.001612 183.355813 
L 233.169013 172.246438 
L 233.336412 187.277786 
L 233.503813 179.54964 
L 233.671212 180.279963 
L 233.838613 194.569843 
L 234.173413 176.310793 
L 234.340812 185.354345 
L 234.508213 183.459609 
L 234.675612 187.317373 
L 235.010413 198.839458 
L 235.177813 183.92484 
L 235.345213 184.510113 
L 235.512613 191.208423 
L 235.680013 187.938741 
L 235.847413 176.515744 
L 236.014812 175.576674 
L 236.182213 170.777708 
L 236.517013 181.607614 
L 236.684412 181.227162 
L 236.851813 171.45844 
L 237.019212 170.576888 
L 237.186613 183.464527 
L 237.521412 170.503957 
L 237.688812 179.79792 
L 238.023612 169.9601 
L 238.191012 181.172922 
L 238.358412 170.862974 
L 238.525813 192.463965 
L 238.860613 180.563461 
L 239.028012 191.444898 
L 239.195413 177.592912 
L 239.362812 178.708051 
L 239.530213 182.470749 
L 239.865013 170.935955 
L 240.199813 184.857174 
L 240.367212 175.908288 
L 240.702012 191.171325 
L 240.869413 181.081112 
L 241.036812 197.588831 
L 241.204213 202.16212 
L 241.371612 195.320084 
L 241.539013 196.456145 
L 241.706412 201.066917 
L 241.873813 197.555086 
L 242.041213 187.955858 
L 242.208613 195.593534 
L 242.543413 184.929567 
L 242.878213 197.624288 
L 243.045613 195.530275 
L 243.213013 206.170701 
L 243.547813 191.254888 
L 243.715213 198.852341 
L 244.050013 190.339768 
L 244.217413 194.742114 
L 244.384813 188.228403 
L 244.552213 187.771351 
L 244.719613 180.248064 
L 244.887013 180.797865 
L 245.054413 174.365236 
L 245.221813 176.306597 
L 245.389212 182.371725 
L 245.556613 179.919679 
L 245.724012 172.88015 
L 246.058812 192.867064 
L 246.226213 188.582739 
L 246.393612 189.360772 
L 246.561013 185.582788 
L 246.728412 196.034109 
L 246.895813 182.775794 
L 247.063212 179.433664 
L 247.230613 184.942242 
L 247.565413 170.427357 
L 247.900213 179.989485 
L 248.067612 169.217237 
L 248.402412 186.122361 
L 248.737212 174.440943 
L 248.904613 188.479342 
L 249.072012 192.405744 
L 249.239413 182.610721 
L 249.406813 190.10962 
L 249.574213 188.901554 
L 249.741613 185.94465 
L 249.909013 177.686263 
L 250.076413 178.810889 
L 250.243813 187.482167 
L 250.411213 167.425029 
L 250.578613 174.406066 
L 250.746013 175.44838 
L 250.913413 174.514991 
L 251.080813 171.835118 
L 251.248213 177.240991 
L 251.415613 175.449578 
L 251.750413 165.75578 
L 251.917813 179.817903 
L 252.085213 176.958406 
L 252.252613 170.802761 
L 252.420013 180.563249 
L 252.587413 180.670266 
L 252.754813 177.873521 
L 252.922213 192.205967 
L 253.089613 190.304279 
L 253.257013 196.565292 
L 253.424413 189.819486 
L 253.591812 194.233259 
L 253.759213 191.630343 
L 253.926612 196.645629 
L 254.094013 195.665686 
L 254.261412 184.078464 
L 254.428813 182.277729 
L 254.596212 189.12858 
L 254.931012 179.225338 
L 255.098412 189.56002 
L 255.265812 181.601572 
L 255.433212 181.919427 
L 255.600612 184.0625 
L 255.768012 174.530495 
L 255.935412 179.214225 
L 256.102813 172.331692 
L 256.270213 171.805272 
L 256.437613 181.010159 
L 256.605012 174.060508 
L 256.772413 192.233401 
L 256.939813 194.669537 
L 257.107213 183.280652 
L 257.274612 201.954719 
L 257.442013 195.137022 
L 257.776813 206.535456 
L 257.944212 205.427131 
L 258.111613 197.708824 
L 258.279013 198.856847 
L 258.446413 196.824195 
L 258.613812 191.817329 
L 258.781213 201.607577 
L 259.116013 192.441942 
L 259.283412 197.332719 
L 259.450813 190.586911 
L 259.618213 201.998253 
L 259.785613 193.766642 
L 259.953012 197.875104 
L 260.120413 179.479114 
L 260.287813 191.567463 
L 260.622613 185.727371 
L 260.957413 204.486344 
L 261.124813 189.393301 
L 261.292213 196.930693 
L 261.459613 193.864548 
L 261.627013 176.644231 
L 261.794413 194.527512 
L 261.961813 195.615815 
L 262.129213 177.385099 
L 262.296613 178.477259 
L 262.631413 187.254757 
L 262.798813 188.017757 
L 262.966212 192.865597 
L 263.133613 183.489233 
L 263.301013 185.426828 
L 263.468413 201.60609 
L 263.635812 199.739489 
L 263.803213 187.285417 
L 264.138013 201.606093 
L 264.305412 178.648423 
L 264.472813 185.585884 
L 264.640213 184.229411 
L 264.807613 180.612127 
L 264.975012 190.223697 
L 265.142413 183.13877 
L 265.309813 186.864615 
L 265.477213 202.52062 
L 265.644612 196.550839 
L 265.812013 184.213345 
L 265.979413 196.903791 
L 266.314212 175.21415 
L 266.481613 175.932874 
L 266.983812 186.894661 
L 267.151213 183.27627 
L 267.486013 193.471051 
L 267.653413 187.277583 
L 267.820813 201.368966 
L 267.988213 204.26188 
L 268.155613 193.121801 
L 268.323013 209.746108 
L 268.490413 204.171418 
L 268.657813 209.087352 
L 268.825213 206.677404 
L 268.992613 206.928887 
L 269.327413 214.585816 
L 269.494813 209.609283 
L 269.662213 200.68089 
L 269.829613 204.026213 
L 269.997013 209.643887 
L 270.164413 198.184944 
L 270.331813 199.050016 
L 270.499213 209.640157 
L 270.666613 205.908578 
L 270.834013 198.236568 
L 271.001413 205.472437 
L 271.168813 207.217075 
L 271.336213 206.578446 
L 271.503613 207.20459 
L 271.671013 209.85669 
L 271.838413 210.63048 
L 272.005813 208.96524 
L 272.173213 219.856699 
L 272.340613 204.765683 
L 272.508013 201.992837 
L 272.675412 207.969799 
L 272.842813 204.233839 
L 273.010213 205.621447 
L 273.177613 202.744913 
L 273.345012 202.838438 
L 273.512413 203.375216 
L 273.679813 202.794449 
L 274.014612 194.503584 
L 274.182012 206.494691 
L 274.516813 201.509617 
L 274.684213 214.717589 
L 274.851612 200.243834 
L 275.186413 218.767429 
L 275.353813 213.262212 
L 275.521212 212.465479 
L 275.688613 215.561233 
L 275.856013 216.264314 
L 276.023413 221.19957 
L 276.190812 216.291509 
L 276.525613 217.739575 
L 276.860412 199.261475 
L 277.027813 199.77302 
L 277.362613 206.00883 
L 277.530012 210.468491 
L 277.697413 197.157369 
L 277.864813 208.29062 
L 278.032213 206.305616 
L 278.199613 193.78866 
L 278.367013 203.385941 
L 278.869213 192.039243 
L 279.036613 193.505487 
L 279.204013 183.670629 
L 279.538813 187.380348 
L 279.706213 199.765744 
L 279.873613 196.465151 
L 280.375813 214.242904 
L 280.543212 217.256161 
L 280.710613 208.197059 
L 280.878013 212.162554 
L 281.045413 212.264298 
L 281.212812 217.535971 
L 281.380213 217.236212 
L 281.547613 210.563755 
L 281.715013 225.755968 
L 282.049813 206.127853 
L 282.217213 225.673463 
L 282.384613 215.330499 
L 282.552012 211.873164 
L 282.719413 221.335079 
L 282.886813 215.991074 
L 283.054213 219.213985 
L 283.221612 225.910777 
L 283.389013 218.242968 
L 283.556413 222.441937 
L 283.723813 216.896933 
L 283.891212 223.726286 
L 284.058613 217.392856 
L 284.226013 216.967616 
L 284.393413 218.656485 
L 284.728213 203.406708 
L 284.895613 208.302742 
L 285.230412 203.01008 
L 285.397813 203.175231 
L 285.732613 207.342792 
L 285.900013 191.756937 
L 286.067413 202.957742 
L 286.402213 198.371753 
L 286.737013 179.290337 
L 286.904413 182.117939 
L 287.071813 178.343651 
L 287.239213 177.276908 
L 287.406613 171.869838 
L 287.741413 186.759603 
L 287.908813 185.869385 
L 288.076213 181.078938 
L 288.243613 182.874553 
L 288.411013 193.100532 
L 288.745813 182.501091 
L 288.913213 193.415777 
L 289.080613 189.081715 
L 289.582813 202.406906 
L 289.750213 188.535066 
L 289.917613 185.7787 
L 290.085013 196.605367 
L 290.252412 197.457705 
L 290.419813 192.170063 
L 290.587213 209.153901 
L 290.754613 200.060369 
L 290.922012 202.686611 
L 291.089413 208.843906 
L 291.256813 220.321218 
L 291.424213 215.263078 
L 291.591612 204.836699 
L 291.759013 206.538527 
L 291.926413 211.802803 
L 292.261212 196.820117 
L 292.428613 206.083207 
L 292.596013 197.617376 
L 292.763413 200.493831 
L 293.098213 186.83336 
L 293.433013 195.800441 
L 293.767813 177.292651 
L 293.935213 178.138647 
L 294.102613 173.17099 
L 294.437413 183.354049 
L 294.604813 171.013566 
L 294.772213 182.358297 
L 295.274413 190.592711 
L 295.441813 183.750166 
L 295.609213 193.979722 
L 295.776612 193.931405 
L 295.944013 192.024024 
L 296.278813 196.282909 
L 296.446213 212.101443 
L 296.613613 203.531276 
L 296.781013 208.553954 
L 296.948413 228.752886 
L 297.115813 215.730177 
L 297.283213 224.641468 
L 297.450613 222.756369 
L 297.618013 219.315659 
L 297.785413 223.298489 
L 297.952813 214.440729 
L 298.120213 217.658152 
L 298.287613 209.631904 
L 298.455013 206.952977 
L 298.622413 227.779034 
L 298.957213 201.622261 
L 299.124613 213.018879 
L 299.292013 198.700191 
L 299.459413 210.505873 
L 299.626813 204.057497 
L 299.794213 189.464421 
L 299.961613 199.650174 
L 300.129013 197.2598 
L 300.296413 190.948202 
L 300.463813 191.325195 
L 300.631213 185.042356 
L 300.966013 205.410211 
L 301.133413 200.01588 
L 301.300813 205.160776 
L 301.468213 219.554975 
L 301.635613 212.611023 
L 301.803013 228.360376 
L 302.137813 205.683743 
L 302.305213 218.653974 
L 302.472613 218.442437 
L 302.640013 222.211489 
L 302.807412 215.473932 
L 302.974813 217.316355 
L 303.142213 216.991927 
L 303.309613 220.677878 
L 303.477013 212.602594 
L 303.644413 210.921672 
L 303.811813 227.125477 
L 303.979213 220.789123 
L 304.146613 222.417098 
L 304.314013 225.171334 
L 304.481413 235.030683 
L 304.648813 226.949157 
L 304.816213 226.311349 
L 304.983613 227.856234 
L 305.151013 233.4255 
L 305.318413 220.59952 
L 305.485813 217.497525 
L 305.653213 221.577377 
L 305.988013 211.101065 
L 306.155413 215.676566 
L 306.322813 198.569354 
L 306.490213 203.687324 
L 306.657613 215.770154 
L 306.825013 207.405266 
L 307.159813 213.885247 
L 307.327213 201.27352 
L 307.494613 208.727196 
L 307.662013 204.683996 
L 307.829413 193.596113 
L 307.996813 200.858161 
L 308.164213 198.381443 
L 308.331613 202.590238 
L 308.499013 202.127063 
L 308.666413 191.842648 
L 308.833813 195.481655 
L 309.001213 209.421287 
L 309.168613 199.455832 
L 309.336013 202.97705 
L 309.503413 210.944208 
L 309.670813 209.202894 
L 309.838213 209.185274 
L 310.005613 216.111145 
L 310.173013 209.209403 
L 310.340413 197.461359 
L 310.507813 209.812326 
L 310.675213 209.583229 
L 310.842613 202.836323 
L 311.010013 207.931827 
L 311.177413 200.096602 
L 311.344813 219.426854 
L 311.512213 215.529249 
L 311.679613 215.486915 
L 312.181813 225.376882 
L 312.349213 224.879318 
L 312.516613 222.193337 
L 312.684013 230.690129 
L 312.851413 225.796858 
L 313.018813 224.299631 
L 313.186213 224.170852 
L 313.353613 222.210174 
L 313.521013 230.604137 
L 313.688413 230.100164 
L 313.855813 227.415713 
L 314.023213 234.386523 
L 314.190613 224.875113 
L 314.358013 222.869276 
L 314.525413 232.522368 
L 314.692813 213.191955 
L 314.860213 220.983783 
L 315.027613 222.961066 
L 315.195013 211.428874 
L 315.362413 212.801588 
L 315.697213 209.379153 
L 315.864613 212.51781 
L 316.032013 220.02482 
L 316.199413 214.414624 
L 316.366813 216.983114 
L 316.534213 216.470709 
L 317.036413 225.135241 
L 317.371213 208.831325 
L 317.706013 202.22731 
L 317.873413 203.102447 
L 318.040813 200.255911 
L 318.208213 201.828788 
L 318.375613 200.225421 
L 318.543013 193.275271 
L 318.710413 206.640298 
L 318.877813 208.239493 
L 319.045213 204.248582 
L 319.212613 206.340483 
L 319.380013 210.310261 
L 319.714812 199.292892 
L 319.882213 204.079331 
L 320.049613 195.782741 
L 320.384412 201.298312 
L 320.719213 190.42672 
L 321.054012 196.899532 
L 321.221413 207.74053 
L 321.388813 203.935218 
L 321.723613 210.739123 
L 321.891013 211.097091 
L 322.058413 208.244093 
L 322.225813 203.416919 
L 322.393213 202.292086 
L 322.560613 204.280919 
L 322.728013 201.329086 
L 323.062813 216.244897 
L 323.230213 203.448418 
L 323.397613 213.942799 
L 323.565013 211.261384 
L 323.732413 218.826729 
L 323.899813 214.421718 
L 324.067213 221.758148 
L 324.402013 214.665688 
L 324.736813 224.688499 
L 325.071613 217.464473 
L 325.406413 228.408445 
L 325.573813 219.823282 
L 325.741213 225.792967 
L 325.908613 218.051906 
L 326.076013 219.309108 
L 326.243413 216.990975 
L 326.410813 233.62864 
L 326.578213 224.507691 
L 326.913013 237.809322 
L 327.080413 225.827938 
L 327.247813 228.657671 
L 327.415213 235.776963 
L 327.582613 225.717192 
L 327.750013 226.843617 
L 328.084813 213.617118 
L 328.252213 217.688462 
L 328.419613 207.701866 
L 328.587013 205.457366 
L 328.754413 207.311439 
L 328.921813 202.795071 
L 329.256613 207.805101 
L 329.424013 214.560867 
L 329.591413 207.929231 
L 329.758813 210.551456 
L 329.926213 210.423661 
L 330.093613 213.253897 
L 330.428413 198.382987 
L 330.595813 214.432132 
L 331.098013 206.476345 
L 331.265413 206.921735 
L 331.600213 191.921665 
L 331.767613 204.074114 
L 331.935013 194.131396 
L 332.102413 193.06635 
L 332.604613 202.992267 
L 332.772013 205.060382 
L 332.939413 204.186319 
L 333.106813 213.838635 
L 333.609013 203.271954 
L 333.776413 221.23683 
L 334.111213 201.804556 
L 334.613413 221.38609 
L 334.780813 220.522185 
L 334.948213 226.178482 
L 335.115613 221.355445 
L 335.283013 229.593883 
L 335.617813 218.960907 
L 335.785213 229.445089 
L 335.952613 229.963285 
L 336.120013 229.063096 
L 336.287413 235.042079 
L 336.454813 233.62994 
L 336.622213 219.129511 
L 336.789613 240.087584 
L 337.124413 213.007869 
L 337.459213 221.423483 
L 337.626613 223.613862 
L 337.961413 205.599625 
L 338.128813 223.425524 
L 338.296213 211.762358 
L 338.463613 214.517287 
L 338.631012 223.494666 
L 338.798413 222.551058 
L 338.965813 220.354309 
L 339.133213 223.904882 
L 339.300612 231.462603 
L 339.468013 222.363589 
L 339.802813 234.995562 
L 339.970213 226.627481 
L 340.137613 243.556364 
L 340.472413 226.788134 
L 340.639813 233.158812 
L 340.974613 223.126548 
L 341.142013 229.053307 
L 341.309413 210.649455 
L 341.644213 217.270518 
L 341.811613 210.029496 
L 341.979013 222.532855 
L 342.146413 220.6813 
L 342.313813 222.15351 
L 342.481213 213.24512 
L 342.648613 221.071094 
L 342.816013 219.536859 
L 342.983413 221.010602 
L 343.318213 214.265487 
L 343.485613 214.701904 
L 343.653013 218.882054 
L 343.820413 205.718113 
L 343.987813 209.655741 
L 344.155213 227.596573 
L 344.490013 201.58238 
L 344.657413 216.822072 
L 344.824813 220.594941 
L 344.992213 221.707378 
L 345.159613 216.245956 
L 345.327013 215.263653 
L 345.494413 216.454125 
L 345.829213 203.508359 
L 345.996613 208.48287 
L 346.164013 209.226722 
L 346.331413 202.344869 
L 346.498813 209.478344 
L 346.666213 207.150048 
L 346.833613 209.945892 
L 347.001013 218.853028 
L 347.335813 212.530841 
L 347.503213 213.697851 
L 347.670613 222.936821 
L 347.838013 220.651208 
L 348.005413 216.439859 
L 348.172813 216.252933 
L 348.340213 214.174949 
L 348.675013 203.915062 
L 348.842413 202.522232 
L 349.009813 199.209817 
L 349.177213 192.645022 
L 349.344613 197.777047 
L 349.512013 194.918137 
L 349.679413 189.654976 
L 349.846813 204.076329 
L 350.014213 206.507735 
L 350.181613 200.871682 
L 350.516413 227.986241 
L 350.683813 219.502239 
L 350.851213 229.184711 
L 351.018613 231.233624 
L 351.186013 222.686248 
L 351.353413 235.437521 
L 351.688213 219.323374 
L 351.855613 223.863423 
L 352.023013 216.214483 
L 352.190413 219.863962 
L 352.357813 217.798844 
L 352.525213 227.027103 
L 352.692613 223.32869 
L 352.860013 224.472978 
L 353.027413 220.134196 
L 353.194813 223.65824 
L 353.362213 221.219545 
L 353.529613 226.020041 
L 353.864413 216.966894 
L 354.031813 229.194905 
L 354.199213 214.226119 
L 354.366613 213.730477 
L 354.534013 222.66501 
L 354.701413 208.948464 
L 354.868813 220.895329 
L 355.203613 212.708247 
L 355.371013 238.295638 
L 355.538413 232.515719 
L 355.705813 233.905651 
L 355.873213 240.389429 
L 356.040613 230.925861 
L 356.208013 232.443092 
L 356.375413 214.910555 
L 356.542813 209.276965 
L 356.710213 213.683615 
L 356.877613 208.201516 
L 357.045013 223.341039 
L 357.212413 223.228663 
L 357.379813 214.927382 
L 357.547213 232.794982 
L 357.714613 236.345041 
L 357.882013 230.5233 
L 358.049413 240.880284 
L 358.384213 230.638122 
L 358.551613 229.938344 
L 358.719013 222.397214 
L 358.886413 236.910409 
L 359.221213 214.15369 
L 359.388613 223.000136 
L 359.556013 210.082832 
L 359.723413 210.532959 
L 360.225613 223.804388 
L 360.393013 225.411163 
L 360.560413 218.890723 
L 360.727813 230.878974 
L 360.895213 227.628628 
L 361.062613 236.993253 
L 361.397413 227.70301 
L 361.564813 233.099232 
L 361.732213 230.759063 
L 361.899613 231.69797 
L 362.067013 221.052491 
L 362.234413 219.863911 
L 362.401813 217.194624 
L 362.569213 232.164705 
L 362.736613 226.727454 
L 362.904013 229.940039 
L 363.238813 214.127763 
L 363.406213 216.677813 
L 363.573613 207.112058 
L 363.741013 207.124954 
L 363.908412 201.582331 
L 364.075813 202.676252 
L 364.243213 194.716448 
L 364.410613 206.549199 
L 364.578012 199.498635 
L 364.745413 198.431938 
L 364.912813 213.296582 
L 365.080213 195.871075 
L 365.247613 211.58878 
L 365.582413 201.228481 
L 365.749813 203.707437 
L 365.917213 209.103955 
L 366.084613 209.88613 
L 366.252013 207.647017 
L 366.419413 221.268811 
L 366.586813 219.268522 
L 366.921613 206.470426 
L 367.256413 215.431005 
L 367.423813 202.089214 
L 367.591213 199.633003 
L 367.926013 214.950312 
L 368.093413 198.214556 
L 368.260813 214.019122 
L 368.428213 214.12878 
L 368.595613 206.79334 
L 368.930413 226.075811 
L 369.097813 212.309951 
L 369.265213 210.243863 
L 369.432613 217.555793 
L 369.600013 204.389835 
L 369.767413 202.088529 
L 369.934813 195.076515 
L 370.102213 198.898991 
L 370.269613 197.477763 
L 370.437013 198.535477 
L 370.604413 218.343067 
L 370.771813 212.661533 
L 370.939213 198.982869 
L 371.274013 217.027173 
L 371.441413 205.324825 
L 371.776213 222.193304 
L 371.943613 212.583671 
L 372.111013 216.02734 
L 372.445813 206.780403 
L 372.613213 217.446208 
L 372.948013 205.983238 
L 373.115413 218.651772 
L 373.282813 209.701917 
L 373.282813 209.701917 
" clip-path="url(#p1fe95faeee)" style="fill: none; stroke: #1f77b4; stroke-width: 1.5; stroke-linecap: square"/>
   </g>
   <g id="line2d_20">
    <path d="M 38.650213 45.883636 
L 39.319813 62.011466 
L 39.989413 72.822274 
L 40.659013 80.068976 
L 41.328612 84.926585 
L 41.998213 88.182737 
L 42.667813 90.365402 
L 43.337412 91.828486 
L 44.007013 92.80922 
L 44.844013 93.593827 
L 45.681013 94.069714 
L 46.852812 94.439009 
L 48.359413 94.655186 
L 51.037813 94.773391 
L 59.240413 94.80307 
L 373.282813 94.803293 
L 373.282813 94.803293 
" clip-path="url(#p1fe95faeee)" style="fill: none; stroke: #ff7f0e; stroke-width: 1.5; stroke-linecap: square"/>
   </g>
   <g id="patch_3">
    <path d="M 38.482813 253.44 
L 38.482813 36 
" style="fill: none; stroke: #000000; stroke-width: 0.8; stroke-linejoin: miter; stroke-linecap: square"/>
   </g>
   <g id="patch_4">
    <path d="M 373.282813 253.44 
L 373.282813 36 
" style="fill: none; stroke: #000000; stroke-width: 0.8; stroke-linejoin: miter; stroke-linecap: square"/>
   </g>
   <g id="patch_5">
    <path d="M 38.482813 253.44 
L 373.282813 253.44 
" style="fill: none; stroke: #000000; stroke-width: 0.8; stroke-linejoin: miter; stroke-linecap: square"/>
   </g>
   <g id="patch_6">
    <path d="M 38.482813 36 
L 373.282813 36 
" style="fill: none; stroke: #000000; stroke-width: 0.8; stroke-linejoin: miter; stroke-linecap: square"/>
   </g>
   <g id="legend_1">
    <g id="patch_7">
     <path d="M 316.582813 77.078125 
L 366.282813 77.078125 
Q 368.282813 77.078125 368.282813 75.078125 
L 368.282813 43 
Q 368.282813 41 366.282813 41 
L 316.582813 41 
Q 314.582813 41 314.582813 43 
L 314.582813 75.078125 
Q 314.582813 77.078125 316.582813 77.078125 
z
" style="fill: #ffffff; opacity: 0.8; stroke: #cccccc; stroke-linejoin: miter"/>
    </g>
    <g id="line2d_21">
     <path d="M 318.582813 52.8 
L 328.582813 52.8 
L 338.582813 52.8 
" style="fill: none; stroke: #1f77b4; stroke-width: 1.5; stroke-linecap: square"/>
    </g>
    <g id="text_19">
     <!-- $\hat{y(t)}$ -->
     <g transform="translate(346.582813 56.3) scale(0.1 -0.1)">
      <defs>
       <path id="DejaVuSans-302" d="M -1831 5119 
L -1369 5119 
L -603 3944 
L -1038 3944 
L -1600 4709 
L -2163 3944 
L -2597 3944 
L -1831 5119 
z
M -1600 3584 
L -1600 3584 
z
" transform="scale(0.015625)"/>
       <path id="DejaVuSans-Oblique-79" d="M 1588 -325 
Q 1188 -997 936 -1164 
Q 684 -1331 294 -1331 
L -159 -1331 
L -63 -850 
L 269 -850 
Q 509 -850 678 -719 
Q 847 -588 1056 -206 
L 1234 128 
L 459 3500 
L 1069 3500 
L 1650 819 
L 3256 3500 
L 3859 3500 
L 1588 -325 
z
" transform="scale(0.015625)"/>
       <path id="DejaVuSans-28" d="M 1984 4856 
Q 1566 4138 1362 3434 
Q 1159 2731 1159 2009 
Q 1159 1288 1364 580 
Q 1569 -128 1984 -844 
L 1484 -844 
Q 1016 -109 783 600 
Q 550 1309 550 2009 
Q 550 2706 781 3412 
Q 1013 4119 1484 4856 
L 1984 4856 
z
" transform="scale(0.015625)"/>
       <path id="DejaVuSans-Oblique-74" d="M 2706 3500 
L 2619 3053 
L 1472 3053 
L 1100 1153 
Q 1081 1047 1072 975 
Q 1063 903 1063 863 
Q 1063 663 1183 572 
Q 1303 481 1569 481 
L 2150 481 
L 2053 0 
L 1503 0 
Q 991 0 739 200 
Q 488 400 488 806 
Q 488 878 497 964 
Q 506 1050 525 1153 
L 897 3053 
L 409 3053 
L 500 3500 
L 978 3500 
L 1172 4494 
L 1747 4494 
L 1556 3500 
L 2706 3500 
z
" transform="scale(0.015625)"/>
       <path id="DejaVuSans-29" d="M 513 4856 
L 1013 4856 
Q 1481 4119 1714 3412 
Q 1947 2706 1947 2009 
Q 1947 1309 1714 600 
Q 1481 -109 1013 -844 
L 513 -844 
Q 928 -128 1133 580 
Q 1338 1288 1338 2009 
Q 1338 2731 1133 3434 
Q 928 4138 513 4856 
z
" transform="scale(0.015625)"/>
      </defs>
      <use xlink:href="#DejaVuSans-302" transform="translate(135.682129 33.015625)"/>
      <use xlink:href="#DejaVuSans-Oblique-79" transform="translate(0 0.640625)"/>
      <use xlink:href="#DejaVuSans-28" transform="translate(59.179688 0.640625)"/>
      <use xlink:href="#DejaVuSans-Oblique-74" transform="translate(98.193359 0.640625)"/>
      <use xlink:href="#DejaVuSans-29" transform="translate(137.402344 0.640625)"/>
     </g>
    </g>
    <g id="line2d_22">
     <path d="M 318.582813 67.498437 
L 328.582813 67.498437 
L 338.582813 67.498437 
" style="fill: none; stroke: #ff7f0e; stroke-width: 1.5; stroke-linecap: square"/>
    </g>
    <g id="text_20">
     <!-- $x(t)$ -->
     <g transform="translate(346.582813 70.998437) scale(0.1 -0.1)">
      <defs>
       <path id="DejaVuSans-Oblique-78" d="M 3841 3500 
L 2234 1784 
L 3219 0 
L 2559 0 
L 1819 1388 
L 531 0 
L -166 0 
L 1556 1844 
L 641 3500 
L 1300 3500 
L 1972 2234 
L 3144 3500 
L 3841 3500 
z
" transform="scale(0.015625)"/>
      </defs>
      <use xlink:href="#DejaVuSans-Oblique-78" transform="translate(0 0.125)"/>
      <use xlink:href="#DejaVuSans-28" transform="translate(59.179688 0.125)"/>
      <use xlink:href="#DejaVuSans-Oblique-74" transform="translate(98.193359 0.125)"/>
      <use xlink:href="#DejaVuSans-29" transform="translate(137.402344 0.125)"/>
     </g>
    </g>
   </g>
  </g>
  <g id="text_21">
   <!-- Accumulate to Threshold model with input of -0.2 with rms=10  -->
   <g transform="translate(9.332188 16.318125) scale(0.12 -0.12)">
    <defs>
     <path id="DejaVuSans-41" d="M 2188 4044 
L 1331 1722 
L 3047 1722 
L 2188 4044 
z
M 1831 4666 
L 2547 4666 
L 4325 0 
L 3669 0 
L 3244 1197 
L 1141 1197 
L 716 0 
L 50 0 
L 1831 4666 
z
" transform="scale(0.015625)"/>
     <path id="DejaVuSans-63" d="M 3122 3366 
L 3122 2828 
Q 2878 2963 2633 3030 
Q 2388 3097 2138 3097 
Q 1578 3097 1268 2742 
Q 959 2388 959 1747 
Q 959 1106 1268 751 
Q 1578 397 2138 397 
Q 2388 397 2633 464 
Q 2878 531 3122 666 
L 3122 134 
Q 2881 22 2623 -34 
Q 2366 -91 2075 -91 
Q 1284 -91 818 406 
Q 353 903 353 1747 
Q 353 2603 823 3093 
Q 1294 3584 2113 3584 
Q 2378 3584 2631 3529 
Q 2884 3475 3122 3366 
z
" transform="scale(0.015625)"/>
     <path id="DejaVuSans-75" d="M 544 1381 
L 544 3500 
L 1119 3500 
L 1119 1403 
Q 1119 906 1312 657 
Q 1506 409 1894 409 
Q 2359 409 2629 706 
Q 2900 1003 2900 1516 
L 2900 3500 
L 3475 3500 
L 3475 0 
L 2900 0 
L 2900 538 
Q 2691 219 2414 64 
Q 2138 -91 1772 -91 
Q 1169 -91 856 284 
Q 544 659 544 1381 
z
M 1991 3584 
L 1991 3584 
z
" transform="scale(0.015625)"/>
     <path id="DejaVuSans-6d" d="M 3328 2828 
Q 3544 3216 3844 3400 
Q 4144 3584 4550 3584 
Q 5097 3584 5394 3201 
Q 5691 2819 5691 2113 
L 5691 0 
L 5113 0 
L 5113 2094 
Q 5113 2597 4934 2840 
Q 4756 3084 4391 3084 
Q 3944 3084 3684 2787 
Q 3425 2491 3425 1978 
L 3425 0 
L 2847 0 
L 2847 2094 
Q 2847 2600 2669 2842 
Q 2491 3084 2119 3084 
Q 1678 3084 1418 2786 
Q 1159 2488 1159 1978 
L 1159 0 
L 581 0 
L 581 3500 
L 1159 3500 
L 1159 2956 
Q 1356 3278 1631 3431 
Q 1906 3584 2284 3584 
Q 2666 3584 2933 3390 
Q 3200 3197 3328 2828 
z
" transform="scale(0.015625)"/>
     <path id="DejaVuSans-6c" d="M 603 4863 
L 1178 4863 
L 1178 0 
L 603 0 
L 603 4863 
z
" transform="scale(0.015625)"/>
     <path id="DejaVuSans-61" d="M 2194 1759 
Q 1497 1759 1228 1600 
Q 959 1441 959 1056 
Q 959 750 1161 570 
Q 1363 391 1709 391 
Q 2188 391 2477 730 
Q 2766 1069 2766 1631 
L 2766 1759 
L 2194 1759 
z
M 3341 1997 
L 3341 0 
L 2766 0 
L 2766 531 
Q 2569 213 2275 61 
Q 1981 -91 1556 -91 
Q 1019 -91 701 211 
Q 384 513 384 1019 
Q 384 1609 779 1909 
Q 1175 2209 1959 2209 
L 2766 2209 
L 2766 2266 
Q 2766 2663 2505 2880 
Q 2244 3097 1772 3097 
Q 1472 3097 1187 3025 
Q 903 2953 641 2809 
L 641 3341 
Q 956 3463 1253 3523 
Q 1550 3584 1831 3584 
Q 2591 3584 2966 3190 
Q 3341 2797 3341 1997 
z
" transform="scale(0.015625)"/>
     <path id="DejaVuSans-74" d="M 1172 4494 
L 1172 3500 
L 2356 3500 
L 2356 3053 
L 1172 3053 
L 1172 1153 
Q 1172 725 1289 603 
Q 1406 481 1766 481 
L 2356 481 
L 2356 0 
L 1766 0 
Q 1100 0 847 248 
Q 594 497 594 1153 
L 594 3053 
L 172 3053 
L 172 3500 
L 594 3500 
L 594 4494 
L 1172 4494 
z
" transform="scale(0.015625)"/>
     <path id="DejaVuSans-65" d="M 3597 1894 
L 3597 1613 
L 953 1613 
Q 991 1019 1311 708 
Q 1631 397 2203 397 
Q 2534 397 2845 478 
Q 3156 559 3463 722 
L 3463 178 
Q 3153 47 2828 -22 
Q 2503 -91 2169 -91 
Q 1331 -91 842 396 
Q 353 884 353 1716 
Q 353 2575 817 3079 
Q 1281 3584 2069 3584 
Q 2775 3584 3186 3129 
Q 3597 2675 3597 1894 
z
M 3022 2063 
Q 3016 2534 2758 2815 
Q 2500 3097 2075 3097 
Q 1594 3097 1305 2825 
Q 1016 2553 972 2059 
L 3022 2063 
z
" transform="scale(0.015625)"/>
     <path id="DejaVuSans-20" transform="scale(0.015625)"/>
     <path id="DejaVuSans-6f" d="M 1959 3097 
Q 1497 3097 1228 2736 
Q 959 2375 959 1747 
Q 959 1119 1226 758 
Q 1494 397 1959 397 
Q 2419 397 2687 759 
Q 2956 1122 2956 1747 
Q 2956 2369 2687 2733 
Q 2419 3097 1959 3097 
z
M 1959 3584 
Q 2709 3584 3137 3096 
Q 3566 2609 3566 1747 
Q 3566 888 3137 398 
Q 2709 -91 1959 -91 
Q 1206 -91 779 398 
Q 353 888 353 1747 
Q 353 2609 779 3096 
Q 1206 3584 1959 3584 
z
" transform="scale(0.015625)"/>
     <path id="DejaVuSans-54" d="M -19 4666 
L 3928 4666 
L 3928 4134 
L 2272 4134 
L 2272 0 
L 1638 0 
L 1638 4134 
L -19 4134 
L -19 4666 
z
" transform="scale(0.015625)"/>
     <path id="DejaVuSans-68" d="M 3513 2113 
L 3513 0 
L 2938 0 
L 2938 2094 
Q 2938 2591 2744 2837 
Q 2550 3084 2163 3084 
Q 1697 3084 1428 2787 
Q 1159 2491 1159 1978 
L 1159 0 
L 581 0 
L 581 4863 
L 1159 4863 
L 1159 2956 
Q 1366 3272 1645 3428 
Q 1925 3584 2291 3584 
Q 2894 3584 3203 3211 
Q 3513 2838 3513 2113 
z
" transform="scale(0.015625)"/>
     <path id="DejaVuSans-72" d="M 2631 2963 
Q 2534 3019 2420 3045 
Q 2306 3072 2169 3072 
Q 1681 3072 1420 2755 
Q 1159 2438 1159 1844 
L 1159 0 
L 581 0 
L 581 3500 
L 1159 3500 
L 1159 2956 
Q 1341 3275 1631 3429 
Q 1922 3584 2338 3584 
Q 2397 3584 2469 3576 
Q 2541 3569 2628 3553 
L 2631 2963 
z
" transform="scale(0.015625)"/>
     <path id="DejaVuSans-73" d="M 2834 3397 
L 2834 2853 
Q 2591 2978 2328 3040 
Q 2066 3103 1784 3103 
Q 1356 3103 1142 2972 
Q 928 2841 928 2578 
Q 928 2378 1081 2264 
Q 1234 2150 1697 2047 
L 1894 2003 
Q 2506 1872 2764 1633 
Q 3022 1394 3022 966 
Q 3022 478 2636 193 
Q 2250 -91 1575 -91 
Q 1294 -91 989 -36 
Q 684 19 347 128 
L 347 722 
Q 666 556 975 473 
Q 1284 391 1588 391 
Q 1994 391 2212 530 
Q 2431 669 2431 922 
Q 2431 1156 2273 1281 
Q 2116 1406 1581 1522 
L 1381 1569 
Q 847 1681 609 1914 
Q 372 2147 372 2553 
Q 372 3047 722 3315 
Q 1072 3584 1716 3584 
Q 2034 3584 2315 3537 
Q 2597 3491 2834 3397 
z
" transform="scale(0.015625)"/>
     <path id="DejaVuSans-64" d="M 2906 2969 
L 2906 4863 
L 3481 4863 
L 3481 0 
L 2906 0 
L 2906 525 
Q 2725 213 2448 61 
Q 2172 -91 1784 -91 
Q 1150 -91 751 415 
Q 353 922 353 1747 
Q 353 2572 751 3078 
Q 1150 3584 1784 3584 
Q 2172 3584 2448 3432 
Q 2725 3281 2906 2969 
z
M 947 1747 
Q 947 1113 1208 752 
Q 1469 391 1925 391 
Q 2381 391 2643 752 
Q 2906 1113 2906 1747 
Q 2906 2381 2643 2742 
Q 2381 3103 1925 3103 
Q 1469 3103 1208 2742 
Q 947 2381 947 1747 
z
" transform="scale(0.015625)"/>
     <path id="DejaVuSans-77" d="M 269 3500 
L 844 3500 
L 1563 769 
L 2278 3500 
L 2956 3500 
L 3675 769 
L 4391 3500 
L 4966 3500 
L 4050 0 
L 3372 0 
L 2619 2869 
L 1863 0 
L 1184 0 
L 269 3500 
z
" transform="scale(0.015625)"/>
     <path id="DejaVuSans-69" d="M 603 3500 
L 1178 3500 
L 1178 0 
L 603 0 
L 603 3500 
z
M 603 4863 
L 1178 4863 
L 1178 4134 
L 603 4134 
L 603 4863 
z
" transform="scale(0.015625)"/>
     <path id="DejaVuSans-6e" d="M 3513 2113 
L 3513 0 
L 2938 0 
L 2938 2094 
Q 2938 2591 2744 2837 
Q 2550 3084 2163 3084 
Q 1697 3084 1428 2787 
Q 1159 2491 1159 1978 
L 1159 0 
L 581 0 
L 581 3500 
L 1159 3500 
L 1159 2956 
Q 1366 3272 1645 3428 
Q 1925 3584 2291 3584 
Q 2894 3584 3203 3211 
Q 3513 2838 3513 2113 
z
" transform="scale(0.015625)"/>
     <path id="DejaVuSans-70" d="M 1159 525 
L 1159 -1331 
L 581 -1331 
L 581 3500 
L 1159 3500 
L 1159 2969 
Q 1341 3281 1617 3432 
Q 1894 3584 2278 3584 
Q 2916 3584 3314 3078 
Q 3713 2572 3713 1747 
Q 3713 922 3314 415 
Q 2916 -91 2278 -91 
Q 1894 -91 1617 61 
Q 1341 213 1159 525 
z
M 3116 1747 
Q 3116 2381 2855 2742 
Q 2594 3103 2138 3103 
Q 1681 3103 1420 2742 
Q 1159 2381 1159 1747 
Q 1159 1113 1420 752 
Q 1681 391 2138 391 
Q 2594 391 2855 752 
Q 3116 1113 3116 1747 
z
" transform="scale(0.015625)"/>
     <path id="DejaVuSans-66" d="M 2375 4863 
L 2375 4384 
L 1825 4384 
Q 1516 4384 1395 4259 
Q 1275 4134 1275 3809 
L 1275 3500 
L 2222 3500 
L 2222 3053 
L 1275 3053 
L 1275 0 
L 697 0 
L 697 3053 
L 147 3053 
L 147 3500 
L 697 3500 
L 697 3744 
Q 697 4328 969 4595 
Q 1241 4863 1831 4863 
L 2375 4863 
z
" transform="scale(0.015625)"/>
     <path id="DejaVuSans-2d" d="M 313 2009 
L 1997 2009 
L 1997 1497 
L 313 1497 
L 313 2009 
z
" transform="scale(0.015625)"/>
     <path id="DejaVuSans-3d" d="M 678 2906 
L 4684 2906 
L 4684 2381 
L 678 2381 
L 678 2906 
z
M 678 1631 
L 4684 1631 
L 4684 1100 
L 678 1100 
L 678 1631 
z
" transform="scale(0.015625)"/>
    </defs>
    <use xlink:href="#DejaVuSans-41"/>
    <use xlink:href="#DejaVuSans-63" x="66.658203"/>
    <use xlink:href="#DejaVuSans-63" x="121.638672"/>
    <use xlink:href="#DejaVuSans-75" x="176.619141"/>
    <use xlink:href="#DejaVuSans-6d" x="239.998047"/>
    <use xlink:href="#DejaVuSans-75" x="337.410156"/>
    <use xlink:href="#DejaVuSans-6c" x="400.789062"/>
    <use xlink:href="#DejaVuSans-61" x="428.572266"/>
    <use xlink:href="#DejaVuSans-74" x="489.851562"/>
    <use xlink:href="#DejaVuSans-65" x="529.060547"/>
    <use xlink:href="#DejaVuSans-20" x="590.583984"/>
    <use xlink:href="#DejaVuSans-74" x="622.371094"/>
    <use xlink:href="#DejaVuSans-6f" x="661.580078"/>
    <use xlink:href="#DejaVuSans-20" x="722.761719"/>
    <use xlink:href="#DejaVuSans-54" x="754.548828"/>
    <use xlink:href="#DejaVuSans-68" x="815.632812"/>
    <use xlink:href="#DejaVuSans-72" x="879.011719"/>
    <use xlink:href="#DejaVuSans-65" x="917.875"/>
    <use xlink:href="#DejaVuSans-73" x="979.398438"/>
    <use xlink:href="#DejaVuSans-68" x="1031.498047"/>
    <use xlink:href="#DejaVuSans-6f" x="1094.876953"/>
    <use xlink:href="#DejaVuSans-6c" x="1156.058594"/>
    <use xlink:href="#DejaVuSans-64" x="1183.841797"/>
    <use xlink:href="#DejaVuSans-20" x="1247.318359"/>
    <use xlink:href="#DejaVuSans-6d" x="1279.105469"/>
    <use xlink:href="#DejaVuSans-6f" x="1376.517578"/>
    <use xlink:href="#DejaVuSans-64" x="1437.699219"/>
    <use xlink:href="#DejaVuSans-65" x="1501.175781"/>
    <use xlink:href="#DejaVuSans-6c" x="1562.699219"/>
    <use xlink:href="#DejaVuSans-20" x="1590.482422"/>
    <use xlink:href="#DejaVuSans-77" x="1622.269531"/>
    <use xlink:href="#DejaVuSans-69" x="1704.056641"/>
    <use xlink:href="#DejaVuSans-74" x="1731.839844"/>
    <use xlink:href="#DejaVuSans-68" x="1771.048828"/>
    <use xlink:href="#DejaVuSans-20" x="1834.427734"/>
    <use xlink:href="#DejaVuSans-69" x="1866.214844"/>
    <use xlink:href="#DejaVuSans-6e" x="1893.998047"/>
    <use xlink:href="#DejaVuSans-70" x="1957.376953"/>
    <use xlink:href="#DejaVuSans-75" x="2020.853516"/>
    <use xlink:href="#DejaVuSans-74" x="2084.232422"/>
    <use xlink:href="#DejaVuSans-20" x="2123.441406"/>
    <use xlink:href="#DejaVuSans-6f" x="2155.228516"/>
    <use xlink:href="#DejaVuSans-66" x="2216.410156"/>
    <use xlink:href="#DejaVuSans-20" x="2251.615234"/>
    <use xlink:href="#DejaVuSans-2d" x="2283.402344"/>
    <use xlink:href="#DejaVuSans-30" x="2319.486328"/>
    <use xlink:href="#DejaVuSans-2e" x="2383.109375"/>
    <use xlink:href="#DejaVuSans-32" x="2414.896484"/>
    <use xlink:href="#DejaVuSans-20" x="2478.519531"/>
    <use xlink:href="#DejaVuSans-77" x="2510.306641"/>
    <use xlink:href="#DejaVuSans-69" x="2592.09375"/>
    <use xlink:href="#DejaVuSans-74" x="2619.876953"/>
    <use xlink:href="#DejaVuSans-68" x="2659.085938"/>
    <use xlink:href="#DejaVuSans-20" x="2722.464844"/>
    <use xlink:href="#DejaVuSans-72" x="2754.251953"/>
    <use xlink:href="#DejaVuSans-6d" x="2793.615234"/>
    <use xlink:href="#DejaVuSans-73" x="2891.027344"/>
    <use xlink:href="#DejaVuSans-3d" x="2943.126953"/>
    <use xlink:href="#DejaVuSans-31" x="3026.916016"/>
    <use xlink:href="#DejaVuSans-30" x="3090.539062"/>
    <use xlink:href="#DejaVuSans-20" x="3154.162109"/>
   </g>
  </g>
 </g>
 <defs>
  <clipPath id="p1fe95faeee">
   <rect x="38.482813" y="36" width="334.8" height="217.44"/>
  </clipPath>
 </defs>
</svg>
