<?xml version="1.0" encoding="utf-8" standalone="no"?>
<!DOCTYPE svg PUBLIC "-//W3C//DTD SVG 1.1//EN"
  "http://www.w3.org/Graphics/SVG/1.1/DTD/svg11.dtd">
<svg xmlns:xlink="http://www.w3.org/1999/xlink" width="395.015937pt" height="290.99625pt" viewBox="0 0 395.015937 290.99625" xmlns="http://www.w3.org/2000/svg" version="1.1">
 <metadata>
  <rdf:RDF xmlns:dc="http://purl.org/dc/elements/1.1/" xmlns:cc="http://creativecommons.org/ns#" xmlns:rdf="http://www.w3.org/1999/02/22-rdf-syntax-ns#">
   <cc:Work>
    <dc:type rdf:resource="http://purl.org/dc/dcmitype/StillImage"/>
    <dc:date>2022-11-19T22:55:02.089044</dc:date>
    <dc:format>image/svg+xml</dc:format>
    <dc:creator>
     <cc:Agent>
      <dc:title>Matplotlib v3.6.0, https://matplotlib.org/</dc:title>
     </cc:Agent>
    </dc:creator>
   </cc:Work>
  </rdf:RDF>
 </metadata>
 <defs>
  <style type="text/css">*{stroke-linejoin: round; stroke-linecap: butt}</style>
 </defs>
 <g id="figure_1">
  <g id="patch_1">
   <path d="M -0 290.99625 
L 395.015937 290.99625 
L 395.015937 0 
L -0 0 
L -0 290.99625 
z
" style="fill: none"/>
  </g>
  <g id="axes_1">
   <g id="patch_2">
    <path d="M 38.482813 253.44 
L 373.282813 253.44 
L 373.282813 36 
L 38.482813 36 
z
" style="fill: #ffffff"/>
   </g>
   <g id="matplotlib.axis_1">
    <g id="xtick_1">
     <g id="line2d_1">
      <defs>
       <path id="m541d54a222" d="M 0 0 
L 0 3.5 
" style="stroke: #000000; stroke-width: 0.8"/>
      </defs>
      <g>
       <use xlink:href="#m541d54a222" x="38.482813" y="253.44" style="stroke: #000000; stroke-width: 0.8"/>
      </g>
     </g>
     <g id="text_1">
      <!-- 0.00 -->
      <g transform="translate(27.35 268.038437) scale(0.1 -0.1)">
       <defs>
        <path id="DejaVuSans-30" d="M 2034 4250 
Q 1547 4250 1301 3770 
Q 1056 3291 1056 2328 
Q 1056 1369 1301 889 
Q 1547 409 2034 409 
Q 2525 409 2770 889 
Q 3016 1369 3016 2328 
Q 3016 3291 2770 3770 
Q 2525 4250 2034 4250 
z
M 2034 4750 
Q 2819 4750 3233 4129 
Q 3647 3509 3647 2328 
Q 3647 1150 3233 529 
Q 2819 -91 2034 -91 
Q 1250 -91 836 529 
Q 422 1150 422 2328 
Q 422 3509 836 4129 
Q 1250 4750 2034 4750 
z
" transform="scale(0.015625)"/>
        <path id="DejaVuSans-2e" d="M 684 794 
L 1344 794 
L 1344 0 
L 684 0 
L 684 794 
z
" transform="scale(0.015625)"/>
       </defs>
       <use xlink:href="#DejaVuSans-30"/>
       <use xlink:href="#DejaVuSans-2e" x="63.623047"/>
       <use xlink:href="#DejaVuSans-30" x="95.410156"/>
       <use xlink:href="#DejaVuSans-30" x="159.033203"/>
      </g>
     </g>
    </g>
    <g id="xtick_2">
     <g id="line2d_2">
      <g>
       <use xlink:href="#m541d54a222" x="80.332813" y="253.44" style="stroke: #000000; stroke-width: 0.8"/>
      </g>
     </g>
     <g id="text_2">
      <!-- 0.25 -->
      <g transform="translate(69.2 268.038437) scale(0.1 -0.1)">
       <defs>
        <path id="DejaVuSans-32" d="M 1228 531 
L 3431 531 
L 3431 0 
L 469 0 
L 469 531 
Q 828 903 1448 1529 
Q 2069 2156 2228 2338 
Q 2531 2678 2651 2914 
Q 2772 3150 2772 3378 
Q 2772 3750 2511 3984 
Q 2250 4219 1831 4219 
Q 1534 4219 1204 4116 
Q 875 4013 500 3803 
L 500 4441 
Q 881 4594 1212 4672 
Q 1544 4750 1819 4750 
Q 2544 4750 2975 4387 
Q 3406 4025 3406 3419 
Q 3406 3131 3298 2873 
Q 3191 2616 2906 2266 
Q 2828 2175 2409 1742 
Q 1991 1309 1228 531 
z
" transform="scale(0.015625)"/>
        <path id="DejaVuSans-35" d="M 691 4666 
L 3169 4666 
L 3169 4134 
L 1269 4134 
L 1269 2991 
Q 1406 3038 1543 3061 
Q 1681 3084 1819 3084 
Q 2600 3084 3056 2656 
Q 3513 2228 3513 1497 
Q 3513 744 3044 326 
Q 2575 -91 1722 -91 
Q 1428 -91 1123 -41 
Q 819 9 494 109 
L 494 744 
Q 775 591 1075 516 
Q 1375 441 1709 441 
Q 2250 441 2565 725 
Q 2881 1009 2881 1497 
Q 2881 1984 2565 2268 
Q 2250 2553 1709 2553 
Q 1456 2553 1204 2497 
Q 953 2441 691 2322 
L 691 4666 
z
" transform="scale(0.015625)"/>
       </defs>
       <use xlink:href="#DejaVuSans-30"/>
       <use xlink:href="#DejaVuSans-2e" x="63.623047"/>
       <use xlink:href="#DejaVuSans-32" x="95.410156"/>
       <use xlink:href="#DejaVuSans-35" x="159.033203"/>
      </g>
     </g>
    </g>
    <g id="xtick_3">
     <g id="line2d_3">
      <g>
       <use xlink:href="#m541d54a222" x="122.182813" y="253.44" style="stroke: #000000; stroke-width: 0.8"/>
      </g>
     </g>
     <g id="text_3">
      <!-- 0.50 -->
      <g transform="translate(111.05 268.038437) scale(0.1 -0.1)">
       <use xlink:href="#DejaVuSans-30"/>
       <use xlink:href="#DejaVuSans-2e" x="63.623047"/>
       <use xlink:href="#DejaVuSans-35" x="95.410156"/>
       <use xlink:href="#DejaVuSans-30" x="159.033203"/>
      </g>
     </g>
    </g>
    <g id="xtick_4">
     <g id="line2d_4">
      <g>
       <use xlink:href="#m541d54a222" x="164.032813" y="253.44" style="stroke: #000000; stroke-width: 0.8"/>
      </g>
     </g>
     <g id="text_4">
      <!-- 0.75 -->
      <g transform="translate(152.9 268.038437) scale(0.1 -0.1)">
       <defs>
        <path id="DejaVuSans-37" d="M 525 4666 
L 3525 4666 
L 3525 4397 
L 1831 0 
L 1172 0 
L 2766 4134 
L 525 4134 
L 525 4666 
z
" transform="scale(0.015625)"/>
       </defs>
       <use xlink:href="#DejaVuSans-30"/>
       <use xlink:href="#DejaVuSans-2e" x="63.623047"/>
       <use xlink:href="#DejaVuSans-37" x="95.410156"/>
       <use xlink:href="#DejaVuSans-35" x="159.033203"/>
      </g>
     </g>
    </g>
    <g id="xtick_5">
     <g id="line2d_5">
      <g>
       <use xlink:href="#m541d54a222" x="205.882812" y="253.44" style="stroke: #000000; stroke-width: 0.8"/>
      </g>
     </g>
     <g id="text_5">
      <!-- 1.00 -->
      <g transform="translate(194.75 268.038437) scale(0.1 -0.1)">
       <defs>
        <path id="DejaVuSans-31" d="M 794 531 
L 1825 531 
L 1825 4091 
L 703 3866 
L 703 4441 
L 1819 4666 
L 2450 4666 
L 2450 531 
L 3481 531 
L 3481 0 
L 794 0 
L 794 531 
z
" transform="scale(0.015625)"/>
       </defs>
       <use xlink:href="#DejaVuSans-31"/>
       <use xlink:href="#DejaVuSans-2e" x="63.623047"/>
       <use xlink:href="#DejaVuSans-30" x="95.410156"/>
       <use xlink:href="#DejaVuSans-30" x="159.033203"/>
      </g>
     </g>
    </g>
    <g id="xtick_6">
     <g id="line2d_6">
      <g>
       <use xlink:href="#m541d54a222" x="247.732812" y="253.44" style="stroke: #000000; stroke-width: 0.8"/>
      </g>
     </g>
     <g id="text_6">
      <!-- 1.25 -->
      <g transform="translate(236.6 268.038437) scale(0.1 -0.1)">
       <use xlink:href="#DejaVuSans-31"/>
       <use xlink:href="#DejaVuSans-2e" x="63.623047"/>
       <use xlink:href="#DejaVuSans-32" x="95.410156"/>
       <use xlink:href="#DejaVuSans-35" x="159.033203"/>
      </g>
     </g>
    </g>
    <g id="xtick_7">
     <g id="line2d_7">
      <g>
       <use xlink:href="#m541d54a222" x="289.582813" y="253.44" style="stroke: #000000; stroke-width: 0.8"/>
      </g>
     </g>
     <g id="text_7">
      <!-- 1.50 -->
      <g transform="translate(278.45 268.038437) scale(0.1 -0.1)">
       <use xlink:href="#DejaVuSans-31"/>
       <use xlink:href="#DejaVuSans-2e" x="63.623047"/>
       <use xlink:href="#DejaVuSans-35" x="95.410156"/>
       <use xlink:href="#DejaVuSans-30" x="159.033203"/>
      </g>
     </g>
    </g>
    <g id="xtick_8">
     <g id="line2d_8">
      <g>
       <use xlink:href="#m541d54a222" x="331.432813" y="253.44" style="stroke: #000000; stroke-width: 0.8"/>
      </g>
     </g>
     <g id="text_8">
      <!-- 1.75 -->
      <g transform="translate(320.3 268.038437) scale(0.1 -0.1)">
       <use xlink:href="#DejaVuSans-31"/>
       <use xlink:href="#DejaVuSans-2e" x="63.623047"/>
       <use xlink:href="#DejaVuSans-37" x="95.410156"/>
       <use xlink:href="#DejaVuSans-35" x="159.033203"/>
      </g>
     </g>
    </g>
    <g id="xtick_9">
     <g id="line2d_9">
      <g>
       <use xlink:href="#m541d54a222" x="373.282813" y="253.44" style="stroke: #000000; stroke-width: 0.8"/>
      </g>
     </g>
     <g id="text_9">
      <!-- 2.00 -->
      <g transform="translate(362.15 268.038437) scale(0.1 -0.1)">
       <use xlink:href="#DejaVuSans-32"/>
       <use xlink:href="#DejaVuSans-2e" x="63.623047"/>
       <use xlink:href="#DejaVuSans-30" x="95.410156"/>
       <use xlink:href="#DejaVuSans-30" x="159.033203"/>
      </g>
     </g>
    </g>
    <g id="text_10">
     <!-- $t$ -->
     <g transform="translate(203.882812 281.716562) scale(0.1 -0.1)">
      <defs>
       <path id="DejaVuSans-Oblique-74" d="M 2706 3500 
L 2619 3053 
L 1472 3053 
L 1100 1153 
Q 1081 1047 1072 975 
Q 1063 903 1063 863 
Q 1063 663 1183 572 
Q 1303 481 1569 481 
L 2150 481 
L 2053 0 
L 1503 0 
Q 991 0 739 200 
Q 488 400 488 806 
Q 488 878 497 964 
Q 506 1050 525 1153 
L 897 3053 
L 409 3053 
L 500 3500 
L 978 3500 
L 1172 4494 
L 1747 4494 
L 1556 3500 
L 2706 3500 
z
" transform="scale(0.015625)"/>
      </defs>
      <use xlink:href="#DejaVuSans-Oblique-74" transform="translate(0 0.78125)"/>
     </g>
    </g>
   </g>
   <g id="matplotlib.axis_2">
    <g id="ytick_1">
     <g id="line2d_10">
      <defs>
       <path id="mca1961f54b" d="M 0 0 
L -3.5 0 
" style="stroke: #000000; stroke-width: 0.8"/>
      </defs>
      <g>
       <use xlink:href="#mca1961f54b" x="38.482813" y="231.603355" style="stroke: #000000; stroke-width: 0.8"/>
      </g>
     </g>
     <g id="text_11">
      <!-- −1.0 -->
      <g transform="translate(7.2 235.402574) scale(0.1 -0.1)">
       <defs>
        <path id="DejaVuSans-2212" d="M 678 2272 
L 4684 2272 
L 4684 1741 
L 678 1741 
L 678 2272 
z
" transform="scale(0.015625)"/>
       </defs>
       <use xlink:href="#DejaVuSans-2212"/>
       <use xlink:href="#DejaVuSans-31" x="83.789062"/>
       <use xlink:href="#DejaVuSans-2e" x="147.412109"/>
       <use xlink:href="#DejaVuSans-30" x="179.199219"/>
      </g>
     </g>
    </g>
    <g id="ytick_2">
     <g id="line2d_11">
      <g>
       <use xlink:href="#mca1961f54b" x="38.482813" y="196.204351" style="stroke: #000000; stroke-width: 0.8"/>
      </g>
     </g>
     <g id="text_12">
      <!-- −0.8 -->
      <g transform="translate(7.2 200.00357) scale(0.1 -0.1)">
       <defs>
        <path id="DejaVuSans-38" d="M 2034 2216 
Q 1584 2216 1326 1975 
Q 1069 1734 1069 1313 
Q 1069 891 1326 650 
Q 1584 409 2034 409 
Q 2484 409 2743 651 
Q 3003 894 3003 1313 
Q 3003 1734 2745 1975 
Q 2488 2216 2034 2216 
z
M 1403 2484 
Q 997 2584 770 2862 
Q 544 3141 544 3541 
Q 544 4100 942 4425 
Q 1341 4750 2034 4750 
Q 2731 4750 3128 4425 
Q 3525 4100 3525 3541 
Q 3525 3141 3298 2862 
Q 3072 2584 2669 2484 
Q 3125 2378 3379 2068 
Q 3634 1759 3634 1313 
Q 3634 634 3220 271 
Q 2806 -91 2034 -91 
Q 1263 -91 848 271 
Q 434 634 434 1313 
Q 434 1759 690 2068 
Q 947 2378 1403 2484 
z
M 1172 3481 
Q 1172 3119 1398 2916 
Q 1625 2713 2034 2713 
Q 2441 2713 2670 2916 
Q 2900 3119 2900 3481 
Q 2900 3844 2670 4047 
Q 2441 4250 2034 4250 
Q 1625 4250 1398 4047 
Q 1172 3844 1172 3481 
z
" transform="scale(0.015625)"/>
       </defs>
       <use xlink:href="#DejaVuSans-2212"/>
       <use xlink:href="#DejaVuSans-30" x="83.789062"/>
       <use xlink:href="#DejaVuSans-2e" x="147.412109"/>
       <use xlink:href="#DejaVuSans-38" x="179.199219"/>
      </g>
     </g>
    </g>
    <g id="ytick_3">
     <g id="line2d_12">
      <g>
       <use xlink:href="#mca1961f54b" x="38.482813" y="160.805347" style="stroke: #000000; stroke-width: 0.8"/>
      </g>
     </g>
     <g id="text_13">
      <!-- −0.6 -->
      <g transform="translate(7.2 164.604566) scale(0.1 -0.1)">
       <defs>
        <path id="DejaVuSans-36" d="M 2113 2584 
Q 1688 2584 1439 2293 
Q 1191 2003 1191 1497 
Q 1191 994 1439 701 
Q 1688 409 2113 409 
Q 2538 409 2786 701 
Q 3034 994 3034 1497 
Q 3034 2003 2786 2293 
Q 2538 2584 2113 2584 
z
M 3366 4563 
L 3366 3988 
Q 3128 4100 2886 4159 
Q 2644 4219 2406 4219 
Q 1781 4219 1451 3797 
Q 1122 3375 1075 2522 
Q 1259 2794 1537 2939 
Q 1816 3084 2150 3084 
Q 2853 3084 3261 2657 
Q 3669 2231 3669 1497 
Q 3669 778 3244 343 
Q 2819 -91 2113 -91 
Q 1303 -91 875 529 
Q 447 1150 447 2328 
Q 447 3434 972 4092 
Q 1497 4750 2381 4750 
Q 2619 4750 2861 4703 
Q 3103 4656 3366 4563 
z
" transform="scale(0.015625)"/>
       </defs>
       <use xlink:href="#DejaVuSans-2212"/>
       <use xlink:href="#DejaVuSans-30" x="83.789062"/>
       <use xlink:href="#DejaVuSans-2e" x="147.412109"/>
       <use xlink:href="#DejaVuSans-36" x="179.199219"/>
      </g>
     </g>
    </g>
    <g id="ytick_4">
     <g id="line2d_13">
      <g>
       <use xlink:href="#mca1961f54b" x="38.482813" y="125.406343" style="stroke: #000000; stroke-width: 0.8"/>
      </g>
     </g>
     <g id="text_14">
      <!-- −0.4 -->
      <g transform="translate(7.2 129.205562) scale(0.1 -0.1)">
       <defs>
        <path id="DejaVuSans-34" d="M 2419 4116 
L 825 1625 
L 2419 1625 
L 2419 4116 
z
M 2253 4666 
L 3047 4666 
L 3047 1625 
L 3713 1625 
L 3713 1100 
L 3047 1100 
L 3047 0 
L 2419 0 
L 2419 1100 
L 313 1100 
L 313 1709 
L 2253 4666 
z
" transform="scale(0.015625)"/>
       </defs>
       <use xlink:href="#DejaVuSans-2212"/>
       <use xlink:href="#DejaVuSans-30" x="83.789062"/>
       <use xlink:href="#DejaVuSans-2e" x="147.412109"/>
       <use xlink:href="#DejaVuSans-34" x="179.199219"/>
      </g>
     </g>
    </g>
    <g id="ytick_5">
     <g id="line2d_14">
      <g>
       <use xlink:href="#mca1961f54b" x="38.482813" y="90.007339" style="stroke: #000000; stroke-width: 0.8"/>
      </g>
     </g>
     <g id="text_15">
      <!-- −0.2 -->
      <g transform="translate(7.2 93.806558) scale(0.1 -0.1)">
       <use xlink:href="#DejaVuSans-2212"/>
       <use xlink:href="#DejaVuSans-30" x="83.789062"/>
       <use xlink:href="#DejaVuSans-2e" x="147.412109"/>
       <use xlink:href="#DejaVuSans-32" x="179.199219"/>
      </g>
     </g>
    </g>
    <g id="ytick_6">
     <g id="line2d_15">
      <g>
       <use xlink:href="#mca1961f54b" x="38.482813" y="54.608335" style="stroke: #000000; stroke-width: 0.8"/>
      </g>
     </g>
     <g id="text_16">
      <!-- 0.0 -->
      <g transform="translate(15.579688 58.407554) scale(0.1 -0.1)">
       <use xlink:href="#DejaVuSans-30"/>
       <use xlink:href="#DejaVuSans-2e" x="63.623047"/>
       <use xlink:href="#DejaVuSans-30" x="95.410156"/>
      </g>
     </g>
    </g>
   </g>
   <g id="line2d_16">
    <path d="M 38.650213 54.608335 
L 38.817613 51.723269 
L 38.985013 52.755224 
L 39.152413 45.883636 
L 39.319813 46.95609 
L 39.487212 54.668626 
L 39.822012 55.687315 
L 39.989413 55.688818 
L 40.156813 48.416306 
L 40.324213 48.037858 
L 40.491613 51.276477 
L 40.659013 57.38681 
L 40.826413 56.148409 
L 40.993813 49.61215 
L 41.161213 53.357521 
L 41.328612 63.41799 
L 41.496012 59.378883 
L 41.663412 63.975224 
L 41.830813 54.79835 
L 42.165613 63.754558 
L 42.333013 60.42792 
L 42.500413 61.841154 
L 42.667813 59.400084 
L 43.002612 50.546103 
L 43.337412 67.297153 
L 43.504812 63.981252 
L 43.672213 55.742784 
L 43.839613 63.377492 
L 44.341813 61.760281 
L 44.509213 63.25649 
L 44.676613 62.433509 
L 44.844013 68.818182 
L 45.011412 58.138602 
L 45.346213 66.050658 
L 45.513613 66.745498 
L 45.681013 59.43587 
L 46.015813 69.751744 
L 46.183213 68.394119 
L 46.350613 69.075263 
L 46.518012 68.548979 
L 46.685412 69.320536 
L 46.852812 66.221463 
L 47.020212 65.254067 
L 47.187613 65.511834 
L 47.355013 67.176142 
L 47.522413 72.401157 
L 47.689813 72.61054 
L 47.857213 70.319907 
L 48.024613 71.64604 
L 48.192013 70.384615 
L 48.359413 70.485379 
L 48.526813 77.702338 
L 48.861612 66.656444 
L 49.029013 76.757653 
L 49.363813 70.127196 
L 49.531213 80.540777 
L 49.698613 80.07971 
L 49.866013 72.988864 
L 50.033413 76.17438 
L 50.368213 75.625912 
L 50.535612 73.78376 
L 50.703012 81.648005 
L 51.037813 68.034064 
L 51.205213 71.879043 
L 51.372613 81.818965 
L 51.540013 81.705054 
L 51.707413 85.577518 
L 52.042213 80.656353 
L 52.377013 87.454428 
L 52.711813 77.275201 
L 53.046613 80.194365 
L 53.214013 88.115639 
L 53.548813 85.279846 
L 53.716212 83.809775 
L 53.883612 79.261399 
L 54.051012 91.460183 
L 54.218412 88.951482 
L 54.385813 88.672812 
L 54.553213 92.908817 
L 54.720613 85.207536 
L 54.888013 86.376175 
L 55.055413 85.264484 
L 55.390213 91.063537 
L 55.557613 96.365192 
L 55.725013 91.928488 
L 55.892413 80.618322 
L 56.227213 94.286239 
L 56.394613 90.668322 
L 56.562013 93.882941 
L 56.729413 91.778246 
L 56.896813 94.215027 
L 57.064213 84.976711 
L 57.399012 95.016676 
L 57.566412 91.99943 
L 57.901212 99.769507 
L 58.236013 89.00415 
L 58.403413 100.621825 
L 58.905613 83.266688 
L 59.240413 96.953506 
L 59.407813 98.390307 
L 59.575213 98.689425 
L 59.742613 100.427304 
L 59.910013 95.580888 
L 60.077413 94.181264 
L 60.244813 101.689615 
L 60.412213 96.262372 
L 60.579613 94.935786 
L 60.747013 104.665958 
L 60.914413 102.710655 
L 61.081813 94.425594 
L 61.249212 96.479984 
L 61.416612 96.890861 
L 61.584013 93.670547 
L 61.918813 101.009184 
L 62.086213 101.708715 
L 62.253613 102.969215 
L 62.421013 102.568225 
L 62.588413 102.829387 
L 62.755813 102.873292 
L 62.923213 100.662234 
L 63.090613 102.901905 
L 63.425413 100.598772 
L 63.592813 102.555505 
L 63.760213 101.316591 
L 63.927613 103.544822 
L 64.262413 100.030943 
L 64.429812 100.220695 
L 64.597212 96.134559 
L 64.764612 112.467426 
L 64.932012 113.041299 
L 65.266813 98.956749 
L 65.434213 107.801978 
L 65.601613 104.990749 
L 65.769013 104.920995 
L 65.936413 106.763831 
L 66.103813 113.52367 
L 66.271213 111.637904 
L 66.606013 100.765904 
L 66.773413 103.955205 
L 67.108213 112.337301 
L 67.275613 115.803482 
L 67.610413 107.829926 
L 67.777813 106.061519 
L 67.945212 105.550097 
L 68.112612 113.684152 
L 68.280012 109.776032 
L 68.447412 114.84183 
L 68.614812 115.684474 
L 68.949613 102.575715 
L 69.284413 110.969329 
L 69.451813 112.287978 
L 69.619213 111.415425 
L 69.786613 118.062375 
L 69.954013 104.665808 
L 70.121413 107.633759 
L 70.288813 118.713958 
L 70.456213 116.330224 
L 70.623613 116.124182 
L 70.791012 118.57269 
L 71.125812 106.130879 
L 71.293213 109.053123 
L 71.460612 120.368154 
L 71.628013 120.819283 
L 71.795412 114.534831 
L 71.962813 113.141492 
L 72.130212 124.478584 
L 72.297613 122.390155 
L 72.632413 114.063046 
L 72.967213 125.557313 
L 73.469413 119.784703 
L 73.636812 116.837476 
L 73.804213 123.411322 
L 73.971612 118.772421 
L 74.139013 130.120021 
L 74.473813 118.118022 
L 74.808613 125.884698 
L 74.976012 122.899828 
L 75.310812 124.409496 
L 75.478213 127.799195 
L 75.813013 124.08248 
L 75.980412 125.752164 
L 76.147813 124.344211 
L 76.315213 130.820227 
L 76.482613 130.359766 
L 76.650013 122.922069 
L 76.984813 137.566742 
L 77.152213 127.973183 
L 77.319613 129.357611 
L 77.487013 124.04874 
L 77.654413 132.208517 
L 77.821813 131.592241 
L 77.989213 134.009062 
L 78.156613 133.305357 
L 78.324013 126.619746 
L 78.491412 127.746149 
L 78.658813 133.221286 
L 78.826212 132.401889 
L 78.993613 134.563952 
L 79.161012 127.394496 
L 79.328412 136.16978 
L 79.495812 134.113684 
L 79.830613 137.825114 
L 79.998013 138.041867 
L 80.165413 138.015536 
L 80.332813 135.266688 
L 80.500213 140.915311 
L 80.667613 141.040499 
L 80.835013 135.066206 
L 81.002413 145.951587 
L 81.169813 143.682437 
L 81.337213 135.537384 
L 81.504613 139.623342 
L 81.672012 146.924501 
L 81.839413 144.709973 
L 82.006812 138.171528 
L 82.174213 136.4231 
L 82.341612 144.462627 
L 82.509013 144.065349 
L 82.676412 147.417891 
L 82.843813 146.903956 
L 83.011212 143.741578 
L 83.178613 142.870035 
L 83.513413 151.167719 
L 84.015613 142.533254 
L 84.183013 150.88559 
L 84.350413 151.053307 
L 84.517813 147.021017 
L 85.020013 154.088175 
L 85.187413 152.787732 
L 85.354813 150.265509 
L 85.522213 150.563932 
L 85.689613 153.753151 
L 85.857013 152.832383 
L 86.024413 145.099642 
L 86.191813 153.862565 
L 86.359213 154.680691 
L 86.526612 158.089061 
L 86.694013 158.834974 
L 86.861413 151.675088 
L 87.028813 149.898771 
L 87.196213 153.142013 
L 87.363613 162.330757 
L 87.531013 158.715892 
L 87.698413 151.059563 
L 87.865813 151.377362 
L 88.033212 157.647852 
L 88.200613 159.097908 
L 88.368012 159.082345 
L 88.535413 160.271445 
L 88.702812 155.287456 
L 88.870213 159.843604 
L 89.037612 156.831765 
L 89.205013 162.131064 
L 89.372412 161.142999 
L 89.539813 159.094493 
L 89.707212 160.537917 
L 89.874613 165.455482 
L 90.042012 157.232356 
L 90.209412 160.707204 
L 90.376812 160.266567 
L 90.544213 161.893871 
L 90.879013 161.890152 
L 91.046413 158.585678 
L 91.213813 162.886946 
L 91.381213 161.631911 
L 91.548613 165.332412 
L 91.716013 163.963473 
L 91.883413 159.462952 
L 92.050813 166.455062 
L 92.218213 162.235878 
L 92.385613 163.718523 
L 92.553013 163.803677 
L 92.720413 163.358972 
L 92.887812 162.560416 
L 93.055213 165.905537 
L 93.222612 162.945191 
L 93.390013 162.817615 
L 93.557412 168.838603 
L 93.724813 163.774029 
L 93.892212 170.506768 
L 94.059613 166.548069 
L 94.227013 166.193093 
L 94.394413 170.270171 
L 94.561813 166.857781 
L 94.729213 160.947651 
L 94.896613 164.811455 
L 95.064013 176.691874 
L 95.398813 162.534454 
L 95.566213 160.373159 
L 95.733613 171.050433 
L 95.901013 172.457429 
L 96.068413 167.220705 
L 96.235813 173.190391 
L 96.403213 168.121902 
L 96.570613 172.149911 
L 96.738013 166.369781 
L 96.905413 171.71981 
L 97.072813 172.07007 
L 97.240213 166.896943 
L 97.407612 168.646525 
L 97.575012 169.164079 
L 97.742413 173.910625 
L 97.909813 172.107946 
L 98.077213 172.744512 
L 98.244613 165.609778 
L 98.579413 178.503576 
L 98.746813 172.939357 
L 98.914212 173.955022 
L 99.081613 168.418958 
L 99.249012 174.496863 
L 99.416413 172.670174 
L 99.751213 178.822465 
L 99.918612 172.366655 
L 100.253412 177.806403 
L 100.420813 178.767186 
L 100.755613 177.013534 
L 100.923012 178.729842 
L 101.090413 182.833726 
L 101.257812 175.522676 
L 101.425213 177.999391 
L 101.760013 186.120608 
L 101.927413 179.475451 
L 102.094813 184.660832 
L 102.262213 174.666661 
L 102.597013 193.749423 
L 102.764412 187.549583 
L 102.931813 176.634841 
L 103.266613 186.322023 
L 103.434012 188.095079 
L 103.601413 187.828402 
L 103.936213 186.125104 
L 104.103612 187.325222 
L 104.271013 190.944464 
L 104.438412 188.891217 
L 104.605813 181.303565 
L 104.940613 196.34366 
L 105.108013 190.199828 
L 105.275413 179.384148 
L 105.610213 195.837911 
L 105.777613 188.745957 
L 106.112413 187.052943 
L 106.279813 187.740766 
L 106.614613 195.601628 
L 106.782013 191.343687 
L 106.949413 196.9385 
L 107.116813 196.218154 
L 107.284212 188.706137 
L 107.451613 196.932298 
L 107.619012 194.832002 
L 107.786413 194.763537 
L 107.953812 195.527249 
L 108.121213 187.164142 
L 108.456013 200.906265 
L 108.623413 192.408612 
L 108.958213 200.158836 
L 109.125612 196.888205 
L 109.460412 202.694766 
L 109.627813 195.882031 
L 109.795212 194.85451 
L 109.962613 196.403757 
L 110.130012 194.184947 
L 110.297413 196.838692 
L 110.464812 201.321591 
L 110.632213 198.215871 
L 110.799612 190.160106 
L 110.967013 193.798674 
L 111.134412 202.333051 
L 111.469212 198.57992 
L 111.636613 199.456022 
L 111.971413 202.104211 
L 112.138813 198.518326 
L 112.306213 203.391037 
L 112.473613 202.807813 
L 112.641013 199.8565 
L 112.975813 204.346492 
L 113.143213 205.084483 
L 113.645412 197.549402 
L 113.980212 204.459413 
L 114.147613 204.306358 
L 114.315012 198.954327 
L 114.482413 204.468396 
L 114.817213 207.637864 
L 114.984612 207.757858 
L 115.152013 199.347645 
L 115.319412 204.619313 
L 115.486813 214.129947 
L 115.654212 205.35543 
L 115.821613 204.006597 
L 115.989013 201.336465 
L 116.156413 212.045622 
L 116.323813 210.361997 
L 116.491213 205.566999 
L 116.658613 211.834903 
L 116.993413 197.556151 
L 117.160813 209.899376 
L 117.328213 210.573665 
L 117.495613 205.33853 
L 117.663013 206.706791 
L 117.830413 214.287451 
L 118.165213 200.906565 
L 118.332613 216.012785 
L 118.500012 213.249058 
L 118.667413 203.752029 
L 118.834812 211.329912 
L 119.002213 211.805948 
L 119.169612 210.637031 
L 119.337013 217.684206 
L 119.504413 208.540253 
L 120.006612 215.344902 
L 120.174013 220.41882 
L 120.341412 211.129599 
L 120.508813 214.030143 
L 120.676212 213.566856 
L 120.843613 210.040555 
L 121.011012 217.374593 
L 121.178413 214.215474 
L 121.345812 206.921298 
L 121.513213 214.332896 
L 121.680612 211.913744 
L 121.848013 213.691684 
L 122.015412 218.922163 
L 122.182813 210.861894 
L 122.350212 215.77089 
L 122.517613 213.750797 
L 122.685012 221.32668 
L 122.852413 215.342426 
L 123.019813 214.503499 
L 123.187213 215.832948 
L 123.354613 210.688909 
L 123.689413 221.044384 
L 123.856813 212.277751 
L 124.024213 222.163604 
L 124.191613 215.311372 
L 124.359013 219.846566 
L 124.526413 218.126532 
L 124.693813 211.999921 
L 124.861212 223.359683 
L 125.028613 215.392994 
L 125.196012 216.497549 
L 125.363413 221.124086 
L 125.698213 216.398422 
L 125.865612 219.820871 
L 126.033013 212.646398 
L 126.367813 223.707442 
L 126.702613 215.947147 
L 126.870013 215.096266 
L 127.037413 227.221669 
L 127.204813 222.039497 
L 127.372213 212.794688 
L 127.707013 223.948365 
L 127.874413 217.656601 
L 128.041813 222.45496 
L 128.209213 220.848602 
L 128.376613 220.875046 
L 128.544013 219.807599 
L 128.711413 221.085392 
L 128.878813 224.051671 
L 129.046213 215.006144 
L 129.213613 223.909331 
L 129.381012 222.018061 
L 129.548413 213.652617 
L 129.715812 225.371638 
L 129.883213 225.49048 
L 130.050612 215.259637 
L 130.385413 225.057927 
L 130.552813 218.481018 
L 130.887613 223.503988 
L 131.055013 223.452333 
L 131.222413 223.603371 
L 131.389813 221.612143 
L 131.557213 222.820827 
L 131.724613 222.098958 
L 131.892013 225.080332 
L 132.059413 222.035059 
L 132.226813 222.362249 
L 132.394213 227.009406 
L 132.561613 218.576203 
L 132.729013 220.844292 
L 132.896413 229.153274 
L 133.231213 222.460146 
L 133.398613 227.642895 
L 133.733413 223.323013 
L 133.900813 223.115497 
L 134.068213 227.585837 
L 134.235613 223.972677 
L 134.570413 227.467306 
L 134.737813 220.022335 
L 134.905213 230.935497 
L 135.072612 227.347314 
L 135.240013 217.386599 
L 135.407412 229.354195 
L 135.574813 229.237284 
L 135.742212 225.658018 
L 135.909613 228.186269 
L 136.077012 222.55575 
L 136.244413 227.056318 
L 136.411812 225.395323 
L 136.579213 225.37243 
L 136.914013 222.24444 
L 137.081412 227.560452 
L 137.416213 225.726229 
L 137.583612 229.426367 
L 137.751013 224.688498 
L 137.918412 226.737203 
L 138.085813 224.343489 
L 138.253212 226.502751 
L 138.420613 226.776513 
L 138.588012 223.575382 
L 138.755413 234.155815 
L 139.090213 221.302636 
L 139.257612 235.880116 
L 139.425013 226.675462 
L 139.592412 228.09805 
L 139.759813 222.750204 
L 139.927212 229.110679 
L 140.262012 224.68766 
L 140.596812 232.019193 
L 140.764213 225.136996 
L 140.931612 231.563701 
L 141.099013 225.439588 
L 141.433813 229.937302 
L 141.601213 224.838929 
L 141.768613 225.515508 
L 141.936013 232.09324 
L 142.103412 229.536655 
L 142.270813 229.386833 
L 142.438212 226.20073 
L 142.605613 228.949839 
L 142.773012 229.663222 
L 142.940413 226.105163 
L 143.107812 229.491572 
L 143.275213 228.572392 
L 143.442612 221.818051 
L 143.610013 233.630168 
L 143.944813 231.43372 
L 144.112212 225.793101 
L 144.279613 224.329181 
L 144.447012 231.839334 
L 144.614413 228.15261 
L 144.781813 231.337261 
L 144.949213 220.436017 
L 145.116613 231.719223 
L 145.284013 227.963911 
L 145.451413 229.908997 
L 145.618813 228.435058 
L 145.786213 224.800886 
L 146.121013 231.536558 
L 146.288413 224.167688 
L 146.455813 233.203878 
L 146.623213 226.656184 
L 147.292812 231.765155 
L 147.460213 225.489016 
L 147.795013 237.427692 
L 148.129813 222.841333 
L 148.297213 234.281511 
L 148.464613 227.84969 
L 148.632013 226.200719 
L 148.799413 233.22884 
L 148.966813 225.007432 
L 149.134213 228.898691 
L 149.301613 236.335414 
L 149.469013 227.617625 
L 149.636413 229.816493 
L 149.803813 228.772581 
L 149.971213 228.699033 
L 150.138613 231.345531 
L 150.306013 229.298827 
L 150.473413 232.009268 
L 150.640813 229.562617 
L 150.808213 230.603869 
L 150.975613 235.201347 
L 151.143013 226.554621 
L 151.310413 225.601276 
L 151.477812 238.176301 
L 151.812613 221.441863 
L 151.980013 238.924776 
L 152.314813 226.827951 
L 152.482213 233.599303 
L 152.649613 230.163794 
L 152.817013 230.354353 
L 152.984413 233.402881 
L 153.151813 225.903083 
L 153.319213 227.917898 
L 153.486613 237.405847 
L 153.654013 227.809716 
L 153.821413 227.457216 
L 154.156213 234.326951 
L 154.491013 227.191317 
L 154.658413 235.666545 
L 154.825813 229.970983 
L 154.993213 230.160923 
L 155.160613 227.498039 
L 155.328013 231.360836 
L 155.495413 230.03448 
L 155.662813 230.326812 
L 155.830213 228.33941 
L 156.165013 232.064003 
L 156.332413 236.842546 
L 156.499812 229.068546 
L 156.667213 231.09556 
L 156.834612 230.4227 
L 157.002013 233.85113 
L 157.169412 234.881643 
L 157.504212 227.133401 
L 157.671613 229.347988 
L 157.839012 235.947244 
L 158.173812 226.139989 
L 158.508612 234.388022 
L 158.676013 233.219716 
L 158.843412 229.475083 
L 159.010813 228.673323 
L 159.178213 229.891293 
L 159.345612 232.766442 
L 159.513013 229.389239 
L 159.680412 235.618358 
L 160.015212 225.758075 
L 160.182613 233.693694 
L 160.350012 236.238704 
L 160.517413 234.066786 
L 160.684812 227.603048 
L 160.852213 230.0404 
L 161.019612 238.856529 
L 161.354412 227.777568 
L 161.521813 232.808903 
L 161.689212 227.57076 
L 161.856613 232.646897 
L 162.024012 232.627018 
L 162.191413 225.461469 
L 162.358812 236.525107 
L 162.526213 238.625181 
L 162.693613 224.650039 
L 162.861013 236.442927 
L 163.195813 229.107254 
L 163.363213 234.049583 
L 163.698013 230.116485 
L 163.865413 230.914579 
L 164.032813 229.283866 
L 164.200212 238.060973 
L 164.367613 227.512845 
L 164.535012 235.709443 
L 164.702413 233.434962 
L 164.869812 228.115094 
L 165.037213 236.116606 
L 165.204612 233.571888 
L 165.372013 223.148316 
L 165.539412 242.633023 
L 165.874212 226.743016 
L 166.041613 229.245925 
L 166.209013 234.348625 
L 166.376413 227.082949 
L 166.711212 237.612997 
L 166.878613 227.08469 
L 167.213413 235.899388 
L 167.380812 231.833619 
L 167.548213 233.29463 
L 167.715612 232.591318 
L 167.883013 228.207938 
L 168.050412 231.38977 
L 168.217813 230.247341 
L 168.385212 235.327531 
L 168.552613 228.086907 
L 168.887413 240.485649 
L 169.054812 228.570578 
L 169.222213 235.51696 
L 169.389612 230.14539 
L 169.724412 233.704669 
L 169.891813 233.420641 
L 170.059213 231.02419 
L 170.226613 232.547688 
L 170.394013 231.1031 
L 170.561413 233.292576 
L 170.728813 226.95348 
L 170.896213 232.398442 
L 171.063613 230.412346 
L 171.231012 240.07101 
L 171.398413 232.232928 
L 171.565812 230.162645 
L 171.900612 232.06143 
L 172.068013 231.770584 
L 172.235412 230.707467 
L 172.402813 233.096069 
L 172.570212 231.389894 
L 172.905012 236.278813 
L 173.072413 225.71171 
L 173.239812 233.98391 
L 173.407213 233.028932 
L 173.574613 233.03094 
L 173.742013 238.080333 
L 173.909413 231.644814 
L 174.244213 236.531512 
L 174.411613 235.561268 
L 174.579013 232.388332 
L 174.746413 233.599038 
L 174.913813 235.828751 
L 175.081213 231.984307 
L 175.248613 232.171108 
L 175.416013 228.923306 
L 175.583413 232.075832 
L 175.750813 233.089821 
L 175.918213 231.778326 
L 176.085612 234.112725 
L 176.420412 229.379433 
L 176.587813 235.409406 
L 176.755212 228.622553 
L 176.922613 240.680922 
L 177.257413 225.927768 
L 177.424813 233.865868 
L 177.592213 235.299819 
L 177.759613 234.816502 
L 177.927012 230.141401 
L 178.094413 231.487909 
L 178.261812 239.201875 
L 178.429213 230.203178 
L 178.764013 239.674829 
L 178.931412 228.770211 
L 179.266212 239.168774 
L 179.433612 230.204606 
L 179.601012 236.423691 
L 179.768412 233.311574 
L 179.935812 233.954477 
L 180.103212 225.594728 
L 180.270612 236.932537 
L 180.438012 229.414518 
L 180.605412 231.095 
L 180.772812 238.75914 
L 181.107612 227.533004 
L 181.275013 234.105816 
L 181.609813 235.484563 
L 181.777212 228.628589 
L 181.944613 233.331547 
L 182.112012 231.563011 
L 182.279413 233.228624 
L 182.446812 237.313166 
L 182.614213 230.401707 
L 182.781612 228.098233 
L 182.949013 238.200738 
L 183.116412 230.251712 
L 183.451212 236.692985 
L 183.618613 231.441642 
L 183.953412 239.592161 
L 184.120812 226.014714 
L 184.455613 239.115483 
L 184.790413 224.144206 
L 184.957812 237.01225 
L 185.125213 235.120041 
L 185.292612 228.838735 
L 185.460013 231.103113 
L 185.627412 238.689083 
L 185.794813 229.868667 
L 185.962212 236.213711 
L 186.129613 231.562764 
L 186.297012 234.311354 
L 186.464413 240.522109 
L 186.799213 231.175815 
L 186.966612 237.236758 
L 187.134013 227.658908 
L 187.301412 234.452346 
L 187.468813 233.786076 
L 187.636212 235.193954 
L 187.803613 229.365924 
L 187.971013 235.535937 
L 188.305813 232.984144 
L 188.473213 236.017799 
L 188.640613 230.921735 
L 188.975413 237.036268 
L 189.310213 230.648115 
L 189.477612 231.332111 
L 189.645013 238.98428 
L 189.812412 231.022534 
L 189.979813 230.333521 
L 190.147212 236.590278 
L 190.314613 229.419158 
L 190.649413 240.206896 
L 190.816812 226.885943 
L 191.151612 237.047103 
L 191.319013 233.729291 
L 191.486413 235.340076 
L 191.653813 234.32748 
L 191.821213 229.415282 
L 191.988613 238.330038 
L 192.156013 236.964069 
L 192.323413 233.386345 
L 192.490813 225.093999 
L 192.658213 237.45574 
L 192.825613 236.78483 
L 192.993013 230.886367 
L 193.160413 236.663091 
L 193.327812 234.59959 
L 193.495213 227.334187 
L 193.662612 237.692568 
L 193.830013 236.374182 
L 193.997412 233.429739 
L 194.164813 233.711302 
L 194.332212 230.742082 
L 194.499613 231.110914 
L 194.667012 234.691581 
L 195.001812 231.324511 
L 195.169213 232.270067 
L 195.336613 239.349995 
L 195.504013 229.889406 
L 195.671413 230.376869 
L 195.838813 238.217697 
L 196.006213 231.472167 
L 196.173613 230.064769 
L 196.341013 238.357984 
L 196.675813 229.094965 
L 197.010613 240.710012 
L 197.345413 227.138574 
L 197.512813 236.279758 
L 197.680213 236.605538 
L 197.847613 236.027007 
L 198.015013 233.583225 
L 198.182412 227.969097 
L 198.517212 239.420034 
L 198.684613 230.096373 
L 198.852013 232.036756 
L 199.019413 237.112642 
L 199.186813 234.964577 
L 199.354212 230.549837 
L 199.521613 240.049285 
L 199.689012 233.633253 
L 199.856413 231.53289 
L 200.023812 231.780427 
L 200.191213 230.505483 
L 200.358612 235.691692 
L 200.526013 234.246775 
L 200.693412 223.610083 
L 200.860813 231.580091 
L 201.028212 233.489478 
L 201.195612 239.353477 
L 201.363012 233.345272 
L 201.530412 234.318372 
L 201.697812 237.695584 
L 201.865212 230.617649 
L 202.032612 232.738558 
L 202.200012 231.316161 
L 202.367413 236.173727 
L 202.534812 233.377249 
L 202.702213 233.231474 
L 202.869612 231.978287 
L 203.037013 234.310084 
L 203.204412 234.548531 
L 203.371813 234.101423 
L 203.539212 233.258723 
L 203.706613 233.565029 
L 203.874012 236.09089 
L 204.041413 232.58527 
L 204.208812 237.870917 
L 204.376213 232.787243 
L 204.543612 232.950269 
L 204.711013 234.996772 
L 204.878412 229.63478 
L 205.213212 240.296186 
L 205.380613 228.7395 
L 205.548012 233.676323 
L 205.715413 234.333581 
L 205.882812 236.23356 
L 206.217613 230.947996 
L 206.385013 231.501966 
L 206.552413 238.753441 
L 206.719813 233.333363 
L 206.887213 232.730163 
L 207.054613 234.325996 
L 207.222013 237.61111 
L 207.389413 235.079408 
L 207.556813 227.207395 
L 207.724213 237.788361 
L 207.891613 234.435681 
L 208.059013 228.599734 
L 208.226413 235.184827 
L 208.393813 236.194613 
L 208.561213 229.843094 
L 208.728613 237.368705 
L 208.896013 237.37098 
L 209.063413 228.827416 
L 209.230813 237.446185 
L 209.398213 236.521292 
L 209.565613 227.515557 
L 209.733013 236.762562 
L 209.900413 235.484213 
L 210.067812 229.338201 
L 210.235213 235.841164 
L 210.402612 236.199254 
L 210.570013 234.691707 
L 210.737412 230.553052 
L 210.904812 231.118648 
L 211.072212 237.964889 
L 211.239612 230.611366 
L 211.574412 237.909277 
L 211.741812 228.293619 
L 211.909212 238.915118 
L 212.076612 237.299886 
L 212.244012 230.041122 
L 212.411412 239.281648 
L 212.578812 231.964204 
L 212.746212 230.666149 
L 212.913612 236.03012 
L 213.081012 233.941901 
L 213.248413 229.540719 
L 213.415812 233.308101 
L 213.583213 233.49409 
L 213.750612 236.137553 
L 213.918013 234.778398 
L 214.085412 231.191209 
L 214.252813 237.045661 
L 214.420212 234.204933 
L 214.587613 233.748075 
L 214.755012 236.984243 
L 214.922413 230.957793 
L 215.089812 236.157013 
L 215.257213 237.783162 
L 215.424612 227.861665 
L 215.759412 237.989062 
L 215.926813 232.235085 
L 216.094212 233.605425 
L 216.261613 236.35421 
L 216.429012 225.656589 
L 216.596413 240.008027 
L 216.763813 237.341533 
L 216.931213 226.890307 
L 217.098613 240.858514 
L 217.433413 232.317657 
L 217.600813 232.900397 
L 217.768213 230.939659 
L 217.935613 236.205479 
L 218.103013 232.664865 
L 218.270413 233.540641 
L 218.437813 237.403206 
L 218.605213 230.193489 
L 218.772612 233.868111 
L 218.940013 232.180525 
L 219.107412 233.578499 
L 219.274813 236.622234 
L 219.442212 230.504725 
L 219.609613 237.202197 
L 219.777012 238.42181 
L 219.944413 232.073665 
L 220.111812 234.847919 
L 220.279212 234.788021 
L 220.446612 235.398128 
L 220.781412 234.667457 
L 221.116212 231.494443 
L 221.283613 237.693775 
L 221.451012 231.592348 
L 221.618413 233.659639 
L 221.785812 238.117065 
L 221.953213 231.454608 
L 222.120612 230.870124 
L 222.455412 235.355077 
L 222.622813 227.996695 
L 222.790212 233.143731 
L 222.957613 231.608145 
L 223.125012 228.098776 
L 223.292413 236.375095 
L 223.459812 238.616413 
L 223.627213 228.988966 
L 223.962013 236.443361 
L 224.129413 233.30861 
L 224.464213 236.026539 
L 224.631613 232.379658 
L 224.799013 235.608548 
L 224.966413 233.353389 
L 225.133813 233.288835 
L 225.301213 234.252717 
L 225.468613 236.593724 
L 225.636013 233.340658 
L 225.803413 233.890626 
L 225.970813 236.243825 
L 226.305613 232.355971 
L 226.473013 239.461235 
L 226.640413 230.26429 
L 226.807813 228.244375 
L 226.975213 238.204174 
L 227.142613 233.656669 
L 227.310013 232.707775 
L 227.477413 236.046825 
L 227.644813 229.639821 
L 227.812213 234.212541 
L 227.979613 230.367483 
L 228.147012 238.418583 
L 228.481812 229.072025 
L 228.649213 238.683168 
L 228.816612 231.323371 
L 228.984013 239.848838 
L 229.151412 239.214519 
L 229.318813 225.962431 
L 229.486212 235.96289 
L 229.653613 236.102019 
L 229.821012 238.099525 
L 229.988413 232.480061 
L 230.155812 232.569854 
L 230.323213 237.385542 
L 230.490612 236.249164 
L 230.658013 234.160683 
L 230.825412 230.483442 
L 230.992813 239.2285 
L 231.160213 238.84711 
L 231.495013 232.487926 
L 231.662412 232.825224 
L 231.829813 237.410612 
L 231.997212 234.071131 
L 232.164613 224.446609 
L 232.332012 239.844778 
L 232.499413 229.869966 
L 232.666812 234.7954 
L 232.834213 235.473545 
L 233.001612 235.441233 
L 233.169013 233.027927 
L 233.336412 227.015019 
L 233.503813 238.599643 
L 233.671212 235.911332 
L 233.838613 229.772485 
L 234.006012 230.975276 
L 234.508213 238.368608 
L 234.675612 233.267408 
L 234.843013 232.660724 
L 235.010413 239.923283 
L 235.177813 238.848188 
L 235.345213 233.419091 
L 235.680013 230.642188 
L 235.847413 236.493212 
L 236.014812 237.033382 
L 236.182213 228.394077 
L 236.349612 237.350564 
L 236.517013 234.576352 
L 236.684412 235.928086 
L 236.851813 231.903624 
L 237.019212 230.981475 
L 237.186613 236.160604 
L 237.354012 233.086316 
L 237.521412 232.819882 
L 237.688812 232.99988 
L 237.856212 232.532058 
L 238.023612 236.911947 
L 238.191012 230.273461 
L 238.525813 236.304021 
L 238.693212 232.456774 
L 238.860613 234.609904 
L 239.028012 232.009854 
L 239.195413 237.395402 
L 239.362812 235.672416 
L 239.530213 230.824529 
L 239.697612 234.966043 
L 239.865013 235.670373 
L 240.032412 239.363046 
L 240.199813 231.30031 
L 240.367212 230.871937 
L 240.534613 242.356699 
L 240.702012 232.296486 
L 240.869413 229.479307 
L 241.036812 241.552862 
L 241.204213 230.600036 
L 241.539013 235.888148 
L 241.873813 233.505189 
L 242.041213 233.69097 
L 242.208613 234.247944 
L 242.376013 236.090101 
L 242.543413 239.205899 
L 242.710813 229.772346 
L 242.878213 228.96963 
L 243.045613 241.200501 
L 243.380413 228.735525 
L 243.547813 232.50801 
L 243.715213 241.393777 
L 244.050013 227.946085 
L 244.217413 242.326288 
L 244.384813 234.255852 
L 244.552213 234.039311 
L 244.719613 232.953549 
L 244.887013 230.975398 
L 245.054413 234.03725 
L 245.221813 239.958136 
L 245.389212 231.443215 
L 245.556613 231.266622 
L 245.724012 238.885095 
L 245.891413 233.063274 
L 246.226213 236.472221 
L 246.393612 228.673722 
L 246.561013 240.583003 
L 246.728412 231.254937 
L 246.895813 230.018527 
L 247.063212 238.914144 
L 247.230613 228.571994 
L 247.398012 236.516246 
L 247.565413 235.700796 
L 247.732812 230.296223 
L 247.900213 237.74708 
L 248.067612 233.014281 
L 248.402412 238.531487 
L 248.569813 230.743636 
L 248.737212 235.099412 
L 248.904613 233.562839 
L 249.239413 235.875222 
L 249.406813 230.068542 
L 249.574213 229.884701 
L 249.909013 238.548926 
L 250.076413 227.50283 
L 250.411213 238.392544 
L 250.578613 233.530415 
L 250.746013 238.694542 
L 250.913413 231.558434 
L 251.080813 231.401 
L 251.248213 242.538013 
L 251.415613 227.163389 
L 251.583013 231.001131 
L 251.750413 238.489935 
L 251.917813 233.503848 
L 252.085213 233.241475 
L 252.252613 233.25865 
L 252.420013 236.4634 
L 252.587413 231.278961 
L 252.754813 238.621049 
L 253.089613 230.103791 
L 253.257013 238.336302 
L 253.591812 233.018504 
L 253.759213 233.624963 
L 253.926612 235.037298 
L 254.094013 230.72468 
L 254.428813 235.257446 
L 254.596212 236.562692 
L 254.763613 231.33911 
L 254.931012 236.483715 
L 255.098412 234.991663 
L 255.265812 234.631382 
L 255.433212 235.463252 
L 255.768012 234.444162 
L 255.935412 235.981337 
L 256.102813 236.186946 
L 256.270213 231.946153 
L 256.437613 233.563873 
L 256.605012 232.198133 
L 256.772413 234.57407 
L 256.939813 235.287464 
L 257.107213 230.087026 
L 257.274612 237.28388 
L 257.442013 233.839415 
L 257.609413 234.300677 
L 257.776813 239.565269 
L 257.944212 230.27704 
L 258.279013 238.546725 
L 258.613812 231.489374 
L 258.781213 232.356096 
L 258.948613 234.799813 
L 259.116013 230.637807 
L 259.283412 238.246354 
L 259.450813 229.382001 
L 259.618213 232.100522 
L 259.785613 241.534643 
L 259.953012 231.38206 
L 260.120413 231.821282 
L 260.287813 235.69311 
L 260.455213 229.043955 
L 260.622613 237.749905 
L 260.790013 233.312961 
L 261.124813 234.986482 
L 261.292213 239.497446 
L 261.627013 229.861264 
L 261.794413 230.567047 
L 261.961813 239.131416 
L 262.129213 232.747193 
L 262.296613 235.673839 
L 262.464013 233.183525 
L 262.798813 233.88333 
L 262.966212 235.861657 
L 263.133613 234.859102 
L 263.301013 231.817207 
L 263.468413 237.574969 
L 263.635812 231.797106 
L 263.970613 236.6147 
L 264.138013 234.051668 
L 264.305412 233.624562 
L 264.472813 234.25528 
L 264.640213 233.604264 
L 264.807613 229.144204 
L 264.975012 234.942917 
L 265.142413 235.192998 
L 265.309813 235.12881 
L 265.644612 231.271305 
L 265.812013 238.671727 
L 265.979413 233.150554 
L 266.146813 232.30385 
L 266.314212 233.405685 
L 266.481613 231.134766 
L 266.816413 236.683323 
L 266.983812 232.687452 
L 267.151213 232.525678 
L 267.318613 239.048465 
L 267.486013 233.443143 
L 267.653413 233.135731 
L 267.820813 239.358749 
L 267.988213 232.106297 
L 268.155613 230.008709 
L 268.323013 235.70361 
L 268.490413 235.95361 
L 268.657813 238.773835 
L 268.992613 233.948684 
L 269.160013 233.863066 
L 269.327413 232.04783 
L 269.494813 238.057235 
L 269.662213 235.897348 
L 269.829613 221.719097 
L 269.997013 238.681508 
L 270.331813 226.421196 
L 270.499213 238.869042 
L 270.666613 232.316239 
L 271.001413 237.34436 
L 271.168813 228.671751 
L 271.503613 237.953535 
L 271.671013 231.832657 
L 272.005813 236.061996 
L 272.173213 233.304725 
L 272.340613 234.043183 
L 272.508013 236.585376 
L 272.842813 231.802028 
L 273.010213 232.778727 
L 273.177613 238.479559 
L 273.345012 234.36171 
L 273.679813 236.245226 
L 273.847213 231.834272 
L 274.014612 237.861976 
L 274.182012 239.140201 
L 274.516813 233.204542 
L 274.684213 230.998505 
L 275.019013 234.780287 
L 275.186413 234.688482 
L 275.353813 228.066143 
L 275.688613 235.447597 
L 275.856013 234.019368 
L 276.023413 235.478886 
L 276.190812 229.805322 
L 276.525613 239.498375 
L 276.693013 233.235917 
L 277.027813 235.460616 
L 277.195213 233.602149 
L 277.362613 233.328032 
L 277.530012 235.421805 
L 277.697413 236.012939 
L 277.864813 227.016821 
L 278.032213 241.530725 
L 278.367013 230.790807 
L 278.534413 235.27607 
L 278.701813 231.041026 
L 279.036613 236.147825 
L 279.204013 232.861574 
L 279.371413 233.430996 
L 279.538813 231.036829 
L 279.706213 239.921025 
L 279.873613 232.760357 
L 280.041013 231.578946 
L 280.208413 238.035643 
L 280.543212 231.515388 
L 280.710613 237.172095 
L 280.878013 227.852818 
L 281.045413 227.677055 
L 281.212812 239.213849 
L 281.380213 238.915119 
L 281.547613 227.971564 
L 281.882412 237.300681 
L 282.049813 239.024318 
L 282.217213 229.954897 
L 282.384613 233.905838 
L 282.552012 234.896448 
L 282.719413 233.250886 
L 282.886813 232.957239 
L 283.054213 233.338926 
L 283.221612 237.303735 
L 283.389013 231.187195 
L 283.556413 231.145356 
L 283.723813 233.74919 
L 283.891212 239.520372 
L 284.058613 231.201023 
L 284.393413 236.414871 
L 284.560812 237.113636 
L 284.895613 231.430101 
L 285.063013 237.598313 
L 285.230412 227.948627 
L 285.397813 235.313765 
L 285.565213 233.012513 
L 285.732613 234.635716 
L 285.900013 232.576056 
L 286.067413 237.301406 
L 286.234813 231.300498 
L 286.402213 231.482711 
L 286.569613 237.814857 
L 286.904413 232.095501 
L 287.071813 238.027337 
L 287.239213 230.323182 
L 287.406613 230.714795 
L 287.574013 237.666637 
L 287.741413 237.08129 
L 288.076213 232.250916 
L 288.243613 235.578649 
L 288.411013 235.53608 
L 288.578413 233.290724 
L 288.745813 236.058443 
L 288.913213 232.088942 
L 289.248013 238.534697 
L 289.415413 229.279867 
L 289.582813 239.49265 
L 289.750213 236.576373 
L 289.917613 229.54473 
L 290.085013 233.879023 
L 290.252412 229.967876 
L 290.419813 233.213289 
L 290.587213 239.621129 
L 290.754613 231.863298 
L 290.922012 233.990531 
L 291.089413 234.414002 
L 291.256813 233.972187 
L 291.424213 231.717173 
L 291.591612 233.698785 
L 291.759013 231.231414 
L 291.926413 237.810281 
L 292.093813 231.349837 
L 292.261212 232.614443 
L 292.428613 236.991726 
L 292.596013 232.359759 
L 292.763413 234.166395 
L 292.930813 231.732526 
L 293.098213 231.127283 
L 293.265613 238.467647 
L 293.600413 231.339259 
L 293.767813 236.116573 
L 293.935213 232.561685 
L 294.102613 232.761142 
L 294.270013 239.904745 
L 294.437413 233.844625 
L 294.604813 234.332542 
L 294.772213 235.545601 
L 294.939613 230.075045 
L 295.107013 237.964476 
L 295.274413 239.113017 
L 295.441813 229.07999 
L 295.609213 231.550257 
L 295.776612 239.949108 
L 295.944013 239.665171 
L 296.111413 230.38663 
L 296.278813 228.400784 
L 296.446213 237.156386 
L 296.781013 231.180341 
L 297.115813 232.282116 
L 297.283213 239.942366 
L 297.450613 235.42703 
L 297.618013 226.755749 
L 297.785413 235.286582 
L 297.952813 237.130241 
L 298.120213 231.216082 
L 298.455013 236.520128 
L 298.622413 231.807495 
L 298.789813 230.883436 
L 298.957213 240.88514 
L 299.124613 234.377387 
L 299.292013 233.216362 
L 299.626813 235.357258 
L 299.794213 234.231335 
L 299.961613 240.249743 
L 300.129013 232.281384 
L 300.296413 231.334725 
L 300.463813 236.907005 
L 300.631213 235.01134 
L 300.798613 230.793955 
L 301.133413 236.512608 
L 301.300813 230.296791 
L 301.468213 236.36954 
L 301.635613 232.826169 
L 301.803013 233.947862 
L 301.970413 233.273811 
L 302.137813 238.985962 
L 302.472613 229.409726 
L 302.640013 236.087318 
L 302.807412 237.313855 
L 302.974813 233.795696 
L 303.142213 234.254752 
L 303.309613 233.211659 
L 303.477013 235.80344 
L 303.644413 236.096771 
L 303.979213 231.752529 
L 304.146613 231.878784 
L 304.314013 234.636405 
L 304.648813 235.577314 
L 304.816213 232.309342 
L 304.983613 239.179286 
L 305.151013 237.316181 
L 305.318413 231.901676 
L 305.485813 234.086059 
L 305.653213 233.260283 
L 305.820613 236.558243 
L 306.155413 230.412315 
L 306.322813 235.613538 
L 306.490213 233.214937 
L 306.657613 240.355461 
L 306.992413 230.044924 
L 307.159813 235.219634 
L 307.327213 236.579174 
L 307.494613 233.074749 
L 307.662013 233.921773 
L 307.829413 231.537236 
L 307.996813 236.024682 
L 308.164213 231.454325 
L 308.331613 243.266163 
L 308.499013 229.364979 
L 308.666413 233.719598 
L 308.833813 235.054787 
L 309.001213 233.739731 
L 309.168613 240.755799 
L 309.503413 228.749964 
L 309.670813 239.27117 
L 310.005613 232.454902 
L 310.173013 228.231037 
L 310.340413 241.311155 
L 310.507813 233.615259 
L 310.675213 231.931433 
L 310.842613 235.773678 
L 311.177413 229.6874 
L 311.344813 240.554707 
L 311.512213 230.02122 
L 311.679613 233.218225 
L 311.847013 239.907121 
L 312.181813 230.143122 
L 312.349213 238.823505 
L 312.684013 231.3655 
L 312.851413 239.240569 
L 313.018813 238.193605 
L 313.186213 233.843436 
L 313.353613 234.774188 
L 313.521013 234.768428 
L 313.688413 233.566108 
L 313.855813 235.240013 
L 314.023213 238.120937 
L 314.190613 229.345522 
L 314.358013 230.491309 
L 314.525413 239.000049 
L 314.860213 227.000246 
L 315.027613 238.151833 
L 315.195013 226.491692 
L 315.362413 233.619265 
L 315.529813 234.061039 
L 315.697213 242.214475 
L 315.864613 232.134873 
L 316.032013 233.581433 
L 316.199413 238.301834 
L 316.366813 229.995954 
L 316.534213 234.703063 
L 316.701613 234.508416 
L 316.869013 231.304343 
L 317.203813 236.11293 
L 317.371213 235.187326 
L 317.538613 233.047955 
L 317.706013 241.031918 
L 317.873413 231.467231 
L 318.208213 237.88062 
L 318.375613 229.447888 
L 318.543013 234.31818 
L 318.710413 232.793753 
L 318.877813 228.792211 
L 319.045213 243.556364 
L 319.212613 230.505588 
L 319.547413 232.275641 
L 319.714812 236.673373 
L 319.882213 236.577198 
L 320.049613 226.067014 
L 320.384412 240.26487 
L 320.551813 231.597583 
L 321.054012 236.293945 
L 321.221413 235.378845 
L 321.388813 230.073679 
L 321.556213 234.066309 
L 321.723613 229.969458 
L 321.891013 237.27391 
L 322.058413 232.359251 
L 322.225813 237.647207 
L 322.560613 231.983992 
L 322.728013 239.691515 
L 322.895413 234.334732 
L 323.062813 237.029869 
L 323.230213 233.18421 
L 323.732413 239.352672 
L 324.067213 224.888871 
L 324.234613 233.701235 
L 324.402013 236.142275 
L 324.736813 231.354973 
L 324.904213 230.290126 
L 325.071613 238.919799 
L 325.239013 233.051267 
L 325.406413 233.307756 
L 325.573813 234.524506 
L 325.741213 234.156184 
L 325.908613 238.717557 
L 326.076013 234.339085 
L 326.243413 226.871394 
L 326.410813 238.677366 
L 326.578213 236.636938 
L 326.745613 231.486066 
L 326.913013 238.524674 
L 327.080413 236.230269 
L 327.247813 231.67481 
L 327.415213 238.878883 
L 327.750013 230.573966 
L 327.917413 236.632595 
L 328.252213 227.892207 
L 328.419613 243.44981 
L 328.754413 231.403448 
L 329.256613 239.15245 
L 329.424013 223.224465 
L 329.758813 237.941358 
L 329.926213 229.806678 
L 330.093613 240.393836 
L 330.261013 228.430598 
L 330.428413 230.274886 
L 330.595813 240.759996 
L 330.763213 231.045704 
L 330.930613 229.606248 
L 331.098013 242.124129 
L 331.265413 232.569931 
L 331.432813 234.349765 
L 331.600213 239.703727 
L 331.935013 232.088561 
L 332.269813 236.475712 
L 332.437213 231.492082 
L 332.772013 234.653194 
L 332.939413 232.767689 
L 333.106813 240.431052 
L 333.274213 236.595282 
L 333.441613 229.458053 
L 333.776413 240.218792 
L 333.943813 231.198177 
L 334.111213 237.080572 
L 334.278613 234.424864 
L 334.446013 235.106453 
L 334.780813 231.788889 
L 335.115613 234.315016 
L 335.283013 231.621235 
L 335.450413 235.820523 
L 335.617813 230.498348 
L 335.785213 237.350437 
L 336.120013 232.641058 
L 336.287413 232.510325 
L 336.454813 235.438752 
L 336.622213 236.236767 
L 336.789613 232.9772 
L 336.957013 238.347119 
L 337.124413 229.750925 
L 337.291813 237.37572 
L 337.459213 231.169554 
L 337.626613 232.480462 
L 337.794013 237.469089 
L 337.961413 231.959008 
L 338.296213 240.236522 
L 338.463613 226.715928 
L 338.631012 236.521331 
L 338.798413 235.532575 
L 338.965813 230.20299 
L 339.133213 237.6756 
L 339.468013 230.071881 
L 339.635413 237.689451 
L 339.802813 234.366896 
L 339.970213 236.342353 
L 340.137613 228.246897 
L 340.472413 238.388866 
L 340.807213 228.181188 
L 340.974613 234.79502 
L 341.142013 233.272793 
L 341.309413 234.964863 
L 341.476813 234.008096 
L 341.644213 235.407937 
L 341.811613 235.332085 
L 341.979013 237.799639 
L 342.146413 227.8867 
L 342.313813 231.604543 
L 342.481213 239.162039 
L 342.816013 230.113055 
L 342.983413 238.191371 
L 343.318213 233.029535 
L 343.485613 234.46574 
L 343.653013 234.804653 
L 343.820413 234.086131 
L 343.987813 235.333392 
L 344.155213 233.982151 
L 344.322613 236.329391 
L 344.490013 236.387545 
L 344.824813 233.491676 
L 344.992213 233.94471 
L 345.159613 234.91027 
L 345.327013 233.655968 
L 345.494413 230.444478 
L 345.661813 241.422568 
L 345.996613 226.940846 
L 346.164013 236.522823 
L 346.331413 234.962818 
L 346.498813 226.174248 
L 346.666213 241.049975 
L 347.001013 229.834715 
L 347.168413 242.316381 
L 347.503213 230.562927 
L 347.670613 239.041133 
L 347.838013 229.421147 
L 348.005413 238.727599 
L 348.172813 234.455476 
L 348.675013 229.7139 
L 348.842413 239.542204 
L 349.009813 237.72178 
L 349.177213 229.075214 
L 349.344613 241.817849 
L 349.512013 231.34602 
L 349.679413 234.264108 
L 349.846813 240.404756 
L 350.014213 230.3936 
L 350.181613 228.516416 
L 350.349013 237.044563 
L 350.516413 234.913154 
L 350.683813 230.724208 
L 350.851213 234.581993 
L 351.018613 235.521979 
L 351.186013 240.166092 
L 351.520813 228.530272 
L 351.688213 236.735809 
L 351.855613 236.5295 
L 352.023013 232.101469 
L 352.357813 236.181474 
L 352.525213 234.463792 
L 352.860013 234.795255 
L 353.194813 228.854729 
L 353.362213 236.12246 
L 353.529613 236.274487 
L 353.864413 232.265497 
L 354.031813 233.614171 
L 354.199213 231.044823 
L 354.366613 238.737694 
L 354.534013 237.425514 
L 354.701413 227.58035 
L 354.868813 237.98235 
L 355.036213 237.8148 
L 355.203613 231.682622 
L 355.371013 236.742215 
L 355.705813 230.805738 
L 355.873213 239.176817 
L 356.040613 230.556571 
L 356.208013 230.135004 
L 356.375413 239.570166 
L 356.542813 234.12596 
L 356.710213 234.05151 
L 356.877613 231.450892 
L 357.045013 237.890532 
L 357.212413 232.264013 
L 357.379813 236.183282 
L 357.547213 233.201717 
L 357.882013 236.009326 
L 358.049413 239.664171 
L 358.216813 233.895719 
L 358.384213 232.887197 
L 358.551613 234.875954 
L 358.719013 234.926852 
L 358.886413 227.368304 
L 359.221213 238.781679 
L 359.388613 228.872133 
L 359.556013 234.498906 
L 359.723413 232.520466 
L 360.058213 240.142306 
L 360.225613 232.030298 
L 360.560413 237.165078 
L 360.895213 232.689076 
L 361.230013 235.242463 
L 361.397413 234.112795 
L 361.564813 231.514107 
L 361.732213 240.233394 
L 362.067013 231.576284 
L 362.401813 239.335763 
L 362.569213 228.378629 
L 362.736613 236.040948 
L 362.904013 236.776454 
L 363.071413 231.735648 
L 363.238813 233.340133 
L 363.406213 237.496142 
L 363.741013 229.981885 
L 364.075813 234.457191 
L 364.243213 228.876213 
L 364.410613 237.892923 
L 364.578012 229.730476 
L 364.745413 235.620329 
L 364.912813 236.172556 
L 365.080213 239.12556 
L 365.247613 230.779458 
L 365.415013 234.41605 
L 365.582413 234.654694 
L 365.749813 231.689664 
L 365.917213 234.747162 
L 366.252013 229.340695 
L 366.419413 240.543921 
L 366.586813 231.187418 
L 366.754213 235.258521 
L 366.921613 233.305617 
L 367.089013 233.365141 
L 367.256413 238.374744 
L 367.591213 234.230763 
L 367.758613 235.570475 
L 367.926013 234.203616 
L 368.093413 239.645481 
L 368.595613 228.512058 
L 368.763013 235.970497 
L 368.930413 236.553367 
L 369.097813 238.263125 
L 369.265213 228.469886 
L 369.432613 231.69447 
L 369.600013 241.438092 
L 369.934813 230.109991 
L 370.102213 233.996917 
L 370.269613 234.736587 
L 370.437013 234.385307 
L 370.604413 236.752044 
L 370.771813 232.637645 
L 370.939213 236.585579 
L 371.274013 232.954899 
L 371.441413 236.145107 
L 371.776213 230.142325 
L 371.943613 237.099753 
L 372.111013 237.919595 
L 372.278413 230.245461 
L 372.445813 237.560326 
L 372.613213 234.331683 
L 372.780613 236.233671 
L 372.948013 235.334657 
L 373.115413 232.251218 
L 373.282813 235.523466 
L 373.282813 235.523466 
" clip-path="url(#pa7b4f05fe4)" style="fill: none; stroke: #1f77b4; stroke-width: 1.5; stroke-linecap: square"/>
   </g>
   <g id="line2d_17">
    <path d="M 38.650213 54.608335 
L 39.319813 66.278677 
L 39.989413 74.101541 
L 40.659013 79.345364 
L 41.328612 82.860403 
L 41.998213 85.216605 
L 42.667813 86.796014 
L 43.337412 87.854723 
L 44.007013 88.564398 
L 44.844013 89.132151 
L 45.848413 89.527025 
L 47.187613 89.79152 
L 49.363813 89.948521 
L 54.218412 90.004103 
L 116.323813 90.007339 
L 373.282813 90.007339 
L 373.282813 90.007339 
" clip-path="url(#pa7b4f05fe4)" style="fill: none; stroke: #ff7f0e; stroke-width: 1.5; stroke-linecap: square"/>
   </g>
   <g id="patch_3">
    <path d="M 38.482813 253.44 
L 38.482813 36 
" style="fill: none; stroke: #000000; stroke-width: 0.8; stroke-linejoin: miter; stroke-linecap: square"/>
   </g>
   <g id="patch_4">
    <path d="M 373.282813 253.44 
L 373.282813 36 
" style="fill: none; stroke: #000000; stroke-width: 0.8; stroke-linejoin: miter; stroke-linecap: square"/>
   </g>
   <g id="patch_5">
    <path d="M 38.482813 253.44 
L 373.282813 253.44 
" style="fill: none; stroke: #000000; stroke-width: 0.8; stroke-linejoin: miter; stroke-linecap: square"/>
   </g>
   <g id="patch_6">
    <path d="M 38.482813 36 
L 373.282813 36 
" style="fill: none; stroke: #000000; stroke-width: 0.8; stroke-linejoin: miter; stroke-linecap: square"/>
   </g>
   <g id="legend_1">
    <g id="patch_7">
     <path d="M 316.582813 77.078125 
L 366.282813 77.078125 
Q 368.282813 77.078125 368.282813 75.078125 
L 368.282813 43 
Q 368.282813 41 366.282813 41 
L 316.582813 41 
Q 314.582813 41 314.582813 43 
L 314.582813 75.078125 
Q 314.582813 77.078125 316.582813 77.078125 
z
" style="fill: #ffffff; opacity: 0.8; stroke: #cccccc; stroke-linejoin: miter"/>
    </g>
    <g id="line2d_18">
     <path d="M 318.582813 52.8 
L 328.582813 52.8 
L 338.582813 52.8 
" style="fill: none; stroke: #1f77b4; stroke-width: 1.5; stroke-linecap: square"/>
    </g>
    <g id="text_17">
     <!-- $\hat{y(t)}$ -->
     <g transform="translate(346.582813 56.3) scale(0.1 -0.1)">
      <defs>
       <path id="DejaVuSans-302" d="M -1831 5119 
L -1369 5119 
L -603 3944 
L -1038 3944 
L -1600 4709 
L -2163 3944 
L -2597 3944 
L -1831 5119 
z
M -1600 3584 
L -1600 3584 
z
" transform="scale(0.015625)"/>
       <path id="DejaVuSans-Oblique-79" d="M 1588 -325 
Q 1188 -997 936 -1164 
Q 684 -1331 294 -1331 
L -159 -1331 
L -63 -850 
L 269 -850 
Q 509 -850 678 -719 
Q 847 -588 1056 -206 
L 1234 128 
L 459 3500 
L 1069 3500 
L 1650 819 
L 3256 3500 
L 3859 3500 
L 1588 -325 
z
" transform="scale(0.015625)"/>
       <path id="DejaVuSans-28" d="M 1984 4856 
Q 1566 4138 1362 3434 
Q 1159 2731 1159 2009 
Q 1159 1288 1364 580 
Q 1569 -128 1984 -844 
L 1484 -844 
Q 1016 -109 783 600 
Q 550 1309 550 2009 
Q 550 2706 781 3412 
Q 1013 4119 1484 4856 
L 1984 4856 
z
" transform="scale(0.015625)"/>
       <path id="DejaVuSans-29" d="M 513 4856 
L 1013 4856 
Q 1481 4119 1714 3412 
Q 1947 2706 1947 2009 
Q 1947 1309 1714 600 
Q 1481 -109 1013 -844 
L 513 -844 
Q 928 -128 1133 580 
Q 1338 1288 1338 2009 
Q 1338 2731 1133 3434 
Q 928 4138 513 4856 
z
" transform="scale(0.015625)"/>
      </defs>
      <use xlink:href="#DejaVuSans-302" transform="translate(135.682129 33.015625)"/>
      <use xlink:href="#DejaVuSans-Oblique-79" transform="translate(0 0.640625)"/>
      <use xlink:href="#DejaVuSans-28" transform="translate(59.179688 0.640625)"/>
      <use xlink:href="#DejaVuSans-Oblique-74" transform="translate(98.193359 0.640625)"/>
      <use xlink:href="#DejaVuSans-29" transform="translate(137.402344 0.640625)"/>
     </g>
    </g>
    <g id="line2d_19">
     <path d="M 318.582813 67.498437 
L 328.582813 67.498437 
L 338.582813 67.498437 
" style="fill: none; stroke: #ff7f0e; stroke-width: 1.5; stroke-linecap: square"/>
    </g>
    <g id="text_18">
     <!-- $x(t)$ -->
     <g transform="translate(346.582813 70.998437) scale(0.1 -0.1)">
      <defs>
       <path id="DejaVuSans-Oblique-78" d="M 3841 3500 
L 2234 1784 
L 3219 0 
L 2559 0 
L 1819 1388 
L 531 0 
L -166 0 
L 1556 1844 
L 641 3500 
L 1300 3500 
L 1972 2234 
L 3144 3500 
L 3841 3500 
z
" transform="scale(0.015625)"/>
      </defs>
      <use xlink:href="#DejaVuSans-Oblique-78" transform="translate(0 0.125)"/>
      <use xlink:href="#DejaVuSans-28" transform="translate(59.179688 0.125)"/>
      <use xlink:href="#DejaVuSans-Oblique-74" transform="translate(98.193359 0.125)"/>
      <use xlink:href="#DejaVuSans-29" transform="translate(137.402344 0.125)"/>
     </g>
    </g>
   </g>
  </g>
  <g id="text_19">
   <!-- Accumulate to Threshold model with input of -0.2 with rms=1  -->
   <g transform="translate(13.149687 16.318125) scale(0.12 -0.12)">
    <defs>
     <path id="DejaVuSans-41" d="M 2188 4044 
L 1331 1722 
L 3047 1722 
L 2188 4044 
z
M 1831 4666 
L 2547 4666 
L 4325 0 
L 3669 0 
L 3244 1197 
L 1141 1197 
L 716 0 
L 50 0 
L 1831 4666 
z
" transform="scale(0.015625)"/>
     <path id="DejaVuSans-63" d="M 3122 3366 
L 3122 2828 
Q 2878 2963 2633 3030 
Q 2388 3097 2138 3097 
Q 1578 3097 1268 2742 
Q 959 2388 959 1747 
Q 959 1106 1268 751 
Q 1578 397 2138 397 
Q 2388 397 2633 464 
Q 2878 531 3122 666 
L 3122 134 
Q 2881 22 2623 -34 
Q 2366 -91 2075 -91 
Q 1284 -91 818 406 
Q 353 903 353 1747 
Q 353 2603 823 3093 
Q 1294 3584 2113 3584 
Q 2378 3584 2631 3529 
Q 2884 3475 3122 3366 
z
" transform="scale(0.015625)"/>
     <path id="DejaVuSans-75" d="M 544 1381 
L 544 3500 
L 1119 3500 
L 1119 1403 
Q 1119 906 1312 657 
Q 1506 409 1894 409 
Q 2359 409 2629 706 
Q 2900 1003 2900 1516 
L 2900 3500 
L 3475 3500 
L 3475 0 
L 2900 0 
L 2900 538 
Q 2691 219 2414 64 
Q 2138 -91 1772 -91 
Q 1169 -91 856 284 
Q 544 659 544 1381 
z
M 1991 3584 
L 1991 3584 
z
" transform="scale(0.015625)"/>
     <path id="DejaVuSans-6d" d="M 3328 2828 
Q 3544 3216 3844 3400 
Q 4144 3584 4550 3584 
Q 5097 3584 5394 3201 
Q 5691 2819 5691 2113 
L 5691 0 
L 5113 0 
L 5113 2094 
Q 5113 2597 4934 2840 
Q 4756 3084 4391 3084 
Q 3944 3084 3684 2787 
Q 3425 2491 3425 1978 
L 3425 0 
L 2847 0 
L 2847 2094 
Q 2847 2600 2669 2842 
Q 2491 3084 2119 3084 
Q 1678 3084 1418 2786 
Q 1159 2488 1159 1978 
L 1159 0 
L 581 0 
L 581 3500 
L 1159 3500 
L 1159 2956 
Q 1356 3278 1631 3431 
Q 1906 3584 2284 3584 
Q 2666 3584 2933 3390 
Q 3200 3197 3328 2828 
z
" transform="scale(0.015625)"/>
     <path id="DejaVuSans-6c" d="M 603 4863 
L 1178 4863 
L 1178 0 
L 603 0 
L 603 4863 
z
" transform="scale(0.015625)"/>
     <path id="DejaVuSans-61" d="M 2194 1759 
Q 1497 1759 1228 1600 
Q 959 1441 959 1056 
Q 959 750 1161 570 
Q 1363 391 1709 391 
Q 2188 391 2477 730 
Q 2766 1069 2766 1631 
L 2766 1759 
L 2194 1759 
z
M 3341 1997 
L 3341 0 
L 2766 0 
L 2766 531 
Q 2569 213 2275 61 
Q 1981 -91 1556 -91 
Q 1019 -91 701 211 
Q 384 513 384 1019 
Q 384 1609 779 1909 
Q 1175 2209 1959 2209 
L 2766 2209 
L 2766 2266 
Q 2766 2663 2505 2880 
Q 2244 3097 1772 3097 
Q 1472 3097 1187 3025 
Q 903 2953 641 2809 
L 641 3341 
Q 956 3463 1253 3523 
Q 1550 3584 1831 3584 
Q 2591 3584 2966 3190 
Q 3341 2797 3341 1997 
z
" transform="scale(0.015625)"/>
     <path id="DejaVuSans-74" d="M 1172 4494 
L 1172 3500 
L 2356 3500 
L 2356 3053 
L 1172 3053 
L 1172 1153 
Q 1172 725 1289 603 
Q 1406 481 1766 481 
L 2356 481 
L 2356 0 
L 1766 0 
Q 1100 0 847 248 
Q 594 497 594 1153 
L 594 3053 
L 172 3053 
L 172 3500 
L 594 3500 
L 594 4494 
L 1172 4494 
z
" transform="scale(0.015625)"/>
     <path id="DejaVuSans-65" d="M 3597 1894 
L 3597 1613 
L 953 1613 
Q 991 1019 1311 708 
Q 1631 397 2203 397 
Q 2534 397 2845 478 
Q 3156 559 3463 722 
L 3463 178 
Q 3153 47 2828 -22 
Q 2503 -91 2169 -91 
Q 1331 -91 842 396 
Q 353 884 353 1716 
Q 353 2575 817 3079 
Q 1281 3584 2069 3584 
Q 2775 3584 3186 3129 
Q 3597 2675 3597 1894 
z
M 3022 2063 
Q 3016 2534 2758 2815 
Q 2500 3097 2075 3097 
Q 1594 3097 1305 2825 
Q 1016 2553 972 2059 
L 3022 2063 
z
" transform="scale(0.015625)"/>
     <path id="DejaVuSans-20" transform="scale(0.015625)"/>
     <path id="DejaVuSans-6f" d="M 1959 3097 
Q 1497 3097 1228 2736 
Q 959 2375 959 1747 
Q 959 1119 1226 758 
Q 1494 397 1959 397 
Q 2419 397 2687 759 
Q 2956 1122 2956 1747 
Q 2956 2369 2687 2733 
Q 2419 3097 1959 3097 
z
M 1959 3584 
Q 2709 3584 3137 3096 
Q 3566 2609 3566 1747 
Q 3566 888 3137 398 
Q 2709 -91 1959 -91 
Q 1206 -91 779 398 
Q 353 888 353 1747 
Q 353 2609 779 3096 
Q 1206 3584 1959 3584 
z
" transform="scale(0.015625)"/>
     <path id="DejaVuSans-54" d="M -19 4666 
L 3928 4666 
L 3928 4134 
L 2272 4134 
L 2272 0 
L 1638 0 
L 1638 4134 
L -19 4134 
L -19 4666 
z
" transform="scale(0.015625)"/>
     <path id="DejaVuSans-68" d="M 3513 2113 
L 3513 0 
L 2938 0 
L 2938 2094 
Q 2938 2591 2744 2837 
Q 2550 3084 2163 3084 
Q 1697 3084 1428 2787 
Q 1159 2491 1159 1978 
L 1159 0 
L 581 0 
L 581 4863 
L 1159 4863 
L 1159 2956 
Q 1366 3272 1645 3428 
Q 1925 3584 2291 3584 
Q 2894 3584 3203 3211 
Q 3513 2838 3513 2113 
z
" transform="scale(0.015625)"/>
     <path id="DejaVuSans-72" d="M 2631 2963 
Q 2534 3019 2420 3045 
Q 2306 3072 2169 3072 
Q 1681 3072 1420 2755 
Q 1159 2438 1159 1844 
L 1159 0 
L 581 0 
L 581 3500 
L 1159 3500 
L 1159 2956 
Q 1341 3275 1631 3429 
Q 1922 3584 2338 3584 
Q 2397 3584 2469 3576 
Q 2541 3569 2628 3553 
L 2631 2963 
z
" transform="scale(0.015625)"/>
     <path id="DejaVuSans-73" d="M 2834 3397 
L 2834 2853 
Q 2591 2978 2328 3040 
Q 2066 3103 1784 3103 
Q 1356 3103 1142 2972 
Q 928 2841 928 2578 
Q 928 2378 1081 2264 
Q 1234 2150 1697 2047 
L 1894 2003 
Q 2506 1872 2764 1633 
Q 3022 1394 3022 966 
Q 3022 478 2636 193 
Q 2250 -91 1575 -91 
Q 1294 -91 989 -36 
Q 684 19 347 128 
L 347 722 
Q 666 556 975 473 
Q 1284 391 1588 391 
Q 1994 391 2212 530 
Q 2431 669 2431 922 
Q 2431 1156 2273 1281 
Q 2116 1406 1581 1522 
L 1381 1569 
Q 847 1681 609 1914 
Q 372 2147 372 2553 
Q 372 3047 722 3315 
Q 1072 3584 1716 3584 
Q 2034 3584 2315 3537 
Q 2597 3491 2834 3397 
z
" transform="scale(0.015625)"/>
     <path id="DejaVuSans-64" d="M 2906 2969 
L 2906 4863 
L 3481 4863 
L 3481 0 
L 2906 0 
L 2906 525 
Q 2725 213 2448 61 
Q 2172 -91 1784 -91 
Q 1150 -91 751 415 
Q 353 922 353 1747 
Q 353 2572 751 3078 
Q 1150 3584 1784 3584 
Q 2172 3584 2448 3432 
Q 2725 3281 2906 2969 
z
M 947 1747 
Q 947 1113 1208 752 
Q 1469 391 1925 391 
Q 2381 391 2643 752 
Q 2906 1113 2906 1747 
Q 2906 2381 2643 2742 
Q 2381 3103 1925 3103 
Q 1469 3103 1208 2742 
Q 947 2381 947 1747 
z
" transform="scale(0.015625)"/>
     <path id="DejaVuSans-77" d="M 269 3500 
L 844 3500 
L 1563 769 
L 2278 3500 
L 2956 3500 
L 3675 769 
L 4391 3500 
L 4966 3500 
L 4050 0 
L 3372 0 
L 2619 2869 
L 1863 0 
L 1184 0 
L 269 3500 
z
" transform="scale(0.015625)"/>
     <path id="DejaVuSans-69" d="M 603 3500 
L 1178 3500 
L 1178 0 
L 603 0 
L 603 3500 
z
M 603 4863 
L 1178 4863 
L 1178 4134 
L 603 4134 
L 603 4863 
z
" transform="scale(0.015625)"/>
     <path id="DejaVuSans-6e" d="M 3513 2113 
L 3513 0 
L 2938 0 
L 2938 2094 
Q 2938 2591 2744 2837 
Q 2550 3084 2163 3084 
Q 1697 3084 1428 2787 
Q 1159 2491 1159 1978 
L 1159 0 
L 581 0 
L 581 3500 
L 1159 3500 
L 1159 2956 
Q 1366 3272 1645 3428 
Q 1925 3584 2291 3584 
Q 2894 3584 3203 3211 
Q 3513 2838 3513 2113 
z
" transform="scale(0.015625)"/>
     <path id="DejaVuSans-70" d="M 1159 525 
L 1159 -1331 
L 581 -1331 
L 581 3500 
L 1159 3500 
L 1159 2969 
Q 1341 3281 1617 3432 
Q 1894 3584 2278 3584 
Q 2916 3584 3314 3078 
Q 3713 2572 3713 1747 
Q 3713 922 3314 415 
Q 2916 -91 2278 -91 
Q 1894 -91 1617 61 
Q 1341 213 1159 525 
z
M 3116 1747 
Q 3116 2381 2855 2742 
Q 2594 3103 2138 3103 
Q 1681 3103 1420 2742 
Q 1159 2381 1159 1747 
Q 1159 1113 1420 752 
Q 1681 391 2138 391 
Q 2594 391 2855 752 
Q 3116 1113 3116 1747 
z
" transform="scale(0.015625)"/>
     <path id="DejaVuSans-66" d="M 2375 4863 
L 2375 4384 
L 1825 4384 
Q 1516 4384 1395 4259 
Q 1275 4134 1275 3809 
L 1275 3500 
L 2222 3500 
L 2222 3053 
L 1275 3053 
L 1275 0 
L 697 0 
L 697 3053 
L 147 3053 
L 147 3500 
L 697 3500 
L 697 3744 
Q 697 4328 969 4595 
Q 1241 4863 1831 4863 
L 2375 4863 
z
" transform="scale(0.015625)"/>
     <path id="DejaVuSans-2d" d="M 313 2009 
L 1997 2009 
L 1997 1497 
L 313 1497 
L 313 2009 
z
" transform="scale(0.015625)"/>
     <path id="DejaVuSans-3d" d="M 678 2906 
L 4684 2906 
L 4684 2381 
L 678 2381 
L 678 2906 
z
M 678 1631 
L 4684 1631 
L 4684 1100 
L 678 1100 
L 678 1631 
z
" transform="scale(0.015625)"/>
    </defs>
    <use xlink:href="#DejaVuSans-41"/>
    <use xlink:href="#DejaVuSans-63" x="66.658203"/>
    <use xlink:href="#DejaVuSans-63" x="121.638672"/>
    <use xlink:href="#DejaVuSans-75" x="176.619141"/>
    <use xlink:href="#DejaVuSans-6d" x="239.998047"/>
    <use xlink:href="#DejaVuSans-75" x="337.410156"/>
    <use xlink:href="#DejaVuSans-6c" x="400.789062"/>
    <use xlink:href="#DejaVuSans-61" x="428.572266"/>
    <use xlink:href="#DejaVuSans-74" x="489.851562"/>
    <use xlink:href="#DejaVuSans-65" x="529.060547"/>
    <use xlink:href="#DejaVuSans-20" x="590.583984"/>
    <use xlink:href="#DejaVuSans-74" x="622.371094"/>
    <use xlink:href="#DejaVuSans-6f" x="661.580078"/>
    <use xlink:href="#DejaVuSans-20" x="722.761719"/>
    <use xlink:href="#DejaVuSans-54" x="754.548828"/>
    <use xlink:href="#DejaVuSans-68" x="815.632812"/>
    <use xlink:href="#DejaVuSans-72" x="879.011719"/>
    <use xlink:href="#DejaVuSans-65" x="917.875"/>
    <use xlink:href="#DejaVuSans-73" x="979.398438"/>
    <use xlink:href="#DejaVuSans-68" x="1031.498047"/>
    <use xlink:href="#DejaVuSans-6f" x="1094.876953"/>
    <use xlink:href="#DejaVuSans-6c" x="1156.058594"/>
    <use xlink:href="#DejaVuSans-64" x="1183.841797"/>
    <use xlink:href="#DejaVuSans-20" x="1247.318359"/>
    <use xlink:href="#DejaVuSans-6d" x="1279.105469"/>
    <use xlink:href="#DejaVuSans-6f" x="1376.517578"/>
    <use xlink:href="#DejaVuSans-64" x="1437.699219"/>
    <use xlink:href="#DejaVuSans-65" x="1501.175781"/>
    <use xlink:href="#DejaVuSans-6c" x="1562.699219"/>
    <use xlink:href="#DejaVuSans-20" x="1590.482422"/>
    <use xlink:href="#DejaVuSans-77" x="1622.269531"/>
    <use xlink:href="#DejaVuSans-69" x="1704.056641"/>
    <use xlink:href="#DejaVuSans-74" x="1731.839844"/>
    <use xlink:href="#DejaVuSans-68" x="1771.048828"/>
    <use xlink:href="#DejaVuSans-20" x="1834.427734"/>
    <use xlink:href="#DejaVuSans-69" x="1866.214844"/>
    <use xlink:href="#DejaVuSans-6e" x="1893.998047"/>
    <use xlink:href="#DejaVuSans-70" x="1957.376953"/>
    <use xlink:href="#DejaVuSans-75" x="2020.853516"/>
    <use xlink:href="#DejaVuSans-74" x="2084.232422"/>
    <use xlink:href="#DejaVuSans-20" x="2123.441406"/>
    <use xlink:href="#DejaVuSans-6f" x="2155.228516"/>
    <use xlink:href="#DejaVuSans-66" x="2216.410156"/>
    <use xlink:href="#DejaVuSans-20" x="2251.615234"/>
    <use xlink:href="#DejaVuSans-2d" x="2283.402344"/>
    <use xlink:href="#DejaVuSans-30" x="2319.486328"/>
    <use xlink:href="#DejaVuSans-2e" x="2383.109375"/>
    <use xlink:href="#DejaVuSans-32" x="2414.896484"/>
    <use xlink:href="#DejaVuSans-20" x="2478.519531"/>
    <use xlink:href="#DejaVuSans-77" x="2510.306641"/>
    <use xlink:href="#DejaVuSans-69" x="2592.09375"/>
    <use xlink:href="#DejaVuSans-74" x="2619.876953"/>
    <use xlink:href="#DejaVuSans-68" x="2659.085938"/>
    <use xlink:href="#DejaVuSans-20" x="2722.464844"/>
    <use xlink:href="#DejaVuSans-72" x="2754.251953"/>
    <use xlink:href="#DejaVuSans-6d" x="2793.615234"/>
    <use xlink:href="#DejaVuSans-73" x="2891.027344"/>
    <use xlink:href="#DejaVuSans-3d" x="2943.126953"/>
    <use xlink:href="#DejaVuSans-31" x="3026.916016"/>
    <use xlink:href="#DejaVuSans-20" x="3090.539062"/>
   </g>
  </g>
 </g>
 <defs>
  <clipPath id="pa7b4f05fe4">
   <rect x="38.482813" y="36" width="334.8" height="217.44"/>
  </clipPath>
 </defs>
</svg>
