<?xml version="1.0" encoding="utf-8" standalone="no"?>
<!DOCTYPE svg PUBLIC "-//W3C//DTD SVG 1.1//EN"
  "http://www.w3.org/Graphics/SVG/1.1/DTD/svg11.dtd">
<svg xmlns:xlink="http://www.w3.org/1999/xlink" width="383.235937pt" height="277.318125pt" viewBox="0 0 383.235937 277.318125" xmlns="http://www.w3.org/2000/svg" version="1.1">
 <metadata>
  <rdf:RDF xmlns:dc="http://purl.org/dc/elements/1.1/" xmlns:cc="http://creativecommons.org/ns#" xmlns:rdf="http://www.w3.org/1999/02/22-rdf-syntax-ns#">
   <cc:Work>
    <dc:type rdf:resource="http://purl.org/dc/dcmitype/StillImage"/>
    <dc:date>2022-11-17T11:59:54.697937</dc:date>
    <dc:format>image/svg+xml</dc:format>
    <dc:creator>
     <cc:Agent>
      <dc:title>Matplotlib v3.6.0, https://matplotlib.org/</dc:title>
     </cc:Agent>
    </dc:creator>
   </cc:Work>
  </rdf:RDF>
 </metadata>
 <defs>
  <style type="text/css">*{stroke-linejoin: round; stroke-linecap: butt}</style>
 </defs>
 <g id="figure_1">
  <g id="patch_1">
   <path d="M 0 277.318125 
L 383.235937 277.318125 
L 383.235937 0 
L 0 0 
L 0 277.318125 
z
" style="fill: none"/>
  </g>
  <g id="axes_1">
   <g id="patch_2">
    <path d="M 30.103125 253.44 
L 364.903125 253.44 
L 364.903125 36 
L 30.103125 36 
z
" style="fill: #ffffff"/>
   </g>
   <g id="matplotlib.axis_1">
    <g id="xtick_1">
     <g id="line2d_1">
      <defs>
       <path id="mc83613b916" d="M 0 0 
L 0 3.5 
" style="stroke: #000000; stroke-width: 0.8"/>
      </defs>
      <g>
       <use xlink:href="#mc83613b916" x="30.103125" y="253.44" style="stroke: #000000; stroke-width: 0.8"/>
      </g>
     </g>
     <g id="text_1">
      <!-- 0.00 -->
      <g transform="translate(18.970313 268.038437) scale(0.1 -0.1)">
       <defs>
        <path id="DejaVuSans-30" d="M 2034 4250 
Q 1547 4250 1301 3770 
Q 1056 3291 1056 2328 
Q 1056 1369 1301 889 
Q 1547 409 2034 409 
Q 2525 409 2770 889 
Q 3016 1369 3016 2328 
Q 3016 3291 2770 3770 
Q 2525 4250 2034 4250 
z
M 2034 4750 
Q 2819 4750 3233 4129 
Q 3647 3509 3647 2328 
Q 3647 1150 3233 529 
Q 2819 -91 2034 -91 
Q 1250 -91 836 529 
Q 422 1150 422 2328 
Q 422 3509 836 4129 
Q 1250 4750 2034 4750 
z
" transform="scale(0.015625)"/>
        <path id="DejaVuSans-2e" d="M 684 794 
L 1344 794 
L 1344 0 
L 684 0 
L 684 794 
z
" transform="scale(0.015625)"/>
       </defs>
       <use xlink:href="#DejaVuSans-30"/>
       <use xlink:href="#DejaVuSans-2e" x="63.623047"/>
       <use xlink:href="#DejaVuSans-30" x="95.410156"/>
       <use xlink:href="#DejaVuSans-30" x="159.033203"/>
      </g>
     </g>
    </g>
    <g id="xtick_2">
     <g id="line2d_2">
      <g>
       <use xlink:href="#mc83613b916" x="71.953125" y="253.44" style="stroke: #000000; stroke-width: 0.8"/>
      </g>
     </g>
     <g id="text_2">
      <!-- 0.25 -->
      <g transform="translate(60.820313 268.038437) scale(0.1 -0.1)">
       <defs>
        <path id="DejaVuSans-32" d="M 1228 531 
L 3431 531 
L 3431 0 
L 469 0 
L 469 531 
Q 828 903 1448 1529 
Q 2069 2156 2228 2338 
Q 2531 2678 2651 2914 
Q 2772 3150 2772 3378 
Q 2772 3750 2511 3984 
Q 2250 4219 1831 4219 
Q 1534 4219 1204 4116 
Q 875 4013 500 3803 
L 500 4441 
Q 881 4594 1212 4672 
Q 1544 4750 1819 4750 
Q 2544 4750 2975 4387 
Q 3406 4025 3406 3419 
Q 3406 3131 3298 2873 
Q 3191 2616 2906 2266 
Q 2828 2175 2409 1742 
Q 1991 1309 1228 531 
z
" transform="scale(0.015625)"/>
        <path id="DejaVuSans-35" d="M 691 4666 
L 3169 4666 
L 3169 4134 
L 1269 4134 
L 1269 2991 
Q 1406 3038 1543 3061 
Q 1681 3084 1819 3084 
Q 2600 3084 3056 2656 
Q 3513 2228 3513 1497 
Q 3513 744 3044 326 
Q 2575 -91 1722 -91 
Q 1428 -91 1123 -41 
Q 819 9 494 109 
L 494 744 
Q 775 591 1075 516 
Q 1375 441 1709 441 
Q 2250 441 2565 725 
Q 2881 1009 2881 1497 
Q 2881 1984 2565 2268 
Q 2250 2553 1709 2553 
Q 1456 2553 1204 2497 
Q 953 2441 691 2322 
L 691 4666 
z
" transform="scale(0.015625)"/>
       </defs>
       <use xlink:href="#DejaVuSans-30"/>
       <use xlink:href="#DejaVuSans-2e" x="63.623047"/>
       <use xlink:href="#DejaVuSans-32" x="95.410156"/>
       <use xlink:href="#DejaVuSans-35" x="159.033203"/>
      </g>
     </g>
    </g>
    <g id="xtick_3">
     <g id="line2d_3">
      <g>
       <use xlink:href="#mc83613b916" x="113.803125" y="253.44" style="stroke: #000000; stroke-width: 0.8"/>
      </g>
     </g>
     <g id="text_3">
      <!-- 0.50 -->
      <g transform="translate(102.670313 268.038437) scale(0.1 -0.1)">
       <use xlink:href="#DejaVuSans-30"/>
       <use xlink:href="#DejaVuSans-2e" x="63.623047"/>
       <use xlink:href="#DejaVuSans-35" x="95.410156"/>
       <use xlink:href="#DejaVuSans-30" x="159.033203"/>
      </g>
     </g>
    </g>
    <g id="xtick_4">
     <g id="line2d_4">
      <g>
       <use xlink:href="#mc83613b916" x="155.653125" y="253.44" style="stroke: #000000; stroke-width: 0.8"/>
      </g>
     </g>
     <g id="text_4">
      <!-- 0.75 -->
      <g transform="translate(144.520313 268.038437) scale(0.1 -0.1)">
       <defs>
        <path id="DejaVuSans-37" d="M 525 4666 
L 3525 4666 
L 3525 4397 
L 1831 0 
L 1172 0 
L 2766 4134 
L 525 4134 
L 525 4666 
z
" transform="scale(0.015625)"/>
       </defs>
       <use xlink:href="#DejaVuSans-30"/>
       <use xlink:href="#DejaVuSans-2e" x="63.623047"/>
       <use xlink:href="#DejaVuSans-37" x="95.410156"/>
       <use xlink:href="#DejaVuSans-35" x="159.033203"/>
      </g>
     </g>
    </g>
    <g id="xtick_5">
     <g id="line2d_5">
      <g>
       <use xlink:href="#mc83613b916" x="197.503125" y="253.44" style="stroke: #000000; stroke-width: 0.8"/>
      </g>
     </g>
     <g id="text_5">
      <!-- 1.00 -->
      <g transform="translate(186.370313 268.038437) scale(0.1 -0.1)">
       <defs>
        <path id="DejaVuSans-31" d="M 794 531 
L 1825 531 
L 1825 4091 
L 703 3866 
L 703 4441 
L 1819 4666 
L 2450 4666 
L 2450 531 
L 3481 531 
L 3481 0 
L 794 0 
L 794 531 
z
" transform="scale(0.015625)"/>
       </defs>
       <use xlink:href="#DejaVuSans-31"/>
       <use xlink:href="#DejaVuSans-2e" x="63.623047"/>
       <use xlink:href="#DejaVuSans-30" x="95.410156"/>
       <use xlink:href="#DejaVuSans-30" x="159.033203"/>
      </g>
     </g>
    </g>
    <g id="xtick_6">
     <g id="line2d_6">
      <g>
       <use xlink:href="#mc83613b916" x="239.353125" y="253.44" style="stroke: #000000; stroke-width: 0.8"/>
      </g>
     </g>
     <g id="text_6">
      <!-- 1.25 -->
      <g transform="translate(228.220313 268.038437) scale(0.1 -0.1)">
       <use xlink:href="#DejaVuSans-31"/>
       <use xlink:href="#DejaVuSans-2e" x="63.623047"/>
       <use xlink:href="#DejaVuSans-32" x="95.410156"/>
       <use xlink:href="#DejaVuSans-35" x="159.033203"/>
      </g>
     </g>
    </g>
    <g id="xtick_7">
     <g id="line2d_7">
      <g>
       <use xlink:href="#mc83613b916" x="281.203125" y="253.44" style="stroke: #000000; stroke-width: 0.8"/>
      </g>
     </g>
     <g id="text_7">
      <!-- 1.50 -->
      <g transform="translate(270.070313 268.038437) scale(0.1 -0.1)">
       <use xlink:href="#DejaVuSans-31"/>
       <use xlink:href="#DejaVuSans-2e" x="63.623047"/>
       <use xlink:href="#DejaVuSans-35" x="95.410156"/>
       <use xlink:href="#DejaVuSans-30" x="159.033203"/>
      </g>
     </g>
    </g>
    <g id="xtick_8">
     <g id="line2d_8">
      <g>
       <use xlink:href="#mc83613b916" x="323.053125" y="253.44" style="stroke: #000000; stroke-width: 0.8"/>
      </g>
     </g>
     <g id="text_8">
      <!-- 1.75 -->
      <g transform="translate(311.920313 268.038437) scale(0.1 -0.1)">
       <use xlink:href="#DejaVuSans-31"/>
       <use xlink:href="#DejaVuSans-2e" x="63.623047"/>
       <use xlink:href="#DejaVuSans-37" x="95.410156"/>
       <use xlink:href="#DejaVuSans-35" x="159.033203"/>
      </g>
     </g>
    </g>
    <g id="xtick_9">
     <g id="line2d_9">
      <g>
       <use xlink:href="#mc83613b916" x="364.903125" y="253.44" style="stroke: #000000; stroke-width: 0.8"/>
      </g>
     </g>
     <g id="text_9">
      <!-- 2.00 -->
      <g transform="translate(353.770313 268.038437) scale(0.1 -0.1)">
       <use xlink:href="#DejaVuSans-32"/>
       <use xlink:href="#DejaVuSans-2e" x="63.623047"/>
       <use xlink:href="#DejaVuSans-30" x="95.410156"/>
       <use xlink:href="#DejaVuSans-30" x="159.033203"/>
      </g>
     </g>
    </g>
   </g>
   <g id="matplotlib.axis_2">
    <g id="ytick_1">
     <g id="line2d_10">
      <defs>
       <path id="m33604b5d83" d="M 0 0 
L -3.5 0 
" style="stroke: #000000; stroke-width: 0.8"/>
      </defs>
      <g>
       <use xlink:href="#m33604b5d83" x="30.103125" y="243.556364" style="stroke: #000000; stroke-width: 0.8"/>
      </g>
     </g>
     <g id="text_10">
      <!-- 0.0 -->
      <g transform="translate(7.2 247.355582) scale(0.1 -0.1)">
       <use xlink:href="#DejaVuSans-30"/>
       <use xlink:href="#DejaVuSans-2e" x="63.623047"/>
       <use xlink:href="#DejaVuSans-30" x="95.410156"/>
      </g>
     </g>
    </g>
    <g id="ytick_2">
     <g id="line2d_11">
      <g>
       <use xlink:href="#m33604b5d83" x="30.103125" y="208.403448" style="stroke: #000000; stroke-width: 0.8"/>
      </g>
     </g>
     <g id="text_11">
      <!-- 0.2 -->
      <g transform="translate(7.2 212.202666) scale(0.1 -0.1)">
       <use xlink:href="#DejaVuSans-30"/>
       <use xlink:href="#DejaVuSans-2e" x="63.623047"/>
       <use xlink:href="#DejaVuSans-32" x="95.410156"/>
      </g>
     </g>
    </g>
    <g id="ytick_3">
     <g id="line2d_12">
      <g>
       <use xlink:href="#m33604b5d83" x="30.103125" y="173.250532" style="stroke: #000000; stroke-width: 0.8"/>
      </g>
     </g>
     <g id="text_12">
      <!-- 0.4 -->
      <g transform="translate(7.2 177.04975) scale(0.1 -0.1)">
       <defs>
        <path id="DejaVuSans-34" d="M 2419 4116 
L 825 1625 
L 2419 1625 
L 2419 4116 
z
M 2253 4666 
L 3047 4666 
L 3047 1625 
L 3713 1625 
L 3713 1100 
L 3047 1100 
L 3047 0 
L 2419 0 
L 2419 1100 
L 313 1100 
L 313 1709 
L 2253 4666 
z
" transform="scale(0.015625)"/>
       </defs>
       <use xlink:href="#DejaVuSans-30"/>
       <use xlink:href="#DejaVuSans-2e" x="63.623047"/>
       <use xlink:href="#DejaVuSans-34" x="95.410156"/>
      </g>
     </g>
    </g>
    <g id="ytick_4">
     <g id="line2d_13">
      <g>
       <use xlink:href="#m33604b5d83" x="30.103125" y="138.097616" style="stroke: #000000; stroke-width: 0.8"/>
      </g>
     </g>
     <g id="text_13">
      <!-- 0.6 -->
      <g transform="translate(7.2 141.896834) scale(0.1 -0.1)">
       <defs>
        <path id="DejaVuSans-36" d="M 2113 2584 
Q 1688 2584 1439 2293 
Q 1191 2003 1191 1497 
Q 1191 994 1439 701 
Q 1688 409 2113 409 
Q 2538 409 2786 701 
Q 3034 994 3034 1497 
Q 3034 2003 2786 2293 
Q 2538 2584 2113 2584 
z
M 3366 4563 
L 3366 3988 
Q 3128 4100 2886 4159 
Q 2644 4219 2406 4219 
Q 1781 4219 1451 3797 
Q 1122 3375 1075 2522 
Q 1259 2794 1537 2939 
Q 1816 3084 2150 3084 
Q 2853 3084 3261 2657 
Q 3669 2231 3669 1497 
Q 3669 778 3244 343 
Q 2819 -91 2113 -91 
Q 1303 -91 875 529 
Q 447 1150 447 2328 
Q 447 3434 972 4092 
Q 1497 4750 2381 4750 
Q 2619 4750 2861 4703 
Q 3103 4656 3366 4563 
z
" transform="scale(0.015625)"/>
       </defs>
       <use xlink:href="#DejaVuSans-30"/>
       <use xlink:href="#DejaVuSans-2e" x="63.623047"/>
       <use xlink:href="#DejaVuSans-36" x="95.410156"/>
      </g>
     </g>
    </g>
    <g id="ytick_5">
     <g id="line2d_14">
      <g>
       <use xlink:href="#m33604b5d83" x="30.103125" y="102.9447" style="stroke: #000000; stroke-width: 0.8"/>
      </g>
     </g>
     <g id="text_14">
      <!-- 0.8 -->
      <g transform="translate(7.2 106.743919) scale(0.1 -0.1)">
       <defs>
        <path id="DejaVuSans-38" d="M 2034 2216 
Q 1584 2216 1326 1975 
Q 1069 1734 1069 1313 
Q 1069 891 1326 650 
Q 1584 409 2034 409 
Q 2484 409 2743 651 
Q 3003 894 3003 1313 
Q 3003 1734 2745 1975 
Q 2488 2216 2034 2216 
z
M 1403 2484 
Q 997 2584 770 2862 
Q 544 3141 544 3541 
Q 544 4100 942 4425 
Q 1341 4750 2034 4750 
Q 2731 4750 3128 4425 
Q 3525 4100 3525 3541 
Q 3525 3141 3298 2862 
Q 3072 2584 2669 2484 
Q 3125 2378 3379 2068 
Q 3634 1759 3634 1313 
Q 3634 634 3220 271 
Q 2806 -91 2034 -91 
Q 1263 -91 848 271 
Q 434 634 434 1313 
Q 434 1759 690 2068 
Q 947 2378 1403 2484 
z
M 1172 3481 
Q 1172 3119 1398 2916 
Q 1625 2713 2034 2713 
Q 2441 2713 2670 2916 
Q 2900 3119 2900 3481 
Q 2900 3844 2670 4047 
Q 2441 4250 2034 4250 
Q 1625 4250 1398 4047 
Q 1172 3844 1172 3481 
z
" transform="scale(0.015625)"/>
       </defs>
       <use xlink:href="#DejaVuSans-30"/>
       <use xlink:href="#DejaVuSans-2e" x="63.623047"/>
       <use xlink:href="#DejaVuSans-38" x="95.410156"/>
      </g>
     </g>
    </g>
    <g id="ytick_6">
     <g id="line2d_15">
      <g>
       <use xlink:href="#m33604b5d83" x="30.103125" y="67.791784" style="stroke: #000000; stroke-width: 0.8"/>
      </g>
     </g>
     <g id="text_15">
      <!-- 1.0 -->
      <g transform="translate(7.2 71.591003) scale(0.1 -0.1)">
       <use xlink:href="#DejaVuSans-31"/>
       <use xlink:href="#DejaVuSans-2e" x="63.623047"/>
       <use xlink:href="#DejaVuSans-30" x="95.410156"/>
      </g>
     </g>
    </g>
   </g>
   <g id="line2d_16">
    <path d="M 30.270525 243.556364 
L 30.437925 240.33595 
L 30.605325 241.457212 
L 30.940125 235.090016 
L 31.274925 233.917906 
L 31.609725 233.150996 
L 31.777125 230.705616 
L 31.944525 224.321792 
L 32.111925 223.038681 
L 32.279325 220.76801 
L 32.446725 225.863261 
L 32.614125 220.557991 
L 32.948925 222.002887 
L 33.283725 216.397464 
L 33.451125 215.891424 
L 33.618525 211.530389 
L 33.785925 210.990954 
L 33.953325 209.896406 
L 34.120725 205.055223 
L 34.455525 212.152176 
L 34.622925 206.284619 
L 34.790325 205.754742 
L 34.957725 209.352042 
L 35.627325 199.32783 
L 35.794725 204.845818 
L 35.962125 205.96282 
L 36.129525 203.617114 
L 36.296925 203.441235 
L 36.631725 196.037716 
L 36.799125 198.608388 
L 36.966525 204.029738 
L 37.133925 201.396039 
L 37.301325 200.563305 
L 37.636125 196.823776 
L 37.803525 199.15753 
L 37.970925 199.497196 
L 38.138325 194.43486 
L 38.473125 192.325619 
L 38.640525 193.967677 
L 38.807925 191.337697 
L 38.975325 192.223497 
L 39.142725 192.28851 
L 39.310125 191.492471 
L 39.477525 197.899771 
L 39.644925 198.000044 
L 40.147125 193.242979 
L 40.314525 187.549501 
L 40.481925 187.986867 
L 40.649325 187.221658 
L 40.816725 191.125477 
L 40.984125 181.354833 
L 41.318925 191.766016 
L 41.486325 184.584403 
L 41.653725 186.011227 
L 41.821125 185.850723 
L 42.155925 187.858102 
L 42.323325 186.148505 
L 42.490725 187.79506 
L 42.658125 187.621482 
L 42.825525 185.21289 
L 42.992925 179.918081 
L 43.327725 190.038127 
L 43.495125 181.259086 
L 43.662525 180.429702 
L 43.997325 184.971854 
L 44.164725 181.035755 
L 44.332125 180.034691 
L 44.499525 183.315573 
L 44.666925 184.222531 
L 44.834325 184.339483 
L 45.001725 181.768032 
L 45.169125 181.555298 
L 45.503925 174.872929 
L 45.671325 181.409022 
L 45.838725 178.798877 
L 46.006125 181.28997 
L 46.173525 177.122875 
L 46.340925 184.646989 
L 46.508325 179.834654 
L 46.675725 181.637655 
L 47.177925 168.297803 
L 47.512725 178.05071 
L 47.847525 172.5333 
L 48.014925 172.904281 
L 48.182325 173.91578 
L 48.349725 172.647844 
L 48.684525 177.882375 
L 48.851925 169.658526 
L 49.019325 171.507734 
L 49.186725 170.883826 
L 49.354125 166.35928 
L 49.521525 164.852073 
L 49.856325 175.907064 
L 50.023725 169.857012 
L 50.191125 168.361644 
L 50.358525 174.032305 
L 50.693325 163.148783 
L 50.860725 170.570451 
L 51.028125 168.053523 
L 51.195525 167.336999 
L 51.362925 161.180834 
L 51.530325 165.88284 
L 51.697725 164.081886 
L 51.865125 164.433831 
L 52.032525 160.862783 
L 52.199925 161.696025 
L 52.367325 161.410004 
L 52.534725 165.985313 
L 52.702125 163.843969 
L 53.036925 169.146689 
L 53.371725 160.611766 
L 53.539125 161.232935 
L 53.706525 155.371814 
L 53.873925 159.843356 
L 54.041325 158.265006 
L 54.208725 157.766103 
L 54.376125 160.372588 
L 54.543525 160.837958 
L 54.878325 158.786383 
L 55.045725 155.882479 
L 55.213125 156.187898 
L 55.547925 155.268363 
L 55.715325 156.767021 
L 55.882725 157.022697 
L 56.050125 154.552255 
L 56.217525 155.614369 
L 56.384925 151.388095 
L 56.552325 150.708963 
L 56.719725 153.863001 
L 57.054525 148.501139 
L 57.221925 159.747595 
L 57.389325 155.454475 
L 57.556725 156.879339 
L 57.724125 153.932328 
L 57.891525 147.097556 
L 58.058925 145.663231 
L 58.393725 152.167267 
L 58.561125 150.691385 
L 58.728525 150.364407 
L 58.895925 145.480374 
L 59.063325 154.813538 
L 59.230725 151.020687 
L 59.398125 150.927371 
L 59.565525 144.404843 
L 59.900325 146.33775 
L 60.067725 152.13315 
L 60.402525 146.023489 
L 60.569925 147.654294 
L 60.737325 143.738712 
L 60.904725 143.291011 
L 61.072125 143.589188 
L 61.239525 149.382455 
L 61.406925 148.023789 
L 61.574325 141.995005 
L 61.741725 143.601082 
L 62.076525 148.603727 
L 62.243925 141.255733 
L 62.411325 141.850308 
L 62.578725 141.243575 
L 62.746125 138.988807 
L 63.248325 147.525496 
L 63.415725 138.315141 
L 63.583125 140.566224 
L 63.750525 146.012 
L 63.917925 138.408697 
L 64.085325 140.027655 
L 64.252725 148.190523 
L 64.587525 136.239756 
L 64.754925 137.576527 
L 64.922325 137.110205 
L 65.089725 137.124422 
L 65.424525 141.426867 
L 65.591925 138.128421 
L 65.759325 143.196458 
L 65.926725 138.175246 
L 66.094125 136.793741 
L 66.261525 133.390914 
L 66.428925 142.505041 
L 66.596325 141.260195 
L 66.763725 136.805127 
L 66.931125 137.502541 
L 67.098525 129.919659 
L 67.433325 138.095165 
L 67.600725 140.6176 
L 67.768125 132.439457 
L 67.935525 131.472521 
L 68.270325 138.023706 
L 68.437725 138.254547 
L 68.772525 129.144723 
L 69.274725 140.752503 
L 69.609525 132.02589 
L 69.776925 135.03883 
L 69.944325 135.783254 
L 70.111725 133.29867 
L 70.279125 127.323683 
L 70.446525 126.771989 
L 70.613925 124.569964 
L 70.781325 125.405282 
L 70.948725 127.628508 
L 71.116125 132.194233 
L 71.283525 122.938793 
L 71.450925 126.624589 
L 71.618325 126.65889 
L 71.785725 121.626473 
L 71.953125 128.995055 
L 72.287925 117.10921 
L 72.622725 125.946277 
L 72.790125 126.041027 
L 72.957525 125.260731 
L 73.292325 115.099438 
L 73.459725 121.299157 
L 73.627125 122.813074 
L 73.794525 125.833186 
L 73.961925 124.012838 
L 74.129325 119.266065 
L 74.296725 120.993397 
L 74.464125 121.27414 
L 74.631525 125.520673 
L 74.966325 114.323944 
L 75.133725 121.680224 
L 75.301125 114.110113 
L 75.635925 117.454833 
L 75.803325 111.866409 
L 75.970725 113.780168 
L 76.138125 118.2884 
L 76.305525 116.643736 
L 76.472925 108.155203 
L 76.807725 115.168647 
L 76.975125 112.072601 
L 77.142525 116.836326 
L 77.477325 108.068545 
L 77.644725 107.473631 
L 77.812125 112.338385 
L 77.979525 104.323259 
L 78.146925 109.100907 
L 78.314325 105.94048 
L 78.481725 112.825935 
L 78.649125 114.135673 
L 78.816525 113.84147 
L 78.983925 104.886697 
L 79.151325 108.986901 
L 79.318725 109.701217 
L 79.653525 102.051899 
L 79.820925 102.465268 
L 80.155725 108.8837 
L 80.323125 107.642286 
L 80.490525 97.348421 
L 80.657925 98.507821 
L 80.825325 112.311015 
L 81.160125 98.067533 
L 81.327525 99.221352 
L 81.494925 107.462785 
L 81.662325 95.495049 
L 81.997125 105.435935 
L 82.164525 96.487537 
L 82.331925 103.162095 
L 82.499325 101.842778 
L 82.666725 102.395931 
L 83.001525 97.799103 
L 83.168925 94.739348 
L 83.336325 99.149846 
L 83.503725 100.4035 
L 83.671125 103.516872 
L 83.838525 93.701353 
L 84.005925 94.730967 
L 84.173325 95.033078 
L 84.340725 98.640034 
L 84.508125 95.332297 
L 84.675525 95.504468 
L 84.842925 97.097522 
L 85.010325 88.628188 
L 85.177725 90.215029 
L 85.345125 94.77484 
L 85.512525 94.101328 
L 85.679925 95.088646 
L 85.847325 96.900809 
L 86.014725 87.070998 
L 86.182125 88.713513 
L 86.516925 97.397923 
L 86.684325 93.995169 
L 86.851725 93.503397 
L 87.019125 87.332439 
L 87.186525 92.707949 
L 87.353925 88.000276 
L 87.521325 94.429455 
L 87.688725 95.229278 
L 87.856125 82.199823 
L 88.023525 84.911146 
L 88.190925 98.123654 
L 88.358325 94.954936 
L 88.525725 85.76286 
L 88.693125 87.331797 
L 88.860525 87.598657 
L 89.195325 91.700378 
L 89.530125 83.856677 
L 89.697525 91.37423 
L 89.864925 85.106873 
L 90.199725 91.507929 
L 90.367125 82.660312 
L 90.534525 89.122915 
L 90.701925 84.239156 
L 91.204125 86.333847 
L 91.371525 81.803911 
L 91.538925 83.30153 
L 91.706325 92.937231 
L 91.873725 80.636259 
L 92.208525 89.472178 
L 92.375925 80.507993 
L 92.710725 88.522466 
L 92.878125 74.045269 
L 93.045525 85.882419 
L 93.212925 81.829447 
L 93.547725 83.558035 
L 93.715125 83.765267 
L 93.882525 77.425924 
L 94.049925 85.864583 
L 94.217325 84.237003 
L 94.384725 85.164262 
L 94.719525 79.174881 
L 95.054325 88.607658 
L 95.389125 78.824292 
L 95.556525 78.847238 
L 95.723925 79.328791 
L 95.891325 84.31075 
L 96.058725 79.342133 
L 96.226125 78.12923 
L 96.393525 79.864956 
L 96.560925 73.244219 
L 96.728325 82.135646 
L 96.895725 81.815892 
L 97.063125 73.291269 
L 97.397925 81.510656 
L 97.565325 80.240659 
L 97.732725 71.398396 
L 97.900125 76.954573 
L 98.067525 75.734016 
L 98.234925 84.734469 
L 98.402325 72.839498 
L 98.569725 79.175629 
L 98.737125 77.38944 
L 98.904525 78.137532 
L 99.071925 77.674534 
L 99.239325 79.605148 
L 99.574125 73.263755 
L 99.741525 78.604559 
L 99.908925 77.805459 
L 100.076325 74.857985 
L 100.243725 69.473634 
L 100.411125 78.380876 
L 100.578525 80.335953 
L 100.745925 74.876008 
L 100.913325 73.893869 
L 101.248125 79.157935 
L 101.415525 75.844269 
L 101.582925 75.249819 
L 101.750325 78.05574 
L 101.917725 75.209189 
L 102.085125 68.75779 
L 102.252525 76.021482 
L 102.419925 76.688368 
L 102.587325 71.354171 
L 102.754725 72.790421 
L 102.922125 79.641221 
L 103.089525 70.631856 
L 103.256925 77.723819 
L 103.424325 79.57088 
L 103.591725 67.434975 
L 103.759125 79.652648 
L 103.926525 68.995359 
L 104.093925 71.40974 
L 104.261325 79.155989 
L 104.428725 76.531921 
L 104.596125 64.987943 
L 104.763525 76.068081 
L 104.930925 76.261129 
L 105.098325 76.272713 
L 105.265725 67.681654 
L 105.433125 74.847452 
L 105.600525 74.283089 
L 105.767925 71.984621 
L 105.935325 72.158887 
L 106.102725 74.455789 
L 106.270125 73.273647 
L 106.437525 68.034427 
L 106.604925 72.040659 
L 106.772325 71.948358 
L 106.939725 69.876465 
L 107.107125 70.658942 
L 107.274525 74.591364 
L 107.441925 67.987149 
L 107.609325 68.625473 
L 107.776725 74.44802 
L 107.944125 66.414415 
L 108.613725 74.955019 
L 108.781125 73.70139 
L 108.948525 69.584272 
L 109.115925 68.659047 
L 109.283325 69.853555 
L 109.450725 72.930616 
L 109.618125 71.127776 
L 109.785525 70.89622 
L 109.952925 73.208064 
L 110.120325 73.15037 
L 110.455125 63.227096 
L 110.622525 71.276509 
L 110.957325 68.655354 
L 111.124725 69.621118 
L 111.292125 63.686645 
L 111.459525 77.510158 
L 111.794325 61.737577 
L 111.961725 70.630692 
L 112.129125 73.503838 
L 112.296525 69.058365 
L 112.463925 68.960515 
L 112.631325 60.842943 
L 112.966125 78.845085 
L 113.133525 57.296299 
L 113.468325 71.147762 
L 113.803125 67.785588 
L 113.970525 69.600542 
L 114.137925 67.371774 
L 114.472725 66.009767 
L 114.640125 69.661603 
L 114.807525 61.741989 
L 114.974925 66.396943 
L 115.142325 64.881234 
L 115.309725 70.498384 
L 115.477125 68.375239 
L 115.644525 63.769621 
L 115.811925 72.169618 
L 115.979325 64.970739 
L 116.146725 63.916087 
L 116.314125 71.516875 
L 116.481525 68.677941 
L 116.648925 62.682176 
L 116.816325 71.76976 
L 116.983725 65.514027 
L 117.151125 65.190216 
L 117.318525 63.917537 
L 117.485925 69.288218 
L 117.653325 69.789431 
L 117.988125 64.342169 
L 118.155525 68.098455 
L 118.322925 65.798612 
L 118.490325 70.147689 
L 118.657725 62.554198 
L 118.825125 63.921463 
L 118.992525 69.786559 
L 119.494725 61.090937 
L 119.662125 71.133926 
L 119.829525 64.291401 
L 119.996925 66.090613 
L 120.164325 64.989583 
L 120.331725 62.728883 
L 120.499125 70.197412 
L 120.666525 63.421457 
L 120.833925 63.225648 
L 121.001325 63.568839 
L 121.168725 68.635947 
L 121.336125 67.018191 
L 121.503525 58.037524 
L 121.838325 73.87445 
L 122.005725 60.093559 
L 122.173125 59.612069 
L 122.340525 75.427492 
L 122.507925 60.55535 
L 122.675325 65.21507 
L 122.842725 64.132022 
L 123.010125 66.046558 
L 123.177525 63.668398 
L 123.512325 69.026251 
L 123.679725 61.891627 
L 123.847125 63.763297 
L 124.014525 72.501356 
L 124.181925 60.881681 
L 124.349325 59.535981 
L 124.516725 71.548617 
L 124.684125 60.625839 
L 124.851525 61.273684 
L 125.018925 72.511384 
L 125.186325 59.999401 
L 125.353725 62.426266 
L 125.521125 61.90145 
L 125.688525 65.928469 
L 125.855925 63.160653 
L 126.023325 56.445233 
L 126.358125 72.051118 
L 126.525525 58.506947 
L 126.692925 65.041285 
L 126.860325 61.415892 
L 127.027725 63.923181 
L 127.195125 68.28208 
L 127.362525 60.786208 
L 127.697325 68.259915 
L 127.864725 60.874302 
L 128.032125 66.184563 
L 128.199525 64.347849 
L 128.366925 55.53668 
L 128.701725 69.722985 
L 128.869125 55.873873 
L 129.371325 67.066588 
L 129.538725 59.169991 
L 129.706125 62.230132 
L 129.873525 68.841893 
L 130.040925 61.830115 
L 130.375725 61.862716 
L 130.543125 59.517071 
L 130.877925 65.957974 
L 131.045325 58.941374 
L 131.212725 60.547368 
L 131.380125 68.205943 
L 131.714925 55.865915 
L 132.049725 65.696601 
L 132.217125 60.888495 
L 132.384525 60.434712 
L 132.551925 67.458588 
L 132.719325 66.597762 
L 132.886725 60.660109 
L 133.054125 59.998596 
L 133.221525 64.280832 
L 133.388925 64.088637 
L 133.556325 63.46718 
L 133.723725 58.29568 
L 133.891125 62.005723 
L 134.058525 59.141337 
L 134.225925 62.978091 
L 134.393325 63.958391 
L 134.560725 55.882421 
L 134.728125 64.22362 
L 134.895525 64.483988 
L 135.230325 55.800543 
L 135.397725 67.995169 
L 135.565125 65.183504 
L 135.732525 58.225932 
L 136.067325 64.173403 
L 136.402125 57.05603 
L 136.569525 61.620313 
L 136.736925 70.342978 
L 136.904325 53.942417 
L 137.071725 58.778696 
L 137.239125 71.370906 
L 137.406525 58.360228 
L 137.573925 56.879081 
L 137.741325 65.342399 
L 137.908725 56.134768 
L 138.076125 63.069315 
L 138.243525 63.564995 
L 138.410925 62.965822 
L 138.578325 64.136207 
L 138.745725 63.234207 
L 138.913125 64.521402 
L 139.247925 57.481511 
L 139.415325 64.285309 
L 139.750125 59.181958 
L 139.917525 64.536581 
L 140.084925 62.090904 
L 140.252325 56.032615 
L 140.587125 65.784274 
L 140.754525 53.677869 
L 140.921925 55.720784 
L 141.256725 67.883119 
L 141.424125 55.625933 
L 141.591525 57.583306 
L 141.758925 65.280717 
L 141.926325 58.462428 
L 142.093725 59.166858 
L 142.261125 60.751664 
L 142.428525 57.466054 
L 142.595925 61.936101 
L 142.763325 59.577128 
L 142.930725 68.905338 
L 143.098125 59.988992 
L 143.265525 57.638067 
L 143.432925 65.888078 
L 143.600325 58.978914 
L 143.767725 58.325397 
L 143.935125 63.091096 
L 144.102525 59.400274 
L 144.269925 59.528174 
L 144.437325 59.464043 
L 144.604725 59.876052 
L 144.772125 57.724582 
L 144.939525 58.549025 
L 145.106925 63.947163 
L 145.441725 55.507485 
L 145.609125 63.44758 
L 145.776525 57.046065 
L 146.111325 60.82154 
L 146.278725 54.789264 
L 146.613525 63.447724 
L 146.780925 64.326011 
L 146.948325 57.959488 
L 147.115725 61.113376 
L 147.283125 60.035351 
L 147.450525 64.77304 
L 147.617925 56.297715 
L 147.785325 67.760776 
L 147.952725 55.580858 
L 148.120125 53.07594 
L 148.287525 65.185345 
L 148.622325 51.123492 
L 148.789725 60.9435 
L 148.957125 63.829581 
L 149.124525 61.87411 
L 149.291925 57.766047 
L 149.459325 58.907511 
L 149.626725 62.511904 
L 149.794125 58.159426 
L 149.961525 62.777759 
L 150.128925 62.45894 
L 150.296325 55.239309 
L 150.463725 61.406855 
L 150.631125 60.614451 
L 150.798525 61.806504 
L 150.965925 57.939581 
L 151.133325 57.774387 
L 151.300725 65.19412 
L 151.468125 58.470053 
L 151.635525 57.02808 
L 151.802925 62.256352 
L 151.970325 52.894511 
L 152.305125 63.406918 
L 152.472525 59.030497 
L 152.639925 57.952355 
L 152.807325 60.80143 
L 152.974725 61.755277 
L 153.142125 58.040706 
L 153.309525 58.786392 
L 153.476925 61.380362 
L 153.811725 56.929367 
L 153.979125 62.830898 
L 154.313925 57.124729 
L 154.481325 62.971234 
L 154.648725 53.385443 
L 154.816125 57.758721 
L 154.983525 65.338071 
L 155.150925 54.343984 
L 155.485725 58.671542 
L 155.653125 56.507152 
L 155.820525 64.647762 
L 155.987925 57.725242 
L 156.155325 64.188224 
L 156.322725 56.709866 
L 156.657525 62.781923 
L 156.824925 52.040837 
L 157.159725 66.279856 
L 157.327125 52.581733 
L 157.494525 62.090132 
L 157.661925 61.379746 
L 157.829325 55.870723 
L 157.996725 61.32424 
L 158.164125 54.297665 
L 158.498925 61.155587 
L 158.666325 57.892211 
L 158.833725 58.728468 
L 159.001125 54.605255 
L 159.168525 68.245121 
L 159.503325 50.295593 
L 159.670725 66.657845 
L 159.838125 61.539225 
L 160.005525 48.806337 
L 160.172925 64.262473 
L 160.340325 58.847872 
L 160.507725 59.678229 
L 160.675125 58.985681 
L 160.842525 62.20126 
L 161.009925 59.377478 
L 161.177325 59.747429 
L 161.344725 58.861689 
L 161.512125 59.790534 
L 161.679525 57.056491 
L 161.846925 63.18832 
L 162.014325 55.690339 
L 162.181725 57.1464 
L 162.349125 62.770631 
L 162.516525 57.767696 
L 162.683925 57.601976 
L 162.851325 59.666791 
L 163.018725 59.682528 
L 163.186125 57.135288 
L 163.353525 56.425207 
L 163.688325 58.822193 
L 163.855725 53.481352 
L 164.023125 57.55583 
L 164.190525 57.80935 
L 164.357925 60.542162 
L 164.525325 60.264972 
L 164.692725 56.373676 
L 164.860125 58.442894 
L 165.027525 65.118378 
L 165.194925 56.605941 
L 165.362325 57.802674 
L 165.529725 56.012639 
L 165.864525 63.604944 
L 166.031925 50.882231 
L 166.366725 60.452598 
L 166.534125 57.925816 
L 166.701525 59.814629 
L 166.868925 64.669829 
L 167.036325 55.393706 
L 167.203725 56.707483 
L 167.371125 61.881834 
L 167.538525 61.673496 
L 167.705925 51.874522 
L 168.040725 65.386645 
L 168.208125 54.435722 
L 168.542925 61.701418 
L 168.710325 51.470764 
L 169.045125 59.722579 
L 169.212525 57.877333 
L 169.379925 58.779293 
L 169.547325 57.326865 
L 169.714725 61.923361 
L 169.882125 54.771524 
L 170.049525 55.814357 
L 170.216925 64.242039 
L 170.384325 53.772036 
L 170.719125 60.30718 
L 171.053925 55.043324 
L 171.388725 60.966201 
L 171.556125 62.019156 
L 171.723525 55.119898 
L 171.890925 58.17762 
L 172.058325 56.678811 
L 172.225725 59.842703 
L 172.393125 59.42133 
L 172.560525 59.377834 
L 172.727925 57.824847 
L 172.895325 63.336959 
L 173.062725 55.219995 
L 173.230125 57.461302 
L 173.397525 54.498983 
L 173.564925 60.663283 
L 173.732325 62.563086 
L 173.899725 58.377364 
L 174.067125 59.864563 
L 174.234525 59.168876 
L 174.401925 53.617139 
L 174.569325 61.427684 
L 174.904125 51.963292 
L 175.071525 64.115074 
L 175.238925 63.938341 
L 175.406325 49.77888 
L 175.741125 60.413848 
L 175.908525 54.11956 
L 176.075925 59.476085 
L 176.243325 59.529977 
L 176.410725 53.606922 
L 176.578125 54.646293 
L 176.745525 63.383114 
L 176.912925 55.161466 
L 177.247725 60.770795 
L 177.415125 60.484767 
L 177.582525 55.750355 
L 177.749925 59.616268 
L 177.917325 55.727285 
L 178.084725 58.270097 
L 178.252125 57.009333 
L 178.419525 62.100969 
L 178.754325 52.903447 
L 178.921725 64.906922 
L 179.089125 55.265921 
L 179.256525 56.10984 
L 179.423925 65.05301 
L 179.591325 54.878762 
L 179.926125 60.080569 
L 180.093525 56.261384 
L 180.428325 60.105248 
L 180.763125 52.243469 
L 180.930525 60.438292 
L 181.097925 57.516336 
L 181.265325 58.305825 
L 181.432725 55.597063 
L 181.600125 56.7346 
L 181.767525 59.963488 
L 181.934925 59.729247 
L 182.102325 53.242091 
L 182.269725 53.302607 
L 182.437125 60.330077 
L 182.604525 56.554307 
L 182.771925 57.956391 
L 182.939325 55.555733 
L 183.106725 57.574111 
L 183.274125 66.359756 
L 183.441525 54.603755 
L 183.608925 52.46475 
L 183.776325 60.308588 
L 183.943725 60.14287 
L 184.111125 54.010881 
L 184.278525 55.049544 
L 184.445925 58.858695 
L 184.613325 65.604569 
L 184.948125 54.400124 
L 185.115525 64.425319 
L 185.450325 54.009635 
L 185.617725 60.37803 
L 185.785125 56.470605 
L 185.952525 59.532833 
L 186.119925 59.948221 
L 186.287325 56.184852 
L 186.454725 61.757047 
L 186.622125 60.916799 
L 186.789525 57.614384 
L 186.956925 57.238908 
L 187.124325 55.726072 
L 187.291725 52.724854 
L 187.459125 64.055596 
L 187.626525 52.187041 
L 187.961325 57.359031 
L 188.128725 58.037874 
L 188.296125 53.21389 
L 188.463525 60.048852 
L 188.630925 57.562905 
L 188.798325 53.143117 
L 188.965725 65.51135 
L 189.133125 59.528864 
L 189.300525 48.077854 
L 189.635325 66.874333 
L 189.970125 50.283391 
L 190.137525 62.584012 
L 190.304925 60.017406 
L 190.472325 51.491395 
L 190.639725 58.894026 
L 190.807125 57.382661 
L 190.974525 57.323768 
L 191.309325 62.159603 
L 191.476725 52.634847 
L 191.644125 59.299406 
L 191.811525 60.285659 
L 191.978925 56.795034 
L 192.146325 56.267628 
L 192.313725 64.935364 
L 192.481125 57.252725 
L 192.648525 55.210379 
L 192.815925 60.402681 
L 193.150725 54.811633 
L 193.318125 59.052613 
L 193.485525 57.80274 
L 193.652925 58.595007 
L 193.820325 55.810998 
L 193.987725 57.748221 
L 194.155125 57.231385 
L 194.489925 60.695208 
L 194.657325 56.489778 
L 194.824725 57.777482 
L 195.159525 58.01396 
L 195.326925 55.691583 
L 195.661725 61.18522 
L 195.996525 51.174957 
L 196.163925 57.6276 
L 196.331325 57.183301 
L 196.498725 51.36611 
L 196.666125 59.472246 
L 196.833525 61.210125 
L 197.000925 51.444439 
L 197.335725 61.287297 
L 197.503125 53.332498 
L 197.670525 55.584623 
L 197.837925 65.457454 
L 198.172725 52.289618 
L 198.340125 62.861751 
L 198.674925 48.770573 
L 198.842325 63.082682 
L 199.009725 64.987306 
L 199.177125 58.526197 
L 199.344525 56.452317 
L 199.511925 63.138202 
L 199.679325 57.360666 
L 199.846725 55.694836 
L 200.014125 61.560556 
L 200.181525 59.549934 
L 200.348925 52.660294 
L 200.516325 62.611187 
L 200.683725 56.679526 
L 200.851125 54.747363 
L 201.018525 60.262195 
L 201.353325 55.027168 
L 201.520725 55.703307 
L 201.688125 58.013175 
L 201.855525 58.299293 
L 202.022925 57.74361 
L 202.190325 52.231604 
L 202.357725 56.890982 
L 202.525125 56.863045 
L 202.692525 59.64481 
L 202.859925 52.016126 
L 203.027325 58.411567 
L 203.194725 59.612846 
L 203.362125 56.245269 
L 203.529525 55.767904 
L 203.696925 55.639081 
L 203.864325 59.373607 
L 204.031725 56.561893 
L 204.199125 51.602207 
L 204.366525 59.62877 
L 204.701325 56.415531 
L 204.868725 61.090251 
L 205.036125 57.697167 
L 205.203525 58.075761 
L 205.370925 59.010547 
L 205.538325 61.613259 
L 205.705725 54.743328 
L 205.873125 52.993001 
L 206.040525 59.50802 
L 206.207925 60.340637 
L 206.375325 53.512899 
L 206.710125 65.219658 
L 206.877525 54.23437 
L 207.044925 57.383949 
L 207.379725 54.912259 
L 207.547125 61.828048 
L 207.714525 53.875797 
L 207.881925 55.597593 
L 208.049325 59.319411 
L 208.216725 52.017341 
L 208.384125 58.563039 
L 208.551525 58.396253 
L 208.718925 57.540614 
L 208.886325 58.482365 
L 209.053725 56.698468 
L 209.221125 59.371767 
L 209.388525 54.118053 
L 209.555925 54.999156 
L 209.723325 62.175576 
L 209.890725 54.579977 
L 210.058125 55.788193 
L 210.225525 65.175963 
L 210.392925 52.948547 
L 210.560325 57.954327 
L 210.727725 58.923381 
L 210.895125 54.184209 
L 211.062525 57.696479 
L 211.229925 58.3713 
L 211.397325 57.356306 
L 211.564725 51.863838 
L 211.899525 64.515054 
L 212.066925 52.094076 
L 212.401725 65.792237 
L 212.569125 49.93353 
L 212.736525 58.445986 
L 212.903925 57.692195 
L 213.071325 55.108294 
L 213.238725 60.891448 
L 213.406125 54.078059 
L 213.573525 56.37532 
L 213.740925 61.426204 
L 213.908325 53.410571 
L 214.075725 58.94363 
L 214.410525 62.271377 
L 214.577925 52.471668 
L 214.745325 51.550362 
L 214.912725 65.804754 
L 215.247525 45.883636 
L 215.414925 60.743426 
L 215.582325 62.940165 
L 215.749725 55.157786 
L 215.917125 54.851029 
L 216.084525 60.07583 
L 216.251925 58.948123 
L 216.419325 56.422153 
L 216.754125 60.783535 
L 216.921525 54.91672 
L 217.088925 55.659912 
L 217.256325 56.938855 
L 217.423725 54.901527 
L 217.591125 58.096517 
L 217.758525 56.748892 
L 217.925925 61.5234 
L 218.093325 50.025513 
L 218.428125 61.30597 
L 218.595525 50.486937 
L 218.930325 65.126318 
L 219.097725 54.520014 
L 219.265125 55.937074 
L 219.432525 61.203758 
L 219.599925 62.042292 
L 219.767325 56.754077 
L 219.934725 57.755299 
L 220.269525 61.085443 
L 220.436925 55.325104 
L 220.604325 57.837769 
L 220.771725 53.176316 
L 220.939125 55.328805 
L 221.106525 59.794843 
L 221.273925 56.167651 
L 221.441325 57.015871 
L 221.608725 59.846295 
L 221.776125 53.330306 
L 221.943525 59.421058 
L 222.110925 59.043385 
L 222.278325 51.449747 
L 222.445725 58.915116 
L 222.780525 56.313505 
L 222.947925 58.068767 
L 223.115325 58.109231 
L 223.282725 58.512631 
L 223.450125 55.620988 
L 223.617525 59.927109 
L 223.784925 50.46588 
L 224.119725 60.280188 
L 224.287125 51.927728 
L 224.621925 60.382956 
L 224.789325 56.294844 
L 224.956725 55.65948 
L 225.124125 58.638843 
L 225.291525 54.794392 
L 225.458925 63.806795 
L 225.626325 55.979466 
L 225.793725 54.700701 
L 226.128525 59.343272 
L 226.463325 52.308418 
L 226.798125 65.565601 
L 226.965525 56.731098 
L 227.300325 58.775143 
L 227.467725 53.1048 
L 227.635125 62.214086 
L 227.969925 56.354932 
L 228.137325 54.060747 
L 228.304725 62.834135 
L 228.639525 52.803925 
L 228.806925 53.081234 
L 228.974325 61.523653 
L 229.141725 58.013571 
L 229.309125 59.538767 
L 229.476525 54.632449 
L 229.811325 60.885561 
L 229.978725 51.690539 
L 230.146125 62.279263 
L 230.313525 56.963221 
L 230.480925 48.062665 
L 230.648325 62.780908 
L 230.815725 54.291065 
L 230.983125 56.891025 
L 231.150525 56.974145 
L 231.317925 57.443769 
L 231.485325 55.589428 
L 231.820125 57.242244 
L 231.987525 57.312532 
L 232.154925 55.457895 
L 232.322325 62.29434 
L 232.657125 54.167116 
L 232.824525 61.808422 
L 232.991925 53.247955 
L 233.159325 54.873474 
L 233.326725 63.404802 
L 233.494125 52.295275 
L 233.828925 60.514667 
L 233.996325 55.665533 
L 234.163725 57.553523 
L 234.331125 53.484831 
L 234.498525 63.967219 
L 234.833325 59.587951 
L 235.000725 64.301741 
L 235.168125 51.868749 
L 235.335525 55.595097 
L 235.502925 63.858197 
L 235.670325 56.594757 
L 235.837725 56.169568 
L 236.005125 58.452372 
L 236.172525 54.044786 
L 236.339925 55.903322 
L 236.507325 61.82594 
L 236.674725 50.575459 
L 236.842125 57.40105 
L 237.009525 57.500358 
L 237.176925 61.302326 
L 237.344325 48.434212 
L 237.511725 57.742727 
L 237.679125 57.667134 
L 237.846525 58.206596 
L 238.181325 53.421762 
L 238.348725 60.260132 
L 238.683525 52.136281 
L 238.850925 60.420772 
L 239.018325 62.294656 
L 239.185725 51.281457 
L 239.353125 58.292886 
L 239.520525 57.206157 
L 239.687925 54.439296 
L 239.855325 61.377235 
L 240.022725 56.708524 
L 240.190125 55.275635 
L 240.357525 62.318158 
L 240.524925 52.9986 
L 240.692325 60.172714 
L 240.859725 56.629792 
L 241.027125 55.554486 
L 241.194525 57.878348 
L 241.361925 57.20719 
L 241.529325 58.957708 
L 241.696725 52.00703 
L 241.864125 58.735337 
L 242.031525 57.540665 
L 242.198925 63.798779 
L 242.366325 51.29064 
L 242.533725 52.946067 
L 242.701125 62.99749 
L 242.868525 53.654114 
L 243.035925 57.363513 
L 243.538125 60.969318 
L 243.872925 51.774566 
L 244.207725 66.218861 
L 244.375125 50.985333 
L 244.709925 61.833783 
L 244.877325 51.635955 
L 245.044725 59.932347 
L 245.379525 51.838512 
L 245.546925 63.043176 
L 245.881725 52.994897 
L 246.216525 60.281006 
L 246.551325 51.917721 
L 246.718725 55.153593 
L 246.886125 53.104637 
L 247.220925 60.62968 
L 247.388325 52.88147 
L 247.555725 58.665993 
L 247.723125 60.34236 
L 247.890525 58.386232 
L 248.057925 59.787541 
L 248.225325 53.905081 
L 248.392725 56.079323 
L 248.560125 61.072623 
L 248.727525 58.126399 
L 248.894925 59.4389 
L 249.062325 50.063039 
L 249.229725 59.572747 
L 249.397125 60.78096 
L 249.564525 48.44767 
L 249.899325 68.173748 
L 250.066725 50.909977 
L 250.234125 60.944686 
L 250.401525 59.15716 
L 250.568925 55.259941 
L 250.736325 62.355179 
L 250.903725 56.495428 
L 251.071125 61.620055 
L 251.238525 54.782692 
L 251.405925 55.72487 
L 251.573325 61.043605 
L 251.740725 50.177694 
L 251.908125 59.529908 
L 252.075525 59.03271 
L 252.242925 51.635056 
L 252.410325 58.522859 
L 252.577725 52.879807 
L 252.745125 58.780495 
L 252.912525 58.846627 
L 253.079925 52.871617 
L 253.247325 61.320159 
L 253.414725 55.708651 
L 253.582125 55.917594 
L 253.749525 59.29224 
L 253.916925 55.308922 
L 254.084325 54.827519 
L 254.251725 61.770111 
L 254.586525 55.971529 
L 254.753925 50.163188 
L 255.088725 60.746956 
L 255.256125 53.591655 
L 255.423525 60.340864 
L 255.590925 53.959019 
L 255.758325 62.524177 
L 255.925725 61.017089 
L 256.093125 55.710599 
L 256.260525 56.248161 
L 256.427925 59.529685 
L 256.595325 54.580718 
L 256.762725 61.339278 
L 256.930125 51.844502 
L 257.097525 57.167274 
L 257.432325 59.078491 
L 257.599725 62.308362 
L 257.767125 53.194272 
L 257.934525 60.708761 
L 258.101925 59.667752 
L 258.269325 51.970915 
L 258.436725 60.834513 
L 258.604125 61.969284 
L 258.771525 53.895634 
L 259.273725 56.236644 
L 259.441125 58.643773 
L 259.608525 56.665414 
L 259.775925 53.07395 
L 259.943325 66.017212 
L 260.278125 52.063162 
L 260.445525 58.290683 
L 260.612925 59.741458 
L 260.947725 52.435507 
L 261.115125 58.969438 
L 261.282525 53.744222 
L 261.617325 62.854293 
L 261.784725 49.855406 
L 261.952125 54.57464 
L 262.119525 63.752925 
L 262.621725 53.551481 
L 262.789125 60.261681 
L 262.956525 59.052092 
L 263.123925 53.816422 
L 263.291325 56.663299 
L 263.458725 62.075067 
L 263.626125 57.010783 
L 263.793525 59.508102 
L 263.960925 53.893949 
L 264.128325 57.573997 
L 264.295725 58.678128 
L 264.463125 53.342563 
L 264.797925 60.876301 
L 264.965325 55.506595 
L 265.132725 58.667434 
L 265.300125 54.272908 
L 265.467525 59.516267 
L 265.634925 60.867554 
L 265.969725 54.789048 
L 266.137125 58.810399 
L 266.639325 53.578553 
L 266.806725 63.63954 
L 266.974125 48.250661 
L 267.308925 62.87196 
L 267.476325 59.34329 
L 267.643725 60.018359 
L 267.811125 53.508653 
L 268.145925 62.282855 
L 268.313325 54.261261 
L 268.480725 55.360183 
L 268.648125 58.272294 
L 268.815525 55.205663 
L 268.982925 56.535099 
L 269.150325 53.932734 
L 269.317725 62.510884 
L 269.652525 52.675836 
L 269.819925 64.510859 
L 269.987325 52.914105 
L 270.154725 53.251192 
L 270.322125 63.458276 
L 270.489525 50.468108 
L 270.656925 58.015015 
L 270.824325 56.645997 
L 270.991725 59.077741 
L 271.159125 59.663104 
L 271.326525 55.963987 
L 271.493925 54.806027 
L 271.661325 58.461206 
L 271.828725 56.310413 
L 271.996125 58.507542 
L 272.163525 57.684538 
L 272.330925 54.162027 
L 272.498325 62.55565 
L 272.665725 53.806912 
L 272.833125 52.973053 
L 273.000525 61.668339 
L 273.335325 55.863232 
L 273.502725 55.420962 
L 273.670125 60.399102 
L 274.004925 53.596257 
L 274.172325 54.909583 
L 274.507125 64.857074 
L 274.841925 52.356728 
L 275.009325 61.179995 
L 275.344125 52.351398 
L 275.511525 59.738405 
L 275.678925 52.252043 
L 275.846325 59.859872 
L 276.013725 58.007856 
L 276.181125 50.58614 
L 276.515925 66.156373 
L 276.683325 53.742079 
L 276.850725 59.064712 
L 277.018125 55.946007 
L 277.185525 56.757981 
L 277.352925 62.654604 
L 277.520325 51.442409 
L 277.687725 55.106724 
L 277.855125 61.960919 
L 278.189925 51.760928 
L 278.357325 55.234029 
L 278.524725 62.713997 
L 278.692125 56.816208 
L 278.859525 56.500073 
L 279.026925 61.767149 
L 279.194325 55.965786 
L 279.361725 57.831405 
L 279.529125 56.497493 
L 279.696525 51.944082 
L 279.863925 60.419798 
L 280.031325 60.62815 
L 280.198725 57.869778 
L 280.366125 57.363466 
L 280.533525 54.825795 
L 280.700925 62.10938 
L 280.868325 55.225487 
L 281.035725 55.518115 
L 281.203125 62.585475 
L 281.370525 54.332141 
L 281.537925 56.355602 
L 281.705325 59.894557 
L 281.872725 48.990007 
L 282.040125 63.553864 
L 282.374925 53.070202 
L 282.709725 61.206722 
L 282.877125 50.589932 
L 283.211925 59.934832 
L 283.379325 53.587437 
L 283.714125 60.507948 
L 284.048925 54.737251 
L 284.216325 64.97707 
L 284.551125 53.981249 
L 284.718525 59.912143 
L 285.053325 52.653476 
L 285.220725 57.879161 
L 285.388125 57.370202 
L 285.722925 51.938414 
L 285.890325 62.240711 
L 286.057725 54.275249 
L 286.225125 57.898498 
L 286.392525 56.315572 
L 286.559925 62.622897 
L 286.727325 53.188076 
L 287.062125 58.872709 
L 287.229525 53.065499 
L 287.396925 56.036836 
L 287.564325 63.244518 
L 287.731725 53.225802 
L 287.899125 58.59241 
L 288.066525 58.354452 
L 288.233925 57.229541 
L 288.401325 52.799389 
L 288.568725 56.798528 
L 288.736125 57.523984 
L 288.903525 61.108013 
L 289.070925 52.872015 
L 289.238325 52.59 
L 289.405725 57.676566 
L 289.573125 59.086829 
L 289.740525 55.830773 
L 289.907925 60.388314 
L 290.075325 53.167997 
L 290.242725 63.083305 
L 290.410125 60.808112 
L 290.577525 48.657309 
L 290.744925 61.854115 
L 291.079725 50.797081 
L 291.247125 60.412917 
L 291.414525 62.841214 
L 291.581925 54.951019 
L 291.916725 59.864442 
L 292.251525 53.975916 
L 292.418925 63.918257 
L 292.586325 54.846743 
L 292.753725 55.845308 
L 292.921125 58.049894 
L 293.088525 55.143931 
L 293.255925 54.22698 
L 293.423325 59.889476 
L 293.590725 53.869295 
L 293.758125 62.301279 
L 293.925525 57.364439 
L 294.260325 57.667712 
L 294.427725 53.303563 
L 294.595125 59.467719 
L 294.762525 51.091284 
L 294.929925 54.721086 
L 295.097325 63.810117 
L 295.264725 56.242309 
L 295.599525 55.015632 
L 295.766925 56.245387 
L 295.934325 61.830002 
L 296.269125 52.549999 
L 296.603925 65.793852 
L 296.771325 54.795864 
L 296.938725 55.616466 
L 297.106125 61.381044 
L 297.440925 53.444513 
L 297.608325 58.526937 
L 297.775725 58.781116 
L 297.943125 58.829385 
L 298.277925 53.159979 
L 298.445325 62.408409 
L 298.612725 59.96287 
L 298.780125 53.812395 
L 298.947525 58.154981 
L 299.282325 54.971147 
L 299.449725 60.846337 
L 299.617125 62.690691 
L 299.784525 53.278643 
L 300.119325 56.921828 
L 300.286725 57.13643 
L 300.454125 53.870286 
L 300.621525 59.541351 
L 300.956325 54.074841 
L 301.291125 59.392711 
L 301.458525 51.323137 
L 301.793325 63.236032 
L 301.960725 55.885592 
L 302.128125 56.432346 
L 302.295525 53.215077 
L 302.462925 61.447414 
L 302.797725 53.73868 
L 302.965125 57.358234 
L 303.132525 64.109643 
L 303.299925 50.837105 
L 303.467325 59.439964 
L 303.802125 57.077742 
L 303.969525 59.300356 
L 304.304325 55.048896 
L 304.471725 52.809922 
L 304.806525 62.298115 
L 304.973925 52.440909 
L 305.141325 56.136854 
L 305.308725 63.156186 
L 305.476125 55.583339 
L 305.643525 56.021945 
L 305.978325 57.532942 
L 306.145725 54.808031 
L 306.313125 60.477734 
L 306.647925 55.208612 
L 306.815325 62.422117 
L 306.982725 54.849954 
L 307.150125 52.56962 
L 307.317525 59.556315 
L 307.484925 60.487065 
L 307.652325 59.109105 
L 307.819725 56.611105 
L 307.987125 51.839912 
L 308.321925 62.833362 
L 308.489325 54.964796 
L 308.656725 56.603429 
L 308.824125 59.475329 
L 308.991525 55.607862 
L 309.158925 54.591608 
L 309.326325 54.35321 
L 309.493725 59.563041 
L 309.661125 53.288019 
L 309.828525 56.584466 
L 309.995925 54.221173 
L 310.163325 61.776969 
L 310.330725 58.257842 
L 310.498125 51.933953 
L 310.665525 61.0873 
L 311.000325 51.771713 
L 311.167725 57.291721 
L 311.335125 55.376047 
L 311.669925 58.098469 
L 311.837325 62.596789 
L 312.004725 54.749858 
L 312.172125 56.2539 
L 312.339525 61.936406 
L 312.506925 59.836536 
L 312.674325 52.189541 
L 312.841725 60.57268 
L 313.009125 62.342163 
L 313.176525 50.372792 
L 313.343925 58.056521 
L 313.511325 56.839113 
L 313.678725 53.254625 
L 314.013525 60.686837 
L 314.180925 53.81959 
L 314.515725 60.479768 
L 314.683125 56.753756 
L 314.850525 56.885604 
L 315.017925 61.342749 
L 315.185325 52.026251 
L 315.352725 60.244511 
L 315.520125 60.689356 
L 315.854925 51.841832 
L 316.022325 58.486069 
L 316.357125 56.454341 
L 316.524525 60.048654 
L 316.691925 55.374133 
L 316.859325 54.239301 
L 317.026725 59.473707 
L 317.194125 55.808551 
L 317.528925 59.36481 
L 317.696325 59.379795 
L 317.863725 58.982017 
L 318.031125 53.438535 
L 318.198525 54.365332 
L 318.365925 59.267306 
L 318.700725 52.55757 
L 319.035525 57.209979 
L 319.202925 61.954644 
L 319.370325 56.560301 
L 319.537725 57.047415 
L 319.705125 59.192064 
L 319.872525 58.94994 
L 320.039925 61.583893 
L 320.207325 56.609062 
L 320.374725 59.911042 
L 320.542125 59.244559 
L 320.709525 55.072245 
L 320.876925 57.543991 
L 321.044325 54.173362 
L 321.211725 65.975974 
L 321.379125 53.407135 
L 321.546525 50.534415 
L 321.713925 66.033203 
L 322.048725 49.345676 
L 322.216125 60.550241 
L 322.383525 59.100536 
L 322.550925 54.110917 
L 322.718325 57.175089 
L 322.885725 56.893496 
L 323.053125 59.250702 
L 323.220525 55.823104 
L 323.387925 55.718045 
L 323.555325 56.644088 
L 323.722725 60.438002 
L 323.890125 53.504331 
L 324.057525 59.747713 
L 324.224925 58.642843 
L 324.392325 55.514348 
L 324.559725 55.273603 
L 324.727125 56.463365 
L 324.894525 54.428945 
L 325.061925 59.501934 
L 325.229325 50.76309 
L 325.396725 54.646732 
L 325.564125 63.032734 
L 325.731525 54.762112 
L 325.898925 52.803072 
L 326.233725 62.072068 
L 326.401125 55.822132 
L 326.568525 56.562515 
L 326.735925 62.535434 
L 326.903325 58.14579 
L 327.070725 59.669558 
L 327.238125 58.249923 
L 327.405525 55.812928 
L 327.572925 56.089687 
L 327.740325 55.210526 
L 327.907725 58.665424 
L 328.075125 58.319754 
L 328.242525 55.412491 
L 328.409925 59.804269 
L 328.577325 53.923412 
L 328.912125 63.708324 
L 329.079525 48.285486 
L 329.246925 60.052395 
L 329.414325 63.096524 
L 329.581725 51.935767 
L 329.916525 59.269484 
L 330.083925 51.98638 
L 330.251325 56.650035 
L 330.418725 57.344376 
L 330.586125 54.281261 
L 330.753525 54.509657 
L 330.920925 60.373558 
L 331.088325 59.993042 
L 331.255725 49.828967 
L 331.423125 62.19569 
L 331.757925 56.685641 
L 331.925325 55.596056 
L 332.092725 53.601894 
L 332.260125 63.211443 
L 332.427525 55.569958 
L 332.594925 55.575678 
L 332.762325 59.090419 
L 332.929725 53.837729 
L 333.097125 58.019136 
L 333.264525 55.98702 
L 333.431925 55.563531 
L 333.599325 59.550455 
L 333.766725 56.197106 
L 333.934125 56.90214 
L 334.101525 58.311657 
L 334.268925 55.057168 
L 334.436325 62.831634 
L 334.603725 55.789757 
L 334.938525 60.066862 
L 335.105925 58.225533 
L 335.273325 54.281436 
L 335.608125 59.87373 
L 335.942925 56.820272 
L 336.110325 66.514973 
L 336.445125 49.760236 
L 336.612525 61.044299 
L 336.779925 58.168826 
L 336.947325 57.496455 
L 337.114725 55.076351 
L 337.282125 59.88416 
L 337.449525 51.86706 
L 337.784325 58.508316 
L 338.119125 55.498394 
L 338.286525 57.871734 
L 338.453925 56.690315 
L 338.621325 57.025363 
L 338.788725 52.215624 
L 339.123525 58.817372 
L 339.290925 57.884802 
L 339.625725 57.901531 
L 339.793125 53.626918 
L 339.960525 56.923848 
L 340.127925 56.70184 
L 340.295325 55.598403 
L 340.630125 61.063484 
L 340.797525 50.089153 
L 340.964925 57.990029 
L 341.299725 54.998327 
L 341.634525 61.402434 
L 341.801925 54.552103 
L 341.969325 60.151349 
L 342.136725 56.55175 
L 342.304125 59.827207 
L 342.471525 59.490504 
L 342.638925 58.530084 
L 342.806325 60.625568 
L 342.973725 53.328974 
L 343.141125 60.331971 
L 343.308525 60.921974 
L 343.475925 49.631122 
L 343.810725 64.034428 
L 343.978125 53.390817 
L 344.145525 56.483885 
L 344.312925 57.054038 
L 344.480325 59.405556 
L 344.647725 53.715573 
L 344.815125 59.477225 
L 344.982525 60.260406 
L 345.149925 53.942597 
L 345.317325 61.245751 
L 345.652125 51.74748 
L 345.819525 61.751843 
L 345.986925 55.047789 
L 346.154325 53.804884 
L 346.321725 53.826678 
L 346.489125 55.433807 
L 346.656525 54.241077 
L 346.823925 58.864084 
L 346.991325 57.3882 
L 347.158725 58.443574 
L 347.326125 52.247032 
L 347.660925 61.527139 
L 347.828325 52.359213 
L 347.995725 56.880026 
L 348.163125 58.336841 
L 348.330525 58.77641 
L 348.497925 52.331638 
L 348.665325 53.908676 
L 348.832725 60.114166 
L 349.167525 56.334722 
L 349.334925 60.51885 
L 349.502325 52.440805 
L 349.669725 60.660494 
L 350.004525 55.99773 
L 350.171925 58.485328 
L 350.339325 64.995885 
L 350.506725 53.810951 
L 350.674125 53.453069 
L 350.841525 62.154911 
L 351.176325 51.530953 
L 351.511125 67.508914 
L 351.678525 53.004153 
L 351.845925 52.851623 
L 352.013325 63.086213 
L 352.348125 51.646046 
L 352.682925 65.364728 
L 352.850325 50.929056 
L 353.017725 58.422903 
L 353.185125 57.664114 
L 353.352525 54.535724 
L 353.687325 58.099927 
L 353.854725 51.21052 
L 354.022125 59.005327 
L 354.189525 57.878282 
L 354.356925 52.456238 
L 354.524325 63.002807 
L 354.691725 56.372742 
L 354.859125 55.688041 
L 355.026525 62.018626 
L 355.193925 53.959765 
L 355.528725 61.49419 
L 355.696125 51.940813 
L 355.863525 60.218201 
L 356.030925 54.217065 
L 356.198325 58.948739 
L 356.365725 52.532875 
L 356.533125 59.633998 
L 356.700525 56.877856 
L 356.867925 56.925126 
L 357.035325 59.462597 
L 357.202725 57.532387 
L 357.370125 59.91262 
L 357.537525 56.069018 
L 357.704925 55.079735 
L 357.872325 58.82338 
L 358.039725 54.829417 
L 358.374525 62.140754 
L 358.541925 54.093575 
L 358.709325 56.328275 
L 358.876725 61.876315 
L 359.044125 50.53666 
L 359.211525 57.190435 
L 359.378925 58.798279 
L 359.546325 57.529545 
L 359.713725 61.214221 
L 359.881125 51.812887 
L 360.215925 64.760645 
L 360.383325 52.933007 
L 360.550725 57.790908 
L 360.718125 57.377526 
L 360.885525 55.858603 
L 361.052925 56.123279 
L 361.220325 54.175684 
L 361.387725 58.390573 
L 361.722525 52.794646 
L 362.057325 62.84661 
L 362.224725 60.406719 
L 362.392125 52.651186 
L 362.559525 60.284895 
L 362.726925 60.671967 
L 362.894325 49.484841 
L 363.229125 62.388311 
L 363.396525 48.881102 
L 363.563925 58.266993 
L 363.731325 60.127958 
L 363.898725 50.038254 
L 364.066125 58.300678 
L 364.233525 58.8521 
L 364.400925 54.549668 
L 364.735725 60.085735 
L 364.903125 55.859635 
L 364.903125 55.859635 
" clip-path="url(#p3d5e46f86b)" style="fill: none; stroke: #1f77b4; stroke-width: 1.5; stroke-linecap: square"/>
   </g>
   <g id="line2d_17">
    <path d="M 30.270525 243.556364 
L 30.940125 231.967152 
L 31.609725 224.198671 
L 32.279325 218.991302 
L 32.948925 215.500699 
L 33.618525 213.160878 
L 34.288125 211.592448 
L 34.957725 210.541099 
L 35.627325 209.836358 
L 36.464325 209.272552 
L 37.468725 208.880422 
L 38.807925 208.617766 
L 40.984125 208.461856 
L 45.838725 208.406661 
L 108.278925 208.403448 
L 364.903125 208.403448 
L 364.903125 208.403448 
" clip-path="url(#p3d5e46f86b)" style="fill: none; stroke: #ff7f0e; stroke-width: 1.5; stroke-linecap: square"/>
   </g>
   <g id="patch_3">
    <path d="M 30.103125 253.44 
L 30.103125 36 
" style="fill: none; stroke: #000000; stroke-width: 0.8; stroke-linejoin: miter; stroke-linecap: square"/>
   </g>
   <g id="patch_4">
    <path d="M 364.903125 253.44 
L 364.903125 36 
" style="fill: none; stroke: #000000; stroke-width: 0.8; stroke-linejoin: miter; stroke-linecap: square"/>
   </g>
   <g id="patch_5">
    <path d="M 30.103125 253.44 
L 364.903125 253.44 
" style="fill: none; stroke: #000000; stroke-width: 0.8; stroke-linejoin: miter; stroke-linecap: square"/>
   </g>
   <g id="patch_6">
    <path d="M 30.103125 36 
L 364.903125 36 
" style="fill: none; stroke: #000000; stroke-width: 0.8; stroke-linejoin: miter; stroke-linecap: square"/>
   </g>
   <g id="legend_1">
    <g id="patch_7">
     <path d="M 37.103125 77.078125 
L 86.803125 77.078125 
Q 88.803125 77.078125 88.803125 75.078125 
L 88.803125 43 
Q 88.803125 41 86.803125 41 
L 37.103125 41 
Q 35.103125 41 35.103125 43 
L 35.103125 75.078125 
Q 35.103125 77.078125 37.103125 77.078125 
z
" style="fill: #ffffff; opacity: 0.8; stroke: #cccccc; stroke-linejoin: miter"/>
    </g>
    <g id="line2d_18">
     <path d="M 39.103125 52.8 
L 49.103125 52.8 
L 59.103125 52.8 
" style="fill: none; stroke: #1f77b4; stroke-width: 1.5; stroke-linecap: square"/>
    </g>
    <g id="text_16">
     <!-- $\hat{y(t)}$ -->
     <g transform="translate(67.103125 56.3) scale(0.1 -0.1)">
      <defs>
       <path id="DejaVuSans-302" d="M -1831 5119 
L -1369 5119 
L -603 3944 
L -1038 3944 
L -1600 4709 
L -2163 3944 
L -2597 3944 
L -1831 5119 
z
M -1600 3584 
L -1600 3584 
z
" transform="scale(0.015625)"/>
       <path id="DejaVuSans-Oblique-79" d="M 1588 -325 
Q 1188 -997 936 -1164 
Q 684 -1331 294 -1331 
L -159 -1331 
L -63 -850 
L 269 -850 
Q 509 -850 678 -719 
Q 847 -588 1056 -206 
L 1234 128 
L 459 3500 
L 1069 3500 
L 1650 819 
L 3256 3500 
L 3859 3500 
L 1588 -325 
z
" transform="scale(0.015625)"/>
       <path id="DejaVuSans-28" d="M 1984 4856 
Q 1566 4138 1362 3434 
Q 1159 2731 1159 2009 
Q 1159 1288 1364 580 
Q 1569 -128 1984 -844 
L 1484 -844 
Q 1016 -109 783 600 
Q 550 1309 550 2009 
Q 550 2706 781 3412 
Q 1013 4119 1484 4856 
L 1984 4856 
z
" transform="scale(0.015625)"/>
       <path id="DejaVuSans-Oblique-74" d="M 2706 3500 
L 2619 3053 
L 1472 3053 
L 1100 1153 
Q 1081 1047 1072 975 
Q 1063 903 1063 863 
Q 1063 663 1183 572 
Q 1303 481 1569 481 
L 2150 481 
L 2053 0 
L 1503 0 
Q 991 0 739 200 
Q 488 400 488 806 
Q 488 878 497 964 
Q 506 1050 525 1153 
L 897 3053 
L 409 3053 
L 500 3500 
L 978 3500 
L 1172 4494 
L 1747 4494 
L 1556 3500 
L 2706 3500 
z
" transform="scale(0.015625)"/>
       <path id="DejaVuSans-29" d="M 513 4856 
L 1013 4856 
Q 1481 4119 1714 3412 
Q 1947 2706 1947 2009 
Q 1947 1309 1714 600 
Q 1481 -109 1013 -844 
L 513 -844 
Q 928 -128 1133 580 
Q 1338 1288 1338 2009 
Q 1338 2731 1133 3434 
Q 928 4138 513 4856 
z
" transform="scale(0.015625)"/>
      </defs>
      <use xlink:href="#DejaVuSans-302" transform="translate(135.682129 33.015625)"/>
      <use xlink:href="#DejaVuSans-Oblique-79" transform="translate(0 0.640625)"/>
      <use xlink:href="#DejaVuSans-28" transform="translate(59.179688 0.640625)"/>
      <use xlink:href="#DejaVuSans-Oblique-74" transform="translate(98.193359 0.640625)"/>
      <use xlink:href="#DejaVuSans-29" transform="translate(137.402344 0.640625)"/>
     </g>
    </g>
    <g id="line2d_19">
     <path d="M 39.103125 67.498437 
L 49.103125 67.498437 
L 59.103125 67.498437 
" style="fill: none; stroke: #ff7f0e; stroke-width: 1.5; stroke-linecap: square"/>
    </g>
    <g id="text_17">
     <!-- $x(t)$ -->
     <g transform="translate(67.103125 70.998437) scale(0.1 -0.1)">
      <defs>
       <path id="DejaVuSans-Oblique-78" d="M 3841 3500 
L 2234 1784 
L 3219 0 
L 2559 0 
L 1819 1388 
L 531 0 
L -166 0 
L 1556 1844 
L 641 3500 
L 1300 3500 
L 1972 2234 
L 3144 3500 
L 3841 3500 
z
" transform="scale(0.015625)"/>
      </defs>
      <use xlink:href="#DejaVuSans-Oblique-78" transform="translate(0 0.125)"/>
      <use xlink:href="#DejaVuSans-28" transform="translate(59.179688 0.125)"/>
      <use xlink:href="#DejaVuSans-Oblique-74" transform="translate(98.193359 0.125)"/>
      <use xlink:href="#DejaVuSans-29" transform="translate(137.402344 0.125)"/>
     </g>
    </g>
   </g>
  </g>
  <g id="text_18">
   <!-- Accumulate to Threshold decision maker with input of 0.2 -->
   <g transform="translate(18.6675 16.318125) scale(0.12 -0.12)">
    <defs>
     <path id="DejaVuSans-41" d="M 2188 4044 
L 1331 1722 
L 3047 1722 
L 2188 4044 
z
M 1831 4666 
L 2547 4666 
L 4325 0 
L 3669 0 
L 3244 1197 
L 1141 1197 
L 716 0 
L 50 0 
L 1831 4666 
z
" transform="scale(0.015625)"/>
     <path id="DejaVuSans-63" d="M 3122 3366 
L 3122 2828 
Q 2878 2963 2633 3030 
Q 2388 3097 2138 3097 
Q 1578 3097 1268 2742 
Q 959 2388 959 1747 
Q 959 1106 1268 751 
Q 1578 397 2138 397 
Q 2388 397 2633 464 
Q 2878 531 3122 666 
L 3122 134 
Q 2881 22 2623 -34 
Q 2366 -91 2075 -91 
Q 1284 -91 818 406 
Q 353 903 353 1747 
Q 353 2603 823 3093 
Q 1294 3584 2113 3584 
Q 2378 3584 2631 3529 
Q 2884 3475 3122 3366 
z
" transform="scale(0.015625)"/>
     <path id="DejaVuSans-75" d="M 544 1381 
L 544 3500 
L 1119 3500 
L 1119 1403 
Q 1119 906 1312 657 
Q 1506 409 1894 409 
Q 2359 409 2629 706 
Q 2900 1003 2900 1516 
L 2900 3500 
L 3475 3500 
L 3475 0 
L 2900 0 
L 2900 538 
Q 2691 219 2414 64 
Q 2138 -91 1772 -91 
Q 1169 -91 856 284 
Q 544 659 544 1381 
z
M 1991 3584 
L 1991 3584 
z
" transform="scale(0.015625)"/>
     <path id="DejaVuSans-6d" d="M 3328 2828 
Q 3544 3216 3844 3400 
Q 4144 3584 4550 3584 
Q 5097 3584 5394 3201 
Q 5691 2819 5691 2113 
L 5691 0 
L 5113 0 
L 5113 2094 
Q 5113 2597 4934 2840 
Q 4756 3084 4391 3084 
Q 3944 3084 3684 2787 
Q 3425 2491 3425 1978 
L 3425 0 
L 2847 0 
L 2847 2094 
Q 2847 2600 2669 2842 
Q 2491 3084 2119 3084 
Q 1678 3084 1418 2786 
Q 1159 2488 1159 1978 
L 1159 0 
L 581 0 
L 581 3500 
L 1159 3500 
L 1159 2956 
Q 1356 3278 1631 3431 
Q 1906 3584 2284 3584 
Q 2666 3584 2933 3390 
Q 3200 3197 3328 2828 
z
" transform="scale(0.015625)"/>
     <path id="DejaVuSans-6c" d="M 603 4863 
L 1178 4863 
L 1178 0 
L 603 0 
L 603 4863 
z
" transform="scale(0.015625)"/>
     <path id="DejaVuSans-61" d="M 2194 1759 
Q 1497 1759 1228 1600 
Q 959 1441 959 1056 
Q 959 750 1161 570 
Q 1363 391 1709 391 
Q 2188 391 2477 730 
Q 2766 1069 2766 1631 
L 2766 1759 
L 2194 1759 
z
M 3341 1997 
L 3341 0 
L 2766 0 
L 2766 531 
Q 2569 213 2275 61 
Q 1981 -91 1556 -91 
Q 1019 -91 701 211 
Q 384 513 384 1019 
Q 384 1609 779 1909 
Q 1175 2209 1959 2209 
L 2766 2209 
L 2766 2266 
Q 2766 2663 2505 2880 
Q 2244 3097 1772 3097 
Q 1472 3097 1187 3025 
Q 903 2953 641 2809 
L 641 3341 
Q 956 3463 1253 3523 
Q 1550 3584 1831 3584 
Q 2591 3584 2966 3190 
Q 3341 2797 3341 1997 
z
" transform="scale(0.015625)"/>
     <path id="DejaVuSans-74" d="M 1172 4494 
L 1172 3500 
L 2356 3500 
L 2356 3053 
L 1172 3053 
L 1172 1153 
Q 1172 725 1289 603 
Q 1406 481 1766 481 
L 2356 481 
L 2356 0 
L 1766 0 
Q 1100 0 847 248 
Q 594 497 594 1153 
L 594 3053 
L 172 3053 
L 172 3500 
L 594 3500 
L 594 4494 
L 1172 4494 
z
" transform="scale(0.015625)"/>
     <path id="DejaVuSans-65" d="M 3597 1894 
L 3597 1613 
L 953 1613 
Q 991 1019 1311 708 
Q 1631 397 2203 397 
Q 2534 397 2845 478 
Q 3156 559 3463 722 
L 3463 178 
Q 3153 47 2828 -22 
Q 2503 -91 2169 -91 
Q 1331 -91 842 396 
Q 353 884 353 1716 
Q 353 2575 817 3079 
Q 1281 3584 2069 3584 
Q 2775 3584 3186 3129 
Q 3597 2675 3597 1894 
z
M 3022 2063 
Q 3016 2534 2758 2815 
Q 2500 3097 2075 3097 
Q 1594 3097 1305 2825 
Q 1016 2553 972 2059 
L 3022 2063 
z
" transform="scale(0.015625)"/>
     <path id="DejaVuSans-20" transform="scale(0.015625)"/>
     <path id="DejaVuSans-6f" d="M 1959 3097 
Q 1497 3097 1228 2736 
Q 959 2375 959 1747 
Q 959 1119 1226 758 
Q 1494 397 1959 397 
Q 2419 397 2687 759 
Q 2956 1122 2956 1747 
Q 2956 2369 2687 2733 
Q 2419 3097 1959 3097 
z
M 1959 3584 
Q 2709 3584 3137 3096 
Q 3566 2609 3566 1747 
Q 3566 888 3137 398 
Q 2709 -91 1959 -91 
Q 1206 -91 779 398 
Q 353 888 353 1747 
Q 353 2609 779 3096 
Q 1206 3584 1959 3584 
z
" transform="scale(0.015625)"/>
     <path id="DejaVuSans-54" d="M -19 4666 
L 3928 4666 
L 3928 4134 
L 2272 4134 
L 2272 0 
L 1638 0 
L 1638 4134 
L -19 4134 
L -19 4666 
z
" transform="scale(0.015625)"/>
     <path id="DejaVuSans-68" d="M 3513 2113 
L 3513 0 
L 2938 0 
L 2938 2094 
Q 2938 2591 2744 2837 
Q 2550 3084 2163 3084 
Q 1697 3084 1428 2787 
Q 1159 2491 1159 1978 
L 1159 0 
L 581 0 
L 581 4863 
L 1159 4863 
L 1159 2956 
Q 1366 3272 1645 3428 
Q 1925 3584 2291 3584 
Q 2894 3584 3203 3211 
Q 3513 2838 3513 2113 
z
" transform="scale(0.015625)"/>
     <path id="DejaVuSans-72" d="M 2631 2963 
Q 2534 3019 2420 3045 
Q 2306 3072 2169 3072 
Q 1681 3072 1420 2755 
Q 1159 2438 1159 1844 
L 1159 0 
L 581 0 
L 581 3500 
L 1159 3500 
L 1159 2956 
Q 1341 3275 1631 3429 
Q 1922 3584 2338 3584 
Q 2397 3584 2469 3576 
Q 2541 3569 2628 3553 
L 2631 2963 
z
" transform="scale(0.015625)"/>
     <path id="DejaVuSans-73" d="M 2834 3397 
L 2834 2853 
Q 2591 2978 2328 3040 
Q 2066 3103 1784 3103 
Q 1356 3103 1142 2972 
Q 928 2841 928 2578 
Q 928 2378 1081 2264 
Q 1234 2150 1697 2047 
L 1894 2003 
Q 2506 1872 2764 1633 
Q 3022 1394 3022 966 
Q 3022 478 2636 193 
Q 2250 -91 1575 -91 
Q 1294 -91 989 -36 
Q 684 19 347 128 
L 347 722 
Q 666 556 975 473 
Q 1284 391 1588 391 
Q 1994 391 2212 530 
Q 2431 669 2431 922 
Q 2431 1156 2273 1281 
Q 2116 1406 1581 1522 
L 1381 1569 
Q 847 1681 609 1914 
Q 372 2147 372 2553 
Q 372 3047 722 3315 
Q 1072 3584 1716 3584 
Q 2034 3584 2315 3537 
Q 2597 3491 2834 3397 
z
" transform="scale(0.015625)"/>
     <path id="DejaVuSans-64" d="M 2906 2969 
L 2906 4863 
L 3481 4863 
L 3481 0 
L 2906 0 
L 2906 525 
Q 2725 213 2448 61 
Q 2172 -91 1784 -91 
Q 1150 -91 751 415 
Q 353 922 353 1747 
Q 353 2572 751 3078 
Q 1150 3584 1784 3584 
Q 2172 3584 2448 3432 
Q 2725 3281 2906 2969 
z
M 947 1747 
Q 947 1113 1208 752 
Q 1469 391 1925 391 
Q 2381 391 2643 752 
Q 2906 1113 2906 1747 
Q 2906 2381 2643 2742 
Q 2381 3103 1925 3103 
Q 1469 3103 1208 2742 
Q 947 2381 947 1747 
z
" transform="scale(0.015625)"/>
     <path id="DejaVuSans-69" d="M 603 3500 
L 1178 3500 
L 1178 0 
L 603 0 
L 603 3500 
z
M 603 4863 
L 1178 4863 
L 1178 4134 
L 603 4134 
L 603 4863 
z
" transform="scale(0.015625)"/>
     <path id="DejaVuSans-6e" d="M 3513 2113 
L 3513 0 
L 2938 0 
L 2938 2094 
Q 2938 2591 2744 2837 
Q 2550 3084 2163 3084 
Q 1697 3084 1428 2787 
Q 1159 2491 1159 1978 
L 1159 0 
L 581 0 
L 581 3500 
L 1159 3500 
L 1159 2956 
Q 1366 3272 1645 3428 
Q 1925 3584 2291 3584 
Q 2894 3584 3203 3211 
Q 3513 2838 3513 2113 
z
" transform="scale(0.015625)"/>
     <path id="DejaVuSans-6b" d="M 581 4863 
L 1159 4863 
L 1159 1991 
L 2875 3500 
L 3609 3500 
L 1753 1863 
L 3688 0 
L 2938 0 
L 1159 1709 
L 1159 0 
L 581 0 
L 581 4863 
z
" transform="scale(0.015625)"/>
     <path id="DejaVuSans-77" d="M 269 3500 
L 844 3500 
L 1563 769 
L 2278 3500 
L 2956 3500 
L 3675 769 
L 4391 3500 
L 4966 3500 
L 4050 0 
L 3372 0 
L 2619 2869 
L 1863 0 
L 1184 0 
L 269 3500 
z
" transform="scale(0.015625)"/>
     <path id="DejaVuSans-70" d="M 1159 525 
L 1159 -1331 
L 581 -1331 
L 581 3500 
L 1159 3500 
L 1159 2969 
Q 1341 3281 1617 3432 
Q 1894 3584 2278 3584 
Q 2916 3584 3314 3078 
Q 3713 2572 3713 1747 
Q 3713 922 3314 415 
Q 2916 -91 2278 -91 
Q 1894 -91 1617 61 
Q 1341 213 1159 525 
z
M 3116 1747 
Q 3116 2381 2855 2742 
Q 2594 3103 2138 3103 
Q 1681 3103 1420 2742 
Q 1159 2381 1159 1747 
Q 1159 1113 1420 752 
Q 1681 391 2138 391 
Q 2594 391 2855 752 
Q 3116 1113 3116 1747 
z
" transform="scale(0.015625)"/>
     <path id="DejaVuSans-66" d="M 2375 4863 
L 2375 4384 
L 1825 4384 
Q 1516 4384 1395 4259 
Q 1275 4134 1275 3809 
L 1275 3500 
L 2222 3500 
L 2222 3053 
L 1275 3053 
L 1275 0 
L 697 0 
L 697 3053 
L 147 3053 
L 147 3500 
L 697 3500 
L 697 3744 
Q 697 4328 969 4595 
Q 1241 4863 1831 4863 
L 2375 4863 
z
" transform="scale(0.015625)"/>
    </defs>
    <use xlink:href="#DejaVuSans-41"/>
    <use xlink:href="#DejaVuSans-63" x="66.658203"/>
    <use xlink:href="#DejaVuSans-63" x="121.638672"/>
    <use xlink:href="#DejaVuSans-75" x="176.619141"/>
    <use xlink:href="#DejaVuSans-6d" x="239.998047"/>
    <use xlink:href="#DejaVuSans-75" x="337.410156"/>
    <use xlink:href="#DejaVuSans-6c" x="400.789062"/>
    <use xlink:href="#DejaVuSans-61" x="428.572266"/>
    <use xlink:href="#DejaVuSans-74" x="489.851562"/>
    <use xlink:href="#DejaVuSans-65" x="529.060547"/>
    <use xlink:href="#DejaVuSans-20" x="590.583984"/>
    <use xlink:href="#DejaVuSans-74" x="622.371094"/>
    <use xlink:href="#DejaVuSans-6f" x="661.580078"/>
    <use xlink:href="#DejaVuSans-20" x="722.761719"/>
    <use xlink:href="#DejaVuSans-54" x="754.548828"/>
    <use xlink:href="#DejaVuSans-68" x="815.632812"/>
    <use xlink:href="#DejaVuSans-72" x="879.011719"/>
    <use xlink:href="#DejaVuSans-65" x="917.875"/>
    <use xlink:href="#DejaVuSans-73" x="979.398438"/>
    <use xlink:href="#DejaVuSans-68" x="1031.498047"/>
    <use xlink:href="#DejaVuSans-6f" x="1094.876953"/>
    <use xlink:href="#DejaVuSans-6c" x="1156.058594"/>
    <use xlink:href="#DejaVuSans-64" x="1183.841797"/>
    <use xlink:href="#DejaVuSans-20" x="1247.318359"/>
    <use xlink:href="#DejaVuSans-64" x="1279.105469"/>
    <use xlink:href="#DejaVuSans-65" x="1342.582031"/>
    <use xlink:href="#DejaVuSans-63" x="1404.105469"/>
    <use xlink:href="#DejaVuSans-69" x="1459.085938"/>
    <use xlink:href="#DejaVuSans-73" x="1486.869141"/>
    <use xlink:href="#DejaVuSans-69" x="1538.96875"/>
    <use xlink:href="#DejaVuSans-6f" x="1566.751953"/>
    <use xlink:href="#DejaVuSans-6e" x="1627.933594"/>
    <use xlink:href="#DejaVuSans-20" x="1691.3125"/>
    <use xlink:href="#DejaVuSans-6d" x="1723.099609"/>
    <use xlink:href="#DejaVuSans-61" x="1820.511719"/>
    <use xlink:href="#DejaVuSans-6b" x="1881.791016"/>
    <use xlink:href="#DejaVuSans-65" x="1936.076172"/>
    <use xlink:href="#DejaVuSans-72" x="1997.599609"/>
    <use xlink:href="#DejaVuSans-20" x="2038.712891"/>
    <use xlink:href="#DejaVuSans-77" x="2070.5"/>
    <use xlink:href="#DejaVuSans-69" x="2152.287109"/>
    <use xlink:href="#DejaVuSans-74" x="2180.070312"/>
    <use xlink:href="#DejaVuSans-68" x="2219.279297"/>
    <use xlink:href="#DejaVuSans-20" x="2282.658203"/>
    <use xlink:href="#DejaVuSans-69" x="2314.445312"/>
    <use xlink:href="#DejaVuSans-6e" x="2342.228516"/>
    <use xlink:href="#DejaVuSans-70" x="2405.607422"/>
    <use xlink:href="#DejaVuSans-75" x="2469.083984"/>
    <use xlink:href="#DejaVuSans-74" x="2532.462891"/>
    <use xlink:href="#DejaVuSans-20" x="2571.671875"/>
    <use xlink:href="#DejaVuSans-6f" x="2603.458984"/>
    <use xlink:href="#DejaVuSans-66" x="2664.640625"/>
    <use xlink:href="#DejaVuSans-20" x="2699.845703"/>
    <use xlink:href="#DejaVuSans-30" x="2731.632812"/>
    <use xlink:href="#DejaVuSans-2e" x="2795.255859"/>
    <use xlink:href="#DejaVuSans-32" x="2827.042969"/>
   </g>
  </g>
 </g>
 <defs>
  <clipPath id="p3d5e46f86b">
   <rect x="30.103125" y="36" width="334.8" height="217.44"/>
  </clipPath>
 </defs>
</svg>
