<?xml version="1.0" encoding="utf-8" standalone="no"?>
<!DOCTYPE svg PUBLIC "-//W3C//DTD SVG 1.1//EN"
  "http://www.w3.org/Graphics/SVG/1.1/DTD/svg11.dtd">
<svg xmlns:xlink="http://www.w3.org/1999/xlink" width="384.736875pt" height="290.99625pt" viewBox="0 0 384.736875 290.99625" xmlns="http://www.w3.org/2000/svg" version="1.1">
 <metadata>
  <rdf:RDF xmlns:dc="http://purl.org/dc/elements/1.1/" xmlns:cc="http://creativecommons.org/ns#" xmlns:rdf="http://www.w3.org/1999/02/22-rdf-syntax-ns#">
   <cc:Work>
    <dc:type rdf:resource="http://purl.org/dc/dcmitype/StillImage"/>
    <dc:date>2022-12-01T16:27:20.744366</dc:date>
    <dc:format>image/svg+xml</dc:format>
    <dc:creator>
     <cc:Agent>
      <dc:title>Matplotlib v3.6.0, https://matplotlib.org/</dc:title>
     </cc:Agent>
    </dc:creator>
   </cc:Work>
  </rdf:RDF>
 </metadata>
 <defs>
  <style type="text/css">*{stroke-linejoin: round; stroke-linecap: butt}</style>
 </defs>
 <g id="figure_1">
  <g id="patch_1">
   <path d="M 0 290.99625 
L 384.736875 290.99625 
L 384.736875 0 
L 0 0 
L 0 290.99625 
z
" style="fill: none"/>
  </g>
  <g id="axes_1">
   <g id="patch_2">
    <path d="M 30.368437 253.44 
L 365.168437 253.44 
L 365.168437 36 
L 30.368437 36 
z
" style="fill: #ffffff"/>
   </g>
   <g id="matplotlib.axis_1">
    <g id="xtick_1">
     <g id="line2d_1">
      <defs>
       <path id="m79866086b9" d="M 0 0 
L 0 3.5 
" style="stroke: #000000; stroke-width: 0.8"/>
      </defs>
      <g>
       <use xlink:href="#m79866086b9" x="30.368437" y="253.44" style="stroke: #000000; stroke-width: 0.8"/>
      </g>
     </g>
     <g id="text_1">
      <!-- 0.00 -->
      <g transform="translate(19.235625 268.038437) scale(0.1 -0.1)">
       <defs>
        <path id="DejaVuSans-30" d="M 2034 4250 
Q 1547 4250 1301 3770 
Q 1056 3291 1056 2328 
Q 1056 1369 1301 889 
Q 1547 409 2034 409 
Q 2525 409 2770 889 
Q 3016 1369 3016 2328 
Q 3016 3291 2770 3770 
Q 2525 4250 2034 4250 
z
M 2034 4750 
Q 2819 4750 3233 4129 
Q 3647 3509 3647 2328 
Q 3647 1150 3233 529 
Q 2819 -91 2034 -91 
Q 1250 -91 836 529 
Q 422 1150 422 2328 
Q 422 3509 836 4129 
Q 1250 4750 2034 4750 
z
" transform="scale(0.015625)"/>
        <path id="DejaVuSans-2e" d="M 684 794 
L 1344 794 
L 1344 0 
L 684 0 
L 684 794 
z
" transform="scale(0.015625)"/>
       </defs>
       <use xlink:href="#DejaVuSans-30"/>
       <use xlink:href="#DejaVuSans-2e" x="63.623047"/>
       <use xlink:href="#DejaVuSans-30" x="95.410156"/>
       <use xlink:href="#DejaVuSans-30" x="159.033203"/>
      </g>
     </g>
    </g>
    <g id="xtick_2">
     <g id="line2d_2">
      <g>
       <use xlink:href="#m79866086b9" x="72.218437" y="253.44" style="stroke: #000000; stroke-width: 0.8"/>
      </g>
     </g>
     <g id="text_2">
      <!-- 0.25 -->
      <g transform="translate(61.085625 268.038437) scale(0.1 -0.1)">
       <defs>
        <path id="DejaVuSans-32" d="M 1228 531 
L 3431 531 
L 3431 0 
L 469 0 
L 469 531 
Q 828 903 1448 1529 
Q 2069 2156 2228 2338 
Q 2531 2678 2651 2914 
Q 2772 3150 2772 3378 
Q 2772 3750 2511 3984 
Q 2250 4219 1831 4219 
Q 1534 4219 1204 4116 
Q 875 4013 500 3803 
L 500 4441 
Q 881 4594 1212 4672 
Q 1544 4750 1819 4750 
Q 2544 4750 2975 4387 
Q 3406 4025 3406 3419 
Q 3406 3131 3298 2873 
Q 3191 2616 2906 2266 
Q 2828 2175 2409 1742 
Q 1991 1309 1228 531 
z
" transform="scale(0.015625)"/>
        <path id="DejaVuSans-35" d="M 691 4666 
L 3169 4666 
L 3169 4134 
L 1269 4134 
L 1269 2991 
Q 1406 3038 1543 3061 
Q 1681 3084 1819 3084 
Q 2600 3084 3056 2656 
Q 3513 2228 3513 1497 
Q 3513 744 3044 326 
Q 2575 -91 1722 -91 
Q 1428 -91 1123 -41 
Q 819 9 494 109 
L 494 744 
Q 775 591 1075 516 
Q 1375 441 1709 441 
Q 2250 441 2565 725 
Q 2881 1009 2881 1497 
Q 2881 1984 2565 2268 
Q 2250 2553 1709 2553 
Q 1456 2553 1204 2497 
Q 953 2441 691 2322 
L 691 4666 
z
" transform="scale(0.015625)"/>
       </defs>
       <use xlink:href="#DejaVuSans-30"/>
       <use xlink:href="#DejaVuSans-2e" x="63.623047"/>
       <use xlink:href="#DejaVuSans-32" x="95.410156"/>
       <use xlink:href="#DejaVuSans-35" x="159.033203"/>
      </g>
     </g>
    </g>
    <g id="xtick_3">
     <g id="line2d_3">
      <g>
       <use xlink:href="#m79866086b9" x="114.068437" y="253.44" style="stroke: #000000; stroke-width: 0.8"/>
      </g>
     </g>
     <g id="text_3">
      <!-- 0.50 -->
      <g transform="translate(102.935625 268.038437) scale(0.1 -0.1)">
       <use xlink:href="#DejaVuSans-30"/>
       <use xlink:href="#DejaVuSans-2e" x="63.623047"/>
       <use xlink:href="#DejaVuSans-35" x="95.410156"/>
       <use xlink:href="#DejaVuSans-30" x="159.033203"/>
      </g>
     </g>
    </g>
    <g id="xtick_4">
     <g id="line2d_4">
      <g>
       <use xlink:href="#m79866086b9" x="155.918437" y="253.44" style="stroke: #000000; stroke-width: 0.8"/>
      </g>
     </g>
     <g id="text_4">
      <!-- 0.75 -->
      <g transform="translate(144.785625 268.038437) scale(0.1 -0.1)">
       <defs>
        <path id="DejaVuSans-37" d="M 525 4666 
L 3525 4666 
L 3525 4397 
L 1831 0 
L 1172 0 
L 2766 4134 
L 525 4134 
L 525 4666 
z
" transform="scale(0.015625)"/>
       </defs>
       <use xlink:href="#DejaVuSans-30"/>
       <use xlink:href="#DejaVuSans-2e" x="63.623047"/>
       <use xlink:href="#DejaVuSans-37" x="95.410156"/>
       <use xlink:href="#DejaVuSans-35" x="159.033203"/>
      </g>
     </g>
    </g>
    <g id="xtick_5">
     <g id="line2d_5">
      <g>
       <use xlink:href="#m79866086b9" x="197.768437" y="253.44" style="stroke: #000000; stroke-width: 0.8"/>
      </g>
     </g>
     <g id="text_5">
      <!-- 1.00 -->
      <g transform="translate(186.635625 268.038437) scale(0.1 -0.1)">
       <defs>
        <path id="DejaVuSans-31" d="M 794 531 
L 1825 531 
L 1825 4091 
L 703 3866 
L 703 4441 
L 1819 4666 
L 2450 4666 
L 2450 531 
L 3481 531 
L 3481 0 
L 794 0 
L 794 531 
z
" transform="scale(0.015625)"/>
       </defs>
       <use xlink:href="#DejaVuSans-31"/>
       <use xlink:href="#DejaVuSans-2e" x="63.623047"/>
       <use xlink:href="#DejaVuSans-30" x="95.410156"/>
       <use xlink:href="#DejaVuSans-30" x="159.033203"/>
      </g>
     </g>
    </g>
    <g id="xtick_6">
     <g id="line2d_6">
      <g>
       <use xlink:href="#m79866086b9" x="239.618437" y="253.44" style="stroke: #000000; stroke-width: 0.8"/>
      </g>
     </g>
     <g id="text_6">
      <!-- 1.25 -->
      <g transform="translate(228.485625 268.038437) scale(0.1 -0.1)">
       <use xlink:href="#DejaVuSans-31"/>
       <use xlink:href="#DejaVuSans-2e" x="63.623047"/>
       <use xlink:href="#DejaVuSans-32" x="95.410156"/>
       <use xlink:href="#DejaVuSans-35" x="159.033203"/>
      </g>
     </g>
    </g>
    <g id="xtick_7">
     <g id="line2d_7">
      <g>
       <use xlink:href="#m79866086b9" x="281.468437" y="253.44" style="stroke: #000000; stroke-width: 0.8"/>
      </g>
     </g>
     <g id="text_7">
      <!-- 1.50 -->
      <g transform="translate(270.335625 268.038437) scale(0.1 -0.1)">
       <use xlink:href="#DejaVuSans-31"/>
       <use xlink:href="#DejaVuSans-2e" x="63.623047"/>
       <use xlink:href="#DejaVuSans-35" x="95.410156"/>
       <use xlink:href="#DejaVuSans-30" x="159.033203"/>
      </g>
     </g>
    </g>
    <g id="xtick_8">
     <g id="line2d_8">
      <g>
       <use xlink:href="#m79866086b9" x="323.318437" y="253.44" style="stroke: #000000; stroke-width: 0.8"/>
      </g>
     </g>
     <g id="text_8">
      <!-- 1.75 -->
      <g transform="translate(312.185625 268.038437) scale(0.1 -0.1)">
       <use xlink:href="#DejaVuSans-31"/>
       <use xlink:href="#DejaVuSans-2e" x="63.623047"/>
       <use xlink:href="#DejaVuSans-37" x="95.410156"/>
       <use xlink:href="#DejaVuSans-35" x="159.033203"/>
      </g>
     </g>
    </g>
    <g id="xtick_9">
     <g id="line2d_9">
      <g>
       <use xlink:href="#m79866086b9" x="365.168437" y="253.44" style="stroke: #000000; stroke-width: 0.8"/>
      </g>
     </g>
     <g id="text_9">
      <!-- 2.00 -->
      <g transform="translate(354.035625 268.038437) scale(0.1 -0.1)">
       <use xlink:href="#DejaVuSans-32"/>
       <use xlink:href="#DejaVuSans-2e" x="63.623047"/>
       <use xlink:href="#DejaVuSans-30" x="95.410156"/>
       <use xlink:href="#DejaVuSans-30" x="159.033203"/>
      </g>
     </g>
    </g>
    <g id="text_10">
     <!-- $t$ -->
     <g transform="translate(195.768437 281.716562) scale(0.1 -0.1)">
      <defs>
       <path id="DejaVuSans-Oblique-74" d="M 2706 3500 
L 2619 3053 
L 1472 3053 
L 1100 1153 
Q 1081 1047 1072 975 
Q 1063 903 1063 863 
Q 1063 663 1183 572 
Q 1303 481 1569 481 
L 2150 481 
L 2053 0 
L 1503 0 
Q 991 0 739 200 
Q 488 400 488 806 
Q 488 878 497 964 
Q 506 1050 525 1153 
L 897 3053 
L 409 3053 
L 500 3500 
L 978 3500 
L 1172 4494 
L 1747 4494 
L 1556 3500 
L 2706 3500 
z
" transform="scale(0.015625)"/>
      </defs>
      <use xlink:href="#DejaVuSans-Oblique-74" transform="translate(0 0.78125)"/>
     </g>
    </g>
   </g>
   <g id="matplotlib.axis_2">
    <g id="ytick_1">
     <g id="line2d_10">
      <defs>
       <path id="mfe3a34f9d4" d="M 0 0 
L -3.5 0 
" style="stroke: #000000; stroke-width: 0.8"/>
      </defs>
      <g>
       <use xlink:href="#mfe3a34f9d4" x="30.368437" y="230.752794" style="stroke: #000000; stroke-width: 0.8"/>
      </g>
     </g>
     <g id="text_11">
      <!-- 0.0 -->
      <g transform="translate(7.465312 234.552013) scale(0.1 -0.1)">
       <use xlink:href="#DejaVuSans-30"/>
       <use xlink:href="#DejaVuSans-2e" x="63.623047"/>
       <use xlink:href="#DejaVuSans-30" x="95.410156"/>
      </g>
     </g>
    </g>
    <g id="ytick_2">
     <g id="line2d_11">
      <g>
       <use xlink:href="#mfe3a34f9d4" x="30.368437" y="195.416179" style="stroke: #000000; stroke-width: 0.8"/>
      </g>
     </g>
     <g id="text_12">
      <!-- 0.2 -->
      <g transform="translate(7.465312 199.215398) scale(0.1 -0.1)">
       <use xlink:href="#DejaVuSans-30"/>
       <use xlink:href="#DejaVuSans-2e" x="63.623047"/>
       <use xlink:href="#DejaVuSans-32" x="95.410156"/>
      </g>
     </g>
    </g>
    <g id="ytick_3">
     <g id="line2d_12">
      <g>
       <use xlink:href="#mfe3a34f9d4" x="30.368437" y="160.079565" style="stroke: #000000; stroke-width: 0.8"/>
      </g>
     </g>
     <g id="text_13">
      <!-- 0.4 -->
      <g transform="translate(7.465312 163.878783) scale(0.1 -0.1)">
       <defs>
        <path id="DejaVuSans-34" d="M 2419 4116 
L 825 1625 
L 2419 1625 
L 2419 4116 
z
M 2253 4666 
L 3047 4666 
L 3047 1625 
L 3713 1625 
L 3713 1100 
L 3047 1100 
L 3047 0 
L 2419 0 
L 2419 1100 
L 313 1100 
L 313 1709 
L 2253 4666 
z
" transform="scale(0.015625)"/>
       </defs>
       <use xlink:href="#DejaVuSans-30"/>
       <use xlink:href="#DejaVuSans-2e" x="63.623047"/>
       <use xlink:href="#DejaVuSans-34" x="95.410156"/>
      </g>
     </g>
    </g>
    <g id="ytick_4">
     <g id="line2d_13">
      <g>
       <use xlink:href="#mfe3a34f9d4" x="30.368437" y="124.74295" style="stroke: #000000; stroke-width: 0.8"/>
      </g>
     </g>
     <g id="text_14">
      <!-- 0.6 -->
      <g transform="translate(7.465312 128.542168) scale(0.1 -0.1)">
       <defs>
        <path id="DejaVuSans-36" d="M 2113 2584 
Q 1688 2584 1439 2293 
Q 1191 2003 1191 1497 
Q 1191 994 1439 701 
Q 1688 409 2113 409 
Q 2538 409 2786 701 
Q 3034 994 3034 1497 
Q 3034 2003 2786 2293 
Q 2538 2584 2113 2584 
z
M 3366 4563 
L 3366 3988 
Q 3128 4100 2886 4159 
Q 2644 4219 2406 4219 
Q 1781 4219 1451 3797 
Q 1122 3375 1075 2522 
Q 1259 2794 1537 2939 
Q 1816 3084 2150 3084 
Q 2853 3084 3261 2657 
Q 3669 2231 3669 1497 
Q 3669 778 3244 343 
Q 2819 -91 2113 -91 
Q 1303 -91 875 529 
Q 447 1150 447 2328 
Q 447 3434 972 4092 
Q 1497 4750 2381 4750 
Q 2619 4750 2861 4703 
Q 3103 4656 3366 4563 
z
" transform="scale(0.015625)"/>
       </defs>
       <use xlink:href="#DejaVuSans-30"/>
       <use xlink:href="#DejaVuSans-2e" x="63.623047"/>
       <use xlink:href="#DejaVuSans-36" x="95.410156"/>
      </g>
     </g>
    </g>
    <g id="ytick_5">
     <g id="line2d_14">
      <g>
       <use xlink:href="#mfe3a34f9d4" x="30.368437" y="89.406335" style="stroke: #000000; stroke-width: 0.8"/>
      </g>
     </g>
     <g id="text_15">
      <!-- 0.8 -->
      <g transform="translate(7.465312 93.205554) scale(0.1 -0.1)">
       <defs>
        <path id="DejaVuSans-38" d="M 2034 2216 
Q 1584 2216 1326 1975 
Q 1069 1734 1069 1313 
Q 1069 891 1326 650 
Q 1584 409 2034 409 
Q 2484 409 2743 651 
Q 3003 894 3003 1313 
Q 3003 1734 2745 1975 
Q 2488 2216 2034 2216 
z
M 1403 2484 
Q 997 2584 770 2862 
Q 544 3141 544 3541 
Q 544 4100 942 4425 
Q 1341 4750 2034 4750 
Q 2731 4750 3128 4425 
Q 3525 4100 3525 3541 
Q 3525 3141 3298 2862 
Q 3072 2584 2669 2484 
Q 3125 2378 3379 2068 
Q 3634 1759 3634 1313 
Q 3634 634 3220 271 
Q 2806 -91 2034 -91 
Q 1263 -91 848 271 
Q 434 634 434 1313 
Q 434 1759 690 2068 
Q 947 2378 1403 2484 
z
M 1172 3481 
Q 1172 3119 1398 2916 
Q 1625 2713 2034 2713 
Q 2441 2713 2670 2916 
Q 2900 3119 2900 3481 
Q 2900 3844 2670 4047 
Q 2441 4250 2034 4250 
Q 1625 4250 1398 4047 
Q 1172 3844 1172 3481 
z
" transform="scale(0.015625)"/>
       </defs>
       <use xlink:href="#DejaVuSans-30"/>
       <use xlink:href="#DejaVuSans-2e" x="63.623047"/>
       <use xlink:href="#DejaVuSans-38" x="95.410156"/>
      </g>
     </g>
    </g>
    <g id="ytick_6">
     <g id="line2d_15">
      <g>
       <use xlink:href="#mfe3a34f9d4" x="30.368437" y="54.06972" style="stroke: #000000; stroke-width: 0.8"/>
      </g>
     </g>
     <g id="text_16">
      <!-- 1.0 -->
      <g transform="translate(7.465312 57.868939) scale(0.1 -0.1)">
       <use xlink:href="#DejaVuSans-31"/>
       <use xlink:href="#DejaVuSans-2e" x="63.623047"/>
       <use xlink:href="#DejaVuSans-30" x="95.410156"/>
      </g>
     </g>
    </g>
   </g>
   <g id="line2d_16">
    <path d="M 30.535837 230.752794 
L 30.870637 235.089029 
L 31.038037 222.549806 
L 31.205437 227.495919 
L 31.372837 225.550414 
L 31.540237 236.506892 
L 31.707637 234.098678 
L 31.875037 238.755981 
L 32.042437 231.014384 
L 32.209837 233.823508 
L 32.377237 228.766525 
L 32.879437 243.556364 
L 33.046837 220.779303 
L 33.214237 227.760963 
L 33.381637 226.76642 
L 33.549037 237.154186 
L 33.716437 236.545013 
L 33.883837 229.454162 
L 34.051237 234.333894 
L 34.218637 223.157033 
L 34.386037 231.354665 
L 34.553437 232.992892 
L 34.720837 238.642106 
L 34.888237 228.993522 
L 35.055637 229.222576 
L 35.223037 222.468272 
L 35.390437 236.493098 
L 35.557837 239.75811 
L 35.725237 236.875552 
L 35.892637 220.201467 
L 36.060037 223.45323 
L 36.227437 232.607464 
L 36.394837 229.989335 
L 36.562237 233.943846 
L 36.897037 219.881417 
L 37.231837 232.1265 
L 37.399237 232.607262 
L 37.566637 224.475103 
L 37.734037 224.067114 
L 38.068837 225.233807 
L 38.236237 233.658137 
L 38.738437 218.886686 
L 38.905837 228.260314 
L 39.073237 222.578664 
L 39.408037 227.244357 
L 39.575437 222.18087 
L 39.742837 222.610234 
L 39.910237 217.68088 
L 40.077637 226.528755 
L 40.245037 227.740789 
L 40.412437 227.391635 
L 40.579837 217.603364 
L 40.747237 215.659806 
L 41.082037 227.914212 
L 41.249437 216.236403 
L 41.584237 213.702422 
L 41.919037 220.670546 
L 42.086437 227.542321 
L 42.421237 217.14243 
L 42.756037 217.853761 
L 42.923437 223.451342 
L 43.090837 214.918488 
L 43.258237 212.634294 
L 43.425637 217.860342 
L 43.593037 217.359754 
L 43.760437 225.037852 
L 43.927837 216.485108 
L 44.095237 215.522927 
L 44.262637 218.068635 
L 44.430037 210.315966 
L 44.597437 213.708998 
L 44.764837 209.456662 
L 44.932237 213.817444 
L 45.099637 214.668724 
L 45.267037 213.988548 
L 45.434437 215.387319 
L 45.601837 215.35773 
L 45.769237 204.998909 
L 46.271437 217.463951 
L 46.438837 213.411432 
L 46.606237 213.062817 
L 46.773637 209.794013 
L 46.941037 215.244724 
L 47.275837 205.237992 
L 47.443237 212.910736 
L 47.610637 204.489676 
L 47.778037 210.722472 
L 47.945437 207.30809 
L 48.112837 214.948307 
L 48.280237 208.050096 
L 48.447637 208.73848 
L 48.615037 202.49745 
L 48.782437 208.588228 
L 48.949837 209.325852 
L 49.117237 204.896657 
L 49.284637 211.079674 
L 49.452037 206.457793 
L 49.619437 205.802623 
L 49.786837 210.070396 
L 49.954237 219.956167 
L 50.289037 203.198493 
L 50.456437 206.113647 
L 50.623837 213.992921 
L 50.791237 210.821685 
L 50.958637 205.149794 
L 51.126037 204.241337 
L 51.293437 203.956445 
L 51.460837 200.580673 
L 51.628237 213.195085 
L 51.795637 203.75124 
L 52.130437 208.432636 
L 52.297837 205.84745 
L 52.465237 212.61981 
L 52.800037 196.035459 
L 53.134837 205.551586 
L 53.469637 198.716217 
L 53.637037 205.841024 
L 53.804437 205.51018 
L 53.971837 206.097182 
L 54.139237 201.188352 
L 54.306637 199.682111 
L 54.474037 196.948017 
L 54.808837 204.350115 
L 54.976237 205.211843 
L 55.143637 200.913905 
L 55.311037 201.733167 
L 55.478437 201.440283 
L 55.813237 195.394194 
L 55.980637 197.778743 
L 56.148037 201.972418 
L 56.315437 194.582225 
L 56.482837 200.741522 
L 56.817637 197.115383 
L 57.152437 199.560626 
L 57.319837 203.847075 
L 57.822037 190.167912 
L 57.989437 200.181499 
L 58.156837 195.271509 
L 58.324237 196.847622 
L 58.491637 193.938922 
L 58.659037 188.674867 
L 58.826437 189.464942 
L 58.993837 202.947352 
L 59.161237 204.521811 
L 59.496037 184.954564 
L 59.663437 195.369772 
L 59.830837 189.259856 
L 59.998237 201.228892 
L 60.165637 201.972932 
L 60.333037 192.009343 
L 60.500437 190.491684 
L 60.667837 192.227661 
L 60.835237 191.728745 
L 61.002637 191.762935 
L 61.170037 186.586225 
L 61.504837 196.845187 
L 61.672237 192.367138 
L 61.839637 191.462172 
L 62.007037 188.790993 
L 62.174437 192.170281 
L 62.341837 187.728102 
L 62.676637 191.967527 
L 62.844037 187.684404 
L 63.011437 187.206701 
L 63.178837 192.340819 
L 63.346237 188.975997 
L 63.513637 192.706817 
L 63.681037 192.045766 
L 64.015837 182.020961 
L 64.183237 190.479422 
L 64.518037 183.13618 
L 64.852837 182.399876 
L 65.020237 186.042533 
L 65.187637 177.9596 
L 65.355037 188.144736 
L 65.522437 184.730735 
L 65.857237 183.501998 
L 66.024637 181.399136 
L 66.192037 186.188809 
L 66.359437 176.73692 
L 66.526837 185.698224 
L 66.694237 177.323882 
L 66.861637 176.539095 
L 67.029037 178.57971 
L 67.196437 184.878529 
L 67.531237 176.897706 
L 67.698637 183.252323 
L 68.033437 173.526566 
L 68.200837 177.853093 
L 68.368237 175.481358 
L 68.535637 175.802342 
L 68.703037 179.816258 
L 68.870437 175.898732 
L 69.037837 180.756638 
L 69.372637 169.695608 
L 69.540037 174.919061 
L 69.707437 175.308396 
L 69.874837 170.42693 
L 70.042237 182.071963 
L 70.377037 169.687829 
L 70.544437 171.63442 
L 70.711837 167.019044 
L 70.879237 167.348496 
L 71.046637 175.879371 
L 71.214037 171.285007 
L 71.381437 174.024472 
L 71.716237 165.870587 
L 71.883637 170.198448 
L 72.051037 169.654622 
L 72.218437 174.104492 
L 72.553237 166.113065 
L 72.888037 170.316347 
L 73.055437 168.837814 
L 73.222837 168.52704 
L 73.390237 169.009338 
L 73.557637 174.213796 
L 73.725037 167.7267 
L 73.892437 165.929381 
L 74.059837 172.098144 
L 74.227237 168.573058 
L 74.394637 168.028954 
L 74.562037 159.846486 
L 74.729437 157.847425 
L 74.896837 170.077716 
L 75.064237 172.490684 
L 75.231637 171.634106 
L 75.399037 162.130094 
L 75.566437 161.778928 
L 75.733837 160.5612 
L 75.901237 168.402192 
L 76.068637 162.436989 
L 76.236037 166.273858 
L 76.403437 165.064632 
L 76.570837 168.891463 
L 76.738237 166.84434 
L 77.073037 159.782347 
L 77.240437 165.915981 
L 77.407837 164.010994 
L 77.575237 155.176364 
L 77.742637 159.169732 
L 77.910037 172.040706 
L 78.244837 165.881477 
L 78.579637 156.240705 
L 78.747037 162.254298 
L 78.914437 160.279485 
L 79.081837 156.089935 
L 79.249237 155.428246 
L 79.584037 161.047689 
L 79.751437 166.465696 
L 80.086237 151.546891 
L 80.253637 154.204788 
L 80.421037 159.097378 
L 80.588437 157.991493 
L 80.755837 153.279927 
L 80.923237 153.58079 
L 81.090637 161.074616 
L 81.258037 153.540534 
L 81.425437 153.362807 
L 81.592837 154.472158 
L 81.760237 152.624406 
L 81.927637 152.896001 
L 82.095037 156.80258 
L 82.262437 149.497341 
L 82.597237 164.413717 
L 82.764637 150.297558 
L 82.932037 148.279519 
L 83.099437 149.262569 
L 83.266837 154.568791 
L 83.434237 155.488915 
L 83.601637 152.017363 
L 83.769037 156.984104 
L 83.936437 150.205925 
L 84.103837 150.410425 
L 84.271237 154.476843 
L 84.438637 152.117202 
L 84.606037 147.154644 
L 84.773437 154.523153 
L 85.108237 149.330662 
L 85.275637 157.336268 
L 85.443037 152.531501 
L 85.610437 153.556525 
L 85.777837 151.530675 
L 85.945237 147.277467 
L 86.112637 147.569948 
L 86.280037 146.489199 
L 86.447437 147.11606 
L 86.782237 155.880336 
L 87.117037 143.220796 
L 87.284437 152.63142 
L 87.451837 152.68463 
L 87.619237 150.41484 
L 87.786637 152.001489 
L 87.954037 145.652571 
L 88.121437 146.533051 
L 88.288837 148.402097 
L 88.456237 144.311373 
L 88.623637 149.666046 
L 88.791037 147.441547 
L 88.958437 149.803018 
L 89.125837 147.522587 
L 89.293237 143.700913 
L 89.628037 150.238016 
L 89.795437 146.582593 
L 89.962837 149.03979 
L 90.130237 153.825766 
L 90.297637 146.760771 
L 90.465037 148.879288 
L 90.632437 142.344714 
L 90.967237 150.801221 
L 91.134637 148.57404 
L 91.302037 135.271197 
L 91.469437 146.275296 
L 91.804237 151.159264 
L 92.139037 138.511051 
L 92.306437 136.640778 
L 92.473837 142.316195 
L 92.641237 143.531956 
L 92.808637 137.189327 
L 92.976037 137.170015 
L 93.143437 146.654438 
L 93.310837 149.65072 
L 93.478237 143.399542 
L 93.645637 146.709831 
L 93.813037 146.320032 
L 93.980437 141.10893 
L 94.147837 142.008431 
L 94.315237 146.4822 
L 94.482637 142.589057 
L 94.650037 147.392281 
L 94.817437 135.938272 
L 95.319637 140.723545 
L 95.487037 138.35525 
L 95.654437 145.969326 
L 95.821837 139.674259 
L 95.989237 138.339032 
L 96.156637 144.014864 
L 96.324037 140.975677 
L 96.491437 140.194127 
L 96.658837 132.221623 
L 96.826237 136.538957 
L 96.993637 137.135589 
L 97.161037 140.326481 
L 97.328437 140.212348 
L 97.495837 135.54795 
L 97.663237 136.052684 
L 97.830637 137.389812 
L 97.998037 142.461295 
L 98.165437 134.858386 
L 98.332837 139.171469 
L 98.500237 137.93006 
L 98.667637 131.377851 
L 98.835037 136.9585 
L 99.002437 137.957382 
L 99.337237 142.723096 
L 99.504637 132.499421 
L 99.672037 131.067945 
L 100.006837 136.306887 
L 100.174237 128.052093 
L 100.341637 127.320849 
L 100.509037 137.905873 
L 100.843837 134.80177 
L 101.011237 135.727232 
L 101.178637 135.30221 
L 101.346037 127.535905 
L 101.513437 137.358291 
L 101.680837 130.262997 
L 101.848237 129.255201 
L 102.183037 126.154148 
L 102.517837 132.894321 
L 102.685237 125.104762 
L 103.020037 136.618754 
L 103.187437 127.50978 
L 103.522237 132.816737 
L 103.689637 127.177277 
L 103.857037 133.680272 
L 104.024437 127.004036 
L 104.191837 127.406984 
L 104.526637 133.269605 
L 104.694037 126.625169 
L 104.861437 128.54242 
L 105.028837 121.87054 
L 105.196237 127.46729 
L 105.363637 124.787613 
L 105.531037 125.312032 
L 105.698437 131.361012 
L 105.865837 131.671044 
L 106.033237 128.977087 
L 106.200637 128.404029 
L 106.368037 126.102248 
L 106.535437 131.067434 
L 106.702837 122.143743 
L 106.870237 122.13767 
L 107.037637 127.851173 
L 107.205037 122.140323 
L 107.539837 133.005251 
L 107.707237 120.296448 
L 107.874637 120.7234 
L 108.042037 131.596088 
L 108.376837 124.030752 
L 108.544237 123.671973 
L 108.711637 125.890317 
L 108.879037 129.908098 
L 109.213837 120.951973 
L 109.381237 125.840049 
L 109.548637 123.867097 
L 109.883437 113.835282 
L 110.218237 124.950169 
L 110.385637 119.312215 
L 110.553037 122.104497 
L 110.720437 119.840162 
L 110.887837 126.057064 
L 111.055237 121.295449 
L 111.222637 119.78909 
L 111.390037 121.082128 
L 111.557437 126.063448 
L 111.724837 113.594585 
L 112.059637 121.812251 
L 112.394437 114.005541 
L 112.561837 120.854521 
L 112.729237 117.977406 
L 112.896637 128.282481 
L 113.064037 113.865535 
L 113.231437 115.319059 
L 113.566237 122.723304 
L 113.733637 111.778396 
L 114.068437 120.582945 
L 114.403237 116.092633 
L 114.570637 122.357096 
L 114.738037 120.941098 
L 114.905437 121.674176 
L 115.240237 114.494729 
L 115.407637 114.639232 
L 115.575037 122.666637 
L 115.742437 106.514263 
L 115.909837 107.719969 
L 116.077237 116.362921 
L 116.244637 114.210592 
L 116.412037 114.230873 
L 116.579437 115.729856 
L 116.746837 108.089385 
L 116.914237 115.021935 
L 117.081637 114.314739 
L 117.249037 111.330011 
L 117.416437 113.722774 
L 117.583837 111.001083 
L 117.751237 113.447546 
L 117.918637 120.097877 
L 118.253437 105.279234 
L 118.420837 105.398315 
L 118.588237 114.218421 
L 118.923037 109.377428 
L 119.090437 111.577558 
L 119.425237 107.854496 
L 119.592637 112.532566 
L 119.760037 106.235047 
L 119.927437 106.939569 
L 120.094837 108.658356 
L 120.262237 104.96238 
L 120.429637 112.673025 
L 120.597037 110.499844 
L 120.764437 101.645802 
L 120.931838 108.552824 
L 121.099238 105.014879 
L 121.266637 111.570567 
L 121.434037 110.453413 
L 121.601437 101.398983 
L 121.768837 102.011856 
L 121.936237 111.942804 
L 122.103637 101.878097 
L 122.438437 105.304333 
L 122.605837 105.709162 
L 122.773237 104.339923 
L 122.940637 107.404069 
L 123.108037 104.898702 
L 123.275437 104.303381 
L 123.442837 105.998882 
L 123.610237 105.37082 
L 123.777637 105.376982 
L 123.945037 106.228722 
L 124.279837 103.157458 
L 124.447237 109.787671 
L 124.614638 98.769052 
L 124.949438 106.647692 
L 125.116838 103.092702 
L 125.284238 107.193195 
L 125.451638 106.12177 
L 125.619038 102.991783 
L 125.786438 103.705938 
L 126.121237 98.411129 
L 126.288637 105.486167 
L 126.456037 97.130258 
L 126.623437 98.263301 
L 126.790837 101.557951 
L 126.958237 99.30472 
L 127.125637 102.215028 
L 127.293037 102.478694 
L 127.460437 100.997544 
L 127.627837 103.294704 
L 127.962637 96.014615 
L 128.130037 100.484744 
L 128.297437 101.147701 
L 128.632237 94.236313 
L 128.799637 103.432464 
L 128.967037 96.475627 
L 129.301837 97.805578 
L 129.469237 95.79265 
L 129.636637 97.432919 
L 129.804037 100.714415 
L 129.971437 90.7605 
L 130.138837 101.702027 
L 130.306237 103.763462 
L 130.473637 95.625841 
L 130.641037 98.694479 
L 130.808437 94.75477 
L 130.975837 95.433613 
L 131.143237 98.027894 
L 131.310637 94.372165 
L 131.478037 98.754249 
L 131.645437 97.623838 
L 131.812837 89.03266 
L 132.147637 101.911422 
L 132.315037 92.694183 
L 132.482437 97.063435 
L 132.649837 97.292706 
L 132.817237 98.899369 
L 132.984637 96.562009 
L 133.152037 97.13083 
L 133.319437 96.081504 
L 133.486837 96.135053 
L 133.821637 99.832282 
L 134.156437 89.504507 
L 134.323837 90.392678 
L 134.491237 95.352796 
L 134.658637 96.469689 
L 134.826037 88.426858 
L 134.993437 92.855019 
L 135.160837 86.256158 
L 135.328237 97.066813 
L 135.663037 89.090734 
L 135.830437 90.325685 
L 135.997837 99.749211 
L 136.165237 94.400626 
L 136.332637 94.361574 
L 136.500037 92.461326 
L 136.667437 88.14271 
L 137.002237 100.725551 
L 137.337037 83.900641 
L 137.671837 93.710467 
L 137.839237 89.796348 
L 138.006637 81.924867 
L 138.174037 89.715468 
L 138.341437 89.745141 
L 138.508837 90.788248 
L 138.676237 85.983398 
L 138.843637 92.466351 
L 139.011037 90.064389 
L 139.178437 91.696011 
L 139.345837 94.961728 
L 139.513237 77.527419 
L 139.680637 85.997823 
L 140.015437 88.436599 
L 140.182837 87.370149 
L 140.350237 89.454394 
L 140.517637 81.395691 
L 140.685037 87.853313 
L 140.852437 78.90582 
L 141.019837 87.384176 
L 141.187237 82.664494 
L 141.354637 83.124514 
L 141.522037 86.936019 
L 141.689437 84.466985 
L 141.856837 79.315281 
L 142.024237 84.726154 
L 142.191637 85.732363 
L 142.359037 78.753042 
L 142.526437 90.45112 
L 142.861237 82.296363 
L 143.028638 81.727527 
L 143.196037 79.739393 
L 143.363437 84.482726 
L 143.530837 81.86648 
L 143.698237 82.949143 
L 143.865637 71.931113 
L 144.033037 86.385478 
L 144.200437 77.901092 
L 144.367837 76.940019 
L 144.702637 87.276173 
L 144.870037 77.530645 
L 145.037437 80.252352 
L 145.204837 79.609284 
L 145.372237 83.038626 
L 145.539637 83.862366 
L 145.707037 75.708397 
L 145.874437 84.748483 
L 146.041837 77.722854 
L 146.209238 81.596685 
L 146.544038 78.376714 
L 146.711437 81.879601 
L 146.878838 76.469247 
L 147.046237 76.166855 
L 147.213638 81.565082 
L 147.548438 73.251466 
L 147.715837 81.467482 
L 147.883238 83.994597 
L 148.218037 73.622061 
L 148.385437 85.808416 
L 148.552837 77.378025 
L 148.720237 75.975878 
L 149.222437 75.340955 
L 149.389837 81.766046 
L 149.557237 75.699998 
L 149.724637 75.836613 
L 150.059437 79.492278 
L 150.226837 84.104068 
L 150.394237 73.660014 
L 150.561637 73.131359 
L 150.729037 79.558541 
L 150.896437 74.092682 
L 151.063837 83.014887 
L 151.231237 67.048534 
L 151.566037 78.180178 
L 151.733437 67.372954 
L 151.900837 75.587271 
L 152.068237 74.232935 
L 152.235637 71.874348 
L 152.570437 77.678646 
L 152.737837 71.293587 
L 152.905237 81.751141 
L 153.072637 72.352244 
L 153.240037 78.775846 
L 153.574837 69.266348 
L 153.742237 71.420022 
L 153.909637 75.949074 
L 154.077037 77.114861 
L 154.244437 61.983354 
L 154.579237 75.110517 
L 154.746637 75.03218 
L 154.914037 70.533802 
L 155.081437 71.358742 
L 155.248837 75.108625 
L 155.416237 75.908781 
L 155.583637 65.944062 
L 155.751037 78.723041 
L 155.918437 74.913922 
L 156.085837 67.538945 
L 156.253237 71.231599 
L 156.420637 72.039153 
L 156.588037 71.28672 
L 156.922837 66.732031 
L 157.090237 77.186268 
L 157.425037 64.956882 
L 157.759837 74.535121 
L 157.927237 70.108414 
L 158.094637 71.908665 
L 158.262037 69.044138 
L 158.429437 70.381263 
L 158.931637 76.619471 
L 159.099037 66.011487 
L 159.266437 67.686856 
L 159.433837 72.843104 
L 159.768637 66.263365 
L 160.103437 71.228344 
L 160.270837 68.361866 
L 160.438237 69.3799 
L 160.605637 68.511687 
L 160.940437 72.836336 
L 161.107837 68.299382 
L 161.275237 67.347943 
L 161.442637 70.10673 
L 161.610037 70.413029 
L 161.777437 72.620048 
L 161.944837 68.047773 
L 162.112237 66.63252 
L 162.279637 72.629936 
L 162.447037 65.49701 
L 162.614437 65.814357 
L 162.781837 67.073788 
L 163.116637 71.451724 
L 163.284037 69.279299 
L 163.451437 65.289932 
L 163.786237 70.99764 
L 163.953637 69.184232 
L 164.121037 64.334516 
L 164.288437 64.66955 
L 164.455837 70.067568 
L 164.623237 66.411833 
L 164.790637 66.963684 
L 164.958037 68.063827 
L 165.125437 72.956383 
L 165.292837 63.322405 
L 165.460237 63.263323 
L 165.627637 70.090798 
L 165.795037 66.801338 
L 165.962437 70.064769 
L 166.129837 69.939609 
L 166.464637 64.327338 
L 166.632037 67.919293 
L 167.134237 63.71206 
L 167.469037 71.767288 
L 167.636437 64.507054 
L 167.803837 70.744654 
L 167.971237 68.913527 
L 168.138637 65.416333 
L 168.306037 68.719821 
L 168.473437 67.21604 
L 168.640837 63.16643 
L 168.975637 67.151544 
L 169.143037 71.812048 
L 169.310437 68.059648 
L 169.477837 60.905048 
L 169.812637 70.790303 
L 170.147437 63.906787 
L 170.649637 70.295306 
L 170.817037 67.045409 
L 171.151837 67.151826 
L 171.319237 61.737011 
L 171.486637 64.359888 
L 171.654037 70.216782 
L 171.821437 60.800983 
L 171.988837 64.676701 
L 172.156237 74.264217 
L 172.323637 60.039768 
L 172.491037 64.71215 
L 172.658437 58.46883 
L 172.993237 70.081652 
L 173.160637 55.918384 
L 173.495437 68.534486 
L 173.662837 69.24665 
L 173.830237 63.978035 
L 173.997637 66.676054 
L 174.165037 61.662387 
L 174.332437 68.995942 
L 174.499837 60.880004 
L 174.667237 61.954625 
L 174.834637 64.807603 
L 175.002037 64.181174 
L 175.169437 68.013777 
L 175.336837 64.863991 
L 175.504237 65.698065 
L 175.671637 61.666732 
L 175.839037 67.585395 
L 176.173837 59.951435 
L 176.341237 67.219282 
L 176.508637 58.944976 
L 176.676037 66.394858 
L 176.843437 61.407653 
L 177.010837 59.848608 
L 177.178237 65.081815 
L 177.345637 60.116378 
L 177.513037 67.441914 
L 177.680437 60.228668 
L 177.847837 61.48975 
L 178.015237 61.178951 
L 178.182637 73.222542 
L 178.350037 61.600554 
L 178.517437 69.449474 
L 178.684837 57.573335 
L 179.019637 69.371631 
L 179.187037 62.124167 
L 179.354437 63.770716 
L 179.521837 62.110841 
L 179.689237 67.521556 
L 180.024037 59.306783 
L 180.191437 61.742324 
L 180.358837 67.853447 
L 180.526237 58.836845 
L 180.861037 67.097146 
L 181.028437 55.424687 
L 181.195837 57.769034 
L 181.363237 68.351839 
L 181.530637 66.643929 
L 181.698037 58.241657 
L 181.865437 66.643539 
L 182.200237 58.16409 
L 182.367637 57.270555 
L 182.535037 63.121221 
L 182.702437 73.757705 
L 182.869837 56.947881 
L 183.037237 58.527594 
L 183.204637 70.655999 
L 183.372037 65.839486 
L 183.539437 54.499512 
L 183.706837 66.331854 
L 183.874237 65.76696 
L 184.209037 54.448669 
L 184.543837 73.730663 
L 184.711237 52.95873 
L 185.046037 65.761323 
L 185.380837 60.918841 
L 185.548237 67.309808 
L 185.715637 65.21154 
L 185.883037 56.12547 
L 186.050437 58.714291 
L 186.217837 67.780247 
L 186.552637 56.549385 
L 186.720037 62.262834 
L 186.887437 73.621009 
L 187.054837 60.140845 
L 187.222237 57.96603 
L 187.389637 68.854672 
L 187.557037 67.32707 
L 187.724437 60.642256 
L 187.891837 60.654081 
L 188.059237 66.677988 
L 188.226637 64.070644 
L 188.394037 58.256566 
L 188.728837 67.280514 
L 188.896237 55.153613 
L 189.231037 72.460772 
L 189.398438 54.162791 
L 189.565837 58.36485 
L 189.733238 59.148663 
L 189.900637 66.38616 
L 190.068037 62.840552 
L 190.235437 54.606769 
L 190.402837 67.575328 
L 190.737637 60.036491 
L 190.905037 63.419554 
L 191.072437 62.349473 
L 191.239837 55.726886 
L 191.574637 66.678061 
L 191.742037 63.954474 
L 191.909437 57.590179 
L 192.244237 67.784147 
L 192.411637 56.709026 
L 192.579037 57.893751 
L 192.746437 60.863235 
L 192.913837 68.924718 
L 193.081237 58.618519 
L 193.416037 63.647846 
L 193.583437 60.370119 
L 193.750837 66.094869 
L 193.918237 59.40765 
L 194.085637 63.390606 
L 194.253037 64.527986 
L 194.420437 61.523067 
L 194.587837 61.172361 
L 194.755237 62.515647 
L 194.922637 62.083021 
L 195.090037 60.079993 
L 195.257437 61.198524 
L 195.424837 61.425313 
L 195.592237 63.882518 
L 195.759637 60.758001 
L 195.927037 63.142475 
L 196.094437 56.158899 
L 196.261837 59.455258 
L 196.429237 65.61065 
L 196.764037 57.264881 
L 196.931437 65.207542 
L 197.098837 58.193441 
L 197.266237 58.61374 
L 197.433637 63.66987 
L 197.601037 58.058688 
L 197.768437 63.590954 
L 197.935837 57.115084 
L 198.103237 64.451446 
L 198.438037 56.280244 
L 198.772837 66.546737 
L 198.940237 56.941616 
L 199.107637 56.431936 
L 199.275037 69.44443 
L 199.442437 55.460316 
L 199.609837 57.98942 
L 199.777237 63.143541 
L 200.112037 59.028109 
L 200.279438 61.575805 
L 200.446837 59.669414 
L 200.614238 64.964485 
L 200.781637 56.400166 
L 201.116437 65.337276 
L 201.283838 57.820825 
L 201.451237 57.47608 
L 201.618638 64.107641 
L 201.786037 64.544115 
L 201.953437 62.408706 
L 202.120837 62.073753 
L 202.288237 62.442697 
L 202.455637 58.30696 
L 202.623037 59.11651 
L 202.790437 57.421324 
L 202.957837 65.453176 
L 203.125237 59.698146 
L 203.292637 58.444181 
L 203.627437 61.001594 
L 203.794837 56.92028 
L 204.129637 62.562809 
L 204.464437 58.561075 
L 204.799237 61.549072 
L 204.966637 57.76546 
L 205.301437 65.076745 
L 205.468837 57.167113 
L 205.636237 56.401926 
L 205.803637 65.670469 
L 205.971037 60.367581 
L 206.138437 60.159889 
L 206.305837 54.643933 
L 206.640637 63.000145 
L 206.808037 54.782684 
L 206.975437 64.303079 
L 207.142837 54.147715 
L 207.310237 60.133839 
L 207.477637 61.219676 
L 207.645037 63.405765 
L 207.979837 54.851967 
L 208.147237 58.793767 
L 208.314637 65.769402 
L 208.482037 66.14907 
L 208.649437 57.293802 
L 208.984237 64.106256 
L 209.319037 56.52142 
L 209.486437 63.967772 
L 209.653837 64.502807 
L 209.821237 58.128255 
L 209.988637 56.603124 
L 210.156037 58.296646 
L 210.323437 62.14511 
L 210.490837 54.526575 
L 210.825637 68.256553 
L 210.993037 45.883636 
L 211.327837 63.043777 
L 211.662637 55.685005 
L 211.997437 62.024828 
L 212.164837 60.376807 
L 212.332237 56.022338 
L 212.667037 59.921081 
L 212.834437 59.102681 
L 213.001837 62.56323 
L 213.169237 56.277162 
L 213.336637 56.262561 
L 213.504037 59.962222 
L 213.671437 56.400437 
L 213.838837 59.560912 
L 214.173637 61.539703 
L 214.341037 58.68967 
L 214.508437 61.572662 
L 214.675837 57.637632 
L 214.843237 57.093769 
L 215.010637 58.884168 
L 215.178037 58.639579 
L 215.345437 64.029342 
L 215.512837 57.291518 
L 215.680237 58.542221 
L 215.847637 62.176128 
L 216.015037 58.601261 
L 216.182437 62.309971 
L 216.349837 60.626995 
L 216.517237 54.728118 
L 216.852037 62.505021 
L 217.019437 57.752951 
L 217.186837 58.134608 
L 217.354237 54.758761 
L 217.689037 63.631045 
L 217.856437 56.439624 
L 218.191237 61.894163 
L 218.358637 53.342685 
L 218.526038 61.098619 
L 218.693437 50.780968 
L 218.860838 61.114032 
L 219.028237 58.354039 
L 219.195638 59.446455 
L 219.363037 62.622204 
L 219.530438 54.716166 
L 219.697837 59.096221 
L 219.865238 59.555141 
L 220.032637 58.227088 
L 220.200038 60.503358 
L 220.534838 52.14129 
L 220.702237 63.719204 
L 220.869638 65.797737 
L 221.037037 57.96043 
L 221.204438 56.600429 
L 221.371837 62.990137 
L 221.539237 63.247538 
L 221.706637 54.365234 
L 221.874037 57.802005 
L 222.041437 58.685633 
L 222.208837 65.477475 
L 222.376237 59.67934 
L 222.543637 58.895421 
L 222.711037 59.553389 
L 222.878437 56.520723 
L 223.045837 66.02829 
L 223.380637 55.154309 
L 223.548037 65.510959 
L 223.882837 52.380921 
L 224.050237 59.124786 
L 224.217637 60.556905 
L 224.385037 63.907375 
L 224.552437 54.717369 
L 224.719837 56.95651 
L 224.887237 65.764577 
L 225.054637 58.357317 
L 225.389437 60.853387 
L 225.556837 57.70993 
L 225.724237 58.524245 
L 225.891637 58.565023 
L 226.226437 55.345419 
L 226.393837 62.197807 
L 226.561237 62.321293 
L 226.728637 56.701105 
L 226.896037 59.682253 
L 227.063437 59.776861 
L 227.230837 60.420981 
L 227.398237 63.122313 
L 227.565637 53.648995 
L 227.733037 61.42344 
L 227.900437 59.72107 
L 228.067837 55.086587 
L 228.235237 60.810103 
L 228.402637 57.02616 
L 228.737437 60.802598 
L 228.904837 59.076589 
L 229.072237 61.55596 
L 229.239637 53.94544 
L 229.407037 64.506353 
L 229.574437 61.942923 
L 229.741837 54.07726 
L 229.909237 62.484327 
L 230.076637 58.415701 
L 230.244037 57.197506 
L 230.411437 62.592721 
L 230.578837 59.907049 
L 230.746237 60.315143 
L 230.913637 55.734047 
L 231.081037 62.614165 
L 231.248437 64.176813 
L 231.415837 55.47992 
L 231.583237 58.088262 
L 231.750637 63.990131 
L 232.085437 59.460974 
L 232.252837 63.409446 
L 232.587637 54.304624 
L 232.922437 66.194938 
L 233.089837 55.582982 
L 233.424637 63.415976 
L 233.592037 60.190113 
L 233.759437 61.34069 
L 233.926837 59.694102 
L 234.094237 60.911662 
L 234.261637 55.341461 
L 234.596437 65.407058 
L 234.763837 54.024197 
L 234.931237 57.256605 
L 235.098637 65.890415 
L 235.266037 59.920678 
L 235.600837 58.499042 
L 235.935637 65.509448 
L 236.103037 53.670953 
L 236.270437 61.136245 
L 236.437838 56.760485 
L 236.605237 55.805104 
L 236.772638 62.171745 
L 237.107438 59.975069 
L 237.274837 51.692877 
L 237.442238 64.993174 
L 237.609637 68.35052 
L 237.777038 56.019564 
L 237.944437 55.592504 
L 238.111838 57.314877 
L 238.279237 68.724557 
L 238.446638 54.124802 
L 238.614037 56.309957 
L 238.781437 65.586466 
L 238.948837 64.541235 
L 239.116237 58.719402 
L 239.283637 59.713284 
L 239.451037 60.014731 
L 239.618437 63.455169 
L 239.785837 57.509472 
L 239.953237 61.394577 
L 240.120637 61.905719 
L 240.288037 51.370876 
L 240.622837 65.969937 
L 240.790237 54.914424 
L 240.957637 59.860315 
L 241.125037 57.43537 
L 241.292437 62.719489 
L 241.459837 64.291149 
L 241.627237 55.642496 
L 241.794637 62.912741 
L 241.962037 62.25355 
L 242.129437 54.704038 
L 242.296837 60.935656 
L 242.464237 59.313078 
L 242.631637 59.472075 
L 242.799037 57.890283 
L 243.301237 62.227739 
L 243.468637 59.865394 
L 243.636037 53.929053 
L 243.970837 63.787509 
L 244.138238 57.198788 
L 244.305637 65.847156 
L 244.473038 57.371354 
L 244.640437 61.911112 
L 244.807837 59.903837 
L 244.975237 55.894241 
L 245.142637 65.463518 
L 245.477437 57.820549 
L 245.644837 63.663546 
L 245.812237 57.123306 
L 245.979637 60.032161 
L 246.147037 59.987958 
L 246.314437 59.317789 
L 246.481837 59.171764 
L 246.649237 55.08022 
L 246.816637 61.690904 
L 246.984037 62.114613 
L 247.151437 57.399662 
L 247.486237 63.536457 
L 247.653637 57.298188 
L 247.821037 62.390359 
L 247.988437 57.691092 
L 248.155837 60.738892 
L 248.323237 57.657766 
L 248.490637 62.19327 
L 248.658037 60.841631 
L 248.825437 58.150476 
L 248.992837 60.690817 
L 249.160237 59.732518 
L 249.327637 62.642544 
L 249.495037 56.91985 
L 249.829837 64.995626 
L 249.997237 53.426513 
L 250.164637 59.8398 
L 250.332037 57.392373 
L 250.499437 57.850684 
L 250.666837 61.821048 
L 250.834237 63.132085 
L 251.001637 61.625045 
L 251.336437 55.845654 
L 251.503837 67.776126 
L 251.838637 53.869461 
L 252.006037 65.016618 
L 252.173437 58.288159 
L 252.340837 56.500133 
L 252.508237 58.338027 
L 252.675637 56.957819 
L 252.843037 63.733343 
L 253.010437 62.099565 
L 253.177837 54.931798 
L 253.345237 63.172663 
L 253.512637 55.166155 
L 253.680037 60.896102 
L 253.847437 57.578481 
L 254.014837 56.755428 
L 254.349638 63.519775 
L 254.517037 53.798244 
L 254.684438 51.296854 
L 254.851837 67.297175 
L 255.186637 54.065748 
L 255.354038 55.085114 
L 255.521437 63.278281 
L 255.688838 53.724574 
L 255.856237 55.761899 
L 256.191037 65.708388 
L 256.358437 52.297701 
L 256.693238 68.497099 
L 256.860637 54.372711 
L 257.195437 63.082012 
L 257.530237 56.174339 
L 257.697637 57.521479 
L 257.865037 64.549615 
L 258.032438 62.779694 
L 258.199838 54.906035 
L 258.367237 62.922632 
L 258.702038 56.195487 
L 258.869438 60.941111 
L 259.204237 56.669012 
L 259.371638 60.145143 
L 259.539038 59.496477 
L 259.706437 65.216108 
L 259.873837 56.752218 
L 260.041238 55.67662 
L 260.376037 64.192943 
L 260.710838 53.464712 
L 260.878238 61.495635 
L 261.045637 60.429399 
L 261.213037 57.406876 
L 261.380438 59.587292 
L 261.547838 57.928446 
L 261.715238 62.149165 
L 261.882637 55.122876 
L 262.050038 64.453898 
L 262.217438 65.273801 
L 262.384838 58.207509 
L 262.552237 60.92691 
L 262.719638 52.174454 
L 263.054438 62.023581 
L 263.221837 58.131203 
L 263.389238 63.676493 
L 263.556638 58.171927 
L 263.724038 61.793586 
L 263.891437 59.687221 
L 264.058838 52.749123 
L 264.393638 67.734593 
L 264.561037 53.828123 
L 264.728438 55.01405 
L 264.895837 60.500217 
L 265.063238 58.012885 
L 265.230638 63.949689 
L 265.398038 57.27175 
L 265.732838 62.366136 
L 265.900238 57.595771 
L 266.067637 62.483971 
L 266.235037 57.900828 
L 266.402437 61.427775 
L 266.569838 52.430969 
L 266.737237 64.181907 
L 266.904637 59.971989 
L 267.072037 59.227731 
L 267.239438 61.422843 
L 267.406837 55.34733 
L 267.574237 66.712532 
L 267.741637 57.48267 
L 267.909038 56.706742 
L 268.243837 63.372859 
L 268.411237 55.224117 
L 268.578638 62.817986 
L 268.746037 59.437735 
L 268.913437 62.147906 
L 269.080837 67.311904 
L 269.248238 55.505667 
L 269.415638 62.112182 
L 269.583037 57.284481 
L 269.917838 64.875409 
L 270.085238 55.189222 
L 270.587438 64.571487 
L 270.922237 58.46738 
L 271.089637 64.319365 
L 271.257038 57.091511 
L 271.424438 57.07602 
L 271.591837 59.584407 
L 271.759237 64.871001 
L 271.926638 63.315824 
L 272.094037 56.151376 
L 272.596238 64.69591 
L 272.931038 59.065538 
L 273.098437 60.229957 
L 273.265838 58.283091 
L 273.433237 61.237444 
L 273.768037 56.751198 
L 274.102837 61.919441 
L 274.270238 55.998423 
L 274.437637 64.317664 
L 274.605037 59.650388 
L 274.772437 63.05424 
L 274.939838 63.76717 
L 275.107237 53.06225 
L 275.274637 62.230262 
L 275.442037 63.875267 
L 275.609438 57.448169 
L 275.944237 68.08998 
L 276.111637 55.240807 
L 276.279038 64.954898 
L 276.613837 57.973854 
L 276.781237 59.993537 
L 276.948638 55.28707 
L 277.116038 67.252014 
L 277.283437 56.815826 
L 277.450837 61.960855 
L 277.618238 56.797795 
L 277.785638 59.529082 
L 277.953037 56.364961 
L 278.287838 70.149498 
L 278.455238 53.617501 
L 278.622637 61.782292 
L 278.790037 61.111776 
L 278.957438 56.191074 
L 279.124838 63.246315 
L 279.292237 59.204255 
L 279.459637 60.843821 
L 279.627038 60.642509 
L 279.794438 60.729354 
L 279.961838 61.94251 
L 280.129237 52.62507 
L 280.296638 56.944358 
L 280.464038 66.085298 
L 280.798837 56.767065 
L 280.966238 64.717672 
L 281.133638 61.628473 
L 281.301038 61.423684 
L 281.635838 58.425826 
L 281.803237 63.584382 
L 281.970638 53.351248 
L 282.138037 66.173567 
L 282.305438 58.764911 
L 282.472837 56.922623 
L 282.807637 60.887118 
L 282.975037 64.849756 
L 283.142437 56.91758 
L 283.309838 60.953461 
L 283.477238 60.845967 
L 283.644637 66.612811 
L 283.812037 53.043796 
L 284.146838 64.107218 
L 284.314237 58.632721 
L 284.481637 62.275552 
L 284.649038 60.056895 
L 284.816438 59.951243 
L 284.983837 57.300598 
L 285.151237 66.367597 
L 285.318638 57.694629 
L 285.486038 65.361127 
L 285.653437 54.37929 
L 285.820837 57.785327 
L 285.988238 67.641852 
L 286.155638 56.674241 
L 286.323037 57.618496 
L 286.490437 66.576878 
L 286.992638 58.048918 
L 287.327438 67.133079 
L 287.494837 55.586397 
L 287.829637 63.780465 
L 287.997037 56.568591 
L 288.164437 57.840426 
L 288.331837 63.54569 
L 288.499237 59.020142 
L 288.666637 57.520347 
L 288.834037 66.120125 
L 289.001437 64.837792 
L 289.336237 56.648098 
L 289.671037 62.576244 
L 289.838437 55.85467 
L 290.005837 59.609056 
L 290.173237 66.238203 
L 290.508038 58.334316 
L 290.675437 64.223635 
L 290.842837 57.189904 
L 291.010237 62.09232 
L 291.177638 55.048928 
L 291.512437 65.158572 
L 291.679837 58.571068 
L 291.847238 57.821565 
L 292.014637 64.323432 
L 292.182037 59.01863 
L 292.349437 58.32634 
L 292.516838 65.824497 
L 292.684237 59.350155 
L 292.851637 62.409376 
L 293.019037 55.434454 
L 293.186438 60.488462 
L 293.521237 53.613296 
L 293.688637 68.524435 
L 294.023438 59.177667 
L 294.190837 57.711194 
L 294.525638 67.187417 
L 294.693037 54.444238 
L 294.860437 60.443894 
L 295.027837 58.705032 
L 295.195238 64.056674 
L 295.530037 57.83799 
L 295.697437 63.735933 
L 295.864837 57.921714 
L 296.032237 61.482387 
L 296.199637 61.612636 
L 296.367037 58.675963 
L 296.534437 60.728445 
L 296.701837 55.335216 
L 296.869237 59.747389 
L 297.036637 60.409196 
L 297.204037 57.863086 
L 297.371437 57.963923 
L 297.538837 66.642391 
L 297.706237 61.240084 
L 297.873637 59.789459 
L 298.041037 60.891719 
L 298.208438 60.833886 
L 298.375837 60.19987 
L 298.543237 52.928341 
L 298.710637 66.168798 
L 298.878038 58.107821 
L 299.045437 57.869056 
L 299.212837 64.107922 
L 299.380237 60.00657 
L 299.547638 60.304231 
L 299.715037 59.122011 
L 299.882437 63.969054 
L 300.049837 57.044426 
L 300.217238 58.386443 
L 300.384637 58.487694 
L 300.552037 59.198498 
L 300.719437 58.192502 
L 300.886838 58.073464 
L 301.054237 64.932812 
L 301.221637 62.819566 
L 301.389037 56.929074 
L 301.556438 62.062641 
L 301.723838 56.121985 
L 302.058637 62.132723 
L 302.226038 55.639339 
L 302.393438 56.127729 
L 302.560837 67.88644 
L 302.728237 55.110953 
L 303.063038 65.239982 
L 303.230437 62.62201 
L 303.397837 62.380428 
L 303.565238 53.822888 
L 303.732637 61.839046 
L 303.900037 61.981312 
L 304.067437 58.687094 
L 304.234838 61.734028 
L 304.402237 61.391445 
L 304.569637 55.998402 
L 304.737037 61.82266 
L 304.904438 61.499905 
L 305.071837 59.001783 
L 305.239238 61.882764 
L 305.406637 52.763357 
L 305.574037 61.129075 
L 305.741437 57.553081 
L 305.908838 60.450358 
L 306.076237 53.243147 
L 306.411037 66.427383 
L 306.578438 56.620667 
L 306.745837 64.214129 
L 306.913237 55.855782 
L 307.080637 61.905939 
L 307.248038 60.760749 
L 307.415437 57.530037 
L 307.582837 61.727886 
L 307.750237 53.932925 
L 307.917638 64.907286 
L 308.419837 59.623881 
L 308.587238 63.673007 
L 308.922037 54.901509 
L 309.256837 61.266083 
L 309.424238 62.250006 
L 309.591637 55.65323 
L 309.759037 63.813801 
L 310.093838 54.98417 
L 310.261237 62.896011 
L 310.596037 60.634242 
L 310.763438 56.107894 
L 310.930837 56.994817 
L 311.098237 65.37143 
L 311.265637 57.440639 
L 311.433038 58.288219 
L 311.600437 54.22752 
L 311.767837 63.363863 
L 311.935237 57.708331 
L 312.102638 63.470859 
L 312.270037 60.242614 
L 312.437437 51.059895 
L 312.604837 61.597964 
L 312.772238 60.739898 
L 312.939637 62.617791 
L 313.274437 53.804452 
L 313.441837 64.67423 
L 313.609237 66.833922 
L 313.776637 49.781583 
L 313.944037 60.901213 
L 314.278837 56.346387 
L 314.446237 63.998007 
L 314.613637 54.030549 
L 314.781037 61.668953 
L 315.115837 56.884385 
L 315.283237 60.688288 
L 315.618037 54.738062 
L 315.785438 64.994337 
L 315.952837 62.669626 
L 316.287637 56.051146 
L 316.622437 66.994615 
L 316.957237 53.880817 
L 317.124638 56.414142 
L 317.292037 63.105616 
L 317.459437 57.230655 
L 317.626837 57.402923 
L 317.794238 61.320928 
L 317.961637 56.41718 
L 318.296437 64.889812 
L 318.463838 55.863966 
L 318.631237 62.275662 
L 318.798637 57.276302 
L 318.966037 60.753051 
L 319.133438 61.60627 
L 319.300838 53.951775 
L 319.468237 62.398114 
L 319.635637 55.731283 
L 319.803038 55.30929 
L 319.970438 61.479319 
L 320.137837 59.249805 
L 320.305237 62.898911 
L 320.472638 52.355495 
L 320.640038 61.348112 
L 320.807437 59.64184 
L 320.974837 54.381284 
L 321.309637 62.457832 
L 321.477037 52.872192 
L 321.644437 60.309155 
L 321.811838 60.270703 
L 321.979237 61.488067 
L 322.146637 59.81255 
L 322.314037 60.736681 
L 322.481437 64.974348 
L 322.648837 53.236831 
L 322.816237 52.494991 
L 322.983637 65.379625 
L 323.151037 55.973396 
L 323.318437 54.723355 
L 323.485838 58.792643 
L 323.653237 66.021226 
L 323.820637 55.833565 
L 323.988037 54.421233 
L 324.155438 65.252072 
L 324.322837 55.954294 
L 324.490237 61.072658 
L 324.657637 57.856406 
L 324.825038 58.189158 
L 324.992437 61.954319 
L 325.159837 55.404996 
L 325.327237 60.475946 
L 325.494638 58.058443 
L 325.662037 57.943498 
L 325.829437 61.438239 
L 326.164238 54.713122 
L 326.331637 62.987245 
L 326.499037 55.612339 
L 326.666437 60.568328 
L 326.833838 61.435559 
L 327.001238 57.873631 
L 327.168637 59.744974 
L 327.336037 64.013927 
L 327.670838 57.97591 
L 327.838237 59.583077 
L 328.005637 58.947521 
L 328.173038 63.688008 
L 328.340438 53.837448 
L 328.842638 62.724336 
L 329.010038 57.364537 
L 329.177437 58.361407 
L 329.344837 57.403323 
L 329.512238 57.919333 
L 329.679638 66.026207 
L 329.847037 54.230689 
L 330.014437 61.935452 
L 330.349238 56.25478 
L 330.516637 65.237325 
L 330.851437 57.598851 
L 331.018837 64.97907 
L 331.186237 61.407161 
L 331.353637 60.35814 
L 331.521037 53.118106 
L 331.855837 65.573312 
L 332.023237 56.247197 
L 332.190637 56.045045 
L 332.358037 58.875808 
L 332.525437 58.339512 
L 332.692837 66.090343 
L 332.860237 57.24148 
L 333.027637 62.449413 
L 333.195037 57.154051 
L 333.529837 60.51049 
L 333.697237 56.93228 
L 334.032038 62.472998 
L 334.199437 57.965175 
L 334.366837 58.492343 
L 334.534237 58.427221 
L 334.701638 63.020371 
L 335.036437 56.64958 
L 335.203837 56.581496 
L 335.371238 57.923603 
L 335.538637 60.61034 
L 335.706037 58.666589 
L 335.873437 60.701048 
L 336.040838 55.221193 
L 336.375637 57.898292 
L 336.543037 64.851422 
L 336.710438 57.674625 
L 336.877837 62.138668 
L 337.045237 53.476218 
L 337.380038 64.139109 
L 337.547438 53.276803 
L 337.714837 62.826526 
L 337.882237 58.738 
L 338.049638 57.643425 
L 338.217038 60.92998 
L 338.384437 56.509855 
L 338.551837 62.461672 
L 338.719238 56.978746 
L 339.054037 60.829798 
L 339.221437 64.398203 
L 339.388838 51.798051 
L 339.556237 55.458355 
L 339.723637 66.639232 
L 340.058437 54.089372 
L 340.393237 61.459172 
L 340.728037 57.774344 
L 340.895437 56.426761 
L 341.062838 65.14345 
L 341.397637 55.816335 
L 341.565037 66.292502 
L 341.732438 53.174596 
L 342.067237 62.034809 
L 342.234637 63.053124 
L 342.402038 53.703665 
L 342.569437 57.249632 
L 342.736837 64.059639 
L 342.904237 61.903703 
L 343.071638 54.01381 
L 343.406437 66.073027 
L 343.573837 55.344013 
L 343.741238 55.982697 
L 343.908637 61.359877 
L 344.076037 54.297774 
L 344.243437 60.715518 
L 344.410838 58.13198 
L 344.578238 60.867433 
L 344.745637 56.281351 
L 344.913037 56.240286 
L 345.080438 63.147727 
L 345.247838 57.849483 
L 345.582637 59.225585 
L 345.750038 61.838768 
L 345.917438 54.897315 
L 346.084837 59.29114 
L 346.252237 58.998736 
L 346.419638 54.682272 
L 346.587038 59.870572 
L 346.754437 57.863177 
L 346.921837 58.961309 
L 347.089238 65.054949 
L 347.256638 58.689626 
L 347.424037 61.147865 
L 347.591437 58.499665 
L 347.758838 58.930505 
L 347.926237 60.027852 
L 348.093637 56.838815 
L 348.261037 56.328068 
L 348.428438 60.972739 
L 348.595837 61.228156 
L 348.930637 54.834177 
L 349.098038 57.195471 
L 349.265437 64.38117 
L 349.432838 54.603766 
L 349.600237 54.281121 
L 349.935037 62.224501 
L 350.102438 62.798011 
L 350.269837 57.107469 
L 350.437237 60.049887 
L 350.604637 58.117701 
L 350.772038 53.656735 
L 350.939437 57.231689 
L 351.106837 65.644094 
L 351.274237 51.566745 
L 351.609037 61.38887 
L 351.943837 55.940207 
L 352.111237 60.061494 
L 352.278638 60.54545 
L 352.613437 56.463872 
L 352.780837 61.432282 
L 352.948238 62.837039 
L 353.115637 52.474295 
L 353.283037 55.704529 
L 353.450437 65.147772 
L 353.617838 53.743855 
L 353.785237 66.311292 
L 353.952637 58.814968 
L 354.120037 56.499143 
L 354.287438 62.878782 
L 354.454837 54.895099 
L 354.622237 56.376483 
L 354.789637 63.468594 
L 354.957038 55.667974 
L 355.124437 56.854054 
L 355.291837 55.826055 
L 355.626638 62.752476 
L 355.794037 55.371861 
L 356.128837 58.673499 
L 356.296238 56.05126 
L 356.463637 62.251305 
L 356.631037 61.740965 
L 356.798437 53.369037 
L 357.133237 62.281635 
L 357.300637 56.336223 
L 357.468037 56.72826 
L 357.635437 55.236442 
L 357.802837 56.643059 
L 358.137637 63.360238 
L 358.305037 51.959283 
L 358.639837 59.21385 
L 358.807237 62.737389 
L 358.974637 60.661915 
L 359.142037 53.496687 
L 359.309438 64.752945 
L 359.476837 60.209045 
L 359.644237 51.009926 
L 359.811637 61.463381 
L 359.979038 54.856844 
L 360.146437 61.688782 
L 360.313837 57.746951 
L 360.481237 59.56042 
L 360.648638 63.048016 
L 360.816037 49.203494 
L 361.150837 64.365956 
L 361.318238 52.888558 
L 361.820437 64.456259 
L 361.987838 53.556125 
L 362.322637 63.317198 
L 362.490037 52.75024 
L 362.824838 62.029226 
L 363.159637 54.351133 
L 363.494438 64.0013 
L 363.661837 54.057574 
L 363.829237 54.808989 
L 363.996638 66.83973 
L 364.331437 53.176673 
L 364.666238 63.011297 
L 364.833638 53.209093 
L 365.001037 54.146179 
L 365.168437 62.892872 
L 365.168437 62.892872 
" clip-path="url(#pc589987bdd)" style="fill: none; stroke: #1f77b4; stroke-width: 1.5; stroke-linecap: square"/>
   </g>
   <g id="line2d_17">
    <path d="M 30.535837 230.752794 
L 31.205437 219.103021 
L 31.875037 211.293944 
L 32.544637 206.059363 
L 33.214237 202.550519 
L 33.883837 200.19847 
L 34.553437 198.621845 
L 35.223037 197.565001 
L 35.892637 196.856578 
L 36.729637 196.289825 
L 37.734037 195.895646 
L 39.073237 195.631618 
L 41.249437 195.474893 
L 46.104037 195.41941 
L 108.209437 195.416179 
L 365.168437 195.416179 
L 365.168437 195.416179 
" clip-path="url(#pc589987bdd)" style="fill: none; stroke: #ff7f0e; stroke-width: 1.5; stroke-linecap: square"/>
   </g>
   <g id="patch_3">
    <path d="M 30.368437 253.44 
L 30.368437 36 
" style="fill: none; stroke: #000000; stroke-width: 0.8; stroke-linejoin: miter; stroke-linecap: square"/>
   </g>
   <g id="patch_4">
    <path d="M 365.168437 253.44 
L 365.168437 36 
" style="fill: none; stroke: #000000; stroke-width: 0.8; stroke-linejoin: miter; stroke-linecap: square"/>
   </g>
   <g id="patch_5">
    <path d="M 30.368437 253.44 
L 365.168437 253.44 
" style="fill: none; stroke: #000000; stroke-width: 0.8; stroke-linejoin: miter; stroke-linecap: square"/>
   </g>
   <g id="patch_6">
    <path d="M 30.368437 36 
L 365.168437 36 
" style="fill: none; stroke: #000000; stroke-width: 0.8; stroke-linejoin: miter; stroke-linecap: square"/>
   </g>
   <g id="legend_1">
    <g id="patch_7">
     <path d="M 37.368437 77.078125 
L 87.068437 77.078125 
Q 89.068437 77.078125 89.068437 75.078125 
L 89.068437 43 
Q 89.068437 41 87.068437 41 
L 37.368437 41 
Q 35.368437 41 35.368437 43 
L 35.368437 75.078125 
Q 35.368437 77.078125 37.368437 77.078125 
z
" style="fill: #ffffff; opacity: 0.8; stroke: #cccccc; stroke-linejoin: miter"/>
    </g>
    <g id="line2d_18">
     <path d="M 39.368437 52.8 
L 49.368437 52.8 
L 59.368437 52.8 
" style="fill: none; stroke: #1f77b4; stroke-width: 1.5; stroke-linecap: square"/>
    </g>
    <g id="text_17">
     <!-- $\hat{y(t)}$ -->
     <g transform="translate(67.368437 56.3) scale(0.1 -0.1)">
      <defs>
       <path id="DejaVuSans-302" d="M -1831 5119 
L -1369 5119 
L -603 3944 
L -1038 3944 
L -1600 4709 
L -2163 3944 
L -2597 3944 
L -1831 5119 
z
M -1600 3584 
L -1600 3584 
z
" transform="scale(0.015625)"/>
       <path id="DejaVuSans-Oblique-79" d="M 1588 -325 
Q 1188 -997 936 -1164 
Q 684 -1331 294 -1331 
L -159 -1331 
L -63 -850 
L 269 -850 
Q 509 -850 678 -719 
Q 847 -588 1056 -206 
L 1234 128 
L 459 3500 
L 1069 3500 
L 1650 819 
L 3256 3500 
L 3859 3500 
L 1588 -325 
z
" transform="scale(0.015625)"/>
       <path id="DejaVuSans-28" d="M 1984 4856 
Q 1566 4138 1362 3434 
Q 1159 2731 1159 2009 
Q 1159 1288 1364 580 
Q 1569 -128 1984 -844 
L 1484 -844 
Q 1016 -109 783 600 
Q 550 1309 550 2009 
Q 550 2706 781 3412 
Q 1013 4119 1484 4856 
L 1984 4856 
z
" transform="scale(0.015625)"/>
       <path id="DejaVuSans-29" d="M 513 4856 
L 1013 4856 
Q 1481 4119 1714 3412 
Q 1947 2706 1947 2009 
Q 1947 1309 1714 600 
Q 1481 -109 1013 -844 
L 513 -844 
Q 928 -128 1133 580 
Q 1338 1288 1338 2009 
Q 1338 2731 1133 3434 
Q 928 4138 513 4856 
z
" transform="scale(0.015625)"/>
      </defs>
      <use xlink:href="#DejaVuSans-302" transform="translate(135.682129 33.015625)"/>
      <use xlink:href="#DejaVuSans-Oblique-79" transform="translate(0 0.640625)"/>
      <use xlink:href="#DejaVuSans-28" transform="translate(59.179688 0.640625)"/>
      <use xlink:href="#DejaVuSans-Oblique-74" transform="translate(98.193359 0.640625)"/>
      <use xlink:href="#DejaVuSans-29" transform="translate(137.402344 0.640625)"/>
     </g>
    </g>
    <g id="line2d_19">
     <path d="M 39.368437 67.498437 
L 49.368437 67.498437 
L 59.368437 67.498437 
" style="fill: none; stroke: #ff7f0e; stroke-width: 1.5; stroke-linecap: square"/>
    </g>
    <g id="text_18">
     <!-- $x(t)$ -->
     <g transform="translate(67.368437 70.998437) scale(0.1 -0.1)">
      <defs>
       <path id="DejaVuSans-Oblique-78" d="M 3841 3500 
L 2234 1784 
L 3219 0 
L 2559 0 
L 1819 1388 
L 531 0 
L -166 0 
L 1556 1844 
L 641 3500 
L 1300 3500 
L 1972 2234 
L 3144 3500 
L 3841 3500 
z
" transform="scale(0.015625)"/>
      </defs>
      <use xlink:href="#DejaVuSans-Oblique-78" transform="translate(0 0.125)"/>
      <use xlink:href="#DejaVuSans-28" transform="translate(59.179688 0.125)"/>
      <use xlink:href="#DejaVuSans-Oblique-74" transform="translate(98.193359 0.125)"/>
      <use xlink:href="#DejaVuSans-29" transform="translate(137.402344 0.125)"/>
     </g>
    </g>
   </g>
  </g>
  <g id="text_19">
   <!-- Accumulate to Threshold model with input of 0.2 with rms=5  -->
   <g transform="translate(7.2 16.318125) scale(0.12 -0.12)">
    <defs>
     <path id="DejaVuSans-41" d="M 2188 4044 
L 1331 1722 
L 3047 1722 
L 2188 4044 
z
M 1831 4666 
L 2547 4666 
L 4325 0 
L 3669 0 
L 3244 1197 
L 1141 1197 
L 716 0 
L 50 0 
L 1831 4666 
z
" transform="scale(0.015625)"/>
     <path id="DejaVuSans-63" d="M 3122 3366 
L 3122 2828 
Q 2878 2963 2633 3030 
Q 2388 3097 2138 3097 
Q 1578 3097 1268 2742 
Q 959 2388 959 1747 
Q 959 1106 1268 751 
Q 1578 397 2138 397 
Q 2388 397 2633 464 
Q 2878 531 3122 666 
L 3122 134 
Q 2881 22 2623 -34 
Q 2366 -91 2075 -91 
Q 1284 -91 818 406 
Q 353 903 353 1747 
Q 353 2603 823 3093 
Q 1294 3584 2113 3584 
Q 2378 3584 2631 3529 
Q 2884 3475 3122 3366 
z
" transform="scale(0.015625)"/>
     <path id="DejaVuSans-75" d="M 544 1381 
L 544 3500 
L 1119 3500 
L 1119 1403 
Q 1119 906 1312 657 
Q 1506 409 1894 409 
Q 2359 409 2629 706 
Q 2900 1003 2900 1516 
L 2900 3500 
L 3475 3500 
L 3475 0 
L 2900 0 
L 2900 538 
Q 2691 219 2414 64 
Q 2138 -91 1772 -91 
Q 1169 -91 856 284 
Q 544 659 544 1381 
z
M 1991 3584 
L 1991 3584 
z
" transform="scale(0.015625)"/>
     <path id="DejaVuSans-6d" d="M 3328 2828 
Q 3544 3216 3844 3400 
Q 4144 3584 4550 3584 
Q 5097 3584 5394 3201 
Q 5691 2819 5691 2113 
L 5691 0 
L 5113 0 
L 5113 2094 
Q 5113 2597 4934 2840 
Q 4756 3084 4391 3084 
Q 3944 3084 3684 2787 
Q 3425 2491 3425 1978 
L 3425 0 
L 2847 0 
L 2847 2094 
Q 2847 2600 2669 2842 
Q 2491 3084 2119 3084 
Q 1678 3084 1418 2786 
Q 1159 2488 1159 1978 
L 1159 0 
L 581 0 
L 581 3500 
L 1159 3500 
L 1159 2956 
Q 1356 3278 1631 3431 
Q 1906 3584 2284 3584 
Q 2666 3584 2933 3390 
Q 3200 3197 3328 2828 
z
" transform="scale(0.015625)"/>
     <path id="DejaVuSans-6c" d="M 603 4863 
L 1178 4863 
L 1178 0 
L 603 0 
L 603 4863 
z
" transform="scale(0.015625)"/>
     <path id="DejaVuSans-61" d="M 2194 1759 
Q 1497 1759 1228 1600 
Q 959 1441 959 1056 
Q 959 750 1161 570 
Q 1363 391 1709 391 
Q 2188 391 2477 730 
Q 2766 1069 2766 1631 
L 2766 1759 
L 2194 1759 
z
M 3341 1997 
L 3341 0 
L 2766 0 
L 2766 531 
Q 2569 213 2275 61 
Q 1981 -91 1556 -91 
Q 1019 -91 701 211 
Q 384 513 384 1019 
Q 384 1609 779 1909 
Q 1175 2209 1959 2209 
L 2766 2209 
L 2766 2266 
Q 2766 2663 2505 2880 
Q 2244 3097 1772 3097 
Q 1472 3097 1187 3025 
Q 903 2953 641 2809 
L 641 3341 
Q 956 3463 1253 3523 
Q 1550 3584 1831 3584 
Q 2591 3584 2966 3190 
Q 3341 2797 3341 1997 
z
" transform="scale(0.015625)"/>
     <path id="DejaVuSans-74" d="M 1172 4494 
L 1172 3500 
L 2356 3500 
L 2356 3053 
L 1172 3053 
L 1172 1153 
Q 1172 725 1289 603 
Q 1406 481 1766 481 
L 2356 481 
L 2356 0 
L 1766 0 
Q 1100 0 847 248 
Q 594 497 594 1153 
L 594 3053 
L 172 3053 
L 172 3500 
L 594 3500 
L 594 4494 
L 1172 4494 
z
" transform="scale(0.015625)"/>
     <path id="DejaVuSans-65" d="M 3597 1894 
L 3597 1613 
L 953 1613 
Q 991 1019 1311 708 
Q 1631 397 2203 397 
Q 2534 397 2845 478 
Q 3156 559 3463 722 
L 3463 178 
Q 3153 47 2828 -22 
Q 2503 -91 2169 -91 
Q 1331 -91 842 396 
Q 353 884 353 1716 
Q 353 2575 817 3079 
Q 1281 3584 2069 3584 
Q 2775 3584 3186 3129 
Q 3597 2675 3597 1894 
z
M 3022 2063 
Q 3016 2534 2758 2815 
Q 2500 3097 2075 3097 
Q 1594 3097 1305 2825 
Q 1016 2553 972 2059 
L 3022 2063 
z
" transform="scale(0.015625)"/>
     <path id="DejaVuSans-20" transform="scale(0.015625)"/>
     <path id="DejaVuSans-6f" d="M 1959 3097 
Q 1497 3097 1228 2736 
Q 959 2375 959 1747 
Q 959 1119 1226 758 
Q 1494 397 1959 397 
Q 2419 397 2687 759 
Q 2956 1122 2956 1747 
Q 2956 2369 2687 2733 
Q 2419 3097 1959 3097 
z
M 1959 3584 
Q 2709 3584 3137 3096 
Q 3566 2609 3566 1747 
Q 3566 888 3137 398 
Q 2709 -91 1959 -91 
Q 1206 -91 779 398 
Q 353 888 353 1747 
Q 353 2609 779 3096 
Q 1206 3584 1959 3584 
z
" transform="scale(0.015625)"/>
     <path id="DejaVuSans-54" d="M -19 4666 
L 3928 4666 
L 3928 4134 
L 2272 4134 
L 2272 0 
L 1638 0 
L 1638 4134 
L -19 4134 
L -19 4666 
z
" transform="scale(0.015625)"/>
     <path id="DejaVuSans-68" d="M 3513 2113 
L 3513 0 
L 2938 0 
L 2938 2094 
Q 2938 2591 2744 2837 
Q 2550 3084 2163 3084 
Q 1697 3084 1428 2787 
Q 1159 2491 1159 1978 
L 1159 0 
L 581 0 
L 581 4863 
L 1159 4863 
L 1159 2956 
Q 1366 3272 1645 3428 
Q 1925 3584 2291 3584 
Q 2894 3584 3203 3211 
Q 3513 2838 3513 2113 
z
" transform="scale(0.015625)"/>
     <path id="DejaVuSans-72" d="M 2631 2963 
Q 2534 3019 2420 3045 
Q 2306 3072 2169 3072 
Q 1681 3072 1420 2755 
Q 1159 2438 1159 1844 
L 1159 0 
L 581 0 
L 581 3500 
L 1159 3500 
L 1159 2956 
Q 1341 3275 1631 3429 
Q 1922 3584 2338 3584 
Q 2397 3584 2469 3576 
Q 2541 3569 2628 3553 
L 2631 2963 
z
" transform="scale(0.015625)"/>
     <path id="DejaVuSans-73" d="M 2834 3397 
L 2834 2853 
Q 2591 2978 2328 3040 
Q 2066 3103 1784 3103 
Q 1356 3103 1142 2972 
Q 928 2841 928 2578 
Q 928 2378 1081 2264 
Q 1234 2150 1697 2047 
L 1894 2003 
Q 2506 1872 2764 1633 
Q 3022 1394 3022 966 
Q 3022 478 2636 193 
Q 2250 -91 1575 -91 
Q 1294 -91 989 -36 
Q 684 19 347 128 
L 347 722 
Q 666 556 975 473 
Q 1284 391 1588 391 
Q 1994 391 2212 530 
Q 2431 669 2431 922 
Q 2431 1156 2273 1281 
Q 2116 1406 1581 1522 
L 1381 1569 
Q 847 1681 609 1914 
Q 372 2147 372 2553 
Q 372 3047 722 3315 
Q 1072 3584 1716 3584 
Q 2034 3584 2315 3537 
Q 2597 3491 2834 3397 
z
" transform="scale(0.015625)"/>
     <path id="DejaVuSans-64" d="M 2906 2969 
L 2906 4863 
L 3481 4863 
L 3481 0 
L 2906 0 
L 2906 525 
Q 2725 213 2448 61 
Q 2172 -91 1784 -91 
Q 1150 -91 751 415 
Q 353 922 353 1747 
Q 353 2572 751 3078 
Q 1150 3584 1784 3584 
Q 2172 3584 2448 3432 
Q 2725 3281 2906 2969 
z
M 947 1747 
Q 947 1113 1208 752 
Q 1469 391 1925 391 
Q 2381 391 2643 752 
Q 2906 1113 2906 1747 
Q 2906 2381 2643 2742 
Q 2381 3103 1925 3103 
Q 1469 3103 1208 2742 
Q 947 2381 947 1747 
z
" transform="scale(0.015625)"/>
     <path id="DejaVuSans-77" d="M 269 3500 
L 844 3500 
L 1563 769 
L 2278 3500 
L 2956 3500 
L 3675 769 
L 4391 3500 
L 4966 3500 
L 4050 0 
L 3372 0 
L 2619 2869 
L 1863 0 
L 1184 0 
L 269 3500 
z
" transform="scale(0.015625)"/>
     <path id="DejaVuSans-69" d="M 603 3500 
L 1178 3500 
L 1178 0 
L 603 0 
L 603 3500 
z
M 603 4863 
L 1178 4863 
L 1178 4134 
L 603 4134 
L 603 4863 
z
" transform="scale(0.015625)"/>
     <path id="DejaVuSans-6e" d="M 3513 2113 
L 3513 0 
L 2938 0 
L 2938 2094 
Q 2938 2591 2744 2837 
Q 2550 3084 2163 3084 
Q 1697 3084 1428 2787 
Q 1159 2491 1159 1978 
L 1159 0 
L 581 0 
L 581 3500 
L 1159 3500 
L 1159 2956 
Q 1366 3272 1645 3428 
Q 1925 3584 2291 3584 
Q 2894 3584 3203 3211 
Q 3513 2838 3513 2113 
z
" transform="scale(0.015625)"/>
     <path id="DejaVuSans-70" d="M 1159 525 
L 1159 -1331 
L 581 -1331 
L 581 3500 
L 1159 3500 
L 1159 2969 
Q 1341 3281 1617 3432 
Q 1894 3584 2278 3584 
Q 2916 3584 3314 3078 
Q 3713 2572 3713 1747 
Q 3713 922 3314 415 
Q 2916 -91 2278 -91 
Q 1894 -91 1617 61 
Q 1341 213 1159 525 
z
M 3116 1747 
Q 3116 2381 2855 2742 
Q 2594 3103 2138 3103 
Q 1681 3103 1420 2742 
Q 1159 2381 1159 1747 
Q 1159 1113 1420 752 
Q 1681 391 2138 391 
Q 2594 391 2855 752 
Q 3116 1113 3116 1747 
z
" transform="scale(0.015625)"/>
     <path id="DejaVuSans-66" d="M 2375 4863 
L 2375 4384 
L 1825 4384 
Q 1516 4384 1395 4259 
Q 1275 4134 1275 3809 
L 1275 3500 
L 2222 3500 
L 2222 3053 
L 1275 3053 
L 1275 0 
L 697 0 
L 697 3053 
L 147 3053 
L 147 3500 
L 697 3500 
L 697 3744 
Q 697 4328 969 4595 
Q 1241 4863 1831 4863 
L 2375 4863 
z
" transform="scale(0.015625)"/>
     <path id="DejaVuSans-3d" d="M 678 2906 
L 4684 2906 
L 4684 2381 
L 678 2381 
L 678 2906 
z
M 678 1631 
L 4684 1631 
L 4684 1100 
L 678 1100 
L 678 1631 
z
" transform="scale(0.015625)"/>
    </defs>
    <use xlink:href="#DejaVuSans-41"/>
    <use xlink:href="#DejaVuSans-63" x="66.658203"/>
    <use xlink:href="#DejaVuSans-63" x="121.638672"/>
    <use xlink:href="#DejaVuSans-75" x="176.619141"/>
    <use xlink:href="#DejaVuSans-6d" x="239.998047"/>
    <use xlink:href="#DejaVuSans-75" x="337.410156"/>
    <use xlink:href="#DejaVuSans-6c" x="400.789062"/>
    <use xlink:href="#DejaVuSans-61" x="428.572266"/>
    <use xlink:href="#DejaVuSans-74" x="489.851562"/>
    <use xlink:href="#DejaVuSans-65" x="529.060547"/>
    <use xlink:href="#DejaVuSans-20" x="590.583984"/>
    <use xlink:href="#DejaVuSans-74" x="622.371094"/>
    <use xlink:href="#DejaVuSans-6f" x="661.580078"/>
    <use xlink:href="#DejaVuSans-20" x="722.761719"/>
    <use xlink:href="#DejaVuSans-54" x="754.548828"/>
    <use xlink:href="#DejaVuSans-68" x="815.632812"/>
    <use xlink:href="#DejaVuSans-72" x="879.011719"/>
    <use xlink:href="#DejaVuSans-65" x="917.875"/>
    <use xlink:href="#DejaVuSans-73" x="979.398438"/>
    <use xlink:href="#DejaVuSans-68" x="1031.498047"/>
    <use xlink:href="#DejaVuSans-6f" x="1094.876953"/>
    <use xlink:href="#DejaVuSans-6c" x="1156.058594"/>
    <use xlink:href="#DejaVuSans-64" x="1183.841797"/>
    <use xlink:href="#DejaVuSans-20" x="1247.318359"/>
    <use xlink:href="#DejaVuSans-6d" x="1279.105469"/>
    <use xlink:href="#DejaVuSans-6f" x="1376.517578"/>
    <use xlink:href="#DejaVuSans-64" x="1437.699219"/>
    <use xlink:href="#DejaVuSans-65" x="1501.175781"/>
    <use xlink:href="#DejaVuSans-6c" x="1562.699219"/>
    <use xlink:href="#DejaVuSans-20" x="1590.482422"/>
    <use xlink:href="#DejaVuSans-77" x="1622.269531"/>
    <use xlink:href="#DejaVuSans-69" x="1704.056641"/>
    <use xlink:href="#DejaVuSans-74" x="1731.839844"/>
    <use xlink:href="#DejaVuSans-68" x="1771.048828"/>
    <use xlink:href="#DejaVuSans-20" x="1834.427734"/>
    <use xlink:href="#DejaVuSans-69" x="1866.214844"/>
    <use xlink:href="#DejaVuSans-6e" x="1893.998047"/>
    <use xlink:href="#DejaVuSans-70" x="1957.376953"/>
    <use xlink:href="#DejaVuSans-75" x="2020.853516"/>
    <use xlink:href="#DejaVuSans-74" x="2084.232422"/>
    <use xlink:href="#DejaVuSans-20" x="2123.441406"/>
    <use xlink:href="#DejaVuSans-6f" x="2155.228516"/>
    <use xlink:href="#DejaVuSans-66" x="2216.410156"/>
    <use xlink:href="#DejaVuSans-20" x="2251.615234"/>
    <use xlink:href="#DejaVuSans-30" x="2283.402344"/>
    <use xlink:href="#DejaVuSans-2e" x="2347.025391"/>
    <use xlink:href="#DejaVuSans-32" x="2378.8125"/>
    <use xlink:href="#DejaVuSans-20" x="2442.435547"/>
    <use xlink:href="#DejaVuSans-77" x="2474.222656"/>
    <use xlink:href="#DejaVuSans-69" x="2556.009766"/>
    <use xlink:href="#DejaVuSans-74" x="2583.792969"/>
    <use xlink:href="#DejaVuSans-68" x="2623.001953"/>
    <use xlink:href="#DejaVuSans-20" x="2686.380859"/>
    <use xlink:href="#DejaVuSans-72" x="2718.167969"/>
    <use xlink:href="#DejaVuSans-6d" x="2757.53125"/>
    <use xlink:href="#DejaVuSans-73" x="2854.943359"/>
    <use xlink:href="#DejaVuSans-3d" x="2907.042969"/>
    <use xlink:href="#DejaVuSans-35" x="2990.832031"/>
    <use xlink:href="#DejaVuSans-20" x="3054.455078"/>
   </g>
  </g>
 </g>
 <defs>
  <clipPath id="pc589987bdd">
   <rect x="30.368437" y="36" width="334.8" height="217.44"/>
  </clipPath>
 </defs>
</svg>
