<?xml version="1.0" encoding="utf-8" standalone="no"?>
<!DOCTYPE svg PUBLIC "-//W3C//DTD SVG 1.1//EN"
  "http://www.w3.org/Graphics/SVG/1.1/DTD/svg11.dtd">
<svg xmlns:xlink="http://www.w3.org/1999/xlink" width="395.015937pt" height="290.99625pt" viewBox="0 0 395.015937 290.99625" xmlns="http://www.w3.org/2000/svg" version="1.1">
 <metadata>
  <rdf:RDF xmlns:dc="http://purl.org/dc/elements/1.1/" xmlns:cc="http://creativecommons.org/ns#" xmlns:rdf="http://www.w3.org/1999/02/22-rdf-syntax-ns#">
   <cc:Work>
    <dc:type rdf:resource="http://purl.org/dc/dcmitype/StillImage"/>
    <dc:date>2022-12-01T16:27:16.850478</dc:date>
    <dc:format>image/svg+xml</dc:format>
    <dc:creator>
     <cc:Agent>
      <dc:title>Matplotlib v3.6.0, https://matplotlib.org/</dc:title>
     </cc:Agent>
    </dc:creator>
   </cc:Work>
  </rdf:RDF>
 </metadata>
 <defs>
  <style type="text/css">*{stroke-linejoin: round; stroke-linecap: butt}</style>
 </defs>
 <g id="figure_1">
  <g id="patch_1">
   <path d="M -0 290.99625 
L 395.015937 290.99625 
L 395.015937 0 
L -0 0 
L -0 290.99625 
z
" style="fill: none"/>
  </g>
  <g id="axes_1">
   <g id="patch_2">
    <path d="M 38.482813 253.44 
L 373.282813 253.44 
L 373.282813 36 
L 38.482813 36 
z
" style="fill: #ffffff"/>
   </g>
   <g id="matplotlib.axis_1">
    <g id="xtick_1">
     <g id="line2d_1">
      <defs>
       <path id="ma8d1e39f4e" d="M 0 0 
L 0 3.5 
" style="stroke: #000000; stroke-width: 0.8"/>
      </defs>
      <g>
       <use xlink:href="#ma8d1e39f4e" x="38.482813" y="253.44" style="stroke: #000000; stroke-width: 0.8"/>
      </g>
     </g>
     <g id="text_1">
      <!-- 0.00 -->
      <g transform="translate(27.35 268.038437) scale(0.1 -0.1)">
       <defs>
        <path id="DejaVuSans-30" d="M 2034 4250 
Q 1547 4250 1301 3770 
Q 1056 3291 1056 2328 
Q 1056 1369 1301 889 
Q 1547 409 2034 409 
Q 2525 409 2770 889 
Q 3016 1369 3016 2328 
Q 3016 3291 2770 3770 
Q 2525 4250 2034 4250 
z
M 2034 4750 
Q 2819 4750 3233 4129 
Q 3647 3509 3647 2328 
Q 3647 1150 3233 529 
Q 2819 -91 2034 -91 
Q 1250 -91 836 529 
Q 422 1150 422 2328 
Q 422 3509 836 4129 
Q 1250 4750 2034 4750 
z
" transform="scale(0.015625)"/>
        <path id="DejaVuSans-2e" d="M 684 794 
L 1344 794 
L 1344 0 
L 684 0 
L 684 794 
z
" transform="scale(0.015625)"/>
       </defs>
       <use xlink:href="#DejaVuSans-30"/>
       <use xlink:href="#DejaVuSans-2e" x="63.623047"/>
       <use xlink:href="#DejaVuSans-30" x="95.410156"/>
       <use xlink:href="#DejaVuSans-30" x="159.033203"/>
      </g>
     </g>
    </g>
    <g id="xtick_2">
     <g id="line2d_2">
      <g>
       <use xlink:href="#ma8d1e39f4e" x="80.332813" y="253.44" style="stroke: #000000; stroke-width: 0.8"/>
      </g>
     </g>
     <g id="text_2">
      <!-- 0.25 -->
      <g transform="translate(69.2 268.038437) scale(0.1 -0.1)">
       <defs>
        <path id="DejaVuSans-32" d="M 1228 531 
L 3431 531 
L 3431 0 
L 469 0 
L 469 531 
Q 828 903 1448 1529 
Q 2069 2156 2228 2338 
Q 2531 2678 2651 2914 
Q 2772 3150 2772 3378 
Q 2772 3750 2511 3984 
Q 2250 4219 1831 4219 
Q 1534 4219 1204 4116 
Q 875 4013 500 3803 
L 500 4441 
Q 881 4594 1212 4672 
Q 1544 4750 1819 4750 
Q 2544 4750 2975 4387 
Q 3406 4025 3406 3419 
Q 3406 3131 3298 2873 
Q 3191 2616 2906 2266 
Q 2828 2175 2409 1742 
Q 1991 1309 1228 531 
z
" transform="scale(0.015625)"/>
        <path id="DejaVuSans-35" d="M 691 4666 
L 3169 4666 
L 3169 4134 
L 1269 4134 
L 1269 2991 
Q 1406 3038 1543 3061 
Q 1681 3084 1819 3084 
Q 2600 3084 3056 2656 
Q 3513 2228 3513 1497 
Q 3513 744 3044 326 
Q 2575 -91 1722 -91 
Q 1428 -91 1123 -41 
Q 819 9 494 109 
L 494 744 
Q 775 591 1075 516 
Q 1375 441 1709 441 
Q 2250 441 2565 725 
Q 2881 1009 2881 1497 
Q 2881 1984 2565 2268 
Q 2250 2553 1709 2553 
Q 1456 2553 1204 2497 
Q 953 2441 691 2322 
L 691 4666 
z
" transform="scale(0.015625)"/>
       </defs>
       <use xlink:href="#DejaVuSans-30"/>
       <use xlink:href="#DejaVuSans-2e" x="63.623047"/>
       <use xlink:href="#DejaVuSans-32" x="95.410156"/>
       <use xlink:href="#DejaVuSans-35" x="159.033203"/>
      </g>
     </g>
    </g>
    <g id="xtick_3">
     <g id="line2d_3">
      <g>
       <use xlink:href="#ma8d1e39f4e" x="122.182813" y="253.44" style="stroke: #000000; stroke-width: 0.8"/>
      </g>
     </g>
     <g id="text_3">
      <!-- 0.50 -->
      <g transform="translate(111.05 268.038437) scale(0.1 -0.1)">
       <use xlink:href="#DejaVuSans-30"/>
       <use xlink:href="#DejaVuSans-2e" x="63.623047"/>
       <use xlink:href="#DejaVuSans-35" x="95.410156"/>
       <use xlink:href="#DejaVuSans-30" x="159.033203"/>
      </g>
     </g>
    </g>
    <g id="xtick_4">
     <g id="line2d_4">
      <g>
       <use xlink:href="#ma8d1e39f4e" x="164.032813" y="253.44" style="stroke: #000000; stroke-width: 0.8"/>
      </g>
     </g>
     <g id="text_4">
      <!-- 0.75 -->
      <g transform="translate(152.9 268.038437) scale(0.1 -0.1)">
       <defs>
        <path id="DejaVuSans-37" d="M 525 4666 
L 3525 4666 
L 3525 4397 
L 1831 0 
L 1172 0 
L 2766 4134 
L 525 4134 
L 525 4666 
z
" transform="scale(0.015625)"/>
       </defs>
       <use xlink:href="#DejaVuSans-30"/>
       <use xlink:href="#DejaVuSans-2e" x="63.623047"/>
       <use xlink:href="#DejaVuSans-37" x="95.410156"/>
       <use xlink:href="#DejaVuSans-35" x="159.033203"/>
      </g>
     </g>
    </g>
    <g id="xtick_5">
     <g id="line2d_5">
      <g>
       <use xlink:href="#ma8d1e39f4e" x="205.882812" y="253.44" style="stroke: #000000; stroke-width: 0.8"/>
      </g>
     </g>
     <g id="text_5">
      <!-- 1.00 -->
      <g transform="translate(194.75 268.038437) scale(0.1 -0.1)">
       <defs>
        <path id="DejaVuSans-31" d="M 794 531 
L 1825 531 
L 1825 4091 
L 703 3866 
L 703 4441 
L 1819 4666 
L 2450 4666 
L 2450 531 
L 3481 531 
L 3481 0 
L 794 0 
L 794 531 
z
" transform="scale(0.015625)"/>
       </defs>
       <use xlink:href="#DejaVuSans-31"/>
       <use xlink:href="#DejaVuSans-2e" x="63.623047"/>
       <use xlink:href="#DejaVuSans-30" x="95.410156"/>
       <use xlink:href="#DejaVuSans-30" x="159.033203"/>
      </g>
     </g>
    </g>
    <g id="xtick_6">
     <g id="line2d_6">
      <g>
       <use xlink:href="#ma8d1e39f4e" x="247.732812" y="253.44" style="stroke: #000000; stroke-width: 0.8"/>
      </g>
     </g>
     <g id="text_6">
      <!-- 1.25 -->
      <g transform="translate(236.6 268.038437) scale(0.1 -0.1)">
       <use xlink:href="#DejaVuSans-31"/>
       <use xlink:href="#DejaVuSans-2e" x="63.623047"/>
       <use xlink:href="#DejaVuSans-32" x="95.410156"/>
       <use xlink:href="#DejaVuSans-35" x="159.033203"/>
      </g>
     </g>
    </g>
    <g id="xtick_7">
     <g id="line2d_7">
      <g>
       <use xlink:href="#ma8d1e39f4e" x="289.582813" y="253.44" style="stroke: #000000; stroke-width: 0.8"/>
      </g>
     </g>
     <g id="text_7">
      <!-- 1.50 -->
      <g transform="translate(278.45 268.038437) scale(0.1 -0.1)">
       <use xlink:href="#DejaVuSans-31"/>
       <use xlink:href="#DejaVuSans-2e" x="63.623047"/>
       <use xlink:href="#DejaVuSans-35" x="95.410156"/>
       <use xlink:href="#DejaVuSans-30" x="159.033203"/>
      </g>
     </g>
    </g>
    <g id="xtick_8">
     <g id="line2d_8">
      <g>
       <use xlink:href="#ma8d1e39f4e" x="331.432813" y="253.44" style="stroke: #000000; stroke-width: 0.8"/>
      </g>
     </g>
     <g id="text_8">
      <!-- 1.75 -->
      <g transform="translate(320.3 268.038437) scale(0.1 -0.1)">
       <use xlink:href="#DejaVuSans-31"/>
       <use xlink:href="#DejaVuSans-2e" x="63.623047"/>
       <use xlink:href="#DejaVuSans-37" x="95.410156"/>
       <use xlink:href="#DejaVuSans-35" x="159.033203"/>
      </g>
     </g>
    </g>
    <g id="xtick_9">
     <g id="line2d_9">
      <g>
       <use xlink:href="#ma8d1e39f4e" x="373.282813" y="253.44" style="stroke: #000000; stroke-width: 0.8"/>
      </g>
     </g>
     <g id="text_9">
      <!-- 2.00 -->
      <g transform="translate(362.15 268.038437) scale(0.1 -0.1)">
       <use xlink:href="#DejaVuSans-32"/>
       <use xlink:href="#DejaVuSans-2e" x="63.623047"/>
       <use xlink:href="#DejaVuSans-30" x="95.410156"/>
       <use xlink:href="#DejaVuSans-30" x="159.033203"/>
      </g>
     </g>
    </g>
    <g id="text_10">
     <!-- $t$ -->
     <g transform="translate(203.882812 281.716562) scale(0.1 -0.1)">
      <defs>
       <path id="DejaVuSans-Oblique-74" d="M 2706 3500 
L 2619 3053 
L 1472 3053 
L 1100 1153 
Q 1081 1047 1072 975 
Q 1063 903 1063 863 
Q 1063 663 1183 572 
Q 1303 481 1569 481 
L 2150 481 
L 2053 0 
L 1503 0 
Q 991 0 739 200 
Q 488 400 488 806 
Q 488 878 497 964 
Q 506 1050 525 1153 
L 897 3053 
L 409 3053 
L 500 3500 
L 978 3500 
L 1172 4494 
L 1747 4494 
L 1556 3500 
L 2706 3500 
z
" transform="scale(0.015625)"/>
      </defs>
      <use xlink:href="#DejaVuSans-Oblique-74" transform="translate(0 0.78125)"/>
     </g>
    </g>
   </g>
   <g id="matplotlib.axis_2">
    <g id="ytick_1">
     <g id="line2d_10">
      <defs>
       <path id="m9a46f9ed13" d="M 0 0 
L -3.5 0 
" style="stroke: #000000; stroke-width: 0.8"/>
      </defs>
      <g>
       <use xlink:href="#m9a46f9ed13" x="38.482813" y="238.260869" style="stroke: #000000; stroke-width: 0.8"/>
      </g>
     </g>
     <g id="text_11">
      <!-- −1.0 -->
      <g transform="translate(7.2 242.060088) scale(0.1 -0.1)">
       <defs>
        <path id="DejaVuSans-2212" d="M 678 2272 
L 4684 2272 
L 4684 1741 
L 678 1741 
L 678 2272 
z
" transform="scale(0.015625)"/>
       </defs>
       <use xlink:href="#DejaVuSans-2212"/>
       <use xlink:href="#DejaVuSans-31" x="83.789062"/>
       <use xlink:href="#DejaVuSans-2e" x="147.412109"/>
       <use xlink:href="#DejaVuSans-30" x="179.199219"/>
      </g>
     </g>
    </g>
    <g id="ytick_2">
     <g id="line2d_11">
      <g>
       <use xlink:href="#m9a46f9ed13" x="38.482813" y="200.529614" style="stroke: #000000; stroke-width: 0.8"/>
      </g>
     </g>
     <g id="text_12">
      <!-- −0.8 -->
      <g transform="translate(7.2 204.328833) scale(0.1 -0.1)">
       <defs>
        <path id="DejaVuSans-38" d="M 2034 2216 
Q 1584 2216 1326 1975 
Q 1069 1734 1069 1313 
Q 1069 891 1326 650 
Q 1584 409 2034 409 
Q 2484 409 2743 651 
Q 3003 894 3003 1313 
Q 3003 1734 2745 1975 
Q 2488 2216 2034 2216 
z
M 1403 2484 
Q 997 2584 770 2862 
Q 544 3141 544 3541 
Q 544 4100 942 4425 
Q 1341 4750 2034 4750 
Q 2731 4750 3128 4425 
Q 3525 4100 3525 3541 
Q 3525 3141 3298 2862 
Q 3072 2584 2669 2484 
Q 3125 2378 3379 2068 
Q 3634 1759 3634 1313 
Q 3634 634 3220 271 
Q 2806 -91 2034 -91 
Q 1263 -91 848 271 
Q 434 634 434 1313 
Q 434 1759 690 2068 
Q 947 2378 1403 2484 
z
M 1172 3481 
Q 1172 3119 1398 2916 
Q 1625 2713 2034 2713 
Q 2441 2713 2670 2916 
Q 2900 3119 2900 3481 
Q 2900 3844 2670 4047 
Q 2441 4250 2034 4250 
Q 1625 4250 1398 4047 
Q 1172 3844 1172 3481 
z
" transform="scale(0.015625)"/>
       </defs>
       <use xlink:href="#DejaVuSans-2212"/>
       <use xlink:href="#DejaVuSans-30" x="83.789062"/>
       <use xlink:href="#DejaVuSans-2e" x="147.412109"/>
       <use xlink:href="#DejaVuSans-38" x="179.199219"/>
      </g>
     </g>
    </g>
    <g id="ytick_3">
     <g id="line2d_12">
      <g>
       <use xlink:href="#m9a46f9ed13" x="38.482813" y="162.79836" style="stroke: #000000; stroke-width: 0.8"/>
      </g>
     </g>
     <g id="text_13">
      <!-- −0.6 -->
      <g transform="translate(7.2 166.597578) scale(0.1 -0.1)">
       <defs>
        <path id="DejaVuSans-36" d="M 2113 2584 
Q 1688 2584 1439 2293 
Q 1191 2003 1191 1497 
Q 1191 994 1439 701 
Q 1688 409 2113 409 
Q 2538 409 2786 701 
Q 3034 994 3034 1497 
Q 3034 2003 2786 2293 
Q 2538 2584 2113 2584 
z
M 3366 4563 
L 3366 3988 
Q 3128 4100 2886 4159 
Q 2644 4219 2406 4219 
Q 1781 4219 1451 3797 
Q 1122 3375 1075 2522 
Q 1259 2794 1537 2939 
Q 1816 3084 2150 3084 
Q 2853 3084 3261 2657 
Q 3669 2231 3669 1497 
Q 3669 778 3244 343 
Q 2819 -91 2113 -91 
Q 1303 -91 875 529 
Q 447 1150 447 2328 
Q 447 3434 972 4092 
Q 1497 4750 2381 4750 
Q 2619 4750 2861 4703 
Q 3103 4656 3366 4563 
z
" transform="scale(0.015625)"/>
       </defs>
       <use xlink:href="#DejaVuSans-2212"/>
       <use xlink:href="#DejaVuSans-30" x="83.789062"/>
       <use xlink:href="#DejaVuSans-2e" x="147.412109"/>
       <use xlink:href="#DejaVuSans-36" x="179.199219"/>
      </g>
     </g>
    </g>
    <g id="ytick_4">
     <g id="line2d_13">
      <g>
       <use xlink:href="#m9a46f9ed13" x="38.482813" y="125.067105" style="stroke: #000000; stroke-width: 0.8"/>
      </g>
     </g>
     <g id="text_14">
      <!-- −0.4 -->
      <g transform="translate(7.2 128.866323) scale(0.1 -0.1)">
       <defs>
        <path id="DejaVuSans-34" d="M 2419 4116 
L 825 1625 
L 2419 1625 
L 2419 4116 
z
M 2253 4666 
L 3047 4666 
L 3047 1625 
L 3713 1625 
L 3713 1100 
L 3047 1100 
L 3047 0 
L 2419 0 
L 2419 1100 
L 313 1100 
L 313 1709 
L 2253 4666 
z
" transform="scale(0.015625)"/>
       </defs>
       <use xlink:href="#DejaVuSans-2212"/>
       <use xlink:href="#DejaVuSans-30" x="83.789062"/>
       <use xlink:href="#DejaVuSans-2e" x="147.412109"/>
       <use xlink:href="#DejaVuSans-34" x="179.199219"/>
      </g>
     </g>
    </g>
    <g id="ytick_5">
     <g id="line2d_14">
      <g>
       <use xlink:href="#m9a46f9ed13" x="38.482813" y="87.33585" style="stroke: #000000; stroke-width: 0.8"/>
      </g>
     </g>
     <g id="text_15">
      <!-- −0.2 -->
      <g transform="translate(7.2 91.135068) scale(0.1 -0.1)">
       <use xlink:href="#DejaVuSans-2212"/>
       <use xlink:href="#DejaVuSans-30" x="83.789062"/>
       <use xlink:href="#DejaVuSans-2e" x="147.412109"/>
       <use xlink:href="#DejaVuSans-32" x="179.199219"/>
      </g>
     </g>
    </g>
    <g id="ytick_6">
     <g id="line2d_15">
      <g>
       <use xlink:href="#m9a46f9ed13" x="38.482813" y="49.604595" style="stroke: #000000; stroke-width: 0.8"/>
      </g>
     </g>
     <g id="text_16">
      <!-- 0.0 -->
      <g transform="translate(15.579688 53.403813) scale(0.1 -0.1)">
       <use xlink:href="#DejaVuSans-30"/>
       <use xlink:href="#DejaVuSans-2e" x="63.623047"/>
       <use xlink:href="#DejaVuSans-30" x="95.410156"/>
      </g>
     </g>
    </g>
   </g>
   <g id="line2d_16">
    <path d="M 38.650213 49.604595 
L 38.817613 48.31257 
L 38.985013 56.670405 
L 39.319813 46.543797 
L 39.487212 46.32506 
L 39.654612 45.883636 
L 39.822012 54.062541 
L 39.989413 47.508838 
L 40.156813 49.24515 
L 40.324213 47.200551 
L 40.659013 52.995116 
L 40.826413 52.199231 
L 40.993813 49.372834 
L 41.161213 50.935985 
L 41.328612 47.653728 
L 41.496012 47.974274 
L 41.663412 53.122305 
L 41.830813 52.787551 
L 41.998213 54.285086 
L 42.165613 46.837728 
L 42.333013 56.641904 
L 42.500413 50.739379 
L 42.667813 50.12403 
L 42.835213 47.011252 
L 43.002612 47.436651 
L 43.170012 55.410081 
L 43.337412 53.737324 
L 43.504812 57.281828 
L 43.839613 51.405345 
L 44.007013 51.851511 
L 44.174413 51.68876 
L 44.341813 61.469693 
L 44.509213 54.340395 
L 44.676613 53.233418 
L 44.844013 51.254826 
L 45.011412 50.753239 
L 45.178812 50.724367 
L 45.346213 52.809121 
L 45.513613 56.65324 
L 45.848413 49.350245 
L 46.015813 47.954765 
L 46.350613 66.123937 
L 46.685412 49.838208 
L 46.852812 48.097939 
L 47.020212 58.36047 
L 47.187613 54.588509 
L 47.355013 55.693433 
L 47.522413 60.583471 
L 47.689813 60.40338 
L 47.857213 63.345187 
L 48.024613 58.700277 
L 48.192013 48.830871 
L 48.359413 50.655346 
L 48.526813 59.404648 
L 48.694212 61.424009 
L 48.861612 59.910098 
L 49.029013 62.135808 
L 49.363813 51.653509 
L 49.531213 62.07957 
L 49.698613 54.355633 
L 49.866013 62.54865 
L 50.033413 56.495432 
L 50.368213 61.868934 
L 50.535612 62.917612 
L 50.870413 56.654878 
L 51.037813 63.066464 
L 51.205213 64.171163 
L 51.540013 58.687016 
L 51.707413 68.732433 
L 51.874813 57.306407 
L 52.209613 62.775657 
L 52.377013 62.054251 
L 52.544413 63.85419 
L 52.711813 60.329661 
L 52.879213 61.35436 
L 53.046613 60.173156 
L 53.214013 61.870121 
L 53.381413 53.529894 
L 53.883612 69.764455 
L 54.051012 61.029473 
L 54.218412 65.072975 
L 54.385813 66.135598 
L 54.553213 62.934925 
L 54.720613 66.487595 
L 54.888013 66.092475 
L 55.055413 63.102146 
L 55.390213 64.694688 
L 55.557613 60.5385 
L 55.725013 68.61754 
L 55.892413 68.349315 
L 56.059812 69.712022 
L 56.394613 61.650638 
L 56.729413 73.073951 
L 57.064213 67.305806 
L 57.231613 59.864165 
L 57.399012 61.648142 
L 57.566412 73.0041 
L 57.733812 65.703893 
L 58.068613 71.865112 
L 58.403413 63.289197 
L 58.570813 73.305853 
L 58.738213 70.516438 
L 58.905613 77.064562 
L 59.073013 75.675572 
L 59.407813 62.164239 
L 59.575213 68.33122 
L 59.742613 67.305138 
L 59.910013 75.487491 
L 60.077413 66.804945 
L 60.244813 69.651485 
L 60.412213 62.874097 
L 60.747013 75.213174 
L 60.914413 76.347138 
L 61.081813 72.011811 
L 61.249212 73.126575 
L 61.416612 73.048421 
L 61.584013 78.906485 
L 62.086213 62.977712 
L 62.421013 74.952138 
L 62.588413 69.631993 
L 62.923213 77.573192 
L 63.090613 70.345947 
L 63.258012 75.738175 
L 63.425413 74.459564 
L 63.592813 72.29997 
L 63.927613 83.968265 
L 64.095012 79.614824 
L 64.262413 70.906269 
L 64.429812 68.015474 
L 64.597212 72.890233 
L 64.764612 72.342729 
L 64.932012 76.414909 
L 65.099412 77.112513 
L 65.266813 74.332649 
L 65.434213 76.067801 
L 65.601613 71.356043 
L 65.936413 83.140558 
L 66.103813 82.444103 
L 66.271213 71.545651 
L 66.438613 73.438221 
L 66.606013 82.74655 
L 66.773413 84.092197 
L 66.940813 84.283125 
L 67.108213 73.438175 
L 67.275613 79.527595 
L 67.443013 79.031154 
L 67.610413 79.651223 
L 67.777813 79.739214 
L 67.945212 78.845234 
L 68.112612 81.13574 
L 68.280012 77.58199 
L 68.447412 82.622611 
L 68.614812 79.949968 
L 68.782212 81.295959 
L 68.949613 81.732989 
L 69.117013 82.57424 
L 69.284413 84.317671 
L 69.451813 77.308039 
L 69.619213 76.312079 
L 69.954013 84.21291 
L 70.121413 84.655189 
L 70.288813 89.851037 
L 70.456213 88.793009 
L 70.623613 84.877371 
L 70.791012 77.164827 
L 70.958413 74.615987 
L 71.125812 85.917786 
L 71.293213 84.916168 
L 71.460612 89.13711 
L 71.628013 83.364557 
L 71.795412 93.647839 
L 71.962813 85.502013 
L 72.130212 86.027734 
L 72.465013 92.228868 
L 72.632413 84.003115 
L 72.967213 90.896977 
L 73.134613 89.151525 
L 73.302013 85.401579 
L 73.469413 84.539053 
L 73.636812 87.193004 
L 73.804213 85.076216 
L 73.971612 85.492259 
L 74.139013 85.588208 
L 74.306412 90.763384 
L 74.473813 91.731771 
L 74.641212 87.58951 
L 74.808613 86.2711 
L 74.976012 88.968678 
L 75.143413 93.990728 
L 75.310812 87.18086 
L 75.645612 93.684086 
L 75.813013 89.857145 
L 75.980412 93.182286 
L 76.147813 92.414057 
L 76.482613 82.671778 
L 76.817413 94.128437 
L 76.984813 92.084561 
L 77.152213 93.346869 
L 77.319613 96.668444 
L 77.487013 95.555 
L 77.654413 95.479422 
L 77.821813 95.831119 
L 77.989213 98.333742 
L 78.156613 90.858714 
L 78.324013 91.419409 
L 78.491412 92.703672 
L 78.658813 95.721415 
L 78.826212 94.192211 
L 78.993613 99.881367 
L 79.161012 91.708862 
L 79.328412 92.306045 
L 79.495812 93.429132 
L 79.663213 96.189558 
L 79.830613 94.721224 
L 79.998013 88.634296 
L 80.332813 101.557802 
L 80.667613 86.619975 
L 80.835013 100.710896 
L 81.002413 93.952299 
L 81.169813 95.123127 
L 81.504613 105.430603 
L 81.672012 101.207548 
L 81.839413 91.097532 
L 82.006812 92.052744 
L 82.174213 94.333832 
L 82.341612 100.011249 
L 82.509013 100.202814 
L 82.843813 105.051843 
L 83.178613 100.258466 
L 83.346013 95.520705 
L 83.513413 99.325501 
L 83.680813 97.797166 
L 83.848213 99.397264 
L 84.183013 104.772151 
L 84.350413 101.467165 
L 84.517813 93.688447 
L 84.852613 104.825875 
L 85.187413 97.188583 
L 85.354813 109.725286 
L 85.522213 101.028607 
L 85.689613 98.249428 
L 85.857013 99.552328 
L 86.191813 103.846277 
L 86.359213 99.282261 
L 86.526612 102.584339 
L 86.694013 97.069263 
L 87.028813 109.368674 
L 87.196213 106.302304 
L 87.363613 106.756255 
L 87.531013 104.253349 
L 87.698413 106.569946 
L 87.865813 106.418498 
L 88.033212 99.889878 
L 88.200613 106.402476 
L 88.368012 101.975162 
L 88.535413 101.608375 
L 88.702812 106.805184 
L 88.870213 106.537823 
L 89.037612 106.595693 
L 89.205013 106.960741 
L 89.372412 105.206412 
L 89.539813 106.572935 
L 89.707212 101.364012 
L 89.874613 104.792006 
L 90.042012 99.606796 
L 90.209412 99.740577 
L 90.376812 108.078785 
L 90.544213 109.612609 
L 90.711613 105.173682 
L 90.879013 109.981828 
L 91.213813 108.427433 
L 91.381213 105.684106 
L 91.548613 107.629678 
L 91.716013 107.241901 
L 91.883413 102.1341 
L 92.050813 102.953537 
L 92.218213 107.517799 
L 92.385613 107.349704 
L 92.553013 109.458621 
L 92.720413 113.573109 
L 92.887812 106.151861 
L 93.055213 106.326961 
L 93.222612 107.208882 
L 93.390013 102.476535 
L 93.557412 106.5317 
L 93.724813 104.534747 
L 93.892212 114.325991 
L 94.059613 116.61899 
L 94.227013 113.549765 
L 94.394413 105.581075 
L 94.729213 109.588132 
L 94.896613 110.277738 
L 95.064013 105.820777 
L 95.231413 112.626885 
L 95.398813 111.805201 
L 95.566213 103.974706 
L 95.901013 115.971694 
L 96.068413 108.923773 
L 96.235813 107.887342 
L 96.403213 111.724987 
L 96.570613 111.496886 
L 96.738013 113.902417 
L 96.905413 111.08367 
L 97.072813 117.244154 
L 97.240213 109.730637 
L 97.407612 113.991156 
L 97.575012 112.60371 
L 97.742413 103.888493 
L 97.909813 111.800737 
L 98.077213 111.410681 
L 98.244613 114.418899 
L 98.412013 109.995108 
L 98.579413 112.711978 
L 98.914212 110.889271 
L 99.081613 115.240459 
L 99.249012 112.254389 
L 99.416413 114.033337 
L 99.583812 111.657301 
L 99.751213 122.418308 
L 99.918612 118.692402 
L 100.086013 118.832085 
L 100.253412 117.064373 
L 100.420813 117.226609 
L 100.755613 105.473888 
L 100.923012 117.485086 
L 101.090413 114.228638 
L 101.257812 108.256547 
L 101.425213 122.652757 
L 101.760013 116.094717 
L 101.927413 116.665611 
L 102.094813 122.842331 
L 102.262213 111.143806 
L 102.429613 108.357585 
L 102.597013 121.149702 
L 102.931813 111.166836 
L 103.099212 118.856305 
L 103.266613 120.22792 
L 103.434012 113.64329 
L 103.601413 116.716823 
L 103.768812 122.449529 
L 103.936213 115.927922 
L 104.103612 118.721604 
L 104.438412 118.679122 
L 104.605813 123.404342 
L 104.773212 119.524967 
L 104.940613 118.909629 
L 105.108013 115.878666 
L 105.275413 120.717556 
L 105.442813 118.211112 
L 105.610213 119.385771 
L 105.777613 115.835189 
L 105.945013 115.219709 
L 106.112413 118.657804 
L 106.279813 126.100801 
L 106.614613 119.222014 
L 106.782013 127.954863 
L 107.284212 113.909545 
L 107.451613 122.408496 
L 107.786413 123.891327 
L 108.121213 114.714336 
L 108.288612 120.50914 
L 108.456013 119.002108 
L 108.623413 123.877437 
L 108.790812 123.187386 
L 108.958213 128.294684 
L 109.125612 118.08933 
L 109.293013 116.094749 
L 109.460412 126.076332 
L 109.627813 121.799177 
L 109.795212 122.349353 
L 109.962613 123.585525 
L 110.130012 123.130786 
L 110.297413 124.945866 
L 110.464812 123.608104 
L 110.799612 127.250399 
L 110.967013 120.003297 
L 111.134412 125.22341 
L 111.301813 126.448349 
L 111.636613 116.04406 
L 111.804012 128.418024 
L 111.971413 124.335409 
L 112.138813 128.536844 
L 112.306213 125.78181 
L 112.473613 126.735056 
L 112.641013 120.143608 
L 112.808413 129.708151 
L 112.975813 127.557459 
L 113.143213 123.516085 
L 113.310613 131.214112 
L 113.478013 126.753383 
L 113.645412 125.270276 
L 113.812813 131.225468 
L 114.147613 133.845221 
L 114.315012 130.993149 
L 114.482413 134.429303 
L 114.649812 124.222537 
L 114.817213 133.601647 
L 114.984612 124.299465 
L 115.319412 132.322248 
L 115.486813 132.124073 
L 115.654212 131.106473 
L 115.821613 133.756688 
L 115.989013 130.522832 
L 116.156413 131.847605 
L 116.323813 137.567758 
L 116.658613 125.062465 
L 116.826013 127.375059 
L 116.993413 131.404869 
L 117.160813 126.479935 
L 117.328213 137.457563 
L 117.495613 138.002903 
L 117.663013 129.691067 
L 117.830413 136.685641 
L 118.165213 129.393133 
L 118.500012 136.353851 
L 118.667413 134.012485 
L 118.834812 129.183247 
L 119.002213 136.307855 
L 119.169612 130.679694 
L 119.337013 132.259339 
L 119.504413 142.626908 
L 120.006612 130.904771 
L 120.174013 132.753247 
L 120.341412 129.53161 
L 120.508813 133.273017 
L 120.676212 142.140549 
L 121.011012 132.595469 
L 121.178413 130.714779 
L 121.345812 137.403115 
L 121.513213 134.223976 
L 121.848013 140.460121 
L 122.015412 139.058273 
L 122.182813 142.65201 
L 122.350212 141.771174 
L 122.517613 130.016755 
L 122.852413 142.617704 
L 123.019813 139.034301 
L 123.187213 142.795362 
L 123.354613 142.300251 
L 123.522013 135.406581 
L 123.689413 144.241559 
L 123.856813 130.842178 
L 124.024213 128.800638 
L 124.191613 145.322892 
L 124.359013 136.817399 
L 124.526413 141.392477 
L 124.693813 139.976754 
L 124.861212 140.805459 
L 125.028613 132.781976 
L 125.196012 142.605292 
L 125.363413 145.023064 
L 125.530812 140.834916 
L 125.698213 140.394881 
L 125.865612 144.689679 
L 126.033013 136.328693 
L 126.367813 141.746175 
L 126.535213 142.704212 
L 126.702613 134.847769 
L 126.870013 145.053256 
L 127.037413 143.079722 
L 127.204813 137.387623 
L 127.372213 136.808247 
L 127.539613 140.238214 
L 127.874413 151.125707 
L 128.041813 148.921321 
L 128.209213 143.243466 
L 128.544013 140.954187 
L 128.711413 138.008367 
L 129.046213 145.389624 
L 129.213613 141.672196 
L 129.381012 150.816746 
L 129.548413 145.534274 
L 129.715812 146.393966 
L 129.883213 149.319716 
L 130.050612 148.907907 
L 130.218013 147.173935 
L 130.385413 147.128141 
L 130.552813 149.438864 
L 130.720213 136.748575 
L 131.222413 150.455155 
L 131.389813 144.682098 
L 131.557213 142.999328 
L 131.724613 150.825242 
L 131.892013 145.007257 
L 132.059413 150.008077 
L 132.226813 149.881498 
L 132.394213 145.579837 
L 132.729013 153.268138 
L 132.896413 147.382669 
L 133.063813 145.947128 
L 133.231213 147.385582 
L 133.398613 151.327063 
L 133.566013 150.937371 
L 133.733413 145.931546 
L 133.900813 153.792238 
L 134.068213 153.473502 
L 134.235613 147.785129 
L 134.403013 146.318782 
L 134.570413 160.265186 
L 134.737813 145.634071 
L 135.072612 156.813073 
L 135.240013 147.502325 
L 135.407412 148.387387 
L 135.574813 154.242482 
L 135.742212 153.641646 
L 135.909613 147.773958 
L 136.077012 153.971564 
L 136.244413 155.012476 
L 136.411812 146.15555 
L 136.579213 151.026377 
L 136.746612 163.03 
L 137.081412 148.647282 
L 137.248812 160.7586 
L 137.416213 159.802024 
L 137.583612 156.384893 
L 137.751013 156.563839 
L 137.918412 148.631468 
L 138.085813 147.546765 
L 138.253212 158.879767 
L 138.588012 154.974633 
L 138.922812 154.050288 
L 139.090213 152.301033 
L 139.257612 158.239219 
L 139.592412 153.51089 
L 139.759813 156.927182 
L 139.927212 157.082903 
L 140.094613 159.877903 
L 140.262012 158.403116 
L 140.429413 149.126321 
L 140.596812 160.860756 
L 140.764213 163.78556 
L 140.931612 153.253306 
L 141.099013 155.087346 
L 141.266413 162.445766 
L 141.433813 153.347 
L 141.601213 165.615036 
L 141.936013 148.312604 
L 142.270813 162.48792 
L 142.438212 165.695523 
L 142.773012 154.398389 
L 142.940413 162.465599 
L 143.107812 156.863758 
L 143.275213 158.408598 
L 143.442612 163.729291 
L 143.610013 158.34986 
L 143.777412 162.007492 
L 143.944813 159.564882 
L 144.112212 164.126857 
L 144.279613 164.547882 
L 144.447012 160.541175 
L 144.614413 161.733399 
L 144.781813 167.295849 
L 145.116613 162.719947 
L 145.284013 170.636455 
L 145.451413 161.335819 
L 145.618813 162.20199 
L 145.786213 161.402244 
L 145.953613 154.068734 
L 146.288413 166.494378 
L 146.455813 164.905439 
L 146.623213 160.103167 
L 146.790613 162.744204 
L 146.958012 168.805566 
L 147.125413 164.919619 
L 147.292812 163.790479 
L 147.460213 169.462104 
L 147.627612 169.56557 
L 147.795013 160.35968 
L 148.297213 169.001297 
L 148.464613 161.121061 
L 148.632013 169.305205 
L 148.799413 163.26788 
L 148.966813 166.860604 
L 149.134213 174.102207 
L 149.469013 161.49213 
L 149.636413 165.952848 
L 149.803813 165.637546 
L 149.971213 176.415532 
L 150.306013 161.928058 
L 150.473413 169.430444 
L 150.640813 165.962585 
L 150.808213 170.937662 
L 150.975613 169.449957 
L 151.143013 170.257972 
L 151.310413 170.426877 
L 151.477812 168.339136 
L 151.645213 171.632985 
L 151.812613 170.436573 
L 152.147413 166.815362 
L 152.314813 167.765181 
L 152.482213 176.539576 
L 152.817013 170.316869 
L 152.984413 170.279241 
L 153.151813 168.706963 
L 153.319213 176.924364 
L 153.486613 170.587058 
L 153.654013 174.23481 
L 153.988813 166.442254 
L 154.156213 176.413743 
L 154.323613 173.885316 
L 154.658413 176.570385 
L 154.993213 167.522462 
L 155.160613 171.491984 
L 155.328013 170.683611 
L 155.495413 174.76791 
L 155.830213 169.89419 
L 155.997613 182.08598 
L 156.165013 179.311404 
L 156.332413 167.885334 
L 156.499812 180.338174 
L 156.667213 174.304601 
L 156.834612 172.678398 
L 157.002013 178.287796 
L 157.169412 176.712929 
L 157.336813 170.041148 
L 157.504212 172.376593 
L 157.839012 183.326184 
L 158.006413 185.183423 
L 158.173812 175.566964 
L 158.341213 174.200467 
L 158.508612 171.092783 
L 158.676013 182.295772 
L 158.843412 183.074892 
L 159.010813 175.627569 
L 159.178213 183.033501 
L 159.345612 181.335502 
L 159.513013 178.164559 
L 159.680412 183.0408 
L 159.847813 182.037168 
L 160.015212 183.770647 
L 160.182613 172.273778 
L 160.350012 176.912719 
L 160.517413 176.668019 
L 160.684812 174.290057 
L 160.852213 180.046853 
L 161.187013 178.4652 
L 161.354412 178.994112 
L 161.521813 183.905206 
L 161.689212 175.44463 
L 162.024012 189.62008 
L 162.191413 178.369252 
L 162.358812 188.250612 
L 162.526213 179.723309 
L 162.693613 177.575983 
L 162.861013 189.28664 
L 163.028413 190.168403 
L 163.195813 182.029318 
L 163.363213 184.059059 
L 163.530613 178.745484 
L 163.865413 191.676948 
L 164.032813 181.462419 
L 164.200212 179.178594 
L 164.367613 179.280709 
L 164.702413 186.059569 
L 164.869812 181.879007 
L 165.204612 187.51201 
L 165.372013 183.26319 
L 165.539412 190.175286 
L 165.874212 181.840371 
L 166.041613 193.637061 
L 166.376413 185.180395 
L 166.543813 187.215788 
L 166.711212 191.791587 
L 166.878613 191.698191 
L 167.046012 197.123712 
L 167.213413 187.984977 
L 167.380812 189.788674 
L 167.548213 190.205653 
L 167.715612 193.955201 
L 168.050412 184.519808 
L 168.217813 193.323744 
L 168.385212 184.532862 
L 168.552613 186.221965 
L 168.720012 193.220958 
L 168.887413 182.364286 
L 169.054812 185.049925 
L 169.222213 192.881954 
L 169.389612 187.88312 
L 169.724412 194.67326 
L 169.891813 186.168346 
L 170.059213 194.698689 
L 170.394013 194.553427 
L 170.728813 190.693271 
L 170.896213 196.493337 
L 171.063613 196.144896 
L 171.231012 197.380184 
L 171.398413 195.501459 
L 171.565812 191.822666 
L 171.733213 200.446741 
L 171.900612 196.826184 
L 172.068013 189.332608 
L 172.235412 198.203238 
L 172.402813 196.479629 
L 172.570212 197.983073 
L 172.737613 195.509932 
L 172.905012 197.890939 
L 173.072413 188.556368 
L 173.239812 200.15984 
L 173.407213 202.133434 
L 173.742013 189.060974 
L 173.909413 198.571429 
L 174.076813 201.204048 
L 174.244213 194.735459 
L 174.411613 201.618533 
L 174.579013 192.124193 
L 174.913813 199.863417 
L 175.248613 189.611122 
L 175.416013 202.387785 
L 175.583413 198.089109 
L 175.750813 197.90359 
L 175.918213 197.268203 
L 176.085612 198.143618 
L 176.253013 201.294787 
L 176.420412 201.157825 
L 176.587813 197.092594 
L 176.755212 196.242115 
L 177.090013 204.883071 
L 177.257413 198.557345 
L 177.592213 203.221557 
L 177.759613 198.857821 
L 178.094413 199.909568 
L 178.261812 201.743641 
L 178.429213 199.946948 
L 178.596612 207.622925 
L 179.098812 199.900813 
L 179.266212 200.134153 
L 179.433612 204.224149 
L 179.601012 200.190553 
L 179.768412 200.629022 
L 179.935812 200.582614 
L 180.103212 204.829613 
L 180.270612 203.73108 
L 180.438012 200.305485 
L 180.772812 198.146258 
L 180.940213 211.130442 
L 181.275013 199.886567 
L 181.442412 201.291791 
L 181.777212 207.603189 
L 182.112012 203.187699 
L 182.279413 203.992798 
L 182.446812 207.609197 
L 182.614213 207.600638 
L 182.781612 200.081299 
L 182.949013 199.767548 
L 183.116412 212.077569 
L 183.451212 200.053043 
L 183.618613 200.406017 
L 183.786012 213.637406 
L 183.953412 205.295847 
L 184.120812 207.286566 
L 184.288212 204.193562 
L 184.455613 198.970504 
L 184.623012 215.398168 
L 184.790413 212.278581 
L 184.957812 198.066776 
L 185.125213 212.194081 
L 185.292612 212.019587 
L 185.460013 205.811424 
L 185.627412 210.815102 
L 185.794813 207.656468 
L 185.962212 199.035084 
L 186.129613 212.856154 
L 186.297012 212.096589 
L 186.464413 203.257043 
L 186.799213 210.639876 
L 186.966612 207.573081 
L 187.134013 209.106085 
L 187.301412 202.881164 
L 187.468813 211.160767 
L 187.636212 213.447591 
L 187.803613 205.534184 
L 187.971013 204.387179 
L 188.305813 211.463142 
L 188.473213 206.063977 
L 188.640613 208.873914 
L 188.808012 204.18362 
L 188.975413 215.826588 
L 189.142812 208.112048 
L 189.310213 210.54494 
L 189.477612 209.776286 
L 189.645013 209.622608 
L 189.812412 212.839348 
L 189.979813 211.462883 
L 190.147212 205.399841 
L 190.314613 209.856124 
L 190.482012 210.928896 
L 190.649413 205.632839 
L 190.816812 212.107292 
L 190.984213 207.818631 
L 191.151612 207.927173 
L 191.319013 213.246058 
L 191.486413 203.8438 
L 191.653813 212.760019 
L 191.821213 212.237384 
L 191.988613 211.025533 
L 192.156013 214.86216 
L 192.323413 204.471838 
L 192.490813 205.935121 
L 192.658213 219.171934 
L 192.993013 202.469753 
L 193.495213 217.726164 
L 193.662612 209.561545 
L 193.830013 211.399227 
L 193.997412 216.066834 
L 194.164813 210.028153 
L 194.332212 214.124885 
L 194.499613 209.409629 
L 194.667012 215.078519 
L 195.001812 211.190874 
L 195.169213 214.273343 
L 195.336613 219.994114 
L 195.504013 208.40086 
L 195.838813 219.111607 
L 196.006213 212.793589 
L 196.173613 210.820066 
L 196.341013 215.515701 
L 196.675813 212.470537 
L 196.843213 216.475848 
L 197.010613 212.425634 
L 197.178013 215.206423 
L 197.345413 221.796565 
L 197.512813 211.121373 
L 197.847613 218.630449 
L 198.015013 213.884807 
L 198.182412 216.781944 
L 198.349813 215.007748 
L 198.517212 207.022209 
L 198.684613 221.877935 
L 198.852013 216.835393 
L 199.019413 221.655398 
L 199.354212 210.895797 
L 199.521613 225.399217 
L 199.689012 215.420955 
L 199.856413 215.974255 
L 200.023812 218.835614 
L 200.191213 216.822123 
L 200.526013 222.086424 
L 200.693412 217.657021 
L 200.860813 219.469831 
L 201.028212 214.106656 
L 201.195612 214.929399 
L 201.363012 225.535559 
L 201.697812 214.786 
L 201.865212 218.739038 
L 202.032612 215.738888 
L 202.367413 222.402145 
L 202.534812 213.046631 
L 202.702213 222.935726 
L 202.869612 221.049258 
L 203.037013 217.109681 
L 203.204412 218.075448 
L 203.371813 224.255502 
L 203.539212 218.914994 
L 203.706613 221.775822 
L 203.874012 219.590209 
L 204.208812 224.733985 
L 204.543612 219.13525 
L 204.711013 227.626633 
L 205.045813 213.672279 
L 205.213212 222.93352 
L 205.380613 220.94861 
L 205.548012 224.517588 
L 205.715413 216.100042 
L 205.882812 218.009136 
L 206.050213 227.469135 
L 206.217613 218.02393 
L 206.385013 223.276255 
L 206.552413 223.722441 
L 206.719813 218.335098 
L 206.887213 225.824975 
L 207.054613 226.153336 
L 207.222013 213.764739 
L 207.389413 225.227688 
L 207.556813 224.585894 
L 207.724213 225.311488 
L 207.891613 222.544829 
L 208.059013 223.356915 
L 208.226413 223.422459 
L 208.393813 226.338954 
L 208.561213 224.068258 
L 208.728613 219.884965 
L 209.063413 225.064019 
L 209.230813 224.750512 
L 209.398213 218.544187 
L 209.565613 228.694563 
L 209.733013 223.352165 
L 209.900413 222.033871 
L 210.067812 228.826714 
L 210.235213 221.246768 
L 210.402612 221.385202 
L 210.570013 224.709311 
L 210.737412 225.645145 
L 210.904812 217.844835 
L 211.072212 229.982879 
L 211.239612 218.185978 
L 211.407012 222.042462 
L 211.574412 228.785931 
L 211.741812 218.933667 
L 211.909212 219.140553 
L 212.076612 235.575421 
L 212.244012 217.877957 
L 212.411412 216.523627 
L 212.578812 227.337794 
L 212.746212 227.069636 
L 212.913612 225.37421 
L 213.081012 220.881126 
L 213.248413 220.531688 
L 213.415812 234.085543 
L 213.583213 223.198663 
L 213.750612 222.084291 
L 213.918013 219.194364 
L 214.085412 228.591747 
L 214.252813 226.093604 
L 214.420212 218.908391 
L 214.755012 228.200818 
L 215.089812 224.428151 
L 215.257213 227.14547 
L 215.424612 222.187148 
L 215.592013 228.805657 
L 215.926813 221.58815 
L 216.094212 228.223372 
L 216.261613 224.57608 
L 216.429012 223.988285 
L 216.596413 228.334121 
L 216.763813 226.068875 
L 216.931213 227.229947 
L 217.098613 227.060088 
L 217.266013 224.85576 
L 217.433413 225.090572 
L 217.600813 227.819857 
L 217.768213 219.212538 
L 218.103013 227.950855 
L 218.270413 226.916714 
L 218.437813 228.168245 
L 218.605213 226.690574 
L 218.772612 221.7722 
L 218.940013 231.751349 
L 219.274813 219.475002 
L 219.442212 231.190095 
L 219.777012 223.671003 
L 219.944413 228.664868 
L 220.279212 226.817371 
L 220.446612 229.196094 
L 220.614013 226.925909 
L 220.781412 226.669628 
L 221.116212 227.720163 
L 221.283613 220.759287 
L 221.451012 230.22715 
L 221.618413 230.298346 
L 221.785812 220.253619 
L 221.953213 230.228449 
L 222.120612 233.13022 
L 222.288013 219.888563 
L 222.622813 230.614118 
L 222.790212 225.69868 
L 222.957613 229.43966 
L 223.125012 226.983467 
L 223.292413 227.583124 
L 223.459812 225.549482 
L 223.627213 228.360182 
L 223.794612 222.527645 
L 223.962013 232.035602 
L 224.129413 225.494437 
L 224.296813 224.408125 
L 224.464213 231.475369 
L 224.631613 229.122772 
L 224.799013 221.199163 
L 224.966413 229.762752 
L 225.133813 230.263189 
L 225.301213 218.211873 
L 225.468613 230.70473 
L 225.636013 226.705517 
L 225.803413 229.682073 
L 225.970813 225.504363 
L 226.138213 229.214642 
L 226.305613 225.62753 
L 226.473013 235.204207 
L 226.640413 222.360749 
L 226.807813 224.988919 
L 226.975213 233.948193 
L 227.142613 223.96955 
L 227.310013 221.841607 
L 227.477413 229.183353 
L 227.644813 229.690808 
L 227.812213 230.96532 
L 227.979613 228.494838 
L 228.147012 221.564413 
L 228.314413 231.600486 
L 228.481812 232.330859 
L 228.649213 223.939167 
L 228.816612 226.999283 
L 228.984013 237.491854 
L 229.318813 224.652618 
L 229.486212 227.107473 
L 229.653613 233.316676 
L 229.821012 229.868149 
L 229.988413 223.249036 
L 230.323213 231.017229 
L 230.490612 229.946653 
L 230.658013 226.532854 
L 230.825412 225.801112 
L 230.992813 234.596944 
L 231.160213 226.959424 
L 231.495013 230.698073 
L 231.662412 222.224749 
L 231.997212 235.862187 
L 232.164613 218.137434 
L 232.332012 225.026715 
L 232.499413 237.815021 
L 232.834213 226.859526 
L 233.001612 224.970756 
L 233.169013 232.024765 
L 233.336412 230.84776 
L 233.503813 228.530789 
L 233.671212 219.083541 
L 233.838613 234.399612 
L 234.006012 232.694228 
L 234.340812 226.214427 
L 234.508213 236.735132 
L 234.675612 226.685771 
L 234.843013 229.652594 
L 235.010413 226.903926 
L 235.345213 230.356612 
L 235.512613 227.689163 
L 235.680013 230.25098 
L 235.847413 225.720499 
L 236.014812 232.25075 
L 236.182213 230.567826 
L 236.349612 221.430968 
L 236.684412 236.007583 
L 237.019212 222.908581 
L 237.354012 237.311383 
L 237.521412 227.920917 
L 237.688812 229.248229 
L 237.856212 227.201173 
L 238.023612 229.717559 
L 238.191012 234.846646 
L 238.525813 222.201296 
L 238.693212 238.223267 
L 238.860613 232.557839 
L 239.028012 220.569627 
L 239.195413 230.285643 
L 239.362812 231.562432 
L 239.530213 230.74693 
L 239.697612 232.317906 
L 239.865013 221.270199 
L 240.032412 234.031544 
L 240.199813 233.185252 
L 240.367212 224.981742 
L 240.534613 230.657961 
L 240.702012 229.763948 
L 241.036812 225.302093 
L 241.204213 231.165825 
L 241.371612 231.727579 
L 241.539013 230.495377 
L 241.706412 227.097565 
L 241.873813 232.706659 
L 242.208613 227.423912 
L 242.376013 229.108497 
L 242.543413 232.522546 
L 242.710813 226.749346 
L 242.878213 227.134072 
L 243.213013 234.396374 
L 243.380413 231.007275 
L 243.547813 231.32722 
L 243.715213 227.603757 
L 243.882613 232.272966 
L 244.217413 229.121988 
L 244.384813 223.353287 
L 244.552213 239.231609 
L 244.887013 222.672396 
L 245.054413 235.179725 
L 245.221813 231.982891 
L 245.389212 223.208542 
L 245.556613 236.647879 
L 245.724012 221.930924 
L 245.891413 226.51744 
L 246.058812 236.809856 
L 246.226213 225.147994 
L 246.393612 228.224085 
L 246.561013 233.890996 
L 246.728412 228.305779 
L 246.895813 230.803445 
L 247.063212 228.582718 
L 247.230613 230.674546 
L 247.398012 230.254517 
L 247.732812 228.499361 
L 248.067612 232.301242 
L 248.402412 227.526147 
L 248.569813 238.96722 
L 248.904613 223.146594 
L 249.072012 234.73896 
L 249.239413 231.637856 
L 249.406813 225.9492 
L 249.574213 231.254495 
L 249.741613 228.730192 
L 249.909013 236.498497 
L 250.076413 232.866586 
L 250.243813 224.644924 
L 250.411213 235.731231 
L 250.746013 227.083668 
L 251.080813 232.211153 
L 251.248213 230.532045 
L 251.415613 235.565554 
L 251.583013 224.69933 
L 251.750413 228.926594 
L 251.917813 239.71425 
L 252.085213 225.501428 
L 252.252613 226.910412 
L 252.420013 233.934979 
L 252.587413 228.173458 
L 252.922213 232.834955 
L 253.089613 225.86074 
L 253.257013 236.569056 
L 253.424413 227.133183 
L 253.591812 226.337712 
L 253.759213 232.070531 
L 253.926612 227.302501 
L 254.094013 232.396734 
L 254.261412 232.177918 
L 254.428813 231.590644 
L 254.596212 232.352688 
L 254.763613 228.048152 
L 254.931012 234.880167 
L 255.265812 224.404518 
L 255.600612 235.035645 
L 255.768012 228.573491 
L 255.935412 228.927408 
L 256.102813 226.359199 
L 256.437613 234.066973 
L 256.772413 228.437483 
L 256.939813 236.783034 
L 257.107213 234.257318 
L 257.274612 228.827167 
L 257.442013 227.984617 
L 257.609413 233.19391 
L 257.776813 231.65389 
L 257.944212 231.91241 
L 258.111613 228.276685 
L 258.279013 228.823716 
L 258.446413 236.463636 
L 258.613812 229.875353 
L 258.781213 228.48383 
L 258.948613 233.963688 
L 259.283412 226.709819 
L 259.618213 232.443799 
L 259.785613 224.784102 
L 259.953012 230.546203 
L 260.287813 232.493295 
L 260.455213 228.391905 
L 260.622613 229.579896 
L 260.790013 222.251898 
L 260.957413 235.824569 
L 261.124813 226.345626 
L 261.292213 229.285032 
L 261.459613 228.909326 
L 261.627013 232.477427 
L 261.794413 231.448663 
L 261.961813 232.042965 
L 262.129213 228.005192 
L 262.296613 234.138361 
L 262.464013 226.827238 
L 262.631413 229.895775 
L 262.798813 229.762983 
L 262.966212 236.304181 
L 263.301013 227.630817 
L 263.468413 238.196434 
L 263.635812 235.394919 
L 263.803213 226.851017 
L 263.970613 229.438649 
L 264.138013 233.811855 
L 264.305412 234.90898 
L 264.640213 227.038731 
L 264.807613 233.312182 
L 264.975012 230.325979 
L 265.142413 233.005602 
L 265.477213 226.589826 
L 265.812013 236.312682 
L 265.979413 224.835183 
L 266.146813 230.653954 
L 266.314212 226.459814 
L 266.481613 236.812396 
L 266.649013 230.207958 
L 266.983812 227.676217 
L 267.151213 233.320337 
L 267.318613 228.755565 
L 267.486013 230.670402 
L 267.653413 226.210536 
L 267.820813 232.08764 
L 267.988213 231.044357 
L 268.155613 231.09286 
L 268.323013 231.498539 
L 268.490413 230.731086 
L 268.657813 229.297183 
L 268.825213 231.054882 
L 268.992613 230.081651 
L 269.160013 232.236525 
L 269.327413 232.395519 
L 269.494813 232.243113 
L 269.662213 229.785078 
L 269.997013 235.503653 
L 270.331813 230.363469 
L 270.499213 231.386609 
L 270.666613 233.557081 
L 270.834013 228.307984 
L 271.001413 227.374955 
L 271.168813 231.18063 
L 271.336213 229.748262 
L 271.503613 237.193929 
L 271.671013 226.858151 
L 271.838413 224.576883 
L 272.005813 241.093575 
L 272.340613 224.377291 
L 272.508013 233.397986 
L 272.842813 232.077834 
L 273.010213 228.573584 
L 273.177613 229.476495 
L 273.345012 236.773076 
L 273.512413 237.539882 
L 273.679813 225.217758 
L 273.847213 234.320299 
L 274.014612 235.609357 
L 274.182012 228.051424 
L 274.349413 226.667464 
L 274.684213 232.526165 
L 274.851612 228.045097 
L 275.019013 232.017126 
L 275.186413 229.976472 
L 275.521212 235.502442 
L 275.688613 226.046359 
L 275.856013 235.568576 
L 276.023413 233.662159 
L 276.190812 225.31756 
L 276.525613 232.862092 
L 276.693013 232.706658 
L 276.860412 236.014466 
L 277.027813 223.464063 
L 277.195213 235.269134 
L 277.697413 227.848222 
L 277.864813 232.366003 
L 278.032213 230.87133 
L 278.199613 235.257441 
L 278.367013 230.212584 
L 278.534413 230.40645 
L 278.701813 230.000055 
L 278.869213 236.835257 
L 279.036613 225.874536 
L 279.204013 226.971554 
L 279.371413 233.623279 
L 279.538813 233.236412 
L 279.706213 227.632503 
L 279.873613 234.557261 
L 280.041013 231.518689 
L 280.208413 231.867039 
L 280.375813 229.471986 
L 280.543212 233.193007 
L 280.710613 226.648356 
L 280.878013 234.573451 
L 281.045413 227.477881 
L 281.212812 234.262055 
L 281.380213 234.218674 
L 281.547613 231.571186 
L 281.715013 226.38693 
L 281.882412 234.48527 
L 282.049813 228.742799 
L 282.217213 228.616134 
L 282.384613 235.8617 
L 282.552012 233.650044 
L 282.886813 225.270714 
L 283.054213 232.338647 
L 283.389013 233.709387 
L 283.556413 226.571169 
L 283.891212 236.440044 
L 284.058613 230.754152 
L 284.226013 220.766093 
L 284.393413 239.173056 
L 284.728213 228.580712 
L 284.895613 232.459885 
L 285.063013 231.720865 
L 285.230412 232.079598 
L 285.397813 234.475043 
L 285.565213 223.09023 
L 285.732613 232.824756 
L 285.900013 233.081482 
L 286.067413 229.987976 
L 286.402213 232.335696 
L 286.569613 232.316018 
L 286.737013 233.519391 
L 286.904413 224.80994 
L 287.071813 233.61218 
L 287.406613 229.331006 
L 287.574013 229.533493 
L 287.741413 227.487563 
L 288.076213 232.637929 
L 288.243613 231.582055 
L 288.411013 229.322833 
L 288.578413 235.844122 
L 288.745813 230.031627 
L 289.080613 233.924717 
L 289.248013 231.367298 
L 289.415413 232.377833 
L 289.582813 234.841436 
L 289.750213 232.270262 
L 289.917613 227.494158 
L 290.085013 234.100724 
L 290.252412 231.794335 
L 290.419813 231.872024 
L 290.587213 229.755549 
L 290.754613 229.349471 
L 290.922012 233.538696 
L 291.089413 231.001124 
L 291.256813 233.936735 
L 291.424213 228.33395 
L 291.591612 234.822947 
L 291.759013 232.928656 
L 291.926413 226.550308 
L 292.093813 234.206049 
L 292.261212 232.929065 
L 292.428613 225.22035 
L 292.596013 232.777372 
L 292.763413 232.956865 
L 292.930813 229.851301 
L 293.098213 231.62794 
L 293.265613 227.785478 
L 293.433013 235.514403 
L 293.600413 231.794947 
L 293.767813 231.807168 
L 293.935213 228.415601 
L 294.102613 234.226759 
L 294.270013 232.019692 
L 294.437413 232.099826 
L 294.604813 220.328293 
L 294.772213 243.556364 
L 294.939613 236.294341 
L 295.107013 224.138087 
L 295.441813 236.671546 
L 295.609213 226.091367 
L 295.776612 232.698595 
L 295.944013 233.091824 
L 296.111413 231.829618 
L 296.278813 234.154506 
L 296.446213 228.717668 
L 296.613613 231.44641 
L 296.781013 238.372825 
L 296.948413 227.98285 
L 297.115813 228.23324 
L 297.450613 235.22869 
L 297.785413 228.114432 
L 297.952813 234.109387 
L 298.120213 235.834581 
L 298.287613 223.458845 
L 298.455013 232.903184 
L 298.622413 226.061122 
L 298.957213 233.485364 
L 299.124613 226.877642 
L 299.292013 228.71065 
L 299.459413 233.700272 
L 299.626813 227.074097 
L 299.794213 239.341587 
L 300.129013 226.178542 
L 300.296413 233.24443 
L 300.463813 232.480216 
L 300.631213 235.710132 
L 300.966013 227.283409 
L 301.133413 233.290306 
L 301.300813 231.983672 
L 301.468213 235.564779 
L 301.635613 230.199153 
L 301.803013 231.160554 
L 301.970413 236.029689 
L 302.305213 228.026834 
L 302.472613 232.361222 
L 302.640013 231.658535 
L 302.807412 234.545661 
L 303.142213 226.214887 
L 303.309613 232.167945 
L 303.477013 232.221773 
L 303.644413 224.989591 
L 303.811813 234.333301 
L 304.146613 228.458454 
L 304.314013 232.312071 
L 304.481413 229.380014 
L 304.816213 228.679997 
L 304.983613 233.593685 
L 305.151013 231.853276 
L 305.318413 233.753159 
L 305.485813 228.458958 
L 305.653213 227.646246 
L 305.820613 238.07765 
L 306.155413 224.992846 
L 306.322813 235.745043 
L 306.490213 234.843713 
L 306.657613 229.930018 
L 306.825013 231.59392 
L 306.992413 229.899214 
L 307.159813 234.516885 
L 307.327213 231.801274 
L 307.494613 226.373927 
L 307.829413 239.519739 
L 307.996813 228.070535 
L 308.164213 228.912573 
L 308.331613 240.097111 
L 308.499013 234.100854 
L 308.666413 223.596858 
L 309.001213 234.177171 
L 309.168613 233.317205 
L 309.336013 227.37212 
L 309.503413 228.785006 
L 309.670813 237.032035 
L 309.838213 237.277792 
L 310.005613 228.346065 
L 310.340413 235.334965 
L 310.507813 227.392704 
L 310.675213 233.039282 
L 310.842613 234.169436 
L 311.010013 226.618293 
L 311.177413 234.968161 
L 311.344813 234.494611 
L 311.512213 225.514087 
L 311.679613 233.808112 
L 311.847013 230.241224 
L 312.014413 229.259019 
L 312.181813 234.686284 
L 312.349213 233.408336 
L 312.516613 226.577985 
L 312.684013 237.15846 
L 312.851413 230.702378 
L 313.018813 237.406077 
L 313.353613 231.085333 
L 313.521013 234.74696 
L 313.688413 229.448777 
L 313.855813 228.260502 
L 314.023213 237.27047 
L 314.190613 225.701826 
L 314.692813 237.793676 
L 314.860213 225.584364 
L 315.195013 233.843952 
L 315.529813 227.714431 
L 315.697213 232.718443 
L 315.864613 229.307239 
L 316.032013 236.101387 
L 316.366813 226.983736 
L 316.534213 232.084027 
L 316.701613 229.55859 
L 316.869013 235.161441 
L 317.036413 230.82887 
L 317.203813 231.514507 
L 317.371213 228.580525 
L 317.538613 234.757361 
L 317.706013 231.831584 
L 317.873413 232.327852 
L 318.040813 233.205731 
L 318.208213 229.123386 
L 318.375613 229.460291 
L 318.543013 233.28922 
L 318.710413 233.667876 
L 319.045213 228.406315 
L 319.212613 232.574929 
L 319.380013 233.456075 
L 319.547413 227.530277 
L 319.882213 235.500244 
L 320.049613 228.123459 
L 320.217013 230.609603 
L 320.384412 235.330278 
L 320.551813 227.271609 
L 320.719213 229.39015 
L 320.886613 233.065573 
L 321.054012 227.717152 
L 321.221413 236.073977 
L 321.388813 229.372357 
L 321.556213 230.275019 
L 321.723613 240.688507 
L 322.058413 223.034201 
L 322.393213 238.475228 
L 322.560613 230.745034 
L 322.728013 233.423324 
L 322.895413 226.535213 
L 323.062813 236.494586 
L 323.230213 235.092768 
L 323.397613 228.732844 
L 323.565013 227.962994 
L 323.732413 237.7547 
L 324.067213 225.331205 
L 324.234613 229.859039 
L 324.402013 237.59365 
L 324.736813 225.888897 
L 325.071613 235.24355 
L 325.239013 229.406691 
L 325.406413 234.122757 
L 325.573813 230.275115 
L 325.908613 234.6182 
L 326.076013 228.293468 
L 326.243413 236.258281 
L 326.410813 235.533583 
L 326.578213 227.449717 
L 327.080413 233.398325 
L 327.247813 234.845751 
L 327.582613 228.097917 
L 327.917413 234.375077 
L 328.252213 230.182135 
L 328.754413 233.05183 
L 328.921813 231.377747 
L 329.089213 230.9627 
L 329.256613 234.499303 
L 329.424013 234.861167 
L 329.591413 229.511957 
L 329.926213 229.826106 
L 330.093613 235.887084 
L 330.261013 228.764001 
L 330.428413 226.484837 
L 330.595813 234.896604 
L 330.763213 227.793483 
L 330.930613 234.411723 
L 331.098013 230.090557 
L 331.265413 234.412317 
L 331.432813 230.994161 
L 331.600213 234.314468 
L 331.767613 234.026655 
L 331.935013 230.613449 
L 332.102413 230.795038 
L 332.269813 235.157595 
L 332.437213 224.632926 
L 332.604613 235.679271 
L 332.772013 237.629876 
L 332.939413 225.5253 
L 333.106813 233.751553 
L 333.274213 236.397822 
L 333.441613 225.699214 
L 333.609013 234.485117 
L 333.776413 226.150938 
L 333.943813 223.383055 
L 334.111213 241.42908 
L 334.278613 227.34942 
L 334.446013 227.296512 
L 334.613413 237.605572 
L 334.780813 232.243019 
L 334.948213 231.638477 
L 335.115613 232.471819 
L 335.283013 232.700989 
L 335.450413 228.271312 
L 335.617813 233.90564 
L 335.785213 228.196177 
L 335.952613 230.553873 
L 336.120013 230.270508 
L 336.287413 231.66675 
L 336.454813 234.01706 
L 336.622213 230.692962 
L 336.789613 231.06547 
L 336.957013 228.48509 
L 337.291813 233.346531 
L 337.459213 228.064311 
L 337.626613 229.346685 
L 337.794013 237.597635 
L 337.961413 230.838416 
L 338.296213 233.579074 
L 338.463613 230.633148 
L 338.631012 234.640351 
L 338.965813 226.430074 
L 339.133213 234.605795 
L 339.300612 228.914316 
L 339.468013 232.550016 
L 339.635413 232.488652 
L 339.802813 230.490758 
L 339.970213 234.341889 
L 340.137613 228.336977 
L 340.305013 233.079111 
L 340.472413 234.279441 
L 340.807213 225.746129 
L 340.974613 231.868255 
L 341.142013 230.814178 
L 341.309413 233.195628 
L 341.476813 228.298289 
L 341.644213 231.374373 
L 341.811613 230.384196 
L 341.979013 231.335219 
L 342.146413 233.858434 
L 342.313813 230.848791 
L 342.481213 230.347317 
L 342.648613 237.29614 
L 342.816013 228.693287 
L 342.983413 232.153374 
L 343.150813 228.811879 
L 343.318213 232.2473 
L 343.485613 232.779169 
L 343.653013 237.065586 
L 343.820413 229.68015 
L 343.987813 228.932419 
L 344.155213 232.519614 
L 344.322613 232.183318 
L 344.490013 230.590408 
L 344.657413 233.567815 
L 344.824813 227.918521 
L 344.992213 240.36452 
L 345.159613 228.139501 
L 345.327013 230.013756 
L 345.494413 233.613758 
L 345.661813 228.534113 
L 345.996613 237.284585 
L 346.164013 231.520232 
L 346.331413 234.799658 
L 346.498813 226.983096 
L 346.666213 228.61297 
L 346.833613 235.757463 
L 347.001013 228.895929 
L 347.168413 231.853097 
L 347.335813 228.914454 
L 347.503213 236.440476 
L 347.670613 236.629178 
L 347.838013 228.192462 
L 348.005413 231.604304 
L 348.172813 237.506249 
L 348.340213 228.270455 
L 348.507613 228.695073 
L 348.675013 228.756772 
L 348.842413 235.161586 
L 349.009813 229.495768 
L 349.177213 229.431204 
L 349.512013 235.655002 
L 349.679413 230.817653 
L 349.846813 233.093111 
L 350.014213 231.34687 
L 350.181613 237.268329 
L 350.349013 228.167486 
L 350.516413 226.299674 
L 350.683813 235.821995 
L 350.851213 234.530942 
L 351.018613 228.741745 
L 351.186013 236.447855 
L 351.353413 230.513082 
L 351.520813 235.565177 
L 351.688213 229.285438 
L 351.855613 229.013509 
L 352.023013 231.964772 
L 352.190413 230.316054 
L 352.357813 227.127048 
L 352.525213 229.123084 
L 352.692613 235.948635 
L 352.860013 233.637709 
L 353.027413 229.069035 
L 353.194813 229.589023 
L 353.362213 232.101436 
L 353.529613 229.8699 
L 353.697013 234.027977 
L 353.864413 225.994582 
L 354.031813 234.660654 
L 354.366613 229.344362 
L 354.534013 231.813416 
L 354.701413 230.766429 
L 355.036213 234.793432 
L 355.203613 227.400988 
L 355.371013 230.382341 
L 355.538413 237.974948 
L 355.705813 230.248186 
L 355.873213 228.992695 
L 356.040613 235.016389 
L 356.208013 230.419365 
L 356.375413 229.650476 
L 356.542813 235.359947 
L 356.877613 226.952943 
L 357.045013 233.517443 
L 357.212413 228.312162 
L 357.379813 227.9849 
L 357.547213 236.74011 
L 357.714613 229.381593 
L 357.882013 228.139764 
L 358.049413 230.234764 
L 358.216813 236.526942 
L 358.384213 227.600955 
L 358.551613 232.06932 
L 358.719013 231.745707 
L 358.886413 230.631928 
L 359.053813 232.865688 
L 359.221213 231.379809 
L 359.388613 225.177056 
L 359.556013 240.352549 
L 359.723413 227.252794 
L 359.890813 225.70613 
L 360.058213 235.046697 
L 360.393013 229.581562 
L 360.560413 234.734199 
L 360.727813 230.33563 
L 360.895213 231.240149 
L 361.062613 233.127392 
L 361.230013 232.186662 
L 361.564813 234.236212 
L 361.732213 233.317525 
L 361.899613 226.888479 
L 362.067013 233.529574 
L 362.234413 234.425213 
L 362.401813 228.967872 
L 362.569213 229.239706 
L 362.736613 229.872355 
L 362.904013 233.42231 
L 363.071413 234.033733 
L 363.238813 228.896705 
L 363.741013 231.023999 
L 363.908412 234.3356 
L 364.075813 233.837921 
L 364.243213 230.983815 
L 364.410613 233.859949 
L 364.578012 230.18563 
L 364.745413 233.840491 
L 364.912813 230.741331 
L 365.080213 232.595517 
L 365.415013 230.783717 
L 365.582413 234.14554 
L 365.749813 229.369715 
L 365.917213 236.155307 
L 366.252013 226.33317 
L 366.419413 235.208538 
L 366.586813 233.513454 
L 366.754213 228.722559 
L 366.921613 231.237559 
L 367.089013 230.860036 
L 367.423813 237.796497 
L 367.591213 222.246065 
L 367.926013 237.620607 
L 368.260813 225.058326 
L 368.428213 234.848061 
L 368.595613 230.298541 
L 368.763013 229.182756 
L 368.930413 233.456122 
L 369.097813 232.821488 
L 369.265213 227.244615 
L 369.432613 237.048825 
L 369.600013 233.839672 
L 369.767413 227.898702 
L 369.934813 229.89453 
L 370.102213 225.87982 
L 370.269613 234.227573 
L 370.604413 228.919866 
L 370.771813 229.939306 
L 370.939213 238.16462 
L 371.106613 230.221357 
L 371.274013 228.128949 
L 371.441413 233.332161 
L 371.608813 229.080709 
L 371.776213 229.279814 
L 371.943613 237.534876 
L 372.111013 230.256261 
L 372.278413 230.124118 
L 372.445813 233.910833 
L 372.613213 226.755106 
L 372.780613 233.070998 
L 372.948013 234.3359 
L 373.115413 224.958668 
L 373.282813 234.206027 
L 373.282813 234.206027 
" clip-path="url(#p70d9fb8650)" style="fill: none; stroke: #1f77b4; stroke-width: 1.5; stroke-linecap: square"/>
   </g>
   <g id="line2d_17">
    <path d="M 38.650213 49.604595 
L 39.319813 55.824214 
L 39.989413 59.993349 
L 40.659013 62.788004 
L 41.328612 64.661318 
L 41.998213 65.917037 
L 42.667813 66.758771 
L 43.504812 67.432175 
L 44.509213 67.90053 
L 45.681013 68.187321 
L 47.522413 68.376053 
L 51.037813 68.45869 
L 69.619213 68.470222 
L 373.282813 68.470222 
L 373.282813 68.470222 
" clip-path="url(#p70d9fb8650)" style="fill: none; stroke: #ff7f0e; stroke-width: 1.5; stroke-linecap: square"/>
   </g>
   <g id="patch_3">
    <path d="M 38.482813 253.44 
L 38.482813 36 
" style="fill: none; stroke: #000000; stroke-width: 0.8; stroke-linejoin: miter; stroke-linecap: square"/>
   </g>
   <g id="patch_4">
    <path d="M 373.282813 253.44 
L 373.282813 36 
" style="fill: none; stroke: #000000; stroke-width: 0.8; stroke-linejoin: miter; stroke-linecap: square"/>
   </g>
   <g id="patch_5">
    <path d="M 38.482813 253.44 
L 373.282813 253.44 
" style="fill: none; stroke: #000000; stroke-width: 0.8; stroke-linejoin: miter; stroke-linecap: square"/>
   </g>
   <g id="patch_6">
    <path d="M 38.482813 36 
L 373.282813 36 
" style="fill: none; stroke: #000000; stroke-width: 0.8; stroke-linejoin: miter; stroke-linecap: square"/>
   </g>
   <g id="legend_1">
    <g id="patch_7">
     <path d="M 45.482813 248.44 
L 95.182813 248.44 
Q 97.182813 248.44 97.182813 246.44 
L 97.182813 214.361875 
Q 97.182813 212.361875 95.182813 212.361875 
L 45.482813 212.361875 
Q 43.482813 212.361875 43.482813 214.361875 
L 43.482813 246.44 
Q 43.482813 248.44 45.482813 248.44 
z
" style="fill: #ffffff; opacity: 0.8; stroke: #cccccc; stroke-linejoin: miter"/>
    </g>
    <g id="line2d_18">
     <path d="M 47.482813 224.161875 
L 57.482813 224.161875 
L 67.482812 224.161875 
" style="fill: none; stroke: #1f77b4; stroke-width: 1.5; stroke-linecap: square"/>
    </g>
    <g id="text_17">
     <!-- $\hat{y(t)}$ -->
     <g transform="translate(75.482812 227.661875) scale(0.1 -0.1)">
      <defs>
       <path id="DejaVuSans-302" d="M -1831 5119 
L -1369 5119 
L -603 3944 
L -1038 3944 
L -1600 4709 
L -2163 3944 
L -2597 3944 
L -1831 5119 
z
M -1600 3584 
L -1600 3584 
z
" transform="scale(0.015625)"/>
       <path id="DejaVuSans-Oblique-79" d="M 1588 -325 
Q 1188 -997 936 -1164 
Q 684 -1331 294 -1331 
L -159 -1331 
L -63 -850 
L 269 -850 
Q 509 -850 678 -719 
Q 847 -588 1056 -206 
L 1234 128 
L 459 3500 
L 1069 3500 
L 1650 819 
L 3256 3500 
L 3859 3500 
L 1588 -325 
z
" transform="scale(0.015625)"/>
       <path id="DejaVuSans-28" d="M 1984 4856 
Q 1566 4138 1362 3434 
Q 1159 2731 1159 2009 
Q 1159 1288 1364 580 
Q 1569 -128 1984 -844 
L 1484 -844 
Q 1016 -109 783 600 
Q 550 1309 550 2009 
Q 550 2706 781 3412 
Q 1013 4119 1484 4856 
L 1984 4856 
z
" transform="scale(0.015625)"/>
       <path id="DejaVuSans-29" d="M 513 4856 
L 1013 4856 
Q 1481 4119 1714 3412 
Q 1947 2706 1947 2009 
Q 1947 1309 1714 600 
Q 1481 -109 1013 -844 
L 513 -844 
Q 928 -128 1133 580 
Q 1338 1288 1338 2009 
Q 1338 2731 1133 3434 
Q 928 4138 513 4856 
z
" transform="scale(0.015625)"/>
      </defs>
      <use xlink:href="#DejaVuSans-302" transform="translate(135.682129 33.015625)"/>
      <use xlink:href="#DejaVuSans-Oblique-79" transform="translate(0 0.640625)"/>
      <use xlink:href="#DejaVuSans-28" transform="translate(59.179688 0.640625)"/>
      <use xlink:href="#DejaVuSans-Oblique-74" transform="translate(98.193359 0.640625)"/>
      <use xlink:href="#DejaVuSans-29" transform="translate(137.402344 0.640625)"/>
     </g>
    </g>
    <g id="line2d_19">
     <path d="M 47.482813 238.860312 
L 57.482813 238.860312 
L 67.482812 238.860312 
" style="fill: none; stroke: #ff7f0e; stroke-width: 1.5; stroke-linecap: square"/>
    </g>
    <g id="text_18">
     <!-- $x(t)$ -->
     <g transform="translate(75.482812 242.360312) scale(0.1 -0.1)">
      <defs>
       <path id="DejaVuSans-Oblique-78" d="M 3841 3500 
L 2234 1784 
L 3219 0 
L 2559 0 
L 1819 1388 
L 531 0 
L -166 0 
L 1556 1844 
L 641 3500 
L 1300 3500 
L 1972 2234 
L 3144 3500 
L 3841 3500 
z
" transform="scale(0.015625)"/>
      </defs>
      <use xlink:href="#DejaVuSans-Oblique-78" transform="translate(0 0.125)"/>
      <use xlink:href="#DejaVuSans-28" transform="translate(59.179688 0.125)"/>
      <use xlink:href="#DejaVuSans-Oblique-74" transform="translate(98.193359 0.125)"/>
      <use xlink:href="#DejaVuSans-29" transform="translate(137.402344 0.125)"/>
     </g>
    </g>
   </g>
  </g>
  <g id="text_19">
   <!-- Accumulate to Threshold model with input of -0.1 with rms=1  -->
   <g transform="translate(13.149687 16.318125) scale(0.12 -0.12)">
    <defs>
     <path id="DejaVuSans-41" d="M 2188 4044 
L 1331 1722 
L 3047 1722 
L 2188 4044 
z
M 1831 4666 
L 2547 4666 
L 4325 0 
L 3669 0 
L 3244 1197 
L 1141 1197 
L 716 0 
L 50 0 
L 1831 4666 
z
" transform="scale(0.015625)"/>
     <path id="DejaVuSans-63" d="M 3122 3366 
L 3122 2828 
Q 2878 2963 2633 3030 
Q 2388 3097 2138 3097 
Q 1578 3097 1268 2742 
Q 959 2388 959 1747 
Q 959 1106 1268 751 
Q 1578 397 2138 397 
Q 2388 397 2633 464 
Q 2878 531 3122 666 
L 3122 134 
Q 2881 22 2623 -34 
Q 2366 -91 2075 -91 
Q 1284 -91 818 406 
Q 353 903 353 1747 
Q 353 2603 823 3093 
Q 1294 3584 2113 3584 
Q 2378 3584 2631 3529 
Q 2884 3475 3122 3366 
z
" transform="scale(0.015625)"/>
     <path id="DejaVuSans-75" d="M 544 1381 
L 544 3500 
L 1119 3500 
L 1119 1403 
Q 1119 906 1312 657 
Q 1506 409 1894 409 
Q 2359 409 2629 706 
Q 2900 1003 2900 1516 
L 2900 3500 
L 3475 3500 
L 3475 0 
L 2900 0 
L 2900 538 
Q 2691 219 2414 64 
Q 2138 -91 1772 -91 
Q 1169 -91 856 284 
Q 544 659 544 1381 
z
M 1991 3584 
L 1991 3584 
z
" transform="scale(0.015625)"/>
     <path id="DejaVuSans-6d" d="M 3328 2828 
Q 3544 3216 3844 3400 
Q 4144 3584 4550 3584 
Q 5097 3584 5394 3201 
Q 5691 2819 5691 2113 
L 5691 0 
L 5113 0 
L 5113 2094 
Q 5113 2597 4934 2840 
Q 4756 3084 4391 3084 
Q 3944 3084 3684 2787 
Q 3425 2491 3425 1978 
L 3425 0 
L 2847 0 
L 2847 2094 
Q 2847 2600 2669 2842 
Q 2491 3084 2119 3084 
Q 1678 3084 1418 2786 
Q 1159 2488 1159 1978 
L 1159 0 
L 581 0 
L 581 3500 
L 1159 3500 
L 1159 2956 
Q 1356 3278 1631 3431 
Q 1906 3584 2284 3584 
Q 2666 3584 2933 3390 
Q 3200 3197 3328 2828 
z
" transform="scale(0.015625)"/>
     <path id="DejaVuSans-6c" d="M 603 4863 
L 1178 4863 
L 1178 0 
L 603 0 
L 603 4863 
z
" transform="scale(0.015625)"/>
     <path id="DejaVuSans-61" d="M 2194 1759 
Q 1497 1759 1228 1600 
Q 959 1441 959 1056 
Q 959 750 1161 570 
Q 1363 391 1709 391 
Q 2188 391 2477 730 
Q 2766 1069 2766 1631 
L 2766 1759 
L 2194 1759 
z
M 3341 1997 
L 3341 0 
L 2766 0 
L 2766 531 
Q 2569 213 2275 61 
Q 1981 -91 1556 -91 
Q 1019 -91 701 211 
Q 384 513 384 1019 
Q 384 1609 779 1909 
Q 1175 2209 1959 2209 
L 2766 2209 
L 2766 2266 
Q 2766 2663 2505 2880 
Q 2244 3097 1772 3097 
Q 1472 3097 1187 3025 
Q 903 2953 641 2809 
L 641 3341 
Q 956 3463 1253 3523 
Q 1550 3584 1831 3584 
Q 2591 3584 2966 3190 
Q 3341 2797 3341 1997 
z
" transform="scale(0.015625)"/>
     <path id="DejaVuSans-74" d="M 1172 4494 
L 1172 3500 
L 2356 3500 
L 2356 3053 
L 1172 3053 
L 1172 1153 
Q 1172 725 1289 603 
Q 1406 481 1766 481 
L 2356 481 
L 2356 0 
L 1766 0 
Q 1100 0 847 248 
Q 594 497 594 1153 
L 594 3053 
L 172 3053 
L 172 3500 
L 594 3500 
L 594 4494 
L 1172 4494 
z
" transform="scale(0.015625)"/>
     <path id="DejaVuSans-65" d="M 3597 1894 
L 3597 1613 
L 953 1613 
Q 991 1019 1311 708 
Q 1631 397 2203 397 
Q 2534 397 2845 478 
Q 3156 559 3463 722 
L 3463 178 
Q 3153 47 2828 -22 
Q 2503 -91 2169 -91 
Q 1331 -91 842 396 
Q 353 884 353 1716 
Q 353 2575 817 3079 
Q 1281 3584 2069 3584 
Q 2775 3584 3186 3129 
Q 3597 2675 3597 1894 
z
M 3022 2063 
Q 3016 2534 2758 2815 
Q 2500 3097 2075 3097 
Q 1594 3097 1305 2825 
Q 1016 2553 972 2059 
L 3022 2063 
z
" transform="scale(0.015625)"/>
     <path id="DejaVuSans-20" transform="scale(0.015625)"/>
     <path id="DejaVuSans-6f" d="M 1959 3097 
Q 1497 3097 1228 2736 
Q 959 2375 959 1747 
Q 959 1119 1226 758 
Q 1494 397 1959 397 
Q 2419 397 2687 759 
Q 2956 1122 2956 1747 
Q 2956 2369 2687 2733 
Q 2419 3097 1959 3097 
z
M 1959 3584 
Q 2709 3584 3137 3096 
Q 3566 2609 3566 1747 
Q 3566 888 3137 398 
Q 2709 -91 1959 -91 
Q 1206 -91 779 398 
Q 353 888 353 1747 
Q 353 2609 779 3096 
Q 1206 3584 1959 3584 
z
" transform="scale(0.015625)"/>
     <path id="DejaVuSans-54" d="M -19 4666 
L 3928 4666 
L 3928 4134 
L 2272 4134 
L 2272 0 
L 1638 0 
L 1638 4134 
L -19 4134 
L -19 4666 
z
" transform="scale(0.015625)"/>
     <path id="DejaVuSans-68" d="M 3513 2113 
L 3513 0 
L 2938 0 
L 2938 2094 
Q 2938 2591 2744 2837 
Q 2550 3084 2163 3084 
Q 1697 3084 1428 2787 
Q 1159 2491 1159 1978 
L 1159 0 
L 581 0 
L 581 4863 
L 1159 4863 
L 1159 2956 
Q 1366 3272 1645 3428 
Q 1925 3584 2291 3584 
Q 2894 3584 3203 3211 
Q 3513 2838 3513 2113 
z
" transform="scale(0.015625)"/>
     <path id="DejaVuSans-72" d="M 2631 2963 
Q 2534 3019 2420 3045 
Q 2306 3072 2169 3072 
Q 1681 3072 1420 2755 
Q 1159 2438 1159 1844 
L 1159 0 
L 581 0 
L 581 3500 
L 1159 3500 
L 1159 2956 
Q 1341 3275 1631 3429 
Q 1922 3584 2338 3584 
Q 2397 3584 2469 3576 
Q 2541 3569 2628 3553 
L 2631 2963 
z
" transform="scale(0.015625)"/>
     <path id="DejaVuSans-73" d="M 2834 3397 
L 2834 2853 
Q 2591 2978 2328 3040 
Q 2066 3103 1784 3103 
Q 1356 3103 1142 2972 
Q 928 2841 928 2578 
Q 928 2378 1081 2264 
Q 1234 2150 1697 2047 
L 1894 2003 
Q 2506 1872 2764 1633 
Q 3022 1394 3022 966 
Q 3022 478 2636 193 
Q 2250 -91 1575 -91 
Q 1294 -91 989 -36 
Q 684 19 347 128 
L 347 722 
Q 666 556 975 473 
Q 1284 391 1588 391 
Q 1994 391 2212 530 
Q 2431 669 2431 922 
Q 2431 1156 2273 1281 
Q 2116 1406 1581 1522 
L 1381 1569 
Q 847 1681 609 1914 
Q 372 2147 372 2553 
Q 372 3047 722 3315 
Q 1072 3584 1716 3584 
Q 2034 3584 2315 3537 
Q 2597 3491 2834 3397 
z
" transform="scale(0.015625)"/>
     <path id="DejaVuSans-64" d="M 2906 2969 
L 2906 4863 
L 3481 4863 
L 3481 0 
L 2906 0 
L 2906 525 
Q 2725 213 2448 61 
Q 2172 -91 1784 -91 
Q 1150 -91 751 415 
Q 353 922 353 1747 
Q 353 2572 751 3078 
Q 1150 3584 1784 3584 
Q 2172 3584 2448 3432 
Q 2725 3281 2906 2969 
z
M 947 1747 
Q 947 1113 1208 752 
Q 1469 391 1925 391 
Q 2381 391 2643 752 
Q 2906 1113 2906 1747 
Q 2906 2381 2643 2742 
Q 2381 3103 1925 3103 
Q 1469 3103 1208 2742 
Q 947 2381 947 1747 
z
" transform="scale(0.015625)"/>
     <path id="DejaVuSans-77" d="M 269 3500 
L 844 3500 
L 1563 769 
L 2278 3500 
L 2956 3500 
L 3675 769 
L 4391 3500 
L 4966 3500 
L 4050 0 
L 3372 0 
L 2619 2869 
L 1863 0 
L 1184 0 
L 269 3500 
z
" transform="scale(0.015625)"/>
     <path id="DejaVuSans-69" d="M 603 3500 
L 1178 3500 
L 1178 0 
L 603 0 
L 603 3500 
z
M 603 4863 
L 1178 4863 
L 1178 4134 
L 603 4134 
L 603 4863 
z
" transform="scale(0.015625)"/>
     <path id="DejaVuSans-6e" d="M 3513 2113 
L 3513 0 
L 2938 0 
L 2938 2094 
Q 2938 2591 2744 2837 
Q 2550 3084 2163 3084 
Q 1697 3084 1428 2787 
Q 1159 2491 1159 1978 
L 1159 0 
L 581 0 
L 581 3500 
L 1159 3500 
L 1159 2956 
Q 1366 3272 1645 3428 
Q 1925 3584 2291 3584 
Q 2894 3584 3203 3211 
Q 3513 2838 3513 2113 
z
" transform="scale(0.015625)"/>
     <path id="DejaVuSans-70" d="M 1159 525 
L 1159 -1331 
L 581 -1331 
L 581 3500 
L 1159 3500 
L 1159 2969 
Q 1341 3281 1617 3432 
Q 1894 3584 2278 3584 
Q 2916 3584 3314 3078 
Q 3713 2572 3713 1747 
Q 3713 922 3314 415 
Q 2916 -91 2278 -91 
Q 1894 -91 1617 61 
Q 1341 213 1159 525 
z
M 3116 1747 
Q 3116 2381 2855 2742 
Q 2594 3103 2138 3103 
Q 1681 3103 1420 2742 
Q 1159 2381 1159 1747 
Q 1159 1113 1420 752 
Q 1681 391 2138 391 
Q 2594 391 2855 752 
Q 3116 1113 3116 1747 
z
" transform="scale(0.015625)"/>
     <path id="DejaVuSans-66" d="M 2375 4863 
L 2375 4384 
L 1825 4384 
Q 1516 4384 1395 4259 
Q 1275 4134 1275 3809 
L 1275 3500 
L 2222 3500 
L 2222 3053 
L 1275 3053 
L 1275 0 
L 697 0 
L 697 3053 
L 147 3053 
L 147 3500 
L 697 3500 
L 697 3744 
Q 697 4328 969 4595 
Q 1241 4863 1831 4863 
L 2375 4863 
z
" transform="scale(0.015625)"/>
     <path id="DejaVuSans-2d" d="M 313 2009 
L 1997 2009 
L 1997 1497 
L 313 1497 
L 313 2009 
z
" transform="scale(0.015625)"/>
     <path id="DejaVuSans-3d" d="M 678 2906 
L 4684 2906 
L 4684 2381 
L 678 2381 
L 678 2906 
z
M 678 1631 
L 4684 1631 
L 4684 1100 
L 678 1100 
L 678 1631 
z
" transform="scale(0.015625)"/>
    </defs>
    <use xlink:href="#DejaVuSans-41"/>
    <use xlink:href="#DejaVuSans-63" x="66.658203"/>
    <use xlink:href="#DejaVuSans-63" x="121.638672"/>
    <use xlink:href="#DejaVuSans-75" x="176.619141"/>
    <use xlink:href="#DejaVuSans-6d" x="239.998047"/>
    <use xlink:href="#DejaVuSans-75" x="337.410156"/>
    <use xlink:href="#DejaVuSans-6c" x="400.789062"/>
    <use xlink:href="#DejaVuSans-61" x="428.572266"/>
    <use xlink:href="#DejaVuSans-74" x="489.851562"/>
    <use xlink:href="#DejaVuSans-65" x="529.060547"/>
    <use xlink:href="#DejaVuSans-20" x="590.583984"/>
    <use xlink:href="#DejaVuSans-74" x="622.371094"/>
    <use xlink:href="#DejaVuSans-6f" x="661.580078"/>
    <use xlink:href="#DejaVuSans-20" x="722.761719"/>
    <use xlink:href="#DejaVuSans-54" x="754.548828"/>
    <use xlink:href="#DejaVuSans-68" x="815.632812"/>
    <use xlink:href="#DejaVuSans-72" x="879.011719"/>
    <use xlink:href="#DejaVuSans-65" x="917.875"/>
    <use xlink:href="#DejaVuSans-73" x="979.398438"/>
    <use xlink:href="#DejaVuSans-68" x="1031.498047"/>
    <use xlink:href="#DejaVuSans-6f" x="1094.876953"/>
    <use xlink:href="#DejaVuSans-6c" x="1156.058594"/>
    <use xlink:href="#DejaVuSans-64" x="1183.841797"/>
    <use xlink:href="#DejaVuSans-20" x="1247.318359"/>
    <use xlink:href="#DejaVuSans-6d" x="1279.105469"/>
    <use xlink:href="#DejaVuSans-6f" x="1376.517578"/>
    <use xlink:href="#DejaVuSans-64" x="1437.699219"/>
    <use xlink:href="#DejaVuSans-65" x="1501.175781"/>
    <use xlink:href="#DejaVuSans-6c" x="1562.699219"/>
    <use xlink:href="#DejaVuSans-20" x="1590.482422"/>
    <use xlink:href="#DejaVuSans-77" x="1622.269531"/>
    <use xlink:href="#DejaVuSans-69" x="1704.056641"/>
    <use xlink:href="#DejaVuSans-74" x="1731.839844"/>
    <use xlink:href="#DejaVuSans-68" x="1771.048828"/>
    <use xlink:href="#DejaVuSans-20" x="1834.427734"/>
    <use xlink:href="#DejaVuSans-69" x="1866.214844"/>
    <use xlink:href="#DejaVuSans-6e" x="1893.998047"/>
    <use xlink:href="#DejaVuSans-70" x="1957.376953"/>
    <use xlink:href="#DejaVuSans-75" x="2020.853516"/>
    <use xlink:href="#DejaVuSans-74" x="2084.232422"/>
    <use xlink:href="#DejaVuSans-20" x="2123.441406"/>
    <use xlink:href="#DejaVuSans-6f" x="2155.228516"/>
    <use xlink:href="#DejaVuSans-66" x="2216.410156"/>
    <use xlink:href="#DejaVuSans-20" x="2251.615234"/>
    <use xlink:href="#DejaVuSans-2d" x="2283.402344"/>
    <use xlink:href="#DejaVuSans-30" x="2319.486328"/>
    <use xlink:href="#DejaVuSans-2e" x="2383.109375"/>
    <use xlink:href="#DejaVuSans-31" x="2414.896484"/>
    <use xlink:href="#DejaVuSans-20" x="2478.519531"/>
    <use xlink:href="#DejaVuSans-77" x="2510.306641"/>
    <use xlink:href="#DejaVuSans-69" x="2592.09375"/>
    <use xlink:href="#DejaVuSans-74" x="2619.876953"/>
    <use xlink:href="#DejaVuSans-68" x="2659.085938"/>
    <use xlink:href="#DejaVuSans-20" x="2722.464844"/>
    <use xlink:href="#DejaVuSans-72" x="2754.251953"/>
    <use xlink:href="#DejaVuSans-6d" x="2793.615234"/>
    <use xlink:href="#DejaVuSans-73" x="2891.027344"/>
    <use xlink:href="#DejaVuSans-3d" x="2943.126953"/>
    <use xlink:href="#DejaVuSans-31" x="3026.916016"/>
    <use xlink:href="#DejaVuSans-20" x="3090.539062"/>
   </g>
  </g>
 </g>
 <defs>
  <clipPath id="p70d9fb8650">
   <rect x="38.482813" y="36" width="334.8" height="217.44"/>
  </clipPath>
 </defs>
</svg>
