<?xml version="1.0" encoding="utf-8" standalone="no"?>
<!DOCTYPE svg PUBLIC "-//W3C//DTD SVG 1.1//EN"
  "http://www.w3.org/Graphics/SVG/1.1/DTD/svg11.dtd">
<svg xmlns:xlink="http://www.w3.org/1999/xlink" width="384.736875pt" height="290.99625pt" viewBox="0 0 384.736875 290.99625" xmlns="http://www.w3.org/2000/svg" version="1.1">
 <metadata>
  <rdf:RDF xmlns:dc="http://purl.org/dc/elements/1.1/" xmlns:cc="http://creativecommons.org/ns#" xmlns:rdf="http://www.w3.org/1999/02/22-rdf-syntax-ns#">
   <cc:Work>
    <dc:type rdf:resource="http://purl.org/dc/dcmitype/StillImage"/>
    <dc:date>2022-11-20T20:09:30.043113</dc:date>
    <dc:format>image/svg+xml</dc:format>
    <dc:creator>
     <cc:Agent>
      <dc:title>Matplotlib v3.6.0, https://matplotlib.org/</dc:title>
     </cc:Agent>
    </dc:creator>
   </cc:Work>
  </rdf:RDF>
 </metadata>
 <defs>
  <style type="text/css">*{stroke-linejoin: round; stroke-linecap: butt}</style>
 </defs>
 <g id="figure_1">
  <g id="patch_1">
   <path d="M 0 290.99625 
L 384.736875 290.99625 
L 384.736875 0 
L 0 0 
L 0 290.99625 
z
" style="fill: none"/>
  </g>
  <g id="axes_1">
   <g id="patch_2">
    <path d="M 30.368437 253.44 
L 365.168437 253.44 
L 365.168437 36 
L 30.368437 36 
z
" style="fill: #ffffff"/>
   </g>
   <g id="matplotlib.axis_1">
    <g id="xtick_1">
     <g id="line2d_1">
      <defs>
       <path id="m23fdaf89de" d="M 0 0 
L 0 3.5 
" style="stroke: #000000; stroke-width: 0.8"/>
      </defs>
      <g>
       <use xlink:href="#m23fdaf89de" x="30.368437" y="253.44" style="stroke: #000000; stroke-width: 0.8"/>
      </g>
     </g>
     <g id="text_1">
      <!-- 0.00 -->
      <g transform="translate(19.235625 268.038437) scale(0.1 -0.1)">
       <defs>
        <path id="DejaVuSans-30" d="M 2034 4250 
Q 1547 4250 1301 3770 
Q 1056 3291 1056 2328 
Q 1056 1369 1301 889 
Q 1547 409 2034 409 
Q 2525 409 2770 889 
Q 3016 1369 3016 2328 
Q 3016 3291 2770 3770 
Q 2525 4250 2034 4250 
z
M 2034 4750 
Q 2819 4750 3233 4129 
Q 3647 3509 3647 2328 
Q 3647 1150 3233 529 
Q 2819 -91 2034 -91 
Q 1250 -91 836 529 
Q 422 1150 422 2328 
Q 422 3509 836 4129 
Q 1250 4750 2034 4750 
z
" transform="scale(0.015625)"/>
        <path id="DejaVuSans-2e" d="M 684 794 
L 1344 794 
L 1344 0 
L 684 0 
L 684 794 
z
" transform="scale(0.015625)"/>
       </defs>
       <use xlink:href="#DejaVuSans-30"/>
       <use xlink:href="#DejaVuSans-2e" x="63.623047"/>
       <use xlink:href="#DejaVuSans-30" x="95.410156"/>
       <use xlink:href="#DejaVuSans-30" x="159.033203"/>
      </g>
     </g>
    </g>
    <g id="xtick_2">
     <g id="line2d_2">
      <g>
       <use xlink:href="#m23fdaf89de" x="72.218437" y="253.44" style="stroke: #000000; stroke-width: 0.8"/>
      </g>
     </g>
     <g id="text_2">
      <!-- 0.25 -->
      <g transform="translate(61.085625 268.038437) scale(0.1 -0.1)">
       <defs>
        <path id="DejaVuSans-32" d="M 1228 531 
L 3431 531 
L 3431 0 
L 469 0 
L 469 531 
Q 828 903 1448 1529 
Q 2069 2156 2228 2338 
Q 2531 2678 2651 2914 
Q 2772 3150 2772 3378 
Q 2772 3750 2511 3984 
Q 2250 4219 1831 4219 
Q 1534 4219 1204 4116 
Q 875 4013 500 3803 
L 500 4441 
Q 881 4594 1212 4672 
Q 1544 4750 1819 4750 
Q 2544 4750 2975 4387 
Q 3406 4025 3406 3419 
Q 3406 3131 3298 2873 
Q 3191 2616 2906 2266 
Q 2828 2175 2409 1742 
Q 1991 1309 1228 531 
z
" transform="scale(0.015625)"/>
        <path id="DejaVuSans-35" d="M 691 4666 
L 3169 4666 
L 3169 4134 
L 1269 4134 
L 1269 2991 
Q 1406 3038 1543 3061 
Q 1681 3084 1819 3084 
Q 2600 3084 3056 2656 
Q 3513 2228 3513 1497 
Q 3513 744 3044 326 
Q 2575 -91 1722 -91 
Q 1428 -91 1123 -41 
Q 819 9 494 109 
L 494 744 
Q 775 591 1075 516 
Q 1375 441 1709 441 
Q 2250 441 2565 725 
Q 2881 1009 2881 1497 
Q 2881 1984 2565 2268 
Q 2250 2553 1709 2553 
Q 1456 2553 1204 2497 
Q 953 2441 691 2322 
L 691 4666 
z
" transform="scale(0.015625)"/>
       </defs>
       <use xlink:href="#DejaVuSans-30"/>
       <use xlink:href="#DejaVuSans-2e" x="63.623047"/>
       <use xlink:href="#DejaVuSans-32" x="95.410156"/>
       <use xlink:href="#DejaVuSans-35" x="159.033203"/>
      </g>
     </g>
    </g>
    <g id="xtick_3">
     <g id="line2d_3">
      <g>
       <use xlink:href="#m23fdaf89de" x="114.068437" y="253.44" style="stroke: #000000; stroke-width: 0.8"/>
      </g>
     </g>
     <g id="text_3">
      <!-- 0.50 -->
      <g transform="translate(102.935625 268.038437) scale(0.1 -0.1)">
       <use xlink:href="#DejaVuSans-30"/>
       <use xlink:href="#DejaVuSans-2e" x="63.623047"/>
       <use xlink:href="#DejaVuSans-35" x="95.410156"/>
       <use xlink:href="#DejaVuSans-30" x="159.033203"/>
      </g>
     </g>
    </g>
    <g id="xtick_4">
     <g id="line2d_4">
      <g>
       <use xlink:href="#m23fdaf89de" x="155.918437" y="253.44" style="stroke: #000000; stroke-width: 0.8"/>
      </g>
     </g>
     <g id="text_4">
      <!-- 0.75 -->
      <g transform="translate(144.785625 268.038437) scale(0.1 -0.1)">
       <defs>
        <path id="DejaVuSans-37" d="M 525 4666 
L 3525 4666 
L 3525 4397 
L 1831 0 
L 1172 0 
L 2766 4134 
L 525 4134 
L 525 4666 
z
" transform="scale(0.015625)"/>
       </defs>
       <use xlink:href="#DejaVuSans-30"/>
       <use xlink:href="#DejaVuSans-2e" x="63.623047"/>
       <use xlink:href="#DejaVuSans-37" x="95.410156"/>
       <use xlink:href="#DejaVuSans-35" x="159.033203"/>
      </g>
     </g>
    </g>
    <g id="xtick_5">
     <g id="line2d_5">
      <g>
       <use xlink:href="#m23fdaf89de" x="197.768437" y="253.44" style="stroke: #000000; stroke-width: 0.8"/>
      </g>
     </g>
     <g id="text_5">
      <!-- 1.00 -->
      <g transform="translate(186.635625 268.038437) scale(0.1 -0.1)">
       <defs>
        <path id="DejaVuSans-31" d="M 794 531 
L 1825 531 
L 1825 4091 
L 703 3866 
L 703 4441 
L 1819 4666 
L 2450 4666 
L 2450 531 
L 3481 531 
L 3481 0 
L 794 0 
L 794 531 
z
" transform="scale(0.015625)"/>
       </defs>
       <use xlink:href="#DejaVuSans-31"/>
       <use xlink:href="#DejaVuSans-2e" x="63.623047"/>
       <use xlink:href="#DejaVuSans-30" x="95.410156"/>
       <use xlink:href="#DejaVuSans-30" x="159.033203"/>
      </g>
     </g>
    </g>
    <g id="xtick_6">
     <g id="line2d_6">
      <g>
       <use xlink:href="#m23fdaf89de" x="239.618437" y="253.44" style="stroke: #000000; stroke-width: 0.8"/>
      </g>
     </g>
     <g id="text_6">
      <!-- 1.25 -->
      <g transform="translate(228.485625 268.038437) scale(0.1 -0.1)">
       <use xlink:href="#DejaVuSans-31"/>
       <use xlink:href="#DejaVuSans-2e" x="63.623047"/>
       <use xlink:href="#DejaVuSans-32" x="95.410156"/>
       <use xlink:href="#DejaVuSans-35" x="159.033203"/>
      </g>
     </g>
    </g>
    <g id="xtick_7">
     <g id="line2d_7">
      <g>
       <use xlink:href="#m23fdaf89de" x="281.468437" y="253.44" style="stroke: #000000; stroke-width: 0.8"/>
      </g>
     </g>
     <g id="text_7">
      <!-- 1.50 -->
      <g transform="translate(270.335625 268.038437) scale(0.1 -0.1)">
       <use xlink:href="#DejaVuSans-31"/>
       <use xlink:href="#DejaVuSans-2e" x="63.623047"/>
       <use xlink:href="#DejaVuSans-35" x="95.410156"/>
       <use xlink:href="#DejaVuSans-30" x="159.033203"/>
      </g>
     </g>
    </g>
    <g id="xtick_8">
     <g id="line2d_8">
      <g>
       <use xlink:href="#m23fdaf89de" x="323.318437" y="253.44" style="stroke: #000000; stroke-width: 0.8"/>
      </g>
     </g>
     <g id="text_8">
      <!-- 1.75 -->
      <g transform="translate(312.185625 268.038437) scale(0.1 -0.1)">
       <use xlink:href="#DejaVuSans-31"/>
       <use xlink:href="#DejaVuSans-2e" x="63.623047"/>
       <use xlink:href="#DejaVuSans-37" x="95.410156"/>
       <use xlink:href="#DejaVuSans-35" x="159.033203"/>
      </g>
     </g>
    </g>
    <g id="xtick_9">
     <g id="line2d_9">
      <g>
       <use xlink:href="#m23fdaf89de" x="365.168437" y="253.44" style="stroke: #000000; stroke-width: 0.8"/>
      </g>
     </g>
     <g id="text_9">
      <!-- 2.00 -->
      <g transform="translate(354.035625 268.038437) scale(0.1 -0.1)">
       <use xlink:href="#DejaVuSans-32"/>
       <use xlink:href="#DejaVuSans-2e" x="63.623047"/>
       <use xlink:href="#DejaVuSans-30" x="95.410156"/>
       <use xlink:href="#DejaVuSans-30" x="159.033203"/>
      </g>
     </g>
    </g>
    <g id="text_10">
     <!-- $t$ -->
     <g transform="translate(195.768437 281.716562) scale(0.1 -0.1)">
      <defs>
       <path id="DejaVuSans-Oblique-74" d="M 2706 3500 
L 2619 3053 
L 1472 3053 
L 1100 1153 
Q 1081 1047 1072 975 
Q 1063 903 1063 863 
Q 1063 663 1183 572 
Q 1303 481 1569 481 
L 2150 481 
L 2053 0 
L 1503 0 
Q 991 0 739 200 
Q 488 400 488 806 
Q 488 878 497 964 
Q 506 1050 525 1153 
L 897 3053 
L 409 3053 
L 500 3500 
L 978 3500 
L 1172 4494 
L 1747 4494 
L 1556 3500 
L 2706 3500 
z
" transform="scale(0.015625)"/>
      </defs>
      <use xlink:href="#DejaVuSans-Oblique-74" transform="translate(0 0.78125)"/>
     </g>
    </g>
   </g>
   <g id="matplotlib.axis_2">
    <g id="ytick_1">
     <g id="line2d_10">
      <defs>
       <path id="m08425ca84f" d="M 0 0 
L -3.5 0 
" style="stroke: #000000; stroke-width: 0.8"/>
      </defs>
      <g>
       <use xlink:href="#m08425ca84f" x="30.368437" y="236.155112" style="stroke: #000000; stroke-width: 0.8"/>
      </g>
     </g>
     <g id="text_11">
      <!-- 0.0 -->
      <g transform="translate(7.465312 239.95433) scale(0.1 -0.1)">
       <use xlink:href="#DejaVuSans-30"/>
       <use xlink:href="#DejaVuSans-2e" x="63.623047"/>
       <use xlink:href="#DejaVuSans-30" x="95.410156"/>
      </g>
     </g>
    </g>
    <g id="ytick_2">
     <g id="line2d_11">
      <g>
       <use xlink:href="#m08425ca84f" x="30.368437" y="192.71545" style="stroke: #000000; stroke-width: 0.8"/>
      </g>
     </g>
     <g id="text_12">
      <!-- 0.2 -->
      <g transform="translate(7.465312 196.514669) scale(0.1 -0.1)">
       <use xlink:href="#DejaVuSans-30"/>
       <use xlink:href="#DejaVuSans-2e" x="63.623047"/>
       <use xlink:href="#DejaVuSans-32" x="95.410156"/>
      </g>
     </g>
    </g>
    <g id="ytick_3">
     <g id="line2d_12">
      <g>
       <use xlink:href="#m08425ca84f" x="30.368437" y="149.275789" style="stroke: #000000; stroke-width: 0.8"/>
      </g>
     </g>
     <g id="text_13">
      <!-- 0.4 -->
      <g transform="translate(7.465312 153.075008) scale(0.1 -0.1)">
       <defs>
        <path id="DejaVuSans-34" d="M 2419 4116 
L 825 1625 
L 2419 1625 
L 2419 4116 
z
M 2253 4666 
L 3047 4666 
L 3047 1625 
L 3713 1625 
L 3713 1100 
L 3047 1100 
L 3047 0 
L 2419 0 
L 2419 1100 
L 313 1100 
L 313 1709 
L 2253 4666 
z
" transform="scale(0.015625)"/>
       </defs>
       <use xlink:href="#DejaVuSans-30"/>
       <use xlink:href="#DejaVuSans-2e" x="63.623047"/>
       <use xlink:href="#DejaVuSans-34" x="95.410156"/>
      </g>
     </g>
    </g>
    <g id="ytick_4">
     <g id="line2d_13">
      <g>
       <use xlink:href="#m08425ca84f" x="30.368437" y="105.836128" style="stroke: #000000; stroke-width: 0.8"/>
      </g>
     </g>
     <g id="text_14">
      <!-- 0.6 -->
      <g transform="translate(7.465312 109.635347) scale(0.1 -0.1)">
       <defs>
        <path id="DejaVuSans-36" d="M 2113 2584 
Q 1688 2584 1439 2293 
Q 1191 2003 1191 1497 
Q 1191 994 1439 701 
Q 1688 409 2113 409 
Q 2538 409 2786 701 
Q 3034 994 3034 1497 
Q 3034 2003 2786 2293 
Q 2538 2584 2113 2584 
z
M 3366 4563 
L 3366 3988 
Q 3128 4100 2886 4159 
Q 2644 4219 2406 4219 
Q 1781 4219 1451 3797 
Q 1122 3375 1075 2522 
Q 1259 2794 1537 2939 
Q 1816 3084 2150 3084 
Q 2853 3084 3261 2657 
Q 3669 2231 3669 1497 
Q 3669 778 3244 343 
Q 2819 -91 2113 -91 
Q 1303 -91 875 529 
Q 447 1150 447 2328 
Q 447 3434 972 4092 
Q 1497 4750 2381 4750 
Q 2619 4750 2861 4703 
Q 3103 4656 3366 4563 
z
" transform="scale(0.015625)"/>
       </defs>
       <use xlink:href="#DejaVuSans-30"/>
       <use xlink:href="#DejaVuSans-2e" x="63.623047"/>
       <use xlink:href="#DejaVuSans-36" x="95.410156"/>
      </g>
     </g>
    </g>
    <g id="ytick_5">
     <g id="line2d_14">
      <g>
       <use xlink:href="#m08425ca84f" x="30.368437" y="62.396467" style="stroke: #000000; stroke-width: 0.8"/>
      </g>
     </g>
     <g id="text_15">
      <!-- 0.8 -->
      <g transform="translate(7.465312 66.195686) scale(0.1 -0.1)">
       <defs>
        <path id="DejaVuSans-38" d="M 2034 2216 
Q 1584 2216 1326 1975 
Q 1069 1734 1069 1313 
Q 1069 891 1326 650 
Q 1584 409 2034 409 
Q 2484 409 2743 651 
Q 3003 894 3003 1313 
Q 3003 1734 2745 1975 
Q 2488 2216 2034 2216 
z
M 1403 2484 
Q 997 2584 770 2862 
Q 544 3141 544 3541 
Q 544 4100 942 4425 
Q 1341 4750 2034 4750 
Q 2731 4750 3128 4425 
Q 3525 4100 3525 3541 
Q 3525 3141 3298 2862 
Q 3072 2584 2669 2484 
Q 3125 2378 3379 2068 
Q 3634 1759 3634 1313 
Q 3634 634 3220 271 
Q 2806 -91 2034 -91 
Q 1263 -91 848 271 
Q 434 634 434 1313 
Q 434 1759 690 2068 
Q 947 2378 1403 2484 
z
M 1172 3481 
Q 1172 3119 1398 2916 
Q 1625 2713 2034 2713 
Q 2441 2713 2670 2916 
Q 2900 3119 2900 3481 
Q 2900 3844 2670 4047 
Q 2441 4250 2034 4250 
Q 1625 4250 1398 4047 
Q 1172 3844 1172 3481 
z
" transform="scale(0.015625)"/>
       </defs>
       <use xlink:href="#DejaVuSans-30"/>
       <use xlink:href="#DejaVuSans-2e" x="63.623047"/>
       <use xlink:href="#DejaVuSans-38" x="95.410156"/>
      </g>
     </g>
    </g>
   </g>
   <g id="line2d_15">
    <path d="M 30.535837 236.155112 
L 30.870637 234.867642 
L 31.038037 236.769258 
L 31.205437 237.343258 
L 31.372837 233.389491 
L 31.540237 238.886105 
L 31.875037 225.956134 
L 32.042437 237.105845 
L 32.209837 236.090515 
L 32.544637 242.440934 
L 32.712037 229.148487 
L 32.879437 226.377731 
L 33.214237 237.112574 
L 33.381637 237.980091 
L 33.549037 232.227263 
L 33.716437 237.546871 
L 33.883837 228.606417 
L 34.051237 230.60067 
L 34.218637 230.810094 
L 34.386037 237.492764 
L 34.553437 232.267389 
L 34.720837 230.932036 
L 35.055637 239.774135 
L 35.223037 229.666942 
L 35.390437 226.634137 
L 35.892637 243.556364 
L 36.227437 230.748866 
L 36.394837 233.609504 
L 36.729637 228.660898 
L 36.897037 227.165032 
L 37.064437 236.720406 
L 37.399237 236.828782 
L 37.566637 228.461388 
L 37.734037 226.072551 
L 38.068837 232.374249 
L 38.236237 229.896194 
L 38.403637 230.491808 
L 38.571037 229.694298 
L 38.738437 230.111284 
L 39.073237 221.686254 
L 39.575437 228.11469 
L 39.742837 223.639401 
L 39.910237 235.500707 
L 40.077637 225.735367 
L 40.245037 223.933989 
L 40.412437 227.151025 
L 40.579837 223.347198 
L 40.747237 231.461763 
L 41.249437 219.378039 
L 41.416837 229.993476 
L 41.919037 215.870407 
L 42.086437 227.300144 
L 42.253837 228.805142 
L 42.588637 214.98131 
L 42.756037 219.25472 
L 42.923437 219.018067 
L 43.258237 226.079285 
L 43.425637 215.342709 
L 43.593037 218.54727 
L 43.760437 214.083286 
L 43.927837 215.484204 
L 44.095237 223.513139 
L 44.430037 217.376201 
L 44.597437 221.777435 
L 44.764837 219.522186 
L 44.932237 214.964721 
L 45.099637 220.718545 
L 45.267037 214.91582 
L 45.434437 216.077587 
L 45.601837 221.130132 
L 45.936637 216.550521 
L 46.104037 217.001641 
L 46.438837 219.194798 
L 46.606237 208.106003 
L 46.941037 219.56157 
L 47.108437 212.304668 
L 47.275837 221.274915 
L 47.443237 218.909205 
L 47.610637 221.98142 
L 47.778037 213.251827 
L 47.945437 219.1683 
L 48.112837 214.4944 
L 48.280237 213.119512 
L 48.447637 212.774049 
L 48.615037 214.475327 
L 48.782437 220.314777 
L 48.949837 211.185477 
L 49.284637 220.579887 
L 49.619437 211.607697 
L 49.954237 212.404708 
L 50.289037 208.619043 
L 50.623837 214.130671 
L 50.791237 209.177134 
L 50.958637 217.526407 
L 51.126037 213.100136 
L 51.293437 212.973588 
L 51.460837 212.641993 
L 51.795637 221.804503 
L 51.963037 218.926844 
L 52.130437 208.360469 
L 52.297837 211.648539 
L 52.465237 217.375943 
L 52.800037 209.331304 
L 52.967437 210.950969 
L 53.134837 218.795766 
L 53.302237 211.949166 
L 53.469637 217.954369 
L 53.637037 212.947242 
L 53.804437 215.954304 
L 53.971837 210.750077 
L 54.139237 211.560295 
L 54.306637 213.717882 
L 54.474037 210.950808 
L 54.641437 210.94666 
L 54.976237 215.769922 
L 55.311037 200.481269 
L 55.645837 210.90021 
L 55.813237 211.617989 
L 55.980637 214.626172 
L 56.482837 203.76358 
L 56.650237 207.876413 
L 56.817637 201.222757 
L 57.152437 210.117184 
L 57.319837 207.160028 
L 57.487237 206.72794 
L 57.654637 209.456755 
L 57.822037 209.164554 
L 58.156837 210.021021 
L 58.491637 204.904688 
L 58.659037 200.606851 
L 58.826437 203.984554 
L 58.993837 203.763944 
L 59.161237 202.284858 
L 59.328637 208.922758 
L 59.496037 204.310561 
L 59.663437 211.601047 
L 59.830837 202.35316 
L 59.998237 203.506158 
L 60.165637 201.93344 
L 60.333037 210.716283 
L 60.667837 198.31666 
L 60.835237 201.845143 
L 61.170037 195.065474 
L 61.672237 206.736162 
L 61.839637 202.306608 
L 62.174437 207.398047 
L 62.341837 202.608376 
L 62.676637 205.267068 
L 63.011437 192.852599 
L 63.178837 198.86465 
L 63.346237 199.308406 
L 63.513637 199.377309 
L 63.681037 199.003617 
L 63.848437 204.083205 
L 64.183237 202.228999 
L 64.518037 196.666337 
L 64.685437 200.673673 
L 64.852837 201.568328 
L 65.020237 195.984897 
L 65.355037 198.700424 
L 65.522437 203.512993 
L 65.857237 195.99259 
L 66.024637 201.611403 
L 66.192037 201.104402 
L 66.359437 203.425345 
L 66.526837 199.957581 
L 66.694237 202.229648 
L 66.861637 195.022276 
L 67.029037 202.925368 
L 67.196437 203.761686 
L 67.363837 200.954994 
L 67.531237 192.728512 
L 67.698637 190.913045 
L 68.033437 197.666196 
L 68.200837 197.056023 
L 68.535637 192.394867 
L 68.870437 198.810161 
L 69.037837 197.775015 
L 69.205237 190.042685 
L 69.540037 198.277436 
L 69.707437 198.103766 
L 69.874837 187.206405 
L 70.042237 185.569417 
L 70.209637 200.886929 
L 70.377037 199.262766 
L 70.544437 200.710812 
L 70.879237 187.988973 
L 71.046637 196.309525 
L 71.214037 191.653747 
L 71.381437 193.272346 
L 71.548837 189.007284 
L 71.716237 189.687572 
L 71.883637 197.504482 
L 72.218437 191.674431 
L 72.385837 195.869923 
L 72.553237 193.309067 
L 72.720637 193.000939 
L 72.888037 191.397081 
L 73.055437 193.819878 
L 73.222837 189.121781 
L 73.390237 192.887057 
L 73.557637 193.178078 
L 73.892437 186.612251 
L 74.059837 185.704814 
L 74.227237 190.869529 
L 74.394637 187.549472 
L 74.562037 192.197567 
L 74.729437 191.681604 
L 74.896837 190.108297 
L 75.064237 190.255374 
L 75.399037 196.816618 
L 75.566437 187.074843 
L 75.733837 191.029354 
L 75.901237 190.3011 
L 76.068637 193.404448 
L 76.236037 190.918318 
L 76.403437 185.214371 
L 76.570837 190.967352 
L 76.738237 181.5924 
L 76.905637 184.728478 
L 77.073037 193.076186 
L 77.240437 194.200724 
L 77.407837 187.698942 
L 77.742637 195.359076 
L 78.077437 183.495364 
L 78.244837 187.357483 
L 78.412237 185.485242 
L 78.579637 192.577655 
L 78.747037 193.229149 
L 78.914437 182.730364 
L 79.081837 182.761222 
L 79.249237 183.88727 
L 79.416637 186.074201 
L 79.584037 189.9095 
L 79.751437 189.463639 
L 79.918837 191.023889 
L 80.086237 193.98577 
L 80.253637 191.560478 
L 80.588437 179.483308 
L 80.923237 188.871323 
L 81.258037 183.719893 
L 81.425437 179.72896 
L 81.592837 187.605251 
L 81.760237 179.319921 
L 81.927637 179.549469 
L 82.095037 191.375873 
L 82.262437 191.76506 
L 82.429837 190.874082 
L 82.597237 181.544702 
L 82.764637 184.856443 
L 82.932037 179.435771 
L 83.099437 188.07241 
L 83.266837 187.900966 
L 83.434237 182.236621 
L 83.601637 183.582401 
L 83.769037 190.119195 
L 83.936437 181.561835 
L 84.103837 179.59459 
L 84.438637 186.985565 
L 84.606037 186.016849 
L 85.108237 176.209574 
L 85.443037 190.469302 
L 85.610437 181.510469 
L 85.777837 183.35972 
L 85.945237 179.728497 
L 86.112637 187.266778 
L 86.280037 175.672349 
L 86.447437 186.221071 
L 86.782237 180.363802 
L 86.949637 179.854701 
L 87.117037 177.999685 
L 87.284437 177.907877 
L 87.619237 191.521489 
L 87.786637 181.577823 
L 87.954037 183.681167 
L 88.121437 179.157132 
L 88.288837 180.930426 
L 88.456237 179.722797 
L 88.623637 181.438135 
L 88.791037 184.335963 
L 88.958437 184.865453 
L 89.293237 178.771455 
L 89.460637 182.765832 
L 89.628037 176.559407 
L 89.795437 177.475238 
L 89.962837 175.422644 
L 90.297637 179.389434 
L 90.465037 177.702939 
L 90.632437 178.658356 
L 90.799837 175.298038 
L 90.967237 180.514611 
L 91.134637 177.491047 
L 91.302037 167.811459 
L 91.469437 171.398243 
L 91.636837 185.555738 
L 91.804237 186.53651 
L 92.139037 178.869728 
L 92.306437 176.418177 
L 92.473837 180.136138 
L 92.641237 177.070869 
L 92.808637 180.096171 
L 92.976037 178.135807 
L 93.143437 178.085901 
L 93.310837 189.178989 
L 93.645637 173.688263 
L 93.813037 179.908957 
L 93.980437 178.914153 
L 94.147837 173.350265 
L 94.315237 176.449712 
L 94.482637 171.196888 
L 94.817437 173.557664 
L 95.152237 167.600327 
L 95.319637 176.630811 
L 95.487037 178.294334 
L 95.654437 176.359193 
L 95.821837 179.485098 
L 95.989237 178.529349 
L 96.156637 179.390859 
L 96.324037 178.999627 
L 96.658837 169.87405 
L 96.826237 172.025574 
L 96.993637 178.810226 
L 97.161037 180.713612 
L 97.328437 172.925076 
L 97.495837 175.949295 
L 97.663237 175.084874 
L 97.998037 166.02943 
L 98.165437 170.290089 
L 98.332837 166.073812 
L 98.500237 176.155639 
L 98.667637 171.877251 
L 98.835037 164.669701 
L 99.169837 176.319156 
L 99.504637 165.366299 
L 99.839437 168.82163 
L 100.006837 169.788001 
L 100.174237 173.000656 
L 100.341637 168.210791 
L 100.509037 170.842153 
L 100.676437 170.561265 
L 101.011237 164.903709 
L 101.178637 173.51431 
L 101.346037 173.093859 
L 101.513437 172.153366 
L 101.680837 165.073297 
L 101.848237 171.24431 
L 102.015637 170.360723 
L 102.183037 172.787491 
L 102.517837 168.729566 
L 102.852637 173.945869 
L 103.020037 159.555704 
L 103.354837 163.049296 
L 103.522237 167.153609 
L 103.689637 160.522287 
L 103.857037 168.169656 
L 104.024437 166.076165 
L 104.191837 167.036062 
L 104.359237 162.976902 
L 104.526637 164.66791 
L 104.694037 167.529415 
L 105.028837 160.134238 
L 105.196237 164.24759 
L 105.531037 161.429202 
L 105.698437 167.926177 
L 105.865837 159.781641 
L 106.033237 160.302019 
L 106.200637 159.23949 
L 106.368037 164.338281 
L 106.535437 159.431315 
L 106.870237 160.633502 
L 107.205037 158.224787 
L 107.372437 163.669713 
L 107.539837 156.860759 
L 107.707237 169.068493 
L 107.874637 170.190614 
L 108.209437 156.587016 
L 108.376837 161.646671 
L 108.544237 157.249924 
L 108.879037 169.531434 
L 109.046437 160.489554 
L 109.213837 160.21624 
L 109.381237 161.535906 
L 109.716037 150.933646 
L 109.883437 160.291824 
L 110.050838 156.027414 
L 110.218237 155.750957 
L 110.385637 161.34486 
L 110.553037 160.659457 
L 110.720437 157.207111 
L 110.887837 158.458034 
L 111.055237 161.418002 
L 111.390037 155.191584 
L 111.557437 155.956068 
L 111.724837 155.724932 
L 111.892237 162.305082 
L 112.059637 161.961844 
L 112.394437 147.842586 
L 112.561837 148.136382 
L 112.896637 157.799778 
L 113.064037 158.012541 
L 113.231437 161.916315 
L 113.398837 151.571307 
L 113.733637 155.00485 
L 113.901037 153.211428 
L 114.068437 161.543401 
L 114.403237 149.342688 
L 114.570637 148.877563 
L 114.738037 157.377102 
L 114.905437 159.370766 
L 115.240237 150.001123 
L 115.407637 158.893551 
L 115.575037 149.675613 
L 115.742437 150.268503 
L 116.077237 156.039422 
L 116.244637 153.964248 
L 116.579437 146.967056 
L 116.914237 155.318841 
L 117.081637 146.095666 
L 117.249037 143.81378 
L 117.416437 148.217412 
L 117.583837 149.100457 
L 117.918637 157.80244 
L 118.086037 155.039225 
L 118.420837 143.664284 
L 118.588237 140.625938 
L 118.923037 148.971027 
L 119.090437 148.332793 
L 119.257837 148.956011 
L 119.425237 152.937438 
L 119.592637 154.080677 
L 119.760037 154.007863 
L 120.094837 138.773569 
L 120.429637 149.095498 
L 120.597037 140.140487 
L 120.931838 148.239749 
L 121.099238 142.245501 
L 121.266637 141.652451 
L 121.434037 151.692952 
L 121.601437 147.428752 
L 121.768837 135.690576 
L 122.103637 141.844389 
L 122.271037 142.525067 
L 122.438437 145.637806 
L 122.605837 138.505537 
L 122.773237 143.729542 
L 122.940637 134.188639 
L 123.275437 143.289115 
L 123.442837 139.855381 
L 123.610237 140.179289 
L 123.777637 146.310186 
L 123.945037 136.520251 
L 124.112437 137.373891 
L 124.279837 144.803042 
L 124.614638 129.32793 
L 124.949438 142.414359 
L 125.116838 138.048182 
L 125.284238 145.568647 
L 125.619038 136.109429 
L 125.786438 136.007034 
L 125.953837 136.6723 
L 126.121237 136.582934 
L 126.288637 133.70004 
L 126.623437 139.902516 
L 126.790837 130.895377 
L 127.125637 142.032105 
L 127.293037 142.607147 
L 127.627837 131.562382 
L 127.795237 133.618605 
L 127.962637 140.956192 
L 128.130037 131.745744 
L 128.464837 141.279471 
L 128.632237 130.73542 
L 128.799637 131.623984 
L 129.134437 130.143626 
L 129.301837 132.658392 
L 129.469237 128.29741 
L 129.804037 137.272676 
L 129.971437 135.381372 
L 130.138837 137.052121 
L 130.306237 133.938602 
L 130.473637 124.663475 
L 130.641037 127.570509 
L 130.808437 127.489007 
L 130.975837 136.261071 
L 131.143237 135.384062 
L 131.310637 130.947726 
L 131.478037 131.035725 
L 131.645437 121.787653 
L 131.980237 137.60266 
L 132.147637 137.823783 
L 132.315037 129.051029 
L 132.649837 124.841151 
L 132.984637 131.053929 
L 133.319437 126.326061 
L 133.486837 131.501749 
L 133.654237 126.625733 
L 134.156437 137.546098 
L 134.323837 120.163057 
L 134.491237 124.027543 
L 134.658637 136.599534 
L 134.826037 130.203291 
L 134.993437 129.560889 
L 135.328237 120.796329 
L 135.495637 133.396404 
L 135.830437 125.172402 
L 135.997837 132.148866 
L 136.500037 122.135259 
L 136.667437 130.919608 
L 136.834837 129.070535 
L 137.002237 132.207237 
L 137.169637 124.710006 
L 137.337037 124.262983 
L 137.839237 130.063362 
L 138.006637 119.941481 
L 138.174037 119.911717 
L 138.341437 119.744541 
L 138.676237 136.017729 
L 139.011037 121.720238 
L 139.178437 122.935429 
L 139.345837 122.325496 
L 139.513237 127.426823 
L 139.848037 114.99409 
L 140.182837 135.177315 
L 140.350237 115.170107 
L 140.517637 124.712227 
L 140.685037 126.287604 
L 140.852437 118.609862 
L 141.019837 123.452567 
L 141.187237 121.03856 
L 141.354637 122.519291 
L 141.522037 126.315034 
L 141.689437 117.806833 
L 141.856837 120.863001 
L 142.024237 118.46407 
L 142.191637 126.38181 
L 142.526437 111.622169 
L 142.861237 123.607998 
L 143.028638 124.020014 
L 143.196037 125.776118 
L 143.363437 117.270596 
L 143.698237 121.839356 
L 143.865637 124.576491 
L 144.033037 121.646469 
L 144.200437 123.520106 
L 144.367837 128.556276 
L 144.535237 116.727763 
L 144.702637 115.905417 
L 144.870037 122.843491 
L 145.204837 118.397143 
L 145.372237 120.16762 
L 145.539637 117.192394 
L 145.707037 132.268111 
L 146.041837 115.825077 
L 146.209238 116.225576 
L 146.376637 124.105906 
L 146.544038 115.273019 
L 146.711437 118.227231 
L 146.878838 116.597645 
L 147.046237 120.609936 
L 147.213638 119.386252 
L 147.381037 124.130543 
L 147.715837 117.931479 
L 147.883238 115.469579 
L 148.050637 117.44366 
L 148.218037 120.944646 
L 148.385437 117.517724 
L 148.552837 117.064572 
L 148.720237 124.116696 
L 148.887637 118.888704 
L 149.055037 120.545924 
L 149.222437 120.44966 
L 149.557237 111.272473 
L 149.724637 117.566589 
L 149.892037 116.863297 
L 150.059437 117.438526 
L 150.226837 118.962989 
L 150.394237 121.723814 
L 150.561637 117.754439 
L 150.729037 118.726584 
L 150.896437 126.028179 
L 151.063837 116.175206 
L 151.231237 113.376177 
L 151.398637 119.652367 
L 151.566037 116.396927 
L 151.733437 116.894189 
L 151.900837 119.11077 
L 152.068237 114.351531 
L 152.235637 119.041111 
L 152.403037 111.965049 
L 152.570437 117.102752 
L 152.737837 111.630521 
L 152.905237 117.284612 
L 153.072637 115.861549 
L 153.407437 121.213785 
L 153.574837 120.151452 
L 153.742237 114.738813 
L 153.909637 117.756777 
L 154.077037 113.121011 
L 154.244437 117.52987 
L 154.411837 112.088417 
L 154.579237 116.144699 
L 154.746637 116.47842 
L 154.914037 123.985445 
L 155.081437 110.722488 
L 155.248837 112.746778 
L 155.583637 109.440183 
L 155.751037 118.253673 
L 155.918437 119.39512 
L 156.085837 119.206085 
L 156.253237 121.954385 
L 156.420637 111.9137 
L 156.755437 120.316241 
L 156.922837 120.270261 
L 157.090237 108.091026 
L 157.257637 105.920569 
L 157.425037 110.477254 
L 157.592437 121.565581 
L 157.927237 113.084536 
L 158.094637 110.645272 
L 158.262037 117.221343 
L 158.429437 111.929028 
L 158.764237 119.355648 
L 159.099037 108.848556 
L 159.433837 120.065894 
L 159.768637 112.565759 
L 160.103437 109.704635 
L 160.438237 116.097999 
L 160.605637 107.520345 
L 160.773037 105.640261 
L 160.940437 111.191689 
L 161.107837 109.163109 
L 161.275237 122.372754 
L 161.442637 120.951683 
L 161.610037 104.713253 
L 161.777437 108.38064 
L 161.944837 116.88905 
L 162.112237 117.552138 
L 162.279637 113.110656 
L 162.447037 112.913068 
L 162.614437 115.217798 
L 162.781837 109.624816 
L 163.116637 114.27997 
L 163.284037 109.876598 
L 163.451437 110.011004 
L 163.786237 107.033828 
L 163.953637 115.85638 
L 164.121037 106.905521 
L 164.288437 105.925879 
L 164.455837 111.94892 
L 164.623237 112.895303 
L 164.790637 112.74415 
L 164.958037 112.019367 
L 165.125437 115.300535 
L 165.292837 110.242753 
L 165.460237 110.692224 
L 165.627637 111.682747 
L 165.962437 108.305272 
L 166.129837 109.045139 
L 166.297237 116.681939 
L 166.464637 112.623095 
L 166.632037 101.626337 
L 166.966837 119.56253 
L 167.134237 101.97467 
L 167.301637 110.228515 
L 167.469037 110.942778 
L 167.636437 113.119314 
L 167.803837 104.60121 
L 167.971237 106.943933 
L 168.306037 117.288401 
L 168.473437 107.313582 
L 168.640837 105.759818 
L 168.808237 109.437391 
L 168.975637 110.436561 
L 169.310437 105.913891 
L 169.477837 112.100024 
L 169.645237 106.617189 
L 169.812637 115.293414 
L 169.980037 114.007584 
L 170.147437 116.003876 
L 170.314837 101.570317 
L 170.482237 106.87747 
L 170.649637 105.871642 
L 170.817037 114.368384 
L 171.151837 107.092345 
L 171.319237 108.073237 
L 171.486637 108.29669 
L 171.654037 107.274847 
L 171.821437 115.188353 
L 171.988837 115.840962 
L 172.156237 102.083486 
L 172.491037 117.727367 
L 172.658437 106.365767 
L 173.160637 111.081628 
L 173.495437 112.079069 
L 173.662837 106.605905 
L 173.830237 106.220446 
L 173.997637 106.867747 
L 174.165037 106.902175 
L 174.332437 104.116271 
L 174.667237 109.16527 
L 174.834637 108.959427 
L 175.169437 105.815917 
L 175.336837 111.574725 
L 175.504237 122.721705 
L 175.671637 108.3605 
L 175.839037 104.113202 
L 176.173837 111.519127 
L 176.508637 98.326328 
L 176.676037 107.70697 
L 177.010837 105.451354 
L 177.178237 109.937036 
L 177.345637 110.801 
L 177.513037 108.373538 
L 177.680437 100.036919 
L 177.847837 108.49073 
L 178.015237 107.111889 
L 178.182637 99.820994 
L 178.517437 104.762287 
L 178.684837 103.933723 
L 178.852237 112.055686 
L 179.019637 106.147008 
L 179.354437 115.054307 
L 179.689237 102.042985 
L 179.856637 105.790219 
L 180.024037 103.762779 
L 180.191437 99.968923 
L 180.358837 107.914703 
L 180.526237 99.302069 
L 180.693637 106.137051 
L 180.861037 105.267658 
L 181.028437 96.927365 
L 181.195837 113.13953 
L 181.530637 103.748613 
L 182.032837 109.923007 
L 182.200237 101.469109 
L 182.367637 99.61057 
L 182.702437 107.792605 
L 182.869837 109.607879 
L 183.037237 102.687317 
L 183.372037 108.923278 
L 183.539437 107.881342 
L 183.706837 108.912074 
L 183.874237 109.093566 
L 184.209037 100.509034 
L 184.376437 107.356878 
L 184.543837 98.482353 
L 184.711237 98.087156 
L 184.878637 113.356871 
L 185.046037 105.962962 
L 185.380837 105.697038 
L 185.548237 101.440025 
L 185.715637 103.495853 
L 185.883037 112.924657 
L 186.050437 102.580992 
L 186.385237 99.093586 
L 186.720037 106.993573 
L 186.887437 100.698273 
L 187.054837 100.649222 
L 187.389637 109.010387 
L 187.557037 109.725105 
L 187.724437 109.951785 
L 187.891837 104.397773 
L 188.059237 104.972296 
L 188.226637 107.746383 
L 188.394037 107.077378 
L 188.561437 108.724179 
L 188.728837 97.863798 
L 189.063637 110.749371 
L 189.231037 106.7263 
L 189.398438 97.421417 
L 189.565837 101.567999 
L 189.733238 109.990764 
L 189.900637 99.965967 
L 190.068037 105.139889 
L 190.235437 102.070105 
L 190.402837 94.80999 
L 190.737637 106.340916 
L 190.905037 104.665634 
L 191.072437 101.077679 
L 191.407237 108.175035 
L 191.574637 103.715711 
L 191.909437 109.440899 
L 192.076837 103.885325 
L 192.244237 105.311828 
L 192.579037 102.822552 
L 192.746437 105.488049 
L 192.913837 99.41053 
L 193.081237 106.410881 
L 193.248637 106.613276 
L 193.583437 97.034166 
L 193.750837 103.235487 
L 193.918237 102.942671 
L 194.085637 105.899409 
L 194.420437 97.239307 
L 194.587837 101.344544 
L 194.922637 102.35298 
L 195.090037 105.167676 
L 195.592237 98.972171 
L 195.759637 104.822188 
L 195.927037 105.491296 
L 196.094437 99.420033 
L 196.261837 104.924521 
L 196.429237 106.666485 
L 196.596637 106.746502 
L 196.764037 101.006644 
L 196.931437 103.278031 
L 197.098837 102.684109 
L 197.266237 101.382698 
L 197.433637 95.994795 
L 197.768437 111.961453 
L 197.935837 90.46881 
L 198.270637 109.883466 
L 198.438037 100.413105 
L 198.605437 98.488221 
L 198.772837 99.853951 
L 198.940237 108.990327 
L 199.275037 96.557089 
L 199.609837 102.008796 
L 199.777237 94.151439 
L 200.112037 103.43147 
L 200.279438 100.337196 
L 200.446837 102.218327 
L 200.614238 100.623953 
L 200.781637 97.626363 
L 200.949038 101.879557 
L 201.116437 97.29736 
L 201.451237 98.369465 
L 201.618638 103.083446 
L 201.786037 95.436896 
L 202.120837 108.341226 
L 202.455637 97.030608 
L 202.623037 108.431921 
L 202.790437 104.976827 
L 202.957837 97.820996 
L 203.125237 101.004967 
L 203.292637 98.226036 
L 203.460037 104.19049 
L 203.627437 98.273357 
L 203.794837 96.594386 
L 203.962237 102.336214 
L 204.129637 101.779222 
L 204.297037 93.527289 
L 204.464437 99.829429 
L 204.631837 99.309421 
L 204.799237 102.901146 
L 204.966637 94.878059 
L 205.301437 100.180777 
L 205.468837 96.977416 
L 205.636237 99.254034 
L 205.971037 107.688914 
L 206.473237 93.29375 
L 206.640637 101.238767 
L 206.808037 101.333897 
L 206.975437 90.412994 
L 207.310237 102.030855 
L 207.645037 98.617933 
L 207.812437 101.685362 
L 207.979837 95.358934 
L 208.147237 96.781619 
L 208.314637 107.293276 
L 208.482037 102.655974 
L 208.649437 92.803294 
L 208.816837 95.221521 
L 208.984237 105.104888 
L 209.151637 101.053165 
L 209.319037 99.775064 
L 209.486437 99.570534 
L 209.653837 93.507857 
L 209.821237 105.456183 
L 209.988637 104.828428 
L 210.156037 95.304447 
L 210.323437 102.126641 
L 210.490837 103.456311 
L 210.658237 90.169249 
L 210.993037 107.712297 
L 211.160438 97.179591 
L 211.327837 101.597464 
L 211.495238 94.93833 
L 211.662637 97.298207 
L 211.830038 97.59197 
L 211.997437 100.076516 
L 212.164837 100.359854 
L 212.332237 94.333647 
L 212.499637 97.488439 
L 212.667037 95.361664 
L 212.834437 96.727508 
L 213.001837 94.356495 
L 213.336637 101.515703 
L 213.838837 97.812175 
L 214.006237 96.05603 
L 214.173637 92.756569 
L 214.341037 98.006566 
L 214.508437 92.876883 
L 214.675837 99.572143 
L 214.843237 93.734338 
L 215.010637 96.115574 
L 215.178037 101.138812 
L 215.345437 99.117186 
L 215.512837 99.335679 
L 215.680237 93.205047 
L 215.847637 109.771436 
L 216.015037 95.220278 
L 216.182437 96.801883 
L 216.349837 103.239267 
L 216.517237 100.613909 
L 216.684637 90.049823 
L 217.019437 97.640812 
L 217.186837 98.016539 
L 217.354237 97.30514 
L 217.521637 91.520275 
L 217.689037 96.830241 
L 217.856437 92.514362 
L 218.191237 94.912367 
L 218.358637 94.89743 
L 218.526038 95.19023 
L 218.693437 101.466883 
L 218.860838 101.914026 
L 219.028237 95.191842 
L 219.195638 98.612127 
L 219.530438 93.834858 
L 219.865238 90.154495 
L 220.032637 98.011424 
L 220.367437 87.587918 
L 220.534838 90.611384 
L 220.702237 97.893065 
L 221.037037 89.676723 
L 221.204438 89.231804 
L 221.371837 88.0701 
L 221.539237 97.081795 
L 221.706637 97.495845 
L 221.874037 93.959414 
L 222.208837 100.756864 
L 222.376237 97.58384 
L 222.543637 85.535195 
L 222.711037 94.766339 
L 222.878437 95.198561 
L 223.045837 93.884979 
L 223.213237 95.227636 
L 223.380637 88.27969 
L 223.548037 93.959304 
L 223.715437 88.864396 
L 223.882837 93.711764 
L 224.385037 88.669198 
L 224.552437 98.456361 
L 224.887237 85.635708 
L 225.389437 97.741278 
L 225.556837 87.387374 
L 225.891637 94.608665 
L 226.059037 98.475071 
L 226.226437 85.474916 
L 226.393837 89.582647 
L 226.561237 102.158413 
L 226.728637 95.642332 
L 226.896037 84.35137 
L 227.063437 93.426797 
L 227.230837 91.068222 
L 227.398237 101.119715 
L 227.565637 94.9328 
L 227.733037 93.950592 
L 227.900437 91.199422 
L 228.235237 95.912035 
L 228.570037 87.037017 
L 228.737437 93.280326 
L 228.904837 92.494906 
L 229.072237 85.920238 
L 229.239637 98.148394 
L 229.407037 93.349864 
L 229.574437 93.606588 
L 229.909237 89.603525 
L 230.076637 89.209736 
L 230.244037 95.863123 
L 230.411437 98.005805 
L 230.578837 92.359415 
L 230.746237 92.134539 
L 230.913637 89.650247 
L 231.415837 97.880987 
L 231.583237 86.874833 
L 231.750637 92.939135 
L 231.918037 93.681995 
L 232.085437 88.182388 
L 232.252837 92.213329 
L 232.420237 99.494054 
L 232.587637 83.588361 
L 232.755037 88.556982 
L 232.922437 98.124508 
L 233.089837 90.031539 
L 233.257237 96.150593 
L 233.424637 97.791057 
L 233.592037 89.293065 
L 233.759437 96.110992 
L 233.926837 95.384083 
L 234.094237 84.629313 
L 234.429037 98.355704 
L 234.596437 87.098023 
L 234.763837 88.455412 
L 235.098637 86.545176 
L 235.266037 97.5004 
L 235.600837 81.287918 
L 236.103037 96.54934 
L 236.270437 88.740739 
L 236.605237 93.152961 
L 236.772638 98.708329 
L 237.107438 87.705913 
L 237.442238 97.739328 
L 237.609637 97.239049 
L 237.777038 87.734704 
L 238.111838 97.681312 
L 238.446638 82.308568 
L 238.781437 96.254642 
L 238.948837 84.399052 
L 239.116237 89.549724 
L 239.283637 84.643464 
L 239.451037 92.212359 
L 239.785837 84.880514 
L 239.953237 88.831423 
L 240.120637 100.362472 
L 240.288037 84.300946 
L 240.622837 90.847818 
L 240.790237 87.440036 
L 240.957637 90.401986 
L 241.125037 91.136445 
L 241.292437 81.88948 
L 241.459837 91.385451 
L 241.627237 93.88966 
L 241.794637 94.361323 
L 241.962037 99.953885 
L 242.129437 88.393057 
L 242.296837 84.779438 
L 242.631637 104.051829 
L 242.966437 88.256159 
L 243.133837 95.582747 
L 243.301237 95.855073 
L 243.468637 83.927302 
L 243.803438 94.00695 
L 244.138238 82.82058 
L 244.305637 93.088342 
L 244.473038 91.472289 
L 244.807837 84.831524 
L 244.975237 90.744975 
L 245.310037 82.607038 
L 245.477437 85.722119 
L 245.644837 91.375107 
L 245.812237 91.805712 
L 245.979637 91.654798 
L 246.147037 86.26717 
L 246.314437 85.398024 
L 246.481837 93.457183 
L 246.816637 98.781986 
L 246.984037 85.111416 
L 247.318837 97.236898 
L 247.653637 90.108993 
L 247.821037 93.521383 
L 247.988437 90.635287 
L 248.155837 85.365555 
L 248.323237 91.353931 
L 248.490637 86.144876 
L 248.658037 89.017686 
L 248.825437 82.383884 
L 248.992837 89.026803 
L 249.160237 84.944983 
L 249.327637 92.392118 
L 249.495037 89.718459 
L 249.662437 91.952534 
L 249.829837 84.530529 
L 249.997237 90.619923 
L 250.164637 90.19337 
L 250.332037 91.747542 
L 250.499437 86.157266 
L 250.666837 85.312101 
L 250.834237 89.751327 
L 251.001637 89.068461 
L 251.169037 89.430522 
L 251.336437 86.779644 
L 251.503837 89.508159 
L 251.671237 84.201179 
L 251.838637 86.791094 
L 252.006037 83.544089 
L 252.173437 86.094747 
L 252.340837 82.839589 
L 252.508237 84.2776 
L 252.675637 82.678806 
L 252.843037 94.208489 
L 253.010437 96.911805 
L 253.177837 94.775053 
L 253.345237 87.186733 
L 253.512637 96.450725 
L 253.680037 84.837322 
L 254.014837 91.427589 
L 254.182237 90.976997 
L 254.349638 82.338393 
L 254.517037 90.670447 
L 254.684438 90.02528 
L 254.851837 86.643382 
L 255.019238 86.295391 
L 255.354038 87.988351 
L 255.521437 84.714577 
L 255.688838 86.389208 
L 255.856237 83.4755 
L 256.023638 94.457237 
L 256.191037 83.261445 
L 256.358437 84.948426 
L 256.525837 88.130075 
L 256.693238 85.667246 
L 256.860637 86.365045 
L 257.028037 91.498171 
L 257.362838 82.097065 
L 257.530237 86.336933 
L 257.697637 83.320753 
L 257.865037 89.332413 
L 258.032438 85.537596 
L 258.199838 78.707496 
L 258.367237 85.943133 
L 258.534637 84.664293 
L 258.702038 77.339267 
L 259.036837 86.218336 
L 259.204237 78.022099 
L 259.371638 80.068758 
L 259.539038 92.856264 
L 259.706437 88.168694 
L 259.873837 77.912258 
L 260.208638 90.243854 
L 260.543437 81.064812 
L 260.878238 96.23622 
L 261.045637 85.804503 
L 261.213037 86.174477 
L 261.547838 92.492521 
L 261.882637 86.381707 
L 262.217438 89.255036 
L 262.384838 87.106607 
L 262.552237 82.711336 
L 262.719638 89.725265 
L 262.887038 81.809602 
L 263.054438 80.505286 
L 263.221837 82.335851 
L 263.389238 81.092343 
L 263.724038 87.113037 
L 263.891437 76.144059 
L 264.058838 81.209465 
L 264.226237 92.90578 
L 264.393638 78.927579 
L 264.561037 86.326341 
L 264.895837 77.905328 
L 265.230638 91.03874 
L 265.398038 79.011649 
L 265.732838 87.717535 
L 265.900238 80.684582 
L 266.067637 88.141761 
L 266.235037 88.217509 
L 266.402437 80.046508 
L 266.569838 80.015276 
L 266.737237 85.837232 
L 266.904637 79.595413 
L 267.072037 81.114208 
L 267.239438 89.989004 
L 267.406837 78.647566 
L 267.741637 86.192332 
L 267.909038 85.35309 
L 268.076437 83.122537 
L 268.243837 84.355414 
L 268.411237 82.775378 
L 268.578638 92.445769 
L 268.746037 75.104499 
L 268.913437 75.091129 
L 269.248238 87.31816 
L 269.415638 71.152682 
L 269.583037 75.784346 
L 269.750437 85.744847 
L 269.917838 78.362732 
L 270.252637 80.486911 
L 270.420037 77.378846 
L 270.587438 86.137998 
L 270.754838 78.356915 
L 270.922237 76.771072 
L 271.089637 82.535844 
L 271.257038 84.248664 
L 271.424438 72.209132 
L 271.591837 76.904647 
L 271.759237 85.439159 
L 271.926638 76.825299 
L 272.094037 76.492855 
L 272.261437 84.792444 
L 272.428837 81.612749 
L 272.596238 76.255789 
L 272.763637 84.584275 
L 272.931038 76.125592 
L 273.098437 80.223329 
L 273.265838 76.191088 
L 273.433237 79.261046 
L 273.600638 79.813961 
L 273.768037 77.083575 
L 273.935437 76.621887 
L 274.270238 83.891139 
L 274.437637 72.646742 
L 274.772437 82.209574 
L 275.107237 76.591786 
L 275.274637 82.36871 
L 275.442037 75.250588 
L 275.776837 77.934004 
L 275.944237 78.364408 
L 276.111637 79.429834 
L 276.446438 72.038745 
L 276.613837 83.62768 
L 276.781237 80.721748 
L 276.948638 69.101706 
L 277.283437 87.56229 
L 277.618238 72.099269 
L 277.785638 80.486163 
L 278.287838 75.828635 
L 278.455238 76.445388 
L 278.622637 80.02135 
L 278.790037 77.940535 
L 278.957438 68.216768 
L 279.124838 77.126601 
L 279.292237 75.483037 
L 279.459637 71.141721 
L 279.627038 81.830772 
L 279.794438 71.861327 
L 279.961838 76.273942 
L 280.129237 84.529739 
L 280.296638 73.405929 
L 280.464038 72.5846 
L 280.631438 78.804898 
L 280.798837 72.582794 
L 280.966238 71.363298 
L 281.133638 77.966287 
L 281.301038 73.552924 
L 281.468437 72.171112 
L 281.635838 79.402157 
L 281.970638 70.621171 
L 282.138037 74.440673 
L 282.305438 84.576668 
L 282.640238 71.262664 
L 282.807637 73.312326 
L 282.975037 77.670328 
L 283.142437 72.700185 
L 283.309838 74.627553 
L 283.477238 72.986762 
L 283.812037 79.954359 
L 283.979438 67.712004 
L 284.146838 71.239023 
L 284.314237 77.327041 
L 284.481637 74.097063 
L 284.649038 67.593985 
L 284.816438 80.416813 
L 284.983837 77.421548 
L 285.151237 66.413793 
L 285.318638 74.992715 
L 285.486038 69.182601 
L 285.820837 75.91713 
L 286.155638 72.319706 
L 286.323037 78.73035 
L 286.490437 70.013822 
L 286.657838 71.465272 
L 286.825237 79.171055 
L 286.992638 73.090699 
L 287.327438 81.470574 
L 287.662237 71.97239 
L 287.829637 71.210061 
L 288.164437 75.918165 
L 288.499237 69.811671 
L 288.834037 75.960785 
L 289.001437 66.317626 
L 289.336237 77.318002 
L 289.503637 69.088372 
L 289.671037 80.651699 
L 290.005837 63.576012 
L 290.340637 78.271664 
L 290.508038 68.320797 
L 290.675437 76.217565 
L 290.842837 68.733985 
L 291.010237 74.900772 
L 291.177638 72.14155 
L 291.345037 73.795257 
L 291.512437 70.624256 
L 291.679837 73.779115 
L 292.014637 65.109094 
L 292.182037 74.250185 
L 292.516838 67.042622 
L 292.684237 68.438291 
L 292.851637 80.832369 
L 293.019037 71.975218 
L 293.186438 72.442004 
L 293.353837 73.990347 
L 293.521237 76.587132 
L 293.688637 75.550569 
L 293.856038 71.132869 
L 294.023438 71.78109 
L 294.190837 69.310123 
L 294.358237 69.081418 
L 294.525638 71.350961 
L 294.693037 76.907821 
L 294.860437 69.512559 
L 295.027837 75.851659 
L 295.195238 70.784973 
L 295.362637 70.145687 
L 295.530037 72.610165 
L 295.697437 81.505008 
L 295.864837 72.378885 
L 296.032237 70.356846 
L 296.199637 80.089225 
L 296.367037 67.635298 
L 296.534437 66.475588 
L 296.869237 78.446374 
L 297.036637 66.704711 
L 297.204037 71.535254 
L 297.371437 71.760542 
L 297.538837 72.770468 
L 297.706237 78.244041 
L 297.873637 61.052574 
L 298.208438 82.144871 
L 298.543237 69.428517 
L 298.710637 76.303288 
L 298.878038 71.032105 
L 299.212837 78.328861 
L 299.380237 75.72605 
L 299.547638 67.382652 
L 299.882437 75.295412 
L 300.049837 77.480261 
L 300.217238 69.678432 
L 300.384637 74.313727 
L 300.552037 74.417382 
L 300.719437 68.757279 
L 301.221637 75.32606 
L 301.389037 67.717938 
L 301.556438 73.547101 
L 301.723838 71.70522 
L 301.891237 78.59507 
L 302.226038 63.314296 
L 302.393438 77.273621 
L 302.560837 81.937534 
L 302.895638 65.554584 
L 303.063038 73.47209 
L 303.230437 74.256376 
L 303.397837 67.988051 
L 303.565238 73.331758 
L 303.732637 71.860298 
L 303.900037 76.212161 
L 304.067437 61.320133 
L 304.402237 77.439146 
L 304.569637 74.940709 
L 304.737037 77.510073 
L 304.904438 73.248661 
L 305.071837 72.814849 
L 305.239238 71.797473 
L 305.406637 74.034118 
L 305.574037 71.887515 
L 305.741437 74.796955 
L 305.908838 74.723994 
L 306.076237 72.579609 
L 306.243637 77.103536 
L 306.411037 73.85936 
L 306.578438 67.975628 
L 306.745837 71.974806 
L 306.913237 81.586012 
L 307.080637 65.89058 
L 307.248038 79.580454 
L 307.415437 68.771362 
L 307.582837 68.233899 
L 307.750237 75.672495 
L 307.917638 75.444358 
L 308.085037 68.598421 
L 308.252437 74.464843 
L 308.419837 76.231968 
L 308.587238 63.521322 
L 308.754638 71.166337 
L 309.089437 74.585469 
L 309.256837 66.490129 
L 309.424238 74.428828 
L 309.591637 72.460519 
L 309.926437 73.890276 
L 310.093838 74.030763 
L 310.261237 71.047017 
L 310.596037 81.235249 
L 310.930837 65.283504 
L 311.098237 76.441851 
L 311.265637 76.261855 
L 311.433038 68.065118 
L 311.767837 75.275146 
L 311.935237 74.30667 
L 312.102638 70.32302 
L 312.270037 69.995388 
L 312.604837 83.052164 
L 312.772238 67.072755 
L 312.939637 72.182973 
L 313.107037 82.866985 
L 313.274437 71.574887 
L 313.441837 72.001447 
L 313.609237 68.164559 
L 313.776637 77.671855 
L 313.944037 67.446307 
L 314.111437 69.302766 
L 314.278837 82.692213 
L 314.446237 77.148267 
L 314.613637 64.385762 
L 314.948437 79.743298 
L 315.115837 68.657781 
L 315.283237 76.873996 
L 315.450637 75.755542 
L 315.618037 76.659971 
L 315.785438 64.75847 
L 315.952837 74.565613 
L 316.120237 74.820811 
L 316.287637 75.409385 
L 316.789837 70.181303 
L 316.957237 75.305923 
L 317.292037 69.310331 
L 317.626837 79.742424 
L 317.794238 72.447747 
L 317.961637 71.895552 
L 318.129037 70.274782 
L 318.296437 66.821434 
L 318.463838 72.213322 
L 318.631237 81.820359 
L 318.798637 66.508169 
L 319.300838 75.386343 
L 319.468237 73.62324 
L 319.635637 76.620121 
L 319.803038 64.850255 
L 319.970438 73.385961 
L 320.137837 73.716039 
L 320.305237 66.091723 
L 320.472638 75.881596 
L 320.807437 66.161651 
L 321.309637 75.820541 
L 321.477037 73.807736 
L 321.644437 73.727362 
L 321.811838 77.608189 
L 321.979237 75.93573 
L 322.314037 68.541785 
L 322.481437 69.321298 
L 322.648837 73.400685 
L 322.983637 74.372887 
L 323.151037 67.529915 
L 323.318437 70.458234 
L 323.485838 77.565492 
L 323.653237 68.971276 
L 323.988037 78.842557 
L 324.155438 64.392163 
L 324.322837 67.917106 
L 324.490237 77.176711 
L 324.657637 70.244679 
L 324.825038 70.245758 
L 324.992437 72.427802 
L 325.159837 64.847591 
L 325.494638 71.342927 
L 325.662037 73.90657 
L 325.829437 79.440614 
L 325.996837 62.389063 
L 326.164238 63.219484 
L 326.331637 71.804888 
L 326.499037 68.287021 
L 326.666437 73.320655 
L 326.833838 68.335212 
L 327.001238 70.389289 
L 327.168637 67.727 
L 327.336037 75.320558 
L 327.503438 71.512435 
L 327.670838 63.450837 
L 328.005637 70.248134 
L 328.173038 73.931585 
L 328.340438 72.254259 
L 328.507837 67.302885 
L 328.675237 73.000712 
L 328.842638 66.550257 
L 329.010038 68.708804 
L 329.177437 75.495866 
L 329.512238 64.886454 
L 329.679638 74.106028 
L 329.847037 69.543024 
L 330.014437 70.215719 
L 330.181838 66.908629 
L 330.349238 69.481458 
L 330.516637 73.999074 
L 330.684037 73.247862 
L 330.851437 65.890631 
L 331.186237 73.952946 
L 331.353637 75.244034 
L 331.521037 67.775076 
L 331.688437 65.748791 
L 331.855837 69.636251 
L 332.023237 65.333533 
L 332.358037 74.07608 
L 332.525437 68.600173 
L 332.692837 70.0688 
L 332.860237 66.263096 
L 333.027637 72.32145 
L 333.195037 65.123606 
L 333.362437 71.460886 
L 333.529837 72.304343 
L 333.697237 66.460285 
L 334.032038 69.912379 
L 334.199437 64.067798 
L 334.534237 76.089758 
L 334.701638 61.569714 
L 335.036437 72.765264 
L 335.203837 67.439172 
L 335.371238 71.92662 
L 335.538637 62.557467 
L 335.706037 64.460276 
L 335.873437 71.799594 
L 336.040838 71.761603 
L 336.208237 64.784855 
L 336.375637 65.310147 
L 336.543037 65.162762 
L 336.710438 67.021624 
L 336.877837 74.764631 
L 337.045237 57.337878 
L 337.212637 63.97193 
L 337.380038 76.470875 
L 337.547438 74.498101 
L 337.714837 75.401293 
L 337.882237 65.487485 
L 338.049638 69.346067 
L 338.217038 65.802844 
L 338.384437 68.548078 
L 338.551837 66.472854 
L 338.719238 70.349573 
L 338.886637 63.530465 
L 339.054037 63.360264 
L 339.221437 76.279904 
L 339.388838 72.110202 
L 339.556237 53.475147 
L 339.723637 64.462171 
L 339.891037 65.786237 
L 340.058437 70.467526 
L 340.225837 58.3492 
L 340.393237 59.822166 
L 340.560637 69.957859 
L 340.895437 61.070675 
L 341.062838 63.934415 
L 341.230237 69.080913 
L 341.397637 63.130541 
L 341.732438 67.664 
L 341.899837 66.953494 
L 342.067237 61.209592 
L 342.402038 73.726212 
L 342.569437 62.182831 
L 342.736837 59.880922 
L 342.904237 67.768579 
L 343.071638 68.460585 
L 343.239037 58.526642 
L 343.406437 65.399525 
L 343.573837 66.271443 
L 343.741238 68.178595 
L 343.908637 68.052222 
L 344.076037 63.596183 
L 344.243437 69.33599 
L 344.410838 68.274314 
L 344.578238 63.739267 
L 344.745637 69.377675 
L 344.913037 67.892158 
L 345.080438 62.162865 
L 345.247838 68.156564 
L 345.415237 67.184024 
L 345.582637 61.74811 
L 345.750038 61.891574 
L 345.917438 69.681893 
L 346.084837 55.423097 
L 346.252237 69.339979 
L 346.419638 59.373497 
L 346.587038 64.574388 
L 346.754437 61.231955 
L 347.089238 69.796883 
L 347.256638 64.173414 
L 347.424037 64.61699 
L 347.591437 63.035324 
L 347.758838 69.074254 
L 347.926237 61.164749 
L 348.261037 69.114348 
L 348.428438 54.977612 
L 348.595837 66.729857 
L 348.930637 56.563659 
L 349.265437 66.127124 
L 349.432838 59.756301 
L 349.600237 61.718484 
L 349.767637 61.201026 
L 349.935037 62.477321 
L 350.102438 67.570437 
L 350.269837 57.216191 
L 350.604637 66.222655 
L 350.772038 51.526518 
L 351.106837 65.752758 
L 351.274237 57.164187 
L 351.441638 57.627387 
L 351.609037 64.956391 
L 351.776437 63.710174 
L 351.943837 57.767845 
L 352.278638 62.449187 
L 352.446037 72.958364 
L 352.613437 54.851924 
L 352.780837 56.461101 
L 353.115637 62.432995 
L 353.283037 58.549606 
L 353.450437 58.447446 
L 353.617838 65.726833 
L 353.785237 53.984246 
L 353.952637 59.94657 
L 354.120037 60.499066 
L 354.454837 55.534479 
L 354.789637 64.890138 
L 354.957038 55.955599 
L 355.124437 56.162278 
L 355.291837 62.295905 
L 355.459237 57.48105 
L 355.626638 56.81062 
L 355.794037 54.949735 
L 355.961437 59.463305 
L 356.128837 67.173172 
L 356.296238 53.236924 
L 356.463637 54.697911 
L 356.631037 62.355869 
L 356.798437 58.348837 
L 356.965838 57.296559 
L 357.133237 67.531855 
L 357.300637 51.433095 
L 357.468037 53.724313 
L 357.635437 62.516684 
L 357.802837 53.081666 
L 357.970237 52.480661 
L 358.137637 58.326901 
L 358.305037 55.060232 
L 358.472437 61.910558 
L 358.639837 50.11471 
L 358.974637 53.277583 
L 359.142037 56.978991 
L 359.476837 54.355712 
L 359.644237 49.718067 
L 359.979038 61.244403 
L 360.313837 45.960617 
L 360.648638 57.91462 
L 360.816037 53.587514 
L 360.983437 53.103077 
L 361.150837 48.622379 
L 361.318238 51.852962 
L 361.485637 51.113838 
L 361.653037 56.120496 
L 361.820437 48.434483 
L 361.987838 47.215675 
L 362.322637 55.307761 
L 362.490037 48.104449 
L 362.657438 48.993891 
L 362.824838 58.197998 
L 362.992237 49.564853 
L 363.159637 59.207708 
L 363.494438 46.156646 
L 363.661837 50.558578 
L 363.829237 51.821068 
L 363.996638 57.556096 
L 364.331437 47.269744 
L 364.498837 58.078377 
L 364.833638 45.883636 
L 365.001037 55.583794 
L 365.168437 55.434468 
L 365.168437 55.434468 
" clip-path="url(#pd382ba5a90)" style="fill: none; stroke: #1f77b4; stroke-width: 1.5; stroke-linecap: square"/>
   </g>
   <g id="line2d_16">
    <path d="M 30.535837 236.155112 
L 31.205437 228.994519 
L 31.875037 224.19463 
L 32.544637 220.977168 
L 33.214237 218.820439 
L 33.883837 217.37474 
L 34.553437 216.40566 
L 35.390437 215.630376 
L 36.227437 215.160143 
L 37.399237 214.795237 
L 38.905837 214.581628 
L 41.584237 214.464828 
L 49.786837 214.435501 
L 365.168437 214.435281 
L 365.168437 214.435281 
" clip-path="url(#pd382ba5a90)" style="fill: none; stroke: #ff7f0e; stroke-width: 1.5; stroke-linecap: square"/>
   </g>
   <g id="patch_3">
    <path d="M 30.368437 253.44 
L 30.368437 36 
" style="fill: none; stroke: #000000; stroke-width: 0.8; stroke-linejoin: miter; stroke-linecap: square"/>
   </g>
   <g id="patch_4">
    <path d="M 365.168437 253.44 
L 365.168437 36 
" style="fill: none; stroke: #000000; stroke-width: 0.8; stroke-linejoin: miter; stroke-linecap: square"/>
   </g>
   <g id="patch_5">
    <path d="M 30.368437 253.44 
L 365.168437 253.44 
" style="fill: none; stroke: #000000; stroke-width: 0.8; stroke-linejoin: miter; stroke-linecap: square"/>
   </g>
   <g id="patch_6">
    <path d="M 30.368437 36 
L 365.168437 36 
" style="fill: none; stroke: #000000; stroke-width: 0.8; stroke-linejoin: miter; stroke-linecap: square"/>
   </g>
   <g id="legend_1">
    <g id="patch_7">
     <path d="M 37.368437 77.078125 
L 87.068437 77.078125 
Q 89.068437 77.078125 89.068437 75.078125 
L 89.068437 43 
Q 89.068437 41 87.068437 41 
L 37.368437 41 
Q 35.368437 41 35.368437 43 
L 35.368437 75.078125 
Q 35.368437 77.078125 37.368437 77.078125 
z
" style="fill: #ffffff; opacity: 0.8; stroke: #cccccc; stroke-linejoin: miter"/>
    </g>
    <g id="line2d_17">
     <path d="M 39.368437 52.8 
L 49.368437 52.8 
L 59.368437 52.8 
" style="fill: none; stroke: #1f77b4; stroke-width: 1.5; stroke-linecap: square"/>
    </g>
    <g id="text_16">
     <!-- $\hat{y(t)}$ -->
     <g transform="translate(67.368437 56.3) scale(0.1 -0.1)">
      <defs>
       <path id="DejaVuSans-302" d="M -1831 5119 
L -1369 5119 
L -603 3944 
L -1038 3944 
L -1600 4709 
L -2163 3944 
L -2597 3944 
L -1831 5119 
z
M -1600 3584 
L -1600 3584 
z
" transform="scale(0.015625)"/>
       <path id="DejaVuSans-Oblique-79" d="M 1588 -325 
Q 1188 -997 936 -1164 
Q 684 -1331 294 -1331 
L -159 -1331 
L -63 -850 
L 269 -850 
Q 509 -850 678 -719 
Q 847 -588 1056 -206 
L 1234 128 
L 459 3500 
L 1069 3500 
L 1650 819 
L 3256 3500 
L 3859 3500 
L 1588 -325 
z
" transform="scale(0.015625)"/>
       <path id="DejaVuSans-28" d="M 1984 4856 
Q 1566 4138 1362 3434 
Q 1159 2731 1159 2009 
Q 1159 1288 1364 580 
Q 1569 -128 1984 -844 
L 1484 -844 
Q 1016 -109 783 600 
Q 550 1309 550 2009 
Q 550 2706 781 3412 
Q 1013 4119 1484 4856 
L 1984 4856 
z
" transform="scale(0.015625)"/>
       <path id="DejaVuSans-29" d="M 513 4856 
L 1013 4856 
Q 1481 4119 1714 3412 
Q 1947 2706 1947 2009 
Q 1947 1309 1714 600 
Q 1481 -109 1013 -844 
L 513 -844 
Q 928 -128 1133 580 
Q 1338 1288 1338 2009 
Q 1338 2731 1133 3434 
Q 928 4138 513 4856 
z
" transform="scale(0.015625)"/>
      </defs>
      <use xlink:href="#DejaVuSans-302" transform="translate(135.682129 33.015625)"/>
      <use xlink:href="#DejaVuSans-Oblique-79" transform="translate(0 0.640625)"/>
      <use xlink:href="#DejaVuSans-28" transform="translate(59.179688 0.640625)"/>
      <use xlink:href="#DejaVuSans-Oblique-74" transform="translate(98.193359 0.640625)"/>
      <use xlink:href="#DejaVuSans-29" transform="translate(137.402344 0.640625)"/>
     </g>
    </g>
    <g id="line2d_18">
     <path d="M 39.368437 67.498437 
L 49.368437 67.498437 
L 59.368437 67.498437 
" style="fill: none; stroke: #ff7f0e; stroke-width: 1.5; stroke-linecap: square"/>
    </g>
    <g id="text_17">
     <!-- $x(t)$ -->
     <g transform="translate(67.368437 70.998437) scale(0.1 -0.1)">
      <defs>
       <path id="DejaVuSans-Oblique-78" d="M 3841 3500 
L 2234 1784 
L 3219 0 
L 2559 0 
L 1819 1388 
L 531 0 
L -166 0 
L 1556 1844 
L 641 3500 
L 1300 3500 
L 1972 2234 
L 3144 3500 
L 3841 3500 
z
" transform="scale(0.015625)"/>
      </defs>
      <use xlink:href="#DejaVuSans-Oblique-78" transform="translate(0 0.125)"/>
      <use xlink:href="#DejaVuSans-28" transform="translate(59.179688 0.125)"/>
      <use xlink:href="#DejaVuSans-Oblique-74" transform="translate(98.193359 0.125)"/>
      <use xlink:href="#DejaVuSans-29" transform="translate(137.402344 0.125)"/>
     </g>
    </g>
   </g>
  </g>
  <g id="text_18">
   <!-- Accumulate to Threshold model with input of 0.1 with rms=5  -->
   <g transform="translate(7.2 16.318125) scale(0.12 -0.12)">
    <defs>
     <path id="DejaVuSans-41" d="M 2188 4044 
L 1331 1722 
L 3047 1722 
L 2188 4044 
z
M 1831 4666 
L 2547 4666 
L 4325 0 
L 3669 0 
L 3244 1197 
L 1141 1197 
L 716 0 
L 50 0 
L 1831 4666 
z
" transform="scale(0.015625)"/>
     <path id="DejaVuSans-63" d="M 3122 3366 
L 3122 2828 
Q 2878 2963 2633 3030 
Q 2388 3097 2138 3097 
Q 1578 3097 1268 2742 
Q 959 2388 959 1747 
Q 959 1106 1268 751 
Q 1578 397 2138 397 
Q 2388 397 2633 464 
Q 2878 531 3122 666 
L 3122 134 
Q 2881 22 2623 -34 
Q 2366 -91 2075 -91 
Q 1284 -91 818 406 
Q 353 903 353 1747 
Q 353 2603 823 3093 
Q 1294 3584 2113 3584 
Q 2378 3584 2631 3529 
Q 2884 3475 3122 3366 
z
" transform="scale(0.015625)"/>
     <path id="DejaVuSans-75" d="M 544 1381 
L 544 3500 
L 1119 3500 
L 1119 1403 
Q 1119 906 1312 657 
Q 1506 409 1894 409 
Q 2359 409 2629 706 
Q 2900 1003 2900 1516 
L 2900 3500 
L 3475 3500 
L 3475 0 
L 2900 0 
L 2900 538 
Q 2691 219 2414 64 
Q 2138 -91 1772 -91 
Q 1169 -91 856 284 
Q 544 659 544 1381 
z
M 1991 3584 
L 1991 3584 
z
" transform="scale(0.015625)"/>
     <path id="DejaVuSans-6d" d="M 3328 2828 
Q 3544 3216 3844 3400 
Q 4144 3584 4550 3584 
Q 5097 3584 5394 3201 
Q 5691 2819 5691 2113 
L 5691 0 
L 5113 0 
L 5113 2094 
Q 5113 2597 4934 2840 
Q 4756 3084 4391 3084 
Q 3944 3084 3684 2787 
Q 3425 2491 3425 1978 
L 3425 0 
L 2847 0 
L 2847 2094 
Q 2847 2600 2669 2842 
Q 2491 3084 2119 3084 
Q 1678 3084 1418 2786 
Q 1159 2488 1159 1978 
L 1159 0 
L 581 0 
L 581 3500 
L 1159 3500 
L 1159 2956 
Q 1356 3278 1631 3431 
Q 1906 3584 2284 3584 
Q 2666 3584 2933 3390 
Q 3200 3197 3328 2828 
z
" transform="scale(0.015625)"/>
     <path id="DejaVuSans-6c" d="M 603 4863 
L 1178 4863 
L 1178 0 
L 603 0 
L 603 4863 
z
" transform="scale(0.015625)"/>
     <path id="DejaVuSans-61" d="M 2194 1759 
Q 1497 1759 1228 1600 
Q 959 1441 959 1056 
Q 959 750 1161 570 
Q 1363 391 1709 391 
Q 2188 391 2477 730 
Q 2766 1069 2766 1631 
L 2766 1759 
L 2194 1759 
z
M 3341 1997 
L 3341 0 
L 2766 0 
L 2766 531 
Q 2569 213 2275 61 
Q 1981 -91 1556 -91 
Q 1019 -91 701 211 
Q 384 513 384 1019 
Q 384 1609 779 1909 
Q 1175 2209 1959 2209 
L 2766 2209 
L 2766 2266 
Q 2766 2663 2505 2880 
Q 2244 3097 1772 3097 
Q 1472 3097 1187 3025 
Q 903 2953 641 2809 
L 641 3341 
Q 956 3463 1253 3523 
Q 1550 3584 1831 3584 
Q 2591 3584 2966 3190 
Q 3341 2797 3341 1997 
z
" transform="scale(0.015625)"/>
     <path id="DejaVuSans-74" d="M 1172 4494 
L 1172 3500 
L 2356 3500 
L 2356 3053 
L 1172 3053 
L 1172 1153 
Q 1172 725 1289 603 
Q 1406 481 1766 481 
L 2356 481 
L 2356 0 
L 1766 0 
Q 1100 0 847 248 
Q 594 497 594 1153 
L 594 3053 
L 172 3053 
L 172 3500 
L 594 3500 
L 594 4494 
L 1172 4494 
z
" transform="scale(0.015625)"/>
     <path id="DejaVuSans-65" d="M 3597 1894 
L 3597 1613 
L 953 1613 
Q 991 1019 1311 708 
Q 1631 397 2203 397 
Q 2534 397 2845 478 
Q 3156 559 3463 722 
L 3463 178 
Q 3153 47 2828 -22 
Q 2503 -91 2169 -91 
Q 1331 -91 842 396 
Q 353 884 353 1716 
Q 353 2575 817 3079 
Q 1281 3584 2069 3584 
Q 2775 3584 3186 3129 
Q 3597 2675 3597 1894 
z
M 3022 2063 
Q 3016 2534 2758 2815 
Q 2500 3097 2075 3097 
Q 1594 3097 1305 2825 
Q 1016 2553 972 2059 
L 3022 2063 
z
" transform="scale(0.015625)"/>
     <path id="DejaVuSans-20" transform="scale(0.015625)"/>
     <path id="DejaVuSans-6f" d="M 1959 3097 
Q 1497 3097 1228 2736 
Q 959 2375 959 1747 
Q 959 1119 1226 758 
Q 1494 397 1959 397 
Q 2419 397 2687 759 
Q 2956 1122 2956 1747 
Q 2956 2369 2687 2733 
Q 2419 3097 1959 3097 
z
M 1959 3584 
Q 2709 3584 3137 3096 
Q 3566 2609 3566 1747 
Q 3566 888 3137 398 
Q 2709 -91 1959 -91 
Q 1206 -91 779 398 
Q 353 888 353 1747 
Q 353 2609 779 3096 
Q 1206 3584 1959 3584 
z
" transform="scale(0.015625)"/>
     <path id="DejaVuSans-54" d="M -19 4666 
L 3928 4666 
L 3928 4134 
L 2272 4134 
L 2272 0 
L 1638 0 
L 1638 4134 
L -19 4134 
L -19 4666 
z
" transform="scale(0.015625)"/>
     <path id="DejaVuSans-68" d="M 3513 2113 
L 3513 0 
L 2938 0 
L 2938 2094 
Q 2938 2591 2744 2837 
Q 2550 3084 2163 3084 
Q 1697 3084 1428 2787 
Q 1159 2491 1159 1978 
L 1159 0 
L 581 0 
L 581 4863 
L 1159 4863 
L 1159 2956 
Q 1366 3272 1645 3428 
Q 1925 3584 2291 3584 
Q 2894 3584 3203 3211 
Q 3513 2838 3513 2113 
z
" transform="scale(0.015625)"/>
     <path id="DejaVuSans-72" d="M 2631 2963 
Q 2534 3019 2420 3045 
Q 2306 3072 2169 3072 
Q 1681 3072 1420 2755 
Q 1159 2438 1159 1844 
L 1159 0 
L 581 0 
L 581 3500 
L 1159 3500 
L 1159 2956 
Q 1341 3275 1631 3429 
Q 1922 3584 2338 3584 
Q 2397 3584 2469 3576 
Q 2541 3569 2628 3553 
L 2631 2963 
z
" transform="scale(0.015625)"/>
     <path id="DejaVuSans-73" d="M 2834 3397 
L 2834 2853 
Q 2591 2978 2328 3040 
Q 2066 3103 1784 3103 
Q 1356 3103 1142 2972 
Q 928 2841 928 2578 
Q 928 2378 1081 2264 
Q 1234 2150 1697 2047 
L 1894 2003 
Q 2506 1872 2764 1633 
Q 3022 1394 3022 966 
Q 3022 478 2636 193 
Q 2250 -91 1575 -91 
Q 1294 -91 989 -36 
Q 684 19 347 128 
L 347 722 
Q 666 556 975 473 
Q 1284 391 1588 391 
Q 1994 391 2212 530 
Q 2431 669 2431 922 
Q 2431 1156 2273 1281 
Q 2116 1406 1581 1522 
L 1381 1569 
Q 847 1681 609 1914 
Q 372 2147 372 2553 
Q 372 3047 722 3315 
Q 1072 3584 1716 3584 
Q 2034 3584 2315 3537 
Q 2597 3491 2834 3397 
z
" transform="scale(0.015625)"/>
     <path id="DejaVuSans-64" d="M 2906 2969 
L 2906 4863 
L 3481 4863 
L 3481 0 
L 2906 0 
L 2906 525 
Q 2725 213 2448 61 
Q 2172 -91 1784 -91 
Q 1150 -91 751 415 
Q 353 922 353 1747 
Q 353 2572 751 3078 
Q 1150 3584 1784 3584 
Q 2172 3584 2448 3432 
Q 2725 3281 2906 2969 
z
M 947 1747 
Q 947 1113 1208 752 
Q 1469 391 1925 391 
Q 2381 391 2643 752 
Q 2906 1113 2906 1747 
Q 2906 2381 2643 2742 
Q 2381 3103 1925 3103 
Q 1469 3103 1208 2742 
Q 947 2381 947 1747 
z
" transform="scale(0.015625)"/>
     <path id="DejaVuSans-77" d="M 269 3500 
L 844 3500 
L 1563 769 
L 2278 3500 
L 2956 3500 
L 3675 769 
L 4391 3500 
L 4966 3500 
L 4050 0 
L 3372 0 
L 2619 2869 
L 1863 0 
L 1184 0 
L 269 3500 
z
" transform="scale(0.015625)"/>
     <path id="DejaVuSans-69" d="M 603 3500 
L 1178 3500 
L 1178 0 
L 603 0 
L 603 3500 
z
M 603 4863 
L 1178 4863 
L 1178 4134 
L 603 4134 
L 603 4863 
z
" transform="scale(0.015625)"/>
     <path id="DejaVuSans-6e" d="M 3513 2113 
L 3513 0 
L 2938 0 
L 2938 2094 
Q 2938 2591 2744 2837 
Q 2550 3084 2163 3084 
Q 1697 3084 1428 2787 
Q 1159 2491 1159 1978 
L 1159 0 
L 581 0 
L 581 3500 
L 1159 3500 
L 1159 2956 
Q 1366 3272 1645 3428 
Q 1925 3584 2291 3584 
Q 2894 3584 3203 3211 
Q 3513 2838 3513 2113 
z
" transform="scale(0.015625)"/>
     <path id="DejaVuSans-70" d="M 1159 525 
L 1159 -1331 
L 581 -1331 
L 581 3500 
L 1159 3500 
L 1159 2969 
Q 1341 3281 1617 3432 
Q 1894 3584 2278 3584 
Q 2916 3584 3314 3078 
Q 3713 2572 3713 1747 
Q 3713 922 3314 415 
Q 2916 -91 2278 -91 
Q 1894 -91 1617 61 
Q 1341 213 1159 525 
z
M 3116 1747 
Q 3116 2381 2855 2742 
Q 2594 3103 2138 3103 
Q 1681 3103 1420 2742 
Q 1159 2381 1159 1747 
Q 1159 1113 1420 752 
Q 1681 391 2138 391 
Q 2594 391 2855 752 
Q 3116 1113 3116 1747 
z
" transform="scale(0.015625)"/>
     <path id="DejaVuSans-66" d="M 2375 4863 
L 2375 4384 
L 1825 4384 
Q 1516 4384 1395 4259 
Q 1275 4134 1275 3809 
L 1275 3500 
L 2222 3500 
L 2222 3053 
L 1275 3053 
L 1275 0 
L 697 0 
L 697 3053 
L 147 3053 
L 147 3500 
L 697 3500 
L 697 3744 
Q 697 4328 969 4595 
Q 1241 4863 1831 4863 
L 2375 4863 
z
" transform="scale(0.015625)"/>
     <path id="DejaVuSans-3d" d="M 678 2906 
L 4684 2906 
L 4684 2381 
L 678 2381 
L 678 2906 
z
M 678 1631 
L 4684 1631 
L 4684 1100 
L 678 1100 
L 678 1631 
z
" transform="scale(0.015625)"/>
    </defs>
    <use xlink:href="#DejaVuSans-41"/>
    <use xlink:href="#DejaVuSans-63" x="66.658203"/>
    <use xlink:href="#DejaVuSans-63" x="121.638672"/>
    <use xlink:href="#DejaVuSans-75" x="176.619141"/>
    <use xlink:href="#DejaVuSans-6d" x="239.998047"/>
    <use xlink:href="#DejaVuSans-75" x="337.410156"/>
    <use xlink:href="#DejaVuSans-6c" x="400.789062"/>
    <use xlink:href="#DejaVuSans-61" x="428.572266"/>
    <use xlink:href="#DejaVuSans-74" x="489.851562"/>
    <use xlink:href="#DejaVuSans-65" x="529.060547"/>
    <use xlink:href="#DejaVuSans-20" x="590.583984"/>
    <use xlink:href="#DejaVuSans-74" x="622.371094"/>
    <use xlink:href="#DejaVuSans-6f" x="661.580078"/>
    <use xlink:href="#DejaVuSans-20" x="722.761719"/>
    <use xlink:href="#DejaVuSans-54" x="754.548828"/>
    <use xlink:href="#DejaVuSans-68" x="815.632812"/>
    <use xlink:href="#DejaVuSans-72" x="879.011719"/>
    <use xlink:href="#DejaVuSans-65" x="917.875"/>
    <use xlink:href="#DejaVuSans-73" x="979.398438"/>
    <use xlink:href="#DejaVuSans-68" x="1031.498047"/>
    <use xlink:href="#DejaVuSans-6f" x="1094.876953"/>
    <use xlink:href="#DejaVuSans-6c" x="1156.058594"/>
    <use xlink:href="#DejaVuSans-64" x="1183.841797"/>
    <use xlink:href="#DejaVuSans-20" x="1247.318359"/>
    <use xlink:href="#DejaVuSans-6d" x="1279.105469"/>
    <use xlink:href="#DejaVuSans-6f" x="1376.517578"/>
    <use xlink:href="#DejaVuSans-64" x="1437.699219"/>
    <use xlink:href="#DejaVuSans-65" x="1501.175781"/>
    <use xlink:href="#DejaVuSans-6c" x="1562.699219"/>
    <use xlink:href="#DejaVuSans-20" x="1590.482422"/>
    <use xlink:href="#DejaVuSans-77" x="1622.269531"/>
    <use xlink:href="#DejaVuSans-69" x="1704.056641"/>
    <use xlink:href="#DejaVuSans-74" x="1731.839844"/>
    <use xlink:href="#DejaVuSans-68" x="1771.048828"/>
    <use xlink:href="#DejaVuSans-20" x="1834.427734"/>
    <use xlink:href="#DejaVuSans-69" x="1866.214844"/>
    <use xlink:href="#DejaVuSans-6e" x="1893.998047"/>
    <use xlink:href="#DejaVuSans-70" x="1957.376953"/>
    <use xlink:href="#DejaVuSans-75" x="2020.853516"/>
    <use xlink:href="#DejaVuSans-74" x="2084.232422"/>
    <use xlink:href="#DejaVuSans-20" x="2123.441406"/>
    <use xlink:href="#DejaVuSans-6f" x="2155.228516"/>
    <use xlink:href="#DejaVuSans-66" x="2216.410156"/>
    <use xlink:href="#DejaVuSans-20" x="2251.615234"/>
    <use xlink:href="#DejaVuSans-30" x="2283.402344"/>
    <use xlink:href="#DejaVuSans-2e" x="2347.025391"/>
    <use xlink:href="#DejaVuSans-31" x="2378.8125"/>
    <use xlink:href="#DejaVuSans-20" x="2442.435547"/>
    <use xlink:href="#DejaVuSans-77" x="2474.222656"/>
    <use xlink:href="#DejaVuSans-69" x="2556.009766"/>
    <use xlink:href="#DejaVuSans-74" x="2583.792969"/>
    <use xlink:href="#DejaVuSans-68" x="2623.001953"/>
    <use xlink:href="#DejaVuSans-20" x="2686.380859"/>
    <use xlink:href="#DejaVuSans-72" x="2718.167969"/>
    <use xlink:href="#DejaVuSans-6d" x="2757.53125"/>
    <use xlink:href="#DejaVuSans-73" x="2854.943359"/>
    <use xlink:href="#DejaVuSans-3d" x="2907.042969"/>
    <use xlink:href="#DejaVuSans-35" x="2990.832031"/>
    <use xlink:href="#DejaVuSans-20" x="3054.455078"/>
   </g>
  </g>
 </g>
 <defs>
  <clipPath id="pd382ba5a90">
   <rect x="30.368437" y="36" width="334.8" height="217.44"/>
  </clipPath>
 </defs>
</svg>
