<?xml version="1.0" encoding="utf-8" standalone="no"?>
<!DOCTYPE svg PUBLIC "-//W3C//DTD SVG 1.1//EN"
  "http://www.w3.org/Graphics/SVG/1.1/DTD/svg11.dtd">
<svg xmlns:xlink="http://www.w3.org/1999/xlink" width="391.615625pt" height="290.99625pt" viewBox="0 0 391.615625 290.99625" xmlns="http://www.w3.org/2000/svg" version="1.1">
 <metadata>
  <rdf:RDF xmlns:dc="http://purl.org/dc/elements/1.1/" xmlns:cc="http://creativecommons.org/ns#" xmlns:rdf="http://www.w3.org/1999/02/22-rdf-syntax-ns#">
   <cc:Work>
    <dc:type rdf:resource="http://purl.org/dc/dcmitype/StillImage"/>
    <dc:date>2022-11-19T22:54:58.821260</dc:date>
    <dc:format>image/svg+xml</dc:format>
    <dc:creator>
     <cc:Agent>
      <dc:title>Matplotlib v3.6.0, https://matplotlib.org/</dc:title>
     </cc:Agent>
    </dc:creator>
   </cc:Work>
  </rdf:RDF>
 </metadata>
 <defs>
  <style type="text/css">*{stroke-linejoin: round; stroke-linecap: butt}</style>
 </defs>
 <g id="figure_1">
  <g id="patch_1">
   <path d="M -0 290.99625 
L 391.615625 290.99625 
L 391.615625 0 
L -0 0 
L -0 290.99625 
z
" style="fill: none"/>
  </g>
  <g id="axes_1">
   <g id="patch_2">
    <path d="M 38.482813 253.44 
L 373.282813 253.44 
L 373.282813 36 
L 38.482813 36 
z
" style="fill: #ffffff"/>
   </g>
   <g id="matplotlib.axis_1">
    <g id="xtick_1">
     <g id="line2d_1">
      <defs>
       <path id="m7155982786" d="M 0 0 
L 0 3.5 
" style="stroke: #000000; stroke-width: 0.8"/>
      </defs>
      <g>
       <use xlink:href="#m7155982786" x="38.482813" y="253.44" style="stroke: #000000; stroke-width: 0.8"/>
      </g>
     </g>
     <g id="text_1">
      <!-- 0.00 -->
      <g transform="translate(27.35 268.038437) scale(0.1 -0.1)">
       <defs>
        <path id="DejaVuSans-30" d="M 2034 4250 
Q 1547 4250 1301 3770 
Q 1056 3291 1056 2328 
Q 1056 1369 1301 889 
Q 1547 409 2034 409 
Q 2525 409 2770 889 
Q 3016 1369 3016 2328 
Q 3016 3291 2770 3770 
Q 2525 4250 2034 4250 
z
M 2034 4750 
Q 2819 4750 3233 4129 
Q 3647 3509 3647 2328 
Q 3647 1150 3233 529 
Q 2819 -91 2034 -91 
Q 1250 -91 836 529 
Q 422 1150 422 2328 
Q 422 3509 836 4129 
Q 1250 4750 2034 4750 
z
" transform="scale(0.015625)"/>
        <path id="DejaVuSans-2e" d="M 684 794 
L 1344 794 
L 1344 0 
L 684 0 
L 684 794 
z
" transform="scale(0.015625)"/>
       </defs>
       <use xlink:href="#DejaVuSans-30"/>
       <use xlink:href="#DejaVuSans-2e" x="63.623047"/>
       <use xlink:href="#DejaVuSans-30" x="95.410156"/>
       <use xlink:href="#DejaVuSans-30" x="159.033203"/>
      </g>
     </g>
    </g>
    <g id="xtick_2">
     <g id="line2d_2">
      <g>
       <use xlink:href="#m7155982786" x="80.332813" y="253.44" style="stroke: #000000; stroke-width: 0.8"/>
      </g>
     </g>
     <g id="text_2">
      <!-- 0.25 -->
      <g transform="translate(69.2 268.038437) scale(0.1 -0.1)">
       <defs>
        <path id="DejaVuSans-32" d="M 1228 531 
L 3431 531 
L 3431 0 
L 469 0 
L 469 531 
Q 828 903 1448 1529 
Q 2069 2156 2228 2338 
Q 2531 2678 2651 2914 
Q 2772 3150 2772 3378 
Q 2772 3750 2511 3984 
Q 2250 4219 1831 4219 
Q 1534 4219 1204 4116 
Q 875 4013 500 3803 
L 500 4441 
Q 881 4594 1212 4672 
Q 1544 4750 1819 4750 
Q 2544 4750 2975 4387 
Q 3406 4025 3406 3419 
Q 3406 3131 3298 2873 
Q 3191 2616 2906 2266 
Q 2828 2175 2409 1742 
Q 1991 1309 1228 531 
z
" transform="scale(0.015625)"/>
        <path id="DejaVuSans-35" d="M 691 4666 
L 3169 4666 
L 3169 4134 
L 1269 4134 
L 1269 2991 
Q 1406 3038 1543 3061 
Q 1681 3084 1819 3084 
Q 2600 3084 3056 2656 
Q 3513 2228 3513 1497 
Q 3513 744 3044 326 
Q 2575 -91 1722 -91 
Q 1428 -91 1123 -41 
Q 819 9 494 109 
L 494 744 
Q 775 591 1075 516 
Q 1375 441 1709 441 
Q 2250 441 2565 725 
Q 2881 1009 2881 1497 
Q 2881 1984 2565 2268 
Q 2250 2553 1709 2553 
Q 1456 2553 1204 2497 
Q 953 2441 691 2322 
L 691 4666 
z
" transform="scale(0.015625)"/>
       </defs>
       <use xlink:href="#DejaVuSans-30"/>
       <use xlink:href="#DejaVuSans-2e" x="63.623047"/>
       <use xlink:href="#DejaVuSans-32" x="95.410156"/>
       <use xlink:href="#DejaVuSans-35" x="159.033203"/>
      </g>
     </g>
    </g>
    <g id="xtick_3">
     <g id="line2d_3">
      <g>
       <use xlink:href="#m7155982786" x="122.182813" y="253.44" style="stroke: #000000; stroke-width: 0.8"/>
      </g>
     </g>
     <g id="text_3">
      <!-- 0.50 -->
      <g transform="translate(111.05 268.038437) scale(0.1 -0.1)">
       <use xlink:href="#DejaVuSans-30"/>
       <use xlink:href="#DejaVuSans-2e" x="63.623047"/>
       <use xlink:href="#DejaVuSans-35" x="95.410156"/>
       <use xlink:href="#DejaVuSans-30" x="159.033203"/>
      </g>
     </g>
    </g>
    <g id="xtick_4">
     <g id="line2d_4">
      <g>
       <use xlink:href="#m7155982786" x="164.032813" y="253.44" style="stroke: #000000; stroke-width: 0.8"/>
      </g>
     </g>
     <g id="text_4">
      <!-- 0.75 -->
      <g transform="translate(152.9 268.038437) scale(0.1 -0.1)">
       <defs>
        <path id="DejaVuSans-37" d="M 525 4666 
L 3525 4666 
L 3525 4397 
L 1831 0 
L 1172 0 
L 2766 4134 
L 525 4134 
L 525 4666 
z
" transform="scale(0.015625)"/>
       </defs>
       <use xlink:href="#DejaVuSans-30"/>
       <use xlink:href="#DejaVuSans-2e" x="63.623047"/>
       <use xlink:href="#DejaVuSans-37" x="95.410156"/>
       <use xlink:href="#DejaVuSans-35" x="159.033203"/>
      </g>
     </g>
    </g>
    <g id="xtick_5">
     <g id="line2d_5">
      <g>
       <use xlink:href="#m7155982786" x="205.882812" y="253.44" style="stroke: #000000; stroke-width: 0.8"/>
      </g>
     </g>
     <g id="text_5">
      <!-- 1.00 -->
      <g transform="translate(194.75 268.038437) scale(0.1 -0.1)">
       <defs>
        <path id="DejaVuSans-31" d="M 794 531 
L 1825 531 
L 1825 4091 
L 703 3866 
L 703 4441 
L 1819 4666 
L 2450 4666 
L 2450 531 
L 3481 531 
L 3481 0 
L 794 0 
L 794 531 
z
" transform="scale(0.015625)"/>
       </defs>
       <use xlink:href="#DejaVuSans-31"/>
       <use xlink:href="#DejaVuSans-2e" x="63.623047"/>
       <use xlink:href="#DejaVuSans-30" x="95.410156"/>
       <use xlink:href="#DejaVuSans-30" x="159.033203"/>
      </g>
     </g>
    </g>
    <g id="xtick_6">
     <g id="line2d_6">
      <g>
       <use xlink:href="#m7155982786" x="247.732812" y="253.44" style="stroke: #000000; stroke-width: 0.8"/>
      </g>
     </g>
     <g id="text_6">
      <!-- 1.25 -->
      <g transform="translate(236.6 268.038437) scale(0.1 -0.1)">
       <use xlink:href="#DejaVuSans-31"/>
       <use xlink:href="#DejaVuSans-2e" x="63.623047"/>
       <use xlink:href="#DejaVuSans-32" x="95.410156"/>
       <use xlink:href="#DejaVuSans-35" x="159.033203"/>
      </g>
     </g>
    </g>
    <g id="xtick_7">
     <g id="line2d_7">
      <g>
       <use xlink:href="#m7155982786" x="289.582813" y="253.44" style="stroke: #000000; stroke-width: 0.8"/>
      </g>
     </g>
     <g id="text_7">
      <!-- 1.50 -->
      <g transform="translate(278.45 268.038437) scale(0.1 -0.1)">
       <use xlink:href="#DejaVuSans-31"/>
       <use xlink:href="#DejaVuSans-2e" x="63.623047"/>
       <use xlink:href="#DejaVuSans-35" x="95.410156"/>
       <use xlink:href="#DejaVuSans-30" x="159.033203"/>
      </g>
     </g>
    </g>
    <g id="xtick_8">
     <g id="line2d_8">
      <g>
       <use xlink:href="#m7155982786" x="331.432813" y="253.44" style="stroke: #000000; stroke-width: 0.8"/>
      </g>
     </g>
     <g id="text_8">
      <!-- 1.75 -->
      <g transform="translate(320.3 268.038437) scale(0.1 -0.1)">
       <use xlink:href="#DejaVuSans-31"/>
       <use xlink:href="#DejaVuSans-2e" x="63.623047"/>
       <use xlink:href="#DejaVuSans-37" x="95.410156"/>
       <use xlink:href="#DejaVuSans-35" x="159.033203"/>
      </g>
     </g>
    </g>
    <g id="xtick_9">
     <g id="line2d_9">
      <g>
       <use xlink:href="#m7155982786" x="373.282813" y="253.44" style="stroke: #000000; stroke-width: 0.8"/>
      </g>
     </g>
     <g id="text_9">
      <!-- 2.00 -->
      <g transform="translate(362.15 268.038437) scale(0.1 -0.1)">
       <use xlink:href="#DejaVuSans-32"/>
       <use xlink:href="#DejaVuSans-2e" x="63.623047"/>
       <use xlink:href="#DejaVuSans-30" x="95.410156"/>
       <use xlink:href="#DejaVuSans-30" x="159.033203"/>
      </g>
     </g>
    </g>
    <g id="text_10">
     <!-- $t$ -->
     <g transform="translate(203.882812 281.716562) scale(0.1 -0.1)">
      <defs>
       <path id="DejaVuSans-Oblique-74" d="M 2706 3500 
L 2619 3053 
L 1472 3053 
L 1100 1153 
Q 1081 1047 1072 975 
Q 1063 903 1063 863 
Q 1063 663 1183 572 
Q 1303 481 1569 481 
L 2150 481 
L 2053 0 
L 1503 0 
Q 991 0 739 200 
Q 488 400 488 806 
Q 488 878 497 964 
Q 506 1050 525 1153 
L 897 3053 
L 409 3053 
L 500 3500 
L 978 3500 
L 1172 4494 
L 1747 4494 
L 1556 3500 
L 2706 3500 
z
" transform="scale(0.015625)"/>
      </defs>
      <use xlink:href="#DejaVuSans-Oblique-74" transform="translate(0 0.78125)"/>
     </g>
    </g>
   </g>
   <g id="matplotlib.axis_2">
    <g id="ytick_1">
     <g id="line2d_10">
      <defs>
       <path id="m9e03cefb66" d="M 0 0 
L -3.5 0 
" style="stroke: #000000; stroke-width: 0.8"/>
      </defs>
      <g>
       <use xlink:href="#m9e03cefb66" x="38.482813" y="234.979365" style="stroke: #000000; stroke-width: 0.8"/>
      </g>
     </g>
     <g id="text_11">
      <!-- −1.0 -->
      <g transform="translate(7.2 238.778584) scale(0.1 -0.1)">
       <defs>
        <path id="DejaVuSans-2212" d="M 678 2272 
L 4684 2272 
L 4684 1741 
L 678 1741 
L 678 2272 
z
" transform="scale(0.015625)"/>
       </defs>
       <use xlink:href="#DejaVuSans-2212"/>
       <use xlink:href="#DejaVuSans-31" x="83.789062"/>
       <use xlink:href="#DejaVuSans-2e" x="147.412109"/>
       <use xlink:href="#DejaVuSans-30" x="179.199219"/>
      </g>
     </g>
    </g>
    <g id="ytick_2">
     <g id="line2d_11">
      <g>
       <use xlink:href="#m9e03cefb66" x="38.482813" y="198.660714" style="stroke: #000000; stroke-width: 0.8"/>
      </g>
     </g>
     <g id="text_12">
      <!-- −0.8 -->
      <g transform="translate(7.2 202.459933) scale(0.1 -0.1)">
       <defs>
        <path id="DejaVuSans-38" d="M 2034 2216 
Q 1584 2216 1326 1975 
Q 1069 1734 1069 1313 
Q 1069 891 1326 650 
Q 1584 409 2034 409 
Q 2484 409 2743 651 
Q 3003 894 3003 1313 
Q 3003 1734 2745 1975 
Q 2488 2216 2034 2216 
z
M 1403 2484 
Q 997 2584 770 2862 
Q 544 3141 544 3541 
Q 544 4100 942 4425 
Q 1341 4750 2034 4750 
Q 2731 4750 3128 4425 
Q 3525 4100 3525 3541 
Q 3525 3141 3298 2862 
Q 3072 2584 2669 2484 
Q 3125 2378 3379 2068 
Q 3634 1759 3634 1313 
Q 3634 634 3220 271 
Q 2806 -91 2034 -91 
Q 1263 -91 848 271 
Q 434 634 434 1313 
Q 434 1759 690 2068 
Q 947 2378 1403 2484 
z
M 1172 3481 
Q 1172 3119 1398 2916 
Q 1625 2713 2034 2713 
Q 2441 2713 2670 2916 
Q 2900 3119 2900 3481 
Q 2900 3844 2670 4047 
Q 2441 4250 2034 4250 
Q 1625 4250 1398 4047 
Q 1172 3844 1172 3481 
z
" transform="scale(0.015625)"/>
       </defs>
       <use xlink:href="#DejaVuSans-2212"/>
       <use xlink:href="#DejaVuSans-30" x="83.789062"/>
       <use xlink:href="#DejaVuSans-2e" x="147.412109"/>
       <use xlink:href="#DejaVuSans-38" x="179.199219"/>
      </g>
     </g>
    </g>
    <g id="ytick_3">
     <g id="line2d_12">
      <g>
       <use xlink:href="#m9e03cefb66" x="38.482813" y="162.342063" style="stroke: #000000; stroke-width: 0.8"/>
      </g>
     </g>
     <g id="text_13">
      <!-- −0.6 -->
      <g transform="translate(7.2 166.141281) scale(0.1 -0.1)">
       <defs>
        <path id="DejaVuSans-36" d="M 2113 2584 
Q 1688 2584 1439 2293 
Q 1191 2003 1191 1497 
Q 1191 994 1439 701 
Q 1688 409 2113 409 
Q 2538 409 2786 701 
Q 3034 994 3034 1497 
Q 3034 2003 2786 2293 
Q 2538 2584 2113 2584 
z
M 3366 4563 
L 3366 3988 
Q 3128 4100 2886 4159 
Q 2644 4219 2406 4219 
Q 1781 4219 1451 3797 
Q 1122 3375 1075 2522 
Q 1259 2794 1537 2939 
Q 1816 3084 2150 3084 
Q 2853 3084 3261 2657 
Q 3669 2231 3669 1497 
Q 3669 778 3244 343 
Q 2819 -91 2113 -91 
Q 1303 -91 875 529 
Q 447 1150 447 2328 
Q 447 3434 972 4092 
Q 1497 4750 2381 4750 
Q 2619 4750 2861 4703 
Q 3103 4656 3366 4563 
z
" transform="scale(0.015625)"/>
       </defs>
       <use xlink:href="#DejaVuSans-2212"/>
       <use xlink:href="#DejaVuSans-30" x="83.789062"/>
       <use xlink:href="#DejaVuSans-2e" x="147.412109"/>
       <use xlink:href="#DejaVuSans-36" x="179.199219"/>
      </g>
     </g>
    </g>
    <g id="ytick_4">
     <g id="line2d_13">
      <g>
       <use xlink:href="#m9e03cefb66" x="38.482813" y="126.023411" style="stroke: #000000; stroke-width: 0.8"/>
      </g>
     </g>
     <g id="text_14">
      <!-- −0.4 -->
      <g transform="translate(7.2 129.82263) scale(0.1 -0.1)">
       <defs>
        <path id="DejaVuSans-34" d="M 2419 4116 
L 825 1625 
L 2419 1625 
L 2419 4116 
z
M 2253 4666 
L 3047 4666 
L 3047 1625 
L 3713 1625 
L 3713 1100 
L 3047 1100 
L 3047 0 
L 2419 0 
L 2419 1100 
L 313 1100 
L 313 1709 
L 2253 4666 
z
" transform="scale(0.015625)"/>
       </defs>
       <use xlink:href="#DejaVuSans-2212"/>
       <use xlink:href="#DejaVuSans-30" x="83.789062"/>
       <use xlink:href="#DejaVuSans-2e" x="147.412109"/>
       <use xlink:href="#DejaVuSans-34" x="179.199219"/>
      </g>
     </g>
    </g>
    <g id="ytick_5">
     <g id="line2d_14">
      <g>
       <use xlink:href="#m9e03cefb66" x="38.482813" y="89.70476" style="stroke: #000000; stroke-width: 0.8"/>
      </g>
     </g>
     <g id="text_15">
      <!-- −0.2 -->
      <g transform="translate(7.2 93.503978) scale(0.1 -0.1)">
       <use xlink:href="#DejaVuSans-2212"/>
       <use xlink:href="#DejaVuSans-30" x="83.789062"/>
       <use xlink:href="#DejaVuSans-2e" x="147.412109"/>
       <use xlink:href="#DejaVuSans-32" x="179.199219"/>
      </g>
     </g>
    </g>
    <g id="ytick_6">
     <g id="line2d_15">
      <g>
       <use xlink:href="#m9e03cefb66" x="38.482813" y="53.386108" style="stroke: #000000; stroke-width: 0.8"/>
      </g>
     </g>
     <g id="text_16">
      <!-- 0.0 -->
      <g transform="translate(15.579688 57.185327) scale(0.1 -0.1)">
       <use xlink:href="#DejaVuSans-30"/>
       <use xlink:href="#DejaVuSans-2e" x="63.623047"/>
       <use xlink:href="#DejaVuSans-30" x="95.410156"/>
      </g>
     </g>
    </g>
   </g>
   <g id="line2d_16">
    <path d="M 38.650213 53.386108 
L 38.985013 56.310977 
L 39.319813 47.538559 
L 39.487212 45.883636 
L 39.654612 58.371391 
L 39.822012 55.762822 
L 39.989413 50.310634 
L 40.324213 56.768778 
L 40.491613 55.073916 
L 40.659013 56.921812 
L 40.826413 55.225587 
L 40.993813 50.077495 
L 41.328612 58.365728 
L 41.496012 58.535974 
L 41.663412 49.174776 
L 41.830813 58.228166 
L 41.998213 57.767383 
L 42.165613 56.330068 
L 42.333013 53.132946 
L 42.500413 53.760652 
L 42.835213 58.149073 
L 43.002612 48.629853 
L 43.337412 61.995041 
L 43.672213 58.437215 
L 44.007013 54.421879 
L 44.174413 60.945499 
L 44.341813 61.105928 
L 44.509213 63.20099 
L 44.676613 57.592605 
L 44.844013 66.421913 
L 45.011412 51.4046 
L 45.178812 54.564522 
L 45.346213 59.999434 
L 45.513613 56.70857 
L 45.681013 58.474643 
L 45.848413 58.050447 
L 46.183213 60.242811 
L 46.518012 66.03887 
L 47.020212 53.288754 
L 47.355013 68.130629 
L 47.522413 66.727502 
L 47.689813 62.164941 
L 48.024613 71.292644 
L 48.192013 67.310462 
L 48.359413 59.995087 
L 48.526813 67.486439 
L 48.694212 66.114045 
L 48.861612 65.941125 
L 49.029013 67.237051 
L 49.196413 62.565006 
L 49.363813 72.392355 
L 49.698613 58.102852 
L 49.866013 62.876548 
L 50.033413 64.226651 
L 50.200813 62.139678 
L 50.368213 69.497454 
L 50.535612 65.150859 
L 50.703012 67.163072 
L 51.037813 61.279346 
L 51.205213 61.015832 
L 51.707413 74.60049 
L 51.874813 77.035194 
L 52.042213 66.678253 
L 52.209613 68.389788 
L 52.377013 68.81891 
L 52.544413 79.400478 
L 52.879213 66.338179 
L 53.046613 66.648266 
L 53.214013 76.960598 
L 53.381413 59.454249 
L 53.548813 56.153809 
L 53.883612 73.41037 
L 54.051012 64.376639 
L 54.218412 67.894679 
L 54.385813 73.942134 
L 54.553213 73.530362 
L 54.720613 71.421991 
L 54.888013 78.390602 
L 55.055413 71.343216 
L 55.222813 71.887906 
L 55.390213 76.664995 
L 55.557613 72.209993 
L 55.725013 77.14669 
L 55.892413 72.509027 
L 56.059812 73.862003 
L 56.394613 62.474159 
L 56.729413 76.467056 
L 56.896813 67.29038 
L 57.231613 77.258647 
L 57.399012 75.121055 
L 57.566412 71.217006 
L 57.733812 77.268163 
L 58.068613 71.545396 
L 58.236013 78.392082 
L 58.403413 74.910371 
L 58.570813 77.652182 
L 58.738213 73.137222 
L 58.905613 74.262413 
L 59.073013 73.322608 
L 59.240413 75.826404 
L 59.407813 74.495748 
L 59.742613 78.153647 
L 59.910013 71.937521 
L 60.412213 80.035839 
L 60.579613 77.949913 
L 60.747013 79.238554 
L 61.081813 76.335089 
L 61.249212 69.25196 
L 61.416612 76.403205 
L 61.584013 73.441888 
L 61.751413 81.806124 
L 61.918813 80.043126 
L 62.086213 82.218991 
L 62.253613 74.779306 
L 62.588413 81.783847 
L 62.755813 79.355447 
L 62.923213 81.108885 
L 63.090613 86.141527 
L 63.258012 82.804566 
L 63.425413 71.935847 
L 63.760213 82.436429 
L 63.927613 77.446334 
L 64.095012 78.333893 
L 64.262413 85.327057 
L 64.429812 82.568975 
L 64.597212 75.308603 
L 64.764612 80.25933 
L 64.932012 78.931625 
L 65.099412 81.360691 
L 65.266813 75.436913 
L 65.434213 83.098425 
L 65.601613 85.062987 
L 65.769013 84.975524 
L 65.936413 78.888977 
L 66.103813 83.928796 
L 66.438613 78.078669 
L 66.606013 89.667745 
L 66.773413 81.920829 
L 66.940813 82.831864 
L 67.108213 74.45124 
L 67.275613 80.711555 
L 67.443013 81.330358 
L 67.777813 86.102651 
L 68.112612 89.733287 
L 68.280012 88.029681 
L 68.447412 91.726204 
L 68.614812 80.425343 
L 68.782212 82.78871 
L 68.949613 77.563608 
L 69.117013 84.858651 
L 69.284413 83.924981 
L 69.451813 76.085306 
L 69.786613 89.261303 
L 69.954013 90.196941 
L 70.121413 77.211426 
L 70.623613 91.788191 
L 70.791012 80.842577 
L 70.958413 82.793676 
L 71.125812 90.904526 
L 71.293213 87.043889 
L 71.460612 90.334982 
L 71.628013 85.07913 
L 71.795412 90.275879 
L 71.962813 89.173878 
L 72.297613 83.974173 
L 72.632413 93.732817 
L 72.799813 91.482809 
L 72.967213 85.281704 
L 73.134613 86.011379 
L 73.302013 90.351832 
L 73.469413 84.111098 
L 73.636812 87.639843 
L 73.804213 79.593682 
L 74.139013 93.291707 
L 74.473813 87.055395 
L 74.641212 95.376233 
L 74.808613 94.724461 
L 74.976012 93.358412 
L 75.143413 86.760408 
L 75.478213 92.744461 
L 75.645612 92.366118 
L 75.813013 89.621353 
L 75.980412 93.333252 
L 76.315213 95.226437 
L 76.482613 89.625192 
L 76.817413 88.452018 
L 76.984813 83.109037 
L 77.152213 91.087806 
L 77.319613 93.251731 
L 77.487013 91.534906 
L 77.654413 87.89419 
L 77.989213 100.596926 
L 78.324013 89.977264 
L 78.491412 90.377892 
L 78.658813 91.911582 
L 78.826212 95.320039 
L 78.993613 91.814173 
L 79.161012 95.257508 
L 79.328412 96.132961 
L 79.495812 101.913758 
L 79.663213 100.730056 
L 79.830613 95.306918 
L 79.998013 95.375402 
L 80.165413 97.711476 
L 80.332813 92.13146 
L 80.500213 99.564806 
L 80.667613 91.925818 
L 80.835013 96.151799 
L 81.002413 94.193004 
L 81.504613 99.123506 
L 81.672012 89.291025 
L 81.839413 100.727705 
L 82.006812 103.364569 
L 82.174213 91.30326 
L 82.341612 90.006518 
L 82.509013 96.89545 
L 82.676412 98.612781 
L 82.843813 88.767215 
L 83.011212 87.486582 
L 83.178613 103.469528 
L 83.346013 106.022607 
L 83.513413 97.275065 
L 83.680813 96.012037 
L 83.848213 99.871376 
L 84.015613 93.393698 
L 84.183013 92.034684 
L 84.350413 99.536062 
L 84.517813 100.713586 
L 84.685213 103.138095 
L 84.852613 97.238715 
L 85.187413 103.03299 
L 85.522213 92.725146 
L 85.689613 108.538432 
L 86.024413 104.004559 
L 86.191813 92.807918 
L 86.526612 103.154455 
L 86.694013 101.364848 
L 86.861413 100.786445 
L 87.028813 101.062993 
L 87.363613 106.921252 
L 87.531013 101.027426 
L 87.698413 100.111321 
L 87.865813 103.411309 
L 88.200613 96.986627 
L 88.368012 107.145308 
L 88.535413 103.099853 
L 88.870213 107.710509 
L 89.037612 107.767876 
L 89.372412 95.20571 
L 89.707212 106.963154 
L 90.042012 107.65536 
L 90.209412 101.91902 
L 90.376812 107.568416 
L 90.544213 100.225094 
L 90.711613 101.023561 
L 90.879013 112.275486 
L 91.046413 104.939773 
L 91.213813 106.703279 
L 91.381213 106.750516 
L 91.548613 105.579919 
L 91.716013 101.273433 
L 92.050813 104.092687 
L 92.218213 107.938105 
L 92.385613 115.019696 
L 92.553013 101.011503 
L 92.720413 99.625545 
L 93.055213 108.357322 
L 93.222612 106.242712 
L 93.390013 107.372729 
L 93.557412 112.135163 
L 93.892212 104.396326 
L 94.059613 112.154048 
L 94.227013 104.580912 
L 94.394413 111.482615 
L 94.561813 111.209788 
L 94.729213 111.324398 
L 94.896613 112.934396 
L 95.064013 117.418623 
L 95.231413 108.348457 
L 95.398813 112.151283 
L 95.566213 107.088345 
L 95.733613 113.492605 
L 95.901013 104.623462 
L 96.068413 102.60662 
L 96.235813 113.940406 
L 96.403213 114.722329 
L 96.738013 114.993726 
L 96.905413 109.615661 
L 97.072813 109.979973 
L 97.407612 120.97909 
L 97.575012 107.223355 
L 97.742413 107.311474 
L 97.909813 121.816226 
L 98.244613 111.348152 
L 98.412013 112.208123 
L 98.579413 116.602025 
L 98.914212 112.073045 
L 99.081613 112.885895 
L 99.416413 118.250398 
L 99.583812 116.858544 
L 99.751213 123.072539 
L 99.918612 114.326353 
L 100.086013 112.196417 
L 100.253412 107.503388 
L 100.420813 117.700612 
L 100.588212 114.869139 
L 100.755613 114.889922 
L 100.923012 114.728341 
L 101.090413 117.313542 
L 101.257812 116.1504 
L 101.425213 107.972408 
L 101.592613 117.585032 
L 101.927413 123.355605 
L 102.094813 121.732012 
L 102.262213 117.614388 
L 102.429613 122.026031 
L 102.597013 121.575801 
L 102.764412 115.335071 
L 102.931813 119.257902 
L 103.099212 115.582739 
L 103.266613 116.797522 
L 103.434012 123.21877 
L 103.601413 116.894964 
L 103.768812 117.065848 
L 103.936213 119.887634 
L 104.103612 118.603768 
L 104.271013 125.584987 
L 104.438412 125.208067 
L 104.773212 120.288587 
L 104.940613 127.76874 
L 105.275413 119.771393 
L 105.442813 120.531827 
L 105.610213 120.621887 
L 105.945013 125.428917 
L 106.112413 122.649465 
L 106.279813 115.571948 
L 106.614613 124.231985 
L 106.782013 130.60912 
L 106.949413 130.752479 
L 107.116813 121.438467 
L 107.284212 125.402756 
L 107.451613 123.458154 
L 107.619012 126.020192 
L 107.786413 126.080457 
L 108.121213 117.940755 
L 108.288612 125.948201 
L 108.456013 124.770431 
L 108.623413 124.913424 
L 108.790812 123.390603 
L 108.958213 131.973051 
L 109.125612 125.430855 
L 109.293013 123.274348 
L 109.460412 132.527393 
L 109.627813 123.06305 
L 109.795212 122.924182 
L 110.130012 126.770323 
L 110.297413 137.586855 
L 110.464812 136.087392 
L 110.632213 122.619271 
L 110.799612 123.524849 
L 111.134412 128.414846 
L 111.301813 128.290227 
L 111.469212 122.268859 
L 111.804012 135.092154 
L 111.971413 130.462993 
L 112.138813 136.53656 
L 112.306213 124.825629 
L 112.473613 127.291471 
L 112.641013 127.587466 
L 112.808413 131.646454 
L 112.975813 124.198998 
L 113.143213 138.443441 
L 113.645412 128.104095 
L 113.812813 131.961265 
L 113.980212 130.606145 
L 114.147613 124.693614 
L 114.482413 129.323759 
L 114.817213 141.103618 
L 114.984612 130.478044 
L 115.152013 136.646081 
L 115.486813 134.148519 
L 115.654212 132.099851 
L 115.989013 142.477264 
L 116.156413 131.444551 
L 116.323813 128.846276 
L 116.491213 133.185007 
L 116.658613 134.272351 
L 116.826013 133.500463 
L 116.993413 141.634722 
L 117.160813 133.742343 
L 117.328213 136.448174 
L 117.495613 129.221018 
L 117.663013 127.256811 
L 117.830413 138.333772 
L 118.165213 133.491785 
L 118.332613 133.874963 
L 118.500012 136.867179 
L 118.667413 132.827298 
L 118.834812 143.615464 
L 119.002213 143.858155 
L 119.169612 130.941556 
L 119.337013 132.816861 
L 119.671813 141.157143 
L 119.839213 142.697039 
L 120.341412 132.854148 
L 120.843613 141.608527 
L 121.011012 139.045698 
L 121.178413 130.045334 
L 121.345812 130.63421 
L 121.680612 141.127804 
L 121.848013 140.399867 
L 122.015412 136.938027 
L 122.182813 143.491552 
L 122.350212 140.989408 
L 122.517613 143.607826 
L 122.685012 141.833024 
L 122.852413 142.981521 
L 123.019813 148.347792 
L 123.354613 131.450273 
L 123.522013 140.297277 
L 123.856813 144.501369 
L 124.024213 137.473535 
L 124.359013 145.955138 
L 124.693813 139.096274 
L 124.861212 145.283906 
L 125.028613 140.784145 
L 125.196012 132.467122 
L 125.363413 146.05027 
L 125.530812 150.130219 
L 125.698213 141.48144 
L 125.865612 140.42708 
L 126.033013 143.49724 
L 126.200412 136.687834 
L 126.367813 137.040334 
L 126.535213 152.94241 
L 126.702613 149.071788 
L 126.870013 136.702563 
L 127.037413 134.021695 
L 127.204813 148.418747 
L 127.372213 146.101302 
L 127.539613 145.502693 
L 127.707013 145.824888 
L 127.874413 145.248744 
L 128.041813 149.244295 
L 128.209213 139.355024 
L 128.376613 143.416873 
L 128.544013 150.185186 
L 128.711413 145.14546 
L 128.878813 147.923564 
L 129.046213 144.712132 
L 129.213613 148.419161 
L 129.381012 148.199419 
L 129.548413 146.65471 
L 129.883213 141.396871 
L 130.050612 150.696316 
L 130.218013 144.770177 
L 130.385413 145.989733 
L 130.552813 150.093693 
L 130.720213 139.364729 
L 131.222413 151.638239 
L 131.389813 146.667693 
L 131.557213 149.490027 
L 131.724613 144.869146 
L 131.892013 154.324232 
L 132.059413 148.610668 
L 132.226813 149.124469 
L 132.394213 148.019335 
L 132.561613 143.713249 
L 132.729013 146.541166 
L 133.063813 155.533494 
L 133.231213 154.974949 
L 133.566013 147.346333 
L 133.733413 149.359783 
L 133.900813 142.115367 
L 134.068213 150.110361 
L 134.403013 152.897417 
L 134.570413 149.545219 
L 134.737813 159.137908 
L 135.072612 146.509166 
L 135.240013 157.363978 
L 135.407412 156.203221 
L 135.574813 149.265065 
L 135.742212 150.441353 
L 135.909613 149.834813 
L 136.077012 158.927158 
L 136.244413 160.623132 
L 136.411812 159.045177 
L 136.746612 149.238536 
L 136.914013 149.816319 
L 137.081412 154.568837 
L 137.248812 153.058457 
L 137.416213 149.763898 
L 137.583612 152.879347 
L 137.751013 153.700272 
L 137.918412 152.443376 
L 138.085813 155.125876 
L 138.253212 155.560279 
L 138.420613 157.610653 
L 138.588012 152.42217 
L 138.755413 152.258551 
L 138.922812 154.966305 
L 139.090213 152.708649 
L 139.257612 152.056199 
L 139.425013 160.614538 
L 139.592412 158.003949 
L 139.759813 157.289554 
L 139.927212 157.443365 
L 140.094613 159.827406 
L 140.262012 160.161635 
L 140.429413 150.770516 
L 140.931612 159.22316 
L 141.266413 148.987415 
L 141.433813 164.455388 
L 141.601213 158.335589 
L 141.768613 156.353902 
L 142.103412 165.745109 
L 142.270813 157.315224 
L 142.438212 165.736396 
L 142.605613 160.312304 
L 142.773012 159.055523 
L 142.940413 155.847112 
L 143.107812 161.251773 
L 143.275213 154.967765 
L 143.442612 158.658979 
L 143.610013 159.015599 
L 143.777412 158.038659 
L 143.944813 166.881886 
L 144.112212 167.647474 
L 144.279613 161.810837 
L 144.447012 165.585984 
L 144.614413 162.344089 
L 144.781813 164.938576 
L 144.949213 159.316297 
L 145.116613 162.777803 
L 145.284013 163.914249 
L 145.451413 166.644985 
L 145.618813 164.494581 
L 145.953613 156.280001 
L 146.288413 162.58976 
L 146.455813 160.634805 
L 146.623213 160.690224 
L 146.790613 172.654429 
L 146.958012 169.918995 
L 147.292812 157.156579 
L 147.460213 176.029336 
L 147.795013 160.31206 
L 147.962412 163.836831 
L 148.129813 174.106225 
L 148.297213 165.886981 
L 148.464613 166.16178 
L 148.966813 159.979458 
L 149.134213 163.623462 
L 149.301613 161.271968 
L 149.469013 161.870064 
L 149.636413 170.143989 
L 149.803813 166.530785 
L 149.971213 168.209581 
L 150.138613 158.223696 
L 150.473413 173.01069 
L 150.640813 164.931177 
L 150.975613 175.31871 
L 151.143013 166.828009 
L 151.310413 166.136851 
L 151.645213 174.822056 
L 151.812613 167.979344 
L 151.980013 167.806206 
L 152.147413 160.136857 
L 152.314813 171.516392 
L 152.482213 174.816642 
L 152.649613 170.384554 
L 152.817013 170.325852 
L 152.984413 171.23545 
L 153.151813 173.188754 
L 153.319213 172.667625 
L 153.486613 169.210007 
L 153.654013 169.349386 
L 153.821413 168.932096 
L 153.988813 170.56299 
L 154.156213 175.931589 
L 154.323613 172.305394 
L 154.491013 173.097639 
L 154.658413 179.776855 
L 154.825813 167.749185 
L 154.993213 168.240956 
L 155.328013 175.579281 
L 155.495413 172.624974 
L 155.662813 166.107863 
L 155.830213 175.863186 
L 156.165013 166.851705 
L 156.332413 172.767996 
L 156.667213 175.651388 
L 156.834612 171.36893 
L 157.002013 184.291623 
L 157.336813 167.658457 
L 157.671613 179.513561 
L 157.839012 167.510947 
L 158.173812 175.59367 
L 158.341213 172.427995 
L 158.508612 177.291141 
L 158.676013 177.652187 
L 158.843412 174.291268 
L 159.010813 181.82781 
L 159.178213 178.003584 
L 159.345612 171.604297 
L 159.513013 171.12475 
L 159.680412 173.267981 
L 159.847813 177.391904 
L 160.015212 175.975405 
L 160.182613 167.387802 
L 160.350012 176.492105 
L 160.517413 174.476002 
L 160.684812 175.319766 
L 160.852213 179.305639 
L 161.019612 179.566265 
L 161.187013 181.898644 
L 161.354412 174.04844 
L 161.521813 178.973795 
L 161.689212 178.001955 
L 161.856613 178.126789 
L 162.024012 175.140011 
L 162.191413 178.940514 
L 162.358812 176.703001 
L 162.693613 183.645342 
L 162.861013 186.134838 
L 163.028413 186.66554 
L 163.363213 171.118946 
L 163.698013 189.431181 
L 163.865413 176.172332 
L 164.032813 187.839368 
L 164.200212 179.94271 
L 164.367613 179.60813 
L 164.535012 184.213841 
L 164.702413 183.350871 
L 164.869812 183.613571 
L 165.037213 184.289619 
L 165.204612 171.832503 
L 165.372013 189.342616 
L 165.706813 183.258128 
L 165.874212 191.479497 
L 166.041613 182.885769 
L 166.209013 180.371062 
L 166.376413 187.300272 
L 166.711212 185.158816 
L 166.878613 179.948005 
L 167.046012 184.95044 
L 167.213413 193.549753 
L 167.380812 185.467205 
L 167.715612 193.266191 
L 167.883013 182.29366 
L 168.050412 191.027611 
L 168.217813 187.027613 
L 168.385212 189.300014 
L 168.720012 182.056234 
L 168.887413 190.358751 
L 169.054812 192.561436 
L 169.222213 185.852402 
L 169.389612 192.280814 
L 169.557013 185.756108 
L 169.891813 196.842858 
L 170.059213 185.264377 
L 170.394013 193.61479 
L 170.561413 185.922975 
L 170.728813 197.774324 
L 170.896213 195.391567 
L 171.231012 183.330578 
L 171.398413 193.970133 
L 171.565812 194.227249 
L 171.733213 195.347326 
L 171.900612 192.267246 
L 172.068013 193.247351 
L 172.235412 191.454383 
L 172.570212 197.982964 
L 172.737613 196.401209 
L 172.905012 188.394937 
L 173.239812 192.964993 
L 173.407213 195.554608 
L 173.742013 191.234228 
L 173.909413 197.513853 
L 174.076813 195.474259 
L 174.244213 199.087953 
L 174.411613 194.834653 
L 174.579013 195.278302 
L 174.746413 197.277015 
L 174.913813 194.583609 
L 175.081213 186.212539 
L 175.248613 204.268291 
L 175.583413 191.016864 
L 175.750813 196.031822 
L 176.085612 193.462979 
L 176.253013 198.156361 
L 176.420412 196.438589 
L 176.755212 198.088772 
L 176.922613 194.359527 
L 177.090013 198.308964 
L 177.257413 198.163257 
L 177.424813 197.134459 
L 177.592213 196.97959 
L 177.759613 194.858379 
L 177.927012 201.086457 
L 178.094413 200.436186 
L 178.261812 192.419303 
L 178.429213 201.160801 
L 178.596612 200.719032 
L 178.764013 192.015862 
L 178.931412 203.427008 
L 179.266212 194.940154 
L 179.433612 197.33176 
L 179.601012 203.499383 
L 179.768412 204.828844 
L 179.935812 195.277206 
L 180.103212 202.405561 
L 180.270612 200.692607 
L 180.438012 201.176933 
L 180.605412 206.335255 
L 180.772812 199.839026 
L 180.940213 203.507151 
L 181.107612 201.375826 
L 181.275013 194.018849 
L 181.442412 204.093813 
L 181.609813 205.714242 
L 181.777212 204.271588 
L 181.944613 199.938623 
L 182.279413 209.140401 
L 182.614213 199.194249 
L 182.949013 206.110468 
L 183.116412 200.828732 
L 183.283813 206.556752 
L 183.451212 205.282311 
L 183.618613 201.830162 
L 183.786012 202.648869 
L 183.953412 211.332532 
L 184.288212 200.859519 
L 184.455613 203.302419 
L 184.623012 210.463871 
L 184.790413 204.280262 
L 184.957812 207.558941 
L 185.125213 201.89144 
L 185.460013 208.759084 
L 185.627412 201.937726 
L 185.962212 209.187034 
L 186.129613 204.353845 
L 186.464413 212.97201 
L 186.631812 207.427753 
L 186.799213 210.20269 
L 187.134013 205.583518 
L 187.301412 216.057089 
L 187.468813 207.436968 
L 187.636212 208.229321 
L 187.803613 210.302395 
L 187.971013 203.267915 
L 188.138413 210.131177 
L 188.305813 211.206174 
L 188.473213 210.711566 
L 188.640613 212.793954 
L 188.808012 209.318181 
L 188.975413 214.930569 
L 189.142812 214.4241 
L 189.310213 209.646119 
L 189.477612 208.322258 
L 189.645013 219.35367 
L 189.979813 204.588796 
L 190.147212 212.219054 
L 190.314613 209.723096 
L 190.649413 215.660608 
L 190.816812 208.868975 
L 190.984213 210.294134 
L 191.151612 210.759971 
L 191.319013 217.414909 
L 191.486413 210.291477 
L 191.653813 209.627969 
L 191.821213 212.289004 
L 191.988613 210.402765 
L 192.323413 220.523229 
L 192.490813 210.956486 
L 192.658213 210.366842 
L 192.825613 214.299945 
L 192.993013 223.098592 
L 193.327812 212.193751 
L 193.495213 218.663758 
L 193.662612 219.36777 
L 193.830013 219.175074 
L 193.997412 218.471181 
L 194.332212 207.024718 
L 194.499613 219.622824 
L 194.834413 210.797471 
L 195.001812 216.794765 
L 195.336613 218.655503 
L 195.504013 213.797774 
L 195.838813 219.39389 
L 196.006213 216.580578 
L 196.173613 211.41164 
L 196.341013 218.58176 
L 196.508413 217.434898 
L 196.675813 218.845393 
L 196.843213 218.444475 
L 197.010613 213.971588 
L 197.178013 221.474311 
L 197.512813 212.835762 
L 197.680213 221.776394 
L 197.847613 218.465168 
L 198.015013 211.785436 
L 198.182412 222.5615 
L 198.517212 218.661385 
L 198.684613 227.480196 
L 198.852013 214.956905 
L 199.019413 214.276701 
L 199.186813 225.667491 
L 199.521613 214.920576 
L 199.856413 221.865308 
L 200.023812 214.070697 
L 200.191213 217.601601 
L 200.358612 225.297147 
L 200.526013 218.144153 
L 200.860813 222.789294 
L 201.028212 221.846194 
L 201.195612 218.026069 
L 201.363012 225.686319 
L 201.530412 218.415322 
L 201.697812 219.57151 
L 201.865212 224.221467 
L 202.032612 215.769053 
L 202.200012 215.603409 
L 202.534812 227.291434 
L 202.702213 214.781089 
L 202.869612 212.285647 
L 203.037013 228.982064 
L 203.371813 216.645666 
L 203.539212 227.689574 
L 203.706613 218.68673 
L 203.874012 222.317612 
L 204.208812 220.375204 
L 204.376213 223.222619 
L 204.543612 222.83463 
L 204.711013 220.672761 
L 204.878412 224.417387 
L 205.045813 222.34721 
L 205.213212 223.450782 
L 205.380613 223.59347 
L 205.548012 230.166125 
L 205.715413 218.995485 
L 206.217613 228.109092 
L 206.552413 221.139245 
L 206.719813 219.475666 
L 206.887213 219.999569 
L 207.054613 219.234429 
L 207.389413 224.989331 
L 207.556813 220.844701 
L 207.724213 225.943889 
L 207.891613 219.886492 
L 208.059013 221.137542 
L 208.226413 227.117296 
L 208.393813 228.293381 
L 208.561213 219.27554 
L 208.728613 227.037714 
L 208.896013 226.627633 
L 209.063413 221.061041 
L 209.230813 226.70699 
L 209.565613 220.121804 
L 209.733013 227.935373 
L 209.900413 221.913556 
L 210.402612 225.256502 
L 210.570013 225.00392 
L 210.737412 225.231125 
L 210.904812 222.348378 
L 211.239612 223.356578 
L 211.407012 230.575358 
L 211.741812 218.348706 
L 212.076612 232.94561 
L 212.244012 221.372879 
L 212.411412 221.071927 
L 212.578812 230.506828 
L 212.746212 221.101136 
L 212.913612 230.439993 
L 213.081012 228.405368 
L 213.248413 219.55863 
L 213.415812 231.954499 
L 213.583213 224.322988 
L 213.750612 225.647307 
L 213.918013 225.556759 
L 214.252813 226.414996 
L 214.420212 228.629288 
L 214.755012 221.187162 
L 215.089812 228.914822 
L 215.257213 226.821988 
L 215.424612 219.45458 
L 215.592013 228.711568 
L 215.759412 228.690553 
L 215.926813 228.018959 
L 216.094212 228.479779 
L 216.261613 227.156686 
L 216.596413 230.547716 
L 216.931213 215.478259 
L 217.098613 231.269138 
L 217.266013 222.326535 
L 217.433413 219.615713 
L 217.600813 237.41954 
L 217.935613 220.596804 
L 218.103013 235.067516 
L 218.437813 225.035208 
L 218.605213 222.749211 
L 218.772612 230.461627 
L 219.107412 224.642617 
L 219.274813 226.275324 
L 219.442212 231.601026 
L 219.609613 227.82221 
L 219.777012 228.433114 
L 219.944413 230.039996 
L 220.111812 225.967121 
L 220.279212 230.829753 
L 220.446612 226.982634 
L 220.614013 226.887154 
L 220.948813 226.421672 
L 221.116212 227.161754 
L 221.283613 231.540442 
L 221.451012 226.840428 
L 221.618413 229.994404 
L 221.785812 237.438572 
L 221.953213 226.182582 
L 222.120612 226.32905 
L 222.288013 232.524965 
L 222.455412 226.017144 
L 222.622813 228.636833 
L 222.790212 224.704468 
L 223.125012 231.820079 
L 223.292413 224.324495 
L 223.459812 227.372086 
L 223.627213 237.947647 
L 223.794612 228.213181 
L 223.962013 228.180361 
L 224.129413 226.40156 
L 224.296813 234.704751 
L 224.631613 225.188514 
L 224.799013 230.613771 
L 224.966413 231.244204 
L 225.133813 220.674142 
L 225.301213 235.17738 
L 225.468613 229.356736 
L 225.636013 228.085184 
L 225.803413 228.047048 
L 225.970813 230.109068 
L 226.305613 224.249786 
L 226.473013 233.929241 
L 226.807813 225.657701 
L 226.975213 230.103469 
L 227.142613 229.457826 
L 227.310013 230.12409 
L 227.477413 226.71011 
L 227.644813 225.909417 
L 227.812213 227.306374 
L 227.979613 231.859045 
L 228.147012 223.167274 
L 228.314413 237.691628 
L 228.481812 228.092147 
L 228.649213 227.46033 
L 228.816612 236.446784 
L 229.151412 221.518812 
L 229.318813 235.693683 
L 229.486212 234.45037 
L 229.653613 227.418424 
L 229.821012 231.816161 
L 229.988413 221.339646 
L 230.155812 235.350747 
L 230.323213 236.987348 
L 230.490612 225.477695 
L 230.658013 231.32502 
L 230.825412 232.274652 
L 230.992813 229.140982 
L 231.160213 228.102385 
L 231.327613 233.237918 
L 231.495013 228.014475 
L 231.662412 230.076512 
L 231.829813 238.465946 
L 231.997212 229.693324 
L 232.164613 227.02651 
L 232.332012 227.646843 
L 232.499413 237.843339 
L 232.666812 227.034461 
L 233.001612 233.908429 
L 233.169013 226.751893 
L 233.336412 235.067567 
L 233.503813 229.599785 
L 233.671212 230.080753 
L 233.838613 227.395728 
L 234.006012 226.623489 
L 234.340812 236.29557 
L 234.675612 223.965053 
L 234.843013 232.605122 
L 235.177813 227.399993 
L 235.345213 227.778856 
L 235.512613 235.167578 
L 235.680013 226.493073 
L 235.847413 229.543628 
L 236.014812 242.075535 
L 236.182213 225.672621 
L 236.349612 222.524896 
L 236.517013 236.595644 
L 236.684412 228.469688 
L 236.851813 227.626824 
L 237.019212 228.74608 
L 237.186613 239.851161 
L 237.354012 231.301799 
L 237.688812 227.001285 
L 238.023612 230.796333 
L 238.191012 231.759768 
L 238.358412 224.144269 
L 238.693212 237.037484 
L 238.860613 223.790562 
L 239.028012 237.169667 
L 239.362812 224.989444 
L 239.530213 238.325484 
L 239.865013 227.488156 
L 240.032412 234.276913 
L 240.199813 233.323874 
L 240.367212 228.610563 
L 240.534613 234.340018 
L 240.869413 229.702164 
L 241.036812 235.420224 
L 241.204213 228.574182 
L 241.371612 230.917417 
L 241.539013 236.316645 
L 241.706412 225.672428 
L 241.873813 225.446243 
L 242.041213 239.599728 
L 242.376013 223.006425 
L 242.543413 234.574279 
L 242.710813 233.425848 
L 242.878213 233.284272 
L 243.045613 231.297174 
L 243.213013 232.446489 
L 243.547813 228.882688 
L 243.715213 238.88704 
L 243.882613 228.399634 
L 244.050013 231.075073 
L 244.217413 236.633221 
L 244.384813 234.280717 
L 244.552213 234.445594 
L 244.887013 226.897706 
L 245.054413 236.807065 
L 245.389212 230.641317 
L 245.724012 234.119545 
L 245.891413 229.135458 
L 246.058812 231.670405 
L 246.226213 236.544888 
L 246.561013 231.912613 
L 246.728412 235.197638 
L 246.895813 229.97526 
L 247.230613 230.677629 
L 247.398012 228.166128 
L 247.565413 237.474482 
L 247.900213 224.780704 
L 248.067612 239.758618 
L 248.235013 224.648237 
L 248.569813 238.384221 
L 248.737212 228.714763 
L 248.904613 232.725591 
L 249.072012 227.113634 
L 249.239413 235.854489 
L 249.406813 232.62376 
L 249.574213 225.325837 
L 249.741613 232.487392 
L 249.909013 233.255207 
L 250.076413 232.226281 
L 250.243813 229.110606 
L 250.411213 234.45338 
L 250.578613 228.136421 
L 250.913413 235.912633 
L 251.248213 230.545464 
L 251.415613 231.295519 
L 251.583013 234.420782 
L 251.750413 230.389576 
L 251.917813 232.724456 
L 252.085213 226.263099 
L 252.252613 235.379329 
L 252.420013 232.013626 
L 252.587413 232.028888 
L 252.754813 236.019196 
L 252.922213 225.559401 
L 253.089613 236.920046 
L 253.257013 230.046943 
L 253.424413 228.065593 
L 253.591812 238.848711 
L 253.759213 230.643782 
L 253.926612 230.535516 
L 254.094013 233.853592 
L 254.261412 234.766966 
L 254.428813 225.016131 
L 254.596212 230.417959 
L 254.763613 240.493465 
L 255.098412 229.735698 
L 255.265812 235.510568 
L 255.433212 228.509486 
L 255.600612 231.495992 
L 255.768012 237.246536 
L 255.935412 232.115631 
L 256.102813 231.180359 
L 256.270213 225.331078 
L 256.605012 236.615677 
L 256.772413 225.203556 
L 256.939813 234.2655 
L 257.107213 233.769117 
L 257.274612 235.50568 
L 257.442013 230.762969 
L 257.609413 221.991843 
L 257.776813 243.556364 
L 258.111613 226.359831 
L 258.279013 239.273969 
L 258.446413 226.691445 
L 258.613812 230.422489 
L 258.781213 238.35878 
L 258.948613 227.605152 
L 259.116013 232.790048 
L 259.283412 234.478478 
L 259.450813 234.892866 
L 259.618213 234.059662 
L 259.785613 228.301272 
L 259.953012 232.850338 
L 260.120413 230.761527 
L 260.287813 233.982033 
L 260.622613 229.263219 
L 260.790013 237.954043 
L 261.124813 225.094836 
L 261.292213 243.438526 
L 261.627013 224.851761 
L 261.794413 238.99545 
L 262.129213 228.598979 
L 262.296613 233.234168 
L 262.464013 234.474436 
L 262.798813 226.546337 
L 262.966212 238.496562 
L 263.301013 226.503401 
L 263.468413 236.858821 
L 263.635812 232.765673 
L 263.803213 232.508217 
L 263.970613 228.687981 
L 264.305412 238.450139 
L 264.472813 229.051107 
L 264.640213 229.362163 
L 264.807613 242.132606 
L 265.142413 227.151961 
L 265.309813 236.578364 
L 265.477213 237.309109 
L 265.644612 227.687616 
L 265.812013 234.244003 
L 265.979413 234.956755 
L 266.146813 232.819081 
L 266.314212 232.771796 
L 266.481613 234.596404 
L 266.649013 230.410202 
L 266.816413 233.077242 
L 266.983812 230.164723 
L 267.151213 235.259069 
L 267.318613 232.742368 
L 267.486013 228.140612 
L 267.653413 234.543938 
L 267.820813 231.970526 
L 267.988213 236.26114 
L 268.155613 225.645664 
L 268.323013 237.7306 
L 268.490413 237.257385 
L 268.657813 224.939174 
L 268.992613 238.350541 
L 269.160013 226.995285 
L 269.327413 232.20704 
L 269.494813 230.548121 
L 269.662213 238.626813 
L 269.829613 231.298299 
L 269.997013 229.784212 
L 270.164413 235.05277 
L 270.499213 230.418973 
L 270.666613 235.566298 
L 270.834013 235.911467 
L 271.001413 229.622839 
L 271.168813 228.891601 
L 271.336213 237.537627 
L 271.503613 235.090877 
L 271.671013 223.226794 
L 271.838413 239.176174 
L 272.005813 235.332988 
L 272.173213 226.565007 
L 272.340613 240.041701 
L 272.675412 231.12681 
L 272.842813 234.783395 
L 273.010213 229.62362 
L 273.177613 241.547406 
L 273.512413 228.232344 
L 273.679813 233.50779 
L 273.847213 233.501987 
L 274.014612 227.421124 
L 274.182012 228.75419 
L 274.349413 238.406548 
L 274.516813 237.596062 
L 274.684213 228.732859 
L 274.851612 235.528224 
L 275.186413 227.082884 
L 275.353813 238.40225 
L 275.688613 228.488666 
L 275.856013 236.07326 
L 276.023413 237.676813 
L 276.190812 233.396449 
L 276.358213 232.575928 
L 276.525613 230.585765 
L 276.693013 231.754749 
L 276.860412 239.061992 
L 277.195213 224.796061 
L 277.362613 237.732629 
L 277.530012 232.883905 
L 277.697413 223.461589 
L 277.864813 239.200704 
L 278.199613 227.107888 
L 278.367013 240.773116 
L 278.534413 235.225556 
L 278.701813 225.9878 
L 279.036613 236.273435 
L 279.204013 232.880711 
L 279.371413 233.974241 
L 279.538813 233.573215 
L 279.706213 230.936805 
L 279.873613 235.56222 
L 280.041013 233.133194 
L 280.208413 232.624201 
L 280.375813 233.416178 
L 280.543212 230.208746 
L 280.878013 236.682085 
L 281.212812 229.162543 
L 281.380213 235.819218 
L 281.547613 237.377067 
L 281.715013 231.568204 
L 281.882412 231.776244 
L 282.049813 234.687807 
L 282.217213 229.157199 
L 282.384613 230.856611 
L 282.552012 234.135827 
L 282.719413 226.94057 
L 282.886813 239.719463 
L 283.054213 235.966822 
L 283.221612 228.267859 
L 283.389013 236.732858 
L 283.556413 231.485922 
L 283.723813 230.15378 
L 283.891212 241.289208 
L 284.226013 225.341345 
L 284.393413 239.022522 
L 284.560812 236.303503 
L 284.728213 230.671734 
L 284.895613 230.816056 
L 285.063013 226.911523 
L 285.230412 238.13195 
L 285.732613 229.607101 
L 285.900013 237.299225 
L 286.067413 231.32973 
L 286.234813 233.75113 
L 286.402213 233.198478 
L 286.569613 228.59295 
L 286.737013 237.164477 
L 286.904413 235.902744 
L 287.071813 225.836975 
L 287.239213 232.532135 
L 287.406613 233.141586 
L 287.574013 235.154882 
L 287.741413 234.534472 
L 287.908813 230.054622 
L 288.243613 233.974826 
L 288.411013 228.673605 
L 288.745813 234.918987 
L 288.913213 227.74624 
L 289.080613 234.56522 
L 289.248013 230.99263 
L 289.415413 230.756673 
L 289.582813 233.202476 
L 289.917613 231.781666 
L 290.085013 236.554396 
L 290.252412 227.244106 
L 290.419813 229.704878 
L 290.587213 236.635142 
L 290.754613 227.814797 
L 290.922012 236.084777 
L 291.089413 236.217012 
L 291.256813 226.365855 
L 291.424213 234.831356 
L 291.591612 232.233404 
L 291.759013 237.825335 
L 291.926413 226.83166 
L 292.093813 237.344629 
L 292.261212 238.323465 
L 292.428613 229.581555 
L 292.596013 228.961398 
L 292.763413 232.328387 
L 292.930813 233.299868 
L 293.098213 235.406795 
L 293.265613 229.197919 
L 293.433013 230.096929 
L 293.600413 239.244715 
L 293.767813 228.484873 
L 294.102613 236.861015 
L 294.270013 228.662803 
L 294.604813 238.481235 
L 294.772213 229.072605 
L 294.939613 230.874778 
L 295.107013 236.565885 
L 295.274413 236.548541 
L 295.441813 227.442646 
L 295.609213 238.83232 
L 295.944013 229.316203 
L 296.111413 237.306622 
L 296.278813 230.218932 
L 296.446213 230.842443 
L 296.613613 239.850121 
L 296.781013 231.718939 
L 296.948413 229.067364 
L 297.115813 236.846265 
L 297.283213 231.029084 
L 297.450613 230.71962 
L 297.618013 235.760009 
L 297.952813 227.609158 
L 298.120213 238.935231 
L 298.287613 238.706366 
L 298.455013 228.377759 
L 298.622413 231.704912 
L 298.789813 238.479815 
L 298.957213 228.099283 
L 299.124613 238.236776 
L 299.292013 236.105373 
L 299.459413 228.069854 
L 299.626813 235.253333 
L 299.961613 229.745 
L 300.129013 240.26299 
L 300.296413 230.77711 
L 300.463813 233.09366 
L 300.631213 242.065049 
L 300.966013 222.311006 
L 301.133413 242.528135 
L 301.468213 225.677015 
L 301.635613 238.321041 
L 301.803013 231.472746 
L 301.970413 230.746149 
L 302.137813 238.303147 
L 302.472613 229.442216 
L 302.640013 233.974322 
L 302.807412 242.394451 
L 302.974813 229.6656 
L 303.142213 230.654996 
L 303.309613 238.015832 
L 303.477013 232.336203 
L 303.811813 230.971379 
L 304.146613 236.292063 
L 304.314013 235.194413 
L 304.481413 232.35606 
L 304.816213 234.560447 
L 304.983613 232.203938 
L 305.151013 231.64515 
L 305.318413 234.264142 
L 305.485813 232.407153 
L 305.653213 229.054799 
L 305.820613 238.77609 
L 305.988013 228.875625 
L 306.155413 234.225445 
L 306.322813 235.287571 
L 306.490213 229.717576 
L 306.657613 237.823061 
L 306.992413 231.480386 
L 307.159813 236.784023 
L 307.327213 224.82147 
L 307.662013 240.553866 
L 307.829413 227.306426 
L 307.996813 229.209641 
L 308.164213 237.983358 
L 308.331613 237.14435 
L 308.499013 226.543929 
L 308.833813 234.755558 
L 309.001213 234.999881 
L 309.168613 234.803953 
L 309.503413 229.51473 
L 309.670813 238.359912 
L 309.838213 233.415518 
L 310.005613 234.526556 
L 310.340413 229.301694 
L 310.507813 234.143423 
L 310.675213 235.016435 
L 310.842613 227.551737 
L 311.010013 236.858463 
L 311.177413 238.058278 
L 311.344813 232.775033 
L 311.512213 231.396263 
L 311.679613 237.09736 
L 311.847013 236.861873 
L 312.014413 228.961293 
L 312.181813 236.975655 
L 312.516613 229.526078 
L 312.684013 237.479689 
L 312.851413 229.260129 
L 313.018813 228.182257 
L 313.186213 243.14145 
L 313.353613 229.640975 
L 313.521013 229.049207 
L 313.688413 236.826691 
L 313.855813 238.364141 
L 314.023213 228.7328 
L 314.190613 234.562088 
L 314.358013 233.673055 
L 314.525413 227.737945 
L 314.692813 242.459424 
L 315.027613 228.889323 
L 315.195013 237.295264 
L 315.362413 235.606066 
L 315.529813 227.995295 
L 315.697213 236.591721 
L 315.864613 232.20546 
L 316.032013 231.554471 
L 316.199413 238.407543 
L 316.366813 229.725927 
L 316.701613 232.744345 
L 316.869013 232.454787 
L 317.036413 232.774668 
L 317.203813 233.665164 
L 317.371213 237.361099 
L 317.538613 226.392487 
L 317.706013 241.424927 
L 318.040813 227.139419 
L 318.208213 236.308907 
L 318.375613 232.944347 
L 318.877813 235.481504 
L 319.045213 226.549811 
L 319.380013 240.657823 
L 319.547413 226.405045 
L 319.714812 232.214887 
L 319.882213 232.798879 
L 320.049613 231.706218 
L 320.217013 235.696941 
L 320.384412 235.248162 
L 320.551813 226.856849 
L 320.886613 238.399881 
L 321.054012 227.379775 
L 321.221413 236.383133 
L 321.388813 229.469212 
L 321.556213 240.070391 
L 321.723613 236.978647 
L 321.891013 229.391766 
L 322.393213 239.458612 
L 322.560613 231.723973 
L 322.728013 232.412863 
L 322.895413 230.279867 
L 323.230213 240.616862 
L 323.397613 230.464631 
L 323.565013 228.823198 
L 323.899813 236.460482 
L 324.067213 229.499892 
L 324.234613 234.153621 
L 324.402013 229.910515 
L 324.569413 235.252294 
L 324.736813 235.805419 
L 324.904213 231.536972 
L 325.071613 231.544531 
L 325.239013 230.478557 
L 325.406413 236.877309 
L 325.573813 230.197694 
L 325.741213 236.747144 
L 326.076013 229.327523 
L 326.243413 237.387489 
L 326.578213 228.566456 
L 326.745613 232.584215 
L 326.913013 232.970061 
L 327.080413 237.2179 
L 327.247813 234.917756 
L 327.415213 226.258256 
L 327.750013 233.896908 
L 327.917413 233.847453 
L 328.084813 234.117802 
L 328.252213 232.409282 
L 328.419613 236.480058 
L 328.587013 235.82838 
L 328.754413 233.989675 
L 328.921813 228.120171 
L 329.256613 237.029685 
L 329.424013 230.618731 
L 329.591413 231.19826 
L 329.926213 234.756721 
L 330.093613 230.868959 
L 330.261013 235.885052 
L 330.595813 229.395589 
L 330.763213 239.026569 
L 330.930613 237.148258 
L 331.098013 227.582276 
L 331.432813 239.172192 
L 331.600213 227.989632 
L 331.767613 229.33602 
L 331.935013 239.242615 
L 332.102413 230.076134 
L 332.269813 235.485396 
L 332.437213 233.36094 
L 332.604613 233.046279 
L 332.772013 233.198328 
L 332.939413 230.792226 
L 333.106813 235.482131 
L 333.274213 235.198794 
L 333.609013 231.767789 
L 333.776413 234.351968 
L 333.943813 234.428045 
L 334.111213 227.858825 
L 334.278613 240.559753 
L 334.613413 228.903142 
L 334.780813 238.438483 
L 335.115613 232.127662 
L 335.283013 231.517952 
L 335.450413 235.717922 
L 335.617813 233.423504 
L 335.785213 228.145213 
L 335.952613 230.859978 
L 336.120013 235.467065 
L 336.287413 231.660412 
L 336.454813 233.733841 
L 336.622213 232.572601 
L 336.789613 229.166473 
L 336.957013 240.857919 
L 337.124413 227.27033 
L 337.459213 237.929323 
L 337.626613 226.035599 
L 337.794013 237.759143 
L 337.961413 237.127586 
L 338.128813 228.058764 
L 338.463613 240.683086 
L 338.798413 227.394793 
L 338.965813 237.856267 
L 339.133213 237.188792 
L 339.468013 228.315138 
L 339.635413 237.471294 
L 340.305013 230.287089 
L 340.472413 237.042378 
L 340.639813 231.106427 
L 340.807213 241.183879 
L 340.974613 228.15686 
L 341.142013 226.926391 
L 341.309413 239.136703 
L 341.644213 228.589096 
L 341.811613 229.708426 
L 342.146413 236.827561 
L 342.313813 231.184409 
L 342.481213 230.864157 
L 342.648613 237.07769 
L 342.983413 229.834021 
L 343.150813 235.386863 
L 343.318213 232.62762 
L 343.485613 236.119277 
L 343.653013 232.760462 
L 343.820413 231.98597 
L 343.987813 236.006961 
L 344.155213 227.73479 
L 344.322613 236.793251 
L 344.657413 232.453204 
L 344.992213 236.03676 
L 345.159613 230.045859 
L 345.327013 235.179499 
L 345.494413 236.122136 
L 345.661813 235.788139 
L 345.996613 229.542417 
L 346.164013 237.705577 
L 346.331413 235.863764 
L 346.498813 227.409618 
L 346.666213 225.8744 
L 346.833613 237.10316 
L 347.001013 236.848311 
L 347.168413 226.561443 
L 347.335813 240.148795 
L 347.503213 236.716341 
L 347.670613 227.433578 
L 347.838013 236.419677 
L 348.005413 234.956071 
L 348.172813 227.483132 
L 348.340213 234.990932 
L 348.507613 235.406109 
L 348.675013 231.060242 
L 348.842413 232.516941 
L 349.009813 231.07667 
L 349.177213 237.154829 
L 349.344613 232.511803 
L 349.512013 237.828313 
L 349.679413 232.569299 
L 349.846813 233.994865 
L 350.014213 230.10469 
L 350.516413 235.685432 
L 350.683813 229.878053 
L 350.851213 237.696283 
L 351.018613 238.22483 
L 351.186013 227.791772 
L 351.520813 238.187998 
L 351.688213 233.584534 
L 351.855613 237.244101 
L 352.023013 228.836242 
L 352.190413 227.893883 
L 352.357813 238.205353 
L 352.692613 230.812809 
L 352.860013 231.637832 
L 353.027413 235.156481 
L 353.194813 230.135538 
L 353.362213 238.45869 
L 353.697013 231.373976 
L 354.031813 236.364084 
L 354.199213 234.348021 
L 354.366613 228.838382 
L 354.534013 235.732186 
L 354.701413 234.181479 
L 354.868813 230.324906 
L 355.036213 235.79657 
L 355.203613 232.567054 
L 355.371013 231.888218 
L 355.705813 235.447871 
L 355.873213 233.321245 
L 356.040613 232.681608 
L 356.208013 234.43613 
L 356.542813 235.394984 
L 356.710213 227.532351 
L 357.045013 239.650542 
L 357.379813 230.99655 
L 357.547213 233.851875 
L 357.714613 229.477319 
L 357.882013 236.504789 
L 358.049413 237.159199 
L 358.216813 230.206726 
L 358.384213 233.393631 
L 358.551613 233.355812 
L 358.719013 229.862541 
L 358.886413 240.100873 
L 359.053813 228.676576 
L 359.388613 240.158846 
L 359.723413 225.654559 
L 359.890813 231.702745 
L 360.058213 232.906145 
L 360.225613 236.239765 
L 360.560413 233.446806 
L 360.727813 233.788077 
L 360.895213 233.432004 
L 361.062613 235.602862 
L 361.397413 230.433822 
L 361.564813 230.651059 
L 361.732213 239.494723 
L 362.067013 229.554476 
L 362.234413 235.301783 
L 362.401813 235.945138 
L 362.569213 231.273196 
L 362.736613 238.459732 
L 363.238813 229.346861 
L 363.406213 236.903092 
L 363.573613 237.638256 
L 363.741013 224.350556 
L 363.908412 228.008488 
L 364.075813 238.465093 
L 364.243213 231.107743 
L 364.410613 236.30883 
L 364.745413 229.970474 
L 364.912813 236.050474 
L 365.080213 229.793185 
L 365.247613 233.928612 
L 365.415013 233.635247 
L 365.582413 238.811199 
L 365.749813 232.42038 
L 365.917213 233.736565 
L 366.252013 229.380891 
L 366.419413 240.847985 
L 366.754213 227.340627 
L 366.921613 238.637377 
L 367.089013 231.642705 
L 367.256413 229.689403 
L 367.423813 232.307275 
L 367.591213 232.053676 
L 367.758613 236.614085 
L 367.926013 235.084141 
L 368.093413 222.978151 
L 368.260813 236.322577 
L 368.428213 236.717085 
L 368.595613 230.857846 
L 368.763013 235.708613 
L 368.930413 233.433581 
L 369.097813 234.753072 
L 369.265213 228.52325 
L 369.432613 234.067126 
L 369.600013 233.180297 
L 369.767413 227.675882 
L 369.934813 241.871669 
L 370.269613 224.938911 
L 370.437013 236.22411 
L 370.604413 235.883961 
L 370.771813 234.249637 
L 370.939213 230.014393 
L 371.106613 238.404676 
L 371.274013 235.887982 
L 371.608813 226.503368 
L 371.776213 233.951643 
L 371.943613 231.282253 
L 372.278413 235.529254 
L 372.445813 234.954953 
L 372.780613 229.071983 
L 372.948013 239.733009 
L 373.115413 230.633697 
L 373.282813 233.484488 
L 373.282813 233.484488 
" clip-path="url(#pf3ceed6515)" style="fill: none; stroke: #1f77b4; stroke-width: 1.5; stroke-linecap: square"/>
   </g>
   <g id="line2d_17">
    <path d="M 38.650213 53.386108 
L 39.319813 59.372874 
L 39.989413 63.385923 
L 40.659013 66.07595 
L 41.328612 67.879129 
L 41.998213 69.087836 
L 42.667813 69.898057 
L 43.504812 70.546249 
L 44.509213 70.99707 
L 45.848413 71.299038 
L 47.857213 71.471221 
L 52.042213 71.539342 
L 85.857013 71.545434 
L 373.282813 71.545434 
L 373.282813 71.545434 
" clip-path="url(#pf3ceed6515)" style="fill: none; stroke: #ff7f0e; stroke-width: 1.5; stroke-linecap: square"/>
   </g>
   <g id="patch_3">
    <path d="M 38.482813 253.44 
L 38.482813 36 
" style="fill: none; stroke: #000000; stroke-width: 0.8; stroke-linejoin: miter; stroke-linecap: square"/>
   </g>
   <g id="patch_4">
    <path d="M 373.282813 253.44 
L 373.282813 36 
" style="fill: none; stroke: #000000; stroke-width: 0.8; stroke-linejoin: miter; stroke-linecap: square"/>
   </g>
   <g id="patch_5">
    <path d="M 38.482813 253.44 
L 373.282813 253.44 
" style="fill: none; stroke: #000000; stroke-width: 0.8; stroke-linejoin: miter; stroke-linecap: square"/>
   </g>
   <g id="patch_6">
    <path d="M 38.482813 36 
L 373.282813 36 
" style="fill: none; stroke: #000000; stroke-width: 0.8; stroke-linejoin: miter; stroke-linecap: square"/>
   </g>
   <g id="legend_1">
    <g id="patch_7">
     <path d="M 45.482813 248.44 
L 95.182813 248.44 
Q 97.182813 248.44 97.182813 246.44 
L 97.182813 214.361875 
Q 97.182813 212.361875 95.182813 212.361875 
L 45.482813 212.361875 
Q 43.482813 212.361875 43.482813 214.361875 
L 43.482813 246.44 
Q 43.482813 248.44 45.482813 248.44 
z
" style="fill: #ffffff; opacity: 0.8; stroke: #cccccc; stroke-linejoin: miter"/>
    </g>
    <g id="line2d_18">
     <path d="M 47.482813 224.161875 
L 57.482813 224.161875 
L 67.482812 224.161875 
" style="fill: none; stroke: #1f77b4; stroke-width: 1.5; stroke-linecap: square"/>
    </g>
    <g id="text_17">
     <!-- $\hat{y(t)}$ -->
     <g transform="translate(75.482812 227.661875) scale(0.1 -0.1)">
      <defs>
       <path id="DejaVuSans-302" d="M -1831 5119 
L -1369 5119 
L -603 3944 
L -1038 3944 
L -1600 4709 
L -2163 3944 
L -2597 3944 
L -1831 5119 
z
M -1600 3584 
L -1600 3584 
z
" transform="scale(0.015625)"/>
       <path id="DejaVuSans-Oblique-79" d="M 1588 -325 
Q 1188 -997 936 -1164 
Q 684 -1331 294 -1331 
L -159 -1331 
L -63 -850 
L 269 -850 
Q 509 -850 678 -719 
Q 847 -588 1056 -206 
L 1234 128 
L 459 3500 
L 1069 3500 
L 1650 819 
L 3256 3500 
L 3859 3500 
L 1588 -325 
z
" transform="scale(0.015625)"/>
       <path id="DejaVuSans-28" d="M 1984 4856 
Q 1566 4138 1362 3434 
Q 1159 2731 1159 2009 
Q 1159 1288 1364 580 
Q 1569 -128 1984 -844 
L 1484 -844 
Q 1016 -109 783 600 
Q 550 1309 550 2009 
Q 550 2706 781 3412 
Q 1013 4119 1484 4856 
L 1984 4856 
z
" transform="scale(0.015625)"/>
       <path id="DejaVuSans-29" d="M 513 4856 
L 1013 4856 
Q 1481 4119 1714 3412 
Q 1947 2706 1947 2009 
Q 1947 1309 1714 600 
Q 1481 -109 1013 -844 
L 513 -844 
Q 928 -128 1133 580 
Q 1338 1288 1338 2009 
Q 1338 2731 1133 3434 
Q 928 4138 513 4856 
z
" transform="scale(0.015625)"/>
      </defs>
      <use xlink:href="#DejaVuSans-302" transform="translate(135.682129 33.015625)"/>
      <use xlink:href="#DejaVuSans-Oblique-79" transform="translate(0 0.640625)"/>
      <use xlink:href="#DejaVuSans-28" transform="translate(59.179688 0.640625)"/>
      <use xlink:href="#DejaVuSans-Oblique-74" transform="translate(98.193359 0.640625)"/>
      <use xlink:href="#DejaVuSans-29" transform="translate(137.402344 0.640625)"/>
     </g>
    </g>
    <g id="line2d_19">
     <path d="M 47.482813 238.860312 
L 57.482813 238.860312 
L 67.482812 238.860312 
" style="fill: none; stroke: #ff7f0e; stroke-width: 1.5; stroke-linecap: square"/>
    </g>
    <g id="text_18">
     <!-- $x(t)$ -->
     <g transform="translate(75.482812 242.360312) scale(0.1 -0.1)">
      <defs>
       <path id="DejaVuSans-Oblique-78" d="M 3841 3500 
L 2234 1784 
L 3219 0 
L 2559 0 
L 1819 1388 
L 531 0 
L -166 0 
L 1556 1844 
L 641 3500 
L 1300 3500 
L 1972 2234 
L 3144 3500 
L 3841 3500 
z
" transform="scale(0.015625)"/>
      </defs>
      <use xlink:href="#DejaVuSans-Oblique-78" transform="translate(0 0.125)"/>
      <use xlink:href="#DejaVuSans-28" transform="translate(59.179688 0.125)"/>
      <use xlink:href="#DejaVuSans-Oblique-74" transform="translate(98.193359 0.125)"/>
      <use xlink:href="#DejaVuSans-29" transform="translate(137.402344 0.125)"/>
     </g>
    </g>
   </g>
  </g>
  <g id="text_19">
   <!-- Accumulate to Threshold decision maker with input of -0.1 -->
   <g transform="translate(24.8825 16.318125) scale(0.12 -0.12)">
    <defs>
     <path id="DejaVuSans-41" d="M 2188 4044 
L 1331 1722 
L 3047 1722 
L 2188 4044 
z
M 1831 4666 
L 2547 4666 
L 4325 0 
L 3669 0 
L 3244 1197 
L 1141 1197 
L 716 0 
L 50 0 
L 1831 4666 
z
" transform="scale(0.015625)"/>
     <path id="DejaVuSans-63" d="M 3122 3366 
L 3122 2828 
Q 2878 2963 2633 3030 
Q 2388 3097 2138 3097 
Q 1578 3097 1268 2742 
Q 959 2388 959 1747 
Q 959 1106 1268 751 
Q 1578 397 2138 397 
Q 2388 397 2633 464 
Q 2878 531 3122 666 
L 3122 134 
Q 2881 22 2623 -34 
Q 2366 -91 2075 -91 
Q 1284 -91 818 406 
Q 353 903 353 1747 
Q 353 2603 823 3093 
Q 1294 3584 2113 3584 
Q 2378 3584 2631 3529 
Q 2884 3475 3122 3366 
z
" transform="scale(0.015625)"/>
     <path id="DejaVuSans-75" d="M 544 1381 
L 544 3500 
L 1119 3500 
L 1119 1403 
Q 1119 906 1312 657 
Q 1506 409 1894 409 
Q 2359 409 2629 706 
Q 2900 1003 2900 1516 
L 2900 3500 
L 3475 3500 
L 3475 0 
L 2900 0 
L 2900 538 
Q 2691 219 2414 64 
Q 2138 -91 1772 -91 
Q 1169 -91 856 284 
Q 544 659 544 1381 
z
M 1991 3584 
L 1991 3584 
z
" transform="scale(0.015625)"/>
     <path id="DejaVuSans-6d" d="M 3328 2828 
Q 3544 3216 3844 3400 
Q 4144 3584 4550 3584 
Q 5097 3584 5394 3201 
Q 5691 2819 5691 2113 
L 5691 0 
L 5113 0 
L 5113 2094 
Q 5113 2597 4934 2840 
Q 4756 3084 4391 3084 
Q 3944 3084 3684 2787 
Q 3425 2491 3425 1978 
L 3425 0 
L 2847 0 
L 2847 2094 
Q 2847 2600 2669 2842 
Q 2491 3084 2119 3084 
Q 1678 3084 1418 2786 
Q 1159 2488 1159 1978 
L 1159 0 
L 581 0 
L 581 3500 
L 1159 3500 
L 1159 2956 
Q 1356 3278 1631 3431 
Q 1906 3584 2284 3584 
Q 2666 3584 2933 3390 
Q 3200 3197 3328 2828 
z
" transform="scale(0.015625)"/>
     <path id="DejaVuSans-6c" d="M 603 4863 
L 1178 4863 
L 1178 0 
L 603 0 
L 603 4863 
z
" transform="scale(0.015625)"/>
     <path id="DejaVuSans-61" d="M 2194 1759 
Q 1497 1759 1228 1600 
Q 959 1441 959 1056 
Q 959 750 1161 570 
Q 1363 391 1709 391 
Q 2188 391 2477 730 
Q 2766 1069 2766 1631 
L 2766 1759 
L 2194 1759 
z
M 3341 1997 
L 3341 0 
L 2766 0 
L 2766 531 
Q 2569 213 2275 61 
Q 1981 -91 1556 -91 
Q 1019 -91 701 211 
Q 384 513 384 1019 
Q 384 1609 779 1909 
Q 1175 2209 1959 2209 
L 2766 2209 
L 2766 2266 
Q 2766 2663 2505 2880 
Q 2244 3097 1772 3097 
Q 1472 3097 1187 3025 
Q 903 2953 641 2809 
L 641 3341 
Q 956 3463 1253 3523 
Q 1550 3584 1831 3584 
Q 2591 3584 2966 3190 
Q 3341 2797 3341 1997 
z
" transform="scale(0.015625)"/>
     <path id="DejaVuSans-74" d="M 1172 4494 
L 1172 3500 
L 2356 3500 
L 2356 3053 
L 1172 3053 
L 1172 1153 
Q 1172 725 1289 603 
Q 1406 481 1766 481 
L 2356 481 
L 2356 0 
L 1766 0 
Q 1100 0 847 248 
Q 594 497 594 1153 
L 594 3053 
L 172 3053 
L 172 3500 
L 594 3500 
L 594 4494 
L 1172 4494 
z
" transform="scale(0.015625)"/>
     <path id="DejaVuSans-65" d="M 3597 1894 
L 3597 1613 
L 953 1613 
Q 991 1019 1311 708 
Q 1631 397 2203 397 
Q 2534 397 2845 478 
Q 3156 559 3463 722 
L 3463 178 
Q 3153 47 2828 -22 
Q 2503 -91 2169 -91 
Q 1331 -91 842 396 
Q 353 884 353 1716 
Q 353 2575 817 3079 
Q 1281 3584 2069 3584 
Q 2775 3584 3186 3129 
Q 3597 2675 3597 1894 
z
M 3022 2063 
Q 3016 2534 2758 2815 
Q 2500 3097 2075 3097 
Q 1594 3097 1305 2825 
Q 1016 2553 972 2059 
L 3022 2063 
z
" transform="scale(0.015625)"/>
     <path id="DejaVuSans-20" transform="scale(0.015625)"/>
     <path id="DejaVuSans-6f" d="M 1959 3097 
Q 1497 3097 1228 2736 
Q 959 2375 959 1747 
Q 959 1119 1226 758 
Q 1494 397 1959 397 
Q 2419 397 2687 759 
Q 2956 1122 2956 1747 
Q 2956 2369 2687 2733 
Q 2419 3097 1959 3097 
z
M 1959 3584 
Q 2709 3584 3137 3096 
Q 3566 2609 3566 1747 
Q 3566 888 3137 398 
Q 2709 -91 1959 -91 
Q 1206 -91 779 398 
Q 353 888 353 1747 
Q 353 2609 779 3096 
Q 1206 3584 1959 3584 
z
" transform="scale(0.015625)"/>
     <path id="DejaVuSans-54" d="M -19 4666 
L 3928 4666 
L 3928 4134 
L 2272 4134 
L 2272 0 
L 1638 0 
L 1638 4134 
L -19 4134 
L -19 4666 
z
" transform="scale(0.015625)"/>
     <path id="DejaVuSans-68" d="M 3513 2113 
L 3513 0 
L 2938 0 
L 2938 2094 
Q 2938 2591 2744 2837 
Q 2550 3084 2163 3084 
Q 1697 3084 1428 2787 
Q 1159 2491 1159 1978 
L 1159 0 
L 581 0 
L 581 4863 
L 1159 4863 
L 1159 2956 
Q 1366 3272 1645 3428 
Q 1925 3584 2291 3584 
Q 2894 3584 3203 3211 
Q 3513 2838 3513 2113 
z
" transform="scale(0.015625)"/>
     <path id="DejaVuSans-72" d="M 2631 2963 
Q 2534 3019 2420 3045 
Q 2306 3072 2169 3072 
Q 1681 3072 1420 2755 
Q 1159 2438 1159 1844 
L 1159 0 
L 581 0 
L 581 3500 
L 1159 3500 
L 1159 2956 
Q 1341 3275 1631 3429 
Q 1922 3584 2338 3584 
Q 2397 3584 2469 3576 
Q 2541 3569 2628 3553 
L 2631 2963 
z
" transform="scale(0.015625)"/>
     <path id="DejaVuSans-73" d="M 2834 3397 
L 2834 2853 
Q 2591 2978 2328 3040 
Q 2066 3103 1784 3103 
Q 1356 3103 1142 2972 
Q 928 2841 928 2578 
Q 928 2378 1081 2264 
Q 1234 2150 1697 2047 
L 1894 2003 
Q 2506 1872 2764 1633 
Q 3022 1394 3022 966 
Q 3022 478 2636 193 
Q 2250 -91 1575 -91 
Q 1294 -91 989 -36 
Q 684 19 347 128 
L 347 722 
Q 666 556 975 473 
Q 1284 391 1588 391 
Q 1994 391 2212 530 
Q 2431 669 2431 922 
Q 2431 1156 2273 1281 
Q 2116 1406 1581 1522 
L 1381 1569 
Q 847 1681 609 1914 
Q 372 2147 372 2553 
Q 372 3047 722 3315 
Q 1072 3584 1716 3584 
Q 2034 3584 2315 3537 
Q 2597 3491 2834 3397 
z
" transform="scale(0.015625)"/>
     <path id="DejaVuSans-64" d="M 2906 2969 
L 2906 4863 
L 3481 4863 
L 3481 0 
L 2906 0 
L 2906 525 
Q 2725 213 2448 61 
Q 2172 -91 1784 -91 
Q 1150 -91 751 415 
Q 353 922 353 1747 
Q 353 2572 751 3078 
Q 1150 3584 1784 3584 
Q 2172 3584 2448 3432 
Q 2725 3281 2906 2969 
z
M 947 1747 
Q 947 1113 1208 752 
Q 1469 391 1925 391 
Q 2381 391 2643 752 
Q 2906 1113 2906 1747 
Q 2906 2381 2643 2742 
Q 2381 3103 1925 3103 
Q 1469 3103 1208 2742 
Q 947 2381 947 1747 
z
" transform="scale(0.015625)"/>
     <path id="DejaVuSans-69" d="M 603 3500 
L 1178 3500 
L 1178 0 
L 603 0 
L 603 3500 
z
M 603 4863 
L 1178 4863 
L 1178 4134 
L 603 4134 
L 603 4863 
z
" transform="scale(0.015625)"/>
     <path id="DejaVuSans-6e" d="M 3513 2113 
L 3513 0 
L 2938 0 
L 2938 2094 
Q 2938 2591 2744 2837 
Q 2550 3084 2163 3084 
Q 1697 3084 1428 2787 
Q 1159 2491 1159 1978 
L 1159 0 
L 581 0 
L 581 3500 
L 1159 3500 
L 1159 2956 
Q 1366 3272 1645 3428 
Q 1925 3584 2291 3584 
Q 2894 3584 3203 3211 
Q 3513 2838 3513 2113 
z
" transform="scale(0.015625)"/>
     <path id="DejaVuSans-6b" d="M 581 4863 
L 1159 4863 
L 1159 1991 
L 2875 3500 
L 3609 3500 
L 1753 1863 
L 3688 0 
L 2938 0 
L 1159 1709 
L 1159 0 
L 581 0 
L 581 4863 
z
" transform="scale(0.015625)"/>
     <path id="DejaVuSans-77" d="M 269 3500 
L 844 3500 
L 1563 769 
L 2278 3500 
L 2956 3500 
L 3675 769 
L 4391 3500 
L 4966 3500 
L 4050 0 
L 3372 0 
L 2619 2869 
L 1863 0 
L 1184 0 
L 269 3500 
z
" transform="scale(0.015625)"/>
     <path id="DejaVuSans-70" d="M 1159 525 
L 1159 -1331 
L 581 -1331 
L 581 3500 
L 1159 3500 
L 1159 2969 
Q 1341 3281 1617 3432 
Q 1894 3584 2278 3584 
Q 2916 3584 3314 3078 
Q 3713 2572 3713 1747 
Q 3713 922 3314 415 
Q 2916 -91 2278 -91 
Q 1894 -91 1617 61 
Q 1341 213 1159 525 
z
M 3116 1747 
Q 3116 2381 2855 2742 
Q 2594 3103 2138 3103 
Q 1681 3103 1420 2742 
Q 1159 2381 1159 1747 
Q 1159 1113 1420 752 
Q 1681 391 2138 391 
Q 2594 391 2855 752 
Q 3116 1113 3116 1747 
z
" transform="scale(0.015625)"/>
     <path id="DejaVuSans-66" d="M 2375 4863 
L 2375 4384 
L 1825 4384 
Q 1516 4384 1395 4259 
Q 1275 4134 1275 3809 
L 1275 3500 
L 2222 3500 
L 2222 3053 
L 1275 3053 
L 1275 0 
L 697 0 
L 697 3053 
L 147 3053 
L 147 3500 
L 697 3500 
L 697 3744 
Q 697 4328 969 4595 
Q 1241 4863 1831 4863 
L 2375 4863 
z
" transform="scale(0.015625)"/>
     <path id="DejaVuSans-2d" d="M 313 2009 
L 1997 2009 
L 1997 1497 
L 313 1497 
L 313 2009 
z
" transform="scale(0.015625)"/>
    </defs>
    <use xlink:href="#DejaVuSans-41"/>
    <use xlink:href="#DejaVuSans-63" x="66.658203"/>
    <use xlink:href="#DejaVuSans-63" x="121.638672"/>
    <use xlink:href="#DejaVuSans-75" x="176.619141"/>
    <use xlink:href="#DejaVuSans-6d" x="239.998047"/>
    <use xlink:href="#DejaVuSans-75" x="337.410156"/>
    <use xlink:href="#DejaVuSans-6c" x="400.789062"/>
    <use xlink:href="#DejaVuSans-61" x="428.572266"/>
    <use xlink:href="#DejaVuSans-74" x="489.851562"/>
    <use xlink:href="#DejaVuSans-65" x="529.060547"/>
    <use xlink:href="#DejaVuSans-20" x="590.583984"/>
    <use xlink:href="#DejaVuSans-74" x="622.371094"/>
    <use xlink:href="#DejaVuSans-6f" x="661.580078"/>
    <use xlink:href="#DejaVuSans-20" x="722.761719"/>
    <use xlink:href="#DejaVuSans-54" x="754.548828"/>
    <use xlink:href="#DejaVuSans-68" x="815.632812"/>
    <use xlink:href="#DejaVuSans-72" x="879.011719"/>
    <use xlink:href="#DejaVuSans-65" x="917.875"/>
    <use xlink:href="#DejaVuSans-73" x="979.398438"/>
    <use xlink:href="#DejaVuSans-68" x="1031.498047"/>
    <use xlink:href="#DejaVuSans-6f" x="1094.876953"/>
    <use xlink:href="#DejaVuSans-6c" x="1156.058594"/>
    <use xlink:href="#DejaVuSans-64" x="1183.841797"/>
    <use xlink:href="#DejaVuSans-20" x="1247.318359"/>
    <use xlink:href="#DejaVuSans-64" x="1279.105469"/>
    <use xlink:href="#DejaVuSans-65" x="1342.582031"/>
    <use xlink:href="#DejaVuSans-63" x="1404.105469"/>
    <use xlink:href="#DejaVuSans-69" x="1459.085938"/>
    <use xlink:href="#DejaVuSans-73" x="1486.869141"/>
    <use xlink:href="#DejaVuSans-69" x="1538.96875"/>
    <use xlink:href="#DejaVuSans-6f" x="1566.751953"/>
    <use xlink:href="#DejaVuSans-6e" x="1627.933594"/>
    <use xlink:href="#DejaVuSans-20" x="1691.3125"/>
    <use xlink:href="#DejaVuSans-6d" x="1723.099609"/>
    <use xlink:href="#DejaVuSans-61" x="1820.511719"/>
    <use xlink:href="#DejaVuSans-6b" x="1881.791016"/>
    <use xlink:href="#DejaVuSans-65" x="1936.076172"/>
    <use xlink:href="#DejaVuSans-72" x="1997.599609"/>
    <use xlink:href="#DejaVuSans-20" x="2038.712891"/>
    <use xlink:href="#DejaVuSans-77" x="2070.5"/>
    <use xlink:href="#DejaVuSans-69" x="2152.287109"/>
    <use xlink:href="#DejaVuSans-74" x="2180.070312"/>
    <use xlink:href="#DejaVuSans-68" x="2219.279297"/>
    <use xlink:href="#DejaVuSans-20" x="2282.658203"/>
    <use xlink:href="#DejaVuSans-69" x="2314.445312"/>
    <use xlink:href="#DejaVuSans-6e" x="2342.228516"/>
    <use xlink:href="#DejaVuSans-70" x="2405.607422"/>
    <use xlink:href="#DejaVuSans-75" x="2469.083984"/>
    <use xlink:href="#DejaVuSans-74" x="2532.462891"/>
    <use xlink:href="#DejaVuSans-20" x="2571.671875"/>
    <use xlink:href="#DejaVuSans-6f" x="2603.458984"/>
    <use xlink:href="#DejaVuSans-66" x="2664.640625"/>
    <use xlink:href="#DejaVuSans-20" x="2699.845703"/>
    <use xlink:href="#DejaVuSans-2d" x="2731.632812"/>
    <use xlink:href="#DejaVuSans-30" x="2767.716797"/>
    <use xlink:href="#DejaVuSans-2e" x="2831.339844"/>
    <use xlink:href="#DejaVuSans-31" x="2863.126953"/>
   </g>
  </g>
 </g>
 <defs>
  <clipPath id="pf3ceed6515">
   <rect x="38.482813" y="36" width="334.8" height="217.44"/>
  </clipPath>
 </defs>
</svg>
