<?xml version="1.0" encoding="utf-8" standalone="no"?>
<!DOCTYPE svg PUBLIC "-//W3C//DTD SVG 1.1//EN"
  "http://www.w3.org/Graphics/SVG/1.1/DTD/svg11.dtd">
<svg xmlns:xlink="http://www.w3.org/1999/xlink" width="401.378437pt" height="277.318125pt" viewBox="0 0 401.378437 277.318125" xmlns="http://www.w3.org/2000/svg" version="1.1">
 <metadata>
  <rdf:RDF xmlns:dc="http://purl.org/dc/elements/1.1/" xmlns:cc="http://creativecommons.org/ns#" xmlns:rdf="http://www.w3.org/1999/02/22-rdf-syntax-ns#">
   <cc:Work>
    <dc:type rdf:resource="http://purl.org/dc/dcmitype/StillImage"/>
    <dc:date>2022-11-17T12:42:11.705620</dc:date>
    <dc:format>image/svg+xml</dc:format>
    <dc:creator>
     <cc:Agent>
      <dc:title>Matplotlib v3.6.0, https://matplotlib.org/</dc:title>
     </cc:Agent>
    </dc:creator>
   </cc:Work>
  </rdf:RDF>
 </metadata>
 <defs>
  <style type="text/css">*{stroke-linejoin: round; stroke-linecap: butt}</style>
 </defs>
 <g id="figure_1">
  <g id="patch_1">
   <path d="M 0 277.318125 
L 401.378437 277.318125 
L 401.378437 0 
L 0 0 
L 0 277.318125 
z
" style="fill: none"/>
  </g>
  <g id="axes_1">
   <g id="patch_2">
    <path d="M 44.845313 253.44 
L 379.645313 253.44 
L 379.645313 36 
L 44.845313 36 
z
" style="fill: #ffffff"/>
   </g>
   <g id="matplotlib.axis_1">
    <g id="xtick_1">
     <g id="line2d_1">
      <defs>
       <path id="m0336392864" d="M 0 0 
L 0 3.5 
" style="stroke: #000000; stroke-width: 0.8"/>
      </defs>
      <g>
       <use xlink:href="#m0336392864" x="44.845313" y="253.44" style="stroke: #000000; stroke-width: 0.8"/>
      </g>
     </g>
     <g id="text_1">
      <!-- 0.00 -->
      <g transform="translate(33.7125 268.038437) scale(0.1 -0.1)">
       <defs>
        <path id="DejaVuSans-30" d="M 2034 4250 
Q 1547 4250 1301 3770 
Q 1056 3291 1056 2328 
Q 1056 1369 1301 889 
Q 1547 409 2034 409 
Q 2525 409 2770 889 
Q 3016 1369 3016 2328 
Q 3016 3291 2770 3770 
Q 2525 4250 2034 4250 
z
M 2034 4750 
Q 2819 4750 3233 4129 
Q 3647 3509 3647 2328 
Q 3647 1150 3233 529 
Q 2819 -91 2034 -91 
Q 1250 -91 836 529 
Q 422 1150 422 2328 
Q 422 3509 836 4129 
Q 1250 4750 2034 4750 
z
" transform="scale(0.015625)"/>
        <path id="DejaVuSans-2e" d="M 684 794 
L 1344 794 
L 1344 0 
L 684 0 
L 684 794 
z
" transform="scale(0.015625)"/>
       </defs>
       <use xlink:href="#DejaVuSans-30"/>
       <use xlink:href="#DejaVuSans-2e" x="63.623047"/>
       <use xlink:href="#DejaVuSans-30" x="95.410156"/>
       <use xlink:href="#DejaVuSans-30" x="159.033203"/>
      </g>
     </g>
    </g>
    <g id="xtick_2">
     <g id="line2d_2">
      <g>
       <use xlink:href="#m0336392864" x="86.695313" y="253.44" style="stroke: #000000; stroke-width: 0.8"/>
      </g>
     </g>
     <g id="text_2">
      <!-- 0.25 -->
      <g transform="translate(75.5625 268.038437) scale(0.1 -0.1)">
       <defs>
        <path id="DejaVuSans-32" d="M 1228 531 
L 3431 531 
L 3431 0 
L 469 0 
L 469 531 
Q 828 903 1448 1529 
Q 2069 2156 2228 2338 
Q 2531 2678 2651 2914 
Q 2772 3150 2772 3378 
Q 2772 3750 2511 3984 
Q 2250 4219 1831 4219 
Q 1534 4219 1204 4116 
Q 875 4013 500 3803 
L 500 4441 
Q 881 4594 1212 4672 
Q 1544 4750 1819 4750 
Q 2544 4750 2975 4387 
Q 3406 4025 3406 3419 
Q 3406 3131 3298 2873 
Q 3191 2616 2906 2266 
Q 2828 2175 2409 1742 
Q 1991 1309 1228 531 
z
" transform="scale(0.015625)"/>
        <path id="DejaVuSans-35" d="M 691 4666 
L 3169 4666 
L 3169 4134 
L 1269 4134 
L 1269 2991 
Q 1406 3038 1543 3061 
Q 1681 3084 1819 3084 
Q 2600 3084 3056 2656 
Q 3513 2228 3513 1497 
Q 3513 744 3044 326 
Q 2575 -91 1722 -91 
Q 1428 -91 1123 -41 
Q 819 9 494 109 
L 494 744 
Q 775 591 1075 516 
Q 1375 441 1709 441 
Q 2250 441 2565 725 
Q 2881 1009 2881 1497 
Q 2881 1984 2565 2268 
Q 2250 2553 1709 2553 
Q 1456 2553 1204 2497 
Q 953 2441 691 2322 
L 691 4666 
z
" transform="scale(0.015625)"/>
       </defs>
       <use xlink:href="#DejaVuSans-30"/>
       <use xlink:href="#DejaVuSans-2e" x="63.623047"/>
       <use xlink:href="#DejaVuSans-32" x="95.410156"/>
       <use xlink:href="#DejaVuSans-35" x="159.033203"/>
      </g>
     </g>
    </g>
    <g id="xtick_3">
     <g id="line2d_3">
      <g>
       <use xlink:href="#m0336392864" x="128.545313" y="253.44" style="stroke: #000000; stroke-width: 0.8"/>
      </g>
     </g>
     <g id="text_3">
      <!-- 0.50 -->
      <g transform="translate(117.4125 268.038437) scale(0.1 -0.1)">
       <use xlink:href="#DejaVuSans-30"/>
       <use xlink:href="#DejaVuSans-2e" x="63.623047"/>
       <use xlink:href="#DejaVuSans-35" x="95.410156"/>
       <use xlink:href="#DejaVuSans-30" x="159.033203"/>
      </g>
     </g>
    </g>
    <g id="xtick_4">
     <g id="line2d_4">
      <g>
       <use xlink:href="#m0336392864" x="170.395313" y="253.44" style="stroke: #000000; stroke-width: 0.8"/>
      </g>
     </g>
     <g id="text_4">
      <!-- 0.75 -->
      <g transform="translate(159.2625 268.038437) scale(0.1 -0.1)">
       <defs>
        <path id="DejaVuSans-37" d="M 525 4666 
L 3525 4666 
L 3525 4397 
L 1831 0 
L 1172 0 
L 2766 4134 
L 525 4134 
L 525 4666 
z
" transform="scale(0.015625)"/>
       </defs>
       <use xlink:href="#DejaVuSans-30"/>
       <use xlink:href="#DejaVuSans-2e" x="63.623047"/>
       <use xlink:href="#DejaVuSans-37" x="95.410156"/>
       <use xlink:href="#DejaVuSans-35" x="159.033203"/>
      </g>
     </g>
    </g>
    <g id="xtick_5">
     <g id="line2d_5">
      <g>
       <use xlink:href="#m0336392864" x="212.245313" y="253.44" style="stroke: #000000; stroke-width: 0.8"/>
      </g>
     </g>
     <g id="text_5">
      <!-- 1.00 -->
      <g transform="translate(201.1125 268.038437) scale(0.1 -0.1)">
       <defs>
        <path id="DejaVuSans-31" d="M 794 531 
L 1825 531 
L 1825 4091 
L 703 3866 
L 703 4441 
L 1819 4666 
L 2450 4666 
L 2450 531 
L 3481 531 
L 3481 0 
L 794 0 
L 794 531 
z
" transform="scale(0.015625)"/>
       </defs>
       <use xlink:href="#DejaVuSans-31"/>
       <use xlink:href="#DejaVuSans-2e" x="63.623047"/>
       <use xlink:href="#DejaVuSans-30" x="95.410156"/>
       <use xlink:href="#DejaVuSans-30" x="159.033203"/>
      </g>
     </g>
    </g>
    <g id="xtick_6">
     <g id="line2d_6">
      <g>
       <use xlink:href="#m0336392864" x="254.095313" y="253.44" style="stroke: #000000; stroke-width: 0.8"/>
      </g>
     </g>
     <g id="text_6">
      <!-- 1.25 -->
      <g transform="translate(242.9625 268.038437) scale(0.1 -0.1)">
       <use xlink:href="#DejaVuSans-31"/>
       <use xlink:href="#DejaVuSans-2e" x="63.623047"/>
       <use xlink:href="#DejaVuSans-32" x="95.410156"/>
       <use xlink:href="#DejaVuSans-35" x="159.033203"/>
      </g>
     </g>
    </g>
    <g id="xtick_7">
     <g id="line2d_7">
      <g>
       <use xlink:href="#m0336392864" x="295.945313" y="253.44" style="stroke: #000000; stroke-width: 0.8"/>
      </g>
     </g>
     <g id="text_7">
      <!-- 1.50 -->
      <g transform="translate(284.8125 268.038437) scale(0.1 -0.1)">
       <use xlink:href="#DejaVuSans-31"/>
       <use xlink:href="#DejaVuSans-2e" x="63.623047"/>
       <use xlink:href="#DejaVuSans-35" x="95.410156"/>
       <use xlink:href="#DejaVuSans-30" x="159.033203"/>
      </g>
     </g>
    </g>
    <g id="xtick_8">
     <g id="line2d_8">
      <g>
       <use xlink:href="#m0336392864" x="337.795313" y="253.44" style="stroke: #000000; stroke-width: 0.8"/>
      </g>
     </g>
     <g id="text_8">
      <!-- 1.75 -->
      <g transform="translate(326.6625 268.038437) scale(0.1 -0.1)">
       <use xlink:href="#DejaVuSans-31"/>
       <use xlink:href="#DejaVuSans-2e" x="63.623047"/>
       <use xlink:href="#DejaVuSans-37" x="95.410156"/>
       <use xlink:href="#DejaVuSans-35" x="159.033203"/>
      </g>
     </g>
    </g>
    <g id="xtick_9">
     <g id="line2d_9">
      <g>
       <use xlink:href="#m0336392864" x="379.645313" y="253.44" style="stroke: #000000; stroke-width: 0.8"/>
      </g>
     </g>
     <g id="text_9">
      <!-- 2.00 -->
      <g transform="translate(368.5125 268.038437) scale(0.1 -0.1)">
       <use xlink:href="#DejaVuSans-32"/>
       <use xlink:href="#DejaVuSans-2e" x="63.623047"/>
       <use xlink:href="#DejaVuSans-30" x="95.410156"/>
       <use xlink:href="#DejaVuSans-30" x="159.033203"/>
      </g>
     </g>
    </g>
   </g>
   <g id="matplotlib.axis_2">
    <g id="ytick_1">
     <g id="line2d_10">
      <defs>
       <path id="md1caec8ce2" d="M 0 0 
L -3.5 0 
" style="stroke: #000000; stroke-width: 0.8"/>
      </defs>
      <g>
       <use xlink:href="#md1caec8ce2" x="44.845313" y="248.066103" style="stroke: #000000; stroke-width: 0.8"/>
      </g>
     </g>
     <g id="text_10">
      <!-- −0.20 -->
      <g transform="translate(7.2 251.865322) scale(0.1 -0.1)">
       <defs>
        <path id="DejaVuSans-2212" d="M 678 2272 
L 4684 2272 
L 4684 1741 
L 678 1741 
L 678 2272 
z
" transform="scale(0.015625)"/>
       </defs>
       <use xlink:href="#DejaVuSans-2212"/>
       <use xlink:href="#DejaVuSans-30" x="83.789062"/>
       <use xlink:href="#DejaVuSans-2e" x="147.412109"/>
       <use xlink:href="#DejaVuSans-32" x="179.199219"/>
       <use xlink:href="#DejaVuSans-30" x="242.822266"/>
      </g>
     </g>
    </g>
    <g id="ytick_2">
     <g id="line2d_11">
      <g>
       <use xlink:href="#md1caec8ce2" x="44.845313" y="205.505024" style="stroke: #000000; stroke-width: 0.8"/>
      </g>
     </g>
     <g id="text_11">
      <!-- −0.15 -->
      <g transform="translate(7.2 209.304243) scale(0.1 -0.1)">
       <use xlink:href="#DejaVuSans-2212"/>
       <use xlink:href="#DejaVuSans-30" x="83.789062"/>
       <use xlink:href="#DejaVuSans-2e" x="147.412109"/>
       <use xlink:href="#DejaVuSans-31" x="179.199219"/>
       <use xlink:href="#DejaVuSans-35" x="242.822266"/>
      </g>
     </g>
    </g>
    <g id="ytick_3">
     <g id="line2d_12">
      <g>
       <use xlink:href="#md1caec8ce2" x="44.845313" y="162.943945" style="stroke: #000000; stroke-width: 0.8"/>
      </g>
     </g>
     <g id="text_12">
      <!-- −0.10 -->
      <g transform="translate(7.2 166.743164) scale(0.1 -0.1)">
       <use xlink:href="#DejaVuSans-2212"/>
       <use xlink:href="#DejaVuSans-30" x="83.789062"/>
       <use xlink:href="#DejaVuSans-2e" x="147.412109"/>
       <use xlink:href="#DejaVuSans-31" x="179.199219"/>
       <use xlink:href="#DejaVuSans-30" x="242.822266"/>
      </g>
     </g>
    </g>
    <g id="ytick_4">
     <g id="line2d_13">
      <g>
       <use xlink:href="#md1caec8ce2" x="44.845313" y="120.382866" style="stroke: #000000; stroke-width: 0.8"/>
      </g>
     </g>
     <g id="text_13">
      <!-- −0.05 -->
      <g transform="translate(7.2 124.182085) scale(0.1 -0.1)">
       <use xlink:href="#DejaVuSans-2212"/>
       <use xlink:href="#DejaVuSans-30" x="83.789062"/>
       <use xlink:href="#DejaVuSans-2e" x="147.412109"/>
       <use xlink:href="#DejaVuSans-30" x="179.199219"/>
       <use xlink:href="#DejaVuSans-35" x="242.822266"/>
      </g>
     </g>
    </g>
    <g id="ytick_5">
     <g id="line2d_14">
      <g>
       <use xlink:href="#md1caec8ce2" x="44.845313" y="77.821787" style="stroke: #000000; stroke-width: 0.8"/>
      </g>
     </g>
     <g id="text_14">
      <!-- 0.00 -->
      <g transform="translate(15.579688 81.621006) scale(0.1 -0.1)">
       <use xlink:href="#DejaVuSans-30"/>
       <use xlink:href="#DejaVuSans-2e" x="63.623047"/>
       <use xlink:href="#DejaVuSans-30" x="95.410156"/>
       <use xlink:href="#DejaVuSans-30" x="159.033203"/>
      </g>
     </g>
    </g>
   </g>
   <g id="line2d_15">
    <path d="M 45.012713 77.821787 
L 45.180113 74.83369 
L 45.347513 45.883636 
L 45.849713 101.365491 
L 46.017113 71.500113 
L 46.184513 111.0911 
L 46.351913 60.288044 
L 46.686713 106.679494 
L 46.854113 102.483648 
L 47.021513 84.672326 
L 47.188913 117.935036 
L 47.356313 122.423358 
L 47.523713 81.268048 
L 47.691113 117.580762 
L 47.858513 117.1923 
L 48.025913 105.948212 
L 48.360713 168.454042 
L 48.528113 128.852629 
L 48.862913 173.578504 
L 49.030313 156.427476 
L 49.197713 166.195369 
L 49.365113 155.469435 
L 49.532513 160.971366 
L 49.699913 134.949942 
L 49.867313 146.15853 
L 50.034713 145.834579 
L 50.369513 123.390642 
L 50.704313 135.356183 
L 50.871713 150.327019 
L 51.039113 133.99814 
L 51.206513 165.309193 
L 51.541313 142.127225 
L 51.708713 159.478248 
L 51.876113 133.667658 
L 52.043513 151.385722 
L 52.210913 187.950886 
L 52.378313 172.006805 
L 52.545713 138.669898 
L 52.713113 141.566121 
L 52.880513 141.346699 
L 53.047913 109.344749 
L 53.215313 154.48011 
L 53.382713 136.100984 
L 53.550113 156.283429 
L 53.717513 132.556151 
L 54.219713 167.691836 
L 54.387113 163.13018 
L 54.554513 138.759054 
L 54.721913 157.055794 
L 54.889313 162.471442 
L 55.391513 129.858724 
L 55.558913 141.46623 
L 55.726313 126.196544 
L 55.893713 125.14979 
L 56.228513 186.185418 
L 56.563313 111.873325 
L 56.898113 148.529252 
L 57.065513 147.407419 
L 57.232913 156.521302 
L 57.400313 131.97476 
L 57.567713 129.292696 
L 57.735113 145.914938 
L 57.902513 122.822459 
L 58.069913 165.994176 
L 58.237313 152.877475 
L 58.739513 186.883503 
L 59.074313 137.696484 
L 59.409113 178.34666 
L 59.743913 143.005233 
L 59.911313 137.999714 
L 60.748313 191.659133 
L 60.915713 189.941963 
L 61.083113 182.12997 
L 61.250513 181.983338 
L 61.417913 155.181784 
L 61.585313 175.127261 
L 61.752713 169.794902 
L 62.087513 190.041464 
L 62.254913 163.630863 
L 62.422313 189.981498 
L 62.589713 193.658953 
L 62.757113 148.239493 
L 62.924513 169.198547 
L 63.091913 171.631909 
L 63.259313 148.150376 
L 63.426713 146.943122 
L 63.594113 164.077143 
L 63.761513 141.28076 
L 63.928913 148.792268 
L 64.096313 164.126647 
L 64.263713 139.835439 
L 64.598513 176.495118 
L 64.933313 188.169738 
L 65.268113 123.277388 
L 65.435513 130.887671 
L 65.602913 168.876161 
L 65.770313 160.267223 
L 65.937713 132.367863 
L 66.105113 161.922722 
L 66.272513 156.627263 
L 66.439913 184.67775 
L 66.607313 181.430457 
L 66.942113 169.642376 
L 67.109513 210.488754 
L 67.444313 174.833873 
L 67.611713 178.801384 
L 67.946513 153.279152 
L 68.113913 172.134745 
L 68.281313 155.913128 
L 68.448713 152.620812 
L 68.616113 203.819159 
L 68.783513 192.601422 
L 68.950913 190.794582 
L 69.118313 208.773333 
L 69.285713 200.036172 
L 69.453113 181.423349 
L 69.620513 243.556364 
L 69.955313 169.338476 
L 70.122713 152.23228 
L 70.290113 216.086591 
L 70.457513 220.413321 
L 70.624913 141.746929 
L 70.959713 208.437803 
L 71.127113 201.8603 
L 71.629313 161.167681 
L 71.796713 162.250821 
L 71.964113 174.617641 
L 72.298913 143.479611 
L 72.466313 170.59021 
L 72.801113 150.400722 
L 72.968513 138.731156 
L 73.135913 112.887647 
L 73.303313 128.694159 
L 73.470713 100.455388 
L 73.638113 140.635206 
L 73.805513 145.820347 
L 73.972913 147.184006 
L 74.140313 152.110803 
L 74.307713 145.041268 
L 74.475113 205.632786 
L 74.809913 157.027224 
L 74.977313 183.330693 
L 75.144713 190.216105 
L 75.312113 138.520988 
L 75.479513 122.634084 
L 75.814313 160.057224 
L 75.981713 130.541875 
L 76.149113 147.515733 
L 76.651313 124.955913 
L 76.818713 141.433438 
L 76.986113 134.443806 
L 77.153513 155.431651 
L 77.320913 135.014505 
L 77.488313 132.355283 
L 77.823113 168.050368 
L 77.990513 146.468231 
L 78.157913 178.57256 
L 78.325313 142.666291 
L 78.492713 136.769318 
L 78.660113 152.854112 
L 78.827513 153.393036 
L 78.994913 167.342928 
L 79.162313 145.768019 
L 79.329713 146.628184 
L 79.664513 129.031813 
L 79.831913 147.003344 
L 80.334113 117.055342 
L 80.668913 114.941652 
L 81.003713 89.951611 
L 81.171113 91.16398 
L 81.338513 99.372163 
L 81.505913 97.826263 
L 81.840713 109.291357 
L 82.175513 141.013752 
L 82.342913 120.839873 
L 82.510313 120.803838 
L 82.677713 129.912987 
L 82.845113 127.548059 
L 83.012513 137.272863 
L 83.179913 156.694593 
L 83.347313 156.641109 
L 83.682113 142.147813 
L 83.849513 195.078278 
L 84.016913 169.399879 
L 84.351713 156.98945 
L 84.519113 147.82102 
L 84.853913 178.608463 
L 85.021313 143.556797 
L 85.356113 174.688162 
L 85.523513 134.812504 
L 85.690913 129.38912 
L 85.858313 152.880385 
L 86.025713 155.793416 
L 86.193113 134.178143 
L 86.360513 167.759272 
L 86.527913 163.822142 
L 86.695313 149.133264 
L 86.862713 164.975219 
L 87.030113 161.785784 
L 87.197513 175.603835 
L 87.364913 144.223245 
L 87.699713 122.681109 
L 87.867113 149.0331 
L 88.034513 148.409941 
L 88.369313 171.685818 
L 88.536713 148.628853 
L 88.704113 149.221012 
L 89.038913 176.614291 
L 89.206313 168.679226 
L 89.541113 131.018986 
L 89.708513 127.431725 
L 89.875913 147.454938 
L 90.043313 146.034223 
L 90.210713 127.990936 
L 90.378113 131.863848 
L 90.545513 157.175914 
L 90.880313 145.35375 
L 91.047713 150.987497 
L 91.215113 134.190961 
L 91.382513 168.035488 
L 91.549913 132.182329 
L 91.884713 151.273503 
L 92.052113 136.51531 
L 92.219513 149.14959 
L 92.386913 175.388557 
L 92.554313 148.790489 
L 92.721713 157.295672 
L 92.889113 185.465964 
L 93.056513 190.2302 
L 93.223913 170.989013 
L 93.391313 172.533713 
L 93.558713 168.522825 
L 93.726113 185.46121 
L 94.060913 160.082566 
L 94.395713 168.210009 
L 94.563113 144.803905 
L 94.897913 181.8473 
L 95.065313 158.628295 
L 95.567513 171.846081 
L 95.734913 137.777426 
L 96.069713 157.072089 
L 96.237113 156.359105 
L 96.404513 126.895937 
L 96.739313 182.741853 
L 96.906713 185.956821 
L 97.074113 164.760216 
L 97.241513 182.574709 
L 97.576313 146.52757 
L 97.743713 165.734064 
L 97.911113 166.049516 
L 98.078513 167.019543 
L 98.580713 130.467628 
L 98.915513 181.511983 
L 99.082913 171.644556 
L 99.250313 182.053146 
L 99.417713 225.585843 
L 99.585113 185.958849 
L 99.752513 182.137478 
L 99.919913 168.005781 
L 100.087313 200.287854 
L 100.254713 201.833098 
L 100.589513 115.293101 
L 100.924313 186.203266 
L 101.259113 159.616083 
L 101.426513 166.713477 
L 101.593913 131.849181 
L 101.761313 122.52134 
L 101.928713 156.538076 
L 102.430913 136.098144 
L 102.598313 165.342157 
L 102.765713 151.16523 
L 102.933113 147.074128 
L 103.100513 160.51836 
L 103.267913 163.722161 
L 103.435313 152.089155 
L 103.602713 166.9164 
L 103.770113 192.862945 
L 103.937513 174.523086 
L 104.104913 176.267032 
L 104.272313 153.716793 
L 104.607113 212.688592 
L 104.941913 162.182986 
L 105.276713 199.864507 
L 105.444113 156.681378 
L 105.778913 167.481887 
L 105.946313 154.124676 
L 106.113713 179.869374 
L 106.281113 186.51028 
L 106.615913 165.038254 
L 106.783313 192.343273 
L 106.950713 186.182211 
L 107.285513 135.104733 
L 107.452913 153.004195 
L 107.620313 157.479733 
L 107.787713 170.970042 
L 107.955113 154.791791 
L 108.122513 169.93638 
L 108.289913 148.187147 
L 108.457313 187.721953 
L 108.624713 175.449894 
L 108.792113 134.479025 
L 109.126913 172.770954 
L 109.294313 151.757908 
L 109.461713 160.811092 
L 109.629113 139.052139 
L 109.796513 176.974368 
L 110.131313 146.709024 
L 110.298713 145.480933 
L 110.466113 161.97095 
L 110.633513 146.965331 
L 110.800913 150.440432 
L 110.968313 150.779328 
L 111.135713 166.504547 
L 111.303113 152.684142 
L 111.470513 155.118741 
L 111.805313 198.862334 
L 111.972713 191.850864 
L 112.140113 200.397863 
L 112.474913 172.547 
L 112.642313 175.530183 
L 112.809713 201.174421 
L 113.144513 212.859805 
L 113.311913 214.685155 
L 113.479313 195.156022 
L 113.646713 199.646964 
L 113.814113 212.465826 
L 114.148913 168.916539 
L 114.316313 158.984251 
L 114.483713 179.461519 
L 114.651113 164.191796 
L 114.818513 181.322975 
L 114.985913 168.491942 
L 115.153313 198.644668 
L 115.488113 177.946047 
L 115.655513 185.096734 
L 115.822913 184.17264 
L 115.990313 177.417552 
L 116.157713 178.31836 
L 116.325113 166.594811 
L 116.492513 175.042089 
L 116.659913 176.396751 
L 116.827313 206.723755 
L 116.994713 176.512089 
L 117.162113 176.533298 
L 117.329513 147.322997 
L 117.496913 168.690447 
L 117.664313 151.482214 
L 117.999113 173.474037 
L 118.166513 175.386656 
L 118.333913 188.419217 
L 118.501313 191.837645 
L 118.668713 220.606068 
L 118.836113 220.148791 
L 119.003513 212.668206 
L 119.170913 167.246529 
L 119.338313 205.792454 
L 119.505713 201.920038 
L 119.673113 172.27568 
L 119.840513 192.255138 
L 120.007913 161.174697 
L 120.175313 179.443164 
L 120.510113 155.662242 
L 120.677513 127.802795 
L 120.844913 193.328723 
L 121.012313 147.326237 
L 121.179713 133.68749 
L 121.347113 144.843203 
L 121.514513 128.123493 
L 121.681913 162.985843 
L 121.849313 140.414448 
L 122.016713 153.002979 
L 122.184113 154.327839 
L 122.518913 163.103679 
L 122.686313 143.757184 
L 122.853713 165.588723 
L 123.188513 169.361116 
L 123.355913 172.835975 
L 123.523313 198.254237 
L 123.690713 193.589256 
L 123.858113 234.450324 
L 124.025513 166.971305 
L 124.192913 208.124587 
L 124.360313 184.640515 
L 124.527713 182.524893 
L 124.695113 203.709444 
L 124.862513 204.442772 
L 125.029913 193.226627 
L 125.197313 144.634434 
L 125.364713 177.362737 
L 125.532113 181.997985 
L 125.699513 150.612807 
L 126.034313 175.59241 
L 126.201713 193.511251 
L 126.369113 176.059003 
L 126.536513 192.553219 
L 126.703913 196.348389 
L 127.038713 154.993963 
L 127.206113 166.286299 
L 127.373513 148.735951 
L 127.540913 191.158747 
L 127.708313 156.958601 
L 127.875713 164.102291 
L 128.043113 152.661376 
L 128.210513 195.509127 
L 128.377913 197.509128 
L 128.712713 129.725931 
L 128.880113 165.472711 
L 129.047513 172.339271 
L 129.214913 199.124667 
L 129.549713 148.085775 
L 129.884513 177.588989 
L 130.051913 179.245417 
L 130.219313 134.911041 
L 130.554113 168.549681 
L 130.721513 131.732639 
L 130.888913 134.113405 
L 131.056313 132.244274 
L 131.223713 131.823424 
L 131.391113 135.294869 
L 131.558513 165.576044 
L 131.725913 168.342964 
L 131.893313 136.335079 
L 132.060713 196.197503 
L 132.228113 184.932565 
L 132.395513 132.549314 
L 132.562913 159.875595 
L 132.730313 162.251697 
L 132.897713 157.020201 
L 133.065113 124.066071 
L 133.399913 156.826347 
L 133.567313 129.918157 
L 133.734713 133.369595 
L 133.902113 152.741142 
L 134.069513 157.47859 
L 134.236913 134.70205 
L 134.571713 177.144821 
L 134.739113 152.169854 
L 134.906513 145.0947 
L 135.073913 153.064526 
L 135.241313 111.717229 
L 135.408713 131.046607 
L 135.576113 123.532688 
L 135.743513 165.818888 
L 136.078313 142.070775 
L 136.413113 173.582161 
L 136.580513 184.153766 
L 136.747913 169.089559 
L 136.915313 196.87182 
L 137.417513 147.54758 
L 137.584913 176.260971 
L 137.752313 153.218623 
L 137.919713 163.512103 
L 138.087113 185.877176 
L 138.254513 151.478633 
L 138.421913 151.896349 
L 138.589313 150.299142 
L 138.756713 134.445745 
L 139.091513 193.774871 
L 139.258913 192.508404 
L 139.426313 181.126637 
L 139.593713 183.202049 
L 139.761113 203.607461 
L 139.928513 242.796729 
L 140.095913 235.997086 
L 140.263313 197.869589 
L 140.430713 186.169357 
L 140.598113 199.773491 
L 140.765513 197.477426 
L 140.932913 161.06809 
L 141.100313 187.231358 
L 141.435113 144.549198 
L 141.602513 189.693373 
L 141.937313 204.892551 
L 142.104713 195.657821 
L 142.272113 175.05494 
L 142.439513 192.449594 
L 142.606913 189.008385 
L 142.774313 166.406978 
L 142.941713 167.25722 
L 143.109113 211.044424 
L 143.276513 156.37843 
L 143.443913 164.671489 
L 143.611313 219.379519 
L 143.778713 211.850588 
L 143.946113 142.853146 
L 144.113513 153.743237 
L 144.280913 180.925197 
L 144.448313 161.279711 
L 144.615713 177.568476 
L 144.783113 218.270986 
L 144.950513 193.92124 
L 145.117913 205.702971 
L 145.285313 167.722783 
L 145.620113 185.134279 
L 145.954913 129.256654 
L 146.122313 157.481425 
L 146.289713 149.687552 
L 146.457113 153.880024 
L 146.624513 144.683016 
L 146.791913 150.278539 
L 147.126713 135.600979 
L 147.294113 165.779988 
L 147.461513 146.325537 
L 147.963713 164.639002 
L 148.131113 202.248988 
L 148.298513 163.139444 
L 148.465913 156.702114 
L 148.633313 160.325518 
L 148.800713 169.25915 
L 148.968113 134.239169 
L 149.135513 132.804262 
L 149.302913 99.875308 
L 149.637713 176.896393 
L 149.805113 179.494265 
L 149.972513 155.572618 
L 150.139913 155.393115 
L 150.307313 162.724537 
L 150.474713 183.025588 
L 150.976913 139.244647 
L 151.144313 168.723067 
L 151.646513 126.256826 
L 151.813913 123.036308 
L 151.981313 112.612263 
L 152.148713 119.588241 
L 152.316113 121.439169 
L 152.483513 96.462086 
L 152.650913 117.002728 
L 153.153113 76.844972 
L 153.320513 98.66493 
L 153.487913 79.889348 
L 153.655313 92.892025 
L 153.822713 94.909552 
L 153.990113 105.006165 
L 154.157513 125.018386 
L 154.324913 119.513582 
L 154.492313 105.204304 
L 154.659713 101.161729 
L 154.827113 100.416302 
L 155.161913 143.65381 
L 155.329313 111.883389 
L 155.496713 150.888453 
L 155.664113 159.186712 
L 155.831513 153.735887 
L 155.998913 112.672457 
L 156.166313 129.334976 
L 156.501113 104.253239 
L 156.668513 139.779218 
L 156.835913 135.814929 
L 157.003313 128.49458 
L 157.338113 175.411177 
L 157.505513 172.165105 
L 157.672913 142.267126 
L 157.840313 147.165745 
L 158.007713 188.956738 
L 158.175113 181.040302 
L 158.342513 154.605204 
L 158.677313 187.148245 
L 159.012113 157.46498 
L 159.179513 164.84926 
L 159.346913 216.400875 
L 159.514313 157.592395 
L 159.681713 150.001218 
L 159.849113 186.405041 
L 160.016513 137.373245 
L 160.351313 153.05192 
L 160.686113 182.593612 
L 160.853513 187.782218 
L 161.020913 198.12737 
L 161.188313 145.133171 
L 161.355713 153.440956 
L 161.523113 181.022699 
L 161.690513 183.503053 
L 161.857913 151.114686 
L 162.025313 152.289028 
L 162.192713 186.767489 
L 162.360113 172.934571 
L 162.527513 185.185354 
L 162.694913 181.240168 
L 162.862313 155.459404 
L 163.029713 161.304359 
L 163.531913 130.287269 
L 163.699313 104.996167 
L 163.866713 106.472775 
L 164.034113 150.781261 
L 164.201513 154.282555 
L 164.368913 126.227046 
L 164.536313 154.245067 
L 164.703713 163.467235 
L 164.871113 150.966878 
L 165.038513 155.098944 
L 165.205913 165.754906 
L 165.373313 124.602907 
L 165.708113 141.163693 
L 165.875513 187.619402 
L 166.042913 153.350367 
L 166.210313 145.375114 
L 166.377713 156.067953 
L 166.545113 152.383614 
L 166.712513 161.371589 
L 166.879913 153.420774 
L 167.047313 178.532834 
L 167.214713 141.609358 
L 167.549513 196.02333 
L 167.716913 165.601353 
L 167.884313 161.980283 
L 168.219113 190.934019 
L 168.386513 186.743276 
L 168.553913 176.378026 
L 168.721313 185.892746 
L 168.888713 161.183758 
L 169.056113 196.402121 
L 169.223513 166.327547 
L 169.390913 198.280722 
L 169.558313 133.501354 
L 169.725713 140.915865 
L 169.893113 180.655766 
L 170.227913 177.049706 
L 170.395313 188.185173 
L 170.562713 191.237063 
L 170.730113 165.580724 
L 170.897513 210.08366 
L 171.064913 191.649015 
L 171.232313 141.338874 
L 171.399713 189.203469 
L 171.567113 197.668857 
L 171.734513 177.964548 
L 171.901913 194.528635 
L 172.069313 180.967432 
L 172.236713 184.909537 
L 172.404113 205.184131 
L 172.571513 153.777674 
L 172.738913 161.512848 
L 172.906313 155.486731 
L 173.073713 126.537994 
L 173.241113 179.653818 
L 173.408513 170.131059 
L 173.575913 185.352473 
L 173.743313 139.102403 
L 173.910713 128.543923 
L 174.412913 181.965597 
L 174.747713 137.429009 
L 174.915113 185.239103 
L 175.082513 159.040208 
L 175.249913 161.73717 
L 175.417313 188.354403 
L 175.919513 137.669379 
L 176.086913 158.026447 
L 176.254313 144.545701 
L 176.421713 149.677397 
L 176.589113 197.043385 
L 176.756513 194.378254 
L 176.923913 194.718078 
L 177.091313 192.640006 
L 177.258713 213.830383 
L 177.426113 211.918858 
L 177.593513 156.680448 
L 177.760913 156.01333 
L 177.928313 174.334584 
L 178.095713 166.818282 
L 178.263113 217.515717 
L 178.597913 163.329057 
L 178.765313 193.462425 
L 178.932713 178.351732 
L 179.100113 179.94767 
L 179.267513 215.720644 
L 179.602313 148.460061 
L 180.104513 221.350754 
L 180.271913 191.883221 
L 180.439313 207.007307 
L 180.606713 194.500422 
L 180.774113 192.458131 
L 180.941513 180.535587 
L 181.108913 191.244923 
L 181.276313 182.00781 
L 181.443713 180.030111 
L 181.611113 172.388027 
L 181.945913 207.281266 
L 182.280713 162.773222 
L 182.448113 159.660124 
L 182.615513 177.422178 
L 182.782913 164.393266 
L 182.950313 168.050935 
L 183.117713 147.73135 
L 183.285113 171.639694 
L 183.452513 152.537801 
L 183.619913 157.853736 
L 183.787313 175.484609 
L 183.954713 139.129855 
L 184.122113 146.495052 
L 184.289513 170.834827 
L 184.456913 174.40957 
L 184.624313 152.606774 
L 184.791713 147.140174 
L 184.959113 185.151023 
L 185.126513 144.606555 
L 185.293913 148.35884 
L 185.461313 174.013149 
L 185.628713 179.572641 
L 185.796113 134.614937 
L 185.963513 158.761803 
L 186.298313 147.820245 
L 186.465713 129.429102 
L 186.633113 169.582275 
L 186.800513 151.001222 
L 186.967913 163.100453 
L 187.135313 153.918487 
L 187.302713 136.066146 
L 187.470113 167.715373 
L 187.637513 174.124199 
L 187.804913 138.474621 
L 187.972313 147.255132 
L 188.139713 168.374103 
L 188.307113 174.720243 
L 188.474513 129.244205 
L 188.641913 173.488995 
L 188.809313 145.598063 
L 188.976713 140.155829 
L 189.144113 120.929256 
L 189.311513 123.955836 
L 189.478913 157.836061 
L 189.646313 155.742114 
L 189.813713 109.6232 
L 189.981113 169.445372 
L 190.148513 142.777101 
L 190.315913 171.107617 
L 190.483313 140.784309 
L 190.650713 175.305277 
L 190.818113 152.584139 
L 190.985513 157.849644 
L 191.487713 132.763398 
L 191.655113 157.311372 
L 191.822513 158.70411 
L 191.989913 147.043767 
L 192.324713 168.742723 
L 192.492113 143.178096 
L 192.826913 173.219689 
L 192.994313 135.133001 
L 193.329113 182.946163 
L 193.831313 150.004189 
L 193.998713 174.885179 
L 194.166113 224.265989 
L 194.333513 211.38353 
L 194.500913 174.299432 
L 195.003113 198.341214 
L 195.337913 170.664011 
L 195.505313 166.305369 
L 195.672713 170.989581 
L 195.840113 179.53048 
L 196.007513 167.151723 
L 196.174913 169.132329 
L 196.509713 141.129487 
L 196.677113 168.996331 
L 196.844513 149.779947 
L 197.011913 148.002814 
L 197.179313 178.797719 
L 197.346713 183.417755 
L 197.681513 153.889126 
L 197.848913 184.031719 
L 198.183713 125.563988 
L 198.351113 172.836827 
L 198.518513 173.137871 
L 198.853313 155.305042 
L 199.020713 156.410833 
L 199.188113 160.094724 
L 199.522913 178.467717 
L 199.690313 158.013147 
L 199.857713 184.295246 
L 200.025113 182.392231 
L 200.192513 160.615978 
L 200.359913 185.955361 
L 200.527313 182.934619 
L 200.694713 177.811221 
L 200.862113 196.458733 
L 201.196913 150.275701 
L 201.364313 163.959052 
L 201.699113 104.101732 
L 201.866513 163.620011 
L 202.033913 177.580085 
L 202.201313 113.838525 
L 202.536113 171.670268 
L 202.703513 164.641573 
L 202.870913 145.204993 
L 203.038313 175.552481 
L 203.205713 177.882667 
L 203.373113 153.235198 
L 203.540513 109.906199 
L 203.875313 158.48617 
L 204.042713 145.47327 
L 204.210113 143.914792 
L 204.377513 185.563627 
L 204.544913 177.190488 
L 204.712313 159.920129 
L 204.879713 179.231945 
L 205.214513 138.114204 
L 205.381913 167.303056 
L 205.549313 127.328797 
L 205.716713 118.244982 
L 205.884113 131.044531 
L 206.051513 163.573445 
L 206.218913 127.716416 
L 206.553713 149.685514 
L 206.721113 139.033778 
L 207.055913 145.215692 
L 207.223313 135.825859 
L 207.390713 153.257131 
L 207.558113 186.312283 
L 207.892913 153.976099 
L 208.060313 174.164075 
L 208.395113 128.099969 
L 208.729913 102.561461 
L 208.897313 140.915216 
L 209.064713 135.786518 
L 209.232113 119.186322 
L 209.399513 126.438501 
L 209.566913 139.696297 
L 209.734313 136.591544 
L 209.901713 119.032181 
L 210.069113 113.337327 
L 210.236513 130.749069 
L 210.403913 118.661858 
L 210.571313 128.605659 
L 210.906113 112.949825 
L 211.073513 112.464603 
L 211.240913 94.422342 
L 211.408313 96.674522 
L 211.910513 128.193578 
L 212.245313 91.554763 
L 212.412713 93.353592 
L 212.747513 145.673197 
L 212.914913 97.092445 
L 213.082313 99.880152 
L 213.249713 154.04532 
L 213.417113 147.96395 
L 213.584513 169.17247 
L 213.751913 162.77254 
L 213.919313 149.404249 
L 214.086713 160.343673 
L 214.254113 189.701711 
L 214.421513 190.7039 
L 214.588913 147.453538 
L 214.756313 138.459662 
L 214.923713 169.976708 
L 215.091113 173.051523 
L 215.258513 173.002192 
L 215.425913 146.631217 
L 215.593313 147.478887 
L 215.760713 152.150321 
L 215.928113 113.211738 
L 216.262913 132.712011 
L 216.430313 161.522562 
L 216.765113 108.392885 
L 216.932513 151.610788 
L 217.099913 153.954842 
L 217.434713 94.267381 
L 217.769513 122.29804 
L 217.936913 111.58153 
L 218.104313 126.779091 
L 218.271713 158.124168 
L 218.439113 158.049545 
L 218.606513 148.653708 
L 218.773913 173.934315 
L 218.941313 164.047521 
L 219.108713 144.66497 
L 219.276113 141.161652 
L 219.443513 178.725422 
L 219.610913 173.35951 
L 219.778313 144.752267 
L 220.113113 169.629824 
L 220.447913 134.580965 
L 220.615313 154.517558 
L 220.782713 142.848441 
L 220.950113 152.554882 
L 221.284913 143.856235 
L 221.619713 173.214887 
L 221.787113 162.493653 
L 221.954513 168.135916 
L 222.121913 165.75653 
L 222.624113 181.959185 
L 222.791513 166.909689 
L 222.958913 181.610514 
L 223.126313 179.986595 
L 223.293713 192.328807 
L 223.461113 178.852415 
L 223.628513 155.929775 
L 223.795913 184.874908 
L 224.130713 163.736165 
L 224.298113 165.124652 
L 224.465513 152.169203 
L 224.632913 128.013659 
L 224.800313 170.221759 
L 224.967713 174.813952 
L 225.135113 153.376619 
L 225.302513 161.317798 
L 225.469913 161.951503 
L 225.637313 159.606517 
L 225.804713 146.174417 
L 226.139513 200.451754 
L 226.306913 169.392057 
L 226.474313 190.686719 
L 226.641713 182.06044 
L 226.809113 160.896693 
L 226.976513 160.930224 
L 227.143913 172.864154 
L 227.311313 139.616421 
L 227.478713 131.6083 
L 227.813513 203.344307 
L 227.980913 154.504453 
L 228.148313 151.438316 
L 228.483113 195.496224 
L 228.650513 188.350919 
L 228.817913 166.517398 
L 228.985313 176.072946 
L 229.152713 179.149216 
L 229.320113 200.953293 
L 229.487513 175.883728 
L 229.654913 168.884568 
L 229.989713 207.824881 
L 230.157113 206.835911 
L 230.324513 194.726434 
L 230.491913 144.602943 
L 230.826713 175.931501 
L 230.994113 202.804824 
L 231.161513 181.340683 
L 231.328913 185.653208 
L 231.496313 164.620739 
L 231.663713 176.240907 
L 231.831113 155.877452 
L 231.998513 159.290601 
L 232.165913 128.164448 
L 232.333313 130.256888 
L 232.500713 135.873426 
L 232.835513 201.321057 
L 233.170313 175.00473 
L 233.337713 187.905783 
L 233.505113 189.85601 
L 233.839913 206.332082 
L 234.174713 173.111098 
L 234.342113 178.036982 
L 234.676913 199.439851 
L 234.844313 185.826655 
L 235.011713 218.847252 
L 235.179113 216.746262 
L 235.346513 198.941743 
L 235.513913 212.853125 
L 235.681313 188.234023 
L 235.848713 202.654518 
L 236.183513 143.558706 
L 236.350913 194.92757 
L 236.518313 175.38625 
L 236.853113 196.53084 
L 237.020513 181.348507 
L 237.187913 181.030482 
L 237.355313 180.460672 
L 237.522713 199.296843 
L 237.690113 233.732682 
L 238.024913 178.060046 
L 238.192313 175.435904 
L 238.359713 177.627344 
L 238.527113 151.550751 
L 238.861913 195.268968 
L 239.029313 179.147009 
L 239.196713 187.444533 
L 239.364113 188.470429 
L 239.531513 200.106384 
L 239.698913 157.99436 
L 240.033713 195.984871 
L 240.201113 157.221414 
L 240.368513 185.613305 
L 240.535913 175.355585 
L 240.870713 178.979823 
L 241.038113 180.636305 
L 241.205513 185.56552 
L 241.540313 215.750028 
L 242.042513 176.449139 
L 242.209913 172.743456 
L 242.377313 178.423775 
L 242.712113 170.033782 
L 242.879513 155.711216 
L 243.214313 190.848348 
L 243.381713 164.024033 
L 243.549113 159.596079 
L 243.716513 182.010392 
L 243.883913 160.703691 
L 244.051313 160.146777 
L 244.218713 183.546758 
L 244.386113 190.116608 
L 244.553513 156.374845 
L 244.888313 175.711581 
L 245.055713 172.984689 
L 245.223113 158.054242 
L 245.390513 176.311789 
L 245.557913 209.337576 
L 245.892713 151.775489 
L 246.060113 181.20623 
L 246.562313 148.97695 
L 246.897113 163.928356 
L 247.064513 162.693211 
L 247.231913 180.186357 
L 247.399313 145.545749 
L 247.734113 161.607802 
L 247.901513 153.11684 
L 248.068913 173.419733 
L 248.236313 132.622162 
L 248.403713 170.990994 
L 248.571113 163.531259 
L 248.738513 164.978936 
L 248.905913 202.52946 
L 249.240713 138.695442 
L 249.408113 147.726809 
L 249.575513 186.568541 
L 249.742913 166.106876 
L 249.910313 165.113795 
L 250.077713 169.186945 
L 250.245113 186.237115 
L 250.412513 164.279079 
L 250.579913 211.859615 
L 250.914713 174.74755 
L 251.082113 198.711852 
L 251.249513 197.059991 
L 251.416913 206.529567 
L 251.584313 186.680905 
L 251.751713 180.921892 
L 252.086513 198.641885 
L 252.421313 174.132929 
L 252.588713 218.109168 
L 252.923513 184.250512 
L 253.090913 187.378483 
L 253.258313 182.089001 
L 253.425713 154.29063 
L 253.760513 166.089926 
L 253.927913 152.108948 
L 254.095313 180.244481 
L 254.262713 146.406705 
L 254.430113 177.597956 
L 254.597513 186.839117 
L 254.764913 166.495028 
L 254.932313 182.766784 
L 255.099713 185.966632 
L 255.434513 160.78519 
L 255.601913 176.076931 
L 255.769313 154.735713 
L 255.936713 162.759881 
L 256.104113 148.399767 
L 256.438913 175.616 
L 256.941113 144.049834 
L 257.108513 165.812455 
L 257.275913 165.744639 
L 257.443313 168.495514 
L 257.610713 203.178792 
L 257.778113 182.102665 
L 257.945513 176.061168 
L 258.112913 186.199098 
L 258.280313 170.673287 
L 258.615113 117.560175 
L 258.782513 130.376322 
L 258.949913 151.819315 
L 259.117313 146.761153 
L 259.284713 151.232109 
L 259.452113 159.69587 
L 259.619513 159.234863 
L 260.121713 185.324706 
L 260.289113 123.220209 
L 260.456513 123.879364 
L 260.623913 149.173048 
L 260.791313 104.512459 
L 261.293513 162.910093 
L 261.460913 122.187128 
L 261.795713 168.427907 
L 261.963113 170.623742 
L 262.130513 196.478084 
L 262.297913 193.526932 
L 262.465313 194.942235 
L 262.632713 198.996405 
L 262.800113 194.154184 
L 262.967512 145.681005 
L 263.134913 139.223347 
L 263.302313 179.179393 
L 263.469713 178.91612 
L 263.637113 140.706518 
L 263.804513 159.039518 
L 263.971913 193.828582 
L 264.139313 156.534339 
L 264.306713 162.843423 
L 264.474113 156.684285 
L 264.808913 175.421305 
L 264.976313 136.259198 
L 265.143713 147.828622 
L 265.311113 133.736423 
L 265.478513 162.001473 
L 265.645913 155.465839 
L 265.813313 136.223287 
L 265.980713 153.865597 
L 266.315513 135.36494 
L 266.650313 151.59768 
L 266.817713 138.742645 
L 266.985113 115.319247 
L 267.152513 114.32102 
L 267.319913 150.356272 
L 267.487313 149.494491 
L 267.654713 101.859307 
L 267.822113 132.991475 
L 267.989513 119.791745 
L 268.156913 147.061322 
L 268.324313 131.688794 
L 268.491713 152.180708 
L 268.659113 149.726074 
L 268.826513 131.885839 
L 268.993913 137.724134 
L 269.328713 194.038038 
L 269.496113 178.792145 
L 269.663513 131.780858 
L 269.830913 156.490456 
L 270.165713 125.8911 
L 270.500513 178.381712 
L 270.667913 149.335553 
L 270.835313 151.777326 
L 271.002713 170.367392 
L 271.170113 161.560513 
L 271.337513 179.332399 
L 271.504913 162.247361 
L 271.672313 174.610615 
L 271.839713 152.854693 
L 272.007113 152.405629 
L 272.174513 171.036482 
L 272.341913 172.890533 
L 272.509313 197.408843 
L 272.676713 176.228435 
L 272.844113 181.577114 
L 273.011513 182.945368 
L 273.178913 163.530852 
L 273.346313 185.472268 
L 273.513713 239.425421 
L 273.681113 201.58598 
L 273.848513 194.993725 
L 274.015913 211.756082 
L 274.183313 201.794474 
L 274.350713 204.266343 
L 274.685513 212.322517 
L 274.852913 193.941926 
L 275.020313 196.419594 
L 275.187713 193.348293 
L 275.355113 155.400155 
L 275.522513 184.480369 
L 275.689913 183.923407 
L 275.857313 184.857907 
L 276.024713 190.076903 
L 276.192113 201.604223 
L 276.694313 143.280289 
L 276.861713 139.031051 
L 277.029113 178.597711 
L 277.531313 142.441936 
L 277.698713 183.143589 
L 277.866113 178.250328 
L 278.033513 148.307607 
L 278.368313 181.413286 
L 278.535713 163.093768 
L 278.703113 130.974263 
L 278.870513 140.879468 
L 279.037913 127.60419 
L 279.205313 144.371803 
L 279.372713 137.093017 
L 279.540113 124.955895 
L 279.707513 166.727083 
L 279.874913 159.655311 
L 280.042313 164.393809 
L 280.209713 141.050812 
L 280.377113 149.747084 
L 280.544513 171.708109 
L 280.711913 171.011424 
L 280.879313 179.400579 
L 281.046713 155.519034 
L 281.214113 169.894815 
L 281.381513 156.273964 
L 281.548913 189.721108 
L 281.716313 176.145698 
L 282.051113 128.757016 
L 282.218513 169.647106 
L 282.720713 133.221052 
L 282.888113 142.825347 
L 283.055513 143.844068 
L 283.222913 155.307934 
L 283.390313 128.54424 
L 283.725113 179.402356 
L 283.892513 143.469267 
L 284.059913 143.378273 
L 284.227313 130.115224 
L 284.394713 145.45358 
L 284.562113 125.67508 
L 284.729513 121.64504 
L 284.896913 130.311586 
L 285.064313 97.797768 
L 285.231713 130.820472 
L 285.399113 141.089607 
L 285.566513 136.735792 
L 285.733913 144.208756 
L 285.901313 127.072765 
L 286.068713 131.343087 
L 286.236113 146.244975 
L 286.403513 123.756862 
L 286.570913 128.75147 
L 286.738313 153.472523 
L 286.905713 160.988826 
L 287.073113 160.445208 
L 287.240513 147.918995 
L 287.407913 151.35606 
L 287.575313 172.316875 
L 287.910113 136.250379 
L 288.244913 163.122837 
L 288.412313 159.369237 
L 288.579713 135.403892 
L 288.747113 136.64784 
L 288.914513 169.967773 
L 289.081913 154.359817 
L 289.249313 164.63956 
L 289.584113 126.488858 
L 289.751513 148.792749 
L 289.918913 143.569527 
L 290.086313 122.515423 
L 290.253713 78.975392 
L 290.421113 110.388067 
L 290.588513 168.026707 
L 290.755913 156.243807 
L 290.923313 153.28875 
L 291.090713 146.107119 
L 291.258113 180.300687 
L 291.425513 154.103812 
L 291.592913 148.905904 
L 291.760313 147.898401 
L 291.927713 191.204949 
L 292.262513 128.353736 
L 292.429913 197.911919 
L 292.597313 186.877915 
L 292.764713 158.99477 
L 292.932113 153.688224 
L 293.099513 188.015728 
L 293.434313 141.824765 
L 293.601713 152.812718 
L 293.769113 143.251194 
L 293.936513 148.037962 
L 294.103913 177.222374 
L 294.271313 176.06876 
L 294.438713 156.575997 
L 294.606113 171.760895 
L 294.773513 176.82914 
L 295.108313 160.215138 
L 295.610513 180.074333 
L 295.777913 169.692386 
L 295.945313 166.929939 
L 296.112713 141.837619 
L 296.280113 161.124932 
L 296.447513 205.007207 
L 296.614913 158.786274 
L 296.949713 183.806656 
L 297.117113 213.651427 
L 297.284513 197.312402 
L 297.451913 149.04656 
L 297.619313 152.544163 
L 297.786713 199.592885 
L 297.954113 165.11689 
L 298.288913 203.279035 
L 298.456313 176.202057 
L 298.791113 209.368768 
L 298.958513 201.397786 
L 299.125913 213.00013 
L 299.293313 207.81344 
L 299.628113 151.719168 
L 299.962913 139.686836 
L 300.130313 140.701643 
L 300.297713 167.147726 
L 300.465113 151.071426 
L 300.799913 201.212858 
L 300.967313 191.768721 
L 301.134713 190.757528 
L 301.302113 185.579651 
L 301.469513 193.06033 
L 301.636913 186.330271 
L 301.804313 175.093346 
L 301.971713 191.817438 
L 302.139113 166.236225 
L 302.306513 193.552402 
L 302.473913 175.292625 
L 302.641313 189.521764 
L 302.808713 178.66713 
L 302.976113 196.167954 
L 303.143513 176.508595 
L 303.310913 199.292299 
L 303.645713 156.242427 
L 303.980513 178.375514 
L 304.147913 180.616803 
L 304.315313 177.061241 
L 304.482713 155.575814 
L 304.650113 159.294381 
L 304.817513 154.398891 
L 304.984913 187.394656 
L 305.152312 140.815887 
L 305.319713 152.571438 
L 305.487113 187.130334 
L 305.654513 165.186283 
L 305.821913 206.411133 
L 306.156713 163.763849 
L 306.324113 180.677236 
L 306.491512 153.156917 
L 306.658913 159.187263 
L 306.826313 141.514595 
L 306.993713 178.354463 
L 307.161113 166.643675 
L 307.328513 163.337199 
L 307.495913 163.240555 
L 307.663313 191.100457 
L 307.830713 188.626169 
L 307.998113 188.357216 
L 308.165513 211.773612 
L 308.500313 164.701523 
L 308.667713 158.549133 
L 308.835113 145.436425 
L 309.002513 151.389933 
L 309.169913 186.836841 
L 309.337313 175.905421 
L 309.672113 191.428841 
L 309.839513 161.948879 
L 310.006913 168.921056 
L 310.341713 124.922708 
L 310.509113 165.741229 
L 310.676513 158.905962 
L 310.843913 172.604541 
L 311.011313 160.657566 
L 311.178713 189.109541 
L 311.346113 144.723818 
L 311.513513 157.500322 
L 311.680913 197.547176 
L 311.848313 206.1169 
L 312.015713 167.653269 
L 312.183113 165.682514 
L 312.350513 188.496897 
L 312.517913 150.563598 
L 312.685313 139.489932 
L 312.852713 169.470534 
L 313.020113 173.948434 
L 313.187513 122.645651 
L 313.354913 125.393788 
L 313.522313 114.685861 
L 313.689713 122.295622 
L 313.857113 101.937163 
L 314.359313 130.601075 
L 314.526713 152.501866 
L 314.694113 153.638465 
L 314.861513 138.463094 
L 315.028913 146.63739 
L 315.196313 146.67737 
L 315.363713 152.312288 
L 315.531113 168.152216 
L 315.698513 162.018642 
L 315.865913 175.23179 
L 316.033313 204.924761 
L 316.368113 158.62208 
L 316.535513 160.412983 
L 316.702913 176.804694 
L 316.870313 173.873915 
L 317.037713 153.649224 
L 317.372513 183.555088 
L 317.539913 140.741037 
L 317.707313 175.430548 
L 317.874713 160.495697 
L 318.042113 159.284611 
L 318.209513 162.547532 
L 318.376913 178.928147 
L 318.544313 184.269937 
L 318.879113 134.693339 
L 319.046513 159.921616 
L 319.213913 154.833233 
L 319.381313 171.821898 
L 319.548713 137.25764 
L 319.716113 141.74176 
L 319.883513 189.545787 
L 320.050913 194.648073 
L 320.218313 174.932616 
L 320.385713 188.109324 
L 320.553113 144.597987 
L 320.720513 154.519982 
L 320.887913 183.300281 
L 321.055313 186.99956 
L 321.222713 134.378398 
L 321.390113 175.980259 
L 321.557513 181.905622 
L 322.059713 128.363634 
L 322.227113 150.303688 
L 322.394513 138.734504 
L 322.561913 145.097629 
L 322.729313 128.300989 
L 323.064113 164.113924 
L 323.231513 155.402839 
L 323.398913 154.794881 
L 323.566313 186.447788 
L 323.901113 150.941566 
L 324.068512 160.495518 
L 324.235913 192.911112 
L 324.403313 152.902901 
L 324.570713 178.763867 
L 324.738113 180.455704 
L 324.905513 196.059636 
L 325.072913 191.378908 
L 325.407713 160.712166 
L 325.575113 170.863341 
L 325.742513 170.419673 
L 325.909913 170.506008 
L 326.244713 122.409178 
L 326.412113 129.683875 
L 326.579513 159.1584 
L 326.914313 134.10327 
L 327.081713 173.713135 
L 327.249113 177.269673 
L 327.416513 153.970866 
L 327.583913 146.44761 
L 327.918713 182.494689 
L 328.086113 176.003585 
L 328.420913 145.8529 
L 328.588313 155.932306 
L 328.755713 172.81638 
L 328.923113 158.617811 
L 329.090513 162.479258 
L 329.257913 162.772285 
L 329.425313 125.73583 
L 329.927513 181.473514 
L 330.262313 157.018896 
L 330.429713 132.063885 
L 330.597113 165.654145 
L 330.931913 138.092226 
L 331.099313 152.025398 
L 331.266713 135.473216 
L 331.434113 130.499309 
L 331.601513 148.384562 
L 331.768913 146.781967 
L 331.936313 131.592756 
L 332.103713 159.750216 
L 332.271113 160.801689 
L 332.438513 130.670433 
L 332.605913 121.214639 
L 332.773313 136.262056 
L 332.940713 136.461485 
L 333.108113 137.615121 
L 333.275513 118.731632 
L 333.442913 133.219101 
L 333.610313 177.106455 
L 333.777713 156.08732 
L 333.945113 160.634993 
L 334.447313 114.771177 
L 334.614713 153.481865 
L 334.782113 122.74797 
L 334.949513 122.351889 
L 335.116913 155.088468 
L 335.284313 158.853412 
L 335.451713 144.531356 
L 335.619113 176.224365 
L 335.786513 153.82853 
L 335.953913 163.80175 
L 336.121313 182.981205 
L 336.288713 178.731009 
L 336.456113 177.866063 
L 336.623513 186.698111 
L 336.790913 161.324592 
L 336.958313 165.965106 
L 337.460513 128.574472 
L 337.795313 172.687275 
L 337.962713 145.088498 
L 338.297513 181.82796 
L 338.464913 128.256998 
L 338.632313 127.014166 
L 338.799713 146.795494 
L 338.967113 140.231778 
L 339.134513 125.115903 
L 339.301913 124.494483 
L 339.469313 171.397065 
L 339.636713 162.707678 
L 339.804113 163.219657 
L 339.971513 179.126889 
L 340.138913 170.874754 
L 340.306313 146.042807 
L 340.473713 148.82054 
L 340.641113 184.940189 
L 340.808513 180.283213 
L 341.143313 153.636237 
L 341.310713 168.736856 
L 341.478113 133.024235 
L 341.812913 192.166365 
L 341.980313 161.1218 
L 342.315113 168.292488 
L 342.482513 159.683063 
L 342.817313 199.644383 
L 342.984713 147.149452 
L 343.152113 160.106955 
L 343.319513 161.696778 
L 343.654313 177.554027 
L 343.821713 175.404814 
L 343.989113 184.017107 
L 344.156513 181.307265 
L 344.323913 184.972105 
L 344.658713 150.901172 
L 344.826113 169.572284 
L 344.993513 169.091811 
L 345.160913 153.922284 
L 345.328313 86.904926 
L 345.495713 109.309485 
L 345.663113 97.915803 
L 345.830513 137.549325 
L 346.165313 94.407867 
L 346.667513 167.244759 
L 346.834913 162.729713 
L 347.002313 141.890235 
L 347.169713 144.807867 
L 347.337113 176.583383 
L 347.504513 152.176963 
L 347.671913 160.048845 
L 348.006713 212.644221 
L 348.174113 146.608723 
L 348.508913 193.241874 
L 348.843713 156.421851 
L 349.011113 161.345056 
L 349.178513 149.210312 
L 349.345913 180.716503 
L 349.680713 159.801424 
L 349.848113 166.668481 
L 350.182913 136.596631 
L 350.350313 128.076682 
L 350.517713 158.199299 
L 350.685113 154.429578 
L 350.852513 118.793206 
L 351.019913 137.926761 
L 351.187313 114.718711 
L 351.689513 179.457551 
L 351.856913 178.492778 
L 352.024313 135.766293 
L 352.191713 152.40139 
L 352.359113 138.838712 
L 352.526513 165.305701 
L 352.693913 127.95684 
L 352.861313 151.8136 
L 353.028713 128.15979 
L 353.196113 140.950274 
L 353.363513 182.387366 
L 353.698313 146.914246 
L 353.865713 117.664919 
L 354.033113 162.49687 
L 354.200513 137.826412 
L 354.367913 142.24474 
L 354.535313 101.225205 
L 354.870113 132.388866 
L 355.037513 173.772185 
L 355.204913 158.793034 
L 355.372313 119.812812 
L 355.539713 108.105859 
L 355.707113 132.744819 
L 355.874513 139.944306 
L 356.041913 137.262752 
L 356.209313 152.234255 
L 356.376713 138.598223 
L 356.711513 189.818742 
L 356.878913 179.160823 
L 357.046313 155.657067 
L 357.213713 154.586389 
L 357.381113 169.264109 
L 357.548513 144.753276 
L 357.715913 152.370809 
L 357.883313 128.663974 
L 358.050713 158.754629 
L 358.552913 182.161369 
L 358.720313 185.431577 
L 358.887713 198.480553 
L 359.055113 170.564491 
L 359.222513 176.089719 
L 359.389913 175.090841 
L 359.557313 108.31993 
L 359.724713 132.13773 
L 359.892113 139.880792 
L 360.059513 116.349085 
L 360.226913 134.770441 
L 360.394313 132.508441 
L 360.729113 162.360719 
L 360.896513 126.619096 
L 361.063913 134.263534 
L 361.231313 127.878938 
L 361.398713 127.91757 
L 361.566113 131.453553 
L 361.733513 122.661146 
L 361.900913 123.701793 
L 362.068313 108.993954 
L 362.235713 113.046218 
L 362.403113 135.450844 
L 362.570513 126.713434 
L 362.737913 111.719 
L 363.072713 162.728671 
L 363.240113 162.365492 
L 363.574913 104.552816 
L 364.411913 165.775812 
L 364.579313 157.40588 
L 364.746713 163.798759 
L 365.081513 144.091996 
L 365.248913 150.292618 
L 365.416313 129.850799 
L 365.583713 133.128858 
L 365.751113 145.870047 
L 365.918513 173.304616 
L 366.085913 155.81476 
L 366.253313 157.964004 
L 366.420713 128.275212 
L 366.588113 136.310813 
L 366.755513 91.300518 
L 366.922913 150.583524 
L 367.090313 142.645876 
L 367.257713 146.328857 
L 367.425113 118.47013 
L 367.592513 126.388035 
L 367.759913 145.997181 
L 367.927313 113.254158 
L 368.262113 157.260299 
L 368.429513 157.492466 
L 368.764313 167.545954 
L 368.931713 127.714188 
L 369.099113 134.05904 
L 369.433913 177.855258 
L 369.601313 137.088452 
L 370.103513 192.382451 
L 370.438313 161.910864 
L 370.605713 154.576995 
L 370.940513 130.176039 
L 371.107913 130.514486 
L 371.275313 137.727651 
L 371.442713 132.194695 
L 371.610113 175.687311 
L 371.777513 173.363584 
L 371.944913 136.146262 
L 372.112313 165.060295 
L 372.279713 150.274418 
L 372.447113 148.598525 
L 372.781913 172.137394 
L 373.116713 117.914988 
L 373.284113 166.132415 
L 373.451513 123.469507 
L 373.618913 124.860108 
L 373.786313 169.27829 
L 374.121113 130.256283 
L 374.288513 138.396925 
L 374.455913 168.043636 
L 374.623313 156.013923 
L 374.790713 172.803794 
L 374.958113 163.765061 
L 375.125513 161.058001 
L 375.292913 121.071675 
L 375.627713 200.672389 
L 375.962513 170.53724 
L 376.297313 152.450957 
L 376.464713 182.689323 
L 376.632113 163.700876 
L 376.799513 159.127926 
L 376.966913 165.96247 
L 377.134313 165.184615 
L 377.301713 149.224686 
L 377.469113 164.199208 
L 377.971313 176.60437 
L 378.138713 177.520033 
L 378.306113 183.482167 
L 378.473513 194.309187 
L 378.640913 161.752442 
L 378.808313 161.72656 
L 378.975713 165.363953 
L 379.310513 116.934887 
L 379.645313 163.240237 
L 379.645313 163.240237 
" clip-path="url(#p93be6f4f69)" style="fill: none; stroke: #1f77b4; stroke-width: 1.5; stroke-linecap: square"/>
   </g>
   <g id="line2d_16">
    <path d="M 45.012713 77.821787 
L 45.682313 105.884856 
L 46.351913 124.696094 
L 47.021513 137.305644 
L 47.691113 145.758078 
L 48.360713 151.423914 
L 49.030313 155.221837 
L 49.699913 157.767661 
L 50.369513 159.474178 
L 51.039113 160.618091 
L 51.708713 161.384878 
L 52.545713 161.998323 
L 53.550113 162.424977 
L 54.889313 162.710757 
L 56.898113 162.87371 
L 61.250513 162.938728 
L 100.422113 162.943945 
L 379.645313 162.943945 
L 379.645313 162.943945 
" clip-path="url(#p93be6f4f69)" style="fill: none; stroke: #ff7f0e; stroke-width: 1.5; stroke-linecap: square"/>
   </g>
   <g id="patch_3">
    <path d="M 44.845313 253.44 
L 44.845313 36 
" style="fill: none; stroke: #000000; stroke-width: 0.8; stroke-linejoin: miter; stroke-linecap: square"/>
   </g>
   <g id="patch_4">
    <path d="M 379.645313 253.44 
L 379.645313 36 
" style="fill: none; stroke: #000000; stroke-width: 0.8; stroke-linejoin: miter; stroke-linecap: square"/>
   </g>
   <g id="patch_5">
    <path d="M 44.845313 253.44 
L 379.645313 253.44 
" style="fill: none; stroke: #000000; stroke-width: 0.8; stroke-linejoin: miter; stroke-linecap: square"/>
   </g>
   <g id="patch_6">
    <path d="M 44.845313 36 
L 379.645313 36 
" style="fill: none; stroke: #000000; stroke-width: 0.8; stroke-linejoin: miter; stroke-linecap: square"/>
   </g>
   <g id="legend_1">
    <g id="patch_7">
     <path d="M 322.945313 77.078125 
L 372.645313 77.078125 
Q 374.645313 77.078125 374.645313 75.078125 
L 374.645313 43 
Q 374.645313 41 372.645313 41 
L 322.945313 41 
Q 320.945313 41 320.945313 43 
L 320.945313 75.078125 
Q 320.945313 77.078125 322.945313 77.078125 
z
" style="fill: #ffffff; opacity: 0.8; stroke: #cccccc; stroke-linejoin: miter"/>
    </g>
    <g id="line2d_17">
     <path d="M 324.945313 52.8 
L 334.945313 52.8 
L 344.945313 52.8 
" style="fill: none; stroke: #1f77b4; stroke-width: 1.5; stroke-linecap: square"/>
    </g>
    <g id="text_15">
     <!-- $\hat{y(t)}$ -->
     <g transform="translate(352.945313 56.3) scale(0.1 -0.1)">
      <defs>
       <path id="DejaVuSans-302" d="M -1831 5119 
L -1369 5119 
L -603 3944 
L -1038 3944 
L -1600 4709 
L -2163 3944 
L -2597 3944 
L -1831 5119 
z
M -1600 3584 
L -1600 3584 
z
" transform="scale(0.015625)"/>
       <path id="DejaVuSans-Oblique-79" d="M 1588 -325 
Q 1188 -997 936 -1164 
Q 684 -1331 294 -1331 
L -159 -1331 
L -63 -850 
L 269 -850 
Q 509 -850 678 -719 
Q 847 -588 1056 -206 
L 1234 128 
L 459 3500 
L 1069 3500 
L 1650 819 
L 3256 3500 
L 3859 3500 
L 1588 -325 
z
" transform="scale(0.015625)"/>
       <path id="DejaVuSans-28" d="M 1984 4856 
Q 1566 4138 1362 3434 
Q 1159 2731 1159 2009 
Q 1159 1288 1364 580 
Q 1569 -128 1984 -844 
L 1484 -844 
Q 1016 -109 783 600 
Q 550 1309 550 2009 
Q 550 2706 781 3412 
Q 1013 4119 1484 4856 
L 1984 4856 
z
" transform="scale(0.015625)"/>
       <path id="DejaVuSans-Oblique-74" d="M 2706 3500 
L 2619 3053 
L 1472 3053 
L 1100 1153 
Q 1081 1047 1072 975 
Q 1063 903 1063 863 
Q 1063 663 1183 572 
Q 1303 481 1569 481 
L 2150 481 
L 2053 0 
L 1503 0 
Q 991 0 739 200 
Q 488 400 488 806 
Q 488 878 497 964 
Q 506 1050 525 1153 
L 897 3053 
L 409 3053 
L 500 3500 
L 978 3500 
L 1172 4494 
L 1747 4494 
L 1556 3500 
L 2706 3500 
z
" transform="scale(0.015625)"/>
       <path id="DejaVuSans-29" d="M 513 4856 
L 1013 4856 
Q 1481 4119 1714 3412 
Q 1947 2706 1947 2009 
Q 1947 1309 1714 600 
Q 1481 -109 1013 -844 
L 513 -844 
Q 928 -128 1133 580 
Q 1338 1288 1338 2009 
Q 1338 2731 1133 3434 
Q 928 4138 513 4856 
z
" transform="scale(0.015625)"/>
      </defs>
      <use xlink:href="#DejaVuSans-302" transform="translate(135.682129 33.015625)"/>
      <use xlink:href="#DejaVuSans-Oblique-79" transform="translate(0 0.640625)"/>
      <use xlink:href="#DejaVuSans-28" transform="translate(59.179688 0.640625)"/>
      <use xlink:href="#DejaVuSans-Oblique-74" transform="translate(98.193359 0.640625)"/>
      <use xlink:href="#DejaVuSans-29" transform="translate(137.402344 0.640625)"/>
     </g>
    </g>
    <g id="line2d_18">
     <path d="M 324.945313 67.498437 
L 334.945313 67.498437 
L 344.945313 67.498437 
" style="fill: none; stroke: #ff7f0e; stroke-width: 1.5; stroke-linecap: square"/>
    </g>
    <g id="text_16">
     <!-- $x(t)$ -->
     <g transform="translate(352.945313 70.998437) scale(0.1 -0.1)">
      <defs>
       <path id="DejaVuSans-Oblique-78" d="M 3841 3500 
L 2234 1784 
L 3219 0 
L 2559 0 
L 1819 1388 
L 531 0 
L -166 0 
L 1556 1844 
L 641 3500 
L 1300 3500 
L 1972 2234 
L 3144 3500 
L 3841 3500 
z
" transform="scale(0.015625)"/>
      </defs>
      <use xlink:href="#DejaVuSans-Oblique-78" transform="translate(0 0.125)"/>
      <use xlink:href="#DejaVuSans-28" transform="translate(59.179688 0.125)"/>
      <use xlink:href="#DejaVuSans-Oblique-74" transform="translate(98.193359 0.125)"/>
      <use xlink:href="#DejaVuSans-29" transform="translate(137.402344 0.125)"/>
     </g>
    </g>
   </g>
  </g>
  <g id="text_17">
   <!-- Accumulate to Threshold model with input of -0.1 with rms=3  -->
   <g transform="translate(19.512188 16.318125) scale(0.12 -0.12)">
    <defs>
     <path id="DejaVuSans-41" d="M 2188 4044 
L 1331 1722 
L 3047 1722 
L 2188 4044 
z
M 1831 4666 
L 2547 4666 
L 4325 0 
L 3669 0 
L 3244 1197 
L 1141 1197 
L 716 0 
L 50 0 
L 1831 4666 
z
" transform="scale(0.015625)"/>
     <path id="DejaVuSans-63" d="M 3122 3366 
L 3122 2828 
Q 2878 2963 2633 3030 
Q 2388 3097 2138 3097 
Q 1578 3097 1268 2742 
Q 959 2388 959 1747 
Q 959 1106 1268 751 
Q 1578 397 2138 397 
Q 2388 397 2633 464 
Q 2878 531 3122 666 
L 3122 134 
Q 2881 22 2623 -34 
Q 2366 -91 2075 -91 
Q 1284 -91 818 406 
Q 353 903 353 1747 
Q 353 2603 823 3093 
Q 1294 3584 2113 3584 
Q 2378 3584 2631 3529 
Q 2884 3475 3122 3366 
z
" transform="scale(0.015625)"/>
     <path id="DejaVuSans-75" d="M 544 1381 
L 544 3500 
L 1119 3500 
L 1119 1403 
Q 1119 906 1312 657 
Q 1506 409 1894 409 
Q 2359 409 2629 706 
Q 2900 1003 2900 1516 
L 2900 3500 
L 3475 3500 
L 3475 0 
L 2900 0 
L 2900 538 
Q 2691 219 2414 64 
Q 2138 -91 1772 -91 
Q 1169 -91 856 284 
Q 544 659 544 1381 
z
M 1991 3584 
L 1991 3584 
z
" transform="scale(0.015625)"/>
     <path id="DejaVuSans-6d" d="M 3328 2828 
Q 3544 3216 3844 3400 
Q 4144 3584 4550 3584 
Q 5097 3584 5394 3201 
Q 5691 2819 5691 2113 
L 5691 0 
L 5113 0 
L 5113 2094 
Q 5113 2597 4934 2840 
Q 4756 3084 4391 3084 
Q 3944 3084 3684 2787 
Q 3425 2491 3425 1978 
L 3425 0 
L 2847 0 
L 2847 2094 
Q 2847 2600 2669 2842 
Q 2491 3084 2119 3084 
Q 1678 3084 1418 2786 
Q 1159 2488 1159 1978 
L 1159 0 
L 581 0 
L 581 3500 
L 1159 3500 
L 1159 2956 
Q 1356 3278 1631 3431 
Q 1906 3584 2284 3584 
Q 2666 3584 2933 3390 
Q 3200 3197 3328 2828 
z
" transform="scale(0.015625)"/>
     <path id="DejaVuSans-6c" d="M 603 4863 
L 1178 4863 
L 1178 0 
L 603 0 
L 603 4863 
z
" transform="scale(0.015625)"/>
     <path id="DejaVuSans-61" d="M 2194 1759 
Q 1497 1759 1228 1600 
Q 959 1441 959 1056 
Q 959 750 1161 570 
Q 1363 391 1709 391 
Q 2188 391 2477 730 
Q 2766 1069 2766 1631 
L 2766 1759 
L 2194 1759 
z
M 3341 1997 
L 3341 0 
L 2766 0 
L 2766 531 
Q 2569 213 2275 61 
Q 1981 -91 1556 -91 
Q 1019 -91 701 211 
Q 384 513 384 1019 
Q 384 1609 779 1909 
Q 1175 2209 1959 2209 
L 2766 2209 
L 2766 2266 
Q 2766 2663 2505 2880 
Q 2244 3097 1772 3097 
Q 1472 3097 1187 3025 
Q 903 2953 641 2809 
L 641 3341 
Q 956 3463 1253 3523 
Q 1550 3584 1831 3584 
Q 2591 3584 2966 3190 
Q 3341 2797 3341 1997 
z
" transform="scale(0.015625)"/>
     <path id="DejaVuSans-74" d="M 1172 4494 
L 1172 3500 
L 2356 3500 
L 2356 3053 
L 1172 3053 
L 1172 1153 
Q 1172 725 1289 603 
Q 1406 481 1766 481 
L 2356 481 
L 2356 0 
L 1766 0 
Q 1100 0 847 248 
Q 594 497 594 1153 
L 594 3053 
L 172 3053 
L 172 3500 
L 594 3500 
L 594 4494 
L 1172 4494 
z
" transform="scale(0.015625)"/>
     <path id="DejaVuSans-65" d="M 3597 1894 
L 3597 1613 
L 953 1613 
Q 991 1019 1311 708 
Q 1631 397 2203 397 
Q 2534 397 2845 478 
Q 3156 559 3463 722 
L 3463 178 
Q 3153 47 2828 -22 
Q 2503 -91 2169 -91 
Q 1331 -91 842 396 
Q 353 884 353 1716 
Q 353 2575 817 3079 
Q 1281 3584 2069 3584 
Q 2775 3584 3186 3129 
Q 3597 2675 3597 1894 
z
M 3022 2063 
Q 3016 2534 2758 2815 
Q 2500 3097 2075 3097 
Q 1594 3097 1305 2825 
Q 1016 2553 972 2059 
L 3022 2063 
z
" transform="scale(0.015625)"/>
     <path id="DejaVuSans-20" transform="scale(0.015625)"/>
     <path id="DejaVuSans-6f" d="M 1959 3097 
Q 1497 3097 1228 2736 
Q 959 2375 959 1747 
Q 959 1119 1226 758 
Q 1494 397 1959 397 
Q 2419 397 2687 759 
Q 2956 1122 2956 1747 
Q 2956 2369 2687 2733 
Q 2419 3097 1959 3097 
z
M 1959 3584 
Q 2709 3584 3137 3096 
Q 3566 2609 3566 1747 
Q 3566 888 3137 398 
Q 2709 -91 1959 -91 
Q 1206 -91 779 398 
Q 353 888 353 1747 
Q 353 2609 779 3096 
Q 1206 3584 1959 3584 
z
" transform="scale(0.015625)"/>
     <path id="DejaVuSans-54" d="M -19 4666 
L 3928 4666 
L 3928 4134 
L 2272 4134 
L 2272 0 
L 1638 0 
L 1638 4134 
L -19 4134 
L -19 4666 
z
" transform="scale(0.015625)"/>
     <path id="DejaVuSans-68" d="M 3513 2113 
L 3513 0 
L 2938 0 
L 2938 2094 
Q 2938 2591 2744 2837 
Q 2550 3084 2163 3084 
Q 1697 3084 1428 2787 
Q 1159 2491 1159 1978 
L 1159 0 
L 581 0 
L 581 4863 
L 1159 4863 
L 1159 2956 
Q 1366 3272 1645 3428 
Q 1925 3584 2291 3584 
Q 2894 3584 3203 3211 
Q 3513 2838 3513 2113 
z
" transform="scale(0.015625)"/>
     <path id="DejaVuSans-72" d="M 2631 2963 
Q 2534 3019 2420 3045 
Q 2306 3072 2169 3072 
Q 1681 3072 1420 2755 
Q 1159 2438 1159 1844 
L 1159 0 
L 581 0 
L 581 3500 
L 1159 3500 
L 1159 2956 
Q 1341 3275 1631 3429 
Q 1922 3584 2338 3584 
Q 2397 3584 2469 3576 
Q 2541 3569 2628 3553 
L 2631 2963 
z
" transform="scale(0.015625)"/>
     <path id="DejaVuSans-73" d="M 2834 3397 
L 2834 2853 
Q 2591 2978 2328 3040 
Q 2066 3103 1784 3103 
Q 1356 3103 1142 2972 
Q 928 2841 928 2578 
Q 928 2378 1081 2264 
Q 1234 2150 1697 2047 
L 1894 2003 
Q 2506 1872 2764 1633 
Q 3022 1394 3022 966 
Q 3022 478 2636 193 
Q 2250 -91 1575 -91 
Q 1294 -91 989 -36 
Q 684 19 347 128 
L 347 722 
Q 666 556 975 473 
Q 1284 391 1588 391 
Q 1994 391 2212 530 
Q 2431 669 2431 922 
Q 2431 1156 2273 1281 
Q 2116 1406 1581 1522 
L 1381 1569 
Q 847 1681 609 1914 
Q 372 2147 372 2553 
Q 372 3047 722 3315 
Q 1072 3584 1716 3584 
Q 2034 3584 2315 3537 
Q 2597 3491 2834 3397 
z
" transform="scale(0.015625)"/>
     <path id="DejaVuSans-64" d="M 2906 2969 
L 2906 4863 
L 3481 4863 
L 3481 0 
L 2906 0 
L 2906 525 
Q 2725 213 2448 61 
Q 2172 -91 1784 -91 
Q 1150 -91 751 415 
Q 353 922 353 1747 
Q 353 2572 751 3078 
Q 1150 3584 1784 3584 
Q 2172 3584 2448 3432 
Q 2725 3281 2906 2969 
z
M 947 1747 
Q 947 1113 1208 752 
Q 1469 391 1925 391 
Q 2381 391 2643 752 
Q 2906 1113 2906 1747 
Q 2906 2381 2643 2742 
Q 2381 3103 1925 3103 
Q 1469 3103 1208 2742 
Q 947 2381 947 1747 
z
" transform="scale(0.015625)"/>
     <path id="DejaVuSans-77" d="M 269 3500 
L 844 3500 
L 1563 769 
L 2278 3500 
L 2956 3500 
L 3675 769 
L 4391 3500 
L 4966 3500 
L 4050 0 
L 3372 0 
L 2619 2869 
L 1863 0 
L 1184 0 
L 269 3500 
z
" transform="scale(0.015625)"/>
     <path id="DejaVuSans-69" d="M 603 3500 
L 1178 3500 
L 1178 0 
L 603 0 
L 603 3500 
z
M 603 4863 
L 1178 4863 
L 1178 4134 
L 603 4134 
L 603 4863 
z
" transform="scale(0.015625)"/>
     <path id="DejaVuSans-6e" d="M 3513 2113 
L 3513 0 
L 2938 0 
L 2938 2094 
Q 2938 2591 2744 2837 
Q 2550 3084 2163 3084 
Q 1697 3084 1428 2787 
Q 1159 2491 1159 1978 
L 1159 0 
L 581 0 
L 581 3500 
L 1159 3500 
L 1159 2956 
Q 1366 3272 1645 3428 
Q 1925 3584 2291 3584 
Q 2894 3584 3203 3211 
Q 3513 2838 3513 2113 
z
" transform="scale(0.015625)"/>
     <path id="DejaVuSans-70" d="M 1159 525 
L 1159 -1331 
L 581 -1331 
L 581 3500 
L 1159 3500 
L 1159 2969 
Q 1341 3281 1617 3432 
Q 1894 3584 2278 3584 
Q 2916 3584 3314 3078 
Q 3713 2572 3713 1747 
Q 3713 922 3314 415 
Q 2916 -91 2278 -91 
Q 1894 -91 1617 61 
Q 1341 213 1159 525 
z
M 3116 1747 
Q 3116 2381 2855 2742 
Q 2594 3103 2138 3103 
Q 1681 3103 1420 2742 
Q 1159 2381 1159 1747 
Q 1159 1113 1420 752 
Q 1681 391 2138 391 
Q 2594 391 2855 752 
Q 3116 1113 3116 1747 
z
" transform="scale(0.015625)"/>
     <path id="DejaVuSans-66" d="M 2375 4863 
L 2375 4384 
L 1825 4384 
Q 1516 4384 1395 4259 
Q 1275 4134 1275 3809 
L 1275 3500 
L 2222 3500 
L 2222 3053 
L 1275 3053 
L 1275 0 
L 697 0 
L 697 3053 
L 147 3053 
L 147 3500 
L 697 3500 
L 697 3744 
Q 697 4328 969 4595 
Q 1241 4863 1831 4863 
L 2375 4863 
z
" transform="scale(0.015625)"/>
     <path id="DejaVuSans-2d" d="M 313 2009 
L 1997 2009 
L 1997 1497 
L 313 1497 
L 313 2009 
z
" transform="scale(0.015625)"/>
     <path id="DejaVuSans-3d" d="M 678 2906 
L 4684 2906 
L 4684 2381 
L 678 2381 
L 678 2906 
z
M 678 1631 
L 4684 1631 
L 4684 1100 
L 678 1100 
L 678 1631 
z
" transform="scale(0.015625)"/>
     <path id="DejaVuSans-33" d="M 2597 2516 
Q 3050 2419 3304 2112 
Q 3559 1806 3559 1356 
Q 3559 666 3084 287 
Q 2609 -91 1734 -91 
Q 1441 -91 1130 -33 
Q 819 25 488 141 
L 488 750 
Q 750 597 1062 519 
Q 1375 441 1716 441 
Q 2309 441 2620 675 
Q 2931 909 2931 1356 
Q 2931 1769 2642 2001 
Q 2353 2234 1838 2234 
L 1294 2234 
L 1294 2753 
L 1863 2753 
Q 2328 2753 2575 2939 
Q 2822 3125 2822 3475 
Q 2822 3834 2567 4026 
Q 2313 4219 1838 4219 
Q 1578 4219 1281 4162 
Q 984 4106 628 3988 
L 628 4550 
Q 988 4650 1302 4700 
Q 1616 4750 1894 4750 
Q 2613 4750 3031 4423 
Q 3450 4097 3450 3541 
Q 3450 3153 3228 2886 
Q 3006 2619 2597 2516 
z
" transform="scale(0.015625)"/>
    </defs>
    <use xlink:href="#DejaVuSans-41"/>
    <use xlink:href="#DejaVuSans-63" x="66.658203"/>
    <use xlink:href="#DejaVuSans-63" x="121.638672"/>
    <use xlink:href="#DejaVuSans-75" x="176.619141"/>
    <use xlink:href="#DejaVuSans-6d" x="239.998047"/>
    <use xlink:href="#DejaVuSans-75" x="337.410156"/>
    <use xlink:href="#DejaVuSans-6c" x="400.789062"/>
    <use xlink:href="#DejaVuSans-61" x="428.572266"/>
    <use xlink:href="#DejaVuSans-74" x="489.851562"/>
    <use xlink:href="#DejaVuSans-65" x="529.060547"/>
    <use xlink:href="#DejaVuSans-20" x="590.583984"/>
    <use xlink:href="#DejaVuSans-74" x="622.371094"/>
    <use xlink:href="#DejaVuSans-6f" x="661.580078"/>
    <use xlink:href="#DejaVuSans-20" x="722.761719"/>
    <use xlink:href="#DejaVuSans-54" x="754.548828"/>
    <use xlink:href="#DejaVuSans-68" x="815.632812"/>
    <use xlink:href="#DejaVuSans-72" x="879.011719"/>
    <use xlink:href="#DejaVuSans-65" x="917.875"/>
    <use xlink:href="#DejaVuSans-73" x="979.398438"/>
    <use xlink:href="#DejaVuSans-68" x="1031.498047"/>
    <use xlink:href="#DejaVuSans-6f" x="1094.876953"/>
    <use xlink:href="#DejaVuSans-6c" x="1156.058594"/>
    <use xlink:href="#DejaVuSans-64" x="1183.841797"/>
    <use xlink:href="#DejaVuSans-20" x="1247.318359"/>
    <use xlink:href="#DejaVuSans-6d" x="1279.105469"/>
    <use xlink:href="#DejaVuSans-6f" x="1376.517578"/>
    <use xlink:href="#DejaVuSans-64" x="1437.699219"/>
    <use xlink:href="#DejaVuSans-65" x="1501.175781"/>
    <use xlink:href="#DejaVuSans-6c" x="1562.699219"/>
    <use xlink:href="#DejaVuSans-20" x="1590.482422"/>
    <use xlink:href="#DejaVuSans-77" x="1622.269531"/>
    <use xlink:href="#DejaVuSans-69" x="1704.056641"/>
    <use xlink:href="#DejaVuSans-74" x="1731.839844"/>
    <use xlink:href="#DejaVuSans-68" x="1771.048828"/>
    <use xlink:href="#DejaVuSans-20" x="1834.427734"/>
    <use xlink:href="#DejaVuSans-69" x="1866.214844"/>
    <use xlink:href="#DejaVuSans-6e" x="1893.998047"/>
    <use xlink:href="#DejaVuSans-70" x="1957.376953"/>
    <use xlink:href="#DejaVuSans-75" x="2020.853516"/>
    <use xlink:href="#DejaVuSans-74" x="2084.232422"/>
    <use xlink:href="#DejaVuSans-20" x="2123.441406"/>
    <use xlink:href="#DejaVuSans-6f" x="2155.228516"/>
    <use xlink:href="#DejaVuSans-66" x="2216.410156"/>
    <use xlink:href="#DejaVuSans-20" x="2251.615234"/>
    <use xlink:href="#DejaVuSans-2d" x="2283.402344"/>
    <use xlink:href="#DejaVuSans-30" x="2319.486328"/>
    <use xlink:href="#DejaVuSans-2e" x="2383.109375"/>
    <use xlink:href="#DejaVuSans-31" x="2414.896484"/>
    <use xlink:href="#DejaVuSans-20" x="2478.519531"/>
    <use xlink:href="#DejaVuSans-77" x="2510.306641"/>
    <use xlink:href="#DejaVuSans-69" x="2592.09375"/>
    <use xlink:href="#DejaVuSans-74" x="2619.876953"/>
    <use xlink:href="#DejaVuSans-68" x="2659.085938"/>
    <use xlink:href="#DejaVuSans-20" x="2722.464844"/>
    <use xlink:href="#DejaVuSans-72" x="2754.251953"/>
    <use xlink:href="#DejaVuSans-6d" x="2793.615234"/>
    <use xlink:href="#DejaVuSans-73" x="2891.027344"/>
    <use xlink:href="#DejaVuSans-3d" x="2943.126953"/>
    <use xlink:href="#DejaVuSans-33" x="3026.916016"/>
    <use xlink:href="#DejaVuSans-20" x="3090.539062"/>
   </g>
  </g>
 </g>
 <defs>
  <clipPath id="p93be6f4f69">
   <rect x="44.845313" y="36" width="334.8" height="217.44"/>
  </clipPath>
 </defs>
</svg>
