<?xml version="1.0" encoding="utf-8" standalone="no"?>
<!DOCTYPE svg PUBLIC "-//W3C//DTD SVG 1.1//EN"
  "http://www.w3.org/Graphics/SVG/1.1/DTD/svg11.dtd">
<svg xmlns:xlink="http://www.w3.org/1999/xlink" width="398.833437pt" height="277.318125pt" viewBox="0 0 398.833437 277.318125" xmlns="http://www.w3.org/2000/svg" version="1.1">
 <metadata>
  <rdf:RDF xmlns:dc="http://purl.org/dc/elements/1.1/" xmlns:cc="http://creativecommons.org/ns#" xmlns:rdf="http://www.w3.org/1999/02/22-rdf-syntax-ns#">
   <cc:Work>
    <dc:type rdf:resource="http://purl.org/dc/dcmitype/StillImage"/>
    <dc:date>2022-11-17T12:00:04.368492</dc:date>
    <dc:format>image/svg+xml</dc:format>
    <dc:creator>
     <cc:Agent>
      <dc:title>Matplotlib v3.6.0, https://matplotlib.org/</dc:title>
     </cc:Agent>
    </dc:creator>
   </cc:Work>
  </rdf:RDF>
 </metadata>
 <defs>
  <style type="text/css">*{stroke-linejoin: round; stroke-linecap: butt}</style>
 </defs>
 <g id="figure_1">
  <g id="patch_1">
   <path d="M -0 277.318125 
L 398.833437 277.318125 
L 398.833437 0 
L -0 0 
L -0 277.318125 
z
" style="fill: none"/>
  </g>
  <g id="axes_1">
   <g id="patch_2">
    <path d="M 38.482813 253.44 
L 373.282813 253.44 
L 373.282813 36 
L 38.482813 36 
z
" style="fill: #ffffff"/>
   </g>
   <g id="matplotlib.axis_1">
    <g id="xtick_1">
     <g id="line2d_1">
      <defs>
       <path id="m0b409c0310" d="M 0 0 
L 0 3.5 
" style="stroke: #000000; stroke-width: 0.8"/>
      </defs>
      <g>
       <use xlink:href="#m0b409c0310" x="38.482813" y="253.44" style="stroke: #000000; stroke-width: 0.8"/>
      </g>
     </g>
     <g id="text_1">
      <!-- 0.00 -->
      <g transform="translate(27.35 268.038437) scale(0.1 -0.1)">
       <defs>
        <path id="DejaVuSans-30" d="M 2034 4250 
Q 1547 4250 1301 3770 
Q 1056 3291 1056 2328 
Q 1056 1369 1301 889 
Q 1547 409 2034 409 
Q 2525 409 2770 889 
Q 3016 1369 3016 2328 
Q 3016 3291 2770 3770 
Q 2525 4250 2034 4250 
z
M 2034 4750 
Q 2819 4750 3233 4129 
Q 3647 3509 3647 2328 
Q 3647 1150 3233 529 
Q 2819 -91 2034 -91 
Q 1250 -91 836 529 
Q 422 1150 422 2328 
Q 422 3509 836 4129 
Q 1250 4750 2034 4750 
z
" transform="scale(0.015625)"/>
        <path id="DejaVuSans-2e" d="M 684 794 
L 1344 794 
L 1344 0 
L 684 0 
L 684 794 
z
" transform="scale(0.015625)"/>
       </defs>
       <use xlink:href="#DejaVuSans-30"/>
       <use xlink:href="#DejaVuSans-2e" x="63.623047"/>
       <use xlink:href="#DejaVuSans-30" x="95.410156"/>
       <use xlink:href="#DejaVuSans-30" x="159.033203"/>
      </g>
     </g>
    </g>
    <g id="xtick_2">
     <g id="line2d_2">
      <g>
       <use xlink:href="#m0b409c0310" x="80.332813" y="253.44" style="stroke: #000000; stroke-width: 0.8"/>
      </g>
     </g>
     <g id="text_2">
      <!-- 0.25 -->
      <g transform="translate(69.2 268.038437) scale(0.1 -0.1)">
       <defs>
        <path id="DejaVuSans-32" d="M 1228 531 
L 3431 531 
L 3431 0 
L 469 0 
L 469 531 
Q 828 903 1448 1529 
Q 2069 2156 2228 2338 
Q 2531 2678 2651 2914 
Q 2772 3150 2772 3378 
Q 2772 3750 2511 3984 
Q 2250 4219 1831 4219 
Q 1534 4219 1204 4116 
Q 875 4013 500 3803 
L 500 4441 
Q 881 4594 1212 4672 
Q 1544 4750 1819 4750 
Q 2544 4750 2975 4387 
Q 3406 4025 3406 3419 
Q 3406 3131 3298 2873 
Q 3191 2616 2906 2266 
Q 2828 2175 2409 1742 
Q 1991 1309 1228 531 
z
" transform="scale(0.015625)"/>
        <path id="DejaVuSans-35" d="M 691 4666 
L 3169 4666 
L 3169 4134 
L 1269 4134 
L 1269 2991 
Q 1406 3038 1543 3061 
Q 1681 3084 1819 3084 
Q 2600 3084 3056 2656 
Q 3513 2228 3513 1497 
Q 3513 744 3044 326 
Q 2575 -91 1722 -91 
Q 1428 -91 1123 -41 
Q 819 9 494 109 
L 494 744 
Q 775 591 1075 516 
Q 1375 441 1709 441 
Q 2250 441 2565 725 
Q 2881 1009 2881 1497 
Q 2881 1984 2565 2268 
Q 2250 2553 1709 2553 
Q 1456 2553 1204 2497 
Q 953 2441 691 2322 
L 691 4666 
z
" transform="scale(0.015625)"/>
       </defs>
       <use xlink:href="#DejaVuSans-30"/>
       <use xlink:href="#DejaVuSans-2e" x="63.623047"/>
       <use xlink:href="#DejaVuSans-32" x="95.410156"/>
       <use xlink:href="#DejaVuSans-35" x="159.033203"/>
      </g>
     </g>
    </g>
    <g id="xtick_3">
     <g id="line2d_3">
      <g>
       <use xlink:href="#m0b409c0310" x="122.182813" y="253.44" style="stroke: #000000; stroke-width: 0.8"/>
      </g>
     </g>
     <g id="text_3">
      <!-- 0.50 -->
      <g transform="translate(111.05 268.038437) scale(0.1 -0.1)">
       <use xlink:href="#DejaVuSans-30"/>
       <use xlink:href="#DejaVuSans-2e" x="63.623047"/>
       <use xlink:href="#DejaVuSans-35" x="95.410156"/>
       <use xlink:href="#DejaVuSans-30" x="159.033203"/>
      </g>
     </g>
    </g>
    <g id="xtick_4">
     <g id="line2d_4">
      <g>
       <use xlink:href="#m0b409c0310" x="164.032813" y="253.44" style="stroke: #000000; stroke-width: 0.8"/>
      </g>
     </g>
     <g id="text_4">
      <!-- 0.75 -->
      <g transform="translate(152.9 268.038437) scale(0.1 -0.1)">
       <defs>
        <path id="DejaVuSans-37" d="M 525 4666 
L 3525 4666 
L 3525 4397 
L 1831 0 
L 1172 0 
L 2766 4134 
L 525 4134 
L 525 4666 
z
" transform="scale(0.015625)"/>
       </defs>
       <use xlink:href="#DejaVuSans-30"/>
       <use xlink:href="#DejaVuSans-2e" x="63.623047"/>
       <use xlink:href="#DejaVuSans-37" x="95.410156"/>
       <use xlink:href="#DejaVuSans-35" x="159.033203"/>
      </g>
     </g>
    </g>
    <g id="xtick_5">
     <g id="line2d_5">
      <g>
       <use xlink:href="#m0b409c0310" x="205.882812" y="253.44" style="stroke: #000000; stroke-width: 0.8"/>
      </g>
     </g>
     <g id="text_5">
      <!-- 1.00 -->
      <g transform="translate(194.75 268.038437) scale(0.1 -0.1)">
       <defs>
        <path id="DejaVuSans-31" d="M 794 531 
L 1825 531 
L 1825 4091 
L 703 3866 
L 703 4441 
L 1819 4666 
L 2450 4666 
L 2450 531 
L 3481 531 
L 3481 0 
L 794 0 
L 794 531 
z
" transform="scale(0.015625)"/>
       </defs>
       <use xlink:href="#DejaVuSans-31"/>
       <use xlink:href="#DejaVuSans-2e" x="63.623047"/>
       <use xlink:href="#DejaVuSans-30" x="95.410156"/>
       <use xlink:href="#DejaVuSans-30" x="159.033203"/>
      </g>
     </g>
    </g>
    <g id="xtick_6">
     <g id="line2d_6">
      <g>
       <use xlink:href="#m0b409c0310" x="247.732812" y="253.44" style="stroke: #000000; stroke-width: 0.8"/>
      </g>
     </g>
     <g id="text_6">
      <!-- 1.25 -->
      <g transform="translate(236.6 268.038437) scale(0.1 -0.1)">
       <use xlink:href="#DejaVuSans-31"/>
       <use xlink:href="#DejaVuSans-2e" x="63.623047"/>
       <use xlink:href="#DejaVuSans-32" x="95.410156"/>
       <use xlink:href="#DejaVuSans-35" x="159.033203"/>
      </g>
     </g>
    </g>
    <g id="xtick_7">
     <g id="line2d_7">
      <g>
       <use xlink:href="#m0b409c0310" x="289.582813" y="253.44" style="stroke: #000000; stroke-width: 0.8"/>
      </g>
     </g>
     <g id="text_7">
      <!-- 1.50 -->
      <g transform="translate(278.45 268.038437) scale(0.1 -0.1)">
       <use xlink:href="#DejaVuSans-31"/>
       <use xlink:href="#DejaVuSans-2e" x="63.623047"/>
       <use xlink:href="#DejaVuSans-35" x="95.410156"/>
       <use xlink:href="#DejaVuSans-30" x="159.033203"/>
      </g>
     </g>
    </g>
    <g id="xtick_8">
     <g id="line2d_8">
      <g>
       <use xlink:href="#m0b409c0310" x="331.432813" y="253.44" style="stroke: #000000; stroke-width: 0.8"/>
      </g>
     </g>
     <g id="text_8">
      <!-- 1.75 -->
      <g transform="translate(320.3 268.038437) scale(0.1 -0.1)">
       <use xlink:href="#DejaVuSans-31"/>
       <use xlink:href="#DejaVuSans-2e" x="63.623047"/>
       <use xlink:href="#DejaVuSans-37" x="95.410156"/>
       <use xlink:href="#DejaVuSans-35" x="159.033203"/>
      </g>
     </g>
    </g>
    <g id="xtick_9">
     <g id="line2d_9">
      <g>
       <use xlink:href="#m0b409c0310" x="373.282813" y="253.44" style="stroke: #000000; stroke-width: 0.8"/>
      </g>
     </g>
     <g id="text_9">
      <!-- 2.00 -->
      <g transform="translate(362.15 268.038437) scale(0.1 -0.1)">
       <use xlink:href="#DejaVuSans-32"/>
       <use xlink:href="#DejaVuSans-2e" x="63.623047"/>
       <use xlink:href="#DejaVuSans-30" x="95.410156"/>
       <use xlink:href="#DejaVuSans-30" x="159.033203"/>
      </g>
     </g>
    </g>
   </g>
   <g id="matplotlib.axis_2">
    <g id="ytick_1">
     <g id="line2d_10">
      <defs>
       <path id="m0bd915fc7d" d="M 0 0 
L -3.5 0 
" style="stroke: #000000; stroke-width: 0.8"/>
      </defs>
      <g>
       <use xlink:href="#m0bd915fc7d" x="38.482813" y="247.156148" style="stroke: #000000; stroke-width: 0.8"/>
      </g>
     </g>
     <g id="text_10">
      <!-- −0.5 -->
      <g transform="translate(7.2 250.955367) scale(0.1 -0.1)">
       <defs>
        <path id="DejaVuSans-2212" d="M 678 2272 
L 4684 2272 
L 4684 1741 
L 678 1741 
L 678 2272 
z
" transform="scale(0.015625)"/>
       </defs>
       <use xlink:href="#DejaVuSans-2212"/>
       <use xlink:href="#DejaVuSans-30" x="83.789062"/>
       <use xlink:href="#DejaVuSans-2e" x="147.412109"/>
       <use xlink:href="#DejaVuSans-35" x="179.199219"/>
      </g>
     </g>
    </g>
    <g id="ytick_2">
     <g id="line2d_11">
      <g>
       <use xlink:href="#m0bd915fc7d" x="38.482813" y="212.107081" style="stroke: #000000; stroke-width: 0.8"/>
      </g>
     </g>
     <g id="text_11">
      <!-- −0.4 -->
      <g transform="translate(7.2 215.906299) scale(0.1 -0.1)">
       <defs>
        <path id="DejaVuSans-34" d="M 2419 4116 
L 825 1625 
L 2419 1625 
L 2419 4116 
z
M 2253 4666 
L 3047 4666 
L 3047 1625 
L 3713 1625 
L 3713 1100 
L 3047 1100 
L 3047 0 
L 2419 0 
L 2419 1100 
L 313 1100 
L 313 1709 
L 2253 4666 
z
" transform="scale(0.015625)"/>
       </defs>
       <use xlink:href="#DejaVuSans-2212"/>
       <use xlink:href="#DejaVuSans-30" x="83.789062"/>
       <use xlink:href="#DejaVuSans-2e" x="147.412109"/>
       <use xlink:href="#DejaVuSans-34" x="179.199219"/>
      </g>
     </g>
    </g>
    <g id="ytick_3">
     <g id="line2d_12">
      <g>
       <use xlink:href="#m0bd915fc7d" x="38.482813" y="177.058013" style="stroke: #000000; stroke-width: 0.8"/>
      </g>
     </g>
     <g id="text_12">
      <!-- −0.3 -->
      <g transform="translate(7.2 180.857232) scale(0.1 -0.1)">
       <defs>
        <path id="DejaVuSans-33" d="M 2597 2516 
Q 3050 2419 3304 2112 
Q 3559 1806 3559 1356 
Q 3559 666 3084 287 
Q 2609 -91 1734 -91 
Q 1441 -91 1130 -33 
Q 819 25 488 141 
L 488 750 
Q 750 597 1062 519 
Q 1375 441 1716 441 
Q 2309 441 2620 675 
Q 2931 909 2931 1356 
Q 2931 1769 2642 2001 
Q 2353 2234 1838 2234 
L 1294 2234 
L 1294 2753 
L 1863 2753 
Q 2328 2753 2575 2939 
Q 2822 3125 2822 3475 
Q 2822 3834 2567 4026 
Q 2313 4219 1838 4219 
Q 1578 4219 1281 4162 
Q 984 4106 628 3988 
L 628 4550 
Q 988 4650 1302 4700 
Q 1616 4750 1894 4750 
Q 2613 4750 3031 4423 
Q 3450 4097 3450 3541 
Q 3450 3153 3228 2886 
Q 3006 2619 2597 2516 
z
" transform="scale(0.015625)"/>
       </defs>
       <use xlink:href="#DejaVuSans-2212"/>
       <use xlink:href="#DejaVuSans-30" x="83.789062"/>
       <use xlink:href="#DejaVuSans-2e" x="147.412109"/>
       <use xlink:href="#DejaVuSans-33" x="179.199219"/>
      </g>
     </g>
    </g>
    <g id="ytick_4">
     <g id="line2d_13">
      <g>
       <use xlink:href="#m0bd915fc7d" x="38.482813" y="142.008945" style="stroke: #000000; stroke-width: 0.8"/>
      </g>
     </g>
     <g id="text_13">
      <!-- −0.2 -->
      <g transform="translate(7.2 145.808164) scale(0.1 -0.1)">
       <use xlink:href="#DejaVuSans-2212"/>
       <use xlink:href="#DejaVuSans-30" x="83.789062"/>
       <use xlink:href="#DejaVuSans-2e" x="147.412109"/>
       <use xlink:href="#DejaVuSans-32" x="179.199219"/>
      </g>
     </g>
    </g>
    <g id="ytick_5">
     <g id="line2d_14">
      <g>
       <use xlink:href="#m0bd915fc7d" x="38.482813" y="106.959877" style="stroke: #000000; stroke-width: 0.8"/>
      </g>
     </g>
     <g id="text_14">
      <!-- −0.1 -->
      <g transform="translate(7.2 110.759096) scale(0.1 -0.1)">
       <use xlink:href="#DejaVuSans-2212"/>
       <use xlink:href="#DejaVuSans-30" x="83.789062"/>
       <use xlink:href="#DejaVuSans-2e" x="147.412109"/>
       <use xlink:href="#DejaVuSans-31" x="179.199219"/>
      </g>
     </g>
    </g>
    <g id="ytick_6">
     <g id="line2d_15">
      <g>
       <use xlink:href="#m0bd915fc7d" x="38.482813" y="71.91081" style="stroke: #000000; stroke-width: 0.8"/>
      </g>
     </g>
     <g id="text_15">
      <!-- 0.0 -->
      <g transform="translate(15.579688 75.710028) scale(0.1 -0.1)">
       <use xlink:href="#DejaVuSans-30"/>
       <use xlink:href="#DejaVuSans-2e" x="63.623047"/>
       <use xlink:href="#DejaVuSans-30" x="95.410156"/>
      </g>
     </g>
    </g>
    <g id="ytick_7">
     <g id="line2d_16">
      <g>
       <use xlink:href="#m0bd915fc7d" x="38.482813" y="36.861742" style="stroke: #000000; stroke-width: 0.8"/>
      </g>
     </g>
     <g id="text_16">
      <!-- 0.1 -->
      <g transform="translate(15.579688 40.660961) scale(0.1 -0.1)">
       <use xlink:href="#DejaVuSans-30"/>
       <use xlink:href="#DejaVuSans-2e" x="63.623047"/>
       <use xlink:href="#DejaVuSans-31" x="95.410156"/>
      </g>
     </g>
    </g>
   </g>
   <g id="line2d_17">
    <path d="M 38.650213 71.91081 
L 38.817613 58.854363 
L 38.985013 73.585695 
L 39.152413 75.644368 
L 39.319813 59.278787 
L 39.487212 64.953278 
L 39.822012 46.890741 
L 39.989413 58.384524 
L 40.156813 60.289259 
L 40.324213 45.883636 
L 40.491613 49.744188 
L 40.659013 49.062748 
L 40.826413 48.869767 
L 40.993813 64.885602 
L 41.161213 67.038525 
L 41.496012 98.960867 
L 41.663412 86.511046 
L 41.830813 87.430996 
L 41.998213 112.665588 
L 42.165613 87.551621 
L 42.333013 89.861406 
L 42.500413 86.898862 
L 42.667813 77.222312 
L 42.835213 80.022274 
L 43.002612 91.591114 
L 43.170012 78.902723 
L 43.337412 88.601901 
L 43.504812 90.999705 
L 43.672213 120.933918 
L 44.174413 91.386496 
L 44.341813 99.165061 
L 44.509213 94.510968 
L 44.676613 70.298252 
L 44.844013 75.090303 
L 45.681013 120.148423 
L 45.848413 114.434873 
L 46.015813 104.855249 
L 46.183213 105.661812 
L 46.350613 101.459328 
L 46.518012 100.753791 
L 46.685412 100.847098 
L 46.852812 90.598302 
L 47.020212 93.446802 
L 47.187613 103.839592 
L 47.522413 107.179679 
L 47.689813 133.183777 
L 47.857213 130.134874 
L 48.024613 111.265522 
L 48.192013 118.577676 
L 48.359413 116.811517 
L 48.526813 105.557317 
L 48.694212 118.407323 
L 48.861612 120.906743 
L 49.029013 118.532348 
L 49.196413 132.073229 
L 49.363813 130.535818 
L 49.531213 116.329752 
L 49.698613 118.86867 
L 49.866013 107.970501 
L 50.033413 108.543922 
L 50.200813 120.570308 
L 50.368213 100.39045 
L 50.535612 125.801324 
L 50.703012 117.49539 
L 50.870413 102.222111 
L 51.037813 119.242816 
L 51.205213 115.779526 
L 51.372613 126.940901 
L 51.540013 145.926378 
L 51.707413 131.524837 
L 52.042213 158.087016 
L 52.209613 157.639335 
L 52.377013 140.221336 
L 52.544413 136.630803 
L 52.711813 142.285688 
L 52.879213 142.364104 
L 53.046613 149.681418 
L 53.214013 146.933255 
L 53.381413 160.532223 
L 53.548813 159.584077 
L 53.716212 164.796564 
L 53.883612 162.605714 
L 54.051012 150.487435 
L 54.218412 150.922074 
L 54.385813 144.624493 
L 54.553213 154.229925 
L 54.720613 137.469479 
L 54.888013 150.059023 
L 55.055413 153.065903 
L 55.222813 144.591325 
L 55.557613 167.058 
L 55.725013 175.253561 
L 55.892413 176.630305 
L 56.059812 158.868245 
L 56.227213 179.039065 
L 56.394613 169.919021 
L 56.562013 142.403465 
L 56.729413 147.35244 
L 56.896813 159.107636 
L 57.231613 152.457325 
L 57.399012 158.8546 
L 57.566412 179.843015 
L 58.236013 154.522651 
L 58.403413 156.195178 
L 58.570813 129.250585 
L 58.905613 146.315596 
L 59.073013 135.652025 
L 59.407813 152.174827 
L 59.575213 145.617784 
L 59.910013 166.623092 
L 60.244813 145.399064 
L 60.412213 145.322856 
L 60.579613 147.788839 
L 60.747013 143.110287 
L 60.914413 134.063687 
L 61.249212 143.877534 
L 61.416612 143.975015 
L 61.584013 146.176617 
L 61.751413 144.57413 
L 61.918813 151.010699 
L 62.253613 144.487501 
L 62.421013 133.891255 
L 62.588413 133.283458 
L 62.755813 134.035969 
L 62.923213 137.305276 
L 63.090613 157.522575 
L 63.258012 163.620781 
L 63.425413 147.065907 
L 63.592813 145.145238 
L 63.760213 158.203578 
L 63.927613 160.912004 
L 64.095012 161.638269 
L 64.262413 161.026887 
L 64.429812 162.303262 
L 64.597212 162.17078 
L 64.764612 132.087578 
L 65.099412 146.438082 
L 65.266813 135.675678 
L 65.434213 150.879253 
L 65.601613 149.068091 
L 65.769013 144.045034 
L 65.936413 150.738094 
L 66.103813 150.708799 
L 66.271213 140.548764 
L 66.438613 143.507913 
L 66.606013 136.752061 
L 66.773413 143.330613 
L 67.108213 133.008635 
L 67.443013 140.44558 
L 67.610413 146.981383 
L 67.777813 146.559627 
L 67.945212 126.439587 
L 68.112612 150.219467 
L 68.280012 141.644279 
L 68.447412 116.557521 
L 68.614812 138.050812 
L 68.782212 134.294348 
L 68.949613 155.125721 
L 69.117013 134.507341 
L 69.284413 138.881288 
L 69.451813 146.199983 
L 69.619213 147.731341 
L 69.786613 138.639524 
L 69.954013 154.387629 
L 70.288813 143.573504 
L 70.456213 162.836735 
L 70.791012 160.24986 
L 71.125812 184.817245 
L 71.293213 183.958067 
L 71.628013 196.131086 
L 71.795412 188.782297 
L 71.962813 196.51933 
L 72.130212 183.555292 
L 72.465013 208.067774 
L 72.632413 189.449027 
L 72.799813 188.628332 
L 72.967213 173.234257 
L 73.134613 184.075049 
L 73.302013 173.348673 
L 73.469413 185.909179 
L 73.636812 162.278206 
L 73.804213 156.599561 
L 73.971612 174.324405 
L 74.139013 165.790668 
L 74.306412 167.707621 
L 74.473813 162.07729 
L 74.641212 151.91888 
L 74.976012 156.682819 
L 75.143413 151.401185 
L 75.310812 140.510634 
L 75.478213 163.682682 
L 75.813013 157.115026 
L 75.980412 150.24079 
L 76.147813 148.649398 
L 76.315213 141.346756 
L 76.482613 151.517817 
L 76.650013 139.135082 
L 76.817413 148.163311 
L 77.152213 133.245354 
L 77.319613 143.889883 
L 77.487013 133.874185 
L 77.989213 151.892508 
L 78.156613 165.439408 
L 78.324013 151.404416 
L 78.491412 165.230125 
L 78.658813 164.760629 
L 78.826212 147.927959 
L 78.993613 144.370283 
L 79.161012 154.819534 
L 79.328412 135.199762 
L 79.495812 144.625709 
L 79.663213 146.344026 
L 79.830613 149.889994 
L 79.998013 125.689504 
L 80.165413 127.648798 
L 80.332813 134.055334 
L 80.500213 125.799118 
L 80.667613 124.402983 
L 80.835013 121.20837 
L 81.169813 129.075324 
L 81.337213 118.639002 
L 81.504613 118.512697 
L 81.672012 142.664905 
L 81.839413 146.372005 
L 82.006812 145.055077 
L 82.341612 161.587301 
L 82.509013 156.039418 
L 82.676412 162.479266 
L 83.011212 149.260279 
L 83.346013 142.742736 
L 83.513413 152.543462 
L 83.848213 138.340509 
L 84.015613 153.484311 
L 84.183013 142.306989 
L 84.517813 151.466477 
L 84.685213 168.649157 
L 84.852613 168.360745 
L 85.020013 181.057309 
L 85.187413 176.39377 
L 85.354813 160.868436 
L 85.522213 161.818255 
L 85.689613 166.291759 
L 85.857013 140.466458 
L 86.024413 160.703313 
L 86.191813 143.800027 
L 86.359213 141.040327 
L 86.526612 144.986625 
L 86.694013 160.131677 
L 86.861413 148.131537 
L 87.028813 147.663686 
L 87.196213 164.945246 
L 87.363613 166.816629 
L 87.531013 159.258862 
L 87.698413 158.504733 
L 88.033212 139.33218 
L 88.200613 151.974708 
L 88.535413 126.878656 
L 88.702812 128.296172 
L 88.870213 139.824352 
L 89.037612 137.927703 
L 89.205013 137.932314 
L 89.372412 148.126045 
L 89.539813 144.529299 
L 89.874613 158.569779 
L 90.042012 147.424401 
L 90.209412 170.960963 
L 90.376812 166.611769 
L 90.544213 155.282853 
L 90.711613 158.843045 
L 91.046413 175.841248 
L 91.213813 152.120823 
L 91.381213 151.707833 
L 91.548613 146.685598 
L 91.883413 124.524501 
L 92.050813 125.565789 
L 92.218213 116.921827 
L 92.385613 125.324112 
L 92.720413 115.208035 
L 92.887812 117.308182 
L 93.055213 114.769522 
L 93.222612 116.527138 
L 93.390013 104.302495 
L 93.557412 123.595517 
L 93.724813 118.621321 
L 93.892212 127.34194 
L 94.059613 142.306117 
L 94.227013 131.083269 
L 94.394413 147.400953 
L 94.561813 141.905671 
L 94.729213 164.751529 
L 94.896613 148.413092 
L 95.064013 155.569716 
L 95.398813 151.176203 
L 95.566213 158.730323 
L 95.733613 160.910144 
L 95.901013 141.486566 
L 96.068413 172.790054 
L 96.403213 175.779465 
L 96.570613 172.543454 
L 96.738013 188.824275 
L 96.905413 181.390148 
L 97.072813 182.093045 
L 97.240213 167.8378 
L 97.407612 175.036651 
L 97.575012 160.601155 
L 97.742413 170.932412 
L 98.077213 159.468671 
L 98.244613 161.883098 
L 98.412013 170.571678 
L 98.579413 173.123806 
L 98.914212 150.783096 
L 99.081613 165.69241 
L 99.249012 167.028031 
L 99.416413 163.374314 
L 99.583812 182.980425 
L 99.751213 179.658625 
L 100.086013 189.924749 
L 100.253412 185.377484 
L 100.420813 184.893683 
L 100.755613 190.148906 
L 100.923012 173.651067 
L 101.090413 185.398723 
L 101.257812 174.598921 
L 101.425213 180.034445 
L 101.592613 162.763789 
L 101.760013 157.996336 
L 101.927413 189.078791 
L 102.262213 150.09542 
L 102.429613 157.211236 
L 102.597013 176.427588 
L 102.931813 158.117664 
L 103.099212 165.007065 
L 103.266613 202.367367 
L 103.434012 181.423202 
L 103.601413 180.249396 
L 103.768812 216.870863 
L 104.103612 183.027319 
L 104.438412 203.518993 
L 104.605813 192.616235 
L 104.773212 205.984122 
L 104.940613 199.038464 
L 105.108013 212.084871 
L 105.275413 206.327356 
L 105.442813 206.759156 
L 105.610213 192.163591 
L 105.777613 204.513132 
L 105.945013 199.190141 
L 106.112413 185.366409 
L 106.279813 201.981922 
L 106.447213 189.313532 
L 106.614613 200.76179 
L 106.782013 190.135832 
L 106.949413 194.061112 
L 107.116813 183.59704 
L 107.284212 192.164688 
L 107.451613 172.397858 
L 107.619012 179.094966 
L 107.786413 175.744889 
L 107.953812 165.533429 
L 108.121213 188.691232 
L 108.456013 181.723294 
L 108.623413 194.280501 
L 108.790812 195.637949 
L 108.958213 189.77405 
L 109.125612 193.967467 
L 109.293013 190.10287 
L 109.795212 197.656096 
L 109.962613 193.311143 
L 110.130012 198.92775 
L 110.297413 189.952242 
L 110.464812 187.963627 
L 110.632213 191.551077 
L 110.799612 188.591105 
L 110.967013 183.53565 
L 111.134412 182.466862 
L 111.301813 182.779779 
L 111.469212 183.986102 
L 111.636613 173.774974 
L 112.138813 182.046444 
L 112.306213 192.467516 
L 112.473613 193.511535 
L 112.641013 184.279738 
L 112.808413 182.952685 
L 112.975813 178.242014 
L 113.143213 182.592738 
L 113.310613 193.851574 
L 113.645412 174.00167 
L 113.812813 174.018137 
L 113.980212 193.289229 
L 114.147613 195.143496 
L 114.315012 198.90658 
L 114.649812 219.911472 
L 114.817213 221.114994 
L 114.984612 231.715869 
L 115.319412 213.02544 
L 115.486813 221.428961 
L 115.989013 197.803271 
L 116.156413 197.000492 
L 116.323813 200.109802 
L 116.658613 188.445475 
L 116.826013 189.866018 
L 116.993413 176.256622 
L 117.160813 148.040427 
L 117.328213 146.186464 
L 117.495613 158.144832 
L 117.663013 151.948746 
L 117.830413 155.389487 
L 117.997813 167.026361 
L 118.165213 161.103525 
L 118.332613 161.684841 
L 118.834812 176.030357 
L 119.002213 167.90821 
L 119.169612 174.200348 
L 119.504413 163.91123 
L 119.671813 161.567594 
L 119.839213 163.698307 
L 120.006612 143.070117 
L 120.676212 179.331668 
L 120.843613 180.117302 
L 121.011012 194.185292 
L 121.178413 194.954465 
L 121.345812 204.795941 
L 121.513213 202.793568 
L 121.680612 199.392576 
L 122.015412 218.139372 
L 122.182813 216.834151 
L 122.350212 214.345295 
L 122.517613 226.398532 
L 122.685012 204.166434 
L 123.019813 227.012744 
L 123.689413 189.863617 
L 123.856813 203.88639 
L 124.359013 164.059717 
L 124.526413 151.741898 
L 124.693813 158.6414 
L 124.861212 145.960596 
L 125.028613 144.980414 
L 125.196012 166.97402 
L 125.363413 157.829041 
L 125.865612 166.672825 
L 126.033013 157.476326 
L 126.200412 164.291674 
L 126.535213 160.531177 
L 126.702613 153.955205 
L 126.870013 163.759283 
L 127.037413 162.275201 
L 127.372213 155.28685 
L 127.539613 136.592065 
L 127.707013 134.430224 
L 127.874413 133.886444 
L 128.041813 156.58274 
L 128.209213 145.598159 
L 128.376613 153.402906 
L 128.544013 178.176254 
L 128.711413 165.746831 
L 129.213613 197.839611 
L 129.381012 183.422258 
L 129.548413 179.490073 
L 129.715812 203.310673 
L 129.883213 188.682178 
L 130.050612 208.992902 
L 130.218013 210.483825 
L 130.552813 216.479982 
L 130.887613 231.432129 
L 131.055013 230.525588 
L 131.222413 230.452979 
L 131.389813 221.085775 
L 131.557213 204.882142 
L 131.892013 211.98513 
L 132.059413 213.24427 
L 132.226813 227.92009 
L 132.394213 226.384751 
L 132.729013 219.343098 
L 132.896413 220.130086 
L 133.063813 221.902642 
L 133.231213 215.153087 
L 133.398613 217.735758 
L 133.566013 211.474329 
L 133.733413 195.018127 
L 133.900813 193.408957 
L 134.068213 199.157167 
L 134.403013 195.934241 
L 134.570413 199.968434 
L 134.737813 199.021102 
L 134.905213 189.22901 
L 135.240013 193.268149 
L 135.407412 205.314253 
L 135.574813 199.257258 
L 135.909613 208.986767 
L 136.077012 203.611825 
L 136.244413 220.665695 
L 136.411812 213.196208 
L 136.579213 213.246669 
L 136.746612 223.427045 
L 136.914013 207.320711 
L 137.081412 209.910207 
L 137.248812 201.884655 
L 137.416213 205.652948 
L 137.583612 201.732612 
L 137.751013 183.323758 
L 137.918412 192.205032 
L 138.085813 188.561118 
L 138.253212 194.809315 
L 138.420613 191.745177 
L 138.588012 194.446266 
L 138.755413 204.227683 
L 138.922812 182.165027 
L 139.090213 178.37485 
L 139.257612 178.830733 
L 139.425013 172.843757 
L 139.592412 181.140202 
L 139.759813 178.455095 
L 139.927212 185.598449 
L 140.094613 174.916086 
L 140.262012 172.492794 
L 140.429413 185.144119 
L 140.764213 170.286873 
L 140.931612 175.106323 
L 141.099013 175.229988 
L 141.433813 158.490598 
L 141.601213 164.550877 
L 141.768613 153.033891 
L 141.936013 150.751433 
L 142.103412 138.486384 
L 142.270813 150.080931 
L 142.438212 144.672006 
L 142.605613 150.938349 
L 142.940413 173.341133 
L 143.107812 172.192964 
L 143.275213 158.316457 
L 143.442612 170.713067 
L 143.610013 174.476501 
L 143.777412 167.808679 
L 144.112212 185.424877 
L 144.279613 171.366573 
L 144.447012 173.752397 
L 144.781813 165.091896 
L 144.949213 158.184397 
L 145.116613 167.717662 
L 145.451413 153.684582 
L 145.618813 171.775074 
L 145.786213 167.730402 
L 146.121013 181.997925 
L 146.288413 158.688576 
L 146.455813 196.32546 
L 146.790613 183.822832 
L 147.125413 197.457023 
L 147.292812 187.606467 
L 147.460213 187.225795 
L 147.627612 188.946915 
L 147.795013 173.032436 
L 147.962412 192.865663 
L 148.129813 190.903128 
L 148.297213 171.206771 
L 148.464613 180.632247 
L 148.632013 175.386368 
L 148.799413 163.484513 
L 148.966813 166.613312 
L 149.134213 165.446342 
L 149.301613 152.435687 
L 149.469013 161.582582 
L 149.803813 149.299729 
L 149.971213 167.051624 
L 150.138613 168.535978 
L 150.306013 146.76975 
L 150.640813 174.742546 
L 150.975613 168.659217 
L 151.143013 190.69261 
L 151.310413 186.037426 
L 151.477812 185.357039 
L 151.645213 196.282626 
L 151.812613 171.561817 
L 151.980013 167.277306 
L 152.147413 191.225898 
L 152.314813 189.39159 
L 152.482213 165.987789 
L 152.649613 184.990171 
L 152.817013 175.40608 
L 152.984413 157.015073 
L 153.151813 159.03488 
L 153.319213 157.986532 
L 153.486613 143.434619 
L 153.821413 145.471966 
L 153.988813 138.709622 
L 154.156213 121.344261 
L 154.323613 148.397955 
L 154.491013 141.119241 
L 154.658413 139.494029 
L 154.825813 155.755222 
L 154.993213 158.60374 
L 155.328013 139.571904 
L 155.495413 147.643097 
L 155.662813 134.672079 
L 155.830213 131.215265 
L 155.997613 138.226905 
L 156.165013 135.012157 
L 156.332413 125.59484 
L 156.499812 154.515459 
L 156.667213 149.120421 
L 156.834612 149.864423 
L 157.002013 174.91262 
L 157.336813 158.106439 
L 157.504212 176.681176 
L 157.671613 177.913614 
L 157.839012 173.488678 
L 158.173812 154.044737 
L 158.341213 163.318849 
L 158.508612 163.792018 
L 158.676013 164.820345 
L 158.843412 179.614484 
L 159.010813 168.579939 
L 159.178213 170.887466 
L 159.345612 183.303987 
L 159.513013 171.082709 
L 159.847813 181.74046 
L 160.015212 180.098403 
L 160.182613 189.54194 
L 160.517413 195.136843 
L 160.684812 205.099569 
L 160.852213 205.592719 
L 161.019612 204.120856 
L 161.187013 205.850058 
L 161.354412 210.7426 
L 161.521813 195.717609 
L 161.689212 195.550893 
L 161.856613 197.63775 
L 162.024012 189.541061 
L 162.191413 209.702063 
L 162.358812 214.02365 
L 162.526213 190.313412 
L 162.693613 201.160277 
L 163.195813 182.84452 
L 163.363213 163.314803 
L 163.530613 160.962328 
L 163.698013 153.921454 
L 163.865413 155.317652 
L 164.032813 159.337779 
L 164.200212 155.984664 
L 164.367613 165.732457 
L 164.535012 166.455499 
L 164.869812 163.272693 
L 165.539412 210.485709 
L 165.706813 196.080542 
L 165.874212 202.492251 
L 166.041613 220.475523 
L 166.209013 213.208402 
L 166.376413 200.091991 
L 166.543813 207.32417 
L 166.878613 175.305968 
L 167.046012 188.752905 
L 167.213413 189.488903 
L 167.380812 164.87003 
L 167.883013 197.862453 
L 168.050412 187.800731 
L 168.217813 187.88345 
L 168.552613 199.842097 
L 168.720012 187.667825 
L 168.887413 187.954513 
L 169.054812 204.012918 
L 169.222213 209.376641 
L 169.389612 208.792635 
L 169.557013 203.645997 
L 169.724412 193.796837 
L 170.059213 219.991258 
L 170.226613 195.441453 
L 170.394013 207.113279 
L 170.561413 206.690508 
L 170.728813 200.171341 
L 171.063613 203.977046 
L 171.231012 188.472386 
L 171.398413 188.436829 
L 171.565812 198.868377 
L 171.733213 196.506323 
L 171.900612 187.428403 
L 172.068013 208.710462 
L 172.235412 209.0641 
L 172.402813 215.481085 
L 172.570212 213.95514 
L 172.737613 214.91565 
L 172.905012 214.238331 
L 173.072413 219.624162 
L 173.407213 202.128679 
L 173.574613 199.994551 
L 173.742013 203.187469 
L 174.244213 183.212878 
L 174.411613 182.587186 
L 174.579013 187.921439 
L 174.746413 174.85452 
L 174.913813 174.516875 
L 175.081213 179.828721 
L 175.248613 172.548447 
L 175.416013 151.878871 
L 175.583413 157.331461 
L 175.750813 156.70296 
L 175.918213 154.235284 
L 176.085612 154.065025 
L 176.253013 154.728552 
L 176.420412 168.151259 
L 176.587813 159.568243 
L 176.755212 178.406701 
L 176.922613 168.542483 
L 177.090013 146.519946 
L 177.424813 183.254428 
L 177.592213 158.296755 
L 177.927012 182.19976 
L 178.261812 161.7551 
L 178.429213 163.095122 
L 178.764013 171.874521 
L 178.931412 185.837164 
L 179.098812 185.630848 
L 179.266212 190.467991 
L 179.433612 191.675702 
L 179.601012 191.316284 
L 179.768412 190.346437 
L 180.270612 203.014777 
L 180.438012 189.647868 
L 180.605412 201.36999 
L 180.772812 203.36419 
L 180.940213 186.690407 
L 181.107612 183.740596 
L 181.275013 190.890724 
L 181.442412 188.528343 
L 181.944613 199.746347 
L 182.112012 197.948785 
L 182.279413 188.274037 
L 182.446812 191.420013 
L 182.614213 183.65369 
L 182.781612 184.659369 
L 182.949013 197.124607 
L 183.283813 178.59197 
L 183.451212 180.656707 
L 183.618613 180.414447 
L 183.786012 180.917322 
L 183.953412 189.561418 
L 184.120812 181.824126 
L 184.288212 187.466265 
L 184.455613 201.083221 
L 184.623012 189.90933 
L 184.790413 195.808052 
L 184.957812 197.132274 
L 185.125213 193.607411 
L 185.292612 207.433074 
L 185.627412 176.041826 
L 185.794813 182.859027 
L 185.962212 178.846369 
L 186.297012 156.795527 
L 186.464413 163.942986 
L 186.631812 180.961886 
L 186.799213 180.625841 
L 186.966612 167.105942 
L 187.134013 199.231082 
L 187.301412 190.673391 
L 187.468813 193.283646 
L 187.636212 213.09259 
L 187.803613 202.157877 
L 187.971013 200.192377 
L 188.138413 205.513324 
L 188.305813 202.697068 
L 188.473213 202.430988 
L 188.640613 217.371408 
L 188.808012 201.578356 
L 188.975413 202.646994 
L 189.142812 207.959048 
L 189.310213 196.927978 
L 189.477612 194.365765 
L 189.645013 194.91328 
L 189.979813 171.732249 
L 190.147212 175.79016 
L 190.314613 159.409448 
L 190.482012 159.863587 
L 190.649413 184.555292 
L 190.816812 182.15768 
L 190.984213 184.250981 
L 191.151612 191.049743 
L 191.653813 172.725092 
L 191.821213 178.016793 
L 191.988613 167.919459 
L 192.156013 187.308386 
L 192.323413 187.808833 
L 192.490813 174.134224 
L 192.658213 174.335868 
L 192.825613 174.910833 
L 192.993013 176.703246 
L 193.160413 175.090829 
L 193.327812 176.474678 
L 193.495213 182.003006 
L 193.662612 181.309379 
L 193.830013 170.154591 
L 193.997412 181.536065 
L 194.332212 168.797212 
L 194.667012 197.135448 
L 195.001812 204.962054 
L 195.169213 197.963119 
L 195.504013 180.726905 
L 195.838813 183.314668 
L 196.006213 179.898166 
L 196.341013 169.428514 
L 196.675813 198.655085 
L 196.843213 204.260467 
L 197.010613 192.89399 
L 197.345413 203.021989 
L 197.512813 197.821511 
L 197.680213 183.41509 
L 198.015013 200.599511 
L 198.349813 173.370436 
L 198.684613 200.32011 
L 198.852013 175.944241 
L 199.019413 199.310258 
L 199.354212 181.010991 
L 199.521613 209.316252 
L 199.689012 209.091094 
L 199.856413 186.452011 
L 200.023812 191.898962 
L 200.191213 206.819812 
L 200.358612 192.050828 
L 200.526013 188.832526 
L 200.693412 206.557371 
L 200.860813 199.202726 
L 201.028212 208.523958 
L 201.195612 207.144173 
L 201.363012 217.419696 
L 201.697812 192.880111 
L 201.865212 201.671714 
L 202.032612 195.615385 
L 202.200012 198.753916 
L 202.367413 195.150448 
L 202.534812 186.703257 
L 202.869612 213.143539 
L 203.037013 212.025375 
L 203.204412 200.305608 
L 203.371813 180.108389 
L 203.539212 208.196248 
L 203.874012 178.686074 
L 204.041413 199.376889 
L 204.208812 169.666743 
L 204.376213 175.197669 
L 204.543612 163.765059 
L 204.711013 163.549066 
L 204.878412 178.338983 
L 205.045813 166.294383 
L 205.213212 166.779901 
L 205.380613 186.13185 
L 205.548012 178.671992 
L 205.715413 164.963631 
L 206.050213 169.097162 
L 206.552413 147.913466 
L 206.719813 152.711481 
L 207.054613 181.99973 
L 207.222013 166.87664 
L 207.389413 181.584453 
L 207.556813 179.734508 
L 207.724213 182.067331 
L 207.891613 194.658563 
L 208.059013 190.002272 
L 208.393813 177.653461 
L 208.561213 171.046091 
L 208.728613 181.301798 
L 208.896013 200.279168 
L 209.063413 177.190996 
L 209.230813 188.597687 
L 209.398213 187.781647 
L 209.565613 197.054356 
L 209.900413 188.516367 
L 210.067812 189.038681 
L 210.402612 180.656834 
L 210.570013 158.235067 
L 210.904812 185.003933 
L 211.072212 153.429687 
L 211.407012 166.922036 
L 211.574412 157.880523 
L 211.741812 133.355514 
L 211.909212 178.57696 
L 212.076612 172.360661 
L 212.244012 171.72824 
L 212.411412 150.962913 
L 212.578812 165.284339 
L 212.746212 168.60361 
L 213.081012 184.930261 
L 213.248413 167.31337 
L 213.415812 184.111184 
L 213.583213 183.737289 
L 213.750612 184.808857 
L 213.918013 189.964536 
L 214.085412 186.596518 
L 214.252813 193.815808 
L 214.420212 213.293069 
L 214.587613 209.103416 
L 214.755012 208.858645 
L 214.922413 230.689094 
L 215.089812 234.753201 
L 215.257213 218.431187 
L 215.424612 221.070763 
L 215.592013 233.10835 
L 215.759412 203.684994 
L 215.926813 209.366538 
L 216.094212 209.954631 
L 216.261613 188.269378 
L 216.429012 184.178603 
L 216.596413 190.50878 
L 216.763813 201.622358 
L 216.931213 188.631917 
L 217.266013 193.979814 
L 217.600813 174.204064 
L 217.935613 176.67248 
L 218.103013 187.288867 
L 218.437813 171.040617 
L 218.605213 179.426931 
L 218.772612 175.806153 
L 218.940013 160.345461 
L 219.107412 159.478176 
L 219.274813 139.154165 
L 219.442212 149.296143 
L 219.609613 170.780751 
L 219.944413 141.662531 
L 220.111812 149.0955 
L 220.279212 196.23153 
L 220.446612 192.189307 
L 220.614013 192.577653 
L 220.781412 183.753638 
L 220.948813 185.158622 
L 221.116212 189.526255 
L 221.451012 166.974421 
L 221.785812 194.001565 
L 221.953213 177.26247 
L 222.120612 178.930445 
L 222.288013 186.958715 
L 222.622813 184.69901 
L 222.790212 191.111525 
L 223.125012 178.883951 
L 223.292413 179.202533 
L 223.459812 176.391568 
L 223.794612 186.066209 
L 223.962013 182.048984 
L 224.129413 199.691678 
L 224.296813 200.594876 
L 224.464213 181.368291 
L 224.631613 175.399476 
L 224.799013 164.034986 
L 224.966413 174.931543 
L 225.301213 152.935485 
L 225.468613 162.341677 
L 225.636013 181.79771 
L 225.803413 187.903382 
L 225.970813 185.672141 
L 226.138213 203.662671 
L 226.305613 183.622492 
L 226.473013 185.92311 
L 226.640413 178.364354 
L 226.807813 187.562311 
L 226.975213 207.630259 
L 227.142613 186.793628 
L 227.310013 199.625235 
L 227.477413 201.178127 
L 227.644813 195.714248 
L 227.812213 203.987508 
L 227.979613 182.228507 
L 228.147012 197.987492 
L 228.314413 196.416874 
L 228.481812 191.532542 
L 228.649213 181.612273 
L 228.816612 198.401578 
L 228.984013 191.565103 
L 229.486212 213.577857 
L 229.653613 212.060251 
L 229.821012 207.634848 
L 229.988413 226.431175 
L 230.155812 213.075675 
L 230.323213 213.888591 
L 230.490612 220.811518 
L 230.825412 222.251286 
L 230.992813 225.931161 
L 231.160213 219.367461 
L 231.327613 222.16428 
L 231.662412 206.751041 
L 231.829813 209.208782 
L 232.164613 205.729101 
L 232.332012 198.337877 
L 232.499413 178.176212 
L 232.666812 202.33123 
L 232.834213 203.243585 
L 233.001612 196.932642 
L 233.169013 207.957056 
L 233.503813 201.647415 
L 233.671212 198.756666 
L 233.838613 183.543361 
L 234.006012 182.717254 
L 234.173413 179.820583 
L 234.340812 180.656891 
L 234.508213 158.388451 
L 234.675612 178.638644 
L 234.843013 184.367834 
L 235.177813 168.661259 
L 235.345213 187.84435 
L 235.512613 171.493064 
L 235.680013 170.101504 
L 235.847413 195.001577 
L 236.182213 175.62581 
L 236.349612 184.652235 
L 236.517013 176.141529 
L 236.684412 186.908963 
L 236.851813 181.735094 
L 237.019212 181.461671 
L 237.186613 183.881299 
L 237.354012 168.757794 
L 237.521412 192.351332 
L 237.856212 186.524723 
L 238.023612 178.767859 
L 238.191012 202.72055 
L 238.358412 184.999589 
L 238.525813 196.438983 
L 238.860613 178.816027 
L 239.028012 171.933608 
L 239.195413 178.631083 
L 239.530213 180.293786 
L 239.697612 178.574453 
L 239.865013 171.00059 
L 240.032412 186.308119 
L 240.199813 186.562413 
L 240.367212 183.758201 
L 240.534613 175.477643 
L 240.702012 174.534508 
L 241.204213 137.603162 
L 241.371612 165.451867 
L 241.539013 165.883074 
L 241.706412 164.393491 
L 241.873813 159.718477 
L 242.041213 143.969936 
L 242.208613 158.81183 
L 242.376013 159.407625 
L 242.543413 165.014409 
L 242.710813 175.298393 
L 242.878213 159.290509 
L 243.045613 170.15747 
L 243.547813 172.903247 
L 243.715213 169.80986 
L 244.050013 185.013543 
L 244.217413 175.312186 
L 244.384813 198.248489 
L 244.552213 196.11742 
L 244.719613 202.335436 
L 244.887013 198.34308 
L 245.054413 216.65635 
L 245.221813 212.063721 
L 245.389212 202.909627 
L 245.556613 206.779864 
L 245.724012 199.152701 
L 245.891413 204.1708 
L 246.058812 202.549399 
L 246.226213 203.517886 
L 246.393612 213.529145 
L 246.561013 206.569692 
L 246.728412 210.160496 
L 246.895813 200.432419 
L 247.063212 224.19075 
L 247.230613 198.154144 
L 247.398012 202.27995 
L 247.732812 188.77007 
L 248.067612 210.435742 
L 248.235013 207.151057 
L 248.402412 206.587061 
L 248.569813 197.088465 
L 248.737212 194.746921 
L 248.904613 206.50917 
L 249.072012 182.554182 
L 249.239413 199.397481 
L 249.406813 194.532953 
L 249.574213 196.367241 
L 249.741613 195.569868 
L 249.909013 214.261549 
L 250.411213 199.988958 
L 250.578613 208.807049 
L 250.746013 204.223031 
L 250.913413 184.307271 
L 251.080813 206.032729 
L 251.248213 201.417551 
L 251.415613 188.86928 
L 251.583013 198.424702 
L 251.750413 192.930775 
L 251.917813 192.488017 
L 252.085213 196.636971 
L 252.252613 181.29102 
L 252.420013 187.032871 
L 252.587413 188.951764 
L 252.754813 189.110384 
L 252.922213 194.964898 
L 253.257013 186.217658 
L 253.424413 208.176533 
L 253.591812 201.649827 
L 253.759213 188.959427 
L 253.926612 196.179884 
L 254.094013 185.344683 
L 254.428813 210.728477 
L 254.596212 200.817022 
L 255.098412 230.82838 
L 255.265812 225.706808 
L 255.433212 207.408749 
L 255.600612 215.821307 
L 255.768012 215.918149 
L 255.935412 194.127011 
L 256.102813 208.58272 
L 256.270213 211.74994 
L 256.437613 190.855028 
L 256.772413 197.510199 
L 256.939813 202.108558 
L 257.107213 192.567135 
L 257.274612 170.472367 
L 257.442013 184.156611 
L 257.609413 182.840856 
L 257.776813 172.097129 
L 257.944212 188.491711 
L 258.111613 183.948946 
L 258.279013 173.650378 
L 258.613812 209.021937 
L 258.781213 187.476545 
L 259.283412 213.40896 
L 259.618213 187.878754 
L 259.785613 190.63101 
L 259.953012 190.770765 
L 260.287813 177.440487 
L 260.622613 193.730689 
L 260.790013 188.030803 
L 260.957413 197.247475 
L 261.124813 186.967235 
L 261.292213 187.670605 
L 261.627013 198.045987 
L 262.129213 181.883824 
L 262.296613 187.917271 
L 262.631413 203.608725 
L 262.798813 201.166087 
L 262.966212 202.418152 
L 263.133613 197.965502 
L 263.468413 206.025877 
L 263.635812 216.288738 
L 263.803213 213.514163 
L 263.970613 206.003644 
L 264.138013 212.728594 
L 264.472813 196.090588 
L 264.640213 199.273488 
L 264.807613 194.555305 
L 264.975012 206.319244 
L 265.142413 206.037969 
L 265.309813 204.5436 
L 265.477213 209.628817 
L 265.644612 222.0861 
L 265.812013 224.808267 
L 265.979413 222.646594 
L 266.146813 214.445735 
L 266.314212 222.811637 
L 266.481613 209.669453 
L 266.649013 184.456511 
L 266.983812 188.953583 
L 267.151213 206.715193 
L 267.318613 206.727189 
L 267.486013 195.697913 
L 267.820813 209.43543 
L 267.988213 195.164504 
L 268.155613 211.782117 
L 268.323013 210.913871 
L 268.490413 189.227106 
L 268.657813 186.825039 
L 268.992613 212.567633 
L 269.160013 202.745976 
L 269.494813 212.641307 
L 269.662213 202.417197 
L 269.829613 210.517793 
L 269.997013 209.578483 
L 270.331813 192.433322 
L 270.499213 212.732516 
L 270.666613 195.593156 
L 271.001413 215.026526 
L 271.168813 210.941112 
L 271.336213 200.715225 
L 271.503613 211.684401 
L 271.671013 212.28624 
L 271.838413 215.469927 
L 272.173213 206.329313 
L 272.340613 220.075951 
L 272.675412 207.959479 
L 272.842813 210.395197 
L 273.010213 224.874337 
L 273.177613 221.978644 
L 273.345012 225.404139 
L 273.512413 218.945166 
L 273.679813 225.810075 
L 273.847213 216.800071 
L 274.014612 200.05239 
L 274.182012 211.922578 
L 274.516813 191.436405 
L 274.684213 193.3471 
L 274.851612 209.105464 
L 275.019013 197.558452 
L 275.353813 212.750885 
L 275.521212 206.472293 
L 275.688613 209.354814 
L 275.856013 202.98476 
L 276.023413 192.189859 
L 276.190812 198.937313 
L 276.358213 212.478521 
L 276.525613 189.183626 
L 276.860412 206.380927 
L 277.195213 218.302684 
L 277.362613 201.979252 
L 277.530012 214.793976 
L 277.697413 214.604778 
L 278.032213 197.370268 
L 278.199613 195.572809 
L 278.367013 165.742842 
L 278.701813 178.535186 
L 278.869213 176.529531 
L 279.036613 182.728929 
L 279.371413 172.700561 
L 279.538813 184.535567 
L 279.706213 182.097004 
L 279.873613 190.48175 
L 280.041013 180.536676 
L 280.208413 177.378001 
L 280.375813 189.553668 
L 280.543212 189.324669 
L 280.878013 203.143423 
L 281.045413 199.076322 
L 281.212812 202.716758 
L 281.380213 186.505591 
L 281.547613 190.869597 
L 281.715013 189.316473 
L 281.882412 171.384985 
L 282.049813 167.911162 
L 282.384613 188.653349 
L 282.552012 174.135257 
L 282.719413 175.465796 
L 282.886813 190.080762 
L 283.054213 183.082864 
L 283.221612 184.348103 
L 283.389013 204.061614 
L 283.556413 202.782342 
L 283.723813 203.269328 
L 283.891212 203.0729 
L 284.058613 202.197333 
L 284.226013 209.919831 
L 284.560812 206.505976 
L 284.728213 184.141095 
L 284.895613 208.384013 
L 285.063013 208.639342 
L 285.230412 190.245269 
L 285.397813 186.568906 
L 285.565213 215.160545 
L 285.732613 218.301844 
L 285.900013 210.033459 
L 286.067413 217.896479 
L 286.234813 231.857767 
L 286.569613 229.751307 
L 286.737013 243.556364 
L 286.904413 225.654977 
L 287.071813 231.366541 
L 287.239213 225.913751 
L 287.406613 232.936881 
L 287.741413 212.759893 
L 287.908813 225.788622 
L 288.243613 208.012802 
L 288.411013 210.059359 
L 288.578413 199.504319 
L 288.745813 203.385596 
L 288.913213 192.230444 
L 289.080613 195.898538 
L 289.248013 206.073702 
L 289.582813 201.591388 
L 289.750213 204.964026 
L 289.917613 200.840773 
L 290.252412 183.607237 
L 290.419813 184.461891 
L 290.587213 183.319327 
L 290.754613 199.297015 
L 290.922012 191.034614 
L 291.256813 200.073729 
L 291.424213 204.768628 
L 291.591612 187.705131 
L 291.759013 197.556816 
L 291.926413 196.790492 
L 292.093813 170.142749 
L 292.261212 168.054951 
L 292.596013 154.469218 
L 293.098213 171.950277 
L 293.265613 176.610098 
L 293.433013 175.127734 
L 293.600413 171.890344 
L 293.767813 172.95427 
L 293.935213 190.756839 
L 294.102613 181.603671 
L 294.270013 199.739178 
L 294.437413 201.659484 
L 294.604813 186.56338 
L 294.772213 201.330881 
L 294.939613 200.529706 
L 295.107013 186.697566 
L 295.274413 194.161717 
L 295.441813 192.390512 
L 295.609213 177.47793 
L 295.944013 182.283886 
L 296.111413 187.736855 
L 296.278813 198.060149 
L 296.446213 188.452755 
L 296.613613 185.836033 
L 296.781013 199.276504 
L 296.948413 197.690746 
L 297.115813 173.274261 
L 297.283213 166.994861 
L 297.450613 190.639512 
L 297.618013 171.362144 
L 297.785413 174.826544 
L 297.952813 191.917031 
L 298.120213 189.35213 
L 298.287613 183.296669 
L 298.622413 206.077354 
L 298.789813 203.324279 
L 298.957213 205.52892 
L 299.292013 197.275417 
L 299.459413 196.625621 
L 299.794213 176.235289 
L 299.961613 177.038384 
L 300.129013 167.764827 
L 300.296413 180.797026 
L 300.463813 181.997234 
L 300.631213 159.994127 
L 300.798613 169.744264 
L 300.966013 158.243843 
L 301.133413 154.900295 
L 301.300813 164.14934 
L 301.468213 146.561488 
L 301.635613 154.30863 
L 301.803013 146.251254 
L 301.970413 154.796649 
L 302.137813 151.729359 
L 302.305213 159.235233 
L 302.472613 160.115725 
L 302.640013 171.42659 
L 302.974813 160.866876 
L 303.142213 177.584439 
L 303.309613 155.155069 
L 303.477013 157.94628 
L 303.811813 188.195536 
L 303.979213 168.76451 
L 304.314013 191.779562 
L 304.481413 186.035106 
L 304.648813 175.359329 
L 304.983613 190.482258 
L 305.318413 161.002818 
L 305.485813 191.260946 
L 305.653213 173.508999 
L 305.820613 176.717744 
L 305.988013 182.229057 
L 306.322813 157.597056 
L 306.490213 175.316145 
L 306.992413 154.817774 
L 307.327213 158.601934 
L 307.494613 166.098915 
L 307.662013 150.712425 
L 307.829413 153.839519 
L 307.996813 153.530815 
L 308.164213 152.280958 
L 308.499013 176.25411 
L 308.666413 167.458256 
L 308.833813 183.789829 
L 309.168613 160.567569 
L 309.336013 172.995931 
L 309.503413 174.093817 
L 309.670813 158.454792 
L 310.005613 169.961391 
L 310.173013 172.903069 
L 310.340413 171.51143 
L 310.507813 180.622232 
L 310.675213 172.592524 
L 310.842613 177.262527 
L 311.010013 194.730015 
L 311.344813 170.468979 
L 311.679613 184.286608 
L 312.014413 169.577834 
L 312.181813 185.01153 
L 312.349213 182.277377 
L 312.684013 197.052035 
L 312.851413 201.711674 
L 313.186213 184.80962 
L 313.353613 183.966395 
L 313.521013 184.530208 
L 313.688413 180.651243 
L 313.855813 181.494919 
L 314.190613 194.24005 
L 314.358013 177.232043 
L 314.525413 180.142239 
L 314.860213 189.39268 
L 315.027613 183.815486 
L 315.195013 193.089579 
L 315.362413 194.078769 
L 315.529813 190.647464 
L 315.697213 200.541085 
L 315.864613 183.350489 
L 316.032013 191.470941 
L 316.199413 186.492015 
L 316.366813 186.745567 
L 316.534213 199.82591 
L 316.701613 202.087142 
L 316.869013 197.101634 
L 317.036413 195.813937 
L 317.538613 206.000711 
L 317.706013 223.666244 
L 318.040813 188.30068 
L 318.375613 196.551985 
L 318.543013 206.870487 
L 318.710413 193.243854 
L 318.877813 193.022176 
L 319.045213 189.918239 
L 319.212613 190.414264 
L 319.380013 186.875934 
L 319.547413 177.152907 
L 319.714812 179.44876 
L 319.882213 167.170118 
L 320.049613 171.565693 
L 320.217013 183.474129 
L 320.384412 168.871549 
L 320.551813 182.936283 
L 320.719213 179.627071 
L 320.886613 181.980811 
L 321.054012 199.12414 
L 321.221413 169.145586 
L 321.388813 163.026126 
L 321.556213 172.887982 
L 321.723613 167.764902 
L 321.891013 178.909672 
L 322.058413 175.372144 
L 322.225813 169.357532 
L 322.393213 170.71359 
L 322.560613 170.597451 
L 322.728013 176.897986 
L 322.895413 172.955278 
L 323.062813 155.360787 
L 323.397613 181.180542 
L 323.732413 168.073673 
L 323.899813 176.099224 
L 324.067213 193.509199 
L 324.234613 187.0647 
L 324.402013 185.08597 
L 324.569413 210.326948 
L 324.736813 197.521547 
L 324.904213 173.843649 
L 325.239013 184.734486 
L 325.406413 175.627797 
L 325.573813 183.253028 
L 325.741213 171.446012 
L 325.908613 178.547868 
L 326.076013 169.318003 
L 326.243413 173.95774 
L 326.410813 174.474228 
L 326.578213 176.329088 
L 326.745613 168.485091 
L 327.080413 192.307251 
L 327.247813 193.377844 
L 327.415213 177.590391 
L 327.750013 195.447609 
L 327.917413 183.447377 
L 328.084813 196.395332 
L 328.252213 160.931748 
L 328.587013 185.357687 
L 328.754413 167.800879 
L 328.921813 163.318984 
L 329.089213 169.728181 
L 329.256613 166.627494 
L 329.424013 172.3365 
L 329.591413 172.249444 
L 329.758813 189.421632 
L 329.926213 182.052027 
L 330.093613 192.138934 
L 330.261013 186.048082 
L 330.428413 189.400821 
L 330.595813 198.043564 
L 330.763213 182.087154 
L 330.930613 183.349257 
L 331.098013 185.476337 
L 331.265413 184.894947 
L 331.600213 165.085992 
L 331.767613 170.010441 
L 331.935013 159.463623 
L 332.269813 166.313837 
L 332.437213 159.219968 
L 332.772013 187.154256 
L 332.939413 184.692486 
L 333.441613 235.174048 
L 333.609013 221.46672 
L 333.776413 232.19212 
L 333.943813 221.905997 
L 334.111213 237.600982 
L 334.278613 231.657285 
L 334.446013 208.24679 
L 334.780813 213.986101 
L 334.948213 213.409636 
L 335.450413 190.586196 
L 335.617813 187.795911 
L 335.785213 190.309347 
L 335.952613 187.46357 
L 336.120013 197.133427 
L 336.287413 198.004636 
L 336.454813 194.63192 
L 336.622213 205.056871 
L 336.789613 179.770509 
L 337.124413 191.241209 
L 337.459213 188.793572 
L 337.626613 195.104866 
L 337.961413 167.106468 
L 338.128813 181.192082 
L 338.463613 171.074044 
L 338.631012 184.324116 
L 338.798413 186.266595 
L 338.965813 190.371944 
L 339.133213 204.05873 
L 339.300612 180.3575 
L 339.468013 172.942518 
L 339.802813 194.545476 
L 340.137613 175.969474 
L 340.305013 183.803315 
L 340.472413 197.509495 
L 340.639813 174.322788 
L 340.974613 208.116559 
L 341.142013 191.416465 
L 341.309413 188.567667 
L 341.476813 217.993293 
L 341.644213 195.885201 
L 341.979013 213.545302 
L 342.146413 213.178671 
L 342.313813 215.783116 
L 342.481213 198.892556 
L 342.648613 194.586174 
L 342.816013 207.862851 
L 342.983413 194.925303 
L 343.318213 210.182304 
L 343.485613 184.907474 
L 343.820413 209.404769 
L 344.155213 199.614841 
L 344.322613 204.40034 
L 344.490013 187.185403 
L 344.657413 198.244911 
L 344.824813 179.94585 
L 344.992213 174.594739 
L 345.661813 183.95858 
L 345.996613 213.86577 
L 346.331413 204.465713 
L 346.498813 214.799054 
L 346.666213 215.036205 
L 346.833613 194.569425 
L 347.001013 199.981832 
L 347.168413 192.537026 
L 347.335813 178.981022 
L 347.503213 180.732894 
L 347.670613 180.818584 
L 347.838013 162.159835 
L 348.005413 164.538005 
L 348.172813 182.377918 
L 348.507613 164.385582 
L 348.675013 140.278434 
L 348.842413 144.217323 
L 349.009813 169.077184 
L 349.177213 155.887768 
L 349.344613 153.611731 
L 349.679413 189.847048 
L 349.846813 177.463592 
L 350.014213 156.122525 
L 350.181613 178.7904 
L 350.516413 149.954198 
L 350.683813 175.180422 
L 350.851213 170.367094 
L 351.018613 159.045587 
L 351.186013 173.924878 
L 351.353413 165.815638 
L 351.520813 174.028106 
L 351.688213 160.887463 
L 352.023013 171.556378 
L 352.190413 160.611392 
L 352.357813 160.508076 
L 352.525213 175.271613 
L 352.692613 157.57874 
L 352.860013 161.533426 
L 353.027413 180.884079 
L 353.194813 174.472522 
L 353.362213 172.499865 
L 353.529613 178.940314 
L 353.697013 175.403509 
L 353.864413 181.480818 
L 354.031813 181.203331 
L 354.199213 189.271013 
L 354.366613 182.272987 
L 354.534013 189.078709 
L 354.868813 189.863682 
L 355.036213 183.075984 
L 355.203613 190.584587 
L 355.371013 188.445192 
L 355.538413 181.76621 
L 355.705813 168.390166 
L 356.040613 194.482477 
L 356.208013 184.203251 
L 356.375413 191.493429 
L 356.542813 191.36287 
L 356.877613 175.920714 
L 357.045013 183.113052 
L 357.212413 166.321891 
L 357.379813 173.518617 
L 357.714613 159.148923 
L 358.384213 194.709234 
L 358.719013 173.266241 
L 358.886413 187.488122 
L 359.221213 173.263494 
L 359.388613 174.110882 
L 359.556013 175.687683 
L 359.723413 174.046243 
L 360.225613 198.98765 
L 360.393013 200.913737 
L 360.560413 207.01242 
L 360.727813 189.666578 
L 360.895213 195.87023 
L 361.062613 214.229406 
L 361.230013 187.121002 
L 361.397413 187.35658 
L 361.564813 203.384976 
L 361.732213 189.025797 
L 361.899613 191.57617 
L 362.067013 190.902662 
L 362.234413 195.13564 
L 362.401813 168.509352 
L 362.569213 178.264081 
L 362.736613 178.075696 
L 362.904013 161.901925 
L 363.071413 170.497546 
L 363.238813 185.01019 
L 363.573613 167.240882 
L 363.741013 175.097927 
L 363.908412 200.333098 
L 364.243213 170.133315 
L 364.410613 186.458499 
L 364.578012 179.786378 
L 364.745413 159.415745 
L 364.912813 170.154173 
L 365.247613 140.822904 
L 365.415013 149.723224 
L 365.582413 175.70445 
L 365.749813 163.510906 
L 366.252013 178.899735 
L 366.419413 181.665997 
L 366.586813 169.459313 
L 366.754213 173.616439 
L 366.921613 183.864251 
L 367.423813 169.460445 
L 367.591213 160.436906 
L 367.758613 188.97118 
L 367.926013 185.21239 
L 368.093413 193.960445 
L 368.428213 178.081843 
L 368.595613 180.183657 
L 368.763013 176.183268 
L 369.097813 197.761834 
L 369.265213 196.821499 
L 369.432613 195.081704 
L 369.600013 212.196199 
L 369.767413 202.017991 
L 369.934813 204.601416 
L 370.269613 202.547699 
L 370.437013 218.045484 
L 370.771813 188.880509 
L 370.939213 191.44056 
L 371.106613 190.156821 
L 371.274013 182.638041 
L 371.441413 186.703317 
L 371.608813 184.902141 
L 371.776213 181.044534 
L 371.943613 190.005597 
L 372.111013 192.199177 
L 372.278413 191.871193 
L 372.445813 195.85578 
L 372.613213 182.802002 
L 372.948013 214.501658 
L 373.115413 202.092746 
L 373.282813 202.015259 
L 373.282813 202.015259 
" clip-path="url(#p2d0e7e4588)" style="fill: none; stroke: #1f77b4; stroke-width: 1.5; stroke-linecap: square"/>
   </g>
   <g id="line2d_18">
    <path d="M 38.650213 71.91081 
L 39.319813 83.465785 
L 39.989413 91.211316 
L 40.659013 96.403301 
L 41.328612 99.883593 
L 41.998213 102.216502 
L 42.667813 103.780298 
L 43.337412 104.828541 
L 44.007013 105.5312 
L 44.844013 106.093341 
L 45.848413 106.484312 
L 47.187613 106.746192 
L 49.363813 106.901641 
L 54.385813 106.956978 
L 123.522013 106.959877 
L 373.282813 106.959877 
L 373.282813 106.959877 
" clip-path="url(#p2d0e7e4588)" style="fill: none; stroke: #ff7f0e; stroke-width: 1.5; stroke-linecap: square"/>
   </g>
   <g id="patch_3">
    <path d="M 38.482813 253.44 
L 38.482813 36 
" style="fill: none; stroke: #000000; stroke-width: 0.8; stroke-linejoin: miter; stroke-linecap: square"/>
   </g>
   <g id="patch_4">
    <path d="M 373.282813 253.44 
L 373.282813 36 
" style="fill: none; stroke: #000000; stroke-width: 0.8; stroke-linejoin: miter; stroke-linecap: square"/>
   </g>
   <g id="patch_5">
    <path d="M 38.482813 253.44 
L 373.282813 253.44 
" style="fill: none; stroke: #000000; stroke-width: 0.8; stroke-linejoin: miter; stroke-linecap: square"/>
   </g>
   <g id="patch_6">
    <path d="M 38.482813 36 
L 373.282813 36 
" style="fill: none; stroke: #000000; stroke-width: 0.8; stroke-linejoin: miter; stroke-linecap: square"/>
   </g>
   <g id="legend_1">
    <g id="patch_7">
     <path d="M 316.582813 77.078125 
L 366.282813 77.078125 
Q 368.282813 77.078125 368.282813 75.078125 
L 368.282813 43 
Q 368.282813 41 366.282813 41 
L 316.582813 41 
Q 314.582813 41 314.582813 43 
L 314.582813 75.078125 
Q 314.582813 77.078125 316.582813 77.078125 
z
" style="fill: #ffffff; opacity: 0.8; stroke: #cccccc; stroke-linejoin: miter"/>
    </g>
    <g id="line2d_19">
     <path d="M 318.582813 52.8 
L 328.582813 52.8 
L 338.582813 52.8 
" style="fill: none; stroke: #1f77b4; stroke-width: 1.5; stroke-linecap: square"/>
    </g>
    <g id="text_17">
     <!-- $\hat{y(t)}$ -->
     <g transform="translate(346.582813 56.3) scale(0.1 -0.1)">
      <defs>
       <path id="DejaVuSans-302" d="M -1831 5119 
L -1369 5119 
L -603 3944 
L -1038 3944 
L -1600 4709 
L -2163 3944 
L -2597 3944 
L -1831 5119 
z
M -1600 3584 
L -1600 3584 
z
" transform="scale(0.015625)"/>
       <path id="DejaVuSans-Oblique-79" d="M 1588 -325 
Q 1188 -997 936 -1164 
Q 684 -1331 294 -1331 
L -159 -1331 
L -63 -850 
L 269 -850 
Q 509 -850 678 -719 
Q 847 -588 1056 -206 
L 1234 128 
L 459 3500 
L 1069 3500 
L 1650 819 
L 3256 3500 
L 3859 3500 
L 1588 -325 
z
" transform="scale(0.015625)"/>
       <path id="DejaVuSans-28" d="M 1984 4856 
Q 1566 4138 1362 3434 
Q 1159 2731 1159 2009 
Q 1159 1288 1364 580 
Q 1569 -128 1984 -844 
L 1484 -844 
Q 1016 -109 783 600 
Q 550 1309 550 2009 
Q 550 2706 781 3412 
Q 1013 4119 1484 4856 
L 1984 4856 
z
" transform="scale(0.015625)"/>
       <path id="DejaVuSans-Oblique-74" d="M 2706 3500 
L 2619 3053 
L 1472 3053 
L 1100 1153 
Q 1081 1047 1072 975 
Q 1063 903 1063 863 
Q 1063 663 1183 572 
Q 1303 481 1569 481 
L 2150 481 
L 2053 0 
L 1503 0 
Q 991 0 739 200 
Q 488 400 488 806 
Q 488 878 497 964 
Q 506 1050 525 1153 
L 897 3053 
L 409 3053 
L 500 3500 
L 978 3500 
L 1172 4494 
L 1747 4494 
L 1556 3500 
L 2706 3500 
z
" transform="scale(0.015625)"/>
       <path id="DejaVuSans-29" d="M 513 4856 
L 1013 4856 
Q 1481 4119 1714 3412 
Q 1947 2706 1947 2009 
Q 1947 1309 1714 600 
Q 1481 -109 1013 -844 
L 513 -844 
Q 928 -128 1133 580 
Q 1338 1288 1338 2009 
Q 1338 2731 1133 3434 
Q 928 4138 513 4856 
z
" transform="scale(0.015625)"/>
      </defs>
      <use xlink:href="#DejaVuSans-302" transform="translate(135.682129 33.015625)"/>
      <use xlink:href="#DejaVuSans-Oblique-79" transform="translate(0 0.640625)"/>
      <use xlink:href="#DejaVuSans-28" transform="translate(59.179688 0.640625)"/>
      <use xlink:href="#DejaVuSans-Oblique-74" transform="translate(98.193359 0.640625)"/>
      <use xlink:href="#DejaVuSans-29" transform="translate(137.402344 0.640625)"/>
     </g>
    </g>
    <g id="line2d_20">
     <path d="M 318.582813 67.498437 
L 328.582813 67.498437 
L 338.582813 67.498437 
" style="fill: none; stroke: #ff7f0e; stroke-width: 1.5; stroke-linecap: square"/>
    </g>
    <g id="text_18">
     <!-- $x(t)$ -->
     <g transform="translate(346.582813 70.998437) scale(0.1 -0.1)">
      <defs>
       <path id="DejaVuSans-Oblique-78" d="M 3841 3500 
L 2234 1784 
L 3219 0 
L 2559 0 
L 1819 1388 
L 531 0 
L -166 0 
L 1556 1844 
L 641 3500 
L 1300 3500 
L 1972 2234 
L 3144 3500 
L 3841 3500 
z
" transform="scale(0.015625)"/>
      </defs>
      <use xlink:href="#DejaVuSans-Oblique-78" transform="translate(0 0.125)"/>
      <use xlink:href="#DejaVuSans-28" transform="translate(59.179688 0.125)"/>
      <use xlink:href="#DejaVuSans-Oblique-74" transform="translate(98.193359 0.125)"/>
      <use xlink:href="#DejaVuSans-29" transform="translate(137.402344 0.125)"/>
     </g>
    </g>
   </g>
  </g>
  <g id="text_19">
   <!-- Accumulate to Threshold model with input of -0.1 with rms=10  -->
   <g transform="translate(9.332188 16.318125) scale(0.12 -0.12)">
    <defs>
     <path id="DejaVuSans-41" d="M 2188 4044 
L 1331 1722 
L 3047 1722 
L 2188 4044 
z
M 1831 4666 
L 2547 4666 
L 4325 0 
L 3669 0 
L 3244 1197 
L 1141 1197 
L 716 0 
L 50 0 
L 1831 4666 
z
" transform="scale(0.015625)"/>
     <path id="DejaVuSans-63" d="M 3122 3366 
L 3122 2828 
Q 2878 2963 2633 3030 
Q 2388 3097 2138 3097 
Q 1578 3097 1268 2742 
Q 959 2388 959 1747 
Q 959 1106 1268 751 
Q 1578 397 2138 397 
Q 2388 397 2633 464 
Q 2878 531 3122 666 
L 3122 134 
Q 2881 22 2623 -34 
Q 2366 -91 2075 -91 
Q 1284 -91 818 406 
Q 353 903 353 1747 
Q 353 2603 823 3093 
Q 1294 3584 2113 3584 
Q 2378 3584 2631 3529 
Q 2884 3475 3122 3366 
z
" transform="scale(0.015625)"/>
     <path id="DejaVuSans-75" d="M 544 1381 
L 544 3500 
L 1119 3500 
L 1119 1403 
Q 1119 906 1312 657 
Q 1506 409 1894 409 
Q 2359 409 2629 706 
Q 2900 1003 2900 1516 
L 2900 3500 
L 3475 3500 
L 3475 0 
L 2900 0 
L 2900 538 
Q 2691 219 2414 64 
Q 2138 -91 1772 -91 
Q 1169 -91 856 284 
Q 544 659 544 1381 
z
M 1991 3584 
L 1991 3584 
z
" transform="scale(0.015625)"/>
     <path id="DejaVuSans-6d" d="M 3328 2828 
Q 3544 3216 3844 3400 
Q 4144 3584 4550 3584 
Q 5097 3584 5394 3201 
Q 5691 2819 5691 2113 
L 5691 0 
L 5113 0 
L 5113 2094 
Q 5113 2597 4934 2840 
Q 4756 3084 4391 3084 
Q 3944 3084 3684 2787 
Q 3425 2491 3425 1978 
L 3425 0 
L 2847 0 
L 2847 2094 
Q 2847 2600 2669 2842 
Q 2491 3084 2119 3084 
Q 1678 3084 1418 2786 
Q 1159 2488 1159 1978 
L 1159 0 
L 581 0 
L 581 3500 
L 1159 3500 
L 1159 2956 
Q 1356 3278 1631 3431 
Q 1906 3584 2284 3584 
Q 2666 3584 2933 3390 
Q 3200 3197 3328 2828 
z
" transform="scale(0.015625)"/>
     <path id="DejaVuSans-6c" d="M 603 4863 
L 1178 4863 
L 1178 0 
L 603 0 
L 603 4863 
z
" transform="scale(0.015625)"/>
     <path id="DejaVuSans-61" d="M 2194 1759 
Q 1497 1759 1228 1600 
Q 959 1441 959 1056 
Q 959 750 1161 570 
Q 1363 391 1709 391 
Q 2188 391 2477 730 
Q 2766 1069 2766 1631 
L 2766 1759 
L 2194 1759 
z
M 3341 1997 
L 3341 0 
L 2766 0 
L 2766 531 
Q 2569 213 2275 61 
Q 1981 -91 1556 -91 
Q 1019 -91 701 211 
Q 384 513 384 1019 
Q 384 1609 779 1909 
Q 1175 2209 1959 2209 
L 2766 2209 
L 2766 2266 
Q 2766 2663 2505 2880 
Q 2244 3097 1772 3097 
Q 1472 3097 1187 3025 
Q 903 2953 641 2809 
L 641 3341 
Q 956 3463 1253 3523 
Q 1550 3584 1831 3584 
Q 2591 3584 2966 3190 
Q 3341 2797 3341 1997 
z
" transform="scale(0.015625)"/>
     <path id="DejaVuSans-74" d="M 1172 4494 
L 1172 3500 
L 2356 3500 
L 2356 3053 
L 1172 3053 
L 1172 1153 
Q 1172 725 1289 603 
Q 1406 481 1766 481 
L 2356 481 
L 2356 0 
L 1766 0 
Q 1100 0 847 248 
Q 594 497 594 1153 
L 594 3053 
L 172 3053 
L 172 3500 
L 594 3500 
L 594 4494 
L 1172 4494 
z
" transform="scale(0.015625)"/>
     <path id="DejaVuSans-65" d="M 3597 1894 
L 3597 1613 
L 953 1613 
Q 991 1019 1311 708 
Q 1631 397 2203 397 
Q 2534 397 2845 478 
Q 3156 559 3463 722 
L 3463 178 
Q 3153 47 2828 -22 
Q 2503 -91 2169 -91 
Q 1331 -91 842 396 
Q 353 884 353 1716 
Q 353 2575 817 3079 
Q 1281 3584 2069 3584 
Q 2775 3584 3186 3129 
Q 3597 2675 3597 1894 
z
M 3022 2063 
Q 3016 2534 2758 2815 
Q 2500 3097 2075 3097 
Q 1594 3097 1305 2825 
Q 1016 2553 972 2059 
L 3022 2063 
z
" transform="scale(0.015625)"/>
     <path id="DejaVuSans-20" transform="scale(0.015625)"/>
     <path id="DejaVuSans-6f" d="M 1959 3097 
Q 1497 3097 1228 2736 
Q 959 2375 959 1747 
Q 959 1119 1226 758 
Q 1494 397 1959 397 
Q 2419 397 2687 759 
Q 2956 1122 2956 1747 
Q 2956 2369 2687 2733 
Q 2419 3097 1959 3097 
z
M 1959 3584 
Q 2709 3584 3137 3096 
Q 3566 2609 3566 1747 
Q 3566 888 3137 398 
Q 2709 -91 1959 -91 
Q 1206 -91 779 398 
Q 353 888 353 1747 
Q 353 2609 779 3096 
Q 1206 3584 1959 3584 
z
" transform="scale(0.015625)"/>
     <path id="DejaVuSans-54" d="M -19 4666 
L 3928 4666 
L 3928 4134 
L 2272 4134 
L 2272 0 
L 1638 0 
L 1638 4134 
L -19 4134 
L -19 4666 
z
" transform="scale(0.015625)"/>
     <path id="DejaVuSans-68" d="M 3513 2113 
L 3513 0 
L 2938 0 
L 2938 2094 
Q 2938 2591 2744 2837 
Q 2550 3084 2163 3084 
Q 1697 3084 1428 2787 
Q 1159 2491 1159 1978 
L 1159 0 
L 581 0 
L 581 4863 
L 1159 4863 
L 1159 2956 
Q 1366 3272 1645 3428 
Q 1925 3584 2291 3584 
Q 2894 3584 3203 3211 
Q 3513 2838 3513 2113 
z
" transform="scale(0.015625)"/>
     <path id="DejaVuSans-72" d="M 2631 2963 
Q 2534 3019 2420 3045 
Q 2306 3072 2169 3072 
Q 1681 3072 1420 2755 
Q 1159 2438 1159 1844 
L 1159 0 
L 581 0 
L 581 3500 
L 1159 3500 
L 1159 2956 
Q 1341 3275 1631 3429 
Q 1922 3584 2338 3584 
Q 2397 3584 2469 3576 
Q 2541 3569 2628 3553 
L 2631 2963 
z
" transform="scale(0.015625)"/>
     <path id="DejaVuSans-73" d="M 2834 3397 
L 2834 2853 
Q 2591 2978 2328 3040 
Q 2066 3103 1784 3103 
Q 1356 3103 1142 2972 
Q 928 2841 928 2578 
Q 928 2378 1081 2264 
Q 1234 2150 1697 2047 
L 1894 2003 
Q 2506 1872 2764 1633 
Q 3022 1394 3022 966 
Q 3022 478 2636 193 
Q 2250 -91 1575 -91 
Q 1294 -91 989 -36 
Q 684 19 347 128 
L 347 722 
Q 666 556 975 473 
Q 1284 391 1588 391 
Q 1994 391 2212 530 
Q 2431 669 2431 922 
Q 2431 1156 2273 1281 
Q 2116 1406 1581 1522 
L 1381 1569 
Q 847 1681 609 1914 
Q 372 2147 372 2553 
Q 372 3047 722 3315 
Q 1072 3584 1716 3584 
Q 2034 3584 2315 3537 
Q 2597 3491 2834 3397 
z
" transform="scale(0.015625)"/>
     <path id="DejaVuSans-64" d="M 2906 2969 
L 2906 4863 
L 3481 4863 
L 3481 0 
L 2906 0 
L 2906 525 
Q 2725 213 2448 61 
Q 2172 -91 1784 -91 
Q 1150 -91 751 415 
Q 353 922 353 1747 
Q 353 2572 751 3078 
Q 1150 3584 1784 3584 
Q 2172 3584 2448 3432 
Q 2725 3281 2906 2969 
z
M 947 1747 
Q 947 1113 1208 752 
Q 1469 391 1925 391 
Q 2381 391 2643 752 
Q 2906 1113 2906 1747 
Q 2906 2381 2643 2742 
Q 2381 3103 1925 3103 
Q 1469 3103 1208 2742 
Q 947 2381 947 1747 
z
" transform="scale(0.015625)"/>
     <path id="DejaVuSans-77" d="M 269 3500 
L 844 3500 
L 1563 769 
L 2278 3500 
L 2956 3500 
L 3675 769 
L 4391 3500 
L 4966 3500 
L 4050 0 
L 3372 0 
L 2619 2869 
L 1863 0 
L 1184 0 
L 269 3500 
z
" transform="scale(0.015625)"/>
     <path id="DejaVuSans-69" d="M 603 3500 
L 1178 3500 
L 1178 0 
L 603 0 
L 603 3500 
z
M 603 4863 
L 1178 4863 
L 1178 4134 
L 603 4134 
L 603 4863 
z
" transform="scale(0.015625)"/>
     <path id="DejaVuSans-6e" d="M 3513 2113 
L 3513 0 
L 2938 0 
L 2938 2094 
Q 2938 2591 2744 2837 
Q 2550 3084 2163 3084 
Q 1697 3084 1428 2787 
Q 1159 2491 1159 1978 
L 1159 0 
L 581 0 
L 581 3500 
L 1159 3500 
L 1159 2956 
Q 1366 3272 1645 3428 
Q 1925 3584 2291 3584 
Q 2894 3584 3203 3211 
Q 3513 2838 3513 2113 
z
" transform="scale(0.015625)"/>
     <path id="DejaVuSans-70" d="M 1159 525 
L 1159 -1331 
L 581 -1331 
L 581 3500 
L 1159 3500 
L 1159 2969 
Q 1341 3281 1617 3432 
Q 1894 3584 2278 3584 
Q 2916 3584 3314 3078 
Q 3713 2572 3713 1747 
Q 3713 922 3314 415 
Q 2916 -91 2278 -91 
Q 1894 -91 1617 61 
Q 1341 213 1159 525 
z
M 3116 1747 
Q 3116 2381 2855 2742 
Q 2594 3103 2138 3103 
Q 1681 3103 1420 2742 
Q 1159 2381 1159 1747 
Q 1159 1113 1420 752 
Q 1681 391 2138 391 
Q 2594 391 2855 752 
Q 3116 1113 3116 1747 
z
" transform="scale(0.015625)"/>
     <path id="DejaVuSans-66" d="M 2375 4863 
L 2375 4384 
L 1825 4384 
Q 1516 4384 1395 4259 
Q 1275 4134 1275 3809 
L 1275 3500 
L 2222 3500 
L 2222 3053 
L 1275 3053 
L 1275 0 
L 697 0 
L 697 3053 
L 147 3053 
L 147 3500 
L 697 3500 
L 697 3744 
Q 697 4328 969 4595 
Q 1241 4863 1831 4863 
L 2375 4863 
z
" transform="scale(0.015625)"/>
     <path id="DejaVuSans-2d" d="M 313 2009 
L 1997 2009 
L 1997 1497 
L 313 1497 
L 313 2009 
z
" transform="scale(0.015625)"/>
     <path id="DejaVuSans-3d" d="M 678 2906 
L 4684 2906 
L 4684 2381 
L 678 2381 
L 678 2906 
z
M 678 1631 
L 4684 1631 
L 4684 1100 
L 678 1100 
L 678 1631 
z
" transform="scale(0.015625)"/>
    </defs>
    <use xlink:href="#DejaVuSans-41"/>
    <use xlink:href="#DejaVuSans-63" x="66.658203"/>
    <use xlink:href="#DejaVuSans-63" x="121.638672"/>
    <use xlink:href="#DejaVuSans-75" x="176.619141"/>
    <use xlink:href="#DejaVuSans-6d" x="239.998047"/>
    <use xlink:href="#DejaVuSans-75" x="337.410156"/>
    <use xlink:href="#DejaVuSans-6c" x="400.789062"/>
    <use xlink:href="#DejaVuSans-61" x="428.572266"/>
    <use xlink:href="#DejaVuSans-74" x="489.851562"/>
    <use xlink:href="#DejaVuSans-65" x="529.060547"/>
    <use xlink:href="#DejaVuSans-20" x="590.583984"/>
    <use xlink:href="#DejaVuSans-74" x="622.371094"/>
    <use xlink:href="#DejaVuSans-6f" x="661.580078"/>
    <use xlink:href="#DejaVuSans-20" x="722.761719"/>
    <use xlink:href="#DejaVuSans-54" x="754.548828"/>
    <use xlink:href="#DejaVuSans-68" x="815.632812"/>
    <use xlink:href="#DejaVuSans-72" x="879.011719"/>
    <use xlink:href="#DejaVuSans-65" x="917.875"/>
    <use xlink:href="#DejaVuSans-73" x="979.398438"/>
    <use xlink:href="#DejaVuSans-68" x="1031.498047"/>
    <use xlink:href="#DejaVuSans-6f" x="1094.876953"/>
    <use xlink:href="#DejaVuSans-6c" x="1156.058594"/>
    <use xlink:href="#DejaVuSans-64" x="1183.841797"/>
    <use xlink:href="#DejaVuSans-20" x="1247.318359"/>
    <use xlink:href="#DejaVuSans-6d" x="1279.105469"/>
    <use xlink:href="#DejaVuSans-6f" x="1376.517578"/>
    <use xlink:href="#DejaVuSans-64" x="1437.699219"/>
    <use xlink:href="#DejaVuSans-65" x="1501.175781"/>
    <use xlink:href="#DejaVuSans-6c" x="1562.699219"/>
    <use xlink:href="#DejaVuSans-20" x="1590.482422"/>
    <use xlink:href="#DejaVuSans-77" x="1622.269531"/>
    <use xlink:href="#DejaVuSans-69" x="1704.056641"/>
    <use xlink:href="#DejaVuSans-74" x="1731.839844"/>
    <use xlink:href="#DejaVuSans-68" x="1771.048828"/>
    <use xlink:href="#DejaVuSans-20" x="1834.427734"/>
    <use xlink:href="#DejaVuSans-69" x="1866.214844"/>
    <use xlink:href="#DejaVuSans-6e" x="1893.998047"/>
    <use xlink:href="#DejaVuSans-70" x="1957.376953"/>
    <use xlink:href="#DejaVuSans-75" x="2020.853516"/>
    <use xlink:href="#DejaVuSans-74" x="2084.232422"/>
    <use xlink:href="#DejaVuSans-20" x="2123.441406"/>
    <use xlink:href="#DejaVuSans-6f" x="2155.228516"/>
    <use xlink:href="#DejaVuSans-66" x="2216.410156"/>
    <use xlink:href="#DejaVuSans-20" x="2251.615234"/>
    <use xlink:href="#DejaVuSans-2d" x="2283.402344"/>
    <use xlink:href="#DejaVuSans-30" x="2319.486328"/>
    <use xlink:href="#DejaVuSans-2e" x="2383.109375"/>
    <use xlink:href="#DejaVuSans-31" x="2414.896484"/>
    <use xlink:href="#DejaVuSans-20" x="2478.519531"/>
    <use xlink:href="#DejaVuSans-77" x="2510.306641"/>
    <use xlink:href="#DejaVuSans-69" x="2592.09375"/>
    <use xlink:href="#DejaVuSans-74" x="2619.876953"/>
    <use xlink:href="#DejaVuSans-68" x="2659.085938"/>
    <use xlink:href="#DejaVuSans-20" x="2722.464844"/>
    <use xlink:href="#DejaVuSans-72" x="2754.251953"/>
    <use xlink:href="#DejaVuSans-6d" x="2793.615234"/>
    <use xlink:href="#DejaVuSans-73" x="2891.027344"/>
    <use xlink:href="#DejaVuSans-3d" x="2943.126953"/>
    <use xlink:href="#DejaVuSans-31" x="3026.916016"/>
    <use xlink:href="#DejaVuSans-30" x="3090.539062"/>
    <use xlink:href="#DejaVuSans-20" x="3154.162109"/>
   </g>
  </g>
 </g>
 <defs>
  <clipPath id="p2d0e7e4588">
   <rect x="38.482813" y="36" width="334.8" height="217.44"/>
  </clipPath>
 </defs>
</svg>
