<?xml version="1.0" encoding="utf-8" standalone="no"?>
<!DOCTYPE svg PUBLIC "-//W3C//DTD SVG 1.1//EN"
  "http://www.w3.org/Graphics/SVG/1.1/DTD/svg11.dtd">
<svg xmlns:xlink="http://www.w3.org/1999/xlink" width="384.736875pt" height="277.318125pt" viewBox="0 0 384.736875 277.318125" xmlns="http://www.w3.org/2000/svg" version="1.1">
 <metadata>
  <rdf:RDF xmlns:dc="http://purl.org/dc/elements/1.1/" xmlns:cc="http://creativecommons.org/ns#" xmlns:rdf="http://www.w3.org/1999/02/22-rdf-syntax-ns#">
   <cc:Work>
    <dc:type rdf:resource="http://purl.org/dc/dcmitype/StillImage"/>
    <dc:date>2022-11-17T11:46:42.565668</dc:date>
    <dc:format>image/svg+xml</dc:format>
    <dc:creator>
     <cc:Agent>
      <dc:title>Matplotlib v3.6.0, https://matplotlib.org/</dc:title>
     </cc:Agent>
    </dc:creator>
   </cc:Work>
  </rdf:RDF>
 </metadata>
 <defs>
  <style type="text/css">*{stroke-linejoin: round; stroke-linecap: butt}</style>
 </defs>
 <g id="figure_1">
  <g id="patch_1">
   <path d="M 0 277.318125 
L 384.736875 277.318125 
L 384.736875 0 
L 0 0 
L 0 277.318125 
z
" style="fill: none"/>
  </g>
  <g id="axes_1">
   <g id="patch_2">
    <path d="M 30.368437 253.44 
L 365.168437 253.44 
L 365.168437 36 
L 30.368437 36 
z
" style="fill: #ffffff"/>
   </g>
   <g id="matplotlib.axis_1">
    <g id="xtick_1">
     <g id="line2d_1">
      <defs>
       <path id="mfd7e2dff1a" d="M 0 0 
L 0 3.5 
" style="stroke: #000000; stroke-width: 0.8"/>
      </defs>
      <g>
       <use xlink:href="#mfd7e2dff1a" x="30.368437" y="253.44" style="stroke: #000000; stroke-width: 0.8"/>
      </g>
     </g>
     <g id="text_1">
      <!-- 0.00 -->
      <g transform="translate(19.235625 268.038437) scale(0.1 -0.1)">
       <defs>
        <path id="DejaVuSans-30" d="M 2034 4250 
Q 1547 4250 1301 3770 
Q 1056 3291 1056 2328 
Q 1056 1369 1301 889 
Q 1547 409 2034 409 
Q 2525 409 2770 889 
Q 3016 1369 3016 2328 
Q 3016 3291 2770 3770 
Q 2525 4250 2034 4250 
z
M 2034 4750 
Q 2819 4750 3233 4129 
Q 3647 3509 3647 2328 
Q 3647 1150 3233 529 
Q 2819 -91 2034 -91 
Q 1250 -91 836 529 
Q 422 1150 422 2328 
Q 422 3509 836 4129 
Q 1250 4750 2034 4750 
z
" transform="scale(0.015625)"/>
        <path id="DejaVuSans-2e" d="M 684 794 
L 1344 794 
L 1344 0 
L 684 0 
L 684 794 
z
" transform="scale(0.015625)"/>
       </defs>
       <use xlink:href="#DejaVuSans-30"/>
       <use xlink:href="#DejaVuSans-2e" x="63.623047"/>
       <use xlink:href="#DejaVuSans-30" x="95.410156"/>
       <use xlink:href="#DejaVuSans-30" x="159.033203"/>
      </g>
     </g>
    </g>
    <g id="xtick_2">
     <g id="line2d_2">
      <g>
       <use xlink:href="#mfd7e2dff1a" x="72.218437" y="253.44" style="stroke: #000000; stroke-width: 0.8"/>
      </g>
     </g>
     <g id="text_2">
      <!-- 0.25 -->
      <g transform="translate(61.085625 268.038437) scale(0.1 -0.1)">
       <defs>
        <path id="DejaVuSans-32" d="M 1228 531 
L 3431 531 
L 3431 0 
L 469 0 
L 469 531 
Q 828 903 1448 1529 
Q 2069 2156 2228 2338 
Q 2531 2678 2651 2914 
Q 2772 3150 2772 3378 
Q 2772 3750 2511 3984 
Q 2250 4219 1831 4219 
Q 1534 4219 1204 4116 
Q 875 4013 500 3803 
L 500 4441 
Q 881 4594 1212 4672 
Q 1544 4750 1819 4750 
Q 2544 4750 2975 4387 
Q 3406 4025 3406 3419 
Q 3406 3131 3298 2873 
Q 3191 2616 2906 2266 
Q 2828 2175 2409 1742 
Q 1991 1309 1228 531 
z
" transform="scale(0.015625)"/>
        <path id="DejaVuSans-35" d="M 691 4666 
L 3169 4666 
L 3169 4134 
L 1269 4134 
L 1269 2991 
Q 1406 3038 1543 3061 
Q 1681 3084 1819 3084 
Q 2600 3084 3056 2656 
Q 3513 2228 3513 1497 
Q 3513 744 3044 326 
Q 2575 -91 1722 -91 
Q 1428 -91 1123 -41 
Q 819 9 494 109 
L 494 744 
Q 775 591 1075 516 
Q 1375 441 1709 441 
Q 2250 441 2565 725 
Q 2881 1009 2881 1497 
Q 2881 1984 2565 2268 
Q 2250 2553 1709 2553 
Q 1456 2553 1204 2497 
Q 953 2441 691 2322 
L 691 4666 
z
" transform="scale(0.015625)"/>
       </defs>
       <use xlink:href="#DejaVuSans-30"/>
       <use xlink:href="#DejaVuSans-2e" x="63.623047"/>
       <use xlink:href="#DejaVuSans-32" x="95.410156"/>
       <use xlink:href="#DejaVuSans-35" x="159.033203"/>
      </g>
     </g>
    </g>
    <g id="xtick_3">
     <g id="line2d_3">
      <g>
       <use xlink:href="#mfd7e2dff1a" x="114.068437" y="253.44" style="stroke: #000000; stroke-width: 0.8"/>
      </g>
     </g>
     <g id="text_3">
      <!-- 0.50 -->
      <g transform="translate(102.935625 268.038437) scale(0.1 -0.1)">
       <use xlink:href="#DejaVuSans-30"/>
       <use xlink:href="#DejaVuSans-2e" x="63.623047"/>
       <use xlink:href="#DejaVuSans-35" x="95.410156"/>
       <use xlink:href="#DejaVuSans-30" x="159.033203"/>
      </g>
     </g>
    </g>
    <g id="xtick_4">
     <g id="line2d_4">
      <g>
       <use xlink:href="#mfd7e2dff1a" x="155.918437" y="253.44" style="stroke: #000000; stroke-width: 0.8"/>
      </g>
     </g>
     <g id="text_4">
      <!-- 0.75 -->
      <g transform="translate(144.785625 268.038437) scale(0.1 -0.1)">
       <defs>
        <path id="DejaVuSans-37" d="M 525 4666 
L 3525 4666 
L 3525 4397 
L 1831 0 
L 1172 0 
L 2766 4134 
L 525 4134 
L 525 4666 
z
" transform="scale(0.015625)"/>
       </defs>
       <use xlink:href="#DejaVuSans-30"/>
       <use xlink:href="#DejaVuSans-2e" x="63.623047"/>
       <use xlink:href="#DejaVuSans-37" x="95.410156"/>
       <use xlink:href="#DejaVuSans-35" x="159.033203"/>
      </g>
     </g>
    </g>
    <g id="xtick_5">
     <g id="line2d_5">
      <g>
       <use xlink:href="#mfd7e2dff1a" x="197.768437" y="253.44" style="stroke: #000000; stroke-width: 0.8"/>
      </g>
     </g>
     <g id="text_5">
      <!-- 1.00 -->
      <g transform="translate(186.635625 268.038437) scale(0.1 -0.1)">
       <defs>
        <path id="DejaVuSans-31" d="M 794 531 
L 1825 531 
L 1825 4091 
L 703 3866 
L 703 4441 
L 1819 4666 
L 2450 4666 
L 2450 531 
L 3481 531 
L 3481 0 
L 794 0 
L 794 531 
z
" transform="scale(0.015625)"/>
       </defs>
       <use xlink:href="#DejaVuSans-31"/>
       <use xlink:href="#DejaVuSans-2e" x="63.623047"/>
       <use xlink:href="#DejaVuSans-30" x="95.410156"/>
       <use xlink:href="#DejaVuSans-30" x="159.033203"/>
      </g>
     </g>
    </g>
    <g id="xtick_6">
     <g id="line2d_6">
      <g>
       <use xlink:href="#mfd7e2dff1a" x="239.618437" y="253.44" style="stroke: #000000; stroke-width: 0.8"/>
      </g>
     </g>
     <g id="text_6">
      <!-- 1.25 -->
      <g transform="translate(228.485625 268.038437) scale(0.1 -0.1)">
       <use xlink:href="#DejaVuSans-31"/>
       <use xlink:href="#DejaVuSans-2e" x="63.623047"/>
       <use xlink:href="#DejaVuSans-32" x="95.410156"/>
       <use xlink:href="#DejaVuSans-35" x="159.033203"/>
      </g>
     </g>
    </g>
    <g id="xtick_7">
     <g id="line2d_7">
      <g>
       <use xlink:href="#mfd7e2dff1a" x="281.468437" y="253.44" style="stroke: #000000; stroke-width: 0.8"/>
      </g>
     </g>
     <g id="text_7">
      <!-- 1.50 -->
      <g transform="translate(270.335625 268.038437) scale(0.1 -0.1)">
       <use xlink:href="#DejaVuSans-31"/>
       <use xlink:href="#DejaVuSans-2e" x="63.623047"/>
       <use xlink:href="#DejaVuSans-35" x="95.410156"/>
       <use xlink:href="#DejaVuSans-30" x="159.033203"/>
      </g>
     </g>
    </g>
    <g id="xtick_8">
     <g id="line2d_8">
      <g>
       <use xlink:href="#mfd7e2dff1a" x="323.318437" y="253.44" style="stroke: #000000; stroke-width: 0.8"/>
      </g>
     </g>
     <g id="text_8">
      <!-- 1.75 -->
      <g transform="translate(312.185625 268.038437) scale(0.1 -0.1)">
       <use xlink:href="#DejaVuSans-31"/>
       <use xlink:href="#DejaVuSans-2e" x="63.623047"/>
       <use xlink:href="#DejaVuSans-37" x="95.410156"/>
       <use xlink:href="#DejaVuSans-35" x="159.033203"/>
      </g>
     </g>
    </g>
    <g id="xtick_9">
     <g id="line2d_9">
      <g>
       <use xlink:href="#mfd7e2dff1a" x="365.168437" y="253.44" style="stroke: #000000; stroke-width: 0.8"/>
      </g>
     </g>
     <g id="text_9">
      <!-- 2.00 -->
      <g transform="translate(354.035625 268.038437) scale(0.1 -0.1)">
       <use xlink:href="#DejaVuSans-32"/>
       <use xlink:href="#DejaVuSans-2e" x="63.623047"/>
       <use xlink:href="#DejaVuSans-30" x="95.410156"/>
       <use xlink:href="#DejaVuSans-30" x="159.033203"/>
      </g>
     </g>
    </g>
   </g>
   <g id="matplotlib.axis_2">
    <g id="ytick_1">
     <g id="line2d_10">
      <defs>
       <path id="mce731b7a2f" d="M 0 0 
L -3.5 0 
" style="stroke: #000000; stroke-width: 0.8"/>
      </defs>
      <g>
       <use xlink:href="#mce731b7a2f" x="30.368437" y="239.782512" style="stroke: #000000; stroke-width: 0.8"/>
      </g>
     </g>
     <g id="text_10">
      <!-- 0.0 -->
      <g transform="translate(7.465312 243.581731) scale(0.1 -0.1)">
       <use xlink:href="#DejaVuSans-30"/>
       <use xlink:href="#DejaVuSans-2e" x="63.623047"/>
       <use xlink:href="#DejaVuSans-30" x="95.410156"/>
      </g>
     </g>
    </g>
    <g id="ytick_2">
     <g id="line2d_11">
      <g>
       <use xlink:href="#mce731b7a2f" x="30.368437" y="204.034136" style="stroke: #000000; stroke-width: 0.8"/>
      </g>
     </g>
     <g id="text_11">
      <!-- 0.2 -->
      <g transform="translate(7.465312 207.833355) scale(0.1 -0.1)">
       <use xlink:href="#DejaVuSans-30"/>
       <use xlink:href="#DejaVuSans-2e" x="63.623047"/>
       <use xlink:href="#DejaVuSans-32" x="95.410156"/>
      </g>
     </g>
    </g>
    <g id="ytick_3">
     <g id="line2d_12">
      <g>
       <use xlink:href="#mce731b7a2f" x="30.368437" y="168.28576" style="stroke: #000000; stroke-width: 0.8"/>
      </g>
     </g>
     <g id="text_12">
      <!-- 0.4 -->
      <g transform="translate(7.465312 172.084979) scale(0.1 -0.1)">
       <defs>
        <path id="DejaVuSans-34" d="M 2419 4116 
L 825 1625 
L 2419 1625 
L 2419 4116 
z
M 2253 4666 
L 3047 4666 
L 3047 1625 
L 3713 1625 
L 3713 1100 
L 3047 1100 
L 3047 0 
L 2419 0 
L 2419 1100 
L 313 1100 
L 313 1709 
L 2253 4666 
z
" transform="scale(0.015625)"/>
       </defs>
       <use xlink:href="#DejaVuSans-30"/>
       <use xlink:href="#DejaVuSans-2e" x="63.623047"/>
       <use xlink:href="#DejaVuSans-34" x="95.410156"/>
      </g>
     </g>
    </g>
    <g id="ytick_4">
     <g id="line2d_13">
      <g>
       <use xlink:href="#mce731b7a2f" x="30.368437" y="132.537384" style="stroke: #000000; stroke-width: 0.8"/>
      </g>
     </g>
     <g id="text_13">
      <!-- 0.6 -->
      <g transform="translate(7.465312 136.336603) scale(0.1 -0.1)">
       <defs>
        <path id="DejaVuSans-36" d="M 2113 2584 
Q 1688 2584 1439 2293 
Q 1191 2003 1191 1497 
Q 1191 994 1439 701 
Q 1688 409 2113 409 
Q 2538 409 2786 701 
Q 3034 994 3034 1497 
Q 3034 2003 2786 2293 
Q 2538 2584 2113 2584 
z
M 3366 4563 
L 3366 3988 
Q 3128 4100 2886 4159 
Q 2644 4219 2406 4219 
Q 1781 4219 1451 3797 
Q 1122 3375 1075 2522 
Q 1259 2794 1537 2939 
Q 1816 3084 2150 3084 
Q 2853 3084 3261 2657 
Q 3669 2231 3669 1497 
Q 3669 778 3244 343 
Q 2819 -91 2113 -91 
Q 1303 -91 875 529 
Q 447 1150 447 2328 
Q 447 3434 972 4092 
Q 1497 4750 2381 4750 
Q 2619 4750 2861 4703 
Q 3103 4656 3366 4563 
z
" transform="scale(0.015625)"/>
       </defs>
       <use xlink:href="#DejaVuSans-30"/>
       <use xlink:href="#DejaVuSans-2e" x="63.623047"/>
       <use xlink:href="#DejaVuSans-36" x="95.410156"/>
      </g>
     </g>
    </g>
    <g id="ytick_5">
     <g id="line2d_14">
      <g>
       <use xlink:href="#mce731b7a2f" x="30.368437" y="96.789008" style="stroke: #000000; stroke-width: 0.8"/>
      </g>
     </g>
     <g id="text_14">
      <!-- 0.8 -->
      <g transform="translate(7.465312 100.588227) scale(0.1 -0.1)">
       <defs>
        <path id="DejaVuSans-38" d="M 2034 2216 
Q 1584 2216 1326 1975 
Q 1069 1734 1069 1313 
Q 1069 891 1326 650 
Q 1584 409 2034 409 
Q 2484 409 2743 651 
Q 3003 894 3003 1313 
Q 3003 1734 2745 1975 
Q 2488 2216 2034 2216 
z
M 1403 2484 
Q 997 2584 770 2862 
Q 544 3141 544 3541 
Q 544 4100 942 4425 
Q 1341 4750 2034 4750 
Q 2731 4750 3128 4425 
Q 3525 4100 3525 3541 
Q 3525 3141 3298 2862 
Q 3072 2584 2669 2484 
Q 3125 2378 3379 2068 
Q 3634 1759 3634 1313 
Q 3634 634 3220 271 
Q 2806 -91 2034 -91 
Q 1263 -91 848 271 
Q 434 634 434 1313 
Q 434 1759 690 2068 
Q 947 2378 1403 2484 
z
M 1172 3481 
Q 1172 3119 1398 2916 
Q 1625 2713 2034 2713 
Q 2441 2713 2670 2916 
Q 2900 3119 2900 3481 
Q 2900 3844 2670 4047 
Q 2441 4250 2034 4250 
Q 1625 4250 1398 4047 
Q 1172 3844 1172 3481 
z
" transform="scale(0.015625)"/>
       </defs>
       <use xlink:href="#DejaVuSans-30"/>
       <use xlink:href="#DejaVuSans-2e" x="63.623047"/>
       <use xlink:href="#DejaVuSans-38" x="95.410156"/>
      </g>
     </g>
    </g>
    <g id="ytick_6">
     <g id="line2d_15">
      <g>
       <use xlink:href="#mce731b7a2f" x="30.368437" y="61.040632" style="stroke: #000000; stroke-width: 0.8"/>
      </g>
     </g>
     <g id="text_15">
      <!-- 1.0 -->
      <g transform="translate(7.465312 64.839851) scale(0.1 -0.1)">
       <use xlink:href="#DejaVuSans-31"/>
       <use xlink:href="#DejaVuSans-2e" x="63.623047"/>
       <use xlink:href="#DejaVuSans-30" x="95.410156"/>
      </g>
     </g>
    </g>
   </g>
   <g id="line2d_16">
    <path d="M 30.535837 239.782512 
L 31.205437 233.889751 
L 31.875037 229.939715 
L 32.544637 227.291926 
L 33.214237 225.517061 
L 33.883837 224.327333 
L 34.553437 223.529834 
L 35.390437 222.89182 
L 36.394837 222.448078 
L 37.734037 222.150851 
L 39.742837 221.981372 
L 43.927837 221.91432 
L 78.244837 221.908324 
L 365.168437 221.908324 
L 365.168437 221.908324 
" clip-path="url(#p04d541f07d)" style="fill: none; stroke: #1f77b4; stroke-width: 1.5; stroke-linecap: square"/>
   </g>
   <g id="line2d_17">
    <path d="M 30.535837 239.782512 
L 30.703237 240.352852 
L 30.870637 236.858161 
L 31.038037 242.087675 
L 31.205437 243.556364 
L 31.372837 242.118617 
L 31.540237 237.847627 
L 31.707637 236.980983 
L 31.875037 235.106481 
L 32.042437 237.672462 
L 32.209837 235.97347 
L 32.377237 232.688019 
L 32.544637 225.609558 
L 32.712037 231.164992 
L 32.879437 233.030948 
L 33.046837 222.015511 
L 33.214237 225.025243 
L 33.381637 230.86851 
L 33.549037 228.323064 
L 33.716437 223.458377 
L 33.883837 224.970618 
L 34.051237 221.685326 
L 34.218637 222.572516 
L 34.386037 233.510521 
L 34.720837 218.037741 
L 34.888237 218.871202 
L 35.055637 222.090615 
L 35.223037 221.500256 
L 35.390437 221.905926 
L 35.557837 220.849859 
L 35.725237 223.720291 
L 35.892637 222.020857 
L 36.060037 223.400566 
L 36.227437 219.518121 
L 36.562237 228.381728 
L 36.897037 223.802261 
L 37.064437 224.105877 
L 37.231837 221.253295 
L 37.399237 221.002055 
L 37.566637 225.783438 
L 37.734037 220.961294 
L 37.901437 210.702476 
L 38.068837 213.558914 
L 38.236237 223.406173 
L 38.403637 222.639999 
L 38.738437 215.102609 
L 38.905837 219.052328 
L 39.073237 226.393056 
L 39.240637 224.221188 
L 39.408037 220.105555 
L 39.575437 219.419176 
L 39.742837 219.465376 
L 39.910237 218.828593 
L 40.077637 218.839079 
L 40.245037 222.217972 
L 40.579837 214.372018 
L 40.747237 215.490191 
L 40.914637 217.813277 
L 41.082037 216.686645 
L 41.249437 218.948305 
L 41.416837 217.831213 
L 41.584237 220.910581 
L 41.751637 217.985233 
L 41.919037 221.774417 
L 42.253837 214.692252 
L 42.421237 215.719721 
L 42.588637 215.046823 
L 42.756037 213.325298 
L 42.923437 214.56001 
L 43.090837 217.945861 
L 43.258237 208.234499 
L 43.425637 209.601094 
L 43.593037 216.796057 
L 43.760437 215.575678 
L 43.927837 217.289254 
L 44.095237 209.972833 
L 44.262637 210.386083 
L 44.430037 217.098637 
L 44.597437 215.626227 
L 44.932237 208.927128 
L 45.099637 211.863406 
L 45.267037 211.286738 
L 45.434437 206.086922 
L 45.601837 215.047182 
L 45.769237 214.563395 
L 45.936637 209.818636 
L 46.104037 212.866333 
L 46.271437 212.543192 
L 46.438837 212.575337 
L 46.606237 209.343529 
L 46.773637 202.309216 
L 46.941037 203.037608 
L 47.108437 209.666056 
L 47.275837 207.450808 
L 47.443237 200.554452 
L 47.610637 201.481106 
L 47.778037 201.638983 
L 47.945437 203.857709 
L 48.112837 194.816333 
L 48.280237 198.578889 
L 48.447637 204.859882 
L 48.615037 197.879564 
L 48.782437 203.648436 
L 49.117237 201.817111 
L 49.284637 194.631647 
L 49.452037 202.551813 
L 49.619437 203.648398 
L 49.954237 209.780363 
L 50.121637 197.193872 
L 50.289037 202.334085 
L 50.456437 199.104283 
L 50.623837 199.364683 
L 50.791237 195.674942 
L 50.958637 204.197106 
L 51.126037 205.478184 
L 51.293437 200.602185 
L 51.460837 202.758765 
L 51.628237 207.389744 
L 52.297837 198.528639 
L 52.465237 200.685794 
L 52.632637 196.319829 
L 52.800037 196.869197 
L 52.967437 200.560378 
L 53.134837 200.281499 
L 53.302237 205.997453 
L 53.469637 202.153444 
L 53.637037 204.24789 
L 53.804437 204.915173 
L 53.971837 201.472275 
L 54.139237 212.456143 
L 54.306637 216.13404 
L 54.474037 214.420741 
L 54.641437 208.336579 
L 54.808837 214.071448 
L 54.976237 214.396284 
L 55.143637 213.871306 
L 55.311037 209.990237 
L 55.478437 210.492176 
L 55.645837 213.251979 
L 55.813237 211.382478 
L 55.980637 206.027593 
L 56.148037 206.011841 
L 56.315437 206.40134 
L 56.482837 204.407143 
L 56.650237 210.016543 
L 56.817637 209.621192 
L 56.985037 215.071462 
L 57.152437 206.34134 
L 57.319837 214.388783 
L 57.654637 204.224689 
L 57.989437 205.766507 
L 58.156837 197.778681 
L 58.324237 200.890993 
L 58.491637 206.624037 
L 58.659037 206.544933 
L 58.993837 196.728756 
L 59.161237 201.256665 
L 59.328637 202.300923 
L 59.496037 197.155321 
L 59.663437 198.956275 
L 59.830837 195.230309 
L 59.998237 202.816581 
L 60.165637 201.391307 
L 60.333037 196.123707 
L 60.500437 195.320391 
L 60.667837 202.942989 
L 60.835237 202.092425 
L 61.002637 199.450131 
L 61.170037 200.192929 
L 61.504837 205.74772 
L 61.839637 200.820777 
L 62.007037 201.293465 
L 62.174437 196.179678 
L 62.341837 197.214495 
L 62.509237 189.646293 
L 62.676637 192.633874 
L 62.844037 192.285613 
L 63.011437 186.355142 
L 63.178837 186.042455 
L 63.346237 194.347264 
L 63.513637 196.784372 
L 63.681037 191.825654 
L 63.848437 197.076509 
L 64.015837 192.912322 
L 64.183237 192.949507 
L 64.350637 188.493786 
L 64.518037 187.813426 
L 64.685437 198.542204 
L 65.020237 185.210835 
L 65.187637 194.908358 
L 65.355037 196.722989 
L 65.689837 183.209624 
L 66.024637 191.282609 
L 66.192037 187.598406 
L 66.359437 189.737764 
L 66.526837 183.148084 
L 66.694237 189.468376 
L 66.861637 189.653767 
L 67.029037 186.316652 
L 67.196437 188.051048 
L 67.363837 188.406072 
L 67.531237 185.235422 
L 67.698637 185.691279 
L 67.866037 188.709429 
L 68.033437 188.832221 
L 68.200837 187.78305 
L 68.368237 188.498437 
L 68.535637 181.868819 
L 68.703037 185.919723 
L 68.870437 194.867502 
L 69.037837 193.386402 
L 69.205237 188.871229 
L 69.372637 193.019969 
L 69.540037 193.387755 
L 69.707437 192.326029 
L 69.874837 189.720704 
L 70.042237 184.071427 
L 70.209637 187.388528 
L 70.377037 187.032966 
L 70.544437 180.110281 
L 70.711837 182.193444 
L 70.879237 189.259218 
L 71.046637 182.961251 
L 71.214037 185.61126 
L 71.381437 191.071254 
L 71.548837 191.548794 
L 71.716237 195.779629 
L 71.883637 189.001057 
L 72.051037 191.737576 
L 72.218437 184.781493 
L 72.385837 189.498991 
L 72.553237 183.806188 
L 72.720637 184.38472 
L 72.888037 181.537082 
L 73.055437 183.11612 
L 73.222837 190.555981 
L 73.557637 184.277445 
L 73.725037 187.097064 
L 73.892437 193.946351 
L 74.227237 181.30146 
L 74.562037 179.429215 
L 74.729437 180.974742 
L 74.896837 188.618382 
L 75.064237 187.720786 
L 75.231637 185.290504 
L 75.399037 187.396214 
L 75.566437 186.397046 
L 75.733837 184.564044 
L 75.901237 181.363992 
L 76.068637 184.373889 
L 76.236037 189.836891 
L 76.570837 176.148762 
L 77.073037 186.757097 
L 77.240437 180.106052 
L 77.407837 180.984491 
L 77.575237 185.706544 
L 77.742637 183.178102 
L 77.910037 183.42036 
L 78.077437 182.284027 
L 78.244837 189.707739 
L 78.412237 178.398546 
L 78.579637 187.682586 
L 78.747037 180.786047 
L 79.081837 175.903752 
L 79.249237 178.947271 
L 79.416637 179.724708 
L 79.584037 176.211682 
L 79.751437 184.129019 
L 79.918837 183.164299 
L 80.253637 186.845392 
L 80.421037 187.9315 
L 80.755837 182.468544 
L 80.923237 172.430778 
L 81.090637 177.844331 
L 81.258037 178.112113 
L 81.425437 171.796534 
L 81.760237 176.813858 
L 81.927637 171.601829 
L 82.095037 172.811784 
L 82.262437 183.150348 
L 82.429837 168.868107 
L 82.764637 181.581456 
L 82.932037 180.3516 
L 83.099437 176.988191 
L 83.266837 176.045652 
L 83.434237 172.196593 
L 83.601637 176.771078 
L 83.769037 173.92927 
L 83.936437 166.308931 
L 84.103837 170.463203 
L 84.271237 169.810164 
L 84.438637 160.959948 
L 84.606037 163.552016 
L 84.773437 163.873636 
L 84.940837 165.980181 
L 85.108237 163.838119 
L 85.275637 170.229941 
L 85.443037 169.103897 
L 85.945237 175.829984 
L 86.112637 165.925806 
L 86.280037 170.481356 
L 86.447437 164.932065 
L 86.614837 172.055026 
L 86.949637 160.748149 
L 87.451837 168.16264 
L 87.619237 169.050732 
L 87.786637 168.307344 
L 88.121437 169.999856 
L 88.288837 165.158368 
L 88.456237 166.360178 
L 88.623637 165.464885 
L 88.791037 163.046293 
L 88.958437 166.452629 
L 89.125837 165.637323 
L 89.293237 159.672332 
L 89.460637 166.300012 
L 89.628037 164.684448 
L 89.962837 158.804649 
L 90.130237 163.800002 
L 90.297637 153.292377 
L 90.465037 161.523002 
L 90.632437 159.603984 
L 90.799837 162.222746 
L 90.967237 160.442578 
L 91.134637 155.267209 
L 91.469437 166.696634 
L 91.636837 161.033735 
L 91.804237 168.130956 
L 91.971637 165.363228 
L 92.139037 167.958539 
L 92.306437 162.295722 
L 92.473837 161.035736 
L 92.641237 162.708569 
L 92.976037 158.678033 
L 93.143437 160.229692 
L 93.310837 165.173245 
L 93.478237 165.301154 
L 93.645637 155.049891 
L 93.813037 163.715976 
L 93.980437 161.3317 
L 94.147837 167.74789 
L 94.482637 163.856566 
L 94.650037 167.244351 
L 94.984837 160.51119 
L 95.319637 166.643904 
L 95.654437 169.636208 
L 95.821837 168.99307 
L 95.989237 171.068731 
L 96.156637 174.63099 
L 96.324037 175.489938 
L 96.658837 162.024467 
L 96.826237 171.280031 
L 96.993637 169.928962 
L 97.161037 172.60626 
L 97.328437 172.247073 
L 97.495837 170.333885 
L 97.830637 163.10276 
L 97.998037 169.019471 
L 98.165437 179.251814 
L 98.332837 170.041729 
L 98.500237 170.002595 
L 98.667637 167.922667 
L 98.835037 158.387379 
L 99.002437 166.569175 
L 99.169837 165.162716 
L 99.337237 165.198852 
L 99.504637 159.393819 
L 99.672037 164.479933 
L 100.006837 158.013861 
L 100.174237 162.729721 
L 100.509037 158.100073 
L 100.676437 158.544484 
L 100.843837 152.236553 
L 101.011237 157.176337 
L 101.178637 155.076966 
L 101.346037 155.670633 
L 101.513437 160.479713 
L 101.680837 155.007803 
L 101.848237 159.703668 
L 102.015637 158.89983 
L 102.183037 152.301297 
L 102.517837 168.072246 
L 102.852637 157.289712 
L 103.187437 164.58467 
L 103.354837 163.138291 
L 103.522237 154.219928 
L 103.689637 159.512741 
L 103.857037 158.149496 
L 104.024437 163.741049 
L 104.191837 165.182515 
L 104.359237 164.139956 
L 104.861437 168.50397 
L 105.196237 162.284558 
L 105.363637 165.39929 
L 105.531037 162.19075 
L 105.698437 164.670735 
L 105.865837 163.270178 
L 106.033237 152.896239 
L 106.200637 163.032334 
L 106.368037 159.433955 
L 106.702837 160.025103 
L 106.870237 159.765558 
L 107.037637 156.730449 
L 107.205037 162.097773 
L 107.372437 151.413286 
L 107.539837 153.411474 
L 107.707237 152.607972 
L 107.874637 156.781742 
L 108.042037 153.800005 
L 108.209437 154.016911 
L 108.376837 156.751282 
L 108.544237 156.900503 
L 108.711637 155.192562 
L 108.879037 157.176739 
L 109.046437 157.131271 
L 109.213837 158.481151 
L 109.381237 152.937535 
L 109.548637 159.91332 
L 109.716037 158.033835 
L 109.883437 151.291662 
L 110.385637 162.614977 
L 110.553037 147.986294 
L 111.055237 159.36374 
L 111.222637 159.949002 
L 111.390037 146.978038 
L 111.557437 148.765398 
L 111.724837 157.907788 
L 112.059637 147.5983 
L 112.227037 147.967543 
L 112.394437 146.193472 
L 112.561837 151.412842 
L 112.729237 151.814453 
L 112.896637 155.27683 
L 113.064037 147.273548 
L 113.231437 147.249808 
L 113.398837 157.938536 
L 113.566237 151.975405 
L 113.733637 152.195659 
L 113.901037 156.334737 
L 114.235837 152.738467 
L 114.403237 150.357051 
L 114.570637 153.607126 
L 114.905437 147.039597 
L 115.072837 156.469949 
L 115.240237 159.597661 
L 115.407637 153.056458 
L 115.575037 157.552577 
L 115.742437 156.040254 
L 115.909837 159.477501 
L 116.244637 151.409029 
L 116.412037 154.576364 
L 116.746837 143.982997 
L 116.914237 152.774101 
L 117.081637 148.510818 
L 117.249037 147.16276 
L 117.416437 150.523689 
L 117.583837 145.87358 
L 117.918637 157.01272 
L 118.086037 151.781723 
L 118.253437 151.245893 
L 118.420837 152.199645 
L 118.588237 151.448785 
L 118.755637 151.258621 
L 118.923037 157.795804 
L 119.090437 151.634139 
L 119.257837 154.62102 
L 119.425237 143.513829 
L 119.592637 154.016791 
L 119.760037 156.10654 
L 119.927437 148.564215 
L 120.262237 152.723032 
L 120.597037 144.809462 
L 120.764437 149.739438 
L 121.099238 146.652658 
L 121.266637 148.995006 
L 121.434037 143.099366 
L 121.601437 143.417324 
L 121.768837 142.944846 
L 121.936237 142.887211 
L 122.605837 152.967366 
L 122.773237 152.050416 
L 122.940637 149.019212 
L 123.108037 143.644004 
L 123.275437 143.614289 
L 123.442837 147.778092 
L 123.610237 145.657491 
L 123.777637 139.495491 
L 123.945037 145.311554 
L 124.112437 142.252043 
L 124.279837 142.320701 
L 124.614638 147.610034 
L 124.782038 147.543374 
L 124.949438 145.1936 
L 125.116838 147.558977 
L 125.284238 148.083378 
L 125.619038 141.552833 
L 125.953837 138.838511 
L 126.121237 140.905618 
L 126.288637 140.544528 
L 126.456037 139.476442 
L 126.623437 143.996853 
L 126.790837 139.020018 
L 126.958237 141.90852 
L 127.125637 153.202667 
L 127.460437 139.99908 
L 127.627837 143.422579 
L 127.795237 140.933136 
L 127.962637 134.863299 
L 128.130037 137.974963 
L 128.297437 137.568428 
L 128.464837 129.489946 
L 128.632237 131.061968 
L 128.799637 135.587183 
L 128.967037 134.284556 
L 129.134437 143.596346 
L 129.301837 133.900909 
L 129.469237 135.343047 
L 129.804037 133.728535 
L 129.971437 139.673225 
L 130.138837 135.679673 
L 130.306237 143.022486 
L 130.473637 133.33271 
L 130.641037 136.403666 
L 130.808437 147.804506 
L 130.975837 150.134241 
L 131.143237 150.103252 
L 131.478037 144.278505 
L 131.645437 146.683275 
L 131.812837 152.705174 
L 131.980237 141.887881 
L 132.147637 138.881673 
L 132.315037 145.844514 
L 132.649837 137.226851 
L 132.984637 143.230956 
L 133.152037 139.993343 
L 133.319437 130.868601 
L 133.486837 139.800874 
L 133.821637 131.490577 
L 133.989037 134.996254 
L 134.156437 135.321167 
L 134.323837 138.824234 
L 134.658637 135.388471 
L 134.993437 140.456225 
L 135.160837 131.757745 
L 135.328237 134.940417 
L 135.495637 134.137826 
L 135.663037 129.8389 
L 135.830437 132.097516 
L 135.997837 131.07328 
L 136.165237 123.265533 
L 136.332637 130.270466 
L 136.500037 130.673937 
L 136.667437 129.980525 
L 136.834837 133.685708 
L 137.002237 128.985709 
L 137.337037 126.094465 
L 137.504437 137.148249 
L 137.671837 135.401461 
L 137.839237 126.891137 
L 138.006637 130.613097 
L 138.174037 137.041368 
L 138.341437 131.265464 
L 138.508837 130.238355 
L 138.676237 134.890223 
L 138.843637 125.385601 
L 139.011037 134.847458 
L 139.345837 122.067457 
L 139.513237 125.036685 
L 139.680637 125.922499 
L 139.848037 134.71026 
L 140.015437 130.448245 
L 140.182837 123.066128 
L 140.350237 130.889979 
L 140.517637 128.569659 
L 140.685037 124.195631 
L 141.187237 130.186409 
L 141.689437 124.507512 
L 141.856837 124.567625 
L 142.024237 119.162861 
L 142.191637 125.493163 
L 142.359037 125.778812 
L 142.693838 118.237331 
L 143.028638 128.683601 
L 143.196037 124.068138 
L 143.530837 127.996434 
L 143.865637 124.074004 
L 144.033037 130.033726 
L 144.200437 119.972122 
L 144.367837 118.542864 
L 144.535237 124.837829 
L 144.702637 118.350471 
L 145.037437 128.711599 
L 145.204837 120.791797 
L 145.372237 123.911359 
L 145.539637 116.772889 
L 145.707037 119.065572 
L 145.874437 127.581013 
L 146.041837 122.441002 
L 146.209238 126.077161 
L 146.376637 125.510795 
L 146.544038 126.559371 
L 146.711437 131.528844 
L 146.878838 131.041486 
L 147.046237 132.935383 
L 147.213638 127.569607 
L 147.381037 134.798823 
L 147.715837 129.656177 
L 147.883238 129.609747 
L 148.050637 133.870736 
L 148.218037 134.884597 
L 148.385437 123.708212 
L 148.720237 136.385994 
L 148.887637 126.947968 
L 149.055037 126.247797 
L 149.222437 128.007098 
L 149.389837 126.051894 
L 149.557237 129.096156 
L 149.724637 123.571651 
L 150.059437 133.875403 
L 150.226837 128.824422 
L 150.394237 130.938954 
L 150.729037 124.401004 
L 150.896437 124.15455 
L 151.063837 122.534676 
L 151.231237 116.462578 
L 151.398637 122.199564 
L 151.566037 122.340574 
L 151.900837 127.001681 
L 152.068237 125.84725 
L 152.235637 126.289543 
L 152.403037 121.886593 
L 152.570437 123.940591 
L 152.737837 123.47155 
L 152.905237 122.388169 
L 153.072637 126.966897 
L 153.407437 119.20641 
L 153.574837 124.14149 
L 153.742237 117.952476 
L 153.909637 117.141254 
L 154.077037 123.568154 
L 154.244437 121.936631 
L 154.411837 112.794567 
L 154.579237 126.864542 
L 154.746637 130.314369 
L 154.914037 116.280472 
L 155.081437 118.437083 
L 155.416237 119.148764 
L 155.583637 113.024488 
L 155.751037 119.409934 
L 155.918437 119.579624 
L 156.085837 119.344726 
L 156.253237 119.895781 
L 156.420637 118.65879 
L 156.588037 122.756329 
L 156.922837 115.491762 
L 157.090237 119.581866 
L 157.257637 114.725199 
L 157.425037 116.897029 
L 157.592437 122.051745 
L 157.759837 119.741563 
L 157.927237 113.920757 
L 158.094637 121.879807 
L 158.262037 122.692712 
L 158.429437 121.205698 
L 158.596837 116.424169 
L 158.931637 123.763798 
L 159.099037 115.31665 
L 159.266437 112.99184 
L 159.433837 119.967463 
L 159.601237 109.620921 
L 159.768637 114.042453 
L 159.936037 113.915668 
L 160.103437 110.250168 
L 160.270837 110.892826 
L 160.438237 102.25315 
L 160.605637 105.789948 
L 160.773037 113.798269 
L 160.940437 109.610134 
L 161.107837 109.554641 
L 161.442637 107.399133 
L 161.610037 111.06984 
L 161.777437 111.332352 
L 161.944837 109.936297 
L 162.279637 114.033084 
L 162.447037 111.725851 
L 162.614437 105.800257 
L 162.949237 111.402384 
L 163.116637 102.797823 
L 163.618837 114.480141 
L 163.786237 112.413842 
L 163.953637 106.76063 
L 164.121037 107.36974 
L 164.288437 115.267597 
L 164.455837 105.223559 
L 164.623237 108.650466 
L 164.790637 114.693743 
L 164.958037 112.276112 
L 165.125437 103.774524 
L 165.292837 110.761065 
L 165.460237 110.204681 
L 165.795037 101.526079 
L 165.962437 109.641698 
L 166.129837 109.80063 
L 166.297237 103.308042 
L 166.464637 108.035061 
L 166.632037 106.274561 
L 166.799437 111.735794 
L 167.134237 104.540173 
L 167.301637 105.787387 
L 167.469037 114.873872 
L 167.636437 102.583143 
L 167.803837 101.043136 
L 167.971237 104.237189 
L 168.306037 99.301771 
L 168.473437 101.879492 
L 168.640837 111.789264 
L 168.975637 98.752363 
L 169.143037 106.572433 
L 169.310437 104.626327 
L 169.477837 99.058008 
L 169.645237 106.848992 
L 169.812637 106.426441 
L 169.980037 101.394648 
L 170.147437 101.676557 
L 170.482237 109.992795 
L 170.817037 102.961865 
L 170.984437 112.809482 
L 171.319237 100.794798 
L 171.486637 101.808583 
L 171.654037 101.88451 
L 171.821437 108.688389 
L 171.988837 108.110676 
L 172.156237 108.232634 
L 172.323637 107.169543 
L 172.491037 108.567174 
L 172.658437 104.060868 
L 172.825837 108.665051 
L 172.993237 105.661791 
L 173.160637 111.211114 
L 173.495437 103.712793 
L 173.662837 116.429374 
L 173.997637 108.111675 
L 174.165037 114.102926 
L 174.332437 106.20874 
L 174.499837 111.088121 
L 174.667237 109.663025 
L 174.834637 110.365965 
L 175.002037 114.522959 
L 175.169437 106.190921 
L 175.336837 110.261848 
L 175.839037 107.113617 
L 176.006437 97.654012 
L 176.341237 107.147575 
L 176.508637 103.643964 
L 176.676037 107.301486 
L 176.843437 107.973352 
L 177.010837 100.832724 
L 177.178237 100.939706 
L 177.345637 107.081864 
L 177.680437 101.006377 
L 177.847837 105.825821 
L 178.015237 98.920552 
L 178.182637 103.275943 
L 178.350037 99.238352 
L 178.517437 102.943921 
L 178.852237 103.265264 
L 179.019637 105.51749 
L 179.187037 100.145937 
L 179.354437 98.40989 
L 179.521837 99.723346 
L 179.856637 98.225647 
L 180.024037 94.688336 
L 180.358837 99.955124 
L 180.526237 93.659097 
L 180.693637 96.983451 
L 180.861037 94.253354 
L 181.028437 104.144284 
L 181.195837 96.789727 
L 181.363237 95.646578 
L 181.698037 105.979044 
L 181.865437 99.334436 
L 182.032837 104.667854 
L 182.367637 101.905037 
L 182.535037 105.769998 
L 182.702437 94.65822 
L 182.869837 98.116725 
L 183.037237 95.762745 
L 183.204637 96.774811 
L 183.372037 107.003918 
L 183.539437 105.873152 
L 183.706837 99.095245 
L 183.874237 104.989142 
L 184.041637 99.026948 
L 184.209037 105.390603 
L 184.376437 98.732675 
L 184.543837 102.027222 
L 184.711237 99.702407 
L 184.878637 105.383651 
L 185.046037 104.071912 
L 185.380837 96.89093 
L 185.548237 106.649521 
L 185.715637 95.453586 
L 185.883037 98.982633 
L 186.050437 105.445966 
L 186.385237 97.560553 
L 186.552637 103.715158 
L 186.720037 94.628182 
L 186.887437 102.084424 
L 187.054837 103.888668 
L 187.222237 108.350207 
L 187.389637 103.167371 
L 187.557037 103.905797 
L 187.724437 107.189358 
L 188.059237 98.487763 
L 188.226637 100.892122 
L 188.394037 96.509637 
L 188.561437 104.397627 
L 188.728837 105.477427 
L 188.896237 99.122823 
L 189.231037 102.257077 
L 189.398438 97.938939 
L 189.733238 109.646472 
L 189.900637 95.218057 
L 190.068037 99.851698 
L 190.235437 100.251675 
L 190.402837 103.117116 
L 190.570237 95.871904 
L 190.737637 102.272252 
L 190.905037 95.440988 
L 191.072437 95.478152 
L 191.239837 100.613118 
L 191.407237 95.607974 
L 191.574637 95.605236 
L 191.742037 98.357316 
L 191.909437 92.05672 
L 192.244237 98.231533 
L 192.411637 98.166501 
L 192.579037 100.089848 
L 192.746437 87.3382 
L 192.913837 96.174146 
L 193.081237 97.002641 
L 193.248637 90.94792 
L 193.416037 94.540493 
L 193.583437 91.866704 
L 193.918237 95.177287 
L 194.085637 91.318831 
L 194.420437 94.019868 
L 194.587837 94.195408 
L 194.755237 89.783008 
L 194.922637 94.042476 
L 195.090037 94.873814 
L 195.257437 90.476426 
L 195.424837 94.887907 
L 195.592237 91.508269 
L 195.759637 97.385997 
L 196.094437 91.443098 
L 196.261837 90.747559 
L 196.596637 98.034766 
L 196.764037 96.712959 
L 196.931437 89.879763 
L 197.098837 94.389309 
L 197.266237 93.676356 
L 197.601037 86.895509 
L 197.935837 92.777603 
L 198.103237 88.635369 
L 198.270637 93.637815 
L 198.605437 87.581995 
L 198.772837 98.495745 
L 199.107637 86.377771 
L 199.275037 97.036867 
L 199.442437 88.167224 
L 199.609837 90.296773 
L 199.777237 86.048136 
L 199.944637 88.989644 
L 200.112037 95.8928 
L 200.279438 84.098061 
L 200.614238 91.249963 
L 200.781637 91.958732 
L 200.949038 90.007899 
L 201.283838 84.403225 
L 201.451237 93.721418 
L 201.618638 95.812097 
L 201.786037 81.004593 
L 201.953437 89.688175 
L 202.120837 90.325124 
L 202.455637 86.690219 
L 202.623037 87.90534 
L 202.790437 87.339982 
L 202.957837 85.839484 
L 203.125237 87.477018 
L 203.292637 80.427736 
L 203.627437 92.246606 
L 203.962237 79.853349 
L 204.129637 84.493937 
L 204.297037 82.173206 
L 204.464437 77.540578 
L 204.799237 84.953846 
L 204.966637 82.938439 
L 205.134037 75.850455 
L 205.301437 85.051009 
L 205.468837 85.178651 
L 205.636237 82.704553 
L 205.803637 84.994942 
L 206.138437 81.567909 
L 206.305837 79.343466 
L 206.640637 86.481171 
L 206.808037 88.881381 
L 206.975437 89.237867 
L 207.142837 83.355159 
L 207.310237 89.743536 
L 207.477637 90.93085 
L 207.812437 81.632283 
L 207.979837 86.460537 
L 208.147237 86.119521 
L 208.314637 80.362249 
L 208.482037 79.794533 
L 208.816837 85.102954 
L 208.984237 81.161635 
L 209.151637 86.577395 
L 209.319037 76.652109 
L 209.486437 79.132114 
L 209.653837 84.904879 
L 209.988637 79.025763 
L 210.156037 78.434984 
L 210.323437 77.433908 
L 210.490837 79.361284 
L 210.658237 77.352819 
L 210.825637 65.515121 
L 210.993037 77.675753 
L 211.160438 81.591894 
L 211.327837 79.351266 
L 211.495238 72.425467 
L 211.830038 84.44923 
L 211.997437 75.031825 
L 212.332237 80.619067 
L 212.499637 71.710311 
L 212.667037 71.586985 
L 212.834437 82.106455 
L 213.001837 75.641541 
L 213.336637 84.074429 
L 213.671437 71.757342 
L 213.838837 82.527435 
L 214.006237 82.237137 
L 214.173637 73.861584 
L 214.341037 77.541566 
L 214.508437 73.510676 
L 214.675837 79.399668 
L 214.843237 78.974976 
L 215.010637 70.759637 
L 215.178037 79.735237 
L 215.345437 72.923543 
L 215.512837 73.964383 
L 215.847637 77.418889 
L 216.015037 77.948178 
L 216.182437 70.593032 
L 216.517237 82.983766 
L 216.852037 76.394036 
L 217.019437 80.986788 
L 217.354237 75.993689 
L 217.521637 80.846396 
L 217.689037 81.143194 
L 218.023837 73.82522 
L 218.191237 80.015873 
L 218.526038 76.221678 
L 218.693437 80.570491 
L 218.860838 75.917061 
L 219.028237 79.831958 
L 219.195638 79.971436 
L 219.363037 79.25051 
L 219.530438 77.465389 
L 219.697837 77.451021 
L 219.865238 78.93502 
L 220.032637 72.769142 
L 220.200038 75.031494 
L 220.367437 79.033236 
L 220.534838 70.852051 
L 220.869638 78.093051 
L 221.204438 70.47384 
L 221.539237 73.675479 
L 221.706637 71.660687 
L 221.874037 73.758503 
L 222.208837 66.738387 
L 222.376237 68.902776 
L 222.543637 75.907394 
L 222.711037 65.618143 
L 222.878437 68.949666 
L 223.045837 75.561367 
L 223.213237 65.63124 
L 223.380637 72.444496 
L 223.548037 67.931568 
L 223.715437 66.896011 
L 223.882837 74.112954 
L 224.050237 73.658333 
L 224.217637 74.431446 
L 224.385037 76.859077 
L 224.552437 69.129498 
L 224.719837 76.208984 
L 224.887237 64.41496 
L 225.054637 75.396896 
L 225.222037 75.796183 
L 225.389437 70.491872 
L 225.556837 75.938128 
L 225.724237 74.696612 
L 225.891637 67.621527 
L 226.059037 73.434337 
L 226.226437 74.032715 
L 226.561237 67.655343 
L 226.728637 71.76136 
L 226.896037 70.050704 
L 227.063437 73.86785 
L 227.230837 64.4996 
L 227.398237 74.268022 
L 227.565637 72.94021 
L 227.733037 68.637001 
L 227.900437 70.545552 
L 228.235237 70.925662 
L 228.402637 68.131329 
L 228.570037 71.940508 
L 228.737437 62.851544 
L 228.904837 71.290649 
L 229.072237 66.596088 
L 229.239637 65.463156 
L 229.407037 68.768127 
L 229.741837 66.366548 
L 229.909237 73.868289 
L 230.076637 63.346008 
L 230.244037 61.840859 
L 230.411437 69.181438 
L 230.578837 68.928561 
L 230.913637 63.881826 
L 231.081037 69.946204 
L 231.248437 64.349854 
L 231.415837 64.762728 
L 231.583237 67.865274 
L 231.750637 63.323901 
L 231.918037 69.502762 
L 232.085437 68.457598 
L 232.252837 56.835456 
L 232.587637 69.660762 
L 232.755037 67.87339 
L 232.922437 63.568716 
L 233.089837 67.854444 
L 233.257237 66.691378 
L 233.424637 63.007064 
L 233.592037 68.029176 
L 233.759437 69.102151 
L 233.926837 68.117536 
L 234.094237 63.056282 
L 234.261637 69.261932 
L 234.429037 68.785385 
L 234.596437 64.428428 
L 234.931237 72.530615 
L 235.098637 62.049277 
L 235.266037 67.2568 
L 235.433437 65.998939 
L 235.600837 60.305137 
L 235.768237 64.792898 
L 235.935637 65.434784 
L 236.103037 68.815822 
L 236.270437 64.609298 
L 236.437838 63.640782 
L 236.605237 73.649017 
L 236.772638 61.354036 
L 236.940037 63.02876 
L 237.107438 69.775412 
L 237.274837 69.018916 
L 237.442238 64.954807 
L 237.609637 66.367849 
L 237.944437 64.016728 
L 238.279237 65.039601 
L 238.446638 62.856693 
L 238.614037 72.142974 
L 238.781437 64.975569 
L 238.948837 63.056359 
L 239.116237 63.499817 
L 239.283637 62.688517 
L 239.618437 68.292667 
L 239.785837 70.244595 
L 239.953237 61.934999 
L 240.120637 68.210283 
L 240.288037 67.636019 
L 240.455437 63.791934 
L 240.790237 66.324817 
L 240.957637 62.007211 
L 241.292437 65.85627 
L 241.459837 65.541663 
L 241.627237 64.160037 
L 241.794637 67.186954 
L 241.962037 65.02442 
L 242.129437 66.359321 
L 242.296837 71.268805 
L 242.631637 66.848054 
L 242.799037 65.934875 
L 242.966437 70.804771 
L 243.133837 63.17478 
L 243.301237 62.565351 
L 243.468637 74.218652 
L 243.636037 63.214154 
L 243.803438 65.893206 
L 243.970837 73.43214 
L 244.138238 63.436592 
L 244.473038 72.376729 
L 244.640437 61.940169 
L 244.807837 62.297347 
L 244.975237 65.317414 
L 245.142637 72.117392 
L 245.310037 64.218602 
L 245.477437 63.070874 
L 245.644837 68.038359 
L 245.812237 59.178931 
L 245.979637 61.236521 
L 246.147037 69.485354 
L 246.314437 63.768261 
L 246.481837 63.901455 
L 246.649237 61.65896 
L 246.984037 63.139648 
L 247.151437 58.826078 
L 247.318837 65.703857 
L 247.486237 65.271348 
L 247.653637 58.036726 
L 247.821037 64.22066 
L 248.323237 59.514103 
L 248.490637 62.732745 
L 248.658037 68.102316 
L 248.825437 59.669857 
L 248.992837 59.58823 
L 249.160237 59.347406 
L 249.327637 54.004978 
L 249.662437 62.610003 
L 249.829837 65.685509 
L 249.997237 52.34892 
L 250.164637 59.159162 
L 250.332037 73.447398 
L 250.499437 60.865218 
L 250.834237 67.306141 
L 251.001637 56.217808 
L 251.169037 64.581115 
L 251.336437 66.419635 
L 251.503837 59.555342 
L 251.671237 60.038195 
L 251.838637 64.863275 
L 252.006037 61.122995 
L 252.173437 60.48915 
L 252.340837 62.016932 
L 252.508237 61.029653 
L 252.843037 69.787388 
L 253.177837 61.781511 
L 253.345237 69.632965 
L 253.512637 67.648121 
L 253.680037 62.759272 
L 254.014837 73.583052 
L 254.182237 55.736219 
L 254.349638 69.968578 
L 254.517037 66.3023 
L 254.684438 59.708248 
L 254.851837 67.368636 
L 255.019238 65.715233 
L 255.186637 65.476124 
L 255.521437 67.553019 
L 255.856237 61.417499 
L 256.023638 68.694772 
L 256.191037 58.906828 
L 256.358437 56.88903 
L 256.525837 69.446332 
L 256.693238 69.125604 
L 256.860637 56.419586 
L 257.028037 63.183417 
L 257.195437 64.691354 
L 257.362838 61.902946 
L 257.530237 64.849216 
L 257.697637 58.702538 
L 257.865037 59.117794 
L 258.199838 63.460753 
L 258.367237 62.716933 
L 258.534637 57.275853 
L 258.702038 59.762397 
L 258.869438 52.785966 
L 259.204237 66.078396 
L 259.371638 56.344912 
L 259.706437 62.273511 
L 259.873837 59.726986 
L 260.208638 63.567743 
L 260.376037 63.476786 
L 260.543437 64.56054 
L 260.710838 67.906224 
L 260.878238 60.783509 
L 261.045637 60.775685 
L 261.213037 62.290004 
L 261.380438 57.631773 
L 261.547838 59.610054 
L 261.715238 60.155323 
L 261.882637 56.73243 
L 262.217438 66.183037 
L 262.384838 63.803154 
L 262.552237 66.358566 
L 262.719638 56.573153 
L 263.054438 66.21783 
L 263.389238 57.170206 
L 263.556638 61.108069 
L 263.724038 69.4153 
L 263.891437 53.354819 
L 264.058838 59.067146 
L 264.226237 69.771996 
L 264.393638 47.126991 
L 264.728438 69.137299 
L 264.895837 51.55629 
L 265.230638 66.51476 
L 265.565437 61.051258 
L 265.732838 66.896274 
L 265.900238 64.654711 
L 266.067637 56.806603 
L 266.235037 65.89674 
L 266.402437 65.379205 
L 266.569838 61.198407 
L 266.904637 62.074986 
L 267.072037 58.710074 
L 267.239438 64.036706 
L 267.406837 60.93273 
L 267.574237 61.105191 
L 267.741637 58.315258 
L 267.909038 58.741469 
L 268.076437 65.191811 
L 268.243837 64.734774 
L 268.411237 57.96512 
L 268.578638 61.745526 
L 268.746037 61.854386 
L 268.913437 57.254828 
L 269.080837 56.167115 
L 269.248238 63.132067 
L 269.415638 63.332666 
L 269.583037 58.07606 
L 269.750437 56.46093 
L 270.085238 61.868311 
L 270.252637 58.421517 
L 270.420037 61.947071 
L 270.754838 57.23721 
L 270.922237 65.870179 
L 271.089637 64.029257 
L 271.257038 58.747342 
L 271.424438 65.703713 
L 271.591837 57.240095 
L 271.759237 62.881071 
L 271.926638 64.523804 
L 272.094037 54.631271 
L 272.428837 65.223008 
L 272.596238 56.959236 
L 272.763637 58.007041 
L 272.931038 55.134356 
L 273.265838 63.266506 
L 273.433237 55.240952 
L 273.600638 58.316261 
L 273.768037 57.282261 
L 273.935437 66.889617 
L 274.270238 55.781449 
L 274.437637 65.921918 
L 274.605037 53.147238 
L 274.772437 53.292361 
L 274.939838 64.013139 
L 275.274637 59.456177 
L 275.442037 56.599064 
L 275.609438 61.073528 
L 275.776837 62.287998 
L 275.944237 58.701718 
L 276.111637 59.248531 
L 276.279038 59.10484 
L 276.446438 65.277093 
L 276.613837 63.664721 
L 276.781237 59.517999 
L 276.948638 68.770274 
L 277.116038 55.993057 
L 277.283437 59.481496 
L 277.450837 66.132764 
L 277.618238 60.348598 
L 277.785638 65.394803 
L 277.953037 53.689874 
L 278.120437 57.909199 
L 278.287838 67.120696 
L 278.455238 56.539659 
L 278.622637 55.602184 
L 278.790037 61.482789 
L 279.124838 56.492893 
L 279.292237 58.237742 
L 279.459637 62.404499 
L 279.627038 55.577699 
L 279.794438 57.11816 
L 279.961838 65.870033 
L 280.129237 60.392959 
L 280.296638 61.229454 
L 280.464038 60.442545 
L 280.631438 51.669682 
L 280.966238 67.20039 
L 281.301038 56.343223 
L 281.468437 59.640658 
L 281.803237 57.167122 
L 281.970638 59.896866 
L 282.138037 60.244939 
L 282.305438 54.730406 
L 282.640238 60.802587 
L 282.807637 56.532252 
L 283.142437 62.286183 
L 283.477238 53.052934 
L 283.644637 62.652423 
L 283.979438 53.030507 
L 284.146838 63.191977 
L 284.314237 61.696769 
L 284.481637 55.609389 
L 284.649038 63.972738 
L 284.816438 62.783779 
L 284.983837 55.584945 
L 285.151237 54.253515 
L 285.318638 60.654612 
L 285.653437 56.058228 
L 285.820837 60.256947 
L 285.988238 56.192472 
L 286.155638 56.625851 
L 286.323037 63.603432 
L 286.657838 56.549573 
L 286.825237 57.352723 
L 286.992638 59.213528 
L 287.160037 58.867046 
L 287.327438 53.718019 
L 287.494837 52.309145 
L 287.662237 54.776799 
L 287.829637 55.192581 
L 287.997037 60.24494 
L 288.164437 58.50617 
L 288.331837 54.909811 
L 288.499237 60.757621 
L 288.666637 60.411288 
L 289.001437 56.205514 
L 289.168837 60.603085 
L 289.336237 59.514303 
L 289.503637 53.208582 
L 289.671037 60.950528 
L 289.838437 60.911646 
L 290.005837 45.883636 
L 290.173237 59.128216 
L 290.340637 61.85464 
L 290.675437 53.295147 
L 290.842837 58.594523 
L 291.010237 60.326499 
L 291.679837 54.19689 
L 292.014637 58.468398 
L 292.182037 57.026583 
L 292.349437 59.950714 
L 292.516838 57.284932 
L 292.684237 57.741043 
L 292.851637 63.452497 
L 293.019037 53.544011 
L 293.186438 50.807079 
L 293.521237 64.156575 
L 293.688637 56.199241 
L 293.856038 61.440569 
L 294.023438 52.025572 
L 294.358237 62.069613 
L 294.525638 52.584345 
L 294.693037 55.90622 
L 295.195238 57.674609 
L 295.362637 61.786279 
L 295.697437 51.948865 
L 295.864837 55.170042 
L 296.032237 62.289634 
L 296.199637 54.88858 
L 296.367037 57.406207 
L 296.534437 56.233341 
L 296.701837 47.364782 
L 297.036637 65.564929 
L 297.371437 55.318015 
L 297.706237 61.23225 
L 297.873637 61.975114 
L 298.041037 54.098805 
L 298.375837 64.349457 
L 298.543237 56.988424 
L 298.710637 60.693257 
L 298.878038 67.468435 
L 299.045437 56.200407 
L 299.212837 55.441865 
L 299.380237 65.395411 
L 299.715037 51.270413 
L 300.049837 60.893272 
L 300.217238 55.476697 
L 300.384637 62.427795 
L 300.719437 53.656443 
L 301.054237 60.616142 
L 301.221637 51.390234 
L 301.556438 63.949932 
L 301.723838 53.434002 
L 301.891237 60.521902 
L 302.058637 61.321504 
L 302.226038 53.170432 
L 302.393438 55.901363 
L 302.560837 55.507191 
L 302.895638 59.233435 
L 303.063038 54.51105 
L 303.230437 54.176384 
L 303.732637 59.171976 
L 303.900037 57.626755 
L 304.067437 51.768147 
L 304.234838 61.780999 
L 304.402237 63.972828 
L 304.737037 55.099186 
L 304.904438 57.51967 
L 305.071837 57.395999 
L 305.239238 61.525805 
L 305.406637 55.008966 
L 305.574037 55.720305 
L 306.076237 61.016713 
L 306.243637 54.389857 
L 306.411037 54.715397 
L 306.578438 55.805484 
L 306.745837 48.969048 
L 306.913237 62.284535 
L 307.248038 54.883335 
L 307.415437 53.337668 
L 307.582837 54.227808 
L 307.750237 61.257682 
L 308.085037 56.714927 
L 308.252437 59.396503 
L 308.419837 56.539319 
L 308.587238 55.939884 
L 308.754638 54.363619 
L 308.922037 59.525747 
L 309.089437 52.579948 
L 309.256837 55.506214 
L 309.424238 61.294333 
L 309.591637 57.293385 
L 309.759037 56.604186 
L 309.926437 62.661419 
L 310.093838 53.523198 
L 310.261237 57.282581 
L 310.428637 64.49181 
L 310.596037 63.467701 
L 310.763438 57.851523 
L 311.098237 63.699048 
L 311.265637 54.629704 
L 311.433038 54.000733 
L 311.600437 61.024938 
L 311.767837 56.466248 
L 311.935237 56.160138 
L 312.102638 60.751654 
L 312.437437 55.08423 
L 312.604837 62.041484 
L 312.772238 57.993294 
L 312.939637 62.595262 
L 313.107037 56.995488 
L 313.274437 57.618033 
L 313.441837 59.243131 
L 313.609237 65.932388 
L 313.776637 58.513013 
L 313.944037 60.79861 
L 314.111437 60.444243 
L 314.278837 61.319972 
L 314.446237 62.929668 
L 314.613637 57.691781 
L 314.781037 59.600772 
L 314.948437 67.312306 
L 315.115837 61.11607 
L 315.283237 60.681745 
L 315.450637 59.565934 
L 315.618037 57.639437 
L 315.785438 58.665498 
L 315.952837 57.32191 
L 316.120237 64.361691 
L 316.287637 54.460809 
L 316.455038 54.635127 
L 316.622437 65.360697 
L 316.789837 57.347014 
L 316.957237 56.540363 
L 317.292037 60.574292 
L 317.459437 56.424111 
L 317.794238 60.921271 
L 317.961637 56.518793 
L 318.296437 62.871037 
L 318.463838 54.026318 
L 318.631237 60.057638 
L 318.798637 61.939058 
L 318.966037 53.989543 
L 319.133438 68.442124 
L 319.468237 55.796152 
L 319.635637 57.500085 
L 319.803038 62.409176 
L 319.970438 54.195635 
L 320.137837 55.916238 
L 320.305237 60.706166 
L 320.472638 46.581725 
L 320.807437 58.912363 
L 320.974837 58.563078 
L 321.142238 57.074573 
L 321.309637 52.099503 
L 321.477037 53.006781 
L 321.644437 62.470944 
L 321.811838 54.490678 
L 322.146637 56.953866 
L 322.314037 52.352989 
L 322.481437 61.993019 
L 322.648837 58.647002 
L 322.816237 60.238003 
L 322.983637 59.799848 
L 323.151037 55.640326 
L 323.318437 61.849215 
L 323.485838 63.552372 
L 323.653237 55.733737 
L 323.820637 57.2699 
L 323.988037 57.156849 
L 324.155438 57.416273 
L 324.490237 52.965227 
L 324.657637 50.683243 
L 324.825038 58.926052 
L 325.159837 56.413147 
L 325.327237 51.569751 
L 325.662037 55.864121 
L 325.829437 52.654296 
L 325.996837 55.258554 
L 326.164238 54.787764 
L 326.331637 48.797147 
L 326.499037 55.73384 
L 326.666437 56.601674 
L 326.833838 54.33811 
L 327.168637 55.064197 
L 327.336037 48.697272 
L 327.503438 57.826752 
L 327.670838 57.875926 
L 327.838237 57.02495 
L 328.005637 47.193754 
L 328.173038 55.535217 
L 328.340438 56.76024 
L 328.507837 51.79718 
L 328.675237 56.074693 
L 328.842638 50.17711 
L 329.010038 52.857895 
L 329.177437 57.337863 
L 329.344837 49.887227 
L 329.512238 56.198526 
L 329.679638 55.881838 
L 329.847037 51.522922 
L 330.014437 58.882842 
L 330.181838 61.221869 
L 330.349238 58.953402 
L 330.516637 51.082589 
L 330.851437 61.950122 
L 331.018837 51.057066 
L 331.353637 60.176603 
L 331.521037 59.07265 
L 331.688437 53.513882 
L 331.855837 60.564796 
L 332.023237 56.354977 
L 332.190637 60.113 
L 332.358037 58.398177 
L 332.525437 60.055469 
L 332.860237 57.553796 
L 333.027637 55.686131 
L 333.195037 59.953566 
L 333.529837 54.068459 
L 333.697237 59.348801 
L 333.864637 57.592671 
L 334.032038 59.690091 
L 334.199437 55.771269 
L 334.534237 60.70861 
L 334.701638 53.425854 
L 334.869037 54.655673 
L 335.036437 63.608411 
L 335.203837 58.379846 
L 335.371238 58.027824 
L 335.706037 56.361779 
L 336.040838 57.39564 
L 336.208237 57.975267 
L 336.375637 59.811603 
L 336.543037 55.994997 
L 336.710438 59.158293 
L 336.877837 59.153794 
L 337.045237 57.377726 
L 337.212637 59.11162 
L 337.380038 56.189573 
L 337.547438 56.992179 
L 337.714837 67.145532 
L 337.882237 58.923145 
L 338.049638 60.864671 
L 338.217038 58.198475 
L 338.384437 59.064547 
L 338.551837 58.464789 
L 338.886637 55.832165 
L 339.054037 59.137767 
L 339.388838 52.951116 
L 339.556237 61.453153 
L 339.891037 50.529649 
L 340.058437 60.500056 
L 340.225837 57.883296 
L 340.393237 59.033214 
L 340.560637 57.528337 
L 340.728037 57.460611 
L 340.895437 55.984331 
L 341.062838 58.799905 
L 341.397637 50.885103 
L 341.732438 61.255581 
L 341.899837 56.263883 
L 342.067237 55.005167 
L 342.234637 61.106849 
L 342.402038 49.760959 
L 342.569437 58.514112 
L 342.736837 60.400736 
L 343.071638 53.229819 
L 343.239037 58.724901 
L 343.406437 56.174815 
L 343.573837 59.543318 
L 343.741238 52.213975 
L 343.908637 54.578235 
L 344.076037 62.044243 
L 344.243437 57.9253 
L 344.410838 57.333082 
L 344.578238 58.861443 
L 344.913037 55.749672 
L 345.080438 57.71718 
L 345.247838 54.276525 
L 345.415237 48.342679 
L 345.750038 62.258676 
L 345.917438 51.257357 
L 346.252237 59.446587 
L 346.419638 54.194364 
L 346.587038 57.039733 
L 346.754437 56.380676 
L 346.921837 57.073675 
L 347.089238 59.078155 
L 347.256638 58.330929 
L 347.424037 58.840663 
L 347.758838 58.03372 
L 347.926237 51.068182 
L 348.261037 63.078986 
L 348.428438 52.628821 
L 348.763238 57.085575 
L 348.930637 54.97611 
L 349.098038 57.241626 
L 349.265437 61.189807 
L 349.600237 51.134544 
L 349.767637 61.69661 
L 349.935037 62.985295 
L 350.269837 54.14547 
L 350.604637 64.706735 
L 350.772038 54.58674 
L 350.939437 61.834169 
L 351.274237 51.368373 
L 351.441638 62.990241 
L 351.609037 54.095702 
L 351.943837 59.297357 
L 352.111237 49.014505 
L 352.278638 58.798428 
L 352.446037 53.896994 
L 352.613437 52.604857 
L 352.780837 53.655488 
L 352.948238 51.564502 
L 353.115637 52.527637 
L 353.283037 51.571502 
L 353.450437 55.38548 
L 353.617838 50.211785 
L 353.785237 52.098199 
L 353.952637 60.058027 
L 354.120037 61.100035 
L 354.287438 51.413985 
L 354.622237 63.035963 
L 354.789637 53.491312 
L 354.957038 55.625063 
L 355.124437 63.01975 
L 355.291837 52.303431 
L 355.459237 52.323983 
L 355.626638 59.231056 
L 355.794037 55.161055 
L 355.961437 57.560184 
L 356.128837 57.977764 
L 356.296238 47.39326 
L 356.463637 58.376718 
L 356.798437 49.83131 
L 356.965838 52.096301 
L 357.133237 50.858851 
L 357.300637 59.428203 
L 357.635437 53.382174 
L 357.802837 55.894402 
L 357.970237 55.108343 
L 358.137637 63.997288 
L 358.305037 52.274583 
L 358.472437 53.783783 
L 358.639837 64.306579 
L 358.807237 47.820192 
L 359.142037 62.870767 
L 359.309438 52.092701 
L 359.476837 60.988269 
L 359.644237 56.069982 
L 359.811637 60.845171 
L 359.979038 55.389914 
L 360.313837 61.10787 
L 360.481237 47.673585 
L 360.816037 61.352892 
L 360.983437 55.189483 
L 361.150837 61.174752 
L 361.318238 52.917235 
L 361.485637 59.57855 
L 361.653037 60.05912 
L 361.820437 51.724557 
L 362.155237 58.153836 
L 362.490037 52.59393 
L 362.657438 54.048323 
L 362.824838 53.249739 
L 362.992237 54.821944 
L 363.159637 59.939497 
L 363.327038 50.970323 
L 363.494438 60.318601 
L 363.661837 59.876065 
L 363.829237 55.71478 
L 363.996638 57.446588 
L 364.164038 57.420075 
L 364.331437 55.661779 
L 364.498837 58.506768 
L 364.666238 56.846393 
L 364.833638 63.326555 
L 365.001037 56.428663 
L 365.168437 59.72795 
L 365.168437 59.72795 
" clip-path="url(#p04d541f07d)" style="fill: none; stroke: #ff7f0e; stroke-width: 1.5; stroke-linecap: square"/>
   </g>
   <g id="patch_3">
    <path d="M 30.368437 253.44 
L 30.368437 36 
" style="fill: none; stroke: #000000; stroke-width: 0.8; stroke-linejoin: miter; stroke-linecap: square"/>
   </g>
   <g id="patch_4">
    <path d="M 365.168437 253.44 
L 365.168437 36 
" style="fill: none; stroke: #000000; stroke-width: 0.8; stroke-linejoin: miter; stroke-linecap: square"/>
   </g>
   <g id="patch_5">
    <path d="M 30.368437 253.44 
L 365.168437 253.44 
" style="fill: none; stroke: #000000; stroke-width: 0.8; stroke-linejoin: miter; stroke-linecap: square"/>
   </g>
   <g id="patch_6">
    <path d="M 30.368437 36 
L 365.168437 36 
" style="fill: none; stroke: #000000; stroke-width: 0.8; stroke-linejoin: miter; stroke-linecap: square"/>
   </g>
   <g id="legend_1">
    <g id="patch_7">
     <path d="M 37.368437 77.078125 
L 87.068437 77.078125 
Q 89.068437 77.078125 89.068437 75.078125 
L 89.068437 43 
Q 89.068437 41 87.068437 41 
L 37.368437 41 
Q 35.368437 41 35.368437 43 
L 35.368437 75.078125 
Q 35.368437 77.078125 37.368437 77.078125 
z
" style="fill: #ffffff; opacity: 0.8; stroke: #cccccc; stroke-linejoin: miter"/>
    </g>
    <g id="line2d_18">
     <path d="M 39.368437 49.098437 
L 49.368437 49.098437 
L 59.368437 49.098437 
" style="fill: none; stroke: #1f77b4; stroke-width: 1.5; stroke-linecap: square"/>
    </g>
    <g id="text_16">
     <!-- $x(t)$ -->
     <g transform="translate(67.368437 52.598437) scale(0.1 -0.1)">
      <defs>
       <path id="DejaVuSans-Oblique-78" d="M 3841 3500 
L 2234 1784 
L 3219 0 
L 2559 0 
L 1819 1388 
L 531 0 
L -166 0 
L 1556 1844 
L 641 3500 
L 1300 3500 
L 1972 2234 
L 3144 3500 
L 3841 3500 
z
" transform="scale(0.015625)"/>
       <path id="DejaVuSans-28" d="M 1984 4856 
Q 1566 4138 1362 3434 
Q 1159 2731 1159 2009 
Q 1159 1288 1364 580 
Q 1569 -128 1984 -844 
L 1484 -844 
Q 1016 -109 783 600 
Q 550 1309 550 2009 
Q 550 2706 781 3412 
Q 1013 4119 1484 4856 
L 1984 4856 
z
" transform="scale(0.015625)"/>
       <path id="DejaVuSans-Oblique-74" d="M 2706 3500 
L 2619 3053 
L 1472 3053 
L 1100 1153 
Q 1081 1047 1072 975 
Q 1063 903 1063 863 
Q 1063 663 1183 572 
Q 1303 481 1569 481 
L 2150 481 
L 2053 0 
L 1503 0 
Q 991 0 739 200 
Q 488 400 488 806 
Q 488 878 497 964 
Q 506 1050 525 1153 
L 897 3053 
L 409 3053 
L 500 3500 
L 978 3500 
L 1172 4494 
L 1747 4494 
L 1556 3500 
L 2706 3500 
z
" transform="scale(0.015625)"/>
       <path id="DejaVuSans-29" d="M 513 4856 
L 1013 4856 
Q 1481 4119 1714 3412 
Q 1947 2706 1947 2009 
Q 1947 1309 1714 600 
Q 1481 -109 1013 -844 
L 513 -844 
Q 928 -128 1133 580 
Q 1338 1288 1338 2009 
Q 1338 2731 1133 3434 
Q 928 4138 513 4856 
z
" transform="scale(0.015625)"/>
      </defs>
      <use xlink:href="#DejaVuSans-Oblique-78" transform="translate(0 0.125)"/>
      <use xlink:href="#DejaVuSans-28" transform="translate(59.179688 0.125)"/>
      <use xlink:href="#DejaVuSans-Oblique-74" transform="translate(98.193359 0.125)"/>
      <use xlink:href="#DejaVuSans-29" transform="translate(137.402344 0.125)"/>
     </g>
    </g>
    <g id="line2d_19">
     <path d="M 39.368437 67.478125 
L 49.368437 67.478125 
L 59.368437 67.478125 
" style="fill: none; stroke: #ff7f0e; stroke-width: 1.5; stroke-linecap: square"/>
    </g>
    <g id="text_17">
     <!-- $\hat{y(t)}$ -->
     <g transform="translate(67.368437 70.978125) scale(0.1 -0.1)">
      <defs>
       <path id="DejaVuSans-302" d="M -1831 5119 
L -1369 5119 
L -603 3944 
L -1038 3944 
L -1600 4709 
L -2163 3944 
L -2597 3944 
L -1831 5119 
z
M -1600 3584 
L -1600 3584 
z
" transform="scale(0.015625)"/>
       <path id="DejaVuSans-Oblique-79" d="M 1588 -325 
Q 1188 -997 936 -1164 
Q 684 -1331 294 -1331 
L -159 -1331 
L -63 -850 
L 269 -850 
Q 509 -850 678 -719 
Q 847 -588 1056 -206 
L 1234 128 
L 459 3500 
L 1069 3500 
L 1650 819 
L 3256 3500 
L 3859 3500 
L 1588 -325 
z
" transform="scale(0.015625)"/>
      </defs>
      <use xlink:href="#DejaVuSans-302" transform="translate(135.682129 33.015625)"/>
      <use xlink:href="#DejaVuSans-Oblique-79" transform="translate(0 0.640625)"/>
      <use xlink:href="#DejaVuSans-28" transform="translate(59.179688 0.640625)"/>
      <use xlink:href="#DejaVuSans-Oblique-74" transform="translate(98.193359 0.640625)"/>
      <use xlink:href="#DejaVuSans-29" transform="translate(137.402344 0.640625)"/>
     </g>
    </g>
   </g>
  </g>
  <g id="text_18">
   <!-- Accumulate to Threshold model with input of 0.1 with rms=3  -->
   <g transform="translate(7.2 16.318125) scale(0.12 -0.12)">
    <defs>
     <path id="DejaVuSans-41" d="M 2188 4044 
L 1331 1722 
L 3047 1722 
L 2188 4044 
z
M 1831 4666 
L 2547 4666 
L 4325 0 
L 3669 0 
L 3244 1197 
L 1141 1197 
L 716 0 
L 50 0 
L 1831 4666 
z
" transform="scale(0.015625)"/>
     <path id="DejaVuSans-63" d="M 3122 3366 
L 3122 2828 
Q 2878 2963 2633 3030 
Q 2388 3097 2138 3097 
Q 1578 3097 1268 2742 
Q 959 2388 959 1747 
Q 959 1106 1268 751 
Q 1578 397 2138 397 
Q 2388 397 2633 464 
Q 2878 531 3122 666 
L 3122 134 
Q 2881 22 2623 -34 
Q 2366 -91 2075 -91 
Q 1284 -91 818 406 
Q 353 903 353 1747 
Q 353 2603 823 3093 
Q 1294 3584 2113 3584 
Q 2378 3584 2631 3529 
Q 2884 3475 3122 3366 
z
" transform="scale(0.015625)"/>
     <path id="DejaVuSans-75" d="M 544 1381 
L 544 3500 
L 1119 3500 
L 1119 1403 
Q 1119 906 1312 657 
Q 1506 409 1894 409 
Q 2359 409 2629 706 
Q 2900 1003 2900 1516 
L 2900 3500 
L 3475 3500 
L 3475 0 
L 2900 0 
L 2900 538 
Q 2691 219 2414 64 
Q 2138 -91 1772 -91 
Q 1169 -91 856 284 
Q 544 659 544 1381 
z
M 1991 3584 
L 1991 3584 
z
" transform="scale(0.015625)"/>
     <path id="DejaVuSans-6d" d="M 3328 2828 
Q 3544 3216 3844 3400 
Q 4144 3584 4550 3584 
Q 5097 3584 5394 3201 
Q 5691 2819 5691 2113 
L 5691 0 
L 5113 0 
L 5113 2094 
Q 5113 2597 4934 2840 
Q 4756 3084 4391 3084 
Q 3944 3084 3684 2787 
Q 3425 2491 3425 1978 
L 3425 0 
L 2847 0 
L 2847 2094 
Q 2847 2600 2669 2842 
Q 2491 3084 2119 3084 
Q 1678 3084 1418 2786 
Q 1159 2488 1159 1978 
L 1159 0 
L 581 0 
L 581 3500 
L 1159 3500 
L 1159 2956 
Q 1356 3278 1631 3431 
Q 1906 3584 2284 3584 
Q 2666 3584 2933 3390 
Q 3200 3197 3328 2828 
z
" transform="scale(0.015625)"/>
     <path id="DejaVuSans-6c" d="M 603 4863 
L 1178 4863 
L 1178 0 
L 603 0 
L 603 4863 
z
" transform="scale(0.015625)"/>
     <path id="DejaVuSans-61" d="M 2194 1759 
Q 1497 1759 1228 1600 
Q 959 1441 959 1056 
Q 959 750 1161 570 
Q 1363 391 1709 391 
Q 2188 391 2477 730 
Q 2766 1069 2766 1631 
L 2766 1759 
L 2194 1759 
z
M 3341 1997 
L 3341 0 
L 2766 0 
L 2766 531 
Q 2569 213 2275 61 
Q 1981 -91 1556 -91 
Q 1019 -91 701 211 
Q 384 513 384 1019 
Q 384 1609 779 1909 
Q 1175 2209 1959 2209 
L 2766 2209 
L 2766 2266 
Q 2766 2663 2505 2880 
Q 2244 3097 1772 3097 
Q 1472 3097 1187 3025 
Q 903 2953 641 2809 
L 641 3341 
Q 956 3463 1253 3523 
Q 1550 3584 1831 3584 
Q 2591 3584 2966 3190 
Q 3341 2797 3341 1997 
z
" transform="scale(0.015625)"/>
     <path id="DejaVuSans-74" d="M 1172 4494 
L 1172 3500 
L 2356 3500 
L 2356 3053 
L 1172 3053 
L 1172 1153 
Q 1172 725 1289 603 
Q 1406 481 1766 481 
L 2356 481 
L 2356 0 
L 1766 0 
Q 1100 0 847 248 
Q 594 497 594 1153 
L 594 3053 
L 172 3053 
L 172 3500 
L 594 3500 
L 594 4494 
L 1172 4494 
z
" transform="scale(0.015625)"/>
     <path id="DejaVuSans-65" d="M 3597 1894 
L 3597 1613 
L 953 1613 
Q 991 1019 1311 708 
Q 1631 397 2203 397 
Q 2534 397 2845 478 
Q 3156 559 3463 722 
L 3463 178 
Q 3153 47 2828 -22 
Q 2503 -91 2169 -91 
Q 1331 -91 842 396 
Q 353 884 353 1716 
Q 353 2575 817 3079 
Q 1281 3584 2069 3584 
Q 2775 3584 3186 3129 
Q 3597 2675 3597 1894 
z
M 3022 2063 
Q 3016 2534 2758 2815 
Q 2500 3097 2075 3097 
Q 1594 3097 1305 2825 
Q 1016 2553 972 2059 
L 3022 2063 
z
" transform="scale(0.015625)"/>
     <path id="DejaVuSans-20" transform="scale(0.015625)"/>
     <path id="DejaVuSans-6f" d="M 1959 3097 
Q 1497 3097 1228 2736 
Q 959 2375 959 1747 
Q 959 1119 1226 758 
Q 1494 397 1959 397 
Q 2419 397 2687 759 
Q 2956 1122 2956 1747 
Q 2956 2369 2687 2733 
Q 2419 3097 1959 3097 
z
M 1959 3584 
Q 2709 3584 3137 3096 
Q 3566 2609 3566 1747 
Q 3566 888 3137 398 
Q 2709 -91 1959 -91 
Q 1206 -91 779 398 
Q 353 888 353 1747 
Q 353 2609 779 3096 
Q 1206 3584 1959 3584 
z
" transform="scale(0.015625)"/>
     <path id="DejaVuSans-54" d="M -19 4666 
L 3928 4666 
L 3928 4134 
L 2272 4134 
L 2272 0 
L 1638 0 
L 1638 4134 
L -19 4134 
L -19 4666 
z
" transform="scale(0.015625)"/>
     <path id="DejaVuSans-68" d="M 3513 2113 
L 3513 0 
L 2938 0 
L 2938 2094 
Q 2938 2591 2744 2837 
Q 2550 3084 2163 3084 
Q 1697 3084 1428 2787 
Q 1159 2491 1159 1978 
L 1159 0 
L 581 0 
L 581 4863 
L 1159 4863 
L 1159 2956 
Q 1366 3272 1645 3428 
Q 1925 3584 2291 3584 
Q 2894 3584 3203 3211 
Q 3513 2838 3513 2113 
z
" transform="scale(0.015625)"/>
     <path id="DejaVuSans-72" d="M 2631 2963 
Q 2534 3019 2420 3045 
Q 2306 3072 2169 3072 
Q 1681 3072 1420 2755 
Q 1159 2438 1159 1844 
L 1159 0 
L 581 0 
L 581 3500 
L 1159 3500 
L 1159 2956 
Q 1341 3275 1631 3429 
Q 1922 3584 2338 3584 
Q 2397 3584 2469 3576 
Q 2541 3569 2628 3553 
L 2631 2963 
z
" transform="scale(0.015625)"/>
     <path id="DejaVuSans-73" d="M 2834 3397 
L 2834 2853 
Q 2591 2978 2328 3040 
Q 2066 3103 1784 3103 
Q 1356 3103 1142 2972 
Q 928 2841 928 2578 
Q 928 2378 1081 2264 
Q 1234 2150 1697 2047 
L 1894 2003 
Q 2506 1872 2764 1633 
Q 3022 1394 3022 966 
Q 3022 478 2636 193 
Q 2250 -91 1575 -91 
Q 1294 -91 989 -36 
Q 684 19 347 128 
L 347 722 
Q 666 556 975 473 
Q 1284 391 1588 391 
Q 1994 391 2212 530 
Q 2431 669 2431 922 
Q 2431 1156 2273 1281 
Q 2116 1406 1581 1522 
L 1381 1569 
Q 847 1681 609 1914 
Q 372 2147 372 2553 
Q 372 3047 722 3315 
Q 1072 3584 1716 3584 
Q 2034 3584 2315 3537 
Q 2597 3491 2834 3397 
z
" transform="scale(0.015625)"/>
     <path id="DejaVuSans-64" d="M 2906 2969 
L 2906 4863 
L 3481 4863 
L 3481 0 
L 2906 0 
L 2906 525 
Q 2725 213 2448 61 
Q 2172 -91 1784 -91 
Q 1150 -91 751 415 
Q 353 922 353 1747 
Q 353 2572 751 3078 
Q 1150 3584 1784 3584 
Q 2172 3584 2448 3432 
Q 2725 3281 2906 2969 
z
M 947 1747 
Q 947 1113 1208 752 
Q 1469 391 1925 391 
Q 2381 391 2643 752 
Q 2906 1113 2906 1747 
Q 2906 2381 2643 2742 
Q 2381 3103 1925 3103 
Q 1469 3103 1208 2742 
Q 947 2381 947 1747 
z
" transform="scale(0.015625)"/>
     <path id="DejaVuSans-77" d="M 269 3500 
L 844 3500 
L 1563 769 
L 2278 3500 
L 2956 3500 
L 3675 769 
L 4391 3500 
L 4966 3500 
L 4050 0 
L 3372 0 
L 2619 2869 
L 1863 0 
L 1184 0 
L 269 3500 
z
" transform="scale(0.015625)"/>
     <path id="DejaVuSans-69" d="M 603 3500 
L 1178 3500 
L 1178 0 
L 603 0 
L 603 3500 
z
M 603 4863 
L 1178 4863 
L 1178 4134 
L 603 4134 
L 603 4863 
z
" transform="scale(0.015625)"/>
     <path id="DejaVuSans-6e" d="M 3513 2113 
L 3513 0 
L 2938 0 
L 2938 2094 
Q 2938 2591 2744 2837 
Q 2550 3084 2163 3084 
Q 1697 3084 1428 2787 
Q 1159 2491 1159 1978 
L 1159 0 
L 581 0 
L 581 3500 
L 1159 3500 
L 1159 2956 
Q 1366 3272 1645 3428 
Q 1925 3584 2291 3584 
Q 2894 3584 3203 3211 
Q 3513 2838 3513 2113 
z
" transform="scale(0.015625)"/>
     <path id="DejaVuSans-70" d="M 1159 525 
L 1159 -1331 
L 581 -1331 
L 581 3500 
L 1159 3500 
L 1159 2969 
Q 1341 3281 1617 3432 
Q 1894 3584 2278 3584 
Q 2916 3584 3314 3078 
Q 3713 2572 3713 1747 
Q 3713 922 3314 415 
Q 2916 -91 2278 -91 
Q 1894 -91 1617 61 
Q 1341 213 1159 525 
z
M 3116 1747 
Q 3116 2381 2855 2742 
Q 2594 3103 2138 3103 
Q 1681 3103 1420 2742 
Q 1159 2381 1159 1747 
Q 1159 1113 1420 752 
Q 1681 391 2138 391 
Q 2594 391 2855 752 
Q 3116 1113 3116 1747 
z
" transform="scale(0.015625)"/>
     <path id="DejaVuSans-66" d="M 2375 4863 
L 2375 4384 
L 1825 4384 
Q 1516 4384 1395 4259 
Q 1275 4134 1275 3809 
L 1275 3500 
L 2222 3500 
L 2222 3053 
L 1275 3053 
L 1275 0 
L 697 0 
L 697 3053 
L 147 3053 
L 147 3500 
L 697 3500 
L 697 3744 
Q 697 4328 969 4595 
Q 1241 4863 1831 4863 
L 2375 4863 
z
" transform="scale(0.015625)"/>
     <path id="DejaVuSans-3d" d="M 678 2906 
L 4684 2906 
L 4684 2381 
L 678 2381 
L 678 2906 
z
M 678 1631 
L 4684 1631 
L 4684 1100 
L 678 1100 
L 678 1631 
z
" transform="scale(0.015625)"/>
     <path id="DejaVuSans-33" d="M 2597 2516 
Q 3050 2419 3304 2112 
Q 3559 1806 3559 1356 
Q 3559 666 3084 287 
Q 2609 -91 1734 -91 
Q 1441 -91 1130 -33 
Q 819 25 488 141 
L 488 750 
Q 750 597 1062 519 
Q 1375 441 1716 441 
Q 2309 441 2620 675 
Q 2931 909 2931 1356 
Q 2931 1769 2642 2001 
Q 2353 2234 1838 2234 
L 1294 2234 
L 1294 2753 
L 1863 2753 
Q 2328 2753 2575 2939 
Q 2822 3125 2822 3475 
Q 2822 3834 2567 4026 
Q 2313 4219 1838 4219 
Q 1578 4219 1281 4162 
Q 984 4106 628 3988 
L 628 4550 
Q 988 4650 1302 4700 
Q 1616 4750 1894 4750 
Q 2613 4750 3031 4423 
Q 3450 4097 3450 3541 
Q 3450 3153 3228 2886 
Q 3006 2619 2597 2516 
z
" transform="scale(0.015625)"/>
    </defs>
    <use xlink:href="#DejaVuSans-41"/>
    <use xlink:href="#DejaVuSans-63" x="66.658203"/>
    <use xlink:href="#DejaVuSans-63" x="121.638672"/>
    <use xlink:href="#DejaVuSans-75" x="176.619141"/>
    <use xlink:href="#DejaVuSans-6d" x="239.998047"/>
    <use xlink:href="#DejaVuSans-75" x="337.410156"/>
    <use xlink:href="#DejaVuSans-6c" x="400.789062"/>
    <use xlink:href="#DejaVuSans-61" x="428.572266"/>
    <use xlink:href="#DejaVuSans-74" x="489.851562"/>
    <use xlink:href="#DejaVuSans-65" x="529.060547"/>
    <use xlink:href="#DejaVuSans-20" x="590.583984"/>
    <use xlink:href="#DejaVuSans-74" x="622.371094"/>
    <use xlink:href="#DejaVuSans-6f" x="661.580078"/>
    <use xlink:href="#DejaVuSans-20" x="722.761719"/>
    <use xlink:href="#DejaVuSans-54" x="754.548828"/>
    <use xlink:href="#DejaVuSans-68" x="815.632812"/>
    <use xlink:href="#DejaVuSans-72" x="879.011719"/>
    <use xlink:href="#DejaVuSans-65" x="917.875"/>
    <use xlink:href="#DejaVuSans-73" x="979.398438"/>
    <use xlink:href="#DejaVuSans-68" x="1031.498047"/>
    <use xlink:href="#DejaVuSans-6f" x="1094.876953"/>
    <use xlink:href="#DejaVuSans-6c" x="1156.058594"/>
    <use xlink:href="#DejaVuSans-64" x="1183.841797"/>
    <use xlink:href="#DejaVuSans-20" x="1247.318359"/>
    <use xlink:href="#DejaVuSans-6d" x="1279.105469"/>
    <use xlink:href="#DejaVuSans-6f" x="1376.517578"/>
    <use xlink:href="#DejaVuSans-64" x="1437.699219"/>
    <use xlink:href="#DejaVuSans-65" x="1501.175781"/>
    <use xlink:href="#DejaVuSans-6c" x="1562.699219"/>
    <use xlink:href="#DejaVuSans-20" x="1590.482422"/>
    <use xlink:href="#DejaVuSans-77" x="1622.269531"/>
    <use xlink:href="#DejaVuSans-69" x="1704.056641"/>
    <use xlink:href="#DejaVuSans-74" x="1731.839844"/>
    <use xlink:href="#DejaVuSans-68" x="1771.048828"/>
    <use xlink:href="#DejaVuSans-20" x="1834.427734"/>
    <use xlink:href="#DejaVuSans-69" x="1866.214844"/>
    <use xlink:href="#DejaVuSans-6e" x="1893.998047"/>
    <use xlink:href="#DejaVuSans-70" x="1957.376953"/>
    <use xlink:href="#DejaVuSans-75" x="2020.853516"/>
    <use xlink:href="#DejaVuSans-74" x="2084.232422"/>
    <use xlink:href="#DejaVuSans-20" x="2123.441406"/>
    <use xlink:href="#DejaVuSans-6f" x="2155.228516"/>
    <use xlink:href="#DejaVuSans-66" x="2216.410156"/>
    <use xlink:href="#DejaVuSans-20" x="2251.615234"/>
    <use xlink:href="#DejaVuSans-30" x="2283.402344"/>
    <use xlink:href="#DejaVuSans-2e" x="2347.025391"/>
    <use xlink:href="#DejaVuSans-31" x="2378.8125"/>
    <use xlink:href="#DejaVuSans-20" x="2442.435547"/>
    <use xlink:href="#DejaVuSans-77" x="2474.222656"/>
    <use xlink:href="#DejaVuSans-69" x="2556.009766"/>
    <use xlink:href="#DejaVuSans-74" x="2583.792969"/>
    <use xlink:href="#DejaVuSans-68" x="2623.001953"/>
    <use xlink:href="#DejaVuSans-20" x="2686.380859"/>
    <use xlink:href="#DejaVuSans-72" x="2718.167969"/>
    <use xlink:href="#DejaVuSans-6d" x="2757.53125"/>
    <use xlink:href="#DejaVuSans-73" x="2854.943359"/>
    <use xlink:href="#DejaVuSans-3d" x="2907.042969"/>
    <use xlink:href="#DejaVuSans-33" x="2990.832031"/>
    <use xlink:href="#DejaVuSans-20" x="3054.455078"/>
   </g>
  </g>
 </g>
 <defs>
  <clipPath id="p04d541f07d">
   <rect x="30.368437" y="36" width="334.8" height="217.44"/>
  </clipPath>
 </defs>
</svg>
