<?xml version="1.0" encoding="utf-8" standalone="no"?>
<!DOCTYPE svg PUBLIC "-//W3C//DTD SVG 1.1//EN"
  "http://www.w3.org/Graphics/SVG/1.1/DTD/svg11.dtd">
<svg xmlns:xlink="http://www.w3.org/1999/xlink" width="399.21375pt" height="277.318125pt" viewBox="0 0 399.21375 277.318125" xmlns="http://www.w3.org/2000/svg" version="1.1">
 <metadata>
  <rdf:RDF xmlns:dc="http://purl.org/dc/elements/1.1/" xmlns:cc="http://creativecommons.org/ns#" xmlns:rdf="http://www.w3.org/1999/02/22-rdf-syntax-ns#">
   <cc:Work>
    <dc:type rdf:resource="http://purl.org/dc/dcmitype/StillImage"/>
    <dc:date>2022-11-17T12:42:11.217515</dc:date>
    <dc:format>image/svg+xml</dc:format>
    <dc:creator>
     <cc:Agent>
      <dc:title>Matplotlib v3.6.0, https://matplotlib.org/</dc:title>
     </cc:Agent>
    </dc:creator>
   </cc:Work>
  </rdf:RDF>
 </metadata>
 <defs>
  <style type="text/css">*{stroke-linejoin: round; stroke-linecap: butt}</style>
 </defs>
 <g id="figure_1">
  <g id="patch_1">
   <path d="M 0 277.318125 
L 399.21375 277.318125 
L 399.21375 0 
L 0 0 
L 0 277.318125 
z
" style="fill: none"/>
  </g>
  <g id="axes_1">
   <g id="patch_2">
    <path d="M 44.845313 253.44 
L 379.645313 253.44 
L 379.645313 36 
L 44.845313 36 
z
" style="fill: #ffffff"/>
   </g>
   <g id="matplotlib.axis_1">
    <g id="xtick_1">
     <g id="line2d_1">
      <defs>
       <path id="me74d3727f9" d="M 0 0 
L 0 3.5 
" style="stroke: #000000; stroke-width: 0.8"/>
      </defs>
      <g>
       <use xlink:href="#me74d3727f9" x="44.845313" y="253.44" style="stroke: #000000; stroke-width: 0.8"/>
      </g>
     </g>
     <g id="text_1">
      <!-- 0.00 -->
      <g transform="translate(33.7125 268.038437) scale(0.1 -0.1)">
       <defs>
        <path id="DejaVuSans-30" d="M 2034 4250 
Q 1547 4250 1301 3770 
Q 1056 3291 1056 2328 
Q 1056 1369 1301 889 
Q 1547 409 2034 409 
Q 2525 409 2770 889 
Q 3016 1369 3016 2328 
Q 3016 3291 2770 3770 
Q 2525 4250 2034 4250 
z
M 2034 4750 
Q 2819 4750 3233 4129 
Q 3647 3509 3647 2328 
Q 3647 1150 3233 529 
Q 2819 -91 2034 -91 
Q 1250 -91 836 529 
Q 422 1150 422 2328 
Q 422 3509 836 4129 
Q 1250 4750 2034 4750 
z
" transform="scale(0.015625)"/>
        <path id="DejaVuSans-2e" d="M 684 794 
L 1344 794 
L 1344 0 
L 684 0 
L 684 794 
z
" transform="scale(0.015625)"/>
       </defs>
       <use xlink:href="#DejaVuSans-30"/>
       <use xlink:href="#DejaVuSans-2e" x="63.623047"/>
       <use xlink:href="#DejaVuSans-30" x="95.410156"/>
       <use xlink:href="#DejaVuSans-30" x="159.033203"/>
      </g>
     </g>
    </g>
    <g id="xtick_2">
     <g id="line2d_2">
      <g>
       <use xlink:href="#me74d3727f9" x="86.695313" y="253.44" style="stroke: #000000; stroke-width: 0.8"/>
      </g>
     </g>
     <g id="text_2">
      <!-- 0.25 -->
      <g transform="translate(75.5625 268.038437) scale(0.1 -0.1)">
       <defs>
        <path id="DejaVuSans-32" d="M 1228 531 
L 3431 531 
L 3431 0 
L 469 0 
L 469 531 
Q 828 903 1448 1529 
Q 2069 2156 2228 2338 
Q 2531 2678 2651 2914 
Q 2772 3150 2772 3378 
Q 2772 3750 2511 3984 
Q 2250 4219 1831 4219 
Q 1534 4219 1204 4116 
Q 875 4013 500 3803 
L 500 4441 
Q 881 4594 1212 4672 
Q 1544 4750 1819 4750 
Q 2544 4750 2975 4387 
Q 3406 4025 3406 3419 
Q 3406 3131 3298 2873 
Q 3191 2616 2906 2266 
Q 2828 2175 2409 1742 
Q 1991 1309 1228 531 
z
" transform="scale(0.015625)"/>
        <path id="DejaVuSans-35" d="M 691 4666 
L 3169 4666 
L 3169 4134 
L 1269 4134 
L 1269 2991 
Q 1406 3038 1543 3061 
Q 1681 3084 1819 3084 
Q 2600 3084 3056 2656 
Q 3513 2228 3513 1497 
Q 3513 744 3044 326 
Q 2575 -91 1722 -91 
Q 1428 -91 1123 -41 
Q 819 9 494 109 
L 494 744 
Q 775 591 1075 516 
Q 1375 441 1709 441 
Q 2250 441 2565 725 
Q 2881 1009 2881 1497 
Q 2881 1984 2565 2268 
Q 2250 2553 1709 2553 
Q 1456 2553 1204 2497 
Q 953 2441 691 2322 
L 691 4666 
z
" transform="scale(0.015625)"/>
       </defs>
       <use xlink:href="#DejaVuSans-30"/>
       <use xlink:href="#DejaVuSans-2e" x="63.623047"/>
       <use xlink:href="#DejaVuSans-32" x="95.410156"/>
       <use xlink:href="#DejaVuSans-35" x="159.033203"/>
      </g>
     </g>
    </g>
    <g id="xtick_3">
     <g id="line2d_3">
      <g>
       <use xlink:href="#me74d3727f9" x="128.545313" y="253.44" style="stroke: #000000; stroke-width: 0.8"/>
      </g>
     </g>
     <g id="text_3">
      <!-- 0.50 -->
      <g transform="translate(117.4125 268.038437) scale(0.1 -0.1)">
       <use xlink:href="#DejaVuSans-30"/>
       <use xlink:href="#DejaVuSans-2e" x="63.623047"/>
       <use xlink:href="#DejaVuSans-35" x="95.410156"/>
       <use xlink:href="#DejaVuSans-30" x="159.033203"/>
      </g>
     </g>
    </g>
    <g id="xtick_4">
     <g id="line2d_4">
      <g>
       <use xlink:href="#me74d3727f9" x="170.395313" y="253.44" style="stroke: #000000; stroke-width: 0.8"/>
      </g>
     </g>
     <g id="text_4">
      <!-- 0.75 -->
      <g transform="translate(159.2625 268.038437) scale(0.1 -0.1)">
       <defs>
        <path id="DejaVuSans-37" d="M 525 4666 
L 3525 4666 
L 3525 4397 
L 1831 0 
L 1172 0 
L 2766 4134 
L 525 4134 
L 525 4666 
z
" transform="scale(0.015625)"/>
       </defs>
       <use xlink:href="#DejaVuSans-30"/>
       <use xlink:href="#DejaVuSans-2e" x="63.623047"/>
       <use xlink:href="#DejaVuSans-37" x="95.410156"/>
       <use xlink:href="#DejaVuSans-35" x="159.033203"/>
      </g>
     </g>
    </g>
    <g id="xtick_5">
     <g id="line2d_5">
      <g>
       <use xlink:href="#me74d3727f9" x="212.245313" y="253.44" style="stroke: #000000; stroke-width: 0.8"/>
      </g>
     </g>
     <g id="text_5">
      <!-- 1.00 -->
      <g transform="translate(201.1125 268.038437) scale(0.1 -0.1)">
       <defs>
        <path id="DejaVuSans-31" d="M 794 531 
L 1825 531 
L 1825 4091 
L 703 3866 
L 703 4441 
L 1819 4666 
L 2450 4666 
L 2450 531 
L 3481 531 
L 3481 0 
L 794 0 
L 794 531 
z
" transform="scale(0.015625)"/>
       </defs>
       <use xlink:href="#DejaVuSans-31"/>
       <use xlink:href="#DejaVuSans-2e" x="63.623047"/>
       <use xlink:href="#DejaVuSans-30" x="95.410156"/>
       <use xlink:href="#DejaVuSans-30" x="159.033203"/>
      </g>
     </g>
    </g>
    <g id="xtick_6">
     <g id="line2d_6">
      <g>
       <use xlink:href="#me74d3727f9" x="254.095313" y="253.44" style="stroke: #000000; stroke-width: 0.8"/>
      </g>
     </g>
     <g id="text_6">
      <!-- 1.25 -->
      <g transform="translate(242.9625 268.038437) scale(0.1 -0.1)">
       <use xlink:href="#DejaVuSans-31"/>
       <use xlink:href="#DejaVuSans-2e" x="63.623047"/>
       <use xlink:href="#DejaVuSans-32" x="95.410156"/>
       <use xlink:href="#DejaVuSans-35" x="159.033203"/>
      </g>
     </g>
    </g>
    <g id="xtick_7">
     <g id="line2d_7">
      <g>
       <use xlink:href="#me74d3727f9" x="295.945313" y="253.44" style="stroke: #000000; stroke-width: 0.8"/>
      </g>
     </g>
     <g id="text_7">
      <!-- 1.50 -->
      <g transform="translate(284.8125 268.038437) scale(0.1 -0.1)">
       <use xlink:href="#DejaVuSans-31"/>
       <use xlink:href="#DejaVuSans-2e" x="63.623047"/>
       <use xlink:href="#DejaVuSans-35" x="95.410156"/>
       <use xlink:href="#DejaVuSans-30" x="159.033203"/>
      </g>
     </g>
    </g>
    <g id="xtick_8">
     <g id="line2d_8">
      <g>
       <use xlink:href="#me74d3727f9" x="337.795313" y="253.44" style="stroke: #000000; stroke-width: 0.8"/>
      </g>
     </g>
     <g id="text_8">
      <!-- 1.75 -->
      <g transform="translate(326.6625 268.038437) scale(0.1 -0.1)">
       <use xlink:href="#DejaVuSans-31"/>
       <use xlink:href="#DejaVuSans-2e" x="63.623047"/>
       <use xlink:href="#DejaVuSans-37" x="95.410156"/>
       <use xlink:href="#DejaVuSans-35" x="159.033203"/>
      </g>
     </g>
    </g>
    <g id="xtick_9">
     <g id="line2d_9">
      <g>
       <use xlink:href="#me74d3727f9" x="379.645313" y="253.44" style="stroke: #000000; stroke-width: 0.8"/>
      </g>
     </g>
     <g id="text_9">
      <!-- 2.00 -->
      <g transform="translate(368.5125 268.038437) scale(0.1 -0.1)">
       <use xlink:href="#DejaVuSans-32"/>
       <use xlink:href="#DejaVuSans-2e" x="63.623047"/>
       <use xlink:href="#DejaVuSans-30" x="95.410156"/>
       <use xlink:href="#DejaVuSans-30" x="159.033203"/>
      </g>
     </g>
    </g>
   </g>
   <g id="matplotlib.axis_2">
    <g id="ytick_1">
     <g id="line2d_10">
      <defs>
       <path id="m725944d441" d="M 0 0 
L -3.5 0 
" style="stroke: #000000; stroke-width: 0.8"/>
      </defs>
      <g>
       <use xlink:href="#m725944d441" x="44.845313" y="236.486723" style="stroke: #000000; stroke-width: 0.8"/>
      </g>
     </g>
     <g id="text_10">
      <!-- −0.05 -->
      <g transform="translate(7.2 240.285941) scale(0.1 -0.1)">
       <defs>
        <path id="DejaVuSans-2212" d="M 678 2272 
L 4684 2272 
L 4684 1741 
L 678 1741 
L 678 2272 
z
" transform="scale(0.015625)"/>
       </defs>
       <use xlink:href="#DejaVuSans-2212"/>
       <use xlink:href="#DejaVuSans-30" x="83.789062"/>
       <use xlink:href="#DejaVuSans-2e" x="147.412109"/>
       <use xlink:href="#DejaVuSans-30" x="179.199219"/>
       <use xlink:href="#DejaVuSans-35" x="242.822266"/>
      </g>
     </g>
    </g>
    <g id="ytick_2">
     <g id="line2d_11">
      <g>
       <use xlink:href="#m725944d441" x="44.845313" y="194.86077" style="stroke: #000000; stroke-width: 0.8"/>
      </g>
     </g>
     <g id="text_11">
      <!-- 0.00 -->
      <g transform="translate(15.579688 198.659989) scale(0.1 -0.1)">
       <use xlink:href="#DejaVuSans-30"/>
       <use xlink:href="#DejaVuSans-2e" x="63.623047"/>
       <use xlink:href="#DejaVuSans-30" x="95.410156"/>
       <use xlink:href="#DejaVuSans-30" x="159.033203"/>
      </g>
     </g>
    </g>
    <g id="ytick_3">
     <g id="line2d_12">
      <g>
       <use xlink:href="#m725944d441" x="44.845313" y="153.234817" style="stroke: #000000; stroke-width: 0.8"/>
      </g>
     </g>
     <g id="text_12">
      <!-- 0.05 -->
      <g transform="translate(15.579688 157.034036) scale(0.1 -0.1)">
       <use xlink:href="#DejaVuSans-30"/>
       <use xlink:href="#DejaVuSans-2e" x="63.623047"/>
       <use xlink:href="#DejaVuSans-30" x="95.410156"/>
       <use xlink:href="#DejaVuSans-35" x="159.033203"/>
      </g>
     </g>
    </g>
    <g id="ytick_4">
     <g id="line2d_13">
      <g>
       <use xlink:href="#m725944d441" x="44.845313" y="111.608864" style="stroke: #000000; stroke-width: 0.8"/>
      </g>
     </g>
     <g id="text_13">
      <!-- 0.10 -->
      <g transform="translate(15.579688 115.408083) scale(0.1 -0.1)">
       <use xlink:href="#DejaVuSans-30"/>
       <use xlink:href="#DejaVuSans-2e" x="63.623047"/>
       <use xlink:href="#DejaVuSans-31" x="95.410156"/>
       <use xlink:href="#DejaVuSans-30" x="159.033203"/>
      </g>
     </g>
    </g>
    <g id="ytick_5">
     <g id="line2d_14">
      <g>
       <use xlink:href="#m725944d441" x="44.845313" y="69.982911" style="stroke: #000000; stroke-width: 0.8"/>
      </g>
     </g>
     <g id="text_14">
      <!-- 0.15 -->
      <g transform="translate(15.579688 73.78213) scale(0.1 -0.1)">
       <use xlink:href="#DejaVuSans-30"/>
       <use xlink:href="#DejaVuSans-2e" x="63.623047"/>
       <use xlink:href="#DejaVuSans-31" x="95.410156"/>
       <use xlink:href="#DejaVuSans-35" x="159.033203"/>
      </g>
     </g>
    </g>
   </g>
   <g id="line2d_15">
    <path d="M 45.012713 194.86077 
L 45.180113 220.39594 
L 45.347513 225.002071 
L 45.514913 243.556364 
L 45.682313 187.630502 
L 45.849713 197.385802 
L 46.017113 216.887615 
L 46.184513 222.288144 
L 46.351913 215.949385 
L 46.519313 172.606397 
L 46.686713 193.884167 
L 46.854113 163.823601 
L 47.021513 167.564909 
L 47.188913 178.764213 
L 47.356313 172.532265 
L 47.691113 128.450824 
L 48.025913 145.28048 
L 48.193313 173.581606 
L 48.360713 176.490858 
L 48.528113 183.909239 
L 48.695513 169.578448 
L 48.862913 171.984379 
L 49.030313 162.458668 
L 49.197713 131.733303 
L 49.365113 151.575744 
L 49.532513 134.219867 
L 49.867313 130.920609 
L 50.034713 177.06546 
L 50.369513 133.486621 
L 50.536913 163.559712 
L 50.871713 133.236169 
L 51.039113 139.100525 
L 51.206513 161.345859 
L 51.541313 131.405998 
L 51.708713 115.672794 
L 52.043513 174.856877 
L 52.378313 114.795707 
L 52.880513 163.109126 
L 53.047913 151.961372 
L 53.215313 126.634798 
L 53.550113 173.116614 
L 53.884913 133.535312 
L 54.052313 143.196261 
L 54.219713 159.428232 
L 54.387113 117.405501 
L 54.554513 115.793567 
L 54.889313 146.94702 
L 55.056713 150.60745 
L 55.391513 119.290413 
L 55.726313 161.352794 
L 56.061113 117.286694 
L 56.228513 150.781065 
L 56.395913 113.474905 
L 56.730713 103.372169 
L 57.065513 156.426775 
L 57.400313 85.251765 
L 57.735113 116.003022 
L 57.902513 80.861486 
L 58.069913 104.062953 
L 58.237313 106.693301 
L 58.572113 96.147058 
L 58.739513 82.63951 
L 59.241713 156.54831 
L 59.576513 114.12429 
L 59.743913 115.594825 
L 59.911313 140.077022 
L 60.078713 132.202906 
L 60.246113 145.648255 
L 60.413513 135.621026 
L 60.580913 146.345361 
L 60.915713 119.873643 
L 61.083113 142.804601 
L 61.250513 127.103801 
L 61.417913 138.830039 
L 61.585313 126.484132 
L 61.752713 178.406369 
L 61.920113 165.668366 
L 62.087513 137.74979 
L 62.254913 188.88886 
L 62.422313 152.911582 
L 62.589713 156.903575 
L 62.757113 157.41111 
L 62.924513 178.75754 
L 63.259313 116.073928 
L 63.426713 150.543099 
L 63.761513 132.761455 
L 64.096313 98.601642 
L 64.263713 131.409596 
L 64.431113 141.375563 
L 64.598513 141.173075 
L 64.765913 135.803544 
L 64.933313 110.210853 
L 65.100713 112.199912 
L 65.435513 148.481863 
L 65.602913 132.731088 
L 65.770313 141.914478 
L 65.937713 102.862906 
L 66.272513 110.198714 
L 66.439913 126.377621 
L 66.774713 95.804443 
L 66.942113 101.690127 
L 67.109513 99.478433 
L 67.276913 130.040598 
L 67.611713 90.890676 
L 67.779113 97.485164 
L 67.946513 93.316597 
L 68.113913 113.967198 
L 68.281313 90.404642 
L 68.448713 101.043307 
L 68.616113 74.49555 
L 68.950913 150.720692 
L 69.118313 146.131611 
L 69.453113 112.066141 
L 69.787913 141.180596 
L 70.122713 92.918043 
L 70.290113 100.997838 
L 70.457513 121.79681 
L 70.624913 122.105591 
L 70.792313 132.25629 
L 70.959713 99.557222 
L 71.127113 122.509292 
L 71.294513 124.987709 
L 71.461913 106.237852 
L 71.629313 99.982701 
L 71.796713 108.160599 
L 71.964113 88.053574 
L 72.633713 126.091445 
L 72.968513 104.923265 
L 73.135913 76.301462 
L 73.303313 123.415888 
L 73.470713 126.323833 
L 73.638113 127.145468 
L 73.805513 114.613229 
L 73.972913 143.806093 
L 74.140313 142.769848 
L 74.307713 110.573314 
L 74.642513 140.306217 
L 74.809913 128.836535 
L 74.977313 140.010662 
L 75.144713 124.895966 
L 75.312113 124.920415 
L 75.479513 98.200918 
L 75.646913 99.96483 
L 75.981713 89.336317 
L 76.149113 115.383595 
L 76.316513 95.647922 
L 76.483913 97.471271 
L 76.651313 97.154303 
L 76.986113 119.510892 
L 77.153513 135.938016 
L 77.320913 106.289661 
L 77.488313 103.802263 
L 77.655713 85.604155 
L 77.823113 80.118082 
L 77.990513 63.278356 
L 78.157913 78.285927 
L 78.325313 81.749127 
L 78.492713 116.574454 
L 78.827513 81.747494 
L 79.162313 124.88203 
L 79.329713 99.896196 
L 79.497113 118.432211 
L 79.664513 72.719276 
L 79.831913 105.594311 
L 79.999313 106.942997 
L 80.166713 101.474539 
L 80.334113 120.064227 
L 80.501513 100.026618 
L 80.668913 100.002425 
L 80.836313 79.958956 
L 81.003713 97.503856 
L 81.338513 67.614843 
L 81.673313 119.639934 
L 81.840713 122.350166 
L 82.008113 120.823515 
L 82.175513 98.543566 
L 82.342913 134.602945 
L 82.510313 126.856026 
L 82.677713 166.124162 
L 83.012513 125.850443 
L 83.179913 126.209666 
L 83.347313 127.297584 
L 83.514713 140.274955 
L 83.849513 94.577207 
L 84.184313 139.25099 
L 84.351713 139.446162 
L 84.519113 156.476458 
L 84.686513 141.396402 
L 84.853913 102.512005 
L 85.021313 108.706817 
L 85.356113 152.443474 
L 85.523513 103.791844 
L 85.690913 87.474374 
L 86.025713 146.049217 
L 86.193113 111.339427 
L 86.360513 115.341909 
L 86.527913 101.42446 
L 86.695313 124.744326 
L 87.030113 83.12468 
L 87.197513 110.695323 
L 87.532313 120.362456 
L 87.699713 103.721966 
L 87.867113 107.06852 
L 88.034513 101.443907 
L 88.369313 147.462803 
L 88.536713 115.798399 
L 88.871513 114.417137 
L 89.038913 142.748764 
L 89.206313 110.945779 
L 89.373713 128.538701 
L 89.541113 125.217516 
L 89.708513 146.405593 
L 90.210713 106.465991 
L 90.378113 107.286538 
L 90.545513 112.266886 
L 90.712913 81.833557 
L 91.047713 140.941567 
L 91.382513 117.235774 
L 91.549913 119.512332 
L 91.717313 124.402041 
L 91.884713 107.85771 
L 92.052113 114.495454 
L 92.219513 126.658525 
L 92.386913 124.196761 
L 92.554313 115.855424 
L 92.721713 132.872717 
L 92.889113 127.671288 
L 93.056513 135.895936 
L 93.223913 126.126687 
L 93.391313 141.317831 
L 93.558713 141.271169 
L 93.726113 130.747561 
L 93.893513 132.546412 
L 94.060913 102.939732 
L 94.228313 129.360502 
L 94.395713 125.67993 
L 94.563113 132.738364 
L 94.730513 122.779491 
L 95.065313 137.13565 
L 95.232713 134.705946 
L 95.400113 122.860808 
L 95.734913 139.259921 
L 95.902313 132.726579 
L 96.069713 133.316683 
L 96.237113 119.550605 
L 96.404513 120.037982 
L 96.571913 126.055677 
L 96.739313 145.580079 
L 97.074113 95.698651 
L 97.241513 139.38496 
L 97.408913 141.757095 
L 97.576313 121.246119 
L 97.743713 121.362172 
L 97.911113 143.587871 
L 98.078513 129.46176 
L 98.245913 137.147765 
L 98.413313 158.686709 
L 98.580713 139.54918 
L 98.915513 160.405857 
L 99.082913 167.379952 
L 99.250313 165.838025 
L 99.417713 145.058845 
L 99.585113 160.533499 
L 99.752513 148.256546 
L 99.919913 169.647329 
L 100.254713 136.397337 
L 100.589513 157.047634 
L 100.756913 141.229723 
L 101.091713 149.078701 
L 101.259113 110.440368 
L 101.426513 105.102276 
L 101.761313 139.594222 
L 101.928713 142.804631 
L 102.096113 136.061326 
L 102.765713 171.011713 
L 103.267913 139.707778 
L 103.602713 166.396896 
L 103.770113 149.917717 
L 103.937513 121.743143 
L 104.272313 155.14266 
L 104.439713 105.656647 
L 104.607113 122.086125 
L 104.774513 118.628967 
L 104.941913 123.009853 
L 105.109313 85.57297 
L 105.276713 119.460008 
L 105.444113 86.881689 
L 105.778913 70.395592 
L 106.113713 91.051713 
L 106.281113 95.352103 
L 106.448513 114.62358 
L 106.783313 79.69647 
L 106.950713 103.131361 
L 107.118113 106.640389 
L 107.285513 105.050448 
L 107.452913 118.99155 
L 107.620313 55.558527 
L 107.955113 129.209845 
L 108.122513 126.667686 
L 108.457313 118.841214 
L 108.624713 101.060385 
L 108.792113 100.603866 
L 108.959513 119.420873 
L 109.126913 118.959023 
L 109.294313 103.726526 
L 109.461713 104.417678 
L 109.629113 117.669888 
L 109.796513 89.662656 
L 109.963913 110.722121 
L 110.131313 103.957864 
L 110.298713 117.25383 
L 110.466113 95.230116 
L 110.633513 98.555546 
L 110.968313 146.386985 
L 111.135713 86.783113 
L 111.303113 99.956138 
L 111.470513 90.717199 
L 111.637913 106.715308 
L 111.805313 84.685371 
L 112.140113 112.843111 
L 112.307513 119.374971 
L 112.642313 89.743555 
L 112.977113 103.926784 
L 113.144513 87.985142 
L 113.311913 83.471194 
L 113.646713 105.580715 
L 113.814113 88.097237 
L 113.981513 110.001074 
L 114.148913 107.295451 
L 114.316313 134.012091 
L 114.483713 97.90181 
L 114.651113 118.051439 
L 114.818513 120.46408 
L 114.985913 167.309064 
L 115.153313 130.473621 
L 115.320713 146.099809 
L 115.822913 110.259714 
L 115.990313 117.671161 
L 116.157713 86.070988 
L 116.492513 130.843663 
L 116.659913 105.622089 
L 116.827313 98.101601 
L 116.994713 123.435605 
L 117.162113 127.530378 
L 117.329513 122.829675 
L 117.496913 126.794816 
L 117.664313 127.088198 
L 117.999113 133.09676 
L 118.166513 153.646549 
L 118.333913 134.916257 
L 118.501313 134.971859 
L 118.668713 165.699847 
L 119.003513 161.601442 
L 119.170913 134.999789 
L 119.338313 133.468185 
L 119.505713 129.40352 
L 119.673113 121.597278 
L 119.840513 133.379371 
L 120.007913 120.005994 
L 120.175313 122.438597 
L 120.342713 116.438358 
L 120.510113 114.723551 
L 120.677513 127.141493 
L 120.844913 81.990669 
L 121.179713 120.619295 
L 121.347113 69.744466 
L 121.681913 100.268491 
L 121.849313 90.210066 
L 122.016713 99.800647 
L 122.184113 118.086668 
L 122.351513 112.711139 
L 122.853713 142.640037 
L 123.021113 173.764115 
L 123.188513 146.085347 
L 123.355913 90.712289 
L 123.523313 113.855699 
L 123.690713 157.650616 
L 123.858113 148.458533 
L 124.192913 124.342671 
L 124.527713 145.065504 
L 124.695113 122.733436 
L 124.862513 124.898914 
L 125.029913 147.344402 
L 125.197313 150.681529 
L 125.364713 99.973539 
L 125.532113 84.141835 
L 125.699513 85.048012 
L 125.866913 111.828776 
L 126.034313 104.469451 
L 126.201713 72.775861 
L 126.536513 116.465802 
L 126.703913 136.820061 
L 126.871313 134.752037 
L 127.038713 116.440598 
L 127.206113 124.890879 
L 127.373513 126.407448 
L 127.540913 86.660721 
L 127.708313 83.213492 
L 128.043113 124.732805 
L 128.210513 115.263249 
L 128.377913 114.724578 
L 128.545313 113.560776 
L 128.712713 114.10665 
L 128.880113 115.810195 
L 129.214913 101.990299 
L 129.382313 116.632812 
L 129.549713 81.742337 
L 129.717113 120.784218 
L 129.884513 122.075393 
L 130.051913 107.59152 
L 130.219313 108.32212 
L 130.386713 103.632703 
L 130.721513 117.913203 
L 130.888913 95.46508 
L 131.056313 91.895287 
L 131.391113 114.691986 
L 131.558513 113.603723 
L 131.725913 133.287813 
L 131.893313 167.730895 
L 132.228113 145.929629 
L 132.395513 140.856692 
L 132.562913 152.534671 
L 132.897713 143.152857 
L 133.065113 138.33326 
L 133.399913 121.424975 
L 133.902113 178.583036 
L 134.069513 143.892953 
L 134.236913 143.895769 
L 134.404313 124.955856 
L 134.571713 139.285128 
L 134.739113 107.575156 
L 134.906513 127.851991 
L 135.073913 125.352351 
L 135.241313 136.704825 
L 135.408713 88.565455 
L 135.743513 140.579606 
L 135.910913 97.261817 
L 136.245713 157.750083 
L 136.413113 160.096978 
L 136.580513 121.867404 
L 136.747913 124.531957 
L 137.082713 160.951999 
L 137.417513 126.406433 
L 137.584913 136.77975 
L 137.752313 111.840873 
L 137.919713 142.767844 
L 138.254513 117.627009 
L 138.421913 141.082522 
L 138.589313 114.157003 
L 138.924113 149.136656 
L 139.091513 113.656099 
L 139.258913 125.085045 
L 139.426313 115.64423 
L 139.593713 112.607937 
L 139.761113 127.413755 
L 139.928513 112.452695 
L 140.095913 110.562391 
L 140.263313 109.998942 
L 140.598113 130.356492 
L 140.765513 139.816647 
L 140.932913 108.045424 
L 141.100313 108.883644 
L 141.267713 80.601068 
L 141.435113 110.660769 
L 141.602513 105.912436 
L 141.769913 118.875779 
L 141.937313 85.570225 
L 142.104713 100.775114 
L 142.272113 101.251866 
L 142.439513 130.79243 
L 142.606913 125.450022 
L 142.941713 104.199974 
L 143.109113 144.51122 
L 143.276513 124.64149 
L 143.443913 140.822679 
L 143.611313 130.058173 
L 143.778713 140.17856 
L 143.946113 109.146687 
L 144.113513 130.954389 
L 144.280913 124.302788 
L 144.448313 110.582246 
L 144.615713 119.520776 
L 144.783113 141.846418 
L 144.950513 142.797499 
L 145.117913 101.911937 
L 145.285313 99.372868 
L 145.452713 113.467877 
L 145.620113 146.381078 
L 145.787513 109.660727 
L 145.954913 107.86971 
L 146.122313 137.750441 
L 146.289713 141.257539 
L 146.457113 97.04757 
L 146.624513 102.806633 
L 146.959313 117.21127 
L 147.126713 118.573006 
L 147.294113 100.970854 
L 147.628913 120.655013 
L 147.796313 117.03303 
L 147.963713 108.667841 
L 148.131113 113.530912 
L 148.633313 153.006723 
L 148.800713 143.411805 
L 148.968113 120.60514 
L 149.135513 136.091678 
L 149.302913 128.453088 
L 149.470313 151.133453 
L 149.637713 118.328686 
L 149.805113 141.450099 
L 150.139913 129.141085 
L 150.307313 91.554274 
L 150.474713 94.783139 
L 150.809513 150.005911 
L 150.976913 130.462628 
L 151.144313 156.434021 
L 151.311713 150.403868 
L 151.479113 138.860056 
L 151.646513 140.743349 
L 151.813913 167.928864 
L 151.981313 118.91078 
L 152.148713 104.731068 
L 152.316113 125.011877 
L 152.483513 123.69295 
L 152.650913 137.498043 
L 152.818313 109.801042 
L 152.985713 117.438507 
L 153.153113 140.991747 
L 153.320513 127.589169 
L 153.487913 104.703378 
L 153.655313 113.282988 
L 153.822713 161.905512 
L 154.157513 94.870716 
L 154.827113 165.444092 
L 154.994513 131.277488 
L 155.161913 121.604651 
L 155.329313 132.13131 
L 155.496713 124.820892 
L 155.664113 147.115535 
L 155.831513 145.309903 
L 155.998913 94.959735 
L 156.333713 135.829649 
L 156.501113 126.766116 
L 156.835913 120.71409 
L 157.003313 132.844278 
L 157.170713 101.602404 
L 157.338113 118.272311 
L 157.672913 104.957001 
L 157.840313 126.023299 
L 158.007713 116.669626 
L 158.175113 115.34565 
L 158.342513 144.894886 
L 158.509913 118.724728 
L 159.012113 150.278073 
L 159.179513 117.052449 
L 159.849113 153.063249 
L 160.016513 146.5473 
L 160.183913 150.410509 
L 160.518713 179.827226 
L 160.853513 150.590251 
L 161.020913 129.067332 
L 161.188313 140.456158 
L 161.355713 134.08973 
L 161.523113 115.132532 
L 161.690513 122.923549 
L 161.857913 108.339758 
L 162.025313 110.029223 
L 162.192713 127.096586 
L 162.360113 125.362082 
L 162.527513 101.28023 
L 162.694913 107.804344 
L 162.862313 77.185932 
L 163.029713 119.5593 
L 163.197113 108.048556 
L 163.364513 131.414413 
L 163.699313 100.882586 
L 163.866713 120.362301 
L 164.034113 103.268319 
L 164.201513 119.273516 
L 164.368913 104.499497 
L 164.703713 122.874457 
L 164.871113 145.390217 
L 165.038513 140.220287 
L 165.205913 130.813377 
L 165.373313 129.215327 
L 165.875513 116.090094 
L 166.042913 125.88039 
L 166.377713 112.650835 
L 166.712513 134.290519 
L 166.879913 113.971099 
L 167.047313 108.550824 
L 167.214713 116.459344 
L 167.382113 135.215469 
L 167.549513 133.426684 
L 167.716913 141.203325 
L 167.884313 125.060823 
L 168.051713 143.102567 
L 168.219113 129.055688 
L 168.386513 137.829426 
L 168.553913 134.226179 
L 168.721313 145.801042 
L 168.888713 140.431935 
L 169.056113 143.873306 
L 169.223513 114.770138 
L 169.390913 125.909485 
L 169.558313 121.485257 
L 169.725713 130.266587 
L 169.893113 107.014991 
L 170.060513 137.24637 
L 170.227913 114.861378 
L 170.395313 146.057264 
L 170.562713 128.931118 
L 170.730113 134.0205 
L 170.897513 150.466868 
L 171.232313 111.905658 
L 171.399713 140.918467 
L 171.734513 130.853892 
L 171.901913 156.680308 
L 172.069313 161.619945 
L 172.236713 154.051499 
L 172.404113 157.5008 
L 172.571513 171.662648 
L 172.738913 128.751296 
L 172.906313 136.538878 
L 173.073713 152.016503 
L 173.408513 144.169691 
L 173.575913 144.712366 
L 173.743313 153.789643 
L 173.910713 150.625326 
L 174.078113 136.822534 
L 174.245513 138.468769 
L 174.412913 110.085386 
L 174.580313 151.115674 
L 174.747713 108.372752 
L 174.915113 120.202443 
L 175.082513 115.698809 
L 175.249913 128.457443 
L 175.417313 90.826908 
L 175.584713 116.182698 
L 175.752113 98.245039 
L 175.919513 130.87359 
L 176.086913 131.694522 
L 176.254313 112.01929 
L 176.421713 110.158478 
L 176.756513 135.850703 
L 176.923913 145.105812 
L 177.091313 144.763279 
L 177.258713 160.100002 
L 177.426113 149.073581 
L 177.593513 155.945843 
L 177.760913 130.240097 
L 177.928313 145.008536 
L 178.095713 142.107374 
L 178.263113 133.021896 
L 178.430513 79.74625 
L 178.765313 107.666361 
L 178.932713 99.059937 
L 179.100113 96.848619 
L 179.267513 96.7383 
L 179.434913 104.925349 
L 179.602313 101.041418 
L 179.769713 134.241888 
L 179.937113 136.21067 
L 180.104513 99.947118 
L 180.271913 125.918391 
L 180.439313 113.750983 
L 180.606713 131.698372 
L 180.774113 116.633281 
L 180.941513 118.182871 
L 181.108913 96.006571 
L 181.276313 122.938705 
L 181.443713 96.346459 
L 181.611113 98.238991 
L 181.778513 107.433769 
L 181.945913 65.612638 
L 182.280713 104.711457 
L 182.448113 104.500734 
L 182.615513 45.883636 
L 182.782913 59.10234 
L 182.950313 110.233449 
L 183.117713 118.907588 
L 183.285113 86.554001 
L 183.787313 161.827704 
L 183.954713 142.531577 
L 184.289513 170.126299 
L 184.456913 139.429099 
L 184.624313 142.192292 
L 184.791713 157.58312 
L 185.126513 97.831684 
L 185.293913 103.091121 
L 185.628713 146.26419 
L 185.796113 144.833624 
L 185.963513 109.34879 
L 186.130913 136.596974 
L 186.298313 134.366043 
L 186.465713 87.382461 
L 186.633113 82.879189 
L 186.800513 112.841099 
L 186.967913 118.35083 
L 187.135313 103.493382 
L 187.302713 69.344702 
L 187.470113 81.289135 
L 187.637513 104.026256 
L 187.804913 103.232895 
L 187.972313 86.971335 
L 188.139713 84.131208 
L 188.307113 112.254277 
L 188.474513 111.99665 
L 188.641913 83.223595 
L 188.809313 93.980887 
L 188.976713 94.825482 
L 189.144113 124.492902 
L 189.311513 107.070614 
L 189.478913 102.344911 
L 189.646313 116.766739 
L 189.813713 107.631172 
L 189.981113 124.050264 
L 190.148513 112.857249 
L 190.315913 116.611558 
L 190.483313 92.809672 
L 190.650713 104.621025 
L 190.818113 103.332371 
L 190.985513 110.891911 
L 191.152913 93.52564 
L 191.320313 110.401296 
L 191.487713 78.941829 
L 191.655113 122.462461 
L 191.822513 127.388541 
L 191.989913 124.62215 
L 192.157313 108.445131 
L 192.492113 140.014835 
L 192.659513 97.276485 
L 192.826913 146.033278 
L 192.994313 149.44704 
L 193.161713 149.320751 
L 193.329113 105.408689 
L 193.496513 123.013803 
L 193.663913 159.620042 
L 193.831313 148.067972 
L 193.998713 119.461078 
L 194.166113 117.198899 
L 194.500913 149.261836 
L 194.668313 148.504194 
L 194.835713 85.746949 
L 195.003113 105.274346 
L 195.170513 138.770703 
L 195.505313 114.451696 
L 195.840113 160.801033 
L 196.007513 149.551259 
L 196.174913 106.440436 
L 196.342313 143.019434 
L 196.509713 136.585431 
L 196.844513 115.423975 
L 197.011913 127.50109 
L 197.179313 131.207219 
L 197.346713 98.175086 
L 197.514113 128.412046 
L 197.681513 114.730336 
L 198.016313 53.07428 
L 198.183713 106.127009 
L 198.351113 116.666395 
L 198.685913 69.670394 
L 199.020713 113.13347 
L 199.188113 121.081481 
L 199.355513 120.827881 
L 199.522913 92.014851 
L 199.690313 92.217878 
L 199.857713 105.234745 
L 200.025113 99.65064 
L 200.192513 103.562283 
L 200.359913 113.570666 
L 200.527313 97.640755 
L 200.694713 124.022095 
L 200.862113 104.013436 
L 201.196913 128.669965 
L 201.364313 96.770094 
L 201.699113 129.732248 
L 202.033913 98.361851 
L 202.201313 110.794041 
L 202.368713 138.217491 
L 202.536113 88.263151 
L 202.703513 96.772021 
L 202.870913 121.639396 
L 203.038313 125.682367 
L 203.373113 109.1213 
L 203.707913 121.378419 
L 203.875313 102.895695 
L 204.042713 103.115133 
L 204.210113 124.372997 
L 204.377513 119.260081 
L 204.544913 163.809197 
L 204.712313 122.998543 
L 204.879713 111.05583 
L 205.047113 126.826125 
L 205.214513 89.322331 
L 205.381913 92.644204 
L 205.549313 120.295272 
L 205.716713 111.162946 
L 205.884113 108.104392 
L 206.051513 107.491846 
L 206.218913 96.320758 
L 206.386313 103.128257 
L 206.553713 118.405644 
L 206.721113 88.837043 
L 206.888513 99.646398 
L 207.055913 98.364526 
L 207.223313 122.375138 
L 207.390713 93.920143 
L 207.558113 100.646509 
L 207.725513 124.587787 
L 207.892913 99.4048 
L 208.060313 96.747811 
L 208.227713 128.327252 
L 208.562513 77.200371 
L 208.729913 92.606255 
L 208.897313 121.025755 
L 209.064713 118.009076 
L 209.232113 130.198348 
L 209.399513 119.57499 
L 209.901713 144.289241 
L 210.069113 138.654157 
L 210.236513 146.199419 
L 210.403913 163.66928 
L 210.738713 145.953556 
L 210.906113 155.227758 
L 211.073513 149.519252 
L 211.240913 165.815265 
L 211.408313 130.194451 
L 211.575713 155.244326 
L 211.743113 146.945566 
L 211.910513 164.021687 
L 212.077913 126.392407 
L 212.412713 133.422084 
L 212.580113 145.697596 
L 212.747513 115.870453 
L 212.914913 124.097701 
L 213.249713 152.802136 
L 213.417113 160.742029 
L 213.584513 118.875759 
L 213.751913 121.815452 
L 214.086713 171.457362 
L 214.254113 139.947483 
L 214.421513 142.782397 
L 214.588913 137.695299 
L 214.756313 184.389288 
L 214.923713 160.075372 
L 215.091113 169.592956 
L 215.425913 154.220583 
L 215.593313 171.687927 
L 215.760713 157.462239 
L 215.928113 157.322031 
L 216.095513 146.213227 
L 216.262913 174.053034 
L 216.597713 145.52609 
L 216.932513 177.36208 
L 217.434713 140.33032 
L 217.602113 174.79467 
L 217.769513 157.687822 
L 217.936913 161.277927 
L 218.104313 133.787766 
L 218.271713 133.557791 
L 218.439113 157.214857 
L 218.606513 156.748992 
L 218.773913 141.045986 
L 218.941313 159.823766 
L 219.108713 136.25883 
L 219.276113 174.035764 
L 219.443513 182.430113 
L 219.610913 147.425607 
L 219.778313 140.905172 
L 219.945713 142.965252 
L 220.113113 143.076482 
L 220.280513 115.941421 
L 220.447913 120.879755 
L 220.615313 135.715179 
L 220.782713 134.566261 
L 220.950113 122.227577 
L 221.117513 125.603636 
L 221.284913 151.46047 
L 221.452313 130.572615 
L 221.619713 132.600594 
L 222.121913 142.037467 
L 222.289313 143.100072 
L 222.624113 98.986135 
L 222.791513 148.952697 
L 223.126313 120.812048 
L 223.293713 121.232971 
L 223.461113 143.47617 
L 223.628513 109.35532 
L 223.795913 117.768598 
L 223.963313 109.18531 
L 224.130713 120.937675 
L 224.465513 97.777474 
L 224.632913 128.466373 
L 224.800313 104.722194 
L 224.967713 137.239324 
L 225.469913 154.238701 
L 225.637313 128.740617 
L 225.804713 137.132689 
L 225.972113 173.061137 
L 226.306913 118.019036 
L 226.474313 145.264361 
L 226.809113 135.575588 
L 226.976513 134.331433 
L 227.143913 115.328933 
L 227.311313 113.003536 
L 227.478713 118.026983 
L 227.646113 117.005278 
L 227.813513 90.511242 
L 227.980913 122.534076 
L 228.148313 128.422303 
L 228.315713 144.173496 
L 228.483113 119.333956 
L 228.650513 148.945621 
L 228.817913 150.265364 
L 229.152713 147.031741 
L 229.487513 134.377131 
L 229.654913 144.635215 
L 229.822313 146.47828 
L 229.989713 141.444004 
L 230.157113 144.260403 
L 230.324513 155.402583 
L 230.491913 148.438649 
L 230.659313 159.97684 
L 230.826713 157.483171 
L 230.994113 150.54134 
L 231.161513 133.077864 
L 231.328913 157.845155 
L 231.496313 146.070268 
L 231.663713 146.518071 
L 231.831113 124.158586 
L 232.165913 150.176171 
L 232.500713 134.421368 
L 232.835513 115.121631 
L 233.002913 112.025724 
L 233.170313 99.587553 
L 233.672513 129.300877 
L 233.839913 95.682732 
L 234.007313 95.614469 
L 234.174713 120.222946 
L 234.342113 84.312868 
L 234.676913 131.293659 
L 234.844313 116.757211 
L 235.011713 120.379937 
L 235.179113 117.930163 
L 235.346513 119.356339 
L 235.513913 124.395794 
L 235.681313 132.879317 
L 235.848713 130.689503 
L 236.016113 111.646497 
L 236.183513 110.387061 
L 236.350913 121.28617 
L 236.518313 99.438128 
L 236.853113 106.713608 
L 237.020513 110.471763 
L 237.187913 110.983597 
L 237.355313 112.728915 
L 237.522713 97.084975 
L 237.690113 126.463601 
L 237.857513 135.929649 
L 238.024913 94.979471 
L 238.192313 118.192979 
L 238.527113 106.286904 
L 238.694513 78.856321 
L 239.029313 142.575898 
L 239.196713 122.721675 
L 239.531513 156.814097 
L 239.698913 155.83866 
L 239.866313 101.384116 
L 240.201113 139.870112 
L 240.368513 119.277643 
L 240.535913 126.165372 
L 240.703313 142.004546 
L 240.870713 140.724349 
L 241.038113 146.981984 
L 241.205513 131.495274 
L 241.372913 127.941783 
L 241.540313 135.366635 
L 241.707713 117.211894 
L 241.875113 171.888512 
L 242.042513 127.385772 
L 242.209913 135.46051 
L 242.377313 148.908392 
L 242.712113 120.912185 
L 242.879513 123.022313 
L 243.046913 163.583319 
L 243.214313 152.832067 
L 243.549113 115.528839 
L 243.716513 135.584713 
L 243.883913 129.6261 
L 244.218713 99.875265 
L 244.386113 106.672545 
L 244.553513 106.429404 
L 244.888313 134.755902 
L 245.055713 105.100249 
L 245.223113 121.402816 
L 245.390513 117.921677 
L 245.557913 122.056465 
L 245.725313 94.924144 
L 245.892713 118.145811 
L 246.060113 123.954329 
L 246.227513 73.035167 
L 246.394913 79.416928 
L 246.897113 130.06377 
L 247.064513 103.858812 
L 247.231913 97.884287 
L 247.566713 130.845315 
L 247.901513 100.717437 
L 248.068913 133.771011 
L 248.236313 141.694203 
L 248.571113 132.971809 
L 248.738513 115.011647 
L 249.073313 155.574419 
L 249.240713 142.08148 
L 249.408113 150.353198 
L 249.575513 167.052776 
L 249.742913 156.775499 
L 249.910313 165.601925 
L 250.077713 166.846522 
L 250.412513 110.893274 
L 250.747313 144.129161 
L 250.914713 140.773794 
L 251.082113 130.221659 
L 251.249513 158.004835 
L 251.416913 149.090329 
L 251.584313 132.197279 
L 251.751713 129.199235 
L 251.919113 132.665183 
L 252.086513 150.703528 
L 252.253913 130.968064 
L 252.421313 134.11173 
L 252.923513 202.824378 
L 253.090913 141.140343 
L 253.258313 137.46275 
L 253.425713 157.267978 
L 253.593113 146.645322 
L 253.927913 153.942198 
L 254.095313 162.923739 
L 254.262713 119.883278 
L 254.430113 122.193512 
L 254.597513 138.25256 
L 254.764913 139.191566 
L 254.932313 92.942368 
L 255.099713 95.104239 
L 255.434513 152.443295 
L 255.601913 111.141129 
L 255.936713 146.114326 
L 256.104113 148.20484 
L 256.271513 98.562743 
L 256.438913 94.945642 
L 256.606313 85.776561 
L 256.773713 124.596833 
L 256.941113 136.062905 
L 257.108513 89.646775 
L 257.275913 99.365647 
L 257.443313 125.747351 
L 257.778113 62.352851 
L 257.945513 122.054434 
L 258.112913 132.16138 
L 258.280313 134.191876 
L 258.447713 91.66545 
L 258.615113 99.56417 
L 258.782513 117.897592 
L 258.949913 148.431987 
L 259.117313 118.608918 
L 259.284713 124.450877 
L 259.619513 159.092786 
L 259.954313 126.73394 
L 260.121713 145.251571 
L 260.456513 154.621264 
L 260.623913 131.140496 
L 260.791313 167.739324 
L 260.958713 139.159642 
L 261.126113 130.637306 
L 261.293513 153.703925 
L 261.460913 105.987245 
L 261.628313 123.053693 
L 261.795713 108.267355 
L 261.963113 139.40369 
L 262.297913 111.395417 
L 262.632713 132.511339 
L 262.967512 100.331916 
L 263.134913 131.946585 
L 263.302313 99.427343 
L 263.469713 105.303912 
L 263.637113 90.527196 
L 263.804513 132.679098 
L 263.971913 137.698006 
L 264.306713 106.872951 
L 264.474113 105.763231 
L 264.641513 92.340727 
L 264.808913 96.920682 
L 265.143713 142.000414 
L 265.311113 90.661535 
L 265.478513 88.731427 
L 265.813313 136.477051 
L 265.980713 129.200368 
L 266.315513 144.651697 
L 266.482913 141.017694 
L 266.650313 120.711569 
L 266.985113 132.849547 
L 267.152513 162.003177 
L 267.319913 137.224426 
L 267.487313 136.840857 
L 267.654713 128.545971 
L 267.822113 125.912101 
L 267.989513 102.869215 
L 268.156913 126.884298 
L 268.324313 118.361173 
L 268.491713 134.795952 
L 268.826513 99.243595 
L 269.328713 162.206626 
L 269.496113 160.009867 
L 269.663513 169.242608 
L 269.830913 163.600109 
L 270.165713 178.687658 
L 270.500513 149.6848 
L 270.835313 184.951715 
L 271.002713 144.10735 
L 271.170113 164.294734 
L 271.337513 157.594239 
L 271.504913 165.688407 
L 271.672313 156.554359 
L 271.839713 155.091307 
L 272.007113 158.875872 
L 272.341913 129.384358 
L 272.509313 159.094468 
L 272.676713 133.2758 
L 272.844113 134.688408 
L 273.011513 144.210121 
L 273.346313 189.501361 
L 273.681113 126.092312 
L 274.015913 175.100347 
L 274.350713 151.313393 
L 274.518113 148.939481 
L 274.852913 193.976484 
L 275.187713 116.821545 
L 275.355113 131.360743 
L 275.522513 134.998741 
L 275.689913 141.068833 
L 275.857313 131.001691 
L 276.192113 145.592177 
L 276.359513 147.650266 
L 276.526913 135.349568 
L 276.694313 139.968164 
L 276.861713 137.008768 
L 277.029113 145.612532 
L 277.196513 102.566758 
L 277.363913 142.053218 
L 277.531313 128.163674 
L 277.698713 130.225493 
L 278.033513 130.785728 
L 278.200913 150.473981 
L 278.368313 146.231608 
L 278.535713 150.734706 
L 278.703113 124.515769 
L 278.870513 149.376445 
L 279.205313 168.949 
L 279.372713 136.558925 
L 279.540113 131.159398 
L 279.707513 144.898325 
L 279.874913 149.166618 
L 280.042313 140.03551 
L 280.209713 152.262727 
L 280.377113 172.787217 
L 280.544513 169.793981 
L 280.711913 138.821053 
L 280.879313 141.157088 
L 281.046713 127.410007 
L 281.214113 138.652797 
L 281.381513 170.301324 
L 281.548913 135.672493 
L 281.716313 136.603597 
L 281.883713 174.103574 
L 282.051113 145.986001 
L 282.218513 150.63705 
L 282.385913 133.452907 
L 282.553313 136.365115 
L 282.720713 112.570856 
L 282.888113 135.488207 
L 283.055513 120.625432 
L 283.222913 144.427108 
L 283.390313 85.562128 
L 283.557713 87.272989 
L 283.725113 102.441624 
L 283.892513 144.498731 
L 284.059913 128.044228 
L 284.227313 128.178204 
L 284.394713 103.604085 
L 284.562113 129.587552 
L 284.729513 96.256821 
L 284.896913 111.993904 
L 285.064313 117.163712 
L 285.399113 97.495578 
L 285.566513 90.823351 
L 285.733913 92.97162 
L 285.901313 92.260418 
L 286.068713 119.659659 
L 286.403513 107.46505 
L 286.570913 119.780065 
L 286.738313 123.621647 
L 286.905713 110.17864 
L 287.073113 115.996735 
L 287.240513 143.886889 
L 287.407913 111.681703 
L 287.575313 116.622157 
L 287.910113 158.423965 
L 288.077513 110.244327 
L 288.244913 112.656766 
L 288.412313 133.577719 
L 288.579713 170.921054 
L 288.914513 106.451895 
L 289.081913 155.171328 
L 289.249313 138.326377 
L 289.416713 169.844739 
L 289.584113 157.817119 
L 289.751513 161.342288 
L 289.918913 177.503163 
L 290.086313 162.891154 
L 290.253713 175.62984 
L 290.421113 177.736264 
L 290.588513 175.280666 
L 290.923313 122.102373 
L 291.090713 158.955813 
L 291.258113 158.985373 
L 291.425513 129.624105 
L 291.927713 161.131529 
L 292.095113 125.998247 
L 292.262513 116.915927 
L 292.429913 128.287724 
L 292.764713 102.100941 
L 293.266913 147.744516 
L 293.434313 99.863996 
L 293.769113 116.001998 
L 293.936513 92.985406 
L 294.103913 98.627511 
L 294.271313 100.39849 
L 294.438713 118.886705 
L 294.606113 111.721257 
L 294.773513 112.090872 
L 294.940913 135.644681 
L 295.108313 135.59675 
L 295.275713 145.541493 
L 295.443113 166.429376 
L 295.610513 101.043259 
L 295.945313 153.109148 
L 296.112713 153.423331 
L 296.280113 106.672958 
L 296.447513 127.401787 
L 296.782313 198.510389 
L 296.949713 167.163799 
L 297.117113 158.536032 
L 297.284513 142.068844 
L 297.451913 153.196659 
L 297.619313 143.128557 
L 297.786713 153.00954 
L 297.954113 148.277684 
L 298.121513 125.582141 
L 298.288913 138.262412 
L 298.456313 129.566151 
L 298.623713 128.893869 
L 298.791113 154.818605 
L 299.125913 144.557557 
L 299.460713 164.133914 
L 299.628113 104.051411 
L 299.962913 147.722781 
L 300.130313 138.480859 
L 300.297713 95.835036 
L 300.465113 102.304015 
L 300.632513 124.593613 
L 300.967313 109.170652 
L 301.134713 113.274335 
L 301.302113 111.504893 
L 301.469513 150.225803 
L 301.636913 125.501078 
L 301.804313 142.302106 
L 301.971713 128.390347 
L 302.139113 144.214785 
L 302.306513 123.68729 
L 302.473913 132.882917 
L 302.641313 101.803536 
L 302.808713 108.695873 
L 302.976113 109.50872 
L 303.143513 116.139166 
L 303.478313 103.242082 
L 303.813113 129.060969 
L 303.980513 128.425191 
L 304.315313 153.133369 
L 304.650113 87.69759 
L 304.984913 141.737496 
L 305.152312 109.989825 
L 305.319713 113.190554 
L 305.487113 124.678873 
L 305.821913 128.421023 
L 305.989313 142.928478 
L 306.156713 133.277057 
L 306.324113 147.096713 
L 306.491512 133.516212 
L 306.658913 130.349389 
L 306.826313 114.167215 
L 306.993713 140.682643 
L 307.161113 144.280263 
L 307.495913 124.454702 
L 307.663313 143.754575 
L 307.830713 142.326736 
L 307.998113 121.214258 
L 308.165513 119.432882 
L 308.332913 144.055665 
L 308.500313 136.139738 
L 308.667713 134.607637 
L 308.835113 151.98675 
L 309.002513 137.778043 
L 309.169913 104.377107 
L 309.337313 103.472631 
L 309.504713 121.668303 
L 309.672113 98.28705 
L 309.839513 92.891635 
L 310.174313 153.477057 
L 310.341713 105.521885 
L 310.676513 128.839861 
L 310.843913 115.118296 
L 311.011313 123.283123 
L 311.178713 121.018934 
L 311.346113 113.832687 
L 311.513513 112.175757 
L 311.680913 131.992684 
L 312.015713 108.31864 
L 312.517913 158.875072 
L 312.685313 128.288657 
L 312.852713 120.431173 
L 313.020113 134.746148 
L 313.187513 132.032709 
L 313.354913 143.106731 
L 313.522313 146.020565 
L 313.689713 137.710715 
L 313.857113 111.801676 
L 314.024513 116.434591 
L 314.191913 128.63925 
L 314.359313 118.643023 
L 314.526713 120.992375 
L 314.694113 108.605575 
L 314.861513 120.698554 
L 315.028913 92.149864 
L 315.363713 128.612736 
L 315.698513 104.23043 
L 315.865913 109.304323 
L 316.033313 132.476594 
L 316.200713 122.628303 
L 316.535513 89.070725 
L 317.037713 129.612917 
L 317.205113 112.209218 
L 317.372513 123.64974 
L 317.539913 115.798456 
L 317.707313 118.50674 
L 317.874713 115.634473 
L 318.042113 82.897015 
L 318.209513 107.719096 
L 318.376913 110.180557 
L 318.544313 135.883631 
L 318.711713 97.804735 
L 318.879113 127.680093 
L 319.046513 97.65017 
L 319.213913 121.071399 
L 319.381313 117.325523 
L 319.548713 135.903685 
L 319.716113 141.514193 
L 319.883513 123.885305 
L 320.050913 120.805057 
L 320.218313 104.937331 
L 320.385713 127.075141 
L 320.553113 129.910364 
L 320.720513 126.999908 
L 320.887913 118.151983 
L 321.055313 127.694008 
L 321.222713 145.863436 
L 321.390113 150.526149 
L 321.724913 117.380043 
L 321.892313 129.251326 
L 322.059713 131.991045 
L 322.227113 145.294044 
L 322.394513 127.430996 
L 322.729313 144.324079 
L 323.064113 108.913287 
L 323.398913 160.755174 
L 323.566313 127.207389 
L 324.068512 165.912745 
L 324.235913 143.333338 
L 324.570713 131.684995 
L 324.738113 154.517749 
L 324.905513 120.511376 
L 325.240313 171.686494 
L 325.575113 130.678798 
L 325.742513 141.406585 
L 325.909913 141.99499 
L 326.244713 144.803654 
L 326.412113 155.627792 
L 326.579513 153.762982 
L 326.746913 129.571248 
L 326.914313 141.700607 
L 327.081713 142.564238 
L 327.249113 152.203957 
L 327.416513 103.304368 
L 327.751313 133.290726 
L 327.918713 139.646244 
L 328.086113 100.398406 
L 328.420913 117.537361 
L 328.755713 96.117955 
L 328.923113 113.090117 
L 329.090513 68.060006 
L 329.257913 77.247289 
L 329.592713 125.571154 
L 329.760113 132.661652 
L 329.927513 91.500011 
L 330.262313 132.985936 
L 330.429713 121.011909 
L 330.597113 129.908136 
L 330.764513 146.074569 
L 330.931913 151.088852 
L 331.099313 111.347777 
L 331.434113 143.154708 
L 331.768913 108.271224 
L 331.936313 124.85904 
L 332.103713 122.801025 
L 332.271113 103.462312 
L 332.438513 114.060486 
L 332.605913 154.921675 
L 332.940713 142.621845 
L 333.108113 140.206208 
L 333.275513 160.496001 
L 333.442913 118.809884 
L 333.945113 144.277247 
L 334.112513 121.58902 
L 334.447313 135.23442 
L 334.614713 149.579651 
L 334.782113 132.998645 
L 334.949513 151.508727 
L 335.116913 143.261749 
L 335.284313 162.541267 
L 335.619113 121.85896 
L 335.786513 128.705056 
L 335.953913 149.265247 
L 336.288713 82.383712 
L 336.456113 95.337943 
L 336.623513 131.789773 
L 336.790913 140.343845 
L 336.958313 138.767562 
L 337.125713 139.31379 
L 337.460513 162.734088 
L 337.627913 150.410852 
L 337.962713 170.160658 
L 338.130113 169.586265 
L 338.297513 150.885312 
L 338.464913 147.722587 
L 338.632313 160.215444 
L 338.967113 129.835168 
L 339.134513 136.023172 
L 339.301913 111.50044 
L 339.469313 141.770244 
L 339.636713 132.390751 
L 339.804113 138.33556 
L 339.971513 108.847601 
L 340.138913 100.370966 
L 340.473713 141.830281 
L 340.641113 98.090114 
L 340.808513 106.963718 
L 341.143313 154.25451 
L 341.478113 132.938121 
L 341.645513 145.777229 
L 341.812913 126.8731 
L 342.147713 161.488599 
L 342.817313 140.061813 
L 342.984713 147.821379 
L 343.152113 144.114651 
L 343.319513 144.995646 
L 343.486913 142.110577 
L 343.654313 124.626489 
L 343.821713 134.914366 
L 343.989113 120.063433 
L 344.156513 118.944391 
L 344.323913 122.125897 
L 344.491313 141.932766 
L 344.658713 144.342026 
L 344.826113 115.201618 
L 345.495713 130.095655 
L 345.830513 79.694836 
L 346.165313 134.639511 
L 346.332713 123.408523 
L 346.500113 142.968068 
L 346.667513 121.434485 
L 346.834913 128.421919 
L 347.002313 156.664037 
L 347.169713 119.058823 
L 347.504513 110.513973 
L 347.671913 133.098023 
L 347.839313 138.849925 
L 348.006713 120.956525 
L 348.341513 135.415747 
L 348.508913 106.804845 
L 348.843713 123.317825 
L 349.011113 111.81766 
L 349.178513 125.857767 
L 349.345913 122.578655 
L 349.513313 125.009159 
L 349.680713 122.138971 
L 349.848113 141.910574 
L 350.015513 96.366315 
L 350.182913 96.360516 
L 350.350313 114.973908 
L 350.685113 76.341446 
L 351.019913 141.095203 
L 351.187313 122.092998 
L 351.354713 120.641242 
L 351.522113 120.735643 
L 351.689513 138.686787 
L 351.856913 112.308658 
L 352.024313 123.183546 
L 352.191713 114.774374 
L 352.359113 100.36817 
L 352.526513 75.057968 
L 352.693913 112.717705 
L 352.861313 109.684549 
L 353.028713 126.128299 
L 353.196113 158.551331 
L 353.530913 96.609445 
L 353.698313 116.876496 
L 353.865713 120.947811 
L 354.033113 120.840847 
L 354.200513 116.81859 
L 354.367913 89.955335 
L 354.535313 95.74318 
L 354.702713 115.227278 
L 354.870113 102.276799 
L 355.204913 96.507118 
L 355.372313 106.164365 
L 355.539713 135.666867 
L 355.707113 109.945252 
L 355.874513 135.568194 
L 356.041913 137.464778 
L 356.209313 110.41787 
L 356.376713 106.905535 
L 356.711513 142.643697 
L 356.878913 150.17464 
L 357.213713 95.032104 
L 357.381113 103.719339 
L 357.548513 119.979512 
L 357.715913 147.86511 
L 357.883313 143.170053 
L 358.050713 103.379036 
L 358.385513 126.872452 
L 358.720313 109.300209 
L 358.887713 120.250745 
L 359.055113 107.734913 
L 359.222513 115.932775 
L 359.389913 146.182929 
L 359.557313 105.397423 
L 359.724713 140.99749 
L 360.059513 137.495216 
L 360.226913 129.418017 
L 360.561713 162.366198 
L 360.729113 161.522325 
L 360.896513 137.216322 
L 361.063913 133.832297 
L 361.231313 125.046491 
L 361.398713 130.054964 
L 361.566113 140.428714 
L 361.900913 133.8755 
L 362.068313 156.973157 
L 362.235713 94.536635 
L 362.403113 118.784538 
L 362.570513 116.881524 
L 362.737913 159.885419 
L 363.072713 106.782268 
L 363.407513 142.568724 
L 363.574913 129.379731 
L 363.742313 103.887285 
L 363.909713 107.791033 
L 364.077113 153.718871 
L 364.244513 154.188161 
L 364.411913 125.119865 
L 364.579313 132.759896 
L 364.746713 118.807103 
L 365.081513 147.55331 
L 365.248913 114.943053 
L 365.416313 118.602604 
L 365.583713 112.155137 
L 365.751113 129.462907 
L 365.918513 123.991556 
L 366.085913 135.638538 
L 366.253313 138.89588 
L 366.420713 158.216622 
L 366.588113 136.607936 
L 366.755513 142.060444 
L 366.922913 134.495336 
L 367.090313 142.140327 
L 367.257713 116.861948 
L 367.425113 119.751608 
L 367.592513 115.124017 
L 367.759913 120.149208 
L 367.927313 108.581691 
L 368.094713 106.762658 
L 368.262113 122.636545 
L 368.596913 105.544892 
L 368.764313 104.809758 
L 368.931713 133.359713 
L 369.099113 126.131307 
L 369.433913 103.470558 
L 369.601313 100.832817 
L 369.768713 119.468271 
L 370.270913 81.490069 
L 370.605713 113.400831 
L 370.773113 79.393304 
L 370.940513 125.470446 
L 371.107913 112.211893 
L 371.275313 129.771444 
L 371.442713 126.730627 
L 371.610113 131.208342 
L 371.777513 110.615697 
L 372.279713 180.290342 
L 372.447113 139.529658 
L 372.614513 136.874857 
L 372.781913 165.975884 
L 372.949313 161.406193 
L 373.451513 101.154329 
L 373.618913 117.723645 
L 373.786313 112.804133 
L 373.953713 115.516057 
L 374.288513 99.562035 
L 374.455913 107.934362 
L 374.623313 106.466247 
L 374.790713 139.546608 
L 374.958113 102.403062 
L 375.125513 108.010967 
L 375.292913 96.665626 
L 375.460313 105.370722 
L 375.627713 101.108558 
L 375.962513 64.354484 
L 376.297313 94.196945 
L 376.464713 68.054316 
L 376.632113 75.669021 
L 376.799513 101.152938 
L 376.966913 104.884948 
L 377.134313 104.894143 
L 377.469113 95.963812 
L 377.636513 126.980165 
L 377.803913 115.6706 
L 377.971313 128.062345 
L 378.138713 131.758149 
L 378.306113 146.907002 
L 378.473513 120.950045 
L 378.640913 127.835592 
L 378.808313 140.0186 
L 379.143113 116.719983 
L 379.310513 93.731976 
L 379.477913 110.578178 
L 379.645313 106.87243 
L 379.645313 106.87243 
" clip-path="url(#pd4ea326ed9)" style="fill: none; stroke: #1f77b4; stroke-width: 1.5; stroke-linecap: square"/>
   </g>
   <g id="line2d_16">
    <path d="M 45.012713 194.86077 
L 45.682313 167.414285 
L 46.351913 149.016357 
L 47.021513 136.683856 
L 47.691113 128.417134 
L 48.360713 122.875784 
L 49.030313 119.161307 
L 49.699913 116.671418 
L 50.369513 115.002395 
L 51.039113 113.883616 
L 51.708713 113.133676 
L 52.545713 112.533709 
L 53.550113 112.11643 
L 54.889313 111.836928 
L 56.898113 111.677556 
L 61.250513 111.613966 
L 101.259113 111.608864 
L 379.645313 111.608864 
L 379.645313 111.608864 
" clip-path="url(#pd4ea326ed9)" style="fill: none; stroke: #ff7f0e; stroke-width: 1.5; stroke-linecap: square"/>
   </g>
   <g id="patch_3">
    <path d="M 44.845313 253.44 
L 44.845313 36 
" style="fill: none; stroke: #000000; stroke-width: 0.8; stroke-linejoin: miter; stroke-linecap: square"/>
   </g>
   <g id="patch_4">
    <path d="M 379.645313 253.44 
L 379.645313 36 
" style="fill: none; stroke: #000000; stroke-width: 0.8; stroke-linejoin: miter; stroke-linecap: square"/>
   </g>
   <g id="patch_5">
    <path d="M 44.845313 253.44 
L 379.645313 253.44 
" style="fill: none; stroke: #000000; stroke-width: 0.8; stroke-linejoin: miter; stroke-linecap: square"/>
   </g>
   <g id="patch_6">
    <path d="M 44.845313 36 
L 379.645313 36 
" style="fill: none; stroke: #000000; stroke-width: 0.8; stroke-linejoin: miter; stroke-linecap: square"/>
   </g>
   <g id="legend_1">
    <g id="patch_7">
     <path d="M 51.845313 248.44 
L 101.545313 248.44 
Q 103.545313 248.44 103.545313 246.44 
L 103.545313 214.361875 
Q 103.545313 212.361875 101.545313 212.361875 
L 51.845313 212.361875 
Q 49.845313 212.361875 49.845313 214.361875 
L 49.845313 246.44 
Q 49.845313 248.44 51.845313 248.44 
z
" style="fill: #ffffff; opacity: 0.8; stroke: #cccccc; stroke-linejoin: miter"/>
    </g>
    <g id="line2d_17">
     <path d="M 53.845313 224.161875 
L 63.845313 224.161875 
L 73.845313 224.161875 
" style="fill: none; stroke: #1f77b4; stroke-width: 1.5; stroke-linecap: square"/>
    </g>
    <g id="text_15">
     <!-- $\hat{y(t)}$ -->
     <g transform="translate(81.845313 227.661875) scale(0.1 -0.1)">
      <defs>
       <path id="DejaVuSans-302" d="M -1831 5119 
L -1369 5119 
L -603 3944 
L -1038 3944 
L -1600 4709 
L -2163 3944 
L -2597 3944 
L -1831 5119 
z
M -1600 3584 
L -1600 3584 
z
" transform="scale(0.015625)"/>
       <path id="DejaVuSans-Oblique-79" d="M 1588 -325 
Q 1188 -997 936 -1164 
Q 684 -1331 294 -1331 
L -159 -1331 
L -63 -850 
L 269 -850 
Q 509 -850 678 -719 
Q 847 -588 1056 -206 
L 1234 128 
L 459 3500 
L 1069 3500 
L 1650 819 
L 3256 3500 
L 3859 3500 
L 1588 -325 
z
" transform="scale(0.015625)"/>
       <path id="DejaVuSans-28" d="M 1984 4856 
Q 1566 4138 1362 3434 
Q 1159 2731 1159 2009 
Q 1159 1288 1364 580 
Q 1569 -128 1984 -844 
L 1484 -844 
Q 1016 -109 783 600 
Q 550 1309 550 2009 
Q 550 2706 781 3412 
Q 1013 4119 1484 4856 
L 1984 4856 
z
" transform="scale(0.015625)"/>
       <path id="DejaVuSans-Oblique-74" d="M 2706 3500 
L 2619 3053 
L 1472 3053 
L 1100 1153 
Q 1081 1047 1072 975 
Q 1063 903 1063 863 
Q 1063 663 1183 572 
Q 1303 481 1569 481 
L 2150 481 
L 2053 0 
L 1503 0 
Q 991 0 739 200 
Q 488 400 488 806 
Q 488 878 497 964 
Q 506 1050 525 1153 
L 897 3053 
L 409 3053 
L 500 3500 
L 978 3500 
L 1172 4494 
L 1747 4494 
L 1556 3500 
L 2706 3500 
z
" transform="scale(0.015625)"/>
       <path id="DejaVuSans-29" d="M 513 4856 
L 1013 4856 
Q 1481 4119 1714 3412 
Q 1947 2706 1947 2009 
Q 1947 1309 1714 600 
Q 1481 -109 1013 -844 
L 513 -844 
Q 928 -128 1133 580 
Q 1338 1288 1338 2009 
Q 1338 2731 1133 3434 
Q 928 4138 513 4856 
z
" transform="scale(0.015625)"/>
      </defs>
      <use xlink:href="#DejaVuSans-302" transform="translate(135.682129 33.015625)"/>
      <use xlink:href="#DejaVuSans-Oblique-79" transform="translate(0 0.640625)"/>
      <use xlink:href="#DejaVuSans-28" transform="translate(59.179688 0.640625)"/>
      <use xlink:href="#DejaVuSans-Oblique-74" transform="translate(98.193359 0.640625)"/>
      <use xlink:href="#DejaVuSans-29" transform="translate(137.402344 0.640625)"/>
     </g>
    </g>
    <g id="line2d_18">
     <path d="M 53.845313 238.860312 
L 63.845313 238.860312 
L 73.845313 238.860312 
" style="fill: none; stroke: #ff7f0e; stroke-width: 1.5; stroke-linecap: square"/>
    </g>
    <g id="text_16">
     <!-- $x(t)$ -->
     <g transform="translate(81.845313 242.360312) scale(0.1 -0.1)">
      <defs>
       <path id="DejaVuSans-Oblique-78" d="M 3841 3500 
L 2234 1784 
L 3219 0 
L 2559 0 
L 1819 1388 
L 531 0 
L -166 0 
L 1556 1844 
L 641 3500 
L 1300 3500 
L 1972 2234 
L 3144 3500 
L 3841 3500 
z
" transform="scale(0.015625)"/>
      </defs>
      <use xlink:href="#DejaVuSans-Oblique-78" transform="translate(0 0.125)"/>
      <use xlink:href="#DejaVuSans-28" transform="translate(59.179688 0.125)"/>
      <use xlink:href="#DejaVuSans-Oblique-74" transform="translate(98.193359 0.125)"/>
      <use xlink:href="#DejaVuSans-29" transform="translate(137.402344 0.125)"/>
     </g>
    </g>
   </g>
  </g>
  <g id="text_17">
   <!-- Accumulate to Threshold model with input of 0.1 with rms=3  -->
   <g transform="translate(21.676875 16.318125) scale(0.12 -0.12)">
    <defs>
     <path id="DejaVuSans-41" d="M 2188 4044 
L 1331 1722 
L 3047 1722 
L 2188 4044 
z
M 1831 4666 
L 2547 4666 
L 4325 0 
L 3669 0 
L 3244 1197 
L 1141 1197 
L 716 0 
L 50 0 
L 1831 4666 
z
" transform="scale(0.015625)"/>
     <path id="DejaVuSans-63" d="M 3122 3366 
L 3122 2828 
Q 2878 2963 2633 3030 
Q 2388 3097 2138 3097 
Q 1578 3097 1268 2742 
Q 959 2388 959 1747 
Q 959 1106 1268 751 
Q 1578 397 2138 397 
Q 2388 397 2633 464 
Q 2878 531 3122 666 
L 3122 134 
Q 2881 22 2623 -34 
Q 2366 -91 2075 -91 
Q 1284 -91 818 406 
Q 353 903 353 1747 
Q 353 2603 823 3093 
Q 1294 3584 2113 3584 
Q 2378 3584 2631 3529 
Q 2884 3475 3122 3366 
z
" transform="scale(0.015625)"/>
     <path id="DejaVuSans-75" d="M 544 1381 
L 544 3500 
L 1119 3500 
L 1119 1403 
Q 1119 906 1312 657 
Q 1506 409 1894 409 
Q 2359 409 2629 706 
Q 2900 1003 2900 1516 
L 2900 3500 
L 3475 3500 
L 3475 0 
L 2900 0 
L 2900 538 
Q 2691 219 2414 64 
Q 2138 -91 1772 -91 
Q 1169 -91 856 284 
Q 544 659 544 1381 
z
M 1991 3584 
L 1991 3584 
z
" transform="scale(0.015625)"/>
     <path id="DejaVuSans-6d" d="M 3328 2828 
Q 3544 3216 3844 3400 
Q 4144 3584 4550 3584 
Q 5097 3584 5394 3201 
Q 5691 2819 5691 2113 
L 5691 0 
L 5113 0 
L 5113 2094 
Q 5113 2597 4934 2840 
Q 4756 3084 4391 3084 
Q 3944 3084 3684 2787 
Q 3425 2491 3425 1978 
L 3425 0 
L 2847 0 
L 2847 2094 
Q 2847 2600 2669 2842 
Q 2491 3084 2119 3084 
Q 1678 3084 1418 2786 
Q 1159 2488 1159 1978 
L 1159 0 
L 581 0 
L 581 3500 
L 1159 3500 
L 1159 2956 
Q 1356 3278 1631 3431 
Q 1906 3584 2284 3584 
Q 2666 3584 2933 3390 
Q 3200 3197 3328 2828 
z
" transform="scale(0.015625)"/>
     <path id="DejaVuSans-6c" d="M 603 4863 
L 1178 4863 
L 1178 0 
L 603 0 
L 603 4863 
z
" transform="scale(0.015625)"/>
     <path id="DejaVuSans-61" d="M 2194 1759 
Q 1497 1759 1228 1600 
Q 959 1441 959 1056 
Q 959 750 1161 570 
Q 1363 391 1709 391 
Q 2188 391 2477 730 
Q 2766 1069 2766 1631 
L 2766 1759 
L 2194 1759 
z
M 3341 1997 
L 3341 0 
L 2766 0 
L 2766 531 
Q 2569 213 2275 61 
Q 1981 -91 1556 -91 
Q 1019 -91 701 211 
Q 384 513 384 1019 
Q 384 1609 779 1909 
Q 1175 2209 1959 2209 
L 2766 2209 
L 2766 2266 
Q 2766 2663 2505 2880 
Q 2244 3097 1772 3097 
Q 1472 3097 1187 3025 
Q 903 2953 641 2809 
L 641 3341 
Q 956 3463 1253 3523 
Q 1550 3584 1831 3584 
Q 2591 3584 2966 3190 
Q 3341 2797 3341 1997 
z
" transform="scale(0.015625)"/>
     <path id="DejaVuSans-74" d="M 1172 4494 
L 1172 3500 
L 2356 3500 
L 2356 3053 
L 1172 3053 
L 1172 1153 
Q 1172 725 1289 603 
Q 1406 481 1766 481 
L 2356 481 
L 2356 0 
L 1766 0 
Q 1100 0 847 248 
Q 594 497 594 1153 
L 594 3053 
L 172 3053 
L 172 3500 
L 594 3500 
L 594 4494 
L 1172 4494 
z
" transform="scale(0.015625)"/>
     <path id="DejaVuSans-65" d="M 3597 1894 
L 3597 1613 
L 953 1613 
Q 991 1019 1311 708 
Q 1631 397 2203 397 
Q 2534 397 2845 478 
Q 3156 559 3463 722 
L 3463 178 
Q 3153 47 2828 -22 
Q 2503 -91 2169 -91 
Q 1331 -91 842 396 
Q 353 884 353 1716 
Q 353 2575 817 3079 
Q 1281 3584 2069 3584 
Q 2775 3584 3186 3129 
Q 3597 2675 3597 1894 
z
M 3022 2063 
Q 3016 2534 2758 2815 
Q 2500 3097 2075 3097 
Q 1594 3097 1305 2825 
Q 1016 2553 972 2059 
L 3022 2063 
z
" transform="scale(0.015625)"/>
     <path id="DejaVuSans-20" transform="scale(0.015625)"/>
     <path id="DejaVuSans-6f" d="M 1959 3097 
Q 1497 3097 1228 2736 
Q 959 2375 959 1747 
Q 959 1119 1226 758 
Q 1494 397 1959 397 
Q 2419 397 2687 759 
Q 2956 1122 2956 1747 
Q 2956 2369 2687 2733 
Q 2419 3097 1959 3097 
z
M 1959 3584 
Q 2709 3584 3137 3096 
Q 3566 2609 3566 1747 
Q 3566 888 3137 398 
Q 2709 -91 1959 -91 
Q 1206 -91 779 398 
Q 353 888 353 1747 
Q 353 2609 779 3096 
Q 1206 3584 1959 3584 
z
" transform="scale(0.015625)"/>
     <path id="DejaVuSans-54" d="M -19 4666 
L 3928 4666 
L 3928 4134 
L 2272 4134 
L 2272 0 
L 1638 0 
L 1638 4134 
L -19 4134 
L -19 4666 
z
" transform="scale(0.015625)"/>
     <path id="DejaVuSans-68" d="M 3513 2113 
L 3513 0 
L 2938 0 
L 2938 2094 
Q 2938 2591 2744 2837 
Q 2550 3084 2163 3084 
Q 1697 3084 1428 2787 
Q 1159 2491 1159 1978 
L 1159 0 
L 581 0 
L 581 4863 
L 1159 4863 
L 1159 2956 
Q 1366 3272 1645 3428 
Q 1925 3584 2291 3584 
Q 2894 3584 3203 3211 
Q 3513 2838 3513 2113 
z
" transform="scale(0.015625)"/>
     <path id="DejaVuSans-72" d="M 2631 2963 
Q 2534 3019 2420 3045 
Q 2306 3072 2169 3072 
Q 1681 3072 1420 2755 
Q 1159 2438 1159 1844 
L 1159 0 
L 581 0 
L 581 3500 
L 1159 3500 
L 1159 2956 
Q 1341 3275 1631 3429 
Q 1922 3584 2338 3584 
Q 2397 3584 2469 3576 
Q 2541 3569 2628 3553 
L 2631 2963 
z
" transform="scale(0.015625)"/>
     <path id="DejaVuSans-73" d="M 2834 3397 
L 2834 2853 
Q 2591 2978 2328 3040 
Q 2066 3103 1784 3103 
Q 1356 3103 1142 2972 
Q 928 2841 928 2578 
Q 928 2378 1081 2264 
Q 1234 2150 1697 2047 
L 1894 2003 
Q 2506 1872 2764 1633 
Q 3022 1394 3022 966 
Q 3022 478 2636 193 
Q 2250 -91 1575 -91 
Q 1294 -91 989 -36 
Q 684 19 347 128 
L 347 722 
Q 666 556 975 473 
Q 1284 391 1588 391 
Q 1994 391 2212 530 
Q 2431 669 2431 922 
Q 2431 1156 2273 1281 
Q 2116 1406 1581 1522 
L 1381 1569 
Q 847 1681 609 1914 
Q 372 2147 372 2553 
Q 372 3047 722 3315 
Q 1072 3584 1716 3584 
Q 2034 3584 2315 3537 
Q 2597 3491 2834 3397 
z
" transform="scale(0.015625)"/>
     <path id="DejaVuSans-64" d="M 2906 2969 
L 2906 4863 
L 3481 4863 
L 3481 0 
L 2906 0 
L 2906 525 
Q 2725 213 2448 61 
Q 2172 -91 1784 -91 
Q 1150 -91 751 415 
Q 353 922 353 1747 
Q 353 2572 751 3078 
Q 1150 3584 1784 3584 
Q 2172 3584 2448 3432 
Q 2725 3281 2906 2969 
z
M 947 1747 
Q 947 1113 1208 752 
Q 1469 391 1925 391 
Q 2381 391 2643 752 
Q 2906 1113 2906 1747 
Q 2906 2381 2643 2742 
Q 2381 3103 1925 3103 
Q 1469 3103 1208 2742 
Q 947 2381 947 1747 
z
" transform="scale(0.015625)"/>
     <path id="DejaVuSans-77" d="M 269 3500 
L 844 3500 
L 1563 769 
L 2278 3500 
L 2956 3500 
L 3675 769 
L 4391 3500 
L 4966 3500 
L 4050 0 
L 3372 0 
L 2619 2869 
L 1863 0 
L 1184 0 
L 269 3500 
z
" transform="scale(0.015625)"/>
     <path id="DejaVuSans-69" d="M 603 3500 
L 1178 3500 
L 1178 0 
L 603 0 
L 603 3500 
z
M 603 4863 
L 1178 4863 
L 1178 4134 
L 603 4134 
L 603 4863 
z
" transform="scale(0.015625)"/>
     <path id="DejaVuSans-6e" d="M 3513 2113 
L 3513 0 
L 2938 0 
L 2938 2094 
Q 2938 2591 2744 2837 
Q 2550 3084 2163 3084 
Q 1697 3084 1428 2787 
Q 1159 2491 1159 1978 
L 1159 0 
L 581 0 
L 581 3500 
L 1159 3500 
L 1159 2956 
Q 1366 3272 1645 3428 
Q 1925 3584 2291 3584 
Q 2894 3584 3203 3211 
Q 3513 2838 3513 2113 
z
" transform="scale(0.015625)"/>
     <path id="DejaVuSans-70" d="M 1159 525 
L 1159 -1331 
L 581 -1331 
L 581 3500 
L 1159 3500 
L 1159 2969 
Q 1341 3281 1617 3432 
Q 1894 3584 2278 3584 
Q 2916 3584 3314 3078 
Q 3713 2572 3713 1747 
Q 3713 922 3314 415 
Q 2916 -91 2278 -91 
Q 1894 -91 1617 61 
Q 1341 213 1159 525 
z
M 3116 1747 
Q 3116 2381 2855 2742 
Q 2594 3103 2138 3103 
Q 1681 3103 1420 2742 
Q 1159 2381 1159 1747 
Q 1159 1113 1420 752 
Q 1681 391 2138 391 
Q 2594 391 2855 752 
Q 3116 1113 3116 1747 
z
" transform="scale(0.015625)"/>
     <path id="DejaVuSans-66" d="M 2375 4863 
L 2375 4384 
L 1825 4384 
Q 1516 4384 1395 4259 
Q 1275 4134 1275 3809 
L 1275 3500 
L 2222 3500 
L 2222 3053 
L 1275 3053 
L 1275 0 
L 697 0 
L 697 3053 
L 147 3053 
L 147 3500 
L 697 3500 
L 697 3744 
Q 697 4328 969 4595 
Q 1241 4863 1831 4863 
L 2375 4863 
z
" transform="scale(0.015625)"/>
     <path id="DejaVuSans-3d" d="M 678 2906 
L 4684 2906 
L 4684 2381 
L 678 2381 
L 678 2906 
z
M 678 1631 
L 4684 1631 
L 4684 1100 
L 678 1100 
L 678 1631 
z
" transform="scale(0.015625)"/>
     <path id="DejaVuSans-33" d="M 2597 2516 
Q 3050 2419 3304 2112 
Q 3559 1806 3559 1356 
Q 3559 666 3084 287 
Q 2609 -91 1734 -91 
Q 1441 -91 1130 -33 
Q 819 25 488 141 
L 488 750 
Q 750 597 1062 519 
Q 1375 441 1716 441 
Q 2309 441 2620 675 
Q 2931 909 2931 1356 
Q 2931 1769 2642 2001 
Q 2353 2234 1838 2234 
L 1294 2234 
L 1294 2753 
L 1863 2753 
Q 2328 2753 2575 2939 
Q 2822 3125 2822 3475 
Q 2822 3834 2567 4026 
Q 2313 4219 1838 4219 
Q 1578 4219 1281 4162 
Q 984 4106 628 3988 
L 628 4550 
Q 988 4650 1302 4700 
Q 1616 4750 1894 4750 
Q 2613 4750 3031 4423 
Q 3450 4097 3450 3541 
Q 3450 3153 3228 2886 
Q 3006 2619 2597 2516 
z
" transform="scale(0.015625)"/>
    </defs>
    <use xlink:href="#DejaVuSans-41"/>
    <use xlink:href="#DejaVuSans-63" x="66.658203"/>
    <use xlink:href="#DejaVuSans-63" x="121.638672"/>
    <use xlink:href="#DejaVuSans-75" x="176.619141"/>
    <use xlink:href="#DejaVuSans-6d" x="239.998047"/>
    <use xlink:href="#DejaVuSans-75" x="337.410156"/>
    <use xlink:href="#DejaVuSans-6c" x="400.789062"/>
    <use xlink:href="#DejaVuSans-61" x="428.572266"/>
    <use xlink:href="#DejaVuSans-74" x="489.851562"/>
    <use xlink:href="#DejaVuSans-65" x="529.060547"/>
    <use xlink:href="#DejaVuSans-20" x="590.583984"/>
    <use xlink:href="#DejaVuSans-74" x="622.371094"/>
    <use xlink:href="#DejaVuSans-6f" x="661.580078"/>
    <use xlink:href="#DejaVuSans-20" x="722.761719"/>
    <use xlink:href="#DejaVuSans-54" x="754.548828"/>
    <use xlink:href="#DejaVuSans-68" x="815.632812"/>
    <use xlink:href="#DejaVuSans-72" x="879.011719"/>
    <use xlink:href="#DejaVuSans-65" x="917.875"/>
    <use xlink:href="#DejaVuSans-73" x="979.398438"/>
    <use xlink:href="#DejaVuSans-68" x="1031.498047"/>
    <use xlink:href="#DejaVuSans-6f" x="1094.876953"/>
    <use xlink:href="#DejaVuSans-6c" x="1156.058594"/>
    <use xlink:href="#DejaVuSans-64" x="1183.841797"/>
    <use xlink:href="#DejaVuSans-20" x="1247.318359"/>
    <use xlink:href="#DejaVuSans-6d" x="1279.105469"/>
    <use xlink:href="#DejaVuSans-6f" x="1376.517578"/>
    <use xlink:href="#DejaVuSans-64" x="1437.699219"/>
    <use xlink:href="#DejaVuSans-65" x="1501.175781"/>
    <use xlink:href="#DejaVuSans-6c" x="1562.699219"/>
    <use xlink:href="#DejaVuSans-20" x="1590.482422"/>
    <use xlink:href="#DejaVuSans-77" x="1622.269531"/>
    <use xlink:href="#DejaVuSans-69" x="1704.056641"/>
    <use xlink:href="#DejaVuSans-74" x="1731.839844"/>
    <use xlink:href="#DejaVuSans-68" x="1771.048828"/>
    <use xlink:href="#DejaVuSans-20" x="1834.427734"/>
    <use xlink:href="#DejaVuSans-69" x="1866.214844"/>
    <use xlink:href="#DejaVuSans-6e" x="1893.998047"/>
    <use xlink:href="#DejaVuSans-70" x="1957.376953"/>
    <use xlink:href="#DejaVuSans-75" x="2020.853516"/>
    <use xlink:href="#DejaVuSans-74" x="2084.232422"/>
    <use xlink:href="#DejaVuSans-20" x="2123.441406"/>
    <use xlink:href="#DejaVuSans-6f" x="2155.228516"/>
    <use xlink:href="#DejaVuSans-66" x="2216.410156"/>
    <use xlink:href="#DejaVuSans-20" x="2251.615234"/>
    <use xlink:href="#DejaVuSans-30" x="2283.402344"/>
    <use xlink:href="#DejaVuSans-2e" x="2347.025391"/>
    <use xlink:href="#DejaVuSans-31" x="2378.8125"/>
    <use xlink:href="#DejaVuSans-20" x="2442.435547"/>
    <use xlink:href="#DejaVuSans-77" x="2474.222656"/>
    <use xlink:href="#DejaVuSans-69" x="2556.009766"/>
    <use xlink:href="#DejaVuSans-74" x="2583.792969"/>
    <use xlink:href="#DejaVuSans-68" x="2623.001953"/>
    <use xlink:href="#DejaVuSans-20" x="2686.380859"/>
    <use xlink:href="#DejaVuSans-72" x="2718.167969"/>
    <use xlink:href="#DejaVuSans-6d" x="2757.53125"/>
    <use xlink:href="#DejaVuSans-73" x="2854.943359"/>
    <use xlink:href="#DejaVuSans-3d" x="2907.042969"/>
    <use xlink:href="#DejaVuSans-33" x="2990.832031"/>
    <use xlink:href="#DejaVuSans-20" x="3054.455078"/>
   </g>
  </g>
 </g>
 <defs>
  <clipPath id="pd4ea326ed9">
   <rect x="44.845313" y="36" width="334.8" height="217.44"/>
  </clipPath>
 </defs>
</svg>
