<?xml version="1.0" encoding="utf-8" standalone="no"?>
<!DOCTYPE svg PUBLIC "-//W3C//DTD SVG 1.1//EN"
  "http://www.w3.org/Graphics/SVG/1.1/DTD/svg11.dtd">
<svg xmlns:xlink="http://www.w3.org/1999/xlink" width="526.070625pt" height="290.99625pt" viewBox="0 0 526.070625 290.99625" xmlns="http://www.w3.org/2000/svg" version="1.1">
 <metadata>
  <rdf:RDF xmlns:dc="http://purl.org/dc/elements/1.1/" xmlns:cc="http://creativecommons.org/ns#" xmlns:rdf="http://www.w3.org/1999/02/22-rdf-syntax-ns#">
   <cc:Work>
    <dc:type rdf:resource="http://purl.org/dc/dcmitype/StillImage"/>
    <dc:date>2022-09-28T18:50:06.528727</dc:date>
    <dc:format>image/svg+xml</dc:format>
    <dc:creator>
     <cc:Agent>
      <dc:title>Matplotlib v3.6.0, https://matplotlib.org/</dc:title>
     </cc:Agent>
    </dc:creator>
   </cc:Work>
  </rdf:RDF>
 </metadata>
 <defs>
  <style type="text/css">*{stroke-linejoin: round; stroke-linecap: butt}</style>
 </defs>
 <g id="figure_1">
  <g id="patch_1">
   <path d="M 0 290.99625 
L 526.070625 290.99625 
L 526.070625 0 
L 0 0 
L 0 290.99625 
z
" style="fill: none"/>
  </g>
  <g id="axes_1">
   <g id="patch_2">
    <path d="M 101.035312 253.44 
L 435.835312 253.44 
L 435.835312 36 
L 101.035312 36 
z
" style="fill: #ffffff"/>
   </g>
   <g id="Quiver_1">
    <path d="M 243.081634 138.797907 
L 271.138777 153.354304 
L 271.152754 152.418614 
L 274.289374 155.460344 
L 269.996381 154.647497 
L 270.753319 154.097265 
L 242.696176 139.540868 
L 243.081634 138.797907 
" clip-path="url(#p43d00eea6e)" style="fill: #0000ff"/>
    <path d="M 243.085706 138.800048 
L 259.365881 147.47486 
L 259.390143 146.53938 
L 262.493137 149.615407 
L 258.209339 148.755417 
L 258.97228 148.213539 
L 242.692104 139.538727 
L 243.085706 138.800048 
" clip-path="url(#p43d00eea6e)" style="fill: #0000ff"/>
    <path d="M 242.54654 139.410071 
L 179.132511 49.205603 
L 178.688465 50.029335 
L 177.308723 45.883636 
L 180.742653 48.585234 
L 179.81724 48.724236 
L 243.23127 138.928704 
L 242.54654 139.410071 
" clip-path="url(#p43d00eea6e)" style="fill: #0000ff"/>
    <path d="M 242.498023 139.019878 
L 242.744566 138.375307 
L 241.813292 138.46717 
L 244.481036 135.006875 
L 244.158586 139.364229 
L 243.526331 138.674327 
L 243.279788 139.318897 
L 242.498023 139.019878 
" clip-path="url(#p43d00eea6e)" style="fill: #0000ff"/>
    <path d="M 243.178548 138.867312 
L 349.32746 240.647504 
L 349.60467 239.753711 
L 351.756493 243.556364 
L 347.866814 241.566162 
L 348.748174 241.251654 
L 242.599262 139.471462 
L 243.178548 138.867312 
" clip-path="url(#p43d00eea6e)" style="fill: #0000ff"/>
    <path d="M 242.729358 138.782494 
L 256.672384 133.032668 
L 255.966395 132.418427 
L 260.313976 131.983636 
L 256.923679 134.739791 
L 256.991478 133.806456 
L 243.048453 139.556281 
L 242.729358 138.782494 
" clip-path="url(#p43d00eea6e)" style="fill: #0000ff"/>
    <path d="M 242.530121 138.953943 
L 255.308379 117.673995 
L 254.375366 117.601892 
L 257.606159 114.660381 
L 256.528072 118.894556 
L 256.025947 118.104883 
L 243.247689 139.384831 
L 242.530121 138.953943 
" clip-path="url(#p43d00eea6e)" style="fill: #0000ff"/>
    <path d="M 242.633547 138.837824 
L 340.755206 63.268151 
L 339.912926 62.860382 
L 343.994638 61.301492 
L 341.445075 64.849764 
L 341.265923 63.931279 
L 243.144263 139.500951 
L 242.633547 138.837824 
" clip-path="url(#p43d00eea6e)" style="fill: #0000ff"/>
    <path d="M 242.622647 138.846512 
L 249.038948 133.555327 
L 248.183555 133.175834 
L 252.211087 131.481876 
L 249.781106 135.113088 
L 249.571465 134.201078 
L 243.155164 139.492263 
L 242.622647 138.846512 
" clip-path="url(#p43d00eea6e)" style="fill: #0000ff"/>
    <path d="M 242.475704 139.235774 
L 233.931741 86.056488 
L 233.171725 86.602462 
L 233.747466 82.271292 
L 235.650932 86.204144 
L 234.758143 85.923715 
L 243.302106 139.103001 
L 242.475704 139.235774 
" clip-path="url(#p43d00eea6e)" style="fill: #0000ff"/>
    <path d="M 242.665316 139.523153 
L 119.213795 61.498502 
L 119.120382 62.429623 
L 116.253494 59.132433 
L 120.461918 60.307029 
L 119.660974 60.790971 
L 243.112494 138.815622 
L 242.665316 139.523153 
" clip-path="url(#p43d00eea6e)" style="fill: #0000ff"/>
    <path d="M 243.247142 138.953034 
L 277.314738 195.362106 
L 277.814859 194.571163 
L 278.903678 198.802591 
L 275.665438 195.869281 
L 276.598265 195.794812 
L 242.530668 139.38574 
L 243.247142 138.953034 
" clip-path="url(#p43d00eea6e)" style="fill: #0000ff"/>
    <path d="M 242.882817 138.750932 
L 416.844941 136.219753 
L 416.414308 135.38893 
L 420.617131 136.583411 
L 416.450839 137.899664 
L 416.857118 137.056664 
L 242.894994 139.587843 
L 242.882817 138.750932 
" clip-path="url(#p43d00eea6e)" style="fill: #0000ff"/>
    <path d="M 242.770488 139.570784 
L 144.772114 110.659897 
L 144.936675 111.581108 
L 141.277959 109.19274 
L 145.647181 109.172727 
L 145.008949 109.857103 
L 243.007323 138.76799 
L 242.770488 139.570784 
" clip-path="url(#p43d00eea6e)" style="fill: #0000ff"/>
    <path d="M 242.82377 139.582787 
L 203.966512 133.460411 
L 204.249641 134.352346 
L 200.311047 132.46079 
L 204.640454 131.871946 
L 204.096783 132.633611 
L 242.954041 138.755987 
L 242.82377 139.582787 
" clip-path="url(#p43d00eea6e)" style="fill: #0000ff"/>
    <path d="M 242.67634 139.529885 
L 209.12077 119.744075 
L 209.056138 120.677635 
L 206.088857 117.470494 
L 210.331527 118.51465 
L 209.5459 119.02308 
L 243.10147 138.80889 
L 242.67634 139.529885 
" clip-path="url(#p43d00eea6e)" style="fill: #0000ff"/>
    <path d="M 243.245372 139.388645 
L 202.481372 205.662287 
L 203.413562 205.744336 
L 200.151587 208.651228 
L 201.274763 204.42879 
L 201.768439 205.223772 
L 242.532439 138.95013 
L 243.245372 139.388645 
" clip-path="url(#p43d00eea6e)" style="fill: #0000ff"/>
    <path d="M 242.558157 138.912974 
L 255.303651 122.47252 
L 254.385741 122.290442 
L 257.942119 119.752198 
L 256.370231 123.828921 
L 255.965148 122.985346 
L 243.219654 139.425801 
L 242.558157 138.912974 
" clip-path="url(#p43d00eea6e)" style="fill: #0000ff"/>
    <path d="M 242.664832 139.522847 
L 217.572813 123.615927 
L 217.478126 124.546919 
L 214.615753 121.24581 
L 218.822565 122.426163 
L 218.02096 122.909009 
L 243.112978 138.815928 
L 242.664832 139.522847 
" clip-path="url(#p43d00eea6e)" style="fill: #0000ff"/>
    <path d="M 242.861506 139.58699 
L 239.799584 139.386093 
L 240.162387 140.248697 
L 236.068564 138.721897 
L 240.326783 137.743084 
L 239.854383 138.550889 
L 242.916305 138.751785 
L 242.861506 139.58699 
" clip-path="url(#p43d00eea6e)" style="fill: #0000ff"/>
   </g>
   <g id="matplotlib.axis_1">
    <g id="xtick_1">
     <g id="line2d_1">
      <defs>
       <path id="ma59e557a74" d="M 0 0 
L 0 3.5 
" style="stroke: #000000; stroke-width: 0.8"/>
      </defs>
      <g>
       <use xlink:href="#ma59e557a74" x="110.803102" y="253.44" style="stroke: #000000; stroke-width: 0.8"/>
      </g>
     </g>
     <g id="text_1">
      <!-- −2000 -->
      <g transform="translate(93.888258 268.038437) scale(0.1 -0.1)">
       <defs>
        <path id="DejaVuSans-2212" d="M 678 2272 
L 4684 2272 
L 4684 1741 
L 678 1741 
L 678 2272 
z
" transform="scale(0.015625)"/>
        <path id="DejaVuSans-32" d="M 1228 531 
L 3431 531 
L 3431 0 
L 469 0 
L 469 531 
Q 828 903 1448 1529 
Q 2069 2156 2228 2338 
Q 2531 2678 2651 2914 
Q 2772 3150 2772 3378 
Q 2772 3750 2511 3984 
Q 2250 4219 1831 4219 
Q 1534 4219 1204 4116 
Q 875 4013 500 3803 
L 500 4441 
Q 881 4594 1212 4672 
Q 1544 4750 1819 4750 
Q 2544 4750 2975 4387 
Q 3406 4025 3406 3419 
Q 3406 3131 3298 2873 
Q 3191 2616 2906 2266 
Q 2828 2175 2409 1742 
Q 1991 1309 1228 531 
z
" transform="scale(0.015625)"/>
        <path id="DejaVuSans-30" d="M 2034 4250 
Q 1547 4250 1301 3770 
Q 1056 3291 1056 2328 
Q 1056 1369 1301 889 
Q 1547 409 2034 409 
Q 2525 409 2770 889 
Q 3016 1369 3016 2328 
Q 3016 3291 2770 3770 
Q 2525 4250 2034 4250 
z
M 2034 4750 
Q 2819 4750 3233 4129 
Q 3647 3509 3647 2328 
Q 3647 1150 3233 529 
Q 2819 -91 2034 -91 
Q 1250 -91 836 529 
Q 422 1150 422 2328 
Q 422 3509 836 4129 
Q 1250 4750 2034 4750 
z
" transform="scale(0.015625)"/>
       </defs>
       <use xlink:href="#DejaVuSans-2212"/>
       <use xlink:href="#DejaVuSans-32" x="83.789062"/>
       <use xlink:href="#DejaVuSans-30" x="147.412109"/>
       <use xlink:href="#DejaVuSans-30" x="211.035156"/>
       <use xlink:href="#DejaVuSans-30" x="274.658203"/>
      </g>
     </g>
    </g>
    <g id="xtick_2">
     <g id="line2d_2">
      <g>
       <use xlink:href="#ma59e557a74" x="176.846004" y="253.44" style="stroke: #000000; stroke-width: 0.8"/>
      </g>
     </g>
     <g id="text_2">
      <!-- −1000 -->
      <g transform="translate(159.93116 268.038437) scale(0.1 -0.1)">
       <defs>
        <path id="DejaVuSans-31" d="M 794 531 
L 1825 531 
L 1825 4091 
L 703 3866 
L 703 4441 
L 1819 4666 
L 2450 4666 
L 2450 531 
L 3481 531 
L 3481 0 
L 794 0 
L 794 531 
z
" transform="scale(0.015625)"/>
       </defs>
       <use xlink:href="#DejaVuSans-2212"/>
       <use xlink:href="#DejaVuSans-31" x="83.789062"/>
       <use xlink:href="#DejaVuSans-30" x="147.412109"/>
       <use xlink:href="#DejaVuSans-30" x="211.035156"/>
       <use xlink:href="#DejaVuSans-30" x="274.658203"/>
      </g>
     </g>
    </g>
    <g id="xtick_3">
     <g id="line2d_3">
      <g>
       <use xlink:href="#ma59e557a74" x="242.888905" y="253.44" style="stroke: #000000; stroke-width: 0.8"/>
      </g>
     </g>
     <g id="text_3">
      <!-- 0 -->
      <g transform="translate(239.707655 268.038437) scale(0.1 -0.1)">
       <use xlink:href="#DejaVuSans-30"/>
      </g>
     </g>
    </g>
    <g id="xtick_4">
     <g id="line2d_4">
      <g>
       <use xlink:href="#ma59e557a74" x="308.931807" y="253.44" style="stroke: #000000; stroke-width: 0.8"/>
      </g>
     </g>
     <g id="text_4">
      <!-- 1000 -->
      <g transform="translate(296.206807 268.038437) scale(0.1 -0.1)">
       <use xlink:href="#DejaVuSans-31"/>
       <use xlink:href="#DejaVuSans-30" x="63.623047"/>
       <use xlink:href="#DejaVuSans-30" x="127.246094"/>
       <use xlink:href="#DejaVuSans-30" x="190.869141"/>
      </g>
     </g>
    </g>
    <g id="xtick_5">
     <g id="line2d_5">
      <g>
       <use xlink:href="#ma59e557a74" x="374.974709" y="253.44" style="stroke: #000000; stroke-width: 0.8"/>
      </g>
     </g>
     <g id="text_5">
      <!-- 2000 -->
      <g transform="translate(362.249709 268.038437) scale(0.1 -0.1)">
       <use xlink:href="#DejaVuSans-32"/>
       <use xlink:href="#DejaVuSans-30" x="63.623047"/>
       <use xlink:href="#DejaVuSans-30" x="127.246094"/>
       <use xlink:href="#DejaVuSans-30" x="190.869141"/>
      </g>
     </g>
    </g>
    <g id="text_6">
     <!-- $x_1$ -->
     <g transform="translate(263.085312 281.716562) scale(0.1 -0.1)">
      <defs>
       <path id="DejaVuSans-Oblique-78" d="M 3841 3500 
L 2234 1784 
L 3219 0 
L 2559 0 
L 1819 1388 
L 531 0 
L -166 0 
L 1556 1844 
L 641 3500 
L 1300 3500 
L 1972 2234 
L 3144 3500 
L 3841 3500 
z
" transform="scale(0.015625)"/>
      </defs>
      <use xlink:href="#DejaVuSans-Oblique-78" transform="translate(0 0.3125)"/>
      <use xlink:href="#DejaVuSans-31" transform="translate(59.179688 -16.09375) scale(0.7)"/>
     </g>
    </g>
   </g>
   <g id="matplotlib.axis_2">
    <g id="ytick_1">
     <g id="line2d_6">
      <defs>
       <path id="m58640011f0" d="M 0 0 
L -3.5 0 
" style="stroke: #000000; stroke-width: 0.8"/>
      </defs>
      <g>
       <use xlink:href="#m58640011f0" x="101.035312" y="224.982975" style="stroke: #000000; stroke-width: 0.8"/>
      </g>
     </g>
     <g id="text_7">
      <!-- −1500 -->
      <g transform="translate(60.205625 228.782193) scale(0.1 -0.1)">
       <defs>
        <path id="DejaVuSans-35" d="M 691 4666 
L 3169 4666 
L 3169 4134 
L 1269 4134 
L 1269 2991 
Q 1406 3038 1543 3061 
Q 1681 3084 1819 3084 
Q 2600 3084 3056 2656 
Q 3513 2228 3513 1497 
Q 3513 744 3044 326 
Q 2575 -91 1722 -91 
Q 1428 -91 1123 -41 
Q 819 9 494 109 
L 494 744 
Q 775 591 1075 516 
Q 1375 441 1709 441 
Q 2250 441 2565 725 
Q 2881 1009 2881 1497 
Q 2881 1984 2565 2268 
Q 2250 2553 1709 2553 
Q 1456 2553 1204 2497 
Q 953 2441 691 2322 
L 691 4666 
z
" transform="scale(0.015625)"/>
       </defs>
       <use xlink:href="#DejaVuSans-2212"/>
       <use xlink:href="#DejaVuSans-31" x="83.789062"/>
       <use xlink:href="#DejaVuSans-35" x="147.412109"/>
       <use xlink:href="#DejaVuSans-30" x="211.035156"/>
       <use xlink:href="#DejaVuSans-30" x="274.658203"/>
      </g>
     </g>
    </g>
    <g id="ytick_2">
     <g id="line2d_7">
      <g>
       <use xlink:href="#m58640011f0" x="101.035312" y="196.378446" style="stroke: #000000; stroke-width: 0.8"/>
      </g>
     </g>
     <g id="text_8">
      <!-- −1000 -->
      <g transform="translate(60.205625 200.177664) scale(0.1 -0.1)">
       <use xlink:href="#DejaVuSans-2212"/>
       <use xlink:href="#DejaVuSans-31" x="83.789062"/>
       <use xlink:href="#DejaVuSans-30" x="147.412109"/>
       <use xlink:href="#DejaVuSans-30" x="211.035156"/>
       <use xlink:href="#DejaVuSans-30" x="274.658203"/>
      </g>
     </g>
    </g>
    <g id="ytick_3">
     <g id="line2d_8">
      <g>
       <use xlink:href="#m58640011f0" x="101.035312" y="167.773917" style="stroke: #000000; stroke-width: 0.8"/>
      </g>
     </g>
     <g id="text_9">
      <!-- −500 -->
      <g transform="translate(66.568125 171.573135) scale(0.1 -0.1)">
       <use xlink:href="#DejaVuSans-2212"/>
       <use xlink:href="#DejaVuSans-35" x="83.789062"/>
       <use xlink:href="#DejaVuSans-30" x="147.412109"/>
       <use xlink:href="#DejaVuSans-30" x="211.035156"/>
      </g>
     </g>
    </g>
    <g id="ytick_4">
     <g id="line2d_9">
      <g>
       <use xlink:href="#m58640011f0" x="101.035312" y="139.169387" style="stroke: #000000; stroke-width: 0.8"/>
      </g>
     </g>
     <g id="text_10">
      <!-- 0 -->
      <g transform="translate(87.672812 142.968606) scale(0.1 -0.1)">
       <use xlink:href="#DejaVuSans-30"/>
      </g>
     </g>
    </g>
    <g id="ytick_5">
     <g id="line2d_10">
      <g>
       <use xlink:href="#m58640011f0" x="101.035312" y="110.564858" style="stroke: #000000; stroke-width: 0.8"/>
      </g>
     </g>
     <g id="text_11">
      <!-- 500 -->
      <g transform="translate(74.947812 114.364077) scale(0.1 -0.1)">
       <use xlink:href="#DejaVuSans-35"/>
       <use xlink:href="#DejaVuSans-30" x="63.623047"/>
       <use xlink:href="#DejaVuSans-30" x="127.246094"/>
      </g>
     </g>
    </g>
    <g id="ytick_6">
     <g id="line2d_11">
      <g>
       <use xlink:href="#m58640011f0" x="101.035312" y="81.960329" style="stroke: #000000; stroke-width: 0.8"/>
      </g>
     </g>
     <g id="text_12">
      <!-- 1000 -->
      <g transform="translate(68.585312 85.759548) scale(0.1 -0.1)">
       <use xlink:href="#DejaVuSans-31"/>
       <use xlink:href="#DejaVuSans-30" x="63.623047"/>
       <use xlink:href="#DejaVuSans-30" x="127.246094"/>
       <use xlink:href="#DejaVuSans-30" x="190.869141"/>
      </g>
     </g>
    </g>
    <g id="ytick_7">
     <g id="line2d_12">
      <g>
       <use xlink:href="#m58640011f0" x="101.035312" y="53.3558" style="stroke: #000000; stroke-width: 0.8"/>
      </g>
     </g>
     <g id="text_13">
      <!-- 1500 -->
      <g transform="translate(68.585312 57.155019) scale(0.1 -0.1)">
       <use xlink:href="#DejaVuSans-31"/>
       <use xlink:href="#DejaVuSans-35" x="63.623047"/>
       <use xlink:href="#DejaVuSans-30" x="127.246094"/>
       <use xlink:href="#DejaVuSans-30" x="190.869141"/>
      </g>
     </g>
    </g>
    <g id="text_14">
     <!-- $x_2$ -->
     <g transform="translate(54.125937 150.07) rotate(-90) scale(0.1 -0.1)">
      <use xlink:href="#DejaVuSans-Oblique-78" transform="translate(0 0.3125)"/>
      <use xlink:href="#DejaVuSans-32" transform="translate(59.179688 -16.09375) scale(0.7)"/>
     </g>
    </g>
   </g>
   <g id="line2d_13">
    <defs>
     <path id="md98b75bb30" d="M 0 -3 
L -0.673542 -0.927051 
L -2.85317 -0.927051 
L -1.089814 0.354102 
L -1.763356 2.427051 
L -0 1.145898 
L 1.763356 2.427051 
L 1.089814 0.354102 
L 2.85317 -0.927051 
L 0.673542 -0.927051 
z
" style="stroke: #ff0000; stroke-linejoin: bevel"/>
    </defs>
    <g clip-path="url(#p43d00eea6e)">
     <use xlink:href="#md98b75bb30" x="242.904359" y="139.177582" style="fill: #ff0000; stroke: #ff0000; stroke-linejoin: bevel"/>
     <use xlink:href="#md98b75bb30" x="242.900453" y="139.175309" style="fill: #ff0000; stroke: #ff0000; stroke-linejoin: bevel"/>
     <use xlink:href="#md98b75bb30" x="242.871028" y="139.120665" style="fill: #ff0000; stroke: #ff0000; stroke-linejoin: bevel"/>
     <use xlink:href="#md98b75bb30" x="242.894817" y="139.168195" style="fill: #ff0000; stroke: #ff0000; stroke-linejoin: bevel"/>
     <use xlink:href="#md98b75bb30" x="242.924097" y="139.206973" style="fill: #ff0000; stroke: #ff0000; stroke-linejoin: bevel"/>
     <use xlink:href="#md98b75bb30" x="242.900771" y="139.166156" style="fill: #ff0000; stroke: #ff0000; stroke-linejoin: bevel"/>
     <use xlink:href="#md98b75bb30" x="242.900526" y="139.157535" style="fill: #ff0000; stroke: #ff0000; stroke-linejoin: bevel"/>
     <use xlink:href="#md98b75bb30" x="242.930517" y="139.128931" style="fill: #ff0000; stroke: #ff0000; stroke-linejoin: bevel"/>
     <use xlink:href="#md98b75bb30" x="242.897658" y="139.166043" style="fill: #ff0000; stroke: #ff0000; stroke-linejoin: bevel"/>
     <use xlink:href="#md98b75bb30" x="242.893724" y="139.140261" style="fill: #ff0000; stroke: #ff0000; stroke-linejoin: bevel"/>
     <use xlink:href="#md98b75bb30" x="242.844546" y="139.129921" style="fill: #ff0000; stroke: #ff0000; stroke-linejoin: bevel"/>
     <use xlink:href="#md98b75bb30" x="242.902376" y="139.194594" style="fill: #ff0000; stroke: #ff0000; stroke-linejoin: bevel"/>
     <use xlink:href="#md98b75bb30" x="242.952585" y="139.161928" style="fill: #ff0000; stroke: #ff0000; stroke-linejoin: bevel"/>
     <use xlink:href="#md98b75bb30" x="242.854218" y="139.157387" style="fill: #ff0000; stroke: #ff0000; stroke-linejoin: bevel"/>
     <use xlink:href="#md98b75bb30" x="242.876831" y="139.168545" style="fill: #ff0000; stroke: #ff0000; stroke-linejoin: bevel"/>
     <use xlink:href="#md98b75bb30" x="242.879765" y="139.159943" style="fill: #ff0000; stroke: #ff0000; stroke-linejoin: bevel"/>
     <use xlink:href="#md98b75bb30" x="242.879512" y="139.197124" style="fill: #ff0000; stroke: #ff0000; stroke-linejoin: bevel"/>
     <use xlink:href="#md98b75bb30" x="242.900388" y="139.160016" style="fill: #ff0000; stroke: #ff0000; stroke-linejoin: bevel"/>
     <use xlink:href="#md98b75bb30" x="242.883387" y="139.161992" style="fill: #ff0000; stroke: #ff0000; stroke-linejoin: bevel"/>
     <use xlink:href="#md98b75bb30" x="242.891235" y="139.170508" style="fill: #ff0000; stroke: #ff0000; stroke-linejoin: bevel"/>
    </g>
   </g>
   <g id="line2d_14">
    <defs>
     <path id="m1977cac10d" d="M 0 1.5 
C 0.397805 1.5 0.77937 1.341951 1.06066 1.06066 
C 1.341951 0.77937 1.5 0.397805 1.5 0 
C 1.5 -0.397805 1.341951 -0.77937 1.06066 -1.06066 
C 0.77937 -1.341951 0.397805 -1.5 0 -1.5 
C -0.397805 -1.5 -0.77937 -1.341951 -1.06066 -1.06066 
C -1.341951 -0.77937 -1.5 -0.397805 -1.5 0 
C -1.5 0.397805 -1.341951 0.77937 -1.06066 1.06066 
C -0.77937 1.341951 -0.397805 1.5 0 1.5 
z
" style="stroke: #0000ff"/>
    </defs>
    <g clip-path="url(#p43d00eea6e)">
     <use xlink:href="#m1977cac10d" x="274.289374" y="155.460344" style="fill: #0000ff; stroke: #0000ff"/>
     <use xlink:href="#m1977cac10d" x="262.493137" y="149.615407" style="fill: #0000ff; stroke: #0000ff"/>
     <use xlink:href="#m1977cac10d" x="177.308723" y="45.883636" style="fill: #0000ff; stroke: #0000ff"/>
     <use xlink:href="#m1977cac10d" x="244.481036" y="135.006875" style="fill: #0000ff; stroke: #0000ff"/>
     <use xlink:href="#m1977cac10d" x="351.756493" y="243.556364" style="fill: #0000ff; stroke: #0000ff"/>
     <use xlink:href="#m1977cac10d" x="260.313976" y="131.983636" style="fill: #0000ff; stroke: #0000ff"/>
     <use xlink:href="#m1977cac10d" x="257.606159" y="114.660381" style="fill: #0000ff; stroke: #0000ff"/>
     <use xlink:href="#m1977cac10d" x="343.994638" y="61.301492" style="fill: #0000ff; stroke: #0000ff"/>
     <use xlink:href="#m1977cac10d" x="252.211087" y="131.481876" style="fill: #0000ff; stroke: #0000ff"/>
     <use xlink:href="#m1977cac10d" x="233.747466" y="82.271292" style="fill: #0000ff; stroke: #0000ff"/>
     <use xlink:href="#m1977cac10d" x="116.253494" y="59.132433" style="fill: #0000ff; stroke: #0000ff"/>
     <use xlink:href="#m1977cac10d" x="278.903678" y="198.802591" style="fill: #0000ff; stroke: #0000ff"/>
     <use xlink:href="#m1977cac10d" x="420.617131" y="136.583411" style="fill: #0000ff; stroke: #0000ff"/>
     <use xlink:href="#m1977cac10d" x="141.277959" y="109.19274" style="fill: #0000ff; stroke: #0000ff"/>
     <use xlink:href="#m1977cac10d" x="200.311047" y="132.46079" style="fill: #0000ff; stroke: #0000ff"/>
     <use xlink:href="#m1977cac10d" x="206.088857" y="117.470494" style="fill: #0000ff; stroke: #0000ff"/>
     <use xlink:href="#m1977cac10d" x="200.151587" y="208.651228" style="fill: #0000ff; stroke: #0000ff"/>
     <use xlink:href="#m1977cac10d" x="257.942119" y="119.752198" style="fill: #0000ff; stroke: #0000ff"/>
     <use xlink:href="#m1977cac10d" x="214.615753" y="121.24581" style="fill: #0000ff; stroke: #0000ff"/>
     <use xlink:href="#m1977cac10d" x="236.068564" y="138.721897" style="fill: #0000ff; stroke: #0000ff"/>
    </g>
   </g>
   <g id="patch_3">
    <path d="M 101.035312 253.44 
L 101.035312 36 
" style="fill: none; stroke: #000000; stroke-width: 0.8; stroke-linejoin: miter; stroke-linecap: square"/>
   </g>
   <g id="patch_4">
    <path d="M 435.835312 253.44 
L 435.835312 36 
" style="fill: none; stroke: #000000; stroke-width: 0.8; stroke-linejoin: miter; stroke-linecap: square"/>
   </g>
   <g id="patch_5">
    <path d="M 101.035312 253.44 
L 435.835312 253.44 
" style="fill: none; stroke: #000000; stroke-width: 0.8; stroke-linejoin: miter; stroke-linecap: square"/>
   </g>
   <g id="patch_6">
    <path d="M 101.035312 36 
L 435.835312 36 
" style="fill: none; stroke: #000000; stroke-width: 0.8; stroke-linejoin: miter; stroke-linecap: square"/>
   </g>
   <g id="legend_1">
    <g id="patch_7">
     <path d="M 108.035312 248.44 
L 218.636875 248.44 
Q 220.636875 248.44 220.636875 246.44 
L 220.636875 218.08375 
Q 220.636875 216.08375 218.636875 216.08375 
L 108.035312 216.08375 
Q 106.035312 216.08375 106.035312 218.08375 
L 106.035312 246.44 
Q 106.035312 248.44 108.035312 248.44 
z
" style="fill: #ffffff; opacity: 0.8; stroke: #cccccc; stroke-linejoin: miter"/>
    </g>
    <g id="line2d_15">
     <g>
      <use xlink:href="#md98b75bb30" x="120.035312" y="224.182187" style="fill: #ff0000; stroke: #ff0000; stroke-linejoin: bevel"/>
     </g>
    </g>
    <g id="text_15">
     <!-- True Inputs -->
     <g transform="translate(138.035312 227.682187) scale(0.1 -0.1)">
      <defs>
       <path id="DejaVuSans-54" d="M -19 4666 
L 3928 4666 
L 3928 4134 
L 2272 4134 
L 2272 0 
L 1638 0 
L 1638 4134 
L -19 4134 
L -19 4666 
z
" transform="scale(0.015625)"/>
       <path id="DejaVuSans-72" d="M 2631 2963 
Q 2534 3019 2420 3045 
Q 2306 3072 2169 3072 
Q 1681 3072 1420 2755 
Q 1159 2438 1159 1844 
L 1159 0 
L 581 0 
L 581 3500 
L 1159 3500 
L 1159 2956 
Q 1341 3275 1631 3429 
Q 1922 3584 2338 3584 
Q 2397 3584 2469 3576 
Q 2541 3569 2628 3553 
L 2631 2963 
z
" transform="scale(0.015625)"/>
       <path id="DejaVuSans-75" d="M 544 1381 
L 544 3500 
L 1119 3500 
L 1119 1403 
Q 1119 906 1312 657 
Q 1506 409 1894 409 
Q 2359 409 2629 706 
Q 2900 1003 2900 1516 
L 2900 3500 
L 3475 3500 
L 3475 0 
L 2900 0 
L 2900 538 
Q 2691 219 2414 64 
Q 2138 -91 1772 -91 
Q 1169 -91 856 284 
Q 544 659 544 1381 
z
M 1991 3584 
L 1991 3584 
z
" transform="scale(0.015625)"/>
       <path id="DejaVuSans-65" d="M 3597 1894 
L 3597 1613 
L 953 1613 
Q 991 1019 1311 708 
Q 1631 397 2203 397 
Q 2534 397 2845 478 
Q 3156 559 3463 722 
L 3463 178 
Q 3153 47 2828 -22 
Q 2503 -91 2169 -91 
Q 1331 -91 842 396 
Q 353 884 353 1716 
Q 353 2575 817 3079 
Q 1281 3584 2069 3584 
Q 2775 3584 3186 3129 
Q 3597 2675 3597 1894 
z
M 3022 2063 
Q 3016 2534 2758 2815 
Q 2500 3097 2075 3097 
Q 1594 3097 1305 2825 
Q 1016 2553 972 2059 
L 3022 2063 
z
" transform="scale(0.015625)"/>
       <path id="DejaVuSans-20" transform="scale(0.015625)"/>
       <path id="DejaVuSans-49" d="M 628 4666 
L 1259 4666 
L 1259 0 
L 628 0 
L 628 4666 
z
" transform="scale(0.015625)"/>
       <path id="DejaVuSans-6e" d="M 3513 2113 
L 3513 0 
L 2938 0 
L 2938 2094 
Q 2938 2591 2744 2837 
Q 2550 3084 2163 3084 
Q 1697 3084 1428 2787 
Q 1159 2491 1159 1978 
L 1159 0 
L 581 0 
L 581 3500 
L 1159 3500 
L 1159 2956 
Q 1366 3272 1645 3428 
Q 1925 3584 2291 3584 
Q 2894 3584 3203 3211 
Q 3513 2838 3513 2113 
z
" transform="scale(0.015625)"/>
       <path id="DejaVuSans-70" d="M 1159 525 
L 1159 -1331 
L 581 -1331 
L 581 3500 
L 1159 3500 
L 1159 2969 
Q 1341 3281 1617 3432 
Q 1894 3584 2278 3584 
Q 2916 3584 3314 3078 
Q 3713 2572 3713 1747 
Q 3713 922 3314 415 
Q 2916 -91 2278 -91 
Q 1894 -91 1617 61 
Q 1341 213 1159 525 
z
M 3116 1747 
Q 3116 2381 2855 2742 
Q 2594 3103 2138 3103 
Q 1681 3103 1420 2742 
Q 1159 2381 1159 1747 
Q 1159 1113 1420 752 
Q 1681 391 2138 391 
Q 2594 391 2855 752 
Q 3116 1113 3116 1747 
z
" transform="scale(0.015625)"/>
       <path id="DejaVuSans-74" d="M 1172 4494 
L 1172 3500 
L 2356 3500 
L 2356 3053 
L 1172 3053 
L 1172 1153 
Q 1172 725 1289 603 
Q 1406 481 1766 481 
L 2356 481 
L 2356 0 
L 1766 0 
Q 1100 0 847 248 
Q 594 497 594 1153 
L 594 3053 
L 172 3053 
L 172 3500 
L 594 3500 
L 594 4494 
L 1172 4494 
z
" transform="scale(0.015625)"/>
       <path id="DejaVuSans-73" d="M 2834 3397 
L 2834 2853 
Q 2591 2978 2328 3040 
Q 2066 3103 1784 3103 
Q 1356 3103 1142 2972 
Q 928 2841 928 2578 
Q 928 2378 1081 2264 
Q 1234 2150 1697 2047 
L 1894 2003 
Q 2506 1872 2764 1633 
Q 3022 1394 3022 966 
Q 3022 478 2636 193 
Q 2250 -91 1575 -91 
Q 1294 -91 989 -36 
Q 684 19 347 128 
L 347 722 
Q 666 556 975 473 
Q 1284 391 1588 391 
Q 1994 391 2212 530 
Q 2431 669 2431 922 
Q 2431 1156 2273 1281 
Q 2116 1406 1581 1522 
L 1381 1569 
Q 847 1681 609 1914 
Q 372 2147 372 2553 
Q 372 3047 722 3315 
Q 1072 3584 1716 3584 
Q 2034 3584 2315 3537 
Q 2597 3491 2834 3397 
z
" transform="scale(0.015625)"/>
      </defs>
      <use xlink:href="#DejaVuSans-54"/>
      <use xlink:href="#DejaVuSans-72" x="46.333984"/>
      <use xlink:href="#DejaVuSans-75" x="87.447266"/>
      <use xlink:href="#DejaVuSans-65" x="150.826172"/>
      <use xlink:href="#DejaVuSans-20" x="212.349609"/>
      <use xlink:href="#DejaVuSans-49" x="244.136719"/>
      <use xlink:href="#DejaVuSans-6e" x="273.628906"/>
      <use xlink:href="#DejaVuSans-70" x="337.007812"/>
      <use xlink:href="#DejaVuSans-75" x="400.484375"/>
      <use xlink:href="#DejaVuSans-74" x="463.863281"/>
      <use xlink:href="#DejaVuSans-73" x="503.072266"/>
     </g>
    </g>
    <g id="line2d_16">
     <g>
      <use xlink:href="#m1977cac10d" x="120.035312" y="238.860312" style="fill: #0000ff; stroke: #0000ff"/>
     </g>
    </g>
    <g id="text_16">
     <!-- Decoded Inputs -->
     <g transform="translate(138.035312 242.360312) scale(0.1 -0.1)">
      <defs>
       <path id="DejaVuSans-44" d="M 1259 4147 
L 1259 519 
L 2022 519 
Q 2988 519 3436 956 
Q 3884 1394 3884 2338 
Q 3884 3275 3436 3711 
Q 2988 4147 2022 4147 
L 1259 4147 
z
M 628 4666 
L 1925 4666 
Q 3281 4666 3915 4102 
Q 4550 3538 4550 2338 
Q 4550 1131 3912 565 
Q 3275 0 1925 0 
L 628 0 
L 628 4666 
z
" transform="scale(0.015625)"/>
       <path id="DejaVuSans-63" d="M 3122 3366 
L 3122 2828 
Q 2878 2963 2633 3030 
Q 2388 3097 2138 3097 
Q 1578 3097 1268 2742 
Q 959 2388 959 1747 
Q 959 1106 1268 751 
Q 1578 397 2138 397 
Q 2388 397 2633 464 
Q 2878 531 3122 666 
L 3122 134 
Q 2881 22 2623 -34 
Q 2366 -91 2075 -91 
Q 1284 -91 818 406 
Q 353 903 353 1747 
Q 353 2603 823 3093 
Q 1294 3584 2113 3584 
Q 2378 3584 2631 3529 
Q 2884 3475 3122 3366 
z
" transform="scale(0.015625)"/>
       <path id="DejaVuSans-6f" d="M 1959 3097 
Q 1497 3097 1228 2736 
Q 959 2375 959 1747 
Q 959 1119 1226 758 
Q 1494 397 1959 397 
Q 2419 397 2687 759 
Q 2956 1122 2956 1747 
Q 2956 2369 2687 2733 
Q 2419 3097 1959 3097 
z
M 1959 3584 
Q 2709 3584 3137 3096 
Q 3566 2609 3566 1747 
Q 3566 888 3137 398 
Q 2709 -91 1959 -91 
Q 1206 -91 779 398 
Q 353 888 353 1747 
Q 353 2609 779 3096 
Q 1206 3584 1959 3584 
z
" transform="scale(0.015625)"/>
       <path id="DejaVuSans-64" d="M 2906 2969 
L 2906 4863 
L 3481 4863 
L 3481 0 
L 2906 0 
L 2906 525 
Q 2725 213 2448 61 
Q 2172 -91 1784 -91 
Q 1150 -91 751 415 
Q 353 922 353 1747 
Q 353 2572 751 3078 
Q 1150 3584 1784 3584 
Q 2172 3584 2448 3432 
Q 2725 3281 2906 2969 
z
M 947 1747 
Q 947 1113 1208 752 
Q 1469 391 1925 391 
Q 2381 391 2643 752 
Q 2906 1113 2906 1747 
Q 2906 2381 2643 2742 
Q 2381 3103 1925 3103 
Q 1469 3103 1208 2742 
Q 947 2381 947 1747 
z
" transform="scale(0.015625)"/>
      </defs>
      <use xlink:href="#DejaVuSans-44"/>
      <use xlink:href="#DejaVuSans-65" x="77.001953"/>
      <use xlink:href="#DejaVuSans-63" x="138.525391"/>
      <use xlink:href="#DejaVuSans-6f" x="193.505859"/>
      <use xlink:href="#DejaVuSans-64" x="254.6875"/>
      <use xlink:href="#DejaVuSans-65" x="318.164062"/>
      <use xlink:href="#DejaVuSans-64" x="379.6875"/>
      <use xlink:href="#DejaVuSans-20" x="443.164062"/>
      <use xlink:href="#DejaVuSans-49" x="474.951172"/>
      <use xlink:href="#DejaVuSans-6e" x="504.443359"/>
      <use xlink:href="#DejaVuSans-70" x="567.822266"/>
      <use xlink:href="#DejaVuSans-75" x="631.298828"/>
      <use xlink:href="#DejaVuSans-74" x="694.677734"/>
      <use xlink:href="#DejaVuSans-73" x="733.886719"/>
     </g>
    </g>
   </g>
  </g>
  <g id="text_17">
   <!-- Decoded Values and True Values for 2-D LIF Neurons using Encoders as the Decoders -->
   <g transform="translate(7.2 16.318125) scale(0.12 -0.12)">
    <defs>
     <path id="DejaVuSans-56" d="M 1831 0 
L 50 4666 
L 709 4666 
L 2188 738 
L 3669 4666 
L 4325 4666 
L 2547 0 
L 1831 0 
z
" transform="scale(0.015625)"/>
     <path id="DejaVuSans-61" d="M 2194 1759 
Q 1497 1759 1228 1600 
Q 959 1441 959 1056 
Q 959 750 1161 570 
Q 1363 391 1709 391 
Q 2188 391 2477 730 
Q 2766 1069 2766 1631 
L 2766 1759 
L 2194 1759 
z
M 3341 1997 
L 3341 0 
L 2766 0 
L 2766 531 
Q 2569 213 2275 61 
Q 1981 -91 1556 -91 
Q 1019 -91 701 211 
Q 384 513 384 1019 
Q 384 1609 779 1909 
Q 1175 2209 1959 2209 
L 2766 2209 
L 2766 2266 
Q 2766 2663 2505 2880 
Q 2244 3097 1772 3097 
Q 1472 3097 1187 3025 
Q 903 2953 641 2809 
L 641 3341 
Q 956 3463 1253 3523 
Q 1550 3584 1831 3584 
Q 2591 3584 2966 3190 
Q 3341 2797 3341 1997 
z
" transform="scale(0.015625)"/>
     <path id="DejaVuSans-6c" d="M 603 4863 
L 1178 4863 
L 1178 0 
L 603 0 
L 603 4863 
z
" transform="scale(0.015625)"/>
     <path id="DejaVuSans-66" d="M 2375 4863 
L 2375 4384 
L 1825 4384 
Q 1516 4384 1395 4259 
Q 1275 4134 1275 3809 
L 1275 3500 
L 2222 3500 
L 2222 3053 
L 1275 3053 
L 1275 0 
L 697 0 
L 697 3053 
L 147 3053 
L 147 3500 
L 697 3500 
L 697 3744 
Q 697 4328 969 4595 
Q 1241 4863 1831 4863 
L 2375 4863 
z
" transform="scale(0.015625)"/>
     <path id="DejaVuSans-2d" d="M 313 2009 
L 1997 2009 
L 1997 1497 
L 313 1497 
L 313 2009 
z
" transform="scale(0.015625)"/>
     <path id="DejaVuSans-4c" d="M 628 4666 
L 1259 4666 
L 1259 531 
L 3531 531 
L 3531 0 
L 628 0 
L 628 4666 
z
" transform="scale(0.015625)"/>
     <path id="DejaVuSans-46" d="M 628 4666 
L 3309 4666 
L 3309 4134 
L 1259 4134 
L 1259 2759 
L 3109 2759 
L 3109 2228 
L 1259 2228 
L 1259 0 
L 628 0 
L 628 4666 
z
" transform="scale(0.015625)"/>
     <path id="DejaVuSans-4e" d="M 628 4666 
L 1478 4666 
L 3547 763 
L 3547 4666 
L 4159 4666 
L 4159 0 
L 3309 0 
L 1241 3903 
L 1241 0 
L 628 0 
L 628 4666 
z
" transform="scale(0.015625)"/>
     <path id="DejaVuSans-69" d="M 603 3500 
L 1178 3500 
L 1178 0 
L 603 0 
L 603 3500 
z
M 603 4863 
L 1178 4863 
L 1178 4134 
L 603 4134 
L 603 4863 
z
" transform="scale(0.015625)"/>
     <path id="DejaVuSans-67" d="M 2906 1791 
Q 2906 2416 2648 2759 
Q 2391 3103 1925 3103 
Q 1463 3103 1205 2759 
Q 947 2416 947 1791 
Q 947 1169 1205 825 
Q 1463 481 1925 481 
Q 2391 481 2648 825 
Q 2906 1169 2906 1791 
z
M 3481 434 
Q 3481 -459 3084 -895 
Q 2688 -1331 1869 -1331 
Q 1566 -1331 1297 -1286 
Q 1028 -1241 775 -1147 
L 775 -588 
Q 1028 -725 1275 -790 
Q 1522 -856 1778 -856 
Q 2344 -856 2625 -561 
Q 2906 -266 2906 331 
L 2906 616 
Q 2728 306 2450 153 
Q 2172 0 1784 0 
Q 1141 0 747 490 
Q 353 981 353 1791 
Q 353 2603 747 3093 
Q 1141 3584 1784 3584 
Q 2172 3584 2450 3431 
Q 2728 3278 2906 2969 
L 2906 3500 
L 3481 3500 
L 3481 434 
z
" transform="scale(0.015625)"/>
     <path id="DejaVuSans-45" d="M 628 4666 
L 3578 4666 
L 3578 4134 
L 1259 4134 
L 1259 2753 
L 3481 2753 
L 3481 2222 
L 1259 2222 
L 1259 531 
L 3634 531 
L 3634 0 
L 628 0 
L 628 4666 
z
" transform="scale(0.015625)"/>
     <path id="DejaVuSans-68" d="M 3513 2113 
L 3513 0 
L 2938 0 
L 2938 2094 
Q 2938 2591 2744 2837 
Q 2550 3084 2163 3084 
Q 1697 3084 1428 2787 
Q 1159 2491 1159 1978 
L 1159 0 
L 581 0 
L 581 4863 
L 1159 4863 
L 1159 2956 
Q 1366 3272 1645 3428 
Q 1925 3584 2291 3584 
Q 2894 3584 3203 3211 
Q 3513 2838 3513 2113 
z
" transform="scale(0.015625)"/>
    </defs>
    <use xlink:href="#DejaVuSans-44"/>
    <use xlink:href="#DejaVuSans-65" x="77.001953"/>
    <use xlink:href="#DejaVuSans-63" x="138.525391"/>
    <use xlink:href="#DejaVuSans-6f" x="193.505859"/>
    <use xlink:href="#DejaVuSans-64" x="254.6875"/>
    <use xlink:href="#DejaVuSans-65" x="318.164062"/>
    <use xlink:href="#DejaVuSans-64" x="379.6875"/>
    <use xlink:href="#DejaVuSans-20" x="443.164062"/>
    <use xlink:href="#DejaVuSans-56" x="474.951172"/>
    <use xlink:href="#DejaVuSans-61" x="535.609375"/>
    <use xlink:href="#DejaVuSans-6c" x="596.888672"/>
    <use xlink:href="#DejaVuSans-75" x="624.671875"/>
    <use xlink:href="#DejaVuSans-65" x="688.050781"/>
    <use xlink:href="#DejaVuSans-73" x="749.574219"/>
    <use xlink:href="#DejaVuSans-20" x="801.673828"/>
    <use xlink:href="#DejaVuSans-61" x="833.460938"/>
    <use xlink:href="#DejaVuSans-6e" x="894.740234"/>
    <use xlink:href="#DejaVuSans-64" x="958.119141"/>
    <use xlink:href="#DejaVuSans-20" x="1021.595703"/>
    <use xlink:href="#DejaVuSans-54" x="1053.382812"/>
    <use xlink:href="#DejaVuSans-72" x="1099.716797"/>
    <use xlink:href="#DejaVuSans-75" x="1140.830078"/>
    <use xlink:href="#DejaVuSans-65" x="1204.208984"/>
    <use xlink:href="#DejaVuSans-20" x="1265.732422"/>
    <use xlink:href="#DejaVuSans-56" x="1297.519531"/>
    <use xlink:href="#DejaVuSans-61" x="1358.177734"/>
    <use xlink:href="#DejaVuSans-6c" x="1419.457031"/>
    <use xlink:href="#DejaVuSans-75" x="1447.240234"/>
    <use xlink:href="#DejaVuSans-65" x="1510.619141"/>
    <use xlink:href="#DejaVuSans-73" x="1572.142578"/>
    <use xlink:href="#DejaVuSans-20" x="1624.242188"/>
    <use xlink:href="#DejaVuSans-66" x="1656.029297"/>
    <use xlink:href="#DejaVuSans-6f" x="1691.234375"/>
    <use xlink:href="#DejaVuSans-72" x="1752.416016"/>
    <use xlink:href="#DejaVuSans-20" x="1793.529297"/>
    <use xlink:href="#DejaVuSans-32" x="1825.316406"/>
    <use xlink:href="#DejaVuSans-2d" x="1888.939453"/>
    <use xlink:href="#DejaVuSans-44" x="1925.023438"/>
    <use xlink:href="#DejaVuSans-20" x="2002.025391"/>
    <use xlink:href="#DejaVuSans-4c" x="2033.8125"/>
    <use xlink:href="#DejaVuSans-49" x="2089.525391"/>
    <use xlink:href="#DejaVuSans-46" x="2119.017578"/>
    <use xlink:href="#DejaVuSans-20" x="2176.537109"/>
    <use xlink:href="#DejaVuSans-4e" x="2208.324219"/>
    <use xlink:href="#DejaVuSans-65" x="2283.128906"/>
    <use xlink:href="#DejaVuSans-75" x="2344.652344"/>
    <use xlink:href="#DejaVuSans-72" x="2408.03125"/>
    <use xlink:href="#DejaVuSans-6f" x="2446.894531"/>
    <use xlink:href="#DejaVuSans-6e" x="2508.076172"/>
    <use xlink:href="#DejaVuSans-73" x="2571.455078"/>
    <use xlink:href="#DejaVuSans-20" x="2623.554688"/>
    <use xlink:href="#DejaVuSans-75" x="2655.341797"/>
    <use xlink:href="#DejaVuSans-73" x="2718.720703"/>
    <use xlink:href="#DejaVuSans-69" x="2770.820312"/>
    <use xlink:href="#DejaVuSans-6e" x="2798.603516"/>
    <use xlink:href="#DejaVuSans-67" x="2861.982422"/>
    <use xlink:href="#DejaVuSans-20" x="2925.458984"/>
    <use xlink:href="#DejaVuSans-45" x="2957.246094"/>
    <use xlink:href="#DejaVuSans-6e" x="3020.429688"/>
    <use xlink:href="#DejaVuSans-63" x="3083.808594"/>
    <use xlink:href="#DejaVuSans-6f" x="3138.789062"/>
    <use xlink:href="#DejaVuSans-64" x="3199.970703"/>
    <use xlink:href="#DejaVuSans-65" x="3263.447266"/>
    <use xlink:href="#DejaVuSans-72" x="3324.970703"/>
    <use xlink:href="#DejaVuSans-73" x="3366.083984"/>
    <use xlink:href="#DejaVuSans-20" x="3418.183594"/>
    <use xlink:href="#DejaVuSans-61" x="3449.970703"/>
    <use xlink:href="#DejaVuSans-73" x="3511.25"/>
    <use xlink:href="#DejaVuSans-20" x="3563.349609"/>
    <use xlink:href="#DejaVuSans-74" x="3595.136719"/>
    <use xlink:href="#DejaVuSans-68" x="3634.345703"/>
    <use xlink:href="#DejaVuSans-65" x="3697.724609"/>
    <use xlink:href="#DejaVuSans-20" x="3759.248047"/>
    <use xlink:href="#DejaVuSans-44" x="3791.035156"/>
    <use xlink:href="#DejaVuSans-65" x="3868.037109"/>
    <use xlink:href="#DejaVuSans-63" x="3929.560547"/>
    <use xlink:href="#DejaVuSans-6f" x="3984.541016"/>
    <use xlink:href="#DejaVuSans-64" x="4045.722656"/>
    <use xlink:href="#DejaVuSans-65" x="4109.199219"/>
    <use xlink:href="#DejaVuSans-72" x="4170.722656"/>
    <use xlink:href="#DejaVuSans-73" x="4211.835938"/>
   </g>
  </g>
 </g>
 <defs>
  <clipPath id="p43d00eea6e">
   <rect x="101.035312" y="36" width="334.8" height="217.44"/>
  </clipPath>
 </defs>
</svg>
