<?xml version="1.0" encoding="utf-8" standalone="no"?>
<!DOCTYPE svg PUBLIC "-//W3C//DTD SVG 1.1//EN"
  "http://www.w3.org/Graphics/SVG/1.1/DTD/svg11.dtd">
<svg xmlns:xlink="http://www.w3.org/1999/xlink" width="388.965625pt" height="290.99625pt" viewBox="0 0 388.965625 290.99625" xmlns="http://www.w3.org/2000/svg" version="1.1">
 <metadata>
  <rdf:RDF xmlns:dc="http://purl.org/dc/elements/1.1/" xmlns:cc="http://creativecommons.org/ns#" xmlns:rdf="http://www.w3.org/1999/02/22-rdf-syntax-ns#">
   <cc:Work>
    <dc:type rdf:resource="http://purl.org/dc/dcmitype/StillImage"/>
    <dc:date>2022-09-28T18:50:03.363409</dc:date>
    <dc:format>image/svg+xml</dc:format>
    <dc:creator>
     <cc:Agent>
      <dc:title>Matplotlib v3.6.0, https://matplotlib.org/</dc:title>
     </cc:Agent>
    </dc:creator>
   </cc:Work>
  </rdf:RDF>
 </metadata>
 <defs>
  <style type="text/css">*{stroke-linejoin: round; stroke-linecap: butt}</style>
 </defs>
 <g id="figure_1">
  <g id="patch_1">
   <path d="M 0 290.99625 
L 388.965625 290.99625 
L 388.965625 0 
L 0 0 
L 0 290.99625 
z
" style="fill: none"/>
  </g>
  <g id="axes_1">
   <g id="patch_2">
    <path d="M 46.965625 253.44 
L 381.765625 253.44 
L 381.765625 36 
L 46.965625 36 
z
" style="fill: #ffffff"/>
   </g>
   <g id="matplotlib.axis_1">
    <g id="xtick_1">
     <g id="line2d_1">
      <defs>
       <path id="m534f506150" d="M 0 0 
L 0 3.5 
" style="stroke: #000000; stroke-width: 0.8"/>
      </defs>
      <g>
       <use xlink:href="#m534f506150" x="62.183807" y="253.44" style="stroke: #000000; stroke-width: 0.8"/>
      </g>
     </g>
     <g id="text_1">
      <!-- −1.00 -->
      <g transform="translate(46.861151 268.038437) scale(0.1 -0.1)">
       <defs>
        <path id="DejaVuSans-2212" d="M 678 2272 
L 4684 2272 
L 4684 1741 
L 678 1741 
L 678 2272 
z
" transform="scale(0.015625)"/>
        <path id="DejaVuSans-31" d="M 794 531 
L 1825 531 
L 1825 4091 
L 703 3866 
L 703 4441 
L 1819 4666 
L 2450 4666 
L 2450 531 
L 3481 531 
L 3481 0 
L 794 0 
L 794 531 
z
" transform="scale(0.015625)"/>
        <path id="DejaVuSans-2e" d="M 684 794 
L 1344 794 
L 1344 0 
L 684 0 
L 684 794 
z
" transform="scale(0.015625)"/>
        <path id="DejaVuSans-30" d="M 2034 4250 
Q 1547 4250 1301 3770 
Q 1056 3291 1056 2328 
Q 1056 1369 1301 889 
Q 1547 409 2034 409 
Q 2525 409 2770 889 
Q 3016 1369 3016 2328 
Q 3016 3291 2770 3770 
Q 2525 4250 2034 4250 
z
M 2034 4750 
Q 2819 4750 3233 4129 
Q 3647 3509 3647 2328 
Q 3647 1150 3233 529 
Q 2819 -91 2034 -91 
Q 1250 -91 836 529 
Q 422 1150 422 2328 
Q 422 3509 836 4129 
Q 1250 4750 2034 4750 
z
" transform="scale(0.015625)"/>
       </defs>
       <use xlink:href="#DejaVuSans-2212"/>
       <use xlink:href="#DejaVuSans-31" x="83.789062"/>
       <use xlink:href="#DejaVuSans-2e" x="147.412109"/>
       <use xlink:href="#DejaVuSans-30" x="179.199219"/>
       <use xlink:href="#DejaVuSans-30" x="242.822266"/>
      </g>
     </g>
    </g>
    <g id="xtick_2">
     <g id="line2d_2">
      <g>
       <use xlink:href="#m534f506150" x="100.229261" y="253.44" style="stroke: #000000; stroke-width: 0.8"/>
      </g>
     </g>
     <g id="text_2">
      <!-- −0.75 -->
      <g transform="translate(84.906605 268.038437) scale(0.1 -0.1)">
       <defs>
        <path id="DejaVuSans-37" d="M 525 4666 
L 3525 4666 
L 3525 4397 
L 1831 0 
L 1172 0 
L 2766 4134 
L 525 4134 
L 525 4666 
z
" transform="scale(0.015625)"/>
        <path id="DejaVuSans-35" d="M 691 4666 
L 3169 4666 
L 3169 4134 
L 1269 4134 
L 1269 2991 
Q 1406 3038 1543 3061 
Q 1681 3084 1819 3084 
Q 2600 3084 3056 2656 
Q 3513 2228 3513 1497 
Q 3513 744 3044 326 
Q 2575 -91 1722 -91 
Q 1428 -91 1123 -41 
Q 819 9 494 109 
L 494 744 
Q 775 591 1075 516 
Q 1375 441 1709 441 
Q 2250 441 2565 725 
Q 2881 1009 2881 1497 
Q 2881 1984 2565 2268 
Q 2250 2553 1709 2553 
Q 1456 2553 1204 2497 
Q 953 2441 691 2322 
L 691 4666 
z
" transform="scale(0.015625)"/>
       </defs>
       <use xlink:href="#DejaVuSans-2212"/>
       <use xlink:href="#DejaVuSans-30" x="83.789062"/>
       <use xlink:href="#DejaVuSans-2e" x="147.412109"/>
       <use xlink:href="#DejaVuSans-37" x="179.199219"/>
       <use xlink:href="#DejaVuSans-35" x="242.822266"/>
      </g>
     </g>
    </g>
    <g id="xtick_3">
     <g id="line2d_3">
      <g>
       <use xlink:href="#m534f506150" x="138.274716" y="253.44" style="stroke: #000000; stroke-width: 0.8"/>
      </g>
     </g>
     <g id="text_3">
      <!-- −0.50 -->
      <g transform="translate(122.95206 268.038437) scale(0.1 -0.1)">
       <use xlink:href="#DejaVuSans-2212"/>
       <use xlink:href="#DejaVuSans-30" x="83.789062"/>
       <use xlink:href="#DejaVuSans-2e" x="147.412109"/>
       <use xlink:href="#DejaVuSans-35" x="179.199219"/>
       <use xlink:href="#DejaVuSans-30" x="242.822266"/>
      </g>
     </g>
    </g>
    <g id="xtick_4">
     <g id="line2d_4">
      <g>
       <use xlink:href="#m534f506150" x="176.32017" y="253.44" style="stroke: #000000; stroke-width: 0.8"/>
      </g>
     </g>
     <g id="text_4">
      <!-- −0.25 -->
      <g transform="translate(160.997514 268.038437) scale(0.1 -0.1)">
       <defs>
        <path id="DejaVuSans-32" d="M 1228 531 
L 3431 531 
L 3431 0 
L 469 0 
L 469 531 
Q 828 903 1448 1529 
Q 2069 2156 2228 2338 
Q 2531 2678 2651 2914 
Q 2772 3150 2772 3378 
Q 2772 3750 2511 3984 
Q 2250 4219 1831 4219 
Q 1534 4219 1204 4116 
Q 875 4013 500 3803 
L 500 4441 
Q 881 4594 1212 4672 
Q 1544 4750 1819 4750 
Q 2544 4750 2975 4387 
Q 3406 4025 3406 3419 
Q 3406 3131 3298 2873 
Q 3191 2616 2906 2266 
Q 2828 2175 2409 1742 
Q 1991 1309 1228 531 
z
" transform="scale(0.015625)"/>
       </defs>
       <use xlink:href="#DejaVuSans-2212"/>
       <use xlink:href="#DejaVuSans-30" x="83.789062"/>
       <use xlink:href="#DejaVuSans-2e" x="147.412109"/>
       <use xlink:href="#DejaVuSans-32" x="179.199219"/>
       <use xlink:href="#DejaVuSans-35" x="242.822266"/>
      </g>
     </g>
    </g>
    <g id="xtick_5">
     <g id="line2d_5">
      <g>
       <use xlink:href="#m534f506150" x="214.365625" y="253.44" style="stroke: #000000; stroke-width: 0.8"/>
      </g>
     </g>
     <g id="text_5">
      <!-- 0.00 -->
      <g transform="translate(203.232813 268.038437) scale(0.1 -0.1)">
       <use xlink:href="#DejaVuSans-30"/>
       <use xlink:href="#DejaVuSans-2e" x="63.623047"/>
       <use xlink:href="#DejaVuSans-30" x="95.410156"/>
       <use xlink:href="#DejaVuSans-30" x="159.033203"/>
      </g>
     </g>
    </g>
    <g id="xtick_6">
     <g id="line2d_6">
      <g>
       <use xlink:href="#m534f506150" x="252.41108" y="253.44" style="stroke: #000000; stroke-width: 0.8"/>
      </g>
     </g>
     <g id="text_6">
      <!-- 0.25 -->
      <g transform="translate(241.278267 268.038437) scale(0.1 -0.1)">
       <use xlink:href="#DejaVuSans-30"/>
       <use xlink:href="#DejaVuSans-2e" x="63.623047"/>
       <use xlink:href="#DejaVuSans-32" x="95.410156"/>
       <use xlink:href="#DejaVuSans-35" x="159.033203"/>
      </g>
     </g>
    </g>
    <g id="xtick_7">
     <g id="line2d_7">
      <g>
       <use xlink:href="#m534f506150" x="290.456534" y="253.44" style="stroke: #000000; stroke-width: 0.8"/>
      </g>
     </g>
     <g id="text_7">
      <!-- 0.50 -->
      <g transform="translate(279.323722 268.038437) scale(0.1 -0.1)">
       <use xlink:href="#DejaVuSans-30"/>
       <use xlink:href="#DejaVuSans-2e" x="63.623047"/>
       <use xlink:href="#DejaVuSans-35" x="95.410156"/>
       <use xlink:href="#DejaVuSans-30" x="159.033203"/>
      </g>
     </g>
    </g>
    <g id="xtick_8">
     <g id="line2d_8">
      <g>
       <use xlink:href="#m534f506150" x="328.501989" y="253.44" style="stroke: #000000; stroke-width: 0.8"/>
      </g>
     </g>
     <g id="text_8">
      <!-- 0.75 -->
      <g transform="translate(317.369176 268.038437) scale(0.1 -0.1)">
       <use xlink:href="#DejaVuSans-30"/>
       <use xlink:href="#DejaVuSans-2e" x="63.623047"/>
       <use xlink:href="#DejaVuSans-37" x="95.410156"/>
       <use xlink:href="#DejaVuSans-35" x="159.033203"/>
      </g>
     </g>
    </g>
    <g id="xtick_9">
     <g id="line2d_9">
      <g>
       <use xlink:href="#m534f506150" x="366.547443" y="253.44" style="stroke: #000000; stroke-width: 0.8"/>
      </g>
     </g>
     <g id="text_9">
      <!-- 1.00 -->
      <g transform="translate(355.414631 268.038437) scale(0.1 -0.1)">
       <use xlink:href="#DejaVuSans-31"/>
       <use xlink:href="#DejaVuSans-2e" x="63.623047"/>
       <use xlink:href="#DejaVuSans-30" x="95.410156"/>
       <use xlink:href="#DejaVuSans-30" x="159.033203"/>
      </g>
     </g>
    </g>
    <g id="text_10">
     <!-- stimuli $x$ -->
     <g transform="translate(193.015625 281.716562) scale(0.1 -0.1)">
      <defs>
       <path id="DejaVuSans-73" d="M 2834 3397 
L 2834 2853 
Q 2591 2978 2328 3040 
Q 2066 3103 1784 3103 
Q 1356 3103 1142 2972 
Q 928 2841 928 2578 
Q 928 2378 1081 2264 
Q 1234 2150 1697 2047 
L 1894 2003 
Q 2506 1872 2764 1633 
Q 3022 1394 3022 966 
Q 3022 478 2636 193 
Q 2250 -91 1575 -91 
Q 1294 -91 989 -36 
Q 684 19 347 128 
L 347 722 
Q 666 556 975 473 
Q 1284 391 1588 391 
Q 1994 391 2212 530 
Q 2431 669 2431 922 
Q 2431 1156 2273 1281 
Q 2116 1406 1581 1522 
L 1381 1569 
Q 847 1681 609 1914 
Q 372 2147 372 2553 
Q 372 3047 722 3315 
Q 1072 3584 1716 3584 
Q 2034 3584 2315 3537 
Q 2597 3491 2834 3397 
z
" transform="scale(0.015625)"/>
       <path id="DejaVuSans-74" d="M 1172 4494 
L 1172 3500 
L 2356 3500 
L 2356 3053 
L 1172 3053 
L 1172 1153 
Q 1172 725 1289 603 
Q 1406 481 1766 481 
L 2356 481 
L 2356 0 
L 1766 0 
Q 1100 0 847 248 
Q 594 497 594 1153 
L 594 3053 
L 172 3053 
L 172 3500 
L 594 3500 
L 594 4494 
L 1172 4494 
z
" transform="scale(0.015625)"/>
       <path id="DejaVuSans-69" d="M 603 3500 
L 1178 3500 
L 1178 0 
L 603 0 
L 603 3500 
z
M 603 4863 
L 1178 4863 
L 1178 4134 
L 603 4134 
L 603 4863 
z
" transform="scale(0.015625)"/>
       <path id="DejaVuSans-6d" d="M 3328 2828 
Q 3544 3216 3844 3400 
Q 4144 3584 4550 3584 
Q 5097 3584 5394 3201 
Q 5691 2819 5691 2113 
L 5691 0 
L 5113 0 
L 5113 2094 
Q 5113 2597 4934 2840 
Q 4756 3084 4391 3084 
Q 3944 3084 3684 2787 
Q 3425 2491 3425 1978 
L 3425 0 
L 2847 0 
L 2847 2094 
Q 2847 2600 2669 2842 
Q 2491 3084 2119 3084 
Q 1678 3084 1418 2786 
Q 1159 2488 1159 1978 
L 1159 0 
L 581 0 
L 581 3500 
L 1159 3500 
L 1159 2956 
Q 1356 3278 1631 3431 
Q 1906 3584 2284 3584 
Q 2666 3584 2933 3390 
Q 3200 3197 3328 2828 
z
" transform="scale(0.015625)"/>
       <path id="DejaVuSans-75" d="M 544 1381 
L 544 3500 
L 1119 3500 
L 1119 1403 
Q 1119 906 1312 657 
Q 1506 409 1894 409 
Q 2359 409 2629 706 
Q 2900 1003 2900 1516 
L 2900 3500 
L 3475 3500 
L 3475 0 
L 2900 0 
L 2900 538 
Q 2691 219 2414 64 
Q 2138 -91 1772 -91 
Q 1169 -91 856 284 
Q 544 659 544 1381 
z
M 1991 3584 
L 1991 3584 
z
" transform="scale(0.015625)"/>
       <path id="DejaVuSans-6c" d="M 603 4863 
L 1178 4863 
L 1178 0 
L 603 0 
L 603 4863 
z
" transform="scale(0.015625)"/>
       <path id="DejaVuSans-20" transform="scale(0.015625)"/>
       <path id="DejaVuSans-Oblique-78" d="M 3841 3500 
L 2234 1784 
L 3219 0 
L 2559 0 
L 1819 1388 
L 531 0 
L -166 0 
L 1556 1844 
L 641 3500 
L 1300 3500 
L 1972 2234 
L 3144 3500 
L 3841 3500 
z
" transform="scale(0.015625)"/>
      </defs>
      <use xlink:href="#DejaVuSans-73" transform="translate(0 0.015625)"/>
      <use xlink:href="#DejaVuSans-74" transform="translate(52.099609 0.015625)"/>
      <use xlink:href="#DejaVuSans-69" transform="translate(91.308594 0.015625)"/>
      <use xlink:href="#DejaVuSans-6d" transform="translate(119.091797 0.015625)"/>
      <use xlink:href="#DejaVuSans-75" transform="translate(216.503906 0.015625)"/>
      <use xlink:href="#DejaVuSans-6c" transform="translate(279.882812 0.015625)"/>
      <use xlink:href="#DejaVuSans-69" transform="translate(307.666016 0.015625)"/>
      <use xlink:href="#DejaVuSans-20" transform="translate(335.449219 0.015625)"/>
      <use xlink:href="#DejaVuSans-Oblique-78" transform="translate(367.236328 0.015625)"/>
     </g>
    </g>
   </g>
   <g id="matplotlib.axis_2">
    <g id="ytick_1">
     <g id="line2d_10">
      <defs>
       <path id="m6121753b9b" d="M 0 0 
L -3.5 0 
" style="stroke: #000000; stroke-width: 0.8"/>
      </defs>
      <g>
       <use xlink:href="#m6121753b9b" x="46.965625" y="243.556364" style="stroke: #000000; stroke-width: 0.8"/>
      </g>
     </g>
     <g id="text_11">
      <!-- 0 -->
      <g transform="translate(33.603125 247.355582) scale(0.1 -0.1)">
       <use xlink:href="#DejaVuSans-30"/>
      </g>
     </g>
    </g>
    <g id="ytick_2">
     <g id="line2d_11">
      <g>
       <use xlink:href="#m6121753b9b" x="46.965625" y="218.531815" style="stroke: #000000; stroke-width: 0.8"/>
      </g>
     </g>
     <g id="text_12">
      <!-- 25 -->
      <g transform="translate(27.240625 222.331034) scale(0.1 -0.1)">
       <use xlink:href="#DejaVuSans-32"/>
       <use xlink:href="#DejaVuSans-35" x="63.623047"/>
      </g>
     </g>
    </g>
    <g id="ytick_3">
     <g id="line2d_12">
      <g>
       <use xlink:href="#m6121753b9b" x="46.965625" y="193.507266" style="stroke: #000000; stroke-width: 0.8"/>
      </g>
     </g>
     <g id="text_13">
      <!-- 50 -->
      <g transform="translate(27.240625 197.306485) scale(0.1 -0.1)">
       <use xlink:href="#DejaVuSans-35"/>
       <use xlink:href="#DejaVuSans-30" x="63.623047"/>
      </g>
     </g>
    </g>
    <g id="ytick_4">
     <g id="line2d_13">
      <g>
       <use xlink:href="#m6121753b9b" x="46.965625" y="168.482718" style="stroke: #000000; stroke-width: 0.8"/>
      </g>
     </g>
     <g id="text_14">
      <!-- 75 -->
      <g transform="translate(27.240625 172.281937) scale(0.1 -0.1)">
       <use xlink:href="#DejaVuSans-37"/>
       <use xlink:href="#DejaVuSans-35" x="63.623047"/>
      </g>
     </g>
    </g>
    <g id="ytick_5">
     <g id="line2d_14">
      <g>
       <use xlink:href="#m6121753b9b" x="46.965625" y="143.458169" style="stroke: #000000; stroke-width: 0.8"/>
      </g>
     </g>
     <g id="text_15">
      <!-- 100 -->
      <g transform="translate(20.878125 147.257388) scale(0.1 -0.1)">
       <use xlink:href="#DejaVuSans-31"/>
       <use xlink:href="#DejaVuSans-30" x="63.623047"/>
       <use xlink:href="#DejaVuSans-30" x="127.246094"/>
      </g>
     </g>
    </g>
    <g id="ytick_6">
     <g id="line2d_15">
      <g>
       <use xlink:href="#m6121753b9b" x="46.965625" y="118.433621" style="stroke: #000000; stroke-width: 0.8"/>
      </g>
     </g>
     <g id="text_16">
      <!-- 125 -->
      <g transform="translate(20.878125 122.23284) scale(0.1 -0.1)">
       <use xlink:href="#DejaVuSans-31"/>
       <use xlink:href="#DejaVuSans-32" x="63.623047"/>
       <use xlink:href="#DejaVuSans-35" x="127.246094"/>
      </g>
     </g>
    </g>
    <g id="ytick_7">
     <g id="line2d_16">
      <g>
       <use xlink:href="#m6121753b9b" x="46.965625" y="93.409072" style="stroke: #000000; stroke-width: 0.8"/>
      </g>
     </g>
     <g id="text_17">
      <!-- 150 -->
      <g transform="translate(20.878125 97.208291) scale(0.1 -0.1)">
       <use xlink:href="#DejaVuSans-31"/>
       <use xlink:href="#DejaVuSans-35" x="63.623047"/>
       <use xlink:href="#DejaVuSans-30" x="127.246094"/>
      </g>
     </g>
    </g>
    <g id="ytick_8">
     <g id="line2d_17">
      <g>
       <use xlink:href="#m6121753b9b" x="46.965625" y="68.384524" style="stroke: #000000; stroke-width: 0.8"/>
      </g>
     </g>
     <g id="text_18">
      <!-- 175 -->
      <g transform="translate(20.878125 72.183742) scale(0.1 -0.1)">
       <use xlink:href="#DejaVuSans-31"/>
       <use xlink:href="#DejaVuSans-37" x="63.623047"/>
       <use xlink:href="#DejaVuSans-35" x="127.246094"/>
      </g>
     </g>
    </g>
    <g id="ytick_9">
     <g id="line2d_18">
      <g>
       <use xlink:href="#m6121753b9b" x="46.965625" y="43.359975" style="stroke: #000000; stroke-width: 0.8"/>
      </g>
     </g>
     <g id="text_19">
      <!-- 200 -->
      <g transform="translate(20.878125 47.159194) scale(0.1 -0.1)">
       <use xlink:href="#DejaVuSans-32"/>
       <use xlink:href="#DejaVuSans-30" x="63.623047"/>
       <use xlink:href="#DejaVuSans-30" x="127.246094"/>
      </g>
     </g>
    </g>
    <g id="text_20">
     <!-- rate $a_i(x)$ Hz -->
     <g transform="translate(14.798438 175.52) rotate(-90) scale(0.1 -0.1)">
      <defs>
       <path id="DejaVuSans-72" d="M 2631 2963 
Q 2534 3019 2420 3045 
Q 2306 3072 2169 3072 
Q 1681 3072 1420 2755 
Q 1159 2438 1159 1844 
L 1159 0 
L 581 0 
L 581 3500 
L 1159 3500 
L 1159 2956 
Q 1341 3275 1631 3429 
Q 1922 3584 2338 3584 
Q 2397 3584 2469 3576 
Q 2541 3569 2628 3553 
L 2631 2963 
z
" transform="scale(0.015625)"/>
       <path id="DejaVuSans-61" d="M 2194 1759 
Q 1497 1759 1228 1600 
Q 959 1441 959 1056 
Q 959 750 1161 570 
Q 1363 391 1709 391 
Q 2188 391 2477 730 
Q 2766 1069 2766 1631 
L 2766 1759 
L 2194 1759 
z
M 3341 1997 
L 3341 0 
L 2766 0 
L 2766 531 
Q 2569 213 2275 61 
Q 1981 -91 1556 -91 
Q 1019 -91 701 211 
Q 384 513 384 1019 
Q 384 1609 779 1909 
Q 1175 2209 1959 2209 
L 2766 2209 
L 2766 2266 
Q 2766 2663 2505 2880 
Q 2244 3097 1772 3097 
Q 1472 3097 1187 3025 
Q 903 2953 641 2809 
L 641 3341 
Q 956 3463 1253 3523 
Q 1550 3584 1831 3584 
Q 2591 3584 2966 3190 
Q 3341 2797 3341 1997 
z
" transform="scale(0.015625)"/>
       <path id="DejaVuSans-65" d="M 3597 1894 
L 3597 1613 
L 953 1613 
Q 991 1019 1311 708 
Q 1631 397 2203 397 
Q 2534 397 2845 478 
Q 3156 559 3463 722 
L 3463 178 
Q 3153 47 2828 -22 
Q 2503 -91 2169 -91 
Q 1331 -91 842 396 
Q 353 884 353 1716 
Q 353 2575 817 3079 
Q 1281 3584 2069 3584 
Q 2775 3584 3186 3129 
Q 3597 2675 3597 1894 
z
M 3022 2063 
Q 3016 2534 2758 2815 
Q 2500 3097 2075 3097 
Q 1594 3097 1305 2825 
Q 1016 2553 972 2059 
L 3022 2063 
z
" transform="scale(0.015625)"/>
       <path id="DejaVuSans-Oblique-61" d="M 3438 1997 
L 3047 0 
L 2472 0 
L 2578 531 
Q 2325 219 2001 64 
Q 1678 -91 1281 -91 
Q 834 -91 548 182 
Q 263 456 263 884 
Q 263 1497 752 1853 
Q 1241 2209 2100 2209 
L 2900 2209 
L 2931 2363 
Q 2938 2388 2941 2417 
Q 2944 2447 2944 2509 
Q 2944 2788 2717 2942 
Q 2491 3097 2081 3097 
Q 1800 3097 1504 3025 
Q 1209 2953 897 2809 
L 997 3341 
Q 1322 3463 1633 3523 
Q 1944 3584 2234 3584 
Q 2853 3584 3176 3315 
Q 3500 3047 3500 2534 
Q 3500 2431 3484 2292 
Q 3469 2153 3438 1997 
z
M 2816 1759 
L 2241 1759 
Q 1534 1759 1195 1570 
Q 856 1381 856 984 
Q 856 709 1029 553 
Q 1203 397 1509 397 
Q 1978 397 2328 733 
Q 2678 1069 2791 1631 
L 2816 1759 
z
" transform="scale(0.015625)"/>
       <path id="DejaVuSans-Oblique-69" d="M 1172 4863 
L 1747 4863 
L 1606 4134 
L 1031 4134 
L 1172 4863 
z
M 909 3500 
L 1484 3500 
L 800 0 
L 225 0 
L 909 3500 
z
" transform="scale(0.015625)"/>
       <path id="DejaVuSans-28" d="M 1984 4856 
Q 1566 4138 1362 3434 
Q 1159 2731 1159 2009 
Q 1159 1288 1364 580 
Q 1569 -128 1984 -844 
L 1484 -844 
Q 1016 -109 783 600 
Q 550 1309 550 2009 
Q 550 2706 781 3412 
Q 1013 4119 1484 4856 
L 1984 4856 
z
" transform="scale(0.015625)"/>
       <path id="DejaVuSans-29" d="M 513 4856 
L 1013 4856 
Q 1481 4119 1714 3412 
Q 1947 2706 1947 2009 
Q 1947 1309 1714 600 
Q 1481 -109 1013 -844 
L 513 -844 
Q 928 -128 1133 580 
Q 1338 1288 1338 2009 
Q 1338 2731 1133 3434 
Q 928 4138 513 4856 
z
" transform="scale(0.015625)"/>
       <path id="DejaVuSans-48" d="M 628 4666 
L 1259 4666 
L 1259 2753 
L 3553 2753 
L 3553 4666 
L 4184 4666 
L 4184 0 
L 3553 0 
L 3553 2222 
L 1259 2222 
L 1259 0 
L 628 0 
L 628 4666 
z
" transform="scale(0.015625)"/>
       <path id="DejaVuSans-7a" d="M 353 3500 
L 3084 3500 
L 3084 2975 
L 922 459 
L 3084 459 
L 3084 0 
L 275 0 
L 275 525 
L 2438 3041 
L 353 3041 
L 353 3500 
z
" transform="scale(0.015625)"/>
      </defs>
      <use xlink:href="#DejaVuSans-72" transform="translate(0 0.125)"/>
      <use xlink:href="#DejaVuSans-61" transform="translate(41.113281 0.125)"/>
      <use xlink:href="#DejaVuSans-74" transform="translate(102.392578 0.125)"/>
      <use xlink:href="#DejaVuSans-65" transform="translate(141.601562 0.125)"/>
      <use xlink:href="#DejaVuSans-20" transform="translate(203.125 0.125)"/>
      <use xlink:href="#DejaVuSans-Oblique-61" transform="translate(234.912109 0.125)"/>
      <use xlink:href="#DejaVuSans-Oblique-69" transform="translate(296.191406 -16.28125) scale(0.7)"/>
      <use xlink:href="#DejaVuSans-28" transform="translate(318.374023 0.125)"/>
      <use xlink:href="#DejaVuSans-Oblique-78" transform="translate(357.387695 0.125)"/>
      <use xlink:href="#DejaVuSans-29" transform="translate(416.567383 0.125)"/>
      <use xlink:href="#DejaVuSans-20" transform="translate(455.581055 0.125)"/>
      <use xlink:href="#DejaVuSans-48" transform="translate(487.368164 0.125)"/>
      <use xlink:href="#DejaVuSans-7a" transform="translate(562.563477 0.125)"/>
     </g>
    </g>
   </g>
   <g id="line2d_19">
    <path d="M 62.183807 243.556364 
L 69.792898 243.556364 
L 77.401989 243.556364 
L 85.01108 243.556364 
L 92.62017 243.556364 
L 100.229261 243.556364 
L 107.838352 243.556364 
L 115.447443 243.556364 
L 123.056534 243.556364 
L 130.665625 243.556364 
L 138.274716 243.556364 
L 145.883807 243.556364 
L 153.492898 243.556364 
L 161.101989 243.556364 
L 168.71108 243.556364 
L 176.32017 243.556364 
L 183.929261 243.556364 
L 191.538352 243.556364 
L 199.147443 243.556364 
L 206.756534 243.556364 
L 214.365625 243.556364 
L 221.974716 243.556364 
L 229.583807 243.556364 
L 237.192898 243.556364 
L 244.801989 219.090208 
L 252.41108 207.007009 
L 260.02017 196.583829 
L 267.629261 186.984741 
L 275.238352 177.958113 
L 282.847443 169.388438 
L 290.456534 161.209463 
L 298.065625 153.377289 
L 305.674716 145.859797 
L 313.283807 138.631802 
L 320.892898 131.672573 
L 328.501989 124.964456 
L 336.11108 118.492039 
L 343.72017 112.241635 
L 351.329261 106.200927 
L 358.938352 100.358722 
L 366.547443 94.704776 
" clip-path="url(#p37815c9841)" style="fill: none; stroke: #1f77b4; stroke-width: 1.5; stroke-linecap: square"/>
   </g>
   <g id="line2d_20">
    <path d="M 62.183807 243.556364 
L 69.792898 243.556364 
L 77.401989 243.556364 
L 85.01108 243.556364 
L 92.62017 243.556364 
L 100.229261 243.556364 
L 107.838352 243.556364 
L 115.447443 243.556364 
L 123.056534 243.556364 
L 130.665625 243.556364 
L 138.274716 243.556364 
L 145.883807 243.556364 
L 153.492898 243.556364 
L 161.101989 243.556364 
L 168.71108 243.556364 
L 176.32017 243.556364 
L 183.929261 243.556364 
L 191.538352 243.556364 
L 199.147443 243.556364 
L 206.756534 243.556364 
L 214.365625 243.556364 
L 221.974716 243.556364 
L 229.583807 243.556364 
L 237.192898 216.56593 
L 244.801989 199.400679 
L 252.41108 184.674866 
L 260.02017 171.229518 
L 267.629261 158.734117 
L 275.238352 147.027868 
L 282.847443 136.009461 
L 290.456534 125.605179 
L 298.065625 115.756756 
L 305.674716 106.415828 
L 313.283807 97.541015 
L 320.892898 89.09622 
L 328.501989 81.04953 
L 336.11108 73.372465 
L 343.72017 66.039432 
L 351.329261 59.0273 
L 358.938352 52.315076 
L 366.547443 45.883636 
" clip-path="url(#p37815c9841)" style="fill: none; stroke: #ff7f0e; stroke-width: 1.5; stroke-linecap: square"/>
   </g>
   <g id="line2d_21">
    <path d="M 62.183807 78.295706 
L 69.792898 87.974076 
L 77.401989 98.236007 
L 85.01108 109.138877 
L 92.62017 120.749457 
L 100.229261 133.147153 
L 107.838352 146.429797 
L 115.447443 160.725756 
L 123.056534 176.224749 
L 130.665625 193.28272 
L 138.274716 213.036097 
L 145.883807 243.556364 
L 153.492898 243.556364 
L 161.101989 243.556364 
L 168.71108 243.556364 
L 176.32017 243.556364 
L 183.929261 243.556364 
L 191.538352 243.556364 
L 199.147443 243.556364 
L 206.756534 243.556364 
L 214.365625 243.556364 
L 221.974716 243.556364 
L 229.583807 243.556364 
L 237.192898 243.556364 
L 244.801989 243.556364 
L 252.41108 243.556364 
L 260.02017 243.556364 
L 267.629261 243.556364 
L 275.238352 243.556364 
L 282.847443 243.556364 
L 290.456534 243.556364 
L 298.065625 243.556364 
L 305.674716 243.556364 
L 313.283807 243.556364 
L 320.892898 243.556364 
L 328.501989 243.556364 
L 336.11108 243.556364 
L 343.72017 243.556364 
L 351.329261 243.556364 
L 358.938352 243.556364 
L 366.547443 243.556364 
" clip-path="url(#p37815c9841)" style="fill: none; stroke: #2ca02c; stroke-width: 1.5; stroke-linecap: square"/>
   </g>
   <g id="line2d_22">
    <path d="M 62.183807 63.590063 
L 69.792898 67.783668 
L 77.401989 72.089388 
L 85.01108 76.511895 
L 92.62017 81.056143 
L 100.229261 85.727395 
L 107.838352 90.531256 
L 115.447443 95.473703 
L 123.056534 100.561129 
L 130.665625 105.800395 
L 138.274716 111.198889 
L 145.883807 116.764608 
L 153.492898 122.506251 
L 161.101989 128.433358 
L 168.71108 134.556485 
L 176.32017 140.887458 
L 183.929261 147.439748 
L 191.538352 154.229035 
L 199.147443 161.274129 
L 206.756534 168.598534 
L 214.365625 176.233319 
L 221.974716 184.222847 
L 229.583807 192.637659 
L 237.192898 201.608578 
L 244.801989 211.445144 
L 252.41108 223.380084 
L 260.02017 243.556364 
L 267.629261 243.556364 
L 275.238352 243.556364 
L 282.847443 243.556364 
L 290.456534 243.556364 
L 298.065625 243.556364 
L 305.674716 243.556364 
L 313.283807 243.556364 
L 320.892898 243.556364 
L 328.501989 243.556364 
L 336.11108 243.556364 
L 343.72017 243.556364 
L 351.329261 243.556364 
L 358.938352 243.556364 
L 366.547443 243.556364 
" clip-path="url(#p37815c9841)" style="fill: none; stroke: #d62728; stroke-width: 1.5; stroke-linecap: square"/>
   </g>
   <g id="line2d_23">
    <path d="M 62.183807 243.556364 
L 69.792898 243.556364 
L 77.401989 243.556364 
L 85.01108 243.556364 
L 92.62017 243.556364 
L 100.229261 243.556364 
L 107.838352 243.556364 
L 115.447443 243.556364 
L 123.056534 243.556364 
L 130.665625 243.556364 
L 138.274716 243.556364 
L 145.883807 230.403132 
L 153.492898 215.932 
L 161.101989 205.808436 
L 168.71108 196.780951 
L 176.32017 188.377518 
L 183.929261 180.424868 
L 191.538352 172.836816 
L 199.147443 165.562135 
L 206.756534 158.566441 
L 214.365625 151.824552 
L 221.974716 145.316807 
L 229.583807 139.027117 
L 237.192898 132.941856 
L 244.801989 127.049184 
L 252.41108 121.338615 
L 260.02017 115.800727 
L 267.629261 110.426966 
L 275.238352 105.209495 
L 282.847443 100.141088 
L 290.456534 95.215048 
L 298.065625 90.425141 
L 305.674716 85.765544 
L 313.283807 81.230801 
L 320.892898 76.815789 
L 328.501989 72.515686 
L 336.11108 68.325945 
L 343.72017 64.242272 
L 351.329261 60.260608 
L 358.938352 56.377104 
L 366.547443 52.588117 
" clip-path="url(#p37815c9841)" style="fill: none; stroke: #9467bd; stroke-width: 1.5; stroke-linecap: square"/>
   </g>
   <g id="line2d_24">
    <path d="M 62.183807 116.592818 
L 69.792898 123.570458 
L 77.401989 130.823447 
L 85.01108 138.371222 
L 92.62017 146.236269 
L 100.229261 154.445344 
L 107.838352 163.03162 
L 115.447443 172.038771 
L 123.056534 181.529613 
L 130.665625 191.607235 
L 138.274716 202.478827 
L 145.883807 214.738751 
L 153.492898 243.556364 
L 161.101989 243.556364 
L 168.71108 243.556364 
L 176.32017 243.556364 
L 183.929261 243.556364 
L 191.538352 243.556364 
L 199.147443 243.556364 
L 206.756534 243.556364 
L 214.365625 243.556364 
L 221.974716 243.556364 
L 229.583807 243.556364 
L 237.192898 243.556364 
L 244.801989 243.556364 
L 252.41108 243.556364 
L 260.02017 243.556364 
L 267.629261 243.556364 
L 275.238352 243.556364 
L 282.847443 243.556364 
L 290.456534 243.556364 
L 298.065625 243.556364 
L 305.674716 243.556364 
L 313.283807 243.556364 
L 320.892898 243.556364 
L 328.501989 243.556364 
L 336.11108 243.556364 
L 343.72017 243.556364 
L 351.329261 243.556364 
L 358.938352 243.556364 
L 366.547443 243.556364 
" clip-path="url(#p37815c9841)" style="fill: none; stroke: #8c564b; stroke-width: 1.5; stroke-linecap: square"/>
   </g>
   <g id="line2d_25">
    <path d="M 62.183807 46.018142 
L 69.792898 50.583367 
L 77.401989 55.289076 
L 85.01108 60.141959 
L 92.62017 65.149156 
L 100.229261 70.3183 
L 107.838352 75.65757 
L 115.447443 81.175742 
L 123.056534 86.882259 
L 130.665625 92.787314 
L 138.274716 98.901941 
L 145.883807 105.238137 
L 153.492898 111.809015 
L 161.101989 118.629001 
L 168.71108 125.714104 
L 176.32017 133.082296 
L 183.929261 140.754076 
L 191.538352 148.753351 
L 199.147443 157.108905 
L 206.756534 165.857047 
L 214.365625 175.046812 
L 221.974716 184.75147 
L 229.583807 195.098459 
L 237.192898 206.369514 
L 244.801989 219.560461 
L 252.41108 243.556364 
L 260.02017 243.556364 
L 267.629261 243.556364 
L 275.238352 243.556364 
L 282.847443 243.556364 
L 290.456534 243.556364 
L 298.065625 243.556364 
L 305.674716 243.556364 
L 313.283807 243.556364 
L 320.892898 243.556364 
L 328.501989 243.556364 
L 336.11108 243.556364 
L 343.72017 243.556364 
L 351.329261 243.556364 
L 358.938352 243.556364 
L 366.547443 243.556364 
" clip-path="url(#p37815c9841)" style="fill: none; stroke: #e377c2; stroke-width: 1.5; stroke-linecap: square"/>
   </g>
   <g id="line2d_26">
    <path d="M 62.183807 243.556364 
L 69.792898 243.556364 
L 77.401989 243.556364 
L 85.01108 243.556364 
L 92.62017 243.556364 
L 100.229261 243.556364 
L 107.838352 243.556364 
L 115.447443 243.556364 
L 123.056534 243.556364 
L 130.665625 243.556364 
L 138.274716 243.556364 
L 145.883807 222.584204 
L 153.492898 215.370614 
L 161.101989 209.166844 
L 168.71108 203.45778 
L 176.32017 198.066573 
L 183.929261 192.909845 
L 191.538352 187.941077 
L 199.147443 183.131299 
L 206.756534 178.460973 
L 214.365625 173.916084 
L 221.974716 169.486071 
L 229.583807 165.162644 
L 237.192898 160.939078 
L 244.801989 156.809758 
L 252.41108 152.769894 
L 260.02017 148.81531 
L 267.629261 144.942316 
L 275.238352 141.147598 
L 282.847443 137.428153 
L 290.456534 133.781233 
L 298.065625 130.204299 
L 305.674716 126.694996 
L 313.283807 123.251121 
L 320.892898 119.870611 
L 328.501989 116.551518 
L 336.11108 113.292004 
L 343.72017 110.090323 
L 351.329261 106.944818 
L 358.938352 103.853907 
L 366.547443 100.816084 
" clip-path="url(#p37815c9841)" style="fill: none; stroke: #7f7f7f; stroke-width: 1.5; stroke-linecap: square"/>
   </g>
   <g id="line2d_27">
    <path d="M 62.183807 104.666615 
L 69.792898 108.283096 
L 77.401989 111.974323 
L 85.01108 115.742844 
L 92.62017 119.591357 
L 100.229261 123.522731 
L 107.838352 127.540028 
L 115.447443 131.64653 
L 123.056534 135.845776 
L 130.665625 140.141607 
L 138.274716 144.538228 
L 145.883807 149.040286 
L 153.492898 153.652983 
L 161.101989 158.382228 
L 168.71108 163.234865 
L 176.32017 168.219002 
L 183.929261 173.344525 
L 191.538352 178.623929 
L 199.147443 184.073706 
L 206.756534 189.71686 
L 214.365625 195.587785 
L 221.974716 201.742808 
L 229.583807 208.286715 
L 237.192898 215.457822 
L 244.801989 224.076662 
L 252.41108 243.556364 
L 260.02017 243.556364 
L 267.629261 243.556364 
L 275.238352 243.556364 
L 282.847443 243.556364 
L 290.456534 243.556364 
L 298.065625 243.556364 
L 305.674716 243.556364 
L 313.283807 243.556364 
L 320.892898 243.556364 
L 328.501989 243.556364 
L 336.11108 243.556364 
L 343.72017 243.556364 
L 351.329261 243.556364 
L 358.938352 243.556364 
L 366.547443 243.556364 
" clip-path="url(#p37815c9841)" style="fill: none; stroke: #bcbd22; stroke-width: 1.5; stroke-linecap: square"/>
   </g>
   <g id="line2d_28">
    <path d="M 62.183807 243.556364 
L 69.792898 243.556364 
L 77.401989 243.556364 
L 85.01108 243.556364 
L 92.62017 243.556364 
L 100.229261 243.556364 
L 107.838352 243.556364 
L 115.447443 243.556364 
L 123.056534 243.556364 
L 130.665625 243.556364 
L 138.274716 243.556364 
L 145.883807 243.556364 
L 153.492898 243.556364 
L 161.101989 243.556364 
L 168.71108 243.556364 
L 176.32017 243.556364 
L 183.929261 243.556364 
L 191.538352 243.556364 
L 199.147443 243.556364 
L 206.756534 243.556364 
L 214.365625 243.556364 
L 221.974716 243.556364 
L 229.583807 243.556364 
L 237.192898 243.556364 
L 244.801989 243.556364 
L 252.41108 243.556364 
L 260.02017 243.556364 
L 267.629261 243.556364 
L 275.238352 243.556364 
L 282.847443 243.556364 
L 290.456534 243.556364 
L 298.065625 243.556364 
L 305.674716 243.556364 
L 313.283807 243.556364 
L 320.892898 243.556364 
L 328.501989 243.556364 
L 336.11108 234.613373 
L 343.72017 172.512687 
L 351.329261 131.774791 
L 358.938352 98.414034 
L 366.547443 70.41051 
" clip-path="url(#p37815c9841)" style="fill: none; stroke: #17becf; stroke-width: 1.5; stroke-linecap: square"/>
   </g>
   <g id="line2d_29">
    <path d="M 62.183807 243.556364 
L 69.792898 243.556364 
L 77.401989 243.556364 
L 85.01108 243.556364 
L 92.62017 243.556364 
L 100.229261 243.556364 
L 107.838352 243.556364 
L 115.447443 243.556364 
L 123.056534 243.556364 
L 130.665625 243.556364 
L 138.274716 243.556364 
L 145.883807 243.556364 
L 153.492898 243.556364 
L 161.101989 243.556364 
L 168.71108 243.556364 
L 176.32017 243.556364 
L 183.929261 243.556364 
L 191.538352 243.556364 
L 199.147443 243.556364 
L 206.756534 243.556364 
L 214.365625 243.556364 
L 221.974716 243.556364 
L 229.583807 243.556364 
L 237.192898 243.556364 
L 244.801989 243.556364 
L 252.41108 243.556364 
L 260.02017 243.556364 
L 267.629261 243.556364 
L 275.238352 243.556364 
L 282.847443 243.556364 
L 290.456534 216.127896 
L 298.065625 196.996098 
L 305.674716 180.672563 
L 313.283807 165.840513 
L 320.892898 152.130243 
L 328.501989 139.356721 
L 336.11108 127.399577 
L 343.72017 116.169116 
L 351.329261 105.593411 
L 358.938352 95.612317 
L 366.547443 86.174255 
" clip-path="url(#p37815c9841)" style="fill: none; stroke: #1f77b4; stroke-width: 1.5; stroke-linecap: square"/>
   </g>
   <g id="line2d_30">
    <path d="M 62.183807 66.614647 
L 69.792898 71.320506 
L 77.401989 76.166533 
L 85.01108 81.159267 
L 92.62017 86.305692 
L 100.229261 91.613293 
L 107.838352 97.090106 
L 115.447443 102.744793 
L 123.056534 108.586725 
L 130.665625 114.626091 
L 138.274716 120.874038 
L 145.883807 127.342859 
L 153.492898 134.046255 
L 161.101989 140.999712 
L 168.71108 148.221072 
L 176.32017 155.731444 
L 183.929261 163.556751 
L 191.538352 171.730549 
L 199.147443 180.299643 
L 206.756534 189.336688 
L 214.365625 198.973506 
L 221.974716 209.516075 
L 229.583807 222.148466 
L 237.192898 243.556364 
L 244.801989 243.556364 
L 252.41108 243.556364 
L 260.02017 243.556364 
L 267.629261 243.556364 
L 275.238352 243.556364 
L 282.847443 243.556364 
L 290.456534 243.556364 
L 298.065625 243.556364 
L 305.674716 243.556364 
L 313.283807 243.556364 
L 320.892898 243.556364 
L 328.501989 243.556364 
L 336.11108 243.556364 
L 343.72017 243.556364 
L 351.329261 243.556364 
L 358.938352 243.556364 
L 366.547443 243.556364 
" clip-path="url(#p37815c9841)" style="fill: none; stroke: #ff7f0e; stroke-width: 1.5; stroke-linecap: square"/>
   </g>
   <g id="line2d_31">
    <path d="M 62.183807 99.153218 
L 69.792898 107.464386 
L 77.401989 116.182007 
L 85.01108 125.339668 
L 92.62017 134.976222 
L 100.229261 145.137794 
L 107.838352 155.881407 
L 115.447443 167.282324 
L 123.056534 179.4513 
L 130.665625 192.584271 
L 138.274716 207.163102 
L 145.883807 225.947898 
L 153.492898 243.556364 
L 161.101989 243.556364 
L 168.71108 243.556364 
L 176.32017 243.556364 
L 183.929261 243.556364 
L 191.538352 243.556364 
L 199.147443 243.556364 
L 206.756534 243.556364 
L 214.365625 243.556364 
L 221.974716 243.556364 
L 229.583807 243.556364 
L 237.192898 243.556364 
L 244.801989 243.556364 
L 252.41108 243.556364 
L 260.02017 243.556364 
L 267.629261 243.556364 
L 275.238352 243.556364 
L 282.847443 243.556364 
L 290.456534 243.556364 
L 298.065625 243.556364 
L 305.674716 243.556364 
L 313.283807 243.556364 
L 320.892898 243.556364 
L 328.501989 243.556364 
L 336.11108 243.556364 
L 343.72017 243.556364 
L 351.329261 243.556364 
L 358.938352 243.556364 
L 366.547443 243.556364 
" clip-path="url(#p37815c9841)" style="fill: none; stroke: #2ca02c; stroke-width: 1.5; stroke-linecap: square"/>
   </g>
   <g id="line2d_32">
    <path d="M 62.183807 48.77447 
L 69.792898 53.374425 
L 77.401989 58.115772 
L 85.01108 63.005244 
L 92.62017 68.050029 
L 100.229261 73.257816 
L 107.838352 78.636843 
L 115.447443 84.195959 
L 123.056534 89.944691 
L 130.665625 95.893329 
L 138.274716 102.053028 
L 145.883807 108.435936 
L 153.492898 115.055359 
L 161.101989 121.925978 
L 168.71108 129.064148 
L 176.32017 136.48833 
L 183.929261 144.219748 
L 191.538352 152.283426 
L 199.147443 160.709981 
L 206.756534 169.538935 
L 214.365625 178.825483 
L 221.974716 188.656238 
L 229.583807 199.193279 
L 237.192898 210.842162 
L 244.801989 225.646816 
L 252.41108 243.556364 
L 260.02017 243.556364 
L 267.629261 243.556364 
L 275.238352 243.556364 
L 282.847443 243.556364 
L 290.456534 243.556364 
L 298.065625 243.556364 
L 305.674716 243.556364 
L 313.283807 243.556364 
L 320.892898 243.556364 
L 328.501989 243.556364 
L 336.11108 243.556364 
L 343.72017 243.556364 
L 351.329261 243.556364 
L 358.938352 243.556364 
L 366.547443 243.556364 
" clip-path="url(#p37815c9841)" style="fill: none; stroke: #d62728; stroke-width: 1.5; stroke-linecap: square"/>
   </g>
   <g id="line2d_33">
    <path d="M 62.183807 82.798141 
L 69.792898 89.570555 
L 77.401989 96.622419 
L 85.01108 103.972315 
L 92.62017 111.640817 
L 100.229261 119.650902 
L 107.838352 128.028528 
L 115.447443 136.803505 
L 123.056534 146.010898 
L 130.665625 155.693462 
L 138.274716 165.906304 
L 145.883807 176.726939 
L 153.492898 188.280702 
L 161.101989 200.822176 
L 168.71108 215.142565 
L 176.32017 243.556364 
L 183.929261 243.556364 
L 191.538352 243.556364 
L 199.147443 243.556364 
L 206.756534 243.556364 
L 214.365625 243.556364 
L 221.974716 243.556364 
L 229.583807 243.556364 
L 237.192898 243.556364 
L 244.801989 243.556364 
L 252.41108 243.556364 
L 260.02017 243.556364 
L 267.629261 243.556364 
L 275.238352 243.556364 
L 282.847443 243.556364 
L 290.456534 243.556364 
L 298.065625 243.556364 
L 305.674716 243.556364 
L 313.283807 243.556364 
L 320.892898 243.556364 
L 328.501989 243.556364 
L 336.11108 243.556364 
L 343.72017 243.556364 
L 351.329261 243.556364 
L 358.938352 243.556364 
L 366.547443 243.556364 
" clip-path="url(#p37815c9841)" style="fill: none; stroke: #9467bd; stroke-width: 1.5; stroke-linecap: square"/>
   </g>
   <g id="line2d_34">
    <path d="M 62.183807 115.141273 
L 69.792898 123.342991 
L 77.401989 131.927972 
L 85.01108 140.928539 
L 92.62017 150.383286 
L 100.229261 160.340373 
L 107.838352 170.864168 
L 115.447443 182.050618 
L 123.056534 194.0702 
L 130.665625 207.331382 
L 138.274716 223.788356 
L 145.883807 243.556364 
L 153.492898 243.556364 
L 161.101989 243.556364 
L 168.71108 243.556364 
L 176.32017 243.556364 
L 183.929261 243.556364 
L 191.538352 243.556364 
L 199.147443 243.556364 
L 206.756534 243.556364 
L 214.365625 243.556364 
L 221.974716 243.556364 
L 229.583807 243.556364 
L 237.192898 243.556364 
L 244.801989 243.556364 
L 252.41108 243.556364 
L 260.02017 243.556364 
L 267.629261 243.556364 
L 275.238352 243.556364 
L 282.847443 243.556364 
L 290.456534 243.556364 
L 298.065625 243.556364 
L 305.674716 243.556364 
L 313.283807 243.556364 
L 320.892898 243.556364 
L 328.501989 243.556364 
L 336.11108 243.556364 
L 343.72017 243.556364 
L 351.329261 243.556364 
L 358.938352 243.556364 
L 366.547443 243.556364 
" clip-path="url(#p37815c9841)" style="fill: none; stroke: #8c564b; stroke-width: 1.5; stroke-linecap: square"/>
   </g>
   <g id="patch_3">
    <path d="M 46.965625 253.44 
L 46.965625 36 
" style="fill: none; stroke: #000000; stroke-width: 0.8; stroke-linejoin: miter; stroke-linecap: square"/>
   </g>
   <g id="patch_4">
    <path d="M 381.765625 253.44 
L 381.765625 36 
" style="fill: none; stroke: #000000; stroke-width: 0.8; stroke-linejoin: miter; stroke-linecap: square"/>
   </g>
   <g id="patch_5">
    <path d="M 46.965625 253.44 
L 381.765625 253.44 
" style="fill: none; stroke: #000000; stroke-width: 0.8; stroke-linejoin: miter; stroke-linecap: square"/>
   </g>
   <g id="patch_6">
    <path d="M 46.965625 36 
L 381.765625 36 
" style="fill: none; stroke: #000000; stroke-width: 0.8; stroke-linejoin: miter; stroke-linecap: square"/>
   </g>
  </g>
  <g id="text_21">
   <!-- LIF Tuning Curves $a_{i=16}(x)$ versus stimuli $x$ -->
   <g transform="translate(80.385625 16.32) scale(0.12 -0.12)">
    <defs>
     <path id="DejaVuSans-4c" d="M 628 4666 
L 1259 4666 
L 1259 531 
L 3531 531 
L 3531 0 
L 628 0 
L 628 4666 
z
" transform="scale(0.015625)"/>
     <path id="DejaVuSans-49" d="M 628 4666 
L 1259 4666 
L 1259 0 
L 628 0 
L 628 4666 
z
" transform="scale(0.015625)"/>
     <path id="DejaVuSans-46" d="M 628 4666 
L 3309 4666 
L 3309 4134 
L 1259 4134 
L 1259 2759 
L 3109 2759 
L 3109 2228 
L 1259 2228 
L 1259 0 
L 628 0 
L 628 4666 
z
" transform="scale(0.015625)"/>
     <path id="DejaVuSans-54" d="M -19 4666 
L 3928 4666 
L 3928 4134 
L 2272 4134 
L 2272 0 
L 1638 0 
L 1638 4134 
L -19 4134 
L -19 4666 
z
" transform="scale(0.015625)"/>
     <path id="DejaVuSans-6e" d="M 3513 2113 
L 3513 0 
L 2938 0 
L 2938 2094 
Q 2938 2591 2744 2837 
Q 2550 3084 2163 3084 
Q 1697 3084 1428 2787 
Q 1159 2491 1159 1978 
L 1159 0 
L 581 0 
L 581 3500 
L 1159 3500 
L 1159 2956 
Q 1366 3272 1645 3428 
Q 1925 3584 2291 3584 
Q 2894 3584 3203 3211 
Q 3513 2838 3513 2113 
z
" transform="scale(0.015625)"/>
     <path id="DejaVuSans-67" d="M 2906 1791 
Q 2906 2416 2648 2759 
Q 2391 3103 1925 3103 
Q 1463 3103 1205 2759 
Q 947 2416 947 1791 
Q 947 1169 1205 825 
Q 1463 481 1925 481 
Q 2391 481 2648 825 
Q 2906 1169 2906 1791 
z
M 3481 434 
Q 3481 -459 3084 -895 
Q 2688 -1331 1869 -1331 
Q 1566 -1331 1297 -1286 
Q 1028 -1241 775 -1147 
L 775 -588 
Q 1028 -725 1275 -790 
Q 1522 -856 1778 -856 
Q 2344 -856 2625 -561 
Q 2906 -266 2906 331 
L 2906 616 
Q 2728 306 2450 153 
Q 2172 0 1784 0 
Q 1141 0 747 490 
Q 353 981 353 1791 
Q 353 2603 747 3093 
Q 1141 3584 1784 3584 
Q 2172 3584 2450 3431 
Q 2728 3278 2906 2969 
L 2906 3500 
L 3481 3500 
L 3481 434 
z
" transform="scale(0.015625)"/>
     <path id="DejaVuSans-43" d="M 4122 4306 
L 4122 3641 
Q 3803 3938 3442 4084 
Q 3081 4231 2675 4231 
Q 1875 4231 1450 3742 
Q 1025 3253 1025 2328 
Q 1025 1406 1450 917 
Q 1875 428 2675 428 
Q 3081 428 3442 575 
Q 3803 722 4122 1019 
L 4122 359 
Q 3791 134 3420 21 
Q 3050 -91 2638 -91 
Q 1578 -91 968 557 
Q 359 1206 359 2328 
Q 359 3453 968 4101 
Q 1578 4750 2638 4750 
Q 3056 4750 3426 4639 
Q 3797 4528 4122 4306 
z
" transform="scale(0.015625)"/>
     <path id="DejaVuSans-76" d="M 191 3500 
L 800 3500 
L 1894 563 
L 2988 3500 
L 3597 3500 
L 2284 0 
L 1503 0 
L 191 3500 
z
" transform="scale(0.015625)"/>
     <path id="DejaVuSans-3d" d="M 678 2906 
L 4684 2906 
L 4684 2381 
L 678 2381 
L 678 2906 
z
M 678 1631 
L 4684 1631 
L 4684 1100 
L 678 1100 
L 678 1631 
z
" transform="scale(0.015625)"/>
     <path id="DejaVuSans-36" d="M 2113 2584 
Q 1688 2584 1439 2293 
Q 1191 2003 1191 1497 
Q 1191 994 1439 701 
Q 1688 409 2113 409 
Q 2538 409 2786 701 
Q 3034 994 3034 1497 
Q 3034 2003 2786 2293 
Q 2538 2584 2113 2584 
z
M 3366 4563 
L 3366 3988 
Q 3128 4100 2886 4159 
Q 2644 4219 2406 4219 
Q 1781 4219 1451 3797 
Q 1122 3375 1075 2522 
Q 1259 2794 1537 2939 
Q 1816 3084 2150 3084 
Q 2853 3084 3261 2657 
Q 3669 2231 3669 1497 
Q 3669 778 3244 343 
Q 2819 -91 2113 -91 
Q 1303 -91 875 529 
Q 447 1150 447 2328 
Q 447 3434 972 4092 
Q 1497 4750 2381 4750 
Q 2619 4750 2861 4703 
Q 3103 4656 3366 4563 
z
" transform="scale(0.015625)"/>
    </defs>
    <use xlink:href="#DejaVuSans-4c" transform="translate(0 0.015625)"/>
    <use xlink:href="#DejaVuSans-49" transform="translate(55.712891 0.015625)"/>
    <use xlink:href="#DejaVuSans-46" transform="translate(85.205078 0.015625)"/>
    <use xlink:href="#DejaVuSans-20" transform="translate(142.724609 0.015625)"/>
    <use xlink:href="#DejaVuSans-54" transform="translate(174.511719 0.015625)"/>
    <use xlink:href="#DejaVuSans-75" transform="translate(235.595703 0.015625)"/>
    <use xlink:href="#DejaVuSans-6e" transform="translate(298.974609 0.015625)"/>
    <use xlink:href="#DejaVuSans-69" transform="translate(362.353516 0.015625)"/>
    <use xlink:href="#DejaVuSans-6e" transform="translate(390.136719 0.015625)"/>
    <use xlink:href="#DejaVuSans-67" transform="translate(453.515625 0.015625)"/>
    <use xlink:href="#DejaVuSans-20" transform="translate(516.992188 0.015625)"/>
    <use xlink:href="#DejaVuSans-43" transform="translate(548.779297 0.015625)"/>
    <use xlink:href="#DejaVuSans-75" transform="translate(618.603516 0.015625)"/>
    <use xlink:href="#DejaVuSans-72" transform="translate(681.982422 0.015625)"/>
    <use xlink:href="#DejaVuSans-76" transform="translate(723.095703 0.015625)"/>
    <use xlink:href="#DejaVuSans-65" transform="translate(782.275391 0.015625)"/>
    <use xlink:href="#DejaVuSans-73" transform="translate(843.798828 0.015625)"/>
    <use xlink:href="#DejaVuSans-20" transform="translate(895.898438 0.015625)"/>
    <use xlink:href="#DejaVuSans-Oblique-61" transform="translate(927.685547 0.015625)"/>
    <use xlink:href="#DejaVuSans-Oblique-69" transform="translate(988.964844 -16.390625) scale(0.7)"/>
    <use xlink:href="#DejaVuSans-3d" transform="translate(1022.050781 -16.390625) scale(0.7)"/>
    <use xlink:href="#DejaVuSans-31" transform="translate(1094.34082 -16.390625) scale(0.7)"/>
    <use xlink:href="#DejaVuSans-36" transform="translate(1138.876953 -16.390625) scale(0.7)"/>
    <use xlink:href="#DejaVuSans-28" transform="translate(1186.147461 0.015625)"/>
    <use xlink:href="#DejaVuSans-Oblique-78" transform="translate(1225.161133 0.015625)"/>
    <use xlink:href="#DejaVuSans-29" transform="translate(1284.34082 0.015625)"/>
    <use xlink:href="#DejaVuSans-20" transform="translate(1323.354492 0.015625)"/>
    <use xlink:href="#DejaVuSans-76" transform="translate(1355.141602 0.015625)"/>
    <use xlink:href="#DejaVuSans-65" transform="translate(1414.321289 0.015625)"/>
    <use xlink:href="#DejaVuSans-72" transform="translate(1475.844727 0.015625)"/>
    <use xlink:href="#DejaVuSans-73" transform="translate(1516.958008 0.015625)"/>
    <use xlink:href="#DejaVuSans-75" transform="translate(1569.057617 0.015625)"/>
    <use xlink:href="#DejaVuSans-73" transform="translate(1632.436523 0.015625)"/>
    <use xlink:href="#DejaVuSans-20" transform="translate(1684.536133 0.015625)"/>
    <use xlink:href="#DejaVuSans-73" transform="translate(1716.323242 0.015625)"/>
    <use xlink:href="#DejaVuSans-74" transform="translate(1768.422852 0.015625)"/>
    <use xlink:href="#DejaVuSans-69" transform="translate(1807.631836 0.015625)"/>
    <use xlink:href="#DejaVuSans-6d" transform="translate(1835.415039 0.015625)"/>
    <use xlink:href="#DejaVuSans-75" transform="translate(1932.827148 0.015625)"/>
    <use xlink:href="#DejaVuSans-6c" transform="translate(1996.206055 0.015625)"/>
    <use xlink:href="#DejaVuSans-69" transform="translate(2023.989258 0.015625)"/>
    <use xlink:href="#DejaVuSans-20" transform="translate(2051.772461 0.015625)"/>
    <use xlink:href="#DejaVuSans-Oblique-78" transform="translate(2083.55957 0.015625)"/>
   </g>
  </g>
 </g>
 <defs>
  <clipPath id="p37815c9841">
   <rect x="46.965625" y="36" width="334.8" height="217.44"/>
  </clipPath>
 </defs>
</svg>
