<?xml version="1.0" encoding="utf-8" standalone="no"?>
<!DOCTYPE svg PUBLIC "-//W3C//DTD SVG 1.1//EN"
  "http://www.w3.org/Graphics/SVG/1.1/DTD/svg11.dtd">
<svg xmlns:xlink="http://www.w3.org/1999/xlink" width="413.248437pt" height="290.99625pt" viewBox="0 0 413.248437 290.99625" xmlns="http://www.w3.org/2000/svg" version="1.1">
 <metadata>
  <rdf:RDF xmlns:dc="http://purl.org/dc/elements/1.1/" xmlns:cc="http://creativecommons.org/ns#" xmlns:rdf="http://www.w3.org/1999/02/22-rdf-syntax-ns#">
   <cc:Work>
    <dc:type rdf:resource="http://purl.org/dc/dcmitype/StillImage"/>
    <dc:date>2022-09-28T18:50:06.096562</dc:date>
    <dc:format>image/svg+xml</dc:format>
    <dc:creator>
     <cc:Agent>
      <dc:title>Matplotlib v3.6.0, https://matplotlib.org/</dc:title>
     </cc:Agent>
    </dc:creator>
   </cc:Work>
  </rdf:RDF>
 </metadata>
 <defs>
  <style type="text/css">*{stroke-linejoin: round; stroke-linecap: butt}</style>
 </defs>
 <g id="figure_1">
  <g id="patch_1">
   <path d="M 0 290.99625 
L 413.248437 290.99625 
L 413.248437 0 
L 0 0 
L 0 290.99625 
z
" style="fill: none"/>
  </g>
  <g id="axes_1">
   <g id="patch_2">
    <path d="M 71.248438 253.44 
L 406.048438 253.44 
L 406.048438 36 
L 71.248438 36 
z
" style="fill: #ffffff"/>
   </g>
   <g id="Quiver_1">
    <path d="M 225.415957 163.406011 
L 300.104428 181.994119 
L 299.900459 181.080824 
L 303.658364 183.309872 
L 299.294032 183.517496 
L 299.902286 182.806343 
L 225.213814 164.218235 
L 225.415957 163.406011 
" clip-path="url(#p187c3242ab)" style="fill: #0000ff"/>
    <path d="M 225.206249 164.216277 
L 108.766762 132.91748 
L 108.953644 133.834424 
L 105.238012 131.535601 
L 109.60546 131.4095 
L 108.984034 132.109172 
L 225.423522 163.407969 
L 225.206249 164.216277 
" clip-path="url(#p187c3242ab)" style="fill: #0000ff"/>
    <path d="M 225.355435 164.228654 
L 90.255947 177.380812 
L 90.753578 178.173324 
L 86.466619 177.329231 
L 90.510278 175.674139 
L 90.174847 176.547751 
L 225.274335 163.395592 
L 225.355435 164.228654 
" clip-path="url(#p187c3242ab)" style="fill: #0000ff"/>
    <path d="M 225.569623 163.480082 
L 273.186693 200.011262 
L 273.364127 199.092443 
L 275.920323 202.635939 
L 271.835703 201.084688 
L 272.677218 200.675344 
L 225.060148 164.144164 
L 225.569623 163.480082 
" clip-path="url(#p187c3242ab)" style="fill: #0000ff"/>
    <path d="M 224.91027 163.705217 
L 244.871169 88.157445 
L 243.955033 88.348248 
L 246.237934 84.622814 
L 246.382724 88.989682 
L 245.680399 88.371256 
L 225.719501 163.919029 
L 224.91027 163.705217 
" clip-path="url(#p187c3242ab)" style="fill: #0000ff"/>
    <path d="M 225.138484 163.432617 
L 262.637273 146.002436 
L 261.904964 145.419826 
L 266.229227 144.794325 
L 262.963375 147.696861 
L 262.990077 146.761448 
L 225.491287 164.191629 
L 225.138484 163.432617 
" clip-path="url(#p187c3242ab)" style="fill: #0000ff"/>
    <path d="M 225.20395 164.215652 
L 200.130265 157.322541 
L 200.311922 158.240535 
L 196.609441 155.92059 
L 200.977537 155.819362 
L 200.352136 156.515484 
L 225.425821 163.408594 
L 225.20395 164.215652 
" clip-path="url(#p187c3242ab)" style="fill: #0000ff"/>
    <path d="M 225.644944 163.554823 
L 235.496381 176.192027 
L 235.899198 175.347368 
L 237.482023 179.419857 
L 233.918845 176.891168 
L 234.836263 176.706627 
L 224.984827 164.069423 
L 225.644944 163.554823 
" clip-path="url(#p187c3242ab)" style="fill: #0000ff"/>
    <path d="M 225.62019 163.525887 
L 264.891971 205.413905 
L 265.216345 204.536128 
L 267.162792 208.447886 
L 263.384515 206.253545 
L 264.281361 205.986378 
L 225.009581 164.098359 
L 225.62019 163.525887 
" clip-path="url(#p187c3242ab)" style="fill: #0000ff"/>
    <path d="M 224.989832 163.548527 
L 227.758968 160.133768 
L 226.845266 159.931629 
L 230.456383 157.471886 
L 228.795585 161.513204 
L 228.409074 160.660959 
L 225.639939 164.075719 
L 224.989832 163.548527 
" clip-path="url(#p187c3242ab)" style="fill: #0000ff"/>
    <path d="M 225.383469 163.399281 
L 245.799514 166.790893 
L 245.523839 165.896626 
L 249.44651 167.820985 
L 245.112339 168.373678 
L 245.662348 167.616577 
L 225.246302 164.224965 
L 225.383469 163.399281 
" clip-path="url(#p187c3242ab)" style="fill: #0000ff"/>
    <path d="M 225.659386 164.049739 
L 215.694096 178.49765 
L 216.620714 178.628381 
L 213.211053 181.360544 
L 214.553708 177.202686 
L 215.005094 178.022419 
L 224.970384 163.574507 
L 225.659386 164.049739 
" clip-path="url(#p187c3242ab)" style="fill: #0000ff"/>
    <path d="M 225.690529 163.996606 
L 222.007732 171.495508 
L 222.943502 171.48883 
L 219.971741 174.691819 
L 220.689639 170.381932 
L 221.256444 171.126542 
L 224.939242 163.62764 
L 225.690529 163.996606 
" clip-path="url(#p187c3242ab)" style="fill: #0000ff"/>
    <path d="M 224.923656 163.663524 
L 268.378548 49.256103 
L 267.447489 49.350135 
L 270.107169 45.883636 
L 269.794867 50.241729 
L 269.161007 49.553301 
L 225.706115 163.960722 
L 224.923656 163.663524 
" clip-path="url(#p187c3242ab)" style="fill: #0000ff"/>
    <path d="M 225.220449 163.404417 
L 234.351534 161.289389 
L 233.754955 160.568414 
L 238.115322 160.847164 
L 234.321575 163.014648 
L 234.540407 162.1048 
L 225.409322 164.219829 
L 225.220449 163.404417 
" clip-path="url(#p187c3242ab)" style="fill: #0000ff"/>
    <path d="M 225.248914 163.398855 
L 234.297939 161.954323 
L 233.752728 161.193759 
L 238.083318 161.773846 
L 234.148558 163.673364 
L 234.429882 162.780858 
L 225.380857 164.22539 
L 225.248914 163.398855 
" clip-path="url(#p187c3242ab)" style="fill: #0000ff"/>
    <path d="M 225.727523 163.881924 
L 224.778474 169.492381 
L 225.673551 169.219344 
L 223.73763 173.136322 
L 223.197723 168.80054 
L 223.953198 169.352779 
L 224.902247 163.742322 
L 225.727523 163.881924 
" clip-path="url(#p187c3242ab)" style="fill: #0000ff"/>
    <path d="M 225.323186 163.393705 
L 313.074457 165.134574 
L 312.672641 164.289437 
L 316.831915 165.627699 
L 312.622836 166.799943 
L 313.057856 165.971409 
L 225.306585 164.230541 
L 225.323186 163.393705 
" clip-path="url(#p187c3242ab)" style="fill: #0000ff"/>
    <path d="M 225.36156 164.228012 
L 119.978122 176.055075 
L 120.487361 176.840178 
L 116.188446 176.059259 
L 120.207312 174.344844 
L 119.884773 175.223297 
L 225.268211 163.396234 
L 225.36156 164.228012 
" clip-path="url(#p187c3242ab)" style="fill: #0000ff"/>
    <path d="M 225.570544 163.480791 
L 255.70511 186.732942 
L 255.885096 185.81462 
L 258.431436 189.365205 
L 254.351142 187.80261 
L 255.193791 187.395606 
L 225.059226 164.143455 
L 225.570544 163.480791 
" clip-path="url(#p187c3242ab)" style="fill: #0000ff"/>
    <path d="M 225.252072 163.398364 
L 329.558169 147.563483 
L 329.018782 146.798778 
L 333.344815 147.411921 
L 329.395663 149.281333 
L 329.683795 148.391001 
L 225.377699 164.225882 
L 225.252072 163.398364 
" clip-path="url(#p187c3242ab)" style="fill: #0000ff"/>
    <path d="M 225.626531 164.091442 
L 205.979464 186.012349 
L 206.882075 186.259341 
L 203.153947 188.537842 
L 205.0122 184.583427 
L 205.356172 185.453711 
L 225.00324 163.532804 
L 225.626531 164.091442 
" clip-path="url(#p187c3242ab)" style="fill: #0000ff"/>
    <path d="M 225.651684 164.060536 
L 202.929135 194.867791 
L 203.851145 195.027818 
L 200.356619 197.650564 
L 201.830353 193.53734 
L 202.255538 194.370965 
L 224.978087 163.56371 
L 225.651684 164.060536 
" clip-path="url(#p187c3242ab)" style="fill: #0000ff"/>
    <path d="M 225.307594 163.393686 
L 309.451737 161.92749 
L 309.018718 161.097908 
L 313.224957 162.280305 
L 309.062466 163.608527 
L 309.46632 162.764363 
L 225.322177 164.230559 
L 225.307594 163.393686 
" clip-path="url(#p187c3242ab)" style="fill: #0000ff"/>
    <path d="M 225.329233 163.393869 
L 296.983095 165.851898 
L 296.593536 165.001043 
L 300.733033 166.399283 
L 296.507449 167.510567 
L 296.954399 166.688406 
L 225.300538 164.230377 
L 225.329233 163.393869 
" clip-path="url(#p187c3242ab)" style="fill: #0000ff"/>
    <path d="M 225.058314 164.142749 
L 156.685267 111.084123 
L 156.50275 112.001946 
L 153.966205 108.444357 
L 158.042178 110.018191 
L 157.198409 110.422872 
L 225.571457 163.481497 
L 225.058314 164.142749 
" clip-path="url(#p187c3242ab)" style="fill: #0000ff"/>
    <path d="M 225.231673 163.401979 
L 352.555833 137.569821 
L 351.979265 136.832745 
L 356.33034 137.231057 
L 352.478537 139.293609 
L 352.722257 138.390109 
L 225.398097 164.222267 
L 225.231673 163.401979 
" clip-path="url(#p187c3242ab)" style="fill: #0000ff"/>
    <path d="M 225.716969 163.928187 
L 214.575627 202.525491 
L 215.495858 202.355535 
L 213.128968 206.028182 
L 213.083355 201.659151 
L 213.771459 202.293363 
L 224.912802 163.696059 
L 225.716969 163.928187 
" clip-path="url(#p187c3242ab)" style="fill: #0000ff"/>
    <path d="M 224.941705 163.622707 
L 274.125835 66.721936 
L 273.190058 66.716284 
L 276.203761 63.552726 
L 275.429142 67.852781 
L 274.872196 67.100768 
L 225.688066 164.001539 
L 224.941705 163.622707 
" clip-path="url(#p187c3242ab)" style="fill: #0000ff"/>
    <path d="M 225.6351 163.542669 
L 290.313116 240.404983 
L 290.684091 239.545862 
L 292.417983 243.556364 
L 288.762806 241.162583 
L 289.672688 240.94389 
L 224.994671 164.081576 
L 225.6351 163.542669 
" clip-path="url(#p187c3242ab)" style="fill: #0000ff"/>
    <path d="M 225.614177 163.519605 
L 283.580638 222.828234 
L 283.886702 221.943906 
L 285.914011 225.814374 
L 282.090954 223.699016 
L 282.982055 223.413271 
L 225.015594 164.104641 
L 225.614177 163.519605 
" clip-path="url(#p187c3242ab)" style="fill: #0000ff"/>
    <path d="M 225.260078 163.397227 
L 254.66293 159.513159 
L 254.13842 158.738174 
L 258.451798 159.434791 
L 254.467262 161.227548 
L 254.772544 160.34295 
L 225.369692 164.227019 
L 225.260078 163.397227 
" clip-path="url(#p187c3242ab)" style="fill: #0000ff"/>
    <path d="M 225.686273 164.005031 
L 219.871671 175.199314 
L 220.807355 175.213743 
L 217.764109 178.348892 
L 218.57903 174.056293 
L 219.128897 174.813497 
L 224.943498 163.619215 
L 225.686273 164.005031 
" clip-path="url(#p187c3242ab)" style="fill: #0000ff"/>
    <path d="M 225.480434 164.196487 
L 107.120841 215.174762 
L 107.836303 215.777942 
L 103.496013 216.280332 
L 106.843012 213.471756 
L 106.789745 214.406033 
L 225.149337 163.427758 
L 225.480434 164.196487 
" clip-path="url(#p187c3242ab)" style="fill: #0000ff"/>
    <path d="M 225.015516 163.519684 
L 283.180224 103.976543 
L 282.289047 103.691035 
L 286.111542 101.57466 
L 284.085262 105.445667 
L 283.778963 104.561421 
L 225.614255 164.104562 
L 225.015516 163.519684 
" clip-path="url(#p187c3242ab)" style="fill: #0000ff"/>
    <path d="M 225.508441 163.441072 
L 253.134667 177.852076 
L 253.150728 176.91642 
L 256.280566 179.965127 
L 251.989394 179.142723 
L 252.747556 178.594177 
L 225.12133 164.183173 
L 225.508441 163.441072 
" clip-path="url(#p187c3242ab)" style="fill: #0000ff"/>
    <path d="M 224.986979 164.07216 
L 167.289459 91.315597 
L 166.893682 92.163579 
L 165.277031 88.104398 
L 168.861124 90.603355 
L 167.945273 90.795523 
L 225.642792 163.552086 
L 224.986979 164.07216 
" clip-path="url(#p187c3242ab)" style="fill: #0000ff"/>
    <path d="M 225.089921 163.45923 
L 233.64324 158.006606 
L 232.840419 157.525785 
L 237.044239 156.33482 
L 234.190204 159.643141 
L 234.093169 158.712392 
L 225.53985 164.165016 
L 225.089921 163.45923 
" clip-path="url(#p187c3242ab)" style="fill: #0000ff"/>
    <path d="M 225.238101 163.400727 
L 387.05091 133.199476 
L 386.485946 132.453468 
L 390.830256 132.919814 
L 386.946651 134.921843 
L 387.204478 134.022267 
L 225.39167 164.223519 
L 225.238101 163.400727 
" clip-path="url(#p187c3242ab)" style="fill: #0000ff"/>
    <path d="M 225.348324 164.229285 
L 107.703645 173.659436 
L 108.187684 174.460321 
L 103.915748 173.543223 
L 107.987051 171.957349 
L 107.636767 172.825112 
L 225.281447 163.394961 
L 225.348324 164.229285 
" clip-path="url(#p187c3242ab)" style="fill: #0000ff"/>
    <path d="M 225.073324 164.153869 
L 174.445226 128.367711 
L 174.30385 129.292764 
L 171.611072 125.851914 
L 175.753217 127.242287 
L 174.928349 127.684218 
L 225.556447 163.470377 
L 225.073324 164.153869 
" clip-path="url(#p187c3242ab)" style="fill: #0000ff"/>
    <path d="M 224.981446 163.559219 
L 229.612849 157.452986 
L 228.693067 157.280617 
L 232.222426 154.704936 
L 230.693702 158.798041 
L 230.279728 157.958794 
L 225.648325 164.065027 
L 224.981446 163.559219 
" clip-path="url(#p187c3242ab)" style="fill: #0000ff"/>
    <path d="M 225.732199 163.843608 
L 220.83564 228.744703 
L 221.701753 228.390359 
L 220.134962 232.469044 
L 219.197869 228.20145 
L 220.001012 228.681733 
L 224.897571 163.780638 
L 225.732199 163.843608 
" clip-path="url(#p187c3242ab)" style="fill: #0000ff"/>
    <path d="M 225.51042 164.182134 
L 139.689544 209.534568 
L 140.450625 210.079057 
L 136.163906 210.924365 
L 139.277419 207.858987 
L 139.298476 208.794545 
L 225.119351 163.442111 
L 225.51042 164.182134 
" clip-path="url(#p187c3242ab)" style="fill: #0000ff"/>
    <path d="M 225.038502 163.497871 
L 233.166418 156.34941 
L 232.299399 155.997289 
L 236.271072 154.176213 
L 233.957699 157.882803 
L 233.719185 156.977915 
L 225.591269 164.126375 
L 225.038502 163.497871 
" clip-path="url(#p187c3242ab)" style="fill: #0000ff"/>
    <path d="M 225.322576 164.230552 
L 146.257852 165.683655 
L 146.691662 166.512824 
L 142.484298 165.334437 
L 146.645521 164.002248 
L 146.242472 164.846796 
L 225.307195 163.393694 
L 225.322576 164.230552 
" clip-path="url(#p187c3242ab)" style="fill: #0000ff"/>
    <path d="M 224.955615 163.597491 
L 231.766438 152.196917 
L 230.833264 152.126923 
L 234.057396 149.178114 
L 232.988888 153.414716 
L 232.484979 152.626181 
L 225.674156 164.026755 
L 224.955615 163.597491 
" clip-path="url(#p187c3242ab)" style="fill: #0000ff"/>
    <path d="M 225.560589 164.150903 
L 128.480584 234.559273 
L 129.310772 234.991129 
L 125.185861 236.431829 
L 127.836548 232.958449 
L 127.989176 233.881713 
L 225.069181 163.473343 
L 225.560589 164.150903 
" clip-path="url(#p187c3242ab)" style="fill: #0000ff"/>
    <path d="M 225.614272 164.104544 
L 212.819666 177.203944 
L 213.71086 177.489398 
L 209.888493 179.606003 
L 211.91454 175.734874 
L 212.220892 176.619102 
L 225.015499 163.519702 
L 225.614272 164.104544 
" clip-path="url(#p187c3242ab)" style="fill: #0000ff"/>
    <path d="M 225.681171 164.014551 
L 203.026857 205.006622 
L 203.961857 205.045193 
L 200.838719 208.100764 
L 201.764143 203.830624 
L 202.294286 204.601766 
L 224.9486 163.609695 
L 225.681171 164.014551 
" clip-path="url(#p187c3242ab)" style="fill: #0000ff"/>
    <path d="M 225.170243 164.204832 
L 142.503007 133.756866 
L 142.606431 134.686927 
L 139.113264 132.062373 
L 143.474287 132.33067 
L 142.792292 132.971447 
L 225.459528 163.419413 
L 225.170243 164.204832 
" clip-path="url(#p187c3242ab)" style="fill: #0000ff"/>
    <path d="M 225.29248 163.394223 
L 239.287425 162.643905 
L 238.824715 161.830511 
L 243.070928 162.860159 
L 238.959145 164.33791 
L 239.332235 163.479705 
L 225.337291 164.230023 
L 225.29248 163.394223 
" clip-path="url(#p187c3242ab)" style="fill: #0000ff"/>
    <path d="M 225.67422 163.597598 
L 244.300806 194.797597 
L 244.80495 194.009213 
L 245.872195 198.246133 
L 242.648942 195.296362 
L 243.582136 195.226647 
L 224.955551 164.026648 
L 225.67422 163.597598 
" clip-path="url(#p187c3242ab)" style="fill: #0000ff"/>
    <path d="M 224.991406 163.546599 
L 228.856456 158.837931 
L 227.943972 158.630362 
L 231.569654 156.192137 
L 229.884851 160.223507 
L 229.503416 159.368979 
L 225.638365 164.077647 
L 224.991406 163.546599 
" clip-path="url(#p187c3242ab)" style="fill: #0000ff"/>
    <path d="M 225.243462 164.224483 
L 122.679871 146.459855 
L 122.949385 147.355999 
L 119.040052 145.404686 
L 123.377924 144.881838 
L 122.822717 145.635135 
L 225.386309 163.399763 
L 225.243462 164.224483 
" clip-path="url(#p187c3242ab)" style="fill: #0000ff"/>
    <path d="M 225.620462 164.098069 
L 220.069793 170.029796 
L 220.966892 170.296111 
L 217.190701 172.494038 
L 219.133433 168.580434 
L 219.45864 169.457903 
L 225.009309 163.526177 
L 225.620462 164.098069 
" clip-path="url(#p187c3242ab)" style="fill: #0000ff"/>
    <path d="M 224.915946 163.938573 
L 206.330986 105.304564 
L 205.659557 105.956403 
L 205.591875 101.587659 
L 208.053193 105.197703 
L 207.128865 105.051664 
L 225.713825 163.685673 
L 224.915946 163.938573 
" clip-path="url(#p187c3242ab)" style="fill: #0000ff"/>
    <path d="M 225.448307 163.41546 
L 262.327592 175.820154 
L 262.197771 174.893408 
L 265.764132 177.417606 
L 261.397245 177.273382 
L 262.060749 176.613478 
L 225.181464 164.208785 
L 225.448307 163.41546 
" clip-path="url(#p187c3242ab)" style="fill: #0000ff"/>
    <path d="M 225.242534 164.224321 
L 127.884231 147.13538 
L 128.151726 148.032129 
L 124.246797 146.072017 
L 128.585836 145.558938 
L 128.028934 146.310984 
L 225.387237 163.399925 
L 225.242534 164.224321 
" clip-path="url(#p187c3242ab)" style="fill: #0000ff"/>
    <path d="M 224.976916 163.565305 
L 229.968437 156.730377 
L 229.045681 156.574711 
L 232.527766 153.935471 
L 231.073497 158.055617 
L 230.644376 157.224012 
L 225.652855 164.058941 
L 224.976916 163.565305 
" clip-path="url(#p187c3242ab)" style="fill: #0000ff"/>
    <path d="M 225.731827 163.848211 
L 219.908504 231.126985 
L 220.778475 230.782221 
L 219.166767 234.843367 
L 218.276828 230.56569 
L 219.074622 231.054808 
L 224.897944 163.776034 
L 225.731827 163.848211 
" clip-path="url(#p187c3242ab)" style="fill: #0000ff"/>
    <path d="M 225.447503 163.415191 
L 350.528063 205.205417 
L 350.396366 204.278936 
L 353.967832 206.795907 
L 349.600661 206.660527 
L 350.262828 205.999281 
L 225.182268 164.209055 
L 225.447503 163.415191 
" clip-path="url(#p187c3242ab)" style="fill: #0000ff"/>
    <path d="M 225.132728 163.435346 
L 238.875563 156.791188 
L 238.134471 156.219792 
L 242.448713 155.528544 
L 239.227418 158.480453 
L 239.239879 157.544742 
L 225.497043 164.1889 
L 225.132728 163.435346 
" clip-path="url(#p187c3242ab)" style="fill: #0000ff"/>
    <path d="M 225.629617 163.536286 
L 284.622392 230.8474 
L 284.976019 229.980994 
L 286.790195 233.955824 
L 283.087628 231.636017 
L 283.992929 231.399074 
L 225.000154 164.08796 
L 225.629617 163.536286 
" clip-path="url(#p187c3242ab)" style="fill: #0000ff"/>
    <path d="M 225.107674 163.448522 
L 279.358657 132.531696 
L 278.580634 132.011705 
L 282.838279 131.030399 
L 279.823899 134.193312 
L 279.773079 133.258899 
L 225.522096 164.175724 
L 225.107674 163.448522 
" clip-path="url(#p187c3242ab)" style="fill: #0000ff"/>
    <path d="M 225.466179 164.202318 
L 199.972506 174.087201 
L 200.665289 174.716298 
L 196.309454 175.058651 
L 199.757526 172.375126 
L 199.669919 173.306811 
L 225.163592 163.421928 
L 225.466179 164.202318 
" clip-path="url(#p187c3242ab)" style="fill: #0000ff"/>
    <path d="M 225.649076 164.064034 
L 208.249384 187.146818 
L 209.169676 187.31645 
L 205.647995 189.902619 
L 207.164534 185.804984 
L 207.581004 186.642996 
L 224.980695 163.560212 
L 225.649076 164.064034 
" clip-path="url(#p187c3242ab)" style="fill: #0000ff"/>
    <path d="M 225.03742 163.498826 
L 297.943385 98.931032 
L 297.075156 98.581904 
L 301.040524 96.747138 
L 298.73995 100.461686 
L 298.498316 99.557626 
L 225.592351 164.12542 
L 225.03742 163.498826 
" clip-path="url(#p187c3242ab)" style="fill: #0000ff"/>
    <path d="M 225.612821 164.106022 
L 197.344881 192.76211 
L 198.234651 193.051974 
L 194.40185 195.149626 
L 196.44704 191.288577 
L 196.749011 192.174311 
L 225.01695 163.518223 
L 225.612821 164.106022 
" clip-path="url(#p187c3242ab)" style="fill: #0000ff"/>
    <path d="M 225.486219 163.430302 
L 310.915153 201.764753 
L 310.876001 200.829778 
L 314.180204 203.688579 
L 309.847997 203.120701 
L 310.572485 202.528394 
L 225.143551 164.193943 
L 225.486219 163.430302 
" clip-path="url(#p187c3242ab)" style="fill: #0000ff"/>
    <path d="M 225.140156 164.192401 
L 147.818523 128.664818 
L 147.849343 129.600105 
L 144.570745 126.711973 
L 148.89772 127.318433 
L 148.167982 127.904261 
L 225.489615 163.431844 
L 225.140156 164.192401 
" clip-path="url(#p187c3242ab)" style="fill: #0000ff"/>
    <path d="M 225.035965 163.50012 
L 233.175258 156.22387 
L 232.305415 155.878784 
L 236.262205 154.025593 
L 233.978935 157.750802 
L 233.733098 156.847876 
L 225.593805 164.124126 
L 225.035965 163.50012 
" clip-path="url(#p187c3242ab)" style="fill: #0000ff"/>
    <path d="M 225.719833 163.706482 
L 229.265428 177.297561 
L 229.969681 176.681331 
L 229.811252 181.047726 
L 227.539998 177.315178 
L 228.455533 177.508843 
L 224.909938 163.917764 
L 225.719833 163.706482 
" clip-path="url(#p187c3242ab)" style="fill: #0000ff"/>
    <path d="M 225.621465 163.527253 
L 273.454271 215.005352 
L 273.782561 214.129032 
L 275.711523 218.049441 
L 271.943081 215.838253 
L 272.841111 215.575092 
L 225.008306 164.096993 
L 225.621465 163.527253 
" clip-path="url(#p187c3242ab)" style="fill: #0000ff"/>
    <path d="M 225.672699 164.029175 
L 207.963676 193.222694 
L 208.896355 193.298986 
L 205.65239 196.225963 
L 206.749474 191.996671 
L 207.248049 192.788589 
L 224.957072 163.59507 
L 225.672699 164.029175 
" clip-path="url(#p187c3242ab)" style="fill: #0000ff"/>
    <path d="M 225.69375 163.989898 
L 221.672635 172.559474 
L 222.608139 172.53616 
L 219.693794 175.791479 
L 220.334952 171.469509 
L 220.914906 172.203924 
L 224.936021 163.634348 
L 225.69375 163.989898 
" clip-path="url(#p187c3242ab)" style="fill: #0000ff"/>
    <path d="M 225.556252 164.154006 
L 159.101848 211.070233 
L 159.926465 211.512634 
L 155.78353 212.900651 
L 158.478264 209.461333 
L 158.619114 210.386466 
L 225.073519 163.470239 
L 225.556252 164.154006 
" clip-path="url(#p187c3242ab)" style="fill: #0000ff"/>
    <path d="M 225.407616 164.22022 
L 205.75204 168.686468 
L 206.345598 169.409933 
L 201.986435 169.112942 
L 205.789217 166.961349 
L 205.56658 167.870274 
L 225.222155 163.404026 
L 225.407616 164.22022 
" clip-path="url(#p187c3242ab)" style="fill: #0000ff"/>
    <path d="M 225.057602 163.482051 
L 260.113537 136.156733 
L 259.268898 135.753873 
L 263.341467 134.171252 
L 260.812599 137.734304 
L 260.628104 136.816877 
L 225.572169 164.142195 
L 225.057602 163.482051 
" clip-path="url(#p187c3242ab)" style="fill: #0000ff"/>
    <path d="M 225.270675 164.228281 
L 108.936138 151.869624 
L 109.263876 152.746151 
L 105.234923 151.055575 
L 109.529136 150.249201 
L 109.024558 151.037308 
L 225.359095 163.395965 
L 225.270675 164.228281 
" clip-path="url(#p187c3242ab)" style="fill: #0000ff"/>
    <path d="M 224.913987 163.932218 
L 207.326507 105.222294 
L 206.644806 105.863383 
L 206.646547 101.494115 
L 209.050195 105.142811 
L 208.128303 104.982103 
L 225.715784 163.692028 
L 224.913987 163.932218 
" clip-path="url(#p187c3242ab)" style="fill: #0000ff"/>
    <path d="M 225.456339 164.205992 
L 186.298481 178.269028 
L 186.975257 178.915314 
L 182.612201 179.148237 
L 186.126538 176.552097 
L 186.015575 177.481289 
L 225.173432 163.418253 
L 225.456339 164.205992 
" clip-path="url(#p187c3242ab)" style="fill: #0000ff"/>
    <path d="M 225.58838 163.495353 
L 243.803936 179.222432 
L 244.034156 178.315398 
L 246.381366 182.000654 
L 242.393187 180.216015 
L 243.256946 179.855971 
L 225.041391 164.128892 
L 225.58838 163.495353 
" clip-path="url(#p187c3242ab)" style="fill: #0000ff"/>
    <path d="M 225.223535 164.220531 
L 124.78605 141.75519 
L 125.011757 142.663357 
L 121.201727 140.524625 
L 125.559861 140.212907 
L 124.968752 140.938373 
L 225.406236 163.403715 
L 225.223535 164.220531 
" clip-path="url(#p187c3242ab)" style="fill: #0000ff"/>
    <path d="M 225.392528 163.400888 
L 333.314989 183.776987 
L 333.05904 182.876875 
L 336.938459 184.887003 
L 332.593185 185.344283 
L 333.159705 184.599456 
L 225.237243 164.223357 
L 225.392528 163.400888 
" clip-path="url(#p187c3242ab)" style="fill: #0000ff"/>
    <path d="M 225.33574 163.394143 
L 300.712797 167.154969 
L 300.336526 166.298154 
L 304.453763 167.760639 
L 300.211399 168.806035 
L 300.671088 167.990929 
L 225.294031 164.230103 
L 225.33574 163.394143 
" clip-path="url(#p187c3242ab)" style="fill: #0000ff"/>
    <path d="M 225.368453 164.22718 
L 122.683575 177.47986 
L 123.205768 178.256407 
L 118.894489 177.546915 
L 122.88436 175.766062 
L 122.576439 176.649745 
L 225.261317 163.397065 
L 225.368453 164.22718 
" clip-path="url(#p187c3242ab)" style="fill: #0000ff"/>
    <path d="M 225.650235 163.561757 
L 232.435886 172.650697 
L 232.856218 171.814616 
L 234.353831 175.919206 
L 230.844123 173.316812 
L 231.765187 173.151429 
L 224.979536 164.062489 
L 225.650235 163.561757 
" clip-path="url(#p187c3242ab)" style="fill: #0000ff"/>
    <path d="M 225.284971 164.229552 
L 197.311807 162.22487 
L 197.669407 163.089643 
L 193.584857 161.538206 
L 197.848896 160.585067 
L 197.371637 161.390011 
L 225.3448 163.394693 
L 225.284971 164.229552 
" clip-path="url(#p187c3242ab)" style="fill: #0000ff"/>
    <path d="M 225.268585 163.396192 
L 352.092475 149.278471 
L 351.583944 148.49291 
L 355.882154 149.277699 
L 351.861746 150.988495 
L 352.185076 150.110333 
L 225.361186 164.228054 
L 225.268585 163.396192 
" clip-path="url(#p187c3242ab)" style="fill: #0000ff"/>
    <path d="M 225.121331 163.441072 
L 237.566815 156.949042 
L 236.808656 156.400494 
L 241.099831 155.578106 
L 237.969981 158.626802 
L 237.953924 157.691145 
L 225.50844 164.183174 
L 225.121331 163.441072 
" clip-path="url(#p187c3242ab)" style="fill: #0000ff"/>
    <path d="M 225.074704 164.15484 
L 186.358555 137.021963 
L 186.220909 137.947579 
L 183.514281 134.517613 
L 187.661998 135.891276 
L 186.838918 136.336529 
L 225.555067 163.469406 
L 225.074704 164.15484 
" clip-path="url(#p187c3242ab)" style="fill: #0000ff"/>
    <path d="M 224.928545 163.973005 
L 204.252116 114.320891 
L 203.640317 115.028996 
L 203.190516 110.682942 
L 205.958361 114.063703 
L 205.024797 113.999126 
L 225.701226 163.651241 
L 224.928545 163.973005 
" clip-path="url(#p187c3242ab)" style="fill: #0000ff"/>
    <path d="M 225.209124 164.217039 
L 180.91922 152.648769 
L 181.112613 153.564362 
L 177.380741 151.291998 
L 181.747183 151.134868 
L 181.130744 151.838938 
L 225.420647 163.407207 
L 225.209124 164.217039 
" clip-path="url(#p187c3242ab)" style="fill: #0000ff"/>
    <path d="M 225.519148 163.446857 
L 249.746843 176.995379 
L 249.790103 176.060585 
L 252.829972 179.199007 
L 248.564527 178.252179 
L 249.338318 177.72591 
L 225.110623 164.177389 
L 225.519148 163.446857 
" clip-path="url(#p187c3242ab)" style="fill: #0000ff"/>
    <path d="M 225.30809 163.393678 
L 369.209112 161.056903 
L 368.777077 160.226808 
L 372.981911 161.414192 
L 368.817847 162.737477 
L 369.222702 161.893792 
L 225.32168 164.230568 
L 225.30809 163.393678 
" clip-path="url(#p187c3242ab)" style="fill: #0000ff"/>
    <path d="M 224.909184 163.914828 
L 221.40145 150.058776 
L 220.692753 150.669889 
L 220.882802 146.304756 
L 223.126962 150.053656 
L 222.212854 149.853365 
L 225.720587 163.709417 
L 224.909184 163.914828 
" clip-path="url(#p187c3242ab)" style="fill: #0000ff"/>
    <path d="M 225.698363 163.64453 
L 237.35941 190.326661 
L 237.958771 189.607998 
L 238.484273 193.945549 
L 235.657908 190.613557 
L 236.592456 190.661848 
L 224.931408 163.979716 
L 225.698363 163.64453 
" clip-path="url(#p187c3242ab)" style="fill: #0000ff"/>
    <path d="M 225.195366 163.411053 
L 268.582607 150.481556 
L 267.942497 149.798935 
L 272.311758 149.806948 
L 268.659616 152.205356 
L 268.821646 151.283696 
L 225.434405 164.213193 
L 225.195366 163.411053 
" clip-path="url(#p187c3242ab)" style="fill: #0000ff"/>
    <path d="M 225.074402 163.469617 
L 263.015978 136.829719 
L 262.192506 136.385191 
L 266.339011 135.007875 
L 263.635405 138.440224 
L 263.496944 137.51473 
L 225.555369 164.154628 
L 225.074402 163.469617 
" clip-path="url(#p187c3242ab)" style="fill: #0000ff"/>
   </g>
   <g id="matplotlib.axis_1">
    <g id="xtick_1">
     <g id="line2d_1">
      <defs>
       <path id="m0617189fee" d="M 0 0 
L 0 3.5 
" style="stroke: #000000; stroke-width: 0.8"/>
      </defs>
      <g>
       <use xlink:href="#m0617189fee" x="89.514182" y="253.44" style="stroke: #000000; stroke-width: 0.8"/>
      </g>
     </g>
     <g id="text_1">
      <!-- −0.0004 -->
      <g transform="translate(67.829026 268.038437) scale(0.1 -0.1)">
       <defs>
        <path id="DejaVuSans-2212" d="M 678 2272 
L 4684 2272 
L 4684 1741 
L 678 1741 
L 678 2272 
z
" transform="scale(0.015625)"/>
        <path id="DejaVuSans-30" d="M 2034 4250 
Q 1547 4250 1301 3770 
Q 1056 3291 1056 2328 
Q 1056 1369 1301 889 
Q 1547 409 2034 409 
Q 2525 409 2770 889 
Q 3016 1369 3016 2328 
Q 3016 3291 2770 3770 
Q 2525 4250 2034 4250 
z
M 2034 4750 
Q 2819 4750 3233 4129 
Q 3647 3509 3647 2328 
Q 3647 1150 3233 529 
Q 2819 -91 2034 -91 
Q 1250 -91 836 529 
Q 422 1150 422 2328 
Q 422 3509 836 4129 
Q 1250 4750 2034 4750 
z
" transform="scale(0.015625)"/>
        <path id="DejaVuSans-2e" d="M 684 794 
L 1344 794 
L 1344 0 
L 684 0 
L 684 794 
z
" transform="scale(0.015625)"/>
        <path id="DejaVuSans-34" d="M 2419 4116 
L 825 1625 
L 2419 1625 
L 2419 4116 
z
M 2253 4666 
L 3047 4666 
L 3047 1625 
L 3713 1625 
L 3713 1100 
L 3047 1100 
L 3047 0 
L 2419 0 
L 2419 1100 
L 313 1100 
L 313 1709 
L 2253 4666 
z
" transform="scale(0.015625)"/>
       </defs>
       <use xlink:href="#DejaVuSans-2212"/>
       <use xlink:href="#DejaVuSans-30" x="83.789062"/>
       <use xlink:href="#DejaVuSans-2e" x="147.412109"/>
       <use xlink:href="#DejaVuSans-30" x="179.199219"/>
       <use xlink:href="#DejaVuSans-30" x="242.822266"/>
       <use xlink:href="#DejaVuSans-30" x="306.445312"/>
       <use xlink:href="#DejaVuSans-34" x="370.068359"/>
      </g>
     </g>
    </g>
    <g id="xtick_2">
     <g id="line2d_2">
      <g>
       <use xlink:href="#m0617189fee" x="157.414534" y="253.44" style="stroke: #000000; stroke-width: 0.8"/>
      </g>
     </g>
     <g id="text_2">
      <!-- −0.0002 -->
      <g transform="translate(135.729377 268.038437) scale(0.1 -0.1)">
       <defs>
        <path id="DejaVuSans-32" d="M 1228 531 
L 3431 531 
L 3431 0 
L 469 0 
L 469 531 
Q 828 903 1448 1529 
Q 2069 2156 2228 2338 
Q 2531 2678 2651 2914 
Q 2772 3150 2772 3378 
Q 2772 3750 2511 3984 
Q 2250 4219 1831 4219 
Q 1534 4219 1204 4116 
Q 875 4013 500 3803 
L 500 4441 
Q 881 4594 1212 4672 
Q 1544 4750 1819 4750 
Q 2544 4750 2975 4387 
Q 3406 4025 3406 3419 
Q 3406 3131 3298 2873 
Q 3191 2616 2906 2266 
Q 2828 2175 2409 1742 
Q 1991 1309 1228 531 
z
" transform="scale(0.015625)"/>
       </defs>
       <use xlink:href="#DejaVuSans-2212"/>
       <use xlink:href="#DejaVuSans-30" x="83.789062"/>
       <use xlink:href="#DejaVuSans-2e" x="147.412109"/>
       <use xlink:href="#DejaVuSans-30" x="179.199219"/>
       <use xlink:href="#DejaVuSans-30" x="242.822266"/>
       <use xlink:href="#DejaVuSans-30" x="306.445312"/>
       <use xlink:href="#DejaVuSans-32" x="370.068359"/>
      </g>
     </g>
    </g>
    <g id="xtick_3">
     <g id="line2d_3">
      <g>
       <use xlink:href="#m0617189fee" x="225.314885" y="253.44" style="stroke: #000000; stroke-width: 0.8"/>
      </g>
     </g>
     <g id="text_3">
      <!-- 0.0000 -->
      <g transform="translate(207.819573 268.038437) scale(0.1 -0.1)">
       <use xlink:href="#DejaVuSans-30"/>
       <use xlink:href="#DejaVuSans-2e" x="63.623047"/>
       <use xlink:href="#DejaVuSans-30" x="95.410156"/>
       <use xlink:href="#DejaVuSans-30" x="159.033203"/>
       <use xlink:href="#DejaVuSans-30" x="222.65625"/>
       <use xlink:href="#DejaVuSans-30" x="286.279297"/>
      </g>
     </g>
    </g>
    <g id="xtick_4">
     <g id="line2d_4">
      <g>
       <use xlink:href="#m0617189fee" x="293.215237" y="253.44" style="stroke: #000000; stroke-width: 0.8"/>
      </g>
     </g>
     <g id="text_4">
      <!-- 0.0002 -->
      <g transform="translate(275.719925 268.038437) scale(0.1 -0.1)">
       <use xlink:href="#DejaVuSans-30"/>
       <use xlink:href="#DejaVuSans-2e" x="63.623047"/>
       <use xlink:href="#DejaVuSans-30" x="95.410156"/>
       <use xlink:href="#DejaVuSans-30" x="159.033203"/>
       <use xlink:href="#DejaVuSans-30" x="222.65625"/>
       <use xlink:href="#DejaVuSans-32" x="286.279297"/>
      </g>
     </g>
    </g>
    <g id="xtick_5">
     <g id="line2d_5">
      <g>
       <use xlink:href="#m0617189fee" x="361.115589" y="253.44" style="stroke: #000000; stroke-width: 0.8"/>
      </g>
     </g>
     <g id="text_5">
      <!-- 0.0004 -->
      <g transform="translate(343.620276 268.038437) scale(0.1 -0.1)">
       <use xlink:href="#DejaVuSans-30"/>
       <use xlink:href="#DejaVuSans-2e" x="63.623047"/>
       <use xlink:href="#DejaVuSans-30" x="95.410156"/>
       <use xlink:href="#DejaVuSans-30" x="159.033203"/>
       <use xlink:href="#DejaVuSans-30" x="222.65625"/>
       <use xlink:href="#DejaVuSans-34" x="286.279297"/>
      </g>
     </g>
    </g>
    <g id="text_6">
     <!-- $x_1$ -->
     <g transform="translate(233.298438 281.716562) scale(0.1 -0.1)">
      <defs>
       <path id="DejaVuSans-Oblique-78" d="M 3841 3500 
L 2234 1784 
L 3219 0 
L 2559 0 
L 1819 1388 
L 531 0 
L -166 0 
L 1556 1844 
L 641 3500 
L 1300 3500 
L 1972 2234 
L 3144 3500 
L 3841 3500 
z
" transform="scale(0.015625)"/>
       <path id="DejaVuSans-31" d="M 794 531 
L 1825 531 
L 1825 4091 
L 703 3866 
L 703 4441 
L 1819 4666 
L 2450 4666 
L 2450 531 
L 3481 531 
L 3481 0 
L 794 0 
L 794 531 
z
" transform="scale(0.015625)"/>
      </defs>
      <use xlink:href="#DejaVuSans-Oblique-78" transform="translate(0 0.3125)"/>
      <use xlink:href="#DejaVuSans-31" transform="translate(59.179688 -16.09375) scale(0.7)"/>
     </g>
    </g>
   </g>
   <g id="matplotlib.axis_2">
    <g id="ytick_1">
     <g id="line2d_6">
      <defs>
       <path id="m8e856e8ff8" d="M 0 0 
L -3.5 0 
" style="stroke: #000000; stroke-width: 0.8"/>
      </defs>
      <g>
       <use xlink:href="#m8e856e8ff8" x="71.248438" y="234.964581" style="stroke: #000000; stroke-width: 0.8"/>
      </g>
     </g>
     <g id="text_7">
      <!-- −0.0004 -->
      <g transform="translate(20.878125 238.763799) scale(0.1 -0.1)">
       <use xlink:href="#DejaVuSans-2212"/>
       <use xlink:href="#DejaVuSans-30" x="83.789062"/>
       <use xlink:href="#DejaVuSans-2e" x="147.412109"/>
       <use xlink:href="#DejaVuSans-30" x="179.199219"/>
       <use xlink:href="#DejaVuSans-30" x="242.822266"/>
       <use xlink:href="#DejaVuSans-30" x="306.445312"/>
       <use xlink:href="#DejaVuSans-34" x="370.068359"/>
      </g>
     </g>
    </g>
    <g id="ytick_2">
     <g id="line2d_7">
      <g>
       <use xlink:href="#m8e856e8ff8" x="71.248438" y="199.388352" style="stroke: #000000; stroke-width: 0.8"/>
      </g>
     </g>
     <g id="text_8">
      <!-- −0.0002 -->
      <g transform="translate(20.878125 203.187571) scale(0.1 -0.1)">
       <use xlink:href="#DejaVuSans-2212"/>
       <use xlink:href="#DejaVuSans-30" x="83.789062"/>
       <use xlink:href="#DejaVuSans-2e" x="147.412109"/>
       <use xlink:href="#DejaVuSans-30" x="179.199219"/>
       <use xlink:href="#DejaVuSans-30" x="242.822266"/>
       <use xlink:href="#DejaVuSans-30" x="306.445312"/>
       <use xlink:href="#DejaVuSans-32" x="370.068359"/>
      </g>
     </g>
    </g>
    <g id="ytick_3">
     <g id="line2d_8">
      <g>
       <use xlink:href="#m8e856e8ff8" x="71.248438" y="163.812123" style="stroke: #000000; stroke-width: 0.8"/>
      </g>
     </g>
     <g id="text_9">
      <!-- 0.0000 -->
      <g transform="translate(29.257813 167.611342) scale(0.1 -0.1)">
       <use xlink:href="#DejaVuSans-30"/>
       <use xlink:href="#DejaVuSans-2e" x="63.623047"/>
       <use xlink:href="#DejaVuSans-30" x="95.410156"/>
       <use xlink:href="#DejaVuSans-30" x="159.033203"/>
       <use xlink:href="#DejaVuSans-30" x="222.65625"/>
       <use xlink:href="#DejaVuSans-30" x="286.279297"/>
      </g>
     </g>
    </g>
    <g id="ytick_4">
     <g id="line2d_9">
      <g>
       <use xlink:href="#m8e856e8ff8" x="71.248438" y="128.235894" style="stroke: #000000; stroke-width: 0.8"/>
      </g>
     </g>
     <g id="text_10">
      <!-- 0.0002 -->
      <g transform="translate(29.257813 132.035113) scale(0.1 -0.1)">
       <use xlink:href="#DejaVuSans-30"/>
       <use xlink:href="#DejaVuSans-2e" x="63.623047"/>
       <use xlink:href="#DejaVuSans-30" x="95.410156"/>
       <use xlink:href="#DejaVuSans-30" x="159.033203"/>
       <use xlink:href="#DejaVuSans-30" x="222.65625"/>
       <use xlink:href="#DejaVuSans-32" x="286.279297"/>
      </g>
     </g>
    </g>
    <g id="ytick_5">
     <g id="line2d_10">
      <g>
       <use xlink:href="#m8e856e8ff8" x="71.248438" y="92.659665" style="stroke: #000000; stroke-width: 0.8"/>
      </g>
     </g>
     <g id="text_11">
      <!-- 0.0004 -->
      <g transform="translate(29.257813 96.458884) scale(0.1 -0.1)">
       <use xlink:href="#DejaVuSans-30"/>
       <use xlink:href="#DejaVuSans-2e" x="63.623047"/>
       <use xlink:href="#DejaVuSans-30" x="95.410156"/>
       <use xlink:href="#DejaVuSans-30" x="159.033203"/>
       <use xlink:href="#DejaVuSans-30" x="222.65625"/>
       <use xlink:href="#DejaVuSans-34" x="286.279297"/>
      </g>
     </g>
    </g>
    <g id="ytick_6">
     <g id="line2d_11">
      <g>
       <use xlink:href="#m8e856e8ff8" x="71.248438" y="57.083436" style="stroke: #000000; stroke-width: 0.8"/>
      </g>
     </g>
     <g id="text_12">
      <!-- 0.0006 -->
      <g transform="translate(29.257813 60.882655) scale(0.1 -0.1)">
       <defs>
        <path id="DejaVuSans-36" d="M 2113 2584 
Q 1688 2584 1439 2293 
Q 1191 2003 1191 1497 
Q 1191 994 1439 701 
Q 1688 409 2113 409 
Q 2538 409 2786 701 
Q 3034 994 3034 1497 
Q 3034 2003 2786 2293 
Q 2538 2584 2113 2584 
z
M 3366 4563 
L 3366 3988 
Q 3128 4100 2886 4159 
Q 2644 4219 2406 4219 
Q 1781 4219 1451 3797 
Q 1122 3375 1075 2522 
Q 1259 2794 1537 2939 
Q 1816 3084 2150 3084 
Q 2853 3084 3261 2657 
Q 3669 2231 3669 1497 
Q 3669 778 3244 343 
Q 2819 -91 2113 -91 
Q 1303 -91 875 529 
Q 447 1150 447 2328 
Q 447 3434 972 4092 
Q 1497 4750 2381 4750 
Q 2619 4750 2861 4703 
Q 3103 4656 3366 4563 
z
" transform="scale(0.015625)"/>
       </defs>
       <use xlink:href="#DejaVuSans-30"/>
       <use xlink:href="#DejaVuSans-2e" x="63.623047"/>
       <use xlink:href="#DejaVuSans-30" x="95.410156"/>
       <use xlink:href="#DejaVuSans-30" x="159.033203"/>
       <use xlink:href="#DejaVuSans-30" x="222.65625"/>
       <use xlink:href="#DejaVuSans-36" x="286.279297"/>
      </g>
     </g>
    </g>
    <g id="text_13">
     <!-- $x_2$ -->
     <g transform="translate(14.798438 150.07) rotate(-90) scale(0.1 -0.1)">
      <use xlink:href="#DejaVuSans-Oblique-78" transform="translate(0 0.3125)"/>
      <use xlink:href="#DejaVuSans-32" transform="translate(59.179688 -16.09375) scale(0.7)"/>
     </g>
    </g>
   </g>
   <g id="line2d_12">
    <defs>
     <path id="m00ce641dcc" d="M 0 1.5 
C 0.397805 1.5 0.77937 1.341951 1.06066 1.06066 
C 1.341951 0.77937 1.5 0.397805 1.5 0 
C 1.5 -0.397805 1.341951 -0.77937 1.06066 -1.06066 
C 0.77937 -1.341951 0.397805 -1.5 0 -1.5 
C -0.397805 -1.5 -0.77937 -1.341951 -1.06066 -1.06066 
C -1.341951 -0.77937 -1.5 -0.397805 -1.5 0 
C -1.5 0.397805 -1.341951 0.77937 -1.06066 1.06066 
C -0.77937 1.341951 -0.397805 1.5 0 1.5 
z
" style="stroke: #ff0000"/>
    </defs>
    <g clip-path="url(#p187c3242ab)">
     <use xlink:href="#m00ce641dcc" x="303.658364" y="183.309872" style="fill: #ff0000; stroke: #ff0000"/>
     <use xlink:href="#m00ce641dcc" x="105.238012" y="131.535601" style="fill: #ff0000; stroke: #ff0000"/>
     <use xlink:href="#m00ce641dcc" x="86.466619" y="177.329231" style="fill: #ff0000; stroke: #ff0000"/>
     <use xlink:href="#m00ce641dcc" x="275.920323" y="202.635939" style="fill: #ff0000; stroke: #ff0000"/>
     <use xlink:href="#m00ce641dcc" x="246.237934" y="84.622814" style="fill: #ff0000; stroke: #ff0000"/>
     <use xlink:href="#m00ce641dcc" x="266.229227" y="144.794325" style="fill: #ff0000; stroke: #ff0000"/>
     <use xlink:href="#m00ce641dcc" x="196.609441" y="155.92059" style="fill: #ff0000; stroke: #ff0000"/>
     <use xlink:href="#m00ce641dcc" x="237.482023" y="179.419857" style="fill: #ff0000; stroke: #ff0000"/>
     <use xlink:href="#m00ce641dcc" x="267.162792" y="208.447886" style="fill: #ff0000; stroke: #ff0000"/>
     <use xlink:href="#m00ce641dcc" x="230.456383" y="157.471886" style="fill: #ff0000; stroke: #ff0000"/>
     <use xlink:href="#m00ce641dcc" x="249.44651" y="167.820985" style="fill: #ff0000; stroke: #ff0000"/>
     <use xlink:href="#m00ce641dcc" x="213.211053" y="181.360544" style="fill: #ff0000; stroke: #ff0000"/>
     <use xlink:href="#m00ce641dcc" x="219.971741" y="174.691819" style="fill: #ff0000; stroke: #ff0000"/>
     <use xlink:href="#m00ce641dcc" x="270.107169" y="45.883636" style="fill: #ff0000; stroke: #ff0000"/>
     <use xlink:href="#m00ce641dcc" x="238.115322" y="160.847164" style="fill: #ff0000; stroke: #ff0000"/>
     <use xlink:href="#m00ce641dcc" x="238.083318" y="161.773846" style="fill: #ff0000; stroke: #ff0000"/>
     <use xlink:href="#m00ce641dcc" x="223.73763" y="173.136322" style="fill: #ff0000; stroke: #ff0000"/>
     <use xlink:href="#m00ce641dcc" x="316.831915" y="165.627699" style="fill: #ff0000; stroke: #ff0000"/>
     <use xlink:href="#m00ce641dcc" x="116.188446" y="176.059259" style="fill: #ff0000; stroke: #ff0000"/>
     <use xlink:href="#m00ce641dcc" x="258.431436" y="189.365205" style="fill: #ff0000; stroke: #ff0000"/>
     <use xlink:href="#m00ce641dcc" x="333.344815" y="147.411921" style="fill: #ff0000; stroke: #ff0000"/>
     <use xlink:href="#m00ce641dcc" x="203.153947" y="188.537842" style="fill: #ff0000; stroke: #ff0000"/>
     <use xlink:href="#m00ce641dcc" x="200.356619" y="197.650564" style="fill: #ff0000; stroke: #ff0000"/>
     <use xlink:href="#m00ce641dcc" x="313.224957" y="162.280305" style="fill: #ff0000; stroke: #ff0000"/>
     <use xlink:href="#m00ce641dcc" x="300.733033" y="166.399283" style="fill: #ff0000; stroke: #ff0000"/>
     <use xlink:href="#m00ce641dcc" x="153.966205" y="108.444357" style="fill: #ff0000; stroke: #ff0000"/>
     <use xlink:href="#m00ce641dcc" x="356.33034" y="137.231057" style="fill: #ff0000; stroke: #ff0000"/>
     <use xlink:href="#m00ce641dcc" x="213.128968" y="206.028182" style="fill: #ff0000; stroke: #ff0000"/>
     <use xlink:href="#m00ce641dcc" x="276.203761" y="63.552726" style="fill: #ff0000; stroke: #ff0000"/>
     <use xlink:href="#m00ce641dcc" x="292.417983" y="243.556364" style="fill: #ff0000; stroke: #ff0000"/>
     <use xlink:href="#m00ce641dcc" x="285.914011" y="225.814374" style="fill: #ff0000; stroke: #ff0000"/>
     <use xlink:href="#m00ce641dcc" x="258.451798" y="159.434791" style="fill: #ff0000; stroke: #ff0000"/>
     <use xlink:href="#m00ce641dcc" x="217.764109" y="178.348892" style="fill: #ff0000; stroke: #ff0000"/>
     <use xlink:href="#m00ce641dcc" x="103.496013" y="216.280332" style="fill: #ff0000; stroke: #ff0000"/>
     <use xlink:href="#m00ce641dcc" x="286.111542" y="101.57466" style="fill: #ff0000; stroke: #ff0000"/>
     <use xlink:href="#m00ce641dcc" x="256.280566" y="179.965127" style="fill: #ff0000; stroke: #ff0000"/>
     <use xlink:href="#m00ce641dcc" x="165.277031" y="88.104398" style="fill: #ff0000; stroke: #ff0000"/>
     <use xlink:href="#m00ce641dcc" x="237.044239" y="156.33482" style="fill: #ff0000; stroke: #ff0000"/>
     <use xlink:href="#m00ce641dcc" x="390.830256" y="132.919814" style="fill: #ff0000; stroke: #ff0000"/>
     <use xlink:href="#m00ce641dcc" x="103.915748" y="173.543223" style="fill: #ff0000; stroke: #ff0000"/>
     <use xlink:href="#m00ce641dcc" x="171.611072" y="125.851914" style="fill: #ff0000; stroke: #ff0000"/>
     <use xlink:href="#m00ce641dcc" x="232.222426" y="154.704936" style="fill: #ff0000; stroke: #ff0000"/>
     <use xlink:href="#m00ce641dcc" x="220.134962" y="232.469044" style="fill: #ff0000; stroke: #ff0000"/>
     <use xlink:href="#m00ce641dcc" x="136.163906" y="210.924365" style="fill: #ff0000; stroke: #ff0000"/>
     <use xlink:href="#m00ce641dcc" x="236.271072" y="154.176213" style="fill: #ff0000; stroke: #ff0000"/>
     <use xlink:href="#m00ce641dcc" x="142.484298" y="165.334437" style="fill: #ff0000; stroke: #ff0000"/>
     <use xlink:href="#m00ce641dcc" x="234.057396" y="149.178114" style="fill: #ff0000; stroke: #ff0000"/>
     <use xlink:href="#m00ce641dcc" x="125.185861" y="236.431829" style="fill: #ff0000; stroke: #ff0000"/>
     <use xlink:href="#m00ce641dcc" x="209.888493" y="179.606003" style="fill: #ff0000; stroke: #ff0000"/>
     <use xlink:href="#m00ce641dcc" x="200.838719" y="208.100764" style="fill: #ff0000; stroke: #ff0000"/>
     <use xlink:href="#m00ce641dcc" x="139.113264" y="132.062373" style="fill: #ff0000; stroke: #ff0000"/>
     <use xlink:href="#m00ce641dcc" x="243.070928" y="162.860159" style="fill: #ff0000; stroke: #ff0000"/>
     <use xlink:href="#m00ce641dcc" x="245.872195" y="198.246133" style="fill: #ff0000; stroke: #ff0000"/>
     <use xlink:href="#m00ce641dcc" x="231.569654" y="156.192137" style="fill: #ff0000; stroke: #ff0000"/>
     <use xlink:href="#m00ce641dcc" x="119.040052" y="145.404686" style="fill: #ff0000; stroke: #ff0000"/>
     <use xlink:href="#m00ce641dcc" x="217.190701" y="172.494038" style="fill: #ff0000; stroke: #ff0000"/>
     <use xlink:href="#m00ce641dcc" x="205.591875" y="101.587659" style="fill: #ff0000; stroke: #ff0000"/>
     <use xlink:href="#m00ce641dcc" x="265.764132" y="177.417606" style="fill: #ff0000; stroke: #ff0000"/>
     <use xlink:href="#m00ce641dcc" x="124.246797" y="146.072017" style="fill: #ff0000; stroke: #ff0000"/>
     <use xlink:href="#m00ce641dcc" x="232.527766" y="153.935471" style="fill: #ff0000; stroke: #ff0000"/>
     <use xlink:href="#m00ce641dcc" x="219.166767" y="234.843367" style="fill: #ff0000; stroke: #ff0000"/>
     <use xlink:href="#m00ce641dcc" x="353.967832" y="206.795907" style="fill: #ff0000; stroke: #ff0000"/>
     <use xlink:href="#m00ce641dcc" x="242.448713" y="155.528544" style="fill: #ff0000; stroke: #ff0000"/>
     <use xlink:href="#m00ce641dcc" x="286.790195" y="233.955824" style="fill: #ff0000; stroke: #ff0000"/>
     <use xlink:href="#m00ce641dcc" x="282.838279" y="131.030399" style="fill: #ff0000; stroke: #ff0000"/>
     <use xlink:href="#m00ce641dcc" x="196.309454" y="175.058651" style="fill: #ff0000; stroke: #ff0000"/>
     <use xlink:href="#m00ce641dcc" x="205.647995" y="189.902619" style="fill: #ff0000; stroke: #ff0000"/>
     <use xlink:href="#m00ce641dcc" x="301.040524" y="96.747138" style="fill: #ff0000; stroke: #ff0000"/>
     <use xlink:href="#m00ce641dcc" x="194.40185" y="195.149626" style="fill: #ff0000; stroke: #ff0000"/>
     <use xlink:href="#m00ce641dcc" x="314.180204" y="203.688579" style="fill: #ff0000; stroke: #ff0000"/>
     <use xlink:href="#m00ce641dcc" x="144.570745" y="126.711973" style="fill: #ff0000; stroke: #ff0000"/>
     <use xlink:href="#m00ce641dcc" x="236.262205" y="154.025593" style="fill: #ff0000; stroke: #ff0000"/>
     <use xlink:href="#m00ce641dcc" x="229.811252" y="181.047726" style="fill: #ff0000; stroke: #ff0000"/>
     <use xlink:href="#m00ce641dcc" x="275.711523" y="218.049441" style="fill: #ff0000; stroke: #ff0000"/>
     <use xlink:href="#m00ce641dcc" x="205.65239" y="196.225963" style="fill: #ff0000; stroke: #ff0000"/>
     <use xlink:href="#m00ce641dcc" x="219.693794" y="175.791479" style="fill: #ff0000; stroke: #ff0000"/>
     <use xlink:href="#m00ce641dcc" x="155.78353" y="212.900651" style="fill: #ff0000; stroke: #ff0000"/>
     <use xlink:href="#m00ce641dcc" x="201.986435" y="169.112942" style="fill: #ff0000; stroke: #ff0000"/>
     <use xlink:href="#m00ce641dcc" x="263.341467" y="134.171252" style="fill: #ff0000; stroke: #ff0000"/>
     <use xlink:href="#m00ce641dcc" x="105.234923" y="151.055575" style="fill: #ff0000; stroke: #ff0000"/>
     <use xlink:href="#m00ce641dcc" x="206.646547" y="101.494115" style="fill: #ff0000; stroke: #ff0000"/>
     <use xlink:href="#m00ce641dcc" x="182.612201" y="179.148237" style="fill: #ff0000; stroke: #ff0000"/>
     <use xlink:href="#m00ce641dcc" x="246.381366" y="182.000654" style="fill: #ff0000; stroke: #ff0000"/>
     <use xlink:href="#m00ce641dcc" x="121.201727" y="140.524625" style="fill: #ff0000; stroke: #ff0000"/>
     <use xlink:href="#m00ce641dcc" x="336.938459" y="184.887003" style="fill: #ff0000; stroke: #ff0000"/>
     <use xlink:href="#m00ce641dcc" x="304.453763" y="167.760639" style="fill: #ff0000; stroke: #ff0000"/>
     <use xlink:href="#m00ce641dcc" x="118.894489" y="177.546915" style="fill: #ff0000; stroke: #ff0000"/>
     <use xlink:href="#m00ce641dcc" x="234.353831" y="175.919206" style="fill: #ff0000; stroke: #ff0000"/>
     <use xlink:href="#m00ce641dcc" x="193.584857" y="161.538206" style="fill: #ff0000; stroke: #ff0000"/>
     <use xlink:href="#m00ce641dcc" x="355.882154" y="149.277699" style="fill: #ff0000; stroke: #ff0000"/>
     <use xlink:href="#m00ce641dcc" x="241.099831" y="155.578106" style="fill: #ff0000; stroke: #ff0000"/>
     <use xlink:href="#m00ce641dcc" x="183.514281" y="134.517613" style="fill: #ff0000; stroke: #ff0000"/>
     <use xlink:href="#m00ce641dcc" x="203.190516" y="110.682942" style="fill: #ff0000; stroke: #ff0000"/>
     <use xlink:href="#m00ce641dcc" x="177.380741" y="151.291998" style="fill: #ff0000; stroke: #ff0000"/>
     <use xlink:href="#m00ce641dcc" x="252.829972" y="179.199007" style="fill: #ff0000; stroke: #ff0000"/>
     <use xlink:href="#m00ce641dcc" x="372.981911" y="161.414192" style="fill: #ff0000; stroke: #ff0000"/>
     <use xlink:href="#m00ce641dcc" x="220.882802" y="146.304756" style="fill: #ff0000; stroke: #ff0000"/>
     <use xlink:href="#m00ce641dcc" x="238.484273" y="193.945549" style="fill: #ff0000; stroke: #ff0000"/>
     <use xlink:href="#m00ce641dcc" x="272.311758" y="149.806948" style="fill: #ff0000; stroke: #ff0000"/>
     <use xlink:href="#m00ce641dcc" x="266.339011" y="135.007875" style="fill: #ff0000; stroke: #ff0000"/>
    </g>
   </g>
   <g id="patch_3">
    <path d="M 71.248438 253.44 
L 71.248438 36 
" style="fill: none; stroke: #000000; stroke-width: 0.8; stroke-linejoin: miter; stroke-linecap: square"/>
   </g>
   <g id="patch_4">
    <path d="M 406.048438 253.44 
L 406.048438 36 
" style="fill: none; stroke: #000000; stroke-width: 0.8; stroke-linejoin: miter; stroke-linecap: square"/>
   </g>
   <g id="patch_5">
    <path d="M 71.248437 253.44 
L 406.048437 253.44 
" style="fill: none; stroke: #000000; stroke-width: 0.8; stroke-linejoin: miter; stroke-linecap: square"/>
   </g>
   <g id="patch_6">
    <path d="M 71.248437 36 
L 406.048437 36 
" style="fill: none; stroke: #000000; stroke-width: 0.8; stroke-linejoin: miter; stroke-linecap: square"/>
   </g>
  </g>
  <g id="text_14">
   <!-- Decoders for 2-D LIF Neurons -->
   <g transform="translate(144.915312 16.318125) scale(0.12 -0.12)">
    <defs>
     <path id="DejaVuSans-44" d="M 1259 4147 
L 1259 519 
L 2022 519 
Q 2988 519 3436 956 
Q 3884 1394 3884 2338 
Q 3884 3275 3436 3711 
Q 2988 4147 2022 4147 
L 1259 4147 
z
M 628 4666 
L 1925 4666 
Q 3281 4666 3915 4102 
Q 4550 3538 4550 2338 
Q 4550 1131 3912 565 
Q 3275 0 1925 0 
L 628 0 
L 628 4666 
z
" transform="scale(0.015625)"/>
     <path id="DejaVuSans-65" d="M 3597 1894 
L 3597 1613 
L 953 1613 
Q 991 1019 1311 708 
Q 1631 397 2203 397 
Q 2534 397 2845 478 
Q 3156 559 3463 722 
L 3463 178 
Q 3153 47 2828 -22 
Q 2503 -91 2169 -91 
Q 1331 -91 842 396 
Q 353 884 353 1716 
Q 353 2575 817 3079 
Q 1281 3584 2069 3584 
Q 2775 3584 3186 3129 
Q 3597 2675 3597 1894 
z
M 3022 2063 
Q 3016 2534 2758 2815 
Q 2500 3097 2075 3097 
Q 1594 3097 1305 2825 
Q 1016 2553 972 2059 
L 3022 2063 
z
" transform="scale(0.015625)"/>
     <path id="DejaVuSans-63" d="M 3122 3366 
L 3122 2828 
Q 2878 2963 2633 3030 
Q 2388 3097 2138 3097 
Q 1578 3097 1268 2742 
Q 959 2388 959 1747 
Q 959 1106 1268 751 
Q 1578 397 2138 397 
Q 2388 397 2633 464 
Q 2878 531 3122 666 
L 3122 134 
Q 2881 22 2623 -34 
Q 2366 -91 2075 -91 
Q 1284 -91 818 406 
Q 353 903 353 1747 
Q 353 2603 823 3093 
Q 1294 3584 2113 3584 
Q 2378 3584 2631 3529 
Q 2884 3475 3122 3366 
z
" transform="scale(0.015625)"/>
     <path id="DejaVuSans-6f" d="M 1959 3097 
Q 1497 3097 1228 2736 
Q 959 2375 959 1747 
Q 959 1119 1226 758 
Q 1494 397 1959 397 
Q 2419 397 2687 759 
Q 2956 1122 2956 1747 
Q 2956 2369 2687 2733 
Q 2419 3097 1959 3097 
z
M 1959 3584 
Q 2709 3584 3137 3096 
Q 3566 2609 3566 1747 
Q 3566 888 3137 398 
Q 2709 -91 1959 -91 
Q 1206 -91 779 398 
Q 353 888 353 1747 
Q 353 2609 779 3096 
Q 1206 3584 1959 3584 
z
" transform="scale(0.015625)"/>
     <path id="DejaVuSans-64" d="M 2906 2969 
L 2906 4863 
L 3481 4863 
L 3481 0 
L 2906 0 
L 2906 525 
Q 2725 213 2448 61 
Q 2172 -91 1784 -91 
Q 1150 -91 751 415 
Q 353 922 353 1747 
Q 353 2572 751 3078 
Q 1150 3584 1784 3584 
Q 2172 3584 2448 3432 
Q 2725 3281 2906 2969 
z
M 947 1747 
Q 947 1113 1208 752 
Q 1469 391 1925 391 
Q 2381 391 2643 752 
Q 2906 1113 2906 1747 
Q 2906 2381 2643 2742 
Q 2381 3103 1925 3103 
Q 1469 3103 1208 2742 
Q 947 2381 947 1747 
z
" transform="scale(0.015625)"/>
     <path id="DejaVuSans-72" d="M 2631 2963 
Q 2534 3019 2420 3045 
Q 2306 3072 2169 3072 
Q 1681 3072 1420 2755 
Q 1159 2438 1159 1844 
L 1159 0 
L 581 0 
L 581 3500 
L 1159 3500 
L 1159 2956 
Q 1341 3275 1631 3429 
Q 1922 3584 2338 3584 
Q 2397 3584 2469 3576 
Q 2541 3569 2628 3553 
L 2631 2963 
z
" transform="scale(0.015625)"/>
     <path id="DejaVuSans-73" d="M 2834 3397 
L 2834 2853 
Q 2591 2978 2328 3040 
Q 2066 3103 1784 3103 
Q 1356 3103 1142 2972 
Q 928 2841 928 2578 
Q 928 2378 1081 2264 
Q 1234 2150 1697 2047 
L 1894 2003 
Q 2506 1872 2764 1633 
Q 3022 1394 3022 966 
Q 3022 478 2636 193 
Q 2250 -91 1575 -91 
Q 1294 -91 989 -36 
Q 684 19 347 128 
L 347 722 
Q 666 556 975 473 
Q 1284 391 1588 391 
Q 1994 391 2212 530 
Q 2431 669 2431 922 
Q 2431 1156 2273 1281 
Q 2116 1406 1581 1522 
L 1381 1569 
Q 847 1681 609 1914 
Q 372 2147 372 2553 
Q 372 3047 722 3315 
Q 1072 3584 1716 3584 
Q 2034 3584 2315 3537 
Q 2597 3491 2834 3397 
z
" transform="scale(0.015625)"/>
     <path id="DejaVuSans-20" transform="scale(0.015625)"/>
     <path id="DejaVuSans-66" d="M 2375 4863 
L 2375 4384 
L 1825 4384 
Q 1516 4384 1395 4259 
Q 1275 4134 1275 3809 
L 1275 3500 
L 2222 3500 
L 2222 3053 
L 1275 3053 
L 1275 0 
L 697 0 
L 697 3053 
L 147 3053 
L 147 3500 
L 697 3500 
L 697 3744 
Q 697 4328 969 4595 
Q 1241 4863 1831 4863 
L 2375 4863 
z
" transform="scale(0.015625)"/>
     <path id="DejaVuSans-2d" d="M 313 2009 
L 1997 2009 
L 1997 1497 
L 313 1497 
L 313 2009 
z
" transform="scale(0.015625)"/>
     <path id="DejaVuSans-4c" d="M 628 4666 
L 1259 4666 
L 1259 531 
L 3531 531 
L 3531 0 
L 628 0 
L 628 4666 
z
" transform="scale(0.015625)"/>
     <path id="DejaVuSans-49" d="M 628 4666 
L 1259 4666 
L 1259 0 
L 628 0 
L 628 4666 
z
" transform="scale(0.015625)"/>
     <path id="DejaVuSans-46" d="M 628 4666 
L 3309 4666 
L 3309 4134 
L 1259 4134 
L 1259 2759 
L 3109 2759 
L 3109 2228 
L 1259 2228 
L 1259 0 
L 628 0 
L 628 4666 
z
" transform="scale(0.015625)"/>
     <path id="DejaVuSans-4e" d="M 628 4666 
L 1478 4666 
L 3547 763 
L 3547 4666 
L 4159 4666 
L 4159 0 
L 3309 0 
L 1241 3903 
L 1241 0 
L 628 0 
L 628 4666 
z
" transform="scale(0.015625)"/>
     <path id="DejaVuSans-75" d="M 544 1381 
L 544 3500 
L 1119 3500 
L 1119 1403 
Q 1119 906 1312 657 
Q 1506 409 1894 409 
Q 2359 409 2629 706 
Q 2900 1003 2900 1516 
L 2900 3500 
L 3475 3500 
L 3475 0 
L 2900 0 
L 2900 538 
Q 2691 219 2414 64 
Q 2138 -91 1772 -91 
Q 1169 -91 856 284 
Q 544 659 544 1381 
z
M 1991 3584 
L 1991 3584 
z
" transform="scale(0.015625)"/>
     <path id="DejaVuSans-6e" d="M 3513 2113 
L 3513 0 
L 2938 0 
L 2938 2094 
Q 2938 2591 2744 2837 
Q 2550 3084 2163 3084 
Q 1697 3084 1428 2787 
Q 1159 2491 1159 1978 
L 1159 0 
L 581 0 
L 581 3500 
L 1159 3500 
L 1159 2956 
Q 1366 3272 1645 3428 
Q 1925 3584 2291 3584 
Q 2894 3584 3203 3211 
Q 3513 2838 3513 2113 
z
" transform="scale(0.015625)"/>
    </defs>
    <use xlink:href="#DejaVuSans-44"/>
    <use xlink:href="#DejaVuSans-65" x="77.001953"/>
    <use xlink:href="#DejaVuSans-63" x="138.525391"/>
    <use xlink:href="#DejaVuSans-6f" x="193.505859"/>
    <use xlink:href="#DejaVuSans-64" x="254.6875"/>
    <use xlink:href="#DejaVuSans-65" x="318.164062"/>
    <use xlink:href="#DejaVuSans-72" x="379.6875"/>
    <use xlink:href="#DejaVuSans-73" x="420.800781"/>
    <use xlink:href="#DejaVuSans-20" x="472.900391"/>
    <use xlink:href="#DejaVuSans-66" x="504.6875"/>
    <use xlink:href="#DejaVuSans-6f" x="539.892578"/>
    <use xlink:href="#DejaVuSans-72" x="601.074219"/>
    <use xlink:href="#DejaVuSans-20" x="642.1875"/>
    <use xlink:href="#DejaVuSans-32" x="673.974609"/>
    <use xlink:href="#DejaVuSans-2d" x="737.597656"/>
    <use xlink:href="#DejaVuSans-44" x="773.681641"/>
    <use xlink:href="#DejaVuSans-20" x="850.683594"/>
    <use xlink:href="#DejaVuSans-4c" x="882.470703"/>
    <use xlink:href="#DejaVuSans-49" x="938.183594"/>
    <use xlink:href="#DejaVuSans-46" x="967.675781"/>
    <use xlink:href="#DejaVuSans-20" x="1025.195312"/>
    <use xlink:href="#DejaVuSans-4e" x="1056.982422"/>
    <use xlink:href="#DejaVuSans-65" x="1131.787109"/>
    <use xlink:href="#DejaVuSans-75" x="1193.310547"/>
    <use xlink:href="#DejaVuSans-72" x="1256.689453"/>
    <use xlink:href="#DejaVuSans-6f" x="1295.552734"/>
    <use xlink:href="#DejaVuSans-6e" x="1356.734375"/>
    <use xlink:href="#DejaVuSans-73" x="1420.113281"/>
   </g>
  </g>
 </g>
 <defs>
  <clipPath id="p187c3242ab">
   <rect x="71.248438" y="36" width="334.8" height="217.44"/>
  </clipPath>
 </defs>
</svg>
