<?xml version="1.0" encoding="utf-8" standalone="no"?>
<!DOCTYPE svg PUBLIC "-//W3C//DTD SVG 1.1//EN"
  "http://www.w3.org/Graphics/SVG/1.1/DTD/svg11.dtd">
<svg xmlns:xlink="http://www.w3.org/1999/xlink" width="388.965625pt" height="290.99625pt" viewBox="0 0 388.965625 290.99625" xmlns="http://www.w3.org/2000/svg" version="1.1">
 <metadata>
  <rdf:RDF xmlns:dc="http://purl.org/dc/elements/1.1/" xmlns:cc="http://creativecommons.org/ns#" xmlns:rdf="http://www.w3.org/1999/02/22-rdf-syntax-ns#">
   <cc:Work>
    <dc:type rdf:resource="http://purl.org/dc/dcmitype/StillImage"/>
    <dc:date>2022-09-28T18:49:57.942450</dc:date>
    <dc:format>image/svg+xml</dc:format>
    <dc:creator>
     <cc:Agent>
      <dc:title>Matplotlib v3.6.0, https://matplotlib.org/</dc:title>
     </cc:Agent>
    </dc:creator>
   </cc:Work>
  </rdf:RDF>
 </metadata>
 <defs>
  <style type="text/css">*{stroke-linejoin: round; stroke-linecap: butt}</style>
 </defs>
 <g id="figure_1">
  <g id="patch_1">
   <path d="M 0 290.99625 
L 388.965625 290.99625 
L 388.965625 0 
L 0 0 
L 0 290.99625 
z
" style="fill: none"/>
  </g>
  <g id="axes_1">
   <g id="patch_2">
    <path d="M 46.965625 253.44 
L 381.765625 253.44 
L 381.765625 36 
L 46.965625 36 
z
" style="fill: #ffffff"/>
   </g>
   <g id="matplotlib.axis_1">
    <g id="xtick_1">
     <g id="line2d_1">
      <defs>
       <path id="mb5354ea91e" d="M 0 0 
L 0 3.5 
" style="stroke: #000000; stroke-width: 0.8"/>
      </defs>
      <g>
       <use xlink:href="#mb5354ea91e" x="62.183807" y="253.44" style="stroke: #000000; stroke-width: 0.8"/>
      </g>
     </g>
     <g id="text_1">
      <!-- −1.00 -->
      <g transform="translate(46.861151 268.038437) scale(0.1 -0.1)">
       <defs>
        <path id="DejaVuSans-2212" d="M 678 2272 
L 4684 2272 
L 4684 1741 
L 678 1741 
L 678 2272 
z
" transform="scale(0.015625)"/>
        <path id="DejaVuSans-31" d="M 794 531 
L 1825 531 
L 1825 4091 
L 703 3866 
L 703 4441 
L 1819 4666 
L 2450 4666 
L 2450 531 
L 3481 531 
L 3481 0 
L 794 0 
L 794 531 
z
" transform="scale(0.015625)"/>
        <path id="DejaVuSans-2e" d="M 684 794 
L 1344 794 
L 1344 0 
L 684 0 
L 684 794 
z
" transform="scale(0.015625)"/>
        <path id="DejaVuSans-30" d="M 2034 4250 
Q 1547 4250 1301 3770 
Q 1056 3291 1056 2328 
Q 1056 1369 1301 889 
Q 1547 409 2034 409 
Q 2525 409 2770 889 
Q 3016 1369 3016 2328 
Q 3016 3291 2770 3770 
Q 2525 4250 2034 4250 
z
M 2034 4750 
Q 2819 4750 3233 4129 
Q 3647 3509 3647 2328 
Q 3647 1150 3233 529 
Q 2819 -91 2034 -91 
Q 1250 -91 836 529 
Q 422 1150 422 2328 
Q 422 3509 836 4129 
Q 1250 4750 2034 4750 
z
" transform="scale(0.015625)"/>
       </defs>
       <use xlink:href="#DejaVuSans-2212"/>
       <use xlink:href="#DejaVuSans-31" x="83.789062"/>
       <use xlink:href="#DejaVuSans-2e" x="147.412109"/>
       <use xlink:href="#DejaVuSans-30" x="179.199219"/>
       <use xlink:href="#DejaVuSans-30" x="242.822266"/>
      </g>
     </g>
    </g>
    <g id="xtick_2">
     <g id="line2d_2">
      <g>
       <use xlink:href="#mb5354ea91e" x="100.229261" y="253.44" style="stroke: #000000; stroke-width: 0.8"/>
      </g>
     </g>
     <g id="text_2">
      <!-- −0.75 -->
      <g transform="translate(84.906605 268.038437) scale(0.1 -0.1)">
       <defs>
        <path id="DejaVuSans-37" d="M 525 4666 
L 3525 4666 
L 3525 4397 
L 1831 0 
L 1172 0 
L 2766 4134 
L 525 4134 
L 525 4666 
z
" transform="scale(0.015625)"/>
        <path id="DejaVuSans-35" d="M 691 4666 
L 3169 4666 
L 3169 4134 
L 1269 4134 
L 1269 2991 
Q 1406 3038 1543 3061 
Q 1681 3084 1819 3084 
Q 2600 3084 3056 2656 
Q 3513 2228 3513 1497 
Q 3513 744 3044 326 
Q 2575 -91 1722 -91 
Q 1428 -91 1123 -41 
Q 819 9 494 109 
L 494 744 
Q 775 591 1075 516 
Q 1375 441 1709 441 
Q 2250 441 2565 725 
Q 2881 1009 2881 1497 
Q 2881 1984 2565 2268 
Q 2250 2553 1709 2553 
Q 1456 2553 1204 2497 
Q 953 2441 691 2322 
L 691 4666 
z
" transform="scale(0.015625)"/>
       </defs>
       <use xlink:href="#DejaVuSans-2212"/>
       <use xlink:href="#DejaVuSans-30" x="83.789062"/>
       <use xlink:href="#DejaVuSans-2e" x="147.412109"/>
       <use xlink:href="#DejaVuSans-37" x="179.199219"/>
       <use xlink:href="#DejaVuSans-35" x="242.822266"/>
      </g>
     </g>
    </g>
    <g id="xtick_3">
     <g id="line2d_3">
      <g>
       <use xlink:href="#mb5354ea91e" x="138.274716" y="253.44" style="stroke: #000000; stroke-width: 0.8"/>
      </g>
     </g>
     <g id="text_3">
      <!-- −0.50 -->
      <g transform="translate(122.95206 268.038437) scale(0.1 -0.1)">
       <use xlink:href="#DejaVuSans-2212"/>
       <use xlink:href="#DejaVuSans-30" x="83.789062"/>
       <use xlink:href="#DejaVuSans-2e" x="147.412109"/>
       <use xlink:href="#DejaVuSans-35" x="179.199219"/>
       <use xlink:href="#DejaVuSans-30" x="242.822266"/>
      </g>
     </g>
    </g>
    <g id="xtick_4">
     <g id="line2d_4">
      <g>
       <use xlink:href="#mb5354ea91e" x="176.32017" y="253.44" style="stroke: #000000; stroke-width: 0.8"/>
      </g>
     </g>
     <g id="text_4">
      <!-- −0.25 -->
      <g transform="translate(160.997514 268.038437) scale(0.1 -0.1)">
       <defs>
        <path id="DejaVuSans-32" d="M 1228 531 
L 3431 531 
L 3431 0 
L 469 0 
L 469 531 
Q 828 903 1448 1529 
Q 2069 2156 2228 2338 
Q 2531 2678 2651 2914 
Q 2772 3150 2772 3378 
Q 2772 3750 2511 3984 
Q 2250 4219 1831 4219 
Q 1534 4219 1204 4116 
Q 875 4013 500 3803 
L 500 4441 
Q 881 4594 1212 4672 
Q 1544 4750 1819 4750 
Q 2544 4750 2975 4387 
Q 3406 4025 3406 3419 
Q 3406 3131 3298 2873 
Q 3191 2616 2906 2266 
Q 2828 2175 2409 1742 
Q 1991 1309 1228 531 
z
" transform="scale(0.015625)"/>
       </defs>
       <use xlink:href="#DejaVuSans-2212"/>
       <use xlink:href="#DejaVuSans-30" x="83.789062"/>
       <use xlink:href="#DejaVuSans-2e" x="147.412109"/>
       <use xlink:href="#DejaVuSans-32" x="179.199219"/>
       <use xlink:href="#DejaVuSans-35" x="242.822266"/>
      </g>
     </g>
    </g>
    <g id="xtick_5">
     <g id="line2d_5">
      <g>
       <use xlink:href="#mb5354ea91e" x="214.365625" y="253.44" style="stroke: #000000; stroke-width: 0.8"/>
      </g>
     </g>
     <g id="text_5">
      <!-- 0.00 -->
      <g transform="translate(203.232813 268.038437) scale(0.1 -0.1)">
       <use xlink:href="#DejaVuSans-30"/>
       <use xlink:href="#DejaVuSans-2e" x="63.623047"/>
       <use xlink:href="#DejaVuSans-30" x="95.410156"/>
       <use xlink:href="#DejaVuSans-30" x="159.033203"/>
      </g>
     </g>
    </g>
    <g id="xtick_6">
     <g id="line2d_6">
      <g>
       <use xlink:href="#mb5354ea91e" x="252.41108" y="253.44" style="stroke: #000000; stroke-width: 0.8"/>
      </g>
     </g>
     <g id="text_6">
      <!-- 0.25 -->
      <g transform="translate(241.278267 268.038437) scale(0.1 -0.1)">
       <use xlink:href="#DejaVuSans-30"/>
       <use xlink:href="#DejaVuSans-2e" x="63.623047"/>
       <use xlink:href="#DejaVuSans-32" x="95.410156"/>
       <use xlink:href="#DejaVuSans-35" x="159.033203"/>
      </g>
     </g>
    </g>
    <g id="xtick_7">
     <g id="line2d_7">
      <g>
       <use xlink:href="#mb5354ea91e" x="290.456534" y="253.44" style="stroke: #000000; stroke-width: 0.8"/>
      </g>
     </g>
     <g id="text_7">
      <!-- 0.50 -->
      <g transform="translate(279.323722 268.038437) scale(0.1 -0.1)">
       <use xlink:href="#DejaVuSans-30"/>
       <use xlink:href="#DejaVuSans-2e" x="63.623047"/>
       <use xlink:href="#DejaVuSans-35" x="95.410156"/>
       <use xlink:href="#DejaVuSans-30" x="159.033203"/>
      </g>
     </g>
    </g>
    <g id="xtick_8">
     <g id="line2d_8">
      <g>
       <use xlink:href="#mb5354ea91e" x="328.501989" y="253.44" style="stroke: #000000; stroke-width: 0.8"/>
      </g>
     </g>
     <g id="text_8">
      <!-- 0.75 -->
      <g transform="translate(317.369176 268.038437) scale(0.1 -0.1)">
       <use xlink:href="#DejaVuSans-30"/>
       <use xlink:href="#DejaVuSans-2e" x="63.623047"/>
       <use xlink:href="#DejaVuSans-37" x="95.410156"/>
       <use xlink:href="#DejaVuSans-35" x="159.033203"/>
      </g>
     </g>
    </g>
    <g id="xtick_9">
     <g id="line2d_9">
      <g>
       <use xlink:href="#mb5354ea91e" x="366.547443" y="253.44" style="stroke: #000000; stroke-width: 0.8"/>
      </g>
     </g>
     <g id="text_9">
      <!-- 1.00 -->
      <g transform="translate(355.414631 268.038437) scale(0.1 -0.1)">
       <use xlink:href="#DejaVuSans-31"/>
       <use xlink:href="#DejaVuSans-2e" x="63.623047"/>
       <use xlink:href="#DejaVuSans-30" x="95.410156"/>
       <use xlink:href="#DejaVuSans-30" x="159.033203"/>
      </g>
     </g>
    </g>
    <g id="text_10">
     <!-- stimuli $x$ -->
     <g transform="translate(193.015625 281.716562) scale(0.1 -0.1)">
      <defs>
       <path id="DejaVuSans-73" d="M 2834 3397 
L 2834 2853 
Q 2591 2978 2328 3040 
Q 2066 3103 1784 3103 
Q 1356 3103 1142 2972 
Q 928 2841 928 2578 
Q 928 2378 1081 2264 
Q 1234 2150 1697 2047 
L 1894 2003 
Q 2506 1872 2764 1633 
Q 3022 1394 3022 966 
Q 3022 478 2636 193 
Q 2250 -91 1575 -91 
Q 1294 -91 989 -36 
Q 684 19 347 128 
L 347 722 
Q 666 556 975 473 
Q 1284 391 1588 391 
Q 1994 391 2212 530 
Q 2431 669 2431 922 
Q 2431 1156 2273 1281 
Q 2116 1406 1581 1522 
L 1381 1569 
Q 847 1681 609 1914 
Q 372 2147 372 2553 
Q 372 3047 722 3315 
Q 1072 3584 1716 3584 
Q 2034 3584 2315 3537 
Q 2597 3491 2834 3397 
z
" transform="scale(0.015625)"/>
       <path id="DejaVuSans-74" d="M 1172 4494 
L 1172 3500 
L 2356 3500 
L 2356 3053 
L 1172 3053 
L 1172 1153 
Q 1172 725 1289 603 
Q 1406 481 1766 481 
L 2356 481 
L 2356 0 
L 1766 0 
Q 1100 0 847 248 
Q 594 497 594 1153 
L 594 3053 
L 172 3053 
L 172 3500 
L 594 3500 
L 594 4494 
L 1172 4494 
z
" transform="scale(0.015625)"/>
       <path id="DejaVuSans-69" d="M 603 3500 
L 1178 3500 
L 1178 0 
L 603 0 
L 603 3500 
z
M 603 4863 
L 1178 4863 
L 1178 4134 
L 603 4134 
L 603 4863 
z
" transform="scale(0.015625)"/>
       <path id="DejaVuSans-6d" d="M 3328 2828 
Q 3544 3216 3844 3400 
Q 4144 3584 4550 3584 
Q 5097 3584 5394 3201 
Q 5691 2819 5691 2113 
L 5691 0 
L 5113 0 
L 5113 2094 
Q 5113 2597 4934 2840 
Q 4756 3084 4391 3084 
Q 3944 3084 3684 2787 
Q 3425 2491 3425 1978 
L 3425 0 
L 2847 0 
L 2847 2094 
Q 2847 2600 2669 2842 
Q 2491 3084 2119 3084 
Q 1678 3084 1418 2786 
Q 1159 2488 1159 1978 
L 1159 0 
L 581 0 
L 581 3500 
L 1159 3500 
L 1159 2956 
Q 1356 3278 1631 3431 
Q 1906 3584 2284 3584 
Q 2666 3584 2933 3390 
Q 3200 3197 3328 2828 
z
" transform="scale(0.015625)"/>
       <path id="DejaVuSans-75" d="M 544 1381 
L 544 3500 
L 1119 3500 
L 1119 1403 
Q 1119 906 1312 657 
Q 1506 409 1894 409 
Q 2359 409 2629 706 
Q 2900 1003 2900 1516 
L 2900 3500 
L 3475 3500 
L 3475 0 
L 2900 0 
L 2900 538 
Q 2691 219 2414 64 
Q 2138 -91 1772 -91 
Q 1169 -91 856 284 
Q 544 659 544 1381 
z
M 1991 3584 
L 1991 3584 
z
" transform="scale(0.015625)"/>
       <path id="DejaVuSans-6c" d="M 603 4863 
L 1178 4863 
L 1178 0 
L 603 0 
L 603 4863 
z
" transform="scale(0.015625)"/>
       <path id="DejaVuSans-20" transform="scale(0.015625)"/>
       <path id="DejaVuSans-Oblique-78" d="M 3841 3500 
L 2234 1784 
L 3219 0 
L 2559 0 
L 1819 1388 
L 531 0 
L -166 0 
L 1556 1844 
L 641 3500 
L 1300 3500 
L 1972 2234 
L 3144 3500 
L 3841 3500 
z
" transform="scale(0.015625)"/>
      </defs>
      <use xlink:href="#DejaVuSans-73" transform="translate(0 0.015625)"/>
      <use xlink:href="#DejaVuSans-74" transform="translate(52.099609 0.015625)"/>
      <use xlink:href="#DejaVuSans-69" transform="translate(91.308594 0.015625)"/>
      <use xlink:href="#DejaVuSans-6d" transform="translate(119.091797 0.015625)"/>
      <use xlink:href="#DejaVuSans-75" transform="translate(216.503906 0.015625)"/>
      <use xlink:href="#DejaVuSans-6c" transform="translate(279.882812 0.015625)"/>
      <use xlink:href="#DejaVuSans-69" transform="translate(307.666016 0.015625)"/>
      <use xlink:href="#DejaVuSans-20" transform="translate(335.449219 0.015625)"/>
      <use xlink:href="#DejaVuSans-Oblique-78" transform="translate(367.236328 0.015625)"/>
     </g>
    </g>
   </g>
   <g id="matplotlib.axis_2">
    <g id="ytick_1">
     <g id="line2d_10">
      <defs>
       <path id="mfcb3d48f7f" d="M 0 0 
L -3.5 0 
" style="stroke: #000000; stroke-width: 0.8"/>
      </defs>
      <g>
       <use xlink:href="#mfcb3d48f7f" x="46.965625" y="243.556364" style="stroke: #000000; stroke-width: 0.8"/>
      </g>
     </g>
     <g id="text_11">
      <!-- 0 -->
      <g transform="translate(33.603125 247.355582) scale(0.1 -0.1)">
       <use xlink:href="#DejaVuSans-30"/>
      </g>
     </g>
    </g>
    <g id="ytick_2">
     <g id="line2d_11">
      <g>
       <use xlink:href="#mfcb3d48f7f" x="46.965625" y="218.531815" style="stroke: #000000; stroke-width: 0.8"/>
      </g>
     </g>
     <g id="text_12">
      <!-- 25 -->
      <g transform="translate(27.240625 222.331034) scale(0.1 -0.1)">
       <use xlink:href="#DejaVuSans-32"/>
       <use xlink:href="#DejaVuSans-35" x="63.623047"/>
      </g>
     </g>
    </g>
    <g id="ytick_3">
     <g id="line2d_12">
      <g>
       <use xlink:href="#mfcb3d48f7f" x="46.965625" y="193.507266" style="stroke: #000000; stroke-width: 0.8"/>
      </g>
     </g>
     <g id="text_13">
      <!-- 50 -->
      <g transform="translate(27.240625 197.306485) scale(0.1 -0.1)">
       <use xlink:href="#DejaVuSans-35"/>
       <use xlink:href="#DejaVuSans-30" x="63.623047"/>
      </g>
     </g>
    </g>
    <g id="ytick_4">
     <g id="line2d_13">
      <g>
       <use xlink:href="#mfcb3d48f7f" x="46.965625" y="168.482718" style="stroke: #000000; stroke-width: 0.8"/>
      </g>
     </g>
     <g id="text_14">
      <!-- 75 -->
      <g transform="translate(27.240625 172.281937) scale(0.1 -0.1)">
       <use xlink:href="#DejaVuSans-37"/>
       <use xlink:href="#DejaVuSans-35" x="63.623047"/>
      </g>
     </g>
    </g>
    <g id="ytick_5">
     <g id="line2d_14">
      <g>
       <use xlink:href="#mfcb3d48f7f" x="46.965625" y="143.458169" style="stroke: #000000; stroke-width: 0.8"/>
      </g>
     </g>
     <g id="text_15">
      <!-- 100 -->
      <g transform="translate(20.878125 147.257388) scale(0.1 -0.1)">
       <use xlink:href="#DejaVuSans-31"/>
       <use xlink:href="#DejaVuSans-30" x="63.623047"/>
       <use xlink:href="#DejaVuSans-30" x="127.246094"/>
      </g>
     </g>
    </g>
    <g id="ytick_6">
     <g id="line2d_15">
      <g>
       <use xlink:href="#mfcb3d48f7f" x="46.965625" y="118.433621" style="stroke: #000000; stroke-width: 0.8"/>
      </g>
     </g>
     <g id="text_16">
      <!-- 125 -->
      <g transform="translate(20.878125 122.23284) scale(0.1 -0.1)">
       <use xlink:href="#DejaVuSans-31"/>
       <use xlink:href="#DejaVuSans-32" x="63.623047"/>
       <use xlink:href="#DejaVuSans-35" x="127.246094"/>
      </g>
     </g>
    </g>
    <g id="ytick_7">
     <g id="line2d_16">
      <g>
       <use xlink:href="#mfcb3d48f7f" x="46.965625" y="93.409072" style="stroke: #000000; stroke-width: 0.8"/>
      </g>
     </g>
     <g id="text_17">
      <!-- 150 -->
      <g transform="translate(20.878125 97.208291) scale(0.1 -0.1)">
       <use xlink:href="#DejaVuSans-31"/>
       <use xlink:href="#DejaVuSans-35" x="63.623047"/>
       <use xlink:href="#DejaVuSans-30" x="127.246094"/>
      </g>
     </g>
    </g>
    <g id="ytick_8">
     <g id="line2d_17">
      <g>
       <use xlink:href="#mfcb3d48f7f" x="46.965625" y="68.384524" style="stroke: #000000; stroke-width: 0.8"/>
      </g>
     </g>
     <g id="text_18">
      <!-- 175 -->
      <g transform="translate(20.878125 72.183742) scale(0.1 -0.1)">
       <use xlink:href="#DejaVuSans-31"/>
       <use xlink:href="#DejaVuSans-37" x="63.623047"/>
       <use xlink:href="#DejaVuSans-35" x="127.246094"/>
      </g>
     </g>
    </g>
    <g id="ytick_9">
     <g id="line2d_18">
      <g>
       <use xlink:href="#mfcb3d48f7f" x="46.965625" y="43.359975" style="stroke: #000000; stroke-width: 0.8"/>
      </g>
     </g>
     <g id="text_19">
      <!-- 200 -->
      <g transform="translate(20.878125 47.159194) scale(0.1 -0.1)">
       <use xlink:href="#DejaVuSans-32"/>
       <use xlink:href="#DejaVuSans-30" x="63.623047"/>
       <use xlink:href="#DejaVuSans-30" x="127.246094"/>
      </g>
     </g>
    </g>
    <g id="text_20">
     <!-- rate $a_i(x)$ Hz -->
     <g transform="translate(14.798438 175.52) rotate(-90) scale(0.1 -0.1)">
      <defs>
       <path id="DejaVuSans-72" d="M 2631 2963 
Q 2534 3019 2420 3045 
Q 2306 3072 2169 3072 
Q 1681 3072 1420 2755 
Q 1159 2438 1159 1844 
L 1159 0 
L 581 0 
L 581 3500 
L 1159 3500 
L 1159 2956 
Q 1341 3275 1631 3429 
Q 1922 3584 2338 3584 
Q 2397 3584 2469 3576 
Q 2541 3569 2628 3553 
L 2631 2963 
z
" transform="scale(0.015625)"/>
       <path id="DejaVuSans-61" d="M 2194 1759 
Q 1497 1759 1228 1600 
Q 959 1441 959 1056 
Q 959 750 1161 570 
Q 1363 391 1709 391 
Q 2188 391 2477 730 
Q 2766 1069 2766 1631 
L 2766 1759 
L 2194 1759 
z
M 3341 1997 
L 3341 0 
L 2766 0 
L 2766 531 
Q 2569 213 2275 61 
Q 1981 -91 1556 -91 
Q 1019 -91 701 211 
Q 384 513 384 1019 
Q 384 1609 779 1909 
Q 1175 2209 1959 2209 
L 2766 2209 
L 2766 2266 
Q 2766 2663 2505 2880 
Q 2244 3097 1772 3097 
Q 1472 3097 1187 3025 
Q 903 2953 641 2809 
L 641 3341 
Q 956 3463 1253 3523 
Q 1550 3584 1831 3584 
Q 2591 3584 2966 3190 
Q 3341 2797 3341 1997 
z
" transform="scale(0.015625)"/>
       <path id="DejaVuSans-65" d="M 3597 1894 
L 3597 1613 
L 953 1613 
Q 991 1019 1311 708 
Q 1631 397 2203 397 
Q 2534 397 2845 478 
Q 3156 559 3463 722 
L 3463 178 
Q 3153 47 2828 -22 
Q 2503 -91 2169 -91 
Q 1331 -91 842 396 
Q 353 884 353 1716 
Q 353 2575 817 3079 
Q 1281 3584 2069 3584 
Q 2775 3584 3186 3129 
Q 3597 2675 3597 1894 
z
M 3022 2063 
Q 3016 2534 2758 2815 
Q 2500 3097 2075 3097 
Q 1594 3097 1305 2825 
Q 1016 2553 972 2059 
L 3022 2063 
z
" transform="scale(0.015625)"/>
       <path id="DejaVuSans-Oblique-61" d="M 3438 1997 
L 3047 0 
L 2472 0 
L 2578 531 
Q 2325 219 2001 64 
Q 1678 -91 1281 -91 
Q 834 -91 548 182 
Q 263 456 263 884 
Q 263 1497 752 1853 
Q 1241 2209 2100 2209 
L 2900 2209 
L 2931 2363 
Q 2938 2388 2941 2417 
Q 2944 2447 2944 2509 
Q 2944 2788 2717 2942 
Q 2491 3097 2081 3097 
Q 1800 3097 1504 3025 
Q 1209 2953 897 2809 
L 997 3341 
Q 1322 3463 1633 3523 
Q 1944 3584 2234 3584 
Q 2853 3584 3176 3315 
Q 3500 3047 3500 2534 
Q 3500 2431 3484 2292 
Q 3469 2153 3438 1997 
z
M 2816 1759 
L 2241 1759 
Q 1534 1759 1195 1570 
Q 856 1381 856 984 
Q 856 709 1029 553 
Q 1203 397 1509 397 
Q 1978 397 2328 733 
Q 2678 1069 2791 1631 
L 2816 1759 
z
" transform="scale(0.015625)"/>
       <path id="DejaVuSans-Oblique-69" d="M 1172 4863 
L 1747 4863 
L 1606 4134 
L 1031 4134 
L 1172 4863 
z
M 909 3500 
L 1484 3500 
L 800 0 
L 225 0 
L 909 3500 
z
" transform="scale(0.015625)"/>
       <path id="DejaVuSans-28" d="M 1984 4856 
Q 1566 4138 1362 3434 
Q 1159 2731 1159 2009 
Q 1159 1288 1364 580 
Q 1569 -128 1984 -844 
L 1484 -844 
Q 1016 -109 783 600 
Q 550 1309 550 2009 
Q 550 2706 781 3412 
Q 1013 4119 1484 4856 
L 1984 4856 
z
" transform="scale(0.015625)"/>
       <path id="DejaVuSans-29" d="M 513 4856 
L 1013 4856 
Q 1481 4119 1714 3412 
Q 1947 2706 1947 2009 
Q 1947 1309 1714 600 
Q 1481 -109 1013 -844 
L 513 -844 
Q 928 -128 1133 580 
Q 1338 1288 1338 2009 
Q 1338 2731 1133 3434 
Q 928 4138 513 4856 
z
" transform="scale(0.015625)"/>
       <path id="DejaVuSans-48" d="M 628 4666 
L 1259 4666 
L 1259 2753 
L 3553 2753 
L 3553 4666 
L 4184 4666 
L 4184 0 
L 3553 0 
L 3553 2222 
L 1259 2222 
L 1259 0 
L 628 0 
L 628 4666 
z
" transform="scale(0.015625)"/>
       <path id="DejaVuSans-7a" d="M 353 3500 
L 3084 3500 
L 3084 2975 
L 922 459 
L 3084 459 
L 3084 0 
L 275 0 
L 275 525 
L 2438 3041 
L 353 3041 
L 353 3500 
z
" transform="scale(0.015625)"/>
      </defs>
      <use xlink:href="#DejaVuSans-72" transform="translate(0 0.125)"/>
      <use xlink:href="#DejaVuSans-61" transform="translate(41.113281 0.125)"/>
      <use xlink:href="#DejaVuSans-74" transform="translate(102.392578 0.125)"/>
      <use xlink:href="#DejaVuSans-65" transform="translate(141.601562 0.125)"/>
      <use xlink:href="#DejaVuSans-20" transform="translate(203.125 0.125)"/>
      <use xlink:href="#DejaVuSans-Oblique-61" transform="translate(234.912109 0.125)"/>
      <use xlink:href="#DejaVuSans-Oblique-69" transform="translate(296.191406 -16.28125) scale(0.7)"/>
      <use xlink:href="#DejaVuSans-28" transform="translate(318.374023 0.125)"/>
      <use xlink:href="#DejaVuSans-Oblique-78" transform="translate(357.387695 0.125)"/>
      <use xlink:href="#DejaVuSans-29" transform="translate(416.567383 0.125)"/>
      <use xlink:href="#DejaVuSans-20" transform="translate(455.581055 0.125)"/>
      <use xlink:href="#DejaVuSans-48" transform="translate(487.368164 0.125)"/>
      <use xlink:href="#DejaVuSans-7a" transform="translate(562.563477 0.125)"/>
     </g>
    </g>
   </g>
   <g id="line2d_19">
    <path d="M 62.183807 243.556364 
L 69.792898 243.556364 
L 77.401989 243.556364 
L 85.01108 243.556364 
L 92.62017 243.556364 
L 100.229261 243.556364 
L 107.838352 243.556364 
L 115.447443 243.556364 
L 123.056534 243.556364 
L 130.665625 243.556364 
L 138.274716 243.556364 
L 145.883807 243.556364 
L 153.492898 243.556364 
L 161.101989 243.556364 
L 168.71108 243.556364 
L 176.32017 243.556364 
L 183.929261 243.556364 
L 191.538352 243.556364 
L 199.147443 243.556364 
L 206.756534 242.113017 
L 214.365625 235.093577 
L 221.974716 228.074137 
L 229.583807 221.054697 
L 237.192898 214.035257 
L 244.801989 207.015817 
L 252.41108 199.996377 
L 260.02017 192.976937 
L 267.629261 185.957497 
L 275.238352 178.938057 
L 282.847443 171.918617 
L 290.456534 164.899176 
L 298.065625 157.879736 
L 305.674716 150.860296 
L 313.283807 143.840856 
L 320.892898 136.821416 
L 328.501989 129.801976 
L 336.11108 122.782536 
L 343.72017 115.763096 
L 351.329261 108.743656 
L 358.938352 101.724216 
L 366.547443 94.704776 
" clip-path="url(#p5790cc165b)" style="fill: none; stroke: #1f77b4; stroke-width: 1.5; stroke-linecap: square"/>
   </g>
   <g id="line2d_20">
    <path d="M 62.183807 243.556364 
L 69.792898 243.556364 
L 77.401989 243.556364 
L 85.01108 243.556364 
L 92.62017 243.556364 
L 100.229261 243.556364 
L 107.838352 243.556364 
L 115.447443 243.556364 
L 123.056534 243.556364 
L 130.665625 243.556364 
L 138.274716 243.556364 
L 145.883807 243.556364 
L 153.492898 243.556364 
L 161.101989 243.556364 
L 168.71108 243.556364 
L 176.32017 243.556364 
L 183.929261 243.556364 
L 191.538352 243.556364 
L 199.147443 243.556364 
L 206.756534 243.556364 
L 214.365625 238.497822 
L 221.974716 228.867113 
L 229.583807 219.236403 
L 237.192898 209.605694 
L 244.801989 199.974985 
L 252.41108 190.344275 
L 260.02017 180.713566 
L 267.629261 171.082857 
L 275.238352 161.452148 
L 282.847443 151.821438 
L 290.456534 142.190729 
L 298.065625 132.56002 
L 305.674716 122.929311 
L 313.283807 113.298601 
L 320.892898 103.667892 
L 328.501989 94.037183 
L 336.11108 84.406473 
L 343.72017 74.775764 
L 351.329261 65.145055 
L 358.938352 55.514346 
L 366.547443 45.883636 
" clip-path="url(#p5790cc165b)" style="fill: none; stroke: #ff7f0e; stroke-width: 1.5; stroke-linecap: square"/>
   </g>
   <g id="line2d_21">
    <path d="M 62.183807 78.295706 
L 69.792898 90.959493 
L 77.401989 103.623281 
L 85.01108 116.287068 
L 92.62017 128.950855 
L 100.229261 141.614643 
L 107.838352 154.27843 
L 115.447443 166.942217 
L 123.056534 179.606004 
L 130.665625 192.269792 
L 138.274716 204.933579 
L 145.883807 217.597366 
L 153.492898 230.261154 
L 161.101989 242.924941 
L 168.71108 243.556364 
L 176.32017 243.556364 
L 183.929261 243.556364 
L 191.538352 243.556364 
L 199.147443 243.556364 
L 206.756534 243.556364 
L 214.365625 243.556364 
L 221.974716 243.556364 
L 229.583807 243.556364 
L 237.192898 243.556364 
L 244.801989 243.556364 
L 252.41108 243.556364 
L 260.02017 243.556364 
L 267.629261 243.556364 
L 275.238352 243.556364 
L 282.847443 243.556364 
L 290.456534 243.556364 
L 298.065625 243.556364 
L 305.674716 243.556364 
L 313.283807 243.556364 
L 320.892898 243.556364 
L 328.501989 243.556364 
L 336.11108 243.556364 
L 343.72017 243.556364 
L 351.329261 243.556364 
L 358.938352 243.556364 
L 366.547443 243.556364 
" clip-path="url(#p5790cc165b)" style="fill: none; stroke: #2ca02c; stroke-width: 1.5; stroke-linecap: square"/>
   </g>
   <g id="line2d_22">
    <path d="M 62.183807 63.590063 
L 69.792898 69.494602 
L 77.401989 75.399141 
L 85.01108 81.30368 
L 92.62017 87.208219 
L 100.229261 93.112758 
L 107.838352 99.017297 
L 115.447443 104.921836 
L 123.056534 110.826375 
L 130.665625 116.730914 
L 138.274716 122.635453 
L 145.883807 128.539992 
L 153.492898 134.444531 
L 161.101989 140.349069 
L 168.71108 146.253608 
L 176.32017 152.158147 
L 183.929261 158.062686 
L 191.538352 163.967225 
L 199.147443 169.871764 
L 206.756534 175.776303 
L 214.365625 181.680842 
L 221.974716 187.585381 
L 229.583807 193.48992 
L 237.192898 199.394459 
L 244.801989 205.298998 
L 252.41108 211.203537 
L 260.02017 217.108076 
L 267.629261 223.012615 
L 275.238352 228.917154 
L 282.847443 234.821693 
L 290.456534 240.726232 
L 298.065625 243.556364 
L 305.674716 243.556364 
L 313.283807 243.556364 
L 320.892898 243.556364 
L 328.501989 243.556364 
L 336.11108 243.556364 
L 343.72017 243.556364 
L 351.329261 243.556364 
L 358.938352 243.556364 
L 366.547443 243.556364 
" clip-path="url(#p5790cc165b)" style="fill: none; stroke: #d62728; stroke-width: 1.5; stroke-linecap: square"/>
   </g>
   <g id="line2d_23">
    <path d="M 62.183807 243.556364 
L 69.792898 243.556364 
L 77.401989 243.556364 
L 85.01108 243.556364 
L 92.62017 243.556364 
L 100.229261 243.556364 
L 107.838352 242.136425 
L 115.447443 236.561475 
L 123.056534 230.986525 
L 130.665625 225.411575 
L 138.274716 219.836624 
L 145.883807 214.261674 
L 153.492898 208.686724 
L 161.101989 203.111774 
L 168.71108 197.536824 
L 176.32017 191.961873 
L 183.929261 186.386923 
L 191.538352 180.811973 
L 199.147443 175.237023 
L 206.756534 169.662072 
L 214.365625 164.087122 
L 221.974716 158.512172 
L 229.583807 152.937222 
L 237.192898 147.362271 
L 244.801989 141.787321 
L 252.41108 136.212371 
L 260.02017 130.637421 
L 267.629261 125.06247 
L 275.238352 119.48752 
L 282.847443 113.91257 
L 290.456534 108.33762 
L 298.065625 102.762669 
L 305.674716 97.187719 
L 313.283807 91.612769 
L 320.892898 86.037819 
L 328.501989 80.462868 
L 336.11108 74.887918 
L 343.72017 69.312968 
L 351.329261 63.738018 
L 358.938352 58.163068 
L 366.547443 52.588117 
" clip-path="url(#p5790cc165b)" style="fill: none; stroke: #9467bd; stroke-width: 1.5; stroke-linecap: square"/>
   </g>
   <g id="line2d_24">
    <path d="M 62.183807 243.556364 
L 69.792898 243.556364 
L 77.401989 243.556364 
L 85.01108 243.556364 
L 92.62017 243.556364 
L 100.229261 243.556364 
L 107.838352 243.556364 
L 115.447443 243.556364 
L 123.056534 243.556364 
L 130.665625 243.556364 
L 138.274716 243.556364 
L 145.883807 243.556364 
L 153.492898 243.556364 
L 161.101989 243.556364 
L 168.71108 243.556364 
L 176.32017 243.556364 
L 183.929261 243.556364 
L 191.538352 238.737891 
L 199.147443 233.427236 
L 206.756534 228.116581 
L 214.365625 222.805925 
L 221.974716 217.49527 
L 229.583807 212.184614 
L 237.192898 206.873959 
L 244.801989 201.563304 
L 252.41108 196.252648 
L 260.02017 190.941993 
L 267.629261 185.631338 
L 275.238352 180.320682 
L 282.847443 175.010027 
L 290.456534 169.699372 
L 298.065625 164.388716 
L 305.674716 159.078061 
L 313.283807 153.767405 
L 320.892898 148.45675 
L 328.501989 143.146095 
L 336.11108 137.835439 
L 343.72017 132.524784 
L 351.329261 127.214129 
L 358.938352 121.903473 
L 366.547443 116.592818 
" clip-path="url(#p5790cc165b)" style="fill: none; stroke: #8c564b; stroke-width: 1.5; stroke-linecap: square"/>
   </g>
   <g id="line2d_25">
    <path d="M 62.183807 243.556364 
L 69.792898 243.556364 
L 77.401989 243.556364 
L 85.01108 243.556364 
L 92.62017 243.556364 
L 100.229261 243.556364 
L 107.838352 243.556364 
L 115.447443 243.556364 
L 123.056534 243.556364 
L 130.665625 243.556364 
L 138.274716 243.556364 
L 145.883807 243.556364 
L 153.492898 243.556364 
L 161.101989 243.556364 
L 168.71108 243.556364 
L 176.32017 243.556364 
L 183.929261 243.556364 
L 191.538352 243.556364 
L 199.147443 243.556364 
L 206.756534 243.556364 
L 214.365625 243.556364 
L 221.974716 243.556364 
L 229.583807 243.556364 
L 237.192898 243.556364 
L 244.801989 243.556364 
L 252.41108 243.556364 
L 260.02017 243.556364 
L 267.629261 243.556364 
L 275.238352 243.556364 
L 282.847443 238.924613 
L 290.456534 221.387661 
L 298.065625 203.850709 
L 305.674716 186.313757 
L 313.283807 168.776806 
L 320.892898 151.239854 
L 328.501989 133.702902 
L 336.11108 116.16595 
L 343.72017 98.628998 
L 351.329261 81.092046 
L 358.938352 63.555094 
L 366.547443 46.018142 
" clip-path="url(#p5790cc165b)" style="fill: none; stroke: #e377c2; stroke-width: 1.5; stroke-linecap: square"/>
   </g>
   <g id="line2d_26">
    <path d="M 62.183807 243.556364 
L 69.792898 243.556364 
L 77.401989 241.699794 
L 85.01108 237.992328 
L 92.62017 234.284862 
L 100.229261 230.577396 
L 107.838352 226.86993 
L 115.447443 223.162464 
L 123.056534 219.454998 
L 130.665625 215.747532 
L 138.274716 212.040066 
L 145.883807 208.3326 
L 153.492898 204.625134 
L 161.101989 200.917668 
L 168.71108 197.210202 
L 176.32017 193.502735 
L 183.929261 189.795269 
L 191.538352 186.087803 
L 199.147443 182.380337 
L 206.756534 178.672871 
L 214.365625 174.965405 
L 221.974716 171.257939 
L 229.583807 167.550473 
L 237.192898 163.843007 
L 244.801989 160.135541 
L 252.41108 156.428075 
L 260.02017 152.720609 
L 267.629261 149.013143 
L 275.238352 145.305677 
L 282.847443 141.59821 
L 290.456534 137.890744 
L 298.065625 134.183278 
L 305.674716 130.475812 
L 313.283807 126.768346 
L 320.892898 123.06088 
L 328.501989 119.353414 
L 336.11108 115.645948 
L 343.72017 111.938482 
L 351.329261 108.231016 
L 358.938352 104.52355 
L 366.547443 100.816084 
" clip-path="url(#p5790cc165b)" style="fill: none; stroke: #7f7f7f; stroke-width: 1.5; stroke-linecap: square"/>
   </g>
   <g id="line2d_27">
    <path d="M 62.183807 104.666615 
L 69.792898 109.004515 
L 77.401989 113.342415 
L 85.01108 117.680315 
L 92.62017 122.018215 
L 100.229261 126.356115 
L 107.838352 130.694015 
L 115.447443 135.031915 
L 123.056534 139.369815 
L 130.665625 143.707715 
L 138.274716 148.045615 
L 145.883807 152.383515 
L 153.492898 156.721415 
L 161.101989 161.059315 
L 168.71108 165.397215 
L 176.32017 169.735115 
L 183.929261 174.073015 
L 191.538352 178.410915 
L 199.147443 182.748815 
L 206.756534 187.086715 
L 214.365625 191.424616 
L 221.974716 195.762516 
L 229.583807 200.100416 
L 237.192898 204.438316 
L 244.801989 208.776216 
L 252.41108 213.114116 
L 260.02017 217.452016 
L 267.629261 221.789916 
L 275.238352 226.127816 
L 282.847443 230.465716 
L 290.456534 234.803616 
L 298.065625 239.141516 
L 305.674716 243.479416 
L 313.283807 243.556364 
L 320.892898 243.556364 
L 328.501989 243.556364 
L 336.11108 243.556364 
L 343.72017 243.556364 
L 351.329261 243.556364 
L 358.938352 243.556364 
L 366.547443 243.556364 
" clip-path="url(#p5790cc165b)" style="fill: none; stroke: #bcbd22; stroke-width: 1.5; stroke-linecap: square"/>
   </g>
   <g id="line2d_28">
    <path d="M 62.183807 70.41051 
L 69.792898 75.334544 
L 77.401989 80.258578 
L 85.01108 85.182613 
L 92.62017 90.106647 
L 100.229261 95.030681 
L 107.838352 99.954716 
L 115.447443 104.87875 
L 123.056534 109.802784 
L 130.665625 114.726818 
L 138.274716 119.650853 
L 145.883807 124.574887 
L 153.492898 129.498921 
L 161.101989 134.422956 
L 168.71108 139.34699 
L 176.32017 144.271024 
L 183.929261 149.195058 
L 191.538352 154.119093 
L 199.147443 159.043127 
L 206.756534 163.967161 
L 214.365625 168.891196 
L 221.974716 173.81523 
L 229.583807 178.739264 
L 237.192898 183.663298 
L 244.801989 188.587333 
L 252.41108 193.511367 
L 260.02017 198.435401 
L 267.629261 203.359436 
L 275.238352 208.28347 
L 282.847443 213.207504 
L 290.456534 218.131538 
L 298.065625 223.055573 
L 305.674716 227.979607 
L 313.283807 232.903641 
L 320.892898 237.827676 
L 328.501989 242.75171 
L 336.11108 243.556364 
L 343.72017 243.556364 
L 351.329261 243.556364 
L 358.938352 243.556364 
L 366.547443 243.556364 
" clip-path="url(#p5790cc165b)" style="fill: none; stroke: #17becf; stroke-width: 1.5; stroke-linecap: square"/>
   </g>
   <g id="line2d_29">
    <path d="M 62.183807 86.174255 
L 69.792898 92.031347 
L 77.401989 97.888439 
L 85.01108 103.745531 
L 92.62017 109.602623 
L 100.229261 115.459714 
L 107.838352 121.316806 
L 115.447443 127.173898 
L 123.056534 133.03099 
L 130.665625 138.888082 
L 138.274716 144.745173 
L 145.883807 150.602265 
L 153.492898 156.459357 
L 161.101989 162.316449 
L 168.71108 168.173541 
L 176.32017 174.030633 
L 183.929261 179.887724 
L 191.538352 185.744816 
L 199.147443 191.601908 
L 206.756534 197.459 
L 214.365625 203.316092 
L 221.974716 209.173183 
L 229.583807 215.030275 
L 237.192898 220.887367 
L 244.801989 226.744459 
L 252.41108 232.601551 
L 260.02017 238.458642 
L 267.629261 243.556364 
L 275.238352 243.556364 
L 282.847443 243.556364 
L 290.456534 243.556364 
L 298.065625 243.556364 
L 305.674716 243.556364 
L 313.283807 243.556364 
L 320.892898 243.556364 
L 328.501989 243.556364 
L 336.11108 243.556364 
L 343.72017 243.556364 
L 351.329261 243.556364 
L 358.938352 243.556364 
L 366.547443 243.556364 
" clip-path="url(#p5790cc165b)" style="fill: none; stroke: #1f77b4; stroke-width: 1.5; stroke-linecap: square"/>
   </g>
   <g id="line2d_30">
    <path d="M 62.183807 66.614647 
L 69.792898 73.152887 
L 77.401989 79.691128 
L 85.01108 86.229368 
L 92.62017 92.767608 
L 100.229261 99.305849 
L 107.838352 105.844089 
L 115.447443 112.382329 
L 123.056534 118.92057 
L 130.665625 125.45881 
L 138.274716 131.99705 
L 145.883807 138.535291 
L 153.492898 145.073531 
L 161.101989 151.611771 
L 168.71108 158.150012 
L 176.32017 164.688252 
L 183.929261 171.226493 
L 191.538352 177.764733 
L 199.147443 184.302973 
L 206.756534 190.841214 
L 214.365625 197.379454 
L 221.974716 203.917694 
L 229.583807 210.455935 
L 237.192898 216.994175 
L 244.801989 223.532415 
L 252.41108 230.070656 
L 260.02017 236.608896 
L 267.629261 243.147137 
L 275.238352 243.556364 
L 282.847443 243.556364 
L 290.456534 243.556364 
L 298.065625 243.556364 
L 305.674716 243.556364 
L 313.283807 243.556364 
L 320.892898 243.556364 
L 328.501989 243.556364 
L 336.11108 243.556364 
L 343.72017 243.556364 
L 351.329261 243.556364 
L 358.938352 243.556364 
L 366.547443 243.556364 
" clip-path="url(#p5790cc165b)" style="fill: none; stroke: #ff7f0e; stroke-width: 1.5; stroke-linecap: square"/>
   </g>
   <g id="line2d_31">
    <path d="M 62.183807 243.556364 
L 69.792898 243.556364 
L 77.401989 243.556364 
L 85.01108 243.556364 
L 92.62017 243.556364 
L 100.229261 243.556364 
L 107.838352 243.556364 
L 115.447443 243.556364 
L 123.056534 243.556364 
L 130.665625 243.556364 
L 138.274716 243.556364 
L 145.883807 243.556364 
L 153.492898 243.556364 
L 161.101989 243.556364 
L 168.71108 243.556364 
L 176.32017 239.91136 
L 183.929261 234.281034 
L 191.538352 228.650709 
L 199.147443 223.020383 
L 206.756534 217.390057 
L 214.365625 211.759731 
L 221.974716 206.129406 
L 229.583807 200.49908 
L 237.192898 194.868754 
L 244.801989 189.238429 
L 252.41108 183.608103 
L 260.02017 177.977777 
L 267.629261 172.347452 
L 275.238352 166.717126 
L 282.847443 161.0868 
L 290.456534 155.456475 
L 298.065625 149.826149 
L 305.674716 144.195823 
L 313.283807 138.565498 
L 320.892898 132.935172 
L 328.501989 127.304846 
L 336.11108 121.674521 
L 343.72017 116.044195 
L 351.329261 110.413869 
L 358.938352 104.783544 
L 366.547443 99.153218 
" clip-path="url(#p5790cc165b)" style="fill: none; stroke: #2ca02c; stroke-width: 1.5; stroke-linecap: square"/>
   </g>
   <g id="line2d_32">
    <path d="M 62.183807 243.556364 
L 69.792898 243.556364 
L 77.401989 243.556364 
L 85.01108 243.556364 
L 92.62017 243.556364 
L 100.229261 243.556364 
L 107.838352 243.556364 
L 115.447443 243.556364 
L 123.056534 243.556364 
L 130.665625 243.556364 
L 138.274716 243.556364 
L 145.883807 243.556364 
L 153.492898 243.556364 
L 161.101989 243.556364 
L 168.71108 243.556364 
L 176.32017 243.556364 
L 183.929261 243.556364 
L 191.538352 243.556364 
L 199.147443 243.556364 
L 206.756534 243.556364 
L 214.365625 243.556364 
L 221.974716 243.556364 
L 229.583807 243.556364 
L 237.192898 243.556364 
L 244.801989 243.556364 
L 252.41108 243.556364 
L 260.02017 243.556364 
L 267.629261 243.556364 
L 275.238352 243.556364 
L 282.847443 233.937653 
L 290.456534 217.104636 
L 298.065625 200.271619 
L 305.674716 183.438603 
L 313.283807 166.605586 
L 320.892898 149.772569 
L 328.501989 132.939553 
L 336.11108 116.106536 
L 343.72017 99.27352 
L 351.329261 82.440503 
L 358.938352 65.607486 
L 366.547443 48.77447 
" clip-path="url(#p5790cc165b)" style="fill: none; stroke: #d62728; stroke-width: 1.5; stroke-linecap: square"/>
   </g>
   <g id="line2d_33">
    <path d="M 62.183807 243.556364 
L 69.792898 243.556364 
L 77.401989 243.556364 
L 85.01108 243.556364 
L 92.62017 243.556364 
L 100.229261 243.556364 
L 107.838352 243.556364 
L 115.447443 243.556364 
L 123.056534 243.556364 
L 130.665625 243.556364 
L 138.274716 243.556364 
L 145.883807 243.556364 
L 153.492898 243.556364 
L 161.101989 243.556364 
L 168.71108 243.556364 
L 176.32017 243.556364 
L 183.929261 243.556364 
L 191.538352 243.556364 
L 199.147443 243.556364 
L 206.756534 238.3992 
L 214.365625 230.989625 
L 221.974716 223.580051 
L 229.583807 216.170477 
L 237.192898 208.760903 
L 244.801989 201.351328 
L 252.41108 193.941754 
L 260.02017 186.53218 
L 267.629261 179.122606 
L 275.238352 171.713031 
L 282.847443 164.303457 
L 290.456534 156.893883 
L 298.065625 149.484309 
L 305.674716 142.074735 
L 313.283807 134.66516 
L 320.892898 127.255586 
L 328.501989 119.846012 
L 336.11108 112.436438 
L 343.72017 105.026863 
L 351.329261 97.617289 
L 358.938352 90.207715 
L 366.547443 82.798141 
" clip-path="url(#p5790cc165b)" style="fill: none; stroke: #9467bd; stroke-width: 1.5; stroke-linecap: square"/>
   </g>
   <g id="line2d_34">
    <path d="M 62.183807 115.141273 
L 69.792898 124.441351 
L 77.401989 133.74143 
L 85.01108 143.041509 
L 92.62017 152.341587 
L 100.229261 161.641666 
L 107.838352 170.941745 
L 115.447443 180.241823 
L 123.056534 189.541902 
L 130.665625 198.841981 
L 138.274716 208.142059 
L 145.883807 217.442138 
L 153.492898 226.742217 
L 161.101989 236.042296 
L 168.71108 243.556364 
L 176.32017 243.556364 
L 183.929261 243.556364 
L 191.538352 243.556364 
L 199.147443 243.556364 
L 206.756534 243.556364 
L 214.365625 243.556364 
L 221.974716 243.556364 
L 229.583807 243.556364 
L 237.192898 243.556364 
L 244.801989 243.556364 
L 252.41108 243.556364 
L 260.02017 243.556364 
L 267.629261 243.556364 
L 275.238352 243.556364 
L 282.847443 243.556364 
L 290.456534 243.556364 
L 298.065625 243.556364 
L 305.674716 243.556364 
L 313.283807 243.556364 
L 320.892898 243.556364 
L 328.501989 243.556364 
L 336.11108 243.556364 
L 343.72017 243.556364 
L 351.329261 243.556364 
L 358.938352 243.556364 
L 366.547443 243.556364 
" clip-path="url(#p5790cc165b)" style="fill: none; stroke: #8c564b; stroke-width: 1.5; stroke-linecap: square"/>
   </g>
   <g id="patch_3">
    <path d="M 46.965625 253.44 
L 46.965625 36 
" style="fill: none; stroke: #000000; stroke-width: 0.8; stroke-linejoin: miter; stroke-linecap: square"/>
   </g>
   <g id="patch_4">
    <path d="M 381.765625 253.44 
L 381.765625 36 
" style="fill: none; stroke: #000000; stroke-width: 0.8; stroke-linejoin: miter; stroke-linecap: square"/>
   </g>
   <g id="patch_5">
    <path d="M 46.965625 253.44 
L 381.765625 253.44 
" style="fill: none; stroke: #000000; stroke-width: 0.8; stroke-linejoin: miter; stroke-linecap: square"/>
   </g>
   <g id="patch_6">
    <path d="M 46.965625 36 
L 381.765625 36 
" style="fill: none; stroke: #000000; stroke-width: 0.8; stroke-linejoin: miter; stroke-linecap: square"/>
   </g>
  </g>
  <g id="text_21">
   <!-- Rectified Tuning Curves $a_{i=16}(x)$ versus stimuli $x$ -->
   <g transform="translate(62.505625 16.32) scale(0.12 -0.12)">
    <defs>
     <path id="DejaVuSans-52" d="M 2841 2188 
Q 3044 2119 3236 1894 
Q 3428 1669 3622 1275 
L 4263 0 
L 3584 0 
L 2988 1197 
Q 2756 1666 2539 1819 
Q 2322 1972 1947 1972 
L 1259 1972 
L 1259 0 
L 628 0 
L 628 4666 
L 2053 4666 
Q 2853 4666 3247 4331 
Q 3641 3997 3641 3322 
Q 3641 2881 3436 2590 
Q 3231 2300 2841 2188 
z
M 1259 4147 
L 1259 2491 
L 2053 2491 
Q 2509 2491 2742 2702 
Q 2975 2913 2975 3322 
Q 2975 3731 2742 3939 
Q 2509 4147 2053 4147 
L 1259 4147 
z
" transform="scale(0.015625)"/>
     <path id="DejaVuSans-63" d="M 3122 3366 
L 3122 2828 
Q 2878 2963 2633 3030 
Q 2388 3097 2138 3097 
Q 1578 3097 1268 2742 
Q 959 2388 959 1747 
Q 959 1106 1268 751 
Q 1578 397 2138 397 
Q 2388 397 2633 464 
Q 2878 531 3122 666 
L 3122 134 
Q 2881 22 2623 -34 
Q 2366 -91 2075 -91 
Q 1284 -91 818 406 
Q 353 903 353 1747 
Q 353 2603 823 3093 
Q 1294 3584 2113 3584 
Q 2378 3584 2631 3529 
Q 2884 3475 3122 3366 
z
" transform="scale(0.015625)"/>
     <path id="DejaVuSans-66" d="M 2375 4863 
L 2375 4384 
L 1825 4384 
Q 1516 4384 1395 4259 
Q 1275 4134 1275 3809 
L 1275 3500 
L 2222 3500 
L 2222 3053 
L 1275 3053 
L 1275 0 
L 697 0 
L 697 3053 
L 147 3053 
L 147 3500 
L 697 3500 
L 697 3744 
Q 697 4328 969 4595 
Q 1241 4863 1831 4863 
L 2375 4863 
z
" transform="scale(0.015625)"/>
     <path id="DejaVuSans-64" d="M 2906 2969 
L 2906 4863 
L 3481 4863 
L 3481 0 
L 2906 0 
L 2906 525 
Q 2725 213 2448 61 
Q 2172 -91 1784 -91 
Q 1150 -91 751 415 
Q 353 922 353 1747 
Q 353 2572 751 3078 
Q 1150 3584 1784 3584 
Q 2172 3584 2448 3432 
Q 2725 3281 2906 2969 
z
M 947 1747 
Q 947 1113 1208 752 
Q 1469 391 1925 391 
Q 2381 391 2643 752 
Q 2906 1113 2906 1747 
Q 2906 2381 2643 2742 
Q 2381 3103 1925 3103 
Q 1469 3103 1208 2742 
Q 947 2381 947 1747 
z
" transform="scale(0.015625)"/>
     <path id="DejaVuSans-54" d="M -19 4666 
L 3928 4666 
L 3928 4134 
L 2272 4134 
L 2272 0 
L 1638 0 
L 1638 4134 
L -19 4134 
L -19 4666 
z
" transform="scale(0.015625)"/>
     <path id="DejaVuSans-6e" d="M 3513 2113 
L 3513 0 
L 2938 0 
L 2938 2094 
Q 2938 2591 2744 2837 
Q 2550 3084 2163 3084 
Q 1697 3084 1428 2787 
Q 1159 2491 1159 1978 
L 1159 0 
L 581 0 
L 581 3500 
L 1159 3500 
L 1159 2956 
Q 1366 3272 1645 3428 
Q 1925 3584 2291 3584 
Q 2894 3584 3203 3211 
Q 3513 2838 3513 2113 
z
" transform="scale(0.015625)"/>
     <path id="DejaVuSans-67" d="M 2906 1791 
Q 2906 2416 2648 2759 
Q 2391 3103 1925 3103 
Q 1463 3103 1205 2759 
Q 947 2416 947 1791 
Q 947 1169 1205 825 
Q 1463 481 1925 481 
Q 2391 481 2648 825 
Q 2906 1169 2906 1791 
z
M 3481 434 
Q 3481 -459 3084 -895 
Q 2688 -1331 1869 -1331 
Q 1566 -1331 1297 -1286 
Q 1028 -1241 775 -1147 
L 775 -588 
Q 1028 -725 1275 -790 
Q 1522 -856 1778 -856 
Q 2344 -856 2625 -561 
Q 2906 -266 2906 331 
L 2906 616 
Q 2728 306 2450 153 
Q 2172 0 1784 0 
Q 1141 0 747 490 
Q 353 981 353 1791 
Q 353 2603 747 3093 
Q 1141 3584 1784 3584 
Q 2172 3584 2450 3431 
Q 2728 3278 2906 2969 
L 2906 3500 
L 3481 3500 
L 3481 434 
z
" transform="scale(0.015625)"/>
     <path id="DejaVuSans-43" d="M 4122 4306 
L 4122 3641 
Q 3803 3938 3442 4084 
Q 3081 4231 2675 4231 
Q 1875 4231 1450 3742 
Q 1025 3253 1025 2328 
Q 1025 1406 1450 917 
Q 1875 428 2675 428 
Q 3081 428 3442 575 
Q 3803 722 4122 1019 
L 4122 359 
Q 3791 134 3420 21 
Q 3050 -91 2638 -91 
Q 1578 -91 968 557 
Q 359 1206 359 2328 
Q 359 3453 968 4101 
Q 1578 4750 2638 4750 
Q 3056 4750 3426 4639 
Q 3797 4528 4122 4306 
z
" transform="scale(0.015625)"/>
     <path id="DejaVuSans-76" d="M 191 3500 
L 800 3500 
L 1894 563 
L 2988 3500 
L 3597 3500 
L 2284 0 
L 1503 0 
L 191 3500 
z
" transform="scale(0.015625)"/>
     <path id="DejaVuSans-3d" d="M 678 2906 
L 4684 2906 
L 4684 2381 
L 678 2381 
L 678 2906 
z
M 678 1631 
L 4684 1631 
L 4684 1100 
L 678 1100 
L 678 1631 
z
" transform="scale(0.015625)"/>
     <path id="DejaVuSans-36" d="M 2113 2584 
Q 1688 2584 1439 2293 
Q 1191 2003 1191 1497 
Q 1191 994 1439 701 
Q 1688 409 2113 409 
Q 2538 409 2786 701 
Q 3034 994 3034 1497 
Q 3034 2003 2786 2293 
Q 2538 2584 2113 2584 
z
M 3366 4563 
L 3366 3988 
Q 3128 4100 2886 4159 
Q 2644 4219 2406 4219 
Q 1781 4219 1451 3797 
Q 1122 3375 1075 2522 
Q 1259 2794 1537 2939 
Q 1816 3084 2150 3084 
Q 2853 3084 3261 2657 
Q 3669 2231 3669 1497 
Q 3669 778 3244 343 
Q 2819 -91 2113 -91 
Q 1303 -91 875 529 
Q 447 1150 447 2328 
Q 447 3434 972 4092 
Q 1497 4750 2381 4750 
Q 2619 4750 2861 4703 
Q 3103 4656 3366 4563 
z
" transform="scale(0.015625)"/>
    </defs>
    <use xlink:href="#DejaVuSans-52" transform="translate(0 0.015625)"/>
    <use xlink:href="#DejaVuSans-65" transform="translate(69.482422 0.015625)"/>
    <use xlink:href="#DejaVuSans-63" transform="translate(131.005859 0.015625)"/>
    <use xlink:href="#DejaVuSans-74" transform="translate(185.986328 0.015625)"/>
    <use xlink:href="#DejaVuSans-69" transform="translate(225.195312 0.015625)"/>
    <use xlink:href="#DejaVuSans-66" transform="translate(252.978516 0.015625)"/>
    <use xlink:href="#DejaVuSans-69" transform="translate(288.183594 0.015625)"/>
    <use xlink:href="#DejaVuSans-65" transform="translate(315.966797 0.015625)"/>
    <use xlink:href="#DejaVuSans-64" transform="translate(377.490234 0.015625)"/>
    <use xlink:href="#DejaVuSans-20" transform="translate(440.966797 0.015625)"/>
    <use xlink:href="#DejaVuSans-54" transform="translate(472.753906 0.015625)"/>
    <use xlink:href="#DejaVuSans-75" transform="translate(533.837891 0.015625)"/>
    <use xlink:href="#DejaVuSans-6e" transform="translate(597.216797 0.015625)"/>
    <use xlink:href="#DejaVuSans-69" transform="translate(660.595703 0.015625)"/>
    <use xlink:href="#DejaVuSans-6e" transform="translate(688.378906 0.015625)"/>
    <use xlink:href="#DejaVuSans-67" transform="translate(751.757812 0.015625)"/>
    <use xlink:href="#DejaVuSans-20" transform="translate(815.234375 0.015625)"/>
    <use xlink:href="#DejaVuSans-43" transform="translate(847.021484 0.015625)"/>
    <use xlink:href="#DejaVuSans-75" transform="translate(916.845703 0.015625)"/>
    <use xlink:href="#DejaVuSans-72" transform="translate(980.224609 0.015625)"/>
    <use xlink:href="#DejaVuSans-76" transform="translate(1021.337891 0.015625)"/>
    <use xlink:href="#DejaVuSans-65" transform="translate(1080.517578 0.015625)"/>
    <use xlink:href="#DejaVuSans-73" transform="translate(1142.041016 0.015625)"/>
    <use xlink:href="#DejaVuSans-20" transform="translate(1194.140625 0.015625)"/>
    <use xlink:href="#DejaVuSans-Oblique-61" transform="translate(1225.927734 0.015625)"/>
    <use xlink:href="#DejaVuSans-Oblique-69" transform="translate(1287.207031 -16.390625) scale(0.7)"/>
    <use xlink:href="#DejaVuSans-3d" transform="translate(1320.292969 -16.390625) scale(0.7)"/>
    <use xlink:href="#DejaVuSans-31" transform="translate(1392.583008 -16.390625) scale(0.7)"/>
    <use xlink:href="#DejaVuSans-36" transform="translate(1437.119141 -16.390625) scale(0.7)"/>
    <use xlink:href="#DejaVuSans-28" transform="translate(1484.389648 0.015625)"/>
    <use xlink:href="#DejaVuSans-Oblique-78" transform="translate(1523.40332 0.015625)"/>
    <use xlink:href="#DejaVuSans-29" transform="translate(1582.583008 0.015625)"/>
    <use xlink:href="#DejaVuSans-20" transform="translate(1621.59668 0.015625)"/>
    <use xlink:href="#DejaVuSans-76" transform="translate(1653.383789 0.015625)"/>
    <use xlink:href="#DejaVuSans-65" transform="translate(1712.563477 0.015625)"/>
    <use xlink:href="#DejaVuSans-72" transform="translate(1774.086914 0.015625)"/>
    <use xlink:href="#DejaVuSans-73" transform="translate(1815.200195 0.015625)"/>
    <use xlink:href="#DejaVuSans-75" transform="translate(1867.299805 0.015625)"/>
    <use xlink:href="#DejaVuSans-73" transform="translate(1930.678711 0.015625)"/>
    <use xlink:href="#DejaVuSans-20" transform="translate(1982.77832 0.015625)"/>
    <use xlink:href="#DejaVuSans-73" transform="translate(2014.56543 0.015625)"/>
    <use xlink:href="#DejaVuSans-74" transform="translate(2066.665039 0.015625)"/>
    <use xlink:href="#DejaVuSans-69" transform="translate(2105.874023 0.015625)"/>
    <use xlink:href="#DejaVuSans-6d" transform="translate(2133.657227 0.015625)"/>
    <use xlink:href="#DejaVuSans-75" transform="translate(2231.069336 0.015625)"/>
    <use xlink:href="#DejaVuSans-6c" transform="translate(2294.448242 0.015625)"/>
    <use xlink:href="#DejaVuSans-69" transform="translate(2322.231445 0.015625)"/>
    <use xlink:href="#DejaVuSans-20" transform="translate(2350.014648 0.015625)"/>
    <use xlink:href="#DejaVuSans-Oblique-78" transform="translate(2381.801758 0.015625)"/>
   </g>
  </g>
 </g>
 <defs>
  <clipPath id="p5790cc165b">
   <rect x="46.965625" y="36" width="334.8" height="217.44"/>
  </clipPath>
 </defs>
</svg>
