<?xml version="1.0" encoding="utf-8" standalone="no"?>
<!DOCTYPE svg PUBLIC "-//W3C//DTD SVG 1.1//EN"
  "http://www.w3.org/Graphics/SVG/1.1/DTD/svg11.dtd">
<svg xmlns:xlink="http://www.w3.org/1999/xlink" width="436.392187pt" height="290.99625pt" viewBox="0 0 436.392187 290.99625" xmlns="http://www.w3.org/2000/svg" version="1.1">
 <metadata>
  <rdf:RDF xmlns:dc="http://purl.org/dc/elements/1.1/" xmlns:cc="http://creativecommons.org/ns#" xmlns:rdf="http://www.w3.org/1999/02/22-rdf-syntax-ns#">
   <cc:Work>
    <dc:type rdf:resource="http://purl.org/dc/dcmitype/StillImage"/>
    <dc:date>2022-09-28T18:50:05.292103</dc:date>
    <dc:format>image/svg+xml</dc:format>
    <dc:creator>
     <cc:Agent>
      <dc:title>Matplotlib v3.6.0, https://matplotlib.org/</dc:title>
     </cc:Agent>
    </dc:creator>
   </cc:Work>
  </rdf:RDF>
 </metadata>
 <defs>
  <style type="text/css">*{stroke-linejoin: round; stroke-linecap: butt}</style>
 </defs>
 <g id="figure_1">
  <g id="patch_1">
   <path d="M 0 290.99625 
L 436.392187 290.99625 
L 436.392187 0 
L 0 0 
L 0 290.99625 
z
" style="fill: none"/>
  </g>
  <g id="axes_1">
   <g id="patch_2">
    <path d="M 58.523438 253.44 
L 393.323438 253.44 
L 393.323438 36 
L 58.523438 36 
z
" style="fill: #ffffff"/>
   </g>
   <g id="Quiver_1">
    <path d="M 226.047657 144.32036 
L 359.721599 185.869945 
L 359.570397 184.946446 
L 363.194137 187.387557 
L 358.825083 187.344284 
L 359.473161 186.669224 
L 225.799218 145.11964 
L 226.047657 144.32036 
" clip-path="url(#pa288681bc0)" style="fill: #0000ff"/>
    <path d="M 225.816974 145.124732 
L 88.407818 108.979826 
L 88.599624 109.895753 
L 84.871695 107.616927 
L 89.238402 107.467362 
L 88.620744 108.170363 
L 226.029901 144.315268 
L 225.816974 145.124732 
" clip-path="url(#pa288681bc0)" style="fill: #0000ff"/>
    <path d="M 225.969495 145.135958 
L 79.695938 161.332347 
L 80.204011 162.118205 
L 75.90626 161.330908 
L 79.927665 159.622458 
L 79.603823 160.500431 
L 225.87738 144.304042 
L 225.969495 145.135958 
" clip-path="url(#pa288681bc0)" style="fill: #0000ff"/>
    <path d="M 226.172304 144.383536 
L 323.554824 216.412816 
L 323.716093 215.491023 
L 326.33413 218.989077 
L 322.222895 217.509805 
L 323.057091 217.085744 
L 225.674571 145.056464 
L 226.172304 144.383536 
" clip-path="url(#pa288681bc0)" style="fill: #0000ff"/>
    <path d="M 225.505035 144.71095 
L 227.561082 49.649956 
L 226.715229 50.050259 
L 228.06093 45.893386 
L 229.225641 50.104556 
L 228.397887 49.668055 
L 226.34184 144.72905 
L 225.505035 144.71095 
" clip-path="url(#pa288681bc0)" style="fill: #0000ff"/>
    <path d="M 225.763438 144.333293 
L 350.632315 92.668955 
L 349.925609 92.05554 
L 354.272679 91.615666 
L 350.885606 94.375783 
L 350.952314 93.442369 
L 226.083437 145.106707 
L 225.763438 144.333293 
" clip-path="url(#pa288681bc0)" style="fill: #0000ff"/>
    <path d="M 225.860562 145.13375 
L 81.404825 123.181488 
L 81.692823 124.071863 
L 77.743952 122.201857 
L 82.070077 121.589364 
L 81.530576 122.353988 
L 225.986313 144.30625 
L 225.860562 145.13375 
" clip-path="url(#pa288681bc0)" style="fill: #0000ff"/>
    <path d="M 226.242365 144.449025 
L 297.328225 228.11435 
L 297.695104 227.253472 
L 299.448074 231.255672 
L 295.78154 228.879323 
L 296.69037 228.6563 
L 225.60451 144.990975 
L 226.242365 144.449025 
" clip-path="url(#pa288681bc0)" style="fill: #0000ff"/>
    <path d="M 226.21025 144.415237 
L 309.904585 223.179998 
L 310.173447 222.283659 
L 312.360642 226.066077 
L 308.45257 224.112238 
L 309.330959 223.789525 
L 225.636625 145.024763 
L 226.21025 144.415237 
" clip-path="url(#pa288681bc0)" style="fill: #0000ff"/>
    <path d="M 225.57487 144.488391 
L 283.788191 56.878429 
L 282.859446 56.763778 
L 286.221242 53.97293 
L 284.950852 58.153434 
L 284.485326 57.341648 
L 226.272005 144.951609 
L 225.57487 144.488391 
" clip-path="url(#pa288681bc0)" style="fill: #0000ff"/>
    <path d="M 225.94796 144.302219 
L 373.751991 152.978008 
L 373.383256 152.117923 
L 377.487496 153.616494 
L 373.236119 154.624608 
L 373.702945 153.813569 
L 225.898915 145.137781 
L 225.94796 144.302219 
" clip-path="url(#pa288681bc0)" style="fill: #0000ff"/>
    <path d="M 226.228263 145.006747 
L 149.46945 226.604815 
L 150.365848 226.873484 
L 146.583901 229.061494 
L 148.536897 225.153001 
L 148.8598 226.031321 
L 225.618612 144.433253 
L 226.228263 145.006747 
" clip-path="url(#pa288681bc0)" style="fill: #0000ff"/>
    <path d="M 226.315985 144.865081 
L 192.10197 237.438654 
L 193.032147 237.336268 
L 190.403696 240.826505 
L 190.676859 236.465784 
L 191.316874 237.148493 
L 225.53089 144.574919 
L 226.315985 144.865081 
" clip-path="url(#pa288681bc0)" style="fill: #0000ff"/>
    <path d="M 225.514137 144.632733 
L 245.602517 50.414231 
L 244.69665 50.648997 
L 246.797222 46.817795 
L 247.152451 51.172599 
L 246.421118 50.588765 
L 226.332738 144.807267 
L 225.514137 144.632733 
" clip-path="url(#pa288681bc0)" style="fill: #0000ff"/>
    <path d="M 225.854502 144.307217 
L 369.526619 120.313711 
L 368.975965 119.55708 
L 373.310605 120.106074 
L 369.389578 122.03378 
L 369.66449 121.139278 
L 225.992373 145.132783 
L 225.854502 144.307217 
" clip-path="url(#pa288681bc0)" style="fill: #0000ff"/>
    <path d="M 225.880702 144.303688 
L 372.449709 129.258129 
L 371.947926 128.46824 
L 376.239255 129.289825 
L 372.204337 130.966114 
L 372.535179 130.090754 
L 225.966173 145.136312 
L 225.880702 144.303688 
" clip-path="url(#pa288681bc0)" style="fill: #0000ff"/>
    <path d="M 226.341937 144.719896 
L 226.365535 239.789759 
L 227.202431 239.371051 
L 225.94797 243.556362 
L 224.691431 239.371674 
L 225.528535 239.789966 
L 225.504938 144.720104 
L 226.341937 144.719896 
" clip-path="url(#pa288681bc0)" style="fill: #0000ff"/>
    <path d="M 225.953839 144.302606 
L 373.431045 155.044171 
L 373.074453 154.178981 
L 377.157193 155.735175 
L 372.892047 156.683347 
L 373.370243 155.878959 
L 225.893036 145.137394 
L 225.953839 144.302606 
" clip-path="url(#pa288681bc0)" style="fill: #0000ff"/>
    <path d="M 225.981624 145.134435 
L 80.965659 165.494466 
L 81.496466 166.265151 
L 77.177555 165.603706 
L 81.14735 163.778539 
L 80.849286 164.665596 
L 225.865251 144.305565 
L 225.981624 145.134435 
" clip-path="url(#pa288681bc0)" style="fill: #0000ff"/>
    <path d="M 226.158551 144.373787 
L 328.224612 213.68698 
L 328.348626 212.759439 
L 331.105418 216.149219 
L 326.937942 214.836719 
L 327.754384 214.379406 
L 225.688324 145.066213 
L 226.158551 144.373787 
" clip-path="url(#pa288681bc0)" style="fill: #0000ff"/>
    <path d="M 225.861527 144.306105 
L 370.435865 122.680619 
L 369.898148 121.914739 
L 374.222833 122.537318 
L 370.269612 124.398111 
L 370.559686 123.508409 
L 225.985348 145.133895 
L 225.861527 144.306105 
" clip-path="url(#pa288681bc0)" style="fill: #0000ff"/>
    <path d="M 226.222937 145.012305 
L 147.379928 225.795676 
L 148.271231 226.080787 
L 144.449679 228.198863 
L 146.474236 224.326955 
L 146.780929 225.211065 
L 225.623938 144.427695 
L 226.222937 145.012305 
" clip-path="url(#pa288681bc0)" style="fill: #0000ff"/>
    <path d="M 226.246946 144.985489 
L 157.057715 229.295053 
L 157.970221 229.502524 
L 154.344803 231.941139 
L 156.029171 227.909587 
L 156.410699 228.764075 
L 225.599929 144.454511 
L 226.246946 144.985489 
" clip-path="url(#pa288681bc0)" style="fill: #0000ff"/>
    <path d="M 225.939388 144.301804 
L 374.095698 149.952568 
L 373.709403 149.100225 
L 377.843511 150.514315 
L 373.613701 151.609401 
L 374.063798 150.788959 
L 225.907487 145.138196 
L 225.939388 144.301804 
" clip-path="url(#pa288681bc0)" style="fill: #0000ff"/>
    <path d="M 225.961182 144.303206 
L 372.933681 157.612839 
L 372.592376 156.741505 
L 376.647087 158.369332 
L 372.36591 159.242272 
L 372.858193 158.446428 
L 225.885693 145.136794 
L 225.961182 144.303206 
" clip-path="url(#pa288681bc0)" style="fill: #0000ff"/>
    <path d="M 225.664218 145.048554 
L 131.902699 71.073604 
L 131.712815 71.989931 
L 129.204932 68.412079 
L 133.268129 70.018607 
L 132.421137 70.416496 
L 226.182657 144.391446 
L 225.664218 145.048554 
" clip-path="url(#pa288681bc0)" style="fill: #0000ff"/>
    <path d="M 225.833945 144.311181 
L 366.365067 113.548212 
L 365.777263 112.820066 
L 370.133935 113.151598 
L 366.314219 115.272982 
L 366.544053 114.365851 
L 226.01293 145.128819 
L 225.833945 144.311181 
" clip-path="url(#pa288681bc0)" style="fill: #0000ff"/>
    <path d="M 226.314502 144.869034 
L 191.092795 237.290792 
L 192.023957 237.197795 
L 189.360428 240.661337 
L 189.677571 236.303593 
L 190.310666 236.992725 
L 225.532373 144.570966 
L 226.314502 144.869034 
" clip-path="url(#pa288681bc0)" style="fill: #0000ff"/>
    <path d="M 225.522832 144.598933 
L 253.74335 51.218488 
L 252.821071 51.376959 
L 255.23356 47.734103 
L 255.224706 52.103362 
L 254.544561 51.460622 
L 226.324043 144.841067 
L 225.522832 144.598933 
" clip-path="url(#pa288681bc0)" style="fill: #0000ff"/>
    <path d="M 226.269893 144.485244 
L 285.45497 231.831153 
L 285.913125 231.015184 
L 287.221322 235.184012 
L 283.83439 232.423722 
L 284.762058 232.300665 
L 225.576982 144.954756 
L 226.269893 144.485244 
" clip-path="url(#pa288681bc0)" style="fill: #0000ff"/>
    <path d="M 226.226164 144.431038 
L 303.809776 225.710356 
L 304.126267 224.829706 
L 306.107705 228.723856 
L 302.309908 226.563476 
L 303.204323 226.288279 
L 225.620711 145.008962 
L 226.226164 144.431038 
" clip-path="url(#pa288681bc0)" style="fill: #0000ff"/>
    <path d="M 225.889718 144.302861 
L 373.152069 132.39902 
L 372.667492 131.598461 
L 376.940043 132.512687 
L 372.869807 134.101297 
L 373.219508 133.233299 
L 225.957157 145.137139 
L 225.889718 144.302861 
" clip-path="url(#pa288681bc0)" style="fill: #0000ff"/>
    <path d="M 226.271711 144.952052 
L 167.922255 232.525339 
L 168.850853 232.64117 
L 165.485515 235.427745 
L 166.761214 231.248858 
L 167.225709 232.061235 
L 225.575164 144.487948 
L 226.271711 144.952052 
" clip-path="url(#pa288681bc0)" style="fill: #0000ff"/>
    <path d="M 226.072026 145.111234 
L 98.224681 193.667007 
L 98.913092 194.300886 
L 94.55499 194.613071 
L 98.02156 191.953485 
L 97.927504 192.88454 
L 225.774849 144.328766 
L 226.072026 145.111234 
" clip-path="url(#pa288681bc0)" style="fill: #0000ff"/>
    <path d="M 225.595694 144.459757 
L 293.005156 59.566179 
L 292.089426 59.373435 
L 295.67509 56.876733 
L 294.055885 60.934895 
L 293.660642 60.086665 
L 226.251181 144.980243 
L 225.595694 144.459757 
" clip-path="url(#pa288681bc0)" style="fill: #0000ff"/>
    <path d="M 226.124321 144.352865 
L 339.203538 206.226023 
L 339.238171 205.290869 
L 342.306867 208.401112 
L 338.032868 207.493678 
L 338.80177 206.960292 
L 225.722554 145.087135 
L 226.124321 144.352865 
" clip-path="url(#pa288681bc0)" style="fill: #0000ff"/>
    <path d="M 225.632536 145.020863 
L 143.485212 65.593296 
L 143.204271 66.485923 
L 141.068348 62.674317 
L 144.949681 64.680746 
L 144.067015 64.99157 
L 226.214339 144.419137 
L 225.632536 145.020863 
" clip-path="url(#pa288681bc0)" style="fill: #0000ff"/>
    <path d="M 225.706469 144.362136 
L 333.728639 78.86978 
L 332.936837 78.37102 
L 337.166387 77.27493 
L 334.238647 80.518207 
L 334.162575 79.585509 
L 226.140406 145.077864 
L 225.706469 144.362136 
" clip-path="url(#pa288681bc0)" style="fill: #0000ff"/>
    <path d="M 225.842035 144.309493 
L 367.696146 116.180182 
L 367.122834 115.440571 
L 371.47211 115.858067 
L 367.611249 117.903612 
L 367.858951 117.001196 
L 226.00484 145.130507 
L 225.842035 144.309493 
" clip-path="url(#pa288681bc0)" style="fill: #0000ff"/>
    <path d="M 225.944986 145.137945 
L 78.001931 152.76546 
L 78.462972 153.579802 
L 74.218879 152.541448 
L 78.333684 151.072133 
L 77.958835 151.92957 
L 225.901889 144.302055 
L 225.944986 145.137945 
" clip-path="url(#pa288681bc0)" style="fill: #0000ff"/>
    <path d="M 225.677134 145.058345 
L 127.41073 73.52381 
L 127.256469 74.446802 
L 124.611933 70.968738 
L 128.734287 72.416735 
L 127.903337 72.847121 
L 226.169741 144.381655 
L 225.677134 145.058345 
" clip-path="url(#pa288681bc0)" style="fill: #0000ff"/>
    <path d="M 225.56 144.512502 
L 276.601045 55.112664 
L 275.666672 55.061107 
L 278.831961 52.049221 
L 277.847299 56.306092 
L 277.327921 55.527659 
L 226.286875 144.927498 
L 225.56 144.512502 
" clip-path="url(#pa288681bc0)" style="fill: #0000ff"/>
    <path d="M 226.337222 144.782646 
L 212.009251 239.420599 
L 212.899466 239.132106 
L 211.031652 243.082014 
L 210.416758 238.75623 
L 211.181681 239.295307 
L 225.509653 144.657354 
L 226.337222 144.782646 
" clip-path="url(#pa288681bc0)" style="fill: #0000ff"/>
    <path d="M 226.112 145.093613 
L 109.310376 204.043557 
L 110.061114 204.602219 
L 105.7593 205.367009 
L 108.929737 202.360544 
L 108.93325 203.296332 
L 225.734875 144.346387 
L 226.112 145.093613 
" clip-path="url(#pa288681bc0)" style="fill: #0000ff"/>
    <path d="M 225.631527 144.420115 
L 307.394977 64.830894 
L 306.511272 64.523035 
L 310.385848 62.503587 
L 308.262733 66.322342 
L 307.978797 65.430663 
L 226.215348 145.019885 
L 225.631527 144.420115 
" clip-path="url(#pa288681bc0)" style="fill: #0000ff"/>
    <path d="M 225.941955 145.13809 
L 77.875586 151.695989 
L 78.330711 152.513652 
L 74.094258 151.444555 
L 78.219607 150.005111 
L 77.838552 150.859809 
L 225.90492 144.30191 
L 225.941955 145.13809 
" clip-path="url(#pa288681bc0)" style="fill: #0000ff"/>
    <path d="M 225.521301 144.604118 
L 252.473535 51.073726 
L 251.55338 51.244099 
L 253.918607 47.57038 
L 253.966198 51.939389 
L 253.277807 51.305489 
L 226.325574 144.835882 
L 225.521301 144.604118 
" clip-path="url(#pa288681bc0)" style="fill: #0000ff"/>
    <path d="M 226.158035 145.066563 
L 123.919011 214.274839 
L 124.73477 214.733368 
L 120.565343 216.039656 
L 123.327183 212.653988 
L 123.449815 213.581712 
L 225.68884 144.373437 
L 226.158035 145.066563 
" clip-path="url(#pa288681bc0)" style="fill: #0000ff"/>
    <path d="M 226.201194 145.033039 
L 139.133221 222.287459 
L 140.001773 222.635781 
L 136.03811 224.474226 
L 138.335236 220.757545 
L 138.577709 221.66138 
L 225.645681 144.406961 
L 226.201194 145.033039 
" clip-path="url(#pa288681bc0)" style="fill: #0000ff"/>
    <path d="M 226.275012 144.947019 
L 169.463565 232.928682 
L 170.393733 233.031145 
L 167.068823 235.865837 
L 168.284285 231.669033 
L 168.760415 232.474645 
L 225.571863 144.492981 
L 226.275012 144.947019 
" clip-path="url(#pa288681bc0)" style="fill: #0000ff"/>
    <path d="M 225.7608 145.105605 
L 101.601298 92.738736 
L 101.661629 93.672583 
L 98.293487 90.889397 
L 102.637451 91.358952 
L 101.926572 91.967525 
L 226.086075 144.334395 
L 225.7608 145.105605 
" clip-path="url(#pa288681bc0)" style="fill: #0000ff"/>
    <path d="M 225.909737 144.301724 
L 374.13389 139.446546 
L 373.688213 138.623695 
L 377.912072 139.741513 
L 373.770418 141.133349 
L 374.161292 140.283097 
L 225.937138 145.138276 
L 225.909737 144.301724 
" clip-path="url(#pa288681bc0)" style="fill: #0000ff"/>
    <path d="M 226.270742 144.486501 
L 285.066364 231.938869 
L 285.527476 231.124567 
L 286.820547 235.298111 
L 283.443646 232.525558 
L 284.371755 232.405866 
L 225.576133 144.953499 
L 226.270742 144.486501 
" clip-path="url(#pa288681bc0)" style="fill: #0000ff"/>
    <path d="M 225.56126 144.510311 
L 277.235696 55.257521 
L 276.301651 55.200321 
L 279.485075 52.20761 
L 278.474718 56.458455 
L 277.960052 55.676899 
L 226.285615 144.929689 
L 225.56126 144.510311 
" clip-path="url(#pa288681bc0)" style="fill: #0000ff"/>
    <path d="M 225.849794 145.13197 
L 82.832032 119.566312 
L 83.096716 120.463894 
L 79.197949 118.491554 
L 83.538574 117.992076 
L 82.979318 118.742373 
L 225.997081 144.30803 
L 225.849794 145.13197 
" clip-path="url(#pa288681bc0)" style="fill: #0000ff"/>
    <path d="M 226.239818 144.993944 
L 154.111692 228.295434 
L 155.018398 228.526941 
L 151.329814 230.868917 
L 153.120113 226.883276 
L 153.47893 227.747545 
L 225.607057 144.446056 
L 226.239818 144.993944 
" clip-path="url(#pa288681bc0)" style="fill: #0000ff"/>
    <path d="M 225.554798 144.918108 
L 177.189548 54.919942 
L 176.650376 55.684798 
L 175.775215 51.404074 
L 178.862216 54.496149 
L 177.926828 54.523726 
L 226.292077 144.521892 
L 225.554798 144.918108 
" clip-path="url(#pa288681bc0)" style="fill: #0000ff"/>
    <path d="M 226.063624 144.325678 
L 356.00535 190.521696 
L 355.891402 189.592865 
L 359.414063 192.177699 
L 355.050281 191.958798 
L 355.724977 191.31034 
L 225.783251 145.114322 
L 226.063624 144.325678 
" clip-path="url(#pa288681bc0)" style="fill: #0000ff"/>
    <path d="M 225.848785 145.131788 
L 82.97651 119.230502 
L 83.238992 120.12873 
L 79.345073 118.146838 
L 83.68691 117.658004 
L 83.125816 118.406926 
L 225.99809 144.308212 
L 225.848785 145.131788 
" clip-path="url(#pa288681bc0)" style="fill: #0000ff"/>
    <path d="M 225.53361 144.567762 
L 261.57711 52.273303 
L 260.645216 52.358654 
L 263.337083 48.917091 
L 262.984183 53.272085 
L 262.356766 52.57778 
L 226.313265 144.872238 
L 225.53361 144.567762 
" clip-path="url(#pa288681bc0)" style="fill: #0000ff"/>
    <path d="M 226.335538 144.792908 
L 209.619964 239.274314 
L 210.517072 239.008031 
L 208.551687 242.910308 
L 208.044471 238.57058 
L 208.795763 239.128497 
L 225.511337 144.647092 
L 226.335538 144.792908 
" clip-path="url(#pa288681bc0)" style="fill: #0000ff"/>
    <path d="M 226.080523 144.3321 
L 351.724133 195.21329 
L 351.650404 194.280405 
L 355.058146 197.014961 
L 350.70789 196.607804 
L 351.409962 195.98909 
L 225.766352 145.1079 
L 226.080523 144.3321 
" clip-path="url(#pa288681bc0)" style="fill: #0000ff"/>
    <path d="M 225.759121 144.335107 
L 349.46307 91.524144 
L 348.749545 90.918675 
L 353.091421 90.430191 
L 349.735442 93.228031 
L 349.791702 92.29393 
L 226.087754 145.104893 
L 225.759121 144.335107 
" clip-path="url(#pa288681bc0)" style="fill: #0000ff"/>
    <path d="M 226.265355 144.478681 
L 287.506026 231.248519 
L 287.948541 230.423963 
L 289.335982 234.567092 
L 285.897038 231.871879 
L 286.822192 231.731157 
L 225.58152 144.961319 
L 226.265355 144.478681 
" clip-path="url(#pa288681bc0)" style="fill: #0000ff"/>
    <path d="M 225.706877 144.361889 
L 333.859918 78.958578 
L 333.068686 78.458915 
L 337.299482 77.367645 
L 334.368049 80.607584 
L 334.293039 79.674801 
L 226.139998 145.078111 
L 225.706877 144.361889 
" clip-path="url(#pa288681bc0)" style="fill: #0000ff"/>
    <path d="M 226.095476 145.101504 
L 104.525292 199.923262 
L 105.250872 200.514232 
L 100.91972 201.090102 
L 104.218643 198.225209 
L 104.181215 199.160255 
L 225.751399 144.338496 
L 226.095476 145.101504 
" clip-path="url(#pa288681bc0)" style="fill: #0000ff"/>
    <path d="M 226.243378 144.989778 
L 155.574641 228.798752 
L 156.484301 229.018367 
L 152.826699 231.408442 
L 154.564656 227.3997 
L 154.93476 228.259197 
L 225.603497 144.450222 
L 226.243378 144.989778 
" clip-path="url(#pa288681bc0)" style="fill: #0000ff"/>
    <path d="M 225.60444 144.449107 
L 296.661582 60.773856 
L 295.752695 60.551068 
L 299.418616 58.173774 
L 297.666678 62.176425 
L 297.299577 61.315642 
L 226.242435 144.990893 
L 225.60444 144.449107 
" clip-path="url(#pa288681bc0)" style="fill: #0000ff"/>
    <path d="M 226.211015 145.024042 
L 142.804726 223.913604 
L 143.683923 224.234111 
L 139.78077 226.197756 
L 141.958459 222.409858 
L 142.229572 223.305519 
L 225.63586 144.415958 
L 226.211015 145.024042 
" clip-path="url(#pa288681bc0)" style="fill: #0000ff"/>
    <path d="M 226.120381 144.350737 
L 340.404799 205.303378 
L 340.429423 204.367908 
L 343.531226 207.445134 
L 339.247761 206.583488 
L 340.010912 206.041905 
L 225.726494 145.089263 
L 226.120381 144.350737 
" clip-path="url(#pa288681bc0)" style="fill: #0000ff"/>
    <path d="M 225.766291 145.107875 
L 100.138726 94.210293 
L 100.212309 95.14319 
L 96.804995 92.4081 
L 101.155187 92.815938 
L 100.453019 93.434542 
L 226.080584 144.332125 
L 225.766291 145.107875 
" clip-path="url(#pa288681bc0)" style="fill: #0000ff"/>
    <path d="M 225.625302 144.426304 
L 304.997289 63.854618 
L 304.107322 63.565361 
L 307.938691 61.465095 
L 305.896135 65.327539 
L 305.59356 64.442011 
L 226.221573 145.013696 
L 225.625302 144.426304 
" clip-path="url(#pa288681bc0)" style="fill: #0000ff"/>
    <path d="M 226.317531 144.579172 
L 259.454578 237.309811 
L 260.101937 236.634061 
L 260.327939 240.997481 
L 257.737376 237.479031 
L 258.666391 237.591468 
L 225.529344 144.860828 
L 226.317531 144.579172 
" clip-path="url(#pa288681bc0)" style="fill: #0000ff"/>
    <path d="M 226.252897 144.461933 
L 292.933244 229.589126 
L 293.334097 228.743533 
L 294.926385 232.812332 
L 291.357338 230.291933 
L 292.274324 230.10526 
L 225.593978 144.978067 
L 226.252897 144.461933 
" clip-path="url(#pa288681bc0)" style="fill: #0000ff"/>
    <path d="M 226.2665 144.959687 
L 165.540741 231.876079 
L 166.466555 232.01239 
L 163.040492 234.723958 
L 164.408177 230.574266 
L 164.854615 231.396704 
L 225.580375 144.480313 
L 226.2665 144.959687 
" clip-path="url(#pa288681bc0)" style="fill: #0000ff"/>
    <path d="M 226.292175 144.917926 
L 177.978219 234.927204 
L 178.913621 234.954318 
L 175.828147 238.047917 
L 176.701194 233.766762 
L 177.240744 234.531352 
L 225.5547 144.522074 
L 226.292175 144.917926 
" clip-path="url(#pa288681bc0)" style="fill: #0000ff"/>
    <path d="M 226.15319 145.069794 
L 122.300402 213.28245 
L 123.109701 213.752287 
L 118.922499 215.000426 
L 121.731187 211.65352 
L 121.840897 212.582861 
L 225.693685 144.370206 
L 226.15319 145.069794 
" clip-path="url(#pa288681bc0)" style="fill: #0000ff"/>
    <path d="M 226.027496 145.125357 
L 88.148413 180.520031 
L 88.761887 181.226687 
L 84.396144 181.0512 
L 88.137537 178.794546 
L 87.940297 179.709318 
L 225.819379 144.314643 
L 226.027496 145.125357 
" clip-path="url(#pa288681bc0)" style="fill: #0000ff"/>
    <path d="M 225.634021 144.417708 
L 308.345077 65.229553 
L 307.463952 64.914386 
L 311.35512 62.927097 
L 309.200451 66.728137 
L 308.92391 65.834137 
L 226.212854 145.022292 
L 225.634021 144.417708 
" clip-path="url(#pa288681bc0)" style="fill: #0000ff"/>
    <path d="M 225.87332 145.135488 
L 79.989599 127.538628 
L 80.304853 128.419721 
L 76.300322 126.672084 
L 80.605556 125.926792 
L 80.089834 126.707651 
L 225.973555 144.304512 
L 225.87332 145.135488 
" clip-path="url(#pa288681bc0)" style="fill: #0000ff"/>
    <path d="M 225.529309 144.860731 
L 192.416907 52.126559 
L 191.769381 52.802149 
L 191.544459 48.438674 
L 194.134151 51.957765 
L 193.205163 51.845098 
L 226.317566 144.579269 
L 225.529309 144.860731 
" clip-path="url(#pa288681bc0)" style="fill: #0000ff"/>
    <path d="M 226.08225 145.107196 
L 100.896522 196.453287 
L 101.601343 197.068868 
L 97.252944 197.4954 
L 100.64847 194.74569 
L 100.578898 195.678895 
L 225.764625 144.332804 
L 226.08225 145.107196 
" clip-path="url(#pa288681bc0)" style="fill: #0000ff"/>
    <path d="M 226.202418 144.408051 
L 312.818445 221.870101 
L 313.064458 220.967223 
L 315.347004 224.692876 
L 311.390574 222.838916 
L 312.260484 222.493999 
L 225.644457 145.031949 
L 226.202418 144.408051 
" clip-path="url(#pa288681bc0)" style="fill: #0000ff"/>
    <path d="M 225.833599 145.128744 
L 85.361399 114.254266 
L 85.590467 115.161591 
L 81.772545 113.03698 
L 86.129495 112.709129 
L 85.541075 113.436778 
L 226.013276 144.311256 
L 225.833599 145.128744 
" clip-path="url(#pa288681bc0)" style="fill: #0000ff"/>
    <path d="M 226.024206 144.313813 
L 364.531721 178.675339 
L 364.327071 177.762196 
L 368.086636 179.988443 
L 363.722459 180.199318 
L 364.330183 179.487713 
L 225.822669 145.126187 
L 226.024206 144.313813 
" clip-path="url(#pa288681bc0)" style="fill: #0000ff"/>
    <path d="M 225.957937 144.302924 
L 373.166559 156.47984 
L 372.818483 155.611189 
L 376.885738 157.207415 
L 372.611483 158.113642 
L 373.097559 157.313991 
L 225.888938 145.137076 
L 225.957937 144.302924 
" clip-path="url(#pa288681bc0)" style="fill: #0000ff"/>
    <path d="M 225.965805 145.13635 
L 79.36545 160.054446 
L 79.866536 160.844778 
L 75.575934 160.019407 
L 79.612329 158.346678 
L 79.280714 159.221746 
L 225.88107 144.30365 
L 225.965805 145.13635 
" clip-path="url(#pa288681bc0)" style="fill: #0000ff"/>
    <path d="M 226.291172 144.520216 
L 275.12966 234.415236 
L 275.665345 233.647933 
L 276.559982 237.924629 
L 273.458938 234.846638 
L 274.394191 234.814804 
L 225.555703 144.919784 
L 226.291172 144.520216 
" clip-path="url(#pa288681bc0)" style="fill: #0000ff"/>
    <path d="M 225.903917 145.138045 
L 77.876311 138.225967 
L 78.255314 139.081576 
L 74.133431 137.632239 
L 78.372437 136.573309 
L 77.915351 137.389878 
L 225.942958 144.301955 
L 225.903917 145.138045 
" clip-path="url(#pa288681bc0)" style="fill: #0000ff"/>
    <path d="M 225.876729 144.304115 
L 372.089901 127.882719 
L 371.580599 127.097657 
L 375.879577 127.878226 
L 371.860851 129.592968 
L 372.183319 128.714489 
L 225.970146 145.135885 
L 225.876729 144.304115 
" clip-path="url(#pa288681bc0)" style="fill: #0000ff"/>
    <path d="M 225.746172 144.340897 
L 345.837027 88.187544 
L 345.103393 87.606602 
L 349.426222 86.971261 
L 346.166984 89.881222 
L 346.191557 88.945751 
L 226.100703 145.099103 
L 225.746172 144.340897 
" clip-path="url(#pa288681bc0)" style="fill: #0000ff"/>
    <path d="M 225.655053 145.041111 
L 135.168532 69.41256 
L 134.952875 70.323166 
L 132.546919 66.675992 
L 136.56318 68.396501 
L 135.705301 68.770339 
L 226.191822 144.398889 
L 225.655053 145.041111 
" clip-path="url(#pa288681bc0)" style="fill: #0000ff"/>
    <path d="M 225.53777 144.882489 
L 186.834955 53.021667 
L 186.226109 53.732313 
L 185.758217 49.38817 
L 188.540114 52.757376 
L 187.60629 52.696688 
L 226.309105 144.557511 
L 225.53777 144.882489 
" clip-path="url(#pa288681bc0)" style="fill: #0000ff"/>
    <path d="M 225.827813 145.127429 
L 86.371694 112.396848 
L 86.587874 113.307329 
L 82.800458 111.128801 
L 87.161619 110.862756 
L 86.562942 111.58199 
L 226.019062 144.312571 
L 225.827813 145.127429 
" clip-path="url(#pa288681bc0)" style="fill: #0000ff"/>
    <path d="M 226.15619 144.372195 
L 329.011764 213.203681 
L 329.129465 212.275318 
L 331.909256 215.646262 
L 327.732947 214.362148 
L 328.546258 213.899291 
L 225.690685 145.067805 
L 226.15619 144.372195 
" clip-path="url(#pa288681bc0)" style="fill: #0000ff"/>
    <path d="M 225.938273 144.301763 
L 374.129494 149.558239 
L 373.740928 148.70693 
L 377.878792 150.109993 
L 373.651916 151.216352 
L 374.099824 150.394713 
L 225.908602 145.138237 
L 225.938273 144.301763 
" clip-path="url(#pa288681bc0)" style="fill: #0000ff"/>
    <path d="M 225.50684 144.759859 
L 216.427454 49.863134 
L 215.634117 50.359449 
L 216.485324 46.073897 
L 218.133703 50.120297 
L 217.260649 49.783417 
L 226.340035 144.680141 
L 225.50684 144.759859 
" clip-path="url(#pa288681bc0)" style="fill: #0000ff"/>
    <path d="M 226.302759 144.543203 
L 268.80229 235.726606 
L 269.384136 234.99369 
L 270.014146 239.317299 
L 267.108206 236.054474 
L 268.043647 236.080201 
L 225.544116 144.896797 
L 226.302759 144.543203 
" clip-path="url(#pa288681bc0)" style="fill: #0000ff"/>
    <path d="M 225.829644 144.312146 
L 365.613168 112.166443 
L 365.017727 111.444528 
L 369.37765 111.730158 
L 365.580487 113.891653 
L 365.800755 112.982152 
L 226.017231 145.127854 
L 225.829644 144.312146 
" clip-path="url(#pa288681bc0)" style="fill: #0000ff"/>
    <path d="M 225.660939 144.39406 
L 318.258026 69.820007 
L 317.407089 69.430626 
L 321.453981 67.783456 
L 318.982082 71.386264 
L 318.783024 70.471886 
L 226.185936 145.04594 
L 225.660939 144.39406 
" clip-path="url(#pa288681bc0)" style="fill: #0000ff"/>
   </g>
   <g id="matplotlib.axis_1">
    <g id="xtick_1">
     <g id="line2d_1">
      <defs>
       <path id="m4f7889f6bb" d="M 0 0 
L 0 3.5 
" style="stroke: #000000; stroke-width: 0.8"/>
      </defs>
      <g>
       <use xlink:href="#m4f7889f6bb" x="73.741619" y="253.44" style="stroke: #000000; stroke-width: 0.8"/>
      </g>
     </g>
     <g id="text_1">
      <!-- −1.00 -->
      <g transform="translate(58.418963 268.038437) scale(0.1 -0.1)">
       <defs>
        <path id="DejaVuSans-2212" d="M 678 2272 
L 4684 2272 
L 4684 1741 
L 678 1741 
L 678 2272 
z
" transform="scale(0.015625)"/>
        <path id="DejaVuSans-31" d="M 794 531 
L 1825 531 
L 1825 4091 
L 703 3866 
L 703 4441 
L 1819 4666 
L 2450 4666 
L 2450 531 
L 3481 531 
L 3481 0 
L 794 0 
L 794 531 
z
" transform="scale(0.015625)"/>
        <path id="DejaVuSans-2e" d="M 684 794 
L 1344 794 
L 1344 0 
L 684 0 
L 684 794 
z
" transform="scale(0.015625)"/>
        <path id="DejaVuSans-30" d="M 2034 4250 
Q 1547 4250 1301 3770 
Q 1056 3291 1056 2328 
Q 1056 1369 1301 889 
Q 1547 409 2034 409 
Q 2525 409 2770 889 
Q 3016 1369 3016 2328 
Q 3016 3291 2770 3770 
Q 2525 4250 2034 4250 
z
M 2034 4750 
Q 2819 4750 3233 4129 
Q 3647 3509 3647 2328 
Q 3647 1150 3233 529 
Q 2819 -91 2034 -91 
Q 1250 -91 836 529 
Q 422 1150 422 2328 
Q 422 3509 836 4129 
Q 1250 4750 2034 4750 
z
" transform="scale(0.015625)"/>
       </defs>
       <use xlink:href="#DejaVuSans-2212"/>
       <use xlink:href="#DejaVuSans-31" x="83.789062"/>
       <use xlink:href="#DejaVuSans-2e" x="147.412109"/>
       <use xlink:href="#DejaVuSans-30" x="179.199219"/>
       <use xlink:href="#DejaVuSans-30" x="242.822266"/>
      </g>
     </g>
    </g>
    <g id="xtick_2">
     <g id="line2d_2">
      <g>
       <use xlink:href="#m4f7889f6bb" x="111.787074" y="253.44" style="stroke: #000000; stroke-width: 0.8"/>
      </g>
     </g>
     <g id="text_2">
      <!-- −0.75 -->
      <g transform="translate(96.464418 268.038437) scale(0.1 -0.1)">
       <defs>
        <path id="DejaVuSans-37" d="M 525 4666 
L 3525 4666 
L 3525 4397 
L 1831 0 
L 1172 0 
L 2766 4134 
L 525 4134 
L 525 4666 
z
" transform="scale(0.015625)"/>
        <path id="DejaVuSans-35" d="M 691 4666 
L 3169 4666 
L 3169 4134 
L 1269 4134 
L 1269 2991 
Q 1406 3038 1543 3061 
Q 1681 3084 1819 3084 
Q 2600 3084 3056 2656 
Q 3513 2228 3513 1497 
Q 3513 744 3044 326 
Q 2575 -91 1722 -91 
Q 1428 -91 1123 -41 
Q 819 9 494 109 
L 494 744 
Q 775 591 1075 516 
Q 1375 441 1709 441 
Q 2250 441 2565 725 
Q 2881 1009 2881 1497 
Q 2881 1984 2565 2268 
Q 2250 2553 1709 2553 
Q 1456 2553 1204 2497 
Q 953 2441 691 2322 
L 691 4666 
z
" transform="scale(0.015625)"/>
       </defs>
       <use xlink:href="#DejaVuSans-2212"/>
       <use xlink:href="#DejaVuSans-30" x="83.789062"/>
       <use xlink:href="#DejaVuSans-2e" x="147.412109"/>
       <use xlink:href="#DejaVuSans-37" x="179.199219"/>
       <use xlink:href="#DejaVuSans-35" x="242.822266"/>
      </g>
     </g>
    </g>
    <g id="xtick_3">
     <g id="line2d_3">
      <g>
       <use xlink:href="#m4f7889f6bb" x="149.832528" y="253.44" style="stroke: #000000; stroke-width: 0.8"/>
      </g>
     </g>
     <g id="text_3">
      <!-- −0.50 -->
      <g transform="translate(134.509872 268.038437) scale(0.1 -0.1)">
       <use xlink:href="#DejaVuSans-2212"/>
       <use xlink:href="#DejaVuSans-30" x="83.789062"/>
       <use xlink:href="#DejaVuSans-2e" x="147.412109"/>
       <use xlink:href="#DejaVuSans-35" x="179.199219"/>
       <use xlink:href="#DejaVuSans-30" x="242.822266"/>
      </g>
     </g>
    </g>
    <g id="xtick_4">
     <g id="line2d_4">
      <g>
       <use xlink:href="#m4f7889f6bb" x="187.877983" y="253.44" style="stroke: #000000; stroke-width: 0.8"/>
      </g>
     </g>
     <g id="text_4">
      <!-- −0.25 -->
      <g transform="translate(172.555327 268.038437) scale(0.1 -0.1)">
       <defs>
        <path id="DejaVuSans-32" d="M 1228 531 
L 3431 531 
L 3431 0 
L 469 0 
L 469 531 
Q 828 903 1448 1529 
Q 2069 2156 2228 2338 
Q 2531 2678 2651 2914 
Q 2772 3150 2772 3378 
Q 2772 3750 2511 3984 
Q 2250 4219 1831 4219 
Q 1534 4219 1204 4116 
Q 875 4013 500 3803 
L 500 4441 
Q 881 4594 1212 4672 
Q 1544 4750 1819 4750 
Q 2544 4750 2975 4387 
Q 3406 4025 3406 3419 
Q 3406 3131 3298 2873 
Q 3191 2616 2906 2266 
Q 2828 2175 2409 1742 
Q 1991 1309 1228 531 
z
" transform="scale(0.015625)"/>
       </defs>
       <use xlink:href="#DejaVuSans-2212"/>
       <use xlink:href="#DejaVuSans-30" x="83.789062"/>
       <use xlink:href="#DejaVuSans-2e" x="147.412109"/>
       <use xlink:href="#DejaVuSans-32" x="179.199219"/>
       <use xlink:href="#DejaVuSans-35" x="242.822266"/>
      </g>
     </g>
    </g>
    <g id="xtick_5">
     <g id="line2d_5">
      <g>
       <use xlink:href="#m4f7889f6bb" x="225.923438" y="253.44" style="stroke: #000000; stroke-width: 0.8"/>
      </g>
     </g>
     <g id="text_5">
      <!-- 0.00 -->
      <g transform="translate(214.790625 268.038437) scale(0.1 -0.1)">
       <use xlink:href="#DejaVuSans-30"/>
       <use xlink:href="#DejaVuSans-2e" x="63.623047"/>
       <use xlink:href="#DejaVuSans-30" x="95.410156"/>
       <use xlink:href="#DejaVuSans-30" x="159.033203"/>
      </g>
     </g>
    </g>
    <g id="xtick_6">
     <g id="line2d_6">
      <g>
       <use xlink:href="#m4f7889f6bb" x="263.968892" y="253.44" style="stroke: #000000; stroke-width: 0.8"/>
      </g>
     </g>
     <g id="text_6">
      <!-- 0.25 -->
      <g transform="translate(252.83608 268.038437) scale(0.1 -0.1)">
       <use xlink:href="#DejaVuSans-30"/>
       <use xlink:href="#DejaVuSans-2e" x="63.623047"/>
       <use xlink:href="#DejaVuSans-32" x="95.410156"/>
       <use xlink:href="#DejaVuSans-35" x="159.033203"/>
      </g>
     </g>
    </g>
    <g id="xtick_7">
     <g id="line2d_7">
      <g>
       <use xlink:href="#m4f7889f6bb" x="302.014347" y="253.44" style="stroke: #000000; stroke-width: 0.8"/>
      </g>
     </g>
     <g id="text_7">
      <!-- 0.50 -->
      <g transform="translate(290.881534 268.038437) scale(0.1 -0.1)">
       <use xlink:href="#DejaVuSans-30"/>
       <use xlink:href="#DejaVuSans-2e" x="63.623047"/>
       <use xlink:href="#DejaVuSans-35" x="95.410156"/>
       <use xlink:href="#DejaVuSans-30" x="159.033203"/>
      </g>
     </g>
    </g>
    <g id="xtick_8">
     <g id="line2d_8">
      <g>
       <use xlink:href="#m4f7889f6bb" x="340.059801" y="253.44" style="stroke: #000000; stroke-width: 0.8"/>
      </g>
     </g>
     <g id="text_8">
      <!-- 0.75 -->
      <g transform="translate(328.926989 268.038437) scale(0.1 -0.1)">
       <use xlink:href="#DejaVuSans-30"/>
       <use xlink:href="#DejaVuSans-2e" x="63.623047"/>
       <use xlink:href="#DejaVuSans-37" x="95.410156"/>
       <use xlink:href="#DejaVuSans-35" x="159.033203"/>
      </g>
     </g>
    </g>
    <g id="xtick_9">
     <g id="line2d_9">
      <g>
       <use xlink:href="#m4f7889f6bb" x="378.105256" y="253.44" style="stroke: #000000; stroke-width: 0.8"/>
      </g>
     </g>
     <g id="text_9">
      <!-- 1.00 -->
      <g transform="translate(366.972443 268.038437) scale(0.1 -0.1)">
       <use xlink:href="#DejaVuSans-31"/>
       <use xlink:href="#DejaVuSans-2e" x="63.623047"/>
       <use xlink:href="#DejaVuSans-30" x="95.410156"/>
       <use xlink:href="#DejaVuSans-30" x="159.033203"/>
      </g>
     </g>
    </g>
    <g id="text_10">
     <!-- $x_1$ -->
     <g transform="translate(220.573438 281.716562) scale(0.1 -0.1)">
      <defs>
       <path id="DejaVuSans-Oblique-78" d="M 3841 3500 
L 2234 1784 
L 3219 0 
L 2559 0 
L 1819 1388 
L 531 0 
L -166 0 
L 1556 1844 
L 641 3500 
L 1300 3500 
L 1972 2234 
L 3144 3500 
L 3841 3500 
z
" transform="scale(0.015625)"/>
      </defs>
      <use xlink:href="#DejaVuSans-Oblique-78" transform="translate(0 0.3125)"/>
      <use xlink:href="#DejaVuSans-31" transform="translate(59.179688 -16.09375) scale(0.7)"/>
     </g>
    </g>
   </g>
   <g id="matplotlib.axis_2">
    <g id="ytick_1">
     <g id="line2d_10">
      <defs>
       <path id="m245dbd4b77" d="M 0 0 
L -3.5 0 
" style="stroke: #000000; stroke-width: 0.8"/>
      </defs>
      <g>
       <use xlink:href="#m245dbd4b77" x="58.523438" y="243.556364" style="stroke: #000000; stroke-width: 0.8"/>
      </g>
     </g>
     <g id="text_11">
      <!-- −1.00 -->
      <g transform="translate(20.878125 247.355582) scale(0.1 -0.1)">
       <use xlink:href="#DejaVuSans-2212"/>
       <use xlink:href="#DejaVuSans-31" x="83.789062"/>
       <use xlink:href="#DejaVuSans-2e" x="147.412109"/>
       <use xlink:href="#DejaVuSans-30" x="179.199219"/>
       <use xlink:href="#DejaVuSans-30" x="242.822266"/>
      </g>
     </g>
    </g>
    <g id="ytick_2">
     <g id="line2d_11">
      <g>
       <use xlink:href="#m245dbd4b77" x="58.523438" y="218.847273" style="stroke: #000000; stroke-width: 0.8"/>
      </g>
     </g>
     <g id="text_12">
      <!-- −0.75 -->
      <g transform="translate(20.878125 222.646491) scale(0.1 -0.1)">
       <use xlink:href="#DejaVuSans-2212"/>
       <use xlink:href="#DejaVuSans-30" x="83.789062"/>
       <use xlink:href="#DejaVuSans-2e" x="147.412109"/>
       <use xlink:href="#DejaVuSans-37" x="179.199219"/>
       <use xlink:href="#DejaVuSans-35" x="242.822266"/>
      </g>
     </g>
    </g>
    <g id="ytick_3">
     <g id="line2d_12">
      <g>
       <use xlink:href="#m245dbd4b77" x="58.523438" y="194.138182" style="stroke: #000000; stroke-width: 0.8"/>
      </g>
     </g>
     <g id="text_13">
      <!-- −0.50 -->
      <g transform="translate(20.878125 197.937401) scale(0.1 -0.1)">
       <use xlink:href="#DejaVuSans-2212"/>
       <use xlink:href="#DejaVuSans-30" x="83.789062"/>
       <use xlink:href="#DejaVuSans-2e" x="147.412109"/>
       <use xlink:href="#DejaVuSans-35" x="179.199219"/>
       <use xlink:href="#DejaVuSans-30" x="242.822266"/>
      </g>
     </g>
    </g>
    <g id="ytick_4">
     <g id="line2d_13">
      <g>
       <use xlink:href="#m245dbd4b77" x="58.523438" y="169.429091" style="stroke: #000000; stroke-width: 0.8"/>
      </g>
     </g>
     <g id="text_14">
      <!-- −0.25 -->
      <g transform="translate(20.878125 173.22831) scale(0.1 -0.1)">
       <use xlink:href="#DejaVuSans-2212"/>
       <use xlink:href="#DejaVuSans-30" x="83.789062"/>
       <use xlink:href="#DejaVuSans-2e" x="147.412109"/>
       <use xlink:href="#DejaVuSans-32" x="179.199219"/>
       <use xlink:href="#DejaVuSans-35" x="242.822266"/>
      </g>
     </g>
    </g>
    <g id="ytick_5">
     <g id="line2d_14">
      <g>
       <use xlink:href="#m245dbd4b77" x="58.523438" y="144.72" style="stroke: #000000; stroke-width: 0.8"/>
      </g>
     </g>
     <g id="text_15">
      <!-- 0.00 -->
      <g transform="translate(29.257813 148.519219) scale(0.1 -0.1)">
       <use xlink:href="#DejaVuSans-30"/>
       <use xlink:href="#DejaVuSans-2e" x="63.623047"/>
       <use xlink:href="#DejaVuSans-30" x="95.410156"/>
       <use xlink:href="#DejaVuSans-30" x="159.033203"/>
      </g>
     </g>
    </g>
    <g id="ytick_6">
     <g id="line2d_15">
      <g>
       <use xlink:href="#m245dbd4b77" x="58.523438" y="120.010909" style="stroke: #000000; stroke-width: 0.8"/>
      </g>
     </g>
     <g id="text_16">
      <!-- 0.25 -->
      <g transform="translate(29.257813 123.810128) scale(0.1 -0.1)">
       <use xlink:href="#DejaVuSans-30"/>
       <use xlink:href="#DejaVuSans-2e" x="63.623047"/>
       <use xlink:href="#DejaVuSans-32" x="95.410156"/>
       <use xlink:href="#DejaVuSans-35" x="159.033203"/>
      </g>
     </g>
    </g>
    <g id="ytick_7">
     <g id="line2d_16">
      <g>
       <use xlink:href="#m245dbd4b77" x="58.523438" y="95.301818" style="stroke: #000000; stroke-width: 0.8"/>
      </g>
     </g>
     <g id="text_17">
      <!-- 0.50 -->
      <g transform="translate(29.257813 99.101037) scale(0.1 -0.1)">
       <use xlink:href="#DejaVuSans-30"/>
       <use xlink:href="#DejaVuSans-2e" x="63.623047"/>
       <use xlink:href="#DejaVuSans-35" x="95.410156"/>
       <use xlink:href="#DejaVuSans-30" x="159.033203"/>
      </g>
     </g>
    </g>
    <g id="ytick_8">
     <g id="line2d_17">
      <g>
       <use xlink:href="#m245dbd4b77" x="58.523438" y="70.592727" style="stroke: #000000; stroke-width: 0.8"/>
      </g>
     </g>
     <g id="text_18">
      <!-- 0.75 -->
      <g transform="translate(29.257813 74.391946) scale(0.1 -0.1)">
       <use xlink:href="#DejaVuSans-30"/>
       <use xlink:href="#DejaVuSans-2e" x="63.623047"/>
       <use xlink:href="#DejaVuSans-37" x="95.410156"/>
       <use xlink:href="#DejaVuSans-35" x="159.033203"/>
      </g>
     </g>
    </g>
    <g id="ytick_9">
     <g id="line2d_18">
      <g>
       <use xlink:href="#m245dbd4b77" x="58.523438" y="45.883636" style="stroke: #000000; stroke-width: 0.8"/>
      </g>
     </g>
     <g id="text_19">
      <!-- 1.00 -->
      <g transform="translate(29.257813 49.682855) scale(0.1 -0.1)">
       <use xlink:href="#DejaVuSans-31"/>
       <use xlink:href="#DejaVuSans-2e" x="63.623047"/>
       <use xlink:href="#DejaVuSans-30" x="95.410156"/>
       <use xlink:href="#DejaVuSans-30" x="159.033203"/>
      </g>
     </g>
    </g>
    <g id="text_20">
     <!-- $x_2$ -->
     <g transform="translate(14.798438 150.07) rotate(-90) scale(0.1 -0.1)">
      <use xlink:href="#DejaVuSans-Oblique-78" transform="translate(0 0.3125)"/>
      <use xlink:href="#DejaVuSans-32" transform="translate(59.179688 -16.09375) scale(0.7)"/>
     </g>
    </g>
   </g>
   <g id="line2d_19">
    <defs>
     <path id="m6ec4f78d12" d="M 0 1.5 
C 0.397805 1.5 0.77937 1.341951 1.06066 1.06066 
C 1.341951 0.77937 1.5 0.397805 1.5 0 
C 1.5 -0.397805 1.341951 -0.77937 1.06066 -1.06066 
C 0.77937 -1.341951 0.397805 -1.5 0 -1.5 
C -0.397805 -1.5 -0.77937 -1.341951 -1.06066 -1.06066 
C -1.341951 -0.77937 -1.5 -0.397805 -1.5 0 
C -1.5 0.397805 -1.341951 0.77937 -1.06066 1.06066 
C -0.77937 1.341951 -0.397805 1.5 0 1.5 
z
" style="stroke: #ff0000"/>
    </defs>
    <g clip-path="url(#pa288681bc0)">
     <use xlink:href="#m6ec4f78d12" x="363.194137" y="187.387557" style="fill: #ff0000; stroke: #ff0000"/>
     <use xlink:href="#m6ec4f78d12" x="84.871695" y="107.616927" style="fill: #ff0000; stroke: #ff0000"/>
     <use xlink:href="#m6ec4f78d12" x="75.90626" y="161.330908" style="fill: #ff0000; stroke: #ff0000"/>
     <use xlink:href="#m6ec4f78d12" x="326.33413" y="218.989077" style="fill: #ff0000; stroke: #ff0000"/>
     <use xlink:href="#m6ec4f78d12" x="228.06093" y="45.893386" style="fill: #ff0000; stroke: #ff0000"/>
     <use xlink:href="#m6ec4f78d12" x="354.272679" y="91.615666" style="fill: #ff0000; stroke: #ff0000"/>
     <use xlink:href="#m6ec4f78d12" x="77.743952" y="122.201857" style="fill: #ff0000; stroke: #ff0000"/>
     <use xlink:href="#m6ec4f78d12" x="299.448074" y="231.255672" style="fill: #ff0000; stroke: #ff0000"/>
     <use xlink:href="#m6ec4f78d12" x="312.360642" y="226.066077" style="fill: #ff0000; stroke: #ff0000"/>
     <use xlink:href="#m6ec4f78d12" x="286.221242" y="53.97293" style="fill: #ff0000; stroke: #ff0000"/>
     <use xlink:href="#m6ec4f78d12" x="377.487496" y="153.616494" style="fill: #ff0000; stroke: #ff0000"/>
     <use xlink:href="#m6ec4f78d12" x="146.583901" y="229.061494" style="fill: #ff0000; stroke: #ff0000"/>
     <use xlink:href="#m6ec4f78d12" x="190.403696" y="240.826505" style="fill: #ff0000; stroke: #ff0000"/>
     <use xlink:href="#m6ec4f78d12" x="246.797222" y="46.817795" style="fill: #ff0000; stroke: #ff0000"/>
     <use xlink:href="#m6ec4f78d12" x="373.310605" y="120.106074" style="fill: #ff0000; stroke: #ff0000"/>
     <use xlink:href="#m6ec4f78d12" x="376.239255" y="129.289825" style="fill: #ff0000; stroke: #ff0000"/>
     <use xlink:href="#m6ec4f78d12" x="225.94797" y="243.556362" style="fill: #ff0000; stroke: #ff0000"/>
     <use xlink:href="#m6ec4f78d12" x="377.157193" y="155.735175" style="fill: #ff0000; stroke: #ff0000"/>
     <use xlink:href="#m6ec4f78d12" x="77.177555" y="165.603706" style="fill: #ff0000; stroke: #ff0000"/>
     <use xlink:href="#m6ec4f78d12" x="331.105418" y="216.149219" style="fill: #ff0000; stroke: #ff0000"/>
     <use xlink:href="#m6ec4f78d12" x="374.222833" y="122.537318" style="fill: #ff0000; stroke: #ff0000"/>
     <use xlink:href="#m6ec4f78d12" x="144.449679" y="228.198863" style="fill: #ff0000; stroke: #ff0000"/>
     <use xlink:href="#m6ec4f78d12" x="154.344803" y="231.941139" style="fill: #ff0000; stroke: #ff0000"/>
     <use xlink:href="#m6ec4f78d12" x="377.843511" y="150.514315" style="fill: #ff0000; stroke: #ff0000"/>
     <use xlink:href="#m6ec4f78d12" x="376.647087" y="158.369332" style="fill: #ff0000; stroke: #ff0000"/>
     <use xlink:href="#m6ec4f78d12" x="129.204932" y="68.412079" style="fill: #ff0000; stroke: #ff0000"/>
     <use xlink:href="#m6ec4f78d12" x="370.133935" y="113.151598" style="fill: #ff0000; stroke: #ff0000"/>
     <use xlink:href="#m6ec4f78d12" x="189.360428" y="240.661337" style="fill: #ff0000; stroke: #ff0000"/>
     <use xlink:href="#m6ec4f78d12" x="255.23356" y="47.734103" style="fill: #ff0000; stroke: #ff0000"/>
     <use xlink:href="#m6ec4f78d12" x="287.221322" y="235.184012" style="fill: #ff0000; stroke: #ff0000"/>
     <use xlink:href="#m6ec4f78d12" x="306.107705" y="228.723856" style="fill: #ff0000; stroke: #ff0000"/>
     <use xlink:href="#m6ec4f78d12" x="376.940043" y="132.512687" style="fill: #ff0000; stroke: #ff0000"/>
     <use xlink:href="#m6ec4f78d12" x="165.485515" y="235.427745" style="fill: #ff0000; stroke: #ff0000"/>
     <use xlink:href="#m6ec4f78d12" x="94.55499" y="194.613071" style="fill: #ff0000; stroke: #ff0000"/>
     <use xlink:href="#m6ec4f78d12" x="295.67509" y="56.876733" style="fill: #ff0000; stroke: #ff0000"/>
     <use xlink:href="#m6ec4f78d12" x="342.306867" y="208.401112" style="fill: #ff0000; stroke: #ff0000"/>
     <use xlink:href="#m6ec4f78d12" x="141.068348" y="62.674317" style="fill: #ff0000; stroke: #ff0000"/>
     <use xlink:href="#m6ec4f78d12" x="337.166387" y="77.27493" style="fill: #ff0000; stroke: #ff0000"/>
     <use xlink:href="#m6ec4f78d12" x="371.47211" y="115.858067" style="fill: #ff0000; stroke: #ff0000"/>
     <use xlink:href="#m6ec4f78d12" x="74.218879" y="152.541448" style="fill: #ff0000; stroke: #ff0000"/>
     <use xlink:href="#m6ec4f78d12" x="124.611933" y="70.968738" style="fill: #ff0000; stroke: #ff0000"/>
     <use xlink:href="#m6ec4f78d12" x="278.831961" y="52.049221" style="fill: #ff0000; stroke: #ff0000"/>
     <use xlink:href="#m6ec4f78d12" x="211.031652" y="243.082014" style="fill: #ff0000; stroke: #ff0000"/>
     <use xlink:href="#m6ec4f78d12" x="105.7593" y="205.367009" style="fill: #ff0000; stroke: #ff0000"/>
     <use xlink:href="#m6ec4f78d12" x="310.385848" y="62.503587" style="fill: #ff0000; stroke: #ff0000"/>
     <use xlink:href="#m6ec4f78d12" x="74.094258" y="151.444555" style="fill: #ff0000; stroke: #ff0000"/>
     <use xlink:href="#m6ec4f78d12" x="253.918607" y="47.57038" style="fill: #ff0000; stroke: #ff0000"/>
     <use xlink:href="#m6ec4f78d12" x="120.565343" y="216.039656" style="fill: #ff0000; stroke: #ff0000"/>
     <use xlink:href="#m6ec4f78d12" x="136.03811" y="224.474226" style="fill: #ff0000; stroke: #ff0000"/>
     <use xlink:href="#m6ec4f78d12" x="167.068823" y="235.865837" style="fill: #ff0000; stroke: #ff0000"/>
     <use xlink:href="#m6ec4f78d12" x="98.293487" y="90.889397" style="fill: #ff0000; stroke: #ff0000"/>
     <use xlink:href="#m6ec4f78d12" x="377.912072" y="139.741513" style="fill: #ff0000; stroke: #ff0000"/>
     <use xlink:href="#m6ec4f78d12" x="286.820547" y="235.298111" style="fill: #ff0000; stroke: #ff0000"/>
     <use xlink:href="#m6ec4f78d12" x="279.485075" y="52.20761" style="fill: #ff0000; stroke: #ff0000"/>
     <use xlink:href="#m6ec4f78d12" x="79.197949" y="118.491554" style="fill: #ff0000; stroke: #ff0000"/>
     <use xlink:href="#m6ec4f78d12" x="151.329814" y="230.868917" style="fill: #ff0000; stroke: #ff0000"/>
     <use xlink:href="#m6ec4f78d12" x="175.775215" y="51.404074" style="fill: #ff0000; stroke: #ff0000"/>
     <use xlink:href="#m6ec4f78d12" x="359.414063" y="192.177699" style="fill: #ff0000; stroke: #ff0000"/>
     <use xlink:href="#m6ec4f78d12" x="79.345073" y="118.146838" style="fill: #ff0000; stroke: #ff0000"/>
     <use xlink:href="#m6ec4f78d12" x="263.337083" y="48.917091" style="fill: #ff0000; stroke: #ff0000"/>
     <use xlink:href="#m6ec4f78d12" x="208.551687" y="242.910308" style="fill: #ff0000; stroke: #ff0000"/>
     <use xlink:href="#m6ec4f78d12" x="355.058146" y="197.014961" style="fill: #ff0000; stroke: #ff0000"/>
     <use xlink:href="#m6ec4f78d12" x="353.091421" y="90.430191" style="fill: #ff0000; stroke: #ff0000"/>
     <use xlink:href="#m6ec4f78d12" x="289.335982" y="234.567092" style="fill: #ff0000; stroke: #ff0000"/>
     <use xlink:href="#m6ec4f78d12" x="337.299482" y="77.367645" style="fill: #ff0000; stroke: #ff0000"/>
     <use xlink:href="#m6ec4f78d12" x="100.91972" y="201.090102" style="fill: #ff0000; stroke: #ff0000"/>
     <use xlink:href="#m6ec4f78d12" x="152.826699" y="231.408442" style="fill: #ff0000; stroke: #ff0000"/>
     <use xlink:href="#m6ec4f78d12" x="299.418616" y="58.173774" style="fill: #ff0000; stroke: #ff0000"/>
     <use xlink:href="#m6ec4f78d12" x="139.78077" y="226.197756" style="fill: #ff0000; stroke: #ff0000"/>
     <use xlink:href="#m6ec4f78d12" x="343.531226" y="207.445134" style="fill: #ff0000; stroke: #ff0000"/>
     <use xlink:href="#m6ec4f78d12" x="96.804995" y="92.4081" style="fill: #ff0000; stroke: #ff0000"/>
     <use xlink:href="#m6ec4f78d12" x="307.938691" y="61.465095" style="fill: #ff0000; stroke: #ff0000"/>
     <use xlink:href="#m6ec4f78d12" x="260.327939" y="240.997481" style="fill: #ff0000; stroke: #ff0000"/>
     <use xlink:href="#m6ec4f78d12" x="294.926385" y="232.812332" style="fill: #ff0000; stroke: #ff0000"/>
     <use xlink:href="#m6ec4f78d12" x="163.040492" y="234.723958" style="fill: #ff0000; stroke: #ff0000"/>
     <use xlink:href="#m6ec4f78d12" x="175.828147" y="238.047917" style="fill: #ff0000; stroke: #ff0000"/>
     <use xlink:href="#m6ec4f78d12" x="118.922499" y="215.000426" style="fill: #ff0000; stroke: #ff0000"/>
     <use xlink:href="#m6ec4f78d12" x="84.396144" y="181.0512" style="fill: #ff0000; stroke: #ff0000"/>
     <use xlink:href="#m6ec4f78d12" x="311.35512" y="62.927097" style="fill: #ff0000; stroke: #ff0000"/>
     <use xlink:href="#m6ec4f78d12" x="76.300322" y="126.672084" style="fill: #ff0000; stroke: #ff0000"/>
     <use xlink:href="#m6ec4f78d12" x="191.544459" y="48.438674" style="fill: #ff0000; stroke: #ff0000"/>
     <use xlink:href="#m6ec4f78d12" x="97.252944" y="197.4954" style="fill: #ff0000; stroke: #ff0000"/>
     <use xlink:href="#m6ec4f78d12" x="315.347004" y="224.692876" style="fill: #ff0000; stroke: #ff0000"/>
     <use xlink:href="#m6ec4f78d12" x="81.772545" y="113.03698" style="fill: #ff0000; stroke: #ff0000"/>
     <use xlink:href="#m6ec4f78d12" x="368.086636" y="179.988443" style="fill: #ff0000; stroke: #ff0000"/>
     <use xlink:href="#m6ec4f78d12" x="376.885738" y="157.207415" style="fill: #ff0000; stroke: #ff0000"/>
     <use xlink:href="#m6ec4f78d12" x="75.575934" y="160.019407" style="fill: #ff0000; stroke: #ff0000"/>
     <use xlink:href="#m6ec4f78d12" x="276.559982" y="237.924629" style="fill: #ff0000; stroke: #ff0000"/>
     <use xlink:href="#m6ec4f78d12" x="74.133431" y="137.632239" style="fill: #ff0000; stroke: #ff0000"/>
     <use xlink:href="#m6ec4f78d12" x="375.879577" y="127.878226" style="fill: #ff0000; stroke: #ff0000"/>
     <use xlink:href="#m6ec4f78d12" x="349.426222" y="86.971261" style="fill: #ff0000; stroke: #ff0000"/>
     <use xlink:href="#m6ec4f78d12" x="132.546919" y="66.675992" style="fill: #ff0000; stroke: #ff0000"/>
     <use xlink:href="#m6ec4f78d12" x="185.758217" y="49.38817" style="fill: #ff0000; stroke: #ff0000"/>
     <use xlink:href="#m6ec4f78d12" x="82.800458" y="111.128801" style="fill: #ff0000; stroke: #ff0000"/>
     <use xlink:href="#m6ec4f78d12" x="331.909256" y="215.646262" style="fill: #ff0000; stroke: #ff0000"/>
     <use xlink:href="#m6ec4f78d12" x="377.878792" y="150.109993" style="fill: #ff0000; stroke: #ff0000"/>
     <use xlink:href="#m6ec4f78d12" x="216.485324" y="46.073897" style="fill: #ff0000; stroke: #ff0000"/>
     <use xlink:href="#m6ec4f78d12" x="270.014146" y="239.317299" style="fill: #ff0000; stroke: #ff0000"/>
     <use xlink:href="#m6ec4f78d12" x="369.37765" y="111.730158" style="fill: #ff0000; stroke: #ff0000"/>
     <use xlink:href="#m6ec4f78d12" x="321.453981" y="67.783456" style="fill: #ff0000; stroke: #ff0000"/>
    </g>
   </g>
   <g id="patch_3">
    <path d="M 58.523438 253.44 
L 58.523438 36 
" style="fill: none; stroke: #000000; stroke-width: 0.8; stroke-linejoin: miter; stroke-linecap: square"/>
   </g>
   <g id="patch_4">
    <path d="M 393.323438 253.44 
L 393.323438 36 
" style="fill: none; stroke: #000000; stroke-width: 0.8; stroke-linejoin: miter; stroke-linecap: square"/>
   </g>
   <g id="patch_5">
    <path d="M 58.523438 253.44 
L 393.323438 253.44 
" style="fill: none; stroke: #000000; stroke-width: 0.8; stroke-linejoin: miter; stroke-linecap: square"/>
   </g>
   <g id="patch_6">
    <path d="M 58.523438 36 
L 393.323438 36 
" style="fill: none; stroke: #000000; stroke-width: 0.8; stroke-linejoin: miter; stroke-linecap: square"/>
   </g>
  </g>
  <g id="text_21">
   <!--  100 Encoders as Unit Vectors Uniformly Distributed About Unit Circle -->
   <g transform="translate(11.854688 16.318125) scale(0.12 -0.12)">
    <defs>
     <path id="DejaVuSans-20" transform="scale(0.015625)"/>
     <path id="DejaVuSans-45" d="M 628 4666 
L 3578 4666 
L 3578 4134 
L 1259 4134 
L 1259 2753 
L 3481 2753 
L 3481 2222 
L 1259 2222 
L 1259 531 
L 3634 531 
L 3634 0 
L 628 0 
L 628 4666 
z
" transform="scale(0.015625)"/>
     <path id="DejaVuSans-6e" d="M 3513 2113 
L 3513 0 
L 2938 0 
L 2938 2094 
Q 2938 2591 2744 2837 
Q 2550 3084 2163 3084 
Q 1697 3084 1428 2787 
Q 1159 2491 1159 1978 
L 1159 0 
L 581 0 
L 581 3500 
L 1159 3500 
L 1159 2956 
Q 1366 3272 1645 3428 
Q 1925 3584 2291 3584 
Q 2894 3584 3203 3211 
Q 3513 2838 3513 2113 
z
" transform="scale(0.015625)"/>
     <path id="DejaVuSans-63" d="M 3122 3366 
L 3122 2828 
Q 2878 2963 2633 3030 
Q 2388 3097 2138 3097 
Q 1578 3097 1268 2742 
Q 959 2388 959 1747 
Q 959 1106 1268 751 
Q 1578 397 2138 397 
Q 2388 397 2633 464 
Q 2878 531 3122 666 
L 3122 134 
Q 2881 22 2623 -34 
Q 2366 -91 2075 -91 
Q 1284 -91 818 406 
Q 353 903 353 1747 
Q 353 2603 823 3093 
Q 1294 3584 2113 3584 
Q 2378 3584 2631 3529 
Q 2884 3475 3122 3366 
z
" transform="scale(0.015625)"/>
     <path id="DejaVuSans-6f" d="M 1959 3097 
Q 1497 3097 1228 2736 
Q 959 2375 959 1747 
Q 959 1119 1226 758 
Q 1494 397 1959 397 
Q 2419 397 2687 759 
Q 2956 1122 2956 1747 
Q 2956 2369 2687 2733 
Q 2419 3097 1959 3097 
z
M 1959 3584 
Q 2709 3584 3137 3096 
Q 3566 2609 3566 1747 
Q 3566 888 3137 398 
Q 2709 -91 1959 -91 
Q 1206 -91 779 398 
Q 353 888 353 1747 
Q 353 2609 779 3096 
Q 1206 3584 1959 3584 
z
" transform="scale(0.015625)"/>
     <path id="DejaVuSans-64" d="M 2906 2969 
L 2906 4863 
L 3481 4863 
L 3481 0 
L 2906 0 
L 2906 525 
Q 2725 213 2448 61 
Q 2172 -91 1784 -91 
Q 1150 -91 751 415 
Q 353 922 353 1747 
Q 353 2572 751 3078 
Q 1150 3584 1784 3584 
Q 2172 3584 2448 3432 
Q 2725 3281 2906 2969 
z
M 947 1747 
Q 947 1113 1208 752 
Q 1469 391 1925 391 
Q 2381 391 2643 752 
Q 2906 1113 2906 1747 
Q 2906 2381 2643 2742 
Q 2381 3103 1925 3103 
Q 1469 3103 1208 2742 
Q 947 2381 947 1747 
z
" transform="scale(0.015625)"/>
     <path id="DejaVuSans-65" d="M 3597 1894 
L 3597 1613 
L 953 1613 
Q 991 1019 1311 708 
Q 1631 397 2203 397 
Q 2534 397 2845 478 
Q 3156 559 3463 722 
L 3463 178 
Q 3153 47 2828 -22 
Q 2503 -91 2169 -91 
Q 1331 -91 842 396 
Q 353 884 353 1716 
Q 353 2575 817 3079 
Q 1281 3584 2069 3584 
Q 2775 3584 3186 3129 
Q 3597 2675 3597 1894 
z
M 3022 2063 
Q 3016 2534 2758 2815 
Q 2500 3097 2075 3097 
Q 1594 3097 1305 2825 
Q 1016 2553 972 2059 
L 3022 2063 
z
" transform="scale(0.015625)"/>
     <path id="DejaVuSans-72" d="M 2631 2963 
Q 2534 3019 2420 3045 
Q 2306 3072 2169 3072 
Q 1681 3072 1420 2755 
Q 1159 2438 1159 1844 
L 1159 0 
L 581 0 
L 581 3500 
L 1159 3500 
L 1159 2956 
Q 1341 3275 1631 3429 
Q 1922 3584 2338 3584 
Q 2397 3584 2469 3576 
Q 2541 3569 2628 3553 
L 2631 2963 
z
" transform="scale(0.015625)"/>
     <path id="DejaVuSans-73" d="M 2834 3397 
L 2834 2853 
Q 2591 2978 2328 3040 
Q 2066 3103 1784 3103 
Q 1356 3103 1142 2972 
Q 928 2841 928 2578 
Q 928 2378 1081 2264 
Q 1234 2150 1697 2047 
L 1894 2003 
Q 2506 1872 2764 1633 
Q 3022 1394 3022 966 
Q 3022 478 2636 193 
Q 2250 -91 1575 -91 
Q 1294 -91 989 -36 
Q 684 19 347 128 
L 347 722 
Q 666 556 975 473 
Q 1284 391 1588 391 
Q 1994 391 2212 530 
Q 2431 669 2431 922 
Q 2431 1156 2273 1281 
Q 2116 1406 1581 1522 
L 1381 1569 
Q 847 1681 609 1914 
Q 372 2147 372 2553 
Q 372 3047 722 3315 
Q 1072 3584 1716 3584 
Q 2034 3584 2315 3537 
Q 2597 3491 2834 3397 
z
" transform="scale(0.015625)"/>
     <path id="DejaVuSans-61" d="M 2194 1759 
Q 1497 1759 1228 1600 
Q 959 1441 959 1056 
Q 959 750 1161 570 
Q 1363 391 1709 391 
Q 2188 391 2477 730 
Q 2766 1069 2766 1631 
L 2766 1759 
L 2194 1759 
z
M 3341 1997 
L 3341 0 
L 2766 0 
L 2766 531 
Q 2569 213 2275 61 
Q 1981 -91 1556 -91 
Q 1019 -91 701 211 
Q 384 513 384 1019 
Q 384 1609 779 1909 
Q 1175 2209 1959 2209 
L 2766 2209 
L 2766 2266 
Q 2766 2663 2505 2880 
Q 2244 3097 1772 3097 
Q 1472 3097 1187 3025 
Q 903 2953 641 2809 
L 641 3341 
Q 956 3463 1253 3523 
Q 1550 3584 1831 3584 
Q 2591 3584 2966 3190 
Q 3341 2797 3341 1997 
z
" transform="scale(0.015625)"/>
     <path id="DejaVuSans-55" d="M 556 4666 
L 1191 4666 
L 1191 1831 
Q 1191 1081 1462 751 
Q 1734 422 2344 422 
Q 2950 422 3222 751 
Q 3494 1081 3494 1831 
L 3494 4666 
L 4128 4666 
L 4128 1753 
Q 4128 841 3676 375 
Q 3225 -91 2344 -91 
Q 1459 -91 1007 375 
Q 556 841 556 1753 
L 556 4666 
z
" transform="scale(0.015625)"/>
     <path id="DejaVuSans-69" d="M 603 3500 
L 1178 3500 
L 1178 0 
L 603 0 
L 603 3500 
z
M 603 4863 
L 1178 4863 
L 1178 4134 
L 603 4134 
L 603 4863 
z
" transform="scale(0.015625)"/>
     <path id="DejaVuSans-74" d="M 1172 4494 
L 1172 3500 
L 2356 3500 
L 2356 3053 
L 1172 3053 
L 1172 1153 
Q 1172 725 1289 603 
Q 1406 481 1766 481 
L 2356 481 
L 2356 0 
L 1766 0 
Q 1100 0 847 248 
Q 594 497 594 1153 
L 594 3053 
L 172 3053 
L 172 3500 
L 594 3500 
L 594 4494 
L 1172 4494 
z
" transform="scale(0.015625)"/>
     <path id="DejaVuSans-56" d="M 1831 0 
L 50 4666 
L 709 4666 
L 2188 738 
L 3669 4666 
L 4325 4666 
L 2547 0 
L 1831 0 
z
" transform="scale(0.015625)"/>
     <path id="DejaVuSans-66" d="M 2375 4863 
L 2375 4384 
L 1825 4384 
Q 1516 4384 1395 4259 
Q 1275 4134 1275 3809 
L 1275 3500 
L 2222 3500 
L 2222 3053 
L 1275 3053 
L 1275 0 
L 697 0 
L 697 3053 
L 147 3053 
L 147 3500 
L 697 3500 
L 697 3744 
Q 697 4328 969 4595 
Q 1241 4863 1831 4863 
L 2375 4863 
z
" transform="scale(0.015625)"/>
     <path id="DejaVuSans-6d" d="M 3328 2828 
Q 3544 3216 3844 3400 
Q 4144 3584 4550 3584 
Q 5097 3584 5394 3201 
Q 5691 2819 5691 2113 
L 5691 0 
L 5113 0 
L 5113 2094 
Q 5113 2597 4934 2840 
Q 4756 3084 4391 3084 
Q 3944 3084 3684 2787 
Q 3425 2491 3425 1978 
L 3425 0 
L 2847 0 
L 2847 2094 
Q 2847 2600 2669 2842 
Q 2491 3084 2119 3084 
Q 1678 3084 1418 2786 
Q 1159 2488 1159 1978 
L 1159 0 
L 581 0 
L 581 3500 
L 1159 3500 
L 1159 2956 
Q 1356 3278 1631 3431 
Q 1906 3584 2284 3584 
Q 2666 3584 2933 3390 
Q 3200 3197 3328 2828 
z
" transform="scale(0.015625)"/>
     <path id="DejaVuSans-6c" d="M 603 4863 
L 1178 4863 
L 1178 0 
L 603 0 
L 603 4863 
z
" transform="scale(0.015625)"/>
     <path id="DejaVuSans-79" d="M 2059 -325 
Q 1816 -950 1584 -1140 
Q 1353 -1331 966 -1331 
L 506 -1331 
L 506 -850 
L 844 -850 
Q 1081 -850 1212 -737 
Q 1344 -625 1503 -206 
L 1606 56 
L 191 3500 
L 800 3500 
L 1894 763 
L 2988 3500 
L 3597 3500 
L 2059 -325 
z
" transform="scale(0.015625)"/>
     <path id="DejaVuSans-44" d="M 1259 4147 
L 1259 519 
L 2022 519 
Q 2988 519 3436 956 
Q 3884 1394 3884 2338 
Q 3884 3275 3436 3711 
Q 2988 4147 2022 4147 
L 1259 4147 
z
M 628 4666 
L 1925 4666 
Q 3281 4666 3915 4102 
Q 4550 3538 4550 2338 
Q 4550 1131 3912 565 
Q 3275 0 1925 0 
L 628 0 
L 628 4666 
z
" transform="scale(0.015625)"/>
     <path id="DejaVuSans-62" d="M 3116 1747 
Q 3116 2381 2855 2742 
Q 2594 3103 2138 3103 
Q 1681 3103 1420 2742 
Q 1159 2381 1159 1747 
Q 1159 1113 1420 752 
Q 1681 391 2138 391 
Q 2594 391 2855 752 
Q 3116 1113 3116 1747 
z
M 1159 2969 
Q 1341 3281 1617 3432 
Q 1894 3584 2278 3584 
Q 2916 3584 3314 3078 
Q 3713 2572 3713 1747 
Q 3713 922 3314 415 
Q 2916 -91 2278 -91 
Q 1894 -91 1617 61 
Q 1341 213 1159 525 
L 1159 0 
L 581 0 
L 581 4863 
L 1159 4863 
L 1159 2969 
z
" transform="scale(0.015625)"/>
     <path id="DejaVuSans-75" d="M 544 1381 
L 544 3500 
L 1119 3500 
L 1119 1403 
Q 1119 906 1312 657 
Q 1506 409 1894 409 
Q 2359 409 2629 706 
Q 2900 1003 2900 1516 
L 2900 3500 
L 3475 3500 
L 3475 0 
L 2900 0 
L 2900 538 
Q 2691 219 2414 64 
Q 2138 -91 1772 -91 
Q 1169 -91 856 284 
Q 544 659 544 1381 
z
M 1991 3584 
L 1991 3584 
z
" transform="scale(0.015625)"/>
     <path id="DejaVuSans-41" d="M 2188 4044 
L 1331 1722 
L 3047 1722 
L 2188 4044 
z
M 1831 4666 
L 2547 4666 
L 4325 0 
L 3669 0 
L 3244 1197 
L 1141 1197 
L 716 0 
L 50 0 
L 1831 4666 
z
" transform="scale(0.015625)"/>
     <path id="DejaVuSans-43" d="M 4122 4306 
L 4122 3641 
Q 3803 3938 3442 4084 
Q 3081 4231 2675 4231 
Q 1875 4231 1450 3742 
Q 1025 3253 1025 2328 
Q 1025 1406 1450 917 
Q 1875 428 2675 428 
Q 3081 428 3442 575 
Q 3803 722 4122 1019 
L 4122 359 
Q 3791 134 3420 21 
Q 3050 -91 2638 -91 
Q 1578 -91 968 557 
Q 359 1206 359 2328 
Q 359 3453 968 4101 
Q 1578 4750 2638 4750 
Q 3056 4750 3426 4639 
Q 3797 4528 4122 4306 
z
" transform="scale(0.015625)"/>
    </defs>
    <use xlink:href="#DejaVuSans-20"/>
    <use xlink:href="#DejaVuSans-31" x="31.787109"/>
    <use xlink:href="#DejaVuSans-30" x="95.410156"/>
    <use xlink:href="#DejaVuSans-30" x="159.033203"/>
    <use xlink:href="#DejaVuSans-20" x="222.65625"/>
    <use xlink:href="#DejaVuSans-45" x="254.443359"/>
    <use xlink:href="#DejaVuSans-6e" x="317.626953"/>
    <use xlink:href="#DejaVuSans-63" x="381.005859"/>
    <use xlink:href="#DejaVuSans-6f" x="435.986328"/>
    <use xlink:href="#DejaVuSans-64" x="497.167969"/>
    <use xlink:href="#DejaVuSans-65" x="560.644531"/>
    <use xlink:href="#DejaVuSans-72" x="622.167969"/>
    <use xlink:href="#DejaVuSans-73" x="663.28125"/>
    <use xlink:href="#DejaVuSans-20" x="715.380859"/>
    <use xlink:href="#DejaVuSans-61" x="747.167969"/>
    <use xlink:href="#DejaVuSans-73" x="808.447266"/>
    <use xlink:href="#DejaVuSans-20" x="860.546875"/>
    <use xlink:href="#DejaVuSans-55" x="892.333984"/>
    <use xlink:href="#DejaVuSans-6e" x="965.527344"/>
    <use xlink:href="#DejaVuSans-69" x="1028.90625"/>
    <use xlink:href="#DejaVuSans-74" x="1056.689453"/>
    <use xlink:href="#DejaVuSans-20" x="1095.898438"/>
    <use xlink:href="#DejaVuSans-56" x="1127.685547"/>
    <use xlink:href="#DejaVuSans-65" x="1188.34375"/>
    <use xlink:href="#DejaVuSans-63" x="1249.867188"/>
    <use xlink:href="#DejaVuSans-74" x="1304.847656"/>
    <use xlink:href="#DejaVuSans-6f" x="1344.056641"/>
    <use xlink:href="#DejaVuSans-72" x="1405.238281"/>
    <use xlink:href="#DejaVuSans-73" x="1446.351562"/>
    <use xlink:href="#DejaVuSans-20" x="1498.451172"/>
    <use xlink:href="#DejaVuSans-55" x="1530.238281"/>
    <use xlink:href="#DejaVuSans-6e" x="1603.431641"/>
    <use xlink:href="#DejaVuSans-69" x="1666.810547"/>
    <use xlink:href="#DejaVuSans-66" x="1694.59375"/>
    <use xlink:href="#DejaVuSans-6f" x="1729.798828"/>
    <use xlink:href="#DejaVuSans-72" x="1790.980469"/>
    <use xlink:href="#DejaVuSans-6d" x="1830.34375"/>
    <use xlink:href="#DejaVuSans-6c" x="1927.755859"/>
    <use xlink:href="#DejaVuSans-79" x="1955.539062"/>
    <use xlink:href="#DejaVuSans-20" x="2014.71875"/>
    <use xlink:href="#DejaVuSans-44" x="2046.505859"/>
    <use xlink:href="#DejaVuSans-69" x="2123.507812"/>
    <use xlink:href="#DejaVuSans-73" x="2151.291016"/>
    <use xlink:href="#DejaVuSans-74" x="2203.390625"/>
    <use xlink:href="#DejaVuSans-72" x="2242.599609"/>
    <use xlink:href="#DejaVuSans-69" x="2283.712891"/>
    <use xlink:href="#DejaVuSans-62" x="2311.496094"/>
    <use xlink:href="#DejaVuSans-75" x="2374.972656"/>
    <use xlink:href="#DejaVuSans-74" x="2438.351562"/>
    <use xlink:href="#DejaVuSans-65" x="2477.560547"/>
    <use xlink:href="#DejaVuSans-64" x="2539.083984"/>
    <use xlink:href="#DejaVuSans-20" x="2602.560547"/>
    <use xlink:href="#DejaVuSans-41" x="2634.347656"/>
    <use xlink:href="#DejaVuSans-62" x="2702.755859"/>
    <use xlink:href="#DejaVuSans-6f" x="2766.232422"/>
    <use xlink:href="#DejaVuSans-75" x="2827.414062"/>
    <use xlink:href="#DejaVuSans-74" x="2890.792969"/>
    <use xlink:href="#DejaVuSans-20" x="2930.001953"/>
    <use xlink:href="#DejaVuSans-55" x="2961.789062"/>
    <use xlink:href="#DejaVuSans-6e" x="3034.982422"/>
    <use xlink:href="#DejaVuSans-69" x="3098.361328"/>
    <use xlink:href="#DejaVuSans-74" x="3126.144531"/>
    <use xlink:href="#DejaVuSans-20" x="3165.353516"/>
    <use xlink:href="#DejaVuSans-43" x="3197.140625"/>
    <use xlink:href="#DejaVuSans-69" x="3266.964844"/>
    <use xlink:href="#DejaVuSans-72" x="3294.748047"/>
    <use xlink:href="#DejaVuSans-63" x="3333.611328"/>
    <use xlink:href="#DejaVuSans-6c" x="3388.591797"/>
    <use xlink:href="#DejaVuSans-65" x="3416.375"/>
   </g>
  </g>
 </g>
 <defs>
  <clipPath id="pa288681bc0">
   <rect x="58.523438" y="36" width="334.8" height="217.44"/>
  </clipPath>
 </defs>
</svg>
