<?xml version="1.0" encoding="utf-8" standalone="no"?>
<!DOCTYPE svg PUBLIC "-//W3C//DTD SVG 1.1//EN"
  "http://www.w3.org/Graphics/SVG/1.1/DTD/svg11.dtd">
<svg xmlns:xlink="http://www.w3.org/1999/xlink" width="476.4pt" height="291.918125pt" viewBox="0 0 476.4 291.918125" xmlns="http://www.w3.org/2000/svg" version="1.1">
 <metadata>
  <rdf:RDF xmlns:dc="http://purl.org/dc/elements/1.1/" xmlns:cc="http://creativecommons.org/ns#" xmlns:rdf="http://www.w3.org/1999/02/22-rdf-syntax-ns#">
   <cc:Work>
    <dc:type rdf:resource="http://purl.org/dc/dcmitype/StillImage"/>
    <dc:date>2022-09-28T18:49:59.405161</dc:date>
    <dc:format>image/svg+xml</dc:format>
    <dc:creator>
     <cc:Agent>
      <dc:title>Matplotlib v3.6.0, https://matplotlib.org/</dc:title>
     </cc:Agent>
    </dc:creator>
   </cc:Work>
  </rdf:RDF>
 </metadata>
 <defs>
  <style type="text/css">*{stroke-linejoin: round; stroke-linecap: butt}</style>
 </defs>
 <g id="figure_1">
  <g id="patch_1">
   <path d="M 0 291.918125 
L 476.4 291.918125 
L 476.4 0 
L 0 0 
L 0 291.918125 
z
" style="fill: none"/>
  </g>
  <g id="axes_1">
   <g id="patch_2">
    <path d="M 76.2 253.44 
L 411 253.44 
L 411 36 
L 76.2 36 
z
" style="fill: #ffffff"/>
   </g>
   <g id="matplotlib.axis_1">
    <g id="xtick_1">
     <g id="line2d_1">
      <defs>
       <path id="mc0ec5af284" d="M 0 0 
L 0 3.5 
" style="stroke: #000000; stroke-width: 0.8"/>
      </defs>
      <g>
       <use xlink:href="#mc0ec5af284" x="91.418182" y="253.44" style="stroke: #000000; stroke-width: 0.8"/>
      </g>
     </g>
     <g id="text_1">
      <!-- −1.00 -->
      <g transform="translate(76.095526 268.038437) scale(0.1 -0.1)">
       <defs>
        <path id="DejaVuSans-2212" d="M 678 2272 
L 4684 2272 
L 4684 1741 
L 678 1741 
L 678 2272 
z
" transform="scale(0.015625)"/>
        <path id="DejaVuSans-31" d="M 794 531 
L 1825 531 
L 1825 4091 
L 703 3866 
L 703 4441 
L 1819 4666 
L 2450 4666 
L 2450 531 
L 3481 531 
L 3481 0 
L 794 0 
L 794 531 
z
" transform="scale(0.015625)"/>
        <path id="DejaVuSans-2e" d="M 684 794 
L 1344 794 
L 1344 0 
L 684 0 
L 684 794 
z
" transform="scale(0.015625)"/>
        <path id="DejaVuSans-30" d="M 2034 4250 
Q 1547 4250 1301 3770 
Q 1056 3291 1056 2328 
Q 1056 1369 1301 889 
Q 1547 409 2034 409 
Q 2525 409 2770 889 
Q 3016 1369 3016 2328 
Q 3016 3291 2770 3770 
Q 2525 4250 2034 4250 
z
M 2034 4750 
Q 2819 4750 3233 4129 
Q 3647 3509 3647 2328 
Q 3647 1150 3233 529 
Q 2819 -91 2034 -91 
Q 1250 -91 836 529 
Q 422 1150 422 2328 
Q 422 3509 836 4129 
Q 1250 4750 2034 4750 
z
" transform="scale(0.015625)"/>
       </defs>
       <use xlink:href="#DejaVuSans-2212"/>
       <use xlink:href="#DejaVuSans-31" x="83.789062"/>
       <use xlink:href="#DejaVuSans-2e" x="147.412109"/>
       <use xlink:href="#DejaVuSans-30" x="179.199219"/>
       <use xlink:href="#DejaVuSans-30" x="242.822266"/>
      </g>
     </g>
    </g>
    <g id="xtick_2">
     <g id="line2d_2">
      <g>
       <use xlink:href="#mc0ec5af284" x="129.463636" y="253.44" style="stroke: #000000; stroke-width: 0.8"/>
      </g>
     </g>
     <g id="text_2">
      <!-- −0.75 -->
      <g transform="translate(114.14098 268.038437) scale(0.1 -0.1)">
       <defs>
        <path id="DejaVuSans-37" d="M 525 4666 
L 3525 4666 
L 3525 4397 
L 1831 0 
L 1172 0 
L 2766 4134 
L 525 4134 
L 525 4666 
z
" transform="scale(0.015625)"/>
        <path id="DejaVuSans-35" d="M 691 4666 
L 3169 4666 
L 3169 4134 
L 1269 4134 
L 1269 2991 
Q 1406 3038 1543 3061 
Q 1681 3084 1819 3084 
Q 2600 3084 3056 2656 
Q 3513 2228 3513 1497 
Q 3513 744 3044 326 
Q 2575 -91 1722 -91 
Q 1428 -91 1123 -41 
Q 819 9 494 109 
L 494 744 
Q 775 591 1075 516 
Q 1375 441 1709 441 
Q 2250 441 2565 725 
Q 2881 1009 2881 1497 
Q 2881 1984 2565 2268 
Q 2250 2553 1709 2553 
Q 1456 2553 1204 2497 
Q 953 2441 691 2322 
L 691 4666 
z
" transform="scale(0.015625)"/>
       </defs>
       <use xlink:href="#DejaVuSans-2212"/>
       <use xlink:href="#DejaVuSans-30" x="83.789062"/>
       <use xlink:href="#DejaVuSans-2e" x="147.412109"/>
       <use xlink:href="#DejaVuSans-37" x="179.199219"/>
       <use xlink:href="#DejaVuSans-35" x="242.822266"/>
      </g>
     </g>
    </g>
    <g id="xtick_3">
     <g id="line2d_3">
      <g>
       <use xlink:href="#mc0ec5af284" x="167.509091" y="253.44" style="stroke: #000000; stroke-width: 0.8"/>
      </g>
     </g>
     <g id="text_3">
      <!-- −0.50 -->
      <g transform="translate(152.186435 268.038437) scale(0.1 -0.1)">
       <use xlink:href="#DejaVuSans-2212"/>
       <use xlink:href="#DejaVuSans-30" x="83.789062"/>
       <use xlink:href="#DejaVuSans-2e" x="147.412109"/>
       <use xlink:href="#DejaVuSans-35" x="179.199219"/>
       <use xlink:href="#DejaVuSans-30" x="242.822266"/>
      </g>
     </g>
    </g>
    <g id="xtick_4">
     <g id="line2d_4">
      <g>
       <use xlink:href="#mc0ec5af284" x="205.554545" y="253.44" style="stroke: #000000; stroke-width: 0.8"/>
      </g>
     </g>
     <g id="text_4">
      <!-- −0.25 -->
      <g transform="translate(190.231889 268.038437) scale(0.1 -0.1)">
       <defs>
        <path id="DejaVuSans-32" d="M 1228 531 
L 3431 531 
L 3431 0 
L 469 0 
L 469 531 
Q 828 903 1448 1529 
Q 2069 2156 2228 2338 
Q 2531 2678 2651 2914 
Q 2772 3150 2772 3378 
Q 2772 3750 2511 3984 
Q 2250 4219 1831 4219 
Q 1534 4219 1204 4116 
Q 875 4013 500 3803 
L 500 4441 
Q 881 4594 1212 4672 
Q 1544 4750 1819 4750 
Q 2544 4750 2975 4387 
Q 3406 4025 3406 3419 
Q 3406 3131 3298 2873 
Q 3191 2616 2906 2266 
Q 2828 2175 2409 1742 
Q 1991 1309 1228 531 
z
" transform="scale(0.015625)"/>
       </defs>
       <use xlink:href="#DejaVuSans-2212"/>
       <use xlink:href="#DejaVuSans-30" x="83.789062"/>
       <use xlink:href="#DejaVuSans-2e" x="147.412109"/>
       <use xlink:href="#DejaVuSans-32" x="179.199219"/>
       <use xlink:href="#DejaVuSans-35" x="242.822266"/>
      </g>
     </g>
    </g>
    <g id="xtick_5">
     <g id="line2d_5">
      <g>
       <use xlink:href="#mc0ec5af284" x="243.6" y="253.44" style="stroke: #000000; stroke-width: 0.8"/>
      </g>
     </g>
     <g id="text_5">
      <!-- 0.00 -->
      <g transform="translate(232.467188 268.038437) scale(0.1 -0.1)">
       <use xlink:href="#DejaVuSans-30"/>
       <use xlink:href="#DejaVuSans-2e" x="63.623047"/>
       <use xlink:href="#DejaVuSans-30" x="95.410156"/>
       <use xlink:href="#DejaVuSans-30" x="159.033203"/>
      </g>
     </g>
    </g>
    <g id="xtick_6">
     <g id="line2d_6">
      <g>
       <use xlink:href="#mc0ec5af284" x="281.645455" y="253.44" style="stroke: #000000; stroke-width: 0.8"/>
      </g>
     </g>
     <g id="text_6">
      <!-- 0.25 -->
      <g transform="translate(270.512642 268.038437) scale(0.1 -0.1)">
       <use xlink:href="#DejaVuSans-30"/>
       <use xlink:href="#DejaVuSans-2e" x="63.623047"/>
       <use xlink:href="#DejaVuSans-32" x="95.410156"/>
       <use xlink:href="#DejaVuSans-35" x="159.033203"/>
      </g>
     </g>
    </g>
    <g id="xtick_7">
     <g id="line2d_7">
      <g>
       <use xlink:href="#mc0ec5af284" x="319.690909" y="253.44" style="stroke: #000000; stroke-width: 0.8"/>
      </g>
     </g>
     <g id="text_7">
      <!-- 0.50 -->
      <g transform="translate(308.558097 268.038437) scale(0.1 -0.1)">
       <use xlink:href="#DejaVuSans-30"/>
       <use xlink:href="#DejaVuSans-2e" x="63.623047"/>
       <use xlink:href="#DejaVuSans-35" x="95.410156"/>
       <use xlink:href="#DejaVuSans-30" x="159.033203"/>
      </g>
     </g>
    </g>
    <g id="xtick_8">
     <g id="line2d_8">
      <g>
       <use xlink:href="#mc0ec5af284" x="357.736364" y="253.44" style="stroke: #000000; stroke-width: 0.8"/>
      </g>
     </g>
     <g id="text_8">
      <!-- 0.75 -->
      <g transform="translate(346.603551 268.038437) scale(0.1 -0.1)">
       <use xlink:href="#DejaVuSans-30"/>
       <use xlink:href="#DejaVuSans-2e" x="63.623047"/>
       <use xlink:href="#DejaVuSans-37" x="95.410156"/>
       <use xlink:href="#DejaVuSans-35" x="159.033203"/>
      </g>
     </g>
    </g>
    <g id="xtick_9">
     <g id="line2d_9">
      <g>
       <use xlink:href="#mc0ec5af284" x="395.781818" y="253.44" style="stroke: #000000; stroke-width: 0.8"/>
      </g>
     </g>
     <g id="text_9">
      <!-- 1.00 -->
      <g transform="translate(384.649006 268.038437) scale(0.1 -0.1)">
       <use xlink:href="#DejaVuSans-31"/>
       <use xlink:href="#DejaVuSans-2e" x="63.623047"/>
       <use xlink:href="#DejaVuSans-30" x="95.410156"/>
       <use xlink:href="#DejaVuSans-30" x="159.033203"/>
      </g>
     </g>
    </g>
    <g id="text_10">
     <!-- $x$ (red) and $\hat x$ (blue) -->
     <g transform="translate(194.8 282.638437) scale(0.1 -0.1)">
      <defs>
       <path id="DejaVuSans-Oblique-78" d="M 3841 3500 
L 2234 1784 
L 3219 0 
L 2559 0 
L 1819 1388 
L 531 0 
L -166 0 
L 1556 1844 
L 641 3500 
L 1300 3500 
L 1972 2234 
L 3144 3500 
L 3841 3500 
z
" transform="scale(0.015625)"/>
       <path id="DejaVuSans-20" transform="scale(0.015625)"/>
       <path id="DejaVuSans-28" d="M 1984 4856 
Q 1566 4138 1362 3434 
Q 1159 2731 1159 2009 
Q 1159 1288 1364 580 
Q 1569 -128 1984 -844 
L 1484 -844 
Q 1016 -109 783 600 
Q 550 1309 550 2009 
Q 550 2706 781 3412 
Q 1013 4119 1484 4856 
L 1984 4856 
z
" transform="scale(0.015625)"/>
       <path id="DejaVuSans-72" d="M 2631 2963 
Q 2534 3019 2420 3045 
Q 2306 3072 2169 3072 
Q 1681 3072 1420 2755 
Q 1159 2438 1159 1844 
L 1159 0 
L 581 0 
L 581 3500 
L 1159 3500 
L 1159 2956 
Q 1341 3275 1631 3429 
Q 1922 3584 2338 3584 
Q 2397 3584 2469 3576 
Q 2541 3569 2628 3553 
L 2631 2963 
z
" transform="scale(0.015625)"/>
       <path id="DejaVuSans-65" d="M 3597 1894 
L 3597 1613 
L 953 1613 
Q 991 1019 1311 708 
Q 1631 397 2203 397 
Q 2534 397 2845 478 
Q 3156 559 3463 722 
L 3463 178 
Q 3153 47 2828 -22 
Q 2503 -91 2169 -91 
Q 1331 -91 842 396 
Q 353 884 353 1716 
Q 353 2575 817 3079 
Q 1281 3584 2069 3584 
Q 2775 3584 3186 3129 
Q 3597 2675 3597 1894 
z
M 3022 2063 
Q 3016 2534 2758 2815 
Q 2500 3097 2075 3097 
Q 1594 3097 1305 2825 
Q 1016 2553 972 2059 
L 3022 2063 
z
" transform="scale(0.015625)"/>
       <path id="DejaVuSans-64" d="M 2906 2969 
L 2906 4863 
L 3481 4863 
L 3481 0 
L 2906 0 
L 2906 525 
Q 2725 213 2448 61 
Q 2172 -91 1784 -91 
Q 1150 -91 751 415 
Q 353 922 353 1747 
Q 353 2572 751 3078 
Q 1150 3584 1784 3584 
Q 2172 3584 2448 3432 
Q 2725 3281 2906 2969 
z
M 947 1747 
Q 947 1113 1208 752 
Q 1469 391 1925 391 
Q 2381 391 2643 752 
Q 2906 1113 2906 1747 
Q 2906 2381 2643 2742 
Q 2381 3103 1925 3103 
Q 1469 3103 1208 2742 
Q 947 2381 947 1747 
z
" transform="scale(0.015625)"/>
       <path id="DejaVuSans-29" d="M 513 4856 
L 1013 4856 
Q 1481 4119 1714 3412 
Q 1947 2706 1947 2009 
Q 1947 1309 1714 600 
Q 1481 -109 1013 -844 
L 513 -844 
Q 928 -128 1133 580 
Q 1338 1288 1338 2009 
Q 1338 2731 1133 3434 
Q 928 4138 513 4856 
z
" transform="scale(0.015625)"/>
       <path id="DejaVuSans-61" d="M 2194 1759 
Q 1497 1759 1228 1600 
Q 959 1441 959 1056 
Q 959 750 1161 570 
Q 1363 391 1709 391 
Q 2188 391 2477 730 
Q 2766 1069 2766 1631 
L 2766 1759 
L 2194 1759 
z
M 3341 1997 
L 3341 0 
L 2766 0 
L 2766 531 
Q 2569 213 2275 61 
Q 1981 -91 1556 -91 
Q 1019 -91 701 211 
Q 384 513 384 1019 
Q 384 1609 779 1909 
Q 1175 2209 1959 2209 
L 2766 2209 
L 2766 2266 
Q 2766 2663 2505 2880 
Q 2244 3097 1772 3097 
Q 1472 3097 1187 3025 
Q 903 2953 641 2809 
L 641 3341 
Q 956 3463 1253 3523 
Q 1550 3584 1831 3584 
Q 2591 3584 2966 3190 
Q 3341 2797 3341 1997 
z
" transform="scale(0.015625)"/>
       <path id="DejaVuSans-6e" d="M 3513 2113 
L 3513 0 
L 2938 0 
L 2938 2094 
Q 2938 2591 2744 2837 
Q 2550 3084 2163 3084 
Q 1697 3084 1428 2787 
Q 1159 2491 1159 1978 
L 1159 0 
L 581 0 
L 581 3500 
L 1159 3500 
L 1159 2956 
Q 1366 3272 1645 3428 
Q 1925 3584 2291 3584 
Q 2894 3584 3203 3211 
Q 3513 2838 3513 2113 
z
" transform="scale(0.015625)"/>
       <path id="DejaVuSans-302" d="M -1831 5119 
L -1369 5119 
L -603 3944 
L -1038 3944 
L -1600 4709 
L -2163 3944 
L -2597 3944 
L -1831 5119 
z
M -1600 3584 
L -1600 3584 
z
" transform="scale(0.015625)"/>
       <path id="DejaVuSans-62" d="M 3116 1747 
Q 3116 2381 2855 2742 
Q 2594 3103 2138 3103 
Q 1681 3103 1420 2742 
Q 1159 2381 1159 1747 
Q 1159 1113 1420 752 
Q 1681 391 2138 391 
Q 2594 391 2855 752 
Q 3116 1113 3116 1747 
z
M 1159 2969 
Q 1341 3281 1617 3432 
Q 1894 3584 2278 3584 
Q 2916 3584 3314 3078 
Q 3713 2572 3713 1747 
Q 3713 922 3314 415 
Q 2916 -91 2278 -91 
Q 1894 -91 1617 61 
Q 1341 213 1159 525 
L 1159 0 
L 581 0 
L 581 4863 
L 1159 4863 
L 1159 2969 
z
" transform="scale(0.015625)"/>
       <path id="DejaVuSans-6c" d="M 603 4863 
L 1178 4863 
L 1178 0 
L 603 0 
L 603 4863 
z
" transform="scale(0.015625)"/>
       <path id="DejaVuSans-75" d="M 544 1381 
L 544 3500 
L 1119 3500 
L 1119 1403 
Q 1119 906 1312 657 
Q 1506 409 1894 409 
Q 2359 409 2629 706 
Q 2900 1003 2900 1516 
L 2900 3500 
L 3475 3500 
L 3475 0 
L 2900 0 
L 2900 538 
Q 2691 219 2414 64 
Q 2138 -91 1772 -91 
Q 1169 -91 856 284 
Q 544 659 544 1381 
z
M 1991 3584 
L 1991 3584 
z
" transform="scale(0.015625)"/>
      </defs>
      <use xlink:href="#DejaVuSans-Oblique-78" transform="translate(0 0.828125)"/>
      <use xlink:href="#DejaVuSans-20" transform="translate(59.179688 0.828125)"/>
      <use xlink:href="#DejaVuSans-28" transform="translate(90.966797 0.828125)"/>
      <use xlink:href="#DejaVuSans-72" transform="translate(129.980469 0.828125)"/>
      <use xlink:href="#DejaVuSans-65" transform="translate(171.09375 0.828125)"/>
      <use xlink:href="#DejaVuSans-64" transform="translate(232.617188 0.828125)"/>
      <use xlink:href="#DejaVuSans-29" transform="translate(296.09375 0.828125)"/>
      <use xlink:href="#DejaVuSans-20" transform="translate(335.107422 0.828125)"/>
      <use xlink:href="#DejaVuSans-61" transform="translate(366.894531 0.828125)"/>
      <use xlink:href="#DejaVuSans-6e" transform="translate(428.173828 0.828125)"/>
      <use xlink:href="#DejaVuSans-64" transform="translate(491.552734 0.828125)"/>
      <use xlink:href="#DejaVuSans-20" transform="translate(555.029297 0.828125)"/>
      <use xlink:href="#DejaVuSans-302" transform="translate(651.042969 12.015625)"/>
      <use xlink:href="#DejaVuSans-Oblique-78" transform="translate(586.816406 0.828125)"/>
      <use xlink:href="#DejaVuSans-20" transform="translate(649.410156 0.828125)"/>
      <use xlink:href="#DejaVuSans-28" transform="translate(681.197266 0.828125)"/>
      <use xlink:href="#DejaVuSans-62" transform="translate(720.210938 0.828125)"/>
      <use xlink:href="#DejaVuSans-6c" transform="translate(783.6875 0.828125)"/>
      <use xlink:href="#DejaVuSans-75" transform="translate(811.470703 0.828125)"/>
      <use xlink:href="#DejaVuSans-65" transform="translate(874.849609 0.828125)"/>
      <use xlink:href="#DejaVuSans-29" transform="translate(936.373047 0.828125)"/>
     </g>
    </g>
   </g>
   <g id="matplotlib.axis_2">
    <g id="ytick_1">
     <g id="line2d_10">
      <defs>
       <path id="m21ba030276" d="M 0 0 
L -3.5 0 
" style="stroke: #000000; stroke-width: 0.8"/>
      </defs>
      <g>
       <use xlink:href="#m21ba030276" x="76.2" y="146.480348" style="stroke: #000000; stroke-width: 0.8"/>
      </g>
     </g>
     <g id="text_11">
      <!-- - - -->
      <g transform="translate(61.984375 150.279567) scale(0.1 -0.1)">
       <defs>
        <path id="DejaVuSans-2d" d="M 313 2009 
L 1997 2009 
L 1997 1497 
L 313 1497 
L 313 2009 
z
" transform="scale(0.015625)"/>
       </defs>
       <use xlink:href="#DejaVuSans-2d"/>
       <use xlink:href="#DejaVuSans-2d" x="36.083984"/>
      </g>
     </g>
    </g>
    <g id="text_12">
     <!-- approximation with noise -->
     <g transform="translate(55.904687 207.922344) rotate(-90) scale(0.1 -0.1)">
      <defs>
       <path id="DejaVuSans-70" d="M 1159 525 
L 1159 -1331 
L 581 -1331 
L 581 3500 
L 1159 3500 
L 1159 2969 
Q 1341 3281 1617 3432 
Q 1894 3584 2278 3584 
Q 2916 3584 3314 3078 
Q 3713 2572 3713 1747 
Q 3713 922 3314 415 
Q 2916 -91 2278 -91 
Q 1894 -91 1617 61 
Q 1341 213 1159 525 
z
M 3116 1747 
Q 3116 2381 2855 2742 
Q 2594 3103 2138 3103 
Q 1681 3103 1420 2742 
Q 1159 2381 1159 1747 
Q 1159 1113 1420 752 
Q 1681 391 2138 391 
Q 2594 391 2855 752 
Q 3116 1113 3116 1747 
z
" transform="scale(0.015625)"/>
       <path id="DejaVuSans-6f" d="M 1959 3097 
Q 1497 3097 1228 2736 
Q 959 2375 959 1747 
Q 959 1119 1226 758 
Q 1494 397 1959 397 
Q 2419 397 2687 759 
Q 2956 1122 2956 1747 
Q 2956 2369 2687 2733 
Q 2419 3097 1959 3097 
z
M 1959 3584 
Q 2709 3584 3137 3096 
Q 3566 2609 3566 1747 
Q 3566 888 3137 398 
Q 2709 -91 1959 -91 
Q 1206 -91 779 398 
Q 353 888 353 1747 
Q 353 2609 779 3096 
Q 1206 3584 1959 3584 
z
" transform="scale(0.015625)"/>
       <path id="DejaVuSans-78" d="M 3513 3500 
L 2247 1797 
L 3578 0 
L 2900 0 
L 1881 1375 
L 863 0 
L 184 0 
L 1544 1831 
L 300 3500 
L 978 3500 
L 1906 2253 
L 2834 3500 
L 3513 3500 
z
" transform="scale(0.015625)"/>
       <path id="DejaVuSans-69" d="M 603 3500 
L 1178 3500 
L 1178 0 
L 603 0 
L 603 3500 
z
M 603 4863 
L 1178 4863 
L 1178 4134 
L 603 4134 
L 603 4863 
z
" transform="scale(0.015625)"/>
       <path id="DejaVuSans-6d" d="M 3328 2828 
Q 3544 3216 3844 3400 
Q 4144 3584 4550 3584 
Q 5097 3584 5394 3201 
Q 5691 2819 5691 2113 
L 5691 0 
L 5113 0 
L 5113 2094 
Q 5113 2597 4934 2840 
Q 4756 3084 4391 3084 
Q 3944 3084 3684 2787 
Q 3425 2491 3425 1978 
L 3425 0 
L 2847 0 
L 2847 2094 
Q 2847 2600 2669 2842 
Q 2491 3084 2119 3084 
Q 1678 3084 1418 2786 
Q 1159 2488 1159 1978 
L 1159 0 
L 581 0 
L 581 3500 
L 1159 3500 
L 1159 2956 
Q 1356 3278 1631 3431 
Q 1906 3584 2284 3584 
Q 2666 3584 2933 3390 
Q 3200 3197 3328 2828 
z
" transform="scale(0.015625)"/>
       <path id="DejaVuSans-74" d="M 1172 4494 
L 1172 3500 
L 2356 3500 
L 2356 3053 
L 1172 3053 
L 1172 1153 
Q 1172 725 1289 603 
Q 1406 481 1766 481 
L 2356 481 
L 2356 0 
L 1766 0 
Q 1100 0 847 248 
Q 594 497 594 1153 
L 594 3053 
L 172 3053 
L 172 3500 
L 594 3500 
L 594 4494 
L 1172 4494 
z
" transform="scale(0.015625)"/>
       <path id="DejaVuSans-77" d="M 269 3500 
L 844 3500 
L 1563 769 
L 2278 3500 
L 2956 3500 
L 3675 769 
L 4391 3500 
L 4966 3500 
L 4050 0 
L 3372 0 
L 2619 2869 
L 1863 0 
L 1184 0 
L 269 3500 
z
" transform="scale(0.015625)"/>
       <path id="DejaVuSans-68" d="M 3513 2113 
L 3513 0 
L 2938 0 
L 2938 2094 
Q 2938 2591 2744 2837 
Q 2550 3084 2163 3084 
Q 1697 3084 1428 2787 
Q 1159 2491 1159 1978 
L 1159 0 
L 581 0 
L 581 4863 
L 1159 4863 
L 1159 2956 
Q 1366 3272 1645 3428 
Q 1925 3584 2291 3584 
Q 2894 3584 3203 3211 
Q 3513 2838 3513 2113 
z
" transform="scale(0.015625)"/>
       <path id="DejaVuSans-73" d="M 2834 3397 
L 2834 2853 
Q 2591 2978 2328 3040 
Q 2066 3103 1784 3103 
Q 1356 3103 1142 2972 
Q 928 2841 928 2578 
Q 928 2378 1081 2264 
Q 1234 2150 1697 2047 
L 1894 2003 
Q 2506 1872 2764 1633 
Q 3022 1394 3022 966 
Q 3022 478 2636 193 
Q 2250 -91 1575 -91 
Q 1294 -91 989 -36 
Q 684 19 347 128 
L 347 722 
Q 666 556 975 473 
Q 1284 391 1588 391 
Q 1994 391 2212 530 
Q 2431 669 2431 922 
Q 2431 1156 2273 1281 
Q 2116 1406 1581 1522 
L 1381 1569 
Q 847 1681 609 1914 
Q 372 2147 372 2553 
Q 372 3047 722 3315 
Q 1072 3584 1716 3584 
Q 2034 3584 2315 3537 
Q 2597 3491 2834 3397 
z
" transform="scale(0.015625)"/>
      </defs>
      <use xlink:href="#DejaVuSans-61"/>
      <use xlink:href="#DejaVuSans-70" x="61.279297"/>
      <use xlink:href="#DejaVuSans-70" x="124.755859"/>
      <use xlink:href="#DejaVuSans-72" x="188.232422"/>
      <use xlink:href="#DejaVuSans-6f" x="227.095703"/>
      <use xlink:href="#DejaVuSans-78" x="285.152344"/>
      <use xlink:href="#DejaVuSans-69" x="344.332031"/>
      <use xlink:href="#DejaVuSans-6d" x="372.115234"/>
      <use xlink:href="#DejaVuSans-61" x="469.527344"/>
      <use xlink:href="#DejaVuSans-74" x="530.806641"/>
      <use xlink:href="#DejaVuSans-69" x="570.015625"/>
      <use xlink:href="#DejaVuSans-6f" x="597.798828"/>
      <use xlink:href="#DejaVuSans-6e" x="658.980469"/>
      <use xlink:href="#DejaVuSans-20" x="722.359375"/>
      <use xlink:href="#DejaVuSans-77" x="754.146484"/>
      <use xlink:href="#DejaVuSans-69" x="835.933594"/>
      <use xlink:href="#DejaVuSans-74" x="863.716797"/>
      <use xlink:href="#DejaVuSans-68" x="902.925781"/>
      <use xlink:href="#DejaVuSans-20" x="966.304688"/>
      <use xlink:href="#DejaVuSans-6e" x="998.091797"/>
      <use xlink:href="#DejaVuSans-6f" x="1061.470703"/>
      <use xlink:href="#DejaVuSans-69" x="1122.652344"/>
      <use xlink:href="#DejaVuSans-73" x="1150.435547"/>
      <use xlink:href="#DejaVuSans-65" x="1202.535156"/>
     </g>
    </g>
   </g>
   <g id="line2d_11">
    <path d="M 91.418182 239.185032 
L 99.027273 234.549798 
L 106.636364 229.914564 
L 114.245455 225.27933 
L 121.854545 220.644095 
L 129.463636 216.008861 
L 137.072727 211.373627 
L 144.681818 206.738393 
L 152.290909 202.103159 
L 159.9 197.467924 
L 167.509091 192.83269 
L 175.118182 188.197456 
L 182.727273 183.562222 
L 190.336364 178.926988 
L 197.945455 174.291753 
L 205.554545 169.656519 
L 213.163636 165.021285 
L 220.772727 160.386051 
L 228.381818 155.750817 
L 235.990909 151.115583 
L 243.6 146.480348 
L 251.209091 141.845114 
L 258.818182 137.20988 
L 266.427273 132.574646 
L 274.036364 127.939412 
L 281.645455 123.304177 
L 289.254545 118.668943 
L 296.863636 114.033709 
L 304.472727 109.398475 
L 312.081818 104.763241 
L 319.690909 100.128006 
L 327.3 95.492772 
L 334.909091 90.857538 
L 342.518182 86.222304 
L 350.127273 81.58707 
L 357.736364 76.951836 
L 365.345455 72.316601 
L 372.954545 67.681367 
L 380.563636 63.046133 
L 388.172727 58.410899 
L 395.781818 53.775665 
" clip-path="url(#pfbbee97b60)" style="fill: none; stroke: #ff0000; stroke-width: 1.5; stroke-linecap: square"/>
   </g>
   <g id="line2d_12">
    <path d="M 243.6 146.480348 
" clip-path="url(#pfbbee97b60)" style="fill: none; stroke: #1f77b4; stroke-width: 1.5; stroke-linecap: square"/>
   </g>
   <g id="line2d_13">
    <path d="M 91.418182 232.695781 
L 99.027273 206.877916 
L 106.636364 243.556364 
L 114.245455 204.810102 
L 121.854545 224.923769 
L 129.463636 212.949482 
L 137.072727 189.797704 
L 144.681818 200.403409 
L 152.290909 209.105022 
L 159.9 197.824971 
L 167.509091 210.512857 
L 175.118182 189.829557 
L 182.727273 199.442493 
L 190.336364 182.166947 
L 197.945455 184.300535 
L 205.554545 160.874517 
L 213.163636 157.034412 
L 220.772727 148.944979 
L 228.381818 167.617458 
L 235.990909 143.018565 
L 243.6 165.856071 
L 251.209091 142.546698 
L 258.818182 134.769591 
L 266.427273 130.717116 
L 274.036364 129.362909 
L 281.645455 122.773548 
L 289.254545 100.659128 
L 296.863636 115.584231 
L 304.472727 104.741783 
L 312.081818 118.351572 
L 319.690909 84.41916 
L 327.3 108.313887 
L 334.909091 115.701491 
L 342.518182 94.494293 
L 350.127273 80.498424 
L 357.736364 76.268302 
L 365.345455 53.927236 
L 372.954545 73.022795 
L 380.563636 54.464968 
L 388.172727 62.184573 
L 395.781818 45.883636 
" clip-path="url(#pfbbee97b60)" style="fill: none; stroke: #0000ff; stroke-width: 1.5; stroke-linecap: square"/>
   </g>
   <g id="patch_3">
    <path d="M 76.2 253.44 
L 76.2 36 
" style="fill: none; stroke: #000000; stroke-width: 0.8; stroke-linejoin: miter; stroke-linecap: square"/>
   </g>
   <g id="patch_4">
    <path d="M 411 253.44 
L 411 36 
" style="fill: none; stroke: #000000; stroke-width: 0.8; stroke-linejoin: miter; stroke-linecap: square"/>
   </g>
   <g id="patch_5">
    <path d="M 76.2 253.44 
L 411 253.44 
" style="fill: none; stroke: #000000; stroke-width: 0.8; stroke-linejoin: miter; stroke-linecap: square"/>
   </g>
   <g id="patch_6">
    <path d="M 76.2 36 
L 411 36 
" style="fill: none; stroke: #000000; stroke-width: 0.8; stroke-linejoin: miter; stroke-linecap: square"/>
   </g>
  </g>
  <g id="text_13">
   <!-- Neural Representation of Stimuli with noisey decoder and noise in A as $A_{noise}$ -->
   <g transform="translate(7.2 16.32) scale(0.12 -0.12)">
    <defs>
     <path id="DejaVuSans-4e" d="M 628 4666 
L 1478 4666 
L 3547 763 
L 3547 4666 
L 4159 4666 
L 4159 0 
L 3309 0 
L 1241 3903 
L 1241 0 
L 628 0 
L 628 4666 
z
" transform="scale(0.015625)"/>
     <path id="DejaVuSans-52" d="M 2841 2188 
Q 3044 2119 3236 1894 
Q 3428 1669 3622 1275 
L 4263 0 
L 3584 0 
L 2988 1197 
Q 2756 1666 2539 1819 
Q 2322 1972 1947 1972 
L 1259 1972 
L 1259 0 
L 628 0 
L 628 4666 
L 2053 4666 
Q 2853 4666 3247 4331 
Q 3641 3997 3641 3322 
Q 3641 2881 3436 2590 
Q 3231 2300 2841 2188 
z
M 1259 4147 
L 1259 2491 
L 2053 2491 
Q 2509 2491 2742 2702 
Q 2975 2913 2975 3322 
Q 2975 3731 2742 3939 
Q 2509 4147 2053 4147 
L 1259 4147 
z
" transform="scale(0.015625)"/>
     <path id="DejaVuSans-66" d="M 2375 4863 
L 2375 4384 
L 1825 4384 
Q 1516 4384 1395 4259 
Q 1275 4134 1275 3809 
L 1275 3500 
L 2222 3500 
L 2222 3053 
L 1275 3053 
L 1275 0 
L 697 0 
L 697 3053 
L 147 3053 
L 147 3500 
L 697 3500 
L 697 3744 
Q 697 4328 969 4595 
Q 1241 4863 1831 4863 
L 2375 4863 
z
" transform="scale(0.015625)"/>
     <path id="DejaVuSans-53" d="M 3425 4513 
L 3425 3897 
Q 3066 4069 2747 4153 
Q 2428 4238 2131 4238 
Q 1616 4238 1336 4038 
Q 1056 3838 1056 3469 
Q 1056 3159 1242 3001 
Q 1428 2844 1947 2747 
L 2328 2669 
Q 3034 2534 3370 2195 
Q 3706 1856 3706 1288 
Q 3706 609 3251 259 
Q 2797 -91 1919 -91 
Q 1588 -91 1214 -16 
Q 841 59 441 206 
L 441 856 
Q 825 641 1194 531 
Q 1563 422 1919 422 
Q 2459 422 2753 634 
Q 3047 847 3047 1241 
Q 3047 1584 2836 1778 
Q 2625 1972 2144 2069 
L 1759 2144 
Q 1053 2284 737 2584 
Q 422 2884 422 3419 
Q 422 4038 858 4394 
Q 1294 4750 2059 4750 
Q 2388 4750 2728 4690 
Q 3069 4631 3425 4513 
z
" transform="scale(0.015625)"/>
     <path id="DejaVuSans-79" d="M 2059 -325 
Q 1816 -950 1584 -1140 
Q 1353 -1331 966 -1331 
L 506 -1331 
L 506 -850 
L 844 -850 
Q 1081 -850 1212 -737 
Q 1344 -625 1503 -206 
L 1606 56 
L 191 3500 
L 800 3500 
L 1894 763 
L 2988 3500 
L 3597 3500 
L 2059 -325 
z
" transform="scale(0.015625)"/>
     <path id="DejaVuSans-63" d="M 3122 3366 
L 3122 2828 
Q 2878 2963 2633 3030 
Q 2388 3097 2138 3097 
Q 1578 3097 1268 2742 
Q 959 2388 959 1747 
Q 959 1106 1268 751 
Q 1578 397 2138 397 
Q 2388 397 2633 464 
Q 2878 531 3122 666 
L 3122 134 
Q 2881 22 2623 -34 
Q 2366 -91 2075 -91 
Q 1284 -91 818 406 
Q 353 903 353 1747 
Q 353 2603 823 3093 
Q 1294 3584 2113 3584 
Q 2378 3584 2631 3529 
Q 2884 3475 3122 3366 
z
" transform="scale(0.015625)"/>
     <path id="DejaVuSans-41" d="M 2188 4044 
L 1331 1722 
L 3047 1722 
L 2188 4044 
z
M 1831 4666 
L 2547 4666 
L 4325 0 
L 3669 0 
L 3244 1197 
L 1141 1197 
L 716 0 
L 50 0 
L 1831 4666 
z
" transform="scale(0.015625)"/>
     <path id="DejaVuSans-Oblique-41" d="M 2356 4666 
L 3072 4666 
L 3938 0 
L 3278 0 
L 3084 1197 
L 984 1197 
L 325 0 
L -341 0 
L 2356 4666 
z
M 2584 4044 
L 1275 1722 
L 2988 1722 
L 2584 4044 
z
" transform="scale(0.015625)"/>
     <path id="DejaVuSans-Oblique-6e" d="M 3566 2113 
L 3156 0 
L 2578 0 
L 2988 2091 
Q 3016 2238 3031 2350 
Q 3047 2463 3047 2528 
Q 3047 2791 2881 2937 
Q 2716 3084 2419 3084 
Q 1956 3084 1622 2776 
Q 1288 2469 1184 1941 
L 800 0 
L 225 0 
L 903 3500 
L 1478 3500 
L 1363 2950 
Q 1603 3253 1940 3418 
Q 2278 3584 2650 3584 
Q 3113 3584 3367 3334 
Q 3622 3084 3622 2631 
Q 3622 2519 3608 2391 
Q 3594 2263 3566 2113 
z
" transform="scale(0.015625)"/>
     <path id="DejaVuSans-Oblique-6f" d="M 1625 -91 
Q 1009 -91 651 289 
Q 294 669 294 1325 
Q 294 1706 417 2101 
Q 541 2497 738 2766 
Q 1047 3184 1428 3384 
Q 1809 3584 2291 3584 
Q 2888 3584 3255 3212 
Q 3622 2841 3622 2241 
Q 3622 1825 3500 1412 
Q 3378 1000 3181 728 
Q 2875 309 2494 109 
Q 2113 -91 1625 -91 
z
M 891 1344 
Q 891 869 1089 633 
Q 1288 397 1691 397 
Q 2269 397 2648 901 
Q 3028 1406 3028 2181 
Q 3028 2634 2825 2865 
Q 2622 3097 2228 3097 
Q 1903 3097 1650 2945 
Q 1397 2794 1197 2484 
Q 1050 2253 970 1956 
Q 891 1659 891 1344 
z
" transform="scale(0.015625)"/>
     <path id="DejaVuSans-Oblique-69" d="M 1172 4863 
L 1747 4863 
L 1606 4134 
L 1031 4134 
L 1172 4863 
z
M 909 3500 
L 1484 3500 
L 800 0 
L 225 0 
L 909 3500 
z
" transform="scale(0.015625)"/>
     <path id="DejaVuSans-Oblique-73" d="M 3200 3397 
L 3091 2853 
Q 2863 2978 2609 3040 
Q 2356 3103 2088 3103 
Q 1634 3103 1373 2948 
Q 1113 2794 1113 2528 
Q 1113 2219 1719 2053 
Q 1766 2041 1788 2034 
L 1972 1978 
Q 2547 1819 2739 1644 
Q 2931 1469 2931 1166 
Q 2931 609 2489 259 
Q 2047 -91 1331 -91 
Q 1053 -91 747 -37 
Q 441 16 72 128 
L 184 722 
Q 500 559 806 475 
Q 1113 391 1394 391 
Q 1816 391 2080 572 
Q 2344 753 2344 1031 
Q 2344 1331 1650 1516 
L 1591 1531 
L 1394 1581 
Q 956 1697 753 1886 
Q 550 2075 550 2369 
Q 550 2928 970 3256 
Q 1391 3584 2113 3584 
Q 2397 3584 2667 3537 
Q 2938 3491 3200 3397 
z
" transform="scale(0.015625)"/>
     <path id="DejaVuSans-Oblique-65" d="M 3078 2063 
Q 3088 2113 3092 2166 
Q 3097 2219 3097 2272 
Q 3097 2653 2873 2875 
Q 2650 3097 2266 3097 
Q 1838 3097 1509 2826 
Q 1181 2556 1013 2059 
L 3078 2063 
z
M 3578 1613 
L 903 1613 
Q 884 1494 878 1425 
Q 872 1356 872 1306 
Q 872 872 1139 634 
Q 1406 397 1894 397 
Q 2269 397 2603 481 
Q 2938 566 3225 728 
L 3116 159 
Q 2806 34 2476 -28 
Q 2147 -91 1806 -91 
Q 1078 -91 686 257 
Q 294 606 294 1247 
Q 294 1794 489 2264 
Q 684 2734 1063 3103 
Q 1306 3334 1642 3459 
Q 1978 3584 2356 3584 
Q 2950 3584 3301 3228 
Q 3653 2872 3653 2272 
Q 3653 2128 3634 1964 
Q 3616 1800 3578 1613 
z
" transform="scale(0.015625)"/>
    </defs>
    <use xlink:href="#DejaVuSans-4e" transform="translate(0 0.015625)"/>
    <use xlink:href="#DejaVuSans-65" transform="translate(74.804688 0.015625)"/>
    <use xlink:href="#DejaVuSans-75" transform="translate(136.328125 0.015625)"/>
    <use xlink:href="#DejaVuSans-72" transform="translate(199.707031 0.015625)"/>
    <use xlink:href="#DejaVuSans-61" transform="translate(240.820312 0.015625)"/>
    <use xlink:href="#DejaVuSans-6c" transform="translate(302.099609 0.015625)"/>
    <use xlink:href="#DejaVuSans-20" transform="translate(329.882812 0.015625)"/>
    <use xlink:href="#DejaVuSans-52" transform="translate(361.669922 0.015625)"/>
    <use xlink:href="#DejaVuSans-65" transform="translate(431.152344 0.015625)"/>
    <use xlink:href="#DejaVuSans-70" transform="translate(492.675781 0.015625)"/>
    <use xlink:href="#DejaVuSans-72" transform="translate(556.152344 0.015625)"/>
    <use xlink:href="#DejaVuSans-65" transform="translate(597.265625 0.015625)"/>
    <use xlink:href="#DejaVuSans-73" transform="translate(658.789062 0.015625)"/>
    <use xlink:href="#DejaVuSans-65" transform="translate(710.888672 0.015625)"/>
    <use xlink:href="#DejaVuSans-6e" transform="translate(772.412109 0.015625)"/>
    <use xlink:href="#DejaVuSans-74" transform="translate(835.791016 0.015625)"/>
    <use xlink:href="#DejaVuSans-61" transform="translate(875 0.015625)"/>
    <use xlink:href="#DejaVuSans-74" transform="translate(936.279297 0.015625)"/>
    <use xlink:href="#DejaVuSans-69" transform="translate(975.488281 0.015625)"/>
    <use xlink:href="#DejaVuSans-6f" transform="translate(1003.271484 0.015625)"/>
    <use xlink:href="#DejaVuSans-6e" transform="translate(1064.453125 0.015625)"/>
    <use xlink:href="#DejaVuSans-20" transform="translate(1127.832031 0.015625)"/>
    <use xlink:href="#DejaVuSans-6f" transform="translate(1159.619141 0.015625)"/>
    <use xlink:href="#DejaVuSans-66" transform="translate(1220.800781 0.015625)"/>
    <use xlink:href="#DejaVuSans-20" transform="translate(1256.005859 0.015625)"/>
    <use xlink:href="#DejaVuSans-53" transform="translate(1287.792969 0.015625)"/>
    <use xlink:href="#DejaVuSans-74" transform="translate(1351.269531 0.015625)"/>
    <use xlink:href="#DejaVuSans-69" transform="translate(1390.478516 0.015625)"/>
    <use xlink:href="#DejaVuSans-6d" transform="translate(1418.261719 0.015625)"/>
    <use xlink:href="#DejaVuSans-75" transform="translate(1515.673828 0.015625)"/>
    <use xlink:href="#DejaVuSans-6c" transform="translate(1579.052734 0.015625)"/>
    <use xlink:href="#DejaVuSans-69" transform="translate(1606.835938 0.015625)"/>
    <use xlink:href="#DejaVuSans-20" transform="translate(1634.619141 0.015625)"/>
    <use xlink:href="#DejaVuSans-77" transform="translate(1666.40625 0.015625)"/>
    <use xlink:href="#DejaVuSans-69" transform="translate(1748.193359 0.015625)"/>
    <use xlink:href="#DejaVuSans-74" transform="translate(1775.976562 0.015625)"/>
    <use xlink:href="#DejaVuSans-68" transform="translate(1815.185547 0.015625)"/>
    <use xlink:href="#DejaVuSans-20" transform="translate(1878.564453 0.015625)"/>
    <use xlink:href="#DejaVuSans-6e" transform="translate(1910.351562 0.015625)"/>
    <use xlink:href="#DejaVuSans-6f" transform="translate(1973.730469 0.015625)"/>
    <use xlink:href="#DejaVuSans-69" transform="translate(2034.912109 0.015625)"/>
    <use xlink:href="#DejaVuSans-73" transform="translate(2062.695312 0.015625)"/>
    <use xlink:href="#DejaVuSans-65" transform="translate(2114.794922 0.015625)"/>
    <use xlink:href="#DejaVuSans-79" transform="translate(2176.318359 0.015625)"/>
    <use xlink:href="#DejaVuSans-20" transform="translate(2235.498047 0.015625)"/>
    <use xlink:href="#DejaVuSans-64" transform="translate(2267.285156 0.015625)"/>
    <use xlink:href="#DejaVuSans-65" transform="translate(2330.761719 0.015625)"/>
    <use xlink:href="#DejaVuSans-63" transform="translate(2392.285156 0.015625)"/>
    <use xlink:href="#DejaVuSans-6f" transform="translate(2447.265625 0.015625)"/>
    <use xlink:href="#DejaVuSans-64" transform="translate(2508.447266 0.015625)"/>
    <use xlink:href="#DejaVuSans-65" transform="translate(2571.923828 0.015625)"/>
    <use xlink:href="#DejaVuSans-72" transform="translate(2633.447266 0.015625)"/>
    <use xlink:href="#DejaVuSans-20" transform="translate(2674.560547 0.015625)"/>
    <use xlink:href="#DejaVuSans-61" transform="translate(2706.347656 0.015625)"/>
    <use xlink:href="#DejaVuSans-6e" transform="translate(2767.626953 0.015625)"/>
    <use xlink:href="#DejaVuSans-64" transform="translate(2831.005859 0.015625)"/>
    <use xlink:href="#DejaVuSans-20" transform="translate(2894.482422 0.015625)"/>
    <use xlink:href="#DejaVuSans-6e" transform="translate(2926.269531 0.015625)"/>
    <use xlink:href="#DejaVuSans-6f" transform="translate(2989.648438 0.015625)"/>
    <use xlink:href="#DejaVuSans-69" transform="translate(3050.830078 0.015625)"/>
    <use xlink:href="#DejaVuSans-73" transform="translate(3078.613281 0.015625)"/>
    <use xlink:href="#DejaVuSans-65" transform="translate(3130.712891 0.015625)"/>
    <use xlink:href="#DejaVuSans-20" transform="translate(3192.236328 0.015625)"/>
    <use xlink:href="#DejaVuSans-69" transform="translate(3224.023438 0.015625)"/>
    <use xlink:href="#DejaVuSans-6e" transform="translate(3251.806641 0.015625)"/>
    <use xlink:href="#DejaVuSans-20" transform="translate(3315.185547 0.015625)"/>
    <use xlink:href="#DejaVuSans-41" transform="translate(3346.972656 0.015625)"/>
    <use xlink:href="#DejaVuSans-20" transform="translate(3415.380859 0.015625)"/>
    <use xlink:href="#DejaVuSans-61" transform="translate(3447.167969 0.015625)"/>
    <use xlink:href="#DejaVuSans-73" transform="translate(3508.447266 0.015625)"/>
    <use xlink:href="#DejaVuSans-20" transform="translate(3560.546875 0.015625)"/>
    <use xlink:href="#DejaVuSans-Oblique-41" transform="translate(3592.333984 0.015625)"/>
    <use xlink:href="#DejaVuSans-Oblique-6e" transform="translate(3660.742188 -16.390625) scale(0.7)"/>
    <use xlink:href="#DejaVuSans-Oblique-6f" transform="translate(3705.107422 -16.390625) scale(0.7)"/>
    <use xlink:href="#DejaVuSans-Oblique-69" transform="translate(3747.93457 -16.390625) scale(0.7)"/>
    <use xlink:href="#DejaVuSans-Oblique-73" transform="translate(3767.382812 -16.390625) scale(0.7)"/>
    <use xlink:href="#DejaVuSans-Oblique-65" transform="translate(3803.852539 -16.390625) scale(0.7)"/>
   </g>
  </g>
 </g>
 <defs>
  <clipPath id="pfbbee97b60">
   <rect x="76.2" y="36" width="334.8" height="217.44"/>
  </clipPath>
 </defs>
</svg>
