<?xml version="1.0" encoding="utf-8" standalone="no"?>
<!DOCTYPE svg PUBLIC "-//W3C//DTD SVG 1.1//EN"
  "http://www.w3.org/Graphics/SVG/1.1/DTD/svg11.dtd">
<svg xmlns:xlink="http://www.w3.org/1999/xlink" width="394.160937pt" height="290.99625pt" viewBox="0 0 394.160937 290.99625" xmlns="http://www.w3.org/2000/svg" version="1.1">
 <metadata>
  <rdf:RDF xmlns:dc="http://purl.org/dc/elements/1.1/" xmlns:cc="http://creativecommons.org/ns#" xmlns:rdf="http://www.w3.org/1999/02/22-rdf-syntax-ns#">
   <cc:Work>
    <dc:type rdf:resource="http://purl.org/dc/dcmitype/StillImage"/>
    <dc:date>2022-09-28T18:50:06.297064</dc:date>
    <dc:format>image/svg+xml</dc:format>
    <dc:creator>
     <cc:Agent>
      <dc:title>Matplotlib v3.6.0, https://matplotlib.org/</dc:title>
     </cc:Agent>
    </dc:creator>
   </cc:Work>
  </rdf:RDF>
 </metadata>
 <defs>
  <style type="text/css">*{stroke-linejoin: round; stroke-linecap: butt}</style>
 </defs>
 <g id="figure_1">
  <g id="patch_1">
   <path d="M 0 290.99625 
L 394.160937 290.99625 
L 394.160937 0 
L 0 0 
L 0 290.99625 
z
" style="fill: none"/>
  </g>
  <g id="axes_1">
   <g id="patch_2">
    <path d="M 52.160938 253.44 
L 386.960938 253.44 
L 386.960938 36 
L 52.160938 36 
z
" style="fill: #ffffff"/>
   </g>
   <g id="Quiver_1">
    <path d="M 192.511328 157.088346 
L 232.588109 174.364904 
L 232.53514 173.430609 
L 235.881239 176.240258 
L 231.541111 175.736478 
L 232.256766 175.133526 
L 192.179986 157.856969 
L 192.511328 157.088346 
" clip-path="url(#p0477310cfe)" style="fill: #ff0000"/>
    <path d="M 192.506689 157.086379 
L 221.562079 169.19901 
L 221.497865 168.265422 
L 224.877552 171.034577 
L 220.531673 170.583092 
L 221.240015 169.971567 
L 192.184625 157.858936 
L 192.506689 157.086379 
" clip-path="url(#p0477310cfe)" style="fill: #ff0000"/>
    <path d="M 191.964208 157.644817 
L 143.150209 49.488838 
L 142.55947 50.214605 
L 141.982224 45.883636 
L 144.848164 49.18165 
L 143.913107 49.144519 
L 192.727106 157.300498 
L 191.964208 157.644817 
" clip-path="url(#p0477310cfe)" style="fill: #ff0000"/>
    <path d="M 192.277913 157.059677 
L 205.214265 154.937632 
L 204.665796 154.179415 
L 208.998835 154.740914 
L 205.072262 156.657298 
L 205.349754 155.763593 
L 192.413401 157.885638 
L 192.277913 157.059677 
" clip-path="url(#p0477310cfe)" style="fill: #ff0000"/>
    <path d="M 192.620042 157.156659 
L 288.915513 240.770902 
L 289.148284 239.86452 
L 291.485118 243.556364 
L 287.501975 241.760513 
L 288.366744 241.4029 
L 192.071272 157.788657 
L 192.620042 157.156659 
" clip-path="url(#p0477310cfe)" style="fill: #ff0000"/>
    <path d="M 192.25518 157.064055 
L 222.004211 150.476715 
L 221.414654 149.749987 
L 225.772112 150.071024 
L 221.957516 152.201603 
L 222.185165 151.293921 
L 192.436134 157.88126 
L 192.25518 157.064055 
" clip-path="url(#p0477310cfe)" style="fill: #ff0000"/>
    <path d="M 192.078532 157.150499 
L 221.917235 132.40908 
L 221.060826 132.031887 
L 225.083791 130.327112 
L 222.663577 133.964841 
L 222.451485 133.053398 
L 192.612782 157.794817 
L 192.078532 157.150499 
" clip-path="url(#p0477310cfe)" style="fill: #ff0000"/>
    <path d="M 192.086147 157.144333 
L 306.35845 66.822941 
L 305.511107 66.425801 
L 309.572882 64.815681 
L 307.068163 68.395749 
L 306.877469 67.47959 
L 192.605166 157.800982 
L 192.086147 157.144333 
" clip-path="url(#p0477310cfe)" style="fill: #ff0000"/>
    <path d="M 192.221507 157.072996 
L 213.283159 150.530461 
L 212.635199 149.855289 
L 217.00426 149.812775 
L 213.380097 152.253256 
L 213.531459 151.329784 
L 192.469807 157.872319 
L 192.221507 157.072996 
" clip-path="url(#p0477310cfe)" style="fill: #ff0000"/>
    <path d="M 191.935563 157.389202 
L 204.760032 94.370643 
L 203.856387 94.613826 
L 205.921225 90.763249 
L 206.316954 95.114559 
L 205.58022 94.537554 
L 192.755751 157.556113 
L 191.935563 157.389202 
" clip-path="url(#p0477310cfe)" style="fill: #ff0000"/>
    <path d="M 192.100387 157.811752 
L 70.185698 69.629813 
L 70.034253 70.553272 
L 67.379119 67.08329 
L 71.505872 68.518706 
L 70.676238 68.951624 
L 192.590927 157.133563 
L 192.100387 157.811752 
" clip-path="url(#p0477310cfe)" style="fill: #ff0000"/>
    <path d="M 192.695365 157.242774 
L 228.576133 211.826081 
L 229.045666 211.016606 
L 230.295376 215.203339 
L 226.947417 212.395907 
L 227.876717 212.285848 
L 191.995949 157.702541 
L 192.695365 157.242774 
" clip-path="url(#p0477310cfe)" style="fill: #ff0000"/>
    <path d="M 192.30598 157.056043 
L 367.953544 140.32781 
L 367.457575 139.534257 
L 371.742756 140.387329 
L 367.695639 142.033947 
L 368.032899 141.16104 
L 192.385334 157.889273 
L 192.30598 157.056043 
" clip-path="url(#p0477310cfe)" style="fill: #ff0000"/>
    <path d="M 192.232343 157.875525 
L 98.137929 131.409767 
L 98.314169 132.328816 
L 94.625435 129.987075 
L 98.994052 129.91161 
L 98.364557 130.604032 
L 192.458971 157.06979 
L 192.232343 157.875525 
" clip-path="url(#p0477310cfe)" style="fill: #ff0000"/>
    <path d="M 192.321955 157.890486 
L 162.068861 156.17436 
L 162.439286 157.033718 
L 158.332108 155.543217 
L 162.581495 154.526748 
L 162.116264 155.338703 
L 192.369359 157.054829 
L 192.321955 157.890486 
" clip-path="url(#p0477310cfe)" style="fill: #ff0000"/>
    <path d="M 192.076475 157.7931 
L 169.211817 138.586058 
L 168.993896 139.496125 
L 166.597017 135.842979 
L 170.608987 137.57347 
L 169.750181 137.945173 
L 192.614839 157.152215 
L 192.076475 157.7931 
" clip-path="url(#p0477310cfe)" style="fill: #ff0000"/>
    <path d="M 192.731976 157.633592 
L 167.717094 217.681406 
L 168.650666 217.616954 
L 165.882369 220.997345 
L 166.332751 216.651351 
L 166.944455 217.359538 
L 191.959338 157.311724 
L 192.731976 157.633592 
" clip-path="url(#p0477310cfe)" style="fill: #ff0000"/>
    <path d="M 192.11428 157.123936 
L 221.324527 137.742939 
L 220.513051 137.276872 
L 224.694401 136.009268 
L 221.901313 139.369203 
L 221.787281 138.440383 
L 192.577034 157.82138 
L 192.11428 157.123936 
" clip-path="url(#p0477310cfe)" style="fill: #ff0000"/>
    <path d="M 192.037328 157.755634 
L 179.039268 143.593024 
L 178.705586 144.467305 
L 176.800813 140.535086 
L 180.555561 142.769449 
L 179.655927 143.027072 
L 192.653986 157.189682 
L 192.037328 157.755634 
" clip-path="url(#p0477310cfe)" style="fill: #ff0000"/>
    <path d="M 192.49802 157.082879 
L 195.554354 158.277592 
L 195.469302 157.34567 
L 198.910001 160.038642 
L 194.555121 159.684344 
L 195.249627 159.057149 
L 192.193293 157.862437 
L 192.49802 157.082879 
" clip-path="url(#p0477310cfe)" style="fill: #ff0000"/>
   </g>
   <g id="Quiver_2">
    <path d="M 192.460674 157.070273 
L 230.00842 167.8029 
L 229.83607 166.883114 
L 233.514863 169.240441 
L 229.145966 169.297421 
L 229.778385 168.607669 
L 192.23064 157.875042 
L 192.460674 157.070273 
" clip-path="url(#p0477310cfe)" style="fill: #0000ff"/>
    <path d="M 192.429468 157.062636 
L 219.168127 162.528205 
L 218.925728 161.62435 
L 222.774513 163.692529 
L 218.42286 164.084481 
L 219.000505 163.348249 
L 192.261846 157.88268 
L 192.429468 157.062636 
" clip-path="url(#p0477310cfe)" style="fill: #0000ff"/>
    <path d="M 191.968138 157.653272 
L 148.208562 66.187525 
L 147.634139 66.926274 
L 146.960548 62.60924 
L 149.899253 65.842585 
L 148.9636 65.826296 
L 192.723176 157.292043 
L 191.968138 157.653272 
" clip-path="url(#p0477310cfe)" style="fill: #0000ff"/>
    <path d="M 192.136239 157.110323 
L 203.282602 150.668096 
L 202.501432 150.152843 
L 206.753033 149.145673 
L 203.757937 152.326853 
L 203.701437 151.392765 
L 192.555074 157.834993 
L 192.136239 157.110323 
" clip-path="url(#p0477310cfe)" style="fill: #0000ff"/>
    <path d="M 192.604884 157.14411 
L 289.011829 233.209904 
L 289.201734 232.293581 
L 291.709533 235.871493 
L 287.646374 234.264869 
L 288.493375 233.867 
L 192.08643 157.801206 
L 192.604884 157.14411 
" clip-path="url(#p0477310cfe)" style="fill: #0000ff"/>
    <path d="M 192.186965 157.085412 
L 219.106899 146.053703 
L 218.402269 145.437904 
L 222.750801 145.01272 
L 219.354422 147.761377 
L 219.424283 146.828194 
L 192.504349 157.859903 
L 192.186965 157.085412 
" clip-path="url(#p0477310cfe)" style="fill: #0000ff"/>
    <path d="M 192.041643 157.185051 
L 218.430421 129.290827 
L 217.534786 129.019628 
L 221.322895 126.842305 
L 219.358871 130.745268 
L 219.038449 129.86604 
L 192.649671 157.760264 
L 192.041643 157.185051 
" clip-path="url(#p0477310cfe)" style="fill: #0000ff"/>
    <path d="M 192.09484 157.137646 
L 293.795644 80.996183 
L 292.958998 80.576976 
L 297.061569 79.073841 
L 294.4639 82.587048 
L 294.297278 81.666207 
L 192.596474 157.80767 
L 192.09484 157.137646 
" clip-path="url(#p0477310cfe)" style="fill: #0000ff"/>
    <path d="M 192.140201 157.108062 
L 211.160938 146.389575 
L 210.385431 145.865839 
L 214.647758 144.905071 
L 211.618165 148.053415 
L 211.571849 147.118767 
L 192.551113 157.837254 
L 192.140201 157.108062 
" clip-path="url(#p0477310cfe)" style="fill: #0000ff"/>
    <path d="M 191.930345 157.421097 
L 199.308123 97.994619 
L 198.425939 98.306809 
L 200.187482 94.308376 
L 200.917809 98.616174 
L 200.138747 98.097741 
L 192.760969 157.524218 
L 191.930345 157.421097 
" clip-path="url(#p0477310cfe)" style="fill: #0000ff"/>
    <path d="M 192.09935 157.810999 
L 88.185369 82.163261 
L 88.031096 83.086252 
L 85.386603 79.608154 
L 89.508939 81.056203 
L 88.677983 81.486578 
L 192.591964 157.134316 
L 192.09935 157.810999 
" clip-path="url(#p0477310cfe)" style="fill: #0000ff"/>
    <path d="M 192.667183 157.204771 
L 231.019582 203.236504 
L 231.394747 202.379205 
L 233.109036 206.398125 
L 229.465591 203.986525 
L 230.37653 203.772278 
L 192.024131 157.740544 
L 192.667183 157.204771 
" clip-path="url(#p0477310cfe)" style="fill: #0000ff"/>
    <path d="M 192.307866 157.055867 
L 346.627248 143.063463 
L 346.134876 142.267674 
L 350.416151 143.140134 
L 346.361622 144.768415 
L 346.70283 143.897044 
L 192.383448 157.889448 
L 192.307866 157.055867 
" clip-path="url(#p0477310cfe)" style="fill: #0000ff"/>
    <path d="M 192.211783 157.869168 
L 105.068074 128.446881 
L 105.196837 129.373775 
L 101.633357 126.84551 
L 106.000077 126.994715 
L 105.335821 127.653861 
L 192.47953 157.076148 
L 192.211783 157.869168 
" clip-path="url(#p0477310cfe)" style="fill: #0000ff"/>
    <path d="M 192.235603 157.876428 
L 164.107762 150.209759 
L 164.291425 151.127353 
L 160.583884 148.815505 
L 164.951747 148.704732 
L 164.32787 149.402218 
L 192.455711 157.068887 
L 192.235603 157.876428 
" clip-path="url(#p0477310cfe)" style="fill: #0000ff"/>
    <path d="M 192.045329 157.764112 
L 170.393298 135.452874 
L 170.084097 136.33611 
L 168.070538 132.458471 
L 171.886063 134.587385 
L 170.993954 134.869966 
L 192.645985 157.181203 
L 192.045329 157.764112 
" clip-path="url(#p0477310cfe)" style="fill: #0000ff"/>
    <path d="M 192.713931 157.671446 
L 164.557509 209.833792 
L 165.492844 209.863095 
L 162.40014 212.949466 
L 163.283203 208.670365 
L 163.820962 209.436215 
L 191.977383 157.273869 
L 192.713931 157.671446 
" clip-path="url(#p0477310cfe)" style="fill: #0000ff"/>
    <path d="M 192.070183 157.157608 
L 218.171559 134.335007 
L 217.305561 133.980381 
L 221.28248 132.17079 
L 218.958406 135.870679 
L 218.722507 134.965106 
L 192.621131 157.787707 
L 192.070183 157.157608 
" clip-path="url(#p0477310cfe)" style="fill: #0000ff"/>
    <path d="M 192.007674 157.719456 
L 178.636308 139.407762 
L 178.20714 140.239342 
L 176.753105 136.119113 
L 180.23504 138.758551 
L 179.312275 138.914165 
L 192.68364 157.225859 
L 192.007674 157.719456 
" clip-path="url(#p0477310cfe)" style="fill: #0000ff"/>
    <path d="M 192.104637 157.13053 
L 194.44347 155.482887 
L 193.619302 155.03965 
L 197.763643 153.655836 
L 195.065421 157.092419 
L 194.925509 156.167143 
L 192.586677 157.814786 
L 192.104637 157.13053 
" clip-path="url(#p0477310cfe)" style="fill: #0000ff"/>
   </g>
   <g id="matplotlib.axis_1">
    <g id="xtick_1">
     <g id="line2d_1">
      <defs>
       <path id="m1b5b0c08e9" d="M 0 0 
L 0 3.5 
" style="stroke: #000000; stroke-width: 0.8"/>
      </defs>
      <g>
       <use xlink:href="#m1b5b0c08e9" x="80.71369" y="253.44" style="stroke: #000000; stroke-width: 0.8"/>
      </g>
     </g>
     <g id="text_1">
      <!-- −0.6 -->
      <g transform="translate(68.572284 268.038437) scale(0.1 -0.1)">
       <defs>
        <path id="DejaVuSans-2212" d="M 678 2272 
L 4684 2272 
L 4684 1741 
L 678 1741 
L 678 2272 
z
" transform="scale(0.015625)"/>
        <path id="DejaVuSans-30" d="M 2034 4250 
Q 1547 4250 1301 3770 
Q 1056 3291 1056 2328 
Q 1056 1369 1301 889 
Q 1547 409 2034 409 
Q 2525 409 2770 889 
Q 3016 1369 3016 2328 
Q 3016 3291 2770 3770 
Q 2525 4250 2034 4250 
z
M 2034 4750 
Q 2819 4750 3233 4129 
Q 3647 3509 3647 2328 
Q 3647 1150 3233 529 
Q 2819 -91 2034 -91 
Q 1250 -91 836 529 
Q 422 1150 422 2328 
Q 422 3509 836 4129 
Q 1250 4750 2034 4750 
z
" transform="scale(0.015625)"/>
        <path id="DejaVuSans-2e" d="M 684 794 
L 1344 794 
L 1344 0 
L 684 0 
L 684 794 
z
" transform="scale(0.015625)"/>
        <path id="DejaVuSans-36" d="M 2113 2584 
Q 1688 2584 1439 2293 
Q 1191 2003 1191 1497 
Q 1191 994 1439 701 
Q 1688 409 2113 409 
Q 2538 409 2786 701 
Q 3034 994 3034 1497 
Q 3034 2003 2786 2293 
Q 2538 2584 2113 2584 
z
M 3366 4563 
L 3366 3988 
Q 3128 4100 2886 4159 
Q 2644 4219 2406 4219 
Q 1781 4219 1451 3797 
Q 1122 3375 1075 2522 
Q 1259 2794 1537 2939 
Q 1816 3084 2150 3084 
Q 2853 3084 3261 2657 
Q 3669 2231 3669 1497 
Q 3669 778 3244 343 
Q 2819 -91 2113 -91 
Q 1303 -91 875 529 
Q 447 1150 447 2328 
Q 447 3434 972 4092 
Q 1497 4750 2381 4750 
Q 2619 4750 2861 4703 
Q 3103 4656 3366 4563 
z
" transform="scale(0.015625)"/>
       </defs>
       <use xlink:href="#DejaVuSans-2212"/>
       <use xlink:href="#DejaVuSans-30" x="83.789062"/>
       <use xlink:href="#DejaVuSans-2e" x="147.412109"/>
       <use xlink:href="#DejaVuSans-36" x="179.199219"/>
      </g>
     </g>
    </g>
    <g id="xtick_2">
     <g id="line2d_2">
      <g>
       <use xlink:href="#m1b5b0c08e9" x="117.924346" y="253.44" style="stroke: #000000; stroke-width: 0.8"/>
      </g>
     </g>
     <g id="text_2">
      <!-- −0.4 -->
      <g transform="translate(105.782939 268.038437) scale(0.1 -0.1)">
       <defs>
        <path id="DejaVuSans-34" d="M 2419 4116 
L 825 1625 
L 2419 1625 
L 2419 4116 
z
M 2253 4666 
L 3047 4666 
L 3047 1625 
L 3713 1625 
L 3713 1100 
L 3047 1100 
L 3047 0 
L 2419 0 
L 2419 1100 
L 313 1100 
L 313 1709 
L 2253 4666 
z
" transform="scale(0.015625)"/>
       </defs>
       <use xlink:href="#DejaVuSans-2212"/>
       <use xlink:href="#DejaVuSans-30" x="83.789062"/>
       <use xlink:href="#DejaVuSans-2e" x="147.412109"/>
       <use xlink:href="#DejaVuSans-34" x="179.199219"/>
      </g>
     </g>
    </g>
    <g id="xtick_3">
     <g id="line2d_3">
      <g>
       <use xlink:href="#m1b5b0c08e9" x="155.135001" y="253.44" style="stroke: #000000; stroke-width: 0.8"/>
      </g>
     </g>
     <g id="text_3">
      <!-- −0.2 -->
      <g transform="translate(142.993595 268.038437) scale(0.1 -0.1)">
       <defs>
        <path id="DejaVuSans-32" d="M 1228 531 
L 3431 531 
L 3431 0 
L 469 0 
L 469 531 
Q 828 903 1448 1529 
Q 2069 2156 2228 2338 
Q 2531 2678 2651 2914 
Q 2772 3150 2772 3378 
Q 2772 3750 2511 3984 
Q 2250 4219 1831 4219 
Q 1534 4219 1204 4116 
Q 875 4013 500 3803 
L 500 4441 
Q 881 4594 1212 4672 
Q 1544 4750 1819 4750 
Q 2544 4750 2975 4387 
Q 3406 4025 3406 3419 
Q 3406 3131 3298 2873 
Q 3191 2616 2906 2266 
Q 2828 2175 2409 1742 
Q 1991 1309 1228 531 
z
" transform="scale(0.015625)"/>
       </defs>
       <use xlink:href="#DejaVuSans-2212"/>
       <use xlink:href="#DejaVuSans-30" x="83.789062"/>
       <use xlink:href="#DejaVuSans-2e" x="147.412109"/>
       <use xlink:href="#DejaVuSans-32" x="179.199219"/>
      </g>
     </g>
    </g>
    <g id="xtick_4">
     <g id="line2d_4">
      <g>
       <use xlink:href="#m1b5b0c08e9" x="192.345657" y="253.44" style="stroke: #000000; stroke-width: 0.8"/>
      </g>
     </g>
     <g id="text_4">
      <!-- 0.0 -->
      <g transform="translate(184.394094 268.038437) scale(0.1 -0.1)">
       <use xlink:href="#DejaVuSans-30"/>
       <use xlink:href="#DejaVuSans-2e" x="63.623047"/>
       <use xlink:href="#DejaVuSans-30" x="95.410156"/>
      </g>
     </g>
    </g>
    <g id="xtick_5">
     <g id="line2d_5">
      <g>
       <use xlink:href="#m1b5b0c08e9" x="229.556313" y="253.44" style="stroke: #000000; stroke-width: 0.8"/>
      </g>
     </g>
     <g id="text_5">
      <!-- 0.2 -->
      <g transform="translate(221.60475 268.038437) scale(0.1 -0.1)">
       <use xlink:href="#DejaVuSans-30"/>
       <use xlink:href="#DejaVuSans-2e" x="63.623047"/>
       <use xlink:href="#DejaVuSans-32" x="95.410156"/>
      </g>
     </g>
    </g>
    <g id="xtick_6">
     <g id="line2d_6">
      <g>
       <use xlink:href="#m1b5b0c08e9" x="266.766968" y="253.44" style="stroke: #000000; stroke-width: 0.8"/>
      </g>
     </g>
     <g id="text_6">
      <!-- 0.4 -->
      <g transform="translate(258.815406 268.038437) scale(0.1 -0.1)">
       <use xlink:href="#DejaVuSans-30"/>
       <use xlink:href="#DejaVuSans-2e" x="63.623047"/>
       <use xlink:href="#DejaVuSans-34" x="95.410156"/>
      </g>
     </g>
    </g>
    <g id="xtick_7">
     <g id="line2d_7">
      <g>
       <use xlink:href="#m1b5b0c08e9" x="303.977624" y="253.44" style="stroke: #000000; stroke-width: 0.8"/>
      </g>
     </g>
     <g id="text_7">
      <!-- 0.6 -->
      <g transform="translate(296.026061 268.038437) scale(0.1 -0.1)">
       <use xlink:href="#DejaVuSans-30"/>
       <use xlink:href="#DejaVuSans-2e" x="63.623047"/>
       <use xlink:href="#DejaVuSans-36" x="95.410156"/>
      </g>
     </g>
    </g>
    <g id="xtick_8">
     <g id="line2d_8">
      <g>
       <use xlink:href="#m1b5b0c08e9" x="341.18828" y="253.44" style="stroke: #000000; stroke-width: 0.8"/>
      </g>
     </g>
     <g id="text_8">
      <!-- 0.8 -->
      <g transform="translate(333.236717 268.038437) scale(0.1 -0.1)">
       <defs>
        <path id="DejaVuSans-38" d="M 2034 2216 
Q 1584 2216 1326 1975 
Q 1069 1734 1069 1313 
Q 1069 891 1326 650 
Q 1584 409 2034 409 
Q 2484 409 2743 651 
Q 3003 894 3003 1313 
Q 3003 1734 2745 1975 
Q 2488 2216 2034 2216 
z
M 1403 2484 
Q 997 2584 770 2862 
Q 544 3141 544 3541 
Q 544 4100 942 4425 
Q 1341 4750 2034 4750 
Q 2731 4750 3128 4425 
Q 3525 4100 3525 3541 
Q 3525 3141 3298 2862 
Q 3072 2584 2669 2484 
Q 3125 2378 3379 2068 
Q 3634 1759 3634 1313 
Q 3634 634 3220 271 
Q 2806 -91 2034 -91 
Q 1263 -91 848 271 
Q 434 634 434 1313 
Q 434 1759 690 2068 
Q 947 2378 1403 2484 
z
M 1172 3481 
Q 1172 3119 1398 2916 
Q 1625 2713 2034 2713 
Q 2441 2713 2670 2916 
Q 2900 3119 2900 3481 
Q 2900 3844 2670 4047 
Q 2441 4250 2034 4250 
Q 1625 4250 1398 4047 
Q 1172 3844 1172 3481 
z
" transform="scale(0.015625)"/>
       </defs>
       <use xlink:href="#DejaVuSans-30"/>
       <use xlink:href="#DejaVuSans-2e" x="63.623047"/>
       <use xlink:href="#DejaVuSans-38" x="95.410156"/>
      </g>
     </g>
    </g>
    <g id="xtick_9">
     <g id="line2d_9">
      <g>
       <use xlink:href="#m1b5b0c08e9" x="378.398935" y="253.44" style="stroke: #000000; stroke-width: 0.8"/>
      </g>
     </g>
     <g id="text_9">
      <!-- 1.0 -->
      <g transform="translate(370.447373 268.038437) scale(0.1 -0.1)">
       <defs>
        <path id="DejaVuSans-31" d="M 794 531 
L 1825 531 
L 1825 4091 
L 703 3866 
L 703 4441 
L 1819 4666 
L 2450 4666 
L 2450 531 
L 3481 531 
L 3481 0 
L 794 0 
L 794 531 
z
" transform="scale(0.015625)"/>
       </defs>
       <use xlink:href="#DejaVuSans-31"/>
       <use xlink:href="#DejaVuSans-2e" x="63.623047"/>
       <use xlink:href="#DejaVuSans-30" x="95.410156"/>
      </g>
     </g>
    </g>
    <g id="text_10">
     <!-- $x_1$ -->
     <g transform="translate(214.210938 281.716562) scale(0.1 -0.1)">
      <defs>
       <path id="DejaVuSans-Oblique-78" d="M 3841 3500 
L 2234 1784 
L 3219 0 
L 2559 0 
L 1819 1388 
L 531 0 
L -166 0 
L 1556 1844 
L 641 3500 
L 1300 3500 
L 1972 2234 
L 3144 3500 
L 3841 3500 
z
" transform="scale(0.015625)"/>
      </defs>
      <use xlink:href="#DejaVuSans-Oblique-78" transform="translate(0 0.3125)"/>
      <use xlink:href="#DejaVuSans-31" transform="translate(59.179688 -16.09375) scale(0.7)"/>
     </g>
    </g>
   </g>
   <g id="matplotlib.axis_2">
    <g id="ytick_1">
     <g id="line2d_10">
      <defs>
       <path id="m706456b7e7" d="M 0 0 
L -3.5 0 
" style="stroke: #000000; stroke-width: 0.8"/>
      </defs>
      <g>
       <use xlink:href="#m706456b7e7" x="52.160938" y="236.088686" style="stroke: #000000; stroke-width: 0.8"/>
      </g>
     </g>
     <g id="text_11">
      <!-- −0.6 -->
      <g transform="translate(20.878125 239.887904) scale(0.1 -0.1)">
       <use xlink:href="#DejaVuSans-2212"/>
       <use xlink:href="#DejaVuSans-30" x="83.789062"/>
       <use xlink:href="#DejaVuSans-2e" x="147.412109"/>
       <use xlink:href="#DejaVuSans-36" x="179.199219"/>
      </g>
     </g>
    </g>
    <g id="ytick_2">
     <g id="line2d_11">
      <g>
       <use xlink:href="#m706456b7e7" x="52.160938" y="209.883343" style="stroke: #000000; stroke-width: 0.8"/>
      </g>
     </g>
     <g id="text_12">
      <!-- −0.4 -->
      <g transform="translate(20.878125 213.682562) scale(0.1 -0.1)">
       <use xlink:href="#DejaVuSans-2212"/>
       <use xlink:href="#DejaVuSans-30" x="83.789062"/>
       <use xlink:href="#DejaVuSans-2e" x="147.412109"/>
       <use xlink:href="#DejaVuSans-34" x="179.199219"/>
      </g>
     </g>
    </g>
    <g id="ytick_3">
     <g id="line2d_12">
      <g>
       <use xlink:href="#m706456b7e7" x="52.160938" y="183.678" style="stroke: #000000; stroke-width: 0.8"/>
      </g>
     </g>
     <g id="text_13">
      <!-- −0.2 -->
      <g transform="translate(20.878125 187.477219) scale(0.1 -0.1)">
       <use xlink:href="#DejaVuSans-2212"/>
       <use xlink:href="#DejaVuSans-30" x="83.789062"/>
       <use xlink:href="#DejaVuSans-2e" x="147.412109"/>
       <use xlink:href="#DejaVuSans-32" x="179.199219"/>
      </g>
     </g>
    </g>
    <g id="ytick_4">
     <g id="line2d_13">
      <g>
       <use xlink:href="#m706456b7e7" x="52.160938" y="157.472658" style="stroke: #000000; stroke-width: 0.8"/>
      </g>
     </g>
     <g id="text_14">
      <!-- 0.0 -->
      <g transform="translate(29.257812 161.271876) scale(0.1 -0.1)">
       <use xlink:href="#DejaVuSans-30"/>
       <use xlink:href="#DejaVuSans-2e" x="63.623047"/>
       <use xlink:href="#DejaVuSans-30" x="95.410156"/>
      </g>
     </g>
    </g>
    <g id="ytick_5">
     <g id="line2d_14">
      <g>
       <use xlink:href="#m706456b7e7" x="52.160938" y="131.267315" style="stroke: #000000; stroke-width: 0.8"/>
      </g>
     </g>
     <g id="text_15">
      <!-- 0.2 -->
      <g transform="translate(29.257812 135.066534) scale(0.1 -0.1)">
       <use xlink:href="#DejaVuSans-30"/>
       <use xlink:href="#DejaVuSans-2e" x="63.623047"/>
       <use xlink:href="#DejaVuSans-32" x="95.410156"/>
      </g>
     </g>
    </g>
    <g id="ytick_6">
     <g id="line2d_15">
      <g>
       <use xlink:href="#m706456b7e7" x="52.160938" y="105.061972" style="stroke: #000000; stroke-width: 0.8"/>
      </g>
     </g>
     <g id="text_16">
      <!-- 0.4 -->
      <g transform="translate(29.257812 108.861191) scale(0.1 -0.1)">
       <use xlink:href="#DejaVuSans-30"/>
       <use xlink:href="#DejaVuSans-2e" x="63.623047"/>
       <use xlink:href="#DejaVuSans-34" x="95.410156"/>
      </g>
     </g>
    </g>
    <g id="ytick_7">
     <g id="line2d_16">
      <g>
       <use xlink:href="#m706456b7e7" x="52.160938" y="78.85663" style="stroke: #000000; stroke-width: 0.8"/>
      </g>
     </g>
     <g id="text_17">
      <!-- 0.6 -->
      <g transform="translate(29.257812 82.655849) scale(0.1 -0.1)">
       <use xlink:href="#DejaVuSans-30"/>
       <use xlink:href="#DejaVuSans-2e" x="63.623047"/>
       <use xlink:href="#DejaVuSans-36" x="95.410156"/>
      </g>
     </g>
    </g>
    <g id="ytick_8">
     <g id="line2d_17">
      <g>
       <use xlink:href="#m706456b7e7" x="52.160938" y="52.651287" style="stroke: #000000; stroke-width: 0.8"/>
      </g>
     </g>
     <g id="text_18">
      <!-- 0.8 -->
      <g transform="translate(29.257812 56.450506) scale(0.1 -0.1)">
       <use xlink:href="#DejaVuSans-30"/>
       <use xlink:href="#DejaVuSans-2e" x="63.623047"/>
       <use xlink:href="#DejaVuSans-38" x="95.410156"/>
      </g>
     </g>
    </g>
    <g id="text_19">
     <!-- $x_2$ -->
     <g transform="translate(14.798438 150.07) rotate(-90) scale(0.1 -0.1)">
      <use xlink:href="#DejaVuSans-Oblique-78" transform="translate(0 0.3125)"/>
      <use xlink:href="#DejaVuSans-32" transform="translate(59.179688 -16.09375) scale(0.7)"/>
     </g>
    </g>
   </g>
   <g id="line2d_18">
    <defs>
     <path id="mc5aea4c048" d="M 0 1.5 
C 0.397805 1.5 0.77937 1.341951 1.06066 1.06066 
C 1.341951 0.77937 1.5 0.397805 1.5 0 
C 1.5 -0.397805 1.341951 -0.77937 1.06066 -1.06066 
C 0.77937 -1.341951 0.397805 -1.5 0 -1.5 
C -0.397805 -1.5 -0.77937 -1.341951 -1.06066 -1.06066 
C -1.341951 -0.77937 -1.5 -0.397805 -1.5 0 
C -1.5 0.397805 -1.341951 0.77937 -1.06066 1.06066 
C -0.77937 1.341951 -0.397805 1.5 0 1.5 
z
" style="stroke: #ff0000"/>
    </defs>
    <g clip-path="url(#p0477310cfe)">
     <use xlink:href="#mc5aea4c048" x="235.881239" y="176.240258" style="fill: #ff0000; stroke: #ff0000"/>
     <use xlink:href="#mc5aea4c048" x="224.877552" y="171.034577" style="fill: #ff0000; stroke: #ff0000"/>
     <use xlink:href="#mc5aea4c048" x="141.982224" y="45.883636" style="fill: #ff0000; stroke: #ff0000"/>
     <use xlink:href="#mc5aea4c048" x="208.998835" y="154.740914" style="fill: #ff0000; stroke: #ff0000"/>
     <use xlink:href="#mc5aea4c048" x="291.485118" y="243.556364" style="fill: #ff0000; stroke: #ff0000"/>
     <use xlink:href="#mc5aea4c048" x="225.772112" y="150.071024" style="fill: #ff0000; stroke: #ff0000"/>
     <use xlink:href="#mc5aea4c048" x="225.083791" y="130.327112" style="fill: #ff0000; stroke: #ff0000"/>
     <use xlink:href="#mc5aea4c048" x="309.572882" y="64.815681" style="fill: #ff0000; stroke: #ff0000"/>
     <use xlink:href="#mc5aea4c048" x="217.00426" y="149.812775" style="fill: #ff0000; stroke: #ff0000"/>
     <use xlink:href="#mc5aea4c048" x="205.921225" y="90.763249" style="fill: #ff0000; stroke: #ff0000"/>
     <use xlink:href="#mc5aea4c048" x="67.379119" y="67.08329" style="fill: #ff0000; stroke: #ff0000"/>
     <use xlink:href="#mc5aea4c048" x="230.295376" y="215.203339" style="fill: #ff0000; stroke: #ff0000"/>
     <use xlink:href="#mc5aea4c048" x="371.742756" y="140.387329" style="fill: #ff0000; stroke: #ff0000"/>
     <use xlink:href="#mc5aea4c048" x="94.625435" y="129.987075" style="fill: #ff0000; stroke: #ff0000"/>
     <use xlink:href="#mc5aea4c048" x="158.332108" y="155.543217" style="fill: #ff0000; stroke: #ff0000"/>
     <use xlink:href="#mc5aea4c048" x="166.597017" y="135.842979" style="fill: #ff0000; stroke: #ff0000"/>
     <use xlink:href="#mc5aea4c048" x="165.882369" y="220.997345" style="fill: #ff0000; stroke: #ff0000"/>
     <use xlink:href="#mc5aea4c048" x="224.694401" y="136.009268" style="fill: #ff0000; stroke: #ff0000"/>
     <use xlink:href="#mc5aea4c048" x="176.800813" y="140.535086" style="fill: #ff0000; stroke: #ff0000"/>
     <use xlink:href="#mc5aea4c048" x="198.910001" y="160.038642" style="fill: #ff0000; stroke: #ff0000"/>
    </g>
   </g>
   <g id="line2d_19">
    <defs>
     <path id="md9d1eb25f5" d="M 0 1.5 
C 0.397805 1.5 0.77937 1.341951 1.06066 1.06066 
C 1.341951 0.77937 1.5 0.397805 1.5 0 
C 1.5 -0.397805 1.341951 -0.77937 1.06066 -1.06066 
C 0.77937 -1.341951 0.397805 -1.5 0 -1.5 
C -0.397805 -1.5 -0.77937 -1.341951 -1.06066 -1.06066 
C -1.341951 -0.77937 -1.5 -0.397805 -1.5 0 
C -1.5 0.397805 -1.341951 0.77937 -1.06066 1.06066 
C -0.77937 1.341951 -0.397805 1.5 0 1.5 
z
" style="stroke: #0000ff"/>
    </defs>
    <g clip-path="url(#p0477310cfe)">
     <use xlink:href="#md9d1eb25f5" x="233.514863" y="169.240441" style="fill: #0000ff; stroke: #0000ff"/>
     <use xlink:href="#md9d1eb25f5" x="222.774513" y="163.692529" style="fill: #0000ff; stroke: #0000ff"/>
     <use xlink:href="#md9d1eb25f5" x="146.960548" y="62.60924" style="fill: #0000ff; stroke: #0000ff"/>
     <use xlink:href="#md9d1eb25f5" x="206.753033" y="149.145673" style="fill: #0000ff; stroke: #0000ff"/>
     <use xlink:href="#md9d1eb25f5" x="291.709533" y="235.871493" style="fill: #0000ff; stroke: #0000ff"/>
     <use xlink:href="#md9d1eb25f5" x="222.750801" y="145.01272" style="fill: #0000ff; stroke: #0000ff"/>
     <use xlink:href="#md9d1eb25f5" x="221.322895" y="126.842305" style="fill: #0000ff; stroke: #0000ff"/>
     <use xlink:href="#md9d1eb25f5" x="297.061569" y="79.073841" style="fill: #0000ff; stroke: #0000ff"/>
     <use xlink:href="#md9d1eb25f5" x="214.647758" y="144.905071" style="fill: #0000ff; stroke: #0000ff"/>
     <use xlink:href="#md9d1eb25f5" x="200.187482" y="94.308376" style="fill: #0000ff; stroke: #0000ff"/>
     <use xlink:href="#md9d1eb25f5" x="85.386603" y="79.608154" style="fill: #0000ff; stroke: #0000ff"/>
     <use xlink:href="#md9d1eb25f5" x="233.109036" y="206.398125" style="fill: #0000ff; stroke: #0000ff"/>
     <use xlink:href="#md9d1eb25f5" x="350.416151" y="143.140134" style="fill: #0000ff; stroke: #0000ff"/>
     <use xlink:href="#md9d1eb25f5" x="101.633357" y="126.84551" style="fill: #0000ff; stroke: #0000ff"/>
     <use xlink:href="#md9d1eb25f5" x="160.583884" y="148.815505" style="fill: #0000ff; stroke: #0000ff"/>
     <use xlink:href="#md9d1eb25f5" x="168.070538" y="132.458471" style="fill: #0000ff; stroke: #0000ff"/>
     <use xlink:href="#md9d1eb25f5" x="162.40014" y="212.949466" style="fill: #0000ff; stroke: #0000ff"/>
     <use xlink:href="#md9d1eb25f5" x="221.28248" y="132.17079" style="fill: #0000ff; stroke: #0000ff"/>
     <use xlink:href="#md9d1eb25f5" x="176.753105" y="136.119113" style="fill: #0000ff; stroke: #0000ff"/>
     <use xlink:href="#md9d1eb25f5" x="197.763643" y="153.655836" style="fill: #0000ff; stroke: #0000ff"/>
    </g>
   </g>
   <g id="patch_3">
    <path d="M 52.160938 253.44 
L 52.160938 36 
" style="fill: none; stroke: #000000; stroke-width: 0.8; stroke-linejoin: miter; stroke-linecap: square"/>
   </g>
   <g id="patch_4">
    <path d="M 386.960938 253.44 
L 386.960938 36 
" style="fill: none; stroke: #000000; stroke-width: 0.8; stroke-linejoin: miter; stroke-linecap: square"/>
   </g>
   <g id="patch_5">
    <path d="M 52.160938 253.44 
L 386.960938 253.44 
" style="fill: none; stroke: #000000; stroke-width: 0.8; stroke-linejoin: miter; stroke-linecap: square"/>
   </g>
   <g id="patch_6">
    <path d="M 52.160938 36 
L 386.960938 36 
" style="fill: none; stroke: #000000; stroke-width: 0.8; stroke-linejoin: miter; stroke-linecap: square"/>
   </g>
   <g id="legend_1">
    <g id="patch_7">
     <path d="M 164.260156 73.35625 
L 274.861719 73.35625 
Q 276.861719 73.35625 276.861719 71.35625 
L 276.861719 43 
Q 276.861719 41 274.861719 41 
L 164.260156 41 
Q 162.260156 41 162.260156 43 
L 162.260156 71.35625 
Q 162.260156 73.35625 164.260156 73.35625 
z
" style="fill: #ffffff; opacity: 0.8; stroke: #cccccc; stroke-linejoin: miter"/>
    </g>
    <g id="line2d_20">
     <g>
      <use xlink:href="#mc5aea4c048" x="176.260156" y="49.098437" style="fill: #ff0000; stroke: #ff0000"/>
     </g>
    </g>
    <g id="text_20">
     <!-- True Inputs -->
     <g transform="translate(194.260156 52.598437) scale(0.1 -0.1)">
      <defs>
       <path id="DejaVuSans-54" d="M -19 4666 
L 3928 4666 
L 3928 4134 
L 2272 4134 
L 2272 0 
L 1638 0 
L 1638 4134 
L -19 4134 
L -19 4666 
z
" transform="scale(0.015625)"/>
       <path id="DejaVuSans-72" d="M 2631 2963 
Q 2534 3019 2420 3045 
Q 2306 3072 2169 3072 
Q 1681 3072 1420 2755 
Q 1159 2438 1159 1844 
L 1159 0 
L 581 0 
L 581 3500 
L 1159 3500 
L 1159 2956 
Q 1341 3275 1631 3429 
Q 1922 3584 2338 3584 
Q 2397 3584 2469 3576 
Q 2541 3569 2628 3553 
L 2631 2963 
z
" transform="scale(0.015625)"/>
       <path id="DejaVuSans-75" d="M 544 1381 
L 544 3500 
L 1119 3500 
L 1119 1403 
Q 1119 906 1312 657 
Q 1506 409 1894 409 
Q 2359 409 2629 706 
Q 2900 1003 2900 1516 
L 2900 3500 
L 3475 3500 
L 3475 0 
L 2900 0 
L 2900 538 
Q 2691 219 2414 64 
Q 2138 -91 1772 -91 
Q 1169 -91 856 284 
Q 544 659 544 1381 
z
M 1991 3584 
L 1991 3584 
z
" transform="scale(0.015625)"/>
       <path id="DejaVuSans-65" d="M 3597 1894 
L 3597 1613 
L 953 1613 
Q 991 1019 1311 708 
Q 1631 397 2203 397 
Q 2534 397 2845 478 
Q 3156 559 3463 722 
L 3463 178 
Q 3153 47 2828 -22 
Q 2503 -91 2169 -91 
Q 1331 -91 842 396 
Q 353 884 353 1716 
Q 353 2575 817 3079 
Q 1281 3584 2069 3584 
Q 2775 3584 3186 3129 
Q 3597 2675 3597 1894 
z
M 3022 2063 
Q 3016 2534 2758 2815 
Q 2500 3097 2075 3097 
Q 1594 3097 1305 2825 
Q 1016 2553 972 2059 
L 3022 2063 
z
" transform="scale(0.015625)"/>
       <path id="DejaVuSans-20" transform="scale(0.015625)"/>
       <path id="DejaVuSans-49" d="M 628 4666 
L 1259 4666 
L 1259 0 
L 628 0 
L 628 4666 
z
" transform="scale(0.015625)"/>
       <path id="DejaVuSans-6e" d="M 3513 2113 
L 3513 0 
L 2938 0 
L 2938 2094 
Q 2938 2591 2744 2837 
Q 2550 3084 2163 3084 
Q 1697 3084 1428 2787 
Q 1159 2491 1159 1978 
L 1159 0 
L 581 0 
L 581 3500 
L 1159 3500 
L 1159 2956 
Q 1366 3272 1645 3428 
Q 1925 3584 2291 3584 
Q 2894 3584 3203 3211 
Q 3513 2838 3513 2113 
z
" transform="scale(0.015625)"/>
       <path id="DejaVuSans-70" d="M 1159 525 
L 1159 -1331 
L 581 -1331 
L 581 3500 
L 1159 3500 
L 1159 2969 
Q 1341 3281 1617 3432 
Q 1894 3584 2278 3584 
Q 2916 3584 3314 3078 
Q 3713 2572 3713 1747 
Q 3713 922 3314 415 
Q 2916 -91 2278 -91 
Q 1894 -91 1617 61 
Q 1341 213 1159 525 
z
M 3116 1747 
Q 3116 2381 2855 2742 
Q 2594 3103 2138 3103 
Q 1681 3103 1420 2742 
Q 1159 2381 1159 1747 
Q 1159 1113 1420 752 
Q 1681 391 2138 391 
Q 2594 391 2855 752 
Q 3116 1113 3116 1747 
z
" transform="scale(0.015625)"/>
       <path id="DejaVuSans-74" d="M 1172 4494 
L 1172 3500 
L 2356 3500 
L 2356 3053 
L 1172 3053 
L 1172 1153 
Q 1172 725 1289 603 
Q 1406 481 1766 481 
L 2356 481 
L 2356 0 
L 1766 0 
Q 1100 0 847 248 
Q 594 497 594 1153 
L 594 3053 
L 172 3053 
L 172 3500 
L 594 3500 
L 594 4494 
L 1172 4494 
z
" transform="scale(0.015625)"/>
       <path id="DejaVuSans-73" d="M 2834 3397 
L 2834 2853 
Q 2591 2978 2328 3040 
Q 2066 3103 1784 3103 
Q 1356 3103 1142 2972 
Q 928 2841 928 2578 
Q 928 2378 1081 2264 
Q 1234 2150 1697 2047 
L 1894 2003 
Q 2506 1872 2764 1633 
Q 3022 1394 3022 966 
Q 3022 478 2636 193 
Q 2250 -91 1575 -91 
Q 1294 -91 989 -36 
Q 684 19 347 128 
L 347 722 
Q 666 556 975 473 
Q 1284 391 1588 391 
Q 1994 391 2212 530 
Q 2431 669 2431 922 
Q 2431 1156 2273 1281 
Q 2116 1406 1581 1522 
L 1381 1569 
Q 847 1681 609 1914 
Q 372 2147 372 2553 
Q 372 3047 722 3315 
Q 1072 3584 1716 3584 
Q 2034 3584 2315 3537 
Q 2597 3491 2834 3397 
z
" transform="scale(0.015625)"/>
      </defs>
      <use xlink:href="#DejaVuSans-54"/>
      <use xlink:href="#DejaVuSans-72" x="46.333984"/>
      <use xlink:href="#DejaVuSans-75" x="87.447266"/>
      <use xlink:href="#DejaVuSans-65" x="150.826172"/>
      <use xlink:href="#DejaVuSans-20" x="212.349609"/>
      <use xlink:href="#DejaVuSans-49" x="244.136719"/>
      <use xlink:href="#DejaVuSans-6e" x="273.628906"/>
      <use xlink:href="#DejaVuSans-70" x="337.007812"/>
      <use xlink:href="#DejaVuSans-75" x="400.484375"/>
      <use xlink:href="#DejaVuSans-74" x="463.863281"/>
      <use xlink:href="#DejaVuSans-73" x="503.072266"/>
     </g>
    </g>
    <g id="line2d_21">
     <g>
      <use xlink:href="#md9d1eb25f5" x="176.260156" y="63.776562" style="fill: #0000ff; stroke: #0000ff"/>
     </g>
    </g>
    <g id="text_21">
     <!-- Decoded Inputs -->
     <g transform="translate(194.260156 67.276562) scale(0.1 -0.1)">
      <defs>
       <path id="DejaVuSans-44" d="M 1259 4147 
L 1259 519 
L 2022 519 
Q 2988 519 3436 956 
Q 3884 1394 3884 2338 
Q 3884 3275 3436 3711 
Q 2988 4147 2022 4147 
L 1259 4147 
z
M 628 4666 
L 1925 4666 
Q 3281 4666 3915 4102 
Q 4550 3538 4550 2338 
Q 4550 1131 3912 565 
Q 3275 0 1925 0 
L 628 0 
L 628 4666 
z
" transform="scale(0.015625)"/>
       <path id="DejaVuSans-63" d="M 3122 3366 
L 3122 2828 
Q 2878 2963 2633 3030 
Q 2388 3097 2138 3097 
Q 1578 3097 1268 2742 
Q 959 2388 959 1747 
Q 959 1106 1268 751 
Q 1578 397 2138 397 
Q 2388 397 2633 464 
Q 2878 531 3122 666 
L 3122 134 
Q 2881 22 2623 -34 
Q 2366 -91 2075 -91 
Q 1284 -91 818 406 
Q 353 903 353 1747 
Q 353 2603 823 3093 
Q 1294 3584 2113 3584 
Q 2378 3584 2631 3529 
Q 2884 3475 3122 3366 
z
" transform="scale(0.015625)"/>
       <path id="DejaVuSans-6f" d="M 1959 3097 
Q 1497 3097 1228 2736 
Q 959 2375 959 1747 
Q 959 1119 1226 758 
Q 1494 397 1959 397 
Q 2419 397 2687 759 
Q 2956 1122 2956 1747 
Q 2956 2369 2687 2733 
Q 2419 3097 1959 3097 
z
M 1959 3584 
Q 2709 3584 3137 3096 
Q 3566 2609 3566 1747 
Q 3566 888 3137 398 
Q 2709 -91 1959 -91 
Q 1206 -91 779 398 
Q 353 888 353 1747 
Q 353 2609 779 3096 
Q 1206 3584 1959 3584 
z
" transform="scale(0.015625)"/>
       <path id="DejaVuSans-64" d="M 2906 2969 
L 2906 4863 
L 3481 4863 
L 3481 0 
L 2906 0 
L 2906 525 
Q 2725 213 2448 61 
Q 2172 -91 1784 -91 
Q 1150 -91 751 415 
Q 353 922 353 1747 
Q 353 2572 751 3078 
Q 1150 3584 1784 3584 
Q 2172 3584 2448 3432 
Q 2725 3281 2906 2969 
z
M 947 1747 
Q 947 1113 1208 752 
Q 1469 391 1925 391 
Q 2381 391 2643 752 
Q 2906 1113 2906 1747 
Q 2906 2381 2643 2742 
Q 2381 3103 1925 3103 
Q 1469 3103 1208 2742 
Q 947 2381 947 1747 
z
" transform="scale(0.015625)"/>
      </defs>
      <use xlink:href="#DejaVuSans-44"/>
      <use xlink:href="#DejaVuSans-65" x="77.001953"/>
      <use xlink:href="#DejaVuSans-63" x="138.525391"/>
      <use xlink:href="#DejaVuSans-6f" x="193.505859"/>
      <use xlink:href="#DejaVuSans-64" x="254.6875"/>
      <use xlink:href="#DejaVuSans-65" x="318.164062"/>
      <use xlink:href="#DejaVuSans-64" x="379.6875"/>
      <use xlink:href="#DejaVuSans-20" x="443.164062"/>
      <use xlink:href="#DejaVuSans-49" x="474.951172"/>
      <use xlink:href="#DejaVuSans-6e" x="504.443359"/>
      <use xlink:href="#DejaVuSans-70" x="567.822266"/>
      <use xlink:href="#DejaVuSans-75" x="631.298828"/>
      <use xlink:href="#DejaVuSans-74" x="694.677734"/>
      <use xlink:href="#DejaVuSans-73" x="733.886719"/>
     </g>
    </g>
   </g>
  </g>
  <g id="text_22">
   <!-- Decoded Values and True Values for 2-D LIF Neurons -->
   <g transform="translate(56.748125 16.318125) scale(0.12 -0.12)">
    <defs>
     <path id="DejaVuSans-56" d="M 1831 0 
L 50 4666 
L 709 4666 
L 2188 738 
L 3669 4666 
L 4325 4666 
L 2547 0 
L 1831 0 
z
" transform="scale(0.015625)"/>
     <path id="DejaVuSans-61" d="M 2194 1759 
Q 1497 1759 1228 1600 
Q 959 1441 959 1056 
Q 959 750 1161 570 
Q 1363 391 1709 391 
Q 2188 391 2477 730 
Q 2766 1069 2766 1631 
L 2766 1759 
L 2194 1759 
z
M 3341 1997 
L 3341 0 
L 2766 0 
L 2766 531 
Q 2569 213 2275 61 
Q 1981 -91 1556 -91 
Q 1019 -91 701 211 
Q 384 513 384 1019 
Q 384 1609 779 1909 
Q 1175 2209 1959 2209 
L 2766 2209 
L 2766 2266 
Q 2766 2663 2505 2880 
Q 2244 3097 1772 3097 
Q 1472 3097 1187 3025 
Q 903 2953 641 2809 
L 641 3341 
Q 956 3463 1253 3523 
Q 1550 3584 1831 3584 
Q 2591 3584 2966 3190 
Q 3341 2797 3341 1997 
z
" transform="scale(0.015625)"/>
     <path id="DejaVuSans-6c" d="M 603 4863 
L 1178 4863 
L 1178 0 
L 603 0 
L 603 4863 
z
" transform="scale(0.015625)"/>
     <path id="DejaVuSans-66" d="M 2375 4863 
L 2375 4384 
L 1825 4384 
Q 1516 4384 1395 4259 
Q 1275 4134 1275 3809 
L 1275 3500 
L 2222 3500 
L 2222 3053 
L 1275 3053 
L 1275 0 
L 697 0 
L 697 3053 
L 147 3053 
L 147 3500 
L 697 3500 
L 697 3744 
Q 697 4328 969 4595 
Q 1241 4863 1831 4863 
L 2375 4863 
z
" transform="scale(0.015625)"/>
     <path id="DejaVuSans-2d" d="M 313 2009 
L 1997 2009 
L 1997 1497 
L 313 1497 
L 313 2009 
z
" transform="scale(0.015625)"/>
     <path id="DejaVuSans-4c" d="M 628 4666 
L 1259 4666 
L 1259 531 
L 3531 531 
L 3531 0 
L 628 0 
L 628 4666 
z
" transform="scale(0.015625)"/>
     <path id="DejaVuSans-46" d="M 628 4666 
L 3309 4666 
L 3309 4134 
L 1259 4134 
L 1259 2759 
L 3109 2759 
L 3109 2228 
L 1259 2228 
L 1259 0 
L 628 0 
L 628 4666 
z
" transform="scale(0.015625)"/>
     <path id="DejaVuSans-4e" d="M 628 4666 
L 1478 4666 
L 3547 763 
L 3547 4666 
L 4159 4666 
L 4159 0 
L 3309 0 
L 1241 3903 
L 1241 0 
L 628 0 
L 628 4666 
z
" transform="scale(0.015625)"/>
    </defs>
    <use xlink:href="#DejaVuSans-44"/>
    <use xlink:href="#DejaVuSans-65" x="77.001953"/>
    <use xlink:href="#DejaVuSans-63" x="138.525391"/>
    <use xlink:href="#DejaVuSans-6f" x="193.505859"/>
    <use xlink:href="#DejaVuSans-64" x="254.6875"/>
    <use xlink:href="#DejaVuSans-65" x="318.164062"/>
    <use xlink:href="#DejaVuSans-64" x="379.6875"/>
    <use xlink:href="#DejaVuSans-20" x="443.164062"/>
    <use xlink:href="#DejaVuSans-56" x="474.951172"/>
    <use xlink:href="#DejaVuSans-61" x="535.609375"/>
    <use xlink:href="#DejaVuSans-6c" x="596.888672"/>
    <use xlink:href="#DejaVuSans-75" x="624.671875"/>
    <use xlink:href="#DejaVuSans-65" x="688.050781"/>
    <use xlink:href="#DejaVuSans-73" x="749.574219"/>
    <use xlink:href="#DejaVuSans-20" x="801.673828"/>
    <use xlink:href="#DejaVuSans-61" x="833.460938"/>
    <use xlink:href="#DejaVuSans-6e" x="894.740234"/>
    <use xlink:href="#DejaVuSans-64" x="958.119141"/>
    <use xlink:href="#DejaVuSans-20" x="1021.595703"/>
    <use xlink:href="#DejaVuSans-54" x="1053.382812"/>
    <use xlink:href="#DejaVuSans-72" x="1099.716797"/>
    <use xlink:href="#DejaVuSans-75" x="1140.830078"/>
    <use xlink:href="#DejaVuSans-65" x="1204.208984"/>
    <use xlink:href="#DejaVuSans-20" x="1265.732422"/>
    <use xlink:href="#DejaVuSans-56" x="1297.519531"/>
    <use xlink:href="#DejaVuSans-61" x="1358.177734"/>
    <use xlink:href="#DejaVuSans-6c" x="1419.457031"/>
    <use xlink:href="#DejaVuSans-75" x="1447.240234"/>
    <use xlink:href="#DejaVuSans-65" x="1510.619141"/>
    <use xlink:href="#DejaVuSans-73" x="1572.142578"/>
    <use xlink:href="#DejaVuSans-20" x="1624.242188"/>
    <use xlink:href="#DejaVuSans-66" x="1656.029297"/>
    <use xlink:href="#DejaVuSans-6f" x="1691.234375"/>
    <use xlink:href="#DejaVuSans-72" x="1752.416016"/>
    <use xlink:href="#DejaVuSans-20" x="1793.529297"/>
    <use xlink:href="#DejaVuSans-32" x="1825.316406"/>
    <use xlink:href="#DejaVuSans-2d" x="1888.939453"/>
    <use xlink:href="#DejaVuSans-44" x="1925.023438"/>
    <use xlink:href="#DejaVuSans-20" x="2002.025391"/>
    <use xlink:href="#DejaVuSans-4c" x="2033.8125"/>
    <use xlink:href="#DejaVuSans-49" x="2089.525391"/>
    <use xlink:href="#DejaVuSans-46" x="2119.017578"/>
    <use xlink:href="#DejaVuSans-20" x="2176.537109"/>
    <use xlink:href="#DejaVuSans-4e" x="2208.324219"/>
    <use xlink:href="#DejaVuSans-65" x="2283.128906"/>
    <use xlink:href="#DejaVuSans-75" x="2344.652344"/>
    <use xlink:href="#DejaVuSans-72" x="2408.03125"/>
    <use xlink:href="#DejaVuSans-6f" x="2446.894531"/>
    <use xlink:href="#DejaVuSans-6e" x="2508.076172"/>
    <use xlink:href="#DejaVuSans-73" x="2571.455078"/>
   </g>
  </g>
 </g>
 <defs>
  <clipPath id="p0477310cfe">
   <rect x="52.160938" y="36" width="334.8" height="217.44"/>
  </clipPath>
 </defs>
</svg>
