<?xml version="1.0" encoding="utf-8" standalone="no"?>
<!DOCTYPE svg PUBLIC "-//W3C//DTD SVG 1.1//EN"
  "http://www.w3.org/Graphics/SVG/1.1/DTD/svg11.dtd">
<svg xmlns:xlink="http://www.w3.org/1999/xlink" width="248.193667pt" height="270.600365pt" viewBox="0 0 248.193667 270.600365" xmlns="http://www.w3.org/2000/svg" version="1.1">
 <metadata>
  <rdf:RDF xmlns:dc="http://purl.org/dc/elements/1.1/" xmlns:cc="http://creativecommons.org/ns#" xmlns:rdf="http://www.w3.org/1999/02/22-rdf-syntax-ns#">
   <cc:Work>
    <dc:type rdf:resource="http://purl.org/dc/dcmitype/StillImage"/>
    <dc:date>2022-11-03T14:06:33.749010</dc:date>
    <dc:format>image/svg+xml</dc:format>
    <dc:creator>
     <cc:Agent>
      <dc:title>Matplotlib v3.6.0, https://matplotlib.org/</dc:title>
     </cc:Agent>
    </dc:creator>
   </cc:Work>
  </rdf:RDF>
 </metadata>
 <defs>
  <style type="text/css">*{stroke-linejoin: round; stroke-linecap: butt}</style>
 </defs>
 <g id="figure_1">
  <g id="patch_1">
   <path d="M 0 270.600365 
L 248.193667 270.600365 
L 248.193667 0 
L 0 0 
L 0 270.600365 
z
" style="fill: none"/>
  </g>
  <g id="patch_2">
   <path d="M 7.2 253.44 
L 224.64 253.44 
L 224.64 36 
L 7.2 36 
z
" style="fill: #ffffff"/>
  </g>
  <g id="pane3d_1">
   <g id="patch_3">
    <path d="M 23.61822 199.826264 
L 95.424009 139.637228 
L 94.42584 52.833878 
L 19.183773 107.742111 
" style="fill: #f2f2f2; opacity: 0.5; stroke: #f2f2f2; stroke-linejoin: miter"/>
   </g>
  </g>
  <g id="pane3d_2">
   <g id="patch_4">
    <path d="M 95.424009 139.637228 
L 210.64668 173.12791 
L 214.758571 83.334718 
L 94.42584 52.833878 
" style="fill: #e6e6e6; opacity: 0.5; stroke: #e6e6e6; stroke-linejoin: miter"/>
   </g>
  </g>
  <g id="pane3d_3">
   <g id="patch_5">
    <path d="M 23.61822 199.826264 
L 145.759879 239.71773 
L 210.64668 173.12791 
L 95.424009 139.637228 
" style="fill: #ececec; opacity: 0.5; stroke: #ececec; stroke-linejoin: miter"/>
   </g>
  </g>
  <g id="axis3d_1">
   <g id="line2d_1">
    <path d="M 23.61822 199.826264 
L 145.759879 239.71773 
" style="fill: none; stroke: #000000; stroke-width: 0.8; stroke-linecap: square"/>
   </g>
   <g id="text_1">
    <!-- $t$ -->
    <g transform="translate(64.757243 257.343264) scale(0.1 -0.1)">
     <defs>
      <path id="DejaVuSans-Oblique-74" d="M 2706 3500 
L 2619 3053 
L 1472 3053 
L 1100 1153 
Q 1081 1047 1072 975 
Q 1063 903 1063 863 
Q 1063 663 1183 572 
Q 1303 481 1569 481 
L 2150 481 
L 2053 0 
L 1503 0 
Q 991 0 739 200 
Q 488 400 488 806 
Q 488 878 497 964 
Q 506 1050 525 1153 
L 897 3053 
L 409 3053 
L 500 3500 
L 978 3500 
L 1172 4494 
L 1747 4494 
L 1556 3500 
L 2706 3500 
z
" transform="scale(0.015625)"/>
     </defs>
     <use xlink:href="#DejaVuSans-Oblique-74" transform="translate(0 0.78125)"/>
    </g>
   </g>
   <g id="Line3DCollection_1">
    <path d="M 31.015759 202.242301 
L 102.431499 141.674029 
L 101.729612 54.685171 
" style="fill: none; stroke: #b0b0b0; stroke-width: 0.8"/>
    <path d="M 51.578248 208.95801 
L 121.890081 147.32987 
L 122.020746 59.828382 
" style="fill: none; stroke: #b0b0b0; stroke-width: 0.8"/>
    <path d="M 72.517865 215.796888 
L 141.675804 153.080799 
L 142.667851 65.061821 
" style="fill: none; stroke: #b0b0b0; stroke-width: 0.8"/>
    <path d="M 93.84508 222.762357 
L 161.796989 158.929233 
L 163.680376 70.387884 
" style="fill: none; stroke: #b0b0b0; stroke-width: 0.8"/>
    <path d="M 115.570756 229.857963 
L 182.26224 164.877674 
L 185.068109 75.809051 
" style="fill: none; stroke: #b0b0b0; stroke-width: 0.8"/>
    <path d="M 137.706165 237.087387 
L 203.080458 170.928708 
L 206.841191 81.327893 
" style="fill: none; stroke: #b0b0b0; stroke-width: 0.8"/>
   </g>
   <g id="xtick_1">
    <g id="line2d_2">
     <path d="M 31.637644 201.714876 
L 29.769322 203.299414 
" style="fill: none; stroke: #000000; stroke-width: 0.8; stroke-linecap: square"/>
    </g>
    <g id="text_2">
     <!-- 0.0 -->
     <g transform="translate(15.528877 225.564533) scale(0.1 -0.1)">
      <defs>
       <path id="DejaVuSans-30" d="M 2034 4250 
Q 1547 4250 1301 3770 
Q 1056 3291 1056 2328 
Q 1056 1369 1301 889 
Q 1547 409 2034 409 
Q 2525 409 2770 889 
Q 3016 1369 3016 2328 
Q 3016 3291 2770 3770 
Q 2525 4250 2034 4250 
z
M 2034 4750 
Q 2819 4750 3233 4129 
Q 3647 3509 3647 2328 
Q 3647 1150 3233 529 
Q 2819 -91 2034 -91 
Q 1250 -91 836 529 
Q 422 1150 422 2328 
Q 422 3509 836 4129 
Q 1250 4750 2034 4750 
z
" transform="scale(0.015625)"/>
       <path id="DejaVuSans-2e" d="M 684 794 
L 1344 794 
L 1344 0 
L 684 0 
L 684 794 
z
" transform="scale(0.015625)"/>
      </defs>
      <use xlink:href="#DejaVuSans-30"/>
      <use xlink:href="#DejaVuSans-2e" x="63.623047"/>
      <use xlink:href="#DejaVuSans-30" x="95.410156"/>
     </g>
    </g>
   </g>
   <g id="xtick_2">
    <g id="line2d_3">
     <path d="M 52.190972 208.420959 
L 50.350148 210.034436 
" style="fill: none; stroke: #000000; stroke-width: 0.8; stroke-linecap: square"/>
    </g>
    <g id="text_3">
     <!-- 0.2 -->
     <g transform="translate(36.117057 232.454637) scale(0.1 -0.1)">
      <defs>
       <path id="DejaVuSans-32" d="M 1228 531 
L 3431 531 
L 3431 0 
L 469 0 
L 469 531 
Q 828 903 1448 1529 
Q 2069 2156 2228 2338 
Q 2531 2678 2651 2914 
Q 2772 3150 2772 3378 
Q 2772 3750 2511 3984 
Q 2250 4219 1831 4219 
Q 1534 4219 1204 4116 
Q 875 4013 500 3803 
L 500 4441 
Q 881 4594 1212 4672 
Q 1544 4750 1819 4750 
Q 2544 4750 2975 4387 
Q 3406 4025 3406 3419 
Q 3406 3131 3298 2873 
Q 3191 2616 2906 2266 
Q 2828 2175 2409 1742 
Q 1991 1309 1228 531 
z
" transform="scale(0.015625)"/>
      </defs>
      <use xlink:href="#DejaVuSans-30"/>
      <use xlink:href="#DejaVuSans-2e" x="63.623047"/>
      <use xlink:href="#DejaVuSans-32" x="95.410156"/>
     </g>
    </g>
   </g>
   <g id="xtick_3">
    <g id="line2d_4">
     <path d="M 73.120986 215.249947 
L 71.308988 216.893162 
" style="fill: none; stroke: #000000; stroke-width: 0.8; stroke-linecap: square"/>
    </g>
    <g id="text_4">
     <!-- 0.4 -->
     <g transform="translate(57.084586 239.471694) scale(0.1 -0.1)">
      <defs>
       <path id="DejaVuSans-34" d="M 2419 4116 
L 825 1625 
L 2419 1625 
L 2419 4116 
z
M 2253 4666 
L 3047 4666 
L 3047 1625 
L 3713 1625 
L 3713 1100 
L 3047 1100 
L 3047 0 
L 2419 0 
L 2419 1100 
L 313 1100 
L 313 1709 
L 2253 4666 
z
" transform="scale(0.015625)"/>
      </defs>
      <use xlink:href="#DejaVuSans-30"/>
      <use xlink:href="#DejaVuSans-2e" x="63.623047"/>
      <use xlink:href="#DejaVuSans-34" x="95.410156"/>
     </g>
    </g>
   </g>
   <g id="xtick_4">
    <g id="line2d_5">
     <path d="M 94.438136 222.205248 
L 92.656352 223.879032 
" style="fill: none; stroke: #000000; stroke-width: 0.8; stroke-linecap: square"/>
    </g>
    <g id="text_5">
     <!-- 0.6 -->
     <g transform="translate(78.442047 246.619247) scale(0.1 -0.1)">
      <defs>
       <path id="DejaVuSans-36" d="M 2113 2584 
Q 1688 2584 1439 2293 
Q 1191 2003 1191 1497 
Q 1191 994 1439 701 
Q 1688 409 2113 409 
Q 2538 409 2786 701 
Q 3034 994 3034 1497 
Q 3034 2003 2786 2293 
Q 2538 2584 2113 2584 
z
M 3366 4563 
L 3366 3988 
Q 3128 4100 2886 4159 
Q 2644 4219 2406 4219 
Q 1781 4219 1451 3797 
Q 1122 3375 1075 2522 
Q 1259 2794 1537 2939 
Q 1816 3084 2150 3084 
Q 2853 3084 3261 2657 
Q 3669 2231 3669 1497 
Q 3669 778 3244 343 
Q 2819 -91 2113 -91 
Q 1303 -91 875 529 
Q 447 1150 447 2328 
Q 447 3434 972 4092 
Q 1497 4750 2381 4750 
Q 2619 4750 2861 4703 
Q 3103 4656 3366 4563 
z
" transform="scale(0.015625)"/>
      </defs>
      <use xlink:href="#DejaVuSans-30"/>
      <use xlink:href="#DejaVuSans-2e" x="63.623047"/>
      <use xlink:href="#DejaVuSans-36" x="95.410156"/>
     </g>
    </g>
   </g>
   <g id="xtick_5">
    <g id="line2d_6">
     <path d="M 116.153264 229.2904 
L 114.403145 230.995614 
" style="fill: none; stroke: #000000; stroke-width: 0.8; stroke-linecap: square"/>
    </g>
    <g id="text_6">
     <!-- 0.8 -->
     <g transform="translate(100.200419 253.900971) scale(0.1 -0.1)">
      <defs>
       <path id="DejaVuSans-38" d="M 2034 2216 
Q 1584 2216 1326 1975 
Q 1069 1734 1069 1313 
Q 1069 891 1326 650 
Q 1584 409 2034 409 
Q 2484 409 2743 651 
Q 3003 894 3003 1313 
Q 3003 1734 2745 1975 
Q 2488 2216 2034 2216 
z
M 1403 2484 
Q 997 2584 770 2862 
Q 544 3141 544 3541 
Q 544 4100 942 4425 
Q 1341 4750 2034 4750 
Q 2731 4750 3128 4425 
Q 3525 4100 3525 3541 
Q 3525 3141 3298 2862 
Q 3072 2584 2669 2484 
Q 3125 2378 3379 2068 
Q 3634 1759 3634 1313 
Q 3634 634 3220 271 
Q 2806 -91 2034 -91 
Q 1263 -91 848 271 
Q 434 634 434 1313 
Q 434 1759 690 2068 
Q 947 2378 1403 2484 
z
M 1172 3481 
Q 1172 3119 1398 2916 
Q 1625 2713 2034 2713 
Q 2441 2713 2670 2916 
Q 2900 3119 2900 3481 
Q 2900 3844 2670 4047 
Q 2441 4250 2034 4250 
Q 1625 4250 1398 4047 
Q 1172 3844 1172 3481 
z
" transform="scale(0.015625)"/>
      </defs>
      <use xlink:href="#DejaVuSans-30"/>
      <use xlink:href="#DejaVuSans-2e" x="63.623047"/>
      <use xlink:href="#DejaVuSans-38" x="95.410156"/>
     </g>
    </g>
   </g>
   <g id="xtick_6">
    <g id="line2d_7">
     <path d="M 138.277621 236.509074 
L 136.560684 238.246611 
" style="fill: none; stroke: #000000; stroke-width: 0.8; stroke-linecap: square"/>
    </g>
    <g id="text_7">
     <!-- 1.0 -->
     <g transform="translate(122.371097 261.320678) scale(0.1 -0.1)">
      <defs>
       <path id="DejaVuSans-31" d="M 794 531 
L 1825 531 
L 1825 4091 
L 703 3866 
L 703 4441 
L 1819 4666 
L 2450 4666 
L 2450 531 
L 3481 531 
L 3481 0 
L 794 0 
L 794 531 
z
" transform="scale(0.015625)"/>
      </defs>
      <use xlink:href="#DejaVuSans-31"/>
      <use xlink:href="#DejaVuSans-2e" x="63.623047"/>
      <use xlink:href="#DejaVuSans-30" x="95.410156"/>
     </g>
    </g>
   </g>
  </g>
  <g id="axis3d_2">
   <g id="line2d_8">
    <path d="M 210.64668 173.12791 
L 145.759879 239.71773 
" style="fill: none; stroke: #000000; stroke-width: 0.8; stroke-linecap: square"/>
   </g>
   <g id="Line3DCollection_2">
    <path d="M 25.09575 103.427819 
L 29.24049 195.113566 
L 150.861118 234.482604 
" style="fill: none; stroke: #b0b0b0; stroke-width: 0.8"/>
    <path d="M 39.035291 93.255377 
L 42.510216 183.990618 
L 162.8871 222.140988 
" style="fill: none; stroke: #b0b0b0; stroke-width: 0.8"/>
    <path d="M 52.5388 83.401131 
L 55.382661 173.200679 
L 174.534281 210.188115 
" style="fill: none; stroke: #b0b0b0; stroke-width: 0.8"/>
    <path d="M 65.626422 73.850381 
L 67.875404 162.729014 
L 185.820282 198.605901 
" style="fill: none; stroke: #b0b0b0; stroke-width: 0.8"/>
    <path d="M 78.317077 64.589319 
L 80.005001 152.561746 
L 196.761647 187.377369 
" style="fill: none; stroke: #b0b0b0; stroke-width: 0.8"/>
    <path d="M 90.628558 55.604961 
L 91.787059 142.685791 
L 207.373924 176.486563 
" style="fill: none; stroke: #b0b0b0; stroke-width: 0.8"/>
   </g>
   <g id="xtick_7">
    <g id="line2d_9">
     <path d="M 149.836259 234.150854 
L 152.913483 235.146962 
" style="fill: none; stroke: #000000; stroke-width: 0.8; stroke-linecap: square"/>
    </g>
    <g id="text_8">
     <!-- −4 -->
     <g transform="translate(156.36235 255.49475) scale(0.1 -0.1)">
      <defs>
       <path id="DejaVuSans-2212" d="M 678 2272 
L 4684 2272 
L 4684 1741 
L 678 1741 
L 678 2272 
z
" transform="scale(0.015625)"/>
      </defs>
      <use xlink:href="#DejaVuSans-2212"/>
      <use xlink:href="#DejaVuSans-34" x="83.789062"/>
     </g>
    </g>
   </g>
   <g id="xtick_8">
    <g id="line2d_10">
     <path d="M 161.873543 221.819768 
L 164.916789 222.784246 
" style="fill: none; stroke: #000000; stroke-width: 0.8; stroke-linecap: square"/>
    </g>
    <g id="text_9">
     <!-- −2 -->
     <g transform="translate(168.190876 242.92945) scale(0.1 -0.1)">
      <use xlink:href="#DejaVuSans-2212"/>
      <use xlink:href="#DejaVuSans-32" x="83.789062"/>
     </g>
    </g>
   </g>
   <g id="xtick_9">
    <g id="line2d_11">
     <path d="M 173.531829 209.87693 
L 176.541694 210.811262 
" style="fill: none; stroke: #000000; stroke-width: 0.8; stroke-linecap: square"/>
    </g>
    <g id="text_10">
     <!-- 0 -->
     <g transform="translate(183.836401 230.760219) scale(0.1 -0.1)">
      <use xlink:href="#DejaVuSans-30"/>
     </g>
    </g>
   </g>
   <g id="xtick_10">
    <g id="line2d_12">
     <path d="M 184.828738 198.30429 
L 187.805814 199.209867 
" style="fill: none; stroke: #000000; stroke-width: 0.8; stroke-linecap: square"/>
    </g>
    <g id="text_11">
     <!-- 2 -->
     <g transform="translate(194.936591 218.968621) scale(0.1 -0.1)">
      <use xlink:href="#DejaVuSans-32"/>
     </g>
    </g>
   </g>
   <g id="xtick_11">
    <g id="line2d_13">
     <path d="M 195.780817 187.084896 
L 198.725686 187.963026 
" style="fill: none; stroke: #000000; stroke-width: 0.8; stroke-linecap: square"/>
    </g>
    <g id="text_12">
     <!-- 4 -->
     <g transform="translate(205.697587 207.537346) scale(0.1 -0.1)">
      <use xlink:href="#DejaVuSans-34"/>
     </g>
    </g>
   </g>
   <g id="xtick_12">
    <g id="line2d_14">
     <path d="M 206.403617 176.202818 
L 209.316856 177.054729 
" style="fill: none; stroke: #000000; stroke-width: 0.8; stroke-linecap: square"/>
    </g>
    <g id="text_13">
     <!-- 6 -->
     <g transform="translate(216.1347 196.450127) scale(0.1 -0.1)">
      <use xlink:href="#DejaVuSans-36"/>
     </g>
    </g>
   </g>
  </g>
  <g id="axis3d_3">
   <g id="line2d_15">
    <path d="M 210.64668 173.12791 
L 214.758571 83.334718 
" style="fill: none; stroke: #000000; stroke-width: 0.8; stroke-linecap: square"/>
   </g>
   <g id="Line3DCollection_3">
    <path d="M 210.995946 165.500824 
L 95.33906 132.249846 
L 23.242136 192.016643 
" style="fill: none; stroke: #b0b0b0; stroke-width: 0.8"/>
    <path d="M 212.017341 143.196171 
L 95.09081 110.66139 
L 22.141698 169.165349 
" style="fill: none; stroke: #b0b0b0; stroke-width: 0.8"/>
    <path d="M 213.061635 120.391456 
L 94.837263 88.612332 
L 21.015637 145.781944 
" style="fill: none; stroke: #b0b0b0; stroke-width: 0.8"/>
    <path d="M 214.129608 97.069672 
L 94.578249 66.087775 
L 19.863045 121.847624 
" style="fill: none; stroke: #b0b0b0; stroke-width: 0.8"/>
   </g>
   <g id="xtick_13">
    <g id="line2d_16">
     <path d="M 210.025094 165.221707 
L 212.93997 166.059725 
" style="fill: none; stroke: #000000; stroke-width: 0.8; stroke-linecap: square"/>
    </g>
    <g id="text_14">
     <!-- 0.0 -->
     <g transform="translate(221.348635 170.514216) scale(0.1 -0.1)">
      <use xlink:href="#DejaVuSans-30"/>
      <use xlink:href="#DejaVuSans-2e" x="63.623047"/>
      <use xlink:href="#DejaVuSans-30" x="95.410156"/>
     </g>
    </g>
   </g>
   <g id="xtick_14">
    <g id="line2d_17">
     <path d="M 211.03532 142.922924 
L 213.983754 143.743325 
" style="fill: none; stroke: #000000; stroke-width: 0.8; stroke-linecap: square"/>
    </g>
    <g id="text_15">
     <!-- 0.2 -->
     <g transform="translate(222.568386 148.264018) scale(0.1 -0.1)">
      <use xlink:href="#DejaVuSans-30"/>
      <use xlink:href="#DejaVuSans-2e" x="63.623047"/>
      <use xlink:href="#DejaVuSans-32" x="95.410156"/>
     </g>
    </g>
   </g>
   <g id="xtick_15">
    <g id="line2d_18">
     <path d="M 212.068186 120.124414 
L 215.050959 120.926193 
" style="fill: none; stroke: #000000; stroke-width: 0.8; stroke-linecap: square"/>
    </g>
    <g id="text_16">
     <!-- 0.4 -->
     <g transform="translate(223.815381 125.516857) scale(0.1 -0.1)">
      <use xlink:href="#DejaVuSans-30"/>
      <use xlink:href="#DejaVuSans-2e" x="63.623047"/>
      <use xlink:href="#DejaVuSans-34" x="95.410156"/>
     </g>
    </g>
   </g>
   <g id="xtick_16">
    <g id="line2d_19">
     <path d="M 213.124461 96.809187 
L 216.142381 97.591285 
" style="fill: none; stroke: #000000; stroke-width: 0.8; stroke-linecap: square"/>
    </g>
    <g id="text_17">
     <!-- 0.6 -->
     <g transform="translate(225.090542 102.255893) scale(0.1 -0.1)">
      <use xlink:href="#DejaVuSans-30"/>
      <use xlink:href="#DejaVuSans-2e" x="63.623047"/>
      <use xlink:href="#DejaVuSans-36" x="95.410156"/>
     </g>
    </g>
   </g>
  </g>
  <g id="axes_1">
   <g id="line2d_20">
    <path d="M 62.397653 167.801724 
L 63.097405 168.016632 
L 63.10399 171.36251 
L 63.207415 171.267279 
L 63.323618 170.720588 
L 63.436635 173.845426 
L 63.668656 172.767237 
L 63.778403 172.451115 
L 63.877503 172.509747 
L 64.343691 170.312781 
L 64.390551 172.195295 
L 64.51003 171.547515 
L 64.601443 171.876564 
L 64.641492 173.986066 
L 64.872126 172.983311 
L 64.981349 172.69507 
L 65.2042 171.970603 
L 65.321517 171.407966 
L 65.496613 172.329633 
L 65.601566 172.193295 
L 65.834331 171.142613 
L 66.067492 173.523058 
L 66.177876 173.204177 
L 66.300425 172.474203 
L 66.384454 173.050469 
L 66.738205 171.345309 
L 66.836108 171.454516 
L 66.948571 171.07441 
L 67.042388 171.321586 
L 67.069352 173.809221 
L 67.19402 173.02004 
L 67.327158 175.327902 
L 67.826467 172.174603 
L 68.025737 172.281116 
L 68.253588 171.445021 
L 68.563532 174.576549 
L 68.666511 174.519191 
L 68.776187 174.243077 
L 69.138554 172.334318 
L 69.237952 172.398841 
L 69.352162 171.981877 
L 69.682636 174.416346 
L 69.792634 174.137379 
L 69.869083 174.941784 
L 70.237641 172.871488 
L 70.328471 173.213316 
L 70.39429 174.356013 
L 70.619778 173.634159 
L 70.701547 174.263793 
L 70.942661 173.049816 
L 71.020104 173.816351 
L 71.139679 173.243637 
L 71.208427 174.284276 
L 71.330372 173.638146 
L 71.411485 174.285267 
L 71.62164 174.063868 
L 71.858429 173.007288 
L 71.909167 174.606952 
L 72.031979 173.941661 
L 72.123517 174.258335 
L 72.228852 174.142797 
L 72.325191 174.309044 
L 72.469208 176.158062 
L 72.831402 174.378093 
L 73.068359 173.340423 
L 73.143664 174.159347 
L 73.262169 173.642221 
L 73.359562 173.778011 
L 73.519336 175.126853 
L 73.619113 175.188028 
L 73.742888 174.512925 
L 73.813464 175.470406 
L 74.16389 174.095602 
L 74.262348 174.199951 
L 74.422962 175.513033 
L 74.547498 174.824043 
L 74.623898 175.597508 
L 74.869137 174.342342 
L 74.961926 174.619213 
L 75.080417 174.11991 
L 75.101305 176.564648 
L 75.342763 175.43208 
L 75.512574 176.455641 
L 75.764781 175.010177 
L 75.868444 174.961271 
L 75.987592 174.450657 
L 76.084914 174.592272 
L 76.201523 174.159655 
L 76.29073 174.543237 
L 76.406724 174.130739 
L 76.413686 176.953418 
L 76.669029 175.43625 
L 76.7227 176.867621 
L 76.957521 175.963218 
L 77.06487 175.809416 
L 77.158147 176.070096 
L 77.401826 174.915014 
L 77.574184 175.853709 
L 77.679807 175.753642 
L 77.749335 176.707651 
L 77.857203 176.542013 
L 77.941894 177.051932 
L 78.194363 175.655804 
L 78.297683 175.625518 
L 78.389809 175.919988 
L 78.47033 176.549896 
L 78.715758 175.370088 
L 78.788278 176.230072 
L 78.894085 176.129683 
L 79.015653 175.576557 
L 79.163901 177.197989 
L 79.414725 175.876741 
L 79.476171 177.047793 
L 79.602539 176.362472 
L 79.674922 177.21887 
L 79.924578 175.942011 
L 80.093556 176.962641 
L 80.339117 175.811092 
L 80.450879 178.446152 
L 80.679447 177.778071 
L 81.169606 175.529046 
L 81.283658 175.208714 
L 81.352205 176.16286 
L 81.46998 175.739124 
L 81.653717 179.199203 
L 82.031963 177.239467 
L 82.155498 176.66053 
L 82.244087 177.050912 
L 82.36606 176.517374 
L 82.464291 176.641282 
L 82.49684 178.577554 
L 82.754331 177.141309 
L 82.832527 177.816084 
L 82.958477 177.178089 
L 83.025061 178.170454 
L 83.135592 177.956645 
L 83.233062 178.101136 
L 83.339913 177.989162 
L 83.46616 177.34814 
L 83.544926 178.003892 
L 83.653419 177.848639 
L 83.751283 177.98328 
L 83.998088 176.865905 
L 84.071717 177.659368 
L 84.194586 177.117578 
L 84.342507 178.682127 
L 84.471658 177.972397 
L 84.552322 178.571958 
L 84.680401 177.893458 
L 84.771834 178.202659 
L 84.952146 178.888476 
L 85.060957 178.730546 
L 85.189245 178.051681 
L 85.268047 178.698389 
L 85.500985 177.977812 
L 85.649472 179.510514 
L 85.888127 178.64194 
L 86.118353 178.001936 
L 86.212237 178.245619 
L 86.454624 177.289247 
L 86.559946 179.951474 
L 86.672858 179.692132 
L 86.931591 178.311496 
L 86.996264 179.321685 
L 87.231193 178.571624 
L 87.35469 178.040531 
L 87.413319 179.205688 
L 87.540816 178.571287 
L 87.682502 180.258113 
L 87.798374 179.927938 
L 88.056605 178.583275 
L 88.148132 178.888087 
L 88.272161 178.350855 
L 88.31535 179.906291 
L 88.424584 179.752041 
L 88.554072 179.075632 
L 88.604558 180.437917 
L 88.848123 179.486043 
L 88.928402 180.078702 
L 89.185009 178.798094 
L 89.388105 178.893445 
L 89.628231 178.044171 
L 89.607133 181.221431 
L 89.744793 180.347652 
L 89.828487 180.84939 
L 89.963169 180.054187 
L 90.1232 181.243148 
L 90.390872 179.703714 
L 90.4976 179.622288 
L 90.622475 179.083032 
L 90.696619 179.825145 
L 90.822559 179.260584 
L 90.922165 179.360493 
L 90.936034 181.616579 
L 91.074215 180.745305 
L 91.174393 180.829829 
L 91.306581 180.112088 
L 91.385539 180.729054 
L 91.604646 180.430977 
L 91.686037 180.985782 
L 91.945438 179.686249 
L 92.048822 179.693786 
L 92.141706 179.962556 
L 92.386266 179.041116 
L 92.419812 180.78076 
L 92.530061 180.618625 
L 92.60975 181.212706 
L 92.662326 182.475437 
L 92.768801 182.40603 
L 93.023861 181.23182 
L 93.132951 181.100502 
L 93.233593 181.177313 
L 93.490391 179.970306 
L 93.592528 180.012293 
L 93.666128 180.752658 
L 93.793172 180.185632 
L 93.781909 182.996644 
L 94.174851 181.010806 
L 94.369178 181.337846 
L 94.499165 180.704957 
L 94.532907 182.406281 
L 95.049838 179.960163 
L 95.098663 181.291226 
L 95.226915 180.70674 
L 95.26449 182.305583 
L 95.399925 181.549154 
L 95.449785 182.849401 
L 95.568959 182.484619 
L 95.772728 182.585878 
L 96.016493 181.732423 
L 96.126175 181.598565 
L 96.254717 181.015657 
L 96.490214 182.843919 
L 96.627368 182.058766 
L 96.671041 183.492774 
L 97.059886 181.682285 
L 97.187218 181.135721 
L 97.351869 182.168809 
L 97.438288 182.58781 
L 97.489403 183.836846 
L 97.89758 181.593152 
L 98.002094 181.587987 
L 98.126819 181.110016 
L 98.24207 183.292946 
L 98.489825 182.378874 
L 98.587963 182.523131 
L 98.734293 183.972663 
L 98.831158 184.145305 
L 99.109294 182.534217 
L 99.188017 183.128662 
L 99.301415 182.920153 
L 99.560771 181.753639 
L 99.561647 184.142771 
L 99.820177 182.99797 
L 99.952029 182.368184 
L 100.072234 184.406024 
L 100.193593 184.018093 
L 100.308261 183.784425 
L 100.576157 182.437983 
L 100.648818 183.166565 
L 101.028989 181.652906 
L 100.983598 185.065505 
L 101.129244 184.130947 
L 101.214338 184.573004 
L 101.46903 183.540856 
L 101.667809 183.778099 
L 101.739092 184.531684 
L 101.879075 183.733718 
L 101.938833 184.746245 
L 102.467814 182.267855 
L 102.42086 185.672422 
L 102.675327 184.661626 
L 102.814461 183.891875 
L 102.872865 184.928143 
L 102.978104 184.916958 
L 103.227503 184.028099 
L 103.466533 183.374379 
L 103.716723 182.476477 
L 103.849084 186.515285 
L 104.409733 183.396908 
L 104.47713 184.224694 
L 104.609021 183.631717 
L 104.710417 183.710686 
L 104.710918 186.006122 
L 104.856728 185.108477 
L 104.918203 186.061875 
L 105.334378 183.846072 
L 105.366197 185.445863 
L 105.484117 185.164041 
L 105.621493 184.458847 
L 105.800751 185.131171 
L 105.900559 185.245501 
L 106.124993 184.935769 
L 106.203576 185.510862 
L 106.474688 184.193077 
L 106.579729 184.196077 
L 106.651992 184.90725 
L 106.784757 184.3119 
L 106.815876 185.909069 
L 106.922279 185.882174 
L 107.04018 185.608199 
L 107.436158 183.883812 
L 107.497579 187.079017 
L 107.606122 187.007235 
L 108.028062 184.739267 
L 108.099166 185.469016 
L 108.233414 184.852912 
L 108.26447 186.433855 
L 108.406414 185.654905 
L 108.485805 186.20615 
L 108.602718 185.960478 
L 108.683119 186.489539 
L 108.959402 185.101933 
L 109.233615 185.990695 
L 109.369727 185.343839 
L 109.443846 186.004175 
L 109.686786 185.330928 
L 109.743864 186.348189 
L 109.881864 185.665618 
L 109.92958 186.8775 
L 110.317732 185.378545 
L 110.410803 185.63981 
L 110.548272 187.176653 
L 110.920707 186.01643 
L 111.053231 185.457501 
L 111.162461 187.575024 
L 111.445726 186.083027 
L 111.48459 187.465036 
L 111.719353 186.980152 
L 112.118697 185.286122 
L 112.306874 185.767352 
L 112.434021 185.328825 
L 112.48754 188.570448 
L 112.63855 187.642623 
L 112.721548 188.108371 
L 113.139668 186.050736 
L 113.304738 187.001995 
L 113.570205 185.909359 
L 113.670483 188.174655 
L 113.716681 189.384574 
L 113.981865 188.300759 
L 114.099526 188.062667 
L 114.378573 186.705624 
L 114.485081 186.695304 
L 114.615128 186.210819 
L 114.681648 187.006683 
L 114.941298 186.049852 
L 114.976441 187.474693 
L 115.08819 187.360047 
L 115.252515 188.317421 
L 115.355197 188.384533 
L 115.610059 187.530258 
L 115.685361 188.145147 
L 115.797296 188.028625 
L 115.89251 188.245747 
L 116.166963 187.008179 
L 116.210635 188.250704 
L 116.483806 187.043247 
L 116.497797 188.871579 
L 116.614122 188.670237 
L 116.696718 189.136902 
L 116.818892 188.820524 
L 116.962299 188.085495 
L 117.058262 188.288375 
L 117.455541 186.742983 
L 117.492655 188.104764 
L 117.599456 188.094972 
L 117.734452 187.531856 
L 117.830793 189.812917 
L 118.23769 188.091947 
L 118.49936 187.137998 
L 118.550092 188.224634 
L 118.683927 187.690511 
L 118.771009 190.138162 
L 118.921766 189.275651 
L 119.026128 189.315682 
L 119.168761 188.61344 
L 119.225909 189.569622 
L 119.598799 188.535084 
L 119.861705 187.573251 
L 119.973473 189.52785 
L 120.38142 187.83075 
L 120.397469 189.570539 
L 120.513961 189.380441 
L 120.573952 190.274051 
L 120.861717 188.846377 
L 120.933326 189.51673 
L 121.073135 188.883156 
L 121.213699 190.272229 
L 121.330396 190.080783 
L 121.611543 188.791023 
L 121.703841 189.065845 
L 121.812084 189.03757 
L 121.945207 188.537391 
L 121.930089 190.849299 
L 122.03766 190.83305 
L 122.29877 189.931849 
L 122.413494 189.781917 
L 122.487961 190.392664 
L 123.027319 188.282815 
L 123.021743 190.398632 
L 123.270744 189.736411 
L 123.325253 190.71937 
L 123.608321 189.421674 
L 123.714587 189.434697 
L 123.692465 191.848284 
L 123.993367 190.221988 
L 124.068288 190.819812 
L 124.299039 190.506769 
L 124.39976 190.623595 
L 124.676228 189.463912 
L 124.723514 190.573654 
L 124.971515 189.94572 
L 125.085146 191.806209 
L 125.379064 190.332201 
L 125.471774 190.598337 
L 125.58402 190.504092 
L 125.721278 189.949466 
L 125.81246 190.244081 
L 126.075613 189.347923 
L 126.137151 192.154583 
L 126.330764 192.533825 
L 126.770581 190.372227 
L 126.876919 190.389672 
L 127.009633 189.926162 
L 127.15857 191.123737 
L 127.23226 191.735584 
L 127.377139 191.052173 
L 127.489483 192.910219 
L 127.931195 190.739964 
L 128.140552 190.839151 
L 128.274241 190.364835 
L 128.432121 191.394282 
L 128.702975 190.386752 
L 128.803765 190.50783 
L 128.735264 193.672884 
L 129.273742 191.722582 
L 129.319561 192.827837 
L 129.747562 190.943464 
L 129.938038 191.38539 
L 130.045045 191.396386 
L 130.166092 193.073403 
L 130.316457 192.312742 
L 130.4945 192.973795 
L 130.615729 192.732536 
L 130.8683 192.072719 
L 131.1394 191.088219 
L 131.464236 192.962786 
L 131.627934 193.874447 
L 131.874499 193.327977 
L 132.163603 192.037742 
L 132.252305 192.373586 
L 132.521967 191.429509 
L 132.589901 194.014748 
L 132.711039 193.782409 
L 132.861731 193.034968 
L 132.916569 193.960179 
L 133.326385 192.461501 
L 133.592196 191.595865 
L 133.751635 192.578403 
L 133.859196 192.586419 
L 133.835011 194.875717 
L 134.284816 192.700452 
L 134.280776 194.635748 
L 134.407859 194.306736 
L 134.559285 193.558942 
L 134.60062 194.708368 
L 135.041017 192.71138 
L 135.145974 192.76653 
L 135.165177 194.292889 
L 135.591037 192.556556 
L 135.641032 193.552666 
L 135.593432 196.215277 
L 136.206415 193.140096 
L 136.340683 192.697842 
L 136.441426 192.826774 
L 136.456351 194.41443 
L 136.569982 194.323382 
L 136.715542 193.690797 
L 136.783662 194.372695 
L 136.929129 193.74303 
L 137.043965 195.466873 
L 137.200152 194.657207 
L 137.299833 194.803639 
L 137.555866 194.140493 
L 137.667903 194.079341 
L 137.77527 195.922262 
L 138.225553 193.820777 
L 138.433957 193.965136 
L 138.478742 195.032992 
L 138.900692 193.420447 
L 138.907017 196.940412 
L 139.348642 195.00512 
L 139.602111 194.401745 
L 139.739685 193.920934 
L 139.819072 194.407237 
L 139.939697 196.010808 
L 140.181555 195.603384 
L 140.211696 196.902355 
L 140.67105 194.699318 
L 140.730374 195.514598 
L 140.876525 194.897838 
L 140.981306 194.963524 
L 141.04813 195.654005 
L 141.194845 195.029857 
L 141.211411 196.545554 
L 141.514306 195.144457 
L 141.534395 196.599566 
L 141.689891 195.834208 
L 141.772513 196.263292 
L 142.066893 195.009069 
L 142.130358 195.75137 
L 142.274916 195.16905 
L 142.333562 195.989164 
L 142.480096 195.37574 
L 142.565828 195.753743 
L 142.580037 197.295492 
L 142.740053 196.463811 
L 142.769767 197.751216 
L 143.063821 196.513434 
L 143.140155 197.042596 
L 143.407774 196.237861 
L 143.523779 196.124786 
L 143.938175 194.716036 
L 144.072443 196.070528 
L 144.101084 199.122328 
L 144.563091 196.953746 
L 145.123487 194.970571 
L 145.499793 199.427517 
L 145.961483 197.291593 
L 146.223072 196.607969 
L 146.391036 197.412658 
L 146.541002 196.768225 
L 146.647594 196.812155 
L 146.682345 197.993659 
L 147.124634 196.188707 
L 147.159406 199.093886 
L 147.290025 198.758571 
L 147.452341 197.924608 
L 147.557327 197.994526 
L 147.824038 197.242755 
L 147.967663 196.70667 
L 148.136784 197.490363 
L 148.205797 198.125392 
L 148.327142 197.939992 
L 148.421127 198.183321 
L 148.573512 197.513027 
L 148.772788 199.534126 
L 149.095405 197.920039 
L 149.241438 199.059688 
L 149.369971 198.765153 
L 149.636915 198.024507 
L 149.783697 197.448708 
L 149.875194 197.731335 
L 149.986457 197.707425 
L 150.128508 197.20693 
L 150.08744 199.541375 
L 150.197998 199.527744 
L 150.451091 199.007297 
L 150.527497 199.521742 
L 150.840143 198.085822 
L 150.935201 198.313177 
L 151.04952 198.243996 
L 151.079544 199.471461 
L 151.530154 197.611737 
L 151.77071 200.660293 
L 151.95579 201.189051 
L 152.417234 199.177503 
L 152.568441 198.548985 
L 152.674638 198.607014 
L 152.818387 198.093657 
L 152.923641 198.16666 
L 153.061452 197.74497 
L 153.034845 201.490715 
L 153.157844 201.292816 
L 153.261903 201.382447 
L 153.750995 198.976091 
L 153.863285 198.943447 
L 154.007077 198.435281 
L 154.130899 199.891545 
L 154.252608 199.717193 
L 154.404203 199.093132 
L 154.46676 199.810276 
L 154.618755 199.1814 
L 154.634179 202.261134 
L 154.814484 201.207525 
L 154.901878 201.549181 
L 155.182745 200.642712 
L 155.309686 200.392674 
L 155.575367 199.717828 
L 155.722641 199.165779 
L 155.748307 200.430027 
L 155.903451 199.761235 
L 155.969605 200.420159 
L 156.12391 199.765179 
L 156.161625 202.488564 
L 156.660915 199.988354 
L 156.774922 199.935364 
L 156.920797 199.410169 
L 157.013065 201.316085 
L 157.141691 201.046809 
L 157.299626 200.344743 
L 157.397906 200.525279 
L 157.691961 199.447561 
L 157.7614 201.683495 
L 157.783893 202.97954 
L 158.257985 200.882589 
L 158.396666 202.093624 
L 158.839197 200.470658 
L 158.902429 201.165104 
L 159.201382 200.030415 
L 159.162204 202.220289 
L 159.327633 201.420609 
L 159.427364 201.580587 
L 159.584165 200.908573 
L 159.596824 202.337569 
L 159.728743 202.028584 
L 159.807409 202.494959 
L 159.935021 202.249283 
L 160.251658 200.867758 
L 160.363347 200.855278 
L 160.779431 199.645837 
L 160.773421 204.543096 
L 160.905955 204.228491 
L 161.386429 202.09383 
L 161.503461 202.00574 
L 161.805119 200.858131 
L 161.861255 201.647016 
L 161.976605 201.584377 
L 162.072497 201.801358 
L 162.223025 201.234373 
L 162.172882 203.545455 
L 162.438363 202.92176 
L 162.601462 202.17642 
L 162.698152 202.381861 
L 162.853695 201.746202 
L 162.916576 202.434862 
L 163.037794 202.290253 
L 163.191035 201.689306 
L 163.243715 202.5226 
L 163.54617 201.381028 
L 163.56582 202.683285 
L 163.722118 202.041541 
L 163.859532 203.2481 
L 164.030564 203.975625 
L 164.201364 203.130597 
L 164.411639 203.302663 
L 164.689881 202.514564 
L 164.840166 201.963896 
L 164.896136 202.74522 
L 165.008258 202.73374 
L 165.074762 203.365442 
L 165.089971 204.719032 
L 165.731625 201.957743 
L 165.892335 202.830141 
L 165.984508 203.100069 
L 166.137594 202.516285 
L 166.109238 204.474243 
L 166.244305 204.142867 
L 166.564874 202.77706 
L 166.564874 202.77706 
" clip-path="url(#pc6a918b098)" style="fill: none; stroke: #1f77b4; stroke-width: 1.5; stroke-linecap: square"/>
   </g>
   <g id="line2d_21">
    <path d="M 66.037566 82.956397 
L 55.606364 94.410249 
L 51.006464 99.782141 
L 48.107059 103.474717 
L 46.224543 106.201222 
L 45.145309 108.113597 
L 44.590146 109.526795 
L 44.446444 110.411644 
L 44.530854 111.015028 
L 44.810789 111.471857 
L 45.288534 111.779949 
L 45.96498 111.938169 
L 47.00454 111.933292 
L 48.518613 111.680124 
L 50.626708 111.086601 
L 53.449131 110.059159 
L 57.454695 108.349156 
L 62.883027 105.76712 
L 70.365175 101.931138 
L 80.533753 96.447598 
L 117.343206 76.362422 
L 123.646617 73.282144 
L 128.012626 71.379337 
L 131.103406 70.253535 
L 133.379551 69.656591 
L 134.834112 69.488489 
L 135.815046 69.585408 
L 136.431943 69.861646 
L 136.782179 70.240529 
L 136.969151 70.749819 
L 136.983926 71.507001 
L 136.738578 72.583407 
L 136.139399 74.055714 
L 135.091957 76.002082 
L 133.343231 78.740697 
L 130.699804 82.434966 
L 126.771654 87.524474 
L 119.762298 96.180066 
L 109.493837 108.880482 
L 105.208701 114.541867 
L 102.513997 118.448653 
L 100.774825 121.345149 
L 99.790638 123.386253 
L 99.301263 124.903194 
L 99.195555 125.859771 
L 99.303316 126.517859 
L 99.598135 127.022761 
L 100.082385 127.371992 
L 100.757104 127.564166 
L 101.784513 127.589563 
L 103.271827 127.358429 
L 105.334297 126.773523 
L 108.08823 125.735687 
L 111.641182 124.151847 
L 116.473165 121.741051 
L 122.763693 118.343521 
L 131.541837 113.328664 
L 145.779377 104.891708 
L 163.740444 94.286208 
L 171.586609 89.897229 
L 177.313354 86.933382 
L 181.276368 85.106577 
L 184.33596 83.92943 
L 186.424527 83.343588 
L 187.935858 83.133986 
L 188.982575 83.20488 
L 189.668757 83.466989 
L 190.08696 83.840311 
L 190.349662 84.350167 
L 190.462347 85.115827 
L 190.370538 86.062501 
L 190.022504 87.360649 
L 189.333612 89.087016 
L 188.089861 91.558883 
L 186.102263 94.950842 
L 183.211038 99.415551 
L 178.601554 106.080746 
L 174.537416 111.787345 
L 174.537416 111.787345 
" clip-path="url(#pc6a918b098)" style="fill: none; stroke: #ff7f0e; stroke-width: 1.5; stroke-linecap: square"/>
   </g>
   <g id="legend_1">
    <g id="patch_6">
     <path d="M 177.44 73.35625 
L 217.64 73.35625 
Q 219.64 73.35625 219.64 71.35625 
L 219.64 43 
Q 219.64 41 217.64 41 
L 177.44 41 
Q 175.44 41 175.44 43 
L 175.44 71.35625 
Q 175.44 73.35625 177.44 73.35625 
z
" style="fill: #ffffff; opacity: 0.8; stroke: #cccccc; stroke-linejoin: miter"/>
    </g>
    <g id="line2d_22">
     <path d="M 179.44 49.098437 
L 189.44 49.098437 
L 199.44 49.098437 
" style="fill: none; stroke: #1f77b4; stroke-width: 1.5; stroke-linecap: square"/>
    </g>
    <g id="text_18">
     <!-- $\hat{w}$ -->
     <g transform="translate(207.44 52.598437) scale(0.1 -0.1)">
      <defs>
       <path id="DejaVuSans-302" d="M -1831 5119 
L -1369 5119 
L -603 3944 
L -1038 3944 
L -1600 4709 
L -2163 3944 
L -2597 3944 
L -1831 5119 
z
M -1600 3584 
L -1600 3584 
z
" transform="scale(0.015625)"/>
       <path id="DejaVuSans-Oblique-77" d="M 544 3500 
L 1113 3500 
L 1259 684 
L 2566 3500 
L 3231 3500 
L 3425 684 
L 4666 3500 
L 5241 3500 
L 3641 0 
L 2969 0 
L 2797 2900 
L 1459 0 
L 781 0 
L 544 3500 
z
" transform="scale(0.015625)"/>
      </defs>
      <use xlink:href="#DejaVuSans-302" transform="translate(76.024902 12.015625)"/>
      <use xlink:href="#DejaVuSans-Oblique-77" transform="translate(0 0.828125)"/>
     </g>
    </g>
    <g id="line2d_23">
     <path d="M 179.44 63.776562 
L 189.44 63.776562 
L 199.44 63.776562 
" style="fill: none; stroke: #ff7f0e; stroke-width: 1.5; stroke-linecap: square"/>
    </g>
    <g id="text_19">
     <!-- $w$ -->
     <g transform="translate(207.44 67.276562) scale(0.1 -0.1)">
      <use xlink:href="#DejaVuSans-Oblique-77" transform="translate(0 0.3125)"/>
     </g>
    </g>
   </g>
  </g>
  <g id="text_20">
   <!-- Decoded $\hat{w}$ and $w$ -->
   <g transform="translate(57.06 16.318125) scale(0.12 -0.12)">
    <defs>
     <path id="DejaVuSans-44" d="M 1259 4147 
L 1259 519 
L 2022 519 
Q 2988 519 3436 956 
Q 3884 1394 3884 2338 
Q 3884 3275 3436 3711 
Q 2988 4147 2022 4147 
L 1259 4147 
z
M 628 4666 
L 1925 4666 
Q 3281 4666 3915 4102 
Q 4550 3538 4550 2338 
Q 4550 1131 3912 565 
Q 3275 0 1925 0 
L 628 0 
L 628 4666 
z
" transform="scale(0.015625)"/>
     <path id="DejaVuSans-65" d="M 3597 1894 
L 3597 1613 
L 953 1613 
Q 991 1019 1311 708 
Q 1631 397 2203 397 
Q 2534 397 2845 478 
Q 3156 559 3463 722 
L 3463 178 
Q 3153 47 2828 -22 
Q 2503 -91 2169 -91 
Q 1331 -91 842 396 
Q 353 884 353 1716 
Q 353 2575 817 3079 
Q 1281 3584 2069 3584 
Q 2775 3584 3186 3129 
Q 3597 2675 3597 1894 
z
M 3022 2063 
Q 3016 2534 2758 2815 
Q 2500 3097 2075 3097 
Q 1594 3097 1305 2825 
Q 1016 2553 972 2059 
L 3022 2063 
z
" transform="scale(0.015625)"/>
     <path id="DejaVuSans-63" d="M 3122 3366 
L 3122 2828 
Q 2878 2963 2633 3030 
Q 2388 3097 2138 3097 
Q 1578 3097 1268 2742 
Q 959 2388 959 1747 
Q 959 1106 1268 751 
Q 1578 397 2138 397 
Q 2388 397 2633 464 
Q 2878 531 3122 666 
L 3122 134 
Q 2881 22 2623 -34 
Q 2366 -91 2075 -91 
Q 1284 -91 818 406 
Q 353 903 353 1747 
Q 353 2603 823 3093 
Q 1294 3584 2113 3584 
Q 2378 3584 2631 3529 
Q 2884 3475 3122 3366 
z
" transform="scale(0.015625)"/>
     <path id="DejaVuSans-6f" d="M 1959 3097 
Q 1497 3097 1228 2736 
Q 959 2375 959 1747 
Q 959 1119 1226 758 
Q 1494 397 1959 397 
Q 2419 397 2687 759 
Q 2956 1122 2956 1747 
Q 2956 2369 2687 2733 
Q 2419 3097 1959 3097 
z
M 1959 3584 
Q 2709 3584 3137 3096 
Q 3566 2609 3566 1747 
Q 3566 888 3137 398 
Q 2709 -91 1959 -91 
Q 1206 -91 779 398 
Q 353 888 353 1747 
Q 353 2609 779 3096 
Q 1206 3584 1959 3584 
z
" transform="scale(0.015625)"/>
     <path id="DejaVuSans-64" d="M 2906 2969 
L 2906 4863 
L 3481 4863 
L 3481 0 
L 2906 0 
L 2906 525 
Q 2725 213 2448 61 
Q 2172 -91 1784 -91 
Q 1150 -91 751 415 
Q 353 922 353 1747 
Q 353 2572 751 3078 
Q 1150 3584 1784 3584 
Q 2172 3584 2448 3432 
Q 2725 3281 2906 2969 
z
M 947 1747 
Q 947 1113 1208 752 
Q 1469 391 1925 391 
Q 2381 391 2643 752 
Q 2906 1113 2906 1747 
Q 2906 2381 2643 2742 
Q 2381 3103 1925 3103 
Q 1469 3103 1208 2742 
Q 947 2381 947 1747 
z
" transform="scale(0.015625)"/>
     <path id="DejaVuSans-20" transform="scale(0.015625)"/>
     <path id="DejaVuSans-61" d="M 2194 1759 
Q 1497 1759 1228 1600 
Q 959 1441 959 1056 
Q 959 750 1161 570 
Q 1363 391 1709 391 
Q 2188 391 2477 730 
Q 2766 1069 2766 1631 
L 2766 1759 
L 2194 1759 
z
M 3341 1997 
L 3341 0 
L 2766 0 
L 2766 531 
Q 2569 213 2275 61 
Q 1981 -91 1556 -91 
Q 1019 -91 701 211 
Q 384 513 384 1019 
Q 384 1609 779 1909 
Q 1175 2209 1959 2209 
L 2766 2209 
L 2766 2266 
Q 2766 2663 2505 2880 
Q 2244 3097 1772 3097 
Q 1472 3097 1187 3025 
Q 903 2953 641 2809 
L 641 3341 
Q 956 3463 1253 3523 
Q 1550 3584 1831 3584 
Q 2591 3584 2966 3190 
Q 3341 2797 3341 1997 
z
" transform="scale(0.015625)"/>
     <path id="DejaVuSans-6e" d="M 3513 2113 
L 3513 0 
L 2938 0 
L 2938 2094 
Q 2938 2591 2744 2837 
Q 2550 3084 2163 3084 
Q 1697 3084 1428 2787 
Q 1159 2491 1159 1978 
L 1159 0 
L 581 0 
L 581 3500 
L 1159 3500 
L 1159 2956 
Q 1366 3272 1645 3428 
Q 1925 3584 2291 3584 
Q 2894 3584 3203 3211 
Q 3513 2838 3513 2113 
z
" transform="scale(0.015625)"/>
    </defs>
    <use xlink:href="#DejaVuSans-44" transform="translate(0 0.828125)"/>
    <use xlink:href="#DejaVuSans-65" transform="translate(77.001953 0.828125)"/>
    <use xlink:href="#DejaVuSans-63" transform="translate(138.525391 0.828125)"/>
    <use xlink:href="#DejaVuSans-6f" transform="translate(193.505859 0.828125)"/>
    <use xlink:href="#DejaVuSans-64" transform="translate(254.6875 0.828125)"/>
    <use xlink:href="#DejaVuSans-65" transform="translate(318.164062 0.828125)"/>
    <use xlink:href="#DejaVuSans-64" transform="translate(379.6875 0.828125)"/>
    <use xlink:href="#DejaVuSans-20" transform="translate(443.164062 0.828125)"/>
    <use xlink:href="#DejaVuSans-302" transform="translate(550.976074 12.015625)"/>
    <use xlink:href="#DejaVuSans-Oblique-77" transform="translate(474.951172 0.828125)"/>
    <use xlink:href="#DejaVuSans-20" transform="translate(556.738281 0.828125)"/>
    <use xlink:href="#DejaVuSans-61" transform="translate(588.525391 0.828125)"/>
    <use xlink:href="#DejaVuSans-6e" transform="translate(649.804688 0.828125)"/>
    <use xlink:href="#DejaVuSans-64" transform="translate(713.183594 0.828125)"/>
    <use xlink:href="#DejaVuSans-20" transform="translate(776.660156 0.828125)"/>
    <use xlink:href="#DejaVuSans-Oblique-77" transform="translate(808.447266 0.828125)"/>
   </g>
  </g>
 </g>
 <defs>
  <clipPath id="pc6a918b098">
   <rect x="7.2" y="36" width="217.44" height="217.44"/>
  </clipPath>
 </defs>
</svg>
