<?xml version="1.0" encoding="utf-8" standalone="no"?>
<!DOCTYPE svg PUBLIC "-//W3C//DTD SVG 1.1//EN"
  "http://www.w3.org/Graphics/SVG/1.1/DTD/svg11.dtd">
<svg xmlns:xlink="http://www.w3.org/1999/xlink" width="388.434375pt" height="290.99625pt" viewBox="0 0 388.434375 290.99625" xmlns="http://www.w3.org/2000/svg" version="1.1">
 <metadata>
  <rdf:RDF xmlns:dc="http://purl.org/dc/elements/1.1/" xmlns:cc="http://creativecommons.org/ns#" xmlns:rdf="http://www.w3.org/1999/02/22-rdf-syntax-ns#">
   <cc:Work>
    <dc:type rdf:resource="http://purl.org/dc/dcmitype/StillImage"/>
    <dc:date>2022-10-31T21:25:49.420865</dc:date>
    <dc:format>image/svg+xml</dc:format>
    <dc:creator>
     <cc:Agent>
      <dc:title>Matplotlib v3.6.0, https://matplotlib.org/</dc:title>
     </cc:Agent>
    </dc:creator>
   </cc:Work>
  </rdf:RDF>
 </metadata>
 <defs>
  <style type="text/css">*{stroke-linejoin: round; stroke-linecap: butt}</style>
 </defs>
 <g id="figure_1">
  <g id="patch_1">
   <path d="M -0 290.99625 
L 388.434375 290.99625 
L 388.434375 0 
L -0 0 
L -0 290.99625 
z
" style="fill: none"/>
  </g>
  <g id="axes_1">
   <g id="patch_2">
    <path d="M 38.482813 253.44 
L 373.282813 253.44 
L 373.282813 36 
L 38.482813 36 
z
" style="fill: #ffffff"/>
   </g>
   <g id="matplotlib.axis_1">
    <g id="xtick_1">
     <g id="line2d_1">
      <defs>
       <path id="m37da5e5887" d="M 0 0 
L 0 3.5 
" style="stroke: #000000; stroke-width: 0.8"/>
      </defs>
      <g>
       <use xlink:href="#m37da5e5887" x="38.482813" y="253.44" style="stroke: #000000; stroke-width: 0.8"/>
      </g>
     </g>
     <g id="text_1">
      <!-- −1.0 -->
      <g transform="translate(26.341406 268.038437) scale(0.1 -0.1)">
       <defs>
        <path id="DejaVuSans-2212" d="M 678 2272 
L 4684 2272 
L 4684 1741 
L 678 1741 
L 678 2272 
z
" transform="scale(0.015625)"/>
        <path id="DejaVuSans-31" d="M 794 531 
L 1825 531 
L 1825 4091 
L 703 3866 
L 703 4441 
L 1819 4666 
L 2450 4666 
L 2450 531 
L 3481 531 
L 3481 0 
L 794 0 
L 794 531 
z
" transform="scale(0.015625)"/>
        <path id="DejaVuSans-2e" d="M 684 794 
L 1344 794 
L 1344 0 
L 684 0 
L 684 794 
z
" transform="scale(0.015625)"/>
        <path id="DejaVuSans-30" d="M 2034 4250 
Q 1547 4250 1301 3770 
Q 1056 3291 1056 2328 
Q 1056 1369 1301 889 
Q 1547 409 2034 409 
Q 2525 409 2770 889 
Q 3016 1369 3016 2328 
Q 3016 3291 2770 3770 
Q 2525 4250 2034 4250 
z
M 2034 4750 
Q 2819 4750 3233 4129 
Q 3647 3509 3647 2328 
Q 3647 1150 3233 529 
Q 2819 -91 2034 -91 
Q 1250 -91 836 529 
Q 422 1150 422 2328 
Q 422 3509 836 4129 
Q 1250 4750 2034 4750 
z
" transform="scale(0.015625)"/>
       </defs>
       <use xlink:href="#DejaVuSans-2212"/>
       <use xlink:href="#DejaVuSans-31" x="83.789062"/>
       <use xlink:href="#DejaVuSans-2e" x="147.412109"/>
       <use xlink:href="#DejaVuSans-30" x="179.199219"/>
      </g>
     </g>
    </g>
    <g id="xtick_2">
     <g id="line2d_2">
      <g>
       <use xlink:href="#m37da5e5887" x="105.442813" y="253.44" style="stroke: #000000; stroke-width: 0.8"/>
      </g>
     </g>
     <g id="text_2">
      <!-- −0.8 -->
      <g transform="translate(93.301406 268.038437) scale(0.1 -0.1)">
       <defs>
        <path id="DejaVuSans-38" d="M 2034 2216 
Q 1584 2216 1326 1975 
Q 1069 1734 1069 1313 
Q 1069 891 1326 650 
Q 1584 409 2034 409 
Q 2484 409 2743 651 
Q 3003 894 3003 1313 
Q 3003 1734 2745 1975 
Q 2488 2216 2034 2216 
z
M 1403 2484 
Q 997 2584 770 2862 
Q 544 3141 544 3541 
Q 544 4100 942 4425 
Q 1341 4750 2034 4750 
Q 2731 4750 3128 4425 
Q 3525 4100 3525 3541 
Q 3525 3141 3298 2862 
Q 3072 2584 2669 2484 
Q 3125 2378 3379 2068 
Q 3634 1759 3634 1313 
Q 3634 634 3220 271 
Q 2806 -91 2034 -91 
Q 1263 -91 848 271 
Q 434 634 434 1313 
Q 434 1759 690 2068 
Q 947 2378 1403 2484 
z
M 1172 3481 
Q 1172 3119 1398 2916 
Q 1625 2713 2034 2713 
Q 2441 2713 2670 2916 
Q 2900 3119 2900 3481 
Q 2900 3844 2670 4047 
Q 2441 4250 2034 4250 
Q 1625 4250 1398 4047 
Q 1172 3844 1172 3481 
z
" transform="scale(0.015625)"/>
       </defs>
       <use xlink:href="#DejaVuSans-2212"/>
       <use xlink:href="#DejaVuSans-30" x="83.789062"/>
       <use xlink:href="#DejaVuSans-2e" x="147.412109"/>
       <use xlink:href="#DejaVuSans-38" x="179.199219"/>
      </g>
     </g>
    </g>
    <g id="xtick_3">
     <g id="line2d_3">
      <g>
       <use xlink:href="#m37da5e5887" x="172.402813" y="253.44" style="stroke: #000000; stroke-width: 0.8"/>
      </g>
     </g>
     <g id="text_3">
      <!-- −0.6 -->
      <g transform="translate(160.261406 268.038437) scale(0.1 -0.1)">
       <defs>
        <path id="DejaVuSans-36" d="M 2113 2584 
Q 1688 2584 1439 2293 
Q 1191 2003 1191 1497 
Q 1191 994 1439 701 
Q 1688 409 2113 409 
Q 2538 409 2786 701 
Q 3034 994 3034 1497 
Q 3034 2003 2786 2293 
Q 2538 2584 2113 2584 
z
M 3366 4563 
L 3366 3988 
Q 3128 4100 2886 4159 
Q 2644 4219 2406 4219 
Q 1781 4219 1451 3797 
Q 1122 3375 1075 2522 
Q 1259 2794 1537 2939 
Q 1816 3084 2150 3084 
Q 2853 3084 3261 2657 
Q 3669 2231 3669 1497 
Q 3669 778 3244 343 
Q 2819 -91 2113 -91 
Q 1303 -91 875 529 
Q 447 1150 447 2328 
Q 447 3434 972 4092 
Q 1497 4750 2381 4750 
Q 2619 4750 2861 4703 
Q 3103 4656 3366 4563 
z
" transform="scale(0.015625)"/>
       </defs>
       <use xlink:href="#DejaVuSans-2212"/>
       <use xlink:href="#DejaVuSans-30" x="83.789062"/>
       <use xlink:href="#DejaVuSans-2e" x="147.412109"/>
       <use xlink:href="#DejaVuSans-36" x="179.199219"/>
      </g>
     </g>
    </g>
    <g id="xtick_4">
     <g id="line2d_4">
      <g>
       <use xlink:href="#m37da5e5887" x="239.362813" y="253.44" style="stroke: #000000; stroke-width: 0.8"/>
      </g>
     </g>
     <g id="text_4">
      <!-- −0.4 -->
      <g transform="translate(227.221406 268.038437) scale(0.1 -0.1)">
       <defs>
        <path id="DejaVuSans-34" d="M 2419 4116 
L 825 1625 
L 2419 1625 
L 2419 4116 
z
M 2253 4666 
L 3047 4666 
L 3047 1625 
L 3713 1625 
L 3713 1100 
L 3047 1100 
L 3047 0 
L 2419 0 
L 2419 1100 
L 313 1100 
L 313 1709 
L 2253 4666 
z
" transform="scale(0.015625)"/>
       </defs>
       <use xlink:href="#DejaVuSans-2212"/>
       <use xlink:href="#DejaVuSans-30" x="83.789062"/>
       <use xlink:href="#DejaVuSans-2e" x="147.412109"/>
       <use xlink:href="#DejaVuSans-34" x="179.199219"/>
      </g>
     </g>
    </g>
    <g id="xtick_5">
     <g id="line2d_5">
      <g>
       <use xlink:href="#m37da5e5887" x="306.322813" y="253.44" style="stroke: #000000; stroke-width: 0.8"/>
      </g>
     </g>
     <g id="text_5">
      <!-- −0.2 -->
      <g transform="translate(294.181406 268.038437) scale(0.1 -0.1)">
       <defs>
        <path id="DejaVuSans-32" d="M 1228 531 
L 3431 531 
L 3431 0 
L 469 0 
L 469 531 
Q 828 903 1448 1529 
Q 2069 2156 2228 2338 
Q 2531 2678 2651 2914 
Q 2772 3150 2772 3378 
Q 2772 3750 2511 3984 
Q 2250 4219 1831 4219 
Q 1534 4219 1204 4116 
Q 875 4013 500 3803 
L 500 4441 
Q 881 4594 1212 4672 
Q 1544 4750 1819 4750 
Q 2544 4750 2975 4387 
Q 3406 4025 3406 3419 
Q 3406 3131 3298 2873 
Q 3191 2616 2906 2266 
Q 2828 2175 2409 1742 
Q 1991 1309 1228 531 
z
" transform="scale(0.015625)"/>
       </defs>
       <use xlink:href="#DejaVuSans-2212"/>
       <use xlink:href="#DejaVuSans-30" x="83.789062"/>
       <use xlink:href="#DejaVuSans-2e" x="147.412109"/>
       <use xlink:href="#DejaVuSans-32" x="179.199219"/>
      </g>
     </g>
    </g>
    <g id="xtick_6">
     <g id="line2d_6">
      <g>
       <use xlink:href="#m37da5e5887" x="373.282813" y="253.44" style="stroke: #000000; stroke-width: 0.8"/>
      </g>
     </g>
     <g id="text_6">
      <!-- 0.0 -->
      <g transform="translate(365.33125 268.038437) scale(0.1 -0.1)">
       <use xlink:href="#DejaVuSans-30"/>
       <use xlink:href="#DejaVuSans-2e" x="63.623047"/>
       <use xlink:href="#DejaVuSans-30" x="95.410156"/>
      </g>
     </g>
    </g>
    <g id="text_7">
     <!-- $t$ -->
     <g transform="translate(203.882812 281.716562) scale(0.1 -0.1)">
      <defs>
       <path id="DejaVuSans-Oblique-74" d="M 2706 3500 
L 2619 3053 
L 1472 3053 
L 1100 1153 
Q 1081 1047 1072 975 
Q 1063 903 1063 863 
Q 1063 663 1183 572 
Q 1303 481 1569 481 
L 2150 481 
L 2053 0 
L 1503 0 
Q 991 0 739 200 
Q 488 400 488 806 
Q 488 878 497 964 
Q 506 1050 525 1153 
L 897 3053 
L 409 3053 
L 500 3500 
L 978 3500 
L 1172 4494 
L 1747 4494 
L 1556 3500 
L 2706 3500 
z
" transform="scale(0.015625)"/>
      </defs>
      <use xlink:href="#DejaVuSans-Oblique-74" transform="translate(0 0.78125)"/>
     </g>
    </g>
   </g>
   <g id="matplotlib.axis_2">
    <g id="ytick_1">
     <g id="line2d_7">
      <defs>
       <path id="m11b357c4bb" d="M 0 0 
L -3.5 0 
" style="stroke: #000000; stroke-width: 0.8"/>
      </defs>
      <g>
       <use xlink:href="#m11b357c4bb" x="38.482813" y="228.98981" style="stroke: #000000; stroke-width: 0.8"/>
      </g>
     </g>
     <g id="text_8">
      <!-- −1.0 -->
      <g transform="translate(7.2 232.789029) scale(0.1 -0.1)">
       <use xlink:href="#DejaVuSans-2212"/>
       <use xlink:href="#DejaVuSans-31" x="83.789062"/>
       <use xlink:href="#DejaVuSans-2e" x="147.412109"/>
       <use xlink:href="#DejaVuSans-30" x="179.199219"/>
      </g>
     </g>
    </g>
    <g id="ytick_2">
     <g id="line2d_8">
      <g>
       <use xlink:href="#m11b357c4bb" x="38.482813" y="182.808981" style="stroke: #000000; stroke-width: 0.8"/>
      </g>
     </g>
     <g id="text_9">
      <!-- −0.5 -->
      <g transform="translate(7.2 186.6082) scale(0.1 -0.1)">
       <defs>
        <path id="DejaVuSans-35" d="M 691 4666 
L 3169 4666 
L 3169 4134 
L 1269 4134 
L 1269 2991 
Q 1406 3038 1543 3061 
Q 1681 3084 1819 3084 
Q 2600 3084 3056 2656 
Q 3513 2228 3513 1497 
Q 3513 744 3044 326 
Q 2575 -91 1722 -91 
Q 1428 -91 1123 -41 
Q 819 9 494 109 
L 494 744 
Q 775 591 1075 516 
Q 1375 441 1709 441 
Q 2250 441 2565 725 
Q 2881 1009 2881 1497 
Q 2881 1984 2565 2268 
Q 2250 2553 1709 2553 
Q 1456 2553 1204 2497 
Q 953 2441 691 2322 
L 691 4666 
z
" transform="scale(0.015625)"/>
       </defs>
       <use xlink:href="#DejaVuSans-2212"/>
       <use xlink:href="#DejaVuSans-30" x="83.789062"/>
       <use xlink:href="#DejaVuSans-2e" x="147.412109"/>
       <use xlink:href="#DejaVuSans-35" x="179.199219"/>
      </g>
     </g>
    </g>
    <g id="ytick_3">
     <g id="line2d_9">
      <g>
       <use xlink:href="#m11b357c4bb" x="38.482813" y="136.628152" style="stroke: #000000; stroke-width: 0.8"/>
      </g>
     </g>
     <g id="text_10">
      <!-- 0.0 -->
      <g transform="translate(15.579688 140.42737) scale(0.1 -0.1)">
       <use xlink:href="#DejaVuSans-30"/>
       <use xlink:href="#DejaVuSans-2e" x="63.623047"/>
       <use xlink:href="#DejaVuSans-30" x="95.410156"/>
      </g>
     </g>
    </g>
    <g id="ytick_4">
     <g id="line2d_10">
      <g>
       <use xlink:href="#m11b357c4bb" x="38.482813" y="90.447322" style="stroke: #000000; stroke-width: 0.8"/>
      </g>
     </g>
     <g id="text_11">
      <!-- 0.5 -->
      <g transform="translate(15.579688 94.246541) scale(0.1 -0.1)">
       <use xlink:href="#DejaVuSans-30"/>
       <use xlink:href="#DejaVuSans-2e" x="63.623047"/>
       <use xlink:href="#DejaVuSans-35" x="95.410156"/>
      </g>
     </g>
    </g>
    <g id="ytick_5">
     <g id="line2d_11">
      <g>
       <use xlink:href="#m11b357c4bb" x="38.482813" y="44.266493" style="stroke: #000000; stroke-width: 0.8"/>
      </g>
     </g>
     <g id="text_12">
      <!-- 1.0 -->
      <g transform="translate(15.579688 48.065712) scale(0.1 -0.1)">
       <use xlink:href="#DejaVuSans-31"/>
       <use xlink:href="#DejaVuSans-2e" x="63.623047"/>
       <use xlink:href="#DejaVuSans-30" x="95.410156"/>
      </g>
     </g>
    </g>
   </g>
   <g id="line2d_12">
    <path d="M 38.482813 136.628152 
L 40.826413 136.628152 
L 41.161213 138.059099 
L 41.496013 140.913663 
L 42.165613 154.527526 
L 42.500413 167.418233 
L 42.835213 166.42094 
L 43.170013 187.540968 
L 43.504813 186.30307 
L 43.839613 187.428014 
L 44.174413 185.270127 
L 44.509213 187.666694 
L 44.844013 186.884816 
L 45.178813 193.502123 
L 45.513613 194.014656 
L 45.848413 192.51594 
L 46.183213 206.9032 
L 46.518013 204.466231 
L 46.852813 198.758052 
L 47.187613 199.607372 
L 47.522413 200.115887 
L 47.857213 205.597357 
L 48.192013 201.956314 
L 48.526813 199.936525 
L 48.861613 193.218839 
L 49.196413 207.226019 
L 49.531213 195.731326 
L 49.866013 197.809292 
L 50.200813 198.971671 
L 50.535613 208.357054 
L 51.205213 198.254593 
L 51.540013 197.98955 
L 51.874813 198.873259 
L 52.544413 212.522112 
L 52.879213 206.73854 
L 53.214013 210.373546 
L 53.548813 207.486945 
L 53.883613 198.455846 
L 54.553213 201.597876 
L 54.888013 189.820863 
L 55.222813 206.224746 
L 55.557613 211.608309 
L 55.892413 213.85926 
L 56.227213 209.588311 
L 56.562013 200.608537 
L 56.896813 198.626019 
L 57.231613 198.876658 
L 57.566413 206.643025 
L 57.901213 210.441625 
L 58.236013 212.451424 
L 58.570813 213.669241 
L 58.905613 210.613848 
L 59.575213 196.954432 
L 59.910013 191.463112 
L 60.244813 193.974841 
L 60.579613 205.826345 
L 60.914413 209.707359 
L 61.249213 216.206543 
L 61.584013 205.33565 
L 61.918813 199.777182 
L 62.253613 191.329342 
L 62.588413 201.262203 
L 62.923213 196.875842 
L 63.258013 200.078662 
L 63.592813 200.860728 
L 63.927613 187.166759 
L 64.262413 187.750807 
L 64.932013 195.317372 
L 65.266813 211.160225 
L 65.601613 207.0757 
L 65.936413 214.988742 
L 66.271213 218.590827 
L 66.606013 209.010432 
L 66.940813 203.991082 
L 67.275613 208.804524 
L 67.610413 203.859945 
L 67.945213 201.921834 
L 68.280013 195.016431 
L 69.284413 225.276253 
L 69.619213 209.695642 
L 69.954013 203.81839 
L 70.288813 202.626862 
L 71.293213 174.823235 
L 71.628013 193.275526 
L 71.962813 205.187454 
L 72.297613 209.985012 
L 72.632413 210.743802 
L 72.967213 204.039661 
L 73.302013 188.533229 
L 73.971613 177.36099 
L 74.306413 165.902771 
L 74.976013 159.921822 
L 75.310813 159.543888 
L 75.980413 140.889945 
L 76.315213 141.303778 
L 76.650013 139.507288 
L 76.984813 138.909754 
L 77.319613 143.19519 
L 77.654413 138.272313 
L 77.989213 140.761771 
L 78.324013 147.511425 
L 78.658813 143.187325 
L 78.993613 153.862437 
L 79.328413 151.624178 
L 79.663213 153.961581 
L 79.998013 145.645514 
L 80.332813 144.43572 
L 80.667613 140.909555 
L 81.002413 145.150403 
L 81.337213 139.91185 
L 81.672013 129.672278 
L 82.006813 129.200075 
L 82.341613 130.86165 
L 82.676413 136.833642 
L 83.346013 142.784003 
L 83.680813 137.442658 
L 84.015613 134.177171 
L 84.350413 141.039535 
L 84.685213 151.14422 
L 85.020013 152.964755 
L 85.354813 146.804917 
L 85.689613 144.707383 
L 86.024413 147.076155 
L 86.359213 145.094879 
L 86.694013 142.219253 
L 87.028813 131.788723 
L 87.363613 126.999518 
L 87.698413 133.785554 
L 88.033213 131.873741 
L 88.368013 133.068297 
L 88.702813 132.266618 
L 89.037613 139.596809 
L 89.372413 140.736467 
L 89.707213 140.90429 
L 90.042013 147.655008 
L 90.711613 140.424672 
L 91.046413 142.102823 
L 91.381213 134.911245 
L 91.716013 142.056695 
L 92.050813 143.485409 
L 92.385613 139.817471 
L 92.720413 138.359362 
L 93.055213 143.844561 
L 93.390013 139.087976 
L 93.724813 138.081788 
L 94.394413 140.258557 
L 94.729213 139.158959 
L 95.398813 135.799225 
L 95.733613 131.980505 
L 96.068413 131.345873 
L 96.403213 135.995868 
L 96.738013 142.65989 
L 97.072813 139.080769 
L 97.407613 130.805934 
L 97.742413 133.488163 
L 98.412013 141.65335 
L 98.746813 144.253146 
L 99.081613 143.646989 
L 99.416413 141.564869 
L 99.751213 138.040855 
L 100.086013 131.058196 
L 100.420813 137.88703 
L 101.090413 134.480065 
L 101.760013 143.487807 
L 102.094813 152.392559 
L 102.429613 152.284992 
L 102.764413 146.233234 
L 103.099213 145.48374 
L 103.434013 145.01065 
L 103.768813 136.336683 
L 104.103613 135.198455 
L 104.438413 138.704004 
L 104.773213 139.402068 
L 105.108013 137.864842 
L 105.442813 142.994291 
L 105.777613 142.652819 
L 106.112413 140.757817 
L 106.447213 141.055823 
L 106.782013 146.174271 
L 107.116813 154.059526 
L 107.451613 158.196851 
L 107.786413 155.215182 
L 108.121213 161.692424 
L 108.456013 171.994047 
L 108.790813 169.579638 
L 109.125613 162.323717 
L 109.460413 163.284318 
L 109.795213 159.872942 
L 110.464813 169.313369 
L 110.799613 163.388544 
L 111.134413 163.604437 
L 111.469213 163.513196 
L 111.804013 159.294743 
L 112.138813 161.066946 
L 112.473613 164.850038 
L 112.808413 163.185848 
L 113.143213 169.692915 
L 113.478013 181.262655 
L 113.812813 180.025292 
L 114.147613 182.137143 
L 114.482413 173.331123 
L 114.817213 176.949331 
L 115.152013 178.690405 
L 115.486813 169.75158 
L 115.821613 164.544366 
L 116.156413 161.562642 
L 116.491213 160.093561 
L 116.826013 173.000935 
L 117.495613 164.853032 
L 117.830413 158.565543 
L 118.165213 164.528724 
L 118.500013 162.747435 
L 118.834813 157.948269 
L 119.169613 170.320965 
L 119.504413 167.812783 
L 119.839213 167.296261 
L 120.174013 176.587348 
L 120.508813 181.736757 
L 120.843613 179.682719 
L 121.178413 183.269909 
L 121.513213 176.492977 
L 121.848013 184.901407 
L 122.182813 177.338148 
L 122.517613 164.945205 
L 122.852413 160.970571 
L 123.187213 154.609913 
L 123.522013 157.346011 
L 123.856813 169.938399 
L 124.191613 169.793444 
L 124.526413 176.217135 
L 124.861213 163.963523 
L 125.530813 167.096388 
L 125.865613 172.097797 
L 126.200413 170.080175 
L 126.535213 170.775032 
L 126.870013 173.487225 
L 127.204813 178.160975 
L 127.539613 179.899092 
L 128.209213 167.79425 
L 128.544013 169.264761 
L 129.213613 161.603635 
L 129.548413 160.328971 
L 129.883213 166.502507 
L 130.218013 166.617031 
L 130.552813 174.407414 
L 130.887613 179.050944 
L 131.222413 178.393962 
L 131.557213 174.342795 
L 131.892013 175.315748 
L 132.226813 171.578198 
L 132.561613 169.623797 
L 132.896413 171.812109 
L 133.231213 167.008409 
L 133.566013 164.098739 
L 133.900813 170.224031 
L 134.235613 161.997747 
L 134.570413 165.728154 
L 134.905213 159.692296 
L 135.240013 176.68015 
L 135.574813 169.128999 
L 135.909613 168.096565 
L 136.244413 168.309878 
L 136.579213 166.050463 
L 136.914013 167.375006 
L 137.248813 174.238247 
L 137.583613 174.884203 
L 138.253213 170.982857 
L 138.588013 171.146577 
L 138.922813 170.261977 
L 139.257613 168.511448 
L 139.592413 169.235418 
L 139.927213 170.951821 
L 140.262013 182.765919 
L 140.596813 181.972061 
L 140.931613 183.775878 
L 141.266413 178.243361 
L 141.936013 173.085817 
L 142.605613 179.162458 
L 142.940413 187.156253 
L 143.275213 189.909352 
L 143.944813 180.525646 
L 144.279613 178.163836 
L 144.614413 173.141527 
L 145.284013 189.487815 
L 145.618813 182.546926 
L 145.953613 180.63904 
L 146.288413 184.129325 
L 146.623213 183.284982 
L 146.958013 185.944749 
L 147.292813 182.440316 
L 147.627613 181.051134 
L 147.962413 185.798629 
L 148.297213 187.578678 
L 148.632013 183.889892 
L 148.966813 184.53998 
L 149.301613 186.206966 
L 149.636413 173.560579 
L 149.971213 172.527899 
L 150.306013 174.300702 
L 150.975613 184.602583 
L 151.645213 190.90362 
L 151.980013 189.63898 
L 152.314813 189.169825 
L 152.649613 194.887471 
L 152.984413 188.347097 
L 153.319213 171.636117 
L 153.654013 174.228007 
L 153.988813 174.563996 
L 154.323613 181.209846 
L 154.658413 183.305161 
L 154.993213 193.561135 
L 155.328013 195.205574 
L 155.662813 193.545872 
L 156.332413 185.722498 
L 156.667213 184.155413 
L 157.002013 177.920899 
L 157.336813 177.225841 
L 157.671613 177.177785 
L 158.006413 179.459532 
L 158.341213 185.645194 
L 159.345613 174.966245 
L 159.680413 175.718238 
L 160.015213 181.885187 
L 160.350013 172.939963 
L 160.684813 171.548981 
L 161.019613 175.996982 
L 161.689213 189.412861 
L 162.358813 182.88471 
L 162.693613 188.988033 
L 163.028413 188.245915 
L 163.363213 189.97869 
L 164.032813 174.460147 
L 164.702413 197.514797 
L 165.037213 193.642373 
L 165.706813 181.562812 
L 166.041613 182.086545 
L 166.376413 181.384023 
L 166.711213 178.609941 
L 167.380813 181.967849 
L 167.715613 181.604883 
L 168.050413 185.03605 
L 168.385213 180.236617 
L 168.720013 181.902393 
L 169.054813 177.960732 
L 169.389613 170.990631 
L 169.724413 175.417119 
L 170.059213 171.894154 
L 170.394013 174.369643 
L 170.728813 172.927362 
L 171.063613 185.32601 
L 171.398413 184.109139 
L 171.733213 194.231197 
L 172.068013 194.067578 
L 172.402813 203.496028 
L 172.737613 198.738528 
L 173.072413 196.920245 
L 173.407213 200.629436 
L 173.742013 193.54203 
L 174.076813 194.449469 
L 174.746413 206.33992 
L 175.081213 204.430848 
L 175.416013 204.952175 
L 176.085613 211.226171 
L 176.420413 209.940181 
L 176.755213 203.549063 
L 177.090013 207.185604 
L 177.424813 224.693432 
L 177.759613 213.370615 
L 178.094413 222.387894 
L 178.429213 221.006232 
L 178.764013 226.066952 
L 179.098813 218.992122 
L 179.433613 219.553626 
L 179.768413 225.889095 
L 180.103213 222.90389 
L 180.438013 215.040392 
L 180.772813 217.901157 
L 181.107613 215.916341 
L 181.442413 222.619377 
L 181.777213 216.190939 
L 182.112013 213.33215 
L 182.446813 214.691344 
L 182.781613 219.003497 
L 183.116413 225.631316 
L 183.786013 218.687043 
L 184.120813 221.998242 
L 184.455613 220.756135 
L 184.790413 227.242337 
L 185.125213 229.655407 
L 185.460013 226.197577 
L 186.129613 208.945079 
L 186.464413 208.365392 
L 186.799213 214.03937 
L 187.134013 216.684437 
L 187.468813 218.229587 
L 187.803613 220.778452 
L 188.138413 226.032823 
L 188.473213 218.877982 
L 188.808013 217.520232 
L 189.142813 214.020688 
L 189.477613 219.364123 
L 189.812413 216.248115 
L 190.147213 214.421984 
L 190.482013 221.796796 
L 190.816813 219.070647 
L 191.151613 212.175667 
L 191.486413 222.133718 
L 191.821213 235.417722 
L 192.156013 233.630035 
L 192.490813 219.767026 
L 192.825613 215.256016 
L 193.160413 215.998952 
L 193.495213 213.210366 
L 193.830013 213.691407 
L 194.164813 217.828787 
L 194.499613 219.796349 
L 194.834413 227.887775 
L 195.504013 217.577483 
L 195.838813 220.893351 
L 196.173613 229.688662 
L 196.843213 221.247438 
L 197.178013 212.820864 
L 197.512813 220.645805 
L 197.847613 218.469395 
L 198.182413 223.067235 
L 198.517213 223.097033 
L 198.852013 223.921007 
L 199.186813 219.628286 
L 199.521613 220.198638 
L 200.191213 226.135795 
L 200.526013 216.561561 
L 200.860813 212.685425 
L 201.195613 218.34146 
L 201.530413 227.410659 
L 201.865213 220.896679 
L 202.200013 222.737248 
L 202.534813 219.70154 
L 202.869613 223.420972 
L 203.204413 214.869198 
L 203.539213 211.241727 
L 203.874013 217.399089 
L 204.208813 218.079656 
L 204.543613 217.712025 
L 204.878413 224.255435 
L 205.213213 220.812985 
L 205.548013 223.940326 
L 205.882813 225.448929 
L 206.552413 224.010589 
L 206.887213 222.185877 
L 207.556813 196.100948 
L 208.226413 180.839302 
L 208.561213 182.48475 
L 208.896013 190.056496 
L 209.230813 189.377731 
L 209.565613 185.907619 
L 209.900413 179.409599 
L 210.570013 182.668228 
L 210.904813 182.130578 
L 211.239613 180.327656 
L 211.574413 177.403258 
L 212.244013 174.871497 
L 212.578813 172.912883 
L 212.913613 177.238676 
L 213.248413 177.707094 
L 213.583213 182.103056 
L 213.918013 179.425903 
L 214.252813 184.209854 
L 214.587613 182.796836 
L 214.922413 177.972011 
L 215.257213 175.409609 
L 215.592013 176.754389 
L 215.926813 171.056057 
L 216.261613 163.106208 
L 216.596413 162.041204 
L 216.931213 177.649979 
L 217.266013 176.583509 
L 217.600813 179.409589 
L 217.935613 177.683068 
L 218.270413 168.256491 
L 218.605213 172.860646 
L 218.940013 174.345425 
L 219.609613 159.464136 
L 219.944413 161.573447 
L 220.279213 171.564331 
L 220.614013 167.727877 
L 220.948813 171.597046 
L 221.283613 177.805033 
L 221.618413 176.737471 
L 221.953213 185.73361 
L 222.288013 180.996915 
L 222.622813 179.224687 
L 222.957613 172.830808 
L 223.292413 175.231342 
L 223.627213 174.740026 
L 223.962013 168.86282 
L 224.631613 163.817181 
L 224.966413 164.211375 
L 225.301213 165.037893 
L 225.636013 173.781625 
L 225.970813 174.246225 
L 226.640413 179.049152 
L 226.975213 181.729353 
L 227.310013 178.853726 
L 227.644813 171.810416 
L 228.314413 162.9361 
L 228.649213 168.393635 
L 228.984013 168.310715 
L 229.318813 169.684653 
L 229.653613 163.108705 
L 229.988413 168.009494 
L 230.323213 171.159559 
L 230.658013 172.315087 
L 230.992813 179.575285 
L 231.327613 180.523218 
L 231.997213 183.995848 
L 232.332013 182.970474 
L 232.666813 184.783439 
L 233.001613 172.454325 
L 233.336413 171.847759 
L 233.671213 168.143902 
L 234.340813 169.902274 
L 234.675613 171.721818 
L 235.010413 174.797881 
L 235.345213 180.141205 
L 235.680013 181.535465 
L 236.014813 184.319142 
L 236.349613 179.660848 
L 236.684413 171.486906 
L 237.019213 170.11866 
L 237.354013 169.386906 
L 238.358413 155.102747 
L 238.693213 156.766777 
L 239.028013 176.611438 
L 239.362813 170.584397 
L 239.697613 173.516322 
L 240.367213 182.177477 
L 241.036813 187.46349 
L 241.371613 200.486086 
L 241.706413 206.458455 
L 242.041213 214.430216 
L 242.376013 216.500706 
L 242.710813 210.942336 
L 243.045613 207.250801 
L 243.380413 206.04683 
L 243.715213 202.146502 
L 244.384813 207.045726 
L 244.719613 230.622939 
L 245.054413 228.533083 
L 245.389213 229.156914 
L 245.724013 228.008906 
L 246.058813 225.70388 
L 246.393613 224.18613 
L 246.728413 223.235386 
L 247.063213 235.267451 
L 247.398013 231.929946 
L 247.732813 237.351651 
L 248.402413 225.140651 
L 249.072013 218.690632 
L 249.406813 225.594764 
L 249.741613 225.66675 
L 250.076413 237.711211 
L 251.080813 225.431176 
L 251.415613 229.712764 
L 251.750413 231.007119 
L 252.085213 225.850755 
L 252.420013 226.09288 
L 252.754813 226.965134 
L 253.089613 232.824627 
L 253.424413 232.326995 
L 254.094013 236.494639 
L 254.428813 228.955089 
L 254.763613 226.676573 
L 255.098413 221.018435 
L 255.433213 228.206104 
L 255.768013 227.671453 
L 256.102813 231.154713 
L 256.437613 243.556364 
L 256.772413 243.048837 
L 257.776813 218.539131 
L 258.111613 223.609124 
L 258.446413 223.06372 
L 258.781213 233.40383 
L 259.116013 229.6271 
L 259.450813 239.807249 
L 259.785613 236.426245 
L 260.120413 229.522274 
L 260.455213 226.628267 
L 260.790013 231.889804 
L 261.124813 235.297921 
L 261.459613 235.326238 
L 261.794413 230.529554 
L 262.129213 221.773497 
L 262.464013 221.356081 
L 262.798813 217.536133 
L 263.133613 222.340744 
L 263.468413 243.069759 
L 263.803213 234.730649 
L 264.472813 228.937265 
L 264.807613 233.087847 
L 265.142413 233.856467 
L 265.477213 231.914439 
L 265.812013 230.665422 
L 266.146813 232.501532 
L 266.481613 218.017295 
L 266.816413 219.377168 
L 267.151213 226.631856 
L 267.486013 228.284533 
L 267.820813 225.259742 
L 268.490413 240.307696 
L 268.825213 241.454017 
L 269.160013 236.138644 
L 269.494813 228.456509 
L 269.829613 223.504785 
L 270.164413 222.427572 
L 270.499213 229.297464 
L 270.834013 231.662729 
L 271.168813 230.721803 
L 271.503613 231.447302 
L 271.838413 233.925992 
L 272.173213 235.376735 
L 272.508013 227.283397 
L 272.842813 224.3244 
L 273.177613 220.365924 
L 273.512413 221.290446 
L 273.847213 217.167846 
L 274.516813 198.253676 
L 274.851613 198.140025 
L 275.186413 187.314061 
L 275.521213 189.710289 
L 275.856013 189.744489 
L 276.190813 186.182581 
L 276.525613 175.37941 
L 276.860413 173.354096 
L 277.195213 173.380044 
L 277.530013 160.759365 
L 277.864813 154.916154 
L 278.199613 154.451964 
L 278.534413 161.119762 
L 278.869213 161.152114 
L 279.204013 164.601748 
L 279.538813 165.400264 
L 279.873613 164.781843 
L 280.208413 156.875276 
L 280.543213 154.456747 
L 280.878013 153.928195 
L 281.212813 150.835844 
L 281.547613 149.581251 
L 281.882413 154.082997 
L 282.217213 151.718542 
L 282.552013 146.859065 
L 282.886813 145.923156 
L 283.221613 152.986661 
L 283.556413 149.059483 
L 283.891213 154.927076 
L 284.226013 147.617746 
L 284.560813 146.201115 
L 284.895613 150.562166 
L 285.230413 152.649529 
L 285.565213 153.724309 
L 285.900013 159.304537 
L 286.234813 152.387023 
L 286.569613 152.083291 
L 286.904413 157.868669 
L 287.239213 157.862908 
L 287.908813 143.735597 
L 288.243613 147.227907 
L 288.578413 144.547043 
L 288.913213 153.345565 
L 289.248013 152.839188 
L 289.582813 147.318072 
L 289.917613 148.759246 
L 290.252413 146.742343 
L 290.587213 147.809032 
L 290.922013 146.721165 
L 291.256813 147.664151 
L 291.591613 154.123209 
L 291.926413 157.059789 
L 292.261213 161.291509 
L 292.596013 152.000984 
L 292.930813 153.452236 
L 293.265613 150.507481 
L 293.600413 154.415014 
L 293.935213 152.179817 
L 294.270013 154.407651 
L 294.604813 147.883491 
L 294.939613 150.440324 
L 295.274413 154.716702 
L 295.609213 149.932398 
L 295.944013 157.599221 
L 296.948413 135.156265 
L 297.283213 139.552761 
L 297.618013 140.938217 
L 297.952813 138.916548 
L 298.957213 158.56739 
L 299.292013 155.759747 
L 299.626813 157.951133 
L 299.961613 164.207855 
L 300.296413 163.521222 
L 300.631213 163.762405 
L 300.966013 164.608998 
L 301.300813 161.11914 
L 301.635613 156.324492 
L 301.970413 156.211906 
L 302.305213 143.063939 
L 302.974813 138.570679 
L 303.309613 144.284254 
L 303.644413 146.672666 
L 303.979213 142.958268 
L 304.314013 147.078813 
L 304.648813 149.113336 
L 304.983613 150.192071 
L 305.318413 152.240766 
L 305.653213 155.833942 
L 305.988013 148.745585 
L 306.322813 145.537587 
L 306.657613 154.122378 
L 306.992413 151.351053 
L 307.327213 156.159861 
L 307.662013 158.025591 
L 307.996813 165.480994 
L 308.331613 169.004501 
L 308.666413 178.326847 
L 309.001213 175.403177 
L 309.336013 170.997965 
L 309.670813 168.731477 
L 310.005613 169.777216 
L 310.675213 161.420189 
L 311.010013 167.993694 
L 311.344813 168.393037 
L 311.679613 167.712898 
L 312.014413 168.469797 
L 312.349213 166.433747 
L 313.018813 158.99765 
L 313.353613 166.893589 
L 313.688413 167.671301 
L 314.023213 171.208809 
L 314.358013 172.142266 
L 314.692813 178.68974 
L 315.027613 176.322721 
L 315.362413 177.548878 
L 315.697213 176.77186 
L 316.032013 180.450532 
L 316.366813 182.115083 
L 317.036413 167.558089 
L 317.371213 169.845182 
L 317.706013 166.915456 
L 318.040813 168.260043 
L 318.375613 172.426824 
L 318.710413 172.711478 
L 319.045213 174.627088 
L 319.380013 170.718194 
L 319.714813 171.535253 
L 320.384413 165.688279 
L 320.719213 171.940145 
L 321.054013 173.266343 
L 321.388813 172.078908 
L 321.723613 179.301324 
L 322.058413 179.86214 
L 322.393213 172.288533 
L 322.728013 169.16504 
L 323.062813 171.642995 
L 323.397613 162.742907 
L 323.732413 157.553407 
L 324.067213 162.571398 
L 324.402013 164.399488 
L 324.736813 165.055004 
L 325.071613 171.633727 
L 325.406413 170.235323 
L 325.741213 173.200005 
L 326.076013 171.247506 
L 326.410813 172.75712 
L 327.080413 171.410823 
L 327.415213 180.667646 
L 327.750013 176.203516 
L 328.084813 184.167723 
L 328.419613 175.895937 
L 328.754413 179.433103 
L 329.089213 180.617257 
L 329.424013 177.946306 
L 329.758813 178.955212 
L 330.093613 173.166165 
L 330.428413 176.001682 
L 331.098013 163.798234 
L 331.432813 160.658169 
L 331.767613 161.904257 
L 332.102413 166.364984 
L 332.437213 164.858554 
L 332.772013 165.750814 
L 333.106813 173.144817 
L 333.441613 171.329855 
L 333.776413 176.736595 
L 334.111213 179.931018 
L 334.446013 179.829948 
L 334.780813 182.091852 
L 335.115613 180.801884 
L 335.785213 169.968473 
L 336.120013 170.959657 
L 336.454813 165.002931 
L 336.789613 165.290486 
L 337.124413 163.894441 
L 337.459213 170.763557 
L 337.794013 180.556879 
L 338.128813 180.93531 
L 338.463613 177.843067 
L 338.798413 170.864531 
L 339.133213 166.602902 
L 339.802813 154.903284 
L 340.137613 153.189977 
L 340.472413 163.254437 
L 341.142013 172.479573 
L 341.811613 203.31849 
L 342.146413 204.443267 
L 342.481213 196.49448 
L 343.150813 189.637074 
L 343.485613 198.032987 
L 343.820413 193.47062 
L 344.155213 186.158733 
L 344.490013 181.874745 
L 344.824813 189.753076 
L 345.159613 186.093874 
L 345.494413 192.039637 
L 346.164013 191.297082 
L 346.498813 189.580234 
L 346.833613 190.817823 
L 347.168413 193.610353 
L 347.503213 195.234566 
L 347.838013 192.674809 
L 348.172813 194.550522 
L 348.507613 202.220302 
L 348.842413 204.794829 
L 349.177213 203.644204 
L 349.512013 194.433461 
L 349.846813 189.547666 
L 350.181613 188.08301 
L 350.516413 187.850191 
L 350.851213 194.225296 
L 351.186013 192.541007 
L 351.520813 189.594236 
L 352.190413 199.164942 
L 352.525213 192.882103 
L 352.860013 190.162698 
L 353.194813 197.954401 
L 353.529613 197.735759 
L 353.864413 201.710608 
L 354.199213 197.4776 
L 354.534013 197.887417 
L 354.868813 195.855907 
L 355.203613 199.62505 
L 355.538413 209.442104 
L 355.873213 207.780216 
L 356.208013 201.852118 
L 356.542813 199.269346 
L 356.877613 207.841964 
L 357.547213 187.758835 
L 357.882013 186.156322 
L 358.216813 188.85847 
L 358.551613 195.021188 
L 358.886413 193.284806 
L 359.221213 192.84011 
L 359.556013 186.850062 
L 359.890813 193.303916 
L 360.225613 185.565263 
L 360.560413 182.48849 
L 360.895213 183.620051 
L 361.230013 183.010289 
L 361.564813 191.357541 
L 362.234413 200.663856 
L 362.569213 202.667514 
L 362.904013 200.81532 
L 363.238813 192.809462 
L 363.908413 190.534256 
L 364.243213 194.514238 
L 364.578013 193.768753 
L 364.912813 201.582767 
L 365.247613 195.388308 
L 365.582413 197.091815 
L 365.917213 203.496794 
L 366.252013 192.986135 
L 366.586813 193.505803 
L 366.921613 189.287778 
L 367.256413 191.773643 
L 367.591213 198.594437 
L 367.926013 192.157947 
L 368.260813 194.800414 
L 368.595613 193.755803 
L 369.600013 211.925397 
L 369.934813 214.558744 
L 370.604413 197.995017 
L 370.939213 185.448895 
L 371.274013 186.695237 
L 371.608813 183.4425 
L 371.943613 185.373894 
L 372.278413 189.056265 
L 372.948013 211.120713 
L 372.948013 211.120713 
" clip-path="url(#p1501921018)" style="fill: none; stroke: #1f77b4; stroke-width: 1.5; stroke-linecap: square"/>
   </g>
   <g id="line2d_13">
    <path d="M 38.482813 194.252854 
L 71.628013 194.252854 
L 71.962813 137.436723 
L 105.108013 137.436723 
L 105.442813 166.056339 
L 138.588013 166.056339 
L 138.922813 176.621271 
L 172.068013 176.621271 
L 172.402813 209.47227 
L 205.548013 209.47227 
L 205.882813 168.428203 
L 239.028013 168.428203 
L 239.362813 217.635381 
L 272.508013 217.635381 
L 272.842813 148.533976 
L 305.988013 148.533976 
L 306.322813 167.813592 
L 339.468013 167.813592 
L 339.802813 187.717994 
L 372.948013 187.717994 
L 372.948013 187.717994 
" clip-path="url(#p1501921018)" style="fill: none; stroke: #ff7f0e; stroke-width: 1.5; stroke-linecap: square"/>
   </g>
   <g id="line2d_14">
    <path d="M 38.482813 159.515897 
L 71.628013 159.515897 
L 71.962813 45.883636 
L 105.108013 45.883636 
L 105.442813 103.122867 
L 138.588013 103.122867 
L 138.922813 124.252731 
L 172.068013 124.252731 
L 172.402813 189.95473 
L 205.548013 189.95473 
L 205.882813 107.866597 
L 239.028013 107.866597 
L 239.362813 206.280951 
L 272.508013 206.280951 
L 272.842813 68.078143 
L 305.988013 68.078143 
L 306.322813 106.637374 
L 339.468013 106.637374 
L 339.802813 146.446178 
L 372.948013 146.446178 
L 372.948013 146.446178 
" clip-path="url(#p1501921018)" style="fill: none; stroke: #2ca02c; stroke-width: 1.5; stroke-linecap: square"/>
   </g>
   <g id="patch_3">
    <path d="M 38.482813 253.44 
L 38.482813 36 
" style="fill: none; stroke: #000000; stroke-width: 0.8; stroke-linejoin: miter; stroke-linecap: square"/>
   </g>
   <g id="patch_4">
    <path d="M 373.282813 253.44 
L 373.282813 36 
" style="fill: none; stroke: #000000; stroke-width: 0.8; stroke-linejoin: miter; stroke-linecap: square"/>
   </g>
   <g id="patch_5">
    <path d="M 38.482813 253.44 
L 373.282813 253.44 
" style="fill: none; stroke: #000000; stroke-width: 0.8; stroke-linejoin: miter; stroke-linecap: square"/>
   </g>
   <g id="patch_6">
    <path d="M 38.482813 36 
L 373.282813 36 
" style="fill: none; stroke: #000000; stroke-width: 0.8; stroke-linejoin: miter; stroke-linecap: square"/>
   </g>
   <g id="legend_1">
    <g id="patch_7">
     <path d="M 162.482812 89.676562 
L 249.282813 89.676562 
Q 251.282813 89.676562 251.282813 87.676562 
L 251.282813 43 
Q 251.282813 41 249.282813 41 
L 162.482812 41 
Q 160.482812 41 160.482812 43 
L 160.482812 87.676562 
Q 160.482812 89.676562 162.482812 89.676562 
z
" style="fill: #ffffff; opacity: 0.8; stroke: #cccccc; stroke-linejoin: miter"/>
    </g>
    <g id="line2d_15">
     <path d="M 164.482812 50.7 
L 174.482812 50.7 
L 184.482812 50.7 
" style="fill: none; stroke: #1f77b4; stroke-width: 1.5; stroke-linecap: square"/>
    </g>
    <g id="text_13">
     <!-- $\hat{y}$ -->
     <g transform="translate(192.482812 54.2) scale(0.1 -0.1)">
      <defs>
       <path id="DejaVuSans-302" d="M -1831 5119 
L -1369 5119 
L -603 3944 
L -1038 3944 
L -1600 4709 
L -2163 3944 
L -2597 3944 
L -1831 5119 
z
M -1600 3584 
L -1600 3584 
z
" transform="scale(0.015625)"/>
       <path id="DejaVuSans-Oblique-79" d="M 1588 -325 
Q 1188 -997 936 -1164 
Q 684 -1331 294 -1331 
L -159 -1331 
L -63 -850 
L 269 -850 
Q 509 -850 678 -719 
Q 847 -588 1056 -206 
L 1234 128 
L 459 3500 
L 1069 3500 
L 1650 819 
L 3256 3500 
L 3859 3500 
L 1588 -325 
z
" transform="scale(0.015625)"/>
      </defs>
      <use xlink:href="#DejaVuSans-302" transform="translate(62.373047 12.015625)"/>
      <use xlink:href="#DejaVuSans-Oblique-79" transform="translate(0 0.828125)"/>
     </g>
    </g>
    <g id="line2d_16">
     <path d="M 164.482812 65.398437 
L 174.482812 65.398437 
L 184.482812 65.398437 
" style="fill: none; stroke: #ff7f0e; stroke-width: 1.5; stroke-linecap: square"/>
    </g>
    <g id="text_14">
     <!-- $x(t)=STEP$ -->
     <g transform="translate(192.482812 68.898437) scale(0.1 -0.1)">
      <defs>
       <path id="DejaVuSans-Oblique-78" d="M 3841 3500 
L 2234 1784 
L 3219 0 
L 2559 0 
L 1819 1388 
L 531 0 
L -166 0 
L 1556 1844 
L 641 3500 
L 1300 3500 
L 1972 2234 
L 3144 3500 
L 3841 3500 
z
" transform="scale(0.015625)"/>
       <path id="DejaVuSans-28" d="M 1984 4856 
Q 1566 4138 1362 3434 
Q 1159 2731 1159 2009 
Q 1159 1288 1364 580 
Q 1569 -128 1984 -844 
L 1484 -844 
Q 1016 -109 783 600 
Q 550 1309 550 2009 
Q 550 2706 781 3412 
Q 1013 4119 1484 4856 
L 1984 4856 
z
" transform="scale(0.015625)"/>
       <path id="DejaVuSans-29" d="M 513 4856 
L 1013 4856 
Q 1481 4119 1714 3412 
Q 1947 2706 1947 2009 
Q 1947 1309 1714 600 
Q 1481 -109 1013 -844 
L 513 -844 
Q 928 -128 1133 580 
Q 1338 1288 1338 2009 
Q 1338 2731 1133 3434 
Q 928 4138 513 4856 
z
" transform="scale(0.015625)"/>
       <path id="DejaVuSans-3d" d="M 678 2906 
L 4684 2906 
L 4684 2381 
L 678 2381 
L 678 2906 
z
M 678 1631 
L 4684 1631 
L 4684 1100 
L 678 1100 
L 678 1631 
z
" transform="scale(0.015625)"/>
       <path id="DejaVuSans-Oblique-53" d="M 3859 4513 
L 3738 3897 
Q 3422 4066 3111 4152 
Q 2800 4238 2509 4238 
Q 1944 4238 1609 3991 
Q 1275 3744 1275 3334 
Q 1275 3109 1398 2989 
Q 1522 2869 2034 2731 
L 2413 2638 
Q 3053 2472 3303 2217 
Q 3553 1963 3553 1503 
Q 3553 797 2998 353 
Q 2444 -91 1538 -91 
Q 1166 -91 791 -17 
Q 416 56 38 206 
L 166 856 
Q 513 641 861 531 
Q 1209 422 1556 422 
Q 2147 422 2503 684 
Q 2859 947 2859 1369 
Q 2859 1650 2717 1795 
Q 2575 1941 2106 2059 
L 1728 2156 
Q 1081 2325 845 2545 
Q 609 2766 609 3163 
Q 609 3859 1145 4304 
Q 1681 4750 2541 4750 
Q 2875 4750 3203 4690 
Q 3531 4631 3859 4513 
z
" transform="scale(0.015625)"/>
       <path id="DejaVuSans-Oblique-54" d="M 378 4666 
L 4325 4666 
L 4225 4134 
L 2559 4134 
L 1759 0 
L 1125 0 
L 1925 4134 
L 275 4134 
L 378 4666 
z
" transform="scale(0.015625)"/>
       <path id="DejaVuSans-Oblique-45" d="M 1081 4666 
L 4031 4666 
L 3928 4134 
L 1606 4134 
L 1338 2753 
L 3566 2753 
L 3463 2222 
L 1234 2222 
L 909 531 
L 3284 531 
L 3181 0 
L 172 0 
L 1081 4666 
z
" transform="scale(0.015625)"/>
       <path id="DejaVuSans-Oblique-50" d="M 1081 4666 
L 2541 4666 
Q 3178 4666 3512 4369 
Q 3847 4072 3847 3500 
Q 3847 2731 3353 2303 
Q 2859 1875 1966 1875 
L 1172 1875 
L 806 0 
L 172 0 
L 1081 4666 
z
M 1613 4147 
L 1275 2394 
L 2069 2394 
Q 2606 2394 2893 2669 
Q 3181 2944 3181 3456 
Q 3181 3784 2986 3965 
Q 2791 4147 2438 4147 
L 1613 4147 
z
" transform="scale(0.015625)"/>
      </defs>
      <use xlink:href="#DejaVuSans-Oblique-78" transform="translate(0 0.125)"/>
      <use xlink:href="#DejaVuSans-28" transform="translate(59.179688 0.125)"/>
      <use xlink:href="#DejaVuSans-Oblique-74" transform="translate(98.193359 0.125)"/>
      <use xlink:href="#DejaVuSans-29" transform="translate(137.402344 0.125)"/>
      <use xlink:href="#DejaVuSans-3d" transform="translate(195.898438 0.125)"/>
      <use xlink:href="#DejaVuSans-Oblique-53" transform="translate(299.169922 0.125)"/>
      <use xlink:href="#DejaVuSans-Oblique-54" transform="translate(362.646484 0.125)"/>
      <use xlink:href="#DejaVuSans-Oblique-45" transform="translate(423.730469 0.125)"/>
      <use xlink:href="#DejaVuSans-Oblique-50" transform="translate(486.914062 0.125)"/>
     </g>
    </g>
    <g id="line2d_17">
     <path d="M 164.482812 80.076562 
L 174.482812 80.076562 
L 184.482812 80.076562 
" style="fill: none; stroke: #2ca02c; stroke-width: 1.5; stroke-linecap: square"/>
    </g>
    <g id="text_15">
     <!-- $y$ -->
     <g transform="translate(192.482812 83.576562) scale(0.1 -0.1)">
      <use xlink:href="#DejaVuSans-Oblique-79" transform="translate(0 0.3125)"/>
     </g>
    </g>
   </g>
  </g>
  <g id="text_16">
   <!-- Decoded $\hat{y}$ and inputs -->
   <g transform="translate(134.722813 18.24) scale(0.12 -0.12)">
    <defs>
     <path id="DejaVuSans-44" d="M 1259 4147 
L 1259 519 
L 2022 519 
Q 2988 519 3436 956 
Q 3884 1394 3884 2338 
Q 3884 3275 3436 3711 
Q 2988 4147 2022 4147 
L 1259 4147 
z
M 628 4666 
L 1925 4666 
Q 3281 4666 3915 4102 
Q 4550 3538 4550 2338 
Q 4550 1131 3912 565 
Q 3275 0 1925 0 
L 628 0 
L 628 4666 
z
" transform="scale(0.015625)"/>
     <path id="DejaVuSans-65" d="M 3597 1894 
L 3597 1613 
L 953 1613 
Q 991 1019 1311 708 
Q 1631 397 2203 397 
Q 2534 397 2845 478 
Q 3156 559 3463 722 
L 3463 178 
Q 3153 47 2828 -22 
Q 2503 -91 2169 -91 
Q 1331 -91 842 396 
Q 353 884 353 1716 
Q 353 2575 817 3079 
Q 1281 3584 2069 3584 
Q 2775 3584 3186 3129 
Q 3597 2675 3597 1894 
z
M 3022 2063 
Q 3016 2534 2758 2815 
Q 2500 3097 2075 3097 
Q 1594 3097 1305 2825 
Q 1016 2553 972 2059 
L 3022 2063 
z
" transform="scale(0.015625)"/>
     <path id="DejaVuSans-63" d="M 3122 3366 
L 3122 2828 
Q 2878 2963 2633 3030 
Q 2388 3097 2138 3097 
Q 1578 3097 1268 2742 
Q 959 2388 959 1747 
Q 959 1106 1268 751 
Q 1578 397 2138 397 
Q 2388 397 2633 464 
Q 2878 531 3122 666 
L 3122 134 
Q 2881 22 2623 -34 
Q 2366 -91 2075 -91 
Q 1284 -91 818 406 
Q 353 903 353 1747 
Q 353 2603 823 3093 
Q 1294 3584 2113 3584 
Q 2378 3584 2631 3529 
Q 2884 3475 3122 3366 
z
" transform="scale(0.015625)"/>
     <path id="DejaVuSans-6f" d="M 1959 3097 
Q 1497 3097 1228 2736 
Q 959 2375 959 1747 
Q 959 1119 1226 758 
Q 1494 397 1959 397 
Q 2419 397 2687 759 
Q 2956 1122 2956 1747 
Q 2956 2369 2687 2733 
Q 2419 3097 1959 3097 
z
M 1959 3584 
Q 2709 3584 3137 3096 
Q 3566 2609 3566 1747 
Q 3566 888 3137 398 
Q 2709 -91 1959 -91 
Q 1206 -91 779 398 
Q 353 888 353 1747 
Q 353 2609 779 3096 
Q 1206 3584 1959 3584 
z
" transform="scale(0.015625)"/>
     <path id="DejaVuSans-64" d="M 2906 2969 
L 2906 4863 
L 3481 4863 
L 3481 0 
L 2906 0 
L 2906 525 
Q 2725 213 2448 61 
Q 2172 -91 1784 -91 
Q 1150 -91 751 415 
Q 353 922 353 1747 
Q 353 2572 751 3078 
Q 1150 3584 1784 3584 
Q 2172 3584 2448 3432 
Q 2725 3281 2906 2969 
z
M 947 1747 
Q 947 1113 1208 752 
Q 1469 391 1925 391 
Q 2381 391 2643 752 
Q 2906 1113 2906 1747 
Q 2906 2381 2643 2742 
Q 2381 3103 1925 3103 
Q 1469 3103 1208 2742 
Q 947 2381 947 1747 
z
" transform="scale(0.015625)"/>
     <path id="DejaVuSans-20" transform="scale(0.015625)"/>
     <path id="DejaVuSans-61" d="M 2194 1759 
Q 1497 1759 1228 1600 
Q 959 1441 959 1056 
Q 959 750 1161 570 
Q 1363 391 1709 391 
Q 2188 391 2477 730 
Q 2766 1069 2766 1631 
L 2766 1759 
L 2194 1759 
z
M 3341 1997 
L 3341 0 
L 2766 0 
L 2766 531 
Q 2569 213 2275 61 
Q 1981 -91 1556 -91 
Q 1019 -91 701 211 
Q 384 513 384 1019 
Q 384 1609 779 1909 
Q 1175 2209 1959 2209 
L 2766 2209 
L 2766 2266 
Q 2766 2663 2505 2880 
Q 2244 3097 1772 3097 
Q 1472 3097 1187 3025 
Q 903 2953 641 2809 
L 641 3341 
Q 956 3463 1253 3523 
Q 1550 3584 1831 3584 
Q 2591 3584 2966 3190 
Q 3341 2797 3341 1997 
z
" transform="scale(0.015625)"/>
     <path id="DejaVuSans-6e" d="M 3513 2113 
L 3513 0 
L 2938 0 
L 2938 2094 
Q 2938 2591 2744 2837 
Q 2550 3084 2163 3084 
Q 1697 3084 1428 2787 
Q 1159 2491 1159 1978 
L 1159 0 
L 581 0 
L 581 3500 
L 1159 3500 
L 1159 2956 
Q 1366 3272 1645 3428 
Q 1925 3584 2291 3584 
Q 2894 3584 3203 3211 
Q 3513 2838 3513 2113 
z
" transform="scale(0.015625)"/>
     <path id="DejaVuSans-69" d="M 603 3500 
L 1178 3500 
L 1178 0 
L 603 0 
L 603 3500 
z
M 603 4863 
L 1178 4863 
L 1178 4134 
L 603 4134 
L 603 4863 
z
" transform="scale(0.015625)"/>
     <path id="DejaVuSans-70" d="M 1159 525 
L 1159 -1331 
L 581 -1331 
L 581 3500 
L 1159 3500 
L 1159 2969 
Q 1341 3281 1617 3432 
Q 1894 3584 2278 3584 
Q 2916 3584 3314 3078 
Q 3713 2572 3713 1747 
Q 3713 922 3314 415 
Q 2916 -91 2278 -91 
Q 1894 -91 1617 61 
Q 1341 213 1159 525 
z
M 3116 1747 
Q 3116 2381 2855 2742 
Q 2594 3103 2138 3103 
Q 1681 3103 1420 2742 
Q 1159 2381 1159 1747 
Q 1159 1113 1420 752 
Q 1681 391 2138 391 
Q 2594 391 2855 752 
Q 3116 1113 3116 1747 
z
" transform="scale(0.015625)"/>
     <path id="DejaVuSans-75" d="M 544 1381 
L 544 3500 
L 1119 3500 
L 1119 1403 
Q 1119 906 1312 657 
Q 1506 409 1894 409 
Q 2359 409 2629 706 
Q 2900 1003 2900 1516 
L 2900 3500 
L 3475 3500 
L 3475 0 
L 2900 0 
L 2900 538 
Q 2691 219 2414 64 
Q 2138 -91 1772 -91 
Q 1169 -91 856 284 
Q 544 659 544 1381 
z
M 1991 3584 
L 1991 3584 
z
" transform="scale(0.015625)"/>
     <path id="DejaVuSans-74" d="M 1172 4494 
L 1172 3500 
L 2356 3500 
L 2356 3053 
L 1172 3053 
L 1172 1153 
Q 1172 725 1289 603 
Q 1406 481 1766 481 
L 2356 481 
L 2356 0 
L 1766 0 
Q 1100 0 847 248 
Q 594 497 594 1153 
L 594 3053 
L 172 3053 
L 172 3500 
L 594 3500 
L 594 4494 
L 1172 4494 
z
" transform="scale(0.015625)"/>
     <path id="DejaVuSans-73" d="M 2834 3397 
L 2834 2853 
Q 2591 2978 2328 3040 
Q 2066 3103 1784 3103 
Q 1356 3103 1142 2972 
Q 928 2841 928 2578 
Q 928 2378 1081 2264 
Q 1234 2150 1697 2047 
L 1894 2003 
Q 2506 1872 2764 1633 
Q 3022 1394 3022 966 
Q 3022 478 2636 193 
Q 2250 -91 1575 -91 
Q 1294 -91 989 -36 
Q 684 19 347 128 
L 347 722 
Q 666 556 975 473 
Q 1284 391 1588 391 
Q 1994 391 2212 530 
Q 2431 669 2431 922 
Q 2431 1156 2273 1281 
Q 2116 1406 1581 1522 
L 1381 1569 
Q 847 1681 609 1914 
Q 372 2147 372 2553 
Q 372 3047 722 3315 
Q 1072 3584 1716 3584 
Q 2034 3584 2315 3537 
Q 2597 3491 2834 3397 
z
" transform="scale(0.015625)"/>
    </defs>
    <use xlink:href="#DejaVuSans-44" transform="translate(0 0.828125)"/>
    <use xlink:href="#DejaVuSans-65" transform="translate(77.001953 0.828125)"/>
    <use xlink:href="#DejaVuSans-63" transform="translate(138.525391 0.828125)"/>
    <use xlink:href="#DejaVuSans-6f" transform="translate(193.505859 0.828125)"/>
    <use xlink:href="#DejaVuSans-64" transform="translate(254.6875 0.828125)"/>
    <use xlink:href="#DejaVuSans-65" transform="translate(318.164062 0.828125)"/>
    <use xlink:href="#DejaVuSans-64" transform="translate(379.6875 0.828125)"/>
    <use xlink:href="#DejaVuSans-20" transform="translate(443.164062 0.828125)"/>
    <use xlink:href="#DejaVuSans-302" transform="translate(537.324219 12.015625)"/>
    <use xlink:href="#DejaVuSans-Oblique-79" transform="translate(474.951172 0.828125)"/>
    <use xlink:href="#DejaVuSans-20" transform="translate(534.130859 0.828125)"/>
    <use xlink:href="#DejaVuSans-61" transform="translate(565.917969 0.828125)"/>
    <use xlink:href="#DejaVuSans-6e" transform="translate(627.197266 0.828125)"/>
    <use xlink:href="#DejaVuSans-64" transform="translate(690.576172 0.828125)"/>
    <use xlink:href="#DejaVuSans-20" transform="translate(754.052734 0.828125)"/>
    <use xlink:href="#DejaVuSans-69" transform="translate(785.839844 0.828125)"/>
    <use xlink:href="#DejaVuSans-6e" transform="translate(813.623047 0.828125)"/>
    <use xlink:href="#DejaVuSans-70" transform="translate(877.001953 0.828125)"/>
    <use xlink:href="#DejaVuSans-75" transform="translate(940.478516 0.828125)"/>
    <use xlink:href="#DejaVuSans-74" transform="translate(1003.857422 0.828125)"/>
    <use xlink:href="#DejaVuSans-73" transform="translate(1043.066406 0.828125)"/>
   </g>
  </g>
 </g>
 <defs>
  <clipPath id="p1501921018">
   <rect x="38.482813" y="36" width="334.8" height="217.44"/>
  </clipPath>
 </defs>
</svg>
