<?xml version="1.0" encoding="utf-8" standalone="no"?>
<!DOCTYPE svg PUBLIC "-//W3C//DTD SVG 1.1//EN"
  "http://www.w3.org/Graphics/SVG/1.1/DTD/svg11.dtd">
<svg xmlns:xlink="http://www.w3.org/1999/xlink" width="388.434375pt" height="277.318125pt" viewBox="0 0 388.434375 277.318125" xmlns="http://www.w3.org/2000/svg" version="1.1">
 <metadata>
  <rdf:RDF xmlns:dc="http://purl.org/dc/elements/1.1/" xmlns:cc="http://creativecommons.org/ns#" xmlns:rdf="http://www.w3.org/1999/02/22-rdf-syntax-ns#">
   <cc:Work>
    <dc:type rdf:resource="http://purl.org/dc/dcmitype/StillImage"/>
    <dc:date>2022-10-31T21:25:52.723749</dc:date>
    <dc:format>image/svg+xml</dc:format>
    <dc:creator>
     <cc:Agent>
      <dc:title>Matplotlib v3.6.0, https://matplotlib.org/</dc:title>
     </cc:Agent>
    </dc:creator>
   </cc:Work>
  </rdf:RDF>
 </metadata>
 <defs>
  <style type="text/css">*{stroke-linejoin: round; stroke-linecap: butt}</style>
 </defs>
 <g id="figure_1">
  <g id="patch_1">
   <path d="M -0 277.318125 
L 388.434375 277.318125 
L 388.434375 0 
L -0 0 
L -0 277.318125 
z
" style="fill: none"/>
  </g>
  <g id="axes_1">
   <g id="patch_2">
    <path d="M 38.482813 253.44 
L 373.282813 253.44 
L 373.282813 36 
L 38.482813 36 
z
" style="fill: #ffffff"/>
   </g>
   <g id="matplotlib.axis_1">
    <g id="xtick_1">
     <g id="line2d_1">
      <defs>
       <path id="mb93201a465" d="M 0 0 
L 0 3.5 
" style="stroke: #000000; stroke-width: 0.8"/>
      </defs>
      <g>
       <use xlink:href="#mb93201a465" x="38.482813" y="253.44" style="stroke: #000000; stroke-width: 0.8"/>
      </g>
     </g>
     <g id="text_1">
      <!-- 0.0 -->
      <g transform="translate(30.53125 268.038437) scale(0.1 -0.1)">
       <defs>
        <path id="DejaVuSans-30" d="M 2034 4250 
Q 1547 4250 1301 3770 
Q 1056 3291 1056 2328 
Q 1056 1369 1301 889 
Q 1547 409 2034 409 
Q 2525 409 2770 889 
Q 3016 1369 3016 2328 
Q 3016 3291 2770 3770 
Q 2525 4250 2034 4250 
z
M 2034 4750 
Q 2819 4750 3233 4129 
Q 3647 3509 3647 2328 
Q 3647 1150 3233 529 
Q 2819 -91 2034 -91 
Q 1250 -91 836 529 
Q 422 1150 422 2328 
Q 422 3509 836 4129 
Q 1250 4750 2034 4750 
z
" transform="scale(0.015625)"/>
        <path id="DejaVuSans-2e" d="M 684 794 
L 1344 794 
L 1344 0 
L 684 0 
L 684 794 
z
" transform="scale(0.015625)"/>
       </defs>
       <use xlink:href="#DejaVuSans-30"/>
       <use xlink:href="#DejaVuSans-2e" x="63.623047"/>
       <use xlink:href="#DejaVuSans-30" x="95.410156"/>
      </g>
     </g>
    </g>
    <g id="xtick_2">
     <g id="line2d_2">
      <g>
       <use xlink:href="#mb93201a465" x="105.442813" y="253.44" style="stroke: #000000; stroke-width: 0.8"/>
      </g>
     </g>
     <g id="text_2">
      <!-- 0.2 -->
      <g transform="translate(97.49125 268.038437) scale(0.1 -0.1)">
       <defs>
        <path id="DejaVuSans-32" d="M 1228 531 
L 3431 531 
L 3431 0 
L 469 0 
L 469 531 
Q 828 903 1448 1529 
Q 2069 2156 2228 2338 
Q 2531 2678 2651 2914 
Q 2772 3150 2772 3378 
Q 2772 3750 2511 3984 
Q 2250 4219 1831 4219 
Q 1534 4219 1204 4116 
Q 875 4013 500 3803 
L 500 4441 
Q 881 4594 1212 4672 
Q 1544 4750 1819 4750 
Q 2544 4750 2975 4387 
Q 3406 4025 3406 3419 
Q 3406 3131 3298 2873 
Q 3191 2616 2906 2266 
Q 2828 2175 2409 1742 
Q 1991 1309 1228 531 
z
" transform="scale(0.015625)"/>
       </defs>
       <use xlink:href="#DejaVuSans-30"/>
       <use xlink:href="#DejaVuSans-2e" x="63.623047"/>
       <use xlink:href="#DejaVuSans-32" x="95.410156"/>
      </g>
     </g>
    </g>
    <g id="xtick_3">
     <g id="line2d_3">
      <g>
       <use xlink:href="#mb93201a465" x="172.402813" y="253.44" style="stroke: #000000; stroke-width: 0.8"/>
      </g>
     </g>
     <g id="text_3">
      <!-- 0.4 -->
      <g transform="translate(164.45125 268.038437) scale(0.1 -0.1)">
       <defs>
        <path id="DejaVuSans-34" d="M 2419 4116 
L 825 1625 
L 2419 1625 
L 2419 4116 
z
M 2253 4666 
L 3047 4666 
L 3047 1625 
L 3713 1625 
L 3713 1100 
L 3047 1100 
L 3047 0 
L 2419 0 
L 2419 1100 
L 313 1100 
L 313 1709 
L 2253 4666 
z
" transform="scale(0.015625)"/>
       </defs>
       <use xlink:href="#DejaVuSans-30"/>
       <use xlink:href="#DejaVuSans-2e" x="63.623047"/>
       <use xlink:href="#DejaVuSans-34" x="95.410156"/>
      </g>
     </g>
    </g>
    <g id="xtick_4">
     <g id="line2d_4">
      <g>
       <use xlink:href="#mb93201a465" x="239.362813" y="253.44" style="stroke: #000000; stroke-width: 0.8"/>
      </g>
     </g>
     <g id="text_4">
      <!-- 0.6 -->
      <g transform="translate(231.41125 268.038437) scale(0.1 -0.1)">
       <defs>
        <path id="DejaVuSans-36" d="M 2113 2584 
Q 1688 2584 1439 2293 
Q 1191 2003 1191 1497 
Q 1191 994 1439 701 
Q 1688 409 2113 409 
Q 2538 409 2786 701 
Q 3034 994 3034 1497 
Q 3034 2003 2786 2293 
Q 2538 2584 2113 2584 
z
M 3366 4563 
L 3366 3988 
Q 3128 4100 2886 4159 
Q 2644 4219 2406 4219 
Q 1781 4219 1451 3797 
Q 1122 3375 1075 2522 
Q 1259 2794 1537 2939 
Q 1816 3084 2150 3084 
Q 2853 3084 3261 2657 
Q 3669 2231 3669 1497 
Q 3669 778 3244 343 
Q 2819 -91 2113 -91 
Q 1303 -91 875 529 
Q 447 1150 447 2328 
Q 447 3434 972 4092 
Q 1497 4750 2381 4750 
Q 2619 4750 2861 4703 
Q 3103 4656 3366 4563 
z
" transform="scale(0.015625)"/>
       </defs>
       <use xlink:href="#DejaVuSans-30"/>
       <use xlink:href="#DejaVuSans-2e" x="63.623047"/>
       <use xlink:href="#DejaVuSans-36" x="95.410156"/>
      </g>
     </g>
    </g>
    <g id="xtick_5">
     <g id="line2d_5">
      <g>
       <use xlink:href="#mb93201a465" x="306.322813" y="253.44" style="stroke: #000000; stroke-width: 0.8"/>
      </g>
     </g>
     <g id="text_5">
      <!-- 0.8 -->
      <g transform="translate(298.37125 268.038437) scale(0.1 -0.1)">
       <defs>
        <path id="DejaVuSans-38" d="M 2034 2216 
Q 1584 2216 1326 1975 
Q 1069 1734 1069 1313 
Q 1069 891 1326 650 
Q 1584 409 2034 409 
Q 2484 409 2743 651 
Q 3003 894 3003 1313 
Q 3003 1734 2745 1975 
Q 2488 2216 2034 2216 
z
M 1403 2484 
Q 997 2584 770 2862 
Q 544 3141 544 3541 
Q 544 4100 942 4425 
Q 1341 4750 2034 4750 
Q 2731 4750 3128 4425 
Q 3525 4100 3525 3541 
Q 3525 3141 3298 2862 
Q 3072 2584 2669 2484 
Q 3125 2378 3379 2068 
Q 3634 1759 3634 1313 
Q 3634 634 3220 271 
Q 2806 -91 2034 -91 
Q 1263 -91 848 271 
Q 434 634 434 1313 
Q 434 1759 690 2068 
Q 947 2378 1403 2484 
z
M 1172 3481 
Q 1172 3119 1398 2916 
Q 1625 2713 2034 2713 
Q 2441 2713 2670 2916 
Q 2900 3119 2900 3481 
Q 2900 3844 2670 4047 
Q 2441 4250 2034 4250 
Q 1625 4250 1398 4047 
Q 1172 3844 1172 3481 
z
" transform="scale(0.015625)"/>
       </defs>
       <use xlink:href="#DejaVuSans-30"/>
       <use xlink:href="#DejaVuSans-2e" x="63.623047"/>
       <use xlink:href="#DejaVuSans-38" x="95.410156"/>
      </g>
     </g>
    </g>
    <g id="xtick_6">
     <g id="line2d_6">
      <g>
       <use xlink:href="#mb93201a465" x="373.282813" y="253.44" style="stroke: #000000; stroke-width: 0.8"/>
      </g>
     </g>
     <g id="text_6">
      <!-- 1.0 -->
      <g transform="translate(365.33125 268.038437) scale(0.1 -0.1)">
       <defs>
        <path id="DejaVuSans-31" d="M 794 531 
L 1825 531 
L 1825 4091 
L 703 3866 
L 703 4441 
L 1819 4666 
L 2450 4666 
L 2450 531 
L 3481 531 
L 3481 0 
L 794 0 
L 794 531 
z
" transform="scale(0.015625)"/>
       </defs>
       <use xlink:href="#DejaVuSans-31"/>
       <use xlink:href="#DejaVuSans-2e" x="63.623047"/>
       <use xlink:href="#DejaVuSans-30" x="95.410156"/>
      </g>
     </g>
    </g>
   </g>
   <g id="matplotlib.axis_2">
    <g id="ytick_1">
     <g id="line2d_7">
      <defs>
       <path id="m6722c45912" d="M 0 0 
L -3.5 0 
" style="stroke: #000000; stroke-width: 0.8"/>
      </defs>
      <g>
       <use xlink:href="#m6722c45912" x="38.482813" y="238.801325" style="stroke: #000000; stroke-width: 0.8"/>
      </g>
     </g>
     <g id="text_7">
      <!-- −1.0 -->
      <g transform="translate(7.2 242.600544) scale(0.1 -0.1)">
       <defs>
        <path id="DejaVuSans-2212" d="M 678 2272 
L 4684 2272 
L 4684 1741 
L 678 1741 
L 678 2272 
z
" transform="scale(0.015625)"/>
       </defs>
       <use xlink:href="#DejaVuSans-2212"/>
       <use xlink:href="#DejaVuSans-31" x="83.789062"/>
       <use xlink:href="#DejaVuSans-2e" x="147.412109"/>
       <use xlink:href="#DejaVuSans-30" x="179.199219"/>
      </g>
     </g>
    </g>
    <g id="ytick_2">
     <g id="line2d_8">
      <g>
       <use xlink:href="#m6722c45912" x="38.482813" y="195.696733" style="stroke: #000000; stroke-width: 0.8"/>
      </g>
     </g>
     <g id="text_8">
      <!-- −0.5 -->
      <g transform="translate(7.2 199.495952) scale(0.1 -0.1)">
       <defs>
        <path id="DejaVuSans-35" d="M 691 4666 
L 3169 4666 
L 3169 4134 
L 1269 4134 
L 1269 2991 
Q 1406 3038 1543 3061 
Q 1681 3084 1819 3084 
Q 2600 3084 3056 2656 
Q 3513 2228 3513 1497 
Q 3513 744 3044 326 
Q 2575 -91 1722 -91 
Q 1428 -91 1123 -41 
Q 819 9 494 109 
L 494 744 
Q 775 591 1075 516 
Q 1375 441 1709 441 
Q 2250 441 2565 725 
Q 2881 1009 2881 1497 
Q 2881 1984 2565 2268 
Q 2250 2553 1709 2553 
Q 1456 2553 1204 2497 
Q 953 2441 691 2322 
L 691 4666 
z
" transform="scale(0.015625)"/>
       </defs>
       <use xlink:href="#DejaVuSans-2212"/>
       <use xlink:href="#DejaVuSans-30" x="83.789062"/>
       <use xlink:href="#DejaVuSans-2e" x="147.412109"/>
       <use xlink:href="#DejaVuSans-35" x="179.199219"/>
      </g>
     </g>
    </g>
    <g id="ytick_3">
     <g id="line2d_9">
      <g>
       <use xlink:href="#m6722c45912" x="38.482813" y="152.59214" style="stroke: #000000; stroke-width: 0.8"/>
      </g>
     </g>
     <g id="text_9">
      <!-- 0.0 -->
      <g transform="translate(15.579688 156.391359) scale(0.1 -0.1)">
       <use xlink:href="#DejaVuSans-30"/>
       <use xlink:href="#DejaVuSans-2e" x="63.623047"/>
       <use xlink:href="#DejaVuSans-30" x="95.410156"/>
      </g>
     </g>
    </g>
    <g id="ytick_4">
     <g id="line2d_10">
      <g>
       <use xlink:href="#m6722c45912" x="38.482813" y="109.487548" style="stroke: #000000; stroke-width: 0.8"/>
      </g>
     </g>
     <g id="text_10">
      <!-- 0.5 -->
      <g transform="translate(15.579688 113.286767) scale(0.1 -0.1)">
       <use xlink:href="#DejaVuSans-30"/>
       <use xlink:href="#DejaVuSans-2e" x="63.623047"/>
       <use xlink:href="#DejaVuSans-35" x="95.410156"/>
      </g>
     </g>
    </g>
    <g id="ytick_5">
     <g id="line2d_11">
      <g>
       <use xlink:href="#m6722c45912" x="38.482813" y="66.382955" style="stroke: #000000; stroke-width: 0.8"/>
      </g>
     </g>
     <g id="text_11">
      <!-- 1.0 -->
      <g transform="translate(15.579688 70.182174) scale(0.1 -0.1)">
       <use xlink:href="#DejaVuSans-31"/>
       <use xlink:href="#DejaVuSans-2e" x="63.623047"/>
       <use xlink:href="#DejaVuSans-30" x="95.410156"/>
      </g>
     </g>
    </g>
   </g>
   <g id="line2d_12">
    <path d="M 38.482813 152.59214 
L 41.161213 152.59214 
L 41.496012 155.753118 
L 41.830813 155.760555 
L 42.165613 151.607394 
L 42.500413 132.404872 
L 43.170012 115.490963 
L 43.504812 113.62082 
L 43.839613 106.955317 
L 44.174413 97.781348 
L 44.509213 101.280401 
L 44.844013 92.703238 
L 45.178812 77.782669 
L 45.513613 70.850893 
L 45.848413 81.605921 
L 46.183213 84.623043 
L 46.518012 84.759445 
L 46.852812 83.983607 
L 47.522413 91.883615 
L 47.857213 69.712287 
L 48.192013 68.406762 
L 48.526813 73.657403 
L 48.861612 76.328324 
L 49.196413 61.656394 
L 49.531213 65.042657 
L 49.866013 62.82271 
L 50.200813 70.890087 
L 50.535612 67.423126 
L 50.870413 73.457101 
L 51.205213 66.829144 
L 51.540013 73.805365 
L 51.874813 61.92522 
L 52.209613 70.156918 
L 52.879213 66.031985 
L 53.214013 59.869094 
L 53.548813 62.999883 
L 53.883612 71.059464 
L 54.218412 75.153449 
L 54.553213 75.814503 
L 54.888013 65.292984 
L 55.222813 64.889292 
L 55.557613 61.567611 
L 55.892413 53.553778 
L 56.227213 55.602185 
L 56.896813 77.592152 
L 57.231613 68.993775 
L 57.566412 68.113551 
L 58.236013 45.883636 
L 58.570813 46.521317 
L 58.905613 49.478308 
L 59.575213 58.60835 
L 59.910013 55.358107 
L 60.244813 63.388055 
L 60.579613 62.908707 
L 60.914413 58.143591 
L 61.249212 59.05577 
L 61.584013 54.066586 
L 61.918813 54.395882 
L 62.253613 67.954823 
L 62.588413 64.8714 
L 62.923213 65.858275 
L 63.258012 64.29117 
L 63.592813 61.693207 
L 63.927613 61.970433 
L 64.262413 61.655219 
L 64.597212 65.031352 
L 65.266813 78.348138 
L 65.601613 63.191619 
L 65.936413 74.172936 
L 66.606013 63.819582 
L 66.940813 54.528821 
L 67.275613 68.178559 
L 67.610413 72.579331 
L 67.945212 73.676167 
L 68.280012 72.763394 
L 68.614812 85.819903 
L 68.949613 76.379063 
L 69.284413 70.420216 
L 69.619213 73.475734 
L 69.954013 67.858881 
L 70.288813 65.162477 
L 70.623613 59.557631 
L 70.958413 69.74811 
L 71.293213 68.079203 
L 71.628013 65.011236 
L 71.962813 58.708717 
L 72.297613 61.562923 
L 72.632413 65.911485 
L 72.967213 60.36521 
L 73.302013 62.120729 
L 73.636812 61.756391 
L 73.971612 64.364796 
L 74.306412 58.859677 
L 74.641212 68.719406 
L 74.976012 68.107968 
L 75.645612 82.037106 
L 75.980412 78.86243 
L 76.315213 66.722922 
L 76.650013 74.543015 
L 76.984813 61.536505 
L 77.319613 70.123627 
L 77.654413 73.614917 
L 77.989213 67.487529 
L 78.324013 79.472879 
L 78.658813 83.507331 
L 78.993613 74.587339 
L 79.328412 75.988863 
L 79.663213 83.540547 
L 79.998013 81.721158 
L 80.332813 85.482343 
L 80.667613 83.065443 
L 81.002413 87.843714 
L 81.337213 89.426789 
L 81.672012 87.356027 
L 82.006812 94.0636 
L 82.676412 87.91938 
L 83.011212 80.18217 
L 83.346013 85.115727 
L 83.680813 72.744558 
L 84.015613 71.597956 
L 84.350413 77.186289 
L 84.685213 85.027707 
L 85.020013 79.518728 
L 85.689613 99.980447 
L 86.024413 97.39315 
L 86.359213 90.779289 
L 86.694013 96.012701 
L 87.028813 89.005951 
L 87.363613 90.285598 
L 87.698413 95.783647 
L 88.033212 92.544719 
L 88.368012 97.463856 
L 88.702812 86.324528 
L 89.037612 98.26354 
L 89.372412 98.078137 
L 89.707212 95.351271 
L 90.042012 94.784107 
L 90.376812 91.393789 
L 90.711613 91.86976 
L 91.046413 96.881997 
L 91.381213 97.853266 
L 92.050813 105.290249 
L 92.720413 103.934296 
L 93.055213 103.889207 
L 93.390013 113.72519 
L 93.724813 111.121065 
L 94.059613 110.102324 
L 94.394413 105.386259 
L 94.729213 104.515049 
L 95.064013 105.836016 
L 95.733613 121.469159 
L 96.068413 123.145829 
L 96.403213 121.085496 
L 97.072813 100.65319 
L 97.407612 103.165268 
L 97.742413 108.806521 
L 98.077213 121.19439 
L 98.412013 115.966061 
L 98.746813 113.034073 
L 99.081613 115.64489 
L 99.416413 109.970715 
L 100.086013 121.985658 
L 100.420813 127.605192 
L 100.755613 124.091849 
L 101.090413 122.576634 
L 101.425213 126.530525 
L 101.760013 114.583241 
L 102.094813 113.508028 
L 102.429613 115.646733 
L 102.764412 121.302898 
L 103.099212 121.991855 
L 103.434012 127.354391 
L 103.768812 129.084596 
L 104.103612 125.975864 
L 104.438412 119.387111 
L 104.773212 120.155636 
L 105.108013 116.248648 
L 105.442813 116.354885 
L 105.777613 117.700102 
L 106.112413 116.956817 
L 106.447213 124.72483 
L 106.782013 124.451563 
L 107.451613 128.125402 
L 107.786413 122.784611 
L 108.121213 124.519095 
L 108.456013 122.293137 
L 108.790812 129.644537 
L 109.460412 136.780608 
L 109.795212 125.126347 
L 110.130012 127.060011 
L 110.464812 132.114642 
L 110.799612 139.805477 
L 111.134412 138.715521 
L 111.469212 136.561311 
L 111.804012 127.646391 
L 112.138813 131.777584 
L 112.473613 129.830585 
L 112.808413 135.006124 
L 113.478013 138.675453 
L 113.812813 139.624132 
L 114.147613 135.852665 
L 114.482413 141.944005 
L 114.817213 137.256035 
L 115.152013 136.43967 
L 115.486813 143.812219 
L 116.156413 146.510992 
L 116.491213 133.053641 
L 116.826013 126.015363 
L 117.160813 130.063319 
L 117.495613 135.481584 
L 117.830413 135.543518 
L 118.165213 137.721235 
L 118.500012 138.365541 
L 118.834812 140.278675 
L 119.169612 140.180813 
L 119.504413 140.503036 
L 119.839213 138.109142 
L 120.174013 142.11032 
L 120.508813 135.621216 
L 120.843613 134.934692 
L 121.178413 126.499289 
L 121.513213 136.984917 
L 121.848013 139.466657 
L 122.182813 137.312079 
L 122.517613 136.586643 
L 122.852413 140.619364 
L 123.187213 134.230104 
L 123.522013 141.835782 
L 123.856813 142.78774 
L 124.191613 139.220439 
L 124.526413 142.306318 
L 124.861212 147.457636 
L 125.196012 145.414103 
L 125.530812 145.357039 
L 125.865612 142.197615 
L 126.200412 146.290878 
L 126.870013 146.78381 
L 127.204813 143.212925 
L 127.539613 133.700827 
L 127.874413 134.745669 
L 128.209213 141.084559 
L 128.544013 141.971302 
L 128.878813 144.520354 
L 129.213613 141.117266 
L 129.548413 146.381602 
L 129.883213 155.008646 
L 130.218013 153.644949 
L 130.552813 153.684079 
L 130.887613 154.904524 
L 131.222413 152.968277 
L 131.557213 145.831783 
L 131.892013 143.911072 
L 132.226813 142.675997 
L 132.561613 147.755994 
L 132.896413 146.937556 
L 133.231213 142.084177 
L 133.566013 142.756944 
L 133.900813 150.142227 
L 134.235613 147.056067 
L 134.570413 148.232897 
L 134.905213 145.754532 
L 135.240013 146.060372 
L 135.574813 148.817026 
L 135.909613 147.550676 
L 136.244413 148.135887 
L 136.579213 146.65359 
L 136.914013 141.517047 
L 137.248812 144.129523 
L 137.583612 142.648395 
L 137.918412 146.788829 
L 138.253212 149.108928 
L 138.588012 157.225701 
L 138.922812 155.77108 
L 139.592412 150.589666 
L 139.927212 149.39283 
L 140.262012 150.060706 
L 140.596812 148.147415 
L 140.931612 148.085807 
L 141.266413 151.778126 
L 141.601213 150.797231 
L 141.936013 156.609295 
L 142.270813 150.290503 
L 142.605613 149.507126 
L 142.940413 148.081729 
L 143.275213 152.4003 
L 143.610013 152.179997 
L 143.944813 160.492728 
L 144.279613 154.967118 
L 144.614413 145.557839 
L 145.284013 149.657353 
L 145.618813 145.729229 
L 145.953613 146.97664 
L 146.288413 150.541265 
L 146.623213 150.16718 
L 146.958012 147.268344 
L 147.627612 154.9647 
L 147.962412 153.628921 
L 148.297213 144.152835 
L 148.632013 142.99778 
L 148.966813 143.209555 
L 149.636413 152.355157 
L 149.971213 155.663549 
L 150.306013 155.496784 
L 150.640813 155.631038 
L 150.975613 156.663564 
L 151.310413 160.228114 
L 151.645213 157.378319 
L 151.980013 155.901112 
L 152.314813 155.858349 
L 152.649613 156.683788 
L 152.984413 151.31167 
L 153.319213 147.961778 
L 153.654013 149.398322 
L 153.988813 148.13237 
L 154.323613 152.52899 
L 154.658413 154.339827 
L 155.328013 149.89807 
L 155.662813 149.606977 
L 155.997613 159.226659 
L 156.332413 162.925494 
L 156.667213 164.693961 
L 157.002013 162.959722 
L 157.336813 160.607566 
L 158.341213 145.658174 
L 158.676013 145.519426 
L 159.010813 147.528823 
L 159.345612 146.173941 
L 159.680412 146.542458 
L 160.350012 155.259803 
L 160.684812 156.495656 
L 161.019612 150.549656 
L 161.354412 148.233514 
L 162.024012 156.145296 
L 162.358812 158.454982 
L 162.693613 150.302032 
L 163.028413 153.31854 
L 163.363213 154.52125 
L 163.698013 153.426914 
L 164.032813 157.014665 
L 164.367613 159.026121 
L 164.702413 157.625681 
L 165.037213 157.638313 
L 165.372013 158.862293 
L 165.706813 152.71693 
L 166.041613 153.453632 
L 166.376413 150.594831 
L 166.711212 149.483547 
L 167.046012 149.280571 
L 167.380812 148.906627 
L 167.715612 143.293937 
L 168.050412 145.608157 
L 169.054812 160.482425 
L 169.389612 160.486478 
L 169.724412 162.37969 
L 170.394013 152.758885 
L 170.728813 152.018654 
L 171.063613 149.159912 
L 171.398413 151.234334 
L 171.733213 150.215208 
L 172.402813 150.620442 
L 172.737613 149.742359 
L 173.072413 149.845093 
L 173.407213 149.161672 
L 173.742013 162.52325 
L 174.076813 158.074024 
L 174.411613 155.264115 
L 174.746413 157.547629 
L 175.081213 157.508859 
L 175.416013 158.622172 
L 175.750813 158.06082 
L 176.085612 156.006459 
L 176.420412 160.708052 
L 176.755212 155.505641 
L 177.090013 152.367391 
L 177.424813 155.176398 
L 178.094413 151.343075 
L 178.764013 156.70513 
L 179.098812 155.975409 
L 179.433612 154.662408 
L 179.768412 154.76862 
L 180.103212 154.254509 
L 180.438012 163.274872 
L 180.772812 162.383253 
L 181.107612 163.102846 
L 181.442412 159.73295 
L 181.777212 152.29909 
L 182.112012 150.582825 
L 182.446812 147.309983 
L 182.781612 155.731397 
L 183.116412 155.62996 
L 183.451212 156.63383 
L 183.786012 155.868883 
L 184.120812 156.23731 
L 184.455613 163.369321 
L 184.790413 162.505575 
L 185.125213 157.928112 
L 185.460013 150.985313 
L 185.794813 149.501535 
L 186.129613 154.432591 
L 186.464413 154.225191 
L 186.799213 154.353998 
L 187.134013 147.647138 
L 187.468813 149.498117 
L 187.803613 152.739465 
L 188.138413 150.816083 
L 188.473213 160.676277 
L 188.808012 152.933081 
L 189.142812 159.021199 
L 189.477612 152.299969 
L 189.812412 152.018172 
L 190.147212 156.598609 
L 190.482012 153.365862 
L 190.816812 155.543062 
L 191.151612 153.881142 
L 191.486413 154.022042 
L 191.821213 151.479945 
L 192.490813 162.919338 
L 192.825613 160.826707 
L 193.160413 161.739827 
L 193.495213 157.516435 
L 193.830013 151.702408 
L 194.164813 147.850705 
L 194.499613 149.648705 
L 194.834413 149.148049 
L 195.169213 151.77601 
L 195.504013 151.600064 
L 195.838813 154.979434 
L 196.508413 151.739037 
L 196.843213 150.903849 
L 197.178013 147.979514 
L 197.512813 146.088151 
L 197.847613 148.630898 
L 198.182412 148.062101 
L 198.517212 152.588388 
L 198.852013 152.677007 
L 199.186813 153.125484 
L 199.521613 153.211967 
L 199.856413 156.515097 
L 200.191213 155.548517 
L 200.526013 155.012617 
L 200.860813 145.366403 
L 201.195612 149.138529 
L 201.530412 140.384976 
L 201.865212 141.443459 
L 202.200012 147.886966 
L 202.534812 145.99834 
L 202.869612 140.579569 
L 203.204412 141.666492 
L 203.539212 149.06254 
L 203.874012 150.896496 
L 204.208812 150.305907 
L 204.543612 155.274103 
L 204.878412 155.650111 
L 205.213212 151.397244 
L 205.548012 154.617364 
L 205.882812 154.363989 
L 206.217613 150.955983 
L 206.552413 149.355259 
L 206.887213 146.664404 
L 207.222013 145.358343 
L 207.556813 142.899673 
L 207.891613 133.335058 
L 208.226413 135.562828 
L 208.561213 135.058724 
L 208.896013 144.486811 
L 209.230813 138.785874 
L 209.565613 142.492598 
L 209.900413 143.426874 
L 210.235213 143.438798 
L 210.570013 142.813411 
L 210.904812 144.961942 
L 211.239612 146.354543 
L 211.574412 143.355341 
L 211.909212 144.79811 
L 212.244012 141.942208 
L 212.578812 140.080557 
L 212.913612 141.741015 
L 213.248413 142.790996 
L 213.583213 138.524639 
L 213.918013 138.897665 
L 214.252813 130.721262 
L 214.587613 134.52089 
L 214.922413 142.254766 
L 215.257213 141.673744 
L 215.592013 137.573547 
L 215.926813 139.33559 
L 216.596413 124.379325 
L 217.266013 120.115251 
L 217.600813 122.039808 
L 217.935613 125.953086 
L 218.270413 127.920037 
L 218.605213 118.598562 
L 218.940013 117.552525 
L 219.274813 114.128705 
L 219.609613 117.694269 
L 219.944413 122.61724 
L 220.279212 117.042151 
L 220.614013 122.62611 
L 220.948813 119.022394 
L 221.283613 122.355412 
L 221.618413 128.51853 
L 221.953213 128.363718 
L 222.288013 126.252589 
L 222.622813 123.328668 
L 222.957613 128.260828 
L 223.292413 127.308027 
L 223.627213 119.048865 
L 223.962013 117.616861 
L 224.296813 115.219255 
L 224.631613 115.280358 
L 224.966413 109.413013 
L 225.636013 112.864283 
L 225.970813 119.802721 
L 226.305613 115.402808 
L 226.640413 113.539837 
L 226.975213 115.849841 
L 227.310013 104.697624 
L 227.644813 99.632022 
L 227.979613 105.646027 
L 228.314413 109.489243 
L 228.649213 109.690662 
L 228.984013 103.259749 
L 229.318813 105.997831 
L 229.653613 104.459313 
L 229.988413 109.966283 
L 230.658013 103.700898 
L 230.992813 106.39871 
L 231.327613 104.580234 
L 231.662412 99.737146 
L 231.997212 92.912706 
L 232.666812 102.200801 
L 233.001612 102.743475 
L 233.336412 108.198851 
L 233.671212 98.697495 
L 234.006012 98.096482 
L 234.340812 96.954354 
L 234.675612 96.764428 
L 235.010413 99.393696 
L 235.345213 111.444982 
L 235.680013 114.59489 
L 236.014812 102.92038 
L 236.349612 99.190631 
L 236.684412 94.179671 
L 237.019212 98.753397 
L 237.354012 94.476334 
L 238.023612 101.129892 
L 238.358412 92.834285 
L 238.693212 97.773101 
L 239.028012 92.876443 
L 239.362812 93.387219 
L 239.697612 98.947804 
L 240.032412 90.810884 
L 240.367212 98.944829 
L 240.702012 89.199311 
L 241.036812 91.675258 
L 241.706412 93.153687 
L 242.041213 100.958402 
L 242.376013 93.394118 
L 242.710813 96.652857 
L 243.045613 106.648949 
L 243.380413 108.67472 
L 244.050013 81.702622 
L 244.384813 74.463919 
L 244.719613 77.364198 
L 245.054413 83.902456 
L 245.389212 84.49305 
L 245.724012 92.975668 
L 246.058812 87.040149 
L 246.393612 91.97841 
L 246.728412 93.49752 
L 247.063212 102.495769 
L 247.398012 101.500131 
L 248.067612 92.591227 
L 248.402412 83.9509 
L 248.737212 94.54092 
L 249.072012 97.474895 
L 249.406813 88.073578 
L 249.741613 92.574345 
L 250.076413 81.91681 
L 250.411213 90.431285 
L 250.746013 88.819601 
L 251.080813 84.175557 
L 251.415613 87.059221 
L 251.750413 96.393694 
L 252.085213 96.486553 
L 252.420013 94.995375 
L 252.754813 94.947613 
L 253.089613 98.653622 
L 253.424413 96.148582 
L 253.759213 74.763185 
L 254.094013 76.664087 
L 254.428813 80.260313 
L 254.763613 79.426033 
L 255.098412 83.190483 
L 255.433212 85.163439 
L 255.768012 78.629831 
L 256.102813 78.498662 
L 256.437613 87.897225 
L 257.107213 93.8834 
L 257.442013 92.642354 
L 257.776813 95.426948 
L 258.111613 93.612502 
L 258.446413 78.377441 
L 259.116013 91.634449 
L 259.450813 101.579285 
L 259.785613 97.296125 
L 260.120413 99.185279 
L 260.455213 99.837558 
L 260.790013 87.374425 
L 261.124813 93.7605 
L 261.459613 84.891756 
L 261.794413 87.164984 
L 262.129213 82.501011 
L 262.464013 84.066957 
L 262.798813 76.055666 
L 263.133613 79.004962 
L 263.803213 95.142176 
L 264.138013 96.481249 
L 264.472813 99.996169 
L 264.807613 98.231263 
L 265.142413 85.912583 
L 265.477213 87.50879 
L 265.812013 76.464905 
L 266.146813 81.380538 
L 266.481613 81.336247 
L 266.816413 89.057485 
L 267.151213 82.588555 
L 267.486013 88.815457 
L 267.820813 87.776838 
L 268.155613 98.257696 
L 268.490413 103.885915 
L 268.825213 88.736837 
L 269.160013 87.257983 
L 269.494813 90.160217 
L 269.829613 89.56318 
L 270.164413 89.412459 
L 271.168813 106.804389 
L 271.503613 106.447445 
L 271.838413 98.867528 
L 272.173213 97.080685 
L 272.508013 84.569539 
L 272.842813 85.584633 
L 273.177613 81.289336 
L 273.512413 82.37568 
L 273.847213 85.668222 
L 274.182012 83.793603 
L 274.516813 85.340786 
L 274.851612 85.249686 
L 275.521212 101.045253 
L 275.856013 106.402461 
L 276.525613 97.60446 
L 276.860412 93.725615 
L 277.195213 85.970487 
L 277.864813 88.14653 
L 278.534413 97.0283 
L 278.869213 92.931846 
L 279.204013 99.260313 
L 279.538813 93.741098 
L 279.873613 90.170475 
L 280.208413 94.768464 
L 280.543212 93.617694 
L 280.878013 91.449634 
L 281.212812 97.595636 
L 281.547613 99.51998 
L 281.882412 100.017 
L 282.217213 100.05283 
L 282.552012 89.828898 
L 283.221612 97.77927 
L 283.556413 100.894526 
L 283.891212 95.77034 
L 284.226013 104.512915 
L 284.560812 102.276327 
L 284.895613 102.017508 
L 285.230412 99.013842 
L 285.900013 104.97522 
L 286.569613 107.045419 
L 286.904413 106.652878 
L 287.239213 106.709499 
L 287.574013 102.622565 
L 287.908813 93.74315 
L 288.243613 96.11664 
L 288.578413 103.907404 
L 288.913213 104.277315 
L 289.248013 106.302255 
L 289.582813 95.990428 
L 289.917613 97.4166 
L 290.252412 107.257394 
L 290.587213 102.98795 
L 290.922012 101.02972 
L 291.256813 108.387354 
L 291.591612 109.35042 
L 291.926413 107.73291 
L 292.261212 107.224255 
L 292.596013 107.622817 
L 292.930813 112.821383 
L 293.265613 115.701209 
L 293.600413 111.808277 
L 293.935213 114.037392 
L 294.270013 115.167757 
L 294.604813 116.78689 
L 294.939613 117.354323 
L 295.274413 109.121439 
L 295.609213 111.024885 
L 295.944013 114.212879 
L 296.278813 94.997749 
L 297.283213 114.756602 
L 297.952813 120.804153 
L 298.287613 115.808158 
L 298.622413 122.692576 
L 298.957213 119.033737 
L 299.292013 117.755689 
L 299.626813 118.830511 
L 299.961613 119.007065 
L 300.296413 120.331478 
L 300.631213 119.588431 
L 300.966013 130.898848 
L 301.300813 131.48134 
L 301.635613 129.354938 
L 301.970413 131.752854 
L 302.305213 128.523685 
L 302.640013 129.280956 
L 302.974813 126.787797 
L 303.309613 129.381427 
L 303.644413 130.946957 
L 303.979213 130.351188 
L 304.314013 130.32276 
L 304.648813 123.286173 
L 304.983613 125.775677 
L 305.318413 123.36356 
L 305.653213 124.516122 
L 306.322813 118.943864 
L 306.657613 122.503543 
L 306.992413 124.424471 
L 307.327213 134.194055 
L 307.662013 132.248569 
L 307.996813 136.440936 
L 308.331613 142.570112 
L 308.666413 140.077089 
L 309.001213 143.015731 
L 309.336013 140.596118 
L 309.670813 141.943008 
L 310.005613 144.432646 
L 310.675213 146.326844 
L 311.010013 141.482191 
L 311.344813 144.182969 
L 311.679613 145.422412 
L 312.014413 139.345195 
L 312.349213 143.344904 
L 312.684013 138.329532 
L 313.018813 137.315805 
L 313.353613 140.837999 
L 313.688413 152.064591 
L 314.023213 158.715991 
L 314.358013 157.350759 
L 314.692813 152.100688 
L 315.027613 152.10148 
L 315.362413 151.752945 
L 315.697213 148.323929 
L 316.366813 138.297974 
L 316.701613 143.084893 
L 317.036413 142.867272 
L 317.706013 156.774994 
L 318.040813 160.740773 
L 318.375613 162.3202 
L 318.710413 158.20471 
L 319.045213 160.987924 
L 319.380013 157.840553 
L 319.714812 150.540514 
L 320.384412 147.57691 
L 320.719213 148.148773 
L 321.054012 148.954219 
L 321.388813 155.519041 
L 321.723613 154.731203 
L 322.058413 161.569389 
L 322.393213 158.239338 
L 322.728013 161.58258 
L 323.062813 157.496217 
L 323.732413 165.407792 
L 324.067213 158.294922 
L 324.402013 156.031749 
L 324.736813 157.914909 
L 325.071613 156.781572 
L 325.406413 156.494165 
L 325.741213 161.465958 
L 326.076013 157.783353 
L 326.410813 156.171245 
L 326.745613 158.304885 
L 327.080413 161.795544 
L 327.415213 163.910007 
L 327.750013 160.243484 
L 328.084813 161.426617 
L 328.419613 160.569979 
L 328.754413 161.949844 
L 329.089213 154.785667 
L 329.424013 165.360055 
L 329.758813 159.431075 
L 330.428413 153.028475 
L 330.763213 153.16461 
L 331.098013 158.010495 
L 331.432813 166.121901 
L 331.767613 164.497403 
L 332.102413 164.536361 
L 332.437213 159.85375 
L 332.772013 164.953941 
L 333.106813 163.375127 
L 333.441613 162.413798 
L 333.776413 163.719271 
L 334.111213 160.859082 
L 334.446013 163.337549 
L 334.780813 164.829163 
L 335.115613 164.471309 
L 335.450413 159.591723 
L 335.785213 161.062499 
L 336.120013 160.816191 
L 336.454813 160.725796 
L 336.789613 159.841212 
L 337.124413 159.437451 
L 337.459213 163.25405 
L 337.794013 163.943324 
L 338.128813 169.46217 
L 338.463613 161.221226 
L 338.798413 161.701353 
L 339.133213 163.490823 
L 339.468013 164.319972 
L 339.802813 167.604804 
L 340.137613 165.54547 
L 340.472413 162.094788 
L 340.807213 161.55895 
L 341.142013 156.764068 
L 341.811613 158.708586 
L 342.146413 157.834641 
L 342.481213 164.359631 
L 342.816013 162.388567 
L 343.150813 165.438693 
L 343.485613 167.408001 
L 343.820413 173.954605 
L 344.155213 170.897337 
L 344.490013 160.659227 
L 344.824813 165.50091 
L 345.159613 161.936628 
L 345.494413 160.24276 
L 345.829213 160.862838 
L 346.164013 162.519552 
L 346.498813 158.813476 
L 346.833613 161.054701 
L 347.168413 162.196018 
L 347.503213 158.63635 
L 347.838013 163.297698 
L 348.172813 169.636507 
L 348.507613 169.475032 
L 348.842413 169.991362 
L 349.177213 167.319328 
L 349.512013 165.668895 
L 349.846813 164.890533 
L 350.181613 165.938512 
L 350.516413 154.081094 
L 350.851213 151.793929 
L 351.186013 157.623409 
L 351.520813 161.308103 
L 351.855613 172.702975 
L 352.190413 172.834739 
L 352.860013 164.903607 
L 353.194813 167.527529 
L 353.529613 161.036683 
L 353.864413 162.703702 
L 354.199213 166.893916 
L 354.534013 155.805282 
L 354.868813 162.682782 
L 355.203613 160.853659 
L 355.538413 163.46105 
L 355.873213 167.447816 
L 356.208013 167.874964 
L 356.542813 162.902664 
L 356.877613 162.94624 
L 357.212413 162.643054 
L 357.547213 168.132464 
L 357.882013 168.330429 
L 358.216813 169.864922 
L 358.551613 160.756336 
L 358.886413 161.489471 
L 359.221213 157.753583 
L 359.556013 149.622502 
L 359.890813 161.653955 
L 360.225613 165.007215 
L 360.560413 165.233301 
L 360.895213 170.699054 
L 361.230013 174.052257 
L 361.564813 168.392812 
L 362.234413 165.936735 
L 362.569213 152.301168 
L 362.904013 158.89055 
L 363.238813 159.492121 
L 363.573613 159.101298 
L 363.908412 165.297058 
L 364.243213 168.027997 
L 364.578012 164.810503 
L 364.912813 169.081417 
L 365.247613 168.95181 
L 365.582413 162.882913 
L 365.917213 168.651497 
L 366.252013 166.190376 
L 366.586813 159.350369 
L 366.921613 162.926741 
L 367.256413 162.217604 
L 367.591213 162.99055 
L 367.926013 166.011493 
L 368.260813 166.145691 
L 368.595613 161.434933 
L 368.930413 164.632744 
L 369.265213 164.557781 
L 369.600013 167.475195 
L 369.934813 166.747387 
L 370.269613 168.240226 
L 370.604413 162.328271 
L 370.939213 161.416773 
L 371.274013 156.635669 
L 371.943613 164.144871 
L 372.278413 163.773483 
L 372.948013 170.119875 
L 372.948013 170.119875 
" clip-path="url(#pec6d251188)" style="fill: none; stroke: #1f77b4; stroke-width: 1.5; stroke-linecap: square"/>
   </g>
   <g id="line2d_13">
    <path d="M 38.482813 66.382955 
L 40.156813 66.478658 
L 41.830813 66.765555 
L 43.839613 67.361279 
L 45.848413 68.229478 
L 47.857213 69.367376 
L 49.866013 70.771335 
L 51.874813 72.436867 
L 54.218412 74.703438 
L 56.562013 77.308896 
L 58.905613 80.241905 
L 61.584013 83.978565 
L 64.262413 88.105101 
L 67.275613 93.1842 
L 70.288813 98.69048 
L 73.636812 105.261331 
L 77.319613 112.972135 
L 81.672012 122.626661 
L 87.028813 135.110013 
L 95.398813 155.300036 
L 104.103612 176.123104 
L 109.125612 187.574083 
L 113.478013 196.941553 
L 117.160813 204.353879 
L 120.508813 210.612001 
L 123.522013 215.805486 
L 126.535213 220.544428 
L 129.213613 224.347603 
L 131.892013 227.74305 
L 134.235613 230.364374 
L 136.579213 232.647317 
L 138.588012 234.327233 
L 140.596812 235.745849 
L 142.605613 236.898632 
L 144.614413 237.781895 
L 146.623213 238.392815 
L 148.297213 238.692439 
L 149.971213 238.8009 
L 151.645213 238.717955 
L 153.319213 238.44379 
L 154.993213 237.979013 
L 157.002013 237.171154 
L 159.010813 236.092905 
L 161.019612 234.747713 
L 163.028413 233.139877 
L 165.037213 231.274538 
L 167.380812 228.780855 
L 169.724412 225.955681 
L 172.402813 222.336836 
L 175.081213 218.321688 
L 178.094413 213.359431 
L 181.107612 207.960218 
L 184.455613 201.495934 
L 188.138413 193.886194 
L 192.156013 185.081883 
L 197.178013 173.506422 
L 204.208812 156.653149 
L 215.592013 129.321842 
L 220.614013 117.857905 
L 224.966413 108.475193 
L 228.649213 101.047239 
L 231.997212 94.772883 
L 235.010413 89.563261 
L 238.023612 84.806855 
L 240.702012 80.987145 
L 243.380413 77.574308 
L 245.724012 74.937143 
L 248.067612 72.637849 
L 250.076413 70.943567 
L 252.085213 69.510307 
L 254.094013 68.342652 
L 256.102813 67.444333 
L 258.111613 66.818224 
L 259.785613 66.505874 
L 261.459613 66.384657 
L 263.133613 66.454842 
L 264.807613 66.716274 
L 266.481613 67.168371 
L 268.490413 67.961124 
L 270.499213 69.024434 
L 272.508013 70.354901 
L 274.516813 71.948273 
L 276.525613 73.799455 
L 278.869213 76.27707 
L 281.212812 79.086727 
L 283.891212 82.688597 
L 286.569613 86.687673 
L 289.582813 91.633041 
L 292.596013 97.016744 
L 295.944013 103.465547 
L 299.626813 111.060549 
L 303.644413 119.851694 
L 308.666413 131.415219 
L 315.362413 147.449347 
L 327.415213 176.383538 
L 332.437213 187.821444 
L 336.789613 197.173582 
L 340.472413 204.570205 
L 343.820413 210.812031 
L 346.833613 215.989329 
L 349.846813 220.71076 
L 352.525213 224.497362 
L 355.203613 227.875385 
L 357.547213 230.480843 
L 359.890813 232.747413 
L 361.899613 234.412946 
L 363.908412 235.816905 
L 365.917213 236.954803 
L 367.926013 237.823002 
L 369.934813 238.418726 
L 371.608813 238.705622 
L 372.948013 238.797497 
L 372.948013 238.797497 
" clip-path="url(#pec6d251188)" style="fill: none; stroke: #ff7f0e; stroke-width: 1.5; stroke-linecap: square"/>
   </g>
   <g id="line2d_14">
    <path d="M 38.482813 152.59214 
L 52.879213 141.087439 
L 60.579613 135.225023 
L 66.940813 130.650118 
L 72.632413 126.81969 
L 77.989213 123.482195 
L 83.011212 120.619663 
L 87.698413 118.203536 
L 92.050813 116.197729 
L 96.403213 114.434605 
L 100.420813 113.032701 
L 104.438412 111.855582 
L 108.456013 110.909935 
L 112.473613 110.201135 
L 116.491213 109.73321 
L 120.174013 109.518175 
L 123.856813 109.508817 
L 127.539613 109.705182 
L 131.557213 110.152896 
L 135.574813 110.841758 
L 139.592412 111.767854 
L 143.610013 112.925922 
L 147.627612 114.309381 
L 151.980013 116.053328 
L 156.332413 118.040922 
L 161.019612 120.438651 
L 165.706813 123.085016 
L 170.728813 126.173032 
L 176.085612 129.724672 
L 182.112012 133.994403 
L 188.808012 139.014775 
L 197.178013 145.581732 
L 226.305613 168.7115 
L 233.001612 173.594858 
L 239.028012 177.708776 
L 244.384813 181.097719 
L 249.406813 184.014036 
L 254.094013 186.484783 
L 258.446413 188.544751 
L 262.798813 190.364983 
L 267.151213 191.933339 
L 271.168813 193.148422 
L 275.186413 194.133057 
L 279.204013 194.881647 
L 283.221612 195.38994 
L 286.904413 195.64229 
L 290.587213 195.689075 
L 294.270013 195.530074 
L 297.952813 195.166044 
L 301.970413 194.537155 
L 305.988013 193.669927 
L 310.005613 192.569286 
L 314.023213 191.241487 
L 318.375613 189.555477 
L 322.728013 187.622991 
L 327.415213 185.281022 
L 332.102413 182.686276 
L 337.124413 179.648521 
L 342.481213 176.144246 
L 348.507613 171.919516 
L 355.203613 166.938191 
L 363.238813 160.669136 
L 372.948013 152.862973 
L 372.948013 152.862973 
" clip-path="url(#pec6d251188)" style="fill: none; stroke: #2ca02c; stroke-width: 1.5; stroke-linecap: square"/>
   </g>
   <g id="line2d_15">
    <path d="M 38.482813 66.382955 
L 40.491613 64.896136 
L 42.500413 63.686788 
L 44.509213 62.755895 
L 46.518012 62.10356 
L 48.192013 61.772203 
L 49.866013 61.632855 
L 51.540013 61.684188 
L 53.214013 61.924463 
L 55.222813 62.459142 
L 57.231613 63.258314 
L 59.240413 64.316695 
L 61.249212 65.628213 
L 63.258012 67.186027 
L 65.601613 69.30461 
L 67.945212 71.734811 
L 70.623613 74.87507 
L 73.302013 78.379759 
L 76.315213 82.726393 
L 79.328412 87.463194 
L 82.676412 93.133651 
L 86.359213 99.797334 
L 90.711613 108.137541 
L 96.403213 119.577399 
L 114.482413 156.358501 
L 118.834812 164.524408 
L 122.852413 171.588205 
L 126.200412 177.059286 
L 129.548413 182.101314 
L 132.561613 186.236383 
L 135.240013 189.567914 
L 137.918412 192.557363 
L 140.596812 195.189567 
L 142.940413 197.18957 
L 145.284013 198.899163 
L 147.627612 200.312742 
L 149.636413 201.285602 
L 151.645213 202.036185 
L 153.654013 202.563559 
L 155.662813 202.867599 
L 157.671613 202.948986 
L 159.680412 202.809199 
L 161.689212 202.450511 
L 163.698013 201.875976 
L 165.706813 201.089419 
L 168.050412 199.90995 
L 170.394013 198.456701 
L 172.737613 196.739533 
L 175.416013 194.468231 
L 178.094413 191.885365 
L 181.107612 188.632842 
L 184.120812 185.043977 
L 187.468813 180.704068 
L 191.151612 175.560894 
L 195.504013 169.080026 
L 200.860813 160.68262 
L 217.935613 133.567138 
L 222.288013 127.241874 
L 225.970813 122.266808 
L 229.318813 118.106966 
L 232.332012 114.700847 
L 235.010413 111.969775 
L 237.688812 109.540246 
L 240.367212 107.431813 
L 242.710813 105.864173 
L 245.054413 104.566246 
L 247.398012 103.547143 
L 249.406813 102.901472 
L 251.415613 102.470456 
L 253.424413 102.257411 
L 255.433212 102.26487 
L 257.442013 102.494577 
L 259.450813 102.947481 
L 261.459613 103.623724 
L 263.468413 104.522645 
L 265.477213 105.642776 
L 267.820813 107.226107 
L 270.164413 109.102429 
L 272.508013 111.265304 
L 274.851612 113.70686 
L 277.530012 116.826491 
L 280.208413 120.281926 
L 283.221612 124.547852 
L 286.234813 129.186357 
L 289.582813 134.737633 
L 293.265613 141.270493 
L 297.618013 149.472634 
L 302.640013 159.42711 
L 310.340413 175.250382 
L 319.380013 193.732944 
L 324.402013 203.502515 
L 328.419613 210.870053 
L 332.102413 217.172462 
L 335.450413 222.457888 
L 338.463613 226.804521 
L 341.142013 230.309211 
L 343.820413 233.44947 
L 346.164013 235.879671 
L 348.507613 237.998254 
L 350.851213 239.791952 
L 352.860013 241.061735 
L 354.868813 242.077315 
L 356.877613 242.83275 
L 358.886413 243.322891 
L 360.560413 243.525536 
L 362.234413 243.538859 
L 363.908412 243.361202 
L 365.582413 242.991321 
L 367.256413 242.428386 
L 369.265213 241.497493 
L 371.274013 240.288144 
L 372.948013 239.068329 
L 372.948013 239.068329 
" clip-path="url(#pec6d251188)" style="fill: none; stroke: #d62728; stroke-width: 1.5; stroke-linecap: square"/>
   </g>
   <g id="patch_3">
    <path d="M 38.482813 253.44 
L 38.482813 36 
" style="fill: none; stroke: #000000; stroke-width: 0.8; stroke-linejoin: miter; stroke-linecap: square"/>
   </g>
   <g id="patch_4">
    <path d="M 373.282813 253.44 
L 373.282813 36 
" style="fill: none; stroke: #000000; stroke-width: 0.8; stroke-linejoin: miter; stroke-linecap: square"/>
   </g>
   <g id="patch_5">
    <path d="M 38.482813 253.44 
L 373.282813 253.44 
" style="fill: none; stroke: #000000; stroke-width: 0.8; stroke-linejoin: miter; stroke-linecap: square"/>
   </g>
   <g id="patch_6">
    <path d="M 38.482813 36 
L 373.282813 36 
" style="fill: none; stroke: #000000; stroke-width: 0.8; stroke-linejoin: miter; stroke-linecap: square"/>
   </g>
   <g id="legend_1">
    <g id="patch_7">
     <path d="M 311.082813 102.732812 
L 366.282813 102.732812 
Q 368.282813 102.732812 368.282813 100.732812 
L 368.282813 43 
Q 368.282813 41 366.282813 41 
L 311.082813 41 
Q 309.082813 41 309.082813 43 
L 309.082813 100.732812 
Q 309.082813 102.732812 311.082813 102.732812 
z
" style="fill: #ffffff; opacity: 0.8; stroke: #cccccc; stroke-linejoin: miter"/>
    </g>
    <g id="line2d_16">
     <path d="M 313.082813 49.098437 
L 323.082813 49.098437 
L 333.082813 49.098437 
" style="fill: none; stroke: #1f77b4; stroke-width: 1.5; stroke-linecap: square"/>
    </g>
    <g id="text_12">
     <!-- $\hat{z}$ -->
     <g transform="translate(341.082813 52.598437) scale(0.1 -0.1)">
      <defs>
       <path id="DejaVuSans-302" d="M -1831 5119 
L -1369 5119 
L -603 3944 
L -1038 3944 
L -1600 4709 
L -2163 3944 
L -2597 3944 
L -1831 5119 
z
M -1600 3584 
L -1600 3584 
z
" transform="scale(0.015625)"/>
       <path id="DejaVuSans-Oblique-7a" d="M 744 3500 
L 3475 3500 
L 3372 2975 
L 738 459 
L 2913 459 
L 2822 0 
L -19 0 
L 84 525 
L 2719 3041 
L 653 3041 
L 744 3500 
z
" transform="scale(0.015625)"/>
      </defs>
      <use xlink:href="#DejaVuSans-302" transform="translate(57.700684 12.015625)"/>
      <use xlink:href="#DejaVuSans-Oblique-7a" transform="translate(0 0.828125)"/>
     </g>
    </g>
    <g id="line2d_17">
     <path d="M 313.082813 63.776562 
L 323.082813 63.776562 
L 333.082813 63.776562 
" style="fill: none; stroke: #ff7f0e; stroke-width: 1.5; stroke-linecap: square"/>
    </g>
    <g id="text_13">
     <!-- $x_{ideal}$ -->
     <g transform="translate(341.082813 67.276562) scale(0.1 -0.1)">
      <defs>
       <path id="DejaVuSans-Oblique-78" d="M 3841 3500 
L 2234 1784 
L 3219 0 
L 2559 0 
L 1819 1388 
L 531 0 
L -166 0 
L 1556 1844 
L 641 3500 
L 1300 3500 
L 1972 2234 
L 3144 3500 
L 3841 3500 
z
" transform="scale(0.015625)"/>
       <path id="DejaVuSans-Oblique-69" d="M 1172 4863 
L 1747 4863 
L 1606 4134 
L 1031 4134 
L 1172 4863 
z
M 909 3500 
L 1484 3500 
L 800 0 
L 225 0 
L 909 3500 
z
" transform="scale(0.015625)"/>
       <path id="DejaVuSans-Oblique-64" d="M 2675 525 
Q 2444 222 2128 65 
Q 1813 -91 1428 -91 
Q 903 -91 598 267 
Q 294 625 294 1247 
Q 294 1766 478 2236 
Q 663 2706 1013 3078 
Q 1244 3325 1534 3454 
Q 1825 3584 2144 3584 
Q 2481 3584 2739 3421 
Q 2997 3259 3138 2956 
L 3513 4863 
L 4091 4863 
L 3144 0 
L 2566 0 
L 2675 525 
z
M 891 1350 
Q 891 897 1095 644 
Q 1300 391 1663 391 
Q 1931 391 2161 520 
Q 2391 650 2566 903 
Q 2750 1166 2856 1509 
Q 2963 1853 2963 2188 
Q 2963 2622 2758 2865 
Q 2553 3109 2194 3109 
Q 1922 3109 1687 2981 
Q 1453 2853 1288 2613 
Q 1106 2353 998 2009 
Q 891 1666 891 1350 
z
" transform="scale(0.015625)"/>
       <path id="DejaVuSans-Oblique-65" d="M 3078 2063 
Q 3088 2113 3092 2166 
Q 3097 2219 3097 2272 
Q 3097 2653 2873 2875 
Q 2650 3097 2266 3097 
Q 1838 3097 1509 2826 
Q 1181 2556 1013 2059 
L 3078 2063 
z
M 3578 1613 
L 903 1613 
Q 884 1494 878 1425 
Q 872 1356 872 1306 
Q 872 872 1139 634 
Q 1406 397 1894 397 
Q 2269 397 2603 481 
Q 2938 566 3225 728 
L 3116 159 
Q 2806 34 2476 -28 
Q 2147 -91 1806 -91 
Q 1078 -91 686 257 
Q 294 606 294 1247 
Q 294 1794 489 2264 
Q 684 2734 1063 3103 
Q 1306 3334 1642 3459 
Q 1978 3584 2356 3584 
Q 2950 3584 3301 3228 
Q 3653 2872 3653 2272 
Q 3653 2128 3634 1964 
Q 3616 1800 3578 1613 
z
" transform="scale(0.015625)"/>
       <path id="DejaVuSans-Oblique-61" d="M 3438 1997 
L 3047 0 
L 2472 0 
L 2578 531 
Q 2325 219 2001 64 
Q 1678 -91 1281 -91 
Q 834 -91 548 182 
Q 263 456 263 884 
Q 263 1497 752 1853 
Q 1241 2209 2100 2209 
L 2900 2209 
L 2931 2363 
Q 2938 2388 2941 2417 
Q 2944 2447 2944 2509 
Q 2944 2788 2717 2942 
Q 2491 3097 2081 3097 
Q 1800 3097 1504 3025 
Q 1209 2953 897 2809 
L 997 3341 
Q 1322 3463 1633 3523 
Q 1944 3584 2234 3584 
Q 2853 3584 3176 3315 
Q 3500 3047 3500 2534 
Q 3500 2431 3484 2292 
Q 3469 2153 3438 1997 
z
M 2816 1759 
L 2241 1759 
Q 1534 1759 1195 1570 
Q 856 1381 856 984 
Q 856 709 1029 553 
Q 1203 397 1509 397 
Q 1978 397 2328 733 
Q 2678 1069 2791 1631 
L 2816 1759 
z
" transform="scale(0.015625)"/>
       <path id="DejaVuSans-Oblique-6c" d="M 1172 4863 
L 1747 4863 
L 800 0 
L 225 0 
L 1172 4863 
z
" transform="scale(0.015625)"/>
      </defs>
      <use xlink:href="#DejaVuSans-Oblique-78" transform="translate(0 0.3125)"/>
      <use xlink:href="#DejaVuSans-Oblique-69" transform="translate(59.179688 -16.09375) scale(0.7)"/>
      <use xlink:href="#DejaVuSans-Oblique-64" transform="translate(78.62793 -16.09375) scale(0.7)"/>
      <use xlink:href="#DejaVuSans-Oblique-65" transform="translate(123.061523 -16.09375) scale(0.7)"/>
      <use xlink:href="#DejaVuSans-Oblique-61" transform="translate(166.12793 -16.09375) scale(0.7)"/>
      <use xlink:href="#DejaVuSans-Oblique-6c" transform="translate(209.023438 -16.09375) scale(0.7)"/>
     </g>
    </g>
    <g id="line2d_18">
     <path d="M 313.082813 78.454687 
L 323.082813 78.454687 
L 333.082813 78.454687 
" style="fill: none; stroke: #2ca02c; stroke-width: 1.5; stroke-linecap: square"/>
    </g>
    <g id="text_14">
     <!-- $y_{ideal}$ -->
     <g transform="translate(341.082813 81.954687) scale(0.1 -0.1)">
      <defs>
       <path id="DejaVuSans-Oblique-79" d="M 1588 -325 
Q 1188 -997 936 -1164 
Q 684 -1331 294 -1331 
L -159 -1331 
L -63 -850 
L 269 -850 
Q 509 -850 678 -719 
Q 847 -588 1056 -206 
L 1234 128 
L 459 3500 
L 1069 3500 
L 1650 819 
L 3256 3500 
L 3859 3500 
L 1588 -325 
z
" transform="scale(0.015625)"/>
      </defs>
      <use xlink:href="#DejaVuSans-Oblique-79" transform="translate(0 0.3125)"/>
      <use xlink:href="#DejaVuSans-Oblique-69" transform="translate(59.179688 -16.09375) scale(0.7)"/>
      <use xlink:href="#DejaVuSans-Oblique-64" transform="translate(78.62793 -16.09375) scale(0.7)"/>
      <use xlink:href="#DejaVuSans-Oblique-65" transform="translate(123.061523 -16.09375) scale(0.7)"/>
      <use xlink:href="#DejaVuSans-Oblique-61" transform="translate(166.12793 -16.09375) scale(0.7)"/>
      <use xlink:href="#DejaVuSans-Oblique-6c" transform="translate(209.023438 -16.09375) scale(0.7)"/>
     </g>
    </g>
    <g id="line2d_19">
     <path d="M 313.082813 93.153125 
L 323.082813 93.153125 
L 333.082813 93.153125 
" style="fill: none; stroke: #d62728; stroke-width: 1.5; stroke-linecap: square"/>
    </g>
    <g id="text_15">
     <!-- $z_{ideal}$ -->
     <g transform="translate(341.082813 96.653125) scale(0.1 -0.1)">
      <use xlink:href="#DejaVuSans-Oblique-7a" transform="translate(0 0.3125)"/>
      <use xlink:href="#DejaVuSans-Oblique-69" transform="translate(52.490234 -16.09375) scale(0.7)"/>
      <use xlink:href="#DejaVuSans-Oblique-64" transform="translate(71.938477 -16.09375) scale(0.7)"/>
      <use xlink:href="#DejaVuSans-Oblique-65" transform="translate(116.37207 -16.09375) scale(0.7)"/>
      <use xlink:href="#DejaVuSans-Oblique-61" transform="translate(159.438477 -16.09375) scale(0.7)"/>
      <use xlink:href="#DejaVuSans-Oblique-6c" transform="translate(202.333984 -16.09375) scale(0.7)"/>
     </g>
    </g>
   </g>
  </g>
  <g id="text_16">
   <!-- Decoded $\hat{z}$ and inputs $x,y$ with ideal output $z$ -->
   <g transform="translate(65.242812 18.24) scale(0.12 -0.12)">
    <defs>
     <path id="DejaVuSans-44" d="M 1259 4147 
L 1259 519 
L 2022 519 
Q 2988 519 3436 956 
Q 3884 1394 3884 2338 
Q 3884 3275 3436 3711 
Q 2988 4147 2022 4147 
L 1259 4147 
z
M 628 4666 
L 1925 4666 
Q 3281 4666 3915 4102 
Q 4550 3538 4550 2338 
Q 4550 1131 3912 565 
Q 3275 0 1925 0 
L 628 0 
L 628 4666 
z
" transform="scale(0.015625)"/>
     <path id="DejaVuSans-65" d="M 3597 1894 
L 3597 1613 
L 953 1613 
Q 991 1019 1311 708 
Q 1631 397 2203 397 
Q 2534 397 2845 478 
Q 3156 559 3463 722 
L 3463 178 
Q 3153 47 2828 -22 
Q 2503 -91 2169 -91 
Q 1331 -91 842 396 
Q 353 884 353 1716 
Q 353 2575 817 3079 
Q 1281 3584 2069 3584 
Q 2775 3584 3186 3129 
Q 3597 2675 3597 1894 
z
M 3022 2063 
Q 3016 2534 2758 2815 
Q 2500 3097 2075 3097 
Q 1594 3097 1305 2825 
Q 1016 2553 972 2059 
L 3022 2063 
z
" transform="scale(0.015625)"/>
     <path id="DejaVuSans-63" d="M 3122 3366 
L 3122 2828 
Q 2878 2963 2633 3030 
Q 2388 3097 2138 3097 
Q 1578 3097 1268 2742 
Q 959 2388 959 1747 
Q 959 1106 1268 751 
Q 1578 397 2138 397 
Q 2388 397 2633 464 
Q 2878 531 3122 666 
L 3122 134 
Q 2881 22 2623 -34 
Q 2366 -91 2075 -91 
Q 1284 -91 818 406 
Q 353 903 353 1747 
Q 353 2603 823 3093 
Q 1294 3584 2113 3584 
Q 2378 3584 2631 3529 
Q 2884 3475 3122 3366 
z
" transform="scale(0.015625)"/>
     <path id="DejaVuSans-6f" d="M 1959 3097 
Q 1497 3097 1228 2736 
Q 959 2375 959 1747 
Q 959 1119 1226 758 
Q 1494 397 1959 397 
Q 2419 397 2687 759 
Q 2956 1122 2956 1747 
Q 2956 2369 2687 2733 
Q 2419 3097 1959 3097 
z
M 1959 3584 
Q 2709 3584 3137 3096 
Q 3566 2609 3566 1747 
Q 3566 888 3137 398 
Q 2709 -91 1959 -91 
Q 1206 -91 779 398 
Q 353 888 353 1747 
Q 353 2609 779 3096 
Q 1206 3584 1959 3584 
z
" transform="scale(0.015625)"/>
     <path id="DejaVuSans-64" d="M 2906 2969 
L 2906 4863 
L 3481 4863 
L 3481 0 
L 2906 0 
L 2906 525 
Q 2725 213 2448 61 
Q 2172 -91 1784 -91 
Q 1150 -91 751 415 
Q 353 922 353 1747 
Q 353 2572 751 3078 
Q 1150 3584 1784 3584 
Q 2172 3584 2448 3432 
Q 2725 3281 2906 2969 
z
M 947 1747 
Q 947 1113 1208 752 
Q 1469 391 1925 391 
Q 2381 391 2643 752 
Q 2906 1113 2906 1747 
Q 2906 2381 2643 2742 
Q 2381 3103 1925 3103 
Q 1469 3103 1208 2742 
Q 947 2381 947 1747 
z
" transform="scale(0.015625)"/>
     <path id="DejaVuSans-20" transform="scale(0.015625)"/>
     <path id="DejaVuSans-61" d="M 2194 1759 
Q 1497 1759 1228 1600 
Q 959 1441 959 1056 
Q 959 750 1161 570 
Q 1363 391 1709 391 
Q 2188 391 2477 730 
Q 2766 1069 2766 1631 
L 2766 1759 
L 2194 1759 
z
M 3341 1997 
L 3341 0 
L 2766 0 
L 2766 531 
Q 2569 213 2275 61 
Q 1981 -91 1556 -91 
Q 1019 -91 701 211 
Q 384 513 384 1019 
Q 384 1609 779 1909 
Q 1175 2209 1959 2209 
L 2766 2209 
L 2766 2266 
Q 2766 2663 2505 2880 
Q 2244 3097 1772 3097 
Q 1472 3097 1187 3025 
Q 903 2953 641 2809 
L 641 3341 
Q 956 3463 1253 3523 
Q 1550 3584 1831 3584 
Q 2591 3584 2966 3190 
Q 3341 2797 3341 1997 
z
" transform="scale(0.015625)"/>
     <path id="DejaVuSans-6e" d="M 3513 2113 
L 3513 0 
L 2938 0 
L 2938 2094 
Q 2938 2591 2744 2837 
Q 2550 3084 2163 3084 
Q 1697 3084 1428 2787 
Q 1159 2491 1159 1978 
L 1159 0 
L 581 0 
L 581 3500 
L 1159 3500 
L 1159 2956 
Q 1366 3272 1645 3428 
Q 1925 3584 2291 3584 
Q 2894 3584 3203 3211 
Q 3513 2838 3513 2113 
z
" transform="scale(0.015625)"/>
     <path id="DejaVuSans-69" d="M 603 3500 
L 1178 3500 
L 1178 0 
L 603 0 
L 603 3500 
z
M 603 4863 
L 1178 4863 
L 1178 4134 
L 603 4134 
L 603 4863 
z
" transform="scale(0.015625)"/>
     <path id="DejaVuSans-70" d="M 1159 525 
L 1159 -1331 
L 581 -1331 
L 581 3500 
L 1159 3500 
L 1159 2969 
Q 1341 3281 1617 3432 
Q 1894 3584 2278 3584 
Q 2916 3584 3314 3078 
Q 3713 2572 3713 1747 
Q 3713 922 3314 415 
Q 2916 -91 2278 -91 
Q 1894 -91 1617 61 
Q 1341 213 1159 525 
z
M 3116 1747 
Q 3116 2381 2855 2742 
Q 2594 3103 2138 3103 
Q 1681 3103 1420 2742 
Q 1159 2381 1159 1747 
Q 1159 1113 1420 752 
Q 1681 391 2138 391 
Q 2594 391 2855 752 
Q 3116 1113 3116 1747 
z
" transform="scale(0.015625)"/>
     <path id="DejaVuSans-75" d="M 544 1381 
L 544 3500 
L 1119 3500 
L 1119 1403 
Q 1119 906 1312 657 
Q 1506 409 1894 409 
Q 2359 409 2629 706 
Q 2900 1003 2900 1516 
L 2900 3500 
L 3475 3500 
L 3475 0 
L 2900 0 
L 2900 538 
Q 2691 219 2414 64 
Q 2138 -91 1772 -91 
Q 1169 -91 856 284 
Q 544 659 544 1381 
z
M 1991 3584 
L 1991 3584 
z
" transform="scale(0.015625)"/>
     <path id="DejaVuSans-74" d="M 1172 4494 
L 1172 3500 
L 2356 3500 
L 2356 3053 
L 1172 3053 
L 1172 1153 
Q 1172 725 1289 603 
Q 1406 481 1766 481 
L 2356 481 
L 2356 0 
L 1766 0 
Q 1100 0 847 248 
Q 594 497 594 1153 
L 594 3053 
L 172 3053 
L 172 3500 
L 594 3500 
L 594 4494 
L 1172 4494 
z
" transform="scale(0.015625)"/>
     <path id="DejaVuSans-73" d="M 2834 3397 
L 2834 2853 
Q 2591 2978 2328 3040 
Q 2066 3103 1784 3103 
Q 1356 3103 1142 2972 
Q 928 2841 928 2578 
Q 928 2378 1081 2264 
Q 1234 2150 1697 2047 
L 1894 2003 
Q 2506 1872 2764 1633 
Q 3022 1394 3022 966 
Q 3022 478 2636 193 
Q 2250 -91 1575 -91 
Q 1294 -91 989 -36 
Q 684 19 347 128 
L 347 722 
Q 666 556 975 473 
Q 1284 391 1588 391 
Q 1994 391 2212 530 
Q 2431 669 2431 922 
Q 2431 1156 2273 1281 
Q 2116 1406 1581 1522 
L 1381 1569 
Q 847 1681 609 1914 
Q 372 2147 372 2553 
Q 372 3047 722 3315 
Q 1072 3584 1716 3584 
Q 2034 3584 2315 3537 
Q 2597 3491 2834 3397 
z
" transform="scale(0.015625)"/>
     <path id="DejaVuSans-2c" d="M 750 794 
L 1409 794 
L 1409 256 
L 897 -744 
L 494 -744 
L 750 256 
L 750 794 
z
" transform="scale(0.015625)"/>
     <path id="DejaVuSans-77" d="M 269 3500 
L 844 3500 
L 1563 769 
L 2278 3500 
L 2956 3500 
L 3675 769 
L 4391 3500 
L 4966 3500 
L 4050 0 
L 3372 0 
L 2619 2869 
L 1863 0 
L 1184 0 
L 269 3500 
z
" transform="scale(0.015625)"/>
     <path id="DejaVuSans-68" d="M 3513 2113 
L 3513 0 
L 2938 0 
L 2938 2094 
Q 2938 2591 2744 2837 
Q 2550 3084 2163 3084 
Q 1697 3084 1428 2787 
Q 1159 2491 1159 1978 
L 1159 0 
L 581 0 
L 581 4863 
L 1159 4863 
L 1159 2956 
Q 1366 3272 1645 3428 
Q 1925 3584 2291 3584 
Q 2894 3584 3203 3211 
Q 3513 2838 3513 2113 
z
" transform="scale(0.015625)"/>
     <path id="DejaVuSans-6c" d="M 603 4863 
L 1178 4863 
L 1178 0 
L 603 0 
L 603 4863 
z
" transform="scale(0.015625)"/>
    </defs>
    <use xlink:href="#DejaVuSans-44" transform="translate(0 0.828125)"/>
    <use xlink:href="#DejaVuSans-65" transform="translate(77.001953 0.828125)"/>
    <use xlink:href="#DejaVuSans-63" transform="translate(138.525391 0.828125)"/>
    <use xlink:href="#DejaVuSans-6f" transform="translate(193.505859 0.828125)"/>
    <use xlink:href="#DejaVuSans-64" transform="translate(254.6875 0.828125)"/>
    <use xlink:href="#DejaVuSans-65" transform="translate(318.164062 0.828125)"/>
    <use xlink:href="#DejaVuSans-64" transform="translate(379.6875 0.828125)"/>
    <use xlink:href="#DejaVuSans-20" transform="translate(443.164062 0.828125)"/>
    <use xlink:href="#DejaVuSans-302" transform="translate(532.651855 12.015625)"/>
    <use xlink:href="#DejaVuSans-Oblique-7a" transform="translate(474.951172 0.828125)"/>
    <use xlink:href="#DejaVuSans-20" transform="translate(527.441406 0.828125)"/>
    <use xlink:href="#DejaVuSans-61" transform="translate(559.228516 0.828125)"/>
    <use xlink:href="#DejaVuSans-6e" transform="translate(620.507812 0.828125)"/>
    <use xlink:href="#DejaVuSans-64" transform="translate(683.886719 0.828125)"/>
    <use xlink:href="#DejaVuSans-20" transform="translate(747.363281 0.828125)"/>
    <use xlink:href="#DejaVuSans-69" transform="translate(779.150391 0.828125)"/>
    <use xlink:href="#DejaVuSans-6e" transform="translate(806.933594 0.828125)"/>
    <use xlink:href="#DejaVuSans-70" transform="translate(870.3125 0.828125)"/>
    <use xlink:href="#DejaVuSans-75" transform="translate(933.789062 0.828125)"/>
    <use xlink:href="#DejaVuSans-74" transform="translate(997.167969 0.828125)"/>
    <use xlink:href="#DejaVuSans-73" transform="translate(1036.376953 0.828125)"/>
    <use xlink:href="#DejaVuSans-20" transform="translate(1088.476562 0.828125)"/>
    <use xlink:href="#DejaVuSans-Oblique-78" transform="translate(1120.263672 0.828125)"/>
    <use xlink:href="#DejaVuSans-2c" transform="translate(1179.443359 0.828125)"/>
    <use xlink:href="#DejaVuSans-Oblique-79" transform="translate(1230.712891 0.828125)"/>
    <use xlink:href="#DejaVuSans-20" transform="translate(1289.892578 0.828125)"/>
    <use xlink:href="#DejaVuSans-77" transform="translate(1321.679688 0.828125)"/>
    <use xlink:href="#DejaVuSans-69" transform="translate(1403.466797 0.828125)"/>
    <use xlink:href="#DejaVuSans-74" transform="translate(1431.25 0.828125)"/>
    <use xlink:href="#DejaVuSans-68" transform="translate(1470.458984 0.828125)"/>
    <use xlink:href="#DejaVuSans-20" transform="translate(1533.837891 0.828125)"/>
    <use xlink:href="#DejaVuSans-69" transform="translate(1565.625 0.828125)"/>
    <use xlink:href="#DejaVuSans-64" transform="translate(1593.408203 0.828125)"/>
    <use xlink:href="#DejaVuSans-65" transform="translate(1656.884766 0.828125)"/>
    <use xlink:href="#DejaVuSans-61" transform="translate(1718.408203 0.828125)"/>
    <use xlink:href="#DejaVuSans-6c" transform="translate(1779.6875 0.828125)"/>
    <use xlink:href="#DejaVuSans-20" transform="translate(1807.470703 0.828125)"/>
    <use xlink:href="#DejaVuSans-6f" transform="translate(1839.257812 0.828125)"/>
    <use xlink:href="#DejaVuSans-75" transform="translate(1900.439453 0.828125)"/>
    <use xlink:href="#DejaVuSans-74" transform="translate(1963.818359 0.828125)"/>
    <use xlink:href="#DejaVuSans-70" transform="translate(2003.027344 0.828125)"/>
    <use xlink:href="#DejaVuSans-75" transform="translate(2066.503906 0.828125)"/>
    <use xlink:href="#DejaVuSans-74" transform="translate(2129.882812 0.828125)"/>
    <use xlink:href="#DejaVuSans-20" transform="translate(2169.091797 0.828125)"/>
    <use xlink:href="#DejaVuSans-Oblique-7a" transform="translate(2200.878906 0.828125)"/>
   </g>
  </g>
 </g>
 <defs>
  <clipPath id="pec6d251188">
   <rect x="38.482813" y="36" width="334.8" height="217.44"/>
  </clipPath>
 </defs>
</svg>
