<?xml version="1.0" encoding="utf-8" standalone="no"?>
<!DOCTYPE svg PUBLIC "-//W3C//DTD SVG 1.1//EN"
  "http://www.w3.org/Graphics/SVG/1.1/DTD/svg11.dtd">
<svg xmlns:xlink="http://www.w3.org/1999/xlink" width="388.434375pt" height="277.318125pt" viewBox="0 0 388.434375 277.318125" xmlns="http://www.w3.org/2000/svg" version="1.1">
 <metadata>
  <rdf:RDF xmlns:dc="http://purl.org/dc/elements/1.1/" xmlns:cc="http://creativecommons.org/ns#" xmlns:rdf="http://www.w3.org/1999/02/22-rdf-syntax-ns#">
   <cc:Work>
    <dc:type rdf:resource="http://purl.org/dc/dcmitype/StillImage"/>
    <dc:date>2022-10-31T21:11:19.808915</dc:date>
    <dc:format>image/svg+xml</dc:format>
    <dc:creator>
     <cc:Agent>
      <dc:title>Matplotlib v3.6.0, https://matplotlib.org/</dc:title>
     </cc:Agent>
    </dc:creator>
   </cc:Work>
  </rdf:RDF>
 </metadata>
 <defs>
  <style type="text/css">*{stroke-linejoin: round; stroke-linecap: butt}</style>
 </defs>
 <g id="figure_1">
  <g id="patch_1">
   <path d="M -0 277.318125 
L 388.434375 277.318125 
L 388.434375 0 
L -0 0 
L -0 277.318125 
z
" style="fill: none"/>
  </g>
  <g id="axes_1">
   <g id="patch_2">
    <path d="M 38.482813 253.44 
L 373.282813 253.44 
L 373.282813 36 
L 38.482813 36 
z
" style="fill: #ffffff"/>
   </g>
   <g id="matplotlib.axis_1">
    <g id="xtick_1">
     <g id="line2d_1">
      <defs>
       <path id="mccdc0995b8" d="M 0 0 
L 0 3.5 
" style="stroke: #000000; stroke-width: 0.8"/>
      </defs>
      <g>
       <use xlink:href="#mccdc0995b8" x="38.482813" y="253.44" style="stroke: #000000; stroke-width: 0.8"/>
      </g>
     </g>
     <g id="text_1">
      <!-- 0.0 -->
      <g transform="translate(30.53125 268.038437) scale(0.1 -0.1)">
       <defs>
        <path id="DejaVuSans-30" d="M 2034 4250 
Q 1547 4250 1301 3770 
Q 1056 3291 1056 2328 
Q 1056 1369 1301 889 
Q 1547 409 2034 409 
Q 2525 409 2770 889 
Q 3016 1369 3016 2328 
Q 3016 3291 2770 3770 
Q 2525 4250 2034 4250 
z
M 2034 4750 
Q 2819 4750 3233 4129 
Q 3647 3509 3647 2328 
Q 3647 1150 3233 529 
Q 2819 -91 2034 -91 
Q 1250 -91 836 529 
Q 422 1150 422 2328 
Q 422 3509 836 4129 
Q 1250 4750 2034 4750 
z
" transform="scale(0.015625)"/>
        <path id="DejaVuSans-2e" d="M 684 794 
L 1344 794 
L 1344 0 
L 684 0 
L 684 794 
z
" transform="scale(0.015625)"/>
       </defs>
       <use xlink:href="#DejaVuSans-30"/>
       <use xlink:href="#DejaVuSans-2e" x="63.623047"/>
       <use xlink:href="#DejaVuSans-30" x="95.410156"/>
      </g>
     </g>
    </g>
    <g id="xtick_2">
     <g id="line2d_2">
      <g>
       <use xlink:href="#mccdc0995b8" x="105.442813" y="253.44" style="stroke: #000000; stroke-width: 0.8"/>
      </g>
     </g>
     <g id="text_2">
      <!-- 0.2 -->
      <g transform="translate(97.49125 268.038437) scale(0.1 -0.1)">
       <defs>
        <path id="DejaVuSans-32" d="M 1228 531 
L 3431 531 
L 3431 0 
L 469 0 
L 469 531 
Q 828 903 1448 1529 
Q 2069 2156 2228 2338 
Q 2531 2678 2651 2914 
Q 2772 3150 2772 3378 
Q 2772 3750 2511 3984 
Q 2250 4219 1831 4219 
Q 1534 4219 1204 4116 
Q 875 4013 500 3803 
L 500 4441 
Q 881 4594 1212 4672 
Q 1544 4750 1819 4750 
Q 2544 4750 2975 4387 
Q 3406 4025 3406 3419 
Q 3406 3131 3298 2873 
Q 3191 2616 2906 2266 
Q 2828 2175 2409 1742 
Q 1991 1309 1228 531 
z
" transform="scale(0.015625)"/>
       </defs>
       <use xlink:href="#DejaVuSans-30"/>
       <use xlink:href="#DejaVuSans-2e" x="63.623047"/>
       <use xlink:href="#DejaVuSans-32" x="95.410156"/>
      </g>
     </g>
    </g>
    <g id="xtick_3">
     <g id="line2d_3">
      <g>
       <use xlink:href="#mccdc0995b8" x="172.402813" y="253.44" style="stroke: #000000; stroke-width: 0.8"/>
      </g>
     </g>
     <g id="text_3">
      <!-- 0.4 -->
      <g transform="translate(164.45125 268.038437) scale(0.1 -0.1)">
       <defs>
        <path id="DejaVuSans-34" d="M 2419 4116 
L 825 1625 
L 2419 1625 
L 2419 4116 
z
M 2253 4666 
L 3047 4666 
L 3047 1625 
L 3713 1625 
L 3713 1100 
L 3047 1100 
L 3047 0 
L 2419 0 
L 2419 1100 
L 313 1100 
L 313 1709 
L 2253 4666 
z
" transform="scale(0.015625)"/>
       </defs>
       <use xlink:href="#DejaVuSans-30"/>
       <use xlink:href="#DejaVuSans-2e" x="63.623047"/>
       <use xlink:href="#DejaVuSans-34" x="95.410156"/>
      </g>
     </g>
    </g>
    <g id="xtick_4">
     <g id="line2d_4">
      <g>
       <use xlink:href="#mccdc0995b8" x="239.362813" y="253.44" style="stroke: #000000; stroke-width: 0.8"/>
      </g>
     </g>
     <g id="text_4">
      <!-- 0.6 -->
      <g transform="translate(231.41125 268.038437) scale(0.1 -0.1)">
       <defs>
        <path id="DejaVuSans-36" d="M 2113 2584 
Q 1688 2584 1439 2293 
Q 1191 2003 1191 1497 
Q 1191 994 1439 701 
Q 1688 409 2113 409 
Q 2538 409 2786 701 
Q 3034 994 3034 1497 
Q 3034 2003 2786 2293 
Q 2538 2584 2113 2584 
z
M 3366 4563 
L 3366 3988 
Q 3128 4100 2886 4159 
Q 2644 4219 2406 4219 
Q 1781 4219 1451 3797 
Q 1122 3375 1075 2522 
Q 1259 2794 1537 2939 
Q 1816 3084 2150 3084 
Q 2853 3084 3261 2657 
Q 3669 2231 3669 1497 
Q 3669 778 3244 343 
Q 2819 -91 2113 -91 
Q 1303 -91 875 529 
Q 447 1150 447 2328 
Q 447 3434 972 4092 
Q 1497 4750 2381 4750 
Q 2619 4750 2861 4703 
Q 3103 4656 3366 4563 
z
" transform="scale(0.015625)"/>
       </defs>
       <use xlink:href="#DejaVuSans-30"/>
       <use xlink:href="#DejaVuSans-2e" x="63.623047"/>
       <use xlink:href="#DejaVuSans-36" x="95.410156"/>
      </g>
     </g>
    </g>
    <g id="xtick_5">
     <g id="line2d_5">
      <g>
       <use xlink:href="#mccdc0995b8" x="306.322813" y="253.44" style="stroke: #000000; stroke-width: 0.8"/>
      </g>
     </g>
     <g id="text_5">
      <!-- 0.8 -->
      <g transform="translate(298.37125 268.038437) scale(0.1 -0.1)">
       <defs>
        <path id="DejaVuSans-38" d="M 2034 2216 
Q 1584 2216 1326 1975 
Q 1069 1734 1069 1313 
Q 1069 891 1326 650 
Q 1584 409 2034 409 
Q 2484 409 2743 651 
Q 3003 894 3003 1313 
Q 3003 1734 2745 1975 
Q 2488 2216 2034 2216 
z
M 1403 2484 
Q 997 2584 770 2862 
Q 544 3141 544 3541 
Q 544 4100 942 4425 
Q 1341 4750 2034 4750 
Q 2731 4750 3128 4425 
Q 3525 4100 3525 3541 
Q 3525 3141 3298 2862 
Q 3072 2584 2669 2484 
Q 3125 2378 3379 2068 
Q 3634 1759 3634 1313 
Q 3634 634 3220 271 
Q 2806 -91 2034 -91 
Q 1263 -91 848 271 
Q 434 634 434 1313 
Q 434 1759 690 2068 
Q 947 2378 1403 2484 
z
M 1172 3481 
Q 1172 3119 1398 2916 
Q 1625 2713 2034 2713 
Q 2441 2713 2670 2916 
Q 2900 3119 2900 3481 
Q 2900 3844 2670 4047 
Q 2441 4250 2034 4250 
Q 1625 4250 1398 4047 
Q 1172 3844 1172 3481 
z
" transform="scale(0.015625)"/>
       </defs>
       <use xlink:href="#DejaVuSans-30"/>
       <use xlink:href="#DejaVuSans-2e" x="63.623047"/>
       <use xlink:href="#DejaVuSans-38" x="95.410156"/>
      </g>
     </g>
    </g>
    <g id="xtick_6">
     <g id="line2d_6">
      <g>
       <use xlink:href="#mccdc0995b8" x="373.282813" y="253.44" style="stroke: #000000; stroke-width: 0.8"/>
      </g>
     </g>
     <g id="text_6">
      <!-- 1.0 -->
      <g transform="translate(365.33125 268.038437) scale(0.1 -0.1)">
       <defs>
        <path id="DejaVuSans-31" d="M 794 531 
L 1825 531 
L 1825 4091 
L 703 3866 
L 703 4441 
L 1819 4666 
L 2450 4666 
L 2450 531 
L 3481 531 
L 3481 0 
L 794 0 
L 794 531 
z
" transform="scale(0.015625)"/>
       </defs>
       <use xlink:href="#DejaVuSans-31"/>
       <use xlink:href="#DejaVuSans-2e" x="63.623047"/>
       <use xlink:href="#DejaVuSans-30" x="95.410156"/>
      </g>
     </g>
    </g>
   </g>
   <g id="matplotlib.axis_2">
    <g id="ytick_1">
     <g id="line2d_7">
      <defs>
       <path id="mb8f1d4313e" d="M 0 0 
L -3.5 0 
" style="stroke: #000000; stroke-width: 0.8"/>
      </defs>
      <g>
       <use xlink:href="#mb8f1d4313e" x="38.482813" y="238.869417" style="stroke: #000000; stroke-width: 0.8"/>
      </g>
     </g>
     <g id="text_7">
      <!-- −1.0 -->
      <g transform="translate(7.2 242.668636) scale(0.1 -0.1)">
       <defs>
        <path id="DejaVuSans-2212" d="M 678 2272 
L 4684 2272 
L 4684 1741 
L 678 1741 
L 678 2272 
z
" transform="scale(0.015625)"/>
       </defs>
       <use xlink:href="#DejaVuSans-2212"/>
       <use xlink:href="#DejaVuSans-31" x="83.789062"/>
       <use xlink:href="#DejaVuSans-2e" x="147.412109"/>
       <use xlink:href="#DejaVuSans-30" x="179.199219"/>
      </g>
     </g>
    </g>
    <g id="ytick_2">
     <g id="line2d_8">
      <g>
       <use xlink:href="#mb8f1d4313e" x="38.482813" y="196.382081" style="stroke: #000000; stroke-width: 0.8"/>
      </g>
     </g>
     <g id="text_8">
      <!-- −0.5 -->
      <g transform="translate(7.2 200.1813) scale(0.1 -0.1)">
       <defs>
        <path id="DejaVuSans-35" d="M 691 4666 
L 3169 4666 
L 3169 4134 
L 1269 4134 
L 1269 2991 
Q 1406 3038 1543 3061 
Q 1681 3084 1819 3084 
Q 2600 3084 3056 2656 
Q 3513 2228 3513 1497 
Q 3513 744 3044 326 
Q 2575 -91 1722 -91 
Q 1428 -91 1123 -41 
Q 819 9 494 109 
L 494 744 
Q 775 591 1075 516 
Q 1375 441 1709 441 
Q 2250 441 2565 725 
Q 2881 1009 2881 1497 
Q 2881 1984 2565 2268 
Q 2250 2553 1709 2553 
Q 1456 2553 1204 2497 
Q 953 2441 691 2322 
L 691 4666 
z
" transform="scale(0.015625)"/>
       </defs>
       <use xlink:href="#DejaVuSans-2212"/>
       <use xlink:href="#DejaVuSans-30" x="83.789062"/>
       <use xlink:href="#DejaVuSans-2e" x="147.412109"/>
       <use xlink:href="#DejaVuSans-35" x="179.199219"/>
      </g>
     </g>
    </g>
    <g id="ytick_3">
     <g id="line2d_9">
      <g>
       <use xlink:href="#mb8f1d4313e" x="38.482813" y="153.894744" style="stroke: #000000; stroke-width: 0.8"/>
      </g>
     </g>
     <g id="text_9">
      <!-- 0.0 -->
      <g transform="translate(15.579688 157.693963) scale(0.1 -0.1)">
       <use xlink:href="#DejaVuSans-30"/>
       <use xlink:href="#DejaVuSans-2e" x="63.623047"/>
       <use xlink:href="#DejaVuSans-30" x="95.410156"/>
      </g>
     </g>
    </g>
    <g id="ytick_4">
     <g id="line2d_10">
      <g>
       <use xlink:href="#mb8f1d4313e" x="38.482813" y="111.407408" style="stroke: #000000; stroke-width: 0.8"/>
      </g>
     </g>
     <g id="text_10">
      <!-- 0.5 -->
      <g transform="translate(15.579688 115.206627) scale(0.1 -0.1)">
       <use xlink:href="#DejaVuSans-30"/>
       <use xlink:href="#DejaVuSans-2e" x="63.623047"/>
       <use xlink:href="#DejaVuSans-35" x="95.410156"/>
      </g>
     </g>
    </g>
    <g id="ytick_5">
     <g id="line2d_11">
      <g>
       <use xlink:href="#mb8f1d4313e" x="38.482813" y="68.920071" style="stroke: #000000; stroke-width: 0.8"/>
      </g>
     </g>
     <g id="text_11">
      <!-- 1.0 -->
      <g transform="translate(15.579688 72.71929) scale(0.1 -0.1)">
       <use xlink:href="#DejaVuSans-31"/>
       <use xlink:href="#DejaVuSans-2e" x="63.623047"/>
       <use xlink:href="#DejaVuSans-30" x="95.410156"/>
      </g>
     </g>
    </g>
   </g>
   <g id="line2d_12">
    <path d="M 38.482813 153.894744 
L 41.161213 153.894744 
L 41.496012 154.350408 
L 41.830813 150.136564 
L 42.165613 147.529225 
L 43.170012 123.917172 
L 43.504812 128.047494 
L 44.174413 113.837703 
L 44.509213 95.255194 
L 44.844013 96.043774 
L 45.513613 83.304028 
L 45.848413 79.155008 
L 46.183213 87.769086 
L 46.518012 84.465518 
L 46.852812 76.80509 
L 47.187613 77.1944 
L 47.522413 82.066934 
L 47.857213 84.923887 
L 48.526813 73.290989 
L 48.861612 82.805162 
L 49.196413 84.129721 
L 49.531213 75.983317 
L 49.866013 80.621479 
L 50.200813 75.136757 
L 50.535612 77.913728 
L 50.870413 68.952938 
L 51.540013 72.97426 
L 51.874813 74.554413 
L 52.209613 57.642215 
L 52.544413 57.184916 
L 53.214013 71.836788 
L 53.548813 57.456055 
L 53.883612 63.173973 
L 54.218412 62.896797 
L 54.553213 71.792436 
L 54.888013 69.890989 
L 55.222813 72.163336 
L 55.557613 76.829678 
L 55.892413 69.902795 
L 56.227213 68.282193 
L 56.562013 65.26987 
L 56.896813 69.968617 
L 57.231613 68.328525 
L 57.566412 61.591135 
L 58.236013 54.202123 
L 58.570813 45.883636 
L 59.575213 61.697066 
L 59.910013 63.803482 
L 60.244813 57.53602 
L 60.579613 71.853533 
L 60.914413 67.755636 
L 61.249212 67.371382 
L 61.584013 68.720794 
L 61.918813 66.975361 
L 62.253613 68.346057 
L 62.588413 72.74803 
L 62.923213 78.748667 
L 63.258012 71.351534 
L 63.592813 60.417003 
L 63.927613 59.226215 
L 64.262413 56.099766 
L 64.597212 67.05904 
L 64.932012 73.470998 
L 65.266813 85.527503 
L 65.601613 85.712601 
L 65.936413 76.232988 
L 66.271213 75.887764 
L 66.606013 65.971172 
L 66.940813 50.795522 
L 67.275613 57.050384 
L 67.945212 62.072237 
L 69.284413 89.688481 
L 69.619213 88.217419 
L 69.954013 83.903417 
L 70.288813 63.289832 
L 70.623613 71.792886 
L 70.958413 61.66038 
L 71.293213 66.044913 
L 71.628013 64.668372 
L 71.962813 69.432595 
L 72.297613 72.218157 
L 72.632413 66.19042 
L 72.967213 65.966463 
L 73.302013 64.357131 
L 73.971612 85.8021 
L 74.306412 85.871298 
L 74.641212 91.357394 
L 74.976012 75.687073 
L 75.310812 74.33512 
L 75.645612 77.016199 
L 75.980412 69.193737 
L 76.315213 72.089781 
L 76.650013 57.735444 
L 76.984813 62.091806 
L 77.319613 71.593142 
L 77.654413 70.214163 
L 77.989213 82.437282 
L 78.324013 79.525378 
L 78.658813 82.732292 
L 78.993613 87.789768 
L 79.328412 82.806202 
L 79.663213 88.540211 
L 79.998013 78.203424 
L 80.332813 80.663477 
L 80.667613 72.445204 
L 81.002413 84.069563 
L 81.337213 85.812675 
L 82.006812 99.820752 
L 82.341612 100.172838 
L 82.676412 88.966145 
L 83.011212 81.990655 
L 83.346013 86.277701 
L 83.680813 72.330238 
L 84.015613 84.60623 
L 84.350413 90.654661 
L 84.685213 84.495157 
L 85.020013 87.027197 
L 85.354813 88.297222 
L 85.689613 90.91958 
L 86.024413 97.187731 
L 86.694013 102.675684 
L 87.028813 100.304844 
L 87.363613 103.090369 
L 87.698413 96.434814 
L 88.033212 104.245941 
L 88.368012 96.998091 
L 88.702812 101.687387 
L 89.037612 102.432114 
L 89.372412 102.879099 
L 89.707212 103.565895 
L 90.042012 107.426398 
L 90.376812 101.457887 
L 90.711613 89.624431 
L 91.381213 103.181926 
L 91.716013 99.829569 
L 92.050813 108.542312 
L 92.385613 99.902469 
L 92.720413 101.796697 
L 93.055213 92.971533 
L 93.390013 96.819517 
L 93.724813 96.479728 
L 94.059613 96.717431 
L 94.394413 98.901201 
L 94.729213 105.637619 
L 95.064013 115.82682 
L 95.398813 119.75719 
L 95.733613 119.750605 
L 96.068413 123.351673 
L 96.403213 119.929371 
L 96.738013 125.118051 
L 97.072813 125.522653 
L 97.407612 127.031327 
L 97.742413 124.763921 
L 98.077213 125.199705 
L 98.412013 111.068749 
L 98.746813 109.139216 
L 99.081613 110.515894 
L 99.416413 117.391869 
L 99.751213 112.292132 
L 100.420813 115.579071 
L 100.755613 115.417935 
L 101.090413 119.351162 
L 101.425213 125.408763 
L 102.094813 114.097291 
L 102.429613 113.274065 
L 102.764412 116.429437 
L 103.099212 113.014677 
L 103.434012 112.014287 
L 103.768812 118.093185 
L 104.103612 112.567467 
L 104.773212 123.671635 
L 105.108013 128.857143 
L 105.442813 127.058722 
L 105.777613 121.172346 
L 106.112413 125.464928 
L 106.447213 126.241128 
L 107.116813 121.436513 
L 107.451613 117.491039 
L 107.786413 124.256544 
L 108.456013 129.549938 
L 108.790812 128.402844 
L 109.125612 131.512077 
L 109.795212 134.989865 
L 110.130012 139.31871 
L 110.464812 140.266029 
L 110.799612 148.225161 
L 111.134412 149.777261 
L 111.469212 139.422522 
L 111.804012 139.801437 
L 112.138813 140.425627 
L 112.473613 140.671398 
L 112.808413 138.038176 
L 113.143213 130.003326 
L 113.478013 116.832808 
L 114.482413 126.311217 
L 114.817213 125.718024 
L 115.152013 129.551257 
L 115.486813 128.664648 
L 116.156413 135.572214 
L 116.491213 138.196266 
L 116.826013 138.512173 
L 117.160813 143.754904 
L 117.495613 134.537514 
L 117.830413 136.285524 
L 118.165213 135.378307 
L 118.500012 139.08187 
L 118.834812 139.40127 
L 119.169612 143.274466 
L 119.839213 138.803115 
L 120.174013 139.847992 
L 120.508813 141.430794 
L 120.843613 134.926723 
L 121.178413 135.222145 
L 121.513213 134.424581 
L 121.848013 137.417003 
L 122.182813 135.951877 
L 122.852413 142.855818 
L 123.187213 144.635344 
L 123.522013 141.892949 
L 123.856813 135.477114 
L 124.526413 148.302111 
L 124.861212 146.023585 
L 125.196012 146.652942 
L 125.530812 149.09395 
L 125.865612 149.269969 
L 126.535213 146.281464 
L 126.870013 147.184181 
L 127.204813 141.210203 
L 127.539613 141.873265 
L 127.874413 144.538748 
L 128.209213 144.298306 
L 128.544013 144.987897 
L 128.878813 151.325937 
L 129.213613 153.509835 
L 129.548413 150.29309 
L 129.883213 151.078714 
L 130.218013 144.066265 
L 130.552813 146.482933 
L 130.887613 143.529574 
L 131.557213 147.792659 
L 131.892013 139.775691 
L 132.226813 140.949881 
L 132.561613 144.796868 
L 132.896413 145.321372 
L 133.231213 142.473213 
L 133.566013 147.217054 
L 133.900813 149.043608 
L 134.235613 151.840711 
L 134.570413 151.754391 
L 134.905213 154.638848 
L 135.240013 154.232751 
L 135.574813 154.058788 
L 135.909613 151.907212 
L 136.579213 142.864177 
L 136.914013 142.075316 
L 137.248812 137.336196 
L 137.918412 145.102461 
L 138.253212 149.0788 
L 138.588012 145.934937 
L 138.922812 145.134046 
L 139.257612 145.922045 
L 139.592412 150.62914 
L 139.927212 152.713467 
L 140.262012 150.964237 
L 140.596812 153.778654 
L 140.931612 154.101543 
L 141.266413 148.925574 
L 141.601213 146.196671 
L 141.936013 151.119126 
L 142.270813 150.356659 
L 142.940413 155.062268 
L 143.275213 152.895802 
L 143.944813 146.57952 
L 144.279613 150.217841 
L 144.614413 155.610342 
L 144.949213 152.616465 
L 145.284013 158.144241 
L 145.618813 159.852714 
L 145.953613 152.379592 
L 146.288413 153.549292 
L 146.623213 148.21442 
L 146.958012 149.189803 
L 147.292812 152.557858 
L 147.627612 148.742131 
L 147.962412 149.082638 
L 148.297213 149.142027 
L 148.632013 149.033978 
L 148.966813 146.253672 
L 149.301613 148.38199 
L 149.971213 155.603974 
L 150.306013 153.317553 
L 150.640813 146.010408 
L 150.975613 145.622173 
L 151.310413 147.121736 
L 151.645213 150.833618 
L 151.980013 149.770652 
L 152.314813 155.478365 
L 152.649613 157.56783 
L 152.984413 156.074967 
L 153.319213 158.161173 
L 153.654013 153.787486 
L 153.988813 156.977686 
L 154.323613 156.441837 
L 154.658413 157.166755 
L 154.993213 148.736708 
L 155.662813 152.390924 
L 155.997613 158.8189 
L 156.667213 147.808981 
L 157.002013 150.68526 
L 157.336813 152.41733 
L 157.671613 152.309198 
L 158.006413 150.890307 
L 158.341213 150.554464 
L 159.010813 156.731131 
L 159.345612 150.79164 
L 159.680412 150.380949 
L 160.015212 154.524373 
L 160.350012 152.491402 
L 160.684812 155.804053 
L 161.019612 156.695615 
L 161.354412 155.479775 
L 161.689212 152.681006 
L 162.024012 155.092339 
L 162.358812 152.120257 
L 162.693613 152.44781 
L 163.363213 147.360939 
L 163.698013 147.562807 
L 164.032813 152.323454 
L 164.367613 152.60828 
L 164.702413 150.88806 
L 165.037213 155.886811 
L 165.372013 156.960849 
L 165.706813 158.81814 
L 166.041613 159.340519 
L 166.376413 156.047296 
L 166.711212 160.120709 
L 167.046012 159.883134 
L 167.380812 160.617989 
L 167.715612 152.266073 
L 168.050412 151.161384 
L 168.385212 154.70865 
L 168.720012 150.840684 
L 169.054812 150.830839 
L 169.389612 151.929411 
L 169.724412 152.424184 
L 170.059213 152.690751 
L 170.394013 151.973771 
L 170.728813 159.365072 
L 171.063613 157.379391 
L 171.398413 157.742229 
L 171.733213 157.646441 
L 172.068013 154.601597 
L 172.737613 153.351511 
L 173.072413 158.110827 
L 173.407213 160.065663 
L 173.742013 159.271014 
L 174.076813 157.103727 
L 174.411613 155.976709 
L 174.746413 154.059824 
L 175.081213 153.215853 
L 175.416013 151.713058 
L 175.750813 152.275215 
L 176.085612 158.967562 
L 176.420412 157.614185 
L 176.755212 149.113537 
L 177.090013 154.477426 
L 177.759613 158.602114 
L 178.094413 162.493321 
L 178.429213 161.34267 
L 178.764013 164.462169 
L 179.098812 162.833972 
L 179.433612 162.658326 
L 179.768412 158.571575 
L 180.103212 160.111042 
L 180.438012 157.144192 
L 180.772812 145.797238 
L 181.107612 145.084522 
L 181.442412 141.43587 
L 181.777212 146.438441 
L 182.112012 145.311421 
L 182.781612 149.50336 
L 183.116412 156.85011 
L 183.451212 155.577403 
L 183.786012 157.453992 
L 184.120812 160.871541 
L 184.790413 160.331246 
L 185.125213 153.737432 
L 185.460013 152.638506 
L 185.794813 156.308914 
L 186.464413 153.077743 
L 186.799213 154.103921 
L 187.134013 159.90032 
L 187.468813 157.891594 
L 187.803613 162.336308 
L 188.473213 158.90233 
L 188.808012 156.898033 
L 189.142812 156.312543 
L 189.477612 153.497133 
L 189.812412 148.405321 
L 190.147212 149.538154 
L 190.482012 153.607191 
L 190.816812 153.852242 
L 191.151612 153.398504 
L 191.486413 156.160831 
L 191.821213 160.223157 
L 192.156013 160.560967 
L 192.825613 154.890499 
L 193.160413 159.033624 
L 193.495213 154.84515 
L 193.830013 155.668964 
L 194.164813 152.330993 
L 194.834413 148.213146 
L 195.169213 153.044657 
L 195.504013 144.61677 
L 196.173613 154.44624 
L 196.508413 154.350273 
L 196.843213 157.272014 
L 197.178013 155.341557 
L 197.512813 152.724071 
L 197.847613 148.976213 
L 198.182412 151.659655 
L 198.517212 149.971576 
L 198.852013 153.56359 
L 199.186813 147.725633 
L 199.521613 147.895742 
L 199.856413 148.553858 
L 200.191213 148.123583 
L 200.526013 155.334324 
L 200.860813 153.387722 
L 201.195612 152.918851 
L 201.530412 150.032683 
L 201.865212 149.499791 
L 202.200012 149.441122 
L 202.534812 148.923206 
L 202.869612 147.442855 
L 203.204412 142.727284 
L 203.539212 142.41849 
L 203.874012 144.666334 
L 204.208812 147.92955 
L 204.543612 148.851691 
L 204.878412 149.423753 
L 205.213212 150.729219 
L 205.548012 151.067286 
L 205.882812 147.344637 
L 206.217613 146.526346 
L 206.552413 146.690626 
L 206.887213 147.484049 
L 207.222013 152.48089 
L 207.891613 143.181518 
L 208.226413 143.168653 
L 208.561213 150.322683 
L 208.896013 150.970188 
L 209.565613 147.353748 
L 209.900413 146.787448 
L 210.235213 149.008206 
L 210.570013 145.356147 
L 210.904812 143.974407 
L 211.239612 139.983032 
L 211.574412 142.561222 
L 211.909212 141.43893 
L 212.244012 137.124838 
L 212.578812 138.031142 
L 212.913612 133.494953 
L 213.248413 138.945689 
L 213.583213 137.011692 
L 213.918013 137.369835 
L 214.252813 139.281297 
L 214.587613 140.34651 
L 214.922413 144.186305 
L 215.257213 145.161074 
L 215.592013 143.399712 
L 215.926813 130.747454 
L 216.261613 128.569208 
L 216.596413 131.130863 
L 216.931213 130.645176 
L 217.266013 129.95921 
L 218.270413 132.88172 
L 218.940013 123.397799 
L 219.274813 129.53118 
L 219.609613 132.682847 
L 219.944413 122.253366 
L 220.279212 116.443926 
L 220.614013 116.782544 
L 220.948813 109.532465 
L 221.283613 111.843186 
L 221.618413 116.683224 
L 221.953213 117.673032 
L 222.288013 118.070168 
L 222.622813 118.831471 
L 222.957613 118.864383 
L 223.627213 127.135463 
L 224.296813 111.337914 
L 224.631613 117.525719 
L 224.966413 116.344924 
L 225.301213 121.63048 
L 225.636013 119.49513 
L 225.970813 120.13602 
L 226.305613 121.490938 
L 226.640413 121.042952 
L 226.975213 121.007429 
L 227.310013 125.141472 
L 227.979613 112.567138 
L 228.649213 95.523879 
L 228.984013 104.669955 
L 229.318813 108.234197 
L 229.653613 108.25161 
L 230.323213 98.954873 
L 230.658013 107.390665 
L 230.992813 103.574247 
L 231.327613 104.728127 
L 231.662412 108.038478 
L 231.997212 105.947609 
L 232.332012 93.701035 
L 232.666812 103.881605 
L 233.001612 99.447158 
L 233.336412 102.814926 
L 233.671212 104.951774 
L 234.006012 109.767946 
L 234.340812 111.304655 
L 234.675612 117.897072 
L 235.010413 116.779573 
L 235.680013 101.833109 
L 236.014812 106.219139 
L 236.349612 105.427505 
L 236.684412 101.782911 
L 237.019212 106.73024 
L 237.354012 109.095217 
L 237.688812 107.338892 
L 238.023612 111.065044 
L 238.358412 102.631175 
L 238.693212 106.051165 
L 239.028012 86.603778 
L 239.362812 90.6423 
L 240.032412 92.963632 
L 240.367212 92.772817 
L 240.702012 89.454834 
L 241.036812 91.408004 
L 241.706412 105.843681 
L 242.041213 94.958465 
L 242.710813 100.718705 
L 243.045613 102.109104 
L 243.380413 99.306299 
L 243.715213 100.71285 
L 244.050013 95.235558 
L 244.384813 99.155715 
L 244.719613 106.611191 
L 245.054413 101.86414 
L 245.389212 86.070872 
L 245.724012 85.872298 
L 246.058812 93.918882 
L 246.393612 93.497419 
L 246.728412 90.561357 
L 247.063212 92.805264 
L 247.398012 91.342355 
L 247.732812 96.620032 
L 248.067612 98.477776 
L 248.402412 93.109563 
L 249.072012 99.373991 
L 249.406813 98.249049 
L 249.741613 99.383255 
L 250.076413 82.795345 
L 250.411213 86.687907 
L 250.746013 97.664439 
L 251.080813 94.47266 
L 251.415613 102.436001 
L 251.750413 102.083248 
L 252.085213 95.674808 
L 252.420013 78.392064 
L 252.754813 86.919034 
L 253.089613 87.561706 
L 253.424413 87.431745 
L 253.759213 93.890329 
L 254.094013 91.647732 
L 254.763613 103.744846 
L 255.098412 98.605154 
L 255.433212 97.215287 
L 256.102813 99.633641 
L 256.437613 99.415153 
L 256.772413 84.15633 
L 257.107213 84.007449 
L 257.442013 79.375812 
L 257.776813 91.836754 
L 258.111613 93.851669 
L 258.446413 93.035819 
L 258.781213 94.341055 
L 259.450813 89.627361 
L 259.785613 83.951984 
L 260.120413 91.627037 
L 260.455213 95.151043 
L 260.790013 102.0433 
L 261.124813 99.161242 
L 261.794413 102.936917 
L 262.129213 94.724211 
L 262.464013 81.253007 
L 262.798813 80.543556 
L 263.133613 88.486974 
L 263.468413 89.839349 
L 263.803213 89.057149 
L 264.138013 91.22478 
L 264.807613 92.554904 
L 265.142413 94.740967 
L 265.477213 89.354368 
L 265.812013 90.299672 
L 266.481613 98.678898 
L 266.816413 98.185709 
L 267.151213 98.984074 
L 267.486013 96.58421 
L 267.820813 103.251959 
L 268.155613 89.732999 
L 268.490413 85.728412 
L 268.825213 89.347054 
L 269.160013 94.517155 
L 269.494813 88.634957 
L 270.164413 100.558387 
L 270.499213 93.223322 
L 270.834013 102.18513 
L 271.168813 105.105217 
L 271.838413 98.181392 
L 272.173213 78.911423 
L 272.508013 82.736828 
L 272.842813 91.930486 
L 273.512413 103.071714 
L 274.182012 93.56307 
L 274.516813 93.120749 
L 274.851612 92.978489 
L 275.186413 95.918282 
L 275.521212 96.976889 
L 275.856013 97.175107 
L 276.190812 92.078417 
L 276.525613 95.476913 
L 276.860412 101.099697 
L 277.195213 99.719745 
L 277.864813 107.732014 
L 278.199613 106.337987 
L 278.534413 106.409464 
L 278.869213 105.615074 
L 279.204013 107.167912 
L 279.538813 105.913542 
L 279.873613 96.312307 
L 280.208413 92.513913 
L 280.878013 88.951826 
L 281.212812 94.464155 
L 281.547613 92.381803 
L 281.882412 93.746408 
L 282.217213 100.787892 
L 282.886813 98.738783 
L 283.221612 100.320961 
L 284.226013 109.985443 
L 284.560812 104.294133 
L 285.230412 105.648332 
L 285.565213 103.033471 
L 285.900013 102.625775 
L 286.234813 105.268561 
L 286.569613 105.378364 
L 286.904413 105.611669 
L 287.239213 114.142007 
L 287.574013 104.537728 
L 287.908813 108.288409 
L 288.243613 108.709558 
L 288.578413 107.959442 
L 288.913213 109.128946 
L 289.248013 107.412517 
L 289.582813 102.843684 
L 289.917613 115.053279 
L 290.252412 107.365135 
L 290.587213 108.168594 
L 290.922012 111.379263 
L 291.256813 119.086012 
L 291.591612 116.807111 
L 291.926413 107.498521 
L 292.261212 105.15538 
L 292.596013 105.528177 
L 292.930813 112.000383 
L 293.265613 103.719901 
L 293.600413 103.340547 
L 293.935213 109.127122 
L 294.270013 112.363816 
L 294.939613 110.655193 
L 295.274413 113.468178 
L 295.609213 114.452985 
L 295.944013 121.115738 
L 296.278813 122.801414 
L 296.613613 116.890192 
L 296.948413 120.349565 
L 297.283213 120.536334 
L 297.618013 121.574732 
L 297.952813 112.469227 
L 298.287613 111.059617 
L 298.622413 114.516559 
L 298.957213 115.688491 
L 299.292013 122.492886 
L 299.626813 126.286669 
L 299.961613 128.583962 
L 300.296413 134.015188 
L 300.631213 126.699615 
L 300.966013 122.909702 
L 301.300813 123.735 
L 301.635613 128.446522 
L 301.970413 128.376418 
L 302.305213 121.339834 
L 302.640013 116.909094 
L 302.974813 118.001031 
L 303.309613 125.953066 
L 303.979213 134.618435 
L 304.983613 129.121034 
L 305.318413 131.661419 
L 305.653213 135.398626 
L 305.988013 134.275891 
L 306.322813 131.390854 
L 306.657613 132.101452 
L 306.992413 134.350982 
L 307.327213 139.060773 
L 307.662013 136.97927 
L 307.996813 138.205903 
L 308.331613 137.96371 
L 308.666413 138.394174 
L 309.001213 136.682271 
L 309.670813 142.055265 
L 310.005613 138.544879 
L 310.340413 143.703145 
L 310.675213 145.062191 
L 311.010013 145.697757 
L 311.344813 139.306877 
L 311.679613 147.16305 
L 312.014413 147.745812 
L 312.684013 152.565143 
L 313.018813 147.143124 
L 313.353613 148.649262 
L 313.688413 151.531757 
L 314.023213 151.394457 
L 314.358013 149.154286 
L 314.692813 152.523069 
L 315.027613 148.341412 
L 315.362413 150.803678 
L 315.697213 150.625869 
L 316.032013 152.307486 
L 316.366813 154.90767 
L 316.701613 150.060665 
L 317.036413 154.31852 
L 317.371213 157.029693 
L 317.706013 157.705713 
L 318.040813 156.39676 
L 318.375613 156.122714 
L 318.710413 152.89832 
L 319.045213 155.841279 
L 319.380013 156.307903 
L 319.714812 152.952941 
L 320.049613 157.361655 
L 320.384412 155.954839 
L 320.719213 158.630369 
L 321.054012 154.956757 
L 321.388813 153.137226 
L 321.723613 154.386145 
L 322.058413 153.08017 
L 322.728013 155.609943 
L 323.062813 155.755403 
L 323.732413 163.525599 
L 324.736813 155.992713 
L 325.071613 157.61249 
L 325.406413 161.424456 
L 325.741213 159.42477 
L 326.076013 161.048225 
L 326.410813 160.559847 
L 326.745613 162.682459 
L 327.080413 163.320443 
L 327.415213 163.371917 
L 327.750013 161.172437 
L 328.084813 164.897431 
L 328.419613 158.365789 
L 328.754413 159.097655 
L 329.089213 156.956037 
L 329.424013 156.879418 
L 329.758813 156.20246 
L 330.093613 160.48396 
L 330.428413 162.625864 
L 330.763213 160.98921 
L 331.098013 165.302357 
L 331.432813 164.550593 
L 331.767613 165.615589 
L 332.102413 158.6605 
L 332.437213 159.959454 
L 332.772013 162.708024 
L 333.106813 161.110447 
L 333.441613 163.485043 
L 333.776413 161.859715 
L 334.111213 162.8601 
L 334.446013 160.51865 
L 334.780813 159.61302 
L 335.115613 164.91626 
L 335.450413 164.699941 
L 335.785213 161.435105 
L 336.120013 161.716131 
L 336.454813 166.516234 
L 336.789613 167.78731 
L 337.124413 166.860609 
L 337.459213 157.488067 
L 337.794013 156.758785 
L 338.128813 159.110556 
L 338.463613 167.603584 
L 338.798413 173.017994 
L 339.468013 165.726102 
L 339.802813 168.39187 
L 340.137613 165.84734 
L 340.807213 159.600242 
L 341.142013 158.954271 
L 341.811613 165.464701 
L 342.146413 164.285268 
L 342.816013 170.785995 
L 343.150813 167.221218 
L 343.485613 167.081709 
L 343.820413 163.912122 
L 344.155213 161.864986 
L 344.490013 167.34615 
L 344.824813 163.394762 
L 345.159613 163.187039 
L 345.829213 168.494976 
L 346.164013 169.022291 
L 346.498813 170.997637 
L 346.833613 162.712833 
L 347.168413 161.747055 
L 347.503213 162.352638 
L 347.838013 160.35804 
L 348.172813 165.446882 
L 348.507613 167.071708 
L 348.842413 169.458189 
L 349.177213 167.433504 
L 349.512013 163.895798 
L 349.846813 165.44833 
L 350.181613 167.655002 
L 350.516413 166.132567 
L 350.851213 163.270271 
L 351.520813 164.623721 
L 351.855613 169.112225 
L 352.190413 170.676751 
L 352.525213 166.023799 
L 352.860013 167.681143 
L 353.194813 165.815358 
L 353.529613 168.659423 
L 353.864413 163.425227 
L 354.199213 164.22791 
L 354.534013 164.401492 
L 354.868813 165.572485 
L 355.203613 164.195894 
L 355.538413 165.143739 
L 355.873213 168.558247 
L 356.208013 169.371662 
L 356.542813 174.892973 
L 357.212413 161.420249 
L 357.882013 163.403382 
L 358.216813 165.662411 
L 358.551613 166.29802 
L 358.886413 167.482643 
L 359.556013 174.468886 
L 359.890813 168.611473 
L 360.225613 169.923242 
L 360.560413 167.880322 
L 360.895213 158.725162 
L 361.230013 159.809229 
L 361.564813 161.558265 
L 362.234413 169.179032 
L 362.569213 168.854505 
L 362.904013 166.716601 
L 363.238813 173.750394 
L 363.573613 168.65073 
L 363.908412 167.548706 
L 364.243213 162.298175 
L 364.578012 160.437912 
L 364.912813 161.228588 
L 365.247613 161.581058 
L 365.582413 166.773732 
L 365.917213 166.387856 
L 366.252013 168.477165 
L 366.586813 169.062144 
L 366.921613 171.324041 
L 367.256413 169.650927 
L 367.591213 165.705527 
L 367.926013 159.062203 
L 368.595613 164.262585 
L 368.930413 165.494933 
L 369.265213 167.46149 
L 369.600013 166.649552 
L 369.934813 164.681807 
L 370.269613 166.741704 
L 370.604413 170.087601 
L 370.939213 165.793943 
L 371.608813 162.927405 
L 371.943613 164.540952 
L 372.278413 172.854966 
L 372.613213 165.64815 
L 372.948013 165.666066 
L 372.948013 165.666066 
" clip-path="url(#p6dd31663a8)" style="fill: none; stroke: #1f77b4; stroke-width: 1.5; stroke-linecap: square"/>
   </g>
   <g id="line2d_13">
    <path d="M 38.482813 68.920071 
L 40.156813 69.014404 
L 41.830813 69.297192 
L 43.839613 69.884386 
L 45.848413 70.740152 
L 47.857213 71.861755 
L 49.866013 73.24561 
L 51.874813 74.887291 
L 54.218412 77.121405 
L 56.562013 79.689553 
L 58.905613 82.580561 
L 61.584013 86.263712 
L 64.262413 90.331157 
L 67.275613 95.337524 
L 70.288813 100.764954 
L 73.636812 107.24171 
L 77.319613 114.842096 
L 81.672012 124.358369 
L 87.028813 136.66296 
L 95.398813 156.563863 
L 104.103612 177.088746 
L 109.125612 188.375747 
L 113.478013 197.609075 
L 117.160813 204.915257 
L 120.508813 211.083763 
L 123.522013 216.202878 
L 126.535213 220.873958 
L 129.213613 224.622672 
L 131.892013 227.969496 
L 134.235613 230.553283 
L 136.579213 232.803534 
L 138.588012 234.459394 
L 140.596812 235.857696 
L 142.605613 236.99397 
L 144.614413 237.864585 
L 146.623213 238.466757 
L 148.632013 238.79856 
L 150.306013 238.86774 
L 151.980013 238.748259 
L 153.654013 238.440382 
L 155.662813 237.823238 
L 157.671613 236.937784 
L 159.680412 235.786849 
L 161.689212 234.374113 
L 163.698013 232.704093 
L 166.041613 230.437725 
L 168.385212 227.838324 
L 170.728813 224.917202 
L 173.407213 221.201196 
L 176.085612 217.102741 
L 179.098812 212.063911 
L 182.446812 205.976321 
L 185.794813 199.426451 
L 189.812412 191.038514 
L 194.164813 181.419521 
L 199.521613 169.030033 
L 210.235213 143.509497 
L 216.931213 127.890145 
L 221.618413 117.472918 
L 225.636013 109.041245 
L 229.318813 101.813168 
L 232.666812 95.725578 
L 235.680013 90.686748 
L 238.693212 86.102423 
L 241.371612 82.435753 
L 244.050013 79.175128 
L 246.393612 76.669788 
L 248.737212 74.500448 
L 250.746013 72.915636 
L 252.754813 71.589707 
L 254.763613 70.526898 
L 256.772413 69.730608 
L 258.781213 69.203383 
L 260.455213 68.970806 
L 262.129213 68.926781 
L 263.803213 69.071406 
L 265.477213 69.40436 
L 267.486013 70.051429 
L 269.494813 70.966537 
L 271.503613 72.146757 
L 273.512413 73.588318 
L 275.521212 75.286611 
L 277.864813 77.585145 
L 280.208413 80.215695 
L 282.552012 83.166817 
L 285.230412 86.915531 
L 287.908813 91.044834 
L 290.922012 96.115928 
L 294.270013 102.236066 
L 297.618013 108.81473 
L 301.635613 117.231908 
L 305.988013 126.875634 
L 311.679613 140.074704 
L 331.098013 185.671806 
L 335.450413 195.065338 
L 339.133213 202.536977 
L 342.481213 208.878113 
L 345.829213 214.731213 
L 348.842413 219.538696 
L 351.520813 223.416749 
L 354.199213 226.899764 
L 356.542813 229.607732 
L 358.886413 231.986279 
L 361.230013 234.025057 
L 363.238813 235.495386 
L 365.247613 236.704847 
L 367.256413 237.649572 
L 369.265213 238.326541 
L 371.274013 238.73359 
L 372.948013 238.865643 
L 372.948013 238.865643 
" clip-path="url(#p6dd31663a8)" style="fill: none; stroke: #ff7f0e; stroke-width: 1.5; stroke-linecap: square"/>
   </g>
   <g id="line2d_14">
    <path d="M 38.482813 153.894744 
L 52.879213 142.55479 
L 60.579613 136.776323 
L 66.940813 132.26693 
L 72.632413 128.491354 
L 77.989213 125.201652 
L 83.011212 122.380112 
L 87.698413 119.998583 
L 92.050813 118.0215 
L 96.403213 116.283624 
L 100.755613 114.796544 
L 104.773212 113.65506 
L 108.790812 112.742226 
L 112.808413 112.063228 
L 116.826013 111.621926 
L 120.843613 111.420826 
L 124.861212 111.461071 
L 128.878813 111.742433 
L 132.896413 112.263313 
L 136.914013 113.020751 
L 140.931612 114.010443 
L 144.949213 115.226766 
L 148.966813 116.662807 
L 153.319213 118.456973 
L 157.671613 120.487443 
L 162.358812 122.922809 
L 167.380812 125.797365 
L 172.737613 129.137778 
L 178.429213 132.960072 
L 184.790413 137.512307 
L 192.156013 143.070215 
L 202.200012 150.960568 
L 221.283613 166.004454 
L 228.649213 171.500459 
L 235.010413 175.980399 
L 240.702012 179.724083 
L 246.058812 182.979328 
L 251.080813 185.764966 
L 255.768012 188.110131 
L 260.120413 190.051233 
L 264.472813 191.751238 
L 268.490413 193.096651 
L 272.508013 194.219312 
L 276.525613 195.112839 
L 280.543212 195.772158 
L 284.560812 196.193521 
L 288.578413 196.374533 
L 292.596013 196.314167 
L 296.613613 196.012765 
L 300.631213 195.47204 
L 304.648813 194.695065 
L 308.666413 193.686255 
L 312.684013 192.45134 
L 317.036413 190.866534 
L 321.388813 189.035195 
L 325.741213 186.969534 
L 330.428413 184.498756 
L 335.450413 181.589423 
L 340.807213 178.215861 
L 346.498813 174.363175 
L 352.860013 169.783275 
L 360.225613 164.202139 
L 370.604413 156.029492 
L 372.948013 154.161698 
L 372.948013 154.161698 
" clip-path="url(#p6dd31663a8)" style="fill: none; stroke: #2ca02c; stroke-width: 1.5; stroke-linecap: square"/>
   </g>
   <g id="line2d_15">
    <path d="M 38.482813 68.920071 
L 40.491613 67.454544 
L 42.500413 66.262513 
L 44.509213 65.34495 
L 46.518012 64.701957 
L 48.526813 64.332769 
L 50.200813 64.233125 
L 51.874813 64.32112 
L 53.883612 64.671843 
L 55.892413 65.286297 
L 57.901212 66.159807 
L 59.910013 67.286906 
L 61.918813 68.661352 
L 64.262413 70.568126 
L 66.606013 72.789684 
L 68.949613 75.31241 
L 71.628013 78.545231 
L 74.306412 82.128066 
L 77.319613 86.545026 
L 80.667613 91.886427 
L 84.350413 98.223261 
L 88.368012 105.595984 
L 93.390013 115.325299 
L 100.420813 129.511414 
L 111.134412 151.132811 
L 116.156413 160.757898 
L 120.508813 168.617391 
L 124.191613 174.823701 
L 127.539613 180.0527 
L 130.552813 184.383317 
L 133.566013 188.327107 
L 136.244413 191.486383 
L 138.922812 194.302603 
L 141.266413 196.474254 
L 143.610013 198.364479 
L 145.953613 199.966727 
L 148.297213 201.275886 
L 150.306013 202.161935 
L 152.314813 202.828495 
L 154.323613 203.274912 
L 156.332413 203.50133 
L 158.341213 203.508682 
L 160.350012 203.298688 
L 162.358812 202.873845 
L 164.367613 202.237419 
L 166.376413 201.393431 
L 168.720012 200.152832 
L 171.063613 198.64502 
L 173.407213 196.880079 
L 176.085612 194.562734 
L 178.764013 191.943166 
L 181.777212 188.660728 
L 184.790413 185.054129 
L 188.138413 180.708867 
L 191.821213 175.577157 
L 196.173613 169.132863 
L 201.865212 160.284243 
L 216.931213 136.636699 
L 221.283613 130.307806 
L 224.966413 125.30282 
L 228.314413 121.09457 
L 231.327613 117.627909 
L 234.340812 114.500011 
L 237.019212 112.029084 
L 239.697612 109.870019 
L 242.041213 108.250701 
L 244.384813 106.894429 
L 246.728412 105.810557 
L 248.737212 105.10446 
L 250.746013 104.608689 
L 252.754813 104.326762 
L 254.763613 104.261436 
L 256.772413 104.414689 
L 258.781213 104.787719 
L 260.790013 105.380931 
L 262.798813 106.193938 
L 264.807613 107.225558 
L 267.151213 108.702738 
L 269.494813 110.470263 
L 271.838413 112.522196 
L 274.182012 114.851179 
L 276.860412 117.840831 
L 279.538813 121.16564 
L 282.552012 125.284838 
L 285.565213 129.777967 
L 288.913213 135.170702 
L 292.596013 141.534608 
L 296.613613 148.914407 
L 301.635613 158.636959 
L 308.666413 172.812585 
L 319.714812 195.103593 
L 324.736813 204.69811 
L 328.754413 211.921755 
L 332.437213 218.091047 
L 335.785213 223.255773 
L 338.798413 227.495024 
L 341.476813 230.90596 
L 344.155213 233.954676 
L 346.498813 236.307046 
L 348.842413 238.350314 
L 351.186013 240.071587 
L 353.194813 241.281865 
L 355.203613 242.240552 
L 357.212413 242.941917 
L 359.221213 243.38102 
L 361.230013 243.553724 
L 362.904013 243.491732 
L 364.578012 243.240955 
L 366.252013 242.800329 
L 368.260813 242.020092 
L 370.269613 240.965229 
L 372.278413 239.636274 
L 372.948013 239.132597 
L 372.948013 239.132597 
" clip-path="url(#p6dd31663a8)" style="fill: none; stroke: #d62728; stroke-width: 1.5; stroke-linecap: square"/>
   </g>
   <g id="patch_3">
    <path d="M 38.482813 253.44 
L 38.482813 36 
" style="fill: none; stroke: #000000; stroke-width: 0.8; stroke-linejoin: miter; stroke-linecap: square"/>
   </g>
   <g id="patch_4">
    <path d="M 373.282813 253.44 
L 373.282813 36 
" style="fill: none; stroke: #000000; stroke-width: 0.8; stroke-linejoin: miter; stroke-linecap: square"/>
   </g>
   <g id="patch_5">
    <path d="M 38.482813 253.44 
L 373.282813 253.44 
" style="fill: none; stroke: #000000; stroke-width: 0.8; stroke-linejoin: miter; stroke-linecap: square"/>
   </g>
   <g id="patch_6">
    <path d="M 38.482813 36 
L 373.282813 36 
" style="fill: none; stroke: #000000; stroke-width: 0.8; stroke-linejoin: miter; stroke-linecap: square"/>
   </g>
   <g id="legend_1">
    <g id="patch_7">
     <path d="M 311.082813 102.732812 
L 366.282813 102.732812 
Q 368.282813 102.732812 368.282813 100.732812 
L 368.282813 43 
Q 368.282813 41 366.282813 41 
L 311.082813 41 
Q 309.082813 41 309.082813 43 
L 309.082813 100.732812 
Q 309.082813 102.732812 311.082813 102.732812 
z
" style="fill: #ffffff; opacity: 0.8; stroke: #cccccc; stroke-linejoin: miter"/>
    </g>
    <g id="line2d_16">
     <path d="M 313.082813 49.098437 
L 323.082813 49.098437 
L 333.082813 49.098437 
" style="fill: none; stroke: #1f77b4; stroke-width: 1.5; stroke-linecap: square"/>
    </g>
    <g id="text_12">
     <!-- $\hat{z}$ -->
     <g transform="translate(341.082813 52.598437) scale(0.1 -0.1)">
      <defs>
       <path id="DejaVuSans-302" d="M -1831 5119 
L -1369 5119 
L -603 3944 
L -1038 3944 
L -1600 4709 
L -2163 3944 
L -2597 3944 
L -1831 5119 
z
M -1600 3584 
L -1600 3584 
z
" transform="scale(0.015625)"/>
       <path id="DejaVuSans-Oblique-7a" d="M 744 3500 
L 3475 3500 
L 3372 2975 
L 738 459 
L 2913 459 
L 2822 0 
L -19 0 
L 84 525 
L 2719 3041 
L 653 3041 
L 744 3500 
z
" transform="scale(0.015625)"/>
      </defs>
      <use xlink:href="#DejaVuSans-302" transform="translate(57.700684 12.015625)"/>
      <use xlink:href="#DejaVuSans-Oblique-7a" transform="translate(0 0.828125)"/>
     </g>
    </g>
    <g id="line2d_17">
     <path d="M 313.082813 63.776562 
L 323.082813 63.776562 
L 333.082813 63.776562 
" style="fill: none; stroke: #ff7f0e; stroke-width: 1.5; stroke-linecap: square"/>
    </g>
    <g id="text_13">
     <!-- $x_{ideal}$ -->
     <g transform="translate(341.082813 67.276562) scale(0.1 -0.1)">
      <defs>
       <path id="DejaVuSans-Oblique-78" d="M 3841 3500 
L 2234 1784 
L 3219 0 
L 2559 0 
L 1819 1388 
L 531 0 
L -166 0 
L 1556 1844 
L 641 3500 
L 1300 3500 
L 1972 2234 
L 3144 3500 
L 3841 3500 
z
" transform="scale(0.015625)"/>
       <path id="DejaVuSans-Oblique-69" d="M 1172 4863 
L 1747 4863 
L 1606 4134 
L 1031 4134 
L 1172 4863 
z
M 909 3500 
L 1484 3500 
L 800 0 
L 225 0 
L 909 3500 
z
" transform="scale(0.015625)"/>
       <path id="DejaVuSans-Oblique-64" d="M 2675 525 
Q 2444 222 2128 65 
Q 1813 -91 1428 -91 
Q 903 -91 598 267 
Q 294 625 294 1247 
Q 294 1766 478 2236 
Q 663 2706 1013 3078 
Q 1244 3325 1534 3454 
Q 1825 3584 2144 3584 
Q 2481 3584 2739 3421 
Q 2997 3259 3138 2956 
L 3513 4863 
L 4091 4863 
L 3144 0 
L 2566 0 
L 2675 525 
z
M 891 1350 
Q 891 897 1095 644 
Q 1300 391 1663 391 
Q 1931 391 2161 520 
Q 2391 650 2566 903 
Q 2750 1166 2856 1509 
Q 2963 1853 2963 2188 
Q 2963 2622 2758 2865 
Q 2553 3109 2194 3109 
Q 1922 3109 1687 2981 
Q 1453 2853 1288 2613 
Q 1106 2353 998 2009 
Q 891 1666 891 1350 
z
" transform="scale(0.015625)"/>
       <path id="DejaVuSans-Oblique-65" d="M 3078 2063 
Q 3088 2113 3092 2166 
Q 3097 2219 3097 2272 
Q 3097 2653 2873 2875 
Q 2650 3097 2266 3097 
Q 1838 3097 1509 2826 
Q 1181 2556 1013 2059 
L 3078 2063 
z
M 3578 1613 
L 903 1613 
Q 884 1494 878 1425 
Q 872 1356 872 1306 
Q 872 872 1139 634 
Q 1406 397 1894 397 
Q 2269 397 2603 481 
Q 2938 566 3225 728 
L 3116 159 
Q 2806 34 2476 -28 
Q 2147 -91 1806 -91 
Q 1078 -91 686 257 
Q 294 606 294 1247 
Q 294 1794 489 2264 
Q 684 2734 1063 3103 
Q 1306 3334 1642 3459 
Q 1978 3584 2356 3584 
Q 2950 3584 3301 3228 
Q 3653 2872 3653 2272 
Q 3653 2128 3634 1964 
Q 3616 1800 3578 1613 
z
" transform="scale(0.015625)"/>
       <path id="DejaVuSans-Oblique-61" d="M 3438 1997 
L 3047 0 
L 2472 0 
L 2578 531 
Q 2325 219 2001 64 
Q 1678 -91 1281 -91 
Q 834 -91 548 182 
Q 263 456 263 884 
Q 263 1497 752 1853 
Q 1241 2209 2100 2209 
L 2900 2209 
L 2931 2363 
Q 2938 2388 2941 2417 
Q 2944 2447 2944 2509 
Q 2944 2788 2717 2942 
Q 2491 3097 2081 3097 
Q 1800 3097 1504 3025 
Q 1209 2953 897 2809 
L 997 3341 
Q 1322 3463 1633 3523 
Q 1944 3584 2234 3584 
Q 2853 3584 3176 3315 
Q 3500 3047 3500 2534 
Q 3500 2431 3484 2292 
Q 3469 2153 3438 1997 
z
M 2816 1759 
L 2241 1759 
Q 1534 1759 1195 1570 
Q 856 1381 856 984 
Q 856 709 1029 553 
Q 1203 397 1509 397 
Q 1978 397 2328 733 
Q 2678 1069 2791 1631 
L 2816 1759 
z
" transform="scale(0.015625)"/>
       <path id="DejaVuSans-Oblique-6c" d="M 1172 4863 
L 1747 4863 
L 800 0 
L 225 0 
L 1172 4863 
z
" transform="scale(0.015625)"/>
      </defs>
      <use xlink:href="#DejaVuSans-Oblique-78" transform="translate(0 0.3125)"/>
      <use xlink:href="#DejaVuSans-Oblique-69" transform="translate(59.179688 -16.09375) scale(0.7)"/>
      <use xlink:href="#DejaVuSans-Oblique-64" transform="translate(78.62793 -16.09375) scale(0.7)"/>
      <use xlink:href="#DejaVuSans-Oblique-65" transform="translate(123.061523 -16.09375) scale(0.7)"/>
      <use xlink:href="#DejaVuSans-Oblique-61" transform="translate(166.12793 -16.09375) scale(0.7)"/>
      <use xlink:href="#DejaVuSans-Oblique-6c" transform="translate(209.023438 -16.09375) scale(0.7)"/>
     </g>
    </g>
    <g id="line2d_18">
     <path d="M 313.082813 78.454687 
L 323.082813 78.454687 
L 333.082813 78.454687 
" style="fill: none; stroke: #2ca02c; stroke-width: 1.5; stroke-linecap: square"/>
    </g>
    <g id="text_14">
     <!-- $y_{ideal}$ -->
     <g transform="translate(341.082813 81.954687) scale(0.1 -0.1)">
      <defs>
       <path id="DejaVuSans-Oblique-79" d="M 1588 -325 
Q 1188 -997 936 -1164 
Q 684 -1331 294 -1331 
L -159 -1331 
L -63 -850 
L 269 -850 
Q 509 -850 678 -719 
Q 847 -588 1056 -206 
L 1234 128 
L 459 3500 
L 1069 3500 
L 1650 819 
L 3256 3500 
L 3859 3500 
L 1588 -325 
z
" transform="scale(0.015625)"/>
      </defs>
      <use xlink:href="#DejaVuSans-Oblique-79" transform="translate(0 0.3125)"/>
      <use xlink:href="#DejaVuSans-Oblique-69" transform="translate(59.179688 -16.09375) scale(0.7)"/>
      <use xlink:href="#DejaVuSans-Oblique-64" transform="translate(78.62793 -16.09375) scale(0.7)"/>
      <use xlink:href="#DejaVuSans-Oblique-65" transform="translate(123.061523 -16.09375) scale(0.7)"/>
      <use xlink:href="#DejaVuSans-Oblique-61" transform="translate(166.12793 -16.09375) scale(0.7)"/>
      <use xlink:href="#DejaVuSans-Oblique-6c" transform="translate(209.023438 -16.09375) scale(0.7)"/>
     </g>
    </g>
    <g id="line2d_19">
     <path d="M 313.082813 93.153125 
L 323.082813 93.153125 
L 333.082813 93.153125 
" style="fill: none; stroke: #d62728; stroke-width: 1.5; stroke-linecap: square"/>
    </g>
    <g id="text_15">
     <!-- $z_{ideal}$ -->
     <g transform="translate(341.082813 96.653125) scale(0.1 -0.1)">
      <use xlink:href="#DejaVuSans-Oblique-7a" transform="translate(0 0.3125)"/>
      <use xlink:href="#DejaVuSans-Oblique-69" transform="translate(52.490234 -16.09375) scale(0.7)"/>
      <use xlink:href="#DejaVuSans-Oblique-64" transform="translate(71.938477 -16.09375) scale(0.7)"/>
      <use xlink:href="#DejaVuSans-Oblique-65" transform="translate(116.37207 -16.09375) scale(0.7)"/>
      <use xlink:href="#DejaVuSans-Oblique-61" transform="translate(159.438477 -16.09375) scale(0.7)"/>
      <use xlink:href="#DejaVuSans-Oblique-6c" transform="translate(202.333984 -16.09375) scale(0.7)"/>
     </g>
    </g>
   </g>
  </g>
  <g id="text_16">
   <!-- Decoded $\hat{z}$ and inputs $x,y$ with ideal output $z$ -->
   <g transform="translate(65.242812 18.24) scale(0.12 -0.12)">
    <defs>
     <path id="DejaVuSans-44" d="M 1259 4147 
L 1259 519 
L 2022 519 
Q 2988 519 3436 956 
Q 3884 1394 3884 2338 
Q 3884 3275 3436 3711 
Q 2988 4147 2022 4147 
L 1259 4147 
z
M 628 4666 
L 1925 4666 
Q 3281 4666 3915 4102 
Q 4550 3538 4550 2338 
Q 4550 1131 3912 565 
Q 3275 0 1925 0 
L 628 0 
L 628 4666 
z
" transform="scale(0.015625)"/>
     <path id="DejaVuSans-65" d="M 3597 1894 
L 3597 1613 
L 953 1613 
Q 991 1019 1311 708 
Q 1631 397 2203 397 
Q 2534 397 2845 478 
Q 3156 559 3463 722 
L 3463 178 
Q 3153 47 2828 -22 
Q 2503 -91 2169 -91 
Q 1331 -91 842 396 
Q 353 884 353 1716 
Q 353 2575 817 3079 
Q 1281 3584 2069 3584 
Q 2775 3584 3186 3129 
Q 3597 2675 3597 1894 
z
M 3022 2063 
Q 3016 2534 2758 2815 
Q 2500 3097 2075 3097 
Q 1594 3097 1305 2825 
Q 1016 2553 972 2059 
L 3022 2063 
z
" transform="scale(0.015625)"/>
     <path id="DejaVuSans-63" d="M 3122 3366 
L 3122 2828 
Q 2878 2963 2633 3030 
Q 2388 3097 2138 3097 
Q 1578 3097 1268 2742 
Q 959 2388 959 1747 
Q 959 1106 1268 751 
Q 1578 397 2138 397 
Q 2388 397 2633 464 
Q 2878 531 3122 666 
L 3122 134 
Q 2881 22 2623 -34 
Q 2366 -91 2075 -91 
Q 1284 -91 818 406 
Q 353 903 353 1747 
Q 353 2603 823 3093 
Q 1294 3584 2113 3584 
Q 2378 3584 2631 3529 
Q 2884 3475 3122 3366 
z
" transform="scale(0.015625)"/>
     <path id="DejaVuSans-6f" d="M 1959 3097 
Q 1497 3097 1228 2736 
Q 959 2375 959 1747 
Q 959 1119 1226 758 
Q 1494 397 1959 397 
Q 2419 397 2687 759 
Q 2956 1122 2956 1747 
Q 2956 2369 2687 2733 
Q 2419 3097 1959 3097 
z
M 1959 3584 
Q 2709 3584 3137 3096 
Q 3566 2609 3566 1747 
Q 3566 888 3137 398 
Q 2709 -91 1959 -91 
Q 1206 -91 779 398 
Q 353 888 353 1747 
Q 353 2609 779 3096 
Q 1206 3584 1959 3584 
z
" transform="scale(0.015625)"/>
     <path id="DejaVuSans-64" d="M 2906 2969 
L 2906 4863 
L 3481 4863 
L 3481 0 
L 2906 0 
L 2906 525 
Q 2725 213 2448 61 
Q 2172 -91 1784 -91 
Q 1150 -91 751 415 
Q 353 922 353 1747 
Q 353 2572 751 3078 
Q 1150 3584 1784 3584 
Q 2172 3584 2448 3432 
Q 2725 3281 2906 2969 
z
M 947 1747 
Q 947 1113 1208 752 
Q 1469 391 1925 391 
Q 2381 391 2643 752 
Q 2906 1113 2906 1747 
Q 2906 2381 2643 2742 
Q 2381 3103 1925 3103 
Q 1469 3103 1208 2742 
Q 947 2381 947 1747 
z
" transform="scale(0.015625)"/>
     <path id="DejaVuSans-20" transform="scale(0.015625)"/>
     <path id="DejaVuSans-61" d="M 2194 1759 
Q 1497 1759 1228 1600 
Q 959 1441 959 1056 
Q 959 750 1161 570 
Q 1363 391 1709 391 
Q 2188 391 2477 730 
Q 2766 1069 2766 1631 
L 2766 1759 
L 2194 1759 
z
M 3341 1997 
L 3341 0 
L 2766 0 
L 2766 531 
Q 2569 213 2275 61 
Q 1981 -91 1556 -91 
Q 1019 -91 701 211 
Q 384 513 384 1019 
Q 384 1609 779 1909 
Q 1175 2209 1959 2209 
L 2766 2209 
L 2766 2266 
Q 2766 2663 2505 2880 
Q 2244 3097 1772 3097 
Q 1472 3097 1187 3025 
Q 903 2953 641 2809 
L 641 3341 
Q 956 3463 1253 3523 
Q 1550 3584 1831 3584 
Q 2591 3584 2966 3190 
Q 3341 2797 3341 1997 
z
" transform="scale(0.015625)"/>
     <path id="DejaVuSans-6e" d="M 3513 2113 
L 3513 0 
L 2938 0 
L 2938 2094 
Q 2938 2591 2744 2837 
Q 2550 3084 2163 3084 
Q 1697 3084 1428 2787 
Q 1159 2491 1159 1978 
L 1159 0 
L 581 0 
L 581 3500 
L 1159 3500 
L 1159 2956 
Q 1366 3272 1645 3428 
Q 1925 3584 2291 3584 
Q 2894 3584 3203 3211 
Q 3513 2838 3513 2113 
z
" transform="scale(0.015625)"/>
     <path id="DejaVuSans-69" d="M 603 3500 
L 1178 3500 
L 1178 0 
L 603 0 
L 603 3500 
z
M 603 4863 
L 1178 4863 
L 1178 4134 
L 603 4134 
L 603 4863 
z
" transform="scale(0.015625)"/>
     <path id="DejaVuSans-70" d="M 1159 525 
L 1159 -1331 
L 581 -1331 
L 581 3500 
L 1159 3500 
L 1159 2969 
Q 1341 3281 1617 3432 
Q 1894 3584 2278 3584 
Q 2916 3584 3314 3078 
Q 3713 2572 3713 1747 
Q 3713 922 3314 415 
Q 2916 -91 2278 -91 
Q 1894 -91 1617 61 
Q 1341 213 1159 525 
z
M 3116 1747 
Q 3116 2381 2855 2742 
Q 2594 3103 2138 3103 
Q 1681 3103 1420 2742 
Q 1159 2381 1159 1747 
Q 1159 1113 1420 752 
Q 1681 391 2138 391 
Q 2594 391 2855 752 
Q 3116 1113 3116 1747 
z
" transform="scale(0.015625)"/>
     <path id="DejaVuSans-75" d="M 544 1381 
L 544 3500 
L 1119 3500 
L 1119 1403 
Q 1119 906 1312 657 
Q 1506 409 1894 409 
Q 2359 409 2629 706 
Q 2900 1003 2900 1516 
L 2900 3500 
L 3475 3500 
L 3475 0 
L 2900 0 
L 2900 538 
Q 2691 219 2414 64 
Q 2138 -91 1772 -91 
Q 1169 -91 856 284 
Q 544 659 544 1381 
z
M 1991 3584 
L 1991 3584 
z
" transform="scale(0.015625)"/>
     <path id="DejaVuSans-74" d="M 1172 4494 
L 1172 3500 
L 2356 3500 
L 2356 3053 
L 1172 3053 
L 1172 1153 
Q 1172 725 1289 603 
Q 1406 481 1766 481 
L 2356 481 
L 2356 0 
L 1766 0 
Q 1100 0 847 248 
Q 594 497 594 1153 
L 594 3053 
L 172 3053 
L 172 3500 
L 594 3500 
L 594 4494 
L 1172 4494 
z
" transform="scale(0.015625)"/>
     <path id="DejaVuSans-73" d="M 2834 3397 
L 2834 2853 
Q 2591 2978 2328 3040 
Q 2066 3103 1784 3103 
Q 1356 3103 1142 2972 
Q 928 2841 928 2578 
Q 928 2378 1081 2264 
Q 1234 2150 1697 2047 
L 1894 2003 
Q 2506 1872 2764 1633 
Q 3022 1394 3022 966 
Q 3022 478 2636 193 
Q 2250 -91 1575 -91 
Q 1294 -91 989 -36 
Q 684 19 347 128 
L 347 722 
Q 666 556 975 473 
Q 1284 391 1588 391 
Q 1994 391 2212 530 
Q 2431 669 2431 922 
Q 2431 1156 2273 1281 
Q 2116 1406 1581 1522 
L 1381 1569 
Q 847 1681 609 1914 
Q 372 2147 372 2553 
Q 372 3047 722 3315 
Q 1072 3584 1716 3584 
Q 2034 3584 2315 3537 
Q 2597 3491 2834 3397 
z
" transform="scale(0.015625)"/>
     <path id="DejaVuSans-2c" d="M 750 794 
L 1409 794 
L 1409 256 
L 897 -744 
L 494 -744 
L 750 256 
L 750 794 
z
" transform="scale(0.015625)"/>
     <path id="DejaVuSans-77" d="M 269 3500 
L 844 3500 
L 1563 769 
L 2278 3500 
L 2956 3500 
L 3675 769 
L 4391 3500 
L 4966 3500 
L 4050 0 
L 3372 0 
L 2619 2869 
L 1863 0 
L 1184 0 
L 269 3500 
z
" transform="scale(0.015625)"/>
     <path id="DejaVuSans-68" d="M 3513 2113 
L 3513 0 
L 2938 0 
L 2938 2094 
Q 2938 2591 2744 2837 
Q 2550 3084 2163 3084 
Q 1697 3084 1428 2787 
Q 1159 2491 1159 1978 
L 1159 0 
L 581 0 
L 581 4863 
L 1159 4863 
L 1159 2956 
Q 1366 3272 1645 3428 
Q 1925 3584 2291 3584 
Q 2894 3584 3203 3211 
Q 3513 2838 3513 2113 
z
" transform="scale(0.015625)"/>
     <path id="DejaVuSans-6c" d="M 603 4863 
L 1178 4863 
L 1178 0 
L 603 0 
L 603 4863 
z
" transform="scale(0.015625)"/>
    </defs>
    <use xlink:href="#DejaVuSans-44" transform="translate(0 0.828125)"/>
    <use xlink:href="#DejaVuSans-65" transform="translate(77.001953 0.828125)"/>
    <use xlink:href="#DejaVuSans-63" transform="translate(138.525391 0.828125)"/>
    <use xlink:href="#DejaVuSans-6f" transform="translate(193.505859 0.828125)"/>
    <use xlink:href="#DejaVuSans-64" transform="translate(254.6875 0.828125)"/>
    <use xlink:href="#DejaVuSans-65" transform="translate(318.164062 0.828125)"/>
    <use xlink:href="#DejaVuSans-64" transform="translate(379.6875 0.828125)"/>
    <use xlink:href="#DejaVuSans-20" transform="translate(443.164062 0.828125)"/>
    <use xlink:href="#DejaVuSans-302" transform="translate(532.651855 12.015625)"/>
    <use xlink:href="#DejaVuSans-Oblique-7a" transform="translate(474.951172 0.828125)"/>
    <use xlink:href="#DejaVuSans-20" transform="translate(527.441406 0.828125)"/>
    <use xlink:href="#DejaVuSans-61" transform="translate(559.228516 0.828125)"/>
    <use xlink:href="#DejaVuSans-6e" transform="translate(620.507812 0.828125)"/>
    <use xlink:href="#DejaVuSans-64" transform="translate(683.886719 0.828125)"/>
    <use xlink:href="#DejaVuSans-20" transform="translate(747.363281 0.828125)"/>
    <use xlink:href="#DejaVuSans-69" transform="translate(779.150391 0.828125)"/>
    <use xlink:href="#DejaVuSans-6e" transform="translate(806.933594 0.828125)"/>
    <use xlink:href="#DejaVuSans-70" transform="translate(870.3125 0.828125)"/>
    <use xlink:href="#DejaVuSans-75" transform="translate(933.789062 0.828125)"/>
    <use xlink:href="#DejaVuSans-74" transform="translate(997.167969 0.828125)"/>
    <use xlink:href="#DejaVuSans-73" transform="translate(1036.376953 0.828125)"/>
    <use xlink:href="#DejaVuSans-20" transform="translate(1088.476562 0.828125)"/>
    <use xlink:href="#DejaVuSans-Oblique-78" transform="translate(1120.263672 0.828125)"/>
    <use xlink:href="#DejaVuSans-2c" transform="translate(1179.443359 0.828125)"/>
    <use xlink:href="#DejaVuSans-Oblique-79" transform="translate(1230.712891 0.828125)"/>
    <use xlink:href="#DejaVuSans-20" transform="translate(1289.892578 0.828125)"/>
    <use xlink:href="#DejaVuSans-77" transform="translate(1321.679688 0.828125)"/>
    <use xlink:href="#DejaVuSans-69" transform="translate(1403.466797 0.828125)"/>
    <use xlink:href="#DejaVuSans-74" transform="translate(1431.25 0.828125)"/>
    <use xlink:href="#DejaVuSans-68" transform="translate(1470.458984 0.828125)"/>
    <use xlink:href="#DejaVuSans-20" transform="translate(1533.837891 0.828125)"/>
    <use xlink:href="#DejaVuSans-69" transform="translate(1565.625 0.828125)"/>
    <use xlink:href="#DejaVuSans-64" transform="translate(1593.408203 0.828125)"/>
    <use xlink:href="#DejaVuSans-65" transform="translate(1656.884766 0.828125)"/>
    <use xlink:href="#DejaVuSans-61" transform="translate(1718.408203 0.828125)"/>
    <use xlink:href="#DejaVuSans-6c" transform="translate(1779.6875 0.828125)"/>
    <use xlink:href="#DejaVuSans-20" transform="translate(1807.470703 0.828125)"/>
    <use xlink:href="#DejaVuSans-6f" transform="translate(1839.257812 0.828125)"/>
    <use xlink:href="#DejaVuSans-75" transform="translate(1900.439453 0.828125)"/>
    <use xlink:href="#DejaVuSans-74" transform="translate(1963.818359 0.828125)"/>
    <use xlink:href="#DejaVuSans-70" transform="translate(2003.027344 0.828125)"/>
    <use xlink:href="#DejaVuSans-75" transform="translate(2066.503906 0.828125)"/>
    <use xlink:href="#DejaVuSans-74" transform="translate(2129.882812 0.828125)"/>
    <use xlink:href="#DejaVuSans-20" transform="translate(2169.091797 0.828125)"/>
    <use xlink:href="#DejaVuSans-Oblique-7a" transform="translate(2200.878906 0.828125)"/>
   </g>
  </g>
 </g>
 <defs>
  <clipPath id="p6dd31663a8">
   <rect x="38.482813" y="36" width="334.8" height="217.44"/>
  </clipPath>
 </defs>
</svg>
