<?xml version="1.0" encoding="utf-8" standalone="no"?>
<!DOCTYPE svg PUBLIC "-//W3C//DTD SVG 1.1//EN"
  "http://www.w3.org/Graphics/SVG/1.1/DTD/svg11.dtd">
<svg xmlns:xlink="http://www.w3.org/1999/xlink" width="388.434375pt" height="248.518125pt" viewBox="0 0 388.434375 248.518125" xmlns="http://www.w3.org/2000/svg" version="1.1">
 <metadata>
  <rdf:RDF xmlns:dc="http://purl.org/dc/elements/1.1/" xmlns:cc="http://creativecommons.org/ns#" xmlns:rdf="http://www.w3.org/1999/02/22-rdf-syntax-ns#">
   <cc:Work>
    <dc:type rdf:resource="http://purl.org/dc/dcmitype/StillImage"/>
    <dc:date>2022-10-30T22:31:08.570285</dc:date>
    <dc:format>image/svg+xml</dc:format>
    <dc:creator>
     <cc:Agent>
      <dc:title>Matplotlib v3.6.0, https://matplotlib.org/</dc:title>
     </cc:Agent>
    </dc:creator>
   </cc:Work>
  </rdf:RDF>
 </metadata>
 <defs>
  <style type="text/css">*{stroke-linejoin: round; stroke-linecap: butt}</style>
 </defs>
 <g id="figure_1">
  <g id="patch_1">
   <path d="M -0 248.518125 
L 388.434375 248.518125 
L 388.434375 0 
L -0 0 
L -0 248.518125 
z
" style="fill: none"/>
  </g>
  <g id="axes_1">
   <g id="patch_2">
    <path d="M 38.482813 224.64 
L 373.282813 224.64 
L 373.282813 7.2 
L 38.482813 7.2 
z
" style="fill: #ffffff"/>
   </g>
   <g id="matplotlib.axis_1">
    <g id="xtick_1">
     <g id="line2d_1">
      <defs>
       <path id="m472a510c88" d="M 0 0 
L 0 3.5 
" style="stroke: #000000; stroke-width: 0.8"/>
      </defs>
      <g>
       <use xlink:href="#m472a510c88" x="38.482813" y="224.64" style="stroke: #000000; stroke-width: 0.8"/>
      </g>
     </g>
     <g id="text_1">
      <!-- −1.0 -->
      <g transform="translate(26.341406 239.238437) scale(0.1 -0.1)">
       <defs>
        <path id="DejaVuSans-2212" d="M 678 2272 
L 4684 2272 
L 4684 1741 
L 678 1741 
L 678 2272 
z
" transform="scale(0.015625)"/>
        <path id="DejaVuSans-31" d="M 794 531 
L 1825 531 
L 1825 4091 
L 703 3866 
L 703 4441 
L 1819 4666 
L 2450 4666 
L 2450 531 
L 3481 531 
L 3481 0 
L 794 0 
L 794 531 
z
" transform="scale(0.015625)"/>
        <path id="DejaVuSans-2e" d="M 684 794 
L 1344 794 
L 1344 0 
L 684 0 
L 684 794 
z
" transform="scale(0.015625)"/>
        <path id="DejaVuSans-30" d="M 2034 4250 
Q 1547 4250 1301 3770 
Q 1056 3291 1056 2328 
Q 1056 1369 1301 889 
Q 1547 409 2034 409 
Q 2525 409 2770 889 
Q 3016 1369 3016 2328 
Q 3016 3291 2770 3770 
Q 2525 4250 2034 4250 
z
M 2034 4750 
Q 2819 4750 3233 4129 
Q 3647 3509 3647 2328 
Q 3647 1150 3233 529 
Q 2819 -91 2034 -91 
Q 1250 -91 836 529 
Q 422 1150 422 2328 
Q 422 3509 836 4129 
Q 1250 4750 2034 4750 
z
" transform="scale(0.015625)"/>
       </defs>
       <use xlink:href="#DejaVuSans-2212"/>
       <use xlink:href="#DejaVuSans-31" x="83.789062"/>
       <use xlink:href="#DejaVuSans-2e" x="147.412109"/>
       <use xlink:href="#DejaVuSans-30" x="179.199219"/>
      </g>
     </g>
    </g>
    <g id="xtick_2">
     <g id="line2d_2">
      <g>
       <use xlink:href="#m472a510c88" x="105.442813" y="224.64" style="stroke: #000000; stroke-width: 0.8"/>
      </g>
     </g>
     <g id="text_2">
      <!-- −0.8 -->
      <g transform="translate(93.301406 239.238437) scale(0.1 -0.1)">
       <defs>
        <path id="DejaVuSans-38" d="M 2034 2216 
Q 1584 2216 1326 1975 
Q 1069 1734 1069 1313 
Q 1069 891 1326 650 
Q 1584 409 2034 409 
Q 2484 409 2743 651 
Q 3003 894 3003 1313 
Q 3003 1734 2745 1975 
Q 2488 2216 2034 2216 
z
M 1403 2484 
Q 997 2584 770 2862 
Q 544 3141 544 3541 
Q 544 4100 942 4425 
Q 1341 4750 2034 4750 
Q 2731 4750 3128 4425 
Q 3525 4100 3525 3541 
Q 3525 3141 3298 2862 
Q 3072 2584 2669 2484 
Q 3125 2378 3379 2068 
Q 3634 1759 3634 1313 
Q 3634 634 3220 271 
Q 2806 -91 2034 -91 
Q 1263 -91 848 271 
Q 434 634 434 1313 
Q 434 1759 690 2068 
Q 947 2378 1403 2484 
z
M 1172 3481 
Q 1172 3119 1398 2916 
Q 1625 2713 2034 2713 
Q 2441 2713 2670 2916 
Q 2900 3119 2900 3481 
Q 2900 3844 2670 4047 
Q 2441 4250 2034 4250 
Q 1625 4250 1398 4047 
Q 1172 3844 1172 3481 
z
" transform="scale(0.015625)"/>
       </defs>
       <use xlink:href="#DejaVuSans-2212"/>
       <use xlink:href="#DejaVuSans-30" x="83.789062"/>
       <use xlink:href="#DejaVuSans-2e" x="147.412109"/>
       <use xlink:href="#DejaVuSans-38" x="179.199219"/>
      </g>
     </g>
    </g>
    <g id="xtick_3">
     <g id="line2d_3">
      <g>
       <use xlink:href="#m472a510c88" x="172.402813" y="224.64" style="stroke: #000000; stroke-width: 0.8"/>
      </g>
     </g>
     <g id="text_3">
      <!-- −0.6 -->
      <g transform="translate(160.261406 239.238437) scale(0.1 -0.1)">
       <defs>
        <path id="DejaVuSans-36" d="M 2113 2584 
Q 1688 2584 1439 2293 
Q 1191 2003 1191 1497 
Q 1191 994 1439 701 
Q 1688 409 2113 409 
Q 2538 409 2786 701 
Q 3034 994 3034 1497 
Q 3034 2003 2786 2293 
Q 2538 2584 2113 2584 
z
M 3366 4563 
L 3366 3988 
Q 3128 4100 2886 4159 
Q 2644 4219 2406 4219 
Q 1781 4219 1451 3797 
Q 1122 3375 1075 2522 
Q 1259 2794 1537 2939 
Q 1816 3084 2150 3084 
Q 2853 3084 3261 2657 
Q 3669 2231 3669 1497 
Q 3669 778 3244 343 
Q 2819 -91 2113 -91 
Q 1303 -91 875 529 
Q 447 1150 447 2328 
Q 447 3434 972 4092 
Q 1497 4750 2381 4750 
Q 2619 4750 2861 4703 
Q 3103 4656 3366 4563 
z
" transform="scale(0.015625)"/>
       </defs>
       <use xlink:href="#DejaVuSans-2212"/>
       <use xlink:href="#DejaVuSans-30" x="83.789062"/>
       <use xlink:href="#DejaVuSans-2e" x="147.412109"/>
       <use xlink:href="#DejaVuSans-36" x="179.199219"/>
      </g>
     </g>
    </g>
    <g id="xtick_4">
     <g id="line2d_4">
      <g>
       <use xlink:href="#m472a510c88" x="239.362813" y="224.64" style="stroke: #000000; stroke-width: 0.8"/>
      </g>
     </g>
     <g id="text_4">
      <!-- −0.4 -->
      <g transform="translate(227.221406 239.238437) scale(0.1 -0.1)">
       <defs>
        <path id="DejaVuSans-34" d="M 2419 4116 
L 825 1625 
L 2419 1625 
L 2419 4116 
z
M 2253 4666 
L 3047 4666 
L 3047 1625 
L 3713 1625 
L 3713 1100 
L 3047 1100 
L 3047 0 
L 2419 0 
L 2419 1100 
L 313 1100 
L 313 1709 
L 2253 4666 
z
" transform="scale(0.015625)"/>
       </defs>
       <use xlink:href="#DejaVuSans-2212"/>
       <use xlink:href="#DejaVuSans-30" x="83.789062"/>
       <use xlink:href="#DejaVuSans-2e" x="147.412109"/>
       <use xlink:href="#DejaVuSans-34" x="179.199219"/>
      </g>
     </g>
    </g>
    <g id="xtick_5">
     <g id="line2d_5">
      <g>
       <use xlink:href="#m472a510c88" x="306.322813" y="224.64" style="stroke: #000000; stroke-width: 0.8"/>
      </g>
     </g>
     <g id="text_5">
      <!-- −0.2 -->
      <g transform="translate(294.181406 239.238437) scale(0.1 -0.1)">
       <defs>
        <path id="DejaVuSans-32" d="M 1228 531 
L 3431 531 
L 3431 0 
L 469 0 
L 469 531 
Q 828 903 1448 1529 
Q 2069 2156 2228 2338 
Q 2531 2678 2651 2914 
Q 2772 3150 2772 3378 
Q 2772 3750 2511 3984 
Q 2250 4219 1831 4219 
Q 1534 4219 1204 4116 
Q 875 4013 500 3803 
L 500 4441 
Q 881 4594 1212 4672 
Q 1544 4750 1819 4750 
Q 2544 4750 2975 4387 
Q 3406 4025 3406 3419 
Q 3406 3131 3298 2873 
Q 3191 2616 2906 2266 
Q 2828 2175 2409 1742 
Q 1991 1309 1228 531 
z
" transform="scale(0.015625)"/>
       </defs>
       <use xlink:href="#DejaVuSans-2212"/>
       <use xlink:href="#DejaVuSans-30" x="83.789062"/>
       <use xlink:href="#DejaVuSans-2e" x="147.412109"/>
       <use xlink:href="#DejaVuSans-32" x="179.199219"/>
      </g>
     </g>
    </g>
    <g id="xtick_6">
     <g id="line2d_6">
      <g>
       <use xlink:href="#m472a510c88" x="373.282813" y="224.64" style="stroke: #000000; stroke-width: 0.8"/>
      </g>
     </g>
     <g id="text_6">
      <!-- 0.0 -->
      <g transform="translate(365.33125 239.238437) scale(0.1 -0.1)">
       <use xlink:href="#DejaVuSans-30"/>
       <use xlink:href="#DejaVuSans-2e" x="63.623047"/>
       <use xlink:href="#DejaVuSans-30" x="95.410156"/>
      </g>
     </g>
    </g>
   </g>
   <g id="matplotlib.axis_2">
    <g id="ytick_1">
     <g id="line2d_7">
      <defs>
       <path id="mbff6d34c6d" d="M 0 0 
L -3.5 0 
" style="stroke: #000000; stroke-width: 0.8"/>
      </defs>
      <g>
       <use xlink:href="#mbff6d34c6d" x="38.482813" y="214.756364" style="stroke: #000000; stroke-width: 0.8"/>
      </g>
     </g>
     <g id="text_7">
      <!-- −2.0 -->
      <g transform="translate(7.2 218.555582) scale(0.1 -0.1)">
       <use xlink:href="#DejaVuSans-2212"/>
       <use xlink:href="#DejaVuSans-32" x="83.789062"/>
       <use xlink:href="#DejaVuSans-2e" x="147.412109"/>
       <use xlink:href="#DejaVuSans-30" x="179.199219"/>
      </g>
     </g>
    </g>
    <g id="ytick_2">
     <g id="line2d_8">
      <g>
       <use xlink:href="#mbff6d34c6d" x="38.482813" y="181.810909" style="stroke: #000000; stroke-width: 0.8"/>
      </g>
     </g>
     <g id="text_8">
      <!-- −1.5 -->
      <g transform="translate(7.2 185.610128) scale(0.1 -0.1)">
       <defs>
        <path id="DejaVuSans-35" d="M 691 4666 
L 3169 4666 
L 3169 4134 
L 1269 4134 
L 1269 2991 
Q 1406 3038 1543 3061 
Q 1681 3084 1819 3084 
Q 2600 3084 3056 2656 
Q 3513 2228 3513 1497 
Q 3513 744 3044 326 
Q 2575 -91 1722 -91 
Q 1428 -91 1123 -41 
Q 819 9 494 109 
L 494 744 
Q 775 591 1075 516 
Q 1375 441 1709 441 
Q 2250 441 2565 725 
Q 2881 1009 2881 1497 
Q 2881 1984 2565 2268 
Q 2250 2553 1709 2553 
Q 1456 2553 1204 2497 
Q 953 2441 691 2322 
L 691 4666 
z
" transform="scale(0.015625)"/>
       </defs>
       <use xlink:href="#DejaVuSans-2212"/>
       <use xlink:href="#DejaVuSans-31" x="83.789062"/>
       <use xlink:href="#DejaVuSans-2e" x="147.412109"/>
       <use xlink:href="#DejaVuSans-35" x="179.199219"/>
      </g>
     </g>
    </g>
    <g id="ytick_3">
     <g id="line2d_9">
      <g>
       <use xlink:href="#mbff6d34c6d" x="38.482813" y="148.865455" style="stroke: #000000; stroke-width: 0.8"/>
      </g>
     </g>
     <g id="text_9">
      <!-- −1.0 -->
      <g transform="translate(7.2 152.664673) scale(0.1 -0.1)">
       <use xlink:href="#DejaVuSans-2212"/>
       <use xlink:href="#DejaVuSans-31" x="83.789062"/>
       <use xlink:href="#DejaVuSans-2e" x="147.412109"/>
       <use xlink:href="#DejaVuSans-30" x="179.199219"/>
      </g>
     </g>
    </g>
    <g id="ytick_4">
     <g id="line2d_10">
      <g>
       <use xlink:href="#mbff6d34c6d" x="38.482813" y="115.92" style="stroke: #000000; stroke-width: 0.8"/>
      </g>
     </g>
     <g id="text_10">
      <!-- −0.5 -->
      <g transform="translate(7.2 119.719219) scale(0.1 -0.1)">
       <use xlink:href="#DejaVuSans-2212"/>
       <use xlink:href="#DejaVuSans-30" x="83.789062"/>
       <use xlink:href="#DejaVuSans-2e" x="147.412109"/>
       <use xlink:href="#DejaVuSans-35" x="179.199219"/>
      </g>
     </g>
    </g>
    <g id="ytick_5">
     <g id="line2d_11">
      <g>
       <use xlink:href="#mbff6d34c6d" x="38.482813" y="82.974545" style="stroke: #000000; stroke-width: 0.8"/>
      </g>
     </g>
     <g id="text_11">
      <!-- 0.0 -->
      <g transform="translate(15.579688 86.773764) scale(0.1 -0.1)">
       <use xlink:href="#DejaVuSans-30"/>
       <use xlink:href="#DejaVuSans-2e" x="63.623047"/>
       <use xlink:href="#DejaVuSans-30" x="95.410156"/>
      </g>
     </g>
    </g>
    <g id="ytick_6">
     <g id="line2d_12">
      <g>
       <use xlink:href="#mbff6d34c6d" x="38.482813" y="50.029091" style="stroke: #000000; stroke-width: 0.8"/>
      </g>
     </g>
     <g id="text_12">
      <!-- 0.5 -->
      <g transform="translate(15.579688 53.82831) scale(0.1 -0.1)">
       <use xlink:href="#DejaVuSans-30"/>
       <use xlink:href="#DejaVuSans-2e" x="63.623047"/>
       <use xlink:href="#DejaVuSans-35" x="95.410156"/>
      </g>
     </g>
    </g>
    <g id="ytick_7">
     <g id="line2d_13">
      <g>
       <use xlink:href="#mbff6d34c6d" x="38.482813" y="17.083636" style="stroke: #000000; stroke-width: 0.8"/>
      </g>
     </g>
     <g id="text_13">
      <!-- 1.0 -->
      <g transform="translate(15.579688 20.882855) scale(0.1 -0.1)">
       <use xlink:href="#DejaVuSans-31"/>
       <use xlink:href="#DejaVuSans-2e" x="63.623047"/>
       <use xlink:href="#DejaVuSans-30" x="95.410156"/>
      </g>
     </g>
    </g>
   </g>
   <g id="line2d_14">
    <path d="M 38.482813 82.974545 
L 39.487715 82.974545 
L 39.655199 87.434061 
L 39.990166 119.522605 
L 40.492617 158.737763 
L 40.827585 160.15809 
L 40.995069 162.722742 
L 41.162552 161.618986 
L 41.49752 181.810449 
L 41.665004 170.771543 
L 41.832487 180.036881 
L 41.999971 179.378483 
L 42.167455 176.35039 
L 42.502422 185.720246 
L 42.669906 192.342822 
L 43.004874 179.019165 
L 43.172357 191.25284 
L 43.339841 176.075663 
L 43.507325 190.015171 
L 43.674808 187.727001 
L 44.009776 198.002916 
L 44.344743 181.142919 
L 44.512227 188.40592 
L 44.679711 183.634296 
L 44.847195 196.905421 
L 45.014678 188.083867 
L 45.182162 189.984369 
L 45.349646 177.885264 
L 45.51713 191.694899 
L 45.684613 194.533849 
L 46.019581 187.341974 
L 46.187065 186.885914 
L 46.354548 176.547966 
L 46.522032 201.368349 
L 46.689516 189.579683 
L 47.024483 182.466557 
L 47.191967 181.952249 
L 47.526935 198.154683 
L 48.029386 179.708288 
L 48.19687 189.726866 
L 48.364353 177.238837 
L 48.531837 199.687448 
L 48.699321 188.942857 
L 48.866804 186.9434 
L 49.034288 194.819526 
L 49.369256 181.006794 
L 49.536739 187.828669 
L 49.704223 186.330751 
L 49.871707 197.842478 
L 50.039191 187.239944 
L 50.206674 188.554605 
L 50.374158 175.31916 
L 50.541642 192.327809 
L 50.709126 194.371651 
L 50.876609 189.467267 
L 51.044093 189.73567 
L 51.211577 188.378481 
L 51.379061 175.651833 
L 51.546544 197.434065 
L 51.714028 184.739004 
L 51.881512 188.446797 
L 52.048996 189.386487 
L 52.216479 185.840303 
L 52.551447 194.349613 
L 53.053898 179.878965 
L 53.221382 197.786238 
L 53.388866 179.671884 
L 53.556349 197.048976 
L 53.723833 182.941845 
L 54.0588 195.823559 
L 54.226284 184.846995 
L 54.393768 185.668308 
L 54.561252 189.623228 
L 54.728735 189.299848 
L 54.896219 191.753072 
L 55.063703 179.424182 
L 55.231187 186.97612 
L 55.39867 180.926898 
L 55.566154 198.396443 
L 55.733638 197.053027 
L 55.901122 186.061253 
L 56.068605 187.585019 
L 56.403573 176.449714 
L 56.571057 200.756394 
L 56.73854 188.993875 
L 56.906024 185.519652 
L 57.073508 185.300223 
L 57.240992 190.905857 
L 57.408475 187.231505 
L 57.575959 189.925092 
L 57.743443 187.104565 
L 57.910927 189.561147 
L 58.07841 185.323551 
L 58.245894 185.756374 
L 58.413378 174.787876 
L 58.580862 193.718187 
L 58.748345 189.364217 
L 59.083313 193.820758 
L 59.250796 180.807811 
L 59.41828 177.457337 
L 59.585764 188.939877 
L 59.753248 184.38922 
L 59.920731 192.467792 
L 60.088215 183.354811 
L 60.255699 183.729707 
L 60.423183 183.164049 
L 60.590666 193.486875 
L 60.75815 196.34361 
L 60.925634 181.099377 
L 61.093118 180.234326 
L 61.260601 184.086831 
L 61.428085 182.786623 
L 61.595569 201.022763 
L 61.763053 184.370347 
L 61.930536 182.720504 
L 62.265504 188.784792 
L 62.432988 181.749001 
L 62.600471 191.801597 
L 62.767955 185.436644 
L 62.935439 191.347934 
L 63.270406 182.538824 
L 63.43789 169.825548 
L 63.605374 192.762137 
L 63.772858 191.86268 
L 63.940341 192.564702 
L 64.107825 189.662783 
L 64.442792 170.260029 
L 64.610276 194.243144 
L 64.77776 193.900954 
L 64.945244 192.671281 
L 65.112727 177.418002 
L 65.280211 182.612363 
L 65.447695 176.57064 
L 65.615179 197.264542 
L 65.950146 182.33154 
L 66.285114 186.062218 
L 66.452597 177.125105 
L 66.620081 198.330216 
L 66.787565 184.156468 
L 66.955049 181.638133 
L 67.122532 182.057764 
L 67.290016 185.131903 
L 67.4575 179.324782 
L 67.624984 194.789245 
L 67.959951 184.676596 
L 68.127435 180.193097 
L 68.294919 185.418955 
L 68.462402 171.620489 
L 68.629886 193.119233 
L 68.79737 190.920755 
L 68.964854 190.244575 
L 69.467305 174.373015 
L 69.634788 196.726924 
L 69.969756 187.637113 
L 70.13724 173.206869 
L 70.304723 178.819557 
L 70.472207 177.725825 
L 70.639691 200.426288 
L 70.807175 195.965017 
L 70.974658 182.285951 
L 71.142142 181.218218 
L 71.309626 181.254682 
L 71.47711 173.126879 
L 71.644593 198.12013 
L 71.812077 185.229232 
L 71.979561 188.130994 
L 72.147045 183.712364 
L 72.314528 186.936091 
L 72.482012 187.890739 
L 72.649496 191.057078 
L 72.81698 185.595483 
L 72.984463 184.457173 
L 73.151947 180.574838 
L 73.319431 194.928311 
L 73.486915 182.022651 
L 73.654398 189.835772 
L 73.821882 184.872403 
L 74.15685 193.303169 
L 74.324333 181.423335 
L 74.491817 178.558269 
L 74.659301 190.585486 
L 74.826784 191.170577 
L 74.994268 195.67433 
L 75.161752 183.424804 
L 75.496719 178.656596 
L 75.831687 193.589427 
L 75.999171 185.644109 
L 76.166654 185.419268 
L 76.334138 183.801678 
L 76.501622 179.059589 
L 76.669106 203.111799 
L 76.836589 183.440969 
L 77.004073 184.189326 
L 77.171557 181.336688 
L 77.506524 190.3754 
L 77.674008 190.794193 
L 77.841492 188.566215 
L 78.008976 188.088242 
L 78.176459 184.121739 
L 78.343943 188.523513 
L 78.511427 171.064206 
L 78.678911 190.534396 
L 78.846394 189.253848 
L 79.181362 196.754975 
L 79.516329 176.504925 
L 79.851297 184.68632 
L 80.01878 201.87345 
L 80.186264 187.402005 
L 80.353748 184.980901 
L 80.521232 178.161939 
L 80.688715 190.790909 
L 80.856199 190.714488 
L 81.023683 182.718163 
L 81.35865 189.864095 
L 81.526134 180.713985 
L 81.693618 199.919662 
L 81.861102 181.089786 
L 82.028585 177.835176 
L 82.196069 185.698525 
L 82.363553 187.963568 
L 82.531037 183.808956 
L 82.69852 196.229618 
L 83.033488 183.54839 
L 83.200972 180.119661 
L 83.368455 182.661294 
L 83.535939 167.776758 
L 83.703423 199.878954 
L 83.870907 189.894851 
L 84.03839 189.818127 
L 84.205874 189.565231 
L 84.373358 176.133371 
L 84.540842 172.088786 
L 84.708325 192.804907 
L 84.875809 192.030269 
L 85.043293 187.703569 
L 85.210776 177.110498 
L 85.37826 179.92407 
L 85.545744 176.298343 
L 85.713228 197.835515 
L 86.048195 187.138043 
L 86.550646 169.599935 
L 86.71813 198.911533 
L 86.885614 184.029568 
L 87.053098 185.188046 
L 87.220581 187.967173 
L 87.388065 185.099087 
L 87.555549 178.71823 
L 87.723033 190.620043 
L 87.890516 181.373128 
L 88.058 185.514441 
L 88.225484 180.700826 
L 88.392968 187.673984 
L 88.560451 173.920085 
L 88.727935 194.884429 
L 89.062903 184.477027 
L 89.230386 183.895631 
L 89.39787 177.017077 
L 89.565354 177.655762 
L 89.732838 195.202039 
L 89.900321 188.079083 
L 90.067805 192.508398 
L 90.235289 178.347703 
L 90.402772 178.052956 
L 90.570256 173.777475 
L 90.73774 198.869589 
L 91.072707 180.644528 
L 91.240191 184.460286 
L 91.407675 181.972762 
L 91.575159 174.962919 
L 91.742642 198.240785 
L 91.910126 184.25176 
L 92.07761 185.230969 
L 92.245094 179.040962 
L 92.412577 177.065841 
L 92.747545 195.394677 
L 92.915029 187.98414 
L 93.082512 185.962931 
L 93.249996 181.20919 
L 93.41748 191.429729 
L 93.584964 176.371811 
L 93.752447 187.921076 
L 93.919931 186.500679 
L 94.087415 186.509321 
L 94.254899 195.101189 
L 94.422382 180.267613 
L 94.589866 176.632523 
L 94.75735 191.344469 
L 94.924834 184.890311 
L 95.092317 194.950657 
L 95.259801 181.083663 
L 95.427285 181.8546 
L 95.594768 173.118363 
L 95.929736 195.096082 
L 96.09722 184.607413 
L 96.264703 186.745851 
L 96.599671 175.847991 
L 96.767155 194.849795 
L 96.934638 183.568823 
L 97.102122 185.473891 
L 97.269606 178.634992 
L 97.772057 192.131134 
L 97.939541 189.439573 
L 98.107025 177.116681 
L 98.441992 185.742965 
L 98.609476 175.017486 
L 98.77696 194.771879 
L 98.944443 187.826902 
L 99.111927 186.61439 
L 99.279411 188.770648 
L 99.614378 174.208916 
L 99.949346 188.63266 
L 100.11683 198.215059 
L 100.451797 178.374869 
L 100.619281 171.417633 
L 100.954248 194.959331 
L 101.121732 181.478156 
L 101.289216 183.942916 
L 101.456699 183.290895 
L 101.624183 176.6857 
L 101.791667 201.82566 
L 101.959151 181.267839 
L 102.126634 182.903069 
L 102.294118 176.817091 
L 102.461602 182.179758 
L 102.629086 173.544862 
L 102.796569 194.399862 
L 102.964053 193.549903 
L 103.131537 180.167758 
L 103.299021 183.35227 
L 103.466504 181.409914 
L 103.633988 167.880419 
L 103.801472 190.57392 
L 103.968956 184.052991 
L 104.136439 188.442204 
L 104.638891 174.691452 
L 104.806374 192.415438 
L 104.973858 190.944556 
L 105.141342 185.578078 
L 105.308826 174.565267 
L 105.476309 175.941942 
L 105.643793 170.630681 
L 105.811277 201.865917 
L 106.648695 168.984755 
L 106.816179 196.084561 
L 106.983663 184.854135 
L 107.151147 187.932091 
L 107.486114 183.514007 
L 107.653598 177.841923 
L 107.821082 185.886249 
L 107.988565 183.905891 
L 108.323533 185.0771 
L 108.491017 184.590947 
L 108.6585 169.053557 
L 108.825984 194.337347 
L 108.993468 185.409101 
L 109.160952 186.574662 
L 109.328435 184.829694 
L 109.663403 176.087477 
L 109.99837 192.379707 
L 110.165854 189.642599 
L 110.668305 167.071965 
L 110.835789 197.811647 
L 111.505724 176.318352 
L 111.673208 175.864086 
L 111.840691 198.847626 
L 112.008175 179.563603 
L 112.175659 184.195971 
L 112.343143 180.848242 
L 112.510626 181.88991 
L 112.67811 183.797673 
L 112.845594 189.062281 
L 113.013078 187.793391 
L 113.180561 176.792511 
L 113.348045 181.020914 
L 113.515529 195.441592 
L 113.683013 176.526522 
L 113.850496 189.620102 
L 114.01798 177.712675 
L 114.185464 187.118089 
L 114.352948 185.957225 
L 114.520431 175.452409 
L 114.855399 189.113241 
L 115.022883 190.147375 
L 115.190366 193.326018 
L 115.692818 164.617876 
L 115.860301 194.644661 
L 116.027785 193.438058 
L 116.195269 190.073631 
L 116.362752 189.661444 
L 116.530236 177.020742 
L 116.69772 174.725295 
L 116.865204 187.233442 
L 117.032687 182.460995 
L 117.200171 182.121779 
L 117.367655 179.10593 
L 117.535139 191.167402 
L 117.702622 186.708816 
L 117.870106 186.867691 
L 118.03759 181.815423 
L 118.205074 180.317691 
L 118.372557 182.382791 
L 118.540041 182.606454 
L 118.707525 172.102357 
L 118.875009 192.956397 
L 119.042492 184.459556 
L 119.209976 188.997764 
L 119.37746 189.661548 
L 119.544944 173.929238 
L 119.712427 176.904786 
L 120.214879 191.087689 
L 120.382362 180.768062 
L 120.549846 181.289294 
L 120.71733 169.393419 
L 120.884814 191.667762 
L 121.052297 194.729775 
L 121.219781 183.596963 
L 121.387265 180.863273 
L 121.554748 173.69321 
L 121.722232 179.535527 
L 121.889716 193.745148 
L 122.0572 183.750542 
L 122.224683 186.931166 
L 122.392167 181.385411 
L 122.559651 180.433801 
L 122.727135 176.219385 
L 122.894618 189.170226 
L 123.229586 180.32623 
L 123.39707 186.711164 
L 123.564553 186.583937 
L 123.732037 170.476009 
L 123.899521 188.636065 
L 124.067005 182.3479 
L 124.234488 189.87365 
L 124.401972 184.285175 
L 124.569456 173.6556 
L 124.73694 177.600778 
L 125.071907 188.963308 
L 125.239391 191.626387 
L 125.406875 177.611342 
L 125.574358 180.290703 
L 125.741842 171.502483 
L 125.909326 192.942505 
L 126.076809 184.96823 
L 126.244293 182.682965 
L 126.411777 184.620602 
L 126.579261 173.483814 
L 126.746744 177.01143 
L 126.914228 200.276163 
L 127.081712 184.36271 
L 127.249196 180.693512 
L 127.416679 171.828876 
L 127.584163 178.020597 
L 127.751647 177.736981 
L 127.919131 188.371342 
L 128.086614 191.053454 
L 128.254098 185.059782 
L 128.421582 184.578946 
L 128.589066 182.105942 
L 128.756549 171.382713 
L 128.924033 185.360601 
L 129.091517 177.700031 
L 129.259001 187.565126 
L 129.426484 186.759116 
L 129.593968 178.983428 
L 129.761452 178.288205 
L 129.928936 188.51533 
L 130.096419 185.505027 
L 130.263903 189.980333 
L 130.598871 171.458581 
L 130.766354 164.981921 
L 130.933838 197.37818 
L 131.101322 197.465479 
L 131.268805 183.946702 
L 131.436289 185.0593 
L 131.771257 167.372088 
L 131.93874 186.288657 
L 132.106224 177.590484 
L 132.273708 189.725556 
L 132.608675 177.44601 
L 132.943643 190.451392 
L 133.111127 186.046322 
L 133.27861 174.21384 
L 133.446094 174.346894 
L 133.613578 182.193874 
L 133.781062 175.550567 
L 133.948545 193.042644 
L 134.283513 183.123197 
L 134.450997 186.452966 
L 134.61848 174.714755 
L 134.785964 171.978584 
L 134.953448 185.080023 
L 135.120932 184.029214 
L 135.288415 192.073186 
L 135.455899 178.534606 
L 135.623383 178.194451 
L 135.790867 171.849069 
L 136.125834 192.514847 
L 136.460801 180.66088 
L 136.628285 168.355904 
L 136.795769 168.436714 
L 136.963253 199.983392 
L 137.130736 185.764215 
L 137.29822 184.989702 
L 137.633188 177.376301 
L 137.800671 172.899093 
L 138.135639 189.866108 
L 138.303123 181.28144 
L 138.470606 179.543198 
L 138.63809 180.414137 
L 138.805574 168.772632 
L 138.973058 192.877292 
L 139.140541 183.134482 
L 139.308025 183.764201 
L 139.475509 181.666534 
L 139.642993 172.854777 
L 139.810476 175.130524 
L 139.97796 187.952609 
L 140.145444 180.818337 
L 140.312928 188.173454 
L 140.815379 168.699494 
L 140.982863 192.547064 
L 141.150346 190.35143 
L 141.31783 178.624681 
L 141.485314 177.385339 
L 141.652797 177.670964 
L 141.820281 170.95025 
L 141.987765 196.57682 
L 142.155249 185.144277 
L 142.322732 184.392641 
L 142.6577 169.176356 
L 142.992667 192.014733 
L 143.160151 190.124496 
L 143.327635 183.154494 
L 143.495119 181.744218 
L 143.662602 178.315962 
L 143.830086 165.542866 
L 143.99757 189.82843 
L 144.165054 178.334632 
L 144.500021 190.288714 
L 144.667505 176.56535 
L 144.834989 172.279717 
L 145.002472 186.178123 
L 145.169956 187.096123 
L 145.33744 183.017882 
L 145.504924 174.129125 
L 145.672407 176.081148 
L 145.839891 172.371061 
L 146.007375 191.048195 
L 146.174859 193.759932 
L 146.509826 180.4736 
L 146.67731 167.614518 
L 146.844793 166.156503 
L 147.012277 194.337945 
L 147.179761 180.557401 
L 147.347245 184.440524 
L 147.514728 183.713378 
L 147.682212 176.036785 
L 147.849696 178.731739 
L 148.01718 189.253784 
L 148.519631 175.574292 
L 148.687115 182.566762 
L 148.854598 171.232897 
L 149.022082 189.871528 
L 149.189566 187.745886 
L 149.35705 180.849726 
L 149.524533 182.275715 
L 149.692017 173.561432 
L 150.026985 183.762145 
L 150.194468 182.075631 
L 150.361952 192.51976 
L 150.69692 169.525916 
L 150.864403 163.990981 
L 151.031887 194.156843 
L 151.199371 194.746711 
L 151.366855 185.422347 
L 151.534338 183.255028 
L 151.701822 169.146883 
L 151.869306 164.701313 
L 152.036789 189.23204 
L 152.204273 187.109735 
L 152.371757 186.548595 
L 152.706724 177.523022 
L 152.874208 175.6854 
L 153.041692 183.478616 
L 153.209176 185.442926 
L 153.544143 174.677648 
L 153.711627 181.105893 
L 153.879111 171.27272 
L 154.046594 190.244432 
L 154.214078 184.577694 
L 154.549046 184.908116 
L 154.716529 166.430694 
L 154.884013 169.417139 
L 155.051497 190.511018 
L 155.386464 186.607623 
L 155.553948 177.986976 
L 155.721432 177.883402 
L 155.888916 164.464399 
L 156.223883 191.459677 
L 156.558851 179.625279 
L 156.726334 171.771658 
L 156.893818 173.094949 
L 157.061302 191.39066 
L 157.228785 184.162335 
L 157.396269 183.06611 
L 157.563753 173.807909 
L 157.731237 172.632753 
L 157.89872 175.608588 
L 158.066204 191.646383 
L 158.401172 182.877636 
L 158.568655 182.539766 
L 158.736139 177.178382 
L 158.903623 163.938965 
L 159.071107 185.455473 
L 159.23859 182.757628 
L 159.406074 186.921246 
L 159.573558 187.136969 
L 159.908525 172.10245 
L 160.410977 192.36267 
L 160.57846 176.836371 
L 160.745944 172.553098 
L 160.913428 171.273394 
L 161.080912 186.398114 
L 161.248395 189.409206 
L 161.415879 180.780464 
L 161.583363 185.27461 
L 161.91833 169.497672 
L 162.085814 188.233213 
L 162.253298 182.62697 
L 162.420781 182.187806 
L 162.755749 174.029617 
L 162.923233 170.346541 
L 163.090716 188.274256 
L 163.2582 193.320287 
L 163.593168 176.314089 
L 163.760651 173.726309 
L 163.928135 168.771231 
L 164.095619 181.054217 
L 164.430586 189.905447 
L 164.59807 185.868964 
L 164.765554 170.166259 
L 164.933038 170.647795 
L 165.100521 183.214412 
L 165.268005 183.443391 
L 165.435489 185.408279 
L 165.602973 177.657465 
L 165.770456 178.460178 
L 165.93794 166.138145 
L 166.272908 194.410845 
L 166.440391 181.495606 
L 166.607875 177.412499 
L 166.775359 168.210136 
L 166.942843 168.773599 
L 167.110326 189.882011 
L 167.27781 186.613984 
L 167.445294 187.949744 
L 167.612777 178.767061 
L 167.947745 172.503962 
L 168.115229 180.591023 
L 168.282712 180.769802 
L 168.450196 185.173902 
L 168.61768 182.349629 
L 168.785164 177.003847 
L 168.952647 168.097537 
L 169.120131 190.611496 
L 169.287615 186.748906 
L 169.455099 178.565571 
L 169.622582 178.068298 
L 169.95755 170.591427 
L 170.292517 190.031815 
L 170.460001 190.075184 
L 170.627485 176.205017 
L 170.962452 168.183176 
L 171.129936 186.408481 
L 171.29742 187.794675 
L 171.632387 179.993431 
L 171.799871 169.24929 
L 171.967355 166.315537 
L 172.134839 189.994744 
L 172.302322 184.793985 
L 172.469806 186.865327 
L 172.804773 172.462939 
L 172.972257 170.260078 
L 173.307225 190.32922 
L 173.474708 177.348921 
L 173.642192 179.702016 
L 173.809676 179.543883 
L 173.97716 169.494827 
L 174.144643 182.052772 
L 174.312127 181.34456 
L 174.479611 188.290934 
L 174.814578 169.460944 
L 174.982062 171.828993 
L 175.149546 185.941007 
L 175.484513 184.25834 
L 175.819481 171.762016 
L 175.986965 167.513319 
L 176.154448 187.10227 
L 176.321932 188.535869 
L 176.991867 168.997244 
L 177.159351 185.81218 
L 177.326835 180.042744 
L 177.494318 178.810771 
L 177.661802 172.788613 
L 177.829286 181.750221 
L 177.996769 179.722687 
L 178.164253 187.667638 
L 178.331737 187.985559 
L 178.834188 164.987519 
L 179.001672 166.727403 
L 179.169156 193.256791 
L 179.336639 184.140569 
L 179.504123 188.462075 
L 179.671607 187.188949 
L 180.006574 163.928124 
L 180.341542 185.811022 
L 180.509026 188.917987 
L 180.676509 178.271986 
L 180.843993 175.0928 
L 181.011477 164.691351 
L 181.346444 194.359429 
L 181.848896 170.563331 
L 182.016379 170.47188 
L 182.183863 185.646683 
L 182.351347 181.327501 
L 182.518831 186.600171 
L 182.853798 170.076176 
L 183.021282 170.655697 
L 183.188765 185.886837 
L 183.356249 184.496 
L 183.523733 179.863448 
L 183.691217 181.979011 
L 183.8587 180.13974 
L 184.026184 163.998425 
L 184.193668 183.465209 
L 184.361152 185.170874 
L 184.528635 184.597731 
L 184.863603 169.401224 
L 185.19857 181.609578 
L 185.366054 187.9695 
L 185.533538 184.773006 
L 185.868505 172.917393 
L 186.035989 167.198318 
L 186.203473 184.299716 
L 186.370957 187.662853 
L 186.53844 185.191713 
L 186.705924 179.174178 
L 187.040892 163.156836 
L 187.208375 188.251405 
L 187.375859 191.661268 
L 187.87831 170.999577 
L 188.045794 166.974408 
L 188.213278 174.846805 
L 188.380761 189.553243 
L 188.715729 181.332259 
L 189.050696 166.310821 
L 189.21818 178.616882 
L 189.553148 183.926316 
L 189.720631 179.932195 
L 189.888115 169.617263 
L 190.055599 168.405268 
L 190.390566 191.724493 
L 190.725534 173.610786 
L 190.893018 171.389629 
L 191.060501 165.559145 
L 191.227985 184.980247 
L 191.395469 190.558061 
L 191.730436 175.37129 
L 192.065404 169.925611 
L 192.232888 171.312864 
L 192.567855 191.274388 
L 192.902823 169.646495 
L 193.070306 167.143249 
L 193.405274 186.970945 
L 193.740241 178.822573 
L 193.907725 173.943521 
L 194.075209 162.840593 
L 194.410176 187.511885 
L 194.57766 186.697659 
L 194.745144 181.213529 
L 195.080111 164.557075 
L 195.247595 168.811944 
L 195.415079 188.198006 
L 195.582562 190.710448 
L 195.91753 170.979832 
L 196.085014 164.426817 
L 196.419981 184.437702 
L 196.587465 190.056468 
L 196.922432 167.436356 
L 197.089916 170.193538 
L 197.2574 183.343977 
L 197.424884 181.72593 
L 197.592367 176.926635 
L 197.759851 175.624819 
L 197.927335 183.225114 
L 198.094819 169.569861 
L 198.429786 185.891922 
L 198.764753 178.172539 
L 199.099721 165.355413 
L 199.434688 184.002241 
L 199.602172 189.383628 
L 199.93714 168.242971 
L 200.104623 168.860324 
L 200.439591 186.759975 
L 200.607075 186.741939 
L 200.942042 169.550392 
L 201.109526 161.398391 
L 201.444493 189.891932 
L 202.114428 168.215648 
L 202.61688 181.848534 
L 202.951847 170.685142 
L 203.119331 170.939517 
L 203.286815 182.165516 
L 203.454298 181.590193 
L 203.621782 178.062405 
L 203.789266 184.968215 
L 204.124233 161.04152 
L 204.626684 184.066182 
L 204.961652 178.059988 
L 205.129136 166.760709 
L 205.464103 185.743394 
L 205.631587 179.142409 
L 205.799071 164.997946 
L 205.966554 169.844095 
L 206.134038 169.433393 
L 206.469006 189.989121 
L 206.636489 184.645614 
L 206.971457 162.388353 
L 207.138941 160.849904 
L 207.306424 175.995201 
L 207.641392 185.073199 
L 207.976359 170.455981 
L 208.143843 159.959075 
L 208.311327 169.562906 
L 208.47881 186.18062 
L 208.646294 185.724121 
L 209.148745 159.112147 
L 209.483713 183.771586 
L 209.651197 186.260949 
L 209.986164 167.547756 
L 210.153648 165.131765 
L 210.321132 170.155359 
L 210.488615 183.766659 
L 210.656099 182.9043 
L 211.15855 158.849783 
L 211.493518 186.091067 
L 211.828485 175.809629 
L 211.995969 172.85264 
L 212.163453 164.049945 
L 212.330937 166.843802 
L 212.49842 180.300001 
L 212.665904 180.300434 
L 212.833388 172.250387 
L 213.000872 173.334756 
L 213.168355 170.589418 
L 213.503323 180.437303 
L 214.173258 161.710177 
L 214.508225 187.248419 
L 215.17816 158.300488 
L 215.513128 187.248716 
L 215.848095 173.235317 
L 216.015579 172.160481 
L 216.183063 161.307809 
L 216.350546 167.655098 
L 216.51803 182.517139 
L 216.685514 185.54177 
L 217.020481 162.179533 
L 217.355449 171.656732 
L 217.522933 182.745556 
L 218.192868 160.198643 
L 218.360351 170.96473 
L 218.527835 188.891817 
L 219.030286 166.342067 
L 219.19777 158.426236 
L 219.365254 166.590166 
L 219.532737 185.054731 
L 219.867705 173.162711 
L 220.035189 173.674096 
L 220.202672 166.597061 
L 220.370156 166.5131 
L 220.53764 181.465688 
L 220.705124 177.745704 
L 220.872607 166.639845 
L 221.040091 163.563621 
L 221.207575 167.697679 
L 221.542542 187.718423 
L 221.710026 174.479859 
L 222.044994 165.137679 
L 222.212477 160.164215 
L 222.379961 167.484174 
L 222.547445 190.615957 
L 222.714929 182.705577 
L 222.882412 169.206515 
L 223.049896 169.091527 
L 223.21738 159.828724 
L 223.384864 168.250027 
L 223.552347 185.544004 
L 224.222282 164.163556 
L 224.389766 166.296221 
L 224.55725 182.335115 
L 224.724733 183.669988 
L 224.892217 179.169853 
L 225.059701 163.927396 
L 225.227185 159.328825 
L 225.394668 167.513502 
L 225.562152 182.752787 
L 225.729636 174.773929 
L 225.89712 173.644844 
L 226.064603 177.755672 
L 226.232087 162.248244 
L 226.399571 163.927313 
L 226.567055 183.780671 
L 226.734538 180.788869 
L 227.069506 165.903219 
L 227.23699 164.902715 
L 227.404473 168.174363 
L 227.739441 180.434742 
L 228.241892 162.582483 
L 228.409376 170.547856 
L 228.57686 184.351581 
L 229.246794 160.463466 
L 229.581762 186.208418 
L 229.916729 167.982876 
L 230.084213 170.96117 
L 230.251697 160.586312 
L 230.419181 168.24109 
L 230.586664 187.942758 
L 230.754148 184.975929 
L 231.089116 158.048793 
L 231.256599 157.088903 
L 231.591567 183.3015 
L 231.759051 182.317439 
L 231.926534 179.839057 
L 232.261502 162.070614 
L 232.428986 166.349648 
L 232.763953 178.838558 
L 232.931437 171.959303 
L 233.098921 169.678221 
L 233.266404 163.234583 
L 233.433888 170.916663 
L 233.601372 184.655194 
L 233.936339 171.066104 
L 234.103823 171.641783 
L 234.271307 166.150991 
L 234.43879 164.912167 
L 234.606274 179.394517 
L 234.773758 181.238952 
L 234.941242 169.415724 
L 235.108725 165.932719 
L 235.276209 165.477536 
L 235.443693 176.208618 
L 235.611177 179.328701 
L 235.77866 169.478763 
L 235.946144 174.163921 
L 236.113628 169.720863 
L 236.281112 161.944024 
L 236.448595 169.06736 
L 236.616079 187.044881 
L 237.11853 164.974863 
L 237.286014 161.687783 
L 237.453498 165.272764 
L 237.620982 184.251498 
L 237.788465 184.350331 
L 238.123433 166.848014 
L 238.290917 162.795109 
L 238.4584 165.270789 
L 238.625884 180.410162 
L 238.793368 179.999212 
L 238.960852 176.194841 
L 239.295819 155.233357 
L 239.630786 183.244197 
L 239.79827 174.626347 
L 239.965754 171.986288 
L 240.133238 172.553775 
L 240.300721 163.162376 
L 240.468205 161.756086 
L 240.635689 185.821839 
L 241.13814 161.904921 
L 241.305624 163.662476 
L 241.808075 182.034673 
L 241.975559 169.998223 
L 242.143043 167.323559 
L 242.310526 160.24142 
L 242.47801 165.91109 
L 242.645494 181.777035 
L 242.980461 173.864984 
L 243.147945 164.466797 
L 243.315429 161.328591 
L 243.650396 186.244786 
L 243.81788 171.365072 
L 243.985364 168.618553 
L 244.152848 169.410315 
L 244.320331 160.362977 
L 244.655299 181.75404 
L 244.822782 181.986734 
L 244.990266 166.553047 
L 245.15775 162.286438 
L 245.325234 163.597253 
L 245.660201 181.520497 
L 246.330136 158.320213 
L 246.49762 166.786301 
L 246.665104 181.244779 
L 247.000071 175.728992 
L 247.167555 171.019193 
L 247.335039 159.642273 
L 247.502522 166.311796 
L 247.670006 179.276625 
L 248.004974 166.209877 
L 248.172457 170.049608 
L 248.339941 166.956157 
L 248.507425 169.592955 
L 248.674909 180.835875 
L 248.842392 180.737259 
L 249.17736 159.836783 
L 249.344844 158.347314 
L 249.679811 182.213128 
L 249.847295 173.939952 
L 250.014778 172.107041 
L 250.182262 168.963864 
L 250.349746 160.511653 
L 250.51723 164.143959 
L 250.684713 182.927737 
L 250.852197 178.839411 
L 251.019681 168.399831 
L 251.187165 167.569891 
L 251.354648 158.030849 
L 251.689616 179.114869 
L 251.8571 175.495237 
L 252.024583 166.92301 
L 252.359551 165.18092 
L 252.527035 169.866122 
L 252.694518 182.233225 
L 252.862002 179.098314 
L 253.19697 158.133508 
L 253.364453 155.642197 
L 253.699421 182.999102 
L 254.034388 167.99713 
L 254.201872 167.19066 
L 254.369356 158.885291 
L 254.53684 157.191682 
L 254.704323 181.023307 
L 254.871807 181.731664 
L 255.374258 161.417252 
L 255.541742 160.479298 
L 255.709226 176.481527 
L 256.044193 165.741266 
L 256.211677 171.970749 
L 256.379161 167.505586 
L 256.546644 169.627999 
L 256.714128 177.64166 
L 256.881612 176.154625 
L 257.216579 160.829203 
L 257.384063 157.32475 
L 257.551547 165.804706 
L 257.719031 184.12752 
L 258.053998 167.565615 
L 258.221482 168.976727 
L 258.388966 162.39112 
L 258.556449 162.589824 
L 258.723933 180.935238 
L 258.891417 180.886351 
L 259.226384 162.390628 
L 259.393868 157.294895 
L 259.561352 163.736972 
L 259.728836 176.015368 
L 259.896319 173.929094 
L 260.063803 168.615426 
L 260.231287 173.70266 
L 260.39877 164.324104 
L 260.566254 165.746426 
L 260.733738 181.215911 
L 261.403673 153.805474 
L 261.571157 164.429677 
L 261.73864 187.363474 
L 261.906124 182.338801 
L 262.073608 170.337929 
L 262.241092 169.618223 
L 262.408575 160.414992 
L 262.576059 157.958617 
L 262.911027 177.982891 
L 263.245994 164.71609 
L 263.413478 157.466308 
L 263.748445 180.747901 
L 263.915929 168.84005 
L 264.250897 170.504974 
L 264.41838 164.338636 
L 264.585864 165.189415 
L 264.753348 178.069784 
L 264.920832 171.277211 
L 265.088315 159.047206 
L 265.255799 161.900392 
L 265.423283 159.613968 
L 265.75825 186.115056 
L 266.093218 164.626041 
L 266.260701 164.725593 
L 266.428185 158.554834 
L 266.595669 158.808403 
L 266.930636 180.760015 
L 267.433088 158.137449 
L 267.600571 165.629371 
L 267.768055 179.954488 
L 268.103023 165.53139 
L 268.270506 173.941218 
L 268.43799 162.043782 
L 268.605474 164.532134 
L 268.772958 175.425635 
L 269.107925 167.674536 
L 269.442893 157.097137 
L 269.610376 166.040932 
L 269.77786 184.884671 
L 269.945344 181.088802 
L 270.112828 169.36755 
L 270.280311 166.084035 
L 270.447795 157.924537 
L 270.615279 157.38877 
L 270.950246 174.8764 
L 271.11773 175.316193 
L 271.285214 170.746175 
L 271.452697 160.447564 
L 271.787665 176.135897 
L 272.122632 161.756092 
L 272.290116 173.129702 
L 272.625084 161.803854 
L 272.792567 180.892073 
L 272.960051 175.126472 
L 273.127535 160.173731 
L 273.295019 156.328021 
L 273.462502 160.12995 
L 273.79747 187.13788 
L 274.132437 163.937258 
L 274.299921 160.887306 
L 274.467405 155.496363 
L 274.969856 180.622288 
L 275.472307 154.546792 
L 275.639791 162.027075 
L 275.807275 183.656582 
L 276.142242 162.821181 
L 276.309726 166.653612 
L 276.644693 161.318307 
L 276.812177 180.470743 
L 276.979661 178.471598 
L 277.147145 164.823394 
L 277.314628 162.428254 
L 277.482112 156.729491 
L 277.81708 176.693829 
L 277.984563 173.297241 
L 278.152047 165.900135 
L 278.319531 167.183824 
L 278.487015 158.197927 
L 278.654498 162.60703 
L 278.821982 179.835061 
L 278.989466 177.340383 
L 279.491917 156.779998 
L 279.659401 160.796158 
L 279.826885 173.482348 
L 279.994368 163.391584 
L 280.161852 161.139107 
L 280.329336 177.976475 
L 280.664303 169.187386 
L 280.831787 173.932814 
L 281.501722 151.994231 
L 281.836689 185.575 
L 282.171657 168.479988 
L 282.339141 167.003756 
L 282.506624 154.330959 
L 282.674108 157.616401 
L 282.841592 178.705664 
L 283.009076 177.086886 
L 283.176559 167.386553 
L 283.344043 164.507042 
L 283.511527 155.536458 
L 283.679011 161.118705 
L 283.846494 175.638251 
L 284.181462 166.773314 
L 284.348946 169.236686 
L 284.683913 166.16078 
L 284.851397 175.030804 
L 285.353848 155.906253 
L 285.521332 153.571536 
L 285.856299 184.929844 
L 286.191267 162.80722 
L 286.35875 172.468688 
L 286.526234 161.453962 
L 286.693718 160.175151 
L 286.861202 170.921911 
L 287.028685 173.547066 
L 287.363653 161.927771 
L 287.531137 160.862213 
L 287.69862 160.649529 
L 287.866104 183.208928 
L 288.201072 163.831424 
L 288.368555 165.73995 
L 288.536039 161.367844 
L 288.871007 177.986311 
L 289.205974 158.647918 
L 289.373458 159.282079 
L 289.540942 154.120586 
L 289.875909 186.565844 
L 290.210877 165.494622 
L 290.37836 165.282634 
L 290.713328 152.801617 
L 290.880811 176.029132 
L 291.048295 178.699417 
L 291.215779 172.277126 
L 291.550746 154.007462 
L 291.71823 161.140524 
L 291.885714 173.218695 
L 292.220681 166.080759 
L 292.388165 176.248017 
L 292.555649 166.014605 
L 292.723133 163.051193 
L 292.890616 172.321493 
L 293.393068 156.736325 
L 293.560551 155.382434 
L 293.728035 168.379626 
L 293.895519 190.128184 
L 294.230486 162.497218 
L 294.565454 156.721024 
L 294.732938 157.951894 
L 294.900421 171.681304 
L 295.067905 172.464287 
L 295.235389 168.056178 
L 295.402873 169.612335 
L 295.570356 159.402616 
L 295.73784 164.668173 
L 295.905324 175.954477 
L 296.240291 159.528413 
L 296.407775 167.821195 
L 296.575259 156.390336 
L 296.742742 160.71342 
L 296.910226 180.148546 
L 297.07771 180.268585 
L 297.580161 153.032763 
L 297.915129 178.128394 
L 298.082612 173.936988 
L 298.250096 163.207488 
L 298.41758 163.652151 
L 298.585064 158.358356 
L 298.752547 161.026753 
L 299.087515 177.777582 
L 299.589966 154.833699 
L 299.75745 156.430059 
L 299.924934 174.979761 
L 300.092417 160.877961 
L 300.259901 159.742922 
L 300.427385 168.065956 
L 300.594869 169.9684 
L 300.762352 170.031332 
L 300.929836 177.845058 
L 301.264803 155.790469 
L 301.599771 157.148486 
L 301.767255 164.781897 
L 301.934738 180.738662 
L 302.269706 164.93214 
L 302.604673 159.336534 
L 302.772157 159.208219 
L 302.939641 178.702817 
L 303.107125 177.677273 
L 303.609576 150.677851 
L 303.77706 156.281518 
L 303.944543 176.326097 
L 304.112027 165.481057 
L 304.279511 163.778571 
L 304.446995 168.969113 
L 304.781962 165.995811 
L 304.949446 173.036395 
L 305.284413 161.403916 
L 305.451897 158.740513 
L 305.619381 151.521268 
L 305.954348 178.684065 
L 306.791767 155.489781 
L 306.959251 177.67229 
L 307.126734 174.98046 
L 307.461702 160.733551 
L 307.629186 158.482917 
L 307.796669 163.013356 
L 307.964153 171.129258 
L 308.299121 159.187431 
L 308.466604 166.896736 
L 308.634088 163.726877 
L 308.801572 165.653071 
L 308.969056 181.11946 
L 309.638991 148.280595 
L 309.973958 182.076543 
L 310.308926 162.154697 
L 310.476409 162.453073 
L 310.643893 160.491339 
L 310.811377 161.146674 
L 310.978861 169.77318 
L 311.146344 172.029135 
L 311.313828 162.893337 
L 311.481312 162.696982 
L 311.816279 155.8904 
L 311.983763 174.979984 
L 312.31873 166.753889 
L 312.486214 167.947247 
L 312.653698 158.661984 
L 312.821182 158.676346 
L 312.988665 171.31391 
L 313.323633 159.676901 
L 313.491117 159.462856 
L 313.6586 160.162139 
L 313.993568 180.040813 
L 314.328535 159.594901 
L 314.496019 158.85938 
L 314.663503 156.840689 
L 314.830987 160.632864 
L 314.99847 170.897191 
L 315.165954 173.285916 
L 315.668405 158.325311 
L 315.835889 158.085763 
L 316.003373 172.141781 
L 316.170857 162.976392 
L 316.33834 163.073191 
L 316.505824 165.333325 
L 316.673308 164.174865 
L 316.840791 164.221874 
L 317.008275 171.323055 
L 317.175759 162.777704 
L 317.343243 160.44853 
L 317.510726 161.73212 
L 317.67821 154.176827 
L 317.845694 163.366962 
L 318.013178 179.632475 
L 318.180661 174.871907 
L 318.515629 155.516348 
L 318.850596 149.883524 
L 319.185564 177.30446 
L 319.353048 174.296919 
L 319.688015 158.41682 
L 320.190466 164.377073 
L 320.35795 160.064711 
L 320.525434 169.439576 
L 320.860401 160.999906 
L 321.027885 168.810212 
L 321.195369 168.64178 
L 321.362853 161.817414 
L 321.530336 159.590427 
L 321.69782 155.308338 
L 321.865304 160.298805 
L 322.032787 175.215383 
L 322.200271 172.253293 
L 322.367755 161.484108 
L 322.535239 162.062786 
L 322.702722 161.662033 
L 322.870206 160.02155 
L 323.205174 169.346724 
L 323.707625 154.781303 
L 324.210076 172.006677 
L 324.37756 160.607511 
L 324.712527 161.981162 
L 324.880011 160.825605 
L 325.047495 168.560631 
L 325.214979 169.836606 
L 325.549946 158.782465 
L 325.71743 152.815188 
L 326.219881 168.306892 
L 326.387365 164.747661 
L 326.554849 167.067313 
L 326.722332 157.343644 
L 326.889816 159.394498 
L 327.392267 172.799108 
L 327.727235 154.873399 
L 327.894718 151.893628 
L 328.062202 160.788624 
L 328.39717 151.696217 
L 328.564653 175.167617 
L 328.732137 175.352611 
L 329.569556 147.261134 
L 330.072007 176.194354 
L 330.406975 164.809729 
L 330.741942 148.218003 
L 331.07691 172.7884 
L 331.244393 162.754838 
L 331.411877 161.557959 
L 331.746845 152.167648 
L 331.914328 157.078265 
L 332.081812 178.592689 
L 332.416779 159.26083 
L 332.584263 162.396405 
L 332.751747 160.174393 
L 332.919231 154.834727 
L 333.254198 168.577568 
L 333.589166 157.841027 
L 333.756649 151.808021 
L 333.924133 157.084995 
L 334.091617 170.3909 
L 334.259101 163.529602 
L 334.426584 166.804329 
L 334.594068 166.18056 
L 334.761552 157.673187 
L 334.929036 157.677057 
L 335.096519 161.242826 
L 335.264003 157.22957 
L 335.431487 158.177071 
L 335.598971 170.259568 
L 335.766454 162.83339 
L 335.933938 160.350987 
L 336.101422 165.09502 
L 336.436389 152.118158 
L 337.106324 171.140107 
L 337.608775 152.548998 
L 337.776259 150.185172 
L 338.111227 178.76503 
L 338.446194 155.761823 
L 338.613678 158.756194 
L 338.781162 152.168384 
L 338.948645 152.380028 
L 339.116129 174.312312 
L 339.786064 151.806872 
L 339.953548 153.39653 
L 340.288515 174.317064 
L 340.455999 165.71534 
L 340.623483 165.29618 
L 340.790967 159.873209 
L 340.95845 159.772322 
L 341.125934 159.488096 
L 341.293418 156.569021 
L 341.460902 164.41348 
L 341.628385 159.494234 
L 341.795869 150.992611 
L 341.963353 156.716693 
L 342.130837 171.369809 
L 342.465804 158.496144 
L 342.633288 168.530548 
L 342.968255 156.725324 
L 343.135739 164.708964 
L 343.470706 154.704713 
L 343.805674 167.210042 
L 343.973158 167.112095 
L 344.140641 163.886069 
L 344.643093 147.45041 
L 344.97806 167.51634 
L 345.145544 179.950897 
L 345.815479 147.141894 
L 345.982963 150.550929 
L 346.150446 164.644018 
L 346.31793 164.285914 
L 346.485414 160.543342 
L 346.652898 160.172966 
L 346.820381 153.164847 
L 346.987865 160.202255 
L 347.155349 157.955084 
L 347.322833 169.253728 
L 347.490316 165.956696 
L 347.6578 158.157367 
L 347.825284 156.120545 
L 347.992767 155.691686 
L 348.160251 156.522291 
L 348.662702 167.101316 
L 348.830186 160.849281 
L 348.99767 161.138974 
L 349.165154 161.090481 
L 349.332637 158.93742 
L 349.500121 152.566701 
L 349.667605 157.955353 
L 349.835089 157.959582 
L 350.002572 162.380221 
L 350.170056 161.053432 
L 350.33754 167.015057 
L 350.505024 155.797916 
L 350.839991 162.469291 
L 351.342442 156.47684 
L 351.509926 164.630034 
L 351.844894 152.122568 
L 352.012377 165.866324 
L 352.179861 166.091548 
L 352.514829 150.672934 
L 352.682312 152.983447 
L 353.184763 170.155985 
L 354.022182 147.861957 
L 354.35715 166.841673 
L 354.524633 168.843606 
L 354.859601 158.038009 
L 355.027085 157.214803 
L 355.194568 153.876725 
L 355.362052 157.079451 
L 355.529536 162.687558 
L 355.69702 163.187534 
L 355.864503 159.009763 
L 356.031987 160.10078 
L 356.534438 148.648772 
L 356.869406 169.050192 
L 357.204373 162.569849 
L 357.371857 163.10366 
L 357.706825 150.314197 
L 358.041792 152.712141 
L 358.209276 151.767258 
L 358.376759 157.283692 
L 358.544243 156.115232 
L 358.711727 160.640417 
L 358.879211 159.275627 
L 359.046694 172.189371 
L 359.549146 155.91169 
L 359.884113 147.593413 
L 360.051597 145.874165 
L 360.386564 165.587068 
L 360.554048 158.116795 
L 360.721532 161.278313 
L 361.056499 157.479693 
L 361.223983 151.799815 
L 361.391467 163.637958 
L 361.726434 151.334483 
L 361.893918 153.407282 
L 362.228886 162.658518 
L 362.396369 160.662518 
L 362.563853 166.372138 
L 363.066304 148.568319 
L 363.233788 146.221961 
L 363.401272 159.749491 
L 363.568755 152.207603 
L 363.736239 163.261567 
L 363.903723 163.577152 
L 364.071207 162.199044 
L 364.573658 148.961355 
L 364.741142 150.282836 
L 364.908625 167.741774 
L 365.243593 158.256671 
L 365.411077 161.084527 
L 365.746044 149.564627 
L 365.913528 145.967502 
L 366.081012 163.0956 
L 366.248495 164.099342 
L 366.415979 162.276448 
L 366.750947 151.966825 
L 366.91843 149.96153 
L 367.085914 154.220408 
L 367.253398 167.153195 
L 367.420882 164.297896 
L 367.588365 153.913583 
L 367.755849 151.371751 
L 368.090817 155.549887 
L 368.2583 154.00267 
L 368.425784 165.590532 
L 368.593268 159.257797 
L 368.760751 157.408797 
L 369.095719 152.307846 
L 369.263203 152.521037 
L 369.430686 155.57895 
L 369.59817 167.365848 
L 369.933138 152.490666 
L 370.100621 152.34561 
L 370.268105 151.592973 
L 370.435589 153.760349 
L 370.603073 150.44676 
L 370.770556 161.770958 
L 370.93804 164.320788 
L 371.273008 152.881569 
L 371.440491 159.279303 
L 371.775459 151.599601 
L 371.942943 158.477366 
L 372.110426 155.717624 
L 372.27791 148.521293 
L 372.445394 156.807018 
L 372.612878 153.468482 
L 372.780361 161.132996 
L 372.947845 158.506881 
L 373.115329 165.369577 
L 373.282813 158.002307 
L 373.282813 158.002307 
" clip-path="url(#p6e7843bb7a)" style="fill: none; stroke: #1f77b4; stroke-width: 1.5; stroke-linecap: square"/>
   </g>
   <g id="line2d_15">
    <path d="M 38.482813 214.756364 
L 373.282813 148.865455 
L 373.282813 148.865455 
" clip-path="url(#p6e7843bb7a)" style="fill: none; stroke: #ff7f0e; stroke-width: 1.5; stroke-linecap: square"/>
   </g>
   <g id="line2d_16">
    <path d="M 38.482813 148.865455 
L 373.282813 82.974545 
L 373.282813 82.974545 
" clip-path="url(#p6e7843bb7a)" style="fill: none; stroke: #2ca02c; stroke-width: 1.5; stroke-linecap: square"/>
   </g>
   <g id="line2d_17">
    <path d="M 38.482813 148.865455 
L 373.282813 17.083636 
L 373.282813 17.083636 
" clip-path="url(#p6e7843bb7a)" style="fill: none; stroke: #d62728; stroke-width: 1.5; stroke-linecap: square"/>
   </g>
   <g id="patch_3">
    <path d="M 38.482813 224.64 
L 38.482813 7.2 
" style="fill: none; stroke: #000000; stroke-width: 0.8; stroke-linejoin: miter; stroke-linecap: square"/>
   </g>
   <g id="patch_4">
    <path d="M 373.282813 224.64 
L 373.282813 7.2 
" style="fill: none; stroke: #000000; stroke-width: 0.8; stroke-linejoin: miter; stroke-linecap: square"/>
   </g>
   <g id="patch_5">
    <path d="M 38.482813 224.64 
L 373.282813 224.64 
" style="fill: none; stroke: #000000; stroke-width: 0.8; stroke-linejoin: miter; stroke-linecap: square"/>
   </g>
   <g id="patch_6">
    <path d="M 38.482813 7.2 
L 373.282813 7.2 
" style="fill: none; stroke: #000000; stroke-width: 0.8; stroke-linejoin: miter; stroke-linecap: square"/>
   </g>
   <g id="legend_1">
    <g id="patch_7">
     <path d="M 45.482813 75.576562 
L 131.982812 75.576562 
Q 133.982812 75.576562 133.982812 73.576562 
L 133.982812 14.2 
Q 133.982812 12.2 131.982812 12.2 
L 45.482813 12.2 
Q 43.482813 12.2 43.482813 14.2 
L 43.482813 73.576562 
Q 43.482813 75.576562 45.482813 75.576562 
z
" style="fill: #ffffff; opacity: 0.8; stroke: #cccccc; stroke-linejoin: miter"/>
    </g>
    <g id="line2d_18">
     <path d="M 47.482813 21.9 
L 57.482813 21.9 
L 67.482812 21.9 
" style="fill: none; stroke: #1f77b4; stroke-width: 1.5; stroke-linecap: square"/>
    </g>
    <g id="text_14">
     <!-- $\hat{y}$ -->
     <g transform="translate(75.482812 25.4) scale(0.1 -0.1)">
      <defs>
       <path id="DejaVuSans-302" d="M -1831 5119 
L -1369 5119 
L -603 3944 
L -1038 3944 
L -1600 4709 
L -2163 3944 
L -2597 3944 
L -1831 5119 
z
M -1600 3584 
L -1600 3584 
z
" transform="scale(0.015625)"/>
       <path id="DejaVuSans-Oblique-79" d="M 1588 -325 
Q 1188 -997 936 -1164 
Q 684 -1331 294 -1331 
L -159 -1331 
L -63 -850 
L 269 -850 
Q 509 -850 678 -719 
Q 847 -588 1056 -206 
L 1234 128 
L 459 3500 
L 1069 3500 
L 1650 819 
L 3256 3500 
L 3859 3500 
L 1588 -325 
z
" transform="scale(0.015625)"/>
      </defs>
      <use xlink:href="#DejaVuSans-302" transform="translate(62.373047 12.015625)"/>
      <use xlink:href="#DejaVuSans-Oblique-79" transform="translate(0 0.828125)"/>
     </g>
    </g>
    <g id="line2d_19">
     <path d="M 47.482813 36.598437 
L 57.482813 36.598437 
L 67.482812 36.598437 
" style="fill: none; stroke: #ff7f0e; stroke-width: 1.5; stroke-linecap: square"/>
    </g>
    <g id="text_15">
     <!-- $x(t)=x-1$ -->
     <g transform="translate(75.482812 40.098437) scale(0.1 -0.1)">
      <defs>
       <path id="DejaVuSans-Oblique-78" d="M 3841 3500 
L 2234 1784 
L 3219 0 
L 2559 0 
L 1819 1388 
L 531 0 
L -166 0 
L 1556 1844 
L 641 3500 
L 1300 3500 
L 1972 2234 
L 3144 3500 
L 3841 3500 
z
" transform="scale(0.015625)"/>
       <path id="DejaVuSans-28" d="M 1984 4856 
Q 1566 4138 1362 3434 
Q 1159 2731 1159 2009 
Q 1159 1288 1364 580 
Q 1569 -128 1984 -844 
L 1484 -844 
Q 1016 -109 783 600 
Q 550 1309 550 2009 
Q 550 2706 781 3412 
Q 1013 4119 1484 4856 
L 1984 4856 
z
" transform="scale(0.015625)"/>
       <path id="DejaVuSans-Oblique-74" d="M 2706 3500 
L 2619 3053 
L 1472 3053 
L 1100 1153 
Q 1081 1047 1072 975 
Q 1063 903 1063 863 
Q 1063 663 1183 572 
Q 1303 481 1569 481 
L 2150 481 
L 2053 0 
L 1503 0 
Q 991 0 739 200 
Q 488 400 488 806 
Q 488 878 497 964 
Q 506 1050 525 1153 
L 897 3053 
L 409 3053 
L 500 3500 
L 978 3500 
L 1172 4494 
L 1747 4494 
L 1556 3500 
L 2706 3500 
z
" transform="scale(0.015625)"/>
       <path id="DejaVuSans-29" d="M 513 4856 
L 1013 4856 
Q 1481 4119 1714 3412 
Q 1947 2706 1947 2009 
Q 1947 1309 1714 600 
Q 1481 -109 1013 -844 
L 513 -844 
Q 928 -128 1133 580 
Q 1338 1288 1338 2009 
Q 1338 2731 1133 3434 
Q 928 4138 513 4856 
z
" transform="scale(0.015625)"/>
       <path id="DejaVuSans-3d" d="M 678 2906 
L 4684 2906 
L 4684 2381 
L 678 2381 
L 678 2906 
z
M 678 1631 
L 4684 1631 
L 4684 1100 
L 678 1100 
L 678 1631 
z
" transform="scale(0.015625)"/>
      </defs>
      <use xlink:href="#DejaVuSans-Oblique-78" transform="translate(0 0.125)"/>
      <use xlink:href="#DejaVuSans-28" transform="translate(59.179688 0.125)"/>
      <use xlink:href="#DejaVuSans-Oblique-74" transform="translate(98.193359 0.125)"/>
      <use xlink:href="#DejaVuSans-29" transform="translate(137.402344 0.125)"/>
      <use xlink:href="#DejaVuSans-3d" transform="translate(195.898438 0.125)"/>
      <use xlink:href="#DejaVuSans-Oblique-78" transform="translate(299.169922 0.125)"/>
      <use xlink:href="#DejaVuSans-2212" transform="translate(377.832031 0.125)"/>
      <use xlink:href="#DejaVuSans-31" transform="translate(481.103516 0.125)"/>
     </g>
    </g>
    <g id="line2d_20">
     <path d="M 47.482813 51.278125 
L 57.482813 51.278125 
L 67.482812 51.278125 
" style="fill: none; stroke: #2ca02c; stroke-width: 1.5; stroke-linecap: square"/>
    </g>
    <g id="text_16">
     <!-- $f(y)=y$ -->
     <g transform="translate(75.482812 54.778125) scale(0.1 -0.1)">
      <defs>
       <path id="DejaVuSans-Oblique-66" d="M 3059 4863 
L 2969 4384 
L 2419 4384 
Q 2106 4384 1964 4261 
Q 1822 4138 1753 3809 
L 1691 3500 
L 2638 3500 
L 2553 3053 
L 1606 3053 
L 1013 0 
L 434 0 
L 1031 3053 
L 481 3053 
L 563 3500 
L 1113 3500 
L 1159 3744 
Q 1278 4363 1576 4613 
Q 1875 4863 2516 4863 
L 3059 4863 
z
" transform="scale(0.015625)"/>
      </defs>
      <use xlink:href="#DejaVuSans-Oblique-66" transform="translate(0 0.015625)"/>
      <use xlink:href="#DejaVuSans-28" transform="translate(35.205078 0.015625)"/>
      <use xlink:href="#DejaVuSans-Oblique-79" transform="translate(74.21875 0.015625)"/>
      <use xlink:href="#DejaVuSans-29" transform="translate(133.398438 0.015625)"/>
      <use xlink:href="#DejaVuSans-3d" transform="translate(191.894531 0.015625)"/>
      <use xlink:href="#DejaVuSans-Oblique-79" transform="translate(295.166016 0.015625)"/>
     </g>
    </g>
    <g id="line2d_21">
     <path d="M 47.482813 65.976562 
L 57.482813 65.976562 
L 67.482812 65.976562 
" style="fill: none; stroke: #d62728; stroke-width: 1.5; stroke-linecap: square"/>
    </g>
    <g id="text_17">
     <!-- $y=2x+1$ -->
     <g transform="translate(75.482812 69.476562) scale(0.1 -0.1)">
      <defs>
       <path id="DejaVuSans-2b" d="M 2944 4013 
L 2944 2272 
L 4684 2272 
L 4684 1741 
L 2944 1741 
L 2944 0 
L 2419 0 
L 2419 1741 
L 678 1741 
L 678 2272 
L 2419 2272 
L 2419 4013 
L 2944 4013 
z
" transform="scale(0.015625)"/>
      </defs>
      <use xlink:href="#DejaVuSans-Oblique-79" transform="translate(0 0.78125)"/>
      <use xlink:href="#DejaVuSans-3d" transform="translate(78.662109 0.78125)"/>
      <use xlink:href="#DejaVuSans-32" transform="translate(181.933594 0.78125)"/>
      <use xlink:href="#DejaVuSans-Oblique-78" transform="translate(245.556641 0.78125)"/>
      <use xlink:href="#DejaVuSans-2b" transform="translate(324.21875 0.78125)"/>
      <use xlink:href="#DejaVuSans-31" transform="translate(427.490234 0.78125)"/>
     </g>
    </g>
   </g>
  </g>
 </g>
 <defs>
  <clipPath id="p6e7843bb7a">
   <rect x="38.482813" y="7.2" width="334.8" height="217.44"/>
  </clipPath>
 </defs>
</svg>
