<?xml version="1.0" encoding="utf-8" standalone="no"?>
<!DOCTYPE svg PUBLIC "-//W3C//DTD SVG 1.1//EN"
  "http://www.w3.org/Graphics/SVG/1.1/DTD/svg11.dtd">
<svg xmlns:xlink="http://www.w3.org/1999/xlink" width="394.796875pt" height="290.99625pt" viewBox="0 0 394.796875 290.99625" xmlns="http://www.w3.org/2000/svg" version="1.1">
 <metadata>
  <rdf:RDF xmlns:dc="http://purl.org/dc/elements/1.1/" xmlns:cc="http://creativecommons.org/ns#" xmlns:rdf="http://www.w3.org/1999/02/22-rdf-syntax-ns#">
   <cc:Work>
    <dc:type rdf:resource="http://purl.org/dc/dcmitype/StillImage"/>
    <dc:date>2022-10-31T20:32:12.973222</dc:date>
    <dc:format>image/svg+xml</dc:format>
    <dc:creator>
     <cc:Agent>
      <dc:title>Matplotlib v3.6.0, https://matplotlib.org/</dc:title>
     </cc:Agent>
    </dc:creator>
   </cc:Work>
  </rdf:RDF>
 </metadata>
 <defs>
  <style type="text/css">*{stroke-linejoin: round; stroke-linecap: butt}</style>
 </defs>
 <g id="figure_1">
  <g id="patch_1">
   <path d="M 0 290.99625 
L 394.796875 290.99625 
L 394.796875 0 
L 0 0 
L 0 290.99625 
z
" style="fill: none"/>
  </g>
  <g id="axes_1">
   <g id="patch_2">
    <path d="M 44.845313 253.44 
L 379.645313 253.44 
L 379.645313 36 
L 44.845313 36 
z
" style="fill: #ffffff"/>
   </g>
   <g id="matplotlib.axis_1">
    <g id="xtick_1">
     <g id="line2d_1">
      <defs>
       <path id="m8b6b5bea45" d="M 0 0 
L 0 3.5 
" style="stroke: #000000; stroke-width: 0.8"/>
      </defs>
      <g>
       <use xlink:href="#m8b6b5bea45" x="44.845312" y="253.44" style="stroke: #000000; stroke-width: 0.8"/>
      </g>
     </g>
     <g id="text_1">
      <!-- −1.0 -->
      <g transform="translate(32.703906 268.038437) scale(0.1 -0.1)">
       <defs>
        <path id="DejaVuSans-2212" d="M 678 2272 
L 4684 2272 
L 4684 1741 
L 678 1741 
L 678 2272 
z
" transform="scale(0.015625)"/>
        <path id="DejaVuSans-31" d="M 794 531 
L 1825 531 
L 1825 4091 
L 703 3866 
L 703 4441 
L 1819 4666 
L 2450 4666 
L 2450 531 
L 3481 531 
L 3481 0 
L 794 0 
L 794 531 
z
" transform="scale(0.015625)"/>
        <path id="DejaVuSans-2e" d="M 684 794 
L 1344 794 
L 1344 0 
L 684 0 
L 684 794 
z
" transform="scale(0.015625)"/>
        <path id="DejaVuSans-30" d="M 2034 4250 
Q 1547 4250 1301 3770 
Q 1056 3291 1056 2328 
Q 1056 1369 1301 889 
Q 1547 409 2034 409 
Q 2525 409 2770 889 
Q 3016 1369 3016 2328 
Q 3016 3291 2770 3770 
Q 2525 4250 2034 4250 
z
M 2034 4750 
Q 2819 4750 3233 4129 
Q 3647 3509 3647 2328 
Q 3647 1150 3233 529 
Q 2819 -91 2034 -91 
Q 1250 -91 836 529 
Q 422 1150 422 2328 
Q 422 3509 836 4129 
Q 1250 4750 2034 4750 
z
" transform="scale(0.015625)"/>
       </defs>
       <use xlink:href="#DejaVuSans-2212"/>
       <use xlink:href="#DejaVuSans-31" x="83.789062"/>
       <use xlink:href="#DejaVuSans-2e" x="147.412109"/>
       <use xlink:href="#DejaVuSans-30" x="179.199219"/>
      </g>
     </g>
    </g>
    <g id="xtick_2">
     <g id="line2d_2">
      <g>
       <use xlink:href="#m8b6b5bea45" x="111.805312" y="253.44" style="stroke: #000000; stroke-width: 0.8"/>
      </g>
     </g>
     <g id="text_2">
      <!-- −0.8 -->
      <g transform="translate(99.663906 268.038437) scale(0.1 -0.1)">
       <defs>
        <path id="DejaVuSans-38" d="M 2034 2216 
Q 1584 2216 1326 1975 
Q 1069 1734 1069 1313 
Q 1069 891 1326 650 
Q 1584 409 2034 409 
Q 2484 409 2743 651 
Q 3003 894 3003 1313 
Q 3003 1734 2745 1975 
Q 2488 2216 2034 2216 
z
M 1403 2484 
Q 997 2584 770 2862 
Q 544 3141 544 3541 
Q 544 4100 942 4425 
Q 1341 4750 2034 4750 
Q 2731 4750 3128 4425 
Q 3525 4100 3525 3541 
Q 3525 3141 3298 2862 
Q 3072 2584 2669 2484 
Q 3125 2378 3379 2068 
Q 3634 1759 3634 1313 
Q 3634 634 3220 271 
Q 2806 -91 2034 -91 
Q 1263 -91 848 271 
Q 434 634 434 1313 
Q 434 1759 690 2068 
Q 947 2378 1403 2484 
z
M 1172 3481 
Q 1172 3119 1398 2916 
Q 1625 2713 2034 2713 
Q 2441 2713 2670 2916 
Q 2900 3119 2900 3481 
Q 2900 3844 2670 4047 
Q 2441 4250 2034 4250 
Q 1625 4250 1398 4047 
Q 1172 3844 1172 3481 
z
" transform="scale(0.015625)"/>
       </defs>
       <use xlink:href="#DejaVuSans-2212"/>
       <use xlink:href="#DejaVuSans-30" x="83.789062"/>
       <use xlink:href="#DejaVuSans-2e" x="147.412109"/>
       <use xlink:href="#DejaVuSans-38" x="179.199219"/>
      </g>
     </g>
    </g>
    <g id="xtick_3">
     <g id="line2d_3">
      <g>
       <use xlink:href="#m8b6b5bea45" x="178.765313" y="253.44" style="stroke: #000000; stroke-width: 0.8"/>
      </g>
     </g>
     <g id="text_3">
      <!-- −0.6 -->
      <g transform="translate(166.623906 268.038437) scale(0.1 -0.1)">
       <defs>
        <path id="DejaVuSans-36" d="M 2113 2584 
Q 1688 2584 1439 2293 
Q 1191 2003 1191 1497 
Q 1191 994 1439 701 
Q 1688 409 2113 409 
Q 2538 409 2786 701 
Q 3034 994 3034 1497 
Q 3034 2003 2786 2293 
Q 2538 2584 2113 2584 
z
M 3366 4563 
L 3366 3988 
Q 3128 4100 2886 4159 
Q 2644 4219 2406 4219 
Q 1781 4219 1451 3797 
Q 1122 3375 1075 2522 
Q 1259 2794 1537 2939 
Q 1816 3084 2150 3084 
Q 2853 3084 3261 2657 
Q 3669 2231 3669 1497 
Q 3669 778 3244 343 
Q 2819 -91 2113 -91 
Q 1303 -91 875 529 
Q 447 1150 447 2328 
Q 447 3434 972 4092 
Q 1497 4750 2381 4750 
Q 2619 4750 2861 4703 
Q 3103 4656 3366 4563 
z
" transform="scale(0.015625)"/>
       </defs>
       <use xlink:href="#DejaVuSans-2212"/>
       <use xlink:href="#DejaVuSans-30" x="83.789062"/>
       <use xlink:href="#DejaVuSans-2e" x="147.412109"/>
       <use xlink:href="#DejaVuSans-36" x="179.199219"/>
      </g>
     </g>
    </g>
    <g id="xtick_4">
     <g id="line2d_4">
      <g>
       <use xlink:href="#m8b6b5bea45" x="245.725313" y="253.44" style="stroke: #000000; stroke-width: 0.8"/>
      </g>
     </g>
     <g id="text_4">
      <!-- −0.4 -->
      <g transform="translate(233.583906 268.038437) scale(0.1 -0.1)">
       <defs>
        <path id="DejaVuSans-34" d="M 2419 4116 
L 825 1625 
L 2419 1625 
L 2419 4116 
z
M 2253 4666 
L 3047 4666 
L 3047 1625 
L 3713 1625 
L 3713 1100 
L 3047 1100 
L 3047 0 
L 2419 0 
L 2419 1100 
L 313 1100 
L 313 1709 
L 2253 4666 
z
" transform="scale(0.015625)"/>
       </defs>
       <use xlink:href="#DejaVuSans-2212"/>
       <use xlink:href="#DejaVuSans-30" x="83.789062"/>
       <use xlink:href="#DejaVuSans-2e" x="147.412109"/>
       <use xlink:href="#DejaVuSans-34" x="179.199219"/>
      </g>
     </g>
    </g>
    <g id="xtick_5">
     <g id="line2d_5">
      <g>
       <use xlink:href="#m8b6b5bea45" x="312.685313" y="253.44" style="stroke: #000000; stroke-width: 0.8"/>
      </g>
     </g>
     <g id="text_5">
      <!-- −0.2 -->
      <g transform="translate(300.543906 268.038437) scale(0.1 -0.1)">
       <defs>
        <path id="DejaVuSans-32" d="M 1228 531 
L 3431 531 
L 3431 0 
L 469 0 
L 469 531 
Q 828 903 1448 1529 
Q 2069 2156 2228 2338 
Q 2531 2678 2651 2914 
Q 2772 3150 2772 3378 
Q 2772 3750 2511 3984 
Q 2250 4219 1831 4219 
Q 1534 4219 1204 4116 
Q 875 4013 500 3803 
L 500 4441 
Q 881 4594 1212 4672 
Q 1544 4750 1819 4750 
Q 2544 4750 2975 4387 
Q 3406 4025 3406 3419 
Q 3406 3131 3298 2873 
Q 3191 2616 2906 2266 
Q 2828 2175 2409 1742 
Q 1991 1309 1228 531 
z
" transform="scale(0.015625)"/>
       </defs>
       <use xlink:href="#DejaVuSans-2212"/>
       <use xlink:href="#DejaVuSans-30" x="83.789062"/>
       <use xlink:href="#DejaVuSans-2e" x="147.412109"/>
       <use xlink:href="#DejaVuSans-32" x="179.199219"/>
      </g>
     </g>
    </g>
    <g id="xtick_6">
     <g id="line2d_6">
      <g>
       <use xlink:href="#m8b6b5bea45" x="379.645313" y="253.44" style="stroke: #000000; stroke-width: 0.8"/>
      </g>
     </g>
     <g id="text_6">
      <!-- 0.0 -->
      <g transform="translate(371.69375 268.038437) scale(0.1 -0.1)">
       <use xlink:href="#DejaVuSans-30"/>
       <use xlink:href="#DejaVuSans-2e" x="63.623047"/>
       <use xlink:href="#DejaVuSans-30" x="95.410156"/>
      </g>
     </g>
    </g>
    <g id="text_7">
     <!-- $t$ -->
     <g transform="translate(210.245313 281.716562) scale(0.1 -0.1)">
      <defs>
       <path id="DejaVuSans-Oblique-74" d="M 2706 3500 
L 2619 3053 
L 1472 3053 
L 1100 1153 
Q 1081 1047 1072 975 
Q 1063 903 1063 863 
Q 1063 663 1183 572 
Q 1303 481 1569 481 
L 2150 481 
L 2053 0 
L 1503 0 
Q 991 0 739 200 
Q 488 400 488 806 
Q 488 878 497 964 
Q 506 1050 525 1153 
L 897 3053 
L 409 3053 
L 500 3500 
L 978 3500 
L 1172 4494 
L 1747 4494 
L 1556 3500 
L 2706 3500 
z
" transform="scale(0.015625)"/>
      </defs>
      <use xlink:href="#DejaVuSans-Oblique-74" transform="translate(0 0.78125)"/>
     </g>
    </g>
   </g>
   <g id="matplotlib.axis_2">
    <g id="ytick_1">
     <g id="line2d_7">
      <defs>
       <path id="me068b77d23" d="M 0 0 
L -3.5 0 
" style="stroke: #000000; stroke-width: 0.8"/>
      </defs>
      <g>
       <use xlink:href="#me068b77d23" x="44.845313" y="244.790651" style="stroke: #000000; stroke-width: 0.8"/>
      </g>
     </g>
     <g id="text_8">
      <!-- −1.25 -->
      <g transform="translate(7.2 248.58987) scale(0.1 -0.1)">
       <defs>
        <path id="DejaVuSans-35" d="M 691 4666 
L 3169 4666 
L 3169 4134 
L 1269 4134 
L 1269 2991 
Q 1406 3038 1543 3061 
Q 1681 3084 1819 3084 
Q 2600 3084 3056 2656 
Q 3513 2228 3513 1497 
Q 3513 744 3044 326 
Q 2575 -91 1722 -91 
Q 1428 -91 1123 -41 
Q 819 9 494 109 
L 494 744 
Q 775 591 1075 516 
Q 1375 441 1709 441 
Q 2250 441 2565 725 
Q 2881 1009 2881 1497 
Q 2881 1984 2565 2268 
Q 2250 2553 1709 2553 
Q 1456 2553 1204 2497 
Q 953 2441 691 2322 
L 691 4666 
z
" transform="scale(0.015625)"/>
       </defs>
       <use xlink:href="#DejaVuSans-2212"/>
       <use xlink:href="#DejaVuSans-31" x="83.789062"/>
       <use xlink:href="#DejaVuSans-2e" x="147.412109"/>
       <use xlink:href="#DejaVuSans-32" x="179.199219"/>
       <use xlink:href="#DejaVuSans-35" x="242.822266"/>
      </g>
     </g>
    </g>
    <g id="ytick_2">
     <g id="line2d_8">
      <g>
       <use xlink:href="#me068b77d23" x="44.845313" y="218.515281" style="stroke: #000000; stroke-width: 0.8"/>
      </g>
     </g>
     <g id="text_9">
      <!-- −1.00 -->
      <g transform="translate(7.2 222.314499) scale(0.1 -0.1)">
       <use xlink:href="#DejaVuSans-2212"/>
       <use xlink:href="#DejaVuSans-31" x="83.789062"/>
       <use xlink:href="#DejaVuSans-2e" x="147.412109"/>
       <use xlink:href="#DejaVuSans-30" x="179.199219"/>
       <use xlink:href="#DejaVuSans-30" x="242.822266"/>
      </g>
     </g>
    </g>
    <g id="ytick_3">
     <g id="line2d_9">
      <g>
       <use xlink:href="#me068b77d23" x="44.845313" y="192.23991" style="stroke: #000000; stroke-width: 0.8"/>
      </g>
     </g>
     <g id="text_10">
      <!-- −0.75 -->
      <g transform="translate(7.2 196.039129) scale(0.1 -0.1)">
       <defs>
        <path id="DejaVuSans-37" d="M 525 4666 
L 3525 4666 
L 3525 4397 
L 1831 0 
L 1172 0 
L 2766 4134 
L 525 4134 
L 525 4666 
z
" transform="scale(0.015625)"/>
       </defs>
       <use xlink:href="#DejaVuSans-2212"/>
       <use xlink:href="#DejaVuSans-30" x="83.789062"/>
       <use xlink:href="#DejaVuSans-2e" x="147.412109"/>
       <use xlink:href="#DejaVuSans-37" x="179.199219"/>
       <use xlink:href="#DejaVuSans-35" x="242.822266"/>
      </g>
     </g>
    </g>
    <g id="ytick_4">
     <g id="line2d_10">
      <g>
       <use xlink:href="#me068b77d23" x="44.845313" y="165.96454" style="stroke: #000000; stroke-width: 0.8"/>
      </g>
     </g>
     <g id="text_11">
      <!-- −0.50 -->
      <g transform="translate(7.2 169.763758) scale(0.1 -0.1)">
       <use xlink:href="#DejaVuSans-2212"/>
       <use xlink:href="#DejaVuSans-30" x="83.789062"/>
       <use xlink:href="#DejaVuSans-2e" x="147.412109"/>
       <use xlink:href="#DejaVuSans-35" x="179.199219"/>
       <use xlink:href="#DejaVuSans-30" x="242.822266"/>
      </g>
     </g>
    </g>
    <g id="ytick_5">
     <g id="line2d_11">
      <g>
       <use xlink:href="#me068b77d23" x="44.845313" y="139.689169" style="stroke: #000000; stroke-width: 0.8"/>
      </g>
     </g>
     <g id="text_12">
      <!-- −0.25 -->
      <g transform="translate(7.2 143.488388) scale(0.1 -0.1)">
       <use xlink:href="#DejaVuSans-2212"/>
       <use xlink:href="#DejaVuSans-30" x="83.789062"/>
       <use xlink:href="#DejaVuSans-2e" x="147.412109"/>
       <use xlink:href="#DejaVuSans-32" x="179.199219"/>
       <use xlink:href="#DejaVuSans-35" x="242.822266"/>
      </g>
     </g>
    </g>
    <g id="ytick_6">
     <g id="line2d_12">
      <g>
       <use xlink:href="#me068b77d23" x="44.845313" y="113.413799" style="stroke: #000000; stroke-width: 0.8"/>
      </g>
     </g>
     <g id="text_13">
      <!-- 0.00 -->
      <g transform="translate(15.579688 117.213017) scale(0.1 -0.1)">
       <use xlink:href="#DejaVuSans-30"/>
       <use xlink:href="#DejaVuSans-2e" x="63.623047"/>
       <use xlink:href="#DejaVuSans-30" x="95.410156"/>
       <use xlink:href="#DejaVuSans-30" x="159.033203"/>
      </g>
     </g>
    </g>
    <g id="ytick_7">
     <g id="line2d_13">
      <g>
       <use xlink:href="#me068b77d23" x="44.845313" y="87.138428" style="stroke: #000000; stroke-width: 0.8"/>
      </g>
     </g>
     <g id="text_14">
      <!-- 0.25 -->
      <g transform="translate(15.579688 90.937647) scale(0.1 -0.1)">
       <use xlink:href="#DejaVuSans-30"/>
       <use xlink:href="#DejaVuSans-2e" x="63.623047"/>
       <use xlink:href="#DejaVuSans-32" x="95.410156"/>
       <use xlink:href="#DejaVuSans-35" x="159.033203"/>
      </g>
     </g>
    </g>
    <g id="ytick_8">
     <g id="line2d_14">
      <g>
       <use xlink:href="#me068b77d23" x="44.845313" y="60.863057" style="stroke: #000000; stroke-width: 0.8"/>
      </g>
     </g>
     <g id="text_15">
      <!-- 0.50 -->
      <g transform="translate(15.579688 64.662276) scale(0.1 -0.1)">
       <use xlink:href="#DejaVuSans-30"/>
       <use xlink:href="#DejaVuSans-2e" x="63.623047"/>
       <use xlink:href="#DejaVuSans-35" x="95.410156"/>
       <use xlink:href="#DejaVuSans-30" x="159.033203"/>
      </g>
     </g>
    </g>
   </g>
   <g id="line2d_15">
    <path d="M 44.845312 113.413799 
L 47.523712 113.413799 
L 47.858512 115.042122 
L 48.193312 117.400436 
L 48.528112 122.390908 
L 48.862912 120.889318 
L 49.197712 136.262847 
L 49.532512 134.641622 
L 49.867312 136.732096 
L 50.202112 157.188947 
L 50.536912 160.057658 
L 50.871713 160.584888 
L 51.206512 152.03422 
L 51.541313 160.086135 
L 51.876112 164.578877 
L 52.210913 157.250657 
L 52.545712 144.848577 
L 52.880513 150.045163 
L 53.215312 145.676491 
L 53.550113 148.227586 
L 53.884912 146.144792 
L 54.219713 152.51925 
L 54.554512 144.442917 
L 54.889312 160.713446 
L 55.224112 160.422528 
L 55.558912 153.573915 
L 55.893712 161.990359 
L 56.228512 161.409268 
L 56.563312 157.940452 
L 57.232912 164.567628 
L 57.567712 160.323039 
L 57.902513 162.763717 
L 58.237312 176.176466 
L 58.572113 167.970378 
L 58.906912 169.415773 
L 59.241713 174.726526 
L 59.576512 159.967566 
L 59.911313 154.391857 
L 60.246112 155.485168 
L 60.580913 146.697799 
L 60.915712 147.636609 
L 61.250513 157.401684 
L 61.585312 160.878599 
L 61.920113 154.793948 
L 62.254912 154.910286 
L 62.924512 167.937091 
L 63.259313 169.279534 
L 63.594112 162.225673 
L 63.928913 160.679281 
L 64.263712 161.403093 
L 64.598513 156.852908 
L 64.933312 155.209602 
L 65.602913 158.466282 
L 65.937712 163.465938 
L 66.272513 156.202105 
L 66.607312 162.288041 
L 66.942113 159.4343 
L 67.276912 163.474707 
L 67.611713 162.85882 
L 67.946512 154.860832 
L 68.281313 160.753642 
L 68.616112 163.387175 
L 68.950913 158.771095 
L 69.285712 162.142367 
L 69.620513 159.887015 
L 69.955312 158.50195 
L 70.290113 161.526387 
L 70.624912 161.6017 
L 70.959713 157.112806 
L 71.294512 158.15114 
L 71.629313 167.240514 
L 71.964112 168.750323 
L 72.298913 159.79721 
L 72.633713 160.4903 
L 72.968513 150.067936 
L 73.303313 158.382786 
L 73.638113 138.790435 
L 73.972913 136.277027 
L 74.307713 135.955508 
L 74.642513 141.288496 
L 74.977312 161.67895 
L 75.312113 165.879033 
L 75.981713 178.644903 
L 76.651313 160.782771 
L 76.986112 156.195827 
L 77.320913 165.780099 
L 77.655712 160.960854 
L 77.990513 162.433268 
L 78.325312 166.805632 
L 78.660113 162.784121 
L 78.994912 164.508918 
L 79.329713 168.521049 
L 79.664513 178.862808 
L 79.999313 184.948828 
L 80.334113 183.374192 
L 80.668913 178.656854 
L 81.003713 202.328744 
L 81.338513 196.428416 
L 81.673313 199.065041 
L 82.008113 194.874586 
L 82.342913 192.090046 
L 82.677713 203.847245 
L 83.012513 193.13416 
L 83.347313 194.03583 
L 83.682113 185.974553 
L 84.351713 205.979696 
L 84.686513 207.708506 
L 85.021313 217.475011 
L 85.356112 218.197101 
L 85.690913 196.875499 
L 86.025712 198.309235 
L 86.360513 196.441582 
L 87.364913 217.587149 
L 87.699713 225.789272 
L 88.034513 215.923522 
L 88.369313 199.579099 
L 88.704113 190.046593 
L 89.373713 197.105345 
L 89.708513 212.485252 
L 90.043313 213.705332 
L 90.378113 223.427207 
L 91.047713 204.705972 
L 91.382513 211.112803 
L 91.717313 195.312737 
L 92.052113 212.566649 
L 92.386913 214.365609 
L 92.721713 213.984724 
L 93.056513 215.33989 
L 93.391313 209.516586 
L 93.726113 200.348729 
L 94.395713 209.892942 
L 94.730513 205.696636 
L 95.065313 207.044615 
L 95.400113 212.882243 
L 95.734913 207.516328 
L 96.069713 205.833728 
L 96.404513 196.6775 
L 96.739313 213.385346 
L 97.074113 209.741629 
L 97.408913 217.101662 
L 97.743713 221.903869 
L 98.078513 217.14503 
L 98.413313 224.063937 
L 98.748113 209.08387 
L 99.082913 205.935309 
L 99.417713 204.40116 
L 99.752513 195.824084 
L 100.087313 199.411304 
L 100.422113 198.548843 
L 100.756913 186.131486 
L 101.426513 211.714382 
L 101.761313 210.555369 
L 102.096113 215.163485 
L 102.430913 213.177352 
L 102.765713 216.066701 
L 103.100513 204.734152 
L 103.435313 201.49111 
L 103.770113 205.328696 
L 104.104913 198.844447 
L 104.439713 189.712997 
L 104.774513 195.927832 
L 105.109313 196.322478 
L 105.444113 206.588613 
L 105.778913 222.083406 
L 106.113713 213.81874 
L 106.448513 221.761758 
L 107.118113 212.018637 
L 107.452913 206.353415 
L 107.787713 206.400797 
L 108.122513 221.875361 
L 108.457313 223.167702 
L 109.126913 204.872657 
L 109.461713 202.698458 
L 109.796513 204.387962 
L 110.131313 201.614478 
L 110.466113 194.545923 
L 110.800913 196.274329 
L 111.135713 218.217308 
L 111.470513 220.221409 
L 111.805313 221.429999 
L 112.140113 207.307257 
L 112.474913 199.827216 
L 112.809713 197.161358 
L 113.144513 200.11961 
L 113.814113 211.654388 
L 114.148913 228.201417 
L 114.483713 229.042176 
L 114.818513 228.216379 
L 115.153313 213.977842 
L 115.488113 215.853308 
L 115.822913 209.023937 
L 116.157713 221.608438 
L 116.492513 220.028038 
L 116.827313 214.42691 
L 117.162113 218.883477 
L 117.496913 220.804146 
L 117.831713 235.218646 
L 118.166513 222.388917 
L 118.501313 219.892113 
L 118.836113 218.372935 
L 119.170913 204.952706 
L 119.505713 211.56705 
L 119.840513 210.226042 
L 120.175313 232.843722 
L 120.844913 223.123618 
L 121.179713 234.977173 
L 121.514513 220.891166 
L 121.849313 211.50393 
L 122.518913 222.049883 
L 122.853713 222.78303 
L 123.188513 221.876212 
L 123.523313 231.120285 
L 123.858113 227.530328 
L 124.192913 212.704748 
L 124.527713 218.80053 
L 124.862513 220.392667 
L 125.197313 214.298393 
L 125.532113 220.089153 
L 125.866913 223.14668 
L 126.201713 222.029872 
L 126.536513 220.245892 
L 126.871313 222.268504 
L 127.206113 225.255628 
L 127.540913 222.415666 
L 127.875713 224.426633 
L 128.210513 230.730336 
L 128.545313 228.351695 
L 129.214913 212.404075 
L 129.549713 217.421118 
L 129.884513 219.465145 
L 130.219313 224.496688 
L 130.554113 223.912077 
L 130.888913 228.880046 
L 131.223713 220.927063 
L 131.558513 219.513423 
L 131.893313 219.272954 
L 132.228113 222.406252 
L 132.562913 217.963817 
L 132.897713 220.288086 
L 133.232513 217.392959 
L 133.567313 223.223333 
L 133.902113 215.258128 
L 134.236913 217.223685 
L 134.571713 209.972568 
L 134.906513 218.068612 
L 135.241313 218.401274 
L 135.576113 224.055473 
L 135.910913 224.041931 
L 136.245713 215.741581 
L 136.580513 223.707581 
L 136.915313 216.199919 
L 137.250113 215.503429 
L 137.584913 234.4968 
L 137.919713 223.08377 
L 138.254513 217.015887 
L 138.589313 216.022673 
L 138.924113 218.419317 
L 139.258913 215.617941 
L 139.593713 225.70134 
L 139.928513 224.905832 
L 140.263313 229.688525 
L 140.598113 227.881494 
L 140.932913 218.733646 
L 141.267713 221.042836 
L 141.602513 211.159526 
L 141.937313 212.516129 
L 142.272113 222.625061 
L 142.606913 215.891383 
L 142.941713 222.015588 
L 143.276513 213.241565 
L 143.611313 227.557148 
L 143.946113 225.793948 
L 144.280913 234.118597 
L 144.615713 232.588547 
L 144.950513 227.950906 
L 145.285313 220.846405 
L 145.620113 217.329872 
L 145.954913 211.914578 
L 146.289713 209.12772 
L 146.624513 196.986671 
L 146.959313 190.683333 
L 147.294113 201.310534 
L 147.628913 184.561465 
L 147.963713 176.151389 
L 148.298513 175.141439 
L 148.633313 169.241258 
L 148.968113 159.335 
L 149.302913 157.719078 
L 149.637713 158.464979 
L 149.972513 150.112923 
L 150.307313 159.00662 
L 150.642113 149.336438 
L 150.976913 148.141272 
L 151.311713 139.644644 
L 151.646513 137.692858 
L 151.981313 142.334286 
L 152.316113 140.031701 
L 152.650913 134.362576 
L 153.320513 140.797481 
L 153.655313 153.635213 
L 153.990113 152.77339 
L 154.659713 140.944672 
L 154.994513 148.152411 
L 155.664113 125.109149 
L 155.998913 122.617142 
L 156.333713 125.706996 
L 156.668513 134.272035 
L 157.003313 131.759534 
L 157.338113 130.811274 
L 157.672913 142.575095 
L 158.007713 148.246585 
L 158.342513 147.023957 
L 158.677313 136.561362 
L 159.012113 135.292932 
L 159.346913 131.056124 
L 159.681713 136.500848 
L 160.016513 131.470727 
L 160.351313 133.064995 
L 160.686113 130.588568 
L 161.355713 139.884308 
L 161.690513 137.262371 
L 162.025313 139.307929 
L 162.360113 132.804859 
L 162.694913 140.088303 
L 163.029713 132.912025 
L 163.364513 140.935176 
L 163.699313 132.40181 
L 164.034113 134.164266 
L 165.373313 119.526185 
L 165.708113 132.767617 
L 166.042913 137.937157 
L 166.377713 138.06054 
L 166.712513 143.86183 
L 167.047313 146.510221 
L 167.382113 143.892528 
L 167.716913 142.76949 
L 168.051713 138.528172 
L 168.386513 138.824338 
L 168.721313 128.458593 
L 169.390913 125.244979 
L 169.725713 125.818277 
L 170.060513 125.115961 
L 170.395313 127.231807 
L 170.730113 133.037993 
L 171.064913 130.109343 
L 171.399713 124.878966 
L 171.734513 133.989803 
L 172.069313 132.071297 
L 172.738913 138.198463 
L 173.073713 132.593849 
L 173.408513 145.386816 
L 173.743313 152.983564 
L 174.078113 147.459748 
L 174.412913 135.310874 
L 174.747713 132.430411 
L 175.082513 139.326324 
L 175.417313 139.757227 
L 175.752113 137.856128 
L 176.086913 138.015961 
L 176.421713 149.554276 
L 177.091313 134.568467 
L 177.426113 126.167149 
L 177.760913 124.338063 
L 178.095713 120.924572 
L 178.430513 123.235763 
L 178.765313 123.819428 
L 179.100113 122.929723 
L 179.434913 131.922574 
L 179.769713 134.780009 
L 180.104513 136.427277 
L 180.439313 132.61415 
L 180.774113 147.348248 
L 181.108913 143.502534 
L 181.443713 145.690212 
L 181.778513 152.641264 
L 182.113313 147.952152 
L 182.448113 148.751461 
L 182.782913 148.745303 
L 183.452513 156.523594 
L 183.787313 148.869236 
L 184.122113 146.533633 
L 184.456913 128.192762 
L 184.791713 126.242823 
L 185.126513 115.929893 
L 185.461313 112.153633 
L 185.796113 116.319872 
L 186.130913 118.189252 
L 186.465713 124.680198 
L 186.800513 134.976151 
L 187.135313 134.061988 
L 187.470113 138.975233 
L 187.804913 136.399964 
L 188.474513 142.234325 
L 188.809313 131.112092 
L 189.144113 124.905394 
L 189.478913 132.518417 
L 189.813713 129.430458 
L 190.483313 140.606559 
L 190.818113 138.910603 
L 191.152913 143.742717 
L 191.822513 135.69552 
L 192.157313 139.76476 
L 192.492113 136.976991 
L 192.826913 137.58449 
L 193.161713 129.843471 
L 193.496513 134.624736 
L 193.831313 149.259064 
L 194.166113 146.991051 
L 194.500913 148.176833 
L 194.835713 146.08019 
L 195.170513 137.897109 
L 195.505313 135.508375 
L 196.174913 129.451992 
L 196.509713 128.264067 
L 196.844513 130.982071 
L 197.179313 128.488596 
L 197.514113 130.022345 
L 198.183713 147.729218 
L 198.518513 144.01422 
L 199.188113 134.133651 
L 199.522913 137.683576 
L 199.857713 150.847373 
L 200.192513 138.925913 
L 200.527313 138.016548 
L 200.862113 132.54936 
L 201.196913 124.141308 
L 201.531713 120.987203 
L 201.866513 125.485624 
L 202.201313 133.42649 
L 202.536113 133.608431 
L 202.870913 134.672725 
L 203.205713 138.879335 
L 203.540513 138.113233 
L 203.875313 130.384439 
L 204.210113 131.240591 
L 204.544913 128.879256 
L 204.879713 127.594727 
L 205.549313 141.903772 
L 205.884113 141.138033 
L 206.218913 149.434285 
L 206.553713 151.313735 
L 207.223313 149.461991 
L 207.892913 139.624522 
L 208.227713 125.076868 
L 208.562513 124.034503 
L 208.897313 124.301308 
L 210.236513 136.086146 
L 210.571313 135.591146 
L 210.906113 138.657584 
L 211.240913 143.901611 
L 211.575713 138.289268 
L 212.245313 140.065634 
L 212.580113 133.798791 
L 213.249713 148.063503 
L 213.584513 156.409138 
L 213.919313 158.792419 
L 214.254113 164.436993 
L 214.588913 176.306664 
L 214.923713 182.100935 
L 215.258513 183.689072 
L 215.593313 192.103489 
L 215.928113 195.673509 
L 216.262913 184.240631 
L 216.597713 188.418376 
L 216.932513 177.714175 
L 217.267313 188.478483 
L 217.602113 192.48335 
L 218.271713 210.612806 
L 218.606513 213.097755 
L 218.941313 211.090199 
L 219.276113 216.144397 
L 219.610913 215.542916 
L 219.945713 222.246435 
L 220.280513 212.947479 
L 220.615313 214.655156 
L 220.950113 209.86589 
L 221.284913 225.184792 
L 221.619713 221.003018 
L 221.954513 222.249986 
L 222.289313 222.302543 
L 222.624113 224.246117 
L 222.958913 223.625397 
L 223.293713 221.778602 
L 223.628513 218.347164 
L 223.963313 213.325294 
L 224.298113 225.711328 
L 224.632913 218.47464 
L 224.967713 216.83781 
L 225.302513 212.389553 
L 225.637313 214.956196 
L 225.972113 224.826466 
L 226.306913 224.378425 
L 226.641713 226.944593 
L 226.976513 219.709087 
L 227.311313 228.657784 
L 227.646113 215.839111 
L 227.980913 223.615086 
L 228.315713 213.102283 
L 228.650513 216.612895 
L 228.985313 221.439441 
L 229.320113 221.183049 
L 229.654913 228.608341 
L 229.989713 230.98998 
L 230.324513 234.845894 
L 230.659313 230.95963 
L 230.994113 214.930155 
L 231.328913 217.485806 
L 231.663713 201.965037 
L 233.002913 229.770411 
L 233.337713 220.893866 
L 233.672513 217.504095 
L 234.007313 219.391814 
L 234.342113 209.870268 
L 234.676913 213.700582 
L 235.011713 210.547651 
L 235.346513 222.837961 
L 235.681313 223.561517 
L 236.016113 234.410744 
L 237.020513 212.833699 
L 237.355313 217.568903 
L 237.690113 209.387097 
L 238.024913 218.239426 
L 238.359713 214.750123 
L 238.694513 228.801891 
L 239.029313 236.73125 
L 239.364113 230.009054 
L 239.698913 220.937252 
L 240.033713 227.479375 
L 240.368513 216.066992 
L 240.703313 215.585249 
L 241.038113 210.799635 
L 241.372913 224.931258 
L 241.707713 220.944819 
L 242.042513 226.908529 
L 242.377313 224.171826 
L 242.712113 226.884463 
L 243.046913 213.610285 
L 243.381713 224.722335 
L 243.716513 222.352341 
L 244.386113 210.248222 
L 244.720913 213.266052 
L 245.055713 222.032483 
L 245.390513 224.344462 
L 245.725313 222.37755 
L 246.060113 243.556364 
L 246.729713 214.9691 
L 247.064513 212.174409 
L 247.399313 200.860931 
L 247.734113 197.660649 
L 248.068913 195.859311 
L 248.403713 188.922773 
L 248.738513 186.95102 
L 249.073313 190.781226 
L 249.408113 186.836892 
L 249.742913 177.677222 
L 250.077713 181.022005 
L 250.412513 187.844313 
L 250.747313 188.432524 
L 251.082113 189.485326 
L 251.416913 181.970124 
L 251.751713 189.43904 
L 252.086513 190.674503 
L 252.421313 188.875167 
L 252.756113 198.16567 
L 253.090913 194.711061 
L 253.425713 189.802733 
L 253.760513 194.300136 
L 254.095313 187.99748 
L 254.430113 187.432443 
L 254.764913 185.624081 
L 255.099713 187.377163 
L 255.434513 183.401188 
L 255.769313 181.503688 
L 256.104113 183.954543 
L 256.438913 179.930645 
L 256.773713 173.014421 
L 257.108513 182.094191 
L 257.443313 171.554308 
L 257.778113 175.451048 
L 258.112913 173.932094 
L 258.447713 185.606573 
L 258.782513 186.787268 
L 259.117313 188.433353 
L 259.452113 188.368834 
L 259.786913 184.818691 
L 260.121713 185.423704 
L 260.456513 189.32105 
L 260.791313 181.239829 
L 261.126113 176.987186 
L 261.460913 165.238636 
L 261.795713 167.564523 
L 262.465313 175.912131 
L 262.800113 175.100726 
L 263.134913 181.972522 
L 263.469713 183.18029 
L 263.804513 188.288742 
L 264.139313 182.734994 
L 264.474113 182.717914 
L 264.808913 194.522244 
L 265.478513 179.119917 
L 265.813313 187.438395 
L 266.148113 185.951615 
L 266.482913 192.331473 
L 266.817713 189.150621 
L 267.152513 191.578937 
L 267.487313 185.248314 
L 267.822113 199.450666 
L 268.491713 179.944868 
L 268.826513 177.692474 
L 269.161313 172.046089 
L 269.496113 173.065513 
L 269.830913 167.506534 
L 270.165713 170.186369 
L 270.835313 190.831661 
L 271.170113 209.232616 
L 271.504913 200.030405 
L 271.839713 196.500368 
L 272.509313 178.598539 
L 272.844113 178.888535 
L 273.178913 176.428273 
L 273.513713 170.896499 
L 274.183313 187.841133 
L 274.518113 191.267953 
L 274.852913 185.598424 
L 275.187713 177.795084 
L 275.522513 174.443562 
L 275.857313 183.864176 
L 276.526913 179.777591 
L 276.861713 190.352299 
L 277.196513 195.276062 
L 277.531313 179.596018 
L 277.866113 180.498394 
L 278.200913 173.997722 
L 278.535713 174.199781 
L 278.870513 175.47878 
L 279.205313 172.534746 
L 279.540113 175.748278 
L 279.874913 187.388215 
L 280.209713 193.390083 
L 280.544513 202.897427 
L 280.879313 217.660417 
L 281.214113 215.745877 
L 281.548913 222.42814 
L 281.883713 211.461689 
L 282.218513 211.050547 
L 282.553313 216.969817 
L 282.888113 213.320269 
L 283.222913 214.107861 
L 283.557713 207.443078 
L 283.892513 208.224939 
L 284.896913 228.400243 
L 285.231713 232.538322 
L 285.901313 204.255415 
L 286.236113 216.271591 
L 286.570913 214.101212 
L 286.905713 232.074105 
L 287.240513 239.139221 
L 287.575313 236.4901 
L 287.910113 227.731713 
L 288.244913 215.929429 
L 288.579713 220.100627 
L 288.914513 211.12677 
L 289.249313 221.666503 
L 289.584113 226.609814 
L 289.918913 243.120441 
L 290.588513 230.073325 
L 290.923313 229.739789 
L 291.258113 210.10646 
L 291.592913 211.767052 
L 291.927713 209.327493 
L 292.262513 222.593327 
L 292.597313 220.219351 
L 292.932113 221.66686 
L 293.266913 231.827383 
L 293.601713 225.275293 
L 293.936513 224.731486 
L 294.606113 235.896584 
L 294.940913 238.578665 
L 295.275713 226.649793 
L 295.945313 217.280829 
L 296.280113 224.849726 
L 296.614913 229.388322 
L 296.949713 229.733853 
L 297.284513 217.993048 
L 297.619313 221.543595 
L 297.954113 222.256548 
L 298.288913 218.174139 
L 298.623713 232.065529 
L 298.958513 233.349901 
L 299.293313 233.151222 
L 299.628113 228.897836 
L 299.962913 215.262654 
L 300.297713 225.250046 
L 300.632513 215.396872 
L 300.967313 220.884802 
L 301.302113 235.795865 
L 301.636913 233.624315 
L 301.971713 217.584055 
L 302.306513 212.028898 
L 302.641313 214.597501 
L 302.976113 233.348068 
L 303.310913 229.384573 
L 303.645713 228.797741 
L 303.980513 230.436991 
L 304.315313 230.927942 
L 304.650113 220.659788 
L 304.984913 223.00504 
L 305.319713 220.705998 
L 305.654513 229.919079 
L 305.989313 224.402296 
L 306.324113 220.785545 
L 306.658913 223.617439 
L 306.993713 219.715586 
L 307.328513 230.751314 
L 307.663313 219.534856 
L 307.998113 219.230725 
L 308.332913 236.921251 
L 308.667713 239.320582 
L 309.337313 218.696662 
L 309.672113 218.901921 
L 310.006913 206.203033 
L 310.676513 228.99722 
L 311.011313 243.335193 
L 311.346113 242.200698 
L 311.680913 227.948195 
L 312.015713 230.578577 
L 312.350513 216.353142 
L 312.685313 216.248702 
L 313.020113 215.565362 
L 313.354913 215.150971 
L 313.689713 215.408209 
L 314.359313 199.962869 
L 315.363713 186.977237 
L 315.698513 180.079702 
L 316.033313 164.73248 
L 316.368113 170.219279 
L 316.702913 168.897686 
L 317.037713 165.877787 
L 317.372513 174.233399 
L 317.707313 177.16412 
L 318.042113 172.344834 
L 318.376913 170.091733 
L 318.711713 169.381775 
L 319.046513 162.445851 
L 319.381313 161.165607 
L 320.050913 150.593787 
L 320.385713 151.95288 
L 320.720513 156.930363 
L 321.055313 159.453681 
L 321.390113 172.976431 
L 321.724913 168.607502 
L 322.059713 167.872126 
L 322.394513 163.144816 
L 322.729313 160.409649 
L 323.064113 163.626096 
L 323.398913 165.124032 
L 324.068513 143.892471 
L 324.403313 147.415066 
L 324.738113 140.034449 
L 325.072913 140.17248 
L 325.742513 165.297449 
L 326.077313 170.409548 
L 326.412113 165.627865 
L 326.746913 165.081167 
L 327.416513 151.857301 
L 327.751313 155.12897 
L 328.086113 154.55729 
L 328.420913 160.338212 
L 328.755713 153.134549 
L 329.090513 149.784963 
L 329.425313 153.013952 
L 329.760113 138.359832 
L 330.094913 143.253582 
L 330.429713 140.498085 
L 330.764513 139.143634 
L 331.099313 146.638902 
L 331.434113 149.217803 
L 331.768913 159.400199 
L 332.103713 164.652067 
L 332.438513 163.235504 
L 332.773313 157.482042 
L 333.108113 156.655178 
L 333.777713 149.316712 
L 334.112513 159.338203 
L 334.447313 159.36836 
L 334.782113 156.297153 
L 335.116913 156.302649 
L 335.451713 158.159535 
L 335.786513 149.119627 
L 336.121313 157.614234 
L 336.456113 155.765993 
L 336.790913 158.856178 
L 337.125713 144.741175 
L 337.460513 155.216496 
L 337.795313 170.307238 
L 338.130113 168.156584 
L 338.799713 156.512266 
L 339.134513 157.63476 
L 339.469313 156.208999 
L 340.138913 148.075246 
L 340.473713 146.692591 
L 340.808513 146.851876 
L 341.143313 153.264811 
L 341.478113 151.178365 
L 341.812913 147.661688 
L 342.147713 152.405571 
L 342.482513 155.40634 
L 342.817313 160.183792 
L 343.152113 159.220597 
L 343.486913 166.422268 
L 343.821713 159.696246 
L 344.156513 161.602456 
L 344.491313 154.302181 
L 344.826113 154.313842 
L 345.495713 157.756244 
L 345.830513 151.30255 
L 346.500113 154.352051 
L 348.843713 200.693712 
L 349.178513 194.202479 
L 349.513313 196.019647 
L 349.848113 203.791219 
L 350.182913 203.466939 
L 350.517713 200.730323 
L 351.187313 219.300935 
L 351.522113 219.055306 
L 351.856913 214.438685 
L 352.191713 228.972701 
L 352.526513 225.046112 
L 352.861313 226.090934 
L 353.196113 221.825007 
L 353.530913 224.160477 
L 353.865713 228.098281 
L 354.200513 223.903145 
L 354.535313 227.92124 
L 354.870113 235.320175 
L 355.874513 214.318873 
L 356.209313 221.216771 
L 356.544113 217.465475 
L 356.878913 228.125758 
L 357.548513 240.457314 
L 358.218113 232.582248 
L 358.552913 232.207727 
L 358.887713 228.338213 
L 359.222513 230.859288 
L 359.892113 218.745965 
L 360.226913 222.033421 
L 360.561713 220.488454 
L 360.896513 227.130078 
L 361.231313 229.443745 
L 361.566113 241.392064 
L 361.900913 239.352637 
L 362.235713 233.499196 
L 362.570513 218.328572 
L 362.905313 224.434862 
L 363.574913 218.525342 
L 363.909713 221.544089 
L 364.579313 240.146415 
L 365.248913 236.078527 
L 365.583713 224.885784 
L 365.918513 224.888027 
L 366.253313 227.28224 
L 366.588113 224.543694 
L 366.922913 228.145691 
L 367.257713 226.538836 
L 367.592513 228.369119 
L 367.927313 215.122523 
L 368.262113 225.627208 
L 368.596913 230.285396 
L 368.931713 232.642595 
L 369.266513 227.130734 
L 369.601313 231.23238 
L 369.936113 233.520438 
L 370.270913 231.499589 
L 370.605713 225.122308 
L 370.940513 224.906804 
L 371.275313 227.808476 
L 371.610113 223.127358 
L 371.944913 223.186039 
L 372.279713 235.634817 
L 372.614513 235.838361 
L 372.949313 236.312128 
L 373.284113 229.264694 
L 373.618913 227.988865 
L 373.953713 218.311278 
L 374.288513 221.342826 
L 374.623313 227.507885 
L 375.292913 229.074124 
L 375.627713 233.399189 
L 376.297313 229.13216 
L 376.632113 229.223434 
L 376.966913 231.237439 
L 377.301713 220.959913 
L 377.636513 221.147179 
L 377.971313 229.621051 
L 378.306113 232.459957 
L 378.640913 226.890908 
L 378.975713 229.646857 
L 379.310513 230.441764 
L 379.310513 230.441764 
" clip-path="url(#p2872d993f1)" style="fill: none; stroke: #1f77b4; stroke-width: 1.5; stroke-linecap: square"/>
   </g>
   <g id="line2d_16">
    <path d="M 44.845312 154.190724 
L 77.990513 154.190724 
L 78.325312 195.839123 
L 111.470513 195.839123 
L 111.805313 207.032446 
L 144.950513 207.032446 
L 145.285313 132.199459 
L 178.430513 132.199459 
L 178.765313 133.136458 
L 211.910513 133.136458 
L 212.245313 206.35676 
L 245.390513 206.35676 
L 245.725313 174.30776 
L 278.870513 174.30776 
L 279.205313 211.281101 
L 312.350513 211.281101 
L 312.685313 149.766363 
L 345.830513 149.766363 
L 346.165313 217.609872 
L 379.310513 217.609872 
L 379.310513 217.609872 
" clip-path="url(#p2872d993f1)" style="fill: none; stroke: #ff7f0e; stroke-width: 1.5; stroke-linecap: square"/>
   </g>
   <g id="line2d_17">
    <path d="M 44.845312 89.866168 
L 77.990513 89.866168 
L 78.325312 173.162964 
L 111.470513 173.162964 
L 111.805313 195.549611 
L 144.950513 195.549611 
L 145.285313 45.883636 
L 178.430513 45.883636 
L 178.765313 47.757635 
L 211.910513 47.757635 
L 212.245313 194.198239 
L 245.390513 194.198239 
L 245.725313 130.100239 
L 278.870513 130.100239 
L 279.205313 204.046921 
L 312.350513 204.046921 
L 312.685313 81.017446 
L 345.830513 81.017446 
L 346.165313 216.704464 
L 379.310513 216.704464 
L 379.310513 216.704464 
" clip-path="url(#p2872d993f1)" style="fill: none; stroke: #2ca02c; stroke-width: 1.5; stroke-linecap: square"/>
   </g>
   <g id="patch_3">
    <path d="M 44.845313 253.44 
L 44.845313 36 
" style="fill: none; stroke: #000000; stroke-width: 0.8; stroke-linejoin: miter; stroke-linecap: square"/>
   </g>
   <g id="patch_4">
    <path d="M 379.645313 253.44 
L 379.645313 36 
" style="fill: none; stroke: #000000; stroke-width: 0.8; stroke-linejoin: miter; stroke-linecap: square"/>
   </g>
   <g id="patch_5">
    <path d="M 44.845312 253.44 
L 379.645313 253.44 
" style="fill: none; stroke: #000000; stroke-width: 0.8; stroke-linejoin: miter; stroke-linecap: square"/>
   </g>
   <g id="patch_6">
    <path d="M 44.845312 36 
L 379.645313 36 
" style="fill: none; stroke: #000000; stroke-width: 0.8; stroke-linejoin: miter; stroke-linecap: square"/>
   </g>
   <g id="legend_1">
    <g id="patch_7">
     <path d="M 51.845313 89.676562 
L 138.645313 89.676562 
Q 140.645313 89.676562 140.645313 87.676562 
L 140.645313 43 
Q 140.645313 41 138.645313 41 
L 51.845313 41 
Q 49.845313 41 49.845313 43 
L 49.845313 87.676562 
Q 49.845313 89.676562 51.845313 89.676562 
z
" style="fill: #ffffff; opacity: 0.8; stroke: #cccccc; stroke-linejoin: miter"/>
    </g>
    <g id="line2d_18">
     <path d="M 53.845313 50.7 
L 63.845313 50.7 
L 73.845313 50.7 
" style="fill: none; stroke: #1f77b4; stroke-width: 1.5; stroke-linecap: square"/>
    </g>
    <g id="text_16">
     <!-- $\hat{y}$ -->
     <g transform="translate(81.845313 54.2) scale(0.1 -0.1)">
      <defs>
       <path id="DejaVuSans-302" d="M -1831 5119 
L -1369 5119 
L -603 3944 
L -1038 3944 
L -1600 4709 
L -2163 3944 
L -2597 3944 
L -1831 5119 
z
M -1600 3584 
L -1600 3584 
z
" transform="scale(0.015625)"/>
       <path id="DejaVuSans-Oblique-79" d="M 1588 -325 
Q 1188 -997 936 -1164 
Q 684 -1331 294 -1331 
L -159 -1331 
L -63 -850 
L 269 -850 
Q 509 -850 678 -719 
Q 847 -588 1056 -206 
L 1234 128 
L 459 3500 
L 1069 3500 
L 1650 819 
L 3256 3500 
L 3859 3500 
L 1588 -325 
z
" transform="scale(0.015625)"/>
      </defs>
      <use xlink:href="#DejaVuSans-302" transform="translate(62.373047 12.015625)"/>
      <use xlink:href="#DejaVuSans-Oblique-79" transform="translate(0 0.828125)"/>
     </g>
    </g>
    <g id="line2d_19">
     <path d="M 53.845313 65.398437 
L 63.845313 65.398437 
L 73.845313 65.398437 
" style="fill: none; stroke: #ff7f0e; stroke-width: 1.5; stroke-linecap: square"/>
    </g>
    <g id="text_17">
     <!-- $x(t)=STEP$ -->
     <g transform="translate(81.845313 68.898437) scale(0.1 -0.1)">
      <defs>
       <path id="DejaVuSans-Oblique-78" d="M 3841 3500 
L 2234 1784 
L 3219 0 
L 2559 0 
L 1819 1388 
L 531 0 
L -166 0 
L 1556 1844 
L 641 3500 
L 1300 3500 
L 1972 2234 
L 3144 3500 
L 3841 3500 
z
" transform="scale(0.015625)"/>
       <path id="DejaVuSans-28" d="M 1984 4856 
Q 1566 4138 1362 3434 
Q 1159 2731 1159 2009 
Q 1159 1288 1364 580 
Q 1569 -128 1984 -844 
L 1484 -844 
Q 1016 -109 783 600 
Q 550 1309 550 2009 
Q 550 2706 781 3412 
Q 1013 4119 1484 4856 
L 1984 4856 
z
" transform="scale(0.015625)"/>
       <path id="DejaVuSans-29" d="M 513 4856 
L 1013 4856 
Q 1481 4119 1714 3412 
Q 1947 2706 1947 2009 
Q 1947 1309 1714 600 
Q 1481 -109 1013 -844 
L 513 -844 
Q 928 -128 1133 580 
Q 1338 1288 1338 2009 
Q 1338 2731 1133 3434 
Q 928 4138 513 4856 
z
" transform="scale(0.015625)"/>
       <path id="DejaVuSans-3d" d="M 678 2906 
L 4684 2906 
L 4684 2381 
L 678 2381 
L 678 2906 
z
M 678 1631 
L 4684 1631 
L 4684 1100 
L 678 1100 
L 678 1631 
z
" transform="scale(0.015625)"/>
       <path id="DejaVuSans-Oblique-53" d="M 3859 4513 
L 3738 3897 
Q 3422 4066 3111 4152 
Q 2800 4238 2509 4238 
Q 1944 4238 1609 3991 
Q 1275 3744 1275 3334 
Q 1275 3109 1398 2989 
Q 1522 2869 2034 2731 
L 2413 2638 
Q 3053 2472 3303 2217 
Q 3553 1963 3553 1503 
Q 3553 797 2998 353 
Q 2444 -91 1538 -91 
Q 1166 -91 791 -17 
Q 416 56 38 206 
L 166 856 
Q 513 641 861 531 
Q 1209 422 1556 422 
Q 2147 422 2503 684 
Q 2859 947 2859 1369 
Q 2859 1650 2717 1795 
Q 2575 1941 2106 2059 
L 1728 2156 
Q 1081 2325 845 2545 
Q 609 2766 609 3163 
Q 609 3859 1145 4304 
Q 1681 4750 2541 4750 
Q 2875 4750 3203 4690 
Q 3531 4631 3859 4513 
z
" transform="scale(0.015625)"/>
       <path id="DejaVuSans-Oblique-54" d="M 378 4666 
L 4325 4666 
L 4225 4134 
L 2559 4134 
L 1759 0 
L 1125 0 
L 1925 4134 
L 275 4134 
L 378 4666 
z
" transform="scale(0.015625)"/>
       <path id="DejaVuSans-Oblique-45" d="M 1081 4666 
L 4031 4666 
L 3928 4134 
L 1606 4134 
L 1338 2753 
L 3566 2753 
L 3463 2222 
L 1234 2222 
L 909 531 
L 3284 531 
L 3181 0 
L 172 0 
L 1081 4666 
z
" transform="scale(0.015625)"/>
       <path id="DejaVuSans-Oblique-50" d="M 1081 4666 
L 2541 4666 
Q 3178 4666 3512 4369 
Q 3847 4072 3847 3500 
Q 3847 2731 3353 2303 
Q 2859 1875 1966 1875 
L 1172 1875 
L 806 0 
L 172 0 
L 1081 4666 
z
M 1613 4147 
L 1275 2394 
L 2069 2394 
Q 2606 2394 2893 2669 
Q 3181 2944 3181 3456 
Q 3181 3784 2986 3965 
Q 2791 4147 2438 4147 
L 1613 4147 
z
" transform="scale(0.015625)"/>
      </defs>
      <use xlink:href="#DejaVuSans-Oblique-78" transform="translate(0 0.125)"/>
      <use xlink:href="#DejaVuSans-28" transform="translate(59.179688 0.125)"/>
      <use xlink:href="#DejaVuSans-Oblique-74" transform="translate(98.193359 0.125)"/>
      <use xlink:href="#DejaVuSans-29" transform="translate(137.402344 0.125)"/>
      <use xlink:href="#DejaVuSans-3d" transform="translate(195.898438 0.125)"/>
      <use xlink:href="#DejaVuSans-Oblique-53" transform="translate(299.169922 0.125)"/>
      <use xlink:href="#DejaVuSans-Oblique-54" transform="translate(362.646484 0.125)"/>
      <use xlink:href="#DejaVuSans-Oblique-45" transform="translate(423.730469 0.125)"/>
      <use xlink:href="#DejaVuSans-Oblique-50" transform="translate(486.914062 0.125)"/>
     </g>
    </g>
    <g id="line2d_20">
     <path d="M 53.845313 80.076562 
L 63.845313 80.076562 
L 73.845313 80.076562 
" style="fill: none; stroke: #2ca02c; stroke-width: 1.5; stroke-linecap: square"/>
    </g>
    <g id="text_18">
     <!-- $y$ -->
     <g transform="translate(81.845313 83.576562) scale(0.1 -0.1)">
      <use xlink:href="#DejaVuSans-Oblique-79" transform="translate(0 0.3125)"/>
     </g>
    </g>
   </g>
  </g>
  <g id="text_19">
   <!-- Decoded $\hat{y}$ and inputs -->
   <g transform="translate(141.085313 18.24) scale(0.12 -0.12)">
    <defs>
     <path id="DejaVuSans-44" d="M 1259 4147 
L 1259 519 
L 2022 519 
Q 2988 519 3436 956 
Q 3884 1394 3884 2338 
Q 3884 3275 3436 3711 
Q 2988 4147 2022 4147 
L 1259 4147 
z
M 628 4666 
L 1925 4666 
Q 3281 4666 3915 4102 
Q 4550 3538 4550 2338 
Q 4550 1131 3912 565 
Q 3275 0 1925 0 
L 628 0 
L 628 4666 
z
" transform="scale(0.015625)"/>
     <path id="DejaVuSans-65" d="M 3597 1894 
L 3597 1613 
L 953 1613 
Q 991 1019 1311 708 
Q 1631 397 2203 397 
Q 2534 397 2845 478 
Q 3156 559 3463 722 
L 3463 178 
Q 3153 47 2828 -22 
Q 2503 -91 2169 -91 
Q 1331 -91 842 396 
Q 353 884 353 1716 
Q 353 2575 817 3079 
Q 1281 3584 2069 3584 
Q 2775 3584 3186 3129 
Q 3597 2675 3597 1894 
z
M 3022 2063 
Q 3016 2534 2758 2815 
Q 2500 3097 2075 3097 
Q 1594 3097 1305 2825 
Q 1016 2553 972 2059 
L 3022 2063 
z
" transform="scale(0.015625)"/>
     <path id="DejaVuSans-63" d="M 3122 3366 
L 3122 2828 
Q 2878 2963 2633 3030 
Q 2388 3097 2138 3097 
Q 1578 3097 1268 2742 
Q 959 2388 959 1747 
Q 959 1106 1268 751 
Q 1578 397 2138 397 
Q 2388 397 2633 464 
Q 2878 531 3122 666 
L 3122 134 
Q 2881 22 2623 -34 
Q 2366 -91 2075 -91 
Q 1284 -91 818 406 
Q 353 903 353 1747 
Q 353 2603 823 3093 
Q 1294 3584 2113 3584 
Q 2378 3584 2631 3529 
Q 2884 3475 3122 3366 
z
" transform="scale(0.015625)"/>
     <path id="DejaVuSans-6f" d="M 1959 3097 
Q 1497 3097 1228 2736 
Q 959 2375 959 1747 
Q 959 1119 1226 758 
Q 1494 397 1959 397 
Q 2419 397 2687 759 
Q 2956 1122 2956 1747 
Q 2956 2369 2687 2733 
Q 2419 3097 1959 3097 
z
M 1959 3584 
Q 2709 3584 3137 3096 
Q 3566 2609 3566 1747 
Q 3566 888 3137 398 
Q 2709 -91 1959 -91 
Q 1206 -91 779 398 
Q 353 888 353 1747 
Q 353 2609 779 3096 
Q 1206 3584 1959 3584 
z
" transform="scale(0.015625)"/>
     <path id="DejaVuSans-64" d="M 2906 2969 
L 2906 4863 
L 3481 4863 
L 3481 0 
L 2906 0 
L 2906 525 
Q 2725 213 2448 61 
Q 2172 -91 1784 -91 
Q 1150 -91 751 415 
Q 353 922 353 1747 
Q 353 2572 751 3078 
Q 1150 3584 1784 3584 
Q 2172 3584 2448 3432 
Q 2725 3281 2906 2969 
z
M 947 1747 
Q 947 1113 1208 752 
Q 1469 391 1925 391 
Q 2381 391 2643 752 
Q 2906 1113 2906 1747 
Q 2906 2381 2643 2742 
Q 2381 3103 1925 3103 
Q 1469 3103 1208 2742 
Q 947 2381 947 1747 
z
" transform="scale(0.015625)"/>
     <path id="DejaVuSans-20" transform="scale(0.015625)"/>
     <path id="DejaVuSans-61" d="M 2194 1759 
Q 1497 1759 1228 1600 
Q 959 1441 959 1056 
Q 959 750 1161 570 
Q 1363 391 1709 391 
Q 2188 391 2477 730 
Q 2766 1069 2766 1631 
L 2766 1759 
L 2194 1759 
z
M 3341 1997 
L 3341 0 
L 2766 0 
L 2766 531 
Q 2569 213 2275 61 
Q 1981 -91 1556 -91 
Q 1019 -91 701 211 
Q 384 513 384 1019 
Q 384 1609 779 1909 
Q 1175 2209 1959 2209 
L 2766 2209 
L 2766 2266 
Q 2766 2663 2505 2880 
Q 2244 3097 1772 3097 
Q 1472 3097 1187 3025 
Q 903 2953 641 2809 
L 641 3341 
Q 956 3463 1253 3523 
Q 1550 3584 1831 3584 
Q 2591 3584 2966 3190 
Q 3341 2797 3341 1997 
z
" transform="scale(0.015625)"/>
     <path id="DejaVuSans-6e" d="M 3513 2113 
L 3513 0 
L 2938 0 
L 2938 2094 
Q 2938 2591 2744 2837 
Q 2550 3084 2163 3084 
Q 1697 3084 1428 2787 
Q 1159 2491 1159 1978 
L 1159 0 
L 581 0 
L 581 3500 
L 1159 3500 
L 1159 2956 
Q 1366 3272 1645 3428 
Q 1925 3584 2291 3584 
Q 2894 3584 3203 3211 
Q 3513 2838 3513 2113 
z
" transform="scale(0.015625)"/>
     <path id="DejaVuSans-69" d="M 603 3500 
L 1178 3500 
L 1178 0 
L 603 0 
L 603 3500 
z
M 603 4863 
L 1178 4863 
L 1178 4134 
L 603 4134 
L 603 4863 
z
" transform="scale(0.015625)"/>
     <path id="DejaVuSans-70" d="M 1159 525 
L 1159 -1331 
L 581 -1331 
L 581 3500 
L 1159 3500 
L 1159 2969 
Q 1341 3281 1617 3432 
Q 1894 3584 2278 3584 
Q 2916 3584 3314 3078 
Q 3713 2572 3713 1747 
Q 3713 922 3314 415 
Q 2916 -91 2278 -91 
Q 1894 -91 1617 61 
Q 1341 213 1159 525 
z
M 3116 1747 
Q 3116 2381 2855 2742 
Q 2594 3103 2138 3103 
Q 1681 3103 1420 2742 
Q 1159 2381 1159 1747 
Q 1159 1113 1420 752 
Q 1681 391 2138 391 
Q 2594 391 2855 752 
Q 3116 1113 3116 1747 
z
" transform="scale(0.015625)"/>
     <path id="DejaVuSans-75" d="M 544 1381 
L 544 3500 
L 1119 3500 
L 1119 1403 
Q 1119 906 1312 657 
Q 1506 409 1894 409 
Q 2359 409 2629 706 
Q 2900 1003 2900 1516 
L 2900 3500 
L 3475 3500 
L 3475 0 
L 2900 0 
L 2900 538 
Q 2691 219 2414 64 
Q 2138 -91 1772 -91 
Q 1169 -91 856 284 
Q 544 659 544 1381 
z
M 1991 3584 
L 1991 3584 
z
" transform="scale(0.015625)"/>
     <path id="DejaVuSans-74" d="M 1172 4494 
L 1172 3500 
L 2356 3500 
L 2356 3053 
L 1172 3053 
L 1172 1153 
Q 1172 725 1289 603 
Q 1406 481 1766 481 
L 2356 481 
L 2356 0 
L 1766 0 
Q 1100 0 847 248 
Q 594 497 594 1153 
L 594 3053 
L 172 3053 
L 172 3500 
L 594 3500 
L 594 4494 
L 1172 4494 
z
" transform="scale(0.015625)"/>
     <path id="DejaVuSans-73" d="M 2834 3397 
L 2834 2853 
Q 2591 2978 2328 3040 
Q 2066 3103 1784 3103 
Q 1356 3103 1142 2972 
Q 928 2841 928 2578 
Q 928 2378 1081 2264 
Q 1234 2150 1697 2047 
L 1894 2003 
Q 2506 1872 2764 1633 
Q 3022 1394 3022 966 
Q 3022 478 2636 193 
Q 2250 -91 1575 -91 
Q 1294 -91 989 -36 
Q 684 19 347 128 
L 347 722 
Q 666 556 975 473 
Q 1284 391 1588 391 
Q 1994 391 2212 530 
Q 2431 669 2431 922 
Q 2431 1156 2273 1281 
Q 2116 1406 1581 1522 
L 1381 1569 
Q 847 1681 609 1914 
Q 372 2147 372 2553 
Q 372 3047 722 3315 
Q 1072 3584 1716 3584 
Q 2034 3584 2315 3537 
Q 2597 3491 2834 3397 
z
" transform="scale(0.015625)"/>
    </defs>
    <use xlink:href="#DejaVuSans-44" transform="translate(0 0.828125)"/>
    <use xlink:href="#DejaVuSans-65" transform="translate(77.001953 0.828125)"/>
    <use xlink:href="#DejaVuSans-63" transform="translate(138.525391 0.828125)"/>
    <use xlink:href="#DejaVuSans-6f" transform="translate(193.505859 0.828125)"/>
    <use xlink:href="#DejaVuSans-64" transform="translate(254.6875 0.828125)"/>
    <use xlink:href="#DejaVuSans-65" transform="translate(318.164062 0.828125)"/>
    <use xlink:href="#DejaVuSans-64" transform="translate(379.6875 0.828125)"/>
    <use xlink:href="#DejaVuSans-20" transform="translate(443.164062 0.828125)"/>
    <use xlink:href="#DejaVuSans-302" transform="translate(537.324219 12.015625)"/>
    <use xlink:href="#DejaVuSans-Oblique-79" transform="translate(474.951172 0.828125)"/>
    <use xlink:href="#DejaVuSans-20" transform="translate(534.130859 0.828125)"/>
    <use xlink:href="#DejaVuSans-61" transform="translate(565.917969 0.828125)"/>
    <use xlink:href="#DejaVuSans-6e" transform="translate(627.197266 0.828125)"/>
    <use xlink:href="#DejaVuSans-64" transform="translate(690.576172 0.828125)"/>
    <use xlink:href="#DejaVuSans-20" transform="translate(754.052734 0.828125)"/>
    <use xlink:href="#DejaVuSans-69" transform="translate(785.839844 0.828125)"/>
    <use xlink:href="#DejaVuSans-6e" transform="translate(813.623047 0.828125)"/>
    <use xlink:href="#DejaVuSans-70" transform="translate(877.001953 0.828125)"/>
    <use xlink:href="#DejaVuSans-75" transform="translate(940.478516 0.828125)"/>
    <use xlink:href="#DejaVuSans-74" transform="translate(1003.857422 0.828125)"/>
    <use xlink:href="#DejaVuSans-73" transform="translate(1043.066406 0.828125)"/>
   </g>
  </g>
 </g>
 <defs>
  <clipPath id="p2872d993f1">
   <rect x="44.845313" y="36" width="334.8" height="217.44"/>
  </clipPath>
 </defs>
</svg>
