<?xml version="1.0" encoding="utf-8" standalone="no"?>
<!DOCTYPE svg PUBLIC "-//W3C//DTD SVG 1.1//EN"
  "http://www.w3.org/Graphics/SVG/1.1/DTD/svg11.dtd">
<svg xmlns:xlink="http://www.w3.org/1999/xlink" width="388.434375pt" height="277.318125pt" viewBox="0 0 388.434375 277.318125" xmlns="http://www.w3.org/2000/svg" version="1.1">
 <metadata>
  <rdf:RDF xmlns:dc="http://purl.org/dc/elements/1.1/" xmlns:cc="http://creativecommons.org/ns#" xmlns:rdf="http://www.w3.org/1999/02/22-rdf-syntax-ns#">
   <cc:Work>
    <dc:type rdf:resource="http://purl.org/dc/dcmitype/StillImage"/>
    <dc:date>2022-10-31T20:19:26.021214</dc:date>
    <dc:format>image/svg+xml</dc:format>
    <dc:creator>
     <cc:Agent>
      <dc:title>Matplotlib v3.6.0, https://matplotlib.org/</dc:title>
     </cc:Agent>
    </dc:creator>
   </cc:Work>
  </rdf:RDF>
 </metadata>
 <defs>
  <style type="text/css">*{stroke-linejoin: round; stroke-linecap: butt}</style>
 </defs>
 <g id="figure_1">
  <g id="patch_1">
   <path d="M -0 277.318125 
L 388.434375 277.318125 
L 388.434375 0 
L -0 0 
L -0 277.318125 
z
" style="fill: none"/>
  </g>
  <g id="axes_1">
   <g id="patch_2">
    <path d="M 38.482813 253.44 
L 373.282813 253.44 
L 373.282813 36 
L 38.482813 36 
z
" style="fill: #ffffff"/>
   </g>
   <g id="matplotlib.axis_1">
    <g id="xtick_1">
     <g id="line2d_1">
      <defs>
       <path id="mf09f5302ec" d="M 0 0 
L 0 3.5 
" style="stroke: #000000; stroke-width: 0.8"/>
      </defs>
      <g>
       <use xlink:href="#mf09f5302ec" x="38.482813" y="253.44" style="stroke: #000000; stroke-width: 0.8"/>
      </g>
     </g>
     <g id="text_1">
      <!-- −1.0 -->
      <g transform="translate(26.341406 268.038437) scale(0.1 -0.1)">
       <defs>
        <path id="DejaVuSans-2212" d="M 678 2272 
L 4684 2272 
L 4684 1741 
L 678 1741 
L 678 2272 
z
" transform="scale(0.015625)"/>
        <path id="DejaVuSans-31" d="M 794 531 
L 1825 531 
L 1825 4091 
L 703 3866 
L 703 4441 
L 1819 4666 
L 2450 4666 
L 2450 531 
L 3481 531 
L 3481 0 
L 794 0 
L 794 531 
z
" transform="scale(0.015625)"/>
        <path id="DejaVuSans-2e" d="M 684 794 
L 1344 794 
L 1344 0 
L 684 0 
L 684 794 
z
" transform="scale(0.015625)"/>
        <path id="DejaVuSans-30" d="M 2034 4250 
Q 1547 4250 1301 3770 
Q 1056 3291 1056 2328 
Q 1056 1369 1301 889 
Q 1547 409 2034 409 
Q 2525 409 2770 889 
Q 3016 1369 3016 2328 
Q 3016 3291 2770 3770 
Q 2525 4250 2034 4250 
z
M 2034 4750 
Q 2819 4750 3233 4129 
Q 3647 3509 3647 2328 
Q 3647 1150 3233 529 
Q 2819 -91 2034 -91 
Q 1250 -91 836 529 
Q 422 1150 422 2328 
Q 422 3509 836 4129 
Q 1250 4750 2034 4750 
z
" transform="scale(0.015625)"/>
       </defs>
       <use xlink:href="#DejaVuSans-2212"/>
       <use xlink:href="#DejaVuSans-31" x="83.789062"/>
       <use xlink:href="#DejaVuSans-2e" x="147.412109"/>
       <use xlink:href="#DejaVuSans-30" x="179.199219"/>
      </g>
     </g>
    </g>
    <g id="xtick_2">
     <g id="line2d_2">
      <g>
       <use xlink:href="#mf09f5302ec" x="105.442813" y="253.44" style="stroke: #000000; stroke-width: 0.8"/>
      </g>
     </g>
     <g id="text_2">
      <!-- −0.8 -->
      <g transform="translate(93.301406 268.038437) scale(0.1 -0.1)">
       <defs>
        <path id="DejaVuSans-38" d="M 2034 2216 
Q 1584 2216 1326 1975 
Q 1069 1734 1069 1313 
Q 1069 891 1326 650 
Q 1584 409 2034 409 
Q 2484 409 2743 651 
Q 3003 894 3003 1313 
Q 3003 1734 2745 1975 
Q 2488 2216 2034 2216 
z
M 1403 2484 
Q 997 2584 770 2862 
Q 544 3141 544 3541 
Q 544 4100 942 4425 
Q 1341 4750 2034 4750 
Q 2731 4750 3128 4425 
Q 3525 4100 3525 3541 
Q 3525 3141 3298 2862 
Q 3072 2584 2669 2484 
Q 3125 2378 3379 2068 
Q 3634 1759 3634 1313 
Q 3634 634 3220 271 
Q 2806 -91 2034 -91 
Q 1263 -91 848 271 
Q 434 634 434 1313 
Q 434 1759 690 2068 
Q 947 2378 1403 2484 
z
M 1172 3481 
Q 1172 3119 1398 2916 
Q 1625 2713 2034 2713 
Q 2441 2713 2670 2916 
Q 2900 3119 2900 3481 
Q 2900 3844 2670 4047 
Q 2441 4250 2034 4250 
Q 1625 4250 1398 4047 
Q 1172 3844 1172 3481 
z
" transform="scale(0.015625)"/>
       </defs>
       <use xlink:href="#DejaVuSans-2212"/>
       <use xlink:href="#DejaVuSans-30" x="83.789062"/>
       <use xlink:href="#DejaVuSans-2e" x="147.412109"/>
       <use xlink:href="#DejaVuSans-38" x="179.199219"/>
      </g>
     </g>
    </g>
    <g id="xtick_3">
     <g id="line2d_3">
      <g>
       <use xlink:href="#mf09f5302ec" x="172.402813" y="253.44" style="stroke: #000000; stroke-width: 0.8"/>
      </g>
     </g>
     <g id="text_3">
      <!-- −0.6 -->
      <g transform="translate(160.261406 268.038437) scale(0.1 -0.1)">
       <defs>
        <path id="DejaVuSans-36" d="M 2113 2584 
Q 1688 2584 1439 2293 
Q 1191 2003 1191 1497 
Q 1191 994 1439 701 
Q 1688 409 2113 409 
Q 2538 409 2786 701 
Q 3034 994 3034 1497 
Q 3034 2003 2786 2293 
Q 2538 2584 2113 2584 
z
M 3366 4563 
L 3366 3988 
Q 3128 4100 2886 4159 
Q 2644 4219 2406 4219 
Q 1781 4219 1451 3797 
Q 1122 3375 1075 2522 
Q 1259 2794 1537 2939 
Q 1816 3084 2150 3084 
Q 2853 3084 3261 2657 
Q 3669 2231 3669 1497 
Q 3669 778 3244 343 
Q 2819 -91 2113 -91 
Q 1303 -91 875 529 
Q 447 1150 447 2328 
Q 447 3434 972 4092 
Q 1497 4750 2381 4750 
Q 2619 4750 2861 4703 
Q 3103 4656 3366 4563 
z
" transform="scale(0.015625)"/>
       </defs>
       <use xlink:href="#DejaVuSans-2212"/>
       <use xlink:href="#DejaVuSans-30" x="83.789062"/>
       <use xlink:href="#DejaVuSans-2e" x="147.412109"/>
       <use xlink:href="#DejaVuSans-36" x="179.199219"/>
      </g>
     </g>
    </g>
    <g id="xtick_4">
     <g id="line2d_4">
      <g>
       <use xlink:href="#mf09f5302ec" x="239.362813" y="253.44" style="stroke: #000000; stroke-width: 0.8"/>
      </g>
     </g>
     <g id="text_4">
      <!-- −0.4 -->
      <g transform="translate(227.221406 268.038437) scale(0.1 -0.1)">
       <defs>
        <path id="DejaVuSans-34" d="M 2419 4116 
L 825 1625 
L 2419 1625 
L 2419 4116 
z
M 2253 4666 
L 3047 4666 
L 3047 1625 
L 3713 1625 
L 3713 1100 
L 3047 1100 
L 3047 0 
L 2419 0 
L 2419 1100 
L 313 1100 
L 313 1709 
L 2253 4666 
z
" transform="scale(0.015625)"/>
       </defs>
       <use xlink:href="#DejaVuSans-2212"/>
       <use xlink:href="#DejaVuSans-30" x="83.789062"/>
       <use xlink:href="#DejaVuSans-2e" x="147.412109"/>
       <use xlink:href="#DejaVuSans-34" x="179.199219"/>
      </g>
     </g>
    </g>
    <g id="xtick_5">
     <g id="line2d_5">
      <g>
       <use xlink:href="#mf09f5302ec" x="306.322813" y="253.44" style="stroke: #000000; stroke-width: 0.8"/>
      </g>
     </g>
     <g id="text_5">
      <!-- −0.2 -->
      <g transform="translate(294.181406 268.038437) scale(0.1 -0.1)">
       <defs>
        <path id="DejaVuSans-32" d="M 1228 531 
L 3431 531 
L 3431 0 
L 469 0 
L 469 531 
Q 828 903 1448 1529 
Q 2069 2156 2228 2338 
Q 2531 2678 2651 2914 
Q 2772 3150 2772 3378 
Q 2772 3750 2511 3984 
Q 2250 4219 1831 4219 
Q 1534 4219 1204 4116 
Q 875 4013 500 3803 
L 500 4441 
Q 881 4594 1212 4672 
Q 1544 4750 1819 4750 
Q 2544 4750 2975 4387 
Q 3406 4025 3406 3419 
Q 3406 3131 3298 2873 
Q 3191 2616 2906 2266 
Q 2828 2175 2409 1742 
Q 1991 1309 1228 531 
z
" transform="scale(0.015625)"/>
       </defs>
       <use xlink:href="#DejaVuSans-2212"/>
       <use xlink:href="#DejaVuSans-30" x="83.789062"/>
       <use xlink:href="#DejaVuSans-2e" x="147.412109"/>
       <use xlink:href="#DejaVuSans-32" x="179.199219"/>
      </g>
     </g>
    </g>
    <g id="xtick_6">
     <g id="line2d_6">
      <g>
       <use xlink:href="#mf09f5302ec" x="373.282813" y="253.44" style="stroke: #000000; stroke-width: 0.8"/>
      </g>
     </g>
     <g id="text_6">
      <!-- 0.0 -->
      <g transform="translate(365.33125 268.038437) scale(0.1 -0.1)">
       <use xlink:href="#DejaVuSans-30"/>
       <use xlink:href="#DejaVuSans-2e" x="63.623047"/>
       <use xlink:href="#DejaVuSans-30" x="95.410156"/>
      </g>
     </g>
    </g>
   </g>
   <g id="matplotlib.axis_2">
    <g id="ytick_1">
     <g id="line2d_7">
      <defs>
       <path id="m142d6c9e24" d="M 0 0 
L -3.5 0 
" style="stroke: #000000; stroke-width: 0.8"/>
      </defs>
      <g>
       <use xlink:href="#m142d6c9e24" x="38.482813" y="250.180306" style="stroke: #000000; stroke-width: 0.8"/>
      </g>
     </g>
     <g id="text_7">
      <!-- −1.2 -->
      <g transform="translate(7.2 253.979525) scale(0.1 -0.1)">
       <use xlink:href="#DejaVuSans-2212"/>
       <use xlink:href="#DejaVuSans-31" x="83.789062"/>
       <use xlink:href="#DejaVuSans-2e" x="147.412109"/>
       <use xlink:href="#DejaVuSans-32" x="179.199219"/>
      </g>
     </g>
    </g>
    <g id="ytick_2">
     <g id="line2d_8">
      <g>
       <use xlink:href="#m142d6c9e24" x="38.482813" y="218.852449" style="stroke: #000000; stroke-width: 0.8"/>
      </g>
     </g>
     <g id="text_8">
      <!-- −1.0 -->
      <g transform="translate(7.2 222.651668) scale(0.1 -0.1)">
       <use xlink:href="#DejaVuSans-2212"/>
       <use xlink:href="#DejaVuSans-31" x="83.789062"/>
       <use xlink:href="#DejaVuSans-2e" x="147.412109"/>
       <use xlink:href="#DejaVuSans-30" x="179.199219"/>
      </g>
     </g>
    </g>
    <g id="ytick_3">
     <g id="line2d_9">
      <g>
       <use xlink:href="#m142d6c9e24" x="38.482813" y="187.524592" style="stroke: #000000; stroke-width: 0.8"/>
      </g>
     </g>
     <g id="text_9">
      <!-- −0.8 -->
      <g transform="translate(7.2 191.323811) scale(0.1 -0.1)">
       <use xlink:href="#DejaVuSans-2212"/>
       <use xlink:href="#DejaVuSans-30" x="83.789062"/>
       <use xlink:href="#DejaVuSans-2e" x="147.412109"/>
       <use xlink:href="#DejaVuSans-38" x="179.199219"/>
      </g>
     </g>
    </g>
    <g id="ytick_4">
     <g id="line2d_10">
      <g>
       <use xlink:href="#m142d6c9e24" x="38.482813" y="156.196736" style="stroke: #000000; stroke-width: 0.8"/>
      </g>
     </g>
     <g id="text_10">
      <!-- −0.6 -->
      <g transform="translate(7.2 159.995954) scale(0.1 -0.1)">
       <use xlink:href="#DejaVuSans-2212"/>
       <use xlink:href="#DejaVuSans-30" x="83.789062"/>
       <use xlink:href="#DejaVuSans-2e" x="147.412109"/>
       <use xlink:href="#DejaVuSans-36" x="179.199219"/>
      </g>
     </g>
    </g>
    <g id="ytick_5">
     <g id="line2d_11">
      <g>
       <use xlink:href="#m142d6c9e24" x="38.482813" y="124.868879" style="stroke: #000000; stroke-width: 0.8"/>
      </g>
     </g>
     <g id="text_11">
      <!-- −0.4 -->
      <g transform="translate(7.2 128.668097) scale(0.1 -0.1)">
       <use xlink:href="#DejaVuSans-2212"/>
       <use xlink:href="#DejaVuSans-30" x="83.789062"/>
       <use xlink:href="#DejaVuSans-2e" x="147.412109"/>
       <use xlink:href="#DejaVuSans-34" x="179.199219"/>
      </g>
     </g>
    </g>
    <g id="ytick_6">
     <g id="line2d_12">
      <g>
       <use xlink:href="#m142d6c9e24" x="38.482813" y="93.541022" style="stroke: #000000; stroke-width: 0.8"/>
      </g>
     </g>
     <g id="text_12">
      <!-- −0.2 -->
      <g transform="translate(7.2 97.340241) scale(0.1 -0.1)">
       <use xlink:href="#DejaVuSans-2212"/>
       <use xlink:href="#DejaVuSans-30" x="83.789062"/>
       <use xlink:href="#DejaVuSans-2e" x="147.412109"/>
       <use xlink:href="#DejaVuSans-32" x="179.199219"/>
      </g>
     </g>
    </g>
    <g id="ytick_7">
     <g id="line2d_13">
      <g>
       <use xlink:href="#m142d6c9e24" x="38.482813" y="62.213165" style="stroke: #000000; stroke-width: 0.8"/>
      </g>
     </g>
     <g id="text_13">
      <!-- 0.0 -->
      <g transform="translate(15.579688 66.012384) scale(0.1 -0.1)">
       <use xlink:href="#DejaVuSans-30"/>
       <use xlink:href="#DejaVuSans-2e" x="63.623047"/>
       <use xlink:href="#DejaVuSans-30" x="95.410156"/>
      </g>
     </g>
    </g>
   </g>
   <g id="line2d_14">
    <path d="M 38.482813 62.213165 
L 40.826413 62.213165 
L 41.161213 64.639957 
L 41.496013 69.48111 
L 42.165613 92.569324 
L 42.500413 114.431113 
L 42.835213 112.73977 
L 43.170013 148.557946 
L 43.504813 146.458551 
L 43.839613 148.366383 
L 44.174413 144.706748 
L 44.509213 148.771169 
L 44.844013 147.445155 
L 45.178813 158.667671 
L 45.513613 159.536894 
L 45.848413 156.99517 
L 46.183213 181.395015 
L 46.518013 177.262075 
L 46.852813 167.58138 
L 47.187613 169.021771 
L 47.522413 169.884179 
L 47.857213 179.180391 
L 48.192013 173.005421 
L 48.526813 169.579993 
L 48.861613 158.18724 
L 49.196413 181.942494 
L 49.531213 162.448252 
L 49.866013 165.972345 
L 50.200813 167.943663 
L 50.535613 183.860654 
L 51.205213 166.727547 
L 51.540013 166.278052 
L 51.874813 167.776764 
L 52.544413 190.924319 
L 52.879213 181.115762 
L 53.214013 187.280493 
L 53.548813 182.385008 
L 53.883613 167.068858 
L 54.553213 172.397534 
L 54.888013 152.424497 
L 55.222813 180.244401 
L 55.557613 189.374569 
L 55.892413 193.192033 
L 56.227213 185.948786 
L 56.562013 170.719682 
L 56.896813 167.357462 
L 57.231613 167.782528 
L 57.566413 180.953775 
L 57.901213 187.39595 
L 58.236013 190.804437 
L 58.570813 192.869773 
L 58.905613 187.688029 
L 59.575213 164.52256 
L 59.910013 155.209642 
L 60.244813 159.469369 
L 60.579613 179.56874 
L 60.914413 186.150683 
L 61.249213 197.17287 
L 61.584013 178.736552 
L 61.918813 169.309758 
L 62.253613 154.982778 
L 62.588413 171.828254 
L 62.923213 164.389276 
L 63.258013 169.821048 
L 63.592813 171.14738 
L 63.927613 147.923312 
L 64.262413 148.913819 
L 64.932013 161.746213 
L 65.266813 188.614649 
L 65.601613 181.687563 
L 65.936413 195.10756 
L 66.271213 201.216459 
L 66.606013 184.968741 
L 66.940813 176.456254 
L 67.275613 184.619534 
L 67.610413 176.233854 
L 67.945213 172.946945 
L 68.280013 161.235837 
L 69.284413 212.554501 
L 69.619213 186.130812 
L 69.954013 176.16338 
L 70.288813 174.142627 
L 71.293213 126.989508 
L 71.628013 158.283378 
L 71.962813 178.485222 
L 72.297613 186.621565 
L 72.632413 187.908422 
L 72.967213 176.538641 
L 73.302013 150.240755 
L 73.971613 131.293374 
L 74.306413 111.86099 
L 74.976013 101.717695 
L 75.310813 101.076743 
L 75.980413 69.440885 
L 76.315213 70.142718 
L 76.650013 67.09599 
L 76.984813 66.082612 
L 77.319613 73.350429 
L 77.654413 65.001555 
L 77.989213 69.223512 
L 78.324013 80.670479 
L 78.658813 73.33709 
L 78.993613 91.441377 
L 79.328413 87.645437 
L 79.663213 91.609518 
L 79.998013 77.506018 
L 80.332813 75.454286 
L 80.667613 69.474143 
L 81.002413 76.666341 
L 81.337213 67.782101 
L 81.672013 50.416462 
L 82.006813 49.615637 
L 82.341613 52.433558 
L 82.676413 62.561662 
L 83.346013 72.653082 
L 83.680813 63.594514 
L 84.015613 58.056463 
L 84.350413 69.69458 
L 84.685213 86.83146 
L 85.020013 89.918966 
L 85.354813 79.472288 
L 85.689613 75.915009 
L 86.024413 79.93229 
L 86.359213 76.572176 
L 86.694013 71.695305 
L 87.028813 54.005812 
L 87.363613 45.883636 
L 87.698413 57.392306 
L 88.033213 54.149997 
L 88.368013 56.175885 
L 88.702813 54.816292 
L 89.037613 67.247812 
L 89.372413 69.180596 
L 89.707213 69.465213 
L 90.042013 80.913987 
L 90.711613 68.651813 
L 91.046413 71.497847 
L 91.381213 59.301404 
L 91.716013 71.419617 
L 92.050813 73.842621 
L 92.385613 67.62204 
L 92.720413 65.149183 
L 93.055213 74.45172 
L 93.390013 66.384865 
L 93.724813 64.678436 
L 94.394413 68.370092 
L 94.729213 66.505246 
L 95.398813 60.807359 
L 95.733613 54.331063 
L 96.068413 53.254769 
L 96.403213 61.140853 
L 96.738013 72.442595 
L 97.072813 66.372643 
L 97.407613 52.339068 
L 97.742413 56.887951 
L 98.412013 70.73557 
L 98.746813 75.144653 
L 99.081613 74.11665 
L 99.416413 70.585513 
L 99.751213 64.609017 
L 100.086013 52.766887 
L 100.420813 64.348139 
L 101.090413 58.570151 
L 101.760013 73.846688 
L 102.094813 88.948561 
L 102.429613 88.766134 
L 102.764413 78.502752 
L 103.099213 77.231658 
L 103.434013 76.429329 
L 103.768813 61.718853 
L 104.103613 59.788494 
L 104.438413 65.733673 
L 104.773213 66.917545 
L 105.108013 64.31051 
L 105.442813 73.009717 
L 105.777613 72.430604 
L 106.112413 69.216805 
L 106.447213 69.722204 
L 106.782013 78.402755 
L 107.116813 91.775627 
L 107.451613 98.792256 
L 107.786413 93.735543 
L 108.121213 104.720518 
L 108.456013 122.191392 
L 108.790813 118.096713 
L 109.125613 105.791149 
L 109.460413 107.420266 
L 109.795213 101.634797 
L 110.464813 117.645139 
L 110.799613 107.597026 
L 111.134413 107.963166 
L 111.469213 107.808427 
L 111.804013 100.65421 
L 112.138813 103.659749 
L 112.473613 110.075624 
L 112.808413 107.253268 
L 113.143213 118.288823 
L 113.478013 137.910341 
L 113.812813 135.811855 
L 114.147613 139.393415 
L 114.482413 124.458985 
L 114.817213 130.595228 
L 115.152013 133.547973 
L 115.486813 118.388316 
L 115.821613 109.557224 
L 116.156413 104.500417 
L 116.491213 102.008953 
L 116.826013 123.899008 
L 117.495613 110.080702 
L 117.830413 99.417535 
L 118.165213 109.530696 
L 118.500013 106.509748 
L 118.834813 98.370679 
L 119.169613 119.353955 
L 119.504413 115.100245 
L 119.839213 114.224257 
L 120.174013 129.981328 
L 120.508813 138.714387 
L 120.843613 135.230873 
L 121.178413 141.314511 
L 121.513213 129.821281 
L 121.848013 144.081423 
L 122.182813 131.254635 
L 122.517613 110.23702 
L 122.852413 103.496303 
L 123.187213 92.709047 
L 123.522013 97.349289 
L 123.856813 118.705148 
L 124.191613 118.459315 
L 124.526413 129.353472 
L 124.861213 108.572153 
L 125.530813 113.885286 
L 125.865613 122.367346 
L 126.200413 118.945591 
L 126.535213 120.124023 
L 126.870013 124.723724 
L 127.204813 132.650096 
L 127.539613 135.597827 
L 128.209213 115.068813 
L 128.544013 117.562703 
L 129.213613 104.569938 
L 129.548413 102.408192 
L 129.883213 112.878102 
L 130.218013 113.072327 
L 130.552813 126.284304 
L 130.887613 134.159424 
L 131.222413 133.045225 
L 131.557213 126.174713 
L 131.892013 127.824778 
L 132.226813 121.486139 
L 132.561613 118.171604 
L 132.896413 121.882838 
L 133.231213 113.736079 
L 133.566013 108.801471 
L 133.900813 119.189562 
L 134.235613 105.238327 
L 134.570413 111.564851 
L 134.905213 101.328433 
L 135.240013 130.138714 
L 135.574813 117.33246 
L 135.909613 115.581519 
L 136.244413 115.943284 
L 136.579213 112.111465 
L 136.914013 114.357804 
L 137.248813 125.997408 
L 137.583613 127.092906 
L 138.253213 120.47648 
L 138.588013 120.75414 
L 138.922813 119.253915 
L 139.257613 116.285134 
L 139.592413 117.512939 
L 139.927213 120.423845 
L 140.262013 140.459777 
L 140.596813 139.113446 
L 140.931613 142.172601 
L 141.266413 132.789817 
L 141.936013 124.042961 
L 142.605613 134.348545 
L 142.940413 147.905494 
L 143.275213 152.574569 
L 143.944813 136.660421 
L 144.279613 132.654947 
L 144.614413 124.137442 
L 145.284013 151.859669 
L 145.618813 140.08838 
L 145.953613 136.852731 
L 146.288413 142.772023 
L 146.623213 141.340074 
L 146.958013 145.850864 
L 147.292813 139.907576 
L 147.627613 137.551615 
L 147.962413 145.603053 
L 148.297213 148.621899 
L 148.632013 142.365961 
L 148.966813 143.468467 
L 149.301613 146.295565 
L 149.636413 124.848126 
L 149.971213 123.096769 
L 150.306013 126.103327 
L 150.975613 143.574638 
L 151.645213 154.260782 
L 151.980013 152.116035 
L 152.314813 151.320378 
L 152.649613 161.017129 
L 152.984413 149.925087 
L 153.319213 121.584367 
L 153.654013 125.980041 
L 153.988813 126.549856 
L 154.323613 137.820779 
L 154.658413 141.374295 
L 154.993213 158.767751 
L 155.328013 161.556612 
L 155.662813 158.741866 
L 156.332413 145.47394 
L 156.667213 142.816267 
L 157.002013 132.242942 
L 157.336813 131.06417 
L 157.671613 130.982671 
L 158.006413 134.852363 
L 158.341213 145.342838 
L 159.345613 127.232043 
L 159.680413 128.507374 
L 160.015213 138.966114 
L 160.350013 123.795603 
L 160.684813 121.43659 
L 161.019613 128.980107 
L 161.689213 151.732552 
L 162.358813 140.661239 
L 162.693613 151.012072 
L 163.028413 149.753489 
L 163.363213 152.69216 
L 164.032813 126.373735 
L 164.702413 165.472901 
L 165.037213 158.905526 
L 165.706813 138.419387 
L 166.041613 139.307603 
L 166.376413 138.116173 
L 166.711213 133.411511 
L 167.380813 139.106302 
L 167.715613 138.490736 
L 168.050413 144.309769 
L 168.385213 136.170247 
L 168.720013 138.995294 
L 169.054813 132.310496 
L 169.389613 120.489665 
L 169.724413 127.996696 
L 170.059213 122.021981 
L 170.394013 126.220246 
L 170.728813 123.774233 
L 171.063613 144.801523 
L 171.398413 142.73779 
L 171.733213 159.904132 
L 172.068013 159.626645 
L 172.402813 175.616676 
L 172.737613 167.548269 
L 173.072413 164.464581 
L 173.407213 170.755124 
L 173.742013 158.73535 
L 174.076813 160.274307 
L 174.746413 180.439729 
L 175.081213 177.202068 
L 175.416013 178.086205 
L 176.085613 188.726488 
L 176.420413 186.545534 
L 176.755213 175.706618 
L 177.090013 181.873953 
L 177.424813 211.566075 
L 177.759613 192.363324 
L 178.094413 207.656034 
L 178.429213 205.312827 
L 178.764013 213.895475 
L 179.098813 201.897029 
L 179.433613 202.849303 
L 179.768413 213.593841 
L 180.103213 208.53113 
L 180.438013 195.195156 
L 180.772813 200.046824 
L 181.107613 196.680707 
L 181.442413 208.048615 
L 181.777213 197.146408 
L 182.112013 192.29809 
L 182.446813 194.603193 
L 182.781613 201.91632 
L 183.116413 213.156664 
L 183.786013 201.379635 
L 184.120813 206.995211 
L 184.455613 204.888679 
L 184.790413 215.88885 
L 185.125213 219.981257 
L 185.460013 214.117007 
L 186.129613 184.857906 
L 186.464413 183.874795 
L 186.799213 193.497488 
L 187.134013 197.983347 
L 187.468813 200.60382 
L 187.803613 204.926528 
L 188.138413 213.837594 
L 188.473213 201.703456 
L 188.808013 199.4008 
L 189.142813 193.465805 
L 189.477613 202.527918 
L 189.812413 197.243374 
L 190.147213 194.146376 
L 190.482013 206.653571 
L 190.816813 202.030202 
L 191.151613 190.336772 
L 191.486413 207.224969 
L 191.821213 229.753764 
L 192.156013 226.721965 
L 192.490813 203.211215 
L 192.825613 195.56084 
L 193.160413 196.820809 
L 193.495213 192.091552 
L 193.830013 192.907367 
L 194.164813 199.92409 
L 194.499613 203.260945 
L 194.834413 216.98347 
L 195.504013 199.497894 
L 195.838813 205.121389 
L 196.173613 220.037656 
L 196.843213 205.721896 
L 197.178013 191.430982 
L 197.512813 204.701567 
L 197.847613 201.010518 
L 198.182413 208.808153 
L 198.517213 208.858687 
L 198.852013 210.256092 
L 199.186813 202.975921 
L 199.521613 203.9432 
L 200.191213 214.012227 
L 200.526013 197.774958 
L 200.860813 191.201286 
L 201.195613 200.793549 
L 201.530413 216.174313 
L 201.865213 205.127033 
L 202.200013 208.248516 
L 202.534813 203.100156 
L 202.869613 209.408066 
L 203.204413 194.904823 
L 203.539213 188.752871 
L 203.874013 199.19535 
L 204.208813 200.349547 
L 204.543613 199.726068 
L 204.878413 210.823261 
L 205.213213 204.985093 
L 205.548013 210.288856 
L 205.882813 212.847348 
L 206.552413 210.408018 
L 206.887213 207.313427 
L 207.556813 163.075107 
L 208.226413 137.192361 
L 208.561213 139.982933 
L 208.896013 152.824114 
L 209.230813 151.672975 
L 209.565613 145.787894 
L 209.900413 134.76768 
L 210.570013 140.294099 
L 210.904813 139.38228 
L 211.239613 136.324643 
L 211.574413 131.365057 
L 212.244013 127.071358 
L 212.578813 123.749678 
L 212.913613 131.085937 
L 213.248413 131.880343 
L 213.583213 139.335605 
L 213.918013 134.79533 
L 214.252813 142.908595 
L 214.587613 140.512209 
L 214.922413 132.329625 
L 215.257213 127.983959 
L 215.592013 130.264618 
L 215.926813 120.600622 
L 216.261613 107.118203 
L 216.596413 105.312026 
L 216.931213 131.78348 
L 217.266013 129.974817 
L 217.600813 134.767663 
L 217.935613 131.839596 
L 218.270413 115.852744 
L 218.605213 123.661087 
L 218.940013 126.179175 
L 219.609613 100.941489 
L 219.944413 104.518741 
L 220.279213 121.462622 
L 220.614013 114.956248 
L 220.948813 121.518104 
L 221.283613 132.046441 
L 221.618413 130.235927 
L 221.953213 145.492786 
L 222.288013 137.459662 
L 222.622813 134.454081 
L 222.957613 123.610484 
L 223.292413 127.681631 
L 223.627213 126.848392 
L 223.962013 116.881038 
L 224.631613 108.323966 
L 224.966413 108.992494 
L 225.301213 110.394213 
L 225.636013 125.223006 
L 225.970813 126.010937 
L 226.640413 134.156385 
L 226.975213 138.70183 
L 227.310013 133.824956 
L 227.644813 121.879966 
L 228.314413 106.82971 
L 228.649213 116.085331 
L 228.984013 115.944703 
L 229.318813 118.274812 
L 229.653613 107.122438 
L 229.988413 115.433853 
L 230.323213 120.776156 
L 230.658013 122.735855 
L 230.992813 135.048672 
L 231.327613 136.656304 
L 231.997213 142.545656 
L 232.332013 140.806689 
L 232.666813 143.881357 
L 233.001613 122.971993 
L 233.336413 121.943296 
L 233.671213 115.6618 
L 234.340813 118.643883 
L 234.675613 121.729709 
L 235.010413 126.946509 
L 235.345213 136.008435 
L 235.680013 138.373008 
L 236.014813 143.093941 
L 236.349613 135.193781 
L 236.684413 121.331314 
L 237.019213 119.01086 
L 237.354013 117.769852 
L 238.358413 93.544861 
L 238.693213 96.366946 
L 239.028013 130.022183 
L 239.362813 119.800718 
L 239.697613 124.77307 
L 240.367213 139.461817 
L 241.036813 148.426548 
L 241.371613 170.512012 
L 241.706413 180.640756 
L 242.041213 194.160337 
L 242.376013 197.671752 
L 242.710813 188.245122 
L 243.045613 181.984524 
L 243.380413 179.942667 
L 243.715213 173.327968 
L 244.384813 181.636728 
L 244.719613 221.622128 
L 245.054413 218.077869 
L 245.389213 219.135846 
L 245.724013 217.1889 
L 246.058813 213.279729 
L 246.393613 210.705725 
L 246.728413 209.093325 
L 247.063213 229.498915 
L 247.398013 223.838726 
L 247.732813 233.033579 
L 248.402413 212.324528 
L 249.072013 201.385721 
L 249.406813 213.094674 
L 249.741613 213.216758 
L 250.076413 233.643371 
L 251.080813 212.817239 
L 251.415613 220.078532 
L 251.750413 222.273671 
L 252.085213 213.528818 
L 252.420013 213.939446 
L 252.754813 215.418731 
L 253.089613 225.356045 
L 253.424413 224.512094 
L 254.094013 231.580145 
L 254.428813 218.793564 
L 254.763613 214.929351 
L 255.098413 205.333523 
L 255.433213 217.523336 
L 255.768013 216.616602 
L 256.102813 222.523981 
L 256.437613 243.556364 
L 256.772413 242.695633 
L 257.776813 201.128785 
L 258.111613 209.727161 
L 258.446413 208.802191 
L 258.781213 226.338336 
L 259.116013 219.93325 
L 259.450813 237.198113 
L 259.785613 231.464152 
L 260.120413 219.755474 
L 260.455213 214.847428 
L 260.790013 223.770647 
L 261.124813 229.550589 
L 261.459613 229.598613 
L 261.794413 221.463753 
L 262.129213 206.614057 
L 262.464013 205.906148 
L 262.798813 199.427767 
L 263.133613 207.576071 
L 263.468413 242.731114 
L 263.803213 228.588533 
L 264.472813 218.763336 
L 264.807613 225.80245 
L 265.142413 227.105978 
L 265.477213 223.812428 
L 265.812013 221.694177 
L 266.146813 224.808097 
L 266.481613 200.243787 
L 266.816413 202.550041 
L 267.151213 214.853515 
L 267.486013 217.656345 
L 267.820813 212.526499 
L 268.490413 238.046837 
L 268.825213 239.990922 
L 269.160013 230.9764 
L 269.494813 217.948005 
L 269.829613 209.550209 
L 270.164413 207.723325 
L 270.499213 219.374209 
L 270.834013 223.385543 
L 271.168813 221.789795 
L 271.503613 223.020194 
L 271.838413 227.223888 
L 272.173213 229.684253 
L 272.508013 215.958485 
L 272.842813 210.940221 
L 273.177613 204.226906 
L 273.512413 205.794834 
L 273.847213 198.803178 
L 274.516813 166.725991 
L 274.851613 166.533247 
L 275.186413 148.173126 
L 275.521213 152.236971 
L 275.856013 152.294972 
L 276.190813 146.25421 
L 276.525613 127.932744 
L 276.860413 124.497945 
L 277.195213 124.541952 
L 277.530013 103.138113 
L 277.864813 93.228412 
L 278.199613 92.441176 
L 278.534413 103.749321 
L 278.869213 103.804189 
L 279.204013 109.65454 
L 279.538813 111.008771 
L 279.873613 109.959969 
L 280.208413 96.550953 
L 280.543213 92.449288 
L 280.878013 91.552897 
L 281.212813 86.308474 
L 281.547613 84.180767 
L 281.882413 91.815432 
L 282.217213 87.805472 
L 282.552013 79.564119 
L 282.886813 77.976879 
L 283.221613 89.956119 
L 283.556413 83.295883 
L 283.891213 93.246934 
L 284.226013 80.850792 
L 284.560813 78.448279 
L 284.895613 85.844334 
L 285.230413 89.384365 
L 285.565213 91.207121 
L 285.900013 100.67082 
L 286.234813 88.939172 
L 286.569613 88.424062 
L 286.904413 98.235682 
L 287.239213 98.225912 
L 287.908813 74.266924 
L 288.243613 80.189651 
L 288.578413 75.643083 
L 288.913213 90.564795 
L 289.248013 89.706015 
L 289.582813 80.342565 
L 289.917613 82.786701 
L 290.252413 79.366167 
L 290.587213 81.175201 
L 290.922013 79.330251 
L 291.256813 80.929492 
L 291.591613 91.883629 
L 291.926413 96.863875 
L 292.261213 104.040594 
L 292.596013 88.284475 
L 292.930813 90.745703 
L 293.265613 85.751592 
L 293.600413 92.378512 
L 293.935213 88.587765 
L 294.270013 92.366024 
L 294.604813 81.301478 
L 294.939613 85.637699 
L 295.274413 92.890153 
L 295.609213 84.776289 
L 295.944013 97.778716 
L 296.948413 59.716943 
L 297.283213 67.173109 
L 297.618013 69.522751 
L 297.952813 66.094134 
L 298.957213 99.420667 
L 299.292013 94.659089 
L 299.626813 98.375536 
L 299.961613 108.986523 
L 300.296413 107.822039 
L 300.631213 108.231071 
L 300.966013 109.666835 
L 301.300813 103.748266 
L 301.635613 95.616859 
L 301.970413 95.425921 
L 302.305213 73.127836 
L 302.974813 65.507563 
L 303.309613 75.197409 
L 303.644413 79.248 
L 303.979213 72.948626 
L 304.314013 79.936798 
L 304.648813 83.387215 
L 304.983613 85.216677 
L 305.318413 88.69113 
L 305.653213 94.784919 
L 305.988013 82.763533 
L 306.322813 77.322979 
L 306.657613 91.88222 
L 306.992413 87.182235 
L 307.327213 95.337656 
L 307.662013 98.501812 
L 307.996813 111.145683 
L 308.331613 117.121319 
L 308.666413 132.931403 
L 309.001213 127.973052 
L 309.336013 120.502102 
L 309.670813 116.658288 
L 310.005613 118.431792 
L 310.675213 104.258825 
L 311.010013 115.407058 
L 311.344813 116.084316 
L 311.679613 114.930846 
L 312.014413 116.214497 
L 312.349213 112.76149 
L 313.018813 100.150359 
L 313.353613 113.541351 
L 313.688413 114.860299 
L 314.023213 120.85968 
L 314.358013 122.442763 
L 314.692813 133.546846 
L 315.027613 129.532537 
L 315.362413 131.612019 
L 315.697213 130.294247 
L 316.032013 136.533033 
L 316.366813 139.356003 
L 317.036413 114.668299 
L 317.371213 118.547059 
L 317.706013 113.578436 
L 318.040813 115.858768 
L 318.375613 122.925353 
L 318.710413 123.408108 
L 319.045213 126.656856 
L 319.380013 120.02763 
L 319.714813 121.413308 
L 320.384413 111.497225 
L 320.719213 122.099977 
L 321.054013 124.349123 
L 321.388813 122.335311 
L 321.723613 134.584053 
L 322.058413 135.535159 
L 322.393213 122.690821 
L 322.728013 117.393583 
L 323.062813 121.596031 
L 323.397613 106.502068 
L 323.732413 97.701018 
L 324.067213 106.2112 
L 324.402013 109.31152 
L 324.736813 110.423232 
L 325.071613 121.580314 
L 325.406413 119.208712 
L 325.741213 124.236618 
L 326.076013 120.925308 
L 326.410813 123.485513 
L 327.080413 121.202282 
L 327.415213 136.901244 
L 327.750013 129.330373 
L 328.084813 142.837144 
L 328.419613 128.80874 
L 328.754413 134.807541 
L 329.089213 136.815788 
L 329.424013 132.286031 
L 329.758813 133.997069 
L 330.093613 124.179226 
L 330.428413 128.988076 
L 331.098013 108.291833 
L 331.432813 102.96649 
L 331.767613 105.079773 
L 332.102413 112.644872 
L 332.437213 110.090067 
L 332.772013 111.603281 
L 333.106813 124.143022 
L 333.441613 121.064966 
L 333.776413 130.234441 
L 334.111213 135.651971 
L 334.446013 135.480563 
L 334.780813 139.316604 
L 335.115613 137.128903 
L 335.785213 118.756152 
L 336.120013 120.437135 
L 336.454813 110.334921 
L 336.789613 110.822594 
L 337.124413 108.454994 
L 337.459213 120.104563 
L 337.794013 136.71339 
L 338.128813 137.355184 
L 338.463613 132.110945 
L 338.798413 120.275807 
L 339.133213 113.048366 
L 339.802813 93.206585 
L 340.137613 90.300928 
L 340.472413 107.369589 
L 341.142013 123.014813 
L 341.811613 175.315583 
L 342.146413 177.22313 
L 342.481213 163.742511 
L 343.150813 152.112802 
L 343.485613 166.351718 
L 343.820413 158.614245 
L 344.155213 146.213765 
L 344.490013 138.948405 
L 344.824813 152.309535 
L 345.159613 146.10377 
L 345.494413 156.187391 
L 346.164013 154.928067 
L 346.498813 152.016406 
L 346.833613 154.115275 
L 347.168413 158.851222 
L 347.503213 161.605781 
L 347.838013 157.264601 
L 348.172813 160.445686 
L 348.507613 173.453128 
L 348.842413 177.819355 
L 349.177213 175.867972 
L 349.512013 160.247158 
L 349.846813 151.961173 
L 350.181613 149.477213 
L 350.516413 149.082367 
L 350.851213 159.894126 
L 351.186013 157.037681 
L 351.520813 152.040152 
L 352.190413 168.271439 
L 352.525213 157.616158 
L 352.860013 153.004227 
L 353.194813 166.218441 
L 353.529613 165.847639 
L 353.864413 172.58872 
L 354.199213 165.409818 
L 354.534013 166.10484 
L 354.868813 162.659534 
L 355.203613 169.051751 
L 355.538413 185.700829 
L 355.873213 182.882375 
L 356.208013 172.828713 
L 356.542813 168.448501 
L 356.877613 182.987097 
L 357.547213 148.927433 
L 357.882013 146.209677 
L 358.216813 150.792342 
L 358.551613 161.243906 
L 358.886413 158.299115 
L 359.221213 157.544941 
L 359.556013 147.386215 
L 359.890813 158.331526 
L 360.225613 145.20728 
L 360.560413 139.989275 
L 360.895213 141.908329 
L 361.230013 140.874213 
L 361.564813 155.030601 
L 362.234413 170.813499 
L 362.569213 174.211569 
L 362.904013 171.070371 
L 363.238813 157.492964 
L 363.908413 153.634365 
L 364.243213 160.384152 
L 364.578013 159.119859 
L 364.912813 172.371911 
L 365.247613 161.866516 
L 365.582413 164.755553 
L 365.917213 175.617975 
L 366.252013 157.79259 
L 366.586813 158.673912 
L 366.921613 151.520419 
L 367.256413 155.736283 
L 367.591213 167.3039 
L 367.926013 156.388038 
L 368.260813 160.869487 
L 368.595613 159.097895 
L 369.600013 189.912329 
L 369.934813 194.378313 
L 370.604413 166.287323 
L 370.939213 145.009927 
L 371.274013 147.123641 
L 371.608813 141.607214 
L 371.943613 144.88273 
L 372.278413 151.127789 
L 372.948013 188.547638 
L 372.948013 188.547638 
" clip-path="url(#pa2f0cfc34c)" style="fill: none; stroke: #1f77b4; stroke-width: 1.5; stroke-linecap: square"/>
   </g>
   <g id="line2d_15">
    <path d="M 38.482813 159.940861 
L 71.628013 159.940861 
L 71.962813 63.584449 
L 105.108013 63.584449 
L 105.442813 112.12143 
L 138.588013 112.12143 
L 138.922813 130.038859 
L 172.068013 130.038859 
L 172.402813 185.751988 
L 205.548013 185.751988 
L 205.882813 116.143956 
L 239.028013 116.143956 
L 239.362813 199.596085 
L 272.508013 199.596085 
L 272.842813 82.404659 
L 305.988013 82.404659 
L 306.322813 115.101616 
L 339.468013 115.101616 
L 339.802813 148.85817 
L 372.948013 148.85817 
L 372.948013 148.85817 
" clip-path="url(#pa2f0cfc34c)" style="fill: none; stroke: #ff7f0e; stroke-width: 1.5; stroke-linecap: square"/>
   </g>
   <g id="patch_3">
    <path d="M 38.482813 253.44 
L 38.482813 36 
" style="fill: none; stroke: #000000; stroke-width: 0.8; stroke-linejoin: miter; stroke-linecap: square"/>
   </g>
   <g id="patch_4">
    <path d="M 373.282813 253.44 
L 373.282813 36 
" style="fill: none; stroke: #000000; stroke-width: 0.8; stroke-linejoin: miter; stroke-linecap: square"/>
   </g>
   <g id="patch_5">
    <path d="M 38.482813 253.44 
L 373.282813 253.44 
" style="fill: none; stroke: #000000; stroke-width: 0.8; stroke-linejoin: miter; stroke-linecap: square"/>
   </g>
   <g id="patch_6">
    <path d="M 38.482813 36 
L 373.282813 36 
" style="fill: none; stroke: #000000; stroke-width: 0.8; stroke-linejoin: miter; stroke-linecap: square"/>
   </g>
   <g id="legend_1">
    <g id="patch_7">
     <path d="M 45.482813 248.44 
L 132.282813 248.44 
Q 134.282813 248.44 134.282813 246.44 
L 134.282813 216.461875 
Q 134.282813 214.461875 132.282813 214.461875 
L 45.482813 214.461875 
Q 43.482813 214.461875 43.482813 216.461875 
L 43.482813 246.44 
Q 43.482813 248.44 45.482813 248.44 
z
" style="fill: #ffffff; opacity: 0.8; stroke: #cccccc; stroke-linejoin: miter"/>
    </g>
    <g id="line2d_16">
     <path d="M 47.482813 224.161875 
L 57.482813 224.161875 
L 67.482812 224.161875 
" style="fill: none; stroke: #1f77b4; stroke-width: 1.5; stroke-linecap: square"/>
    </g>
    <g id="text_14">
     <!-- $\hat{y}$ -->
     <g transform="translate(75.482812 227.661875) scale(0.1 -0.1)">
      <defs>
       <path id="DejaVuSans-302" d="M -1831 5119 
L -1369 5119 
L -603 3944 
L -1038 3944 
L -1600 4709 
L -2163 3944 
L -2597 3944 
L -1831 5119 
z
M -1600 3584 
L -1600 3584 
z
" transform="scale(0.015625)"/>
       <path id="DejaVuSans-Oblique-79" d="M 1588 -325 
Q 1188 -997 936 -1164 
Q 684 -1331 294 -1331 
L -159 -1331 
L -63 -850 
L 269 -850 
Q 509 -850 678 -719 
Q 847 -588 1056 -206 
L 1234 128 
L 459 3500 
L 1069 3500 
L 1650 819 
L 3256 3500 
L 3859 3500 
L 1588 -325 
z
" transform="scale(0.015625)"/>
      </defs>
      <use xlink:href="#DejaVuSans-302" transform="translate(62.373047 12.015625)"/>
      <use xlink:href="#DejaVuSans-Oblique-79" transform="translate(0 0.828125)"/>
     </g>
    </g>
    <g id="line2d_17">
     <path d="M 47.482813 238.860312 
L 57.482813 238.860312 
L 67.482812 238.860312 
" style="fill: none; stroke: #ff7f0e; stroke-width: 1.5; stroke-linecap: square"/>
    </g>
    <g id="text_15">
     <!-- $x(t)=STEP$ -->
     <g transform="translate(75.482812 242.360312) scale(0.1 -0.1)">
      <defs>
       <path id="DejaVuSans-Oblique-78" d="M 3841 3500 
L 2234 1784 
L 3219 0 
L 2559 0 
L 1819 1388 
L 531 0 
L -166 0 
L 1556 1844 
L 641 3500 
L 1300 3500 
L 1972 2234 
L 3144 3500 
L 3841 3500 
z
" transform="scale(0.015625)"/>
       <path id="DejaVuSans-28" d="M 1984 4856 
Q 1566 4138 1362 3434 
Q 1159 2731 1159 2009 
Q 1159 1288 1364 580 
Q 1569 -128 1984 -844 
L 1484 -844 
Q 1016 -109 783 600 
Q 550 1309 550 2009 
Q 550 2706 781 3412 
Q 1013 4119 1484 4856 
L 1984 4856 
z
" transform="scale(0.015625)"/>
       <path id="DejaVuSans-Oblique-74" d="M 2706 3500 
L 2619 3053 
L 1472 3053 
L 1100 1153 
Q 1081 1047 1072 975 
Q 1063 903 1063 863 
Q 1063 663 1183 572 
Q 1303 481 1569 481 
L 2150 481 
L 2053 0 
L 1503 0 
Q 991 0 739 200 
Q 488 400 488 806 
Q 488 878 497 964 
Q 506 1050 525 1153 
L 897 3053 
L 409 3053 
L 500 3500 
L 978 3500 
L 1172 4494 
L 1747 4494 
L 1556 3500 
L 2706 3500 
z
" transform="scale(0.015625)"/>
       <path id="DejaVuSans-29" d="M 513 4856 
L 1013 4856 
Q 1481 4119 1714 3412 
Q 1947 2706 1947 2009 
Q 1947 1309 1714 600 
Q 1481 -109 1013 -844 
L 513 -844 
Q 928 -128 1133 580 
Q 1338 1288 1338 2009 
Q 1338 2731 1133 3434 
Q 928 4138 513 4856 
z
" transform="scale(0.015625)"/>
       <path id="DejaVuSans-3d" d="M 678 2906 
L 4684 2906 
L 4684 2381 
L 678 2381 
L 678 2906 
z
M 678 1631 
L 4684 1631 
L 4684 1100 
L 678 1100 
L 678 1631 
z
" transform="scale(0.015625)"/>
       <path id="DejaVuSans-Oblique-53" d="M 3859 4513 
L 3738 3897 
Q 3422 4066 3111 4152 
Q 2800 4238 2509 4238 
Q 1944 4238 1609 3991 
Q 1275 3744 1275 3334 
Q 1275 3109 1398 2989 
Q 1522 2869 2034 2731 
L 2413 2638 
Q 3053 2472 3303 2217 
Q 3553 1963 3553 1503 
Q 3553 797 2998 353 
Q 2444 -91 1538 -91 
Q 1166 -91 791 -17 
Q 416 56 38 206 
L 166 856 
Q 513 641 861 531 
Q 1209 422 1556 422 
Q 2147 422 2503 684 
Q 2859 947 2859 1369 
Q 2859 1650 2717 1795 
Q 2575 1941 2106 2059 
L 1728 2156 
Q 1081 2325 845 2545 
Q 609 2766 609 3163 
Q 609 3859 1145 4304 
Q 1681 4750 2541 4750 
Q 2875 4750 3203 4690 
Q 3531 4631 3859 4513 
z
" transform="scale(0.015625)"/>
       <path id="DejaVuSans-Oblique-54" d="M 378 4666 
L 4325 4666 
L 4225 4134 
L 2559 4134 
L 1759 0 
L 1125 0 
L 1925 4134 
L 275 4134 
L 378 4666 
z
" transform="scale(0.015625)"/>
       <path id="DejaVuSans-Oblique-45" d="M 1081 4666 
L 4031 4666 
L 3928 4134 
L 1606 4134 
L 1338 2753 
L 3566 2753 
L 3463 2222 
L 1234 2222 
L 909 531 
L 3284 531 
L 3181 0 
L 172 0 
L 1081 4666 
z
" transform="scale(0.015625)"/>
       <path id="DejaVuSans-Oblique-50" d="M 1081 4666 
L 2541 4666 
Q 3178 4666 3512 4369 
Q 3847 4072 3847 3500 
Q 3847 2731 3353 2303 
Q 2859 1875 1966 1875 
L 1172 1875 
L 806 0 
L 172 0 
L 1081 4666 
z
M 1613 4147 
L 1275 2394 
L 2069 2394 
Q 2606 2394 2893 2669 
Q 3181 2944 3181 3456 
Q 3181 3784 2986 3965 
Q 2791 4147 2438 4147 
L 1613 4147 
z
" transform="scale(0.015625)"/>
      </defs>
      <use xlink:href="#DejaVuSans-Oblique-78" transform="translate(0 0.125)"/>
      <use xlink:href="#DejaVuSans-28" transform="translate(59.179688 0.125)"/>
      <use xlink:href="#DejaVuSans-Oblique-74" transform="translate(98.193359 0.125)"/>
      <use xlink:href="#DejaVuSans-29" transform="translate(137.402344 0.125)"/>
      <use xlink:href="#DejaVuSans-3d" transform="translate(195.898438 0.125)"/>
      <use xlink:href="#DejaVuSans-Oblique-53" transform="translate(299.169922 0.125)"/>
      <use xlink:href="#DejaVuSans-Oblique-54" transform="translate(362.646484 0.125)"/>
      <use xlink:href="#DejaVuSans-Oblique-45" transform="translate(423.730469 0.125)"/>
      <use xlink:href="#DejaVuSans-Oblique-50" transform="translate(486.914062 0.125)"/>
     </g>
    </g>
   </g>
  </g>
  <g id="text_16">
   <!-- Decoded $\hat{y}$ and inputs -->
   <g transform="translate(134.722813 18.24) scale(0.12 -0.12)">
    <defs>
     <path id="DejaVuSans-44" d="M 1259 4147 
L 1259 519 
L 2022 519 
Q 2988 519 3436 956 
Q 3884 1394 3884 2338 
Q 3884 3275 3436 3711 
Q 2988 4147 2022 4147 
L 1259 4147 
z
M 628 4666 
L 1925 4666 
Q 3281 4666 3915 4102 
Q 4550 3538 4550 2338 
Q 4550 1131 3912 565 
Q 3275 0 1925 0 
L 628 0 
L 628 4666 
z
" transform="scale(0.015625)"/>
     <path id="DejaVuSans-65" d="M 3597 1894 
L 3597 1613 
L 953 1613 
Q 991 1019 1311 708 
Q 1631 397 2203 397 
Q 2534 397 2845 478 
Q 3156 559 3463 722 
L 3463 178 
Q 3153 47 2828 -22 
Q 2503 -91 2169 -91 
Q 1331 -91 842 396 
Q 353 884 353 1716 
Q 353 2575 817 3079 
Q 1281 3584 2069 3584 
Q 2775 3584 3186 3129 
Q 3597 2675 3597 1894 
z
M 3022 2063 
Q 3016 2534 2758 2815 
Q 2500 3097 2075 3097 
Q 1594 3097 1305 2825 
Q 1016 2553 972 2059 
L 3022 2063 
z
" transform="scale(0.015625)"/>
     <path id="DejaVuSans-63" d="M 3122 3366 
L 3122 2828 
Q 2878 2963 2633 3030 
Q 2388 3097 2138 3097 
Q 1578 3097 1268 2742 
Q 959 2388 959 1747 
Q 959 1106 1268 751 
Q 1578 397 2138 397 
Q 2388 397 2633 464 
Q 2878 531 3122 666 
L 3122 134 
Q 2881 22 2623 -34 
Q 2366 -91 2075 -91 
Q 1284 -91 818 406 
Q 353 903 353 1747 
Q 353 2603 823 3093 
Q 1294 3584 2113 3584 
Q 2378 3584 2631 3529 
Q 2884 3475 3122 3366 
z
" transform="scale(0.015625)"/>
     <path id="DejaVuSans-6f" d="M 1959 3097 
Q 1497 3097 1228 2736 
Q 959 2375 959 1747 
Q 959 1119 1226 758 
Q 1494 397 1959 397 
Q 2419 397 2687 759 
Q 2956 1122 2956 1747 
Q 2956 2369 2687 2733 
Q 2419 3097 1959 3097 
z
M 1959 3584 
Q 2709 3584 3137 3096 
Q 3566 2609 3566 1747 
Q 3566 888 3137 398 
Q 2709 -91 1959 -91 
Q 1206 -91 779 398 
Q 353 888 353 1747 
Q 353 2609 779 3096 
Q 1206 3584 1959 3584 
z
" transform="scale(0.015625)"/>
     <path id="DejaVuSans-64" d="M 2906 2969 
L 2906 4863 
L 3481 4863 
L 3481 0 
L 2906 0 
L 2906 525 
Q 2725 213 2448 61 
Q 2172 -91 1784 -91 
Q 1150 -91 751 415 
Q 353 922 353 1747 
Q 353 2572 751 3078 
Q 1150 3584 1784 3584 
Q 2172 3584 2448 3432 
Q 2725 3281 2906 2969 
z
M 947 1747 
Q 947 1113 1208 752 
Q 1469 391 1925 391 
Q 2381 391 2643 752 
Q 2906 1113 2906 1747 
Q 2906 2381 2643 2742 
Q 2381 3103 1925 3103 
Q 1469 3103 1208 2742 
Q 947 2381 947 1747 
z
" transform="scale(0.015625)"/>
     <path id="DejaVuSans-20" transform="scale(0.015625)"/>
     <path id="DejaVuSans-61" d="M 2194 1759 
Q 1497 1759 1228 1600 
Q 959 1441 959 1056 
Q 959 750 1161 570 
Q 1363 391 1709 391 
Q 2188 391 2477 730 
Q 2766 1069 2766 1631 
L 2766 1759 
L 2194 1759 
z
M 3341 1997 
L 3341 0 
L 2766 0 
L 2766 531 
Q 2569 213 2275 61 
Q 1981 -91 1556 -91 
Q 1019 -91 701 211 
Q 384 513 384 1019 
Q 384 1609 779 1909 
Q 1175 2209 1959 2209 
L 2766 2209 
L 2766 2266 
Q 2766 2663 2505 2880 
Q 2244 3097 1772 3097 
Q 1472 3097 1187 3025 
Q 903 2953 641 2809 
L 641 3341 
Q 956 3463 1253 3523 
Q 1550 3584 1831 3584 
Q 2591 3584 2966 3190 
Q 3341 2797 3341 1997 
z
" transform="scale(0.015625)"/>
     <path id="DejaVuSans-6e" d="M 3513 2113 
L 3513 0 
L 2938 0 
L 2938 2094 
Q 2938 2591 2744 2837 
Q 2550 3084 2163 3084 
Q 1697 3084 1428 2787 
Q 1159 2491 1159 1978 
L 1159 0 
L 581 0 
L 581 3500 
L 1159 3500 
L 1159 2956 
Q 1366 3272 1645 3428 
Q 1925 3584 2291 3584 
Q 2894 3584 3203 3211 
Q 3513 2838 3513 2113 
z
" transform="scale(0.015625)"/>
     <path id="DejaVuSans-69" d="M 603 3500 
L 1178 3500 
L 1178 0 
L 603 0 
L 603 3500 
z
M 603 4863 
L 1178 4863 
L 1178 4134 
L 603 4134 
L 603 4863 
z
" transform="scale(0.015625)"/>
     <path id="DejaVuSans-70" d="M 1159 525 
L 1159 -1331 
L 581 -1331 
L 581 3500 
L 1159 3500 
L 1159 2969 
Q 1341 3281 1617 3432 
Q 1894 3584 2278 3584 
Q 2916 3584 3314 3078 
Q 3713 2572 3713 1747 
Q 3713 922 3314 415 
Q 2916 -91 2278 -91 
Q 1894 -91 1617 61 
Q 1341 213 1159 525 
z
M 3116 1747 
Q 3116 2381 2855 2742 
Q 2594 3103 2138 3103 
Q 1681 3103 1420 2742 
Q 1159 2381 1159 1747 
Q 1159 1113 1420 752 
Q 1681 391 2138 391 
Q 2594 391 2855 752 
Q 3116 1113 3116 1747 
z
" transform="scale(0.015625)"/>
     <path id="DejaVuSans-75" d="M 544 1381 
L 544 3500 
L 1119 3500 
L 1119 1403 
Q 1119 906 1312 657 
Q 1506 409 1894 409 
Q 2359 409 2629 706 
Q 2900 1003 2900 1516 
L 2900 3500 
L 3475 3500 
L 3475 0 
L 2900 0 
L 2900 538 
Q 2691 219 2414 64 
Q 2138 -91 1772 -91 
Q 1169 -91 856 284 
Q 544 659 544 1381 
z
M 1991 3584 
L 1991 3584 
z
" transform="scale(0.015625)"/>
     <path id="DejaVuSans-74" d="M 1172 4494 
L 1172 3500 
L 2356 3500 
L 2356 3053 
L 1172 3053 
L 1172 1153 
Q 1172 725 1289 603 
Q 1406 481 1766 481 
L 2356 481 
L 2356 0 
L 1766 0 
Q 1100 0 847 248 
Q 594 497 594 1153 
L 594 3053 
L 172 3053 
L 172 3500 
L 594 3500 
L 594 4494 
L 1172 4494 
z
" transform="scale(0.015625)"/>
     <path id="DejaVuSans-73" d="M 2834 3397 
L 2834 2853 
Q 2591 2978 2328 3040 
Q 2066 3103 1784 3103 
Q 1356 3103 1142 2972 
Q 928 2841 928 2578 
Q 928 2378 1081 2264 
Q 1234 2150 1697 2047 
L 1894 2003 
Q 2506 1872 2764 1633 
Q 3022 1394 3022 966 
Q 3022 478 2636 193 
Q 2250 -91 1575 -91 
Q 1294 -91 989 -36 
Q 684 19 347 128 
L 347 722 
Q 666 556 975 473 
Q 1284 391 1588 391 
Q 1994 391 2212 530 
Q 2431 669 2431 922 
Q 2431 1156 2273 1281 
Q 2116 1406 1581 1522 
L 1381 1569 
Q 847 1681 609 1914 
Q 372 2147 372 2553 
Q 372 3047 722 3315 
Q 1072 3584 1716 3584 
Q 2034 3584 2315 3537 
Q 2597 3491 2834 3397 
z
" transform="scale(0.015625)"/>
    </defs>
    <use xlink:href="#DejaVuSans-44" transform="translate(0 0.828125)"/>
    <use xlink:href="#DejaVuSans-65" transform="translate(77.001953 0.828125)"/>
    <use xlink:href="#DejaVuSans-63" transform="translate(138.525391 0.828125)"/>
    <use xlink:href="#DejaVuSans-6f" transform="translate(193.505859 0.828125)"/>
    <use xlink:href="#DejaVuSans-64" transform="translate(254.6875 0.828125)"/>
    <use xlink:href="#DejaVuSans-65" transform="translate(318.164062 0.828125)"/>
    <use xlink:href="#DejaVuSans-64" transform="translate(379.6875 0.828125)"/>
    <use xlink:href="#DejaVuSans-20" transform="translate(443.164062 0.828125)"/>
    <use xlink:href="#DejaVuSans-302" transform="translate(537.324219 12.015625)"/>
    <use xlink:href="#DejaVuSans-Oblique-79" transform="translate(474.951172 0.828125)"/>
    <use xlink:href="#DejaVuSans-20" transform="translate(534.130859 0.828125)"/>
    <use xlink:href="#DejaVuSans-61" transform="translate(565.917969 0.828125)"/>
    <use xlink:href="#DejaVuSans-6e" transform="translate(627.197266 0.828125)"/>
    <use xlink:href="#DejaVuSans-64" transform="translate(690.576172 0.828125)"/>
    <use xlink:href="#DejaVuSans-20" transform="translate(754.052734 0.828125)"/>
    <use xlink:href="#DejaVuSans-69" transform="translate(785.839844 0.828125)"/>
    <use xlink:href="#DejaVuSans-6e" transform="translate(813.623047 0.828125)"/>
    <use xlink:href="#DejaVuSans-70" transform="translate(877.001953 0.828125)"/>
    <use xlink:href="#DejaVuSans-75" transform="translate(940.478516 0.828125)"/>
    <use xlink:href="#DejaVuSans-74" transform="translate(1003.857422 0.828125)"/>
    <use xlink:href="#DejaVuSans-73" transform="translate(1043.066406 0.828125)"/>
   </g>
  </g>
 </g>
 <defs>
  <clipPath id="pa2f0cfc34c">
   <rect x="38.482813" y="36" width="334.8" height="217.44"/>
  </clipPath>
 </defs>
</svg>
