<?xml version="1.0" encoding="utf-8" standalone="no"?>
<!DOCTYPE svg PUBLIC "-//W3C//DTD SVG 1.1//EN"
  "http://www.w3.org/Graphics/SVG/1.1/DTD/svg11.dtd">
<svg xmlns:xlink="http://www.w3.org/1999/xlink" width="248.19218pt" height="270.600365pt" viewBox="0 0 248.19218 270.600365" xmlns="http://www.w3.org/2000/svg" version="1.1">
 <metadata>
  <rdf:RDF xmlns:dc="http://purl.org/dc/elements/1.1/" xmlns:cc="http://creativecommons.org/ns#" xmlns:rdf="http://www.w3.org/1999/02/22-rdf-syntax-ns#">
   <cc:Work>
    <dc:type rdf:resource="http://purl.org/dc/dcmitype/StillImage"/>
    <dc:date>2022-11-04T15:37:05.196745</dc:date>
    <dc:format>image/svg+xml</dc:format>
    <dc:creator>
     <cc:Agent>
      <dc:title>Matplotlib v3.6.0, https://matplotlib.org/</dc:title>
     </cc:Agent>
    </dc:creator>
   </cc:Work>
  </rdf:RDF>
 </metadata>
 <defs>
  <style type="text/css">*{stroke-linejoin: round; stroke-linecap: butt}</style>
 </defs>
 <g id="figure_1">
  <g id="patch_1">
   <path d="M 0 270.600365 
L 248.19218 270.600365 
L 248.19218 0 
L 0 0 
L 0 270.600365 
z
" style="fill: none"/>
  </g>
  <g id="patch_2">
   <path d="M 7.2 253.44 
L 224.64 253.44 
L 224.64 36 
L 7.2 36 
z
" style="fill: #ffffff"/>
  </g>
  <g id="pane3d_1">
   <g id="patch_3">
    <path d="M 23.61822 199.826264 
L 95.424009 139.637228 
L 94.42584 52.833878 
L 19.183773 107.742111 
" style="fill: #f2f2f2; opacity: 0.5; stroke: #f2f2f2; stroke-linejoin: miter"/>
   </g>
  </g>
  <g id="pane3d_2">
   <g id="patch_4">
    <path d="M 95.424009 139.637228 
L 210.64668 173.12791 
L 214.758571 83.334718 
L 94.42584 52.833878 
" style="fill: #e6e6e6; opacity: 0.5; stroke: #e6e6e6; stroke-linejoin: miter"/>
   </g>
  </g>
  <g id="pane3d_3">
   <g id="patch_5">
    <path d="M 23.61822 199.826264 
L 145.759879 239.71773 
L 210.64668 173.12791 
L 95.424009 139.637228 
" style="fill: #ececec; opacity: 0.5; stroke: #ececec; stroke-linejoin: miter"/>
   </g>
  </g>
  <g id="axis3d_1">
   <g id="line2d_1">
    <path d="M 23.61822 199.826264 
L 145.759879 239.71773 
" style="fill: none; stroke: #000000; stroke-width: 0.8; stroke-linecap: square"/>
   </g>
   <g id="text_1">
    <!-- $t$ -->
    <g transform="translate(64.757243 257.343264) scale(0.1 -0.1)">
     <defs>
      <path id="DejaVuSans-Oblique-74" d="M 2706 3500 
L 2619 3053 
L 1472 3053 
L 1100 1153 
Q 1081 1047 1072 975 
Q 1063 903 1063 863 
Q 1063 663 1183 572 
Q 1303 481 1569 481 
L 2150 481 
L 2053 0 
L 1503 0 
Q 991 0 739 200 
Q 488 400 488 806 
Q 488 878 497 964 
Q 506 1050 525 1153 
L 897 3053 
L 409 3053 
L 500 3500 
L 978 3500 
L 1172 4494 
L 1747 4494 
L 1556 3500 
L 2706 3500 
z
" transform="scale(0.015625)"/>
     </defs>
     <use xlink:href="#DejaVuSans-Oblique-74" transform="translate(0 0.78125)"/>
    </g>
   </g>
   <g id="Line3DCollection_1">
    <path d="M 31.015759 202.242301 
L 102.431499 141.674029 
L 101.729612 54.685171 
" style="fill: none; stroke: #b0b0b0; stroke-width: 0.8"/>
    <path d="M 51.578248 208.95801 
L 121.890081 147.32987 
L 122.020746 59.828382 
" style="fill: none; stroke: #b0b0b0; stroke-width: 0.8"/>
    <path d="M 72.517865 215.796888 
L 141.675804 153.080799 
L 142.667851 65.061821 
" style="fill: none; stroke: #b0b0b0; stroke-width: 0.8"/>
    <path d="M 93.84508 222.762357 
L 161.796989 158.929233 
L 163.680376 70.387884 
" style="fill: none; stroke: #b0b0b0; stroke-width: 0.8"/>
    <path d="M 115.570756 229.857963 
L 182.26224 164.877674 
L 185.068109 75.809051 
" style="fill: none; stroke: #b0b0b0; stroke-width: 0.8"/>
    <path d="M 137.706165 237.087387 
L 203.080458 170.928708 
L 206.841191 81.327893 
" style="fill: none; stroke: #b0b0b0; stroke-width: 0.8"/>
   </g>
   <g id="xtick_1">
    <g id="line2d_2">
     <path d="M 31.637644 201.714876 
L 29.769322 203.299414 
" style="fill: none; stroke: #000000; stroke-width: 0.8; stroke-linecap: square"/>
    </g>
    <g id="text_2">
     <!-- 0.0 -->
     <g transform="translate(15.528877 225.564533) scale(0.1 -0.1)">
      <defs>
       <path id="DejaVuSans-30" d="M 2034 4250 
Q 1547 4250 1301 3770 
Q 1056 3291 1056 2328 
Q 1056 1369 1301 889 
Q 1547 409 2034 409 
Q 2525 409 2770 889 
Q 3016 1369 3016 2328 
Q 3016 3291 2770 3770 
Q 2525 4250 2034 4250 
z
M 2034 4750 
Q 2819 4750 3233 4129 
Q 3647 3509 3647 2328 
Q 3647 1150 3233 529 
Q 2819 -91 2034 -91 
Q 1250 -91 836 529 
Q 422 1150 422 2328 
Q 422 3509 836 4129 
Q 1250 4750 2034 4750 
z
" transform="scale(0.015625)"/>
       <path id="DejaVuSans-2e" d="M 684 794 
L 1344 794 
L 1344 0 
L 684 0 
L 684 794 
z
" transform="scale(0.015625)"/>
      </defs>
      <use xlink:href="#DejaVuSans-30"/>
      <use xlink:href="#DejaVuSans-2e" x="63.623047"/>
      <use xlink:href="#DejaVuSans-30" x="95.410156"/>
     </g>
    </g>
   </g>
   <g id="xtick_2">
    <g id="line2d_3">
     <path d="M 52.190972 208.420959 
L 50.350148 210.034436 
" style="fill: none; stroke: #000000; stroke-width: 0.8; stroke-linecap: square"/>
    </g>
    <g id="text_3">
     <!-- 0.2 -->
     <g transform="translate(36.117057 232.454637) scale(0.1 -0.1)">
      <defs>
       <path id="DejaVuSans-32" d="M 1228 531 
L 3431 531 
L 3431 0 
L 469 0 
L 469 531 
Q 828 903 1448 1529 
Q 2069 2156 2228 2338 
Q 2531 2678 2651 2914 
Q 2772 3150 2772 3378 
Q 2772 3750 2511 3984 
Q 2250 4219 1831 4219 
Q 1534 4219 1204 4116 
Q 875 4013 500 3803 
L 500 4441 
Q 881 4594 1212 4672 
Q 1544 4750 1819 4750 
Q 2544 4750 2975 4387 
Q 3406 4025 3406 3419 
Q 3406 3131 3298 2873 
Q 3191 2616 2906 2266 
Q 2828 2175 2409 1742 
Q 1991 1309 1228 531 
z
" transform="scale(0.015625)"/>
      </defs>
      <use xlink:href="#DejaVuSans-30"/>
      <use xlink:href="#DejaVuSans-2e" x="63.623047"/>
      <use xlink:href="#DejaVuSans-32" x="95.410156"/>
     </g>
    </g>
   </g>
   <g id="xtick_3">
    <g id="line2d_4">
     <path d="M 73.120986 215.249947 
L 71.308988 216.893162 
" style="fill: none; stroke: #000000; stroke-width: 0.8; stroke-linecap: square"/>
    </g>
    <g id="text_4">
     <!-- 0.4 -->
     <g transform="translate(57.084586 239.471694) scale(0.1 -0.1)">
      <defs>
       <path id="DejaVuSans-34" d="M 2419 4116 
L 825 1625 
L 2419 1625 
L 2419 4116 
z
M 2253 4666 
L 3047 4666 
L 3047 1625 
L 3713 1625 
L 3713 1100 
L 3047 1100 
L 3047 0 
L 2419 0 
L 2419 1100 
L 313 1100 
L 313 1709 
L 2253 4666 
z
" transform="scale(0.015625)"/>
      </defs>
      <use xlink:href="#DejaVuSans-30"/>
      <use xlink:href="#DejaVuSans-2e" x="63.623047"/>
      <use xlink:href="#DejaVuSans-34" x="95.410156"/>
     </g>
    </g>
   </g>
   <g id="xtick_4">
    <g id="line2d_5">
     <path d="M 94.438136 222.205248 
L 92.656352 223.879032 
" style="fill: none; stroke: #000000; stroke-width: 0.8; stroke-linecap: square"/>
    </g>
    <g id="text_5">
     <!-- 0.6 -->
     <g transform="translate(78.442047 246.619247) scale(0.1 -0.1)">
      <defs>
       <path id="DejaVuSans-36" d="M 2113 2584 
Q 1688 2584 1439 2293 
Q 1191 2003 1191 1497 
Q 1191 994 1439 701 
Q 1688 409 2113 409 
Q 2538 409 2786 701 
Q 3034 994 3034 1497 
Q 3034 2003 2786 2293 
Q 2538 2584 2113 2584 
z
M 3366 4563 
L 3366 3988 
Q 3128 4100 2886 4159 
Q 2644 4219 2406 4219 
Q 1781 4219 1451 3797 
Q 1122 3375 1075 2522 
Q 1259 2794 1537 2939 
Q 1816 3084 2150 3084 
Q 2853 3084 3261 2657 
Q 3669 2231 3669 1497 
Q 3669 778 3244 343 
Q 2819 -91 2113 -91 
Q 1303 -91 875 529 
Q 447 1150 447 2328 
Q 447 3434 972 4092 
Q 1497 4750 2381 4750 
Q 2619 4750 2861 4703 
Q 3103 4656 3366 4563 
z
" transform="scale(0.015625)"/>
      </defs>
      <use xlink:href="#DejaVuSans-30"/>
      <use xlink:href="#DejaVuSans-2e" x="63.623047"/>
      <use xlink:href="#DejaVuSans-36" x="95.410156"/>
     </g>
    </g>
   </g>
   <g id="xtick_5">
    <g id="line2d_6">
     <path d="M 116.153264 229.2904 
L 114.403145 230.995614 
" style="fill: none; stroke: #000000; stroke-width: 0.8; stroke-linecap: square"/>
    </g>
    <g id="text_6">
     <!-- 0.8 -->
     <g transform="translate(100.200419 253.900971) scale(0.1 -0.1)">
      <defs>
       <path id="DejaVuSans-38" d="M 2034 2216 
Q 1584 2216 1326 1975 
Q 1069 1734 1069 1313 
Q 1069 891 1326 650 
Q 1584 409 2034 409 
Q 2484 409 2743 651 
Q 3003 894 3003 1313 
Q 3003 1734 2745 1975 
Q 2488 2216 2034 2216 
z
M 1403 2484 
Q 997 2584 770 2862 
Q 544 3141 544 3541 
Q 544 4100 942 4425 
Q 1341 4750 2034 4750 
Q 2731 4750 3128 4425 
Q 3525 4100 3525 3541 
Q 3525 3141 3298 2862 
Q 3072 2584 2669 2484 
Q 3125 2378 3379 2068 
Q 3634 1759 3634 1313 
Q 3634 634 3220 271 
Q 2806 -91 2034 -91 
Q 1263 -91 848 271 
Q 434 634 434 1313 
Q 434 1759 690 2068 
Q 947 2378 1403 2484 
z
M 1172 3481 
Q 1172 3119 1398 2916 
Q 1625 2713 2034 2713 
Q 2441 2713 2670 2916 
Q 2900 3119 2900 3481 
Q 2900 3844 2670 4047 
Q 2441 4250 2034 4250 
Q 1625 4250 1398 4047 
Q 1172 3844 1172 3481 
z
" transform="scale(0.015625)"/>
      </defs>
      <use xlink:href="#DejaVuSans-30"/>
      <use xlink:href="#DejaVuSans-2e" x="63.623047"/>
      <use xlink:href="#DejaVuSans-38" x="95.410156"/>
     </g>
    </g>
   </g>
   <g id="xtick_6">
    <g id="line2d_7">
     <path d="M 138.277621 236.509074 
L 136.560684 238.246611 
" style="fill: none; stroke: #000000; stroke-width: 0.8; stroke-linecap: square"/>
    </g>
    <g id="text_7">
     <!-- 1.0 -->
     <g transform="translate(122.371097 261.320678) scale(0.1 -0.1)">
      <defs>
       <path id="DejaVuSans-31" d="M 794 531 
L 1825 531 
L 1825 4091 
L 703 3866 
L 703 4441 
L 1819 4666 
L 2450 4666 
L 2450 531 
L 3481 531 
L 3481 0 
L 794 0 
L 794 531 
z
" transform="scale(0.015625)"/>
      </defs>
      <use xlink:href="#DejaVuSans-31"/>
      <use xlink:href="#DejaVuSans-2e" x="63.623047"/>
      <use xlink:href="#DejaVuSans-30" x="95.410156"/>
     </g>
    </g>
   </g>
  </g>
  <g id="axis3d_2">
   <g id="line2d_8">
    <path d="M 210.64668 173.12791 
L 145.759879 239.71773 
" style="fill: none; stroke: #000000; stroke-width: 0.8; stroke-linecap: square"/>
   </g>
   <g id="Line3DCollection_2">
    <path d="M 24.386948 103.945071 
L 28.566245 195.678731 
L 150.249543 235.11023 
" style="fill: none; stroke: #b0b0b0; stroke-width: 0.8"/>
    <path d="M 41.770212 91.259556 
L 45.11591 181.806474 
L 165.24626 219.719909 
" style="fill: none; stroke: #b0b0b0; stroke-width: 0.8"/>
    <path d="M 58.478537 79.066582 
L 61.050371 168.449893 
L 179.656664 204.931289 
" style="fill: none; stroke: #b0b0b0; stroke-width: 0.8"/>
    <path d="M 74.550483 67.338008 
L 76.403306 155.580758 
L 193.514481 190.709761 
" style="fill: none; stroke: #b0b0b0; stroke-width: 0.8"/>
    <path d="M 90.021727 56.047799 
L 91.20598 143.172864 
L 206.850896 177.023317 
" style="fill: none; stroke: #b0b0b0; stroke-width: 0.8"/>
   </g>
   <g id="xtick_7">
    <g id="line2d_9">
     <path d="M 149.224115 234.777939 
L 152.303053 235.77567 
" style="fill: none; stroke: #000000; stroke-width: 0.8; stroke-linecap: square"/>
    </g>
    <g id="text_8">
     <!-- −0.20 -->
     <g transform="translate(147.809248 256.133759) scale(0.1 -0.1)">
      <defs>
       <path id="DejaVuSans-2212" d="M 678 2272 
L 4684 2272 
L 4684 1741 
L 678 1741 
L 678 2272 
z
" transform="scale(0.015625)"/>
      </defs>
      <use xlink:href="#DejaVuSans-2212"/>
      <use xlink:href="#DejaVuSans-30" x="83.789062"/>
      <use xlink:href="#DejaVuSans-2e" x="147.412109"/>
      <use xlink:href="#DejaVuSans-32" x="179.199219"/>
      <use xlink:href="#DejaVuSans-30" x="242.822266"/>
     </g>
    </g>
   </g>
   <g id="xtick_8">
    <g id="line2d_10">
     <path d="M 164.23494 219.400734 
L 167.271463 220.359068 
" style="fill: none; stroke: #000000; stroke-width: 0.8; stroke-linecap: square"/>
    </g>
    <g id="text_9">
     <!-- −0.15 -->
     <g transform="translate(162.559706 240.464526) scale(0.1 -0.1)">
      <defs>
       <path id="DejaVuSans-35" d="M 691 4666 
L 3169 4666 
L 3169 4134 
L 1269 4134 
L 1269 2991 
Q 1406 3038 1543 3061 
Q 1681 3084 1819 3084 
Q 2600 3084 3056 2656 
Q 3513 2228 3513 1497 
Q 3513 744 3044 326 
Q 2575 -91 1722 -91 
Q 1428 -91 1123 -41 
Q 819 9 494 109 
L 494 744 
Q 775 591 1075 516 
Q 1375 441 1709 441 
Q 2250 441 2565 725 
Q 2881 1009 2881 1497 
Q 2881 1984 2565 2268 
Q 2250 2553 1709 2553 
Q 1456 2553 1204 2497 
Q 953 2441 691 2322 
L 691 4666 
z
" transform="scale(0.015625)"/>
      </defs>
      <use xlink:href="#DejaVuSans-2212"/>
      <use xlink:href="#DejaVuSans-30" x="83.789062"/>
      <use xlink:href="#DejaVuSans-2e" x="147.412109"/>
      <use xlink:href="#DejaVuSans-31" x="179.199219"/>
      <use xlink:href="#DejaVuSans-35" x="242.822266"/>
     </g>
    </g>
   </g>
   <g id="xtick_9">
    <g id="line2d_11">
     <path d="M 178.659145 204.624468 
L 181.654182 205.545694 
" style="fill: none; stroke: #000000; stroke-width: 0.8; stroke-linecap: square"/>
    </g>
    <g id="text_10">
     <!-- −0.10 -->
     <g transform="translate(176.733074 225.408328) scale(0.1 -0.1)">
      <use xlink:href="#DejaVuSans-2212"/>
      <use xlink:href="#DejaVuSans-30" x="83.789062"/>
      <use xlink:href="#DejaVuSans-2e" x="147.412109"/>
      <use xlink:href="#DejaVuSans-31" x="179.199219"/>
      <use xlink:href="#DejaVuSans-30" x="242.822266"/>
     </g>
    </g>
   </g>
   <g id="xtick_10">
    <g id="line2d_12">
     <path d="M 192.530457 190.41459 
L 195.484927 191.300821 
" style="fill: none; stroke: #000000; stroke-width: 0.8; stroke-linecap: square"/>
    </g>
    <g id="text_11">
     <!-- −0.05 -->
     <g transform="translate(190.362568 210.929882) scale(0.1 -0.1)">
      <use xlink:href="#DejaVuSans-2212"/>
      <use xlink:href="#DejaVuSans-30" x="83.789062"/>
      <use xlink:href="#DejaVuSans-2e" x="147.412109"/>
      <use xlink:href="#DejaVuSans-30" x="179.199219"/>
      <use xlink:href="#DejaVuSans-35" x="242.822266"/>
     </g>
    </g>
   </g>
   <g id="xtick_11">
    <g id="line2d_13">
     <path d="M 205.880068 176.739146 
L 208.794875 177.59234 
" style="fill: none; stroke: #000000; stroke-width: 0.8; stroke-linecap: square"/>
    </g>
    <g id="text_12">
     <!-- 0.00 -->
     <g transform="translate(207.668748 196.996556) scale(0.1 -0.1)">
      <use xlink:href="#DejaVuSans-30"/>
      <use xlink:href="#DejaVuSans-2e" x="63.623047"/>
      <use xlink:href="#DejaVuSans-30" x="95.410156"/>
      <use xlink:href="#DejaVuSans-30" x="159.033203"/>
     </g>
    </g>
   </g>
  </g>
  <g id="axis3d_3">
   <g id="line2d_14">
    <path d="M 210.64668 173.12791 
L 214.758571 83.334718 
" style="fill: none; stroke: #000000; stroke-width: 0.8; stroke-linecap: square"/>
   </g>
   <g id="Line3DCollection_3">
    <path d="M 210.98779 165.678945 
L 95.341043 132.422339 
L 23.25092 192.199053 
" style="fill: none; stroke: #b0b0b0; stroke-width: 0.8"/>
    <path d="M 212.011385 143.32624 
L 95.092257 110.787216 
L 22.148118 169.298661 
" style="fill: none; stroke: #b0b0b0; stroke-width: 0.8"/>
    <path d="M 213.057981 120.471259 
L 94.83815 88.68945 
L 21.019579 145.863807 
" style="fill: none; stroke: #b0b0b0; stroke-width: 0.8"/>
    <path d="M 214.128362 97.09688 
L 94.578551 66.114039 
L 19.86439 121.875559 
" style="fill: none; stroke: #b0b0b0; stroke-width: 0.8"/>
   </g>
   <g id="xtick_12">
    <g id="line2d_15">
     <path d="M 210.017026 165.399782 
L 212.931634 166.237938 
" style="fill: none; stroke: #000000; stroke-width: 0.8; stroke-linecap: square"/>
    </g>
    <g id="text_13">
     <!-- 0.0 -->
     <g transform="translate(221.338894 170.691909) scale(0.1 -0.1)">
      <use xlink:href="#DejaVuSans-30"/>
      <use xlink:href="#DejaVuSans-2e" x="63.623047"/>
      <use xlink:href="#DejaVuSans-30" x="95.410156"/>
     </g>
    </g>
   </g>
   <g id="xtick_13">
    <g id="line2d_16">
     <path d="M 211.029429 143.052958 
L 213.977667 143.873464 
" style="fill: none; stroke: #000000; stroke-width: 0.8; stroke-linecap: square"/>
    </g>
    <g id="text_14">
     <!-- 0.2 -->
     <g transform="translate(222.561274 148.393764) scale(0.1 -0.1)">
      <use xlink:href="#DejaVuSans-30"/>
      <use xlink:href="#DejaVuSans-2e" x="63.623047"/>
      <use xlink:href="#DejaVuSans-32" x="95.410156"/>
     </g>
    </g>
   </g>
   <g id="xtick_14">
    <g id="line2d_17">
     <path d="M 212.064572 120.204194 
L 215.047224 121.00604 
" style="fill: none; stroke: #000000; stroke-width: 0.8; stroke-linecap: square"/>
    </g>
    <g id="text_15">
     <!-- 0.4 -->
     <g transform="translate(223.811018 125.596455) scale(0.1 -0.1)">
      <use xlink:href="#DejaVuSans-30"/>
      <use xlink:href="#DejaVuSans-2e" x="63.623047"/>
      <use xlink:href="#DejaVuSans-34" x="95.410156"/>
     </g>
    </g>
   </g>
   <g id="xtick_15">
    <g id="line2d_18">
     <path d="M 213.123229 96.836388 
L 216.141108 97.618509 
" style="fill: none; stroke: #000000; stroke-width: 0.8; stroke-linecap: square"/>
    </g>
    <g id="text_16">
     <!-- 0.6 -->
     <g transform="translate(225.089055 102.283029) scale(0.1 -0.1)">
      <use xlink:href="#DejaVuSans-30"/>
      <use xlink:href="#DejaVuSans-2e" x="63.623047"/>
      <use xlink:href="#DejaVuSans-36" x="95.410156"/>
     </g>
    </g>
   </g>
  </g>
  <g id="axes_1">
   <g id="line2d_19">
    <path d="M 98.163829 137.976248 
L 98.844167 138.173277 
L 90.590354 148.354562 
L 91.008728 147.993532 
L 92.572136 146.239933 
L 84.934263 155.825753 
L 90.259001 149.792522 
L 88.856089 151.647971 
L 95.259642 144.444049 
L 91.888681 148.696768 
L 92.301998 148.341403 
L 91.693567 149.230582 
L 86.513357 155.689775 
L 91.651565 149.874691 
L 92.496473 149.141411 
L 94.144417 147.280474 
L 92.225519 149.916878 
L 95.644237 146.191502 
L 90.240157 153.231476 
L 93.095124 150.044232 
L 91.861878 151.698666 
L 97.948704 144.858941 
L 96.296903 147.025172 
L 97.55131 145.64083 
L 89.403745 156.045294 
L 89.011189 156.674912 
L 99.494095 145.045471 
L 91.034472 155.998069 
L 91.556914 155.508296 
L 99.06429 146.910113 
L 99.011145 147.124192 
L 98.789935 147.544307 
L 95.617387 151.731676 
L 97.463692 149.617719 
L 93.688611 154.696324 
L 98.24094 149.56128 
L 95.397627 153.350086 
L 99.136479 149.060432 
L 97.528154 151.184715 
L 98.039255 150.707014 
L 96.43036 152.832774 
L 99.987408 148.76358 
L 97.526906 151.936205 
L 99.327923 149.873336 
L 96.659086 153.302965 
L 100.30346 149.123953 
L 100.275494 149.308191 
L 101.661056 147.754483 
L 97.823111 152.623755 
L 98.495499 151.947194 
L 98.418281 152.192497 
L 101.703733 148.451054 
L 94.57098 157.529029 
L 98.29285 153.249843 
L 103.13548 147.738417 
L 99.701872 152.418655 
L 98.546245 154.144162 
L 101.051228 151.358535 
L 98.859838 154.210654 
L 102.555325 149.955997 
L 102.547878 150.115739 
L 103.948398 148.53894 
L 99.702161 154.078516 
L 99.835682 154.064963 
L 104.78051 148.415007 
L 102.573415 151.441247 
L 98.342855 156.816378 
L 102.639582 151.812657 
L 98.943146 156.681905 
L 101.261975 153.968424 
L 99.928161 155.768269 
L 105.369656 149.496244 
L 105.404966 149.60358 
L 107.670222 147.104028 
L 101.817723 154.494098 
L 103.988929 152.111244 
L 99.376282 157.970644 
L 104.017292 152.682356 
L 107.040131 149.242665 
L 106.987607 149.458975 
L 103.182443 154.475295 
L 105.081385 152.274698 
L 102.864464 155.17339 
L 104.858438 152.854549 
L 102.303043 156.173596 
L 104.43714 153.680596 
L 104.358412 153.930243 
L 106.149479 151.861622 
L 103.15592 155.878044 
L 104.025623 154.951718 
L 109.946171 148.213751 
L 104.360149 155.451172 
L 104.940723 154.882932 
L 104.98637 154.978761 
L 103.930716 156.442273 
L 108.234232 151.554258 
L 109.602521 150.006344 
L 108.769477 151.193561 
L 110.075751 149.722276 
L 102.243131 160.070465 
L 102.995997 159.287655 
L 108.222451 153.245564 
L 108.407237 153.16833 
L 112.31724 148.759404 
L 112.026628 149.273414 
L 104.67712 158.884012 
L 105.203743 158.381681 
L 107.048109 156.390932 
L 113.153952 149.393109 
L 109.985447 153.496127 
L 111.521842 151.733455 
L 111.414604 152.020124 
L 107.593653 156.938921 
L 109.625505 154.557964 
L 105.680138 159.633637 
L 111.127471 153.450461 
L 108.296752 157.13781 
L 109.133046 156.247484 
L 113.884217 150.774268 
L 111.988412 153.295775 
L 113.429413 151.648832 
L 109.393714 156.999171 
L 109.979793 156.420675 
L 108.924065 157.894455 
L 112.749202 153.419892 
L 111.018856 155.737554 
L 115.451648 150.653907 
L 112.108018 154.991103 
L 113.74555 153.095871 
L 109.071784 159.253982 
L 107.53433 161.333445 
L 113.923262 153.796808 
L 112.787286 155.373783 
L 116.956006 150.612955 
L 110.543994 158.957501 
L 110.873473 158.699359 
L 113.360577 155.890505 
L 111.292499 158.638654 
L 115.582078 153.721924 
L 118.077347 150.899305 
L 113.535214 157.063998 
L 113.539479 157.213597 
L 115.38846 155.04668 
L 112.805728 158.445196 
L 114.826803 156.061704 
L 112.73073 158.849893 
L 113.611897 157.898069 
L 115.539146 155.631468 
L 112.818513 159.205675 
L 116.668366 154.676866 
L 115.13382 156.761138 
L 115.685844 156.222186 
L 115.518054 156.588358 
L 119.799814 151.667141 
L 119.403132 152.320936 
L 112.603492 161.032871 
L 112.958718 160.741722 
L 118.68238 154.002741 
L 115.815981 157.767567 
L 117.648425 155.615274 
L 115.96142 157.895708 
L 119.325147 153.968908 
L 116.151736 158.278999 
L 118.032385 156.064308 
L 115.832718 158.99297 
L 118.062302 156.493532 
L 118.48137 156.120751 
L 115.079271 160.567706 
L 117.268448 157.962354 
L 117.249275 158.14256 
L 116.149955 159.685814 
L 117.008772 158.758261 
L 120.668256 154.606766 
L 121.956206 153.136182 
L 119.294945 156.652584 
L 119.689985 156.309678 
L 121.212508 154.542427 
L 116.837377 160.539009 
L 122.143025 154.769623 
L 122.220955 154.827134 
L 117.426086 161.206204 
L 116.621125 162.381866 
L 119.077243 159.587453 
L 119.822136 158.801352 
L 123.128035 154.928802 
L 122.998414 155.249307 
L 124.279758 153.78273 
L 123.395828 155.05874 
L 120.554922 158.814542 
L 122.340679 156.708703 
L 119.013082 161.239885 
L 121.138841 158.702527 
L 118.503022 162.201374 
L 125.424225 154.052253 
L 123.585722 156.541319 
L 123.820386 156.400499 
L 123.086672 157.488551 
L 124.627055 155.690602 
L 124.535062 155.964277 
L 117.156507 165.488697 
L 119.848957 162.228311 
L 119.04594 163.405927 
L 123.381933 158.214328 
L 122.087872 160.015722 
L 123.9596 157.795206 
L 122.952812 159.231989 
L 128.343965 153.008192 
L 121.693997 162.095696 
L 120.47488 163.805018 
L 125.44899 157.949414 
L 128.211552 154.747768 
L 127.142176 156.266846 
L 128.397235 154.826118 
L 119.209341 167.004401 
L 125.007289 160.092256 
L 128.251897 156.272373 
L 127.526517 157.513195 
L 128.913375 155.902437 
L 124.742251 161.539716 
L 126.697222 159.203975 
L 126.501333 159.61238 
L 124.435069 162.408069 
L 127.029682 159.41353 
L 127.28687 159.243709 
L 130.205605 155.83315 
L 128.417099 158.275853 
L 128.687828 158.088505 
L 130.100947 156.44148 
L 124.245115 164.082811 
L 126.514736 161.341516 
L 125.194807 163.187722 
L 127.325822 160.622758 
L 124.161585 164.827464 
L 128.462714 159.645903 
L 127.16611 161.463333 
L 129.387483 158.939695 
L 129.509815 158.942087 
L 130.99336 157.202407 
L 129.282799 159.550628 
L 130.84505 157.70981 
L 130.338375 158.51739 
L 130.57166 158.377678 
L 130.008125 159.258401 
L 124.871705 165.996554 
L 125.964249 164.757093 
L 130.513365 159.407228 
L 133.260682 156.204122 
L 131.36384 158.794964 
L 132.765369 157.157164 
L 126.711623 165.240049 
L 130.933027 160.144774 
L 128.785644 163.059805 
L 130.7733 160.669089 
L 129.287525 162.735836 
L 132.814247 158.528289 
L 132.77361 158.740025 
L 128.763095 164.210299 
L 129.073119 163.972479 
L 135.47195 156.390299 
L 130.212669 163.310241 
L 135.142986 157.451561 
L 129.943404 164.459413 
L 130.874974 163.42171 
L 131.022605 163.392401 
L 131.601696 162.807865 
L 131.344124 163.299982 
L 134.857052 159.098964 
L 135.004432 159.069388 
L 131.479094 163.930201 
L 133.752918 161.322817 
L 131.243677 164.716481 
L 133.335899 162.181512 
L 133.258428 162.442162 
L 135.015947 160.337616 
L 134.529248 161.125656 
L 136.215905 159.272214 
L 133.259802 163.245235 
L 135.110155 161.019627 
L 132.929219 163.993992 
L 136.485885 159.727036 
L 133.711749 163.468051 
L 135.571892 161.228326 
L 135.310683 161.726539 
L 136.913407 159.818323 
L 136.8832 160.018197 
L 133.723298 164.421619 
L 135.693238 162.038357 
L 135.378065 162.606853 
L 137.080042 160.568952 
L 134.786207 163.694592 
L 136.634578 161.467065 
L 132.680077 166.740514 
L 134.955211 163.961033 
L 135.026601 164.030438 
L 134.014359 165.501303 
L 138.07163 160.738071 
L 140.619755 157.763233 
L 140.231911 158.426295 
L 141.283962 157.225556 
L 133.224643 168.146216 
L 133.832768 167.521179 
L 138.069691 162.356978 
L 137.120182 163.749263 
L 140.357535 159.877486 
L 139.477049 161.180547 
L 142.029141 158.195047 
L 133.856268 169.11878 
L 136.363884 166.028895 
L 135.254458 167.630965 
L 137.540326 164.827761 
L 136.306464 166.591613 
L 142.84181 158.757138 
L 140.982763 161.333317 
L 141.179836 161.2396 
L 141.169338 161.415505 
L 137.577885 166.406962 
L 137.839518 166.230021 
L 138.701758 165.272385 
L 143.449763 159.587552 
L 140.043593 164.342464 
L 140.615281 163.761761 
L 140.16658 164.508472 
L 141.919562 162.390514 
L 140.446302 164.470621 
L 142.185153 162.370469 
L 138.130789 167.811171 
L 139.834633 165.919868 
L 138.879007 167.327828 
L 143.033426 162.406314 
L 146.593315 158.255632 
L 141.220962 165.421559 
L 143.041763 163.211231 
L 141.591096 165.266152 
L 136.782265 171.701179 
L 143.525597 163.39704 
L 143.984272 163.125451 
L 146.658062 159.962069 
L 143.896899 163.893841 
L 141.412383 167.302272 
L 141.646427 167.160802 
L 143.651571 164.705636 
L 138.298522 171.863444 
L 143.788461 165.1827 
L 148.070416 160.07596 
L 146.195181 162.691882 
L 142.092642 168.221847 
L 144.203532 165.625098 
L 144.154537 165.853537 
L 147.383263 161.956849 
L 144.924205 165.339454 
L 145.444184 164.82316 
L 147.049375 162.885875 
L 146.45641 163.826468 
L 143.694368 167.60807 
L 146.154478 164.715014 
L 144.545639 167.152268 
L 144.657771 167.170208 
L 148.127288 162.951767 
L 148.269822 162.929277 
L 143.658943 169.30534 
L 149.117703 162.639415 
L 149.192126 162.706274 
L 145.593145 167.594239 
L 147.50932 165.244319 
L 145.953474 167.451808 
L 148.240163 164.779681 
L 146.885761 166.723491 
L 148.657599 164.561407 
L 146.448954 167.62799 
L 149.89963 163.424483 
L 150.036807 163.409144 
L 149.978659 163.650555 
L 148.390713 165.903201 
L 150.01698 163.930302 
L 149.585707 164.662577 
L 144.907731 170.980401 
L 145.297615 170.633742 
L 149.44238 165.512562 
L 149.640932 165.416782 
L 147.496784 168.404324 
L 148.276711 167.543654 
L 151.594521 163.506882 
L 147.524988 169.363822 
L 148.222061 168.611745 
L 154.190547 161.409213 
L 149.716283 167.639552 
L 151.493992 165.461414 
L 147.586919 170.947391 
L 148.650988 169.710339 
L 148.914262 169.529606 
L 152.600942 164.996961 
L 151.900335 166.087898 
L 152.271207 165.764509 
L 153.748128 163.980544 
L 153.632407 164.299392 
L 149.960608 169.482163 
L 151.938977 167.035217 
L 147.565742 172.980575 
L 150.264072 169.748946 
L 154.176598 165.076563 
L 154.358353 165.002658 
L 152.83528 167.183744 
L 156.905794 162.297952 
L 150.226116 171.472087 
L 152.420901 168.734111 
L 152.44959 168.863355 
L 154.271299 166.618273 
L 153.862169 167.327119 
L 151.451105 170.687952 
L 153.514134 168.122485 
L 153.133118 168.794617 
L 153.577851 168.372686 
L 156.733224 164.524889 
L 156.769067 164.644265 
L 151.40874 171.918652 
L 153.61262 169.164046 
L 153.650116 169.281963 
L 152.150475 171.606971 
L 157.518352 164.986802 
L 156.822527 166.077707 
L 158.179481 164.443568 
L 158.158942 164.63805 
L 159.308412 163.278791 
L 157.388379 165.996114 
L 150.851848 174.846808 
L 152.887115 172.480067 
L 159.684933 164.116513 
L 160.724374 162.901784 
L 157.042605 167.965607 
L 158.604838 166.055717 
L 153.84325 172.726753 
L 156.053198 169.954828 
L 151.253243 176.511515 
L 156.726619 169.732435 
L 159.963502 165.758592 
L 160.031606 165.83593 
L 158.423444 168.146468 
L 161.231068 164.741963 
L 159.487108 167.40277 
L 156.040238 172.335764 
L 156.210715 172.277665 
L 159.999664 167.561949 
L 157.427539 171.162198 
L 159.574604 168.635307 
L 161.125712 166.733891 
L 158.907961 170.032189 
L 159.48769 169.427257 
L 159.362083 169.764131 
L 161.047269 167.682447 
L 157.786063 172.377597 
L 157.318401 173.172195 
L 159.457258 170.483507 
L 159.309829 170.85003 
L 162.613502 166.772017 
L 162.708045 166.814605 
L 161.072814 169.170666 
L 162.632957 167.253202 
L 159.635183 171.602664 
L 161.517448 169.253673 
L 158.272694 173.766004 
L 164.9409 165.517404 
L 165.961625 164.319444 
L 164.346646 166.651833 
L 157.659165 175.951569 
L 158.318836 175.238315 
L 163.226256 169.171148 
L 161.077548 172.22234 
L 163.215805 169.695151 
L 164.899608 167.77626 
L 162.050933 171.939279 
L 163.887869 169.644139 
L 163.643687 170.142203 
L 165.225158 168.189154 
L 162.150884 172.487615 
L 165.610362 168.182199 
L 163.281262 171.481442 
L 165.024837 169.309384 
L 162.492017 172.883531 
L 166.01054 168.495785 
L 163.119606 172.552855 
L 164.988518 170.21087 
L 164.771452 170.67349 
L 163.159006 173.01307 
L 167.97421 167.047363 
L 166.253882 169.532991 
L 161.847488 175.806514 
L 165.998926 170.559806 
L 164.67249 172.517298 
L 166.484232 170.248286 
L 165.075299 172.317455 
L 168.318693 168.289615 
L 165.388849 172.409264 
L 168.915659 168.168564 
L 166.485606 171.616629 
L 169.500226 167.89315 
L 165.872708 172.958269 
L 166.546592 172.220778 
L 164.320294 175.569245 
L 166.484754 172.81964 
L 166.204401 173.370075 
L 169.927697 168.857161 
L 171.154253 167.371633 
L 168.570861 171.033403 
L 168.756439 170.954471 
L 165.181868 176.130082 
L 165.611556 175.721864 
L 167.748418 173.005229 
L 167.610849 173.363555 
L 169.768017 170.790328 
L 169.887979 170.800087 
L 173.52664 166.391571 
L 165.797641 177.199034 
L 168.221684 174.262575 
L 170.335752 171.744337 
L 171.869199 169.83918 
L 169.948243 172.614528 
L 171.591348 170.56033 
L 171.062664 171.449391 
L 169.727745 173.43173 
L 171.770198 171.007854 
L 165.334132 179.909687 
L 170.426412 173.522057 
L 173.839108 169.408863 
L 172.196862 171.811137 
L 172.350526 171.775469 
L 175.038084 168.471062 
L 174.91972 168.804452 
L 169.36555 176.697399 
L 169.720329 176.389122 
L 171.789993 173.749718 
L 170.074646 176.42919 
L 173.836993 171.660053 
L 173.195585 172.705909 
L 174.883705 170.756001 
L 176.155475 169.198552 
L 169.07524 179.707322 
L 176.608511 170.141239 
L 176.502199 170.63328 
L 177.706708 169.164816 
L 174.429268 173.981375 
L 174.3229 174.300714 
L 171.246512 178.671652 
L 175.847745 172.917409 
L 177.325906 171.07407 
L 176.672653 172.139875 
L 176.903848 171.998426 
L 174.891891 175.09476 
L 173.782731 176.784566 
L 175.284196 175.257981 
L 173.429444 177.96789 
L 179.932609 169.775982 
L 175.684644 175.760514 
L 178.966964 171.620069 
L 175.467584 176.583207 
L 177.362692 174.164954 
L 177.182714 174.586363 
L 177.664928 174.101361 
L 179.212716 172.15723 
L 175.579353 177.30765 
L 177.550501 174.783589 
L 176.376774 176.566692 
L 177.101727 175.749095 
L 181.494213 170.255322 
L 177.616137 175.74634 
L 178.025135 175.361231 
L 176.814765 177.196571 
L 178.731753 174.743437 
L 178.433115 175.328659 
L 175.570474 179.607882 
L 180.700874 173.270433 
L 182.056289 171.584921 
L 180.349033 174.104873 
L 180.67637 173.831061 
L 180.355133 174.448128 
L 179.058957 176.404867 
L 182.263565 172.353209 
L 182.154415 172.678927 
L 178.695891 177.785797 
L 183.509202 171.69477 
L 176.218265 182.255928 
L 181.321972 175.761727 
L 184.261192 172.067039 
L 181.796439 175.63813 
L 184.682403 172.015155 
L 177.663697 182.041083 
L 180.329545 178.721368 
L 183.917062 174.128635 
L 184.132618 174.008025 
L 186.554647 171.019858 
L 186.166165 171.732258 
L 180.815256 179.293567 
L 183.355954 176.141416 
L 182.098896 178.05431 
L 183.931647 175.700946 
L 183.710168 176.184074 
L 185.284594 174.18657 
L 180.219605 181.361245 
L 184.337838 176.026358 
L 183.089541 177.929185 
L 186.351508 173.774766 
L 182.87361 178.761253 
L 184.757598 176.333648 
L 183.478375 178.280764 
L 183.973283 177.774072 
L 183.974379 177.950497 
L 184.602528 177.259229 
L 186.264613 175.136725 
L 184.862423 177.25538 
L 187.883601 173.428027 
L 187.156859 174.611976 
L 187.321615 174.561464 
L 187.291721 174.780595 
L 183.92855 179.796699 
L 185.890086 177.256723 
L 185.774678 177.594955 
L 183.51499 180.906053 
L 187.340141 175.959202 
L 185.426557 178.79153 
L 188.717228 174.583376 
L 188.829447 174.605744 
L 191.089754 171.82464 
L 183.12733 183.235791 
L 181.274891 185.987791 
L 189.613946 175.120938 
L 190.877788 173.543038 
L 190.809825 173.815797 
L 191.893061 172.488303 
L 191.496958 173.217228 
L 185.446038 182.349043 
L 187.634478 179.483872 
L 187.566266 179.75826 
L 190.917947 175.45168 
L 188.844558 178.517333 
L 189.376993 177.95538 
L 188.181489 179.799739 
L 191.504092 175.530469 
L 189.935466 177.895199 
L 191.489763 175.908754 
L 186.349389 183.252385 
L 190.928676 177.408501 
L 192.397475 175.539735 
L 189.588731 179.816781 
L 194.046365 174.135878 
L 190.946216 178.642606 
L 191.424838 178.154448 
L 191.231954 178.603769 
L 189.256989 181.541928 
L 189.256989 181.541928 
" clip-path="url(#p00592dcd5c)" style="fill: none; stroke: #1f77b4; stroke-width: 1.5; stroke-linecap: square"/>
   </g>
   <g id="line2d_20">
    <path d="M 32.167484 108.054144 
L 143.2266 139.687281 
L 143.2266 139.687281 
" clip-path="url(#p00592dcd5c)" style="fill: none; stroke: #ff7f0e; stroke-width: 1.5; stroke-linecap: square"/>
   </g>
   <g id="legend_1">
    <g id="patch_6">
     <path d="M 177.44 73.35625 
L 217.64 73.35625 
Q 219.64 73.35625 219.64 71.35625 
L 219.64 43 
Q 219.64 41 217.64 41 
L 177.44 41 
Q 175.44 41 175.44 43 
L 175.44 71.35625 
Q 175.44 73.35625 177.44 73.35625 
z
" style="fill: #ffffff; opacity: 0.8; stroke: #cccccc; stroke-linejoin: miter"/>
    </g>
    <g id="line2d_21">
     <path d="M 179.44 49.098437 
L 189.44 49.098437 
L 199.44 49.098437 
" style="fill: none; stroke: #1f77b4; stroke-width: 1.5; stroke-linecap: square"/>
    </g>
    <g id="text_17">
     <!-- $\hat{w}$ -->
     <g transform="translate(207.44 52.598437) scale(0.1 -0.1)">
      <defs>
       <path id="DejaVuSans-302" d="M -1831 5119 
L -1369 5119 
L -603 3944 
L -1038 3944 
L -1600 4709 
L -2163 3944 
L -2597 3944 
L -1831 5119 
z
M -1600 3584 
L -1600 3584 
z
" transform="scale(0.015625)"/>
       <path id="DejaVuSans-Oblique-77" d="M 544 3500 
L 1113 3500 
L 1259 684 
L 2566 3500 
L 3231 3500 
L 3425 684 
L 4666 3500 
L 5241 3500 
L 3641 0 
L 2969 0 
L 2797 2900 
L 1459 0 
L 781 0 
L 544 3500 
z
" transform="scale(0.015625)"/>
      </defs>
      <use xlink:href="#DejaVuSans-302" transform="translate(76.024902 12.015625)"/>
      <use xlink:href="#DejaVuSans-Oblique-77" transform="translate(0 0.828125)"/>
     </g>
    </g>
    <g id="line2d_22">
     <path d="M 179.44 63.776562 
L 189.44 63.776562 
L 199.44 63.776562 
" style="fill: none; stroke: #ff7f0e; stroke-width: 1.5; stroke-linecap: square"/>
    </g>
    <g id="text_18">
     <!-- $w$ -->
     <g transform="translate(207.44 67.276562) scale(0.1 -0.1)">
      <use xlink:href="#DejaVuSans-Oblique-77" transform="translate(0 0.3125)"/>
     </g>
    </g>
   </g>
  </g>
  <g id="text_19">
   <!-- Decoded $\hat{w}$ and $w$ -->
   <g transform="translate(57.06 16.318125) scale(0.12 -0.12)">
    <defs>
     <path id="DejaVuSans-44" d="M 1259 4147 
L 1259 519 
L 2022 519 
Q 2988 519 3436 956 
Q 3884 1394 3884 2338 
Q 3884 3275 3436 3711 
Q 2988 4147 2022 4147 
L 1259 4147 
z
M 628 4666 
L 1925 4666 
Q 3281 4666 3915 4102 
Q 4550 3538 4550 2338 
Q 4550 1131 3912 565 
Q 3275 0 1925 0 
L 628 0 
L 628 4666 
z
" transform="scale(0.015625)"/>
     <path id="DejaVuSans-65" d="M 3597 1894 
L 3597 1613 
L 953 1613 
Q 991 1019 1311 708 
Q 1631 397 2203 397 
Q 2534 397 2845 478 
Q 3156 559 3463 722 
L 3463 178 
Q 3153 47 2828 -22 
Q 2503 -91 2169 -91 
Q 1331 -91 842 396 
Q 353 884 353 1716 
Q 353 2575 817 3079 
Q 1281 3584 2069 3584 
Q 2775 3584 3186 3129 
Q 3597 2675 3597 1894 
z
M 3022 2063 
Q 3016 2534 2758 2815 
Q 2500 3097 2075 3097 
Q 1594 3097 1305 2825 
Q 1016 2553 972 2059 
L 3022 2063 
z
" transform="scale(0.015625)"/>
     <path id="DejaVuSans-63" d="M 3122 3366 
L 3122 2828 
Q 2878 2963 2633 3030 
Q 2388 3097 2138 3097 
Q 1578 3097 1268 2742 
Q 959 2388 959 1747 
Q 959 1106 1268 751 
Q 1578 397 2138 397 
Q 2388 397 2633 464 
Q 2878 531 3122 666 
L 3122 134 
Q 2881 22 2623 -34 
Q 2366 -91 2075 -91 
Q 1284 -91 818 406 
Q 353 903 353 1747 
Q 353 2603 823 3093 
Q 1294 3584 2113 3584 
Q 2378 3584 2631 3529 
Q 2884 3475 3122 3366 
z
" transform="scale(0.015625)"/>
     <path id="DejaVuSans-6f" d="M 1959 3097 
Q 1497 3097 1228 2736 
Q 959 2375 959 1747 
Q 959 1119 1226 758 
Q 1494 397 1959 397 
Q 2419 397 2687 759 
Q 2956 1122 2956 1747 
Q 2956 2369 2687 2733 
Q 2419 3097 1959 3097 
z
M 1959 3584 
Q 2709 3584 3137 3096 
Q 3566 2609 3566 1747 
Q 3566 888 3137 398 
Q 2709 -91 1959 -91 
Q 1206 -91 779 398 
Q 353 888 353 1747 
Q 353 2609 779 3096 
Q 1206 3584 1959 3584 
z
" transform="scale(0.015625)"/>
     <path id="DejaVuSans-64" d="M 2906 2969 
L 2906 4863 
L 3481 4863 
L 3481 0 
L 2906 0 
L 2906 525 
Q 2725 213 2448 61 
Q 2172 -91 1784 -91 
Q 1150 -91 751 415 
Q 353 922 353 1747 
Q 353 2572 751 3078 
Q 1150 3584 1784 3584 
Q 2172 3584 2448 3432 
Q 2725 3281 2906 2969 
z
M 947 1747 
Q 947 1113 1208 752 
Q 1469 391 1925 391 
Q 2381 391 2643 752 
Q 2906 1113 2906 1747 
Q 2906 2381 2643 2742 
Q 2381 3103 1925 3103 
Q 1469 3103 1208 2742 
Q 947 2381 947 1747 
z
" transform="scale(0.015625)"/>
     <path id="DejaVuSans-20" transform="scale(0.015625)"/>
     <path id="DejaVuSans-61" d="M 2194 1759 
Q 1497 1759 1228 1600 
Q 959 1441 959 1056 
Q 959 750 1161 570 
Q 1363 391 1709 391 
Q 2188 391 2477 730 
Q 2766 1069 2766 1631 
L 2766 1759 
L 2194 1759 
z
M 3341 1997 
L 3341 0 
L 2766 0 
L 2766 531 
Q 2569 213 2275 61 
Q 1981 -91 1556 -91 
Q 1019 -91 701 211 
Q 384 513 384 1019 
Q 384 1609 779 1909 
Q 1175 2209 1959 2209 
L 2766 2209 
L 2766 2266 
Q 2766 2663 2505 2880 
Q 2244 3097 1772 3097 
Q 1472 3097 1187 3025 
Q 903 2953 641 2809 
L 641 3341 
Q 956 3463 1253 3523 
Q 1550 3584 1831 3584 
Q 2591 3584 2966 3190 
Q 3341 2797 3341 1997 
z
" transform="scale(0.015625)"/>
     <path id="DejaVuSans-6e" d="M 3513 2113 
L 3513 0 
L 2938 0 
L 2938 2094 
Q 2938 2591 2744 2837 
Q 2550 3084 2163 3084 
Q 1697 3084 1428 2787 
Q 1159 2491 1159 1978 
L 1159 0 
L 581 0 
L 581 3500 
L 1159 3500 
L 1159 2956 
Q 1366 3272 1645 3428 
Q 1925 3584 2291 3584 
Q 2894 3584 3203 3211 
Q 3513 2838 3513 2113 
z
" transform="scale(0.015625)"/>
    </defs>
    <use xlink:href="#DejaVuSans-44" transform="translate(0 0.828125)"/>
    <use xlink:href="#DejaVuSans-65" transform="translate(77.001953 0.828125)"/>
    <use xlink:href="#DejaVuSans-63" transform="translate(138.525391 0.828125)"/>
    <use xlink:href="#DejaVuSans-6f" transform="translate(193.505859 0.828125)"/>
    <use xlink:href="#DejaVuSans-64" transform="translate(254.6875 0.828125)"/>
    <use xlink:href="#DejaVuSans-65" transform="translate(318.164062 0.828125)"/>
    <use xlink:href="#DejaVuSans-64" transform="translate(379.6875 0.828125)"/>
    <use xlink:href="#DejaVuSans-20" transform="translate(443.164062 0.828125)"/>
    <use xlink:href="#DejaVuSans-302" transform="translate(550.976074 12.015625)"/>
    <use xlink:href="#DejaVuSans-Oblique-77" transform="translate(474.951172 0.828125)"/>
    <use xlink:href="#DejaVuSans-20" transform="translate(556.738281 0.828125)"/>
    <use xlink:href="#DejaVuSans-61" transform="translate(588.525391 0.828125)"/>
    <use xlink:href="#DejaVuSans-6e" transform="translate(649.804688 0.828125)"/>
    <use xlink:href="#DejaVuSans-64" transform="translate(713.183594 0.828125)"/>
    <use xlink:href="#DejaVuSans-20" transform="translate(776.660156 0.828125)"/>
    <use xlink:href="#DejaVuSans-Oblique-77" transform="translate(808.447266 0.828125)"/>
   </g>
  </g>
 </g>
 <defs>
  <clipPath id="p00592dcd5c">
   <rect x="7.2" y="36" width="217.44" height="217.44"/>
  </clipPath>
 </defs>
</svg>
