<?xml version="1.0" encoding="utf-8" standalone="no"?>
<!DOCTYPE svg PUBLIC "-//W3C//DTD SVG 1.1//EN"
  "http://www.w3.org/Graphics/SVG/1.1/DTD/svg11.dtd">
<svg xmlns:xlink="http://www.w3.org/1999/xlink" width="372.103125pt" height="277.318125pt" viewBox="0 0 372.103125 277.318125" xmlns="http://www.w3.org/2000/svg" version="1.1">
 <metadata>
  <rdf:RDF xmlns:dc="http://purl.org/dc/elements/1.1/" xmlns:cc="http://creativecommons.org/ns#" xmlns:rdf="http://www.w3.org/1999/02/22-rdf-syntax-ns#">
   <cc:Work>
    <dc:type rdf:resource="http://purl.org/dc/dcmitype/StillImage"/>
    <dc:date>2022-11-14T18:34:14.218102</dc:date>
    <dc:format>image/svg+xml</dc:format>
    <dc:creator>
     <cc:Agent>
      <dc:title>Matplotlib v3.6.0, https://matplotlib.org/</dc:title>
     </cc:Agent>
    </dc:creator>
   </cc:Work>
  </rdf:RDF>
 </metadata>
 <defs>
  <style type="text/css">*{stroke-linejoin: round; stroke-linecap: butt}</style>
 </defs>
 <g id="figure_1">
  <g id="patch_1">
   <path d="M 0 277.318125 
L 372.103125 277.318125 
L 372.103125 0 
L 0 0 
L 0 277.318125 
z
" style="fill: none"/>
  </g>
  <g id="axes_1">
   <g id="patch_2">
    <path d="M 30.103125 253.44 
L 364.903125 253.44 
L 364.903125 36 
L 30.103125 36 
z
" style="fill: #ffffff"/>
   </g>
   <g id="matplotlib.axis_1">
    <g id="xtick_1">
     <g id="line2d_1">
      <defs>
       <path id="m65050bff8a" d="M 0 0 
L 0 3.5 
" style="stroke: #000000; stroke-width: 0.8"/>
      </defs>
      <g>
       <use xlink:href="#m65050bff8a" x="30.103125" y="253.44" style="stroke: #000000; stroke-width: 0.8"/>
      </g>
     </g>
     <g id="text_1">
      <!-- 0.0 -->
      <g transform="translate(22.151563 268.038437) scale(0.1 -0.1)">
       <defs>
        <path id="DejaVuSans-30" d="M 2034 4250 
Q 1547 4250 1301 3770 
Q 1056 3291 1056 2328 
Q 1056 1369 1301 889 
Q 1547 409 2034 409 
Q 2525 409 2770 889 
Q 3016 1369 3016 2328 
Q 3016 3291 2770 3770 
Q 2525 4250 2034 4250 
z
M 2034 4750 
Q 2819 4750 3233 4129 
Q 3647 3509 3647 2328 
Q 3647 1150 3233 529 
Q 2819 -91 2034 -91 
Q 1250 -91 836 529 
Q 422 1150 422 2328 
Q 422 3509 836 4129 
Q 1250 4750 2034 4750 
z
" transform="scale(0.015625)"/>
        <path id="DejaVuSans-2e" d="M 684 794 
L 1344 794 
L 1344 0 
L 684 0 
L 684 794 
z
" transform="scale(0.015625)"/>
       </defs>
       <use xlink:href="#DejaVuSans-30"/>
       <use xlink:href="#DejaVuSans-2e" x="63.623047"/>
       <use xlink:href="#DejaVuSans-30" x="95.410156"/>
      </g>
     </g>
    </g>
    <g id="xtick_2">
     <g id="line2d_2">
      <g>
       <use xlink:href="#m65050bff8a" x="74.743125" y="253.44" style="stroke: #000000; stroke-width: 0.8"/>
      </g>
     </g>
     <g id="text_2">
      <!-- 0.2 -->
      <g transform="translate(66.791563 268.038437) scale(0.1 -0.1)">
       <defs>
        <path id="DejaVuSans-32" d="M 1228 531 
L 3431 531 
L 3431 0 
L 469 0 
L 469 531 
Q 828 903 1448 1529 
Q 2069 2156 2228 2338 
Q 2531 2678 2651 2914 
Q 2772 3150 2772 3378 
Q 2772 3750 2511 3984 
Q 2250 4219 1831 4219 
Q 1534 4219 1204 4116 
Q 875 4013 500 3803 
L 500 4441 
Q 881 4594 1212 4672 
Q 1544 4750 1819 4750 
Q 2544 4750 2975 4387 
Q 3406 4025 3406 3419 
Q 3406 3131 3298 2873 
Q 3191 2616 2906 2266 
Q 2828 2175 2409 1742 
Q 1991 1309 1228 531 
z
" transform="scale(0.015625)"/>
       </defs>
       <use xlink:href="#DejaVuSans-30"/>
       <use xlink:href="#DejaVuSans-2e" x="63.623047"/>
       <use xlink:href="#DejaVuSans-32" x="95.410156"/>
      </g>
     </g>
    </g>
    <g id="xtick_3">
     <g id="line2d_3">
      <g>
       <use xlink:href="#m65050bff8a" x="119.383125" y="253.44" style="stroke: #000000; stroke-width: 0.8"/>
      </g>
     </g>
     <g id="text_3">
      <!-- 0.4 -->
      <g transform="translate(111.431563 268.038437) scale(0.1 -0.1)">
       <defs>
        <path id="DejaVuSans-34" d="M 2419 4116 
L 825 1625 
L 2419 1625 
L 2419 4116 
z
M 2253 4666 
L 3047 4666 
L 3047 1625 
L 3713 1625 
L 3713 1100 
L 3047 1100 
L 3047 0 
L 2419 0 
L 2419 1100 
L 313 1100 
L 313 1709 
L 2253 4666 
z
" transform="scale(0.015625)"/>
       </defs>
       <use xlink:href="#DejaVuSans-30"/>
       <use xlink:href="#DejaVuSans-2e" x="63.623047"/>
       <use xlink:href="#DejaVuSans-34" x="95.410156"/>
      </g>
     </g>
    </g>
    <g id="xtick_4">
     <g id="line2d_4">
      <g>
       <use xlink:href="#m65050bff8a" x="164.023125" y="253.44" style="stroke: #000000; stroke-width: 0.8"/>
      </g>
     </g>
     <g id="text_4">
      <!-- 0.6 -->
      <g transform="translate(156.071563 268.038437) scale(0.1 -0.1)">
       <defs>
        <path id="DejaVuSans-36" d="M 2113 2584 
Q 1688 2584 1439 2293 
Q 1191 2003 1191 1497 
Q 1191 994 1439 701 
Q 1688 409 2113 409 
Q 2538 409 2786 701 
Q 3034 994 3034 1497 
Q 3034 2003 2786 2293 
Q 2538 2584 2113 2584 
z
M 3366 4563 
L 3366 3988 
Q 3128 4100 2886 4159 
Q 2644 4219 2406 4219 
Q 1781 4219 1451 3797 
Q 1122 3375 1075 2522 
Q 1259 2794 1537 2939 
Q 1816 3084 2150 3084 
Q 2853 3084 3261 2657 
Q 3669 2231 3669 1497 
Q 3669 778 3244 343 
Q 2819 -91 2113 -91 
Q 1303 -91 875 529 
Q 447 1150 447 2328 
Q 447 3434 972 4092 
Q 1497 4750 2381 4750 
Q 2619 4750 2861 4703 
Q 3103 4656 3366 4563 
z
" transform="scale(0.015625)"/>
       </defs>
       <use xlink:href="#DejaVuSans-30"/>
       <use xlink:href="#DejaVuSans-2e" x="63.623047"/>
       <use xlink:href="#DejaVuSans-36" x="95.410156"/>
      </g>
     </g>
    </g>
    <g id="xtick_5">
     <g id="line2d_5">
      <g>
       <use xlink:href="#m65050bff8a" x="208.663125" y="253.44" style="stroke: #000000; stroke-width: 0.8"/>
      </g>
     </g>
     <g id="text_5">
      <!-- 0.8 -->
      <g transform="translate(200.711563 268.038437) scale(0.1 -0.1)">
       <defs>
        <path id="DejaVuSans-38" d="M 2034 2216 
Q 1584 2216 1326 1975 
Q 1069 1734 1069 1313 
Q 1069 891 1326 650 
Q 1584 409 2034 409 
Q 2484 409 2743 651 
Q 3003 894 3003 1313 
Q 3003 1734 2745 1975 
Q 2488 2216 2034 2216 
z
M 1403 2484 
Q 997 2584 770 2862 
Q 544 3141 544 3541 
Q 544 4100 942 4425 
Q 1341 4750 2034 4750 
Q 2731 4750 3128 4425 
Q 3525 4100 3525 3541 
Q 3525 3141 3298 2862 
Q 3072 2584 2669 2484 
Q 3125 2378 3379 2068 
Q 3634 1759 3634 1313 
Q 3634 634 3220 271 
Q 2806 -91 2034 -91 
Q 1263 -91 848 271 
Q 434 634 434 1313 
Q 434 1759 690 2068 
Q 947 2378 1403 2484 
z
M 1172 3481 
Q 1172 3119 1398 2916 
Q 1625 2713 2034 2713 
Q 2441 2713 2670 2916 
Q 2900 3119 2900 3481 
Q 2900 3844 2670 4047 
Q 2441 4250 2034 4250 
Q 1625 4250 1398 4047 
Q 1172 3844 1172 3481 
z
" transform="scale(0.015625)"/>
       </defs>
       <use xlink:href="#DejaVuSans-30"/>
       <use xlink:href="#DejaVuSans-2e" x="63.623047"/>
       <use xlink:href="#DejaVuSans-38" x="95.410156"/>
      </g>
     </g>
    </g>
    <g id="xtick_6">
     <g id="line2d_6">
      <g>
       <use xlink:href="#m65050bff8a" x="253.303125" y="253.44" style="stroke: #000000; stroke-width: 0.8"/>
      </g>
     </g>
     <g id="text_6">
      <!-- 1.0 -->
      <g transform="translate(245.351563 268.038437) scale(0.1 -0.1)">
       <defs>
        <path id="DejaVuSans-31" d="M 794 531 
L 1825 531 
L 1825 4091 
L 703 3866 
L 703 4441 
L 1819 4666 
L 2450 4666 
L 2450 531 
L 3481 531 
L 3481 0 
L 794 0 
L 794 531 
z
" transform="scale(0.015625)"/>
       </defs>
       <use xlink:href="#DejaVuSans-31"/>
       <use xlink:href="#DejaVuSans-2e" x="63.623047"/>
       <use xlink:href="#DejaVuSans-30" x="95.410156"/>
      </g>
     </g>
    </g>
    <g id="xtick_7">
     <g id="line2d_7">
      <g>
       <use xlink:href="#m65050bff8a" x="297.943125" y="253.44" style="stroke: #000000; stroke-width: 0.8"/>
      </g>
     </g>
     <g id="text_7">
      <!-- 1.2 -->
      <g transform="translate(289.991563 268.038437) scale(0.1 -0.1)">
       <use xlink:href="#DejaVuSans-31"/>
       <use xlink:href="#DejaVuSans-2e" x="63.623047"/>
       <use xlink:href="#DejaVuSans-32" x="95.410156"/>
      </g>
     </g>
    </g>
    <g id="xtick_8">
     <g id="line2d_8">
      <g>
       <use xlink:href="#m65050bff8a" x="342.583125" y="253.44" style="stroke: #000000; stroke-width: 0.8"/>
      </g>
     </g>
     <g id="text_8">
      <!-- 1.4 -->
      <g transform="translate(334.631563 268.038437) scale(0.1 -0.1)">
       <use xlink:href="#DejaVuSans-31"/>
       <use xlink:href="#DejaVuSans-2e" x="63.623047"/>
       <use xlink:href="#DejaVuSans-34" x="95.410156"/>
      </g>
     </g>
    </g>
   </g>
   <g id="matplotlib.axis_2">
    <g id="ytick_1">
     <g id="line2d_9">
      <defs>
       <path id="m02b96b0615" d="M 0 0 
L -3.5 0 
" style="stroke: #000000; stroke-width: 0.8"/>
      </defs>
      <g>
       <use xlink:href="#m02b96b0615" x="30.103125" y="230.313456" style="stroke: #000000; stroke-width: 0.8"/>
      </g>
     </g>
     <g id="text_9">
      <!-- 0.0 -->
      <g transform="translate(7.2 234.112675) scale(0.1 -0.1)">
       <use xlink:href="#DejaVuSans-30"/>
       <use xlink:href="#DejaVuSans-2e" x="63.623047"/>
       <use xlink:href="#DejaVuSans-30" x="95.410156"/>
      </g>
     </g>
    </g>
    <g id="ytick_2">
     <g id="line2d_10">
      <g>
       <use xlink:href="#m02b96b0615" x="30.103125" y="188.444374" style="stroke: #000000; stroke-width: 0.8"/>
      </g>
     </g>
     <g id="text_10">
      <!-- 0.2 -->
      <g transform="translate(7.2 192.243593) scale(0.1 -0.1)">
       <use xlink:href="#DejaVuSans-30"/>
       <use xlink:href="#DejaVuSans-2e" x="63.623047"/>
       <use xlink:href="#DejaVuSans-32" x="95.410156"/>
      </g>
     </g>
    </g>
    <g id="ytick_3">
     <g id="line2d_11">
      <g>
       <use xlink:href="#m02b96b0615" x="30.103125" y="146.575291" style="stroke: #000000; stroke-width: 0.8"/>
      </g>
     </g>
     <g id="text_11">
      <!-- 0.4 -->
      <g transform="translate(7.2 150.37451) scale(0.1 -0.1)">
       <use xlink:href="#DejaVuSans-30"/>
       <use xlink:href="#DejaVuSans-2e" x="63.623047"/>
       <use xlink:href="#DejaVuSans-34" x="95.410156"/>
      </g>
     </g>
    </g>
    <g id="ytick_4">
     <g id="line2d_12">
      <g>
       <use xlink:href="#m02b96b0615" x="30.103125" y="104.706209" style="stroke: #000000; stroke-width: 0.8"/>
      </g>
     </g>
     <g id="text_12">
      <!-- 0.6 -->
      <g transform="translate(7.2 108.505428) scale(0.1 -0.1)">
       <use xlink:href="#DejaVuSans-30"/>
       <use xlink:href="#DejaVuSans-2e" x="63.623047"/>
       <use xlink:href="#DejaVuSans-36" x="95.410156"/>
      </g>
     </g>
    </g>
    <g id="ytick_5">
     <g id="line2d_13">
      <g>
       <use xlink:href="#m02b96b0615" x="30.103125" y="62.837126" style="stroke: #000000; stroke-width: 0.8"/>
      </g>
     </g>
     <g id="text_13">
      <!-- 0.8 -->
      <g transform="translate(7.2 66.636345) scale(0.1 -0.1)">
       <use xlink:href="#DejaVuSans-30"/>
       <use xlink:href="#DejaVuSans-2e" x="63.623047"/>
       <use xlink:href="#DejaVuSans-38" x="95.410156"/>
      </g>
     </g>
    </g>
   </g>
   <g id="line2d_14">
    <path d="M 30.326325 230.313456 
L 30.995925 230.0892 
L 31.665525 229.597516 
L 32.558325 228.643053 
L 33.897525 226.791694 
L 35.683125 223.884775 
L 38.807925 218.295197 
L 47.066325 202.890494 
L 130.766325 45.883636 
L 131.435925 93.684485 
L 132.105525 129.096225 
L 132.775125 155.329887 
L 133.444725 174.764262 
L 134.114325 189.161601 
L 134.783925 199.827412 
L 135.453525 207.728839 
L 136.123125 213.582361 
L 136.792725 217.918756 
L 137.462325 221.131236 
L 138.131925 223.511101 
L 138.801525 225.274147 
L 139.694325 226.935506 
L 140.587125 228.049149 
L 141.479925 228.795646 
L 142.595925 229.392858 
L 143.935125 229.808221 
L 145.720725 230.08644 
L 148.399125 230.24508 
L 154.202325 230.308378 
L 207.770325 230.313456 
L 364.903125 230.313456 
L 364.903125 230.313456 
" clip-path="url(#pba5af5a579)" style="fill: none; stroke: #1f77b4; stroke-width: 1.5; stroke-linecap: square"/>
   </g>
   <g id="line2d_15">
    <path d="M 30.326325 230.313456 
L 30.549525 234.149342 
L 30.995925 227.735196 
L 31.219125 228.057794 
L 31.442325 224.684232 
L 31.665525 225.3585 
L 31.888725 231.454564 
L 32.111925 227.570738 
L 32.335125 226.34369 
L 32.558325 231.354624 
L 32.781525 230.580211 
L 33.004725 230.388707 
L 33.227925 228.291346 
L 33.674325 238.311883 
L 33.897525 227.010557 
L 34.120725 226.63118 
L 34.343925 222.219352 
L 34.790325 231.536 
L 35.013525 223.180834 
L 35.236725 223.762523 
L 35.459925 227.027943 
L 35.683125 227.092176 
L 35.906325 219.976819 
L 36.575925 233.529911 
L 36.799125 237.072368 
L 37.022325 232.691395 
L 37.468725 235.206996 
L 37.691925 234.425448 
L 37.915125 227.476484 
L 38.138325 226.980986 
L 38.361525 227.016066 
L 38.807925 232.818139 
L 39.031125 226.872758 
L 39.254325 228.013992 
L 39.477525 228.253115 
L 40.147125 232.595311 
L 40.593525 228.785666 
L 41.039925 220.636952 
L 41.263125 219.793976 
L 41.486325 224.516226 
L 41.709525 222.682829 
L 42.155925 243.556364 
L 42.602325 232.17918 
L 42.825525 229.1062 
L 43.271925 231.690575 
L 43.495125 221.80962 
L 43.718325 221.992309 
L 43.941525 224.323913 
L 44.387925 238.077838 
L 44.611125 232.948799 
L 44.834325 232.84891 
L 45.280725 228.491194 
L 45.503925 229.644372 
L 45.727125 230.041799 
L 45.950325 229.033119 
L 46.173525 222.033093 
L 46.396725 220.074571 
L 46.619925 228.998882 
L 46.843125 233.2306 
L 47.066325 228.159148 
L 47.289525 227.308661 
L 47.512725 228.740421 
L 47.735925 229.444175 
L 47.959125 223.595711 
L 48.182325 224.840125 
L 48.405525 221.179076 
L 48.628725 229.71237 
L 48.851925 226.668275 
L 49.075125 227.084507 
L 49.521525 233.912753 
L 49.744725 230.588653 
L 49.967925 225.136743 
L 50.191125 225.986799 
L 50.414325 231.161047 
L 50.637525 226.936317 
L 50.860725 227.096695 
L 51.083925 226.477589 
L 51.307125 231.862163 
L 51.530325 232.092403 
L 51.753525 227.524279 
L 51.976725 228.670446 
L 52.199925 228.794306 
L 52.423125 226.422167 
L 52.646325 228.196065 
L 52.869525 227.937165 
L 53.092725 218.068895 
L 53.315925 224.634856 
L 53.539125 226.646061 
L 53.762325 230.327151 
L 54.208725 228.021668 
L 54.431925 228.189633 
L 54.655125 222.009749 
L 54.878325 225.410868 
L 55.101525 224.351224 
L 55.324725 225.492109 
L 55.547925 223.442221 
L 55.771125 226.31064 
L 55.994325 226.96883 
L 56.217525 220.648331 
L 56.440725 224.729006 
L 56.887125 228.156154 
L 57.110325 229.625237 
L 57.333525 225.642717 
L 57.779925 231.293912 
L 58.003125 232.46821 
L 58.226325 227.542793 
L 58.449525 227.683243 
L 58.672725 226.788204 
L 58.895925 223.229242 
L 59.565525 233.904036 
L 60.011925 223.640904 
L 60.235125 224.295299 
L 60.458325 219.893516 
L 60.681525 220.433048 
L 60.904725 219.497371 
L 61.127925 217.867406 
L 61.351125 220.980319 
L 61.574325 221.778167 
L 61.797525 218.274276 
L 62.020725 225.980252 
L 62.243925 225.4718 
L 62.467125 222.924385 
L 62.690325 222.604142 
L 62.913525 223.15403 
L 63.136725 223.033339 
L 63.583125 212.559459 
L 64.029525 225.027084 
L 64.252725 220.344116 
L 64.475925 218.210642 
L 64.699125 223.73888 
L 64.922325 225.409142 
L 65.145525 224.625793 
L 65.368725 216.485366 
L 65.591925 222.439787 
L 65.815125 223.961406 
L 66.038325 220.563985 
L 66.261525 226.823592 
L 66.484725 229.076308 
L 66.707925 229.051151 
L 66.931125 228.591334 
L 67.154325 224.940832 
L 67.377525 225.55434 
L 67.600725 230.445226 
L 68.270325 216.460787 
L 68.493525 223.359095 
L 68.716725 221.256268 
L 68.939925 222.749457 
L 69.163125 225.120258 
L 69.386325 225.830328 
L 69.609525 217.729329 
L 69.832725 220.769014 
L 70.055925 219.031402 
L 70.279125 219.813055 
L 70.502325 224.414833 
L 70.725525 215.486763 
L 70.948725 211.948891 
L 71.171925 212.732094 
L 71.618325 220.025895 
L 71.841525 218.307286 
L 72.064725 218.721939 
L 72.287925 220.277674 
L 72.511125 225.417709 
L 72.734325 226.358494 
L 73.180725 217.096222 
L 73.403925 220.872324 
L 73.850325 219.268468 
L 74.073525 223.534439 
L 74.296725 222.713984 
L 74.519925 218.990663 
L 74.743125 218.214077 
L 74.966325 219.238179 
L 75.189525 219.082017 
L 75.412725 215.947795 
L 75.635925 210.997678 
L 75.859125 210.523717 
L 76.082325 210.356848 
L 76.305525 217.006048 
L 76.528725 214.638844 
L 76.751925 216.748728 
L 76.975125 222.572109 
L 77.198325 218.863596 
L 77.421525 220.576203 
L 77.644725 220.309168 
L 77.867925 221.34446 
L 78.091125 222.938488 
L 78.314325 211.705708 
L 78.537525 212.874972 
L 78.760725 213.239832 
L 79.207125 218.775876 
L 79.430325 219.143102 
L 79.653525 220.460449 
L 79.876725 217.752911 
L 80.099925 219.185916 
L 80.323125 217.448749 
L 80.546325 218.390009 
L 80.769525 216.308562 
L 81.215925 217.470434 
L 81.439125 218.667069 
L 81.662325 216.696289 
L 81.885525 222.673376 
L 82.108725 222.033237 
L 82.331925 218.409578 
L 82.555125 212.691272 
L 82.778325 213.152171 
L 83.001525 215.508432 
L 83.224725 214.248743 
L 83.447925 211.820556 
L 83.671125 218.792141 
L 84.117525 208.377879 
L 84.340725 214.907591 
L 84.787125 219.381839 
L 85.010325 215.992435 
L 85.233525 216.859354 
L 85.456725 221.129422 
L 85.679925 210.720737 
L 85.903125 209.561349 
L 86.126325 210.502392 
L 86.349525 207.489805 
L 86.572725 207.258571 
L 86.795925 201.126394 
L 87.242325 213.162464 
L 87.465525 213.555394 
L 87.688725 217.579368 
L 87.911925 215.353367 
L 88.135125 210.796021 
L 88.358325 209.332611 
L 88.581525 209.114949 
L 89.027925 216.279798 
L 89.474325 211.09301 
L 89.697525 211.262889 
L 89.920725 216.931917 
L 90.367125 215.641865 
L 90.590325 209.55821 
L 90.813525 212.603915 
L 91.036725 213.30911 
L 91.259925 209.209506 
L 91.483125 209.140971 
L 91.706325 207.531857 
L 91.929525 207.238029 
L 92.152725 209.690926 
L 92.375925 206.07307 
L 92.599125 205.538032 
L 92.822325 218.433885 
L 93.045525 212.647648 
L 93.268725 210.724466 
L 93.491925 204.783305 
L 93.715125 204.815873 
L 93.938325 201.91959 
L 94.161525 205.250133 
L 94.384725 213.464482 
L 94.607925 214.808057 
L 94.831125 211.573668 
L 95.277525 209.057172 
L 95.500725 201.166408 
L 95.723925 206.920099 
L 96.170325 202.149781 
L 96.393525 209.668952 
L 96.616725 211.525471 
L 96.839925 215.02127 
L 97.286325 199.598579 
L 97.509525 201.819309 
L 97.732725 200.398931 
L 97.955925 201.052599 
L 98.179125 206.109883 
L 98.402325 203.204652 
L 99.071925 205.530458 
L 99.295125 208.085788 
L 99.741525 204.384091 
L 99.964725 198.02493 
L 100.187925 199.991535 
L 100.411125 199.151304 
L 100.634325 199.749474 
L 100.857525 200.788282 
L 101.080725 202.368386 
L 101.303925 202.752161 
L 101.750325 210.948228 
L 101.973525 203.888363 
L 102.196725 200.58633 
L 102.419925 201.813785 
L 102.643125 201.932697 
L 102.866325 203.521061 
L 103.089525 203.534244 
L 103.535925 198.849681 
L 103.759125 199.308804 
L 103.982325 200.173773 
L 104.428725 204.196412 
L 104.875125 198.752391 
L 105.098325 200.540883 
L 105.544725 192.844375 
L 105.767925 195.994212 
L 105.991125 201.769066 
L 106.214325 198.015042 
L 106.437525 208.327165 
L 106.660725 208.769264 
L 107.107125 196.888711 
L 107.330325 189.22685 
L 107.553525 188.485084 
L 107.776725 191.661501 
L 107.999925 182.519564 
L 108.446325 193.71483 
L 108.669525 195.716235 
L 108.892725 191.459213 
L 109.115925 203.250321 
L 109.339125 200.478066 
L 109.562325 204.303863 
L 109.785525 197.997773 
L 110.008725 197.288304 
L 110.231925 200.355534 
L 110.455125 197.348579 
L 110.678325 197.101568 
L 110.901525 199.588523 
L 111.124725 195.57666 
L 111.347925 195.47427 
L 111.571125 189.065606 
L 111.794325 192.242453 
L 112.017525 188.967786 
L 112.240725 187.763023 
L 112.463925 189.321176 
L 112.910325 203.092048 
L 113.356725 188.7844 
L 113.579925 190.757544 
L 113.803125 189.067739 
L 114.026325 190.415888 
L 114.249525 193.310915 
L 114.472725 191.57647 
L 114.695925 188.381995 
L 114.919125 190.392956 
L 115.142325 188.242577 
L 115.588725 188.456629 
L 115.811925 187.735613 
L 116.035125 195.258073 
L 116.258325 190.988609 
L 116.481525 193.488518 
L 116.704725 189.332437 
L 116.927925 191.514541 
L 117.151125 190.611978 
L 117.374325 195.173669 
L 117.597525 192.789365 
L 117.820725 191.685496 
L 118.043925 196.400943 
L 118.267125 189.513831 
L 118.490325 187.57629 
L 118.713525 184.631713 
L 118.936725 188.152336 
L 119.159925 183.999116 
L 119.383125 184.431404 
L 119.606325 185.71261 
L 119.829525 182.96391 
L 120.052725 184.420325 
L 120.275925 178.875632 
L 120.499125 184.629413 
L 120.722325 194.631328 
L 120.945525 188.926709 
L 121.168725 194.542764 
L 121.391925 190.288854 
L 121.615125 194.273209 
L 121.838325 190.697361 
L 122.061525 185.164415 
L 122.284725 188.961255 
L 122.954325 179.910639 
L 123.177525 188.7341 
L 123.400725 183.841808 
L 123.623925 187.95067 
L 124.070325 178.340237 
L 124.293525 179.088629 
L 124.516725 186.009185 
L 124.739925 179.594398 
L 125.186325 190.179895 
L 125.409525 187.819226 
L 125.632725 181.140814 
L 125.855925 181.882956 
L 126.079125 180.241952 
L 126.302325 180.848217 
L 126.748725 189.866544 
L 126.971925 188.825934 
L 127.418325 177.909243 
L 127.641525 180.745574 
L 127.864725 178.417424 
L 128.087925 183.761296 
L 128.311125 180.673898 
L 128.534325 180.165266 
L 128.757525 182.838491 
L 128.980725 183.040848 
L 129.203925 173.435356 
L 129.427125 173.65329 
L 129.650325 172.07151 
L 129.873525 175.058588 
L 130.096725 171.940078 
L 130.319925 173.085692 
L 130.543125 179.776469 
L 130.766325 179.233526 
L 130.989525 178.262216 
L 131.212725 175.435733 
L 131.435925 180.211289 
L 131.659125 189.511793 
L 131.882325 193.895241 
L 132.328725 182.088192 
L 132.551925 184.409367 
L 132.775125 180.222512 
L 132.998325 180.501385 
L 133.221525 180.046612 
L 133.444725 190.66747 
L 133.667925 191.490433 
L 134.114325 174.679073 
L 134.337525 178.141902 
L 134.560725 174.877981 
L 134.783925 176.420027 
L 135.007125 184.467855 
L 135.676725 188.676608 
L 135.899925 193.116425 
L 136.346325 180.819074 
L 136.569525 181.874191 
L 136.792725 180.993349 
L 137.239125 186.756836 
L 137.462325 183.413185 
L 137.685525 184.151711 
L 137.908725 187.282441 
L 138.131925 181.814739 
L 138.355125 183.979566 
L 138.801525 184.873819 
L 139.024725 189.657824 
L 139.247925 183.855786 
L 139.471125 189.479339 
L 139.694325 191.584868 
L 139.917525 182.515783 
L 140.140725 182.480348 
L 140.363925 183.145444 
L 140.587125 187.748056 
L 140.810325 190.01093 
L 141.256725 186.234521 
L 141.479925 191.627806 
L 141.703125 190.424633 
L 141.926325 188.125598 
L 142.149525 181.034768 
L 142.372725 178.674124 
L 142.595925 177.975944 
L 142.819125 185.38304 
L 143.042325 189.056668 
L 143.488725 179.342477 
L 143.711925 190.708165 
L 143.935125 188.629469 
L 144.158325 183.458825 
L 144.381525 182.47728 
L 144.604725 188.098447 
L 144.827925 184.978014 
L 145.051125 188.840593 
L 146.167125 181.717481 
L 146.390325 189.384353 
L 146.613525 187.374902 
L 146.836725 188.905247 
L 147.059925 185.086062 
L 147.283125 191.723415 
L 147.506325 185.304944 
L 147.729525 182.742235 
L 147.952725 183.478872 
L 148.399125 191.63093 
L 148.622325 185.95138 
L 148.845525 186.26157 
L 149.068725 186.342215 
L 149.291925 188.646743 
L 149.515125 185.137478 
L 149.738325 187.331897 
L 150.184725 188.850608 
L 150.631125 183.554038 
L 150.854325 183.082801 
L 151.077525 183.693543 
L 151.300725 185.17311 
L 151.523925 184.149885 
L 151.747125 182.283646 
L 151.970325 184.307921 
L 152.193525 187.779431 
L 152.416725 186.532297 
L 152.639925 181.304822 
L 152.863125 182.560752 
L 153.086325 181.921006 
L 153.309525 183.773985 
L 153.532725 181.947452 
L 154.202325 198.11391 
L 154.425525 190.844515 
L 154.871925 185.914554 
L 155.095125 191.192162 
L 155.541525 190.960065 
L 155.764725 189.932862 
L 155.987925 185.241585 
L 156.211125 183.865646 
L 156.434325 175.224754 
L 156.657525 175.598442 
L 156.880725 181.386748 
L 157.327125 187.324272 
L 157.550325 193.107802 
L 157.773525 192.657845 
L 157.996725 185.884003 
L 158.443125 178.543729 
L 158.666325 184.579973 
L 158.889525 185.403066 
L 159.112725 183.714874 
L 159.559125 186.417773 
L 159.782325 190.978908 
L 160.005525 190.032955 
L 160.451925 190.956786 
L 160.675125 192.603867 
L 161.121525 183.33657 
L 161.344725 185.675643 
L 161.567925 186.15278 
L 162.014325 177.685876 
L 162.237525 182.191344 
L 162.460725 182.379081 
L 162.683925 189.286504 
L 162.907125 187.637232 
L 163.130325 195.193705 
L 163.353525 187.147521 
L 163.576725 189.091748 
L 163.799925 187.898135 
L 164.023125 190.452394 
L 164.246325 189.043562 
L 164.692725 179.739715 
L 164.915925 185.651209 
L 165.139125 186.598259 
L 165.362325 186.485835 
L 165.585525 182.2038 
L 165.808725 183.322182 
L 166.031925 182.085489 
L 166.255125 184.092247 
L 166.478325 189.970735 
L 166.701525 186.878682 
L 166.924725 185.573401 
L 167.147925 181.272899 
L 167.371125 182.166809 
L 167.594325 187.429461 
L 167.817525 189.818256 
L 168.040725 190.542473 
L 168.263925 186.029065 
L 168.487125 191.467006 
L 168.710325 189.13018 
L 168.933525 196.349978 
L 169.156725 192.094328 
L 169.379925 192.129039 
L 169.826325 180.263914 
L 170.049525 179.305682 
L 170.272725 177.210241 
L 170.495925 179.469153 
L 170.719125 189.257989 
L 170.942325 185.933354 
L 171.388725 197.396914 
L 171.835125 182.003051 
L 172.058325 181.682095 
L 172.281525 181.099956 
L 172.504725 181.85014 
L 172.727925 179.924756 
L 172.951125 184.128255 
L 173.174325 184.179971 
L 173.397525 185.86729 
L 173.620725 189.939124 
L 173.843925 190.308357 
L 174.067125 187.328165 
L 174.290325 194.234321 
L 174.736725 188.08241 
L 174.959925 188.813675 
L 175.183125 188.409999 
L 175.406325 190.272753 
L 175.852725 183.150115 
L 176.075925 181.426245 
L 176.299125 181.349517 
L 176.522325 177.034338 
L 176.745525 182.613073 
L 176.968725 184.191287 
L 177.191925 186.658097 
L 177.415125 187.588196 
L 177.861525 195.0284 
L 178.084725 188.700613 
L 178.307925 192.182103 
L 178.531125 186.847727 
L 178.754325 185.325974 
L 178.977525 187.671306 
L 179.200725 185.053666 
L 179.423925 192.232106 
L 179.870325 184.384455 
L 180.093525 184.205822 
L 180.539925 190.167808 
L 180.763125 184.945246 
L 180.986325 189.247825 
L 181.209525 180.03044 
L 181.432725 177.213625 
L 181.655925 176.226157 
L 181.879125 179.997961 
L 182.102325 178.162189 
L 182.325525 188.341796 
L 182.771925 197.760716 
L 182.995125 190.461044 
L 183.441525 196.04205 
L 183.664725 182.460176 
L 183.887925 180.724806 
L 184.111125 176.345685 
L 184.557525 188.943611 
L 184.780725 191.569307 
L 185.003925 191.195987 
L 185.227125 193.515945 
L 185.896725 189.053384 
L 186.119925 183.515027 
L 186.343125 174.578036 
L 186.789525 186.679607 
L 187.012725 186.715276 
L 187.235925 189.490935 
L 187.682325 186.51577 
L 187.905525 184.401698 
L 188.128725 181.009051 
L 188.351925 188.391621 
L 188.575125 190.137863 
L 189.021525 179.464556 
L 189.244725 180.315565 
L 189.467925 183.277259 
L 189.691125 189.8112 
L 189.914325 186.892693 
L 190.137525 190.424779 
L 190.583925 184.830794 
L 190.807125 185.317746 
L 191.699925 194.585045 
L 191.923125 191.292744 
L 192.146325 195.132267 
L 192.592725 181.554495 
L 192.815925 184.034827 
L 193.039125 185.113553 
L 193.262325 182.310282 
L 193.485525 182.484985 
L 193.708725 185.433103 
L 193.931925 184.975381 
L 194.155125 184.005362 
L 194.378325 178.781061 
L 194.601525 180.9393 
L 194.824725 181.678971 
L 195.271125 194.248779 
L 195.494325 194.563672 
L 195.940725 188.710127 
L 196.163925 189.367809 
L 196.610325 182.65999 
L 196.833525 183.393962 
L 197.056725 180.713509 
L 197.279925 188.154994 
L 197.503125 190.073513 
L 197.726325 193.977288 
L 197.949525 194.411818 
L 198.172725 183.607642 
L 198.395925 184.733756 
L 198.619125 182.682678 
L 198.842325 184.202938 
L 199.065525 186.688062 
L 199.288725 184.687876 
L 199.511925 190.172443 
L 199.735125 187.461682 
L 199.958325 179.817141 
L 200.181525 186.699051 
L 200.404725 186.766586 
L 200.627925 185.417018 
L 201.297525 191.625823 
L 201.967125 185.140946 
L 202.190325 187.589208 
L 202.413525 188.792907 
L 202.636725 191.989804 
L 203.306325 178.324883 
L 203.529525 180.558005 
L 203.752725 178.608516 
L 203.975925 182.792101 
L 204.199125 181.188269 
L 204.422325 185.629162 
L 204.868725 203.000342 
L 205.091925 196.949198 
L 205.315125 183.884946 
L 205.538325 180.672077 
L 205.761525 184.464252 
L 205.984725 181.657205 
L 206.431125 186.162753 
L 206.654325 184.693364 
L 206.877525 193.17432 
L 207.323925 180.446439 
L 207.547125 178.21783 
L 207.993525 186.426751 
L 208.439925 182.81853 
L 208.663125 187.036383 
L 208.886325 187.680141 
L 209.109525 194.21909 
L 209.332725 193.631001 
L 209.555925 197.143454 
L 209.779125 186.448207 
L 210.002325 189.304799 
L 210.448725 186.372503 
L 210.671925 178.93094 
L 210.895125 179.309335 
L 211.341525 190.728193 
L 211.564725 190.213063 
L 211.787925 193.29098 
L 212.011125 187.560673 
L 212.234325 189.173108 
L 212.457525 189.780132 
L 212.680725 183.56539 
L 212.903925 181.628329 
L 213.127125 185.44518 
L 213.573525 173.682622 
L 213.796725 177.054544 
L 214.019925 188.29504 
L 214.243125 193.633966 
L 214.466325 194.451692 
L 214.689525 198.980489 
L 215.135925 182.35488 
L 215.359125 186.117607 
L 215.582325 181.54143 
L 215.805525 182.122536 
L 216.028725 183.161823 
L 216.698325 198.367 
L 216.921525 198.102929 
L 217.367925 188.920427 
L 217.814325 178.55523 
L 218.037525 182.447861 
L 218.260725 183.483512 
L 218.483925 179.343484 
L 218.707125 178.938508 
L 218.930325 180.809839 
L 219.153525 187.213164 
L 219.376725 189.665544 
L 219.599925 185.082847 
L 219.823125 185.377996 
L 220.046325 182.276537 
L 220.492725 190.98801 
L 220.715925 192.185414 
L 220.939125 186.448831 
L 221.608725 190.68175 
L 221.831925 186.9958 
L 222.055125 189.507646 
L 222.278325 190.615397 
L 222.501525 189.210683 
L 222.947925 182.782941 
L 223.171125 189.078425 
L 223.394325 181.664188 
L 223.617525 185.220701 
L 224.063925 188.977032 
L 224.287125 186.015449 
L 224.510325 184.955924 
L 224.733525 186.274911 
L 224.956725 188.619606 
L 225.179925 184.034362 
L 225.403125 184.247928 
L 225.626325 181.198476 
L 226.072725 185.811758 
L 226.295925 186.757575 
L 226.519125 194.252254 
L 226.742325 195.500522 
L 227.188725 183.283271 
L 227.635125 189.111309 
L 227.858325 183.385371 
L 228.081525 184.350217 
L 228.527925 188.299285 
L 228.751125 186.371217 
L 228.974325 193.303521 
L 229.197525 186.981424 
L 229.420725 187.633028 
L 229.643925 189.974859 
L 229.867125 181.390143 
L 230.313525 183.530016 
L 230.536725 185.428286 
L 230.759925 185.302879 
L 230.983125 189.018429 
L 231.206325 183.661723 
L 231.652725 189.442622 
L 231.875925 187.234888 
L 232.322325 180.445735 
L 232.545525 180.742684 
L 232.768725 191.768748 
L 232.991925 187.5599 
L 233.215125 192.625761 
L 233.438325 192.295535 
L 233.661525 196.418624 
L 234.107925 189.376583 
L 234.331125 188.703701 
L 234.554325 184.578014 
L 234.777525 188.472222 
L 235.000725 186.938439 
L 235.223925 182.398865 
L 235.447125 173.521776 
L 235.893525 181.057076 
L 236.116725 177.390762 
L 236.339925 185.285301 
L 236.563125 189.180042 
L 236.786325 186.492166 
L 237.232725 196.535542 
L 237.455925 188.87894 
L 237.679125 191.004361 
L 237.902325 185.97584 
L 238.125525 188.755957 
L 238.348725 185.717489 
L 238.571925 191.533891 
L 238.795125 194.379676 
L 239.018325 187.584778 
L 239.241525 185.833785 
L 239.464725 186.341451 
L 239.687925 188.51552 
L 239.911125 174.294792 
L 240.134325 177.490047 
L 240.357525 177.726938 
L 240.580725 188.479886 
L 241.027125 186.235288 
L 241.250325 189.161619 
L 241.473525 188.578773 
L 241.696725 191.995226 
L 241.919925 188.876948 
L 242.143125 190.600405 
L 242.366325 190.923215 
L 242.589525 187.941979 
L 242.812725 189.510522 
L 243.035925 187.081467 
L 243.259125 181.08621 
L 243.482325 179.459218 
L 243.928725 190.396357 
L 244.151925 192.46787 
L 244.821525 181.322592 
L 245.044725 186.244097 
L 245.267925 186.44192 
L 245.491125 183.94821 
L 245.714325 184.935097 
L 245.937525 185.294877 
L 246.160725 190.910856 
L 246.607125 187.954072 
L 246.830325 187.717842 
L 247.053525 184.951151 
L 247.276725 189.616099 
L 247.499925 185.37739 
L 247.723125 185.23428 
L 247.946325 185.349287 
L 248.169525 185.24648 
L 248.392725 188.694084 
L 248.615925 190.318877 
L 248.839125 187.316251 
L 249.062325 186.973682 
L 249.285525 185.225077 
L 249.508725 188.459315 
L 249.731925 184.834113 
L 249.955125 189.881985 
L 250.401525 184.915258 
L 250.624725 190.787539 
L 250.847925 185.316113 
L 251.071125 185.110579 
L 251.294325 181.855824 
L 251.740725 187.128527 
L 251.963925 190.061979 
L 252.187125 190.690675 
L 252.410325 188.124699 
L 252.856725 186.191963 
L 253.079925 188.374233 
L 253.526325 185.83196 
L 253.972725 177.015709 
L 254.195925 181.86874 
L 254.419125 190.0962 
L 254.642325 188.500605 
L 255.088725 198.500513 
L 255.311925 193.995995 
L 255.758325 179.368123 
L 255.981525 178.415875 
L 256.427925 182.843276 
L 256.651125 194.366388 
L 256.874325 191.787994 
L 257.097525 184.055085 
L 257.320725 185.811828 
L 257.543925 185.849666 
L 257.767125 180.159909 
L 257.990325 180.128251 
L 258.213525 190.30258 
L 258.436725 187.665365 
L 258.659925 194.241045 
L 259.106325 187.362064 
L 259.329525 192.986589 
L 259.552725 193.439327 
L 259.775925 191.824882 
L 259.999125 183.816702 
L 260.222325 190.145747 
L 260.445525 182.288002 
L 260.668725 179.489412 
L 260.891925 183.391426 
L 261.115125 183.265641 
L 261.338325 182.743293 
L 261.561525 186.280382 
L 261.784725 187.096058 
L 262.007925 188.921488 
L 262.231125 188.655378 
L 262.454325 184.247194 
L 262.677525 185.860248 
L 262.900725 185.982136 
L 263.123925 187.563294 
L 263.347125 188.229469 
L 263.570325 189.36211 
L 263.793525 188.820383 
L 264.016725 186.752028 
L 264.239925 188.516419 
L 264.463125 180.275286 
L 264.686325 183.434141 
L 264.909525 189.784649 
L 265.132725 189.753947 
L 265.355925 189.015257 
L 265.579125 189.855432 
L 265.802325 192.958579 
L 266.025525 181.244377 
L 266.695125 185.858307 
L 266.918325 185.257046 
L 267.141525 186.057311 
L 267.364725 186.237416 
L 267.587925 190.389465 
L 267.811125 189.666064 
L 268.034325 188.212377 
L 268.257525 189.238307 
L 268.480725 190.988119 
L 268.703925 189.685985 
L 268.927125 185.967608 
L 269.150325 186.921136 
L 269.373525 181.876735 
L 269.596725 182.264724 
L 269.819925 188.28038 
L 270.043125 189.480455 
L 270.266325 186.881701 
L 270.489525 189.519661 
L 270.712725 184.482956 
L 270.935925 183.205392 
L 271.159125 187.068507 
L 271.382325 186.406256 
L 271.605525 189.822369 
L 271.828725 184.9395 
L 272.051925 187.413109 
L 272.275125 185.218652 
L 272.498325 186.487764 
L 272.721525 180.846893 
L 272.944725 192.418581 
L 273.391125 188.830054 
L 273.614325 190.967307 
L 273.837525 191.680826 
L 274.060725 193.221124 
L 274.507125 178.771477 
L 274.730325 181.197381 
L 274.953525 178.956658 
L 275.176725 177.936727 
L 275.399925 192.375182 
L 275.623125 196.007717 
L 275.846325 192.625402 
L 276.069525 194.509079 
L 276.292725 193.649357 
L 276.739125 182.264677 
L 276.962325 180.496219 
L 277.408725 186.654911 
L 277.631925 189.113934 
L 278.078325 185.033698 
L 278.301525 187.700326 
L 278.524725 188.450662 
L 278.747925 184.604012 
L 279.194325 189.046922 
L 279.417525 187.027131 
L 279.640725 183.470746 
L 279.863925 177.665377 
L 280.310325 184.570573 
L 280.533525 186.388654 
L 280.756725 193.189474 
L 280.979925 192.71682 
L 281.203125 195.861012 
L 281.426325 189.570496 
L 281.649525 188.384421 
L 281.872725 185.163769 
L 282.095925 186.752321 
L 282.319125 190.524871 
L 282.765525 183.231896 
L 282.988725 179.964523 
L 283.211925 180.421902 
L 283.658325 188.574219 
L 283.881525 181.966555 
L 284.327925 188.573156 
L 284.774325 183.693009 
L 284.997525 184.314944 
L 285.220725 186.055435 
L 285.667125 198.38048 
L 285.890325 194.337822 
L 286.113525 192.993821 
L 286.336725 185.747278 
L 286.559925 186.124573 
L 286.783125 187.973887 
L 287.229525 184.165727 
L 287.899125 179.283831 
L 288.122325 178.633431 
L 288.345525 185.129578 
L 288.568725 183.550299 
L 288.791925 190.806567 
L 289.015125 192.610558 
L 289.461525 179.831603 
L 289.684725 185.439463 
L 289.907925 185.245517 
L 290.354325 192.218404 
L 290.577525 189.94221 
L 290.800725 193.847412 
L 291.023925 190.983809 
L 291.247125 185.609571 
L 291.470325 187.87193 
L 291.693525 193.81016 
L 291.916725 192.590388 
L 292.139925 194.966687 
L 292.363125 188.908685 
L 292.586325 186.080908 
L 292.809525 185.034096 
L 293.032725 186.558456 
L 293.255925 181.231905 
L 293.479125 182.348855 
L 293.702325 179.893339 
L 293.925525 179.547404 
L 294.148725 183.998235 
L 294.371925 183.757778 
L 294.595125 185.925405 
L 294.818325 184.683449 
L 295.041525 185.521667 
L 295.264725 187.620491 
L 295.487925 188.508001 
L 295.711125 191.743606 
L 295.934325 191.703199 
L 296.157525 188.901012 
L 296.380725 191.358557 
L 296.603925 189.429111 
L 296.827125 191.500699 
L 297.050325 183.55765 
L 297.273525 184.742709 
L 297.496725 185.131979 
L 297.943125 187.997757 
L 298.166325 190.646851 
L 298.389525 189.38443 
L 298.835925 183.38144 
L 299.059125 179.155374 
L 299.505525 185.397308 
L 299.728725 185.937659 
L 300.175125 193.187382 
L 300.621525 180.661541 
L 301.291125 195.14485 
L 301.514325 194.576569 
L 302.407125 181.251116 
L 302.630325 182.236656 
L 302.853525 179.172401 
L 303.076725 180.036741 
L 303.299925 184.24512 
L 303.523125 183.253587 
L 303.746325 187.675384 
L 303.969525 188.564377 
L 304.192725 186.095973 
L 304.415925 185.959531 
L 304.639125 186.734592 
L 304.862325 195.43097 
L 305.085525 198.402074 
L 305.308725 191.635489 
L 305.531925 193.983816 
L 305.755125 187.650832 
L 305.978325 188.831065 
L 306.201525 186.639652 
L 306.424725 183.188257 
L 306.647925 175.286288 
L 306.871125 185.940983 
L 307.094325 190.820602 
L 307.540725 186.033061 
L 307.763925 190.210815 
L 307.987125 189.784173 
L 308.210325 183.799556 
L 308.656725 180.256978 
L 308.879925 185.237946 
L 309.103125 186.785705 
L 309.326325 193.301062 
L 309.549525 186.703228 
L 309.772725 186.50765 
L 309.995925 184.875033 
L 310.219125 186.31925 
L 310.442325 184.117633 
L 310.665525 186.61777 
L 310.888725 180.806109 
L 311.111925 183.378353 
L 311.335125 180.104761 
L 311.558325 186.601082 
L 311.781525 187.274343 
L 312.004725 191.113366 
L 312.227925 192.513687 
L 312.451125 195.901963 
L 312.674325 195.642576 
L 313.120725 192.085138 
L 313.343925 185.837756 
L 313.567125 185.133892 
L 313.790325 187.262586 
L 314.013525 184.681815 
L 314.236725 176.395063 
L 314.459925 180.139801 
L 314.683125 178.441884 
L 315.129525 189.646649 
L 315.352725 187.67558 
L 315.575925 190.789912 
L 315.799125 189.639494 
L 316.022325 185.682433 
L 316.468725 186.930068 
L 316.691925 186.775157 
L 316.915125 186.415414 
L 317.138325 191.195494 
L 317.361525 185.59155 
L 317.584725 188.557312 
L 317.807925 187.565145 
L 318.031125 189.855447 
L 318.254325 184.871192 
L 318.477525 189.045532 
L 318.700725 183.784539 
L 319.147125 193.421514 
L 319.816725 183.516422 
L 320.039925 188.11646 
L 320.263125 185.809409 
L 320.486325 185.614984 
L 320.709525 184.072413 
L 321.155925 185.798934 
L 321.379125 184.32289 
L 321.825525 184.347074 
L 322.048725 186.314869 
L 322.271925 186.565445 
L 322.718325 191.751799 
L 322.941525 196.002116 
L 323.387925 189.976418 
L 323.611125 188.546703 
L 323.834325 184.461946 
L 324.057525 185.258892 
L 324.280725 181.574558 
L 324.503925 180.546233 
L 324.950325 182.045306 
L 325.173525 182.112088 
L 325.396725 181.999699 
L 325.619925 181.182006 
L 325.843125 192.639025 
L 326.289525 195.488516 
L 326.735925 187.226056 
L 326.959125 189.839315 
L 327.182325 185.324255 
L 327.405525 187.831819 
L 327.628725 183.7161 
L 327.851925 190.853296 
L 328.075125 188.47889 
L 328.298325 181.747363 
L 328.521525 188.685556 
L 328.744725 191.379931 
L 328.967925 182.644196 
L 329.191125 188.538091 
L 329.414325 190.066806 
L 329.637525 189.278437 
L 329.860725 187.748941 
L 330.307125 178.422217 
L 330.753525 189.005059 
L 330.976725 190.925934 
L 331.199925 186.02818 
L 331.423125 185.62233 
L 331.646325 185.572706 
L 331.869525 187.794539 
L 332.092725 186.934442 
L 332.315925 190.473987 
L 332.539125 188.522886 
L 332.762325 189.893708 
L 332.985525 186.847709 
L 333.208725 186.754081 
L 333.431925 180.735302 
L 333.655125 186.631967 
L 333.878325 180.226302 
L 334.101525 187.472422 
L 334.324725 190.16025 
L 334.547925 188.519179 
L 334.771125 190.196283 
L 334.994325 198.757953 
L 335.663925 181.64773 
L 335.887125 180.170355 
L 336.110325 184.503747 
L 336.333525 181.516627 
L 336.556725 181.257815 
L 336.779925 180.029252 
L 337.226325 191.820037 
L 337.672725 187.450474 
L 337.895925 187.751117 
L 338.119125 189.024916 
L 338.342325 189.329078 
L 338.565525 180.46125 
L 338.788725 181.079734 
L 339.011925 188.099296 
L 339.235125 189.538439 
L 339.458325 198.561725 
L 339.681525 199.046198 
L 339.904725 182.213195 
L 340.351125 180.547127 
L 340.574325 181.840813 
L 340.797525 185.997638 
L 341.020725 187.648151 
L 341.243925 187.205557 
L 341.467125 187.249063 
L 341.690325 188.907068 
L 341.913525 184.456862 
L 342.136725 185.288018 
L 342.359925 187.700171 
L 342.583125 185.991606 
L 342.806325 187.676615 
L 343.029525 186.188536 
L 343.252725 191.23144 
L 343.699125 185.711035 
L 343.922325 188.41608 
L 344.145525 183.499056 
L 344.591925 191.364101 
L 344.815125 187.124541 
L 345.038325 194.691675 
L 345.261525 190.429031 
L 345.484725 188.540036 
L 345.707925 190.083701 
L 345.931125 178.099092 
L 346.154325 176.772296 
L 346.377525 179.907388 
L 346.600725 185.592886 
L 346.823925 184.9228 
L 347.270325 187.064142 
L 347.493525 185.519542 
L 347.716725 185.050107 
L 347.939925 178.798237 
L 348.386325 189.101415 
L 348.832725 197.249119 
L 349.055925 191.793164 
L 349.279125 190.754069 
L 349.502325 193.162979 
L 349.725525 192.799869 
L 349.948725 186.600479 
L 350.171925 186.826076 
L 350.395125 186.10307 
L 350.618325 187.710265 
L 351.064725 180.229213 
L 351.287925 181.622822 
L 351.511125 180.439349 
L 351.734325 182.28062 
L 351.957525 188.515622 
L 352.180725 183.743986 
L 352.403925 186.005371 
L 352.627125 181.011962 
L 353.296725 193.140952 
L 353.519925 193.867709 
L 353.966325 187.136287 
L 354.189525 181.835114 
L 354.412725 183.27878 
L 354.635925 188.464979 
L 354.859125 189.972353 
L 355.305525 196.520812 
L 355.751925 190.58791 
L 356.198325 178.040767 
L 356.644725 185.769908 
L 356.867925 186.500008 
L 357.091125 190.508822 
L 357.314325 191.888009 
L 357.537525 197.014005 
L 357.760725 183.216397 
L 357.983925 179.488186 
L 358.207125 181.499629 
L 358.430325 179.948269 
L 358.653525 179.495522 
L 358.876725 187.16445 
L 359.099925 182.979136 
L 359.546325 190.600631 
L 359.769525 189.248408 
L 359.992725 196.239855 
L 360.215925 192.8217 
L 360.439125 184.311308 
L 360.885525 181.633649 
L 361.108725 186.635897 
L 361.331925 186.638917 
L 361.555125 189.080321 
L 361.778325 187.958585 
L 362.001525 195.574171 
L 362.224725 190.289159 
L 362.447925 187.824701 
L 362.671125 191.918921 
L 362.894325 190.409746 
L 363.117525 186.591287 
L 363.340725 190.475751 
L 364.010325 174.845232 
L 364.456725 187.721748 
L 364.679925 186.926478 
L 364.903125 188.324572 
L 364.903125 188.324572 
" clip-path="url(#pba5af5a579)" style="fill: none; stroke: #ff7f0e; stroke-width: 1.5; stroke-linecap: square"/>
   </g>
   <g id="line2d_16">
    <path d="M 30.326325 230.313456 
L 35.459925 230.197898 
L 40.593525 229.860852 
L 45.727125 229.302318 
L 50.860725 228.522297 
L 55.994325 227.520789 
L 61.127925 226.297793 
L 66.261525 224.853309 
L 71.618325 223.109881 
L 76.975125 221.125286 
L 82.331925 218.899526 
L 87.688725 216.4326 
L 93.045525 213.724507 
L 98.625525 210.64713 
L 104.205525 207.30807 
L 109.785525 203.707329 
L 115.365525 199.844906 
L 121.168725 195.550395 
L 126.971925 190.972848 
L 130.989525 187.826805 
L 364.903125 187.826805 
L 364.903125 187.826805 
" clip-path="url(#pba5af5a579)" style="fill: none; stroke: #2ca02c; stroke-width: 1.5; stroke-linecap: square"/>
   </g>
   <g id="patch_3">
    <path d="M 30.103125 253.44 
L 30.103125 36 
" style="fill: none; stroke: #000000; stroke-width: 0.8; stroke-linejoin: miter; stroke-linecap: square"/>
   </g>
   <g id="patch_4">
    <path d="M 364.903125 253.44 
L 364.903125 36 
" style="fill: none; stroke: #000000; stroke-width: 0.8; stroke-linejoin: miter; stroke-linecap: square"/>
   </g>
   <g id="patch_5">
    <path d="M 30.103125 253.44 
L 364.903125 253.44 
" style="fill: none; stroke: #000000; stroke-width: 0.8; stroke-linejoin: miter; stroke-linecap: square"/>
   </g>
   <g id="patch_6">
    <path d="M 30.103125 36 
L 364.903125 36 
" style="fill: none; stroke: #000000; stroke-width: 0.8; stroke-linejoin: miter; stroke-linecap: square"/>
   </g>
   <g id="legend_1">
    <g id="patch_7">
     <path d="M 260.903125 110.278125 
L 357.903125 110.278125 
Q 359.903125 110.278125 359.903125 108.278125 
L 359.903125 43 
Q 359.903125 41 357.903125 41 
L 260.903125 41 
Q 258.903125 41 258.903125 43 
L 258.903125 108.278125 
Q 258.903125 110.278125 260.903125 110.278125 
z
" style="fill: #ffffff; opacity: 0.8; stroke: #cccccc; stroke-linejoin: miter"/>
    </g>
    <g id="line2d_17">
     <path d="M 262.903125 49.098437 
L 272.903125 49.098437 
L 282.903125 49.098437 
" style="fill: none; stroke: #1f77b4; stroke-width: 1.5; stroke-linecap: square"/>
    </g>
    <g id="text_14">
     <!-- $x(t)$ -->
     <g transform="translate(290.903125 52.598437) scale(0.1 -0.1)">
      <defs>
       <path id="DejaVuSans-Oblique-78" d="M 3841 3500 
L 2234 1784 
L 3219 0 
L 2559 0 
L 1819 1388 
L 531 0 
L -166 0 
L 1556 1844 
L 641 3500 
L 1300 3500 
L 1972 2234 
L 3144 3500 
L 3841 3500 
z
" transform="scale(0.015625)"/>
       <path id="DejaVuSans-28" d="M 1984 4856 
Q 1566 4138 1362 3434 
Q 1159 2731 1159 2009 
Q 1159 1288 1364 580 
Q 1569 -128 1984 -844 
L 1484 -844 
Q 1016 -109 783 600 
Q 550 1309 550 2009 
Q 550 2706 781 3412 
Q 1013 4119 1484 4856 
L 1984 4856 
z
" transform="scale(0.015625)"/>
       <path id="DejaVuSans-Oblique-74" d="M 2706 3500 
L 2619 3053 
L 1472 3053 
L 1100 1153 
Q 1081 1047 1072 975 
Q 1063 903 1063 863 
Q 1063 663 1183 572 
Q 1303 481 1569 481 
L 2150 481 
L 2053 0 
L 1503 0 
Q 991 0 739 200 
Q 488 400 488 806 
Q 488 878 497 964 
Q 506 1050 525 1153 
L 897 3053 
L 409 3053 
L 500 3500 
L 978 3500 
L 1172 4494 
L 1747 4494 
L 1556 3500 
L 2706 3500 
z
" transform="scale(0.015625)"/>
       <path id="DejaVuSans-29" d="M 513 4856 
L 1013 4856 
Q 1481 4119 1714 3412 
Q 1947 2706 1947 2009 
Q 1947 1309 1714 600 
Q 1481 -109 1013 -844 
L 513 -844 
Q 928 -128 1133 580 
Q 1338 1288 1338 2009 
Q 1338 2731 1133 3434 
Q 928 4138 513 4856 
z
" transform="scale(0.015625)"/>
      </defs>
      <use xlink:href="#DejaVuSans-Oblique-78" transform="translate(0 0.125)"/>
      <use xlink:href="#DejaVuSans-28" transform="translate(59.179688 0.125)"/>
      <use xlink:href="#DejaVuSans-Oblique-74" transform="translate(98.193359 0.125)"/>
      <use xlink:href="#DejaVuSans-29" transform="translate(137.402344 0.125)"/>
     </g>
    </g>
    <g id="line2d_18">
     <path d="M 262.903125 73.478125 
L 272.903125 73.478125 
L 282.903125 73.478125 
" style="fill: none; stroke: #ff7f0e; stroke-width: 1.5; stroke-linecap: square"/>
    </g>
    <g id="text_15">
     <!-- $\hat{\int_{0}^{1.5}{x(t)}}$ -->
     <g transform="translate(290.903125 76.978125) scale(0.1 -0.1)">
      <defs>
       <path id="DejaVuSans-302" d="M -1831 5119 
L -1369 5119 
L -603 3944 
L -1038 3944 
L -1600 4709 
L -2163 3944 
L -2597 3944 
L -1831 5119 
z
M -1600 3584 
L -1600 3584 
z
" transform="scale(0.015625)"/>
       <path id="DejaVuSansDisplay-222b" d="M 2134 5525 
Q 2172 6263 2528 6556 
Q 2884 6850 3218 6850 
Q 3553 6850 3833 6575 
Q 4113 6300 4200 5678 
L 3544 5613 
Q 3469 6188 3219 6188 
Q 2906 6188 2869 5413 
L 2581 -597 
Q 2547 -1334 2187 -1628 
Q 1828 -1922 1497 -1922 
Q 1163 -1922 883 -1647 
Q 603 -1372 516 -750 
L 1172 -684 
Q 1247 -1259 1497 -1259 
Q 1809 -1259 1847 -488 
L 2134 5525 
z
" transform="scale(0.015625)"/>
       <path id="DejaVuSans-35" d="M 691 4666 
L 3169 4666 
L 3169 4134 
L 1269 4134 
L 1269 2991 
Q 1406 3038 1543 3061 
Q 1681 3084 1819 3084 
Q 2600 3084 3056 2656 
Q 3513 2228 3513 1497 
Q 3513 744 3044 326 
Q 2575 -91 1722 -91 
Q 1428 -91 1123 -41 
Q 819 9 494 109 
L 494 744 
Q 775 591 1075 516 
Q 1375 441 1709 441 
Q 2250 441 2565 725 
Q 2881 1009 2881 1497 
Q 2881 1984 2565 2268 
Q 2250 2553 1709 2553 
Q 1456 2553 1204 2497 
Q 953 2441 691 2322 
L 691 4666 
z
" transform="scale(0.015625)"/>
      </defs>
      <use xlink:href="#DejaVuSans-302" transform="translate(259.198975 93.015625)"/>
      <use xlink:href="#DejaVuSansDisplay-222b" transform="translate(0 0.325)"/>
      <use xlink:href="#DejaVuSans-31" transform="translate(86.744141 85.48125) scale(0.7)"/>
      <use xlink:href="#DejaVuSans-2e" transform="translate(131.280273 85.48125) scale(0.7)"/>
      <use xlink:href="#DejaVuSans-35" transform="translate(153.53125 85.48125) scale(0.7)"/>
      <use xlink:href="#DejaVuSans-30" transform="translate(71.759766 -51.58125) scale(0.7)"/>
      <use xlink:href="#DejaVuSans-Oblique-78" transform="translate(198.067383 0.325)"/>
      <use xlink:href="#DejaVuSans-28" transform="translate(257.24707 0.325)"/>
      <use xlink:href="#DejaVuSans-Oblique-74" transform="translate(296.260742 0.325)"/>
      <use xlink:href="#DejaVuSans-29" transform="translate(335.469727 0.325)"/>
     </g>
    </g>
    <g id="line2d_19">
     <path d="M 262.903125 97.478125 
L 272.903125 97.478125 
L 282.903125 97.478125 
" style="fill: none; stroke: #2ca02c; stroke-width: 1.5; stroke-linecap: square"/>
    </g>
    <g id="text_16">
     <!-- Ideal $\int_{0}^{1.5}{x(t)}}$ -->
     <g transform="translate(290.903125 100.978125) scale(0.1 -0.1)">
      <defs>
       <path id="DejaVuSans-49" d="M 628 4666 
L 1259 4666 
L 1259 0 
L 628 0 
L 628 4666 
z
" transform="scale(0.015625)"/>
       <path id="DejaVuSans-64" d="M 2906 2969 
L 2906 4863 
L 3481 4863 
L 3481 0 
L 2906 0 
L 2906 525 
Q 2725 213 2448 61 
Q 2172 -91 1784 -91 
Q 1150 -91 751 415 
Q 353 922 353 1747 
Q 353 2572 751 3078 
Q 1150 3584 1784 3584 
Q 2172 3584 2448 3432 
Q 2725 3281 2906 2969 
z
M 947 1747 
Q 947 1113 1208 752 
Q 1469 391 1925 391 
Q 2381 391 2643 752 
Q 2906 1113 2906 1747 
Q 2906 2381 2643 2742 
Q 2381 3103 1925 3103 
Q 1469 3103 1208 2742 
Q 947 2381 947 1747 
z
" transform="scale(0.015625)"/>
       <path id="DejaVuSans-65" d="M 3597 1894 
L 3597 1613 
L 953 1613 
Q 991 1019 1311 708 
Q 1631 397 2203 397 
Q 2534 397 2845 478 
Q 3156 559 3463 722 
L 3463 178 
Q 3153 47 2828 -22 
Q 2503 -91 2169 -91 
Q 1331 -91 842 396 
Q 353 884 353 1716 
Q 353 2575 817 3079 
Q 1281 3584 2069 3584 
Q 2775 3584 3186 3129 
Q 3597 2675 3597 1894 
z
M 3022 2063 
Q 3016 2534 2758 2815 
Q 2500 3097 2075 3097 
Q 1594 3097 1305 2825 
Q 1016 2553 972 2059 
L 3022 2063 
z
" transform="scale(0.015625)"/>
       <path id="DejaVuSans-61" d="M 2194 1759 
Q 1497 1759 1228 1600 
Q 959 1441 959 1056 
Q 959 750 1161 570 
Q 1363 391 1709 391 
Q 2188 391 2477 730 
Q 2766 1069 2766 1631 
L 2766 1759 
L 2194 1759 
z
M 3341 1997 
L 3341 0 
L 2766 0 
L 2766 531 
Q 2569 213 2275 61 
Q 1981 -91 1556 -91 
Q 1019 -91 701 211 
Q 384 513 384 1019 
Q 384 1609 779 1909 
Q 1175 2209 1959 2209 
L 2766 2209 
L 2766 2266 
Q 2766 2663 2505 2880 
Q 2244 3097 1772 3097 
Q 1472 3097 1187 3025 
Q 903 2953 641 2809 
L 641 3341 
Q 956 3463 1253 3523 
Q 1550 3584 1831 3584 
Q 2591 3584 2966 3190 
Q 3341 2797 3341 1997 
z
" transform="scale(0.015625)"/>
       <path id="DejaVuSans-6c" d="M 603 4863 
L 1178 4863 
L 1178 0 
L 603 0 
L 603 4863 
z
" transform="scale(0.015625)"/>
       <path id="DejaVuSans-20" transform="scale(0.015625)"/>
      </defs>
      <use xlink:href="#DejaVuSans-49" transform="translate(0 0.809375)"/>
      <use xlink:href="#DejaVuSans-64" transform="translate(29.492188 0.809375)"/>
      <use xlink:href="#DejaVuSans-65" transform="translate(92.96875 0.809375)"/>
      <use xlink:href="#DejaVuSans-61" transform="translate(154.492188 0.809375)"/>
      <use xlink:href="#DejaVuSans-6c" transform="translate(215.771484 0.809375)"/>
      <use xlink:href="#DejaVuSans-20" transform="translate(243.554688 0.809375)"/>
      <use xlink:href="#DejaVuSansDisplay-222b" transform="translate(275.341797 0.809375)"/>
      <use xlink:href="#DejaVuSans-31" transform="translate(362.085938 85.965625) scale(0.7)"/>
      <use xlink:href="#DejaVuSans-2e" transform="translate(406.62207 85.965625) scale(0.7)"/>
      <use xlink:href="#DejaVuSans-35" transform="translate(428.873047 85.965625) scale(0.7)"/>
      <use xlink:href="#DejaVuSans-30" transform="translate(347.101562 -51.096875) scale(0.7)"/>
      <use xlink:href="#DejaVuSans-Oblique-78" transform="translate(473.40918 0.809375)"/>
      <use xlink:href="#DejaVuSans-28" transform="translate(532.588867 0.809375)"/>
      <use xlink:href="#DejaVuSans-Oblique-74" transform="translate(571.602539 0.809375)"/>
      <use xlink:href="#DejaVuSans-29" transform="translate(610.811523 0.809375)"/>
     </g>
    </g>
   </g>
  </g>
  <g id="text_17">
   <!-- Neural Integrator for a Ramp Input -->
   <g transform="translate(87.88875 16.318125) scale(0.12 -0.12)">
    <defs>
     <path id="DejaVuSans-4e" d="M 628 4666 
L 1478 4666 
L 3547 763 
L 3547 4666 
L 4159 4666 
L 4159 0 
L 3309 0 
L 1241 3903 
L 1241 0 
L 628 0 
L 628 4666 
z
" transform="scale(0.015625)"/>
     <path id="DejaVuSans-75" d="M 544 1381 
L 544 3500 
L 1119 3500 
L 1119 1403 
Q 1119 906 1312 657 
Q 1506 409 1894 409 
Q 2359 409 2629 706 
Q 2900 1003 2900 1516 
L 2900 3500 
L 3475 3500 
L 3475 0 
L 2900 0 
L 2900 538 
Q 2691 219 2414 64 
Q 2138 -91 1772 -91 
Q 1169 -91 856 284 
Q 544 659 544 1381 
z
M 1991 3584 
L 1991 3584 
z
" transform="scale(0.015625)"/>
     <path id="DejaVuSans-72" d="M 2631 2963 
Q 2534 3019 2420 3045 
Q 2306 3072 2169 3072 
Q 1681 3072 1420 2755 
Q 1159 2438 1159 1844 
L 1159 0 
L 581 0 
L 581 3500 
L 1159 3500 
L 1159 2956 
Q 1341 3275 1631 3429 
Q 1922 3584 2338 3584 
Q 2397 3584 2469 3576 
Q 2541 3569 2628 3553 
L 2631 2963 
z
" transform="scale(0.015625)"/>
     <path id="DejaVuSans-6e" d="M 3513 2113 
L 3513 0 
L 2938 0 
L 2938 2094 
Q 2938 2591 2744 2837 
Q 2550 3084 2163 3084 
Q 1697 3084 1428 2787 
Q 1159 2491 1159 1978 
L 1159 0 
L 581 0 
L 581 3500 
L 1159 3500 
L 1159 2956 
Q 1366 3272 1645 3428 
Q 1925 3584 2291 3584 
Q 2894 3584 3203 3211 
Q 3513 2838 3513 2113 
z
" transform="scale(0.015625)"/>
     <path id="DejaVuSans-74" d="M 1172 4494 
L 1172 3500 
L 2356 3500 
L 2356 3053 
L 1172 3053 
L 1172 1153 
Q 1172 725 1289 603 
Q 1406 481 1766 481 
L 2356 481 
L 2356 0 
L 1766 0 
Q 1100 0 847 248 
Q 594 497 594 1153 
L 594 3053 
L 172 3053 
L 172 3500 
L 594 3500 
L 594 4494 
L 1172 4494 
z
" transform="scale(0.015625)"/>
     <path id="DejaVuSans-67" d="M 2906 1791 
Q 2906 2416 2648 2759 
Q 2391 3103 1925 3103 
Q 1463 3103 1205 2759 
Q 947 2416 947 1791 
Q 947 1169 1205 825 
Q 1463 481 1925 481 
Q 2391 481 2648 825 
Q 2906 1169 2906 1791 
z
M 3481 434 
Q 3481 -459 3084 -895 
Q 2688 -1331 1869 -1331 
Q 1566 -1331 1297 -1286 
Q 1028 -1241 775 -1147 
L 775 -588 
Q 1028 -725 1275 -790 
Q 1522 -856 1778 -856 
Q 2344 -856 2625 -561 
Q 2906 -266 2906 331 
L 2906 616 
Q 2728 306 2450 153 
Q 2172 0 1784 0 
Q 1141 0 747 490 
Q 353 981 353 1791 
Q 353 2603 747 3093 
Q 1141 3584 1784 3584 
Q 2172 3584 2450 3431 
Q 2728 3278 2906 2969 
L 2906 3500 
L 3481 3500 
L 3481 434 
z
" transform="scale(0.015625)"/>
     <path id="DejaVuSans-6f" d="M 1959 3097 
Q 1497 3097 1228 2736 
Q 959 2375 959 1747 
Q 959 1119 1226 758 
Q 1494 397 1959 397 
Q 2419 397 2687 759 
Q 2956 1122 2956 1747 
Q 2956 2369 2687 2733 
Q 2419 3097 1959 3097 
z
M 1959 3584 
Q 2709 3584 3137 3096 
Q 3566 2609 3566 1747 
Q 3566 888 3137 398 
Q 2709 -91 1959 -91 
Q 1206 -91 779 398 
Q 353 888 353 1747 
Q 353 2609 779 3096 
Q 1206 3584 1959 3584 
z
" transform="scale(0.015625)"/>
     <path id="DejaVuSans-66" d="M 2375 4863 
L 2375 4384 
L 1825 4384 
Q 1516 4384 1395 4259 
Q 1275 4134 1275 3809 
L 1275 3500 
L 2222 3500 
L 2222 3053 
L 1275 3053 
L 1275 0 
L 697 0 
L 697 3053 
L 147 3053 
L 147 3500 
L 697 3500 
L 697 3744 
Q 697 4328 969 4595 
Q 1241 4863 1831 4863 
L 2375 4863 
z
" transform="scale(0.015625)"/>
     <path id="DejaVuSans-52" d="M 2841 2188 
Q 3044 2119 3236 1894 
Q 3428 1669 3622 1275 
L 4263 0 
L 3584 0 
L 2988 1197 
Q 2756 1666 2539 1819 
Q 2322 1972 1947 1972 
L 1259 1972 
L 1259 0 
L 628 0 
L 628 4666 
L 2053 4666 
Q 2853 4666 3247 4331 
Q 3641 3997 3641 3322 
Q 3641 2881 3436 2590 
Q 3231 2300 2841 2188 
z
M 1259 4147 
L 1259 2491 
L 2053 2491 
Q 2509 2491 2742 2702 
Q 2975 2913 2975 3322 
Q 2975 3731 2742 3939 
Q 2509 4147 2053 4147 
L 1259 4147 
z
" transform="scale(0.015625)"/>
     <path id="DejaVuSans-6d" d="M 3328 2828 
Q 3544 3216 3844 3400 
Q 4144 3584 4550 3584 
Q 5097 3584 5394 3201 
Q 5691 2819 5691 2113 
L 5691 0 
L 5113 0 
L 5113 2094 
Q 5113 2597 4934 2840 
Q 4756 3084 4391 3084 
Q 3944 3084 3684 2787 
Q 3425 2491 3425 1978 
L 3425 0 
L 2847 0 
L 2847 2094 
Q 2847 2600 2669 2842 
Q 2491 3084 2119 3084 
Q 1678 3084 1418 2786 
Q 1159 2488 1159 1978 
L 1159 0 
L 581 0 
L 581 3500 
L 1159 3500 
L 1159 2956 
Q 1356 3278 1631 3431 
Q 1906 3584 2284 3584 
Q 2666 3584 2933 3390 
Q 3200 3197 3328 2828 
z
" transform="scale(0.015625)"/>
     <path id="DejaVuSans-70" d="M 1159 525 
L 1159 -1331 
L 581 -1331 
L 581 3500 
L 1159 3500 
L 1159 2969 
Q 1341 3281 1617 3432 
Q 1894 3584 2278 3584 
Q 2916 3584 3314 3078 
Q 3713 2572 3713 1747 
Q 3713 922 3314 415 
Q 2916 -91 2278 -91 
Q 1894 -91 1617 61 
Q 1341 213 1159 525 
z
M 3116 1747 
Q 3116 2381 2855 2742 
Q 2594 3103 2138 3103 
Q 1681 3103 1420 2742 
Q 1159 2381 1159 1747 
Q 1159 1113 1420 752 
Q 1681 391 2138 391 
Q 2594 391 2855 752 
Q 3116 1113 3116 1747 
z
" transform="scale(0.015625)"/>
    </defs>
    <use xlink:href="#DejaVuSans-4e"/>
    <use xlink:href="#DejaVuSans-65" x="74.804688"/>
    <use xlink:href="#DejaVuSans-75" x="136.328125"/>
    <use xlink:href="#DejaVuSans-72" x="199.707031"/>
    <use xlink:href="#DejaVuSans-61" x="240.820312"/>
    <use xlink:href="#DejaVuSans-6c" x="302.099609"/>
    <use xlink:href="#DejaVuSans-20" x="329.882812"/>
    <use xlink:href="#DejaVuSans-49" x="361.669922"/>
    <use xlink:href="#DejaVuSans-6e" x="391.162109"/>
    <use xlink:href="#DejaVuSans-74" x="454.541016"/>
    <use xlink:href="#DejaVuSans-65" x="493.75"/>
    <use xlink:href="#DejaVuSans-67" x="555.273438"/>
    <use xlink:href="#DejaVuSans-72" x="618.75"/>
    <use xlink:href="#DejaVuSans-61" x="659.863281"/>
    <use xlink:href="#DejaVuSans-74" x="721.142578"/>
    <use xlink:href="#DejaVuSans-6f" x="760.351562"/>
    <use xlink:href="#DejaVuSans-72" x="821.533203"/>
    <use xlink:href="#DejaVuSans-20" x="862.646484"/>
    <use xlink:href="#DejaVuSans-66" x="894.433594"/>
    <use xlink:href="#DejaVuSans-6f" x="929.638672"/>
    <use xlink:href="#DejaVuSans-72" x="990.820312"/>
    <use xlink:href="#DejaVuSans-20" x="1031.933594"/>
    <use xlink:href="#DejaVuSans-61" x="1063.720703"/>
    <use xlink:href="#DejaVuSans-20" x="1125"/>
    <use xlink:href="#DejaVuSans-52" x="1156.787109"/>
    <use xlink:href="#DejaVuSans-61" x="1224.019531"/>
    <use xlink:href="#DejaVuSans-6d" x="1285.298828"/>
    <use xlink:href="#DejaVuSans-70" x="1382.710938"/>
    <use xlink:href="#DejaVuSans-20" x="1446.1875"/>
    <use xlink:href="#DejaVuSans-49" x="1477.974609"/>
    <use xlink:href="#DejaVuSans-6e" x="1507.466797"/>
    <use xlink:href="#DejaVuSans-70" x="1570.845703"/>
    <use xlink:href="#DejaVuSans-75" x="1634.322266"/>
    <use xlink:href="#DejaVuSans-74" x="1697.701172"/>
   </g>
  </g>
 </g>
 <defs>
  <clipPath id="pba5af5a579">
   <rect x="30.103125" y="36" width="334.8" height="217.44"/>
  </clipPath>
 </defs>
</svg>
