<?xml version="1.0" encoding="utf-8" standalone="no"?>
<!DOCTYPE svg PUBLIC "-//W3C//DTD SVG 1.1//EN"
  "http://www.w3.org/Graphics/SVG/1.1/DTD/svg11.dtd">
<svg xmlns:xlink="http://www.w3.org/1999/xlink" width="370.942187pt" height="277.318125pt" viewBox="0 0 370.942187 277.318125" xmlns="http://www.w3.org/2000/svg" version="1.1">
 <metadata>
  <rdf:RDF xmlns:dc="http://purl.org/dc/elements/1.1/" xmlns:cc="http://creativecommons.org/ns#" xmlns:rdf="http://www.w3.org/1999/02/22-rdf-syntax-ns#">
   <cc:Work>
    <dc:type rdf:resource="http://purl.org/dc/dcmitype/StillImage"/>
    <dc:date>2022-11-11T22:01:50.120319</dc:date>
    <dc:format>image/svg+xml</dc:format>
    <dc:creator>
     <cc:Agent>
      <dc:title>Matplotlib v3.6.0, https://matplotlib.org/</dc:title>
     </cc:Agent>
    </dc:creator>
   </cc:Work>
  </rdf:RDF>
 </metadata>
 <defs>
  <style type="text/css">*{stroke-linejoin: round; stroke-linecap: butt}</style>
 </defs>
 <g id="figure_1">
  <g id="patch_1">
   <path d="M 0 277.318125 
L 370.942187 277.318125 
L 370.942187 0 
L 0 0 
L 0 277.318125 
z
" style="fill: none"/>
  </g>
  <g id="axes_1">
   <g id="patch_2">
    <path d="M 28.942188 253.44 
L 363.742188 253.44 
L 363.742188 36 
L 28.942188 36 
z
" style="fill: #ffffff"/>
   </g>
   <g id="matplotlib.axis_1">
    <g id="xtick_1">
     <g id="line2d_1">
      <defs>
       <path id="m5f03e66a17" d="M 0 0 
L 0 3.5 
" style="stroke: #000000; stroke-width: 0.8"/>
      </defs>
      <g>
       <use xlink:href="#m5f03e66a17" x="28.942188" y="253.44" style="stroke: #000000; stroke-width: 0.8"/>
      </g>
     </g>
     <g id="text_1">
      <!-- 0.0 -->
      <g transform="translate(20.990625 268.038437) scale(0.1 -0.1)">
       <defs>
        <path id="DejaVuSans-30" d="M 2034 4250 
Q 1547 4250 1301 3770 
Q 1056 3291 1056 2328 
Q 1056 1369 1301 889 
Q 1547 409 2034 409 
Q 2525 409 2770 889 
Q 3016 1369 3016 2328 
Q 3016 3291 2770 3770 
Q 2525 4250 2034 4250 
z
M 2034 4750 
Q 2819 4750 3233 4129 
Q 3647 3509 3647 2328 
Q 3647 1150 3233 529 
Q 2819 -91 2034 -91 
Q 1250 -91 836 529 
Q 422 1150 422 2328 
Q 422 3509 836 4129 
Q 1250 4750 2034 4750 
z
" transform="scale(0.015625)"/>
        <path id="DejaVuSans-2e" d="M 684 794 
L 1344 794 
L 1344 0 
L 684 0 
L 684 794 
z
" transform="scale(0.015625)"/>
       </defs>
       <use xlink:href="#DejaVuSans-30"/>
       <use xlink:href="#DejaVuSans-2e" x="63.623047"/>
       <use xlink:href="#DejaVuSans-30" x="95.410156"/>
      </g>
     </g>
    </g>
    <g id="xtick_2">
     <g id="line2d_2">
      <g>
       <use xlink:href="#m5f03e66a17" x="73.582188" y="253.44" style="stroke: #000000; stroke-width: 0.8"/>
      </g>
     </g>
     <g id="text_2">
      <!-- 0.2 -->
      <g transform="translate(65.630625 268.038437) scale(0.1 -0.1)">
       <defs>
        <path id="DejaVuSans-32" d="M 1228 531 
L 3431 531 
L 3431 0 
L 469 0 
L 469 531 
Q 828 903 1448 1529 
Q 2069 2156 2228 2338 
Q 2531 2678 2651 2914 
Q 2772 3150 2772 3378 
Q 2772 3750 2511 3984 
Q 2250 4219 1831 4219 
Q 1534 4219 1204 4116 
Q 875 4013 500 3803 
L 500 4441 
Q 881 4594 1212 4672 
Q 1544 4750 1819 4750 
Q 2544 4750 2975 4387 
Q 3406 4025 3406 3419 
Q 3406 3131 3298 2873 
Q 3191 2616 2906 2266 
Q 2828 2175 2409 1742 
Q 1991 1309 1228 531 
z
" transform="scale(0.015625)"/>
       </defs>
       <use xlink:href="#DejaVuSans-30"/>
       <use xlink:href="#DejaVuSans-2e" x="63.623047"/>
       <use xlink:href="#DejaVuSans-32" x="95.410156"/>
      </g>
     </g>
    </g>
    <g id="xtick_3">
     <g id="line2d_3">
      <g>
       <use xlink:href="#m5f03e66a17" x="118.222188" y="253.44" style="stroke: #000000; stroke-width: 0.8"/>
      </g>
     </g>
     <g id="text_3">
      <!-- 0.4 -->
      <g transform="translate(110.270625 268.038437) scale(0.1 -0.1)">
       <defs>
        <path id="DejaVuSans-34" d="M 2419 4116 
L 825 1625 
L 2419 1625 
L 2419 4116 
z
M 2253 4666 
L 3047 4666 
L 3047 1625 
L 3713 1625 
L 3713 1100 
L 3047 1100 
L 3047 0 
L 2419 0 
L 2419 1100 
L 313 1100 
L 313 1709 
L 2253 4666 
z
" transform="scale(0.015625)"/>
       </defs>
       <use xlink:href="#DejaVuSans-30"/>
       <use xlink:href="#DejaVuSans-2e" x="63.623047"/>
       <use xlink:href="#DejaVuSans-34" x="95.410156"/>
      </g>
     </g>
    </g>
    <g id="xtick_4">
     <g id="line2d_4">
      <g>
       <use xlink:href="#m5f03e66a17" x="162.862188" y="253.44" style="stroke: #000000; stroke-width: 0.8"/>
      </g>
     </g>
     <g id="text_4">
      <!-- 0.6 -->
      <g transform="translate(154.910625 268.038437) scale(0.1 -0.1)">
       <defs>
        <path id="DejaVuSans-36" d="M 2113 2584 
Q 1688 2584 1439 2293 
Q 1191 2003 1191 1497 
Q 1191 994 1439 701 
Q 1688 409 2113 409 
Q 2538 409 2786 701 
Q 3034 994 3034 1497 
Q 3034 2003 2786 2293 
Q 2538 2584 2113 2584 
z
M 3366 4563 
L 3366 3988 
Q 3128 4100 2886 4159 
Q 2644 4219 2406 4219 
Q 1781 4219 1451 3797 
Q 1122 3375 1075 2522 
Q 1259 2794 1537 2939 
Q 1816 3084 2150 3084 
Q 2853 3084 3261 2657 
Q 3669 2231 3669 1497 
Q 3669 778 3244 343 
Q 2819 -91 2113 -91 
Q 1303 -91 875 529 
Q 447 1150 447 2328 
Q 447 3434 972 4092 
Q 1497 4750 2381 4750 
Q 2619 4750 2861 4703 
Q 3103 4656 3366 4563 
z
" transform="scale(0.015625)"/>
       </defs>
       <use xlink:href="#DejaVuSans-30"/>
       <use xlink:href="#DejaVuSans-2e" x="63.623047"/>
       <use xlink:href="#DejaVuSans-36" x="95.410156"/>
      </g>
     </g>
    </g>
    <g id="xtick_5">
     <g id="line2d_5">
      <g>
       <use xlink:href="#m5f03e66a17" x="207.502187" y="253.44" style="stroke: #000000; stroke-width: 0.8"/>
      </g>
     </g>
     <g id="text_5">
      <!-- 0.8 -->
      <g transform="translate(199.550625 268.038437) scale(0.1 -0.1)">
       <defs>
        <path id="DejaVuSans-38" d="M 2034 2216 
Q 1584 2216 1326 1975 
Q 1069 1734 1069 1313 
Q 1069 891 1326 650 
Q 1584 409 2034 409 
Q 2484 409 2743 651 
Q 3003 894 3003 1313 
Q 3003 1734 2745 1975 
Q 2488 2216 2034 2216 
z
M 1403 2484 
Q 997 2584 770 2862 
Q 544 3141 544 3541 
Q 544 4100 942 4425 
Q 1341 4750 2034 4750 
Q 2731 4750 3128 4425 
Q 3525 4100 3525 3541 
Q 3525 3141 3298 2862 
Q 3072 2584 2669 2484 
Q 3125 2378 3379 2068 
Q 3634 1759 3634 1313 
Q 3634 634 3220 271 
Q 2806 -91 2034 -91 
Q 1263 -91 848 271 
Q 434 634 434 1313 
Q 434 1759 690 2068 
Q 947 2378 1403 2484 
z
M 1172 3481 
Q 1172 3119 1398 2916 
Q 1625 2713 2034 2713 
Q 2441 2713 2670 2916 
Q 2900 3119 2900 3481 
Q 2900 3844 2670 4047 
Q 2441 4250 2034 4250 
Q 1625 4250 1398 4047 
Q 1172 3844 1172 3481 
z
" transform="scale(0.015625)"/>
       </defs>
       <use xlink:href="#DejaVuSans-30"/>
       <use xlink:href="#DejaVuSans-2e" x="63.623047"/>
       <use xlink:href="#DejaVuSans-38" x="95.410156"/>
      </g>
     </g>
    </g>
    <g id="xtick_6">
     <g id="line2d_6">
      <g>
       <use xlink:href="#m5f03e66a17" x="252.142187" y="253.44" style="stroke: #000000; stroke-width: 0.8"/>
      </g>
     </g>
     <g id="text_6">
      <!-- 1.0 -->
      <g transform="translate(244.190625 268.038437) scale(0.1 -0.1)">
       <defs>
        <path id="DejaVuSans-31" d="M 794 531 
L 1825 531 
L 1825 4091 
L 703 3866 
L 703 4441 
L 1819 4666 
L 2450 4666 
L 2450 531 
L 3481 531 
L 3481 0 
L 794 0 
L 794 531 
z
" transform="scale(0.015625)"/>
       </defs>
       <use xlink:href="#DejaVuSans-31"/>
       <use xlink:href="#DejaVuSans-2e" x="63.623047"/>
       <use xlink:href="#DejaVuSans-30" x="95.410156"/>
      </g>
     </g>
    </g>
    <g id="xtick_7">
     <g id="line2d_7">
      <g>
       <use xlink:href="#m5f03e66a17" x="296.782188" y="253.44" style="stroke: #000000; stroke-width: 0.8"/>
      </g>
     </g>
     <g id="text_7">
      <!-- 1.2 -->
      <g transform="translate(288.830625 268.038437) scale(0.1 -0.1)">
       <use xlink:href="#DejaVuSans-31"/>
       <use xlink:href="#DejaVuSans-2e" x="63.623047"/>
       <use xlink:href="#DejaVuSans-32" x="95.410156"/>
      </g>
     </g>
    </g>
    <g id="xtick_8">
     <g id="line2d_8">
      <g>
       <use xlink:href="#m5f03e66a17" x="341.422188" y="253.44" style="stroke: #000000; stroke-width: 0.8"/>
      </g>
     </g>
     <g id="text_8">
      <!-- 1.4 -->
      <g transform="translate(333.470625 268.038437) scale(0.1 -0.1)">
       <use xlink:href="#DejaVuSans-31"/>
       <use xlink:href="#DejaVuSans-2e" x="63.623047"/>
       <use xlink:href="#DejaVuSans-34" x="95.410156"/>
      </g>
     </g>
    </g>
   </g>
   <g id="matplotlib.axis_2">
    <g id="ytick_1">
     <g id="line2d_9">
      <defs>
       <path id="mde9cee9a06" d="M 0 0 
L -3.5 0 
" style="stroke: #000000; stroke-width: 0.8"/>
      </defs>
      <g>
       <use xlink:href="#mde9cee9a06" x="28.942188" y="223.887769" style="stroke: #000000; stroke-width: 0.8"/>
      </g>
     </g>
     <g id="text_9">
      <!-- −4 -->
      <g transform="translate(7.2 227.686988) scale(0.1 -0.1)">
       <defs>
        <path id="DejaVuSans-2212" d="M 678 2272 
L 4684 2272 
L 4684 1741 
L 678 1741 
L 678 2272 
z
" transform="scale(0.015625)"/>
       </defs>
       <use xlink:href="#DejaVuSans-2212"/>
       <use xlink:href="#DejaVuSans-34" x="83.789062"/>
      </g>
     </g>
    </g>
    <g id="ytick_2">
     <g id="line2d_10">
      <g>
       <use xlink:href="#mde9cee9a06" x="28.942188" y="184.303849" style="stroke: #000000; stroke-width: 0.8"/>
      </g>
     </g>
     <g id="text_10">
      <!-- −2 -->
      <g transform="translate(7.2 188.103068) scale(0.1 -0.1)">
       <use xlink:href="#DejaVuSans-2212"/>
       <use xlink:href="#DejaVuSans-32" x="83.789062"/>
      </g>
     </g>
    </g>
    <g id="ytick_3">
     <g id="line2d_11">
      <g>
       <use xlink:href="#mde9cee9a06" x="28.942188" y="144.719929" style="stroke: #000000; stroke-width: 0.8"/>
      </g>
     </g>
     <g id="text_11">
      <!-- 0 -->
      <g transform="translate(15.579688 148.519147) scale(0.1 -0.1)">
       <use xlink:href="#DejaVuSans-30"/>
      </g>
     </g>
    </g>
    <g id="ytick_4">
     <g id="line2d_12">
      <g>
       <use xlink:href="#mde9cee9a06" x="28.942188" y="105.136008" style="stroke: #000000; stroke-width: 0.8"/>
      </g>
     </g>
     <g id="text_12">
      <!-- 2 -->
      <g transform="translate(15.579688 108.935227) scale(0.1 -0.1)">
       <use xlink:href="#DejaVuSans-32"/>
      </g>
     </g>
    </g>
    <g id="ytick_5">
     <g id="line2d_13">
      <g>
       <use xlink:href="#mde9cee9a06" x="28.942188" y="65.552088" style="stroke: #000000; stroke-width: 0.8"/>
      </g>
     </g>
     <g id="text_13">
      <!-- 4 -->
      <g transform="translate(15.579688 69.351307) scale(0.1 -0.1)">
       <use xlink:href="#DejaVuSans-34"/>
      </g>
     </g>
    </g>
   </g>
   <g id="line2d_14">
    <path d="M 29.165388 144.719929 
L 29.611788 144.583152 
L 30.281388 144.097135 
L 31.174188 143.059005 
L 32.290188 141.33903 
L 33.852587 138.465286 
L 36.530988 132.960265 
L 51.038988 102.39791 
L 55.726188 93.270171 
L 59.966988 85.497253 
L 63.761387 78.993246 
L 67.332588 73.304562 
L 70.680588 68.385652 
L 73.805387 64.181365 
L 76.706987 60.630194 
L 79.608587 57.434177 
L 82.286988 54.810932 
L 84.965387 52.511262 
L 87.420588 50.694573 
L 89.875788 49.162239 
L 92.107788 48.019879 
L 94.339787 47.119218 
L 96.571787 46.462509 
L 98.803787 46.051392 
L 101.035787 45.886894 
L 103.044588 45.950059 
L 105.276588 46.254763 
L 107.508587 46.805577 
L 109.740587 47.601127 
L 111.972588 48.639423 
L 114.204588 49.91787 
L 116.659788 51.597705 
L 119.114987 53.559164 
L 121.570188 55.796315 
L 124.248587 58.543296 
L 126.926987 61.600421 
L 129.828587 65.249506 
L 132.953388 69.554182 
L 136.301387 74.574288 
L 139.872588 80.363033 
L 143.666988 86.963745 
L 147.684588 94.406221 
L 152.148588 103.150566 
L 157.282188 113.714425 
L 163.531788 127.113516 
L 174.022187 150.242728 
L 183.173387 170.215503 
L 188.976587 182.379321 
L 193.886987 192.183316 
L 198.350987 200.601166 
L 202.368587 207.702129 
L 205.939788 213.587803 
L 209.287787 218.706216 
L 212.412588 223.108639 
L 215.537387 227.127115 
L 218.438987 230.497532 
L 221.117388 233.287432 
L 223.795788 235.758585 
L 226.250988 237.736181 
L 228.706187 239.432473 
L 231.161387 240.842333 
L 233.393388 241.871861 
L 235.625387 242.65856 
L 237.857388 243.200463 
L 240.089387 243.496216 
L 242.321388 243.54508 
L 244.553387 243.346933 
L 246.785388 242.902269 
L 249.017387 242.212201 
L 251.249388 241.278453 
L 253.481387 240.103358 
L 255.713388 238.689855 
L 258.168587 236.863874 
L 260.623787 234.759227 
L 263.302188 232.152934 
L 265.980588 229.231976 
L 268.882187 225.724734 
L 271.783788 221.875367 
L 274.908588 217.365961 
L 278.256587 212.140222 
L 281.827787 206.149051 
L 285.622187 199.353809 
L 289.862987 191.294671 
L 294.550187 181.901627 
L 300.130187 170.19431 
L 307.272587 154.654506 
L 325.128587 115.576485 
L 330.708588 104.029334 
L 335.395787 94.813272 
L 339.636588 86.945947 
L 343.430987 80.346388 
L 347.002187 74.558837 
L 350.350187 69.539941 
L 353.474987 65.236467 
L 356.376587 61.588555 
L 359.278187 58.291749 
L 361.956587 55.572244 
L 363.742187 53.936925 
L 363.742187 53.936925 
" clip-path="url(#pd2565efd0e)" style="fill: none; stroke: #1f77b4; stroke-width: 1.5; stroke-linecap: square"/>
   </g>
   <g id="line2d_15">
    <path d="M 29.165388 144.719929 
L 29.388588 144.145621 
L 29.611788 144.123169 
L 30.504588 145.196565 
L 30.950988 144.122307 
L 31.174188 144.169348 
L 31.397388 143.743834 
L 31.620588 143.740748 
L 31.843788 144.496122 
L 32.066988 144.276363 
L 32.290188 145.119233 
L 32.513388 144.824953 
L 32.736588 145.046955 
L 32.959788 144.995119 
L 33.182988 144.783646 
L 33.406188 144.245639 
L 33.629387 144.618084 
L 33.852587 144.141674 
L 34.075788 144.062808 
L 34.298988 144.110776 
L 34.522188 144.317805 
L 34.968588 144.262485 
L 35.638188 144.047262 
L 35.861388 143.621051 
L 36.084588 143.830754 
L 36.307788 143.873687 
L 36.530988 144.162178 
L 36.977388 144.084483 
L 37.200588 144.28538 
L 37.423788 144.172644 
L 37.870188 143.443737 
L 38.093388 143.719452 
L 38.316588 143.595485 
L 38.762988 142.974742 
L 38.986187 143.230719 
L 39.209388 144.124415 
L 39.432588 143.943913 
L 39.655788 144.17855 
L 39.878988 144.222506 
L 40.548588 142.760256 
L 40.771788 142.927967 
L 40.994988 143.365462 
L 41.218187 142.79005 
L 41.441388 142.663814 
L 41.664588 142.986301 
L 41.887788 143.07437 
L 42.110988 142.743611 
L 42.334187 143.24906 
L 42.557388 143.210132 
L 42.780588 142.844989 
L 43.003788 142.77081 
L 43.226987 143.057509 
L 43.450187 142.851379 
L 43.896588 142.123361 
L 44.342988 142.428982 
L 44.566188 142.144626 
L 45.012588 142.801441 
L 45.235788 142.53771 
L 45.458988 142.773131 
L 45.682187 142.333303 
L 45.905388 142.595416 
L 46.128588 142.167268 
L 46.351788 142.18164 
L 46.574988 142.403826 
L 46.798187 142.35986 
L 47.021388 141.877205 
L 47.244588 142.091771 
L 47.467788 141.080578 
L 47.690988 141.5998 
L 47.914188 141.469699 
L 48.137388 141.196309 
L 48.583787 140.961429 
L 48.806988 140.720072 
L 49.253388 141.274297 
L 49.476588 141.099879 
L 49.699787 141.191124 
L 49.922988 141.548954 
L 50.369388 141.4098 
L 50.815787 140.727 
L 51.038988 141.041929 
L 51.262188 140.724457 
L 51.485388 140.745946 
L 51.708588 141.641769 
L 51.931787 141.226023 
L 52.154988 140.27434 
L 52.824587 139.668037 
L 53.270988 140.574179 
L 53.494188 139.906999 
L 53.717388 140.017257 
L 53.940588 140.003098 
L 54.163787 139.632119 
L 54.386988 138.866491 
L 54.610188 139.579508 
L 54.833388 139.645282 
L 55.056588 139.322769 
L 55.279788 139.721166 
L 55.949388 138.926623 
L 56.172588 139.150121 
L 56.395787 139.057632 
L 56.618988 138.529957 
L 56.842188 138.629709 
L 57.065387 137.927718 
L 57.288588 138.282637 
L 57.511787 138.349201 
L 57.958188 139.056861 
L 58.404588 138.467724 
L 58.627788 137.980978 
L 58.850988 137.903118 
L 59.297387 138.165371 
L 59.520588 137.84477 
L 59.966988 137.761741 
L 60.190188 137.423003 
L 60.636588 137.742874 
L 60.859788 137.595411 
L 61.306188 137.907111 
L 61.752587 136.953292 
L 62.198988 136.724955 
L 62.645387 136.808755 
L 62.868587 136.730249 
L 63.091788 136.783711 
L 63.314988 136.674114 
L 63.538187 136.413089 
L 63.984588 136.896665 
L 64.877387 135.277834 
L 65.100588 134.797244 
L 65.323788 135.095811 
L 65.770188 135.218123 
L 65.993388 136.01673 
L 66.216588 135.970342 
L 66.662988 134.284533 
L 66.886188 134.798609 
L 67.109387 134.786056 
L 67.555788 135.290089 
L 67.778987 135.199428 
L 68.002188 134.931681 
L 68.225387 134.104932 
L 68.671787 134.666338 
L 68.894987 134.953738 
L 69.118188 134.835999 
L 69.341387 134.539376 
L 69.564588 134.556481 
L 69.787788 133.734937 
L 70.010987 133.841364 
L 70.234187 133.391962 
L 70.680588 134.465774 
L 71.350188 133.248959 
L 71.573387 133.290323 
L 71.796588 133.048481 
L 72.019788 133.271309 
L 72.689388 132.44578 
L 72.912588 132.683051 
L 73.135787 132.314573 
L 73.582188 133.153151 
L 73.805387 132.114543 
L 74.028588 131.932053 
L 74.251788 131.946734 
L 74.474987 132.361467 
L 74.698188 131.865492 
L 75.367788 132.17651 
L 75.590987 131.490823 
L 75.814188 131.799044 
L 76.483788 130.335382 
L 76.706987 130.805576 
L 76.930188 130.791342 
L 77.153388 131.603656 
L 77.376587 131.463246 
L 77.599787 130.666893 
L 77.822988 130.52605 
L 78.269387 129.708173 
L 78.492587 130.489033 
L 78.715788 130.398415 
L 78.938987 130.504453 
L 79.385388 129.35667 
L 79.831788 130.503154 
L 80.054988 130.639184 
L 80.278188 130.022669 
L 80.724588 128.506075 
L 80.947788 128.502651 
L 81.170987 129.142448 
L 81.394188 129.342934 
L 81.617388 129.905875 
L 81.840587 129.34332 
L 82.063788 128.006122 
L 82.286988 128.545995 
L 82.510188 128.532226 
L 82.733387 128.06941 
L 82.956587 128.350168 
L 83.179788 128.23871 
L 83.402987 127.795319 
L 83.626188 128.198672 
L 83.849388 128.247499 
L 84.072587 128.054952 
L 84.295788 128.087364 
L 84.518988 127.274889 
L 84.742188 126.996856 
L 85.188587 127.479823 
L 85.634987 127.93234 
L 85.858187 127.573213 
L 86.081388 126.401453 
L 86.304587 125.968918 
L 86.974187 127.171897 
L 87.420588 126.294546 
L 87.643788 126.199101 
L 87.866987 126.253077 
L 88.090188 125.793047 
L 88.759788 125.88828 
L 88.982988 126.10206 
L 89.206187 125.952155 
L 89.652588 125.150933 
L 89.875788 125.020301 
L 90.098988 125.962425 
L 90.322188 125.464784 
L 90.545388 125.242982 
L 90.768587 124.832582 
L 90.991788 123.800672 
L 91.438187 125.508058 
L 91.661388 124.827472 
L 91.884588 124.590294 
L 92.107788 123.798261 
L 92.777388 125.0442 
L 93.000588 124.140986 
L 93.223788 123.907395 
L 93.446987 123.483813 
L 93.893387 124.821692 
L 94.116587 123.949618 
L 94.339787 123.969839 
L 94.786187 123.468481 
L 95.009388 124.03104 
L 95.232587 123.578877 
L 95.455787 123.601198 
L 95.902187 123.921832 
L 96.125388 123.282928 
L 96.348587 123.431887 
L 96.571787 123.097144 
L 96.794987 123.332364 
L 97.018187 123.380991 
L 97.687787 122.664564 
L 98.134187 123.651003 
L 98.803787 122.46827 
L 99.026988 122.458042 
L 99.250187 122.700089 
L 99.473388 122.472784 
L 99.696588 123.279111 
L 99.919787 122.727314 
L 100.142988 122.485125 
L 100.366187 122.542648 
L 100.589388 122.179654 
L 100.812588 122.473855 
L 101.035787 122.1605 
L 101.258988 123.025383 
L 101.482187 122.776368 
L 101.928588 121.679661 
L 102.374988 122.23252 
L 102.598188 121.589704 
L 102.821388 122.242408 
L 103.044588 121.954537 
L 103.267787 122.250362 
L 103.714188 121.485386 
L 104.160588 122.022678 
L 104.383788 122.190634 
L 104.830188 121.417266 
L 105.053387 121.23726 
L 105.276588 122.010622 
L 105.499788 122.35579 
L 105.946188 121.25141 
L 106.169387 121.092651 
L 106.615788 122.087783 
L 107.062188 120.863099 
L 107.508587 122.217751 
L 107.954988 121.136151 
L 108.178187 120.549857 
L 108.847787 121.746551 
L 109.070988 121.465032 
L 109.294187 120.536954 
L 109.517387 121.013946 
L 109.740587 120.983871 
L 110.186988 121.355264 
L 110.410187 120.476718 
L 110.633387 121.273216 
L 110.856588 121.330853 
L 111.079787 121.226409 
L 111.302988 120.457705 
L 111.526187 120.167915 
L 111.972588 121.335387 
L 112.195787 120.637482 
L 112.418988 121.143883 
L 112.642187 120.825611 
L 112.865387 120.989887 
L 113.088588 120.371691 
L 113.534987 121.122699 
L 114.204588 119.957568 
L 114.427787 120.548407 
L 114.650987 120.777649 
L 114.874188 121.316922 
L 115.097387 121.120821 
L 115.320588 119.877825 
L 115.543788 120.99198 
L 115.766987 120.689951 
L 116.213387 120.505201 
L 116.436588 119.948205 
L 116.882987 121.503346 
L 117.106188 120.21429 
L 117.329387 119.98269 
L 117.552588 120.072188 
L 117.775788 121.014567 
L 117.998987 120.157391 
L 118.222188 120.642741 
L 118.445388 120.131058 
L 118.668588 121.028379 
L 118.891788 120.373928 
L 119.114987 120.093426 
L 119.338188 120.494362 
L 119.561388 120.076947 
L 120.007788 120.644176 
L 120.230988 120.010045 
L 120.454188 120.672365 
L 121.123788 119.791834 
L 121.346988 119.982339 
L 121.570188 120.620364 
L 121.793388 120.900998 
L 122.016587 119.714304 
L 122.239787 119.755811 
L 122.462987 120.598057 
L 122.909387 120.809455 
L 123.132587 119.981553 
L 123.578987 120.528611 
L 123.802188 120.365035 
L 124.025387 119.731063 
L 124.248587 120.216931 
L 124.471787 120.277604 
L 124.694987 120.072266 
L 124.918188 120.374599 
L 125.141387 119.857167 
L 125.364587 120.287009 
L 125.587787 120.1959 
L 125.810987 120.45465 
L 126.257387 120.056496 
L 126.703788 119.650396 
L 127.150188 120.702332 
L 127.373387 120.801821 
L 127.596587 120.038921 
L 127.819788 119.733816 
L 128.042987 119.807741 
L 128.266188 120.714003 
L 128.712587 119.938398 
L 128.935788 119.833908 
L 129.158987 120.179953 
L 129.605388 120.334212 
L 129.828587 120.226629 
L 130.051787 120.287726 
L 130.274988 119.631535 
L 130.498188 120.253337 
L 130.721387 120.365336 
L 130.944588 120.836707 
L 131.167788 120.017239 
L 131.390987 119.636857 
L 131.614188 119.850944 
L 132.060587 120.683764 
L 132.506988 119.651428 
L 132.730187 119.706682 
L 132.953388 120.264071 
L 133.176587 120.419844 
L 133.399788 120.424954 
L 133.622988 120.228621 
L 133.846187 120.260522 
L 134.069388 120.588471 
L 134.292588 120.307361 
L 134.515787 120.219729 
L 134.738988 120.322389 
L 134.962187 119.938955 
L 135.185387 120.282123 
L 135.408588 120.032464 
L 135.631788 120.754933 
L 135.854987 120.5067 
L 136.078188 119.682377 
L 136.301387 120.119706 
L 136.524587 120.235069 
L 136.747787 120.861722 
L 136.970987 120.129176 
L 137.194187 120.216936 
L 137.417387 119.898584 
L 137.863788 120.202414 
L 138.086987 119.992692 
L 138.310187 120.668487 
L 138.533388 120.277084 
L 138.756587 120.292189 
L 138.979787 120.479058 
L 139.202988 120.309296 
L 139.426187 120.519198 
L 139.649387 120.103211 
L 139.872588 120.41841 
L 140.095788 119.812592 
L 140.318987 120.334673 
L 140.542188 120.526084 
L 140.765388 120.091986 
L 140.988587 120.610849 
L 141.211788 120.223133 
L 141.434987 120.702433 
L 141.658187 119.78738 
L 141.881388 120.797846 
L 142.104587 120.047463 
L 142.327787 120.866696 
L 142.550988 120.422503 
L 142.774187 120.433907 
L 142.997388 120.803865 
L 143.220587 120.342305 
L 143.443787 120.721385 
L 143.666988 119.925391 
L 144.113387 120.941184 
L 144.559787 120.248326 
L 144.782987 120.660059 
L 145.229388 120.437129 
L 145.452587 120.498694 
L 145.675788 120.706499 
L 146.345388 120.452819 
L 146.568588 120.322189 
L 146.791787 121.14664 
L 147.014988 121.286024 
L 147.461388 120.041294 
L 147.684588 120.206202 
L 147.907787 121.528007 
L 148.130988 121.391255 
L 148.577387 120.098581 
L 148.800588 120.176582 
L 149.023787 120.930263 
L 149.246987 121.23944 
L 149.470188 121.170712 
L 149.693388 120.337663 
L 149.916587 121.31842 
L 150.139788 120.791222 
L 150.362988 120.597705 
L 150.586187 120.85416 
L 150.809388 120.186132 
L 151.032588 120.967935 
L 151.255787 121.28057 
L 151.478988 121.216071 
L 151.702188 120.694805 
L 151.925387 120.577637 
L 152.148588 121.195228 
L 152.371788 120.786357 
L 152.594988 121.3582 
L 152.818188 121.015216 
L 153.041388 121.135803 
L 153.264588 121.535696 
L 153.710987 120.835821 
L 153.934188 120.631193 
L 154.157388 121.331525 
L 154.380587 121.134355 
L 154.603788 121.426544 
L 154.826988 121.190357 
L 155.273388 121.322155 
L 155.496588 120.718424 
L 155.719787 121.374738 
L 155.942988 121.625726 
L 156.389387 121.135354 
L 156.835788 121.312721 
L 157.058988 121.652293 
L 157.282188 120.995605 
L 157.505387 121.303205 
L 157.728588 121.891545 
L 157.951787 121.487604 
L 158.174987 121.885461 
L 158.398188 120.984299 
L 158.844587 121.723968 
L 159.067788 121.80628 
L 159.290987 121.269482 
L 159.514187 121.16239 
L 159.737388 121.785157 
L 159.960587 120.985393 
L 160.183787 122.070357 
L 160.630187 121.790528 
L 160.853387 121.762263 
L 161.076588 121.260347 
L 161.299787 122.065689 
L 161.522987 122.165549 
L 161.746187 121.585829 
L 161.969387 121.873542 
L 162.192588 121.623608 
L 162.415787 121.783708 
L 162.638987 122.184057 
L 162.862188 122.143857 
L 163.308587 121.925055 
L 163.531788 122.148131 
L 163.754987 122.591859 
L 163.978187 121.692761 
L 164.201388 122.101917 
L 164.424587 121.359392 
L 164.870988 122.900399 
L 165.317387 121.839881 
L 165.540588 121.489572 
L 165.763787 121.911162 
L 165.986987 123.032774 
L 166.210188 122.342419 
L 166.433387 122.568168 
L 166.656588 121.879953 
L 167.102987 122.854987 
L 167.326188 122.277882 
L 167.549388 122.290381 
L 167.772587 122.012434 
L 168.218987 122.961478 
L 168.665388 122.261308 
L 168.888587 121.655739 
L 169.111787 122.611889 
L 169.334988 122.864214 
L 169.558187 122.734688 
L 169.781387 122.760398 
L 170.004588 122.495819 
L 170.674188 122.910422 
L 170.897387 122.521353 
L 171.120587 122.479675 
L 171.566987 123.60383 
L 171.790188 123.301742 
L 172.013388 122.395978 
L 172.236587 122.283675 
L 172.459788 122.577266 
L 172.906187 124.141547 
L 173.129388 123.790571 
L 173.352588 122.663245 
L 173.575787 122.554244 
L 174.022187 123.491161 
L 174.691787 123.211627 
L 174.914987 123.401882 
L 175.138188 123.303419 
L 175.361387 122.816317 
L 175.584587 123.712984 
L 175.807788 123.569431 
L 176.030987 123.92227 
L 176.254188 123.653565 
L 176.477388 122.934769 
L 176.700587 123.932721 
L 176.923788 123.456498 
L 177.370187 123.712307 
L 177.593388 123.524178 
L 177.816588 124.196749 
L 178.039787 124.149192 
L 178.262988 123.178416 
L 178.486188 123.685764 
L 178.709387 123.398821 
L 178.932588 124.16843 
L 179.155788 124.421122 
L 179.378987 123.669991 
L 179.602188 124.272941 
L 179.825388 124.372582 
L 180.048587 124.012569 
L 180.271788 123.906928 
L 180.494987 124.156465 
L 180.718187 123.948708 
L 180.941388 124.169369 
L 181.387788 125.208607 
L 181.610988 124.956664 
L 181.834187 124.195916 
L 182.280588 124.10119 
L 182.950188 125.112851 
L 183.173387 124.713226 
L 183.396588 124.756585 
L 183.619788 124.367373 
L 183.842987 124.859676 
L 184.066188 125.026991 
L 184.289388 124.718963 
L 184.512587 124.965018 
L 184.735788 124.451969 
L 184.958988 124.687997 
L 185.182187 125.583333 
L 185.405388 125.460999 
L 185.628588 124.975309 
L 185.851788 125.345545 
L 186.074987 124.695054 
L 186.298187 124.907556 
L 186.521388 125.354358 
L 186.744587 125.307899 
L 186.967787 125.592035 
L 187.190988 125.564083 
L 187.637387 125.061248 
L 187.860588 126.077969 
L 188.083787 125.470873 
L 188.306987 125.644886 
L 188.530188 125.305421 
L 188.753387 125.526873 
L 189.199788 126.44893 
L 189.646187 125.861843 
L 189.869388 126.427464 
L 190.092587 125.486779 
L 190.538987 126.810458 
L 190.762187 126.192486 
L 190.985388 126.497013 
L 191.208587 126.391804 
L 191.431787 126.581317 
L 191.654988 126.45754 
L 191.878187 126.728169 
L 192.324588 126.659162 
L 192.547787 126.804873 
L 192.770987 126.118126 
L 193.217387 127.446974 
L 193.886987 126.884651 
L 194.110187 127.07115 
L 194.333388 127.509496 
L 194.556587 127.172973 
L 195.002988 127.444321 
L 195.449388 128.447917 
L 195.895787 128.283981 
L 196.118988 127.720092 
L 196.565387 127.228209 
L 197.234987 129.568886 
L 197.458188 129.159461 
L 197.681387 127.932103 
L 197.904587 127.347793 
L 198.350987 128.855637 
L 198.574187 129.027589 
L 198.797388 128.795244 
L 199.020587 129.241541 
L 199.243787 128.713012 
L 199.466988 129.292369 
L 199.690187 129.422062 
L 199.913387 130.017005 
L 200.136588 129.017372 
L 200.359787 129.014145 
L 200.806188 129.872075 
L 201.029387 129.83467 
L 201.475788 130.401849 
L 201.698987 129.530245 
L 202.145388 130.55533 
L 202.591788 131.219089 
L 202.814987 130.908688 
L 203.038187 130.274021 
L 203.261388 130.666917 
L 203.484587 130.620677 
L 203.707787 130.313927 
L 203.930988 130.740546 
L 204.154187 131.455198 
L 204.377387 131.014008 
L 204.600588 131.554974 
L 204.823787 131.088727 
L 205.270188 130.963871 
L 206.386188 132.012037 
L 206.609388 131.825006 
L 206.832587 131.153374 
L 207.055788 131.455545 
L 207.502187 132.866297 
L 207.725388 133.550785 
L 207.948588 132.579906 
L 208.171787 132.704768 
L 208.394988 132.578074 
L 208.618187 132.728433 
L 208.841387 132.462148 
L 209.287787 132.937945 
L 209.510987 133.051724 
L 209.734188 133.649832 
L 210.180588 132.960485 
L 210.403788 133.415833 
L 210.626987 133.504194 
L 210.850188 133.401707 
L 211.073388 133.164124 
L 211.296587 133.827378 
L 211.519788 133.329407 
L 211.966187 134.2701 
L 212.189388 134.71233 
L 212.412588 134.587965 
L 212.635787 135.144567 
L 213.082188 134.901607 
L 213.305387 135.137167 
L 213.528588 134.519785 
L 213.751788 134.534745 
L 213.974987 134.661558 
L 214.198188 134.958688 
L 214.421388 134.978838 
L 214.644588 135.244652 
L 214.867787 135.867211 
L 215.090987 135.466379 
L 215.314188 135.810636 
L 215.760587 135.837752 
L 215.983788 135.905873 
L 216.430187 135.08173 
L 216.653388 135.910184 
L 216.876587 136.050974 
L 217.322988 136.712118 
L 217.769387 136.207003 
L 217.992588 136.534919 
L 218.215787 136.255371 
L 218.438987 136.682886 
L 218.885387 137.963171 
L 219.108587 137.79041 
L 219.331787 137.169989 
L 219.778188 137.763793 
L 220.001387 137.824495 
L 220.224587 137.728611 
L 220.447788 137.218176 
L 220.670987 137.127594 
L 220.894187 137.87608 
L 221.117388 137.510443 
L 221.340587 138.368999 
L 221.563787 138.702543 
L 221.786988 138.807262 
L 222.010187 139.12054 
L 222.233387 138.530383 
L 222.456588 138.342839 
L 222.902987 139.07486 
L 223.126188 138.608848 
L 223.572587 139.100348 
L 223.795788 139.260089 
L 224.018987 138.903485 
L 224.242188 139.378808 
L 224.688587 139.445849 
L 224.911788 140.67124 
L 225.358187 140.280112 
L 225.581388 140.64992 
L 225.804587 140.584411 
L 226.027787 140.127035 
L 226.250988 139.959507 
L 226.474187 140.728097 
L 226.920588 141.189981 
L 227.143787 141.522972 
L 227.366987 140.727725 
L 227.590188 140.579266 
L 227.813387 141.026066 
L 228.036587 141.162982 
L 228.259788 141.593884 
L 228.482987 141.477792 
L 228.929388 142.271316 
L 229.152587 142.363205 
L 229.375788 141.952646 
L 229.598988 142.568716 
L 229.822187 142.149325 
L 230.491787 143.39352 
L 230.938188 143.01191 
L 231.607787 143.680472 
L 232.054188 143.458469 
L 232.277387 143.62594 
L 232.500587 142.697823 
L 232.723788 142.797098 
L 232.946987 143.534821 
L 233.170187 143.790931 
L 233.616587 143.43715 
L 233.839787 144.087843 
L 234.062988 144.268259 
L 234.286187 144.108735 
L 234.509388 144.133421 
L 235.625387 145.92638 
L 236.071788 144.946472 
L 236.294987 144.265002 
L 236.518188 144.614174 
L 236.741388 144.557208 
L 237.857388 146.846445 
L 238.303787 146.645075 
L 238.526988 146.995807 
L 238.973388 145.73389 
L 239.419787 146.321236 
L 240.089387 146.971784 
L 240.312588 146.737277 
L 240.982188 147.97106 
L 241.205388 147.452265 
L 241.428587 147.954174 
L 241.651788 147.599455 
L 241.874988 147.911881 
L 242.098187 147.427872 
L 242.321388 147.435058 
L 242.767787 148.024355 
L 242.990988 148.036341 
L 243.214187 148.790346 
L 243.437387 148.732105 
L 243.660587 148.462447 
L 243.883787 149.327154 
L 244.106988 149.125487 
L 244.330187 149.410166 
L 244.553387 149.187456 
L 244.776588 148.783418 
L 244.999787 150.013986 
L 245.669387 149.169508 
L 245.892587 149.346723 
L 246.115788 148.954212 
L 246.338987 149.524777 
L 246.562187 149.568339 
L 246.785388 149.279935 
L 247.678187 150.241419 
L 247.901387 150.207928 
L 248.124587 151.201849 
L 248.570988 150.480538 
L 248.794187 150.412842 
L 249.017387 150.749296 
L 249.240588 151.4691 
L 249.463787 151.422534 
L 249.910188 151.696602 
L 250.802987 150.589227 
L 251.026187 151.544798 
L 251.472587 152.55654 
L 251.695787 153.013403 
L 251.918988 152.318973 
L 252.365387 152.39916 
L 252.588588 152.630831 
L 252.811788 152.16443 
L 253.034987 152.705206 
L 253.258188 152.460111 
L 253.481387 152.562085 
L 253.704588 152.47553 
L 254.150988 153.337573 
L 254.374188 153.12147 
L 254.820587 153.240436 
L 255.043788 153.884238 
L 255.266987 154.12432 
L 255.490188 153.452228 
L 255.713388 153.77355 
L 255.936588 153.743805 
L 256.159787 154.361153 
L 256.382988 154.310765 
L 256.606187 153.777646 
L 256.829387 154.267651 
L 257.052588 153.940107 
L 257.722187 154.152671 
L 257.945387 154.853787 
L 258.168587 155.088744 
L 258.391788 155.015347 
L 258.614987 155.662832 
L 258.838188 155.25802 
L 259.061387 154.321274 
L 259.284587 154.903836 
L 259.730988 154.986155 
L 259.954187 154.470355 
L 260.177388 155.554982 
L 260.400587 156.063683 
L 260.623787 155.748956 
L 260.846987 156.649393 
L 261.293387 155.152551 
L 261.739787 156.266551 
L 261.962987 156.236356 
L 262.409387 156.717246 
L 262.855788 155.930714 
L 263.078987 156.083258 
L 263.525387 156.755141 
L 263.971788 157.01407 
L 264.194988 157.412138 
L 264.418187 156.517585 
L 264.641388 157.053325 
L 265.087787 156.675008 
L 265.310987 157.39474 
L 265.534188 157.695587 
L 265.980588 157.538875 
L 266.426987 156.816918 
L 266.650187 157.317226 
L 266.873387 158.76854 
L 267.096587 158.009261 
L 267.319788 158.048472 
L 267.542987 157.853066 
L 267.766188 157.22015 
L 268.435788 159.19133 
L 268.658988 159.183115 
L 268.882187 158.418113 
L 269.105388 158.274118 
L 269.328587 157.990122 
L 269.551787 158.735438 
L 269.774988 159.063208 
L 270.221387 158.611451 
L 270.444588 158.499254 
L 270.890987 159.364536 
L 271.114187 159.243082 
L 271.337388 159.593761 
L 271.783788 158.763955 
L 272.006987 159.342013 
L 272.230187 159.411487 
L 272.453387 159.868422 
L 272.899788 159.969845 
L 273.122988 159.719784 
L 273.569388 159.664473 
L 273.792587 160.041664 
L 274.015787 160.085947 
L 274.238988 160.471043 
L 274.462188 160.181056 
L 274.685387 160.417707 
L 274.908588 159.756781 
L 275.354987 160.061257 
L 275.578188 159.892126 
L 276.024587 160.853502 
L 276.247788 160.504627 
L 276.470987 160.944737 
L 277.140588 160.301879 
L 277.363788 160.555781 
L 277.586988 160.628287 
L 277.810187 160.929771 
L 278.033388 160.84059 
L 278.256587 161.163238 
L 278.479787 161.020762 
L 278.702988 160.671722 
L 279.149387 161.170019 
L 279.595787 161.368654 
L 279.818987 160.89474 
L 280.042188 161.411838 
L 280.265388 161.327133 
L 280.488587 161.588813 
L 280.711788 162.113374 
L 280.934987 162.142681 
L 281.158187 161.559156 
L 281.381388 161.503033 
L 281.604588 161.106396 
L 281.827787 162.175527 
L 282.274187 162.149468 
L 282.497388 161.973614 
L 282.720587 161.620788 
L 282.943788 162.648278 
L 283.166988 162.305897 
L 283.390188 162.384701 
L 283.613387 162.081587 
L 283.836588 162.357704 
L 284.059787 161.475145 
L 284.282987 162.56499 
L 284.952587 162.956568 
L 285.175788 162.482174 
L 285.622187 162.516458 
L 285.845387 162.307388 
L 286.068587 162.453159 
L 286.291787 162.324723 
L 286.514987 162.737752 
L 286.738187 162.767445 
L 286.961387 163.49144 
L 287.184587 162.805665 
L 287.407787 163.046535 
L 287.630988 162.439927 
L 287.854187 162.738082 
L 288.077387 162.77188 
L 288.300587 163.387399 
L 288.523787 163.657672 
L 288.746987 162.937143 
L 288.970188 162.991634 
L 289.193387 162.763704 
L 289.416587 162.943394 
L 289.639787 163.492879 
L 289.862987 163.478938 
L 290.086187 163.169199 
L 290.309387 163.176376 
L 290.755787 162.790919 
L 291.202187 164.187247 
L 291.871787 162.849755 
L 292.094988 163.287389 
L 292.318187 163.145642 
L 292.541387 163.618043 
L 292.764587 164.352301 
L 293.210987 162.881706 
L 293.434188 163.444319 
L 293.657387 162.998949 
L 293.880587 163.662448 
L 294.103787 163.506438 
L 294.326987 164.291272 
L 294.773388 163.17159 
L 294.996587 163.143829 
L 295.219787 163.909009 
L 295.442987 163.855824 
L 295.666187 163.454939 
L 295.889387 163.76842 
L 296.112587 163.079322 
L 296.335787 163.782217 
L 296.558988 163.829728 
L 296.782187 164.057756 
L 297.005387 164.020963 
L 297.228587 163.311837 
L 297.451787 163.293426 
L 297.674987 163.611773 
L 297.898188 163.47741 
L 298.121387 164.175501 
L 298.790987 162.9789 
L 299.014187 163.541842 
L 299.237388 164.417049 
L 299.460587 164.592226 
L 299.906987 163.033889 
L 300.130187 162.867895 
L 300.576588 164.601413 
L 300.799787 164.63509 
L 301.469387 163.161284 
L 301.692587 163.542455 
L 302.138987 163.492766 
L 302.362188 164.17055 
L 302.585387 163.214468 
L 302.808587 163.520677 
L 303.031787 164.22182 
L 303.254987 164.13385 
L 303.478187 163.156405 
L 303.701388 163.418442 
L 303.924587 163.242623 
L 304.147787 164.271273 
L 304.594187 163.686913 
L 304.817387 163.639031 
L 305.040588 163.38597 
L 305.486987 164.062897 
L 305.710187 164.038504 
L 305.933387 163.624777 
L 306.156588 163.755464 
L 306.602987 163.233562 
L 307.049387 163.701497 
L 307.272587 163.438609 
L 307.495787 164.208631 
L 307.718988 163.745541 
L 307.942187 163.818723 
L 308.165388 163.197578 
L 308.388587 163.56812 
L 308.611787 162.971818 
L 309.281387 163.276148 
L 309.504588 163.519604 
L 309.727787 162.978961 
L 309.950987 163.82916 
L 310.174187 163.602364 
L 310.397387 163.657745 
L 310.620587 163.023084 
L 311.290188 162.776649 
L 311.513387 163.822545 
L 311.736587 163.576842 
L 311.959788 163.684325 
L 312.182988 163.041988 
L 312.629388 163.533027 
L 312.852587 162.972206 
L 313.075787 162.947541 
L 313.298987 162.645922 
L 313.745387 162.728222 
L 313.968588 163.963497 
L 314.191787 162.922748 
L 314.414987 162.922287 
L 314.638187 163.158002 
L 315.084587 162.247463 
L 315.530987 162.787809 
L 315.754187 162.356107 
L 316.200587 162.809154 
L 316.423788 163.327583 
L 316.646987 163.021579 
L 317.093387 162.019839 
L 317.539787 161.965923 
L 317.762988 162.762054 
L 317.986187 162.854718 
L 318.209387 162.460316 
L 318.432587 162.584491 
L 318.655787 162.081584 
L 318.878987 162.160547 
L 319.102187 162.584478 
L 319.325387 162.465847 
L 319.994987 161.095885 
L 320.441387 162.550835 
L 320.664587 162.463841 
L 320.887788 161.950058 
L 321.110987 161.906114 
L 321.334187 161.66274 
L 321.780587 162.212366 
L 322.003787 161.98164 
L 322.450187 160.95713 
L 322.673387 161.450544 
L 322.896587 161.559052 
L 323.119787 162.014815 
L 323.342987 161.929385 
L 323.566188 161.367132 
L 323.789387 160.483654 
L 324.235787 160.950724 
L 324.458987 161.802677 
L 324.682187 161.42622 
L 324.905387 161.275715 
L 325.128587 160.63398 
L 325.351788 160.866771 
L 325.798187 160.479949 
L 326.021387 160.381242 
L 326.244587 160.991658 
L 326.467787 160.823732 
L 326.690988 160.970959 
L 326.914187 160.757392 
L 327.137387 160.256478 
L 327.360587 160.484582 
L 327.583787 159.921223 
L 328.253387 160.67897 
L 328.699787 160.328124 
L 329.146187 159.31926 
L 329.369388 159.61547 
L 329.592587 159.308611 
L 329.815787 159.790259 
L 330.038987 159.797856 
L 330.262187 159.674602 
L 330.708588 158.944522 
L 330.931787 158.859771 
L 331.378187 159.564001 
L 331.601387 159.55946 
L 332.494188 158.598935 
L 332.717387 158.551408 
L 332.940587 159.532138 
L 333.163787 159.026348 
L 333.386987 158.870379 
L 333.610187 159.355974 
L 333.833388 158.489025 
L 334.056587 158.212794 
L 334.502987 159.10142 
L 334.949388 158.38283 
L 335.172588 158.249006 
L 335.395787 157.94985 
L 335.842187 157.850465 
L 336.734987 157.365246 
L 336.958188 157.895652 
L 337.181387 157.121824 
L 337.404587 157.170304 
L 337.627787 156.968518 
L 337.850987 157.184919 
L 338.074187 157.045045 
L 338.297388 157.302357 
L 338.520587 157.211894 
L 338.743787 156.995655 
L 338.966987 156.341137 
L 339.190187 156.532631 
L 339.413387 156.133139 
L 339.636588 156.277747 
L 339.859787 156.602362 
L 340.082988 156.523738 
L 340.306187 156.725973 
L 340.529387 156.258603 
L 340.752588 156.055004 
L 340.975788 156.110988 
L 341.198987 156.042099 
L 341.422188 156.643941 
L 341.868587 156.189293 
L 342.091787 155.288487 
L 342.314988 155.772285 
L 342.538187 155.349171 
L 342.761388 155.777 
L 343.207787 155.627277 
L 343.654187 155.117459 
L 343.877387 154.559763 
L 344.100587 155.010685 
L 344.323787 154.630022 
L 344.546987 154.876465 
L 344.770187 154.854456 
L 345.662987 154.152266 
L 345.886187 154.406322 
L 346.109387 153.996776 
L 346.332587 153.914803 
L 346.555788 153.642338 
L 346.778987 154.357851 
L 347.002187 154.17579 
L 347.448587 154.020869 
L 348.118187 152.617818 
L 348.564587 153.140418 
L 348.787787 153.025738 
L 349.010987 153.154706 
L 349.234187 152.558939 
L 349.457387 152.280656 
L 349.680588 152.33551 
L 349.903787 152.201488 
L 350.126987 153.006404 
L 350.350187 152.823322 
L 350.573387 152.847074 
L 350.796587 152.326427 
L 351.242987 152.243994 
L 351.466187 151.722449 
L 351.689387 151.520092 
L 351.912587 151.813807 
L 352.135787 151.497332 
L 352.358988 151.611796 
L 353.028587 151.19088 
L 353.251787 151.426662 
L 353.474987 150.664032 
L 353.698187 150.758066 
L 353.921387 151.254008 
L 354.144588 151.070244 
L 354.367787 150.635496 
L 354.814187 151.244053 
L 355.037387 151.052131 
L 355.260587 150.436535 
L 355.483788 150.639528 
L 355.706987 150.417201 
L 355.930187 149.750935 
L 356.153387 149.499837 
L 356.376587 148.826641 
L 356.822988 149.694914 
L 357.046187 149.260041 
L 357.492587 149.439647 
L 357.715787 149.270718 
L 357.938987 148.800169 
L 358.162188 148.783014 
L 358.385387 149.435956 
L 358.608587 149.344221 
L 358.831787 149.643828 
L 359.054987 148.69156 
L 359.278187 149.290398 
L 359.501388 148.747621 
L 359.724587 147.785659 
L 360.170987 147.184027 
L 360.394187 146.951058 
L 361.063787 147.775826 
L 361.286988 148.936987 
L 361.510187 149.063396 
L 362.402987 146.488469 
L 362.626188 146.030867 
L 362.849387 146.634663 
L 363.072587 146.572327 
L 363.295787 147.542813 
L 363.518987 147.37979 
L 363.742187 147.055814 
L 363.742187 147.055814 
" clip-path="url(#pd2565efd0e)" style="fill: none; stroke: #ff7f0e; stroke-width: 1.5; stroke-linecap: square"/>
   </g>
   <g id="patch_3">
    <path d="M 28.942188 253.44 
L 28.942188 36 
" style="fill: none; stroke: #000000; stroke-width: 0.8; stroke-linejoin: miter; stroke-linecap: square"/>
   </g>
   <g id="patch_4">
    <path d="M 363.742188 253.44 
L 363.742188 36 
" style="fill: none; stroke: #000000; stroke-width: 0.8; stroke-linejoin: miter; stroke-linecap: square"/>
   </g>
   <g id="patch_5">
    <path d="M 28.942188 253.44 
L 363.742187 253.44 
" style="fill: none; stroke: #000000; stroke-width: 0.8; stroke-linejoin: miter; stroke-linecap: square"/>
   </g>
   <g id="patch_6">
    <path d="M 28.942188 36 
L 363.742187 36 
" style="fill: none; stroke: #000000; stroke-width: 0.8; stroke-linejoin: miter; stroke-linecap: square"/>
   </g>
   <g id="legend_1">
    <g id="patch_7">
     <path d="M 35.942188 248.44 
L 105.442188 248.44 
Q 107.442188 248.44 107.442188 246.44 
L 107.442188 205.161875 
Q 107.442188 203.161875 105.442188 203.161875 
L 35.942188 203.161875 
Q 33.942188 203.161875 33.942188 205.161875 
L 33.942188 246.44 
Q 33.942188 248.44 35.942188 248.44 
z
" style="fill: #ffffff; opacity: 0.8; stroke: #cccccc; stroke-linejoin: miter"/>
    </g>
    <g id="line2d_16">
     <path d="M 37.942188 211.260312 
L 47.942188 211.260312 
L 57.942188 211.260312 
" style="fill: none; stroke: #1f77b4; stroke-width: 1.5; stroke-linecap: square"/>
    </g>
    <g id="text_14">
     <!-- $x(t)$ -->
     <g transform="translate(65.942188 214.760312) scale(0.1 -0.1)">
      <defs>
       <path id="DejaVuSans-Oblique-78" d="M 3841 3500 
L 2234 1784 
L 3219 0 
L 2559 0 
L 1819 1388 
L 531 0 
L -166 0 
L 1556 1844 
L 641 3500 
L 1300 3500 
L 1972 2234 
L 3144 3500 
L 3841 3500 
z
" transform="scale(0.015625)"/>
       <path id="DejaVuSans-28" d="M 1984 4856 
Q 1566 4138 1362 3434 
Q 1159 2731 1159 2009 
Q 1159 1288 1364 580 
Q 1569 -128 1984 -844 
L 1484 -844 
Q 1016 -109 783 600 
Q 550 1309 550 2009 
Q 550 2706 781 3412 
Q 1013 4119 1484 4856 
L 1984 4856 
z
" transform="scale(0.015625)"/>
       <path id="DejaVuSans-Oblique-74" d="M 2706 3500 
L 2619 3053 
L 1472 3053 
L 1100 1153 
Q 1081 1047 1072 975 
Q 1063 903 1063 863 
Q 1063 663 1183 572 
Q 1303 481 1569 481 
L 2150 481 
L 2053 0 
L 1503 0 
Q 991 0 739 200 
Q 488 400 488 806 
Q 488 878 497 964 
Q 506 1050 525 1153 
L 897 3053 
L 409 3053 
L 500 3500 
L 978 3500 
L 1172 4494 
L 1747 4494 
L 1556 3500 
L 2706 3500 
z
" transform="scale(0.015625)"/>
       <path id="DejaVuSans-29" d="M 513 4856 
L 1013 4856 
Q 1481 4119 1714 3412 
Q 1947 2706 1947 2009 
Q 1947 1309 1714 600 
Q 1481 -109 1013 -844 
L 513 -844 
Q 928 -128 1133 580 
Q 1338 1288 1338 2009 
Q 1338 2731 1133 3434 
Q 928 4138 513 4856 
z
" transform="scale(0.015625)"/>
      </defs>
      <use xlink:href="#DejaVuSans-Oblique-78" transform="translate(0 0.125)"/>
      <use xlink:href="#DejaVuSans-28" transform="translate(59.179688 0.125)"/>
      <use xlink:href="#DejaVuSans-Oblique-74" transform="translate(98.193359 0.125)"/>
      <use xlink:href="#DejaVuSans-29" transform="translate(137.402344 0.125)"/>
     </g>
    </g>
    <g id="line2d_17">
     <path d="M 37.942188 235.64 
L 47.942188 235.64 
L 57.942188 235.64 
" style="fill: none; stroke: #ff7f0e; stroke-width: 1.5; stroke-linecap: square"/>
    </g>
    <g id="text_15">
     <!-- $\hat{\int_{0}^{1.5}{x(t)}}$ -->
     <g transform="translate(65.942188 239.14) scale(0.1 -0.1)">
      <defs>
       <path id="DejaVuSans-302" d="M -1831 5119 
L -1369 5119 
L -603 3944 
L -1038 3944 
L -1600 4709 
L -2163 3944 
L -2597 3944 
L -1831 5119 
z
M -1600 3584 
L -1600 3584 
z
" transform="scale(0.015625)"/>
       <path id="DejaVuSansDisplay-222b" d="M 2134 5525 
Q 2172 6263 2528 6556 
Q 2884 6850 3218 6850 
Q 3553 6850 3833 6575 
Q 4113 6300 4200 5678 
L 3544 5613 
Q 3469 6188 3219 6188 
Q 2906 6188 2869 5413 
L 2581 -597 
Q 2547 -1334 2187 -1628 
Q 1828 -1922 1497 -1922 
Q 1163 -1922 883 -1647 
Q 603 -1372 516 -750 
L 1172 -684 
Q 1247 -1259 1497 -1259 
Q 1809 -1259 1847 -488 
L 2134 5525 
z
" transform="scale(0.015625)"/>
       <path id="DejaVuSans-35" d="M 691 4666 
L 3169 4666 
L 3169 4134 
L 1269 4134 
L 1269 2991 
Q 1406 3038 1543 3061 
Q 1681 3084 1819 3084 
Q 2600 3084 3056 2656 
Q 3513 2228 3513 1497 
Q 3513 744 3044 326 
Q 2575 -91 1722 -91 
Q 1428 -91 1123 -41 
Q 819 9 494 109 
L 494 744 
Q 775 591 1075 516 
Q 1375 441 1709 441 
Q 2250 441 2565 725 
Q 2881 1009 2881 1497 
Q 2881 1984 2565 2268 
Q 2250 2553 1709 2553 
Q 1456 2553 1204 2497 
Q 953 2441 691 2322 
L 691 4666 
z
" transform="scale(0.015625)"/>
      </defs>
      <use xlink:href="#DejaVuSans-302" transform="translate(259.198975 93.015625)"/>
      <use xlink:href="#DejaVuSansDisplay-222b" transform="translate(0 0.325)"/>
      <use xlink:href="#DejaVuSans-31" transform="translate(86.744141 85.48125) scale(0.7)"/>
      <use xlink:href="#DejaVuSans-2e" transform="translate(131.280273 85.48125) scale(0.7)"/>
      <use xlink:href="#DejaVuSans-35" transform="translate(153.53125 85.48125) scale(0.7)"/>
      <use xlink:href="#DejaVuSans-30" transform="translate(71.759766 -51.58125) scale(0.7)"/>
      <use xlink:href="#DejaVuSans-Oblique-78" transform="translate(198.067383 0.325)"/>
      <use xlink:href="#DejaVuSans-28" transform="translate(257.24707 0.325)"/>
      <use xlink:href="#DejaVuSans-Oblique-74" transform="translate(296.260742 0.325)"/>
      <use xlink:href="#DejaVuSans-29" transform="translate(335.469727 0.325)"/>
     </g>
    </g>
   </g>
  </g>
  <g id="text_16">
   <!-- Neural Integrator for a sinusoidal Input -->
   <g transform="translate(74.078125 16.318125) scale(0.12 -0.12)">
    <defs>
     <path id="DejaVuSans-4e" d="M 628 4666 
L 1478 4666 
L 3547 763 
L 3547 4666 
L 4159 4666 
L 4159 0 
L 3309 0 
L 1241 3903 
L 1241 0 
L 628 0 
L 628 4666 
z
" transform="scale(0.015625)"/>
     <path id="DejaVuSans-65" d="M 3597 1894 
L 3597 1613 
L 953 1613 
Q 991 1019 1311 708 
Q 1631 397 2203 397 
Q 2534 397 2845 478 
Q 3156 559 3463 722 
L 3463 178 
Q 3153 47 2828 -22 
Q 2503 -91 2169 -91 
Q 1331 -91 842 396 
Q 353 884 353 1716 
Q 353 2575 817 3079 
Q 1281 3584 2069 3584 
Q 2775 3584 3186 3129 
Q 3597 2675 3597 1894 
z
M 3022 2063 
Q 3016 2534 2758 2815 
Q 2500 3097 2075 3097 
Q 1594 3097 1305 2825 
Q 1016 2553 972 2059 
L 3022 2063 
z
" transform="scale(0.015625)"/>
     <path id="DejaVuSans-75" d="M 544 1381 
L 544 3500 
L 1119 3500 
L 1119 1403 
Q 1119 906 1312 657 
Q 1506 409 1894 409 
Q 2359 409 2629 706 
Q 2900 1003 2900 1516 
L 2900 3500 
L 3475 3500 
L 3475 0 
L 2900 0 
L 2900 538 
Q 2691 219 2414 64 
Q 2138 -91 1772 -91 
Q 1169 -91 856 284 
Q 544 659 544 1381 
z
M 1991 3584 
L 1991 3584 
z
" transform="scale(0.015625)"/>
     <path id="DejaVuSans-72" d="M 2631 2963 
Q 2534 3019 2420 3045 
Q 2306 3072 2169 3072 
Q 1681 3072 1420 2755 
Q 1159 2438 1159 1844 
L 1159 0 
L 581 0 
L 581 3500 
L 1159 3500 
L 1159 2956 
Q 1341 3275 1631 3429 
Q 1922 3584 2338 3584 
Q 2397 3584 2469 3576 
Q 2541 3569 2628 3553 
L 2631 2963 
z
" transform="scale(0.015625)"/>
     <path id="DejaVuSans-61" d="M 2194 1759 
Q 1497 1759 1228 1600 
Q 959 1441 959 1056 
Q 959 750 1161 570 
Q 1363 391 1709 391 
Q 2188 391 2477 730 
Q 2766 1069 2766 1631 
L 2766 1759 
L 2194 1759 
z
M 3341 1997 
L 3341 0 
L 2766 0 
L 2766 531 
Q 2569 213 2275 61 
Q 1981 -91 1556 -91 
Q 1019 -91 701 211 
Q 384 513 384 1019 
Q 384 1609 779 1909 
Q 1175 2209 1959 2209 
L 2766 2209 
L 2766 2266 
Q 2766 2663 2505 2880 
Q 2244 3097 1772 3097 
Q 1472 3097 1187 3025 
Q 903 2953 641 2809 
L 641 3341 
Q 956 3463 1253 3523 
Q 1550 3584 1831 3584 
Q 2591 3584 2966 3190 
Q 3341 2797 3341 1997 
z
" transform="scale(0.015625)"/>
     <path id="DejaVuSans-6c" d="M 603 4863 
L 1178 4863 
L 1178 0 
L 603 0 
L 603 4863 
z
" transform="scale(0.015625)"/>
     <path id="DejaVuSans-20" transform="scale(0.015625)"/>
     <path id="DejaVuSans-49" d="M 628 4666 
L 1259 4666 
L 1259 0 
L 628 0 
L 628 4666 
z
" transform="scale(0.015625)"/>
     <path id="DejaVuSans-6e" d="M 3513 2113 
L 3513 0 
L 2938 0 
L 2938 2094 
Q 2938 2591 2744 2837 
Q 2550 3084 2163 3084 
Q 1697 3084 1428 2787 
Q 1159 2491 1159 1978 
L 1159 0 
L 581 0 
L 581 3500 
L 1159 3500 
L 1159 2956 
Q 1366 3272 1645 3428 
Q 1925 3584 2291 3584 
Q 2894 3584 3203 3211 
Q 3513 2838 3513 2113 
z
" transform="scale(0.015625)"/>
     <path id="DejaVuSans-74" d="M 1172 4494 
L 1172 3500 
L 2356 3500 
L 2356 3053 
L 1172 3053 
L 1172 1153 
Q 1172 725 1289 603 
Q 1406 481 1766 481 
L 2356 481 
L 2356 0 
L 1766 0 
Q 1100 0 847 248 
Q 594 497 594 1153 
L 594 3053 
L 172 3053 
L 172 3500 
L 594 3500 
L 594 4494 
L 1172 4494 
z
" transform="scale(0.015625)"/>
     <path id="DejaVuSans-67" d="M 2906 1791 
Q 2906 2416 2648 2759 
Q 2391 3103 1925 3103 
Q 1463 3103 1205 2759 
Q 947 2416 947 1791 
Q 947 1169 1205 825 
Q 1463 481 1925 481 
Q 2391 481 2648 825 
Q 2906 1169 2906 1791 
z
M 3481 434 
Q 3481 -459 3084 -895 
Q 2688 -1331 1869 -1331 
Q 1566 -1331 1297 -1286 
Q 1028 -1241 775 -1147 
L 775 -588 
Q 1028 -725 1275 -790 
Q 1522 -856 1778 -856 
Q 2344 -856 2625 -561 
Q 2906 -266 2906 331 
L 2906 616 
Q 2728 306 2450 153 
Q 2172 0 1784 0 
Q 1141 0 747 490 
Q 353 981 353 1791 
Q 353 2603 747 3093 
Q 1141 3584 1784 3584 
Q 2172 3584 2450 3431 
Q 2728 3278 2906 2969 
L 2906 3500 
L 3481 3500 
L 3481 434 
z
" transform="scale(0.015625)"/>
     <path id="DejaVuSans-6f" d="M 1959 3097 
Q 1497 3097 1228 2736 
Q 959 2375 959 1747 
Q 959 1119 1226 758 
Q 1494 397 1959 397 
Q 2419 397 2687 759 
Q 2956 1122 2956 1747 
Q 2956 2369 2687 2733 
Q 2419 3097 1959 3097 
z
M 1959 3584 
Q 2709 3584 3137 3096 
Q 3566 2609 3566 1747 
Q 3566 888 3137 398 
Q 2709 -91 1959 -91 
Q 1206 -91 779 398 
Q 353 888 353 1747 
Q 353 2609 779 3096 
Q 1206 3584 1959 3584 
z
" transform="scale(0.015625)"/>
     <path id="DejaVuSans-66" d="M 2375 4863 
L 2375 4384 
L 1825 4384 
Q 1516 4384 1395 4259 
Q 1275 4134 1275 3809 
L 1275 3500 
L 2222 3500 
L 2222 3053 
L 1275 3053 
L 1275 0 
L 697 0 
L 697 3053 
L 147 3053 
L 147 3500 
L 697 3500 
L 697 3744 
Q 697 4328 969 4595 
Q 1241 4863 1831 4863 
L 2375 4863 
z
" transform="scale(0.015625)"/>
     <path id="DejaVuSans-73" d="M 2834 3397 
L 2834 2853 
Q 2591 2978 2328 3040 
Q 2066 3103 1784 3103 
Q 1356 3103 1142 2972 
Q 928 2841 928 2578 
Q 928 2378 1081 2264 
Q 1234 2150 1697 2047 
L 1894 2003 
Q 2506 1872 2764 1633 
Q 3022 1394 3022 966 
Q 3022 478 2636 193 
Q 2250 -91 1575 -91 
Q 1294 -91 989 -36 
Q 684 19 347 128 
L 347 722 
Q 666 556 975 473 
Q 1284 391 1588 391 
Q 1994 391 2212 530 
Q 2431 669 2431 922 
Q 2431 1156 2273 1281 
Q 2116 1406 1581 1522 
L 1381 1569 
Q 847 1681 609 1914 
Q 372 2147 372 2553 
Q 372 3047 722 3315 
Q 1072 3584 1716 3584 
Q 2034 3584 2315 3537 
Q 2597 3491 2834 3397 
z
" transform="scale(0.015625)"/>
     <path id="DejaVuSans-69" d="M 603 3500 
L 1178 3500 
L 1178 0 
L 603 0 
L 603 3500 
z
M 603 4863 
L 1178 4863 
L 1178 4134 
L 603 4134 
L 603 4863 
z
" transform="scale(0.015625)"/>
     <path id="DejaVuSans-64" d="M 2906 2969 
L 2906 4863 
L 3481 4863 
L 3481 0 
L 2906 0 
L 2906 525 
Q 2725 213 2448 61 
Q 2172 -91 1784 -91 
Q 1150 -91 751 415 
Q 353 922 353 1747 
Q 353 2572 751 3078 
Q 1150 3584 1784 3584 
Q 2172 3584 2448 3432 
Q 2725 3281 2906 2969 
z
M 947 1747 
Q 947 1113 1208 752 
Q 1469 391 1925 391 
Q 2381 391 2643 752 
Q 2906 1113 2906 1747 
Q 2906 2381 2643 2742 
Q 2381 3103 1925 3103 
Q 1469 3103 1208 2742 
Q 947 2381 947 1747 
z
" transform="scale(0.015625)"/>
     <path id="DejaVuSans-70" d="M 1159 525 
L 1159 -1331 
L 581 -1331 
L 581 3500 
L 1159 3500 
L 1159 2969 
Q 1341 3281 1617 3432 
Q 1894 3584 2278 3584 
Q 2916 3584 3314 3078 
Q 3713 2572 3713 1747 
Q 3713 922 3314 415 
Q 2916 -91 2278 -91 
Q 1894 -91 1617 61 
Q 1341 213 1159 525 
z
M 3116 1747 
Q 3116 2381 2855 2742 
Q 2594 3103 2138 3103 
Q 1681 3103 1420 2742 
Q 1159 2381 1159 1747 
Q 1159 1113 1420 752 
Q 1681 391 2138 391 
Q 2594 391 2855 752 
Q 3116 1113 3116 1747 
z
" transform="scale(0.015625)"/>
    </defs>
    <use xlink:href="#DejaVuSans-4e"/>
    <use xlink:href="#DejaVuSans-65" x="74.804688"/>
    <use xlink:href="#DejaVuSans-75" x="136.328125"/>
    <use xlink:href="#DejaVuSans-72" x="199.707031"/>
    <use xlink:href="#DejaVuSans-61" x="240.820312"/>
    <use xlink:href="#DejaVuSans-6c" x="302.099609"/>
    <use xlink:href="#DejaVuSans-20" x="329.882812"/>
    <use xlink:href="#DejaVuSans-49" x="361.669922"/>
    <use xlink:href="#DejaVuSans-6e" x="391.162109"/>
    <use xlink:href="#DejaVuSans-74" x="454.541016"/>
    <use xlink:href="#DejaVuSans-65" x="493.75"/>
    <use xlink:href="#DejaVuSans-67" x="555.273438"/>
    <use xlink:href="#DejaVuSans-72" x="618.75"/>
    <use xlink:href="#DejaVuSans-61" x="659.863281"/>
    <use xlink:href="#DejaVuSans-74" x="721.142578"/>
    <use xlink:href="#DejaVuSans-6f" x="760.351562"/>
    <use xlink:href="#DejaVuSans-72" x="821.533203"/>
    <use xlink:href="#DejaVuSans-20" x="862.646484"/>
    <use xlink:href="#DejaVuSans-66" x="894.433594"/>
    <use xlink:href="#DejaVuSans-6f" x="929.638672"/>
    <use xlink:href="#DejaVuSans-72" x="990.820312"/>
    <use xlink:href="#DejaVuSans-20" x="1031.933594"/>
    <use xlink:href="#DejaVuSans-61" x="1063.720703"/>
    <use xlink:href="#DejaVuSans-20" x="1125"/>
    <use xlink:href="#DejaVuSans-73" x="1156.787109"/>
    <use xlink:href="#DejaVuSans-69" x="1208.886719"/>
    <use xlink:href="#DejaVuSans-6e" x="1236.669922"/>
    <use xlink:href="#DejaVuSans-75" x="1300.048828"/>
    <use xlink:href="#DejaVuSans-73" x="1363.427734"/>
    <use xlink:href="#DejaVuSans-6f" x="1415.527344"/>
    <use xlink:href="#DejaVuSans-69" x="1476.708984"/>
    <use xlink:href="#DejaVuSans-64" x="1504.492188"/>
    <use xlink:href="#DejaVuSans-61" x="1567.96875"/>
    <use xlink:href="#DejaVuSans-6c" x="1629.248047"/>
    <use xlink:href="#DejaVuSans-20" x="1657.03125"/>
    <use xlink:href="#DejaVuSans-49" x="1688.818359"/>
    <use xlink:href="#DejaVuSans-6e" x="1718.310547"/>
    <use xlink:href="#DejaVuSans-70" x="1781.689453"/>
    <use xlink:href="#DejaVuSans-75" x="1845.166016"/>
    <use xlink:href="#DejaVuSans-74" x="1908.544922"/>
   </g>
  </g>
 </g>
 <defs>
  <clipPath id="pd2565efd0e">
   <rect x="28.942188" y="36" width="334.8" height="217.44"/>
  </clipPath>
 </defs>
</svg>
