<?xml version="1.0" encoding="utf-8" standalone="no"?>
<!DOCTYPE svg PUBLIC "-//W3C//DTD SVG 1.1//EN"
  "http://www.w3.org/Graphics/SVG/1.1/DTD/svg11.dtd">
<svg xmlns:xlink="http://www.w3.org/1999/xlink" width="386.845313pt" height="277.318125pt" viewBox="0 0 386.845313 277.318125" xmlns="http://www.w3.org/2000/svg" version="1.1">
 <metadata>
  <rdf:RDF xmlns:dc="http://purl.org/dc/elements/1.1/" xmlns:cc="http://creativecommons.org/ns#" xmlns:rdf="http://www.w3.org/1999/02/22-rdf-syntax-ns#">
   <cc:Work>
    <dc:type rdf:resource="http://purl.org/dc/dcmitype/StillImage"/>
    <dc:date>2022-11-11T19:58:34.250661</dc:date>
    <dc:format>image/svg+xml</dc:format>
    <dc:creator>
     <cc:Agent>
      <dc:title>Matplotlib v3.6.0, https://matplotlib.org/</dc:title>
     </cc:Agent>
    </dc:creator>
   </cc:Work>
  </rdf:RDF>
 </metadata>
 <defs>
  <style type="text/css">*{stroke-linejoin: round; stroke-linecap: butt}</style>
 </defs>
 <g id="figure_1">
  <g id="patch_1">
   <path d="M 0 277.318125 
L 386.845313 277.318125 
L 386.845313 0 
L 0 0 
L 0 277.318125 
z
" style="fill: none"/>
  </g>
  <g id="axes_1">
   <g id="patch_2">
    <path d="M 44.845313 253.44 
L 379.645313 253.44 
L 379.645313 36 
L 44.845313 36 
z
" style="fill: #ffffff"/>
   </g>
   <g id="matplotlib.axis_1">
    <g id="xtick_1">
     <g id="line2d_1">
      <defs>
       <path id="mf7af20a00d" d="M 0 0 
L 0 3.5 
" style="stroke: #000000; stroke-width: 0.8"/>
      </defs>
      <g>
       <use xlink:href="#mf7af20a00d" x="59.698727" y="253.44" style="stroke: #000000; stroke-width: 0.8"/>
      </g>
     </g>
     <g id="text_1">
      <!-- −1.00 -->
      <g transform="translate(44.376071 268.038437) scale(0.1 -0.1)">
       <defs>
        <path id="DejaVuSans-2212" d="M 678 2272 
L 4684 2272 
L 4684 1741 
L 678 1741 
L 678 2272 
z
" transform="scale(0.015625)"/>
        <path id="DejaVuSans-31" d="M 794 531 
L 1825 531 
L 1825 4091 
L 703 3866 
L 703 4441 
L 1819 4666 
L 2450 4666 
L 2450 531 
L 3481 531 
L 3481 0 
L 794 0 
L 794 531 
z
" transform="scale(0.015625)"/>
        <path id="DejaVuSans-2e" d="M 684 794 
L 1344 794 
L 1344 0 
L 684 0 
L 684 794 
z
" transform="scale(0.015625)"/>
        <path id="DejaVuSans-30" d="M 2034 4250 
Q 1547 4250 1301 3770 
Q 1056 3291 1056 2328 
Q 1056 1369 1301 889 
Q 1547 409 2034 409 
Q 2525 409 2770 889 
Q 3016 1369 3016 2328 
Q 3016 3291 2770 3770 
Q 2525 4250 2034 4250 
z
M 2034 4750 
Q 2819 4750 3233 4129 
Q 3647 3509 3647 2328 
Q 3647 1150 3233 529 
Q 2819 -91 2034 -91 
Q 1250 -91 836 529 
Q 422 1150 422 2328 
Q 422 3509 836 4129 
Q 1250 4750 2034 4750 
z
" transform="scale(0.015625)"/>
       </defs>
       <use xlink:href="#DejaVuSans-2212"/>
       <use xlink:href="#DejaVuSans-31" x="83.789062"/>
       <use xlink:href="#DejaVuSans-2e" x="147.412109"/>
       <use xlink:href="#DejaVuSans-30" x="179.199219"/>
       <use xlink:href="#DejaVuSans-30" x="242.822266"/>
      </g>
     </g>
    </g>
    <g id="xtick_2">
     <g id="line2d_2">
      <g>
       <use xlink:href="#mf7af20a00d" x="97.808299" y="253.44" style="stroke: #000000; stroke-width: 0.8"/>
      </g>
     </g>
     <g id="text_2">
      <!-- −0.75 -->
      <g transform="translate(82.485643 268.038437) scale(0.1 -0.1)">
       <defs>
        <path id="DejaVuSans-37" d="M 525 4666 
L 3525 4666 
L 3525 4397 
L 1831 0 
L 1172 0 
L 2766 4134 
L 525 4134 
L 525 4666 
z
" transform="scale(0.015625)"/>
        <path id="DejaVuSans-35" d="M 691 4666 
L 3169 4666 
L 3169 4134 
L 1269 4134 
L 1269 2991 
Q 1406 3038 1543 3061 
Q 1681 3084 1819 3084 
Q 2600 3084 3056 2656 
Q 3513 2228 3513 1497 
Q 3513 744 3044 326 
Q 2575 -91 1722 -91 
Q 1428 -91 1123 -41 
Q 819 9 494 109 
L 494 744 
Q 775 591 1075 516 
Q 1375 441 1709 441 
Q 2250 441 2565 725 
Q 2881 1009 2881 1497 
Q 2881 1984 2565 2268 
Q 2250 2553 1709 2553 
Q 1456 2553 1204 2497 
Q 953 2441 691 2322 
L 691 4666 
z
" transform="scale(0.015625)"/>
       </defs>
       <use xlink:href="#DejaVuSans-2212"/>
       <use xlink:href="#DejaVuSans-30" x="83.789062"/>
       <use xlink:href="#DejaVuSans-2e" x="147.412109"/>
       <use xlink:href="#DejaVuSans-37" x="179.199219"/>
       <use xlink:href="#DejaVuSans-35" x="242.822266"/>
      </g>
     </g>
    </g>
    <g id="xtick_3">
     <g id="line2d_3">
      <g>
       <use xlink:href="#mf7af20a00d" x="135.917871" y="253.44" style="stroke: #000000; stroke-width: 0.8"/>
      </g>
     </g>
     <g id="text_3">
      <!-- −0.50 -->
      <g transform="translate(120.595215 268.038437) scale(0.1 -0.1)">
       <use xlink:href="#DejaVuSans-2212"/>
       <use xlink:href="#DejaVuSans-30" x="83.789062"/>
       <use xlink:href="#DejaVuSans-2e" x="147.412109"/>
       <use xlink:href="#DejaVuSans-35" x="179.199219"/>
       <use xlink:href="#DejaVuSans-30" x="242.822266"/>
      </g>
     </g>
    </g>
    <g id="xtick_4">
     <g id="line2d_4">
      <g>
       <use xlink:href="#mf7af20a00d" x="174.027443" y="253.44" style="stroke: #000000; stroke-width: 0.8"/>
      </g>
     </g>
     <g id="text_4">
      <!-- −0.25 -->
      <g transform="translate(158.704787 268.038437) scale(0.1 -0.1)">
       <defs>
        <path id="DejaVuSans-32" d="M 1228 531 
L 3431 531 
L 3431 0 
L 469 0 
L 469 531 
Q 828 903 1448 1529 
Q 2069 2156 2228 2338 
Q 2531 2678 2651 2914 
Q 2772 3150 2772 3378 
Q 2772 3750 2511 3984 
Q 2250 4219 1831 4219 
Q 1534 4219 1204 4116 
Q 875 4013 500 3803 
L 500 4441 
Q 881 4594 1212 4672 
Q 1544 4750 1819 4750 
Q 2544 4750 2975 4387 
Q 3406 4025 3406 3419 
Q 3406 3131 3298 2873 
Q 3191 2616 2906 2266 
Q 2828 2175 2409 1742 
Q 1991 1309 1228 531 
z
" transform="scale(0.015625)"/>
       </defs>
       <use xlink:href="#DejaVuSans-2212"/>
       <use xlink:href="#DejaVuSans-30" x="83.789062"/>
       <use xlink:href="#DejaVuSans-2e" x="147.412109"/>
       <use xlink:href="#DejaVuSans-32" x="179.199219"/>
       <use xlink:href="#DejaVuSans-35" x="242.822266"/>
      </g>
     </g>
    </g>
    <g id="xtick_5">
     <g id="line2d_5">
      <g>
       <use xlink:href="#mf7af20a00d" x="212.137015" y="253.44" style="stroke: #000000; stroke-width: 0.8"/>
      </g>
     </g>
     <g id="text_5">
      <!-- 0.00 -->
      <g transform="translate(201.004202 268.038437) scale(0.1 -0.1)">
       <use xlink:href="#DejaVuSans-30"/>
       <use xlink:href="#DejaVuSans-2e" x="63.623047"/>
       <use xlink:href="#DejaVuSans-30" x="95.410156"/>
       <use xlink:href="#DejaVuSans-30" x="159.033203"/>
      </g>
     </g>
    </g>
    <g id="xtick_6">
     <g id="line2d_6">
      <g>
       <use xlink:href="#mf7af20a00d" x="250.246587" y="253.44" style="stroke: #000000; stroke-width: 0.8"/>
      </g>
     </g>
     <g id="text_6">
      <!-- 0.25 -->
      <g transform="translate(239.113774 268.038437) scale(0.1 -0.1)">
       <use xlink:href="#DejaVuSans-30"/>
       <use xlink:href="#DejaVuSans-2e" x="63.623047"/>
       <use xlink:href="#DejaVuSans-32" x="95.410156"/>
       <use xlink:href="#DejaVuSans-35" x="159.033203"/>
      </g>
     </g>
    </g>
    <g id="xtick_7">
     <g id="line2d_7">
      <g>
       <use xlink:href="#mf7af20a00d" x="288.356159" y="253.44" style="stroke: #000000; stroke-width: 0.8"/>
      </g>
     </g>
     <g id="text_7">
      <!-- 0.50 -->
      <g transform="translate(277.223346 268.038437) scale(0.1 -0.1)">
       <use xlink:href="#DejaVuSans-30"/>
       <use xlink:href="#DejaVuSans-2e" x="63.623047"/>
       <use xlink:href="#DejaVuSans-35" x="95.410156"/>
       <use xlink:href="#DejaVuSans-30" x="159.033203"/>
      </g>
     </g>
    </g>
    <g id="xtick_8">
     <g id="line2d_8">
      <g>
       <use xlink:href="#mf7af20a00d" x="326.465731" y="253.44" style="stroke: #000000; stroke-width: 0.8"/>
      </g>
     </g>
     <g id="text_8">
      <!-- 0.75 -->
      <g transform="translate(315.332918 268.038437) scale(0.1 -0.1)">
       <use xlink:href="#DejaVuSans-30"/>
       <use xlink:href="#DejaVuSans-2e" x="63.623047"/>
       <use xlink:href="#DejaVuSans-37" x="95.410156"/>
       <use xlink:href="#DejaVuSans-35" x="159.033203"/>
      </g>
     </g>
    </g>
    <g id="xtick_9">
     <g id="line2d_9">
      <g>
       <use xlink:href="#mf7af20a00d" x="364.575302" y="253.44" style="stroke: #000000; stroke-width: 0.8"/>
      </g>
     </g>
     <g id="text_9">
      <!-- 1.00 -->
      <g transform="translate(353.44249 268.038437) scale(0.1 -0.1)">
       <use xlink:href="#DejaVuSans-31"/>
       <use xlink:href="#DejaVuSans-2e" x="63.623047"/>
       <use xlink:href="#DejaVuSans-30" x="95.410156"/>
       <use xlink:href="#DejaVuSans-30" x="159.033203"/>
      </g>
     </g>
    </g>
   </g>
   <g id="matplotlib.axis_2">
    <g id="ytick_1">
     <g id="line2d_10">
      <defs>
       <path id="m59f0be3d25" d="M 0 0 
L -3.5 0 
" style="stroke: #000000; stroke-width: 0.8"/>
      </defs>
      <g>
       <use xlink:href="#m59f0be3d25" x="44.845313" y="244.257519" style="stroke: #000000; stroke-width: 0.8"/>
      </g>
     </g>
     <g id="text_10">
      <!-- −1.00 -->
      <g transform="translate(7.2 248.056738) scale(0.1 -0.1)">
       <use xlink:href="#DejaVuSans-2212"/>
       <use xlink:href="#DejaVuSans-31" x="83.789062"/>
       <use xlink:href="#DejaVuSans-2e" x="147.412109"/>
       <use xlink:href="#DejaVuSans-30" x="179.199219"/>
       <use xlink:href="#DejaVuSans-30" x="242.822266"/>
      </g>
     </g>
    </g>
    <g id="ytick_2">
     <g id="line2d_11">
      <g>
       <use xlink:href="#m59f0be3d25" x="44.845313" y="219.334038" style="stroke: #000000; stroke-width: 0.8"/>
      </g>
     </g>
     <g id="text_11">
      <!-- −0.75 -->
      <g transform="translate(7.2 223.133257) scale(0.1 -0.1)">
       <use xlink:href="#DejaVuSans-2212"/>
       <use xlink:href="#DejaVuSans-30" x="83.789062"/>
       <use xlink:href="#DejaVuSans-2e" x="147.412109"/>
       <use xlink:href="#DejaVuSans-37" x="179.199219"/>
       <use xlink:href="#DejaVuSans-35" x="242.822266"/>
      </g>
     </g>
    </g>
    <g id="ytick_3">
     <g id="line2d_12">
      <g>
       <use xlink:href="#m59f0be3d25" x="44.845313" y="194.410557" style="stroke: #000000; stroke-width: 0.8"/>
      </g>
     </g>
     <g id="text_12">
      <!-- −0.50 -->
      <g transform="translate(7.2 198.209775) scale(0.1 -0.1)">
       <use xlink:href="#DejaVuSans-2212"/>
       <use xlink:href="#DejaVuSans-30" x="83.789062"/>
       <use xlink:href="#DejaVuSans-2e" x="147.412109"/>
       <use xlink:href="#DejaVuSans-35" x="179.199219"/>
       <use xlink:href="#DejaVuSans-30" x="242.822266"/>
      </g>
     </g>
    </g>
    <g id="ytick_4">
     <g id="line2d_13">
      <g>
       <use xlink:href="#m59f0be3d25" x="44.845313" y="169.487075" style="stroke: #000000; stroke-width: 0.8"/>
      </g>
     </g>
     <g id="text_13">
      <!-- −0.25 -->
      <g transform="translate(7.2 173.286294) scale(0.1 -0.1)">
       <use xlink:href="#DejaVuSans-2212"/>
       <use xlink:href="#DejaVuSans-30" x="83.789062"/>
       <use xlink:href="#DejaVuSans-2e" x="147.412109"/>
       <use xlink:href="#DejaVuSans-32" x="179.199219"/>
       <use xlink:href="#DejaVuSans-35" x="242.822266"/>
      </g>
     </g>
    </g>
    <g id="ytick_5">
     <g id="line2d_14">
      <g>
       <use xlink:href="#m59f0be3d25" x="44.845313" y="144.563594" style="stroke: #000000; stroke-width: 0.8"/>
      </g>
     </g>
     <g id="text_14">
      <!-- 0.00 -->
      <g transform="translate(15.579688 148.362813) scale(0.1 -0.1)">
       <use xlink:href="#DejaVuSans-30"/>
       <use xlink:href="#DejaVuSans-2e" x="63.623047"/>
       <use xlink:href="#DejaVuSans-30" x="95.410156"/>
       <use xlink:href="#DejaVuSans-30" x="159.033203"/>
      </g>
     </g>
    </g>
    <g id="ytick_6">
     <g id="line2d_15">
      <g>
       <use xlink:href="#m59f0be3d25" x="44.845313" y="119.640113" style="stroke: #000000; stroke-width: 0.8"/>
      </g>
     </g>
     <g id="text_15">
      <!-- 0.25 -->
      <g transform="translate(15.579688 123.439332) scale(0.1 -0.1)">
       <use xlink:href="#DejaVuSans-30"/>
       <use xlink:href="#DejaVuSans-2e" x="63.623047"/>
       <use xlink:href="#DejaVuSans-32" x="95.410156"/>
       <use xlink:href="#DejaVuSans-35" x="159.033203"/>
      </g>
     </g>
    </g>
    <g id="ytick_7">
     <g id="line2d_16">
      <g>
       <use xlink:href="#m59f0be3d25" x="44.845313" y="94.716631" style="stroke: #000000; stroke-width: 0.8"/>
      </g>
     </g>
     <g id="text_16">
      <!-- 0.50 -->
      <g transform="translate(15.579688 98.51585) scale(0.1 -0.1)">
       <use xlink:href="#DejaVuSans-30"/>
       <use xlink:href="#DejaVuSans-2e" x="63.623047"/>
       <use xlink:href="#DejaVuSans-35" x="95.410156"/>
       <use xlink:href="#DejaVuSans-30" x="159.033203"/>
      </g>
     </g>
    </g>
    <g id="ytick_8">
     <g id="line2d_17">
      <g>
       <use xlink:href="#m59f0be3d25" x="44.845313" y="69.79315" style="stroke: #000000; stroke-width: 0.8"/>
      </g>
     </g>
     <g id="text_17">
      <!-- 0.75 -->
      <g transform="translate(15.579688 73.592369) scale(0.1 -0.1)">
       <use xlink:href="#DejaVuSans-30"/>
       <use xlink:href="#DejaVuSans-2e" x="63.623047"/>
       <use xlink:href="#DejaVuSans-37" x="95.410156"/>
       <use xlink:href="#DejaVuSans-35" x="159.033203"/>
      </g>
     </g>
    </g>
    <g id="ytick_9">
     <g id="line2d_18">
      <g>
       <use xlink:href="#m59f0be3d25" x="44.845313" y="44.869669" style="stroke: #000000; stroke-width: 0.8"/>
      </g>
     </g>
     <g id="text_18">
      <!-- 1.00 -->
      <g transform="translate(15.579688 48.668888) scale(0.1 -0.1)">
       <use xlink:href="#DejaVuSans-31"/>
       <use xlink:href="#DejaVuSans-2e" x="63.623047"/>
       <use xlink:href="#DejaVuSans-30" x="95.410156"/>
       <use xlink:href="#DejaVuSans-30" x="159.033203"/>
      </g>
     </g>
    </g>
   </g>
   <g id="line2d_19">
    <path d="M 281.500702 99.305478 
L 270.118643 106.553493 
L 295.321774 90.379726 
L 216.460366 141.533334 
L 361.175114 47.600882 
L 329.874452 67.575371 
L 67.380532 238.942831 
L 361.581616 47.393018 
L 195.835196 155.595784 
L 337.19149 63.055511 
L 71.445553 236.328798 
L 256.297572 115.803373 
L 171.44507 170.29675 
L 65.348022 240.244245 
L 348.573549 55.274982 
L 319.7119 74.456577 
L 109.250248 212.093472 
L 214.021354 142.879038 
L 292.069757 92.736575 
L 218.899379 140.178108 
L 290.443748 93.782571 
L 257.92358 114.432038 
L 66.97403 239.199673 
L 281.907204 99.048413 
L 119.819303 204.775267 
L 363.614126 46.347184 
L 80.388599 230.322461 
L 219.305881 139.81702 
L 107.217738 213.327827 
L 133.640374 195.736091 
L 144.209429 189.067343 
L 324.589925 70.997348 
L 118.193295 205.949629 
L 86.486131 226.233941 
L 147.461446 187.028743 
L 324.996427 70.74012 
L 315.646879 77.112945 
L 325.402929 70.483934 
L 226.622919 135.214626 
L 198.274208 153.964473 
L 136.079387 194.220965 
L 101.933211 216.651614 
L 77.136583 232.465486 
L 259.143087 113.532487 
L 263.208108 110.637448 
L 259.549589 113.105308 
L 110.469755 211.348421 
L 97.055185 219.698064 
L 344.91503 57.641708 
L 338.410996 62.225601 
L 296.134778 89.747453 
L 118.599797 205.684465 
L 299.386795 87.783687 
L 314.833874 77.595308 
L 185.672643 162.073278 
L 346.541038 56.523799 
L 166.973547 173.821887 
L 227.435923 134.663138 
L 301.825807 86.038704 
L 69.819545 237.388659 
L 176.729597 167.302718 
L 322.150912 72.590132 
L 251.826049 118.840572 
L 237.598475 127.635659 
L 354.264578 51.777078 
L 261.988601 111.370665 
L 99.087696 218.476399 
L 70.632549 236.861696 
L 244.509011 123.357697 
L 253.045555 118.157651 
L 123.07132 202.506366 
L 64.535017 240.870969 
L 210.469271 144.861379 
L 302.232309 85.781499 
L 179.16861 165.922876 
L 162.502024 177.501612 
L 93.803169 221.617217 
L 269.712141 106.796066 
L 164.941036 175.424199 
L 245.728517 122.550892 
L 353.858076 52.069337 
L 238.41148 127.166725 
L 199.900217 152.673682 
L 115.34778 208.103465 
L 232.72045 130.88288 
L 293.289263 91.673599 
L 127.949345 199.448528 
L 316.866385 76.382758 
L 157.217496 181.208475 
L 183.640133 163.354439 
L 76.73008 232.728243 
L 101.526709 216.88015 
L 70.226047 237.125869 
L 360.768612 47.809092 
L 222.151396 137.899264 
L 294.508769 90.90299 
L 348.167047 55.523137 
L 339.630503 61.255419 
L 86.079629 226.469899 
L 60.876499 243.12576 
L 227.842425 134.418994 
L 117.38029 206.715395 
L 304.671322 84.271053 
L 171.038568 170.529429 
L 148.27445 186.570515 
L 75.917076 233.247732 
L 117.786793 206.255299 
L 292.476259 92.209477 
L 149.087454 186.112633 
L 224.99691 136.194987 
L 220.118885 139.272528 
L 196.6482 155.058255 
L 102.339713 216.422608 
L 184.046635 163.11086 
L 96.648683 219.93959 
L 172.258074 169.833181 
L 98.681194 218.723254 
L 334.345975 64.983859 
L 73.478064 234.964084 
L 297.354284 88.921376 
L 168.193053 172.730089 
L 193.802685 156.94274 
L 209.656267 145.61976 
L 207.217255 147.628144 
L 64.94152 240.632897 
L 103.559219 215.732649 
L 333.126469 65.684827 
L 154.371982 183.120973 
L 359.955608 48.226843 
L 254.265061 117.475511 
L 213.208349 143.328615 
L 331.500461 66.625729 
L 260.362593 112.529886 
L 342.476017 59.31751 
L 120.225805 204.489503 
L 179.575112 165.692243 
L 290.850251 93.528643 
L 302.638811 85.526474 
L 217.679872 140.858359 
L 150.306961 185.425465 
L 341.663013 59.84292 
L 133.233872 195.996685 
L 137.298893 193.563904 
L 165.75404 174.738803 
L 147.054944 187.258202 
L 317.272887 76.132304 
L 84.45362 227.415453 
L 105.185227 214.569178 
L 229.468433 133.371776 
L 364.020629 46.082528 
L 153.152475 183.815495 
L 211.688778 144.173912 
L 114.128274 208.899115 
L 262.801606 110.881067 
L 199.493715 152.942062 
L 75.510574 233.50485 
L 141.363914 190.775068 
L 307.923339 82.295447 
L 140.957412 191.001792 
L 348.980051 55.027516 
L 233.533454 130.342883 
L 355.077582 51.292398 
L 204.778242 149.278436 
L 176.323095 167.532336 
L 192.989681 157.498143 
L 234.752961 129.514781 
L 359.142603 48.646686 
L 153.96548 183.352853 
L 264.021112 110.152257 
L 293.695765 91.416021 
L 85.266625 226.941842 
L 313.207866 78.641071 
L 100.307202 217.718135 
L 144.615931 188.800487 
L 272.557656 104.939146 
L 64.128515 241.108437 
L 147.867948 186.799548 
L 206.40425 148.335162 
L 233.939956 130.074235 
L 323.370419 71.777959 
L 150.713463 185.196153 
L 91.364156 223.062533 
L 273.37066 104.460652 
L 93.396667 221.85613 
L 312.801364 78.896289 
L 162.908526 177.223425 
L 91.770658 222.817448 
L 153.558977 183.584353 
L 102.746215 216.19312 
L 177.136099 167.073049 
L 357.923097 49.492811 
L 321.337908 73.369456 
L 151.119965 184.966658 
L 357.516595 49.729921 
L 362.39462 46.97778 
L 158.437003 180.242104 
L 312.394862 79.147578 
L 110.876257 211.098956 
L 238.817982 126.915291 
L 304.26482 84.520227 
L 175.916593 167.761934 
L 196.241698 155.327354 
L 298.167288 88.46493 
L 95.835679 220.420824 
L 323.776921 71.515897 
L 282.313706 98.792771 
L 318.492393 75.322263 
L 205.997748 148.573759 
L 354.67108 51.535499 
L 131.607864 197.115958 
L 178.762108 166.153261 
L 329.46795 67.814331 
L 192.583179 157.79044 
L 310.362351 80.624179 
L 123.884324 201.98178 
L 203.965238 149.884894 
L 350.199557 54.288666 
L 288.81774 94.78561 
L 231.094442 132.092136 
L 182.014124 164.300189 
L 213.614851 143.103673 
L 300.606301 86.838544 
L 284.752719 97.278376 
L 160.063011 179.136646 
L 283.533213 98.032221 
L 164.534534 175.850887 
L 88.112139 225.286744 
L 250.606543 119.525686 
L 265.64712 109.188612 
L 240.44399 125.960005 
L 135.266383 194.65617 
L 60.469996 243.341585 
L 177.542601 166.8433 
L 180.388116 165.230058 
L 128.762349 198.877383 
L 332.313465 66.154286 
L 295.728276 89.988671 
L 215.647362 141.981991 
L 194.61569 156.401009 
L 306.29733 83.280349 
L 135.672885 194.438804 
L 311.581858 79.822495 
L 210.062769 145.207123 
L 347.760545 55.772036 
L 116.160784 207.563828 
L 335.158979 64.518277 
L 236.378969 128.329538 
L 195.428694 155.863934 
L 134.453379 195.089692 
L 303.045314 85.273121 
L 152.339471 184.276798 
L 224.590408 136.422373 
L 92.990164 222.095264 
L 68.600038 238.16978 
L 190.957171 159.136259 
L 95.022675 220.900185 
L 308.736343 81.69983 
L 149.493956 185.883669 
L 136.892391 193.783601 
L 277.842183 101.910384 
L 328.248444 68.703501 
L 125.916835 200.620321 
L 215.24086 142.206176 
L 141.770417 190.548512 
L 208.030259 146.909582 
L 84.047118 227.768431 
L 282.720208 98.538308 
L 200.306719 152.367486 
L 130.388358 197.871792 
L 214.427856 142.654627 
L 346.134536 56.77631 
L 94.209671 221.378342 
L 104.778725 214.828611 
L 338.817498 61.917038 
L 352.63857 52.819225 
L 327.43544 69.212337 
L 75.104072 233.760387 
L 203.152234 150.434671 
L 291.663255 93.010381 
L 97.461688 219.455805 
L 255.484568 116.380814 
L 145.835438 188.034698 
L 220.525387 139.012433 
L 330.280954 67.337056 
L 165.347538 175.125202 
L 253.858559 117.7029 
L 84.860122 227.17827 
L 301.012803 86.563984 
L 361.988118 47.185382 
L 248.16753 120.908674 
L 340.037005 60.954139 
L 242.476501 124.872593 
L 248.980534 120.44513 
L 221.338391 138.372808 
L 353.045072 52.573287 
L 352.232068 53.064301 
L 345.728034 57.029941 
L 308.329841 82.049545 
L 338.004494 62.500769 
L 274.590166 103.756563 
L 169.006057 172.015698 
L 158.030501 180.538638 
L 174.697087 168.45092 
L 292.882761 91.93489 
L 67.787034 238.685754 
L 332.719967 65.919321 
L 351.419063 53.553638 
L 98.274692 218.968581 
L 212.801847 143.553954 
L 140.55091 191.228855 
L 163.315028 176.940243 
L 241.256994 125.524529 
L 180.794618 164.998396 
L 329.061448 68.18391 
L 125.510332 200.853438 
L 134.859881 194.873116 
L 99.494198 218.227499 
L 327.028937 69.466051 
L 314.427372 77.836237 
L 346.94754 56.272302 
L 143.396425 189.641178 
L 355.890587 50.793806 
L 349.793055 54.53442 
L 261.582099 111.616793 
L 62.502507 242.058539 
L 124.290826 201.704515 
L 311.98836 79.54323 
L 62.096005 242.300739 
L 246.135019 122.292536 
L 314.02087 78.077213 
L 318.898895 75.090925 
L 289.630744 94.285775 
L 218.086375 140.632409 
L 122.664818 202.850969 
L 145.022433 188.547806 
L 173.071078 169.371366 
L 105.998232 214.068881 
L 270.525145 106.305792 
L 87.705637 225.524304 
L 300.199799 87.23841 
L 296.54128 89.504493 
L 132.420868 196.591546 
L 320.931406 73.63689 
L 303.451816 85.021107 
L 155.99799 182.189142 
L 249.793538 119.984351 
L 146.648442 187.48806 
L 60.063494 243.556364 
L 61.283001 242.908871 
L 277.435681 102.139509 
L 114.941278 208.370076 
L 303.858318 84.770201 
L 99.9007 217.975559 
L 181.607622 164.533569 
L 113.721772 209.162127 
L 164.128032 176.198487 
L 260.769095 112.112178 
L 108.437244 212.587954 
L 289.224242 94.535976 
L 126.729839 200.153033 
L 309.549347 81.155143 
L 250.20004 119.754788 
L 239.224484 126.615389 
L 280.281196 100.08956 
L 340.850009 60.372205 
L 264.834116 109.669441 
L 317.679389 75.784816 
L 197.867706 154.242097 
L 217.27337 141.083746 
L 96.242181 220.180481 
L 347.354042 56.021738 
L 343.289021 58.794079 
L 182.420627 164.065951 
L 188.518158 160.498868 
L 258.736585 113.837077 
L 190.550669 159.364394 
L 63.722013 241.345507 
L 257.517078 114.731198 
L 179.981614 165.46132 
L 249.387036 120.21444 
L 208.843263 146.192978 
L 207.623757 147.333304 
L 247.761028 121.141755 
L 115.754282 207.834929 
L 204.37174 149.511104 
L 344.102026 58.210752 
L 121.851814 203.407205 
L 266.460124 108.709386 
L 146.24194 187.71851 
L 139.331404 192.083573 
L 159.250007 179.683023 
L 152.745973 184.046302 
L 273.777162 104.224758 
L 73.071562 235.241459 
L 155.184986 182.655971 
L 101.120206 217.108229 
L 345.321532 57.284838 
L 173.884082 168.910751 
L 307.516837 82.541393 
L 287.598234 95.532758 
L 290.037246 94.03476 
L 140.144408 191.571775 
L 184.859639 162.520789 
L 353.451574 52.325341 
L 225.403412 135.964185 
L 269.305639 107.036603 
L 216.866868 141.308702 
L 112.095763 210.210814 
L 333.532971 65.450773 
L 116.973788 207.008425 
L 327.841942 68.958351 
L 92.583662 222.334879 
L 331.093958 66.862259 
L 281.0942 99.564306 
L 72.258557 235.7891 
L 129.168851 198.621432 
L 185.266141 162.297145 
L 235.565965 128.864876 
L 288.004736 95.283873 
L 112.502265 209.948358 
L 279.874694 100.358233 
L 90.14465 224.082738 
L 108.843746 212.340893 
L 74.291068 234.399409 
L 279.06169 100.929656 
L 155.591488 182.422798 
L 351.825566 53.309011 
L 168.599555 172.397475 
L 280.687698 99.8254 
L 78.356089 231.659156 
L 210.875774 144.630888 
L 237.191973 127.867251 
L 325.809431 70.228606 
L 228.655429 133.799475 
L 324.183423 71.255841 
L 169.819061 171.478832 
L 160.469513 178.865103 
L 184.453137 162.854204 
L 287.191732 95.781614 
L 246.541522 122.033736 
L 85.673127 226.705803 
L 111.689261 210.474943 
L 356.297089 50.420399 
L 183.233631 163.593696 
L 322.557414 72.311898 
L 242.883003 124.655423 
L 316.053381 76.871011 
L 216.053864 141.757736 
L 209.249765 145.909258 
L 364.427131 45.883636 
L 279.468192 100.634584 
L 161.689019 178.050202 
L 175.103589 168.221193 
L 190.144166 159.592084 
L 71.039051 236.59604 
L 229.874935 133.158602 
L 107.62424 213.081315 
L 208.436761 146.485079 
L 69.413043 237.650166 
L 86.892633 225.997776 
L 274.996669 103.523792 
L 326.215933 69.973967 
L 244.102509 123.724472 
L 251.013045 119.296986 
L 175.510091 167.991543 
L 143.802927 189.413333 
L 125.10383 201.086284 
L 79.982097 230.557701 
L 186.485648 161.624826 
L 283.126711 98.28484 
L 71.852055 236.05986 
L 193.396183 157.217683 
L 200.713221 152.025026 
L 344.508528 57.931965 
L 285.159221 97.02814 
L 243.289505 124.238602 
L 94.616173 221.139369 
L 322.963916 72.042776 
L 122.258316 203.134216 
L 363.207624 46.560758 
L 246.948024 121.770551 
L 357.110093 49.961894 
L 103.965721 215.396435 
L 315.240377 77.354277 
L 239.630986 126.396579 
L 243.696007 123.975495 
L 171.851572 170.064704 
L 158.843505 179.959873 
L 359.549105 48.436485 
L 274.183664 103.990158 
L 188.92466 160.272727 
L 301.419305 86.298955 
L 186.079145 161.849176 
L 173.47758 169.140937 
L 151.932969 184.507006 
L 127.136341 199.918739 
L 142.583421 190.095338 
L 358.329599 49.160863 
L 225.809914 135.719437 
L 214.834358 142.430364 
L 203.558736 150.17076 
L 177.949103 166.613439 
L 309.142845 81.423688 
L 254.671564 117.122075 
L 248.574032 120.676507 
L 61.689503 242.555919 
L 305.077824 84.022566 
L 88.518641 225.048445 
L 291.256753 93.271973 
L 264.427614 109.910577 
L 288.411238 95.034862 
L 199.087213 153.386858 
L 188.111656 160.724671 
L 88.925143 224.809229 
L 191.363673 158.907653 
L 251.419547 119.068632 
L 266.053622 108.948824 
L 160.876015 178.593832 
L 305.890828 83.527294 
L 351.012561 53.798371 
L 92.17716 222.575376 
L 330.687456 67.09936 
L 189.331162 160.046229 
L 73.884566 234.683746 
L 229.061931 133.585306 
L 74.69757 234.107836 
L 106.404734 213.821323 
L 278.248685 101.681627 
L 110.063253 211.597293 
L 156.404492 181.954973 
L 240.850492 125.742151 
L 151.526467 184.736951 
L 298.57379 88.237421 
L 263.61461 110.39453 
L 235.972467 128.561006 
L 328.654946 68.446574 
L 197.054702 154.788062 
L 211.282276 144.401835 
L 247.354526 121.471977 
L 89.331646 224.568848 
L 129.575353 198.370678 
L 362.801122 46.769852 
L 197.461204 154.51625 
L 342.882519 59.055691 
L 252.639053 118.385132 
L 219.712383 139.53456 
L 265.240618 109.428802 
L 212.09528 143.946894 
L 222.9644 137.393888 
L 319.305398 74.76823 
L 331.906963 66.389747 
L 116.567286 207.289072 
L 276.216175 102.829372 
L 105.59173 214.317712 
L 182.827129 163.830596 
L 78.762591 231.376985 
L 349.386553 54.780682 
L 103.152717 215.963137 
L 136.485889 194.00259 
L 297.760786 88.692904 
L 306.703832 83.033766 
L 326.622435 69.719846 
L 320.524904 73.903153 
L 169.412559 171.748289 
L 296.947782 89.256272 
L 63.315511 241.582481 
L 65.754524 239.975516 
L 261.175597 111.863928 
L 201.932727 151.202748 
L 218.492877 140.405732 
L 104.372223 215.148529 
L 113.315269 209.424474 
L 313.614368 78.318352 
L 360.36211 48.017727 
L 167.786551 173.140628 
L 174.290585 168.68076 
L 242.069998 125.089798 
L 271.33815 105.734176 
L 294.915272 90.644274 
L 270.931648 105.961935 
L 149.900459 185.654625 
L 192.176677 158.231004 
L 343.695524 58.493475 
L 167.380049 173.417721 
L 187.705154 160.950152 
L 119.006299 205.433925 
L 336.784988 63.343001 
L 81.201604 229.848666 
L 318.085891 75.553527 
L 271.744652 105.506787 
L 285.565723 96.778304 
L 106.811236 213.574421 
L 195.022192 156.132195 
L 142.989923 189.868454 
L 161.282517 178.322354 
L 132.82737 196.248134 
L 66.567528 239.456733 
L 356.703591 50.191689 
L 212.395345 143.779795 
L 256.704074 115.360491 
L 129.981856 198.121226 
L 82.827612 228.625512 
L 77.543085 232.200284 
L 87.299135 225.761272 
L 138.111898 192.837934 
L 272.964158 104.698376 
L 286.78523 96.030523 
L 80.795101 230.086143 
L 259.956091 112.824019 
L 72.665059 235.516367 
L 226.216417 135.434856 
L 255.078066 116.860587 
L 83.640616 228.05159 
L 109.656751 211.845625 
L 321.74441 73.09294 
L 159.656509 179.409028 
L 309.955849 80.889203 
L 154.778484 182.888687 
L 123.477822 202.246446 
L 277.029179 102.369028 
L 79.575595 230.791924 
L 355.484084 51.046429 
L 90.957654 223.408273 
L 350.606059 54.043345 
L 234.346459 129.801909 
L 286.378727 96.279562 
L 148.680952 186.341565 
L 283.939715 97.780335 
L 268.086133 107.753887 
L 316.459883 76.627964 
L 108.030742 212.83473 
L 245.322015 122.811145 
L 121.445311 203.677044 
L 83.234114 228.331443 
L 305.484326 83.774675 
L 97.86819 219.212695 
L 268.492635 107.515129 
L 334.752477 64.750924 
L 310.768853 80.358972 
L 114.534776 208.635186 
L 156.810994 181.629291 
L 127.542843 199.683927 
L 77.949587 231.931988 
L 311.175356 80.09241 
L 266.866627 108.470244 
L 170.225564 171.202166 
L 252.232551 118.612755 
L 139.737906 191.83244 
L 222.557898 137.657899 
L 187.298652 161.175329 
L 231.907446 131.574601 
L 191.770175 158.51562 
L 172.664576 169.602093 
L 145.428935 188.296155 
L 320.118402 74.172238 
L 194.209187 156.670931 
L 223.777404 136.872738 
L 272.151154 105.187393 
L 340.443507 60.638926 
L 128.355847 199.212466 
L 342.069515 59.579841 
L 163.72153 176.646346 
L 189.737664 159.819355 
L 111.282759 210.744433 
L 240.037488 126.178133 
L 262.395103 111.125449 
L 285.972225 96.5288 
L 66.161026 239.714794 
L 233.126952 130.611463 
L 100.713704 217.443435 
L 339.224 61.541438 
L 112.908767 209.686432 
L 337.597992 62.776613 
L 170.632066 170.873594 
L 126.323337 200.386873 
L 76.323578 232.988915 
L 267.679631 107.992579 
L 358.736101 48.936533 
L 157.623998 180.926139 
L 162.095522 177.77685 
L 134.046877 195.428457 
L 253.452057 117.930259 
L 244.915513 123.076438 
L 244.915513 123.076438 
" clip-path="url(#p6fce903dcd)" style="fill: none; stroke: #1f77b4; stroke-width: 1.5; stroke-linecap: square"/>
   </g>
   <g id="patch_3">
    <path d="M 44.845313 253.44 
L 44.845313 36 
" style="fill: none; stroke: #000000; stroke-width: 0.8; stroke-linejoin: miter; stroke-linecap: square"/>
   </g>
   <g id="patch_4">
    <path d="M 379.645313 253.44 
L 379.645313 36 
" style="fill: none; stroke: #000000; stroke-width: 0.8; stroke-linejoin: miter; stroke-linecap: square"/>
   </g>
   <g id="patch_5">
    <path d="M 44.845313 253.44 
L 379.645313 253.44 
" style="fill: none; stroke: #000000; stroke-width: 0.8; stroke-linejoin: miter; stroke-linecap: square"/>
   </g>
   <g id="patch_6">
    <path d="M 44.845313 36 
L 379.645313 36 
" style="fill: none; stroke: #000000; stroke-width: 0.8; stroke-linejoin: miter; stroke-linecap: square"/>
   </g>
  </g>
  <g id="text_19">
   <!-- $x$ and $\hat{x}$ for radius: 1 -->
   <g transform="translate(146.245313 16.318125) scale(0.12 -0.12)">
    <defs>
     <path id="DejaVuSans-Oblique-78" d="M 3841 3500 
L 2234 1784 
L 3219 0 
L 2559 0 
L 1819 1388 
L 531 0 
L -166 0 
L 1556 1844 
L 641 3500 
L 1300 3500 
L 1972 2234 
L 3144 3500 
L 3841 3500 
z
" transform="scale(0.015625)"/>
     <path id="DejaVuSans-20" transform="scale(0.015625)"/>
     <path id="DejaVuSans-61" d="M 2194 1759 
Q 1497 1759 1228 1600 
Q 959 1441 959 1056 
Q 959 750 1161 570 
Q 1363 391 1709 391 
Q 2188 391 2477 730 
Q 2766 1069 2766 1631 
L 2766 1759 
L 2194 1759 
z
M 3341 1997 
L 3341 0 
L 2766 0 
L 2766 531 
Q 2569 213 2275 61 
Q 1981 -91 1556 -91 
Q 1019 -91 701 211 
Q 384 513 384 1019 
Q 384 1609 779 1909 
Q 1175 2209 1959 2209 
L 2766 2209 
L 2766 2266 
Q 2766 2663 2505 2880 
Q 2244 3097 1772 3097 
Q 1472 3097 1187 3025 
Q 903 2953 641 2809 
L 641 3341 
Q 956 3463 1253 3523 
Q 1550 3584 1831 3584 
Q 2591 3584 2966 3190 
Q 3341 2797 3341 1997 
z
" transform="scale(0.015625)"/>
     <path id="DejaVuSans-6e" d="M 3513 2113 
L 3513 0 
L 2938 0 
L 2938 2094 
Q 2938 2591 2744 2837 
Q 2550 3084 2163 3084 
Q 1697 3084 1428 2787 
Q 1159 2491 1159 1978 
L 1159 0 
L 581 0 
L 581 3500 
L 1159 3500 
L 1159 2956 
Q 1366 3272 1645 3428 
Q 1925 3584 2291 3584 
Q 2894 3584 3203 3211 
Q 3513 2838 3513 2113 
z
" transform="scale(0.015625)"/>
     <path id="DejaVuSans-64" d="M 2906 2969 
L 2906 4863 
L 3481 4863 
L 3481 0 
L 2906 0 
L 2906 525 
Q 2725 213 2448 61 
Q 2172 -91 1784 -91 
Q 1150 -91 751 415 
Q 353 922 353 1747 
Q 353 2572 751 3078 
Q 1150 3584 1784 3584 
Q 2172 3584 2448 3432 
Q 2725 3281 2906 2969 
z
M 947 1747 
Q 947 1113 1208 752 
Q 1469 391 1925 391 
Q 2381 391 2643 752 
Q 2906 1113 2906 1747 
Q 2906 2381 2643 2742 
Q 2381 3103 1925 3103 
Q 1469 3103 1208 2742 
Q 947 2381 947 1747 
z
" transform="scale(0.015625)"/>
     <path id="DejaVuSans-302" d="M -1831 5119 
L -1369 5119 
L -603 3944 
L -1038 3944 
L -1600 4709 
L -2163 3944 
L -2597 3944 
L -1831 5119 
z
M -1600 3584 
L -1600 3584 
z
" transform="scale(0.015625)"/>
     <path id="DejaVuSans-66" d="M 2375 4863 
L 2375 4384 
L 1825 4384 
Q 1516 4384 1395 4259 
Q 1275 4134 1275 3809 
L 1275 3500 
L 2222 3500 
L 2222 3053 
L 1275 3053 
L 1275 0 
L 697 0 
L 697 3053 
L 147 3053 
L 147 3500 
L 697 3500 
L 697 3744 
Q 697 4328 969 4595 
Q 1241 4863 1831 4863 
L 2375 4863 
z
" transform="scale(0.015625)"/>
     <path id="DejaVuSans-6f" d="M 1959 3097 
Q 1497 3097 1228 2736 
Q 959 2375 959 1747 
Q 959 1119 1226 758 
Q 1494 397 1959 397 
Q 2419 397 2687 759 
Q 2956 1122 2956 1747 
Q 2956 2369 2687 2733 
Q 2419 3097 1959 3097 
z
M 1959 3584 
Q 2709 3584 3137 3096 
Q 3566 2609 3566 1747 
Q 3566 888 3137 398 
Q 2709 -91 1959 -91 
Q 1206 -91 779 398 
Q 353 888 353 1747 
Q 353 2609 779 3096 
Q 1206 3584 1959 3584 
z
" transform="scale(0.015625)"/>
     <path id="DejaVuSans-72" d="M 2631 2963 
Q 2534 3019 2420 3045 
Q 2306 3072 2169 3072 
Q 1681 3072 1420 2755 
Q 1159 2438 1159 1844 
L 1159 0 
L 581 0 
L 581 3500 
L 1159 3500 
L 1159 2956 
Q 1341 3275 1631 3429 
Q 1922 3584 2338 3584 
Q 2397 3584 2469 3576 
Q 2541 3569 2628 3553 
L 2631 2963 
z
" transform="scale(0.015625)"/>
     <path id="DejaVuSans-69" d="M 603 3500 
L 1178 3500 
L 1178 0 
L 603 0 
L 603 3500 
z
M 603 4863 
L 1178 4863 
L 1178 4134 
L 603 4134 
L 603 4863 
z
" transform="scale(0.015625)"/>
     <path id="DejaVuSans-75" d="M 544 1381 
L 544 3500 
L 1119 3500 
L 1119 1403 
Q 1119 906 1312 657 
Q 1506 409 1894 409 
Q 2359 409 2629 706 
Q 2900 1003 2900 1516 
L 2900 3500 
L 3475 3500 
L 3475 0 
L 2900 0 
L 2900 538 
Q 2691 219 2414 64 
Q 2138 -91 1772 -91 
Q 1169 -91 856 284 
Q 544 659 544 1381 
z
M 1991 3584 
L 1991 3584 
z
" transform="scale(0.015625)"/>
     <path id="DejaVuSans-73" d="M 2834 3397 
L 2834 2853 
Q 2591 2978 2328 3040 
Q 2066 3103 1784 3103 
Q 1356 3103 1142 2972 
Q 928 2841 928 2578 
Q 928 2378 1081 2264 
Q 1234 2150 1697 2047 
L 1894 2003 
Q 2506 1872 2764 1633 
Q 3022 1394 3022 966 
Q 3022 478 2636 193 
Q 2250 -91 1575 -91 
Q 1294 -91 989 -36 
Q 684 19 347 128 
L 347 722 
Q 666 556 975 473 
Q 1284 391 1588 391 
Q 1994 391 2212 530 
Q 2431 669 2431 922 
Q 2431 1156 2273 1281 
Q 2116 1406 1581 1522 
L 1381 1569 
Q 847 1681 609 1914 
Q 372 2147 372 2553 
Q 372 3047 722 3315 
Q 1072 3584 1716 3584 
Q 2034 3584 2315 3537 
Q 2597 3491 2834 3397 
z
" transform="scale(0.015625)"/>
     <path id="DejaVuSans-3a" d="M 750 794 
L 1409 794 
L 1409 0 
L 750 0 
L 750 794 
z
M 750 3309 
L 1409 3309 
L 1409 2516 
L 750 2516 
L 750 3309 
z
" transform="scale(0.015625)"/>
    </defs>
    <use xlink:href="#DejaVuSans-Oblique-78" transform="translate(0 0.828125)"/>
    <use xlink:href="#DejaVuSans-20" transform="translate(59.179688 0.828125)"/>
    <use xlink:href="#DejaVuSans-61" transform="translate(90.966797 0.828125)"/>
    <use xlink:href="#DejaVuSans-6e" transform="translate(152.246094 0.828125)"/>
    <use xlink:href="#DejaVuSans-64" transform="translate(215.625 0.828125)"/>
    <use xlink:href="#DejaVuSans-20" transform="translate(279.101562 0.828125)"/>
    <use xlink:href="#DejaVuSans-302" transform="translate(373.261719 12.015625)"/>
    <use xlink:href="#DejaVuSans-Oblique-78" transform="translate(310.888672 0.828125)"/>
    <use xlink:href="#DejaVuSans-20" transform="translate(370.068359 0.828125)"/>
    <use xlink:href="#DejaVuSans-66" transform="translate(401.855469 0.828125)"/>
    <use xlink:href="#DejaVuSans-6f" transform="translate(437.060547 0.828125)"/>
    <use xlink:href="#DejaVuSans-72" transform="translate(498.242188 0.828125)"/>
    <use xlink:href="#DejaVuSans-20" transform="translate(539.355469 0.828125)"/>
    <use xlink:href="#DejaVuSans-72" transform="translate(571.142578 0.828125)"/>
    <use xlink:href="#DejaVuSans-61" transform="translate(612.255859 0.828125)"/>
    <use xlink:href="#DejaVuSans-64" transform="translate(673.535156 0.828125)"/>
    <use xlink:href="#DejaVuSans-69" transform="translate(737.011719 0.828125)"/>
    <use xlink:href="#DejaVuSans-75" transform="translate(764.794922 0.828125)"/>
    <use xlink:href="#DejaVuSans-73" transform="translate(828.173828 0.828125)"/>
    <use xlink:href="#DejaVuSans-3a" transform="translate(880.273438 0.828125)"/>
    <use xlink:href="#DejaVuSans-20" transform="translate(913.964844 0.828125)"/>
    <use xlink:href="#DejaVuSans-31" transform="translate(945.751953 0.828125)"/>
   </g>
  </g>
 </g>
 <defs>
  <clipPath id="p6fce903dcd">
   <rect x="44.845313" y="36" width="334.8" height="217.44"/>
  </clipPath>
 </defs>
</svg>
