<?xml version="1.0" encoding="utf-8" standalone="no"?>
<!DOCTYPE svg PUBLIC "-//W3C//DTD SVG 1.1//EN"
  "http://www.w3.org/Graphics/SVG/1.1/DTD/svg11.dtd">
<svg xmlns:xlink="http://www.w3.org/1999/xlink" width="386.845313pt" height="277.318125pt" viewBox="0 0 386.845313 277.318125" xmlns="http://www.w3.org/2000/svg" version="1.1">
 <metadata>
  <rdf:RDF xmlns:dc="http://purl.org/dc/elements/1.1/" xmlns:cc="http://creativecommons.org/ns#" xmlns:rdf="http://www.w3.org/1999/02/22-rdf-syntax-ns#">
   <cc:Work>
    <dc:type rdf:resource="http://purl.org/dc/dcmitype/StillImage"/>
    <dc:date>2022-11-11T13:28:07.145467</dc:date>
    <dc:format>image/svg+xml</dc:format>
    <dc:creator>
     <cc:Agent>
      <dc:title>Matplotlib v3.6.0, https://matplotlib.org/</dc:title>
     </cc:Agent>
    </dc:creator>
   </cc:Work>
  </rdf:RDF>
 </metadata>
 <defs>
  <style type="text/css">*{stroke-linejoin: round; stroke-linecap: butt}</style>
 </defs>
 <g id="figure_1">
  <g id="patch_1">
   <path d="M 0 277.318125 
L 386.845313 277.318125 
L 386.845313 0 
L 0 0 
L 0 277.318125 
z
" style="fill: none"/>
  </g>
  <g id="axes_1">
   <g id="patch_2">
    <path d="M 44.845313 253.44 
L 379.645313 253.44 
L 379.645313 36 
L 44.845313 36 
z
" style="fill: #ffffff"/>
   </g>
   <g id="matplotlib.axis_1">
    <g id="xtick_1">
     <g id="line2d_1">
      <defs>
       <path id="m3f79f57cc5" d="M 0 0 
L 0 3.5 
" style="stroke: #000000; stroke-width: 0.8"/>
      </defs>
      <g>
       <use xlink:href="#m3f79f57cc5" x="59.950669" y="253.44" style="stroke: #000000; stroke-width: 0.8"/>
      </g>
     </g>
     <g id="text_1">
      <!-- −1.00 -->
      <g transform="translate(44.628013 268.038437) scale(0.1 -0.1)">
       <defs>
        <path id="DejaVuSans-2212" d="M 678 2272 
L 4684 2272 
L 4684 1741 
L 678 1741 
L 678 2272 
z
" transform="scale(0.015625)"/>
        <path id="DejaVuSans-31" d="M 794 531 
L 1825 531 
L 1825 4091 
L 703 3866 
L 703 4441 
L 1819 4666 
L 2450 4666 
L 2450 531 
L 3481 531 
L 3481 0 
L 794 0 
L 794 531 
z
" transform="scale(0.015625)"/>
        <path id="DejaVuSans-2e" d="M 684 794 
L 1344 794 
L 1344 0 
L 684 0 
L 684 794 
z
" transform="scale(0.015625)"/>
        <path id="DejaVuSans-30" d="M 2034 4250 
Q 1547 4250 1301 3770 
Q 1056 3291 1056 2328 
Q 1056 1369 1301 889 
Q 1547 409 2034 409 
Q 2525 409 2770 889 
Q 3016 1369 3016 2328 
Q 3016 3291 2770 3770 
Q 2525 4250 2034 4250 
z
M 2034 4750 
Q 2819 4750 3233 4129 
Q 3647 3509 3647 2328 
Q 3647 1150 3233 529 
Q 2819 -91 2034 -91 
Q 1250 -91 836 529 
Q 422 1150 422 2328 
Q 422 3509 836 4129 
Q 1250 4750 2034 4750 
z
" transform="scale(0.015625)"/>
       </defs>
       <use xlink:href="#DejaVuSans-2212"/>
       <use xlink:href="#DejaVuSans-31" x="83.789062"/>
       <use xlink:href="#DejaVuSans-2e" x="147.412109"/>
       <use xlink:href="#DejaVuSans-30" x="179.199219"/>
       <use xlink:href="#DejaVuSans-30" x="242.822266"/>
      </g>
     </g>
    </g>
    <g id="xtick_2">
     <g id="line2d_2">
      <g>
       <use xlink:href="#m3f79f57cc5" x="98.032364" y="253.44" style="stroke: #000000; stroke-width: 0.8"/>
      </g>
     </g>
     <g id="text_2">
      <!-- −0.75 -->
      <g transform="translate(82.709708 268.038437) scale(0.1 -0.1)">
       <defs>
        <path id="DejaVuSans-37" d="M 525 4666 
L 3525 4666 
L 3525 4397 
L 1831 0 
L 1172 0 
L 2766 4134 
L 525 4134 
L 525 4666 
z
" transform="scale(0.015625)"/>
        <path id="DejaVuSans-35" d="M 691 4666 
L 3169 4666 
L 3169 4134 
L 1269 4134 
L 1269 2991 
Q 1406 3038 1543 3061 
Q 1681 3084 1819 3084 
Q 2600 3084 3056 2656 
Q 3513 2228 3513 1497 
Q 3513 744 3044 326 
Q 2575 -91 1722 -91 
Q 1428 -91 1123 -41 
Q 819 9 494 109 
L 494 744 
Q 775 591 1075 516 
Q 1375 441 1709 441 
Q 2250 441 2565 725 
Q 2881 1009 2881 1497 
Q 2881 1984 2565 2268 
Q 2250 2553 1709 2553 
Q 1456 2553 1204 2497 
Q 953 2441 691 2322 
L 691 4666 
z
" transform="scale(0.015625)"/>
       </defs>
       <use xlink:href="#DejaVuSans-2212"/>
       <use xlink:href="#DejaVuSans-30" x="83.789062"/>
       <use xlink:href="#DejaVuSans-2e" x="147.412109"/>
       <use xlink:href="#DejaVuSans-37" x="179.199219"/>
       <use xlink:href="#DejaVuSans-35" x="242.822266"/>
      </g>
     </g>
    </g>
    <g id="xtick_3">
     <g id="line2d_3">
      <g>
       <use xlink:href="#m3f79f57cc5" x="136.114059" y="253.44" style="stroke: #000000; stroke-width: 0.8"/>
      </g>
     </g>
     <g id="text_3">
      <!-- −0.50 -->
      <g transform="translate(120.791403 268.038437) scale(0.1 -0.1)">
       <use xlink:href="#DejaVuSans-2212"/>
       <use xlink:href="#DejaVuSans-30" x="83.789062"/>
       <use xlink:href="#DejaVuSans-2e" x="147.412109"/>
       <use xlink:href="#DejaVuSans-35" x="179.199219"/>
       <use xlink:href="#DejaVuSans-30" x="242.822266"/>
      </g>
     </g>
    </g>
    <g id="xtick_4">
     <g id="line2d_4">
      <g>
       <use xlink:href="#m3f79f57cc5" x="174.195754" y="253.44" style="stroke: #000000; stroke-width: 0.8"/>
      </g>
     </g>
     <g id="text_4">
      <!-- −0.25 -->
      <g transform="translate(158.873098 268.038437) scale(0.1 -0.1)">
       <defs>
        <path id="DejaVuSans-32" d="M 1228 531 
L 3431 531 
L 3431 0 
L 469 0 
L 469 531 
Q 828 903 1448 1529 
Q 2069 2156 2228 2338 
Q 2531 2678 2651 2914 
Q 2772 3150 2772 3378 
Q 2772 3750 2511 3984 
Q 2250 4219 1831 4219 
Q 1534 4219 1204 4116 
Q 875 4013 500 3803 
L 500 4441 
Q 881 4594 1212 4672 
Q 1544 4750 1819 4750 
Q 2544 4750 2975 4387 
Q 3406 4025 3406 3419 
Q 3406 3131 3298 2873 
Q 3191 2616 2906 2266 
Q 2828 2175 2409 1742 
Q 1991 1309 1228 531 
z
" transform="scale(0.015625)"/>
       </defs>
       <use xlink:href="#DejaVuSans-2212"/>
       <use xlink:href="#DejaVuSans-30" x="83.789062"/>
       <use xlink:href="#DejaVuSans-2e" x="147.412109"/>
       <use xlink:href="#DejaVuSans-32" x="179.199219"/>
       <use xlink:href="#DejaVuSans-35" x="242.822266"/>
      </g>
     </g>
    </g>
    <g id="xtick_5">
     <g id="line2d_5">
      <g>
       <use xlink:href="#m3f79f57cc5" x="212.277449" y="253.44" style="stroke: #000000; stroke-width: 0.8"/>
      </g>
     </g>
     <g id="text_5">
      <!-- 0.00 -->
      <g transform="translate(201.144637 268.038437) scale(0.1 -0.1)">
       <use xlink:href="#DejaVuSans-30"/>
       <use xlink:href="#DejaVuSans-2e" x="63.623047"/>
       <use xlink:href="#DejaVuSans-30" x="95.410156"/>
       <use xlink:href="#DejaVuSans-30" x="159.033203"/>
      </g>
     </g>
    </g>
    <g id="xtick_6">
     <g id="line2d_6">
      <g>
       <use xlink:href="#m3f79f57cc5" x="250.359144" y="253.44" style="stroke: #000000; stroke-width: 0.8"/>
      </g>
     </g>
     <g id="text_6">
      <!-- 0.25 -->
      <g transform="translate(239.226332 268.038437) scale(0.1 -0.1)">
       <use xlink:href="#DejaVuSans-30"/>
       <use xlink:href="#DejaVuSans-2e" x="63.623047"/>
       <use xlink:href="#DejaVuSans-32" x="95.410156"/>
       <use xlink:href="#DejaVuSans-35" x="159.033203"/>
      </g>
     </g>
    </g>
    <g id="xtick_7">
     <g id="line2d_7">
      <g>
       <use xlink:href="#m3f79f57cc5" x="288.440839" y="253.44" style="stroke: #000000; stroke-width: 0.8"/>
      </g>
     </g>
     <g id="text_7">
      <!-- 0.50 -->
      <g transform="translate(277.308027 268.038437) scale(0.1 -0.1)">
       <use xlink:href="#DejaVuSans-30"/>
       <use xlink:href="#DejaVuSans-2e" x="63.623047"/>
       <use xlink:href="#DejaVuSans-35" x="95.410156"/>
       <use xlink:href="#DejaVuSans-30" x="159.033203"/>
      </g>
     </g>
    </g>
    <g id="xtick_8">
     <g id="line2d_8">
      <g>
       <use xlink:href="#m3f79f57cc5" x="326.522534" y="253.44" style="stroke: #000000; stroke-width: 0.8"/>
      </g>
     </g>
     <g id="text_8">
      <!-- 0.75 -->
      <g transform="translate(315.389722 268.038437) scale(0.1 -0.1)">
       <use xlink:href="#DejaVuSans-30"/>
       <use xlink:href="#DejaVuSans-2e" x="63.623047"/>
       <use xlink:href="#DejaVuSans-37" x="95.410156"/>
       <use xlink:href="#DejaVuSans-35" x="159.033203"/>
      </g>
     </g>
    </g>
    <g id="xtick_9">
     <g id="line2d_9">
      <g>
       <use xlink:href="#m3f79f57cc5" x="364.604229" y="253.44" style="stroke: #000000; stroke-width: 0.8"/>
      </g>
     </g>
     <g id="text_9">
      <!-- 1.00 -->
      <g transform="translate(353.471417 268.038437) scale(0.1 -0.1)">
       <use xlink:href="#DejaVuSans-31"/>
       <use xlink:href="#DejaVuSans-2e" x="63.623047"/>
       <use xlink:href="#DejaVuSans-30" x="95.410156"/>
       <use xlink:href="#DejaVuSans-30" x="159.033203"/>
      </g>
     </g>
    </g>
   </g>
   <g id="matplotlib.axis_2">
    <g id="ytick_1">
     <g id="line2d_10">
      <defs>
       <path id="m113daa960a" d="M 0 0 
L -3.5 0 
" style="stroke: #000000; stroke-width: 0.8"/>
      </defs>
      <g>
       <use xlink:href="#m113daa960a" x="44.845313" y="244.574257" style="stroke: #000000; stroke-width: 0.8"/>
      </g>
     </g>
     <g id="text_10">
      <!-- −1.00 -->
      <g transform="translate(7.2 248.373476) scale(0.1 -0.1)">
       <use xlink:href="#DejaVuSans-2212"/>
       <use xlink:href="#DejaVuSans-31" x="83.789062"/>
       <use xlink:href="#DejaVuSans-2e" x="147.412109"/>
       <use xlink:href="#DejaVuSans-30" x="179.199219"/>
       <use xlink:href="#DejaVuSans-30" x="242.822266"/>
      </g>
     </g>
    </g>
    <g id="ytick_2">
     <g id="line2d_11">
      <g>
       <use xlink:href="#m113daa960a" x="44.845313" y="219.599623" style="stroke: #000000; stroke-width: 0.8"/>
      </g>
     </g>
     <g id="text_11">
      <!-- −0.75 -->
      <g transform="translate(7.2 223.398842) scale(0.1 -0.1)">
       <use xlink:href="#DejaVuSans-2212"/>
       <use xlink:href="#DejaVuSans-30" x="83.789062"/>
       <use xlink:href="#DejaVuSans-2e" x="147.412109"/>
       <use xlink:href="#DejaVuSans-37" x="179.199219"/>
       <use xlink:href="#DejaVuSans-35" x="242.822266"/>
      </g>
     </g>
    </g>
    <g id="ytick_3">
     <g id="line2d_12">
      <g>
       <use xlink:href="#m113daa960a" x="44.845313" y="194.62499" style="stroke: #000000; stroke-width: 0.8"/>
      </g>
     </g>
     <g id="text_12">
      <!-- −0.50 -->
      <g transform="translate(7.2 198.424208) scale(0.1 -0.1)">
       <use xlink:href="#DejaVuSans-2212"/>
       <use xlink:href="#DejaVuSans-30" x="83.789062"/>
       <use xlink:href="#DejaVuSans-2e" x="147.412109"/>
       <use xlink:href="#DejaVuSans-35" x="179.199219"/>
       <use xlink:href="#DejaVuSans-30" x="242.822266"/>
      </g>
     </g>
    </g>
    <g id="ytick_4">
     <g id="line2d_13">
      <g>
       <use xlink:href="#m113daa960a" x="44.845313" y="169.650356" style="stroke: #000000; stroke-width: 0.8"/>
      </g>
     </g>
     <g id="text_13">
      <!-- −0.25 -->
      <g transform="translate(7.2 173.449575) scale(0.1 -0.1)">
       <use xlink:href="#DejaVuSans-2212"/>
       <use xlink:href="#DejaVuSans-30" x="83.789062"/>
       <use xlink:href="#DejaVuSans-2e" x="147.412109"/>
       <use xlink:href="#DejaVuSans-32" x="179.199219"/>
       <use xlink:href="#DejaVuSans-35" x="242.822266"/>
      </g>
     </g>
    </g>
    <g id="ytick_5">
     <g id="line2d_14">
      <g>
       <use xlink:href="#m113daa960a" x="44.845313" y="144.675722" style="stroke: #000000; stroke-width: 0.8"/>
      </g>
     </g>
     <g id="text_14">
      <!-- 0.00 -->
      <g transform="translate(15.579688 148.474941) scale(0.1 -0.1)">
       <use xlink:href="#DejaVuSans-30"/>
       <use xlink:href="#DejaVuSans-2e" x="63.623047"/>
       <use xlink:href="#DejaVuSans-30" x="95.410156"/>
       <use xlink:href="#DejaVuSans-30" x="159.033203"/>
      </g>
     </g>
    </g>
    <g id="ytick_6">
     <g id="line2d_15">
      <g>
       <use xlink:href="#m113daa960a" x="44.845313" y="119.701089" style="stroke: #000000; stroke-width: 0.8"/>
      </g>
     </g>
     <g id="text_15">
      <!-- 0.25 -->
      <g transform="translate(15.579688 123.500307) scale(0.1 -0.1)">
       <use xlink:href="#DejaVuSans-30"/>
       <use xlink:href="#DejaVuSans-2e" x="63.623047"/>
       <use xlink:href="#DejaVuSans-32" x="95.410156"/>
       <use xlink:href="#DejaVuSans-35" x="159.033203"/>
      </g>
     </g>
    </g>
    <g id="ytick_7">
     <g id="line2d_16">
      <g>
       <use xlink:href="#m113daa960a" x="44.845313" y="94.726455" style="stroke: #000000; stroke-width: 0.8"/>
      </g>
     </g>
     <g id="text_16">
      <!-- 0.50 -->
      <g transform="translate(15.579688 98.525674) scale(0.1 -0.1)">
       <use xlink:href="#DejaVuSans-30"/>
       <use xlink:href="#DejaVuSans-2e" x="63.623047"/>
       <use xlink:href="#DejaVuSans-35" x="95.410156"/>
       <use xlink:href="#DejaVuSans-30" x="159.033203"/>
      </g>
     </g>
    </g>
    <g id="ytick_8">
     <g id="line2d_17">
      <g>
       <use xlink:href="#m113daa960a" x="44.845313" y="69.751821" style="stroke: #000000; stroke-width: 0.8"/>
      </g>
     </g>
     <g id="text_17">
      <!-- 0.75 -->
      <g transform="translate(15.579688 73.55104) scale(0.1 -0.1)">
       <use xlink:href="#DejaVuSans-30"/>
       <use xlink:href="#DejaVuSans-2e" x="63.623047"/>
       <use xlink:href="#DejaVuSans-37" x="95.410156"/>
       <use xlink:href="#DejaVuSans-35" x="159.033203"/>
      </g>
     </g>
    </g>
    <g id="ytick_9">
     <g id="line2d_18">
      <g>
       <use xlink:href="#m113daa960a" x="44.845313" y="44.777188" style="stroke: #000000; stroke-width: 0.8"/>
      </g>
     </g>
     <g id="text_18">
      <!-- 1.00 -->
      <g transform="translate(15.579688 48.576407) scale(0.1 -0.1)">
       <use xlink:href="#DejaVuSans-31"/>
       <use xlink:href="#DejaVuSans-2e" x="63.623047"/>
       <use xlink:href="#DejaVuSans-30" x="95.410156"/>
       <use xlink:href="#DejaVuSans-30" x="159.033203"/>
      </g>
     </g>
    </g>
   </g>
   <g id="line2d_19">
    <path d="M 334.774184 64.570909 
L 101.496378 217.099812 
L 282.779977 98.403259 
L 208.734432 146.489433 
L 241.347092 125.958636 
L 162.42709 178.015979 
L 89.310236 224.989361 
L 147.80372 187.12436 
L 214.131374 143.103383 
L 347.366531 55.894625 
L 281.561362 99.394942 
L 156.740224 181.632982 
L 293.3413 91.502338 
L 225.505107 135.96032 
L 321.775632 73.102424 
L 183.549737 162.921587 
L 207.109613 147.559647 
L 105.152221 214.481886 
L 178.269076 166.697154 
L 75.905479 234.105372 
L 232.816793 131.363085 
L 346.554122 56.48376 
L 292.122686 92.254659 
L 329.899727 67.862977 
L 201.016541 151.796737 
L 167.301547 174.852732 
L 250.689802 119.119874 
L 115.713545 208.08368 
L 116.932159 207.242326 
L 353.053398 52.40778 
L 222.661674 137.801696 
L 123.83764 202.506997 
L 341.679665 59.960068 
L 339.242436 61.591247 
L 314.463947 77.906812 
L 180.706304 165.053766 
L 152.271972 184.223147 
L 317.713585 75.688882 
L 138.46101 193.556087 
L 133.992758 196.341206 
L 155.927815 182.108227 
L 103.121197 216.126973 
L 75.499275 234.360785 
L 258.813897 113.834704 
L 90.122646 224.430694 
L 158.771248 180.430792 
L 236.066431 129.222187 
L 82.404755 229.684069 
L 89.716441 224.712974 
L 133.180349 196.798207 
L 170.144981 172.711504 
L 355.896831 50.728843 
L 258.001487 114.24222 
L 192.486242 157.660602 
L 220.63065 139.085316 
L 122.619025 203.413926 
L 244.190526 123.757595 
L 287.654434 95.455297 
L 100.683969 217.576567 
L 331.524546 66.74171 
L 154.302996 183.052152 
L 270.187629 106.43717 
L 352.240988 52.894188 
L 269.781425 106.7576 
L 177.862871 166.968963 
L 171.363595 171.63452 
L 273.437267 104.506282 
L 88.091622 225.799166 
L 126.681073 200.633936 
L 60.063494 243.556364 
L 202.235156 151.050905 
L 110.026678 211.639138 
L 328.681113 68.581011 
L 137.648601 194.040169 
L 353.865807 51.924646 
L 151.865767 184.456488 
L 193.298651 157.26198 
L 120.994206 204.520898 
L 179.48769 165.881275 
L 185.174556 161.504631 
L 277.499315 102.252934 
L 327.056294 69.540565 
L 157.958838 180.914595 
L 181.112509 164.771504 
L 265.719377 109.798888 
L 65.750361 240.280502 
L 359.552674 48.478989 
L 273.843472 104.277584 
L 244.59673 123.504942 
L 252.720825 117.737992 
L 248.252573 121.070789 
L 298.215757 88.636919 
L 344.523098 57.844589 
L 251.502211 118.472677 
L 225.911312 135.715789 
L 337.211413 62.957069 
L 303.902623 85.035366 
L 92.153669 223.015545 
L 127.899687 199.905307 
L 279.936543 100.438199 
L 190.455218 158.655629 
L 109.214269 212.136001 
L 140.492034 192.199258 
L 345.335508 57.301057 
L 200.204132 152.312763 
L 185.986966 161.059099 
L 110.839088 211.152295 
L 275.468291 103.372425 
L 60.875904 243.133465 
L 236.472636 128.990353 
L 168.926366 173.540291 
L 305.527442 83.804719 
L 118.556978 206.07521 
L 215.756193 142.098937 
L 64.937951 240.971894 
L 322.588042 72.596707 
L 69.406203 238.079751 
L 97.434331 219.517757 
L 164.864319 176.411076 
L 132.774144 197.026273 
L 201.828951 151.297007 
L 290.091662 93.735235 
L 62.906928 242.062724 
L 176.238052 168.088786 
L 144.960286 188.893808 
L 271.406244 105.677395 
L 73.874456 235.371903 
L 91.34126 223.49928 
L 359.146469 48.700428 
L 245.002935 123.252529 
L 348.99135 54.877323 
L 190.049013 158.854506 
L 317.30738 76.040485 
L 310.808104 80.182169 
L 161.614681 178.643304 
L 195.329675 155.929942 
L 319.744609 74.373037 
L 199.797927 152.582551 
L 143.335467 189.941482 
L 167.707752 174.616559 
L 175.019438 169.121437 
L 186.393171 160.767528 
L 153.896791 183.287026 
L 192.892446 157.461354 
L 136.023782 195.008812 
L 153.084381 183.755698 
L 277.09311 102.476339 
L 255.970463 115.521279 
L 344.929303 57.572182 
L 360.771288 47.819577 
L 104.746016 214.712626 
L 84.841984 227.880303 
L 300.652985 87.250166 
L 231.598179 132.099658 
L 97.840536 219.292935 
L 349.80376 54.375469 
L 285.217205 96.787614 
L 212.91276 143.859242 
L 327.462499 69.299748 
L 68.187589 238.805857 
L 70.624818 237.349958 
L 79.967527 231.348796 
L 155.115405 182.581156 
L 142.929263 190.311171 
L 166.489138 175.414724 
L 272.624858 104.968001 
L 187.20558 160.247133 
L 83.62337 228.814942 
L 169.332571 173.260557 
L 290.904072 93.051163 
L 226.317517 135.47092 
L 110.432883 211.397097 
L 330.305932 67.620947 
L 228.754745 133.991112 
L 292.528891 92.000937 
L 131.149325 197.936155 
L 322.994247 72.343395 
L 271.000039 105.921529 
L 305.121238 84.090131 
L 213.318965 143.60697 
L 354.678217 51.444478 
L 104.339812 214.949376 
L 114.088726 209.261862 
L 103.933607 215.414226 
L 165.676728 175.915515 
L 108.808064 212.458037 
L 216.974808 141.34686 
L 84.435779 228.134621 
L 289.279253 94.314488 
L 198.579313 153.889166 
L 155.52161 182.344955 
L 362.396107 46.951504 
L 307.558466 82.407576 
L 301.05919 87.021048 
L 283.592386 97.925981 
L 307.152261 82.686196 
L 179.081485 166.153796 
L 329.087318 68.342032 
L 245.40914 123.000026 
L 336.399003 63.485331 
L 267.750401 108.280921 
L 62.500723 242.278446 
L 219.412036 139.841541 
L 237.285045 128.525501 
L 346.147917 56.759512 
L 207.515817 147.284402 
L 288.873048 94.701627 
L 239.722273 127.000795 
L 68.999999 238.322047 
L 170.95739 171.994099 
L 175.425642 168.704679 
L 141.304444 191.568796 
L 361.583697 47.383975 
L 233.629202 130.858769 
L 204.266179 149.602944 
L 151.053358 184.922554 
L 304.715033 84.380807 
L 193.704856 156.933512 
L 64.125542 241.410705 
L 327.868703 69.059667 
L 159.989862 179.693739 
L 211.17166 144.945544 
L 227.942336 134.486955 
L 126.274868 200.874291 
L 183.955942 162.485683 
L 216.568603 141.597502 
L 213.72517 143.355031 
L 93.372284 222.275103 
L 210.359251 145.456212 
L 140.898239 191.939621 
L 254.345644 116.690072 
L 232.004383 131.855669 
L 313.245333 78.660763 
L 70.218613 237.59379 
L 82.81096 229.398928 
L 351.428579 53.384122 
L 231.191974 132.453274 
L 148.209924 186.870042 
L 194.111061 156.702297 
L 172.582209 170.724096 
L 262.469739 111.681008 
L 188.017989 159.849018 
L 257.189078 114.845535 
L 281.155158 99.658374 
L 76.717889 233.498205 
L 310.401899 80.438164 
L 284.811 97.162106 
L 333.149365 65.771132 
L 220.224446 139.337888 
L 358.334059 49.298254 
L 109.620473 211.882243 
L 354.272012 51.684214 
L 346.960327 56.152009 
L 331.930751 66.494067 
L 118.963183 205.815874 
L 164.458114 176.663851 
L 147.397515 187.377693 
L 176.644257 167.794771 
L 340.461051 60.769743 
L 286.029615 96.351594 
L 226.723722 135.225665 
L 265.313173 110.188761 
L 98.24674 219.067522 
L 107.58945 213.131212 
L 108.401859 212.682881 
L 305.933647 83.522621 
L 338.430027 62.17471 
L 64.531747 241.191719 
L 229.567155 133.49108 
L 249.064983 120.507079 
L 324.619066 71.287031 
L 227.536131 134.733758 
L 99.05915 218.557571 
L 311.214309 79.926953 
L 344.116893 58.118923 
L 205.484794 148.732056 
L 180.300099 165.331982 
L 259.626306 113.421356 
L 75.09307 234.615115 
L 78.748913 232.160888 
L 321.369428 73.355423 
L 144.147877 189.406094 
L 240.534683 126.470203 
L 119.369387 205.558151 
L 170.551185 172.435915 
L 214.537579 142.851987 
L 300.246781 87.479808 
L 196.142084 155.477608 
L 362.802312 46.736424 
L 86.873008 226.59043 
L 106.370835 213.803327 
L 320.963223 73.608796 
L 162.020886 178.269538 
L 262.875944 111.470942 
L 234.035407 130.593622 
L 87.685417 226.064631 
L 235.254021 129.684827 
L 261.251125 112.389718 
L 218.599627 140.343904 
L 302.277804 86.336558 
L 264.500763 110.637905 
L 261.65733 112.200182 
L 173.800823 169.867966 
L 285.62341 96.569796 
L 330.712137 67.370797 
L 66.156566 240.025323 
L 144.554082 189.148807 
L 86.466803 226.851044 
L 296.590938 89.575355 
L 66.56277 239.777556 
L 253.533235 117.158956 
L 125.056254 201.715177 
L 203.859975 149.864764 
L 268.156606 108.056444 
L 234.847817 129.915687 
L 279.124134 100.960173 
L 258.407692 114.039002 
L 357.927855 49.539705 
L 345.741712 57.030552 
L 178.67528 166.4256 
L 286.842024 95.911992 
L 96.621922 219.965936 
L 188.830399 159.451134 
L 136.429987 194.765907 
L 129.930711 198.616698 
L 206.703408 147.939894 
L 114.901135 208.581709 
L 364.427131 45.883636 
L 263.688354 111.056177 
L 187.611785 160.04804 
L 120.588002 204.783998 
L 272.218653 105.201676 
L 324.212861 71.571853 
L 219.005831 140.092843 
L 235.660226 129.453668 
L 335.180389 64.293764 
L 66.968975 239.532954 
L 192.080037 157.859746 
L 138.054806 193.798282 
L 275.874496 103.147831 
L 123.431435 202.770475 
L 61.688313 242.707513 
L 342.08587 59.685515 
L 361.989902 47.167352 
L 325.431475 70.627061 
L 299.434371 87.940781 
L 260.032511 113.210882 
L 142.523058 190.556031 
L 364.020926 46.095717 
L 168.113957 174.258789 
L 211.577865 144.691242 
L 338.836232 61.915963 
L 351.834784 53.1387 
L 139.27342 193.070106 
L 166.895343 175.088528 
L 315.682561 77.153738 
L 184.362147 162.084433 
L 209.953046 145.712789 
L 105.964631 214.028223 
L 322.181837 72.849602 
L 312.839128 78.912861 
L 79.155117 231.89136 
L 328.274908 68.820149 
L 264.906968 110.422522 
L 241.753297 125.70241 
L 297.809552 88.870348 
L 207.922022 147.016129 
L 208.328227 146.751543 
L 256.782873 115.076629 
L 223.067879 137.523511 
L 181.518714 164.482134 
L 238.503659 127.824648 
L 156.334019 181.870922 
L 88.904031 225.261958 
L 149.428539 186.094427 
L 267.344196 108.50619 
L 162.833295 177.721168 
L 279.530339 100.69833 
L 189.236604 159.252244 
L 134.398963 196.112225 
L 125.868663 201.114257 
L 268.969015 107.595725 
L 65.344156 240.630405 
L 238.909864 127.589864 
L 177.050461 167.516245 
L 335.586594 64.021388 
L 140.085829 192.45992 
L 111.651497 210.567426 
L 172.988414 170.368454 
L 217.787217 140.845542 
L 269.37522 107.242121 
L 77.124094 233.230909 
L 230.379564 132.983735 
L 69.812408 237.837029 
L 198.985518 153.489471 
L 72.655841 236.120004 
L 117.338364 206.995433 
L 291.310276 92.776549 
L 115.30734 208.329437 
L 142.116853 190.977592 
L 175.831847 168.421995 
L 246.627754 122.239224 
L 133.586553 196.569858 
L 253.93944 116.925694 
L 97.028126 219.742061 
L 287.248229 95.688148 
L 116.119749 207.746623 
L 92.559874 222.771139 
L 308.77708 81.471089 
L 278.717929 101.225205 
L 237.69125 128.292407 
L 247.440164 121.726352 
L 130.74312 198.163141 
L 169.738776 172.985462 
L 250.283597 119.378053 
L 71.437227 236.860279 
L 338.023822 62.434385 
L 94.997103 221.070489 
L 256.376668 115.300792 
L 289.685457 93.992817 
L 348.585146 55.129897 
L 306.746057 82.964186 
L 206.297203 148.199146 
L 99.871559 218.052636 
L 329.493522 68.102882 
L 318.11979 75.414327 
L 80.373732 231.075543 
L 262.063535 111.900453 
L 123.02523 203.047305 
L 319.338404 74.629913 
L 253.12703 117.390473 
L 251.096006 118.848696 
L 355.490626 50.966869 
L 107.995654 212.907205 
L 173.394619 170.117768 
L 236.87884 128.758137 
L 146.99131 187.630389 
L 186.799375 160.547971 
L 302.684009 85.9523 
L 357.52165 49.778558 
L 182.331123 163.802015 
L 294.966119 90.528514 
L 163.645705 177.269499 
L 290.497867 93.363231 
L 67.37518 239.28994 
L 247.846368 121.352818 
L 128.305892 199.654988 
L 197.360699 154.603089 
L 98.652945 218.841448 
L 278.311724 101.496282 
L 217.381012 141.09622 
L 63.719337 241.628862 
L 182.737328 163.522741 
L 301.8716 86.564273 
L 80.779936 230.800824 
L 356.70924 50.253779 
L 203.45377 150.134194 
L 326.243885 70.119369 
L 99.465355 218.293414 
L 139.679625 192.728087 
L 131.961734 197.481647 
L 96.215717 220.280032 
L 101.902583 216.859893 
L 113.276316 209.697226 
L 135.211372 195.500553 
L 196.954494 154.844926 
L 61.282109 242.920875 
L 246.221549 122.493645 
L 205.078589 149.090439 
L 112.057702 210.349719 
L 240.128478 126.729312 
L 214.943784 142.600804 
L 153.490586 183.52153 
L 67.781385 239.047727 
L 251.908416 118.232542 
L 259.220101 113.628995 
L 273.031063 104.736328 
L 341.27346 60.230618 
L 339.648641 61.31332 
L 141.710648 191.272367 
L 146.178901 188.134959 
L 68.593794 238.564032 
L 333.55557 65.486806 
L 160.802271 179.188586 
L 260.438716 112.995681 
L 308.370876 81.820343 
L 288.466843 94.903323 
L 210.765455 145.200503 
L 166.082933 175.667254 
L 288.060638 95.105517 
L 304.308828 84.68158 
L 85.248189 227.624838 
L 314.057742 78.157827 
L 223.474084 137.179216 
L 309.995695 80.694993 
L 87.279212 226.328333 
L 174.613233 169.369993 
L 355.084422 51.205386 
L 149.834743 185.825084 
L 333.961775 65.229629 
L 137.242396 194.281922 
L 323.806656 71.832836 
L 77.936503 232.69708 
L 363.614721 46.308537 
L 194.92347 156.169028 
L 205.890998 148.46199 
L 337.617617 62.695123 
L 151.459562 184.689614 
L 363.208516 46.522104 
L 81.186141 230.524512 
L 295.778529 90.049822 
L 233.222998 131.113179 
L 60.469699 243.345292 
L 172.176004 170.996535 
L 90.935055 223.73903 
L 62.094518 242.493373 
L 239.316069 127.354379 
L 315.276356 77.405006 
L 215.349989 142.349799 
L 129.524506 198.843322 
L 106.77704 213.579052 
L 196.548289 155.095032 
L 183.143533 163.233484 
L 296.184733 89.812101 
L 157.146429 181.394337 
L 71.031022 237.105473 
L 185.580761 161.284519 
L 136.836191 194.523745 
L 163.2395 177.495693 
L 131.55553 197.708998 
L 291.716481 92.512565 
L 129.118301 199.069881 
L 130.336915 198.38998 
L 159.583657 179.941394 
L 138.867215 193.31342 
L 116.525954 207.491751 
L 325.02527 70.887076 
L 184.768352 161.722207 
L 203.047565 150.432134 
L 157.552633 181.154908 
L 135.617577 195.25317 
L 74.686865 234.868393 
L 171.7698 171.266862 
L 177.456666 167.241666 
L 145.772696 188.387342 
L 165.270524 176.162785 
L 232.410588 131.610302 
L 160.396067 179.443248 
L 350.209965 54.12613 
L 95.809512 220.561123 
L 121.806616 203.89404 
L 101.090174 217.338559 
L 307.964671 82.125659 
L 81.592346 230.246443 
L 316.901175 76.387726 
L 277.90552 101.781855 
L 200.610337 152.051963 
L 242.159502 125.337059 
L 227.129926 134.979966 
L 73.468251 235.622195 
L 275.062086 103.597573 
L 121.400411 204.245377 
L 211.98407 144.437516 
L 340.054846 61.040441 
L 294.15371 91.01226 
L 118.150773 206.338098 
L 316.494971 76.647517 
L 146.585105 187.882726 
L 103.527402 215.873675 
L 150.647153 185.155339 
L 90.52885 224.135494 
L 154.7092 182.816874 
L 83.217165 229.110001 
L 199.391722 152.958375 
L 335.992798 63.752173 
L 325.83768 70.372719 
L 71.843432 236.614331 
L 212.506555 144.111895 
L 209.140636 146.229174 
L 86.060598 227.110268 
L 255.158054 116.206729 
L 216.162398 141.848182 
L 191.267627 158.257793 
L 81.998551 229.966401 
L 224.286493 136.692281 
L 194.517265 156.482297 
L 283.998591 97.683543 
L 73.062046 235.871551 
L 221.849265 138.322058 
L 93.778488 221.947701 
L 260.84492 112.770024 
L 254.751849 116.451074 
L 303.090214 85.663114 
L 225.098903 136.204555 
L 292.935095 91.750374 
L 274.655882 103.823393 
L 323.400451 72.089119 
L 95.403307 220.818468 
L 334.367979 64.85748 
L 351.022374 53.630483 
L 179.893895 165.607538 
L 359.958878 48.258373 
L 191.673832 158.058804 
L 271.812448 105.437877 
L 113.682521 209.479627 
L 94.184693 221.650024 
L 72.249637 236.367585 
L 202.64136 150.806669 
L 357.115445 50.016355 
L 252.314621 117.989019 
L 148.616129 186.614252 
L 332.74316 66.010165 
L 332.336956 66.250896 
L 248.658778 120.790488 
L 88.497827 225.531718 
L 149.022334 186.356211 
L 102.714993 216.374388 
L 358.740264 49.048644 
L 222.255469 138.064086 
L 276.280701 102.923686 
L 356.303036 50.491198 
L 201.422746 151.545409 
L 293.747505 91.256401 
L 63.313132 241.846199 
L 79.561322 231.6207 
L 111.245292 210.89494 
L 274.249677 104.050014 
L 320.150813 74.117403 
L 84.029574 228.503714 
L 296.997143 89.339519 
L 164.051909 176.947474 
L 221.44306 138.577755 
L 74.28066 235.120646 
L 342.898279 58.979437 
L 159.177452 180.186931 
L 102.308788 216.618313 
L 168.520162 173.834154 
L 240.940888 126.214102 
L 150.240948 185.52466 
L 348.178941 55.383613 
L 340.867255 60.500099 
L 343.304484 58.678533 
L 361.177493 47.601381 
L 299.028166 88.172171 
L 190.861423 158.45673 
L 221.036855 138.832026 
L 312.432923 79.165472 
L 342.492074 59.376233 
L 303.496419 85.393754 
L 189.642808 159.053373 
L 360.365083 48.038572 
L 188.424194 159.650054 
L 105.558426 214.254178 
L 320.557018 73.862728 
L 119.775592 205.300928 
L 128.712096 199.373281 
L 349.397555 54.625857 
L 161.208476 178.926627 
L 238.097454 128.058807 
L 114.49493 208.854763 
L 264.094558 110.848183 
L 92.966079 222.524561 
L 100.277764 217.814331 
L 249.877392 119.902502 
L 257.595282 114.59044 
L 124.650049 201.98396 
L 152.678177 183.98956 
L 352.647193 52.650558 
L 316.088766 76.901616 
L 132.367939 197.254079 
L 234.441612 130.242704 
L 195.73588 155.701857 
L 326.650089 69.863629 
L 181.924918 164.168935 
L 314.870152 77.655933 
L 347.772736 55.638509 
L 266.125582 109.352152 
L 204.672384 149.34529 
L 301.465395 86.792427 
L 197.766903 154.364583 
L 255.564259 115.951741 
L 76.311684 233.768419 
L 120.181797 205.043266 
L 318.932199 74.88845 
L 158.365043 180.673276 
L 91.747465 223.258176 
L 243.784321 124.090287 
L 353.459603 52.165821 
L 94.590898 221.320762 
L 127.087278 200.392796 
L 350.616169 53.87781 
L 298.621962 88.404206 
L 263.282149 111.263336 
L 242.565707 125.024303 
L 343.710689 58.39615 
L 282.373772 98.841715 
L 270.593834 106.172754 
L 209.546841 145.970379 
L 78.342708 232.429409 
L 336.805208 63.220398 
L 218.193422 140.594786 
L 134.805168 195.756605 
L 318.525994 75.149384 
L 318.525994 75.149384 
" clip-path="url(#p41a487b922)" style="fill: none; stroke: #1f77b4; stroke-width: 1.5; stroke-linecap: square"/>
   </g>
   <g id="patch_3">
    <path d="M 44.845313 253.44 
L 44.845313 36 
" style="fill: none; stroke: #000000; stroke-width: 0.8; stroke-linejoin: miter; stroke-linecap: square"/>
   </g>
   <g id="patch_4">
    <path d="M 379.645313 253.44 
L 379.645313 36 
" style="fill: none; stroke: #000000; stroke-width: 0.8; stroke-linejoin: miter; stroke-linecap: square"/>
   </g>
   <g id="patch_5">
    <path d="M 44.845313 253.44 
L 379.645313 253.44 
" style="fill: none; stroke: #000000; stroke-width: 0.8; stroke-linejoin: miter; stroke-linecap: square"/>
   </g>
   <g id="patch_6">
    <path d="M 44.845313 36 
L 379.645313 36 
" style="fill: none; stroke: #000000; stroke-width: 0.8; stroke-linejoin: miter; stroke-linecap: square"/>
   </g>
  </g>
  <g id="text_19">
   <!-- $x$ and $\hat{x}$ -->
   <g transform="translate(184.585313 16.318125) scale(0.12 -0.12)">
    <defs>
     <path id="DejaVuSans-Oblique-78" d="M 3841 3500 
L 2234 1784 
L 3219 0 
L 2559 0 
L 1819 1388 
L 531 0 
L -166 0 
L 1556 1844 
L 641 3500 
L 1300 3500 
L 1972 2234 
L 3144 3500 
L 3841 3500 
z
" transform="scale(0.015625)"/>
     <path id="DejaVuSans-20" transform="scale(0.015625)"/>
     <path id="DejaVuSans-61" d="M 2194 1759 
Q 1497 1759 1228 1600 
Q 959 1441 959 1056 
Q 959 750 1161 570 
Q 1363 391 1709 391 
Q 2188 391 2477 730 
Q 2766 1069 2766 1631 
L 2766 1759 
L 2194 1759 
z
M 3341 1997 
L 3341 0 
L 2766 0 
L 2766 531 
Q 2569 213 2275 61 
Q 1981 -91 1556 -91 
Q 1019 -91 701 211 
Q 384 513 384 1019 
Q 384 1609 779 1909 
Q 1175 2209 1959 2209 
L 2766 2209 
L 2766 2266 
Q 2766 2663 2505 2880 
Q 2244 3097 1772 3097 
Q 1472 3097 1187 3025 
Q 903 2953 641 2809 
L 641 3341 
Q 956 3463 1253 3523 
Q 1550 3584 1831 3584 
Q 2591 3584 2966 3190 
Q 3341 2797 3341 1997 
z
" transform="scale(0.015625)"/>
     <path id="DejaVuSans-6e" d="M 3513 2113 
L 3513 0 
L 2938 0 
L 2938 2094 
Q 2938 2591 2744 2837 
Q 2550 3084 2163 3084 
Q 1697 3084 1428 2787 
Q 1159 2491 1159 1978 
L 1159 0 
L 581 0 
L 581 3500 
L 1159 3500 
L 1159 2956 
Q 1366 3272 1645 3428 
Q 1925 3584 2291 3584 
Q 2894 3584 3203 3211 
Q 3513 2838 3513 2113 
z
" transform="scale(0.015625)"/>
     <path id="DejaVuSans-64" d="M 2906 2969 
L 2906 4863 
L 3481 4863 
L 3481 0 
L 2906 0 
L 2906 525 
Q 2725 213 2448 61 
Q 2172 -91 1784 -91 
Q 1150 -91 751 415 
Q 353 922 353 1747 
Q 353 2572 751 3078 
Q 1150 3584 1784 3584 
Q 2172 3584 2448 3432 
Q 2725 3281 2906 2969 
z
M 947 1747 
Q 947 1113 1208 752 
Q 1469 391 1925 391 
Q 2381 391 2643 752 
Q 2906 1113 2906 1747 
Q 2906 2381 2643 2742 
Q 2381 3103 1925 3103 
Q 1469 3103 1208 2742 
Q 947 2381 947 1747 
z
" transform="scale(0.015625)"/>
     <path id="DejaVuSans-302" d="M -1831 5119 
L -1369 5119 
L -603 3944 
L -1038 3944 
L -1600 4709 
L -2163 3944 
L -2597 3944 
L -1831 5119 
z
M -1600 3584 
L -1600 3584 
z
" transform="scale(0.015625)"/>
    </defs>
    <use xlink:href="#DejaVuSans-Oblique-78" transform="translate(0 0.828125)"/>
    <use xlink:href="#DejaVuSans-20" transform="translate(59.179688 0.828125)"/>
    <use xlink:href="#DejaVuSans-61" transform="translate(90.966797 0.828125)"/>
    <use xlink:href="#DejaVuSans-6e" transform="translate(152.246094 0.828125)"/>
    <use xlink:href="#DejaVuSans-64" transform="translate(215.625 0.828125)"/>
    <use xlink:href="#DejaVuSans-20" transform="translate(279.101562 0.828125)"/>
    <use xlink:href="#DejaVuSans-302" transform="translate(373.261719 12.015625)"/>
    <use xlink:href="#DejaVuSans-Oblique-78" transform="translate(310.888672 0.828125)"/>
   </g>
  </g>
 </g>
 <defs>
  <clipPath id="p41a487b922">
   <rect x="44.845313" y="36" width="334.8" height="217.44"/>
  </clipPath>
 </defs>
</svg>
