<?xml version="1.0" encoding="utf-8" standalone="no"?>
<!DOCTYPE svg PUBLIC "-//W3C//DTD SVG 1.1//EN"
  "http://www.w3.org/Graphics/SVG/1.1/DTD/svg11.dtd">
<svg xmlns:xlink="http://www.w3.org/1999/xlink" width="386.845313pt" height="277.318125pt" viewBox="0 0 386.845313 277.318125" xmlns="http://www.w3.org/2000/svg" version="1.1">
 <metadata>
  <rdf:RDF xmlns:dc="http://purl.org/dc/elements/1.1/" xmlns:cc="http://creativecommons.org/ns#" xmlns:rdf="http://www.w3.org/1999/02/22-rdf-syntax-ns#">
   <cc:Work>
    <dc:type rdf:resource="http://purl.org/dc/dcmitype/StillImage"/>
    <dc:date>2022-11-14T18:34:08.465565</dc:date>
    <dc:format>image/svg+xml</dc:format>
    <dc:creator>
     <cc:Agent>
      <dc:title>Matplotlib v3.6.0, https://matplotlib.org/</dc:title>
     </cc:Agent>
    </dc:creator>
   </cc:Work>
  </rdf:RDF>
 </metadata>
 <defs>
  <style type="text/css">*{stroke-linejoin: round; stroke-linecap: butt}</style>
 </defs>
 <g id="figure_1">
  <g id="patch_1">
   <path d="M 0 277.318125 
L 386.845313 277.318125 
L 386.845313 0 
L 0 0 
L 0 277.318125 
z
" style="fill: none"/>
  </g>
  <g id="axes_1">
   <g id="patch_2">
    <path d="M 44.845313 253.44 
L 379.645313 253.44 
L 379.645313 36 
L 44.845313 36 
z
" style="fill: #ffffff"/>
   </g>
   <g id="matplotlib.axis_1">
    <g id="xtick_1">
     <g id="line2d_1">
      <defs>
       <path id="m9c1e7b84e4" d="M 0 0 
L 0 3.5 
" style="stroke: #000000; stroke-width: 0.8"/>
      </defs>
      <g>
       <use xlink:href="#m9c1e7b84e4" x="59.698727" y="253.44" style="stroke: #000000; stroke-width: 0.8"/>
      </g>
     </g>
     <g id="text_1">
      <!-- −1.00 -->
      <g transform="translate(44.376071 268.038437) scale(0.1 -0.1)">
       <defs>
        <path id="DejaVuSans-2212" d="M 678 2272 
L 4684 2272 
L 4684 1741 
L 678 1741 
L 678 2272 
z
" transform="scale(0.015625)"/>
        <path id="DejaVuSans-31" d="M 794 531 
L 1825 531 
L 1825 4091 
L 703 3866 
L 703 4441 
L 1819 4666 
L 2450 4666 
L 2450 531 
L 3481 531 
L 3481 0 
L 794 0 
L 794 531 
z
" transform="scale(0.015625)"/>
        <path id="DejaVuSans-2e" d="M 684 794 
L 1344 794 
L 1344 0 
L 684 0 
L 684 794 
z
" transform="scale(0.015625)"/>
        <path id="DejaVuSans-30" d="M 2034 4250 
Q 1547 4250 1301 3770 
Q 1056 3291 1056 2328 
Q 1056 1369 1301 889 
Q 1547 409 2034 409 
Q 2525 409 2770 889 
Q 3016 1369 3016 2328 
Q 3016 3291 2770 3770 
Q 2525 4250 2034 4250 
z
M 2034 4750 
Q 2819 4750 3233 4129 
Q 3647 3509 3647 2328 
Q 3647 1150 3233 529 
Q 2819 -91 2034 -91 
Q 1250 -91 836 529 
Q 422 1150 422 2328 
Q 422 3509 836 4129 
Q 1250 4750 2034 4750 
z
" transform="scale(0.015625)"/>
       </defs>
       <use xlink:href="#DejaVuSans-2212"/>
       <use xlink:href="#DejaVuSans-31" x="83.789062"/>
       <use xlink:href="#DejaVuSans-2e" x="147.412109"/>
       <use xlink:href="#DejaVuSans-30" x="179.199219"/>
       <use xlink:href="#DejaVuSans-30" x="242.822266"/>
      </g>
     </g>
    </g>
    <g id="xtick_2">
     <g id="line2d_2">
      <g>
       <use xlink:href="#m9c1e7b84e4" x="97.808299" y="253.44" style="stroke: #000000; stroke-width: 0.8"/>
      </g>
     </g>
     <g id="text_2">
      <!-- −0.75 -->
      <g transform="translate(82.485643 268.038437) scale(0.1 -0.1)">
       <defs>
        <path id="DejaVuSans-37" d="M 525 4666 
L 3525 4666 
L 3525 4397 
L 1831 0 
L 1172 0 
L 2766 4134 
L 525 4134 
L 525 4666 
z
" transform="scale(0.015625)"/>
        <path id="DejaVuSans-35" d="M 691 4666 
L 3169 4666 
L 3169 4134 
L 1269 4134 
L 1269 2991 
Q 1406 3038 1543 3061 
Q 1681 3084 1819 3084 
Q 2600 3084 3056 2656 
Q 3513 2228 3513 1497 
Q 3513 744 3044 326 
Q 2575 -91 1722 -91 
Q 1428 -91 1123 -41 
Q 819 9 494 109 
L 494 744 
Q 775 591 1075 516 
Q 1375 441 1709 441 
Q 2250 441 2565 725 
Q 2881 1009 2881 1497 
Q 2881 1984 2565 2268 
Q 2250 2553 1709 2553 
Q 1456 2553 1204 2497 
Q 953 2441 691 2322 
L 691 4666 
z
" transform="scale(0.015625)"/>
       </defs>
       <use xlink:href="#DejaVuSans-2212"/>
       <use xlink:href="#DejaVuSans-30" x="83.789062"/>
       <use xlink:href="#DejaVuSans-2e" x="147.412109"/>
       <use xlink:href="#DejaVuSans-37" x="179.199219"/>
       <use xlink:href="#DejaVuSans-35" x="242.822266"/>
      </g>
     </g>
    </g>
    <g id="xtick_3">
     <g id="line2d_3">
      <g>
       <use xlink:href="#m9c1e7b84e4" x="135.917871" y="253.44" style="stroke: #000000; stroke-width: 0.8"/>
      </g>
     </g>
     <g id="text_3">
      <!-- −0.50 -->
      <g transform="translate(120.595215 268.038437) scale(0.1 -0.1)">
       <use xlink:href="#DejaVuSans-2212"/>
       <use xlink:href="#DejaVuSans-30" x="83.789062"/>
       <use xlink:href="#DejaVuSans-2e" x="147.412109"/>
       <use xlink:href="#DejaVuSans-35" x="179.199219"/>
       <use xlink:href="#DejaVuSans-30" x="242.822266"/>
      </g>
     </g>
    </g>
    <g id="xtick_4">
     <g id="line2d_4">
      <g>
       <use xlink:href="#m9c1e7b84e4" x="174.027443" y="253.44" style="stroke: #000000; stroke-width: 0.8"/>
      </g>
     </g>
     <g id="text_4">
      <!-- −0.25 -->
      <g transform="translate(158.704787 268.038437) scale(0.1 -0.1)">
       <defs>
        <path id="DejaVuSans-32" d="M 1228 531 
L 3431 531 
L 3431 0 
L 469 0 
L 469 531 
Q 828 903 1448 1529 
Q 2069 2156 2228 2338 
Q 2531 2678 2651 2914 
Q 2772 3150 2772 3378 
Q 2772 3750 2511 3984 
Q 2250 4219 1831 4219 
Q 1534 4219 1204 4116 
Q 875 4013 500 3803 
L 500 4441 
Q 881 4594 1212 4672 
Q 1544 4750 1819 4750 
Q 2544 4750 2975 4387 
Q 3406 4025 3406 3419 
Q 3406 3131 3298 2873 
Q 3191 2616 2906 2266 
Q 2828 2175 2409 1742 
Q 1991 1309 1228 531 
z
" transform="scale(0.015625)"/>
       </defs>
       <use xlink:href="#DejaVuSans-2212"/>
       <use xlink:href="#DejaVuSans-30" x="83.789062"/>
       <use xlink:href="#DejaVuSans-2e" x="147.412109"/>
       <use xlink:href="#DejaVuSans-32" x="179.199219"/>
       <use xlink:href="#DejaVuSans-35" x="242.822266"/>
      </g>
     </g>
    </g>
    <g id="xtick_5">
     <g id="line2d_5">
      <g>
       <use xlink:href="#m9c1e7b84e4" x="212.137015" y="253.44" style="stroke: #000000; stroke-width: 0.8"/>
      </g>
     </g>
     <g id="text_5">
      <!-- 0.00 -->
      <g transform="translate(201.004202 268.038437) scale(0.1 -0.1)">
       <use xlink:href="#DejaVuSans-30"/>
       <use xlink:href="#DejaVuSans-2e" x="63.623047"/>
       <use xlink:href="#DejaVuSans-30" x="95.410156"/>
       <use xlink:href="#DejaVuSans-30" x="159.033203"/>
      </g>
     </g>
    </g>
    <g id="xtick_6">
     <g id="line2d_6">
      <g>
       <use xlink:href="#m9c1e7b84e4" x="250.246587" y="253.44" style="stroke: #000000; stroke-width: 0.8"/>
      </g>
     </g>
     <g id="text_6">
      <!-- 0.25 -->
      <g transform="translate(239.113774 268.038437) scale(0.1 -0.1)">
       <use xlink:href="#DejaVuSans-30"/>
       <use xlink:href="#DejaVuSans-2e" x="63.623047"/>
       <use xlink:href="#DejaVuSans-32" x="95.410156"/>
       <use xlink:href="#DejaVuSans-35" x="159.033203"/>
      </g>
     </g>
    </g>
    <g id="xtick_7">
     <g id="line2d_7">
      <g>
       <use xlink:href="#m9c1e7b84e4" x="288.356159" y="253.44" style="stroke: #000000; stroke-width: 0.8"/>
      </g>
     </g>
     <g id="text_7">
      <!-- 0.50 -->
      <g transform="translate(277.223346 268.038437) scale(0.1 -0.1)">
       <use xlink:href="#DejaVuSans-30"/>
       <use xlink:href="#DejaVuSans-2e" x="63.623047"/>
       <use xlink:href="#DejaVuSans-35" x="95.410156"/>
       <use xlink:href="#DejaVuSans-30" x="159.033203"/>
      </g>
     </g>
    </g>
    <g id="xtick_8">
     <g id="line2d_8">
      <g>
       <use xlink:href="#m9c1e7b84e4" x="326.465731" y="253.44" style="stroke: #000000; stroke-width: 0.8"/>
      </g>
     </g>
     <g id="text_8">
      <!-- 0.75 -->
      <g transform="translate(315.332918 268.038437) scale(0.1 -0.1)">
       <use xlink:href="#DejaVuSans-30"/>
       <use xlink:href="#DejaVuSans-2e" x="63.623047"/>
       <use xlink:href="#DejaVuSans-37" x="95.410156"/>
       <use xlink:href="#DejaVuSans-35" x="159.033203"/>
      </g>
     </g>
    </g>
    <g id="xtick_9">
     <g id="line2d_9">
      <g>
       <use xlink:href="#m9c1e7b84e4" x="364.575302" y="253.44" style="stroke: #000000; stroke-width: 0.8"/>
      </g>
     </g>
     <g id="text_9">
      <!-- 1.00 -->
      <g transform="translate(353.44249 268.038437) scale(0.1 -0.1)">
       <use xlink:href="#DejaVuSans-31"/>
       <use xlink:href="#DejaVuSans-2e" x="63.623047"/>
       <use xlink:href="#DejaVuSans-30" x="95.410156"/>
       <use xlink:href="#DejaVuSans-30" x="159.033203"/>
      </g>
     </g>
    </g>
   </g>
   <g id="matplotlib.axis_2">
    <g id="ytick_1">
     <g id="line2d_10">
      <defs>
       <path id="m0036cf5341" d="M 0 0 
L -3.5 0 
" style="stroke: #000000; stroke-width: 0.8"/>
      </defs>
      <g>
       <use xlink:href="#m0036cf5341" x="44.845313" y="246.019421" style="stroke: #000000; stroke-width: 0.8"/>
      </g>
     </g>
     <g id="text_10">
      <!-- −1.00 -->
      <g transform="translate(7.2 249.81864) scale(0.1 -0.1)">
       <use xlink:href="#DejaVuSans-2212"/>
       <use xlink:href="#DejaVuSans-31" x="83.789062"/>
       <use xlink:href="#DejaVuSans-2e" x="147.412109"/>
       <use xlink:href="#DejaVuSans-30" x="179.199219"/>
       <use xlink:href="#DejaVuSans-30" x="242.822266"/>
      </g>
     </g>
    </g>
    <g id="ytick_2">
     <g id="line2d_11">
      <g>
       <use xlink:href="#m0036cf5341" x="44.845313" y="220.599322" style="stroke: #000000; stroke-width: 0.8"/>
      </g>
     </g>
     <g id="text_11">
      <!-- −0.75 -->
      <g transform="translate(7.2 224.398541) scale(0.1 -0.1)">
       <use xlink:href="#DejaVuSans-2212"/>
       <use xlink:href="#DejaVuSans-30" x="83.789062"/>
       <use xlink:href="#DejaVuSans-2e" x="147.412109"/>
       <use xlink:href="#DejaVuSans-37" x="179.199219"/>
       <use xlink:href="#DejaVuSans-35" x="242.822266"/>
      </g>
     </g>
    </g>
    <g id="ytick_3">
     <g id="line2d_12">
      <g>
       <use xlink:href="#m0036cf5341" x="44.845313" y="195.179224" style="stroke: #000000; stroke-width: 0.8"/>
      </g>
     </g>
     <g id="text_12">
      <!-- −0.50 -->
      <g transform="translate(7.2 198.978442) scale(0.1 -0.1)">
       <use xlink:href="#DejaVuSans-2212"/>
       <use xlink:href="#DejaVuSans-30" x="83.789062"/>
       <use xlink:href="#DejaVuSans-2e" x="147.412109"/>
       <use xlink:href="#DejaVuSans-35" x="179.199219"/>
       <use xlink:href="#DejaVuSans-30" x="242.822266"/>
      </g>
     </g>
    </g>
    <g id="ytick_4">
     <g id="line2d_13">
      <g>
       <use xlink:href="#m0036cf5341" x="44.845313" y="169.759125" style="stroke: #000000; stroke-width: 0.8"/>
      </g>
     </g>
     <g id="text_13">
      <!-- −0.25 -->
      <g transform="translate(7.2 173.558343) scale(0.1 -0.1)">
       <use xlink:href="#DejaVuSans-2212"/>
       <use xlink:href="#DejaVuSans-30" x="83.789062"/>
       <use xlink:href="#DejaVuSans-2e" x="147.412109"/>
       <use xlink:href="#DejaVuSans-32" x="179.199219"/>
       <use xlink:href="#DejaVuSans-35" x="242.822266"/>
      </g>
     </g>
    </g>
    <g id="ytick_5">
     <g id="line2d_14">
      <g>
       <use xlink:href="#m0036cf5341" x="44.845313" y="144.339026" style="stroke: #000000; stroke-width: 0.8"/>
      </g>
     </g>
     <g id="text_14">
      <!-- 0.00 -->
      <g transform="translate(15.579688 148.138245) scale(0.1 -0.1)">
       <use xlink:href="#DejaVuSans-30"/>
       <use xlink:href="#DejaVuSans-2e" x="63.623047"/>
       <use xlink:href="#DejaVuSans-30" x="95.410156"/>
       <use xlink:href="#DejaVuSans-30" x="159.033203"/>
      </g>
     </g>
    </g>
    <g id="ytick_6">
     <g id="line2d_15">
      <g>
       <use xlink:href="#m0036cf5341" x="44.845313" y="118.918927" style="stroke: #000000; stroke-width: 0.8"/>
      </g>
     </g>
     <g id="text_15">
      <!-- 0.25 -->
      <g transform="translate(15.579688 122.718146) scale(0.1 -0.1)">
       <use xlink:href="#DejaVuSans-30"/>
       <use xlink:href="#DejaVuSans-2e" x="63.623047"/>
       <use xlink:href="#DejaVuSans-32" x="95.410156"/>
       <use xlink:href="#DejaVuSans-35" x="159.033203"/>
      </g>
     </g>
    </g>
    <g id="ytick_7">
     <g id="line2d_16">
      <g>
       <use xlink:href="#m0036cf5341" x="44.845313" y="93.498828" style="stroke: #000000; stroke-width: 0.8"/>
      </g>
     </g>
     <g id="text_16">
      <!-- 0.50 -->
      <g transform="translate(15.579688 97.298047) scale(0.1 -0.1)">
       <use xlink:href="#DejaVuSans-30"/>
       <use xlink:href="#DejaVuSans-2e" x="63.623047"/>
       <use xlink:href="#DejaVuSans-35" x="95.410156"/>
       <use xlink:href="#DejaVuSans-30" x="159.033203"/>
      </g>
     </g>
    </g>
    <g id="ytick_8">
     <g id="line2d_17">
      <g>
       <use xlink:href="#m0036cf5341" x="44.845313" y="68.07873" style="stroke: #000000; stroke-width: 0.8"/>
      </g>
     </g>
     <g id="text_17">
      <!-- 0.75 -->
      <g transform="translate(15.579688 71.877948) scale(0.1 -0.1)">
       <use xlink:href="#DejaVuSans-30"/>
       <use xlink:href="#DejaVuSans-2e" x="63.623047"/>
       <use xlink:href="#DejaVuSans-37" x="95.410156"/>
       <use xlink:href="#DejaVuSans-35" x="159.033203"/>
      </g>
     </g>
    </g>
    <g id="ytick_9">
     <g id="line2d_18">
      <g>
       <use xlink:href="#m0036cf5341" x="44.845313" y="42.658631" style="stroke: #000000; stroke-width: 0.8"/>
      </g>
     </g>
     <g id="text_18">
      <!-- 1.00 -->
      <g transform="translate(15.579688 46.457849) scale(0.1 -0.1)">
       <use xlink:href="#DejaVuSans-31"/>
       <use xlink:href="#DejaVuSans-2e" x="63.623047"/>
       <use xlink:href="#DejaVuSans-30" x="95.410156"/>
       <use xlink:href="#DejaVuSans-30" x="159.033203"/>
      </g>
     </g>
    </g>
   </g>
   <g id="line2d_19">
    <path d="M 281.500702 98.533071 
L 270.118643 105.167255 
L 295.321774 88.875474 
L 232.313948 130.731224 
L 216.460366 141.085313 
L 361.175114 46.703822 
L 329.874452 65.477513 
L 67.380532 240.493123 
L 335.565482 62.988352 
L 68.193536 240.132433 
L 132.014366 197.129295 
L 361.581616 46.609573 
L 195.835196 156.011648 
L 337.19149 61.246527 
L 71.445553 238.649737 
L 299.793297 86.314767 
L 256.297572 115.069855 
L 171.44507 169.730241 
L 65.348022 241.471318 
L 348.573549 52.854426 
L 319.7119 73.064729 
L 109.250248 214.242539 
L 214.021354 142.361613 
L 292.069757 91.368498 
L 218.899379 139.808882 
L 290.443748 92.680461 
L 257.92358 113.157945 
L 66.97403 240.675949 
L 281.907204 98.26845 
L 119.819303 205.721303 
L 363.614126 46.130446 
L 80.388599 231.294884 
L 219.305881 139.454899 
L 107.217738 215.236592 
L 133.640374 195.757786 
L 144.209429 189.643373 
L 324.589925 68.661759 
L 118.193295 206.913161 
L 86.486131 226.885092 
L 147.461446 187.802676 
L 324.996427 68.386843 
L 315.646879 75.577909 
L 325.402929 68.122865 
L 198.274208 154.107621 
L 136.079387 194.261063 
L 101.933211 217.848144 
L 77.136583 234.657799 
L 259.143087 111.942722 
L 263.208108 108.708906 
L 259.549589 111.419813 
L 110.469755 213.616276 
L 97.055185 220.76259 
L 344.91503 55.008887 
L 338.410996 60.17657 
L 296.134778 88.267405 
L 118.599797 206.672842 
L 299.386795 86.60768 
L 186.89215 162.084546 
L 314.833874 75.987794 
L 185.672643 162.635405 
L 346.541038 53.940884 
L 166.973547 174.002023 
L 227.435923 134.391374 
L 301.825807 84.434884 
L 90.551152 224.785566 
L 95.429177 221.617204 
L 201.119723 151.647835 
L 69.819545 239.410858 
L 176.729597 167.179198 
L 322.150912 70.722845 
L 251.826049 118.455465 
L 237.598475 127.029726 
L 354.264578 49.812024 
L 261.988601 109.403808 
L 99.087696 219.643446 
L 70.632549 239.038981 
L 244.509011 122.93945 
L 253.045555 117.823077 
L 123.07132 203.107397 
L 64.535017 242.007132 
L 210.469271 144.327295 
L 302.232309 84.130098 
L 179.16861 166.012475 
L 162.502024 178.491106 
L 93.803169 222.457475 
L 268.899137 105.771116 
L 269.712141 105.369927 
L 164.941036 175.847985 
L 206.810753 147.822271 
L 245.728517 122.073128 
L 353.858076 50.09528 
L 238.41148 126.595567 
L 199.900217 152.559422 
L 115.34778 210.299672 
L 232.72045 130.414583 
L 293.289263 90.08861 
L 127.949345 199.892934 
L 181.20112 165.028984 
L 278.655187 100.767941 
L 316.866385 74.959193 
L 157.217496 182.735838 
L 183.640133 163.804241 
L 76.73008 234.841749 
L 101.526709 218.011751 
L 70.226047 239.226513 
L 294.102267 89.605032 
L 120.632307 205.076748 
L 360.768612 46.79868 
L 222.151396 137.518521 
L 335.971984 62.5633 
L 294.508769 89.365512 
L 348.167047 53.066952 
L 339.630503 58.891697 
L 86.079629 227.083032 
L 60.876499 243.410484 
L 227.842425 134.148959 
L 117.38029 208.126169 
L 304.671322 82.512391 
L 171.038568 169.931451 
L 148.27445 187.427229 
L 75.917076 235.189644 
L 117.786793 207.190667 
L 292.476259 90.612919 
L 149.087454 187.051335 
L 224.99691 135.879071 
L 220.118885 138.895477 
L 196.6482 155.400136 
L 102.339713 217.683972 
L 184.046635 163.585415 
L 96.648683 220.978524 
L 172.258074 169.331088 
L 98.681194 219.874436 
L 334.345975 63.612296 
L 73.478064 237.482442 
L 297.354284 87.536923 
L 168.193053 172.697035 
L 193.802685 157.552289 
L 209.656267 145.120898 
L 207.217255 147.427138 
L 89.738148 225.239881 
L 64.94152 241.875357 
L 103.559219 217.187278 
L 333.126469 64.100264 
L 154.371982 184.52676 
L 336.378486 62.24344 
L 359.955608 46.990726 
L 254.265061 117.187114 
L 213.208349 142.79508 
L 331.500461 64.771851 
L 260.362593 110.631303 
L 342.476017 56.799064 
L 231.500944 131.469412 
L 120.225805 205.387452 
L 179.575112 165.81703 
L 290.850251 92.377568 
L 302.638811 83.838258 
L 217.679872 140.450181 
L 150.306961 186.484218 
L 198.680711 153.755826 
L 341.663013 57.324316 
L 230.68794 132.078853 
L 133.233872 196.084468 
L 137.298893 193.749417 
L 142.176919 190.713731 
L 165.75404 175.091302 
L 147.054944 187.990677 
L 317.272887 74.744768 
L 84.45362 227.875731 
L 105.185227 216.210501 
L 229.468433 133.13489 
L 364.020629 45.964232 
L 153.152475 185.129087 
L 211.688778 143.627108 
L 114.128274 211.235444 
L 235.159463 128.441191 
L 262.801606 108.93675 
L 199.493715 152.847662 
L 75.510574 235.357212 
L 141.363914 191.078222 
L 307.923339 80.642895 
L 202.339229 150.833219 
L 140.957412 191.261018 
L 348.980051 52.643577 
L 233.533454 129.804974 
L 355.077582 49.365025 
L 204.778242 149.139131 
L 176.323095 167.373347 
L 192.989681 158.228963 
L 234.752961 128.863787 
L 359.142603 47.18649 
L 153.96548 184.729379 
L 264.021112 108.263074 
L 293.695765 89.845264 
L 85.266625 227.478077 
L 275.809673 102.233107 
L 178.355606 166.402201 
L 298.980293 86.791475 
L 313.207866 76.908085 
L 100.307202 218.901777 
L 144.615931 189.395142 
L 272.557656 103.770918 
L 64.128515 242.139991 
L 147.867948 187.614927 
L 206.40425 148.198959 
L 233.939956 129.50182 
L 323.370419 69.574979 
L 275.403171 102.420881 
L 150.713463 186.293821 
L 91.364156 223.749249 
L 273.37066 103.374183 
L 93.396667 222.667483 
L 205.591246 148.680987 
L 205.184744 148.912493 
L 312.801364 77.135835 
L 162.908526 178.121488 
L 91.770658 223.523573 
L 153.558977 184.930105 
L 102.746215 217.519158 
L 177.136099 166.985077 
L 357.923097 47.80319 
L 321.337908 71.833061 
L 151.119965 186.102554 
L 357.516595 47.952025 
L 362.39462 46.422043 
L 158.437003 181.713643 
L 312.394862 77.360559 
L 110.876257 213.400344 
L 238.817982 126.360709 
L 304.26482 82.763796 
L 175.916593 167.567587 
L 196.241698 155.707323 
L 298.167288 87.161981 
L 95.835679 221.405559 
L 323.776921 69.252891 
L 282.313706 98.00618 
L 318.492393 74.046909 
L 205.997748 148.443584 
L 354.67108 49.591974 
L 131.607864 197.424256 
L 166.160543 174.740963 
L 178.762108 166.207503 
L 329.46795 65.660855 
L 192.583179 158.605379 
L 310.362351 78.871133 
L 123.884324 202.513576 
L 203.965238 149.689588 
L 341.256511 57.597931 
L 350.199557 52.017805 
L 288.81774 93.823183 
L 231.094442 131.762703 
L 182.014124 164.62914 
L 213.614851 142.57757 
L 300.606301 85.474328 
L 284.752719 96.456972 
L 160.063011 180.481651 
L 283.533213 97.228535 
L 164.534534 176.302747 
L 88.112139 226.081687 
L 250.606543 119.090373 
L 265.64712 107.403961 
L 240.44399 125.500044 
L 135.266383 194.598299 
L 60.469996 243.483855 
L 177.542601 166.790915 
L 180.388116 165.4245 
L 137.705395 193.252053 
L 128.762349 199.308222 
L 332.313465 64.432539 
L 295.728276 88.475109 
L 215.647362 141.508482 
L 194.61569 156.923974 
L 306.29733 81.552659 
L 228.248927 133.89845 
L 135.672885 194.429972 
L 311.581858 78.066091 
L 210.062769 144.651983 
L 347.760545 53.281491 
L 116.160784 209.565519 
L 335.158979 63.29223 
L 236.378969 127.677527 
L 195.428694 156.314705 
L 134.453379 194.933656 
L 303.045314 83.557182 
L 152.339471 185.522379 
L 224.590408 136.096352 
L 92.990164 222.878276 
L 68.600038 239.953037 
L 190.957171 160.166222 
L 95.022675 221.827946 
L 308.736343 79.995102 
L 149.493956 186.862858 
L 136.892391 193.920957 
L 277.842183 101.299712 
L 328.248444 66.469244 
L 125.916835 201.032174 
L 215.24086 141.720606 
L 141.770417 190.895879 
L 208.030259 146.619161 
L 84.047118 228.428013 
L 282.720208 97.74572 
L 200.306719 152.216711 
L 130.388358 198.255015 
L 346.134536 54.167358 
L 94.209671 222.247787 
L 104.778725 216.417478 
L 333.939473 63.773757 
L 338.817498 59.768616 
L 352.63857 50.764319 
L 327.43544 66.918242 
L 75.104072 235.521862 
L 203.152234 150.296 
L 291.663255 91.733296 
L 97.461688 220.544635 
L 255.484568 115.895364 
L 145.835438 188.696417 
L 220.525387 138.629929 
L 330.280954 65.297189 
L 165.347538 175.510755 
L 253.858559 117.399921 
L 84.860122 227.676208 
L 301.012803 85.098062 
L 361.988118 46.515743 
L 248.16753 120.390387 
L 340.037005 58.532652 
L 242.476501 124.54611 
L 248.980534 119.950525 
L 221.338391 137.974419 
L 353.045072 50.549213 
L 352.232068 50.976388 
L 345.728034 54.398049 
L 308.329841 80.420361 
L 338.004494 60.511416 
L 274.590166 102.798598 
L 169.006057 171.802468 
L 158.030501 182.035594 
L 174.697087 168.151509 
L 292.882761 90.339185 
L 67.787034 240.31223 
L 332.719967 64.265604 
L 351.419063 51.395093 
L 98.274692 220.101092 
L 212.801847 143.014426 
L 140.55091 191.444561 
L 163.315028 177.732444 
L 241.256994 125.116782 
L 180.794618 165.227186 
L 329.061448 66.017362 
L 125.510332 201.255112 
L 134.859881 194.766159 
L 99.494198 219.406718 
L 327.028937 67.147585 
L 314.427372 76.193644 
L 346.94754 53.718057 
L 143.396425 190.165981 
L 355.890587 48.86827 
L 349.793055 52.225594 
L 261.582099 109.64374 
L 62.502507 242.696489 
L 124.697328 201.698067 
L 69.006541 239.773405 
L 124.290826 202.186597 
L 311.98836 77.782996 
L 241.663496 124.926108 
L 62.096005 242.851732 
L 230.281438 132.490185 
L 220.931889 138.355928 
L 79.169093 231.8617 
L 246.135019 121.800826 
L 314.02087 76.400519 
L 318.898895 73.860525 
L 289.630744 93.263008 
L 218.086375 140.237476 
L 122.664818 203.525624 
L 145.022433 189.167406 
L 173.071078 168.935433 
L 105.998232 215.818445 
L 270.525145 104.959053 
L 87.705637 226.284988 
L 300.199799 86.106065 
L 296.54128 88.058455 
L 132.420868 196.815878 
L 320.931406 72.123678 
L 255.89107 115.465117 
L 303.451816 83.285233 
L 155.99799 183.693988 
L 249.793538 119.517805 
L 146.648442 188.17918 
L 82.42111 230.055079 
L 60.063494 243.556364 
L 61.283001 243.336219 
L 277.435681 101.486024 
L 114.941278 210.629135 
L 303.858318 83.02112 
L 99.9007 219.161624 
L 181.607622 164.829713 
L 113.721772 211.518273 
L 164.128032 176.655112 
L 260.769095 110.138577 
L 108.437244 214.645954 
L 289.224242 93.54543 
L 126.729839 200.582165 
L 309.549347 79.414209 
L 250.20004 119.303536 
L 239.224484 126.081384 
L 280.281196 99.349683 
L 340.850009 57.880504 
L 264.834116 107.828681 
L 317.679389 74.419861 
L 197.867706 154.444552 
L 217.27337 140.662228 
L 138.924902 192.527715 
L 96.242181 221.192753 
L 257.110576 113.998381 
L 347.354042 53.498399 
L 343.289021 56.295998 
L 182.420627 164.426948 
L 188.518158 161.33515 
L 258.736585 112.351605 
L 190.550669 160.365692 
L 63.722013 242.274424 
L 238.004977 126.814046 
L 257.517078 113.570133 
L 179.981614 165.621074 
L 249.387036 119.733394 
L 208.843263 145.804338 
L 207.623757 147.053077 
L 247.761028 120.613668 
L 115.754282 209.94714 
L 204.37174 149.361739 
L 344.102026 55.608815 
L 121.851814 204.165036 
L 266.460124 106.987353 
L 146.24194 188.368518 
L 139.331404 192.299929 
L 159.250007 181.098324 
L 152.745973 185.326468 
L 273.777162 103.180646 
L 73.071562 237.755399 
L 155.184986 184.115196 
L 101.120206 218.174867 
L 345.321532 54.633681 
L 173.884082 168.542463 
L 307.516837 80.867046 
L 287.598234 94.634739 
L 290.037246 92.975063 
L 140.144408 191.82009 
L 184.859639 162.998488 
L 353.451574 50.329127 
L 225.403412 135.657159 
L 269.305639 105.570783 
L 216.866868 140.873864 
L 112.095763 212.561542 
L 333.532971 63.936365 
L 116.973788 208.675478 
L 327.841942 66.692577 
L 92.583662 223.090486 
L 331.093958 64.944583 
L 281.0942 98.800742 
L 72.258557 238.230081 
L 129.168851 199.043707 
L 185.266141 162.817315 
L 235.565965 128.190708 
L 288.004736 94.367306 
L 112.502265 212.310541 
L 279.874694 99.635104 
L 131.201362 197.70843 
L 202.745732 150.569519 
L 90.14465 225.017658 
L 108.843746 214.445426 
L 74.291068 236.793752 
L 279.06169 100.267622 
L 155.591488 183.905895 
L 351.825566 51.186421 
L 168.599555 172.270978 
L 280.687698 99.072444 
L 78.356089 233.97812 
L 210.875774 144.08964 
L 237.191973 127.244933 
L 325.809431 67.868213 
L 228.655429 133.515631 
L 324.183423 68.949599 
L 169.819061 171.132103 
L 160.469513 180.16795 
L 184.453137 163.344738 
L 287.191732 94.899685 
L 246.541522 121.529529 
L 85.673127 227.280543 
L 111.689261 212.809336 
L 356.297089 48.364862 
L 183.233631 164.015565 
L 322.557414 70.297339 
L 242.883003 124.356551 
L 307.110335 81.093154 
L 316.053381 75.373026 
L 216.053864 141.296785 
L 209.249765 145.464406 
L 364.427131 45.883636 
L 279.468192 99.934434 
L 161.689019 179.189511 
L 175.103589 167.956602 
L 190.144166 160.563114 
L 71.039051 238.84718 
L 229.874935 132.944094 
L 107.62424 215.041214 
L 208.436761 146.157013 
L 69.413043 239.592903 
L 86.892633 226.686338 
L 274.996669 102.60932 
L 326.215933 67.621539 
L 244.102509 123.330988 
L 221.744893 137.747362 
L 251.013045 118.87811 
L 175.510091 167.761983 
L 143.802927 189.98202 
L 125.10383 201.476996 
L 79.982097 231.489079 
L 186.485648 162.269093 
L 283.126711 97.48663 
L 71.852055 238.444853 
L 193.396183 157.88177 
L 200.713221 151.878053 
L 344.508528 55.314328 
L 285.159221 96.199704 
L 243.289505 123.895123 
L 94.616173 222.038048 
L 322.963916 69.92059 
L 122.258316 203.854167 
L 363.207624 46.232277 
L 246.948024 121.254123 
L 357.110093 48.092468 
L 103.965721 216.886572 
L 315.240377 75.78267 
L 239.630986 125.886594 
L 243.696007 123.603116 
L 171.851572 169.530168 
L 158.843505 181.404667 
L 359.549105 47.088105 
L 274.183664 102.988938 
L 188.92466 161.144534 
L 301.419305 84.75577 
L 186.079145 162.452688 
L 173.47758 168.738657 
L 151.932969 185.71695 
L 130.79486 197.984758 
L 127.136341 200.354589 
L 142.583421 190.531534 
L 358.329599 47.516756 
L 225.809914 135.418626 
L 214.834358 141.93336 
L 203.558736 150.007941 
L 177.949103 166.596647 
L 309.142845 79.695624 
L 254.671564 116.82857 
L 248.574032 120.169436 
L 61.689503 243.036191 
L 276.622677 101.858995 
L 305.077824 82.266169 
L 88.518641 225.876112 
L 291.256753 92.063693 
L 264.427614 108.044564 
L 288.411238 94.096951 
L 199.087213 153.380496 
L 188.111656 161.52436 
L 88.925143 225.667774 
L 191.363673 159.964543 
L 251.419547 118.666542 
L 266.053622 107.194735 
L 160.876015 179.8489 
L 305.890828 81.786822 
L 351.012561 51.602929 
L 92.17716 223.305056 
L 166.567045 174.383854 
L 330.687456 65.119623 
L 189.331162 160.952403 
L 73.884566 237.169898 
L 229.061931 133.325279 
L 201.526225 151.345936 
L 74.69757 236.302615 
L 106.404734 215.624698 
L 278.248685 101.11339 
L 110.063253 213.828337 
L 156.404492 183.479259 
L 240.850492 125.308058 
L 151.526467 185.910302 
L 298.57379 86.976216 
L 263.61461 108.484439 
L 235.972467 127.895976 
L 328.654946 66.246053 
L 197.054702 155.088484 
L 211.282276 143.85647 
L 247.354526 120.936836 
L 89.331646 225.456021 
L 138.5184 192.756874 
L 129.575353 198.782836 
L 362.801122 46.32795 
L 197.461204 154.770631 
L 342.882519 56.545285 
L 252.639053 118.03395 
L 219.712383 139.163101 
L 265.240618 107.615213 
L 212.09528 143.401004 
L 222.9644 137.024531 
L 319.305398 73.462373 
L 331.906963 64.601231 
L 116.567286 209.146167 
L 276.216175 102.045853 
L 105.59173 216.013096 
L 182.827129 164.222671 
L 82.014608 230.307851 
L 78.762591 233.523443 
L 349.386553 52.434074 
L 103.152717 217.353621 
L 136.485889 194.091443 
L 306.703832 81.321569 
L 326.622435 67.38168 
L 320.524904 72.417589 
L 169.412559 171.47813 
L 258.330082 112.753829 
L 296.947782 87.844034 
L 63.315511 242.411119 
L 121.038809 204.77264 
L 223.370902 136.735907 
L 65.754524 241.252003 
L 261.175597 109.888497 
L 201.932727 151.090414 
L 218.492877 140.023826 
L 104.372223 216.694972 
L 113.315269 211.790559 
L 313.614368 76.608682 
L 360.36211 46.89428 
L 167.786551 173.167515 
L 174.290585 168.346772 
L 242.069998 124.735922 
L 271.33815 104.466337 
L 294.915272 89.124111 
L 270.931648 104.648009 
L 149.900459 186.673858 
L 192.176677 159.11325 
L 343.695524 55.925412 
L 167.380049 173.492281 
L 187.705154 161.712266 
L 119.006299 206.446763 
L 336.784988 61.674262 
L 81.201604 230.886621 
L 318.085891 74.233282 
L 271.744652 104.285487 
L 285.565723 95.941919 
L 106.811236 215.430941 
L 195.022192 156.61818 
L 142.989923 190.349041 
L 161.282517 179.523218 
L 132.82737 196.386023 
L 66.567528 240.861847 
L 356.703591 48.229462 
L 212.395345 143.235921 
L 256.704074 114.463627 
L 129.981856 198.520583 
L 82.827612 229.568107 
L 77.543085 234.462112 
L 87.299135 226.486418 
L 138.111898 192.993055 
L 272.964158 103.570356 
L 286.78523 95.162533 
L 80.795101 231.094392 
L 259.956091 111.037849 
L 72.665059 238.001965 
L 226.216417 135.139488 
L 255.078066 116.566067 
L 83.640616 228.823716 
L 109.656751 214.036962 
L 321.74441 71.532195 
L 159.656509 180.791293 
L 309.955849 79.140535 
L 154.778484 184.322089 
L 123.477822 202.815606 
L 277.029179 101.672419 
L 79.575595 231.67779 
L 355.484084 49.127331 
L 90.957654 224.20179 
L 350.606059 51.81037 
L 234.346459 129.193391 
L 286.378727 95.423637 
L 148.680952 187.239414 
L 283.939715 96.971097 
L 268.086133 106.172596 
L 316.459883 75.167267 
L 108.030742 214.844445 
L 245.322015 122.349511 
L 121.445311 204.469858 
L 83.234114 229.190106 
L 305.484326 82.024497 
L 227.029421 134.713587 
L 97.86819 220.324288 
L 268.492635 105.971583 
L 334.752477 63.451835 
L 310.768853 78.603861 
L 114.534776 210.939941 
L 156.810994 183.173752 
L 127.542843 200.124942 
L 77.949587 234.244993 
L 311.175356 78.33661 
L 266.866627 106.781635 
L 170.225564 170.75128 
L 252.232551 118.244672 
L 139.737906 192.068458 
L 222.557898 137.284835 
L 187.298652 161.898965 
L 231.907446 131.185503 
L 191.770175 159.538184 
L 172.664576 169.132879 
L 145.428935 188.940483 
L 320.118402 72.72276 
L 194.209187 157.234368 
L 223.777404 136.524044 
L 340.443507 58.173581 
L 128.355847 199.658249 
L 342.069515 57.058395 
L 163.72153 177.311923 
L 189.737664 160.758639 
L 111.282759 213.059137 
L 240.037488 125.692852 
L 262.395103 109.168272 
L 285.972225 95.683329 
L 66.161026 241.052641 
L 233.126952 130.107936 
L 100.713704 218.59675 
L 339.224 59.24925 
L 112.908767 212.054105 
L 337.597992 60.865394 
L 170.632066 170.257841 
L 126.323337 200.807941 
L 236.785471 127.460665 
L 76.323578 235.018274 
L 267.679631 106.374455 
L 358.736101 47.395768 
L 157.623998 182.437563 
L 162.095522 178.846156 
L 134.046877 195.322264 
L 253.452057 117.611817 
L 244.915513 122.633956 
L 244.915513 122.633956 
" clip-path="url(#p52b2a54a7d)" style="fill: none; stroke: #1f77b4; stroke-width: 1.5; stroke-linecap: square"/>
   </g>
   <g id="patch_3">
    <path d="M 44.845313 253.44 
L 44.845313 36 
" style="fill: none; stroke: #000000; stroke-width: 0.8; stroke-linejoin: miter; stroke-linecap: square"/>
   </g>
   <g id="patch_4">
    <path d="M 379.645313 253.44 
L 379.645313 36 
" style="fill: none; stroke: #000000; stroke-width: 0.8; stroke-linejoin: miter; stroke-linecap: square"/>
   </g>
   <g id="patch_5">
    <path d="M 44.845313 253.44 
L 379.645313 253.44 
" style="fill: none; stroke: #000000; stroke-width: 0.8; stroke-linejoin: miter; stroke-linecap: square"/>
   </g>
   <g id="patch_6">
    <path d="M 44.845313 36 
L 379.645313 36 
" style="fill: none; stroke: #000000; stroke-width: 0.8; stroke-linejoin: miter; stroke-linecap: square"/>
   </g>
  </g>
  <g id="text_19">
   <!-- $x$ and $\hat{x}$ for $\tau_{ref}$: 0.005 -->
   <g transform="translate(141.865313 17.904375) scale(0.12 -0.12)">
    <defs>
     <path id="DejaVuSans-Oblique-78" d="M 3841 3500 
L 2234 1784 
L 3219 0 
L 2559 0 
L 1819 1388 
L 531 0 
L -166 0 
L 1556 1844 
L 641 3500 
L 1300 3500 
L 1972 2234 
L 3144 3500 
L 3841 3500 
z
" transform="scale(0.015625)"/>
     <path id="DejaVuSans-20" transform="scale(0.015625)"/>
     <path id="DejaVuSans-61" d="M 2194 1759 
Q 1497 1759 1228 1600 
Q 959 1441 959 1056 
Q 959 750 1161 570 
Q 1363 391 1709 391 
Q 2188 391 2477 730 
Q 2766 1069 2766 1631 
L 2766 1759 
L 2194 1759 
z
M 3341 1997 
L 3341 0 
L 2766 0 
L 2766 531 
Q 2569 213 2275 61 
Q 1981 -91 1556 -91 
Q 1019 -91 701 211 
Q 384 513 384 1019 
Q 384 1609 779 1909 
Q 1175 2209 1959 2209 
L 2766 2209 
L 2766 2266 
Q 2766 2663 2505 2880 
Q 2244 3097 1772 3097 
Q 1472 3097 1187 3025 
Q 903 2953 641 2809 
L 641 3341 
Q 956 3463 1253 3523 
Q 1550 3584 1831 3584 
Q 2591 3584 2966 3190 
Q 3341 2797 3341 1997 
z
" transform="scale(0.015625)"/>
     <path id="DejaVuSans-6e" d="M 3513 2113 
L 3513 0 
L 2938 0 
L 2938 2094 
Q 2938 2591 2744 2837 
Q 2550 3084 2163 3084 
Q 1697 3084 1428 2787 
Q 1159 2491 1159 1978 
L 1159 0 
L 581 0 
L 581 3500 
L 1159 3500 
L 1159 2956 
Q 1366 3272 1645 3428 
Q 1925 3584 2291 3584 
Q 2894 3584 3203 3211 
Q 3513 2838 3513 2113 
z
" transform="scale(0.015625)"/>
     <path id="DejaVuSans-64" d="M 2906 2969 
L 2906 4863 
L 3481 4863 
L 3481 0 
L 2906 0 
L 2906 525 
Q 2725 213 2448 61 
Q 2172 -91 1784 -91 
Q 1150 -91 751 415 
Q 353 922 353 1747 
Q 353 2572 751 3078 
Q 1150 3584 1784 3584 
Q 2172 3584 2448 3432 
Q 2725 3281 2906 2969 
z
M 947 1747 
Q 947 1113 1208 752 
Q 1469 391 1925 391 
Q 2381 391 2643 752 
Q 2906 1113 2906 1747 
Q 2906 2381 2643 2742 
Q 2381 3103 1925 3103 
Q 1469 3103 1208 2742 
Q 947 2381 947 1747 
z
" transform="scale(0.015625)"/>
     <path id="DejaVuSans-302" d="M -1831 5119 
L -1369 5119 
L -603 3944 
L -1038 3944 
L -1600 4709 
L -2163 3944 
L -2597 3944 
L -1831 5119 
z
M -1600 3584 
L -1600 3584 
z
" transform="scale(0.015625)"/>
     <path id="DejaVuSans-66" d="M 2375 4863 
L 2375 4384 
L 1825 4384 
Q 1516 4384 1395 4259 
Q 1275 4134 1275 3809 
L 1275 3500 
L 2222 3500 
L 2222 3053 
L 1275 3053 
L 1275 0 
L 697 0 
L 697 3053 
L 147 3053 
L 147 3500 
L 697 3500 
L 697 3744 
Q 697 4328 969 4595 
Q 1241 4863 1831 4863 
L 2375 4863 
z
" transform="scale(0.015625)"/>
     <path id="DejaVuSans-6f" d="M 1959 3097 
Q 1497 3097 1228 2736 
Q 959 2375 959 1747 
Q 959 1119 1226 758 
Q 1494 397 1959 397 
Q 2419 397 2687 759 
Q 2956 1122 2956 1747 
Q 2956 2369 2687 2733 
Q 2419 3097 1959 3097 
z
M 1959 3584 
Q 2709 3584 3137 3096 
Q 3566 2609 3566 1747 
Q 3566 888 3137 398 
Q 2709 -91 1959 -91 
Q 1206 -91 779 398 
Q 353 888 353 1747 
Q 353 2609 779 3096 
Q 1206 3584 1959 3584 
z
" transform="scale(0.015625)"/>
     <path id="DejaVuSans-72" d="M 2631 2963 
Q 2534 3019 2420 3045 
Q 2306 3072 2169 3072 
Q 1681 3072 1420 2755 
Q 1159 2438 1159 1844 
L 1159 0 
L 581 0 
L 581 3500 
L 1159 3500 
L 1159 2956 
Q 1341 3275 1631 3429 
Q 1922 3584 2338 3584 
Q 2397 3584 2469 3576 
Q 2541 3569 2628 3553 
L 2631 2963 
z
" transform="scale(0.015625)"/>
     <path id="DejaVuSans-Oblique-3c4" d="M 2103 638 
Q 2188 488 2525 488 
L 2800 488 
L 2706 0 
L 2363 0 
Q 1800 0 1600 300 
Q 1403 606 1534 1269 
L 1856 2925 
L 541 2925 
L 653 3500 
L 3881 3500 
L 3769 2925 
L 2444 2925 
L 2113 1234 
Q 2025 781 2103 638 
z
" transform="scale(0.015625)"/>
     <path id="DejaVuSans-Oblique-72" d="M 2853 2969 
Q 2766 3016 2653 3041 
Q 2541 3066 2413 3066 
Q 1953 3066 1609 2717 
Q 1266 2369 1153 1784 
L 800 0 
L 225 0 
L 909 3500 
L 1484 3500 
L 1375 2956 
Q 1603 3259 1920 3421 
Q 2238 3584 2597 3584 
Q 2691 3584 2781 3573 
Q 2872 3563 2963 3538 
L 2853 2969 
z
" transform="scale(0.015625)"/>
     <path id="DejaVuSans-Oblique-65" d="M 3078 2063 
Q 3088 2113 3092 2166 
Q 3097 2219 3097 2272 
Q 3097 2653 2873 2875 
Q 2650 3097 2266 3097 
Q 1838 3097 1509 2826 
Q 1181 2556 1013 2059 
L 3078 2063 
z
M 3578 1613 
L 903 1613 
Q 884 1494 878 1425 
Q 872 1356 872 1306 
Q 872 872 1139 634 
Q 1406 397 1894 397 
Q 2269 397 2603 481 
Q 2938 566 3225 728 
L 3116 159 
Q 2806 34 2476 -28 
Q 2147 -91 1806 -91 
Q 1078 -91 686 257 
Q 294 606 294 1247 
Q 294 1794 489 2264 
Q 684 2734 1063 3103 
Q 1306 3334 1642 3459 
Q 1978 3584 2356 3584 
Q 2950 3584 3301 3228 
Q 3653 2872 3653 2272 
Q 3653 2128 3634 1964 
Q 3616 1800 3578 1613 
z
" transform="scale(0.015625)"/>
     <path id="DejaVuSans-Oblique-66" d="M 3059 4863 
L 2969 4384 
L 2419 4384 
Q 2106 4384 1964 4261 
Q 1822 4138 1753 3809 
L 1691 3500 
L 2638 3500 
L 2553 3053 
L 1606 3053 
L 1013 0 
L 434 0 
L 1031 3053 
L 481 3053 
L 563 3500 
L 1113 3500 
L 1159 3744 
Q 1278 4363 1576 4613 
Q 1875 4863 2516 4863 
L 3059 4863 
z
" transform="scale(0.015625)"/>
     <path id="DejaVuSans-3a" d="M 750 794 
L 1409 794 
L 1409 0 
L 750 0 
L 750 794 
z
M 750 3309 
L 1409 3309 
L 1409 2516 
L 750 2516 
L 750 3309 
z
" transform="scale(0.015625)"/>
    </defs>
    <use xlink:href="#DejaVuSans-Oblique-78" transform="translate(0 0.828125)"/>
    <use xlink:href="#DejaVuSans-20" transform="translate(59.179688 0.828125)"/>
    <use xlink:href="#DejaVuSans-61" transform="translate(90.966797 0.828125)"/>
    <use xlink:href="#DejaVuSans-6e" transform="translate(152.246094 0.828125)"/>
    <use xlink:href="#DejaVuSans-64" transform="translate(215.625 0.828125)"/>
    <use xlink:href="#DejaVuSans-20" transform="translate(279.101562 0.828125)"/>
    <use xlink:href="#DejaVuSans-302" transform="translate(373.261719 12.015625)"/>
    <use xlink:href="#DejaVuSans-Oblique-78" transform="translate(310.888672 0.828125)"/>
    <use xlink:href="#DejaVuSans-20" transform="translate(370.068359 0.828125)"/>
    <use xlink:href="#DejaVuSans-66" transform="translate(401.855469 0.828125)"/>
    <use xlink:href="#DejaVuSans-6f" transform="translate(437.060547 0.828125)"/>
    <use xlink:href="#DejaVuSans-72" transform="translate(498.242188 0.828125)"/>
    <use xlink:href="#DejaVuSans-20" transform="translate(539.355469 0.828125)"/>
    <use xlink:href="#DejaVuSans-Oblique-3c4" transform="translate(571.142578 0.828125)"/>
    <use xlink:href="#DejaVuSans-Oblique-72" transform="translate(631.347656 -15.578125) scale(0.7)"/>
    <use xlink:href="#DejaVuSans-Oblique-65" transform="translate(660.126953 -15.578125) scale(0.7)"/>
    <use xlink:href="#DejaVuSans-Oblique-66" transform="translate(703.193359 -15.578125) scale(0.7)"/>
    <use xlink:href="#DejaVuSans-3a" transform="translate(730.571289 0.828125)"/>
    <use xlink:href="#DejaVuSans-20" transform="translate(764.262695 0.828125)"/>
    <use xlink:href="#DejaVuSans-30" transform="translate(796.049805 0.828125)"/>
    <use xlink:href="#DejaVuSans-2e" transform="translate(859.672852 0.828125)"/>
    <use xlink:href="#DejaVuSans-30" transform="translate(891.459961 0.828125)"/>
    <use xlink:href="#DejaVuSans-30" transform="translate(955.083008 0.828125)"/>
    <use xlink:href="#DejaVuSans-35" transform="translate(1018.706055 0.828125)"/>
   </g>
  </g>
 </g>
 <defs>
  <clipPath id="p52b2a54a7d">
   <rect x="44.845313" y="36" width="334.8" height="217.44"/>
  </clipPath>
 </defs>
</svg>
