<?xml version="1.0" encoding="utf-8" standalone="no"?>
<!DOCTYPE svg PUBLIC "-//W3C//DTD SVG 1.1//EN"
  "http://www.w3.org/Graphics/SVG/1.1/DTD/svg11.dtd">
<svg xmlns:xlink="http://www.w3.org/1999/xlink" width="386.845313pt" height="277.318125pt" viewBox="0 0 386.845313 277.318125" xmlns="http://www.w3.org/2000/svg" version="1.1">
 <metadata>
  <rdf:RDF xmlns:dc="http://purl.org/dc/elements/1.1/" xmlns:cc="http://creativecommons.org/ns#" xmlns:rdf="http://www.w3.org/1999/02/22-rdf-syntax-ns#">
   <cc:Work>
    <dc:type rdf:resource="http://purl.org/dc/dcmitype/StillImage"/>
    <dc:date>2022-11-14T18:34:10.659096</dc:date>
    <dc:format>image/svg+xml</dc:format>
    <dc:creator>
     <cc:Agent>
      <dc:title>Matplotlib v3.6.0, https://matplotlib.org/</dc:title>
     </cc:Agent>
    </dc:creator>
   </cc:Work>
  </rdf:RDF>
 </metadata>
 <defs>
  <style type="text/css">*{stroke-linejoin: round; stroke-linecap: butt}</style>
 </defs>
 <g id="figure_1">
  <g id="patch_1">
   <path d="M 0 277.318125 
L 386.845313 277.318125 
L 386.845313 0 
L 0 0 
L 0 277.318125 
z
" style="fill: none"/>
  </g>
  <g id="axes_1">
   <g id="patch_2">
    <path d="M 44.845313 253.44 
L 379.645313 253.44 
L 379.645313 36 
L 44.845313 36 
z
" style="fill: #ffffff"/>
   </g>
   <g id="matplotlib.axis_1">
    <g id="xtick_1">
     <g id="line2d_1">
      <defs>
       <path id="ma4d86bc5ec" d="M 0 0 
L 0 3.5 
" style="stroke: #000000; stroke-width: 0.8"/>
      </defs>
      <g>
       <use xlink:href="#ma4d86bc5ec" x="59.698727" y="253.44" style="stroke: #000000; stroke-width: 0.8"/>
      </g>
     </g>
     <g id="text_1">
      <!-- −1.00 -->
      <g transform="translate(44.376071 268.038437) scale(0.1 -0.1)">
       <defs>
        <path id="DejaVuSans-2212" d="M 678 2272 
L 4684 2272 
L 4684 1741 
L 678 1741 
L 678 2272 
z
" transform="scale(0.015625)"/>
        <path id="DejaVuSans-31" d="M 794 531 
L 1825 531 
L 1825 4091 
L 703 3866 
L 703 4441 
L 1819 4666 
L 2450 4666 
L 2450 531 
L 3481 531 
L 3481 0 
L 794 0 
L 794 531 
z
" transform="scale(0.015625)"/>
        <path id="DejaVuSans-2e" d="M 684 794 
L 1344 794 
L 1344 0 
L 684 0 
L 684 794 
z
" transform="scale(0.015625)"/>
        <path id="DejaVuSans-30" d="M 2034 4250 
Q 1547 4250 1301 3770 
Q 1056 3291 1056 2328 
Q 1056 1369 1301 889 
Q 1547 409 2034 409 
Q 2525 409 2770 889 
Q 3016 1369 3016 2328 
Q 3016 3291 2770 3770 
Q 2525 4250 2034 4250 
z
M 2034 4750 
Q 2819 4750 3233 4129 
Q 3647 3509 3647 2328 
Q 3647 1150 3233 529 
Q 2819 -91 2034 -91 
Q 1250 -91 836 529 
Q 422 1150 422 2328 
Q 422 3509 836 4129 
Q 1250 4750 2034 4750 
z
" transform="scale(0.015625)"/>
       </defs>
       <use xlink:href="#DejaVuSans-2212"/>
       <use xlink:href="#DejaVuSans-31" x="83.789062"/>
       <use xlink:href="#DejaVuSans-2e" x="147.412109"/>
       <use xlink:href="#DejaVuSans-30" x="179.199219"/>
       <use xlink:href="#DejaVuSans-30" x="242.822266"/>
      </g>
     </g>
    </g>
    <g id="xtick_2">
     <g id="line2d_2">
      <g>
       <use xlink:href="#ma4d86bc5ec" x="97.808299" y="253.44" style="stroke: #000000; stroke-width: 0.8"/>
      </g>
     </g>
     <g id="text_2">
      <!-- −0.75 -->
      <g transform="translate(82.485643 268.038437) scale(0.1 -0.1)">
       <defs>
        <path id="DejaVuSans-37" d="M 525 4666 
L 3525 4666 
L 3525 4397 
L 1831 0 
L 1172 0 
L 2766 4134 
L 525 4134 
L 525 4666 
z
" transform="scale(0.015625)"/>
        <path id="DejaVuSans-35" d="M 691 4666 
L 3169 4666 
L 3169 4134 
L 1269 4134 
L 1269 2991 
Q 1406 3038 1543 3061 
Q 1681 3084 1819 3084 
Q 2600 3084 3056 2656 
Q 3513 2228 3513 1497 
Q 3513 744 3044 326 
Q 2575 -91 1722 -91 
Q 1428 -91 1123 -41 
Q 819 9 494 109 
L 494 744 
Q 775 591 1075 516 
Q 1375 441 1709 441 
Q 2250 441 2565 725 
Q 2881 1009 2881 1497 
Q 2881 1984 2565 2268 
Q 2250 2553 1709 2553 
Q 1456 2553 1204 2497 
Q 953 2441 691 2322 
L 691 4666 
z
" transform="scale(0.015625)"/>
       </defs>
       <use xlink:href="#DejaVuSans-2212"/>
       <use xlink:href="#DejaVuSans-30" x="83.789062"/>
       <use xlink:href="#DejaVuSans-2e" x="147.412109"/>
       <use xlink:href="#DejaVuSans-37" x="179.199219"/>
       <use xlink:href="#DejaVuSans-35" x="242.822266"/>
      </g>
     </g>
    </g>
    <g id="xtick_3">
     <g id="line2d_3">
      <g>
       <use xlink:href="#ma4d86bc5ec" x="135.917871" y="253.44" style="stroke: #000000; stroke-width: 0.8"/>
      </g>
     </g>
     <g id="text_3">
      <!-- −0.50 -->
      <g transform="translate(120.595215 268.038437) scale(0.1 -0.1)">
       <use xlink:href="#DejaVuSans-2212"/>
       <use xlink:href="#DejaVuSans-30" x="83.789062"/>
       <use xlink:href="#DejaVuSans-2e" x="147.412109"/>
       <use xlink:href="#DejaVuSans-35" x="179.199219"/>
       <use xlink:href="#DejaVuSans-30" x="242.822266"/>
      </g>
     </g>
    </g>
    <g id="xtick_4">
     <g id="line2d_4">
      <g>
       <use xlink:href="#ma4d86bc5ec" x="174.027443" y="253.44" style="stroke: #000000; stroke-width: 0.8"/>
      </g>
     </g>
     <g id="text_4">
      <!-- −0.25 -->
      <g transform="translate(158.704787 268.038437) scale(0.1 -0.1)">
       <defs>
        <path id="DejaVuSans-32" d="M 1228 531 
L 3431 531 
L 3431 0 
L 469 0 
L 469 531 
Q 828 903 1448 1529 
Q 2069 2156 2228 2338 
Q 2531 2678 2651 2914 
Q 2772 3150 2772 3378 
Q 2772 3750 2511 3984 
Q 2250 4219 1831 4219 
Q 1534 4219 1204 4116 
Q 875 4013 500 3803 
L 500 4441 
Q 881 4594 1212 4672 
Q 1544 4750 1819 4750 
Q 2544 4750 2975 4387 
Q 3406 4025 3406 3419 
Q 3406 3131 3298 2873 
Q 3191 2616 2906 2266 
Q 2828 2175 2409 1742 
Q 1991 1309 1228 531 
z
" transform="scale(0.015625)"/>
       </defs>
       <use xlink:href="#DejaVuSans-2212"/>
       <use xlink:href="#DejaVuSans-30" x="83.789062"/>
       <use xlink:href="#DejaVuSans-2e" x="147.412109"/>
       <use xlink:href="#DejaVuSans-32" x="179.199219"/>
       <use xlink:href="#DejaVuSans-35" x="242.822266"/>
      </g>
     </g>
    </g>
    <g id="xtick_5">
     <g id="line2d_5">
      <g>
       <use xlink:href="#ma4d86bc5ec" x="212.137015" y="253.44" style="stroke: #000000; stroke-width: 0.8"/>
      </g>
     </g>
     <g id="text_5">
      <!-- 0.00 -->
      <g transform="translate(201.004202 268.038437) scale(0.1 -0.1)">
       <use xlink:href="#DejaVuSans-30"/>
       <use xlink:href="#DejaVuSans-2e" x="63.623047"/>
       <use xlink:href="#DejaVuSans-30" x="95.410156"/>
       <use xlink:href="#DejaVuSans-30" x="159.033203"/>
      </g>
     </g>
    </g>
    <g id="xtick_6">
     <g id="line2d_6">
      <g>
       <use xlink:href="#ma4d86bc5ec" x="250.246587" y="253.44" style="stroke: #000000; stroke-width: 0.8"/>
      </g>
     </g>
     <g id="text_6">
      <!-- 0.25 -->
      <g transform="translate(239.113774 268.038437) scale(0.1 -0.1)">
       <use xlink:href="#DejaVuSans-30"/>
       <use xlink:href="#DejaVuSans-2e" x="63.623047"/>
       <use xlink:href="#DejaVuSans-32" x="95.410156"/>
       <use xlink:href="#DejaVuSans-35" x="159.033203"/>
      </g>
     </g>
    </g>
    <g id="xtick_7">
     <g id="line2d_7">
      <g>
       <use xlink:href="#ma4d86bc5ec" x="288.356159" y="253.44" style="stroke: #000000; stroke-width: 0.8"/>
      </g>
     </g>
     <g id="text_7">
      <!-- 0.50 -->
      <g transform="translate(277.223346 268.038437) scale(0.1 -0.1)">
       <use xlink:href="#DejaVuSans-30"/>
       <use xlink:href="#DejaVuSans-2e" x="63.623047"/>
       <use xlink:href="#DejaVuSans-35" x="95.410156"/>
       <use xlink:href="#DejaVuSans-30" x="159.033203"/>
      </g>
     </g>
    </g>
    <g id="xtick_8">
     <g id="line2d_8">
      <g>
       <use xlink:href="#ma4d86bc5ec" x="326.465731" y="253.44" style="stroke: #000000; stroke-width: 0.8"/>
      </g>
     </g>
     <g id="text_8">
      <!-- 0.75 -->
      <g transform="translate(315.332918 268.038437) scale(0.1 -0.1)">
       <use xlink:href="#DejaVuSans-30"/>
       <use xlink:href="#DejaVuSans-2e" x="63.623047"/>
       <use xlink:href="#DejaVuSans-37" x="95.410156"/>
       <use xlink:href="#DejaVuSans-35" x="159.033203"/>
      </g>
     </g>
    </g>
    <g id="xtick_9">
     <g id="line2d_9">
      <g>
       <use xlink:href="#ma4d86bc5ec" x="364.575302" y="253.44" style="stroke: #000000; stroke-width: 0.8"/>
      </g>
     </g>
     <g id="text_9">
      <!-- 1.00 -->
      <g transform="translate(353.44249 268.038437) scale(0.1 -0.1)">
       <use xlink:href="#DejaVuSans-31"/>
       <use xlink:href="#DejaVuSans-2e" x="63.623047"/>
       <use xlink:href="#DejaVuSans-30" x="95.410156"/>
       <use xlink:href="#DejaVuSans-30" x="159.033203"/>
      </g>
     </g>
    </g>
   </g>
   <g id="matplotlib.axis_2">
    <g id="ytick_1">
     <g id="line2d_10">
      <defs>
       <path id="m0771771a2a" d="M 0 0 
L -3.5 0 
" style="stroke: #000000; stroke-width: 0.8"/>
      </defs>
      <g>
       <use xlink:href="#m0771771a2a" x="44.845313" y="244.301514" style="stroke: #000000; stroke-width: 0.8"/>
      </g>
     </g>
     <g id="text_10">
      <!-- −1.00 -->
      <g transform="translate(7.2 248.100732) scale(0.1 -0.1)">
       <use xlink:href="#DejaVuSans-2212"/>
       <use xlink:href="#DejaVuSans-31" x="83.789062"/>
       <use xlink:href="#DejaVuSans-2e" x="147.412109"/>
       <use xlink:href="#DejaVuSans-30" x="179.199219"/>
       <use xlink:href="#DejaVuSans-30" x="242.822266"/>
      </g>
     </g>
    </g>
    <g id="ytick_2">
     <g id="line2d_11">
      <g>
       <use xlink:href="#m0771771a2a" x="44.845313" y="219.373315" style="stroke: #000000; stroke-width: 0.8"/>
      </g>
     </g>
     <g id="text_11">
      <!-- −0.75 -->
      <g transform="translate(7.2 223.172534) scale(0.1 -0.1)">
       <use xlink:href="#DejaVuSans-2212"/>
       <use xlink:href="#DejaVuSans-30" x="83.789062"/>
       <use xlink:href="#DejaVuSans-2e" x="147.412109"/>
       <use xlink:href="#DejaVuSans-37" x="179.199219"/>
       <use xlink:href="#DejaVuSans-35" x="242.822266"/>
      </g>
     </g>
    </g>
    <g id="ytick_3">
     <g id="line2d_12">
      <g>
       <use xlink:href="#m0771771a2a" x="44.845313" y="194.445117" style="stroke: #000000; stroke-width: 0.8"/>
      </g>
     </g>
     <g id="text_12">
      <!-- −0.50 -->
      <g transform="translate(7.2 198.244335) scale(0.1 -0.1)">
       <use xlink:href="#DejaVuSans-2212"/>
       <use xlink:href="#DejaVuSans-30" x="83.789062"/>
       <use xlink:href="#DejaVuSans-2e" x="147.412109"/>
       <use xlink:href="#DejaVuSans-35" x="179.199219"/>
       <use xlink:href="#DejaVuSans-30" x="242.822266"/>
      </g>
     </g>
    </g>
    <g id="ytick_4">
     <g id="line2d_13">
      <g>
       <use xlink:href="#m0771771a2a" x="44.845313" y="169.516918" style="stroke: #000000; stroke-width: 0.8"/>
      </g>
     </g>
     <g id="text_13">
      <!-- −0.25 -->
      <g transform="translate(7.2 173.316137) scale(0.1 -0.1)">
       <use xlink:href="#DejaVuSans-2212"/>
       <use xlink:href="#DejaVuSans-30" x="83.789062"/>
       <use xlink:href="#DejaVuSans-2e" x="147.412109"/>
       <use xlink:href="#DejaVuSans-32" x="179.199219"/>
       <use xlink:href="#DejaVuSans-35" x="242.822266"/>
      </g>
     </g>
    </g>
    <g id="ytick_5">
     <g id="line2d_14">
      <g>
       <use xlink:href="#m0771771a2a" x="44.845313" y="144.58872" style="stroke: #000000; stroke-width: 0.8"/>
      </g>
     </g>
     <g id="text_14">
      <!-- 0.00 -->
      <g transform="translate(15.579688 148.387938) scale(0.1 -0.1)">
       <use xlink:href="#DejaVuSans-30"/>
       <use xlink:href="#DejaVuSans-2e" x="63.623047"/>
       <use xlink:href="#DejaVuSans-30" x="95.410156"/>
       <use xlink:href="#DejaVuSans-30" x="159.033203"/>
      </g>
     </g>
    </g>
    <g id="ytick_6">
     <g id="line2d_15">
      <g>
       <use xlink:href="#m0771771a2a" x="44.845313" y="119.660521" style="stroke: #000000; stroke-width: 0.8"/>
      </g>
     </g>
     <g id="text_15">
      <!-- 0.25 -->
      <g transform="translate(15.579688 123.45974) scale(0.1 -0.1)">
       <use xlink:href="#DejaVuSans-30"/>
       <use xlink:href="#DejaVuSans-2e" x="63.623047"/>
       <use xlink:href="#DejaVuSans-32" x="95.410156"/>
       <use xlink:href="#DejaVuSans-35" x="159.033203"/>
      </g>
     </g>
    </g>
    <g id="ytick_7">
     <g id="line2d_16">
      <g>
       <use xlink:href="#m0771771a2a" x="44.845313" y="94.732323" style="stroke: #000000; stroke-width: 0.8"/>
      </g>
     </g>
     <g id="text_16">
      <!-- 0.50 -->
      <g transform="translate(15.579688 98.531541) scale(0.1 -0.1)">
       <use xlink:href="#DejaVuSans-30"/>
       <use xlink:href="#DejaVuSans-2e" x="63.623047"/>
       <use xlink:href="#DejaVuSans-35" x="95.410156"/>
       <use xlink:href="#DejaVuSans-30" x="159.033203"/>
      </g>
     </g>
    </g>
    <g id="ytick_8">
     <g id="line2d_17">
      <g>
       <use xlink:href="#m0771771a2a" x="44.845313" y="69.804124" style="stroke: #000000; stroke-width: 0.8"/>
      </g>
     </g>
     <g id="text_17">
      <!-- 0.75 -->
      <g transform="translate(15.579688 73.603343) scale(0.1 -0.1)">
       <use xlink:href="#DejaVuSans-30"/>
       <use xlink:href="#DejaVuSans-2e" x="63.623047"/>
       <use xlink:href="#DejaVuSans-37" x="95.410156"/>
       <use xlink:href="#DejaVuSans-35" x="159.033203"/>
      </g>
     </g>
    </g>
    <g id="ytick_9">
     <g id="line2d_18">
      <g>
       <use xlink:href="#m0771771a2a" x="44.845313" y="44.875926" style="stroke: #000000; stroke-width: 0.8"/>
      </g>
     </g>
     <g id="text_18">
      <!-- 1.00 -->
      <g transform="translate(15.579688 48.675145) scale(0.1 -0.1)">
       <use xlink:href="#DejaVuSans-31"/>
       <use xlink:href="#DejaVuSans-2e" x="63.623047"/>
       <use xlink:href="#DejaVuSans-30" x="95.410156"/>
       <use xlink:href="#DejaVuSans-30" x="159.033203"/>
      </g>
     </g>
    </g>
   </g>
   <g id="line2d_19">
    <path d="M 281.500702 99.315623 
L 270.118643 106.634832 
L 295.321774 90.269492 
L 232.313948 131.378592 
L 216.460366 141.49396 
L 361.175114 47.632186 
L 329.874452 67.671233 
L 67.380532 239.078919 
L 335.565482 64.168337 
L 132.014366 196.849245 
L 361.581616 47.413617 
L 195.835196 155.271282 
L 337.19149 63.049836 
L 71.445553 236.394373 
L 256.297572 115.9491 
L 171.44507 170.829047 
L 65.348022 240.379878 
L 348.573549 55.273403 
L 319.7119 74.483131 
L 109.250248 212.002782 
L 214.021354 142.979684 
L 292.069757 92.447116 
L 218.899379 140.007109 
L 257.92358 114.731905 
L 66.97403 239.339827 
L 281.907204 99.047132 
L 119.819303 204.788111 
L 363.614126 46.325727 
L 80.388599 230.316567 
L 219.305881 139.719889 
L 107.217738 213.314304 
L 133.640374 195.779495 
L 144.209429 189.236423 
L 324.589925 71.15342 
L 118.193295 205.879773 
L 86.486131 226.388762 
L 147.461446 187.184938 
L 325.402929 70.615153 
L 136.079387 194.294065 
L 101.933211 216.683735 
L 77.136583 232.463573 
L 259.143087 113.847765 
L 263.208108 111.044686 
L 259.549589 113.51699 
L 110.469755 211.20892 
L 97.055185 219.783457 
L 344.91503 57.681998 
L 338.410996 62.208068 
L 296.134778 89.71958 
L 118.599797 205.615441 
L 299.386795 87.715472 
L 314.833874 77.566631 
L 185.672643 161.97098 
L 346.541038 56.584992 
L 166.973547 173.99937 
L 227.435923 134.572231 
L 301.825807 86.085444 
L 90.551152 223.89136 
L 95.429177 220.798413 
L 201.119723 151.547299 
L 69.819545 237.486776 
L 176.729597 167.572598 
L 322.150912 72.794422 
L 251.826049 118.890895 
L 237.598475 127.899634 
L 354.264578 51.694525 
L 261.988601 111.83355 
L 99.087696 218.499531 
L 70.632549 236.943999 
L 253.045555 118.141206 
L 123.07132 202.576255 
L 64.535017 240.917556 
L 210.469271 145.15224 
L 302.232309 85.819096 
L 179.16861 166.06138 
L 162.502024 177.319804 
L 93.803169 221.804286 
L 269.712141 106.893147 
L 164.941036 175.496942 
L 206.810753 147.794615 
L 245.728517 122.771182 
L 353.858076 51.956778 
L 238.41148 127.397695 
L 199.900217 152.37955 
L 115.34778 207.890767 
L 293.289263 91.581419 
L 127.949345 199.47081 
L 316.866385 76.301733 
L 157.217496 181.041643 
L 183.640133 163.265654 
L 76.73008 232.736524 
L 101.526709 216.929898 
L 70.226047 237.216215 
L 294.102267 91.057309 
L 120.632307 204.23679 
L 360.768612 47.851388 
L 222.151396 137.847589 
L 294.508769 90.795602 
L 348.167047 55.53377 
L 339.630503 61.317751 
L 60.876499 243.107764 
L 227.842425 134.32074 
L 117.38029 206.479892 
L 304.671322 84.236422 
L 171.038568 171.079158 
L 148.27445 186.687967 
L 75.917076 233.277386 
L 117.786793 206.150942 
L 292.476259 92.112981 
L 149.087454 186.189943 
L 224.99691 136.086812 
L 196.6482 154.704783 
L 96.648683 220.038128 
L 172.258074 170.328903 
L 98.681194 218.757871 
L 334.345975 64.919163 
L 73.478064 234.987124 
L 297.354284 88.936858 
L 168.193053 173.077922 
L 193.802685 156.687437 
L 209.656267 145.750336 
L 207.217255 147.505543 
L 64.94152 240.672821 
L 103.559219 215.693143 
L 333.126469 65.661833 
L 154.371982 182.919794 
L 336.378486 63.627944 
L 359.955608 48.29182 
L 254.265061 117.393288 
L 213.208349 143.475524 
L 331.500461 66.661057 
L 260.362593 112.945372 
L 342.476017 59.356263 
L 231.500944 131.952014 
L 120.225805 204.510487 
L 302.638811 85.553633 
L 217.679872 140.75109 
L 150.306961 185.440623 
L 198.680711 153.277746 
L 341.663013 59.904271 
L 133.233872 196.040447 
L 137.298893 193.582474 
L 142.176919 190.491234 
L 165.75404 174.886512 
L 147.054944 187.433099 
L 317.272887 76.047106 
L 84.45362 227.615242 
L 105.185227 214.616924 
L 229.468433 133.311474 
L 364.020629 46.094343 
L 153.152475 183.680038 
L 211.688778 144.404075 
L 114.128274 208.722582 
L 262.801606 111.307192 
L 75.510574 233.545406 
L 141.363914 190.977702 
L 307.923339 82.155773 
L 202.339229 150.725783 
L 140.957412 191.220591 
L 348.980051 55.013966 
L 233.533454 130.55886 
L 355.077582 51.200162 
L 204.778242 149.102935 
L 176.323095 167.823829 
L 192.989681 157.258959 
L 234.752961 129.735638 
L 359.142603 48.735103 
L 153.96548 183.173609 
L 264.021112 110.520952 
L 293.695765 91.319092 
L 85.266625 227.125694 
L 313.207866 78.606938 
L 100.307202 217.717334 
L 119.412801 205.096446 
L 144.615931 188.974613 
L 272.557656 105.059593 
L 64.128515 241.161202 
L 147.867948 186.936572 
L 206.40425 148.095492 
L 233.939956 130.28708 
L 323.370419 71.967512 
L 275.403171 103.286027 
L 150.713463 185.190189 
L 91.364156 223.303153 
L 273.37066 104.549459 
L 93.396667 222.054559 
L 205.591246 148.60019 
L 205.184744 148.851735 
L 312.801364 78.868126 
L 162.908526 177.033792 
L 91.770658 223.053046 
L 153.558977 183.427022 
L 102.746215 216.189638 
L 177.136099 167.321199 
L 357.923097 49.475502 
L 321.337908 73.404956 
L 151.119965 184.939409 
L 357.516595 49.712884 
L 362.39462 46.978148 
L 158.437003 180.157116 
L 312.394862 79.128307 
L 110.876257 210.943019 
L 304.26482 84.498682 
L 175.916593 168.074898 
L 196.241698 154.988161 
L 323.776921 71.695153 
L 95.835679 220.545585 
L 318.492393 75.277044 
L 205.997748 148.348173 
L 354.67108 51.447299 
L 131.607864 197.112674 
L 329.46795 67.925565 
L 192.583179 157.5498 
L 310.362351 80.517871 
L 123.884324 202.041485 
L 203.965238 149.645778 
L 350.199557 54.240998 
L 288.81774 94.550234 
L 182.014124 164.287776 
L 213.614851 143.227543 
L 300.606301 86.89405 
L 284.752719 97.182274 
L 160.063011 179.021424 
L 283.533213 97.978732 
L 164.534534 175.824493 
L 88.112139 225.3987 
L 250.606543 119.642712 
L 265.64712 109.478266 
L 240.44399 126.14846 
L 135.266383 194.766322 
L 60.469996 243.33261 
L 180.388116 165.302901 
L 137.705395 193.276211 
L 128.762349 198.937292 
L 332.313465 66.160119 
L 295.728276 89.971904 
L 215.647362 141.989058 
L 194.61569 156.120245 
L 135.672885 194.530394 
L 311.581858 79.70597 
L 210.062769 145.433892 
L 347.760545 55.79509 
L 116.160784 207.331717 
L 335.158979 64.427045 
L 236.378969 128.649716 
L 195.428694 155.554257 
L 134.453379 195.23703 
L 303.045314 85.288927 
L 152.339471 184.18491 
L 224.590408 136.332622 
L 68.600038 238.289126 
L 190.957171 158.721022 
L 95.022675 221.05067 
L 308.736343 81.606152 
L 149.493956 185.940489 
L 136.892391 193.820128 
L 328.248444 68.752207 
L 125.916835 200.725642 
L 215.24086 142.236632 
L 141.770417 190.734598 
L 208.030259 146.908499 
L 84.047118 227.901324 
L 282.720208 98.511913 
L 200.306719 152.09218 
L 130.388358 197.896167 
L 214.427856 142.731926 
L 346.134536 56.850353 
L 94.209671 221.553575 
L 104.778725 214.879837 
L 338.817498 61.920236 
L 352.63857 52.71598 
L 327.43544 69.282014 
L 75.104072 233.811881 
L 291.663255 92.714789 
L 97.461688 219.528126 
L 255.484568 116.514826 
L 145.835438 188.19958 
L 220.525387 138.914918 
L 330.280954 67.417626 
L 165.347538 175.205723 
L 253.858559 117.642422 
L 84.860122 227.37057 
L 301.012803 86.621965 
L 361.988118 47.19563 
L 248.16753 121.154204 
L 340.037005 61.025629 
L 242.476501 124.940753 
L 248.980534 120.649051 
L 221.338391 138.352373 
L 353.045072 52.463709 
L 345.728034 57.116791 
L 308.329841 81.897563 
L 338.004494 62.487806 
L 169.006057 172.471212 
L 158.030501 180.447563 
L 174.697087 168.827225 
L 292.882761 91.845056 
L 67.787034 238.816912 
L 332.719967 65.91065 
L 351.419063 53.475427 
L 98.274692 219.015374 
L 212.801847 143.723652 
L 140.55091 191.463319 
L 163.315028 176.746028 
L 241.256994 125.664843 
L 180.794618 165.049571 
L 329.061448 68.220669 
L 125.510332 200.975285 
L 134.859881 195.001862 
L 99.494198 218.24023 
L 327.028937 69.547434 
L 314.427372 77.820166 
L 346.94754 56.320678 
L 143.396425 189.759159 
L 355.890587 50.703374 
L 349.793055 54.49779 
L 62.502507 242.127459 
L 124.697328 201.473379 
L 69.006541 238.023169 
L 124.290826 201.76915 
L 311.98836 79.431871 
L 241.663496 125.423313 
L 62.096005 242.36869 
L 230.281438 132.778692 
L 220.931889 138.647321 
L 79.169093 231.05834 
L 224.183906 136.577916 
L 246.135019 122.504106 
L 314.02087 78.074081 
L 318.898895 75.032826 
L 218.086375 140.503285 
L 122.664818 202.866318 
L 145.022433 188.717289 
L 173.071078 169.828659 
L 105.998232 214.095942 
L 270.525145 106.375041 
L 87.705637 225.647136 
L 320.931406 73.672854 
L 255.89107 116.230024 
L 303.451816 85.0249 
L 155.99799 181.900391 
L 249.793538 120.145273 
L 146.648442 187.681099 
L 82.42111 229.021165 
L 60.063494 243.556364 
L 61.283001 242.881809 
L 277.435681 102.033347 
L 99.9007 217.979718 
L 303.858318 84.761498 
L 164.128032 176.120589 
L 260.769095 112.626714 
L 108.437244 212.529004 
L 289.224242 94.288431 
L 126.729839 200.225081 
L 309.549347 81.05935 
L 250.20004 119.893848 
L 239.224484 126.875455 
L 280.281196 100.12583 
L 340.850009 60.456418 
L 264.834116 109.998843 
L 317.679389 75.766555 
L 197.867706 153.851721 
L 217.27337 140.99878 
L 138.924902 192.50605 
L 96.242181 220.292164 
L 257.110576 115.322226 
L 347.354042 56.057386 
L 343.289021 58.811797 
L 182.420627 164.033118 
L 188.518158 160.226095 
L 258.736585 114.144187 
L 190.550669 158.972518 
L 63.722013 241.403848 
L 257.517078 115.026146 
L 179.981614 165.555969 
L 249.387036 120.397001 
L 208.843263 146.309166 
L 207.623757 147.223809 
L 247.761028 121.407364 
L 115.754282 207.611776 
L 204.37174 149.353886 
L 344.102026 58.246509 
L 121.851814 203.418397 
L 266.460124 108.959124 
L 146.24194 187.929001 
L 139.331404 192.252015 
L 159.250007 179.587517 
L 152.745973 183.932666 
L 273.777162 104.2957 
L 73.071562 235.272644 
L 155.184986 182.410935 
L 101.120206 217.175478 
L 345.321532 57.384348 
L 173.884082 169.328141 
L 307.516837 82.414345 
L 290.037246 93.765076 
L 140.144408 191.739081 
L 353.451574 52.211348 
L 225.403412 135.839893 
L 269.305639 107.151017 
L 216.866868 141.246393 
L 112.095763 210.096454 
L 333.532971 65.413656 
L 116.973788 206.767004 
L 327.841942 69.017007 
L 72.258557 235.837425 
L 331.093958 66.912548 
L 129.168851 198.67583 
L 185.266141 162.21935 
L 235.565965 129.170861 
L 288.004736 95.074377 
L 112.502265 209.822469 
L 279.874694 100.398283 
L 131.201362 197.374683 
L 202.745732 150.459087 
L 90.14465 224.145263 
L 108.843746 212.266181 
L 74.291068 234.409186 
L 279.06169 100.953388 
L 155.591488 182.155877 
L 351.825566 53.221692 
L 168.599555 172.775832 
L 280.687698 99.854803 
L 78.356089 231.633404 
L 210.875774 144.902422 
L 237.191973 128.149698 
L 325.809431 70.347192 
L 228.655429 133.78136 
L 324.183423 71.423822 
L 169.819061 171.926487 
L 160.469513 178.738608 
L 184.453137 162.745249 
L 287.191732 95.599474 
L 246.541522 122.236857 
L 85.673127 226.880487 
L 111.689261 210.370583 
L 356.297089 50.420939 
L 316.053381 76.807708 
L 209.249765 146.030691 
L 364.427131 45.883636 
L 279.468192 100.673061 
L 161.689019 177.888882 
L 175.103589 168.576587 
L 190.144166 159.223746 
L 71.039051 236.670071 
L 229.874935 133.07689 
L 107.62424 213.053029 
L 208.436761 146.590842 
L 69.413043 237.755741 
L 81.608106 229.538629 
L 86.892633 226.142133 
L 326.215933 70.079952 
L 244.102509 123.873766 
L 221.744893 138.100195 
L 251.013045 119.391849 
L 175.510091 168.325814 
L 143.802927 189.514317 
L 125.10383 201.224524 
L 79.982097 230.564786 
L 186.485648 161.473583 
L 283.126711 98.245086 
L 71.852055 236.116845 
L 193.396183 156.97228 
L 200.713221 151.806375 
L 344.508528 57.96597 
L 243.289505 124.39824 
L 94.616173 221.302381 
L 322.963916 72.241077 
L 122.258316 203.144086 
L 363.207624 46.543962 
L 246.948024 121.968063 
L 357.110093 49.948986 
L 103.965721 215.413564 
L 243.696007 124.134076 
L 171.851572 170.578974 
L 158.843505 179.871488 
L 359.549105 48.513096 
L 274.183664 104.042545 
L 188.92466 159.975883 
L 301.419305 86.352905 
L 186.079145 161.722393 
L 173.47758 169.578443 
L 151.932969 184.436777 
L 127.136341 199.974131 
L 142.583421 190.247567 
L 358.329599 49.211766 
L 225.809914 135.588303 
L 214.834358 142.484248 
L 177.949103 166.817861 
L 309.142845 81.33143 
L 254.671564 117.110061 
L 248.574032 120.901443 
L 61.689503 242.613784 
L 305.077824 83.974693 
L 291.256753 92.978718 
L 264.427614 110.2597 
L 288.411238 94.812202 
L 199.087213 152.986307 
L 188.111656 160.476063 
L 88.925143 224.89977 
L 191.363673 158.469254 
L 251.419547 119.141248 
L 266.053622 109.218522 
L 160.876015 178.455676 
L 305.890828 83.452744 
L 351.012561 53.729856 
L 92.17716 222.803512 
L 166.567045 174.297336 
L 330.687456 67.164734 
L 189.331162 159.725424 
L 73.884566 234.699373 
L 229.061931 133.546266 
L 201.526225 151.261063 
L 74.69757 234.115899 
L 106.404734 213.835662 
L 278.248685 101.534836 
L 110.063253 211.474169 
L 156.404492 181.644471 
L 240.850492 125.906554 
L 151.526467 184.688274 
L 298.57379 88.202784 
L 263.61461 110.782611 
L 235.972467 128.899927 
L 328.654946 68.487186 
L 197.054702 154.421027 
L 211.282276 144.653066 
L 247.354526 121.687105 
L 89.331646 224.64918 
L 138.5184 192.760261 
L 129.575353 198.415871 
L 362.801122 46.761032 
L 197.461204 154.136744 
L 342.882519 59.083636 
L 252.639053 118.390886 
L 219.712383 139.446504 
L 265.240618 109.738369 
L 212.09528 144.155378 
L 222.9644 137.332208 
L 319.305398 74.759872 
L 331.906963 66.41025 
L 116.567286 207.050324 
L 276.216175 102.78381 
L 105.59173 214.356209 
L 182.827129 163.777987 
L 78.762591 231.351409 
L 349.386553 54.755437 
L 103.152717 215.941693 
L 136.485889 194.057316 
L 326.622435 69.813387 
L 320.524904 73.940546 
L 169.412559 172.199208 
L 296.947782 89.212734 
L 63.315511 241.645618 
L 121.038809 203.964098 
L 261.175597 112.361814 
L 65.754524 240.118574 
L 218.492877 140.255314 
L 104.372223 215.156574 
L 113.315269 209.273588 
L 313.614368 78.328413 
L 360.36211 48.071257 
L 167.786551 173.400803 
L 242.069998 125.181955 
L 271.33815 105.840124 
L 294.915272 90.533412 
L 270.931648 106.090414 
L 149.900459 185.690719 
L 192.176677 157.884356 
L 343.695524 58.528784 
L 167.380049 173.680192 
L 187.705154 160.725793 
L 119.006299 205.355676 
L 336.784988 63.334362 
L 81.201604 229.817158 
L 285.565723 96.653283 
L 106.811236 213.575156 
L 142.989923 190.003558 
L 161.282517 178.172481 
L 132.82737 196.298444 
L 66.567528 239.599819 
L 356.703591 50.184871 
L 212.395345 143.971956 
L 256.704074 115.623868 
L 129.981856 198.156124 
L 77.543085 232.188842 
L 138.111898 193.015833 
L 286.78523 95.862446 
L 80.795101 230.067365 
L 259.956091 113.233414 
L 72.665059 235.556049 
L 226.216417 135.329598 
L 255.078066 116.846148 
L 83.640616 228.174878 
L 109.656751 211.738784 
L 321.74441 73.134182 
L 159.656509 179.304307 
L 309.955849 80.788335 
L 154.778484 182.665572 
L 123.477822 202.309702 
L 277.029179 102.283134 
L 79.575595 230.812038 
L 355.484084 50.952633 
L 90.957654 223.583339 
L 350.606059 53.985032 
L 234.346459 130.013991 
L 286.378727 96.125726 
L 148.680952 186.439097 
L 283.939715 97.712826 
L 268.086133 107.924617 
L 316.459883 76.554912 
L 108.030742 212.791276 
L 245.322015 123.03886 
L 83.234114 228.447561 
L 305.484326 83.713473 
L 227.029421 134.847196 
L 97.86819 219.27211 
L 268.492635 107.666623 
L 334.752477 64.672817 
L 310.768853 80.247621 
L 114.534776 208.446084 
L 156.810994 181.361757 
L 127.542843 199.722713 
L 77.949587 231.912209 
L 311.175356 79.97721 
L 266.866627 108.700056 
L 170.225564 171.651304 
L 252.232551 118.640779 
L 139.737906 191.997175 
L 222.557898 137.59368 
L 187.298652 160.975287 
L 231.907446 131.690168 
L 191.770175 158.165191 
L 172.664576 170.078806 
L 145.428935 188.460108 
L 320.118402 74.209318 
L 194.209187 156.40357 
L 223.777404 136.82294 
L 340.443507 60.734213 
L 128.355847 199.218402 
L 342.069515 59.629782 
L 163.72153 176.454584 
L 189.737664 159.474713 
L 111.282759 210.646099 
L 240.037488 126.390572 
L 262.395103 111.570142 
L 285.972225 96.389333 
L 66.161026 239.859196 
L 233.126952 130.830593 
L 100.713704 217.449682 
L 339.224 61.60512 
L 337.597992 62.768171 
L 170.632066 171.358724 
L 126.323337 200.47558 
L 76.323578 233.007776 
L 267.679631 108.182828 
L 358.736101 48.982239 
L 157.623998 180.760377 
L 162.095522 177.604725 
L 134.046877 195.503604 
L 253.452057 117.891722 
L 244.915513 123.308144 
" clip-path="url(#p047e84f1f8)" style="fill: none; stroke: #1f77b4; stroke-width: 1.5; stroke-linecap: square"/>
   </g>
   <g id="patch_3">
    <path d="M 44.845313 253.44 
L 44.845313 36 
" style="fill: none; stroke: #000000; stroke-width: 0.8; stroke-linejoin: miter; stroke-linecap: square"/>
   </g>
   <g id="patch_4">
    <path d="M 379.645313 253.44 
L 379.645313 36 
" style="fill: none; stroke: #000000; stroke-width: 0.8; stroke-linejoin: miter; stroke-linecap: square"/>
   </g>
   <g id="patch_5">
    <path d="M 44.845313 253.44 
L 379.645313 253.44 
" style="fill: none; stroke: #000000; stroke-width: 0.8; stroke-linejoin: miter; stroke-linecap: square"/>
   </g>
   <g id="patch_6">
    <path d="M 44.845313 36 
L 379.645313 36 
" style="fill: none; stroke: #000000; stroke-width: 0.8; stroke-linejoin: miter; stroke-linecap: square"/>
   </g>
  </g>
  <g id="text_19">
   <!-- $x$ and $\hat{x}$ for $\tau_{rc}$: 0.1 -->
   <g transform="translate(151.285313 17.904375) scale(0.12 -0.12)">
    <defs>
     <path id="DejaVuSans-Oblique-78" d="M 3841 3500 
L 2234 1784 
L 3219 0 
L 2559 0 
L 1819 1388 
L 531 0 
L -166 0 
L 1556 1844 
L 641 3500 
L 1300 3500 
L 1972 2234 
L 3144 3500 
L 3841 3500 
z
" transform="scale(0.015625)"/>
     <path id="DejaVuSans-20" transform="scale(0.015625)"/>
     <path id="DejaVuSans-61" d="M 2194 1759 
Q 1497 1759 1228 1600 
Q 959 1441 959 1056 
Q 959 750 1161 570 
Q 1363 391 1709 391 
Q 2188 391 2477 730 
Q 2766 1069 2766 1631 
L 2766 1759 
L 2194 1759 
z
M 3341 1997 
L 3341 0 
L 2766 0 
L 2766 531 
Q 2569 213 2275 61 
Q 1981 -91 1556 -91 
Q 1019 -91 701 211 
Q 384 513 384 1019 
Q 384 1609 779 1909 
Q 1175 2209 1959 2209 
L 2766 2209 
L 2766 2266 
Q 2766 2663 2505 2880 
Q 2244 3097 1772 3097 
Q 1472 3097 1187 3025 
Q 903 2953 641 2809 
L 641 3341 
Q 956 3463 1253 3523 
Q 1550 3584 1831 3584 
Q 2591 3584 2966 3190 
Q 3341 2797 3341 1997 
z
" transform="scale(0.015625)"/>
     <path id="DejaVuSans-6e" d="M 3513 2113 
L 3513 0 
L 2938 0 
L 2938 2094 
Q 2938 2591 2744 2837 
Q 2550 3084 2163 3084 
Q 1697 3084 1428 2787 
Q 1159 2491 1159 1978 
L 1159 0 
L 581 0 
L 581 3500 
L 1159 3500 
L 1159 2956 
Q 1366 3272 1645 3428 
Q 1925 3584 2291 3584 
Q 2894 3584 3203 3211 
Q 3513 2838 3513 2113 
z
" transform="scale(0.015625)"/>
     <path id="DejaVuSans-64" d="M 2906 2969 
L 2906 4863 
L 3481 4863 
L 3481 0 
L 2906 0 
L 2906 525 
Q 2725 213 2448 61 
Q 2172 -91 1784 -91 
Q 1150 -91 751 415 
Q 353 922 353 1747 
Q 353 2572 751 3078 
Q 1150 3584 1784 3584 
Q 2172 3584 2448 3432 
Q 2725 3281 2906 2969 
z
M 947 1747 
Q 947 1113 1208 752 
Q 1469 391 1925 391 
Q 2381 391 2643 752 
Q 2906 1113 2906 1747 
Q 2906 2381 2643 2742 
Q 2381 3103 1925 3103 
Q 1469 3103 1208 2742 
Q 947 2381 947 1747 
z
" transform="scale(0.015625)"/>
     <path id="DejaVuSans-302" d="M -1831 5119 
L -1369 5119 
L -603 3944 
L -1038 3944 
L -1600 4709 
L -2163 3944 
L -2597 3944 
L -1831 5119 
z
M -1600 3584 
L -1600 3584 
z
" transform="scale(0.015625)"/>
     <path id="DejaVuSans-66" d="M 2375 4863 
L 2375 4384 
L 1825 4384 
Q 1516 4384 1395 4259 
Q 1275 4134 1275 3809 
L 1275 3500 
L 2222 3500 
L 2222 3053 
L 1275 3053 
L 1275 0 
L 697 0 
L 697 3053 
L 147 3053 
L 147 3500 
L 697 3500 
L 697 3744 
Q 697 4328 969 4595 
Q 1241 4863 1831 4863 
L 2375 4863 
z
" transform="scale(0.015625)"/>
     <path id="DejaVuSans-6f" d="M 1959 3097 
Q 1497 3097 1228 2736 
Q 959 2375 959 1747 
Q 959 1119 1226 758 
Q 1494 397 1959 397 
Q 2419 397 2687 759 
Q 2956 1122 2956 1747 
Q 2956 2369 2687 2733 
Q 2419 3097 1959 3097 
z
M 1959 3584 
Q 2709 3584 3137 3096 
Q 3566 2609 3566 1747 
Q 3566 888 3137 398 
Q 2709 -91 1959 -91 
Q 1206 -91 779 398 
Q 353 888 353 1747 
Q 353 2609 779 3096 
Q 1206 3584 1959 3584 
z
" transform="scale(0.015625)"/>
     <path id="DejaVuSans-72" d="M 2631 2963 
Q 2534 3019 2420 3045 
Q 2306 3072 2169 3072 
Q 1681 3072 1420 2755 
Q 1159 2438 1159 1844 
L 1159 0 
L 581 0 
L 581 3500 
L 1159 3500 
L 1159 2956 
Q 1341 3275 1631 3429 
Q 1922 3584 2338 3584 
Q 2397 3584 2469 3576 
Q 2541 3569 2628 3553 
L 2631 2963 
z
" transform="scale(0.015625)"/>
     <path id="DejaVuSans-Oblique-3c4" d="M 2103 638 
Q 2188 488 2525 488 
L 2800 488 
L 2706 0 
L 2363 0 
Q 1800 0 1600 300 
Q 1403 606 1534 1269 
L 1856 2925 
L 541 2925 
L 653 3500 
L 3881 3500 
L 3769 2925 
L 2444 2925 
L 2113 1234 
Q 2025 781 2103 638 
z
" transform="scale(0.015625)"/>
     <path id="DejaVuSans-Oblique-72" d="M 2853 2969 
Q 2766 3016 2653 3041 
Q 2541 3066 2413 3066 
Q 1953 3066 1609 2717 
Q 1266 2369 1153 1784 
L 800 0 
L 225 0 
L 909 3500 
L 1484 3500 
L 1375 2956 
Q 1603 3259 1920 3421 
Q 2238 3584 2597 3584 
Q 2691 3584 2781 3573 
Q 2872 3563 2963 3538 
L 2853 2969 
z
" transform="scale(0.015625)"/>
     <path id="DejaVuSans-Oblique-63" d="M 3431 3366 
L 3316 2797 
Q 3109 2947 2876 3022 
Q 2644 3097 2394 3097 
Q 2119 3097 1870 3000 
Q 1622 2903 1453 2725 
Q 1184 2453 1037 2087 
Q 891 1722 891 1331 
Q 891 859 1127 628 
Q 1363 397 1844 397 
Q 2081 397 2348 469 
Q 2616 541 2906 684 
L 2797 116 
Q 2547 13 2283 -39 
Q 2019 -91 1741 -91 
Q 1044 -91 669 257 
Q 294 606 294 1253 
Q 294 1797 489 2255 
Q 684 2713 1069 3078 
Q 1331 3328 1684 3456 
Q 2038 3584 2456 3584 
Q 2700 3584 2940 3529 
Q 3181 3475 3431 3366 
z
" transform="scale(0.015625)"/>
     <path id="DejaVuSans-3a" d="M 750 794 
L 1409 794 
L 1409 0 
L 750 0 
L 750 794 
z
M 750 3309 
L 1409 3309 
L 1409 2516 
L 750 2516 
L 750 3309 
z
" transform="scale(0.015625)"/>
    </defs>
    <use xlink:href="#DejaVuSans-Oblique-78" transform="translate(0 0.828125)"/>
    <use xlink:href="#DejaVuSans-20" transform="translate(59.179688 0.828125)"/>
    <use xlink:href="#DejaVuSans-61" transform="translate(90.966797 0.828125)"/>
    <use xlink:href="#DejaVuSans-6e" transform="translate(152.246094 0.828125)"/>
    <use xlink:href="#DejaVuSans-64" transform="translate(215.625 0.828125)"/>
    <use xlink:href="#DejaVuSans-20" transform="translate(279.101562 0.828125)"/>
    <use xlink:href="#DejaVuSans-302" transform="translate(373.261719 12.015625)"/>
    <use xlink:href="#DejaVuSans-Oblique-78" transform="translate(310.888672 0.828125)"/>
    <use xlink:href="#DejaVuSans-20" transform="translate(370.068359 0.828125)"/>
    <use xlink:href="#DejaVuSans-66" transform="translate(401.855469 0.828125)"/>
    <use xlink:href="#DejaVuSans-6f" transform="translate(437.060547 0.828125)"/>
    <use xlink:href="#DejaVuSans-72" transform="translate(498.242188 0.828125)"/>
    <use xlink:href="#DejaVuSans-20" transform="translate(539.355469 0.828125)"/>
    <use xlink:href="#DejaVuSans-Oblique-3c4" transform="translate(571.142578 0.828125)"/>
    <use xlink:href="#DejaVuSans-Oblique-72" transform="translate(631.347656 -15.578125) scale(0.7)"/>
    <use xlink:href="#DejaVuSans-Oblique-63" transform="translate(660.126953 -15.578125) scale(0.7)"/>
    <use xlink:href="#DejaVuSans-3a" transform="translate(701.347656 0.828125)"/>
    <use xlink:href="#DejaVuSans-20" transform="translate(735.039062 0.828125)"/>
    <use xlink:href="#DejaVuSans-30" transform="translate(766.826172 0.828125)"/>
    <use xlink:href="#DejaVuSans-2e" transform="translate(830.449219 0.828125)"/>
    <use xlink:href="#DejaVuSans-31" transform="translate(862.236328 0.828125)"/>
   </g>
  </g>
 </g>
 <defs>
  <clipPath id="p047e84f1f8">
   <rect x="44.845313" y="36" width="334.8" height="217.44"/>
  </clipPath>
 </defs>
</svg>
