<?xml version="1.0" encoding="utf-8" standalone="no"?>
<!DOCTYPE svg PUBLIC "-//W3C//DTD SVG 1.1//EN"
  "http://www.w3.org/Graphics/SVG/1.1/DTD/svg11.dtd">
<svg xmlns:xlink="http://www.w3.org/1999/xlink" width="372.103125pt" height="277.318125pt" viewBox="0 0 372.103125 277.318125" xmlns="http://www.w3.org/2000/svg" version="1.1">
 <metadata>
  <rdf:RDF xmlns:dc="http://purl.org/dc/elements/1.1/" xmlns:cc="http://creativecommons.org/ns#" xmlns:rdf="http://www.w3.org/1999/02/22-rdf-syntax-ns#">
   <cc:Work>
    <dc:type rdf:resource="http://purl.org/dc/dcmitype/StillImage"/>
    <dc:date>2022-11-11T21:41:07.264161</dc:date>
    <dc:format>image/svg+xml</dc:format>
    <dc:creator>
     <cc:Agent>
      <dc:title>Matplotlib v3.6.0, https://matplotlib.org/</dc:title>
     </cc:Agent>
    </dc:creator>
   </cc:Work>
  </rdf:RDF>
 </metadata>
 <defs>
  <style type="text/css">*{stroke-linejoin: round; stroke-linecap: butt}</style>
 </defs>
 <g id="figure_1">
  <g id="patch_1">
   <path d="M 0 277.318125 
L 372.103125 277.318125 
L 372.103125 0 
L 0 0 
L 0 277.318125 
z
" style="fill: none"/>
  </g>
  <g id="axes_1">
   <g id="patch_2">
    <path d="M 30.103125 253.44 
L 364.903125 253.44 
L 364.903125 36 
L 30.103125 36 
z
" style="fill: #ffffff"/>
   </g>
   <g id="matplotlib.axis_1">
    <g id="xtick_1">
     <g id="line2d_1">
      <defs>
       <path id="mf3ee39c1c0" d="M 0 0 
L 0 3.5 
" style="stroke: #000000; stroke-width: 0.8"/>
      </defs>
      <g>
       <use xlink:href="#mf3ee39c1c0" x="30.103125" y="253.44" style="stroke: #000000; stroke-width: 0.8"/>
      </g>
     </g>
     <g id="text_1">
      <!-- 0.0 -->
      <g transform="translate(22.151563 268.038437) scale(0.1 -0.1)">
       <defs>
        <path id="DejaVuSans-30" d="M 2034 4250 
Q 1547 4250 1301 3770 
Q 1056 3291 1056 2328 
Q 1056 1369 1301 889 
Q 1547 409 2034 409 
Q 2525 409 2770 889 
Q 3016 1369 3016 2328 
Q 3016 3291 2770 3770 
Q 2525 4250 2034 4250 
z
M 2034 4750 
Q 2819 4750 3233 4129 
Q 3647 3509 3647 2328 
Q 3647 1150 3233 529 
Q 2819 -91 2034 -91 
Q 1250 -91 836 529 
Q 422 1150 422 2328 
Q 422 3509 836 4129 
Q 1250 4750 2034 4750 
z
" transform="scale(0.015625)"/>
        <path id="DejaVuSans-2e" d="M 684 794 
L 1344 794 
L 1344 0 
L 684 0 
L 684 794 
z
" transform="scale(0.015625)"/>
       </defs>
       <use xlink:href="#DejaVuSans-30"/>
       <use xlink:href="#DejaVuSans-2e" x="63.623047"/>
       <use xlink:href="#DejaVuSans-30" x="95.410156"/>
      </g>
     </g>
    </g>
    <g id="xtick_2">
     <g id="line2d_2">
      <g>
       <use xlink:href="#mf3ee39c1c0" x="74.743125" y="253.44" style="stroke: #000000; stroke-width: 0.8"/>
      </g>
     </g>
     <g id="text_2">
      <!-- 0.2 -->
      <g transform="translate(66.791563 268.038437) scale(0.1 -0.1)">
       <defs>
        <path id="DejaVuSans-32" d="M 1228 531 
L 3431 531 
L 3431 0 
L 469 0 
L 469 531 
Q 828 903 1448 1529 
Q 2069 2156 2228 2338 
Q 2531 2678 2651 2914 
Q 2772 3150 2772 3378 
Q 2772 3750 2511 3984 
Q 2250 4219 1831 4219 
Q 1534 4219 1204 4116 
Q 875 4013 500 3803 
L 500 4441 
Q 881 4594 1212 4672 
Q 1544 4750 1819 4750 
Q 2544 4750 2975 4387 
Q 3406 4025 3406 3419 
Q 3406 3131 3298 2873 
Q 3191 2616 2906 2266 
Q 2828 2175 2409 1742 
Q 1991 1309 1228 531 
z
" transform="scale(0.015625)"/>
       </defs>
       <use xlink:href="#DejaVuSans-30"/>
       <use xlink:href="#DejaVuSans-2e" x="63.623047"/>
       <use xlink:href="#DejaVuSans-32" x="95.410156"/>
      </g>
     </g>
    </g>
    <g id="xtick_3">
     <g id="line2d_3">
      <g>
       <use xlink:href="#mf3ee39c1c0" x="119.383125" y="253.44" style="stroke: #000000; stroke-width: 0.8"/>
      </g>
     </g>
     <g id="text_3">
      <!-- 0.4 -->
      <g transform="translate(111.431563 268.038437) scale(0.1 -0.1)">
       <defs>
        <path id="DejaVuSans-34" d="M 2419 4116 
L 825 1625 
L 2419 1625 
L 2419 4116 
z
M 2253 4666 
L 3047 4666 
L 3047 1625 
L 3713 1625 
L 3713 1100 
L 3047 1100 
L 3047 0 
L 2419 0 
L 2419 1100 
L 313 1100 
L 313 1709 
L 2253 4666 
z
" transform="scale(0.015625)"/>
       </defs>
       <use xlink:href="#DejaVuSans-30"/>
       <use xlink:href="#DejaVuSans-2e" x="63.623047"/>
       <use xlink:href="#DejaVuSans-34" x="95.410156"/>
      </g>
     </g>
    </g>
    <g id="xtick_4">
     <g id="line2d_4">
      <g>
       <use xlink:href="#mf3ee39c1c0" x="164.023125" y="253.44" style="stroke: #000000; stroke-width: 0.8"/>
      </g>
     </g>
     <g id="text_4">
      <!-- 0.6 -->
      <g transform="translate(156.071563 268.038437) scale(0.1 -0.1)">
       <defs>
        <path id="DejaVuSans-36" d="M 2113 2584 
Q 1688 2584 1439 2293 
Q 1191 2003 1191 1497 
Q 1191 994 1439 701 
Q 1688 409 2113 409 
Q 2538 409 2786 701 
Q 3034 994 3034 1497 
Q 3034 2003 2786 2293 
Q 2538 2584 2113 2584 
z
M 3366 4563 
L 3366 3988 
Q 3128 4100 2886 4159 
Q 2644 4219 2406 4219 
Q 1781 4219 1451 3797 
Q 1122 3375 1075 2522 
Q 1259 2794 1537 2939 
Q 1816 3084 2150 3084 
Q 2853 3084 3261 2657 
Q 3669 2231 3669 1497 
Q 3669 778 3244 343 
Q 2819 -91 2113 -91 
Q 1303 -91 875 529 
Q 447 1150 447 2328 
Q 447 3434 972 4092 
Q 1497 4750 2381 4750 
Q 2619 4750 2861 4703 
Q 3103 4656 3366 4563 
z
" transform="scale(0.015625)"/>
       </defs>
       <use xlink:href="#DejaVuSans-30"/>
       <use xlink:href="#DejaVuSans-2e" x="63.623047"/>
       <use xlink:href="#DejaVuSans-36" x="95.410156"/>
      </g>
     </g>
    </g>
    <g id="xtick_5">
     <g id="line2d_5">
      <g>
       <use xlink:href="#mf3ee39c1c0" x="208.663125" y="253.44" style="stroke: #000000; stroke-width: 0.8"/>
      </g>
     </g>
     <g id="text_5">
      <!-- 0.8 -->
      <g transform="translate(200.711563 268.038437) scale(0.1 -0.1)">
       <defs>
        <path id="DejaVuSans-38" d="M 2034 2216 
Q 1584 2216 1326 1975 
Q 1069 1734 1069 1313 
Q 1069 891 1326 650 
Q 1584 409 2034 409 
Q 2484 409 2743 651 
Q 3003 894 3003 1313 
Q 3003 1734 2745 1975 
Q 2488 2216 2034 2216 
z
M 1403 2484 
Q 997 2584 770 2862 
Q 544 3141 544 3541 
Q 544 4100 942 4425 
Q 1341 4750 2034 4750 
Q 2731 4750 3128 4425 
Q 3525 4100 3525 3541 
Q 3525 3141 3298 2862 
Q 3072 2584 2669 2484 
Q 3125 2378 3379 2068 
Q 3634 1759 3634 1313 
Q 3634 634 3220 271 
Q 2806 -91 2034 -91 
Q 1263 -91 848 271 
Q 434 634 434 1313 
Q 434 1759 690 2068 
Q 947 2378 1403 2484 
z
M 1172 3481 
Q 1172 3119 1398 2916 
Q 1625 2713 2034 2713 
Q 2441 2713 2670 2916 
Q 2900 3119 2900 3481 
Q 2900 3844 2670 4047 
Q 2441 4250 2034 4250 
Q 1625 4250 1398 4047 
Q 1172 3844 1172 3481 
z
" transform="scale(0.015625)"/>
       </defs>
       <use xlink:href="#DejaVuSans-30"/>
       <use xlink:href="#DejaVuSans-2e" x="63.623047"/>
       <use xlink:href="#DejaVuSans-38" x="95.410156"/>
      </g>
     </g>
    </g>
    <g id="xtick_6">
     <g id="line2d_6">
      <g>
       <use xlink:href="#mf3ee39c1c0" x="253.303125" y="253.44" style="stroke: #000000; stroke-width: 0.8"/>
      </g>
     </g>
     <g id="text_6">
      <!-- 1.0 -->
      <g transform="translate(245.351563 268.038437) scale(0.1 -0.1)">
       <defs>
        <path id="DejaVuSans-31" d="M 794 531 
L 1825 531 
L 1825 4091 
L 703 3866 
L 703 4441 
L 1819 4666 
L 2450 4666 
L 2450 531 
L 3481 531 
L 3481 0 
L 794 0 
L 794 531 
z
" transform="scale(0.015625)"/>
       </defs>
       <use xlink:href="#DejaVuSans-31"/>
       <use xlink:href="#DejaVuSans-2e" x="63.623047"/>
       <use xlink:href="#DejaVuSans-30" x="95.410156"/>
      </g>
     </g>
    </g>
    <g id="xtick_7">
     <g id="line2d_7">
      <g>
       <use xlink:href="#mf3ee39c1c0" x="297.943125" y="253.44" style="stroke: #000000; stroke-width: 0.8"/>
      </g>
     </g>
     <g id="text_7">
      <!-- 1.2 -->
      <g transform="translate(289.991563 268.038437) scale(0.1 -0.1)">
       <use xlink:href="#DejaVuSans-31"/>
       <use xlink:href="#DejaVuSans-2e" x="63.623047"/>
       <use xlink:href="#DejaVuSans-32" x="95.410156"/>
      </g>
     </g>
    </g>
    <g id="xtick_8">
     <g id="line2d_8">
      <g>
       <use xlink:href="#mf3ee39c1c0" x="342.583125" y="253.44" style="stroke: #000000; stroke-width: 0.8"/>
      </g>
     </g>
     <g id="text_8">
      <!-- 1.4 -->
      <g transform="translate(334.631563 268.038437) scale(0.1 -0.1)">
       <use xlink:href="#DejaVuSans-31"/>
       <use xlink:href="#DejaVuSans-2e" x="63.623047"/>
       <use xlink:href="#DejaVuSans-34" x="95.410156"/>
      </g>
     </g>
    </g>
   </g>
   <g id="matplotlib.axis_2">
    <g id="ytick_1">
     <g id="line2d_9">
      <defs>
       <path id="mbb86bf9ece" d="M 0 0 
L -3.5 0 
" style="stroke: #000000; stroke-width: 0.8"/>
      </defs>
      <g>
       <use xlink:href="#mbb86bf9ece" x="30.103125" y="233.892472" style="stroke: #000000; stroke-width: 0.8"/>
      </g>
     </g>
     <g id="text_9">
      <!-- 0.0 -->
      <g transform="translate(7.2 237.691691) scale(0.1 -0.1)">
       <use xlink:href="#DejaVuSans-30"/>
       <use xlink:href="#DejaVuSans-2e" x="63.623047"/>
       <use xlink:href="#DejaVuSans-30" x="95.410156"/>
      </g>
     </g>
    </g>
    <g id="ytick_2">
     <g id="line2d_10">
      <g>
       <use xlink:href="#mbb86bf9ece" x="30.103125" y="192.112499" style="stroke: #000000; stroke-width: 0.8"/>
      </g>
     </g>
     <g id="text_10">
      <!-- 0.2 -->
      <g transform="translate(7.2 195.911717) scale(0.1 -0.1)">
       <use xlink:href="#DejaVuSans-30"/>
       <use xlink:href="#DejaVuSans-2e" x="63.623047"/>
       <use xlink:href="#DejaVuSans-32" x="95.410156"/>
      </g>
     </g>
    </g>
    <g id="ytick_3">
     <g id="line2d_11">
      <g>
       <use xlink:href="#mbb86bf9ece" x="30.103125" y="150.332525" style="stroke: #000000; stroke-width: 0.8"/>
      </g>
     </g>
     <g id="text_11">
      <!-- 0.4 -->
      <g transform="translate(7.2 154.131744) scale(0.1 -0.1)">
       <use xlink:href="#DejaVuSans-30"/>
       <use xlink:href="#DejaVuSans-2e" x="63.623047"/>
       <use xlink:href="#DejaVuSans-34" x="95.410156"/>
      </g>
     </g>
    </g>
    <g id="ytick_4">
     <g id="line2d_12">
      <g>
       <use xlink:href="#mbb86bf9ece" x="30.103125" y="108.552552" style="stroke: #000000; stroke-width: 0.8"/>
      </g>
     </g>
     <g id="text_12">
      <!-- 0.6 -->
      <g transform="translate(7.2 112.35177) scale(0.1 -0.1)">
       <use xlink:href="#DejaVuSans-30"/>
       <use xlink:href="#DejaVuSans-2e" x="63.623047"/>
       <use xlink:href="#DejaVuSans-36" x="95.410156"/>
      </g>
     </g>
    </g>
    <g id="ytick_5">
     <g id="line2d_13">
      <g>
       <use xlink:href="#mbb86bf9ece" x="30.103125" y="66.772578" style="stroke: #000000; stroke-width: 0.8"/>
      </g>
     </g>
     <g id="text_13">
      <!-- 0.8 -->
      <g transform="translate(7.2 70.571797) scale(0.1 -0.1)">
       <use xlink:href="#DejaVuSans-30"/>
       <use xlink:href="#DejaVuSans-2e" x="63.623047"/>
       <use xlink:href="#DejaVuSans-38" x="95.410156"/>
      </g>
     </g>
    </g>
   </g>
   <g id="line2d_14">
    <path d="M 30.326325 233.892472 
L 39.031125 233.892472 
L 39.700725 185.163737 
L 40.370325 149.064602 
L 41.039925 122.321705 
L 41.709525 102.510079 
L 42.379125 87.833266 
L 43.048725 76.960415 
L 43.718325 68.90561 
L 44.387925 62.938463 
L 45.057525 58.517892 
L 45.727125 55.243052 
L 46.396725 52.816991 
L 47.066325 51.019721 
L 47.959125 49.326112 
L 48.851925 48.190852 
L 49.744725 47.429865 
L 50.860725 46.82106 
L 52.199925 46.397634 
L 53.985525 46.114015 
L 56.663925 45.952295 
L 62.467125 45.887768 
L 66.038325 45.883636 
L 66.707925 94.612101 
L 67.377525 130.711035 
L 68.047125 157.453784 
L 68.716725 177.265299 
L 69.386325 191.942031 
L 70.055925 202.814821 
L 70.725525 210.869582 
L 71.395125 216.836696 
L 72.064725 221.257242 
L 72.734325 224.532064 
L 73.403925 226.958111 
L 74.073525 228.755371 
L 74.966325 230.44897 
L 75.859125 231.584224 
L 76.751925 232.345207 
L 77.867925 232.954009 
L 79.207125 233.377433 
L 80.992725 233.66105 
L 83.671125 233.822769 
L 89.474325 233.887295 
L 142.149525 233.892472 
L 364.903125 233.892472 
L 364.903125 233.892472 
" clip-path="url(#p3824e21635)" style="fill: none; stroke: #1f77b4; stroke-width: 1.5; stroke-linecap: square"/>
   </g>
   <g id="line2d_15">
    <path d="M 30.326325 233.892472 
L 30.549525 237.720194 
L 30.995925 231.319699 
L 31.219125 231.641611 
L 31.442325 228.275229 
L 31.665525 228.948061 
L 31.888725 235.031151 
L 32.111925 231.155591 
L 32.335125 229.931155 
L 32.558325 234.931424 
L 32.781525 234.15866 
L 33.004725 233.967562 
L 33.227925 231.874666 
L 33.674325 241.873876 
L 33.897525 233.741877 
L 34.343925 227.645305 
L 34.567125 229.476858 
L 34.790325 234.709807 
L 35.013525 228.438862 
L 35.236725 226.832853 
L 35.459925 230.141058 
L 35.683125 230.250156 
L 35.906325 223.190661 
L 36.352725 234.214658 
L 36.575925 236.665119 
L 36.799125 243.556364 
L 37.022325 235.592156 
L 37.468725 238.224433 
L 37.691925 237.496998 
L 37.915125 233.987384 
L 38.138325 232.363442 
L 38.361525 234.132887 
L 38.807925 234.991605 
L 39.031125 234.161399 
L 39.254325 231.510413 
L 39.477525 233.518985 
L 39.700725 233.050505 
L 39.923925 234.006202 
L 40.147125 235.973572 
L 40.593525 232.207545 
L 41.039925 222.61176 
L 41.263125 220.391893 
L 41.709525 224.744548 
L 41.932725 237.199925 
L 42.155925 241.089784 
L 42.602325 233.536955 
L 43.048725 229.613548 
L 43.271925 222.123 
L 43.495125 221.131019 
L 43.718325 216.84671 
L 43.941525 215.273211 
L 44.611125 230.573586 
L 44.834325 220.469247 
L 45.057525 222.711888 
L 45.280725 223.2711 
L 45.503925 218.260919 
L 45.727125 221.312655 
L 45.950325 215.273319 
L 46.173525 219.059319 
L 46.396725 216.357657 
L 46.619925 216.394663 
L 46.843125 215.513012 
L 47.066325 218.517466 
L 47.289525 216.965718 
L 47.512725 223.092048 
L 47.735925 223.109244 
L 47.959125 222.550916 
L 48.182325 222.74019 
L 48.628725 213.341269 
L 48.851925 216.133417 
L 49.075125 216.40157 
L 49.298325 213.628816 
L 49.521525 212.444382 
L 49.744725 223.437954 
L 49.967925 217.928638 
L 50.191125 216.202125 
L 50.414325 222.900339 
L 50.637525 216.729078 
L 50.860725 222.856011 
L 51.307125 212.678736 
L 51.530325 213.016823 
L 51.753525 217.439248 
L 51.976725 213.023831 
L 52.199925 212.997671 
L 52.423125 211.960233 
L 52.646325 212.419202 
L 53.092725 222.397889 
L 53.539125 213.568599 
L 53.762325 212.567852 
L 53.985525 212.816342 
L 54.208725 213.82063 
L 54.431925 212.373556 
L 54.655125 213.001217 
L 54.878325 205.425891 
L 55.101525 206.219236 
L 55.324725 212.904776 
L 55.547925 210.594169 
L 55.994325 214.717284 
L 56.217525 215.677206 
L 56.440725 215.72417 
L 56.663925 214.566597 
L 56.887125 215.38228 
L 57.110325 214.781141 
L 57.333525 215.621572 
L 57.556725 215.424392 
L 57.779925 204.557753 
L 58.003125 203.473316 
L 58.226325 204.798709 
L 58.449525 207.918347 
L 58.672725 215.560832 
L 58.895925 209.804699 
L 59.342325 204.44899 
L 59.565525 203.837925 
L 59.788725 204.368906 
L 60.011925 197.793721 
L 60.458325 206.680172 
L 60.681525 205.786578 
L 60.904725 206.342625 
L 61.127925 214.032325 
L 61.797525 203.989447 
L 62.020725 204.458535 
L 62.243925 200.160193 
L 62.467125 202.047266 
L 62.690325 201.193294 
L 63.136725 209.571654 
L 63.359925 210.431108 
L 63.583125 205.546118 
L 63.806325 209.712779 
L 64.029525 207.248822 
L 64.252725 202.781932 
L 64.475925 204.535417 
L 64.699125 200.027314 
L 64.922325 201.0035 
L 65.368725 204.818811 
L 66.038325 195.086691 
L 66.261525 203.735736 
L 66.707925 197.311805 
L 66.931125 200.718093 
L 67.154325 212.009576 
L 67.377525 214.391304 
L 67.600725 207.727537 
L 67.823925 210.059088 
L 68.047125 210.006221 
L 68.270325 210.838704 
L 68.493525 210.42412 
L 68.716725 208.501565 
L 68.939925 198.539231 
L 69.163125 196.307247 
L 69.386325 195.55471 
L 69.609525 197.783532 
L 69.832725 196.734044 
L 70.055925 207.547612 
L 70.279125 208.449039 
L 70.502325 204.511473 
L 70.948725 217.81274 
L 71.171925 217.695025 
L 71.395125 215.941733 
L 71.618325 216.889616 
L 71.841525 216.068343 
L 72.511125 203.02022 
L 72.734325 203.100289 
L 73.180725 209.948489 
L 73.403925 211.110248 
L 73.627125 213.712891 
L 73.850325 211.477739 
L 74.073525 211.544928 
L 74.296725 208.004501 
L 74.519925 206.618228 
L 74.743125 204.223003 
L 74.966325 205.004812 
L 75.412725 202.505461 
L 75.635925 202.023466 
L 75.859125 212.365345 
L 76.082325 213.091586 
L 76.305525 220.615181 
L 76.528725 214.371946 
L 76.751925 204.609 
L 76.975125 209.091433 
L 77.198325 210.011093 
L 77.421525 212.554274 
L 77.644725 211.097779 
L 77.867925 212.023453 
L 78.091125 206.092216 
L 78.314325 205.386434 
L 78.537525 209.273172 
L 78.760725 207.918124 
L 79.207125 219.443312 
L 79.430325 218.771112 
L 79.653525 219.667117 
L 79.876725 218.124466 
L 80.099925 208.463306 
L 80.323125 208.404064 
L 80.546325 205.990255 
L 80.769525 199.945562 
L 80.992725 198.981745 
L 81.215925 199.213527 
L 81.439125 209.442095 
L 81.662325 212.396641 
L 81.885525 210.461346 
L 82.108725 213.863367 
L 82.331925 214.918816 
L 82.555125 213.982638 
L 82.778325 211.798467 
L 83.001525 202.824818 
L 83.224725 200.458172 
L 83.447925 204.936311 
L 83.671125 204.232293 
L 83.894325 201.712873 
L 84.117525 202.253089 
L 84.563925 209.752112 
L 84.787125 211.710705 
L 85.010325 211.915656 
L 85.233525 208.372192 
L 85.456725 210.148137 
L 85.679925 216.626351 
L 85.903125 218.980842 
L 86.126325 212.286477 
L 86.349525 213.448365 
L 86.572725 212.281945 
L 86.795925 215.797582 
L 87.019125 216.476302 
L 87.242325 209.562869 
L 87.465525 208.553035 
L 87.688725 203.168504 
L 87.911925 206.1611 
L 88.358325 217.763615 
L 88.581525 211.964666 
L 88.804725 216.682236 
L 89.027925 217.080231 
L 89.474325 206.115606 
L 89.697525 203.432425 
L 90.143925 209.673436 
L 90.367125 210.234939 
L 90.590325 213.910196 
L 90.813525 211.686645 
L 91.036725 211.391251 
L 91.259925 213.597713 
L 91.483125 214.343407 
L 91.706325 216.360523 
L 91.929525 203.467215 
L 92.152725 202.755444 
L 92.375925 203.003073 
L 92.599125 202.790134 
L 92.822325 201.539738 
L 93.045525 205.544913 
L 93.268725 207.484303 
L 93.491925 207.016023 
L 93.715125 207.20554 
L 93.938325 204.829544 
L 94.384725 214.946271 
L 94.607925 213.603429 
L 94.831125 204.741903 
L 95.054325 207.813705 
L 95.277525 215.709101 
L 95.500725 210.878784 
L 95.723925 211.226932 
L 95.947125 214.161024 
L 96.393525 206.649993 
L 96.616725 210.911277 
L 96.839925 208.673229 
L 97.509525 214.212498 
L 97.732725 213.370382 
L 97.955925 214.093623 
L 98.402325 197.099156 
L 98.625525 203.378787 
L 98.848725 202.941314 
L 99.071925 202.776258 
L 99.295125 204.526203 
L 99.518325 215.788522 
L 99.741525 213.935043 
L 99.964725 202.475967 
L 100.187925 211.120119 
L 100.634325 214.747556 
L 101.080725 216.967185 
L 101.303925 214.25945 
L 101.527125 206.402528 
L 101.973525 211.350802 
L 102.196725 205.599771 
L 102.419925 212.489042 
L 102.643125 214.895941 
L 102.866325 210.272626 
L 103.089525 216.381865 
L 103.312725 210.0695 
L 103.535925 207.956004 
L 103.759125 210.047189 
L 103.982325 206.627397 
L 104.205525 208.678185 
L 104.428725 213.330822 
L 104.651925 211.134111 
L 104.875125 211.873055 
L 105.098325 204.410161 
L 105.321525 205.684706 
L 105.544725 209.230338 
L 105.991125 205.857223 
L 106.437525 212.66416 
L 106.660725 212.430127 
L 106.883925 214.449475 
L 107.107125 220.021863 
L 107.553525 208.28023 
L 107.776725 209.228375 
L 107.999925 208.067159 
L 108.223125 202.64591 
L 108.446325 200.894766 
L 108.669525 204.386844 
L 108.892725 203.525671 
L 109.115925 208.519194 
L 109.339125 207.823146 
L 109.562325 210.809773 
L 109.785525 215.563761 
L 110.008725 212.780828 
L 110.231925 212.944212 
L 110.455125 208.395109 
L 110.678325 213.881471 
L 111.124725 210.154175 
L 111.347925 209.730846 
L 111.571125 204.390363 
L 111.794325 209.70934 
L 112.017525 211.401666 
L 112.240725 206.665433 
L 112.463925 207.46268 
L 112.687125 204.364774 
L 112.910325 214.736674 
L 113.356725 209.943076 
L 113.579925 211.975297 
L 113.803125 209.065141 
L 114.026325 214.785897 
L 114.249525 215.28964 
L 114.472725 217.70779 
L 114.695925 205.949451 
L 114.919125 206.43396 
L 115.142325 201.823483 
L 115.365525 201.956471 
L 115.588725 200.235575 
L 115.811925 204.9716 
L 116.035125 205.894568 
L 116.258325 215.569163 
L 116.481525 216.07144 
L 116.927925 207.348347 
L 117.151125 207.501603 
L 117.374325 206.756968 
L 117.597525 210.416791 
L 117.820725 212.168709 
L 118.043925 208.49568 
L 118.267125 211.984448 
L 118.490325 212.418729 
L 118.713525 213.757455 
L 119.159925 205.386088 
L 119.606325 216.380161 
L 119.829525 210.436779 
L 120.052725 208.007771 
L 120.275925 210.450464 
L 120.499125 205.196754 
L 120.722325 209.974842 
L 121.391925 204.343735 
L 121.615125 209.470769 
L 121.838325 210.710534 
L 122.061525 214.756403 
L 122.284725 214.081978 
L 122.507925 208.906944 
L 122.731125 216.753534 
L 122.954325 204.585799 
L 123.177525 206.489771 
L 123.400725 207.163803 
L 123.623925 213.741771 
L 124.070325 218.286642 
L 124.293525 213.956928 
L 124.739925 210.220163 
L 124.963125 202.840865 
L 125.186325 201.840337 
L 125.855925 217.927491 
L 126.079125 217.270322 
L 126.302325 216.202686 
L 126.525525 216.723956 
L 126.748725 212.683254 
L 126.971925 213.456233 
L 127.418325 206.942655 
L 127.641525 202.460717 
L 127.864725 205.432597 
L 128.087925 203.818161 
L 128.311125 201.022841 
L 128.980725 211.957429 
L 129.203925 210.735776 
L 129.427125 210.44192 
L 129.873525 214.918405 
L 130.319925 205.413786 
L 130.543125 204.572628 
L 130.766325 200.571657 
L 130.989525 198.991497 
L 131.435925 207.115083 
L 131.659125 213.622746 
L 131.882325 213.898653 
L 132.105525 207.394198 
L 132.328725 206.165885 
L 132.775125 215.975055 
L 132.998325 214.662261 
L 133.221525 214.692107 
L 133.667925 210.031573 
L 134.114325 215.867957 
L 134.560725 212.848559 
L 134.783925 211.132463 
L 135.007125 204.776494 
L 135.230325 202.81808 
L 135.453525 205.135238 
L 135.676725 205.691315 
L 135.899925 205.560105 
L 136.123125 206.518557 
L 136.346325 209.205669 
L 136.569525 205.264094 
L 137.015925 217.699688 
L 137.239125 215.449166 
L 137.462325 218.43561 
L 137.685525 212.262513 
L 137.908725 210.739039 
L 138.131925 210.107936 
L 138.355125 203.569554 
L 138.578325 206.28848 
L 139.024725 207.753693 
L 139.247925 201.728759 
L 139.471125 208.802699 
L 139.694325 208.819437 
L 139.917525 215.026732 
L 140.140725 215.586643 
L 140.363925 212.214337 
L 140.587125 213.04648 
L 140.810325 206.018693 
L 141.033525 214.314902 
L 141.256725 207.253425 
L 141.703125 217.28953 
L 141.926325 217.174075 
L 142.149525 215.067636 
L 142.595925 204.688913 
L 142.819125 202.797009 
L 143.042325 204.434292 
L 143.265525 210.974208 
L 143.488725 205.849112 
L 143.711925 206.917478 
L 143.935125 211.483021 
L 144.158325 207.116396 
L 144.381525 207.977127 
L 144.604725 208.02698 
L 145.051125 214.942155 
L 145.274325 215.597801 
L 145.497525 219.143381 
L 145.943925 209.886249 
L 146.167125 208.759147 
L 146.390325 199.93728 
L 146.613525 200.226551 
L 147.059925 204.818036 
L 147.283125 217.658775 
L 147.506325 217.611499 
L 147.952725 211.726985 
L 148.175925 202.712851 
L 148.399125 200.824399 
L 148.622325 206.927145 
L 149.068725 210.025831 
L 149.291925 209.895405 
L 149.515125 205.324262 
L 149.961525 213.19579 
L 150.184725 209.296399 
L 150.407925 212.715279 
L 150.631125 206.2888 
L 150.854325 215.43332 
L 151.077525 213.654093 
L 151.300725 206.6081 
L 151.523925 213.334453 
L 151.747125 206.365896 
L 151.970325 212.618443 
L 152.193525 211.628838 
L 152.416725 212.851487 
L 152.863125 210.578358 
L 153.086325 216.181975 
L 153.309525 215.997773 
L 153.532725 208.358796 
L 153.755925 210.13081 
L 153.979125 201.339756 
L 154.202325 199.073676 
L 154.425525 205.744477 
L 154.648725 207.409903 
L 154.871925 207.347861 
L 155.095125 205.997399 
L 155.318325 206.50883 
L 155.541525 202.534206 
L 156.211125 218.462065 
L 156.434325 215.190943 
L 156.657525 219.356243 
L 156.880725 219.094344 
L 157.103925 212.953626 
L 157.550325 209.981056 
L 157.996725 198.866563 
L 158.219925 208.174108 
L 158.666325 215.373747 
L 158.889525 209.595617 
L 159.112725 209.244689 
L 159.335925 208.083684 
L 159.559125 214.182729 
L 159.782325 207.194841 
L 160.005525 207.976711 
L 160.228725 209.480304 
L 160.451925 210.114513 
L 160.675125 218.410901 
L 160.898325 216.607517 
L 161.344725 205.413712 
L 161.567925 214.681894 
L 161.791125 210.903413 
L 162.014325 211.616575 
L 162.683925 207.944144 
L 162.907125 214.10427 
L 163.130325 213.47591 
L 163.576725 201.339415 
L 163.799925 203.74794 
L 164.023125 212.928887 
L 164.246325 211.455769 
L 164.469525 208.819779 
L 164.915925 212.770229 
L 165.139125 212.967122 
L 165.362325 213.807802 
L 165.585525 209.33747 
L 165.808725 210.136076 
L 166.031925 206.491022 
L 166.255125 212.13775 
L 166.478325 205.206365 
L 166.701525 207.539631 
L 166.924725 202.046406 
L 167.147925 207.213028 
L 167.371125 207.742548 
L 167.594325 208.599074 
L 167.817525 214.3234 
L 168.040725 214.16493 
L 168.263925 214.256688 
L 168.487125 209.501638 
L 168.710325 210.09436 
L 168.933525 208.421661 
L 169.156725 204.784435 
L 169.379925 209.217095 
L 169.603125 208.326447 
L 169.826325 208.849257 
L 170.049525 209.763524 
L 170.272725 212.367955 
L 170.495925 213.278932 
L 170.719125 210.35024 
L 170.942325 219.233117 
L 171.165525 219.176218 
L 171.388725 218.610798 
L 171.611925 213.558071 
L 171.835125 204.832609 
L 172.058325 204.791953 
L 172.281525 202.383961 
L 172.504725 201.625238 
L 172.727925 204.244755 
L 173.174325 206.799321 
L 173.397525 208.738339 
L 173.620725 212.759504 
L 173.843925 205.713549 
L 174.067125 210.594272 
L 174.290325 208.905413 
L 174.513525 211.045784 
L 174.736725 210.347343 
L 174.959925 206.748921 
L 175.183125 200.320538 
L 175.629525 210.007508 
L 175.852725 208.505881 
L 176.075925 211.154491 
L 176.522325 227.666701 
L 176.745525 218.13282 
L 176.968725 216.033119 
L 177.191925 211.708702 
L 177.861525 206.606792 
L 178.084725 205.62028 
L 178.307925 207.424816 
L 178.531125 199.712272 
L 179.200725 212.120428 
L 179.423925 214.038804 
L 179.647125 211.905153 
L 179.870325 218.080475 
L 180.093525 214.227075 
L 180.316725 207.544848 
L 180.539925 208.193814 
L 180.986325 203.741634 
L 181.209525 210.180756 
L 181.432725 212.805706 
L 181.655925 208.747378 
L 181.879125 208.579727 
L 182.102325 205.743799 
L 182.325525 212.296394 
L 182.548725 209.728375 
L 182.771925 208.653092 
L 182.995125 210.78277 
L 183.441525 219.464424 
L 183.664725 211.85556 
L 183.887925 209.317435 
L 184.111125 200.976043 
L 184.334325 202.883127 
L 184.557525 200.232511 
L 184.780725 214.842347 
L 185.003925 215.294528 
L 185.227125 210.474061 
L 185.450325 210.110988 
L 185.673525 210.733776 
L 186.119925 218.889838 
L 186.343125 217.499551 
L 186.566325 201.904061 
L 186.789525 198.611849 
L 187.012725 197.256633 
L 187.235925 201.776555 
L 187.682325 214.095875 
L 188.128725 217.699647 
L 188.351925 217.135703 
L 188.798325 205.69421 
L 189.021525 210.636763 
L 189.244725 207.476614 
L 189.467925 207.625996 
L 189.691125 207.232845 
L 189.914325 208.815242 
L 190.137525 205.912298 
L 190.360725 212.933777 
L 190.583925 204.113696 
L 191.030325 211.636475 
L 191.253525 210.402689 
L 191.476725 205.355739 
L 191.699925 209.705273 
L 191.923125 210.430336 
L 192.146325 213.882609 
L 192.369525 209.257502 
L 192.592725 209.380632 
L 192.815925 207.58816 
L 193.262325 213.327758 
L 193.708725 205.364112 
L 194.155125 213.401783 
L 194.378325 220.166991 
L 194.601525 215.920651 
L 194.824725 208.327188 
L 195.271125 215.384714 
L 195.494325 211.393367 
L 195.717525 210.647153 
L 195.940725 212.638503 
L 196.163925 209.296792 
L 196.387125 203.411512 
L 196.610325 204.202274 
L 196.833525 214.743053 
L 197.056725 205.238339 
L 197.279925 202.165184 
L 197.503125 206.60779 
L 198.172725 209.633782 
L 198.395925 200.909624 
L 198.619125 213.224826 
L 198.842325 214.878843 
L 199.065525 213.433931 
L 199.288725 212.992617 
L 199.735125 207.518652 
L 199.958325 211.080439 
L 200.181525 210.145513 
L 200.404725 211.205011 
L 200.627925 218.174205 
L 200.851125 218.80601 
L 201.074325 214.885192 
L 201.297525 208.284614 
L 201.520725 205.143672 
L 201.743925 210.686951 
L 201.967125 210.847503 
L 202.413525 206.596205 
L 202.636725 204.280042 
L 202.859925 211.3574 
L 203.083125 212.164865 
L 203.306325 209.312678 
L 203.529525 213.9261 
L 203.752725 208.975231 
L 203.975925 212.273244 
L 204.199125 210.847873 
L 204.422325 210.314381 
L 204.645525 211.11119 
L 204.868725 211.047529 
L 205.315125 206.007084 
L 205.538325 204.949695 
L 205.984725 201.2556 
L 206.207925 202.750886 
L 206.654325 211.602192 
L 206.877525 212.717161 
L 207.100725 216.137759 
L 207.547125 207.379383 
L 207.770325 214.141216 
L 207.993525 210.188644 
L 208.216725 209.802961 
L 208.439925 210.335241 
L 208.663125 211.543093 
L 208.886325 211.329661 
L 209.109525 205.066052 
L 209.332725 203.803315 
L 209.779125 213.561371 
L 210.002325 215.18226 
L 210.225525 208.552036 
L 210.448725 213.416556 
L 210.671925 212.885299 
L 210.895125 208.256574 
L 211.118325 205.962145 
L 211.564725 208.996568 
L 211.787925 211.810786 
L 212.011125 201.936226 
L 212.457525 212.631963 
L 212.680725 214.98275 
L 213.127125 208.820786 
L 213.350325 212.802616 
L 213.573525 212.3085 
L 213.796725 206.945137 
L 214.019925 205.192747 
L 214.243125 208.074409 
L 214.689525 207.98197 
L 214.912725 215.398189 
L 215.135925 212.348677 
L 215.805525 215.505328 
L 216.028725 210.905333 
L 216.251925 209.637081 
L 216.475125 209.933542 
L 216.698325 206.715721 
L 216.921525 213.116883 
L 217.144725 213.781794 
L 217.367925 218.181188 
L 217.591125 217.111905 
L 218.037525 201.724219 
L 218.260725 204.328296 
L 218.483925 210.15201 
L 218.707125 206.569507 
L 218.930325 206.700327 
L 219.153525 210.224601 
L 219.376725 208.788074 
L 219.599925 209.678248 
L 219.823125 209.601659 
L 220.046325 214.063269 
L 220.269525 214.144577 
L 220.492725 209.265964 
L 220.715925 209.607689 
L 220.939125 209.63318 
L 221.162325 207.647915 
L 221.385525 204.104323 
L 221.608725 203.951414 
L 221.831925 203.64969 
L 222.055125 208.963132 
L 222.278325 208.002403 
L 222.501525 211.3384 
L 222.724725 207.550481 
L 223.171125 205.980597 
L 223.394325 211.031163 
L 223.617525 213.380164 
L 223.840725 210.761585 
L 224.287125 216.753388 
L 224.510325 208.566336 
L 224.733525 210.516096 
L 224.956725 206.661027 
L 225.179925 210.346029 
L 225.403125 210.935169 
L 225.626325 209.321932 
L 225.849525 210.283633 
L 226.072725 212.393129 
L 226.295925 216.149804 
L 226.519125 212.527536 
L 226.742325 214.641304 
L 226.965525 210.040869 
L 227.188725 209.467448 
L 227.635125 201.957961 
L 227.858325 207.176427 
L 228.081525 204.689907 
L 228.304725 207.129556 
L 228.527925 205.46334 
L 228.751125 205.64052 
L 228.974325 206.355606 
L 229.420725 213.490437 
L 229.643925 209.174873 
L 230.090325 215.684227 
L 230.313525 211.189333 
L 230.536725 215.701816 
L 230.759925 213.655811 
L 230.983125 209.60569 
L 231.206325 212.030712 
L 231.429525 209.049049 
L 231.652725 211.001196 
L 231.875925 216.906564 
L 232.099125 213.959678 
L 232.322325 209.196304 
L 232.545525 208.976054 
L 232.768725 213.10606 
L 232.991925 210.714323 
L 233.215125 214.542382 
L 233.438325 214.76101 
L 233.661525 212.794886 
L 234.107925 205.401735 
L 234.554325 210.21141 
L 234.777525 211.325075 
L 235.000725 202.370716 
L 235.223925 199.177704 
L 235.447125 202.075924 
L 235.670325 203.376693 
L 235.893525 207.348015 
L 236.116725 216.916201 
L 236.339925 215.492985 
L 236.563125 216.440301 
L 236.786325 212.393165 
L 237.009525 211.914573 
L 237.232725 205.453893 
L 237.455925 203.663362 
L 237.679125 200.360768 
L 237.902325 205.074394 
L 238.125525 212.498334 
L 238.348725 209.955159 
L 238.571925 210.731543 
L 238.795125 212.399821 
L 239.018325 212.346982 
L 239.241525 204.625808 
L 239.464725 207.604573 
L 239.911125 215.72836 
L 240.134325 211.500689 
L 240.357525 210.38147 
L 240.580725 210.330824 
L 240.803925 213.829649 
L 241.027125 210.851164 
L 241.250325 210.11508 
L 241.473525 207.057666 
L 241.696725 209.577364 
L 241.919925 210.764156 
L 242.143125 209.934118 
L 242.366325 206.486577 
L 242.589525 207.680952 
L 242.812725 210.092837 
L 243.035925 208.682365 
L 243.259125 213.913497 
L 243.482325 206.062161 
L 243.705525 207.319526 
L 243.928725 206.495453 
L 244.151925 211.603057 
L 244.375125 208.211032 
L 244.598325 209.717097 
L 244.821525 213.494797 
L 245.044725 214.531475 
L 245.267925 217.341902 
L 245.491125 206.283858 
L 245.714325 205.217649 
L 245.937525 201.464619 
L 246.160725 208.994152 
L 246.383925 212.646066 
L 246.607125 206.749229 
L 247.053525 213.699824 
L 247.276725 212.741155 
L 247.723125 218.176732 
L 247.946325 215.078372 
L 248.392725 212.898972 
L 248.615925 205.625919 
L 248.839125 205.174545 
L 249.062325 201.633793 
L 249.508725 213.84578 
L 249.731925 203.450717 
L 249.955125 204.953098 
L 250.624725 218.406684 
L 251.071125 216.115927 
L 251.294325 210.107412 
L 251.517525 210.719362 
L 251.740725 204.55138 
L 251.963925 193.1664 
L 252.410325 200.815136 
L 252.633525 207.742468 
L 252.856725 208.542189 
L 253.303125 215.562399 
L 253.526325 216.440554 
L 253.749525 214.353192 
L 253.972725 206.361449 
L 254.419125 204.970093 
L 254.865525 209.735343 
L 255.088725 218.368699 
L 255.311925 211.723273 
L 255.535125 212.931935 
L 255.758325 211.307534 
L 255.981525 210.945611 
L 256.204725 210.819798 
L 256.427925 212.323396 
L 256.651125 210.791977 
L 256.874325 211.028674 
L 257.097525 209.142884 
L 257.543925 214.618669 
L 257.767125 215.18949 
L 257.990325 217.495211 
L 258.213525 216.423341 
L 258.436725 220.278241 
L 258.883125 202.423722 
L 259.106325 208.684014 
L 259.329525 206.331912 
L 259.552725 206.458526 
L 259.775925 210.211729 
L 259.999125 208.736834 
L 260.222325 210.037751 
L 260.445525 210.159255 
L 260.668725 204.997524 
L 260.891925 206.297905 
L 261.338325 210.19144 
L 261.561525 202.283801 
L 262.007925 211.796761 
L 262.231125 204.612248 
L 262.454325 206.181447 
L 262.900725 213.079025 
L 263.123925 211.997811 
L 263.347125 211.973943 
L 263.793525 209.098987 
L 264.016725 209.512594 
L 264.239925 211.345291 
L 264.463125 209.650783 
L 264.686325 200.382129 
L 264.909525 207.704167 
L 265.132725 203.278784 
L 265.355925 206.818523 
L 265.802325 209.696231 
L 266.248725 215.388365 
L 266.695125 207.228679 
L 266.918325 212.842875 
L 267.141525 213.437918 
L 267.364725 208.539902 
L 267.587925 208.274389 
L 267.811125 209.143828 
L 268.034325 208.396728 
L 268.257525 204.451653 
L 268.480725 207.925589 
L 268.703925 208.91219 
L 268.927125 212.388925 
L 269.150325 206.663865 
L 269.373525 217.482661 
L 269.596725 210.637503 
L 269.819925 216.054975 
L 270.043125 216.005188 
L 270.266325 212.476727 
L 270.489525 216.324245 
L 270.935925 210.096659 
L 271.159125 214.495178 
L 271.605525 210.326835 
L 271.828725 204.341705 
L 272.051925 206.519745 
L 272.275125 207.60348 
L 272.498325 210.776477 
L 272.721525 211.986562 
L 272.944725 211.715037 
L 273.167925 208.29822 
L 273.391125 212.014418 
L 273.614325 202.896496 
L 274.060725 210.696939 
L 274.283925 209.68609 
L 274.507125 219.245472 
L 274.953525 213.110091 
L 275.176725 213.820842 
L 275.399925 207.964478 
L 275.846325 214.407209 
L 276.069525 205.390164 
L 276.292725 205.065846 
L 276.515925 205.024238 
L 276.739125 207.555446 
L 276.962325 207.972067 
L 277.185525 212.49998 
L 277.408725 209.725164 
L 277.631925 212.617822 
L 277.855125 209.682861 
L 278.301525 199.760258 
L 278.524725 200.337668 
L 278.747925 205.79525 
L 278.971125 203.465262 
L 279.194325 207.681778 
L 279.417525 207.896749 
L 279.640725 212.301262 
L 279.863925 214.35247 
L 280.087125 215.043924 
L 280.310325 215.274357 
L 280.756725 207.801362 
L 280.979925 203.417079 
L 281.203125 211.412656 
L 281.426325 208.959697 
L 281.649525 211.027925 
L 281.872725 217.730124 
L 282.095925 216.227618 
L 282.319125 210.558407 
L 282.542325 212.657831 
L 282.765525 209.074911 
L 282.988725 203.051154 
L 283.211925 203.246471 
L 283.435125 206.082274 
L 283.658325 210.826969 
L 284.104725 208.397927 
L 284.327925 213.801277 
L 284.551125 210.189489 
L 284.774325 212.720371 
L 284.997525 211.162901 
L 285.220725 214.644994 
L 285.443925 213.861401 
L 285.667125 207.238337 
L 285.890325 207.093567 
L 286.113525 212.163452 
L 286.336725 211.701217 
L 286.559925 212.087693 
L 286.783125 209.55931 
L 287.006325 213.19242 
L 287.229525 214.804176 
L 287.675925 208.815368 
L 287.899125 201.359525 
L 288.122325 201.277225 
L 288.568725 210.743154 
L 288.791925 212.484014 
L 289.015125 212.662562 
L 289.461525 215.945778 
L 289.684725 208.806569 
L 289.907925 210.1723 
L 290.354325 197.415008 
L 290.800725 214.015544 
L 291.023925 211.644396 
L 291.247125 214.561715 
L 291.470325 211.239857 
L 291.693525 211.334518 
L 291.916725 215.810652 
L 292.363125 199.536072 
L 292.586325 198.791124 
L 292.809525 202.181655 
L 293.255925 215.487404 
L 293.479125 214.359904 
L 293.702325 220.197908 
L 293.925525 216.385636 
L 294.148725 217.103723 
L 294.371925 215.037462 
L 294.818325 201.268635 
L 295.041525 207.06473 
L 295.264725 206.588455 
L 295.487925 212.606361 
L 295.711125 210.183107 
L 295.934325 213.250543 
L 296.157525 218.835998 
L 296.603925 212.909372 
L 296.827125 210.507841 
L 297.050325 206.8403 
L 297.273525 208.502869 
L 297.496725 206.796805 
L 297.719925 201.028578 
L 297.943125 202.78917 
L 298.166325 201.872557 
L 298.389525 209.637929 
L 298.612725 209.576826 
L 298.835925 215.990778 
L 299.059125 218.814116 
L 299.282325 219.436296 
L 299.728725 206.171668 
L 300.175125 200.041792 
L 300.621525 204.075783 
L 300.844725 213.82795 
L 301.067925 208.216919 
L 301.291125 209.527775 
L 301.514325 209.918874 
L 301.737525 208.293598 
L 301.960725 213.667907 
L 302.183925 214.782619 
L 302.630325 207.876133 
L 302.853525 209.901979 
L 303.299925 215.432847 
L 303.523125 213.939574 
L 303.969525 206.097956 
L 304.415925 205.414213 
L 304.862325 214.431632 
L 305.085525 207.789873 
L 305.308725 206.946695 
L 305.531925 212.310189 
L 305.755125 210.477872 
L 305.978325 212.80135 
L 306.201525 207.341996 
L 306.424725 211.031696 
L 306.647925 212.67729 
L 306.871125 209.811008 
L 307.094325 209.641596 
L 307.763925 201.651372 
L 307.987125 212.085762 
L 308.210325 211.687646 
L 308.656725 216.370688 
L 308.879925 214.188096 
L 309.103125 213.556227 
L 309.326325 209.56575 
L 309.549525 210.283162 
L 309.772725 211.590883 
L 309.995925 211.264644 
L 310.219125 210.171888 
L 310.665525 214.566748 
L 311.111925 201.292582 
L 311.335125 208.780318 
L 311.558325 205.20037 
L 311.781525 206.086677 
L 312.004725 205.479702 
L 312.227925 209.86182 
L 312.451125 205.354185 
L 312.674325 215.357711 
L 312.897525 211.735063 
L 313.120725 211.227159 
L 313.343925 212.343225 
L 313.567125 208.482411 
L 313.790325 214.793777 
L 314.013525 214.039687 
L 314.236725 210.795344 
L 314.459925 214.507555 
L 314.683125 213.518027 
L 314.906325 213.868637 
L 315.129525 212.363312 
L 315.352725 206.031895 
L 315.575925 205.994228 
L 315.799125 200.881427 
L 316.022325 205.723724 
L 316.245525 205.477688 
L 316.468725 208.368981 
L 316.691925 207.734028 
L 316.915125 210.69603 
L 317.138325 211.439192 
L 317.361525 214.485382 
L 317.584725 210.769741 
L 317.807925 211.917211 
L 318.031125 209.366695 
L 318.254325 204.907154 
L 318.477525 208.909802 
L 318.700725 206.368078 
L 318.923925 208.550037 
L 319.147125 206.157342 
L 319.370325 212.984041 
L 319.593525 208.834414 
L 319.816725 211.965152 
L 320.039925 217.408254 
L 320.263125 215.723052 
L 320.486325 211.838554 
L 320.709525 213.121582 
L 320.932725 208.151885 
L 321.155925 212.665902 
L 321.379125 207.400628 
L 321.602325 207.395572 
L 322.048725 206.944694 
L 322.495125 211.372685 
L 322.718325 212.950352 
L 323.164725 206.467044 
L 323.387925 208.548631 
L 323.611125 209.151147 
L 323.834325 207.720137 
L 324.057525 204.516154 
L 324.503925 213.26671 
L 324.727125 212.75549 
L 324.950325 207.718857 
L 325.396725 220.373017 
L 325.619925 216.249469 
L 325.843125 206.638907 
L 326.066325 202.955575 
L 326.289525 201.833536 
L 326.512725 202.550135 
L 326.735925 202.563133 
L 327.182325 210.347952 
L 327.405525 209.334241 
L 327.628725 219.226759 
L 327.851925 221.007388 
L 328.298325 208.372041 
L 328.521525 207.188428 
L 328.967925 200.18131 
L 329.414325 205.079194 
L 329.860725 218.349641 
L 330.083925 215.029229 
L 330.307125 214.223449 
L 330.530325 210.64579 
L 330.753525 210.011868 
L 330.976725 203.355981 
L 331.423125 214.129076 
L 331.646325 214.495057 
L 332.092725 218.116613 
L 332.315925 210.0602 
L 332.539125 211.609972 
L 332.762325 211.648362 
L 332.985525 212.363563 
L 333.208725 207.935227 
L 333.655125 210.701058 
L 333.878325 213.82538 
L 334.101525 211.394356 
L 334.324725 210.811997 
L 334.547925 202.589494 
L 334.771125 203.374021 
L 334.994325 207.827855 
L 335.217525 206.79808 
L 335.440725 204.435787 
L 335.663925 205.815905 
L 335.887125 205.252006 
L 336.110325 206.646516 
L 336.333525 215.367179 
L 336.556725 211.394503 
L 336.779925 213.942954 
L 337.003125 215.08426 
L 337.226325 219.255384 
L 337.672725 205.498556 
L 337.895925 205.69576 
L 338.119125 207.6012 
L 338.342325 202.384796 
L 338.565525 202.058832 
L 338.788725 204.434517 
L 339.011925 211.958053 
L 339.235125 210.970353 
L 339.458325 212.832111 
L 339.681525 218.272715 
L 340.797525 203.884506 
L 341.020725 203.318351 
L 341.243925 208.547677 
L 341.467125 210.74314 
L 341.690325 215.924065 
L 341.913525 209.633391 
L 342.136725 214.24835 
L 342.359925 202.8241 
L 342.583125 203.996612 
L 342.806325 203.238637 
L 343.029525 203.952975 
L 343.252725 209.849165 
L 343.475925 211.643116 
L 343.699125 214.652288 
L 344.145525 214.36503 
L 344.368725 213.037386 
L 344.591925 210.113514 
L 344.815125 210.609679 
L 345.261525 204.54487 
L 345.484725 210.028046 
L 345.707925 209.544235 
L 345.931125 210.210625 
L 346.154325 210.34242 
L 346.377525 208.054009 
L 346.600725 216.362348 
L 346.823925 216.328128 
L 347.047125 213.263733 
L 347.270325 214.315061 
L 347.493525 211.543753 
L 347.716725 206.641793 
L 347.939925 210.266654 
L 348.163125 209.975649 
L 348.609525 210.403415 
L 348.832725 215.052803 
L 349.055925 212.124961 
L 349.279125 211.558135 
L 349.502325 209.20033 
L 349.725525 210.531289 
L 349.948725 205.573559 
L 350.171925 204.664987 
L 350.618325 214.679566 
L 350.841525 215.382452 
L 351.287925 205.682437 
L 351.511125 208.352359 
L 351.957525 209.509856 
L 352.180725 208.387108 
L 352.403925 208.034462 
L 352.627125 212.013191 
L 353.073525 204.324473 
L 353.296725 203.969031 
L 353.519925 202.721491 
L 353.743125 207.711345 
L 353.966325 203.242318 
L 354.189525 209.95233 
L 354.412725 206.723916 
L 354.635925 210.119521 
L 354.859125 208.619137 
L 355.082325 210.155682 
L 355.305525 212.825459 
L 355.528725 209.285509 
L 355.751925 213.338635 
L 355.975125 215.022649 
L 356.198325 209.356497 
L 356.421525 211.687462 
L 356.644725 211.622805 
L 356.867925 215.393149 
L 357.091125 208.435828 
L 357.314325 206.186309 
L 357.537525 205.935688 
L 357.760725 210.705806 
L 357.983925 212.408096 
L 358.207125 212.627125 
L 358.653525 207.927333 
L 358.876725 207.186491 
L 359.099925 209.698594 
L 359.323125 210.430174 
L 359.546325 209.331298 
L 359.769525 210.900453 
L 359.992725 209.222317 
L 360.215925 211.89248 
L 360.439125 218.118541 
L 360.662325 217.33182 
L 360.885525 211.229557 
L 361.108725 212.765172 
L 361.331925 210.60656 
L 362.001525 199.443781 
L 362.224725 206.177087 
L 362.447925 205.106473 
L 362.671125 208.747137 
L 362.894325 210.240795 
L 363.117525 209.612136 
L 363.340725 212.569323 
L 363.563925 217.02276 
L 363.787125 216.632636 
L 364.010325 215.847812 
L 364.233525 215.552813 
L 364.679925 208.381944 
L 364.903125 209.399935 
L 364.903125 209.399935 
" clip-path="url(#p3824e21635)" style="fill: none; stroke: #ff7f0e; stroke-width: 1.5; stroke-linecap: square"/>
   </g>
   <g id="patch_3">
    <path d="M 30.103125 253.44 
L 30.103125 36 
" style="fill: none; stroke: #000000; stroke-width: 0.8; stroke-linejoin: miter; stroke-linecap: square"/>
   </g>
   <g id="patch_4">
    <path d="M 364.903125 253.44 
L 364.903125 36 
" style="fill: none; stroke: #000000; stroke-width: 0.8; stroke-linejoin: miter; stroke-linecap: square"/>
   </g>
   <g id="patch_5">
    <path d="M 30.103125 253.44 
L 364.903125 253.44 
" style="fill: none; stroke: #000000; stroke-width: 0.8; stroke-linejoin: miter; stroke-linecap: square"/>
   </g>
   <g id="patch_6">
    <path d="M 30.103125 36 
L 364.903125 36 
" style="fill: none; stroke: #000000; stroke-width: 0.8; stroke-linejoin: miter; stroke-linecap: square"/>
   </g>
   <g id="legend_1">
    <g id="patch_7">
     <path d="M 288.403125 86.278125 
L 357.903125 86.278125 
Q 359.903125 86.278125 359.903125 84.278125 
L 359.903125 43 
Q 359.903125 41 357.903125 41 
L 288.403125 41 
Q 286.403125 41 286.403125 43 
L 286.403125 84.278125 
Q 286.403125 86.278125 288.403125 86.278125 
z
" style="fill: #ffffff; opacity: 0.8; stroke: #cccccc; stroke-linejoin: miter"/>
    </g>
    <g id="line2d_16">
     <path d="M 290.403125 49.098437 
L 300.403125 49.098437 
L 310.403125 49.098437 
" style="fill: none; stroke: #1f77b4; stroke-width: 1.5; stroke-linecap: square"/>
    </g>
    <g id="text_14">
     <!-- $x(t)$ -->
     <g transform="translate(318.403125 52.598437) scale(0.1 -0.1)">
      <defs>
       <path id="DejaVuSans-Oblique-78" d="M 3841 3500 
L 2234 1784 
L 3219 0 
L 2559 0 
L 1819 1388 
L 531 0 
L -166 0 
L 1556 1844 
L 641 3500 
L 1300 3500 
L 1972 2234 
L 3144 3500 
L 3841 3500 
z
" transform="scale(0.015625)"/>
       <path id="DejaVuSans-28" d="M 1984 4856 
Q 1566 4138 1362 3434 
Q 1159 2731 1159 2009 
Q 1159 1288 1364 580 
Q 1569 -128 1984 -844 
L 1484 -844 
Q 1016 -109 783 600 
Q 550 1309 550 2009 
Q 550 2706 781 3412 
Q 1013 4119 1484 4856 
L 1984 4856 
z
" transform="scale(0.015625)"/>
       <path id="DejaVuSans-Oblique-74" d="M 2706 3500 
L 2619 3053 
L 1472 3053 
L 1100 1153 
Q 1081 1047 1072 975 
Q 1063 903 1063 863 
Q 1063 663 1183 572 
Q 1303 481 1569 481 
L 2150 481 
L 2053 0 
L 1503 0 
Q 991 0 739 200 
Q 488 400 488 806 
Q 488 878 497 964 
Q 506 1050 525 1153 
L 897 3053 
L 409 3053 
L 500 3500 
L 978 3500 
L 1172 4494 
L 1747 4494 
L 1556 3500 
L 2706 3500 
z
" transform="scale(0.015625)"/>
       <path id="DejaVuSans-29" d="M 513 4856 
L 1013 4856 
Q 1481 4119 1714 3412 
Q 1947 2706 1947 2009 
Q 1947 1309 1714 600 
Q 1481 -109 1013 -844 
L 513 -844 
Q 928 -128 1133 580 
Q 1338 1288 1338 2009 
Q 1338 2731 1133 3434 
Q 928 4138 513 4856 
z
" transform="scale(0.015625)"/>
      </defs>
      <use xlink:href="#DejaVuSans-Oblique-78" transform="translate(0 0.125)"/>
      <use xlink:href="#DejaVuSans-28" transform="translate(59.179688 0.125)"/>
      <use xlink:href="#DejaVuSans-Oblique-74" transform="translate(98.193359 0.125)"/>
      <use xlink:href="#DejaVuSans-29" transform="translate(137.402344 0.125)"/>
     </g>
    </g>
    <g id="line2d_17">
     <path d="M 290.403125 73.478125 
L 300.403125 73.478125 
L 310.403125 73.478125 
" style="fill: none; stroke: #ff7f0e; stroke-width: 1.5; stroke-linecap: square"/>
    </g>
    <g id="text_15">
     <!-- $\hat{\int_{0}^{1.5}{x(t)}}$ -->
     <g transform="translate(318.403125 76.978125) scale(0.1 -0.1)">
      <defs>
       <path id="DejaVuSans-302" d="M -1831 5119 
L -1369 5119 
L -603 3944 
L -1038 3944 
L -1600 4709 
L -2163 3944 
L -2597 3944 
L -1831 5119 
z
M -1600 3584 
L -1600 3584 
z
" transform="scale(0.015625)"/>
       <path id="DejaVuSansDisplay-222b" d="M 2134 5525 
Q 2172 6263 2528 6556 
Q 2884 6850 3218 6850 
Q 3553 6850 3833 6575 
Q 4113 6300 4200 5678 
L 3544 5613 
Q 3469 6188 3219 6188 
Q 2906 6188 2869 5413 
L 2581 -597 
Q 2547 -1334 2187 -1628 
Q 1828 -1922 1497 -1922 
Q 1163 -1922 883 -1647 
Q 603 -1372 516 -750 
L 1172 -684 
Q 1247 -1259 1497 -1259 
Q 1809 -1259 1847 -488 
L 2134 5525 
z
" transform="scale(0.015625)"/>
       <path id="DejaVuSans-35" d="M 691 4666 
L 3169 4666 
L 3169 4134 
L 1269 4134 
L 1269 2991 
Q 1406 3038 1543 3061 
Q 1681 3084 1819 3084 
Q 2600 3084 3056 2656 
Q 3513 2228 3513 1497 
Q 3513 744 3044 326 
Q 2575 -91 1722 -91 
Q 1428 -91 1123 -41 
Q 819 9 494 109 
L 494 744 
Q 775 591 1075 516 
Q 1375 441 1709 441 
Q 2250 441 2565 725 
Q 2881 1009 2881 1497 
Q 2881 1984 2565 2268 
Q 2250 2553 1709 2553 
Q 1456 2553 1204 2497 
Q 953 2441 691 2322 
L 691 4666 
z
" transform="scale(0.015625)"/>
      </defs>
      <use xlink:href="#DejaVuSans-302" transform="translate(259.198975 93.015625)"/>
      <use xlink:href="#DejaVuSansDisplay-222b" transform="translate(0 0.325)"/>
      <use xlink:href="#DejaVuSans-31" transform="translate(86.744141 85.48125) scale(0.7)"/>
      <use xlink:href="#DejaVuSans-2e" transform="translate(131.280273 85.48125) scale(0.7)"/>
      <use xlink:href="#DejaVuSans-35" transform="translate(153.53125 85.48125) scale(0.7)"/>
      <use xlink:href="#DejaVuSans-30" transform="translate(71.759766 -51.58125) scale(0.7)"/>
      <use xlink:href="#DejaVuSans-Oblique-78" transform="translate(198.067383 0.325)"/>
      <use xlink:href="#DejaVuSans-28" transform="translate(257.24707 0.325)"/>
      <use xlink:href="#DejaVuSans-Oblique-74" transform="translate(296.260742 0.325)"/>
      <use xlink:href="#DejaVuSans-29" transform="translate(335.469727 0.325)"/>
     </g>
    </g>
   </g>
  </g>
  <g id="text_16">
   <!-- Neural Integrator for a step input -->
   <g transform="translate(92.3775 16.318125) scale(0.12 -0.12)">
    <defs>
     <path id="DejaVuSans-4e" d="M 628 4666 
L 1478 4666 
L 3547 763 
L 3547 4666 
L 4159 4666 
L 4159 0 
L 3309 0 
L 1241 3903 
L 1241 0 
L 628 0 
L 628 4666 
z
" transform="scale(0.015625)"/>
     <path id="DejaVuSans-65" d="M 3597 1894 
L 3597 1613 
L 953 1613 
Q 991 1019 1311 708 
Q 1631 397 2203 397 
Q 2534 397 2845 478 
Q 3156 559 3463 722 
L 3463 178 
Q 3153 47 2828 -22 
Q 2503 -91 2169 -91 
Q 1331 -91 842 396 
Q 353 884 353 1716 
Q 353 2575 817 3079 
Q 1281 3584 2069 3584 
Q 2775 3584 3186 3129 
Q 3597 2675 3597 1894 
z
M 3022 2063 
Q 3016 2534 2758 2815 
Q 2500 3097 2075 3097 
Q 1594 3097 1305 2825 
Q 1016 2553 972 2059 
L 3022 2063 
z
" transform="scale(0.015625)"/>
     <path id="DejaVuSans-75" d="M 544 1381 
L 544 3500 
L 1119 3500 
L 1119 1403 
Q 1119 906 1312 657 
Q 1506 409 1894 409 
Q 2359 409 2629 706 
Q 2900 1003 2900 1516 
L 2900 3500 
L 3475 3500 
L 3475 0 
L 2900 0 
L 2900 538 
Q 2691 219 2414 64 
Q 2138 -91 1772 -91 
Q 1169 -91 856 284 
Q 544 659 544 1381 
z
M 1991 3584 
L 1991 3584 
z
" transform="scale(0.015625)"/>
     <path id="DejaVuSans-72" d="M 2631 2963 
Q 2534 3019 2420 3045 
Q 2306 3072 2169 3072 
Q 1681 3072 1420 2755 
Q 1159 2438 1159 1844 
L 1159 0 
L 581 0 
L 581 3500 
L 1159 3500 
L 1159 2956 
Q 1341 3275 1631 3429 
Q 1922 3584 2338 3584 
Q 2397 3584 2469 3576 
Q 2541 3569 2628 3553 
L 2631 2963 
z
" transform="scale(0.015625)"/>
     <path id="DejaVuSans-61" d="M 2194 1759 
Q 1497 1759 1228 1600 
Q 959 1441 959 1056 
Q 959 750 1161 570 
Q 1363 391 1709 391 
Q 2188 391 2477 730 
Q 2766 1069 2766 1631 
L 2766 1759 
L 2194 1759 
z
M 3341 1997 
L 3341 0 
L 2766 0 
L 2766 531 
Q 2569 213 2275 61 
Q 1981 -91 1556 -91 
Q 1019 -91 701 211 
Q 384 513 384 1019 
Q 384 1609 779 1909 
Q 1175 2209 1959 2209 
L 2766 2209 
L 2766 2266 
Q 2766 2663 2505 2880 
Q 2244 3097 1772 3097 
Q 1472 3097 1187 3025 
Q 903 2953 641 2809 
L 641 3341 
Q 956 3463 1253 3523 
Q 1550 3584 1831 3584 
Q 2591 3584 2966 3190 
Q 3341 2797 3341 1997 
z
" transform="scale(0.015625)"/>
     <path id="DejaVuSans-6c" d="M 603 4863 
L 1178 4863 
L 1178 0 
L 603 0 
L 603 4863 
z
" transform="scale(0.015625)"/>
     <path id="DejaVuSans-20" transform="scale(0.015625)"/>
     <path id="DejaVuSans-49" d="M 628 4666 
L 1259 4666 
L 1259 0 
L 628 0 
L 628 4666 
z
" transform="scale(0.015625)"/>
     <path id="DejaVuSans-6e" d="M 3513 2113 
L 3513 0 
L 2938 0 
L 2938 2094 
Q 2938 2591 2744 2837 
Q 2550 3084 2163 3084 
Q 1697 3084 1428 2787 
Q 1159 2491 1159 1978 
L 1159 0 
L 581 0 
L 581 3500 
L 1159 3500 
L 1159 2956 
Q 1366 3272 1645 3428 
Q 1925 3584 2291 3584 
Q 2894 3584 3203 3211 
Q 3513 2838 3513 2113 
z
" transform="scale(0.015625)"/>
     <path id="DejaVuSans-74" d="M 1172 4494 
L 1172 3500 
L 2356 3500 
L 2356 3053 
L 1172 3053 
L 1172 1153 
Q 1172 725 1289 603 
Q 1406 481 1766 481 
L 2356 481 
L 2356 0 
L 1766 0 
Q 1100 0 847 248 
Q 594 497 594 1153 
L 594 3053 
L 172 3053 
L 172 3500 
L 594 3500 
L 594 4494 
L 1172 4494 
z
" transform="scale(0.015625)"/>
     <path id="DejaVuSans-67" d="M 2906 1791 
Q 2906 2416 2648 2759 
Q 2391 3103 1925 3103 
Q 1463 3103 1205 2759 
Q 947 2416 947 1791 
Q 947 1169 1205 825 
Q 1463 481 1925 481 
Q 2391 481 2648 825 
Q 2906 1169 2906 1791 
z
M 3481 434 
Q 3481 -459 3084 -895 
Q 2688 -1331 1869 -1331 
Q 1566 -1331 1297 -1286 
Q 1028 -1241 775 -1147 
L 775 -588 
Q 1028 -725 1275 -790 
Q 1522 -856 1778 -856 
Q 2344 -856 2625 -561 
Q 2906 -266 2906 331 
L 2906 616 
Q 2728 306 2450 153 
Q 2172 0 1784 0 
Q 1141 0 747 490 
Q 353 981 353 1791 
Q 353 2603 747 3093 
Q 1141 3584 1784 3584 
Q 2172 3584 2450 3431 
Q 2728 3278 2906 2969 
L 2906 3500 
L 3481 3500 
L 3481 434 
z
" transform="scale(0.015625)"/>
     <path id="DejaVuSans-6f" d="M 1959 3097 
Q 1497 3097 1228 2736 
Q 959 2375 959 1747 
Q 959 1119 1226 758 
Q 1494 397 1959 397 
Q 2419 397 2687 759 
Q 2956 1122 2956 1747 
Q 2956 2369 2687 2733 
Q 2419 3097 1959 3097 
z
M 1959 3584 
Q 2709 3584 3137 3096 
Q 3566 2609 3566 1747 
Q 3566 888 3137 398 
Q 2709 -91 1959 -91 
Q 1206 -91 779 398 
Q 353 888 353 1747 
Q 353 2609 779 3096 
Q 1206 3584 1959 3584 
z
" transform="scale(0.015625)"/>
     <path id="DejaVuSans-66" d="M 2375 4863 
L 2375 4384 
L 1825 4384 
Q 1516 4384 1395 4259 
Q 1275 4134 1275 3809 
L 1275 3500 
L 2222 3500 
L 2222 3053 
L 1275 3053 
L 1275 0 
L 697 0 
L 697 3053 
L 147 3053 
L 147 3500 
L 697 3500 
L 697 3744 
Q 697 4328 969 4595 
Q 1241 4863 1831 4863 
L 2375 4863 
z
" transform="scale(0.015625)"/>
     <path id="DejaVuSans-73" d="M 2834 3397 
L 2834 2853 
Q 2591 2978 2328 3040 
Q 2066 3103 1784 3103 
Q 1356 3103 1142 2972 
Q 928 2841 928 2578 
Q 928 2378 1081 2264 
Q 1234 2150 1697 2047 
L 1894 2003 
Q 2506 1872 2764 1633 
Q 3022 1394 3022 966 
Q 3022 478 2636 193 
Q 2250 -91 1575 -91 
Q 1294 -91 989 -36 
Q 684 19 347 128 
L 347 722 
Q 666 556 975 473 
Q 1284 391 1588 391 
Q 1994 391 2212 530 
Q 2431 669 2431 922 
Q 2431 1156 2273 1281 
Q 2116 1406 1581 1522 
L 1381 1569 
Q 847 1681 609 1914 
Q 372 2147 372 2553 
Q 372 3047 722 3315 
Q 1072 3584 1716 3584 
Q 2034 3584 2315 3537 
Q 2597 3491 2834 3397 
z
" transform="scale(0.015625)"/>
     <path id="DejaVuSans-70" d="M 1159 525 
L 1159 -1331 
L 581 -1331 
L 581 3500 
L 1159 3500 
L 1159 2969 
Q 1341 3281 1617 3432 
Q 1894 3584 2278 3584 
Q 2916 3584 3314 3078 
Q 3713 2572 3713 1747 
Q 3713 922 3314 415 
Q 2916 -91 2278 -91 
Q 1894 -91 1617 61 
Q 1341 213 1159 525 
z
M 3116 1747 
Q 3116 2381 2855 2742 
Q 2594 3103 2138 3103 
Q 1681 3103 1420 2742 
Q 1159 2381 1159 1747 
Q 1159 1113 1420 752 
Q 1681 391 2138 391 
Q 2594 391 2855 752 
Q 3116 1113 3116 1747 
z
" transform="scale(0.015625)"/>
     <path id="DejaVuSans-69" d="M 603 3500 
L 1178 3500 
L 1178 0 
L 603 0 
L 603 3500 
z
M 603 4863 
L 1178 4863 
L 1178 4134 
L 603 4134 
L 603 4863 
z
" transform="scale(0.015625)"/>
    </defs>
    <use xlink:href="#DejaVuSans-4e"/>
    <use xlink:href="#DejaVuSans-65" x="74.804688"/>
    <use xlink:href="#DejaVuSans-75" x="136.328125"/>
    <use xlink:href="#DejaVuSans-72" x="199.707031"/>
    <use xlink:href="#DejaVuSans-61" x="240.820312"/>
    <use xlink:href="#DejaVuSans-6c" x="302.099609"/>
    <use xlink:href="#DejaVuSans-20" x="329.882812"/>
    <use xlink:href="#DejaVuSans-49" x="361.669922"/>
    <use xlink:href="#DejaVuSans-6e" x="391.162109"/>
    <use xlink:href="#DejaVuSans-74" x="454.541016"/>
    <use xlink:href="#DejaVuSans-65" x="493.75"/>
    <use xlink:href="#DejaVuSans-67" x="555.273438"/>
    <use xlink:href="#DejaVuSans-72" x="618.75"/>
    <use xlink:href="#DejaVuSans-61" x="659.863281"/>
    <use xlink:href="#DejaVuSans-74" x="721.142578"/>
    <use xlink:href="#DejaVuSans-6f" x="760.351562"/>
    <use xlink:href="#DejaVuSans-72" x="821.533203"/>
    <use xlink:href="#DejaVuSans-20" x="862.646484"/>
    <use xlink:href="#DejaVuSans-66" x="894.433594"/>
    <use xlink:href="#DejaVuSans-6f" x="929.638672"/>
    <use xlink:href="#DejaVuSans-72" x="990.820312"/>
    <use xlink:href="#DejaVuSans-20" x="1031.933594"/>
    <use xlink:href="#DejaVuSans-61" x="1063.720703"/>
    <use xlink:href="#DejaVuSans-20" x="1125"/>
    <use xlink:href="#DejaVuSans-73" x="1156.787109"/>
    <use xlink:href="#DejaVuSans-74" x="1208.886719"/>
    <use xlink:href="#DejaVuSans-65" x="1248.095703"/>
    <use xlink:href="#DejaVuSans-70" x="1309.619141"/>
    <use xlink:href="#DejaVuSans-20" x="1373.095703"/>
    <use xlink:href="#DejaVuSans-69" x="1404.882812"/>
    <use xlink:href="#DejaVuSans-6e" x="1432.666016"/>
    <use xlink:href="#DejaVuSans-70" x="1496.044922"/>
    <use xlink:href="#DejaVuSans-75" x="1559.521484"/>
    <use xlink:href="#DejaVuSans-74" x="1622.900391"/>
   </g>
  </g>
 </g>
 <defs>
  <clipPath id="p3824e21635">
   <rect x="30.103125" y="36" width="334.8" height="217.44"/>
  </clipPath>
 </defs>
</svg>
