<?xml version="1.0" encoding="utf-8" standalone="no"?>
<!DOCTYPE svg PUBLIC "-//W3C//DTD SVG 1.1//EN"
  "http://www.w3.org/Graphics/SVG/1.1/DTD/svg11.dtd">
<svg xmlns:xlink="http://www.w3.org/1999/xlink" width="372.103125pt" height="277.318125pt" viewBox="0 0 372.103125 277.318125" xmlns="http://www.w3.org/2000/svg" version="1.1">
 <metadata>
  <rdf:RDF xmlns:dc="http://purl.org/dc/elements/1.1/" xmlns:cc="http://creativecommons.org/ns#" xmlns:rdf="http://www.w3.org/1999/02/22-rdf-syntax-ns#">
   <cc:Work>
    <dc:type rdf:resource="http://purl.org/dc/dcmitype/StillImage"/>
    <dc:date>2022-11-14T18:37:45.867659</dc:date>
    <dc:format>image/svg+xml</dc:format>
    <dc:creator>
     <cc:Agent>
      <dc:title>Matplotlib v3.6.0, https://matplotlib.org/</dc:title>
     </cc:Agent>
    </dc:creator>
   </cc:Work>
  </rdf:RDF>
 </metadata>
 <defs>
  <style type="text/css">*{stroke-linejoin: round; stroke-linecap: butt}</style>
 </defs>
 <g id="figure_1">
  <g id="patch_1">
   <path d="M 0 277.318125 
L 372.103125 277.318125 
L 372.103125 0 
L 0 0 
L 0 277.318125 
z
" style="fill: none"/>
  </g>
  <g id="axes_1">
   <g id="patch_2">
    <path d="M 30.103125 253.44 
L 364.903125 253.44 
L 364.903125 36 
L 30.103125 36 
z
" style="fill: #ffffff"/>
   </g>
   <g id="matplotlib.axis_1">
    <g id="xtick_1">
     <g id="line2d_1">
      <defs>
       <path id="mad87aa2515" d="M 0 0 
L 0 3.5 
" style="stroke: #000000; stroke-width: 0.8"/>
      </defs>
      <g>
       <use xlink:href="#mad87aa2515" x="30.103125" y="253.44" style="stroke: #000000; stroke-width: 0.8"/>
      </g>
     </g>
     <g id="text_1">
      <!-- 0.0 -->
      <g transform="translate(22.151563 268.038437) scale(0.1 -0.1)">
       <defs>
        <path id="DejaVuSans-30" d="M 2034 4250 
Q 1547 4250 1301 3770 
Q 1056 3291 1056 2328 
Q 1056 1369 1301 889 
Q 1547 409 2034 409 
Q 2525 409 2770 889 
Q 3016 1369 3016 2328 
Q 3016 3291 2770 3770 
Q 2525 4250 2034 4250 
z
M 2034 4750 
Q 2819 4750 3233 4129 
Q 3647 3509 3647 2328 
Q 3647 1150 3233 529 
Q 2819 -91 2034 -91 
Q 1250 -91 836 529 
Q 422 1150 422 2328 
Q 422 3509 836 4129 
Q 1250 4750 2034 4750 
z
" transform="scale(0.015625)"/>
        <path id="DejaVuSans-2e" d="M 684 794 
L 1344 794 
L 1344 0 
L 684 0 
L 684 794 
z
" transform="scale(0.015625)"/>
       </defs>
       <use xlink:href="#DejaVuSans-30"/>
       <use xlink:href="#DejaVuSans-2e" x="63.623047"/>
       <use xlink:href="#DejaVuSans-30" x="95.410156"/>
      </g>
     </g>
    </g>
    <g id="xtick_2">
     <g id="line2d_2">
      <g>
       <use xlink:href="#mad87aa2515" x="74.743125" y="253.44" style="stroke: #000000; stroke-width: 0.8"/>
      </g>
     </g>
     <g id="text_2">
      <!-- 0.2 -->
      <g transform="translate(66.791563 268.038437) scale(0.1 -0.1)">
       <defs>
        <path id="DejaVuSans-32" d="M 1228 531 
L 3431 531 
L 3431 0 
L 469 0 
L 469 531 
Q 828 903 1448 1529 
Q 2069 2156 2228 2338 
Q 2531 2678 2651 2914 
Q 2772 3150 2772 3378 
Q 2772 3750 2511 3984 
Q 2250 4219 1831 4219 
Q 1534 4219 1204 4116 
Q 875 4013 500 3803 
L 500 4441 
Q 881 4594 1212 4672 
Q 1544 4750 1819 4750 
Q 2544 4750 2975 4387 
Q 3406 4025 3406 3419 
Q 3406 3131 3298 2873 
Q 3191 2616 2906 2266 
Q 2828 2175 2409 1742 
Q 1991 1309 1228 531 
z
" transform="scale(0.015625)"/>
       </defs>
       <use xlink:href="#DejaVuSans-30"/>
       <use xlink:href="#DejaVuSans-2e" x="63.623047"/>
       <use xlink:href="#DejaVuSans-32" x="95.410156"/>
      </g>
     </g>
    </g>
    <g id="xtick_3">
     <g id="line2d_3">
      <g>
       <use xlink:href="#mad87aa2515" x="119.383125" y="253.44" style="stroke: #000000; stroke-width: 0.8"/>
      </g>
     </g>
     <g id="text_3">
      <!-- 0.4 -->
      <g transform="translate(111.431563 268.038437) scale(0.1 -0.1)">
       <defs>
        <path id="DejaVuSans-34" d="M 2419 4116 
L 825 1625 
L 2419 1625 
L 2419 4116 
z
M 2253 4666 
L 3047 4666 
L 3047 1625 
L 3713 1625 
L 3713 1100 
L 3047 1100 
L 3047 0 
L 2419 0 
L 2419 1100 
L 313 1100 
L 313 1709 
L 2253 4666 
z
" transform="scale(0.015625)"/>
       </defs>
       <use xlink:href="#DejaVuSans-30"/>
       <use xlink:href="#DejaVuSans-2e" x="63.623047"/>
       <use xlink:href="#DejaVuSans-34" x="95.410156"/>
      </g>
     </g>
    </g>
    <g id="xtick_4">
     <g id="line2d_4">
      <g>
       <use xlink:href="#mad87aa2515" x="164.023125" y="253.44" style="stroke: #000000; stroke-width: 0.8"/>
      </g>
     </g>
     <g id="text_4">
      <!-- 0.6 -->
      <g transform="translate(156.071563 268.038437) scale(0.1 -0.1)">
       <defs>
        <path id="DejaVuSans-36" d="M 2113 2584 
Q 1688 2584 1439 2293 
Q 1191 2003 1191 1497 
Q 1191 994 1439 701 
Q 1688 409 2113 409 
Q 2538 409 2786 701 
Q 3034 994 3034 1497 
Q 3034 2003 2786 2293 
Q 2538 2584 2113 2584 
z
M 3366 4563 
L 3366 3988 
Q 3128 4100 2886 4159 
Q 2644 4219 2406 4219 
Q 1781 4219 1451 3797 
Q 1122 3375 1075 2522 
Q 1259 2794 1537 2939 
Q 1816 3084 2150 3084 
Q 2853 3084 3261 2657 
Q 3669 2231 3669 1497 
Q 3669 778 3244 343 
Q 2819 -91 2113 -91 
Q 1303 -91 875 529 
Q 447 1150 447 2328 
Q 447 3434 972 4092 
Q 1497 4750 2381 4750 
Q 2619 4750 2861 4703 
Q 3103 4656 3366 4563 
z
" transform="scale(0.015625)"/>
       </defs>
       <use xlink:href="#DejaVuSans-30"/>
       <use xlink:href="#DejaVuSans-2e" x="63.623047"/>
       <use xlink:href="#DejaVuSans-36" x="95.410156"/>
      </g>
     </g>
    </g>
    <g id="xtick_5">
     <g id="line2d_5">
      <g>
       <use xlink:href="#mad87aa2515" x="208.663125" y="253.44" style="stroke: #000000; stroke-width: 0.8"/>
      </g>
     </g>
     <g id="text_5">
      <!-- 0.8 -->
      <g transform="translate(200.711563 268.038437) scale(0.1 -0.1)">
       <defs>
        <path id="DejaVuSans-38" d="M 2034 2216 
Q 1584 2216 1326 1975 
Q 1069 1734 1069 1313 
Q 1069 891 1326 650 
Q 1584 409 2034 409 
Q 2484 409 2743 651 
Q 3003 894 3003 1313 
Q 3003 1734 2745 1975 
Q 2488 2216 2034 2216 
z
M 1403 2484 
Q 997 2584 770 2862 
Q 544 3141 544 3541 
Q 544 4100 942 4425 
Q 1341 4750 2034 4750 
Q 2731 4750 3128 4425 
Q 3525 4100 3525 3541 
Q 3525 3141 3298 2862 
Q 3072 2584 2669 2484 
Q 3125 2378 3379 2068 
Q 3634 1759 3634 1313 
Q 3634 634 3220 271 
Q 2806 -91 2034 -91 
Q 1263 -91 848 271 
Q 434 634 434 1313 
Q 434 1759 690 2068 
Q 947 2378 1403 2484 
z
M 1172 3481 
Q 1172 3119 1398 2916 
Q 1625 2713 2034 2713 
Q 2441 2713 2670 2916 
Q 2900 3119 2900 3481 
Q 2900 3844 2670 4047 
Q 2441 4250 2034 4250 
Q 1625 4250 1398 4047 
Q 1172 3844 1172 3481 
z
" transform="scale(0.015625)"/>
       </defs>
       <use xlink:href="#DejaVuSans-30"/>
       <use xlink:href="#DejaVuSans-2e" x="63.623047"/>
       <use xlink:href="#DejaVuSans-38" x="95.410156"/>
      </g>
     </g>
    </g>
    <g id="xtick_6">
     <g id="line2d_6">
      <g>
       <use xlink:href="#mad87aa2515" x="253.303125" y="253.44" style="stroke: #000000; stroke-width: 0.8"/>
      </g>
     </g>
     <g id="text_6">
      <!-- 1.0 -->
      <g transform="translate(245.351563 268.038437) scale(0.1 -0.1)">
       <defs>
        <path id="DejaVuSans-31" d="M 794 531 
L 1825 531 
L 1825 4091 
L 703 3866 
L 703 4441 
L 1819 4666 
L 2450 4666 
L 2450 531 
L 3481 531 
L 3481 0 
L 794 0 
L 794 531 
z
" transform="scale(0.015625)"/>
       </defs>
       <use xlink:href="#DejaVuSans-31"/>
       <use xlink:href="#DejaVuSans-2e" x="63.623047"/>
       <use xlink:href="#DejaVuSans-30" x="95.410156"/>
      </g>
     </g>
    </g>
    <g id="xtick_7">
     <g id="line2d_7">
      <g>
       <use xlink:href="#mad87aa2515" x="297.943125" y="253.44" style="stroke: #000000; stroke-width: 0.8"/>
      </g>
     </g>
     <g id="text_7">
      <!-- 1.2 -->
      <g transform="translate(289.991563 268.038437) scale(0.1 -0.1)">
       <use xlink:href="#DejaVuSans-31"/>
       <use xlink:href="#DejaVuSans-2e" x="63.623047"/>
       <use xlink:href="#DejaVuSans-32" x="95.410156"/>
      </g>
     </g>
    </g>
    <g id="xtick_8">
     <g id="line2d_8">
      <g>
       <use xlink:href="#mad87aa2515" x="342.583125" y="253.44" style="stroke: #000000; stroke-width: 0.8"/>
      </g>
     </g>
     <g id="text_8">
      <!-- 1.4 -->
      <g transform="translate(334.631563 268.038437) scale(0.1 -0.1)">
       <use xlink:href="#DejaVuSans-31"/>
       <use xlink:href="#DejaVuSans-2e" x="63.623047"/>
       <use xlink:href="#DejaVuSans-34" x="95.410156"/>
      </g>
     </g>
    </g>
   </g>
   <g id="matplotlib.axis_2">
    <g id="ytick_1">
     <g id="line2d_9">
      <defs>
       <path id="mfa2082d75b" d="M 0 0 
L -3.5 0 
" style="stroke: #000000; stroke-width: 0.8"/>
      </defs>
      <g>
       <use xlink:href="#mfa2082d75b" x="30.103125" y="234.638195" style="stroke: #000000; stroke-width: 0.8"/>
      </g>
     </g>
     <g id="text_9">
      <!-- 0.0 -->
      <g transform="translate(7.2 238.437413) scale(0.1 -0.1)">
       <use xlink:href="#DejaVuSans-30"/>
       <use xlink:href="#DejaVuSans-2e" x="63.623047"/>
       <use xlink:href="#DejaVuSans-30" x="95.410156"/>
      </g>
     </g>
    </g>
    <g id="ytick_2">
     <g id="line2d_10">
      <g>
       <use xlink:href="#mfa2082d75b" x="30.103125" y="192.692504" style="stroke: #000000; stroke-width: 0.8"/>
      </g>
     </g>
     <g id="text_10">
      <!-- 0.2 -->
      <g transform="translate(7.2 196.491723) scale(0.1 -0.1)">
       <use xlink:href="#DejaVuSans-30"/>
       <use xlink:href="#DejaVuSans-2e" x="63.623047"/>
       <use xlink:href="#DejaVuSans-32" x="95.410156"/>
      </g>
     </g>
    </g>
    <g id="ytick_3">
     <g id="line2d_11">
      <g>
       <use xlink:href="#mfa2082d75b" x="30.103125" y="150.746813" style="stroke: #000000; stroke-width: 0.8"/>
      </g>
     </g>
     <g id="text_11">
      <!-- 0.4 -->
      <g transform="translate(7.2 154.546032) scale(0.1 -0.1)">
       <use xlink:href="#DejaVuSans-30"/>
       <use xlink:href="#DejaVuSans-2e" x="63.623047"/>
       <use xlink:href="#DejaVuSans-34" x="95.410156"/>
      </g>
     </g>
    </g>
    <g id="ytick_4">
     <g id="line2d_12">
      <g>
       <use xlink:href="#mfa2082d75b" x="30.103125" y="108.801123" style="stroke: #000000; stroke-width: 0.8"/>
      </g>
     </g>
     <g id="text_12">
      <!-- 0.6 -->
      <g transform="translate(7.2 112.600342) scale(0.1 -0.1)">
       <use xlink:href="#DejaVuSans-30"/>
       <use xlink:href="#DejaVuSans-2e" x="63.623047"/>
       <use xlink:href="#DejaVuSans-36" x="95.410156"/>
      </g>
     </g>
    </g>
    <g id="ytick_5">
     <g id="line2d_13">
      <g>
       <use xlink:href="#mfa2082d75b" x="30.103125" y="66.855432" style="stroke: #000000; stroke-width: 0.8"/>
      </g>
     </g>
     <g id="text_13">
      <!-- 0.8 -->
      <g transform="translate(7.2 70.654651) scale(0.1 -0.1)">
       <use xlink:href="#DejaVuSans-30"/>
       <use xlink:href="#DejaVuSans-2e" x="63.623047"/>
       <use xlink:href="#DejaVuSans-38" x="95.410156"/>
      </g>
     </g>
    </g>
   </g>
   <g id="line2d_14">
    <path d="M 30.326325 234.638195 
L 39.031125 234.638195 
L 39.700725 185.71618 
L 40.370325 149.473861 
L 41.039925 122.62489 
L 41.709525 102.734683 
L 42.379125 87.999656 
L 43.048725 77.083679 
L 43.718325 68.996925 
L 44.387925 63.006109 
L 45.057525 58.568004 
L 45.727125 55.280175 
L 46.396725 52.844492 
L 47.066325 51.040093 
L 47.959125 49.339767 
L 48.851925 48.200004 
L 49.744725 47.435998 
L 50.860725 46.824778 
L 52.199925 46.399673 
L 53.985525 46.114928 
L 56.663925 45.952567 
L 62.467125 45.887785 
L 66.038325 45.883636 
L 66.707925 94.805379 
L 67.377525 131.047497 
L 68.047125 157.896318 
L 68.716725 177.786414 
L 69.386325 192.52136 
L 70.055925 203.437276 
L 70.725525 211.523986 
L 71.395125 217.514767 
L 72.064725 221.952848 
L 72.734325 225.240659 
L 73.403925 227.676329 
L 74.073525 229.480717 
L 74.966325 231.181034 
L 75.859125 232.320791 
L 76.751925 233.084792 
L 77.867925 233.696009 
L 79.207125 234.121112 
L 80.992725 234.405854 
L 83.671125 234.568215 
L 89.474325 234.632997 
L 141.926325 234.638195 
L 364.903125 234.638195 
L 364.903125 234.638195 
" clip-path="url(#pa501a12024)" style="fill: none; stroke: #1f77b4; stroke-width: 1.5; stroke-linecap: square"/>
   </g>
   <g id="line2d_15">
    <path d="M 30.326325 234.638195 
L 30.772725 234.826415 
L 30.995925 233.760214 
L 31.219125 235.831226 
L 31.442325 240.725635 
L 31.665525 226.134666 
L 32.111925 234.150341 
L 32.335125 235.703206 
L 32.558325 240.277954 
L 32.781525 234.897525 
L 33.004725 238.685598 
L 33.451125 232.976058 
L 33.674325 233.237216 
L 34.120725 224.315066 
L 34.567125 228.201654 
L 34.790325 234.176099 
L 35.013525 234.68691 
L 35.236725 231.514204 
L 35.459925 231.249257 
L 35.683125 239.40556 
L 36.352725 243.403232 
L 36.575925 243.556364 
L 36.799125 236.012904 
L 37.022325 233.955962 
L 37.245525 237.0768 
L 37.468725 233.318659 
L 37.691925 225.734615 
L 37.915125 225.133489 
L 38.138325 228.202675 
L 38.584725 230.943039 
L 38.807925 233.585835 
L 39.031125 242.459629 
L 39.254325 237.741757 
L 39.477525 238.318752 
L 39.700725 227.143481 
L 39.923925 234.678958 
L 40.147125 227.083247 
L 40.370325 226.61261 
L 40.816725 228.15422 
L 41.263125 224.296747 
L 41.709525 231.805355 
L 41.932725 232.307977 
L 42.379125 220.405173 
L 42.602325 219.445744 
L 42.825525 223.979647 
L 43.048725 225.59943 
L 43.271925 223.856953 
L 43.495125 224.364247 
L 43.941525 231.161041 
L 44.164725 229.182737 
L 44.387925 230.79616 
L 44.611125 226.66977 
L 44.834325 219.332136 
L 45.057525 219.809908 
L 45.280725 222.541908 
L 45.727125 221.054834 
L 45.950325 219.178668 
L 46.173525 219.876563 
L 46.396725 217.652258 
L 46.619925 216.965995 
L 46.843125 219.654422 
L 47.066325 220.100119 
L 47.289525 220.11492 
L 47.512725 216.590872 
L 47.735925 215.978254 
L 47.959125 224.025536 
L 48.182325 219.936689 
L 48.405525 218.807888 
L 48.628725 216.900439 
L 48.851925 213.973561 
L 49.075125 217.075654 
L 49.298325 222.567671 
L 49.521525 222.622918 
L 49.744725 219.778786 
L 49.967925 218.701175 
L 50.191125 219.647937 
L 50.414325 213.398683 
L 50.860725 221.090275 
L 51.083925 222.855814 
L 51.307125 213.51734 
L 51.753525 215.152799 
L 51.976725 212.208655 
L 52.199925 211.43105 
L 52.423125 212.246793 
L 52.646325 218.57242 
L 52.869525 211.121423 
L 53.092725 211.527103 
L 53.315925 210.892204 
L 53.762325 216.699955 
L 53.985525 217.577594 
L 54.208725 221.79102 
L 54.431925 223.713101 
L 54.655125 221.671532 
L 55.101525 202.885225 
L 55.324725 202.551301 
L 55.994325 207.457276 
L 56.217525 217.698849 
L 56.440725 215.111402 
L 56.663925 214.955659 
L 56.887125 213.01696 
L 57.110325 215.368265 
L 57.333525 215.330205 
L 57.556725 210.455291 
L 57.779925 211.513094 
L 58.003125 213.398879 
L 58.226325 209.340094 
L 58.449525 210.079921 
L 58.672725 207.21688 
L 59.119125 213.254445 
L 59.342325 213.242307 
L 59.565525 211.371536 
L 59.788725 201.1528 
L 60.011925 204.614134 
L 60.235125 203.853222 
L 60.458325 201.645888 
L 60.681525 203.002187 
L 61.127925 216.813346 
L 61.351125 210.400423 
L 61.574325 211.304373 
L 61.797525 213.723055 
L 62.020725 201.41157 
L 62.243925 202.451074 
L 62.690325 214.055006 
L 62.913525 209.645544 
L 63.136725 208.295331 
L 63.359925 208.264732 
L 63.583125 207.576511 
L 63.806325 202.951321 
L 64.029525 207.170239 
L 64.699125 197.236911 
L 64.922325 197.916789 
L 65.591925 211.632918 
L 65.815125 207.804389 
L 66.038325 215.001668 
L 66.707925 198.621578 
L 66.931125 199.107789 
L 67.154325 199.289214 
L 67.600725 208.516486 
L 67.823925 203.756407 
L 68.047125 203.970045 
L 68.270325 209.144802 
L 69.163125 201.596515 
L 69.609525 211.72766 
L 69.832725 205.449621 
L 70.055925 212.135079 
L 70.502325 218.848843 
L 70.725525 223.937046 
L 71.171925 210.568446 
L 71.395125 209.976074 
L 71.618325 203.326344 
L 71.841525 207.249229 
L 72.064725 206.513829 
L 72.287925 206.496567 
L 73.180725 219.473888 
L 73.403925 211.667174 
L 73.627125 210.834207 
L 73.850325 207.118334 
L 74.073525 205.695254 
L 74.296725 206.898283 
L 74.519925 201.60418 
L 74.743125 207.411256 
L 74.966325 202.805482 
L 75.189525 204.762248 
L 75.635925 215.653608 
L 75.859125 216.352719 
L 76.082325 218.539054 
L 76.305525 208.861826 
L 76.528725 210.342846 
L 76.751925 214.988471 
L 76.975125 213.996587 
L 77.198325 210.822767 
L 77.421525 210.000956 
L 77.867925 220.323356 
L 78.091125 217.25507 
L 78.314325 211.485929 
L 78.537525 209.987298 
L 78.760725 203.143853 
L 78.983925 209.901698 
L 79.207125 212.91678 
L 79.430325 212.545306 
L 79.653525 213.360078 
L 79.876725 213.054596 
L 80.099925 210.327517 
L 80.323125 204.867835 
L 80.546325 214.459741 
L 80.769525 218.863502 
L 80.992725 219.627288 
L 81.215925 215.200934 
L 81.439125 214.274311 
L 81.662325 207.430369 
L 82.108725 210.681414 
L 82.331925 212.362625 
L 82.555125 218.229516 
L 82.778325 207.488415 
L 83.224725 209.861254 
L 83.447925 204.563916 
L 83.671125 204.339132 
L 83.894325 207.332082 
L 84.117525 213.210452 
L 84.340725 214.599114 
L 84.563925 217.292787 
L 84.787125 215.403477 
L 85.010325 206.618734 
L 85.233525 206.302067 
L 85.456725 211.379424 
L 85.679925 220.397435 
L 85.903125 219.125296 
L 86.349525 213.459675 
L 86.572725 214.042051 
L 86.795925 212.458754 
L 87.019125 207.495502 
L 87.242325 208.772584 
L 87.465525 205.085403 
L 87.688725 206.943806 
L 88.135125 214.406175 
L 88.358325 203.260066 
L 88.581525 201.845295 
L 88.804725 208.410675 
L 89.474325 217.401974 
L 89.697525 210.6424 
L 89.920725 214.94364 
L 90.367125 215.83151 
L 90.590325 217.148869 
L 90.813525 208.967213 
L 91.036725 211.01522 
L 91.259925 205.356572 
L 91.483125 206.156323 
L 91.706325 213.145864 
L 92.375925 220.042802 
L 92.822325 225.770204 
L 93.045525 214.672925 
L 93.268725 213.142848 
L 93.491925 206.52804 
L 93.715125 207.763023 
L 93.938325 205.837384 
L 94.161525 210.458245 
L 94.384725 210.712913 
L 94.607925 206.375319 
L 94.831125 205.25576 
L 95.054325 207.527978 
L 95.277525 215.991285 
L 95.500725 208.266932 
L 95.723925 205.801806 
L 95.947125 210.351018 
L 96.170325 210.333659 
L 96.393525 208.740109 
L 96.616725 212.432727 
L 97.063125 215.176879 
L 97.509525 222.889049 
L 97.732725 219.220023 
L 98.179125 203.972034 
L 99.071925 210.741935 
L 99.518325 220.419896 
L 99.741525 222.486336 
L 99.964725 222.253833 
L 100.857525 212.21696 
L 101.080725 211.984139 
L 101.527125 203.367194 
L 101.750325 206.83921 
L 101.973525 205.505962 
L 102.196725 207.10902 
L 102.643125 213.799692 
L 102.866325 212.54764 
L 103.089525 213.771434 
L 103.312725 215.932798 
L 103.759125 214.545143 
L 104.205525 204.302536 
L 104.428725 211.12092 
L 104.651925 204.980634 
L 104.875125 204.769378 
L 105.321525 213.147189 
L 105.544725 208.25357 
L 105.767925 208.457986 
L 105.991125 210.07432 
L 106.214325 214.761 
L 106.437525 207.737205 
L 106.660725 215.182967 
L 107.107125 219.725834 
L 107.330325 214.786516 
L 107.776725 218.449732 
L 107.999925 210.539883 
L 108.223125 210.238676 
L 108.446325 203.822358 
L 108.669525 204.906199 
L 108.892725 207.330369 
L 109.115925 203.002196 
L 109.785525 217.285465 
L 110.008725 225.687998 
L 110.231925 223.819571 
L 110.455125 217.024541 
L 110.678325 215.978243 
L 110.901525 217.809774 
L 111.124725 215.10293 
L 111.347925 209.507708 
L 111.571125 211.407332 
L 111.794325 210.578633 
L 112.017525 216.306611 
L 112.240725 212.954809 
L 112.463925 212.708865 
L 112.687125 207.425082 
L 112.910325 198.869358 
L 113.133525 200.522659 
L 113.579925 212.097173 
L 113.803125 217.77896 
L 114.026325 212.755813 
L 114.249525 215.681848 
L 114.472725 215.650775 
L 114.695925 212.166185 
L 114.919125 216.201618 
L 115.142325 212.319358 
L 115.588725 209.219852 
L 115.811925 206.315282 
L 116.258325 214.885382 
L 116.481525 211.030563 
L 116.704725 219.227098 
L 116.927925 221.286925 
L 117.151125 220.984287 
L 117.374325 217.102897 
L 117.597525 208.674912 
L 117.820725 208.159793 
L 118.043925 204.038748 
L 118.267125 207.335013 
L 118.713525 217.372541 
L 118.936725 218.76842 
L 119.383125 212.837496 
L 119.606325 218.544228 
L 119.829525 215.569667 
L 120.052725 207.955729 
L 120.275925 210.080093 
L 120.499125 210.475678 
L 120.722325 216.595933 
L 120.945525 215.002706 
L 121.168725 210.100749 
L 121.391925 210.69479 
L 121.615125 210.128499 
L 121.838325 210.657953 
L 122.507925 220.017527 
L 122.954325 210.47399 
L 123.177525 211.98375 
L 123.400725 206.942052 
L 123.847125 214.043218 
L 124.070325 214.203627 
L 124.293525 218.601942 
L 124.516725 207.221059 
L 124.739925 212.057301 
L 124.963125 214.273558 
L 125.186325 210.302184 
L 125.632725 207.627526 
L 126.079125 217.237452 
L 126.302325 213.144313 
L 126.525525 214.706926 
L 126.748725 213.135213 
L 126.971925 216.117117 
L 127.195125 216.703198 
L 127.418325 211.690213 
L 127.641525 214.429191 
L 128.087925 206.233734 
L 128.311125 210.538552 
L 128.757525 213.53813 
L 128.980725 215.411773 
L 129.203925 215.329288 
L 129.427125 219.067004 
L 129.650325 210.240017 
L 129.873525 211.104202 
L 130.096725 209.816831 
L 130.319925 213.945488 
L 130.543125 215.240345 
L 130.766325 215.352873 
L 131.212725 218.723955 
L 131.435925 211.164291 
L 131.659125 210.84433 
L 131.882325 210.007824 
L 132.105525 203.225432 
L 132.328725 204.839633 
L 132.551925 204.773771 
L 132.775125 202.270267 
L 132.998325 209.516329 
L 133.221525 210.333721 
L 133.444725 214.747918 
L 133.667925 221.647711 
L 133.891125 216.708948 
L 134.114325 217.17899 
L 134.337525 216.358128 
L 134.560725 214.140916 
L 134.783925 214.602068 
L 135.230325 208.636723 
L 135.453525 211.312404 
L 135.899925 223.205916 
L 136.346325 211.499786 
L 136.569525 211.985852 
L 136.792725 208.79917 
L 137.239125 210.630463 
L 137.462325 206.190007 
L 137.685525 214.937803 
L 137.908725 214.133004 
L 138.131925 214.024206 
L 138.355125 216.939562 
L 138.578325 210.03528 
L 138.801525 210.813014 
L 139.024725 218.808397 
L 139.247925 214.186792 
L 139.471125 212.09405 
L 139.694325 211.235748 
L 139.917525 209.708035 
L 140.140725 209.344154 
L 140.363925 211.636415 
L 140.587125 220.846984 
L 140.810325 218.637928 
L 141.033525 208.901419 
L 141.256725 214.578815 
L 141.479925 215.005171 
L 141.703125 213.486454 
L 141.926325 208.594916 
L 142.149525 208.402257 
L 142.372725 211.266678 
L 142.595925 211.725842 
L 142.819125 211.622186 
L 143.042325 218.811396 
L 143.265525 222.238175 
L 143.488725 217.937061 
L 143.711925 219.37768 
L 143.935125 217.042537 
L 144.158325 218.301188 
L 144.381525 207.633954 
L 144.604725 206.014688 
L 144.827925 205.652104 
L 145.051125 204.580134 
L 145.274325 211.450598 
L 145.497525 212.697748 
L 145.720725 216.191628 
L 145.943925 216.734965 
L 146.167125 214.791462 
L 146.613525 220.668829 
L 147.059925 198.891778 
L 147.283125 202.065675 
L 147.506325 213.1313 
L 147.729525 214.567366 
L 147.952725 218.196178 
L 148.175925 211.992389 
L 148.399125 216.922727 
L 148.622325 219.395251 
L 148.845525 214.982496 
L 149.068725 222.376901 
L 149.291925 212.299488 
L 149.515125 219.002085 
L 149.738325 217.968841 
L 149.961525 221.436352 
L 150.184725 214.981878 
L 150.407925 216.468735 
L 150.631125 210.963652 
L 151.300725 216.366658 
L 151.523925 208.213238 
L 151.747125 213.46732 
L 151.970325 208.057647 
L 152.416725 211.640473 
L 152.639925 216.977504 
L 152.863125 215.23623 
L 153.086325 217.306249 
L 153.309525 210.342344 
L 153.532725 210.179281 
L 153.979125 209.337191 
L 154.202325 210.195403 
L 154.425525 210.308769 
L 154.648725 212.986436 
L 154.871925 213.58333 
L 155.095125 217.071127 
L 155.318325 213.040522 
L 155.764725 211.304896 
L 155.987925 216.253488 
L 156.211125 213.164954 
L 156.434325 220.275781 
L 156.657525 218.299758 
L 156.880725 213.332961 
L 157.103925 211.384733 
L 157.327125 217.882717 
L 157.550325 220.43316 
L 157.773525 218.109753 
L 157.996725 207.919667 
L 158.443125 212.853314 
L 158.666325 216.17135 
L 158.889525 217.801759 
L 159.559125 208.522651 
L 159.782325 219.010944 
L 160.005525 216.781684 
L 160.228725 217.048151 
L 160.451925 213.674507 
L 160.898325 216.559408 
L 161.121525 214.639171 
L 161.567925 216.656092 
L 161.791125 210.318828 
L 162.014325 210.027351 
L 162.237525 208.517909 
L 162.460725 212.035389 
L 162.683925 208.54189 
L 162.907125 209.877358 
L 163.130325 213.685785 
L 163.353525 207.165821 
L 163.576725 217.317903 
L 164.246325 213.688568 
L 164.469525 207.827217 
L 164.692725 214.935126 
L 164.915925 218.25287 
L 165.139125 217.515045 
L 165.362325 219.141761 
L 165.585525 216.593758 
L 165.808725 218.689888 
L 166.031925 212.770572 
L 166.255125 218.650397 
L 166.701525 211.066196 
L 166.924725 211.140709 
L 167.147925 213.76448 
L 167.371125 213.591731 
L 167.594325 212.800182 
L 167.817525 215.853303 
L 168.040725 211.356967 
L 168.263925 213.393486 
L 168.710325 219.741954 
L 168.933525 221.165431 
L 169.379925 211.237973 
L 169.603125 210.147417 
L 169.826325 214.694946 
L 170.049525 207.225473 
L 170.272725 207.114881 
L 170.495925 208.607415 
L 170.719125 212.791419 
L 171.165525 214.441156 
L 171.388725 213.59552 
L 171.611925 214.583202 
L 171.835125 214.051569 
L 172.058325 212.442123 
L 172.281525 209.404977 
L 172.504725 213.357309 
L 172.727925 208.469457 
L 172.951125 211.521525 
L 173.174325 217.242275 
L 173.397525 216.11992 
L 173.620725 221.213928 
L 173.843925 219.790196 
L 174.067125 221.327807 
L 174.290325 214.835879 
L 174.513525 217.983398 
L 174.736725 211.683281 
L 174.959925 209.14878 
L 175.183125 204.211876 
L 175.406325 214.923541 
L 175.852725 220.06193 
L 176.075925 217.148725 
L 176.299125 216.883753 
L 176.522325 221.20615 
L 176.968725 213.294085 
L 177.191925 207.137069 
L 177.638325 209.219208 
L 177.861525 215.064505 
L 178.084725 216.480876 
L 178.307925 220.021445 
L 178.531125 216.296087 
L 178.754325 217.773324 
L 178.977525 218.056035 
L 179.200725 217.573738 
L 179.423925 214.110632 
L 179.647125 213.354877 
L 179.870325 211.154892 
L 180.316725 215.536533 
L 180.539925 213.642326 
L 180.763125 218.213588 
L 180.986325 217.033356 
L 181.209525 212.318605 
L 181.432725 217.56468 
L 181.655925 212.159656 
L 181.879125 211.079042 
L 182.102325 201.636616 
L 182.325525 205.453186 
L 182.771925 220.155877 
L 183.218325 217.258422 
L 183.441525 218.864598 
L 183.664725 217.421749 
L 183.887925 214.237549 
L 184.111125 218.119868 
L 184.334325 209.177293 
L 184.557525 210.028395 
L 185.003925 217.694145 
L 185.227125 213.96517 
L 185.450325 214.661935 
L 185.673525 210.689485 
L 185.896725 213.6403 
L 186.119925 220.295173 
L 186.789525 214.095748 
L 187.012725 216.750026 
L 187.235925 211.704752 
L 187.459125 212.788484 
L 187.682325 213.277996 
L 187.905525 212.837019 
L 188.128725 212.106677 
L 188.351925 213.226076 
L 188.575125 212.965551 
L 188.798325 215.63323 
L 189.021525 215.040033 
L 189.244725 208.219359 
L 189.467925 209.778093 
L 189.691125 217.651634 
L 189.914325 213.148349 
L 190.137525 214.762037 
L 190.360725 220.039895 
L 190.583925 221.091226 
L 190.807125 219.089359 
L 191.030325 216.019161 
L 191.253525 217.20453 
L 191.476725 209.773347 
L 191.699925 210.50588 
L 191.923125 209.778693 
L 192.369525 216.423191 
L 192.592725 210.739595 
L 193.262325 218.375941 
L 193.931925 213.812138 
L 194.155125 213.780972 
L 194.378325 211.657556 
L 194.824725 214.757582 
L 195.047925 214.80608 
L 195.271125 217.158255 
L 195.717525 223.835075 
L 196.163925 211.807642 
L 196.387125 214.130195 
L 196.610325 207.381922 
L 196.833525 209.798047 
L 197.056725 210.91131 
L 197.279925 210.172769 
L 197.503125 215.009043 
L 197.726325 214.184621 
L 198.395925 223.027163 
L 198.619125 215.989819 
L 198.842325 216.970635 
L 199.065525 218.741091 
L 199.288725 217.188846 
L 199.735125 208.593197 
L 199.958325 214.267745 
L 200.181525 213.113107 
L 200.404725 213.940944 
L 200.627925 217.32728 
L 200.851125 215.041015 
L 201.074325 208.147617 
L 201.297525 209.481019 
L 201.520725 212.39477 
L 201.743925 211.708901 
L 201.967125 211.874663 
L 202.190325 216.318922 
L 202.413525 217.837299 
L 202.636725 218.014005 
L 202.859925 218.772815 
L 203.083125 215.10985 
L 203.306325 214.079495 
L 203.752725 215.611613 
L 203.975925 209.017775 
L 204.199125 210.20052 
L 204.422325 210.565012 
L 204.645525 219.149781 
L 204.868725 217.72921 
L 205.091925 220.849854 
L 205.315125 212.455558 
L 205.538325 213.672611 
L 205.761525 216.768112 
L 205.984725 217.815769 
L 206.207925 220.509969 
L 206.431125 219.192465 
L 206.654325 216.678894 
L 206.877525 221.52048 
L 207.100725 214.969254 
L 207.323925 219.830345 
L 207.770325 210.907201 
L 207.993525 213.545334 
L 208.439925 214.699394 
L 208.663125 208.179871 
L 209.332725 212.453117 
L 209.779125 218.904066 
L 210.002325 219.25021 
L 210.225525 214.76321 
L 210.448725 207.406125 
L 210.671925 213.641586 
L 210.895125 213.13974 
L 211.118325 211.629718 
L 211.341525 211.775422 
L 211.564725 210.979841 
L 211.787925 217.543919 
L 212.234325 224.740844 
L 212.457525 224.084294 
L 212.680725 222.439992 
L 212.903925 217.361085 
L 213.127125 222.895704 
L 213.573525 210.431728 
L 214.019925 205.013875 
L 214.243125 203.903948 
L 214.466325 204.823964 
L 214.912725 216.866925 
L 215.135925 217.315305 
L 215.359125 220.412875 
L 215.582325 214.485064 
L 215.805525 218.340794 
L 216.028725 210.659549 
L 216.475125 217.894691 
L 216.698325 223.870808 
L 216.921525 223.042896 
L 217.591125 210.682554 
L 217.814325 214.955767 
L 218.037525 214.510167 
L 218.260725 211.187893 
L 218.707125 212.228717 
L 218.930325 210.865425 
L 219.153525 208.097246 
L 219.599925 217.093403 
L 220.046325 217.867255 
L 220.269525 221.078813 
L 220.492725 222.210421 
L 220.715925 212.63719 
L 220.939125 210.030585 
L 221.162325 208.944482 
L 222.055125 222.056464 
L 222.278325 217.257941 
L 222.501525 215.476226 
L 222.724725 217.322365 
L 222.947925 217.503171 
L 223.171125 210.367616 
L 223.394325 213.655511 
L 223.617525 218.865513 
L 223.840725 217.11427 
L 224.063925 214.020452 
L 224.287125 207.255477 
L 224.510325 208.019109 
L 224.733525 214.510478 
L 224.956725 213.40583 
L 225.403125 221.407783 
L 225.626325 215.447769 
L 225.849525 214.871731 
L 226.072725 215.357478 
L 226.519125 212.077747 
L 226.742325 216.090432 
L 226.965525 216.897192 
L 227.188725 214.099953 
L 227.411925 219.72101 
L 227.635125 217.996951 
L 227.858325 213.800138 
L 228.081525 217.800352 
L 228.304725 219.044429 
L 228.527925 217.221374 
L 228.751125 217.905136 
L 229.197525 213.289694 
L 229.420725 208.389024 
L 229.643925 208.15107 
L 229.867125 211.265717 
L 230.090325 217.959109 
L 230.313525 219.904917 
L 230.536725 218.23493 
L 230.759925 215.063962 
L 230.983125 218.822556 
L 231.206325 210.778926 
L 231.652725 217.578005 
L 231.875925 218.567183 
L 232.099125 216.744279 
L 232.322325 216.449271 
L 232.545525 218.581647 
L 232.768725 214.920572 
L 232.991925 208.779657 
L 233.215125 209.598529 
L 233.661525 213.62646 
L 233.884725 214.009369 
L 234.107925 212.412707 
L 234.331125 216.153572 
L 234.554325 213.04288 
L 234.777525 216.008128 
L 235.000725 215.987347 
L 235.447125 214.916472 
L 235.670325 216.666911 
L 235.893525 216.034897 
L 236.116725 221.432536 
L 236.563125 214.445582 
L 236.786325 209.770334 
L 237.455925 220.816422 
L 237.902325 212.972347 
L 238.125525 212.24233 
L 238.348725 209.437227 
L 238.571925 212.169935 
L 238.795125 220.713609 
L 239.018325 219.290718 
L 239.241525 215.256429 
L 239.464725 214.649754 
L 239.687925 216.123355 
L 239.911125 210.125765 
L 240.134325 211.492817 
L 240.357525 218.368642 
L 240.580725 220.286012 
L 240.803925 219.950857 
L 241.027125 217.432783 
L 241.473525 208.675437 
L 242.143125 216.102727 
L 242.366325 214.480851 
L 242.812725 215.863385 
L 243.259125 219.219377 
L 243.482325 215.000723 
L 243.705525 219.86613 
L 244.151925 213.614026 
L 244.375125 219.169842 
L 244.598325 213.491542 
L 244.821525 215.505014 
L 245.044725 215.764137 
L 245.267925 216.911769 
L 245.491125 219.322838 
L 245.714325 218.03718 
L 245.937525 213.713178 
L 246.383925 211.036931 
L 246.607125 214.756442 
L 246.830325 215.325572 
L 247.053525 214.961133 
L 247.276725 219.264564 
L 247.946325 210.293429 
L 248.169525 214.252944 
L 248.392725 214.941273 
L 248.615925 213.19535 
L 249.285525 218.567654 
L 249.508725 217.5089 
L 249.731925 219.416397 
L 249.955125 212.488596 
L 250.178325 213.562626 
L 250.401525 211.842873 
L 250.624725 213.038146 
L 250.847925 212.689306 
L 251.071125 207.113285 
L 251.740725 216.582709 
L 252.187125 219.352936 
L 252.410325 219.224601 
L 252.633525 219.985461 
L 252.856725 218.47046 
L 253.079925 218.642215 
L 253.303125 223.413396 
L 253.526325 223.410317 
L 253.749525 215.300326 
L 253.972725 213.716951 
L 254.195925 211.337561 
L 254.419125 207.047432 
L 254.865525 214.695678 
L 255.311925 221.295966 
L 255.535125 210.565096 
L 255.758325 210.259692 
L 255.981525 211.53724 
L 256.204725 207.317936 
L 256.427925 210.54712 
L 256.651125 217.938492 
L 256.874325 217.868354 
L 257.320725 227.550978 
L 257.990325 210.811313 
L 258.213525 210.33 
L 258.436725 214.759947 
L 258.659925 214.29318 
L 258.883125 211.457679 
L 259.106325 218.428266 
L 259.552725 211.858898 
L 259.775925 217.183085 
L 259.999125 219.430748 
L 260.222325 219.747891 
L 260.445525 215.698027 
L 260.668725 216.142342 
L 260.891925 210.157349 
L 261.115125 211.175508 
L 261.561525 215.635257 
L 261.784725 215.477572 
L 262.007925 217.177208 
L 262.231125 216.975149 
L 262.454325 225.142529 
L 262.677525 214.329878 
L 262.900725 210.040948 
L 263.347125 219.233007 
L 263.570325 215.602166 
L 263.793525 220.094268 
L 264.016725 210.630459 
L 264.239925 210.863905 
L 264.463125 212.034493 
L 264.686325 204.738339 
L 264.909525 210.519089 
L 265.132725 212.48619 
L 265.355925 220.970133 
L 265.579125 224.375398 
L 266.025525 220.301958 
L 266.248725 214.305703 
L 266.471925 211.996822 
L 266.695125 216.294293 
L 266.918325 214.071689 
L 267.141525 214.715198 
L 267.364725 220.240351 
L 267.587925 216.22544 
L 267.811125 217.491267 
L 268.034325 210.370011 
L 268.257525 210.761041 
L 268.480725 216.190065 
L 268.703925 215.462635 
L 268.927125 212.143618 
L 269.150325 212.457587 
L 269.373525 204.124666 
L 269.596725 211.501158 
L 269.819925 209.215558 
L 270.266325 219.517143 
L 270.489525 220.353067 
L 270.712725 219.594501 
L 270.935925 218.338527 
L 271.159125 214.766257 
L 271.382325 215.6235 
L 271.605525 213.488188 
L 271.828725 218.167797 
L 272.051925 219.641757 
L 272.275125 216.848688 
L 272.498325 221.675034 
L 272.721525 214.07272 
L 272.944725 211.644011 
L 273.167925 218.616864 
L 273.391125 218.174261 
L 273.614325 213.705416 
L 273.837525 217.793972 
L 274.060725 214.361812 
L 274.283925 218.533882 
L 274.507125 208.934008 
L 274.730325 208.569871 
L 274.953525 217.022952 
L 275.399925 214.261211 
L 275.623125 227.021143 
L 275.846325 224.117735 
L 276.069525 225.263508 
L 276.739125 211.338574 
L 276.962325 211.410439 
L 277.185525 211.69557 
L 277.408725 214.744318 
L 277.631925 214.107952 
L 277.855125 213.014917 
L 278.078325 214.490351 
L 278.524725 221.651818 
L 278.747925 216.672497 
L 278.971125 219.491548 
L 279.417525 211.023138 
L 279.640725 212.544833 
L 279.863925 216.649933 
L 280.087125 211.648436 
L 280.310325 210.323926 
L 280.756725 219.83606 
L 281.203125 218.509152 
L 281.426325 212.504161 
L 281.649525 219.07132 
L 281.872725 214.715535 
L 282.319125 220.187417 
L 282.765525 213.672257 
L 282.988725 216.830723 
L 283.658325 221.271004 
L 283.881525 216.121189 
L 284.104725 218.823343 
L 284.327925 212.511475 
L 284.551125 215.851863 
L 284.774325 212.116324 
L 284.997525 213.999296 
L 285.220725 210.826737 
L 285.443925 214.562461 
L 285.667125 212.388499 
L 285.890325 219.405711 
L 286.113525 221.100943 
L 286.559925 213.360052 
L 286.783125 216.824595 
L 287.006325 216.208937 
L 287.229525 220.775957 
L 287.452725 216.498408 
L 287.675925 217.811089 
L 287.899125 213.462506 
L 288.122325 212.945059 
L 288.345525 215.133113 
L 288.568725 211.129461 
L 288.791925 217.540948 
L 289.015125 214.48489 
L 289.238325 214.878986 
L 289.461525 214.388266 
L 289.684725 218.239709 
L 289.907925 214.179737 
L 290.131125 215.022285 
L 290.354325 219.459333 
L 290.577525 217.399606 
L 290.800725 222.343898 
L 291.023925 216.773737 
L 291.247125 215.395685 
L 291.470325 215.613436 
L 291.693525 210.419535 
L 292.363125 220.597861 
L 292.586325 219.481072 
L 292.809525 210.843012 
L 293.032725 211.959637 
L 293.255925 214.217242 
L 293.479125 211.670634 
L 293.702325 210.495085 
L 293.925525 213.541576 
L 294.148725 220.023028 
L 294.371925 212.512117 
L 294.818325 222.250856 
L 295.041525 222.117288 
L 295.264725 220.640035 
L 295.711125 220.972286 
L 295.934325 224.256692 
L 296.157525 213.970883 
L 296.380725 212.146165 
L 297.273525 218.523936 
L 297.496725 217.245092 
L 297.719925 213.32398 
L 297.943125 213.505368 
L 298.166325 215.826418 
L 298.389525 216.583888 
L 298.612725 213.147941 
L 299.059125 217.367656 
L 299.282325 223.519885 
L 299.505525 222.025854 
L 299.728725 212.14291 
L 299.951925 209.888765 
L 300.175125 216.366565 
L 300.398325 214.106411 
L 300.621525 221.033382 
L 300.844725 217.961416 
L 301.067925 217.973651 
L 301.291125 217.296428 
L 301.514325 212.062674 
L 301.737525 212.7482 
L 301.960725 218.132135 
L 302.183925 217.01833 
L 302.407125 213.965004 
L 302.630325 213.33536 
L 302.853525 219.871704 
L 303.076725 221.27428 
L 303.299925 210.626858 
L 303.523125 207.974003 
L 303.746325 211.614378 
L 304.192725 213.948272 
L 304.415925 213.747685 
L 304.639125 218.982668 
L 304.862325 221.599829 
L 305.085525 215.685947 
L 305.308725 216.677009 
L 305.531925 219.004834 
L 305.755125 215.918485 
L 305.978325 220.601455 
L 306.424725 218.84811 
L 306.647925 220.364576 
L 306.871125 213.425735 
L 307.094325 221.36873 
L 307.317525 212.698609 
L 307.540725 218.508741 
L 307.763925 218.953058 
L 307.987125 222.472163 
L 308.210325 216.952234 
L 308.433525 219.747317 
L 308.656725 219.012344 
L 308.879925 220.304198 
L 309.103125 215.414378 
L 309.326325 222.987517 
L 309.549525 210.897525 
L 309.772725 216.787757 
L 309.995925 216.250723 
L 310.219125 218.118387 
L 310.442325 213.279513 
L 310.665525 211.789783 
L 310.888725 218.892392 
L 311.111925 217.129859 
L 311.335125 216.483025 
L 311.558325 217.573597 
L 311.781525 213.219882 
L 312.004725 213.764634 
L 312.227925 211.051541 
L 312.674325 216.848878 
L 312.897525 215.987418 
L 313.120725 214.273876 
L 313.343925 214.618982 
L 313.567125 215.704293 
L 313.790325 215.82895 
L 314.013525 214.535432 
L 314.236725 217.914417 
L 314.459925 218.08223 
L 314.683125 225.837601 
L 314.906325 227.730962 
L 315.129525 217.400157 
L 315.352725 214.73653 
L 315.575925 216.101375 
L 315.799125 222.289841 
L 316.022325 224.701441 
L 316.245525 224.862311 
L 316.468725 225.949684 
L 316.915125 213.874242 
L 317.138325 219.035138 
L 317.361525 218.213035 
L 317.584725 221.478228 
L 318.031125 212.644418 
L 318.254325 211.202875 
L 318.477525 210.942193 
L 318.700725 215.998702 
L 318.923925 215.401998 
L 319.147125 210.293328 
L 319.593525 216.241785 
L 320.039925 222.609895 
L 320.263125 219.161271 
L 320.486325 217.52086 
L 320.709525 222.008993 
L 320.932725 219.387723 
L 321.379125 209.107508 
L 321.602325 211.376851 
L 321.825525 211.203937 
L 322.048725 214.687753 
L 322.271925 214.4415 
L 322.495125 221.184029 
L 322.718325 217.592988 
L 322.941525 216.567955 
L 323.164725 220.665785 
L 323.611125 216.31505 
L 323.834325 216.317186 
L 324.057525 221.015397 
L 324.280725 220.614103 
L 324.503925 217.342694 
L 324.727125 218.043237 
L 324.950325 217.709431 
L 325.173525 213.79358 
L 325.396725 215.444783 
L 325.619925 216.190517 
L 325.843125 222.304402 
L 326.289525 217.073067 
L 326.512725 217.200786 
L 326.735925 208.910004 
L 327.182325 214.861506 
L 327.405525 215.029414 
L 327.628725 216.517408 
L 327.851925 214.162036 
L 328.298325 222.152476 
L 328.521525 217.991483 
L 328.744725 217.620256 
L 328.967925 218.410777 
L 329.191125 218.289295 
L 329.414325 218.930769 
L 329.637525 218.815655 
L 329.860725 220.785062 
L 330.083925 217.316993 
L 330.307125 216.113106 
L 330.530325 221.698343 
L 330.753525 223.298632 
L 330.976725 218.181675 
L 331.199925 222.165962 
L 331.423125 214.619539 
L 331.646325 214.166672 
L 331.869525 219.18632 
L 332.092725 216.022313 
L 332.315925 218.361246 
L 332.539125 218.909886 
L 332.762325 223.661709 
L 332.985525 221.944845 
L 333.208725 226.708092 
L 333.431925 220.345612 
L 333.655125 221.142182 
L 333.878325 216.682656 
L 334.101525 217.873429 
L 334.324725 217.217632 
L 334.547925 213.744396 
L 334.994325 212.435994 
L 335.440725 217.472602 
L 335.663925 214.994263 
L 335.887125 220.937454 
L 336.110325 222.200544 
L 336.333525 218.862531 
L 336.556725 218.260842 
L 336.779925 213.814837 
L 337.003125 218.850893 
L 337.226325 214.896934 
L 337.449525 223.058145 
L 337.672725 222.752777 
L 337.895925 212.137068 
L 338.119125 210.461135 
L 338.342325 215.475199 
L 338.565525 215.421325 
L 338.788725 214.37718 
L 339.011925 221.124111 
L 339.235125 222.799852 
L 339.458325 210.814324 
L 339.681525 212.577003 
L 339.904725 221.124389 
L 340.127925 221.344247 
L 340.574325 213.453017 
L 340.797525 216.161514 
L 341.020725 224.441398 
L 341.467125 224.70356 
L 341.690325 217.688613 
L 341.913525 218.011928 
L 342.136725 217.746796 
L 342.359925 211.330219 
L 342.583125 213.585376 
L 342.806325 209.842413 
L 343.029525 211.840462 
L 343.475925 222.806411 
L 343.922325 217.581329 
L 344.145525 220.136619 
L 344.368725 225.128254 
L 344.815125 223.674204 
L 345.038325 217.867992 
L 345.261525 218.554406 
L 345.707925 215.211715 
L 345.931125 214.438013 
L 346.154325 220.454416 
L 346.377525 215.91674 
L 346.600725 219.889854 
L 346.823925 220.809999 
L 347.047125 220.292192 
L 347.270325 220.600685 
L 347.493525 214.513039 
L 347.716725 213.981447 
L 348.386325 226.574355 
L 348.609525 229.427224 
L 348.832725 230.062273 
L 349.279125 219.241481 
L 349.502325 218.194213 
L 349.725525 218.518077 
L 350.171925 215.343288 
L 350.395125 218.773028 
L 350.618325 215.510618 
L 350.841525 216.164085 
L 351.064725 210.977572 
L 351.287925 217.350153 
L 351.734325 212.502271 
L 351.957525 211.665569 
L 352.403925 220.949111 
L 352.627125 220.068219 
L 352.850325 218.650284 
L 353.073525 215.703892 
L 353.296725 210.398282 
L 353.743125 227.155977 
L 353.966325 226.452678 
L 354.189525 220.020916 
L 354.412725 222.329654 
L 354.635925 216.262688 
L 354.859125 215.185793 
L 355.082325 218.912912 
L 355.975125 210.186243 
L 356.198325 215.59295 
L 356.421525 215.961343 
L 356.644725 212.508466 
L 357.091125 221.773654 
L 357.537525 220.502493 
L 357.760725 213.314205 
L 357.983925 219.793615 
L 358.207125 216.884257 
L 358.430325 220.260457 
L 358.653525 218.275987 
L 358.876725 224.392808 
L 359.323125 230.086048 
L 359.546325 226.63297 
L 359.769525 220.545779 
L 359.992725 217.815691 
L 360.215925 219.646476 
L 360.439125 219.812462 
L 360.662325 218.756609 
L 360.885525 218.792443 
L 361.555125 215.012304 
L 361.778325 218.811304 
L 362.001525 217.513607 
L 362.224725 214.003388 
L 362.447925 223.212343 
L 362.671125 223.020423 
L 362.894325 219.088836 
L 363.117525 218.360424 
L 363.340725 216.182622 
L 363.563925 216.461273 
L 363.787125 224.183126 
L 364.010325 225.233775 
L 364.456725 221.66901 
L 364.679925 224.240053 
L 364.903125 219.281844 
L 364.903125 219.281844 
" clip-path="url(#pa501a12024)" style="fill: none; stroke: #ff7f0e; stroke-width: 1.5; stroke-linecap: square"/>
   </g>
   <g id="line2d_16">
    <path d="M 30.326325 234.638195 
L 39.031125 234.638195 
L 66.038325 211.798766 
L 364.903125 211.798766 
L 364.903125 211.798766 
" clip-path="url(#pa501a12024)" style="fill: none; stroke: #2ca02c; stroke-width: 1.5; stroke-linecap: square"/>
   </g>
   <g id="patch_3">
    <path d="M 30.103125 253.44 
L 30.103125 36 
" style="fill: none; stroke: #000000; stroke-width: 0.8; stroke-linejoin: miter; stroke-linecap: square"/>
   </g>
   <g id="patch_4">
    <path d="M 364.903125 253.44 
L 364.903125 36 
" style="fill: none; stroke: #000000; stroke-width: 0.8; stroke-linejoin: miter; stroke-linecap: square"/>
   </g>
   <g id="patch_5">
    <path d="M 30.103125 253.44 
L 364.903125 253.44 
" style="fill: none; stroke: #000000; stroke-width: 0.8; stroke-linejoin: miter; stroke-linecap: square"/>
   </g>
   <g id="patch_6">
    <path d="M 30.103125 36 
L 364.903125 36 
" style="fill: none; stroke: #000000; stroke-width: 0.8; stroke-linejoin: miter; stroke-linecap: square"/>
   </g>
   <g id="legend_1">
    <g id="patch_7">
     <path d="M 260.903125 110.278125 
L 357.903125 110.278125 
Q 359.903125 110.278125 359.903125 108.278125 
L 359.903125 43 
Q 359.903125 41 357.903125 41 
L 260.903125 41 
Q 258.903125 41 258.903125 43 
L 258.903125 108.278125 
Q 258.903125 110.278125 260.903125 110.278125 
z
" style="fill: #ffffff; opacity: 0.8; stroke: #cccccc; stroke-linejoin: miter"/>
    </g>
    <g id="line2d_17">
     <path d="M 262.903125 49.098437 
L 272.903125 49.098437 
L 282.903125 49.098437 
" style="fill: none; stroke: #1f77b4; stroke-width: 1.5; stroke-linecap: square"/>
    </g>
    <g id="text_14">
     <!-- $x(t)$ -->
     <g transform="translate(290.903125 52.598437) scale(0.1 -0.1)">
      <defs>
       <path id="DejaVuSans-Oblique-78" d="M 3841 3500 
L 2234 1784 
L 3219 0 
L 2559 0 
L 1819 1388 
L 531 0 
L -166 0 
L 1556 1844 
L 641 3500 
L 1300 3500 
L 1972 2234 
L 3144 3500 
L 3841 3500 
z
" transform="scale(0.015625)"/>
       <path id="DejaVuSans-28" d="M 1984 4856 
Q 1566 4138 1362 3434 
Q 1159 2731 1159 2009 
Q 1159 1288 1364 580 
Q 1569 -128 1984 -844 
L 1484 -844 
Q 1016 -109 783 600 
Q 550 1309 550 2009 
Q 550 2706 781 3412 
Q 1013 4119 1484 4856 
L 1984 4856 
z
" transform="scale(0.015625)"/>
       <path id="DejaVuSans-Oblique-74" d="M 2706 3500 
L 2619 3053 
L 1472 3053 
L 1100 1153 
Q 1081 1047 1072 975 
Q 1063 903 1063 863 
Q 1063 663 1183 572 
Q 1303 481 1569 481 
L 2150 481 
L 2053 0 
L 1503 0 
Q 991 0 739 200 
Q 488 400 488 806 
Q 488 878 497 964 
Q 506 1050 525 1153 
L 897 3053 
L 409 3053 
L 500 3500 
L 978 3500 
L 1172 4494 
L 1747 4494 
L 1556 3500 
L 2706 3500 
z
" transform="scale(0.015625)"/>
       <path id="DejaVuSans-29" d="M 513 4856 
L 1013 4856 
Q 1481 4119 1714 3412 
Q 1947 2706 1947 2009 
Q 1947 1309 1714 600 
Q 1481 -109 1013 -844 
L 513 -844 
Q 928 -128 1133 580 
Q 1338 1288 1338 2009 
Q 1338 2731 1133 3434 
Q 928 4138 513 4856 
z
" transform="scale(0.015625)"/>
      </defs>
      <use xlink:href="#DejaVuSans-Oblique-78" transform="translate(0 0.125)"/>
      <use xlink:href="#DejaVuSans-28" transform="translate(59.179688 0.125)"/>
      <use xlink:href="#DejaVuSans-Oblique-74" transform="translate(98.193359 0.125)"/>
      <use xlink:href="#DejaVuSans-29" transform="translate(137.402344 0.125)"/>
     </g>
    </g>
    <g id="line2d_18">
     <path d="M 262.903125 73.478125 
L 272.903125 73.478125 
L 282.903125 73.478125 
" style="fill: none; stroke: #ff7f0e; stroke-width: 1.5; stroke-linecap: square"/>
    </g>
    <g id="text_15">
     <!-- $\hat{\int_{0}^{1.5}{x(t)}}$ -->
     <g transform="translate(290.903125 76.978125) scale(0.1 -0.1)">
      <defs>
       <path id="DejaVuSans-302" d="M -1831 5119 
L -1369 5119 
L -603 3944 
L -1038 3944 
L -1600 4709 
L -2163 3944 
L -2597 3944 
L -1831 5119 
z
M -1600 3584 
L -1600 3584 
z
" transform="scale(0.015625)"/>
       <path id="DejaVuSansDisplay-222b" d="M 2134 5525 
Q 2172 6263 2528 6556 
Q 2884 6850 3218 6850 
Q 3553 6850 3833 6575 
Q 4113 6300 4200 5678 
L 3544 5613 
Q 3469 6188 3219 6188 
Q 2906 6188 2869 5413 
L 2581 -597 
Q 2547 -1334 2187 -1628 
Q 1828 -1922 1497 -1922 
Q 1163 -1922 883 -1647 
Q 603 -1372 516 -750 
L 1172 -684 
Q 1247 -1259 1497 -1259 
Q 1809 -1259 1847 -488 
L 2134 5525 
z
" transform="scale(0.015625)"/>
       <path id="DejaVuSans-35" d="M 691 4666 
L 3169 4666 
L 3169 4134 
L 1269 4134 
L 1269 2991 
Q 1406 3038 1543 3061 
Q 1681 3084 1819 3084 
Q 2600 3084 3056 2656 
Q 3513 2228 3513 1497 
Q 3513 744 3044 326 
Q 2575 -91 1722 -91 
Q 1428 -91 1123 -41 
Q 819 9 494 109 
L 494 744 
Q 775 591 1075 516 
Q 1375 441 1709 441 
Q 2250 441 2565 725 
Q 2881 1009 2881 1497 
Q 2881 1984 2565 2268 
Q 2250 2553 1709 2553 
Q 1456 2553 1204 2497 
Q 953 2441 691 2322 
L 691 4666 
z
" transform="scale(0.015625)"/>
      </defs>
      <use xlink:href="#DejaVuSans-302" transform="translate(259.198975 93.015625)"/>
      <use xlink:href="#DejaVuSansDisplay-222b" transform="translate(0 0.325)"/>
      <use xlink:href="#DejaVuSans-31" transform="translate(86.744141 85.48125) scale(0.7)"/>
      <use xlink:href="#DejaVuSans-2e" transform="translate(131.280273 85.48125) scale(0.7)"/>
      <use xlink:href="#DejaVuSans-35" transform="translate(153.53125 85.48125) scale(0.7)"/>
      <use xlink:href="#DejaVuSans-30" transform="translate(71.759766 -51.58125) scale(0.7)"/>
      <use xlink:href="#DejaVuSans-Oblique-78" transform="translate(198.067383 0.325)"/>
      <use xlink:href="#DejaVuSans-28" transform="translate(257.24707 0.325)"/>
      <use xlink:href="#DejaVuSans-Oblique-74" transform="translate(296.260742 0.325)"/>
      <use xlink:href="#DejaVuSans-29" transform="translate(335.469727 0.325)"/>
     </g>
    </g>
    <g id="line2d_19">
     <path d="M 262.903125 97.478125 
L 272.903125 97.478125 
L 282.903125 97.478125 
" style="fill: none; stroke: #2ca02c; stroke-width: 1.5; stroke-linecap: square"/>
    </g>
    <g id="text_16">
     <!-- Ideal $\int_{0}^{1.5}{x(t)}}$ -->
     <g transform="translate(290.903125 100.978125) scale(0.1 -0.1)">
      <defs>
       <path id="DejaVuSans-49" d="M 628 4666 
L 1259 4666 
L 1259 0 
L 628 0 
L 628 4666 
z
" transform="scale(0.015625)"/>
       <path id="DejaVuSans-64" d="M 2906 2969 
L 2906 4863 
L 3481 4863 
L 3481 0 
L 2906 0 
L 2906 525 
Q 2725 213 2448 61 
Q 2172 -91 1784 -91 
Q 1150 -91 751 415 
Q 353 922 353 1747 
Q 353 2572 751 3078 
Q 1150 3584 1784 3584 
Q 2172 3584 2448 3432 
Q 2725 3281 2906 2969 
z
M 947 1747 
Q 947 1113 1208 752 
Q 1469 391 1925 391 
Q 2381 391 2643 752 
Q 2906 1113 2906 1747 
Q 2906 2381 2643 2742 
Q 2381 3103 1925 3103 
Q 1469 3103 1208 2742 
Q 947 2381 947 1747 
z
" transform="scale(0.015625)"/>
       <path id="DejaVuSans-65" d="M 3597 1894 
L 3597 1613 
L 953 1613 
Q 991 1019 1311 708 
Q 1631 397 2203 397 
Q 2534 397 2845 478 
Q 3156 559 3463 722 
L 3463 178 
Q 3153 47 2828 -22 
Q 2503 -91 2169 -91 
Q 1331 -91 842 396 
Q 353 884 353 1716 
Q 353 2575 817 3079 
Q 1281 3584 2069 3584 
Q 2775 3584 3186 3129 
Q 3597 2675 3597 1894 
z
M 3022 2063 
Q 3016 2534 2758 2815 
Q 2500 3097 2075 3097 
Q 1594 3097 1305 2825 
Q 1016 2553 972 2059 
L 3022 2063 
z
" transform="scale(0.015625)"/>
       <path id="DejaVuSans-61" d="M 2194 1759 
Q 1497 1759 1228 1600 
Q 959 1441 959 1056 
Q 959 750 1161 570 
Q 1363 391 1709 391 
Q 2188 391 2477 730 
Q 2766 1069 2766 1631 
L 2766 1759 
L 2194 1759 
z
M 3341 1997 
L 3341 0 
L 2766 0 
L 2766 531 
Q 2569 213 2275 61 
Q 1981 -91 1556 -91 
Q 1019 -91 701 211 
Q 384 513 384 1019 
Q 384 1609 779 1909 
Q 1175 2209 1959 2209 
L 2766 2209 
L 2766 2266 
Q 2766 2663 2505 2880 
Q 2244 3097 1772 3097 
Q 1472 3097 1187 3025 
Q 903 2953 641 2809 
L 641 3341 
Q 956 3463 1253 3523 
Q 1550 3584 1831 3584 
Q 2591 3584 2966 3190 
Q 3341 2797 3341 1997 
z
" transform="scale(0.015625)"/>
       <path id="DejaVuSans-6c" d="M 603 4863 
L 1178 4863 
L 1178 0 
L 603 0 
L 603 4863 
z
" transform="scale(0.015625)"/>
       <path id="DejaVuSans-20" transform="scale(0.015625)"/>
      </defs>
      <use xlink:href="#DejaVuSans-49" transform="translate(0 0.809375)"/>
      <use xlink:href="#DejaVuSans-64" transform="translate(29.492188 0.809375)"/>
      <use xlink:href="#DejaVuSans-65" transform="translate(92.96875 0.809375)"/>
      <use xlink:href="#DejaVuSans-61" transform="translate(154.492188 0.809375)"/>
      <use xlink:href="#DejaVuSans-6c" transform="translate(215.771484 0.809375)"/>
      <use xlink:href="#DejaVuSans-20" transform="translate(243.554688 0.809375)"/>
      <use xlink:href="#DejaVuSansDisplay-222b" transform="translate(275.341797 0.809375)"/>
      <use xlink:href="#DejaVuSans-31" transform="translate(362.085938 85.965625) scale(0.7)"/>
      <use xlink:href="#DejaVuSans-2e" transform="translate(406.62207 85.965625) scale(0.7)"/>
      <use xlink:href="#DejaVuSans-35" transform="translate(428.873047 85.965625) scale(0.7)"/>
      <use xlink:href="#DejaVuSans-30" transform="translate(347.101562 -51.096875) scale(0.7)"/>
      <use xlink:href="#DejaVuSans-Oblique-78" transform="translate(473.40918 0.809375)"/>
      <use xlink:href="#DejaVuSans-28" transform="translate(532.588867 0.809375)"/>
      <use xlink:href="#DejaVuSans-Oblique-74" transform="translate(571.602539 0.809375)"/>
      <use xlink:href="#DejaVuSans-29" transform="translate(610.811523 0.809375)"/>
     </g>
    </g>
   </g>
  </g>
  <g id="text_17">
   <!-- Neural Integrator for a step input -->
   <g transform="translate(92.3775 16.318125) scale(0.12 -0.12)">
    <defs>
     <path id="DejaVuSans-4e" d="M 628 4666 
L 1478 4666 
L 3547 763 
L 3547 4666 
L 4159 4666 
L 4159 0 
L 3309 0 
L 1241 3903 
L 1241 0 
L 628 0 
L 628 4666 
z
" transform="scale(0.015625)"/>
     <path id="DejaVuSans-75" d="M 544 1381 
L 544 3500 
L 1119 3500 
L 1119 1403 
Q 1119 906 1312 657 
Q 1506 409 1894 409 
Q 2359 409 2629 706 
Q 2900 1003 2900 1516 
L 2900 3500 
L 3475 3500 
L 3475 0 
L 2900 0 
L 2900 538 
Q 2691 219 2414 64 
Q 2138 -91 1772 -91 
Q 1169 -91 856 284 
Q 544 659 544 1381 
z
M 1991 3584 
L 1991 3584 
z
" transform="scale(0.015625)"/>
     <path id="DejaVuSans-72" d="M 2631 2963 
Q 2534 3019 2420 3045 
Q 2306 3072 2169 3072 
Q 1681 3072 1420 2755 
Q 1159 2438 1159 1844 
L 1159 0 
L 581 0 
L 581 3500 
L 1159 3500 
L 1159 2956 
Q 1341 3275 1631 3429 
Q 1922 3584 2338 3584 
Q 2397 3584 2469 3576 
Q 2541 3569 2628 3553 
L 2631 2963 
z
" transform="scale(0.015625)"/>
     <path id="DejaVuSans-6e" d="M 3513 2113 
L 3513 0 
L 2938 0 
L 2938 2094 
Q 2938 2591 2744 2837 
Q 2550 3084 2163 3084 
Q 1697 3084 1428 2787 
Q 1159 2491 1159 1978 
L 1159 0 
L 581 0 
L 581 3500 
L 1159 3500 
L 1159 2956 
Q 1366 3272 1645 3428 
Q 1925 3584 2291 3584 
Q 2894 3584 3203 3211 
Q 3513 2838 3513 2113 
z
" transform="scale(0.015625)"/>
     <path id="DejaVuSans-74" d="M 1172 4494 
L 1172 3500 
L 2356 3500 
L 2356 3053 
L 1172 3053 
L 1172 1153 
Q 1172 725 1289 603 
Q 1406 481 1766 481 
L 2356 481 
L 2356 0 
L 1766 0 
Q 1100 0 847 248 
Q 594 497 594 1153 
L 594 3053 
L 172 3053 
L 172 3500 
L 594 3500 
L 594 4494 
L 1172 4494 
z
" transform="scale(0.015625)"/>
     <path id="DejaVuSans-67" d="M 2906 1791 
Q 2906 2416 2648 2759 
Q 2391 3103 1925 3103 
Q 1463 3103 1205 2759 
Q 947 2416 947 1791 
Q 947 1169 1205 825 
Q 1463 481 1925 481 
Q 2391 481 2648 825 
Q 2906 1169 2906 1791 
z
M 3481 434 
Q 3481 -459 3084 -895 
Q 2688 -1331 1869 -1331 
Q 1566 -1331 1297 -1286 
Q 1028 -1241 775 -1147 
L 775 -588 
Q 1028 -725 1275 -790 
Q 1522 -856 1778 -856 
Q 2344 -856 2625 -561 
Q 2906 -266 2906 331 
L 2906 616 
Q 2728 306 2450 153 
Q 2172 0 1784 0 
Q 1141 0 747 490 
Q 353 981 353 1791 
Q 353 2603 747 3093 
Q 1141 3584 1784 3584 
Q 2172 3584 2450 3431 
Q 2728 3278 2906 2969 
L 2906 3500 
L 3481 3500 
L 3481 434 
z
" transform="scale(0.015625)"/>
     <path id="DejaVuSans-6f" d="M 1959 3097 
Q 1497 3097 1228 2736 
Q 959 2375 959 1747 
Q 959 1119 1226 758 
Q 1494 397 1959 397 
Q 2419 397 2687 759 
Q 2956 1122 2956 1747 
Q 2956 2369 2687 2733 
Q 2419 3097 1959 3097 
z
M 1959 3584 
Q 2709 3584 3137 3096 
Q 3566 2609 3566 1747 
Q 3566 888 3137 398 
Q 2709 -91 1959 -91 
Q 1206 -91 779 398 
Q 353 888 353 1747 
Q 353 2609 779 3096 
Q 1206 3584 1959 3584 
z
" transform="scale(0.015625)"/>
     <path id="DejaVuSans-66" d="M 2375 4863 
L 2375 4384 
L 1825 4384 
Q 1516 4384 1395 4259 
Q 1275 4134 1275 3809 
L 1275 3500 
L 2222 3500 
L 2222 3053 
L 1275 3053 
L 1275 0 
L 697 0 
L 697 3053 
L 147 3053 
L 147 3500 
L 697 3500 
L 697 3744 
Q 697 4328 969 4595 
Q 1241 4863 1831 4863 
L 2375 4863 
z
" transform="scale(0.015625)"/>
     <path id="DejaVuSans-73" d="M 2834 3397 
L 2834 2853 
Q 2591 2978 2328 3040 
Q 2066 3103 1784 3103 
Q 1356 3103 1142 2972 
Q 928 2841 928 2578 
Q 928 2378 1081 2264 
Q 1234 2150 1697 2047 
L 1894 2003 
Q 2506 1872 2764 1633 
Q 3022 1394 3022 966 
Q 3022 478 2636 193 
Q 2250 -91 1575 -91 
Q 1294 -91 989 -36 
Q 684 19 347 128 
L 347 722 
Q 666 556 975 473 
Q 1284 391 1588 391 
Q 1994 391 2212 530 
Q 2431 669 2431 922 
Q 2431 1156 2273 1281 
Q 2116 1406 1581 1522 
L 1381 1569 
Q 847 1681 609 1914 
Q 372 2147 372 2553 
Q 372 3047 722 3315 
Q 1072 3584 1716 3584 
Q 2034 3584 2315 3537 
Q 2597 3491 2834 3397 
z
" transform="scale(0.015625)"/>
     <path id="DejaVuSans-70" d="M 1159 525 
L 1159 -1331 
L 581 -1331 
L 581 3500 
L 1159 3500 
L 1159 2969 
Q 1341 3281 1617 3432 
Q 1894 3584 2278 3584 
Q 2916 3584 3314 3078 
Q 3713 2572 3713 1747 
Q 3713 922 3314 415 
Q 2916 -91 2278 -91 
Q 1894 -91 1617 61 
Q 1341 213 1159 525 
z
M 3116 1747 
Q 3116 2381 2855 2742 
Q 2594 3103 2138 3103 
Q 1681 3103 1420 2742 
Q 1159 2381 1159 1747 
Q 1159 1113 1420 752 
Q 1681 391 2138 391 
Q 2594 391 2855 752 
Q 3116 1113 3116 1747 
z
" transform="scale(0.015625)"/>
     <path id="DejaVuSans-69" d="M 603 3500 
L 1178 3500 
L 1178 0 
L 603 0 
L 603 3500 
z
M 603 4863 
L 1178 4863 
L 1178 4134 
L 603 4134 
L 603 4863 
z
" transform="scale(0.015625)"/>
    </defs>
    <use xlink:href="#DejaVuSans-4e"/>
    <use xlink:href="#DejaVuSans-65" x="74.804688"/>
    <use xlink:href="#DejaVuSans-75" x="136.328125"/>
    <use xlink:href="#DejaVuSans-72" x="199.707031"/>
    <use xlink:href="#DejaVuSans-61" x="240.820312"/>
    <use xlink:href="#DejaVuSans-6c" x="302.099609"/>
    <use xlink:href="#DejaVuSans-20" x="329.882812"/>
    <use xlink:href="#DejaVuSans-49" x="361.669922"/>
    <use xlink:href="#DejaVuSans-6e" x="391.162109"/>
    <use xlink:href="#DejaVuSans-74" x="454.541016"/>
    <use xlink:href="#DejaVuSans-65" x="493.75"/>
    <use xlink:href="#DejaVuSans-67" x="555.273438"/>
    <use xlink:href="#DejaVuSans-72" x="618.75"/>
    <use xlink:href="#DejaVuSans-61" x="659.863281"/>
    <use xlink:href="#DejaVuSans-74" x="721.142578"/>
    <use xlink:href="#DejaVuSans-6f" x="760.351562"/>
    <use xlink:href="#DejaVuSans-72" x="821.533203"/>
    <use xlink:href="#DejaVuSans-20" x="862.646484"/>
    <use xlink:href="#DejaVuSans-66" x="894.433594"/>
    <use xlink:href="#DejaVuSans-6f" x="929.638672"/>
    <use xlink:href="#DejaVuSans-72" x="990.820312"/>
    <use xlink:href="#DejaVuSans-20" x="1031.933594"/>
    <use xlink:href="#DejaVuSans-61" x="1063.720703"/>
    <use xlink:href="#DejaVuSans-20" x="1125"/>
    <use xlink:href="#DejaVuSans-73" x="1156.787109"/>
    <use xlink:href="#DejaVuSans-74" x="1208.886719"/>
    <use xlink:href="#DejaVuSans-65" x="1248.095703"/>
    <use xlink:href="#DejaVuSans-70" x="1309.619141"/>
    <use xlink:href="#DejaVuSans-20" x="1373.095703"/>
    <use xlink:href="#DejaVuSans-69" x="1404.882812"/>
    <use xlink:href="#DejaVuSans-6e" x="1432.666016"/>
    <use xlink:href="#DejaVuSans-70" x="1496.044922"/>
    <use xlink:href="#DejaVuSans-75" x="1559.521484"/>
    <use xlink:href="#DejaVuSans-74" x="1622.900391"/>
   </g>
  </g>
 </g>
 <defs>
  <clipPath id="pa501a12024">
   <rect x="30.103125" y="36" width="334.8" height="217.44"/>
  </clipPath>
 </defs>
</svg>
