<?xml version="1.0" encoding="utf-8" standalone="no"?>
<!DOCTYPE svg PUBLIC "-//W3C//DTD SVG 1.1//EN"
  "http://www.w3.org/Graphics/SVG/1.1/DTD/svg11.dtd">
<svg xmlns:xlink="http://www.w3.org/1999/xlink" width="380.482813pt" height="277.318125pt" viewBox="0 0 380.482813 277.318125" xmlns="http://www.w3.org/2000/svg" version="1.1">
 <metadata>
  <rdf:RDF xmlns:dc="http://purl.org/dc/elements/1.1/" xmlns:cc="http://creativecommons.org/ns#" xmlns:rdf="http://www.w3.org/1999/02/22-rdf-syntax-ns#">
   <cc:Work>
    <dc:type rdf:resource="http://purl.org/dc/dcmitype/StillImage"/>
    <dc:date>2022-11-11T19:58:34.769681</dc:date>
    <dc:format>image/svg+xml</dc:format>
    <dc:creator>
     <cc:Agent>
      <dc:title>Matplotlib v3.6.0, https://matplotlib.org/</dc:title>
     </cc:Agent>
    </dc:creator>
   </cc:Work>
  </rdf:RDF>
 </metadata>
 <defs>
  <style type="text/css">*{stroke-linejoin: round; stroke-linecap: butt}</style>
 </defs>
 <g id="figure_1">
  <g id="patch_1">
   <path d="M -0 277.318125 
L 380.482813 277.318125 
L 380.482813 0 
L -0 0 
L -0 277.318125 
z
" style="fill: none"/>
  </g>
  <g id="axes_1">
   <g id="patch_2">
    <path d="M 38.482813 253.44 
L 373.282813 253.44 
L 373.282813 36 
L 38.482813 36 
z
" style="fill: #ffffff"/>
   </g>
   <g id="matplotlib.axis_1">
    <g id="xtick_1">
     <g id="line2d_1">
      <defs>
       <path id="m3bea3834a5" d="M 0 0 
L 0 3.5 
" style="stroke: #000000; stroke-width: 0.8"/>
      </defs>
      <g>
       <use xlink:href="#m3bea3834a5" x="53.336227" y="253.44" style="stroke: #000000; stroke-width: 0.8"/>
      </g>
     </g>
     <g id="text_1">
      <!-- −2.0 -->
      <g transform="translate(41.194821 268.038437) scale(0.1 -0.1)">
       <defs>
        <path id="DejaVuSans-2212" d="M 678 2272 
L 4684 2272 
L 4684 1741 
L 678 1741 
L 678 2272 
z
" transform="scale(0.015625)"/>
        <path id="DejaVuSans-32" d="M 1228 531 
L 3431 531 
L 3431 0 
L 469 0 
L 469 531 
Q 828 903 1448 1529 
Q 2069 2156 2228 2338 
Q 2531 2678 2651 2914 
Q 2772 3150 2772 3378 
Q 2772 3750 2511 3984 
Q 2250 4219 1831 4219 
Q 1534 4219 1204 4116 
Q 875 4013 500 3803 
L 500 4441 
Q 881 4594 1212 4672 
Q 1544 4750 1819 4750 
Q 2544 4750 2975 4387 
Q 3406 4025 3406 3419 
Q 3406 3131 3298 2873 
Q 3191 2616 2906 2266 
Q 2828 2175 2409 1742 
Q 1991 1309 1228 531 
z
" transform="scale(0.015625)"/>
        <path id="DejaVuSans-2e" d="M 684 794 
L 1344 794 
L 1344 0 
L 684 0 
L 684 794 
z
" transform="scale(0.015625)"/>
        <path id="DejaVuSans-30" d="M 2034 4250 
Q 1547 4250 1301 3770 
Q 1056 3291 1056 2328 
Q 1056 1369 1301 889 
Q 1547 409 2034 409 
Q 2525 409 2770 889 
Q 3016 1369 3016 2328 
Q 3016 3291 2770 3770 
Q 2525 4250 2034 4250 
z
M 2034 4750 
Q 2819 4750 3233 4129 
Q 3647 3509 3647 2328 
Q 3647 1150 3233 529 
Q 2819 -91 2034 -91 
Q 1250 -91 836 529 
Q 422 1150 422 2328 
Q 422 3509 836 4129 
Q 1250 4750 2034 4750 
z
" transform="scale(0.015625)"/>
       </defs>
       <use xlink:href="#DejaVuSans-2212"/>
       <use xlink:href="#DejaVuSans-32" x="83.789062"/>
       <use xlink:href="#DejaVuSans-2e" x="147.412109"/>
       <use xlink:href="#DejaVuSans-30" x="179.199219"/>
      </g>
     </g>
    </g>
    <g id="xtick_2">
     <g id="line2d_2">
      <g>
       <use xlink:href="#m3bea3834a5" x="91.445799" y="253.44" style="stroke: #000000; stroke-width: 0.8"/>
      </g>
     </g>
     <g id="text_2">
      <!-- −1.5 -->
      <g transform="translate(79.304393 268.038437) scale(0.1 -0.1)">
       <defs>
        <path id="DejaVuSans-31" d="M 794 531 
L 1825 531 
L 1825 4091 
L 703 3866 
L 703 4441 
L 1819 4666 
L 2450 4666 
L 2450 531 
L 3481 531 
L 3481 0 
L 794 0 
L 794 531 
z
" transform="scale(0.015625)"/>
        <path id="DejaVuSans-35" d="M 691 4666 
L 3169 4666 
L 3169 4134 
L 1269 4134 
L 1269 2991 
Q 1406 3038 1543 3061 
Q 1681 3084 1819 3084 
Q 2600 3084 3056 2656 
Q 3513 2228 3513 1497 
Q 3513 744 3044 326 
Q 2575 -91 1722 -91 
Q 1428 -91 1123 -41 
Q 819 9 494 109 
L 494 744 
Q 775 591 1075 516 
Q 1375 441 1709 441 
Q 2250 441 2565 725 
Q 2881 1009 2881 1497 
Q 2881 1984 2565 2268 
Q 2250 2553 1709 2553 
Q 1456 2553 1204 2497 
Q 953 2441 691 2322 
L 691 4666 
z
" transform="scale(0.015625)"/>
       </defs>
       <use xlink:href="#DejaVuSans-2212"/>
       <use xlink:href="#DejaVuSans-31" x="83.789062"/>
       <use xlink:href="#DejaVuSans-2e" x="147.412109"/>
       <use xlink:href="#DejaVuSans-35" x="179.199219"/>
      </g>
     </g>
    </g>
    <g id="xtick_3">
     <g id="line2d_3">
      <g>
       <use xlink:href="#m3bea3834a5" x="129.555371" y="253.44" style="stroke: #000000; stroke-width: 0.8"/>
      </g>
     </g>
     <g id="text_3">
      <!-- −1.0 -->
      <g transform="translate(117.413965 268.038437) scale(0.1 -0.1)">
       <use xlink:href="#DejaVuSans-2212"/>
       <use xlink:href="#DejaVuSans-31" x="83.789062"/>
       <use xlink:href="#DejaVuSans-2e" x="147.412109"/>
       <use xlink:href="#DejaVuSans-30" x="179.199219"/>
      </g>
     </g>
    </g>
    <g id="xtick_4">
     <g id="line2d_4">
      <g>
       <use xlink:href="#m3bea3834a5" x="167.664943" y="253.44" style="stroke: #000000; stroke-width: 0.8"/>
      </g>
     </g>
     <g id="text_4">
      <!-- −0.5 -->
      <g transform="translate(155.523537 268.038437) scale(0.1 -0.1)">
       <use xlink:href="#DejaVuSans-2212"/>
       <use xlink:href="#DejaVuSans-30" x="83.789062"/>
       <use xlink:href="#DejaVuSans-2e" x="147.412109"/>
       <use xlink:href="#DejaVuSans-35" x="179.199219"/>
      </g>
     </g>
    </g>
    <g id="xtick_5">
     <g id="line2d_5">
      <g>
       <use xlink:href="#m3bea3834a5" x="205.774515" y="253.44" style="stroke: #000000; stroke-width: 0.8"/>
      </g>
     </g>
     <g id="text_5">
      <!-- 0.0 -->
      <g transform="translate(197.822952 268.038437) scale(0.1 -0.1)">
       <use xlink:href="#DejaVuSans-30"/>
       <use xlink:href="#DejaVuSans-2e" x="63.623047"/>
       <use xlink:href="#DejaVuSans-30" x="95.410156"/>
      </g>
     </g>
    </g>
    <g id="xtick_6">
     <g id="line2d_6">
      <g>
       <use xlink:href="#m3bea3834a5" x="243.884087" y="253.44" style="stroke: #000000; stroke-width: 0.8"/>
      </g>
     </g>
     <g id="text_6">
      <!-- 0.5 -->
      <g transform="translate(235.932524 268.038437) scale(0.1 -0.1)">
       <use xlink:href="#DejaVuSans-30"/>
       <use xlink:href="#DejaVuSans-2e" x="63.623047"/>
       <use xlink:href="#DejaVuSans-35" x="95.410156"/>
      </g>
     </g>
    </g>
    <g id="xtick_7">
     <g id="line2d_7">
      <g>
       <use xlink:href="#m3bea3834a5" x="281.993659" y="253.44" style="stroke: #000000; stroke-width: 0.8"/>
      </g>
     </g>
     <g id="text_7">
      <!-- 1.0 -->
      <g transform="translate(274.042096 268.038437) scale(0.1 -0.1)">
       <use xlink:href="#DejaVuSans-31"/>
       <use xlink:href="#DejaVuSans-2e" x="63.623047"/>
       <use xlink:href="#DejaVuSans-30" x="95.410156"/>
      </g>
     </g>
    </g>
    <g id="xtick_8">
     <g id="line2d_8">
      <g>
       <use xlink:href="#m3bea3834a5" x="320.103231" y="253.44" style="stroke: #000000; stroke-width: 0.8"/>
      </g>
     </g>
     <g id="text_8">
      <!-- 1.5 -->
      <g transform="translate(312.151668 268.038437) scale(0.1 -0.1)">
       <use xlink:href="#DejaVuSans-31"/>
       <use xlink:href="#DejaVuSans-2e" x="63.623047"/>
       <use xlink:href="#DejaVuSans-35" x="95.410156"/>
      </g>
     </g>
    </g>
    <g id="xtick_9">
     <g id="line2d_9">
      <g>
       <use xlink:href="#m3bea3834a5" x="358.212802" y="253.44" style="stroke: #000000; stroke-width: 0.8"/>
      </g>
     </g>
     <g id="text_9">
      <!-- 2.0 -->
      <g transform="translate(350.26124 268.038437) scale(0.1 -0.1)">
       <use xlink:href="#DejaVuSans-32"/>
       <use xlink:href="#DejaVuSans-2e" x="63.623047"/>
       <use xlink:href="#DejaVuSans-30" x="95.410156"/>
      </g>
     </g>
    </g>
   </g>
   <g id="matplotlib.axis_2">
    <g id="ytick_1">
     <g id="line2d_10">
      <defs>
       <path id="m94f6b02092" d="M 0 0 
L -3.5 0 
" style="stroke: #000000; stroke-width: 0.8"/>
      </defs>
      <g>
       <use xlink:href="#m94f6b02092" x="38.482813" y="244.257519" style="stroke: #000000; stroke-width: 0.8"/>
      </g>
     </g>
     <g id="text_10">
      <!-- −2.0 -->
      <g transform="translate(7.2 248.056738) scale(0.1 -0.1)">
       <use xlink:href="#DejaVuSans-2212"/>
       <use xlink:href="#DejaVuSans-32" x="83.789062"/>
       <use xlink:href="#DejaVuSans-2e" x="147.412109"/>
       <use xlink:href="#DejaVuSans-30" x="179.199219"/>
      </g>
     </g>
    </g>
    <g id="ytick_2">
     <g id="line2d_11">
      <g>
       <use xlink:href="#m94f6b02092" x="38.482813" y="219.334038" style="stroke: #000000; stroke-width: 0.8"/>
      </g>
     </g>
     <g id="text_11">
      <!-- −1.5 -->
      <g transform="translate(7.2 223.133257) scale(0.1 -0.1)">
       <use xlink:href="#DejaVuSans-2212"/>
       <use xlink:href="#DejaVuSans-31" x="83.789062"/>
       <use xlink:href="#DejaVuSans-2e" x="147.412109"/>
       <use xlink:href="#DejaVuSans-35" x="179.199219"/>
      </g>
     </g>
    </g>
    <g id="ytick_3">
     <g id="line2d_12">
      <g>
       <use xlink:href="#m94f6b02092" x="38.482813" y="194.410557" style="stroke: #000000; stroke-width: 0.8"/>
      </g>
     </g>
     <g id="text_12">
      <!-- −1.0 -->
      <g transform="translate(7.2 198.209775) scale(0.1 -0.1)">
       <use xlink:href="#DejaVuSans-2212"/>
       <use xlink:href="#DejaVuSans-31" x="83.789062"/>
       <use xlink:href="#DejaVuSans-2e" x="147.412109"/>
       <use xlink:href="#DejaVuSans-30" x="179.199219"/>
      </g>
     </g>
    </g>
    <g id="ytick_4">
     <g id="line2d_13">
      <g>
       <use xlink:href="#m94f6b02092" x="38.482813" y="169.487075" style="stroke: #000000; stroke-width: 0.8"/>
      </g>
     </g>
     <g id="text_13">
      <!-- −0.5 -->
      <g transform="translate(7.2 173.286294) scale(0.1 -0.1)">
       <use xlink:href="#DejaVuSans-2212"/>
       <use xlink:href="#DejaVuSans-30" x="83.789062"/>
       <use xlink:href="#DejaVuSans-2e" x="147.412109"/>
       <use xlink:href="#DejaVuSans-35" x="179.199219"/>
      </g>
     </g>
    </g>
    <g id="ytick_5">
     <g id="line2d_14">
      <g>
       <use xlink:href="#m94f6b02092" x="38.482813" y="144.563594" style="stroke: #000000; stroke-width: 0.8"/>
      </g>
     </g>
     <g id="text_14">
      <!-- 0.0 -->
      <g transform="translate(15.579688 148.362813) scale(0.1 -0.1)">
       <use xlink:href="#DejaVuSans-30"/>
       <use xlink:href="#DejaVuSans-2e" x="63.623047"/>
       <use xlink:href="#DejaVuSans-30" x="95.410156"/>
      </g>
     </g>
    </g>
    <g id="ytick_6">
     <g id="line2d_15">
      <g>
       <use xlink:href="#m94f6b02092" x="38.482813" y="119.640113" style="stroke: #000000; stroke-width: 0.8"/>
      </g>
     </g>
     <g id="text_15">
      <!-- 0.5 -->
      <g transform="translate(15.579688 123.439332) scale(0.1 -0.1)">
       <use xlink:href="#DejaVuSans-30"/>
       <use xlink:href="#DejaVuSans-2e" x="63.623047"/>
       <use xlink:href="#DejaVuSans-35" x="95.410156"/>
      </g>
     </g>
    </g>
    <g id="ytick_7">
     <g id="line2d_16">
      <g>
       <use xlink:href="#m94f6b02092" x="38.482813" y="94.716631" style="stroke: #000000; stroke-width: 0.8"/>
      </g>
     </g>
     <g id="text_16">
      <!-- 1.0 -->
      <g transform="translate(15.579688 98.51585) scale(0.1 -0.1)">
       <use xlink:href="#DejaVuSans-31"/>
       <use xlink:href="#DejaVuSans-2e" x="63.623047"/>
       <use xlink:href="#DejaVuSans-30" x="95.410156"/>
      </g>
     </g>
    </g>
    <g id="ytick_8">
     <g id="line2d_17">
      <g>
       <use xlink:href="#m94f6b02092" x="38.482813" y="69.79315" style="stroke: #000000; stroke-width: 0.8"/>
      </g>
     </g>
     <g id="text_17">
      <!-- 1.5 -->
      <g transform="translate(15.579688 73.592369) scale(0.1 -0.1)">
       <use xlink:href="#DejaVuSans-31"/>
       <use xlink:href="#DejaVuSans-2e" x="63.623047"/>
       <use xlink:href="#DejaVuSans-35" x="95.410156"/>
      </g>
     </g>
    </g>
    <g id="ytick_9">
     <g id="line2d_18">
      <g>
       <use xlink:href="#m94f6b02092" x="38.482813" y="44.869669" style="stroke: #000000; stroke-width: 0.8"/>
      </g>
     </g>
     <g id="text_18">
      <!-- 2.0 -->
      <g transform="translate(15.579688 48.668888) scale(0.1 -0.1)">
       <use xlink:href="#DejaVuSans-32"/>
       <use xlink:href="#DejaVuSans-2e" x="63.623047"/>
       <use xlink:href="#DejaVuSans-30" x="95.410156"/>
      </g>
     </g>
    </g>
   </g>
   <g id="line2d_19">
    <path d="M 275.138202 99.305478 
L 263.756143 106.553493 
L 288.959274 90.379726 
L 210.097866 141.533334 
L 354.812614 47.600882 
L 323.511952 67.575371 
L 61.018032 238.942831 
L 355.219116 47.393018 
L 189.472696 155.595784 
L 330.82899 63.055511 
L 65.083053 236.328798 
L 249.935072 115.803373 
L 165.08257 170.29675 
L 58.985522 240.244245 
L 342.211049 55.274982 
L 313.3494 74.456577 
L 102.887748 212.093472 
L 207.658854 142.879038 
L 285.707257 92.736575 
L 212.536879 140.178108 
L 284.081248 93.782571 
L 251.56108 114.432038 
L 60.61153 239.199673 
L 275.544704 99.048413 
L 113.456803 204.775267 
L 357.251626 46.347184 
L 74.026099 230.322461 
L 212.943381 139.81702 
L 100.855238 213.327827 
L 127.277874 195.736091 
L 137.846929 189.067343 
L 318.227425 70.997348 
L 111.830795 205.949629 
L 80.123631 226.233941 
L 141.098946 187.028743 
L 318.633927 70.74012 
L 309.284379 77.112945 
L 319.040429 70.483934 
L 220.260419 135.214626 
L 191.911708 153.964473 
L 129.716887 194.220965 
L 95.570711 216.651614 
L 70.774083 232.465486 
L 252.780587 113.532487 
L 256.845608 110.637448 
L 253.187089 113.105308 
L 104.107255 211.348421 
L 90.692685 219.698064 
L 338.55253 57.641708 
L 332.048496 62.225601 
L 289.772278 89.747453 
L 112.237297 205.684465 
L 293.024295 87.783687 
L 308.471374 77.595308 
L 179.310143 162.073278 
L 340.178538 56.523799 
L 160.611047 173.821887 
L 221.073423 134.663138 
L 295.463307 86.038704 
L 63.457045 237.388659 
L 170.367097 167.302718 
L 315.788412 72.590132 
L 245.463549 118.840572 
L 231.235975 127.635659 
L 347.902078 51.777078 
L 255.626101 111.370665 
L 92.725196 218.476399 
L 64.270049 236.861696 
L 238.146511 123.357697 
L 246.683055 118.157651 
L 116.70882 202.506366 
L 58.172517 240.870969 
L 204.106771 144.861379 
L 295.869809 85.781499 
L 172.80611 165.922876 
L 156.139524 177.501612 
L 87.440669 221.617217 
L 263.349641 106.796066 
L 158.578536 175.424199 
L 239.366017 122.550892 
L 347.495576 52.069337 
L 232.04898 127.166725 
L 193.537717 152.673682 
L 108.98528 208.103465 
L 226.35795 130.88288 
L 286.926763 91.673599 
L 121.586845 199.448528 
L 310.503885 76.382758 
L 150.854996 181.208475 
L 177.277633 163.354439 
L 70.36758 232.728243 
L 95.164209 216.88015 
L 63.863547 237.125869 
L 354.406112 47.809092 
L 215.788896 137.899264 
L 288.146269 90.90299 
L 341.804547 55.523137 
L 333.268003 61.255419 
L 79.717129 226.469899 
L 54.513999 243.12576 
L 221.479925 134.418994 
L 111.01779 206.715395 
L 298.308822 84.271053 
L 164.676068 170.529429 
L 141.91195 186.570515 
L 69.554576 233.247732 
L 111.424293 206.255299 
L 286.113759 92.209477 
L 142.724954 186.112633 
L 218.63441 136.194987 
L 213.756385 139.272528 
L 190.2857 155.058255 
L 95.977213 216.422608 
L 177.684135 163.11086 
L 90.286183 219.93959 
L 165.895574 169.833181 
L 92.318694 218.723254 
L 327.983475 64.983859 
L 67.115564 234.964084 
L 290.991784 88.921376 
L 161.830553 172.730089 
L 187.440185 156.94274 
L 203.293767 145.61976 
L 200.854755 147.628144 
L 58.57902 240.632897 
L 97.196719 215.732649 
L 326.763969 65.684827 
L 148.009482 183.120973 
L 353.593108 48.226843 
L 247.902561 117.475511 
L 206.845849 143.328615 
L 325.137961 66.625729 
L 254.000093 112.529886 
L 336.113517 59.31751 
L 113.863305 204.489503 
L 173.212612 165.692243 
L 284.487751 93.528643 
L 296.276311 85.526474 
L 211.317372 140.858359 
L 143.944461 185.425465 
L 335.300513 59.84292 
L 126.871372 195.996685 
L 130.936393 193.563904 
L 159.39154 174.738803 
L 140.692444 187.258202 
L 310.910387 76.132304 
L 78.09112 227.415453 
L 98.822727 214.569178 
L 223.105933 133.371776 
L 357.658129 46.082528 
L 146.789975 183.815495 
L 205.326278 144.173912 
L 107.765774 208.899115 
L 256.439106 110.881067 
L 193.131215 152.942062 
L 69.148074 233.50485 
L 135.001414 190.775068 
L 301.560839 82.295447 
L 134.594912 191.001792 
L 342.617551 55.027516 
L 227.170954 130.342883 
L 348.715082 51.292398 
L 198.415742 149.278436 
L 169.960595 167.532336 
L 186.627181 157.498143 
L 228.390461 129.514781 
L 352.780103 48.646686 
L 147.60298 183.352853 
L 257.658612 110.152257 
L 287.333265 91.416021 
L 78.904125 226.941842 
L 306.845366 78.641071 
L 93.944702 217.718135 
L 138.253431 188.800487 
L 266.195156 104.939146 
L 57.766015 241.108437 
L 141.505448 186.799548 
L 200.04175 148.335162 
L 227.577456 130.074235 
L 317.007919 71.777959 
L 144.350963 185.196153 
L 85.001656 223.062533 
L 267.00816 104.460652 
L 87.034167 221.85613 
L 306.438864 78.896289 
L 156.546026 177.223425 
L 85.408158 222.817448 
L 147.196477 183.584353 
L 96.383715 216.19312 
L 170.773599 167.073049 
L 351.560597 49.492811 
L 314.975408 73.369456 
L 144.757465 184.966658 
L 351.154095 49.729921 
L 356.03212 46.97778 
L 152.074503 180.242104 
L 306.032362 79.147578 
L 104.513757 211.098956 
L 232.455482 126.915291 
L 297.90232 84.520227 
L 169.554093 167.761934 
L 189.879198 155.327354 
L 291.804788 88.46493 
L 89.473179 220.420824 
L 317.414421 71.515897 
L 275.951206 98.792771 
L 312.129893 75.322263 
L 199.635248 148.573759 
L 348.30858 51.535499 
L 125.245364 197.115958 
L 172.399608 166.153261 
L 323.10545 67.814331 
L 186.220679 157.79044 
L 303.999851 80.624179 
L 117.521824 201.98178 
L 197.602738 149.884894 
L 343.837057 54.288666 
L 282.45524 94.78561 
L 224.731942 132.092136 
L 175.651624 164.300189 
L 207.252351 143.103673 
L 294.243801 86.838544 
L 278.390219 97.278376 
L 153.700511 179.136646 
L 277.170713 98.032221 
L 158.172034 175.850887 
L 81.749639 225.286744 
L 244.244043 119.525686 
L 259.28462 109.188612 
L 234.08149 125.960005 
L 128.903883 194.65617 
L 54.107496 243.341585 
L 171.180101 166.8433 
L 174.025616 165.230058 
L 122.399849 198.877383 
L 325.950965 66.154286 
L 289.365776 89.988671 
L 209.284862 141.981991 
L 188.25319 156.401009 
L 299.93483 83.280349 
L 129.310385 194.438804 
L 305.219358 79.822495 
L 203.700269 145.207123 
L 341.398045 55.772036 
L 109.798284 207.563828 
L 328.796479 64.518277 
L 230.016469 128.329538 
L 189.066194 155.863934 
L 128.090879 195.089692 
L 296.682814 85.273121 
L 145.976971 184.276798 
L 218.227908 136.422373 
L 86.627664 222.095264 
L 62.237538 238.16978 
L 184.594671 159.136259 
L 88.660175 220.900185 
L 302.373843 81.69983 
L 143.131456 185.883669 
L 130.529891 193.783601 
L 271.479683 101.910384 
L 321.885944 68.703501 
L 119.554335 200.620321 
L 208.87836 142.206176 
L 135.407917 190.548512 
L 201.667759 146.909582 
L 77.684618 227.768431 
L 276.357708 98.538308 
L 193.944219 152.367486 
L 124.025858 197.871792 
L 208.065356 142.654627 
L 339.772036 56.77631 
L 87.847171 221.378342 
L 98.416225 214.828611 
L 332.454998 61.917038 
L 346.27607 52.819225 
L 321.07294 69.212337 
L 68.741572 233.760387 
L 196.789734 150.434671 
L 285.300755 93.010381 
L 91.099188 219.455805 
L 249.122068 116.380814 
L 139.472938 188.034698 
L 214.162887 139.012433 
L 323.918454 67.337056 
L 158.985038 175.125202 
L 247.496059 117.7029 
L 78.497622 227.17827 
L 294.650303 86.563984 
L 355.625618 47.185382 
L 241.80503 120.908674 
L 333.674505 60.954139 
L 236.114001 124.872593 
L 242.618034 120.44513 
L 214.975891 138.372808 
L 346.682572 52.573287 
L 345.869568 53.064301 
L 339.365534 57.029941 
L 301.967341 82.049545 
L 331.641994 62.500769 
L 268.227666 103.756563 
L 162.643557 172.015698 
L 151.668001 180.538638 
L 168.334587 168.45092 
L 286.520261 91.93489 
L 61.424534 238.685754 
L 326.357467 65.919321 
L 345.056563 53.553638 
L 91.912192 218.968581 
L 206.439347 143.553954 
L 134.18841 191.228855 
L 156.952528 176.940243 
L 234.894494 125.524529 
L 174.432118 164.998396 
L 322.698948 68.18391 
L 119.147832 200.853438 
L 128.497381 194.873116 
L 93.131698 218.227499 
L 320.666437 69.466051 
L 308.064872 77.836237 
L 340.58504 56.272302 
L 137.033925 189.641178 
L 349.528087 50.793806 
L 343.430555 54.53442 
L 255.219599 111.616793 
L 56.140007 242.058539 
L 117.928326 201.704515 
L 305.62586 79.54323 
L 55.733505 242.300739 
L 239.772519 122.292536 
L 307.65837 78.077213 
L 312.536395 75.090925 
L 283.268244 94.285775 
L 211.723875 140.632409 
L 116.302318 202.850969 
L 138.659933 188.547806 
L 166.708578 169.371366 
L 99.635732 214.068881 
L 264.162645 106.305792 
L 81.343137 225.524304 
L 293.837299 87.23841 
L 290.17878 89.504493 
L 126.058368 196.591546 
L 314.568906 73.63689 
L 297.089316 85.021107 
L 149.63549 182.189142 
L 243.431038 119.984351 
L 140.285942 187.48806 
L 53.700994 243.556364 
L 54.920501 242.908871 
L 271.073181 102.139509 
L 108.578778 208.370076 
L 297.495818 84.770201 
L 93.5382 217.975559 
L 175.245122 164.533569 
L 107.359272 209.162127 
L 157.765532 176.198487 
L 254.406595 112.112178 
L 102.074744 212.587954 
L 282.861742 94.535976 
L 120.367339 200.153033 
L 303.186847 81.155143 
L 243.83754 119.754788 
L 232.861984 126.615389 
L 273.918696 100.08956 
L 334.487509 60.372205 
L 258.471616 109.669441 
L 311.316889 75.784816 
L 191.505206 154.242097 
L 210.91087 141.083746 
L 89.879681 220.180481 
L 340.991542 56.021738 
L 336.926521 58.794079 
L 176.058127 164.065951 
L 182.155658 160.498868 
L 252.374085 113.837077 
L 184.188169 159.364394 
L 57.359513 241.345507 
L 251.154578 114.731198 
L 173.619114 165.46132 
L 243.024536 120.21444 
L 202.480763 146.192978 
L 201.261257 147.333304 
L 241.398528 121.141755 
L 109.391782 207.834929 
L 198.00924 149.511104 
L 337.739526 58.210752 
L 115.489314 203.407205 
L 260.097624 108.709386 
L 139.87944 187.71851 
L 132.968904 192.083573 
L 152.887507 179.683023 
L 146.383473 184.046302 
L 267.414662 104.224758 
L 66.709062 235.241459 
L 148.822486 182.655971 
L 94.757706 217.108229 
L 338.959032 57.284838 
L 167.521582 168.910751 
L 301.154337 82.541393 
L 281.235734 95.532758 
L 283.674746 94.03476 
L 133.781908 191.571775 
L 178.497139 162.520789 
L 347.089074 52.325341 
L 219.040912 135.964185 
L 262.943139 107.036603 
L 210.504368 141.308702 
L 105.733263 210.210814 
L 327.170471 65.450773 
L 110.611288 207.008425 
L 321.479442 68.958351 
L 86.221162 222.334879 
L 324.731458 66.862259 
L 274.7317 99.564306 
L 65.896057 235.7891 
L 122.806351 198.621432 
L 178.903641 162.297145 
L 229.203465 128.864876 
L 281.642236 95.283873 
L 106.139765 209.948358 
L 273.512194 100.358233 
L 83.78215 224.082738 
L 102.481246 212.340893 
L 67.928568 234.399409 
L 272.69919 100.929656 
L 149.228988 182.422798 
L 345.463066 53.309011 
L 162.237055 172.397475 
L 274.325198 99.8254 
L 71.993589 231.659156 
L 204.513274 144.630888 
L 230.829473 127.867251 
L 319.446931 70.228606 
L 222.292929 133.799475 
L 317.820923 71.255841 
L 163.456561 171.478832 
L 154.107013 178.865103 
L 178.090637 162.854204 
L 280.829232 95.781614 
L 240.179022 122.033736 
L 79.310627 226.705803 
L 105.326761 210.474943 
L 349.934589 50.420399 
L 176.871131 163.593696 
L 316.194914 72.311898 
L 236.520503 124.655423 
L 309.690881 76.871011 
L 209.691364 141.757736 
L 202.887265 145.909258 
L 358.064631 45.883636 
L 273.105692 100.634584 
L 155.326519 178.050202 
L 168.741089 168.221193 
L 183.781666 159.592084 
L 64.676551 236.59604 
L 223.512435 133.158602 
L 101.26174 213.081315 
L 202.074261 146.485079 
L 63.050543 237.650166 
L 80.530133 225.997776 
L 268.634169 103.523792 
L 319.853433 69.973967 
L 237.740009 123.724472 
L 244.650545 119.296986 
L 169.147591 167.991543 
L 137.440427 189.413333 
L 118.74133 201.086284 
L 73.619597 230.557701 
L 180.123148 161.624826 
L 276.764211 98.28484 
L 65.489555 236.05986 
L 187.033683 157.217683 
L 194.350721 152.025026 
L 338.146028 57.931965 
L 278.796721 97.02814 
L 236.927005 124.238602 
L 88.253673 221.139369 
L 316.601416 72.042776 
L 115.895816 203.134216 
L 356.845124 46.560758 
L 240.585524 121.770551 
L 350.747593 49.961894 
L 97.603221 215.396435 
L 308.877877 77.354277 
L 233.268486 126.396579 
L 237.333507 123.975495 
L 165.489072 170.064704 
L 152.481005 179.959873 
L 353.186605 48.436485 
L 267.821164 103.990158 
L 182.56216 160.272727 
L 295.056805 86.298955 
L 179.716645 161.849176 
L 167.11508 169.140937 
L 145.570469 184.507006 
L 120.773841 199.918739 
L 136.220921 190.095338 
L 351.967099 49.160863 
L 219.447414 135.719437 
L 208.471858 142.430364 
L 197.196236 150.17076 
L 171.586603 166.613439 
L 302.780345 81.423688 
L 248.309064 117.122075 
L 242.211532 120.676507 
L 55.327003 242.555919 
L 298.715324 84.022566 
L 82.156141 225.048445 
L 284.894253 93.271973 
L 258.065114 109.910577 
L 282.048738 95.034862 
L 192.724713 153.386858 
L 181.749156 160.724671 
L 82.562643 224.809229 
L 185.001173 158.907653 
L 245.057047 119.068632 
L 259.691122 108.948824 
L 154.513515 178.593832 
L 299.528328 83.527294 
L 344.650061 53.798371 
L 85.81466 222.575376 
L 324.324956 67.09936 
L 182.968662 160.046229 
L 67.522066 234.683746 
L 222.699431 133.585306 
L 68.33507 234.107836 
L 100.042234 213.821323 
L 271.886185 101.681627 
L 103.700753 211.597293 
L 150.041992 181.954973 
L 234.487992 125.742151 
L 145.163967 184.736951 
L 292.21129 88.237421 
L 257.25211 110.39453 
L 229.609967 128.561006 
L 322.292446 68.446574 
L 190.692202 154.788062 
L 204.919776 144.401835 
L 240.992026 121.471977 
L 82.969146 224.568848 
L 123.212853 198.370678 
L 356.438622 46.769852 
L 191.098704 154.51625 
L 336.520019 59.055691 
L 246.276553 118.385132 
L 213.349883 139.53456 
L 258.878118 109.428802 
L 205.73278 143.946894 
L 216.6019 137.393888 
L 312.942898 74.76823 
L 325.544463 66.389747 
L 110.204786 207.289072 
L 269.853675 102.829372 
L 99.22923 214.317712 
L 176.464629 163.830596 
L 72.400091 231.376985 
L 343.024053 54.780682 
L 96.790217 215.963137 
L 130.123389 194.00259 
L 291.398286 88.692904 
L 300.341332 83.033766 
L 320.259935 69.719846 
L 314.162404 73.903153 
L 163.050059 171.748289 
L 290.585282 89.256272 
L 56.953011 241.582481 
L 59.392024 239.975516 
L 254.813097 111.863928 
L 195.570227 151.202748 
L 212.130377 140.405732 
L 98.009723 215.148529 
L 106.952769 209.424474 
L 307.251868 78.318352 
L 353.99961 48.017727 
L 161.424051 173.140628 
L 167.928085 168.68076 
L 235.707498 125.089798 
L 264.97565 105.734176 
L 288.552772 90.644274 
L 264.569148 105.961935 
L 143.537959 185.654625 
L 185.814177 158.231004 
L 337.333024 58.493475 
L 161.017549 173.417721 
L 181.342654 160.950152 
L 112.643799 205.433925 
L 330.422488 63.343001 
L 74.839104 229.848666 
L 311.723391 75.553527 
L 265.382152 105.506787 
L 279.203223 96.778304 
L 100.448736 213.574421 
L 188.659692 156.132195 
L 136.627423 189.868454 
L 154.920017 178.322354 
L 126.46487 196.248134 
L 60.205028 239.456733 
L 350.341091 50.191689 
L 206.032845 143.779795 
L 250.341574 115.360491 
L 123.619356 198.121226 
L 76.465112 228.625512 
L 71.180585 232.200284 
L 80.936635 225.761272 
L 131.749398 192.837934 
L 266.601658 104.698376 
L 280.42273 96.030523 
L 74.432601 230.086143 
L 253.593591 112.824019 
L 66.302559 235.516367 
L 219.853917 135.434856 
L 248.715566 116.860587 
L 77.278116 228.05159 
L 103.294251 211.845625 
L 315.38191 73.09294 
L 153.294009 179.409028 
L 303.593349 80.889203 
L 148.415984 182.888687 
L 117.115322 202.246446 
L 270.666679 102.369028 
L 73.213095 230.791924 
L 349.121584 51.046429 
L 84.595154 223.408273 
L 344.243559 54.043345 
L 227.983959 129.801909 
L 280.016227 96.279562 
L 142.318452 186.341565 
L 277.577215 97.780335 
L 261.723633 107.753887 
L 310.097383 76.627964 
L 101.668242 212.83473 
L 238.959515 122.811145 
L 115.082811 203.677044 
L 76.871614 228.331443 
L 299.121826 83.774675 
L 91.50569 219.212695 
L 262.130135 107.515129 
L 328.389977 64.750924 
L 304.406353 80.358972 
L 108.172276 208.635186 
L 150.448494 181.629291 
L 121.180343 199.683927 
L 71.587087 231.931988 
L 304.812856 80.09241 
L 260.504127 108.470244 
L 163.863064 171.202166 
L 245.870051 118.612755 
L 133.375406 191.83244 
L 216.195398 137.657899 
L 180.936152 161.175329 
L 225.544946 131.574601 
L 185.407675 158.51562 
L 166.302076 169.602093 
L 139.066435 188.296155 
L 313.755902 74.172238 
L 187.846687 156.670931 
L 217.414904 136.872738 
L 265.788654 105.187393 
L 334.081007 60.638926 
L 121.993347 199.212466 
L 335.707015 59.579841 
L 157.35903 176.646346 
L 183.375164 159.819355 
L 104.920259 210.744433 
L 233.674988 126.178133 
L 256.032603 111.125449 
L 279.609725 96.5288 
L 59.798526 239.714794 
L 226.764452 130.611463 
L 94.351204 217.443435 
L 332.8615 61.541438 
L 106.546267 209.686432 
L 331.235492 62.776613 
L 164.269566 170.873594 
L 119.960837 200.386873 
L 69.961078 232.988915 
L 261.317131 107.992579 
L 352.373601 48.936533 
L 151.261498 180.926139 
L 155.733022 177.77685 
L 127.684377 195.428457 
L 247.089557 117.930259 
L 238.553013 123.076438 
L 238.553013 123.076438 
" clip-path="url(#pf5a6a09dbb)" style="fill: none; stroke: #1f77b4; stroke-width: 1.5; stroke-linecap: square"/>
   </g>
   <g id="patch_3">
    <path d="M 38.482813 253.44 
L 38.482813 36 
" style="fill: none; stroke: #000000; stroke-width: 0.8; stroke-linejoin: miter; stroke-linecap: square"/>
   </g>
   <g id="patch_4">
    <path d="M 373.282813 253.44 
L 373.282813 36 
" style="fill: none; stroke: #000000; stroke-width: 0.8; stroke-linejoin: miter; stroke-linecap: square"/>
   </g>
   <g id="patch_5">
    <path d="M 38.482812 253.44 
L 373.282813 253.44 
" style="fill: none; stroke: #000000; stroke-width: 0.8; stroke-linejoin: miter; stroke-linecap: square"/>
   </g>
   <g id="patch_6">
    <path d="M 38.482812 36 
L 373.282813 36 
" style="fill: none; stroke: #000000; stroke-width: 0.8; stroke-linejoin: miter; stroke-linecap: square"/>
   </g>
  </g>
  <g id="text_19">
   <!-- $x$ and $\hat{x}$ for radius: 2 -->
   <g transform="translate(139.882812 16.318125) scale(0.12 -0.12)">
    <defs>
     <path id="DejaVuSans-Oblique-78" d="M 3841 3500 
L 2234 1784 
L 3219 0 
L 2559 0 
L 1819 1388 
L 531 0 
L -166 0 
L 1556 1844 
L 641 3500 
L 1300 3500 
L 1972 2234 
L 3144 3500 
L 3841 3500 
z
" transform="scale(0.015625)"/>
     <path id="DejaVuSans-20" transform="scale(0.015625)"/>
     <path id="DejaVuSans-61" d="M 2194 1759 
Q 1497 1759 1228 1600 
Q 959 1441 959 1056 
Q 959 750 1161 570 
Q 1363 391 1709 391 
Q 2188 391 2477 730 
Q 2766 1069 2766 1631 
L 2766 1759 
L 2194 1759 
z
M 3341 1997 
L 3341 0 
L 2766 0 
L 2766 531 
Q 2569 213 2275 61 
Q 1981 -91 1556 -91 
Q 1019 -91 701 211 
Q 384 513 384 1019 
Q 384 1609 779 1909 
Q 1175 2209 1959 2209 
L 2766 2209 
L 2766 2266 
Q 2766 2663 2505 2880 
Q 2244 3097 1772 3097 
Q 1472 3097 1187 3025 
Q 903 2953 641 2809 
L 641 3341 
Q 956 3463 1253 3523 
Q 1550 3584 1831 3584 
Q 2591 3584 2966 3190 
Q 3341 2797 3341 1997 
z
" transform="scale(0.015625)"/>
     <path id="DejaVuSans-6e" d="M 3513 2113 
L 3513 0 
L 2938 0 
L 2938 2094 
Q 2938 2591 2744 2837 
Q 2550 3084 2163 3084 
Q 1697 3084 1428 2787 
Q 1159 2491 1159 1978 
L 1159 0 
L 581 0 
L 581 3500 
L 1159 3500 
L 1159 2956 
Q 1366 3272 1645 3428 
Q 1925 3584 2291 3584 
Q 2894 3584 3203 3211 
Q 3513 2838 3513 2113 
z
" transform="scale(0.015625)"/>
     <path id="DejaVuSans-64" d="M 2906 2969 
L 2906 4863 
L 3481 4863 
L 3481 0 
L 2906 0 
L 2906 525 
Q 2725 213 2448 61 
Q 2172 -91 1784 -91 
Q 1150 -91 751 415 
Q 353 922 353 1747 
Q 353 2572 751 3078 
Q 1150 3584 1784 3584 
Q 2172 3584 2448 3432 
Q 2725 3281 2906 2969 
z
M 947 1747 
Q 947 1113 1208 752 
Q 1469 391 1925 391 
Q 2381 391 2643 752 
Q 2906 1113 2906 1747 
Q 2906 2381 2643 2742 
Q 2381 3103 1925 3103 
Q 1469 3103 1208 2742 
Q 947 2381 947 1747 
z
" transform="scale(0.015625)"/>
     <path id="DejaVuSans-302" d="M -1831 5119 
L -1369 5119 
L -603 3944 
L -1038 3944 
L -1600 4709 
L -2163 3944 
L -2597 3944 
L -1831 5119 
z
M -1600 3584 
L -1600 3584 
z
" transform="scale(0.015625)"/>
     <path id="DejaVuSans-66" d="M 2375 4863 
L 2375 4384 
L 1825 4384 
Q 1516 4384 1395 4259 
Q 1275 4134 1275 3809 
L 1275 3500 
L 2222 3500 
L 2222 3053 
L 1275 3053 
L 1275 0 
L 697 0 
L 697 3053 
L 147 3053 
L 147 3500 
L 697 3500 
L 697 3744 
Q 697 4328 969 4595 
Q 1241 4863 1831 4863 
L 2375 4863 
z
" transform="scale(0.015625)"/>
     <path id="DejaVuSans-6f" d="M 1959 3097 
Q 1497 3097 1228 2736 
Q 959 2375 959 1747 
Q 959 1119 1226 758 
Q 1494 397 1959 397 
Q 2419 397 2687 759 
Q 2956 1122 2956 1747 
Q 2956 2369 2687 2733 
Q 2419 3097 1959 3097 
z
M 1959 3584 
Q 2709 3584 3137 3096 
Q 3566 2609 3566 1747 
Q 3566 888 3137 398 
Q 2709 -91 1959 -91 
Q 1206 -91 779 398 
Q 353 888 353 1747 
Q 353 2609 779 3096 
Q 1206 3584 1959 3584 
z
" transform="scale(0.015625)"/>
     <path id="DejaVuSans-72" d="M 2631 2963 
Q 2534 3019 2420 3045 
Q 2306 3072 2169 3072 
Q 1681 3072 1420 2755 
Q 1159 2438 1159 1844 
L 1159 0 
L 581 0 
L 581 3500 
L 1159 3500 
L 1159 2956 
Q 1341 3275 1631 3429 
Q 1922 3584 2338 3584 
Q 2397 3584 2469 3576 
Q 2541 3569 2628 3553 
L 2631 2963 
z
" transform="scale(0.015625)"/>
     <path id="DejaVuSans-69" d="M 603 3500 
L 1178 3500 
L 1178 0 
L 603 0 
L 603 3500 
z
M 603 4863 
L 1178 4863 
L 1178 4134 
L 603 4134 
L 603 4863 
z
" transform="scale(0.015625)"/>
     <path id="DejaVuSans-75" d="M 544 1381 
L 544 3500 
L 1119 3500 
L 1119 1403 
Q 1119 906 1312 657 
Q 1506 409 1894 409 
Q 2359 409 2629 706 
Q 2900 1003 2900 1516 
L 2900 3500 
L 3475 3500 
L 3475 0 
L 2900 0 
L 2900 538 
Q 2691 219 2414 64 
Q 2138 -91 1772 -91 
Q 1169 -91 856 284 
Q 544 659 544 1381 
z
M 1991 3584 
L 1991 3584 
z
" transform="scale(0.015625)"/>
     <path id="DejaVuSans-73" d="M 2834 3397 
L 2834 2853 
Q 2591 2978 2328 3040 
Q 2066 3103 1784 3103 
Q 1356 3103 1142 2972 
Q 928 2841 928 2578 
Q 928 2378 1081 2264 
Q 1234 2150 1697 2047 
L 1894 2003 
Q 2506 1872 2764 1633 
Q 3022 1394 3022 966 
Q 3022 478 2636 193 
Q 2250 -91 1575 -91 
Q 1294 -91 989 -36 
Q 684 19 347 128 
L 347 722 
Q 666 556 975 473 
Q 1284 391 1588 391 
Q 1994 391 2212 530 
Q 2431 669 2431 922 
Q 2431 1156 2273 1281 
Q 2116 1406 1581 1522 
L 1381 1569 
Q 847 1681 609 1914 
Q 372 2147 372 2553 
Q 372 3047 722 3315 
Q 1072 3584 1716 3584 
Q 2034 3584 2315 3537 
Q 2597 3491 2834 3397 
z
" transform="scale(0.015625)"/>
     <path id="DejaVuSans-3a" d="M 750 794 
L 1409 794 
L 1409 0 
L 750 0 
L 750 794 
z
M 750 3309 
L 1409 3309 
L 1409 2516 
L 750 2516 
L 750 3309 
z
" transform="scale(0.015625)"/>
    </defs>
    <use xlink:href="#DejaVuSans-Oblique-78" transform="translate(0 0.828125)"/>
    <use xlink:href="#DejaVuSans-20" transform="translate(59.179688 0.828125)"/>
    <use xlink:href="#DejaVuSans-61" transform="translate(90.966797 0.828125)"/>
    <use xlink:href="#DejaVuSans-6e" transform="translate(152.246094 0.828125)"/>
    <use xlink:href="#DejaVuSans-64" transform="translate(215.625 0.828125)"/>
    <use xlink:href="#DejaVuSans-20" transform="translate(279.101562 0.828125)"/>
    <use xlink:href="#DejaVuSans-302" transform="translate(373.261719 12.015625)"/>
    <use xlink:href="#DejaVuSans-Oblique-78" transform="translate(310.888672 0.828125)"/>
    <use xlink:href="#DejaVuSans-20" transform="translate(370.068359 0.828125)"/>
    <use xlink:href="#DejaVuSans-66" transform="translate(401.855469 0.828125)"/>
    <use xlink:href="#DejaVuSans-6f" transform="translate(437.060547 0.828125)"/>
    <use xlink:href="#DejaVuSans-72" transform="translate(498.242188 0.828125)"/>
    <use xlink:href="#DejaVuSans-20" transform="translate(539.355469 0.828125)"/>
    <use xlink:href="#DejaVuSans-72" transform="translate(571.142578 0.828125)"/>
    <use xlink:href="#DejaVuSans-61" transform="translate(612.255859 0.828125)"/>
    <use xlink:href="#DejaVuSans-64" transform="translate(673.535156 0.828125)"/>
    <use xlink:href="#DejaVuSans-69" transform="translate(737.011719 0.828125)"/>
    <use xlink:href="#DejaVuSans-75" transform="translate(764.794922 0.828125)"/>
    <use xlink:href="#DejaVuSans-73" transform="translate(828.173828 0.828125)"/>
    <use xlink:href="#DejaVuSans-3a" transform="translate(880.273438 0.828125)"/>
    <use xlink:href="#DejaVuSans-20" transform="translate(913.964844 0.828125)"/>
    <use xlink:href="#DejaVuSans-32" transform="translate(945.751953 0.828125)"/>
   </g>
  </g>
 </g>
 <defs>
  <clipPath id="pf5a6a09dbb">
   <rect x="38.482813" y="36" width="334.8" height="217.44"/>
  </clipPath>
 </defs>
</svg>
