<?xml version="1.0" encoding="utf-8" standalone="no"?>
<!DOCTYPE svg PUBLIC "-//W3C//DTD SVG 1.1//EN"
  "http://www.w3.org/Graphics/SVG/1.1/DTD/svg11.dtd">
<svg xmlns:xlink="http://www.w3.org/1999/xlink" width="407.422812pt" height="290.99625pt" viewBox="0 0 407.422812 290.99625" xmlns="http://www.w3.org/2000/svg" version="1.1">
 <metadata>
  <rdf:RDF xmlns:dc="http://purl.org/dc/elements/1.1/" xmlns:cc="http://creativecommons.org/ns#" xmlns:rdf="http://www.w3.org/1999/02/22-rdf-syntax-ns#">
   <cc:Work>
    <dc:type rdf:resource="http://purl.org/dc/dcmitype/StillImage"/>
    <dc:date>2022-11-11T21:38:13.990303</dc:date>
    <dc:format>image/svg+xml</dc:format>
    <dc:creator>
     <cc:Agent>
      <dc:title>Matplotlib v3.6.0, https://matplotlib.org/</dc:title>
     </cc:Agent>
    </dc:creator>
   </cc:Work>
  </rdf:RDF>
 </metadata>
 <defs>
  <style type="text/css">*{stroke-linejoin: round; stroke-linecap: butt}</style>
 </defs>
 <g id="figure_1">
  <g id="patch_1">
   <path d="M 0 290.99625 
L 407.422812 290.99625 
L 407.422812 0 
L 0 0 
L 0 290.99625 
z
" style="fill: none"/>
  </g>
  <g id="axes_1">
   <g id="patch_2">
    <path d="M 53.782813 253.44 
L 388.582812 253.44 
L 388.582812 36 
L 53.782813 36 
z
" style="fill: #ffffff"/>
   </g>
   <g id="matplotlib.axis_1">
    <g id="xtick_1">
     <g id="line2d_1">
      <defs>
       <path id="m9a9ab417e3" d="M 0 0 
L 0 3.5 
" style="stroke: #000000; stroke-width: 0.8"/>
      </defs>
      <g>
       <use xlink:href="#m9a9ab417e3" x="68.391047" y="253.44" style="stroke: #000000; stroke-width: 0.8"/>
      </g>
     </g>
     <g id="text_1">
      <!-- 0.0 -->
      <g transform="translate(60.439485 268.038437) scale(0.1 -0.1)">
       <defs>
        <path id="DejaVuSans-30" d="M 2034 4250 
Q 1547 4250 1301 3770 
Q 1056 3291 1056 2328 
Q 1056 1369 1301 889 
Q 1547 409 2034 409 
Q 2525 409 2770 889 
Q 3016 1369 3016 2328 
Q 3016 3291 2770 3770 
Q 2525 4250 2034 4250 
z
M 2034 4750 
Q 2819 4750 3233 4129 
Q 3647 3509 3647 2328 
Q 3647 1150 3233 529 
Q 2819 -91 2034 -91 
Q 1250 -91 836 529 
Q 422 1150 422 2328 
Q 422 3509 836 4129 
Q 1250 4750 2034 4750 
z
" transform="scale(0.015625)"/>
        <path id="DejaVuSans-2e" d="M 684 794 
L 1344 794 
L 1344 0 
L 684 0 
L 684 794 
z
" transform="scale(0.015625)"/>
       </defs>
       <use xlink:href="#DejaVuSans-30"/>
       <use xlink:href="#DejaVuSans-2e" x="63.623047"/>
       <use xlink:href="#DejaVuSans-30" x="95.410156"/>
      </g>
     </g>
    </g>
    <g id="xtick_2">
     <g id="line2d_2">
      <g>
       <use xlink:href="#m9a9ab417e3" x="129.385764" y="253.44" style="stroke: #000000; stroke-width: 0.8"/>
      </g>
     </g>
     <g id="text_2">
      <!-- 0.1 -->
      <g transform="translate(121.434201 268.038437) scale(0.1 -0.1)">
       <defs>
        <path id="DejaVuSans-31" d="M 794 531 
L 1825 531 
L 1825 4091 
L 703 3866 
L 703 4441 
L 1819 4666 
L 2450 4666 
L 2450 531 
L 3481 531 
L 3481 0 
L 794 0 
L 794 531 
z
" transform="scale(0.015625)"/>
       </defs>
       <use xlink:href="#DejaVuSans-30"/>
       <use xlink:href="#DejaVuSans-2e" x="63.623047"/>
       <use xlink:href="#DejaVuSans-31" x="95.410156"/>
      </g>
     </g>
    </g>
    <g id="xtick_3">
     <g id="line2d_3">
      <g>
       <use xlink:href="#m9a9ab417e3" x="190.380481" y="253.44" style="stroke: #000000; stroke-width: 0.8"/>
      </g>
     </g>
     <g id="text_3">
      <!-- 0.2 -->
      <g transform="translate(182.428918 268.038437) scale(0.1 -0.1)">
       <defs>
        <path id="DejaVuSans-32" d="M 1228 531 
L 3431 531 
L 3431 0 
L 469 0 
L 469 531 
Q 828 903 1448 1529 
Q 2069 2156 2228 2338 
Q 2531 2678 2651 2914 
Q 2772 3150 2772 3378 
Q 2772 3750 2511 3984 
Q 2250 4219 1831 4219 
Q 1534 4219 1204 4116 
Q 875 4013 500 3803 
L 500 4441 
Q 881 4594 1212 4672 
Q 1544 4750 1819 4750 
Q 2544 4750 2975 4387 
Q 3406 4025 3406 3419 
Q 3406 3131 3298 2873 
Q 3191 2616 2906 2266 
Q 2828 2175 2409 1742 
Q 1991 1309 1228 531 
z
" transform="scale(0.015625)"/>
       </defs>
       <use xlink:href="#DejaVuSans-30"/>
       <use xlink:href="#DejaVuSans-2e" x="63.623047"/>
       <use xlink:href="#DejaVuSans-32" x="95.410156"/>
      </g>
     </g>
    </g>
    <g id="xtick_4">
     <g id="line2d_4">
      <g>
       <use xlink:href="#m9a9ab417e3" x="251.375197" y="253.44" style="stroke: #000000; stroke-width: 0.8"/>
      </g>
     </g>
     <g id="text_4">
      <!-- 0.3 -->
      <g transform="translate(243.423635 268.038437) scale(0.1 -0.1)">
       <defs>
        <path id="DejaVuSans-33" d="M 2597 2516 
Q 3050 2419 3304 2112 
Q 3559 1806 3559 1356 
Q 3559 666 3084 287 
Q 2609 -91 1734 -91 
Q 1441 -91 1130 -33 
Q 819 25 488 141 
L 488 750 
Q 750 597 1062 519 
Q 1375 441 1716 441 
Q 2309 441 2620 675 
Q 2931 909 2931 1356 
Q 2931 1769 2642 2001 
Q 2353 2234 1838 2234 
L 1294 2234 
L 1294 2753 
L 1863 2753 
Q 2328 2753 2575 2939 
Q 2822 3125 2822 3475 
Q 2822 3834 2567 4026 
Q 2313 4219 1838 4219 
Q 1578 4219 1281 4162 
Q 984 4106 628 3988 
L 628 4550 
Q 988 4650 1302 4700 
Q 1616 4750 1894 4750 
Q 2613 4750 3031 4423 
Q 3450 4097 3450 3541 
Q 3450 3153 3228 2886 
Q 3006 2619 2597 2516 
z
" transform="scale(0.015625)"/>
       </defs>
       <use xlink:href="#DejaVuSans-30"/>
       <use xlink:href="#DejaVuSans-2e" x="63.623047"/>
       <use xlink:href="#DejaVuSans-33" x="95.410156"/>
      </g>
     </g>
    </g>
    <g id="xtick_5">
     <g id="line2d_5">
      <g>
       <use xlink:href="#m9a9ab417e3" x="312.369914" y="253.44" style="stroke: #000000; stroke-width: 0.8"/>
      </g>
     </g>
     <g id="text_5">
      <!-- 0.4 -->
      <g transform="translate(304.418351 268.038437) scale(0.1 -0.1)">
       <defs>
        <path id="DejaVuSans-34" d="M 2419 4116 
L 825 1625 
L 2419 1625 
L 2419 4116 
z
M 2253 4666 
L 3047 4666 
L 3047 1625 
L 3713 1625 
L 3713 1100 
L 3047 1100 
L 3047 0 
L 2419 0 
L 2419 1100 
L 313 1100 
L 313 1709 
L 2253 4666 
z
" transform="scale(0.015625)"/>
       </defs>
       <use xlink:href="#DejaVuSans-30"/>
       <use xlink:href="#DejaVuSans-2e" x="63.623047"/>
       <use xlink:href="#DejaVuSans-34" x="95.410156"/>
      </g>
     </g>
    </g>
    <g id="xtick_6">
     <g id="line2d_6">
      <g>
       <use xlink:href="#m9a9ab417e3" x="373.364631" y="253.44" style="stroke: #000000; stroke-width: 0.8"/>
      </g>
     </g>
     <g id="text_6">
      <!-- 0.5 -->
      <g transform="translate(365.413068 268.038437) scale(0.1 -0.1)">
       <defs>
        <path id="DejaVuSans-35" d="M 691 4666 
L 3169 4666 
L 3169 4134 
L 1269 4134 
L 1269 2991 
Q 1406 3038 1543 3061 
Q 1681 3084 1819 3084 
Q 2600 3084 3056 2656 
Q 3513 2228 3513 1497 
Q 3513 744 3044 326 
Q 2575 -91 1722 -91 
Q 1428 -91 1123 -41 
Q 819 9 494 109 
L 494 744 
Q 775 591 1075 516 
Q 1375 441 1709 441 
Q 2250 441 2565 725 
Q 2881 1009 2881 1497 
Q 2881 1984 2565 2268 
Q 2250 2553 1709 2553 
Q 1456 2553 1204 2497 
Q 953 2441 691 2322 
L 691 4666 
z
" transform="scale(0.015625)"/>
       </defs>
       <use xlink:href="#DejaVuSans-30"/>
       <use xlink:href="#DejaVuSans-2e" x="63.623047"/>
       <use xlink:href="#DejaVuSans-35" x="95.410156"/>
      </g>
     </g>
    </g>
    <g id="text_7">
     <!-- $t$ -->
     <g transform="translate(219.182812 281.716562) scale(0.1 -0.1)">
      <defs>
       <path id="DejaVuSans-Oblique-74" d="M 2706 3500 
L 2619 3053 
L 1472 3053 
L 1100 1153 
Q 1081 1047 1072 975 
Q 1063 903 1063 863 
Q 1063 663 1183 572 
Q 1303 481 1569 481 
L 2150 481 
L 2053 0 
L 1503 0 
Q 991 0 739 200 
Q 488 400 488 806 
Q 488 878 497 964 
Q 506 1050 525 1153 
L 897 3053 
L 409 3053 
L 500 3500 
L 978 3500 
L 1172 4494 
L 1747 4494 
L 1556 3500 
L 2706 3500 
z
" transform="scale(0.015625)"/>
      </defs>
      <use xlink:href="#DejaVuSans-Oblique-74" transform="translate(0 0.78125)"/>
     </g>
    </g>
   </g>
   <g id="matplotlib.axis_2">
    <g id="ytick_1">
     <g id="line2d_7">
      <defs>
       <path id="m3cfd4489f1" d="M 0 0 
L -3.5 0 
" style="stroke: #000000; stroke-width: 0.8"/>
      </defs>
      <g>
       <use xlink:href="#m3cfd4489f1" x="53.782813" y="236.79687" style="stroke: #000000; stroke-width: 0.8"/>
      </g>
     </g>
     <g id="text_8">
      <!-- −1.0 -->
      <g transform="translate(22.5 240.596089) scale(0.1 -0.1)">
       <defs>
        <path id="DejaVuSans-2212" d="M 678 2272 
L 4684 2272 
L 4684 1741 
L 678 1741 
L 678 2272 
z
" transform="scale(0.015625)"/>
       </defs>
       <use xlink:href="#DejaVuSans-2212"/>
       <use xlink:href="#DejaVuSans-31" x="83.789062"/>
       <use xlink:href="#DejaVuSans-2e" x="147.412109"/>
       <use xlink:href="#DejaVuSans-30" x="179.199219"/>
      </g>
     </g>
    </g>
    <g id="ytick_2">
     <g id="line2d_8">
      <g>
       <use xlink:href="#m3cfd4489f1" x="53.782813" y="189.64799" style="stroke: #000000; stroke-width: 0.8"/>
      </g>
     </g>
     <g id="text_9">
      <!-- −0.5 -->
      <g transform="translate(22.5 193.447209) scale(0.1 -0.1)">
       <use xlink:href="#DejaVuSans-2212"/>
       <use xlink:href="#DejaVuSans-30" x="83.789062"/>
       <use xlink:href="#DejaVuSans-2e" x="147.412109"/>
       <use xlink:href="#DejaVuSans-35" x="179.199219"/>
      </g>
     </g>
    </g>
    <g id="ytick_3">
     <g id="line2d_9">
      <g>
       <use xlink:href="#m3cfd4489f1" x="53.782813" y="142.49911" style="stroke: #000000; stroke-width: 0.8"/>
      </g>
     </g>
     <g id="text_10">
      <!-- 0.0 -->
      <g transform="translate(30.879688 146.298329) scale(0.1 -0.1)">
       <use xlink:href="#DejaVuSans-30"/>
       <use xlink:href="#DejaVuSans-2e" x="63.623047"/>
       <use xlink:href="#DejaVuSans-30" x="95.410156"/>
      </g>
     </g>
    </g>
    <g id="ytick_4">
     <g id="line2d_10">
      <g>
       <use xlink:href="#m3cfd4489f1" x="53.782813" y="95.35023" style="stroke: #000000; stroke-width: 0.8"/>
      </g>
     </g>
     <g id="text_11">
      <!-- 0.5 -->
      <g transform="translate(30.879688 99.149449) scale(0.1 -0.1)">
       <use xlink:href="#DejaVuSans-30"/>
       <use xlink:href="#DejaVuSans-2e" x="63.623047"/>
       <use xlink:href="#DejaVuSans-35" x="95.410156"/>
      </g>
     </g>
    </g>
    <g id="ytick_5">
     <g id="line2d_11">
      <g>
       <use xlink:href="#m3cfd4489f1" x="53.782813" y="48.20135" style="stroke: #000000; stroke-width: 0.8"/>
      </g>
     </g>
     <g id="text_12">
      <!-- 1.0 -->
      <g transform="translate(30.879688 52.000569) scale(0.1 -0.1)">
       <use xlink:href="#DejaVuSans-31"/>
       <use xlink:href="#DejaVuSans-2e" x="63.623047"/>
       <use xlink:href="#DejaVuSans-30" x="95.410156"/>
      </g>
     </g>
    </g>
    <g id="text_13">
     <!-- $\hat{y}_{B}$ -->
     <g transform="translate(16.4 150.27) rotate(-90) scale(0.1 -0.1)">
      <defs>
       <path id="DejaVuSans-302" d="M -1831 5119 
L -1369 5119 
L -603 3944 
L -1038 3944 
L -1600 4709 
L -2163 3944 
L -2597 3944 
L -1831 5119 
z
M -1600 3584 
L -1600 3584 
z
" transform="scale(0.015625)"/>
       <path id="DejaVuSans-Oblique-79" d="M 1588 -325 
Q 1188 -997 936 -1164 
Q 684 -1331 294 -1331 
L -159 -1331 
L -63 -850 
L 269 -850 
Q 509 -850 678 -719 
Q 847 -588 1056 -206 
L 1234 128 
L 459 3500 
L 1069 3500 
L 1650 819 
L 3256 3500 
L 3859 3500 
L 1588 -325 
z
" transform="scale(0.015625)"/>
       <path id="DejaVuSans-Oblique-42" d="M 1081 4666 
L 2694 4666 
Q 3350 4666 3675 4422 
Q 4000 4178 4000 3688 
Q 4000 3238 3720 2911 
Q 3441 2584 2988 2516 
Q 3375 2428 3569 2181 
Q 3763 1934 3763 1522 
Q 3763 819 3242 409 
Q 2722 0 1819 0 
L 172 0 
L 1081 4666 
z
M 1234 2228 
L 903 519 
L 1919 519 
Q 2491 519 2800 781 
Q 3109 1044 3109 1522 
Q 3109 1891 2904 2059 
Q 2700 2228 2247 2228 
L 1234 2228 
z
M 1606 4147 
L 1331 2741 
L 2272 2741 
Q 2775 2741 3058 2959 
Q 3341 3178 3341 3566 
Q 3341 3869 3150 4008 
Q 2959 4147 2541 4147 
L 1606 4147 
z
" transform="scale(0.015625)"/>
      </defs>
      <use xlink:href="#DejaVuSans-302" transform="translate(62.373047 12.015625)"/>
      <use xlink:href="#DejaVuSans-Oblique-79" transform="translate(0 0.828125)"/>
      <use xlink:href="#DejaVuSans-Oblique-42" transform="translate(60.136719 -15.578125) scale(0.7)"/>
     </g>
    </g>
   </g>
   <g id="line2d_12">
    <path d="M 69.000994 142.49911 
L 70.830836 135.605839 
L 71.440783 134.86824 
L 72.05073 128.709444 
L 72.660677 124.002625 
L 73.270624 121.962162 
L 73.880572 114.57497 
L 74.490519 112.717775 
L 75.100466 106.736227 
L 75.710413 105.438767 
L 76.32036 109.173786 
L 76.930307 108.51092 
L 77.540255 110.600393 
L 78.150202 100.25694 
L 78.760149 96.922585 
L 79.370096 90.283196 
L 79.980043 85.159695 
L 80.58999 88.379137 
L 81.199938 85.981415 
L 81.809885 77.650987 
L 82.419832 83.822102 
L 83.029779 69.4687 
L 83.639726 72.584272 
L 84.249673 73.770546 
L 84.859621 76.070526 
L 85.469568 74.487163 
L 86.079515 77.158719 
L 87.299409 67.945743 
L 87.909356 68.487235 
L 88.519304 70.244042 
L 89.129251 62.62004 
L 89.739198 60.378809 
L 90.349145 62.150818 
L 90.959092 59.900066 
L 91.569039 60.406176 
L 92.178987 63.671497 
L 92.788934 63.780457 
L 93.398881 54.86253 
L 94.008828 58.607934 
L 94.618775 57.138657 
L 95.228723 58.199009 
L 95.83867 59.965086 
L 96.448617 54.128944 
L 97.058564 56.319778 
L 97.668511 53.633757 
L 98.278458 54.012565 
L 99.498353 62.60707 
L 100.1083 51.193339 
L 100.718247 54.784409 
L 101.328194 57.391264 
L 101.938141 52.259304 
L 102.548089 56.916034 
L 103.158036 50.872049 
L 103.767983 49.72174 
L 104.37793 54.772449 
L 105.597824 60.117025 
L 106.207772 50.496431 
L 106.817719 45.883636 
L 107.427666 48.244128 
L 108.037613 51.117555 
L 108.64756 57.647071 
L 109.257507 55.199685 
L 109.867455 57.755283 
L 110.477402 54.816826 
L 111.087349 49.382906 
L 112.307243 54.358309 
L 112.91719 52.223891 
L 113.527138 54.584287 
L 114.137085 54.937275 
L 114.747032 49.826997 
L 115.356979 57.182507 
L 115.966926 48.16455 
L 116.576873 49.155579 
L 117.186821 54.136729 
L 117.796768 53.237771 
L 118.406715 51.738969 
L 119.016662 49.201966 
L 119.626609 49.927401 
L 120.236556 47.54075 
L 120.846504 51.175765 
L 121.456451 53.167411 
L 122.066398 52.888689 
L 122.676345 50.695572 
L 123.286292 54.111223 
L 123.896239 54.838517 
L 124.506187 51.217133 
L 125.116134 55.277117 
L 125.726081 51.754389 
L 126.336028 52.457226 
L 126.945975 52.723548 
L 127.555922 61.266822 
L 128.16587 52.322077 
L 128.775817 51.079262 
L 129.385764 53.731742 
L 129.995711 49.690206 
L 130.605658 53.672779 
L 131.215605 58.42519 
L 131.825553 50.85799 
L 132.4355 53.119133 
L 133.045447 56.29923 
L 133.655394 54.824815 
L 134.265341 61.001538 
L 134.875288 68.757058 
L 135.485236 69.959616 
L 136.095183 70.066393 
L 136.70513 77.239377 
L 137.315077 79.615471 
L 137.925024 85.599641 
L 138.534971 88.88555 
L 139.144919 94.172919 
L 139.754866 101.165014 
L 140.364813 116.170193 
L 140.97476 116.672437 
L 141.584707 123.048217 
L 142.194654 124.899214 
L 142.804602 132.28774 
L 143.414549 133.259481 
L 144.024496 143.59142 
L 144.634443 151.41029 
L 145.24439 155.429841 
L 145.854337 165.952745 
L 146.464285 167.974857 
L 147.074232 165.550519 
L 147.684179 166.892054 
L 148.294126 176.907104 
L 148.904073 182.165363 
L 149.51402 184.15881 
L 150.123968 189.863062 
L 150.733915 190.005036 
L 151.953809 195.901739 
L 152.563756 195.891998 
L 153.173703 203.020056 
L 153.783651 206.892447 
L 154.393598 208.380797 
L 155.003545 213.041259 
L 155.613492 212.501452 
L 156.223439 208.628328 
L 156.833386 212.749831 
L 157.443334 213.777643 
L 158.053281 217.579555 
L 158.663228 214.941023 
L 159.273175 224.500557 
L 160.493069 220.323689 
L 161.103017 225.791981 
L 161.712964 221.90971 
L 162.322911 220.581732 
L 162.932858 222.575536 
L 163.542805 222.297909 
L 164.152752 227.370942 
L 164.7627 237.234718 
L 165.372647 232.145606 
L 165.982594 228.455947 
L 166.592541 223.45958 
L 167.202488 219.485872 
L 167.812435 223.60017 
L 168.422383 233.907777 
L 169.03233 234.854509 
L 169.642277 233.704947 
L 170.252224 227.063053 
L 170.862171 226.92314 
L 171.472118 230.771503 
L 172.082066 232.744517 
L 172.692013 229.363232 
L 173.911907 233.374527 
L 174.521854 231.150942 
L 175.131801 232.488349 
L 175.741749 232.295099 
L 176.351696 226.898783 
L 176.961643 232.779819 
L 177.57159 231.900412 
L 178.181537 231.592059 
L 178.791484 227.180812 
L 180.011379 239.718048 
L 180.621326 237.054361 
L 181.231273 231.982413 
L 181.84122 231.973562 
L 182.451167 225.743749 
L 183.061115 225.268461 
L 183.671062 234.478639 
L 184.281009 232.958128 
L 184.890956 239.614404 
L 185.500903 234.653381 
L 186.11085 228.485491 
L 186.720798 230.439318 
L 187.330745 235.581986 
L 187.940692 233.886942 
L 188.550639 233.658894 
L 189.160586 233.692342 
L 189.770533 229.365628 
L 190.380481 238.618116 
L 190.990428 237.582724 
L 191.600375 234.152855 
L 192.210322 229.749005 
L 192.820269 226.909812 
L 193.430216 233.030142 
L 194.040164 232.211746 
L 194.650111 240.957901 
L 195.260058 234.44265 
L 195.870005 233.413883 
L 196.479952 234.161062 
L 197.089899 228.392203 
L 197.699847 234.466346 
L 198.309794 235.996772 
L 198.919741 228.960063 
L 199.529688 235.128226 
L 200.139635 230.627216 
L 200.749582 228.512692 
L 201.969477 238.152858 
L 202.579424 235.057087 
L 203.189371 233.51284 
L 203.799318 229.027926 
L 204.409265 230.893156 
L 205.019213 234.031402 
L 205.62916 238.953085 
L 206.239107 235.607986 
L 207.459001 224.55866 
L 208.068948 234.936669 
L 208.678896 236.347896 
L 209.288843 235.985744 
L 209.89879 236.575571 
L 210.508737 230.866828 
L 211.118684 230.380345 
L 211.728631 227.893315 
L 212.338579 237.475893 
L 212.948526 232.857868 
L 213.558473 235.183744 
L 214.16842 229.512537 
L 214.778367 235.228179 
L 215.388314 234.195771 
L 215.998262 235.0683 
L 216.608209 232.220612 
L 217.828103 224.469066 
L 218.43805 238.147065 
L 219.047997 233.988388 
L 219.657945 238.161343 
L 220.267892 232.908642 
L 220.877839 229.243063 
L 221.487786 236.192947 
L 222.70768 229.116975 
L 223.317628 229.76161 
L 223.927575 227.853947 
L 224.537522 240.617177 
L 225.147469 241.241166 
L 225.757416 235.439936 
L 226.367363 231.815905 
L 226.977311 231.345846 
L 227.587258 224.173716 
L 228.197205 235.056413 
L 228.807152 233.418595 
L 229.417099 231.040761 
L 230.027046 235.084863 
L 230.636994 233.331056 
L 231.246941 238.815346 
L 231.856888 238.4091 
L 232.466835 231.438319 
L 233.076782 233.545131 
L 233.686729 226.016146 
L 234.296677 234.284678 
L 234.906624 228.331923 
L 235.516571 238.383728 
L 236.126518 238.393853 
L 236.736465 232.128829 
L 237.346412 232.029524 
L 237.95636 234.403597 
L 238.566307 227.755527 
L 239.176254 229.561794 
L 239.786201 235.986375 
L 240.396148 235.057995 
L 241.006095 234.714158 
L 241.616043 236.045038 
L 242.22599 231.021689 
L 242.835937 228.820981 
L 243.445884 238.170843 
L 244.055831 233.789816 
L 244.665778 234.522587 
L 245.275726 227.087593 
L 245.885673 231.130554 
L 246.49562 228.888859 
L 247.715514 238.445933 
L 248.325461 234.038727 
L 248.935409 226.959312 
L 249.545356 229.69797 
L 250.155303 237.163123 
L 250.76525 236.498609 
L 251.375197 228.836129 
L 251.985144 225.931452 
L 252.595092 235.020518 
L 253.205039 241.84085 
L 253.814986 234.780484 
L 254.424933 231.188862 
L 255.03488 231.441958 
L 255.644827 225.757184 
L 256.254775 233.697643 
L 256.864722 238.751086 
L 257.474669 236.567471 
L 258.694563 230.17086 
L 259.30451 229.873381 
L 259.914458 237.170297 
L 260.524405 234.704492 
L 261.134352 237.822532 
L 261.744299 228.751309 
L 262.354246 226.96714 
L 262.964193 235.719968 
L 263.574141 234.147068 
L 264.184088 234.962191 
L 264.794035 231.898891 
L 265.403982 234.82329 
L 266.013929 233.836865 
L 266.623876 235.462766 
L 267.233824 229.622893 
L 267.843771 232.225988 
L 269.063665 227.690062 
L 269.673612 234.788182 
L 270.283559 237.818456 
L 270.893507 235.06804 
L 271.503454 234.86468 
L 272.113401 233.115899 
L 272.723348 229.056182 
L 273.333295 228.891661 
L 273.943242 231.588037 
L 274.55319 229.759151 
L 275.163137 241.203178 
L 275.773084 232.803815 
L 276.383031 228.968133 
L 276.992978 232.660254 
L 277.602925 234.362552 
L 278.212873 232.026543 
L 278.82282 234.66733 
L 279.432767 228.353751 
L 280.042714 228.733588 
L 280.652661 239.519667 
L 281.262608 236.710753 
L 281.872556 231.103229 
L 282.482503 233.953015 
L 283.09245 232.282513 
L 283.702397 232.596856 
L 284.312344 236.025015 
L 284.922291 237.716856 
L 285.532239 228.655689 
L 286.142186 230.805891 
L 286.752133 228.871537 
L 287.36208 241.243107 
L 287.972027 236.778712 
L 289.801869 228.540861 
L 290.411816 230.728931 
L 291.021763 237.755943 
L 291.63171 233.941792 
L 292.241657 235.84096 
L 292.851605 228.590041 
L 293.461552 230.928591 
L 294.071499 239.956436 
L 294.681446 232.927509 
L 295.291393 232.646058 
L 295.90134 227.66276 
L 296.511288 228.108321 
L 297.121235 233.911142 
L 297.731182 243.423312 
L 298.951076 227.61174 
L 299.561023 222.661105 
L 300.170971 228.812829 
L 300.780918 243.556364 
L 301.390865 237.818218 
L 302.000812 235.243246 
L 302.610759 229.066462 
L 303.220706 227.9489 
L 304.440601 241.214331 
L 305.050548 237.203879 
L 305.660495 229.474284 
L 306.270442 227.417219 
L 306.880389 231.191899 
L 307.490337 234.119082 
L 308.100284 238.994949 
L 308.710231 237.129004 
L 309.320178 233.019969 
L 309.930125 227.726015 
L 310.540072 230.94541 
L 311.15002 231.980716 
L 311.759967 232.224795 
L 312.369914 231.341487 
L 312.979861 230.029518 
L 313.589808 232.301988 
L 314.199755 232.309965 
L 314.809703 235.89309 
L 315.41965 233.70532 
L 316.029597 225.025902 
L 316.639544 222.615784 
L 317.249491 214.991674 
L 317.859438 218.426966 
L 318.469386 213.238964 
L 319.079333 204.503894 
L 319.68928 204.875333 
L 320.299227 201.712566 
L 322.129069 184.65666 
L 322.739016 176.787635 
L 324.568857 161.875086 
L 325.178804 154.12178 
L 325.788752 150.179114 
L 326.398699 144.901411 
L 327.008646 142.419082 
L 327.618593 139.278484 
L 328.22854 132.905983 
L 328.838487 127.867699 
L 329.448435 118.281624 
L 330.058382 110.921899 
L 330.668329 105.625771 
L 331.278276 104.508088 
L 331.888223 104.235873 
L 332.49817 103.336258 
L 333.108118 103.114686 
L 333.718065 94.113468 
L 334.328012 88.414654 
L 334.937959 93.68313 
L 335.547906 88.739138 
L 336.157853 91.670187 
L 336.767801 85.731252 
L 337.377748 77.765697 
L 337.987695 77.661636 
L 338.597642 81.594612 
L 339.207589 83.450369 
L 339.817536 78.271404 
L 340.427484 70.306728 
L 341.037431 67.958234 
L 341.647378 62.590096 
L 342.257325 67.20325 
L 342.867272 67.738004 
L 343.477219 67.417252 
L 344.087167 58.745919 
L 344.697114 60.964048 
L 345.307061 57.822388 
L 345.917008 63.462381 
L 346.526955 66.795548 
L 347.136902 64.326218 
L 347.74685 55.806694 
L 348.356797 51.782508 
L 348.966744 52.487351 
L 349.576691 56.86493 
L 350.186638 58.971328 
L 350.796586 59.061674 
L 351.406533 56.288846 
L 352.01648 59.127769 
L 352.626427 54.99937 
L 353.236374 56.545808 
L 353.846321 57.157678 
L 354.456269 58.597872 
L 355.676163 47.708805 
L 356.28611 54.014721 
L 356.896057 50.710472 
L 357.506004 55.107944 
L 358.115952 56.655959 
L 358.725899 55.894337 
L 359.945793 52.816062 
L 360.55574 53.118928 
L 361.165687 51.534825 
L 361.775635 54.416078 
L 362.385582 51.744861 
L 362.995529 51.221546 
L 363.605476 54.443702 
L 364.215423 53.445696 
L 364.82537 53.160373 
L 365.435318 47.595947 
L 366.045265 54.252922 
L 366.655212 52.630094 
L 367.265159 58.27381 
L 367.875106 54.587966 
L 368.485053 58.486911 
L 369.095001 53.10562 
L 369.704948 49.89328 
L 370.314895 56.331635 
L 370.924842 55.976204 
L 371.534789 55.405669 
L 372.144736 55.641696 
L 372.754684 47.742284 
L 373.364631 52.635936 
L 373.364631 52.635936 
" clip-path="url(#p4509ce98a9)" style="fill: none; stroke: #1f77b4; stroke-width: 1.5; stroke-linecap: square"/>
   </g>
   <g id="patch_3">
    <path d="M 53.782813 253.44 
L 53.782813 36 
" style="fill: none; stroke: #000000; stroke-width: 0.8; stroke-linejoin: miter; stroke-linecap: square"/>
   </g>
   <g id="patch_4">
    <path d="M 388.582812 253.44 
L 388.582812 36 
" style="fill: none; stroke: #000000; stroke-width: 0.8; stroke-linejoin: miter; stroke-linecap: square"/>
   </g>
   <g id="patch_5">
    <path d="M 53.782813 253.44 
L 388.582812 253.44 
" style="fill: none; stroke: #000000; stroke-width: 0.8; stroke-linejoin: miter; stroke-linecap: square"/>
   </g>
   <g id="patch_6">
    <path d="M 53.782813 36 
L 388.582812 36 
" style="fill: none; stroke: #000000; stroke-width: 0.8; stroke-linejoin: miter; stroke-linecap: square"/>
   </g>
  </g>
  <g id="text_14">
   <!-- Decoded Output from Population $B$ computing $y(t)=1-2x(t)$ -->
   <g transform="translate(31.342813 16.32) scale(0.12 -0.12)">
    <defs>
     <path id="DejaVuSans-44" d="M 1259 4147 
L 1259 519 
L 2022 519 
Q 2988 519 3436 956 
Q 3884 1394 3884 2338 
Q 3884 3275 3436 3711 
Q 2988 4147 2022 4147 
L 1259 4147 
z
M 628 4666 
L 1925 4666 
Q 3281 4666 3915 4102 
Q 4550 3538 4550 2338 
Q 4550 1131 3912 565 
Q 3275 0 1925 0 
L 628 0 
L 628 4666 
z
" transform="scale(0.015625)"/>
     <path id="DejaVuSans-65" d="M 3597 1894 
L 3597 1613 
L 953 1613 
Q 991 1019 1311 708 
Q 1631 397 2203 397 
Q 2534 397 2845 478 
Q 3156 559 3463 722 
L 3463 178 
Q 3153 47 2828 -22 
Q 2503 -91 2169 -91 
Q 1331 -91 842 396 
Q 353 884 353 1716 
Q 353 2575 817 3079 
Q 1281 3584 2069 3584 
Q 2775 3584 3186 3129 
Q 3597 2675 3597 1894 
z
M 3022 2063 
Q 3016 2534 2758 2815 
Q 2500 3097 2075 3097 
Q 1594 3097 1305 2825 
Q 1016 2553 972 2059 
L 3022 2063 
z
" transform="scale(0.015625)"/>
     <path id="DejaVuSans-63" d="M 3122 3366 
L 3122 2828 
Q 2878 2963 2633 3030 
Q 2388 3097 2138 3097 
Q 1578 3097 1268 2742 
Q 959 2388 959 1747 
Q 959 1106 1268 751 
Q 1578 397 2138 397 
Q 2388 397 2633 464 
Q 2878 531 3122 666 
L 3122 134 
Q 2881 22 2623 -34 
Q 2366 -91 2075 -91 
Q 1284 -91 818 406 
Q 353 903 353 1747 
Q 353 2603 823 3093 
Q 1294 3584 2113 3584 
Q 2378 3584 2631 3529 
Q 2884 3475 3122 3366 
z
" transform="scale(0.015625)"/>
     <path id="DejaVuSans-6f" d="M 1959 3097 
Q 1497 3097 1228 2736 
Q 959 2375 959 1747 
Q 959 1119 1226 758 
Q 1494 397 1959 397 
Q 2419 397 2687 759 
Q 2956 1122 2956 1747 
Q 2956 2369 2687 2733 
Q 2419 3097 1959 3097 
z
M 1959 3584 
Q 2709 3584 3137 3096 
Q 3566 2609 3566 1747 
Q 3566 888 3137 398 
Q 2709 -91 1959 -91 
Q 1206 -91 779 398 
Q 353 888 353 1747 
Q 353 2609 779 3096 
Q 1206 3584 1959 3584 
z
" transform="scale(0.015625)"/>
     <path id="DejaVuSans-64" d="M 2906 2969 
L 2906 4863 
L 3481 4863 
L 3481 0 
L 2906 0 
L 2906 525 
Q 2725 213 2448 61 
Q 2172 -91 1784 -91 
Q 1150 -91 751 415 
Q 353 922 353 1747 
Q 353 2572 751 3078 
Q 1150 3584 1784 3584 
Q 2172 3584 2448 3432 
Q 2725 3281 2906 2969 
z
M 947 1747 
Q 947 1113 1208 752 
Q 1469 391 1925 391 
Q 2381 391 2643 752 
Q 2906 1113 2906 1747 
Q 2906 2381 2643 2742 
Q 2381 3103 1925 3103 
Q 1469 3103 1208 2742 
Q 947 2381 947 1747 
z
" transform="scale(0.015625)"/>
     <path id="DejaVuSans-20" transform="scale(0.015625)"/>
     <path id="DejaVuSans-4f" d="M 2522 4238 
Q 1834 4238 1429 3725 
Q 1025 3213 1025 2328 
Q 1025 1447 1429 934 
Q 1834 422 2522 422 
Q 3209 422 3611 934 
Q 4013 1447 4013 2328 
Q 4013 3213 3611 3725 
Q 3209 4238 2522 4238 
z
M 2522 4750 
Q 3503 4750 4090 4092 
Q 4678 3434 4678 2328 
Q 4678 1225 4090 567 
Q 3503 -91 2522 -91 
Q 1538 -91 948 565 
Q 359 1222 359 2328 
Q 359 3434 948 4092 
Q 1538 4750 2522 4750 
z
" transform="scale(0.015625)"/>
     <path id="DejaVuSans-75" d="M 544 1381 
L 544 3500 
L 1119 3500 
L 1119 1403 
Q 1119 906 1312 657 
Q 1506 409 1894 409 
Q 2359 409 2629 706 
Q 2900 1003 2900 1516 
L 2900 3500 
L 3475 3500 
L 3475 0 
L 2900 0 
L 2900 538 
Q 2691 219 2414 64 
Q 2138 -91 1772 -91 
Q 1169 -91 856 284 
Q 544 659 544 1381 
z
M 1991 3584 
L 1991 3584 
z
" transform="scale(0.015625)"/>
     <path id="DejaVuSans-74" d="M 1172 4494 
L 1172 3500 
L 2356 3500 
L 2356 3053 
L 1172 3053 
L 1172 1153 
Q 1172 725 1289 603 
Q 1406 481 1766 481 
L 2356 481 
L 2356 0 
L 1766 0 
Q 1100 0 847 248 
Q 594 497 594 1153 
L 594 3053 
L 172 3053 
L 172 3500 
L 594 3500 
L 594 4494 
L 1172 4494 
z
" transform="scale(0.015625)"/>
     <path id="DejaVuSans-70" d="M 1159 525 
L 1159 -1331 
L 581 -1331 
L 581 3500 
L 1159 3500 
L 1159 2969 
Q 1341 3281 1617 3432 
Q 1894 3584 2278 3584 
Q 2916 3584 3314 3078 
Q 3713 2572 3713 1747 
Q 3713 922 3314 415 
Q 2916 -91 2278 -91 
Q 1894 -91 1617 61 
Q 1341 213 1159 525 
z
M 3116 1747 
Q 3116 2381 2855 2742 
Q 2594 3103 2138 3103 
Q 1681 3103 1420 2742 
Q 1159 2381 1159 1747 
Q 1159 1113 1420 752 
Q 1681 391 2138 391 
Q 2594 391 2855 752 
Q 3116 1113 3116 1747 
z
" transform="scale(0.015625)"/>
     <path id="DejaVuSans-66" d="M 2375 4863 
L 2375 4384 
L 1825 4384 
Q 1516 4384 1395 4259 
Q 1275 4134 1275 3809 
L 1275 3500 
L 2222 3500 
L 2222 3053 
L 1275 3053 
L 1275 0 
L 697 0 
L 697 3053 
L 147 3053 
L 147 3500 
L 697 3500 
L 697 3744 
Q 697 4328 969 4595 
Q 1241 4863 1831 4863 
L 2375 4863 
z
" transform="scale(0.015625)"/>
     <path id="DejaVuSans-72" d="M 2631 2963 
Q 2534 3019 2420 3045 
Q 2306 3072 2169 3072 
Q 1681 3072 1420 2755 
Q 1159 2438 1159 1844 
L 1159 0 
L 581 0 
L 581 3500 
L 1159 3500 
L 1159 2956 
Q 1341 3275 1631 3429 
Q 1922 3584 2338 3584 
Q 2397 3584 2469 3576 
Q 2541 3569 2628 3553 
L 2631 2963 
z
" transform="scale(0.015625)"/>
     <path id="DejaVuSans-6d" d="M 3328 2828 
Q 3544 3216 3844 3400 
Q 4144 3584 4550 3584 
Q 5097 3584 5394 3201 
Q 5691 2819 5691 2113 
L 5691 0 
L 5113 0 
L 5113 2094 
Q 5113 2597 4934 2840 
Q 4756 3084 4391 3084 
Q 3944 3084 3684 2787 
Q 3425 2491 3425 1978 
L 3425 0 
L 2847 0 
L 2847 2094 
Q 2847 2600 2669 2842 
Q 2491 3084 2119 3084 
Q 1678 3084 1418 2786 
Q 1159 2488 1159 1978 
L 1159 0 
L 581 0 
L 581 3500 
L 1159 3500 
L 1159 2956 
Q 1356 3278 1631 3431 
Q 1906 3584 2284 3584 
Q 2666 3584 2933 3390 
Q 3200 3197 3328 2828 
z
" transform="scale(0.015625)"/>
     <path id="DejaVuSans-50" d="M 1259 4147 
L 1259 2394 
L 2053 2394 
Q 2494 2394 2734 2622 
Q 2975 2850 2975 3272 
Q 2975 3691 2734 3919 
Q 2494 4147 2053 4147 
L 1259 4147 
z
M 628 4666 
L 2053 4666 
Q 2838 4666 3239 4311 
Q 3641 3956 3641 3272 
Q 3641 2581 3239 2228 
Q 2838 1875 2053 1875 
L 1259 1875 
L 1259 0 
L 628 0 
L 628 4666 
z
" transform="scale(0.015625)"/>
     <path id="DejaVuSans-6c" d="M 603 4863 
L 1178 4863 
L 1178 0 
L 603 0 
L 603 4863 
z
" transform="scale(0.015625)"/>
     <path id="DejaVuSans-61" d="M 2194 1759 
Q 1497 1759 1228 1600 
Q 959 1441 959 1056 
Q 959 750 1161 570 
Q 1363 391 1709 391 
Q 2188 391 2477 730 
Q 2766 1069 2766 1631 
L 2766 1759 
L 2194 1759 
z
M 3341 1997 
L 3341 0 
L 2766 0 
L 2766 531 
Q 2569 213 2275 61 
Q 1981 -91 1556 -91 
Q 1019 -91 701 211 
Q 384 513 384 1019 
Q 384 1609 779 1909 
Q 1175 2209 1959 2209 
L 2766 2209 
L 2766 2266 
Q 2766 2663 2505 2880 
Q 2244 3097 1772 3097 
Q 1472 3097 1187 3025 
Q 903 2953 641 2809 
L 641 3341 
Q 956 3463 1253 3523 
Q 1550 3584 1831 3584 
Q 2591 3584 2966 3190 
Q 3341 2797 3341 1997 
z
" transform="scale(0.015625)"/>
     <path id="DejaVuSans-69" d="M 603 3500 
L 1178 3500 
L 1178 0 
L 603 0 
L 603 3500 
z
M 603 4863 
L 1178 4863 
L 1178 4134 
L 603 4134 
L 603 4863 
z
" transform="scale(0.015625)"/>
     <path id="DejaVuSans-6e" d="M 3513 2113 
L 3513 0 
L 2938 0 
L 2938 2094 
Q 2938 2591 2744 2837 
Q 2550 3084 2163 3084 
Q 1697 3084 1428 2787 
Q 1159 2491 1159 1978 
L 1159 0 
L 581 0 
L 581 3500 
L 1159 3500 
L 1159 2956 
Q 1366 3272 1645 3428 
Q 1925 3584 2291 3584 
Q 2894 3584 3203 3211 
Q 3513 2838 3513 2113 
z
" transform="scale(0.015625)"/>
     <path id="DejaVuSans-67" d="M 2906 1791 
Q 2906 2416 2648 2759 
Q 2391 3103 1925 3103 
Q 1463 3103 1205 2759 
Q 947 2416 947 1791 
Q 947 1169 1205 825 
Q 1463 481 1925 481 
Q 2391 481 2648 825 
Q 2906 1169 2906 1791 
z
M 3481 434 
Q 3481 -459 3084 -895 
Q 2688 -1331 1869 -1331 
Q 1566 -1331 1297 -1286 
Q 1028 -1241 775 -1147 
L 775 -588 
Q 1028 -725 1275 -790 
Q 1522 -856 1778 -856 
Q 2344 -856 2625 -561 
Q 2906 -266 2906 331 
L 2906 616 
Q 2728 306 2450 153 
Q 2172 0 1784 0 
Q 1141 0 747 490 
Q 353 981 353 1791 
Q 353 2603 747 3093 
Q 1141 3584 1784 3584 
Q 2172 3584 2450 3431 
Q 2728 3278 2906 2969 
L 2906 3500 
L 3481 3500 
L 3481 434 
z
" transform="scale(0.015625)"/>
     <path id="DejaVuSans-28" d="M 1984 4856 
Q 1566 4138 1362 3434 
Q 1159 2731 1159 2009 
Q 1159 1288 1364 580 
Q 1569 -128 1984 -844 
L 1484 -844 
Q 1016 -109 783 600 
Q 550 1309 550 2009 
Q 550 2706 781 3412 
Q 1013 4119 1484 4856 
L 1984 4856 
z
" transform="scale(0.015625)"/>
     <path id="DejaVuSans-29" d="M 513 4856 
L 1013 4856 
Q 1481 4119 1714 3412 
Q 1947 2706 1947 2009 
Q 1947 1309 1714 600 
Q 1481 -109 1013 -844 
L 513 -844 
Q 928 -128 1133 580 
Q 1338 1288 1338 2009 
Q 1338 2731 1133 3434 
Q 928 4138 513 4856 
z
" transform="scale(0.015625)"/>
     <path id="DejaVuSans-3d" d="M 678 2906 
L 4684 2906 
L 4684 2381 
L 678 2381 
L 678 2906 
z
M 678 1631 
L 4684 1631 
L 4684 1100 
L 678 1100 
L 678 1631 
z
" transform="scale(0.015625)"/>
     <path id="DejaVuSans-Oblique-78" d="M 3841 3500 
L 2234 1784 
L 3219 0 
L 2559 0 
L 1819 1388 
L 531 0 
L -166 0 
L 1556 1844 
L 641 3500 
L 1300 3500 
L 1972 2234 
L 3144 3500 
L 3841 3500 
z
" transform="scale(0.015625)"/>
    </defs>
    <use xlink:href="#DejaVuSans-44" transform="translate(0 0.015625)"/>
    <use xlink:href="#DejaVuSans-65" transform="translate(77.001953 0.015625)"/>
    <use xlink:href="#DejaVuSans-63" transform="translate(138.525391 0.015625)"/>
    <use xlink:href="#DejaVuSans-6f" transform="translate(193.505859 0.015625)"/>
    <use xlink:href="#DejaVuSans-64" transform="translate(254.6875 0.015625)"/>
    <use xlink:href="#DejaVuSans-65" transform="translate(318.164062 0.015625)"/>
    <use xlink:href="#DejaVuSans-64" transform="translate(379.6875 0.015625)"/>
    <use xlink:href="#DejaVuSans-20" transform="translate(443.164062 0.015625)"/>
    <use xlink:href="#DejaVuSans-4f" transform="translate(474.951172 0.015625)"/>
    <use xlink:href="#DejaVuSans-75" transform="translate(553.662109 0.015625)"/>
    <use xlink:href="#DejaVuSans-74" transform="translate(617.041016 0.015625)"/>
    <use xlink:href="#DejaVuSans-70" transform="translate(656.25 0.015625)"/>
    <use xlink:href="#DejaVuSans-75" transform="translate(719.726562 0.015625)"/>
    <use xlink:href="#DejaVuSans-74" transform="translate(783.105469 0.015625)"/>
    <use xlink:href="#DejaVuSans-20" transform="translate(822.314453 0.015625)"/>
    <use xlink:href="#DejaVuSans-66" transform="translate(854.101562 0.015625)"/>
    <use xlink:href="#DejaVuSans-72" transform="translate(889.306641 0.015625)"/>
    <use xlink:href="#DejaVuSans-6f" transform="translate(930.419922 0.015625)"/>
    <use xlink:href="#DejaVuSans-6d" transform="translate(991.601562 0.015625)"/>
    <use xlink:href="#DejaVuSans-20" transform="translate(1089.013672 0.015625)"/>
    <use xlink:href="#DejaVuSans-50" transform="translate(1120.800781 0.015625)"/>
    <use xlink:href="#DejaVuSans-6f" transform="translate(1181.103516 0.015625)"/>
    <use xlink:href="#DejaVuSans-70" transform="translate(1242.285156 0.015625)"/>
    <use xlink:href="#DejaVuSans-75" transform="translate(1305.761719 0.015625)"/>
    <use xlink:href="#DejaVuSans-6c" transform="translate(1369.140625 0.015625)"/>
    <use xlink:href="#DejaVuSans-61" transform="translate(1396.923828 0.015625)"/>
    <use xlink:href="#DejaVuSans-74" transform="translate(1458.203125 0.015625)"/>
    <use xlink:href="#DejaVuSans-69" transform="translate(1497.412109 0.015625)"/>
    <use xlink:href="#DejaVuSans-6f" transform="translate(1525.195312 0.015625)"/>
    <use xlink:href="#DejaVuSans-6e" transform="translate(1586.376953 0.015625)"/>
    <use xlink:href="#DejaVuSans-20" transform="translate(1649.755859 0.015625)"/>
    <use xlink:href="#DejaVuSans-Oblique-42" transform="translate(1681.542969 0.015625)"/>
    <use xlink:href="#DejaVuSans-20" transform="translate(1750.146484 0.015625)"/>
    <use xlink:href="#DejaVuSans-63" transform="translate(1781.933594 0.015625)"/>
    <use xlink:href="#DejaVuSans-6f" transform="translate(1836.914062 0.015625)"/>
    <use xlink:href="#DejaVuSans-6d" transform="translate(1898.095703 0.015625)"/>
    <use xlink:href="#DejaVuSans-70" transform="translate(1995.507812 0.015625)"/>
    <use xlink:href="#DejaVuSans-75" transform="translate(2058.984375 0.015625)"/>
    <use xlink:href="#DejaVuSans-74" transform="translate(2122.363281 0.015625)"/>
    <use xlink:href="#DejaVuSans-69" transform="translate(2161.572266 0.015625)"/>
    <use xlink:href="#DejaVuSans-6e" transform="translate(2189.355469 0.015625)"/>
    <use xlink:href="#DejaVuSans-67" transform="translate(2252.734375 0.015625)"/>
    <use xlink:href="#DejaVuSans-20" transform="translate(2316.210938 0.015625)"/>
    <use xlink:href="#DejaVuSans-Oblique-79" transform="translate(2347.998047 0.015625)"/>
    <use xlink:href="#DejaVuSans-28" transform="translate(2407.177734 0.015625)"/>
    <use xlink:href="#DejaVuSans-Oblique-74" transform="translate(2446.191406 0.015625)"/>
    <use xlink:href="#DejaVuSans-29" transform="translate(2485.400391 0.015625)"/>
    <use xlink:href="#DejaVuSans-3d" transform="translate(2543.896484 0.015625)"/>
    <use xlink:href="#DejaVuSans-31" transform="translate(2647.167969 0.015625)"/>
    <use xlink:href="#DejaVuSans-2212" transform="translate(2730.273438 0.015625)"/>
    <use xlink:href="#DejaVuSans-32" transform="translate(2833.544922 0.015625)"/>
    <use xlink:href="#DejaVuSans-Oblique-78" transform="translate(2897.167969 0.015625)"/>
    <use xlink:href="#DejaVuSans-28" transform="translate(2956.347656 0.015625)"/>
    <use xlink:href="#DejaVuSans-Oblique-74" transform="translate(2995.361328 0.015625)"/>
    <use xlink:href="#DejaVuSans-29" transform="translate(3034.570312 0.015625)"/>
   </g>
  </g>
 </g>
 <defs>
  <clipPath id="p4509ce98a9">
   <rect x="53.782813" y="36" width="334.8" height="217.44"/>
  </clipPath>
 </defs>
</svg>
