<?xml version="1.0" encoding="utf-8" standalone="no"?>
<!DOCTYPE svg PUBLIC "-//W3C//DTD SVG 1.1//EN"
  "http://www.w3.org/Graphics/SVG/1.1/DTD/svg11.dtd">
<svg xmlns:xlink="http://www.w3.org/1999/xlink" width="386.845313pt" height="277.318125pt" viewBox="0 0 386.845313 277.318125" xmlns="http://www.w3.org/2000/svg" version="1.1">
 <metadata>
  <rdf:RDF xmlns:dc="http://purl.org/dc/elements/1.1/" xmlns:cc="http://creativecommons.org/ns#" xmlns:rdf="http://www.w3.org/1999/02/22-rdf-syntax-ns#">
   <cc:Work>
    <dc:type rdf:resource="http://purl.org/dc/dcmitype/StillImage"/>
    <dc:date>2022-11-11T19:15:10.790752</dc:date>
    <dc:format>image/svg+xml</dc:format>
    <dc:creator>
     <cc:Agent>
      <dc:title>Matplotlib v3.6.0, https://matplotlib.org/</dc:title>
     </cc:Agent>
    </dc:creator>
   </cc:Work>
  </rdf:RDF>
 </metadata>
 <defs>
  <style type="text/css">*{stroke-linejoin: round; stroke-linecap: butt}</style>
 </defs>
 <g id="figure_1">
  <g id="patch_1">
   <path d="M 0 277.318125 
L 386.845313 277.318125 
L 386.845313 0 
L 0 0 
L 0 277.318125 
z
" style="fill: none"/>
  </g>
  <g id="axes_1">
   <g id="patch_2">
    <path d="M 44.845313 253.44 
L 379.645313 253.44 
L 379.645313 36 
L 44.845313 36 
z
" style="fill: #ffffff"/>
   </g>
   <g id="matplotlib.axis_1">
    <g id="xtick_1">
     <g id="line2d_1">
      <defs>
       <path id="me922465e46" d="M 0 0 
L 0 3.5 
" style="stroke: #000000; stroke-width: 0.8"/>
      </defs>
      <g>
       <use xlink:href="#me922465e46" x="59.698727" y="253.44" style="stroke: #000000; stroke-width: 0.8"/>
      </g>
     </g>
     <g id="text_1">
      <!-- −1.00 -->
      <g transform="translate(44.376071 268.038437) scale(0.1 -0.1)">
       <defs>
        <path id="DejaVuSans-2212" d="M 678 2272 
L 4684 2272 
L 4684 1741 
L 678 1741 
L 678 2272 
z
" transform="scale(0.015625)"/>
        <path id="DejaVuSans-31" d="M 794 531 
L 1825 531 
L 1825 4091 
L 703 3866 
L 703 4441 
L 1819 4666 
L 2450 4666 
L 2450 531 
L 3481 531 
L 3481 0 
L 794 0 
L 794 531 
z
" transform="scale(0.015625)"/>
        <path id="DejaVuSans-2e" d="M 684 794 
L 1344 794 
L 1344 0 
L 684 0 
L 684 794 
z
" transform="scale(0.015625)"/>
        <path id="DejaVuSans-30" d="M 2034 4250 
Q 1547 4250 1301 3770 
Q 1056 3291 1056 2328 
Q 1056 1369 1301 889 
Q 1547 409 2034 409 
Q 2525 409 2770 889 
Q 3016 1369 3016 2328 
Q 3016 3291 2770 3770 
Q 2525 4250 2034 4250 
z
M 2034 4750 
Q 2819 4750 3233 4129 
Q 3647 3509 3647 2328 
Q 3647 1150 3233 529 
Q 2819 -91 2034 -91 
Q 1250 -91 836 529 
Q 422 1150 422 2328 
Q 422 3509 836 4129 
Q 1250 4750 2034 4750 
z
" transform="scale(0.015625)"/>
       </defs>
       <use xlink:href="#DejaVuSans-2212"/>
       <use xlink:href="#DejaVuSans-31" x="83.789062"/>
       <use xlink:href="#DejaVuSans-2e" x="147.412109"/>
       <use xlink:href="#DejaVuSans-30" x="179.199219"/>
       <use xlink:href="#DejaVuSans-30" x="242.822266"/>
      </g>
     </g>
    </g>
    <g id="xtick_2">
     <g id="line2d_2">
      <g>
       <use xlink:href="#me922465e46" x="97.808299" y="253.44" style="stroke: #000000; stroke-width: 0.8"/>
      </g>
     </g>
     <g id="text_2">
      <!-- −0.75 -->
      <g transform="translate(82.485643 268.038437) scale(0.1 -0.1)">
       <defs>
        <path id="DejaVuSans-37" d="M 525 4666 
L 3525 4666 
L 3525 4397 
L 1831 0 
L 1172 0 
L 2766 4134 
L 525 4134 
L 525 4666 
z
" transform="scale(0.015625)"/>
        <path id="DejaVuSans-35" d="M 691 4666 
L 3169 4666 
L 3169 4134 
L 1269 4134 
L 1269 2991 
Q 1406 3038 1543 3061 
Q 1681 3084 1819 3084 
Q 2600 3084 3056 2656 
Q 3513 2228 3513 1497 
Q 3513 744 3044 326 
Q 2575 -91 1722 -91 
Q 1428 -91 1123 -41 
Q 819 9 494 109 
L 494 744 
Q 775 591 1075 516 
Q 1375 441 1709 441 
Q 2250 441 2565 725 
Q 2881 1009 2881 1497 
Q 2881 1984 2565 2268 
Q 2250 2553 1709 2553 
Q 1456 2553 1204 2497 
Q 953 2441 691 2322 
L 691 4666 
z
" transform="scale(0.015625)"/>
       </defs>
       <use xlink:href="#DejaVuSans-2212"/>
       <use xlink:href="#DejaVuSans-30" x="83.789062"/>
       <use xlink:href="#DejaVuSans-2e" x="147.412109"/>
       <use xlink:href="#DejaVuSans-37" x="179.199219"/>
       <use xlink:href="#DejaVuSans-35" x="242.822266"/>
      </g>
     </g>
    </g>
    <g id="xtick_3">
     <g id="line2d_3">
      <g>
       <use xlink:href="#me922465e46" x="135.917871" y="253.44" style="stroke: #000000; stroke-width: 0.8"/>
      </g>
     </g>
     <g id="text_3">
      <!-- −0.50 -->
      <g transform="translate(120.595215 268.038437) scale(0.1 -0.1)">
       <use xlink:href="#DejaVuSans-2212"/>
       <use xlink:href="#DejaVuSans-30" x="83.789062"/>
       <use xlink:href="#DejaVuSans-2e" x="147.412109"/>
       <use xlink:href="#DejaVuSans-35" x="179.199219"/>
       <use xlink:href="#DejaVuSans-30" x="242.822266"/>
      </g>
     </g>
    </g>
    <g id="xtick_4">
     <g id="line2d_4">
      <g>
       <use xlink:href="#me922465e46" x="174.027443" y="253.44" style="stroke: #000000; stroke-width: 0.8"/>
      </g>
     </g>
     <g id="text_4">
      <!-- −0.25 -->
      <g transform="translate(158.704787 268.038437) scale(0.1 -0.1)">
       <defs>
        <path id="DejaVuSans-32" d="M 1228 531 
L 3431 531 
L 3431 0 
L 469 0 
L 469 531 
Q 828 903 1448 1529 
Q 2069 2156 2228 2338 
Q 2531 2678 2651 2914 
Q 2772 3150 2772 3378 
Q 2772 3750 2511 3984 
Q 2250 4219 1831 4219 
Q 1534 4219 1204 4116 
Q 875 4013 500 3803 
L 500 4441 
Q 881 4594 1212 4672 
Q 1544 4750 1819 4750 
Q 2544 4750 2975 4387 
Q 3406 4025 3406 3419 
Q 3406 3131 3298 2873 
Q 3191 2616 2906 2266 
Q 2828 2175 2409 1742 
Q 1991 1309 1228 531 
z
" transform="scale(0.015625)"/>
       </defs>
       <use xlink:href="#DejaVuSans-2212"/>
       <use xlink:href="#DejaVuSans-30" x="83.789062"/>
       <use xlink:href="#DejaVuSans-2e" x="147.412109"/>
       <use xlink:href="#DejaVuSans-32" x="179.199219"/>
       <use xlink:href="#DejaVuSans-35" x="242.822266"/>
      </g>
     </g>
    </g>
    <g id="xtick_5">
     <g id="line2d_5">
      <g>
       <use xlink:href="#me922465e46" x="212.137015" y="253.44" style="stroke: #000000; stroke-width: 0.8"/>
      </g>
     </g>
     <g id="text_5">
      <!-- 0.00 -->
      <g transform="translate(201.004202 268.038437) scale(0.1 -0.1)">
       <use xlink:href="#DejaVuSans-30"/>
       <use xlink:href="#DejaVuSans-2e" x="63.623047"/>
       <use xlink:href="#DejaVuSans-30" x="95.410156"/>
       <use xlink:href="#DejaVuSans-30" x="159.033203"/>
      </g>
     </g>
    </g>
    <g id="xtick_6">
     <g id="line2d_6">
      <g>
       <use xlink:href="#me922465e46" x="250.246587" y="253.44" style="stroke: #000000; stroke-width: 0.8"/>
      </g>
     </g>
     <g id="text_6">
      <!-- 0.25 -->
      <g transform="translate(239.113774 268.038437) scale(0.1 -0.1)">
       <use xlink:href="#DejaVuSans-30"/>
       <use xlink:href="#DejaVuSans-2e" x="63.623047"/>
       <use xlink:href="#DejaVuSans-32" x="95.410156"/>
       <use xlink:href="#DejaVuSans-35" x="159.033203"/>
      </g>
     </g>
    </g>
    <g id="xtick_7">
     <g id="line2d_7">
      <g>
       <use xlink:href="#me922465e46" x="288.356159" y="253.44" style="stroke: #000000; stroke-width: 0.8"/>
      </g>
     </g>
     <g id="text_7">
      <!-- 0.50 -->
      <g transform="translate(277.223346 268.038437) scale(0.1 -0.1)">
       <use xlink:href="#DejaVuSans-30"/>
       <use xlink:href="#DejaVuSans-2e" x="63.623047"/>
       <use xlink:href="#DejaVuSans-35" x="95.410156"/>
       <use xlink:href="#DejaVuSans-30" x="159.033203"/>
      </g>
     </g>
    </g>
    <g id="xtick_8">
     <g id="line2d_8">
      <g>
       <use xlink:href="#me922465e46" x="326.465731" y="253.44" style="stroke: #000000; stroke-width: 0.8"/>
      </g>
     </g>
     <g id="text_8">
      <!-- 0.75 -->
      <g transform="translate(315.332918 268.038437) scale(0.1 -0.1)">
       <use xlink:href="#DejaVuSans-30"/>
       <use xlink:href="#DejaVuSans-2e" x="63.623047"/>
       <use xlink:href="#DejaVuSans-37" x="95.410156"/>
       <use xlink:href="#DejaVuSans-35" x="159.033203"/>
      </g>
     </g>
    </g>
    <g id="xtick_9">
     <g id="line2d_9">
      <g>
       <use xlink:href="#me922465e46" x="364.575302" y="253.44" style="stroke: #000000; stroke-width: 0.8"/>
      </g>
     </g>
     <g id="text_9">
      <!-- 1.00 -->
      <g transform="translate(353.44249 268.038437) scale(0.1 -0.1)">
       <use xlink:href="#DejaVuSans-31"/>
       <use xlink:href="#DejaVuSans-2e" x="63.623047"/>
       <use xlink:href="#DejaVuSans-30" x="95.410156"/>
       <use xlink:href="#DejaVuSans-30" x="159.033203"/>
      </g>
     </g>
    </g>
   </g>
   <g id="matplotlib.axis_2">
    <g id="ytick_1">
     <g id="line2d_10">
      <defs>
       <path id="mddc278bed1" d="M 0 0 
L -3.5 0 
" style="stroke: #000000; stroke-width: 0.8"/>
      </defs>
      <g>
       <use xlink:href="#mddc278bed1" x="44.845313" y="245.334045" style="stroke: #000000; stroke-width: 0.8"/>
      </g>
     </g>
     <g id="text_10">
      <!-- −1.00 -->
      <g transform="translate(7.2 249.133264) scale(0.1 -0.1)">
       <use xlink:href="#DejaVuSans-2212"/>
       <use xlink:href="#DejaVuSans-31" x="83.789062"/>
       <use xlink:href="#DejaVuSans-2e" x="147.412109"/>
       <use xlink:href="#DejaVuSans-30" x="179.199219"/>
       <use xlink:href="#DejaVuSans-30" x="242.822266"/>
      </g>
     </g>
    </g>
    <g id="ytick_2">
     <g id="line2d_11">
      <g>
       <use xlink:href="#mddc278bed1" x="44.845313" y="220.096472" style="stroke: #000000; stroke-width: 0.8"/>
      </g>
     </g>
     <g id="text_11">
      <!-- −0.75 -->
      <g transform="translate(7.2 223.895691) scale(0.1 -0.1)">
       <use xlink:href="#DejaVuSans-2212"/>
       <use xlink:href="#DejaVuSans-30" x="83.789062"/>
       <use xlink:href="#DejaVuSans-2e" x="147.412109"/>
       <use xlink:href="#DejaVuSans-37" x="179.199219"/>
       <use xlink:href="#DejaVuSans-35" x="242.822266"/>
      </g>
     </g>
    </g>
    <g id="ytick_3">
     <g id="line2d_12">
      <g>
       <use xlink:href="#mddc278bed1" x="44.845313" y="194.8589" style="stroke: #000000; stroke-width: 0.8"/>
      </g>
     </g>
     <g id="text_12">
      <!-- −0.50 -->
      <g transform="translate(7.2 198.658118) scale(0.1 -0.1)">
       <use xlink:href="#DejaVuSans-2212"/>
       <use xlink:href="#DejaVuSans-30" x="83.789062"/>
       <use xlink:href="#DejaVuSans-2e" x="147.412109"/>
       <use xlink:href="#DejaVuSans-35" x="179.199219"/>
       <use xlink:href="#DejaVuSans-30" x="242.822266"/>
      </g>
     </g>
    </g>
    <g id="ytick_4">
     <g id="line2d_13">
      <g>
       <use xlink:href="#mddc278bed1" x="44.845313" y="169.621327" style="stroke: #000000; stroke-width: 0.8"/>
      </g>
     </g>
     <g id="text_13">
      <!-- −0.25 -->
      <g transform="translate(7.2 173.420546) scale(0.1 -0.1)">
       <use xlink:href="#DejaVuSans-2212"/>
       <use xlink:href="#DejaVuSans-30" x="83.789062"/>
       <use xlink:href="#DejaVuSans-2e" x="147.412109"/>
       <use xlink:href="#DejaVuSans-32" x="179.199219"/>
       <use xlink:href="#DejaVuSans-35" x="242.822266"/>
      </g>
     </g>
    </g>
    <g id="ytick_5">
     <g id="line2d_14">
      <g>
       <use xlink:href="#mddc278bed1" x="44.845313" y="144.383754" style="stroke: #000000; stroke-width: 0.8"/>
      </g>
     </g>
     <g id="text_14">
      <!-- 0.00 -->
      <g transform="translate(15.579688 148.182973) scale(0.1 -0.1)">
       <use xlink:href="#DejaVuSans-30"/>
       <use xlink:href="#DejaVuSans-2e" x="63.623047"/>
       <use xlink:href="#DejaVuSans-30" x="95.410156"/>
       <use xlink:href="#DejaVuSans-30" x="159.033203"/>
      </g>
     </g>
    </g>
    <g id="ytick_6">
     <g id="line2d_15">
      <g>
       <use xlink:href="#mddc278bed1" x="44.845313" y="119.146181" style="stroke: #000000; stroke-width: 0.8"/>
      </g>
     </g>
     <g id="text_15">
      <!-- 0.25 -->
      <g transform="translate(15.579688 122.9454) scale(0.1 -0.1)">
       <use xlink:href="#DejaVuSans-30"/>
       <use xlink:href="#DejaVuSans-2e" x="63.623047"/>
       <use xlink:href="#DejaVuSans-32" x="95.410156"/>
       <use xlink:href="#DejaVuSans-35" x="159.033203"/>
      </g>
     </g>
    </g>
    <g id="ytick_7">
     <g id="line2d_16">
      <g>
       <use xlink:href="#mddc278bed1" x="44.845313" y="93.908609" style="stroke: #000000; stroke-width: 0.8"/>
      </g>
     </g>
     <g id="text_16">
      <!-- 0.50 -->
      <g transform="translate(15.579688 97.707828) scale(0.1 -0.1)">
       <use xlink:href="#DejaVuSans-30"/>
       <use xlink:href="#DejaVuSans-2e" x="63.623047"/>
       <use xlink:href="#DejaVuSans-35" x="95.410156"/>
       <use xlink:href="#DejaVuSans-30" x="159.033203"/>
      </g>
     </g>
    </g>
    <g id="ytick_8">
     <g id="line2d_17">
      <g>
       <use xlink:href="#mddc278bed1" x="44.845313" y="68.671036" style="stroke: #000000; stroke-width: 0.8"/>
      </g>
     </g>
     <g id="text_17">
      <!-- 0.75 -->
      <g transform="translate(15.579688 72.470255) scale(0.1 -0.1)">
       <use xlink:href="#DejaVuSans-30"/>
       <use xlink:href="#DejaVuSans-2e" x="63.623047"/>
       <use xlink:href="#DejaVuSans-37" x="95.410156"/>
       <use xlink:href="#DejaVuSans-35" x="159.033203"/>
      </g>
     </g>
    </g>
    <g id="ytick_9">
     <g id="line2d_18">
      <g>
       <use xlink:href="#mddc278bed1" x="44.845313" y="43.433463" style="stroke: #000000; stroke-width: 0.8"/>
      </g>
     </g>
     <g id="text_18">
      <!-- 1.00 -->
      <g transform="translate(15.579688 47.232682) scale(0.1 -0.1)">
       <use xlink:href="#DejaVuSans-31"/>
       <use xlink:href="#DejaVuSans-2e" x="63.623047"/>
       <use xlink:href="#DejaVuSans-30" x="95.410156"/>
       <use xlink:href="#DejaVuSans-30" x="159.033203"/>
      </g>
     </g>
    </g>
   </g>
   <g id="line2d_19">
    <path d="M 281.500702 98.405776 
L 270.118643 105.639755 
L 295.321774 89.468509 
L 216.460366 141.239869 
L 361.175114 47.087061 
L 329.874452 66.283589 
L 67.380532 239.995979 
L 335.565482 63.259643 
L 68.193536 239.566334 
L 132.014366 197.195204 
L 361.581616 46.942498 
L 195.835196 155.735013 
L 337.19149 61.828925 
L 71.445553 237.687784 
L 256.297572 115.27701 
L 171.44507 170.256818 
L 65.348022 241.066055 
L 348.573549 53.569348 
L 319.7119 73.516715 
L 109.250248 213.224542 
L 214.021354 142.596019 
L 292.069757 91.870645 
L 218.899379 139.880045 
L 290.443748 92.904483 
L 257.92358 113.734804 
L 66.97403 240.207699 
L 281.907204 98.142892 
L 119.819303 205.314667 
L 363.614126 46.218659 
L 80.388599 230.897122 
L 219.305881 139.521958 
L 107.217738 214.426146 
L 133.640374 195.987334 
L 144.209429 189.552447 
L 324.589925 69.699688 
L 118.193295 206.482808 
L 86.486131 226.739007 
L 147.461446 187.56085 
L 324.996427 69.428788 
L 315.646879 76.112351 
L 325.402929 69.161963 
L 226.622919 134.921008 
L 198.274208 153.970076 
L 136.079387 194.477052 
L 101.933211 217.53144 
L 77.136583 233.401051 
L 259.143087 112.744468 
L 263.208108 109.724332 
L 259.549589 112.306336 
L 110.469755 212.480519 
L 97.055185 220.546861 
L 344.91503 55.85958 
L 338.410996 60.886644 
L 118.599797 206.22621 
L 299.386795 87.01941 
L 186.89215 161.638194 
L 314.833874 76.565086 
L 185.672643 162.298661 
L 346.541038 54.746372 
L 166.973547 173.946179 
L 227.435923 134.376234 
L 301.825807 85.098031 
L 90.551152 224.517761 
L 95.429177 221.446179 
L 201.119723 151.659925 
L 69.819545 238.667295 
L 176.729597 167.415166 
L 322.150912 71.466845 
L 251.826049 118.434673 
L 237.598475 127.283971 
L 354.264578 50.464386 
L 261.988601 110.483739 
L 99.087696 219.376143 
L 70.632549 238.189927 
L 244.509011 123.006507 
L 253.045555 117.757897 
L 123.07132 202.929042 
L 64.535017 241.607607 
L 210.469271 144.608231 
L 302.232309 84.825376 
L 179.16861 166.089108 
L 162.502024 177.895526 
L 93.803169 222.325549 
L 269.712141 105.876455 
L 164.941036 175.635535 
L 206.810753 147.746397 
L 245.728517 122.168726 
L 353.858076 50.727455 
L 238.41148 126.818334 
L 115.34778 209.03085 
L 232.72045 130.562276 
L 293.289263 90.737723 
L 127.949345 199.819253 
L 181.20112 164.966864 
L 316.866385 75.431731 
L 157.217496 181.840905 
L 183.640133 163.579125 
L 76.73008 233.690522 
L 101.526709 217.734461 
L 70.226047 238.43138 
L 294.102267 90.230647 
L 120.632307 204.737405 
L 360.768612 47.23249 
L 222.151396 137.586704 
L 335.971984 62.914636 
L 294.508769 89.979369 
L 348.167047 53.799142 
L 339.630503 59.731824 
L 86.079629 226.950289 
L 60.876499 243.28618 
L 227.842425 134.132999 
L 117.38029 207.404134 
L 304.671322 83.267091 
L 171.038568 170.47609 
L 148.27445 187.123993 
L 75.917076 234.235499 
L 117.786793 206.7762 
L 292.476259 91.282001 
L 149.087454 186.685325 
L 224.99691 135.89089 
L 220.118885 138.96538 
L 196.6482 155.156336 
L 102.339713 217.327169 
L 184.046635 163.336458 
L 96.648683 220.774106 
L 172.258074 169.819391 
L 98.681194 219.616124 
L 334.345975 63.965443 
L 73.478064 236.276792 
L 297.354284 88.068451 
L 168.193053 172.791371 
L 193.802685 157.171677 
L 209.656267 145.360911 
L 207.217255 147.417376 
L 64.94152 241.432413 
L 103.559219 216.706402 
L 333.126469 64.577238 
L 154.371982 183.753954 
L 336.378486 62.633552 
L 359.955608 47.526371 
L 254.265061 117.084601 
L 213.208349 143.050728 
L 331.500461 65.415265 
L 260.362593 111.682547 
L 342.476017 57.653538 
L 231.500944 131.538769 
L 120.225805 205.019089 
L 179.575112 165.86618 
L 290.850251 92.65514 
L 302.638811 84.55749 
L 217.679872 140.561992 
L 150.306961 186.02255 
L 198.680711 153.661002 
L 341.663013 58.197473 
L 230.68794 132.099241 
L 133.233872 196.266553 
L 137.298893 193.876663 
L 142.176919 190.734259 
L 165.75404 174.93042 
L 147.054944 187.778871 
L 317.272887 75.19856 
L 84.45362 227.790704 
L 105.185227 215.603851 
L 229.468433 133.109552 
L 364.020629 46.014739 
L 153.152475 184.445833 
L 211.688778 143.908225 
L 114.128274 209.91304 
L 235.159463 128.763093 
L 262.801606 109.975651 
L 199.493715 152.867827 
L 75.510574 234.493866 
L 141.363914 191.154788 
L 307.923339 81.308838 
L 202.339229 150.806335 
L 140.957412 191.364636 
L 348.980051 53.342011 
L 233.533454 130.002884 
L 355.077582 50.052724 
L 204.778242 149.091202 
L 176.323095 167.634676 
L 192.989681 157.757158 
L 234.752961 129.149042 
L 359.142603 47.824782 
L 153.96548 183.9858 
L 264.021112 109.226671 
L 293.695765 90.48274 
L 85.266625 227.370718 
L 275.809673 102.250431 
L 178.355606 166.533127 
L 298.980293 87.227246 
L 313.207866 77.562554 
L 100.307202 218.619838 
L 119.412801 205.74173 
L 144.615931 189.293582 
L 272.557656 104.059476 
L 64.128515 241.781283 
L 147.867948 187.342599 
L 233.939956 129.725366 
L 323.370419 70.542551 
L 275.403171 102.47106 
L 150.713463 185.800103 
L 91.364156 223.641885 
L 273.37066 103.594047 
L 93.396667 222.543548 
L 205.591246 148.614784 
L 205.184744 148.853745 
L 312.801364 77.808872 
L 162.908526 177.585583 
L 91.770658 223.417976 
L 153.558977 184.21641 
L 102.746215 217.121603 
L 177.136099 167.195298 
L 357.923097 48.532978 
L 321.337908 72.37365 
L 151.119965 185.576805 
L 357.516595 48.72049 
L 362.39462 46.65527 
L 158.437003 180.853159 
L 312.394862 78.052204 
L 110.876257 212.227836 
L 238.817982 126.569891 
L 304.26482 83.519903 
L 175.916593 167.853866 
L 196.241698 155.446394 
L 298.167288 87.645775 
L 95.835679 221.223605 
L 323.776921 70.2558 
L 282.313706 97.882482 
L 318.492393 74.447673 
L 205.997748 148.373902 
L 354.67108 50.259254 
L 131.607864 197.464343 
L 178.762108 166.311406 
L 329.46795 66.50607 
L 192.583179 158.062418 
L 310.362351 79.548087 
L 123.884324 202.380397 
L 203.965238 149.695279 
L 341.256511 58.476151 
L 350.199557 52.673187 
L 288.81774 93.888948 
L 231.094442 131.809141 
L 182.014124 164.511311 
L 213.614851 142.823106 
L 300.606301 85.97069 
L 284.752719 96.356597 
L 160.063011 179.679102 
L 283.533213 97.112916 
L 164.534534 176.057989 
L 88.112139 225.881154 
L 250.606543 119.116679 
L 265.64712 108.249009 
L 240.44399 125.634453 
L 135.266383 194.872024 
L 60.469996 243.422078 
L 177.542601 166.975029 
L 180.388116 165.418196 
L 128.762349 199.253101 
L 332.313465 64.992799 
L 295.728276 89.080465 
L 215.647362 141.691258 
L 194.61569 156.596328 
L 306.29733 82.27564 
L 228.248927 133.885471 
L 135.672885 194.674998 
L 311.581858 78.73704 
L 210.062769 144.943658 
L 347.760545 54.031558 
L 116.160784 208.415007 
L 335.158979 63.564313 
L 236.378969 127.976088 
L 195.428694 156.0226 
L 134.453379 195.263632 
L 303.045314 84.2935 
L 152.339471 184.901309 
L 224.590408 136.117389 
L 92.990164 222.76129 
L 68.600038 239.347276 
L 190.957171 159.380015 
L 95.022675 221.667502 
L 308.736343 80.665305 
L 149.493956 186.465103 
L 136.892391 194.078011 
L 277.842183 101.16117 
L 328.248444 67.376052 
L 125.916835 200.962192 
L 215.24086 141.917076 
L 141.770417 190.944723 
L 208.030259 146.687338 
L 84.047118 228.241995 
L 282.720208 97.624188 
L 200.306719 152.256818 
L 130.388358 198.240357 
L 214.427856 142.369375 
L 346.134536 54.991237 
L 94.209671 222.107015 
L 104.778725 215.848222 
L 333.939473 64.167943 
L 338.817498 60.518097 
L 352.63857 51.379058 
L 327.43544 67.875817 
L 75.104072 234.744277 
L 203.152234 150.270977 
L 291.663255 92.144172 
L 97.461688 220.317706 
L 255.484568 115.913816 
L 145.835438 188.54429 
L 220.525387 138.700354 
L 330.280954 66.063363 
L 165.347538 175.32125 
L 253.858559 117.308761 
L 84.860122 227.580525 
L 301.012803 85.66508 
L 361.988118 46.798648 
L 248.16753 120.504141 
L 340.037005 59.394048 
L 242.476501 124.56862 
L 248.980534 120.037363 
L 221.338391 138.062421 
L 353.045072 51.165744 
L 352.232068 51.592273 
L 345.728034 55.239883 
L 308.329841 81.069973 
L 338.004494 61.192055 
L 274.590166 102.915759 
L 169.006057 172.022432 
L 158.030501 181.162689 
L 174.697087 168.509927 
L 292.882761 90.999286 
L 67.787034 239.782395 
L 332.719967 64.784196 
L 351.419063 52.020753 
L 98.274692 219.852683 
L 212.801847 143.278985 
L 140.55091 191.574474 
L 163.315028 177.26737 
L 241.256994 125.206861 
L 180.794618 165.192994 
L 329.061448 66.871227 
L 125.510332 201.187165 
L 134.859881 195.068211 
L 99.494198 219.131773 
L 327.028937 68.127854 
L 314.427372 76.792431 
L 346.94754 54.504968 
L 143.396425 190.098723 
L 355.890587 49.624611 
L 349.793055 52.894086 
L 261.582099 110.740728 
L 62.502507 242.47095 
L 124.697328 201.634297 
L 69.006541 239.124737 
L 124.290826 202.08182 
L 311.98836 78.45516 
L 241.663496 124.993751 
L 62.096005 242.648744 
L 230.281438 132.4815 
L 220.931889 138.429107 
L 79.169093 231.539837 
L 246.135019 121.902235 
L 314.02087 77.020712 
L 318.898895 74.238982 
L 218.086375 140.335355 
L 122.664818 203.312143 
L 145.022433 189.048799 
L 173.071078 169.382807 
L 105.998232 215.132049 
L 270.525145 105.39873 
L 87.705637 226.097971 
L 300.199799 86.476052 
L 296.54128 88.622368 
L 132.420868 196.913256 
L 320.931406 72.648082 
L 255.89107 115.586647 
L 303.451816 84.032828 
L 155.99799 182.813188 
L 249.793538 119.575141 
L 146.648442 187.996826 
L 82.42111 229.612126 
L 60.063494 243.556364 
L 61.283001 243.14861 
L 277.435681 101.37737 
L 114.941278 209.32963 
L 303.858318 83.775066 
L 99.9007 218.881175 
L 181.607622 164.739689 
L 113.721772 210.198751 
L 164.128032 176.404055 
L 260.769095 111.261271 
L 108.437244 213.710219 
L 289.224242 93.643769 
L 126.729839 200.508937 
L 309.549347 80.092561 
L 250.20004 119.345482 
L 239.224484 126.280087 
L 280.281196 99.215631 
L 340.850009 58.76006 
L 264.834116 108.735097 
L 317.679389 74.866691 
L 197.867706 154.272274 
L 217.27337 140.7882 
L 96.242181 220.999632 
L 257.110576 114.411308 
L 347.354042 54.266769 
L 343.289021 57.124054 
L 182.420627 164.281514 
L 188.518158 160.746238 
L 258.736585 113.077444 
L 190.550669 159.61034 
L 63.722013 241.953804 
L 257.517078 114.068378 
L 179.981614 165.642565 
L 249.387036 119.805738 
L 208.843263 145.959507 
L 207.623757 147.10739 
L 247.761028 120.739566 
L 115.754282 208.726365 
L 204.37174 149.327473 
L 344.102026 56.457731 
L 121.851814 203.900095 
L 266.460124 107.76783 
L 146.24194 188.214937 
L 139.331404 192.443259 
L 159.250007 180.26261 
L 152.745973 184.674117 
L 273.777162 103.366081 
L 73.071562 236.581867 
L 155.184986 183.286355 
L 101.120206 217.936278 
L 345.321532 55.492736 
L 173.884082 168.946473 
L 307.516837 81.548697 
L 287.598234 94.624334 
L 290.037246 93.15193 
L 140.144408 191.940921 
L 184.859639 162.735332 
L 353.451574 50.950918 
L 225.403412 135.661187 
L 269.305639 106.111813 
L 216.866868 141.014119 
L 112.095763 211.312626 
L 333.532971 64.371847 
L 116.973788 207.761742 
L 327.841942 67.625477 
L 92.583662 222.979159 
L 331.093958 65.629292 
L 281.0942 98.671633 
L 72.258557 237.154634 
L 129.168851 198.996918 
L 185.266141 162.517344 
L 235.565965 128.505802 
L 288.004736 94.379058 
L 112.502265 211.037391 
L 279.874694 99.497051 
L 90.14465 224.757704 
L 108.843746 213.468323 
L 74.291068 235.616001 
L 279.06169 100.110873 
L 155.591488 183.050495 
L 351.825566 51.806038 
L 168.599555 172.430613 
L 280.687698 98.941194 
L 78.356089 232.435114 
L 210.875774 144.373268 
L 237.191973 127.514573 
L 325.809431 68.898811 
L 228.655429 133.526066 
L 324.183423 69.975148 
L 169.819061 171.468448 
L 160.469513 179.386868 
L 184.453137 163.077741 
L 287.191732 94.869941 
L 246.541522 121.635995 
L 85.673127 227.160764 
L 111.689261 211.587479 
L 356.297089 49.260597 
L 183.233631 163.816177 
L 322.557414 71.141865 
L 242.883003 124.356475 
L 316.053381 75.886342 
L 216.053864 141.465551 
L 209.249765 145.662901 
L 364.427131 45.883636 
L 279.468192 99.79008 
L 161.689019 178.500644 
L 175.103589 168.291449 
L 190.144166 159.839564 
L 71.039051 237.9423 
L 229.874935 132.902103 
L 107.62424 214.188957 
L 208.436761 146.264894 
L 69.413043 238.89824 
L 81.608106 230.117546 
L 86.892633 226.526674 
L 274.996669 102.692796 
L 326.215933 68.638972 
L 244.102509 123.384426 
L 221.744893 137.825128 
L 251.013045 118.888655 
L 175.510091 168.072777 
L 143.802927 189.884811 
L 125.10383 201.411167 
L 79.982097 231.114795 
L 186.485648 161.859113 
L 283.126711 97.367738 
L 71.852055 237.425551 
L 193.396183 157.462175 
L 200.713221 151.909215 
L 344.508528 56.1628 
L 285.159221 96.10677 
L 243.289505 123.919706 
L 94.616173 221.887727 
L 322.963916 70.836894 
L 122.258316 203.613827 
L 363.207624 46.367659 
L 246.948024 121.36601 
L 357.110093 48.902171 
L 103.965721 216.383911 
L 315.240377 76.338477 
L 239.630986 126.064237 
L 243.696007 123.644662 
L 171.851572 170.037955 
L 158.843505 180.555933 
L 359.549105 47.674978 
L 274.183664 103.140109 
L 188.92466 160.521031 
L 301.419305 85.376941 
L 186.079145 162.07926 
L 173.47758 169.16464 
L 151.932969 185.127456 
L 127.136341 200.280456 
L 142.583421 190.523226 
L 358.329599 48.235617 
L 225.809914 135.418225 
L 214.834358 142.143088 
L 203.558736 149.994728 
L 177.949103 166.75432 
L 309.142845 80.371986 
L 254.671564 116.724172 
L 248.574032 120.270123 
L 61.689503 242.843733 
L 276.622677 101.812142 
L 305.077824 83.016426 
L 88.518641 225.66235 
L 291.256753 92.402623 
L 264.427614 108.980161 
L 288.411238 94.133981 
L 199.087213 153.338872 
L 188.111656 160.970527 
L 88.925143 225.441225 
L 191.363673 159.148548 
L 251.419547 118.661342 
L 266.053622 108.007843 
L 160.876015 179.093422 
L 305.890828 82.520851 
L 351.012561 52.236704 
L 92.17716 223.197729 
L 166.567045 174.285368 
L 330.687456 65.845295 
L 189.331162 160.294873 
L 73.884566 235.956167 
L 229.061931 133.317444 
L 201.526225 151.3393 
L 74.69757 235.246733 
L 106.404734 214.897329 
L 278.248685 100.945704 
L 110.063253 212.730775 
L 156.404492 182.574375 
L 240.850492 125.42041 
L 151.526467 185.352606 
L 298.57379 87.436019 
L 263.61461 109.474701 
L 235.972467 128.207782 
L 328.654946 67.126054 
L 197.054702 154.864381 
L 211.282276 144.140038 
L 247.354526 121.062109 
L 89.331646 225.217316 
L 129.575353 198.745028 
L 362.801122 46.511933 
L 197.461204 154.569958 
L 342.882519 57.387261 
L 252.639053 117.983014 
L 219.712383 139.232838 
L 265.240618 108.491403 
L 212.09528 143.67759 
L 222.9644 137.080867 
L 319.305398 73.871209 
L 331.906963 65.203128 
L 105.59173 215.36705 
L 182.827129 164.049978 
L 78.762591 232.058272 
L 349.386553 53.116975 
L 103.152717 216.914697 
L 136.485889 194.278094 
L 306.703832 82.031965 
L 326.622435 68.382105 
L 320.524904 72.923735 
L 169.412559 171.747506 
L 258.330082 113.405677 
L 296.947782 88.387923 
L 63.315511 242.125663 
L 121.038809 204.459129 
L 223.370902 136.790132 
L 65.754524 240.842625 
L 261.175597 110.999854 
L 201.932727 151.071365 
L 218.492877 140.108116 
L 104.372223 216.153924 
L 113.315269 210.481071 
L 313.614368 77.250095 
L 360.36211 47.378898 
L 167.786551 173.207017 
L 174.290585 168.728252 
L 242.069998 124.781024 
L 271.33815 104.85094 
L 294.915272 89.726763 
L 270.931648 105.070777 
L 149.900459 186.244198 
L 192.176677 158.488094 
L 343.695524 56.769099 
L 167.380049 173.499959 
L 187.705154 161.19393 
L 119.006299 205.983298 
L 336.784988 62.177143 
L 81.201604 230.450163 
L 318.085891 74.656862 
L 271.744652 104.632022 
L 285.565723 95.857896 
L 106.811236 214.662171 
L 195.022192 156.309558 
L 142.989923 190.311446 
L 161.282517 178.798206 
L 132.82737 196.530437 
L 66.567528 240.418357 
L 356.703591 49.081742 
L 212.395345 143.507991 
L 256.704074 114.778861 
L 129.981856 198.493319 
L 82.827612 229.19282 
L 77.543085 233.097634 
L 87.299135 226.313067 
L 138.111898 193.168981 
L 272.964158 103.824677 
L 286.78523 95.115996 
L 80.795101 230.67568 
L 259.956091 112.000409 
L 72.665059 236.873878 
L 226.216417 135.13997 
L 255.078066 116.459666 
L 83.640616 228.563563 
L 109.656751 212.978738 
L 321.74441 72.090559 
L 159.656509 179.970747 
L 309.955849 79.818824 
L 154.778484 183.520823 
L 123.477822 202.658807 
L 277.029179 101.594344 
L 79.575595 231.328958 
L 355.484084 49.842912 
L 90.957654 224.043608 
L 350.606059 52.454118 
L 234.346459 129.444532 
L 286.378727 95.362607 
L 148.680952 186.904931 
L 283.939715 96.859548 
L 268.086133 106.817638 
L 316.459883 75.659861 
L 108.030742 213.950376 
L 245.322015 122.437934 
L 121.445311 204.180817 
L 83.234114 228.87154 
L 305.484326 82.767731 
L 97.86819 220.086411 
L 268.492635 106.582014 
L 334.752477 63.764263 
L 310.768853 79.278736 
L 114.534776 209.623496 
L 156.810994 182.25425 
L 127.542843 200.050599 
L 77.949587 232.777308 
L 311.175356 79.009207 
L 266.866627 107.528894 
L 170.225564 171.178665 
L 252.232551 118.208585 
L 139.737906 192.19918 
L 222.557898 137.344652 
L 187.298652 161.416475 
L 231.907446 131.276037 
L 191.770175 158.780676 
L 172.664576 169.601035 
L 145.428935 188.803683 
L 320.118402 73.206491 
L 194.209187 156.883453 
L 223.777404 136.566452 
L 272.151154 104.303877 
L 128.355847 199.586292 
L 342.069515 57.92344 
L 163.72153 176.932836 
L 189.737664 160.067729 
L 111.282759 211.86595 
L 240.037488 125.849044 
L 262.395103 110.228752 
L 285.972225 95.609874 
L 66.161026 240.629192 
L 233.126952 130.280832 
L 100.713704 218.326165 
L 339.224 60.062081 
L 112.908767 210.760446 
L 337.597992 61.504646 
L 170.632066 170.82069 
L 126.323337 200.736149 
L 236.785471 127.745127 
L 76.323578 233.968141 
L 267.679631 107.053902 
L 358.736101 48.067211 
L 157.623998 181.548158 
L 162.095522 178.200058 
L 134.046877 195.633276 
L 253.452057 117.533168 
L 244.915513 122.713261 
L 244.915513 122.713261 
" clip-path="url(#pb5cc1077a7)" style="fill: none; stroke: #1f77b4; stroke-width: 1.5; stroke-linecap: square"/>
   </g>
   <g id="patch_3">
    <path d="M 44.845313 253.44 
L 44.845313 36 
" style="fill: none; stroke: #000000; stroke-width: 0.8; stroke-linejoin: miter; stroke-linecap: square"/>
   </g>
   <g id="patch_4">
    <path d="M 379.645313 253.44 
L 379.645313 36 
" style="fill: none; stroke: #000000; stroke-width: 0.8; stroke-linejoin: miter; stroke-linecap: square"/>
   </g>
   <g id="patch_5">
    <path d="M 44.845313 253.44 
L 379.645313 253.44 
" style="fill: none; stroke: #000000; stroke-width: 0.8; stroke-linejoin: miter; stroke-linecap: square"/>
   </g>
   <g id="patch_6">
    <path d="M 44.845313 36 
L 379.645313 36 
" style="fill: none; stroke: #000000; stroke-width: 0.8; stroke-linejoin: miter; stroke-linecap: square"/>
   </g>
  </g>
  <g id="text_19">
   <!-- $x$ and $\hat{x}$ for $\tau_{ref}$: 0.004 -->
   <g transform="translate(141.865313 17.904375) scale(0.12 -0.12)">
    <defs>
     <path id="DejaVuSans-Oblique-78" d="M 3841 3500 
L 2234 1784 
L 3219 0 
L 2559 0 
L 1819 1388 
L 531 0 
L -166 0 
L 1556 1844 
L 641 3500 
L 1300 3500 
L 1972 2234 
L 3144 3500 
L 3841 3500 
z
" transform="scale(0.015625)"/>
     <path id="DejaVuSans-20" transform="scale(0.015625)"/>
     <path id="DejaVuSans-61" d="M 2194 1759 
Q 1497 1759 1228 1600 
Q 959 1441 959 1056 
Q 959 750 1161 570 
Q 1363 391 1709 391 
Q 2188 391 2477 730 
Q 2766 1069 2766 1631 
L 2766 1759 
L 2194 1759 
z
M 3341 1997 
L 3341 0 
L 2766 0 
L 2766 531 
Q 2569 213 2275 61 
Q 1981 -91 1556 -91 
Q 1019 -91 701 211 
Q 384 513 384 1019 
Q 384 1609 779 1909 
Q 1175 2209 1959 2209 
L 2766 2209 
L 2766 2266 
Q 2766 2663 2505 2880 
Q 2244 3097 1772 3097 
Q 1472 3097 1187 3025 
Q 903 2953 641 2809 
L 641 3341 
Q 956 3463 1253 3523 
Q 1550 3584 1831 3584 
Q 2591 3584 2966 3190 
Q 3341 2797 3341 1997 
z
" transform="scale(0.015625)"/>
     <path id="DejaVuSans-6e" d="M 3513 2113 
L 3513 0 
L 2938 0 
L 2938 2094 
Q 2938 2591 2744 2837 
Q 2550 3084 2163 3084 
Q 1697 3084 1428 2787 
Q 1159 2491 1159 1978 
L 1159 0 
L 581 0 
L 581 3500 
L 1159 3500 
L 1159 2956 
Q 1366 3272 1645 3428 
Q 1925 3584 2291 3584 
Q 2894 3584 3203 3211 
Q 3513 2838 3513 2113 
z
" transform="scale(0.015625)"/>
     <path id="DejaVuSans-64" d="M 2906 2969 
L 2906 4863 
L 3481 4863 
L 3481 0 
L 2906 0 
L 2906 525 
Q 2725 213 2448 61 
Q 2172 -91 1784 -91 
Q 1150 -91 751 415 
Q 353 922 353 1747 
Q 353 2572 751 3078 
Q 1150 3584 1784 3584 
Q 2172 3584 2448 3432 
Q 2725 3281 2906 2969 
z
M 947 1747 
Q 947 1113 1208 752 
Q 1469 391 1925 391 
Q 2381 391 2643 752 
Q 2906 1113 2906 1747 
Q 2906 2381 2643 2742 
Q 2381 3103 1925 3103 
Q 1469 3103 1208 2742 
Q 947 2381 947 1747 
z
" transform="scale(0.015625)"/>
     <path id="DejaVuSans-302" d="M -1831 5119 
L -1369 5119 
L -603 3944 
L -1038 3944 
L -1600 4709 
L -2163 3944 
L -2597 3944 
L -1831 5119 
z
M -1600 3584 
L -1600 3584 
z
" transform="scale(0.015625)"/>
     <path id="DejaVuSans-66" d="M 2375 4863 
L 2375 4384 
L 1825 4384 
Q 1516 4384 1395 4259 
Q 1275 4134 1275 3809 
L 1275 3500 
L 2222 3500 
L 2222 3053 
L 1275 3053 
L 1275 0 
L 697 0 
L 697 3053 
L 147 3053 
L 147 3500 
L 697 3500 
L 697 3744 
Q 697 4328 969 4595 
Q 1241 4863 1831 4863 
L 2375 4863 
z
" transform="scale(0.015625)"/>
     <path id="DejaVuSans-6f" d="M 1959 3097 
Q 1497 3097 1228 2736 
Q 959 2375 959 1747 
Q 959 1119 1226 758 
Q 1494 397 1959 397 
Q 2419 397 2687 759 
Q 2956 1122 2956 1747 
Q 2956 2369 2687 2733 
Q 2419 3097 1959 3097 
z
M 1959 3584 
Q 2709 3584 3137 3096 
Q 3566 2609 3566 1747 
Q 3566 888 3137 398 
Q 2709 -91 1959 -91 
Q 1206 -91 779 398 
Q 353 888 353 1747 
Q 353 2609 779 3096 
Q 1206 3584 1959 3584 
z
" transform="scale(0.015625)"/>
     <path id="DejaVuSans-72" d="M 2631 2963 
Q 2534 3019 2420 3045 
Q 2306 3072 2169 3072 
Q 1681 3072 1420 2755 
Q 1159 2438 1159 1844 
L 1159 0 
L 581 0 
L 581 3500 
L 1159 3500 
L 1159 2956 
Q 1341 3275 1631 3429 
Q 1922 3584 2338 3584 
Q 2397 3584 2469 3576 
Q 2541 3569 2628 3553 
L 2631 2963 
z
" transform="scale(0.015625)"/>
     <path id="DejaVuSans-Oblique-3c4" d="M 2103 638 
Q 2188 488 2525 488 
L 2800 488 
L 2706 0 
L 2363 0 
Q 1800 0 1600 300 
Q 1403 606 1534 1269 
L 1856 2925 
L 541 2925 
L 653 3500 
L 3881 3500 
L 3769 2925 
L 2444 2925 
L 2113 1234 
Q 2025 781 2103 638 
z
" transform="scale(0.015625)"/>
     <path id="DejaVuSans-Oblique-72" d="M 2853 2969 
Q 2766 3016 2653 3041 
Q 2541 3066 2413 3066 
Q 1953 3066 1609 2717 
Q 1266 2369 1153 1784 
L 800 0 
L 225 0 
L 909 3500 
L 1484 3500 
L 1375 2956 
Q 1603 3259 1920 3421 
Q 2238 3584 2597 3584 
Q 2691 3584 2781 3573 
Q 2872 3563 2963 3538 
L 2853 2969 
z
" transform="scale(0.015625)"/>
     <path id="DejaVuSans-Oblique-65" d="M 3078 2063 
Q 3088 2113 3092 2166 
Q 3097 2219 3097 2272 
Q 3097 2653 2873 2875 
Q 2650 3097 2266 3097 
Q 1838 3097 1509 2826 
Q 1181 2556 1013 2059 
L 3078 2063 
z
M 3578 1613 
L 903 1613 
Q 884 1494 878 1425 
Q 872 1356 872 1306 
Q 872 872 1139 634 
Q 1406 397 1894 397 
Q 2269 397 2603 481 
Q 2938 566 3225 728 
L 3116 159 
Q 2806 34 2476 -28 
Q 2147 -91 1806 -91 
Q 1078 -91 686 257 
Q 294 606 294 1247 
Q 294 1794 489 2264 
Q 684 2734 1063 3103 
Q 1306 3334 1642 3459 
Q 1978 3584 2356 3584 
Q 2950 3584 3301 3228 
Q 3653 2872 3653 2272 
Q 3653 2128 3634 1964 
Q 3616 1800 3578 1613 
z
" transform="scale(0.015625)"/>
     <path id="DejaVuSans-Oblique-66" d="M 3059 4863 
L 2969 4384 
L 2419 4384 
Q 2106 4384 1964 4261 
Q 1822 4138 1753 3809 
L 1691 3500 
L 2638 3500 
L 2553 3053 
L 1606 3053 
L 1013 0 
L 434 0 
L 1031 3053 
L 481 3053 
L 563 3500 
L 1113 3500 
L 1159 3744 
Q 1278 4363 1576 4613 
Q 1875 4863 2516 4863 
L 3059 4863 
z
" transform="scale(0.015625)"/>
     <path id="DejaVuSans-3a" d="M 750 794 
L 1409 794 
L 1409 0 
L 750 0 
L 750 794 
z
M 750 3309 
L 1409 3309 
L 1409 2516 
L 750 2516 
L 750 3309 
z
" transform="scale(0.015625)"/>
     <path id="DejaVuSans-34" d="M 2419 4116 
L 825 1625 
L 2419 1625 
L 2419 4116 
z
M 2253 4666 
L 3047 4666 
L 3047 1625 
L 3713 1625 
L 3713 1100 
L 3047 1100 
L 3047 0 
L 2419 0 
L 2419 1100 
L 313 1100 
L 313 1709 
L 2253 4666 
z
" transform="scale(0.015625)"/>
    </defs>
    <use xlink:href="#DejaVuSans-Oblique-78" transform="translate(0 0.828125)"/>
    <use xlink:href="#DejaVuSans-20" transform="translate(59.179688 0.828125)"/>
    <use xlink:href="#DejaVuSans-61" transform="translate(90.966797 0.828125)"/>
    <use xlink:href="#DejaVuSans-6e" transform="translate(152.246094 0.828125)"/>
    <use xlink:href="#DejaVuSans-64" transform="translate(215.625 0.828125)"/>
    <use xlink:href="#DejaVuSans-20" transform="translate(279.101562 0.828125)"/>
    <use xlink:href="#DejaVuSans-302" transform="translate(373.261719 12.015625)"/>
    <use xlink:href="#DejaVuSans-Oblique-78" transform="translate(310.888672 0.828125)"/>
    <use xlink:href="#DejaVuSans-20" transform="translate(370.068359 0.828125)"/>
    <use xlink:href="#DejaVuSans-66" transform="translate(401.855469 0.828125)"/>
    <use xlink:href="#DejaVuSans-6f" transform="translate(437.060547 0.828125)"/>
    <use xlink:href="#DejaVuSans-72" transform="translate(498.242188 0.828125)"/>
    <use xlink:href="#DejaVuSans-20" transform="translate(539.355469 0.828125)"/>
    <use xlink:href="#DejaVuSans-Oblique-3c4" transform="translate(571.142578 0.828125)"/>
    <use xlink:href="#DejaVuSans-Oblique-72" transform="translate(631.347656 -15.578125) scale(0.7)"/>
    <use xlink:href="#DejaVuSans-Oblique-65" transform="translate(660.126953 -15.578125) scale(0.7)"/>
    <use xlink:href="#DejaVuSans-Oblique-66" transform="translate(703.193359 -15.578125) scale(0.7)"/>
    <use xlink:href="#DejaVuSans-3a" transform="translate(730.571289 0.828125)"/>
    <use xlink:href="#DejaVuSans-20" transform="translate(764.262695 0.828125)"/>
    <use xlink:href="#DejaVuSans-30" transform="translate(796.049805 0.828125)"/>
    <use xlink:href="#DejaVuSans-2e" transform="translate(859.672852 0.828125)"/>
    <use xlink:href="#DejaVuSans-30" transform="translate(891.459961 0.828125)"/>
    <use xlink:href="#DejaVuSans-30" transform="translate(955.083008 0.828125)"/>
    <use xlink:href="#DejaVuSans-34" transform="translate(1018.706055 0.828125)"/>
   </g>
  </g>
 </g>
 <defs>
  <clipPath id="pb5cc1077a7">
   <rect x="44.845313" y="36" width="334.8" height="217.44"/>
  </clipPath>
 </defs>
</svg>
