<?xml version="1.0" encoding="utf-8" standalone="no"?>
<!DOCTYPE svg PUBLIC "-//W3C//DTD SVG 1.1//EN"
  "http://www.w3.org/Graphics/SVG/1.1/DTD/svg11.dtd">
<svg xmlns:xlink="http://www.w3.org/1999/xlink" width="386.845313pt" height="277.318125pt" viewBox="0 0 386.845313 277.318125" xmlns="http://www.w3.org/2000/svg" version="1.1">
 <metadata>
  <rdf:RDF xmlns:dc="http://purl.org/dc/elements/1.1/" xmlns:cc="http://creativecommons.org/ns#" xmlns:rdf="http://www.w3.org/1999/02/22-rdf-syntax-ns#">
   <cc:Work>
    <dc:type rdf:resource="http://purl.org/dc/dcmitype/StillImage"/>
    <dc:date>2022-11-14T18:34:10.256228</dc:date>
    <dc:format>image/svg+xml</dc:format>
    <dc:creator>
     <cc:Agent>
      <dc:title>Matplotlib v3.6.0, https://matplotlib.org/</dc:title>
     </cc:Agent>
    </dc:creator>
   </cc:Work>
  </rdf:RDF>
 </metadata>
 <defs>
  <style type="text/css">*{stroke-linejoin: round; stroke-linecap: butt}</style>
 </defs>
 <g id="figure_1">
  <g id="patch_1">
   <path d="M 0 277.318125 
L 386.845313 277.318125 
L 386.845313 0 
L 0 0 
L 0 277.318125 
z
" style="fill: none"/>
  </g>
  <g id="axes_1">
   <g id="patch_2">
    <path d="M 44.845313 253.44 
L 379.645313 253.44 
L 379.645313 36 
L 44.845313 36 
z
" style="fill: #ffffff"/>
   </g>
   <g id="matplotlib.axis_1">
    <g id="xtick_1">
     <g id="line2d_1">
      <defs>
       <path id="m362b9f0e97" d="M 0 0 
L 0 3.5 
" style="stroke: #000000; stroke-width: 0.8"/>
      </defs>
      <g>
       <use xlink:href="#m362b9f0e97" x="59.698727" y="253.44" style="stroke: #000000; stroke-width: 0.8"/>
      </g>
     </g>
     <g id="text_1">
      <!-- −1.00 -->
      <g transform="translate(44.376071 268.038437) scale(0.1 -0.1)">
       <defs>
        <path id="DejaVuSans-2212" d="M 678 2272 
L 4684 2272 
L 4684 1741 
L 678 1741 
L 678 2272 
z
" transform="scale(0.015625)"/>
        <path id="DejaVuSans-31" d="M 794 531 
L 1825 531 
L 1825 4091 
L 703 3866 
L 703 4441 
L 1819 4666 
L 2450 4666 
L 2450 531 
L 3481 531 
L 3481 0 
L 794 0 
L 794 531 
z
" transform="scale(0.015625)"/>
        <path id="DejaVuSans-2e" d="M 684 794 
L 1344 794 
L 1344 0 
L 684 0 
L 684 794 
z
" transform="scale(0.015625)"/>
        <path id="DejaVuSans-30" d="M 2034 4250 
Q 1547 4250 1301 3770 
Q 1056 3291 1056 2328 
Q 1056 1369 1301 889 
Q 1547 409 2034 409 
Q 2525 409 2770 889 
Q 3016 1369 3016 2328 
Q 3016 3291 2770 3770 
Q 2525 4250 2034 4250 
z
M 2034 4750 
Q 2819 4750 3233 4129 
Q 3647 3509 3647 2328 
Q 3647 1150 3233 529 
Q 2819 -91 2034 -91 
Q 1250 -91 836 529 
Q 422 1150 422 2328 
Q 422 3509 836 4129 
Q 1250 4750 2034 4750 
z
" transform="scale(0.015625)"/>
       </defs>
       <use xlink:href="#DejaVuSans-2212"/>
       <use xlink:href="#DejaVuSans-31" x="83.789062"/>
       <use xlink:href="#DejaVuSans-2e" x="147.412109"/>
       <use xlink:href="#DejaVuSans-30" x="179.199219"/>
       <use xlink:href="#DejaVuSans-30" x="242.822266"/>
      </g>
     </g>
    </g>
    <g id="xtick_2">
     <g id="line2d_2">
      <g>
       <use xlink:href="#m362b9f0e97" x="97.808299" y="253.44" style="stroke: #000000; stroke-width: 0.8"/>
      </g>
     </g>
     <g id="text_2">
      <!-- −0.75 -->
      <g transform="translate(82.485643 268.038437) scale(0.1 -0.1)">
       <defs>
        <path id="DejaVuSans-37" d="M 525 4666 
L 3525 4666 
L 3525 4397 
L 1831 0 
L 1172 0 
L 2766 4134 
L 525 4134 
L 525 4666 
z
" transform="scale(0.015625)"/>
        <path id="DejaVuSans-35" d="M 691 4666 
L 3169 4666 
L 3169 4134 
L 1269 4134 
L 1269 2991 
Q 1406 3038 1543 3061 
Q 1681 3084 1819 3084 
Q 2600 3084 3056 2656 
Q 3513 2228 3513 1497 
Q 3513 744 3044 326 
Q 2575 -91 1722 -91 
Q 1428 -91 1123 -41 
Q 819 9 494 109 
L 494 744 
Q 775 591 1075 516 
Q 1375 441 1709 441 
Q 2250 441 2565 725 
Q 2881 1009 2881 1497 
Q 2881 1984 2565 2268 
Q 2250 2553 1709 2553 
Q 1456 2553 1204 2497 
Q 953 2441 691 2322 
L 691 4666 
z
" transform="scale(0.015625)"/>
       </defs>
       <use xlink:href="#DejaVuSans-2212"/>
       <use xlink:href="#DejaVuSans-30" x="83.789062"/>
       <use xlink:href="#DejaVuSans-2e" x="147.412109"/>
       <use xlink:href="#DejaVuSans-37" x="179.199219"/>
       <use xlink:href="#DejaVuSans-35" x="242.822266"/>
      </g>
     </g>
    </g>
    <g id="xtick_3">
     <g id="line2d_3">
      <g>
       <use xlink:href="#m362b9f0e97" x="135.917871" y="253.44" style="stroke: #000000; stroke-width: 0.8"/>
      </g>
     </g>
     <g id="text_3">
      <!-- −0.50 -->
      <g transform="translate(120.595215 268.038437) scale(0.1 -0.1)">
       <use xlink:href="#DejaVuSans-2212"/>
       <use xlink:href="#DejaVuSans-30" x="83.789062"/>
       <use xlink:href="#DejaVuSans-2e" x="147.412109"/>
       <use xlink:href="#DejaVuSans-35" x="179.199219"/>
       <use xlink:href="#DejaVuSans-30" x="242.822266"/>
      </g>
     </g>
    </g>
    <g id="xtick_4">
     <g id="line2d_4">
      <g>
       <use xlink:href="#m362b9f0e97" x="174.027443" y="253.44" style="stroke: #000000; stroke-width: 0.8"/>
      </g>
     </g>
     <g id="text_4">
      <!-- −0.25 -->
      <g transform="translate(158.704787 268.038437) scale(0.1 -0.1)">
       <defs>
        <path id="DejaVuSans-32" d="M 1228 531 
L 3431 531 
L 3431 0 
L 469 0 
L 469 531 
Q 828 903 1448 1529 
Q 2069 2156 2228 2338 
Q 2531 2678 2651 2914 
Q 2772 3150 2772 3378 
Q 2772 3750 2511 3984 
Q 2250 4219 1831 4219 
Q 1534 4219 1204 4116 
Q 875 4013 500 3803 
L 500 4441 
Q 881 4594 1212 4672 
Q 1544 4750 1819 4750 
Q 2544 4750 2975 4387 
Q 3406 4025 3406 3419 
Q 3406 3131 3298 2873 
Q 3191 2616 2906 2266 
Q 2828 2175 2409 1742 
Q 1991 1309 1228 531 
z
" transform="scale(0.015625)"/>
       </defs>
       <use xlink:href="#DejaVuSans-2212"/>
       <use xlink:href="#DejaVuSans-30" x="83.789062"/>
       <use xlink:href="#DejaVuSans-2e" x="147.412109"/>
       <use xlink:href="#DejaVuSans-32" x="179.199219"/>
       <use xlink:href="#DejaVuSans-35" x="242.822266"/>
      </g>
     </g>
    </g>
    <g id="xtick_5">
     <g id="line2d_5">
      <g>
       <use xlink:href="#m362b9f0e97" x="212.137015" y="253.44" style="stroke: #000000; stroke-width: 0.8"/>
      </g>
     </g>
     <g id="text_5">
      <!-- 0.00 -->
      <g transform="translate(201.004202 268.038437) scale(0.1 -0.1)">
       <use xlink:href="#DejaVuSans-30"/>
       <use xlink:href="#DejaVuSans-2e" x="63.623047"/>
       <use xlink:href="#DejaVuSans-30" x="95.410156"/>
       <use xlink:href="#DejaVuSans-30" x="159.033203"/>
      </g>
     </g>
    </g>
    <g id="xtick_6">
     <g id="line2d_6">
      <g>
       <use xlink:href="#m362b9f0e97" x="250.246587" y="253.44" style="stroke: #000000; stroke-width: 0.8"/>
      </g>
     </g>
     <g id="text_6">
      <!-- 0.25 -->
      <g transform="translate(239.113774 268.038437) scale(0.1 -0.1)">
       <use xlink:href="#DejaVuSans-30"/>
       <use xlink:href="#DejaVuSans-2e" x="63.623047"/>
       <use xlink:href="#DejaVuSans-32" x="95.410156"/>
       <use xlink:href="#DejaVuSans-35" x="159.033203"/>
      </g>
     </g>
    </g>
    <g id="xtick_7">
     <g id="line2d_7">
      <g>
       <use xlink:href="#m362b9f0e97" x="288.356159" y="253.44" style="stroke: #000000; stroke-width: 0.8"/>
      </g>
     </g>
     <g id="text_7">
      <!-- 0.50 -->
      <g transform="translate(277.223346 268.038437) scale(0.1 -0.1)">
       <use xlink:href="#DejaVuSans-30"/>
       <use xlink:href="#DejaVuSans-2e" x="63.623047"/>
       <use xlink:href="#DejaVuSans-35" x="95.410156"/>
       <use xlink:href="#DejaVuSans-30" x="159.033203"/>
      </g>
     </g>
    </g>
    <g id="xtick_8">
     <g id="line2d_8">
      <g>
       <use xlink:href="#m362b9f0e97" x="326.465731" y="253.44" style="stroke: #000000; stroke-width: 0.8"/>
      </g>
     </g>
     <g id="text_8">
      <!-- 0.75 -->
      <g transform="translate(315.332918 268.038437) scale(0.1 -0.1)">
       <use xlink:href="#DejaVuSans-30"/>
       <use xlink:href="#DejaVuSans-2e" x="63.623047"/>
       <use xlink:href="#DejaVuSans-37" x="95.410156"/>
       <use xlink:href="#DejaVuSans-35" x="159.033203"/>
      </g>
     </g>
    </g>
    <g id="xtick_9">
     <g id="line2d_9">
      <g>
       <use xlink:href="#m362b9f0e97" x="364.575302" y="253.44" style="stroke: #000000; stroke-width: 0.8"/>
      </g>
     </g>
     <g id="text_9">
      <!-- 1.00 -->
      <g transform="translate(353.44249 268.038437) scale(0.1 -0.1)">
       <use xlink:href="#DejaVuSans-31"/>
       <use xlink:href="#DejaVuSans-2e" x="63.623047"/>
       <use xlink:href="#DejaVuSans-30" x="95.410156"/>
       <use xlink:href="#DejaVuSans-30" x="159.033203"/>
      </g>
     </g>
    </g>
   </g>
   <g id="matplotlib.axis_2">
    <g id="ytick_1">
     <g id="line2d_10">
      <defs>
       <path id="mfcd735cb64" d="M 0 0 
L -3.5 0 
" style="stroke: #000000; stroke-width: 0.8"/>
      </defs>
      <g>
       <use xlink:href="#mfcd735cb64" x="44.845313" y="244.293186" style="stroke: #000000; stroke-width: 0.8"/>
      </g>
     </g>
     <g id="text_10">
      <!-- −1.00 -->
      <g transform="translate(7.2 248.092405) scale(0.1 -0.1)">
       <use xlink:href="#DejaVuSans-2212"/>
       <use xlink:href="#DejaVuSans-31" x="83.789062"/>
       <use xlink:href="#DejaVuSans-2e" x="147.412109"/>
       <use xlink:href="#DejaVuSans-30" x="179.199219"/>
       <use xlink:href="#DejaVuSans-30" x="242.822266"/>
      </g>
     </g>
    </g>
    <g id="ytick_2">
     <g id="line2d_11">
      <g>
       <use xlink:href="#mfcd735cb64" x="44.845313" y="219.366569" style="stroke: #000000; stroke-width: 0.8"/>
      </g>
     </g>
     <g id="text_11">
      <!-- −0.75 -->
      <g transform="translate(7.2 223.165787) scale(0.1 -0.1)">
       <use xlink:href="#DejaVuSans-2212"/>
       <use xlink:href="#DejaVuSans-30" x="83.789062"/>
       <use xlink:href="#DejaVuSans-2e" x="147.412109"/>
       <use xlink:href="#DejaVuSans-37" x="179.199219"/>
       <use xlink:href="#DejaVuSans-35" x="242.822266"/>
      </g>
     </g>
    </g>
    <g id="ytick_3">
     <g id="line2d_12">
      <g>
       <use xlink:href="#mfcd735cb64" x="44.845313" y="194.439951" style="stroke: #000000; stroke-width: 0.8"/>
      </g>
     </g>
     <g id="text_12">
      <!-- −0.50 -->
      <g transform="translate(7.2 198.23917) scale(0.1 -0.1)">
       <use xlink:href="#DejaVuSans-2212"/>
       <use xlink:href="#DejaVuSans-30" x="83.789062"/>
       <use xlink:href="#DejaVuSans-2e" x="147.412109"/>
       <use xlink:href="#DejaVuSans-35" x="179.199219"/>
       <use xlink:href="#DejaVuSans-30" x="242.822266"/>
      </g>
     </g>
    </g>
    <g id="ytick_4">
     <g id="line2d_13">
      <g>
       <use xlink:href="#mfcd735cb64" x="44.845313" y="169.513334" style="stroke: #000000; stroke-width: 0.8"/>
      </g>
     </g>
     <g id="text_13">
      <!-- −0.25 -->
      <g transform="translate(7.2 173.312553) scale(0.1 -0.1)">
       <use xlink:href="#DejaVuSans-2212"/>
       <use xlink:href="#DejaVuSans-30" x="83.789062"/>
       <use xlink:href="#DejaVuSans-2e" x="147.412109"/>
       <use xlink:href="#DejaVuSans-32" x="179.199219"/>
       <use xlink:href="#DejaVuSans-35" x="242.822266"/>
      </g>
     </g>
    </g>
    <g id="ytick_5">
     <g id="line2d_14">
      <g>
       <use xlink:href="#mfcd735cb64" x="44.845313" y="144.586717" style="stroke: #000000; stroke-width: 0.8"/>
      </g>
     </g>
     <g id="text_14">
      <!-- 0.00 -->
      <g transform="translate(15.579688 148.385935) scale(0.1 -0.1)">
       <use xlink:href="#DejaVuSans-30"/>
       <use xlink:href="#DejaVuSans-2e" x="63.623047"/>
       <use xlink:href="#DejaVuSans-30" x="95.410156"/>
       <use xlink:href="#DejaVuSans-30" x="159.033203"/>
      </g>
     </g>
    </g>
    <g id="ytick_6">
     <g id="line2d_15">
      <g>
       <use xlink:href="#mfcd735cb64" x="44.845313" y="119.660099" style="stroke: #000000; stroke-width: 0.8"/>
      </g>
     </g>
     <g id="text_15">
      <!-- 0.25 -->
      <g transform="translate(15.579688 123.459318) scale(0.1 -0.1)">
       <use xlink:href="#DejaVuSans-30"/>
       <use xlink:href="#DejaVuSans-2e" x="63.623047"/>
       <use xlink:href="#DejaVuSans-32" x="95.410156"/>
       <use xlink:href="#DejaVuSans-35" x="159.033203"/>
      </g>
     </g>
    </g>
    <g id="ytick_7">
     <g id="line2d_16">
      <g>
       <use xlink:href="#mfcd735cb64" x="44.845313" y="94.733482" style="stroke: #000000; stroke-width: 0.8"/>
      </g>
     </g>
     <g id="text_16">
      <!-- 0.50 -->
      <g transform="translate(15.579688 98.532701) scale(0.1 -0.1)">
       <use xlink:href="#DejaVuSans-30"/>
       <use xlink:href="#DejaVuSans-2e" x="63.623047"/>
       <use xlink:href="#DejaVuSans-35" x="95.410156"/>
       <use xlink:href="#DejaVuSans-30" x="159.033203"/>
      </g>
     </g>
    </g>
    <g id="ytick_8">
     <g id="line2d_17">
      <g>
       <use xlink:href="#mfcd735cb64" x="44.845313" y="69.806865" style="stroke: #000000; stroke-width: 0.8"/>
      </g>
     </g>
     <g id="text_17">
      <!-- 0.75 -->
      <g transform="translate(15.579688 73.606083) scale(0.1 -0.1)">
       <use xlink:href="#DejaVuSans-30"/>
       <use xlink:href="#DejaVuSans-2e" x="63.623047"/>
       <use xlink:href="#DejaVuSans-37" x="95.410156"/>
       <use xlink:href="#DejaVuSans-35" x="159.033203"/>
      </g>
     </g>
    </g>
    <g id="ytick_9">
     <g id="line2d_18">
      <g>
       <use xlink:href="#mfcd735cb64" x="44.845313" y="44.880247" style="stroke: #000000; stroke-width: 0.8"/>
      </g>
     </g>
     <g id="text_18">
      <!-- 1.00 -->
      <g transform="translate(15.579688 48.679466) scale(0.1 -0.1)">
       <use xlink:href="#DejaVuSans-31"/>
       <use xlink:href="#DejaVuSans-2e" x="63.623047"/>
       <use xlink:href="#DejaVuSans-30" x="95.410156"/>
       <use xlink:href="#DejaVuSans-30" x="159.033203"/>
      </g>
     </g>
    </g>
   </g>
   <g id="line2d_19">
    <path d="M 281.500702 99.318928 
L 270.118643 106.628031 
L 295.321774 90.284496 
L 232.313948 131.356724 
L 216.460366 141.498781 
L 361.175114 47.630326 
L 329.874452 67.665231 
L 67.380532 239.061264 
L 335.565482 64.178054 
L 132.014366 196.848414 
L 361.581616 47.412724 
L 195.835196 155.304207 
L 337.19149 63.053977 
L 71.445553 236.383223 
L 256.297572 115.937129 
L 171.44507 170.771355 
L 65.348022 240.36345 
L 348.573549 55.279392 
L 319.7119 74.483909 
L 109.250248 212.007758 
L 214.021354 142.96922 
L 292.069757 92.479928 
L 218.899379 140.026173 
L 257.92358 114.705419 
L 66.97403 239.32191 
L 281.907204 99.051672 
L 119.819303 204.784217 
L 363.614126 46.328256 
L 80.388599 230.315417 
L 219.305881 139.731576 
L 107.217738 213.311945 
L 133.640374 195.773908 
L 144.209429 189.219064 
L 324.589925 71.141707 
L 118.193295 205.884503 
L 86.486131 226.370762 
L 147.461446 187.168724 
L 325.402929 70.606099 
L 136.079387 194.286132 
L 101.933211 216.678052 
L 77.136583 232.460819 
L 259.143087 113.819293 
L 263.208108 111.006175 
L 259.549589 113.478464 
L 110.469755 211.218668 
L 97.055185 219.771439 
L 344.91503 57.68303 
L 338.410996 62.213708 
L 296.134778 89.726453 
L 118.599797 205.619892 
L 299.386795 87.72603 
L 314.833874 77.573837 
L 185.672643 161.981353 
L 346.541038 56.584381 
L 166.973547 173.979174 
L 227.435923 134.582854 
L 301.825807 86.085514 
L 90.551152 223.882818 
L 95.429177 220.781289 
L 201.119723 151.574328 
L 69.819545 237.472434 
L 176.729597 167.542311 
L 322.150912 72.777078 
L 251.826049 118.886282 
L 237.598475 127.87092 
L 354.264578 51.707581 
L 261.988601 111.789373 
L 99.087696 218.493802 
L 70.632549 236.931182 
L 244.509011 123.560045 
L 253.045555 118.14352 
L 123.07132 202.566268 
L 64.535017 240.910604 
L 210.469271 145.121213 
L 302.232309 85.820162 
L 179.16861 166.045005 
L 162.502024 177.338353 
L 93.803169 221.782512 
L 269.712141 106.884921 
L 164.941036 175.4892 
L 206.810753 147.812387 
L 245.728517 122.749002 
L 353.858076 51.973014 
L 199.900217 152.411361 
L 115.34778 207.908022 
L 232.72045 131.080694 
L 293.289263 91.595305 
L 127.949345 199.466404 
L 181.20112 164.791151 
L 316.866385 76.313591 
L 157.217496 181.059121 
L 183.640133 163.273439 
L 76.73008 232.732689 
L 101.526709 216.922545 
L 70.226047 237.202616 
L 294.102267 91.072008 
L 120.632307 204.23161 
L 360.768612 47.848523 
L 222.151396 137.853631 
L 294.508769 90.810683 
L 348.167047 55.538496 
L 339.630503 61.315642 
L 60.876499 243.109377 
L 227.842425 134.331926 
L 117.38029 206.500043 
L 304.671322 84.245096 
L 171.038568 171.019694 
L 148.27445 186.675683 
L 75.917076 233.271361 
L 117.786793 206.158924 
L 292.476259 92.127559 
L 149.087454 186.18176 
L 224.99691 136.098954 
L 196.6482 154.741067 
L 96.648683 220.024813 
L 172.258074 170.274965 
L 98.681194 218.750962 
L 334.345975 64.928615 
L 73.478064 234.980518 
L 297.354284 88.939349 
L 168.193053 173.039826 
L 193.802685 156.712695 
L 209.656267 145.735847 
L 207.217255 147.519976 
L 64.94152 240.666415 
L 103.559219 215.694269 
L 333.126469 65.667357 
L 154.371982 182.940524 
L 336.378486 63.636548 
L 359.955608 48.286858 
L 254.265061 117.402376 
L 213.208349 143.460012 
L 331.500461 66.660979 
L 260.362593 112.906031 
L 342.476017 59.357337 
L 231.500944 131.939908 
L 120.225805 204.50547 
L 302.638811 85.555824 
L 217.679872 140.763289 
L 150.306961 185.438828 
L 198.680711 153.320019 
L 341.663013 59.902893 
L 133.233872 196.03487 
L 137.298893 193.580066 
L 142.176919 190.47352 
L 165.75404 174.870329 
L 147.054944 187.415 
L 317.272887 76.059151 
L 84.45362 227.593474 
L 105.185227 214.609164 
L 229.468433 133.318458 
L 364.020629 46.093225 
L 153.152475 183.693881 
L 211.688778 144.379525 
L 114.128274 208.73595 
L 262.801606 111.266767 
L 199.493715 152.68569 
L 75.510574 233.538291 
L 141.363914 190.956674 
L 307.923339 82.174938 
L 202.339229 150.750853 
L 140.957412 191.197971 
L 348.980051 55.021185 
L 233.533454 130.536319 
L 355.077582 51.213844 
L 176.323095 167.79126 
L 192.989681 157.282757 
L 234.752961 129.71163 
L 359.142603 48.727949 
L 153.96548 183.192036 
L 264.021112 110.486322 
L 293.695765 91.333353 
L 85.266625 227.105169 
L 313.207866 78.614824 
L 100.307202 217.714114 
L 119.412801 205.102796 
L 144.615931 188.956508 
L 272.557656 105.049764 
L 64.128515 241.153766 
L 147.867948 186.922299 
L 206.40425 148.123187 
L 233.939956 130.26464 
L 323.370419 71.952056 
L 275.403171 103.288352 
L 150.713463 185.190575 
L 91.364156 223.276918 
L 273.37066 104.542671 
L 93.396667 222.031749 
L 205.591246 148.624698 
L 205.184744 148.874424 
L 312.801364 78.87555 
L 162.908526 177.053231 
L 91.770658 223.027097 
L 153.558977 183.443152 
L 102.746215 216.187334 
L 177.136099 167.293208 
L 357.923097 49.479845 
L 321.337908 73.40438 
L 151.119965 184.941997 
L 357.516595 49.717509 
L 362.39462 46.979043 
L 158.437003 180.165437 
L 312.394862 79.134928 
L 110.876257 210.954394 
L 238.817982 127.115882 
L 304.26482 84.506005 
L 175.916593 168.040065 
L 196.241698 155.022782 
L 323.776921 71.680875 
L 95.835679 220.529711 
L 318.492393 75.284796 
L 205.997748 148.374366 
L 354.67108 51.460767 
L 131.607864 197.111268 
L 329.46795 67.918041 
L 192.583179 157.574098 
L 310.362351 80.53376 
L 123.884324 202.032503 
L 203.965238 149.672394 
L 350.199557 54.251656 
L 288.81774 94.578746 
L 182.014124 164.287448 
L 213.614851 143.214544 
L 300.606301 86.89313 
L 284.752719 97.196782 
L 160.063011 179.032583 
L 283.533213 97.988809 
L 164.534534 175.827365 
L 88.112139 225.384691 
L 250.606543 119.631136 
L 265.64712 109.451498 
L 240.44399 126.127659 
L 135.266383 194.754641 
L 60.469996 243.333413 
L 180.388116 165.293502 
L 137.705395 193.259287 
L 128.762349 198.929432 
L 332.313465 66.162887 
L 295.728276 89.977764 
L 215.647362 141.988814 
L 194.61569 156.148232 
L 135.672885 194.52059 
L 311.581858 79.722538 
L 210.062769 145.409027 
L 347.760545 55.79852 
L 116.160784 207.351182 
L 335.158979 64.438952 
L 236.378969 128.615185 
L 195.428694 155.585487 
L 134.453379 195.221597 
L 303.045314 85.292331 
L 152.339471 184.194209 
L 224.590408 136.342848 
L 68.600038 238.272836 
L 190.957171 158.764551 
L 95.022675 221.032325 
L 308.736343 81.621001 
L 149.493956 185.934406 
L 136.892391 193.815901 
L 277.842183 101.79788 
L 328.248444 68.751376 
L 125.916835 200.712671 
L 215.24086 142.233834 
L 141.770417 190.71521 
L 208.030259 146.909837 
L 84.047118 227.885796 
L 282.720208 98.519135 
L 200.306719 152.121972 
L 130.388358 197.891856 
L 214.427856 142.724012 
L 346.134536 56.848358 
L 94.209671 221.532896 
L 104.778725 214.871973 
L 338.817498 61.924055 
L 352.63857 52.731864 
L 327.43544 69.279212 
L 75.104072 233.803686 
L 203.152234 150.218935 
L 291.663255 92.748527 
L 97.461688 219.517409 
L 255.484568 116.504135 
L 145.835438 188.181973 
L 220.525387 138.925851 
L 330.280954 67.41313 
L 165.347538 175.196861 
L 253.858559 117.649277 
L 84.860122 227.349364 
L 301.012803 86.620786 
L 361.988118 47.19566 
L 248.16753 121.129112 
L 340.037005 61.02253 
L 242.476501 124.932616 
L 248.980534 120.628349 
L 221.338391 138.35524 
L 353.045072 52.480095 
L 352.232068 52.983814 
L 345.728034 57.113407 
L 308.329841 81.917907 
L 338.004494 62.49293 
L 169.006057 172.421735 
L 158.030501 180.456846 
L 174.697087 168.785731 
L 292.882761 91.858817 
L 67.787034 238.799629 
L 332.719967 65.914808 
L 351.419063 53.489051 
L 98.274692 219.007225 
L 212.801847 143.705658 
L 140.55091 191.439168 
L 163.315028 176.765976 
L 241.256994 125.649121 
L 180.794618 165.042477 
L 329.061448 68.220717 
L 125.510332 200.960631 
L 134.859881 194.988304 
L 99.494198 218.235579 
L 327.028937 69.543483 
L 314.427372 77.826173 
L 346.94754 56.321436 
L 143.396425 189.74657 
L 355.890587 50.7163 
L 349.793055 54.507347 
L 261.582099 112.051432 
L 62.502507 242.11916 
L 124.290826 201.759577 
L 311.98836 79.447664 
L 241.663496 125.410129 
L 62.096005 242.360789 
L 230.281438 132.776507 
L 220.931889 138.658111 
L 79.169093 231.053436 
L 224.183906 136.586079 
L 246.135019 122.482763 
L 314.02087 78.078843 
L 318.898895 75.041761 
L 218.086375 140.517848 
L 122.664818 202.861302 
L 145.022433 188.699498 
L 173.071078 169.778702 
L 105.998232 214.0899 
L 270.525145 106.369261 
L 87.705637 225.632093 
L 320.931406 73.672359 
L 255.89107 116.218216 
L 303.451816 85.029575 
L 155.99799 181.930363 
L 249.793538 120.129094 
L 146.648442 187.661182 
L 82.42111 229.018057 
L 60.063494 243.556364 
L 61.283001 242.884236 
L 277.435681 102.045356 
L 99.9007 217.975966 
L 303.858318 84.767484 
L 164.128032 176.128756 
L 260.769095 112.577199 
L 108.437244 212.530927 
L 289.224242 94.318113 
L 126.729839 200.21552 
L 309.549347 81.074276 
L 280.281196 100.126238 
L 340.850009 60.452473 
L 264.834116 109.968136 
L 317.679389 75.771788 
L 197.867706 153.892374 
L 217.27337 141.00856 
L 138.924902 192.487973 
L 96.242181 220.277561 
L 257.110576 115.297251 
L 347.354042 56.059492 
L 343.289021 58.815069 
L 182.420627 164.034963 
L 188.518158 160.254445 
L 258.736585 114.116783 
L 190.550669 159.013545 
L 63.722013 241.396004 
L 257.517078 115.000192 
L 179.981614 165.544252 
L 249.387036 120.378548 
L 208.843263 146.29703 
L 207.623757 147.236377 
L 247.761028 121.38015 
L 115.754282 207.630204 
L 204.37174 149.372675 
L 344.102026 58.248179 
L 121.851814 203.413944 
L 266.460124 108.93628 
L 146.24194 187.907349 
L 139.331404 192.234289 
L 159.250007 179.596661 
L 152.745973 183.944231 
L 273.777162 104.290633 
L 73.071562 235.265116 
L 155.184986 182.436283 
L 101.120206 217.166471 
L 345.321532 57.379577 
L 173.884082 169.282344 
L 307.516837 82.432286 
L 290.037246 93.796833 
L 140.144408 191.721152 
L 184.859639 162.472734 
L 353.451574 52.228002 
L 269.305639 107.141183 
L 216.866868 141.253711 
L 112.095763 210.103582 
L 333.532971 65.420518 
L 327.841942 69.01526 
L 72.258557 235.828053 
L 331.093958 66.911016 
L 129.168851 198.668465 
L 185.266141 162.22715 
L 235.565965 129.137658 
L 288.004736 95.100357 
L 112.502265 209.830705 
L 279.874694 100.398226 
L 131.201362 197.372432 
L 202.745732 150.48535 
L 90.14465 224.136123 
L 108.843746 212.269615 
L 74.291068 234.404253 
L 279.06169 100.954828 
L 155.591488 182.183537 
L 351.825566 53.236167 
L 168.599555 172.734043 
L 280.687698 99.85599 
L 78.356089 231.633461 
L 210.875774 144.873437 
L 237.191973 128.119086 
L 325.809431 70.33946 
L 228.655429 133.783924 
L 324.183423 71.410804 
L 169.819061 171.877572 
L 160.469513 178.750976 
L 184.453137 162.755182 
L 287.191732 95.622734 
L 246.541522 122.216294 
L 85.673127 226.860736 
L 111.689261 210.376792 
L 356.297089 50.424394 
L 316.053381 76.8181 
L 216.053864 141.743806 
L 209.249765 146.01759 
L 364.427131 45.883636 
L 279.468192 100.673089 
L 161.689019 177.905108 
L 175.103589 168.537289 
L 190.144166 159.262259 
L 71.039051 236.658072 
L 229.874935 133.086124 
L 107.62424 213.052048 
L 208.436761 146.580354 
L 69.413043 237.740698 
L 81.608106 229.534704 
L 86.892633 226.125085 
L 326.215933 70.073521 
L 244.102509 123.858234 
L 221.744893 138.104706 
L 251.013045 119.382591 
L 175.510091 168.288737 
L 143.802927 189.503429 
L 125.10383 201.208211 
L 79.982097 230.56238 
L 186.485648 161.489101 
L 283.126711 98.253719 
L 71.852055 236.106571 
L 193.396183 156.996563 
L 200.713221 151.83122 
L 344.508528 57.967787 
L 243.289505 124.38177 
L 94.616173 221.282849 
L 322.963916 72.224587 
L 122.258316 203.139709 
L 363.207624 46.546262 
L 246.948024 121.947921 
L 357.110093 49.953433 
L 103.965721 215.40918 
L 243.696007 124.117622 
L 171.851572 170.523127 
L 158.843505 179.879986 
L 359.549105 48.507049 
L 274.183664 104.039266 
L 188.92466 160.006786 
L 301.419305 86.35218 
L 186.079145 161.735338 
L 173.47758 169.530546 
L 151.932969 184.443823 
L 127.136341 199.966288 
L 142.583421 190.231552 
L 358.329599 49.20887 
L 225.809914 135.602659 
L 214.834358 142.478892 
L 177.949103 166.794496 
L 309.142845 81.346047 
L 254.671564 117.112992 
L 248.574032 120.878525 
L 61.689503 242.607353 
L 305.077824 83.984725 
L 291.256753 93.012439 
L 264.427614 110.227028 
L 288.411238 94.839476 
L 199.087213 153.028304 
L 188.111656 160.501855 
L 88.925143 224.887837 
L 191.363673 158.515268 
L 251.419547 119.134312 
L 266.053622 109.19372 
L 160.876015 178.469319 
L 305.890828 83.465481 
L 351.012561 53.742554 
L 92.17716 222.77813 
L 166.567045 174.278958 
L 330.687456 67.161729 
L 189.331162 159.758873 
L 73.884566 234.693656 
L 229.061931 133.55102 
L 201.526225 151.284045 
L 74.69757 234.111398 
L 106.404734 213.830751 
L 278.248685 101.550754 
L 110.063253 211.482306 
L 156.404492 181.676751 
L 240.850492 125.888292 
L 151.526467 184.693083 
L 298.57379 88.210115 
L 263.61461 110.746032 
L 235.972467 128.863438 
L 328.654946 68.487043 
L 197.054702 154.458904 
L 211.282276 144.62625 
L 247.354526 121.664732 
L 89.331646 224.638254 
L 138.5184 192.741944 
L 129.575353 198.409422 
L 362.801122 46.762704 
L 197.461204 154.176098 
L 342.882519 59.085851 
L 252.639053 118.390903 
L 219.712383 139.456865 
L 265.240618 109.709631 
L 212.09528 144.133171 
L 222.9644 137.339002 
L 319.305398 74.764028 
L 331.906963 66.411607 
L 105.59173 214.349185 
L 182.827129 163.781935 
L 78.762591 231.351695 
L 349.386553 54.763846 
L 103.152717 215.941098 
L 136.485889 194.051245 
L 326.622435 69.80822 
L 320.524904 73.939996 
L 169.412559 172.150087 
L 296.947782 89.220891 
L 63.315511 241.637465 
L 121.038809 203.959085 
L 261.175597 112.314029 
L 65.754524 240.101021 
L 218.492877 140.272171 
L 104.372223 215.15291 
L 113.315269 209.284312 
L 313.614368 78.331892 
L 360.36211 48.067358 
L 167.786551 173.37204 
L 174.290585 169.034078 
L 242.069998 125.1713 
L 271.33815 105.830819 
L 294.915272 90.548687 
L 270.931648 106.078944 
L 149.900459 185.686768 
L 192.176677 157.920303 
L 343.695524 58.530518 
L 167.380049 173.651306 
L 187.705154 160.749021 
L 119.006299 205.360966 
L 336.784988 63.33867 
L 81.201604 229.818517 
L 285.565723 96.670761 
L 106.811236 213.571481 
L 142.989923 189.989255 
L 161.282517 178.187423 
L 132.82737 196.292187 
L 66.567528 239.581782 
L 356.703591 50.188901 
L 212.395345 143.95152 
L 256.704074 115.60121 
L 129.981856 198.150724 
L 77.543085 232.187136 
L 138.111898 192.997649 
L 286.78523 95.884293 
L 80.795101 230.067471 
L 259.956091 113.194991 
L 72.665059 235.547594 
L 226.216417 135.341545 
L 255.078066 116.84927 
L 83.640616 228.160374 
L 109.656751 211.745329 
L 321.74441 73.132796 
L 159.656509 179.31437 
L 309.955849 80.80373 
L 154.778484 182.688609 
L 123.477822 202.300385 
L 277.029179 102.293191 
L 79.575595 230.80838 
L 355.484084 50.966228 
L 90.957654 223.563161 
L 350.606059 53.996739 
L 234.346459 129.991345 
L 286.378727 96.146136 
L 148.680952 186.428845 
L 283.939715 97.724369 
L 268.086133 107.909437 
L 316.459883 76.566142 
L 108.030742 212.791725 
L 245.322015 123.015969 
L 121.445311 203.68677 
L 83.234114 228.43389 
L 305.484326 83.724862 
L 227.029421 134.863423 
L 97.86819 219.262686 
L 268.492635 107.653284 
L 334.752477 64.683514 
L 310.768853 80.263942 
L 114.534776 208.46078 
L 156.810994 181.38983 
L 127.542843 199.71659 
L 77.949587 231.911475 
L 311.175356 79.993807 
L 266.866627 108.679158 
L 170.225564 171.602043 
L 252.232551 118.638485 
L 139.737906 191.979682 
L 222.557898 137.600946 
L 187.298652 160.995947 
L 231.907446 131.678578 
L 191.770175 158.201942 
L 172.664576 170.026833 
L 145.428935 188.442741 
L 320.118402 74.208886 
L 194.209187 156.430098 
L 223.777404 136.828951 
L 340.443507 60.728987 
L 128.355847 199.215704 
L 342.069515 59.629652 
L 163.72153 176.474215 
L 189.737664 159.510699 
L 111.282759 210.651842 
L 240.037488 126.367235 
L 262.395103 111.527826 
L 285.972225 96.408285 
L 66.161026 239.841239 
L 233.126952 130.807931 
L 100.713704 217.445781 
L 339.224 61.602785 
L 337.597992 62.772733 
L 170.632066 171.305295 
L 126.323337 200.464307 
L 76.323578 233.002846 
L 267.679631 108.165769 
L 358.736101 48.979649 
L 157.623998 180.777459 
L 162.095522 177.622173 
L 134.046877 195.494577 
L 253.452057 117.896318 
L 244.915513 123.284908 
L 244.915513 123.284908 
" clip-path="url(#p80cfe613a6)" style="fill: none; stroke: #1f77b4; stroke-width: 1.5; stroke-linecap: square"/>
   </g>
   <g id="patch_3">
    <path d="M 44.845313 253.44 
L 44.845313 36 
" style="fill: none; stroke: #000000; stroke-width: 0.8; stroke-linejoin: miter; stroke-linecap: square"/>
   </g>
   <g id="patch_4">
    <path d="M 379.645313 253.44 
L 379.645313 36 
" style="fill: none; stroke: #000000; stroke-width: 0.8; stroke-linejoin: miter; stroke-linecap: square"/>
   </g>
   <g id="patch_5">
    <path d="M 44.845313 253.44 
L 379.645313 253.44 
" style="fill: none; stroke: #000000; stroke-width: 0.8; stroke-linejoin: miter; stroke-linecap: square"/>
   </g>
   <g id="patch_6">
    <path d="M 44.845313 36 
L 379.645313 36 
" style="fill: none; stroke: #000000; stroke-width: 0.8; stroke-linejoin: miter; stroke-linecap: square"/>
   </g>
  </g>
  <g id="text_19">
   <!-- $x$ and $\hat{x}$ for $\tau_{rc}$: 0.075 -->
   <g transform="translate(143.605313 17.904375) scale(0.12 -0.12)">
    <defs>
     <path id="DejaVuSans-Oblique-78" d="M 3841 3500 
L 2234 1784 
L 3219 0 
L 2559 0 
L 1819 1388 
L 531 0 
L -166 0 
L 1556 1844 
L 641 3500 
L 1300 3500 
L 1972 2234 
L 3144 3500 
L 3841 3500 
z
" transform="scale(0.015625)"/>
     <path id="DejaVuSans-20" transform="scale(0.015625)"/>
     <path id="DejaVuSans-61" d="M 2194 1759 
Q 1497 1759 1228 1600 
Q 959 1441 959 1056 
Q 959 750 1161 570 
Q 1363 391 1709 391 
Q 2188 391 2477 730 
Q 2766 1069 2766 1631 
L 2766 1759 
L 2194 1759 
z
M 3341 1997 
L 3341 0 
L 2766 0 
L 2766 531 
Q 2569 213 2275 61 
Q 1981 -91 1556 -91 
Q 1019 -91 701 211 
Q 384 513 384 1019 
Q 384 1609 779 1909 
Q 1175 2209 1959 2209 
L 2766 2209 
L 2766 2266 
Q 2766 2663 2505 2880 
Q 2244 3097 1772 3097 
Q 1472 3097 1187 3025 
Q 903 2953 641 2809 
L 641 3341 
Q 956 3463 1253 3523 
Q 1550 3584 1831 3584 
Q 2591 3584 2966 3190 
Q 3341 2797 3341 1997 
z
" transform="scale(0.015625)"/>
     <path id="DejaVuSans-6e" d="M 3513 2113 
L 3513 0 
L 2938 0 
L 2938 2094 
Q 2938 2591 2744 2837 
Q 2550 3084 2163 3084 
Q 1697 3084 1428 2787 
Q 1159 2491 1159 1978 
L 1159 0 
L 581 0 
L 581 3500 
L 1159 3500 
L 1159 2956 
Q 1366 3272 1645 3428 
Q 1925 3584 2291 3584 
Q 2894 3584 3203 3211 
Q 3513 2838 3513 2113 
z
" transform="scale(0.015625)"/>
     <path id="DejaVuSans-64" d="M 2906 2969 
L 2906 4863 
L 3481 4863 
L 3481 0 
L 2906 0 
L 2906 525 
Q 2725 213 2448 61 
Q 2172 -91 1784 -91 
Q 1150 -91 751 415 
Q 353 922 353 1747 
Q 353 2572 751 3078 
Q 1150 3584 1784 3584 
Q 2172 3584 2448 3432 
Q 2725 3281 2906 2969 
z
M 947 1747 
Q 947 1113 1208 752 
Q 1469 391 1925 391 
Q 2381 391 2643 752 
Q 2906 1113 2906 1747 
Q 2906 2381 2643 2742 
Q 2381 3103 1925 3103 
Q 1469 3103 1208 2742 
Q 947 2381 947 1747 
z
" transform="scale(0.015625)"/>
     <path id="DejaVuSans-302" d="M -1831 5119 
L -1369 5119 
L -603 3944 
L -1038 3944 
L -1600 4709 
L -2163 3944 
L -2597 3944 
L -1831 5119 
z
M -1600 3584 
L -1600 3584 
z
" transform="scale(0.015625)"/>
     <path id="DejaVuSans-66" d="M 2375 4863 
L 2375 4384 
L 1825 4384 
Q 1516 4384 1395 4259 
Q 1275 4134 1275 3809 
L 1275 3500 
L 2222 3500 
L 2222 3053 
L 1275 3053 
L 1275 0 
L 697 0 
L 697 3053 
L 147 3053 
L 147 3500 
L 697 3500 
L 697 3744 
Q 697 4328 969 4595 
Q 1241 4863 1831 4863 
L 2375 4863 
z
" transform="scale(0.015625)"/>
     <path id="DejaVuSans-6f" d="M 1959 3097 
Q 1497 3097 1228 2736 
Q 959 2375 959 1747 
Q 959 1119 1226 758 
Q 1494 397 1959 397 
Q 2419 397 2687 759 
Q 2956 1122 2956 1747 
Q 2956 2369 2687 2733 
Q 2419 3097 1959 3097 
z
M 1959 3584 
Q 2709 3584 3137 3096 
Q 3566 2609 3566 1747 
Q 3566 888 3137 398 
Q 2709 -91 1959 -91 
Q 1206 -91 779 398 
Q 353 888 353 1747 
Q 353 2609 779 3096 
Q 1206 3584 1959 3584 
z
" transform="scale(0.015625)"/>
     <path id="DejaVuSans-72" d="M 2631 2963 
Q 2534 3019 2420 3045 
Q 2306 3072 2169 3072 
Q 1681 3072 1420 2755 
Q 1159 2438 1159 1844 
L 1159 0 
L 581 0 
L 581 3500 
L 1159 3500 
L 1159 2956 
Q 1341 3275 1631 3429 
Q 1922 3584 2338 3584 
Q 2397 3584 2469 3576 
Q 2541 3569 2628 3553 
L 2631 2963 
z
" transform="scale(0.015625)"/>
     <path id="DejaVuSans-Oblique-3c4" d="M 2103 638 
Q 2188 488 2525 488 
L 2800 488 
L 2706 0 
L 2363 0 
Q 1800 0 1600 300 
Q 1403 606 1534 1269 
L 1856 2925 
L 541 2925 
L 653 3500 
L 3881 3500 
L 3769 2925 
L 2444 2925 
L 2113 1234 
Q 2025 781 2103 638 
z
" transform="scale(0.015625)"/>
     <path id="DejaVuSans-Oblique-72" d="M 2853 2969 
Q 2766 3016 2653 3041 
Q 2541 3066 2413 3066 
Q 1953 3066 1609 2717 
Q 1266 2369 1153 1784 
L 800 0 
L 225 0 
L 909 3500 
L 1484 3500 
L 1375 2956 
Q 1603 3259 1920 3421 
Q 2238 3584 2597 3584 
Q 2691 3584 2781 3573 
Q 2872 3563 2963 3538 
L 2853 2969 
z
" transform="scale(0.015625)"/>
     <path id="DejaVuSans-Oblique-63" d="M 3431 3366 
L 3316 2797 
Q 3109 2947 2876 3022 
Q 2644 3097 2394 3097 
Q 2119 3097 1870 3000 
Q 1622 2903 1453 2725 
Q 1184 2453 1037 2087 
Q 891 1722 891 1331 
Q 891 859 1127 628 
Q 1363 397 1844 397 
Q 2081 397 2348 469 
Q 2616 541 2906 684 
L 2797 116 
Q 2547 13 2283 -39 
Q 2019 -91 1741 -91 
Q 1044 -91 669 257 
Q 294 606 294 1253 
Q 294 1797 489 2255 
Q 684 2713 1069 3078 
Q 1331 3328 1684 3456 
Q 2038 3584 2456 3584 
Q 2700 3584 2940 3529 
Q 3181 3475 3431 3366 
z
" transform="scale(0.015625)"/>
     <path id="DejaVuSans-3a" d="M 750 794 
L 1409 794 
L 1409 0 
L 750 0 
L 750 794 
z
M 750 3309 
L 1409 3309 
L 1409 2516 
L 750 2516 
L 750 3309 
z
" transform="scale(0.015625)"/>
    </defs>
    <use xlink:href="#DejaVuSans-Oblique-78" transform="translate(0 0.828125)"/>
    <use xlink:href="#DejaVuSans-20" transform="translate(59.179688 0.828125)"/>
    <use xlink:href="#DejaVuSans-61" transform="translate(90.966797 0.828125)"/>
    <use xlink:href="#DejaVuSans-6e" transform="translate(152.246094 0.828125)"/>
    <use xlink:href="#DejaVuSans-64" transform="translate(215.625 0.828125)"/>
    <use xlink:href="#DejaVuSans-20" transform="translate(279.101562 0.828125)"/>
    <use xlink:href="#DejaVuSans-302" transform="translate(373.261719 12.015625)"/>
    <use xlink:href="#DejaVuSans-Oblique-78" transform="translate(310.888672 0.828125)"/>
    <use xlink:href="#DejaVuSans-20" transform="translate(370.068359 0.828125)"/>
    <use xlink:href="#DejaVuSans-66" transform="translate(401.855469 0.828125)"/>
    <use xlink:href="#DejaVuSans-6f" transform="translate(437.060547 0.828125)"/>
    <use xlink:href="#DejaVuSans-72" transform="translate(498.242188 0.828125)"/>
    <use xlink:href="#DejaVuSans-20" transform="translate(539.355469 0.828125)"/>
    <use xlink:href="#DejaVuSans-Oblique-3c4" transform="translate(571.142578 0.828125)"/>
    <use xlink:href="#DejaVuSans-Oblique-72" transform="translate(631.347656 -15.578125) scale(0.7)"/>
    <use xlink:href="#DejaVuSans-Oblique-63" transform="translate(660.126953 -15.578125) scale(0.7)"/>
    <use xlink:href="#DejaVuSans-3a" transform="translate(701.347656 0.828125)"/>
    <use xlink:href="#DejaVuSans-20" transform="translate(735.039062 0.828125)"/>
    <use xlink:href="#DejaVuSans-30" transform="translate(766.826172 0.828125)"/>
    <use xlink:href="#DejaVuSans-2e" transform="translate(830.449219 0.828125)"/>
    <use xlink:href="#DejaVuSans-30" transform="translate(862.236328 0.828125)"/>
    <use xlink:href="#DejaVuSans-37" transform="translate(925.859375 0.828125)"/>
    <use xlink:href="#DejaVuSans-35" transform="translate(989.482422 0.828125)"/>
   </g>
  </g>
 </g>
 <defs>
  <clipPath id="p80cfe613a6">
   <rect x="44.845313" y="36" width="334.8" height="217.44"/>
  </clipPath>
 </defs>
</svg>
