<?xml version="1.0" encoding="utf-8" standalone="no"?>
<!DOCTYPE svg PUBLIC "-//W3C//DTD SVG 1.1//EN"
  "http://www.w3.org/Graphics/SVG/1.1/DTD/svg11.dtd">
<svg xmlns:xlink="http://www.w3.org/1999/xlink" width="372.103125pt" height="277.318125pt" viewBox="0 0 372.103125 277.318125" xmlns="http://www.w3.org/2000/svg" version="1.1">
 <metadata>
  <rdf:RDF xmlns:dc="http://purl.org/dc/elements/1.1/" xmlns:cc="http://creativecommons.org/ns#" xmlns:rdf="http://www.w3.org/1999/02/22-rdf-syntax-ns#">
   <cc:Work>
    <dc:type rdf:resource="http://purl.org/dc/dcmitype/StillImage"/>
    <dc:date>2022-11-11T21:13:56.725979</dc:date>
    <dc:format>image/svg+xml</dc:format>
    <dc:creator>
     <cc:Agent>
      <dc:title>Matplotlib v3.6.0, https://matplotlib.org/</dc:title>
     </cc:Agent>
    </dc:creator>
   </cc:Work>
  </rdf:RDF>
 </metadata>
 <defs>
  <style type="text/css">*{stroke-linejoin: round; stroke-linecap: butt}</style>
 </defs>
 <g id="figure_1">
  <g id="patch_1">
   <path d="M 0 277.318125 
L 372.103125 277.318125 
L 372.103125 0 
L 0 0 
L 0 277.318125 
z
" style="fill: none"/>
  </g>
  <g id="axes_1">
   <g id="patch_2">
    <path d="M 30.103125 253.44 
L 364.903125 253.44 
L 364.903125 36 
L 30.103125 36 
z
" style="fill: #ffffff"/>
   </g>
   <g id="matplotlib.axis_1">
    <g id="xtick_1">
     <g id="line2d_1">
      <defs>
       <path id="mf9ab709ede" d="M 0 0 
L 0 3.5 
" style="stroke: #000000; stroke-width: 0.8"/>
      </defs>
      <g>
       <use xlink:href="#mf9ab709ede" x="30.103125" y="253.44" style="stroke: #000000; stroke-width: 0.8"/>
      </g>
     </g>
     <g id="text_1">
      <!-- 0.0 -->
      <g transform="translate(22.151563 268.038437) scale(0.1 -0.1)">
       <defs>
        <path id="DejaVuSans-30" d="M 2034 4250 
Q 1547 4250 1301 3770 
Q 1056 3291 1056 2328 
Q 1056 1369 1301 889 
Q 1547 409 2034 409 
Q 2525 409 2770 889 
Q 3016 1369 3016 2328 
Q 3016 3291 2770 3770 
Q 2525 4250 2034 4250 
z
M 2034 4750 
Q 2819 4750 3233 4129 
Q 3647 3509 3647 2328 
Q 3647 1150 3233 529 
Q 2819 -91 2034 -91 
Q 1250 -91 836 529 
Q 422 1150 422 2328 
Q 422 3509 836 4129 
Q 1250 4750 2034 4750 
z
" transform="scale(0.015625)"/>
        <path id="DejaVuSans-2e" d="M 684 794 
L 1344 794 
L 1344 0 
L 684 0 
L 684 794 
z
" transform="scale(0.015625)"/>
       </defs>
       <use xlink:href="#DejaVuSans-30"/>
       <use xlink:href="#DejaVuSans-2e" x="63.623047"/>
       <use xlink:href="#DejaVuSans-30" x="95.410156"/>
      </g>
     </g>
    </g>
    <g id="xtick_2">
     <g id="line2d_2">
      <g>
       <use xlink:href="#mf9ab709ede" x="74.743125" y="253.44" style="stroke: #000000; stroke-width: 0.8"/>
      </g>
     </g>
     <g id="text_2">
      <!-- 0.2 -->
      <g transform="translate(66.791563 268.038437) scale(0.1 -0.1)">
       <defs>
        <path id="DejaVuSans-32" d="M 1228 531 
L 3431 531 
L 3431 0 
L 469 0 
L 469 531 
Q 828 903 1448 1529 
Q 2069 2156 2228 2338 
Q 2531 2678 2651 2914 
Q 2772 3150 2772 3378 
Q 2772 3750 2511 3984 
Q 2250 4219 1831 4219 
Q 1534 4219 1204 4116 
Q 875 4013 500 3803 
L 500 4441 
Q 881 4594 1212 4672 
Q 1544 4750 1819 4750 
Q 2544 4750 2975 4387 
Q 3406 4025 3406 3419 
Q 3406 3131 3298 2873 
Q 3191 2616 2906 2266 
Q 2828 2175 2409 1742 
Q 1991 1309 1228 531 
z
" transform="scale(0.015625)"/>
       </defs>
       <use xlink:href="#DejaVuSans-30"/>
       <use xlink:href="#DejaVuSans-2e" x="63.623047"/>
       <use xlink:href="#DejaVuSans-32" x="95.410156"/>
      </g>
     </g>
    </g>
    <g id="xtick_3">
     <g id="line2d_3">
      <g>
       <use xlink:href="#mf9ab709ede" x="119.383125" y="253.44" style="stroke: #000000; stroke-width: 0.8"/>
      </g>
     </g>
     <g id="text_3">
      <!-- 0.4 -->
      <g transform="translate(111.431563 268.038437) scale(0.1 -0.1)">
       <defs>
        <path id="DejaVuSans-34" d="M 2419 4116 
L 825 1625 
L 2419 1625 
L 2419 4116 
z
M 2253 4666 
L 3047 4666 
L 3047 1625 
L 3713 1625 
L 3713 1100 
L 3047 1100 
L 3047 0 
L 2419 0 
L 2419 1100 
L 313 1100 
L 313 1709 
L 2253 4666 
z
" transform="scale(0.015625)"/>
       </defs>
       <use xlink:href="#DejaVuSans-30"/>
       <use xlink:href="#DejaVuSans-2e" x="63.623047"/>
       <use xlink:href="#DejaVuSans-34" x="95.410156"/>
      </g>
     </g>
    </g>
    <g id="xtick_4">
     <g id="line2d_4">
      <g>
       <use xlink:href="#mf9ab709ede" x="164.023125" y="253.44" style="stroke: #000000; stroke-width: 0.8"/>
      </g>
     </g>
     <g id="text_4">
      <!-- 0.6 -->
      <g transform="translate(156.071563 268.038437) scale(0.1 -0.1)">
       <defs>
        <path id="DejaVuSans-36" d="M 2113 2584 
Q 1688 2584 1439 2293 
Q 1191 2003 1191 1497 
Q 1191 994 1439 701 
Q 1688 409 2113 409 
Q 2538 409 2786 701 
Q 3034 994 3034 1497 
Q 3034 2003 2786 2293 
Q 2538 2584 2113 2584 
z
M 3366 4563 
L 3366 3988 
Q 3128 4100 2886 4159 
Q 2644 4219 2406 4219 
Q 1781 4219 1451 3797 
Q 1122 3375 1075 2522 
Q 1259 2794 1537 2939 
Q 1816 3084 2150 3084 
Q 2853 3084 3261 2657 
Q 3669 2231 3669 1497 
Q 3669 778 3244 343 
Q 2819 -91 2113 -91 
Q 1303 -91 875 529 
Q 447 1150 447 2328 
Q 447 3434 972 4092 
Q 1497 4750 2381 4750 
Q 2619 4750 2861 4703 
Q 3103 4656 3366 4563 
z
" transform="scale(0.015625)"/>
       </defs>
       <use xlink:href="#DejaVuSans-30"/>
       <use xlink:href="#DejaVuSans-2e" x="63.623047"/>
       <use xlink:href="#DejaVuSans-36" x="95.410156"/>
      </g>
     </g>
    </g>
    <g id="xtick_5">
     <g id="line2d_5">
      <g>
       <use xlink:href="#mf9ab709ede" x="208.663125" y="253.44" style="stroke: #000000; stroke-width: 0.8"/>
      </g>
     </g>
     <g id="text_5">
      <!-- 0.8 -->
      <g transform="translate(200.711563 268.038437) scale(0.1 -0.1)">
       <defs>
        <path id="DejaVuSans-38" d="M 2034 2216 
Q 1584 2216 1326 1975 
Q 1069 1734 1069 1313 
Q 1069 891 1326 650 
Q 1584 409 2034 409 
Q 2484 409 2743 651 
Q 3003 894 3003 1313 
Q 3003 1734 2745 1975 
Q 2488 2216 2034 2216 
z
M 1403 2484 
Q 997 2584 770 2862 
Q 544 3141 544 3541 
Q 544 4100 942 4425 
Q 1341 4750 2034 4750 
Q 2731 4750 3128 4425 
Q 3525 4100 3525 3541 
Q 3525 3141 3298 2862 
Q 3072 2584 2669 2484 
Q 3125 2378 3379 2068 
Q 3634 1759 3634 1313 
Q 3634 634 3220 271 
Q 2806 -91 2034 -91 
Q 1263 -91 848 271 
Q 434 634 434 1313 
Q 434 1759 690 2068 
Q 947 2378 1403 2484 
z
M 1172 3481 
Q 1172 3119 1398 2916 
Q 1625 2713 2034 2713 
Q 2441 2713 2670 2916 
Q 2900 3119 2900 3481 
Q 2900 3844 2670 4047 
Q 2441 4250 2034 4250 
Q 1625 4250 1398 4047 
Q 1172 3844 1172 3481 
z
" transform="scale(0.015625)"/>
       </defs>
       <use xlink:href="#DejaVuSans-30"/>
       <use xlink:href="#DejaVuSans-2e" x="63.623047"/>
       <use xlink:href="#DejaVuSans-38" x="95.410156"/>
      </g>
     </g>
    </g>
    <g id="xtick_6">
     <g id="line2d_6">
      <g>
       <use xlink:href="#mf9ab709ede" x="253.303125" y="253.44" style="stroke: #000000; stroke-width: 0.8"/>
      </g>
     </g>
     <g id="text_6">
      <!-- 1.0 -->
      <g transform="translate(245.351563 268.038437) scale(0.1 -0.1)">
       <defs>
        <path id="DejaVuSans-31" d="M 794 531 
L 1825 531 
L 1825 4091 
L 703 3866 
L 703 4441 
L 1819 4666 
L 2450 4666 
L 2450 531 
L 3481 531 
L 3481 0 
L 794 0 
L 794 531 
z
" transform="scale(0.015625)"/>
       </defs>
       <use xlink:href="#DejaVuSans-31"/>
       <use xlink:href="#DejaVuSans-2e" x="63.623047"/>
       <use xlink:href="#DejaVuSans-30" x="95.410156"/>
      </g>
     </g>
    </g>
    <g id="xtick_7">
     <g id="line2d_7">
      <g>
       <use xlink:href="#mf9ab709ede" x="297.943125" y="253.44" style="stroke: #000000; stroke-width: 0.8"/>
      </g>
     </g>
     <g id="text_7">
      <!-- 1.2 -->
      <g transform="translate(289.991563 268.038437) scale(0.1 -0.1)">
       <use xlink:href="#DejaVuSans-31"/>
       <use xlink:href="#DejaVuSans-2e" x="63.623047"/>
       <use xlink:href="#DejaVuSans-32" x="95.410156"/>
      </g>
     </g>
    </g>
    <g id="xtick_8">
     <g id="line2d_8">
      <g>
       <use xlink:href="#mf9ab709ede" x="342.583125" y="253.44" style="stroke: #000000; stroke-width: 0.8"/>
      </g>
     </g>
     <g id="text_8">
      <!-- 1.4 -->
      <g transform="translate(334.631563 268.038437) scale(0.1 -0.1)">
       <use xlink:href="#DejaVuSans-31"/>
       <use xlink:href="#DejaVuSans-2e" x="63.623047"/>
       <use xlink:href="#DejaVuSans-34" x="95.410156"/>
      </g>
     </g>
    </g>
   </g>
   <g id="matplotlib.axis_2">
    <g id="ytick_1">
     <g id="line2d_9">
      <defs>
       <path id="m582dbdd4b6" d="M 0 0 
L -3.5 0 
" style="stroke: #000000; stroke-width: 0.8"/>
      </defs>
      <g>
       <use xlink:href="#m582dbdd4b6" x="30.103125" y="235.419062" style="stroke: #000000; stroke-width: 0.8"/>
      </g>
     </g>
     <g id="text_9">
      <!-- 0.0 -->
      <g transform="translate(7.2 239.218281) scale(0.1 -0.1)">
       <use xlink:href="#DejaVuSans-30"/>
       <use xlink:href="#DejaVuSans-2e" x="63.623047"/>
       <use xlink:href="#DejaVuSans-30" x="95.410156"/>
      </g>
     </g>
    </g>
    <g id="ytick_2">
     <g id="line2d_10">
      <g>
       <use xlink:href="#m582dbdd4b6" x="30.103125" y="197.146101" style="stroke: #000000; stroke-width: 0.8"/>
      </g>
     </g>
     <g id="text_10">
      <!-- 0.2 -->
      <g transform="translate(7.2 200.94532) scale(0.1 -0.1)">
       <use xlink:href="#DejaVuSans-30"/>
       <use xlink:href="#DejaVuSans-2e" x="63.623047"/>
       <use xlink:href="#DejaVuSans-32" x="95.410156"/>
      </g>
     </g>
    </g>
    <g id="ytick_3">
     <g id="line2d_11">
      <g>
       <use xlink:href="#m582dbdd4b6" x="30.103125" y="158.87314" style="stroke: #000000; stroke-width: 0.8"/>
      </g>
     </g>
     <g id="text_11">
      <!-- 0.4 -->
      <g transform="translate(7.2 162.672359) scale(0.1 -0.1)">
       <use xlink:href="#DejaVuSans-30"/>
       <use xlink:href="#DejaVuSans-2e" x="63.623047"/>
       <use xlink:href="#DejaVuSans-34" x="95.410156"/>
      </g>
     </g>
    </g>
    <g id="ytick_4">
     <g id="line2d_12">
      <g>
       <use xlink:href="#m582dbdd4b6" x="30.103125" y="120.600179" style="stroke: #000000; stroke-width: 0.8"/>
      </g>
     </g>
     <g id="text_12">
      <!-- 0.6 -->
      <g transform="translate(7.2 124.399398) scale(0.1 -0.1)">
       <use xlink:href="#DejaVuSans-30"/>
       <use xlink:href="#DejaVuSans-2e" x="63.623047"/>
       <use xlink:href="#DejaVuSans-36" x="95.410156"/>
      </g>
     </g>
    </g>
    <g id="ytick_5">
     <g id="line2d_13">
      <g>
       <use xlink:href="#m582dbdd4b6" x="30.103125" y="82.327218" style="stroke: #000000; stroke-width: 0.8"/>
      </g>
     </g>
     <g id="text_13">
      <!-- 0.8 -->
      <g transform="translate(7.2 86.126437) scale(0.1 -0.1)">
       <use xlink:href="#DejaVuSans-30"/>
       <use xlink:href="#DejaVuSans-2e" x="63.623047"/>
       <use xlink:href="#DejaVuSans-38" x="95.410156"/>
      </g>
     </g>
    </g>
    <g id="ytick_6">
     <g id="line2d_14">
      <g>
       <use xlink:href="#m582dbdd4b6" x="30.103125" y="44.054257" style="stroke: #000000; stroke-width: 0.8"/>
      </g>
     </g>
     <g id="text_14">
      <!-- 1.0 -->
      <g transform="translate(7.2 47.853476) scale(0.1 -0.1)">
       <use xlink:href="#DejaVuSans-31"/>
       <use xlink:href="#DejaVuSans-2e" x="63.623047"/>
       <use xlink:href="#DejaVuSans-30" x="95.410156"/>
      </g>
     </g>
    </g>
   </g>
   <g id="line2d_15">
    <path d="M 30.326325 235.419062 
L 39.031125 235.419062 
L 39.700725 190.780619 
L 40.370325 157.711646 
L 41.039925 133.213549 
L 41.709525 115.064912 
L 42.379125 101.620071 
L 43.048725 91.659888 
L 43.718325 84.281203 
L 44.387925 78.814939 
L 45.057525 74.765431 
L 45.727125 71.765481 
L 46.396725 69.543064 
L 47.066325 67.896657 
L 47.959125 66.345209 
L 48.851925 65.305243 
L 49.744725 64.608133 
L 50.860725 64.050432 
L 52.199925 63.662548 
L 53.985525 63.402736 
L 56.887125 63.248514 
L 63.583125 63.193614 
L 156.434325 63.190738 
L 253.526325 63.190738 
L 254.195925 107.829181 
L 254.865525 140.898154 
L 255.535125 165.396251 
L 256.204725 183.544888 
L 256.874325 196.989728 
L 257.543925 206.949912 
L 258.213525 214.328597 
L 258.883125 219.794861 
L 259.552725 223.844369 
L 260.222325 226.844319 
L 260.891925 229.066736 
L 261.561525 230.713143 
L 262.454325 232.26459 
L 263.347125 233.304556 
L 264.239925 234.001667 
L 265.355925 234.559368 
L 266.695125 234.947252 
L 268.480725 235.207064 
L 271.382325 235.361286 
L 278.078325 235.416186 
L 364.903125 235.419062 
L 364.903125 235.419062 
" clip-path="url(#p7bc1f81859)" style="fill: none; stroke: #1f77b4; stroke-width: 1.5; stroke-linecap: square"/>
   </g>
   <g id="line2d_16">
    <path d="M 30.326325 235.419062 
L 30.772725 235.590802 
L 30.995925 234.617956 
L 31.219125 236.507633 
L 31.442325 240.973492 
L 31.665525 227.660096 
L 32.111925 234.973924 
L 32.335125 236.390822 
L 32.558325 240.565009 
L 32.781525 235.655686 
L 33.004725 239.112078 
L 33.451125 233.902461 
L 33.674325 234.140752 
L 34.120725 225.999818 
L 34.567125 229.546099 
L 34.790325 234.997427 
L 35.013525 235.463512 
L 35.236725 232.568605 
L 35.459925 232.326857 
L 35.683125 239.769001 
L 36.352725 243.41664 
L 36.575925 243.556364 
L 36.799125 236.673403 
L 37.022325 234.796565 
L 37.245525 237.644145 
L 37.468725 234.215064 
L 37.691925 227.295073 
L 37.915125 226.746581 
L 38.138325 229.547031 
L 38.584725 232.047451 
L 38.807925 234.458847 
L 39.031125 242.555658 
L 39.254325 238.250879 
L 39.477525 238.777353 
L 39.700725 228.58058 
L 39.923925 235.456257 
L 40.147125 228.52562 
L 40.370325 228.096191 
L 40.816725 229.502819 
L 41.263125 225.983103 
L 41.709525 232.834263 
L 41.932725 233.292876 
L 42.379125 222.432272 
L 42.602325 221.55685 
L 42.825525 225.693768 
L 43.048725 227.171724 
L 43.271925 225.581817 
L 43.495125 226.044693 
L 43.941525 232.246365 
L 44.164725 230.44128 
L 44.387925 231.913433 
L 44.611125 228.148346 
L 44.834325 221.453189 
L 45.057525 221.889127 
L 45.280725 224.381916 
L 45.727125 223.025049 
L 45.950325 221.313159 
L 46.173525 221.949946 
L 46.396725 219.920399 
L 46.619925 219.294225 
L 46.843125 221.747256 
L 47.066325 222.153928 
L 47.289525 222.167433 
L 47.512725 218.951948 
L 47.735925 218.39297 
L 47.959125 225.735639 
L 48.182325 222.004808 
L 48.405525 220.974844 
L 48.628725 219.23441 
L 48.851925 216.563806 
L 49.075125 219.394283 
L 49.298325 224.405423 
L 49.521525 224.455833 
L 49.744725 221.860731 
L 49.967925 220.877475 
L 50.191125 221.741339 
L 50.414325 216.039264 
L 50.860725 223.057387 
L 51.083925 224.668337 
L 51.307125 216.147532 
L 51.753525 217.639792 
L 51.976725 214.953434 
L 52.199925 214.243915 
L 52.423125 214.988233 
L 52.646325 220.759993 
L 52.869525 213.961399 
L 53.092725 214.331559 
L 53.315925 213.752251 
L 53.762325 219.05148 
L 53.985525 219.852273 
L 54.208725 223.696775 
L 54.431925 225.450561 
L 54.655125 223.58775 
L 55.101525 206.446356 
L 55.324725 206.14167 
L 55.994325 210.618082 
L 56.217525 219.962912 
L 56.440725 217.602019 
L 56.663925 217.459913 
L 56.887125 215.690965 
L 57.110325 217.836392 
L 57.333525 217.801664 
L 57.556725 213.353593 
L 57.779925 214.318776 
L 58.003125 216.039443 
L 58.226325 212.336042 
L 58.449525 213.01109 
L 58.672725 210.398735 
L 59.119125 215.907655 
L 59.342325 215.89658 
L 59.565525 214.189613 
L 59.788725 204.865621 
L 60.011925 208.023883 
L 60.235125 207.329596 
L 60.458325 205.315534 
L 60.681525 206.553077 
L 61.127925 219.154942 
L 61.351125 213.303529 
L 61.574325 214.128331 
L 61.797525 216.335234 
L 62.020725 205.101733 
L 62.243925 206.050219 
L 62.690325 216.638121 
L 62.913525 212.614747 
L 63.136725 211.382757 
L 63.359925 211.354838 
L 63.583125 210.726877 
L 63.806325 206.506665 
L 64.029525 210.356177 
L 64.699125 201.292603 
L 64.922325 201.912952 
L 65.591925 214.428108 
L 65.815125 210.934802 
L 66.038325 217.501893 
L 66.707925 201.034439 
L 66.931125 199.411975 
L 67.154325 200.929473 
L 67.377525 206.963752 
L 67.600725 209.521993 
L 67.823925 201.5984 
L 68.047125 204.985498 
L 68.493525 207.393384 
L 68.716725 201.461031 
L 68.939925 199.092969 
L 69.609525 204.69491 
L 69.832725 203.286823 
L 70.055925 200.229245 
L 70.279125 204.495519 
L 70.502325 212.342119 
L 70.725525 211.077441 
L 70.948725 208.837513 
L 71.171925 199.210429 
L 71.395125 198.868091 
L 71.618325 200.659303 
L 72.064725 193.204626 
L 72.287925 195.073321 
L 72.511125 198.746647 
L 72.734325 205.943405 
L 72.957525 202.397292 
L 73.180725 202.286689 
L 73.627125 202.968975 
L 74.073525 193.725935 
L 74.296725 196.578049 
L 74.519925 201.911688 
L 74.743125 197.974822 
L 74.966325 199.186333 
L 75.189525 204.152275 
L 75.412725 199.367396 
L 75.635925 199.029111 
L 76.082325 196.535052 
L 76.305525 192.074927 
L 76.751925 199.357456 
L 76.975125 200.501624 
L 77.198325 203.319933 
L 77.421525 201.702366 
L 78.091125 188.99003 
L 78.314325 187.795557 
L 78.760725 196.082178 
L 78.983925 195.114191 
L 79.207125 195.632227 
L 79.430325 192.331578 
L 79.876725 189.882176 
L 80.099925 194.858657 
L 80.323125 190.74666 
L 80.769525 195.621402 
L 80.992725 190.179136 
L 81.215925 192.341079 
L 81.439125 196.350282 
L 81.662325 196.741131 
L 81.885525 196.665154 
L 82.108725 196.19112 
L 82.331925 196.326293 
L 82.555125 194.164507 
L 82.778325 190.713572 
L 83.001525 190.761069 
L 83.224725 196.134043 
L 83.447925 193.625764 
L 83.671125 193.102102 
L 83.894325 187.793134 
L 84.117525 187.277466 
L 84.340725 188.469761 
L 84.563925 191.000989 
L 84.787125 192.156179 
L 85.010325 198.659987 
L 85.233525 196.085899 
L 85.456725 200.57514 
L 85.679925 196.566733 
L 85.903125 188.997804 
L 86.126325 177.521421 
L 86.349525 179.45704 
L 86.572725 186.704737 
L 86.795925 187.652605 
L 87.688725 195.267393 
L 88.358325 186.807187 
L 88.581525 186.209427 
L 88.804725 189.043548 
L 89.027925 186.326475 
L 89.251125 185.306351 
L 89.474325 186.446631 
L 89.697525 193.876101 
L 90.143925 182.531256 
L 90.367125 189.88571 
L 90.590325 189.859415 
L 90.813525 194.100495 
L 91.036725 189.439243 
L 91.259925 190.312752 
L 91.483125 192.084165 
L 91.929525 178.381215 
L 92.152725 175.754097 
L 92.375925 175.909354 
L 92.822325 181.763745 
L 93.045525 180.885929 
L 93.268725 182.028587 
L 93.491925 179.904526 
L 93.715125 180.921973 
L 93.938325 184.897535 
L 94.161525 183.224981 
L 94.384725 187.624213 
L 94.607925 184.055598 
L 95.054325 185.541464 
L 95.277525 187.615135 
L 95.500725 182.885845 
L 95.947125 180.358537 
L 96.170325 169.138378 
L 96.616725 177.132149 
L 96.839925 177.366881 
L 97.063125 182.76723 
L 97.509525 181.056323 
L 97.732725 179.768188 
L 97.955925 182.868722 
L 98.179125 182.176604 
L 98.402325 183.557361 
L 98.625525 174.814749 
L 98.848725 182.264823 
L 99.071925 182.10422 
L 99.295125 176.370056 
L 99.518325 181.723939 
L 99.741525 178.155546 
L 99.964725 181.72499 
L 100.187925 180.618204 
L 100.411125 183.333355 
L 100.634325 175.727705 
L 100.857525 175.224059 
L 101.080725 176.151148 
L 101.303925 172.922397 
L 101.527125 175.373639 
L 101.750325 173.139194 
L 101.973525 177.106741 
L 102.196725 175.629799 
L 102.419925 172.540644 
L 102.643125 171.933151 
L 102.866325 173.024754 
L 103.089525 175.676344 
L 103.535925 173.241802 
L 103.759125 169.334175 
L 103.982325 175.506368 
L 104.205525 175.707437 
L 104.428725 176.127559 
L 104.651925 175.549001 
L 104.875125 172.663536 
L 105.098325 173.387572 
L 105.321525 173.66483 
L 105.544725 169.330188 
L 105.767925 173.491586 
L 105.991125 171.146276 
L 106.437525 179.867368 
L 106.660725 170.335144 
L 106.883925 169.51778 
L 107.107125 175.425826 
L 107.330325 168.391532 
L 107.553525 173.142244 
L 107.776725 168.981537 
L 107.999925 167.67708 
L 108.223125 172.540103 
L 108.446325 171.70722 
L 108.892725 173.932097 
L 109.339125 166.525972 
L 109.562325 164.73495 
L 109.785525 167.118174 
L 110.008725 162.210912 
L 110.455125 173.083538 
L 110.678325 172.138697 
L 110.901525 172.718115 
L 111.124725 168.252038 
L 111.347925 174.824354 
L 111.571125 172.228117 
L 111.794325 171.121024 
L 112.017525 174.24006 
L 112.240725 174.736915 
L 112.463925 170.632312 
L 112.687125 173.000556 
L 113.579925 157.732484 
L 113.803125 156.892412 
L 114.026325 166.229016 
L 114.472725 173.822333 
L 114.695925 173.557068 
L 114.919125 170.25261 
L 115.142325 172.440514 
L 115.365525 163.880507 
L 115.588725 165.366559 
L 115.811925 164.342041 
L 116.035125 164.722084 
L 116.258325 165.919052 
L 116.481525 165.661207 
L 116.704725 163.700432 
L 116.927925 158.007686 
L 117.151125 161.583022 
L 117.374325 159.599679 
L 118.043925 164.944758 
L 118.267125 160.878974 
L 118.490325 163.058134 
L 118.713525 162.13167 
L 118.936725 166.759417 
L 119.159925 165.939528 
L 119.383125 170.889588 
L 119.606325 166.880481 
L 119.829525 168.045525 
L 120.052725 170.82624 
L 120.275925 169.246087 
L 120.499125 156.688097 
L 120.722325 158.594442 
L 120.945525 158.084575 
L 121.168725 154.926938 
L 121.391925 162.746595 
L 121.615125 158.280939 
L 121.838325 159.972311 
L 122.061525 156.086511 
L 122.284725 157.579941 
L 122.507925 157.784922 
L 122.954325 161.274737 
L 123.177525 168.192285 
L 123.400725 169.918244 
L 123.847125 155.247652 
L 124.070325 152.742046 
L 124.293525 156.896576 
L 124.516725 164.294932 
L 124.739925 164.186446 
L 124.963125 154.859704 
L 125.186325 160.084218 
L 125.409525 162.546723 
L 125.632725 157.46387 
L 125.855925 155.199542 
L 126.079125 161.494856 
L 126.302325 161.837392 
L 126.525525 162.804076 
L 126.748725 160.409426 
L 126.971925 153.178224 
L 127.418325 147.861743 
L 127.641525 149.603571 
L 127.864725 148.569522 
L 128.087925 153.485503 
L 128.311125 162.152676 
L 128.534325 161.533082 
L 128.757525 161.358924 
L 128.980725 159.129581 
L 129.203925 161.515941 
L 129.650325 150.960847 
L 130.096725 155.975299 
L 130.319925 156.731397 
L 130.543125 158.079864 
L 130.766325 156.479634 
L 131.212725 150.451289 
L 131.435925 150.381163 
L 131.659125 148.969843 
L 131.882325 149.999157 
L 132.105525 154.999528 
L 132.551925 154.002397 
L 132.775125 159.691467 
L 132.998325 156.533335 
L 133.221525 158.607697 
L 133.667925 149.928692 
L 133.891125 149.854108 
L 134.114325 145.683361 
L 134.337525 147.655578 
L 134.560725 151.630581 
L 134.783925 158.280055 
L 135.230325 144.776315 
L 135.453525 153.239958 
L 135.676725 155.596581 
L 135.899925 156.249901 
L 136.123125 161.015723 
L 136.346325 159.063143 
L 136.792725 144.087821 
L 137.015925 145.583787 
L 137.239125 150.823781 
L 137.462325 145.063231 
L 137.685525 143.700185 
L 137.908725 140.51689 
L 138.131925 141.203459 
L 138.355125 141.288879 
L 138.578325 146.36044 
L 138.801525 153.998196 
L 139.024725 154.144656 
L 139.247925 157.770394 
L 139.471125 151.560824 
L 139.694325 149.089193 
L 140.140725 139.353001 
L 140.363925 139.546295 
L 140.587125 150.177658 
L 140.810325 145.019111 
L 141.256725 153.926495 
L 141.703125 139.001396 
L 141.926325 148.067371 
L 142.149525 145.052753 
L 142.372725 153.435733 
L 142.595925 152.86936 
L 142.819125 148.809658 
L 143.042325 148.818847 
L 143.265525 152.384236 
L 143.711925 134.389911 
L 143.935125 133.604621 
L 144.158325 139.204171 
L 144.381525 151.070247 
L 144.604725 148.781397 
L 144.827925 149.387547 
L 145.051125 150.646349 
L 145.274325 141.430653 
L 145.497525 145.237751 
L 145.720725 144.645275 
L 145.943925 142.368159 
L 146.167125 143.099608 
L 146.390325 141.050194 
L 146.613525 141.341127 
L 146.836725 142.235696 
L 147.059925 142.590687 
L 147.283125 142.339018 
L 147.506325 142.664935 
L 147.729525 137.272373 
L 147.952725 142.471672 
L 148.175925 143.466638 
L 148.622325 148.520425 
L 148.845525 145.784958 
L 149.291925 132.017402 
L 149.515125 135.938269 
L 149.738325 143.186611 
L 149.961525 144.7633 
L 150.184725 148.378224 
L 150.854325 123.961724 
L 151.077525 133.271375 
L 151.300725 136.86554 
L 151.523925 145.137759 
L 151.747125 146.339036 
L 151.970325 139.471192 
L 152.193525 141.906622 
L 152.639925 127.382992 
L 153.309525 137.74733 
L 153.532725 142.058969 
L 153.755925 142.721981 
L 153.979125 139.038452 
L 154.202325 140.157199 
L 154.425525 137.091196 
L 154.648725 128.351763 
L 154.871925 131.684624 
L 155.095125 130.988172 
L 155.318325 135.544153 
L 155.764725 137.046149 
L 155.987925 133.574096 
L 156.211125 135.569014 
L 156.434325 134.856625 
L 156.657525 142.662059 
L 156.880725 143.990873 
L 157.103925 133.475147 
L 157.327125 136.540853 
L 157.550325 128.443371 
L 157.773525 129.398058 
L 157.996725 133.553176 
L 158.219925 134.87857 
L 158.443125 138.843561 
L 158.666325 138.308425 
L 158.889525 139.047424 
L 159.559125 129.233626 
L 159.782325 130.060582 
L 160.005525 130.160435 
L 160.228725 131.682852 
L 160.451925 130.348266 
L 160.898325 135.923213 
L 161.121525 131.626775 
L 161.344725 124.344308 
L 161.567925 121.911595 
L 161.791125 124.688986 
L 162.237525 136.852327 
L 162.460725 136.295866 
L 162.683925 132.831743 
L 162.907125 127.006409 
L 163.130325 127.281872 
L 163.353525 128.045035 
L 163.576725 128.204218 
L 163.799925 128.855042 
L 164.023125 127.976217 
L 164.469525 122.290196 
L 165.139125 129.68994 
L 165.362325 130.918178 
L 165.585525 131.197143 
L 165.808725 133.365363 
L 166.031925 127.490178 
L 166.255125 132.913105 
L 166.478325 125.202173 
L 166.701525 124.691624 
L 166.924725 127.856931 
L 167.147925 126.456367 
L 167.371125 127.309164 
L 167.817525 121.687079 
L 168.040725 123.919822 
L 168.263925 124.244521 
L 168.487125 124.074271 
L 168.933525 129.680081 
L 169.379925 127.983199 
L 169.603125 123.258739 
L 169.826325 128.001288 
L 170.049525 118.595559 
L 170.272725 115.493623 
L 170.495925 123.011264 
L 170.719125 121.398442 
L 170.942325 125.002826 
L 171.165525 126.005309 
L 171.388725 120.513044 
L 171.611925 120.468008 
L 171.835125 116.240319 
L 172.281525 125.979004 
L 172.504725 118.681959 
L 172.727925 121.262018 
L 172.951125 119.295894 
L 173.174325 122.074891 
L 173.397525 118.0142 
L 173.620725 118.792934 
L 173.843925 121.514012 
L 174.067125 118.049863 
L 174.290325 120.850739 
L 174.513525 121.260657 
L 174.736725 120.964596 
L 174.959925 116.649695 
L 175.406325 121.529013 
L 175.629525 118.423328 
L 176.075925 126.761421 
L 176.299125 126.327462 
L 176.522325 118.24074 
L 176.745525 118.61463 
L 176.968725 122.086701 
L 177.191925 117.242469 
L 177.415125 117.2626 
L 177.638325 119.330753 
L 177.861525 119.941434 
L 178.084725 115.665194 
L 178.307925 118.512701 
L 178.531125 117.054373 
L 178.754325 118.259239 
L 179.200725 108.070696 
L 179.423925 108.58774 
L 180.093525 119.568781 
L 180.316725 115.846224 
L 180.539925 122.785808 
L 180.986325 111.73636 
L 181.655925 118.356635 
L 181.879125 115.899187 
L 182.102325 108.509335 
L 182.325525 111.184997 
L 182.548725 118.328534 
L 182.771925 112.775772 
L 183.218325 108.758267 
L 183.441525 108.562248 
L 183.664725 110.242861 
L 183.887925 115.17404 
L 184.111125 115.412857 
L 184.334325 114.062141 
L 184.557525 105.819849 
L 185.227125 112.360352 
L 185.450325 111.983747 
L 185.673525 110.254019 
L 185.896725 110.962515 
L 186.119925 110.440625 
L 186.343125 107.727781 
L 186.566325 114.696381 
L 186.789525 114.530667 
L 187.012725 110.018414 
L 187.235925 114.134315 
L 187.459125 106.990034 
L 187.682325 104.076985 
L 187.905525 108.404026 
L 188.128725 107.091507 
L 188.351925 109.41815 
L 188.575125 109.885598 
L 188.798325 115.202148 
L 189.021525 116.361864 
L 189.244725 113.334763 
L 189.467925 105.236499 
L 189.691125 102.629447 
L 189.914325 104.656981 
L 190.137525 103.826136 
L 190.360725 110.85653 
L 190.807125 105.827261 
L 191.030325 107.654645 
L 191.253525 103.107544 
L 191.476725 108.234222 
L 191.699925 102.7895 
L 191.923125 103.153949 
L 192.146325 102.478618 
L 192.369525 106.076963 
L 192.592725 102.772594 
L 193.039125 109.260092 
L 193.262325 105.743509 
L 193.485525 105.761494 
L 193.708725 100.301975 
L 194.155125 105.078751 
L 194.378325 108.067059 
L 194.601525 102.831668 
L 194.824725 103.554164 
L 195.047925 108.415809 
L 195.271125 103.041753 
L 195.717525 110.309108 
L 195.940725 103.647188 
L 196.163925 100.610492 
L 196.387125 102.663416 
L 196.610325 100.233984 
L 196.833525 100.379464 
L 197.056725 100.98899 
L 197.279925 104.188466 
L 197.503125 95.455648 
L 197.726325 97.473506 
L 197.949525 98.243063 
L 198.172725 107.167265 
L 198.395925 104.013767 
L 198.619125 102.451616 
L 198.842325 97.595017 
L 199.065525 97.514159 
L 199.288725 99.905699 
L 199.511925 99.356961 
L 199.735125 101.11216 
L 200.181525 99.513206 
L 200.404725 100.015898 
L 200.627925 101.261794 
L 201.074325 99.808014 
L 201.297525 101.475498 
L 201.520725 101.997808 
L 201.743925 99.848539 
L 201.967125 94.547949 
L 202.190325 95.66873 
L 202.413525 88.514605 
L 202.636725 96.758084 
L 202.859925 98.753771 
L 203.083125 103.741482 
L 203.306325 101.612091 
L 203.529525 93.829373 
L 203.752725 93.04966 
L 203.975925 93.690705 
L 204.199125 91.236633 
L 204.422325 98.518228 
L 204.645525 99.487164 
L 204.868725 98.593303 
L 205.091925 102.36967 
L 205.315125 99.610299 
L 205.538325 85.814898 
L 205.761525 91.908451 
L 206.207925 97.699923 
L 206.431125 97.70381 
L 206.877525 94.648696 
L 207.100725 94.151064 
L 207.323925 89.81336 
L 207.547125 88.416741 
L 207.770325 90.389755 
L 207.993525 89.236859 
L 208.216725 91.026532 
L 208.439925 98.145826 
L 208.663125 92.830463 
L 208.886325 95.964482 
L 209.109525 95.138954 
L 209.332725 93.163316 
L 209.779125 84.862883 
L 210.225525 99.334419 
L 210.448725 96.168826 
L 210.671925 96.697531 
L 210.895125 95.701596 
L 211.118325 89.137832 
L 211.341525 89.040037 
L 211.564725 89.820037 
L 211.787925 88.811264 
L 212.234325 95.581538 
L 212.457525 90.976523 
L 212.680725 92.493506 
L 212.903925 87.539893 
L 213.127125 88.07163 
L 213.350325 93.941505 
L 213.573525 88.758106 
L 213.796725 87.495429 
L 214.019925 81.289652 
L 214.466325 87.423704 
L 214.689525 95.208634 
L 214.912725 88.414598 
L 215.135925 88.523936 
L 215.359125 88.437012 
L 215.582325 80.537797 
L 215.805525 84.704756 
L 216.028725 82.811625 
L 216.475125 86.677733 
L 216.698325 92.358115 
L 216.921525 85.136502 
L 217.144725 85.390889 
L 217.367925 79.87888 
L 217.591125 82.263551 
L 218.037525 93.596824 
L 218.260725 92.943134 
L 218.483925 84.468162 
L 218.707125 83.68989 
L 218.930325 79.484229 
L 219.153525 86.576042 
L 219.376725 86.99518 
L 219.599925 90.895721 
L 220.046325 84.755223 
L 220.269525 88.619531 
L 220.492725 80.263963 
L 220.715925 87.414671 
L 220.939125 81.570657 
L 221.162325 82.792172 
L 221.385525 82.93531 
L 221.608725 83.685397 
L 221.831925 87.345612 
L 222.055125 84.20094 
L 222.278325 78.13727 
L 222.501525 83.359329 
L 222.724725 72.257565 
L 222.947925 79.479048 
L 223.171125 79.836492 
L 223.394325 83.522213 
L 223.617525 80.719933 
L 223.840725 84.333959 
L 224.063925 85.442951 
L 224.287125 76.860552 
L 224.510325 79.387946 
L 224.733525 75.410842 
L 224.956725 79.360529 
L 225.179925 75.694325 
L 225.403125 85.950359 
L 225.626325 83.776303 
L 225.849525 80.34096 
L 226.072725 81.180333 
L 226.295925 80.498528 
L 226.519125 84.208637 
L 226.965525 80.442639 
L 227.188725 77.029635 
L 227.411925 79.084678 
L 227.858325 76.038962 
L 228.081525 78.394083 
L 228.304725 85.810705 
L 228.527925 79.972658 
L 228.751125 80.63822 
L 229.197525 77.424316 
L 229.420725 72.626484 
L 229.643925 73.901124 
L 229.867125 72.415347 
L 230.090325 76.63613 
L 230.313525 74.758218 
L 230.536725 75.398317 
L 230.759925 75.409539 
L 230.983125 74.878294 
L 231.429525 79.944457 
L 231.652725 75.366202 
L 231.875925 67.822238 
L 232.099125 73.455214 
L 232.322325 70.736132 
L 232.768725 78.219404 
L 232.991925 71.982283 
L 233.215125 75.59069 
L 233.438325 71.649433 
L 233.661525 73.296979 
L 233.884725 73.76167 
L 234.107925 76.578667 
L 234.331125 71.221428 
L 234.554325 70.889512 
L 234.777525 74.88815 
L 235.000725 71.519474 
L 235.223925 74.111045 
L 235.447125 65.906437 
L 235.893525 73.423447 
L 236.116725 71.879271 
L 236.339925 73.508987 
L 236.563125 77.716316 
L 237.009525 64.711713 
L 237.232725 67.565159 
L 237.455925 73.608427 
L 237.679125 76.42667 
L 238.348725 70.543881 
L 238.571925 70.565308 
L 238.795125 68.818113 
L 239.018325 70.52348 
L 239.241525 66.049962 
L 239.464725 65.616912 
L 239.687925 64.43483 
L 240.134325 72.741215 
L 240.357525 70.550107 
L 240.580725 69.73583 
L 240.803925 72.335057 
L 241.027125 61.144604 
L 241.250325 61.410513 
L 241.473525 63.807854 
L 241.696725 68.627165 
L 241.919925 63.839413 
L 242.143125 64.488637 
L 242.366325 73.343789 
L 242.589525 66.241162 
L 242.812725 65.946177 
L 243.035925 66.624366 
L 243.482325 59.889965 
L 243.705525 61.900631 
L 243.928725 62.345411 
L 244.151925 61.560946 
L 244.598325 71.503202 
L 244.821525 68.024983 
L 245.044725 62.208882 
L 245.267925 67.108493 
L 245.491125 54.768411 
L 245.714325 61.099112 
L 245.937525 70.595476 
L 246.160725 68.876147 
L 246.383925 61.670657 
L 246.607125 58.101073 
L 247.053525 65.465948 
L 247.276725 65.691259 
L 247.499925 64.381616 
L 247.723125 61.298633 
L 247.946325 55.046287 
L 248.169525 59.65596 
L 248.392725 60.806846 
L 248.615925 60.75966 
L 248.839125 66.641028 
L 249.062325 60.700575 
L 249.285525 59.546793 
L 249.508725 65.403635 
L 249.731925 62.941494 
L 249.955125 55.650316 
L 250.178325 55.49438 
L 250.401525 61.423377 
L 250.624725 55.627677 
L 250.847925 58.446881 
L 251.071125 58.218738 
L 251.294325 53.915488 
L 251.517525 60.685883 
L 251.740725 60.348506 
L 251.963925 61.774868 
L 252.187125 59.700734 
L 252.410325 52.612774 
L 252.633525 50.68245 
L 252.856725 54.570998 
L 253.079925 55.78589 
L 253.303125 59.490918 
L 253.526325 65.244126 
L 253.749525 53.113823 
L 253.972725 58.367271 
L 254.195925 58.264461 
L 254.419125 54.491719 
L 254.642325 56.417601 
L 254.865525 57.186026 
L 255.088725 59.239342 
L 255.311925 54.880387 
L 255.535125 59.145956 
L 255.758325 68.344771 
L 255.981525 60.868102 
L 256.204725 58.911415 
L 256.427925 61.029467 
L 256.651125 59.690724 
L 256.874325 62.450017 
L 257.097525 62.510891 
L 257.320725 57.479847 
L 257.543925 56.79916 
L 257.767125 55.727688 
L 258.436725 69.290338 
L 258.659925 66.608795 
L 258.883125 71.040875 
L 259.106325 60.627419 
L 259.329525 66.100887 
L 259.552725 54.961493 
L 259.775925 56.070878 
L 259.999125 63.712008 
L 260.222325 65.368916 
L 260.445525 62.847185 
L 260.668725 73.267266 
L 260.891925 63.725388 
L 261.115125 59.873416 
L 261.338325 60.21313 
L 261.561525 53.352164 
L 261.784725 61.54106 
L 262.007925 64.480233 
L 262.231125 63.711826 
L 262.454325 65.08535 
L 262.677525 63.065035 
L 262.900725 64.334999 
L 263.123925 66.89923 
L 263.570325 60.72372 
L 263.793525 60.129218 
L 264.016725 60.337173 
L 264.239925 62.26807 
L 264.463125 58.894498 
L 264.909525 69.745608 
L 265.132725 60.002321 
L 265.355925 63.516087 
L 265.579125 62.087574 
L 265.802325 58.075323 
L 266.025525 68.328878 
L 266.248725 62.107281 
L 266.471925 61.596295 
L 266.695125 65.511553 
L 266.918325 60.19306 
L 267.141525 58.939182 
L 267.587925 68.8146 
L 267.811125 66.07091 
L 268.034325 57.01101 
L 268.257525 59.985091 
L 268.703925 61.093789 
L 269.150325 67.330092 
L 269.373525 64.141923 
L 269.596725 64.287491 
L 269.819925 63.205915 
L 270.043125 58.831782 
L 270.266325 63.715209 
L 270.489525 62.523891 
L 270.712725 64.335607 
L 270.935925 60.152583 
L 271.159125 61.394856 
L 271.382325 67.796608 
L 271.828725 59.988592 
L 272.051925 66.018828 
L 272.275125 64.799691 
L 272.498325 60.513851 
L 272.721525 64.662594 
L 272.944725 59.181945 
L 273.167925 59.038429 
L 273.614325 67.963936 
L 273.837525 62.563573 
L 274.060725 66.624101 
L 274.283925 60.512406 
L 274.730325 57.7963 
L 274.953525 64.422639 
L 275.176725 65.295777 
L 275.399925 53.169689 
L 275.623125 60.753667 
L 275.846325 60.850479 
L 276.515925 65.061163 
L 276.739125 64.27809 
L 276.962325 62.55373 
L 277.185525 54.868192 
L 277.631925 64.931379 
L 277.855125 59.620247 
L 278.078325 64.447028 
L 278.301525 65.315373 
L 278.524725 62.998464 
L 278.747925 69.342813 
L 278.971125 63.009141 
L 279.194325 64.131598 
L 279.417525 57.976713 
L 279.640725 66.823311 
L 279.863925 59.104646 
L 280.087125 59.793035 
L 280.310325 62.809231 
L 280.533525 64.219849 
L 280.979925 69.809259 
L 281.426325 53.869616 
L 281.649525 58.301036 
L 281.872725 60.122169 
L 282.095925 65.958325 
L 282.319125 67.610824 
L 282.542325 57.629505 
L 282.765525 56.981601 
L 282.988725 63.438719 
L 283.435125 65.802888 
L 283.658325 63.540254 
L 284.104725 56.006118 
L 284.327925 60.817272 
L 284.551125 62.739014 
L 284.774325 66.314016 
L 284.997525 61.261319 
L 285.220725 60.581176 
L 285.443925 61.57971 
L 285.667125 59.884814 
L 285.890325 64.851469 
L 286.113525 65.413122 
L 286.336725 55.312068 
L 286.559925 59.924901 
L 286.783125 62.035435 
L 287.006325 66.77857 
L 287.229525 65.162525 
L 287.452725 61.25042 
L 287.675925 63.435208 
L 287.899125 57.732487 
L 288.122325 63.543325 
L 288.345525 63.630986 
L 288.568725 63.476495 
L 288.791925 53.852994 
L 289.238325 66.09522 
L 289.461525 70.620579 
L 289.684725 65.895978 
L 289.907925 54.679355 
L 290.354325 63.206855 
L 290.577525 66.019671 
L 290.800725 65.02475 
L 291.023925 63.227278 
L 291.247125 52.913758 
L 291.470325 53.434779 
L 291.693525 63.979966 
L 291.916725 63.666174 
L 292.139925 67.642008 
L 292.363125 62.292201 
L 292.586325 62.517946 
L 292.809525 58.727111 
L 293.032725 63.760569 
L 293.255925 64.127648 
L 293.479125 52.833829 
L 293.702325 57.619928 
L 293.925525 66.943794 
L 294.148725 64.584065 
L 294.371925 65.367552 
L 294.595125 67.610255 
L 295.041525 60.763737 
L 295.264725 57.256454 
L 295.711125 62.35866 
L 295.934325 62.959319 
L 296.157525 62.869962 
L 296.380725 63.93505 
L 296.827125 60.674016 
L 297.050325 56.118755 
L 297.273525 55.876421 
L 297.719925 70.499875 
L 297.943125 68.405705 
L 298.389525 53.029097 
L 298.612725 54.692532 
L 298.835925 58.546469 
L 299.059125 71.136666 
L 299.282325 71.197311 
L 299.505525 63.748304 
L 299.728725 45.883636 
L 299.951925 48.773049 
L 300.398325 70.235491 
L 300.621525 69.0404 
L 300.844725 70.875623 
L 301.067925 59.54614 
L 301.291125 56.858821 
L 301.737525 58.847244 
L 301.960725 63.329517 
L 302.183925 72.140396 
L 302.407125 63.809573 
L 302.630325 59.711794 
L 302.853525 58.283795 
L 303.076725 62.654659 
L 303.299925 59.162384 
L 303.523125 61.757584 
L 303.746325 66.560699 
L 303.969525 67.209452 
L 304.192725 61.174989 
L 304.415925 58.824609 
L 304.639125 60.513512 
L 304.862325 58.288189 
L 305.085525 62.794512 
L 305.308725 58.739786 
L 305.755125 62.909419 
L 305.978325 65.530808 
L 306.201525 63.158182 
L 306.424725 58.850216 
L 306.647925 59.295298 
L 306.871125 61.227752 
L 307.094325 60.548782 
L 307.317525 63.197497 
L 307.540725 67.96315 
L 307.763925 59.372248 
L 307.987125 57.077209 
L 308.210325 63.751588 
L 308.433525 63.382848 
L 308.656725 64.418265 
L 308.879925 61.181248 
L 309.103125 63.336679 
L 309.326325 59.296536 
L 309.549525 61.770285 
L 309.772725 66.027733 
L 309.995925 56.066436 
L 310.219125 63.387502 
L 310.442325 63.005153 
L 310.665525 55.218415 
L 310.888725 57.068035 
L 311.111925 64.099844 
L 311.335125 58.537058 
L 311.558325 61.605598 
L 311.781525 67.624314 
L 312.004725 65.743355 
L 312.227925 55.671644 
L 312.451125 56.255116 
L 312.674325 60.276862 
L 312.897525 61.293351 
L 313.120725 68.405054 
L 313.567125 56.063572 
L 313.790325 58.852526 
L 314.013525 63.851865 
L 314.236725 63.071932 
L 314.459925 61.759085 
L 314.683125 64.893771 
L 314.906325 59.131185 
L 315.129525 60.124851 
L 315.352725 59.482716 
L 315.799125 66.098438 
L 316.022325 58.070291 
L 316.245525 55.370765 
L 316.691925 62.853433 
L 316.915125 64.992188 
L 317.138325 65.32801 
L 317.361525 60.380054 
L 317.584725 60.319725 
L 317.807925 56.752243 
L 318.254325 67.070856 
L 318.477525 62.535696 
L 318.700725 60.632949 
L 319.147125 52.603857 
L 319.370325 65.105838 
L 319.593525 64.700592 
L 319.816725 69.473506 
L 320.486325 51.378874 
L 320.709525 57.978728 
L 320.932725 57.76886 
L 321.155925 66.045182 
L 321.379125 67.758903 
L 321.825525 54.668106 
L 322.048725 55.889806 
L 322.271925 58.22076 
L 322.495125 62.544107 
L 322.718325 62.280944 
L 322.941525 67.030677 
L 323.164725 67.972783 
L 323.387925 47.101138 
L 323.834325 57.698544 
L 324.503925 67.667611 
L 324.727125 57.827 
L 324.950325 52.924038 
L 325.396725 62.938065 
L 325.619925 59.36405 
L 325.843125 65.523571 
L 326.066325 66.0707 
L 326.289525 58.819393 
L 326.512725 58.531664 
L 326.735925 64.970175 
L 326.959125 60.792777 
L 327.182325 61.63605 
L 327.405525 65.427587 
L 327.628725 61.447646 
L 327.851925 54.978287 
L 328.075125 57.257944 
L 328.521525 69.925102 
L 328.967925 56.109191 
L 329.191125 61.797336 
L 329.637525 53.772836 
L 330.083925 69.624106 
L 330.307125 60.260466 
L 330.530325 56.75354 
L 330.753525 64.056206 
L 330.976725 59.772943 
L 331.199925 59.971415 
L 331.423125 63.89348 
L 331.646325 63.427245 
L 331.869525 56.572537 
L 332.092725 54.653206 
L 332.315925 54.904774 
L 332.539125 62.769214 
L 332.762325 63.408081 
L 332.985525 61.077297 
L 333.208725 60.366043 
L 333.431925 58.50201 
L 333.655125 59.651195 
L 334.101525 63.787834 
L 334.324725 58.760701 
L 334.547925 60.546599 
L 334.771125 54.413896 
L 335.440725 66.275256 
L 335.663925 64.02889 
L 335.887125 60.282448 
L 336.333525 56.41387 
L 336.556725 63.731113 
L 336.779925 63.476944 
L 337.003125 63.70414 
L 337.226325 58.9271 
L 337.449525 58.849016 
L 337.672725 49.94939 
L 337.895925 60.92635 
L 338.565525 65.721646 
L 339.235125 58.833439 
L 339.458325 49.873881 
L 339.681525 60.974726 
L 339.904725 64.99032 
L 340.127925 66.812565 
L 340.351125 57.540786 
L 340.574325 60.514662 
L 340.797525 55.331182 
L 341.243925 63.123144 
L 341.467125 64.331057 
L 341.913525 54.134698 
L 342.136725 55.186304 
L 342.806325 70.740186 
L 343.029525 63.576172 
L 343.252725 50.463255 
L 343.475925 54.509095 
L 343.922325 65.231426 
L 344.145525 64.299112 
L 344.368725 55.99091 
L 344.815125 58.699806 
L 345.038325 64.243561 
L 345.261525 66.196872 
L 345.931125 49.029203 
L 346.377525 69.852962 
L 346.600725 66.629179 
L 346.823925 67.394733 
L 347.047125 55.761361 
L 347.270325 55.107944 
L 348.163125 62.564041 
L 348.386325 61.61955 
L 348.609525 57.52099 
L 348.832725 58.626008 
L 349.502325 66.769381 
L 349.725525 56.615128 
L 349.948725 59.543635 
L 350.171925 54.729736 
L 350.395125 55.383322 
L 350.618325 59.85417 
L 350.841525 71.11211 
L 351.064725 66.885571 
L 351.287925 59.495103 
L 351.511125 55.869437 
L 352.180725 60.600894 
L 352.403925 63.319417 
L 352.627125 61.674087 
L 352.850325 56.086111 
L 353.073525 56.542886 
L 353.296725 60.540554 
L 353.519925 61.809821 
L 353.743125 60.494016 
L 353.966325 62.172797 
L 354.189525 59.639363 
L 354.412725 52.734298 
L 354.635925 58.922641 
L 354.859125 56.690997 
L 355.082325 62.589909 
L 355.305525 60.250601 
L 355.528725 61.895823 
L 355.751925 61.496614 
L 355.975125 57.066023 
L 356.421525 54.381665 
L 356.644725 56.537025 
L 357.091125 73.533689 
L 357.314325 59.15257 
L 357.537525 58.480851 
L 357.983925 54.337142 
L 358.207125 61.705664 
L 358.430325 64.179217 
L 358.653525 58.580944 
L 358.876725 56.101915 
L 359.099925 62.414734 
L 359.323125 52.773552 
L 359.546325 61.185041 
L 359.769525 64.317056 
L 359.992725 59.132907 
L 360.215925 57.548409 
L 360.439125 61.782827 
L 360.885525 56.212583 
L 361.108725 62.05449 
L 361.331925 63.701934 
L 361.555125 57.404845 
L 361.778325 59.13786 
L 362.001525 63.470846 
L 362.224725 60.898165 
L 362.447925 60.089879 
L 362.671125 63.346714 
L 362.894325 53.850811 
L 363.563925 62.036948 
L 363.787125 59.429242 
L 364.010325 59.980021 
L 364.233525 61.133382 
L 364.456725 60.746668 
L 364.903125 55.529579 
L 364.903125 55.529579 
" clip-path="url(#p7bc1f81859)" style="fill: none; stroke: #ff7f0e; stroke-width: 1.5; stroke-linecap: square"/>
   </g>
   <g id="patch_3">
    <path d="M 30.103125 253.44 
L 30.103125 36 
" style="fill: none; stroke: #000000; stroke-width: 0.8; stroke-linejoin: miter; stroke-linecap: square"/>
   </g>
   <g id="patch_4">
    <path d="M 364.903125 253.44 
L 364.903125 36 
" style="fill: none; stroke: #000000; stroke-width: 0.8; stroke-linejoin: miter; stroke-linecap: square"/>
   </g>
   <g id="patch_5">
    <path d="M 30.103125 253.44 
L 364.903125 253.44 
" style="fill: none; stroke: #000000; stroke-width: 0.8; stroke-linejoin: miter; stroke-linecap: square"/>
   </g>
   <g id="patch_6">
    <path d="M 30.103125 36 
L 364.903125 36 
" style="fill: none; stroke: #000000; stroke-width: 0.8; stroke-linejoin: miter; stroke-linecap: square"/>
   </g>
   <g id="legend_1">
    <g id="patch_7">
     <path d="M 288.403125 167.359062 
L 357.903125 167.359062 
Q 359.903125 167.359062 359.903125 165.359062 
L 359.903125 124.080937 
Q 359.903125 122.080937 357.903125 122.080937 
L 288.403125 122.080937 
Q 286.403125 122.080937 286.403125 124.080937 
L 286.403125 165.359062 
Q 286.403125 167.359062 288.403125 167.359062 
z
" style="fill: #ffffff; opacity: 0.8; stroke: #cccccc; stroke-linejoin: miter"/>
    </g>
    <g id="line2d_17">
     <path d="M 290.403125 130.179375 
L 300.403125 130.179375 
L 310.403125 130.179375 
" style="fill: none; stroke: #1f77b4; stroke-width: 1.5; stroke-linecap: square"/>
    </g>
    <g id="text_15">
     <!-- $x(t)$ -->
     <g transform="translate(318.403125 133.679375) scale(0.1 -0.1)">
      <defs>
       <path id="DejaVuSans-Oblique-78" d="M 3841 3500 
L 2234 1784 
L 3219 0 
L 2559 0 
L 1819 1388 
L 531 0 
L -166 0 
L 1556 1844 
L 641 3500 
L 1300 3500 
L 1972 2234 
L 3144 3500 
L 3841 3500 
z
" transform="scale(0.015625)"/>
       <path id="DejaVuSans-28" d="M 1984 4856 
Q 1566 4138 1362 3434 
Q 1159 2731 1159 2009 
Q 1159 1288 1364 580 
Q 1569 -128 1984 -844 
L 1484 -844 
Q 1016 -109 783 600 
Q 550 1309 550 2009 
Q 550 2706 781 3412 
Q 1013 4119 1484 4856 
L 1984 4856 
z
" transform="scale(0.015625)"/>
       <path id="DejaVuSans-Oblique-74" d="M 2706 3500 
L 2619 3053 
L 1472 3053 
L 1100 1153 
Q 1081 1047 1072 975 
Q 1063 903 1063 863 
Q 1063 663 1183 572 
Q 1303 481 1569 481 
L 2150 481 
L 2053 0 
L 1503 0 
Q 991 0 739 200 
Q 488 400 488 806 
Q 488 878 497 964 
Q 506 1050 525 1153 
L 897 3053 
L 409 3053 
L 500 3500 
L 978 3500 
L 1172 4494 
L 1747 4494 
L 1556 3500 
L 2706 3500 
z
" transform="scale(0.015625)"/>
       <path id="DejaVuSans-29" d="M 513 4856 
L 1013 4856 
Q 1481 4119 1714 3412 
Q 1947 2706 1947 2009 
Q 1947 1309 1714 600 
Q 1481 -109 1013 -844 
L 513 -844 
Q 928 -128 1133 580 
Q 1338 1288 1338 2009 
Q 1338 2731 1133 3434 
Q 928 4138 513 4856 
z
" transform="scale(0.015625)"/>
      </defs>
      <use xlink:href="#DejaVuSans-Oblique-78" transform="translate(0 0.125)"/>
      <use xlink:href="#DejaVuSans-28" transform="translate(59.179688 0.125)"/>
      <use xlink:href="#DejaVuSans-Oblique-74" transform="translate(98.193359 0.125)"/>
      <use xlink:href="#DejaVuSans-29" transform="translate(137.402344 0.125)"/>
     </g>
    </g>
    <g id="line2d_18">
     <path d="M 290.403125 154.559062 
L 300.403125 154.559062 
L 310.403125 154.559062 
" style="fill: none; stroke: #ff7f0e; stroke-width: 1.5; stroke-linecap: square"/>
    </g>
    <g id="text_16">
     <!-- $\hat{\int_{0}^{1.5}{x(t)}}$ -->
     <g transform="translate(318.403125 158.059062) scale(0.1 -0.1)">
      <defs>
       <path id="DejaVuSans-302" d="M -1831 5119 
L -1369 5119 
L -603 3944 
L -1038 3944 
L -1600 4709 
L -2163 3944 
L -2597 3944 
L -1831 5119 
z
M -1600 3584 
L -1600 3584 
z
" transform="scale(0.015625)"/>
       <path id="DejaVuSansDisplay-222b" d="M 2134 5525 
Q 2172 6263 2528 6556 
Q 2884 6850 3218 6850 
Q 3553 6850 3833 6575 
Q 4113 6300 4200 5678 
L 3544 5613 
Q 3469 6188 3219 6188 
Q 2906 6188 2869 5413 
L 2581 -597 
Q 2547 -1334 2187 -1628 
Q 1828 -1922 1497 -1922 
Q 1163 -1922 883 -1647 
Q 603 -1372 516 -750 
L 1172 -684 
Q 1247 -1259 1497 -1259 
Q 1809 -1259 1847 -488 
L 2134 5525 
z
" transform="scale(0.015625)"/>
       <path id="DejaVuSans-35" d="M 691 4666 
L 3169 4666 
L 3169 4134 
L 1269 4134 
L 1269 2991 
Q 1406 3038 1543 3061 
Q 1681 3084 1819 3084 
Q 2600 3084 3056 2656 
Q 3513 2228 3513 1497 
Q 3513 744 3044 326 
Q 2575 -91 1722 -91 
Q 1428 -91 1123 -41 
Q 819 9 494 109 
L 494 744 
Q 775 591 1075 516 
Q 1375 441 1709 441 
Q 2250 441 2565 725 
Q 2881 1009 2881 1497 
Q 2881 1984 2565 2268 
Q 2250 2553 1709 2553 
Q 1456 2553 1204 2497 
Q 953 2441 691 2322 
L 691 4666 
z
" transform="scale(0.015625)"/>
      </defs>
      <use xlink:href="#DejaVuSans-302" transform="translate(259.198975 93.015625)"/>
      <use xlink:href="#DejaVuSansDisplay-222b" transform="translate(0 0.325)"/>
      <use xlink:href="#DejaVuSans-31" transform="translate(86.744141 85.48125) scale(0.7)"/>
      <use xlink:href="#DejaVuSans-2e" transform="translate(131.280273 85.48125) scale(0.7)"/>
      <use xlink:href="#DejaVuSans-35" transform="translate(153.53125 85.48125) scale(0.7)"/>
      <use xlink:href="#DejaVuSans-30" transform="translate(71.759766 -51.58125) scale(0.7)"/>
      <use xlink:href="#DejaVuSans-Oblique-78" transform="translate(198.067383 0.325)"/>
      <use xlink:href="#DejaVuSans-28" transform="translate(257.24707 0.325)"/>
      <use xlink:href="#DejaVuSans-Oblique-74" transform="translate(296.260742 0.325)"/>
      <use xlink:href="#DejaVuSans-29" transform="translate(335.469727 0.325)"/>
     </g>
    </g>
   </g>
  </g>
  <g id="text_17">
   <!-- Neural Integrator for a step input -->
   <g transform="translate(92.3775 16.318125) scale(0.12 -0.12)">
    <defs>
     <path id="DejaVuSans-4e" d="M 628 4666 
L 1478 4666 
L 3547 763 
L 3547 4666 
L 4159 4666 
L 4159 0 
L 3309 0 
L 1241 3903 
L 1241 0 
L 628 0 
L 628 4666 
z
" transform="scale(0.015625)"/>
     <path id="DejaVuSans-65" d="M 3597 1894 
L 3597 1613 
L 953 1613 
Q 991 1019 1311 708 
Q 1631 397 2203 397 
Q 2534 397 2845 478 
Q 3156 559 3463 722 
L 3463 178 
Q 3153 47 2828 -22 
Q 2503 -91 2169 -91 
Q 1331 -91 842 396 
Q 353 884 353 1716 
Q 353 2575 817 3079 
Q 1281 3584 2069 3584 
Q 2775 3584 3186 3129 
Q 3597 2675 3597 1894 
z
M 3022 2063 
Q 3016 2534 2758 2815 
Q 2500 3097 2075 3097 
Q 1594 3097 1305 2825 
Q 1016 2553 972 2059 
L 3022 2063 
z
" transform="scale(0.015625)"/>
     <path id="DejaVuSans-75" d="M 544 1381 
L 544 3500 
L 1119 3500 
L 1119 1403 
Q 1119 906 1312 657 
Q 1506 409 1894 409 
Q 2359 409 2629 706 
Q 2900 1003 2900 1516 
L 2900 3500 
L 3475 3500 
L 3475 0 
L 2900 0 
L 2900 538 
Q 2691 219 2414 64 
Q 2138 -91 1772 -91 
Q 1169 -91 856 284 
Q 544 659 544 1381 
z
M 1991 3584 
L 1991 3584 
z
" transform="scale(0.015625)"/>
     <path id="DejaVuSans-72" d="M 2631 2963 
Q 2534 3019 2420 3045 
Q 2306 3072 2169 3072 
Q 1681 3072 1420 2755 
Q 1159 2438 1159 1844 
L 1159 0 
L 581 0 
L 581 3500 
L 1159 3500 
L 1159 2956 
Q 1341 3275 1631 3429 
Q 1922 3584 2338 3584 
Q 2397 3584 2469 3576 
Q 2541 3569 2628 3553 
L 2631 2963 
z
" transform="scale(0.015625)"/>
     <path id="DejaVuSans-61" d="M 2194 1759 
Q 1497 1759 1228 1600 
Q 959 1441 959 1056 
Q 959 750 1161 570 
Q 1363 391 1709 391 
Q 2188 391 2477 730 
Q 2766 1069 2766 1631 
L 2766 1759 
L 2194 1759 
z
M 3341 1997 
L 3341 0 
L 2766 0 
L 2766 531 
Q 2569 213 2275 61 
Q 1981 -91 1556 -91 
Q 1019 -91 701 211 
Q 384 513 384 1019 
Q 384 1609 779 1909 
Q 1175 2209 1959 2209 
L 2766 2209 
L 2766 2266 
Q 2766 2663 2505 2880 
Q 2244 3097 1772 3097 
Q 1472 3097 1187 3025 
Q 903 2953 641 2809 
L 641 3341 
Q 956 3463 1253 3523 
Q 1550 3584 1831 3584 
Q 2591 3584 2966 3190 
Q 3341 2797 3341 1997 
z
" transform="scale(0.015625)"/>
     <path id="DejaVuSans-6c" d="M 603 4863 
L 1178 4863 
L 1178 0 
L 603 0 
L 603 4863 
z
" transform="scale(0.015625)"/>
     <path id="DejaVuSans-20" transform="scale(0.015625)"/>
     <path id="DejaVuSans-49" d="M 628 4666 
L 1259 4666 
L 1259 0 
L 628 0 
L 628 4666 
z
" transform="scale(0.015625)"/>
     <path id="DejaVuSans-6e" d="M 3513 2113 
L 3513 0 
L 2938 0 
L 2938 2094 
Q 2938 2591 2744 2837 
Q 2550 3084 2163 3084 
Q 1697 3084 1428 2787 
Q 1159 2491 1159 1978 
L 1159 0 
L 581 0 
L 581 3500 
L 1159 3500 
L 1159 2956 
Q 1366 3272 1645 3428 
Q 1925 3584 2291 3584 
Q 2894 3584 3203 3211 
Q 3513 2838 3513 2113 
z
" transform="scale(0.015625)"/>
     <path id="DejaVuSans-74" d="M 1172 4494 
L 1172 3500 
L 2356 3500 
L 2356 3053 
L 1172 3053 
L 1172 1153 
Q 1172 725 1289 603 
Q 1406 481 1766 481 
L 2356 481 
L 2356 0 
L 1766 0 
Q 1100 0 847 248 
Q 594 497 594 1153 
L 594 3053 
L 172 3053 
L 172 3500 
L 594 3500 
L 594 4494 
L 1172 4494 
z
" transform="scale(0.015625)"/>
     <path id="DejaVuSans-67" d="M 2906 1791 
Q 2906 2416 2648 2759 
Q 2391 3103 1925 3103 
Q 1463 3103 1205 2759 
Q 947 2416 947 1791 
Q 947 1169 1205 825 
Q 1463 481 1925 481 
Q 2391 481 2648 825 
Q 2906 1169 2906 1791 
z
M 3481 434 
Q 3481 -459 3084 -895 
Q 2688 -1331 1869 -1331 
Q 1566 -1331 1297 -1286 
Q 1028 -1241 775 -1147 
L 775 -588 
Q 1028 -725 1275 -790 
Q 1522 -856 1778 -856 
Q 2344 -856 2625 -561 
Q 2906 -266 2906 331 
L 2906 616 
Q 2728 306 2450 153 
Q 2172 0 1784 0 
Q 1141 0 747 490 
Q 353 981 353 1791 
Q 353 2603 747 3093 
Q 1141 3584 1784 3584 
Q 2172 3584 2450 3431 
Q 2728 3278 2906 2969 
L 2906 3500 
L 3481 3500 
L 3481 434 
z
" transform="scale(0.015625)"/>
     <path id="DejaVuSans-6f" d="M 1959 3097 
Q 1497 3097 1228 2736 
Q 959 2375 959 1747 
Q 959 1119 1226 758 
Q 1494 397 1959 397 
Q 2419 397 2687 759 
Q 2956 1122 2956 1747 
Q 2956 2369 2687 2733 
Q 2419 3097 1959 3097 
z
M 1959 3584 
Q 2709 3584 3137 3096 
Q 3566 2609 3566 1747 
Q 3566 888 3137 398 
Q 2709 -91 1959 -91 
Q 1206 -91 779 398 
Q 353 888 353 1747 
Q 353 2609 779 3096 
Q 1206 3584 1959 3584 
z
" transform="scale(0.015625)"/>
     <path id="DejaVuSans-66" d="M 2375 4863 
L 2375 4384 
L 1825 4384 
Q 1516 4384 1395 4259 
Q 1275 4134 1275 3809 
L 1275 3500 
L 2222 3500 
L 2222 3053 
L 1275 3053 
L 1275 0 
L 697 0 
L 697 3053 
L 147 3053 
L 147 3500 
L 697 3500 
L 697 3744 
Q 697 4328 969 4595 
Q 1241 4863 1831 4863 
L 2375 4863 
z
" transform="scale(0.015625)"/>
     <path id="DejaVuSans-73" d="M 2834 3397 
L 2834 2853 
Q 2591 2978 2328 3040 
Q 2066 3103 1784 3103 
Q 1356 3103 1142 2972 
Q 928 2841 928 2578 
Q 928 2378 1081 2264 
Q 1234 2150 1697 2047 
L 1894 2003 
Q 2506 1872 2764 1633 
Q 3022 1394 3022 966 
Q 3022 478 2636 193 
Q 2250 -91 1575 -91 
Q 1294 -91 989 -36 
Q 684 19 347 128 
L 347 722 
Q 666 556 975 473 
Q 1284 391 1588 391 
Q 1994 391 2212 530 
Q 2431 669 2431 922 
Q 2431 1156 2273 1281 
Q 2116 1406 1581 1522 
L 1381 1569 
Q 847 1681 609 1914 
Q 372 2147 372 2553 
Q 372 3047 722 3315 
Q 1072 3584 1716 3584 
Q 2034 3584 2315 3537 
Q 2597 3491 2834 3397 
z
" transform="scale(0.015625)"/>
     <path id="DejaVuSans-70" d="M 1159 525 
L 1159 -1331 
L 581 -1331 
L 581 3500 
L 1159 3500 
L 1159 2969 
Q 1341 3281 1617 3432 
Q 1894 3584 2278 3584 
Q 2916 3584 3314 3078 
Q 3713 2572 3713 1747 
Q 3713 922 3314 415 
Q 2916 -91 2278 -91 
Q 1894 -91 1617 61 
Q 1341 213 1159 525 
z
M 3116 1747 
Q 3116 2381 2855 2742 
Q 2594 3103 2138 3103 
Q 1681 3103 1420 2742 
Q 1159 2381 1159 1747 
Q 1159 1113 1420 752 
Q 1681 391 2138 391 
Q 2594 391 2855 752 
Q 3116 1113 3116 1747 
z
" transform="scale(0.015625)"/>
     <path id="DejaVuSans-69" d="M 603 3500 
L 1178 3500 
L 1178 0 
L 603 0 
L 603 3500 
z
M 603 4863 
L 1178 4863 
L 1178 4134 
L 603 4134 
L 603 4863 
z
" transform="scale(0.015625)"/>
    </defs>
    <use xlink:href="#DejaVuSans-4e"/>
    <use xlink:href="#DejaVuSans-65" x="74.804688"/>
    <use xlink:href="#DejaVuSans-75" x="136.328125"/>
    <use xlink:href="#DejaVuSans-72" x="199.707031"/>
    <use xlink:href="#DejaVuSans-61" x="240.820312"/>
    <use xlink:href="#DejaVuSans-6c" x="302.099609"/>
    <use xlink:href="#DejaVuSans-20" x="329.882812"/>
    <use xlink:href="#DejaVuSans-49" x="361.669922"/>
    <use xlink:href="#DejaVuSans-6e" x="391.162109"/>
    <use xlink:href="#DejaVuSans-74" x="454.541016"/>
    <use xlink:href="#DejaVuSans-65" x="493.75"/>
    <use xlink:href="#DejaVuSans-67" x="555.273438"/>
    <use xlink:href="#DejaVuSans-72" x="618.75"/>
    <use xlink:href="#DejaVuSans-61" x="659.863281"/>
    <use xlink:href="#DejaVuSans-74" x="721.142578"/>
    <use xlink:href="#DejaVuSans-6f" x="760.351562"/>
    <use xlink:href="#DejaVuSans-72" x="821.533203"/>
    <use xlink:href="#DejaVuSans-20" x="862.646484"/>
    <use xlink:href="#DejaVuSans-66" x="894.433594"/>
    <use xlink:href="#DejaVuSans-6f" x="929.638672"/>
    <use xlink:href="#DejaVuSans-72" x="990.820312"/>
    <use xlink:href="#DejaVuSans-20" x="1031.933594"/>
    <use xlink:href="#DejaVuSans-61" x="1063.720703"/>
    <use xlink:href="#DejaVuSans-20" x="1125"/>
    <use xlink:href="#DejaVuSans-73" x="1156.787109"/>
    <use xlink:href="#DejaVuSans-74" x="1208.886719"/>
    <use xlink:href="#DejaVuSans-65" x="1248.095703"/>
    <use xlink:href="#DejaVuSans-70" x="1309.619141"/>
    <use xlink:href="#DejaVuSans-20" x="1373.095703"/>
    <use xlink:href="#DejaVuSans-69" x="1404.882812"/>
    <use xlink:href="#DejaVuSans-6e" x="1432.666016"/>
    <use xlink:href="#DejaVuSans-70" x="1496.044922"/>
    <use xlink:href="#DejaVuSans-75" x="1559.521484"/>
    <use xlink:href="#DejaVuSans-74" x="1622.900391"/>
   </g>
  </g>
 </g>
 <defs>
  <clipPath id="p7bc1f81859">
   <rect x="30.103125" y="36" width="334.8" height="217.44"/>
  </clipPath>
 </defs>
</svg>
