<?xml version="1.0" encoding="utf-8" standalone="no"?>
<!DOCTYPE svg PUBLIC "-//W3C//DTD SVG 1.1//EN"
  "http://www.w3.org/Graphics/SVG/1.1/DTD/svg11.dtd">
<svg xmlns:xlink="http://www.w3.org/1999/xlink" width="386.845313pt" height="277.318125pt" viewBox="0 0 386.845313 277.318125" xmlns="http://www.w3.org/2000/svg" version="1.1">
 <metadata>
  <rdf:RDF xmlns:dc="http://purl.org/dc/elements/1.1/" xmlns:cc="http://creativecommons.org/ns#" xmlns:rdf="http://www.w3.org/1999/02/22-rdf-syntax-ns#">
   <cc:Work>
    <dc:type rdf:resource="http://purl.org/dc/dcmitype/StillImage"/>
    <dc:date>2022-11-11T19:58:38.603072</dc:date>
    <dc:format>image/svg+xml</dc:format>
    <dc:creator>
     <cc:Agent>
      <dc:title>Matplotlib v3.6.0, https://matplotlib.org/</dc:title>
     </cc:Agent>
    </dc:creator>
   </cc:Work>
  </rdf:RDF>
 </metadata>
 <defs>
  <style type="text/css">*{stroke-linejoin: round; stroke-linecap: butt}</style>
 </defs>
 <g id="figure_1">
  <g id="patch_1">
   <path d="M 0 277.318125 
L 386.845313 277.318125 
L 386.845313 0 
L 0 0 
L 0 277.318125 
z
" style="fill: none"/>
  </g>
  <g id="axes_1">
   <g id="patch_2">
    <path d="M 44.845313 253.44 
L 379.645313 253.44 
L 379.645313 36 
L 44.845313 36 
z
" style="fill: #ffffff"/>
   </g>
   <g id="matplotlib.axis_1">
    <g id="xtick_1">
     <g id="line2d_1">
      <defs>
       <path id="m31a4e59229" d="M 0 0 
L 0 3.5 
" style="stroke: #000000; stroke-width: 0.8"/>
      </defs>
      <g>
       <use xlink:href="#m31a4e59229" x="59.698727" y="253.44" style="stroke: #000000; stroke-width: 0.8"/>
      </g>
     </g>
     <g id="text_1">
      <!-- −1.00 -->
      <g transform="translate(44.376071 268.038437) scale(0.1 -0.1)">
       <defs>
        <path id="DejaVuSans-2212" d="M 678 2272 
L 4684 2272 
L 4684 1741 
L 678 1741 
L 678 2272 
z
" transform="scale(0.015625)"/>
        <path id="DejaVuSans-31" d="M 794 531 
L 1825 531 
L 1825 4091 
L 703 3866 
L 703 4441 
L 1819 4666 
L 2450 4666 
L 2450 531 
L 3481 531 
L 3481 0 
L 794 0 
L 794 531 
z
" transform="scale(0.015625)"/>
        <path id="DejaVuSans-2e" d="M 684 794 
L 1344 794 
L 1344 0 
L 684 0 
L 684 794 
z
" transform="scale(0.015625)"/>
        <path id="DejaVuSans-30" d="M 2034 4250 
Q 1547 4250 1301 3770 
Q 1056 3291 1056 2328 
Q 1056 1369 1301 889 
Q 1547 409 2034 409 
Q 2525 409 2770 889 
Q 3016 1369 3016 2328 
Q 3016 3291 2770 3770 
Q 2525 4250 2034 4250 
z
M 2034 4750 
Q 2819 4750 3233 4129 
Q 3647 3509 3647 2328 
Q 3647 1150 3233 529 
Q 2819 -91 2034 -91 
Q 1250 -91 836 529 
Q 422 1150 422 2328 
Q 422 3509 836 4129 
Q 1250 4750 2034 4750 
z
" transform="scale(0.015625)"/>
       </defs>
       <use xlink:href="#DejaVuSans-2212"/>
       <use xlink:href="#DejaVuSans-31" x="83.789062"/>
       <use xlink:href="#DejaVuSans-2e" x="147.412109"/>
       <use xlink:href="#DejaVuSans-30" x="179.199219"/>
       <use xlink:href="#DejaVuSans-30" x="242.822266"/>
      </g>
     </g>
    </g>
    <g id="xtick_2">
     <g id="line2d_2">
      <g>
       <use xlink:href="#m31a4e59229" x="97.808299" y="253.44" style="stroke: #000000; stroke-width: 0.8"/>
      </g>
     </g>
     <g id="text_2">
      <!-- −0.75 -->
      <g transform="translate(82.485643 268.038437) scale(0.1 -0.1)">
       <defs>
        <path id="DejaVuSans-37" d="M 525 4666 
L 3525 4666 
L 3525 4397 
L 1831 0 
L 1172 0 
L 2766 4134 
L 525 4134 
L 525 4666 
z
" transform="scale(0.015625)"/>
        <path id="DejaVuSans-35" d="M 691 4666 
L 3169 4666 
L 3169 4134 
L 1269 4134 
L 1269 2991 
Q 1406 3038 1543 3061 
Q 1681 3084 1819 3084 
Q 2600 3084 3056 2656 
Q 3513 2228 3513 1497 
Q 3513 744 3044 326 
Q 2575 -91 1722 -91 
Q 1428 -91 1123 -41 
Q 819 9 494 109 
L 494 744 
Q 775 591 1075 516 
Q 1375 441 1709 441 
Q 2250 441 2565 725 
Q 2881 1009 2881 1497 
Q 2881 1984 2565 2268 
Q 2250 2553 1709 2553 
Q 1456 2553 1204 2497 
Q 953 2441 691 2322 
L 691 4666 
z
" transform="scale(0.015625)"/>
       </defs>
       <use xlink:href="#DejaVuSans-2212"/>
       <use xlink:href="#DejaVuSans-30" x="83.789062"/>
       <use xlink:href="#DejaVuSans-2e" x="147.412109"/>
       <use xlink:href="#DejaVuSans-37" x="179.199219"/>
       <use xlink:href="#DejaVuSans-35" x="242.822266"/>
      </g>
     </g>
    </g>
    <g id="xtick_3">
     <g id="line2d_3">
      <g>
       <use xlink:href="#m31a4e59229" x="135.917871" y="253.44" style="stroke: #000000; stroke-width: 0.8"/>
      </g>
     </g>
     <g id="text_3">
      <!-- −0.50 -->
      <g transform="translate(120.595215 268.038437) scale(0.1 -0.1)">
       <use xlink:href="#DejaVuSans-2212"/>
       <use xlink:href="#DejaVuSans-30" x="83.789062"/>
       <use xlink:href="#DejaVuSans-2e" x="147.412109"/>
       <use xlink:href="#DejaVuSans-35" x="179.199219"/>
       <use xlink:href="#DejaVuSans-30" x="242.822266"/>
      </g>
     </g>
    </g>
    <g id="xtick_4">
     <g id="line2d_4">
      <g>
       <use xlink:href="#m31a4e59229" x="174.027443" y="253.44" style="stroke: #000000; stroke-width: 0.8"/>
      </g>
     </g>
     <g id="text_4">
      <!-- −0.25 -->
      <g transform="translate(158.704787 268.038437) scale(0.1 -0.1)">
       <defs>
        <path id="DejaVuSans-32" d="M 1228 531 
L 3431 531 
L 3431 0 
L 469 0 
L 469 531 
Q 828 903 1448 1529 
Q 2069 2156 2228 2338 
Q 2531 2678 2651 2914 
Q 2772 3150 2772 3378 
Q 2772 3750 2511 3984 
Q 2250 4219 1831 4219 
Q 1534 4219 1204 4116 
Q 875 4013 500 3803 
L 500 4441 
Q 881 4594 1212 4672 
Q 1544 4750 1819 4750 
Q 2544 4750 2975 4387 
Q 3406 4025 3406 3419 
Q 3406 3131 3298 2873 
Q 3191 2616 2906 2266 
Q 2828 2175 2409 1742 
Q 1991 1309 1228 531 
z
" transform="scale(0.015625)"/>
       </defs>
       <use xlink:href="#DejaVuSans-2212"/>
       <use xlink:href="#DejaVuSans-30" x="83.789062"/>
       <use xlink:href="#DejaVuSans-2e" x="147.412109"/>
       <use xlink:href="#DejaVuSans-32" x="179.199219"/>
       <use xlink:href="#DejaVuSans-35" x="242.822266"/>
      </g>
     </g>
    </g>
    <g id="xtick_5">
     <g id="line2d_5">
      <g>
       <use xlink:href="#m31a4e59229" x="212.137015" y="253.44" style="stroke: #000000; stroke-width: 0.8"/>
      </g>
     </g>
     <g id="text_5">
      <!-- 0.00 -->
      <g transform="translate(201.004202 268.038437) scale(0.1 -0.1)">
       <use xlink:href="#DejaVuSans-30"/>
       <use xlink:href="#DejaVuSans-2e" x="63.623047"/>
       <use xlink:href="#DejaVuSans-30" x="95.410156"/>
       <use xlink:href="#DejaVuSans-30" x="159.033203"/>
      </g>
     </g>
    </g>
    <g id="xtick_6">
     <g id="line2d_6">
      <g>
       <use xlink:href="#m31a4e59229" x="250.246587" y="253.44" style="stroke: #000000; stroke-width: 0.8"/>
      </g>
     </g>
     <g id="text_6">
      <!-- 0.25 -->
      <g transform="translate(239.113774 268.038437) scale(0.1 -0.1)">
       <use xlink:href="#DejaVuSans-30"/>
       <use xlink:href="#DejaVuSans-2e" x="63.623047"/>
       <use xlink:href="#DejaVuSans-32" x="95.410156"/>
       <use xlink:href="#DejaVuSans-35" x="159.033203"/>
      </g>
     </g>
    </g>
    <g id="xtick_7">
     <g id="line2d_7">
      <g>
       <use xlink:href="#m31a4e59229" x="288.356159" y="253.44" style="stroke: #000000; stroke-width: 0.8"/>
      </g>
     </g>
     <g id="text_7">
      <!-- 0.50 -->
      <g transform="translate(277.223346 268.038437) scale(0.1 -0.1)">
       <use xlink:href="#DejaVuSans-30"/>
       <use xlink:href="#DejaVuSans-2e" x="63.623047"/>
       <use xlink:href="#DejaVuSans-35" x="95.410156"/>
       <use xlink:href="#DejaVuSans-30" x="159.033203"/>
      </g>
     </g>
    </g>
    <g id="xtick_8">
     <g id="line2d_8">
      <g>
       <use xlink:href="#m31a4e59229" x="326.465731" y="253.44" style="stroke: #000000; stroke-width: 0.8"/>
      </g>
     </g>
     <g id="text_8">
      <!-- 0.75 -->
      <g transform="translate(315.332918 268.038437) scale(0.1 -0.1)">
       <use xlink:href="#DejaVuSans-30"/>
       <use xlink:href="#DejaVuSans-2e" x="63.623047"/>
       <use xlink:href="#DejaVuSans-37" x="95.410156"/>
       <use xlink:href="#DejaVuSans-35" x="159.033203"/>
      </g>
     </g>
    </g>
    <g id="xtick_9">
     <g id="line2d_9">
      <g>
       <use xlink:href="#m31a4e59229" x="364.575302" y="253.44" style="stroke: #000000; stroke-width: 0.8"/>
      </g>
     </g>
     <g id="text_9">
      <!-- 1.00 -->
      <g transform="translate(353.44249 268.038437) scale(0.1 -0.1)">
       <use xlink:href="#DejaVuSans-31"/>
       <use xlink:href="#DejaVuSans-2e" x="63.623047"/>
       <use xlink:href="#DejaVuSans-30" x="95.410156"/>
       <use xlink:href="#DejaVuSans-30" x="159.033203"/>
      </g>
     </g>
    </g>
   </g>
   <g id="matplotlib.axis_2">
    <g id="ytick_1">
     <g id="line2d_10">
      <defs>
       <path id="mf3a7802743" d="M 0 0 
L -3.5 0 
" style="stroke: #000000; stroke-width: 0.8"/>
      </defs>
      <g>
       <use xlink:href="#mf3a7802743" x="44.845313" y="244.260326" style="stroke: #000000; stroke-width: 0.8"/>
      </g>
     </g>
     <g id="text_10">
      <!-- −1.00 -->
      <g transform="translate(7.2 248.059545) scale(0.1 -0.1)">
       <use xlink:href="#DejaVuSans-2212"/>
       <use xlink:href="#DejaVuSans-31" x="83.789062"/>
       <use xlink:href="#DejaVuSans-2e" x="147.412109"/>
       <use xlink:href="#DejaVuSans-30" x="179.199219"/>
       <use xlink:href="#DejaVuSans-30" x="242.822266"/>
      </g>
     </g>
    </g>
    <g id="ytick_2">
     <g id="line2d_11">
      <g>
       <use xlink:href="#mf3a7802743" x="44.845313" y="219.337714" style="stroke: #000000; stroke-width: 0.8"/>
      </g>
     </g>
     <g id="text_11">
      <!-- −0.75 -->
      <g transform="translate(7.2 223.136933) scale(0.1 -0.1)">
       <use xlink:href="#DejaVuSans-2212"/>
       <use xlink:href="#DejaVuSans-30" x="83.789062"/>
       <use xlink:href="#DejaVuSans-2e" x="147.412109"/>
       <use xlink:href="#DejaVuSans-37" x="179.199219"/>
       <use xlink:href="#DejaVuSans-35" x="242.822266"/>
      </g>
     </g>
    </g>
    <g id="ytick_3">
     <g id="line2d_12">
      <g>
       <use xlink:href="#mf3a7802743" x="44.845313" y="194.415103" style="stroke: #000000; stroke-width: 0.8"/>
      </g>
     </g>
     <g id="text_12">
      <!-- −0.50 -->
      <g transform="translate(7.2 198.214321) scale(0.1 -0.1)">
       <use xlink:href="#DejaVuSans-2212"/>
       <use xlink:href="#DejaVuSans-30" x="83.789062"/>
       <use xlink:href="#DejaVuSans-2e" x="147.412109"/>
       <use xlink:href="#DejaVuSans-35" x="179.199219"/>
       <use xlink:href="#DejaVuSans-30" x="242.822266"/>
      </g>
     </g>
    </g>
    <g id="ytick_4">
     <g id="line2d_13">
      <g>
       <use xlink:href="#mf3a7802743" x="44.845313" y="169.492491" style="stroke: #000000; stroke-width: 0.8"/>
      </g>
     </g>
     <g id="text_13">
      <!-- −0.25 -->
      <g transform="translate(7.2 173.29171) scale(0.1 -0.1)">
       <use xlink:href="#DejaVuSans-2212"/>
       <use xlink:href="#DejaVuSans-30" x="83.789062"/>
       <use xlink:href="#DejaVuSans-2e" x="147.412109"/>
       <use xlink:href="#DejaVuSans-32" x="179.199219"/>
       <use xlink:href="#DejaVuSans-35" x="242.822266"/>
      </g>
     </g>
    </g>
    <g id="ytick_5">
     <g id="line2d_14">
      <g>
       <use xlink:href="#mf3a7802743" x="44.845313" y="144.569879" style="stroke: #000000; stroke-width: 0.8"/>
      </g>
     </g>
     <g id="text_14">
      <!-- 0.00 -->
      <g transform="translate(15.579688 148.369098) scale(0.1 -0.1)">
       <use xlink:href="#DejaVuSans-30"/>
       <use xlink:href="#DejaVuSans-2e" x="63.623047"/>
       <use xlink:href="#DejaVuSans-30" x="95.410156"/>
       <use xlink:href="#DejaVuSans-30" x="159.033203"/>
      </g>
     </g>
    </g>
    <g id="ytick_6">
     <g id="line2d_15">
      <g>
       <use xlink:href="#mf3a7802743" x="44.845313" y="119.647268" style="stroke: #000000; stroke-width: 0.8"/>
      </g>
     </g>
     <g id="text_15">
      <!-- 0.25 -->
      <g transform="translate(15.579688 123.446486) scale(0.1 -0.1)">
       <use xlink:href="#DejaVuSans-30"/>
       <use xlink:href="#DejaVuSans-2e" x="63.623047"/>
       <use xlink:href="#DejaVuSans-32" x="95.410156"/>
       <use xlink:href="#DejaVuSans-35" x="159.033203"/>
      </g>
     </g>
    </g>
    <g id="ytick_7">
     <g id="line2d_16">
      <g>
       <use xlink:href="#mf3a7802743" x="44.845313" y="94.724656" style="stroke: #000000; stroke-width: 0.8"/>
      </g>
     </g>
     <g id="text_16">
      <!-- 0.50 -->
      <g transform="translate(15.579688 98.523875) scale(0.1 -0.1)">
       <use xlink:href="#DejaVuSans-30"/>
       <use xlink:href="#DejaVuSans-2e" x="63.623047"/>
       <use xlink:href="#DejaVuSans-35" x="95.410156"/>
       <use xlink:href="#DejaVuSans-30" x="159.033203"/>
      </g>
     </g>
    </g>
    <g id="ytick_8">
     <g id="line2d_17">
      <g>
       <use xlink:href="#mf3a7802743" x="44.845313" y="69.802044" style="stroke: #000000; stroke-width: 0.8"/>
      </g>
     </g>
     <g id="text_17">
      <!-- 0.75 -->
      <g transform="translate(15.579688 73.601263) scale(0.1 -0.1)">
       <use xlink:href="#DejaVuSans-30"/>
       <use xlink:href="#DejaVuSans-2e" x="63.623047"/>
       <use xlink:href="#DejaVuSans-37" x="95.410156"/>
       <use xlink:href="#DejaVuSans-35" x="159.033203"/>
      </g>
     </g>
    </g>
    <g id="ytick_9">
     <g id="line2d_18">
      <g>
       <use xlink:href="#mf3a7802743" x="44.845313" y="44.879433" style="stroke: #000000; stroke-width: 0.8"/>
      </g>
     </g>
     <g id="text_18">
      <!-- 1.00 -->
      <g transform="translate(15.579688 48.678651) scale(0.1 -0.1)">
       <use xlink:href="#DejaVuSans-31"/>
       <use xlink:href="#DejaVuSans-2e" x="63.623047"/>
       <use xlink:href="#DejaVuSans-30" x="95.410156"/>
       <use xlink:href="#DejaVuSans-30" x="159.033203"/>
      </g>
     </g>
    </g>
   </g>
   <g id="line2d_19">
    <path d="M 281.500702 99.316308 
L 270.118643 106.571815 
L 295.321774 90.363087 
L 216.460366 141.526076 
L 361.175114 47.609937 
L 329.874452 67.602586 
L 67.380532 238.966141 
L 361.581616 47.399525 
L 195.835196 155.527781 
L 337.19149 63.060528 
L 71.445553 236.335023 
L 256.297572 115.838027 
L 171.44507 170.406599 
L 65.348022 240.269519 
L 348.573549 55.284382 
L 319.7119 74.46883 
L 109.250248 212.066928 
L 214.021354 142.900678 
L 292.069757 92.679224 
L 218.899379 140.14352 
L 290.443748 93.728758 
L 257.92358 114.501806 
L 66.97403 239.224171 
L 281.907204 99.056798 
L 119.819303 204.773718 
L 363.614126 46.3431 
L 80.388599 230.317377 
L 219.305881 139.798628 
L 107.217738 213.318988 
L 133.640374 195.741783 
L 144.209429 189.103462 
L 324.589925 71.038721 
L 118.193295 205.930344 
L 86.486131 226.263559 
L 147.461446 187.062439 
L 324.996427 70.77885 
L 315.646879 77.108635 
L 325.402929 70.519947 
L 226.622919 135.189097 
L 198.274208 153.881435 
L 136.079387 194.234579 
L 101.933211 216.654216 
L 77.136583 232.459259 
L 259.143087 113.604578 
L 263.208108 110.728557 
L 259.549589 113.198119 
L 110.469755 211.310865 
L 97.055185 219.710566 
L 344.91503 57.659447 
L 338.410996 62.228312 
L 296.134778 89.7495 
L 118.599797 205.665042 
L 299.386795 87.7763 
L 314.833874 77.596649 
L 185.672643 162.052539 
L 346.541038 56.546794 
L 166.973547 173.856325 
L 227.435923 134.645177 
L 301.825807 86.059081 
L 69.819545 237.402411 
L 176.729597 167.35669 
L 322.150912 72.641458 
L 251.826049 118.850314 
L 237.598475 127.687906 
L 354.264578 51.766382 
L 261.988601 111.473962 
L 99.087696 218.474917 
L 70.632549 236.871741 
L 244.509011 123.405507 
L 253.045555 118.153115 
L 123.07132 202.516341 
L 64.535017 240.877414 
L 210.469271 144.922783 
L 302.232309 85.799872 
L 179.16861 165.949307 
L 162.502024 177.46202 
L 93.803169 221.653278 
L 269.712141 106.818013 
L 164.941036 175.439075 
L 245.728517 122.597216 
L 353.858076 52.052294 
L 238.41148 127.211696 
L 199.900217 152.614689 
L 115.34778 208.049787 
L 232.72045 130.929358 
L 293.289263 91.662169 
L 127.949345 199.448928 
L 316.866385 76.371307 
L 157.217496 181.173673 
L 183.640133 163.333626 
L 76.73008 232.724213 
L 101.526709 216.886819 
L 70.226047 237.137787 
L 294.102267 91.145577 
L 120.632307 204.215311 
L 360.768612 47.820747 
L 222.151396 137.889135 
L 294.508769 90.887566 
L 348.167047 55.535216 
L 339.630503 61.276531 
L 86.079629 226.501986 
L 60.876499 243.121418 
L 227.842425 134.399154 
L 117.38029 206.657051 
L 304.671322 84.273459 
L 171.038568 170.64308 
L 148.27445 186.595772 
L 75.917076 233.248427 
L 117.786793 206.228078 
L 292.476259 92.197464 
L 149.087454 186.129189 
L 224.99691 136.17309 
L 220.118885 139.254239 
L 196.6482 154.984364 
L 102.339713 216.421121 
L 184.046635 163.087097 
L 96.648683 219.955083 
L 172.258074 169.935114 
L 98.681194 218.724328 
L 334.345975 64.974155 
L 73.478064 234.96114 
L 297.354284 88.933145 
L 168.193053 172.800719 
L 193.802685 156.889232 
L 209.656267 145.646801 
L 207.217255 147.60565 
L 64.94152 240.637627 
L 103.559219 215.718782 
L 333.126469 65.684866 
L 154.371982 183.077895 
L 336.378486 63.676244 
L 359.955608 48.243826 
L 254.265061 117.456837 
L 213.208349 143.359824 
L 331.500461 66.6392 
L 260.362593 112.622797 
L 342.476017 59.33445 
L 120.225805 204.489249 
L 179.575112 165.714087 
L 290.850251 93.47281 
L 302.638811 85.542558 
L 217.679872 140.837051 
L 150.306961 185.428613 
L 198.680711 153.597278 
L 341.663013 59.864629 
L 133.233872 196.002589 
L 165.75404 174.768598 
L 147.054944 187.295989 
L 317.272887 76.119534 
L 84.45362 227.456387 
L 105.185227 214.574977 
L 229.468433 133.359763 
L 364.020629 46.085263 
L 153.152475 183.786396 
L 211.688778 144.222455 
L 114.128274 208.853244 
L 262.801606 110.976319 
L 199.493715 152.884455 
L 75.510574 233.508 
L 141.363914 190.817847 
L 307.923339 82.273933 
L 202.339229 150.905124 
L 140.957412 191.048186 
L 348.980051 55.034272 
L 233.533454 130.387445 
L 355.077582 51.278961 
L 204.778242 149.246449 
L 176.323095 167.590858 
L 192.989681 157.448457 
L 234.752961 129.558583 
L 359.142603 48.669133 
L 153.96548 183.314435 
L 264.021112 110.234891 
L 293.695765 91.403345 
L 85.266625 226.978624 
L 313.207866 78.641596 
L 100.307202 217.711392 
L 144.615931 188.837443 
L 272.557656 104.968961 
L 64.128515 241.116508 
L 147.867948 186.829063 
L 233.939956 130.117643 
L 323.370419 71.826382 
L 150.713463 185.194759 
L 91.364156 223.112044 
L 312.801364 78.898397 
L 162.908526 177.182108 
L 91.770658 222.865498 
L 153.558977 183.550596 
L 102.746215 216.187524 
L 177.136099 167.122453 
L 357.923097 49.493197 
L 321.337908 73.382714 
L 151.119965 184.960694 
L 357.516595 49.730834 
L 362.39462 46.979408 
L 158.437003 180.224088 
L 312.394862 79.151852 
L 110.876257 211.057722 
L 238.817982 126.95883 
L 304.26482 84.525551 
L 175.916593 167.824981 
L 196.241698 155.256358 
L 298.167288 88.46908 
L 95.835679 220.442325 
L 323.776921 71.562177 
L 282.313706 98.798523 
L 318.492393 75.317809 
L 205.997748 148.531225 
L 354.67108 51.52328 
L 131.607864 197.110803 
L 329.46795 67.845006 
L 192.583179 157.740922 
L 310.362351 80.610196 
L 123.884324 201.989272 
L 203.965238 149.838052 
L 350.199557 54.287775 
L 288.81774 94.742138 
L 231.094442 132.119333 
L 182.014124 164.295178 
L 213.614851 143.130113 
L 300.606301 86.860925 
L 160.063011 179.111436 
L 283.533213 98.029311 
L 164.534534 175.844961 
L 88.112139 225.306181 
L 250.606543 119.549643 
L 265.64712 109.253775 
L 240.44399 125.996239 
L 135.266383 194.677936 
L 60.469996 243.339418 
L 177.542601 166.88812 
L 180.388116 165.242784 
L 128.762349 198.886573 
L 332.313465 66.160989 
L 295.728276 89.993355 
L 215.647362 141.984319 
L 194.61569 156.342047 
L 306.29733 83.270757 
L 135.672885 194.456485 
L 311.581858 79.805485 
L 210.062769 145.254071 
L 347.760545 55.786822 
L 116.160784 207.506052 
L 335.158979 64.502297 
L 236.378969 128.393946 
L 195.428694 155.798969 
L 134.453379 195.119653 
L 303.045314 85.286709 
L 152.339471 184.256996 
L 224.590408 136.404414 
L 92.990164 222.136648 
L 68.600038 238.188701 
L 190.957171 159.050321 
L 95.022675 220.927642 
L 308.736343 81.689301 
L 149.493956 185.895797 
L 136.892391 193.78917 
L 277.842183 101.884717 
L 328.248444 68.720909 
L 125.916835 200.638954 
L 215.24086 142.213329 
L 141.770417 190.587605 
L 208.030259 146.912287 
L 84.047118 227.793356 
L 282.720208 98.541281 
L 130.388358 197.872838 
L 214.427856 142.671445 
L 346.134536 56.802036 
L 94.209671 221.411598 
L 104.778725 214.835505 
L 338.817498 61.924932 
L 352.63857 52.805238 
L 75.104072 233.766025 
L 203.152234 150.38743 
L 291.663255 92.952107 
L 97.461688 219.465346 
L 145.835438 188.069129 
L 220.525387 138.992685 
L 330.280954 67.360817 
L 165.347538 175.14119 
L 253.858559 117.688909 
L 84.860122 227.217219 
L 301.012803 86.586853 
L 361.988118 47.189406 
L 248.16753 120.959938 
L 340.037005 60.977151 
L 242.476501 124.883481 
L 248.980534 120.487557 
L 221.338391 138.369508 
L 353.045072 52.557654 
L 352.232068 53.052183 
L 345.728034 57.05837 
L 308.329841 82.025149 
L 338.004494 62.504444 
L 274.590166 103.766878 
L 169.006057 172.109228 
L 158.030501 180.519793 
L 174.697087 168.52736 
L 292.882761 91.924171 
L 67.787034 238.707718 
L 332.719967 65.922678 
L 351.419063 53.545708 
L 98.274692 218.972377 
L 212.801847 143.589889 
L 140.55091 191.278768 
L 163.315028 176.897837 
L 241.256994 125.55063 
L 180.794618 165.006609 
L 329.061448 68.198167 
L 125.510332 200.875728 
L 134.859881 194.898978 
L 99.494198 218.223713 
L 327.028937 69.491021 
L 314.427372 77.840531 
L 346.94754 56.292556 
L 143.396425 189.665182 
L 355.890587 50.779863 
L 349.793055 54.536024 
L 261.582099 111.723967 
L 62.502507 242.07152 
L 124.290826 201.712893 
L 62.096005 242.31399 
L 318.898895 75.083393 
L 289.630744 94.236798 
L 218.086375 140.606561 
L 122.664818 202.848019 
L 145.022433 188.583554 
L 173.071078 169.465048 
L 105.998232 214.069597 
L 270.525145 106.321265 
L 87.705637 225.546294 
L 300.199799 87.238238 
L 296.54128 89.504186 
L 132.420868 196.585039 
L 320.931406 73.650527 
L 303.451816 85.032047 
L 155.99799 182.12752 
L 249.793538 120.017643 
L 146.648442 187.529831 
L 60.063494 243.556364 
L 61.283001 242.902345 
L 277.435681 102.118423 
L 114.941278 208.31885 
L 303.858318 84.778376 
L 99.9007 217.969886 
L 181.607622 164.532897 
L 113.721772 209.119064 
L 164.128032 176.181512 
L 260.769095 112.226737 
L 108.437244 212.568642 
L 289.224242 94.489687 
L 126.729839 200.164332 
L 309.549347 81.143819 
L 250.20004 119.783432 
L 239.224484 126.666687 
L 280.281196 100.105886 
L 340.850009 60.398613 
L 264.834116 109.743406 
L 317.679389 75.786729 
L 197.867706 154.160766 
L 217.27337 141.067061 
L 96.242181 220.198979 
L 257.110576 115.103713 
L 347.354042 56.039251 
L 182.420627 164.056702 
L 188.518158 160.442518 
L 258.736585 113.907845 
L 190.550669 159.283296 
L 63.722013 241.355093 
L 257.517078 114.800119 
L 179.981614 165.478594 
L 249.387036 120.25233 
L 208.843263 146.21845 
L 207.623757 147.312771 
L 247.761028 121.197285 
L 115.754282 207.779033 
L 204.37174 149.482942 
L 344.102026 58.227759 
L 121.851814 203.403767 
L 266.460124 108.765679 
L 146.24194 187.76413 
L 139.331404 192.118282 
L 159.250007 179.66226 
L 152.745973 184.021856 
L 273.777162 104.243511 
L 73.071562 235.240187 
L 155.184986 182.603594 
L 101.120206 217.118942 
L 345.321532 57.315922 
L 173.884082 168.995917 
L 307.516837 82.522812 
L 287.598234 95.498272 
L 290.037246 93.983258 
L 140.144408 191.605766 
L 184.859639 162.510325 
L 353.451574 52.308426 
L 225.403412 135.938788 
L 269.305639 107.062503 
L 216.866868 141.296705 
L 112.095763 210.17884 
L 333.532971 65.447527 
L 116.973788 206.948762 
L 327.841942 68.97811 
L 92.583662 222.37872 
L 331.093958 66.879145 
L 281.0942 99.577337 
L 72.258557 235.791496 
L 129.168851 198.629267 
L 185.266141 162.281541 
L 235.565965 128.926218 
L 288.004736 95.24632 
L 112.502265 209.913747 
L 279.874694 100.375287 
L 90.14465 224.090764 
L 108.843746 212.317982 
L 74.291068 234.393986 
L 279.06169 100.942754 
L 155.591488 182.36579 
L 351.825566 53.298923 
L 168.599555 172.473861 
L 280.687698 99.840306 
L 78.356089 231.64816 
L 210.875774 144.688161 
L 237.191973 127.923507 
L 325.809431 70.261858 
L 228.655429 133.796387 
L 324.183423 71.299747 
L 169.819061 171.570157 
L 160.469513 178.837424 
L 184.453137 162.829458 
L 287.191732 95.750245 
L 246.541522 122.076026 
L 85.673127 226.740286 
L 111.689261 210.445311 
L 356.297089 50.426152 
L 183.233631 163.576455 
L 322.557414 72.363322 
L 242.883003 124.661264 
L 316.053381 76.864066 
L 216.053864 141.755257 
L 209.249765 145.935103 
L 364.427131 45.883636 
L 279.468192 100.651163 
L 161.689019 178.015021 
L 175.103589 168.293204 
L 190.144166 159.515868 
L 71.039051 236.604184 
L 229.874935 133.142067 
L 107.62424 213.069054 
L 208.436761 146.509279 
L 69.413043 237.665705 
L 86.892633 226.024876 
L 274.996669 103.529751 
L 326.215933 70.004441 
L 244.102509 123.754558 
L 221.744893 138.129918 
L 251.013045 119.316224 
L 175.510091 168.059088 
L 143.802927 189.433582 
L 125.10383 201.112216 
L 79.982097 230.555594 
L 186.485648 161.593843 
L 283.126711 98.284917 
L 71.852055 236.064164 
L 193.396183 157.166415 
L 200.713221 151.983727 
L 344.508528 57.948538 
L 285.159221 97.012716 
L 94.616173 221.169751 
L 322.963916 72.092993 
L 122.258316 203.130286 
L 363.207624 46.558079 
L 246.948024 121.811375 
L 357.110093 49.96409 
L 103.965721 215.395629 
L 315.240377 77.352742 
L 239.630986 126.442882 
L 243.696007 124.007666 
L 171.851572 170.170642 
L 158.843505 179.940835 
L 359.549105 48.456184 
L 274.183664 104.004748 
L 188.92466 160.211366 
L 301.419305 86.320919 
L 186.079145 161.82331 
L 173.47758 169.230391 
L 151.932969 184.491835 
L 127.136341 199.926382 
L 142.583421 190.126918 
L 358.329599 49.175778 
L 225.809914 135.692366 
L 214.834358 142.44235 
L 203.558736 150.12222 
L 177.949103 166.653667 
L 309.142845 81.4133 
L 254.671564 117.12046 
L 248.574032 120.723397 
L 61.689503 242.567639 
L 305.077824 84.022008 
L 88.518641 225.065363 
L 291.256753 93.214551 
L 264.427614 109.988897 
L 288.411238 94.994308 
L 199.087213 153.303498 
L 188.111656 160.673357 
L 88.925143 224.82369 
L 191.363673 158.816921 
L 251.419547 119.08313 
L 266.053622 109.009557 
L 160.876015 178.563628 
L 305.890828 83.520724 
L 351.012561 53.792702 
L 92.17716 222.62147 
L 330.687456 67.119677 
L 189.331162 159.979885 
L 73.884566 234.679353 
L 229.061931 133.577787 
L 74.69757 234.102385 
L 106.404734 213.819012 
L 278.248685 101.651371 
L 110.063253 211.563418 
L 156.404492 181.888758 
L 240.850492 125.773324 
L 151.526467 184.726394 
L 298.57379 88.237736 
L 263.61461 110.48143 
L 235.972467 128.62946 
L 328.654946 68.461985 
L 197.054702 154.711431 
L 211.282276 144.454808 
L 247.354526 121.516021 
L 89.331646 224.580956 
L 129.575353 198.376403 
L 362.801122 46.769212 
L 197.461204 154.437105 
L 342.882519 59.070305 
L 252.639053 118.38535 
L 219.712383 139.517517 
L 265.240618 109.498378 
L 212.09528 143.990902 
L 222.9644 137.381172 
L 319.305398 74.772388 
L 331.906963 66.399822 
L 105.59173 214.321195 
L 182.827129 163.817249 
L 78.762591 231.366329 
L 349.386553 54.784837 
L 103.152717 215.953415 
L 297.760786 88.700874 
L 306.703832 83.021158 
L 326.622435 69.74755 
L 320.524904 73.917334 
L 169.412559 171.840578 
L 296.947782 89.254399 
L 63.315511 241.593438 
L 121.038809 203.944522 
L 223.370902 137.091712 
L 65.754524 240.001825 
L 261.175597 111.974861 
L 201.932727 151.162764 
L 218.492877 140.375448 
L 104.372223 215.14545 
L 113.315269 209.384253 
L 313.614368 78.3287 
L 360.36211 48.032026 
L 167.786551 173.19275 
L 174.290585 168.761586 
L 242.069998 125.10575 
L 271.33815 105.758548 
L 294.915272 90.627817 
L 270.931648 105.99137 
L 149.900459 185.662282 
L 192.176677 158.159494 
L 343.695524 58.510366 
L 167.380049 173.470623 
L 187.705154 160.903895 
L 119.006299 205.412291 
L 336.784988 63.347196 
L 81.201604 229.837755 
L 318.085891 75.552225 
L 271.744652 105.526092 
L 285.565723 96.75968 
L 106.811236 213.568909 
L 195.022192 156.070263 
L 142.989923 189.896243 
L 161.282517 178.289628 
L 132.82737 196.255536 
L 66.567528 239.482208 
L 356.703591 50.195544 
L 212.395345 143.8204 
L 256.704074 115.422976 
L 129.981856 198.124629 
L 77.543085 232.192055 
L 138.111898 192.87549 
L 272.964158 104.724888 
L 286.78523 96.002311 
L 80.795101 230.078119 
L 259.956091 112.916064 
L 72.665059 235.516892 
L 226.216417 135.413694 
L 255.078066 116.85837 
L 83.640616 228.074538 
L 109.656751 211.815424 
L 321.74441 73.107054 
L 159.656509 179.386156 
L 309.955849 80.876599 
L 154.778484 182.840955 
L 123.477822 202.254853 
L 277.029179 102.352512 
L 79.575595 230.792819 
L 355.484084 51.032252 
L 90.957654 223.441903 
L 350.606059 54.040027 
L 234.346459 129.844599 
L 286.378727 96.254533 
L 148.680952 186.3625 
L 283.939715 97.774365 
L 268.086133 107.792509 
L 316.459883 76.618593 
L 108.030742 212.818973 
L 245.322015 122.859217 
L 121.445311 203.674525 
L 83.234114 228.35303 
L 305.484326 83.77112 
L 97.86819 219.219325 
L 268.492635 107.549421 
L 334.752477 64.738057 
L 310.768853 80.34367 
L 114.534776 208.58658 
L 156.810994 181.572807 
L 127.542843 199.687933 
L 77.949587 231.92208 
L 311.175356 80.076007 
L 266.866627 108.522095 
L 170.225564 171.293486 
L 252.232551 118.617735 
L 139.737906 191.866112 
L 222.557898 137.644955 
L 187.298652 161.134147 
L 231.907446 131.599181 
L 191.770175 158.443793 
L 172.664576 169.699938 
L 145.428935 188.330527 
L 320.118402 74.186568 
L 194.209187 156.614809 
L 223.777404 136.863233 
L 128.355847 199.209301 
L 342.069515 59.599157 
L 163.72153 176.604241 
L 189.737664 159.748058 
L 111.282759 210.716332 
L 240.037488 126.219412 
L 262.395103 111.224768 
L 285.972225 96.506971 
L 66.161026 239.740942 
L 233.126952 130.657171 
L 100.713704 217.438382 
L 339.224 61.56273 
L 112.908767 209.649046 
L 337.597992 62.781174 
L 170.632066 170.97212 
L 126.323337 200.401839 
L 76.323578 232.987208 
L 267.679631 108.035583 
L 358.736101 48.949966 
L 157.623998 180.891184 
L 162.095522 177.73935 
L 134.046877 195.440859 
L 253.452057 117.920984 
L 244.915513 123.125536 
L 244.915513 123.125536 
" clip-path="url(#p5c1c2e8954)" style="fill: none; stroke: #1f77b4; stroke-width: 1.5; stroke-linecap: square"/>
   </g>
   <g id="patch_3">
    <path d="M 44.845313 253.44 
L 44.845313 36 
" style="fill: none; stroke: #000000; stroke-width: 0.8; stroke-linejoin: miter; stroke-linecap: square"/>
   </g>
   <g id="patch_4">
    <path d="M 379.645313 253.44 
L 379.645313 36 
" style="fill: none; stroke: #000000; stroke-width: 0.8; stroke-linejoin: miter; stroke-linecap: square"/>
   </g>
   <g id="patch_5">
    <path d="M 44.845313 253.44 
L 379.645313 253.44 
" style="fill: none; stroke: #000000; stroke-width: 0.8; stroke-linejoin: miter; stroke-linecap: square"/>
   </g>
   <g id="patch_6">
    <path d="M 44.845313 36 
L 379.645313 36 
" style="fill: none; stroke: #000000; stroke-width: 0.8; stroke-linejoin: miter; stroke-linecap: square"/>
   </g>
  </g>
  <g id="text_19">
   <!-- $x$ and $\hat{x}$ for $\tau_{rc}$: 0.025 -->
   <g transform="translate(143.605313 17.904375) scale(0.12 -0.12)">
    <defs>
     <path id="DejaVuSans-Oblique-78" d="M 3841 3500 
L 2234 1784 
L 3219 0 
L 2559 0 
L 1819 1388 
L 531 0 
L -166 0 
L 1556 1844 
L 641 3500 
L 1300 3500 
L 1972 2234 
L 3144 3500 
L 3841 3500 
z
" transform="scale(0.015625)"/>
     <path id="DejaVuSans-20" transform="scale(0.015625)"/>
     <path id="DejaVuSans-61" d="M 2194 1759 
Q 1497 1759 1228 1600 
Q 959 1441 959 1056 
Q 959 750 1161 570 
Q 1363 391 1709 391 
Q 2188 391 2477 730 
Q 2766 1069 2766 1631 
L 2766 1759 
L 2194 1759 
z
M 3341 1997 
L 3341 0 
L 2766 0 
L 2766 531 
Q 2569 213 2275 61 
Q 1981 -91 1556 -91 
Q 1019 -91 701 211 
Q 384 513 384 1019 
Q 384 1609 779 1909 
Q 1175 2209 1959 2209 
L 2766 2209 
L 2766 2266 
Q 2766 2663 2505 2880 
Q 2244 3097 1772 3097 
Q 1472 3097 1187 3025 
Q 903 2953 641 2809 
L 641 3341 
Q 956 3463 1253 3523 
Q 1550 3584 1831 3584 
Q 2591 3584 2966 3190 
Q 3341 2797 3341 1997 
z
" transform="scale(0.015625)"/>
     <path id="DejaVuSans-6e" d="M 3513 2113 
L 3513 0 
L 2938 0 
L 2938 2094 
Q 2938 2591 2744 2837 
Q 2550 3084 2163 3084 
Q 1697 3084 1428 2787 
Q 1159 2491 1159 1978 
L 1159 0 
L 581 0 
L 581 3500 
L 1159 3500 
L 1159 2956 
Q 1366 3272 1645 3428 
Q 1925 3584 2291 3584 
Q 2894 3584 3203 3211 
Q 3513 2838 3513 2113 
z
" transform="scale(0.015625)"/>
     <path id="DejaVuSans-64" d="M 2906 2969 
L 2906 4863 
L 3481 4863 
L 3481 0 
L 2906 0 
L 2906 525 
Q 2725 213 2448 61 
Q 2172 -91 1784 -91 
Q 1150 -91 751 415 
Q 353 922 353 1747 
Q 353 2572 751 3078 
Q 1150 3584 1784 3584 
Q 2172 3584 2448 3432 
Q 2725 3281 2906 2969 
z
M 947 1747 
Q 947 1113 1208 752 
Q 1469 391 1925 391 
Q 2381 391 2643 752 
Q 2906 1113 2906 1747 
Q 2906 2381 2643 2742 
Q 2381 3103 1925 3103 
Q 1469 3103 1208 2742 
Q 947 2381 947 1747 
z
" transform="scale(0.015625)"/>
     <path id="DejaVuSans-302" d="M -1831 5119 
L -1369 5119 
L -603 3944 
L -1038 3944 
L -1600 4709 
L -2163 3944 
L -2597 3944 
L -1831 5119 
z
M -1600 3584 
L -1600 3584 
z
" transform="scale(0.015625)"/>
     <path id="DejaVuSans-66" d="M 2375 4863 
L 2375 4384 
L 1825 4384 
Q 1516 4384 1395 4259 
Q 1275 4134 1275 3809 
L 1275 3500 
L 2222 3500 
L 2222 3053 
L 1275 3053 
L 1275 0 
L 697 0 
L 697 3053 
L 147 3053 
L 147 3500 
L 697 3500 
L 697 3744 
Q 697 4328 969 4595 
Q 1241 4863 1831 4863 
L 2375 4863 
z
" transform="scale(0.015625)"/>
     <path id="DejaVuSans-6f" d="M 1959 3097 
Q 1497 3097 1228 2736 
Q 959 2375 959 1747 
Q 959 1119 1226 758 
Q 1494 397 1959 397 
Q 2419 397 2687 759 
Q 2956 1122 2956 1747 
Q 2956 2369 2687 2733 
Q 2419 3097 1959 3097 
z
M 1959 3584 
Q 2709 3584 3137 3096 
Q 3566 2609 3566 1747 
Q 3566 888 3137 398 
Q 2709 -91 1959 -91 
Q 1206 -91 779 398 
Q 353 888 353 1747 
Q 353 2609 779 3096 
Q 1206 3584 1959 3584 
z
" transform="scale(0.015625)"/>
     <path id="DejaVuSans-72" d="M 2631 2963 
Q 2534 3019 2420 3045 
Q 2306 3072 2169 3072 
Q 1681 3072 1420 2755 
Q 1159 2438 1159 1844 
L 1159 0 
L 581 0 
L 581 3500 
L 1159 3500 
L 1159 2956 
Q 1341 3275 1631 3429 
Q 1922 3584 2338 3584 
Q 2397 3584 2469 3576 
Q 2541 3569 2628 3553 
L 2631 2963 
z
" transform="scale(0.015625)"/>
     <path id="DejaVuSans-Oblique-3c4" d="M 2103 638 
Q 2188 488 2525 488 
L 2800 488 
L 2706 0 
L 2363 0 
Q 1800 0 1600 300 
Q 1403 606 1534 1269 
L 1856 2925 
L 541 2925 
L 653 3500 
L 3881 3500 
L 3769 2925 
L 2444 2925 
L 2113 1234 
Q 2025 781 2103 638 
z
" transform="scale(0.015625)"/>
     <path id="DejaVuSans-Oblique-72" d="M 2853 2969 
Q 2766 3016 2653 3041 
Q 2541 3066 2413 3066 
Q 1953 3066 1609 2717 
Q 1266 2369 1153 1784 
L 800 0 
L 225 0 
L 909 3500 
L 1484 3500 
L 1375 2956 
Q 1603 3259 1920 3421 
Q 2238 3584 2597 3584 
Q 2691 3584 2781 3573 
Q 2872 3563 2963 3538 
L 2853 2969 
z
" transform="scale(0.015625)"/>
     <path id="DejaVuSans-Oblique-63" d="M 3431 3366 
L 3316 2797 
Q 3109 2947 2876 3022 
Q 2644 3097 2394 3097 
Q 2119 3097 1870 3000 
Q 1622 2903 1453 2725 
Q 1184 2453 1037 2087 
Q 891 1722 891 1331 
Q 891 859 1127 628 
Q 1363 397 1844 397 
Q 2081 397 2348 469 
Q 2616 541 2906 684 
L 2797 116 
Q 2547 13 2283 -39 
Q 2019 -91 1741 -91 
Q 1044 -91 669 257 
Q 294 606 294 1253 
Q 294 1797 489 2255 
Q 684 2713 1069 3078 
Q 1331 3328 1684 3456 
Q 2038 3584 2456 3584 
Q 2700 3584 2940 3529 
Q 3181 3475 3431 3366 
z
" transform="scale(0.015625)"/>
     <path id="DejaVuSans-3a" d="M 750 794 
L 1409 794 
L 1409 0 
L 750 0 
L 750 794 
z
M 750 3309 
L 1409 3309 
L 1409 2516 
L 750 2516 
L 750 3309 
z
" transform="scale(0.015625)"/>
    </defs>
    <use xlink:href="#DejaVuSans-Oblique-78" transform="translate(0 0.828125)"/>
    <use xlink:href="#DejaVuSans-20" transform="translate(59.179688 0.828125)"/>
    <use xlink:href="#DejaVuSans-61" transform="translate(90.966797 0.828125)"/>
    <use xlink:href="#DejaVuSans-6e" transform="translate(152.246094 0.828125)"/>
    <use xlink:href="#DejaVuSans-64" transform="translate(215.625 0.828125)"/>
    <use xlink:href="#DejaVuSans-20" transform="translate(279.101562 0.828125)"/>
    <use xlink:href="#DejaVuSans-302" transform="translate(373.261719 12.015625)"/>
    <use xlink:href="#DejaVuSans-Oblique-78" transform="translate(310.888672 0.828125)"/>
    <use xlink:href="#DejaVuSans-20" transform="translate(370.068359 0.828125)"/>
    <use xlink:href="#DejaVuSans-66" transform="translate(401.855469 0.828125)"/>
    <use xlink:href="#DejaVuSans-6f" transform="translate(437.060547 0.828125)"/>
    <use xlink:href="#DejaVuSans-72" transform="translate(498.242188 0.828125)"/>
    <use xlink:href="#DejaVuSans-20" transform="translate(539.355469 0.828125)"/>
    <use xlink:href="#DejaVuSans-Oblique-3c4" transform="translate(571.142578 0.828125)"/>
    <use xlink:href="#DejaVuSans-Oblique-72" transform="translate(631.347656 -15.578125) scale(0.7)"/>
    <use xlink:href="#DejaVuSans-Oblique-63" transform="translate(660.126953 -15.578125) scale(0.7)"/>
    <use xlink:href="#DejaVuSans-3a" transform="translate(701.347656 0.828125)"/>
    <use xlink:href="#DejaVuSans-20" transform="translate(735.039062 0.828125)"/>
    <use xlink:href="#DejaVuSans-30" transform="translate(766.826172 0.828125)"/>
    <use xlink:href="#DejaVuSans-2e" transform="translate(830.449219 0.828125)"/>
    <use xlink:href="#DejaVuSans-30" transform="translate(862.236328 0.828125)"/>
    <use xlink:href="#DejaVuSans-32" transform="translate(925.859375 0.828125)"/>
    <use xlink:href="#DejaVuSans-35" transform="translate(989.482422 0.828125)"/>
   </g>
  </g>
 </g>
 <defs>
  <clipPath id="p5c1c2e8954">
   <rect x="44.845313" y="36" width="334.8" height="217.44"/>
  </clipPath>
 </defs>
</svg>
