<?xml version="1.0" encoding="utf-8" standalone="no"?>
<!DOCTYPE svg PUBLIC "-//W3C//DTD SVG 1.1//EN"
  "http://www.w3.org/Graphics/SVG/1.1/DTD/svg11.dtd">
<svg xmlns:xlink="http://www.w3.org/1999/xlink" width="386.845313pt" height="277.318125pt" viewBox="0 0 386.845313 277.318125" xmlns="http://www.w3.org/2000/svg" version="1.1">
 <metadata>
  <rdf:RDF xmlns:dc="http://purl.org/dc/elements/1.1/" xmlns:cc="http://creativecommons.org/ns#" xmlns:rdf="http://www.w3.org/1999/02/22-rdf-syntax-ns#">
   <cc:Work>
    <dc:type rdf:resource="http://purl.org/dc/dcmitype/StillImage"/>
    <dc:date>2022-11-11T19:19:44.189006</dc:date>
    <dc:format>image/svg+xml</dc:format>
    <dc:creator>
     <cc:Agent>
      <dc:title>Matplotlib v3.6.0, https://matplotlib.org/</dc:title>
     </cc:Agent>
    </dc:creator>
   </cc:Work>
  </rdf:RDF>
 </metadata>
 <defs>
  <style type="text/css">*{stroke-linejoin: round; stroke-linecap: butt}</style>
 </defs>
 <g id="figure_1">
  <g id="patch_1">
   <path d="M 0 277.318125 
L 386.845313 277.318125 
L 386.845313 0 
L 0 0 
L 0 277.318125 
z
" style="fill: none"/>
  </g>
  <g id="axes_1">
   <g id="patch_2">
    <path d="M 44.845313 253.44 
L 379.645313 253.44 
L 379.645313 36 
L 44.845313 36 
z
" style="fill: #ffffff"/>
   </g>
   <g id="matplotlib.axis_1">
    <g id="xtick_1">
     <g id="line2d_1">
      <defs>
       <path id="m02cf472595" d="M 0 0 
L 0 3.5 
" style="stroke: #000000; stroke-width: 0.8"/>
      </defs>
      <g>
       <use xlink:href="#m02cf472595" x="59.698727" y="253.44" style="stroke: #000000; stroke-width: 0.8"/>
      </g>
     </g>
     <g id="text_1">
      <!-- −1.00 -->
      <g transform="translate(44.376071 268.038437) scale(0.1 -0.1)">
       <defs>
        <path id="DejaVuSans-2212" d="M 678 2272 
L 4684 2272 
L 4684 1741 
L 678 1741 
L 678 2272 
z
" transform="scale(0.015625)"/>
        <path id="DejaVuSans-31" d="M 794 531 
L 1825 531 
L 1825 4091 
L 703 3866 
L 703 4441 
L 1819 4666 
L 2450 4666 
L 2450 531 
L 3481 531 
L 3481 0 
L 794 0 
L 794 531 
z
" transform="scale(0.015625)"/>
        <path id="DejaVuSans-2e" d="M 684 794 
L 1344 794 
L 1344 0 
L 684 0 
L 684 794 
z
" transform="scale(0.015625)"/>
        <path id="DejaVuSans-30" d="M 2034 4250 
Q 1547 4250 1301 3770 
Q 1056 3291 1056 2328 
Q 1056 1369 1301 889 
Q 1547 409 2034 409 
Q 2525 409 2770 889 
Q 3016 1369 3016 2328 
Q 3016 3291 2770 3770 
Q 2525 4250 2034 4250 
z
M 2034 4750 
Q 2819 4750 3233 4129 
Q 3647 3509 3647 2328 
Q 3647 1150 3233 529 
Q 2819 -91 2034 -91 
Q 1250 -91 836 529 
Q 422 1150 422 2328 
Q 422 3509 836 4129 
Q 1250 4750 2034 4750 
z
" transform="scale(0.015625)"/>
       </defs>
       <use xlink:href="#DejaVuSans-2212"/>
       <use xlink:href="#DejaVuSans-31" x="83.789062"/>
       <use xlink:href="#DejaVuSans-2e" x="147.412109"/>
       <use xlink:href="#DejaVuSans-30" x="179.199219"/>
       <use xlink:href="#DejaVuSans-30" x="242.822266"/>
      </g>
     </g>
    </g>
    <g id="xtick_2">
     <g id="line2d_2">
      <g>
       <use xlink:href="#m02cf472595" x="97.808299" y="253.44" style="stroke: #000000; stroke-width: 0.8"/>
      </g>
     </g>
     <g id="text_2">
      <!-- −0.75 -->
      <g transform="translate(82.485643 268.038437) scale(0.1 -0.1)">
       <defs>
        <path id="DejaVuSans-37" d="M 525 4666 
L 3525 4666 
L 3525 4397 
L 1831 0 
L 1172 0 
L 2766 4134 
L 525 4134 
L 525 4666 
z
" transform="scale(0.015625)"/>
        <path id="DejaVuSans-35" d="M 691 4666 
L 3169 4666 
L 3169 4134 
L 1269 4134 
L 1269 2991 
Q 1406 3038 1543 3061 
Q 1681 3084 1819 3084 
Q 2600 3084 3056 2656 
Q 3513 2228 3513 1497 
Q 3513 744 3044 326 
Q 2575 -91 1722 -91 
Q 1428 -91 1123 -41 
Q 819 9 494 109 
L 494 744 
Q 775 591 1075 516 
Q 1375 441 1709 441 
Q 2250 441 2565 725 
Q 2881 1009 2881 1497 
Q 2881 1984 2565 2268 
Q 2250 2553 1709 2553 
Q 1456 2553 1204 2497 
Q 953 2441 691 2322 
L 691 4666 
z
" transform="scale(0.015625)"/>
       </defs>
       <use xlink:href="#DejaVuSans-2212"/>
       <use xlink:href="#DejaVuSans-30" x="83.789062"/>
       <use xlink:href="#DejaVuSans-2e" x="147.412109"/>
       <use xlink:href="#DejaVuSans-37" x="179.199219"/>
       <use xlink:href="#DejaVuSans-35" x="242.822266"/>
      </g>
     </g>
    </g>
    <g id="xtick_3">
     <g id="line2d_3">
      <g>
       <use xlink:href="#m02cf472595" x="135.917871" y="253.44" style="stroke: #000000; stroke-width: 0.8"/>
      </g>
     </g>
     <g id="text_3">
      <!-- −0.50 -->
      <g transform="translate(120.595215 268.038437) scale(0.1 -0.1)">
       <use xlink:href="#DejaVuSans-2212"/>
       <use xlink:href="#DejaVuSans-30" x="83.789062"/>
       <use xlink:href="#DejaVuSans-2e" x="147.412109"/>
       <use xlink:href="#DejaVuSans-35" x="179.199219"/>
       <use xlink:href="#DejaVuSans-30" x="242.822266"/>
      </g>
     </g>
    </g>
    <g id="xtick_4">
     <g id="line2d_4">
      <g>
       <use xlink:href="#m02cf472595" x="174.027443" y="253.44" style="stroke: #000000; stroke-width: 0.8"/>
      </g>
     </g>
     <g id="text_4">
      <!-- −0.25 -->
      <g transform="translate(158.704787 268.038437) scale(0.1 -0.1)">
       <defs>
        <path id="DejaVuSans-32" d="M 1228 531 
L 3431 531 
L 3431 0 
L 469 0 
L 469 531 
Q 828 903 1448 1529 
Q 2069 2156 2228 2338 
Q 2531 2678 2651 2914 
Q 2772 3150 2772 3378 
Q 2772 3750 2511 3984 
Q 2250 4219 1831 4219 
Q 1534 4219 1204 4116 
Q 875 4013 500 3803 
L 500 4441 
Q 881 4594 1212 4672 
Q 1544 4750 1819 4750 
Q 2544 4750 2975 4387 
Q 3406 4025 3406 3419 
Q 3406 3131 3298 2873 
Q 3191 2616 2906 2266 
Q 2828 2175 2409 1742 
Q 1991 1309 1228 531 
z
" transform="scale(0.015625)"/>
       </defs>
       <use xlink:href="#DejaVuSans-2212"/>
       <use xlink:href="#DejaVuSans-30" x="83.789062"/>
       <use xlink:href="#DejaVuSans-2e" x="147.412109"/>
       <use xlink:href="#DejaVuSans-32" x="179.199219"/>
       <use xlink:href="#DejaVuSans-35" x="242.822266"/>
      </g>
     </g>
    </g>
    <g id="xtick_5">
     <g id="line2d_5">
      <g>
       <use xlink:href="#m02cf472595" x="212.137015" y="253.44" style="stroke: #000000; stroke-width: 0.8"/>
      </g>
     </g>
     <g id="text_5">
      <!-- 0.00 -->
      <g transform="translate(201.004202 268.038437) scale(0.1 -0.1)">
       <use xlink:href="#DejaVuSans-30"/>
       <use xlink:href="#DejaVuSans-2e" x="63.623047"/>
       <use xlink:href="#DejaVuSans-30" x="95.410156"/>
       <use xlink:href="#DejaVuSans-30" x="159.033203"/>
      </g>
     </g>
    </g>
    <g id="xtick_6">
     <g id="line2d_6">
      <g>
       <use xlink:href="#m02cf472595" x="250.246587" y="253.44" style="stroke: #000000; stroke-width: 0.8"/>
      </g>
     </g>
     <g id="text_6">
      <!-- 0.25 -->
      <g transform="translate(239.113774 268.038437) scale(0.1 -0.1)">
       <use xlink:href="#DejaVuSans-30"/>
       <use xlink:href="#DejaVuSans-2e" x="63.623047"/>
       <use xlink:href="#DejaVuSans-32" x="95.410156"/>
       <use xlink:href="#DejaVuSans-35" x="159.033203"/>
      </g>
     </g>
    </g>
    <g id="xtick_7">
     <g id="line2d_7">
      <g>
       <use xlink:href="#m02cf472595" x="288.356159" y="253.44" style="stroke: #000000; stroke-width: 0.8"/>
      </g>
     </g>
     <g id="text_7">
      <!-- 0.50 -->
      <g transform="translate(277.223346 268.038437) scale(0.1 -0.1)">
       <use xlink:href="#DejaVuSans-30"/>
       <use xlink:href="#DejaVuSans-2e" x="63.623047"/>
       <use xlink:href="#DejaVuSans-35" x="95.410156"/>
       <use xlink:href="#DejaVuSans-30" x="159.033203"/>
      </g>
     </g>
    </g>
    <g id="xtick_8">
     <g id="line2d_8">
      <g>
       <use xlink:href="#m02cf472595" x="326.465731" y="253.44" style="stroke: #000000; stroke-width: 0.8"/>
      </g>
     </g>
     <g id="text_8">
      <!-- 0.75 -->
      <g transform="translate(315.332918 268.038437) scale(0.1 -0.1)">
       <use xlink:href="#DejaVuSans-30"/>
       <use xlink:href="#DejaVuSans-2e" x="63.623047"/>
       <use xlink:href="#DejaVuSans-37" x="95.410156"/>
       <use xlink:href="#DejaVuSans-35" x="159.033203"/>
      </g>
     </g>
    </g>
    <g id="xtick_9">
     <g id="line2d_9">
      <g>
       <use xlink:href="#m02cf472595" x="364.575302" y="253.44" style="stroke: #000000; stroke-width: 0.8"/>
      </g>
     </g>
     <g id="text_9">
      <!-- 1.00 -->
      <g transform="translate(353.44249 268.038437) scale(0.1 -0.1)">
       <use xlink:href="#DejaVuSans-31"/>
       <use xlink:href="#DejaVuSans-2e" x="63.623047"/>
       <use xlink:href="#DejaVuSans-30" x="95.410156"/>
       <use xlink:href="#DejaVuSans-30" x="159.033203"/>
      </g>
     </g>
    </g>
   </g>
   <g id="matplotlib.axis_2">
    <g id="ytick_1">
     <g id="line2d_10">
      <defs>
       <path id="md4c1a96e44" d="M 0 0 
L -3.5 0 
" style="stroke: #000000; stroke-width: 0.8"/>
      </defs>
      <g>
       <use xlink:href="#md4c1a96e44" x="44.845313" y="244.694424" style="stroke: #000000; stroke-width: 0.8"/>
      </g>
     </g>
     <g id="text_10">
      <!-- −1.00 -->
      <g transform="translate(7.2 248.493642) scale(0.1 -0.1)">
       <use xlink:href="#DejaVuSans-2212"/>
       <use xlink:href="#DejaVuSans-31" x="83.789062"/>
       <use xlink:href="#DejaVuSans-2e" x="147.412109"/>
       <use xlink:href="#DejaVuSans-30" x="179.199219"/>
       <use xlink:href="#DejaVuSans-30" x="242.822266"/>
      </g>
     </g>
    </g>
    <g id="ytick_2">
     <g id="line2d_11">
      <g>
       <use xlink:href="#md4c1a96e44" x="44.845313" y="219.640068" style="stroke: #000000; stroke-width: 0.8"/>
      </g>
     </g>
     <g id="text_11">
      <!-- −0.75 -->
      <g transform="translate(7.2 223.439287) scale(0.1 -0.1)">
       <use xlink:href="#DejaVuSans-2212"/>
       <use xlink:href="#DejaVuSans-30" x="83.789062"/>
       <use xlink:href="#DejaVuSans-2e" x="147.412109"/>
       <use xlink:href="#DejaVuSans-37" x="179.199219"/>
       <use xlink:href="#DejaVuSans-35" x="242.822266"/>
      </g>
     </g>
    </g>
    <g id="ytick_3">
     <g id="line2d_12">
      <g>
       <use xlink:href="#md4c1a96e44" x="44.845313" y="194.585713" style="stroke: #000000; stroke-width: 0.8"/>
      </g>
     </g>
     <g id="text_12">
      <!-- −0.50 -->
      <g transform="translate(7.2 198.384931) scale(0.1 -0.1)">
       <use xlink:href="#DejaVuSans-2212"/>
       <use xlink:href="#DejaVuSans-30" x="83.789062"/>
       <use xlink:href="#DejaVuSans-2e" x="147.412109"/>
       <use xlink:href="#DejaVuSans-35" x="179.199219"/>
       <use xlink:href="#DejaVuSans-30" x="242.822266"/>
      </g>
     </g>
    </g>
    <g id="ytick_4">
     <g id="line2d_13">
      <g>
       <use xlink:href="#md4c1a96e44" x="44.845313" y="169.531357" style="stroke: #000000; stroke-width: 0.8"/>
      </g>
     </g>
     <g id="text_13">
      <!-- −0.25 -->
      <g transform="translate(7.2 173.330576) scale(0.1 -0.1)">
       <use xlink:href="#DejaVuSans-2212"/>
       <use xlink:href="#DejaVuSans-30" x="83.789062"/>
       <use xlink:href="#DejaVuSans-2e" x="147.412109"/>
       <use xlink:href="#DejaVuSans-32" x="179.199219"/>
       <use xlink:href="#DejaVuSans-35" x="242.822266"/>
      </g>
     </g>
    </g>
    <g id="ytick_5">
     <g id="line2d_14">
      <g>
       <use xlink:href="#md4c1a96e44" x="44.845313" y="144.477002" style="stroke: #000000; stroke-width: 0.8"/>
      </g>
     </g>
     <g id="text_14">
      <!-- 0.00 -->
      <g transform="translate(15.579688 148.27622) scale(0.1 -0.1)">
       <use xlink:href="#DejaVuSans-30"/>
       <use xlink:href="#DejaVuSans-2e" x="63.623047"/>
       <use xlink:href="#DejaVuSans-30" x="95.410156"/>
       <use xlink:href="#DejaVuSans-30" x="159.033203"/>
      </g>
     </g>
    </g>
    <g id="ytick_6">
     <g id="line2d_15">
      <g>
       <use xlink:href="#md4c1a96e44" x="44.845313" y="119.422646" style="stroke: #000000; stroke-width: 0.8"/>
      </g>
     </g>
     <g id="text_15">
      <!-- 0.25 -->
      <g transform="translate(15.579688 123.221865) scale(0.1 -0.1)">
       <use xlink:href="#DejaVuSans-30"/>
       <use xlink:href="#DejaVuSans-2e" x="63.623047"/>
       <use xlink:href="#DejaVuSans-32" x="95.410156"/>
       <use xlink:href="#DejaVuSans-35" x="159.033203"/>
      </g>
     </g>
    </g>
    <g id="ytick_7">
     <g id="line2d_16">
      <g>
       <use xlink:href="#md4c1a96e44" x="44.845313" y="94.368291" style="stroke: #000000; stroke-width: 0.8"/>
      </g>
     </g>
     <g id="text_16">
      <!-- 0.50 -->
      <g transform="translate(15.579688 98.167509) scale(0.1 -0.1)">
       <use xlink:href="#DejaVuSans-30"/>
       <use xlink:href="#DejaVuSans-2e" x="63.623047"/>
       <use xlink:href="#DejaVuSans-35" x="95.410156"/>
       <use xlink:href="#DejaVuSans-30" x="159.033203"/>
      </g>
     </g>
    </g>
    <g id="ytick_8">
     <g id="line2d_17">
      <g>
       <use xlink:href="#md4c1a96e44" x="44.845313" y="69.313935" style="stroke: #000000; stroke-width: 0.8"/>
      </g>
     </g>
     <g id="text_17">
      <!-- 0.75 -->
      <g transform="translate(15.579688 73.113154) scale(0.1 -0.1)">
       <use xlink:href="#DejaVuSans-30"/>
       <use xlink:href="#DejaVuSans-2e" x="63.623047"/>
       <use xlink:href="#DejaVuSans-37" x="95.410156"/>
       <use xlink:href="#DejaVuSans-35" x="159.033203"/>
      </g>
     </g>
    </g>
    <g id="ytick_9">
     <g id="line2d_18">
      <g>
       <use xlink:href="#md4c1a96e44" x="44.845313" y="44.25958" style="stroke: #000000; stroke-width: 0.8"/>
      </g>
     </g>
     <g id="text_18">
      <!-- 1.00 -->
      <g transform="translate(15.579688 48.058798) scale(0.1 -0.1)">
       <use xlink:href="#DejaVuSans-31"/>
       <use xlink:href="#DejaVuSans-2e" x="63.623047"/>
       <use xlink:href="#DejaVuSans-30" x="95.410156"/>
       <use xlink:href="#DejaVuSans-30" x="159.033203"/>
      </g>
     </g>
    </g>
   </g>
   <g id="line2d_19">
    <path d="M 281.500702 98.880564 
L 270.118643 106.153462 
L 295.321774 89.969448 
L 216.460366 141.405254 
L 361.175114 47.379577 
L 329.874452 67.041449 
L 67.380532 239.365271 
L 335.565482 63.811064 
L 132.014366 197.019285 
L 361.581616 47.198418 
L 195.835196 155.621269 
L 337.19149 62.537271 
L 71.445553 236.834031 
L 256.297572 115.558096 
L 171.44507 170.307215 
L 65.348022 240.581421 
L 348.573549 54.553137 
L 319.7119 74.055226 
L 109.250248 212.543433 
L 214.021354 142.757091 
L 292.069757 92.342283 
L 218.899379 140.045668 
L 290.443748 93.376041 
L 257.92358 114.12327 
L 66.97403 239.606431 
L 281.907204 98.621048 
L 119.819303 205.009839 
L 363.614126 46.290417 
L 80.388599 230.53396 
L 219.305881 139.685875 
L 107.217738 213.770356 
L 133.640374 195.863499 
L 144.209429 189.274147 
L 324.589925 70.464798 
L 118.193295 206.178198 
L 86.486131 226.443225 
L 147.461446 187.246408 
L 324.996427 70.202593 
L 315.646879 76.688775 
L 325.402929 69.942413 
L 226.622919 135.082684 
L 198.274208 153.942383 
L 136.079387 194.344455 
L 101.933211 217.018873 
L 77.136583 232.78686 
L 259.143087 113.192733 
L 263.208108 110.255007 
L 259.549589 112.765215 
L 110.469755 211.796118 
L 97.055185 220.061867 
L 344.91503 56.899702 
L 338.410996 61.668116 
L 296.134778 89.346144 
L 118.599797 205.916142 
L 299.386795 87.436067 
L 314.833874 77.159117 
L 185.672643 162.147159 
L 346.541038 55.779578 
L 166.973547 173.891202 
L 227.435923 134.53386 
L 301.825807 85.619423 
L 90.551152 224.120992 
L 201.119723 151.717041 
L 69.819545 237.880011 
L 176.729597 167.359887 
L 322.150912 72.118717 
L 251.826049 118.646537 
L 237.598475 127.480737 
L 354.264578 51.210549 
L 261.988601 111.000503 
L 99.087696 218.85976 
L 70.632549 237.36386 
L 244.509011 123.190677 
L 253.045555 117.96456 
L 123.07132 202.694851 
L 64.535017 241.172557 
L 210.469271 144.751885 
L 302.232309 85.357625 
L 179.16861 165.99349 
L 162.502024 177.658781 
L 93.803169 221.92225 
L 269.712141 106.394737 
L 164.941036 175.519795 
L 206.810753 147.849306 
L 353.858076 51.489625 
L 238.41148 127.011759 
L 199.900217 152.617765 
L 115.34778 208.476202 
L 232.72045 130.738958 
L 293.289263 91.253297 
L 127.949345 199.615705 
L 181.20112 164.843678 
L 316.866385 75.979033 
L 157.217496 181.446619 
L 183.640133 163.433452 
L 76.73008 233.059488 
L 101.526709 217.238047 
L 70.226047 237.623524 
L 294.102267 90.741786 
L 120.632307 204.445563 
L 360.768612 47.56142 
L 222.151396 137.761203 
L 335.971984 63.50104 
L 294.508769 90.487289 
L 348.167047 54.795068 
L 339.630503 60.625989 
L 60.876499 243.191322 
L 227.842425 134.289799 
L 117.38029 207.007497 
L 304.671322 83.835513 
L 171.038568 170.535336 
L 148.27445 186.794479 
L 75.917076 233.591064 
L 117.786793 206.478595 
L 292.476259 91.793812 
L 149.087454 186.341935 
L 224.99691 136.058881 
L 220.118885 139.13631 
L 196.6482 155.068878 
L 102.339713 216.798849 
L 184.046635 163.18903 
L 96.648683 220.297638 
L 172.258074 169.852338 
L 98.681194 219.104167 
L 334.345975 64.547077 
L 73.478064 235.433785 
L 297.354284 88.538539 
L 168.193053 172.779542 
L 193.802685 157.001457 
L 209.656267 145.50643 
L 207.217255 147.530372 
L 64.94152 240.958304 
L 103.559219 216.13346 
L 333.126469 65.215217 
L 154.371982 183.359065 
L 336.378486 63.233035 
L 359.955608 47.927498 
L 254.265061 117.284711 
L 213.208349 143.20913 
L 331.500461 66.119473 
L 260.362593 112.173325 
L 342.476017 58.629641 
L 231.500944 131.697505 
L 120.225805 204.721538 
L 179.575112 165.764555 
L 290.850251 93.125346 
L 302.638811 85.098947 
L 217.679872 140.727882 
L 150.306961 185.660893 
L 341.663013 59.164296 
L 230.68794 132.247126 
L 133.233872 196.130653 
L 137.298893 193.707248 
L 142.176919 190.5021 
L 165.75404 174.831259 
L 147.054944 187.472367 
L 317.272887 75.735867 
L 84.45362 227.566439 
L 105.185227 214.992104 
L 229.468433 133.251858 
L 364.020629 46.053272 
L 153.152475 184.055821 
L 211.688778 144.059628 
L 114.128274 209.301735 
L 262.801606 110.502379 
L 199.493715 152.892254 
L 75.510574 233.850819 
L 141.363914 190.944024 
L 307.923339 81.872839 
L 202.339229 150.87552 
L 140.957412 191.16483 
L 348.980051 54.312695 
L 233.533454 130.191516 
L 355.077582 50.757206 
L 204.778242 149.189117 
L 176.323095 167.586745 
L 192.989681 157.56833 
L 234.752961 129.354322 
L 359.142603 48.297155 
L 153.96548 183.591994 
L 264.021112 109.76329 
L 293.695765 90.996536 
L 85.266625 227.117149 
L 313.207866 78.184735 
L 100.307202 218.100774 
L 144.615931 189.010276 
L 272.557656 104.546706 
L 64.128515 241.38549 
L 147.867948 187.020481 
L 233.939956 129.919551 
L 323.370419 71.267228 
L 275.403171 102.913924 
L 150.713463 185.433104 
L 91.364156 223.30954 
L 273.37066 104.070671 
L 93.396667 222.15206 
L 312.801364 78.436328 
L 162.908526 177.369439 
L 91.770658 223.074414 
L 153.558977 183.824237 
L 102.746215 216.577953 
L 177.136099 167.132833 
L 357.923097 49.081989 
L 321.337908 72.947488 
L 151.119965 185.204865 
L 357.516595 49.2983 
L 362.39462 46.837545 
L 158.437003 180.476184 
L 312.394862 78.684418 
L 110.876257 211.544679 
L 238.817982 126.761218 
L 304.26482 84.085129 
L 175.916593 167.81344 
L 196.241698 155.34552 
L 298.167288 88.09538 
L 95.835679 220.765872 
L 323.776921 70.996604 
L 282.313706 98.36342 
L 318.492393 74.951585 
L 205.997748 148.479593 
L 354.67108 50.984493 
L 131.607864 197.281196 
L 178.762108 166.222018 
L 329.46795 67.275016 
L 192.583179 157.865655 
L 310.362351 80.163522 
L 123.884324 202.161401 
L 203.965238 149.79544 
L 350.199557 53.599401 
L 288.81774 94.367332 
L 231.094442 131.962904 
L 182.014124 164.379057 
L 213.614851 142.98293 
L 300.606301 86.443325 
L 284.752719 96.844882 
L 160.063011 179.346367 
L 283.533213 97.599286 
L 164.534534 175.940879 
L 88.112139 225.535176 
L 250.606543 119.332115 
L 265.64712 108.790334 
L 240.44399 125.811918 
L 135.266383 194.765136 
L 60.469996 243.374606 
L 177.542601 166.905553 
L 180.388116 165.305268 
L 128.762349 199.049277 
L 332.313465 65.665289 
L 295.728276 89.582413 
L 215.647362 141.855754 
L 194.61569 156.447124 
L 306.29733 82.84787 
L 228.248927 134.041643 
L 135.672885 194.555152 
L 311.581858 79.359739 
L 210.062769 145.093869 
L 347.760545 55.038577 
L 116.160784 207.910967 
L 335.158979 64.105728 
L 236.378969 128.176203 
L 195.428694 155.896517 
L 134.453379 195.183212 
L 303.045314 84.842728 
L 152.339471 184.517128 
L 224.590408 136.286369 
L 92.990164 222.381788 
L 68.600038 238.632688 
L 190.957171 159.202174 
L 95.022675 221.230423 
L 308.736343 81.254769 
L 149.493956 186.115268 
L 136.892391 193.920604 
L 277.842183 101.555097 
L 328.248444 68.157162 
L 125.916835 200.773876 
L 215.24086 142.080934 
L 141.770417 190.723166 
L 208.030259 146.80757 
L 84.047118 227.959616 
L 282.720208 98.107389 
L 200.306719 152.304466 
L 130.388358 198.043385 
L 214.427856 142.53153 
L 346.134536 56.030471 
L 94.209671 221.692145 
L 104.778725 215.246514 
L 333.939473 64.768922 
L 338.817498 61.335589 
L 352.63857 52.198634 
L 327.43544 68.66368 
L 75.104072 234.10695 
L 203.152234 150.354557 
L 291.663255 92.613477 
L 97.461688 219.824821 
L 255.484568 116.156344 
L 145.835438 188.248331 
L 220.525387 138.874125 
L 330.280954 66.809153 
L 165.347538 175.215938 
L 253.858559 117.511189 
L 84.860122 227.341553 
L 301.012803 86.15802 
L 361.988118 47.01781 
L 248.16753 120.72061 
L 340.037005 60.310659 
L 242.476501 124.728508 
L 248.980534 120.254511 
L 221.338391 138.23642 
L 353.045072 51.966043 
L 352.232068 52.43084 
L 345.728034 56.283579 
L 308.329841 81.630355 
L 338.004494 61.953905 
L 274.590166 103.373071 
L 169.006057 172.044733 
L 158.030501 180.776942 
L 174.697087 168.492875 
L 292.882761 91.5151 
L 67.787034 239.122849 
L 332.719967 65.43976 
L 351.419063 52.896048 
L 98.274692 219.346217 
L 212.801847 143.435782 
L 140.55091 191.385762 
L 163.315028 177.073919 
L 241.256994 125.377703 
L 180.794618 165.074798 
L 329.061448 67.64209 
L 125.510332 201.003275 
L 134.859881 194.97447 
L 99.494198 218.61229 
L 327.028937 68.917258 
L 314.427372 77.39458 
L 346.94754 55.530721 
L 143.396425 189.836175 
L 355.890587 50.290287 
L 349.793055 53.83592 
L 261.582099 111.251423 
L 62.502507 242.231735 
L 124.697328 201.460421 
L 69.006541 238.384366 
L 124.290826 201.875499 
L 311.98836 79.08026 
L 62.096005 242.447207 
L 220.931889 138.605607 
L 79.169093 231.211505 
L 246.135019 122.108857 
L 314.02087 77.630471 
L 318.898895 74.729669 
L 289.630744 93.873075 
L 218.086375 140.501229 
L 122.664818 203.057554 
L 145.022433 188.760048 
L 173.071078 169.398666 
L 105.998232 214.500941 
L 270.525145 105.907496 
L 87.705637 225.763712 
L 300.199799 86.887801 
L 296.54128 89.108452 
L 132.420868 196.74698 
L 320.931406 73.216924 
L 303.451816 84.588538 
L 155.99799 182.419871 
L 249.793538 119.791909 
L 146.648442 187.698498 
L 82.42111 229.237483 
L 60.063494 243.556364 
L 61.283001 243.006468 
L 277.435681 101.779946 
L 114.941278 208.753775 
L 303.858318 84.336079 
L 99.9007 218.360404 
L 181.607622 164.611808 
L 113.721772 209.572861 
L 164.128032 176.285418 
L 260.769095 111.757507 
L 108.437244 213.036543 
L 289.224242 94.120402 
L 126.729839 200.313065 
L 309.549347 80.699087 
L 250.20004 119.561697 
L 239.224484 126.466297 
L 280.281196 99.675628 
L 340.850009 59.708128 
L 264.834116 109.27521 
L 317.679389 75.396177 
L 197.867706 154.22862 
L 217.27337 140.95402 
L 96.242181 220.532269 
L 347.354042 55.28376 
L 343.289021 58.101589 
L 182.420627 164.145237 
L 188.518158 160.572289 
L 258.736585 113.506842 
L 190.550669 159.432039 
L 63.722013 241.597372 
L 257.517078 114.434444 
L 179.981614 165.535165 
L 249.387036 120.022821 
L 208.843263 146.088143 
L 207.623757 147.230328 
L 247.761028 120.95526 
L 115.754282 208.195545 
L 204.37174 149.42323 
L 344.102026 57.482089 
L 121.851814 203.62672 
L 266.460124 108.308238 
L 146.24194 187.924998 
L 139.331404 192.250527 
L 159.250007 179.906016 
L 152.745973 184.286775 
L 273.777162 103.836633 
L 73.071562 235.724133 
L 155.184986 182.891027 
L 101.120206 217.456391 
L 345.321532 56.53915 
L 173.884082 168.94565 
L 307.516837 82.115733 
L 287.598234 95.107513 
L 290.037246 93.625083 
L 140.144408 191.740769 
L 184.859639 162.593263 
L 353.451574 51.731835 
L 225.403412 135.828146 
L 269.305639 106.634304 
L 216.866868 141.179775 
L 112.095763 210.646167 
L 333.532971 64.99162 
L 116.973788 207.322757 
L 327.841942 68.410528 
L 92.583662 222.611732 
L 331.093958 66.348206 
L 281.0942 99.142374 
L 72.258557 236.288378 
L 129.168851 198.793971 
L 185.266141 162.370405 
L 235.565965 128.709022 
L 288.004736 94.860747 
L 112.502265 210.378653 
L 279.874694 99.94976 
L 90.14465 224.365712 
L 108.843746 212.790446 
L 74.291068 234.831466 
L 279.06169 100.539356 
L 155.591488 182.655855 
L 351.825566 52.663204 
L 168.599555 172.437078 
L 280.687698 99.407075 
L 78.356089 231.931182 
L 210.875774 144.519732 
L 237.191973 127.712685 
L 325.809431 69.68401 
L 228.655429 133.676735 
L 324.183423 70.729331 
L 169.819061 171.503105 
L 160.469513 179.06744 
L 184.453137 162.930511 
L 287.191732 95.354465 
L 246.541522 121.846961 
L 85.673127 226.89281 
L 111.689261 210.914688 
L 356.297089 49.927158 
L 183.233631 163.6731 
L 322.557414 71.823824 
L 242.883003 124.512471 
L 316.053381 76.453359 
L 216.053864 141.630553 
L 209.249765 145.800102 
L 364.427131 45.883636 
L 279.468192 100.23326 
L 161.689019 178.227256 
L 175.103589 168.266471 
L 190.144166 159.661265 
L 71.039051 237.10078 
L 229.874935 133.040178 
L 107.62424 213.526378 
L 208.436761 146.384699 
L 69.413043 238.13355 
L 86.892633 226.217573 
L 274.996669 103.143022 
L 326.215933 69.427163 
L 244.102509 123.562547 
L 221.744893 137.999434 
L 251.013045 119.103099 
L 175.510091 168.040004 
L 143.802927 189.612719 
L 125.10383 201.232098 
L 79.982097 230.761712 
L 186.485648 161.699446 
L 283.126711 97.852735 
L 71.852055 236.563334 
L 193.396183 157.282304 
L 200.713221 151.960356 
L 344.508528 57.195855 
L 285.159221 96.595052 
L 243.289505 124.085685 
L 94.616173 221.461581 
L 322.963916 71.542245 
L 122.258316 203.348511 
L 363.207624 46.476012 
L 246.948024 121.581059 
L 357.110093 49.509474 
L 103.965721 215.802805 
L 315.240377 76.923921 
L 239.630986 126.247702 
L 243.696007 123.817495 
L 171.851572 170.079584 
L 158.843505 180.188719 
L 359.549105 48.111855 
L 274.183664 103.604208 
L 188.92466 160.345368 
L 301.419305 85.885466 
L 186.079145 161.923511 
L 173.47758 169.172104 
L 151.932969 184.746908 
L 127.136341 200.081508 
L 142.583421 190.280681 
L 358.329599 48.767206 
L 225.809914 135.584051 
L 214.834358 142.306169 
L 203.558736 150.086251 
L 177.949103 166.678013 
L 309.142845 80.971721 
L 254.671564 116.927058 
L 248.574032 120.487071 
L 61.689503 242.676536 
L 305.077824 83.587091 
L 88.518641 225.305323 
L 291.256753 92.871929 
L 264.427614 109.518823 
L 288.411238 94.614062 
L 199.087213 153.346116 
L 188.111656 160.798688 
L 88.925143 225.073907 
L 191.363673 158.97164 
L 251.419547 118.874592 
L 266.053622 108.548965 
L 160.876015 178.788279 
L 305.890828 83.09337 
L 351.012561 53.12959 
L 92.17716 222.842347 
L 166.567045 174.213006 
L 330.687456 66.578086 
L 189.331162 160.117905 
L 73.884566 235.136823 
L 229.061931 133.46395 
L 74.69757 234.512463 
L 106.404734 214.257332 
L 278.248685 101.330814 
L 110.063253 212.046342 
L 156.404492 182.183038 
L 240.850492 125.594638 
L 151.526467 184.976144 
L 298.57379 87.874923 
L 263.61461 110.008665 
L 235.972467 128.408533 
L 328.654946 67.902292 
L 197.054702 154.790907 
L 211.282276 144.289083 
L 247.354526 121.281075 
L 89.331646 224.840592 
L 138.5184 192.743502 
L 129.575353 198.543397 
L 362.801122 46.657239 
L 197.461204 154.51107 
L 342.882519 58.364969 
L 252.639053 118.191574 
L 219.712383 139.400656 
L 265.240618 109.032398 
L 212.09528 143.831139 
L 222.9644 137.255424 
L 319.305398 74.385548 
L 331.906963 65.891847 
L 105.59173 214.745397 
L 182.827129 163.910072 
L 78.762591 231.62182 
L 349.386553 54.073653 
L 103.152717 216.356163 
L 136.485889 194.132969 
L 297.760786 88.316571 
L 306.703832 82.603157 
L 326.622435 69.171657 
L 320.524904 73.486278 
L 169.412559 171.775368 
L 296.947782 88.865794 
L 63.315511 241.808574 
L 121.038809 204.172906 
L 223.370902 136.961744 
L 65.754524 240.330457 
L 261.175597 111.503716 
L 201.932727 151.134091 
L 218.492877 140.273897 
L 104.372223 215.561057 
L 113.315269 209.842497 
L 313.614368 77.866924 
L 360.36211 47.744038 
L 167.786551 173.188115 
L 174.290585 168.719255 
L 242.069998 124.944688 
L 271.33815 105.345412 
L 294.915272 90.231155 
L 270.931648 105.571313 
L 149.900459 185.888268 
L 192.176677 158.300057 
L 343.695524 57.777376 
L 167.380049 173.470452 
L 187.705154 161.024586 
L 119.006299 205.668114 
L 336.784988 62.846326 
L 81.201604 230.072182 
L 318.085891 75.173717 
L 271.744652 105.120113 
L 285.565723 96.345895 
L 106.811236 214.013927 
L 195.022192 156.171656 
L 142.989923 190.058761 
L 161.282517 178.508385 
L 132.82737 196.386132 
L 66.567528 239.846899 
L 356.703591 49.718698 
L 212.395345 143.662992 
L 256.704074 115.092818 
L 129.981856 198.293643 
L 82.827612 228.843865 
L 77.543085 232.508862 
L 87.299135 225.991121 
L 138.111898 192.994492 
L 272.964158 104.306915 
L 286.78523 95.601698 
L 80.795101 230.304162 
L 259.956091 112.475397 
L 72.665059 236.008795 
L 226.216417 135.302954 
L 255.078066 116.663788 
L 83.640616 228.254743 
L 109.656751 212.295424 
L 321.74441 72.669388 
L 159.656509 179.625637 
L 309.955849 80.4304 
L 154.778484 183.125419 
L 123.477822 202.431266 
L 277.029179 102.00539 
L 79.575595 230.987529 
L 355.484084 50.527192 
L 90.957654 223.680054 
L 350.606059 53.363996 
L 234.346459 129.644159 
L 286.378727 95.849295 
L 148.680952 186.56832 
L 283.939715 97.346904 
L 268.086133 107.350408 
L 316.459883 76.217139 
L 108.030742 213.281818 
L 245.322015 122.634703 
L 121.445311 203.90063 
L 83.234114 228.542475 
L 305.484326 83.339745 
L 97.86819 219.58634 
L 268.492635 107.111764 
L 334.752477 64.326032 
L 310.768853 79.897139 
L 114.534776 209.028817 
L 156.810994 181.860985 
L 127.542843 199.849082 
L 77.949587 232.224396 
L 311.175356 79.629928 
L 266.866627 108.068091 
L 170.225564 171.222187 
L 252.232551 118.418882 
L 139.737906 192.001479 
L 222.557898 137.519255 
L 187.298652 161.25 
L 231.907446 131.439225 
L 191.770175 158.588107 
L 172.664576 169.625389 
L 145.428935 188.510103 
L 320.118402 73.760342 
L 194.209187 156.723469 
L 223.777404 136.737252 
L 272.151154 104.794924 
L 340.443507 59.984415 
L 128.355847 199.381283 
L 342.069515 58.895978 
L 163.72153 176.765567 
L 189.737664 159.889879 
L 111.282759 211.187968 
L 240.037488 126.029591 
L 262.395103 110.750852 
L 285.972225 96.097335 
L 66.161026 240.087608 
L 233.126952 130.46367 
L 100.713704 217.817388 
L 339.224 60.92909 
L 112.908767 210.110962 
L 337.597992 62.242556 
L 170.632066 170.882457 
L 126.323337 200.54383 
L 76.323578 233.327403 
L 267.679631 107.589264 
L 358.736101 48.565984 
L 157.623998 181.160688 
L 162.095522 177.944313 
L 134.046877 195.537673 
L 253.452057 117.737785 
L 244.915513 122.904274 
L 244.915513 122.904274 
" clip-path="url(#pc8d091fc23)" style="fill: none; stroke: #1f77b4; stroke-width: 1.5; stroke-linecap: square"/>
   </g>
   <g id="patch_3">
    <path d="M 44.845313 253.44 
L 44.845313 36 
" style="fill: none; stroke: #000000; stroke-width: 0.8; stroke-linejoin: miter; stroke-linecap: square"/>
   </g>
   <g id="patch_4">
    <path d="M 379.645313 253.44 
L 379.645313 36 
" style="fill: none; stroke: #000000; stroke-width: 0.8; stroke-linejoin: miter; stroke-linecap: square"/>
   </g>
   <g id="patch_5">
    <path d="M 44.845313 253.44 
L 379.645313 253.44 
" style="fill: none; stroke: #000000; stroke-width: 0.8; stroke-linejoin: miter; stroke-linecap: square"/>
   </g>
   <g id="patch_6">
    <path d="M 44.845313 36 
L 379.645313 36 
" style="fill: none; stroke: #000000; stroke-width: 0.8; stroke-linejoin: miter; stroke-linecap: square"/>
   </g>
  </g>
  <g id="text_19">
   <!-- $x$ and $\hat{x}$ for $\tau_{ref}$: 0.003 -->
   <g transform="translate(141.865313 17.904375) scale(0.12 -0.12)">
    <defs>
     <path id="DejaVuSans-Oblique-78" d="M 3841 3500 
L 2234 1784 
L 3219 0 
L 2559 0 
L 1819 1388 
L 531 0 
L -166 0 
L 1556 1844 
L 641 3500 
L 1300 3500 
L 1972 2234 
L 3144 3500 
L 3841 3500 
z
" transform="scale(0.015625)"/>
     <path id="DejaVuSans-20" transform="scale(0.015625)"/>
     <path id="DejaVuSans-61" d="M 2194 1759 
Q 1497 1759 1228 1600 
Q 959 1441 959 1056 
Q 959 750 1161 570 
Q 1363 391 1709 391 
Q 2188 391 2477 730 
Q 2766 1069 2766 1631 
L 2766 1759 
L 2194 1759 
z
M 3341 1997 
L 3341 0 
L 2766 0 
L 2766 531 
Q 2569 213 2275 61 
Q 1981 -91 1556 -91 
Q 1019 -91 701 211 
Q 384 513 384 1019 
Q 384 1609 779 1909 
Q 1175 2209 1959 2209 
L 2766 2209 
L 2766 2266 
Q 2766 2663 2505 2880 
Q 2244 3097 1772 3097 
Q 1472 3097 1187 3025 
Q 903 2953 641 2809 
L 641 3341 
Q 956 3463 1253 3523 
Q 1550 3584 1831 3584 
Q 2591 3584 2966 3190 
Q 3341 2797 3341 1997 
z
" transform="scale(0.015625)"/>
     <path id="DejaVuSans-6e" d="M 3513 2113 
L 3513 0 
L 2938 0 
L 2938 2094 
Q 2938 2591 2744 2837 
Q 2550 3084 2163 3084 
Q 1697 3084 1428 2787 
Q 1159 2491 1159 1978 
L 1159 0 
L 581 0 
L 581 3500 
L 1159 3500 
L 1159 2956 
Q 1366 3272 1645 3428 
Q 1925 3584 2291 3584 
Q 2894 3584 3203 3211 
Q 3513 2838 3513 2113 
z
" transform="scale(0.015625)"/>
     <path id="DejaVuSans-64" d="M 2906 2969 
L 2906 4863 
L 3481 4863 
L 3481 0 
L 2906 0 
L 2906 525 
Q 2725 213 2448 61 
Q 2172 -91 1784 -91 
Q 1150 -91 751 415 
Q 353 922 353 1747 
Q 353 2572 751 3078 
Q 1150 3584 1784 3584 
Q 2172 3584 2448 3432 
Q 2725 3281 2906 2969 
z
M 947 1747 
Q 947 1113 1208 752 
Q 1469 391 1925 391 
Q 2381 391 2643 752 
Q 2906 1113 2906 1747 
Q 2906 2381 2643 2742 
Q 2381 3103 1925 3103 
Q 1469 3103 1208 2742 
Q 947 2381 947 1747 
z
" transform="scale(0.015625)"/>
     <path id="DejaVuSans-302" d="M -1831 5119 
L -1369 5119 
L -603 3944 
L -1038 3944 
L -1600 4709 
L -2163 3944 
L -2597 3944 
L -1831 5119 
z
M -1600 3584 
L -1600 3584 
z
" transform="scale(0.015625)"/>
     <path id="DejaVuSans-66" d="M 2375 4863 
L 2375 4384 
L 1825 4384 
Q 1516 4384 1395 4259 
Q 1275 4134 1275 3809 
L 1275 3500 
L 2222 3500 
L 2222 3053 
L 1275 3053 
L 1275 0 
L 697 0 
L 697 3053 
L 147 3053 
L 147 3500 
L 697 3500 
L 697 3744 
Q 697 4328 969 4595 
Q 1241 4863 1831 4863 
L 2375 4863 
z
" transform="scale(0.015625)"/>
     <path id="DejaVuSans-6f" d="M 1959 3097 
Q 1497 3097 1228 2736 
Q 959 2375 959 1747 
Q 959 1119 1226 758 
Q 1494 397 1959 397 
Q 2419 397 2687 759 
Q 2956 1122 2956 1747 
Q 2956 2369 2687 2733 
Q 2419 3097 1959 3097 
z
M 1959 3584 
Q 2709 3584 3137 3096 
Q 3566 2609 3566 1747 
Q 3566 888 3137 398 
Q 2709 -91 1959 -91 
Q 1206 -91 779 398 
Q 353 888 353 1747 
Q 353 2609 779 3096 
Q 1206 3584 1959 3584 
z
" transform="scale(0.015625)"/>
     <path id="DejaVuSans-72" d="M 2631 2963 
Q 2534 3019 2420 3045 
Q 2306 3072 2169 3072 
Q 1681 3072 1420 2755 
Q 1159 2438 1159 1844 
L 1159 0 
L 581 0 
L 581 3500 
L 1159 3500 
L 1159 2956 
Q 1341 3275 1631 3429 
Q 1922 3584 2338 3584 
Q 2397 3584 2469 3576 
Q 2541 3569 2628 3553 
L 2631 2963 
z
" transform="scale(0.015625)"/>
     <path id="DejaVuSans-Oblique-3c4" d="M 2103 638 
Q 2188 488 2525 488 
L 2800 488 
L 2706 0 
L 2363 0 
Q 1800 0 1600 300 
Q 1403 606 1534 1269 
L 1856 2925 
L 541 2925 
L 653 3500 
L 3881 3500 
L 3769 2925 
L 2444 2925 
L 2113 1234 
Q 2025 781 2103 638 
z
" transform="scale(0.015625)"/>
     <path id="DejaVuSans-Oblique-72" d="M 2853 2969 
Q 2766 3016 2653 3041 
Q 2541 3066 2413 3066 
Q 1953 3066 1609 2717 
Q 1266 2369 1153 1784 
L 800 0 
L 225 0 
L 909 3500 
L 1484 3500 
L 1375 2956 
Q 1603 3259 1920 3421 
Q 2238 3584 2597 3584 
Q 2691 3584 2781 3573 
Q 2872 3563 2963 3538 
L 2853 2969 
z
" transform="scale(0.015625)"/>
     <path id="DejaVuSans-Oblique-65" d="M 3078 2063 
Q 3088 2113 3092 2166 
Q 3097 2219 3097 2272 
Q 3097 2653 2873 2875 
Q 2650 3097 2266 3097 
Q 1838 3097 1509 2826 
Q 1181 2556 1013 2059 
L 3078 2063 
z
M 3578 1613 
L 903 1613 
Q 884 1494 878 1425 
Q 872 1356 872 1306 
Q 872 872 1139 634 
Q 1406 397 1894 397 
Q 2269 397 2603 481 
Q 2938 566 3225 728 
L 3116 159 
Q 2806 34 2476 -28 
Q 2147 -91 1806 -91 
Q 1078 -91 686 257 
Q 294 606 294 1247 
Q 294 1794 489 2264 
Q 684 2734 1063 3103 
Q 1306 3334 1642 3459 
Q 1978 3584 2356 3584 
Q 2950 3584 3301 3228 
Q 3653 2872 3653 2272 
Q 3653 2128 3634 1964 
Q 3616 1800 3578 1613 
z
" transform="scale(0.015625)"/>
     <path id="DejaVuSans-Oblique-66" d="M 3059 4863 
L 2969 4384 
L 2419 4384 
Q 2106 4384 1964 4261 
Q 1822 4138 1753 3809 
L 1691 3500 
L 2638 3500 
L 2553 3053 
L 1606 3053 
L 1013 0 
L 434 0 
L 1031 3053 
L 481 3053 
L 563 3500 
L 1113 3500 
L 1159 3744 
Q 1278 4363 1576 4613 
Q 1875 4863 2516 4863 
L 3059 4863 
z
" transform="scale(0.015625)"/>
     <path id="DejaVuSans-3a" d="M 750 794 
L 1409 794 
L 1409 0 
L 750 0 
L 750 794 
z
M 750 3309 
L 1409 3309 
L 1409 2516 
L 750 2516 
L 750 3309 
z
" transform="scale(0.015625)"/>
     <path id="DejaVuSans-33" d="M 2597 2516 
Q 3050 2419 3304 2112 
Q 3559 1806 3559 1356 
Q 3559 666 3084 287 
Q 2609 -91 1734 -91 
Q 1441 -91 1130 -33 
Q 819 25 488 141 
L 488 750 
Q 750 597 1062 519 
Q 1375 441 1716 441 
Q 2309 441 2620 675 
Q 2931 909 2931 1356 
Q 2931 1769 2642 2001 
Q 2353 2234 1838 2234 
L 1294 2234 
L 1294 2753 
L 1863 2753 
Q 2328 2753 2575 2939 
Q 2822 3125 2822 3475 
Q 2822 3834 2567 4026 
Q 2313 4219 1838 4219 
Q 1578 4219 1281 4162 
Q 984 4106 628 3988 
L 628 4550 
Q 988 4650 1302 4700 
Q 1616 4750 1894 4750 
Q 2613 4750 3031 4423 
Q 3450 4097 3450 3541 
Q 3450 3153 3228 2886 
Q 3006 2619 2597 2516 
z
" transform="scale(0.015625)"/>
    </defs>
    <use xlink:href="#DejaVuSans-Oblique-78" transform="translate(0 0.828125)"/>
    <use xlink:href="#DejaVuSans-20" transform="translate(59.179688 0.828125)"/>
    <use xlink:href="#DejaVuSans-61" transform="translate(90.966797 0.828125)"/>
    <use xlink:href="#DejaVuSans-6e" transform="translate(152.246094 0.828125)"/>
    <use xlink:href="#DejaVuSans-64" transform="translate(215.625 0.828125)"/>
    <use xlink:href="#DejaVuSans-20" transform="translate(279.101562 0.828125)"/>
    <use xlink:href="#DejaVuSans-302" transform="translate(373.261719 12.015625)"/>
    <use xlink:href="#DejaVuSans-Oblique-78" transform="translate(310.888672 0.828125)"/>
    <use xlink:href="#DejaVuSans-20" transform="translate(370.068359 0.828125)"/>
    <use xlink:href="#DejaVuSans-66" transform="translate(401.855469 0.828125)"/>
    <use xlink:href="#DejaVuSans-6f" transform="translate(437.060547 0.828125)"/>
    <use xlink:href="#DejaVuSans-72" transform="translate(498.242188 0.828125)"/>
    <use xlink:href="#DejaVuSans-20" transform="translate(539.355469 0.828125)"/>
    <use xlink:href="#DejaVuSans-Oblique-3c4" transform="translate(571.142578 0.828125)"/>
    <use xlink:href="#DejaVuSans-Oblique-72" transform="translate(631.347656 -15.578125) scale(0.7)"/>
    <use xlink:href="#DejaVuSans-Oblique-65" transform="translate(660.126953 -15.578125) scale(0.7)"/>
    <use xlink:href="#DejaVuSans-Oblique-66" transform="translate(703.193359 -15.578125) scale(0.7)"/>
    <use xlink:href="#DejaVuSans-3a" transform="translate(730.571289 0.828125)"/>
    <use xlink:href="#DejaVuSans-20" transform="translate(764.262695 0.828125)"/>
    <use xlink:href="#DejaVuSans-30" transform="translate(796.049805 0.828125)"/>
    <use xlink:href="#DejaVuSans-2e" transform="translate(859.672852 0.828125)"/>
    <use xlink:href="#DejaVuSans-30" transform="translate(891.459961 0.828125)"/>
    <use xlink:href="#DejaVuSans-30" transform="translate(955.083008 0.828125)"/>
    <use xlink:href="#DejaVuSans-33" transform="translate(1018.706055 0.828125)"/>
   </g>
  </g>
 </g>
 <defs>
  <clipPath id="pc8d091fc23">
   <rect x="44.845313" y="36" width="334.8" height="217.44"/>
  </clipPath>
 </defs>
</svg>
