<?xml version="1.0" encoding="utf-8" standalone="no"?>
<!DOCTYPE svg PUBLIC "-//W3C//DTD SVG 1.1//EN"
  "http://www.w3.org/Graphics/SVG/1.1/DTD/svg11.dtd">
<svg xmlns:xlink="http://www.w3.org/1999/xlink" width="387.003125pt" height="290.99625pt" viewBox="0 0 387.003125 290.99625" xmlns="http://www.w3.org/2000/svg" version="1.1">
 <metadata>
  <rdf:RDF xmlns:dc="http://purl.org/dc/elements/1.1/" xmlns:cc="http://creativecommons.org/ns#" xmlns:rdf="http://www.w3.org/1999/02/22-rdf-syntax-ns#">
   <cc:Work>
    <dc:type rdf:resource="http://purl.org/dc/dcmitype/StillImage"/>
    <dc:date>2022-11-11T21:46:23.828629</dc:date>
    <dc:format>image/svg+xml</dc:format>
    <dc:creator>
     <cc:Agent>
      <dc:title>Matplotlib v3.6.0, https://matplotlib.org/</dc:title>
     </cc:Agent>
    </dc:creator>
   </cc:Work>
  </rdf:RDF>
 </metadata>
 <defs>
  <style type="text/css">*{stroke-linejoin: round; stroke-linecap: butt}</style>
 </defs>
 <g id="figure_1">
  <g id="patch_1">
   <path d="M 0 290.99625 
L 387.003125 290.99625 
L 387.003125 0 
L 0 0 
L 0 290.99625 
z
" style="fill: none"/>
  </g>
  <g id="axes_1">
   <g id="patch_2">
    <path d="M 45.003125 253.44 
L 379.803125 253.44 
L 379.803125 36 
L 45.003125 36 
z
" style="fill: #ffffff"/>
   </g>
   <g id="matplotlib.axis_1">
    <g id="xtick_1">
     <g id="line2d_1">
      <defs>
       <path id="mfc4f9aa650" d="M 0 0 
L 0 3.5 
" style="stroke: #000000; stroke-width: 0.8"/>
      </defs>
      <g>
       <use xlink:href="#mfc4f9aa650" x="59.61136" y="253.44" style="stroke: #000000; stroke-width: 0.8"/>
      </g>
     </g>
     <g id="text_1">
      <!-- 0.0 -->
      <g transform="translate(51.659797 268.038437) scale(0.1 -0.1)">
       <defs>
        <path id="DejaVuSans-30" d="M 2034 4250 
Q 1547 4250 1301 3770 
Q 1056 3291 1056 2328 
Q 1056 1369 1301 889 
Q 1547 409 2034 409 
Q 2525 409 2770 889 
Q 3016 1369 3016 2328 
Q 3016 3291 2770 3770 
Q 2525 4250 2034 4250 
z
M 2034 4750 
Q 2819 4750 3233 4129 
Q 3647 3509 3647 2328 
Q 3647 1150 3233 529 
Q 2819 -91 2034 -91 
Q 1250 -91 836 529 
Q 422 1150 422 2328 
Q 422 3509 836 4129 
Q 1250 4750 2034 4750 
z
" transform="scale(0.015625)"/>
        <path id="DejaVuSans-2e" d="M 684 794 
L 1344 794 
L 1344 0 
L 684 0 
L 684 794 
z
" transform="scale(0.015625)"/>
       </defs>
       <use xlink:href="#DejaVuSans-30"/>
       <use xlink:href="#DejaVuSans-2e" x="63.623047"/>
       <use xlink:href="#DejaVuSans-30" x="95.410156"/>
      </g>
     </g>
    </g>
    <g id="xtick_2">
     <g id="line2d_2">
      <g>
       <use xlink:href="#mfc4f9aa650" x="120.606076" y="253.44" style="stroke: #000000; stroke-width: 0.8"/>
      </g>
     </g>
     <g id="text_2">
      <!-- 0.1 -->
      <g transform="translate(112.654514 268.038437) scale(0.1 -0.1)">
       <defs>
        <path id="DejaVuSans-31" d="M 794 531 
L 1825 531 
L 1825 4091 
L 703 3866 
L 703 4441 
L 1819 4666 
L 2450 4666 
L 2450 531 
L 3481 531 
L 3481 0 
L 794 0 
L 794 531 
z
" transform="scale(0.015625)"/>
       </defs>
       <use xlink:href="#DejaVuSans-30"/>
       <use xlink:href="#DejaVuSans-2e" x="63.623047"/>
       <use xlink:href="#DejaVuSans-31" x="95.410156"/>
      </g>
     </g>
    </g>
    <g id="xtick_3">
     <g id="line2d_3">
      <g>
       <use xlink:href="#mfc4f9aa650" x="181.600793" y="253.44" style="stroke: #000000; stroke-width: 0.8"/>
      </g>
     </g>
     <g id="text_3">
      <!-- 0.2 -->
      <g transform="translate(173.649231 268.038437) scale(0.1 -0.1)">
       <defs>
        <path id="DejaVuSans-32" d="M 1228 531 
L 3431 531 
L 3431 0 
L 469 0 
L 469 531 
Q 828 903 1448 1529 
Q 2069 2156 2228 2338 
Q 2531 2678 2651 2914 
Q 2772 3150 2772 3378 
Q 2772 3750 2511 3984 
Q 2250 4219 1831 4219 
Q 1534 4219 1204 4116 
Q 875 4013 500 3803 
L 500 4441 
Q 881 4594 1212 4672 
Q 1544 4750 1819 4750 
Q 2544 4750 2975 4387 
Q 3406 4025 3406 3419 
Q 3406 3131 3298 2873 
Q 3191 2616 2906 2266 
Q 2828 2175 2409 1742 
Q 1991 1309 1228 531 
z
" transform="scale(0.015625)"/>
       </defs>
       <use xlink:href="#DejaVuSans-30"/>
       <use xlink:href="#DejaVuSans-2e" x="63.623047"/>
       <use xlink:href="#DejaVuSans-32" x="95.410156"/>
      </g>
     </g>
    </g>
    <g id="xtick_4">
     <g id="line2d_4">
      <g>
       <use xlink:href="#mfc4f9aa650" x="242.59551" y="253.44" style="stroke: #000000; stroke-width: 0.8"/>
      </g>
     </g>
     <g id="text_4">
      <!-- 0.3 -->
      <g transform="translate(234.643947 268.038437) scale(0.1 -0.1)">
       <defs>
        <path id="DejaVuSans-33" d="M 2597 2516 
Q 3050 2419 3304 2112 
Q 3559 1806 3559 1356 
Q 3559 666 3084 287 
Q 2609 -91 1734 -91 
Q 1441 -91 1130 -33 
Q 819 25 488 141 
L 488 750 
Q 750 597 1062 519 
Q 1375 441 1716 441 
Q 2309 441 2620 675 
Q 2931 909 2931 1356 
Q 2931 1769 2642 2001 
Q 2353 2234 1838 2234 
L 1294 2234 
L 1294 2753 
L 1863 2753 
Q 2328 2753 2575 2939 
Q 2822 3125 2822 3475 
Q 2822 3834 2567 4026 
Q 2313 4219 1838 4219 
Q 1578 4219 1281 4162 
Q 984 4106 628 3988 
L 628 4550 
Q 988 4650 1302 4700 
Q 1616 4750 1894 4750 
Q 2613 4750 3031 4423 
Q 3450 4097 3450 3541 
Q 3450 3153 3228 2886 
Q 3006 2619 2597 2516 
z
" transform="scale(0.015625)"/>
       </defs>
       <use xlink:href="#DejaVuSans-30"/>
       <use xlink:href="#DejaVuSans-2e" x="63.623047"/>
       <use xlink:href="#DejaVuSans-33" x="95.410156"/>
      </g>
     </g>
    </g>
    <g id="xtick_5">
     <g id="line2d_5">
      <g>
       <use xlink:href="#mfc4f9aa650" x="303.590226" y="253.44" style="stroke: #000000; stroke-width: 0.8"/>
      </g>
     </g>
     <g id="text_5">
      <!-- 0.4 -->
      <g transform="translate(295.638664 268.038437) scale(0.1 -0.1)">
       <defs>
        <path id="DejaVuSans-34" d="M 2419 4116 
L 825 1625 
L 2419 1625 
L 2419 4116 
z
M 2253 4666 
L 3047 4666 
L 3047 1625 
L 3713 1625 
L 3713 1100 
L 3047 1100 
L 3047 0 
L 2419 0 
L 2419 1100 
L 313 1100 
L 313 1709 
L 2253 4666 
z
" transform="scale(0.015625)"/>
       </defs>
       <use xlink:href="#DejaVuSans-30"/>
       <use xlink:href="#DejaVuSans-2e" x="63.623047"/>
       <use xlink:href="#DejaVuSans-34" x="95.410156"/>
      </g>
     </g>
    </g>
    <g id="xtick_6">
     <g id="line2d_6">
      <g>
       <use xlink:href="#mfc4f9aa650" x="364.584943" y="253.44" style="stroke: #000000; stroke-width: 0.8"/>
      </g>
     </g>
     <g id="text_6">
      <!-- 0.5 -->
      <g transform="translate(356.633381 268.038437) scale(0.1 -0.1)">
       <defs>
        <path id="DejaVuSans-35" d="M 691 4666 
L 3169 4666 
L 3169 4134 
L 1269 4134 
L 1269 2991 
Q 1406 3038 1543 3061 
Q 1681 3084 1819 3084 
Q 2600 3084 3056 2656 
Q 3513 2228 3513 1497 
Q 3513 744 3044 326 
Q 2575 -91 1722 -91 
Q 1428 -91 1123 -41 
Q 819 9 494 109 
L 494 744 
Q 775 591 1075 516 
Q 1375 441 1709 441 
Q 2250 441 2565 725 
Q 2881 1009 2881 1497 
Q 2881 1984 2565 2268 
Q 2250 2553 1709 2553 
Q 1456 2553 1204 2497 
Q 953 2441 691 2322 
L 691 4666 
z
" transform="scale(0.015625)"/>
       </defs>
       <use xlink:href="#DejaVuSans-30"/>
       <use xlink:href="#DejaVuSans-2e" x="63.623047"/>
       <use xlink:href="#DejaVuSans-35" x="95.410156"/>
      </g>
     </g>
    </g>
    <g id="text_7">
     <!-- $t$ -->
     <g transform="translate(210.403125 281.716562) scale(0.1 -0.1)">
      <defs>
       <path id="DejaVuSans-Oblique-74" d="M 2706 3500 
L 2619 3053 
L 1472 3053 
L 1100 1153 
Q 1081 1047 1072 975 
Q 1063 903 1063 863 
Q 1063 663 1183 572 
Q 1303 481 1569 481 
L 2150 481 
L 2053 0 
L 1503 0 
Q 991 0 739 200 
Q 488 400 488 806 
Q 488 878 497 964 
Q 506 1050 525 1153 
L 897 3053 
L 409 3053 
L 500 3500 
L 978 3500 
L 1172 4494 
L 1747 4494 
L 1556 3500 
L 2706 3500 
z
" transform="scale(0.015625)"/>
      </defs>
      <use xlink:href="#DejaVuSans-Oblique-74" transform="translate(0 0.78125)"/>
     </g>
    </g>
   </g>
   <g id="matplotlib.axis_2">
    <g id="ytick_1">
     <g id="line2d_7">
      <defs>
       <path id="mc563f1ccc4" d="M 0 0 
L -3.5 0 
" style="stroke: #000000; stroke-width: 0.8"/>
      </defs>
      <g>
       <use xlink:href="#mc563f1ccc4" x="45.003125" y="231.467757" style="stroke: #000000; stroke-width: 0.8"/>
      </g>
     </g>
     <g id="text_8">
      <!-- 0.0 -->
      <g transform="translate(22.1 235.266976) scale(0.1 -0.1)">
       <use xlink:href="#DejaVuSans-30"/>
       <use xlink:href="#DejaVuSans-2e" x="63.623047"/>
       <use xlink:href="#DejaVuSans-30" x="95.410156"/>
      </g>
     </g>
    </g>
    <g id="ytick_2">
     <g id="line2d_8">
      <g>
       <use xlink:href="#mc563f1ccc4" x="45.003125" y="196.495476" style="stroke: #000000; stroke-width: 0.8"/>
      </g>
     </g>
     <g id="text_9">
      <!-- 0.2 -->
      <g transform="translate(22.1 200.294694) scale(0.1 -0.1)">
       <use xlink:href="#DejaVuSans-30"/>
       <use xlink:href="#DejaVuSans-2e" x="63.623047"/>
       <use xlink:href="#DejaVuSans-32" x="95.410156"/>
      </g>
     </g>
    </g>
    <g id="ytick_3">
     <g id="line2d_9">
      <g>
       <use xlink:href="#mc563f1ccc4" x="45.003125" y="161.523194" style="stroke: #000000; stroke-width: 0.8"/>
      </g>
     </g>
     <g id="text_10">
      <!-- 0.4 -->
      <g transform="translate(22.1 165.322413) scale(0.1 -0.1)">
       <use xlink:href="#DejaVuSans-30"/>
       <use xlink:href="#DejaVuSans-2e" x="63.623047"/>
       <use xlink:href="#DejaVuSans-34" x="95.410156"/>
      </g>
     </g>
    </g>
    <g id="ytick_4">
     <g id="line2d_10">
      <g>
       <use xlink:href="#mc563f1ccc4" x="45.003125" y="126.550912" style="stroke: #000000; stroke-width: 0.8"/>
      </g>
     </g>
     <g id="text_11">
      <!-- 0.6 -->
      <g transform="translate(22.1 130.350131) scale(0.1 -0.1)">
       <defs>
        <path id="DejaVuSans-36" d="M 2113 2584 
Q 1688 2584 1439 2293 
Q 1191 2003 1191 1497 
Q 1191 994 1439 701 
Q 1688 409 2113 409 
Q 2538 409 2786 701 
Q 3034 994 3034 1497 
Q 3034 2003 2786 2293 
Q 2538 2584 2113 2584 
z
M 3366 4563 
L 3366 3988 
Q 3128 4100 2886 4159 
Q 2644 4219 2406 4219 
Q 1781 4219 1451 3797 
Q 1122 3375 1075 2522 
Q 1259 2794 1537 2939 
Q 1816 3084 2150 3084 
Q 2853 3084 3261 2657 
Q 3669 2231 3669 1497 
Q 3669 778 3244 343 
Q 2819 -91 2113 -91 
Q 1303 -91 875 529 
Q 447 1150 447 2328 
Q 447 3434 972 4092 
Q 1497 4750 2381 4750 
Q 2619 4750 2861 4703 
Q 3103 4656 3366 4563 
z
" transform="scale(0.015625)"/>
       </defs>
       <use xlink:href="#DejaVuSans-30"/>
       <use xlink:href="#DejaVuSans-2e" x="63.623047"/>
       <use xlink:href="#DejaVuSans-36" x="95.410156"/>
      </g>
     </g>
    </g>
    <g id="ytick_5">
     <g id="line2d_11">
      <g>
       <use xlink:href="#mc563f1ccc4" x="45.003125" y="91.578631" style="stroke: #000000; stroke-width: 0.8"/>
      </g>
     </g>
     <g id="text_12">
      <!-- 0.8 -->
      <g transform="translate(22.1 95.377849) scale(0.1 -0.1)">
       <defs>
        <path id="DejaVuSans-38" d="M 2034 2216 
Q 1584 2216 1326 1975 
Q 1069 1734 1069 1313 
Q 1069 891 1326 650 
Q 1584 409 2034 409 
Q 2484 409 2743 651 
Q 3003 894 3003 1313 
Q 3003 1734 2745 1975 
Q 2488 2216 2034 2216 
z
M 1403 2484 
Q 997 2584 770 2862 
Q 544 3141 544 3541 
Q 544 4100 942 4425 
Q 1341 4750 2034 4750 
Q 2731 4750 3128 4425 
Q 3525 4100 3525 3541 
Q 3525 3141 3298 2862 
Q 3072 2584 2669 2484 
Q 3125 2378 3379 2068 
Q 3634 1759 3634 1313 
Q 3634 634 3220 271 
Q 2806 -91 2034 -91 
Q 1263 -91 848 271 
Q 434 634 434 1313 
Q 434 1759 690 2068 
Q 947 2378 1403 2484 
z
M 1172 3481 
Q 1172 3119 1398 2916 
Q 1625 2713 2034 2713 
Q 2441 2713 2670 2916 
Q 2900 3119 2900 3481 
Q 2900 3844 2670 4047 
Q 2441 4250 2034 4250 
Q 1625 4250 1398 4047 
Q 1172 3844 1172 3481 
z
" transform="scale(0.015625)"/>
       </defs>
       <use xlink:href="#DejaVuSans-30"/>
       <use xlink:href="#DejaVuSans-2e" x="63.623047"/>
       <use xlink:href="#DejaVuSans-38" x="95.410156"/>
      </g>
     </g>
    </g>
    <g id="ytick_6">
     <g id="line2d_12">
      <g>
       <use xlink:href="#mc563f1ccc4" x="45.003125" y="56.606349" style="stroke: #000000; stroke-width: 0.8"/>
      </g>
     </g>
     <g id="text_13">
      <!-- 1.0 -->
      <g transform="translate(22.1 60.405568) scale(0.1 -0.1)">
       <use xlink:href="#DejaVuSans-31"/>
       <use xlink:href="#DejaVuSans-2e" x="63.623047"/>
       <use xlink:href="#DejaVuSans-30" x="95.410156"/>
      </g>
     </g>
    </g>
    <g id="text_14">
     <!-- $\hat{x}_{A}$ -->
     <g transform="translate(16.020313 150.27) rotate(-90) scale(0.1 -0.1)">
      <defs>
       <path id="DejaVuSans-302" d="M -1831 5119 
L -1369 5119 
L -603 3944 
L -1038 3944 
L -1600 4709 
L -2163 3944 
L -2597 3944 
L -1831 5119 
z
M -1600 3584 
L -1600 3584 
z
" transform="scale(0.015625)"/>
       <path id="DejaVuSans-Oblique-78" d="M 3841 3500 
L 2234 1784 
L 3219 0 
L 2559 0 
L 1819 1388 
L 531 0 
L -166 0 
L 1556 1844 
L 641 3500 
L 1300 3500 
L 1972 2234 
L 3144 3500 
L 3841 3500 
z
" transform="scale(0.015625)"/>
       <path id="DejaVuSans-Oblique-41" d="M 2356 4666 
L 3072 4666 
L 3938 0 
L 3278 0 
L 3084 1197 
L 984 1197 
L 325 0 
L -341 0 
L 2356 4666 
z
M 2584 4044 
L 1275 1722 
L 2988 1722 
L 2584 4044 
z
" transform="scale(0.015625)"/>
      </defs>
      <use xlink:href="#DejaVuSans-302" transform="translate(62.373047 12.015625)"/>
      <use xlink:href="#DejaVuSans-Oblique-78" transform="translate(0 0.828125)"/>
      <use xlink:href="#DejaVuSans-Oblique-41" transform="translate(60.136719 -15.578125) scale(0.7)"/>
     </g>
    </g>
   </g>
   <g id="line2d_13">
    <path d="M 60.221307 231.467757 
L 60.831254 241.629653 
L 61.441201 239.521963 
L 62.051148 233.829168 
L 62.661095 236.386617 
L 63.271043 235.747045 
L 63.88099 236.973995 
L 64.490937 239.431908 
L 65.100884 235.915394 
L 65.710831 229.365303 
L 66.320778 227.94021 
L 66.930726 229.169089 
L 67.540673 226.399603 
L 68.15062 215.716318 
L 68.760567 222.527222 
L 69.370514 234.68922 
L 69.980461 234.382657 
L 70.590409 235.267386 
L 71.810303 243.556364 
L 72.42025 237.435875 
L 73.030197 234.472499 
L 73.640144 226.392422 
L 74.250092 232.378808 
L 74.860039 232.249776 
L 76.079933 223.46739 
L 76.68988 228.202744 
L 77.299827 225.499311 
L 77.909775 225.622586 
L 78.519722 220.284093 
L 79.129669 222.643398 
L 79.739616 233.467791 
L 80.349563 231.281886 
L 80.95951 230.561304 
L 81.569458 228.589053 
L 82.179405 232.267602 
L 82.789352 230.418636 
L 83.399299 229.972546 
L 84.009246 227.115149 
L 84.619194 230.1016 
L 85.229141 230.262286 
L 85.839088 231.659137 
L 86.449035 229.044798 
L 87.058982 234.300572 
L 88.278877 229.444718 
L 88.888824 223.75986 
L 89.498771 223.028286 
L 90.108718 223.819956 
L 90.718665 222.74307 
L 91.328612 223.573334 
L 91.93856 225.711987 
L 92.548507 235.961118 
L 93.768401 230.822132 
L 94.378348 238.871549 
L 94.988295 230.039571 
L 95.598243 230.531157 
L 96.20819 228.441373 
L 96.818137 231.192534 
L 97.428084 226.797926 
L 98.038031 228.43021 
L 98.647978 228.719271 
L 99.257926 223.921268 
L 99.867873 231.155206 
L 100.47782 235.187726 
L 101.087767 228.614962 
L 101.697714 226.831699 
L 102.307661 227.167492 
L 102.917609 231.959037 
L 103.527556 234.651173 
L 104.137503 232.665509 
L 104.74745 232.408809 
L 105.357397 220.779697 
L 105.967344 219.490953 
L 106.577292 227.171689 
L 107.797186 232.949795 
L 108.407133 237.485844 
L 109.01708 228.395657 
L 109.627027 228.528677 
L 110.236975 230.248077 
L 110.846922 239.355563 
L 111.456869 238.137298 
L 112.066816 239.132016 
L 112.676763 232.370255 
L 113.28671 231.141338 
L 113.896658 220.24585 
L 114.506605 221.380754 
L 115.116552 214.295852 
L 115.726499 215.929975 
L 116.336446 225.017949 
L 116.946393 223.261249 
L 117.556341 230.087942 
L 118.166288 230.219249 
L 118.776235 236.059784 
L 119.386182 235.826201 
L 119.996129 234.489829 
L 120.606076 235.725096 
L 121.216024 226.954532 
L 121.825971 223.260314 
L 122.435918 214.315803 
L 123.045865 213.661055 
L 124.265759 205.550957 
L 124.875707 196.14964 
L 125.485654 183.152721 
L 126.095601 181.74757 
L 126.705548 167.568758 
L 127.315495 162.552199 
L 127.925442 159.096509 
L 128.53539 139.811323 
L 129.145337 127.268922 
L 130.365231 114.799476 
L 131.585125 126.75972 
L 132.80502 100.610585 
L 133.414967 90.215302 
L 134.024914 90.81513 
L 134.634861 90.773963 
L 135.244808 96.810486 
L 135.854756 91.91142 
L 136.464703 77.08407 
L 137.07465 77.847719 
L 138.294544 80.335371 
L 138.904491 79.974672 
L 139.514439 69.766511 
L 140.124386 64.938026 
L 140.734333 71.492535 
L 141.34428 72.314941 
L 141.954227 72.327552 
L 142.564174 62.818514 
L 143.174122 62.120146 
L 143.784069 67.037289 
L 144.394016 68.696243 
L 145.003963 71.472027 
L 145.61391 68.184217 
L 146.223857 59.296905 
L 146.833805 53.807189 
L 147.443752 63.291253 
L 148.053699 65.83886 
L 148.663646 62.084179 
L 149.273593 62.656423 
L 149.88354 60.084504 
L 150.493488 54.989767 
L 151.103435 62.267236 
L 151.713382 59.241521 
L 152.323329 59.53856 
L 152.933276 59.04298 
L 153.543223 62.219193 
L 154.153171 61.194326 
L 154.763118 63.276075 
L 155.373065 63.649078 
L 155.983012 56.704996 
L 156.592959 56.628984 
L 157.202906 59.815377 
L 157.812854 56.521313 
L 158.422801 57.542958 
L 159.032748 58.895574 
L 159.642695 59.717655 
L 160.252642 61.160279 
L 160.862589 60.951591 
L 161.472537 64.429129 
L 162.082484 55.304157 
L 162.692431 55.819624 
L 163.302378 56.874563 
L 163.912325 56.199109 
L 164.522272 59.083606 
L 165.13222 66.257225 
L 165.742167 63.073753 
L 166.352114 54.314375 
L 166.962061 51.581763 
L 167.572008 52.091138 
L 168.181955 60.830995 
L 168.791903 64.694599 
L 169.40185 64.866238 
L 170.621744 48.926393 
L 171.231691 56.663449 
L 171.841638 55.254107 
L 172.451586 56.810391 
L 173.061533 62.13265 
L 173.67148 63.136167 
L 174.281427 56.899603 
L 174.891374 59.298005 
L 175.501321 56.223065 
L 176.111269 50.658949 
L 176.721216 57.919915 
L 177.94111 65.343747 
L 178.551057 65.156687 
L 179.161004 49.192619 
L 179.770952 54.335662 
L 180.380899 53.995294 
L 181.600793 65.883059 
L 182.21074 64.315131 
L 182.820687 60.262601 
L 183.430635 46.55726 
L 184.040582 59.228041 
L 184.650529 62.782066 
L 185.260476 61.952723 
L 185.870423 58.033562 
L 186.48037 56.83835 
L 187.090318 50.365754 
L 187.700265 57.470317 
L 188.310212 60.887786 
L 188.920159 61.517678 
L 189.530106 59.789029 
L 190.140053 53.199781 
L 190.750001 59.21117 
L 191.359948 62.750108 
L 191.969895 60.551011 
L 192.579842 52.875615 
L 193.189789 62.344032 
L 193.799736 53.467838 
L 194.409684 65.472765 
L 195.019631 57.174351 
L 195.629578 58.226568 
L 196.239525 52.786415 
L 196.849472 56.748107 
L 197.459419 55.179256 
L 198.069367 64.207301 
L 198.679314 62.318632 
L 199.289261 58.284125 
L 199.899208 56.385913 
L 200.509155 55.557569 
L 201.119102 58.48548 
L 201.72905 64.522104 
L 202.338997 58.85067 
L 202.948944 61.194081 
L 203.558891 49.359856 
L 204.168838 58.060499 
L 204.778785 60.300074 
L 205.388733 66.944097 
L 205.99868 57.696166 
L 206.608627 59.393105 
L 207.218574 55.601615 
L 207.828521 56.344579 
L 208.438468 56.898166 
L 209.048416 62.446293 
L 209.658363 64.102523 
L 210.26831 55.267035 
L 210.878257 54.721738 
L 211.488204 56.888028 
L 212.098151 58.249309 
L 212.708099 62.546684 
L 213.318046 55.383251 
L 213.927993 58.255852 
L 214.53794 54.996803 
L 215.147887 66.572072 
L 215.757834 51.938463 
L 216.367782 52.347499 
L 216.977729 56.972573 
L 217.587676 59.132402 
L 218.197623 59.776531 
L 218.80757 59.486286 
L 219.417517 62.73065 
L 220.027465 53.190878 
L 220.637412 53.509464 
L 221.247359 60.925087 
L 221.857306 62.562681 
L 222.467253 55.662419 
L 223.0772 63.446585 
L 223.687148 56.642911 
L 224.297095 63.101572 
L 224.907042 63.688991 
L 225.516989 49.010719 
L 226.126936 45.883636 
L 226.736883 49.317851 
L 227.346831 61.670736 
L 227.956778 67.703487 
L 229.176672 62.130987 
L 229.786619 53.531758 
L 230.396566 47.922244 
L 231.006514 58.920686 
L 231.616461 62.237949 
L 232.226408 58.113215 
L 232.836355 58.993113 
L 233.446302 61.49029 
L 234.056249 53.806019 
L 234.666197 57.588583 
L 235.276144 65.415911 
L 235.886091 56.62045 
L 236.496038 59.922051 
L 237.105985 53.84706 
L 237.715932 56.378844 
L 238.32588 61.659368 
L 238.935827 55.245425 
L 239.545774 60.227701 
L 240.155721 67.588431 
L 240.765668 51.72984 
L 241.985563 61.96243 
L 242.59551 54.069653 
L 243.205457 65.880509 
L 243.815404 54.126205 
L 244.425351 52.323502 
L 245.035298 59.438495 
L 245.645246 51.436106 
L 246.255193 57.435892 
L 246.86514 62.249907 
L 247.475087 64.381908 
L 248.085034 56.463518 
L 248.694981 52.363652 
L 249.304929 52.670157 
L 249.914876 57.838758 
L 250.524823 58.96731 
L 251.13477 58.208873 
L 251.744717 66.683432 
L 252.354664 60.436164 
L 252.964612 56.078362 
L 253.574559 57.47258 
L 254.184506 62.572088 
L 254.794453 66.054233 
L 255.4044 58.077362 
L 256.014347 55.444357 
L 256.624295 56.957727 
L 257.234242 55.484328 
L 257.844189 60.252369 
L 258.454136 61.754289 
L 259.064083 56.713893 
L 259.67403 61.223937 
L 260.893925 56.779758 
L 261.503872 62.502547 
L 262.113819 47.20644 
L 263.333713 64.575952 
L 263.943661 57.776168 
L 264.553608 61.336517 
L 265.163555 62.649645 
L 265.773502 53.960052 
L 266.383449 56.815509 
L 266.993396 60.414426 
L 267.603344 60.722991 
L 268.213291 60.35564 
L 268.823238 52.743436 
L 269.433185 54.589427 
L 270.043132 60.315692 
L 270.653079 56.061053 
L 271.263027 55.446935 
L 271.872974 57.138151 
L 272.482921 59.312775 
L 273.092868 59.816664 
L 273.702815 64.956996 
L 274.312762 50.135219 
L 274.92271 59.667887 
L 275.532657 60.689085 
L 276.142604 62.896619 
L 276.752551 61.900926 
L 277.362498 47.648737 
L 277.972445 51.814363 
L 278.582393 54.289506 
L 279.19234 66.048801 
L 279.802287 62.312121 
L 280.412234 66.093274 
L 281.022181 51.463161 
L 281.632128 58.642166 
L 282.242076 54.450419 
L 282.852023 64.194538 
L 283.46197 62.484677 
L 284.071917 56.398352 
L 284.681864 55.483039 
L 285.291811 50.126517 
L 285.901759 55.018905 
L 286.511706 62.888302 
L 287.121653 66.252568 
L 287.7316 57.904833 
L 288.341547 53.964014 
L 288.951494 57.515194 
L 289.561442 59.974301 
L 290.171389 58.448529 
L 290.781336 58.163935 
L 291.391283 57.601701 
L 292.00123 53.791977 
L 292.611177 61.101047 
L 293.221125 60.265531 
L 293.831072 65.705406 
L 294.441019 57.669735 
L 295.050966 52.959702 
L 295.660913 53.815193 
L 296.27086 57.144883 
L 296.880808 66.049278 
L 297.490755 57.81123 
L 298.100702 63.418152 
L 298.710649 56.024896 
L 299.320596 51.193077 
L 299.930543 57.578943 
L 300.540491 60.037689 
L 301.150438 60.847013 
L 301.760385 64.333056 
L 302.370332 51.729337 
L 302.980279 60.172096 
L 303.590226 62.572395 
L 304.200174 49.432538 
L 304.810121 62.156905 
L 305.420068 69.114212 
L 306.030015 72.730438 
L 306.639962 81.332215 
L 307.249909 95.619501 
L 307.859857 105.39208 
L 308.469804 117.389767 
L 309.079751 121.422721 
L 309.689698 116.453408 
L 310.299645 131.962507 
L 310.909592 134.657674 
L 312.129487 148.104352 
L 312.739434 159.327361 
L 313.349381 168.435928 
L 313.959328 175.292944 
L 314.569275 179.939068 
L 315.179223 183.595655 
L 315.78917 185.103187 
L 316.399117 183.934109 
L 317.009064 193.537219 
L 318.228958 198.83449 
L 318.838906 213.530872 
L 319.448853 211.621887 
L 320.0588 211.421158 
L 320.668747 211.515153 
L 321.278694 211.303318 
L 321.888641 213.998396 
L 322.498589 213.680159 
L 323.108536 219.751878 
L 323.718483 216.678033 
L 324.32843 204.780124 
L 325.548324 215.208346 
L 326.158272 219.517242 
L 326.768219 214.45694 
L 327.378166 221.364904 
L 327.988113 216.655604 
L 328.59806 218.065167 
L 329.208007 228.097465 
L 329.817955 227.919614 
L 330.427902 235.35292 
L 331.037849 229.368341 
L 331.647796 226.66951 
L 332.257743 229.600082 
L 332.86769 231.055845 
L 333.477638 226.021861 
L 334.087585 227.160928 
L 334.697532 226.821147 
L 335.307479 229.90112 
L 336.527373 222.289367 
L 337.137321 222.561984 
L 337.747268 226.393998 
L 338.357215 234.892077 
L 338.967162 238.407372 
L 339.577109 231.251491 
L 340.187056 230.434183 
L 340.797004 230.153331 
L 341.406951 225.11036 
L 342.016898 228.422549 
L 342.626845 226.373668 
L 343.236792 225.085585 
L 343.84674 227.710155 
L 344.456687 232.584298 
L 345.066634 229.213145 
L 345.676581 224.582313 
L 346.286528 231.25735 
L 346.896475 233.01859 
L 347.506423 232.127135 
L 348.11637 228.665842 
L 348.726317 232.600701 
L 349.336264 233.612268 
L 349.946211 227.542089 
L 350.556158 226.119338 
L 351.166106 232.880778 
L 351.776053 237.700509 
L 352.386 227.822593 
L 352.995947 228.032953 
L 353.605894 220.726304 
L 354.215841 236.855694 
L 354.825789 229.945606 
L 356.045683 218.8797 
L 356.65563 220.502319 
L 357.265577 225.432655 
L 357.875524 226.20881 
L 358.485472 232.003581 
L 359.095419 226.250072 
L 359.705366 233.810376 
L 360.92526 228.102519 
L 361.535207 227.775151 
L 362.145155 225.527715 
L 362.755102 223.820094 
L 363.365049 229.763821 
L 363.974996 226.506242 
L 364.584943 226.090105 
L 364.584943 226.090105 
" clip-path="url(#p53c787deee)" style="fill: none; stroke: #1f77b4; stroke-width: 1.5; stroke-linecap: square"/>
   </g>
   <g id="patch_3">
    <path d="M 45.003125 253.44 
L 45.003125 36 
" style="fill: none; stroke: #000000; stroke-width: 0.8; stroke-linejoin: miter; stroke-linecap: square"/>
   </g>
   <g id="patch_4">
    <path d="M 379.803125 253.44 
L 379.803125 36 
" style="fill: none; stroke: #000000; stroke-width: 0.8; stroke-linejoin: miter; stroke-linecap: square"/>
   </g>
   <g id="patch_5">
    <path d="M 45.003125 253.44 
L 379.803125 253.44 
" style="fill: none; stroke: #000000; stroke-width: 0.8; stroke-linejoin: miter; stroke-linecap: square"/>
   </g>
   <g id="patch_6">
    <path d="M 45.003125 36 
L 379.803125 36 
" style="fill: none; stroke: #000000; stroke-width: 0.8; stroke-linejoin: miter; stroke-linecap: square"/>
   </g>
  </g>
  <g id="text_15">
   <!-- Decoded Output from Population $A$ -->
   <g transform="translate(102.003125 16.32) scale(0.12 -0.12)">
    <defs>
     <path id="DejaVuSans-44" d="M 1259 4147 
L 1259 519 
L 2022 519 
Q 2988 519 3436 956 
Q 3884 1394 3884 2338 
Q 3884 3275 3436 3711 
Q 2988 4147 2022 4147 
L 1259 4147 
z
M 628 4666 
L 1925 4666 
Q 3281 4666 3915 4102 
Q 4550 3538 4550 2338 
Q 4550 1131 3912 565 
Q 3275 0 1925 0 
L 628 0 
L 628 4666 
z
" transform="scale(0.015625)"/>
     <path id="DejaVuSans-65" d="M 3597 1894 
L 3597 1613 
L 953 1613 
Q 991 1019 1311 708 
Q 1631 397 2203 397 
Q 2534 397 2845 478 
Q 3156 559 3463 722 
L 3463 178 
Q 3153 47 2828 -22 
Q 2503 -91 2169 -91 
Q 1331 -91 842 396 
Q 353 884 353 1716 
Q 353 2575 817 3079 
Q 1281 3584 2069 3584 
Q 2775 3584 3186 3129 
Q 3597 2675 3597 1894 
z
M 3022 2063 
Q 3016 2534 2758 2815 
Q 2500 3097 2075 3097 
Q 1594 3097 1305 2825 
Q 1016 2553 972 2059 
L 3022 2063 
z
" transform="scale(0.015625)"/>
     <path id="DejaVuSans-63" d="M 3122 3366 
L 3122 2828 
Q 2878 2963 2633 3030 
Q 2388 3097 2138 3097 
Q 1578 3097 1268 2742 
Q 959 2388 959 1747 
Q 959 1106 1268 751 
Q 1578 397 2138 397 
Q 2388 397 2633 464 
Q 2878 531 3122 666 
L 3122 134 
Q 2881 22 2623 -34 
Q 2366 -91 2075 -91 
Q 1284 -91 818 406 
Q 353 903 353 1747 
Q 353 2603 823 3093 
Q 1294 3584 2113 3584 
Q 2378 3584 2631 3529 
Q 2884 3475 3122 3366 
z
" transform="scale(0.015625)"/>
     <path id="DejaVuSans-6f" d="M 1959 3097 
Q 1497 3097 1228 2736 
Q 959 2375 959 1747 
Q 959 1119 1226 758 
Q 1494 397 1959 397 
Q 2419 397 2687 759 
Q 2956 1122 2956 1747 
Q 2956 2369 2687 2733 
Q 2419 3097 1959 3097 
z
M 1959 3584 
Q 2709 3584 3137 3096 
Q 3566 2609 3566 1747 
Q 3566 888 3137 398 
Q 2709 -91 1959 -91 
Q 1206 -91 779 398 
Q 353 888 353 1747 
Q 353 2609 779 3096 
Q 1206 3584 1959 3584 
z
" transform="scale(0.015625)"/>
     <path id="DejaVuSans-64" d="M 2906 2969 
L 2906 4863 
L 3481 4863 
L 3481 0 
L 2906 0 
L 2906 525 
Q 2725 213 2448 61 
Q 2172 -91 1784 -91 
Q 1150 -91 751 415 
Q 353 922 353 1747 
Q 353 2572 751 3078 
Q 1150 3584 1784 3584 
Q 2172 3584 2448 3432 
Q 2725 3281 2906 2969 
z
M 947 1747 
Q 947 1113 1208 752 
Q 1469 391 1925 391 
Q 2381 391 2643 752 
Q 2906 1113 2906 1747 
Q 2906 2381 2643 2742 
Q 2381 3103 1925 3103 
Q 1469 3103 1208 2742 
Q 947 2381 947 1747 
z
" transform="scale(0.015625)"/>
     <path id="DejaVuSans-20" transform="scale(0.015625)"/>
     <path id="DejaVuSans-4f" d="M 2522 4238 
Q 1834 4238 1429 3725 
Q 1025 3213 1025 2328 
Q 1025 1447 1429 934 
Q 1834 422 2522 422 
Q 3209 422 3611 934 
Q 4013 1447 4013 2328 
Q 4013 3213 3611 3725 
Q 3209 4238 2522 4238 
z
M 2522 4750 
Q 3503 4750 4090 4092 
Q 4678 3434 4678 2328 
Q 4678 1225 4090 567 
Q 3503 -91 2522 -91 
Q 1538 -91 948 565 
Q 359 1222 359 2328 
Q 359 3434 948 4092 
Q 1538 4750 2522 4750 
z
" transform="scale(0.015625)"/>
     <path id="DejaVuSans-75" d="M 544 1381 
L 544 3500 
L 1119 3500 
L 1119 1403 
Q 1119 906 1312 657 
Q 1506 409 1894 409 
Q 2359 409 2629 706 
Q 2900 1003 2900 1516 
L 2900 3500 
L 3475 3500 
L 3475 0 
L 2900 0 
L 2900 538 
Q 2691 219 2414 64 
Q 2138 -91 1772 -91 
Q 1169 -91 856 284 
Q 544 659 544 1381 
z
M 1991 3584 
L 1991 3584 
z
" transform="scale(0.015625)"/>
     <path id="DejaVuSans-74" d="M 1172 4494 
L 1172 3500 
L 2356 3500 
L 2356 3053 
L 1172 3053 
L 1172 1153 
Q 1172 725 1289 603 
Q 1406 481 1766 481 
L 2356 481 
L 2356 0 
L 1766 0 
Q 1100 0 847 248 
Q 594 497 594 1153 
L 594 3053 
L 172 3053 
L 172 3500 
L 594 3500 
L 594 4494 
L 1172 4494 
z
" transform="scale(0.015625)"/>
     <path id="DejaVuSans-70" d="M 1159 525 
L 1159 -1331 
L 581 -1331 
L 581 3500 
L 1159 3500 
L 1159 2969 
Q 1341 3281 1617 3432 
Q 1894 3584 2278 3584 
Q 2916 3584 3314 3078 
Q 3713 2572 3713 1747 
Q 3713 922 3314 415 
Q 2916 -91 2278 -91 
Q 1894 -91 1617 61 
Q 1341 213 1159 525 
z
M 3116 1747 
Q 3116 2381 2855 2742 
Q 2594 3103 2138 3103 
Q 1681 3103 1420 2742 
Q 1159 2381 1159 1747 
Q 1159 1113 1420 752 
Q 1681 391 2138 391 
Q 2594 391 2855 752 
Q 3116 1113 3116 1747 
z
" transform="scale(0.015625)"/>
     <path id="DejaVuSans-66" d="M 2375 4863 
L 2375 4384 
L 1825 4384 
Q 1516 4384 1395 4259 
Q 1275 4134 1275 3809 
L 1275 3500 
L 2222 3500 
L 2222 3053 
L 1275 3053 
L 1275 0 
L 697 0 
L 697 3053 
L 147 3053 
L 147 3500 
L 697 3500 
L 697 3744 
Q 697 4328 969 4595 
Q 1241 4863 1831 4863 
L 2375 4863 
z
" transform="scale(0.015625)"/>
     <path id="DejaVuSans-72" d="M 2631 2963 
Q 2534 3019 2420 3045 
Q 2306 3072 2169 3072 
Q 1681 3072 1420 2755 
Q 1159 2438 1159 1844 
L 1159 0 
L 581 0 
L 581 3500 
L 1159 3500 
L 1159 2956 
Q 1341 3275 1631 3429 
Q 1922 3584 2338 3584 
Q 2397 3584 2469 3576 
Q 2541 3569 2628 3553 
L 2631 2963 
z
" transform="scale(0.015625)"/>
     <path id="DejaVuSans-6d" d="M 3328 2828 
Q 3544 3216 3844 3400 
Q 4144 3584 4550 3584 
Q 5097 3584 5394 3201 
Q 5691 2819 5691 2113 
L 5691 0 
L 5113 0 
L 5113 2094 
Q 5113 2597 4934 2840 
Q 4756 3084 4391 3084 
Q 3944 3084 3684 2787 
Q 3425 2491 3425 1978 
L 3425 0 
L 2847 0 
L 2847 2094 
Q 2847 2600 2669 2842 
Q 2491 3084 2119 3084 
Q 1678 3084 1418 2786 
Q 1159 2488 1159 1978 
L 1159 0 
L 581 0 
L 581 3500 
L 1159 3500 
L 1159 2956 
Q 1356 3278 1631 3431 
Q 1906 3584 2284 3584 
Q 2666 3584 2933 3390 
Q 3200 3197 3328 2828 
z
" transform="scale(0.015625)"/>
     <path id="DejaVuSans-50" d="M 1259 4147 
L 1259 2394 
L 2053 2394 
Q 2494 2394 2734 2622 
Q 2975 2850 2975 3272 
Q 2975 3691 2734 3919 
Q 2494 4147 2053 4147 
L 1259 4147 
z
M 628 4666 
L 2053 4666 
Q 2838 4666 3239 4311 
Q 3641 3956 3641 3272 
Q 3641 2581 3239 2228 
Q 2838 1875 2053 1875 
L 1259 1875 
L 1259 0 
L 628 0 
L 628 4666 
z
" transform="scale(0.015625)"/>
     <path id="DejaVuSans-6c" d="M 603 4863 
L 1178 4863 
L 1178 0 
L 603 0 
L 603 4863 
z
" transform="scale(0.015625)"/>
     <path id="DejaVuSans-61" d="M 2194 1759 
Q 1497 1759 1228 1600 
Q 959 1441 959 1056 
Q 959 750 1161 570 
Q 1363 391 1709 391 
Q 2188 391 2477 730 
Q 2766 1069 2766 1631 
L 2766 1759 
L 2194 1759 
z
M 3341 1997 
L 3341 0 
L 2766 0 
L 2766 531 
Q 2569 213 2275 61 
Q 1981 -91 1556 -91 
Q 1019 -91 701 211 
Q 384 513 384 1019 
Q 384 1609 779 1909 
Q 1175 2209 1959 2209 
L 2766 2209 
L 2766 2266 
Q 2766 2663 2505 2880 
Q 2244 3097 1772 3097 
Q 1472 3097 1187 3025 
Q 903 2953 641 2809 
L 641 3341 
Q 956 3463 1253 3523 
Q 1550 3584 1831 3584 
Q 2591 3584 2966 3190 
Q 3341 2797 3341 1997 
z
" transform="scale(0.015625)"/>
     <path id="DejaVuSans-69" d="M 603 3500 
L 1178 3500 
L 1178 0 
L 603 0 
L 603 3500 
z
M 603 4863 
L 1178 4863 
L 1178 4134 
L 603 4134 
L 603 4863 
z
" transform="scale(0.015625)"/>
     <path id="DejaVuSans-6e" d="M 3513 2113 
L 3513 0 
L 2938 0 
L 2938 2094 
Q 2938 2591 2744 2837 
Q 2550 3084 2163 3084 
Q 1697 3084 1428 2787 
Q 1159 2491 1159 1978 
L 1159 0 
L 581 0 
L 581 3500 
L 1159 3500 
L 1159 2956 
Q 1366 3272 1645 3428 
Q 1925 3584 2291 3584 
Q 2894 3584 3203 3211 
Q 3513 2838 3513 2113 
z
" transform="scale(0.015625)"/>
    </defs>
    <use xlink:href="#DejaVuSans-44" transform="translate(0 0.015625)"/>
    <use xlink:href="#DejaVuSans-65" transform="translate(77.001953 0.015625)"/>
    <use xlink:href="#DejaVuSans-63" transform="translate(138.525391 0.015625)"/>
    <use xlink:href="#DejaVuSans-6f" transform="translate(193.505859 0.015625)"/>
    <use xlink:href="#DejaVuSans-64" transform="translate(254.6875 0.015625)"/>
    <use xlink:href="#DejaVuSans-65" transform="translate(318.164062 0.015625)"/>
    <use xlink:href="#DejaVuSans-64" transform="translate(379.6875 0.015625)"/>
    <use xlink:href="#DejaVuSans-20" transform="translate(443.164062 0.015625)"/>
    <use xlink:href="#DejaVuSans-4f" transform="translate(474.951172 0.015625)"/>
    <use xlink:href="#DejaVuSans-75" transform="translate(553.662109 0.015625)"/>
    <use xlink:href="#DejaVuSans-74" transform="translate(617.041016 0.015625)"/>
    <use xlink:href="#DejaVuSans-70" transform="translate(656.25 0.015625)"/>
    <use xlink:href="#DejaVuSans-75" transform="translate(719.726562 0.015625)"/>
    <use xlink:href="#DejaVuSans-74" transform="translate(783.105469 0.015625)"/>
    <use xlink:href="#DejaVuSans-20" transform="translate(822.314453 0.015625)"/>
    <use xlink:href="#DejaVuSans-66" transform="translate(854.101562 0.015625)"/>
    <use xlink:href="#DejaVuSans-72" transform="translate(889.306641 0.015625)"/>
    <use xlink:href="#DejaVuSans-6f" transform="translate(930.419922 0.015625)"/>
    <use xlink:href="#DejaVuSans-6d" transform="translate(991.601562 0.015625)"/>
    <use xlink:href="#DejaVuSans-20" transform="translate(1089.013672 0.015625)"/>
    <use xlink:href="#DejaVuSans-50" transform="translate(1120.800781 0.015625)"/>
    <use xlink:href="#DejaVuSans-6f" transform="translate(1181.103516 0.015625)"/>
    <use xlink:href="#DejaVuSans-70" transform="translate(1242.285156 0.015625)"/>
    <use xlink:href="#DejaVuSans-75" transform="translate(1305.761719 0.015625)"/>
    <use xlink:href="#DejaVuSans-6c" transform="translate(1369.140625 0.015625)"/>
    <use xlink:href="#DejaVuSans-61" transform="translate(1396.923828 0.015625)"/>
    <use xlink:href="#DejaVuSans-74" transform="translate(1458.203125 0.015625)"/>
    <use xlink:href="#DejaVuSans-69" transform="translate(1497.412109 0.015625)"/>
    <use xlink:href="#DejaVuSans-6f" transform="translate(1525.195312 0.015625)"/>
    <use xlink:href="#DejaVuSans-6e" transform="translate(1586.376953 0.015625)"/>
    <use xlink:href="#DejaVuSans-20" transform="translate(1649.755859 0.015625)"/>
    <use xlink:href="#DejaVuSans-Oblique-41" transform="translate(1681.542969 0.015625)"/>
   </g>
  </g>
 </g>
 <defs>
  <clipPath id="p53c787deee">
   <rect x="45.003125" y="36" width="334.8" height="217.44"/>
  </clipPath>
 </defs>
</svg>
