<?xml version="1.0" encoding="utf-8" standalone="no"?>
<!DOCTYPE svg PUBLIC "-//W3C//DTD SVG 1.1//EN"
  "http://www.w3.org/Graphics/SVG/1.1/DTD/svg11.dtd">
<svg xmlns:xlink="http://www.w3.org/1999/xlink" width="370.942187pt" height="277.318125pt" viewBox="0 0 370.942187 277.318125" xmlns="http://www.w3.org/2000/svg" version="1.1">
 <metadata>
  <rdf:RDF xmlns:dc="http://purl.org/dc/elements/1.1/" xmlns:cc="http://creativecommons.org/ns#" xmlns:rdf="http://www.w3.org/1999/02/22-rdf-syntax-ns#">
   <cc:Work>
    <dc:type rdf:resource="http://purl.org/dc/dcmitype/StillImage"/>
    <dc:date>2022-11-14T18:34:14.744896</dc:date>
    <dc:format>image/svg+xml</dc:format>
    <dc:creator>
     <cc:Agent>
      <dc:title>Matplotlib v3.6.0, https://matplotlib.org/</dc:title>
     </cc:Agent>
    </dc:creator>
   </cc:Work>
  </rdf:RDF>
 </metadata>
 <defs>
  <style type="text/css">*{stroke-linejoin: round; stroke-linecap: butt}</style>
 </defs>
 <g id="figure_1">
  <g id="patch_1">
   <path d="M 0 277.318125 
L 370.942187 277.318125 
L 370.942187 0 
L 0 0 
L 0 277.318125 
z
" style="fill: none"/>
  </g>
  <g id="axes_1">
   <g id="patch_2">
    <path d="M 28.942188 253.44 
L 363.742188 253.44 
L 363.742188 36 
L 28.942188 36 
z
" style="fill: #ffffff"/>
   </g>
   <g id="matplotlib.axis_1">
    <g id="xtick_1">
     <g id="line2d_1">
      <defs>
       <path id="m9ecc7a6327" d="M 0 0 
L 0 3.5 
" style="stroke: #000000; stroke-width: 0.8"/>
      </defs>
      <g>
       <use xlink:href="#m9ecc7a6327" x="28.942188" y="253.44" style="stroke: #000000; stroke-width: 0.8"/>
      </g>
     </g>
     <g id="text_1">
      <!-- 0.0 -->
      <g transform="translate(20.990625 268.038437) scale(0.1 -0.1)">
       <defs>
        <path id="DejaVuSans-30" d="M 2034 4250 
Q 1547 4250 1301 3770 
Q 1056 3291 1056 2328 
Q 1056 1369 1301 889 
Q 1547 409 2034 409 
Q 2525 409 2770 889 
Q 3016 1369 3016 2328 
Q 3016 3291 2770 3770 
Q 2525 4250 2034 4250 
z
M 2034 4750 
Q 2819 4750 3233 4129 
Q 3647 3509 3647 2328 
Q 3647 1150 3233 529 
Q 2819 -91 2034 -91 
Q 1250 -91 836 529 
Q 422 1150 422 2328 
Q 422 3509 836 4129 
Q 1250 4750 2034 4750 
z
" transform="scale(0.015625)"/>
        <path id="DejaVuSans-2e" d="M 684 794 
L 1344 794 
L 1344 0 
L 684 0 
L 684 794 
z
" transform="scale(0.015625)"/>
       </defs>
       <use xlink:href="#DejaVuSans-30"/>
       <use xlink:href="#DejaVuSans-2e" x="63.623047"/>
       <use xlink:href="#DejaVuSans-30" x="95.410156"/>
      </g>
     </g>
    </g>
    <g id="xtick_2">
     <g id="line2d_2">
      <g>
       <use xlink:href="#m9ecc7a6327" x="73.582188" y="253.44" style="stroke: #000000; stroke-width: 0.8"/>
      </g>
     </g>
     <g id="text_2">
      <!-- 0.2 -->
      <g transform="translate(65.630625 268.038437) scale(0.1 -0.1)">
       <defs>
        <path id="DejaVuSans-32" d="M 1228 531 
L 3431 531 
L 3431 0 
L 469 0 
L 469 531 
Q 828 903 1448 1529 
Q 2069 2156 2228 2338 
Q 2531 2678 2651 2914 
Q 2772 3150 2772 3378 
Q 2772 3750 2511 3984 
Q 2250 4219 1831 4219 
Q 1534 4219 1204 4116 
Q 875 4013 500 3803 
L 500 4441 
Q 881 4594 1212 4672 
Q 1544 4750 1819 4750 
Q 2544 4750 2975 4387 
Q 3406 4025 3406 3419 
Q 3406 3131 3298 2873 
Q 3191 2616 2906 2266 
Q 2828 2175 2409 1742 
Q 1991 1309 1228 531 
z
" transform="scale(0.015625)"/>
       </defs>
       <use xlink:href="#DejaVuSans-30"/>
       <use xlink:href="#DejaVuSans-2e" x="63.623047"/>
       <use xlink:href="#DejaVuSans-32" x="95.410156"/>
      </g>
     </g>
    </g>
    <g id="xtick_3">
     <g id="line2d_3">
      <g>
       <use xlink:href="#m9ecc7a6327" x="118.222188" y="253.44" style="stroke: #000000; stroke-width: 0.8"/>
      </g>
     </g>
     <g id="text_3">
      <!-- 0.4 -->
      <g transform="translate(110.270625 268.038437) scale(0.1 -0.1)">
       <defs>
        <path id="DejaVuSans-34" d="M 2419 4116 
L 825 1625 
L 2419 1625 
L 2419 4116 
z
M 2253 4666 
L 3047 4666 
L 3047 1625 
L 3713 1625 
L 3713 1100 
L 3047 1100 
L 3047 0 
L 2419 0 
L 2419 1100 
L 313 1100 
L 313 1709 
L 2253 4666 
z
" transform="scale(0.015625)"/>
       </defs>
       <use xlink:href="#DejaVuSans-30"/>
       <use xlink:href="#DejaVuSans-2e" x="63.623047"/>
       <use xlink:href="#DejaVuSans-34" x="95.410156"/>
      </g>
     </g>
    </g>
    <g id="xtick_4">
     <g id="line2d_4">
      <g>
       <use xlink:href="#m9ecc7a6327" x="162.862188" y="253.44" style="stroke: #000000; stroke-width: 0.8"/>
      </g>
     </g>
     <g id="text_4">
      <!-- 0.6 -->
      <g transform="translate(154.910625 268.038437) scale(0.1 -0.1)">
       <defs>
        <path id="DejaVuSans-36" d="M 2113 2584 
Q 1688 2584 1439 2293 
Q 1191 2003 1191 1497 
Q 1191 994 1439 701 
Q 1688 409 2113 409 
Q 2538 409 2786 701 
Q 3034 994 3034 1497 
Q 3034 2003 2786 2293 
Q 2538 2584 2113 2584 
z
M 3366 4563 
L 3366 3988 
Q 3128 4100 2886 4159 
Q 2644 4219 2406 4219 
Q 1781 4219 1451 3797 
Q 1122 3375 1075 2522 
Q 1259 2794 1537 2939 
Q 1816 3084 2150 3084 
Q 2853 3084 3261 2657 
Q 3669 2231 3669 1497 
Q 3669 778 3244 343 
Q 2819 -91 2113 -91 
Q 1303 -91 875 529 
Q 447 1150 447 2328 
Q 447 3434 972 4092 
Q 1497 4750 2381 4750 
Q 2619 4750 2861 4703 
Q 3103 4656 3366 4563 
z
" transform="scale(0.015625)"/>
       </defs>
       <use xlink:href="#DejaVuSans-30"/>
       <use xlink:href="#DejaVuSans-2e" x="63.623047"/>
       <use xlink:href="#DejaVuSans-36" x="95.410156"/>
      </g>
     </g>
    </g>
    <g id="xtick_5">
     <g id="line2d_5">
      <g>
       <use xlink:href="#m9ecc7a6327" x="207.502187" y="253.44" style="stroke: #000000; stroke-width: 0.8"/>
      </g>
     </g>
     <g id="text_5">
      <!-- 0.8 -->
      <g transform="translate(199.550625 268.038437) scale(0.1 -0.1)">
       <defs>
        <path id="DejaVuSans-38" d="M 2034 2216 
Q 1584 2216 1326 1975 
Q 1069 1734 1069 1313 
Q 1069 891 1326 650 
Q 1584 409 2034 409 
Q 2484 409 2743 651 
Q 3003 894 3003 1313 
Q 3003 1734 2745 1975 
Q 2488 2216 2034 2216 
z
M 1403 2484 
Q 997 2584 770 2862 
Q 544 3141 544 3541 
Q 544 4100 942 4425 
Q 1341 4750 2034 4750 
Q 2731 4750 3128 4425 
Q 3525 4100 3525 3541 
Q 3525 3141 3298 2862 
Q 3072 2584 2669 2484 
Q 3125 2378 3379 2068 
Q 3634 1759 3634 1313 
Q 3634 634 3220 271 
Q 2806 -91 2034 -91 
Q 1263 -91 848 271 
Q 434 634 434 1313 
Q 434 1759 690 2068 
Q 947 2378 1403 2484 
z
M 1172 3481 
Q 1172 3119 1398 2916 
Q 1625 2713 2034 2713 
Q 2441 2713 2670 2916 
Q 2900 3119 2900 3481 
Q 2900 3844 2670 4047 
Q 2441 4250 2034 4250 
Q 1625 4250 1398 4047 
Q 1172 3844 1172 3481 
z
" transform="scale(0.015625)"/>
       </defs>
       <use xlink:href="#DejaVuSans-30"/>
       <use xlink:href="#DejaVuSans-2e" x="63.623047"/>
       <use xlink:href="#DejaVuSans-38" x="95.410156"/>
      </g>
     </g>
    </g>
    <g id="xtick_6">
     <g id="line2d_6">
      <g>
       <use xlink:href="#m9ecc7a6327" x="252.142187" y="253.44" style="stroke: #000000; stroke-width: 0.8"/>
      </g>
     </g>
     <g id="text_6">
      <!-- 1.0 -->
      <g transform="translate(244.190625 268.038437) scale(0.1 -0.1)">
       <defs>
        <path id="DejaVuSans-31" d="M 794 531 
L 1825 531 
L 1825 4091 
L 703 3866 
L 703 4441 
L 1819 4666 
L 2450 4666 
L 2450 531 
L 3481 531 
L 3481 0 
L 794 0 
L 794 531 
z
" transform="scale(0.015625)"/>
       </defs>
       <use xlink:href="#DejaVuSans-31"/>
       <use xlink:href="#DejaVuSans-2e" x="63.623047"/>
       <use xlink:href="#DejaVuSans-30" x="95.410156"/>
      </g>
     </g>
    </g>
    <g id="xtick_7">
     <g id="line2d_7">
      <g>
       <use xlink:href="#m9ecc7a6327" x="296.782188" y="253.44" style="stroke: #000000; stroke-width: 0.8"/>
      </g>
     </g>
     <g id="text_7">
      <!-- 1.2 -->
      <g transform="translate(288.830625 268.038437) scale(0.1 -0.1)">
       <use xlink:href="#DejaVuSans-31"/>
       <use xlink:href="#DejaVuSans-2e" x="63.623047"/>
       <use xlink:href="#DejaVuSans-32" x="95.410156"/>
      </g>
     </g>
    </g>
    <g id="xtick_8">
     <g id="line2d_8">
      <g>
       <use xlink:href="#m9ecc7a6327" x="341.422188" y="253.44" style="stroke: #000000; stroke-width: 0.8"/>
      </g>
     </g>
     <g id="text_8">
      <!-- 1.4 -->
      <g transform="translate(333.470625 268.038437) scale(0.1 -0.1)">
       <use xlink:href="#DejaVuSans-31"/>
       <use xlink:href="#DejaVuSans-2e" x="63.623047"/>
       <use xlink:href="#DejaVuSans-34" x="95.410156"/>
      </g>
     </g>
    </g>
   </g>
   <g id="matplotlib.axis_2">
    <g id="ytick_1">
     <g id="line2d_9">
      <defs>
       <path id="macc1b00256" d="M 0 0 
L -3.5 0 
" style="stroke: #000000; stroke-width: 0.8"/>
      </defs>
      <g>
       <use xlink:href="#macc1b00256" x="28.942188" y="223.887769" style="stroke: #000000; stroke-width: 0.8"/>
      </g>
     </g>
     <g id="text_9">
      <!-- −4 -->
      <g transform="translate(7.2 227.686988) scale(0.1 -0.1)">
       <defs>
        <path id="DejaVuSans-2212" d="M 678 2272 
L 4684 2272 
L 4684 1741 
L 678 1741 
L 678 2272 
z
" transform="scale(0.015625)"/>
       </defs>
       <use xlink:href="#DejaVuSans-2212"/>
       <use xlink:href="#DejaVuSans-34" x="83.789062"/>
      </g>
     </g>
    </g>
    <g id="ytick_2">
     <g id="line2d_10">
      <g>
       <use xlink:href="#macc1b00256" x="28.942188" y="184.303849" style="stroke: #000000; stroke-width: 0.8"/>
      </g>
     </g>
     <g id="text_10">
      <!-- −2 -->
      <g transform="translate(7.2 188.103068) scale(0.1 -0.1)">
       <use xlink:href="#DejaVuSans-2212"/>
       <use xlink:href="#DejaVuSans-32" x="83.789062"/>
      </g>
     </g>
    </g>
    <g id="ytick_3">
     <g id="line2d_11">
      <g>
       <use xlink:href="#macc1b00256" x="28.942188" y="144.719929" style="stroke: #000000; stroke-width: 0.8"/>
      </g>
     </g>
     <g id="text_11">
      <!-- 0 -->
      <g transform="translate(15.579688 148.519147) scale(0.1 -0.1)">
       <use xlink:href="#DejaVuSans-30"/>
      </g>
     </g>
    </g>
    <g id="ytick_4">
     <g id="line2d_12">
      <g>
       <use xlink:href="#macc1b00256" x="28.942188" y="105.136008" style="stroke: #000000; stroke-width: 0.8"/>
      </g>
     </g>
     <g id="text_12">
      <!-- 2 -->
      <g transform="translate(15.579688 108.935227) scale(0.1 -0.1)">
       <use xlink:href="#DejaVuSans-32"/>
      </g>
     </g>
    </g>
    <g id="ytick_5">
     <g id="line2d_13">
      <g>
       <use xlink:href="#macc1b00256" x="28.942188" y="65.552088" style="stroke: #000000; stroke-width: 0.8"/>
      </g>
     </g>
     <g id="text_13">
      <!-- 4 -->
      <g transform="translate(15.579688 69.351307) scale(0.1 -0.1)">
       <use xlink:href="#DejaVuSans-34"/>
      </g>
     </g>
    </g>
   </g>
   <g id="line2d_14">
    <path d="M 29.165388 144.719929 
L 29.611788 144.583152 
L 30.281388 144.097135 
L 31.174188 143.059005 
L 32.290188 141.33903 
L 33.852587 138.465286 
L 36.530988 132.960265 
L 51.038988 102.39791 
L 55.726188 93.270171 
L 59.966988 85.497253 
L 63.761387 78.993246 
L 67.332588 73.304562 
L 70.680588 68.385652 
L 73.805387 64.181365 
L 76.706987 60.630194 
L 79.608587 57.434177 
L 82.286988 54.810932 
L 84.965387 52.511262 
L 87.420588 50.694573 
L 89.875788 49.162239 
L 92.107788 48.019879 
L 94.339787 47.119218 
L 96.571787 46.462509 
L 98.803787 46.051392 
L 101.035787 45.886894 
L 103.044588 45.950059 
L 105.276588 46.254763 
L 107.508587 46.805577 
L 109.740587 47.601127 
L 111.972588 48.639423 
L 114.204588 49.91787 
L 116.659788 51.597705 
L 119.114987 53.559164 
L 121.570188 55.796315 
L 124.248587 58.543296 
L 126.926987 61.600421 
L 129.828587 65.249506 
L 132.953388 69.554182 
L 136.301387 74.574288 
L 139.872588 80.363033 
L 143.666988 86.963745 
L 147.684588 94.406221 
L 152.148588 103.150566 
L 157.282188 113.714425 
L 163.531788 127.113516 
L 174.022187 150.242728 
L 183.173387 170.215503 
L 188.976587 182.379321 
L 193.886987 192.183316 
L 198.350987 200.601166 
L 202.368587 207.702129 
L 205.939788 213.587803 
L 209.287787 218.706216 
L 212.412588 223.108639 
L 215.537387 227.127115 
L 218.438987 230.497532 
L 221.117388 233.287432 
L 223.795788 235.758585 
L 226.250988 237.736181 
L 228.706187 239.432473 
L 231.161387 240.842333 
L 233.393388 241.871861 
L 235.625387 242.65856 
L 237.857388 243.200463 
L 240.089387 243.496216 
L 242.321388 243.54508 
L 244.553387 243.346933 
L 246.785388 242.902269 
L 249.017387 242.212201 
L 251.249388 241.278453 
L 253.481387 240.103358 
L 255.713388 238.689855 
L 258.168587 236.863874 
L 260.623787 234.759227 
L 263.302188 232.152934 
L 265.980588 229.231976 
L 268.882187 225.724734 
L 271.783788 221.875367 
L 274.908588 217.365961 
L 278.256587 212.140222 
L 281.827787 206.149051 
L 285.622187 199.353809 
L 289.862987 191.294671 
L 294.550187 181.901627 
L 300.130187 170.19431 
L 307.272587 154.654506 
L 325.128587 115.576485 
L 330.708588 104.029334 
L 335.395787 94.813272 
L 339.636588 86.945947 
L 343.430987 80.346388 
L 347.002187 74.558837 
L 350.350187 69.539941 
L 353.474987 65.236467 
L 356.376587 61.588555 
L 359.278187 58.291749 
L 361.956587 55.572244 
L 363.742187 53.936925 
L 363.742187 53.936925 
" clip-path="url(#p621c3d2ad7)" style="fill: none; stroke: #1f77b4; stroke-width: 1.5; stroke-linecap: square"/>
   </g>
   <g id="line2d_15">
    <path d="M 29.165388 144.719929 
L 29.388588 144.863944 
L 29.611788 144.710434 
L 29.834988 145.039865 
L 30.058188 144.674394 
L 30.281388 144.957302 
L 30.504588 144.747135 
L 30.727788 144.698447 
L 30.950988 144.816063 
L 31.174188 144.460536 
L 31.620588 144.545537 
L 32.066988 144.054241 
L 32.513388 144.825854 
L 32.736588 144.533786 
L 32.959788 144.435151 
L 33.182988 144.682007 
L 33.406188 144.636725 
L 33.629387 144.737111 
L 33.852587 144.56256 
L 34.298988 143.711801 
L 34.745388 143.862769 
L 34.968588 144.08789 
L 35.191788 143.905869 
L 35.414988 144.382586 
L 36.084588 144.917689 
L 36.530988 143.862581 
L 36.754188 143.360894 
L 37.423788 143.758296 
L 37.646988 143.123458 
L 37.870188 142.979609 
L 38.093388 143.443734 
L 38.316588 143.289234 
L 38.539788 143.840981 
L 38.762988 143.682175 
L 38.986187 143.722215 
L 39.209388 143.241217 
L 39.432588 143.242427 
L 40.102187 143.681548 
L 40.325388 143.821513 
L 40.548588 143.481686 
L 41.218187 143.422673 
L 41.441388 142.479011 
L 42.110988 142.840642 
L 42.334187 142.999824 
L 42.557388 142.76101 
L 42.780588 142.73756 
L 43.003788 142.534138 
L 43.226987 142.969921 
L 43.450187 142.649189 
L 43.673388 142.619582 
L 43.896588 142.390518 
L 44.119788 142.848923 
L 44.342988 143.017615 
L 44.789388 142.211771 
L 45.012588 142.207363 
L 45.235788 141.906149 
L 45.458988 142.418405 
L 45.682187 142.312467 
L 46.574988 142.338959 
L 46.798187 141.615831 
L 47.021388 141.669277 
L 47.244588 141.387201 
L 47.467788 140.438667 
L 47.690988 140.368658 
L 47.914188 140.467401 
L 48.137388 140.874463 
L 48.360588 140.860326 
L 48.806988 141.395431 
L 49.030187 141.347212 
L 49.253388 140.645215 
L 49.476588 140.64542 
L 49.699787 141.336784 
L 50.146188 141.007715 
L 50.369388 141.317927 
L 50.815787 140.399483 
L 51.262188 140.574274 
L 51.485388 140.202143 
L 51.708588 139.491791 
L 52.154988 140.677209 
L 52.378187 140.260549 
L 52.824587 140.152871 
L 53.047787 140.495776 
L 53.270988 139.859207 
L 53.494188 140.18528 
L 53.717388 139.521061 
L 53.940588 139.468141 
L 54.163787 139.180854 
L 54.386988 139.085073 
L 54.610188 138.769001 
L 54.833388 139.181926 
L 55.056588 138.90001 
L 55.279788 139.112412 
L 55.502988 139.039547 
L 55.726188 139.485933 
L 55.949388 139.561138 
L 56.395787 138.341953 
L 56.618988 138.48014 
L 57.065387 138.044197 
L 57.288588 138.190874 
L 57.511787 138.805106 
L 57.734988 139.079749 
L 57.958188 138.939656 
L 58.404588 138.287144 
L 58.627788 138.323758 
L 59.074188 137.901422 
L 59.743788 137.217083 
L 59.966988 137.70436 
L 60.190188 137.620828 
L 60.413388 137.04083 
L 60.636588 137.798865 
L 60.859788 137.498828 
L 61.082988 136.937213 
L 61.306188 137.27394 
L 61.529387 137.280475 
L 61.752587 137.935047 
L 62.198988 137.469149 
L 62.422187 136.795445 
L 62.868587 136.637486 
L 63.091788 137.157431 
L 63.314988 136.526583 
L 63.538187 136.626213 
L 63.761387 136.558874 
L 63.984588 135.161075 
L 64.207787 135.291724 
L 64.654188 136.167008 
L 65.100588 136.274562 
L 65.546988 135.790469 
L 65.770188 135.75659 
L 66.216588 134.62941 
L 66.662988 135.068424 
L 66.886188 134.674492 
L 67.109387 135.235227 
L 67.332588 135.092113 
L 67.555788 135.356512 
L 68.002188 134.998905 
L 68.225387 135.063511 
L 68.448588 134.397004 
L 68.671787 134.150188 
L 68.894987 134.353103 
L 69.118188 133.773638 
L 69.341387 133.775816 
L 69.564588 134.566997 
L 70.010987 134.707971 
L 70.234187 133.828488 
L 70.457388 133.637071 
L 70.680588 133.215015 
L 70.903787 133.649426 
L 71.126987 133.267135 
L 71.573387 133.141058 
L 71.796588 132.626321 
L 72.019788 133.131912 
L 72.242987 132.771517 
L 72.689388 133.596319 
L 72.912588 133.283567 
L 73.358988 132.317763 
L 73.805387 133.222622 
L 74.028588 132.51569 
L 74.698188 131.502782 
L 74.921388 131.591858 
L 75.367788 132.054294 
L 75.590987 131.827687 
L 75.814188 131.082412 
L 76.037387 131.354719 
L 76.260587 131.951402 
L 76.706987 130.741661 
L 76.930188 130.872444 
L 77.153388 130.76584 
L 77.376587 130.285939 
L 77.822988 130.224205 
L 78.046188 129.834851 
L 78.269387 130.246529 
L 78.492587 130.088464 
L 78.715788 130.590053 
L 79.162188 130.526671 
L 79.608587 129.04492 
L 79.831788 129.539075 
L 80.054988 129.43337 
L 80.278188 129.17848 
L 80.501387 129.658616 
L 80.724588 129.583171 
L 80.947788 129.100836 
L 81.170987 129.441459 
L 81.394188 128.947023 
L 81.617388 128.933583 
L 81.840587 129.254307 
L 82.286988 128.309861 
L 82.510188 128.361194 
L 82.956587 128.09406 
L 83.402987 128.538722 
L 83.626188 128.183161 
L 83.849388 128.212091 
L 84.072587 127.278442 
L 84.295788 128.014651 
L 84.518988 127.359779 
L 84.742188 127.504192 
L 85.188587 126.929547 
L 85.411788 126.650551 
L 85.634987 127.501087 
L 85.858187 126.987456 
L 86.304587 127.138784 
L 86.527788 126.376164 
L 86.750988 126.475513 
L 86.974187 125.796562 
L 87.197388 126.045761 
L 87.420588 125.975006 
L 87.643788 126.666962 
L 87.866987 126.223076 
L 88.090188 126.487025 
L 88.536587 125.592331 
L 88.759788 125.12903 
L 88.982988 125.508075 
L 89.206187 126.118292 
L 89.652588 125.414238 
L 89.875788 126.121655 
L 90.322188 124.835999 
L 90.545388 124.677445 
L 90.768587 124.709868 
L 90.991788 125.413018 
L 91.214988 125.689177 
L 91.438187 124.358876 
L 91.661388 124.360261 
L 91.884588 123.887494 
L 92.107788 125.057635 
L 92.330988 125.480794 
L 92.554188 125.384914 
L 93.000588 123.066223 
L 93.446987 124.840004 
L 93.670187 125.127725 
L 94.116587 122.907615 
L 94.562987 124.08408 
L 95.009388 123.98698 
L 95.232587 123.012528 
L 95.455787 123.078682 
L 95.678987 123.506264 
L 95.902187 123.616835 
L 96.125388 123.580424 
L 96.348587 123.890397 
L 96.571787 123.426315 
L 97.018187 123.36344 
L 97.241388 122.503916 
L 97.687787 123.587384 
L 97.910988 123.104385 
L 98.357388 123.077387 
L 98.580587 122.78215 
L 98.803787 123.245866 
L 99.026988 123.158116 
L 99.250187 122.107725 
L 99.696588 122.861079 
L 99.919787 123.131728 
L 100.142988 123.11656 
L 100.366187 121.957263 
L 100.589388 121.859486 
L 101.035787 123.04612 
L 101.258988 122.41423 
L 101.482187 122.466364 
L 101.928588 122.13275 
L 102.151787 122.335214 
L 102.374988 121.993912 
L 102.598188 122.061696 
L 102.821388 121.357112 
L 103.267787 122.539054 
L 103.490988 122.585586 
L 103.714188 121.817106 
L 103.937387 121.720202 
L 104.160588 121.29406 
L 104.383788 121.532922 
L 104.606988 122.420444 
L 104.830188 122.01012 
L 105.053387 121.921927 
L 105.276588 121.588537 
L 105.499788 120.997324 
L 105.722988 121.534384 
L 105.946188 121.449932 
L 106.169387 121.620546 
L 106.392588 122.013463 
L 106.615788 120.86361 
L 106.838988 121.516209 
L 107.062188 121.461976 
L 107.508587 121.609275 
L 107.731787 121.187884 
L 107.954988 121.292689 
L 108.178187 121.697134 
L 108.624587 121.052164 
L 108.847787 121.163592 
L 109.070988 121.640564 
L 109.294187 120.83195 
L 109.517387 120.704996 
L 109.740587 121.036854 
L 109.963787 121.664549 
L 110.410187 120.777541 
L 110.633387 120.987748 
L 110.856588 120.917106 
L 111.079787 121.074628 
L 111.302988 120.934561 
L 111.526187 120.611979 
L 111.749387 120.730648 
L 111.972588 120.620393 
L 112.195787 121.204926 
L 112.418988 120.701162 
L 112.865387 121.07981 
L 113.088588 120.473799 
L 113.534987 120.5178 
L 113.758188 121.073324 
L 113.981387 120.436742 
L 114.427787 120.888549 
L 114.650987 120.604745 
L 114.874188 120.843573 
L 115.097387 120.280867 
L 115.320588 120.74564 
L 115.990188 120.548473 
L 116.213387 120.140997 
L 116.436588 119.996757 
L 116.659788 120.645278 
L 116.882987 120.461342 
L 117.106188 120.640203 
L 117.329387 120.578448 
L 117.552588 120.058804 
L 117.775788 120.427632 
L 118.222188 120.773438 
L 118.445388 120.412591 
L 118.668588 120.26687 
L 118.891788 119.987542 
L 119.114987 120.206243 
L 119.338188 120.927328 
L 119.561388 121.23655 
L 119.784588 119.800047 
L 120.007788 119.913479 
L 120.454188 120.664317 
L 120.677388 120.631346 
L 120.900588 120.093044 
L 121.123788 119.851904 
L 121.346988 120.59844 
L 121.570188 120.501022 
L 122.016587 119.807638 
L 122.462987 120.467345 
L 122.686187 120.020797 
L 122.909387 120.082335 
L 123.132587 119.958095 
L 123.355787 120.098931 
L 123.578987 119.758712 
L 123.802188 120.707793 
L 124.025387 120.640408 
L 124.471787 119.702501 
L 124.694987 119.395769 
L 124.918188 120.161237 
L 125.141387 121.411564 
L 125.587787 119.660877 
L 125.810987 119.545948 
L 126.034188 120.295668 
L 126.257387 120.312573 
L 126.480587 120.578387 
L 126.703788 119.46041 
L 126.926987 120.504866 
L 127.150188 120.255843 
L 127.373387 119.813359 
L 127.596587 120.485194 
L 127.819788 120.040188 
L 128.042987 119.869092 
L 128.266188 120.279807 
L 128.489388 119.995061 
L 128.712587 120.180962 
L 128.935788 119.643067 
L 129.158987 120.260016 
L 129.382187 120.45844 
L 129.605388 120.372466 
L 129.828587 119.777675 
L 130.051787 119.775612 
L 130.274988 120.177521 
L 130.498188 120.222489 
L 130.721387 120.14926 
L 130.944588 120.262635 
L 131.167788 120.157135 
L 131.614188 120.35587 
L 131.837388 119.638154 
L 132.060587 119.775754 
L 132.283788 120.224749 
L 132.506988 120.976651 
L 132.730187 119.954187 
L 132.953388 119.879716 
L 133.176587 119.969542 
L 133.399788 120.21043 
L 133.846187 119.494441 
L 134.069388 120.374338 
L 134.292588 119.825342 
L 134.515787 120.259777 
L 134.738988 120.229896 
L 134.962187 120.328722 
L 135.185387 120.742788 
L 135.408588 119.732396 
L 135.631788 119.766916 
L 135.854987 120.088291 
L 136.078188 120.652185 
L 136.301387 120.638813 
L 136.747787 119.641652 
L 136.970987 119.807528 
L 137.417387 120.318607 
L 137.640587 120.462016 
L 137.863788 120.169563 
L 138.086987 120.078479 
L 138.310187 120.200993 
L 138.533388 119.898301 
L 138.756587 120.37227 
L 139.649387 120.511002 
L 139.872588 120.275136 
L 140.095788 119.671429 
L 140.318987 119.85606 
L 140.988587 121.13868 
L 141.211788 120.009784 
L 141.434987 119.671194 
L 142.104587 120.778559 
L 142.327787 120.495002 
L 142.550988 121.002891 
L 142.774187 120.188219 
L 142.997388 119.920468 
L 143.443787 120.415719 
L 143.666988 121.361447 
L 143.890187 119.976405 
L 144.113387 120.945991 
L 144.336588 120.20253 
L 144.559787 120.225207 
L 144.782987 121.072158 
L 145.006188 120.450447 
L 145.229388 120.49869 
L 145.452587 120.808109 
L 145.675788 120.195234 
L 146.122187 120.50666 
L 146.345388 120.938294 
L 146.568588 120.237881 
L 146.791787 120.822499 
L 147.014988 120.087027 
L 147.461388 121.239173 
L 147.907787 120.435096 
L 148.354188 120.508772 
L 148.577387 121.085248 
L 148.800588 120.824431 
L 149.023787 120.743431 
L 149.246987 119.811377 
L 149.693388 121.016473 
L 149.916587 121.378722 
L 150.362988 120.654754 
L 150.586187 120.699679 
L 150.809388 120.459935 
L 151.032588 120.86674 
L 151.478988 120.846266 
L 151.925387 121.409733 
L 152.371788 120.525922 
L 152.594988 120.744506 
L 152.818188 121.421662 
L 153.041388 121.71216 
L 153.487788 120.57527 
L 153.710987 121.085061 
L 153.934188 120.794585 
L 154.157388 120.9498 
L 154.380587 121.33582 
L 154.603788 121.477318 
L 155.050187 120.797263 
L 155.273388 120.824819 
L 155.496588 120.983987 
L 155.719787 121.567846 
L 155.942988 121.198203 
L 156.166188 121.467301 
L 156.389387 121.209935 
L 156.612588 121.222703 
L 156.835788 121.736018 
L 157.058988 121.802177 
L 157.505387 120.652682 
L 157.728588 121.191302 
L 157.951787 121.37531 
L 158.174987 121.895341 
L 158.398188 122.000682 
L 158.621387 121.236108 
L 158.844587 121.155618 
L 159.067788 121.911132 
L 159.514187 121.525862 
L 159.737388 120.985849 
L 159.960587 121.593745 
L 160.630187 122.198599 
L 160.853387 121.658124 
L 161.076588 121.690802 
L 161.299787 121.368121 
L 161.522987 121.435865 
L 161.746187 122.02277 
L 161.969387 121.814943 
L 162.192588 121.891763 
L 162.415787 122.270483 
L 162.862188 121.759299 
L 163.085387 121.625404 
L 163.754987 122.164038 
L 163.978187 122.652831 
L 164.201388 121.967698 
L 164.424587 121.8625 
L 164.647787 121.596026 
L 165.317387 122.677738 
L 165.540588 121.986461 
L 165.763787 122.244241 
L 165.986987 121.739604 
L 166.210188 122.624111 
L 166.433387 122.329716 
L 166.879788 122.299264 
L 167.326188 122.107869 
L 167.549388 122.609895 
L 167.772587 122.375471 
L 167.995788 122.497585 
L 168.218987 123.141746 
L 168.442187 122.714465 
L 168.665388 122.010429 
L 168.888587 122.089136 
L 169.111787 122.486335 
L 169.334988 123.853467 
L 169.558187 123.776219 
L 169.781387 121.935173 
L 170.004588 121.705388 
L 170.674188 123.852377 
L 170.897387 122.592775 
L 171.120587 123.084329 
L 171.343788 122.178535 
L 171.790188 123.676106 
L 172.013388 122.409368 
L 172.459788 123.792164 
L 172.682988 123.261059 
L 172.906187 123.017709 
L 173.129388 122.183971 
L 173.352588 123.407205 
L 173.798988 123.661162 
L 174.245387 122.225047 
L 174.691787 123.835383 
L 174.914987 124.015025 
L 175.138188 123.774301 
L 175.584587 122.626124 
L 175.807788 123.735669 
L 176.030987 123.695775 
L 176.254188 124.027752 
L 176.477388 123.683125 
L 176.700587 123.756074 
L 176.923788 123.603039 
L 177.146988 123.752262 
L 177.370187 124.04023 
L 177.816588 123.443802 
L 178.039787 124.400535 
L 178.262988 124.454196 
L 178.486188 123.734488 
L 179.602188 124.201476 
L 179.825388 124.817577 
L 180.271788 124.11473 
L 180.494987 123.879985 
L 181.164587 124.752679 
L 181.387788 124.614872 
L 181.610988 124.681147 
L 181.834187 123.878601 
L 182.503787 124.953774 
L 182.726988 125.175719 
L 182.950188 123.896492 
L 183.173387 124.43167 
L 183.396588 124.611271 
L 183.619788 125.25376 
L 183.842987 125.222007 
L 184.066188 124.84008 
L 184.289388 124.701944 
L 184.512587 124.781678 
L 184.735788 125.333947 
L 184.958988 125.082816 
L 185.182187 124.464767 
L 185.628588 125.45017 
L 185.851788 125.567598 
L 186.298187 124.977547 
L 186.521388 125.498186 
L 186.744587 125.420335 
L 186.967787 125.645731 
L 187.637387 125.245096 
L 187.860588 125.831707 
L 188.083787 125.800152 
L 188.306987 126.298303 
L 188.753387 125.565793 
L 188.976587 125.587893 
L 189.646187 126.52558 
L 189.869388 126.669875 
L 190.092587 125.684454 
L 190.315787 126.298847 
L 190.538987 126.13697 
L 190.985388 126.232968 
L 191.208587 127.047112 
L 191.431787 127.052564 
L 191.654988 127.383557 
L 191.878187 126.943823 
L 192.101387 125.917766 
L 192.994188 128.073966 
L 193.440587 126.764952 
L 193.663788 126.771711 
L 194.110187 128.121456 
L 194.556587 126.926928 
L 195.002988 127.512745 
L 195.226187 127.448956 
L 195.449388 128.137726 
L 195.895787 127.731016 
L 196.118988 128.168056 
L 196.342187 128.233067 
L 196.565387 127.997852 
L 196.788588 127.555585 
L 197.011787 128.469524 
L 197.234987 127.728525 
L 197.458188 127.992429 
L 197.681387 129.173056 
L 197.904587 129.041879 
L 198.350987 128.418275 
L 198.574187 128.92052 
L 198.797388 128.826844 
L 199.243787 129.589522 
L 199.466988 129.130811 
L 199.690187 129.166097 
L 199.913387 129.450535 
L 200.136588 129.349502 
L 200.359787 129.415471 
L 200.806188 130.803122 
L 201.029387 130.407459 
L 201.252588 130.37249 
L 201.475788 129.7993 
L 201.698987 129.652045 
L 201.922188 129.223427 
L 202.145388 129.873908 
L 202.368587 130.120279 
L 202.591788 130.95282 
L 203.038187 130.626282 
L 203.484587 130.986718 
L 203.707787 130.335158 
L 203.930988 130.924328 
L 204.154187 130.422727 
L 205.046988 131.771828 
L 205.270188 131.559233 
L 205.493387 131.921339 
L 205.716588 131.527194 
L 206.162987 132.165666 
L 206.386188 132.22672 
L 206.832587 131.489165 
L 207.948588 133.034076 
L 208.171787 132.588375 
L 208.394988 133.182653 
L 208.841387 132.355878 
L 209.064588 133.388541 
L 209.287787 133.848588 
L 209.510987 133.848339 
L 209.734188 133.448279 
L 209.957387 133.650028 
L 210.180588 132.782008 
L 210.403788 132.76981 
L 210.626987 132.13525 
L 211.073388 133.15906 
L 211.296587 133.953412 
L 211.966187 133.389318 
L 212.189388 134.648216 
L 212.412588 134.985991 
L 212.635787 135.725111 
L 212.858988 136.036683 
L 213.082188 135.370758 
L 213.528588 134.93036 
L 213.751788 134.883439 
L 214.198188 135.66309 
L 214.421388 135.578286 
L 215.090987 136.128439 
L 215.314188 136.472383 
L 215.537387 135.518454 
L 215.760587 135.204687 
L 215.983788 135.093983 
L 216.206987 135.288382 
L 216.430187 135.643017 
L 216.653388 136.447336 
L 216.876587 136.284427 
L 217.099787 137.02453 
L 217.546187 136.498818 
L 217.769387 137.249298 
L 217.992588 137.114433 
L 218.215787 137.34453 
L 218.438987 137.182678 
L 218.662188 137.39762 
L 218.885387 137.110585 
L 219.108587 137.450573 
L 219.331787 136.944391 
L 219.554987 136.888077 
L 219.778188 137.341156 
L 220.001387 138.085473 
L 220.224587 138.337804 
L 220.670987 138.032787 
L 220.894187 138.375487 
L 221.340587 137.923983 
L 221.786988 138.630351 
L 222.010187 139.208049 
L 222.233387 139.129136 
L 222.456588 138.601514 
L 222.679787 138.46967 
L 222.902987 138.703732 
L 223.126188 139.161522 
L 223.349387 139.053654 
L 223.795788 139.685903 
L 224.018987 139.524831 
L 224.242188 139.916852 
L 224.465388 139.973558 
L 224.688587 140.609848 
L 224.911788 140.263586 
L 225.134987 140.142007 
L 225.358187 139.568324 
L 225.581388 139.61685 
L 225.804587 139.375021 
L 226.027787 139.433082 
L 226.250988 140.118273 
L 226.474187 139.603798 
L 226.697387 139.933226 
L 227.143787 141.039245 
L 227.366987 141.267805 
L 227.590188 140.72362 
L 227.813387 140.892018 
L 228.259788 141.676937 
L 228.482987 141.524205 
L 228.706187 141.584855 
L 229.152587 142.733877 
L 229.598988 142.584253 
L 229.822187 142.512394 
L 230.268588 141.549737 
L 230.491787 141.63535 
L 230.714988 142.492775 
L 230.938188 142.795617 
L 231.161387 142.80637 
L 231.384588 143.334634 
L 232.054188 142.79041 
L 232.277387 142.871042 
L 232.946987 144.550235 
L 233.170187 144.061415 
L 233.393388 144.76968 
L 233.616587 144.732404 
L 234.062988 144.280035 
L 234.286187 144.084002 
L 234.509388 144.435341 
L 234.732588 144.203677 
L 234.955787 144.306218 
L 235.178988 144.602141 
L 235.402188 144.165406 
L 235.625387 144.038207 
L 235.848588 144.497767 
L 236.071788 144.509761 
L 236.294987 144.950734 
L 236.518188 145.683998 
L 236.964587 146.267804 
L 237.187788 145.511037 
L 237.410987 145.457921 
L 238.526988 146.119993 
L 238.750187 146.17175 
L 238.973388 146.881999 
L 239.196588 147.220249 
L 239.419787 147.298008 
L 239.642988 146.912069 
L 239.866188 146.780654 
L 240.535788 147.613889 
L 240.982188 146.954221 
L 241.205388 147.069316 
L 241.428587 146.848191 
L 241.651788 146.991619 
L 241.874988 147.8254 
L 242.098187 147.967902 
L 242.321388 148.457243 
L 242.767787 147.931443 
L 242.990988 148.235564 
L 243.214187 147.571931 
L 243.437387 147.832243 
L 243.883787 149.112222 
L 244.106988 149.048798 
L 244.330187 149.502341 
L 244.553387 149.592615 
L 244.776588 149.192878 
L 244.999787 148.514865 
L 245.222987 148.474672 
L 245.446188 148.709716 
L 245.892587 149.716464 
L 246.115788 149.666182 
L 246.338987 150.465002 
L 246.562187 150.334945 
L 247.008587 150.559115 
L 247.231787 150.005123 
L 247.454988 149.986907 
L 247.901387 149.440209 
L 248.124587 150.249753 
L 249.017387 151.346837 
L 249.240588 151.090851 
L 249.463787 151.268643 
L 249.686987 151.672256 
L 249.910188 151.50924 
L 250.133387 151.185072 
L 250.579788 152.653573 
L 250.802987 151.844362 
L 251.249388 151.53431 
L 251.472587 151.202839 
L 251.695787 151.684261 
L 251.918988 151.468355 
L 252.142187 151.955679 
L 252.365387 152.777586 
L 252.811788 152.885495 
L 253.034987 152.508369 
L 253.258188 152.565602 
L 253.481387 152.361937 
L 253.704588 152.712108 
L 253.927787 152.585516 
L 254.150988 152.755563 
L 254.374188 153.322942 
L 254.820587 153.609199 
L 255.043788 153.66426 
L 255.266987 153.912304 
L 255.713388 153.670133 
L 256.382988 154.144876 
L 256.606187 153.63849 
L 256.829387 154.069755 
L 257.052588 154.892242 
L 257.275788 154.572729 
L 257.498987 155.113753 
L 257.945387 154.264032 
L 258.168587 155.153769 
L 258.838188 154.364799 
L 259.061387 154.570385 
L 259.284587 155.302214 
L 259.507787 154.979723 
L 259.730988 155.17996 
L 259.954187 155.590707 
L 260.177388 155.625758 
L 260.400587 155.215437 
L 260.623787 155.604464 
L 260.846987 155.626465 
L 261.070187 156.197822 
L 261.293387 156.009786 
L 261.516588 156.511779 
L 261.739787 156.313816 
L 261.962987 156.690802 
L 262.186187 156.00337 
L 262.409387 156.460807 
L 262.632587 156.21294 
L 263.078987 156.883705 
L 263.302188 156.624925 
L 263.748587 157.254379 
L 263.971788 157.040303 
L 264.194988 157.111213 
L 264.418187 156.452371 
L 264.641388 156.583601 
L 265.087787 157.880248 
L 266.203787 156.928006 
L 266.426987 157.565602 
L 266.650187 157.515497 
L 267.096587 157.743537 
L 267.319788 158.03118 
L 267.542987 157.837188 
L 267.989387 157.819922 
L 268.212587 158.679496 
L 268.435788 158.409119 
L 268.658988 158.398051 
L 268.882187 158.615052 
L 269.105388 159.047389 
L 269.328587 158.585969 
L 269.551787 158.869296 
L 269.774988 158.855381 
L 269.998188 159.761199 
L 270.221387 159.482321 
L 270.444588 159.427473 
L 270.667787 159.014414 
L 270.890987 158.953746 
L 271.114187 159.090532 
L 271.337388 158.070582 
L 271.560587 160.314432 
L 272.006987 159.217709 
L 272.230187 159.175848 
L 272.453387 158.179622 
L 272.899788 159.158845 
L 273.122988 160.018785 
L 273.346187 160.128661 
L 273.569388 159.592718 
L 273.792587 159.386484 
L 274.015787 159.371056 
L 274.462188 159.906416 
L 274.685387 160.741227 
L 275.131787 159.392797 
L 275.354987 159.972945 
L 275.578188 159.821487 
L 275.801388 159.82641 
L 276.024587 160.825564 
L 276.247788 161.231144 
L 276.470987 160.642688 
L 276.917387 160.322143 
L 277.140588 160.735161 
L 277.363788 160.297441 
L 277.810187 161.138532 
L 278.033388 160.905591 
L 278.256587 160.847207 
L 278.479787 161.136347 
L 278.702988 160.652517 
L 278.926188 161.140569 
L 279.149387 161.928999 
L 279.372588 161.375772 
L 279.595787 161.288224 
L 279.818987 161.464378 
L 280.042188 161.232929 
L 280.265388 161.33613 
L 280.488587 160.954052 
L 280.711788 161.945133 
L 280.934987 161.785127 
L 281.158187 161.421958 
L 281.381388 161.296287 
L 281.827787 162.297427 
L 282.497388 161.294969 
L 282.943788 162.434457 
L 283.166988 162.423794 
L 283.390188 162.634627 
L 283.613387 161.641448 
L 283.836588 161.940787 
L 284.059787 161.769085 
L 284.282987 161.996458 
L 284.506188 162.561312 
L 284.729388 162.186181 
L 284.952587 162.386423 
L 285.175788 162.74298 
L 285.398987 162.597141 
L 285.622187 162.733038 
L 286.068587 162.009734 
L 286.291787 162.142022 
L 286.738187 162.864238 
L 286.961387 163.657117 
L 287.407787 162.535688 
L 287.630988 162.786833 
L 287.854187 162.224259 
L 288.077387 162.389602 
L 288.300587 163.26576 
L 288.523787 162.991499 
L 288.746987 163.170495 
L 289.193387 162.656401 
L 289.416587 163.115906 
L 289.639787 162.961261 
L 290.086187 163.603056 
L 290.755787 162.159306 
L 291.202187 163.86718 
L 291.425387 163.79469 
L 291.648587 163.288217 
L 291.871787 163.095646 
L 292.094988 162.543561 
L 292.318187 163.572043 
L 292.541387 163.90301 
L 292.764587 163.388382 
L 292.987787 163.345666 
L 293.210987 163.037678 
L 293.434188 163.821982 
L 293.657387 163.307061 
L 293.880587 163.721335 
L 294.103787 163.264146 
L 294.326987 163.089837 
L 294.550187 163.589521 
L 294.773388 163.606852 
L 294.996587 163.365837 
L 295.219787 163.941505 
L 295.442987 163.058295 
L 295.889387 163.565747 
L 296.112587 164.219914 
L 296.335787 163.983113 
L 296.558988 163.215827 
L 296.782187 163.927983 
L 297.005387 163.334259 
L 297.228587 163.610037 
L 297.451787 163.498624 
L 297.674987 163.699171 
L 297.898188 164.349813 
L 298.121387 163.818935 
L 298.344587 163.74299 
L 298.790987 163.06192 
L 299.460587 164.200691 
L 299.683787 163.686099 
L 299.906987 163.707777 
L 300.130187 163.435744 
L 300.353387 163.951582 
L 301.022987 163.245403 
L 301.692587 164.25096 
L 301.915788 163.87961 
L 302.138987 163.825084 
L 302.362188 163.450555 
L 302.585387 163.483938 
L 302.808587 163.348961 
L 303.031787 163.404783 
L 303.701388 164.117497 
L 303.924587 163.979393 
L 304.817387 162.765396 
L 305.040588 163.872467 
L 305.263787 164.224117 
L 305.486987 164.290483 
L 305.710187 164.078037 
L 306.379788 162.699478 
L 306.602987 163.647918 
L 306.826188 163.529649 
L 307.049387 163.95504 
L 307.272587 164.645157 
L 307.495787 163.793341 
L 307.718988 163.443971 
L 307.942187 162.84576 
L 308.388587 163.775142 
L 308.611787 163.408949 
L 308.834987 163.398864 
L 309.058187 163.234271 
L 309.281387 163.780479 
L 309.504588 163.446961 
L 309.727787 163.787414 
L 309.950987 163.671186 
L 310.397387 162.975627 
L 310.620587 163.556956 
L 310.843788 163.309642 
L 311.066987 163.594972 
L 311.290188 163.203462 
L 311.513387 163.147841 
L 311.736587 163.650618 
L 311.959788 163.532465 
L 312.182988 163.143511 
L 312.406187 163.27699 
L 312.629388 162.631147 
L 312.852587 162.65182 
L 313.075787 163.616822 
L 313.745387 162.63891 
L 313.968588 162.792437 
L 314.414987 163.324727 
L 314.638187 162.686366 
L 314.861387 162.424988 
L 315.084587 162.398557 
L 315.307787 162.509805 
L 315.530987 163.414921 
L 315.754187 163.239998 
L 315.977387 162.51545 
L 316.423788 162.129453 
L 316.646987 162.154404 
L 316.870187 163.441316 
L 317.093387 162.977981 
L 317.316587 162.790359 
L 317.539787 161.882549 
L 318.209387 162.122463 
L 318.432587 162.649374 
L 318.655787 162.766441 
L 318.878987 162.103217 
L 319.325387 162.113499 
L 319.548587 161.758257 
L 319.771787 161.717049 
L 320.218187 162.280462 
L 320.441387 161.916858 
L 320.664587 161.772288 
L 320.887788 162.470086 
L 321.110987 161.787398 
L 321.557387 161.754166 
L 321.780587 162.048379 
L 322.003787 161.586373 
L 322.450187 161.627058 
L 322.673387 160.615235 
L 322.896587 160.909541 
L 323.119787 161.498435 
L 323.566188 161.075147 
L 323.789387 161.330014 
L 324.235787 160.180903 
L 324.458987 161.356435 
L 324.905387 160.977983 
L 325.128587 161.122974 
L 325.351788 160.875672 
L 325.574987 159.746711 
L 326.021387 160.503751 
L 326.244587 160.682274 
L 326.467787 161.473595 
L 326.690988 160.649485 
L 326.914187 160.504059 
L 327.360587 159.702259 
L 327.583787 159.858674 
L 327.806987 160.723316 
L 328.030188 160.677815 
L 328.922987 159.217018 
L 329.146187 160.169825 
L 329.369388 159.656544 
L 329.592587 159.793677 
L 330.262187 158.476588 
L 330.485387 159.392748 
L 330.708588 159.041939 
L 331.154988 160.0887 
L 331.601387 158.985775 
L 331.824587 158.661994 
L 332.270987 158.638987 
L 332.494188 158.611418 
L 332.717387 159.223809 
L 332.940587 159.480358 
L 333.163787 158.474148 
L 333.386987 158.593841 
L 333.610187 158.000606 
L 334.502987 158.712885 
L 334.726187 158.228829 
L 334.949388 158.112927 
L 335.172588 157.435253 
L 336.065387 157.48165 
L 336.288587 157.891035 
L 336.511788 157.84586 
L 336.734987 157.556909 
L 336.958188 158.370425 
L 337.627787 156.932127 
L 337.850987 157.169199 
L 338.520587 157.050897 
L 338.966987 156.697277 
L 339.413387 156.502419 
L 339.636588 156.845149 
L 339.859787 156.332547 
L 340.082988 156.140528 
L 340.306187 156.226645 
L 340.529387 156.187854 
L 340.752588 156.028586 
L 340.975788 156.211867 
L 341.198987 156.153397 
L 341.422188 156.321181 
L 341.645387 155.982589 
L 341.868587 155.369739 
L 342.091787 155.3118 
L 342.314988 155.971448 
L 342.761388 155.043165 
L 342.984587 155.589408 
L 343.207787 154.761788 
L 343.430987 155.754251 
L 343.654187 156.002574 
L 343.877387 155.171151 
L 344.100587 154.946639 
L 344.323787 154.358679 
L 344.546987 154.752208 
L 344.770187 154.338102 
L 344.993387 154.309512 
L 345.216588 153.823179 
L 345.662987 154.014603 
L 345.886187 155.0494 
L 346.332587 153.609861 
L 346.555788 153.810017 
L 347.002187 153.070587 
L 347.225387 153.442448 
L 348.118187 152.585604 
L 348.341387 153.040493 
L 348.564587 153.221861 
L 348.787787 153.239365 
L 349.010987 153.029956 
L 349.234187 153.32816 
L 349.457387 153.314608 
L 349.680588 152.990145 
L 349.903787 153.525215 
L 350.126987 152.326192 
L 350.350187 151.767832 
L 350.573387 151.789848 
L 351.019788 152.479414 
L 351.242987 151.653812 
L 351.466187 152.264831 
L 351.689387 151.830063 
L 351.912587 151.784175 
L 352.135787 151.5661 
L 352.358988 151.961045 
L 352.582187 151.434609 
L 352.805387 151.212782 
L 353.028587 150.66808 
L 353.251787 151.118907 
L 353.474987 151.013513 
L 353.698187 151.109258 
L 353.921387 150.593092 
L 354.367787 150.610902 
L 354.590987 149.844283 
L 354.814187 150.423452 
L 355.260587 150.109468 
L 355.483788 150.131782 
L 355.706987 149.848604 
L 355.930187 149.749806 
L 356.153387 149.855528 
L 356.376587 149.805806 
L 356.599787 150.329978 
L 356.822988 150.370092 
L 357.938987 148.379585 
L 358.162188 148.875276 
L 358.608587 147.965521 
L 359.054987 148.703561 
L 359.278187 148.898302 
L 359.501388 148.360446 
L 359.724587 148.567311 
L 359.947788 148.10902 
L 360.170987 148.670291 
L 360.394187 148.208339 
L 360.617387 148.135211 
L 360.840587 148.217483 
L 361.063787 148.143998 
L 361.733387 146.760101 
L 361.956587 146.790185 
L 362.402987 147.425124 
L 362.626188 147.758441 
L 362.849387 147.352461 
L 363.072587 147.362218 
L 363.518987 146.220533 
L 363.742187 146.371851 
L 363.742187 146.371851 
" clip-path="url(#p621c3d2ad7)" style="fill: none; stroke: #ff7f0e; stroke-width: 1.5; stroke-linecap: square"/>
   </g>
   <g id="line2d_16">
    <path d="M 29.165388 144.719929 
L 33.852587 144.60574 
L 38.539788 144.274804 
L 43.450187 143.699635 
L 48.360588 142.897559 
L 53.494188 141.826968 
L 58.850988 140.472071 
L 64.430988 138.823311 
L 70.457388 136.799955 
L 76.930188 134.387186 
L 84.518988 131.309554 
L 94.339787 127.067221 
L 115.766987 117.739497 
L 123.355787 114.723334 
L 129.828587 112.380063 
L 135.854987 110.434203 
L 141.434987 108.866942 
L 146.791787 107.597892 
L 151.925387 106.615407 
L 156.835788 105.901864 
L 161.746187 105.418305 
L 166.433387 105.176666 
L 171.120587 105.152587 
L 175.807788 105.346331 
L 180.494987 105.755764 
L 185.405388 106.411091 
L 190.315787 107.290247 
L 195.449388 108.437119 
L 200.806188 109.865852 
L 206.386188 111.584139 
L 212.412588 113.672889 
L 219.108587 116.232154 
L 227.143787 119.555673 
L 238.526988 124.534393 
L 254.150988 131.343542 
L 262.186187 134.591922 
L 268.882187 137.064542 
L 274.908588 139.058323 
L 280.488587 140.675873 
L 285.845387 141.99781 
L 290.978987 143.034501 
L 295.889387 143.802453 
L 300.799787 144.342254 
L 305.486987 144.638663 
L 310.174187 144.717963 
L 314.861387 144.579278 
L 319.548587 144.224137 
L 324.458987 143.624215 
L 329.369388 142.798297 
L 334.502987 141.704067 
L 339.859787 140.326239 
L 345.439787 138.655828 
L 351.466187 136.612034 
L 358.162188 134.093535 
L 363.742187 131.835 
L 363.742187 131.835 
" clip-path="url(#p621c3d2ad7)" style="fill: none; stroke: #2ca02c; stroke-width: 1.5; stroke-linecap: square"/>
   </g>
   <g id="patch_3">
    <path d="M 28.942188 253.44 
L 28.942188 36 
" style="fill: none; stroke: #000000; stroke-width: 0.8; stroke-linejoin: miter; stroke-linecap: square"/>
   </g>
   <g id="patch_4">
    <path d="M 363.742188 253.44 
L 363.742188 36 
" style="fill: none; stroke: #000000; stroke-width: 0.8; stroke-linejoin: miter; stroke-linecap: square"/>
   </g>
   <g id="patch_5">
    <path d="M 28.942188 253.44 
L 363.742187 253.44 
" style="fill: none; stroke: #000000; stroke-width: 0.8; stroke-linejoin: miter; stroke-linecap: square"/>
   </g>
   <g id="patch_6">
    <path d="M 28.942188 36 
L 363.742187 36 
" style="fill: none; stroke: #000000; stroke-width: 0.8; stroke-linejoin: miter; stroke-linecap: square"/>
   </g>
   <g id="legend_1">
    <g id="patch_7">
     <path d="M 35.942188 248.44 
L 132.942187 248.44 
Q 134.942187 248.44 134.942187 246.44 
L 134.942187 181.161875 
Q 134.942187 179.161875 132.942187 179.161875 
L 35.942188 179.161875 
Q 33.942188 179.161875 33.942188 181.161875 
L 33.942188 246.44 
Q 33.942188 248.44 35.942188 248.44 
z
" style="fill: #ffffff; opacity: 0.8; stroke: #cccccc; stroke-linejoin: miter"/>
    </g>
    <g id="line2d_17">
     <path d="M 37.942188 187.260312 
L 47.942188 187.260312 
L 57.942188 187.260312 
" style="fill: none; stroke: #1f77b4; stroke-width: 1.5; stroke-linecap: square"/>
    </g>
    <g id="text_14">
     <!-- $x(t)$ -->
     <g transform="translate(65.942188 190.760312) scale(0.1 -0.1)">
      <defs>
       <path id="DejaVuSans-Oblique-78" d="M 3841 3500 
L 2234 1784 
L 3219 0 
L 2559 0 
L 1819 1388 
L 531 0 
L -166 0 
L 1556 1844 
L 641 3500 
L 1300 3500 
L 1972 2234 
L 3144 3500 
L 3841 3500 
z
" transform="scale(0.015625)"/>
       <path id="DejaVuSans-28" d="M 1984 4856 
Q 1566 4138 1362 3434 
Q 1159 2731 1159 2009 
Q 1159 1288 1364 580 
Q 1569 -128 1984 -844 
L 1484 -844 
Q 1016 -109 783 600 
Q 550 1309 550 2009 
Q 550 2706 781 3412 
Q 1013 4119 1484 4856 
L 1984 4856 
z
" transform="scale(0.015625)"/>
       <path id="DejaVuSans-Oblique-74" d="M 2706 3500 
L 2619 3053 
L 1472 3053 
L 1100 1153 
Q 1081 1047 1072 975 
Q 1063 903 1063 863 
Q 1063 663 1183 572 
Q 1303 481 1569 481 
L 2150 481 
L 2053 0 
L 1503 0 
Q 991 0 739 200 
Q 488 400 488 806 
Q 488 878 497 964 
Q 506 1050 525 1153 
L 897 3053 
L 409 3053 
L 500 3500 
L 978 3500 
L 1172 4494 
L 1747 4494 
L 1556 3500 
L 2706 3500 
z
" transform="scale(0.015625)"/>
       <path id="DejaVuSans-29" d="M 513 4856 
L 1013 4856 
Q 1481 4119 1714 3412 
Q 1947 2706 1947 2009 
Q 1947 1309 1714 600 
Q 1481 -109 1013 -844 
L 513 -844 
Q 928 -128 1133 580 
Q 1338 1288 1338 2009 
Q 1338 2731 1133 3434 
Q 928 4138 513 4856 
z
" transform="scale(0.015625)"/>
      </defs>
      <use xlink:href="#DejaVuSans-Oblique-78" transform="translate(0 0.125)"/>
      <use xlink:href="#DejaVuSans-28" transform="translate(59.179688 0.125)"/>
      <use xlink:href="#DejaVuSans-Oblique-74" transform="translate(98.193359 0.125)"/>
      <use xlink:href="#DejaVuSans-29" transform="translate(137.402344 0.125)"/>
     </g>
    </g>
    <g id="line2d_18">
     <path d="M 37.942188 211.64 
L 47.942188 211.64 
L 57.942188 211.64 
" style="fill: none; stroke: #ff7f0e; stroke-width: 1.5; stroke-linecap: square"/>
    </g>
    <g id="text_15">
     <!-- $\hat{\int_{0}^{1.5}{x(t)}}$ -->
     <g transform="translate(65.942188 215.14) scale(0.1 -0.1)">
      <defs>
       <path id="DejaVuSans-302" d="M -1831 5119 
L -1369 5119 
L -603 3944 
L -1038 3944 
L -1600 4709 
L -2163 3944 
L -2597 3944 
L -1831 5119 
z
M -1600 3584 
L -1600 3584 
z
" transform="scale(0.015625)"/>
       <path id="DejaVuSansDisplay-222b" d="M 2134 5525 
Q 2172 6263 2528 6556 
Q 2884 6850 3218 6850 
Q 3553 6850 3833 6575 
Q 4113 6300 4200 5678 
L 3544 5613 
Q 3469 6188 3219 6188 
Q 2906 6188 2869 5413 
L 2581 -597 
Q 2547 -1334 2187 -1628 
Q 1828 -1922 1497 -1922 
Q 1163 -1922 883 -1647 
Q 603 -1372 516 -750 
L 1172 -684 
Q 1247 -1259 1497 -1259 
Q 1809 -1259 1847 -488 
L 2134 5525 
z
" transform="scale(0.015625)"/>
       <path id="DejaVuSans-35" d="M 691 4666 
L 3169 4666 
L 3169 4134 
L 1269 4134 
L 1269 2991 
Q 1406 3038 1543 3061 
Q 1681 3084 1819 3084 
Q 2600 3084 3056 2656 
Q 3513 2228 3513 1497 
Q 3513 744 3044 326 
Q 2575 -91 1722 -91 
Q 1428 -91 1123 -41 
Q 819 9 494 109 
L 494 744 
Q 775 591 1075 516 
Q 1375 441 1709 441 
Q 2250 441 2565 725 
Q 2881 1009 2881 1497 
Q 2881 1984 2565 2268 
Q 2250 2553 1709 2553 
Q 1456 2553 1204 2497 
Q 953 2441 691 2322 
L 691 4666 
z
" transform="scale(0.015625)"/>
      </defs>
      <use xlink:href="#DejaVuSans-302" transform="translate(259.198975 93.015625)"/>
      <use xlink:href="#DejaVuSansDisplay-222b" transform="translate(0 0.325)"/>
      <use xlink:href="#DejaVuSans-31" transform="translate(86.744141 85.48125) scale(0.7)"/>
      <use xlink:href="#DejaVuSans-2e" transform="translate(131.280273 85.48125) scale(0.7)"/>
      <use xlink:href="#DejaVuSans-35" transform="translate(153.53125 85.48125) scale(0.7)"/>
      <use xlink:href="#DejaVuSans-30" transform="translate(71.759766 -51.58125) scale(0.7)"/>
      <use xlink:href="#DejaVuSans-Oblique-78" transform="translate(198.067383 0.325)"/>
      <use xlink:href="#DejaVuSans-28" transform="translate(257.24707 0.325)"/>
      <use xlink:href="#DejaVuSans-Oblique-74" transform="translate(296.260742 0.325)"/>
      <use xlink:href="#DejaVuSans-29" transform="translate(335.469727 0.325)"/>
     </g>
    </g>
    <g id="line2d_19">
     <path d="M 37.942188 235.64 
L 47.942188 235.64 
L 57.942188 235.64 
" style="fill: none; stroke: #2ca02c; stroke-width: 1.5; stroke-linecap: square"/>
    </g>
    <g id="text_16">
     <!-- Ideal $\int_{0}^{1.5}{x(t)}}$ -->
     <g transform="translate(65.942188 239.14) scale(0.1 -0.1)">
      <defs>
       <path id="DejaVuSans-49" d="M 628 4666 
L 1259 4666 
L 1259 0 
L 628 0 
L 628 4666 
z
" transform="scale(0.015625)"/>
       <path id="DejaVuSans-64" d="M 2906 2969 
L 2906 4863 
L 3481 4863 
L 3481 0 
L 2906 0 
L 2906 525 
Q 2725 213 2448 61 
Q 2172 -91 1784 -91 
Q 1150 -91 751 415 
Q 353 922 353 1747 
Q 353 2572 751 3078 
Q 1150 3584 1784 3584 
Q 2172 3584 2448 3432 
Q 2725 3281 2906 2969 
z
M 947 1747 
Q 947 1113 1208 752 
Q 1469 391 1925 391 
Q 2381 391 2643 752 
Q 2906 1113 2906 1747 
Q 2906 2381 2643 2742 
Q 2381 3103 1925 3103 
Q 1469 3103 1208 2742 
Q 947 2381 947 1747 
z
" transform="scale(0.015625)"/>
       <path id="DejaVuSans-65" d="M 3597 1894 
L 3597 1613 
L 953 1613 
Q 991 1019 1311 708 
Q 1631 397 2203 397 
Q 2534 397 2845 478 
Q 3156 559 3463 722 
L 3463 178 
Q 3153 47 2828 -22 
Q 2503 -91 2169 -91 
Q 1331 -91 842 396 
Q 353 884 353 1716 
Q 353 2575 817 3079 
Q 1281 3584 2069 3584 
Q 2775 3584 3186 3129 
Q 3597 2675 3597 1894 
z
M 3022 2063 
Q 3016 2534 2758 2815 
Q 2500 3097 2075 3097 
Q 1594 3097 1305 2825 
Q 1016 2553 972 2059 
L 3022 2063 
z
" transform="scale(0.015625)"/>
       <path id="DejaVuSans-61" d="M 2194 1759 
Q 1497 1759 1228 1600 
Q 959 1441 959 1056 
Q 959 750 1161 570 
Q 1363 391 1709 391 
Q 2188 391 2477 730 
Q 2766 1069 2766 1631 
L 2766 1759 
L 2194 1759 
z
M 3341 1997 
L 3341 0 
L 2766 0 
L 2766 531 
Q 2569 213 2275 61 
Q 1981 -91 1556 -91 
Q 1019 -91 701 211 
Q 384 513 384 1019 
Q 384 1609 779 1909 
Q 1175 2209 1959 2209 
L 2766 2209 
L 2766 2266 
Q 2766 2663 2505 2880 
Q 2244 3097 1772 3097 
Q 1472 3097 1187 3025 
Q 903 2953 641 2809 
L 641 3341 
Q 956 3463 1253 3523 
Q 1550 3584 1831 3584 
Q 2591 3584 2966 3190 
Q 3341 2797 3341 1997 
z
" transform="scale(0.015625)"/>
       <path id="DejaVuSans-6c" d="M 603 4863 
L 1178 4863 
L 1178 0 
L 603 0 
L 603 4863 
z
" transform="scale(0.015625)"/>
       <path id="DejaVuSans-20" transform="scale(0.015625)"/>
      </defs>
      <use xlink:href="#DejaVuSans-49" transform="translate(0 0.809375)"/>
      <use xlink:href="#DejaVuSans-64" transform="translate(29.492188 0.809375)"/>
      <use xlink:href="#DejaVuSans-65" transform="translate(92.96875 0.809375)"/>
      <use xlink:href="#DejaVuSans-61" transform="translate(154.492188 0.809375)"/>
      <use xlink:href="#DejaVuSans-6c" transform="translate(215.771484 0.809375)"/>
      <use xlink:href="#DejaVuSans-20" transform="translate(243.554688 0.809375)"/>
      <use xlink:href="#DejaVuSansDisplay-222b" transform="translate(275.341797 0.809375)"/>
      <use xlink:href="#DejaVuSans-31" transform="translate(362.085938 85.965625) scale(0.7)"/>
      <use xlink:href="#DejaVuSans-2e" transform="translate(406.62207 85.965625) scale(0.7)"/>
      <use xlink:href="#DejaVuSans-35" transform="translate(428.873047 85.965625) scale(0.7)"/>
      <use xlink:href="#DejaVuSans-30" transform="translate(347.101562 -51.096875) scale(0.7)"/>
      <use xlink:href="#DejaVuSans-Oblique-78" transform="translate(473.40918 0.809375)"/>
      <use xlink:href="#DejaVuSans-28" transform="translate(532.588867 0.809375)"/>
      <use xlink:href="#DejaVuSans-Oblique-74" transform="translate(571.602539 0.809375)"/>
      <use xlink:href="#DejaVuSans-29" transform="translate(610.811523 0.809375)"/>
     </g>
    </g>
   </g>
  </g>
  <g id="text_17">
   <!-- Neural Integrator for a sinusoidal Input -->
   <g transform="translate(74.078125 16.318125) scale(0.12 -0.12)">
    <defs>
     <path id="DejaVuSans-4e" d="M 628 4666 
L 1478 4666 
L 3547 763 
L 3547 4666 
L 4159 4666 
L 4159 0 
L 3309 0 
L 1241 3903 
L 1241 0 
L 628 0 
L 628 4666 
z
" transform="scale(0.015625)"/>
     <path id="DejaVuSans-75" d="M 544 1381 
L 544 3500 
L 1119 3500 
L 1119 1403 
Q 1119 906 1312 657 
Q 1506 409 1894 409 
Q 2359 409 2629 706 
Q 2900 1003 2900 1516 
L 2900 3500 
L 3475 3500 
L 3475 0 
L 2900 0 
L 2900 538 
Q 2691 219 2414 64 
Q 2138 -91 1772 -91 
Q 1169 -91 856 284 
Q 544 659 544 1381 
z
M 1991 3584 
L 1991 3584 
z
" transform="scale(0.015625)"/>
     <path id="DejaVuSans-72" d="M 2631 2963 
Q 2534 3019 2420 3045 
Q 2306 3072 2169 3072 
Q 1681 3072 1420 2755 
Q 1159 2438 1159 1844 
L 1159 0 
L 581 0 
L 581 3500 
L 1159 3500 
L 1159 2956 
Q 1341 3275 1631 3429 
Q 1922 3584 2338 3584 
Q 2397 3584 2469 3576 
Q 2541 3569 2628 3553 
L 2631 2963 
z
" transform="scale(0.015625)"/>
     <path id="DejaVuSans-6e" d="M 3513 2113 
L 3513 0 
L 2938 0 
L 2938 2094 
Q 2938 2591 2744 2837 
Q 2550 3084 2163 3084 
Q 1697 3084 1428 2787 
Q 1159 2491 1159 1978 
L 1159 0 
L 581 0 
L 581 3500 
L 1159 3500 
L 1159 2956 
Q 1366 3272 1645 3428 
Q 1925 3584 2291 3584 
Q 2894 3584 3203 3211 
Q 3513 2838 3513 2113 
z
" transform="scale(0.015625)"/>
     <path id="DejaVuSans-74" d="M 1172 4494 
L 1172 3500 
L 2356 3500 
L 2356 3053 
L 1172 3053 
L 1172 1153 
Q 1172 725 1289 603 
Q 1406 481 1766 481 
L 2356 481 
L 2356 0 
L 1766 0 
Q 1100 0 847 248 
Q 594 497 594 1153 
L 594 3053 
L 172 3053 
L 172 3500 
L 594 3500 
L 594 4494 
L 1172 4494 
z
" transform="scale(0.015625)"/>
     <path id="DejaVuSans-67" d="M 2906 1791 
Q 2906 2416 2648 2759 
Q 2391 3103 1925 3103 
Q 1463 3103 1205 2759 
Q 947 2416 947 1791 
Q 947 1169 1205 825 
Q 1463 481 1925 481 
Q 2391 481 2648 825 
Q 2906 1169 2906 1791 
z
M 3481 434 
Q 3481 -459 3084 -895 
Q 2688 -1331 1869 -1331 
Q 1566 -1331 1297 -1286 
Q 1028 -1241 775 -1147 
L 775 -588 
Q 1028 -725 1275 -790 
Q 1522 -856 1778 -856 
Q 2344 -856 2625 -561 
Q 2906 -266 2906 331 
L 2906 616 
Q 2728 306 2450 153 
Q 2172 0 1784 0 
Q 1141 0 747 490 
Q 353 981 353 1791 
Q 353 2603 747 3093 
Q 1141 3584 1784 3584 
Q 2172 3584 2450 3431 
Q 2728 3278 2906 2969 
L 2906 3500 
L 3481 3500 
L 3481 434 
z
" transform="scale(0.015625)"/>
     <path id="DejaVuSans-6f" d="M 1959 3097 
Q 1497 3097 1228 2736 
Q 959 2375 959 1747 
Q 959 1119 1226 758 
Q 1494 397 1959 397 
Q 2419 397 2687 759 
Q 2956 1122 2956 1747 
Q 2956 2369 2687 2733 
Q 2419 3097 1959 3097 
z
M 1959 3584 
Q 2709 3584 3137 3096 
Q 3566 2609 3566 1747 
Q 3566 888 3137 398 
Q 2709 -91 1959 -91 
Q 1206 -91 779 398 
Q 353 888 353 1747 
Q 353 2609 779 3096 
Q 1206 3584 1959 3584 
z
" transform="scale(0.015625)"/>
     <path id="DejaVuSans-66" d="M 2375 4863 
L 2375 4384 
L 1825 4384 
Q 1516 4384 1395 4259 
Q 1275 4134 1275 3809 
L 1275 3500 
L 2222 3500 
L 2222 3053 
L 1275 3053 
L 1275 0 
L 697 0 
L 697 3053 
L 147 3053 
L 147 3500 
L 697 3500 
L 697 3744 
Q 697 4328 969 4595 
Q 1241 4863 1831 4863 
L 2375 4863 
z
" transform="scale(0.015625)"/>
     <path id="DejaVuSans-73" d="M 2834 3397 
L 2834 2853 
Q 2591 2978 2328 3040 
Q 2066 3103 1784 3103 
Q 1356 3103 1142 2972 
Q 928 2841 928 2578 
Q 928 2378 1081 2264 
Q 1234 2150 1697 2047 
L 1894 2003 
Q 2506 1872 2764 1633 
Q 3022 1394 3022 966 
Q 3022 478 2636 193 
Q 2250 -91 1575 -91 
Q 1294 -91 989 -36 
Q 684 19 347 128 
L 347 722 
Q 666 556 975 473 
Q 1284 391 1588 391 
Q 1994 391 2212 530 
Q 2431 669 2431 922 
Q 2431 1156 2273 1281 
Q 2116 1406 1581 1522 
L 1381 1569 
Q 847 1681 609 1914 
Q 372 2147 372 2553 
Q 372 3047 722 3315 
Q 1072 3584 1716 3584 
Q 2034 3584 2315 3537 
Q 2597 3491 2834 3397 
z
" transform="scale(0.015625)"/>
     <path id="DejaVuSans-69" d="M 603 3500 
L 1178 3500 
L 1178 0 
L 603 0 
L 603 3500 
z
M 603 4863 
L 1178 4863 
L 1178 4134 
L 603 4134 
L 603 4863 
z
" transform="scale(0.015625)"/>
     <path id="DejaVuSans-70" d="M 1159 525 
L 1159 -1331 
L 581 -1331 
L 581 3500 
L 1159 3500 
L 1159 2969 
Q 1341 3281 1617 3432 
Q 1894 3584 2278 3584 
Q 2916 3584 3314 3078 
Q 3713 2572 3713 1747 
Q 3713 922 3314 415 
Q 2916 -91 2278 -91 
Q 1894 -91 1617 61 
Q 1341 213 1159 525 
z
M 3116 1747 
Q 3116 2381 2855 2742 
Q 2594 3103 2138 3103 
Q 1681 3103 1420 2742 
Q 1159 2381 1159 1747 
Q 1159 1113 1420 752 
Q 1681 391 2138 391 
Q 2594 391 2855 752 
Q 3116 1113 3116 1747 
z
" transform="scale(0.015625)"/>
    </defs>
    <use xlink:href="#DejaVuSans-4e"/>
    <use xlink:href="#DejaVuSans-65" x="74.804688"/>
    <use xlink:href="#DejaVuSans-75" x="136.328125"/>
    <use xlink:href="#DejaVuSans-72" x="199.707031"/>
    <use xlink:href="#DejaVuSans-61" x="240.820312"/>
    <use xlink:href="#DejaVuSans-6c" x="302.099609"/>
    <use xlink:href="#DejaVuSans-20" x="329.882812"/>
    <use xlink:href="#DejaVuSans-49" x="361.669922"/>
    <use xlink:href="#DejaVuSans-6e" x="391.162109"/>
    <use xlink:href="#DejaVuSans-74" x="454.541016"/>
    <use xlink:href="#DejaVuSans-65" x="493.75"/>
    <use xlink:href="#DejaVuSans-67" x="555.273438"/>
    <use xlink:href="#DejaVuSans-72" x="618.75"/>
    <use xlink:href="#DejaVuSans-61" x="659.863281"/>
    <use xlink:href="#DejaVuSans-74" x="721.142578"/>
    <use xlink:href="#DejaVuSans-6f" x="760.351562"/>
    <use xlink:href="#DejaVuSans-72" x="821.533203"/>
    <use xlink:href="#DejaVuSans-20" x="862.646484"/>
    <use xlink:href="#DejaVuSans-66" x="894.433594"/>
    <use xlink:href="#DejaVuSans-6f" x="929.638672"/>
    <use xlink:href="#DejaVuSans-72" x="990.820312"/>
    <use xlink:href="#DejaVuSans-20" x="1031.933594"/>
    <use xlink:href="#DejaVuSans-61" x="1063.720703"/>
    <use xlink:href="#DejaVuSans-20" x="1125"/>
    <use xlink:href="#DejaVuSans-73" x="1156.787109"/>
    <use xlink:href="#DejaVuSans-69" x="1208.886719"/>
    <use xlink:href="#DejaVuSans-6e" x="1236.669922"/>
    <use xlink:href="#DejaVuSans-75" x="1300.048828"/>
    <use xlink:href="#DejaVuSans-73" x="1363.427734"/>
    <use xlink:href="#DejaVuSans-6f" x="1415.527344"/>
    <use xlink:href="#DejaVuSans-69" x="1476.708984"/>
    <use xlink:href="#DejaVuSans-64" x="1504.492188"/>
    <use xlink:href="#DejaVuSans-61" x="1567.96875"/>
    <use xlink:href="#DejaVuSans-6c" x="1629.248047"/>
    <use xlink:href="#DejaVuSans-20" x="1657.03125"/>
    <use xlink:href="#DejaVuSans-49" x="1688.818359"/>
    <use xlink:href="#DejaVuSans-6e" x="1718.310547"/>
    <use xlink:href="#DejaVuSans-70" x="1781.689453"/>
    <use xlink:href="#DejaVuSans-75" x="1845.166016"/>
    <use xlink:href="#DejaVuSans-74" x="1908.544922"/>
   </g>
  </g>
 </g>
 <defs>
  <clipPath id="p621c3d2ad7">
   <rect x="28.942188" y="36" width="334.8" height="217.44"/>
  </clipPath>
 </defs>
</svg>
