<?xml version="1.0" encoding="utf-8" standalone="no"?>
<!DOCTYPE svg PUBLIC "-//W3C//DTD SVG 1.1//EN"
  "http://www.w3.org/Graphics/SVG/1.1/DTD/svg11.dtd">
<svg xmlns:xlink="http://www.w3.org/1999/xlink" width="370.942187pt" height="277.318125pt" viewBox="0 0 370.942187 277.318125" xmlns="http://www.w3.org/2000/svg" version="1.1">
 <metadata>
  <rdf:RDF xmlns:dc="http://purl.org/dc/elements/1.1/" xmlns:cc="http://creativecommons.org/ns#" xmlns:rdf="http://www.w3.org/1999/02/22-rdf-syntax-ns#">
   <cc:Work>
    <dc:type rdf:resource="http://purl.org/dc/dcmitype/StillImage"/>
    <dc:date>2022-11-14T18:34:06.119918</dc:date>
    <dc:format>image/svg+xml</dc:format>
    <dc:creator>
     <cc:Agent>
      <dc:title>Matplotlib v3.6.0, https://matplotlib.org/</dc:title>
     </cc:Agent>
    </dc:creator>
   </cc:Work>
  </rdf:RDF>
 </metadata>
 <defs>
  <style type="text/css">*{stroke-linejoin: round; stroke-linecap: butt}</style>
 </defs>
 <g id="figure_1">
  <g id="patch_1">
   <path d="M 0 277.318125 
L 370.942187 277.318125 
L 370.942187 0 
L 0 0 
L 0 277.318125 
z
" style="fill: none"/>
  </g>
  <g id="axes_1">
   <g id="patch_2">
    <path d="M 28.942188 253.44 
L 363.742188 253.44 
L 363.742188 36 
L 28.942188 36 
z
" style="fill: #ffffff"/>
   </g>
   <g id="matplotlib.axis_1">
    <g id="xtick_1">
     <g id="line2d_1">
      <defs>
       <path id="m1184e7606c" d="M 0 0 
L 0 3.5 
" style="stroke: #000000; stroke-width: 0.8"/>
      </defs>
      <g>
       <use xlink:href="#m1184e7606c" x="43.795602" y="253.44" style="stroke: #000000; stroke-width: 0.8"/>
      </g>
     </g>
     <g id="text_1">
      <!-- −4 -->
      <g transform="translate(36.424508 268.038437) scale(0.1 -0.1)">
       <defs>
        <path id="DejaVuSans-2212" d="M 678 2272 
L 4684 2272 
L 4684 1741 
L 678 1741 
L 678 2272 
z
" transform="scale(0.015625)"/>
        <path id="DejaVuSans-34" d="M 2419 4116 
L 825 1625 
L 2419 1625 
L 2419 4116 
z
M 2253 4666 
L 3047 4666 
L 3047 1625 
L 3713 1625 
L 3713 1100 
L 3047 1100 
L 3047 0 
L 2419 0 
L 2419 1100 
L 313 1100 
L 313 1709 
L 2253 4666 
z
" transform="scale(0.015625)"/>
       </defs>
       <use xlink:href="#DejaVuSans-2212"/>
       <use xlink:href="#DejaVuSans-34" x="83.789062"/>
      </g>
     </g>
    </g>
    <g id="xtick_2">
     <g id="line2d_2">
      <g>
       <use xlink:href="#m1184e7606c" x="81.905174" y="253.44" style="stroke: #000000; stroke-width: 0.8"/>
      </g>
     </g>
     <g id="text_2">
      <!-- −3 -->
      <g transform="translate(74.53408 268.038437) scale(0.1 -0.1)">
       <defs>
        <path id="DejaVuSans-33" d="M 2597 2516 
Q 3050 2419 3304 2112 
Q 3559 1806 3559 1356 
Q 3559 666 3084 287 
Q 2609 -91 1734 -91 
Q 1441 -91 1130 -33 
Q 819 25 488 141 
L 488 750 
Q 750 597 1062 519 
Q 1375 441 1716 441 
Q 2309 441 2620 675 
Q 2931 909 2931 1356 
Q 2931 1769 2642 2001 
Q 2353 2234 1838 2234 
L 1294 2234 
L 1294 2753 
L 1863 2753 
Q 2328 2753 2575 2939 
Q 2822 3125 2822 3475 
Q 2822 3834 2567 4026 
Q 2313 4219 1838 4219 
Q 1578 4219 1281 4162 
Q 984 4106 628 3988 
L 628 4550 
Q 988 4650 1302 4700 
Q 1616 4750 1894 4750 
Q 2613 4750 3031 4423 
Q 3450 4097 3450 3541 
Q 3450 3153 3228 2886 
Q 3006 2619 2597 2516 
z
" transform="scale(0.015625)"/>
       </defs>
       <use xlink:href="#DejaVuSans-2212"/>
       <use xlink:href="#DejaVuSans-33" x="83.789062"/>
      </g>
     </g>
    </g>
    <g id="xtick_3">
     <g id="line2d_3">
      <g>
       <use xlink:href="#m1184e7606c" x="120.014746" y="253.44" style="stroke: #000000; stroke-width: 0.8"/>
      </g>
     </g>
     <g id="text_3">
      <!-- −2 -->
      <g transform="translate(112.643652 268.038437) scale(0.1 -0.1)">
       <defs>
        <path id="DejaVuSans-32" d="M 1228 531 
L 3431 531 
L 3431 0 
L 469 0 
L 469 531 
Q 828 903 1448 1529 
Q 2069 2156 2228 2338 
Q 2531 2678 2651 2914 
Q 2772 3150 2772 3378 
Q 2772 3750 2511 3984 
Q 2250 4219 1831 4219 
Q 1534 4219 1204 4116 
Q 875 4013 500 3803 
L 500 4441 
Q 881 4594 1212 4672 
Q 1544 4750 1819 4750 
Q 2544 4750 2975 4387 
Q 3406 4025 3406 3419 
Q 3406 3131 3298 2873 
Q 3191 2616 2906 2266 
Q 2828 2175 2409 1742 
Q 1991 1309 1228 531 
z
" transform="scale(0.015625)"/>
       </defs>
       <use xlink:href="#DejaVuSans-2212"/>
       <use xlink:href="#DejaVuSans-32" x="83.789062"/>
      </g>
     </g>
    </g>
    <g id="xtick_4">
     <g id="line2d_4">
      <g>
       <use xlink:href="#m1184e7606c" x="158.124318" y="253.44" style="stroke: #000000; stroke-width: 0.8"/>
      </g>
     </g>
     <g id="text_4">
      <!-- −1 -->
      <g transform="translate(150.753224 268.038437) scale(0.1 -0.1)">
       <defs>
        <path id="DejaVuSans-31" d="M 794 531 
L 1825 531 
L 1825 4091 
L 703 3866 
L 703 4441 
L 1819 4666 
L 2450 4666 
L 2450 531 
L 3481 531 
L 3481 0 
L 794 0 
L 794 531 
z
" transform="scale(0.015625)"/>
       </defs>
       <use xlink:href="#DejaVuSans-2212"/>
       <use xlink:href="#DejaVuSans-31" x="83.789062"/>
      </g>
     </g>
    </g>
    <g id="xtick_5">
     <g id="line2d_5">
      <g>
       <use xlink:href="#m1184e7606c" x="196.23389" y="253.44" style="stroke: #000000; stroke-width: 0.8"/>
      </g>
     </g>
     <g id="text_5">
      <!-- 0 -->
      <g transform="translate(193.05264 268.038437) scale(0.1 -0.1)">
       <defs>
        <path id="DejaVuSans-30" d="M 2034 4250 
Q 1547 4250 1301 3770 
Q 1056 3291 1056 2328 
Q 1056 1369 1301 889 
Q 1547 409 2034 409 
Q 2525 409 2770 889 
Q 3016 1369 3016 2328 
Q 3016 3291 2770 3770 
Q 2525 4250 2034 4250 
z
M 2034 4750 
Q 2819 4750 3233 4129 
Q 3647 3509 3647 2328 
Q 3647 1150 3233 529 
Q 2819 -91 2034 -91 
Q 1250 -91 836 529 
Q 422 1150 422 2328 
Q 422 3509 836 4129 
Q 1250 4750 2034 4750 
z
" transform="scale(0.015625)"/>
       </defs>
       <use xlink:href="#DejaVuSans-30"/>
      </g>
     </g>
    </g>
    <g id="xtick_6">
     <g id="line2d_6">
      <g>
       <use xlink:href="#m1184e7606c" x="234.343462" y="253.44" style="stroke: #000000; stroke-width: 0.8"/>
      </g>
     </g>
     <g id="text_6">
      <!-- 1 -->
      <g transform="translate(231.162212 268.038437) scale(0.1 -0.1)">
       <use xlink:href="#DejaVuSans-31"/>
      </g>
     </g>
    </g>
    <g id="xtick_7">
     <g id="line2d_7">
      <g>
       <use xlink:href="#m1184e7606c" x="272.453034" y="253.44" style="stroke: #000000; stroke-width: 0.8"/>
      </g>
     </g>
     <g id="text_7">
      <!-- 2 -->
      <g transform="translate(269.271784 268.038437) scale(0.1 -0.1)">
       <use xlink:href="#DejaVuSans-32"/>
      </g>
     </g>
    </g>
    <g id="xtick_8">
     <g id="line2d_8">
      <g>
       <use xlink:href="#m1184e7606c" x="310.562606" y="253.44" style="stroke: #000000; stroke-width: 0.8"/>
      </g>
     </g>
     <g id="text_8">
      <!-- 3 -->
      <g transform="translate(307.381356 268.038437) scale(0.1 -0.1)">
       <use xlink:href="#DejaVuSans-33"/>
      </g>
     </g>
    </g>
    <g id="xtick_9">
     <g id="line2d_9">
      <g>
       <use xlink:href="#m1184e7606c" x="348.672177" y="253.44" style="stroke: #000000; stroke-width: 0.8"/>
      </g>
     </g>
     <g id="text_9">
      <!-- 4 -->
      <g transform="translate(345.490927 268.038437) scale(0.1 -0.1)">
       <use xlink:href="#DejaVuSans-34"/>
      </g>
     </g>
    </g>
   </g>
   <g id="matplotlib.axis_2">
    <g id="ytick_1">
     <g id="line2d_10">
      <defs>
       <path id="mc54de00372" d="M 0 0 
L -3.5 0 
" style="stroke: #000000; stroke-width: 0.8"/>
      </defs>
      <g>
       <use xlink:href="#mc54de00372" x="28.942188" y="244.257519" style="stroke: #000000; stroke-width: 0.8"/>
      </g>
     </g>
     <g id="text_10">
      <!-- −4 -->
      <g transform="translate(7.2 248.056738) scale(0.1 -0.1)">
       <use xlink:href="#DejaVuSans-2212"/>
       <use xlink:href="#DejaVuSans-34" x="83.789062"/>
      </g>
     </g>
    </g>
    <g id="ytick_2">
     <g id="line2d_11">
      <g>
       <use xlink:href="#mc54de00372" x="28.942188" y="219.334038" style="stroke: #000000; stroke-width: 0.8"/>
      </g>
     </g>
     <g id="text_11">
      <!-- −3 -->
      <g transform="translate(7.2 223.133257) scale(0.1 -0.1)">
       <use xlink:href="#DejaVuSans-2212"/>
       <use xlink:href="#DejaVuSans-33" x="83.789062"/>
      </g>
     </g>
    </g>
    <g id="ytick_3">
     <g id="line2d_12">
      <g>
       <use xlink:href="#mc54de00372" x="28.942188" y="194.410557" style="stroke: #000000; stroke-width: 0.8"/>
      </g>
     </g>
     <g id="text_12">
      <!-- −2 -->
      <g transform="translate(7.2 198.209775) scale(0.1 -0.1)">
       <use xlink:href="#DejaVuSans-2212"/>
       <use xlink:href="#DejaVuSans-32" x="83.789062"/>
      </g>
     </g>
    </g>
    <g id="ytick_4">
     <g id="line2d_13">
      <g>
       <use xlink:href="#mc54de00372" x="28.942188" y="169.487075" style="stroke: #000000; stroke-width: 0.8"/>
      </g>
     </g>
     <g id="text_13">
      <!-- −1 -->
      <g transform="translate(7.2 173.286294) scale(0.1 -0.1)">
       <use xlink:href="#DejaVuSans-2212"/>
       <use xlink:href="#DejaVuSans-31" x="83.789062"/>
      </g>
     </g>
    </g>
    <g id="ytick_5">
     <g id="line2d_14">
      <g>
       <use xlink:href="#mc54de00372" x="28.942188" y="144.563594" style="stroke: #000000; stroke-width: 0.8"/>
      </g>
     </g>
     <g id="text_14">
      <!-- 0 -->
      <g transform="translate(15.579688 148.362813) scale(0.1 -0.1)">
       <use xlink:href="#DejaVuSans-30"/>
      </g>
     </g>
    </g>
    <g id="ytick_6">
     <g id="line2d_15">
      <g>
       <use xlink:href="#mc54de00372" x="28.942188" y="119.640113" style="stroke: #000000; stroke-width: 0.8"/>
      </g>
     </g>
     <g id="text_15">
      <!-- 1 -->
      <g transform="translate(15.579688 123.439332) scale(0.1 -0.1)">
       <use xlink:href="#DejaVuSans-31"/>
      </g>
     </g>
    </g>
    <g id="ytick_7">
     <g id="line2d_16">
      <g>
       <use xlink:href="#mc54de00372" x="28.942188" y="94.716631" style="stroke: #000000; stroke-width: 0.8"/>
      </g>
     </g>
     <g id="text_16">
      <!-- 2 -->
      <g transform="translate(15.579688 98.51585) scale(0.1 -0.1)">
       <use xlink:href="#DejaVuSans-32"/>
      </g>
     </g>
    </g>
    <g id="ytick_8">
     <g id="line2d_17">
      <g>
       <use xlink:href="#mc54de00372" x="28.942188" y="69.79315" style="stroke: #000000; stroke-width: 0.8"/>
      </g>
     </g>
     <g id="text_17">
      <!-- 3 -->
      <g transform="translate(15.579688 73.592369) scale(0.1 -0.1)">
       <use xlink:href="#DejaVuSans-33"/>
      </g>
     </g>
    </g>
    <g id="ytick_9">
     <g id="line2d_18">
      <g>
       <use xlink:href="#mc54de00372" x="28.942188" y="44.869669" style="stroke: #000000; stroke-width: 0.8"/>
      </g>
     </g>
     <g id="text_18">
      <!-- 4 -->
      <g transform="translate(15.579688 48.668888) scale(0.1 -0.1)">
       <use xlink:href="#DejaVuSans-34"/>
      </g>
     </g>
    </g>
   </g>
   <g id="line2d_19">
    <path d="M 265.597577 99.305478 
L 254.215518 106.553493 
L 279.418649 90.379726 
L 200.557241 141.533334 
L 345.271989 47.600882 
L 313.971327 67.575371 
L 51.477407 238.942831 
L 345.678491 47.393018 
L 179.932071 155.595784 
L 321.288365 63.055511 
L 55.542428 236.328798 
L 240.394447 115.803373 
L 155.541945 170.29675 
L 49.444897 240.244245 
L 332.670424 55.274982 
L 303.808775 74.456577 
L 93.347123 212.093472 
L 198.118229 142.879038 
L 276.166632 92.736575 
L 202.996254 140.178108 
L 274.540623 93.782571 
L 242.020455 114.432038 
L 51.070905 239.199673 
L 266.004079 99.048413 
L 103.916178 204.775267 
L 347.711001 46.347184 
L 64.485474 230.322461 
L 203.402756 139.81702 
L 91.314613 213.327827 
L 117.737249 195.736091 
L 128.306304 189.067343 
L 308.6868 70.997348 
L 102.29017 205.949629 
L 70.583006 226.233941 
L 131.558321 187.028743 
L 309.093302 70.74012 
L 299.743754 77.112945 
L 309.499804 70.483934 
L 210.719794 135.214626 
L 182.371083 153.964473 
L 120.176262 194.220965 
L 86.030086 216.651614 
L 61.233458 232.465486 
L 243.239962 113.532487 
L 247.304983 110.637448 
L 243.646464 113.105308 
L 94.56663 211.348421 
L 81.15206 219.698064 
L 329.011905 57.641708 
L 322.507871 62.225601 
L 280.231653 89.747453 
L 102.696672 205.684465 
L 283.48367 87.783687 
L 298.930749 77.595308 
L 169.769518 162.073278 
L 330.637913 56.523799 
L 151.070422 173.821887 
L 211.532798 134.663138 
L 285.922682 86.038704 
L 53.91642 237.388659 
L 160.826472 167.302718 
L 306.247787 72.590132 
L 235.922924 118.840572 
L 221.69535 127.635659 
L 338.361453 51.777078 
L 246.085476 111.370665 
L 83.184571 218.476399 
L 54.729424 236.861696 
L 228.605886 123.357697 
L 237.14243 118.157651 
L 107.168195 202.506366 
L 48.631892 240.870969 
L 194.566146 144.861379 
L 286.329184 85.781499 
L 163.265485 165.922876 
L 146.598899 177.501612 
L 77.900044 221.617217 
L 253.809016 106.796066 
L 149.037911 175.424199 
L 229.825392 122.550892 
L 337.954951 52.069337 
L 222.508355 127.166725 
L 183.997092 152.673682 
L 99.444655 208.103465 
L 216.817325 130.88288 
L 277.386138 91.673599 
L 112.04622 199.448528 
L 300.96326 76.382758 
L 141.314371 181.208475 
L 167.737008 163.354439 
L 60.826955 232.728243 
L 85.623584 216.88015 
L 54.322922 237.125869 
L 344.865487 47.809092 
L 206.248271 137.899264 
L 278.605644 90.90299 
L 332.263922 55.523137 
L 323.727378 61.255419 
L 70.176504 226.469899 
L 44.973374 243.12576 
L 211.9393 134.418994 
L 101.477165 206.715395 
L 288.768197 84.271053 
L 155.135443 170.529429 
L 132.371325 186.570515 
L 60.013951 233.247732 
L 101.883668 206.255299 
L 276.573134 92.209477 
L 133.184329 186.112633 
L 209.093785 136.194987 
L 204.21576 139.272528 
L 180.745075 155.058255 
L 86.436588 216.422608 
L 168.14351 163.11086 
L 80.745558 219.93959 
L 156.354949 169.833181 
L 82.778069 218.723254 
L 318.44285 64.983859 
L 57.574939 234.964084 
L 281.451159 88.921376 
L 152.289928 172.730089 
L 177.89956 156.94274 
L 193.753142 145.61976 
L 191.31413 147.628144 
L 49.038395 240.632897 
L 87.656094 215.732649 
L 317.223344 65.684827 
L 138.468857 183.120973 
L 344.052483 48.226843 
L 238.361936 117.475511 
L 197.305224 143.328615 
L 315.597336 66.625729 
L 244.459468 112.529886 
L 326.572892 59.31751 
L 104.32268 204.489503 
L 163.671987 165.692243 
L 274.947126 93.528643 
L 286.735686 85.526474 
L 201.776747 140.858359 
L 134.403836 185.425465 
L 325.759888 59.84292 
L 117.330747 195.996685 
L 121.395768 193.563904 
L 149.850915 174.738803 
L 131.151819 187.258202 
L 301.369762 76.132304 
L 68.550495 227.415453 
L 89.282102 214.569178 
L 213.565308 133.371776 
L 348.117504 46.082528 
L 137.24935 183.815495 
L 195.785653 144.173912 
L 98.225149 208.899115 
L 246.898481 110.881067 
L 183.59059 152.942062 
L 59.607449 233.50485 
L 125.460789 190.775068 
L 292.020214 82.295447 
L 125.054287 191.001792 
L 333.076926 55.027516 
L 217.630329 130.342883 
L 339.174457 51.292398 
L 188.875117 149.278436 
L 160.41997 167.532336 
L 177.086556 157.498143 
L 218.849836 129.514781 
L 343.239478 48.646686 
L 138.062355 183.352853 
L 248.117987 110.152257 
L 277.79264 91.416021 
L 69.3635 226.941842 
L 297.304741 78.641071 
L 84.404077 217.718135 
L 128.712806 188.800487 
L 256.654531 104.939146 
L 48.22539 241.108437 
L 131.964823 186.799548 
L 190.501125 148.335162 
L 218.036831 130.074235 
L 307.467294 71.777959 
L 134.810338 185.196153 
L 75.461031 223.062533 
L 257.467535 104.460652 
L 77.493542 221.85613 
L 296.898239 78.896289 
L 147.005401 177.223425 
L 75.867533 222.817448 
L 137.655852 183.584353 
L 86.84309 216.19312 
L 161.232974 167.073049 
L 342.019972 49.492811 
L 305.434783 73.369456 
L 135.21684 184.966658 
L 341.61347 49.729921 
L 346.491495 46.97778 
L 142.533878 180.242104 
L 296.491737 79.147578 
L 94.973132 211.098956 
L 222.914857 126.915291 
L 288.361695 84.520227 
L 160.013468 167.761934 
L 180.338573 155.327354 
L 282.264163 88.46493 
L 79.932554 220.420824 
L 307.873796 71.515897 
L 266.410581 98.792771 
L 302.589268 75.322263 
L 190.094623 148.573759 
L 338.767955 51.535499 
L 115.704739 197.115958 
L 162.858983 166.153261 
L 313.564825 67.814331 
L 176.680054 157.79044 
L 294.459226 80.624179 
L 107.981199 201.98178 
L 188.062113 149.884894 
L 334.296432 54.288666 
L 272.914615 94.78561 
L 215.191317 132.092136 
L 166.110999 164.300189 
L 197.711726 143.103673 
L 284.703176 86.838544 
L 268.849594 97.278376 
L 144.159886 179.136646 
L 267.630088 98.032221 
L 148.631409 175.850887 
L 72.209014 225.286744 
L 234.703418 119.525686 
L 249.743995 109.188612 
L 224.540865 125.960005 
L 119.363258 194.65617 
L 44.566871 243.341585 
L 161.639476 166.8433 
L 164.484991 165.230058 
L 112.859224 198.877383 
L 316.41034 66.154286 
L 279.825151 89.988671 
L 199.744237 141.981991 
L 178.712565 156.401009 
L 290.394205 83.280349 
L 119.76976 194.438804 
L 295.678733 79.822495 
L 194.159644 145.207123 
L 331.85742 55.772036 
L 100.257659 207.563828 
L 319.255854 64.518277 
L 220.475844 128.329538 
L 179.525569 155.863934 
L 118.550254 195.089692 
L 287.142189 85.273121 
L 136.436346 184.276798 
L 208.687283 136.422373 
L 77.087039 222.095264 
L 52.696913 238.16978 
L 175.054046 159.136259 
L 79.11955 220.900185 
L 292.833218 81.69983 
L 133.590831 185.883669 
L 120.989266 193.783601 
L 261.939058 101.910384 
L 312.345319 68.703501 
L 110.01371 200.620321 
L 199.337735 142.206176 
L 125.867292 190.548512 
L 192.127134 146.909582 
L 68.143993 227.768431 
L 266.817083 98.538308 
L 184.403594 152.367486 
L 114.485233 197.871792 
L 198.524731 142.654627 
L 330.231411 56.77631 
L 78.306546 221.378342 
L 88.8756 214.828611 
L 322.914373 61.917038 
L 336.735445 52.819225 
L 311.532315 69.212337 
L 59.200947 233.760387 
L 187.249109 150.434671 
L 275.76013 93.010381 
L 81.558563 219.455805 
L 239.581443 116.380814 
L 129.932313 188.034698 
L 204.622262 139.012433 
L 314.377829 67.337056 
L 149.444413 175.125202 
L 237.955434 117.7029 
L 68.956997 227.17827 
L 285.109678 86.563984 
L 346.084993 47.185382 
L 232.264405 120.908674 
L 324.13388 60.954139 
L 226.573376 124.872593 
L 233.077409 120.44513 
L 205.435266 138.372808 
L 337.141947 52.573287 
L 336.328943 53.064301 
L 329.824909 57.029941 
L 292.426716 82.049545 
L 322.101369 62.500769 
L 258.687041 103.756563 
L 153.102932 172.015698 
L 142.127376 180.538638 
L 158.793962 168.45092 
L 276.979636 91.93489 
L 51.883909 238.685754 
L 316.816842 65.919321 
L 335.515938 53.553638 
L 82.371567 218.968581 
L 196.898722 143.553954 
L 124.647785 191.228855 
L 147.411903 176.940243 
L 225.353869 125.524529 
L 164.891493 164.998396 
L 313.158323 68.18391 
L 109.607207 200.853438 
L 118.956756 194.873116 
L 83.591073 218.227499 
L 311.125812 69.466051 
L 298.524247 77.836237 
L 331.044415 56.272302 
L 127.4933 189.641178 
L 339.987462 50.793806 
L 333.88993 54.53442 
L 245.678974 111.616793 
L 46.599382 242.058539 
L 108.387701 201.704515 
L 296.085235 79.54323 
L 46.19288 242.300739 
L 230.231894 122.292536 
L 298.117745 78.077213 
L 302.99577 75.090925 
L 273.727619 94.285775 
L 202.18325 140.632409 
L 106.761693 202.850969 
L 129.119308 188.547806 
L 157.167953 169.371366 
L 90.095107 214.068881 
L 254.62202 106.305792 
L 71.802512 225.524304 
L 284.296674 87.23841 
L 280.638155 89.504493 
L 116.517743 196.591546 
L 305.028281 73.63689 
L 287.548691 85.021107 
L 140.094865 182.189142 
L 233.890413 119.984351 
L 130.745317 187.48806 
L 44.160369 243.556364 
L 45.379876 242.908871 
L 261.532556 102.139509 
L 99.038153 208.370076 
L 287.955193 84.770201 
L 83.997575 217.975559 
L 165.704497 164.533569 
L 97.818647 209.162127 
L 148.224907 176.198487 
L 244.86597 112.112178 
L 92.534119 212.587954 
L 273.321117 94.535976 
L 110.826714 200.153033 
L 293.646222 81.155143 
L 234.296915 119.754788 
L 223.321359 126.615389 
L 264.378071 100.08956 
L 324.946884 60.372205 
L 248.930991 109.669441 
L 301.776264 75.784816 
L 181.964581 154.242097 
L 201.370245 141.083746 
L 80.339056 220.180481 
L 331.450917 56.021738 
L 327.385896 58.794079 
L 166.517502 164.065951 
L 172.615033 160.498868 
L 242.83346 113.837077 
L 174.647544 159.364394 
L 47.818888 241.345507 
L 241.613953 114.731198 
L 164.078489 165.46132 
L 233.483911 120.21444 
L 192.940138 146.192978 
L 191.720632 147.333304 
L 231.857903 121.141755 
L 99.851157 207.834929 
L 188.468615 149.511104 
L 328.198901 58.210752 
L 105.948689 203.407205 
L 250.556999 108.709386 
L 130.338815 187.71851 
L 123.428279 192.083573 
L 143.346882 179.683023 
L 136.842848 184.046302 
L 257.874037 104.224758 
L 57.168437 235.241459 
L 139.281861 182.655971 
L 85.217081 217.108229 
L 329.418407 57.284838 
L 157.980957 168.910751 
L 291.613712 82.541393 
L 271.695109 95.532758 
L 274.134121 94.03476 
L 124.241283 191.571775 
L 168.956514 162.520789 
L 337.548449 52.325341 
L 209.500287 135.964185 
L 253.402514 107.036603 
L 200.963743 141.308702 
L 96.192638 210.210814 
L 317.629846 65.450773 
L 101.070663 207.008425 
L 311.938817 68.958351 
L 76.680537 222.334879 
L 315.190833 66.862259 
L 265.191075 99.564306 
L 56.355432 235.7891 
L 113.265726 198.621432 
L 169.363016 162.297145 
L 219.66284 128.864876 
L 272.101611 95.283873 
L 96.59914 209.948358 
L 263.971569 100.358233 
L 74.241525 224.082738 
L 92.940621 212.340893 
L 58.387943 234.399409 
L 263.158565 100.929656 
L 139.688363 182.422798 
L 335.922441 53.309011 
L 152.69643 172.397475 
L 264.784573 99.8254 
L 62.452964 231.659156 
L 194.972649 144.630888 
L 221.288848 127.867251 
L 309.906306 70.228606 
L 212.752304 133.799475 
L 308.280298 71.255841 
L 153.915936 171.478832 
L 144.566388 178.865103 
L 168.550012 162.854204 
L 271.288607 95.781614 
L 230.638397 122.033736 
L 69.770002 226.705803 
L 95.786136 210.474943 
L 340.393964 50.420399 
L 167.330506 163.593696 
L 306.654289 72.311898 
L 226.979878 124.655423 
L 300.150256 76.871011 
L 200.150739 141.757736 
L 193.34664 145.909258 
L 348.524006 45.883636 
L 263.565067 100.634584 
L 145.785894 178.050202 
L 159.200464 168.221193 
L 174.241041 159.592084 
L 55.135926 236.59604 
L 213.97181 133.158602 
L 91.721115 213.081315 
L 192.533636 146.485079 
L 53.509918 237.650166 
L 70.989508 225.997776 
L 259.093544 103.523792 
L 310.312808 69.973967 
L 228.199384 123.724472 
L 235.10992 119.296986 
L 159.606966 167.991543 
L 127.899802 189.413333 
L 109.200705 201.086284 
L 64.078972 230.557701 
L 170.582523 161.624826 
L 267.223586 98.28484 
L 55.94893 236.05986 
L 177.493058 157.217683 
L 184.810096 152.025026 
L 328.605403 57.931965 
L 269.256096 97.02814 
L 227.38638 124.238602 
L 78.713048 221.139369 
L 307.060791 72.042776 
L 106.355191 203.134216 
L 347.304499 46.560758 
L 231.044899 121.770551 
L 341.206968 49.961894 
L 88.062596 215.396435 
L 299.337252 77.354277 
L 223.727861 126.396579 
L 227.792882 123.975495 
L 155.948447 170.064704 
L 142.94038 179.959873 
L 343.64598 48.436485 
L 258.280539 103.990158 
L 173.021535 160.272727 
L 285.51618 86.298955 
L 170.17602 161.849176 
L 157.574455 169.140937 
L 136.029844 184.507006 
L 111.233216 199.918739 
L 126.680296 190.095338 
L 342.426474 49.160863 
L 209.906789 135.719437 
L 198.931233 142.430364 
L 187.655611 150.17076 
L 162.045978 166.613439 
L 293.23972 81.423688 
L 238.768439 117.122075 
L 232.670907 120.676507 
L 45.786378 242.555919 
L 289.174699 84.022566 
L 72.615516 225.048445 
L 275.353628 93.271973 
L 248.524489 109.910577 
L 272.508113 95.034862 
L 183.184088 153.386858 
L 172.208531 160.724671 
L 73.022018 224.809229 
L 175.460548 158.907653 
L 235.516422 119.068632 
L 250.150497 108.948824 
L 144.97289 178.593832 
L 289.987703 83.527294 
L 335.109436 53.798371 
L 76.274035 222.575376 
L 314.784331 67.09936 
L 173.428037 160.046229 
L 57.981441 234.683746 
L 213.158806 133.585306 
L 58.794445 234.107836 
L 90.501609 213.821323 
L 262.34556 101.681627 
L 94.160128 211.597293 
L 140.501367 181.954973 
L 224.947367 125.742151 
L 135.623342 184.736951 
L 282.670665 88.237421 
L 247.711485 110.39453 
L 220.069342 128.561006 
L 312.751821 68.446574 
L 181.151577 154.788062 
L 195.379151 144.401835 
L 231.451401 121.471977 
L 73.428521 224.568848 
L 113.672228 198.370678 
L 346.897997 46.769852 
L 181.558079 154.51625 
L 326.979394 59.055691 
L 236.735928 118.385132 
L 203.809258 139.53456 
L 249.337493 109.428802 
L 196.192155 143.946894 
L 207.061275 137.393888 
L 303.402273 74.76823 
L 316.003838 66.389747 
L 100.664161 207.289072 
L 260.31305 102.829372 
L 89.688605 214.317712 
L 166.924004 163.830596 
L 62.859466 231.376985 
L 333.483428 54.780682 
L 87.249592 215.963137 
L 120.582764 194.00259 
L 281.857661 88.692904 
L 290.800707 83.033766 
L 310.71931 69.719846 
L 304.621779 73.903153 
L 153.509434 171.748289 
L 281.044657 89.256272 
L 47.412386 241.582481 
L 49.851399 239.975516 
L 245.272472 111.863928 
L 186.029602 151.202748 
L 202.589752 140.405732 
L 88.469098 215.148529 
L 97.412144 209.424474 
L 297.711243 78.318352 
L 344.458985 48.017727 
L 151.883426 173.140628 
L 158.38746 168.68076 
L 226.166873 125.089798 
L 255.435025 105.734176 
L 279.012147 90.644274 
L 255.028523 105.961935 
L 133.997334 185.654625 
L 176.273552 158.231004 
L 327.792399 58.493475 
L 151.476924 173.417721 
L 171.802029 160.950152 
L 103.103174 205.433925 
L 320.881863 63.343001 
L 65.298479 229.848666 
L 302.182766 75.553527 
L 255.841527 105.506787 
L 269.662598 96.778304 
L 90.908111 213.574421 
L 179.119067 156.132195 
L 127.086798 189.868454 
L 145.379392 178.322354 
L 116.924245 196.248134 
L 50.664403 239.456733 
L 340.800466 50.191689 
L 196.49222 143.779795 
L 240.800949 115.360491 
L 114.078731 198.121226 
L 66.924487 228.625512 
L 61.63996 232.200284 
L 71.39601 225.761272 
L 122.208773 192.837934 
L 257.061033 104.698376 
L 270.882105 96.030523 
L 64.891976 230.086143 
L 244.052966 112.824019 
L 56.761934 235.516367 
L 210.313292 135.434856 
L 239.174941 116.860587 
L 67.737491 228.05159 
L 93.753626 211.845625 
L 305.841285 73.09294 
L 143.753384 179.409028 
L 294.052724 80.889203 
L 138.875359 182.888687 
L 107.574697 202.246446 
L 261.126054 102.369028 
L 63.67247 230.791924 
L 339.580959 51.046429 
L 75.054529 223.408273 
L 334.702934 54.043345 
L 218.443334 129.801909 
L 270.475602 96.279562 
L 132.777827 186.341565 
L 268.03659 97.780335 
L 252.183008 107.753887 
L 300.556758 76.627964 
L 92.127617 212.83473 
L 229.41889 122.811145 
L 105.542186 203.677044 
L 67.330989 228.331443 
L 289.581201 83.774675 
L 81.965065 219.212695 
L 252.58951 107.515129 
L 318.849352 64.750924 
L 294.865728 80.358972 
L 98.631651 208.635186 
L 140.907869 181.629291 
L 111.639718 199.683927 
L 62.046462 231.931988 
L 295.272231 80.09241 
L 250.963502 108.470244 
L 154.322439 171.202166 
L 236.329426 118.612755 
L 123.834781 191.83244 
L 206.654773 137.657899 
L 171.395527 161.175329 
L 216.004321 131.574601 
L 175.86705 158.51562 
L 156.761451 169.602093 
L 129.52581 188.296155 
L 304.215277 74.172238 
L 178.306062 156.670931 
L 207.874279 136.872738 
L 256.248029 105.187393 
L 324.540382 60.638926 
L 112.452722 199.212466 
L 326.16639 59.579841 
L 147.818405 176.646346 
L 173.834539 159.819355 
L 95.379634 210.744433 
L 224.134363 126.178133 
L 246.491978 111.125449 
L 270.0691 96.5288 
L 50.257901 239.714794 
L 217.223827 130.611463 
L 84.810579 217.443435 
L 323.320875 61.541438 
L 97.005642 209.686432 
L 321.694867 62.776613 
L 154.728941 170.873594 
L 110.420212 200.386873 
L 60.420453 232.988915 
L 251.776506 107.992579 
L 342.832976 48.936533 
L 141.720873 180.926139 
L 146.192397 177.77685 
L 118.143752 195.428457 
L 237.548932 117.930259 
L 229.012388 123.076438 
L 229.012388 123.076438 
" clip-path="url(#p67b9e01711)" style="fill: none; stroke: #1f77b4; stroke-width: 1.5; stroke-linecap: square"/>
   </g>
   <g id="patch_3">
    <path d="M 28.942188 253.44 
L 28.942188 36 
" style="fill: none; stroke: #000000; stroke-width: 0.8; stroke-linejoin: miter; stroke-linecap: square"/>
   </g>
   <g id="patch_4">
    <path d="M 363.742188 253.44 
L 363.742188 36 
" style="fill: none; stroke: #000000; stroke-width: 0.8; stroke-linejoin: miter; stroke-linecap: square"/>
   </g>
   <g id="patch_5">
    <path d="M 28.942188 253.44 
L 363.742188 253.44 
" style="fill: none; stroke: #000000; stroke-width: 0.8; stroke-linejoin: miter; stroke-linecap: square"/>
   </g>
   <g id="patch_6">
    <path d="M 28.942188 36 
L 363.742188 36 
" style="fill: none; stroke: #000000; stroke-width: 0.8; stroke-linejoin: miter; stroke-linecap: square"/>
   </g>
  </g>
  <g id="text_19">
   <!-- $x$ and $\hat{x}$ for radius: 4 -->
   <g transform="translate(130.342187 16.318125) scale(0.12 -0.12)">
    <defs>
     <path id="DejaVuSans-Oblique-78" d="M 3841 3500 
L 2234 1784 
L 3219 0 
L 2559 0 
L 1819 1388 
L 531 0 
L -166 0 
L 1556 1844 
L 641 3500 
L 1300 3500 
L 1972 2234 
L 3144 3500 
L 3841 3500 
z
" transform="scale(0.015625)"/>
     <path id="DejaVuSans-20" transform="scale(0.015625)"/>
     <path id="DejaVuSans-61" d="M 2194 1759 
Q 1497 1759 1228 1600 
Q 959 1441 959 1056 
Q 959 750 1161 570 
Q 1363 391 1709 391 
Q 2188 391 2477 730 
Q 2766 1069 2766 1631 
L 2766 1759 
L 2194 1759 
z
M 3341 1997 
L 3341 0 
L 2766 0 
L 2766 531 
Q 2569 213 2275 61 
Q 1981 -91 1556 -91 
Q 1019 -91 701 211 
Q 384 513 384 1019 
Q 384 1609 779 1909 
Q 1175 2209 1959 2209 
L 2766 2209 
L 2766 2266 
Q 2766 2663 2505 2880 
Q 2244 3097 1772 3097 
Q 1472 3097 1187 3025 
Q 903 2953 641 2809 
L 641 3341 
Q 956 3463 1253 3523 
Q 1550 3584 1831 3584 
Q 2591 3584 2966 3190 
Q 3341 2797 3341 1997 
z
" transform="scale(0.015625)"/>
     <path id="DejaVuSans-6e" d="M 3513 2113 
L 3513 0 
L 2938 0 
L 2938 2094 
Q 2938 2591 2744 2837 
Q 2550 3084 2163 3084 
Q 1697 3084 1428 2787 
Q 1159 2491 1159 1978 
L 1159 0 
L 581 0 
L 581 3500 
L 1159 3500 
L 1159 2956 
Q 1366 3272 1645 3428 
Q 1925 3584 2291 3584 
Q 2894 3584 3203 3211 
Q 3513 2838 3513 2113 
z
" transform="scale(0.015625)"/>
     <path id="DejaVuSans-64" d="M 2906 2969 
L 2906 4863 
L 3481 4863 
L 3481 0 
L 2906 0 
L 2906 525 
Q 2725 213 2448 61 
Q 2172 -91 1784 -91 
Q 1150 -91 751 415 
Q 353 922 353 1747 
Q 353 2572 751 3078 
Q 1150 3584 1784 3584 
Q 2172 3584 2448 3432 
Q 2725 3281 2906 2969 
z
M 947 1747 
Q 947 1113 1208 752 
Q 1469 391 1925 391 
Q 2381 391 2643 752 
Q 2906 1113 2906 1747 
Q 2906 2381 2643 2742 
Q 2381 3103 1925 3103 
Q 1469 3103 1208 2742 
Q 947 2381 947 1747 
z
" transform="scale(0.015625)"/>
     <path id="DejaVuSans-302" d="M -1831 5119 
L -1369 5119 
L -603 3944 
L -1038 3944 
L -1600 4709 
L -2163 3944 
L -2597 3944 
L -1831 5119 
z
M -1600 3584 
L -1600 3584 
z
" transform="scale(0.015625)"/>
     <path id="DejaVuSans-66" d="M 2375 4863 
L 2375 4384 
L 1825 4384 
Q 1516 4384 1395 4259 
Q 1275 4134 1275 3809 
L 1275 3500 
L 2222 3500 
L 2222 3053 
L 1275 3053 
L 1275 0 
L 697 0 
L 697 3053 
L 147 3053 
L 147 3500 
L 697 3500 
L 697 3744 
Q 697 4328 969 4595 
Q 1241 4863 1831 4863 
L 2375 4863 
z
" transform="scale(0.015625)"/>
     <path id="DejaVuSans-6f" d="M 1959 3097 
Q 1497 3097 1228 2736 
Q 959 2375 959 1747 
Q 959 1119 1226 758 
Q 1494 397 1959 397 
Q 2419 397 2687 759 
Q 2956 1122 2956 1747 
Q 2956 2369 2687 2733 
Q 2419 3097 1959 3097 
z
M 1959 3584 
Q 2709 3584 3137 3096 
Q 3566 2609 3566 1747 
Q 3566 888 3137 398 
Q 2709 -91 1959 -91 
Q 1206 -91 779 398 
Q 353 888 353 1747 
Q 353 2609 779 3096 
Q 1206 3584 1959 3584 
z
" transform="scale(0.015625)"/>
     <path id="DejaVuSans-72" d="M 2631 2963 
Q 2534 3019 2420 3045 
Q 2306 3072 2169 3072 
Q 1681 3072 1420 2755 
Q 1159 2438 1159 1844 
L 1159 0 
L 581 0 
L 581 3500 
L 1159 3500 
L 1159 2956 
Q 1341 3275 1631 3429 
Q 1922 3584 2338 3584 
Q 2397 3584 2469 3576 
Q 2541 3569 2628 3553 
L 2631 2963 
z
" transform="scale(0.015625)"/>
     <path id="DejaVuSans-69" d="M 603 3500 
L 1178 3500 
L 1178 0 
L 603 0 
L 603 3500 
z
M 603 4863 
L 1178 4863 
L 1178 4134 
L 603 4134 
L 603 4863 
z
" transform="scale(0.015625)"/>
     <path id="DejaVuSans-75" d="M 544 1381 
L 544 3500 
L 1119 3500 
L 1119 1403 
Q 1119 906 1312 657 
Q 1506 409 1894 409 
Q 2359 409 2629 706 
Q 2900 1003 2900 1516 
L 2900 3500 
L 3475 3500 
L 3475 0 
L 2900 0 
L 2900 538 
Q 2691 219 2414 64 
Q 2138 -91 1772 -91 
Q 1169 -91 856 284 
Q 544 659 544 1381 
z
M 1991 3584 
L 1991 3584 
z
" transform="scale(0.015625)"/>
     <path id="DejaVuSans-73" d="M 2834 3397 
L 2834 2853 
Q 2591 2978 2328 3040 
Q 2066 3103 1784 3103 
Q 1356 3103 1142 2972 
Q 928 2841 928 2578 
Q 928 2378 1081 2264 
Q 1234 2150 1697 2047 
L 1894 2003 
Q 2506 1872 2764 1633 
Q 3022 1394 3022 966 
Q 3022 478 2636 193 
Q 2250 -91 1575 -91 
Q 1294 -91 989 -36 
Q 684 19 347 128 
L 347 722 
Q 666 556 975 473 
Q 1284 391 1588 391 
Q 1994 391 2212 530 
Q 2431 669 2431 922 
Q 2431 1156 2273 1281 
Q 2116 1406 1581 1522 
L 1381 1569 
Q 847 1681 609 1914 
Q 372 2147 372 2553 
Q 372 3047 722 3315 
Q 1072 3584 1716 3584 
Q 2034 3584 2315 3537 
Q 2597 3491 2834 3397 
z
" transform="scale(0.015625)"/>
     <path id="DejaVuSans-3a" d="M 750 794 
L 1409 794 
L 1409 0 
L 750 0 
L 750 794 
z
M 750 3309 
L 1409 3309 
L 1409 2516 
L 750 2516 
L 750 3309 
z
" transform="scale(0.015625)"/>
    </defs>
    <use xlink:href="#DejaVuSans-Oblique-78" transform="translate(0 0.828125)"/>
    <use xlink:href="#DejaVuSans-20" transform="translate(59.179688 0.828125)"/>
    <use xlink:href="#DejaVuSans-61" transform="translate(90.966797 0.828125)"/>
    <use xlink:href="#DejaVuSans-6e" transform="translate(152.246094 0.828125)"/>
    <use xlink:href="#DejaVuSans-64" transform="translate(215.625 0.828125)"/>
    <use xlink:href="#DejaVuSans-20" transform="translate(279.101562 0.828125)"/>
    <use xlink:href="#DejaVuSans-302" transform="translate(373.261719 12.015625)"/>
    <use xlink:href="#DejaVuSans-Oblique-78" transform="translate(310.888672 0.828125)"/>
    <use xlink:href="#DejaVuSans-20" transform="translate(370.068359 0.828125)"/>
    <use xlink:href="#DejaVuSans-66" transform="translate(401.855469 0.828125)"/>
    <use xlink:href="#DejaVuSans-6f" transform="translate(437.060547 0.828125)"/>
    <use xlink:href="#DejaVuSans-72" transform="translate(498.242188 0.828125)"/>
    <use xlink:href="#DejaVuSans-20" transform="translate(539.355469 0.828125)"/>
    <use xlink:href="#DejaVuSans-72" transform="translate(571.142578 0.828125)"/>
    <use xlink:href="#DejaVuSans-61" transform="translate(612.255859 0.828125)"/>
    <use xlink:href="#DejaVuSans-64" transform="translate(673.535156 0.828125)"/>
    <use xlink:href="#DejaVuSans-69" transform="translate(737.011719 0.828125)"/>
    <use xlink:href="#DejaVuSans-75" transform="translate(764.794922 0.828125)"/>
    <use xlink:href="#DejaVuSans-73" transform="translate(828.173828 0.828125)"/>
    <use xlink:href="#DejaVuSans-3a" transform="translate(880.273438 0.828125)"/>
    <use xlink:href="#DejaVuSans-20" transform="translate(913.964844 0.828125)"/>
    <use xlink:href="#DejaVuSans-34" transform="translate(945.751953 0.828125)"/>
   </g>
  </g>
 </g>
 <defs>
  <clipPath id="p67b9e01711">
   <rect x="28.942188" y="36" width="334.8" height="217.44"/>
  </clipPath>
 </defs>
</svg>
