<?xml version="1.0" encoding="utf-8" standalone="no"?>
<!DOCTYPE svg PUBLIC "-//W3C//DTD SVG 1.1//EN"
  "http://www.w3.org/Graphics/SVG/1.1/DTD/svg11.dtd">
<svg xmlns:xlink="http://www.w3.org/1999/xlink" width="387.403125pt" height="290.99625pt" viewBox="0 0 387.403125 290.99625" xmlns="http://www.w3.org/2000/svg" version="1.1">
 <metadata>
  <rdf:RDF xmlns:dc="http://purl.org/dc/elements/1.1/" xmlns:cc="http://creativecommons.org/ns#" xmlns:rdf="http://www.w3.org/1999/02/22-rdf-syntax-ns#">
   <cc:Work>
    <dc:type rdf:resource="http://purl.org/dc/dcmitype/StillImage"/>
    <dc:date>2022-11-14T18:34:11.587746</dc:date>
    <dc:format>image/svg+xml</dc:format>
    <dc:creator>
     <cc:Agent>
      <dc:title>Matplotlib v3.6.0, https://matplotlib.org/</dc:title>
     </cc:Agent>
    </dc:creator>
   </cc:Work>
  </rdf:RDF>
 </metadata>
 <defs>
  <style type="text/css">*{stroke-linejoin: round; stroke-linecap: butt}</style>
 </defs>
 <g id="figure_1">
  <g id="patch_1">
   <path d="M 0 290.99625 
L 387.403125 290.99625 
L 387.403125 0 
L 0 0 
L 0 290.99625 
z
" style="fill: none"/>
  </g>
  <g id="axes_1">
   <g id="patch_2">
    <path d="M 45.403125 253.44 
L 380.203125 253.44 
L 380.203125 36 
L 45.403125 36 
z
" style="fill: #ffffff"/>
   </g>
   <g id="matplotlib.axis_1">
    <g id="xtick_1">
     <g id="line2d_1">
      <defs>
       <path id="mbbb31ec6ea" d="M 0 0 
L 0 3.5 
" style="stroke: #000000; stroke-width: 0.8"/>
      </defs>
      <g>
       <use xlink:href="#mbbb31ec6ea" x="60.01136" y="253.44" style="stroke: #000000; stroke-width: 0.8"/>
      </g>
     </g>
     <g id="text_1">
      <!-- 0.0 -->
      <g transform="translate(52.059797 268.038437) scale(0.1 -0.1)">
       <defs>
        <path id="DejaVuSans-30" d="M 2034 4250 
Q 1547 4250 1301 3770 
Q 1056 3291 1056 2328 
Q 1056 1369 1301 889 
Q 1547 409 2034 409 
Q 2525 409 2770 889 
Q 3016 1369 3016 2328 
Q 3016 3291 2770 3770 
Q 2525 4250 2034 4250 
z
M 2034 4750 
Q 2819 4750 3233 4129 
Q 3647 3509 3647 2328 
Q 3647 1150 3233 529 
Q 2819 -91 2034 -91 
Q 1250 -91 836 529 
Q 422 1150 422 2328 
Q 422 3509 836 4129 
Q 1250 4750 2034 4750 
z
" transform="scale(0.015625)"/>
        <path id="DejaVuSans-2e" d="M 684 794 
L 1344 794 
L 1344 0 
L 684 0 
L 684 794 
z
" transform="scale(0.015625)"/>
       </defs>
       <use xlink:href="#DejaVuSans-30"/>
       <use xlink:href="#DejaVuSans-2e" x="63.623047"/>
       <use xlink:href="#DejaVuSans-30" x="95.410156"/>
      </g>
     </g>
    </g>
    <g id="xtick_2">
     <g id="line2d_2">
      <g>
       <use xlink:href="#mbbb31ec6ea" x="121.006076" y="253.44" style="stroke: #000000; stroke-width: 0.8"/>
      </g>
     </g>
     <g id="text_2">
      <!-- 0.1 -->
      <g transform="translate(113.054514 268.038437) scale(0.1 -0.1)">
       <defs>
        <path id="DejaVuSans-31" d="M 794 531 
L 1825 531 
L 1825 4091 
L 703 3866 
L 703 4441 
L 1819 4666 
L 2450 4666 
L 2450 531 
L 3481 531 
L 3481 0 
L 794 0 
L 794 531 
z
" transform="scale(0.015625)"/>
       </defs>
       <use xlink:href="#DejaVuSans-30"/>
       <use xlink:href="#DejaVuSans-2e" x="63.623047"/>
       <use xlink:href="#DejaVuSans-31" x="95.410156"/>
      </g>
     </g>
    </g>
    <g id="xtick_3">
     <g id="line2d_3">
      <g>
       <use xlink:href="#mbbb31ec6ea" x="182.000793" y="253.44" style="stroke: #000000; stroke-width: 0.8"/>
      </g>
     </g>
     <g id="text_3">
      <!-- 0.2 -->
      <g transform="translate(174.049231 268.038437) scale(0.1 -0.1)">
       <defs>
        <path id="DejaVuSans-32" d="M 1228 531 
L 3431 531 
L 3431 0 
L 469 0 
L 469 531 
Q 828 903 1448 1529 
Q 2069 2156 2228 2338 
Q 2531 2678 2651 2914 
Q 2772 3150 2772 3378 
Q 2772 3750 2511 3984 
Q 2250 4219 1831 4219 
Q 1534 4219 1204 4116 
Q 875 4013 500 3803 
L 500 4441 
Q 881 4594 1212 4672 
Q 1544 4750 1819 4750 
Q 2544 4750 2975 4387 
Q 3406 4025 3406 3419 
Q 3406 3131 3298 2873 
Q 3191 2616 2906 2266 
Q 2828 2175 2409 1742 
Q 1991 1309 1228 531 
z
" transform="scale(0.015625)"/>
       </defs>
       <use xlink:href="#DejaVuSans-30"/>
       <use xlink:href="#DejaVuSans-2e" x="63.623047"/>
       <use xlink:href="#DejaVuSans-32" x="95.410156"/>
      </g>
     </g>
    </g>
    <g id="xtick_4">
     <g id="line2d_4">
      <g>
       <use xlink:href="#mbbb31ec6ea" x="242.99551" y="253.44" style="stroke: #000000; stroke-width: 0.8"/>
      </g>
     </g>
     <g id="text_4">
      <!-- 0.3 -->
      <g transform="translate(235.043947 268.038437) scale(0.1 -0.1)">
       <defs>
        <path id="DejaVuSans-33" d="M 2597 2516 
Q 3050 2419 3304 2112 
Q 3559 1806 3559 1356 
Q 3559 666 3084 287 
Q 2609 -91 1734 -91 
Q 1441 -91 1130 -33 
Q 819 25 488 141 
L 488 750 
Q 750 597 1062 519 
Q 1375 441 1716 441 
Q 2309 441 2620 675 
Q 2931 909 2931 1356 
Q 2931 1769 2642 2001 
Q 2353 2234 1838 2234 
L 1294 2234 
L 1294 2753 
L 1863 2753 
Q 2328 2753 2575 2939 
Q 2822 3125 2822 3475 
Q 2822 3834 2567 4026 
Q 2313 4219 1838 4219 
Q 1578 4219 1281 4162 
Q 984 4106 628 3988 
L 628 4550 
Q 988 4650 1302 4700 
Q 1616 4750 1894 4750 
Q 2613 4750 3031 4423 
Q 3450 4097 3450 3541 
Q 3450 3153 3228 2886 
Q 3006 2619 2597 2516 
z
" transform="scale(0.015625)"/>
       </defs>
       <use xlink:href="#DejaVuSans-30"/>
       <use xlink:href="#DejaVuSans-2e" x="63.623047"/>
       <use xlink:href="#DejaVuSans-33" x="95.410156"/>
      </g>
     </g>
    </g>
    <g id="xtick_5">
     <g id="line2d_5">
      <g>
       <use xlink:href="#mbbb31ec6ea" x="303.990226" y="253.44" style="stroke: #000000; stroke-width: 0.8"/>
      </g>
     </g>
     <g id="text_5">
      <!-- 0.4 -->
      <g transform="translate(296.038664 268.038437) scale(0.1 -0.1)">
       <defs>
        <path id="DejaVuSans-34" d="M 2419 4116 
L 825 1625 
L 2419 1625 
L 2419 4116 
z
M 2253 4666 
L 3047 4666 
L 3047 1625 
L 3713 1625 
L 3713 1100 
L 3047 1100 
L 3047 0 
L 2419 0 
L 2419 1100 
L 313 1100 
L 313 1709 
L 2253 4666 
z
" transform="scale(0.015625)"/>
       </defs>
       <use xlink:href="#DejaVuSans-30"/>
       <use xlink:href="#DejaVuSans-2e" x="63.623047"/>
       <use xlink:href="#DejaVuSans-34" x="95.410156"/>
      </g>
     </g>
    </g>
    <g id="xtick_6">
     <g id="line2d_6">
      <g>
       <use xlink:href="#mbbb31ec6ea" x="364.984943" y="253.44" style="stroke: #000000; stroke-width: 0.8"/>
      </g>
     </g>
     <g id="text_6">
      <!-- 0.5 -->
      <g transform="translate(357.033381 268.038437) scale(0.1 -0.1)">
       <defs>
        <path id="DejaVuSans-35" d="M 691 4666 
L 3169 4666 
L 3169 4134 
L 1269 4134 
L 1269 2991 
Q 1406 3038 1543 3061 
Q 1681 3084 1819 3084 
Q 2600 3084 3056 2656 
Q 3513 2228 3513 1497 
Q 3513 744 3044 326 
Q 2575 -91 1722 -91 
Q 1428 -91 1123 -41 
Q 819 9 494 109 
L 494 744 
Q 775 591 1075 516 
Q 1375 441 1709 441 
Q 2250 441 2565 725 
Q 2881 1009 2881 1497 
Q 2881 1984 2565 2268 
Q 2250 2553 1709 2553 
Q 1456 2553 1204 2497 
Q 953 2441 691 2322 
L 691 4666 
z
" transform="scale(0.015625)"/>
       </defs>
       <use xlink:href="#DejaVuSans-30"/>
       <use xlink:href="#DejaVuSans-2e" x="63.623047"/>
       <use xlink:href="#DejaVuSans-35" x="95.410156"/>
      </g>
     </g>
    </g>
    <g id="text_7">
     <!-- $t$ -->
     <g transform="translate(210.803125 281.716562) scale(0.1 -0.1)">
      <defs>
       <path id="DejaVuSans-Oblique-74" d="M 2706 3500 
L 2619 3053 
L 1472 3053 
L 1100 1153 
Q 1081 1047 1072 975 
Q 1063 903 1063 863 
Q 1063 663 1183 572 
Q 1303 481 1569 481 
L 2150 481 
L 2053 0 
L 1503 0 
Q 991 0 739 200 
Q 488 400 488 806 
Q 488 878 497 964 
Q 506 1050 525 1153 
L 897 3053 
L 409 3053 
L 500 3500 
L 978 3500 
L 1172 4494 
L 1747 4494 
L 1556 3500 
L 2706 3500 
z
" transform="scale(0.015625)"/>
      </defs>
      <use xlink:href="#DejaVuSans-Oblique-74" transform="translate(0 0.78125)"/>
     </g>
    </g>
   </g>
   <g id="matplotlib.axis_2">
    <g id="ytick_1">
     <g id="line2d_7">
      <defs>
       <path id="m4c768ce20a" d="M 0 0 
L -3.5 0 
" style="stroke: #000000; stroke-width: 0.8"/>
      </defs>
      <g>
       <use xlink:href="#m4c768ce20a" x="45.403125" y="232.598058" style="stroke: #000000; stroke-width: 0.8"/>
      </g>
     </g>
     <g id="text_8">
      <!-- 0.0 -->
      <g transform="translate(22.5 236.397277) scale(0.1 -0.1)">
       <use xlink:href="#DejaVuSans-30"/>
       <use xlink:href="#DejaVuSans-2e" x="63.623047"/>
       <use xlink:href="#DejaVuSans-30" x="95.410156"/>
      </g>
     </g>
    </g>
    <g id="ytick_2">
     <g id="line2d_8">
      <g>
       <use xlink:href="#m4c768ce20a" x="45.403125" y="197.863093" style="stroke: #000000; stroke-width: 0.8"/>
      </g>
     </g>
     <g id="text_9">
      <!-- 0.2 -->
      <g transform="translate(22.5 201.662312) scale(0.1 -0.1)">
       <use xlink:href="#DejaVuSans-30"/>
       <use xlink:href="#DejaVuSans-2e" x="63.623047"/>
       <use xlink:href="#DejaVuSans-32" x="95.410156"/>
      </g>
     </g>
    </g>
    <g id="ytick_3">
     <g id="line2d_9">
      <g>
       <use xlink:href="#m4c768ce20a" x="45.403125" y="163.128129" style="stroke: #000000; stroke-width: 0.8"/>
      </g>
     </g>
     <g id="text_10">
      <!-- 0.4 -->
      <g transform="translate(22.5 166.927347) scale(0.1 -0.1)">
       <use xlink:href="#DejaVuSans-30"/>
       <use xlink:href="#DejaVuSans-2e" x="63.623047"/>
       <use xlink:href="#DejaVuSans-34" x="95.410156"/>
      </g>
     </g>
    </g>
    <g id="ytick_4">
     <g id="line2d_10">
      <g>
       <use xlink:href="#m4c768ce20a" x="45.403125" y="128.393164" style="stroke: #000000; stroke-width: 0.8"/>
      </g>
     </g>
     <g id="text_11">
      <!-- 0.6 -->
      <g transform="translate(22.5 132.192383) scale(0.1 -0.1)">
       <defs>
        <path id="DejaVuSans-36" d="M 2113 2584 
Q 1688 2584 1439 2293 
Q 1191 2003 1191 1497 
Q 1191 994 1439 701 
Q 1688 409 2113 409 
Q 2538 409 2786 701 
Q 3034 994 3034 1497 
Q 3034 2003 2786 2293 
Q 2538 2584 2113 2584 
z
M 3366 4563 
L 3366 3988 
Q 3128 4100 2886 4159 
Q 2644 4219 2406 4219 
Q 1781 4219 1451 3797 
Q 1122 3375 1075 2522 
Q 1259 2794 1537 2939 
Q 1816 3084 2150 3084 
Q 2853 3084 3261 2657 
Q 3669 2231 3669 1497 
Q 3669 778 3244 343 
Q 2819 -91 2113 -91 
Q 1303 -91 875 529 
Q 447 1150 447 2328 
Q 447 3434 972 4092 
Q 1497 4750 2381 4750 
Q 2619 4750 2861 4703 
Q 3103 4656 3366 4563 
z
" transform="scale(0.015625)"/>
       </defs>
       <use xlink:href="#DejaVuSans-30"/>
       <use xlink:href="#DejaVuSans-2e" x="63.623047"/>
       <use xlink:href="#DejaVuSans-36" x="95.410156"/>
      </g>
     </g>
    </g>
    <g id="ytick_5">
     <g id="line2d_11">
      <g>
       <use xlink:href="#m4c768ce20a" x="45.403125" y="93.658199" style="stroke: #000000; stroke-width: 0.8"/>
      </g>
     </g>
     <g id="text_12">
      <!-- 0.8 -->
      <g transform="translate(22.5 97.457418) scale(0.1 -0.1)">
       <defs>
        <path id="DejaVuSans-38" d="M 2034 2216 
Q 1584 2216 1326 1975 
Q 1069 1734 1069 1313 
Q 1069 891 1326 650 
Q 1584 409 2034 409 
Q 2484 409 2743 651 
Q 3003 894 3003 1313 
Q 3003 1734 2745 1975 
Q 2488 2216 2034 2216 
z
M 1403 2484 
Q 997 2584 770 2862 
Q 544 3141 544 3541 
Q 544 4100 942 4425 
Q 1341 4750 2034 4750 
Q 2731 4750 3128 4425 
Q 3525 4100 3525 3541 
Q 3525 3141 3298 2862 
Q 3072 2584 2669 2484 
Q 3125 2378 3379 2068 
Q 3634 1759 3634 1313 
Q 3634 634 3220 271 
Q 2806 -91 2034 -91 
Q 1263 -91 848 271 
Q 434 634 434 1313 
Q 434 1759 690 2068 
Q 947 2378 1403 2484 
z
M 1172 3481 
Q 1172 3119 1398 2916 
Q 1625 2713 2034 2713 
Q 2441 2713 2670 2916 
Q 2900 3119 2900 3481 
Q 2900 3844 2670 4047 
Q 2441 4250 2034 4250 
Q 1625 4250 1398 4047 
Q 1172 3844 1172 3481 
z
" transform="scale(0.015625)"/>
       </defs>
       <use xlink:href="#DejaVuSans-30"/>
       <use xlink:href="#DejaVuSans-2e" x="63.623047"/>
       <use xlink:href="#DejaVuSans-38" x="95.410156"/>
      </g>
     </g>
    </g>
    <g id="ytick_6">
     <g id="line2d_12">
      <g>
       <use xlink:href="#m4c768ce20a" x="45.403125" y="58.923235" style="stroke: #000000; stroke-width: 0.8"/>
      </g>
     </g>
     <g id="text_13">
      <!-- 1.0 -->
      <g transform="translate(22.5 62.722453) scale(0.1 -0.1)">
       <use xlink:href="#DejaVuSans-31"/>
       <use xlink:href="#DejaVuSans-2e" x="63.623047"/>
       <use xlink:href="#DejaVuSans-30" x="95.410156"/>
      </g>
     </g>
    </g>
    <g id="text_14">
     <!-- $\hat{y}_{B}$ -->
     <g transform="translate(16.4 150.27) rotate(-90) scale(0.1 -0.1)">
      <defs>
       <path id="DejaVuSans-302" d="M -1831 5119 
L -1369 5119 
L -603 3944 
L -1038 3944 
L -1600 4709 
L -2163 3944 
L -2597 3944 
L -1831 5119 
z
M -1600 3584 
L -1600 3584 
z
" transform="scale(0.015625)"/>
       <path id="DejaVuSans-Oblique-79" d="M 1588 -325 
Q 1188 -997 936 -1164 
Q 684 -1331 294 -1331 
L -159 -1331 
L -63 -850 
L 269 -850 
Q 509 -850 678 -719 
Q 847 -588 1056 -206 
L 1234 128 
L 459 3500 
L 1069 3500 
L 1650 819 
L 3256 3500 
L 3859 3500 
L 1588 -325 
z
" transform="scale(0.015625)"/>
       <path id="DejaVuSans-Oblique-42" d="M 1081 4666 
L 2694 4666 
Q 3350 4666 3675 4422 
Q 4000 4178 4000 3688 
Q 4000 3238 3720 2911 
Q 3441 2584 2988 2516 
Q 3375 2428 3569 2181 
Q 3763 1934 3763 1522 
Q 3763 819 3242 409 
Q 2722 0 1819 0 
L 172 0 
L 1081 4666 
z
M 1234 2228 
L 903 519 
L 1919 519 
Q 2491 519 2800 781 
Q 3109 1044 3109 1522 
Q 3109 1891 2904 2059 
Q 2700 2228 2247 2228 
L 1234 2228 
z
M 1606 4147 
L 1331 2741 
L 2272 2741 
Q 2775 2741 3058 2959 
Q 3341 3178 3341 3566 
Q 3341 3869 3150 4008 
Q 2959 4147 2541 4147 
L 1606 4147 
z
" transform="scale(0.015625)"/>
      </defs>
      <use xlink:href="#DejaVuSans-302" transform="translate(62.373047 12.015625)"/>
      <use xlink:href="#DejaVuSans-Oblique-79" transform="translate(0 0.828125)"/>
      <use xlink:href="#DejaVuSans-Oblique-42" transform="translate(60.136719 -15.578125) scale(0.7)"/>
     </g>
    </g>
   </g>
   <g id="line2d_13">
    <path d="M 60.621307 232.598058 
L 61.841201 224.891869 
L 62.451148 228.395337 
L 63.061095 220.302177 
L 63.671043 218.90563 
L 64.28099 211.981621 
L 64.890937 233.731398 
L 65.500884 236.743201 
L 66.110831 231.895221 
L 66.720778 231.962105 
L 67.330726 237.822179 
L 67.940673 238.804141 
L 68.55062 238.213554 
L 69.160567 233.989582 
L 69.770514 231.564714 
L 70.380461 218.728725 
L 70.990409 216.081247 
L 71.600356 228.128361 
L 72.210303 236.455983 
L 73.430197 235.75666 
L 74.040144 225.279094 
L 74.650092 225.975585 
L 75.260039 232.405352 
L 75.869986 237.54712 
L 76.479933 240.268234 
L 77.08988 235.000891 
L 77.699827 237.847691 
L 78.309775 232.894605 
L 78.919722 224.782817 
L 79.529669 234.149356 
L 80.139616 227.301467 
L 80.749563 228.029758 
L 81.35951 222.23552 
L 81.969458 224.076408 
L 82.579405 227.566064 
L 83.189352 228.044921 
L 83.799299 223.588279 
L 84.409246 229.32731 
L 85.019194 225.265731 
L 85.629141 222.04275 
L 86.239088 230.190939 
L 86.849035 235.555746 
L 87.458982 236.373651 
L 88.068929 236.014355 
L 88.678877 239.215807 
L 89.898771 229.790307 
L 90.508718 212.611456 
L 91.118665 227.848644 
L 91.728612 234.100166 
L 92.33856 230.439152 
L 92.948507 237.788317 
L 93.558454 233.604812 
L 94.168401 230.942352 
L 94.778348 238.316056 
L 95.388295 233.234487 
L 95.998243 226.174024 
L 96.60819 226.785352 
L 97.218137 230.866052 
L 97.828084 227.00681 
L 98.438031 228.97273 
L 99.047978 225.197456 
L 99.657926 225.21974 
L 100.267873 228.882035 
L 100.87782 229.75154 
L 101.487767 225.484993 
L 102.097714 236.130756 
L 102.707661 237.273678 
L 103.317609 224.721102 
L 103.927556 232.918985 
L 104.537503 230.32179 
L 106.367344 230.911757 
L 106.977292 241.059259 
L 107.587239 235.71664 
L 108.197186 233.409566 
L 108.807133 216.278935 
L 109.41708 217.831905 
L 110.027027 231.808812 
L 110.636975 227.700355 
L 111.246922 221.466169 
L 112.466816 232.3064 
L 113.076763 235.86071 
L 113.68671 243.556364 
L 114.296658 234.219967 
L 114.906605 223.021387 
L 115.516552 223.932727 
L 116.736446 238.199432 
L 117.346393 233.54612 
L 117.956341 232.793353 
L 118.566288 232.774768 
L 119.176235 239.974094 
L 119.786182 226.527115 
L 120.396129 230.327816 
L 121.006076 228.667389 
L 121.616024 222.847173 
L 122.225971 223.775092 
L 123.445865 233.183258 
L 124.055812 233.127569 
L 124.665759 236.31008 
L 125.275707 223.001361 
L 125.885654 218.636218 
L 126.495601 212.903165 
L 127.105548 208.979095 
L 127.715495 202.670341 
L 128.325442 191.818178 
L 128.93539 195.698897 
L 129.545337 190.648823 
L 130.155284 190.720077 
L 131.375178 167.557543 
L 131.985125 162.353963 
L 132.595073 162.338309 
L 133.20502 151.708183 
L 133.814967 146.553718 
L 134.424914 148.357073 
L 135.034861 137.315941 
L 135.644808 139.040973 
L 136.254756 130.304266 
L 136.864703 129.014845 
L 137.47465 119.462304 
L 138.084597 123.478376 
L 138.694544 120.167565 
L 139.304491 120.699982 
L 139.914439 112.673486 
L 140.524386 93.644388 
L 141.134333 99.628089 
L 141.74428 98.391269 
L 142.354227 99.717144 
L 142.964174 101.609115 
L 143.574122 103.110811 
L 144.184069 83.227863 
L 144.794016 81.783512 
L 145.403963 82.864047 
L 146.01391 97.113122 
L 146.623857 82.084524 
L 147.233805 78.785241 
L 147.843752 71.072871 
L 148.453699 68.102102 
L 149.063646 78.298385 
L 149.673593 81.571431 
L 150.28354 88.263568 
L 150.893488 80.202468 
L 151.503435 54.093542 
L 152.113382 67.858503 
L 152.723329 72.13037 
L 153.333276 71.629179 
L 153.943223 79.091219 
L 154.553171 72.078657 
L 155.163118 59.479768 
L 155.773065 73.145642 
L 156.383012 63.863066 
L 156.992959 70.238566 
L 157.602906 70.152023 
L 158.212854 74.9898 
L 158.822801 61.151372 
L 159.432748 62.678544 
L 160.042695 71.558834 
L 160.652642 57.52761 
L 161.262589 59.446488 
L 161.872537 73.815339 
L 162.482484 66.807074 
L 163.092431 64.016354 
L 163.702378 68.715506 
L 164.312325 64.327525 
L 164.922272 66.911067 
L 165.53222 70.414894 
L 166.142167 60.829093 
L 166.752114 63.583225 
L 167.362061 58.650181 
L 167.972008 63.877213 
L 168.581955 67.972147 
L 169.191903 64.68602 
L 169.80185 62.891181 
L 170.411797 56.884323 
L 171.021744 65.077907 
L 171.631691 64.301837 
L 172.241638 65.409449 
L 172.851586 65.511907 
L 173.461533 54.603792 
L 174.07148 62.62512 
L 174.681427 67.661047 
L 175.291374 69.046285 
L 175.901321 74.045495 
L 176.511269 51.789917 
L 177.731163 66.689154 
L 178.34111 63.264315 
L 178.951057 64.200707 
L 179.561004 73.065879 
L 180.170952 58.529161 
L 180.780899 58.752182 
L 181.390846 67.615858 
L 182.000793 68.555652 
L 182.61074 66.567488 
L 183.220687 69.275188 
L 183.830635 60.488556 
L 184.440582 57.700347 
L 185.050529 58.225334 
L 185.660476 55.794208 
L 186.88037 74.494997 
L 187.490318 64.474957 
L 189.320159 55.045122 
L 189.930106 65.125988 
L 190.540053 70.414853 
L 191.150001 65.71006 
L 191.759948 58.097589 
L 192.369895 64.833297 
L 192.979842 69.644444 
L 193.589789 64.63002 
L 194.199736 57.67179 
L 194.809684 61.155352 
L 195.419631 50.938685 
L 196.029578 68.22586 
L 196.639525 70.669583 
L 197.249472 74.854105 
L 197.859419 62.564152 
L 198.469367 59.493975 
L 199.079314 54.753473 
L 200.909155 75.348232 
L 201.519102 66.038714 
L 202.12905 47.592034 
L 202.738997 52.342149 
L 203.348944 62.795503 
L 203.958891 70.349223 
L 204.568838 74.936291 
L 205.178785 62.887416 
L 205.788733 63.192363 
L 206.39868 55.702065 
L 207.008627 57.314464 
L 207.618574 61.495446 
L 208.228521 67.825391 
L 208.838468 60.820846 
L 210.058363 78.227892 
L 210.66831 56.263576 
L 211.278257 52.505119 
L 211.888204 58.224777 
L 212.498151 59.434349 
L 213.108099 69.969795 
L 213.718046 66.367161 
L 214.93794 57.014672 
L 215.547887 58.994877 
L 216.767782 70.61983 
L 217.377729 60.22311 
L 217.987676 55.368576 
L 218.597623 64.193177 
L 219.20757 59.100182 
L 219.817517 70.049201 
L 220.427465 67.115329 
L 221.037412 56.166807 
L 221.647359 63.809296 
L 222.257306 68.920816 
L 222.867253 71.267896 
L 223.4772 71.189858 
L 224.087148 49.708235 
L 224.697095 53.463901 
L 225.307042 66.057253 
L 225.916989 69.383724 
L 226.526936 69.987399 
L 227.136883 63.621463 
L 227.746831 51.1332 
L 228.356778 56.416564 
L 228.966725 69.261706 
L 229.576672 69.383623 
L 230.186619 62.469593 
L 230.796566 62.340677 
L 231.406514 60.012225 
L 232.016461 61.865538 
L 232.626408 64.879014 
L 233.236355 69.969772 
L 233.846302 57.343602 
L 234.456249 62.139399 
L 235.066197 68.412422 
L 235.676144 64.989681 
L 236.286091 69.043437 
L 236.896038 59.024348 
L 237.505985 55.344956 
L 238.115932 60.054978 
L 238.72588 69.288659 
L 239.335827 65.85354 
L 239.945774 68.274834 
L 240.555721 53.519805 
L 241.165668 66.023925 
L 242.385563 66.582918 
L 242.99551 65.686103 
L 243.605457 59.901989 
L 244.215404 56.740806 
L 244.825351 64.29265 
L 245.435298 63.130065 
L 246.045246 61.337047 
L 247.26514 71.671252 
L 247.875087 62.943523 
L 248.485034 67.805883 
L 249.094981 50.572304 
L 250.314876 63.695363 
L 250.924823 61.669322 
L 251.53477 64.106556 
L 252.144717 58.568823 
L 252.754664 66.755633 
L 253.364612 67.86001 
L 253.974559 59.0381 
L 254.584506 66.055063 
L 255.194453 63.061401 
L 255.8044 56.395507 
L 257.024295 74.676861 
L 257.634242 60.343924 
L 258.244189 55.846558 
L 258.854136 62.909729 
L 259.464083 64.412638 
L 260.07403 67.523709 
L 260.683978 64.874862 
L 261.293925 63.634606 
L 261.903872 50.133644 
L 263.123766 63.50319 
L 263.733713 75.65673 
L 264.343661 74.618272 
L 264.953608 57.808018 
L 265.563555 67.44159 
L 266.173502 59.981472 
L 266.783449 55.710363 
L 267.393396 63.938324 
L 268.003344 59.290091 
L 268.613291 60.077073 
L 269.223238 62.662143 
L 270.443132 73.15509 
L 271.053079 65.537071 
L 271.663027 62.896684 
L 272.272974 60.958043 
L 272.882921 58.226773 
L 273.492868 61.373658 
L 274.712762 68.638776 
L 275.32271 65.692776 
L 275.932657 61.725601 
L 276.542604 56.085034 
L 277.152551 62.558528 
L 277.762498 59.066994 
L 278.372445 67.185966 
L 278.982393 67.856464 
L 279.59234 56.799951 
L 280.202287 59.917513 
L 280.812234 52.109625 
L 281.422181 69.28537 
L 282.032128 75.216381 
L 282.642076 69.833619 
L 283.252023 62.659815 
L 283.86197 45.883636 
L 284.471917 59.114434 
L 285.081864 67.049796 
L 285.691811 71.950845 
L 286.301759 65.886378 
L 286.911706 56.616399 
L 288.1316 68.216767 
L 288.741547 68.116892 
L 289.351494 66.052307 
L 290.571389 46.243251 
L 291.181336 63.977256 
L 291.791283 66.03112 
L 292.40123 71.117986 
L 293.011177 60.264909 
L 293.621125 61.154763 
L 294.231072 53.338008 
L 294.841019 66.717031 
L 295.450966 67.629093 
L 296.060913 76.043062 
L 297.280808 54.809254 
L 297.890755 57.959741 
L 298.500702 62.927159 
L 299.110649 74.619962 
L 299.720596 73.912301 
L 300.330543 69.546497 
L 300.940491 56.58524 
L 301.550438 47.176352 
L 302.160385 60.427579 
L 302.770332 66.859145 
L 303.380279 67.044678 
L 303.990226 70.385915 
L 304.600174 61.246728 
L 305.210121 56.90208 
L 305.820068 55.441223 
L 306.430015 69.409002 
L 307.039962 77.02739 
L 307.649909 72.258693 
L 308.259857 54.00769 
L 308.869804 66.629978 
L 309.479751 71.178668 
L 310.089698 82.419483 
L 310.699645 90.094861 
L 311.309592 86.734907 
L 311.91954 90.492499 
L 312.529487 93.377403 
L 313.139434 102.469412 
L 313.749381 114.85279 
L 314.359328 118.996035 
L 314.969275 118.184436 
L 315.579223 116.661752 
L 316.18917 119.550216 
L 316.799117 130.30814 
L 317.409064 144.921139 
L 318.019011 148.87072 
L 318.628958 161.246247 
L 319.238906 154.39652 
L 319.848853 159.567642 
L 320.4588 179.676922 
L 321.068747 176.151541 
L 322.288641 186.383558 
L 322.898589 190.78145 
L 324.118483 182.704791 
L 324.72843 187.452763 
L 325.338377 188.57876 
L 325.948324 192.76775 
L 326.558272 193.396458 
L 327.168219 205.091155 
L 327.778166 207.708782 
L 328.388113 217.424501 
L 328.99806 215.178869 
L 329.608007 222.636079 
L 330.217955 220.992005 
L 330.827902 218.175723 
L 331.437849 220.659865 
L 332.047796 217.675664 
L 332.657743 210.185456 
L 333.877638 220.750867 
L 334.487585 221.878277 
L 335.097532 230.042117 
L 335.707479 225.83183 
L 336.317426 226.475721 
L 337.537321 222.023217 
L 338.147268 227.908373 
L 338.757215 218.56685 
L 339.367162 227.118238 
L 339.977109 223.26688 
L 340.587056 231.603151 
L 341.197004 231.985376 
L 341.806951 239.187399 
L 342.416898 223.615633 
L 343.026845 220.28686 
L 343.636792 217.768839 
L 344.24674 219.180025 
L 344.856687 215.919491 
L 345.466634 230.522364 
L 346.076581 230.719892 
L 346.686528 236.238216 
L 347.296475 225.500936 
L 347.906423 227.031079 
L 348.51637 225.073946 
L 349.126317 230.367024 
L 349.736264 230.579335 
L 350.346211 232.051018 
L 350.956158 227.565646 
L 351.566106 235.260686 
L 352.176053 239.415121 
L 352.786 234.582828 
L 353.395947 234.128593 
L 354.005894 235.861754 
L 354.615841 224.178442 
L 355.225789 224.979674 
L 355.835736 232.848378 
L 356.445683 230.715857 
L 357.05563 226.357543 
L 357.665577 227.467286 
L 358.275524 229.144783 
L 358.885472 222.882687 
L 359.495419 222.681731 
L 360.105366 224.82808 
L 361.32526 226.236538 
L 361.935207 233.668487 
L 362.545155 232.132796 
L 363.155102 233.493611 
L 363.765049 240.624531 
L 364.374996 235.836647 
L 364.984943 235.528454 
L 364.984943 235.528454 
" clip-path="url(#p4257a21463)" style="fill: none; stroke: #1f77b4; stroke-width: 1.5; stroke-linecap: square"/>
   </g>
   <g id="patch_3">
    <path d="M 45.403125 253.44 
L 45.403125 36 
" style="fill: none; stroke: #000000; stroke-width: 0.8; stroke-linejoin: miter; stroke-linecap: square"/>
   </g>
   <g id="patch_4">
    <path d="M 380.203125 253.44 
L 380.203125 36 
" style="fill: none; stroke: #000000; stroke-width: 0.8; stroke-linejoin: miter; stroke-linecap: square"/>
   </g>
   <g id="patch_5">
    <path d="M 45.403125 253.44 
L 380.203125 253.44 
" style="fill: none; stroke: #000000; stroke-width: 0.8; stroke-linejoin: miter; stroke-linecap: square"/>
   </g>
   <g id="patch_6">
    <path d="M 45.403125 36 
L 380.203125 36 
" style="fill: none; stroke: #000000; stroke-width: 0.8; stroke-linejoin: miter; stroke-linecap: square"/>
   </g>
  </g>
  <g id="text_15">
   <!-- Decoded Output from Population $B$ -->
   <g transform="translate(102.343125 16.32) scale(0.12 -0.12)">
    <defs>
     <path id="DejaVuSans-44" d="M 1259 4147 
L 1259 519 
L 2022 519 
Q 2988 519 3436 956 
Q 3884 1394 3884 2338 
Q 3884 3275 3436 3711 
Q 2988 4147 2022 4147 
L 1259 4147 
z
M 628 4666 
L 1925 4666 
Q 3281 4666 3915 4102 
Q 4550 3538 4550 2338 
Q 4550 1131 3912 565 
Q 3275 0 1925 0 
L 628 0 
L 628 4666 
z
" transform="scale(0.015625)"/>
     <path id="DejaVuSans-65" d="M 3597 1894 
L 3597 1613 
L 953 1613 
Q 991 1019 1311 708 
Q 1631 397 2203 397 
Q 2534 397 2845 478 
Q 3156 559 3463 722 
L 3463 178 
Q 3153 47 2828 -22 
Q 2503 -91 2169 -91 
Q 1331 -91 842 396 
Q 353 884 353 1716 
Q 353 2575 817 3079 
Q 1281 3584 2069 3584 
Q 2775 3584 3186 3129 
Q 3597 2675 3597 1894 
z
M 3022 2063 
Q 3016 2534 2758 2815 
Q 2500 3097 2075 3097 
Q 1594 3097 1305 2825 
Q 1016 2553 972 2059 
L 3022 2063 
z
" transform="scale(0.015625)"/>
     <path id="DejaVuSans-63" d="M 3122 3366 
L 3122 2828 
Q 2878 2963 2633 3030 
Q 2388 3097 2138 3097 
Q 1578 3097 1268 2742 
Q 959 2388 959 1747 
Q 959 1106 1268 751 
Q 1578 397 2138 397 
Q 2388 397 2633 464 
Q 2878 531 3122 666 
L 3122 134 
Q 2881 22 2623 -34 
Q 2366 -91 2075 -91 
Q 1284 -91 818 406 
Q 353 903 353 1747 
Q 353 2603 823 3093 
Q 1294 3584 2113 3584 
Q 2378 3584 2631 3529 
Q 2884 3475 3122 3366 
z
" transform="scale(0.015625)"/>
     <path id="DejaVuSans-6f" d="M 1959 3097 
Q 1497 3097 1228 2736 
Q 959 2375 959 1747 
Q 959 1119 1226 758 
Q 1494 397 1959 397 
Q 2419 397 2687 759 
Q 2956 1122 2956 1747 
Q 2956 2369 2687 2733 
Q 2419 3097 1959 3097 
z
M 1959 3584 
Q 2709 3584 3137 3096 
Q 3566 2609 3566 1747 
Q 3566 888 3137 398 
Q 2709 -91 1959 -91 
Q 1206 -91 779 398 
Q 353 888 353 1747 
Q 353 2609 779 3096 
Q 1206 3584 1959 3584 
z
" transform="scale(0.015625)"/>
     <path id="DejaVuSans-64" d="M 2906 2969 
L 2906 4863 
L 3481 4863 
L 3481 0 
L 2906 0 
L 2906 525 
Q 2725 213 2448 61 
Q 2172 -91 1784 -91 
Q 1150 -91 751 415 
Q 353 922 353 1747 
Q 353 2572 751 3078 
Q 1150 3584 1784 3584 
Q 2172 3584 2448 3432 
Q 2725 3281 2906 2969 
z
M 947 1747 
Q 947 1113 1208 752 
Q 1469 391 1925 391 
Q 2381 391 2643 752 
Q 2906 1113 2906 1747 
Q 2906 2381 2643 2742 
Q 2381 3103 1925 3103 
Q 1469 3103 1208 2742 
Q 947 2381 947 1747 
z
" transform="scale(0.015625)"/>
     <path id="DejaVuSans-20" transform="scale(0.015625)"/>
     <path id="DejaVuSans-4f" d="M 2522 4238 
Q 1834 4238 1429 3725 
Q 1025 3213 1025 2328 
Q 1025 1447 1429 934 
Q 1834 422 2522 422 
Q 3209 422 3611 934 
Q 4013 1447 4013 2328 
Q 4013 3213 3611 3725 
Q 3209 4238 2522 4238 
z
M 2522 4750 
Q 3503 4750 4090 4092 
Q 4678 3434 4678 2328 
Q 4678 1225 4090 567 
Q 3503 -91 2522 -91 
Q 1538 -91 948 565 
Q 359 1222 359 2328 
Q 359 3434 948 4092 
Q 1538 4750 2522 4750 
z
" transform="scale(0.015625)"/>
     <path id="DejaVuSans-75" d="M 544 1381 
L 544 3500 
L 1119 3500 
L 1119 1403 
Q 1119 906 1312 657 
Q 1506 409 1894 409 
Q 2359 409 2629 706 
Q 2900 1003 2900 1516 
L 2900 3500 
L 3475 3500 
L 3475 0 
L 2900 0 
L 2900 538 
Q 2691 219 2414 64 
Q 2138 -91 1772 -91 
Q 1169 -91 856 284 
Q 544 659 544 1381 
z
M 1991 3584 
L 1991 3584 
z
" transform="scale(0.015625)"/>
     <path id="DejaVuSans-74" d="M 1172 4494 
L 1172 3500 
L 2356 3500 
L 2356 3053 
L 1172 3053 
L 1172 1153 
Q 1172 725 1289 603 
Q 1406 481 1766 481 
L 2356 481 
L 2356 0 
L 1766 0 
Q 1100 0 847 248 
Q 594 497 594 1153 
L 594 3053 
L 172 3053 
L 172 3500 
L 594 3500 
L 594 4494 
L 1172 4494 
z
" transform="scale(0.015625)"/>
     <path id="DejaVuSans-70" d="M 1159 525 
L 1159 -1331 
L 581 -1331 
L 581 3500 
L 1159 3500 
L 1159 2969 
Q 1341 3281 1617 3432 
Q 1894 3584 2278 3584 
Q 2916 3584 3314 3078 
Q 3713 2572 3713 1747 
Q 3713 922 3314 415 
Q 2916 -91 2278 -91 
Q 1894 -91 1617 61 
Q 1341 213 1159 525 
z
M 3116 1747 
Q 3116 2381 2855 2742 
Q 2594 3103 2138 3103 
Q 1681 3103 1420 2742 
Q 1159 2381 1159 1747 
Q 1159 1113 1420 752 
Q 1681 391 2138 391 
Q 2594 391 2855 752 
Q 3116 1113 3116 1747 
z
" transform="scale(0.015625)"/>
     <path id="DejaVuSans-66" d="M 2375 4863 
L 2375 4384 
L 1825 4384 
Q 1516 4384 1395 4259 
Q 1275 4134 1275 3809 
L 1275 3500 
L 2222 3500 
L 2222 3053 
L 1275 3053 
L 1275 0 
L 697 0 
L 697 3053 
L 147 3053 
L 147 3500 
L 697 3500 
L 697 3744 
Q 697 4328 969 4595 
Q 1241 4863 1831 4863 
L 2375 4863 
z
" transform="scale(0.015625)"/>
     <path id="DejaVuSans-72" d="M 2631 2963 
Q 2534 3019 2420 3045 
Q 2306 3072 2169 3072 
Q 1681 3072 1420 2755 
Q 1159 2438 1159 1844 
L 1159 0 
L 581 0 
L 581 3500 
L 1159 3500 
L 1159 2956 
Q 1341 3275 1631 3429 
Q 1922 3584 2338 3584 
Q 2397 3584 2469 3576 
Q 2541 3569 2628 3553 
L 2631 2963 
z
" transform="scale(0.015625)"/>
     <path id="DejaVuSans-6d" d="M 3328 2828 
Q 3544 3216 3844 3400 
Q 4144 3584 4550 3584 
Q 5097 3584 5394 3201 
Q 5691 2819 5691 2113 
L 5691 0 
L 5113 0 
L 5113 2094 
Q 5113 2597 4934 2840 
Q 4756 3084 4391 3084 
Q 3944 3084 3684 2787 
Q 3425 2491 3425 1978 
L 3425 0 
L 2847 0 
L 2847 2094 
Q 2847 2600 2669 2842 
Q 2491 3084 2119 3084 
Q 1678 3084 1418 2786 
Q 1159 2488 1159 1978 
L 1159 0 
L 581 0 
L 581 3500 
L 1159 3500 
L 1159 2956 
Q 1356 3278 1631 3431 
Q 1906 3584 2284 3584 
Q 2666 3584 2933 3390 
Q 3200 3197 3328 2828 
z
" transform="scale(0.015625)"/>
     <path id="DejaVuSans-50" d="M 1259 4147 
L 1259 2394 
L 2053 2394 
Q 2494 2394 2734 2622 
Q 2975 2850 2975 3272 
Q 2975 3691 2734 3919 
Q 2494 4147 2053 4147 
L 1259 4147 
z
M 628 4666 
L 2053 4666 
Q 2838 4666 3239 4311 
Q 3641 3956 3641 3272 
Q 3641 2581 3239 2228 
Q 2838 1875 2053 1875 
L 1259 1875 
L 1259 0 
L 628 0 
L 628 4666 
z
" transform="scale(0.015625)"/>
     <path id="DejaVuSans-6c" d="M 603 4863 
L 1178 4863 
L 1178 0 
L 603 0 
L 603 4863 
z
" transform="scale(0.015625)"/>
     <path id="DejaVuSans-61" d="M 2194 1759 
Q 1497 1759 1228 1600 
Q 959 1441 959 1056 
Q 959 750 1161 570 
Q 1363 391 1709 391 
Q 2188 391 2477 730 
Q 2766 1069 2766 1631 
L 2766 1759 
L 2194 1759 
z
M 3341 1997 
L 3341 0 
L 2766 0 
L 2766 531 
Q 2569 213 2275 61 
Q 1981 -91 1556 -91 
Q 1019 -91 701 211 
Q 384 513 384 1019 
Q 384 1609 779 1909 
Q 1175 2209 1959 2209 
L 2766 2209 
L 2766 2266 
Q 2766 2663 2505 2880 
Q 2244 3097 1772 3097 
Q 1472 3097 1187 3025 
Q 903 2953 641 2809 
L 641 3341 
Q 956 3463 1253 3523 
Q 1550 3584 1831 3584 
Q 2591 3584 2966 3190 
Q 3341 2797 3341 1997 
z
" transform="scale(0.015625)"/>
     <path id="DejaVuSans-69" d="M 603 3500 
L 1178 3500 
L 1178 0 
L 603 0 
L 603 3500 
z
M 603 4863 
L 1178 4863 
L 1178 4134 
L 603 4134 
L 603 4863 
z
" transform="scale(0.015625)"/>
     <path id="DejaVuSans-6e" d="M 3513 2113 
L 3513 0 
L 2938 0 
L 2938 2094 
Q 2938 2591 2744 2837 
Q 2550 3084 2163 3084 
Q 1697 3084 1428 2787 
Q 1159 2491 1159 1978 
L 1159 0 
L 581 0 
L 581 3500 
L 1159 3500 
L 1159 2956 
Q 1366 3272 1645 3428 
Q 1925 3584 2291 3584 
Q 2894 3584 3203 3211 
Q 3513 2838 3513 2113 
z
" transform="scale(0.015625)"/>
    </defs>
    <use xlink:href="#DejaVuSans-44" transform="translate(0 0.015625)"/>
    <use xlink:href="#DejaVuSans-65" transform="translate(77.001953 0.015625)"/>
    <use xlink:href="#DejaVuSans-63" transform="translate(138.525391 0.015625)"/>
    <use xlink:href="#DejaVuSans-6f" transform="translate(193.505859 0.015625)"/>
    <use xlink:href="#DejaVuSans-64" transform="translate(254.6875 0.015625)"/>
    <use xlink:href="#DejaVuSans-65" transform="translate(318.164062 0.015625)"/>
    <use xlink:href="#DejaVuSans-64" transform="translate(379.6875 0.015625)"/>
    <use xlink:href="#DejaVuSans-20" transform="translate(443.164062 0.015625)"/>
    <use xlink:href="#DejaVuSans-4f" transform="translate(474.951172 0.015625)"/>
    <use xlink:href="#DejaVuSans-75" transform="translate(553.662109 0.015625)"/>
    <use xlink:href="#DejaVuSans-74" transform="translate(617.041016 0.015625)"/>
    <use xlink:href="#DejaVuSans-70" transform="translate(656.25 0.015625)"/>
    <use xlink:href="#DejaVuSans-75" transform="translate(719.726562 0.015625)"/>
    <use xlink:href="#DejaVuSans-74" transform="translate(783.105469 0.015625)"/>
    <use xlink:href="#DejaVuSans-20" transform="translate(822.314453 0.015625)"/>
    <use xlink:href="#DejaVuSans-66" transform="translate(854.101562 0.015625)"/>
    <use xlink:href="#DejaVuSans-72" transform="translate(889.306641 0.015625)"/>
    <use xlink:href="#DejaVuSans-6f" transform="translate(930.419922 0.015625)"/>
    <use xlink:href="#DejaVuSans-6d" transform="translate(991.601562 0.015625)"/>
    <use xlink:href="#DejaVuSans-20" transform="translate(1089.013672 0.015625)"/>
    <use xlink:href="#DejaVuSans-50" transform="translate(1120.800781 0.015625)"/>
    <use xlink:href="#DejaVuSans-6f" transform="translate(1181.103516 0.015625)"/>
    <use xlink:href="#DejaVuSans-70" transform="translate(1242.285156 0.015625)"/>
    <use xlink:href="#DejaVuSans-75" transform="translate(1305.761719 0.015625)"/>
    <use xlink:href="#DejaVuSans-6c" transform="translate(1369.140625 0.015625)"/>
    <use xlink:href="#DejaVuSans-61" transform="translate(1396.923828 0.015625)"/>
    <use xlink:href="#DejaVuSans-74" transform="translate(1458.203125 0.015625)"/>
    <use xlink:href="#DejaVuSans-69" transform="translate(1497.412109 0.015625)"/>
    <use xlink:href="#DejaVuSans-6f" transform="translate(1525.195312 0.015625)"/>
    <use xlink:href="#DejaVuSans-6e" transform="translate(1586.376953 0.015625)"/>
    <use xlink:href="#DejaVuSans-20" transform="translate(1649.755859 0.015625)"/>
    <use xlink:href="#DejaVuSans-Oblique-42" transform="translate(1681.542969 0.015625)"/>
   </g>
  </g>
 </g>
 <defs>
  <clipPath id="p4257a21463">
   <rect x="45.403125" y="36" width="334.8" height="217.44"/>
  </clipPath>
 </defs>
</svg>
