<?xml version="1.0" encoding="utf-8" standalone="no"?>
<!DOCTYPE svg PUBLIC "-//W3C//DTD SVG 1.1//EN"
  "http://www.w3.org/Graphics/SVG/1.1/DTD/svg11.dtd">
<svg xmlns:xlink="http://www.w3.org/1999/xlink" width="372.103125pt" height="277.318125pt" viewBox="0 0 372.103125 277.318125" xmlns="http://www.w3.org/2000/svg" version="1.1">
 <metadata>
  <rdf:RDF xmlns:dc="http://purl.org/dc/elements/1.1/" xmlns:cc="http://creativecommons.org/ns#" xmlns:rdf="http://www.w3.org/1999/02/22-rdf-syntax-ns#">
   <cc:Work>
    <dc:type rdf:resource="http://purl.org/dc/dcmitype/StillImage"/>
    <dc:date>2022-11-11T21:52:12.605454</dc:date>
    <dc:format>image/svg+xml</dc:format>
    <dc:creator>
     <cc:Agent>
      <dc:title>Matplotlib v3.6.0, https://matplotlib.org/</dc:title>
     </cc:Agent>
    </dc:creator>
   </cc:Work>
  </rdf:RDF>
 </metadata>
 <defs>
  <style type="text/css">*{stroke-linejoin: round; stroke-linecap: butt}</style>
 </defs>
 <g id="figure_1">
  <g id="patch_1">
   <path d="M 0 277.318125 
L 372.103125 277.318125 
L 372.103125 0 
L 0 0 
L 0 277.318125 
z
" style="fill: none"/>
  </g>
  <g id="axes_1">
   <g id="patch_2">
    <path d="M 30.103125 253.44 
L 364.903125 253.44 
L 364.903125 36 
L 30.103125 36 
z
" style="fill: #ffffff"/>
   </g>
   <g id="matplotlib.axis_1">
    <g id="xtick_1">
     <g id="line2d_1">
      <defs>
       <path id="m5991367283" d="M 0 0 
L 0 3.5 
" style="stroke: #000000; stroke-width: 0.8"/>
      </defs>
      <g>
       <use xlink:href="#m5991367283" x="30.103125" y="253.44" style="stroke: #000000; stroke-width: 0.8"/>
      </g>
     </g>
     <g id="text_1">
      <!-- 0.0 -->
      <g transform="translate(22.151563 268.038437) scale(0.1 -0.1)">
       <defs>
        <path id="DejaVuSans-30" d="M 2034 4250 
Q 1547 4250 1301 3770 
Q 1056 3291 1056 2328 
Q 1056 1369 1301 889 
Q 1547 409 2034 409 
Q 2525 409 2770 889 
Q 3016 1369 3016 2328 
Q 3016 3291 2770 3770 
Q 2525 4250 2034 4250 
z
M 2034 4750 
Q 2819 4750 3233 4129 
Q 3647 3509 3647 2328 
Q 3647 1150 3233 529 
Q 2819 -91 2034 -91 
Q 1250 -91 836 529 
Q 422 1150 422 2328 
Q 422 3509 836 4129 
Q 1250 4750 2034 4750 
z
" transform="scale(0.015625)"/>
        <path id="DejaVuSans-2e" d="M 684 794 
L 1344 794 
L 1344 0 
L 684 0 
L 684 794 
z
" transform="scale(0.015625)"/>
       </defs>
       <use xlink:href="#DejaVuSans-30"/>
       <use xlink:href="#DejaVuSans-2e" x="63.623047"/>
       <use xlink:href="#DejaVuSans-30" x="95.410156"/>
      </g>
     </g>
    </g>
    <g id="xtick_2">
     <g id="line2d_2">
      <g>
       <use xlink:href="#m5991367283" x="74.743125" y="253.44" style="stroke: #000000; stroke-width: 0.8"/>
      </g>
     </g>
     <g id="text_2">
      <!-- 0.2 -->
      <g transform="translate(66.791563 268.038437) scale(0.1 -0.1)">
       <defs>
        <path id="DejaVuSans-32" d="M 1228 531 
L 3431 531 
L 3431 0 
L 469 0 
L 469 531 
Q 828 903 1448 1529 
Q 2069 2156 2228 2338 
Q 2531 2678 2651 2914 
Q 2772 3150 2772 3378 
Q 2772 3750 2511 3984 
Q 2250 4219 1831 4219 
Q 1534 4219 1204 4116 
Q 875 4013 500 3803 
L 500 4441 
Q 881 4594 1212 4672 
Q 1544 4750 1819 4750 
Q 2544 4750 2975 4387 
Q 3406 4025 3406 3419 
Q 3406 3131 3298 2873 
Q 3191 2616 2906 2266 
Q 2828 2175 2409 1742 
Q 1991 1309 1228 531 
z
" transform="scale(0.015625)"/>
       </defs>
       <use xlink:href="#DejaVuSans-30"/>
       <use xlink:href="#DejaVuSans-2e" x="63.623047"/>
       <use xlink:href="#DejaVuSans-32" x="95.410156"/>
      </g>
     </g>
    </g>
    <g id="xtick_3">
     <g id="line2d_3">
      <g>
       <use xlink:href="#m5991367283" x="119.383125" y="253.44" style="stroke: #000000; stroke-width: 0.8"/>
      </g>
     </g>
     <g id="text_3">
      <!-- 0.4 -->
      <g transform="translate(111.431563 268.038437) scale(0.1 -0.1)">
       <defs>
        <path id="DejaVuSans-34" d="M 2419 4116 
L 825 1625 
L 2419 1625 
L 2419 4116 
z
M 2253 4666 
L 3047 4666 
L 3047 1625 
L 3713 1625 
L 3713 1100 
L 3047 1100 
L 3047 0 
L 2419 0 
L 2419 1100 
L 313 1100 
L 313 1709 
L 2253 4666 
z
" transform="scale(0.015625)"/>
       </defs>
       <use xlink:href="#DejaVuSans-30"/>
       <use xlink:href="#DejaVuSans-2e" x="63.623047"/>
       <use xlink:href="#DejaVuSans-34" x="95.410156"/>
      </g>
     </g>
    </g>
    <g id="xtick_4">
     <g id="line2d_4">
      <g>
       <use xlink:href="#m5991367283" x="164.023125" y="253.44" style="stroke: #000000; stroke-width: 0.8"/>
      </g>
     </g>
     <g id="text_4">
      <!-- 0.6 -->
      <g transform="translate(156.071563 268.038437) scale(0.1 -0.1)">
       <defs>
        <path id="DejaVuSans-36" d="M 2113 2584 
Q 1688 2584 1439 2293 
Q 1191 2003 1191 1497 
Q 1191 994 1439 701 
Q 1688 409 2113 409 
Q 2538 409 2786 701 
Q 3034 994 3034 1497 
Q 3034 2003 2786 2293 
Q 2538 2584 2113 2584 
z
M 3366 4563 
L 3366 3988 
Q 3128 4100 2886 4159 
Q 2644 4219 2406 4219 
Q 1781 4219 1451 3797 
Q 1122 3375 1075 2522 
Q 1259 2794 1537 2939 
Q 1816 3084 2150 3084 
Q 2853 3084 3261 2657 
Q 3669 2231 3669 1497 
Q 3669 778 3244 343 
Q 2819 -91 2113 -91 
Q 1303 -91 875 529 
Q 447 1150 447 2328 
Q 447 3434 972 4092 
Q 1497 4750 2381 4750 
Q 2619 4750 2861 4703 
Q 3103 4656 3366 4563 
z
" transform="scale(0.015625)"/>
       </defs>
       <use xlink:href="#DejaVuSans-30"/>
       <use xlink:href="#DejaVuSans-2e" x="63.623047"/>
       <use xlink:href="#DejaVuSans-36" x="95.410156"/>
      </g>
     </g>
    </g>
    <g id="xtick_5">
     <g id="line2d_5">
      <g>
       <use xlink:href="#m5991367283" x="208.663125" y="253.44" style="stroke: #000000; stroke-width: 0.8"/>
      </g>
     </g>
     <g id="text_5">
      <!-- 0.8 -->
      <g transform="translate(200.711563 268.038437) scale(0.1 -0.1)">
       <defs>
        <path id="DejaVuSans-38" d="M 2034 2216 
Q 1584 2216 1326 1975 
Q 1069 1734 1069 1313 
Q 1069 891 1326 650 
Q 1584 409 2034 409 
Q 2484 409 2743 651 
Q 3003 894 3003 1313 
Q 3003 1734 2745 1975 
Q 2488 2216 2034 2216 
z
M 1403 2484 
Q 997 2584 770 2862 
Q 544 3141 544 3541 
Q 544 4100 942 4425 
Q 1341 4750 2034 4750 
Q 2731 4750 3128 4425 
Q 3525 4100 3525 3541 
Q 3525 3141 3298 2862 
Q 3072 2584 2669 2484 
Q 3125 2378 3379 2068 
Q 3634 1759 3634 1313 
Q 3634 634 3220 271 
Q 2806 -91 2034 -91 
Q 1263 -91 848 271 
Q 434 634 434 1313 
Q 434 1759 690 2068 
Q 947 2378 1403 2484 
z
M 1172 3481 
Q 1172 3119 1398 2916 
Q 1625 2713 2034 2713 
Q 2441 2713 2670 2916 
Q 2900 3119 2900 3481 
Q 2900 3844 2670 4047 
Q 2441 4250 2034 4250 
Q 1625 4250 1398 4047 
Q 1172 3844 1172 3481 
z
" transform="scale(0.015625)"/>
       </defs>
       <use xlink:href="#DejaVuSans-30"/>
       <use xlink:href="#DejaVuSans-2e" x="63.623047"/>
       <use xlink:href="#DejaVuSans-38" x="95.410156"/>
      </g>
     </g>
    </g>
    <g id="xtick_6">
     <g id="line2d_6">
      <g>
       <use xlink:href="#m5991367283" x="253.303125" y="253.44" style="stroke: #000000; stroke-width: 0.8"/>
      </g>
     </g>
     <g id="text_6">
      <!-- 1.0 -->
      <g transform="translate(245.351563 268.038437) scale(0.1 -0.1)">
       <defs>
        <path id="DejaVuSans-31" d="M 794 531 
L 1825 531 
L 1825 4091 
L 703 3866 
L 703 4441 
L 1819 4666 
L 2450 4666 
L 2450 531 
L 3481 531 
L 3481 0 
L 794 0 
L 794 531 
z
" transform="scale(0.015625)"/>
       </defs>
       <use xlink:href="#DejaVuSans-31"/>
       <use xlink:href="#DejaVuSans-2e" x="63.623047"/>
       <use xlink:href="#DejaVuSans-30" x="95.410156"/>
      </g>
     </g>
    </g>
    <g id="xtick_7">
     <g id="line2d_7">
      <g>
       <use xlink:href="#m5991367283" x="297.943125" y="253.44" style="stroke: #000000; stroke-width: 0.8"/>
      </g>
     </g>
     <g id="text_7">
      <!-- 1.2 -->
      <g transform="translate(289.991563 268.038437) scale(0.1 -0.1)">
       <use xlink:href="#DejaVuSans-31"/>
       <use xlink:href="#DejaVuSans-2e" x="63.623047"/>
       <use xlink:href="#DejaVuSans-32" x="95.410156"/>
      </g>
     </g>
    </g>
    <g id="xtick_8">
     <g id="line2d_8">
      <g>
       <use xlink:href="#m5991367283" x="342.583125" y="253.44" style="stroke: #000000; stroke-width: 0.8"/>
      </g>
     </g>
     <g id="text_8">
      <!-- 1.4 -->
      <g transform="translate(334.631563 268.038437) scale(0.1 -0.1)">
       <use xlink:href="#DejaVuSans-31"/>
       <use xlink:href="#DejaVuSans-2e" x="63.623047"/>
       <use xlink:href="#DejaVuSans-34" x="95.410156"/>
      </g>
     </g>
    </g>
   </g>
   <g id="matplotlib.axis_2">
    <g id="ytick_1">
     <g id="line2d_9">
      <defs>
       <path id="m80f8bc19f7" d="M 0 0 
L -3.5 0 
" style="stroke: #000000; stroke-width: 0.8"/>
      </defs>
      <g>
       <use xlink:href="#m80f8bc19f7" x="30.103125" y="229.337734" style="stroke: #000000; stroke-width: 0.8"/>
      </g>
     </g>
     <g id="text_9">
      <!-- 0.0 -->
      <g transform="translate(7.2 233.136953) scale(0.1 -0.1)">
       <use xlink:href="#DejaVuSans-30"/>
       <use xlink:href="#DejaVuSans-2e" x="63.623047"/>
       <use xlink:href="#DejaVuSans-30" x="95.410156"/>
      </g>
     </g>
    </g>
    <g id="ytick_2">
     <g id="line2d_10">
      <g>
       <use xlink:href="#m80f8bc19f7" x="30.103125" y="188.56993" style="stroke: #000000; stroke-width: 0.8"/>
      </g>
     </g>
     <g id="text_10">
      <!-- 0.2 -->
      <g transform="translate(7.2 192.369149) scale(0.1 -0.1)">
       <use xlink:href="#DejaVuSans-30"/>
       <use xlink:href="#DejaVuSans-2e" x="63.623047"/>
       <use xlink:href="#DejaVuSans-32" x="95.410156"/>
      </g>
     </g>
    </g>
    <g id="ytick_3">
     <g id="line2d_11">
      <g>
       <use xlink:href="#m80f8bc19f7" x="30.103125" y="147.802126" style="stroke: #000000; stroke-width: 0.8"/>
      </g>
     </g>
     <g id="text_11">
      <!-- 0.4 -->
      <g transform="translate(7.2 151.601345) scale(0.1 -0.1)">
       <use xlink:href="#DejaVuSans-30"/>
       <use xlink:href="#DejaVuSans-2e" x="63.623047"/>
       <use xlink:href="#DejaVuSans-34" x="95.410156"/>
      </g>
     </g>
    </g>
    <g id="ytick_4">
     <g id="line2d_12">
      <g>
       <use xlink:href="#m80f8bc19f7" x="30.103125" y="107.034322" style="stroke: #000000; stroke-width: 0.8"/>
      </g>
     </g>
     <g id="text_12">
      <!-- 0.6 -->
      <g transform="translate(7.2 110.833541) scale(0.1 -0.1)">
       <use xlink:href="#DejaVuSans-30"/>
       <use xlink:href="#DejaVuSans-2e" x="63.623047"/>
       <use xlink:href="#DejaVuSans-36" x="95.410156"/>
      </g>
     </g>
    </g>
    <g id="ytick_5">
     <g id="line2d_13">
      <g>
       <use xlink:href="#m80f8bc19f7" x="30.103125" y="66.266518" style="stroke: #000000; stroke-width: 0.8"/>
      </g>
     </g>
     <g id="text_13">
      <!-- 0.8 -->
      <g transform="translate(7.2 70.065737) scale(0.1 -0.1)">
       <use xlink:href="#DejaVuSans-30"/>
       <use xlink:href="#DejaVuSans-2e" x="63.623047"/>
       <use xlink:href="#DejaVuSans-38" x="95.410156"/>
      </g>
     </g>
    </g>
   </g>
   <g id="line2d_14">
    <path d="M 30.326325 229.337734 
L 39.031125 229.337734 
L 39.700725 181.78951 
L 40.370325 146.56492 
L 41.039925 120.469901 
L 41.709525 101.138236 
L 42.379125 86.816986 
L 43.048725 76.207543 
L 43.718325 68.347875 
L 44.387925 62.525289 
L 45.057525 58.211812 
L 45.727125 55.016309 
L 46.396725 52.649022 
L 47.066325 50.895293 
L 47.959125 49.242714 
L 48.851925 48.134957 
L 49.744725 47.392406 
L 50.860725 46.79835 
L 52.199925 46.385182 
L 53.985525 46.108434 
L 56.663925 45.950631 
L 62.467125 45.887668 
L 66.038325 45.883636 
L 66.707925 93.431596 
L 67.377525 128.65599 
L 68.047125 154.750864 
L 68.716725 174.082422 
L 69.386325 188.403592 
L 70.055925 199.012975 
L 70.725525 206.8726 
L 71.395125 212.695154 
L 72.064725 217.008607 
L 72.734325 220.204092 
L 73.403925 222.571366 
L 74.073525 224.325085 
L 74.966325 225.977655 
L 75.859125 227.085406 
L 76.751925 227.827953 
L 77.867925 228.422005 
L 79.207125 228.835171 
L 80.992725 229.111918 
L 83.671125 229.269719 
L 89.474325 229.332682 
L 143.265525 229.337734 
L 364.903125 229.337734 
L 364.903125 229.337734 
" clip-path="url(#p0d246f6b60)" style="fill: none; stroke: #1f77b4; stroke-width: 1.5; stroke-linecap: square"/>
   </g>
   <g id="line2d_15">
    <path d="M 30.326325 229.337734 
L 30.549525 229.91861 
L 30.772725 232.821117 
L 30.995925 233.405044 
L 31.219125 232.215894 
L 31.442325 234.894029 
L 31.665525 243.556364 
L 31.888725 242.479361 
L 32.335125 234.585746 
L 32.558325 236.87187 
L 32.781525 233.301452 
L 33.004725 235.320131 
L 33.227925 232.076576 
L 33.451125 227.054873 
L 33.674325 231.647008 
L 33.897525 228.860126 
L 34.120725 230.712219 
L 34.343925 234.923143 
L 34.567125 232.200178 
L 34.790325 233.59005 
L 35.013525 226.961706 
L 35.236725 227.188647 
L 35.459925 233.820068 
L 35.683125 229.359652 
L 35.906325 228.901975 
L 36.129525 227.152538 
L 36.575925 236.93061 
L 36.799125 236.208052 
L 37.022325 236.232496 
L 37.245525 234.183259 
L 37.468725 228.998099 
L 37.691925 232.932009 
L 37.915125 227.84076 
L 38.138325 228.379318 
L 38.361525 235.249522 
L 38.584725 232.325967 
L 38.807925 226.342209 
L 39.031125 230.687203 
L 39.254325 230.811026 
L 39.477525 228.429245 
L 39.700725 227.382749 
L 39.923925 232.971521 
L 40.370325 221.938665 
L 40.816725 217.276495 
L 41.039925 226.37547 
L 41.263125 226.143016 
L 41.709525 229.456184 
L 41.932725 227.381496 
L 42.155925 228.774207 
L 42.379125 227.088842 
L 42.602325 219.756046 
L 42.825525 218.683579 
L 43.048725 220.521401 
L 43.271925 218.600215 
L 43.495125 220.834163 
L 43.718325 213.793147 
L 44.164725 210.825685 
L 44.387925 213.49209 
L 45.057525 230.32442 
L 45.280725 225.643409 
L 45.727125 213.238825 
L 45.950325 214.95599 
L 46.173525 218.291074 
L 46.396725 216.61602 
L 46.843125 224.269373 
L 47.066325 221.51113 
L 47.289525 220.679605 
L 47.735925 212.923037 
L 47.959125 211.091769 
L 48.182325 208.317149 
L 48.628725 213.532147 
L 48.851925 211.948371 
L 49.075125 214.447533 
L 49.521525 210.406193 
L 49.744725 213.14696 
L 49.967925 213.009095 
L 50.191125 213.848991 
L 50.414325 216.232744 
L 50.637525 215.257766 
L 50.860725 213.06565 
L 51.083925 212.663652 
L 51.307125 214.306599 
L 51.530325 207.266373 
L 51.753525 212.393025 
L 51.976725 213.373194 
L 52.199925 210.824682 
L 52.423125 213.483541 
L 52.646325 201.188594 
L 52.869525 198.406956 
L 53.315925 207.751113 
L 53.539125 209.412197 
L 53.762325 204.6842 
L 53.985525 211.368994 
L 54.208725 214.708693 
L 54.431925 212.156452 
L 54.655125 207.992368 
L 54.878325 207.301864 
L 55.101525 207.929524 
L 55.324725 207.656199 
L 55.994325 214.993783 
L 56.217525 216.014842 
L 56.440725 205.032703 
L 56.887125 212.953951 
L 57.110325 212.180439 
L 57.333525 216.051443 
L 57.779925 208.81214 
L 58.003125 207.783797 
L 58.226325 204.049913 
L 58.449525 204.104616 
L 58.895925 195.767526 
L 59.119125 196.500208 
L 59.342325 193.623498 
L 59.565525 196.196649 
L 60.458325 213.995305 
L 60.681525 210.156268 
L 60.904725 210.685244 
L 61.127925 207.008658 
L 61.351125 207.282323 
L 61.797525 199.479823 
L 62.020725 197.924166 
L 62.243925 194.773385 
L 62.467125 195.940293 
L 62.690325 196.088874 
L 62.913525 196.781156 
L 63.136725 203.446459 
L 63.359925 205.029515 
L 63.806325 200.232898 
L 64.029525 200.201256 
L 64.475925 196.038796 
L 64.922325 196.8425 
L 65.368725 204.111813 
L 65.591925 212.534819 
L 65.815125 208.691338 
L 66.038325 207.176254 
L 66.261525 203.483568 
L 66.484725 195.882942 
L 66.707925 193.465303 
L 66.931125 193.367784 
L 67.154325 190.75368 
L 67.377525 191.927434 
L 67.823925 199.186138 
L 68.270325 204.813703 
L 68.493525 208.14851 
L 68.716725 201.787071 
L 68.939925 199.591491 
L 69.163125 206.457285 
L 69.386325 208.677753 
L 69.609525 205.429407 
L 69.832725 208.347818 
L 70.055925 206.924877 
L 70.279125 209.305285 
L 70.502325 205.10348 
L 70.725525 210.294208 
L 70.948725 207.075894 
L 71.171925 206.994064 
L 71.395125 210.553165 
L 71.618325 205.680337 
L 71.841525 197.172028 
L 72.064725 198.512582 
L 72.287925 202.500302 
L 72.511125 203.779466 
L 72.957525 209.184092 
L 73.180725 216.558582 
L 73.403925 216.549661 
L 73.627125 209.511149 
L 73.850325 216.261383 
L 74.296725 204.379434 
L 74.519925 195.991484 
L 74.743125 196.675422 
L 74.966325 202.20338 
L 75.189525 204.785555 
L 75.412725 202.483677 
L 75.859125 205.35228 
L 76.082325 200.661924 
L 76.305525 199.184038 
L 76.528725 205.178654 
L 76.751925 204.722362 
L 76.975125 203.826124 
L 77.421525 206.996491 
L 77.644725 210.860352 
L 77.867925 204.397833 
L 78.091125 205.671175 
L 78.314325 209.525863 
L 78.537525 208.032695 
L 78.760725 212.681992 
L 78.983925 213.11291 
L 79.207125 212.69314 
L 79.430325 208.017341 
L 79.876725 203.581402 
L 80.099925 205.315987 
L 80.323125 199.891171 
L 80.546325 204.784696 
L 80.769525 205.44461 
L 80.992725 203.494497 
L 81.215925 204.935704 
L 81.439125 211.813361 
L 81.885525 204.37035 
L 82.108725 211.942862 
L 82.555125 205.700757 
L 82.778325 204.128541 
L 83.224725 198.536879 
L 83.447925 201.77549 
L 83.894325 214.746221 
L 84.117525 213.125377 
L 84.340725 215.168651 
L 84.563925 204.085223 
L 84.787125 206.914984 
L 85.010325 201.888029 
L 85.233525 202.138667 
L 85.456725 201.467852 
L 86.126325 209.446314 
L 86.349525 217.403786 
L 86.572725 218.949634 
L 87.465525 194.755897 
L 87.688725 194.573092 
L 87.911925 196.797991 
L 88.135125 204.903384 
L 88.581525 210.656482 
L 89.027925 202.390457 
L 89.251125 209.806385 
L 89.474325 205.370572 
L 89.697525 206.635106 
L 89.920725 208.748866 
L 90.143925 206.167934 
L 90.367125 213.434099 
L 90.590325 205.194426 
L 90.813525 202.777543 
L 91.036725 206.757588 
L 91.259925 207.073829 
L 91.483125 207.950133 
L 91.929525 211.13733 
L 92.375925 215.876983 
L 92.822325 204.139937 
L 93.045525 206.922622 
L 93.268725 207.3055 
L 93.715125 200.988808 
L 93.938325 201.420325 
L 94.161525 203.277521 
L 94.384725 199.575814 
L 94.607925 202.950256 
L 94.831125 201.748555 
L 95.054325 206.287801 
L 95.277525 206.630658 
L 95.500725 206.358947 
L 95.723925 205.231704 
L 95.947125 207.030838 
L 96.170325 203.304646 
L 96.616725 206.947097 
L 97.063125 195.367321 
L 97.286325 203.590904 
L 97.509525 206.692353 
L 97.732725 206.062803 
L 97.955925 206.147064 
L 98.179125 205.447103 
L 98.625525 215.333601 
L 98.848725 215.042325 
L 99.071925 217.473965 
L 99.518325 208.389763 
L 99.741525 206.593631 
L 99.964725 206.300028 
L 100.411125 203.868747 
L 100.634325 202.911345 
L 100.857525 206.514696 
L 101.080725 206.970932 
L 101.303925 209.215276 
L 101.527125 212.608527 
L 101.750325 212.002558 
L 102.196725 202.059668 
L 102.419925 194.056008 
L 102.643125 194.214606 
L 103.089525 202.102359 
L 103.312725 203.789926 
L 103.759125 210.139436 
L 103.982325 210.893201 
L 104.205525 212.651377 
L 104.428725 213.18883 
L 104.875125 209.973836 
L 105.098325 208.598112 
L 105.321525 210.155193 
L 105.544725 208.037907 
L 105.767925 207.788478 
L 105.991125 205.373784 
L 106.214325 207.278784 
L 106.437525 199.061938 
L 106.660725 204.143931 
L 106.883925 205.76194 
L 107.107125 206.08621 
L 107.330325 204.452305 
L 107.553525 199.723513 
L 107.776725 200.054821 
L 108.223125 209.323203 
L 108.446325 200.66403 
L 108.669525 199.636255 
L 109.115925 204.352093 
L 109.339125 201.513549 
L 109.562325 204.270312 
L 109.785525 215.0086 
L 110.008725 214.013435 
L 110.231925 210.218826 
L 110.455125 214.637426 
L 110.678325 208.289566 
L 110.901525 207.320743 
L 111.571125 198.792615 
L 112.017525 211.199874 
L 112.463925 215.789798 
L 112.687125 209.039676 
L 112.910325 208.237134 
L 113.133525 203.076944 
L 113.356725 205.438027 
L 113.579925 204.57256 
L 113.803125 206.755279 
L 114.249525 208.041059 
L 114.472725 206.727235 
L 114.695925 203.398121 
L 114.919125 197.047451 
L 115.142325 195.907844 
L 115.365525 201.192151 
L 115.588725 203.587878 
L 115.811925 202.551983 
L 116.481525 212.553346 
L 116.704725 210.766959 
L 116.927925 211.106312 
L 117.151125 209.0077 
L 117.374325 205.177086 
L 117.597525 203.671423 
L 117.820725 204.449661 
L 118.043925 209.001654 
L 118.267125 206.69741 
L 118.490325 206.756939 
L 118.713525 211.886654 
L 118.936725 211.055274 
L 119.159925 208.846946 
L 119.383125 212.860074 
L 119.606325 206.606254 
L 119.829525 208.073644 
L 120.052725 212.047669 
L 120.275925 206.33516 
L 120.499125 204.384827 
L 120.722325 196.59899 
L 120.945525 196.799776 
L 121.168725 201.554645 
L 121.391925 202.864882 
L 121.615125 202.647518 
L 121.838325 204.120052 
L 122.061525 201.90062 
L 122.284725 203.235246 
L 122.507925 200.068719 
L 122.731125 206.292068 
L 122.954325 208.02115 
L 123.177525 205.834917 
L 123.400725 206.593803 
L 123.623925 204.765783 
L 124.070325 216.584765 
L 124.293525 208.310322 
L 124.516725 206.783803 
L 124.739925 203.023141 
L 124.963125 206.931985 
L 125.186325 207.09043 
L 125.409525 210.36865 
L 125.855925 205.617821 
L 126.079125 205.704997 
L 126.302325 205.344915 
L 126.525525 209.924367 
L 126.748725 211.875075 
L 126.971925 208.394729 
L 127.195125 208.896506 
L 127.418325 208.078473 
L 127.641525 203.604298 
L 127.864725 196.593606 
L 128.087925 201.886496 
L 128.311125 203.959817 
L 128.534325 211.159159 
L 128.980725 199.028211 
L 129.203925 205.487916 
L 129.427125 206.873804 
L 129.650325 210.326717 
L 129.873525 210.619965 
L 130.096725 208.081949 
L 130.319925 201.41192 
L 130.543125 201.181177 
L 130.766325 198.747289 
L 130.989525 206.343049 
L 131.212725 208.271762 
L 131.435925 207.558157 
L 131.659125 214.693473 
L 131.882325 215.733976 
L 132.328725 209.513191 
L 132.998325 197.696424 
L 133.221525 202.537864 
L 133.444725 202.352998 
L 133.667925 211.08417 
L 134.114325 203.695373 
L 134.560725 202.07785 
L 134.783925 205.372884 
L 135.007125 202.768012 
L 135.230325 201.963361 
L 135.453525 205.041302 
L 135.676725 213.735149 
L 135.899925 207.667341 
L 136.123125 209.874949 
L 136.569525 200.778926 
L 136.792725 200.688337 
L 137.015925 200.446162 
L 137.239125 202.632524 
L 137.685525 209.277569 
L 137.908725 217.333013 
L 138.131925 213.021402 
L 138.355125 215.119939 
L 138.801525 202.854167 
L 139.024725 203.098279 
L 139.247925 205.282252 
L 139.694325 200.039003 
L 139.917525 202.01212 
L 140.140725 212.22999 
L 140.363925 210.904407 
L 140.587125 208.377846 
L 140.810325 201.730161 
L 141.033525 210.097909 
L 141.256725 207.478454 
L 141.479925 203.503852 
L 141.703125 205.086471 
L 142.149525 199.272844 
L 142.372725 202.764457 
L 142.595925 210.718302 
L 143.042325 205.290892 
L 143.265525 199.885671 
L 143.488725 205.19152 
L 143.711925 205.174928 
L 143.935125 206.484923 
L 144.158325 215.124667 
L 144.381525 208.325065 
L 144.604725 206.583312 
L 144.827925 210.351549 
L 145.051125 202.214463 
L 145.274325 205.002668 
L 145.497525 201.794748 
L 145.720725 205.915044 
L 145.943925 205.191911 
L 146.167125 207.094481 
L 146.390325 207.605482 
L 146.613525 208.738853 
L 146.836725 203.507064 
L 147.059925 204.363732 
L 147.283125 203.219523 
L 147.506325 208.793189 
L 147.729525 207.407458 
L 148.175925 212.154445 
L 148.399125 209.716706 
L 148.622325 209.090364 
L 148.845525 209.318424 
L 149.068725 202.913745 
L 149.515125 197.666216 
L 149.738325 206.500574 
L 149.961525 206.744098 
L 150.184725 210.062369 
L 150.407925 208.813494 
L 150.631125 209.887293 
L 151.077525 199.51921 
L 151.300725 204.116075 
L 151.747125 204.562028 
L 151.970325 207.474486 
L 152.416725 203.58875 
L 152.639925 206.913482 
L 152.863125 208.027864 
L 153.086325 204.889609 
L 153.532725 210.862445 
L 153.755925 212.676555 
L 153.979125 212.076566 
L 154.202325 209.00825 
L 154.871925 206.150085 
L 155.095125 202.457755 
L 155.318325 201.223474 
L 155.987925 206.530828 
L 156.211125 201.408364 
L 156.434325 205.21241 
L 156.657525 206.330595 
L 156.880725 208.482576 
L 157.103925 212.119445 
L 157.327125 203.938132 
L 157.773525 198.376681 
L 157.996725 208.267495 
L 158.219925 207.940498 
L 158.666325 201.369688 
L 158.889525 198.492539 
L 159.112725 203.868179 
L 159.335925 202.301673 
L 159.559125 212.367304 
L 159.782325 211.513063 
L 160.005525 216.2716 
L 160.451925 210.453158 
L 160.675125 211.736 
L 160.898325 208.011794 
L 161.121525 202.322431 
L 161.344725 205.497636 
L 161.567925 201.989667 
L 161.791125 200.937081 
L 162.014325 205.807274 
L 162.460725 202.15298 
L 162.683925 207.674605 
L 162.907125 206.988553 
L 163.130325 208.329695 
L 163.353525 208.807495 
L 163.576725 202.343271 
L 163.799925 203.31079 
L 164.023125 202.389652 
L 164.246325 204.940222 
L 164.692725 211.407827 
L 164.915925 206.485581 
L 165.139125 205.483957 
L 165.362325 205.142404 
L 165.585525 202.269071 
L 165.808725 208.970031 
L 166.031925 210.863447 
L 166.255125 200.866014 
L 166.478325 201.542233 
L 166.701525 202.761123 
L 166.924725 203.336602 
L 167.371125 201.490343 
L 167.594325 203.123849 
L 167.817525 201.434048 
L 168.040725 203.685521 
L 168.263925 207.927403 
L 168.487125 209.541824 
L 168.710325 201.393613 
L 169.156725 213.39256 
L 169.379925 213.415287 
L 169.826325 210.103004 
L 170.049525 211.689551 
L 170.272725 207.581913 
L 170.495925 200.306484 
L 170.719125 208.879466 
L 171.165525 198.952419 
L 171.611925 205.178692 
L 172.058325 215.346752 
L 172.281525 214.36089 
L 172.504725 208.849715 
L 172.727925 207.572732 
L 172.951125 207.359626 
L 173.174325 209.900821 
L 173.397525 208.912303 
L 173.620725 203.724497 
L 173.843925 203.399378 
L 174.067125 201.154614 
L 174.290325 200.344935 
L 174.513525 200.243399 
L 174.736725 201.287547 
L 174.959925 201.740332 
L 175.183125 199.478845 
L 175.629525 208.042034 
L 175.852725 208.9434 
L 176.299125 216.942978 
L 176.522325 215.493146 
L 176.745525 209.755952 
L 176.968725 200.835874 
L 177.191925 200.285757 
L 177.415125 197.247657 
L 177.638325 199.919935 
L 177.861525 205.841655 
L 178.084725 206.493303 
L 178.531125 202.826009 
L 178.754325 202.904791 
L 178.977525 203.109852 
L 179.200725 204.589962 
L 179.647125 203.5194 
L 179.870325 202.022109 
L 180.093525 212.889915 
L 180.316725 215.532557 
L 180.539925 206.474957 
L 180.763125 203.267895 
L 180.986325 203.973311 
L 181.432725 208.477535 
L 181.655925 206.455696 
L 181.879125 207.667503 
L 182.102325 211.655743 
L 182.325525 211.08935 
L 182.548725 206.441278 
L 182.771925 207.858271 
L 182.995125 206.35272 
L 183.218325 209.78831 
L 183.441525 206.111813 
L 183.664725 206.58061 
L 183.887925 206.379359 
L 184.111125 204.569889 
L 184.334325 201.335648 
L 184.557525 204.576685 
L 184.780725 203.20565 
L 185.003925 205.051746 
L 185.227125 208.502257 
L 185.450325 210.217609 
L 185.896725 204.76956 
L 186.119925 204.321087 
L 186.343125 203.107607 
L 186.566325 206.997284 
L 187.012725 199.078247 
L 187.459125 207.551898 
L 187.682325 206.8371 
L 187.905525 209.418315 
L 188.128725 204.68437 
L 188.351925 207.464657 
L 188.575125 203.677427 
L 188.798325 213.04609 
L 189.021525 212.620143 
L 189.467925 207.348105 
L 189.914325 196.941974 
L 190.137525 208.514186 
L 190.360725 207.051142 
L 190.583925 199.226361 
L 191.030325 212.26187 
L 191.253525 212.06782 
L 191.476725 212.570057 
L 191.699925 207.053893 
L 191.923125 207.290627 
L 192.146325 209.717996 
L 192.592725 198.741067 
L 192.815925 202.562486 
L 193.039125 204.003235 
L 193.262325 208.02845 
L 193.485525 206.093903 
L 193.708725 206.032182 
L 193.931925 205.647216 
L 194.155125 207.567634 
L 194.378325 204.229956 
L 194.601525 202.80216 
L 195.047925 206.231596 
L 195.271125 206.303519 
L 195.494325 201.794295 
L 195.717525 203.664233 
L 195.940725 208.62665 
L 196.163925 211.054133 
L 196.387125 205.899221 
L 196.610325 204.386936 
L 196.833525 199.709067 
L 197.056725 199.982709 
L 197.279925 204.586982 
L 197.503125 203.691123 
L 197.726325 201.785329 
L 197.949525 204.978162 
L 198.172725 205.97563 
L 198.395925 213.253825 
L 198.619125 213.874537 
L 198.842325 213.252002 
L 199.065525 209.252991 
L 199.288725 209.697346 
L 199.511925 208.359633 
L 199.735125 215.745136 
L 199.958325 209.581113 
L 200.181525 210.453387 
L 201.074325 194.3211 
L 201.297525 196.286133 
L 201.520725 201.780193 
L 201.743925 201.322089 
L 201.967125 209.040975 
L 202.413525 214.512578 
L 202.636725 206.370811 
L 203.083125 201.543067 
L 203.306325 199.619413 
L 203.529525 200.006655 
L 203.752725 199.919186 
L 203.975925 209.862588 
L 204.199125 211.209423 
L 204.645525 215.585196 
L 204.868725 216.272811 
L 205.315125 202.953657 
L 205.538325 204.669886 
L 205.761525 202.333231 
L 206.207925 209.300411 
L 206.431125 208.579532 
L 206.654325 205.333051 
L 206.877525 204.563805 
L 207.100725 201.858662 
L 207.323925 201.510407 
L 207.547125 202.788066 
L 207.770325 202.913756 
L 207.993525 205.398228 
L 208.216725 205.212914 
L 208.439925 211.596998 
L 208.886325 201.855961 
L 209.109525 202.011741 
L 209.555925 205.449921 
L 209.779125 204.683711 
L 210.002325 201.021441 
L 210.225525 205.473537 
L 210.448725 212.842082 
L 210.671925 205.863058 
L 210.895125 209.13946 
L 211.118325 207.577981 
L 211.341525 213.682998 
L 211.564725 214.236127 
L 211.787925 207.550944 
L 212.011125 205.705854 
L 212.234325 205.610344 
L 212.457525 194.553542 
L 212.903925 205.783397 
L 213.127125 202.198987 
L 213.350325 206.806464 
L 213.573525 208.762135 
L 213.796725 206.65755 
L 214.019925 205.727318 
L 214.243125 208.307544 
L 214.466325 204.513287 
L 214.689525 210.237158 
L 214.912725 205.323483 
L 215.135925 204.79865 
L 215.359125 209.03104 
L 215.582325 208.105063 
L 215.805525 211.502216 
L 216.028725 206.665802 
L 216.251925 206.892131 
L 216.475125 205.898256 
L 216.698325 205.735278 
L 216.921525 207.214136 
L 217.144725 204.012619 
L 217.367925 204.262176 
L 217.814325 206.754399 
L 218.037525 200.349546 
L 218.260725 201.698106 
L 218.483925 204.355377 
L 218.707125 201.921944 
L 219.153525 212.262984 
L 219.376725 210.450363 
L 219.599925 203.284643 
L 219.823125 204.318532 
L 220.046325 205.950395 
L 220.269525 208.914025 
L 220.492725 210.075415 
L 220.715925 210.554927 
L 220.939125 204.973158 
L 221.162325 204.265763 
L 221.385525 206.265256 
L 221.608725 202.656595 
L 221.831925 202.325097 
L 222.055125 204.79873 
L 222.278325 201.23488 
L 222.947925 207.899078 
L 223.171125 205.394612 
L 223.394325 207.547272 
L 223.617525 210.794143 
L 223.840725 210.860089 
L 224.063925 208.751324 
L 224.287125 204.889457 
L 224.510325 198.60585 
L 224.733525 196.304367 
L 224.956725 197.973425 
L 225.179925 203.631145 
L 225.403125 205.169318 
L 225.626325 207.898625 
L 225.849525 207.778212 
L 226.072725 212.595025 
L 226.295925 211.99972 
L 226.519125 207.523884 
L 226.742325 211.635591 
L 227.188725 205.876364 
L 227.411925 199.741501 
L 227.635125 197.608267 
L 228.081525 214.947062 
L 228.304725 213.371492 
L 228.527925 206.598375 
L 228.751125 210.26715 
L 229.197525 207.335087 
L 229.643925 202.011818 
L 229.867125 201.114117 
L 230.090325 198.302018 
L 230.313525 197.419038 
L 230.536725 206.909792 
L 230.759925 209.796797 
L 230.983125 210.344116 
L 231.206325 207.62867 
L 231.429525 207.155763 
L 231.652725 209.780893 
L 232.322325 204.092801 
L 232.545525 204.896937 
L 232.768725 208.671563 
L 233.215125 208.873978 
L 233.438325 208.031243 
L 233.661525 205.40905 
L 234.107925 198.516204 
L 234.331125 201.418809 
L 235.000725 213.62757 
L 235.223925 211.228314 
L 235.447125 210.1622 
L 236.339925 201.527839 
L 236.563125 205.411401 
L 236.786325 199.043452 
L 237.009525 200.437598 
L 237.232725 199.730746 
L 237.455925 199.73246 
L 237.679125 197.333664 
L 237.902325 196.991772 
L 238.571925 202.780884 
L 238.795125 215.335749 
L 239.018325 217.006969 
L 239.464725 208.247583 
L 239.687925 207.896334 
L 239.911125 214.70914 
L 240.580725 212.03102 
L 240.803925 207.348451 
L 241.027125 209.873554 
L 241.250325 208.850638 
L 241.473525 211.220978 
L 241.696725 209.325182 
L 241.919925 198.884402 
L 242.143125 198.417764 
L 242.366325 193.199193 
L 242.589525 200.830218 
L 242.812725 200.045525 
L 243.259125 206.85356 
L 243.482325 207.470102 
L 243.705525 207.027756 
L 243.928725 214.753689 
L 244.151925 212.292514 
L 244.375125 207.269822 
L 244.598325 205.326702 
L 244.821525 201.397924 
L 245.044725 200.340323 
L 245.491125 210.076312 
L 245.714325 211.297815 
L 245.937525 211.858979 
L 246.160725 206.211224 
L 246.383925 206.4884 
L 246.607125 202.745872 
L 246.830325 203.334727 
L 247.053525 200.940963 
L 247.276725 204.67978 
L 247.499925 204.746031 
L 247.723125 211.411643 
L 247.946325 206.505647 
L 248.169525 209.066745 
L 248.839125 196.750555 
L 249.062325 198.496867 
L 249.285525 195.902037 
L 249.731925 211.352802 
L 249.955125 207.69545 
L 250.178325 205.8943 
L 250.401525 209.47136 
L 250.624725 206.818044 
L 250.847925 208.658368 
L 251.071125 207.547504 
L 251.294325 203.232216 
L 251.517525 203.391142 
L 251.963925 215.42023 
L 252.187125 214.22998 
L 252.410325 213.730181 
L 252.633525 209.606118 
L 253.079925 215.826442 
L 253.303125 211.606827 
L 253.526325 204.364042 
L 253.749525 204.455555 
L 253.972725 202.229908 
L 254.195925 198.049113 
L 254.419125 200.544896 
L 254.642325 195.412669 
L 254.865525 195.553126 
L 255.088725 199.376104 
L 255.535125 209.299392 
L 255.758325 204.407764 
L 255.981525 208.01579 
L 256.427925 204.313282 
L 256.651125 207.147335 
L 256.874325 204.178448 
L 257.097525 208.290271 
L 257.320725 206.842496 
L 257.543925 207.070687 
L 257.767125 203.373908 
L 257.990325 203.034389 
L 258.213525 201.009478 
L 258.436725 211.248295 
L 258.659925 211.52922 
L 258.883125 204.951028 
L 259.106325 204.183316 
L 259.552725 208.209863 
L 259.775925 213.45688 
L 259.999125 215.604619 
L 260.445525 208.058637 
L 260.668725 211.346776 
L 260.891925 210.129271 
L 261.115125 204.010626 
L 261.338325 194.544291 
L 261.784725 200.509077 
L 262.007925 198.284683 
L 262.231125 203.102076 
L 262.454325 211.275001 
L 262.677525 211.260174 
L 263.123925 206.382911 
L 263.347125 200.811713 
L 263.570325 198.620869 
L 264.016725 209.491132 
L 264.239925 210.620075 
L 264.463125 206.598107 
L 264.686325 206.617567 
L 264.909525 210.042516 
L 265.132725 207.657506 
L 265.355925 207.179894 
L 265.579125 204.358581 
L 265.802325 204.260742 
L 266.025525 208.189813 
L 266.248725 204.15187 
L 266.471925 205.003425 
L 266.695125 198.312452 
L 266.918325 201.75249 
L 267.141525 211.150098 
L 267.364725 209.830694 
L 267.587925 205.663343 
L 267.811125 206.787012 
L 268.034325 216.187177 
L 268.480725 201.023398 
L 268.703925 201.14613 
L 268.927125 200.774371 
L 269.150325 196.310682 
L 269.373525 204.974088 
L 269.596725 205.227987 
L 269.819925 204.285373 
L 270.043125 209.124276 
L 270.266325 211.522403 
L 270.489525 208.919584 
L 270.712725 209.720143 
L 270.935925 202.103144 
L 271.382325 206.57139 
L 271.605525 206.642754 
L 271.828725 210.115919 
L 272.051925 218.530031 
L 272.275125 212.230399 
L 272.498325 209.87221 
L 272.944725 202.454293 
L 273.167925 202.616907 
L 273.614325 198.096996 
L 273.837525 211.386513 
L 274.283925 204.578792 
L 274.507125 211.272884 
L 274.730325 210.575395 
L 274.953525 208.970535 
L 275.176725 213.685833 
L 275.399925 202.45937 
L 275.623125 202.109349 
L 275.846325 196.751912 
L 276.069525 198.413548 
L 276.292725 197.754683 
L 276.515925 203.113612 
L 276.962325 208.233514 
L 277.185525 207.683063 
L 277.408725 205.792842 
L 277.631925 202.407215 
L 277.855125 203.544083 
L 278.078325 201.717402 
L 278.301525 208.466277 
L 278.524725 203.346248 
L 278.747925 207.220521 
L 278.971125 205.967892 
L 279.194325 209.414003 
L 279.417525 205.550139 
L 279.640725 209.737113 
L 279.863925 210.672849 
L 280.087125 210.10288 
L 280.310325 214.698002 
L 280.756725 207.053737 
L 280.979925 203.970776 
L 281.203125 206.540021 
L 281.426325 199.943683 
L 281.649525 201.403936 
L 281.872725 200.351204 
L 282.095925 202.446547 
L 282.319125 196.644557 
L 282.542325 207.313469 
L 282.765525 210.70626 
L 282.988725 207.521743 
L 283.211925 201.331556 
L 283.435125 206.268985 
L 283.658325 204.929032 
L 283.881525 204.652746 
L 284.104725 204.775911 
L 284.327925 205.729565 
L 284.774325 215.801164 
L 284.997525 203.982494 
L 285.220725 203.803374 
L 285.443925 204.085203 
L 285.667125 207.450983 
L 285.890325 212.633459 
L 286.113525 209.743713 
L 286.336725 210.300924 
L 286.783125 209.382749 
L 287.006325 204.815302 
L 287.229525 207.460706 
L 287.452725 201.698094 
L 287.899125 207.868923 
L 288.122325 203.118422 
L 288.345525 204.256555 
L 288.568725 200.7538 
L 288.791925 207.667476 
L 289.015125 205.7009 
L 289.238325 199.340561 
L 289.461525 199.736564 
L 289.684725 202.743779 
L 289.907925 203.621659 
L 290.131125 211.18942 
L 290.354325 204.105591 
L 290.800725 209.702637 
L 291.023925 207.377595 
L 291.247125 210.16705 
L 291.470325 205.76649 
L 291.693525 204.403311 
L 291.916725 207.26314 
L 292.363125 202.806906 
L 292.586325 204.435807 
L 292.809525 210.160248 
L 293.032725 208.327093 
L 293.255925 198.372208 
L 293.702325 209.669038 
L 293.925525 203.656872 
L 294.148725 205.977142 
L 294.371925 201.282236 
L 294.595125 200.030353 
L 294.818325 203.295515 
L 295.041525 202.57975 
L 295.264725 205.19449 
L 295.487925 211.928328 
L 295.711125 212.165539 
L 295.934325 206.079516 
L 296.157525 210.501023 
L 296.380725 203.527366 
L 296.603925 203.211664 
L 297.273525 214.536554 
L 297.496725 212.377909 
L 297.719925 206.977612 
L 297.943125 205.293452 
L 298.166325 207.662726 
L 298.612725 200.539645 
L 298.835925 203.565584 
L 299.059125 204.499579 
L 299.282325 201.111916 
L 299.505525 194.748296 
L 299.728725 199.590117 
L 299.951925 210.761811 
L 300.175125 208.049606 
L 300.398325 206.909619 
L 300.621525 209.23085 
L 301.067925 202.343503 
L 301.291125 209.079701 
L 301.514325 210.681221 
L 301.737525 208.630063 
L 301.960725 209.803353 
L 302.183925 210.363561 
L 302.407125 205.51068 
L 302.630325 206.516716 
L 302.853525 208.600918 
L 303.076725 206.016445 
L 303.299925 199.924161 
L 303.523125 199.572482 
L 303.746325 207.908584 
L 303.969525 205.601614 
L 304.192725 197.554804 
L 304.639125 207.159745 
L 304.862325 204.132753 
L 305.308725 214.682759 
L 305.531925 202.372617 
L 305.755125 206.368022 
L 305.978325 203.579596 
L 306.424725 210.645684 
L 306.647925 206.854498 
L 306.871125 205.279071 
L 307.094325 206.90325 
L 307.317525 205.730692 
L 307.540725 203.159157 
L 307.763925 205.813481 
L 307.987125 203.374811 
L 308.210325 205.580003 
L 308.433525 198.377765 
L 308.656725 198.789697 
L 308.879925 203.545948 
L 309.103125 204.13299 
L 309.326325 210.785682 
L 309.549525 211.51015 
L 309.772725 205.337879 
L 309.995925 209.830429 
L 310.219125 205.481952 
L 310.442325 205.747631 
L 310.665525 200.233239 
L 310.888725 207.838711 
L 311.111925 200.831615 
L 311.335125 208.625278 
L 311.558325 210.316908 
L 311.781525 214.46448 
L 312.004725 212.538891 
L 312.227925 208.188367 
L 312.451125 209.174786 
L 312.674325 206.650303 
L 312.897525 201.383106 
L 313.120725 202.464631 
L 313.343925 207.661922 
L 313.567125 205.921505 
L 313.790325 207.187244 
L 314.236725 204.238818 
L 314.459925 205.355685 
L 314.683125 203.230492 
L 315.129525 204.409721 
L 315.352725 201.450574 
L 315.575925 209.286212 
L 315.799125 210.688647 
L 316.022325 205.858059 
L 316.245525 206.647462 
L 316.468725 213.334009 
L 316.691925 212.248005 
L 316.915125 208.184117 
L 317.361525 196.619233 
L 318.031125 207.95876 
L 318.254325 210.399225 
L 318.477525 200.655189 
L 318.700725 202.812615 
L 318.923925 206.277738 
L 319.147125 206.866102 
L 319.370325 199.088066 
L 319.593525 199.452559 
L 319.816725 205.379693 
L 320.039925 206.930769 
L 320.263125 213.379009 
L 320.709525 207.395805 
L 320.932725 207.537126 
L 321.155925 208.119322 
L 321.379125 207.39169 
L 321.602325 202.12504 
L 321.825525 209.091174 
L 322.048725 207.405995 
L 322.271925 209.651204 
L 322.718325 205.018578 
L 322.941525 205.454422 
L 323.164725 207.762067 
L 323.387925 204.688462 
L 323.611125 199.346058 
L 323.834325 209.851972 
L 324.057525 212.505867 
L 324.280725 206.392281 
L 324.503925 206.9298 
L 324.950325 198.296699 
L 325.173525 193.501719 
L 325.396725 198.437727 
L 325.619925 199.347003 
L 326.066325 217.577218 
L 326.512725 213.084554 
L 326.735925 207.148171 
L 326.959125 211.489768 
L 327.182325 201.924833 
L 327.628725 197.793473 
L 327.851925 199.001967 
L 328.075125 207.179124 
L 328.298325 211.197831 
L 328.521525 210.245338 
L 328.744725 211.173843 
L 328.967925 204.16667 
L 329.191125 202.802328 
L 329.414325 202.833683 
L 329.637525 199.633762 
L 329.860725 206.111899 
L 330.083925 207.366372 
L 330.307125 204.20031 
L 330.530325 210.325849 
L 330.753525 206.991421 
L 331.199925 209.345594 
L 331.423125 207.745884 
L 331.646325 201.87176 
L 332.092725 212.179232 
L 332.315925 206.662699 
L 332.539125 205.675985 
L 332.762325 210.877075 
L 333.208725 206.838352 
L 333.431925 209.337341 
L 333.878325 203.364943 
L 334.101525 202.765256 
L 334.324725 198.578386 
L 334.547925 204.465683 
L 334.771125 203.96492 
L 334.994325 207.328119 
L 335.217525 205.285118 
L 335.440725 205.357458 
L 335.663925 208.854008 
L 335.887125 207.776052 
L 336.110325 205.980551 
L 336.333525 208.503596 
L 336.556725 200.32961 
L 336.779925 201.618904 
L 337.003125 206.435192 
L 337.226325 204.928325 
L 337.449525 205.523708 
L 337.672725 208.403255 
L 338.119125 202.36948 
L 338.342325 203.695473 
L 338.565525 202.369106 
L 339.011925 194.918588 
L 339.235125 204.214715 
L 339.458325 207.921806 
L 339.904725 203.309494 
L 340.127925 203.056495 
L 340.351125 210.687988 
L 340.574325 211.839364 
L 340.797525 212.405245 
L 341.020725 210.341499 
L 341.467125 213.798858 
L 341.690325 209.286033 
L 341.913525 209.540485 
L 342.136725 211.517914 
L 342.359925 210.080067 
L 342.583125 203.70204 
L 342.806325 201.385284 
L 343.029525 197.161841 
L 343.252725 204.551171 
L 343.475925 203.898241 
L 343.699125 206.027694 
L 343.922325 204.687094 
L 344.145525 208.702435 
L 344.368725 207.906709 
L 344.591925 212.62174 
L 345.038325 201.749615 
L 345.261525 206.096424 
L 345.484725 202.985812 
L 345.707925 201.533008 
L 345.931125 202.384553 
L 346.154325 212.063543 
L 346.377525 212.056207 
L 346.600725 211.840522 
L 346.823925 208.250506 
L 347.047125 207.233904 
L 347.493525 196.590654 
L 347.716725 197.553214 
L 347.939925 202.217172 
L 348.163125 211.400224 
L 348.386325 208.202202 
L 348.609525 207.384378 
L 348.832725 204.365943 
L 349.055925 203.646107 
L 349.279125 206.346106 
L 349.502325 202.723689 
L 349.725525 205.025659 
L 349.948725 201.51872 
L 350.395125 205.537874 
L 350.618325 205.837975 
L 350.841525 215.705887 
L 351.064725 210.870741 
L 351.287925 209.638465 
L 351.511125 207.163885 
L 351.734325 209.52443 
L 351.957525 202.382524 
L 352.403925 198.994755 
L 352.627125 202.867787 
L 353.073525 205.722351 
L 353.296725 203.063422 
L 353.519925 204.903566 
L 353.743125 204.775771 
L 353.966325 208.380763 
L 354.189525 210.146585 
L 354.412725 201.706607 
L 354.635925 203.277651 
L 354.859125 208.203831 
L 355.082325 203.395463 
L 355.305525 206.596738 
L 355.528725 206.126866 
L 355.751925 208.149157 
L 355.975125 208.374355 
L 356.644725 220.351412 
L 356.867925 221.647718 
L 357.091125 208.703802 
L 357.537525 197.43709 
L 357.760725 197.71175 
L 358.207125 193.871271 
L 358.430325 194.694426 
L 358.653525 203.309843 
L 359.323125 214.0606 
L 359.546325 208.689997 
L 359.769525 209.098049 
L 359.992725 205.443255 
L 360.439125 202.128603 
L 360.662325 203.578998 
L 360.885525 202.775119 
L 361.108725 205.97751 
L 361.331925 202.594608 
L 361.555125 207.393292 
L 361.778325 208.790579 
L 362.224725 204.27451 
L 362.447925 206.260671 
L 362.671125 202.177952 
L 362.894325 205.868428 
L 363.117525 207.204096 
L 363.340725 210.603589 
L 363.563925 210.452366 
L 363.787125 214.68091 
L 364.010325 209.293149 
L 364.233525 211.040211 
L 364.456725 205.675894 
L 364.903125 201.634499 
L 364.903125 201.634499 
" clip-path="url(#p0d246f6b60)" style="fill: none; stroke: #ff7f0e; stroke-width: 1.5; stroke-linecap: square"/>
   </g>
   <g id="patch_3">
    <path d="M 30.103125 253.44 
L 30.103125 36 
" style="fill: none; stroke: #000000; stroke-width: 0.8; stroke-linejoin: miter; stroke-linecap: square"/>
   </g>
   <g id="patch_4">
    <path d="M 364.903125 253.44 
L 364.903125 36 
" style="fill: none; stroke: #000000; stroke-width: 0.8; stroke-linejoin: miter; stroke-linecap: square"/>
   </g>
   <g id="patch_5">
    <path d="M 30.103125 253.44 
L 364.903125 253.44 
" style="fill: none; stroke: #000000; stroke-width: 0.8; stroke-linejoin: miter; stroke-linecap: square"/>
   </g>
   <g id="patch_6">
    <path d="M 30.103125 36 
L 364.903125 36 
" style="fill: none; stroke: #000000; stroke-width: 0.8; stroke-linejoin: miter; stroke-linecap: square"/>
   </g>
   <g id="legend_1">
    <g id="patch_7">
     <path d="M 288.403125 86.278125 
L 357.903125 86.278125 
Q 359.903125 86.278125 359.903125 84.278125 
L 359.903125 43 
Q 359.903125 41 357.903125 41 
L 288.403125 41 
Q 286.403125 41 286.403125 43 
L 286.403125 84.278125 
Q 286.403125 86.278125 288.403125 86.278125 
z
" style="fill: #ffffff; opacity: 0.8; stroke: #cccccc; stroke-linejoin: miter"/>
    </g>
    <g id="line2d_16">
     <path d="M 290.403125 49.098437 
L 300.403125 49.098437 
L 310.403125 49.098437 
" style="fill: none; stroke: #1f77b4; stroke-width: 1.5; stroke-linecap: square"/>
    </g>
    <g id="text_14">
     <!-- $x(t)$ -->
     <g transform="translate(318.403125 52.598437) scale(0.1 -0.1)">
      <defs>
       <path id="DejaVuSans-Oblique-78" d="M 3841 3500 
L 2234 1784 
L 3219 0 
L 2559 0 
L 1819 1388 
L 531 0 
L -166 0 
L 1556 1844 
L 641 3500 
L 1300 3500 
L 1972 2234 
L 3144 3500 
L 3841 3500 
z
" transform="scale(0.015625)"/>
       <path id="DejaVuSans-28" d="M 1984 4856 
Q 1566 4138 1362 3434 
Q 1159 2731 1159 2009 
Q 1159 1288 1364 580 
Q 1569 -128 1984 -844 
L 1484 -844 
Q 1016 -109 783 600 
Q 550 1309 550 2009 
Q 550 2706 781 3412 
Q 1013 4119 1484 4856 
L 1984 4856 
z
" transform="scale(0.015625)"/>
       <path id="DejaVuSans-Oblique-74" d="M 2706 3500 
L 2619 3053 
L 1472 3053 
L 1100 1153 
Q 1081 1047 1072 975 
Q 1063 903 1063 863 
Q 1063 663 1183 572 
Q 1303 481 1569 481 
L 2150 481 
L 2053 0 
L 1503 0 
Q 991 0 739 200 
Q 488 400 488 806 
Q 488 878 497 964 
Q 506 1050 525 1153 
L 897 3053 
L 409 3053 
L 500 3500 
L 978 3500 
L 1172 4494 
L 1747 4494 
L 1556 3500 
L 2706 3500 
z
" transform="scale(0.015625)"/>
       <path id="DejaVuSans-29" d="M 513 4856 
L 1013 4856 
Q 1481 4119 1714 3412 
Q 1947 2706 1947 2009 
Q 1947 1309 1714 600 
Q 1481 -109 1013 -844 
L 513 -844 
Q 928 -128 1133 580 
Q 1338 1288 1338 2009 
Q 1338 2731 1133 3434 
Q 928 4138 513 4856 
z
" transform="scale(0.015625)"/>
      </defs>
      <use xlink:href="#DejaVuSans-Oblique-78" transform="translate(0 0.125)"/>
      <use xlink:href="#DejaVuSans-28" transform="translate(59.179688 0.125)"/>
      <use xlink:href="#DejaVuSans-Oblique-74" transform="translate(98.193359 0.125)"/>
      <use xlink:href="#DejaVuSans-29" transform="translate(137.402344 0.125)"/>
     </g>
    </g>
    <g id="line2d_17">
     <path d="M 290.403125 73.478125 
L 300.403125 73.478125 
L 310.403125 73.478125 
" style="fill: none; stroke: #ff7f0e; stroke-width: 1.5; stroke-linecap: square"/>
    </g>
    <g id="text_15">
     <!-- $\hat{\int_{0}^{1.5}{x(t)}}$ -->
     <g transform="translate(318.403125 76.978125) scale(0.1 -0.1)">
      <defs>
       <path id="DejaVuSans-302" d="M -1831 5119 
L -1369 5119 
L -603 3944 
L -1038 3944 
L -1600 4709 
L -2163 3944 
L -2597 3944 
L -1831 5119 
z
M -1600 3584 
L -1600 3584 
z
" transform="scale(0.015625)"/>
       <path id="DejaVuSansDisplay-222b" d="M 2134 5525 
Q 2172 6263 2528 6556 
Q 2884 6850 3218 6850 
Q 3553 6850 3833 6575 
Q 4113 6300 4200 5678 
L 3544 5613 
Q 3469 6188 3219 6188 
Q 2906 6188 2869 5413 
L 2581 -597 
Q 2547 -1334 2187 -1628 
Q 1828 -1922 1497 -1922 
Q 1163 -1922 883 -1647 
Q 603 -1372 516 -750 
L 1172 -684 
Q 1247 -1259 1497 -1259 
Q 1809 -1259 1847 -488 
L 2134 5525 
z
" transform="scale(0.015625)"/>
       <path id="DejaVuSans-35" d="M 691 4666 
L 3169 4666 
L 3169 4134 
L 1269 4134 
L 1269 2991 
Q 1406 3038 1543 3061 
Q 1681 3084 1819 3084 
Q 2600 3084 3056 2656 
Q 3513 2228 3513 1497 
Q 3513 744 3044 326 
Q 2575 -91 1722 -91 
Q 1428 -91 1123 -41 
Q 819 9 494 109 
L 494 744 
Q 775 591 1075 516 
Q 1375 441 1709 441 
Q 2250 441 2565 725 
Q 2881 1009 2881 1497 
Q 2881 1984 2565 2268 
Q 2250 2553 1709 2553 
Q 1456 2553 1204 2497 
Q 953 2441 691 2322 
L 691 4666 
z
" transform="scale(0.015625)"/>
      </defs>
      <use xlink:href="#DejaVuSans-302" transform="translate(259.198975 93.015625)"/>
      <use xlink:href="#DejaVuSansDisplay-222b" transform="translate(0 0.325)"/>
      <use xlink:href="#DejaVuSans-31" transform="translate(86.744141 85.48125) scale(0.7)"/>
      <use xlink:href="#DejaVuSans-2e" transform="translate(131.280273 85.48125) scale(0.7)"/>
      <use xlink:href="#DejaVuSans-35" transform="translate(153.53125 85.48125) scale(0.7)"/>
      <use xlink:href="#DejaVuSans-30" transform="translate(71.759766 -51.58125) scale(0.7)"/>
      <use xlink:href="#DejaVuSans-Oblique-78" transform="translate(198.067383 0.325)"/>
      <use xlink:href="#DejaVuSans-28" transform="translate(257.24707 0.325)"/>
      <use xlink:href="#DejaVuSans-Oblique-74" transform="translate(296.260742 0.325)"/>
      <use xlink:href="#DejaVuSans-29" transform="translate(335.469727 0.325)"/>
     </g>
    </g>
   </g>
  </g>
  <g id="text_16">
   <!-- Neural Integrator for a step input -->
   <g transform="translate(92.3775 16.318125) scale(0.12 -0.12)">
    <defs>
     <path id="DejaVuSans-4e" d="M 628 4666 
L 1478 4666 
L 3547 763 
L 3547 4666 
L 4159 4666 
L 4159 0 
L 3309 0 
L 1241 3903 
L 1241 0 
L 628 0 
L 628 4666 
z
" transform="scale(0.015625)"/>
     <path id="DejaVuSans-65" d="M 3597 1894 
L 3597 1613 
L 953 1613 
Q 991 1019 1311 708 
Q 1631 397 2203 397 
Q 2534 397 2845 478 
Q 3156 559 3463 722 
L 3463 178 
Q 3153 47 2828 -22 
Q 2503 -91 2169 -91 
Q 1331 -91 842 396 
Q 353 884 353 1716 
Q 353 2575 817 3079 
Q 1281 3584 2069 3584 
Q 2775 3584 3186 3129 
Q 3597 2675 3597 1894 
z
M 3022 2063 
Q 3016 2534 2758 2815 
Q 2500 3097 2075 3097 
Q 1594 3097 1305 2825 
Q 1016 2553 972 2059 
L 3022 2063 
z
" transform="scale(0.015625)"/>
     <path id="DejaVuSans-75" d="M 544 1381 
L 544 3500 
L 1119 3500 
L 1119 1403 
Q 1119 906 1312 657 
Q 1506 409 1894 409 
Q 2359 409 2629 706 
Q 2900 1003 2900 1516 
L 2900 3500 
L 3475 3500 
L 3475 0 
L 2900 0 
L 2900 538 
Q 2691 219 2414 64 
Q 2138 -91 1772 -91 
Q 1169 -91 856 284 
Q 544 659 544 1381 
z
M 1991 3584 
L 1991 3584 
z
" transform="scale(0.015625)"/>
     <path id="DejaVuSans-72" d="M 2631 2963 
Q 2534 3019 2420 3045 
Q 2306 3072 2169 3072 
Q 1681 3072 1420 2755 
Q 1159 2438 1159 1844 
L 1159 0 
L 581 0 
L 581 3500 
L 1159 3500 
L 1159 2956 
Q 1341 3275 1631 3429 
Q 1922 3584 2338 3584 
Q 2397 3584 2469 3576 
Q 2541 3569 2628 3553 
L 2631 2963 
z
" transform="scale(0.015625)"/>
     <path id="DejaVuSans-61" d="M 2194 1759 
Q 1497 1759 1228 1600 
Q 959 1441 959 1056 
Q 959 750 1161 570 
Q 1363 391 1709 391 
Q 2188 391 2477 730 
Q 2766 1069 2766 1631 
L 2766 1759 
L 2194 1759 
z
M 3341 1997 
L 3341 0 
L 2766 0 
L 2766 531 
Q 2569 213 2275 61 
Q 1981 -91 1556 -91 
Q 1019 -91 701 211 
Q 384 513 384 1019 
Q 384 1609 779 1909 
Q 1175 2209 1959 2209 
L 2766 2209 
L 2766 2266 
Q 2766 2663 2505 2880 
Q 2244 3097 1772 3097 
Q 1472 3097 1187 3025 
Q 903 2953 641 2809 
L 641 3341 
Q 956 3463 1253 3523 
Q 1550 3584 1831 3584 
Q 2591 3584 2966 3190 
Q 3341 2797 3341 1997 
z
" transform="scale(0.015625)"/>
     <path id="DejaVuSans-6c" d="M 603 4863 
L 1178 4863 
L 1178 0 
L 603 0 
L 603 4863 
z
" transform="scale(0.015625)"/>
     <path id="DejaVuSans-20" transform="scale(0.015625)"/>
     <path id="DejaVuSans-49" d="M 628 4666 
L 1259 4666 
L 1259 0 
L 628 0 
L 628 4666 
z
" transform="scale(0.015625)"/>
     <path id="DejaVuSans-6e" d="M 3513 2113 
L 3513 0 
L 2938 0 
L 2938 2094 
Q 2938 2591 2744 2837 
Q 2550 3084 2163 3084 
Q 1697 3084 1428 2787 
Q 1159 2491 1159 1978 
L 1159 0 
L 581 0 
L 581 3500 
L 1159 3500 
L 1159 2956 
Q 1366 3272 1645 3428 
Q 1925 3584 2291 3584 
Q 2894 3584 3203 3211 
Q 3513 2838 3513 2113 
z
" transform="scale(0.015625)"/>
     <path id="DejaVuSans-74" d="M 1172 4494 
L 1172 3500 
L 2356 3500 
L 2356 3053 
L 1172 3053 
L 1172 1153 
Q 1172 725 1289 603 
Q 1406 481 1766 481 
L 2356 481 
L 2356 0 
L 1766 0 
Q 1100 0 847 248 
Q 594 497 594 1153 
L 594 3053 
L 172 3053 
L 172 3500 
L 594 3500 
L 594 4494 
L 1172 4494 
z
" transform="scale(0.015625)"/>
     <path id="DejaVuSans-67" d="M 2906 1791 
Q 2906 2416 2648 2759 
Q 2391 3103 1925 3103 
Q 1463 3103 1205 2759 
Q 947 2416 947 1791 
Q 947 1169 1205 825 
Q 1463 481 1925 481 
Q 2391 481 2648 825 
Q 2906 1169 2906 1791 
z
M 3481 434 
Q 3481 -459 3084 -895 
Q 2688 -1331 1869 -1331 
Q 1566 -1331 1297 -1286 
Q 1028 -1241 775 -1147 
L 775 -588 
Q 1028 -725 1275 -790 
Q 1522 -856 1778 -856 
Q 2344 -856 2625 -561 
Q 2906 -266 2906 331 
L 2906 616 
Q 2728 306 2450 153 
Q 2172 0 1784 0 
Q 1141 0 747 490 
Q 353 981 353 1791 
Q 353 2603 747 3093 
Q 1141 3584 1784 3584 
Q 2172 3584 2450 3431 
Q 2728 3278 2906 2969 
L 2906 3500 
L 3481 3500 
L 3481 434 
z
" transform="scale(0.015625)"/>
     <path id="DejaVuSans-6f" d="M 1959 3097 
Q 1497 3097 1228 2736 
Q 959 2375 959 1747 
Q 959 1119 1226 758 
Q 1494 397 1959 397 
Q 2419 397 2687 759 
Q 2956 1122 2956 1747 
Q 2956 2369 2687 2733 
Q 2419 3097 1959 3097 
z
M 1959 3584 
Q 2709 3584 3137 3096 
Q 3566 2609 3566 1747 
Q 3566 888 3137 398 
Q 2709 -91 1959 -91 
Q 1206 -91 779 398 
Q 353 888 353 1747 
Q 353 2609 779 3096 
Q 1206 3584 1959 3584 
z
" transform="scale(0.015625)"/>
     <path id="DejaVuSans-66" d="M 2375 4863 
L 2375 4384 
L 1825 4384 
Q 1516 4384 1395 4259 
Q 1275 4134 1275 3809 
L 1275 3500 
L 2222 3500 
L 2222 3053 
L 1275 3053 
L 1275 0 
L 697 0 
L 697 3053 
L 147 3053 
L 147 3500 
L 697 3500 
L 697 3744 
Q 697 4328 969 4595 
Q 1241 4863 1831 4863 
L 2375 4863 
z
" transform="scale(0.015625)"/>
     <path id="DejaVuSans-73" d="M 2834 3397 
L 2834 2853 
Q 2591 2978 2328 3040 
Q 2066 3103 1784 3103 
Q 1356 3103 1142 2972 
Q 928 2841 928 2578 
Q 928 2378 1081 2264 
Q 1234 2150 1697 2047 
L 1894 2003 
Q 2506 1872 2764 1633 
Q 3022 1394 3022 966 
Q 3022 478 2636 193 
Q 2250 -91 1575 -91 
Q 1294 -91 989 -36 
Q 684 19 347 128 
L 347 722 
Q 666 556 975 473 
Q 1284 391 1588 391 
Q 1994 391 2212 530 
Q 2431 669 2431 922 
Q 2431 1156 2273 1281 
Q 2116 1406 1581 1522 
L 1381 1569 
Q 847 1681 609 1914 
Q 372 2147 372 2553 
Q 372 3047 722 3315 
Q 1072 3584 1716 3584 
Q 2034 3584 2315 3537 
Q 2597 3491 2834 3397 
z
" transform="scale(0.015625)"/>
     <path id="DejaVuSans-70" d="M 1159 525 
L 1159 -1331 
L 581 -1331 
L 581 3500 
L 1159 3500 
L 1159 2969 
Q 1341 3281 1617 3432 
Q 1894 3584 2278 3584 
Q 2916 3584 3314 3078 
Q 3713 2572 3713 1747 
Q 3713 922 3314 415 
Q 2916 -91 2278 -91 
Q 1894 -91 1617 61 
Q 1341 213 1159 525 
z
M 3116 1747 
Q 3116 2381 2855 2742 
Q 2594 3103 2138 3103 
Q 1681 3103 1420 2742 
Q 1159 2381 1159 1747 
Q 1159 1113 1420 752 
Q 1681 391 2138 391 
Q 2594 391 2855 752 
Q 3116 1113 3116 1747 
z
" transform="scale(0.015625)"/>
     <path id="DejaVuSans-69" d="M 603 3500 
L 1178 3500 
L 1178 0 
L 603 0 
L 603 3500 
z
M 603 4863 
L 1178 4863 
L 1178 4134 
L 603 4134 
L 603 4863 
z
" transform="scale(0.015625)"/>
    </defs>
    <use xlink:href="#DejaVuSans-4e"/>
    <use xlink:href="#DejaVuSans-65" x="74.804688"/>
    <use xlink:href="#DejaVuSans-75" x="136.328125"/>
    <use xlink:href="#DejaVuSans-72" x="199.707031"/>
    <use xlink:href="#DejaVuSans-61" x="240.820312"/>
    <use xlink:href="#DejaVuSans-6c" x="302.099609"/>
    <use xlink:href="#DejaVuSans-20" x="329.882812"/>
    <use xlink:href="#DejaVuSans-49" x="361.669922"/>
    <use xlink:href="#DejaVuSans-6e" x="391.162109"/>
    <use xlink:href="#DejaVuSans-74" x="454.541016"/>
    <use xlink:href="#DejaVuSans-65" x="493.75"/>
    <use xlink:href="#DejaVuSans-67" x="555.273438"/>
    <use xlink:href="#DejaVuSans-72" x="618.75"/>
    <use xlink:href="#DejaVuSans-61" x="659.863281"/>
    <use xlink:href="#DejaVuSans-74" x="721.142578"/>
    <use xlink:href="#DejaVuSans-6f" x="760.351562"/>
    <use xlink:href="#DejaVuSans-72" x="821.533203"/>
    <use xlink:href="#DejaVuSans-20" x="862.646484"/>
    <use xlink:href="#DejaVuSans-66" x="894.433594"/>
    <use xlink:href="#DejaVuSans-6f" x="929.638672"/>
    <use xlink:href="#DejaVuSans-72" x="990.820312"/>
    <use xlink:href="#DejaVuSans-20" x="1031.933594"/>
    <use xlink:href="#DejaVuSans-61" x="1063.720703"/>
    <use xlink:href="#DejaVuSans-20" x="1125"/>
    <use xlink:href="#DejaVuSans-73" x="1156.787109"/>
    <use xlink:href="#DejaVuSans-74" x="1208.886719"/>
    <use xlink:href="#DejaVuSans-65" x="1248.095703"/>
    <use xlink:href="#DejaVuSans-70" x="1309.619141"/>
    <use xlink:href="#DejaVuSans-20" x="1373.095703"/>
    <use xlink:href="#DejaVuSans-69" x="1404.882812"/>
    <use xlink:href="#DejaVuSans-6e" x="1432.666016"/>
    <use xlink:href="#DejaVuSans-70" x="1496.044922"/>
    <use xlink:href="#DejaVuSans-75" x="1559.521484"/>
    <use xlink:href="#DejaVuSans-74" x="1622.900391"/>
   </g>
  </g>
 </g>
 <defs>
  <clipPath id="p0d246f6b60">
   <rect x="30.103125" y="36" width="334.8" height="217.44"/>
  </clipPath>
 </defs>
</svg>
