<?xml version="1.0" encoding="utf-8" standalone="no"?>
<!DOCTYPE svg PUBLIC "-//W3C//DTD SVG 1.1//EN"
  "http://www.w3.org/Graphics/SVG/1.1/DTD/svg11.dtd">
<svg xmlns:xlink="http://www.w3.org/1999/xlink" width="386.845313pt" height="277.318125pt" viewBox="0 0 386.845313 277.318125" xmlns="http://www.w3.org/2000/svg" version="1.1">
 <metadata>
  <rdf:RDF xmlns:dc="http://purl.org/dc/elements/1.1/" xmlns:cc="http://creativecommons.org/ns#" xmlns:rdf="http://www.w3.org/1999/02/22-rdf-syntax-ns#">
   <cc:Work>
    <dc:type rdf:resource="http://purl.org/dc/dcmitype/StillImage"/>
    <dc:date>2022-11-11T19:15:09.311835</dc:date>
    <dc:format>image/svg+xml</dc:format>
    <dc:creator>
     <cc:Agent>
      <dc:title>Matplotlib v3.6.0, https://matplotlib.org/</dc:title>
     </cc:Agent>
    </dc:creator>
   </cc:Work>
  </rdf:RDF>
 </metadata>
 <defs>
  <style type="text/css">*{stroke-linejoin: round; stroke-linecap: butt}</style>
 </defs>
 <g id="figure_1">
  <g id="patch_1">
   <path d="M 0 277.318125 
L 386.845313 277.318125 
L 386.845313 0 
L 0 0 
L 0 277.318125 
z
" style="fill: none"/>
  </g>
  <g id="axes_1">
   <g id="patch_2">
    <path d="M 44.845313 253.44 
L 379.645313 253.44 
L 379.645313 36 
L 44.845313 36 
z
" style="fill: #ffffff"/>
   </g>
   <g id="matplotlib.axis_1">
    <g id="xtick_1">
     <g id="line2d_1">
      <defs>
       <path id="ma470547196" d="M 0 0 
L 0 3.5 
" style="stroke: #000000; stroke-width: 0.8"/>
      </defs>
      <g>
       <use xlink:href="#ma470547196" x="59.698727" y="253.44" style="stroke: #000000; stroke-width: 0.8"/>
      </g>
     </g>
     <g id="text_1">
      <!-- −1.00 -->
      <g transform="translate(44.376071 268.038437) scale(0.1 -0.1)">
       <defs>
        <path id="DejaVuSans-2212" d="M 678 2272 
L 4684 2272 
L 4684 1741 
L 678 1741 
L 678 2272 
z
" transform="scale(0.015625)"/>
        <path id="DejaVuSans-31" d="M 794 531 
L 1825 531 
L 1825 4091 
L 703 3866 
L 703 4441 
L 1819 4666 
L 2450 4666 
L 2450 531 
L 3481 531 
L 3481 0 
L 794 0 
L 794 531 
z
" transform="scale(0.015625)"/>
        <path id="DejaVuSans-2e" d="M 684 794 
L 1344 794 
L 1344 0 
L 684 0 
L 684 794 
z
" transform="scale(0.015625)"/>
        <path id="DejaVuSans-30" d="M 2034 4250 
Q 1547 4250 1301 3770 
Q 1056 3291 1056 2328 
Q 1056 1369 1301 889 
Q 1547 409 2034 409 
Q 2525 409 2770 889 
Q 3016 1369 3016 2328 
Q 3016 3291 2770 3770 
Q 2525 4250 2034 4250 
z
M 2034 4750 
Q 2819 4750 3233 4129 
Q 3647 3509 3647 2328 
Q 3647 1150 3233 529 
Q 2819 -91 2034 -91 
Q 1250 -91 836 529 
Q 422 1150 422 2328 
Q 422 3509 836 4129 
Q 1250 4750 2034 4750 
z
" transform="scale(0.015625)"/>
       </defs>
       <use xlink:href="#DejaVuSans-2212"/>
       <use xlink:href="#DejaVuSans-31" x="83.789062"/>
       <use xlink:href="#DejaVuSans-2e" x="147.412109"/>
       <use xlink:href="#DejaVuSans-30" x="179.199219"/>
       <use xlink:href="#DejaVuSans-30" x="242.822266"/>
      </g>
     </g>
    </g>
    <g id="xtick_2">
     <g id="line2d_2">
      <g>
       <use xlink:href="#ma470547196" x="97.808299" y="253.44" style="stroke: #000000; stroke-width: 0.8"/>
      </g>
     </g>
     <g id="text_2">
      <!-- −0.75 -->
      <g transform="translate(82.485643 268.038437) scale(0.1 -0.1)">
       <defs>
        <path id="DejaVuSans-37" d="M 525 4666 
L 3525 4666 
L 3525 4397 
L 1831 0 
L 1172 0 
L 2766 4134 
L 525 4134 
L 525 4666 
z
" transform="scale(0.015625)"/>
        <path id="DejaVuSans-35" d="M 691 4666 
L 3169 4666 
L 3169 4134 
L 1269 4134 
L 1269 2991 
Q 1406 3038 1543 3061 
Q 1681 3084 1819 3084 
Q 2600 3084 3056 2656 
Q 3513 2228 3513 1497 
Q 3513 744 3044 326 
Q 2575 -91 1722 -91 
Q 1428 -91 1123 -41 
Q 819 9 494 109 
L 494 744 
Q 775 591 1075 516 
Q 1375 441 1709 441 
Q 2250 441 2565 725 
Q 2881 1009 2881 1497 
Q 2881 1984 2565 2268 
Q 2250 2553 1709 2553 
Q 1456 2553 1204 2497 
Q 953 2441 691 2322 
L 691 4666 
z
" transform="scale(0.015625)"/>
       </defs>
       <use xlink:href="#DejaVuSans-2212"/>
       <use xlink:href="#DejaVuSans-30" x="83.789062"/>
       <use xlink:href="#DejaVuSans-2e" x="147.412109"/>
       <use xlink:href="#DejaVuSans-37" x="179.199219"/>
       <use xlink:href="#DejaVuSans-35" x="242.822266"/>
      </g>
     </g>
    </g>
    <g id="xtick_3">
     <g id="line2d_3">
      <g>
       <use xlink:href="#ma470547196" x="135.917871" y="253.44" style="stroke: #000000; stroke-width: 0.8"/>
      </g>
     </g>
     <g id="text_3">
      <!-- −0.50 -->
      <g transform="translate(120.595215 268.038437) scale(0.1 -0.1)">
       <use xlink:href="#DejaVuSans-2212"/>
       <use xlink:href="#DejaVuSans-30" x="83.789062"/>
       <use xlink:href="#DejaVuSans-2e" x="147.412109"/>
       <use xlink:href="#DejaVuSans-35" x="179.199219"/>
       <use xlink:href="#DejaVuSans-30" x="242.822266"/>
      </g>
     </g>
    </g>
    <g id="xtick_4">
     <g id="line2d_4">
      <g>
       <use xlink:href="#ma470547196" x="174.027443" y="253.44" style="stroke: #000000; stroke-width: 0.8"/>
      </g>
     </g>
     <g id="text_4">
      <!-- −0.25 -->
      <g transform="translate(158.704787 268.038437) scale(0.1 -0.1)">
       <defs>
        <path id="DejaVuSans-32" d="M 1228 531 
L 3431 531 
L 3431 0 
L 469 0 
L 469 531 
Q 828 903 1448 1529 
Q 2069 2156 2228 2338 
Q 2531 2678 2651 2914 
Q 2772 3150 2772 3378 
Q 2772 3750 2511 3984 
Q 2250 4219 1831 4219 
Q 1534 4219 1204 4116 
Q 875 4013 500 3803 
L 500 4441 
Q 881 4594 1212 4672 
Q 1544 4750 1819 4750 
Q 2544 4750 2975 4387 
Q 3406 4025 3406 3419 
Q 3406 3131 3298 2873 
Q 3191 2616 2906 2266 
Q 2828 2175 2409 1742 
Q 1991 1309 1228 531 
z
" transform="scale(0.015625)"/>
       </defs>
       <use xlink:href="#DejaVuSans-2212"/>
       <use xlink:href="#DejaVuSans-30" x="83.789062"/>
       <use xlink:href="#DejaVuSans-2e" x="147.412109"/>
       <use xlink:href="#DejaVuSans-32" x="179.199219"/>
       <use xlink:href="#DejaVuSans-35" x="242.822266"/>
      </g>
     </g>
    </g>
    <g id="xtick_5">
     <g id="line2d_5">
      <g>
       <use xlink:href="#ma470547196" x="212.137015" y="253.44" style="stroke: #000000; stroke-width: 0.8"/>
      </g>
     </g>
     <g id="text_5">
      <!-- 0.00 -->
      <g transform="translate(201.004202 268.038437) scale(0.1 -0.1)">
       <use xlink:href="#DejaVuSans-30"/>
       <use xlink:href="#DejaVuSans-2e" x="63.623047"/>
       <use xlink:href="#DejaVuSans-30" x="95.410156"/>
       <use xlink:href="#DejaVuSans-30" x="159.033203"/>
      </g>
     </g>
    </g>
    <g id="xtick_6">
     <g id="line2d_6">
      <g>
       <use xlink:href="#ma470547196" x="250.246587" y="253.44" style="stroke: #000000; stroke-width: 0.8"/>
      </g>
     </g>
     <g id="text_6">
      <!-- 0.25 -->
      <g transform="translate(239.113774 268.038437) scale(0.1 -0.1)">
       <use xlink:href="#DejaVuSans-30"/>
       <use xlink:href="#DejaVuSans-2e" x="63.623047"/>
       <use xlink:href="#DejaVuSans-32" x="95.410156"/>
       <use xlink:href="#DejaVuSans-35" x="159.033203"/>
      </g>
     </g>
    </g>
    <g id="xtick_7">
     <g id="line2d_7">
      <g>
       <use xlink:href="#ma470547196" x="288.356159" y="253.44" style="stroke: #000000; stroke-width: 0.8"/>
      </g>
     </g>
     <g id="text_7">
      <!-- 0.50 -->
      <g transform="translate(277.223346 268.038437) scale(0.1 -0.1)">
       <use xlink:href="#DejaVuSans-30"/>
       <use xlink:href="#DejaVuSans-2e" x="63.623047"/>
       <use xlink:href="#DejaVuSans-35" x="95.410156"/>
       <use xlink:href="#DejaVuSans-30" x="159.033203"/>
      </g>
     </g>
    </g>
    <g id="xtick_8">
     <g id="line2d_8">
      <g>
       <use xlink:href="#ma470547196" x="326.465731" y="253.44" style="stroke: #000000; stroke-width: 0.8"/>
      </g>
     </g>
     <g id="text_8">
      <!-- 0.75 -->
      <g transform="translate(315.332918 268.038437) scale(0.1 -0.1)">
       <use xlink:href="#DejaVuSans-30"/>
       <use xlink:href="#DejaVuSans-2e" x="63.623047"/>
       <use xlink:href="#DejaVuSans-37" x="95.410156"/>
       <use xlink:href="#DejaVuSans-35" x="159.033203"/>
      </g>
     </g>
    </g>
    <g id="xtick_9">
     <g id="line2d_9">
      <g>
       <use xlink:href="#ma470547196" x="364.575302" y="253.44" style="stroke: #000000; stroke-width: 0.8"/>
      </g>
     </g>
     <g id="text_9">
      <!-- 1.00 -->
      <g transform="translate(353.44249 268.038437) scale(0.1 -0.1)">
       <use xlink:href="#DejaVuSans-31"/>
       <use xlink:href="#DejaVuSans-2e" x="63.623047"/>
       <use xlink:href="#DejaVuSans-30" x="95.410156"/>
       <use xlink:href="#DejaVuSans-30" x="159.033203"/>
      </g>
     </g>
    </g>
   </g>
   <g id="matplotlib.axis_2">
    <g id="ytick_1">
     <g id="line2d_10">
      <defs>
       <path id="m645cf385e9" d="M 0 0 
L -3.5 0 
" style="stroke: #000000; stroke-width: 0.8"/>
      </defs>
      <g>
       <use xlink:href="#m645cf385e9" x="44.845313" y="243.957136" style="stroke: #000000; stroke-width: 0.8"/>
      </g>
     </g>
     <g id="text_10">
      <!-- −1.00 -->
      <g transform="translate(7.2 247.756355) scale(0.1 -0.1)">
       <use xlink:href="#DejaVuSans-2212"/>
       <use xlink:href="#DejaVuSans-31" x="83.789062"/>
       <use xlink:href="#DejaVuSans-2e" x="147.412109"/>
       <use xlink:href="#DejaVuSans-30" x="179.199219"/>
       <use xlink:href="#DejaVuSans-30" x="242.822266"/>
      </g>
     </g>
    </g>
    <g id="ytick_2">
     <g id="line2d_11">
      <g>
       <use xlink:href="#m645cf385e9" x="44.845313" y="219.126855" style="stroke: #000000; stroke-width: 0.8"/>
      </g>
     </g>
     <g id="text_11">
      <!-- −0.75 -->
      <g transform="translate(7.2 222.926074) scale(0.1 -0.1)">
       <use xlink:href="#DejaVuSans-2212"/>
       <use xlink:href="#DejaVuSans-30" x="83.789062"/>
       <use xlink:href="#DejaVuSans-2e" x="147.412109"/>
       <use xlink:href="#DejaVuSans-37" x="179.199219"/>
       <use xlink:href="#DejaVuSans-35" x="242.822266"/>
      </g>
     </g>
    </g>
    <g id="ytick_3">
     <g id="line2d_12">
      <g>
       <use xlink:href="#m645cf385e9" x="44.845313" y="194.296574" style="stroke: #000000; stroke-width: 0.8"/>
      </g>
     </g>
     <g id="text_12">
      <!-- −0.50 -->
      <g transform="translate(7.2 198.095793) scale(0.1 -0.1)">
       <use xlink:href="#DejaVuSans-2212"/>
       <use xlink:href="#DejaVuSans-30" x="83.789062"/>
       <use xlink:href="#DejaVuSans-2e" x="147.412109"/>
       <use xlink:href="#DejaVuSans-35" x="179.199219"/>
       <use xlink:href="#DejaVuSans-30" x="242.822266"/>
      </g>
     </g>
    </g>
    <g id="ytick_4">
     <g id="line2d_13">
      <g>
       <use xlink:href="#m645cf385e9" x="44.845313" y="169.466293" style="stroke: #000000; stroke-width: 0.8"/>
      </g>
     </g>
     <g id="text_13">
      <!-- −0.25 -->
      <g transform="translate(7.2 173.265512) scale(0.1 -0.1)">
       <use xlink:href="#DejaVuSans-2212"/>
       <use xlink:href="#DejaVuSans-30" x="83.789062"/>
       <use xlink:href="#DejaVuSans-2e" x="147.412109"/>
       <use xlink:href="#DejaVuSans-32" x="179.199219"/>
       <use xlink:href="#DejaVuSans-35" x="242.822266"/>
      </g>
     </g>
    </g>
    <g id="ytick_5">
     <g id="line2d_14">
      <g>
       <use xlink:href="#m645cf385e9" x="44.845313" y="144.636012" style="stroke: #000000; stroke-width: 0.8"/>
      </g>
     </g>
     <g id="text_14">
      <!-- 0.00 -->
      <g transform="translate(15.579688 148.43523) scale(0.1 -0.1)">
       <use xlink:href="#DejaVuSans-30"/>
       <use xlink:href="#DejaVuSans-2e" x="63.623047"/>
       <use xlink:href="#DejaVuSans-30" x="95.410156"/>
       <use xlink:href="#DejaVuSans-30" x="159.033203"/>
      </g>
     </g>
    </g>
    <g id="ytick_6">
     <g id="line2d_15">
      <g>
       <use xlink:href="#m645cf385e9" x="44.845313" y="119.805731" style="stroke: #000000; stroke-width: 0.8"/>
      </g>
     </g>
     <g id="text_15">
      <!-- 0.25 -->
      <g transform="translate(15.579688 123.604949) scale(0.1 -0.1)">
       <use xlink:href="#DejaVuSans-30"/>
       <use xlink:href="#DejaVuSans-2e" x="63.623047"/>
       <use xlink:href="#DejaVuSans-32" x="95.410156"/>
       <use xlink:href="#DejaVuSans-35" x="159.033203"/>
      </g>
     </g>
    </g>
    <g id="ytick_7">
     <g id="line2d_16">
      <g>
       <use xlink:href="#m645cf385e9" x="44.845313" y="94.975449" style="stroke: #000000; stroke-width: 0.8"/>
      </g>
     </g>
     <g id="text_16">
      <!-- 0.50 -->
      <g transform="translate(15.579688 98.774668) scale(0.1 -0.1)">
       <use xlink:href="#DejaVuSans-30"/>
       <use xlink:href="#DejaVuSans-2e" x="63.623047"/>
       <use xlink:href="#DejaVuSans-35" x="95.410156"/>
       <use xlink:href="#DejaVuSans-30" x="159.033203"/>
      </g>
     </g>
    </g>
    <g id="ytick_8">
     <g id="line2d_17">
      <g>
       <use xlink:href="#m645cf385e9" x="44.845313" y="70.145168" style="stroke: #000000; stroke-width: 0.8"/>
      </g>
     </g>
     <g id="text_17">
      <!-- 0.75 -->
      <g transform="translate(15.579688 73.944387) scale(0.1 -0.1)">
       <use xlink:href="#DejaVuSans-30"/>
       <use xlink:href="#DejaVuSans-2e" x="63.623047"/>
       <use xlink:href="#DejaVuSans-37" x="95.410156"/>
       <use xlink:href="#DejaVuSans-35" x="159.033203"/>
      </g>
     </g>
    </g>
    <g id="ytick_9">
     <g id="line2d_18">
      <g>
       <use xlink:href="#m645cf385e9" x="44.845313" y="45.314887" style="stroke: #000000; stroke-width: 0.8"/>
      </g>
     </g>
     <g id="text_18">
      <!-- 1.00 -->
      <g transform="translate(15.579688 49.114106) scale(0.1 -0.1)">
       <use xlink:href="#DejaVuSans-31"/>
       <use xlink:href="#DejaVuSans-2e" x="63.623047"/>
       <use xlink:href="#DejaVuSans-30" x="95.410156"/>
       <use xlink:href="#DejaVuSans-30" x="159.033203"/>
      </g>
     </g>
    </g>
   </g>
   <g id="line2d_19">
    <path d="M 281.500702 99.656124 
L 270.118643 106.867208 
L 295.321774 90.711978 
L 232.313948 131.272029 
L 216.460366 141.636114 
L 361.175114 47.763898 
L 329.874452 67.951934 
L 67.380532 238.680066 
L 361.581616 47.536968 
L 195.835196 155.594043 
L 337.19149 63.422964 
L 71.445553 236.037815 
L 256.297572 116.00604 
L 171.44507 170.275991 
L 65.348022 240.027285 
L 348.573549 55.783654 
L 319.7119 74.753413 
L 109.250248 211.771948 
L 214.021354 142.977184 
L 292.069757 93.058436 
L 218.899379 140.284409 
L 290.443748 94.116705 
L 257.92358 114.680656 
L 66.97403 238.944758 
L 363.614126 46.39065 
L 219.305881 139.92244 
L 107.217738 213.012058 
L 133.640374 195.626872 
L 144.209429 188.911655 
L 324.589925 71.380073 
L 118.193295 205.768138 
L 86.486131 226.09525 
L 147.461446 186.869907 
L 324.996427 71.12552 
L 315.646879 77.427215 
L 325.402929 70.871402 
L 226.622919 135.316866 
L 198.274208 153.994517 
L 136.079387 194.121339 
L 101.933211 216.391371 
L 77.136583 232.292248 
L 259.143087 113.801238 
L 263.208108 110.931921 
L 259.549589 113.371453 
L 110.469755 211.027731 
L 97.055185 219.436239 
L 344.91503 58.156952 
L 338.410996 62.615508 
L 296.134778 90.070147 
L 118.599797 205.500582 
L 299.386795 88.064606 
L 314.833874 77.919352 
L 185.672643 162.030099 
L 346.541038 57.042501 
L 166.973547 173.756497 
L 227.435923 134.762925 
L 301.825807 86.375948 
L 69.819545 237.096949 
L 176.729597 167.256835 
L 322.150912 72.935858 
L 251.826049 119.000025 
L 237.598475 127.75482 
L 354.264578 52.188148 
L 261.988601 111.655659 
L 99.087696 218.199907 
L 70.632549 236.568138 
L 244.509011 123.493504 
L 253.045555 118.317579 
L 123.07132 202.352249 
L 64.535017 240.676712 
L 210.469271 144.950919 
L 302.232309 86.121067 
L 179.16861 165.871733 
L 162.502024 177.382889 
L 93.803169 221.400193 
L 269.712141 107.110345 
L 164.941036 175.345035 
L 245.728517 122.697263 
L 353.858076 52.490243 
L 238.41148 127.286503 
L 199.900217 152.727453 
L 115.34778 207.823822 
L 232.72045 130.995861 
L 293.289263 92.014135 
L 127.949345 199.312723 
L 316.866385 76.6804 
L 157.217496 181.040644 
L 183.640133 163.304895 
L 76.73008 232.550429 
L 101.526709 216.626481 
L 70.226047 236.832704 
L 294.102267 91.498343 
L 120.632307 204.028854 
L 360.768612 47.990815 
L 222.151396 138.008556 
L 335.971984 64.263374 
L 294.508769 91.239915 
L 348.167047 56.035008 
L 339.630503 61.692737 
L 86.079629 226.339779 
L 60.876499 243.08257 
L 227.842425 134.518809 
L 117.38029 206.485598 
L 304.671322 84.613134 
L 171.038568 170.51143 
L 148.27445 186.408176 
L 75.917076 233.064317 
L 117.786793 206.078662 
L 292.476259 92.545963 
L 149.087454 185.947521 
L 224.99691 136.301717 
L 220.118885 139.381609 
L 196.6482 155.0665 
L 102.339713 216.156083 
L 184.046635 163.062519 
L 96.648683 219.682104 
L 172.258074 169.807284 
L 98.681194 218.448584 
L 334.345975 65.294441 
L 73.478064 234.701841 
L 297.354284 89.228183 
L 168.193053 172.67692 
L 193.802685 156.918249 
L 209.656267 145.712709 
L 207.217255 147.709662 
L 89.738148 224.134937 
L 64.94152 240.4249 
L 103.559219 215.449066 
L 333.126469 66.017847 
L 154.371982 182.956108 
L 359.955608 48.444888 
L 254.265061 117.634846 
L 213.208349 143.424991 
L 331.500461 66.983582 
L 260.362593 112.806735 
L 342.476017 59.792371 
L 120.225805 204.301175 
L 179.575112 165.640614 
L 290.850251 93.859823 
L 302.638811 85.867678 
L 217.679872 140.963054 
L 150.306961 185.25757 
L 198.680711 153.717305 
L 341.663013 60.311174 
L 133.233872 195.882845 
L 137.298893 193.451992 
L 142.176919 190.185005 
L 165.75404 174.658222 
L 147.054944 187.10139 
L 317.272887 76.423924 
L 84.45362 227.322815 
L 105.185227 214.267434 
L 364.020629 46.104123 
L 153.152475 183.647683 
L 211.688778 144.266674 
L 114.128274 208.601981 
L 262.801606 111.172598 
L 199.493715 152.991663 
L 75.510574 233.320251 
L 307.923339 82.620951 
L 140.957412 190.875547 
L 348.980051 55.532427 
L 233.533454 130.461284 
L 355.077582 51.682178 
L 204.778242 149.353632 
L 176.323095 167.487715 
L 192.989681 157.465557 
L 234.752961 129.639352 
L 359.142603 48.899561 
L 153.96548 183.186807 
L 264.021112 110.451986 
L 293.695765 91.75597 
L 85.266625 226.829867 
L 275.809673 103.363259 
L 178.355606 166.333605 
L 298.980293 88.296881 
L 313.207866 78.982942 
L 100.307202 217.442354 
L 144.615931 188.642615 
L 272.557656 105.249445 
L 64.128515 240.928605 
L 147.867948 186.63887 
L 206.40425 148.41475 
L 233.939956 130.194994 
L 323.370419 72.148285 
L 275.403171 103.596391 
L 150.713463 185.027701 
L 91.364156 222.891411 
L 312.801364 79.241436 
L 162.908526 177.112134 
L 91.770658 222.63822 
L 153.558977 183.417325 
L 102.746215 215.920609 
L 177.136099 167.026014 
L 357.923097 49.792651 
L 151.119965 184.797837 
L 357.516595 50.044345 
L 362.39462 47.082546 
L 158.437003 180.07328 
L 312.394862 79.49563 
L 110.876257 210.7793 
L 238.817982 127.034356 
L 304.26482 84.862946 
L 175.916593 167.718684 
L 196.241698 155.33054 
L 298.167288 88.762045 
L 95.835679 220.173174 
L 323.776921 71.891193 
L 282.313706 99.146855 
L 318.492393 75.59191 
L 205.997748 148.652151 
L 354.67108 51.936098 
L 131.607864 196.977092 
L 178.762108 166.102718 
L 329.46795 68.194569 
L 192.583179 157.754209 
L 310.362351 80.977559 
L 123.884324 201.833691 
L 203.965238 149.959242 
L 350.199557 54.77907 
L 288.81774 95.130044 
L 231.094442 132.193821 
L 182.014124 164.24813 
L 213.614851 143.200948 
L 300.606301 87.160998 
L 284.752719 97.635604 
L 160.063011 178.98332 
L 283.533213 98.389069 
L 164.534534 175.778461 
L 88.112139 225.117567 
L 250.606543 119.683584 
L 265.64712 109.496428 
L 240.44399 126.074964 
L 60.469996 243.319709 
L 177.542601 166.795222 
L 180.388116 165.177802 
L 128.762349 198.735596 
L 332.313465 66.500465 
L 295.728276 90.315027 
L 215.647362 142.083341 
L 194.61569 156.385236 
L 306.29733 83.61653 
L 135.672885 194.343724 
L 311.581858 80.174623 
L 210.062769 145.298794 
L 347.760545 56.286529 
L 116.160784 207.299465 
L 335.158979 64.812153 
L 236.378969 128.446411 
L 195.428694 155.857391 
L 134.453379 195.009481 
L 303.045314 85.615392 
L 152.339471 184.108005 
L 224.590408 136.528943 
L 92.990164 221.892627 
L 68.600038 237.88843 
L 190.957171 159.105191 
L 95.022675 220.663805 
L 308.736343 82.044405 
L 149.493956 185.717445 
L 136.892391 193.675547 
L 277.842183 102.20234 
L 328.248444 69.091172 
L 125.916835 200.495389 
L 215.24086 142.306768 
L 141.770417 190.414913 
L 208.030259 146.995086 
L 84.047118 227.645759 
L 282.720208 98.893605 
L 130.388358 197.72881 
L 214.427856 142.753616 
L 346.134536 57.29511 
L 94.209671 221.154556 
L 104.778725 214.530573 
L 352.63857 53.267195 
L 327.43544 69.602259 
L 75.104072 233.575608 
L 203.152234 150.502587 
L 291.663255 93.335343 
L 97.461688 219.190057 
L 255.484568 116.569109 
L 145.835438 187.87565 
L 220.525387 139.12297 
L 330.280954 67.709536 
L 165.347538 175.048933 
L 253.858559 117.862551 
L 84.860122 227.075827 
L 361.988118 47.309914 
L 248.16753 121.060041 
L 340.037005 61.400087 
L 242.476501 124.987323 
L 248.980534 120.599205 
L 221.338391 138.48082 
L 353.045072 53.012598 
L 352.232068 53.520503 
L 345.728034 57.548123 
L 308.329841 82.371698 
L 338.004494 62.884761 
L 274.590166 104.064021 
L 169.006057 171.978277 
L 158.030501 180.367537 
L 174.697087 168.412444 
L 292.882761 92.274902 
L 67.787034 238.41594 
L 351.419063 54.024953 
L 98.274692 218.696363 
L 212.801847 143.649403 
L 140.55091 191.106579 
L 163.315028 176.837242 
L 241.256994 125.639656 
L 180.794618 164.946003 
L 329.061448 68.567809 
L 125.510332 200.731445 
L 134.859881 194.787748 
L 99.494198 217.949958 
L 355.890587 51.16122 
L 349.793055 55.030185 
L 261.582099 111.898181 
L 62.502507 241.942584 
L 124.290826 201.562931 
L 311.98836 79.894332 
L 241.663496 125.422175 
L 62.096005 242.201997 
L 220.931889 138.857533 
L 79.169093 230.927507 
L 318.898895 75.353164 
L 289.630744 94.625384 
L 218.086375 140.737677 
L 122.664818 202.680588 
L 145.022433 188.388516 
L 173.071078 169.340815 
L 105.998232 213.76059 
L 270.525145 106.61852 
L 87.705637 225.362134 
L 320.931406 73.946541 
L 303.451816 85.363954 
L 155.99799 182.03105 
L 249.793538 120.140594 
L 146.648442 187.333455 
L 82.42111 228.873156 
L 60.063494 243.556364 
L 61.283001 242.844943 
L 277.435681 102.43401 
L 114.941278 208.083979 
L 303.858318 85.113184 
L 99.9007 217.698024 
L 181.607622 164.48127 
L 113.721772 208.860301 
L 164.128032 176.130615 
L 260.769095 112.385639 
L 108.437244 212.26769 
L 289.224242 94.878082 
L 126.729839 200.022964 
L 309.549347 81.506735 
L 250.20004 119.911921 
L 239.224484 126.729443 
L 280.281196 100.431688 
L 340.850009 60.830715 
L 264.834116 109.973611 
L 317.679389 76.068548 
L 197.867706 154.266411 
L 217.27337 141.187836 
L 96.242181 219.927726 
L 347.354042 56.538258 
L 343.289021 59.272769 
L 182.420627 164.014271 
L 188.518158 160.460027 
L 258.736585 114.099786 
L 190.550669 159.331766 
L 63.722013 241.180754 
L 238.004977 127.522415 
L 257.517078 114.971774 
L 179.981614 165.40932 
L 249.387036 120.369664 
L 208.843263 146.280386 
L 207.623757 147.418418 
L 247.761028 121.291554 
L 115.754282 207.56248 
L 204.37174 149.585356 
L 344.102026 58.71616 
L 121.851814 203.226842 
L 266.460124 109.020067 
L 139.331404 191.94988 
L 159.250007 179.521114 
L 152.745973 183.877902 
L 273.777162 104.534177 
L 73.071562 234.970593 
L 155.184986 182.494078 
L 101.120206 216.861423 
L 345.321532 57.801626 
L 173.884082 168.876011 
L 307.516837 82.869982 
L 287.598234 95.883099 
L 290.037246 94.371708 
L 140.144408 191.437981 
L 184.859639 162.477287 
L 353.451574 52.755595 
L 225.403412 136.070879 
L 269.305639 107.351168 
L 216.866868 141.412152 
L 112.095763 209.895004 
L 333.532971 65.776669 
L 116.973788 206.76428 
L 327.841942 69.347356 
L 92.583662 222.13983 
L 331.093958 67.225378 
L 281.0942 99.912641 
L 72.258557 235.505505 
L 185.266141 162.253754 
L 235.565965 128.984744 
L 288.004736 95.632429 
L 112.502265 209.635369 
L 279.874694 100.696119 
L 90.14465 223.886898 
L 108.843746 212.019822 
L 74.291068 234.160111 
L 279.06169 101.253372 
L 155.591488 182.262702 
L 351.825566 53.773 
L 168.599555 172.351162 
L 280.687698 100.170936 
L 78.356089 231.509068 
L 210.875774 144.721538 
L 237.191973 127.98579 
L 325.809431 70.617577 
L 228.655429 133.893703 
L 324.183423 71.635226 
L 169.819061 171.444374 
L 160.469513 178.7166 
L 184.453137 162.807731 
L 287.191732 96.133549 
L 246.541522 122.18522 
L 85.673127 226.584595 
L 111.689261 210.156742 
L 356.297089 50.776835 
L 242.883003 124.769846 
L 307.110335 83.118874 
L 316.053381 77.179992 
L 216.053864 141.859816 
L 209.249765 145.999493 
L 364.427131 45.883636 
L 279.468192 100.966904 
L 161.689019 177.918316 
L 175.103589 168.181015 
L 190.144166 159.558003 
L 71.039051 236.303194 
L 229.874935 133.250782 
L 107.62424 212.76371 
L 208.436761 146.569526 
L 69.413043 237.360936 
L 86.892633 225.850873 
L 274.996669 103.829952 
L 326.215933 70.36391 
L 244.102509 123.855716 
L 251.013045 119.455524 
L 175.510091 167.949774 
L 143.802927 189.265038 
L 125.10383 200.967472 
L 79.982097 230.445916 
L 186.485648 161.582375 
L 283.126711 98.641051 
L 71.852055 235.771941 
L 193.396183 157.189051 
L 200.713221 152.085163 
L 344.508528 58.442923 
L 285.159221 97.385023 
L 243.289505 124.362621 
L 94.616173 220.909126 
L 322.963916 72.407019 
L 122.258316 202.957732 
L 363.207624 46.62498 
L 246.948024 121.924085 
L 357.110093 50.290659 
L 103.965721 215.107612 
L 315.240377 77.673571 
L 239.630986 126.511023 
L 243.696007 124.103599 
L 171.851572 170.041314 
L 158.843505 179.794256 
L 359.549105 48.672134 
L 274.183664 104.298708 
L 188.92466 160.234919 
L 301.419305 86.632979 
L 186.079145 161.80631 
L 173.47758 169.108234 
L 151.932969 184.338013 
L 127.136341 199.786488 
L 142.583421 189.955195 
L 358.329599 49.446095 
L 225.809914 135.825361 
L 214.834358 142.530168 
L 203.558736 150.241612 
L 177.949103 166.564429 
L 309.142845 81.772941 
L 254.671564 117.28601 
L 248.574032 120.829297 
L 61.689503 242.474374 
L 305.077824 84.363659 
L 88.518641 224.872724 
L 291.256753 93.600081 
L 264.427614 110.212627 
L 288.411238 95.381447 
L 188.111656 160.684902 
L 88.925143 224.627472 
L 191.363673 158.878252 
L 251.419547 119.227688 
L 266.053622 109.258169 
L 160.876015 178.4505 
L 305.890828 83.865423 
L 351.012561 54.276538 
L 92.17716 222.388144 
L 330.687456 67.467356 
L 189.331162 160.009558 
L 73.884566 234.431883 
L 229.061931 133.678894 
L 74.69757 233.884619 
L 106.404734 213.510218 
L 278.248685 101.970875 
L 110.063253 211.275952 
L 156.404492 181.799099 
L 240.850492 125.857238 
L 151.526467 184.567949 
L 298.57379 88.529354 
L 263.61461 110.691735 
L 235.972467 128.676856 
L 328.654946 68.832522 
L 197.054702 154.801504 
L 211.282276 144.493557 
L 247.354526 121.626118 
L 89.331646 224.381634 
L 129.575353 198.227431 
L 362.801122 46.854513 
L 197.461204 154.535041 
L 342.882519 59.532795 
L 252.639053 118.54502 
L 219.712383 139.641992 
L 265.240618 109.734893 
L 212.09528 144.040663 
L 222.9644 137.503022 
L 319.305398 75.0495 
L 331.906963 66.741951 
L 116.567286 207.033956 
L 276.216175 103.130497 
L 105.59173 214.012544 
L 182.827129 163.779446 
L 78.762591 231.24057 
L 349.386553 55.281287 
L 103.152717 215.684939 
L 297.760786 88.994979 
L 306.703832 83.367701 
L 326.622435 70.110257 
L 320.524904 74.211197 
L 169.412559 171.712006 
L 258.330082 114.39103 
L 296.947782 89.570691 
L 63.315511 241.433432 
L 121.038809 203.760601 
L 223.370902 137.202327 
L 65.754524 239.748373 
L 261.175597 112.141474 
L 201.932727 151.263326 
L 218.492877 140.511535 
L 104.372223 214.855298 
L 360.36211 48.217795 
L 167.786551 173.091735 
L 174.290585 168.644096 
L 242.069998 125.204747 
L 271.33815 106.03859 
L 294.915272 90.979036 
L 270.931648 106.267066 
L 149.900459 185.487474 
L 192.176677 158.199108 
L 343.695524 58.989726 
L 167.380049 173.365376 
L 187.705154 160.909558 
L 119.006299 205.248356 
L 336.784988 63.697224 
L 81.201604 229.720064 
L 318.085891 75.830339 
L 271.744652 105.810319 
L 285.565723 97.134618 
L 106.811236 213.260822 
L 195.022192 156.120975 
L 142.989923 189.725359 
L 161.282517 178.184554 
L 132.82737 196.13164 
L 66.567528 239.21042 
L 356.703591 50.53447 
L 212.395345 143.874288 
L 256.704074 115.581016 
L 129.981856 197.9779 
L 77.543085 232.032978 
L 138.111898 192.710997 
L 272.964158 105.008747 
L 286.78523 96.383858 
L 80.795101 229.962533 
L 259.956091 113.095794 
L 72.665059 235.238426 
L 226.216417 135.536826 
L 255.078066 117.0264 
L 83.640616 227.922775 
L 109.656751 211.524008 
L 321.74441 73.40338 
L 159.656509 179.251229 
L 309.955849 81.242048 
L 154.778484 182.725206 
L 123.477822 202.094714 
L 277.029179 102.665907 
L 79.575595 230.686919 
L 355.484084 51.425099 
L 350.606059 54.527879 
L 234.346459 129.92478 
L 286.378727 96.634096 
L 148.680952 186.177748 
L 283.939715 98.137556 
L 268.086133 108.06798 
L 316.459883 76.931398 
L 108.030742 212.515624 
L 245.322015 122.954503 
L 121.445311 203.493811 
L 83.234114 228.199554 
L 305.484326 84.114445 
L 227.029421 135.095467 
L 97.86819 218.943469 
L 268.492635 107.829586 
L 334.752477 65.053324 
L 310.768853 80.712346 
L 114.534776 208.34328 
L 156.810994 181.468844 
L 127.542843 199.549761 
L 77.949587 231.772216 
L 311.175356 80.445336 
L 266.866627 108.782068 
L 170.225564 171.170688 
L 252.232551 118.772486 
L 139.737906 191.697799 
L 222.557898 137.767567 
L 187.298652 161.134013 
L 231.907446 131.680898 
L 191.770175 158.480997 
L 172.664576 169.57381 
L 145.428935 188.136143 
L 320.118402 74.477088 
L 194.209187 156.650731 
L 223.777404 136.978665 
L 128.355847 199.075308 
L 342.069515 60.051764 
L 163.72153 176.553208 
L 189.737664 159.783926 
L 111.282759 210.424278 
L 240.037488 126.292878 
L 262.395103 111.413822 
L 285.972225 96.884329 
L 66.161026 239.477775 
L 233.126952 130.72728 
L 100.713704 217.174492 
L 339.224 61.967876 
L 112.908767 209.376702 
L 337.597992 63.153318 
L 170.632066 170.850735 
L 126.323337 200.259246 
L 236.785471 128.216164 
L 76.323578 232.80774 
L 267.679631 108.30611 
L 358.736101 49.205713 
L 157.623998 180.760394 
L 162.095522 177.651301 
L 134.046877 195.333051 
L 253.452057 118.090108 
L 244.915513 123.21639 
L 244.915513 123.21639 
" clip-path="url(#pfdd103cdc5)" style="fill: none; stroke: #1f77b4; stroke-width: 1.5; stroke-linecap: square"/>
   </g>
   <g id="patch_3">
    <path d="M 44.845313 253.44 
L 44.845313 36 
" style="fill: none; stroke: #000000; stroke-width: 0.8; stroke-linejoin: miter; stroke-linecap: square"/>
   </g>
   <g id="patch_4">
    <path d="M 379.645313 253.44 
L 379.645313 36 
" style="fill: none; stroke: #000000; stroke-width: 0.8; stroke-linejoin: miter; stroke-linecap: square"/>
   </g>
   <g id="patch_5">
    <path d="M 44.845313 253.44 
L 379.645313 253.44 
" style="fill: none; stroke: #000000; stroke-width: 0.8; stroke-linejoin: miter; stroke-linecap: square"/>
   </g>
   <g id="patch_6">
    <path d="M 44.845313 36 
L 379.645313 36 
" style="fill: none; stroke: #000000; stroke-width: 0.8; stroke-linejoin: miter; stroke-linecap: square"/>
   </g>
  </g>
  <g id="text_19">
   <!-- $x$ and $\hat{x}$ for $\tau_{ref}$: 0.001 -->
   <g transform="translate(141.865313 17.904375) scale(0.12 -0.12)">
    <defs>
     <path id="DejaVuSans-Oblique-78" d="M 3841 3500 
L 2234 1784 
L 3219 0 
L 2559 0 
L 1819 1388 
L 531 0 
L -166 0 
L 1556 1844 
L 641 3500 
L 1300 3500 
L 1972 2234 
L 3144 3500 
L 3841 3500 
z
" transform="scale(0.015625)"/>
     <path id="DejaVuSans-20" transform="scale(0.015625)"/>
     <path id="DejaVuSans-61" d="M 2194 1759 
Q 1497 1759 1228 1600 
Q 959 1441 959 1056 
Q 959 750 1161 570 
Q 1363 391 1709 391 
Q 2188 391 2477 730 
Q 2766 1069 2766 1631 
L 2766 1759 
L 2194 1759 
z
M 3341 1997 
L 3341 0 
L 2766 0 
L 2766 531 
Q 2569 213 2275 61 
Q 1981 -91 1556 -91 
Q 1019 -91 701 211 
Q 384 513 384 1019 
Q 384 1609 779 1909 
Q 1175 2209 1959 2209 
L 2766 2209 
L 2766 2266 
Q 2766 2663 2505 2880 
Q 2244 3097 1772 3097 
Q 1472 3097 1187 3025 
Q 903 2953 641 2809 
L 641 3341 
Q 956 3463 1253 3523 
Q 1550 3584 1831 3584 
Q 2591 3584 2966 3190 
Q 3341 2797 3341 1997 
z
" transform="scale(0.015625)"/>
     <path id="DejaVuSans-6e" d="M 3513 2113 
L 3513 0 
L 2938 0 
L 2938 2094 
Q 2938 2591 2744 2837 
Q 2550 3084 2163 3084 
Q 1697 3084 1428 2787 
Q 1159 2491 1159 1978 
L 1159 0 
L 581 0 
L 581 3500 
L 1159 3500 
L 1159 2956 
Q 1366 3272 1645 3428 
Q 1925 3584 2291 3584 
Q 2894 3584 3203 3211 
Q 3513 2838 3513 2113 
z
" transform="scale(0.015625)"/>
     <path id="DejaVuSans-64" d="M 2906 2969 
L 2906 4863 
L 3481 4863 
L 3481 0 
L 2906 0 
L 2906 525 
Q 2725 213 2448 61 
Q 2172 -91 1784 -91 
Q 1150 -91 751 415 
Q 353 922 353 1747 
Q 353 2572 751 3078 
Q 1150 3584 1784 3584 
Q 2172 3584 2448 3432 
Q 2725 3281 2906 2969 
z
M 947 1747 
Q 947 1113 1208 752 
Q 1469 391 1925 391 
Q 2381 391 2643 752 
Q 2906 1113 2906 1747 
Q 2906 2381 2643 2742 
Q 2381 3103 1925 3103 
Q 1469 3103 1208 2742 
Q 947 2381 947 1747 
z
" transform="scale(0.015625)"/>
     <path id="DejaVuSans-302" d="M -1831 5119 
L -1369 5119 
L -603 3944 
L -1038 3944 
L -1600 4709 
L -2163 3944 
L -2597 3944 
L -1831 5119 
z
M -1600 3584 
L -1600 3584 
z
" transform="scale(0.015625)"/>
     <path id="DejaVuSans-66" d="M 2375 4863 
L 2375 4384 
L 1825 4384 
Q 1516 4384 1395 4259 
Q 1275 4134 1275 3809 
L 1275 3500 
L 2222 3500 
L 2222 3053 
L 1275 3053 
L 1275 0 
L 697 0 
L 697 3053 
L 147 3053 
L 147 3500 
L 697 3500 
L 697 3744 
Q 697 4328 969 4595 
Q 1241 4863 1831 4863 
L 2375 4863 
z
" transform="scale(0.015625)"/>
     <path id="DejaVuSans-6f" d="M 1959 3097 
Q 1497 3097 1228 2736 
Q 959 2375 959 1747 
Q 959 1119 1226 758 
Q 1494 397 1959 397 
Q 2419 397 2687 759 
Q 2956 1122 2956 1747 
Q 2956 2369 2687 2733 
Q 2419 3097 1959 3097 
z
M 1959 3584 
Q 2709 3584 3137 3096 
Q 3566 2609 3566 1747 
Q 3566 888 3137 398 
Q 2709 -91 1959 -91 
Q 1206 -91 779 398 
Q 353 888 353 1747 
Q 353 2609 779 3096 
Q 1206 3584 1959 3584 
z
" transform="scale(0.015625)"/>
     <path id="DejaVuSans-72" d="M 2631 2963 
Q 2534 3019 2420 3045 
Q 2306 3072 2169 3072 
Q 1681 3072 1420 2755 
Q 1159 2438 1159 1844 
L 1159 0 
L 581 0 
L 581 3500 
L 1159 3500 
L 1159 2956 
Q 1341 3275 1631 3429 
Q 1922 3584 2338 3584 
Q 2397 3584 2469 3576 
Q 2541 3569 2628 3553 
L 2631 2963 
z
" transform="scale(0.015625)"/>
     <path id="DejaVuSans-Oblique-3c4" d="M 2103 638 
Q 2188 488 2525 488 
L 2800 488 
L 2706 0 
L 2363 0 
Q 1800 0 1600 300 
Q 1403 606 1534 1269 
L 1856 2925 
L 541 2925 
L 653 3500 
L 3881 3500 
L 3769 2925 
L 2444 2925 
L 2113 1234 
Q 2025 781 2103 638 
z
" transform="scale(0.015625)"/>
     <path id="DejaVuSans-Oblique-72" d="M 2853 2969 
Q 2766 3016 2653 3041 
Q 2541 3066 2413 3066 
Q 1953 3066 1609 2717 
Q 1266 2369 1153 1784 
L 800 0 
L 225 0 
L 909 3500 
L 1484 3500 
L 1375 2956 
Q 1603 3259 1920 3421 
Q 2238 3584 2597 3584 
Q 2691 3584 2781 3573 
Q 2872 3563 2963 3538 
L 2853 2969 
z
" transform="scale(0.015625)"/>
     <path id="DejaVuSans-Oblique-65" d="M 3078 2063 
Q 3088 2113 3092 2166 
Q 3097 2219 3097 2272 
Q 3097 2653 2873 2875 
Q 2650 3097 2266 3097 
Q 1838 3097 1509 2826 
Q 1181 2556 1013 2059 
L 3078 2063 
z
M 3578 1613 
L 903 1613 
Q 884 1494 878 1425 
Q 872 1356 872 1306 
Q 872 872 1139 634 
Q 1406 397 1894 397 
Q 2269 397 2603 481 
Q 2938 566 3225 728 
L 3116 159 
Q 2806 34 2476 -28 
Q 2147 -91 1806 -91 
Q 1078 -91 686 257 
Q 294 606 294 1247 
Q 294 1794 489 2264 
Q 684 2734 1063 3103 
Q 1306 3334 1642 3459 
Q 1978 3584 2356 3584 
Q 2950 3584 3301 3228 
Q 3653 2872 3653 2272 
Q 3653 2128 3634 1964 
Q 3616 1800 3578 1613 
z
" transform="scale(0.015625)"/>
     <path id="DejaVuSans-Oblique-66" d="M 3059 4863 
L 2969 4384 
L 2419 4384 
Q 2106 4384 1964 4261 
Q 1822 4138 1753 3809 
L 1691 3500 
L 2638 3500 
L 2553 3053 
L 1606 3053 
L 1013 0 
L 434 0 
L 1031 3053 
L 481 3053 
L 563 3500 
L 1113 3500 
L 1159 3744 
Q 1278 4363 1576 4613 
Q 1875 4863 2516 4863 
L 3059 4863 
z
" transform="scale(0.015625)"/>
     <path id="DejaVuSans-3a" d="M 750 794 
L 1409 794 
L 1409 0 
L 750 0 
L 750 794 
z
M 750 3309 
L 1409 3309 
L 1409 2516 
L 750 2516 
L 750 3309 
z
" transform="scale(0.015625)"/>
    </defs>
    <use xlink:href="#DejaVuSans-Oblique-78" transform="translate(0 0.828125)"/>
    <use xlink:href="#DejaVuSans-20" transform="translate(59.179688 0.828125)"/>
    <use xlink:href="#DejaVuSans-61" transform="translate(90.966797 0.828125)"/>
    <use xlink:href="#DejaVuSans-6e" transform="translate(152.246094 0.828125)"/>
    <use xlink:href="#DejaVuSans-64" transform="translate(215.625 0.828125)"/>
    <use xlink:href="#DejaVuSans-20" transform="translate(279.101562 0.828125)"/>
    <use xlink:href="#DejaVuSans-302" transform="translate(373.261719 12.015625)"/>
    <use xlink:href="#DejaVuSans-Oblique-78" transform="translate(310.888672 0.828125)"/>
    <use xlink:href="#DejaVuSans-20" transform="translate(370.068359 0.828125)"/>
    <use xlink:href="#DejaVuSans-66" transform="translate(401.855469 0.828125)"/>
    <use xlink:href="#DejaVuSans-6f" transform="translate(437.060547 0.828125)"/>
    <use xlink:href="#DejaVuSans-72" transform="translate(498.242188 0.828125)"/>
    <use xlink:href="#DejaVuSans-20" transform="translate(539.355469 0.828125)"/>
    <use xlink:href="#DejaVuSans-Oblique-3c4" transform="translate(571.142578 0.828125)"/>
    <use xlink:href="#DejaVuSans-Oblique-72" transform="translate(631.347656 -15.578125) scale(0.7)"/>
    <use xlink:href="#DejaVuSans-Oblique-65" transform="translate(660.126953 -15.578125) scale(0.7)"/>
    <use xlink:href="#DejaVuSans-Oblique-66" transform="translate(703.193359 -15.578125) scale(0.7)"/>
    <use xlink:href="#DejaVuSans-3a" transform="translate(730.571289 0.828125)"/>
    <use xlink:href="#DejaVuSans-20" transform="translate(764.262695 0.828125)"/>
    <use xlink:href="#DejaVuSans-30" transform="translate(796.049805 0.828125)"/>
    <use xlink:href="#DejaVuSans-2e" transform="translate(859.672852 0.828125)"/>
    <use xlink:href="#DejaVuSans-30" transform="translate(891.459961 0.828125)"/>
    <use xlink:href="#DejaVuSans-30" transform="translate(955.083008 0.828125)"/>
    <use xlink:href="#DejaVuSans-31" transform="translate(1018.706055 0.828125)"/>
   </g>
  </g>
 </g>
 <defs>
  <clipPath id="pfdd103cdc5">
   <rect x="44.845313" y="36" width="334.8" height="217.44"/>
  </clipPath>
 </defs>
</svg>
