<?xml version="1.0" encoding="utf-8" standalone="no"?>
<!DOCTYPE svg PUBLIC "-//W3C//DTD SVG 1.1//EN"
  "http://www.w3.org/Graphics/SVG/1.1/DTD/svg11.dtd">
<svg xmlns:xlink="http://www.w3.org/1999/xlink" width="386.845313pt" height="277.318125pt" viewBox="0 0 386.845313 277.318125" xmlns="http://www.w3.org/2000/svg" version="1.1">
 <metadata>
  <rdf:RDF xmlns:dc="http://purl.org/dc/elements/1.1/" xmlns:cc="http://creativecommons.org/ns#" xmlns:rdf="http://www.w3.org/1999/02/22-rdf-syntax-ns#">
   <cc:Work>
    <dc:type rdf:resource="http://purl.org/dc/dcmitype/StillImage"/>
    <dc:date>2022-11-14T18:37:41.226897</dc:date>
    <dc:format>image/svg+xml</dc:format>
    <dc:creator>
     <cc:Agent>
      <dc:title>Matplotlib v3.6.0, https://matplotlib.org/</dc:title>
     </cc:Agent>
    </dc:creator>
   </cc:Work>
  </rdf:RDF>
 </metadata>
 <defs>
  <style type="text/css">*{stroke-linejoin: round; stroke-linecap: butt}</style>
 </defs>
 <g id="figure_1">
  <g id="patch_1">
   <path d="M 0 277.318125 
L 386.845313 277.318125 
L 386.845313 0 
L 0 0 
L 0 277.318125 
z
" style="fill: none"/>
  </g>
  <g id="axes_1">
   <g id="patch_2">
    <path d="M 44.845313 253.44 
L 379.645313 253.44 
L 379.645313 36 
L 44.845313 36 
z
" style="fill: #ffffff"/>
   </g>
   <g id="matplotlib.axis_1">
    <g id="xtick_1">
     <g id="line2d_1">
      <defs>
       <path id="m94ca46abb6" d="M 0 0 
L 0 3.5 
" style="stroke: #000000; stroke-width: 0.8"/>
      </defs>
      <g>
       <use xlink:href="#m94ca46abb6" x="59.698727" y="253.44" style="stroke: #000000; stroke-width: 0.8"/>
      </g>
     </g>
     <g id="text_1">
      <!-- −1.00 -->
      <g transform="translate(44.376071 268.038437) scale(0.1 -0.1)">
       <defs>
        <path id="DejaVuSans-2212" d="M 678 2272 
L 4684 2272 
L 4684 1741 
L 678 1741 
L 678 2272 
z
" transform="scale(0.015625)"/>
        <path id="DejaVuSans-31" d="M 794 531 
L 1825 531 
L 1825 4091 
L 703 3866 
L 703 4441 
L 1819 4666 
L 2450 4666 
L 2450 531 
L 3481 531 
L 3481 0 
L 794 0 
L 794 531 
z
" transform="scale(0.015625)"/>
        <path id="DejaVuSans-2e" d="M 684 794 
L 1344 794 
L 1344 0 
L 684 0 
L 684 794 
z
" transform="scale(0.015625)"/>
        <path id="DejaVuSans-30" d="M 2034 4250 
Q 1547 4250 1301 3770 
Q 1056 3291 1056 2328 
Q 1056 1369 1301 889 
Q 1547 409 2034 409 
Q 2525 409 2770 889 
Q 3016 1369 3016 2328 
Q 3016 3291 2770 3770 
Q 2525 4250 2034 4250 
z
M 2034 4750 
Q 2819 4750 3233 4129 
Q 3647 3509 3647 2328 
Q 3647 1150 3233 529 
Q 2819 -91 2034 -91 
Q 1250 -91 836 529 
Q 422 1150 422 2328 
Q 422 3509 836 4129 
Q 1250 4750 2034 4750 
z
" transform="scale(0.015625)"/>
       </defs>
       <use xlink:href="#DejaVuSans-2212"/>
       <use xlink:href="#DejaVuSans-31" x="83.789062"/>
       <use xlink:href="#DejaVuSans-2e" x="147.412109"/>
       <use xlink:href="#DejaVuSans-30" x="179.199219"/>
       <use xlink:href="#DejaVuSans-30" x="242.822266"/>
      </g>
     </g>
    </g>
    <g id="xtick_2">
     <g id="line2d_2">
      <g>
       <use xlink:href="#m94ca46abb6" x="97.808299" y="253.44" style="stroke: #000000; stroke-width: 0.8"/>
      </g>
     </g>
     <g id="text_2">
      <!-- −0.75 -->
      <g transform="translate(82.485643 268.038437) scale(0.1 -0.1)">
       <defs>
        <path id="DejaVuSans-37" d="M 525 4666 
L 3525 4666 
L 3525 4397 
L 1831 0 
L 1172 0 
L 2766 4134 
L 525 4134 
L 525 4666 
z
" transform="scale(0.015625)"/>
        <path id="DejaVuSans-35" d="M 691 4666 
L 3169 4666 
L 3169 4134 
L 1269 4134 
L 1269 2991 
Q 1406 3038 1543 3061 
Q 1681 3084 1819 3084 
Q 2600 3084 3056 2656 
Q 3513 2228 3513 1497 
Q 3513 744 3044 326 
Q 2575 -91 1722 -91 
Q 1428 -91 1123 -41 
Q 819 9 494 109 
L 494 744 
Q 775 591 1075 516 
Q 1375 441 1709 441 
Q 2250 441 2565 725 
Q 2881 1009 2881 1497 
Q 2881 1984 2565 2268 
Q 2250 2553 1709 2553 
Q 1456 2553 1204 2497 
Q 953 2441 691 2322 
L 691 4666 
z
" transform="scale(0.015625)"/>
       </defs>
       <use xlink:href="#DejaVuSans-2212"/>
       <use xlink:href="#DejaVuSans-30" x="83.789062"/>
       <use xlink:href="#DejaVuSans-2e" x="147.412109"/>
       <use xlink:href="#DejaVuSans-37" x="179.199219"/>
       <use xlink:href="#DejaVuSans-35" x="242.822266"/>
      </g>
     </g>
    </g>
    <g id="xtick_3">
     <g id="line2d_3">
      <g>
       <use xlink:href="#m94ca46abb6" x="135.917871" y="253.44" style="stroke: #000000; stroke-width: 0.8"/>
      </g>
     </g>
     <g id="text_3">
      <!-- −0.50 -->
      <g transform="translate(120.595215 268.038437) scale(0.1 -0.1)">
       <use xlink:href="#DejaVuSans-2212"/>
       <use xlink:href="#DejaVuSans-30" x="83.789062"/>
       <use xlink:href="#DejaVuSans-2e" x="147.412109"/>
       <use xlink:href="#DejaVuSans-35" x="179.199219"/>
       <use xlink:href="#DejaVuSans-30" x="242.822266"/>
      </g>
     </g>
    </g>
    <g id="xtick_4">
     <g id="line2d_4">
      <g>
       <use xlink:href="#m94ca46abb6" x="174.027443" y="253.44" style="stroke: #000000; stroke-width: 0.8"/>
      </g>
     </g>
     <g id="text_4">
      <!-- −0.25 -->
      <g transform="translate(158.704787 268.038437) scale(0.1 -0.1)">
       <defs>
        <path id="DejaVuSans-32" d="M 1228 531 
L 3431 531 
L 3431 0 
L 469 0 
L 469 531 
Q 828 903 1448 1529 
Q 2069 2156 2228 2338 
Q 2531 2678 2651 2914 
Q 2772 3150 2772 3378 
Q 2772 3750 2511 3984 
Q 2250 4219 1831 4219 
Q 1534 4219 1204 4116 
Q 875 4013 500 3803 
L 500 4441 
Q 881 4594 1212 4672 
Q 1544 4750 1819 4750 
Q 2544 4750 2975 4387 
Q 3406 4025 3406 3419 
Q 3406 3131 3298 2873 
Q 3191 2616 2906 2266 
Q 2828 2175 2409 1742 
Q 1991 1309 1228 531 
z
" transform="scale(0.015625)"/>
       </defs>
       <use xlink:href="#DejaVuSans-2212"/>
       <use xlink:href="#DejaVuSans-30" x="83.789062"/>
       <use xlink:href="#DejaVuSans-2e" x="147.412109"/>
       <use xlink:href="#DejaVuSans-32" x="179.199219"/>
       <use xlink:href="#DejaVuSans-35" x="242.822266"/>
      </g>
     </g>
    </g>
    <g id="xtick_5">
     <g id="line2d_5">
      <g>
       <use xlink:href="#m94ca46abb6" x="212.137015" y="253.44" style="stroke: #000000; stroke-width: 0.8"/>
      </g>
     </g>
     <g id="text_5">
      <!-- 0.00 -->
      <g transform="translate(201.004202 268.038437) scale(0.1 -0.1)">
       <use xlink:href="#DejaVuSans-30"/>
       <use xlink:href="#DejaVuSans-2e" x="63.623047"/>
       <use xlink:href="#DejaVuSans-30" x="95.410156"/>
       <use xlink:href="#DejaVuSans-30" x="159.033203"/>
      </g>
     </g>
    </g>
    <g id="xtick_6">
     <g id="line2d_6">
      <g>
       <use xlink:href="#m94ca46abb6" x="250.246587" y="253.44" style="stroke: #000000; stroke-width: 0.8"/>
      </g>
     </g>
     <g id="text_6">
      <!-- 0.25 -->
      <g transform="translate(239.113774 268.038437) scale(0.1 -0.1)">
       <use xlink:href="#DejaVuSans-30"/>
       <use xlink:href="#DejaVuSans-2e" x="63.623047"/>
       <use xlink:href="#DejaVuSans-32" x="95.410156"/>
       <use xlink:href="#DejaVuSans-35" x="159.033203"/>
      </g>
     </g>
    </g>
    <g id="xtick_7">
     <g id="line2d_7">
      <g>
       <use xlink:href="#m94ca46abb6" x="288.356159" y="253.44" style="stroke: #000000; stroke-width: 0.8"/>
      </g>
     </g>
     <g id="text_7">
      <!-- 0.50 -->
      <g transform="translate(277.223346 268.038437) scale(0.1 -0.1)">
       <use xlink:href="#DejaVuSans-30"/>
       <use xlink:href="#DejaVuSans-2e" x="63.623047"/>
       <use xlink:href="#DejaVuSans-35" x="95.410156"/>
       <use xlink:href="#DejaVuSans-30" x="159.033203"/>
      </g>
     </g>
    </g>
    <g id="xtick_8">
     <g id="line2d_8">
      <g>
       <use xlink:href="#m94ca46abb6" x="326.465731" y="253.44" style="stroke: #000000; stroke-width: 0.8"/>
      </g>
     </g>
     <g id="text_8">
      <!-- 0.75 -->
      <g transform="translate(315.332918 268.038437) scale(0.1 -0.1)">
       <use xlink:href="#DejaVuSans-30"/>
       <use xlink:href="#DejaVuSans-2e" x="63.623047"/>
       <use xlink:href="#DejaVuSans-37" x="95.410156"/>
       <use xlink:href="#DejaVuSans-35" x="159.033203"/>
      </g>
     </g>
    </g>
    <g id="xtick_9">
     <g id="line2d_9">
      <g>
       <use xlink:href="#m94ca46abb6" x="364.575302" y="253.44" style="stroke: #000000; stroke-width: 0.8"/>
      </g>
     </g>
     <g id="text_9">
      <!-- 1.00 -->
      <g transform="translate(353.44249 268.038437) scale(0.1 -0.1)">
       <use xlink:href="#DejaVuSans-31"/>
       <use xlink:href="#DejaVuSans-2e" x="63.623047"/>
       <use xlink:href="#DejaVuSans-30" x="95.410156"/>
       <use xlink:href="#DejaVuSans-30" x="159.033203"/>
      </g>
     </g>
    </g>
   </g>
   <g id="matplotlib.axis_2">
    <g id="ytick_1">
     <g id="line2d_10">
      <defs>
       <path id="mb5db886ee7" d="M 0 0 
L -3.5 0 
" style="stroke: #000000; stroke-width: 0.8"/>
      </defs>
      <g>
       <use xlink:href="#mb5db886ee7" x="44.845313" y="244.286711" style="stroke: #000000; stroke-width: 0.8"/>
      </g>
     </g>
     <g id="text_10">
      <!-- −1.00 -->
      <g transform="translate(7.2 248.08593) scale(0.1 -0.1)">
       <use xlink:href="#DejaVuSans-2212"/>
       <use xlink:href="#DejaVuSans-31" x="83.789062"/>
       <use xlink:href="#DejaVuSans-2e" x="147.412109"/>
       <use xlink:href="#DejaVuSans-30" x="179.199219"/>
       <use xlink:href="#DejaVuSans-30" x="242.822266"/>
      </g>
     </g>
    </g>
    <g id="ytick_2">
     <g id="line2d_11">
      <g>
       <use xlink:href="#mb5db886ee7" x="44.845313" y="219.348353" style="stroke: #000000; stroke-width: 0.8"/>
      </g>
     </g>
     <g id="text_11">
      <!-- −0.75 -->
      <g transform="translate(7.2 223.147572) scale(0.1 -0.1)">
       <use xlink:href="#DejaVuSans-2212"/>
       <use xlink:href="#DejaVuSans-30" x="83.789062"/>
       <use xlink:href="#DejaVuSans-2e" x="147.412109"/>
       <use xlink:href="#DejaVuSans-37" x="179.199219"/>
       <use xlink:href="#DejaVuSans-35" x="242.822266"/>
      </g>
     </g>
    </g>
    <g id="ytick_3">
     <g id="line2d_12">
      <g>
       <use xlink:href="#mb5db886ee7" x="44.845313" y="194.409994" style="stroke: #000000; stroke-width: 0.8"/>
      </g>
     </g>
     <g id="text_12">
      <!-- −0.50 -->
      <g transform="translate(7.2 198.209213) scale(0.1 -0.1)">
       <use xlink:href="#DejaVuSans-2212"/>
       <use xlink:href="#DejaVuSans-30" x="83.789062"/>
       <use xlink:href="#DejaVuSans-2e" x="147.412109"/>
       <use xlink:href="#DejaVuSans-35" x="179.199219"/>
       <use xlink:href="#DejaVuSans-30" x="242.822266"/>
      </g>
     </g>
    </g>
    <g id="ytick_4">
     <g id="line2d_13">
      <g>
       <use xlink:href="#mb5db886ee7" x="44.845313" y="169.471636" style="stroke: #000000; stroke-width: 0.8"/>
      </g>
     </g>
     <g id="text_13">
      <!-- −0.25 -->
      <g transform="translate(7.2 173.270855) scale(0.1 -0.1)">
       <use xlink:href="#DejaVuSans-2212"/>
       <use xlink:href="#DejaVuSans-30" x="83.789062"/>
       <use xlink:href="#DejaVuSans-2e" x="147.412109"/>
       <use xlink:href="#DejaVuSans-32" x="179.199219"/>
       <use xlink:href="#DejaVuSans-35" x="242.822266"/>
      </g>
     </g>
    </g>
    <g id="ytick_5">
     <g id="line2d_14">
      <g>
       <use xlink:href="#mb5db886ee7" x="44.845313" y="144.533277" style="stroke: #000000; stroke-width: 0.8"/>
      </g>
     </g>
     <g id="text_14">
      <!-- 0.00 -->
      <g transform="translate(15.579688 148.332496) scale(0.1 -0.1)">
       <use xlink:href="#DejaVuSans-30"/>
       <use xlink:href="#DejaVuSans-2e" x="63.623047"/>
       <use xlink:href="#DejaVuSans-30" x="95.410156"/>
       <use xlink:href="#DejaVuSans-30" x="159.033203"/>
      </g>
     </g>
    </g>
    <g id="ytick_6">
     <g id="line2d_15">
      <g>
       <use xlink:href="#mb5db886ee7" x="44.845313" y="119.594919" style="stroke: #000000; stroke-width: 0.8"/>
      </g>
     </g>
     <g id="text_15">
      <!-- 0.25 -->
      <g transform="translate(15.579688 123.394138) scale(0.1 -0.1)">
       <use xlink:href="#DejaVuSans-30"/>
       <use xlink:href="#DejaVuSans-2e" x="63.623047"/>
       <use xlink:href="#DejaVuSans-32" x="95.410156"/>
       <use xlink:href="#DejaVuSans-35" x="159.033203"/>
      </g>
     </g>
    </g>
    <g id="ytick_7">
     <g id="line2d_16">
      <g>
       <use xlink:href="#mb5db886ee7" x="44.845313" y="94.65656" style="stroke: #000000; stroke-width: 0.8"/>
      </g>
     </g>
     <g id="text_16">
      <!-- 0.50 -->
      <g transform="translate(15.579688 98.455779) scale(0.1 -0.1)">
       <use xlink:href="#DejaVuSans-30"/>
       <use xlink:href="#DejaVuSans-2e" x="63.623047"/>
       <use xlink:href="#DejaVuSans-35" x="95.410156"/>
       <use xlink:href="#DejaVuSans-30" x="159.033203"/>
      </g>
     </g>
    </g>
    <g id="ytick_8">
     <g id="line2d_17">
      <g>
       <use xlink:href="#mb5db886ee7" x="44.845313" y="69.718202" style="stroke: #000000; stroke-width: 0.8"/>
      </g>
     </g>
     <g id="text_17">
      <!-- 0.75 -->
      <g transform="translate(15.579688 73.517421) scale(0.1 -0.1)">
       <use xlink:href="#DejaVuSans-30"/>
       <use xlink:href="#DejaVuSans-2e" x="63.623047"/>
       <use xlink:href="#DejaVuSans-37" x="95.410156"/>
       <use xlink:href="#DejaVuSans-35" x="159.033203"/>
      </g>
     </g>
    </g>
    <g id="ytick_9">
     <g id="line2d_18">
      <g>
       <use xlink:href="#mb5db886ee7" x="44.845313" y="44.779843" style="stroke: #000000; stroke-width: 0.8"/>
      </g>
     </g>
     <g id="text_18">
      <!-- 1.00 -->
      <g transform="translate(15.579688 48.579062) scale(0.1 -0.1)">
       <use xlink:href="#DejaVuSans-31"/>
       <use xlink:href="#DejaVuSans-2e" x="63.623047"/>
       <use xlink:href="#DejaVuSans-30" x="95.410156"/>
       <use xlink:href="#DejaVuSans-30" x="159.033203"/>
      </g>
     </g>
    </g>
   </g>
   <g id="line2d_19">
    <path d="M 281.500702 99.20787 
L 270.118643 106.490783 
L 295.321774 90.403132 
L 232.313948 130.980413 
L 216.460366 141.554305 
L 361.175114 47.547984 
L 329.874452 67.422798 
L 67.380532 238.880647 
L 361.581616 47.352486 
L 195.835196 155.844962 
L 337.19149 62.991195 
L 71.445553 236.354737 
L 256.297572 115.660055 
L 171.44507 169.864618 
L 65.348022 240.161516 
L 348.573549 55.178658 
L 319.7119 74.361212 
L 109.250248 212.234562 
L 214.021354 142.785455 
L 292.069757 92.948021 
L 218.899379 140.307814 
L 290.443748 93.973952 
L 257.92358 114.139241 
L 66.97403 239.130362 
L 281.907204 98.961468 
L 119.819303 204.804171 
L 363.614126 46.360708 
L 80.388599 230.377627 
L 219.305881 139.879066 
L 107.217738 213.388885 
L 133.640374 195.748271 
L 144.209429 188.923849 
L 324.589925 70.774314 
L 118.193295 206.051923 
L 86.486131 226.139282 
L 147.461446 186.888633 
L 324.996427 70.529006 
L 315.646879 77.089594 
L 325.402929 70.285116 
L 226.622919 135.308622 
L 198.274208 154.275979 
L 136.079387 194.190641 
L 101.933211 216.66513 
L 77.136583 232.536335 
L 259.143087 113.236855 
L 263.208108 110.26368 
L 259.549589 112.721892 
L 110.469755 211.538809 
L 97.055185 219.682826 
L 344.91503 57.509098 
L 338.410996 62.171514 
L 296.134778 89.685479 
L 118.599797 205.789205 
L 299.386795 87.76412 
L 186.89215 161.529043 
L 314.833874 77.54474 
L 185.672643 162.141028 
L 346.541038 56.366565 
L 166.973547 173.702313 
L 227.435923 134.728218 
L 301.825807 85.882635 
L 90.551152 223.850374 
L 95.429177 220.59004 
L 201.119723 151.926295 
L 69.819545 237.377536 
L 176.729597 167.098095 
L 322.150912 72.322295 
L 251.826049 118.81801 
L 237.598475 127.452246 
L 354.264578 51.783918 
L 261.988601 110.944409 
L 99.087696 218.524941 
L 70.632549 236.869078 
L 244.509011 123.174834 
L 253.045555 118.193337 
L 123.07132 202.495523 
L 64.535017 240.866013 
L 210.469271 144.607409 
L 302.232309 85.63488 
L 179.16861 165.82834 
L 162.502024 177.668975 
L 93.803169 221.492197 
L 269.712141 106.71792 
L 164.941036 175.370041 
L 245.728517 122.378163 
L 353.858076 52.102917 
L 238.41148 127.014134 
L 199.900217 152.878926 
L 115.34778 208.366399 
L 232.72045 130.703445 
L 293.289263 91.668071 
L 127.949345 199.477873 
L 181.20112 164.761673 
L 316.866385 76.395271 
L 157.217496 181.344858 
L 183.640133 163.445582 
L 76.73008 232.789094 
L 101.526709 216.875205 
L 70.226047 237.123966 
L 360.768612 47.743645 
L 222.151396 137.932295 
L 294.508769 90.918308 
L 348.167047 55.414656 
L 339.630503 61.113826 
L 86.079629 226.363089 
L 60.876499 243.147422 
L 227.842425 134.493127 
L 117.38029 207.001874 
L 304.671322 84.198424 
L 171.038568 170.081438 
L 148.27445 186.465732 
L 75.917076 233.28671 
L 117.786793 206.392989 
L 292.476259 92.20472 
L 224.99691 136.274554 
L 220.118885 139.338191 
L 196.6482 155.331597 
L 102.339713 216.454657 
L 184.046635 163.212823 
L 96.648683 219.910596 
L 172.258074 169.433823 
L 98.681194 218.760205 
L 334.345975 65.002917 
L 73.478064 235.032191 
L 297.354284 88.815386 
L 168.193053 172.462167 
L 193.802685 157.131898 
L 209.656267 145.505396 
L 207.217255 147.693094 
L 89.738148 224.326966 
L 64.94152 240.637133 
L 103.559219 215.820659 
L 333.126469 65.657933 
L 154.371982 183.299621 
L 359.955608 48.135863 
L 254.265061 117.568952 
L 213.208349 143.196928 
L 331.500461 66.536311 
L 260.362593 112.149555 
L 342.476017 59.193288 
L 120.225805 204.515441 
L 179.575112 165.615947 
L 290.850251 93.729781 
L 302.638811 85.390543 
L 217.679872 140.935078 
L 150.306961 185.412791 
L 198.680711 153.997038 
L 341.663013 59.697808 
L 133.233872 196.006876 
L 137.298893 193.585087 
L 142.176919 190.189502 
L 165.75404 174.62878 
L 147.054944 187.100916 
L 317.272887 76.152623 
L 84.45362 227.263698 
L 105.185227 214.56248 
L 229.468433 133.414111 
L 364.020629 46.069577 
L 153.152475 183.9364 
L 211.688778 143.97261 
L 114.128274 209.126678 
L 262.801606 110.489491 
L 199.493715 153.141372 
L 75.510574 233.532303 
L 141.363914 190.610643 
L 307.923339 82.334709 
L 140.957412 190.821761 
L 348.980051 54.94327 
L 233.533454 130.176938 
L 355.077582 51.314578 
L 204.778242 149.370724 
L 176.323095 167.309432 
L 192.989681 157.670465 
L 234.752961 129.360855 
L 359.142603 48.529702 
L 153.96548 183.512262 
L 264.021112 109.814842 
L 293.695765 91.417006 
L 85.266625 226.811557 
L 298.980293 87.973363 
L 313.207866 78.590669 
L 100.307202 217.790111 
L 119.412801 205.31347 
L 144.615931 188.653779 
L 272.557656 104.8007 
L 64.128515 241.094606 
L 147.867948 186.676957 
L 206.40425 148.483887 
L 233.939956 129.915672 
L 323.370419 71.523266 
L 275.403171 103.27397 
L 150.713463 185.202337 
L 91.364156 222.87117 
L 273.37066 104.35204 
L 93.396667 221.718147 
L 205.591246 148.93224 
L 205.184744 149.152377 
L 312.801364 78.837331 
L 162.908526 177.399225 
L 91.770658 222.633933 
L 153.558977 183.724509 
L 102.746215 216.243766 
L 177.136099 166.886755 
L 357.923097 49.466778 
L 321.337908 73.275762 
L 151.119965 184.9918 
L 357.516595 49.699353 
L 362.39462 46.961211 
L 158.437003 180.309616 
L 312.394862 79.077769 
L 110.876257 211.30576 
L 238.817982 126.769737 
L 304.26482 84.434106 
L 175.916593 167.520811 
L 196.241698 155.588806 
L 298.167288 88.393268 
L 95.835679 220.364061 
L 323.776921 71.270818 
L 282.313706 98.717328 
L 318.492393 75.309374 
L 205.997748 148.709706 
L 354.67108 51.550595 
L 131.607864 197.174124 
L 178.762108 166.04042 
L 329.46795 67.645976 
L 192.583179 157.960911 
L 310.362351 80.627987 
L 123.884324 201.984146 
L 203.965238 150.043472 
L 341.256511 59.95162 
L 350.199557 54.239868 
L 288.81774 94.928968 
L 231.094442 131.980731 
L 182.014124 164.330055 
L 213.614851 142.990996 
L 300.606301 86.671624 
L 284.752719 97.281979 
L 160.063011 179.23858 
L 283.533213 97.994742 
L 164.534534 175.881533 
L 88.112139 225.241386 
L 250.606543 119.445128 
L 265.64712 108.925929 
L 240.44399 125.841072 
L 60.469996 243.352399 
L 177.542601 166.675365 
L 180.388116 165.189936 
L 128.762349 198.867044 
L 332.313465 66.096262 
L 295.728276 89.914307 
L 215.647362 141.964991 
L 194.61569 156.612981 
L 306.29733 83.263463 
L 228.248927 134.251805 
L 135.672885 194.391024 
L 311.581858 79.844654 
L 210.062769 145.015516 
L 347.760545 55.65135 
L 116.160784 207.845631 
L 335.158979 64.567283 
L 236.378969 128.095151 
L 195.428694 156.100645 
L 134.453379 194.989197 
L 303.045314 85.148775 
L 152.339471 184.35926 
L 224.590408 136.485855 
L 92.990164 221.94475 
L 68.600038 238.131875 
L 190.957171 159.463294 
L 95.022675 220.815697 
L 308.736343 81.683717 
L 149.493956 185.83365 
L 136.892391 193.787807 
L 277.842183 102.009699 
L 328.248444 68.591083 
L 125.916835 200.569435 
L 215.24086 142.170063 
L 141.770417 190.399964 
L 208.030259 146.875642 
L 84.047118 227.697193 
L 282.720208 98.475027 
L 200.306719 152.556782 
L 130.388358 197.900392 
L 214.427856 142.580191 
L 346.134536 56.60707 
L 94.209671 221.266611 
L 104.778725 214.816213 
L 333.939473 65.220989 
L 338.817498 61.834952 
L 352.63857 52.834096 
L 327.43544 69.076572 
L 75.104072 233.776071 
L 291.663255 93.224444 
L 97.461688 219.454144 
L 255.484568 116.243246 
L 220.525387 139.085424 
L 330.280954 67.200282 
L 165.347538 175.069265 
L 253.858559 117.777193 
L 84.860122 227.036907 
L 301.012803 86.395602 
L 361.988118 47.156986 
L 248.16753 120.716221 
L 340.037005 60.805221 
L 242.476501 124.855107 
L 248.980534 120.289009 
L 221.338391 138.377206 
L 353.045072 52.596841 
L 352.232068 53.069668 
L 345.728034 56.848891 
L 308.329841 82.102558 
L 338.004494 62.442131 
L 274.590166 103.701157 
L 169.006057 171.653514 
L 158.030501 180.607772 
L 174.697087 168.155684 
L 292.882761 91.92524 
L 67.787034 238.631261 
L 332.719967 65.876902 
L 351.419063 53.538382 
L 98.274692 218.993154 
L 212.801847 143.403381 
L 140.55091 191.033579 
L 163.315028 177.122103 
L 241.256994 125.446187 
L 180.794618 164.976142 
L 329.061448 68.08801 
L 125.510332 200.786406 
L 134.859881 194.790221 
L 99.494198 218.286443 
L 327.028937 69.317848 
L 314.427372 77.77163 
L 346.94754 56.127198 
L 143.396425 189.557323 
L 355.890587 50.822538 
L 349.793055 54.473969 
L 261.582099 111.173759 
L 62.502507 242.015088 
L 69.006541 237.881328 
L 124.290826 201.704538 
L 311.98836 79.564637 
L 62.096005 242.253508 
L 224.183906 136.694672 
L 246.135019 122.129208 
L 314.02087 77.998392 
L 318.898895 75.092773 
L 289.630744 94.45445 
L 218.086375 140.727195 
L 122.664818 202.899862 
L 145.022433 188.406657 
L 173.071078 169.005906 
L 105.998232 214.086081 
L 270.525145 106.255093 
L 87.705637 225.466683 
L 300.199799 87.181612 
L 296.54128 89.453758 
L 132.420868 196.658154 
L 320.931406 73.539702 
L 303.451816 84.909023 
L 155.99799 182.444345 
L 249.793538 119.865646 
L 146.648442 187.314018 
L 60.063494 243.556364 
L 61.283001 242.941415 
L 277.435681 102.219081 
L 114.941278 208.621865 
L 303.858318 84.670897 
L 99.9007 218.042949 
L 181.607622 164.546377 
L 113.721772 209.376993 
L 164.128032 176.274407 
L 260.769095 111.637005 
L 108.437244 212.696488 
L 289.224242 94.692238 
L 126.729839 200.134445 
L 309.549347 81.144649 
L 250.20004 119.655084 
L 239.224484 126.435966 
L 280.281196 99.968166 
L 340.850009 60.206971 
L 264.834116 109.369137 
L 317.679389 75.741708 
L 197.867706 154.546302 
L 217.27337 141.142103 
L 96.242181 220.137625 
L 257.110576 114.750423 
L 347.354042 55.88883 
L 343.289021 58.690349 
L 182.420627 164.112421 
L 188.518158 160.70825 
L 258.736585 113.544506 
L 190.550669 159.672175 
L 63.722013 241.323202 
L 257.517078 114.439745 
L 179.981614 165.403173 
L 249.387036 120.076916 
L 208.843263 146.077829 
L 207.623757 147.394181 
L 247.761028 120.931692 
L 115.754282 208.108008 
L 204.37174 149.587739 
L 344.102026 58.079934 
L 121.851814 203.454382 
L 266.460124 108.484594 
L 139.331404 191.95817 
L 159.250007 179.764503 
L 152.745973 184.147972 
L 273.777162 104.13323 
L 73.071562 235.302212 
L 155.184986 182.873007 
L 101.120206 217.084901 
L 345.321532 57.09228 
L 173.884082 168.580063 
L 307.516837 82.566741 
L 287.598234 95.635404 
L 290.037246 94.215211 
L 140.144408 191.451543 
L 184.859639 162.547627 
L 353.451574 52.356191 
L 225.403412 136.058282 
L 269.305639 106.941582 
L 216.866868 141.348459 
L 112.095763 210.375147 
L 333.532971 65.43931 
L 116.973788 207.299796 
L 327.841942 68.834619 
L 92.583662 222.172417 
L 331.093958 66.757077 
L 281.0942 99.457122 
L 72.258557 235.833121 
L 129.168851 198.618078 
L 185.266141 162.344453 
L 235.565965 128.641921 
L 288.004736 95.400346 
L 112.502265 210.12482 
L 279.874694 100.233851 
L 131.201362 197.419308 
L 202.745732 150.840263 
L 90.14465 224.091856 
L 108.843746 212.465649 
L 74.291068 234.4776 
L 279.06169 100.824051 
L 155.591488 182.658954 
L 351.825566 53.304291 
L 168.599555 172.109262 
L 280.687698 99.710091 
L 78.356089 231.750881 
L 210.875774 144.393993 
L 237.191973 127.667032 
L 325.809431 70.042335 
L 228.655429 133.805934 
L 324.183423 71.021417 
L 169.819061 171.128254 
L 160.469513 178.978189 
L 184.453137 162.957946 
L 287.191732 95.870256 
L 246.541522 121.879692 
L 85.673127 226.587082 
L 111.689261 210.628344 
L 356.297089 50.363564 
L 183.233631 163.67122 
L 322.557414 72.043679 
L 242.883003 124.658118 
L 316.053381 76.860576 
L 216.053864 141.759776 
L 209.249765 145.796141 
L 364.427131 45.883636 
L 279.468192 100.512665 
L 161.689019 178.197143 
L 175.103589 167.943888 
L 190.144166 159.88045 
L 71.039051 236.612722 
L 229.874935 133.219066 
L 107.62424 213.15794 
L 208.436761 146.370748 
L 69.413043 237.629938 
L 81.608106 229.547078 
L 86.892633 225.91542 
L 274.996669 103.487071 
L 326.215933 69.800386 
L 221.744893 138.155782 
L 251.013045 119.235686 
L 175.510091 167.732281 
L 143.802927 189.345539 
L 125.10383 201.003154 
L 79.982097 230.598908 
L 186.485648 161.733344 
L 283.126711 98.234249 
L 71.852055 236.094941 
L 193.396183 157.397204 
L 200.713221 152.150069 
L 344.508528 57.803383 
L 285.159221 97.045814 
L 243.289505 124.122968 
L 94.616173 221.04117 
L 322.963916 71.78002 
L 122.258316 203.185335 
L 363.207624 46.566096 
L 246.948024 121.623701 
L 357.110093 49.923834 
L 103.965721 215.421566 
L 315.240377 77.317497 
L 239.630986 126.237239 
L 243.696007 123.862361 
L 171.851572 169.648799 
L 158.843505 180.033019 
L 359.549105 48.332555 
L 274.183664 103.916439 
L 188.92466 160.502028 
L 301.419305 86.135249 
L 186.079145 161.937332 
L 173.47758 168.792767 
L 151.932969 184.570302 
L 127.136341 199.916234 
L 142.583421 189.979049 
L 358.329599 49.073168 
L 225.809914 135.821369 
L 214.834358 142.375095 
L 203.558736 150.334649 
L 177.949103 166.463879 
L 309.142845 81.407918 
L 254.671564 117.136342 
L 248.574032 120.502058 
L 61.689503 242.511921 
L 276.622677 102.639259 
L 305.077824 83.963667 
L 88.518641 225.01515 
L 291.256753 93.481105 
L 264.427614 109.591639 
L 288.411238 95.164929 
L 188.111656 160.914035 
L 88.925143 224.787664 
L 191.363673 159.253767 
L 251.419547 119.026674 
L 266.053622 108.705068 
L 160.876015 178.71829 
L 351.012561 53.772216 
L 92.17716 222.401778 
L 330.687456 66.978389 
L 189.331162 160.295343 
L 73.884566 234.757982 
L 229.061931 133.609601 
L 74.69757 234.184986 
L 106.404734 213.852501 
L 278.248685 101.800728 
L 110.063253 211.771235 
L 156.404492 182.229136 
L 240.850492 125.643501 
L 151.526467 184.781135 
L 298.57379 88.183064 
L 263.61461 110.038828 
L 235.972467 128.309602 
L 328.654946 68.3441 
L 197.054702 155.072692 
L 211.282276 144.182533 
L 247.354526 121.313617 
L 89.331646 224.558494 
L 129.575353 198.37737 
L 362.801122 46.764651 
L 197.461204 154.811294 
L 342.882519 58.941846 
L 252.639053 118.401419 
L 219.712383 139.593602 
L 265.240618 109.147259 
L 212.09528 143.763911 
L 222.9644 137.439404 
L 319.305398 74.711944 
L 331.906963 66.316052 
L 116.567286 207.577461 
L 276.216175 102.850165 
L 105.59173 214.32201 
L 182.827129 163.893047 
L 78.762591 231.466522 
L 349.386553 54.708404 
L 103.152717 216.032439 
L 136.485889 193.989608 
L 297.760786 88.604024 
L 306.703832 83.030993 
L 326.622435 69.558992 
L 320.524904 73.801983 
L 169.412559 171.392483 
L 258.330082 113.84247 
L 296.947782 89.213486 
L 63.315511 241.552234 
L 65.754524 239.891371 
L 261.175597 111.404565 
L 201.932727 151.327829 
L 218.492877 140.518213 
L 104.372223 215.184382 
L 113.315269 209.626471 
L 313.614368 78.225206 
L 360.36211 47.939579 
L 167.786551 172.949454 
L 174.290585 168.367723 
L 242.069998 125.052061 
L 271.33815 105.635023 
L 294.915272 90.665405 
L 270.931648 105.841182 
L 149.900459 185.623211 
L 192.176677 158.493887 
L 343.695524 58.363598 
L 167.380049 173.221549 
L 187.705154 161.119412 
L 119.006299 205.549439 
L 336.784988 63.283062 
L 81.201604 229.931022 
L 318.085891 75.525636 
L 271.744652 105.429265 
L 285.565723 96.810149 
L 106.811236 213.620287 
L 195.022192 156.356436 
L 142.989923 189.768399 
L 161.282517 178.458173 
L 132.82737 196.251042 
L 66.567528 239.381067 
L 356.703591 50.144694 
L 212.395345 143.610499 
L 256.704074 115.091177 
L 129.981856 198.138807 
L 82.827612 228.578635 
L 77.543085 232.280109 
L 87.299135 225.691289 
L 138.111898 192.697058 
L 272.964158 104.573811 
L 286.78523 96.105038 
L 80.795101 230.155048 
L 259.956091 112.44542 
L 72.665059 235.569002 
L 226.216417 135.511454 
L 255.078066 116.878023 
L 83.640616 227.987962 
L 109.656751 212.003123 
L 321.74441 72.997886 
L 159.656509 179.500303 
L 309.955849 80.885595 
L 154.778484 183.086549 
L 123.477822 202.243564 
L 277.029179 102.428917 
L 79.575595 230.819002 
L 355.484084 51.073827 
L 90.957654 223.298394 
L 350.606059 54.005993 
L 234.346459 129.649089 
L 286.378727 96.339871 
L 148.680952 186.254835 
L 283.939715 97.756305 
L 268.086133 107.604542 
L 316.459883 76.629668 
L 108.030742 212.927203 
L 245.322015 122.630103 
L 121.445311 203.718498 
L 83.234114 228.272253 
L 305.484326 83.729677 
L 227.029421 135.103746 
L 97.86819 219.224343 
L 268.492635 107.384274 
L 334.752477 64.785037 
L 310.768853 80.37007 
L 114.534776 208.875115 
L 156.810994 181.859299 
L 127.542843 199.697414 
L 77.949587 232.019181 
L 311.175356 80.109996 
L 266.866627 108.264417 
L 170.225564 170.852948 
L 252.232551 118.609618 
L 139.737906 191.712492 
L 222.557898 137.703016 
L 187.298652 161.324407 
L 231.907446 131.478623 
L 191.770175 158.778971 
L 172.664576 169.219561 
L 145.428935 188.161242 
L 320.118402 74.068934 
L 194.209187 156.871092 
L 223.777404 136.902033 
L 272.151154 105.040691 
L 340.443507 60.464348 
L 128.355847 199.25749 
L 342.069515 59.445149 
L 163.72153 176.828977 
L 189.737664 160.088161 
L 111.282759 210.890279 
L 240.037488 126.038963 
L 262.395103 110.716363 
L 285.972225 96.574871 
L 66.161026 239.633913 
L 233.126952 130.438122 
L 100.713704 217.506704 
L 339.224 61.399276 
L 112.908767 209.875557 
L 337.597992 62.714049 
L 170.632066 170.495984 
L 126.323337 200.352146 
L 236.785471 127.881114 
L 76.323578 233.039074 
L 267.679631 107.824528 
L 358.736101 48.857081 
L 157.623998 181.064486 
L 162.095522 177.934418 
L 134.046877 195.413056 
L 253.452057 117.98529 
L 244.915513 122.889885 
L 244.915513 122.889885 
" clip-path="url(#pa6136d040c)" style="fill: none; stroke: #1f77b4; stroke-width: 1.5; stroke-linecap: square"/>
   </g>
   <g id="patch_3">
    <path d="M 44.845313 253.44 
L 44.845313 36 
" style="fill: none; stroke: #000000; stroke-width: 0.8; stroke-linejoin: miter; stroke-linecap: square"/>
   </g>
   <g id="patch_4">
    <path d="M 379.645313 253.44 
L 379.645313 36 
" style="fill: none; stroke: #000000; stroke-width: 0.8; stroke-linejoin: miter; stroke-linecap: square"/>
   </g>
   <g id="patch_5">
    <path d="M 44.845313 253.44 
L 379.645313 253.44 
" style="fill: none; stroke: #000000; stroke-width: 0.8; stroke-linejoin: miter; stroke-linecap: square"/>
   </g>
   <g id="patch_6">
    <path d="M 44.845313 36 
L 379.645313 36 
" style="fill: none; stroke: #000000; stroke-width: 0.8; stroke-linejoin: miter; stroke-linecap: square"/>
   </g>
  </g>
  <g id="text_19">
   <!-- $x$ and $\hat{x}$ for $\tau_{rc}$: 0.01 -->
   <g transform="translate(147.445312 17.904375) scale(0.12 -0.12)">
    <defs>
     <path id="DejaVuSans-Oblique-78" d="M 3841 3500 
L 2234 1784 
L 3219 0 
L 2559 0 
L 1819 1388 
L 531 0 
L -166 0 
L 1556 1844 
L 641 3500 
L 1300 3500 
L 1972 2234 
L 3144 3500 
L 3841 3500 
z
" transform="scale(0.015625)"/>
     <path id="DejaVuSans-20" transform="scale(0.015625)"/>
     <path id="DejaVuSans-61" d="M 2194 1759 
Q 1497 1759 1228 1600 
Q 959 1441 959 1056 
Q 959 750 1161 570 
Q 1363 391 1709 391 
Q 2188 391 2477 730 
Q 2766 1069 2766 1631 
L 2766 1759 
L 2194 1759 
z
M 3341 1997 
L 3341 0 
L 2766 0 
L 2766 531 
Q 2569 213 2275 61 
Q 1981 -91 1556 -91 
Q 1019 -91 701 211 
Q 384 513 384 1019 
Q 384 1609 779 1909 
Q 1175 2209 1959 2209 
L 2766 2209 
L 2766 2266 
Q 2766 2663 2505 2880 
Q 2244 3097 1772 3097 
Q 1472 3097 1187 3025 
Q 903 2953 641 2809 
L 641 3341 
Q 956 3463 1253 3523 
Q 1550 3584 1831 3584 
Q 2591 3584 2966 3190 
Q 3341 2797 3341 1997 
z
" transform="scale(0.015625)"/>
     <path id="DejaVuSans-6e" d="M 3513 2113 
L 3513 0 
L 2938 0 
L 2938 2094 
Q 2938 2591 2744 2837 
Q 2550 3084 2163 3084 
Q 1697 3084 1428 2787 
Q 1159 2491 1159 1978 
L 1159 0 
L 581 0 
L 581 3500 
L 1159 3500 
L 1159 2956 
Q 1366 3272 1645 3428 
Q 1925 3584 2291 3584 
Q 2894 3584 3203 3211 
Q 3513 2838 3513 2113 
z
" transform="scale(0.015625)"/>
     <path id="DejaVuSans-64" d="M 2906 2969 
L 2906 4863 
L 3481 4863 
L 3481 0 
L 2906 0 
L 2906 525 
Q 2725 213 2448 61 
Q 2172 -91 1784 -91 
Q 1150 -91 751 415 
Q 353 922 353 1747 
Q 353 2572 751 3078 
Q 1150 3584 1784 3584 
Q 2172 3584 2448 3432 
Q 2725 3281 2906 2969 
z
M 947 1747 
Q 947 1113 1208 752 
Q 1469 391 1925 391 
Q 2381 391 2643 752 
Q 2906 1113 2906 1747 
Q 2906 2381 2643 2742 
Q 2381 3103 1925 3103 
Q 1469 3103 1208 2742 
Q 947 2381 947 1747 
z
" transform="scale(0.015625)"/>
     <path id="DejaVuSans-302" d="M -1831 5119 
L -1369 5119 
L -603 3944 
L -1038 3944 
L -1600 4709 
L -2163 3944 
L -2597 3944 
L -1831 5119 
z
M -1600 3584 
L -1600 3584 
z
" transform="scale(0.015625)"/>
     <path id="DejaVuSans-66" d="M 2375 4863 
L 2375 4384 
L 1825 4384 
Q 1516 4384 1395 4259 
Q 1275 4134 1275 3809 
L 1275 3500 
L 2222 3500 
L 2222 3053 
L 1275 3053 
L 1275 0 
L 697 0 
L 697 3053 
L 147 3053 
L 147 3500 
L 697 3500 
L 697 3744 
Q 697 4328 969 4595 
Q 1241 4863 1831 4863 
L 2375 4863 
z
" transform="scale(0.015625)"/>
     <path id="DejaVuSans-6f" d="M 1959 3097 
Q 1497 3097 1228 2736 
Q 959 2375 959 1747 
Q 959 1119 1226 758 
Q 1494 397 1959 397 
Q 2419 397 2687 759 
Q 2956 1122 2956 1747 
Q 2956 2369 2687 2733 
Q 2419 3097 1959 3097 
z
M 1959 3584 
Q 2709 3584 3137 3096 
Q 3566 2609 3566 1747 
Q 3566 888 3137 398 
Q 2709 -91 1959 -91 
Q 1206 -91 779 398 
Q 353 888 353 1747 
Q 353 2609 779 3096 
Q 1206 3584 1959 3584 
z
" transform="scale(0.015625)"/>
     <path id="DejaVuSans-72" d="M 2631 2963 
Q 2534 3019 2420 3045 
Q 2306 3072 2169 3072 
Q 1681 3072 1420 2755 
Q 1159 2438 1159 1844 
L 1159 0 
L 581 0 
L 581 3500 
L 1159 3500 
L 1159 2956 
Q 1341 3275 1631 3429 
Q 1922 3584 2338 3584 
Q 2397 3584 2469 3576 
Q 2541 3569 2628 3553 
L 2631 2963 
z
" transform="scale(0.015625)"/>
     <path id="DejaVuSans-Oblique-3c4" d="M 2103 638 
Q 2188 488 2525 488 
L 2800 488 
L 2706 0 
L 2363 0 
Q 1800 0 1600 300 
Q 1403 606 1534 1269 
L 1856 2925 
L 541 2925 
L 653 3500 
L 3881 3500 
L 3769 2925 
L 2444 2925 
L 2113 1234 
Q 2025 781 2103 638 
z
" transform="scale(0.015625)"/>
     <path id="DejaVuSans-Oblique-72" d="M 2853 2969 
Q 2766 3016 2653 3041 
Q 2541 3066 2413 3066 
Q 1953 3066 1609 2717 
Q 1266 2369 1153 1784 
L 800 0 
L 225 0 
L 909 3500 
L 1484 3500 
L 1375 2956 
Q 1603 3259 1920 3421 
Q 2238 3584 2597 3584 
Q 2691 3584 2781 3573 
Q 2872 3563 2963 3538 
L 2853 2969 
z
" transform="scale(0.015625)"/>
     <path id="DejaVuSans-Oblique-63" d="M 3431 3366 
L 3316 2797 
Q 3109 2947 2876 3022 
Q 2644 3097 2394 3097 
Q 2119 3097 1870 3000 
Q 1622 2903 1453 2725 
Q 1184 2453 1037 2087 
Q 891 1722 891 1331 
Q 891 859 1127 628 
Q 1363 397 1844 397 
Q 2081 397 2348 469 
Q 2616 541 2906 684 
L 2797 116 
Q 2547 13 2283 -39 
Q 2019 -91 1741 -91 
Q 1044 -91 669 257 
Q 294 606 294 1253 
Q 294 1797 489 2255 
Q 684 2713 1069 3078 
Q 1331 3328 1684 3456 
Q 2038 3584 2456 3584 
Q 2700 3584 2940 3529 
Q 3181 3475 3431 3366 
z
" transform="scale(0.015625)"/>
     <path id="DejaVuSans-3a" d="M 750 794 
L 1409 794 
L 1409 0 
L 750 0 
L 750 794 
z
M 750 3309 
L 1409 3309 
L 1409 2516 
L 750 2516 
L 750 3309 
z
" transform="scale(0.015625)"/>
    </defs>
    <use xlink:href="#DejaVuSans-Oblique-78" transform="translate(0 0.828125)"/>
    <use xlink:href="#DejaVuSans-20" transform="translate(59.179688 0.828125)"/>
    <use xlink:href="#DejaVuSans-61" transform="translate(90.966797 0.828125)"/>
    <use xlink:href="#DejaVuSans-6e" transform="translate(152.246094 0.828125)"/>
    <use xlink:href="#DejaVuSans-64" transform="translate(215.625 0.828125)"/>
    <use xlink:href="#DejaVuSans-20" transform="translate(279.101562 0.828125)"/>
    <use xlink:href="#DejaVuSans-302" transform="translate(373.261719 12.015625)"/>
    <use xlink:href="#DejaVuSans-Oblique-78" transform="translate(310.888672 0.828125)"/>
    <use xlink:href="#DejaVuSans-20" transform="translate(370.068359 0.828125)"/>
    <use xlink:href="#DejaVuSans-66" transform="translate(401.855469 0.828125)"/>
    <use xlink:href="#DejaVuSans-6f" transform="translate(437.060547 0.828125)"/>
    <use xlink:href="#DejaVuSans-72" transform="translate(498.242188 0.828125)"/>
    <use xlink:href="#DejaVuSans-20" transform="translate(539.355469 0.828125)"/>
    <use xlink:href="#DejaVuSans-Oblique-3c4" transform="translate(571.142578 0.828125)"/>
    <use xlink:href="#DejaVuSans-Oblique-72" transform="translate(631.347656 -15.578125) scale(0.7)"/>
    <use xlink:href="#DejaVuSans-Oblique-63" transform="translate(660.126953 -15.578125) scale(0.7)"/>
    <use xlink:href="#DejaVuSans-3a" transform="translate(701.347656 0.828125)"/>
    <use xlink:href="#DejaVuSans-20" transform="translate(735.039062 0.828125)"/>
    <use xlink:href="#DejaVuSans-30" transform="translate(766.826172 0.828125)"/>
    <use xlink:href="#DejaVuSans-2e" transform="translate(830.449219 0.828125)"/>
    <use xlink:href="#DejaVuSans-30" transform="translate(862.236328 0.828125)"/>
    <use xlink:href="#DejaVuSans-31" transform="translate(925.859375 0.828125)"/>
   </g>
  </g>
 </g>
 <defs>
  <clipPath id="pa6136d040c">
   <rect x="44.845313" y="36" width="334.8" height="217.44"/>
  </clipPath>
 </defs>
</svg>
